<svg xmlns="http://www.w3.org/2000/svg">
<defs>
<font id="UntitledSans-Bold" horiz-adv-x="1155" >
  <font-face 
    font-family="Copyright Klim Type Foundry"
    font-weight="700"
    font-stretch="normal"
    units-per-em="2048"
    panose-1="2 11 8 3 3 2 2 6 2 3"
    ascent="1638"
    descent="-410"
    x-height="1049"
    cap-height="1462"
    bbox="-442 -492 2220 2030"
    underline-thickness="204"
    underline-position="-511"
    unicode-range="U+000D-F6C3"
  />
<missing-glyph horiz-adv-x="2412" 
d="M1964 961q12 0 32 2q15 1 36 6v-113q-27 -8 -51 -12q-21 -4 -58 -4q-86 0 -129 43t-43 129v256h-74v106h74v133h152v-133h116v-106h-116v-238q0 -34 15 -52q14 -17 46 -17zM502 1374h153v-82q22 46 64 71q44 26 98 26q92 0 144 -54q51 -52 51 -149v-338h-154v303
q0 60 -24 90q-25 31 -72 31q-52 0 -79 -36q-28 -37 -28 -103v-285h-153v526zM1366 838q-126 0 -200 74t-74 202q0 126 74 200q75 75 200 75q123 0 198 -75q74 -74 74 -200t-74 -201t-198 -75zM1366 1278q-60 0 -91 -42q-32 -43 -32 -122q0 -81 32 -125q31 -43 91 -43
q55 0 87 44t32 124q0 76 -31 121q-30 43 -88 43zM379 848h-174v174h174v-174zM2032 733v-112q-21 5 -36 6q-20 2 -32 2q-31 0 -46 -18t-15 -52v-31h116v-106h-116v-422h-152v422h-74v106h74v50q0 86 43 129t129 43q31 0 58 -5q24 -5 51 -12zM1012 0h-152v84q-21 -43 -64 -70
q-42 -26 -100 -26q-106 0 -168 75q-63 77 -63 201t63 200q63 77 168 77q52 0 96 -26q44 -25 66 -69v297h154v-743zM1479 166h147q-24 -86 -90 -132q-65 -46 -166 -46q-127 0 -202 74q-76 75 -76 200t78 200q80 77 200 77q121 0 193 -74q71 -72 71 -193v-47h-395
q7 -62 41 -96q33 -33 90 -33q43 0 70 18t39 52zM1370 432q-51 0 -84 -30t-43 -85h242q-1 50 -33 83q-30 32 -82 32zM739 96q57 0 90 42t33 116v18q0 74 -33 116t-90 42t-90 -44t-33 -122t33 -123t90 -45z" />
    <glyph glyph-name="f_idieresis" unicode="f&#xef;" horiz-adv-x="1374" 
d="M172 0v809h-137v240h137v61q0 183 130 294q132 112 337 112q45 0 112 -7q54 -6 105 -18v-260q-27 10 -77 16q-47 6 -89 6q-84 0 -130 -39t-46 -112v-53h205v-240h-205v-809h-342zM1407 1194h-301v297h301v-297zM891 0v1049h344v-1049h-344z" />
    <glyph glyph-name=".notdef" horiz-adv-x="2412" 
d="M1964 961q12 0 32 2q15 1 36 6v-113q-27 -8 -51 -12q-21 -4 -58 -4q-86 0 -129 43t-43 129v256h-74v106h74v133h152v-133h116v-106h-116v-238q0 -34 15 -52q14 -17 46 -17zM502 1374h153v-82q22 46 64 71q44 26 98 26q92 0 144 -54q51 -52 51 -149v-338h-154v303
q0 60 -24 90q-25 31 -72 31q-52 0 -79 -36q-28 -37 -28 -103v-285h-153v526zM1366 838q-126 0 -200 74t-74 202q0 126 74 200q75 75 200 75q123 0 198 -75q74 -74 74 -200t-74 -201t-198 -75zM1366 1278q-60 0 -91 -42q-32 -43 -32 -122q0 -81 32 -125q31 -43 91 -43
q55 0 87 44t32 124q0 76 -31 121q-30 43 -88 43zM379 848h-174v174h174v-174zM2032 733v-112q-21 5 -36 6q-20 2 -32 2q-31 0 -46 -18t-15 -52v-31h116v-106h-116v-422h-152v422h-74v106h74v50q0 86 43 129t129 43q31 0 58 -5q24 -5 51 -12zM1012 0h-152v84q-21 -43 -64 -70
q-42 -26 -100 -26q-106 0 -168 75q-63 77 -63 201t63 200q63 77 168 77q52 0 96 -26q44 -25 66 -69v297h154v-743zM1479 166h147q-24 -86 -90 -132q-65 -46 -166 -46q-127 0 -202 74q-76 75 -76 200t78 200q80 77 200 77q121 0 193 -74q71 -72 71 -193v-47h-395
q7 -62 41 -96q33 -33 90 -33q43 0 70 18t39 52zM1370 432q-51 0 -84 -30t-43 -85h242q-1 50 -33 83q-30 32 -82 32zM739 96q57 0 90 42t33 116v18q0 74 -33 116t-90 42t-90 -44t-33 -122t33 -123t90 -45z" />
    <glyph glyph-name=".null" horiz-adv-x="0" 
 />
    <glyph glyph-name="nonmarkingreturn" unicode="&#xd;" horiz-adv-x="452" 
 />
    <glyph glyph-name="NULL" horiz-adv-x="0" 
 />
    <glyph glyph-name="NULL" horiz-adv-x="0" 
 />
    <glyph glyph-name="space" unicode=" " horiz-adv-x="419" 
 />
    <glyph glyph-name="exclam" unicode="!" horiz-adv-x="704" 
d="M213 512l-57 950h393l-57 -950h-279zM541 0h-377v362h377v-362z" />
    <glyph glyph-name="quotedbl" unicode="&#x22;" horiz-adv-x="1036" 
d="M854 872h-215l-53 635h323zM399 872h-217l-55 635h328z" />
    <glyph glyph-name="numbersign" unicode="#" horiz-adv-x="1529" 
d="M958 82h-229l86 344h-260l-86 -344h-231l86 344h-224l47 207h230l55 221h-233l47 209h239l86 344h232l-86 -344h260l86 344h229l-86 -344h224l-46 -209h-231l-55 -221h235l-47 -207h-242zM664 854l-56 -221h260l56 221h-260z" />
    <glyph glyph-name="dollar" unicode="$" horiz-adv-x="1398" 
d="M1325 430q0 -191 -146 -312q-147 -122 -386 -138v-205h-175v207q-247 24 -395 146t-166 321h326q6 -88 67 -143t168 -73v369l-112 19q-199 34 -302 137q-102 102 -102 272q0 188 142 310q143 123 374 141v194h175v-198q223 -21 355 -135q131 -113 152 -302h-315
q-7 71 -57 118q-50 46 -135 63v-353l141 -24q196 -34 294 -138q97 -103 97 -276zM420 1059q0 -68 41 -103q40 -34 157 -55v326q-94 -12 -147 -57q-51 -44 -51 -111zM1008 406q0 72 -49 110q-47 37 -166 55v-340q103 10 159 56q56 45 56 119z" />
    <glyph glyph-name="percent" unicode="%" horiz-adv-x="1759" 
d="M457 784q-145 0 -249 104t-104 249q0 142 104 246t249 104t248 -103q102 -102 102 -247t-102 -249t-248 -104zM276 0l996 1462h213l-996 -1462h-213zM457 1307q-67 0 -116 -51q-48 -50 -48 -119q0 -71 48 -121q48 -49 116 -49q67 0 115 49q49 51 49 121q0 68 -49 119
t-115 51zM1303 -25q-143 0 -247 104t-104 247q0 144 104 248t247 104q145 0 247 -104q103 -105 103 -248q0 -145 -103 -248t-247 -103zM1303 496q-68 0 -116 -50t-48 -120t48 -120t116 -50q66 0 116 50q49 49 49 120q0 70 -48 120t-117 50z" />
    <glyph glyph-name="ampersand" unicode="&#x26;" horiz-adv-x="1603" 
d="M1597 0h-417l-109 106q-98 -64 -214 -98q-114 -33 -234 -33q-242 0 -391 113q-148 112 -148 299q0 121 69 217t218 178q-79 84 -114 156q-34 71 -34 152q0 174 134 285q135 112 343 112q198 0 326 -102q127 -102 127 -257q0 -119 -73 -206q-72 -85 -251 -174l269 -261
q42 68 68 141q28 78 38 156h299q-17 -131 -72 -253t-143 -230zM698 1264q-68 0 -115 -44q-46 -43 -46 -110q0 -45 23 -84q25 -43 97 -113q116 51 158 95q39 40 39 110q0 62 -44 104t-112 42zM416 422q0 -86 64 -140q66 -55 167 -55q59 0 123 16q57 14 115 44l-340 327
q-70 -41 -99 -85q-30 -47 -30 -107z" />
    <glyph glyph-name="quotesingle" unicode="'" horiz-adv-x="587" 
d="M406 872h-224l-55 635h334z" />
    <glyph glyph-name="parenleft" unicode="(" horiz-adv-x="929" 
d="M516 643q0 -219 85 -438t245 -426h-320q-170 196 -259 417q-87 218 -87 447q0 231 88 449t258 415h320q-162 -224 -246 -442q-84 -219 -84 -422z" />
    <glyph glyph-name="parenright" unicode=")" horiz-adv-x="929" 
d="M414 643q0 203 -84 422q-84 218 -246 442h319q172 -199 259 -415q88 -218 88 -449q0 -229 -87 -447q-88 -219 -260 -417h-319q160 207 245 426t85 438z" />
    <glyph glyph-name="asterisk" unicode="*" horiz-adv-x="903" 
d="M358 1239v248h187v-244l231 74l60 -178l-232 -78l141 -195l-149 -112l-145 196l-142 -196l-151 110l141 197l-231 76l57 180z" />
    <glyph glyph-name="plus" unicode="+" horiz-adv-x="1351" 
d="M1223 803v-244h-426v-426h-242v426h-428v244h428v426h242v-426h426z" />
    <glyph glyph-name="comma" unicode="," horiz-adv-x="706" 
d="M340 12h-176v367h379v-387q0 -168 -106 -260t-298 -92v174q108 1 155 44q46 42 46 132v22z" />
    <glyph glyph-name="hyphen" unicode="-" horiz-adv-x="935" 
d="M758 451h-580v280h580v-280z" />
    <glyph glyph-name="period" unicode="." horiz-adv-x="706" 
d="M543 0h-379v379h379v-379z" />
    <glyph glyph-name="slash" unicode="/" horiz-adv-x="1140" 
d="M397 -221h-319l667 1728h320z" />
    <glyph glyph-name="zero" unicode="0" horiz-adv-x="1474" 
d="M737 -25q-297 0 -477 209q-180 208 -180 547t180 547q180 209 477 209q294 0 476 -209t182 -547t-182 -547t-476 -209zM737 1221q-144 0 -221 -125q-76 -124 -76 -365q0 -240 76 -364q77 -125 221 -125t221 125q76 124 76 364q0 241 -76 365q-77 125 -221 125z" />
    <glyph glyph-name="one" unicode="1" horiz-adv-x="903" 
d="M358 1014h-290v233q181 0 273 50q91 49 118 167h254v-1464h-355v1014z" />
    <glyph glyph-name="two" unicode="2" horiz-adv-x="1263" 
d="M653 1487q239 0 385 -127q148 -128 148 -330q0 -154 -92 -269q-91 -114 -351 -245q-153 -79 -215 -132q-63 -54 -69 -110h729v-274h-1122v125q0 171 104 312q105 142 365 294q217 125 267 180q50 56 50 125q0 86 -52 134q-54 49 -149 49q-97 0 -161 -67q-62 -65 -68 -173
h-342q18 229 173 369q154 139 400 139z" />
    <glyph glyph-name="three" unicode="3" horiz-adv-x="1288" 
d="M922 735q137 -23 216 -112t79 -224q0 -186 -157 -305t-413 -119q-255 0 -418 128q-162 127 -180 341h338q7 -92 80 -150q71 -56 180 -56q113 0 177 51q65 51 65 139t-62 133t-178 45h-145v250h141q101 0 159 47q56 46 56 135q0 85 -55 134q-57 51 -150 51q-99 0 -163 -58
t-70 -151h-326q15 212 168 342q154 131 395 131q240 0 382 -121q143 -122 143 -311q0 -123 -72 -210q-73 -88 -190 -110z" />
    <glyph glyph-name="four" unicode="4" horiz-adv-x="1439" 
d="M735 1462h381v-860h273v-268h-273v-334h-340v334h-721v270zM776 602v545l-422 -545h422z" />
    <glyph glyph-name="five" unicode="5" horiz-adv-x="1306" 
d="M889 483q0 114 -62 184q-61 68 -170 68q-70 0 -126 -28q-57 -29 -87 -78h-319l86 833h924v-274h-668l-31 -289q45 42 125 70q75 26 166 26q224 0 362 -141t138 -367q0 -224 -156 -368t-409 -144q-262 0 -420 128t-176 350h354q7 -97 73 -158q63 -59 164 -59q107 0 169 68
q63 69 63 179z" />
    <glyph glyph-name="six" unicode="6" horiz-adv-x="1335" 
d="M705 1223q-136 0 -219 -119t-83 -307q55 87 144 134q88 46 201 46q222 0 366 -140q146 -141 146 -354q0 -222 -158 -365t-408 -143q-277 0 -446 199q-168 198 -168 533q0 350 176 565t461 215q212 0 356 -117q143 -116 170 -307h-321q-22 79 -77 120q-53 40 -140 40z
M442 481q0 -111 70 -184q69 -72 180 -72q108 0 176 71t68 185q0 113 -68 183q-68 69 -176 69q-111 0 -180 -69q-70 -70 -70 -183z" />
    <glyph glyph-name="seven" unicode="7" horiz-adv-x="1222" 
d="M813 1188h-760v274h1108v-278q-232 -284 -331 -548q-98 -264 -103 -636h-365q4 313 114 604q110 293 337 584z" />
    <glyph glyph-name="eight" unicode="8" horiz-adv-x="1355" 
d="M139 1067q0 191 148 306q147 114 391 114t391 -114q148 -115 148 -306q0 -102 -58 -191q-59 -90 -155 -135q110 -24 194 -121q84 -98 84 -214q0 -197 -164 -314t-440 -117q-274 0 -438 117t-164 314q0 116 83 214q82 97 195 121q-95 45 -156 135q-59 88 -59 191z
M449 1055q0 -89 61 -140q62 -51 168 -51t168 51q61 51 61 140q0 88 -61 139q-62 51 -168 51t-168 -51q-61 -51 -61 -139zM410 424q0 -96 70 -148q71 -53 198 -53q126 0 199 53q71 52 71 148q0 95 -71 147q-74 54 -199 54t-198 -54q-70 -52 -70 -147z" />
    <glyph glyph-name="nine" unicode="9" horiz-adv-x="1335" 
d="M631 240q136 0 218 118q83 119 83 308q-56 -88 -144 -135q-88 -46 -200 -46q-222 0 -367 141t-145 353q0 224 157 366t408 142q277 0 446 -199q168 -198 168 -532q0 -351 -176 -566t-461 -215q-212 0 -356 117q-143 116 -170 307h322q22 -79 76 -119q53 -40 141 -40z
M893 981q0 111 -70 184q-69 72 -180 72q-108 0 -176 -71t-68 -185q0 -112 68 -182t176 -70q110 0 180 70t70 182z" />
    <glyph glyph-name="colon" unicode=":" horiz-adv-x="706" 
d="M543 637h-379v379h379v-379zM543 0h-379v379h379v-379z" />
    <glyph glyph-name="semicolon" unicode=";" horiz-adv-x="706" 
d="M340 12h-176v367h379v-387q0 -168 -106 -260t-298 -92v174q108 1 155 44q46 42 46 132v22zM543 637h-379v379h379v-379z" />
    <glyph glyph-name="less" unicode="&#x3c;" horiz-adv-x="1351" 
d="M1155 131l-971 385v320l971 383v-275l-715 -268l715 -268v-277z" />
    <glyph glyph-name="equal" unicode="=" horiz-adv-x="1351" 
d="M1219 774h-1086v221h1086v-221zM1219 342h-1086v221h1086v-221z" />
    <glyph glyph-name="greater" unicode="&#x3e;" horiz-adv-x="1351" 
d="M1167 836v-320l-972 -385v277l716 268l-716 268v275z" />
    <glyph glyph-name="question" unicode="?" horiz-adv-x="1243" 
d="M643 1487q239 0 386 -123t147 -326q0 -122 -65 -220q-64 -97 -214 -193q-63 -38 -92 -76q-26 -34 -31 -76h-334q1 85 58 166q56 80 174 164q95 67 133 120q37 52 37 113q0 84 -54 135q-53 50 -145 50q-100 0 -164 -67q-62 -65 -67 -173h-344q18 226 175 367
q155 139 400 139zM797 0h-379v346h379v-346z" />
    <glyph glyph-name="at" unicode="@" horiz-adv-x="1878" 
d="M1153 936h258l-104 -592q-10 -55 8 -83q19 -28 65 -28q116 0 182 114t66 310q0 251 -171 398t-456 147q-323 0 -530 -208t-207 -535q0 -318 200 -491t540 -173q123 0 240 23q113 22 226 69l64 -141q-112 -55 -247 -84q-146 -31 -283 -31q-414 0 -672 222
q-256 220 -256 606q0 188 69 357t197 294q132 127 298 192q170 66 361 66q353 0 578 -201t225 -510q0 -272 -136 -430q-136 -159 -355 -159q-85 0 -150 33q-66 34 -104 96q-37 -52 -107 -87q-68 -34 -143 -34q-149 0 -237 100q-89 101 -89 264q0 216 127 365t318 149
q68 0 125 -30t82 -78zM893 297q64 0 112 45q47 44 62 123l10 67q15 89 -18 143t-98 54q-87 0 -141 -64q-54 -65 -60 -169q-8 -95 26 -146q35 -53 107 -53z" />
    <glyph glyph-name="A" unicode="A" horiz-adv-x="1591" 
d="M1579 0h-362l-117 313h-619l-121 -313h-346l582 1462h399zM797 1124h-6l-207 -540h415z" />
    <glyph glyph-name="B" unicode="B" horiz-adv-x="1466" 
d="M1391 422q0 -204 -142 -313t-409 -109h-695v1462h654q267 0 403 -102q137 -102 137 -303q0 -96 -65 -185t-152 -118q119 -35 194 -125t75 -207zM492 1210v-344h292q106 0 162 44q55 43 55 128t-55 128q-56 44 -160 44h-294zM809 621h-317v-369h317q113 0 173 48t60 138
q0 88 -60 135q-62 48 -173 48z" />
    <glyph glyph-name="C" unicode="C" horiz-adv-x="1482" 
d="M788 1214q-171 0 -263 -125q-93 -126 -93 -358q0 -231 93 -357t263 -126q122 0 195 61t96 180h344q-46 -245 -211 -380q-164 -134 -424 -134q-324 0 -520 208t-196 548q0 339 196 547q197 209 520 209q262 0 425 -133q163 -134 210 -381h-344q-23 119 -96 180t-195 61z
" />
    <glyph glyph-name="D" unicode="D" horiz-adv-x="1564" 
d="M145 1462h600q340 0 544 -198t204 -531q0 -331 -204 -532t-544 -201h-600v1462zM1133 733q0 222 -100 340q-99 117 -288 117h-253v-916h253q189 0 288 118q100 120 100 341z" />
    <glyph glyph-name="E" unicode="E" horiz-adv-x="1374" 
d="M1266 274v-274h-1121v1462h1106v-272h-759v-320h669v-272h-669v-324h774z" />
    <glyph glyph-name="F" unicode="F" horiz-adv-x="1320" 
d="M500 0h-355v1462h1076v-272h-721v-373h637v-272h-637v-545z" />
    <glyph glyph-name="G" unicode="G" horiz-adv-x="1593" 
d="M776 -25q-320 0 -512 209q-192 208 -192 549q0 337 201 546q201 208 532 208q265 0 429 -130q166 -131 218 -376h-352q-24 115 -99 175q-73 58 -196 58q-179 0 -276 -125t-97 -356t97 -358t276 -127q135 0 219 66t84 171v27h-227v250h585v-762h-274l-21 176
q-38 -86 -151 -143q-116 -58 -244 -58z" />
    <glyph glyph-name="H" unicode="H" horiz-adv-x="1654" 
d="M500 0h-355v1462h355v-585h655v585h356v-1462h-356v606h-655v-606z" />
    <glyph glyph-name="I" unicode="I" horiz-adv-x="645" 
d="M500 0h-355v1462h355v-1462z" />
    <glyph glyph-name="J" unicode="J" horiz-adv-x="1304" 
d="M588 231q114 0 173 73q58 71 58 218v940h357v-927q0 -259 -158 -409q-159 -151 -430 -151q-256 0 -407 137t-152 369h336q1 -118 60 -184q58 -66 163 -66z" />
    <glyph glyph-name="K" unicode="K" horiz-adv-x="1566" 
d="M1565 0h-428l-453 582l-184 -199v-383h-355v1462h355v-686l596 686h399l-577 -626z" />
    <glyph glyph-name="L" unicode="L" horiz-adv-x="1318" 
d="M1227 0h-1082v1462h355v-1188h727v-274z" />
    <glyph glyph-name="M" unicode="M" horiz-adv-x="1933" 
d="M1446 1032l-365 -1032h-245l-365 1032h-4v-1032h-322v1460h484l342 -981h4l342 981h473v-1460h-340v1032h-4z" />
    <glyph glyph-name="N" unicode="N" horiz-adv-x="1642" 
d="M145 1462h406l604 -921h4v921h338v-1462h-330l-680 1032h-4v-1032h-338v1462z" />
    <glyph glyph-name="O" unicode="O" horiz-adv-x="1595" 
d="M799 1487q327 0 527 -209t200 -547t-200 -547t-527 -209q-331 0 -529 208q-198 209 -198 548t198 548q198 208 529 208zM799 248q176 0 271 126q95 127 95 357q0 231 -95 358q-94 125 -271 125q-178 0 -272 -125q-95 -127 -95 -358q0 -230 95 -357q94 -126 272 -126z" />
    <glyph glyph-name="P" unicode="P" horiz-adv-x="1427" 
d="M1378 977q0 -235 -147 -360q-145 -123 -424 -123h-315v-494h-347v1462h658q278 0 427 -125q148 -124 148 -360zM492 1190v-424h274q134 0 199 52t65 159q0 109 -64 161t-200 52h-274z" />
    <glyph glyph-name="Q" unicode="Q" horiz-adv-x="1595" 
d="M1307 164l123 -135l-177 -152l-143 158q-70 -30 -146 -44q-85 -16 -165 -16q-331 0 -529 208q-198 209 -198 548t198 548q198 208 529 208q327 0 527 -209t200 -547q0 -173 -57 -319q-58 -149 -162 -248zM799 1214q-178 0 -272 -125q-95 -127 -95 -358q0 -230 95 -357
q94 -126 272 -126q30 0 57 3q24 3 49 11l-129 141l176 154l140 -154q37 60 55 144q18 82 18 184q0 231 -95 358q-94 125 -271 125z" />
    <glyph glyph-name="R" unicode="R" horiz-adv-x="1488" 
d="M492 506v-506h-347v1462h680q276 0 422 -124q148 -125 148 -355q0 -148 -76 -257q-77 -110 -213 -165l336 -561h-381l-295 506h-274zM492 1190v-412h288q134 0 201 50q66 50 66 155t-66 156t-201 51h-288z" />
    <glyph glyph-name="S" unicode="S" horiz-adv-x="1384" 
d="M723 -25q-300 0 -476 124q-178 125 -200 352h342q11 -107 94 -164q85 -58 228 -58q117 0 191 49q73 49 73 130q0 69 -49 105q-48 35 -170 56l-258 47q-202 37 -304 141q-102 103 -102 273q0 202 164 330q163 127 420 127q276 0 437 -117q160 -117 183 -332h-333
q-8 93 -83 144t-200 51q-109 0 -175 -48q-67 -49 -67 -128q0 -63 41 -98q40 -34 170 -58l279 -53q198 -34 297 -138q98 -102 98 -278q0 -205 -168 -331t-432 -126z" />
    <glyph glyph-name="T" unicode="T" horiz-adv-x="1515" 
d="M934 0h-354v1190h-506v272h1368v-272h-508v-1190z" />
    <glyph glyph-name="U" unicode="U" horiz-adv-x="1566" 
d="M1436 1462v-876q0 -296 -169 -453q-170 -158 -485 -158q-314 0 -483 159q-170 159 -170 454v874h356v-864q0 -174 74 -260t223 -86q150 0 225 86q74 84 74 260v864h355z" />
    <glyph glyph-name="V" unicode="V" horiz-adv-x="1554" 
d="M973 0h-393l-566 1462h377l391 -1075h4l390 1075h364z" />
    <glyph glyph-name="W" unicode="W" horiz-adv-x="2103" 
d="M1686 0h-383l-250 1042h-4l-248 -1042h-385l-398 1462h365l252 -1036h6l246 1036h348l246 -1036h4l254 1036h346z" />
    <glyph glyph-name="X" unicode="X" horiz-adv-x="1550" 
d="M1536 0h-399l-373 512l-379 -512h-371l566 754l-521 708h402l321 -444l328 444h373l-516 -688z" />
    <glyph glyph-name="Y" unicode="Y" horiz-adv-x="1521" 
d="M938 596v-596h-356v596l-572 866h396l360 -559h4l356 559h385z" />
    <glyph glyph-name="Z" unicode="Z" horiz-adv-x="1411" 
d="M1311 1462v-262l-793 -926h809v-274h-1243v250l797 940h-772v272h1202z" />
    <glyph glyph-name="bracketleft" unicode="[" horiz-adv-x="874" 
d="M768 1274h-250v-1262h250v-233h-578v1728h578v-233z" />
    <glyph glyph-name="backslash" unicode="\" horiz-adv-x="1140" 
d="M745 -221l-667 1728h319l668 -1728h-320z" />
    <glyph glyph-name="bracketright" unicode="]" horiz-adv-x="874" 
d="M106 1507h578v-1728h-578v233h250v1262h-250v233z" />
    <glyph glyph-name="asciicircum" unicode="^" horiz-adv-x="1030" 
d="M66 915l294 572h312l295 -572h-291l-160 326l-162 -326h-288z" />
    <glyph glyph-name="underscore" unicode="_" horiz-adv-x="890" 
d="M823 -289h-757v234h757v-234z" />
    <glyph glyph-name="grave" unicode="`" 
d="M713 1507l104 -329h-229l-250 329h375z" />
    <glyph glyph-name="a" unicode="a" horiz-adv-x="1214" 
d="M1104 0h-326q-7 64 -8 89q-2 46 -2 65q-39 -86 -126 -132q-88 -47 -210 -47q-167 0 -266 84q-98 83 -98 226q0 141 96 221q95 79 293 100l295 29v43q0 71 -41 112q-39 39 -117 39q-70 0 -109 -35q-40 -36 -45 -98h-327q17 179 147 278q131 99 346 99q238 0 359 -109
q120 -108 120 -325v-340q0 -86 5 -163q5 -79 14 -136zM406 307q0 -53 34 -83q33 -29 97 -29q95 0 154 55q61 56 61 147v52l-189 -23q-85 -10 -122 -38q-35 -26 -35 -81z" />
    <glyph glyph-name="b" unicode="b" horiz-adv-x="1331" 
d="M801 -25q-104 0 -193 50t-129 131v-156h-338v1507h342v-614q40 81 126 131q85 49 192 49q207 0 333 -151t126 -398q0 -246 -126 -397q-126 -152 -333 -152zM694 829q-103 0 -159 -74q-58 -76 -58 -208v-45q0 -130 58 -206q57 -75 159 -75q107 0 164 79t57 224
q0 147 -58 226t-163 79z" />
    <glyph glyph-name="c" unicode="c" horiz-adv-x="1173" 
d="M627 -25q-249 0 -403 151q-152 149 -152 398q0 250 152 399q153 150 403 150q205 0 335 -108q129 -107 152 -297h-323q-10 72 -55 115q-43 42 -113 42q-99 0 -153 -80q-54 -79 -54 -221q0 -140 54 -220q54 -79 153 -79q69 0 113 42q45 43 55 116h323q-23 -189 -152 -298
q-131 -110 -335 -110z" />
    <glyph glyph-name="d" unicode="d" horiz-adv-x="1331" 
d="M530 -25q-206 0 -332 152q-126 151 -126 397q0 247 126 398t332 151q107 0 192 -49q86 -50 126 -131v614h342v-1507h-338v156q-40 -81 -129 -131t-193 -50zM637 829q-105 0 -163 -79t-58 -226q0 -144 57 -224q57 -79 164 -79q103 0 160 75t57 206v45q0 133 -57 208
q-56 74 -160 74z" />
    <glyph glyph-name="e" unicode="e" horiz-adv-x="1210" 
d="M817 342h316q-34 -168 -169 -268q-134 -99 -337 -99q-245 0 -401 151q-154 150 -154 398q0 249 153 399t398 150q235 0 374 -147q140 -148 140 -385v-92h-736q15 -116 72 -174t154 -58q71 0 121 32q48 30 69 93zM623 834q-85 0 -142 -52q-55 -51 -73 -151h411
q0 88 -53 146q-52 57 -143 57z" />
    <glyph glyph-name="f" unicode="f" horiz-adv-x="745" 
d="M172 0v809h-137v240h137v106q0 177 96 268q98 93 279 93q51 0 107 -4q43 -3 77 -9v-254q-18 3 -51 5q-15 1 -49 1q-60 0 -88 -28q-29 -29 -29 -88v-90h205v-240h-205v-809h-342z" />
    <glyph glyph-name="g" unicode="g" horiz-adv-x="1337" 
d="M631 -158q109 0 166 59t57 173v145q-44 -86 -128 -134q-86 -50 -189 -50q-209 0 -336 143t-127 377q0 232 127 375t336 143q103 0 192 -50q89 -49 129 -132v158h338v-924q0 -247 -147 -381q-146 -133 -416 -133q-228 0 -370 91q-143 92 -171 253h338q17 -58 67 -85
q51 -28 134 -28zM639 276q103 0 163 71t60 190v38q0 119 -61 187q-61 69 -162 69q-105 0 -163 -72q-58 -71 -58 -204q0 -132 58 -205q59 -74 163 -74z" />
    <glyph glyph-name="h" unicode="h" horiz-adv-x="1320" 
d="M483 1507v-620q43 87 126 137q82 49 194 49q183 0 286 -106t103 -295v-672h-344v590q0 112 -43 165q-43 54 -131 54q-90 0 -140 -64q-51 -65 -51 -184v-561h-342v1507h342z" />
    <glyph glyph-name="i" unicode="i" horiz-adv-x="624" 
d="M489 1194h-354v297h354v-297zM483 0h-342v1049h342v-1049z" />
    <glyph glyph-name="j" unicode="j" horiz-adv-x="624" 
d="M489 1194h-354v297h354v-297zM104 -379q-38 0 -72 3t-75 9v248q5 0 17 -1.5t18 -2.5q24 -2 35 -2q60 0 88 26q26 25 26 87v1061h342v-1076q0 -175 -96 -263q-97 -89 -283 -89z" />
    <glyph glyph-name="k" unicode="k" horiz-adv-x="1298" 
d="M1278 0h-385l-301 401l-109 -108v-293h-342v1507h342v-864l387 406h383l-426 -431z" />
    <glyph glyph-name="l" unicode="l" horiz-adv-x="624" 
d="M483 1507v-1507h-342v1507h342z" />
    <glyph glyph-name="m" unicode="m" horiz-adv-x="1982" 
d="M795 1073q119 0 199 -46q81 -46 130 -142q55 88 149 138t204 50q179 0 278 -105q98 -104 98 -296v-672h-344v594q0 106 -41 161q-40 54 -120 54q-86 0 -133 -63q-46 -62 -46 -181v-565h-344v594q0 106 -41 161q-40 54 -120 54q-88 0 -134 -63q-47 -64 -47 -181v-565h-342
v1049h338v-162q41 86 125 136q85 50 191 50z" />
    <glyph glyph-name="n" unicode="n" horiz-adv-x="1320" 
d="M141 1049h338v-162q41 86 127 136t197 50q183 0 286 -106t103 -295v-672h-344v590q0 112 -43 165q-43 54 -131 54q-90 0 -140 -64q-51 -65 -51 -184v-561h-342v1049z" />
    <glyph glyph-name="o" unicode="o" horiz-adv-x="1261" 
d="M631 1073q252 0 404 -149q153 -150 153 -400q0 -249 -153 -399t-404 -150q-254 0 -407 150q-152 149 -152 399q0 251 152 400t407 149zM631 827q-106 0 -160 -78q-55 -79 -55 -225q0 -145 55 -224t160 -79q101 0 157 78q56 79 56 225q0 147 -56 226q-55 77 -157 77z" />
    <glyph glyph-name="p" unicode="p" horiz-adv-x="1331" 
d="M801 -25q-105 0 -191 50q-88 51 -127 131v-521h-342v1414h338v-158q40 82 128 132t194 50q207 0 333 -151t126 -398q0 -246 -126 -397q-126 -152 -333 -152zM694 829q-103 0 -159 -74q-58 -76 -58 -208v-45q0 -130 58 -206q57 -75 159 -75q107 0 164 79t57 224
q0 147 -58 226t-163 79z" />
    <glyph glyph-name="q" unicode="q" horiz-adv-x="1331" 
d="M530 -25q-206 0 -332 152q-126 151 -126 397q0 247 126 398t332 151q106 0 194 -50t128 -132v158h338v-1414h-342v521q-39 -80 -127 -131q-86 -50 -191 -50zM637 829q-105 0 -163 -79t-58 -226q0 -144 57 -224q57 -79 164 -79q103 0 160 75t57 206v45q0 133 -57 208
q-56 74 -160 74z" />
    <glyph glyph-name="r" unicode="r" horiz-adv-x="915" 
d="M793 1065q21 0 45 -2q17 -1 30 -8v-316q-24 5 -51 6q-54 3 -59 3q-128 0 -201 -76q-74 -77 -74 -213v-459h-342v1049h338v-224q39 118 121 179t193 61z" />
    <glyph glyph-name="s" unicode="s" horiz-adv-x="1130" 
d="M582 -25q-230 0 -367 92q-138 93 -156 259h320q7 -59 61 -94q50 -33 135 -33q72 0 115 25t43 71q0 37 -30 56q-30 20 -115 36l-187 31q-158 27 -233 102q-76 76 -76 201q0 155 130 254q129 98 329 98q213 0 338 -89t143 -249h-303q-8 53 -56 85q-49 32 -118 32
q-64 0 -105 -26q-40 -25 -40 -68q0 -38 28 -57q26 -17 111 -33l203 -35q148 -23 224 -102q77 -80 77 -207q0 -156 -132 -252q-133 -97 -339 -97z" />
    <glyph glyph-name="t" unicode="t" horiz-adv-x="833" 
d="M627 256q36 0 66 3q26 3 63 11v-254q-58 -17 -117 -25q-49 -7 -115 -7q-185 0 -270 76q-86 77 -86 241v508h-139v240h139v260h338v-260h227v-240h-229v-438q0 -61 27 -88t96 -27z" />
    <glyph glyph-name="u" unicode="u" horiz-adv-x="1304" 
d="M1165 1049v-1049h-340v162q-39 -86 -125 -136q-88 -51 -192 -51q-178 0 -279 106q-100 104 -100 296v672h346v-594q0 -110 40 -162q41 -53 124 -53q87 0 133 64q47 65 47 183v562h346z" />
    <glyph glyph-name="v" unicode="v" horiz-adv-x="1234" 
d="M807 0h-373l-407 1049h344l252 -717h4l247 717h336z" />
    <glyph glyph-name="w" unicode="w" horiz-adv-x="1751" 
d="M725 1049h307l172 -705h4l185 705h331l-325 -1049h-344l-176 680h-5l-178 -680h-344l-325 1049h340l184 -705h6z" />
    <glyph glyph-name="x" unicode="x" horiz-adv-x="1249" 
d="M616 305l-225 -305h-364l403 537l-377 512h387l191 -271l196 271h367l-377 -498l406 -551h-387z" />
    <glyph glyph-name="y" unicode="y" horiz-adv-x="1234" 
d="M227 -125q91 0 131 29t68 106l-399 1039h344l254 -734h4l243 734h336l-397 -1055q-77 -200 -194 -287q-118 -88 -310 -88q-41 0 -77 3q-42 3 -64 7v250q15 -1 28 -3q8 -1 33 -1z" />
    <glyph glyph-name="z" unicode="z" horiz-adv-x="1122" 
d="M1016 1049v-232l-512 -569h532v-248h-948v223l512 580h-500v246h916z" />
    <glyph glyph-name="braceleft" unicode="{" horiz-adv-x="903" 
d="M147 524h-79v238h79q53 0 85 33q32 34 32 86v372q0 125 77 190q76 64 222 64h236v-231h-133q-53 0 -75 -20t-22 -64v-354q0 -82 -54 -135t-148 -60q93 -7 148 -59q54 -51 54 -135v-353q0 -44 23 -65q22 -21 74 -21h133v-231h-236q-146 0 -222 64q-77 65 -77 190v373
q0 52 -32 86q-31 32 -85 32z" />
    <glyph glyph-name="bar" unicode="|" horiz-adv-x="718" 
d="M213 -221v1728h295v-1728h-295z" />
    <glyph glyph-name="braceright" unicode="}" horiz-adv-x="903" 
d="M756 524q-54 0 -85 -32q-32 -34 -32 -86v-373q0 -125 -77 -190q-76 -64 -222 -64h-236v231h134q50 0 73 21t23 65v353q0 84 54 135q55 52 149 59q-95 8 -149 60q-54 53 -54 135v354q0 44 -22 64t-74 20h-134v231h236q146 0 222 -64q77 -65 77 -190v-372q0 -52 32 -86
q31 -33 85 -33h80v-238h-80z" />
    <glyph glyph-name="asciitilde" unicode="~" horiz-adv-x="1200" 
d="M588 522q-53 31 -81 43q-24 10 -46 10q-36 0 -59 -33q-23 -34 -25 -91h-199q0 169 64 276q62 104 170 104q40 0 83 -15q41 -14 119 -60q57 -35 80 -44q27 -10 43 -10q35 0 58 32q22 31 28 91h199q0 -170 -65 -276q-65 -105 -169 -105q-37 0 -82 16q-39 14 -118 62z" />
    <glyph glyph-name="twosuperior" horiz-adv-x="780" 
d="M403 1477q135 0 221 -71q85 -70 85 -185q0 -81 -49 -141q-47 -57 -199 -134q-81 -40 -113 -67q-34 -28 -39 -56h402v-164h-641v76q0 95 59 173q60 80 199 159q114 61 143 92q27 29 27 66q0 38 -26 62t-71 24q-49 0 -79 -33q-32 -35 -33 -84h-215q10 127 99 205
q88 78 230 78z" />
    <glyph glyph-name="threesuperior" horiz-adv-x="786" 
d="M559 1061q76 -15 118 -63t42 -119q0 -102 -89 -168q-88 -66 -233 -66t-237 71q-93 71 -103 189h213q1 -42 38 -68t89 -26t82 24q31 25 31 62q0 43 -29 64q-27 20 -90 20h-76v158h74q53 0 79 22q28 23 28 64q0 39 -27 63q-28 25 -70 25q-45 0 -75 -27q-31 -27 -35 -72
h-207q8 116 96 189q89 74 225 74q135 0 217 -68q80 -67 80 -174q0 -68 -38 -113q-38 -46 -103 -61z" />
    <glyph glyph-name="onesuperior" horiz-adv-x="716" 
d="M483 807h183v-148h-584v148h190v397h-192v139q122 0 171 24q50 24 66 95h166v-655z" />
    <glyph glyph-name="uni00A0" unicode="&#xa0;" horiz-adv-x="419" 
 />
    <glyph glyph-name="exclamdown" unicode="&#xa1;" horiz-adv-x="704" 
d="M492 950l57 -950h-393l57 950h279zM541 1100h-377v362h377v-362z" />
    <glyph glyph-name="cent" unicode="&#xa2;" horiz-adv-x="1198" 
d="M862 397h271q-21 -164 -133 -276q-110 -111 -283 -133v-205h-174v205q-213 29 -341 179q-128 151 -128 376q0 222 128 373q129 152 341 180v227h174v-227q173 -22 283 -133q112 -112 133 -277h-271q-8 63 -46 108q-38 44 -99 62v-629q60 17 99 63q39 45 46 107zM369 543
q0 -119 45 -199q46 -81 129 -111v617q-83 -30 -129 -111q-45 -79 -45 -196z" />
    <glyph glyph-name="sterling" unicode="&#xa3;" horiz-adv-x="1343" 
d="M494 274h774v-274h-1176v274h31q79 0 123 73q43 71 43 208h-185v236h125q-29 83 -39 135q-10 50 -10 104q0 196 151 327q149 130 382 130q244 0 388 -135t161 -371h-332q-6 113 -62 177q-55 63 -155 63q-88 0 -144 -56q-55 -55 -55 -141q0 -23 5 -55q4 -23 16 -62
q8 -28 20 -58t20 -58h316v-236h-277q-5 -86 -34 -155q-30 -70 -86 -126z" />
    <glyph glyph-name="yen" unicode="&#xa5;" horiz-adv-x="1525" 
d="M1348 537v-189h-406v-348h-356v348h-408v189h408v122h-408v189h285l-428 614h387l346 -530h4l342 530h377l-426 -614h285v-189h-408v-122h406z" />
    <glyph glyph-name="section" unicode="&#xa7;" horiz-adv-x="1308" 
d="M1038 240q24 -38 36 -80q11 -40 11 -90q0 -157 -128 -256q-127 -99 -330 -99q-210 0 -337 92t-145 254h304q7 -57 57 -93t121 -36q65 0 104 33t39 86q0 37 -26 65q-26 27 -93 60l-274 133q-154 76 -221 162q-66 85 -66 213q0 88 45 160t133 121q-24 35 -36 76
q-11 38 -11 94q0 158 127 255t328 97q211 0 336 -89q124 -88 145 -251h-301q-10 55 -58 89q-47 34 -120 34q-63 0 -103 -32q-38 -31 -38 -85q0 -40 25 -68q27 -30 91 -59l275 -133q157 -78 223 -163q66 -86 66 -212q0 -88 -47 -159q-45 -69 -132 -119zM526 553l273 -135
l24 -12l25 -13q28 17 46 48q17 28 17 61q0 48 -27 79q-26 31 -106 72l-270 133l-25 13l-24 12q-30 -23 -48 -51t-18 -60q0 -46 29 -77q31 -33 104 -70z" />
    <glyph glyph-name="dieresis" unicode="&#xa8;" 
d="M948 1194h-301v297h301v-297zM508 1194h-301v297h301v-297z" />
    <glyph glyph-name="copyright" unicode="&#xa9;" horiz-adv-x="1783" 
d="M893 1487q313 0 534 -221q222 -222 222 -537q0 -310 -222 -532t-534 -222q-150 0 -290 58q-138 57 -245 164q-105 105 -164 244t-59 288q0 314 222 536t536 222zM893 1399q-276 0 -472 -196t-196 -474q0 -274 196 -470t472 -196t472 196t196 470q0 278 -196 474t-472 196
zM901 1004q-92 0 -143 -72t-51 -199q0 -125 51 -197q52 -74 143 -75q62 1 104 37q39 33 50 98h237q-27 -148 -126 -231t-261 -84q-194 1 -314 128q-120 126 -120 326q0 201 120 325t314 124q162 0 261 -81t126 -233h-237q-11 66 -50 99q-41 35 -104 35z" />
    <glyph glyph-name="ordfeminine" unicode="&#xaa;" horiz-adv-x="858" 
d="M526 874q-27 -58 -83 -87q-55 -29 -136 -29q-112 0 -177 56q-67 58 -67 151t63 142q62 49 200 64l188 19v33q0 42 -25 65t-67 23q-41 0 -66 -23q-24 -22 -28 -59h-236q10 120 99 189q88 69 237 69q162 0 245 -75t83 -222v-207q0 -71 3 -118q3 -46 9 -91h-236q-3 19 -5 55
q-1 15 -1 45zM385 911q54 0 92 35q37 34 37 92v37l-113 -16q-46 -6 -71 -26t-25 -52t22 -51t58 -19zM743 467h-637v176h637v-176z" />
    <glyph glyph-name="guillemotleft" unicode="&#xab;" horiz-adv-x="1183" 
d="M858 520l225 -432h-229l-289 432l289 432h229zM397 520l224 -432h-228l-293 432l293 432h228z" />
    <glyph glyph-name="registered" unicode="&#xae;" horiz-adv-x="1169" 
d="M113 1014q0 200 137 337q136 136 336 136q198 0 335 -135q136 -135 136 -338t-136 -339t-335 -136q-200 0 -336 136q-137 137 -137 339zM180 1014q0 -178 117 -296t289 -118q171 0 288 118t117 296q0 176 -117 294q-116 117 -288 117q-173 0 -289 -117
q-117 -118 -117 -294zM510 936v-166h-131v502h242q95 0 145 -43q51 -43 51 -125q0 -52 -23 -88q-24 -37 -69 -58l109 -188h-144l-96 166h-84zM510 1167v-127h92q44 0 66 16q20 14 20 48t-20 48q-21 15 -66 15h-92z" />
    <glyph glyph-name="macron" unicode="&#xaf;" 
d="M909 1194h-665v215h665v-215z" />
    <glyph glyph-name="degree" unicode="&#xb0;" horiz-adv-x="768" 
d="M692 1186q0 -130 -88 -215q-89 -86 -221 -86q-130 0 -218 86q-87 85 -87 215t87 216q86 85 218 85q133 0 221 -85t88 -216zM532 1186q0 62 -43 102q-44 41 -106 41q-63 0 -104 -41t-41 -102q0 -62 42 -102q41 -40 103 -40q63 0 106 40t43 102z" />
    <glyph glyph-name="acute" unicode="&#xb4;" 
d="M817 1507l-250 -329h-229l104 329h375z" />
    <glyph glyph-name="paragraph" unicode="&#xb6;" horiz-adv-x="1460" 
d="M854 -260h-238v876q-248 0 -390 113q-140 112 -140 311q0 200 139 311t391 111h678v-1722h-237v1505h-203v-1505z" />
    <glyph glyph-name="periodcentered" unicode="&#xb7;" horiz-adv-x="733" 
d="M557 410h-379v378h379v-378z" />
    <glyph glyph-name="cedilla" unicode="&#xb8;" horiz-adv-x="1710" 
d="M1108 -231q0 -86 -77 -139q-76 -52 -195 -52q-55 0 -105 10q-54 11 -94 27v137q74 -27 107 -34q42 -9 87 -9q43 0 70 15t27 40q0 42 -52 54q-53 12 -110 -6l-53 49l104 168h123l-66 -105q102 8 167 -35q67 -44 67 -120z" />
    <glyph glyph-name="ordmasculine" unicode="&#xba;" horiz-adv-x="886" 
d="M444 758q-175 0 -276 98q-102 99 -102 266q0 168 103 267q102 98 275 98t275 -99t102 -266t-102 -266q-101 -98 -275 -98zM444 1309q-63 0 -96 -48t-33 -139q0 -92 33 -140t96 -48q64 0 97 48q32 47 32 140t-33 139q-34 48 -96 48zM762 467h-637v176h637v-176z" />
    <glyph glyph-name="guillemotright" unicode="&#xbb;" horiz-adv-x="1183" 
d="M100 950h230l288 -432l-288 -432h-230l226 432zM563 950h228l292 -432l-292 -432h-228l223 432z" />
    <glyph glyph-name="onequarter" unicode="&#xbc;" horiz-adv-x="1869" 
d="M1561 1489l-1057 -1514h-205l1055 1514h207zM500 807h182v-148h-584v148h191v397h-193v139q122 0 171 24q51 25 67 95h166v-655zM1403 801h231v-488h150v-151h-150v-162h-207v162h-397v151zM1427 313v289l-215 -289h215z" />
    <glyph glyph-name="onehalf" unicode="&#xbd;" horiz-adv-x="1892" 
d="M500 807h182v-148h-584v148h191v397h-193v139q122 0 171 24q51 25 67 95h166v-655zM1567 1489l-1057 -1514h-205l1055 1514h207zM1487 817q134 0 220 -71q85 -70 85 -185q0 -81 -48 -140q-46 -56 -200 -134q-75 -38 -112 -68q-35 -29 -39 -55h401v-164h-641v76
q0 95 59 173q60 80 199 159q114 61 143 92q27 29 27 65q0 39 -26 63q-24 23 -70 23q-50 0 -80 -33q-32 -35 -33 -83h-215q10 126 99 204q88 78 231 78z" />
    <glyph glyph-name="threequarters" unicode="&#xbe;" horiz-adv-x="1908" 
d="M1446 801h231v-488h150v-151h-150v-162h-207v162h-397v151zM1470 313v289l-215 -289h215zM1589 1489l-1057 -1514h-204l1054 1514h207zM575 1061q76 -15 118 -63t42 -119q0 -102 -89 -168q-88 -66 -232 -66q-146 0 -238 71q-92 70 -102 189h213q1 -42 38 -68t89 -26
t82 24t30 62q0 43 -28 64q-27 20 -90 20h-76v158h74q52 0 78 22q28 23 28 64q0 39 -27 63q-28 25 -69 25q-46 0 -76 -27q-31 -27 -35 -72h-207q8 115 97 189t225 74q134 0 216 -68q81 -67 81 -174q0 -67 -39 -113q-38 -46 -103 -61z" />
    <glyph glyph-name="questiondown" unicode="&#xbf;" horiz-adv-x="1243" 
d="M600 -25q-239 0 -386 123q-146 122 -146 326q0 123 64 220q65 99 214 194q64 39 92 75q26 34 31 76h334q-1 -85 -58 -166q-56 -80 -174 -164q-96 -68 -133 -119q-37 -52 -37 -114q0 -84 54 -135q52 -49 145 -49q101 0 164 66q62 65 67 173h345q-18 -224 -176 -366
q-157 -140 -400 -140zM446 1462h379v-346h-379v346z" />
    <glyph glyph-name="Agrave" unicode="&#xc0;" horiz-adv-x="1591" 
d="M1579 0h-362l-117 313h-619l-121 -313h-346l582 1462h399zM797 1124h-6l-207 -540h415zM803 1884l102 -325h-213l-252 325h363z" />
    <glyph glyph-name="Aacute" unicode="&#xc1;" horiz-adv-x="1591" 
d="M1579 0h-362l-117 313h-619l-121 -313h-346l582 1462h399zM797 1124h-6l-207 -540h415zM1149 1884l-252 -325h-213l102 325h363z" />
    <glyph glyph-name="Acircumflex" unicode="&#xc2;" horiz-adv-x="1591" 
d="M1579 0h-362l-117 313h-619l-121 -313h-346l582 1462h399zM797 1124h-6l-207 -540h415zM444 1556l207 328h291l207 -328h-191l-161 142l-162 -142h-191z" />
    <glyph glyph-name="Atilde" unicode="&#xc3;" horiz-adv-x="1591" 
d="M1579 0h-362l-117 313h-619l-121 -313h-346l582 1462h399zM797 1124h-6l-207 -540h415zM793 1634q-55 33 -74 40q-23 9 -41 9q-33 0 -53 -29q-22 -31 -23 -85h-180q0 159 57 253q57 95 154 95q40 0 76 -14q41 -16 108 -58q55 -33 74 -40q23 -9 41 -9q31 0 53 31
q21 31 23 84h180q0 -157 -58 -253q-57 -95 -153 -95q-40 0 -76 14q-45 17 -108 57z" />
    <glyph glyph-name="Adieresis" unicode="&#xc4;" horiz-adv-x="1591" 
d="M1579 0h-362l-117 313h-619l-121 -313h-346l582 1462h399zM797 1124h-6l-207 -540h415zM1167 1569h-301v297h301v-297zM727 1569h-301v297h301v-297z" />
    <glyph glyph-name="Aring" unicode="&#xc5;" horiz-adv-x="1591" 
d="M1100 313h-619l-121 -313h-346l570 1434q-31 39 -47 82q-17 46 -17 92q0 114 81 196t194 82q114 0 195 -82q81 -83 81 -196q0 -48 -16 -92q-16 -43 -47 -82l571 -1434h-362zM920 1608q0 53 -36 89t-89 36q-51 0 -87 -37q-36 -38 -36 -88q0 -49 37 -86t86 -37q51 0 88 37
t37 86zM797 1124h-6l-207 -540h415z" />
    <glyph glyph-name="AE" unicode="&#xc6;" horiz-adv-x="2328" 
d="M2220 0h-1120v330h-537l-196 -330h-357l877 1462h1319v-272h-758v-320h668v-272h-668v-324h772v-274zM1100 602v627l-375 -627h375z" />
    <glyph glyph-name="Ccedilla" unicode="&#xc7;" horiz-adv-x="1482" 
d="M1018 -231q0 -86 -77 -139q-76 -52 -196 -52q-54 0 -104 10q-54 11 -94 27v137q74 -27 107 -34q42 -9 87 -9q43 0 70 15t27 40q0 42 -53 54q-52 12 -109 -6l-53 49l73 119q-284 30 -454 234q-170 205 -170 517q0 339 196 547q197 209 520 209q262 0 425 -133
q163 -134 210 -381h-344q-23 119 -96 180t-195 61q-171 0 -263 -125q-93 -126 -93 -358q0 -231 93 -357t263 -126q122 0 195 61t96 180h344q-45 -239 -201 -373q-158 -135 -405 -141l-33 -51q102 8 167 -35q67 -44 67 -120z" />
    <glyph glyph-name="Egrave" unicode="&#xc8;" horiz-adv-x="1374" 
d="M1266 274v-274h-1121v1462h1106v-272h-759v-320h669v-272h-669v-324h774zM737 1884l103 -325h-213l-252 325h362z" />
    <glyph glyph-name="Eacute" unicode="&#xc9;" horiz-adv-x="1374" 
d="M1266 274v-274h-1121v1462h1106v-272h-759v-320h669v-272h-669v-324h774zM1032 1884l-252 -325h-213l103 325h362z" />
    <glyph glyph-name="Ecircumflex" unicode="&#xca;" horiz-adv-x="1374" 
d="M1266 274v-274h-1121v1462h1106v-272h-759v-320h669v-272h-669v-324h774zM350 1556l207 328h291l207 -328h-191l-162 142l-161 -142h-191z" />
    <glyph glyph-name="Edieresis" unicode="&#xcb;" horiz-adv-x="1374" 
d="M1266 274v-274h-1121v1462h1106v-272h-759v-320h669v-272h-669v-324h774zM1073 1569h-301v297h301v-297zM633 1569h-301v297h301v-297z" />
    <glyph glyph-name="Igrave" unicode="&#xcc;" horiz-adv-x="645" 
d="M500 0h-355v1462h355v-1462zM344 1884l102 -325h-213l-251 325h362z" />
    <glyph glyph-name="Iacute" unicode="&#xcd;" horiz-adv-x="645" 
d="M500 0h-355v1462h355v-1462zM676 1884l-252 -325h-213l102 325h363z" />
    <glyph glyph-name="Icircumflex" unicode="&#xce;" horiz-adv-x="645" 
d="M500 0h-355v1462h355v-1462zM-29 1556l207 328h291l207 -328h-191l-161 142l-162 -142h-191z" />
    <glyph glyph-name="Idieresis" unicode="&#xcf;" horiz-adv-x="645" 
d="M500 0h-355v1462h355v-1462zM694 1569h-301v297h301v-297zM254 1569h-301v297h301v-297z" />
    <glyph glyph-name="Eth" unicode="&#xd0;" horiz-adv-x="1615" 
d="M1544 733q0 -331 -204 -532t-543 -201h-600v612h-136v258h136v592h600q339 0 543 -198t204 -531zM543 612v-338h254q188 0 287 118q100 120 100 341q0 222 -100 340q-99 117 -287 117h-254v-320h209v-258h-209z" />
    <glyph glyph-name="Ntilde" unicode="&#xd1;" horiz-adv-x="1642" 
d="M145 1462h406l604 -921h4v921h338v-1462h-330l-680 1032h-4v-1032h-338v1462zM799 1634q-55 33 -74 40q-23 9 -41 9q-33 0 -53 -29q-22 -31 -23 -85h-180q0 159 57 253q57 95 154 95q40 0 76 -14q41 -16 108 -58q55 -33 74 -40q23 -9 41 -9q31 0 53 31q21 31 23 84h180
q0 -159 -57 -253q-57 -95 -154 -95q-40 0 -76 14q-45 17 -108 57z" />
    <glyph glyph-name="Ograve" unicode="&#xd2;" horiz-adv-x="1595" 
d="M799 1487q327 0 527 -209t200 -547t-200 -547t-527 -209q-331 0 -529 208q-198 209 -198 548t198 548q198 208 529 208zM799 248q176 0 271 126q95 127 95 357q0 231 -95 358q-94 125 -271 125q-178 0 -272 -125q-95 -127 -95 -358q0 -230 95 -357q94 -126 272 -126z
M819 1884l103 -325h-213l-252 325h362z" />
    <glyph glyph-name="Oacute" unicode="&#xd3;" horiz-adv-x="1595" 
d="M799 1487q327 0 527 -209t200 -547t-200 -547t-527 -209q-331 0 -529 208q-198 209 -198 548t198 548q198 208 529 208zM799 248q176 0 271 126q95 127 95 357q0 231 -95 358q-94 125 -271 125q-178 0 -272 -125q-95 -127 -95 -358q0 -230 95 -357q94 -126 272 -126z
M1147 1884l-252 -325h-213l102 325h363z" />
    <glyph glyph-name="Ocircumflex" unicode="&#xd4;" horiz-adv-x="1595" 
d="M799 1487q327 0 527 -209t200 -547t-200 -547t-527 -209q-331 0 -529 208q-198 209 -198 548t198 548q198 208 529 208zM799 248q176 0 271 126q95 127 95 357q0 231 -95 358q-94 125 -271 125q-178 0 -272 -125q-95 -127 -95 -358q0 -230 95 -357q94 -126 272 -126z
M446 1556l207 328h291l207 -328h-190l-162 142l-162 -142h-191z" />
    <glyph glyph-name="Otilde" unicode="&#xd5;" horiz-adv-x="1595" 
d="M799 1487q327 0 527 -209t200 -547t-200 -547t-527 -209q-331 0 -529 208q-198 209 -198 548t198 548q198 208 529 208zM799 248q176 0 271 126q95 127 95 357q0 231 -95 358q-94 125 -271 125q-178 0 -272 -125q-95 -127 -95 -358q0 -230 95 -357q94 -126 272 -126z
M786 1634q-57 34 -73 40q-22 9 -41 9q-34 0 -54 -29t-22 -85h-180q0 159 57 253q57 95 154 95q39 0 75 -14q44 -17 109 -58q55 -33 74 -40q23 -9 41 -9q31 0 53 31q20 29 22 84h181q0 -157 -58 -253q-57 -95 -153 -95q-40 0 -76 14q-48 18 -109 57z" />
    <glyph glyph-name="Odieresis" unicode="&#xd6;" horiz-adv-x="1595" 
d="M799 1487q327 0 527 -209t200 -547t-200 -547t-527 -209q-331 0 -529 208q-198 209 -198 548t198 548q198 208 529 208zM799 248q176 0 271 126q95 127 95 357q0 231 -95 358q-94 125 -271 125q-178 0 -272 -125q-95 -127 -95 -358q0 -230 95 -357q94 -126 272 -126z
M1169 1569h-301v297h301v-297zM729 1569h-301v297h301v-297z" />
    <glyph glyph-name="multiply" unicode="&#xd7;" horiz-adv-x="1351" 
d="M1180 344l-168 -166l-336 336l-338 -338l-166 168l338 338l-338 336l166 168l338 -338l336 336l170 -166l-338 -338z" />
    <glyph glyph-name="Oslash" unicode="&#xd8;" horiz-adv-x="1595" 
d="M1526 731q0 -338 -200 -547t-527 -209q-114 0 -221 29q-106 29 -191 84l-127 -149l-145 114l131 158q-88 102 -130 231q-44 135 -44 289q0 339 198 548q198 208 529 208q120 0 228 -30q111 -31 194 -89l114 135l148 -112l-125 -148q81 -97 125 -229q43 -129 43 -283z
M799 1214q-178 0 -272 -125q-95 -127 -95 -358q0 -79 10 -139q10 -62 29 -115l555 660q-43 38 -100 58q-56 19 -127 19zM799 248q176 0 271 126q95 127 95 357q0 64 -8 128q-7 55 -27 114l-550 -656q44 -34 99 -52q51 -17 120 -17z" />
    <glyph glyph-name="Ugrave" unicode="&#xd9;" horiz-adv-x="1566" 
d="M1436 1462v-876q0 -296 -169 -453q-170 -158 -485 -158q-314 0 -483 159q-170 159 -170 454v874h356v-864q0 -174 74 -260t223 -86q150 0 225 86q74 84 74 260v864h355zM829 1884l103 -325h-213l-252 325h362z" />
    <glyph glyph-name="Uacute" unicode="&#xda;" horiz-adv-x="1566" 
d="M1436 1462v-876q0 -296 -169 -453q-170 -158 -485 -158q-314 0 -483 159q-170 159 -170 454v874h356v-864q0 -174 74 -260t223 -86q150 0 225 86q74 84 74 260v864h355zM1116 1884l-252 -325h-213l103 325h362z" />
    <glyph glyph-name="Ucircumflex" unicode="&#xdb;" horiz-adv-x="1566" 
d="M1436 1462v-876q0 -296 -169 -453q-170 -158 -485 -158q-314 0 -483 159q-170 159 -170 454v874h356v-864q0 -174 74 -260t223 -86q150 0 225 86q74 84 74 260v864h355zM432 1556l207 328h291l207 -328h-191l-162 142l-161 -142h-191z" />
    <glyph glyph-name="Udieresis" unicode="&#xdc;" horiz-adv-x="1566" 
d="M1436 1462v-876q0 -296 -169 -453q-170 -158 -485 -158q-314 0 -483 159q-170 159 -170 454v874h356v-864q0 -174 74 -260t223 -86q150 0 225 86q74 84 74 260v864h355zM1155 1569h-301v297h301v-297zM715 1569h-301v297h301v-297z" />
    <glyph glyph-name="Yacute" unicode="&#xdd;" horiz-adv-x="1521" 
d="M938 596v-596h-356v596l-572 866h396l360 -559h4l356 559h385zM1124 1884l-252 -325h-213l103 325h362z" />
    <glyph glyph-name="Thorn" unicode="&#xde;" horiz-adv-x="1427" 
d="M1378 745q0 -233 -147 -357q-146 -124 -424 -124h-315v-264h-347v1462h347v-229h311q280 0 428 -125q147 -124 147 -363zM492 958v-423h274q134 0 199 52t65 158q0 109 -64 161t-200 52h-274z" />
    <glyph glyph-name="germandbls" unicode="&#xdf;" horiz-adv-x="1335" 
d="M1155 1143q0 -102 -49 -185q-49 -84 -125 -118q129 -41 206 -146q77 -106 77 -243q0 -213 -139 -338t-365 -125q-41 0 -69 4q-31 4 -75 12v258q14 -3 46 -5q15 -1 47 -1q113 0 178 56t65 159q0 101 -69 156q-68 55 -195 55h-55v256h35q84 0 132 45t48 127q0 74 -45 119
t-121 45q-93 0 -146 -65t-53 -177v-1032h-342v1014q0 237 147 378q146 140 394 140q217 0 345 -107t128 -282z" />
    <glyph glyph-name="agrave" unicode="&#xe0;" horiz-adv-x="1214" 
d="M1104 0h-326q-7 64 -8 89q-2 46 -2 65q-39 -86 -126 -132q-88 -47 -210 -47q-167 0 -266 84q-98 83 -98 226q0 141 96 221q95 79 293 100l295 29v43q0 71 -41 112q-39 39 -117 39q-70 0 -109 -35q-40 -36 -45 -98h-327q17 179 147 278q131 99 346 99q238 0 359 -109
q120 -108 120 -325v-340q0 -86 5 -163q5 -79 14 -136zM406 307q0 -53 34 -83q33 -29 97 -29q95 0 154 55q61 56 61 147v52l-189 -23q-85 -10 -122 -38q-35 -26 -35 -81zM641 1507l104 -329h-229l-250 329h375z" />
    <glyph glyph-name="aacute" unicode="&#xe1;" horiz-adv-x="1214" 
d="M1104 0h-326q-7 64 -8 89q-2 46 -2 65q-39 -86 -126 -132q-88 -47 -210 -47q-167 0 -266 84q-98 83 -98 226q0 141 96 221q95 79 293 100l295 29v43q0 71 -41 112q-39 39 -117 39q-70 0 -109 -35q-40 -36 -45 -98h-327q17 179 147 278q131 99 346 99q238 0 359 -109
q120 -108 120 -325v-340q0 -86 5 -163q5 -79 14 -136zM406 307q0 -53 34 -83q33 -29 97 -29q95 0 154 55q61 56 61 147v52l-189 -23q-85 -10 -122 -38q-35 -26 -35 -81zM936 1507l-250 -329h-229l104 329h375z" />
    <glyph glyph-name="acircumflex" unicode="&#xe2;" horiz-adv-x="1214" 
d="M1104 0h-326q-7 64 -8 89q-2 46 -2 65q-39 -86 -126 -132q-88 -47 -210 -47q-167 0 -266 84q-98 83 -98 226q0 141 96 221q95 79 293 100l295 29v43q0 71 -41 112q-39 39 -117 39q-70 0 -109 -35q-40 -36 -45 -98h-327q17 179 147 278q131 99 346 99q238 0 359 -109
q120 -108 120 -325v-340q0 -86 5 -163q5 -79 14 -136zM406 307q0 -53 34 -83q33 -29 97 -29q95 0 154 55q61 56 61 147v52l-189 -23q-85 -10 -122 -38q-35 -26 -35 -81zM248 1176l207 331h290l207 -331h-190l-162 149l-162 -149h-190z" />
    <glyph glyph-name="atilde" unicode="&#xe3;" horiz-adv-x="1214" 
d="M1104 0h-326q-7 64 -8 89q-2 46 -2 65q-39 -86 -126 -132q-88 -47 -210 -47q-167 0 -266 84q-98 83 -98 226q0 141 96 221q95 79 293 100l295 29v43q0 71 -41 112q-39 39 -117 39q-70 0 -109 -35q-40 -36 -45 -98h-327q17 179 147 278q131 99 346 99q238 0 359 -109
q120 -108 120 -325v-340q0 -86 5 -163q5 -79 14 -136zM406 307q0 -53 34 -83q33 -29 97 -29q95 0 154 55q61 56 61 147v52l-189 -23q-85 -10 -122 -38q-35 -26 -35 -81zM596 1227q-50 32 -74 42q-23 9 -41 9q-31 0 -53 -31q-20 -29 -22 -86h-181q0 156 58 252q57 94 153 94
q40 0 76 -14q48 -18 109 -57q57 -34 73 -40q25 -10 41 -10q32 0 53 32t23 85h180q0 -159 -57 -253q-57 -95 -154 -95q-39 0 -75 14q-44 17 -109 58z" />
    <glyph glyph-name="adieresis" unicode="&#xe4;" horiz-adv-x="1214" 
d="M1104 0h-326q-7 64 -8 89q-2 46 -2 65q-39 -86 -126 -132q-88 -47 -210 -47q-167 0 -266 84q-98 83 -98 226q0 141 96 221q95 79 293 100l295 29v43q0 71 -41 112q-39 39 -117 39q-70 0 -109 -35q-40 -36 -45 -98h-327q17 179 147 278q131 99 346 99q238 0 359 -109
q120 -108 120 -325v-340q0 -86 5 -163q5 -79 14 -136zM406 307q0 -53 34 -83q33 -29 97 -29q95 0 154 55q61 56 61 147v52l-189 -23q-85 -10 -122 -38q-35 -26 -35 -81zM975 1194h-301v297h301v-297zM535 1194h-302v297h302v-297z" />
    <glyph glyph-name="aring" unicode="&#xe5;" horiz-adv-x="1214" 
d="M1104 0h-326q-7 64 -8 89q-2 46 -2 65q-39 -86 -126 -132q-88 -47 -210 -47q-167 0 -266 84q-98 83 -98 226q0 141 96 221q95 79 293 100l295 29v43q0 71 -41 112q-39 39 -117 39q-70 0 -109 -35q-40 -36 -45 -98h-327q17 179 147 278q131 99 346 99q238 0 359 -109
q120 -108 120 -325v-340q0 -86 5 -163q5 -79 14 -136zM406 307q0 -53 34 -83q33 -29 97 -29q95 0 154 55q61 56 61 147v52l-189 -23q-85 -10 -122 -38q-35 -26 -35 -81zM608 1151q-101 0 -173 72q-73 73 -73 172q0 101 73 174q71 71 173 71q101 0 172 -71q72 -72 72 -174
q0 -100 -72 -172t-172 -72zM608 1288q43 0 75 32t32 75q0 42 -32 74t-75 32q-44 0 -77 -31q-31 -30 -31 -75q0 -44 31 -75q32 -32 77 -32z" />
    <glyph glyph-name="ae" unicode="&#xe6;" horiz-adv-x="1869" 
d="M1477 344h315q-33 -171 -169 -270q-137 -99 -339 -99q-117 0 -222 45q-103 44 -181 125q-78 -86 -178 -128q-99 -42 -222 -42q-192 0 -302 85q-111 86 -111 235q0 163 131 246q130 82 393 82h160v57q0 72 -41 111q-39 38 -115 38q-69 0 -110 -35q-41 -36 -46 -98h-327
q17 177 145 277t338 100q108 0 198 -31q87 -30 144 -90q72 60 160 90q91 31 182 31q238 0 377 -147q139 -146 139 -385v-88h-735q12 -115 68 -174q57 -60 155 -60q73 0 122 32t71 93zM1280 836q-87 0 -142 -55t-73 -158h414q0 92 -55 153q-54 60 -144 60zM403 326
q0 -55 38 -87t104 -32q93 0 150 51t57 141v54h-177q-81 0 -126 -33q-46 -34 -46 -94z" />
    <glyph glyph-name="ccedilla" unicode="&#xe7;" horiz-adv-x="1173" 
d="M856 -231q0 -86 -77 -139q-76 -52 -195 -52q-55 0 -105 10q-54 11 -94 27v137q73 -26 108 -34q42 -9 87 -9q42 0 69 15t27 40q0 42 -52 54q-53 12 -110 -6l-53 49l76 121q-214 27 -339 173q-126 147 -126 369q0 250 152 399q153 150 403 150q205 0 335 -108
q129 -107 152 -297h-323q-10 72 -55 115q-43 42 -113 42q-99 0 -153 -80q-54 -79 -54 -221q0 -140 54 -220q54 -79 153 -79q69 0 113 42q45 43 55 116h323q-22 -183 -144 -291q-123 -110 -315 -117l-32 -51q102 8 167 -35q66 -43 66 -120z" />
    <glyph glyph-name="egrave" unicode="&#xe8;" horiz-adv-x="1210" 
d="M817 342h316q-34 -168 -169 -268q-134 -99 -337 -99q-245 0 -401 151q-154 150 -154 398q0 249 153 399t398 150q235 0 374 -147q140 -148 140 -385v-92h-736q15 -116 72 -174t154 -58q71 0 121 32q48 30 69 93zM623 834q-85 0 -142 -52q-55 -51 -73 -151h411
q0 88 -53 146q-52 57 -143 57zM655 1507l105 -329h-230l-249 329h374z" />
    <glyph glyph-name="eacute" unicode="&#xe9;" horiz-adv-x="1210" 
d="M817 342h316q-34 -168 -169 -268q-134 -99 -337 -99q-245 0 -401 151q-154 150 -154 398q0 249 153 399t398 150q235 0 374 -147q140 -148 140 -385v-92h-736q15 -116 72 -174t154 -58q71 0 121 32q48 30 69 93zM623 834q-85 0 -142 -52q-55 -51 -73 -151h411
q0 88 -53 146q-52 57 -143 57zM977 1507l-250 -329h-229l104 329h375z" />
    <glyph glyph-name="ecircumflex" unicode="&#xea;" horiz-adv-x="1210" 
d="M817 342h316q-34 -168 -169 -268q-134 -99 -337 -99q-245 0 -401 151q-154 150 -154 398q0 249 153 399t398 150q235 0 374 -147q140 -148 140 -385v-92h-736q15 -116 72 -174t154 -58q71 0 121 32q48 30 69 93zM623 834q-85 0 -142 -52q-55 -51 -73 -151h411
q0 88 -53 146q-52 57 -143 57zM276 1176l207 331h291l207 -331h-190l-162 149l-162 -149h-191z" />
    <glyph glyph-name="edieresis" unicode="&#xeb;" horiz-adv-x="1210" 
d="M817 342h316q-34 -168 -169 -268q-134 -99 -337 -99q-245 0 -401 151q-154 150 -154 398q0 249 153 399t398 150q235 0 374 -147q140 -148 140 -385v-92h-736q15 -116 72 -174t154 -58q71 0 121 32q48 30 69 93zM623 834q-85 0 -142 -52q-55 -51 -73 -151h411
q0 88 -53 146q-52 57 -143 57zM997 1194h-301v297h301v-297zM557 1194h-301v297h301v-297z" />
    <glyph glyph-name="igrave" unicode="&#xec;" horiz-adv-x="624" 
d="M141 0v1049h342v-1049h-342zM336 1507l104 -329h-229l-250 329h375z" />
    <glyph glyph-name="iacute" unicode="&#xed;" horiz-adv-x="624" 
d="M141 0v1049h342v-1049h-342zM682 1507l-250 -329h-229l104 329h375z" />
    <glyph glyph-name="icircumflex" unicode="&#xee;" horiz-adv-x="624" 
d="M141 0v1049h342v-1049h-342zM-39 1176l207 331h291l207 -331h-191l-162 149l-161 -149h-191z" />
    <glyph glyph-name="idieresis" unicode="&#xef;" horiz-adv-x="624" 
d="M141 0v1049h342v-1049h-342zM684 1194h-301v297h301v-297zM244 1194h-301v297h301v-297z" />
    <glyph glyph-name="eth" unicode="&#xf0;" horiz-adv-x="1261" 
d="M1188 565q0 -271 -153 -430q-154 -160 -404 -160q-254 0 -407 150q-152 149 -152 401q0 232 155 381q156 150 391 150q47 0 84 -10q38 -10 60 -29q-35 54 -73 99q-43 51 -87 95l-274 -90l-62 119l226 74q-51 45 -114 90q-66 47 -136 90v12h385q31 -18 75 -49
q41 -29 66 -51l190 63l64 -118l-143 -47q149 -155 229 -347t80 -393zM631 817q-104 0 -160 -77q-55 -76 -55 -220t55 -221q55 -78 160 -78q101 0 157 78q56 79 56 221q0 143 -56 220t-157 77z" />
    <glyph glyph-name="ntilde" unicode="&#xf1;" horiz-adv-x="1320" 
d="M141 1049h338v-162q41 86 127 136t197 50q183 0 286 -106t103 -295v-672h-344v590q0 112 -43 165q-43 54 -131 54q-90 0 -140 -64q-51 -65 -51 -184v-561h-342v1049zM651 1227q-52 34 -73 42q-22 9 -41 9q-32 0 -54 -31q-20 -29 -22 -86h-180q0 157 57 252q57 94 154 94
q39 0 75 -14q48 -18 109 -57q55 -32 74 -40q25 -10 41 -10q32 0 53 32q20 31 22 85h181q0 -157 -58 -253q-57 -95 -153 -95q-40 0 -76 14q-44 17 -109 58z" />
    <glyph glyph-name="ograve" unicode="&#xf2;" horiz-adv-x="1261" 
d="M631 1073q252 0 404 -149q153 -150 153 -400q0 -249 -153 -399t-404 -150q-254 0 -407 150q-152 149 -152 399q0 251 152 400t407 149zM631 827q-106 0 -160 -78q-55 -79 -55 -225q0 -145 55 -224t160 -79q101 0 157 78q56 79 56 225q0 147 -56 226q-55 77 -157 77z
M666 1507l104 -329h-229l-250 329h375z" />
    <glyph glyph-name="oacute" unicode="&#xf3;" horiz-adv-x="1261" 
d="M631 1073q252 0 404 -149q153 -150 153 -400q0 -249 -153 -399t-404 -150q-254 0 -407 150q-152 149 -152 399q0 251 152 400t407 149zM631 827q-106 0 -160 -78q-55 -79 -55 -225q0 -145 55 -224t160 -79q101 0 157 78q56 79 56 225q0 147 -56 226q-55 77 -157 77z
M975 1507l-250 -329h-229l104 329h375z" />
    <glyph glyph-name="ocircumflex" unicode="&#xf4;" horiz-adv-x="1261" 
d="M631 1073q252 0 404 -149q153 -150 153 -400q0 -249 -153 -399t-404 -150q-254 0 -407 150q-152 149 -152 399q0 251 152 400t407 149zM631 827q-106 0 -160 -78q-55 -79 -55 -225q0 -145 55 -224t160 -79q101 0 157 78q56 79 56 225q0 147 -56 226q-55 77 -157 77z
M281 1176l206 331h291l207 -331h-190l-162 149l-162 -149h-190z" />
    <glyph glyph-name="otilde" unicode="&#xf5;" horiz-adv-x="1261" 
d="M631 1073q252 0 404 -149q153 -150 153 -400q0 -249 -153 -399t-404 -150q-254 0 -407 150q-152 149 -152 399q0 251 152 400t407 149zM631 827q-106 0 -160 -78q-55 -79 -55 -225q0 -145 55 -224t160 -79q101 0 157 78q56 79 56 225q0 147 -56 226q-55 77 -157 77z
M618 1227q-52 34 -73 42q-23 9 -41 9q-31 0 -53 -31t-23 -86h-180q0 157 57 252q57 94 154 94q40 0 76 -14q45 -17 108 -57q55 -32 74 -40q25 -10 41 -10q32 0 53 32t23 85h180q0 -157 -58 -253q-57 -95 -153 -95q-40 0 -76 14q-44 17 -109 58z" />
    <glyph glyph-name="odieresis" unicode="&#xf6;" horiz-adv-x="1261" 
d="M631 1073q252 0 404 -149q153 -150 153 -400q0 -249 -153 -399t-404 -150q-254 0 -407 150q-152 149 -152 399q0 251 152 400t407 149zM631 827q-106 0 -160 -78q-55 -79 -55 -225q0 -145 55 -224t160 -79q101 0 157 78q56 79 56 225q0 147 -56 226q-55 77 -157 77z
M1004 1194h-302v297h302v-297zM563 1194h-301v297h301v-297z" />
    <glyph glyph-name="divide" unicode="&#xf7;" horiz-adv-x="1351" 
d="M823 989h-295v283h295v-283zM1223 559h-1096v244h1096v-244zM823 88h-295v285h295v-285z" />
    <glyph glyph-name="oslash" unicode="&#xf8;" horiz-adv-x="1261" 
d="M1188 524q0 -249 -153 -399t-404 -150q-90 0 -171 21q-83 22 -149 61l-116 -125l-115 115l108 117q-56 68 -87 162q-29 88 -29 198q0 251 152 400t407 149q96 0 177 -22q82 -23 150 -66l107 115l115 -117l-101 -109q55 -73 81 -157q28 -92 28 -193zM631 842
q-109 0 -169 -84q-61 -85 -61 -234q0 -32 3 -62q2 -22 10 -59l360 385q-28 26 -64 40q-37 14 -79 14zM631 207q109 0 169 84t60 233q0 28 -3 55q-4 36 -7 54l-354 -379q29 -24 60 -35q34 -12 75 -12z" />
    <glyph glyph-name="ugrave" unicode="&#xf9;" horiz-adv-x="1304" 
d="M1165 1049v-1049h-340v162q-39 -86 -125 -136q-88 -51 -192 -51q-178 0 -279 106q-100 104 -100 296v672h346v-594q0 -110 40 -162q41 -53 124 -53q87 0 133 64q47 65 47 183v562h346zM680 1507l104 -329h-229l-250 329h375z" />
    <glyph glyph-name="uacute" unicode="&#xfa;" horiz-adv-x="1304" 
d="M1165 1049v-1049h-340v162q-39 -86 -125 -136q-88 -51 -192 -51q-178 0 -279 106q-100 104 -100 296v672h346v-594q0 -110 40 -162q41 -53 124 -53q87 0 133 64q47 65 47 183v562h346zM993 1507l-250 -329h-229l104 329h375z" />
    <glyph glyph-name="ucircumflex" unicode="&#xfb;" horiz-adv-x="1304" 
d="M1165 1049v-1049h-340v162q-39 -86 -125 -136q-88 -51 -192 -51q-178 0 -279 106q-100 104 -100 296v672h346v-594q0 -110 40 -162q41 -53 124 -53q87 0 133 64q47 65 47 183v562h346zM299 1176l207 331h291l207 -331h-191l-162 149l-162 -149h-190z" />
    <glyph glyph-name="udieresis" unicode="&#xfc;" horiz-adv-x="1304" 
d="M1165 1049v-1049h-340v162q-39 -86 -125 -136q-88 -51 -192 -51q-178 0 -279 106q-100 104 -100 296v672h346v-594q0 -110 40 -162q41 -53 124 -53q87 0 133 64q47 65 47 183v562h346zM1022 1194h-301v297h301v-297zM582 1194h-301v297h301v-297z" />
    <glyph glyph-name="yacute" unicode="&#xfd;" horiz-adv-x="1234" 
d="M227 -125q91 0 131 29t68 106l-399 1039h344l254 -734h4l243 734h336l-397 -1055q-77 -200 -194 -287q-118 -88 -310 -88q-41 0 -77 3q-42 3 -64 7v250q15 -1 28 -3q8 -1 33 -1zM989 1507l-250 -329h-229l104 329h375z" />
    <glyph glyph-name="thorn" unicode="&#xfe;" horiz-adv-x="1331" 
d="M801 -25q-105 0 -191 50q-88 51 -127 131v-521h-342v1872h340v-614q39 80 127 131q85 49 193 49q207 0 333 -151t126 -398q0 -246 -126 -397q-126 -152 -333 -152zM694 829q-103 0 -159 -74q-58 -76 -58 -208v-45q0 -130 58 -206q57 -75 159 -75q107 0 164 79t57 224
q0 147 -58 226t-163 79z" />
    <glyph glyph-name="ydieresis" unicode="&#xff;" horiz-adv-x="1234" 
d="M227 -125q91 0 131 29t68 106l-399 1039h344l254 -734h4l243 734h336l-397 -1055q-77 -200 -194 -287q-118 -88 -310 -88q-41 0 -77 3q-42 3 -64 7v250q15 -1 28 -3q8 -1 33 -1zM1010 1194h-301v297h301v-297zM569 1194h-301v297h301v-297z" />
    <glyph glyph-name="Amacron" unicode="&#x100;" horiz-adv-x="1591" 
d="M1579 0h-362l-117 313h-619l-121 -313h-346l582 1462h399zM797 1124h-6l-207 -540h415zM1159 1585h-727v215h727v-215z" />
    <glyph glyph-name="amacron" unicode="&#x101;" horiz-adv-x="1214" 
d="M1104 0h-326q-7 64 -8 89q-2 46 -2 65q-39 -86 -126 -132q-88 -47 -210 -47q-167 0 -266 84q-98 83 -98 226q0 141 96 221q95 79 293 100l295 29v43q0 71 -41 112q-39 39 -117 39q-70 0 -109 -35q-40 -36 -45 -98h-327q17 179 147 278q131 99 346 99q238 0 359 -109
q120 -108 120 -325v-340q0 -86 5 -163q5 -79 14 -136zM406 307q0 -53 34 -83q33 -29 97 -29q95 0 154 55q61 56 61 147v52l-189 -23q-85 -10 -122 -38q-35 -26 -35 -81zM934 1194h-666v215h666v-215z" />
    <glyph glyph-name="Abreve" unicode="&#x102;" horiz-adv-x="1591" 
d="M1579 0h-362l-117 313h-619l-121 -313h-346l582 1462h399zM797 1124h-6l-207 -540h415zM797 1552q-146 0 -232 94t-86 250h199q0 -67 32 -105t87 -38q56 0 86 38q30 37 30 105h201q0 -154 -86 -249t-231 -95z" />
    <glyph glyph-name="abreve" unicode="&#x103;" horiz-adv-x="1214" 
d="M1104 0h-326q-7 64 -8 89q-2 46 -2 65q-39 -86 -126 -132q-88 -47 -210 -47q-167 0 -266 84q-98 83 -98 226q0 141 96 221q95 79 293 100l295 29v43q0 71 -41 112q-39 39 -117 39q-70 0 -109 -35q-40 -36 -45 -98h-327q17 179 147 278q131 99 346 99q238 0 359 -109
q120 -108 120 -325v-340q0 -86 5 -163q5 -79 14 -136zM406 307q0 -53 34 -83q33 -29 97 -29q95 0 154 55q61 56 61 147v52l-189 -23q-85 -10 -122 -38q-35 -26 -35 -81zM600 1165q-145 0 -231 92t-86 250h196q1 -68 34 -107q32 -38 87 -38q56 0 87 39q32 40 32 106h199
q0 -154 -87 -249q-85 -93 -231 -93z" />
    <glyph glyph-name="Aogonek" unicode="&#x104;" horiz-adv-x="1591" 
d="M1450 -201v-164q-37 -14 -73 -19q-38 -5 -77 -5q-94 0 -151 48t-57 128q0 47 24 98q23 49 92 135l-108 293h-619l-121 -313h-346l582 1462h399l584 -1462h-207q-49 -65 -69 -101q-15 -27 -15 -55q0 -26 19 -42q18 -15 49 -15q24 0 44 3q22 3 50 9zM797 1124h-6l-207 -540
h415z" />
    <glyph glyph-name="aogonek" unicode="&#x105;" horiz-adv-x="1214" 
d="M1028 -201v-164q-37 -14 -73 -19q-38 -5 -76 -5q-95 0 -152 48t-57 128q0 50 23 97q26 53 85 124q-7 58 -8 83q-2 42 -2 63q-39 -86 -126 -132q-88 -47 -210 -47q-167 0 -266 84q-98 83 -98 226q0 141 96 221q95 79 293 100l295 29v43q0 71 -41 112q-39 39 -117 39
q-70 0 -109 -35q-40 -36 -45 -98h-327q17 179 147 278q131 99 346 99q238 0 359 -109q120 -108 120 -325v-340q0 -86 5 -163q5 -79 14 -136h-154q-49 -65 -69 -101q-15 -27 -15 -55q0 -26 19 -42q18 -15 49 -15q25 0 44 3q22 3 50 9zM406 307q0 -53 34 -83q33 -29 97 -29
q95 0 154 55q61 56 61 147v52l-189 -23q-85 -10 -122 -38q-35 -26 -35 -81z" />
    <glyph glyph-name="Cacute" unicode="&#x106;" horiz-adv-x="1482" 
d="M788 1214q-171 0 -263 -125q-93 -126 -93 -358q0 -231 93 -357t263 -126q122 0 195 61t96 180h344q-46 -245 -211 -380q-164 -134 -424 -134q-324 0 -520 208t-196 548q0 339 196 547q197 209 520 209q262 0 425 -133q163 -134 210 -381h-344q-23 119 -96 180t-195 61z
M1137 1884l-252 -325h-213l102 325h363z" />
    <glyph glyph-name="cacute" unicode="&#x107;" horiz-adv-x="1173" 
d="M627 -25q-249 0 -403 151q-152 149 -152 398q0 250 152 399q153 150 403 150q205 0 335 -108q129 -107 152 -297h-323q-10 72 -55 115q-43 42 -113 42q-99 0 -153 -80q-54 -79 -54 -221q0 -140 54 -220q54 -79 153 -79q69 0 113 42q45 43 55 116h323q-23 -189 -152 -298
q-131 -110 -335 -110zM977 1507l-250 -329h-229l104 329h375z" />
    <glyph glyph-name="Ccircumflex" unicode="&#x108;" horiz-adv-x="1482" 
d="M788 1214q-171 0 -263 -125q-93 -126 -93 -358q0 -231 93 -357t263 -126q122 0 195 61t96 180h344q-46 -245 -211 -380q-164 -134 -424 -134q-324 0 -520 208t-196 548q0 339 196 547q197 209 520 209q262 0 425 -133q163 -134 210 -381h-344q-23 119 -96 180t-195 61z
M440 1556l207 328h291l207 -328h-191l-161 142l-162 -142h-191z" />
    <glyph glyph-name="ccircumflex" unicode="&#x109;" horiz-adv-x="1173" 
d="M627 -25q-249 0 -403 151q-152 149 -152 398q0 250 152 399q153 150 403 150q205 0 335 -108q129 -107 152 -297h-323q-10 72 -55 115q-43 42 -113 42q-99 0 -153 -80q-54 -79 -54 -221q0 -140 54 -220q54 -79 153 -79q69 0 113 42q45 43 55 116h323q-23 -189 -152 -298
q-131 -110 -335 -110zM272 1176l207 331h291l207 -331h-191l-161 149l-162 -149h-191z" />
    <glyph glyph-name="Cdotaccent" unicode="&#x10a;" horiz-adv-x="1482" 
d="M788 1214q-171 0 -263 -125q-93 -126 -93 -358q0 -231 93 -357t263 -126q122 0 195 61t96 180h344q-46 -245 -211 -380q-164 -134 -424 -134q-324 0 -520 208t-196 548q0 339 196 547q197 209 520 209q262 0 425 -133q163 -134 210 -381h-344q-23 119 -96 180t-195 61z
M965 1569h-353v297h353v-297z" />
    <glyph glyph-name="cdotaccent" unicode="&#x10b;" horiz-adv-x="1173" 
d="M627 -25q-249 0 -403 151q-152 149 -152 398q0 250 152 399q153 150 403 150q205 0 335 -108q129 -107 152 -297h-323q-10 72 -55 115q-43 42 -113 42q-99 0 -153 -80q-54 -79 -54 -221q0 -140 54 -220q54 -79 153 -79q69 0 113 42q45 43 55 116h323q-23 -189 -152 -298
q-131 -110 -335 -110zM801 1194h-352v297h352v-297z" />
    <glyph glyph-name="Ccaron" unicode="&#x10c;" horiz-adv-x="1482" 
d="M788 1214q-171 0 -263 -125q-93 -126 -93 -358q0 -231 93 -357t263 -126q122 0 195 61t96 180h344q-46 -245 -211 -380q-164 -134 -424 -134q-324 0 -520 208t-196 548q0 339 196 547q197 209 520 209q262 0 425 -133q163 -134 210 -381h-344q-23 119 -96 180t-195 61z
M631 1884l162 -141l161 141h191l-207 -328h-291l-207 328h191z" />
    <glyph glyph-name="ccaron" unicode="&#x10d;" horiz-adv-x="1173" 
d="M627 -25q-249 0 -403 151q-152 149 -152 398q0 250 152 399q153 150 403 150q205 0 335 -108q129 -107 152 -297h-323q-10 72 -55 115q-43 42 -113 42q-99 0 -153 -80q-54 -79 -54 -221q0 -140 54 -220q54 -79 153 -79q69 0 113 42q45 43 55 116h323q-23 -189 -152 -298
q-131 -110 -335 -110zM463 1507l162 -149l161 149h191l-207 -331h-291l-207 331h191z" />
    <glyph glyph-name="Dcaron" unicode="&#x10e;" horiz-adv-x="1564" 
d="M145 1462h600q340 0 544 -198t204 -531q0 -331 -204 -532t-544 -201h-600v1462zM1133 733q0 222 -100 340q-99 117 -288 117h-253v-916h253q189 0 288 118q100 120 100 341zM575 1884l162 -141l162 141h191l-207 -328h-291l-207 328h190z" />
    <glyph glyph-name="dcaron" unicode="&#x10f;" horiz-adv-x="1378" 
d="M530 -25q-206 0 -332 152q-126 151 -126 397q0 247 126 398t332 151q107 0 192 -49q86 -50 126 -131v614h342v-1507h-338v156q-40 -81 -129 -131t-193 -50zM637 829q-105 0 -163 -79t-58 -226q0 -144 57 -224q57 -79 164 -79q103 0 160 75t57 206v45q0 133 -57 208
q-56 74 -160 74zM1729 1507l-226 -407h-164l45 407h345z" />
    <glyph glyph-name="Dcroat" unicode="&#x110;" horiz-adv-x="1615" 
d="M1544 733q0 -331 -204 -532t-543 -201h-600v612h-136v258h136v592h600q339 0 543 -198t204 -531zM543 612v-338h254q188 0 287 118q100 120 100 341q0 222 -100 340q-99 117 -287 117h-254v-320h209v-258h-209z" />
    <glyph glyph-name="dcroat" unicode="&#x111;" horiz-adv-x="1368" 
d="M852 0v156q-40 -81 -129 -131t-193 -50q-206 0 -332 152q-126 151 -126 397q0 247 126 398t332 151q107 0 192 -49q86 -50 126 -131v272h-223v193h223v149h342v-149h135v-193h-135v-1165h-338zM637 221q103 0 160 75t57 206v45q0 133 -57 208q-56 74 -160 74
q-105 0 -163 -79t-58 -226q0 -144 57 -224q57 -79 164 -79z" />
    <glyph glyph-name="Emacron" unicode="&#x112;" horiz-adv-x="1374" 
d="M1266 274v-274h-1121v1462h1106v-272h-759v-320h669v-272h-669v-324h774zM1067 1585h-727v215h727v-215z" />
    <glyph glyph-name="emacron" unicode="&#x113;" horiz-adv-x="1210" 
d="M817 342h316q-34 -168 -169 -268q-134 -99 -337 -99q-245 0 -401 151q-154 150 -154 398q0 249 153 399t398 150q235 0 374 -147q140 -148 140 -385v-92h-736q15 -116 72 -174t154 -58q71 0 121 32q48 30 69 93zM623 834q-85 0 -142 -52q-55 -51 -73 -151h411
q0 88 -53 146q-52 57 -143 57zM956 1194h-665v215h665v-215z" />
    <glyph glyph-name="Ebreve" unicode="&#x114;" horiz-adv-x="1374" 
d="M1266 274v-274h-1121v1462h1106v-272h-759v-320h669v-272h-669v-324h774zM702 1552q-145 0 -231 94t-86 250h199q0 -68 31 -105q32 -38 87 -38q56 0 86 38q31 39 31 105h201q0 -154 -86 -249t-232 -95z" />
    <glyph glyph-name="ebreve" unicode="&#x115;" horiz-adv-x="1210" 
d="M817 342h316q-34 -168 -169 -268q-134 -99 -337 -99q-245 0 -401 151q-154 150 -154 398q0 249 153 399t398 150q235 0 374 -147q140 -148 140 -385v-92h-736q15 -116 72 -174t154 -58q71 0 121 32q48 30 69 93zM623 834q-85 0 -142 -52q-55 -51 -73 -151h411
q0 88 -53 146q-52 57 -143 57zM616 1165q-145 0 -231 92t-86 250h197q2 -70 33 -107q32 -38 87 -38q56 0 87 39q32 40 32 106h199q0 -155 -86 -249q-86 -93 -232 -93z" />
    <glyph glyph-name="Edotaccent" unicode="&#x116;" horiz-adv-x="1374" 
d="M1266 274v-274h-1121v1462h1106v-272h-759v-320h669v-272h-669v-324h774zM879 1569h-353v297h353v-297z" />
    <glyph glyph-name="edotaccent" unicode="&#x117;" horiz-adv-x="1210" 
d="M817 342h316q-34 -168 -169 -268q-134 -99 -337 -99q-245 0 -401 151q-154 150 -154 398q0 249 153 399t398 150q235 0 374 -147q140 -148 140 -385v-92h-736q15 -116 72 -174t154 -58q71 0 121 32q48 30 69 93zM623 834q-85 0 -142 -52q-55 -51 -73 -151h411
q0 88 -53 146q-52 57 -143 57zM801 1194h-352v297h352v-297z" />
    <glyph glyph-name="Eogonek" unicode="&#x118;" horiz-adv-x="1374" 
d="M1194 -201v-164q-37 -14 -73 -19q-38 -5 -77 -5q-94 0 -151 48t-57 128q0 48 23 95q24 50 77 118h-791v1462h1106v-272h-759v-320h669v-272h-669v-324h774v-274h-150q-49 -65 -69 -101q-15 -27 -15 -55q0 -26 19 -42q18 -15 49 -15q24 0 44 3q22 3 50 9z" />
    <glyph glyph-name="eogonek" unicode="&#x119;" horiz-adv-x="1210" 
d="M958 -201v-164q-37 -15 -70 -19q-38 -5 -77 -5q-95 0 -153 48t-58 128q0 42 20 88t64 102q-14 -2 -21 -2h-36q-245 0 -401 151q-154 150 -154 398q0 249 153 399t398 150q235 0 374 -147q140 -148 140 -385v-92h-736q15 -116 72 -174t154 -58q71 0 121 32q48 30 69 93
h316q-15 -79 -65 -152q-48 -70 -150 -149q-61 -48 -91 -95q-30 -48 -30 -96q0 -31 19 -47t52 -16q23 0 41 3q24 4 49 9zM623 834q-85 0 -142 -52q-55 -51 -73 -151h411q0 88 -53 146q-52 57 -143 57z" />
    <glyph glyph-name="Ecaron" unicode="&#x11a;" horiz-adv-x="1374" 
d="M1266 274v-274h-1121v1462h1106v-272h-759v-320h669v-272h-669v-324h774zM541 1884l161 -141l162 141h191l-207 -328h-291l-207 328h191z" />
    <glyph glyph-name="ecaron" unicode="&#x11b;" horiz-adv-x="1210" 
d="M817 342h316q-34 -168 -169 -268q-134 -99 -337 -99q-245 0 -401 151q-154 150 -154 398q0 249 153 399t398 150q235 0 374 -147q140 -148 140 -385v-92h-736q15 -116 72 -174t154 -58q71 0 121 32q48 30 69 93zM623 834q-85 0 -142 -52q-55 -51 -73 -151h411
q0 88 -53 146q-52 57 -143 57zM467 1507l162 -149l162 149h190l-207 -331h-291l-207 331h191z" />
    <glyph glyph-name="Gcircumflex" unicode="&#x11c;" horiz-adv-x="1593" 
d="M776 -25q-320 0 -512 209q-192 208 -192 549q0 337 201 546q201 208 532 208q265 0 429 -130q166 -131 218 -376h-352q-24 115 -99 175q-73 58 -196 58q-179 0 -276 -125t-97 -356t97 -358t276 -127q135 0 219 66t84 171v27h-227v250h585v-762h-274l-21 176
q-38 -86 -151 -143q-116 -58 -244 -58zM461 1556l207 328h290l207 -328h-190l-162 142l-162 -142h-190z" />
    <glyph glyph-name="gcircumflex" unicode="&#x11d;" horiz-adv-x="1337" 
d="M631 -158q109 0 166 59t57 173v145q-44 -86 -128 -134q-86 -50 -189 -50q-209 0 -336 143t-127 377q0 232 127 375t336 143q103 0 192 -50q89 -49 129 -132v158h338v-924q0 -247 -147 -381q-146 -133 -416 -133q-228 0 -370 91q-143 92 -171 253h338q17 -58 67 -85
q51 -28 134 -28zM639 276q103 0 163 71t60 190v38q0 119 -61 187q-61 69 -162 69q-105 0 -163 -72q-58 -71 -58 -204q0 -132 58 -205q59 -74 163 -74zM328 1176l207 331h290l207 -331h-190l-162 149l-162 -149h-190z" />
    <glyph glyph-name="Gbreve" unicode="&#x11e;" horiz-adv-x="1593" 
d="M776 -25q-320 0 -512 209q-192 208 -192 549q0 337 201 546q201 208 532 208q265 0 429 -130q166 -131 218 -376h-352q-24 115 -99 175q-73 58 -196 58q-179 0 -276 -125t-97 -356t97 -358t276 -127q135 0 219 66t84 171v27h-227v250h585v-762h-274l-21 176
q-38 -86 -151 -143q-116 -58 -244 -58zM813 1552q-145 0 -231 94t-86 250h198q0 -67 32 -105t87 -38q56 0 86 38q31 39 31 105h200q0 -154 -86 -249t-231 -95z" />
    <glyph glyph-name="gbreve" unicode="&#x11f;" horiz-adv-x="1337" 
d="M631 -158q109 0 166 59t57 173v145q-44 -86 -128 -134q-86 -50 -189 -50q-209 0 -336 143t-127 377q0 232 127 375t336 143q103 0 192 -50q89 -49 129 -132v158h338v-924q0 -247 -147 -381q-146 -133 -416 -133q-228 0 -370 91q-143 92 -171 253h338q17 -58 67 -85
q51 -28 134 -28zM639 276q103 0 163 71t60 190v38q0 119 -61 187q-61 69 -162 69q-105 0 -163 -72q-58 -71 -58 -204q0 -132 58 -205q59 -74 163 -74zM680 1165q-145 0 -231 92q-87 93 -87 250h197q1 -68 34 -107q32 -38 87 -38q56 0 87 39q32 40 32 106h198
q0 -155 -86 -249q-85 -93 -231 -93z" />
    <glyph glyph-name="Gdotaccent" unicode="&#x120;" horiz-adv-x="1593" 
d="M776 -25q-320 0 -512 209q-192 208 -192 549q0 337 201 546q201 208 532 208q265 0 429 -130q166 -131 218 -376h-352q-24 115 -99 175q-73 58 -196 58q-179 0 -276 -125t-97 -356t97 -358t276 -127q135 0 219 66t84 171v27h-227v250h585v-762h-274l-21 176
q-38 -86 -151 -143q-116 -58 -244 -58zM989 1569h-352v297h352v-297z" />
    <glyph glyph-name="gdotaccent" unicode="&#x121;" horiz-adv-x="1337" 
d="M631 -158q109 0 166 59t57 173v145q-44 -86 -128 -134q-86 -50 -189 -50q-209 0 -336 143t-127 377q0 232 127 375t336 143q103 0 192 -50q89 -49 129 -132v158h338v-924q0 -247 -147 -381q-146 -133 -416 -133q-228 0 -370 91q-143 92 -171 253h338q17 -58 67 -85
q51 -28 134 -28zM639 276q103 0 163 71t60 190v38q0 119 -61 187q-61 69 -162 69q-105 0 -163 -72q-58 -71 -58 -204q0 -132 58 -205q59 -74 163 -74zM840 1194h-353v297h353v-297z" />
    <glyph glyph-name="Gcommaaccent" unicode="&#x122;" horiz-adv-x="1593" 
d="M776 -25q-320 0 -512 209q-192 208 -192 549q0 337 201 546q201 208 532 208q265 0 429 -130q166 -131 218 -376h-352q-24 115 -99 175q-73 58 -196 58q-179 0 -276 -125t-97 -356t97 -358t276 -127q135 0 219 66t84 171v27h-227v250h585v-762h-274l-21 176
q-38 -86 -151 -143q-116 -58 -244 -58zM770 -283h-113v191h316v-111q0 -147 -78 -218q-79 -71 -240 -71v115q59 0 87 23t28 71z" />
    <glyph glyph-name="gcommaaccent" unicode="&#x123;" horiz-adv-x="1337" 
d="M631 -158q109 0 166 59t57 173v145q-44 -86 -128 -134q-86 -50 -189 -50q-209 0 -336 143t-127 377q0 232 127 375t336 143q103 0 192 -50q89 -49 129 -132v158h338v-924q0 -247 -147 -381q-146 -133 -416 -133q-228 0 -370 91q-143 92 -171 253h338q17 -58 67 -85
q51 -28 134 -28zM639 276q103 0 163 71t60 190v38q0 119 -61 187q-61 69 -162 69q-105 0 -163 -72q-58 -71 -58 -204q0 -132 58 -205q59 -74 163 -74zM707 1370h112v-190h-315v110q0 148 78 218q79 71 239 71v-115q-61 0 -87 -22q-27 -22 -27 -72z" />
    <glyph glyph-name="Hcircumflex" unicode="&#x124;" horiz-adv-x="1654" 
d="M500 0h-355v1462h355v-585h655v585h356v-1462h-356v606h-655v-606zM477 1556l207 328h291l207 -328h-191l-162 142l-161 -142h-191z" />
    <glyph glyph-name="hcircumflex" unicode="&#x125;" horiz-adv-x="1320" 
d="M483 1507v-620q43 87 126 137q82 49 194 49q183 0 286 -106t103 -295v-672h-344v590q0 112 -43 165q-43 54 -131 54q-90 0 -140 -64q-51 -65 -51 -184v-561h-342v1507h342zM309 1587l207 328h291l207 -328h-191l-161 142l-162 -142h-191z" />
    <glyph glyph-name="Hbar" unicode="&#x126;" horiz-adv-x="1757" 
d="M1206 446h-655v-446h-354v944h-136v260h136v258h354v-258h655v258h357v-258h135v-260h-135v-944h-357v446zM551 944v-225h655v225h-655z" />
    <glyph glyph-name="hbar" unicode="&#x127;" horiz-adv-x="1355" 
d="M711 809q-91 0 -141 -64t-50 -184v-561h-342v1165h-137v193h137v149h342v-149h223v-193h-223v-278q43 87 126 137q82 49 194 49q182 0 285 -106q104 -107 104 -295v-672h-344v590q0 112 -43 165q-44 54 -131 54z" />
    <glyph glyph-name="Itilde" unicode="&#x128;" horiz-adv-x="645" 
d="M500 0h-355v1462h355v-1462zM309 1634q-57 34 -73 40q-22 9 -41 9q-34 0 -54 -29t-22 -85h-180q0 159 57 253q57 95 154 95q39 0 75 -14q44 -17 109 -58q55 -33 74 -40q23 -9 41 -9q31 0 53 31q20 29 22 84h181q0 -157 -58 -253q-57 -95 -153 -95q-40 0 -76 14
q-48 18 -109 57z" />
    <glyph glyph-name="itilde" unicode="&#x129;" horiz-adv-x="624" 
d="M307 1229q-32 32 -47 40q-17 9 -35 9q-32 0 -54 -31q-23 -32 -24 -86h-180q0 156 58 252q57 94 153 94q40 0 68 -14q32 -16 73 -57q30 -30 48 -40t34 -10q33 0 55 31t23 86h180q0 -159 -57 -253q-57 -95 -153 -95q-40 0 -68 14q-31 15 -74 60zM141 0v1049h342v-1049h-342
z" />
    <glyph glyph-name="Imacron" unicode="&#x12a;" horiz-adv-x="645" 
d="M500 0h-355v1462h355v-1462zM684 1585h-727v215h727v-215z" />
    <glyph glyph-name="imacron" unicode="&#x12b;" horiz-adv-x="624" 
d="M608 1194h-583v215h583v-215zM141 0v1049h342v-1049h-342z" />
    <glyph glyph-name="Ibreve" unicode="&#x12c;" horiz-adv-x="645" 
d="M500 0h-355v1462h355v-1462zM322 1552q-146 0 -232 94t-86 250h199q0 -68 31 -105q32 -38 88 -38t86 38q30 37 30 105h201q0 -154 -86 -249t-231 -95z" />
    <glyph glyph-name="ibreve" unicode="&#x12d;" horiz-adv-x="624" 
d="M141 0v1049h342v-1049h-342zM313 1165q-145 0 -231 92t-86 250h197q2 -70 33 -107q32 -38 87 -38t87 39q32 40 32 106h199q0 -155 -86 -249q-85 -93 -232 -93z" />
    <glyph glyph-name="Iogonek" unicode="&#x12e;" horiz-adv-x="645" 
d="M498 -201v-164q-37 -14 -73 -19q-38 -5 -77 -5q-94 0 -151 48q-58 49 -58 128q0 49 26 99q27 52 83 114h-103v1462h355v-1462q-81 -23 -122 -61q-42 -39 -42 -91q0 -26 19 -44q18 -17 51 -17q22 0 41 3q26 4 51 9z" />
    <glyph glyph-name="iogonek" unicode="&#x12f;" horiz-adv-x="624" 
d="M489 1194h-354v297h354v-297zM336 -389q-94 0 -153 48q-58 48 -58 128q0 49 26 99q28 54 82 114h-92v1049h342v-1049q-78 -23 -118 -61q-41 -39 -41 -91q0 -28 18 -45q17 -16 51 -16q23 0 41 3q24 4 49 9v-164q-37 -15 -70 -19q-38 -5 -77 -5z" />
    <glyph glyph-name="Idotaccent" unicode="&#x130;" horiz-adv-x="645" 
d="M500 0h-355v1462h355v-1462zM498 1569h-353v297h353v-297z" />
    <glyph glyph-name="dotlessi" unicode="&#x131;" horiz-adv-x="624" 
d="M141 0v1049h342v-1049h-342z" />
    <glyph glyph-name="Jcircumflex" unicode="&#x134;" horiz-adv-x="1304" 
d="M588 231q114 0 173 73q58 71 58 218v940h357v-927q0 -259 -158 -409q-159 -151 -430 -151q-256 0 -407 137t-152 369h336q1 -118 60 -184q58 -66 163 -66zM641 1556l207 328h291l207 -328h-191l-162 142l-162 -142h-190z" />
    <glyph glyph-name="jcircumflex" unicode="&#x135;" horiz-adv-x="624" 
d="M104 -379q-38 0 -72 3t-75 9v248q5 0 17 -1.5t18 -2.5q24 -2 35 -2q60 0 88 26q26 25 26 87v1061h342v-1076q0 -175 -96 -263q-97 -89 -283 -89zM-45 1176l207 331h291l206 -331h-190l-162 149l-162 -149h-190z" />
    <glyph glyph-name="Kcommaaccent" unicode="&#x136;" horiz-adv-x="1566" 
d="M1565 0h-428l-453 582l-184 -199v-383h-355v1462h355v-686l596 686h399l-577 -626zM756 -283h-113v191h315v-111q0 -148 -77 -218q-79 -71 -240 -71v115q59 0 87 23t28 71z" />
    <glyph glyph-name="kcommaaccent" unicode="&#x137;" horiz-adv-x="1298" 
d="M1278 0h-385l-301 401l-109 -108v-293h-342v1507h342v-864l387 406h383l-426 -431zM664 -283h-113v191h315v-111q0 -147 -78 -218q-79 -71 -239 -71v115q59 0 87 23t28 71z" />
    <glyph glyph-name="kgreenlandic" unicode="&#x138;" horiz-adv-x="1298" 
d="M1278 0h-385l-301 401l-109 -108v-293h-342v1049h342v-406l387 406h383l-426 -431z" />
    <glyph glyph-name="Lacute" unicode="&#x139;" horiz-adv-x="1318" 
d="M1227 0h-1082v1462h355v-1188h727v-274zM676 1884l-252 -325h-213l102 325h363z" />
    <glyph glyph-name="lacute" unicode="&#x13a;" horiz-adv-x="624" 
d="M483 1507v-1507h-342v1507h342zM666 1915l-252 -326h-213l102 326h363z" />
    <glyph glyph-name="Lcommaaccent" unicode="&#x13b;" horiz-adv-x="1318" 
d="M1227 0h-1082v1462h355v-1188h727v-274zM651 -283h-112v191h315v-111q0 -147 -78 -218q-79 -71 -239 -71v115q59 0 87 23q27 22 27 71z" />
    <glyph glyph-name="lcommaaccent" unicode="&#x13c;" horiz-adv-x="624" 
d="M483 1507v-1507h-342v1507h342zM270 -283h-112v191h315v-111q0 -147 -78 -218q-79 -71 -239 -71v115q59 0 87 23q27 22 27 71z" />
    <glyph glyph-name="Lcaron" unicode="&#x13d;" horiz-adv-x="1318" 
d="M1227 0h-1082v1462h355v-1188h727v-274zM1106 1462l-225 -407h-164l45 407h344z" />
    <glyph glyph-name="lcaron" unicode="&#x13e;" horiz-adv-x="671" 
d="M483 1507v-1507h-342v1507h342zM1022 1507l-225 -407h-164l45 407h344z" />
    <glyph glyph-name="Ldot" unicode="&#x13f;" horiz-adv-x="1318" 
d="M1227 0h-1082v1462h355v-1188h727v-274zM1147 639h-352v297h352v-297z" />
    <glyph glyph-name="ldot" unicode="&#x140;" horiz-adv-x="1097" 
d="M483 1507v-1507h-342v1507h342zM1032 582h-352v297h352v-297z" />
    <glyph glyph-name="Lslash" unicode="&#x141;" horiz-adv-x="1290" 
d="M551 274h727v-274h-1081v530l-136 -49v256l136 49v676h354v-561l323 117v-256l-323 -117v-371z" />
    <glyph glyph-name="lslash" unicode="&#x142;" horiz-adv-x="755" 
d="M725 1071v-235l-176 -74v-762h-342v631l-176 -74v234l176 73v643h342v-512z" />
    <glyph glyph-name="Nacute" unicode="&#x143;" horiz-adv-x="1642" 
d="M145 1462h406l604 -921h4v921h338v-1462h-330l-680 1032h-4v-1032h-338v1462zM1139 1884l-252 -325h-213l102 325h363z" />
    <glyph glyph-name="nacute" unicode="&#x144;" horiz-adv-x="1320" 
d="M141 1049h338v-162q41 86 127 136t197 50q183 0 286 -106t103 -295v-672h-344v590q0 112 -43 165q-43 54 -131 54q-90 0 -140 -64q-51 -65 -51 -184v-561h-342v1049zM1014 1507l-250 -329h-229l104 329h375z" />
    <glyph glyph-name="Ncommaaccent" unicode="&#x145;" horiz-adv-x="1642" 
d="M145 1462h406l604 -921h4v921h338v-1462h-330l-680 1032h-4v-1032h-338v1462zM776 -283h-112v191h315v-111q0 -147 -78 -218q-79 -71 -239 -71v115q59 0 87 23q27 22 27 71z" />
    <glyph glyph-name="ncommaaccent" unicode="&#x146;" horiz-adv-x="1320" 
d="M141 1049h338v-162q41 86 127 136t197 50q183 0 286 -106t103 -295v-672h-344v590q0 112 -43 165q-43 54 -131 54q-90 0 -140 -64q-51 -65 -51 -184v-561h-342v1049zM629 -283h-113v191h315v-111q0 -148 -77 -218q-79 -71 -240 -71v115q59 0 87 23t28 71z" />
    <glyph glyph-name="Ncaron" unicode="&#x147;" horiz-adv-x="1642" 
d="M145 1462h406l604 -921h4v921h338v-1462h-330l-680 1032h-4v-1032h-338v1462zM647 1884l162 -141l162 141h190l-207 -328h-290l-207 328h190z" />
    <glyph glyph-name="ncaron" unicode="&#x148;" horiz-adv-x="1320" 
d="M141 1049h338v-162q41 86 127 136t197 50q183 0 286 -106t103 -295v-672h-344v590q0 112 -43 165q-43 54 -131 54q-90 0 -140 -64q-51 -65 -51 -184v-561h-342v1049zM500 1507l162 -149l161 149h191l-207 -331h-291l-207 331h191z" />
    <glyph glyph-name="Eng" unicode="&#x14a;" horiz-adv-x="1642" 
d="M1118 -379q-40 0 -75 3q-32 3 -74 9v248q6 -1 18 -2t18 -2q24 -2 33 -2q64 0 92 27q29 27 29 86v41l-672 1003h-4v-1032h-338v1462h406l604 -921h4v921h338v-1489q0 -175 -96 -263q-97 -89 -283 -89z" />
    <glyph glyph-name="eng" unicode="&#x14b;" horiz-adv-x="1320" 
d="M811 -379q-38 0 -73 3q-32 3 -74 9v248q12 -3 35 -5q12 -1 34 -1q60 0 88 26q27 25 27 87v602q0 112 -43 165q-43 54 -131 54q-90 0 -140 -64q-51 -65 -51 -184v-561h-342v1049h338v-162q41 86 127 136t197 50q183 0 286 -106t103 -295v-699q0 -175 -96 -263
q-97 -89 -285 -89z" />
    <glyph glyph-name="Omacron" unicode="&#x14c;" horiz-adv-x="1595" 
d="M799 1487q327 0 527 -209t200 -547t-200 -547t-527 -209q-331 0 -529 208q-198 209 -198 548t198 548q198 208 529 208zM799 248q176 0 271 126q95 127 95 357q0 231 -95 358q-94 125 -271 125q-178 0 -272 -125q-95 -127 -95 -358q0 -230 95 -357q94 -126 272 -126z
M1161 1585h-727v215h727v-215z" />
    <glyph glyph-name="omacron" unicode="&#x14d;" horiz-adv-x="1261" 
d="M631 1073q252 0 404 -149q153 -150 153 -400q0 -249 -153 -399t-404 -150q-254 0 -407 150q-152 149 -152 399q0 251 152 400t407 149zM631 827q-106 0 -160 -78q-55 -79 -55 -225q0 -145 55 -224t160 -79q101 0 157 78q56 79 56 225q0 147 -56 226q-55 77 -157 77z
M963 1194h-666v215h666v-215z" />
    <glyph glyph-name="Obreve" unicode="&#x14e;" horiz-adv-x="1595" 
d="M799 1487q327 0 527 -209t200 -547t-200 -547t-527 -209q-331 0 -529 208q-198 209 -198 548t198 548q198 208 529 208zM799 248q176 0 271 126q95 127 95 357q0 231 -95 358q-94 125 -271 125q-178 0 -272 -125q-95 -127 -95 -358q0 -230 95 -357q94 -126 272 -126z
M799 1552q-146 0 -232 94t-86 250h199q0 -67 32 -105t87 -38q56 0 86 38q30 37 30 105h201q0 -154 -86 -249t-231 -95z" />
    <glyph glyph-name="obreve" unicode="&#x14f;" horiz-adv-x="1261" 
d="M631 1073q252 0 404 -149q153 -150 153 -400q0 -249 -153 -399t-404 -150q-254 0 -407 150q-152 149 -152 399q0 251 152 400t407 149zM631 827q-106 0 -160 -78q-55 -79 -55 -225q0 -145 55 -224t160 -79q101 0 157 78q56 79 56 225q0 147 -56 226q-55 77 -157 77z
M631 1165q-146 0 -232 92t-86 250h197q1 -68 34 -107q32 -38 87 -38t87 39q32 40 32 106h198q0 -155 -86 -249q-86 -93 -231 -93z" />
    <glyph glyph-name="Ohungarumlaut" unicode="&#x150;" horiz-adv-x="1595" 
d="M799 1487q327 0 527 -209t200 -547t-200 -547t-527 -209q-331 0 -529 208q-198 209 -198 548t198 548q198 208 529 208zM799 248q176 0 271 126q95 127 95 357q0 231 -95 358q-94 125 -271 125q-178 0 -272 -125q-95 -127 -95 -358q0 -230 95 -357q94 -126 272 -126z
M1087 1559h-194l106 325h324zM682 1559h-197l107 325h323z" />
    <glyph glyph-name="ohungarumlaut" unicode="&#x151;" horiz-adv-x="1261" 
d="M631 1073q252 0 404 -149q153 -150 153 -400q0 -249 -153 -399t-404 -150q-254 0 -407 150q-152 149 -152 399q0 251 152 400t407 149zM631 827q-106 0 -160 -78q-55 -79 -55 -225q0 -145 55 -224t160 -79q101 0 157 78q56 79 56 225q0 147 -56 226q-55 77 -157 77z
M911 1178h-194l106 329h324zM506 1178h-197l107 329h323z" />
    <glyph glyph-name="OE" unicode="&#x152;" horiz-adv-x="2299" 
d="M2191 0h-1374q-337 0 -542 199q-203 197 -203 530t203 533t542 200h1360v-272h-758v-320h668v-272h-668v-324h772v-274zM432 729q0 -225 98 -339q99 -116 287 -116h254v916h-254q-188 0 -287 -118q-98 -117 -98 -343z" />
    <glyph glyph-name="oe" unicode="&#x153;" horiz-adv-x="1986" 
d="M1593 344h318q-34 -170 -169 -270q-134 -99 -339 -99q-115 0 -212 45t-171 134q-78 -90 -174 -134q-99 -45 -215 -45q-254 0 -407 150q-152 149 -152 399q0 251 152 400t407 149q117 0 216 -45q100 -46 173 -133q73 87 170 133q96 45 211 45q235 0 375 -147
q139 -146 139 -385v-88h-737q12 -114 69 -174t156 -60q73 0 122 32q47 31 68 93zM1401 836q-89 0 -146 -55q-55 -54 -73 -158h415q-1 92 -55 153q-52 60 -141 60zM631 827q-106 0 -160 -78q-55 -79 -55 -225q0 -145 55 -224t160 -79q102 0 157 79q56 80 56 224
q0 145 -56 225q-54 78 -157 78z" />
    <glyph glyph-name="Racute" unicode="&#x154;" horiz-adv-x="1488" 
d="M492 506v-506h-347v1462h680q276 0 422 -124q148 -125 148 -355q0 -148 -76 -257q-77 -110 -213 -165l336 -561h-381l-295 506h-274zM492 1190v-412h288q134 0 201 50q66 50 66 155t-66 156t-201 51h-288zM1042 1884l-251 -325h-213l102 325h362z" />
    <glyph glyph-name="racute" unicode="&#x155;" horiz-adv-x="915" 
d="M793 1065q21 0 45 -2q17 -1 30 -8v-316q-24 5 -51 6q-54 3 -59 3q-128 0 -201 -76q-74 -77 -74 -213v-459h-342v1049h338v-224q39 118 121 179t193 61zM860 1507l-250 -329h-229l104 329h375z" />
    <glyph glyph-name="Rcommaaccent" unicode="&#x156;" horiz-adv-x="1488" 
d="M492 506v-506h-347v1462h680q276 0 422 -124q148 -125 148 -355q0 -148 -76 -257q-77 -110 -213 -165l336 -561h-381l-295 506h-274zM492 1190v-412h288q134 0 201 50q66 50 66 155t-66 156t-201 51h-288zM725 -283h-113v191h316v-111q0 -147 -78 -218q-79 -71 -240 -71
v115q59 0 87 23t28 71z" />
    <glyph glyph-name="rcommaaccent" unicode="&#x157;" horiz-adv-x="915" 
d="M793 1065q21 0 45 -2q17 -1 30 -8v-316q-24 5 -51 6q-54 3 -59 3q-128 0 -201 -76q-74 -77 -74 -213v-459h-342v1049h338v-224q39 118 121 179t193 61zM268 -283h-112v191h315v-111q0 -147 -78 -218q-79 -71 -239 -71v115q59 0 87 23q27 22 27 71z" />
    <glyph glyph-name="Rcaron" unicode="&#x158;" horiz-adv-x="1488" 
d="M492 506v-506h-347v1462h680q276 0 422 -124q148 -125 148 -355q0 -148 -76 -257q-77 -110 -213 -165l336 -561h-381l-295 506h-274zM492 1190v-412h288q134 0 201 50q66 50 66 155t-66 156t-201 51h-288zM551 1884l162 -141l161 141h191l-207 -328h-291l-207 328h191z
" />
    <glyph glyph-name="rcaron" unicode="&#x159;" horiz-adv-x="915" 
d="M793 1065q21 0 45 -2q17 -1 30 -8v-316q-24 5 -51 6q-54 3 -59 3q-128 0 -201 -76q-74 -77 -74 -213v-459h-342v1049h338v-224q39 118 121 179t193 61zM362 1507l162 -149l162 149h191l-207 -331h-291l-207 331h190z" />
    <glyph glyph-name="Sacute" unicode="&#x15a;" horiz-adv-x="1384" 
d="M723 -25q-300 0 -476 124q-178 125 -200 352h342q11 -107 94 -164q85 -58 228 -58q117 0 191 49q73 49 73 130q0 69 -49 105q-48 35 -170 56l-258 47q-202 37 -304 141q-102 103 -102 273q0 202 164 330q163 127 420 127q276 0 437 -117q160 -117 183 -332h-333
q-8 93 -83 144t-200 51q-109 0 -175 -48q-67 -49 -67 -128q0 -63 41 -98q40 -34 170 -58l279 -53q198 -34 297 -138q98 -102 98 -278q0 -205 -168 -331t-432 -126zM1055 1884l-252 -325h-213l102 325h363z" />
    <glyph glyph-name="sacute" unicode="&#x15b;" horiz-adv-x="1130" 
d="M582 -25q-230 0 -367 92q-138 93 -156 259h320q7 -59 61 -94q50 -33 135 -33q72 0 115 25t43 71q0 37 -30 56q-30 20 -115 36l-187 31q-158 27 -233 102q-76 76 -76 201q0 155 130 254q129 98 329 98q213 0 338 -89t143 -249h-303q-8 53 -56 85q-49 32 -118 32
q-64 0 -105 -26q-40 -25 -40 -68q0 -38 28 -57q26 -17 111 -33l203 -35q148 -23 224 -102q77 -80 77 -207q0 -156 -132 -252q-133 -97 -339 -97zM915 1507l-249 -329h-230l105 329h374z" />
    <glyph glyph-name="Scircumflex" unicode="&#x15c;" horiz-adv-x="1384" 
d="M723 -25q-300 0 -476 124q-178 125 -200 352h342q11 -107 94 -164q85 -58 228 -58q117 0 191 49q73 49 73 130q0 69 -49 105q-48 35 -170 56l-258 47q-202 37 -304 141q-102 103 -102 273q0 202 164 330q163 127 420 127q276 0 437 -117q160 -117 183 -332h-333
q-8 93 -83 144t-200 51q-109 0 -175 -48q-67 -49 -67 -128q0 -63 41 -98q40 -34 170 -58l279 -53q198 -34 297 -138q98 -102 98 -278q0 -205 -168 -331t-432 -126zM362 1556l207 328h291l207 -328h-190l-162 142l-162 -142h-191z" />
    <glyph glyph-name="scircumflex" unicode="&#x15d;" horiz-adv-x="1130" 
d="M582 -25q-230 0 -367 92q-138 93 -156 259h320q7 -59 61 -94q50 -33 135 -33q72 0 115 25t43 71q0 37 -30 56q-30 20 -115 36l-187 31q-158 27 -233 102q-76 76 -76 201q0 155 130 254q129 98 329 98q213 0 338 -89t143 -249h-303q-8 53 -56 85q-49 32 -118 32
q-64 0 -105 -26q-40 -25 -40 -68q0 -38 28 -57q26 -17 111 -33l203 -35q148 -23 224 -102q77 -80 77 -207q0 -156 -132 -252q-133 -97 -339 -97zM219 1176l207 331h291l207 -331h-191l-162 149l-161 -149h-191z" />
    <glyph glyph-name="Scedilla" unicode="&#x15e;" horiz-adv-x="1384" 
d="M952 -231q0 -87 -76 -139t-196 -52q-55 0 -105 10q-54 11 -94 27v137q73 -26 108 -34q42 -9 87 -9q42 0 69 15t27 40q0 42 -52 54q-53 12 -110 -6l-53 49l74 119q-260 18 -412 140q-151 121 -172 331h342q11 -107 94 -164q85 -58 228 -58q117 0 191 49q73 49 73 130
q0 69 -49 105q-48 35 -170 56l-258 47q-202 37 -304 141q-102 103 -102 273q0 202 164 330q163 127 420 127q276 0 437 -117q160 -117 183 -332h-333q-8 93 -83 144t-200 51q-109 0 -175 -48q-67 -49 -67 -128q0 -63 41 -98q40 -34 170 -58l279 -53q198 -34 297 -138
q98 -102 98 -278q0 -196 -159 -322q-161 -128 -412 -135l-33 -51q102 8 167 -35q66 -43 66 -120z" />
    <glyph glyph-name="scedilla" unicode="&#x15f;" horiz-adv-x="1130" 
d="M813 -231q0 -86 -77 -139q-76 -52 -195 -52q-55 0 -105 10q-54 11 -94 27v137q73 -26 108 -34q42 -9 87 -9q42 0 69 15t27 40q0 42 -52 54q-53 12 -110 -6l-53 49l74 119q-191 18 -303 107t-130 239h320q7 -59 61 -94q50 -33 135 -33q72 0 115 25t43 71q0 37 -30 56
q-30 20 -115 36l-187 31q-158 27 -233 102q-76 76 -76 201q0 155 130 254q129 98 329 98q213 0 338 -89t143 -249h-303q-8 53 -56 85q-49 32 -118 32q-64 0 -105 -26q-40 -25 -40 -68q0 -38 28 -57q26 -17 111 -33l203 -35q148 -23 224 -102q77 -80 77 -207
q0 -150 -122 -245q-124 -97 -319 -104l-32 -51q101 8 166 -35q67 -44 67 -120z" />
    <glyph glyph-name="Scaron" unicode="&#x160;" horiz-adv-x="1384" 
d="M723 -25q-300 0 -476 124q-178 125 -200 352h342q11 -107 94 -164q85 -58 228 -58q117 0 191 49q73 49 73 130q0 69 -49 105q-48 35 -170 56l-258 47q-202 37 -304 141q-102 103 -102 273q0 202 164 330q163 127 420 127q276 0 437 -117q160 -117 183 -332h-333
q-8 93 -83 144t-200 51q-109 0 -175 -48q-67 -49 -67 -128q0 -63 41 -98q40 -34 170 -58l279 -53q198 -34 297 -138q98 -102 98 -278q0 -205 -168 -331t-432 -126zM553 1884l162 -141l162 141h190l-207 -328h-291l-207 328h191z" />
    <glyph glyph-name="scaron" unicode="&#x161;" horiz-adv-x="1130" 
d="M582 -25q-230 0 -367 92q-138 93 -156 259h320q7 -59 61 -94q50 -33 135 -33q72 0 115 25t43 71q0 37 -30 56q-30 20 -115 36l-187 31q-158 27 -233 102q-76 76 -76 201q0 155 130 254q129 98 329 98q213 0 338 -89t143 -249h-303q-8 53 -56 85q-49 32 -118 32
q-64 0 -105 -26q-40 -25 -40 -68q0 -38 28 -57q26 -17 111 -33l203 -35q148 -23 224 -102q77 -80 77 -207q0 -156 -132 -252q-133 -97 -339 -97zM406 1507l161 -149l162 149h191l-207 -331h-291l-207 331h191z" />
    <glyph glyph-name="Tcommaaccent" unicode="&#x162;" horiz-adv-x="1515" 
d="M981 -231q0 -86 -77 -139q-76 -52 -195 -52q-55 0 -105 10q-54 11 -94 27v137q74 -27 107 -34q42 -9 88 -9q42 0 69 15t27 40q0 42 -52 54q-53 12 -110 -6l-53 49l86 139h-92v1190h-506v272h1368v-272h-508v-1190h-139l-47 -76q101 8 166 -35q67 -44 67 -120z" />
    <glyph glyph-name="tcommaaccent" unicode="&#x163;" horiz-adv-x="833" 
d="M674 -231q0 -86 -77 -139q-76 -52 -196 -52q-54 0 -104 10q-54 11 -94 27v137q74 -27 107 -34q42 -9 87 -9q43 0 70 15t27 40q0 42 -53 54q-52 12 -109 -6l-53 49l88 141q-103 29 -151 101t-48 198v508h-139v240h139v260h338v-260h227v-240h-229v-438q0 -61 27 -88
t96 -27q36 0 66 3q26 3 63 11v-254q-58 -17 -117 -25q-49 -7 -115 -7h-27q-8 0 -18 2l-39 -62q102 8 167 -35q67 -44 67 -120z" />
    <glyph glyph-name="Tcaron" unicode="&#x164;" horiz-adv-x="1515" 
d="M934 0h-354v1190h-506v272h1368v-272h-508v-1190zM596 1884l162 -141l162 141h190l-207 -328h-291l-206 328h190z" />
    <glyph glyph-name="tcaron" unicode="&#x165;" horiz-adv-x="833" 
d="M627 256q36 0 66 3q26 3 63 11v-254q-58 -17 -117 -25q-49 -7 -115 -7q-185 0 -270 76q-86 77 -86 241v508h-139v240h139v260h338v-260h227v-240h-229v-438q0 -61 27 -88t96 -27zM969 1559l-226 -408h-163l45 408h344z" />
    <glyph glyph-name="Tbar" unicode="&#x166;" horiz-adv-x="1515" 
d="M1147 870v-258h-213v-612h-354v612h-213v258h213v320h-506v272h1368v-272h-508v-320h213z" />
    <glyph glyph-name="tbar" unicode="&#x167;" horiz-adv-x="899" 
d="M793 270v-254q-58 -17 -114 -25q-49 -7 -116 -7q-187 0 -272 76q-86 77 -86 241v170h-137v215h137v141h-137v222h137v260h340v-260h227v-222h-229v-141h229v-215h-229v-100q0 -61 27 -88t96 -27q36 0 66 3q28 3 61 11z" />
    <glyph glyph-name="Utilde" unicode="&#x168;" horiz-adv-x="1566" 
d="M1436 1462v-876q0 -296 -169 -453q-170 -158 -485 -158q-314 0 -483 159q-170 159 -170 454v874h356v-864q0 -174 74 -260t223 -86q150 0 225 86q74 84 74 260v864h355zM772 1634q-55 33 -74 40q-22 9 -41 9q-33 0 -53 -29t-22 -85h-181q0 157 58 253q57 95 153 95
q40 0 76 -14q44 -17 109 -58q57 -34 73 -40q22 -9 41 -9q32 0 54 31q20 29 22 84h180q0 -159 -57 -253q-57 -95 -154 -95q-39 0 -75 14q-48 18 -109 57z" />
    <glyph glyph-name="utilde" unicode="&#x169;" horiz-adv-x="1304" 
d="M1165 1049v-1049h-340v162q-39 -86 -125 -136q-88 -51 -192 -51q-178 0 -279 106q-100 104 -100 296v672h346v-594q0 -110 40 -162q41 -53 124 -53q87 0 133 64q47 65 47 183v562h346zM639 1227q-50 32 -74 42q-23 9 -41 9q-31 0 -53 -31q-20 -29 -22 -86h-181
q0 156 58 252q57 94 153 94q40 0 76 -14q48 -18 109 -57q57 -34 73 -40q25 -10 41 -10q32 0 53 32t23 85h180q0 -159 -57 -253q-57 -95 -154 -95q-39 0 -75 14q-44 17 -109 58z" />
    <glyph glyph-name="Umacron" unicode="&#x16a;" horiz-adv-x="1566" 
d="M1436 1462v-876q0 -296 -169 -453q-170 -158 -485 -158q-314 0 -483 159q-170 159 -170 454v874h356v-864q0 -174 74 -260t223 -86q150 0 225 86q74 84 74 260v864h355zM1147 1585h-727v215h727v-215z" />
    <glyph glyph-name="umacron" unicode="&#x16b;" horiz-adv-x="1304" 
d="M1165 1049v-1049h-340v162q-39 -86 -125 -136q-88 -51 -192 -51q-178 0 -279 106q-100 104 -100 296v672h346v-594q0 -110 40 -162q41 -53 124 -53q87 0 133 64q47 65 47 183v562h346zM989 1194h-665v215h665v-215z" />
    <glyph glyph-name="Ubreve" unicode="&#x16c;" horiz-adv-x="1566" 
d="M1436 1462v-876q0 -296 -169 -453q-170 -158 -485 -158q-314 0 -483 159q-170 159 -170 454v874h356v-864q0 -174 74 -260t223 -86q150 0 225 86q74 84 74 260v864h355zM784 1552q-145 0 -231 94t-86 250h199q0 -68 31 -105q32 -38 87 -38q56 0 86 38q31 39 31 105h201
q0 -154 -86 -249t-232 -95z" />
    <glyph glyph-name="ubreve" unicode="&#x16d;" horiz-adv-x="1304" 
d="M1165 1049v-1049h-340v162q-39 -86 -125 -136q-88 -51 -192 -51q-178 0 -279 106q-100 104 -100 296v672h346v-594q0 -110 40 -162q41 -53 124 -53q87 0 133 64q47 65 47 183v562h346zM657 1165q-145 0 -231 92t-86 250h197q2 -70 33 -107q32 -38 87 -38t87 39
q32 40 32 106h199q0 -155 -86 -249q-85 -93 -232 -93z" />
    <glyph glyph-name="Uring" unicode="&#x16e;" horiz-adv-x="1566" 
d="M1436 1462v-876q0 -296 -169 -453q-170 -158 -485 -158q-314 0 -483 159q-170 159 -170 454v874h356v-864q0 -174 74 -260t223 -86q150 0 225 86q74 84 74 260v864h355zM1059 1751q0 -112 -81 -193t-196 -81q-112 0 -193 81t-81 193q0 115 81 197t193 82q115 0 196 -82
t81 -197zM907 1751q0 53 -36 89t-89 36q-51 0 -87 -37t-36 -88q0 -49 37 -86t86 -37q51 0 88 37t37 86z" />
    <glyph glyph-name="uring" unicode="&#x16f;" horiz-adv-x="1304" 
d="M1165 1049v-1049h-340v162q-39 -86 -125 -136q-88 -51 -192 -51q-178 0 -279 106q-100 104 -100 296v672h346v-594q0 -110 40 -162q41 -53 124 -53q87 0 133 64q47 65 47 183v562h346zM653 1151q-101 0 -173 72t-72 172q0 102 72 174q71 71 173 71q101 0 172 -71
q72 -72 72 -174q0 -100 -72 -172t-172 -72zM653 1288q43 0 75 32t32 75q0 42 -32 74t-75 32t-76 -31q-32 -30 -32 -75q0 -43 32 -75t76 -32z" />
    <glyph glyph-name="Uhungarumlaut" unicode="&#x170;" horiz-adv-x="1566" 
d="M1436 1462v-876q0 -296 -169 -453q-170 -158 -485 -158q-314 0 -483 159q-170 159 -170 454v874h356v-864q0 -174 74 -260t223 -86q150 0 225 86q74 84 74 260v864h355zM1061 1559h-195l107 325h323zM655 1559h-196l106 325h324z" />
    <glyph glyph-name="uhungarumlaut" unicode="&#x171;" horiz-adv-x="1304" 
d="M1165 1049v-1049h-340v162q-39 -86 -125 -136q-88 -51 -192 -51q-178 0 -279 106q-100 104 -100 296v672h346v-594q0 -110 40 -162q41 -53 124 -53q87 0 133 64q47 65 47 183v562h346zM915 1178h-194l106 329h324zM510 1178h-197l107 329h323z" />
    <glyph glyph-name="Uogonek" unicode="&#x172;" horiz-adv-x="1566" 
d="M1180 -201v-164q-37 -14 -73 -19q-38 -5 -77 -5q-94 0 -151 48q-58 49 -58 128q0 43 20 91q21 49 64 104q-28 -4 -59 -6q-20 -1 -64 -1q-314 0 -483 159q-170 159 -170 454v874h356v-864q0 -174 74 -260t223 -86q150 0 225 86q74 84 74 260v864h355v-876q0 -197 -77 -334
q-77 -138 -224 -207q-56 -46 -86 -96q-31 -53 -31 -101q0 -28 18 -45q17 -16 49 -16q16 0 42 2q14 1 53 10z" />
    <glyph glyph-name="uogonek" unicode="&#x173;" horiz-adv-x="1304" 
d="M1069 -201v-164q-37 -14 -73 -19q-38 -5 -76 -5q-95 0 -152 48t-57 128q0 48 23 95q25 52 91 134v146q-39 -86 -125 -136q-88 -51 -192 -51q-178 0 -279 106q-100 104 -100 296v672h346v-594q0 -110 40 -162q41 -53 124 -53q87 0 133 64q47 65 47 183v562h346v-1049h-174
q-49 -65 -69 -101q-15 -27 -15 -55q0 -26 19 -42q18 -15 49 -15q25 0 44 3q22 3 50 9z" />
    <glyph glyph-name="Wcircumflex" unicode="&#x174;" horiz-adv-x="2103" 
d="M1686 0h-383l-250 1042h-4l-248 -1042h-385l-398 1462h365l252 -1036h6l246 1036h348l246 -1036h4l254 1036h346zM700 1556l207 328h291l207 -328h-191l-161 142l-162 -142h-191z" />
    <glyph glyph-name="wcircumflex" unicode="&#x175;" horiz-adv-x="1751" 
d="M725 1049h307l172 -705h4l185 705h331l-325 -1049h-344l-176 680h-5l-178 -680h-344l-325 1049h340l184 -705h6zM524 1176l207 331h291l207 -331h-191l-161 149l-162 -149h-191z" />
    <glyph glyph-name="Ycircumflex" unicode="&#x176;" horiz-adv-x="1521" 
d="M938 596v-596h-356v596l-572 866h396l360 -559h4l356 559h385zM410 1556l206 328h291l207 -328h-190l-162 142l-162 -142h-190z" />
    <glyph glyph-name="ycircumflex" unicode="&#x177;" horiz-adv-x="1234" 
d="M227 -125q91 0 131 29t68 106l-399 1039h344l254 -734h4l243 734h336l-397 -1055q-77 -200 -194 -287q-118 -88 -310 -88q-41 0 -77 3q-42 3 -64 7v250q15 -1 28 -3q8 -1 33 -1zM291 1176l207 331h290l207 -331h-190l-162 149l-162 -149h-190z" />
    <glyph glyph-name="Ydieresis" unicode="&#x178;" horiz-adv-x="1521" 
d="M938 596v-596h-356v596l-572 866h396l360 -559h4l356 559h385zM1133 1569h-302v297h302v-297zM692 1569h-301v297h301v-297z" />
    <glyph glyph-name="Zacute" unicode="&#x179;" horiz-adv-x="1411" 
d="M1311 1462v-262l-793 -926h809v-274h-1243v250l797 940h-772v272h1202zM1034 1884l-252 -325h-213l103 325h362z" />
    <glyph glyph-name="zacute" unicode="&#x17a;" horiz-adv-x="1122" 
d="M1016 1049v-232l-512 -569h532v-248h-948v223l512 580h-500v246h916zM901 1507l-250 -329h-229l104 329h375z" />
    <glyph glyph-name="Zdotaccent" unicode="&#x17b;" horiz-adv-x="1411" 
d="M1311 1462v-262l-793 -926h809v-274h-1243v250l797 940h-772v272h1202zM881 1569h-353v297h353v-297z" />
    <glyph glyph-name="zdotaccent" unicode="&#x17c;" horiz-adv-x="1122" 
d="M1016 1049v-232l-512 -569h532v-248h-948v223l512 580h-500v246h916zM741 1194h-352v297h352v-297z" />
    <glyph glyph-name="Zcaron" unicode="&#x17d;" horiz-adv-x="1411" 
d="M1311 1462v-262l-793 -926h809v-274h-1243v250l797 940h-772v272h1202zM557 1884l162 -141l162 141h190l-207 -328h-291l-206 328h190z" />
    <glyph glyph-name="zcaron" unicode="&#x17e;" horiz-adv-x="1122" 
d="M1016 1049v-232l-512 -569h532v-248h-948v223l512 580h-500v246h916zM403 1507l162 -149l162 149h191l-207 -331h-291l-207 331h190z" />
    <glyph glyph-name="florin" unicode="&#x192;" horiz-adv-x="1050" 
d="M850 829v-260h-246l-139 -792h-330l141 792h-155v260h203l55 310q34 190 150 292q114 101 298 101q45 0 88 -6q40 -6 72 -19v-307q-23 9 -52 14q-27 5 -63 5q-81 0 -124 -43q-44 -44 -62 -138l-37 -209h201z" />
    <glyph glyph-name="AEacute" unicode="&#x1fc;" horiz-adv-x="2328" 
d="M2220 0h-1120v330h-537l-196 -330h-357l877 1462h1319v-272h-758v-320h668v-272h-668v-324h772v-274zM1100 602v627l-375 -627h375zM1903 1884l-252 -325h-213l102 325h363z" />
    <glyph glyph-name="aeacute" unicode="&#x1fd;" horiz-adv-x="1869" 
d="M1477 344h315q-33 -171 -169 -270q-137 -99 -339 -99q-117 0 -222 45q-103 44 -181 125q-78 -86 -178 -128q-99 -42 -222 -42q-192 0 -302 85q-111 86 -111 235q0 163 131 246q130 82 393 82h160v57q0 72 -41 111q-39 38 -115 38q-69 0 -110 -35q-41 -36 -46 -98h-327
q17 177 145 277t338 100q108 0 198 -31q87 -30 144 -90q72 60 160 90q91 31 182 31q238 0 377 -147q139 -146 139 -385v-88h-735q12 -115 68 -174q57 -60 155 -60q73 0 122 32t71 93zM1280 836q-87 0 -142 -55t-73 -158h414q0 92 -55 153q-54 60 -144 60zM403 326
q0 -55 38 -87t104 -32q93 0 150 51t57 141v54h-177q-81 0 -126 -33q-46 -34 -46 -94zM1288 1507l-250 -329h-229l104 329h375z" />
    <glyph glyph-name="Oslashacute" unicode="&#x1fe;" horiz-adv-x="1595" 
d="M1526 731q0 -338 -200 -547t-527 -209q-114 0 -221 29q-106 29 -191 84l-127 -149l-145 114l131 158q-88 102 -130 231q-44 135 -44 289q0 339 198 548q198 208 529 208q120 0 228 -30q111 -31 194 -89l114 135l148 -112l-125 -148q81 -97 125 -229q43 -129 43 -283z
M799 1214q-178 0 -272 -125q-95 -127 -95 -358q0 -79 10 -139q10 -62 29 -115l555 660q-43 38 -100 58q-56 19 -127 19zM799 248q176 0 271 126q95 127 95 357q0 64 -8 128q-7 55 -27 114l-550 -656q44 -34 99 -52q51 -17 120 -17zM1151 1884l-252 -325h-213l102 325h363z
" />
    <glyph glyph-name="oslashacute" unicode="&#x1ff;" horiz-adv-x="1261" 
d="M1188 524q0 -249 -153 -399t-404 -150q-90 0 -171 21q-83 22 -149 61l-116 -125l-115 115l108 117q-56 68 -87 162q-29 88 -29 198q0 251 152 400t407 149q96 0 177 -22q82 -23 150 -66l107 115l115 -117l-101 -109q55 -73 81 -157q28 -92 28 -193zM631 842
q-109 0 -169 -84q-61 -85 -61 -234q0 -32 3 -62q2 -22 10 -59l360 385q-28 26 -64 40q-37 14 -79 14zM631 207q109 0 169 84t60 233q0 28 -3 55q-4 36 -7 54l-354 -379q29 -24 60 -35q34 -12 75 -12zM981 1507l-250 -329h-229l104 329h375z" />
    <glyph glyph-name="Scommaaccent" unicode="&#x218;" horiz-adv-x="1384" 
d="M723 -25q-300 0 -476 124q-178 125 -200 352h342q11 -107 94 -164q85 -58 228 -58q117 0 191 49q73 49 73 130q0 69 -49 105q-48 35 -170 56l-258 47q-202 37 -304 141q-102 103 -102 273q0 202 164 330q163 127 420 127q276 0 437 -117q160 -117 183 -332h-333
q-8 93 -83 144t-200 51q-109 0 -175 -48q-67 -49 -67 -128q0 -63 41 -98q40 -34 170 -58l279 -53q198 -34 297 -138q98 -102 98 -278q0 -205 -168 -331t-432 -126zM668 -283h-113v191h315v-111q0 -148 -77 -218q-79 -71 -240 -71v115q59 0 87 23t28 71z" />
    <glyph glyph-name="scommaaccent" unicode="&#x219;" horiz-adv-x="1130" 
d="M582 -25q-230 0 -367 92q-138 93 -156 259h320q7 -59 61 -94q50 -33 135 -33q72 0 115 25t43 71q0 37 -30 56q-30 20 -115 36l-187 31q-158 27 -233 102q-76 76 -76 201q0 155 130 254q129 98 329 98q213 0 338 -89t143 -249h-303q-8 53 -56 85q-49 32 -118 32
q-64 0 -105 -26q-40 -25 -40 -68q0 -38 28 -57q26 -17 111 -33l203 -35q148 -23 224 -102q77 -80 77 -207q0 -156 -132 -252q-133 -97 -339 -97zM551 -283h-113v191h316v-111q0 -147 -78 -218q-79 -71 -240 -71v115q59 0 87 23t28 71z" />
    <glyph glyph-name="uni021A" unicode="&#x21a;" horiz-adv-x="1515" 
d="M934 0h-354v1190h-506v272h1368v-272h-508v-1190zM725 -283h-113v191h316v-111q0 -147 -78 -218q-79 -71 -240 -71v115q59 0 87 23t28 71z" />
    <glyph glyph-name="uni021B" unicode="&#x21b;" horiz-adv-x="833" 
d="M627 256q36 0 66 3q26 3 63 11v-254q-58 -17 -117 -25q-49 -7 -115 -7q-185 0 -270 76q-86 77 -86 241v508h-139v240h139v260h338v-260h227v-240h-229v-438q0 -61 27 -88t96 -27zM414 -283h-113v191h315v-111q0 -148 -77 -218q-79 -71 -240 -71v115q59 0 87 23t28 71z
" />
    <glyph glyph-name="uni0237" unicode="&#x237;" horiz-adv-x="624" 
d="M104 -379q-38 0 -72 3t-75 9v248q5 0 17 -1.5t18 -2.5q24 -2 35 -2q60 0 88 26q26 25 26 87v1061h342v-1076q0 -175 -96 -263q-97 -89 -283 -89z" />
    <glyph glyph-name="circumflex" unicode="&#x2c6;" 
d="M225 1176l207 331h291l207 -331h-191l-161 149l-162 -149h-191z" />
    <glyph glyph-name="caron" unicode="&#x2c7;" 
d="M416 1507l162 -149l161 149h191l-207 -331h-291l-207 331h191z" />
    <glyph glyph-name="breve" unicode="&#x2d8;" 
d="M563 1165q-145 0 -231 92t-86 250h196q1 -68 34 -107q32 -38 87 -38t87 39q32 40 32 106h199q0 -155 -86 -249q-85 -93 -232 -93z" />
    <glyph glyph-name="dotaccent" unicode="&#x2d9;" 
d="M754 1194h-353v297h353v-297z" />
    <glyph glyph-name="ring" unicode="&#x2da;" 
d="M580 1151q-101 0 -173 72q-73 73 -73 172q0 101 73 174q71 71 173 71q101 0 172 -71t71 -174q0 -101 -71 -172q-72 -72 -172 -72zM580 1288q42 0 74 32t32 75q0 42 -32 74t-74 32q-44 0 -77 -31q-32 -30 -32 -75q0 -43 32 -75t77 -32z" />
    <glyph glyph-name="ogonek" unicode="&#x2db;" 
d="M645 -389q-94 0 -151 48q-58 49 -58 128q0 49 27 103q28 55 115 159h178q-87 -110 -106 -144q-17 -30 -17 -61q0 -27 18 -42t49 -15q24 0 44 3q26 4 51 9v-164q-37 -14 -73 -19q-38 -5 -77 -5z" />
    <glyph glyph-name="tilde" unicode="&#x2dc;" 
d="M582 1227q-50 32 -74 42q-22 9 -41 9q-31 0 -53 -31t-23 -86h-180q0 157 57 252q57 94 154 94q40 0 76 -14q45 -17 108 -57q55 -32 74 -40q25 -10 41 -10q32 0 53 32t23 85h180q0 -159 -57 -253q-57 -95 -154 -95q-40 0 -76 14q-41 16 -108 58z" />
    <glyph glyph-name="hungarumlaut" unicode="&#x2dd;" 
d="M760 1178h-195l107 329h323zM354 1178h-196l106 329h324z" />
    <glyph glyph-name="Wgrave" unicode="&#x1e80;" horiz-adv-x="2103" 
d="M1686 0h-383l-250 1042h-4l-248 -1042h-385l-398 1462h365l252 -1036h6l246 1036h348l246 -1036h4l254 1036h346zM1069 1884l102 -325h-213l-251 325h362z" />
    <glyph glyph-name="wgrave" unicode="&#x1e81;" horiz-adv-x="1751" 
d="M725 1049h307l172 -705h4l185 705h331l-325 -1049h-344l-176 680h-5l-178 -680h-344l-325 1049h340l184 -705h6zM899 1507l105 -329h-230l-250 329h375z" />
    <glyph glyph-name="Wacute" unicode="&#x1e82;" horiz-adv-x="2103" 
d="M1686 0h-383l-250 1042h-4l-248 -1042h-385l-398 1462h365l252 -1036h6l246 1036h348l246 -1036h4l254 1036h346zM1434 1884l-252 -325h-213l102 325h363z" />
    <glyph glyph-name="wacute" unicode="&#x1e83;" horiz-adv-x="1751" 
d="M725 1049h307l172 -705h4l185 705h331l-325 -1049h-344l-176 680h-5l-178 -680h-344l-325 1049h340l184 -705h6zM1241 1507l-250 -329h-229l104 329h375z" />
    <glyph glyph-name="Wdieresis" unicode="&#x1e84;" horiz-adv-x="2103" 
d="M1686 0h-383l-250 1042h-4l-248 -1042h-385l-398 1462h365l252 -1036h6l246 1036h348l246 -1036h4l254 1036h346zM1423 1569h-301v297h301v-297zM983 1569h-301v297h301v-297z" />
    <glyph glyph-name="wdieresis" unicode="&#x1e85;" horiz-adv-x="1751" 
d="M725 1049h307l172 -705h4l185 705h331l-325 -1049h-344l-176 680h-5l-178 -680h-344l-325 1049h340l184 -705h6zM1247 1194h-301v297h301v-297zM807 1194h-301v297h301v-297z" />
    <glyph glyph-name="Ygrave" unicode="&#x1ef2;" horiz-adv-x="1521" 
d="M938 596v-596h-356v596l-572 866h396l360 -559h4l356 559h385zM795 1884l102 -325h-213l-252 325h363z" />
    <glyph glyph-name="ygrave" unicode="&#x1ef3;" horiz-adv-x="1234" 
d="M227 -125q91 0 131 29t68 106l-399 1039h344l254 -734h4l243 734h336l-397 -1055q-77 -200 -194 -287q-118 -88 -310 -88q-41 0 -77 3q-42 3 -64 7v250q15 -1 28 -3q8 -1 33 -1zM662 1507l104 -329h-229l-250 329h375z" />
    <glyph glyph-name="endash" unicode="&#x2013;" horiz-adv-x="1386" 
d="M1208 467h-1030v244h1030v-244z" />
    <glyph glyph-name="emdash" unicode="&#x2014;" horiz-adv-x="2054" 
d="M1876 467h-1698v244h1698v-244z" />
    <glyph glyph-name="quoteleft" unicode="&#x2018;" horiz-adv-x="710" 
d="M365 1157h178v-328h-379v345q0 170 104 261t297 91v-174q-106 -1 -154 -43q-46 -40 -46 -131v-21z" />
    <glyph glyph-name="quoteright" unicode="&#x2019;" horiz-adv-x="710" 
d="M346 1180h-178v327h379v-344q0 -169 -105 -261q-104 -91 -297 -91v174q107 1 155 43q46 40 46 131v21z" />
    <glyph glyph-name="quotesinglbase" unicode="&#x201a;" horiz-adv-x="710" 
d="M346 39h-178v328h379v-344q0 -170 -105 -262q-104 -91 -297 -91v174q107 1 155 43q46 40 46 131v21z" />
    <glyph glyph-name="quotedblleft" unicode="&#x201c;" horiz-adv-x="1232" 
d="M887 1157h178v-328h-379v345q0 170 105 261q104 91 296 91v-174q-106 -1 -154 -43q-46 -40 -46 -131v-21zM365 1157h178v-328h-379v345q0 170 104 261t297 91v-174q-106 -1 -154 -43q-46 -40 -46 -131v-21z" />
    <glyph glyph-name="quotedblright" unicode="&#x201d;" horiz-adv-x="1232" 
d="M346 1180h-178v327h379v-344q0 -169 -105 -261q-104 -91 -297 -91v174q107 1 155 43q46 40 46 131v21zM868 1180h-178v327h379v-344q0 -170 -104 -261t-297 -91v174q106 1 154 43q46 40 46 131v21z" />
    <glyph glyph-name="quotedblbase" unicode="&#x201e;" horiz-adv-x="1232" 
d="M346 39h-178v328h379v-344q0 -170 -105 -262q-104 -91 -297 -91v174q107 1 155 43q46 40 46 131v21zM868 39h-178v328h379v-344q0 -171 -104 -262t-297 -91v174q106 1 154 43q46 40 46 131v21z" />
    <glyph glyph-name="dagger" unicode="&#x2020;" horiz-adv-x="825" 
d="M756 1270v-185h-248v-438h-193v438h-245v185h245v217h193v-217h248z" />
    <glyph glyph-name="daggerdbl" unicode="&#x2021;" horiz-adv-x="825" 
d="M756 993v-176h-248v-170h-193v170h-245v176h245v150h-245v178h245v166h193v-166h248v-178h-248v-150h248z" />
    <glyph glyph-name="bullet" unicode="&#x2022;" horiz-adv-x="1064" 
d="M535 279q-147 0 -251 104q-106 106 -106 250q0 143 106 247q104 103 251 103q145 0 248 -102q104 -102 104 -248q0 -144 -104 -250q-103 -104 -248 -104z" />
    <glyph glyph-name="ellipsis" unicode="&#x2026;" horiz-adv-x="1812" 
d="M1649 0h-379v379h379v-379zM1096 0h-379v379h379v-379zM543 0h-379v379h379v-379z" />
    <glyph glyph-name="guilsinglleft" unicode="&#x2039;" horiz-adv-x="729" 
d="M406 520l223 -432h-236l-293 432l293 432h236z" />
    <glyph glyph-name="guilsinglright" unicode="&#x203a;" horiz-adv-x="729" 
d="M100 950h236l293 -432l-293 -432h-236l224 432z" />
    <glyph glyph-name="fraction" unicode="&#x2044;" horiz-adv-x="376" 
d="M819 1489l-1057 -1514h-204l1054 1514h207z" />
    <glyph glyph-name="uni2070" unicode="&#x2070;" horiz-adv-x="899" 
d="M823 1061q0 -185 -102 -300q-102 -116 -270 -116t-272 116q-103 115 -103 300q0 187 103 302q104 116 272 116t270 -116q102 -115 102 -302zM305 1061q0 -126 37 -188t109 -62t107 62q36 63 36 188t-36 188q-37 64 -107 64q-73 0 -110 -64q-36 -63 -36 -188z" />
    <glyph glyph-name="uni2074" unicode="&#x2074;" horiz-adv-x="876" 
d="M434 1462h232v-487h149v-152h-149v-161h-207v161h-398v152zM459 975v289l-215 -289h215z" />
    <glyph glyph-name="uni2075" unicode="&#x2075;" horiz-adv-x="806" 
d="M512 928q0 56 -28 89q-27 32 -79 32q-34 0 -60 -14q-24 -13 -40 -38h-205l45 465h531v-172h-373l-16 -145q30 27 74 42t94 15q123 0 200 -75q76 -75 76 -197q0 -125 -89 -205t-234 -80q-149 0 -240 71q-90 70 -102 195h229q4 -45 34 -73q31 -29 74 -29q49 0 79 33t30 86z
" />
    <glyph glyph-name="uni2076" unicode="&#x2076;" horiz-adv-x="817" 
d="M428 1311q-63 0 -104 -55t-41 -138q31 40 74 58t100 18q125 0 207 -76q81 -75 81 -192q0 -122 -90 -202q-89 -79 -231 -79q-160 0 -255 110t-95 292q0 195 100 313q101 119 260 119q120 0 203 -66q81 -65 96 -172h-203q-11 35 -35 52q-25 18 -67 18zM301 924
q0 -53 34 -87t87 -34q51 0 84 34q33 35 33 87t-33 87q-32 33 -84 33q-54 0 -87 -33q-34 -34 -34 -87z" />
    <glyph glyph-name="uni2077" unicode="&#x2077;" horiz-adv-x="751" 
d="M469 1292h-403v170h618v-178q-126 -155 -175 -290q-51 -139 -52 -332h-234q1 162 62 316q60 152 184 314z" />
    <glyph glyph-name="uni2078" unicode="&#x2078;" horiz-adv-x="823" 
d="M752 883q0 -107 -93 -173q-92 -65 -247 -65q-156 0 -248 65t-92 173q0 65 44 118t103 68q-53 28 -82 73q-31 48 -31 101q0 107 84 171q85 65 222 65q136 0 222 -65q85 -64 85 -171q0 -53 -31 -101q-29 -45 -82 -73q59 -16 102 -69q44 -55 44 -117zM522 1235q0 45 -29 68
q-30 24 -81 24q-52 0 -80 -24q-29 -24 -29 -68t29 -68q28 -24 80 -24q51 0 81 24q29 23 29 68zM543 897q0 48 -34 73t-97 25q-62 0 -96 -25q-33 -24 -33 -73q0 -47 33 -71q34 -25 96 -25q63 0 97 25t34 71z" />
    <glyph glyph-name="uni2079" unicode="&#x2079;" horiz-adv-x="817" 
d="M391 811q65 0 106 56q42 57 42 139q-35 -39 -79 -59q-42 -19 -100 -19q-122 0 -204 78t-82 194q0 121 91 200t232 79q158 0 253 -110t95 -292q0 -193 -100 -312q-101 -120 -262 -120q-119 0 -200 66t-99 172h205q11 -37 37 -54q27 -18 65 -18zM518 1200q0 53 -33 86
t-88 33q-51 0 -84 -33q-32 -32 -32 -86t32 -87q33 -34 84 -34q55 0 88 33t33 88z" />
    <glyph glyph-name="uni2080" unicode="&#x2080;" horiz-adv-x="899" 
d="M823 115q0 -185 -102 -300q-102 -116 -270 -116t-272 116q-103 115 -103 300q0 187 103 302t272 115q168 0 270 -115t102 -302zM305 115q0 -126 37 -188t109 -62t107 62q36 63 36 188t-36 188q-37 64 -107 64q-73 0 -110 -64q-36 -63 -36 -188z" />
    <glyph glyph-name="uni2081" unicode="&#x2081;" horiz-adv-x="731" 
d="M483 -139h183v-148h-584v148h190v397h-192v139q122 0 171 24q50 24 66 95h166v-655z" />
    <glyph glyph-name="uni2082" unicode="&#x2082;" horiz-adv-x="780" 
d="M403 530q136 0 221 -70t85 -186q0 -80 -49 -140q-47 -57 -199 -134q-78 -39 -113 -68t-39 -55h402v-164h-641v76q0 95 59 173q60 80 199 159q114 61 143 92q27 29 27 66q0 38 -26 62t-71 24q-49 0 -79 -33q-32 -35 -33 -84h-215q10 127 99 205q87 77 230 77z" />
    <glyph glyph-name="uni2083" unicode="&#x2083;" horiz-adv-x="786" 
d="M559 115q76 -15 118 -63t42 -120q0 -102 -89 -168q-87 -65 -233 -65q-145 0 -237 71q-93 71 -103 189h213q1 -43 38 -69q35 -25 89 -25q53 0 82 23q31 25 31 63q0 42 -29 63t-90 21h-76v158h74q53 0 79 22q28 23 28 64q0 39 -27 63q-28 25 -70 25q-45 0 -75 -27
q-31 -27 -35 -72h-207q8 116 96 189t225 73t217 -67t80 -174q0 -68 -38 -113q-38 -46 -103 -61z" />
    <glyph glyph-name="uni2084" unicode="&#x2084;" horiz-adv-x="876" 
d="M434 514h232v-487h149v-152h-149v-162h-207v162h-398v152zM459 27v288l-215 -288h215z" />
    <glyph glyph-name="uni2085" unicode="&#x2085;" horiz-adv-x="806" 
d="M512 -18q0 56 -28 89q-27 31 -79 31q-35 0 -60 -13q-24 -13 -40 -38h-205l45 465h531v-172h-373l-16 -145q30 27 74 42q43 15 94 15q123 0 200 -75q76 -75 76 -197q0 -125 -89 -205t-234 -80q-149 0 -240 71q-90 70 -102 195h229q5 -46 34 -74t74 -28q49 0 79 33t30 86z
" />
    <glyph glyph-name="uni2086" unicode="&#x2086;" horiz-adv-x="817" 
d="M428 365q-63 0 -104 -55t-41 -138q30 39 74 57q46 19 100 19q125 0 207 -76q81 -75 81 -192q0 -122 -90 -202q-89 -79 -231 -79q-160 0 -255 110t-95 291q0 196 100 314t260 118q122 0 203 -65t96 -172h-203q-11 35 -35 52q-25 18 -67 18zM301 -23q0 -53 34 -87
q33 -33 87 -33q52 0 84 33q33 34 33 87q0 54 -33 88q-32 33 -84 33q-54 0 -87 -33q-34 -34 -34 -88z" />
    <glyph glyph-name="uni2087" unicode="&#x2087;" horiz-adv-x="751" 
d="M469 344h-403v170h618v-178q-126 -155 -175 -290q-51 -139 -52 -333h-234q1 163 62 317q60 152 184 314z" />
    <glyph glyph-name="uni2088" unicode="&#x2088;" horiz-adv-x="823" 
d="M752 -63q0 -108 -93 -174q-91 -64 -247 -64q-157 0 -248 64q-92 65 -92 174q0 65 44 118t103 68q-53 28 -82 73q-31 48 -31 101q0 107 84 171q83 64 222 64q137 0 222 -64t85 -171q0 -53 -31 -101q-29 -45 -82 -73q59 -16 102 -69q44 -55 44 -117zM522 289q0 44 -29 67
q-31 25 -81 25t-80 -25q-29 -24 -29 -67q0 -44 29 -68q28 -24 80 -24q51 0 81 24q29 23 29 68zM543 -49q0 48 -34 73t-97 25q-62 0 -96 -25q-33 -24 -33 -73q0 -47 33 -71q34 -25 96 -25q63 0 97 25t34 71z" />
    <glyph glyph-name="uni2089" unicode="&#x2089;" horiz-adv-x="817" 
d="M391 -135q65 0 106 56q42 57 42 138q-33 -37 -79 -58q-42 -19 -100 -19q-123 0 -204 77q-82 78 -82 195q0 121 91 200q90 78 232 78q159 0 253 -109q95 -110 95 -292q0 -193 -100 -312q-101 -120 -262 -120q-120 0 -200 65q-81 66 -99 173h205q11 -37 37 -54
q27 -18 65 -18zM518 254q0 53 -33 86t-88 33q-51 0 -84 -33q-32 -32 -32 -86t32 -87q33 -34 84 -34q55 0 88 33t33 88z" />
    <glyph glyph-name="Euro" unicode="&#x20ac;" horiz-adv-x="1480" 
d="M1096 489h319q-40 -245 -188 -379q-149 -135 -381 -135q-228 0 -390 136q-160 135 -220 376h-158v189h133q-2 14 -2 21v36v38q0 10 2 24h-133v186h160q61 239 220 372q161 134 388 134q235 0 381 -133q148 -134 188 -379h-319q-21 120 -81 180q-59 59 -165 59
q-98 0 -170 -60t-107 -173h349l-23 -186h-356q-2 -14 -2 -24v-38v-36q0 -7 2 -21h338l-23 -189h-285q34 -115 106 -178q70 -61 171 -61q104 0 166 60q62 61 80 181z" />
    <glyph glyph-name="trademark" unicode="&#x2122;" horiz-adv-x="1882" 
d="M514 1288v-506h-199v506h-225v174h653v-174h-229zM1452 1264l-133 -482h-139l-136 482h-4v-482h-184v680h297l104 -432h7l118 432h271v-680h-197v482h-4z" />
    <glyph glyph-name="uni2153" unicode="&#x2153;" horiz-adv-x="1875" 
d="M1567 1489l-1057 -1514h-205l1055 1514h207zM500 807h182v-148h-584v148h191v397h-193v139q122 0 171 24q51 25 67 95h166v-655zM1636 401q77 -15 118 -62q42 -48 42 -120q0 -102 -89 -168q-87 -65 -232 -65q-147 0 -238 70t-102 190h213q2 -44 37 -69t90 -25q52 0 81 23
q31 25 31 63q0 42 -28 63q-29 21 -91 21h-75v157h73q51 0 79 23t28 63t-27 64t-69 24q-47 0 -76 -26q-31 -27 -35 -72h-207q8 115 96 188q89 74 226 74q136 0 216 -67q81 -68 81 -175q0 -66 -39 -112q-39 -47 -103 -62z" />
    <glyph glyph-name="uni2154" unicode="&#x2154;" horiz-adv-x="1929" 
d="M1620 1489l-1057 -1514h-205l1055 1514h207zM1690 401q76 -15 117 -62q42 -48 42 -120q0 -102 -89 -168q-87 -65 -232 -65q-147 0 -238 70t-102 190h213q1 -43 38 -69q35 -25 89 -25q53 0 82 23q30 24 30 63q0 42 -28 63t-90 21h-76v157h74q50 0 78 23t28 63t-27 64
t-69 24q-47 0 -76 -26q-31 -27 -35 -72h-207q7 114 97 188q89 74 225 74t216 -67q81 -68 81 -175q0 -66 -39 -112q-40 -47 -102 -62zM420 1477q134 0 220 -71q85 -70 85 -185q0 -83 -48 -141q-46 -56 -200 -134q-78 -39 -112 -67t-39 -56h401v-164h-641v76q0 95 59 173
q60 80 199 159q114 61 143 92q27 29 27 66q0 38 -26 62t-70 24q-50 0 -80 -33q-32 -35 -33 -84h-215q10 127 99 205q88 78 231 78z" />
    <glyph glyph-name="uni215B" unicode="&#x215b;" horiz-adv-x="1906" 
d="M1829 223q0 -108 -92 -173q-91 -64 -248 -64t-248 64q-92 65 -92 173q0 66 44 119t103 68q-54 29 -82 72q-30 46 -30 102q0 106 84 171q83 64 221 64q137 0 222 -64t85 -171q0 -54 -31 -102q-28 -43 -82 -72q59 -16 102 -69q44 -55 44 -118zM1599 575q0 45 -29 68
q-31 25 -81 25t-80 -25q-29 -24 -29 -68q0 -43 29 -67q30 -25 80 -25t81 25q29 23 29 67zM1620 238q0 47 -34 72q-35 26 -97 26q-60 0 -95 -26q-34 -25 -34 -72q0 -46 34 -71q35 -26 95 -26q62 0 97 26q34 25 34 71zM1567 1489l-1057 -1514h-205l1055 1514h207zM500 807h182
v-148h-584v148h191v397h-193v139q122 0 171 24q51 25 67 95h166v-655z" />
    <glyph glyph-name="uni215C" unicode="&#x215c;" horiz-adv-x="1931" 
d="M1851 223q0 -108 -92 -173q-91 -64 -248 -64q-156 0 -247 64q-93 66 -93 173q0 66 44 119t104 68q-54 29 -82 72q-31 48 -31 102q0 106 84 171q83 64 221 64t223 -64t85 -171q0 -54 -31 -102q-28 -43 -82 -72q58 -15 101 -69q44 -55 44 -118zM1622 575q0 44 -30 68
q-31 25 -81 25q-49 0 -79 -25q-29 -24 -29 -68q0 -43 29 -67q30 -25 79 -25q50 0 81 25q30 24 30 67zM1642 238q0 48 -33 72q-35 26 -98 26q-60 0 -95 -26q-34 -25 -34 -72q0 -46 34 -71q35 -26 95 -26q63 0 98 26q33 24 33 71zM1589 1489l-1057 -1514h-204l1054 1514h207z
M575 1061q76 -15 118 -63t42 -119q0 -102 -89 -168q-88 -66 -232 -66q-146 0 -238 71q-92 70 -102 189h213q1 -42 38 -68t89 -26t82 24t30 62q0 43 -28 64q-27 20 -90 20h-76v158h74q52 0 78 22q28 23 28 64q0 39 -27 63q-28 25 -69 25q-46 0 -76 -27q-31 -27 -35 -72h-207
q8 115 97 189t225 74q134 0 216 -68q81 -67 81 -174q0 -67 -39 -113q-38 -46 -103 -61z" />
    <glyph glyph-name="uni215D" unicode="&#x215d;" horiz-adv-x="1916" 
d="M1577 1489l-1057 -1514h-205l1055 1514h207zM1839 223q0 -108 -92 -173q-91 -64 -248 -64t-248 64q-92 65 -92 173q0 66 44 119t104 68q-54 29 -82 72q-31 48 -31 102q0 106 84 171q83 64 221 64q137 0 222 -64t85 -171q0 -56 -30 -102q-28 -43 -82 -72q58 -15 101 -69
q44 -55 44 -118zM1610 575q0 44 -30 68q-31 25 -81 25t-80 -25q-28 -24 -28 -68q0 -43 28 -67q30 -25 80 -25t81 25q30 24 30 67zM1630 238q0 47 -34 72q-35 26 -97 26q-60 0 -95 -26q-34 -25 -34 -72q0 -46 34 -71q35 -26 95 -26q62 0 97 26q34 25 34 71zM528 928
q0 58 -27 89q-27 32 -79 32q-35 0 -61 -14q-23 -12 -39 -38h-205l45 465h530v-172h-373l-16 -145q29 26 75 42q44 15 93 15q125 0 201 -75t76 -197q0 -124 -90 -205q-89 -80 -234 -80q-149 0 -240 71q-90 70 -102 195h229q4 -45 34 -73q31 -29 75 -29q49 0 79 33
q29 32 29 86z" />
    <glyph glyph-name="uni215E" unicode="&#x215e;" horiz-adv-x="1783" 
d="M1706 223q0 -108 -92 -173q-91 -64 -248 -64t-248 64q-92 65 -92 173q0 66 44 119t104 68q-54 29 -82 72q-31 48 -31 102q0 106 84 171q83 64 221 64q137 0 222 -64t85 -171q0 -54 -31 -102q-29 -44 -81 -72q58 -15 101 -69q44 -55 44 -118zM1477 575q0 44 -30 68
q-31 25 -81 25t-80 -25q-29 -24 -29 -68q0 -43 29 -67q30 -25 80 -25t81 25q30 24 30 67zM1497 238q0 47 -34 72q-35 26 -97 26q-60 0 -95 -26q-34 -25 -34 -72q0 -46 34 -71q35 -26 95 -26q62 0 97 26q34 25 34 71zM1444 1489l-1057 -1514h-205l1055 1514h207zM485 1292
h-403v170h618v-178q-126 -155 -175 -290q-51 -139 -52 -332h-233q2 164 61 316q60 152 184 314z" />
    <glyph glyph-name="minus" unicode="&#x2212;" horiz-adv-x="1351" 
d="M1223 559h-1096v244h1096v-244z" />
    <glyph glyph-name="commaaccent" unicode="&#xf6c3;" 
d="M545 -283h-113v191h316v-111q0 -147 -78 -218q-79 -71 -240 -71v115q59 0 87 23t28 71z" />
    <glyph glyph-name="idotaccent" horiz-adv-x="624" 
d="M141 0v1049h342v-1049h-342zM489 1194h-352v297h352v-297z" />
    <glyph glyph-name="a.ord" horiz-adv-x="858" 
d="M526 748q-28 -59 -83 -88t-136 -29q-112 0 -177 56q-67 58 -67 151q0 92 63 142q62 49 200 64l188 19v33q0 42 -25 65t-67 23q-41 0 -66 -23q-24 -22 -28 -59h-236q10 120 99 189q88 69 237 69q162 0 245 -75t83 -222v-207q0 -72 3 -118t9 -91h-236q-3 19 -5 55
q-1 15 -1 46zM385 784q54 0 92 35q37 34 37 92v37l-113 -16q-46 -6 -71 -26t-25 -52t22 -51t58 -19z" />
    <glyph glyph-name="b.ord" horiz-adv-x="933" 
d="M565 629q-68 0 -125 33t-84 88v-103h-245v993h247v-397q28 55 83 85q58 32 124 32q136 0 218 -100q83 -101 83 -265t-82 -265t-219 -101zM485 1184q-61 0 -96 -47t-35 -127v-31q0 -81 35 -128q34 -46 96 -46q64 0 99 50q34 49 34 140t-34 140t-99 49z" />
    <glyph glyph-name="c.ord" horiz-adv-x="831" 
d="M438 631q-166 0 -269 100t-103 264q0 165 103 265t269 100q144 0 233 -74t101 -203h-235q-5 45 -31 71q-28 28 -68 28q-60 0 -91 -49q-32 -50 -32 -138q0 -87 32 -137q31 -49 91 -49q40 0 68 28q26 27 31 70h235q-12 -128 -101 -202t-233 -74z" />
    <glyph glyph-name="d.ord" horiz-adv-x="933" 
d="M369 629q-137 0 -219 101t-82 265t83 265q82 100 218 100q66 0 124 -32q53 -30 82 -85v397h248v-993h-245v103q-27 -55 -84 -88t-125 -33zM449 1184q-65 0 -99 -49q-35 -50 -35 -140t35 -140t99 -50q62 0 96 46q35 47 35 128v31q0 80 -35 127t-96 47z" />
    <glyph glyph-name="e.ord" horiz-adv-x="851" 
d="M555 879h229q-23 -117 -113 -182q-91 -66 -231 -66q-166 0 -270 100t-104 264q0 165 104 265t268 100q160 0 254 -98t94 -258v-50h-483q6 -73 41 -111t96 -38q45 0 75 18q29 18 40 56zM438 1188q-55 0 -88 -33q-32 -32 -43 -96h250q-1 56 -34 93q-31 36 -85 36z" />
    <glyph glyph-name="f.ord" horiz-adv-x="552" 
d="M131 647v522h-90v174h90v60q0 120 67 184t193 64q22 0 60 -2q13 -1 67 -9v-182q-31 1 -44 3q-8 1 -21 1q-40 0 -57 -17t-17 -54v-48h133v-174h-133v-522h-248z" />
    <glyph glyph-name="g.ord" horiz-adv-x="935" 
d="M444 553q66 0 101 36q35 37 35 105v101q-27 -55 -82 -88q-56 -33 -125 -33q-137 0 -221 95t-84 249t84 248t221 94q71 0 127 -33t84 -88v102h245v-608q0 -167 -100 -255q-101 -89 -285 -89q-152 0 -250 62q-97 61 -114 170h244q10 -33 42 -51q30 -17 78 -17zM451 846
q61 0 97 42t36 116v26q0 72 -36 114t-97 42q-64 0 -99 -44t-35 -124q0 -81 35 -127q35 -45 99 -45z" />
    <glyph glyph-name="h.ord" horiz-adv-x="929" 
d="M358 1638v-399q29 57 83 89q55 32 126 32q123 0 192 -71q68 -69 68 -197v-445h-249v385q0 68 -27 102q-26 33 -78 33q-55 0 -85 -39t-30 -112v-369h-247v991h247z" />
    <glyph glyph-name="i.ord" horiz-adv-x="468" 
d="M360 1425h-251v207h251v-207zM111 647v694h247v-694h-247z" />
    <glyph glyph-name="j.ord" horiz-adv-x="468" 
d="M360 1425h-251v207h251v-207zM94 397q-34 0 -50 1q-35 2 -54 5v179q26 -1 34 -3q5 -1 13 -1q39 0 56 16q18 16 18 53v694h247v-704q0 -117 -67 -178q-68 -62 -197 -62z" />
    <glyph glyph-name="k.ord" horiz-adv-x="919" 
d="M891 647h-275l-188 256l-70 -69v-187h-247v991h247v-555l240 258h274l-276 -280z" />
    <glyph glyph-name="l.ord" horiz-adv-x="468" 
d="M358 1638v-991h-247v991h247z" />
    <glyph glyph-name="m.ord" horiz-adv-x="1370" 
d="M563 1360q75 0 130 -29t89 -90q39 55 101 87t133 32q118 0 184 -71t66 -197v-445h-248v389q0 65 -25 99q-23 32 -75 32q-50 0 -77 -38q-28 -39 -28 -107v-375h-248v389q0 66 -24 99q-23 32 -74 32t-80 -38t-29 -107v-375h-247v694h245v-102q27 55 82 88q56 33 125 33z
" />
    <glyph glyph-name="n.ord" horiz-adv-x="929" 
d="M111 1341h245v-102q29 58 84 89q56 32 127 32q123 0 192 -71q68 -69 68 -197v-445h-249v387q0 66 -27 100q-26 33 -78 33q-55 0 -85 -39t-30 -112v-369h-247v694z" />
    <glyph glyph-name="o.ord" horiz-adv-x="886" 
d="M444 631q-175 0 -276 98q-102 99 -102 266q0 168 103 267q102 98 275 98t275 -99t102 -266t-102 -266q-101 -98 -275 -98zM444 1182q-63 0 -96 -48t-33 -139q0 -92 33 -140t96 -48q64 0 97 48q32 47 32 140t-33 139q-34 48 -96 48z" />
    <glyph glyph-name="p.ord" horiz-adv-x="933" 
d="M565 629q-68 0 -124 31q-55 30 -83 85v-339h-247v935h245v-102q27 55 84 88t125 33q135 0 218 -102q83 -103 83 -265q0 -163 -83 -264q-82 -100 -218 -100zM485 1182q-62 0 -96 -46q-35 -47 -35 -126v-31q0 -80 35 -127t96 -47q65 0 99 49t34 139q0 91 -34 140t-99 49z
" />
    <glyph glyph-name="q.ord" horiz-adv-x="933" 
d="M369 629q-136 0 -218 100q-83 101 -83 264q0 162 83 265q83 102 218 102q68 0 125 -33t84 -88v102h245v-935h-248v339q-29 -55 -82 -85q-56 -31 -124 -31zM449 1182q-65 0 -99 -49q-35 -50 -35 -140q0 -89 35 -139q34 -49 99 -49q61 0 96 47t35 127v31q0 79 -35 126
q-34 46 -96 46z" />
    <glyph glyph-name="r.ord" horiz-adv-x="665" 
d="M559 1352q19 0 29 -1q14 -1 22 -3v-230l-46 3q-10 1 -29 1q-82 0 -129 -47q-48 -48 -48 -131v-297h-247v694h245v-145q23 74 78 116q52 40 125 40z" />
    <glyph glyph-name="s.ord" horiz-adv-x="800" 
d="M412 631q-158 0 -248 59q-92 60 -107 170h228q6 -39 39 -60q35 -22 84 -22q42 0 69 18t27 48q0 23 -20 35q-19 12 -74 22l-123 23q-103 17 -155 67q-52 51 -52 135q0 104 87 169q88 65 224 65q147 0 232 -60q86 -60 96 -165h-217q-5 35 -35 56t-74 21q-41 0 -64 -17
q-24 -18 -24 -48q0 -23 21 -36q21 -14 69 -21l131 -23q101 -18 152 -70q49 -50 49 -139q0 -104 -86 -166q-85 -61 -229 -61z" />
    <glyph glyph-name="t.ord" horiz-adv-x="606" 
d="M453 831q10 0 46 3q18 2 36 6v-183q-50 -13 -83 -17q-40 -5 -77 -5q-130 0 -187 51t-57 164v319h-90v172h90v170h244v-170h145v-172h-147v-266q0 -39 17 -55q19 -17 63 -17z" />
    <glyph glyph-name="u.ord" horiz-adv-x="919" 
d="M807 647h-244v101q-29 -57 -84 -88t-123 -31q-119 0 -185 70q-67 72 -67 198v444h248v-391q0 -64 25 -98q24 -33 74 -33q51 0 79 39q29 40 29 113v370h248v-694z" />
    <glyph glyph-name="v.ord" horiz-adv-x="888" 
d="M580 647h-269l-270 696h250l155 -456h5l155 456h242z" />
    <glyph glyph-name="w.ord" horiz-adv-x="1234" 
d="M510 1343h221l105 -448h2l114 448h242l-217 -696h-246l-113 428h-2l-110 -428h-248l-217 696h250l115 -448h2z" />
    <glyph glyph-name="x.ord" horiz-adv-x="905" 
d="M446 838l-139 -191h-262l266 354l-248 342h279l117 -165l119 165h264l-248 -331l266 -365h-280z" />
    <glyph glyph-name="y.ord" horiz-adv-x="888" 
d="M303 657l-262 686h256l154 -466h2l153 466h242l-264 -696q-50 -131 -131 -190q-83 -60 -217 -60q-17 0 -51 2q-9 1 -25 2.5t-23 1.5v179h39q64 0 87 16q24 16 40 59z" />
    <glyph glyph-name="z.ord" horiz-adv-x="792" 
d="M702 1343v-167l-323 -349h338v-180h-637v162l323 354h-317v180h616z" />
    <glyph glyph-name="caron.Slovak" 
d="M795 1507l-226 -407h-163l45 407h344z" />
    <glyph glyph-name="commaturn" 
d="M621 1370h112v-190h-315v110q0 148 78 218q79 71 239 71v-115q-61 0 -87 -22q-27 -22 -27 -72z" />
    <glyph glyph-name="grave.cap" 
d="M707 1884l102 -325h-213l-252 325h363z" />
    <glyph glyph-name="acute.cap" 
d="M811 1884l-252 -325h-213l103 325h362z" />
    <glyph glyph-name="circumflex.cap" 
d="M225 1556l207 328h291l207 -328h-191l-161 142l-162 -142h-191z" />
    <glyph glyph-name="caron.cap" 
d="M416 1884l162 -141l161 141h191l-207 -328h-291l-207 328h191z" />
    <glyph glyph-name="tilde.cap" 
d="M582 1634q-55 33 -74 40q-22 9 -41 9q-33 0 -53 -29q-22 -31 -23 -85h-180q0 159 57 253q57 95 154 95q40 0 76 -14q41 -16 108 -58q55 -33 74 -40q22 -9 41 -9q31 0 53 31q21 31 23 84h180q0 -159 -57 -253q-57 -95 -154 -95q-40 0 -76 14q-45 17 -108 57z" />
    <glyph glyph-name="macron.cap" 
d="M940 1585h-727v215h727v-215z" />
    <glyph glyph-name="breve.cap" 
d="M563 1552q-145 0 -231 94t-86 250h198q0 -67 32 -105t87 -38q56 0 86 38q31 39 31 105h201q0 -154 -86 -249t-232 -95z" />
    <glyph glyph-name="dotaccent.cap" 
d="M754 1569h-353v297h353v-297z" />
    <glyph glyph-name="dieresis.cap" 
d="M948 1569h-301v297h301v-297zM508 1569h-301v297h301v-297z" />
    <glyph glyph-name="ring.cap" 
d="M854 1735q0 -113 -81 -194t-195 -81q-113 0 -194 81t-81 194t81 196q81 82 194 82q114 0 195 -82q81 -83 81 -196zM702 1735q0 54 -35 89q-36 36 -89 36q-52 0 -88 -37q-35 -36 -35 -88q0 -49 37 -86t86 -37q51 0 88 37q36 36 36 86z" />
    <glyph glyph-name="hungarumlaut.cap" 
d="M760 1559h-195l107 325h323zM354 1559h-196l106 325h324z" />
    <glyph glyph-name="guilsinglleft.cap" horiz-adv-x="729" 
d="M406 682l223 -432h-236l-293 432l293 432h236z" />
    <glyph glyph-name="guilsinglright.cap" horiz-adv-x="729" 
d="M100 1114h236l293 -432l-293 -432h-236l224 432z" />
    <glyph glyph-name="guillemotleft.cap" horiz-adv-x="1183" 
d="M858 682l225 -432h-229l-289 432l289 432h229zM397 682l224 -432h-228l-293 432l293 432h228z" />
    <glyph glyph-name="guillemotright.cap" horiz-adv-x="1183" 
d="M100 1114h230l288 -432l-288 -432h-230l226 432zM563 1114h228l292 -432l-292 -432h-228l223 432z" />
    <glyph glyph-name="slash.cap" horiz-adv-x="1140" 
d="M397 -154h-319l667 1729h320z" />
    <glyph glyph-name="backslash.cap" horiz-adv-x="1140" 
d="M745 -154l-667 1729h319l668 -1729h-320z" />
    <glyph glyph-name="bar.cap" horiz-adv-x="718" 
d="M213 -154v1729h295v-1729h-295z" />
    <glyph glyph-name="periodcentered.cap" horiz-adv-x="733" 
d="M557 532h-379v379h379v-379z" />
    <glyph glyph-name="bullet.cap" horiz-adv-x="1064" 
d="M535 401q-146 0 -251 105q-106 106 -106 250q0 142 106 246t251 104t248 -102q104 -102 104 -248q0 -144 -104 -250q-103 -105 -248 -105z" />
    <glyph glyph-name="hyphen.cap" horiz-adv-x="935" 
d="M758 573h-580v281h580v-281z" />
    <glyph glyph-name="endash.cap" horiz-adv-x="1386" 
d="M1208 590h-1030v244h1030v-244z" />
    <glyph glyph-name="emdash.cap" horiz-adv-x="2054" 
d="M1876 590h-1698v244h1698v-244z" />
    <glyph glyph-name="parenleft.cap" horiz-adv-x="929" 
d="M516 711q0 -220 85 -439t245 -426h-320q-170 196 -259 417q-87 217 -87 448q0 230 88 448q89 220 258 416h320q-162 -224 -246 -442q-84 -219 -84 -422z" />
    <glyph glyph-name="parenright.cap" horiz-adv-x="929" 
d="M414 709q0 202 -84 421q-84 220 -246 443h319q171 -198 259 -416t88 -448q0 -231 -87 -448q-88 -219 -260 -417h-319q160 207 245 426t85 439z" />
    <glyph glyph-name="bracketleft.cap" horiz-adv-x="874" 
d="M768 1341h-250v-1261h250v-234h-578v1729h578v-234z" />
    <glyph glyph-name="bracketright.cap" horiz-adv-x="874" 
d="M106 1571h578v-1729h-578v234h250v1261h-250v234z" />
    <glyph glyph-name="braceleft.cap" horiz-adv-x="903" 
d="M147 592h-79v237h79q53 0 85 33q32 34 32 86v373q0 124 77 189t222 65h236v-232h-133q-55 0 -75 -19q-22 -20 -22 -64v-355q0 -81 -54 -134t-148 -60q92 -7 148 -60q54 -51 54 -135v-352q0 -45 23 -66q21 -20 74 -20h133v-232h-236q-145 0 -222 65t-77 189v373
q0 52 -32 86q-32 33 -85 33z" />
    <glyph glyph-name="braceright.cap" horiz-adv-x="903" 
d="M756 592q-54 0 -85 -33q-32 -34 -32 -86v-373q0 -124 -77 -189t-222 -65h-236v232h134q52 0 73 20q23 21 23 66v352q0 84 54 135q56 53 149 60q-95 8 -149 60q-54 53 -54 134v355q0 44 -22 64q-20 19 -74 19h-134v232h236q145 0 222 -65t77 -189v-373q0 -52 32 -86
q31 -33 85 -33h80v-237h-80z" />
    <glyph glyph-name="at.cap" horiz-adv-x="1878" 
d="M1153 1139h258l-104 -592q-10 -55 8 -83q19 -28 65 -28q116 0 182 114t66 310q0 250 -171 397q-172 148 -456 148q-323 0 -530 -208t-207 -535q0 -318 200 -491t540 -173q129 0 240 22q108 21 226 70l64 -141q-112 -55 -247 -84q-146 -31 -283 -31q-415 0 -672 221
q-256 220 -256 607q0 188 69 357t197 294q130 126 298 191q172 67 361 67q353 0 578 -201t225 -510q0 -272 -136 -430q-137 -160 -355 -160q-83 0 -150 34t-104 95q-37 -52 -107 -87q-66 -33 -143 -33q-149 0 -237 100q-89 101 -89 264q0 216 127 365t318 149q66 0 125 -31
q58 -31 82 -77zM893 500q64 0 112 45q47 44 62 123l10 67q15 89 -18 143t-98 54q-87 0 -141 -65t-60 -169q-8 -94 26 -145q35 -53 107 -53z" />
    <glyph glyph-name="Euro.lt" horiz-adv-x="1351" 
d="M1010 489h305q-39 -246 -181 -379q-144 -135 -368 -135q-218 0 -371 136t-205 376h-145v189h121q-2 14 -2 21v36v38q0 10 2 24h-121v186h145q53 238 205 372t371 134q228 0 370 -133q141 -132 179 -379h-305q-21 120 -79 180q-58 59 -159 59q-98 0 -163 -59
q-67 -61 -97 -174h328l-23 -186h-332q-2 -14 -2 -24v-38v-36q0 -7 2 -21h316l-21 -189h-268q30 -118 97 -179q66 -60 163 -60q101 0 159 59q58 60 79 182z" />
    <glyph glyph-name="dollar.lt" horiz-adv-x="1351" 
d="M1282 430q0 -189 -140 -310q-142 -122 -372 -140v-205h-174v207q-241 24 -381 145q-142 122 -160 322h310q8 -90 67 -143q60 -54 164 -70v366l-107 19q-193 34 -293 137t-100 272q0 188 137 310q138 123 363 141v194h174v-198q214 -22 341 -136q125 -112 146 -301h-303
q-7 71 -54 118t-130 63v-353l133 -24q190 -35 284 -138q95 -104 95 -276zM403 1059q0 -69 40 -103t153 -55v326q-92 -12 -142 -56q-51 -45 -51 -112zM975 406q0 73 -46 109q-47 36 -159 54v-338q98 12 153 57q52 43 52 118z" />
    <glyph glyph-name="cent.lt" horiz-adv-x="1351" 
d="M942 397h270q-21 -165 -132 -276q-110 -111 -283 -133v-205h-174v205q-213 29 -341 179q-128 151 -128 376q0 222 128 373q129 152 341 180v227h174v-227q173 -22 283 -133q111 -111 132 -277h-270q-8 63 -46 108q-38 44 -99 62v-629q60 17 99 63q39 45 46 107zM449 543
q0 -119 45 -199q46 -81 129 -111v617q-83 -30 -129 -111q-45 -79 -45 -196z" />
    <glyph glyph-name="sterling.lt" horiz-adv-x="1351" 
d="M489 274h775v-274h-1176v274h31q79 0 123 73q43 71 43 208h-185v236h125q-29 83 -39 135q-10 50 -10 104q0 196 151 327q149 130 382 130q244 0 388 -135q143 -134 160 -371h-331q-6 113 -62 177q-56 63 -155 63q-88 0 -144 -56q-55 -55 -55 -141q0 -23 5 -55
q5 -29 15 -62q6 -19 21 -58q12 -30 20 -58h316v-236h-277q-4 -83 -35 -155q-30 -70 -86 -126z" />
    <glyph glyph-name="yen.lt" horiz-adv-x="1351" 
d="M1200 537v-189h-354v-348h-336v348h-354v189h354v122h-354v189h250l-367 614h362l281 -516h2l279 516h352l-365 -614h250v-189h-354v-122h354z" />
    <glyph glyph-name="florin.lt" horiz-adv-x="1351" 
d="M1051 829v-260h-246l-139 -792h-330l141 792h-155v260h202l56 310q34 190 150 292q114 101 298 101q44 0 88 -6q40 -6 72 -19v-307q-23 9 -52 14q-27 5 -63 5q-82 0 -125 -43t-61 -138l-37 -209h201z" />
    <glyph glyph-name="zero.slash" horiz-adv-x="1474" 
d="M737 -25q-297 0 -477 209q-180 208 -180 547t180 547q180 209 477 209q294 0 476 -209t182 -547t-182 -547t-476 -209zM739 1239q-147 0 -231 -135t-84 -373q0 -111 18 -201q17 -87 56 -155l333 848q-22 8 -44 12q-21 4 -48 4zM739 223q147 0 229 135q83 136 83 373
q0 104 -19 199q-17 87 -53 155l-334 -845q30 -10 46 -13q21 -4 48 -4z" />
    <glyph glyph-name="zero.lt" horiz-adv-x="1351" 
d="M1282 731q0 -335 -167 -546q-166 -210 -439 -210q-272 0 -439 210q-167 211 -167 546t167 546q167 210 439 210q273 0 439 -210q167 -211 167 -546zM416 731q0 -242 65 -365q66 -124 195 -124q128 0 194 124t66 365t-66 366q-66 124 -194 124q-129 0 -195 -124
q-65 -123 -65 -366z" />
    <glyph glyph-name="zero.slash.lt" horiz-adv-x="1351" 
d="M1282 731q0 -335 -167 -546q-166 -210 -439 -210q-272 0 -439 210q-167 211 -167 546t167 546q167 210 439 210q273 0 439 -210q167 -211 167 -546zM676 1239q-138 0 -207 -129q-70 -131 -70 -379q0 -96 11 -178q11 -81 32 -137l357 790q-30 18 -60 25q-32 8 -63 8z
M676 225q138 0 207 127q69 128 69 379q0 102 -10 176q-11 79 -31 137l-358 -786q31 -18 59 -25q32 -8 64 -8z" />
    <glyph glyph-name="one.lt" horiz-adv-x="1351" 
d="M897 270h354v-270h-1120v270h410v744h-369v233q235 0 338 44t133 173h254v-1194z" />
    <glyph glyph-name="two.lt" horiz-adv-x="1351" 
d="M700 1487q239 0 385 -127q148 -128 148 -330q0 -154 -92 -269q-92 -114 -350 -245q-155 -80 -216 -132q-63 -54 -69 -110h729v-274h-1122v125q0 171 104 312q105 142 365 294q218 125 267 180q50 56 50 125q0 86 -52 134q-54 49 -149 49q-96 0 -160 -67q-63 -66 -69 -173
h-342q18 229 173 369q154 139 400 139z" />
    <glyph glyph-name="three.lt" horiz-adv-x="1351" 
d="M950 735q137 -23 216 -112t79 -224q0 -186 -156 -305q-157 -119 -413 -119q-255 0 -418 128q-162 127 -180 341h338q7 -92 80 -150q71 -56 180 -56q112 0 177 51t65 139t-62 133q-61 45 -178 45h-146v250h142q101 0 159 47q56 46 56 135q0 85 -55 134q-57 51 -150 51
q-100 0 -164 -58q-63 -57 -69 -151h-326q15 212 168 342q154 131 395 131q240 0 382 -121t142 -311q0 -124 -71 -210q-72 -87 -191 -110z" />
    <glyph glyph-name="four.lt" horiz-adv-x="1351" 
d="M684 1462h381v-860h240v-268h-240v-334h-340v334h-678v270zM725 602v545l-389 -545h389z" />
    <glyph glyph-name="five.lt" horiz-adv-x="1351" 
d="M909 483q0 116 -61 184t-170 68q-70 0 -126 -28q-57 -29 -87 -78h-320l86 833h924v-274h-668l-30 -289q45 42 125 70q75 26 166 26q223 0 361 -141t138 -367q0 -225 -155 -368q-156 -144 -410 -144q-262 0 -420 128t-176 350h354q7 -97 73 -158q63 -59 165 -59
q107 0 169 68t62 179z" />
    <glyph glyph-name="six.lt" horiz-adv-x="1351" 
d="M713 1223q-135 0 -218 -119t-83 -307q55 88 143 134t201 46q222 0 366 -140q146 -141 146 -354q0 -222 -158 -365t-408 -143q-277 0 -446 199q-168 198 -168 533q0 350 176 565t461 215q212 0 356 -117q143 -116 170 -307h-321q-22 79 -77 120q-53 40 -140 40zM451 481
q0 -112 69 -184t180 -72q109 0 177 71q67 70 67 185t-67 183q-67 69 -177 69q-111 0 -180 -69t-69 -183z" />
    <glyph glyph-name="seven.lt" horiz-adv-x="1351" 
d="M909 1190h-807v272h1155v-278q-260 -317 -371 -590q-111 -272 -112 -596h-362q5 287 118 568q113 279 379 624z" />
    <glyph glyph-name="eight.lt" horiz-adv-x="1351" 
d="M137 1067q0 191 148 306q147 114 391 114t391 -114t147 -306q0 -104 -57 -191q-58 -89 -156 -135q112 -24 195 -121q84 -98 84 -214q0 -197 -164 -314t-440 -117q-274 0 -438 117t-164 314q0 116 83 214q82 97 195 121q-95 45 -156 135q-59 88 -59 191zM446 1055
q0 -89 62 -140t168 -51t168 51q61 51 61 140q0 88 -61 139q-62 51 -168 51t-168 -51t-62 -139zM408 424q0 -96 70 -148q71 -53 198 -53q125 0 198 53q72 52 72 148q0 94 -72 147q-74 54 -198 54q-125 0 -198 -54q-70 -52 -70 -147z" />
    <glyph glyph-name="nine.lt" horiz-adv-x="1351" 
d="M639 240q136 0 218 118q83 119 83 308q-56 -89 -143 -135q-88 -46 -201 -46q-222 0 -367 141t-145 353q0 223 158 366q157 142 407 142q278 0 447 -199q168 -198 168 -532q0 -350 -177 -566q-176 -215 -460 -215q-213 0 -357 117q-143 116 -170 307h322q22 -78 77 -119
q53 -40 140 -40zM901 981q0 111 -70 184q-69 72 -180 72q-108 0 -176 -71q-67 -70 -67 -185q0 -114 67 -182q68 -70 176 -70q110 0 180 70t70 182z" />
    <glyph glyph-name="period.tab" horiz-adv-x="675" 
d="M528 0h-378v379h378v-379z" />
    <glyph glyph-name="comma.tab" horiz-adv-x="675" 
d="M330 12h-176v367h378v-387q0 -168 -105 -260q-106 -92 -298 -92v174q108 1 155 44q46 42 46 132v22z" />
    <glyph glyph-name="colon.tab" horiz-adv-x="675" 
d="M528 637h-378v379h378v-379zM528 0h-378v379h378v-379z" />
    <glyph glyph-name="semicolon.tab" horiz-adv-x="675" 
d="M330 12h-176v367h378v-387q0 -168 -105 -260q-106 -92 -298 -92v174q108 1 155 44q46 42 46 132v22zM532 637h-378v379h378v-379z" />
    <glyph glyph-name="space.tab" horiz-adv-x="675" 
 />
    <glyph glyph-name="zero.dnom" horiz-adv-x="899" 
d="M823 401q0 -185 -102 -300t-270 -115q-169 0 -272 115t-103 300q0 187 103 302q104 116 272 116t270 -116t102 -302zM305 401q0 -125 37 -187t109 -62t107 62q36 63 36 187q0 126 -36 189t-107 63q-74 0 -110 -63t-36 -189z" />
    <glyph glyph-name="one.dnom" horiz-adv-x="731" 
d="M483 147h183v-147h-584v147h190v398h-192v139q122 0 171 24q50 24 66 95h166v-656z" />
    <glyph glyph-name="two.dnom" horiz-adv-x="780" 
d="M403 817q135 0 221 -71q85 -70 85 -185q0 -80 -49 -140q-47 -57 -199 -134q-78 -39 -113 -68t-39 -55h402v-164h-641v76q0 95 59 173q60 80 199 159q114 61 143 92q27 28 27 65q0 39 -26 63q-24 23 -71 23q-49 0 -79 -33q-32 -35 -33 -83h-215q10 126 99 204
q88 78 230 78z" />
    <glyph glyph-name="three.dnom" horiz-adv-x="786" 
d="M559 401q77 -15 118 -62q42 -48 42 -120q0 -102 -89 -168q-87 -65 -233 -65t-237 70q-92 71 -103 190h213q1 -43 38 -69q35 -25 89 -25q53 0 82 23q31 25 31 63q0 42 -29 63t-90 21h-76v157h74q51 0 79 23t28 63t-27 64t-70 24q-46 0 -75 -26q-31 -27 -35 -72h-207
q8 115 96 188q89 74 225 74q137 0 217 -67t80 -175q0 -67 -38 -112q-39 -47 -103 -62z" />
    <glyph glyph-name="four.dnom" horiz-adv-x="876" 
d="M434 801h232v-488h149v-151h-149v-162h-207v162h-398v151zM459 313v289l-215 -289h215z" />
    <glyph glyph-name="five.dnom" horiz-adv-x="806" 
d="M512 268q0 56 -28 89q-27 32 -79 32q-35 0 -60 -13q-24 -13 -40 -38h-205l45 465h531v-172h-373l-16 -146q30 27 74 42q46 16 94 16q123 0 200 -75q76 -75 76 -198q0 -124 -89 -204t-234 -80q-151 0 -240 70q-90 70 -102 196h229q5 -46 34 -74t74 -28q50 0 79 32
q30 33 30 86z" />
    <glyph glyph-name="six.dnom" horiz-adv-x="817" 
d="M428 651q-64 0 -104 -54q-41 -55 -41 -138q30 39 74 57q46 19 100 19q125 0 207 -76q81 -75 81 -193q0 -122 -90 -201q-89 -79 -231 -79q-161 0 -255 109q-95 110 -95 292q0 195 100 313q101 119 260 119q122 0 203 -65t96 -172h-203q-11 35 -35 52t-67 17zM301 264
q0 -53 34 -87t87 -34q51 0 84 34q33 35 33 87t-33 87q-33 34 -84 34q-53 0 -87 -34t-34 -87z" />
    <glyph glyph-name="seven.dnom" horiz-adv-x="751" 
d="M469 631h-403v170h618v-178q-126 -155 -175 -290q-51 -139 -52 -333h-234q1 162 62 316t184 315z" />
    <glyph glyph-name="eight.dnom" horiz-adv-x="823" 
d="M752 223q0 -107 -93 -173q-91 -64 -247 -64q-157 0 -248 64q-92 65 -92 173q0 66 44 119t103 68q-54 29 -82 72q-31 48 -31 102q0 106 84 171q83 64 222 64q137 0 222 -64t85 -171q0 -54 -31 -102q-28 -43 -82 -72q59 -16 102 -69q44 -55 44 -118zM522 575q0 45 -29 68
q-31 25 -81 25t-80 -25q-29 -24 -29 -68q0 -43 29 -67q30 -25 80 -25t81 25q29 23 29 67zM543 238q0 47 -34 72q-35 26 -97 26q-61 0 -96 -26q-33 -24 -33 -72q0 -47 33 -71q35 -26 96 -26q62 0 97 26q34 25 34 71z" />
    <glyph glyph-name="nine.dnom" horiz-adv-x="817" 
d="M391 152q65 0 106 56q42 57 42 138q-33 -37 -79 -58q-45 -20 -100 -20q-122 0 -204 78t-82 195q0 120 91 199t232 79q159 0 253 -109q95 -110 95 -292q0 -194 -100 -313t-262 -119q-120 0 -200 65q-81 66 -99 172h205q11 -36 37 -53q27 -18 65 -18zM518 541q0 53 -33 86
q-32 32 -88 32q-52 0 -84 -32t-32 -86t32 -87q33 -34 84 -34q55 0 88 33t33 88z" />
    <glyph glyph-name="percent.lt" horiz-adv-x="1351" 
d="M342 831q-135 0 -230 98q-96 99 -96 232q0 135 96 231q95 95 230 95t231 -96q97 -97 97 -230t-97 -232q-96 -98 -231 -98zM47 0l1036 1462h213l-1034 -1462h-215zM342 1309q-56 0 -100 -44q-43 -43 -43 -104q0 -62 43 -106q44 -45 100 -45q59 0 101 44q42 43 42 107
q0 61 -42 105q-42 43 -101 43zM1010 -25q-133 0 -230 97q-96 96 -96 231q0 133 96 231q96 97 230 97q135 0 231 -96t96 -232q0 -135 -96 -231q-97 -97 -231 -97zM1010 453q-60 0 -102 -44t-42 -106q0 -61 42 -104t102 -43q59 0 102 43t43 104q0 63 -43 106q-44 44 -102 44z
" />
    <glyph glyph-name="thinspace" horiz-adv-x="124" 
 />
    </font>
</defs>
</svg>
