<svg xmlns="http://www.w3.org/2000/svg">
<defs>
<font id="UntitledSans-LightItalic" horiz-adv-x="1351" >
  <font-face 
    font-family="Copyright Klim Type Foundry"
    font-weight="300"
    font-style="italic"
    font-stretch="normal"
    units-per-em="2048"
    panose-1="0 0 0 0 0 0 0 0 0 0"
    ascent="1638"
    descent="-410"
    x-height="1024"
    cap-height="1462"
    bbox="-487 -449 2281 1954"
    underline-thickness="0"
    underline-position="0"
    unicode-range="U+000D-F6C3"
  />
<missing-glyph horiz-adv-x="2523" 
d="M2044 961q12 0 32 2q13 1 35 6v-113q-29 -8 -50 -12t-58 -4q-86 0 -129 43t-43 129v256h-74v106h74v133h151v-133h117v-106h-117v-238q0 -33 16 -52q14 -17 46 -17zM582 1374h153v-82q22 46 64 71q44 26 98 26q91 0 143 -54t52 -149v-338h-154v303q0 59 -25 90t-71 31
q-52 0 -79 -36q-28 -37 -28 -103v-285h-153v526zM1446 838q-126 0 -200 74q-75 75 -75 202q0 125 75 200t200 75q123 0 198 -75q74 -74 74 -200t-74 -201t-198 -75zM1446 1278q-60 0 -91 -42q-32 -43 -32 -122q0 -81 32 -125q31 -43 91 -43q55 0 87 44t32 124q0 76 -31 121
q-30 43 -88 43zM459 848h-174v174h174v-174zM2111 733v-112q-22 5 -35 6q-20 2 -32 2q-31 0 -46 -18q-16 -19 -16 -52v-31h117v-106h-117v-422h-151v422h-74v106h74v50q0 86 43 129t129 43q31 0 58 -5q21 -4 50 -12zM1092 0h-152v84q-21 -43 -64 -70q-42 -26 -100 -26
q-106 0 -168 75q-63 77 -63 201t63 200q63 77 168 77q51 0 95 -26q45 -26 67 -69v297h154v-743zM1559 166h147q-24 -86 -90 -132q-65 -46 -166 -46q-127 0 -202 74q-77 75 -77 200q0 124 79 200q80 77 200 77t192 -74q72 -73 72 -193v-47h-395q7 -62 41 -96q33 -33 90 -33
q43 0 70 18t39 52zM1450 432q-51 0 -84 -30t-43 -85h242q-1 50 -33 83q-30 32 -82 32zM819 96q57 0 90 42t33 116v18q0 74 -33 116t-90 42t-90 -44t-33 -122t33 -123t90 -45z" />
    <glyph glyph-name="f_idieresis" unicode="f&#xef;" horiz-adv-x="1128" 
d="M676 1409q-100 0 -159 -57t-77 -176l-24 -152h227l-14 -96h-228l-147 -928h-117l148 928h-152l14 96h152l27 160q24 155 118 242q95 87 242 87q42 0 89 -10q52 -11 71 -22l-17 -101q-38 15 -75 22q-35 7 -78 7zM1237 1260h-135l28 180h136zM733 0l162 1024h121
l-162 -1024h-121z" />
    <glyph glyph-name=".notdef" horiz-adv-x="2523" 
d="M2044 961q12 0 32 2q13 1 35 6v-113q-29 -8 -50 -12t-58 -4q-86 0 -129 43t-43 129v256h-74v106h74v133h151v-133h117v-106h-117v-238q0 -33 16 -52q14 -17 46 -17zM582 1374h153v-82q22 46 64 71q44 26 98 26q91 0 143 -54t52 -149v-338h-154v303q0 59 -25 90t-71 31
q-52 0 -79 -36q-28 -37 -28 -103v-285h-153v526zM1446 838q-126 0 -200 74q-75 75 -75 202q0 125 75 200t200 75q123 0 198 -75q74 -74 74 -200t-74 -201t-198 -75zM1446 1278q-60 0 -91 -42q-32 -43 -32 -122q0 -81 32 -125q31 -43 91 -43q55 0 87 44t32 124q0 76 -31 121
q-30 43 -88 43zM459 848h-174v174h174v-174zM2111 733v-112q-22 5 -35 6q-20 2 -32 2q-31 0 -46 -18q-16 -19 -16 -52v-31h117v-106h-117v-422h-151v422h-74v106h74v50q0 86 43 129t129 43q31 0 58 -5q21 -4 50 -12zM1092 0h-152v84q-21 -43 -64 -70q-42 -26 -100 -26
q-106 0 -168 75q-63 77 -63 201t63 200q63 77 168 77q51 0 95 -26q45 -26 67 -69v297h154v-743zM1559 166h147q-24 -86 -90 -132q-65 -46 -166 -46q-127 0 -202 74q-77 75 -77 200q0 124 79 200q80 77 200 77t192 -74q72 -73 72 -193v-47h-395q7 -62 41 -96q33 -33 90 -33
q43 0 70 18t39 52zM1450 432q-51 0 -84 -30t-43 -85h242q-1 50 -33 83q-30 32 -82 32zM819 96q57 0 90 42t33 116v18q0 74 -33 116t-90 42t-90 -44t-33 -122t33 -123t90 -45z" />
    <glyph glyph-name=".null" horiz-adv-x="0" 
 />
    <glyph glyph-name="nonmarkingreturn" unicode="&#xd;" horiz-adv-x="452" 
 />
    <glyph glyph-name="NULL" horiz-adv-x="0" 
 />
    <glyph glyph-name="NULL" horiz-adv-x="0" 
 />
    <glyph glyph-name="space" unicode=" " horiz-adv-x="450" 
 />
    <glyph glyph-name="exclam" unicode="!" horiz-adv-x="606" 
d="M242 424l139 1038h143l-190 -1038h-92zM309 0h-178l29 178h178z" />
    <glyph glyph-name="quotedbl" unicode="&#x22;" horiz-adv-x="802" 
d="M682 967h-100l67 540h135zM371 967h-101l66 540h137z" />
    <glyph glyph-name="numbersign" unicode="#" 
d="M723 82h-113l164 401h-342l-164 -401h-112l163 401h-256l35 95h260l138 333h-273l33 97h279l163 401h115l-164 -401h340l164 401h113l-164 -401h256l-33 -97h-262l-137 -333h274l-35 -95h-278zM608 911l-137 -333h342l137 333h-342z" />
    <glyph glyph-name="dollar" unicode="$" horiz-adv-x="1323" 
d="M1190 442q0 -195 -157 -329q-155 -133 -388 -133l-33 -203h-102l35 207q-209 24 -331 140q-123 116 -124 302h121q7 -143 97 -230q89 -86 253 -104l98 600l-104 27q-163 41 -240 117q-75 75 -75 194q0 195 151 325t381 130h9h10l30 192h103l-33 -200q172 -27 269 -124
q98 -97 102 -249h-119q-1 102 -74 171q-71 68 -197 91l-96 -588l103 -24q161 -40 236 -117t75 -195zM360 1036q0 -82 56 -132q58 -52 182 -81l80 -20l94 571h-8q-185 0 -294 -94q-110 -95 -110 -244zM1069 418q0 90 -59 146q-60 57 -183 87l-69 17l-94 -580q177 5 290 97
q115 94 115 233z" />
    <glyph glyph-name="percent" unicode="%" horiz-adv-x="1619" 
d="M831 1210q0 -141 -108 -249q-109 -109 -250 -109q-119 0 -199 80q-79 79 -79 196q0 142 108 250q109 109 250 109q119 0 199 -80q79 -79 79 -197zM137 0l1282 1462h131l-1284 -1462h-129zM303 1143q0 -81 52 -133q54 -54 132 -54q97 0 166 74q70 75 70 168q0 80 -52 132
t-130 52q-97 0 -167 -72q-71 -73 -71 -167zM1493 336q0 -141 -109 -250t-249 -109q-119 0 -199 80t-80 197q0 141 109 250q108 108 249 108q119 0 199 -80t80 -196zM965 266q0 -80 52 -132t130 -52q96 0 167 73q70 71 70 167q0 80 -51 133t-131 53q-96 0 -167 -73
q-70 -71 -70 -169z" />
    <glyph glyph-name="ampersand" unicode="&#x26;" horiz-adv-x="1507" 
d="M1321 0h-152l-137 164q-109 -92 -242 -140q-136 -49 -280 -49q-173 0 -290 103q-116 102 -116 256q0 151 89 258t313 207q-63 84 -89 154q-28 75 -28 145q0 160 118 274q120 115 294 115q143 0 231 -79t88 -202q0 -136 -89 -231q-88 -94 -351 -205l371 -446
q66 77 115 180q48 102 75 223h113q-29 -135 -91 -262q-58 -119 -147 -219zM791 1386q-119 0 -200 -82t-81 -204q0 -56 25 -119q24 -59 81 -133l9 2q217 89 298 164q78 72 78 182q0 86 -57 138q-56 52 -153 52zM225 346q0 -112 85 -188t214 -76t240 40q115 41 205 118
l-402 483q-191 -85 -267 -172q-75 -85 -75 -205z" />
    <glyph glyph-name="quotesingle" unicode="'" horiz-adv-x="491" 
d="M371 967h-101l66 540h137z" />
    <glyph glyph-name="parenleft" unicode="(" horiz-adv-x="765" 
d="M666 1507h120q-242 -274 -360 -530q-119 -259 -119 -512q0 -178 52 -349q53 -173 155 -337h-113q-103 160 -158 338q-55 177 -55 350q0 267 120 530q119 261 358 510z" />
    <glyph glyph-name="parenright" unicode=")" horiz-adv-x="765" 
d="M141 -221h-121q245 276 361 530q119 259 119 512q0 175 -53 349q-54 176 -154 337h113q103 -160 158 -338q54 -174 54 -350q0 -270 -119 -530q-119 -261 -358 -510z" />
    <glyph glyph-name="asterisk" unicode="*" horiz-adv-x="827" 
d="M475 1208l51 279l97 -19l-52 -278l275 41l14 -98l-278 -41l120 -244l-88 -47l-116 254l-199 -199l-68 76l201 186l-248 137l47 86z" />
    <glyph glyph-name="plus" unicode="+" 
d="M1239 737l-16 -108h-473l-76 -477h-109l76 477h-477l16 108h477l76 475h109l-76 -475h473z" />
    <glyph glyph-name="comma" unicode="," horiz-adv-x="606" 
d="M209 0h-78l29 178h178l-35 -221q-18 -122 -98 -194q-79 -72 -199 -72l14 82q78 0 123 45t60 139z" />
    <glyph glyph-name="hyphen" unicode="-" horiz-adv-x="919" 
d="M739 514h-563l19 111h563z" />
    <glyph glyph-name="period" unicode="." horiz-adv-x="606" 
d="M309 0h-178l29 178h178z" />
    <glyph glyph-name="slash" unicode="/" horiz-adv-x="1007" 
d="M115 -221h-125l940 1728h125z" />
    <glyph glyph-name="zero" unicode="0" horiz-adv-x="1347" 
d="M1112 299q-95 -157 -226 -240q-132 -84 -282 -84q-212 0 -337 158q-124 157 -124 428q0 164 41 322q40 154 119 280q95 157 226 240q132 84 282 84q212 0 337 -158q124 -157 124 -428q0 -163 -41 -321q-40 -155 -119 -281zM268 557q0 -221 90 -343t256 -122
q199 0 338 172q140 172 183 465q6 51 9 92q3 43 3 84q0 221 -90 343t-256 122q-199 0 -338 -172q-138 -171 -182 -465q-8 -70 -10 -92q-3 -43 -3 -84z" />
    <glyph glyph-name="one" unicode="1" horiz-adv-x="700" 
d="M459 1161h-312l13 86q173 0 265 49q93 49 142 172h64l-234 -1468h-123z" />
    <glyph glyph-name="two" unicode="2" horiz-adv-x="1142" 
d="M735 1487q184 0 288 -98q105 -99 105 -261q0 -72 -22 -137q-22 -64 -68 -127q-33 -45 -86 -93q-47 -42 -123 -95q-57 -40 -135 -89q-90 -57 -104 -65q-255 -161 -342 -248q-86 -86 -96 -163h839l-18 -111h-967l12 66q21 138 147 271q129 136 406 298q258 152 349 260
q92 109 92 229q0 118 -75 184t-212 66q-153 0 -263 -97q-112 -98 -149 -253h-114q45 208 189 336q143 127 347 127z" />
    <glyph glyph-name="three" unicode="3" horiz-adv-x="1236" 
d="M840 745q110 -24 184 -114q74 -91 74 -203q0 -186 -150 -319q-151 -134 -385 -134q-220 0 -350 121q-131 122 -131 326h123q0 -158 95 -248t263 -90q186 0 300 98q116 99 116 248q0 119 -83 188q-84 70 -228 70h-152l19 113h153q160 0 260 86q99 85 99 237q0 116 -78 185
t-213 69q-161 0 -272 -96q-112 -97 -142 -256h-117q39 205 185 333t350 128q188 0 300 -101q111 -100 111 -260q0 -145 -96 -253q-95 -107 -235 -128z" />
    <glyph glyph-name="four" unicode="4" 
d="M940 1462h143l-147 -938h326l-17 -102h-325l-68 -422h-119l68 422h-729l16 104zM817 524l125 799l-723 -799h598z" />
    <glyph glyph-name="five" unicode="5" horiz-adv-x="1228" 
d="M997 543q0 145 -82 230t-231 85q-111 0 -207 -48q-95 -48 -162 -134h-110l203 786h794l-18 -112h-703l-143 -541q65 71 164 114q102 44 196 44q196 0 307 -114t111 -302q0 -243 -159 -409q-159 -167 -398 -167q-214 0 -338 121q-125 122 -125 334h119q0 -164 91 -255
t257 -91q193 0 314 132q120 130 120 327z" />
    <glyph glyph-name="six" unicode="6" horiz-adv-x="1271" 
d="M813 1374q-210 0 -359 -197q-152 -201 -192 -515q62 147 181 231q120 84 280 84q187 0 308 -124q122 -125 122 -308q0 -236 -161 -403t-394 -167q-211 0 -334 152q-123 151 -123 412q0 167 42 325t122 289q99 157 234 246q134 88 282 88q187 0 299 -107
q111 -106 111 -286h-117q-6 136 -84 208t-217 72zM274 426q0 -150 94 -246q93 -94 242 -94q180 0 302 131t122 322q0 145 -91 235t-241 90q-180 0 -304 -127t-124 -311z" />
    <glyph glyph-name="seven" unicode="7" horiz-adv-x="1153" 
d="M1042 1350h-856l19 112h1005l-14 -80q-293 -299 -467 -636q-173 -336 -242 -746h-133q67 376 241 717q177 347 447 633z" />
    <glyph glyph-name="eight" unicode="8" horiz-adv-x="1296" 
d="M1161 434q0 -198 -166 -328q-167 -131 -413 -131q-224 0 -359 102t-135 267q0 152 115 270t276 140q-98 40 -151 114q-54 76 -54 172q0 195 150 321t373 126q187 0 302 -94t115 -248q0 -143 -86 -253t-231 -155q115 -29 189 -112q75 -84 75 -191zM397 1047
q0 -116 85 -182t229 -66q167 0 274 94q109 95 109 242q0 112 -85 178q-84 65 -229 65q-166 0 -275 -92q-108 -92 -108 -239zM1028 432q0 122 -98 192t-271 70q-195 0 -319 -95q-123 -94 -123 -249q0 -124 101 -195q103 -73 276 -73q191 0 313 99q121 99 121 251z" />
    <glyph glyph-name="nine" unicode="9" horiz-adv-x="1269" 
d="M526 98q210 0 360 198q151 199 191 515q-62 -147 -181 -231q-120 -84 -280 -84q-187 0 -308 124q-122 125 -122 308q0 235 161 402t394 167q211 0 334 -151q123 -152 123 -412q0 -168 -42 -326t-122 -289q-99 -157 -233 -245t-283 -88q-189 0 -299 106t-110 287h116
q6 -136 84 -208q79 -73 217 -73zM1065 1047q0 151 -93 245t-243 94q-180 0 -302 -131t-122 -321q0 -146 91 -236t241 -90q180 0 304 127t124 312z" />
    <glyph glyph-name="colon" unicode=":" horiz-adv-x="606" 
d="M422 713h-178l28 178h179zM309 0h-178l29 178h178z" />
    <glyph glyph-name="semicolon" unicode=";" horiz-adv-x="606" 
d="M209 0h-78l29 178h178l-35 -221q-18 -122 -98 -194q-79 -72 -199 -72l14 82q78 0 123 45t60 139zM422 713h-178l28 178h179z" />
    <glyph glyph-name="less" unicode="&#x3c;" 
d="M1042 152l-821 462l21 127l966 461l-20 -133l-838 -397l713 -393z" />
    <glyph glyph-name="equal" unicode="=" 
d="M1227 793h-1018l18 112h1016zM1167 424h-1015l16 111h1018z" />
    <glyph glyph-name="greater" unicode="&#x3e;" 
d="M1182 741l-21 -127l-968 -462l22 135l838 395l-713 395l18 125z" />
    <glyph glyph-name="question" unicode="?" horiz-adv-x="1130" 
d="M721 1487q182 0 288 -101q105 -101 105 -262q0 -81 -29 -154q-30 -76 -88 -141q-26 -32 -73 -73q-36 -31 -174 -131q-104 -69 -141 -122q-37 -54 -54 -128h-121q21 99 83 180q61 80 198 176q172 121 227 206t55 183q0 122 -74 189t-212 67q-155 0 -264 -96
q-108 -95 -146 -256h-115q37 205 184 334t351 129zM524 0h-178l29 178h178z" />
    <glyph glyph-name="at" unicode="@" horiz-adv-x="1869" 
d="M1241 893h113l-142 -594q-3 -10 -5 -26q-1 -8 -1 -21q0 -45 26 -68q25 -22 75 -22q145 0 244 148q100 150 100 362q0 244 -169 391t-448 147q-175 0 -320 -59q-147 -60 -255 -174q-106 -112 -166 -265t-60 -317q0 -297 198 -469q197 -172 519 -172q118 0 239 23
q116 22 216 63l31 -86q-111 -46 -239 -72q-130 -26 -253 -26q-364 0 -592 198q-227 197 -227 535q0 188 68 359q67 170 194 296q129 132 295 200q168 69 358 69q319 0 521 -179q200 -178 200 -460q0 -250 -141 -427t-332 -177q-81 0 -134 40q-55 42 -67 107
q-44 -64 -113 -102q-70 -39 -147 -39q-126 0 -201 87t-75 228q0 206 127 363t319 157q72 0 133 -41q59 -40 80 -100zM852 182q93 0 173 68q79 68 108 180q15 62 25 115q7 38 7 74q0 89 -46 138q-47 50 -124 50q-137 0 -232 -126q-95 -127 -95 -286q0 -99 48 -156t136 -57z
" />
    <glyph glyph-name="A" unicode="A" horiz-adv-x="1413" 
d="M1290 0h-127l-100 436h-725l-250 -436h-129l844 1462h139zM856 1333h-4l-453 -790h639z" />
    <glyph glyph-name="B" unicode="B" horiz-adv-x="1366" 
d="M1249 451q0 -208 -154 -329q-155 -122 -413 -122h-557l231 1462h484q216 0 330 -87t114 -253q0 -132 -82 -236q-84 -107 -203 -136q121 -28 186 -107q64 -77 64 -192zM461 1352l-88 -549h381q201 0 304 80q101 79 101 239q0 115 -79 172q-81 58 -238 58h-381zM786 696
h-430l-92 -585h434q200 0 314 90t114 239q0 124 -88 190t-252 66z" />
    <glyph glyph-name="C" unicode="C" horiz-adv-x="1382" 
d="M696 -25q-251 0 -404 172q-153 173 -153 453q0 373 212 630t534 257q215 0 343 -116t140 -316h-125q-6 148 -103 233q-98 86 -263 86q-269 0 -439 -221t-170 -557q0 -235 116 -372q115 -136 321 -136q162 0 271 79q110 80 165 241h129q-70 -210 -216 -321
q-148 -112 -358 -112z" />
    <glyph glyph-name="D" unicode="D" horiz-adv-x="1509" 
d="M123 0l231 1462h486q277 0 436 -164q160 -165 160 -446q0 -373 -232 -613q-231 -239 -586 -239h-495zM1307 850q0 240 -125 371t-359 131h-362l-197 -1241h371q301 0 486 204q186 205 186 535z" />
    <glyph glyph-name="E" unicode="E" horiz-adv-x="1296" 
d="M1071 0h-948l231 1462h955l-19 -110h-831l-90 -568h741l-18 -110h-742l-88 -563h828z" />
    <glyph glyph-name="F" unicode="F" horiz-adv-x="1241" 
d="M246 0h-123l231 1462h895l-16 -110h-772l-92 -582h708l-18 -111h-709z" />
    <glyph glyph-name="G" unicode="G" horiz-adv-x="1507" 
d="M696 -25q-251 0 -404 172q-153 173 -153 453q0 169 50 327q49 154 145 279q107 137 247 208q144 73 306 73q218 0 348 -118q131 -119 141 -316h-125q-6 147 -105 234t-267 87q-269 0 -440 -221t-171 -557q0 -237 116 -374q115 -136 321 -136q223 0 365 138t169 388h-381
l19 109h499l-114 -719h-101l27 262q-61 -130 -196 -209q-137 -80 -296 -80z" />
    <glyph glyph-name="H" unicode="H" horiz-adv-x="1570" 
d="M244 0h-121l231 1462h121l-104 -663h919l105 663h121l-232 -1462h-121l109 688h-920z" />
    <glyph glyph-name="I" unicode="I" horiz-adv-x="530" 
d="M123 0l231 1462h121l-231 -1462h-121z" />
    <glyph glyph-name="J" unicode="J" horiz-adv-x="1116" 
d="M424 80q163 0 257 106q96 108 130 328l150 948h122l-149 -948q-40 -258 -172 -399q-131 -140 -340 -140q-196 0 -306 114q-110 115 -110 314h115q0 -153 79 -238t224 -85z" />
    <glyph glyph-name="K" unicode="K" horiz-adv-x="1417" 
d="M1260 0h-144l-508 735l-286 -243l-78 -492h-121l231 1462h121l-131 -825l952 825h164l-760 -647z" />
    <glyph glyph-name="L" unicode="L" horiz-adv-x="1259" 
d="M1053 0h-928l231 1462h121l-213 -1351h807z" />
    <glyph glyph-name="M" unicode="M" horiz-adv-x="1787" 
d="M1597 1356l-729 -1356h-112l-295 1356h-4l-215 -1356h-119l231 1462h201l279 -1310h4l692 1310h203l-232 -1462h-115l216 1356h-5z" />
    <glyph glyph-name="N" unicode="N" horiz-adv-x="1527" 
d="M354 1462h150l649 -1245h4l197 1245h119l-232 -1462h-104l-680 1315h-4l-209 -1315h-121z" />
    <glyph glyph-name="O" unicode="O" horiz-adv-x="1511" 
d="M139 600q0 376 209 632q208 255 533 255q252 0 405 -172q154 -174 154 -453q0 -376 -209 -632q-209 -255 -533 -255q-252 0 -405 172q-154 174 -154 453zM1311 866q0 236 -117 372t-322 136q-270 0 -437 -219q-167 -220 -167 -559q0 -236 117 -372t322 -136
q271 0 437 219q167 220 167 559z" />
    <glyph glyph-name="P" unicode="P" horiz-adv-x="1310" 
d="M1294 1106q0 -228 -152 -358q-155 -132 -415 -132h-385l-98 -616h-121l231 1462h506q209 0 322 -92q112 -91 112 -264zM459 1352l-101 -625h392q201 0 310 95q107 94 107 274q0 130 -78 192q-81 64 -241 64h-389z" />
    <glyph glyph-name="Q" unicode="Q" horiz-adv-x="1511" 
d="M1108 113l111 -144l-84 -69l-119 153q-70 -38 -152 -58t-166 -20q-252 0 -405 172q-154 174 -154 453q0 376 209 632q208 255 533 255q252 0 405 -172q154 -174 154 -453q0 -236 -88 -433q-88 -198 -244 -316zM872 1374q-270 0 -437 -219q-167 -220 -167 -559
q0 -236 117 -372t322 -136q66 0 124 13q63 14 113 40l-158 203l88 72l166 -215q127 100 199 276q72 175 72 389q0 236 -117 372t-322 136z" />
    <glyph glyph-name="R" unicode="R" horiz-adv-x="1384" 
d="M342 618l-98 -618h-121l231 1462h529q212 0 322 -98q112 -100 112 -281q0 -177 -124 -302q-123 -125 -298 -146l317 -635h-129l-307 618h-434zM459 1352l-101 -625h412q194 0 309 95t115 261q0 131 -84 200t-244 69h-407z" />
    <glyph glyph-name="S" unicode="S" horiz-adv-x="1308" 
d="M616 -25q-243 0 -395 122q-151 121 -153 331h120q10 -166 125 -255t316 -89q180 0 302 96t122 238q0 89 -59 145t-183 86l-272 68q-160 39 -238 117t-78 196q0 195 152 326t381 131q223 0 354 -104t135 -281h-119q-5 128 -107 202t-271 74q-182 0 -292 -97
q-112 -98 -112 -245q0 -82 54 -131q54 -50 184 -80l280 -69q160 -41 236 -117t76 -197q0 -198 -159 -332q-161 -135 -399 -135z" />
    <glyph glyph-name="T" unicode="T" horiz-adv-x="1402" 
d="M680 0h-121l215 1352h-557l16 110h1235l-16 -110h-557z" />
    <glyph glyph-name="U" unicode="U" horiz-adv-x="1507" 
d="M1468 1462l-129 -862q-45 -301 -216 -463t-443 -162q-238 0 -368 126t-130 356q0 33 3 71q2 23 10 76l135 858h121l-140 -880q-7 -44 -8 -69q-2 -40 -2 -54q0 -184 99 -278q100 -95 286 -95q215 0 352 128q136 127 174 368l140 880h116z" />
    <glyph glyph-name="V" unicode="V" horiz-adv-x="1425" 
d="M676 0h-144l-342 1462h123l305 -1343h5l780 1343h131z" />
    <glyph glyph-name="W" unicode="W" horiz-adv-x="1957" 
d="M1364 0h-145l-113 1309h-4l-598 -1309h-144l-149 1462h121l123 -1317h4l602 1317h141l117 -1317h4l600 1317h123z" />
    <glyph glyph-name="X" unicode="X" horiz-adv-x="1406" 
d="M1284 0h-139l-416 688l-620 -688h-150l707 774l-420 688h139l363 -606l538 606h150l-627 -686z" />
    <glyph glyph-name="Y" unicode="Y" horiz-adv-x="1312" 
d="M731 610l-96 -610h-121l96 610l-420 852h129l367 -739h6l588 739h141z" />
    <glyph glyph-name="Z" unicode="Z" horiz-adv-x="1349" 
d="M1376 1462l-16 -102l-1147 -1249h952l-18 -111h-1112l14 88l1155 1264h-919l16 110h1075z" />
    <glyph glyph-name="bracketleft" unicode="[" horiz-adv-x="790" 
d="M778 1407h-301l-241 -1528h301l-15 -100h-413l274 1728h410z" />
    <glyph glyph-name="backslash" unicode="\" horiz-adv-x="1003" 
d="M664 -221l-396 1728h111l397 -1728h-112z" />
    <glyph glyph-name="bracketright" unicode="]" horiz-adv-x="790" 
d="M53 -121h301l242 1528h-301l14 100h414l-274 -1728h-410z" />
    <glyph glyph-name="asciicircum" unicode="^" horiz-adv-x="864" 
d="M133 997l406 490h90l254 -490h-117l-193 375l-311 -375h-129z" />
    <glyph glyph-name="underscore" unicode="_" horiz-adv-x="892" 
d="M709 -227h-760l18 108h758z" />
    <glyph glyph-name="grave" unicode="`" horiz-adv-x="1157" 
d="M748 1507l81 -315h-71l-170 315h160z" />
    <glyph glyph-name="a" unicode="a" horiz-adv-x="1103" 
d="M858 0h-119q-2 44 1 89q2 37 10 93q-46 -89 -153 -147t-224 -58q-127 0 -214 73q-85 72 -85 188q0 140 99 229q97 87 286 108l362 43q12 68 14 87q3 27 3 49q0 96 -58 143t-172 47q-117 0 -197 -55q-81 -55 -108 -152h-117q38 142 156 227t276 85t248 -73q88 -72 88 -202
q0 -14 -2 -42q-1 -10 -10 -75l-74 -467q-6 -40 -9 -90q-3 -44 -1 -100zM393 78q151 0 262 90q110 90 133 240l17 110l-324 -37q-161 -18 -223 -73q-63 -56 -63 -162q0 -78 53 -123q52 -45 145 -45z" />
    <glyph glyph-name="b" unicode="b" horiz-adv-x="1239" 
d="M602 -25q-118 0 -216 69t-126 167l-33 -211h-112l239 1507h121l-108 -673q61 100 156 158q95 57 212 57q178 0 286 -117q107 -116 107 -316q0 -266 -151 -453q-152 -188 -375 -188zM1010 616q0 156 -76 244t-213 88q-159 0 -270 -112t-144 -312q-10 -77 -10 -83
q-2 -32 -2 -44q0 -146 83 -234q82 -87 224 -87q179 0 293 154q115 156 115 386z" />
    <glyph glyph-name="c" unicode="c" horiz-adv-x="1073" 
d="M502 -25q-175 0 -283 120t-108 315q0 270 156 454q156 185 388 185q152 0 248 -91q95 -90 96 -243h-110q-7 109 -71 170q-62 59 -171 59q-183 0 -301 -151q-119 -152 -119 -379q0 -152 75 -243t200 -91q118 0 198 57q79 57 123 172h113q-50 -161 -163 -247
q-114 -87 -271 -87z" />
    <glyph glyph-name="d" unicode="d" horiz-adv-x="1239" 
d="M635 1053q121 0 213 -66q93 -67 121 -168l110 688h119l-237 -1505h-111l31 199q-63 -105 -164 -165q-102 -61 -215 -61q-179 0 -285 118t-106 317q0 265 150 454t374 189zM227 410q0 -157 77 -246q76 -88 214 -88q158 0 267 114q110 115 145 314q9 69 10 81q2 34 2 46
q0 146 -83 234q-83 87 -224 87q-180 0 -293 -155q-115 -157 -115 -387z" />
    <glyph glyph-name="e" unicode="e" horiz-adv-x="1120" 
d="M854 291h113q-53 -148 -173 -232t-272 -84q-191 0 -302 116q-111 115 -111 317q0 270 157 455q158 186 387 186q173 0 268 -108q95 -109 95 -298q0 -40 -4 -76q-3 -24 -13 -84h-772q-2 -26 -3 -41q-1 -11 -1 -30q0 -157 83 -245q83 -87 231 -87q106 0 184 51
q76 50 133 160zM899 643q0 149 -65 224q-66 77 -193 77q-139 0 -249 -99q-109 -98 -148 -263h651q1 12 3 27q1 10 1 34z" />
    <glyph glyph-name="f" unicode="f" horiz-adv-x="608" 
d="M137 0l148 928h-152l14 96h152l37 227q21 125 101 193q81 69 200 69q24 0 53 -3q28 -3 55 -9l-16 -100q-24 5 -51 6q-36 2 -51 2q-75 0 -118 -39q-44 -40 -56 -117l-37 -229h227l-14 -96h-228l-147 -928h-117z" />
    <glyph glyph-name="g" unicode="g" horiz-adv-x="1239" 
d="M459 -289q173 0 267 85q96 87 124 265l27 166q-63 -100 -162 -157q-101 -58 -213 -58q-176 0 -285 115q-108 114 -108 305q0 257 151 436q152 181 375 181q118 0 215 -68t127 -168l33 211h112l-153 -967q-34 -217 -166 -332q-131 -114 -348 -114q-179 0 -286 76
q-108 77 -114 211h119q11 -94 82 -140q73 -47 203 -47zM518 117q160 0 269 108q110 109 143 297q9 62 10 76q2 32 2 45q0 139 -84 222q-85 83 -223 83q-180 0 -294 -147t-114 -369q0 -149 77 -232t214 -83z" />
    <glyph glyph-name="h" unicode="h" horiz-adv-x="1198" 
d="M354 1507h121l-108 -673q50 101 144 158q93 57 214 57q151 0 234 -80t83 -224q0 -11 -2 -39q0 -7 -1.5 -21t-2.5 -21l-104 -664h-121l100 639q7 49 8 57q1 11 1 29q0 109 -58 167q-56 56 -168 56q-147 0 -243 -97q-97 -98 -125 -280l-90 -571h-121z" />
    <glyph glyph-name="i" unicode="i" horiz-adv-x="514" 
d="M444 1260h-145l29 180h145zM115 0l161 1024h121l-161 -1024h-121z" />
    <glyph glyph-name="j" unicode="j" horiz-adv-x="514" 
d="M444 1260h-145l29 180h145zM-51 -377q-20 0 -45 5q-9 2 -43 14l16 98q29 -9 39 -10q20 -2 29 -2q72 0 105 33q34 34 46 118l180 1145h121l-178 -1133q-21 -137 -86 -202q-66 -66 -184 -66z" />
    <glyph glyph-name="k" unicode="k" horiz-adv-x="1105" 
d="M965 0h-138l-354 522l-178 -145l-59 -377h-121l239 1507h121l-158 -993l617 510h158l-531 -434z" />
    <glyph glyph-name="l" unicode="l" horiz-adv-x="514" 
d="M475 1507l-239 -1507h-121l239 1507h121z" />
    <glyph glyph-name="m" unicode="m" horiz-adv-x="1824" 
d="M715 1049q123 0 195 -58q70 -56 85 -170q66 108 163 168q98 60 212 60q146 0 223 -76q78 -77 78 -217q0 -17 -2 -47q-1 -23 -6 -45l-104 -664h-121l100 639q4 24 6 50q2 34 2 50q0 108 -49 158q-50 51 -154 51q-137 0 -231 -99t-123 -278l-90 -571h-121l101 639
q4 23 6 49q2 32 2 49q0 106 -50 159q-49 52 -155 52q-137 0 -231 -98q-95 -100 -125 -279l-90 -571h-121l161 1024h113l-31 -195q52 101 149 161q95 59 208 59z" />
    <glyph glyph-name="n" unicode="n" horiz-adv-x="1198" 
d="M276 1024h113l-31 -195q51 102 149 161t218 59q151 0 234 -80t83 -224q0 -11 -2 -39q0 -7 -1.5 -21t-2.5 -21l-104 -664h-121l100 639q7 49 8 57q1 11 1 29q0 109 -58 167q-56 56 -168 56q-147 0 -243 -97q-97 -98 -125 -280l-90 -571h-121z" />
    <glyph glyph-name="o" unicode="o" horiz-adv-x="1171" 
d="M1059 610q0 -267 -155 -451t-386 -184q-186 0 -297 119q-110 117 -110 320q0 269 154 451q155 184 386 184q186 0 297 -119q111 -118 111 -320zM227 414q0 -156 80 -245t221 -89q182 0 298 150q116 151 116 380q0 156 -80 245t-221 89q-182 0 -298 -150
q-116 -151 -116 -380z" />
    <glyph glyph-name="p" unicode="p" horiz-adv-x="1239" 
d="M602 -25q-119 0 -212 66q-94 67 -122 166l-90 -572h-121l219 1389h113l-31 -197q61 102 161 162q99 60 216 60q178 0 286 -117q107 -116 107 -316q0 -266 -151 -453q-152 -188 -375 -188zM1010 616q0 156 -76 244t-213 88q-159 0 -270 -112t-144 -312q-10 -77 -10 -83
q-2 -32 -2 -44q0 -146 83 -234q82 -87 224 -87q179 0 293 154q115 156 115 386z" />
    <glyph glyph-name="q" unicode="q" horiz-adv-x="1239" 
d="M635 1049q119 0 216 -69q98 -69 126 -167l33 211h112l-219 -1389h-121l88 555q-61 -100 -156 -158q-94 -57 -212 -57q-178 0 -286 117q-107 116 -107 316q0 266 151 453q152 188 375 188zM227 408q0 -156 76 -244t213 -88q159 0 270 112t144 312q10 77 10 83q2 32 2 44
q0 146 -83 234q-83 87 -224 87q-179 0 -293 -154q-115 -156 -115 -386z" />
    <glyph glyph-name="r" unicode="r" horiz-adv-x="757" 
d="M725 1049q15 0 43 -2q15 -1 39 -7l-19 -108q-15 5 -35 6q-28 2 -44 2q-141 0 -251 -115q-111 -116 -141 -303l-81 -522h-121l161 1024h113l-39 -250q51 125 153 200t222 75z" />
    <glyph glyph-name="s" unicode="s" horiz-adv-x="989" 
d="M442 -25q-185 0 -292 85q-110 87 -111 239h115q-2 -108 78 -165q80 -58 221 -58q121 0 200 61q80 62 80 152q0 55 -39 92q-38 36 -123 59l-182 52q-121 34 -175 93t-54 148q0 136 107 225q109 91 274 91q166 0 265 -75q98 -75 103 -210h-110q-6 90 -76 137t-193 47
q-117 0 -187 -58q-71 -59 -71 -153q0 -53 36 -85q35 -31 132 -58l197 -55q106 -29 158 -88q53 -61 53 -144q0 -142 -115 -237t-291 -95z" />
    <glyph glyph-name="t" unicode="t" horiz-adv-x="735" 
d="M420 88q38 0 73 7t89 26l-15 -105q-44 -16 -86 -24q-43 -8 -80 -8q-113 0 -173 54t-60 155q0 9 2 29q0 5 1.5 15.5t2.5 16.5l107 674h-154l14 96h156l47 264h115l-43 -264h282l-14 -96h-287l-108 -684q-2 -21 -3 -27q-1 -5 -1 -14q0 -58 32 -86q34 -29 103 -29z" />
    <glyph glyph-name="u" unicode="u" horiz-adv-x="1185" 
d="M907 0h-112l30 195q-51 -105 -145 -162q-96 -58 -213 -58q-147 0 -230 80t-83 224q0 11 2 39q0 7 2 21t2 21l104 664h121l-100 -639q-5 -32 -7 -57q-2 -22 -2 -29q0 -109 56 -167q55 -56 166 -56q145 0 238 96q94 97 122 281l90 571h121z" />
    <glyph glyph-name="v" unicode="v" horiz-adv-x="1079" 
d="M487 0h-133l-204 1024h118l170 -905h6l521 905h125z" />
    <glyph glyph-name="w" unicode="w" horiz-adv-x="1519" 
d="M762 1024h129l78 -887h4l440 887h117l-522 -1024h-127l-82 881h-4l-424 -881h-131l-90 1024h114l72 -887h4z" />
    <glyph glyph-name="x" unicode="x" horiz-adv-x="1112" 
d="M555 446l-410 -446h-133l488 530l-283 494h129l232 -410l374 410h133l-454 -494l305 -530h-129z" />
    <glyph glyph-name="y" unicode="y" horiz-adv-x="1079" 
d="M63 -276q81 0 145 57q65 58 157 211l-215 1032h120l174 -889h5l514 889h127l-629 -1063q-117 -199 -206 -271q-88 -71 -202 -71q-22 0 -47 5q-14 3 -41 14l17 102q23 -7 44 -12q17 -4 37 -4z" />
    <glyph glyph-name="z" unicode="z" horiz-adv-x="1048" 
d="M1010 1024l-15 -92l-794 -836h665l-14 -96h-817l12 78l799 850h-619l15 96h768z" />
    <glyph glyph-name="braceleft" unicode="{" horiz-adv-x="868" 
d="M227 592h-112l16 102h113q50 0 81 28q29 26 37 81l80 502q16 104 76 153q59 49 172 49h184l-16 -100h-174q-65 0 -94 -23q-30 -23 -37 -73l-80 -508q-11 -67 -46 -105q-36 -39 -101 -55q52 -15 75 -43q25 -30 25 -76q0 -22 -9 -88q-4 -32 -40 -237q-20 -124 -30 -188
q-7 -45 -7 -62q0 -37 22 -53q23 -17 80 -17h174l-16 -100h-184q-97 0 -142 36t-45 111q0 19 10 96q11 82 37 244q20 120 30 184q7 45 7 64q0 38 -21 58q-22 20 -65 20z" />
    <glyph glyph-name="bar" unicode="|" horiz-adv-x="600" 
d="M127 -221l274 1728h113l-274 -1728h-113z" />
    <glyph glyph-name="braceright" unicode="}" horiz-adv-x="868" 
d="M682 694h113l-17 -102h-112q-50 0 -81 -28q-30 -27 -38 -81l-80 -501q-16 -105 -76 -154q-59 -49 -172 -49h-184l16 100h174q65 0 94 23q30 23 37 73l80 508q11 67 46 105t102 55q-53 16 -76 43q-25 30 -25 76q0 15 10 88q8 59 39 237q20 124 30 188q7 45 7 62
q0 38 -22 54t-80 16h-174l16 100h185q96 0 141 -36t45 -111q0 -26 -9 -95q-7 -56 -38 -245q-23 -135 -30 -183q-7 -45 -7 -65q0 -38 21 -58q22 -20 65 -20z" />
    <glyph glyph-name="asciitilde" unicode="~" horiz-adv-x="1001" 
d="M485 588q-41 42 -58 53q-20 12 -40 12q-43 0 -72 -38q-30 -39 -47 -119h-94q21 126 79 194q59 70 142 70q37 0 70 -18q36 -20 84 -72q43 -45 58 -54q19 -12 40 -12q43 0 72 38t47 120h96q-21 -127 -79 -195q-59 -69 -144 -69q-39 0 -70 17q-34 19 -84 73z" />
    <glyph glyph-name="uni00A0" unicode="&#xa0;" horiz-adv-x="450" 
 />
    <glyph glyph-name="exclamdown" unicode="&#xa1;" horiz-adv-x="606" 
d="M430 1038l-139 -1038h-144l191 1038h92zM362 1462h179l-29 -178h-178z" />
    <glyph glyph-name="cent" unicode="&#xa2;" horiz-adv-x="1085" 
d="M829 315h113q-50 -153 -156 -240q-107 -87 -256 -93l-34 -199h-103l37 205q-146 27 -228 141q-83 115 -83 287q0 258 142 440q143 183 357 201l43 250h103l-45 -252q131 -17 207 -105t78 -225h-109q-6 97 -57 157t-136 72l-153 -870q100 7 170 67t110 164zM240 420
q0 -136 55 -222q56 -88 151 -110l154 866q-162 -24 -261 -173t-99 -361z" />
    <glyph glyph-name="sterling" unicode="&#xa3;" horiz-adv-x="1277" 
d="M301 111h801l-19 -111h-1032l19 111h22q123 0 213 127q90 128 90 299q0 27 -1 41q-2 25 -5 40h-201l17 105h157q-48 158 -55 201q-8 50 -8 94q0 196 138 333q137 136 358 136q196 0 310 -111t114 -293q0 -13 -1 -20q-3 -22 -4 -39h-114q2 16 2 18v19q0 145 -81 230
t-226 85q-170 0 -272 -96q-101 -95 -101 -256q0 -74 33 -185q32 -108 32 -116h453l-16 -105h-416q3 -12 5 -36q1 -12 1 -39q0 -135 -55 -245t-158 -187z" />
    <glyph glyph-name="yen" unicode="&#xa5;" horiz-adv-x="1329" 
d="M1147 440l-17 -104h-434l-53 -336h-119l54 336h-439l17 104h438l33 205h-437l17 107h383l-369 710h129l355 -686h4l553 686h145l-592 -710h385l-16 -107h-439l-32 -205h434z" />
    <glyph glyph-name="section" unicode="&#xa7;" horiz-adv-x="1146" 
d="M772 236q30 -33 45 -73q14 -38 14 -87q0 -157 -108 -259t-285 -102q-162 0 -259 82t-97 223h111q0 -92 68 -147t183 -55q126 0 199 66q74 66 74 171q0 52 -28 97q-25 41 -91 86l-211 145q-118 80 -161 141q-44 62 -44 135q0 94 50 171q51 78 149 135q-32 33 -47 73
q-15 39 -15 88q0 156 107 258q108 103 283 103q161 0 258 -77q96 -76 96 -208h-111q0 86 -66 134t-184 48q-126 0 -197 -64q-73 -65 -73 -173q0 -52 29 -95t94 -87l209 -146q121 -81 163 -139q44 -61 44 -131q0 -97 -49 -174t-150 -139zM449 475l196 -135q5 -2 25 -16
q8 -6 17.5 -13.5t12.5 -9.5q75 34 118 94q44 62 44 133q0 50 -35 94t-125 107l-194 133q-33 24 -37 27t-8.5 6t-7 5t-4.5 3q-73 -33 -117 -93q-43 -59 -43 -132q0 -55 35 -99q35 -45 123 -104z" />
    <glyph glyph-name="dieresis" unicode="&#xa8;" horiz-adv-x="1157" 
d="M940 1260h-135l29 180h135zM586 1260h-135l28 180h135z" />
    <glyph glyph-name="copyright" unicode="&#xa9;" horiz-adv-x="1800" 
d="M934 1489q314 0 534 -222q222 -224 222 -538q0 -310 -222 -532t-534 -222t-536 222q-222 221 -222 532q0 316 222 538t536 222zM934 1401q-277 0 -472 -197q-196 -198 -196 -475q0 -274 196 -470t472 -196t472 196t196 470q0 277 -196 475q-195 197 -472 197zM946 1073
q-136 0 -212 -91q-77 -92 -77 -249t77 -248q76 -90 212 -90q99 0 160 46q62 47 78 128h114q-24 -137 -116 -212q-90 -74 -236 -74q-181 0 -295 126t-114 324q0 199 114 325t295 126q146 0 237 -75q91 -74 115 -212h-114q-18 82 -79 130q-59 46 -159 46z" />
    <glyph glyph-name="ordfeminine" unicode="&#xaa;" horiz-adv-x="802" 
d="M721 791h-105q-2 23 0 51q1 16 7 63q-29 -57 -101 -95q-69 -36 -147 -36q-89 0 -144 48t-55 126q0 97 68 154t194 72l230 26q8 58 9 65q1 6 1 15q0 57 -35 87t-104 30q-70 0 -116 -33q-47 -33 -63 -94h-106q24 103 102 160t189 57q113 0 176 -51t63 -144q0 -11 -1 -17
q-1 -9 -3 -30l-49 -315q-7 -33 -8 -65q-2 -46 -2 -74zM406 856q93 0 158 55q66 55 81 146l10 65l-194 -22q-100 -15 -136 -47q-38 -33 -38 -97q0 -45 31 -72q33 -28 88 -28zM680 528h-574l15 88h573z" />
    <glyph glyph-name="guillemotleft" unicode="&#xab;" horiz-adv-x="1005" 
d="M649 485l158 -391h-92l-207 391l323 394h101zM270 485l158 -391h-92l-207 391l324 394h100z" />
    <glyph glyph-name="registered" unicode="&#xae;" horiz-adv-x="1179" 
d="M197 1014q0 203 136 338q137 135 335 135q200 0 337 -135q136 -135 136 -338t-136 -339t-337 -136q-199 0 -335 136t-136 339zM262 1014q0 -176 117 -295t289 -119q171 0 288 118t117 296q0 176 -117 294q-116 117 -288 117q-173 0 -289 -117q-117 -118 -117 -294z
M575 956v-186h-90v502h209q88 0 134 -40t46 -116q0 -54 -26 -90t-76 -53l123 -203h-98l-113 186h-109zM575 1198v-166h109q54 0 78 21t24 63q0 41 -25 62q-24 20 -77 20h-109z" />
    <glyph glyph-name="macron" unicode="&#xaf;" horiz-adv-x="1157" 
d="M975 1260h-561l16 102h561z" />
    <glyph glyph-name="degree" unicode="&#xb0;" horiz-adv-x="729" 
d="M446 934q-112 0 -183 71q-70 70 -70 183q0 121 92 210t219 89q112 0 183 -71t71 -183q0 -121 -92 -210t-220 -89zM496 1393q-88 0 -149 -59q-60 -58 -60 -146q0 -73 46 -116q47 -44 122 -44q89 0 148 58q61 59 61 147q0 69 -48 115q-46 45 -120 45z" />
    <glyph glyph-name="twosuperior" unicode="&#xb2;" horiz-adv-x="706" 
d="M518 1479q106 0 169 -57t63 -148q0 -58 -24 -107t-75 -94q-30 -27 -62 -48q-30 -20 -132 -79q-120 -69 -165 -110q-48 -44 -54 -82h442l-16 -92h-562l9 47q12 82 80 156t225 163q138 77 183 128q46 52 46 114q0 56 -35 86t-100 30q-73 0 -128 -47t-71 -122h-106
q24 118 109 189q87 73 204 73z" />
    <glyph glyph-name="threesuperior" unicode="&#xb3;" horiz-adv-x="757" 
d="M586 1063q62 -12 99 -57q38 -46 38 -107q0 -104 -86 -178t-221 -74q-126 0 -202 67q-75 66 -75 181h109q0 -76 46 -118t128 -42q87 0 142 47q54 46 54 119q0 59 -38 88q-40 31 -111 31h-84l14 88h82q77 0 126 44q48 44 48 118q0 55 -37 88t-102 33q-77 0 -129 -41
q-50 -39 -65 -115h-105q24 113 107 179q84 67 200 67q111 0 175 -57q65 -57 65 -146q0 -80 -51 -140t-127 -75z" />
    <glyph glyph-name="acute" unicode="&#xb4;" horiz-adv-x="1157" 
d="M616 1192h-77l166 315h172z" />
    <glyph glyph-name="paragraph" unicode="&#xb6;" horiz-adv-x="1222" 
d="M555 -260h-119l150 952q-206 0 -314 84t-108 242q0 207 145 325q146 119 400 119h458l-272 -1722h-117l254 1606h-223z" />
    <glyph glyph-name="periodcentered" unicode="&#xb7;" horiz-adv-x="532" 
d="M350 485h-178l29 179h178z" />
    <glyph glyph-name="cedilla" unicode="&#xb8;" horiz-adv-x="1157" 
d="M477 -82q65 0 109 -35q43 -34 43 -94q0 -76 -71 -127q-70 -51 -167 -51q-53 0 -96 10t-78 29l14 88q30 -18 76 -32q37 -11 86 -11q66 0 102 23q37 24 37 63q0 29 -25 44t-71 15q-21 0 -40 -4q-28 -6 -42 -10l-30 39l151 196h80l-119 -147q5 1 19 3q7 1 22 1z" />
    <glyph glyph-name="onesuperior" unicode="&#xb9;" horiz-adv-x="669" 
d="M444 750h213l-14 -88h-534l14 88h211l82 514h-207l12 82q127 0 182 23q58 24 86 97h68z" />
    <glyph glyph-name="ordmasculine" unicode="&#xba;" horiz-adv-x="847" 
d="M842 1192q0 -176 -106 -299q-105 -121 -263 -121q-129 0 -206 80t-77 213q0 177 106 300q105 122 263 122q129 0 206 -80t77 -215zM731 1196q2 95 -46 147q-49 54 -132 54q-110 0 -181 -95t-71 -239q0 -95 48 -149t132 -54q111 0 182 96q70 95 68 240zM707 528h-574
l14 88h574z" />
    <glyph glyph-name="guillemotright" unicode="&#xbb;" horiz-adv-x="1005" 
d="M348 487l-158 392h93l206 -392l-323 -393h-100zM727 487l-158 392h93l206 -392l-323 -393h-101z" />
    <glyph glyph-name="onequarter" unicode="&#xbc;" horiz-adv-x="1804" 
d="M1673 1489l-1296 -1514h-123l1296 1514h123zM506 750h213l-14 -88h-535l14 88h211l82 514h-207l13 82q127 0 182 23q58 24 86 97h67zM1485 801h125l-84 -514h170l-13 -86h-170l-30 -201h-107l31 201h-399l14 88zM1419 287l66 403l-359 -403h293z" />
    <glyph glyph-name="onehalf" unicode="&#xbd;" horiz-adv-x="1820" 
d="M506 750h213l-14 -88h-535l14 88h211l82 514h-207l13 82q127 0 182 23q58 24 86 97h67zM1694 1489l-1297 -1514h-123l1297 1514h123zM1528 817q107 0 169 -56t62 -149q0 -59 -23 -106q-24 -49 -75 -94q-27 -24 -63 -48q-30 -20 -132 -79q-117 -67 -165 -111t-54 -82h443
l-17 -92h-561l8 47q12 82 81 157t224 163q140 79 184 128q46 52 46 113q0 56 -35 86q-36 31 -100 31q-73 0 -128 -47t-71 -123h-107q24 116 110 189q87 73 204 73z" />
    <glyph glyph-name="threequarters" unicode="&#xbe;" horiz-adv-x="1863" 
d="M1544 801h125l-84 -514h170l-12 -86h-170l-31 -201h-106l30 201h-399l14 88zM1479 287l65 403l-358 -403h293zM1733 1489l-1297 -1514h-123l1297 1514h123zM647 1063q61 -12 99 -57q38 -46 38 -107q0 -104 -86 -178t-221 -74q-126 0 -202 67q-74 65 -74 181h108
q0 -76 46 -118t128 -42q88 0 143 47q54 46 54 119q0 58 -39 88q-40 31 -111 31h-84l15 88h82q77 0 126 44q48 44 48 118q0 55 -37 88t-102 33q-77 0 -129 -41q-51 -40 -66 -115h-104q24 114 106 179q84 67 201 67q110 0 175 -57q64 -57 64 -146q0 -80 -51 -140t-127 -75z
" />
    <glyph glyph-name="questiondown" unicode="&#xbf;" horiz-adv-x="1130" 
d="M477 -25q-182 0 -288 101q-105 100 -105 262q0 82 29 155q29 74 88 140q29 36 73 74q31 27 175 131q104 69 140 121q37 54 54 128h121q-21 -99 -83 -180q-61 -80 -198 -176q-172 -121 -227 -206t-55 -183q0 -121 74 -188q76 -68 212 -68q155 0 264 96q108 95 146 256h115
q-37 -205 -184 -334t-351 -129zM674 1462h178l-29 -178h-178z" />
    <glyph glyph-name="Agrave" unicode="&#xc0;" horiz-adv-x="1413" 
d="M1290 0h-127l-100 436h-725l-250 -436h-129l844 1462h139zM856 1333h-4l-453 -790h639zM838 1870l82 -293h-72l-180 293h170z" />
    <glyph glyph-name="Aacute" unicode="&#xc1;" horiz-adv-x="1413" 
d="M1290 0h-127l-100 436h-725l-250 -436h-129l844 1462h139zM856 1333h-4l-453 -790h639zM922 1577h-78l166 293h174z" />
    <glyph glyph-name="Acircumflex" unicode="&#xc2;" horiz-adv-x="1413" 
d="M1290 0h-127l-100 436h-725l-250 -436h-129l844 1462h139zM856 1333h-4l-453 -790h639zM586 1571l252 299h155l154 -299h-80l-160 203l-237 -203h-84z" />
    <glyph glyph-name="Atilde" unicode="&#xc3;" horiz-adv-x="1413" 
d="M1290 0h-127l-100 436h-725l-250 -436h-129l844 1462h139zM856 1333h-4l-453 -790h639zM874 1671q-44 44 -63 55q-23 13 -41 13q-43 0 -73 -40q-29 -39 -44 -118h-90q21 127 79 195q58 69 144 69q38 0 71 -17q35 -18 87 -73q40 -42 60 -53q21 -12 40 -12q44 0 72 37
q29 38 47 120h88q-21 -126 -79 -194q-59 -70 -144 -70q-34 0 -69 18q-34 18 -85 70z" />
    <glyph glyph-name="Adieresis" unicode="&#xc4;" horiz-adv-x="1413" 
d="M1290 0h-127l-100 436h-725l-250 -436h-129l844 1462h139zM856 1333h-4l-453 -790h639zM1139 1620h-135l28 180h135zM784 1620h-135l29 180h135z" />
    <glyph glyph-name="Aring" unicode="&#xc5;" horiz-adv-x="1413" 
d="M1063 436h-725l-250 -436h-129l803 1391q-56 29 -87 79q-32 52 -32 113q0 110 80 192q79 80 195 80q95 0 157 -62q64 -64 64 -153q0 -84 -49 -154q-51 -73 -129 -102l329 -1384h-127zM1038 1628q0 56 -38 94q-37 37 -95 37q-69 0 -115 -48q-47 -49 -47 -116q0 -56 38 -94
q37 -37 96 -37q69 0 115 48q46 47 46 116zM856 1333h-4l-453 -790h639z" />
    <glyph glyph-name="AE" unicode="&#xc6;" horiz-adv-x="2211" 
d="M1989 0h-949l70 436h-641l-369 -436h-141l1239 1462h1028l-18 -110h-832l-90 -568h742l-19 -110h-741l-88 -563h827zM1126 543l131 827l-698 -827h567z" />
    <glyph glyph-name="Ccedilla" unicode="&#xc7;" horiz-adv-x="1382" 
d="M618 -82q65 0 109 -35q43 -34 43 -94q0 -76 -71 -127t-167 -51q-53 0 -96 10t-78 29l15 88q30 -18 76 -32q37 -11 86 -11q65 0 101 23q38 24 38 63q0 29 -26 44t-70 15q-21 0 -40 -4q-28 -6 -42 -10l-31 39l96 125q-197 45 -309 208q-113 164 -113 402q0 373 212 630
t534 257q215 0 343 -116t140 -316h-125q-6 148 -103 233q-98 86 -263 86q-269 0 -439 -221t-170 -557q0 -235 116 -372q115 -136 321 -136q162 0 271 79q110 80 165 241h129q-70 -210 -216 -321q-148 -112 -358 -112q-16 0 -25 1q-31 3 -42 4l-51 -66q8 2 18 3q7 1 22 1z
" />
    <glyph glyph-name="Egrave" unicode="&#xc8;" horiz-adv-x="1296" 
d="M1071 0h-948l231 1462h955l-19 -110h-831l-90 -568h741l-18 -110h-742l-88 -563h828zM819 1870l82 -293h-72l-180 293h170z" />
    <glyph glyph-name="Eacute" unicode="&#xc9;" horiz-adv-x="1296" 
d="M1071 0h-948l231 1462h955l-19 -110h-831l-90 -568h741l-18 -110h-742l-88 -563h828zM842 1577h-78l166 293h174z" />
    <glyph glyph-name="Ecircumflex" unicode="&#xca;" horiz-adv-x="1296" 
d="M1071 0h-948l231 1462h955l-19 -110h-831l-90 -568h741l-18 -110h-742l-88 -563h828zM575 1571l252 299h156l154 -299h-80l-160 203l-238 -203h-84z" />
    <glyph glyph-name="Edieresis" unicode="&#xcb;" horiz-adv-x="1296" 
d="M1071 0h-948l231 1462h955l-19 -110h-831l-90 -568h741l-18 -110h-742l-88 -563h828zM1118 1620h-135l29 180h135zM764 1620h-135l28 180h136z" />
    <glyph glyph-name="Igrave" unicode="&#xcc;" horiz-adv-x="530" 
d="M123 0l231 1462h121l-231 -1462h-121zM395 1870l82 -293h-71l-181 293h170z" />
    <glyph glyph-name="Iacute" unicode="&#xcd;" horiz-adv-x="530" 
d="M123 0l231 1462h121l-231 -1462h-121zM479 1577h-78l166 293h174z" />
    <glyph glyph-name="Icircumflex" unicode="&#xce;" horiz-adv-x="530" 
d="M123 0l231 1462h121l-231 -1462h-121zM147 1571l252 299h156l154 -299h-80l-160 203l-238 -203h-84z" />
    <glyph glyph-name="Idieresis" unicode="&#xcf;" horiz-adv-x="530" 
d="M123 0l231 1462h121l-231 -1462h-121zM684 1620h-135l29 180h135zM330 1620h-135l28 180h135z" />
    <glyph glyph-name="Eth" unicode="&#xd0;" horiz-adv-x="1531" 
d="M1458 852q0 -375 -231 -613q-231 -239 -586 -239h-496l109 688h-176l18 111h176l105 663h485q277 0 436 -164q160 -165 160 -446zM379 688l-92 -577h370q302 0 487 204t185 535q0 240 -125 371t-358 131h-363l-88 -553h340l-18 -111h-338z" />
    <glyph glyph-name="Ntilde" unicode="&#xd1;" horiz-adv-x="1527" 
d="M354 1462h150l649 -1245h4l197 1245h119l-232 -1462h-104l-680 1315h-4l-209 -1315h-121zM911 1671q-44 44 -63 55q-23 13 -41 13q-43 0 -73 -40q-29 -39 -44 -118h-90q21 127 79 195q59 69 144 69q38 0 71 -17q35 -18 87 -73q41 -43 59 -53q21 -12 41 -12q44 0 72 37
q29 38 47 120h88q-21 -126 -79 -194q-59 -70 -144 -70q-35 0 -69 18t-85 70z" />
    <glyph glyph-name="Ograve" unicode="&#xd2;" horiz-adv-x="1511" 
d="M139 600q0 376 209 632q208 255 533 255q252 0 405 -172q154 -174 154 -453q0 -376 -209 -632q-209 -255 -533 -255q-252 0 -405 172q-154 174 -154 453zM1311 866q0 236 -117 372t-322 136q-270 0 -437 -219q-167 -220 -167 -559q0 -236 117 -372t322 -136
q271 0 437 219q167 220 167 559zM887 1870l82 -293h-72l-180 293h170z" />
    <glyph glyph-name="Oacute" unicode="&#xd3;" horiz-adv-x="1511" 
d="M139 600q0 376 209 632q208 255 533 255q252 0 405 -172q154 -174 154 -453q0 -376 -209 -632q-209 -255 -533 -255q-252 0 -405 172q-154 174 -154 453zM1311 866q0 236 -117 372t-322 136q-270 0 -437 -219q-167 -220 -167 -559q0 -236 117 -372t322 -136
q271 0 437 219q167 220 167 559zM930 1577h-78l166 293h174z" />
    <glyph glyph-name="Ocircumflex" unicode="&#xd4;" horiz-adv-x="1511" 
d="M139 600q0 376 209 632q208 255 533 255q252 0 405 -172q154 -174 154 -453q0 -376 -209 -632q-209 -255 -533 -255q-252 0 -405 172q-154 174 -154 453zM1311 866q0 236 -117 372t-322 136q-270 0 -437 -219q-167 -220 -167 -559q0 -236 117 -372t322 -136
q271 0 437 219q167 220 167 559zM623 1571l251 299h156l154 -299h-80l-160 203l-237 -203h-84z" />
    <glyph glyph-name="Otilde" unicode="&#xd5;" horiz-adv-x="1511" 
d="M139 600q0 376 209 632q208 255 533 255q252 0 405 -172q154 -174 154 -453q0 -376 -209 -632q-209 -255 -533 -255q-252 0 -405 172q-154 174 -154 453zM1311 866q0 236 -117 372t-322 136q-270 0 -437 -219q-167 -220 -167 -559q0 -236 117 -372t322 -136
q271 0 437 219q167 220 167 559zM903 1671q-44 44 -63 55q-23 13 -41 13q-43 0 -73 -40q-29 -39 -44 -118h-90q21 127 79 195q59 69 144 69q38 0 71 -17q35 -18 87 -73q41 -43 59 -53q21 -12 41 -12q44 0 72 37q29 38 47 120h88q-21 -126 -79 -194q-59 -70 -144 -70
q-35 0 -69 18t-85 70z" />
    <glyph glyph-name="Odieresis" unicode="&#xd6;" horiz-adv-x="1511" 
d="M139 600q0 376 209 632q208 255 533 255q252 0 405 -172q154 -174 154 -453q0 -376 -209 -632q-209 -255 -533 -255q-252 0 -405 172q-154 174 -154 453zM1311 866q0 236 -117 372t-322 136q-270 0 -437 -219q-167 -220 -167 -559q0 -236 117 -372t322 -136
q271 0 437 219q167 220 167 559zM1165 1620h-135l29 180h135zM811 1620h-135l29 180h135z" />
    <glyph glyph-name="multiply" unicode="&#xd7;" 
d="M1100 295l-82 -72l-322 381l-450 -387l-68 80l451 389l-322 379l84 72l320 -379l444 383l68 -82l-445 -383z" />
    <glyph glyph-name="Oslash" unicode="&#xd8;" horiz-adv-x="1511" 
d="M1440 862q0 -376 -209 -632q-209 -255 -533 -255q-117 0 -219 41q-98 40 -176 119l-180 -196l-70 67l191 205q-51 80 -78 178q-27 99 -27 211q0 376 209 632q208 255 533 255q117 0 219 -41q98 -40 176 -119l166 178l67 -65l-174 -189q51 -80 78 -178q27 -99 27 -211z
M872 1374q-270 0 -437 -219q-167 -220 -167 -559q0 -80 16 -158q14 -69 46 -133l864 934q-56 66 -138 101q-80 34 -184 34zM707 88q271 0 437 219q167 220 167 559q0 80 -16 158q-14 69 -46 133l-864 -934q56 -65 138 -100t184 -35z" />
    <glyph glyph-name="Ugrave" unicode="&#xd9;" horiz-adv-x="1507" 
d="M1468 1462l-129 -862q-45 -301 -216 -463t-443 -162q-238 0 -368 126t-130 356q0 33 3 71q2 23 10 76l135 858h121l-140 -880q-7 -44 -8 -69q-2 -40 -2 -54q0 -184 99 -278q100 -95 286 -95q215 0 352 128q136 127 174 368l140 880h116zM885 1870l82 -293h-72l-180 293
h170z" />
    <glyph glyph-name="Uacute" unicode="&#xda;" horiz-adv-x="1507" 
d="M1468 1462l-129 -862q-45 -301 -216 -463t-443 -162q-238 0 -368 126t-130 356q0 33 3 71q2 23 10 76l135 858h121l-140 -880q-7 -44 -8 -69q-2 -40 -2 -54q0 -184 99 -278q100 -95 286 -95q215 0 352 128q136 127 174 368l140 880h116zM909 1577h-78l166 293h174z" />
    <glyph glyph-name="Ucircumflex" unicode="&#xdb;" horiz-adv-x="1507" 
d="M1468 1462l-129 -862q-45 -301 -216 -463t-443 -162q-238 0 -368 126t-130 356q0 33 3 71q2 23 10 76l135 858h121l-140 -880q-7 -44 -8 -69q-2 -40 -2 -54q0 -184 99 -278q100 -95 286 -95q215 0 352 128q136 127 174 368l140 880h116zM643 1571l252 299h156l153 -299
h-80l-159 203l-238 -203h-84z" />
    <glyph glyph-name="Udieresis" unicode="&#xdc;" horiz-adv-x="1507" 
d="M1468 1462l-129 -862q-45 -301 -216 -463t-443 -162q-238 0 -368 126t-130 356q0 33 3 71q2 23 10 76l135 858h121l-140 -880q-7 -44 -8 -69q-2 -40 -2 -54q0 -184 99 -278q100 -95 286 -95q215 0 352 128q136 127 174 368l140 880h116zM1159 1620h-135l29 180h135z
M805 1620h-135l28 180h136z" />
    <glyph glyph-name="Yacute" unicode="&#xdd;" horiz-adv-x="1312" 
d="M731 610l-96 -610h-121l96 610l-420 852h129l367 -739h6l588 739h141zM842 1577h-78l166 293h174z" />
    <glyph glyph-name="Thorn" unicode="&#xde;" horiz-adv-x="1310" 
d="M1247 817q0 -228 -152 -358q-154 -131 -415 -131h-385l-51 -328h-121l231 1462h119l-45 -288h385q208 0 322 -93q112 -91 112 -264zM412 1063l-99 -625h389q201 0 311 96q107 94 107 273q0 129 -79 192q-81 64 -240 64h-389z" />
    <glyph glyph-name="germandbls" unicode="&#xdf;" horiz-adv-x="1236" 
d="M1130 1217q0 -120 -83 -213q-83 -94 -195 -121q123 -27 199 -128q75 -100 75 -239q0 -244 -158 -387t-401 -143q-36 0 -63 4q-38 6 -62 14l17 105q29 -11 54 -15q23 -4 54 -4q199 0 323 114t124 312q0 144 -88 229q-89 86 -238 86h-82l19 109h82q141 0 227 77t86 200
q0 92 -67 153q-66 60 -173 60q-153 0 -251 -107t-128 -305l-161 -1018h-119l162 1022q39 241 172 375q133 135 333 135q155 0 249 -86q93 -86 93 -229z" />
    <glyph glyph-name="agrave" unicode="&#xe0;" horiz-adv-x="1103" 
d="M858 0h-119q-2 44 1 89q2 37 10 93q-46 -89 -153 -147t-224 -58q-127 0 -214 73q-85 72 -85 188q0 140 99 229q97 87 286 108l362 43q12 68 14 87q3 27 3 49q0 96 -58 143t-172 47q-117 0 -197 -55q-81 -55 -108 -152h-117q38 142 156 227t276 85t248 -73q88 -72 88 -202
q0 -14 -2 -42q-1 -10 -10 -75l-74 -467q-6 -40 -9 -90q-3 -44 -1 -100zM393 78q151 0 262 90q110 90 133 240l17 110l-324 -37q-161 -18 -223 -73q-63 -56 -63 -162q0 -78 53 -123q52 -45 145 -45zM641 1507l82 -315h-72l-170 315h160z" />
    <glyph glyph-name="aacute" unicode="&#xe1;" horiz-adv-x="1103" 
d="M858 0h-119q-2 44 1 89q2 37 10 93q-46 -89 -153 -147t-224 -58q-127 0 -214 73q-85 72 -85 188q0 140 99 229q97 87 286 108l362 43q12 68 14 87q3 27 3 49q0 96 -58 143t-172 47q-117 0 -197 -55q-81 -55 -108 -152h-117q38 142 156 227t276 85t248 -73q88 -72 88 -202
q0 -14 -2 -42q-1 -10 -10 -75l-74 -467q-6 -40 -9 -90q-3 -44 -1 -100zM393 78q151 0 262 90q110 90 133 240l17 110l-324 -37q-161 -18 -223 -73q-63 -56 -63 -162q0 -78 53 -123q52 -45 145 -45zM694 1192h-78l166 315h172z" />
    <glyph glyph-name="acircumflex" unicode="&#xe2;" horiz-adv-x="1103" 
d="M858 0h-119q-2 44 1 89q2 37 10 93q-46 -89 -153 -147t-224 -58q-127 0 -214 73q-85 72 -85 188q0 140 99 229q97 87 286 108l362 43q12 68 14 87q3 27 3 49q0 96 -58 143t-172 47q-117 0 -197 -55q-81 -55 -108 -152h-117q38 142 156 227t276 85t248 -73q88 -72 88 -202
q0 -14 -2 -42q-1 -10 -10 -75l-74 -467q-6 -40 -9 -90q-3 -44 -1 -100zM393 78q151 0 262 90q110 90 133 240l17 110l-324 -37q-161 -18 -223 -73q-63 -56 -63 -162q0 -78 53 -123q52 -45 145 -45zM401 1186l250 321h148l123 -321h-80l-125 233l-232 -233h-84z" />
    <glyph glyph-name="atilde" unicode="&#xe3;" horiz-adv-x="1103" 
d="M858 0h-119q-2 44 1 89q2 37 10 93q-46 -89 -153 -147t-224 -58q-127 0 -214 73q-85 72 -85 188q0 140 99 229q97 87 286 108l362 43q12 68 14 87q3 27 3 49q0 96 -58 143t-172 47q-117 0 -197 -55q-81 -55 -108 -152h-117q38 142 156 227t276 85t248 -73q88 -72 88 -202
q0 -14 -2 -42q-1 -10 -10 -75l-74 -467q-6 -40 -9 -90q-3 -44 -1 -100zM393 78q151 0 262 90q110 90 133 240l17 110l-324 -37q-161 -18 -223 -73q-63 -56 -63 -162q0 -78 53 -123q52 -45 145 -45zM670 1303q-37 41 -64 59q-21 14 -45 14q-41 0 -71 -42q-29 -41 -46 -126
h-90q21 127 79 195q59 70 145 70q32 0 67 -19q32 -17 84 -74q37 -42 63 -58q20 -13 44 -13q40 0 70 40q30 41 48 126h88q-22 -129 -78 -195q-59 -70 -145 -70q-35 0 -66 18q-33 19 -83 75z" />
    <glyph glyph-name="adieresis" unicode="&#xe4;" horiz-adv-x="1103" 
d="M858 0h-119q-2 44 1 89q2 37 10 93q-46 -89 -153 -147t-224 -58q-127 0 -214 73q-85 72 -85 188q0 140 99 229q97 87 286 108l362 43q12 68 14 87q3 27 3 49q0 96 -58 143t-172 47q-117 0 -197 -55q-81 -55 -108 -152h-117q38 142 156 227t276 85t248 -73q88 -72 88 -202
q0 -14 -2 -42q-1 -10 -10 -75l-74 -467q-6 -40 -9 -90q-3 -44 -1 -100zM393 78q151 0 262 90q110 90 133 240l17 110l-324 -37q-161 -18 -223 -73q-63 -56 -63 -162q0 -78 53 -123q52 -45 145 -45zM909 1260h-135l29 180h135zM555 1260h-135l29 180h135z" />
    <glyph glyph-name="aring" unicode="&#xe5;" horiz-adv-x="1103" 
d="M858 0h-119q-2 44 1 89q2 37 10 93q-46 -89 -153 -147t-224 -58q-127 0 -214 73q-85 72 -85 188q0 140 99 229q97 87 286 108l362 43q12 68 14 87q3 27 3 49q0 96 -58 143t-172 47q-117 0 -197 -55q-81 -55 -108 -152h-117q38 142 156 227t276 85t248 -73q88 -72 88 -202
q0 -14 -2 -42q-1 -10 -10 -75l-74 -467q-6 -40 -9 -90q-3 -44 -1 -100zM393 78q151 0 262 90q110 90 133 240l17 110l-324 -37q-161 -18 -223 -73q-63 -56 -63 -162q0 -78 53 -123q52 -45 145 -45zM504 1346q0 89 62 151q64 64 155 64q76 0 126 -50q49 -49 48 -120
q2 -87 -61 -151t-156 -64q-75 0 -124 49q-50 50 -50 121zM592 1356q0 -41 28 -69q27 -27 68 -27q52 0 86 35q34 36 33 85q2 41 -26 69t-70 28q-51 0 -85 -36q-34 -35 -34 -85z" />
    <glyph glyph-name="ae" unicode="&#xe6;" horiz-adv-x="1800" 
d="M1534 291h113q-53 -148 -173 -232t-272 -84q-136 0 -233 71q-96 70 -135 202q-50 -115 -176 -193t-277 -78q-133 0 -219 77t-86 200q0 152 120 240q119 88 336 88h285l17 100q0 5 1 14.5t2 14.5q1 10 1 39q0 95 -59 145q-58 49 -173 49t-194 -55q-80 -56 -107 -152h-117
q38 144 153 228t271 84q137 0 224 -58q86 -57 102 -162q79 106 181 163t214 57q173 0 268 -108q95 -109 95 -298q0 -40 -4 -76q-3 -24 -13 -84h-757q-2 -26 -3 -41q-1 -11 -1 -30q0 -161 76 -246q77 -86 223 -86q106 0 184 51q76 50 133 160zM1579 643q0 147 -66 224
t-192 77q-138 0 -242 -98t-143 -264h639q1 12 3 27q1 10 1 34zM193 256q0 -82 55 -130q56 -48 149 -48q151 0 261 90q111 91 133 240l12 75h-289q-164 0 -242 -56q-79 -57 -79 -171z" />
    <glyph glyph-name="ccedilla" unicode="&#xe7;" horiz-adv-x="1073" 
d="M461 -82q64 0 108 -35q43 -34 43 -94q0 -76 -70 -127q-71 -51 -167 -51q-53 0 -96 10t-78 29l14 88q30 -18 76 -32q37 -11 86 -11q65 0 101 23q38 24 38 63q0 29 -26 44t-70 15q-21 0 -40 -4q-28 -6 -42 -10l-31 39l94 123q-133 33 -212 146q-78 112 -78 276
q0 270 156 454q156 185 388 185q152 0 248 -91q95 -90 96 -243h-110q-7 109 -71 170q-62 59 -171 59q-183 0 -301 -151q-119 -152 -119 -379q0 -152 75 -243t200 -91q118 0 198 57q79 57 123 172h113q-50 -161 -163 -247q-114 -87 -271 -87h-19q-4 0 -12 2l-51 -63q8 2 18 3
q7 1 23 1z" />
    <glyph glyph-name="egrave" unicode="&#xe8;" horiz-adv-x="1120" 
d="M854 291h113q-53 -148 -173 -232t-272 -84q-191 0 -302 116q-111 115 -111 317q0 270 157 455q158 186 387 186q173 0 268 -108q95 -109 95 -298q0 -40 -4 -76q-3 -24 -13 -84h-772q-2 -26 -3 -41q-1 -11 -1 -30q0 -157 83 -245q83 -87 231 -87q106 0 184 51
q76 50 133 160zM899 643q0 149 -65 224q-66 77 -193 77q-139 0 -249 -99q-109 -98 -148 -263h651q1 12 3 27q1 10 1 34zM668 1507l82 -315h-72l-170 315h160z" />
    <glyph glyph-name="eacute" unicode="&#xe9;" horiz-adv-x="1120" 
d="M854 291h113q-53 -148 -173 -232t-272 -84q-191 0 -302 116q-111 115 -111 317q0 270 157 455q158 186 387 186q173 0 268 -108q95 -109 95 -298q0 -40 -4 -76q-3 -24 -13 -84h-772q-2 -26 -3 -41q-1 -11 -1 -30q0 -157 83 -245q83 -87 231 -87q106 0 184 51
q76 50 133 160zM899 643q0 149 -65 224q-66 77 -193 77q-139 0 -249 -99q-109 -98 -148 -263h651q1 12 3 27q1 10 1 34zM700 1192h-77l165 315h173z" />
    <glyph glyph-name="ecircumflex" unicode="&#xea;" horiz-adv-x="1120" 
d="M854 291h113q-53 -148 -173 -232t-272 -84q-191 0 -302 116q-111 115 -111 317q0 270 157 455q158 186 387 186q173 0 268 -108q95 -109 95 -298q0 -40 -4 -76q-3 -24 -13 -84h-772q-2 -26 -3 -41q-1 -11 -1 -30q0 -157 83 -245q83 -87 231 -87q106 0 184 51
q76 50 133 160zM899 643q0 149 -65 224q-66 77 -193 77q-139 0 -249 -99q-109 -98 -148 -263h651q1 12 3 27q1 10 1 34zM424 1186l250 321h147l123 -321h-80l-125 233l-231 -233h-84z" />
    <glyph glyph-name="edieresis" unicode="&#xeb;" horiz-adv-x="1120" 
d="M854 291h113q-53 -148 -173 -232t-272 -84q-191 0 -302 116q-111 115 -111 317q0 270 157 455q158 186 387 186q173 0 268 -108q95 -109 95 -298q0 -40 -4 -76q-3 -24 -13 -84h-772q-2 -26 -3 -41q-1 -11 -1 -30q0 -157 83 -245q83 -87 231 -87q106 0 184 51
q76 50 133 160zM899 643q0 149 -65 224q-66 77 -193 77q-139 0 -249 -99q-109 -98 -148 -263h651q1 12 3 27q1 10 1 34zM938 1260h-135l28 180h136zM584 1260h-135l28 180h135z" />
    <glyph glyph-name="igrave" unicode="&#xec;" horiz-adv-x="514" 
d="M115 0l161 1024h121l-161 -1024h-121zM362 1507l82 -315h-71l-170 315h159z" />
    <glyph glyph-name="iacute" unicode="&#xed;" horiz-adv-x="514" 
d="M115 0l161 1024h121l-161 -1024h-121zM395 1192h-78l166 315h172z" />
    <glyph glyph-name="icircumflex" unicode="&#xee;" horiz-adv-x="514" 
d="M115 0l161 1024h121l-161 -1024h-121zM102 1186l250 321h148l123 -321h-80l-125 233l-232 -233h-84z" />
    <glyph glyph-name="idieresis" unicode="&#xef;" horiz-adv-x="514" 
d="M115 0l161 1024h121l-161 -1024h-121zM618 1260h-135l29 180h135zM264 1260h-135l29 180h135z" />
    <glyph glyph-name="eth" unicode="&#xf0;" horiz-adv-x="1171" 
d="M1059 631q0 -276 -154 -466t-387 -190q-186 0 -297 119q-110 117 -110 320q0 269 154 451q155 184 386 184q83 0 153 -35q67 -34 120 -105q-27 95 -69 177q-43 85 -99 157l-305 -92l-19 78l266 80q-54 58 -105 99q-57 46 -120 87l2 12h152q47 -33 101 -80q44 -39 85 -84
l207 64l20 -78l-174 -53q97 -132 145 -292t48 -353zM940 614q2 153 -78 242q-79 88 -221 88q-182 0 -298 -150q-116 -151 -116 -380q0 -156 80 -245t221 -89q183 0 298 152q115 153 114 382z" />
    <glyph glyph-name="ntilde" unicode="&#xf1;" horiz-adv-x="1198" 
d="M276 1024h113l-31 -195q51 102 149 161t218 59q151 0 234 -80t83 -224q0 -11 -2 -39q0 -7 -1.5 -21t-2.5 -21l-104 -664h-121l100 639q7 49 8 57q1 11 1 29q0 109 -58 167q-56 56 -168 56q-147 0 -243 -97q-97 -98 -125 -280l-90 -571h-121zM711 1303q-37 41 -64 59
q-21 14 -45 14q-41 0 -71 -42q-29 -41 -46 -126h-90q21 127 79 195q59 70 144 70q33 0 68 -19q32 -17 84 -74q37 -42 63 -58q20 -13 44 -13q40 0 70 40q30 41 48 126h88q-22 -129 -78 -195q-59 -70 -145 -70q-34 0 -66 18q-33 19 -83 75z" />
    <glyph glyph-name="ograve" unicode="&#xf2;" horiz-adv-x="1171" 
d="M1059 610q0 -267 -155 -451t-386 -184q-186 0 -297 119q-110 117 -110 320q0 269 154 451q155 184 386 184q186 0 297 -119q111 -118 111 -320zM227 414q0 -156 80 -245t221 -89q182 0 298 150q116 151 116 380q0 156 -80 245t-221 89q-182 0 -298 -150
q-116 -151 -116 -380zM666 1507l82 -315h-72l-170 315h160z" />
    <glyph glyph-name="oacute" unicode="&#xf3;" horiz-adv-x="1171" 
d="M1059 610q0 -267 -155 -451t-386 -184q-186 0 -297 119q-110 117 -110 320q0 269 154 451q155 184 386 184q186 0 297 -119q111 -118 111 -320zM227 414q0 -156 80 -245t221 -89q182 0 298 150q116 151 116 380q0 156 -80 245t-221 89q-182 0 -298 -150
q-116 -151 -116 -380zM719 1192h-78l166 315h172z" />
    <glyph glyph-name="ocircumflex" unicode="&#xf4;" horiz-adv-x="1171" 
d="M1059 610q0 -267 -155 -451t-386 -184q-186 0 -297 119q-110 117 -110 320q0 269 154 451q155 184 386 184q186 0 297 -119q111 -118 111 -320zM227 414q0 -156 80 -245t221 -89q182 0 298 150q116 151 116 380q0 156 -80 245t-221 89q-182 0 -298 -150
q-116 -151 -116 -380zM440 1186l250 321h148l123 -321h-80l-125 233l-232 -233h-84z" />
    <glyph glyph-name="otilde" unicode="&#xf5;" horiz-adv-x="1171" 
d="M1059 610q0 -267 -155 -451t-386 -184q-186 0 -297 119q-110 117 -110 320q0 269 154 451q155 184 386 184q186 0 297 -119q111 -118 111 -320zM227 414q0 -156 80 -245t221 -89q182 0 298 150q116 151 116 380q0 156 -80 245t-221 89q-182 0 -298 -150
q-116 -151 -116 -380zM694 1303q-38 43 -63 59q-21 14 -45 14q-41 0 -71 -42q-29 -41 -46 -126h-90q21 127 79 195q59 70 144 70q33 0 68 -19q32 -17 84 -74q39 -43 62 -58q20 -13 44 -13q41 0 71 40q30 41 48 126h88q-21 -127 -79 -195q-59 -70 -144 -70q-36 0 -67 18
q-33 19 -83 75z" />
    <glyph glyph-name="odieresis" unicode="&#xf6;" horiz-adv-x="1171" 
d="M1059 610q0 -267 -155 -451t-386 -184q-186 0 -297 119q-110 117 -110 320q0 269 154 451q155 184 386 184q186 0 297 -119q111 -118 111 -320zM227 414q0 -156 80 -245t221 -89q182 0 298 150q116 151 116 380q0 156 -80 245t-221 89q-182 0 -298 -150
q-116 -151 -116 -380zM956 1260h-135l29 180h135zM602 1260h-135l29 180h135z" />
    <glyph glyph-name="divide" unicode="&#xf7;" 
d="M848 1028h-174l26 174h174zM1223 627h-1059l18 110h1059zM709 160h-172l26 174h172z" />
    <glyph glyph-name="oslash" unicode="&#xf8;" horiz-adv-x="1171" 
d="M1059 610q0 -267 -155 -451t-386 -184q-81 0 -150 24t-122 71l-140 -148l-63 60l145 153q-38 54 -58 126q-19 69 -19 153q0 269 154 451q155 184 386 184q87 0 162 -29q74 -28 127 -82l125 131l63 -59l-133 -142q31 -54 47 -118q17 -68 17 -140zM641 944
q-182 0 -298 -150q-116 -151 -116 -380q0 -58 12 -105q14 -55 31 -86l592 631q-40 46 -95 68q-56 22 -126 22zM528 80q182 0 298 150q116 151 116 380q0 44 -8 90q-7 42 -23 78l-587 -624q40 -39 91 -56q53 -18 113 -18z" />
    <glyph glyph-name="ugrave" unicode="&#xf9;" horiz-adv-x="1185" 
d="M907 0h-112l30 195q-51 -105 -145 -162q-96 -58 -213 -58q-147 0 -230 80t-83 224q0 11 2 39q0 7 2 21t2 21l104 664h121l-100 -639q-5 -32 -7 -57q-2 -22 -2 -29q0 -109 56 -167q55 -56 166 -56q145 0 238 96q94 97 122 281l90 571h121zM664 1507l81 -315h-71l-170 315
h160z" />
    <glyph glyph-name="uacute" unicode="&#xfa;" horiz-adv-x="1185" 
d="M907 0h-112l30 195q-51 -105 -145 -162q-96 -58 -213 -58q-147 0 -230 80t-83 224q0 11 2 39q0 7 2 21t2 21l104 664h121l-100 -639q-5 -32 -7 -57q-2 -22 -2 -29q0 -109 56 -167q55 -56 166 -56q145 0 238 96q94 97 122 281l90 571h121zM715 1192h-78l166 315h172z" />
    <glyph glyph-name="ucircumflex" unicode="&#xfb;" horiz-adv-x="1185" 
d="M907 0h-112l30 195q-51 -105 -145 -162q-96 -58 -213 -58q-147 0 -230 80t-83 224q0 11 2 39q0 7 2 21t2 21l104 664h121l-100 -639q-5 -32 -7 -57q-2 -22 -2 -29q0 -109 56 -167q55 -56 166 -56q145 0 238 96q94 97 122 281l90 571h121zM438 1186l250 321h148l122 -321
h-79l-125 233l-232 -233h-84z" />
    <glyph glyph-name="udieresis" unicode="&#xfc;" horiz-adv-x="1185" 
d="M907 0h-112l30 195q-51 -105 -145 -162q-96 -58 -213 -58q-147 0 -230 80t-83 224q0 11 2 39q0 7 2 21t2 21l104 664h121l-100 -639q-5 -32 -7 -57q-2 -22 -2 -29q0 -109 56 -167q55 -56 166 -56q145 0 238 96q94 97 122 281l90 571h121zM952 1260h-135l29 180h135z
M598 1260h-135l29 180h135z" />
    <glyph glyph-name="yacute" unicode="&#xfd;" horiz-adv-x="1079" 
d="M63 -276q81 0 145 57q65 58 157 211l-215 1032h120l174 -889h5l514 889h127l-629 -1063q-117 -199 -206 -271q-88 -71 -202 -71q-22 0 -47 5q-14 3 -41 14l17 102q23 -7 44 -12q17 -4 37 -4zM645 1192h-78l166 315h172z" />
    <glyph glyph-name="thorn" unicode="&#xfe;" horiz-adv-x="1239" 
d="M602 -25q-119 0 -212 66q-94 67 -122 166l-90 -572h-121l297 1872h121l-108 -673q61 100 156 158q95 57 212 57q178 0 286 -117q107 -116 107 -316q0 -266 -151 -453q-152 -188 -375 -188zM1010 616q0 156 -76 244t-213 88q-159 0 -270 -112t-144 -312q-10 -77 -10 -83
q-2 -32 -2 -44q0 -146 83 -234q82 -87 224 -87q179 0 293 154q115 156 115 386z" />
    <glyph glyph-name="ydieresis" unicode="&#xff;" horiz-adv-x="1079" 
d="M63 -276q81 0 145 57q65 58 157 211l-215 1032h120l174 -889h5l514 889h127l-629 -1063q-117 -199 -206 -271q-88 -71 -202 -71q-22 0 -47 5q-14 3 -41 14l17 102q23 -7 44 -12q17 -4 37 -4zM881 1260h-136l29 180h135zM526 1260h-135l29 180h135z" />
    <glyph glyph-name="Amacron" unicode="&#x100;" horiz-adv-x="1413" 
d="M1290 0h-127l-100 436h-725l-250 -436h-129l844 1462h139zM856 1333h-4l-453 -790h639zM1171 1618h-561l17 102h561z" />
    <glyph glyph-name="amacron" unicode="&#x101;" horiz-adv-x="1103" 
d="M858 0h-119q-2 44 1 89q2 37 10 93q-46 -89 -153 -147t-224 -58q-127 0 -214 73q-85 72 -85 188q0 140 99 229q97 87 286 108l362 43q12 68 14 87q3 27 3 49q0 96 -58 143t-172 47q-117 0 -197 -55q-81 -55 -108 -152h-117q38 142 156 227t276 85t248 -73q88 -72 88 -202
q0 -14 -2 -42q-1 -10 -10 -75l-74 -467q-6 -40 -9 -90q-3 -44 -1 -100zM393 78q151 0 262 90q110 90 133 240l17 110l-324 -37q-161 -18 -223 -73q-63 -56 -63 -162q0 -78 53 -123q52 -45 145 -45zM948 1260h-561l16 102h562z" />
    <glyph glyph-name="Abreve" unicode="&#x102;" horiz-adv-x="1413" 
d="M1290 0h-127l-100 436h-725l-250 -436h-129l844 1462h139zM856 1333h-4l-453 -790h639zM1116 1870h103q-22 -138 -107 -221q-83 -82 -203 -82q-101 0 -160 62q-61 64 -61 171q0 15 1 24q2 19 7 46h95q-1 -9 -4 -33q-1 -7 -1 -18q0 -71 35 -109q34 -37 103 -37
q76 0 127 51q50 50 65 146z" />
    <glyph glyph-name="abreve" unicode="&#x103;" horiz-adv-x="1103" 
d="M858 0h-119q-2 44 1 89q2 37 10 93q-46 -89 -153 -147t-224 -58q-127 0 -214 73q-85 72 -85 188q0 140 99 229q97 87 286 108l362 43q12 68 14 87q3 27 3 49q0 96 -58 143t-172 47q-117 0 -197 -55q-81 -55 -108 -152h-117q38 142 156 227t276 85t248 -73q88 -72 88 -202
q0 -14 -2 -42q-1 -10 -10 -75l-74 -467q-6 -40 -9 -90q-3 -44 -1 -100zM393 78q151 0 262 90q110 90 133 240l17 110l-324 -37q-161 -18 -223 -73q-63 -56 -63 -162q0 -78 53 -123q52 -45 145 -45zM676 1204q-101 0 -161 63t-60 171q0 10 2 36q1 17 6 33h90q-1 -21 -3 -32
q-1 -7 -1 -19q0 -71 37 -111t104 -40q76 0 129 54q53 55 68 148h98q-22 -139 -106 -221q-83 -82 -203 -82z" />
    <glyph glyph-name="Aogonek" unicode="&#x104;" horiz-adv-x="1413" 
d="M1219 -293l-13 -86q-20 -7 -37 -8q-24 -2 -45 -2q-58 0 -102 38q-43 37 -43 97q0 57 32 113t146 164l-94 413h-725l-250 -436h-129l844 1462h139l348 -1462h-55q-86 -88 -121 -140q-33 -48 -33 -91q0 -31 22 -51q20 -19 58 -19q13 0 33 2q14 1 25 6zM856 1333h-4
l-453 -790h639z" />
    <glyph glyph-name="aogonek" unicode="&#x105;" horiz-adv-x="1103" 
d="M799 -293l-13 -86q-20 -7 -36 -8q-24 -2 -45 -2q-59 0 -103 38q-43 37 -43 97q0 57 32 112q32 54 146 167q0 31 3 75q2 31 10 82q-46 -89 -153 -147t-224 -58q-127 0 -214 73q-85 72 -85 188q0 140 99 229q97 87 286 108l362 43q12 68 14 87q3 27 3 49q0 96 -58 143
t-172 47q-117 0 -197 -55q-81 -55 -108 -152h-117q38 142 156 227t276 85t248 -73q88 -72 88 -202q0 -14 -2 -42q-1 -10 -10 -75l-74 -467q-6 -40 -9 -90q-3 -44 -1 -100h-43q-86 -88 -121 -140q-32 -47 -32 -91q0 -31 21 -51q20 -19 58 -19q13 0 33 2q14 1 25 6zM393 78
q151 0 262 90q110 90 133 240l17 110l-324 -37q-161 -18 -223 -73q-63 -56 -63 -162q0 -78 53 -123q52 -45 145 -45z" />
    <glyph glyph-name="Cacute" unicode="&#x106;" horiz-adv-x="1382" 
d="M696 -25q-251 0 -404 172q-153 173 -153 453q0 373 212 630t534 257q215 0 343 -116t140 -316h-125q-6 148 -103 233q-98 86 -263 86q-269 0 -439 -221t-170 -557q0 -235 116 -372q115 -136 321 -136q162 0 271 79q110 80 165 241h129q-70 -210 -216 -321
q-148 -112 -358 -112zM926 1577h-78l166 293h174z" />
    <glyph glyph-name="cacute" unicode="&#x107;" horiz-adv-x="1073" 
d="M502 -25q-175 0 -283 120t-108 315q0 270 156 454q156 185 388 185q152 0 248 -91q95 -90 96 -243h-110q-7 109 -71 170q-62 59 -171 59q-183 0 -301 -151q-119 -152 -119 -379q0 -152 75 -243t200 -91q118 0 198 57q79 57 123 172h113q-50 -161 -163 -247
q-114 -87 -271 -87zM707 1192h-78l166 315h172z" />
    <glyph glyph-name="Ccircumflex" unicode="&#x108;" horiz-adv-x="1382" 
d="M696 -25q-251 0 -404 172q-153 173 -153 453q0 373 212 630t534 257q215 0 343 -116t140 -316h-125q-6 148 -103 233q-98 86 -263 86q-269 0 -439 -221t-170 -557q0 -235 116 -372q115 -136 321 -136q162 0 271 79q110 80 165 241h129q-70 -210 -216 -321
q-148 -112 -358 -112zM659 1571l252 299h156l154 -299h-80l-160 203l-238 -203h-84z" />
    <glyph glyph-name="ccircumflex" unicode="&#x109;" horiz-adv-x="1073" 
d="M502 -25q-175 0 -283 120t-108 315q0 270 156 454q156 185 388 185q152 0 248 -91q95 -90 96 -243h-110q-7 109 -71 170q-62 59 -171 59q-183 0 -301 -151q-119 -152 -119 -379q0 -152 75 -243t200 -91q118 0 198 57q79 57 123 172h113q-50 -161 -163 -247
q-114 -87 -271 -87zM428 1186l250 321h147l123 -321h-80l-125 233l-231 -233h-84z" />
    <glyph glyph-name="Cdotaccent" unicode="&#x10a;" horiz-adv-x="1382" 
d="M696 -25q-251 0 -404 172q-153 173 -153 453q0 373 212 630t534 257q215 0 343 -116t140 -316h-125q-6 148 -103 233q-98 86 -263 86q-269 0 -439 -221t-170 -557q0 -235 116 -372q115 -136 321 -136q162 0 271 79q110 80 165 241h129q-70 -210 -216 -321
q-148 -112 -358 -112zM989 1620h-143l28 180h144z" />
    <glyph glyph-name="cdotaccent" unicode="&#x10b;" horiz-adv-x="1073" 
d="M502 -25q-175 0 -283 120t-108 315q0 270 156 454q156 185 388 185q152 0 248 -91q95 -90 96 -243h-110q-7 109 -71 170q-62 59 -171 59q-183 0 -301 -151q-119 -152 -119 -379q0 -152 75 -243t200 -91q118 0 198 57q79 57 123 172h113q-50 -161 -163 -247
q-114 -87 -271 -87zM772 1260h-145l28 180h146z" />
    <glyph glyph-name="Ccaron" unicode="&#x10c;" horiz-adv-x="1382" 
d="M696 -25q-251 0 -404 172q-153 173 -153 453q0 373 212 630t534 257q215 0 343 -116t140 -316h-125q-6 148 -103 233q-98 86 -263 86q-269 0 -439 -221t-170 -557q0 -235 116 -372q115 -136 321 -136q162 0 271 79q110 80 165 241h129q-70 -210 -216 -321
q-148 -112 -358 -112zM1237 1870l-252 -299h-156l-153 299h80l159 -203l238 203h84z" />
    <glyph glyph-name="ccaron" unicode="&#x10d;" horiz-adv-x="1073" 
d="M502 -25q-175 0 -283 120t-108 315q0 270 156 454q156 185 388 185q152 0 248 -91q95 -90 96 -243h-110q-7 109 -71 170q-62 59 -171 59q-183 0 -301 -151q-119 -152 -119 -379q0 -152 75 -243t200 -91q118 0 198 57q79 57 123 172h113q-50 -161 -163 -247
q-114 -87 -271 -87zM1016 1507l-250 -321h-148l-122 321h79l125 -233l232 233h84z" />
    <glyph glyph-name="Dcaron" unicode="&#x10e;" horiz-adv-x="1509" 
d="M123 0l231 1462h486q277 0 436 -164q160 -165 160 -446q0 -373 -232 -613q-231 -239 -586 -239h-495zM1307 850q0 240 -125 371t-359 131h-362l-197 -1241h371q301 0 486 204q186 205 186 535zM1212 1870l-251 -299h-156l-154 299h80l160 -203l237 203h84z" />
    <glyph glyph-name="dcaron" unicode="&#x10f;" horiz-adv-x="1239" 
d="M635 1053q121 0 213 -66q93 -67 121 -168l110 688h119l-237 -1505h-111l31 199q-63 -105 -164 -165q-102 -61 -215 -61q-179 0 -285 118t-106 317q0 265 150 454t374 189zM227 410q0 -157 77 -246q76 -88 214 -88q158 0 267 114q110 115 145 314q9 69 10 81q2 34 2 46
q0 146 -83 234q-83 87 -224 87q-180 0 -293 -155q-115 -157 -115 -387zM1587 1507l-229 -430h-64l136 430h157z" />
    <glyph glyph-name="Dcroat" unicode="&#x110;" horiz-adv-x="1531" 
d="M1458 852q0 -375 -231 -613q-231 -239 -586 -239h-496l109 688h-176l18 111h176l105 663h485q277 0 436 -164q160 -165 160 -446zM379 688l-92 -577h370q302 0 487 204t185 535q0 240 -125 371t-358 131h-363l-88 -553h340l-18 -111h-338z" />
    <glyph glyph-name="dcroat" unicode="&#x111;" horiz-adv-x="1234" 
d="M848 0l31 199q-63 -105 -164 -165q-102 -61 -215 -61q-179 0 -285 118t-106 317q0 265 150 454t374 189q121 0 213 -66q93 -67 121 -168l63 400h-268l14 90h268l33 198h119l-31 -198h172l-14 -90h-172l-193 -1217h-110zM225 408q0 -157 77 -246q76 -88 214 -88
q158 0 267 114q110 115 145 314q9 69 10 81q2 34 2 46q0 146 -83 234q-83 87 -224 87q-180 0 -293 -155q-115 -157 -115 -387z" />
    <glyph glyph-name="Emacron" unicode="&#x112;" horiz-adv-x="1296" 
d="M1071 0h-948l231 1462h955l-19 -110h-831l-90 -568h741l-18 -110h-742l-88 -563h828zM1133 1618h-562l17 102h561z" />
    <glyph glyph-name="emacron" unicode="&#x113;" horiz-adv-x="1120" 
d="M854 291h113q-53 -148 -173 -232t-272 -84q-191 0 -302 116q-111 115 -111 317q0 270 157 455q158 186 387 186q173 0 268 -108q95 -109 95 -298q0 -40 -4 -76q-3 -24 -13 -84h-772q-2 -26 -3 -41q-1 -11 -1 -30q0 -157 83 -245q83 -87 231 -87q106 0 184 51
q76 50 133 160zM899 643q0 149 -65 224q-66 77 -193 77q-139 0 -249 -99q-109 -98 -148 -263h651q1 12 3 27q1 10 1 34zM973 1260h-561l16 102h561z" />
    <glyph glyph-name="Ebreve" unicode="&#x114;" horiz-adv-x="1296" 
d="M1071 0h-948l231 1462h955l-19 -110h-831l-90 -568h741l-18 -110h-742l-88 -563h828zM1030 1870h103q-22 -138 -107 -221q-83 -82 -203 -82q-101 0 -160 62q-61 64 -61 171q0 15 1 24q2 19 7 46h95q-1 -9 -4 -33q-1 -7 -1 -18q0 -71 35 -109q34 -37 103 -37q76 0 127 51
q50 50 65 146z" />
    <glyph glyph-name="ebreve" unicode="&#x115;" horiz-adv-x="1120" 
d="M854 291h113q-53 -148 -173 -232t-272 -84q-191 0 -302 116q-111 115 -111 317q0 270 157 455q158 186 387 186q173 0 268 -108q95 -109 95 -298q0 -40 -4 -76q-3 -24 -13 -84h-772q-2 -26 -3 -41q-1 -11 -1 -30q0 -157 83 -245q83 -87 231 -87q106 0 184 51
q76 50 133 160zM899 643q0 149 -65 224q-66 77 -193 77q-139 0 -249 -99q-109 -98 -148 -263h651q1 12 3 27q1 10 1 34zM684 1204q-101 0 -161 63t-60 171q0 10 2 36q1 17 6 33h90q-1 -21 -3 -32q-1 -7 -1 -19q0 -71 37 -111t104 -40q76 0 129 54q53 55 68 148h98
q-22 -139 -106 -221q-83 -82 -203 -82z" />
    <glyph glyph-name="Edotaccent" unicode="&#x116;" horiz-adv-x="1296" 
d="M1071 0h-948l231 1462h955l-19 -110h-831l-90 -568h741l-18 -110h-742l-88 -563h828zM946 1620h-143l28 180h144z" />
    <glyph glyph-name="edotaccent" unicode="&#x117;" horiz-adv-x="1120" 
d="M854 291h113q-53 -148 -173 -232t-272 -84q-191 0 -302 116q-111 115 -111 317q0 270 157 455q158 186 387 186q173 0 268 -108q95 -109 95 -298q0 -40 -4 -76q-3 -24 -13 -84h-772q-2 -26 -3 -41q-1 -11 -1 -30q0 -157 83 -245q83 -87 231 -87q106 0 184 51
q76 50 133 160zM899 643q0 149 -65 224q-66 77 -193 77q-139 0 -249 -99q-109 -98 -148 -263h651q1 12 3 27q1 10 1 34zM766 1260h-145l28 180h146z" />
    <glyph glyph-name="Eogonek" unicode="&#x118;" horiz-adv-x="1296" 
d="M915 -293l-12 -86q-20 -7 -37 -8q-24 -2 -45 -2q-58 0 -102 38q-43 37 -43 97q0 57 32 112q31 53 123 142h-708l231 1462h955l-19 -110h-831l-90 -568h741l-18 -110h-742l-88 -563h828l-19 -111h-139q-86 -88 -121 -140q-33 -48 -33 -91q0 -31 22 -51q20 -19 58 -19
q13 0 33 2q13 1 24 6z" />
    <glyph glyph-name="eogonek" unicode="&#x119;" horiz-adv-x="1120" 
d="M709 -293l-13 -86q-20 -7 -37 -8q-24 -2 -45 -2q-58 0 -102 38q-43 37 -43 97q0 55 29 107t108 131q-29 -6 -40 -7q-26 -2 -44 -2q-191 0 -302 116q-111 115 -111 317q0 270 157 455q158 186 387 186q173 0 268 -108q95 -109 95 -298q0 -40 -4 -76q-3 -24 -13 -84h-772
q-2 -26 -3 -41q-1 -11 -1 -30q0 -157 83 -245q83 -87 231 -87q106 0 184 51q76 50 133 160h113q-22 -58 -60 -109q-43 -59 -157 -162q-101 -90 -138 -142q-41 -58 -41 -109q0 -31 22 -51q20 -19 58 -19q13 0 33 2q14 1 25 6zM899 643q0 149 -65 224q-66 77 -193 77
q-139 0 -249 -99q-109 -98 -148 -263h651q1 12 3 27q1 10 1 34z" />
    <glyph glyph-name="Ecaron" unicode="&#x11a;" horiz-adv-x="1296" 
d="M1071 0h-948l231 1462h955l-19 -110h-831l-90 -568h741l-18 -110h-742l-88 -563h828zM1178 1870l-252 -299h-156l-154 299h80l160 -203l238 203h84z" />
    <glyph glyph-name="ecaron" unicode="&#x11b;" horiz-adv-x="1120" 
d="M854 291h113q-53 -148 -173 -232t-272 -84q-191 0 -302 116q-111 115 -111 317q0 270 157 455q158 186 387 186q173 0 268 -108q95 -109 95 -298q0 -40 -4 -76q-3 -24 -13 -84h-772q-2 -26 -3 -41q-1 -11 -1 -30q0 -157 83 -245q83 -87 231 -87q106 0 184 51
q76 50 133 160zM899 643q0 149 -65 224q-66 77 -193 77q-139 0 -249 -99q-109 -98 -148 -263h651q1 12 3 27q1 10 1 34zM1010 1507l-250 -321h-148l-123 321h80l125 -233l232 233h84z" />
    <glyph glyph-name="Gcircumflex" unicode="&#x11c;" horiz-adv-x="1507" 
d="M696 -25q-251 0 -404 172q-153 173 -153 453q0 169 50 327q49 154 145 279q107 137 247 208q144 73 306 73q218 0 348 -118q131 -119 141 -316h-125q-6 147 -105 234t-267 87q-269 0 -440 -221t-171 -557q0 -237 116 -374q115 -136 321 -136q223 0 365 138t169 388h-381
l19 109h499l-114 -719h-101l27 262q-61 -130 -196 -209q-137 -80 -296 -80zM621 1571l251 299h156l154 -299h-80l-160 203l-237 -203h-84z" />
    <glyph glyph-name="gcircumflex" unicode="&#x11d;" horiz-adv-x="1239" 
d="M459 -289q173 0 267 85q96 87 124 265l27 166q-63 -100 -162 -157q-101 -58 -213 -58q-176 0 -285 115q-108 114 -108 305q0 257 151 436q152 181 375 181q118 0 215 -68t127 -168l33 211h112l-153 -967q-34 -217 -166 -332q-131 -114 -348 -114q-179 0 -286 76
q-108 77 -114 211h119q11 -94 82 -140q73 -47 203 -47zM518 117q160 0 269 108q110 109 143 297q9 62 10 76q2 32 2 45q0 139 -84 222q-85 83 -223 83q-180 0 -294 -147t-114 -369q0 -149 77 -232t214 -83zM469 1186l250 321h147l123 -321h-80l-125 233l-231 -233h-84z" />
    <glyph glyph-name="Gbreve" unicode="&#x11e;" horiz-adv-x="1507" 
d="M696 -25q-251 0 -404 172q-153 173 -153 453q0 169 50 327q49 154 145 279q107 137 247 208q144 73 306 73q218 0 348 -118q131 -119 141 -316h-125q-6 147 -105 234t-267 87q-269 0 -440 -221t-171 -557q0 -237 116 -374q115 -136 321 -136q223 0 365 138t169 388h-381
l19 109h499l-114 -719h-101l27 262q-61 -130 -196 -209q-137 -80 -296 -80zM1116 1870h103q-22 -138 -107 -221q-83 -82 -203 -82q-101 0 -160 62q-61 64 -61 171q0 15 1 24q2 19 7 46h95q-1 -9 -4 -33q-1 -7 -1 -18q0 -71 35 -109q34 -37 103 -37q76 0 127 51q50 50 65 146
z" />
    <glyph glyph-name="gbreve" unicode="&#x11f;" horiz-adv-x="1239" 
d="M459 -289q173 0 267 85q96 87 124 265l27 166q-63 -100 -162 -157q-101 -58 -213 -58q-176 0 -285 115q-108 114 -108 305q0 257 151 436q152 181 375 181q118 0 215 -68t127 -168l33 211h112l-153 -967q-34 -217 -166 -332q-131 -114 -348 -114q-179 0 -286 76
q-108 77 -114 211h119q11 -94 82 -140q73 -47 203 -47zM518 117q160 0 269 108q110 109 143 297q9 62 10 76q2 32 2 45q0 139 -84 222q-85 83 -223 83q-180 0 -294 -147t-114 -369q0 -149 77 -232t214 -83zM729 1204q-101 0 -161 63t-60 171q0 10 2 36q1 17 6 33h90
q-1 -21 -3 -32q-1 -7 -1 -19q0 -71 37 -111t104 -40q77 0 129 54q53 55 68 148h98q-22 -139 -106 -221q-83 -82 -203 -82z" />
    <glyph glyph-name="Gdotaccent" unicode="&#x120;" horiz-adv-x="1507" 
d="M696 -25q-251 0 -404 172q-153 173 -153 453q0 169 50 327q49 154 145 279q107 137 247 208q144 73 306 73q218 0 348 -118q131 -119 141 -316h-125q-6 147 -105 234t-267 87q-269 0 -440 -221t-171 -557q0 -237 116 -374q115 -136 321 -136q223 0 365 138t169 388h-381
l19 109h499l-114 -719h-101l27 262q-61 -130 -196 -209q-137 -80 -296 -80zM991 1620h-143l29 180h143z" />
    <glyph glyph-name="gdotaccent" unicode="&#x121;" horiz-adv-x="1239" 
d="M459 -289q173 0 267 85q96 87 124 265l27 166q-63 -100 -162 -157q-101 -58 -213 -58q-176 0 -285 115q-108 114 -108 305q0 257 151 436q152 181 375 181q118 0 215 -68t127 -168l33 211h112l-153 -967q-34 -217 -166 -332q-131 -114 -348 -114q-179 0 -286 76
q-108 77 -114 211h119q11 -94 82 -140q73 -47 203 -47zM518 117q160 0 269 108q110 109 143 297q9 62 10 76q2 32 2 45q0 139 -84 222q-85 83 -223 83q-180 0 -294 -147t-114 -369q0 -149 77 -232t214 -83zM813 1260h-145l28 180h146z" />
    <glyph glyph-name="Gcommaaccent" unicode="&#x122;" horiz-adv-x="1507" 
d="M696 -25q-251 0 -404 172q-153 173 -153 453q0 169 50 327q49 154 145 279q107 137 247 208q144 73 306 73q218 0 348 -118q131 -119 141 -316h-125q-6 147 -105 234t-267 87q-269 0 -440 -221t-171 -557q0 -237 116 -374q115 -136 321 -136q223 0 365 138t169 388h-381
l19 109h499l-114 -719h-101l27 262q-61 -130 -196 -209q-137 -80 -296 -80zM651 -248h-84l21 133h172l-21 -135q-16 -99 -69 -149t-146 -50l11 68q50 0 79 32q30 33 37 101z" />
    <glyph glyph-name="gcommaaccent" unicode="&#x123;" horiz-adv-x="1239" 
d="M459 -289q173 0 267 85q96 87 124 265l27 166q-63 -100 -162 -157q-101 -58 -213 -58q-176 0 -285 115q-108 114 -108 305q0 257 151 436q152 181 375 181q118 0 215 -68t127 -168l33 211h112l-153 -967q-34 -217 -166 -332q-131 -114 -348 -114q-179 0 -286 76
q-108 77 -114 211h119q11 -94 82 -140q73 -47 203 -47zM518 117q160 0 269 108q110 109 143 297q9 62 10 76q2 32 2 45q0 139 -84 222q-85 83 -223 83q-180 0 -294 -147t-114 -369q0 -149 77 -232t214 -83zM745 1335h84l-20 -133h-172l20 135q16 99 70 150q52 49 145 49
l-10 -68q-52 0 -80 -31q-29 -33 -37 -102z" />
    <glyph glyph-name="Hcircumflex" unicode="&#x124;" horiz-adv-x="1570" 
d="M244 0h-121l231 1462h121l-104 -663h919l105 663h121l-232 -1462h-121l109 688h-920zM664 1571l251 299h156l154 -299h-80l-160 203l-237 -203h-84z" />
    <glyph glyph-name="hcircumflex" unicode="&#x125;" horiz-adv-x="1198" 
d="M354 1507h121l-108 -673q50 101 144 158q93 57 214 57q151 0 234 -80t83 -224q0 -11 -2 -39q0 -7 -1.5 -21t-2.5 -21l-104 -664h-121l100 639q7 49 8 57q1 11 1 29q0 109 -58 167q-56 56 -168 56q-147 0 -243 -97q-97 -98 -125 -280l-90 -571h-121zM467 1571l252 299h155
l154 -299h-80l-160 203l-237 -203h-84z" />
    <glyph glyph-name="Hbar" unicode="&#x126;" horiz-adv-x="1611" 
d="M1280 606h-920l-96 -606h-121l164 1036h-174l19 111h174l49 315h121l-52 -315h920l51 315h121l-49 -315h174l-19 -111h-174l-163 -1036h-121zM428 1036l-51 -319h919l52 319h-920z" />
    <glyph glyph-name="hbar" unicode="&#x127;" horiz-adv-x="1198" 
d="M694 948q-147 0 -243 -97q-97 -98 -125 -280l-90 -571h-121l192 1217h-172l15 90h172l32 200h121l-33 -200h269l-15 -90h-268l-61 -383q50 101 144 158q93 57 214 57q151 0 234 -80t83 -224q0 -11 -2 -39q0 -7 -1.5 -21t-2.5 -21l-104 -664h-121l100 639q7 49 8 57
q1 11 1 29q0 109 -58 167q-56 56 -168 56z" />
    <glyph glyph-name="Itilde" unicode="&#x128;" horiz-adv-x="530" 
d="M123 0l231 1462h121l-231 -1462h-121zM422 1671q-43 43 -64 55q-23 13 -41 13q-42 0 -72 -40q-29 -39 -44 -118h-90q22 129 78 195q58 69 145 69q37 0 70 -17q37 -20 88 -73q41 -43 59 -53q21 -12 41 -12q44 0 72 37q29 38 47 120h88q-21 -126 -79 -194q-59 -70 -145 -70
q-33 0 -68 18q-34 18 -85 70z" />
    <glyph glyph-name="itilde" unicode="&#x129;" horiz-adv-x="514" 
d="M358 1305q-33 43 -53 58q-17 13 -35 13q-32 0 -53 -28q-20 -27 -43 -140h-90q23 136 72 200q50 65 131 65q29 0 58 -19q27 -18 73 -76q33 -42 52 -56q17 -13 34 -13q32 0 53 24t45 142h88q-23 -136 -72 -200q-50 -65 -131 -65q-27 0 -56 19q-27 18 -73 76zM115 0
l161 1024h121l-161 -1024h-121z" />
    <glyph glyph-name="Imacron" unicode="&#x12a;" horiz-adv-x="530" 
d="M123 0l231 1462h121l-231 -1462h-121zM715 1618h-561l16 102h561z" />
    <glyph glyph-name="imacron" unicode="&#x12b;" horiz-adv-x="514" 
d="M612 1260h-479l17 102h479zM115 0l161 1024h121l-161 -1024h-121z" />
    <glyph glyph-name="Ibreve" unicode="&#x12c;" horiz-adv-x="530" 
d="M123 0l231 1462h121l-231 -1462h-121zM637 1870h102q-22 -139 -106 -221q-83 -82 -203 -82q-102 0 -161 62q-60 63 -60 171q0 15 1 24q2 19 7 46h94q-1 -22 -3 -33q-1 -7 -1 -18q0 -71 35 -109q34 -37 102 -37q76 0 127 51t66 146z" />
    <glyph glyph-name="ibreve" unicode="&#x12d;" horiz-adv-x="514" 
d="M115 0l161 1024h121l-161 -1024h-121zM367 1204q-101 0 -161 63q-61 64 -61 171q0 10 2 36q1 13 7 33h90q-1 -21 -3 -32q-1 -7 -1 -19q0 -72 36 -111q37 -40 105 -40q77 0 129 54q53 55 68 148h98q-22 -138 -107 -221q-83 -82 -202 -82z" />
    <glyph glyph-name="Iogonek" unicode="&#x12e;" horiz-adv-x="530" 
d="M205 -293l-12 -86q-20 -7 -37 -8q-24 -2 -45 -2q-59 0 -103 38q-43 37 -43 97q0 53 30 104q31 52 130 150h-2l231 1462h121l-231 -1462q-94 -76 -135 -129t-41 -102q0 -31 21 -51q20 -19 58 -19q13 0 33 2q14 1 25 6z" />
    <glyph glyph-name="iogonek" unicode="&#x12f;" horiz-adv-x="514" 
d="M444 1260h-145l29 180h145zM-43 -254q0 53 30 104q31 52 130 150h-2l161 1024h121l-161 -1024q-97 -79 -136 -129q-41 -53 -41 -102q0 -31 22 -51q20 -19 58 -19q13 0 33 2q14 1 25 6l-13 -86q-20 -7 -37 -8q-24 -2 -45 -2q-58 0 -102 38q-43 37 -43 97z" />
    <glyph glyph-name="Idotaccent" unicode="&#x130;" horiz-adv-x="530" 
d="M123 0l231 1462h121l-231 -1462h-121zM514 1620h-143l28 180h144z" />
    <glyph glyph-name="dotlessi" unicode="&#x131;" horiz-adv-x="514" 
d="M115 0l161 1024h121l-161 -1024h-121z" />
    <glyph glyph-name="Jcircumflex" unicode="&#x134;" horiz-adv-x="1116" 
d="M424 80q163 0 257 106q96 108 130 328l150 948h122l-149 -948q-40 -258 -172 -399q-131 -140 -340 -140q-196 0 -306 114q-110 115 -110 314h115q0 -153 79 -238t224 -85zM748 1571l251 299h156l154 -299h-80l-160 203l-238 -203h-83z" />
    <glyph glyph-name="jcircumflex" unicode="&#x135;" horiz-adv-x="514" 
d="M-51 -377q-20 0 -45 5q-9 2 -43 14l16 98q29 -9 39 -10q20 -2 29 -2q72 0 105 33q34 34 46 118l180 1145h121l-178 -1133q-21 -137 -86 -202q-66 -66 -184 -66zM102 1186l250 321h148l123 -321h-80l-125 233l-232 -233h-84z" />
    <glyph glyph-name="Kcommaaccent" unicode="&#x136;" horiz-adv-x="1417" 
d="M1260 0h-144l-508 735l-286 -243l-78 -492h-121l231 1462h121l-131 -825l952 825h164l-760 -647zM582 -248h-84l20 133h172l-20 -135q-16 -98 -70 -149q-53 -50 -145 -50l10 68q51 0 80 32q30 33 37 101z" />
    <glyph glyph-name="kcommaaccent" unicode="&#x137;" horiz-adv-x="1105" 
d="M965 0h-138l-354 522l-178 -145l-59 -377h-121l239 1507h121l-158 -993l617 510h158l-531 -434zM457 -248h-84l20 133h172l-20 -135q-16 -98 -70 -149q-53 -50 -145 -50l10 68q51 0 80 32q30 33 37 101z" />
    <glyph glyph-name="kgreenlandic" unicode="&#x138;" horiz-adv-x="1105" 
d="M965 0h-138l-354 522l-178 -145l-59 -377h-121l161 1024h121l-80 -510l617 510h158l-531 -434z" />
    <glyph glyph-name="Lacute" unicode="&#x139;" horiz-adv-x="1259" 
d="M1053 0h-928l231 1462h121l-213 -1351h807zM498 1577h-78l166 293h174z" />
    <glyph glyph-name="lacute" unicode="&#x13a;" horiz-adv-x="514" 
d="M475 1507l-239 -1507h-121l239 1507h121zM471 1577h-78l166 293h174z" />
    <glyph glyph-name="Lcommaaccent" unicode="&#x13b;" horiz-adv-x="1259" 
d="M1053 0h-928l231 1462h121l-213 -1351h807zM539 -248h-84l20 133h172l-20 -135q-16 -98 -70 -149q-53 -50 -145 -50l10 68q51 0 80 32q30 33 37 101z" />
    <glyph glyph-name="lcommaaccent" unicode="&#x13c;" horiz-adv-x="514" 
d="M475 1507l-239 -1507h-121l239 1507h121zM135 -248h-84l21 133h172l-21 -135q-16 -99 -69 -149t-146 -50l10 68q51 0 80 32q30 33 37 101z" />
    <glyph glyph-name="Lcaron" unicode="&#x13d;" horiz-adv-x="1259" 
d="M1053 0h-928l231 1462h121l-213 -1351h807zM1075 1464l-229 -430h-64l136 430h157z" />
    <glyph glyph-name="lcaron" unicode="&#x13e;" horiz-adv-x="514" 
d="M475 1507l-239 -1507h-121l239 1507h121zM864 1507l-229 -430h-64l136 430h157z" />
    <glyph glyph-name="Ldot" unicode="&#x13f;" horiz-adv-x="1259" 
d="M1053 0h-928l231 1462h121l-213 -1351h807zM961 690h-146l29 180h145z" />
    <glyph glyph-name="ldot" unicode="&#x140;" horiz-adv-x="702" 
d="M475 1507l-239 -1507h-121l239 1507h121zM694 565h-145l29 180h145z" />
    <glyph glyph-name="Lslash" unicode="&#x141;" horiz-adv-x="1277" 
d="M285 111h807l-19 -111h-928l103 645l-187 -63l17 108l186 62l113 710h121l-107 -674l342 113l-18 -108l-340 -113z" />
    <glyph glyph-name="lslash" unicode="&#x142;" horiz-adv-x="606" 
d="M629 1049l-17 -111l-219 -123l-129 -815h-121l121 762l-184 -105l18 111l185 104l100 635h121l-92 -581z" />
    <glyph glyph-name="Nacute" unicode="&#x143;" horiz-adv-x="1527" 
d="M354 1462h150l649 -1245h4l197 1245h119l-232 -1462h-104l-680 1315h-4l-209 -1315h-121zM938 1577h-78l166 293h174z" />
    <glyph glyph-name="nacute" unicode="&#x144;" horiz-adv-x="1198" 
d="M276 1024h113l-31 -195q51 102 149 161t218 59q151 0 234 -80t83 -224q0 -11 -2 -39q0 -7 -1.5 -21t-2.5 -21l-104 -664h-121l100 639q7 49 8 57q1 11 1 29q0 109 -58 167q-56 56 -168 56q-147 0 -243 -97q-97 -98 -125 -280l-90 -571h-121zM711 1192h-78l166 315h172z
" />
    <glyph glyph-name="Ncommaaccent" unicode="&#x145;" horiz-adv-x="1527" 
d="M354 1462h150l649 -1245h4l197 1245h119l-232 -1462h-104l-680 1315h-4l-209 -1315h-121zM641 -248h-84l21 133h172l-21 -135q-16 -98 -70 -149q-53 -50 -145 -50l10 68q51 0 80 32q30 33 37 101z" />
    <glyph glyph-name="ncommaaccent" unicode="&#x146;" horiz-adv-x="1198" 
d="M276 1024h113l-31 -195q51 102 149 161t218 59q151 0 234 -80t83 -224q0 -11 -2 -39q0 -7 -1.5 -21t-2.5 -21l-104 -664h-121l100 639q7 49 8 57q1 11 1 29q0 109 -58 167q-56 56 -168 56q-147 0 -243 -97q-97 -98 -125 -280l-90 -571h-121zM489 -248h-83l20 133h172
l-20 -135q-16 -98 -70 -149q-53 -50 -146 -50l11 68q51 0 80 32q28 31 36 101z" />
    <glyph glyph-name="Ncaron" unicode="&#x147;" horiz-adv-x="1527" 
d="M354 1462h150l649 -1245h4l197 1245h119l-232 -1462h-104l-680 1315h-4l-209 -1315h-121zM1249 1870l-252 -299h-155l-154 299h80l160 -203l237 203h84z" />
    <glyph glyph-name="ncaron" unicode="&#x148;" horiz-adv-x="1198" 
d="M276 1024h113l-31 -195q51 102 149 161t218 59q151 0 234 -80t83 -224q0 -11 -2 -39q0 -7 -1.5 -21t-2.5 -21l-104 -664h-121l100 639q7 49 8 57q1 11 1 29q0 109 -58 167q-56 56 -168 56q-147 0 -243 -97q-97 -98 -125 -280l-90 -571h-121zM1020 1507l-250 -321h-147
l-123 321h80l125 -233l231 233h84z" />
    <glyph glyph-name="Eng" unicode="&#x14a;" horiz-adv-x="1527" 
d="M954 -377q-20 0 -45 5q-9 2 -43 14l17 98q29 -9 39 -10q20 -2 28 -2q73 0 108 34q36 34 48 117l22 137l-671 1299h-4l-209 -1315h-121l231 1462h150l649 -1245h4l197 1245h119l-248 -1571q-21 -137 -86 -202q-66 -66 -185 -66z" />
    <glyph glyph-name="eng" unicode="&#x14b;" horiz-adv-x="1198" 
d="M645 -377q-20 0 -45 5q-9 2 -43 14l16 98q29 -9 39 -10q20 -2 29 -2q72 0 105 33q35 35 47 118l118 760q7 49 8 57q1 11 1 29q0 109 -58 167q-56 56 -168 56q-147 0 -243 -97q-97 -98 -125 -280l-90 -571h-121l161 1024h113l-31 -195q51 102 149 161t218 59
q151 0 234 -80t83 -224q0 -11 -2 -39q0 -7 -1.5 -21t-2.5 -21l-121 -773q-21 -137 -86 -202q-66 -66 -184 -66z" />
    <glyph glyph-name="Omacron" unicode="&#x14c;" horiz-adv-x="1511" 
d="M139 600q0 376 209 632q208 255 533 255q252 0 405 -172q154 -174 154 -453q0 -376 -209 -632q-209 -255 -533 -255q-252 0 -405 172q-154 174 -154 453zM1311 866q0 236 -117 372t-322 136q-270 0 -437 -219q-167 -220 -167 -559q0 -236 117 -372t322 -136
q271 0 437 219q167 220 167 559zM1200 1618h-561l16 102h562z" />
    <glyph glyph-name="omacron" unicode="&#x14d;" horiz-adv-x="1171" 
d="M1059 610q0 -267 -155 -451t-386 -184q-186 0 -297 119q-110 117 -110 320q0 269 154 451q155 184 386 184q186 0 297 -119q111 -118 111 -320zM227 414q0 -156 80 -245t221 -89q182 0 298 150q116 151 116 380q0 156 -80 245t-221 89q-182 0 -298 -150
q-116 -151 -116 -380zM989 1260h-561l16 102h562z" />
    <glyph glyph-name="Obreve" unicode="&#x14e;" horiz-adv-x="1511" 
d="M139 600q0 376 209 632q208 255 533 255q252 0 405 -172q154 -174 154 -453q0 -376 -209 -632q-209 -255 -533 -255q-252 0 -405 172q-154 174 -154 453zM1311 866q0 236 -117 372t-322 136q-270 0 -437 -219q-167 -220 -167 -559q0 -236 117 -372t322 -136
q271 0 437 219q167 220 167 559zM1118 1870h103q-22 -138 -107 -221q-83 -82 -203 -82q-101 0 -160 62q-61 64 -61 171q0 15 1 24q2 19 7 46h95q-1 -22 -3 -33q-2 -14 -2 -18q0 -71 35 -109q34 -37 103 -37q76 0 127 51q50 50 65 146z" />
    <glyph glyph-name="obreve" unicode="&#x14f;" horiz-adv-x="1171" 
d="M1059 610q0 -267 -155 -451t-386 -184q-186 0 -297 119q-110 117 -110 320q0 269 154 451q155 184 386 184q186 0 297 -119q111 -118 111 -320zM227 414q0 -156 80 -245t221 -89q182 0 298 150q116 151 116 380q0 156 -80 245t-221 89q-182 0 -298 -150
q-116 -151 -116 -380zM700 1204q-100 0 -160 63q-61 64 -61 171q0 10 2 36q1 17 6 33h91q0 -8 -4 -32q-1 -7 -1 -19q0 -71 37 -111t105 -40q77 0 129 54q52 53 67 148h99q-22 -138 -107 -221q-83 -82 -203 -82z" />
    <glyph glyph-name="Ohungarumlaut" unicode="&#x150;" horiz-adv-x="1511" 
d="M139 600q0 376 209 632q208 255 533 255q252 0 405 -172q154 -174 154 -453q0 -376 -209 -632q-209 -255 -533 -255q-252 0 -405 172q-154 174 -154 453zM1311 866q0 236 -117 372t-322 136q-270 0 -437 -219q-167 -220 -167 -559q0 -236 117 -372t322 -136
q271 0 437 219q167 220 167 559zM1061 1577h-72l170 293h162zM770 1577h-70l168 293h164z" />
    <glyph glyph-name="ohungarumlaut" unicode="&#x151;" horiz-adv-x="1171" 
d="M1059 610q0 -267 -155 -451t-386 -184q-186 0 -297 119q-110 117 -110 320q0 269 154 451q155 184 386 184q186 0 297 -119q111 -118 111 -320zM227 414q0 -156 80 -245t221 -89q182 0 298 150q116 151 116 380q0 156 -80 245t-221 89q-182 0 -298 -150
q-116 -151 -116 -380zM850 1192h-72l170 315h162zM559 1192h-70l168 315h164z" />
    <glyph glyph-name="OE" unicode="&#x152;" horiz-adv-x="2269" 
d="M2044 0h-1309q-277 0 -436 164q-160 165 -160 446q0 374 232 614q231 238 585 238h1325l-18 -110h-831l-91 -568h742l-19 -110h-741l-88 -563h827zM268 612q0 -239 125 -370t359 -131h362l197 1241h-371q-300 0 -486 -205t-186 -535z" />
    <glyph glyph-name="oe" unicode="&#x153;" horiz-adv-x="1939" 
d="M1673 291h113q-53 -148 -173 -232t-272 -84q-135 0 -238 71q-101 70 -145 198q-80 -125 -195 -197t-245 -72q-186 0 -297 119q-110 117 -110 320q0 269 154 451q155 184 386 184q132 0 234 -73q100 -71 145 -200q79 129 196 200q120 73 247 73q173 0 267 -108
q95 -109 95 -298q0 -40 -4 -76q-5 -41 -12 -84h-772q-1 -9 -2.5 -24t-1.5 -17q-1 -11 -1 -30q0 -157 83 -245q83 -87 231 -87q106 0 184 51q76 50 133 160zM1718 643q0 149 -65 224q-66 77 -193 77q-140 0 -249 -99q-109 -98 -148 -263h651q2 12 3 27q1 10 1 34zM227 414
q0 -156 80 -245t221 -89q182 0 298 150q116 151 116 380q0 156 -80 245t-221 89q-182 0 -298 -150q-116 -151 -116 -380z" />
    <glyph glyph-name="Racute" unicode="&#x154;" horiz-adv-x="1384" 
d="M342 618l-98 -618h-121l231 1462h529q212 0 322 -98q112 -100 112 -281q0 -177 -124 -302q-123 -125 -298 -146l317 -635h-129l-307 618h-434zM459 1352l-101 -625h412q194 0 309 95t115 261q0 131 -84 200t-244 69h-407zM821 1577h-78l166 293h174z" />
    <glyph glyph-name="racute" unicode="&#x155;" horiz-adv-x="757" 
d="M725 1049q15 0 43 -2q15 -1 39 -7l-19 -108q-15 5 -35 6q-28 2 -44 2q-141 0 -251 -115q-111 -116 -141 -303l-81 -522h-121l161 1024h113l-39 -250q51 125 153 200t222 75zM575 1192h-77l166 315h172z" />
    <glyph glyph-name="Rcommaaccent" unicode="&#x156;" horiz-adv-x="1384" 
d="M342 618l-98 -618h-121l231 1462h529q212 0 322 -98q112 -100 112 -281q0 -177 -124 -302q-123 -125 -298 -146l317 -635h-129l-307 618h-434zM459 1352l-101 -625h412q194 0 309 95t115 261q0 131 -84 200t-244 69h-407zM545 -248h-84l20 133h172l-20 -135
q-16 -98 -70 -149q-53 -50 -145 -50l10 68q51 0 80 32q30 33 37 101z" />
    <glyph glyph-name="rcommaaccent" unicode="&#x157;" horiz-adv-x="757" 
d="M725 1049q15 0 43 -2q15 -1 39 -7l-19 -108q-15 5 -35 6q-28 2 -44 2q-141 0 -251 -115q-111 -116 -141 -303l-81 -522h-121l161 1024h113l-39 -250q51 125 153 200t222 75zM139 -248h-84l21 133h172l-21 -135q-16 -99 -69 -149t-146 -50l11 68q50 0 79 32q30 33 37 101z
" />
    <glyph glyph-name="Rcaron" unicode="&#x158;" horiz-adv-x="1384" 
d="M342 618l-98 -618h-121l231 1462h529q212 0 322 -98q112 -100 112 -281q0 -177 -124 -302q-123 -125 -298 -146l317 -635h-129l-307 618h-434zM459 1352l-101 -625h412q194 0 309 95t115 261q0 131 -84 200t-244 69h-407zM1153 1870l-252 -299h-156l-153 299h80l159 -203
l238 203h84z" />
    <glyph glyph-name="rcaron" unicode="&#x159;" horiz-adv-x="757" 
d="M725 1049q15 0 43 -2q15 -1 39 -7l-19 -108q-15 5 -35 6q-28 2 -44 2q-141 0 -251 -115q-111 -116 -141 -303l-81 -522h-121l161 1024h113l-39 -250q51 125 153 200t222 75zM885 1507l-250 -321h-148l-122 321h79l125 -233l232 233h84z" />
    <glyph glyph-name="Sacute" unicode="&#x15a;" horiz-adv-x="1308" 
d="M616 -25q-243 0 -395 122q-151 121 -153 331h120q10 -166 125 -255t316 -89q180 0 302 96t122 238q0 89 -59 145t-183 86l-272 68q-160 39 -238 117t-78 196q0 195 152 326t381 131q223 0 354 -104t135 -281h-119q-5 128 -107 202t-271 74q-182 0 -292 -97
q-112 -98 -112 -245q0 -82 54 -131q54 -50 184 -80l280 -69q160 -41 236 -117t76 -197q0 -198 -159 -332q-161 -135 -399 -135zM811 1577h-78l166 293h174z" />
    <glyph glyph-name="sacute" unicode="&#x15b;" horiz-adv-x="989" 
d="M442 -25q-185 0 -292 85q-110 87 -111 239h115q-2 -108 78 -165q80 -58 221 -58q121 0 200 61q80 62 80 152q0 55 -39 92q-38 36 -123 59l-182 52q-121 34 -175 93t-54 148q0 136 107 225q109 91 274 91q166 0 265 -75q98 -75 103 -210h-110q-6 90 -76 137t-193 47
q-117 0 -187 -58q-71 -59 -71 -153q0 -53 36 -85q35 -31 132 -58l197 -55q106 -29 158 -88q53 -61 53 -144q0 -142 -115 -237t-291 -95zM612 1192h-77l165 315h172z" />
    <glyph glyph-name="Scircumflex" unicode="&#x15c;" horiz-adv-x="1308" 
d="M616 -25q-243 0 -395 122q-151 121 -153 331h120q10 -166 125 -255t316 -89q180 0 302 96t122 238q0 89 -59 145t-183 86l-272 68q-160 39 -238 117t-78 196q0 195 152 326t381 131q223 0 354 -104t135 -281h-119q-5 128 -107 202t-271 74q-182 0 -292 -97
q-112 -98 -112 -245q0 -82 54 -131q54 -50 184 -80l280 -69q160 -41 236 -117t76 -197q0 -198 -159 -332q-161 -135 -399 -135zM545 1571l252 299h155l154 -299h-80l-160 203l-237 -203h-84z" />
    <glyph glyph-name="scircumflex" unicode="&#x15d;" horiz-adv-x="989" 
d="M442 -25q-185 0 -292 85q-110 87 -111 239h115q-2 -108 78 -165q80 -58 221 -58q121 0 200 61q80 62 80 152q0 55 -39 92q-38 36 -123 59l-182 52q-121 34 -175 93t-54 148q0 136 107 225q109 91 274 91q166 0 265 -75q98 -75 103 -210h-110q-6 90 -76 137t-193 47
q-117 0 -187 -58q-71 -59 -71 -153q0 -53 36 -85q35 -31 132 -58l197 -55q106 -29 158 -88q53 -61 53 -144q0 -142 -115 -237t-291 -95zM334 1186l250 321h147l123 -321h-80l-125 233l-231 -233h-84z" />
    <glyph glyph-name="Scedilla" unicode="&#x15e;" horiz-adv-x="1308" 
d="M565 -82q65 0 109 -35q43 -34 43 -94q0 -76 -71 -127q-70 -51 -167 -51q-53 0 -96 10t-78 29l14 88q30 -18 76 -32q37 -11 86 -11q66 0 102 23q38 24 38 63q0 29 -26 44q-25 15 -71 15q-21 0 -40 -4q-28 -6 -42 -10l-30 39l92 119q-202 29 -318 145q-117 117 -118 299
h120q10 -166 125 -255t316 -89q180 0 302 96t122 238q0 89 -59 145t-183 86l-272 68q-160 39 -238 117t-78 196q0 195 152 326t381 131q223 0 354 -104t135 -281h-119q-5 128 -107 202t-271 74q-182 0 -292 -97q-112 -98 -112 -245q0 -82 54 -131q54 -50 184 -80l280 -69
q160 -41 236 -117t76 -197q0 -198 -159 -332q-161 -135 -399 -135h-26q-7 0 -15 2l-51 -63q5 1 19 3q7 1 22 1z" />
    <glyph glyph-name="scedilla" unicode="&#x15f;" horiz-adv-x="989" 
d="M424 -82q64 0 108 -35q43 -34 43 -94q0 -76 -70 -127q-71 -51 -167 -51q-53 0 -96 10t-78 29l14 88q30 -18 76 -32q37 -11 86 -11q65 0 101 23q38 24 38 63q0 29 -25 44q-26 15 -71 15q-21 0 -40 -4q-28 -6 -42 -10l-31 39l90 115q-153 21 -235 102q-85 83 -86 217h115
q-2 -108 78 -165q80 -58 221 -58q121 0 200 61q80 62 80 152q0 55 -39 92q-38 36 -123 59l-182 52q-121 34 -175 93t-54 148q0 136 107 225q109 91 274 91q166 0 265 -75q98 -75 103 -210h-110q-6 90 -76 137t-193 47q-117 0 -187 -58q-71 -59 -71 -153q0 -53 36 -85
q35 -31 132 -58l197 -55q106 -29 158 -88q53 -61 53 -144q0 -142 -115 -237t-291 -95h-5h-5l-49 -61q7 2 18 3q7 1 23 1z" />
    <glyph glyph-name="Scaron" unicode="&#x160;" horiz-adv-x="1308" 
d="M616 -25q-243 0 -395 122q-151 121 -153 331h120q10 -166 125 -255t316 -89q180 0 302 96t122 238q0 89 -59 145t-183 86l-272 68q-160 39 -238 117t-78 196q0 195 152 326t381 131q223 0 354 -104t135 -281h-119q-5 128 -107 202t-271 74q-182 0 -292 -97
q-112 -98 -112 -245q0 -82 54 -131q54 -50 184 -80l280 -69q160 -41 236 -117t76 -197q0 -198 -159 -332q-161 -135 -399 -135zM1102 1870l-252 -299h-156l-153 299h80l159 -203l238 203h84z" />
    <glyph glyph-name="scaron" unicode="&#x161;" horiz-adv-x="989" 
d="M442 -25q-185 0 -292 85q-110 87 -111 239h115q-2 -108 78 -165q80 -58 221 -58q121 0 200 61q80 62 80 152q0 55 -39 92q-38 36 -123 59l-182 52q-121 34 -175 93t-54 148q0 136 107 225q109 91 274 91q166 0 265 -75q98 -75 103 -210h-110q-6 90 -76 137t-193 47
q-117 0 -187 -58q-71 -59 -71 -153q0 -53 36 -85q35 -31 132 -58l197 -55q106 -29 158 -88q53 -61 53 -144q0 -142 -115 -237t-291 -95zM922 1507l-250 -321h-148l-123 321h80l125 -233l232 233h84z" />
    <glyph glyph-name="Tcommaaccent" unicode="&#x162;" horiz-adv-x="1402" 
d="M600 -82q65 0 109 -35q43 -34 43 -94q0 -76 -71 -127t-167 -51q-53 0 -96 10t-78 29l14 88q30 -18 76 -32q37 -11 86 -11q65 0 101 23q38 24 38 63q0 29 -25 44q-26 15 -71 15q-21 0 -40 -4q-28 -6 -42 -10l-31 39l115 149l213 1338h-557l16 110h1235l-16 -110h-557
l-215 -1352h-51l-70 -86q5 1 19 3q7 1 22 1z" />
    <glyph glyph-name="tcommaaccent" unicode="&#x163;" horiz-adv-x="735" 
d="M313 -82q65 0 109 -35q43 -34 43 -94q0 -76 -71 -127t-167 -51q-53 0 -96 10t-78 29l15 88q31 -19 75 -32q37 -11 86 -11q66 0 102 23q38 24 38 63q0 29 -26 44q-25 15 -71 15q-21 0 -40 -4q-28 -6 -42 -10l-30 39l110 145q-50 23 -76 70q-26 46 -26 113q0 9 2 29
q0 5 1.5 15.5t2.5 16.5l107 674h-154l14 96h156l47 264h115l-43 -264h282l-14 -96h-287l-108 -684q-2 -21 -3 -27q-1 -5 -1 -14q0 -58 32 -86q34 -29 103 -29q38 0 73 7t89 26l-15 -105q-44 -16 -86 -24q-43 -8 -80 -8q-23 0 -34 1q-22 2 -33 5l-62 -76q5 1 19 3q7 1 22 1z
" />
    <glyph glyph-name="Tcaron" unicode="&#x164;" horiz-adv-x="1402" 
d="M680 0h-121l215 1352h-557l16 110h1235l-16 -110h-557zM1194 1870l-252 -299h-156l-153 299h80l159 -203l238 203h84z" />
    <glyph glyph-name="tcaron" unicode="&#x165;" horiz-adv-x="735" 
d="M420 88q38 0 73 7t89 26l-15 -105q-44 -16 -86 -24q-43 -8 -80 -8q-113 0 -173 54t-60 155q0 9 2 29q0 5 1.5 15.5t2.5 16.5l107 674h-154l14 96h156l47 264h115l-43 -264h282l-14 -96h-287l-108 -684q-2 -21 -3 -27q-1 -5 -1 -14q0 -58 32 -86q34 -29 103 -29zM836 1589
l-230 -430h-63l135 430h158z" />
    <glyph glyph-name="Tbar" unicode="&#x166;" horiz-adv-x="1423" 
d="M1075 799l-18 -111h-269l-108 -688h-121l109 688h-267l19 111h266l88 553h-557l16 110h1235l-16 -110h-557l-88 -553h268z" />
    <glyph glyph-name="tbar" unicode="&#x167;" horiz-adv-x="796" 
d="M614 121l-14 -105q-44 -16 -86 -24q-43 -8 -80 -8q-113 0 -173 54t-60 155q0 9 2 29q0 5 1.5 15.5t2.5 16.5l49 313h-156l15 97h157l41 264h-153l14 96h156l47 264h115l-43 -264h282l-14 -96h-287l-41 -264h293l-14 -97h-295l-51 -323q-1 -12 -4 -27q-1 -5 -1 -14
q0 -57 33 -86q34 -29 103 -29q37 0 72 7t89 26z" />
    <glyph glyph-name="Utilde" unicode="&#x168;" horiz-adv-x="1507" 
d="M1468 1462l-129 -862q-45 -301 -216 -463t-443 -162q-238 0 -368 126t-130 356q0 33 3 71q2 23 10 76l135 858h121l-140 -880q-7 -44 -8 -69q-2 -40 -2 -54q0 -184 99 -278q100 -95 286 -95q215 0 352 128q136 127 174 368l140 880h116zM903 1671q-44 44 -63 55
q-23 13 -41 13q-43 0 -73 -40q-29 -39 -44 -118h-90q21 127 79 195q59 69 144 69q38 0 71 -17q35 -18 87 -73q41 -43 59 -53q21 -12 41 -12q44 0 72 37q29 38 47 120h88q-21 -126 -79 -194q-59 -70 -144 -70q-35 0 -69 18t-85 70z" />
    <glyph glyph-name="utilde" unicode="&#x169;" horiz-adv-x="1185" 
d="M907 0h-112l30 195q-51 -105 -145 -162q-96 -58 -213 -58q-147 0 -230 80t-83 224q0 11 2 39q0 7 2 21t2 21l104 664h121l-100 -639q-5 -32 -7 -57q-2 -22 -2 -29q0 -109 56 -167q55 -56 166 -56q145 0 238 96q94 97 122 281l90 571h121zM692 1303q-38 43 -63 59
q-21 14 -45 14q-41 0 -71 -42q-29 -41 -46 -126h-90q21 127 79 195q59 70 144 70q33 0 68 -19q32 -17 84 -74q39 -43 62 -58q20 -13 44 -13q41 0 71 40q30 41 48 126h88q-21 -127 -79 -195q-59 -70 -144 -70q-36 0 -67 18q-33 19 -83 75z" />
    <glyph glyph-name="Umacron" unicode="&#x16a;" horiz-adv-x="1507" 
d="M1468 1462l-129 -862q-45 -301 -216 -463t-443 -162q-238 0 -368 126t-130 356q0 33 3 71q2 23 10 76l135 858h121l-140 -880q-7 -44 -8 -69q-2 -40 -2 -54q0 -184 99 -278q100 -95 286 -95q215 0 352 128q136 127 174 368l140 880h116zM1198 1618h-561l16 102h561z" />
    <glyph glyph-name="umacron" unicode="&#x16b;" horiz-adv-x="1185" 
d="M907 0h-112l30 195q-51 -105 -145 -162q-96 -58 -213 -58q-147 0 -230 80t-83 224q0 11 2 39q0 7 2 21t2 21l104 664h121l-100 -639q-5 -32 -7 -57q-2 -22 -2 -29q0 -109 56 -167q55 -56 166 -56q145 0 238 96q94 97 122 281l90 571h121zM987 1260h-561l16 102h562z" />
    <glyph glyph-name="Ubreve" unicode="&#x16c;" horiz-adv-x="1507" 
d="M1468 1462l-129 -862q-45 -301 -216 -463t-443 -162q-238 0 -368 126t-130 356q0 33 3 71q2 23 10 76l135 858h121l-140 -880q-7 -44 -8 -69q-2 -40 -2 -54q0 -184 99 -278q100 -95 286 -95q215 0 352 128q136 127 174 368l140 880h116zM1118 1870h103
q-22 -138 -107 -221q-83 -82 -203 -82q-101 0 -160 62q-61 64 -61 171q0 15 1 24q2 19 7 46h95q-1 -22 -3 -33q-2 -14 -2 -18q0 -71 35 -109q34 -37 103 -37q76 0 127 51q50 50 65 146z" />
    <glyph glyph-name="ubreve" unicode="&#x16d;" horiz-adv-x="1185" 
d="M907 0h-112l30 195q-51 -105 -145 -162q-96 -58 -213 -58q-147 0 -230 80t-83 224q0 11 2 39q0 7 2 21t2 21l104 664h121l-100 -639q-5 -32 -7 -57q-2 -22 -2 -29q0 -109 56 -167q55 -56 166 -56q145 0 238 96q94 97 122 281l90 571h121zM698 1204q-100 0 -160 63
q-61 64 -61 171q0 10 2 36q1 17 6 33h90q-1 -21 -3 -32q-1 -7 -1 -19q0 -71 37 -111t105 -40q77 0 129 54q52 53 67 148h99q-22 -138 -107 -221q-83 -82 -203 -82z" />
    <glyph glyph-name="Uring" unicode="&#x16e;" horiz-adv-x="1507" 
d="M1468 1462l-129 -862q-45 -301 -216 -463t-443 -162q-238 0 -368 126t-130 356q0 33 3 71q2 23 10 76l135 858h121l-140 -880q-7 -44 -8 -69q-2 -40 -2 -54q0 -184 99 -278q100 -95 286 -95q215 0 352 128q136 127 174 368l140 880h116zM1188 1739q0 -110 -80 -192
q-80 -81 -195 -81q-94 0 -157 63q-64 64 -64 152q0 110 80 192q80 81 195 81q94 0 157 -63q64 -64 64 -152zM1087 1726q0 58 -37 95t-96 37q-68 0 -115 -49q-46 -47 -46 -115q0 -58 37 -95q36 -36 96 -36q68 0 115 48q46 47 46 115z" />
    <glyph glyph-name="uring" unicode="&#x16f;" horiz-adv-x="1185" 
d="M907 0h-112l30 195q-51 -105 -145 -162q-96 -58 -213 -58q-147 0 -230 80t-83 224q0 11 2 39q0 7 2 21t2 21l104 664h121l-100 -639q-5 -32 -7 -57q-2 -22 -2 -29q0 -109 56 -167q55 -56 166 -56q145 0 238 96q94 97 122 281l90 571h121zM526 1346q0 88 63 151
q64 64 154 64q76 0 126 -50t49 -120q2 -86 -62 -151q-63 -64 -156 -64q-74 0 -123 49q-51 51 -51 121zM614 1356q0 -41 28 -69q27 -27 69 -27q52 0 86 35t32 85q2 42 -25 69q-28 28 -71 28q-51 0 -85 -36q-34 -35 -34 -85z" />
    <glyph glyph-name="Uhungarumlaut" unicode="&#x170;" horiz-adv-x="1507" 
d="M1468 1462l-129 -862q-45 -301 -216 -463t-443 -162q-238 0 -368 126t-130 356q0 33 3 71q2 23 10 76l135 858h121l-140 -880q-7 -44 -8 -69q-2 -40 -2 -54q0 -184 99 -278q100 -95 286 -95q215 0 352 128q136 127 174 368l140 880h116zM1061 1577h-72l170 293h162z
M770 1577h-70l168 293h164z" />
    <glyph glyph-name="uhungarumlaut" unicode="&#x171;" horiz-adv-x="1185" 
d="M907 0h-112l30 195q-51 -105 -145 -162q-96 -58 -213 -58q-147 0 -230 80t-83 224q0 11 2 39q0 7 2 21t2 21l104 664h121l-100 -639q-5 -32 -7 -57q-2 -22 -2 -29q0 -109 56 -167q55 -56 166 -56q145 0 238 96q94 97 122 281l90 571h121zM846 1192h-72l170 315h162z
M555 1192h-70l168 315h164z" />
    <glyph glyph-name="Uogonek" unicode="&#x172;" horiz-adv-x="1507" 
d="M907 -293l-12 -86q-20 -7 -37 -8q-24 -2 -45 -2q-58 0 -101 40q-44 41 -44 99q0 60 31 119q30 57 96 115q-31 -6 -54 -7q-38 -2 -61 -2q-238 0 -368 126t-130 356q0 33 3 71q2 23 10 76l135 858h121l-140 -880q-7 -44 -8 -69q-2 -40 -2 -54q0 -184 99 -278
q100 -95 286 -95q215 0 352 128q136 127 174 368l140 880h116l-129 -862q-33 -218 -133 -364q-101 -147 -262 -213q-91 -79 -133 -138q-41 -58 -41 -112q0 -35 22 -55q20 -19 58 -19q13 0 33 2q13 1 24 6z" />
    <glyph glyph-name="uogonek" unicode="&#x173;" horiz-adv-x="1185" 
d="M858 -293l-12 -86q-20 -7 -37 -8q-24 -2 -45 -2q-58 0 -102 38q-43 37 -43 97q0 59 32 113q31 52 148 166l26 170q-51 -105 -145 -162q-96 -58 -213 -58q-147 0 -230 80t-83 224q0 11 2 39q0 7 2 21t2 21l104 664h121l-100 -639q-5 -32 -7 -57q-2 -22 -2 -29
q0 -109 56 -167q55 -56 166 -56q145 0 238 96q94 97 122 281l90 571h121l-162 -1024h-33q-82 -85 -120 -140q-33 -48 -33 -91q0 -31 21 -51q20 -19 59 -19q13 0 33 2q13 1 24 6z" />
    <glyph glyph-name="Wcircumflex" unicode="&#x174;" horiz-adv-x="1957" 
d="M1364 0h-145l-113 1309h-4l-598 -1309h-144l-149 1462h121l123 -1317h4l602 1317h141l117 -1317h4l600 1317h123zM877 1571l251 299h156l154 -299h-80l-160 203l-237 -203h-84z" />
    <glyph glyph-name="wcircumflex" unicode="&#x175;" horiz-adv-x="1519" 
d="M762 1024h129l78 -887h4l440 887h117l-522 -1024h-127l-82 881h-4l-424 -881h-131l-90 1024h114l72 -887h4zM582 1186l249 321h148l123 -321h-80l-125 233l-231 -233h-84z" />
    <glyph glyph-name="Ycircumflex" unicode="&#x176;" horiz-adv-x="1312" 
d="M731 610l-96 -610h-121l96 610l-420 852h129l367 -739h6l588 739h141zM520 1571l252 299h156l153 -299h-80l-159 203l-238 -203h-84z" />
    <glyph glyph-name="ycircumflex" unicode="&#x177;" horiz-adv-x="1079" 
d="M63 -276q81 0 145 57q65 58 157 211l-215 1032h120l174 -889h5l514 889h127l-629 -1063q-117 -199 -206 -271q-88 -71 -202 -71q-22 0 -47 5q-14 3 -41 14l17 102q23 -7 44 -12q17 -4 37 -4zM367 1186l249 321h148l123 -321h-80l-125 233l-231 -233h-84z" />
    <glyph glyph-name="Ydieresis" unicode="&#x178;" horiz-adv-x="1312" 
d="M731 610l-96 -610h-121l96 610l-420 852h129l367 -739h6l588 739h141zM1057 1620h-135l28 180h135zM702 1620h-135l29 180h135z" />
    <glyph glyph-name="Zacute" unicode="&#x179;" horiz-adv-x="1349" 
d="M1376 1462l-16 -102l-1147 -1249h952l-18 -111h-1112l14 88l1155 1264h-919l16 110h1075zM881 1577h-78l166 293h174z" />
    <glyph glyph-name="zacute" unicode="&#x17a;" horiz-adv-x="1048" 
d="M1010 1024l-15 -92l-794 -836h665l-14 -96h-817l12 78l799 850h-619l15 96h768zM659 1192h-77l166 315h172z" />
    <glyph glyph-name="Zdotaccent" unicode="&#x17b;" horiz-adv-x="1349" 
d="M1376 1462l-16 -102l-1147 -1249h952l-18 -111h-1112l14 88l1155 1264h-919l16 110h1075zM924 1620h-144l29 180h143z" />
    <glyph glyph-name="zdotaccent" unicode="&#x17c;" horiz-adv-x="1048" 
d="M1010 1024l-15 -92l-794 -836h665l-14 -96h-817l12 78l799 850h-619l15 96h768zM725 1260h-145l28 180h146z" />
    <glyph glyph-name="Zcaron" unicode="&#x17d;" horiz-adv-x="1349" 
d="M1376 1462l-16 -102l-1147 -1249h952l-18 -111h-1112l14 88l1155 1264h-919l16 110h1075zM1212 1870l-251 -299h-156l-154 299h80l160 -203l237 203h84z" />
    <glyph glyph-name="zcaron" unicode="&#x17e;" horiz-adv-x="1048" 
d="M1010 1024l-15 -92l-794 -836h665l-14 -96h-817l12 78l799 850h-619l15 96h768zM969 1507l-250 -321h-148l-122 321h79l125 -233l232 233h84z" />
    <glyph glyph-name="florin" unicode="&#x192;" horiz-adv-x="1034" 
d="M842 827l-15 -94h-258l-323 -958h-117l322 958h-185l15 94h202l135 404q50 142 144 221q95 80 213 80q32 0 64 -7q33 -7 65 -20l-17 -112q-27 15 -60 23q-28 7 -66 7q-79 0 -138 -55q-58 -54 -92 -158l-129 -383h240z" />
    <glyph glyph-name="AEacute" unicode="&#x1fc;" horiz-adv-x="2211" 
d="M1989 0h-949l70 436h-641l-369 -436h-141l1239 1462h1028l-18 -110h-832l-90 -568h742l-19 -110h-741l-88 -563h827zM1126 543l131 827l-698 -827h567zM1716 1577h-78l166 293h174z" />
    <glyph glyph-name="aeacute" unicode="&#x1fd;" horiz-adv-x="1800" 
d="M1534 291h113q-53 -148 -173 -232t-272 -84q-136 0 -233 71q-96 70 -135 202q-50 -115 -176 -193t-277 -78q-133 0 -219 77t-86 200q0 152 120 240q119 88 336 88h285l17 100q0 5 1 14.5t2 14.5q1 10 1 39q0 95 -59 145q-58 49 -173 49t-194 -55q-80 -56 -107 -152h-117
q38 144 153 228t271 84q137 0 224 -58q86 -57 102 -162q79 106 181 163t214 57q173 0 268 -108q95 -109 95 -298q0 -40 -4 -76q-3 -24 -13 -84h-757q-2 -26 -3 -41q-1 -11 -1 -30q0 -161 76 -246q77 -86 223 -86q106 0 184 51q76 50 133 160zM1579 643q0 147 -66 224
t-192 77q-138 0 -242 -98t-143 -264h639q1 12 3 27q1 10 1 34zM193 256q0 -82 55 -130q56 -48 149 -48q151 0 261 90q111 91 133 240l12 75h-289q-164 0 -242 -56q-79 -57 -79 -171zM1063 1192h-78l166 315h172z" />
    <glyph glyph-name="Oslashacute" unicode="&#x1fe;" horiz-adv-x="1511" 
d="M1440 862q0 -376 -209 -632q-209 -255 -533 -255q-117 0 -219 41q-98 40 -176 119l-180 -196l-70 67l191 205q-51 80 -78 178q-27 99 -27 211q0 376 209 632q208 255 533 255q117 0 219 -41q98 -40 176 -119l166 178l67 -65l-174 -189q51 -80 78 -178q27 -99 27 -211z
M872 1374q-270 0 -437 -219q-167 -220 -167 -559q0 -80 16 -158q14 -69 46 -133l864 934q-56 66 -138 101q-80 34 -184 34zM707 88q271 0 437 219q167 220 167 559q0 80 -16 158q-14 69 -46 133l-864 -934q56 -65 138 -100t184 -35zM918 1577h-78l166 293h174z" />
    <glyph glyph-name="oslashacute" unicode="&#x1ff;" horiz-adv-x="1171" 
d="M1059 610q0 -267 -155 -451t-386 -184q-81 0 -150 24t-122 71l-140 -148l-63 60l145 153q-38 54 -58 126q-19 69 -19 153q0 269 154 451q155 184 386 184q87 0 162 -29q74 -28 127 -82l125 131l63 -59l-133 -142q31 -54 47 -118q17 -68 17 -140zM641 944
q-182 0 -298 -150q-116 -151 -116 -380q0 -58 12 -105q14 -55 31 -86l592 631q-40 46 -95 68q-56 22 -126 22zM528 80q182 0 298 150q116 151 116 380q0 44 -8 90q-7 42 -23 78l-587 -624q40 -39 91 -56q53 -18 113 -18zM719 1192h-78l166 315h172z" />
    <glyph glyph-name="Scommaaccent" unicode="&#x218;" horiz-adv-x="1308" 
d="M616 -25q-243 0 -395 122q-151 121 -153 331h120q10 -166 125 -255t316 -89q180 0 302 96t122 238q0 89 -59 145t-183 86l-272 68q-160 39 -238 117t-78 196q0 195 152 326t381 131q223 0 354 -104t135 -281h-119q-5 128 -107 202t-271 74q-182 0 -292 -97
q-112 -98 -112 -245q0 -82 54 -131q54 -50 184 -80l280 -69q160 -41 236 -117t76 -197q0 -198 -159 -332q-161 -135 -399 -135zM555 -248h-84l21 133h172l-21 -135q-16 -98 -70 -149q-53 -50 -145 -50l10 68q51 0 80 32q30 33 37 101z" />
    <glyph glyph-name="scommaaccent" unicode="&#x219;" horiz-adv-x="989" 
d="M442 -25q-185 0 -292 85q-110 87 -111 239h115q-2 -108 78 -165q80 -58 221 -58q121 0 200 61q80 62 80 152q0 55 -39 92q-38 36 -123 59l-182 52q-121 34 -175 93t-54 148q0 136 107 225q109 91 274 91q166 0 265 -75q98 -75 103 -210h-110q-6 90 -76 137t-193 47
q-117 0 -187 -58q-71 -59 -71 -153q0 -53 36 -85q35 -31 132 -58l197 -55q106 -29 158 -88q53 -61 53 -144q0 -142 -115 -237t-291 -95zM371 -248h-84l20 133h172l-20 -135q-16 -98 -70 -149q-53 -50 -145 -50l10 68q51 0 80 32q30 33 37 101z" />
    <glyph glyph-name="uni021A" unicode="&#x21a;" horiz-adv-x="1402" 
d="M680 0h-121l215 1352h-557l16 110h1235l-16 -110h-557zM584 -248h-84l20 133h172l-20 -135q-16 -98 -70 -149q-53 -50 -145 -50l10 68q51 0 80 32q30 33 37 101z" />
    <glyph glyph-name="uni021B" unicode="&#x21b;" horiz-adv-x="735" 
d="M420 88q38 0 73 7t89 26l-15 -105q-44 -16 -86 -24q-43 -8 -80 -8q-113 0 -173 54t-60 155q0 9 2 29q0 5 1.5 15.5t2.5 16.5l107 674h-154l14 96h156l47 264h115l-43 -264h282l-14 -96h-287l-108 -684q-2 -21 -3 -27q-1 -5 -1 -14q0 -58 32 -86q34 -29 103 -29zM279 -248
h-84l20 133h172l-20 -135q-16 -98 -70 -149q-53 -50 -145 -50l10 68q51 0 80 32q30 33 37 101z" />
    <glyph glyph-name="uni0237" unicode="&#x237;" horiz-adv-x="514" 
d="M-51 -377q-20 0 -45 5q-9 2 -43 14l16 98q29 -9 39 -10q20 -2 29 -2q72 0 105 33q34 34 46 118l180 1145h121l-178 -1133q-21 -137 -86 -202q-66 -66 -184 -66z" />
    <glyph glyph-name="circumflex" unicode="&#x2c6;" horiz-adv-x="1157" 
d="M449 1186l249 321h148l123 -321h-80l-125 233l-232 -233h-83z" />
    <glyph glyph-name="caron" unicode="&#x2c7;" horiz-adv-x="1157" 
d="M989 1507l-250 -321h-147l-123 321h80l125 -233l231 233h84z" />
    <glyph glyph-name="breve" unicode="&#x2d8;" horiz-adv-x="1157" 
d="M662 1204q-101 0 -161 63q-61 64 -61 171q0 10 2 36q1 13 7 33h90q-1 -21 -3 -32q-1 -7 -1 -19q0 -72 36 -111q37 -40 105 -40q76 0 129 54q52 53 67 148h99q-22 -138 -107 -221q-83 -82 -202 -82z" />
    <glyph glyph-name="dotaccent" unicode="&#x2d9;" horiz-adv-x="1155" 
d="M766 1260h-145l28 180h146z" />
    <glyph glyph-name="ring" unicode="&#x2da;" horiz-adv-x="1157" 
d="M516 1346q0 88 63 151q64 64 154 64q76 0 126 -50q49 -49 48 -120q2 -87 -61 -151t-156 -64q-75 0 -124 49q-50 50 -50 121zM604 1356q0 -41 28 -69q27 -27 68 -27q52 0 86 35q34 36 33 85q2 42 -25 69q-28 28 -71 28q-51 0 -85 -36q-34 -35 -34 -85z" />
    <glyph glyph-name="ogonek" unicode="&#x2db;" horiz-adv-x="1157" 
d="M324 -254q0 59 32 113q33 55 150 168h98q-105 -109 -142 -162q-36 -51 -36 -96q0 -31 21 -51q20 -19 59 -19q13 0 33 2q13 1 24 6l-12 -86q-20 -7 -37 -8q-24 -2 -45 -2q-58 0 -102 38q-43 37 -43 97z" />
    <glyph glyph-name="tilde" unicode="&#x2dc;" horiz-adv-x="1155" 
d="M676 1303q-37 41 -64 59q-21 14 -45 14q-40 0 -70 -42q-29 -41 -46 -126h-91q21 127 79 195q59 70 145 70q32 0 67 -19q32 -17 84 -74q37 -42 63 -58q20 -13 44 -13q40 0 70 40q31 42 49 126h88q-21 -127 -79 -195q-59 -70 -145 -70q-35 0 -66 18q-33 19 -83 75z" />
    <glyph glyph-name="hungarumlaut" unicode="&#x2dd;" horiz-adv-x="1155" 
d="M758 1192h-72l170 315h162zM467 1192h-70l168 315h164z" />
    <glyph glyph-name="Wgrave" unicode="&#x1e80;" horiz-adv-x="1957" 
d="M1364 0h-145l-113 1309h-4l-598 -1309h-144l-149 1462h121l123 -1317h4l602 1317h141l117 -1317h4l600 1317h123zM1098 1870l82 -293h-72l-180 293h170z" />
    <glyph glyph-name="wgrave" unicode="&#x1e81;" horiz-adv-x="1519" 
d="M762 1024h129l78 -887h4l440 887h117l-522 -1024h-127l-82 881h-4l-424 -881h-131l-90 1024h114l72 -887h4zM801 1507l82 -315h-72l-170 315h160z" />
    <glyph glyph-name="Wacute" unicode="&#x1e82;" horiz-adv-x="1957" 
d="M1364 0h-145l-113 1309h-4l-598 -1309h-144l-149 1462h121l123 -1317h4l602 1317h141l117 -1317h4l600 1317h123zM1202 1577h-78l166 293h174z" />
    <glyph glyph-name="wacute" unicode="&#x1e83;" horiz-adv-x="1519" 
d="M762 1024h129l78 -887h4l440 887h117l-522 -1024h-127l-82 881h-4l-424 -881h-131l-90 1024h114l72 -887h4zM895 1192h-78l166 315h172z" />
    <glyph glyph-name="Wdieresis" unicode="&#x1e84;" horiz-adv-x="1957" 
d="M1364 0h-145l-113 1309h-4l-598 -1309h-144l-149 1462h121l123 -1317h4l602 1317h141l117 -1317h4l600 1317h123zM1397 1620h-135l28 180h135zM1042 1620h-135l29 180h135z" />
    <glyph glyph-name="wdieresis" unicode="&#x1e85;" horiz-adv-x="1519" 
d="M762 1024h129l78 -887h4l440 887h117l-522 -1024h-127l-82 881h-4l-424 -881h-131l-90 1024h114l72 -887h4zM1112 1260h-135l29 180h135zM758 1260h-135l28 180h135z" />
    <glyph glyph-name="Ygrave" unicode="&#x1ef2;" horiz-adv-x="1312" 
d="M731 610l-96 -610h-121l96 610l-420 852h129l367 -739h6l588 739h141zM797 1870l82 -293h-72l-180 293h170z" />
    <glyph glyph-name="ygrave" unicode="&#x1ef3;" horiz-adv-x="1079" 
d="M63 -276q81 0 145 57q65 58 157 211l-215 1032h120l174 -889h5l514 889h127l-629 -1063q-117 -199 -206 -271q-88 -71 -202 -71q-22 0 -47 5q-14 3 -41 14l17 102q23 -7 44 -12q17 -4 37 -4zM592 1507l82 -315h-72l-170 315h160z" />
    <glyph glyph-name="thinspace" unicode="&#x2009;" horiz-adv-x="133" 
 />
    <glyph glyph-name="endash" unicode="&#x2013;" horiz-adv-x="1386" 
d="M1208 514h-1030l19 104h1030z" />
    <glyph glyph-name="emdash" unicode="&#x2014;" horiz-adv-x="2054" 
d="M1876 514h-1698l19 104h1697z" />
    <glyph glyph-name="quoteleft" unicode="&#x2018;" horiz-adv-x="606" 
d="M420 1210h82l-27 -163h-178l31 194q21 123 100 194q79 72 197 72l-15 -82q-80 0 -126 -46q-45 -45 -60 -138z" />
    <glyph glyph-name="quoteright" unicode="&#x2019;" horiz-adv-x="606" 
d="M428 1343h-82l27 164h178l-31 -194q-21 -123 -100 -194q-80 -72 -197 -72l15 81q79 0 126 47q45 45 60 138z" />
    <glyph glyph-name="quotesinglbase" unicode="&#x201a;" horiz-adv-x="606" 
d="M225 66h-82l27 163h178l-31 -194q-21 -123 -100 -194q-79 -72 -197 -72l15 81q79 0 126 47q45 45 60 138z" />
    <glyph glyph-name="quotedblleft" unicode="&#x201c;" horiz-adv-x="1019" 
d="M420 1210h82l-27 -163h-178l31 194q21 123 100 194q79 72 197 72l-15 -82q-80 0 -126 -46q-45 -45 -60 -138zM834 1210h81l-26 -163h-178l30 194q21 122 101 194q79 72 196 72l-14 -82q-80 0 -126 -46q-45 -45 -60 -138z" />
    <glyph glyph-name="quotedblright" unicode="&#x201d;" horiz-adv-x="1019" 
d="M426 1343h-82l27 164h178l-31 -194q-21 -123 -100 -194q-80 -72 -197 -72l15 81q78 0 125 47q46 46 61 138zM842 1343h-82l26 164h179l-31 -194q-21 -123 -100 -194q-80 -72 -197 -72l14 81q79 0 126 47q46 46 61 138z" />
    <glyph glyph-name="quotedblbase" unicode="&#x201e;" horiz-adv-x="1019" 
d="M225 66h-82l27 163h178l-31 -194q-21 -123 -100 -194q-79 -72 -197 -72l15 81q79 0 126 47q45 45 60 138zM639 66h-82l27 163h178l-31 -194q-21 -123 -100 -194q-79 -72 -197 -72l15 81q78 0 125 47q46 46 61 138z" />
    <glyph glyph-name="dagger" unicode="&#x2020;" horiz-adv-x="735" 
d="M774 1249l-16 -94h-240l-84 -537h-98l84 537h-240l15 94h241l37 238h98l-36 -238h239z" />
    <glyph glyph-name="daggerdbl" unicode="&#x2021;" horiz-adv-x="735" 
d="M725 950l-14 -94h-242l-37 -238h-98l37 238h-240l16 94h240l31 205h-240l15 94h241l37 238h98l-37 -238h240l-16 -94h-240l-31 -205h240z" />
    <glyph glyph-name="bullet" unicode="&#x2022;" horiz-adv-x="856" 
d="M442 354q-101 0 -176 73q-73 72 -73 175q0 101 73 173q75 73 176 73q102 0 175 -73t73 -173q0 -102 -73 -175t-175 -73z" />
    <glyph glyph-name="ellipsis" unicode="&#x2026;" horiz-adv-x="1341" 
d="M1047 0h-179l29 178h178zM678 0h-178l28 178h179zM309 0h-178l29 178h178z" />
    <glyph glyph-name="guilsinglleft" unicode="&#x2039;" horiz-adv-x="628" 
d="M270 485l158 -391h-92l-207 391l324 394h100z" />
    <glyph glyph-name="guilsinglright" unicode="&#x203a;" horiz-adv-x="628" 
d="M350 487l-157 392h92l207 -392l-324 -393h-100z" />
    <glyph glyph-name="fraction" unicode="&#x2044;" horiz-adv-x="376" 
d="M932 1489l-1297 -1514h-122l1296 1514h123z" />
    <glyph glyph-name="uni2070" unicode="&#x2070;" horiz-adv-x="835" 
d="M834 1151q0 -209 -110 -357q-110 -147 -271 -147q-127 0 -202 90t-75 240q0 208 110 356t273 148q127 0 201 -89t74 -241zM723 1159q0 109 -45 169q-46 61 -125 61q-98 0 -166 -86q-67 -85 -90 -236q-7 -27 -8 -47q-2 -30 -2 -51q0 -109 45 -169q46 -61 127 -61
q96 0 165 86q68 84 91 234q5 27 6 51q2 32 2 49z" />
    <glyph glyph-name="uni2074" unicode="&#x2074;" horiz-adv-x="821" 
d="M606 1462h125l-84 -514h170l-12 -86h-170l-31 -200h-106l30 200h-399l14 88zM541 948l65 404l-358 -404h293z" />
    <glyph glyph-name="uni2075" unicode="&#x2075;" horiz-adv-x="761" 
d="M631 958q0 70 -39 110t-111 40q-51 0 -99 -23q-46 -22 -79 -61h-100l114 440h467l-16 -92h-383l-68 -250q33 33 85 54q50 20 104 20q108 0 171 -60q62 -59 62 -165q0 -135 -92 -230q-91 -94 -231 -94q-125 0 -197 69t-72 187h111q0 -81 43 -124q44 -44 123 -44
q92 0 149 65q58 66 58 158z" />
    <glyph glyph-name="uni2076" unicode="&#x2076;" horiz-adv-x="784" 
d="M553 1389q-99 0 -175 -94q-74 -92 -95 -242q38 70 96 105q60 36 137 36q104 0 173 -66t69 -167q0 -130 -92 -222t-228 -92q-121 0 -193 85q-73 87 -73 226q0 212 115 368q114 155 272 155q107 0 173 -61q65 -61 67 -163h-103q-5 65 -41 98q-37 34 -102 34zM285 899
q0 -74 45 -119t119 -45q85 0 144 64q58 62 58 155q0 72 -44 114q-43 42 -118 42q-85 0 -145 -61q-59 -60 -59 -150z" />
    <glyph glyph-name="uni2077" unicode="&#x2077;" horiz-adv-x="716" 
d="M653 1372h-452l16 90h569l-14 -80q-160 -164 -245 -332q-87 -171 -126 -388h-116q33 190 125 370q91 177 243 340z" />
    <glyph glyph-name="uni2078" unicode="&#x2078;" horiz-adv-x="794" 
d="M760 901q0 -110 -93 -182t-235 -72q-132 0 -209 56q-78 57 -78 151q0 81 62 145q61 63 147 78q-55 22 -81 61q-27 40 -27 93q0 109 85 179q86 71 212 71q109 0 178 -54q67 -52 67 -143q0 -76 -45 -134t-122 -85q59 -12 99 -58t40 -106zM348 1233q0 -57 41 -89t113 -32
q82 0 133 45t51 119q0 56 -41 86q-42 31 -110 31q-82 0 -135 -44q-52 -43 -52 -116zM651 903q0 59 -49 93t-133 34q-97 0 -155 -46t-58 -122q0 -60 49 -94q50 -35 135 -35q94 0 153 48q58 48 58 122z" />
    <glyph glyph-name="uni2079" unicode="&#x2079;" horiz-adv-x="784" 
d="M403 739q101 0 175 94q73 92 94 242q-37 -69 -97 -106q-59 -37 -137 -37q-102 0 -171 66q-68 65 -68 167q0 133 91 224q92 92 226 92q122 0 195 -85t73 -229q0 -213 -114 -366q-115 -154 -273 -154q-107 0 -174 61q-65 60 -67 162h102q1 -62 40 -97q37 -34 105 -34z
M670 1229q0 72 -45 117t-117 45q-86 0 -144 -63q-59 -64 -59 -152q0 -74 43 -117t117 -43q85 0 145 61t60 152z" />
    <glyph glyph-name="uni2080" unicode="&#x2080;" horiz-adv-x="835" 
d="M684 203q0 -210 -110 -358q-109 -146 -271 -146q-127 0 -202 90q-74 89 -74 240q0 210 109 356q110 147 274 147q126 0 200 -89t74 -240zM573 211q0 109 -45 169t-125 60q-97 0 -165 -86q-69 -87 -91 -235q-7 -27 -8 -47q-2 -30 -2 -52q0 -108 45 -168q46 -61 127 -61
q96 0 165 86q68 84 91 234q5 27 6 51q2 32 2 49z" />
    <glyph glyph-name="uni2081" unicode="&#x2081;" horiz-adv-x="669" 
d="M299 -199h213l-14 -88h-535l14 88h211l82 514h-207l13 82q125 0 182 24q58 24 86 97h68z" />
    <glyph glyph-name="uni2082" unicode="&#x2082;" horiz-adv-x="706" 
d="M369 530q107 0 169 -56t62 -148q0 -60 -23 -107q-24 -49 -75 -94q-27 -24 -63 -48q-30 -20 -132 -79q-117 -68 -165 -111q-48 -44 -54 -82h442l-16 -92h-561l8 47q12 82 81 157t224 163q140 79 184 128q46 52 46 114q0 56 -35 86t-101 30q-73 0 -128 -47
q-53 -46 -70 -123h-107q24 118 110 190q85 72 204 72z" />
    <glyph glyph-name="uni2083" unicode="&#x2083;" horiz-adv-x="757" 
d="M436 115q62 -12 100 -58q37 -44 37 -106q0 -104 -86 -178t-221 -74q-125 0 -201 67q-75 66 -75 181h108q0 -76 46 -118t128 -42q88 0 143 47q54 47 54 119q0 58 -39 88q-40 31 -111 31h-83l14 88h82q77 0 126 44q48 44 48 118q0 55 -37 88q-36 32 -102 32q-77 0 -129 -41
q-51 -41 -66 -114h-104q24 114 106 179q82 66 201 66q112 0 175 -56q64 -57 64 -146q0 -81 -51 -141q-50 -59 -127 -74z" />
    <glyph glyph-name="uni2084" unicode="&#x2084;" horiz-adv-x="821" 
d="M457 514h125l-84 -514h170l-13 -86h-170l-30 -201h-107l31 201h-399l14 88zM391 0l66 403l-359 -403h293z" />
    <glyph glyph-name="uni2085" unicode="&#x2085;" horiz-adv-x="761" 
d="M481 10q0 69 -39 110q-39 40 -110 40q-52 0 -100 -23q-45 -22 -78 -61h-101l115 440h467l-17 -92h-382l-68 -250q32 32 85 53t103 21q107 0 171 -61q63 -60 63 -164q0 -135 -92 -230q-91 -94 -232 -94q-124 0 -196 69t-72 187h111q0 -81 43 -124q44 -44 122 -44
q93 0 150 65q57 64 57 158z" />
    <glyph glyph-name="uni2086" unicode="&#x2086;" horiz-adv-x="784" 
d="M403 440q-100 0 -175 -93q-74 -91 -95 -243q39 72 96 106q60 36 138 36q104 0 173 -66q68 -65 68 -168q0 -129 -92 -221t-227 -92q-122 0 -194 85q-72 86 -72 226q0 214 114 368t273 154q108 0 173 -60q64 -60 66 -163h-102q-5 65 -41 98t-103 33zM135 -49q0 -74 45 -119
t119 -45q85 0 144 63q59 64 59 156q0 72 -44 114q-43 42 -118 42q-85 0 -145 -62t-60 -149z" />
    <glyph glyph-name="uni2087" unicode="&#x2087;" horiz-adv-x="716" 
d="M504 424h-453l17 90h569l-14 -80q-159 -163 -245 -333q-87 -171 -126 -388h-117q33 191 125 371q90 175 244 340z" />
    <glyph glyph-name="uni2088" unicode="&#x2088;" horiz-adv-x="794" 
d="M610 -47q0 -110 -93 -182t-234 -72q-132 0 -209 56q-78 57 -78 151q0 83 61 145q61 63 148 78q-56 22 -81 60q-28 42 -28 94q0 109 85 179t212 70q110 0 178 -53t68 -143q0 -76 -45 -134q-44 -58 -123 -85q58 -12 99 -59q40 -46 40 -105zM199 285q0 -57 41 -89t112 -32
q82 0 133 45q52 46 52 119q0 56 -41 86q-40 30 -111 30q-81 0 -134 -44q-52 -43 -52 -115zM502 -45q0 59 -49 93t-134 34q-96 0 -154 -46q-59 -47 -59 -122q0 -59 50 -94t135 -35q93 0 152 48t59 122z" />
    <glyph glyph-name="uni2089" unicode="&#x2089;" horiz-adv-x="784" 
d="M254 -209q100 0 174 93q73 92 94 243q-39 -71 -96 -107q-58 -36 -137 -36q-102 0 -171 66t-69 167q0 132 91 223q92 92 227 92q121 0 194 -85q74 -86 74 -228q0 -212 -115 -366t-272 -154q-108 0 -174 60t-68 163h103q1 -62 39 -97q37 -34 106 -34zM520 281q0 71 -45 116
t-117 45q-86 0 -144 -62t-58 -153q0 -73 43 -116t116 -43q86 0 146 61q59 60 59 152z" />
    <glyph glyph-name="Euro" unicode="&#x20ac;" horiz-adv-x="1427" 
d="M1182 408h125q-62 -204 -211 -319q-147 -114 -351 -114q-209 0 -339 151q-131 152 -138 406h-164l17 105h149q3 31 11 93q4 31 14 91h-145l16 105h156q79 253 256 407t389 154q196 0 306 -115q109 -113 109 -315h-116q-6 154 -86 236q-80 81 -232 81q-165 0 -298 -121
q-136 -124 -204 -327h537l-41 -105h-526q-14 -87 -15 -91q-4 -31 -10 -93h479l-36 -105h-445q10 -212 108 -328t267 -116q152 0 258 82q108 84 160 238z" />
    <glyph glyph-name="trademark" unicode="&#x2122;" horiz-adv-x="1691" 
d="M563 1368l-86 -543h-110l86 543h-226l17 94h561l-17 -94h-225zM1444 1360l-254 -535h-84l-88 535h-4l-84 -535h-99l103 637h164l73 -491h9l227 491h164l-103 -637h-104l84 535h-4z" />
    <glyph glyph-name="uni2153" unicode="&#x2153;" horiz-adv-x="1849" 
d="M1694 1489l-1297 -1514h-123l1297 1514h123zM506 750h213l-14 -88h-535l14 88h211l82 514h-207l13 82q127 0 182 23q58 24 86 97h67zM1573 401q61 -12 99 -57q38 -46 38 -106q0 -105 -86 -179q-85 -73 -221 -73q-127 0 -202 66t-75 181h109q0 -75 46 -117q47 -42 128 -42
q87 0 142 47t55 119q0 58 -39 88t-111 30h-84l14 88h82q77 0 126 44q48 44 48 118q0 56 -36 88q-38 33 -103 33q-77 0 -129 -41q-50 -39 -65 -115h-105q24 114 107 180q82 66 200 66q113 0 176 -56q64 -57 64 -147q0 -80 -51 -140t-127 -75z" />
    <glyph glyph-name="uni2154" unicode="&#x2154;" horiz-adv-x="1888" 
d="M1733 1489l-1297 -1514h-123l1297 1514h123zM1612 401q62 -12 99 -57q38 -46 38 -106q0 -105 -86 -179q-85 -73 -221 -73q-127 0 -202 66t-75 181h109q0 -75 46 -117t128 -42q87 0 142 47t55 119q0 58 -39 88t-111 30h-84l14 88h82q77 0 126 44q48 44 48 118q0 56 -36 88
q-37 33 -103 33q-77 0 -129 -41q-50 -39 -65 -115h-105q24 114 107 180q82 66 200 66q112 0 175 -56q65 -57 65 -147q0 -80 -51 -140t-127 -75zM580 1479q106 0 169 -57q62 -56 62 -148q0 -58 -24 -107q-24 -50 -74 -94q-27 -24 -63 -48q-30 -20 -132 -79
q-120 -69 -165 -110q-48 -44 -54 -82h442l-16 -92h-561l8 47q12 81 81 156t224 163q138 77 183 128q47 53 47 114q0 56 -35 86q-34 30 -101 30q-73 0 -128 -47q-54 -46 -70 -122h-107q24 116 110 189q87 73 204 73z" />
    <glyph glyph-name="uni215B" unicode="&#x215b;" horiz-adv-x="1886" 
d="M1747 240q0 -111 -93 -183q-92 -71 -235 -71q-132 0 -209 56t-77 151q0 83 61 145q62 63 147 78q-55 22 -80 60q-28 42 -28 93q0 110 85 180t212 70q110 0 178 -53t68 -143q0 -77 -45 -135q-44 -58 -123 -85q59 -12 99 -58t40 -105zM1335 571q0 -57 41 -89
q40 -31 113 -31q82 0 133 45t51 118q0 56 -41 86q-42 31 -110 31q-81 0 -134 -44t-53 -116zM1638 242q0 59 -49 93t-133 34q-96 0 -154 -46q-59 -47 -59 -122q0 -61 49 -95t135 -34q95 0 153 48t58 122zM1694 1489l-1297 -1514h-123l1297 1514h123zM506 750h213l-14 -89
h-535l14 89h211l82 514h-207l13 82q127 0 182 23q58 24 86 97h67z" />
    <glyph glyph-name="uni215C" unicode="&#x215c;" horiz-adv-x="1925" 
d="M1786 240q0 -111 -93 -183q-92 -71 -235 -71q-132 0 -209 56q-78 57 -78 151q0 81 62 145q61 63 147 78q-56 22 -81 60q-27 40 -27 93q0 110 85 180t212 70q110 0 178 -53t68 -143q0 -75 -46 -135q-45 -58 -122 -85q59 -12 99 -58t40 -105zM1374 571q0 -57 41 -89
q40 -31 113 -31q82 0 133 45t51 118q0 56 -41 86q-42 31 -110 31q-82 0 -135 -44q-52 -43 -52 -116zM1677 242q0 59 -49 93t-133 34q-97 0 -155 -46t-58 -122q0 -61 49 -95t135 -34q94 0 153 48q58 48 58 122zM1733 1489l-1297 -1514h-123l1297 1514h123zM647 1063
q61 -12 99 -57q38 -46 38 -107q0 -104 -86 -178t-221 -74q-126 0 -202 67q-74 65 -74 181h108q0 -76 46 -118t128 -42q88 0 143 47q54 46 54 119q0 58 -39 88q-40 31 -111 31h-84l15 88h82q77 0 126 44q48 44 48 118q0 55 -37 88t-102 33q-77 0 -129 -41q-51 -40 -66 -115
h-104q24 114 106 179q84 67 201 67q110 0 175 -57q64 -57 64 -146q0 -80 -51 -140t-127 -75z" />
    <glyph glyph-name="uni215D" unicode="&#x215d;" horiz-adv-x="1896" 
d="M1704 1489l-1296 -1514h-123l1296 1514h123zM1757 240q0 -111 -93 -183q-92 -71 -234 -71q-132 0 -209 56q-78 57 -78 151q0 83 61 145q61 63 148 78q-56 22 -81 60q-28 42 -28 93q0 110 85 180t212 70q110 0 178 -53t68 -143q0 -77 -45 -135q-44 -58 -123 -85
q59 -12 99 -58t40 -105zM1346 571q0 -58 40 -89t113 -31q82 0 133 45t51 118q0 56 -41 86q-42 31 -110 31q-81 0 -134 -44q-52 -43 -52 -116zM1649 242q0 58 -50 93q-49 34 -133 34q-96 0 -154 -46q-59 -47 -59 -122q0 -60 50 -95q49 -34 135 -34q94 0 152 48q59 48 59 122z
M692 958q0 70 -39 110t-110 40q-52 0 -100 -23q-45 -22 -78 -61h-101l115 440h467l-17 -92h-383l-67 -250q33 33 85 54q50 20 103 20q108 0 171 -60t63 -165q0 -135 -92 -230q-91 -94 -232 -94q-124 0 -196 69t-72 187h110q0 -81 43 -124q44 -44 123 -44q93 0 150 65
q57 64 57 158z" />
    <glyph glyph-name="uni215E" unicode="&#x215e;" horiz-adv-x="1763" 
d="M1624 240q0 -111 -93 -183q-92 -71 -235 -71q-132 0 -209 56t-77 151q0 83 61 145q61 63 148 78q-56 22 -81 60q-28 42 -28 93q0 110 85 180t212 70q110 0 178 -53t68 -143q0 -77 -45 -135q-44 -58 -123 -85q59 -12 99 -58t40 -105zM1212 571q0 -57 41 -89
q40 -31 113 -31q82 0 133 45t51 118q0 56 -41 86q-42 31 -110 31q-81 0 -134 -44t-53 -116zM1516 242q0 58 -50 93q-49 34 -133 34q-96 0 -154 -46q-59 -47 -59 -122q0 -61 49 -95t136 -34q93 0 152 48t59 122zM1571 1489l-1297 -1514h-122l1296 1514h123zM715 1372h-453
l17 90h569l-14 -80q-160 -164 -245 -332q-87 -171 -126 -389h-117q33 191 125 371q90 175 244 340z" />
    <glyph glyph-name="minus" unicode="&#x2212;" 
d="M1223 629h-1059l16 108h1059z" />
    <glyph glyph-name="commaaccent" unicode="&#xf6c3;" horiz-adv-x="1157" 
d="M463 -248h-84l20 133h172l-20 -135q-16 -98 -70 -149q-53 -50 -145 -50l10 68q51 0 80 32q30 33 37 101z" />
    <glyph glyph-name="idotaccent" horiz-adv-x="514" 
d="M115 0l161 1024h121l-161 -1024h-121zM446 1260h-145l29 180h145z" />
    <glyph glyph-name="a.ord" horiz-adv-x="794" 
d="M690 647h-104q-2 23 0 51q2 30 6 64q-29 -58 -100 -95q-69 -36 -148 -36q-88 0 -143 48q-56 48 -56 126q0 96 68 153q67 57 195 72l229 27q7 53 9 64q1 6 1 16q0 57 -35 87q-33 29 -104 29t-116 -32t-62 -95h-107q24 102 103 160q78 57 188 57q113 0 176 -51
q64 -52 64 -143q0 -11 -1 -17q-1 -9 -3 -30l-50 -316q-7 -33 -8 -64q-2 -46 -2 -75zM375 713q94 0 159 55t80 145l11 66l-195 -23q-100 -15 -136 -47q-38 -33 -38 -96q0 -46 32 -73t87 -27z" />
    <glyph glyph-name="b.ord" horiz-adv-x="884" 
d="M518 629q-79 0 -141 44t-78 109l-23 -135h-106l158 991h110l-69 -436q39 68 100 105q59 36 137 36q121 0 190 -78q70 -79 70 -210q0 -178 -100 -302t-248 -124zM758 1053q0 93 -47 149q-46 55 -129 55q-99 0 -166 -70q-68 -71 -86 -192q-8 -52 -9 -61q-2 -16 -2 -21
q0 -88 51 -144q49 -54 136 -54q110 0 181 96q71 97 71 242z" />
    <glyph glyph-name="c.ord" horiz-adv-x="780" 
d="M440 631q-120 0 -195 80q-75 79 -75 211q0 182 106 303t265 121q109 0 173 -63q65 -63 66 -169h-102q-4 68 -42 105q-36 36 -104 36q-110 0 -181 -95q-70 -94 -70 -238q0 -92 44 -148q43 -55 117 -55q73 0 122 37q51 39 73 106h104q-33 -111 -112 -171t-189 -60z" />
    <glyph glyph-name="d.ord" horiz-adv-x="880" 
d="M512 1343q77 0 137 -41q62 -42 80 -106l70 442h112l-157 -991h-107l21 125q-38 -64 -104 -104q-64 -39 -140 -39q-116 0 -187 78q-71 79 -71 208q0 179 99 304q99 124 247 124zM274 918q0 -93 48 -149q46 -54 129 -54q96 0 162 70q67 71 89 194q5 34 6 49q1 11 1 31
q0 88 -51 144q-50 54 -134 54q-111 0 -180 -97q-70 -99 -70 -242z" />
    <glyph glyph-name="e.ord" horiz-adv-x="806" 
d="M657 846h105q-38 -102 -119 -158q-83 -57 -188 -57q-133 0 -210 78q-77 79 -77 211q0 181 106 303q107 123 265 123q119 0 186 -72q68 -73 68 -197q0 -22 -3 -49q-1 -6 -12 -65h-502q-2 -8 -2 -15v-24q0 -95 51 -151q49 -54 138 -54q67 0 115 31q46 30 79 96zM688 1083
q0 81 -41 127q-41 45 -117 45q-84 0 -149 -58q-65 -57 -92 -159h395q2 25 3 32q1 5 1 13z" />
    <glyph glyph-name="f.ord" horiz-adv-x="468" 
d="M184 647l97 596h-99l15 84h96l20 133q15 87 72 137q58 50 147 50q11 0 39 -2q12 -1 43 -7l-14 -90q-1 0 -12 1.5t-18 2.5q-24 2 -38 2q-48 0 -74 -23q-29 -26 -36 -73l-19 -131h144l-12 -84h-146l-96 -596h-109z" />
    <glyph glyph-name="g.ord" horiz-adv-x="878" 
d="M410 471q105 0 167 55q61 53 76 162l19 109q-40 -66 -104 -102q-63 -36 -136 -36q-119 0 -189 76q-71 77 -71 203q0 170 98 287q99 118 246 118q79 0 141 -43q64 -44 82 -106l23 133h106l-100 -631q-27 -148 -120 -228q-92 -79 -242 -79q-125 0 -196 52q-73 53 -77 147
h109q6 -59 48 -88q43 -29 120 -29zM459 743q94 0 161 67t89 183q5 28 6 44q2 24 2 34q0 84 -51 135t-136 51q-109 0 -178 -90t-69 -225q0 -94 46 -146q47 -53 130 -53z" />
    <glyph glyph-name="h.ord" horiz-adv-x="860" 
d="M326 1640h110l-69 -434q34 65 95 101q60 36 140 36q98 0 155 -54q56 -53 56 -148q0 -25 -1 -33q-2 -16 -3 -23l-70 -438h-110l65 414l3 34q1 8 1 19q0 71 -34 106t-103 35q-87 0 -146 -60q-59 -61 -77 -171l-59 -377h-111z" />
    <glyph glyph-name="i.ord" horiz-adv-x="403" 
d="M416 1468h-125l20 136h125zM170 647l106 680h111l-106 -680h-111z" />
    <glyph glyph-name="j.ord" horiz-adv-x="407" 
d="M418 1470h-125l20 136h125zM72 401q-18 0 -36 3q-12 2 -32 8l14 86q2 0 5 -0.5t7 -1.5t6 -1q6 -1 27 -1q48 0 68 19q21 20 29 71l119 743h110l-117 -739q-15 -96 -63 -141q-49 -46 -137 -46z" />
    <glyph glyph-name="k.ord" horiz-adv-x="813" 
d="M768 647h-123l-217 330l-113 -92l-36 -238h-111l158 993h110l-100 -634l383 321h135l-342 -287z" />
    <glyph glyph-name="l.ord" horiz-adv-x="407" 
d="M436 1640l-157 -993h-111l158 993h110z" />
    <glyph glyph-name="m.ord" horiz-adv-x="1280" 
d="M594 1343q83 0 130 -35q48 -36 60 -108q44 70 108 107q62 36 138 36q98 0 151 -51q52 -51 52 -147q0 -29 -1 -37q-2 -16 -3 -23l-70 -438h-110l65 416l3 37q1 8 1 20q0 69 -31 103q-29 32 -94 32q-84 0 -141 -60q-58 -61 -74 -171l-59 -377h-111l66 416q3 10 5 32
q1 10 1 29q0 65 -32 99q-31 32 -95 32q-82 0 -139 -60q-58 -61 -76 -171l-59 -377h-111l108 680h107l-21 -123q35 65 98 102q62 37 134 37z" />
    <glyph glyph-name="n.ord" horiz-adv-x="860" 
d="M276 1327h107l-21 -123q33 64 99 103q60 36 141 36q98 0 155 -54q56 -53 56 -148q0 -27 -1 -35q-2 -16 -3 -23l-70 -436h-110l65 412l3 21q1 8 1 34q0 71 -34 106t-103 35q-87 0 -146 -60q-59 -61 -77 -171l-59 -377h-111z" />
    <glyph glyph-name="o.ord" horiz-adv-x="841" 
d="M821 1051q0 -177 -105 -299q-105 -121 -263 -121q-129 0 -206 80t-77 213q0 178 105 300t264 122q128 0 205 -80t77 -215zM711 1055q2 95 -46 147q-48 53 -133 53q-110 0 -181 -95q-70 -94 -70 -238q0 -95 48 -149t132 -54q111 0 181 96t69 240z" />
    <glyph glyph-name="p.ord" horiz-adv-x="884" 
d="M518 631q-76 0 -137 41q-58 39 -80 104l-59 -368h-111l148 919h104l-21 -125q41 68 106 106t138 38q117 0 189 -79q71 -78 71 -212q0 -176 -100 -300t-248 -124zM758 1053q0 95 -47 150q-47 54 -129 54q-99 0 -165 -69t-87 -191q0 -6 -2 -20q0 -2 -1.5 -10.5t-2.5 -14.5
q-1 -15 -3 -23q-2 -10 -2 -14q0 -88 51 -144q49 -54 136 -54q110 0 181 96q71 97 71 240z" />
    <glyph glyph-name="q.ord" horiz-adv-x="882" 
d="M514 1346q80 0 141 -42q62 -42 80 -106l23 129h106l-147 -919h-111l58 362q-37 -63 -101 -102q-61 -37 -135 -37q-118 0 -189 78q-71 79 -71 209q0 178 99 303t247 125zM276 920q0 -93 48 -149q46 -54 129 -54q96 0 162 69q68 71 90 193q0 5 2 18.5t3 22.5q3 27 3 39
q0 89 -50 144q-49 54 -135 54q-111 0 -181 -97q-71 -98 -71 -240z" />
    <glyph glyph-name="r.ord" horiz-adv-x="575" 
d="M598 1341q17 0 26 -1q18 -2 29 -3l-16 -102q-5 1 -21 3q-8 1 -36 1q-91 0 -161 -70q-69 -69 -87 -186l-53 -336h-111l108 680h107l-27 -162q34 81 100 129q65 47 142 47z" />
    <glyph glyph-name="s.ord" horiz-adv-x="751" 
d="M420 631q-130 0 -204 56q-76 57 -77 159h105q0 -61 50 -97t132 -36q74 0 122 36t48 91q0 32 -25 55q-23 22 -77 37l-121 31q-81 22 -118 61q-38 41 -38 102q0 94 75 157t191 63t186 -53q68 -52 70 -144h-102q-1 55 -45 85t-117 30q-68 0 -111 -35q-42 -35 -42 -90
q0 -33 22 -54q20 -19 80 -36l131 -35q70 -18 109 -58q36 -37 36 -98q0 -100 -78 -163q-79 -64 -202 -64z" />
    <glyph glyph-name="t.ord" horiz-adv-x="546" 
d="M395 729q27 0 48 4q26 5 55 15l-15 -89q-31 -13 -58 -17q-30 -5 -60 -5q-79 0 -122 35q-42 34 -42 104q0 9 1 14q2 8 3 31l67 424h-100l12 82h101l32 174h105l-27 -174h178l-14 -82h-180l-68 -420q-2 -6 -2 -9v-15q0 -37 21 -55q20 -17 65 -17z" />
    <glyph glyph-name="u.ord" horiz-adv-x="854" 
d="M725 649h-104l20 121q-37 -67 -97 -103t-136 -36q-98 0 -155 54q-56 53 -56 153q0 11 1 19l3 34l67 436h113l-68 -418q-2 -14 -3 -22t-1 -33q0 -68 34 -102q35 -35 101 -35q87 0 145 61q59 62 75 174l59 375h113z" />
    <glyph glyph-name="v.ord" horiz-adv-x="788" 
d="M453 647h-121l-135 680h108l105 -571h2l325 571h113z" />
    <glyph glyph-name="w.ord" horiz-adv-x="1091" 
d="M612 1327h109l47 -559h2l274 559h109l-348 -680h-111l-53 553h-2l-262 -553h-117l-63 680h106l45 -559h2z" />
    <glyph glyph-name="x.ord" horiz-adv-x="808" 
d="M475 924l-254 -277h-121l324 352l-188 328h120l140 -252l229 252h121l-301 -328l203 -352h-119z" />
    <glyph glyph-name="y.ord" horiz-adv-x="788" 
d="M164 508q46 0 81 30t91 128l-137 680h110l105 -564h2l323 564h113l-412 -699q-83 -138 -140 -183q-59 -47 -140 -48q-6 0 -30 2q-17 1 -32 6l15 90q10 -2 21 -4l12 -1q6 -1 18 -1z" />
    <glyph glyph-name="z.ord" horiz-adv-x="751" 
d="M778 1327l-10 -82l-496 -514h418l-14 -84h-555l10 72l498 522h-389l12 86h526z" />
    <glyph glyph-name="caron.Slovak" horiz-adv-x="1155" 
d="M834 1507l-230 -430h-63l135 430h158z" />
    <glyph glyph-name="commaturn" horiz-adv-x="1157" 
d="M698 1335h84l-20 -133h-172l20 135q16 99 70 150q52 49 145 49l-10 -68q-52 0 -80 -31q-29 -33 -37 -102z" />
    <glyph glyph-name="grave.cap" horiz-adv-x="1157" 
d="M748 1870l81 -293h-71l-180 293h170z" />
    <glyph glyph-name="acute.cap" horiz-adv-x="1157" 
d="M616 1577h-77l166 293h174z" />
    <glyph glyph-name="circumflex.cap" horiz-adv-x="1157" 
d="M463 1571l252 299h155l154 -299h-80l-160 203l-237 -203h-84z" />
    <glyph glyph-name="caron.cap" horiz-adv-x="1157" 
d="M1071 1870l-252 -299h-155l-154 299h80l160 -203l237 203h84z" />
    <glyph glyph-name="tilde.cap" horiz-adv-x="1155" 
d="M670 1671q-43 43 -64 55q-23 13 -41 13q-42 0 -72 -40q-29 -39 -44 -118h-91q21 127 79 195q59 69 145 69q37 0 70 -17q35 -18 87 -73q40 -42 60 -53q21 -12 41 -12q43 0 71 37q29 38 47 120h89q-21 -126 -79 -194q-59 -70 -145 -70q-33 0 -68 18q-34 18 -85 70z" />
    <glyph glyph-name="macron.cap" horiz-adv-x="1157" 
d="M973 1618h-561l16 102h561z" />
    <glyph glyph-name="breve.cap" horiz-adv-x="1157" 
d="M868 1870h103q-22 -138 -107 -221q-83 -82 -202 -82q-102 0 -161 62q-61 64 -61 171q0 15 1 24q1 5 8 46h94q-1 -22 -3 -33q-1 -7 -1 -18q0 -72 34 -109t103 -37q76 0 127 51q50 50 65 146z" />
    <glyph glyph-name="dotaccent.cap" horiz-adv-x="1155" 
d="M825 1620h-143l29 180h143z" />
    <glyph glyph-name="dieresis.cap" horiz-adv-x="1157" 
d="M999 1620h-135l29 180h135zM645 1620h-135l29 180h135z" />
    <glyph glyph-name="ring.cap" horiz-adv-x="1157" 
d="M907 1739q0 -110 -80 -192q-79 -81 -194 -81q-95 0 -158 63t-63 152q0 110 80 192q80 81 194 81q95 0 158 -63t63 -152zM807 1726q0 57 -38 95q-37 37 -95 37q-69 0 -116 -49q-46 -47 -46 -115q0 -57 38 -95q36 -36 95 -36q69 0 116 48q46 47 46 115z" />
    <glyph glyph-name="hungarumlaut.cap" horiz-adv-x="1155" 
d="M758 1577h-72l170 293h162zM467 1577h-70l168 293h164z" />
    <glyph glyph-name="guilsinglleft.cap" horiz-adv-x="628" 
d="M295 639l158 -391h-93l-206 391l323 393h101z" />
    <glyph glyph-name="guilsinglright.cap" horiz-adv-x="628" 
d="M375 643l-158 391h92l207 -391l-323 -393h-101z" />
    <glyph glyph-name="guillemotleft.cap" horiz-adv-x="1007" 
d="M295 639l158 -391h-93l-206 391l323 393h101zM674 639l157 -391h-92l-207 391l324 393h100z" />
    <glyph glyph-name="guillemotright.cap" horiz-adv-x="1007" 
d="M373 641l-158 391h92l207 -391l-324 -393h-100zM754 641l-158 391h92l207 -391l-324 -393h-100z" />
    <glyph glyph-name="slash.cap" horiz-adv-x="1009" 
d="M127 -154h-123l940 1729h123z" />
    <glyph glyph-name="backslash.cap" horiz-adv-x="1005" 
d="M676 -154l-397 1729h114l395 -1729h-112z" />
    <glyph glyph-name="bar.cap" horiz-adv-x="602" 
d="M137 -154l275 1729h112l-274 -1729h-113z" />
    <glyph glyph-name="periodcentered.cap" horiz-adv-x="530" 
d="M369 608h-179l29 178h178z" />
    <glyph glyph-name="bullet.cap" horiz-adv-x="851" 
d="M459 477q-101 0 -176 73q-74 72 -74 175q0 101 74 173q75 73 176 73q102 0 175 -73t73 -173q0 -102 -73 -175t-175 -73z" />
    <glyph glyph-name="hyphen.cap" horiz-adv-x="919" 
d="M760 637h-563l18 111h563z" />
    <glyph glyph-name="endash.cap" horiz-adv-x="1386" 
d="M1225 637h-1030l18 104h1030z" />
    <glyph glyph-name="emdash.cap" horiz-adv-x="2054" 
d="M1894 637h-1697l18 104h1698z" />
    <glyph glyph-name="parenleft.cap" horiz-adv-x="768" 
d="M678 1575h121q-244 -275 -361 -531q-119 -259 -119 -512q0 -175 53 -349q54 -176 154 -337h-112q-105 163 -159 338q-54 174 -54 351q0 267 120 530t357 510z" />
    <glyph glyph-name="parenright.cap" horiz-adv-x="765" 
d="M152 -154h-121q241 273 360 531q119 259 119 512q0 178 -52 349q-53 173 -155 337h113q103 -160 158 -338q55 -177 55 -350q0 -269 -120 -531t-357 -510z" />
    <glyph glyph-name="bracketleft.cap" horiz-adv-x="790" 
d="M788 1475h-301l-241 -1528h301l-15 -101h-413l274 1729h410z" />
    <glyph glyph-name="bracketright.cap" horiz-adv-x="790" 
d="M63 -53h302l241 1528h-301l14 100h414l-274 -1729h-410z" />
    <glyph glyph-name="braceleft.cap" horiz-adv-x="868" 
d="M238 659h-113l16 103h113q50 0 81 28q30 27 38 80l80 502q17 106 75 154q59 49 172 49h185l-17 -100h-174q-65 0 -94 -23q-30 -23 -37 -74l-80 -508q-10 -65 -46 -104t-101 -55q53 -16 76 -43q24 -28 24 -76q0 -22 -9 -88q-5 -37 -40 -238q-25 -155 -30 -187
q-7 -45 -7 -63q0 -36 23 -53q22 -16 80 -16h174l-17 -101h-184q-96 0 -141 36t-45 112q0 26 9 95q7 56 38 245q6 39 29 183q8 51 8 65q0 38 -22 58q-20 19 -64 19z" />
    <glyph glyph-name="braceright.cap" horiz-adv-x="868" 
d="M692 762h113l-17 -103h-112q-51 0 -81 -27t-38 -81l-80 -502q-16 -104 -76 -153q-61 -50 -172 -50h-184l16 101h175q66 0 94 22q30 23 37 74l79 508q10 64 47 104t101 56q-53 16 -76 43q-24 28 -24 75q0 23 9 89q4 32 40 237q7 41 13 79.5t10.5 68.5t5.5 39q8 51 8 63
q0 36 -23 53t-80 17h-174l16 100h185q96 0 141 -36t45 -112q0 -26 -9 -95q-7 -56 -38 -245q-23 -135 -30 -183q-7 -45 -7 -64q0 -39 22 -59q20 -19 64 -19z" />
    <glyph glyph-name="at.cap" horiz-adv-x="1869" 
d="M1274 1102h112l-141 -594q-3 -10 -5 -26q-1 -8 -1 -21q0 -45 26 -68q25 -22 74 -22q146 0 245 148q99 149 99 362q0 244 -169 391t-447 147q-176 0 -321 -59t-254 -174q-106 -112 -166 -265t-60 -317q0 -296 198 -469q197 -172 519 -172q118 0 239 23q116 22 216 63
l30 -86q-116 -49 -238 -73q-125 -25 -253 -25q-365 0 -592 197t-227 536q0 190 67 358q67 170 195 297q129 132 295 200q168 69 358 69q317 0 520 -180q201 -178 201 -459q0 -250 -141 -427t-332 -177q-82 0 -134 39q-55 41 -67 108q-44 -64 -113 -102q-71 -39 -147 -39
q-127 0 -202 87q-74 86 -74 228q0 206 127 363t319 157q72 0 133 -41q59 -40 80 -100zM885 391q93 0 173 68q78 66 107 180q19 79 26 115q7 38 7 73q0 90 -46 139q-47 50 -124 50q-138 0 -232 -126q-96 -128 -96 -286q0 -99 49 -157q47 -56 136 -56z" />
    <glyph glyph-name="Euro.lt" 
d="M1143 408h125q-66 -208 -208 -320q-143 -113 -343 -113q-210 0 -340 151t-137 406h-164l16 105h150q6 62 10 93t14 91h-145l16 105h156q79 253 256 407t389 154q195 0 300 -114t105 -316h-116q-6 159 -82 238t-225 79q-165 0 -298 -121q-136 -124 -204 -327h536l-41 -105
h-526q-10 -60 -14 -91q-8 -62 -11 -93h480l-37 -105h-445q10 -212 108 -328t267 -116q149 0 252 80q103 81 156 240z" />
    <glyph glyph-name="dollar.lt" 
d="M1202 442q0 -196 -156 -329q-155 -133 -389 -133l-32 -203h-103l35 207q-209 24 -331 140q-123 116 -124 302h121q7 -142 98 -230q89 -86 252 -104l99 600l-105 27q-162 40 -239 117q-76 76 -76 194q0 195 151 325t381 130h10h9l31 192h102l-33 -200q172 -27 269 -124
q98 -97 102 -249h-119q-1 102 -74 171q-71 68 -196 91l-97 -588l103 -24q161 -40 236 -117t75 -195zM373 1036q0 -83 55 -132q58 -52 182 -81l80 -20l94 571h-8q-185 0 -294 -94t-109 -244zM1081 418q0 90 -59 146q-60 57 -182 87l-70 17l-94 -580q178 5 291 97
q114 93 114 233z" />
    <glyph glyph-name="cent.lt" 
d="M948 315h113q-49 -153 -156 -240t-256 -93l-35 -199h-102l37 205q-145 27 -228 141q-83 115 -83 287q0 258 142 440q142 183 357 201l43 250h103l-45 -252q129 -16 206 -105q76 -88 78 -225h-108q-6 96 -58 157q-51 60 -135 72l-153 -870q100 7 170 67t110 164zM358 420
q0 -134 56 -222t151 -110l154 866q-162 -24 -261 -173q-100 -150 -100 -361z" />
    <glyph glyph-name="sterling.lt" 
d="M330 111h800l-18 -111h-1032l18 111h23q123 0 213 127q90 128 90 299q0 27 -1 41q-2 25 -5 40h-201l16 105h158q-48 158 -55 201q-8 50 -8 94q0 196 138 333q137 136 357 136q197 0 311 -111q113 -110 113 -293q0 -13 -1 -20q-2 -11 -3 -39h-115q2 16 2 18v19
q0 146 -80 230q-81 85 -227 85q-169 0 -271 -96q-101 -95 -101 -256q0 -77 32 -185q33 -111 33 -116h453l-17 -105h-415q3 -12 5 -36q1 -12 1 -39q0 -133 -56 -245q-55 -111 -157 -187z" />
    <glyph glyph-name="yen.lt" 
d="M1159 440l-16 -104h-434l-54 -336h-118l53 336h-438l16 104h438l33 205h-436l16 107h383l-369 710h129l355 -686h4l553 686h145l-592 -710h385l-16 -107h-438l-33 -205h434z" />
    <glyph glyph-name="florin.lt" 
d="M1001 827l-14 -94h-258l-323 -958h-117l321 958h-184l14 94h203l135 404q50 142 144 221q95 80 213 80q32 0 64 -7q33 -7 65 -20l-17 -112q-27 15 -60 23q-28 7 -67 7q-78 0 -137 -55q-58 -54 -92 -158l-129 -383h239z" />
    <glyph glyph-name="zero.slash" horiz-adv-x="1347" 
d="M1112 299q-95 -157 -226 -240q-132 -84 -282 -84q-212 0 -337 158q-124 157 -124 428q0 164 41 322q40 154 119 280q95 157 226 240q132 84 282 84q212 0 337 -158q124 -157 124 -428q0 -163 -41 -321q-40 -155 -119 -281zM281 733q-8 -70 -10 -92q-3 -43 -3 -84
q0 -107 23 -196t65 -144l633 1098q-39 28 -86 42q-45 13 -102 13q-199 0 -338 -172q-138 -171 -182 -465zM1135 729q6 51 9 92q3 43 3 84q0 111 -24 199q-24 89 -68 149l-633 -1103q40 -29 87 -44q45 -14 105 -14q199 0 338 172q140 172 183 465z" />
    <glyph glyph-name="zero.lt" 
d="M1114 299q-95 -157 -226 -240q-132 -84 -282 -84q-212 0 -337 158q-124 157 -124 428q0 164 41 322q40 154 119 280q95 157 226 240q132 84 282 84q212 0 337 -158q124 -157 124 -428q0 -163 -41 -321q-40 -155 -119 -281zM270 557q0 -221 90 -343t256 -122
q199 0 338 172q140 172 183 465q6 51 9 92q3 43 3 84q0 221 -90 343t-256 122q-199 0 -338 -172q-138 -171 -182 -465q-8 -70 -10 -92q-3 -43 -3 -84z" />
    <glyph glyph-name="zero.slash.lt" 
d="M1114 299q-95 -157 -226 -240q-132 -84 -282 -84q-212 0 -337 158q-124 157 -124 428q0 164 41 322q40 154 119 280q95 157 226 240q132 84 282 84q212 0 337 -158q124 -157 124 -428q0 -163 -41 -321q-40 -155 -119 -281zM283 733q-8 -70 -10 -92q-3 -43 -3 -84
q0 -107 23 -196t65 -144l633 1098q-39 28 -86 42q-45 13 -102 13q-199 0 -338 -172q-138 -171 -182 -465zM1137 729q6 51 9 92q3 43 3 84q0 111 -24 199q-24 89 -68 149l-633 -1103q40 -29 87 -44q45 -14 105 -14q199 0 338 172q140 172 183 465z" />
    <glyph glyph-name="one.lt" 
d="M731 102h440l-16 -102h-1036l16 102h473l168 1059h-422l13 86q239 0 352 45t166 176h63z" />
    <glyph glyph-name="two.lt" 
d="M834 1487q183 0 287 -98q106 -100 106 -261q0 -70 -23 -137q-23 -66 -67 -127q-33 -45 -86 -93q-47 -42 -123 -95q-57 -40 -135 -89t-105 -65q-255 -161 -342 -248q-86 -86 -96 -163h840l-19 -111h-967l13 66q21 139 146 271q127 135 407 298q256 151 348 260t92 229
q0 118 -75 184t-212 66q-153 0 -263 -97q-111 -97 -148 -253h-115q45 208 189 336q143 127 348 127z" />
    <glyph glyph-name="three.lt" 
d="M885 745q110 -24 184 -114q74 -91 74 -203q0 -186 -150 -319q-151 -134 -385 -134q-220 0 -350 121q-131 122 -131 326h123q0 -158 95 -248t263 -90q186 0 300 98q116 99 116 248q0 119 -83 188q-84 70 -228 70h-152l19 113h153q160 0 260 86q99 85 99 237q0 116 -78 185
t-213 69q-161 0 -272 -96q-112 -97 -142 -256h-117q39 205 185 333t350 128q188 0 300 -101t112 -260q0 -144 -97 -253q-95 -107 -235 -128z" />
    <glyph glyph-name="four.lt" 
d="M940 1462h143l-147 -938h326l-17 -102h-325l-68 -422h-119l68 422h-729l16 104zM817 524l125 799l-723 -799h598z" />
    <glyph glyph-name="five.lt" 
d="M1057 543q0 145 -82 230t-232 85q-110 0 -206 -48q-95 -48 -162 -134h-111l203 786h795l-19 -112h-702l-144 -541q65 71 164 114q102 44 197 44q195 0 306 -114q112 -115 112 -302q0 -243 -159 -409q-159 -167 -399 -167q-213 0 -337 121q-125 122 -125 334h118
q0 -163 92 -255q91 -91 257 -91q191 0 313 132q121 131 121 327z" />
    <glyph glyph-name="six.lt" 
d="M852 1374q-210 0 -359 -197q-152 -201 -192 -515q62 147 181 231q120 84 280 84q187 0 308 -124q122 -125 122 -308q0 -236 -161 -403t-394 -167q-211 0 -334 152q-123 151 -123 412q0 167 42 325t122 289q99 157 234 246q134 88 282 88q187 0 299 -107
q111 -106 111 -286h-117q-6 136 -84 208t-217 72zM313 426q0 -150 94 -246q93 -94 242 -94q180 0 302 131t122 322q0 145 -91 235q-92 90 -241 90q-180 0 -304 -127t-124 -311z" />
    <glyph glyph-name="seven.lt" 
d="M1145 1350h-918l19 112h1067l-15 -80q-314 -308 -498 -647t-251 -735h-133q63 363 250 709q186 343 479 641z" />
    <glyph glyph-name="eight.lt" 
d="M1192 434q0 -198 -166 -328q-167 -131 -414 -131q-223 0 -358 102t-135 267q0 153 114 270t277 140q-100 41 -152 114q-53 74 -53 172q0 195 150 321t372 126q187 0 302 -94q116 -95 116 -248q0 -143 -86 -253t-231 -155q115 -29 189 -112q75 -84 75 -191zM428 1047
q0 -116 85 -182t228 -66q168 0 275 94q108 94 108 242q0 112 -85 178q-84 65 -228 65q-166 0 -275 -92q-108 -92 -108 -239zM1059 432q0 122 -98 192t-271 70q-195 0 -319 -95q-123 -94 -123 -249q0 -124 101 -195q103 -73 276 -73q191 0 313 99q121 99 121 251z" />
    <glyph glyph-name="nine.lt" 
d="M567 88q210 0 360 198q151 199 191 515q-62 -149 -181 -232q-120 -84 -280 -84q-187 0 -308 124q-122 125 -122 309q0 235 161 402t394 167q211 0 334 -152q123 -151 123 -411q0 -168 -42 -326t-122 -289q-100 -159 -233 -246q-134 -88 -283 -88q-187 0 -299 107
q-110 106 -110 287h116q6 -136 84 -208q79 -73 217 -73zM1106 1036q0 152 -93 246t-243 94q-180 0 -302 -131t-122 -321q0 -146 91 -236q92 -90 241 -90q180 0 304 127t124 311z" />
    <glyph glyph-name="period.tab" horiz-adv-x="675" 
d="M344 0h-178l29 178h178z" />
    <glyph glyph-name="comma.tab" horiz-adv-x="675" 
d="M246 0h-78l29 178h178l-35 -221q-18 -122 -98 -194t-199 -72l14 82q78 0 123 45t60 139z" />
    <glyph glyph-name="colon.tab" horiz-adv-x="675" 
d="M457 713h-178l28 178h178zM344 0h-178l29 178h178z" />
    <glyph glyph-name="semicolon.tab" horiz-adv-x="675" 
d="M246 0h-78l29 178h178l-35 -221q-18 -122 -98 -194t-199 -72l14 82q78 0 123 45t60 139zM459 713h-178l28 178h178z" />
    <glyph glyph-name="space.tab" horiz-adv-x="675" 
 />
    <glyph glyph-name="zero.dnom" horiz-adv-x="835" 
d="M729 489q0 -211 -109 -357t-272 -146q-127 0 -202 90q-74 89 -74 239q0 211 109 357q109 147 274 147q126 0 200 -89t74 -241zM618 498q0 109 -45 169t-124 60q-98 0 -166 -86t-90 -235q-8 -32 -9 -48q-2 -30 -2 -51q0 -109 45 -169t127 -60q96 0 165 86q68 85 91 233
q4 26 6 52q2 32 2 49z" />
    <glyph glyph-name="one.dnom" horiz-adv-x="669" 
d="M344 88h213l-14 -88h-535l15 88h210l82 514h-206l12 82q125 0 182 24q58 24 86 97h68z" />
    <glyph glyph-name="two.dnom" horiz-adv-x="706" 
d="M414 817q107 0 169 -56t62 -149q0 -59 -23 -106q-24 -49 -75 -94q-27 -24 -63 -48q-30 -20 -132 -79q-117 -67 -165 -111t-54 -82h442l-16 -92h-561l8 47q12 82 81 157t224 163q140 79 184 128q46 52 46 113q0 56 -35 86q-36 31 -100 31q-73 0 -128 -47t-71 -123h-107
q24 116 110 189q87 73 204 73z" />
    <glyph glyph-name="three.dnom" horiz-adv-x="757" 
d="M481 401q63 -12 100 -57q37 -44 37 -106q0 -105 -86 -179q-85 -73 -221 -73q-126 0 -201 66t-75 181h108q0 -75 46 -117q47 -42 128 -42q88 0 143 47q54 46 54 119q0 58 -39 88t-110 30h-84l14 88h82q77 0 126 44q48 44 48 118q0 55 -37 88q-38 33 -102 33
q-77 0 -129 -41q-51 -40 -66 -115h-104q24 115 106 180q83 66 201 66q112 0 175 -56q64 -57 64 -147q0 -80 -51 -140t-127 -75z" />
    <glyph glyph-name="four.dnom" horiz-adv-x="821" 
d="M502 801h125l-84 -514h170l-13 -86h-170l-30 -201h-107l31 201h-399l14 88zM436 287l66 403l-359 -403h293z" />
    <glyph glyph-name="five.dnom" horiz-adv-x="761" 
d="M526 297q0 69 -39 110q-38 39 -110 39q-54 0 -99 -22t-79 -62h-101l115 441h467l-16 -92h-383l-68 -250q32 32 85 53q52 21 103 21q107 0 171 -61q63 -60 63 -165q0 -134 -92 -229q-91 -94 -232 -94q-125 0 -196 68q-72 69 -72 188h111q0 -81 43 -124q44 -44 122 -44
q93 0 150 64t57 159z" />
    <glyph glyph-name="six.dnom" horiz-adv-x="784" 
d="M449 727q-101 0 -176 -93q-74 -91 -95 -243q39 72 96 106q58 35 138 35q105 0 173 -65t68 -168q0 -129 -92 -221t-227 -92q-122 0 -194 85t-72 226q0 213 114 368q114 154 273 154q109 0 173 -60t66 -163h-102q-5 63 -41 97q-37 34 -102 34zM180 238q0 -74 45 -119
t119 -45q86 0 144 63q59 64 59 156q0 72 -44 114q-43 42 -118 42q-85 0 -145 -62q-60 -61 -60 -149z" />
    <glyph glyph-name="seven.dnom" horiz-adv-x="716" 
d="M549 711h-453l17 90h569l-14 -80q-159 -163 -245 -333q-87 -171 -126 -388h-117q33 191 125 371q90 175 244 340z" />
    <glyph glyph-name="eight.dnom" horiz-adv-x="794" 
d="M655 240q0 -111 -93 -183q-92 -71 -234 -71q-132 0 -209 56q-78 57 -78 151q0 83 61 145q61 63 148 78q-56 22 -81 60q-28 42 -28 93q0 110 85 180t212 70q110 0 178 -53t68 -143q0 -77 -45 -135q-44 -58 -123 -85q59 -12 99 -58t40 -105zM244 571q0 -57 41 -89
q40 -31 112 -31q82 0 133 45q52 46 52 118q0 56 -41 86q-42 31 -111 31q-81 0 -134 -44q-52 -43 -52 -116zM547 242q0 59 -49 93t-133 34q-97 0 -155 -46t-58 -122q0 -61 49 -95t135 -34q94 0 152 48q59 48 59 122z" />
    <glyph glyph-name="nine.dnom" horiz-adv-x="784" 
d="M299 78q101 0 174 93q73 92 94 243q-39 -71 -96 -107q-59 -37 -137 -37q-101 0 -171 67q-69 66 -69 167q0 132 91 223q92 92 227 92q121 0 194 -85q74 -86 74 -228q0 -213 -115 -367q-114 -153 -272 -153q-108 0 -174 60t-68 163h103q1 -62 40 -97q37 -34 105 -34z
M565 567q0 72 -45 117t-117 45q-86 0 -144 -62t-58 -153q0 -74 43 -117t116 -43q86 0 146 62q59 60 59 151z" />
    <glyph glyph-name="percent.lt" 
d="M778 1210q0 -141 -108 -249q-109 -109 -250 -109q-121 0 -200 79t-79 197q0 141 109 250t250 109q118 0 198 -80t80 -197zM-51 2l1390 1460h131l-1392 -1460h-129zM250 1143q0 -81 51 -133q52 -54 131 -54q97 0 166 74q70 75 70 168q0 79 -53 132q-52 52 -130 52
q-97 0 -166 -72t-69 -167zM1288 336q0 -142 -108 -250q-109 -109 -250 -109q-121 0 -200 79t-79 198q0 141 109 250q108 108 250 108q118 0 198 -80t80 -196zM760 266q0 -80 52 -132t130 -52q96 0 166 73t70 167q0 79 -52 133q-51 53 -131 53q-97 0 -166 -74t-69 -168z" />
    </font>
</defs>
</svg>
