<svg xmlns="http://www.w3.org/2000/svg">
<defs>
<font id="UntitledSans-Medium" horiz-adv-x="1155" >
  <font-face 
    font-family="Copyright Klim Type Foundry"
    font-weight="500"
    font-stretch="normal"
    units-per-em="2048"
    panose-1="2 11 6 3 3 2 2 6 2 3"
    ascent="1638"
    descent="-410"
    x-height="1040"
    cap-height="1462"
    bbox="-428 -475 2171 2001"
    underline-thickness="159"
    underline-position="-443"
    unicode-range="U+000D-F6C3"
  />
<missing-glyph horiz-adv-x="2412" 
d="M1964 961q12 0 32 2q15 1 36 6v-113q-27 -8 -51 -12q-21 -4 -58 -4q-86 0 -129 43t-43 129v256h-74v106h74v133h152v-133h116v-106h-116v-238q0 -34 15 -52q14 -17 46 -17zM502 1374h153v-82q22 46 64 71q44 26 98 26q92 0 144 -54q51 -52 51 -149v-338h-154v303
q0 60 -24 90q-25 31 -72 31q-52 0 -79 -36q-28 -37 -28 -103v-285h-153v526zM1366 838q-126 0 -200 74t-74 202q0 126 74 200q75 75 200 75q123 0 198 -75q74 -74 74 -200t-74 -201t-198 -75zM1366 1278q-60 0 -91 -42q-32 -43 -32 -122q0 -81 32 -125q31 -43 91 -43
q55 0 87 44t32 124q0 76 -31 121q-30 43 -88 43zM379 848h-174v174h174v-174zM2032 733v-112q-21 5 -36 6q-20 2 -32 2q-31 0 -46 -18t-15 -52v-31h116v-106h-116v-422h-152v422h-74v106h74v50q0 86 43 129t129 43q31 0 58 -5q24 -5 51 -12zM1012 0h-152v84q-21 -43 -64 -70
q-42 -26 -100 -26q-106 0 -168 75q-63 77 -63 201t63 200q63 77 168 77q52 0 96 -26q44 -25 66 -69v297h154v-743zM1479 166h147q-24 -86 -90 -132q-65 -46 -166 -46q-127 0 -202 74q-76 75 -76 200t78 200q80 77 200 77q121 0 193 -74q71 -72 71 -193v-47h-395
q7 -62 41 -96q33 -33 90 -33q43 0 70 18t39 52zM1370 432q-51 0 -84 -30t-43 -85h242q-1 50 -33 83q-30 32 -82 32zM739 96q57 0 90 42t33 116v18q0 74 -33 116t-90 42t-90 -44t-33 -122t33 -123t90 -45z" />
    <glyph glyph-name="f_idieresis" unicode="f&#xef;" horiz-adv-x="1286" 
d="M188 0v852h-143v188h143v97q0 171 115 274q114 102 301 102q55 0 104 -7q54 -8 89 -19v-203q-26 13 -70 19q-45 6 -94 6q-89 0 -136 -45q-46 -45 -46 -136v-88h211v-188h-211v-852h-263zM1292 1217h-241v256h241v-256zM862 0v1040h264v-1040h-264z" />
    <glyph glyph-name=".notdef" horiz-adv-x="2412" 
d="M1964 961q12 0 32 2q15 1 36 6v-113q-27 -8 -51 -12q-21 -4 -58 -4q-86 0 -129 43t-43 129v256h-74v106h74v133h152v-133h116v-106h-116v-238q0 -34 15 -52q14 -17 46 -17zM502 1374h153v-82q22 46 64 71q44 26 98 26q92 0 144 -54q51 -52 51 -149v-338h-154v303
q0 60 -24 90q-25 31 -72 31q-52 0 -79 -36q-28 -37 -28 -103v-285h-153v526zM1366 838q-126 0 -200 74t-74 202q0 126 74 200q75 75 200 75q123 0 198 -75q74 -74 74 -200t-74 -201t-198 -75zM1366 1278q-60 0 -91 -42q-32 -43 -32 -122q0 -81 32 -125q31 -43 91 -43
q55 0 87 44t32 124q0 76 -31 121q-30 43 -88 43zM379 848h-174v174h174v-174zM2032 733v-112q-21 5 -36 6q-20 2 -32 2q-31 0 -46 -18t-15 -52v-31h116v-106h-116v-422h-152v422h-74v106h74v50q0 86 43 129t129 43q31 0 58 -5q24 -5 51 -12zM1012 0h-152v84q-21 -43 -64 -70
q-42 -26 -100 -26q-106 0 -168 75q-63 77 -63 201t63 200q63 77 168 77q52 0 96 -26q44 -25 66 -69v297h154v-743zM1479 166h147q-24 -86 -90 -132q-65 -46 -166 -46q-127 0 -202 74q-76 75 -76 200t78 200q80 77 200 77q121 0 193 -74q71 -72 71 -193v-47h-395
q7 -62 41 -96q33 -33 90 -33q43 0 70 18t39 52zM1370 432q-51 0 -84 -30t-43 -85h242q-1 50 -33 83q-30 32 -82 32zM739 96q57 0 90 42t33 116v18q0 74 -33 116t-90 42t-90 -44t-33 -122t33 -123t90 -45z" />
    <glyph glyph-name=".null" horiz-adv-x="0" 
 />
    <glyph glyph-name="nonmarkingreturn" unicode="&#xd;" horiz-adv-x="452" 
 />
    <glyph glyph-name="NULL" horiz-adv-x="0" 
 />
    <glyph glyph-name="NULL" horiz-adv-x="0" 
 />
    <glyph glyph-name="space" unicode=" " horiz-adv-x="430" 
 />
    <glyph glyph-name="exclam" unicode="!" horiz-adv-x="669" 
d="M229 479l-45 983h303l-45 -983h-213zM487 0h-305v297h305v-297z" />
    <glyph glyph-name="quotedbl" unicode="&#x22;" horiz-adv-x="952" 
d="M766 907h-174l-41 600h256zM362 907h-174l-43 600h258z" />
    <glyph glyph-name="numbersign" unicode="#" horiz-adv-x="1511" 
d="M922 82h-189l92 364h-288l-93 -364h-188l92 364h-235l37 166h239l66 262h-248l37 168h254l92 367h188l-92 -367h289l92 367h188l-92 -367h236l-35 -168h-244l-65 -262h250l-37 -166h-254zM643 874l-65 -262h288l66 262h-289z" />
    <glyph glyph-name="dollar" unicode="$" horiz-adv-x="1372" 
d="M1276 418q0 -183 -140 -302t-368 -134v-205h-150v207q-238 21 -379 140q-143 120 -159 316h250q11 -108 85 -173q77 -67 203 -85v453l-106 18q-199 38 -292 134q-95 98 -95 262q0 182 137 302q136 120 356 132v194h150v-196q213 -23 337 -130q123 -107 144 -288h-245
q-11 89 -70 141q-62 54 -166 72v-436l131 -25q193 -38 284 -135q93 -99 93 -262zM371 1065q0 -81 48 -125q49 -44 181 -68l18 -4v412q-115 -10 -182 -68q-65 -56 -65 -147zM1030 399q0 87 -55 133q-57 48 -182 70l-25 4v-428q124 12 194 70q68 56 68 151z" />
    <glyph glyph-name="percent" unicode="%" horiz-adv-x="1740" 
d="M463 809q-139 0 -240 99q-100 99 -100 239q0 142 99 241t241 99q139 0 238 -99q100 -100 100 -241q0 -139 -100 -239q-99 -99 -238 -99zM297 2l969 1460h182l-969 -1460h-182zM463 1333q-75 0 -127 -54q-53 -55 -53 -132q0 -79 52 -131q53 -53 128 -53t128 53
q52 52 52 131q0 77 -53 132q-53 54 -127 54zM1280 -27q-139 0 -239 100q-99 99 -99 240q0 139 99 240q99 100 239 100t239 -100q99 -101 99 -240q0 -141 -99 -240q-100 -100 -239 -100zM1280 500q-74 0 -127 -55t-53 -132t53 -132q53 -54 127 -54q76 0 128 54q52 53 52 132
t-52 132q-53 55 -128 55z" />
    <glyph glyph-name="ampersand" unicode="&#x26;" horiz-adv-x="1552" 
d="M1528 0h-326l-129 127q-103 -75 -218 -113q-119 -39 -245 -39q-223 0 -368 113q-144 112 -144 293q0 125 72 222q73 98 233 183q-85 88 -123 167q-36 75 -36 155q0 166 123 272q124 107 313 107q188 0 301 -97q115 -98 115 -249q0 -121 -75 -209t-257 -178l326 -320
q43 70 73 155q28 82 39 175h232q-15 -127 -65 -252q-49 -123 -132 -225zM680 1307q-81 0 -136 -53t-55 -134q0 -51 29 -101q28 -48 109 -128q139 62 188 114q47 50 47 130q0 71 -51 121q-53 51 -131 51zM354 406q0 -100 78 -166t195 -66q83 0 159 24q79 25 144 68l-389 383
q-101 -53 -144 -109t-43 -134z" />
    <glyph glyph-name="quotesingle" unicode="'" horiz-adv-x="552" 
d="M367 907h-179l-43 600h263z" />
    <glyph glyph-name="parenleft" unicode="(" horiz-adv-x="870" 
d="M440 643q0 -219 85 -438t245 -426h-250q-169 202 -254 419q-86 219 -86 445q0 227 86 446q85 215 254 418h250q-162 -220 -246 -440q-84 -219 -84 -424z" />
    <glyph glyph-name="parenright" unicode=")" horiz-adv-x="870" 
d="M430 643q0 205 -84 424q-84 220 -246 440h250q169 -203 254 -418q86 -219 86 -446q0 -226 -86 -445q-85 -217 -254 -419h-250q160 207 245 426t85 438z" />
    <glyph glyph-name="asterisk" unicode="*" horiz-adv-x="872" 
d="M358 1227v260h156v-258l242 80l49 -148l-244 -82l150 -205l-125 -94l-150 209l-147 -209l-127 92l149 207l-243 80l47 150z" />
    <glyph glyph-name="plus" unicode="+" horiz-adv-x="1351" 
d="M1217 778v-194h-445v-445h-192v445h-447v194h447v445h192v-445h445z" />
    <glyph glyph-name="comma" unicode="," horiz-adv-x="669" 
d="M322 8h-140v297h305v-325q0 -151 -92 -237q-91 -85 -258 -85v141q97 0 141 44t44 137v28z" />
    <glyph glyph-name="hyphen" unicode="-" horiz-adv-x="929" 
d="M752 473h-574v219h574v-219z" />
    <glyph glyph-name="period" unicode="." horiz-adv-x="669" 
d="M487 0h-305v305h305v-305z" />
    <glyph glyph-name="slash" unicode="/" horiz-adv-x="1093" 
d="M336 -221h-246l668 1728h246z" />
    <glyph glyph-name="zero" unicode="0" horiz-adv-x="1431" 
d="M717 -25q-279 0 -451 210q-172 209 -172 546t172 546q172 210 451 210q278 0 449 -209t171 -547q0 -339 -171 -547q-171 -209 -449 -209zM717 1274q-168 0 -258 -141t-90 -402q0 -260 90 -401q91 -142 258 -142q165 0 256 142q90 141 90 401q0 261 -90 402t-256 141z" />
    <glyph glyph-name="one" unicode="1" horiz-adv-x="829" 
d="M358 1067h-299v180q179 0 268 50q88 49 115 169h187v-1466h-271v1067z" />
    <glyph glyph-name="two" unicode="2" horiz-adv-x="1220" 
d="M633 1487q224 0 361 -124q139 -125 139 -319q0 -92 -35 -173q-33 -77 -109 -148q-42 -43 -107 -86q-62 -42 -194 -117q-175 -103 -245 -171q-71 -69 -72 -134h770v-215h-1067v104q0 160 106 299q107 140 363 293q211 128 273 199q61 70 61 152q0 105 -65 167t-181 62
q-117 0 -193 -78t-84 -203h-260q15 223 161 357q147 135 378 135z" />
    <glyph glyph-name="three" unicode="3" horiz-adv-x="1267" 
d="M883 739q133 -22 214 -115t81 -227q0 -185 -150 -303q-151 -119 -391 -119q-247 0 -399 124q-154 125 -172 337h260q10 -116 94 -185t217 -69q135 0 212 63t77 171q0 105 -74 162t-205 57h-151v201h147q117 0 182 56q66 57 66 161q0 101 -67 165q-65 62 -181 62
q-121 0 -198 -72q-78 -73 -85 -190h-249q15 209 158 339t376 130q227 0 364 -119q136 -118 136 -307q0 -122 -73 -212q-72 -89 -189 -110z" />
    <glyph glyph-name="four" unicode="4" horiz-adv-x="1398" 
d="M754 1462h295v-889h290v-206h-290v-367h-261v367h-725v208zM788 573v635l-485 -635h485z" />
    <glyph glyph-name="five" unicode="5" horiz-adv-x="1275" 
d="M926 479q0 135 -75 218t-206 83q-83 0 -151 -36q-69 -37 -109 -99h-244l84 817h877v-215h-682l-39 -381q47 53 131 86t176 33q222 0 360 -141t138 -363q0 -223 -150 -364q-151 -142 -391 -142q-244 0 -395 127q-152 128 -168 342h270q11 -120 89 -191q81 -73 204 -73
q128 0 205 83q76 82 76 216z" />
    <glyph glyph-name="six" unicode="6" horiz-adv-x="1310" 
d="M696 1278q-161 0 -258 -148q-96 -147 -96 -389q49 110 148 173t229 63q218 0 358 -140q142 -142 142 -354q0 -223 -150 -365q-151 -143 -387 -143q-264 0 -426 200q-162 199 -162 532q0 349 169 564q170 216 442 216q201 0 337 -112q135 -111 162 -302h-248
q-24 103 -90 154t-170 51zM385 479q0 -133 82 -218t213 -85q130 0 209 84q80 85 80 219q0 132 -80 217q-79 84 -209 84t-213 -84q-82 -83 -82 -217z" />
    <glyph glyph-name="seven" unicode="7" horiz-adv-x="1198" 
d="M848 1247h-793v215h1069v-207q-238 -293 -344 -580q-105 -287 -110 -675h-279q4 334 118 645q113 310 339 602z" />
    <glyph glyph-name="eight" unicode="8" horiz-adv-x="1335" 
d="M156 1073q0 189 141 301q142 113 371 113q228 0 370 -113t142 -301q0 -109 -61 -197q-61 -89 -167 -135q121 -23 206 -120q87 -99 87 -220q0 -192 -158 -309t-419 -117q-262 0 -420 117t-158 309q0 121 87 220q85 97 206 120q-106 46 -167 135q-60 87 -60 197zM395 1067
q0 -105 74 -165q73 -60 199 -60q122 0 197 60t75 165t-74 165t-198 60q-127 0 -199 -59q-74 -60 -74 -166zM350 412q0 -111 85 -174q87 -64 233 -64q145 0 232 64q85 63 85 174t-85 174q-86 63 -232 63q-148 0 -233 -63t-85 -174z" />
    <glyph glyph-name="nine" unicode="9" horiz-adv-x="1310" 
d="M614 184q161 0 258 148q97 149 97 389q-49 -109 -149 -173q-99 -63 -228 -63q-218 0 -359 141t-141 353q0 223 150 366q149 142 387 142q264 0 426 -200q162 -199 162 -531q0 -350 -169 -565q-170 -216 -442 -216q-202 0 -338 112q-135 111 -162 302h248q24 -102 90 -153
q67 -52 170 -52zM926 983q0 133 -82 218t-213 85q-130 0 -209 -84q-80 -85 -80 -219q0 -132 80 -217q79 -84 209 -84q131 0 213 84q82 83 82 217z" />
    <glyph glyph-name="colon" unicode=":" horiz-adv-x="669" 
d="M487 666h-305v305h305v-305zM487 0h-305v305h305v-305z" />
    <glyph glyph-name="semicolon" unicode=";" horiz-adv-x="669" 
d="M322 8h-140v297h305v-325q0 -151 -92 -237q-91 -85 -258 -85v141q97 0 141 44t44 137v28zM487 666h-305v305h305v-305z" />
    <glyph glyph-name="less" unicode="&#x3c;" horiz-adv-x="1351" 
d="M1135 139l-945 412v250l945 411v-221l-738 -315l738 -314v-223z" />
    <glyph glyph-name="equal" unicode="=" horiz-adv-x="1351" 
d="M1206 780h-1063v183h1063v-183zM1206 371h-1063v182h1063v-182z" />
    <glyph glyph-name="greater" unicode="&#x3e;" horiz-adv-x="1351" 
d="M1159 801v-250l-944 -412v223l737 314l-737 315v221z" />
    <glyph glyph-name="question" unicode="?" horiz-adv-x="1204" 
d="M623 1487q226 0 362 -121q137 -122 137 -315q0 -122 -64 -222q-63 -98 -220 -204q-73 -50 -103 -95q-25 -38 -30 -92h-259q1 91 58 173q56 82 172 165q108 79 149 142q41 62 41 131q0 103 -64 166t-179 63q-121 0 -197 -78q-76 -77 -82 -203h-262q15 220 162 355t379 135
zM729 0h-307v285h307v-285z" />
    <glyph glyph-name="at" unicode="@" horiz-adv-x="1878" 
d="M1178 920h204l-104 -592q-10 -60 10 -89q21 -30 74 -30q123 0 198 119q74 117 74 319q0 255 -174 406q-173 151 -461 151q-325 0 -534 -212t-209 -539q0 -318 204 -495t541 -177q129 0 240 22q113 22 221 68l54 -121q-102 -51 -239 -81q-132 -29 -276 -29
q-403 0 -654 218t-251 595q0 183 67 352q65 165 191 289q123 121 291 188q166 66 354 66q347 0 567 -198t220 -503q0 -263 -132 -420t-337 -157q-87 0 -148 35q-63 36 -92 100q-38 -58 -105 -93q-69 -36 -145 -36q-145 0 -230 97t-85 259q0 213 124 359q124 147 310 147
q68 0 129 -35q59 -34 82 -86zM887 254q73 0 132 54t77 145l10 75q18 103 -21 166q-40 64 -118 64q-100 0 -166 -84t-72 -207q-6 -99 36 -156t122 -57z" />
    <glyph glyph-name="A" unicode="A" horiz-adv-x="1527" 
d="M1503 0h-278l-138 358h-659l-139 -358h-266l587 1462h305zM764 1200h-6l-246 -631h494z" />
    <glyph glyph-name="B" unicode="B" horiz-adv-x="1425" 
d="M1341 416q0 -200 -138 -308t-396 -108h-641v1462h588q258 0 393 -102t135 -297q0 -94 -67 -187q-66 -91 -154 -118q127 -34 204 -128q76 -92 76 -214zM432 1262v-418h320q129 0 198 54q70 55 70 155q0 102 -68 155q-69 54 -198 54h-322zM784 649h-352v-448h354
q140 0 213 58q74 59 74 167q0 107 -76 165t-213 58z" />
    <glyph glyph-name="C" unicode="C" horiz-adv-x="1445" 
d="M774 1272q-195 0 -303 -143q-109 -144 -109 -396q0 -254 109 -399q108 -144 303 -144q138 0 224 69t110 200h264q-41 -230 -196 -357t-402 -127q-310 0 -499 209q-189 208 -189 549q0 338 190 546t498 208q246 0 402 -126q155 -126 196 -357h-264q-24 129 -110 199
q-85 69 -224 69z" />
    <glyph glyph-name="D" unicode="D" horiz-adv-x="1544" 
d="M166 1462h563q331 0 531 -200t200 -531q0 -330 -200 -530q-201 -201 -531 -201h-563v1462zM1182 731q0 247 -118 381q-118 135 -335 135h-297v-1032h297q217 0 335 135q118 134 118 381z" />
    <glyph glyph-name="E" unicode="E" horiz-adv-x="1345" 
d="M1225 215v-215h-1059v1462h1051v-215h-785v-407h694v-215h-694v-410h793z" />
    <glyph glyph-name="F" unicode="F" horiz-adv-x="1290" 
d="M438 0h-272v1462h1010v-215h-738v-446h662v-215h-662v-586z" />
    <glyph glyph-name="G" unicode="G" horiz-adv-x="1562" 
d="M772 -25q-308 0 -497 209q-189 208 -189 549q0 335 196 545q195 209 511 209q249 0 407 -125t203 -356h-268q-27 131 -115 198q-89 68 -227 68q-202 0 -316 -144q-115 -145 -115 -395q0 -253 113 -398t313 -145q159 0 262 86q101 85 101 222v51h-283v196h553v-745h-211
l-18 209q-39 -101 -159 -167q-122 -67 -261 -67z" />
    <glyph glyph-name="H" unicode="H" horiz-adv-x="1624" 
d="M438 0h-272v1462h272v-614h750v614h270v-1462h-270v635h-750v-635z" />
    <glyph glyph-name="I" unicode="I" horiz-adv-x="604" 
d="M438 0h-272v1462h272v-1462z" />
    <glyph glyph-name="J" unicode="J" horiz-adv-x="1239" 
d="M549 176q135 0 204 87q68 86 68 255v944h271v-936q0 -255 -146 -403t-397 -148q-235 0 -377 128q-140 127 -145 350h258q5 -133 73 -204q70 -73 191 -73z" />
    <glyph glyph-name="K" unicode="K" horiz-adv-x="1511" 
d="M1483 0h-328l-514 637l-203 -213v-424h-272v1462h272v-735l676 735h311l-604 -635z" />
    <glyph glyph-name="L" unicode="L" horiz-adv-x="1296" 
d="M1192 0h-1026v1462h272v-1247h754v-215z" />
    <glyph glyph-name="M" unicode="M" horiz-adv-x="1882" 
d="M1450 1149l-416 -1149h-196l-418 1149h-4v-1149h-250v1462h385l393 -1100h4l393 1100h373v-1462h-260v1149h-4z" />
    <glyph glyph-name="N" unicode="N" horiz-adv-x="1599" 
d="M166 1462h317l688 -1036h5v1036h258v-1462h-252l-752 1133h-4v-1133h-260v1462z" />
    <glyph glyph-name="O" unicode="O" horiz-adv-x="1566" 
d="M784 1487q315 0 507 -209t192 -547q0 -339 -192 -547q-192 -209 -507 -209q-314 0 -506 209q-192 208 -192 547t192 547q192 209 506 209zM784 190q201 0 312 143q110 141 110 398q0 254 -110 397q-111 144 -312 144q-200 0 -311 -143t-111 -398t111 -398t311 -143z" />
    <glyph glyph-name="P" unicode="P" horiz-adv-x="1382" 
d="M1317 999q0 -224 -140 -342t-405 -118h-340v-539h-266v1462h604q264 0 406 -119q141 -119 141 -344zM432 1247v-495h316q152 0 226 61q75 61 75 186t-75 187q-74 61 -226 61h-316z" />
    <glyph glyph-name="Q" unicode="Q" horiz-adv-x="1566" 
d="M1260 152l131 -144l-140 -123l-147 160q-70 -33 -152 -52q-80 -18 -168 -18q-314 0 -506 209q-192 208 -192 547t192 547q192 209 506 209q315 0 507 -209t192 -547q0 -178 -58 -329q-57 -148 -165 -250zM784 1272q-200 0 -311 -143t-111 -398t111 -398t311 -143
q40 0 83 8q46 8 77 21l-149 164l141 125l160 -174q56 70 83 170q27 101 27 227q0 254 -110 397q-111 144 -312 144z" />
    <glyph glyph-name="R" unicode="R" horiz-adv-x="1452" 
d="M432 547v-547h-266v1462h627q259 0 401 -119q141 -119 141 -339q0 -152 -83 -261t-228 -155l367 -588h-297l-334 547h-328zM432 1247v-487h330q152 0 228 61q77 62 77 183q0 120 -77 182q-76 61 -228 61h-330z" />
    <glyph glyph-name="S" unicode="S" horiz-adv-x="1366" 
d="M713 -25q-285 0 -455 122t-188 345h262q12 -128 109 -197t264 -69q137 0 224 61q85 60 85 164q0 81 -57 128q-58 48 -183 71l-268 49q-197 35 -293 134t-96 264q0 194 153 317t396 123q262 0 413 -111t172 -315h-256q-15 105 -101 164t-226 59q-129 0 -208 -61t-79 -160
q0 -80 49 -122q50 -42 184 -69l283 -55q196 -38 289 -135q94 -98 94 -264q0 -194 -160 -319q-158 -124 -407 -124z" />
    <glyph glyph-name="T" unicode="T" horiz-adv-x="1476" 
d="M872 0h-270v1247h-524v215h1321v-215h-527v-1247z" />
    <glyph glyph-name="U" unicode="U" horiz-adv-x="1544" 
d="M1397 1462v-872q0 -296 -162 -455q-163 -160 -463 -160q-298 0 -462 161q-163 160 -163 458v868h273v-870q0 -195 89 -298q88 -101 263 -101q174 0 264 102t90 297v870h271z" />
    <glyph glyph-name="V" unicode="V" horiz-adv-x="1507" 
d="M903 0h-303l-577 1462h288l445 -1171h4l446 1171h277z" />
    <glyph glyph-name="W" unicode="W" horiz-adv-x="2050" 
d="M1612 0h-299l-287 1128h-4l-287 -1128h-297l-403 1462h278l293 -1134h4l285 1134h274l285 -1134h4l291 1134h266z" />
    <glyph glyph-name="X" unicode="X" horiz-adv-x="1497" 
d="M1475 0h-310l-428 573l-428 -573h-286l573 760l-522 702h309l369 -499l370 499h287l-516 -684z" />
    <glyph glyph-name="Y" unicode="Y" horiz-adv-x="1445" 
d="M858 600v-600h-272v600l-566 862h304l405 -624h4l395 624h297z" />
    <glyph glyph-name="Z" unicode="Z" horiz-adv-x="1388" 
d="M1278 1462v-205l-846 -1042h858v-215h-1194v190l850 1057h-823v215h1155z" />
    <glyph glyph-name="bracketleft" unicode="[" horiz-adv-x="843" 
d="M721 1321h-268v-1356h268v-186h-520v1728h520v-186z" />
    <glyph glyph-name="backslash" unicode="\" horiz-adv-x="1093" 
d="M758 -221l-668 1728h246l668 -1728h-246z" />
    <glyph glyph-name="bracketright" unicode="]" horiz-adv-x="843" 
d="M123 1507h520v-1728h-520v186h268v1356h-268v186z" />
    <glyph glyph-name="asciicircum" unicode="^" horiz-adv-x="970" 
d="M61 944l310 543h229l307 -543h-227l-195 344l-194 -344h-230z" />
    <glyph glyph-name="underscore" unicode="_" horiz-adv-x="890" 
d="M825 -266h-757v188h757v-188z" />
    <glyph glyph-name="grave" unicode="`" 
d="M674 1507l108 -325h-172l-237 325h301z" />
    <glyph glyph-name="a" unicode="a" horiz-adv-x="1175" 
d="M1047 0h-252q-8 51 -11 82q-4 36 -4 82q-37 -88 -128 -137q-92 -50 -218 -50q-159 0 -254 82q-96 83 -96 220q0 138 94 217t281 102l311 35v49q0 90 -51 139q-50 49 -146 49q-85 0 -135 -43q-51 -44 -57 -116h-252q16 166 137 260t316 94q216 0 330 -102t114 -301v-402
q0 -77 5 -144q4 -52 16 -116zM344 293q0 -64 43 -98q44 -35 119 -35q114 0 189 66t75 177v64l-231 -27q-113 -15 -153 -48q-42 -34 -42 -99z" />
    <glyph glyph-name="b" unicode="b" horiz-adv-x="1298" 
d="M752 -25q-110 0 -202 53q-92 52 -132 138v-166h-258v1507h262v-637q41 89 130 142t200 53q203 0 331 -152q127 -151 127 -393t-127 -393q-128 -152 -331 -152zM678 872q-124 0 -193 -89t-69 -244v-37q0 -156 69 -245t193 -89t196 94t72 258t-72 258t-196 94z" />
    <glyph glyph-name="c" unicode="c" horiz-adv-x="1140" 
d="M610 -25q-235 0 -379 149q-143 147 -143 396q0 245 144 395t378 150q192 0 311 -101q120 -102 142 -280h-248q-16 90 -70 137q-53 47 -137 47q-120 0 -189 -93t-69 -255q0 -164 69 -256t189 -92q84 0 137 48q54 49 70 136h248q-22 -177 -142 -279t-311 -102z" />
    <glyph glyph-name="d" unicode="d" horiz-adv-x="1298" 
d="M547 -25q-204 0 -332 152q-127 151 -127 393t127 393q128 152 332 152q110 0 199 -53q91 -54 131 -142v637h262v-1507h-258v166q-41 -86 -132 -138q-92 -53 -202 -53zM621 872q-125 0 -197 -94t-72 -258t72 -258t197 -94q123 0 192 89q70 90 70 245v37q0 154 -70 244
q-69 89 -192 89z" />
    <glyph glyph-name="e" unicode="e" horiz-adv-x="1177" 
d="M842 324h241q-33 -163 -158 -255q-127 -94 -311 -94q-235 0 -381 149q-145 148 -145 394q0 247 145 396q146 151 375 151q221 0 351 -145q131 -146 131 -379v-84h-748q12 -138 82 -214q69 -75 190 -75q87 0 144 39t84 117zM608 870q-106 0 -171 -62q-66 -63 -87 -181h490
q0 109 -63 176t-169 67z" />
    <glyph glyph-name="f" unicode="f" horiz-adv-x="694" 
d="M188 0v852h-143v188h143v148q0 158 88 242q87 83 252 83q38 0 88 -2q34 -1 64 -8v-198q-15 3 -48 5q-17 1 -52 1q-67 0 -98 -34t-31 -101v-136h211v-188h-211v-852h-263z" />
    <glyph glyph-name="g" unicode="g" horiz-adv-x="1300" 
d="M610 -205q131 0 199 70t68 205v147q-43 -85 -132 -138q-88 -52 -198 -52q-208 0 -333 143q-126 144 -126 377q0 232 127 375t332 143q110 0 201 -53q89 -52 133 -142v170h258v-938q0 -236 -139 -364q-137 -127 -390 -127q-211 0 -341 84q-130 83 -158 239h260
q21 -70 80 -104q61 -35 159 -35zM616 219q121 0 196 85q75 86 75 222v43q0 138 -75 222q-74 83 -196 83t-194 -88t-72 -239t72 -240q72 -88 194 -88z" />
    <glyph glyph-name="h" unicode="h" horiz-adv-x="1273" 
d="M422 1507v-643q41 96 126 148q86 53 197 53q177 0 280 -106q101 -104 101 -291v-668h-262v606q0 125 -53 189q-53 63 -156 63q-111 0 -172 -76t-61 -217v-565h-262v1507h262z" />
    <glyph glyph-name="i" unicode="i" horiz-adv-x="581" 
d="M430 1217h-278v256h278v-256zM422 0h-262v1040h262v-1040z" />
    <glyph glyph-name="j" unicode="j" horiz-adv-x="581" 
d="M430 1217h-278v256h278v-256zM92 -377q-29 0 -65 2q-24 1 -56 8v195q10 -3 32 -5q10 -1 32 -1q70 0 97 28q28 30 28 97v1093h262v-1097q0 -161 -82 -240q-83 -80 -248 -80z" />
    <glyph glyph-name="k" unicode="k" horiz-adv-x="1224" 
d="M1186 0h-301l-342 440l-121 -116v-324h-262v1507h262v-913l442 446h301l-440 -434z" />
    <glyph glyph-name="l" unicode="l" horiz-adv-x="581" 
d="M422 1507v-1507h-262v1507h262z" />
    <glyph glyph-name="m" unicode="m" horiz-adv-x="1923" 
d="M737 1065q119 0 199 -50q79 -49 123 -153q50 96 142 149q93 54 208 54q177 0 271 -103q96 -105 96 -294v-668h-265v610q0 125 -47 187q-46 61 -143 61q-104 0 -164 -76q-59 -75 -59 -215v-567h-262v610q0 124 -48 187q-46 61 -143 61q-107 0 -165 -76t-58 -215v-567h-262
v1040h258v-176q38 94 123 147q86 54 196 54z" />
    <glyph glyph-name="n" unicode="n" horiz-adv-x="1273" 
d="M160 1040h258v-176q40 94 126 147q87 54 201 54q177 0 280 -106q101 -104 101 -291v-668h-262v606q0 125 -53 189q-53 63 -156 63q-111 0 -172 -76t-61 -217v-565h-262v1040z" />
    <glyph glyph-name="o" unicode="o" horiz-adv-x="1228" 
d="M614 1065q236 0 381 -150q146 -151 146 -395q0 -246 -145 -396q-144 -149 -382 -149t-382 149q-144 148 -144 396q0 246 145 395q145 150 381 150zM614 870q-125 0 -194 -92q-70 -93 -70 -258t70 -258q69 -92 194 -92q126 0 195 92q70 93 70 258q0 163 -70 257
q-69 93 -195 93z" />
    <glyph glyph-name="p" unicode="p" horiz-adv-x="1298" 
d="M752 -25q-108 0 -197 53q-88 52 -133 138v-531h-262v1405h258v-172q41 89 132 143q92 54 202 54q203 0 331 -152q127 -151 127 -393t-127 -393q-128 -152 -331 -152zM678 872q-124 0 -193 -89t-69 -244v-37q0 -156 69 -245t193 -89t196 94t72 258t-72 258t-196 94z" />
    <glyph glyph-name="q" unicode="q" horiz-adv-x="1298" 
d="M547 -25q-204 0 -332 152q-127 151 -127 393t127 393q128 152 332 152q111 0 202 -54t132 -143v172h258v-1405h-262v531q-45 -85 -134 -138t-196 -53zM621 872q-125 0 -197 -94t-72 -258t72 -258t197 -94q123 0 192 89q70 90 70 245v37q0 154 -70 244q-69 89 -192 89z
" />
    <glyph glyph-name="r" unicode="r" horiz-adv-x="856" 
d="M737 1059q15 0 43 -2q20 -1 35 -6v-242q-21 5 -46 6q-34 2 -54 2q-133 0 -213 -90q-80 -91 -80 -246v-481h-262v1040h258v-233q38 120 121 185q85 67 198 67z" />
    <glyph glyph-name="s" unicode="s" horiz-adv-x="1095" 
d="M563 -25q-213 0 -343 90q-128 89 -144 250h250q7 -73 72 -115q64 -42 161 -42q87 0 142 35t55 94q0 49 -36 74q-36 26 -124 42l-184 33q-152 27 -226 101q-73 73 -73 196q0 146 118 239t304 93q198 0 314 -83q115 -82 132 -237h-240q-7 61 -63 99q-55 37 -141 37
q-83 0 -133 -33t-50 -88q0 -49 35 -75q34 -25 125 -42l203 -35q140 -24 213 -101q71 -75 71 -202q0 -147 -123 -237q-127 -93 -315 -93z" />
    <glyph glyph-name="t" unicode="t" horiz-adv-x="796" 
d="M573 195q31 0 68 5q32 4 70 15v-201q-45 -14 -103 -23q-46 -7 -104 -7q-166 0 -245 73t-79 228v567h-143v188h143v260h260v-260h248v-188h-250v-526q0 -68 32 -100q31 -31 103 -31z" />
    <glyph glyph-name="u" unicode="u" horiz-adv-x="1261" 
d="M1102 1040v-1040h-258v174q-39 -92 -125 -145q-88 -54 -199 -54q-175 0 -273 104q-97 103 -97 292v669h264v-612q0 -123 50 -187q50 -63 150 -63q106 0 165 77t59 220v565h264z" />
    <glyph glyph-name="v" unicode="v" horiz-adv-x="1177" 
d="M737 0h-286l-410 1040h264l289 -784h4l283 784h256z" />
    <glyph glyph-name="w" unicode="w" horiz-adv-x="1665" 
d="M715 1040h243l199 -772h4l211 772h252l-317 -1040h-267l-204 752h-7l-202 -752h-269l-317 1040h260l211 -772h4z" />
    <glyph glyph-name="x" unicode="x" horiz-adv-x="1198" 
d="M590 356l-260 -356h-281l400 532l-375 508h301l229 -321l232 321h280l-371 -495l404 -545h-301z" />
    <glyph glyph-name="y" unicode="y" horiz-adv-x="1175" 
d="M240 -178q83 0 124 37q42 37 82 143l-405 1038h266l289 -784h4l274 784h261l-406 -1058q-74 -196 -174 -278q-102 -84 -264 -85q-27 0 -61 3q-38 3 -60 7v199q11 -3 31 -5q10 -1 39 -1z" />
    <glyph glyph-name="z" unicode="z" horiz-adv-x="1093" 
d="M977 1040v-182l-561 -665h581v-193h-901v170l561 678h-542v192h862z" />
    <glyph glyph-name="braceleft" unicode="{" horiz-adv-x="880" 
d="M160 549h-92v188h92q50 0 81 31q29 29 29 84v420q0 116 68 176q66 59 203 59h215v-184h-148q-59 0 -80 -20q-22 -21 -22 -68v-410q0 -77 -45 -123q-46 -47 -129 -59q83 -12 129 -59q45 -46 45 -123v-410q0 -46 22 -67t80 -21h148v-184h-215q-137 0 -203 59
q-68 60 -68 176v420q0 55 -29 84q-31 31 -81 31z" />
    <glyph glyph-name="bar" unicode="|" horiz-adv-x="675" 
d="M223 -221v1728h230v-1728h-230z" />
    <glyph glyph-name="braceright" unicode="}" horiz-adv-x="880" 
d="M721 549q-50 0 -81 -31q-30 -30 -30 -84v-420q0 -116 -67 -176q-66 -59 -203 -59h-215v184h147q58 0 80 21q23 21 23 67v410q0 77 45 123q46 47 129 59q-83 12 -129 59q-45 46 -45 123v410q0 47 -23 68q-21 20 -80 20h-147v184h215q137 0 203 -59q67 -60 67 -176v-420
q0 -54 30 -84q31 -31 81 -31h92v-188h-92z" />
    <glyph glyph-name="asciitilde" unicode="~" horiz-adv-x="1128" 
d="M545 545q-44 32 -77 48q-22 11 -44 11q-37 0 -59 -37q-23 -38 -27 -100h-160q0 155 58 248q57 92 155 92q41 0 80 -16q42 -17 113 -66q50 -35 76 -47q23 -10 42 -10q40 0 62 33q22 35 27 102h159q0 -155 -58 -247q-58 -93 -157 -93q-41 0 -80 16q-42 17 -110 66z" />
    <glyph glyph-name="twosuperior" horiz-adv-x="759" 
d="M391 1479q125 0 209 -70q82 -69 82 -178q0 -79 -47 -140q-47 -60 -201 -145q-81 -43 -122 -79q-40 -36 -42 -66h420v-139h-616v65q0 91 59 168q60 78 197 158q118 70 147 103q31 36 31 77q0 49 -32 78q-31 28 -87 28q-57 0 -94 -39q-38 -39 -39 -98h-176q7 124 92 201
q83 76 219 76z" />
    <glyph glyph-name="threesuperior" horiz-adv-x="776" 
d="M539 1063q72 -12 117 -63q44 -50 44 -121q0 -103 -85 -167q-86 -65 -224 -65q-137 0 -227 70q-87 68 -98 186h174q5 -53 46 -86q42 -33 105 -33t101 30q36 29 36 79q0 49 -34 76q-33 26 -103 26h-80v133h76q59 0 92 27t33 78q0 48 -33 78t-86 30q-58 0 -94 -33
q-37 -34 -41 -89h-168q6 115 89 188q83 72 216 72q128 0 207 -67q78 -66 78 -171q0 -67 -39 -117q-39 -49 -102 -61z" />
    <glyph glyph-name="onesuperior" horiz-adv-x="698" 
d="M457 788h194v-126h-567v126h199v439h-197v119q125 0 173 22q51 23 69 96h129v-676z" />
    <glyph glyph-name="uni00A0" unicode="&#xa0;" horiz-adv-x="430" 
 />
    <glyph glyph-name="exclamdown" unicode="&#xa1;" horiz-adv-x="669" 
d="M442 983l45 -983h-303l45 983h213zM487 1165h-305v297h305v-297z" />
    <glyph glyph-name="cent" unicode="&#xa2;" horiz-adv-x="1173" 
d="M879 367h211q-21 -160 -128 -261q-108 -102 -270 -120v-203h-147v205q-204 27 -329 174q-124 146 -124 373q0 223 124 371q125 149 329 173v238h147v-236q162 -18 270 -120q107 -101 128 -261h-211q-12 78 -62 128t-125 65v-719q77 15 126 65q49 51 61 128zM324 535
q0 -143 58 -235q59 -94 163 -122v711q-104 -28 -163 -121q-58 -91 -58 -233z" />
    <glyph glyph-name="sterling" unicode="&#xa3;" horiz-adv-x="1318" 
d="M446 215h785v-215h-1125v215h27q90 0 141 83q52 84 52 228q0 14 -1 21l-3 31h-193v188h131q-39 96 -55 159q-15 60 -15 119q0 185 144 314t362 129q233 0 367 -130t151 -360h-251q-8 136 -77 208q-70 73 -190 73q-110 0 -178 -68q-67 -67 -67 -170q0 -31 6 -66
q7 -38 20 -73l14 -35t15 -37q6 -15 26 -63h363v-188h-320q3 -12 3 -15v-22q0 -100 -34 -183q-34 -82 -98 -143z" />
    <glyph glyph-name="yen" unicode="&#xa5;" horiz-adv-x="1454" 
d="M1280 502v-158h-416v-344h-272v344h-418v158h418v151h-418v160h320l-447 649h297l387 -585h4l381 585h291l-446 -649h319v-160h-416v-151h416z" />
    <glyph glyph-name="section" unicode="&#xa7;" horiz-adv-x="1251" 
d="M963 240q32 -40 48 -88q15 -47 15 -103q0 -147 -118 -240q-120 -94 -304 -94q-194 0 -312 87t-136 243h233q11 -67 69 -111q58 -43 144 -43q83 0 132 40q50 41 50 106q0 48 -28 82q-30 36 -105 76l-260 137q-151 79 -215 163q-63 83 -63 199q0 84 42 152t124 117
q-33 43 -47 87q-15 48 -15 105q0 149 117 240q118 92 303 92q194 0 311 -84q116 -84 133 -236h-233q-7 65 -66 105q-57 39 -145 39q-83 0 -130 -40q-48 -41 -48 -104q0 -49 27 -85q25 -34 104 -74l260 -138q152 -80 215 -162q63 -83 63 -200q0 -82 -42 -151
q-41 -68 -123 -117zM504 524l252 -135q4 -2 8.5 -4.5t10 -5.5t8.5 -5q3 -1 12.5 -7t15.5 -9q38 22 61 60t23 80q0 53 -33 92t-123 90l-252 133q-4 2 -8.5 4.5t-10 5.5t-8.5 5q-3 1 -12.5 7t-15.5 9q-36 -21 -62 -61q-24 -37 -24 -78q0 -57 33 -94t125 -87z" />
    <glyph glyph-name="dieresis" unicode="&#xa8;" 
d="M903 1217h-241v256h241v-256zM494 1217h-242v256h242v-256z" />
    <glyph glyph-name="copyright" unicode="&#xa9;" horiz-adv-x="1781" 
d="M891 1489q313 0 534 -222q222 -224 222 -538q0 -310 -222 -532t-534 -222q-150 0 -290 58q-138 57 -245 164t-165 244t-58 288q0 153 58 291q59 140 165 246q108 109 245 166q138 57 290 57zM891 1401q-277 0 -472 -197q-196 -198 -196 -475q0 -274 196 -470t472 -196
t472 196t196 470q0 277 -196 475q-195 197 -472 197zM901 1028q-107 0 -167 -78t-60 -217q0 -138 59 -215q60 -79 168 -80q75 1 124 40q48 37 60 108h195q-27 -146 -124 -225q-96 -78 -253 -78q-187 0 -306 125q-118 124 -118 325q0 202 118 326q119 125 306 125
q158 0 254 -78t123 -225h-195q-12 71 -60 109q-49 38 -124 38z" />
    <glyph glyph-name="ordfeminine" unicode="&#xaa;" horiz-adv-x="835" 
d="M537 885q-28 -60 -86 -90q-59 -31 -140 -31q-107 0 -171 54t-64 147q0 90 61 141q60 50 191 65l198 21v37q0 57 -29 83q-30 27 -87 27q-50 0 -81 -25t-36 -71h-189q11 114 94 178q84 64 218 64q148 0 227 -71q78 -70 78 -206v-245q0 -62 3 -104q3 -41 9 -79h-188
q-4 24 -6 50q-2 34 -2 55zM369 891q68 0 112 43q45 44 45 110v46l-139 -17q-61 -7 -89 -32t-28 -64t27 -63q26 -23 72 -23zM723 489h-614v144h614v-144z" />
    <glyph glyph-name="guillemotleft" unicode="&#xab;" horiz-adv-x="1120" 
d="M784 508l224 -418h-183l-280 418l280 418h183zM352 508l223 -418h-180l-282 418l282 418h180z" />
    <glyph glyph-name="registered" unicode="&#xae;" horiz-adv-x="1169" 
d="M113 1014q0 200 137 337q136 136 336 136q198 0 335 -135q136 -135 136 -338t-136 -339t-335 -136q-200 0 -336 136q-137 137 -137 339zM180 1014q0 -178 117 -296t289 -118q171 0 288 118t117 296q0 176 -117 294q-116 117 -288 117q-173 0 -289 -117
q-117 -118 -117 -294zM504 944v-174h-117v502h229q94 0 143 -42q50 -42 50 -122q0 -50 -26 -88q-24 -36 -70 -57l112 -193h-127l-102 174h-92zM504 1178v-142h96q50 0 71 18t21 54q0 37 -22 53q-23 17 -70 17h-96z" />
    <glyph glyph-name="macron" unicode="&#xaf;" 
d="M891 1217h-627v176h627v-176z" />
    <glyph glyph-name="degree" unicode="&#xb0;" horiz-adv-x="751" 
d="M674 1194q0 -125 -86 -208t-213 -83q-126 0 -212 83q-85 82 -85 208q0 128 84 210q85 83 213 83t214 -83q85 -82 85 -210zM537 1194q0 68 -47 113q-46 45 -115 45t-115 -44q-45 -44 -45 -114q0 -68 45 -112q46 -44 115 -44q68 0 115 44t47 112z" />
    <glyph glyph-name="acute" unicode="&#xb4;" 
d="M782 1507l-237 -325h-172l108 325h301z" />
    <glyph glyph-name="paragraph" unicode="&#xb6;" horiz-adv-x="1374" 
d="M793 -260h-195v905q-244 0 -379 108t-135 300q0 193 135 301t379 108h598v-1722h-195v1542h-208v-1542z" />
    <glyph glyph-name="periodcentered" unicode="&#xb7;" horiz-adv-x="661" 
d="M483 436h-305v305h305v-305z" />
    <glyph glyph-name="cedilla" unicode="&#xb8;" horiz-adv-x="1511" 
d="M989 -227q0 -84 -71 -133q-73 -50 -183 -50q-43 0 -98 10q-49 9 -90 27v119q67 -27 101 -34q42 -9 83 -9q50 0 78 16q29 17 29 48q0 44 -54 58q-53 14 -114 -7l-47 45l108 178h109l-76 -121q93 10 160 -31q65 -40 65 -116z" />
    <glyph glyph-name="ordmasculine" unicode="&#xba;" horiz-adv-x="870" 
d="M436 762q-162 0 -260 98t-98 264q0 164 98 262q99 99 260 99q159 0 258 -99t99 -262q0 -164 -99 -263t-258 -99zM436 1339q-77 0 -118 -56q-42 -57 -42 -159q0 -104 42 -161q43 -58 118 -58q73 0 116 58q42 57 42 161q0 101 -42 158t-116 57zM741 489h-612v144h612v-144z
" />
    <glyph glyph-name="guillemotright" unicode="&#xbb;" horiz-adv-x="1120" 
d="M113 922h182l280 -418l-280 -418h-182l223 418zM545 922h180l283 -418l-283 -418h-180l223 418z" />
    <glyph glyph-name="onequarter" unicode="&#xbc;" horiz-adv-x="1880" 
d="M1544 1489l-1055 -1514h-176l1057 1514h174zM489 788h195v-126h-567v126h198v439h-196v119q125 0 173 22q50 23 68 96h129v-676zM1415 801h193v-498h157v-127h-157v-176h-170v176h-400v129zM1438 303v330l-244 -330h244z" />
    <glyph glyph-name="onehalf" unicode="&#xbd;" horiz-adv-x="1902" 
d="M489 788h195v-126h-567v126h198v439h-196v119q125 0 173 22q50 23 68 96h129v-676zM1554 1489l-1054 -1514h-176l1056 1514h174zM1485 817q127 0 209 -69t82 -179q0 -79 -47 -140q-45 -59 -201 -144q-81 -43 -122 -79q-40 -36 -42 -67h420v-139h-617v66q0 89 60 167
q61 79 196 158q118 70 148 104q31 36 31 76q0 49 -32 78t-87 29q-57 0 -94 -39q-38 -39 -39 -98h-176q7 123 92 200q83 76 219 76z" />
    <glyph glyph-name="threequarters" unicode="&#xbe;" horiz-adv-x="1918" 
d="M1464 801h193v-498h158v-127h-158v-176h-170v176h-400v129zM1487 303v330l-244 -330h244zM1583 1489l-1055 -1514h-176l1057 1514h174zM571 1063q73 -12 118 -63q44 -50 44 -121q0 -103 -85 -167q-86 -65 -224 -65q-137 0 -227 70q-89 69 -99 186h174q5 -53 46 -86
q42 -33 106 -33q63 0 100 30t37 79t-35 76q-33 26 -102 26h-80v133h76q59 0 92 27t33 78q0 48 -33 78t-86 30q-58 0 -94 -33q-37 -34 -41 -89h-168q6 115 89 188q82 72 216 72q128 0 207 -67q78 -66 78 -171q0 -67 -39 -117q-38 -49 -103 -61z" />
    <glyph glyph-name="questiondown" unicode="&#xbf;" horiz-adv-x="1204" 
d="M582 -25q-227 0 -363 121q-137 122 -137 316q0 121 64 221q64 99 221 205q73 50 102 94q26 40 31 92h258q-1 -91 -58 -173q-56 -82 -172 -165q-109 -80 -149 -141q-41 -62 -41 -131q0 -104 64 -167t180 -63q120 0 196 78q76 77 82 203h262q-15 -220 -161 -354
q-148 -136 -379 -136zM475 1462h307v-284h-307v284z" />
    <glyph glyph-name="Agrave" unicode="&#xc0;" horiz-adv-x="1527" 
d="M1503 0h-278l-138 358h-659l-139 -358h-266l587 1462h305zM764 1200h-6l-246 -631h494zM741 1878l109 -313h-162l-242 313h295z" />
    <glyph glyph-name="Aacute" unicode="&#xc1;" horiz-adv-x="1527" 
d="M1503 0h-278l-138 358h-659l-139 -358h-266l587 1462h305zM764 1200h-6l-246 -631h494zM1081 1878l-241 -313h-162l108 313h295z" />
    <glyph glyph-name="Acircumflex" unicode="&#xc2;" horiz-adv-x="1527" 
d="M1503 0h-278l-138 358h-659l-139 -358h-266l587 1462h305zM764 1200h-6l-246 -631h494zM444 1563l199 315h244l196 -315h-151l-166 163l-170 -163h-152z" />
    <glyph glyph-name="Atilde" unicode="&#xc3;" horiz-adv-x="1527" 
d="M1503 0h-278l-138 358h-659l-139 -358h-266l587 1462h305zM764 1200h-6l-246 -631h494zM750 1649q-50 35 -72 45q-21 10 -41 10q-37 0 -58 -34q-22 -35 -26 -97h-145q0 145 53 231t145 86q38 0 75 -15q32 -13 105 -63q50 -34 72 -45q21 -10 41 -10q37 0 58 34
q22 35 26 97h145q0 -146 -53 -232q-52 -85 -145 -85q-38 0 -75 15q-32 13 -105 63z" />
    <glyph glyph-name="Adieresis" unicode="&#xc4;" horiz-adv-x="1527" 
d="M1503 0h-278l-138 358h-659l-139 -358h-266l587 1462h305zM764 1200h-6l-246 -631h494zM1090 1587h-242v256h242v-256zM680 1587h-242v256h242v-256z" />
    <glyph glyph-name="Aring" unicode="&#xc5;" horiz-adv-x="1527" 
d="M1087 358h-659l-139 -358h-266l567 1411q-43 38 -67 90q-23 49 -23 109q0 108 78 186t186 78t185 -78q77 -79 77 -186q0 -58 -24 -110q-24 -53 -66 -89l567 -1411h-278zM895 1610q0 53 -39 92t-92 39q-55 0 -94 -39t-39 -92q0 -55 39 -94t94 -39q53 0 92 40q39 41 39 93z
M764 1200h-6l-246 -631h494z" />
    <glyph glyph-name="AE" unicode="&#xc6;" horiz-adv-x="2289" 
d="M2169 0h-1059v369h-580l-235 -369h-275l930 1462h1211v-215h-785v-407h695v-215h-695v-410h793v-215zM1110 582v698l-444 -698h444z" />
    <glyph glyph-name="Ccedilla" unicode="&#xc7;" horiz-adv-x="1445" 
d="M991 -227q0 -84 -71 -133q-73 -50 -183 -50q-43 0 -98 10q-49 9 -90 27v119q67 -27 101 -34q42 -9 83 -9q50 0 78 16q29 17 29 48q0 44 -54 58q-53 14 -114 -7l-47 45l71 117q-277 29 -443 233q-167 206 -167 520q0 338 190 546t498 208q246 0 402 -126
q155 -126 196 -357h-264q-24 129 -110 199q-85 69 -224 69q-195 0 -303 -143q-109 -144 -109 -396q0 -254 109 -399q108 -144 303 -144q138 0 224 69t110 200h264q-39 -223 -187 -349q-150 -128 -384 -135l-35 -55q93 10 160 -31q65 -40 65 -116z" />
    <glyph glyph-name="Egrave" unicode="&#xc8;" horiz-adv-x="1345" 
d="M1225 215v-215h-1059v1462h1051v-215h-785v-407h694v-215h-694v-410h793zM692 1878l109 -313h-162l-242 313h295z" />
    <glyph glyph-name="Eacute" unicode="&#xc9;" horiz-adv-x="1345" 
d="M1225 215v-215h-1059v1462h1051v-215h-785v-407h694v-215h-694v-410h793zM993 1878l-241 -313h-162l108 313h295z" />
    <glyph glyph-name="Ecircumflex" unicode="&#xca;" horiz-adv-x="1345" 
d="M1225 215v-215h-1059v1462h1051v-215h-785v-407h694v-215h-694v-410h793zM375 1563l198 315h244l197 -315h-152l-166 163l-170 -163h-151z" />
    <glyph glyph-name="Edieresis" unicode="&#xcb;" horiz-adv-x="1345" 
d="M1225 215v-215h-1059v1462h1051v-215h-785v-407h694v-215h-694v-410h793zM1020 1587h-242v256h242v-256zM610 1587h-241v256h241v-256z" />
    <glyph glyph-name="Igrave" unicode="&#xcc;" horiz-adv-x="604" 
d="M438 0h-272v1462h272v-1462zM291 1878l108 -313h-161l-242 313h295z" />
    <glyph glyph-name="Iacute" unicode="&#xcd;" horiz-adv-x="604" 
d="M438 0h-272v1462h272v-1462zM621 1878l-242 -313h-162l109 313h295z" />
    <glyph glyph-name="Icircumflex" unicode="&#xce;" horiz-adv-x="604" 
d="M438 0h-272v1462h272v-1462zM-16 1563l198 315h244l197 -315h-152l-166 163l-170 -163h-151z" />
    <glyph glyph-name="Idieresis" unicode="&#xcf;" horiz-adv-x="604" 
d="M438 0h-272v1462h272v-1462zM629 1587h-242v256h242v-256zM219 1587h-242v256h242v-256z" />
    <glyph glyph-name="Eth" unicode="&#xd0;" horiz-adv-x="1585" 
d="M1501 731q0 -329 -201 -530t-530 -201h-563v639h-150v207h150v616h563q330 0 530 -200q201 -201 201 -531zM473 639v-424h297q216 0 335 135q118 134 118 381t-118 381q-118 135 -335 135h-297v-401h256v-207h-256z" />
    <glyph glyph-name="Ntilde" unicode="&#xd1;" horiz-adv-x="1599" 
d="M166 1462h317l688 -1036h5v1036h258v-1462h-252l-752 1133h-4v-1133h-260v1462zM774 1649q-50 35 -72 45q-21 10 -40 10q-38 0 -59 -34q-20 -34 -25 -97h-146q0 145 53 231t146 86q37 0 75 -15q32 -13 105 -63q49 -34 72 -45q21 -10 41 -10q37 0 58 34q22 35 26 97h145
q0 -146 -53 -232q-52 -85 -146 -85q-36 0 -74 15q-35 14 -106 63z" />
    <glyph glyph-name="Ograve" unicode="&#xd2;" horiz-adv-x="1566" 
d="M784 1487q315 0 507 -209t192 -547q0 -339 -192 -547q-192 -209 -507 -209q-314 0 -506 209q-192 208 -192 547t192 547q192 209 506 209zM784 190q201 0 312 143q110 141 110 398q0 254 -110 397q-111 144 -312 144q-200 0 -311 -143t-111 -398t111 -398t311 -143z
M776 1878l109 -313h-162l-242 313h295z" />
    <glyph glyph-name="Oacute" unicode="&#xd3;" horiz-adv-x="1566" 
d="M784 1487q315 0 507 -209t192 -547q0 -339 -192 -547q-192 -209 -507 -209q-314 0 -506 209q-192 208 -192 547t192 547q192 209 506 209zM784 190q201 0 312 143q110 141 110 398q0 254 -110 397q-111 144 -312 144q-200 0 -311 -143t-111 -398t111 -398t311 -143z
M1096 1878l-242 -313h-162l109 313h295z" />
    <glyph glyph-name="Ocircumflex" unicode="&#xd4;" horiz-adv-x="1566" 
d="M784 1487q315 0 507 -209t192 -547q0 -339 -192 -547q-192 -209 -507 -209q-314 0 -506 209q-192 208 -192 547t192 547q192 209 506 209zM784 190q201 0 312 143q110 141 110 398q0 254 -110 397q-111 144 -312 144q-200 0 -311 -143t-111 -398t111 -398t311 -143z
M465 1563l199 315h243l197 -315h-152l-166 163l-170 -163h-151z" />
    <glyph glyph-name="Otilde" unicode="&#xd5;" horiz-adv-x="1566" 
d="M784 1487q315 0 507 -209t192 -547q0 -339 -192 -547q-192 -209 -507 -209q-314 0 -506 209q-192 208 -192 547t192 547q192 209 506 209zM784 190q201 0 312 143q110 141 110 398q0 254 -110 397q-111 144 -312 144q-200 0 -311 -143t-111 -398t111 -398t311 -143z
M766 1649q-50 35 -72 45q-21 10 -41 10q-37 0 -58 -34q-22 -35 -26 -97h-145q0 145 53 231t146 86q37 0 74 -15q35 -14 106 -63q52 -36 71 -45q21 -10 41 -10q38 0 59 34q20 34 25 97h146q0 -146 -53 -232q-52 -85 -146 -85q-38 0 -75 15q-32 13 -105 63z" />
    <glyph glyph-name="Odieresis" unicode="&#xd6;" horiz-adv-x="1566" 
d="M784 1487q315 0 507 -209t192 -547q0 -339 -192 -547q-192 -209 -507 -209q-314 0 -506 209q-192 208 -192 547t192 547q192 209 506 209zM784 190q201 0 312 143q110 141 110 398q0 254 -110 397q-111 144 -312 144q-200 0 -311 -143t-111 -398t111 -398t311 -143z
M1110 1587h-242v256h242v-256zM700 1587h-241v256h241v-256z" />
    <glyph glyph-name="multiply" unicode="&#xd7;" horiz-adv-x="1351" 
d="M1163 326l-133 -133l-352 352l-354 -355l-136 136l355 354l-355 354l134 133l354 -354l354 354l135 -135l-354 -354z" />
    <glyph glyph-name="Oslash" unicode="&#xd8;" horiz-adv-x="1566" 
d="M1483 731q0 -339 -192 -547q-192 -209 -507 -209q-114 0 -219 31q-102 30 -186 90l-127 -157l-123 94l135 168q-86 101 -132 236t-46 294q0 339 192 547q192 209 506 209q117 0 224 -32q104 -31 190 -93l119 147l121 -94l-127 -160q85 -101 128 -234q44 -135 44 -290z
M784 1272q-200 0 -311 -143t-111 -398q0 -93 17 -178q17 -84 49 -150l623 775q-49 45 -118 70q-66 24 -149 24zM784 190q201 0 312 143q110 141 110 398q0 92 -15 173q-15 79 -46 145l-621 -770q51 -43 117 -66q67 -23 143 -23z" />
    <glyph glyph-name="Ugrave" unicode="&#xd9;" horiz-adv-x="1544" 
d="M1397 1462v-872q0 -296 -162 -455q-163 -160 -463 -160q-298 0 -462 161q-163 160 -163 458v868h273v-870q0 -195 89 -298q88 -101 263 -101q174 0 264 102t90 297v870h271zM784 1878l109 -313h-162l-242 313h295z" />
    <glyph glyph-name="Uacute" unicode="&#xda;" horiz-adv-x="1544" 
d="M1397 1462v-872q0 -296 -162 -455q-163 -160 -463 -160q-298 0 -462 161q-163 160 -163 458v868h273v-870q0 -195 89 -298q88 -101 263 -101q174 0 264 102t90 297v870h271zM1063 1878l-242 -313h-162l109 313h295z" />
    <glyph glyph-name="Ucircumflex" unicode="&#xdb;" horiz-adv-x="1544" 
d="M1397 1462v-872q0 -296 -162 -455q-163 -160 -463 -160q-298 0 -462 161q-163 160 -163 458v868h273v-870q0 -195 89 -298q88 -101 263 -101q174 0 264 102t90 297v870h271zM455 1563l198 315h244l197 -315h-152l-166 163l-170 -163h-151z" />
    <glyph glyph-name="Udieresis" unicode="&#xdc;" horiz-adv-x="1544" 
d="M1397 1462v-872q0 -296 -162 -455q-163 -160 -463 -160q-298 0 -462 161q-163 160 -163 458v868h273v-870q0 -195 89 -298q88 -101 263 -101q174 0 264 102t90 297v870h271zM1100 1587h-242v256h242v-256zM690 1587h-241v256h241v-256z" />
    <glyph glyph-name="Yacute" unicode="&#xdd;" horiz-adv-x="1445" 
d="M858 600v-600h-272v600l-566 862h304l405 -624h4l395 624h297zM1044 1878l-241 -313h-162l109 313h294z" />
    <glyph glyph-name="Thorn" unicode="&#xde;" horiz-adv-x="1382" 
d="M1317 748q0 -224 -141 -342q-142 -119 -404 -119h-340v-287h-266v1462h266v-252h338q266 0 406 -118q141 -119 141 -344zM432 995v-495h316q152 0 226 61q75 61 75 187q0 124 -75 186q-74 61 -226 61h-316z" />
    <glyph glyph-name="germandbls" unicode="&#xdf;" horiz-adv-x="1302" 
d="M1104 1161q0 -103 -54 -186q-53 -82 -137 -115q137 -40 219 -147t82 -254q0 -216 -137 -344q-136 -127 -362 -127q-45 0 -75 3q-27 3 -60 11v203q23 -5 46 -6q32 -2 54 -2q134 0 214 73q81 74 81 201q0 122 -84 194t-223 72h-66v203h53q97 0 155 53q56 52 56 148
q0 88 -54 139t-146 51q-116 0 -180 -81q-64 -80 -64 -222v-1028h-262v1018q0 232 137 374q136 140 367 140q201 0 320 -101q120 -102 120 -270z" />
    <glyph glyph-name="agrave" unicode="&#xe0;" horiz-adv-x="1175" 
d="M1047 0h-252q-8 51 -11 82q-4 36 -4 82q-37 -88 -128 -137q-92 -50 -218 -50q-159 0 -254 82q-96 83 -96 220q0 138 94 217t281 102l311 35v49q0 90 -51 139q-50 49 -146 49q-85 0 -135 -43q-51 -44 -57 -116h-252q16 166 137 260t316 94q216 0 330 -102t114 -301v-402
q0 -77 5 -144q4 -52 16 -116zM344 293q0 -64 43 -98q44 -35 119 -35q114 0 189 66t75 177v64l-231 -27q-113 -15 -153 -48q-42 -34 -42 -99zM586 1507l108 -325h-172l-237 325h301z" />
    <glyph glyph-name="aacute" unicode="&#xe1;" horiz-adv-x="1175" 
d="M1047 0h-252q-8 51 -11 82q-4 36 -4 82q-37 -88 -128 -137q-92 -50 -218 -50q-159 0 -254 82q-96 83 -96 220q0 138 94 217t281 102l311 35v49q0 90 -51 139q-50 49 -146 49q-85 0 -135 -43q-51 -44 -57 -116h-252q16 166 137 260t316 94q216 0 330 -102t114 -301v-402
q0 -77 5 -144q4 -52 16 -116zM344 293q0 -64 43 -98q44 -35 119 -35q114 0 189 66t75 177v64l-231 -27q-113 -15 -153 -48q-42 -34 -42 -99zM881 1507l-238 -325h-172l109 325h301z" />
    <glyph glyph-name="acircumflex" unicode="&#xe2;" horiz-adv-x="1175" 
d="M1047 0h-252q-8 51 -11 82q-4 36 -4 82q-37 -88 -128 -137q-92 -50 -218 -50q-159 0 -254 82q-96 83 -96 220q0 138 94 217t281 102l311 35v49q0 90 -51 139q-50 49 -146 49q-85 0 -135 -43q-51 -44 -57 -116h-252q16 166 137 260t316 94q216 0 330 -102t114 -301v-402
q0 -77 5 -144q4 -52 16 -116zM344 293q0 -64 43 -98q44 -35 119 -35q114 0 189 66t75 177v64l-231 -27q-113 -15 -153 -48q-42 -34 -42 -99zM262 1180l201 327h237l201 -327h-151l-166 178l-170 -178h-152z" />
    <glyph glyph-name="atilde" unicode="&#xe3;" horiz-adv-x="1175" 
d="M1047 0h-252q-8 51 -11 82q-4 36 -4 82q-37 -88 -128 -137q-92 -50 -218 -50q-159 0 -254 82q-96 83 -96 220q0 138 94 217t281 102l311 35v49q0 90 -51 139q-50 49 -146 49q-85 0 -135 -43q-51 -44 -57 -116h-252q16 166 137 260t316 94q216 0 330 -102t114 -301v-402
q0 -77 5 -144q4 -52 16 -116zM344 293q0 -64 43 -98q44 -35 119 -35q114 0 189 66t75 177v64l-231 -27q-113 -15 -153 -48q-42 -34 -42 -99zM567 1255q-51 39 -71 48q-21 10 -41 10q-38 0 -59 -35q-20 -34 -25 -100h-146q0 143 54 231q53 86 145 86q39 0 75 -16
q33 -15 105 -64q46 -35 72 -47q21 -10 41 -10q37 0 58 35q22 35 26 100h145q0 -146 -53 -232q-52 -85 -145 -85q-39 0 -75 16q-40 18 -106 63z" />
    <glyph glyph-name="adieresis" unicode="&#xe4;" horiz-adv-x="1175" 
d="M1047 0h-252q-8 51 -11 82q-4 36 -4 82q-37 -88 -128 -137q-92 -50 -218 -50q-159 0 -254 82q-96 83 -96 220q0 138 94 217t281 102l311 35v49q0 90 -51 139q-50 49 -146 49q-85 0 -135 -43q-51 -44 -57 -116h-252q16 166 137 260t316 94q216 0 330 -102t114 -301v-402
q0 -77 5 -144q4 -52 16 -116zM344 293q0 -64 43 -98q44 -35 119 -35q114 0 189 66t75 177v64l-231 -27q-113 -15 -153 -48q-42 -34 -42 -99zM909 1217h-241v256h241v-256zM500 1217h-242v256h242v-256z" />
    <glyph glyph-name="aring" unicode="&#xe5;" horiz-adv-x="1175" 
d="M1047 0h-252q-8 51 -11 82q-4 36 -4 82q-37 -88 -128 -137q-92 -50 -218 -50q-159 0 -254 82q-96 83 -96 220q0 138 94 217t281 102l311 35v49q0 90 -51 139q-50 49 -146 49q-85 0 -135 -43q-51 -44 -57 -116h-252q16 166 137 260t316 94q216 0 330 -102t114 -301v-402
q0 -77 5 -144q4 -52 16 -116zM344 293q0 -64 43 -98q44 -35 119 -35q114 0 189 66t75 177v64l-231 -27q-113 -15 -153 -48q-42 -34 -42 -99zM586 1159q-94 0 -161 67t-67 158q0 94 67 161t161 67q92 0 159 -67q66 -66 66 -161q0 -91 -67 -158t-158 -67zM586 1278q42 0 74 32
t32 74q0 46 -30 77q-30 32 -76 32q-45 0 -77 -32t-32 -77q0 -42 32 -74t77 -32z" />
    <glyph glyph-name="ae" unicode="&#xe6;" horiz-adv-x="1843" 
d="M1507 324h242q-33 -162 -159 -255q-127 -94 -310 -94q-124 0 -230 50q-107 51 -178 139q-75 -93 -174 -139q-104 -48 -227 -48q-176 0 -282 83q-105 82 -105 227q0 155 124 237t359 82h203v76q0 92 -51 141q-50 49 -146 49q-85 0 -135 -43q-51 -44 -57 -118h-252
q16 165 135 260q118 94 309 94q116 0 203 -37q89 -38 144 -106q68 68 159 106q89 37 193 37q223 0 353 -145t130 -379v-78h-749q10 -144 80 -219q70 -76 194 -76q85 0 142 39q56 39 85 117zM1272 874q-108 0 -176 -69t-86 -199h499q-5 126 -66 196q-63 72 -171 72zM342 307
q0 -66 47 -107q46 -40 125 -40q115 0 185 64q71 65 71 177v62h-211q-105 0 -161 -40t-56 -116z" />
    <glyph glyph-name="ccedilla" unicode="&#xe7;" horiz-adv-x="1140" 
d="M825 -227q0 -84 -71 -133q-73 -50 -183 -50q-43 0 -98 10q-49 9 -90 27v119q67 -27 101 -34q42 -9 83 -9q50 0 78 16q29 17 29 48q0 44 -53 58q-54 14 -115 -7l-47 45l71 117q-202 27 -322 172q-120 146 -120 368q0 245 144 395t378 150q192 0 311 -101
q120 -102 142 -280h-248q-16 90 -70 137q-53 47 -137 47q-120 0 -189 -93t-69 -255q0 -164 69 -256t189 -92q84 0 137 48q54 49 70 136h248q-22 -171 -135 -272q-114 -102 -293 -109l-35 -55q93 10 160 -31q65 -40 65 -116z" />
    <glyph glyph-name="egrave" unicode="&#xe8;" horiz-adv-x="1177" 
d="M842 324h241q-33 -163 -158 -255q-127 -94 -311 -94q-235 0 -381 149q-145 148 -145 394q0 247 145 396q146 151 375 151q221 0 351 -145q131 -146 131 -379v-84h-748q12 -138 82 -214q69 -75 190 -75q87 0 144 39t84 117zM608 870q-106 0 -171 -62q-66 -63 -87 -181h490
q0 109 -63 176t-169 67zM604 1507l109 -325h-172l-238 325h301z" />
    <glyph glyph-name="eacute" unicode="&#xe9;" horiz-adv-x="1177" 
d="M842 324h241q-33 -163 -158 -255q-127 -94 -311 -94q-235 0 -381 149q-145 148 -145 394q0 247 145 396q146 151 375 151q221 0 351 -145q131 -146 131 -379v-84h-748q12 -138 82 -214q69 -75 190 -75q87 0 144 39t84 117zM608 870q-106 0 -171 -62q-66 -63 -87 -181h490
q0 109 -63 176t-169 67zM922 1507l-238 -325h-172l109 325h301z" />
    <glyph glyph-name="ecircumflex" unicode="&#xea;" horiz-adv-x="1177" 
d="M842 324h241q-33 -163 -158 -255q-127 -94 -311 -94q-235 0 -381 149q-145 148 -145 394q0 247 145 396q146 151 375 151q221 0 351 -145q131 -146 131 -379v-84h-748q12 -138 82 -214q69 -75 190 -75q87 0 144 39t84 117zM608 870q-106 0 -171 -62q-66 -63 -87 -181h490
q0 109 -63 176t-169 67zM293 1180l201 327h237l201 -327h-152l-166 178l-170 -178h-151z" />
    <glyph glyph-name="edieresis" unicode="&#xeb;" horiz-adv-x="1177" 
d="M842 324h241q-33 -163 -158 -255q-127 -94 -311 -94q-235 0 -381 149q-145 148 -145 394q0 247 145 396q146 151 375 151q221 0 351 -145q131 -146 131 -379v-84h-748q12 -138 82 -214q69 -75 190 -75q87 0 144 39t84 117zM608 870q-106 0 -171 -62q-66 -63 -87 -181h490
q0 109 -63 176t-169 67zM936 1217h-242v256h242v-256zM526 1217h-241v256h241v-256z" />
    <glyph glyph-name="igrave" unicode="&#xec;" horiz-adv-x="581" 
d="M160 0v1040h262v-1040h-262zM281 1507l108 -325h-172l-237 325h301z" />
    <glyph glyph-name="iacute" unicode="&#xed;" horiz-adv-x="581" 
d="M160 0v1040h262v-1040h-262zM614 1507l-237 -325h-172l108 325h301z" />
    <glyph glyph-name="icircumflex" unicode="&#xee;" horiz-adv-x="581" 
d="M160 0v1040h262v-1040h-262zM-27 1180l201 327h238l200 -327h-151l-166 178l-170 -178h-152z" />
    <glyph glyph-name="idieresis" unicode="&#xef;" horiz-adv-x="581" 
d="M160 0v1040h262v-1040h-262zM618 1217h-241v256h241v-256zM209 1217h-242v256h242v-256z" />
    <glyph glyph-name="eth" unicode="&#xf0;" horiz-adv-x="1228" 
d="M1141 555q0 -264 -146 -422t-381 -158q-236 0 -381 150q-145 149 -145 397q0 234 147 382q147 149 371 149q60 0 110 -18q52 -19 81 -48q-39 67 -85 124q-41 52 -100 114l-284 -92l-47 104l237 78q-54 48 -111 89q-61 44 -135 91v12h301q39 -23 82 -55q12 -9 84 -66
l187 62l47 -105l-142 -47q151 -159 230 -349q80 -193 80 -392zM614 862q-125 0 -194 -91q-70 -93 -70 -253q0 -164 70 -257q69 -91 194 -91q124 0 193 92q70 93 70 256q0 160 -70 253q-69 91 -193 91z" />
    <glyph glyph-name="ntilde" unicode="&#xf1;" horiz-adv-x="1273" 
d="M160 1040h258v-176q40 94 126 147q87 54 201 54q177 0 280 -106q101 -104 101 -291v-668h-262v606q0 125 -53 189q-53 63 -156 63q-111 0 -172 -76t-61 -217v-565h-262v1040zM627 1255q-49 37 -72 48q-21 10 -41 10q-37 0 -58 -35q-22 -35 -26 -100h-145q0 145 53 231
t145 86q39 0 75 -16t106 -64q48 -36 71 -47q21 -10 41 -10q38 0 59 35q20 34 25 100h146q0 -144 -54 -232q-52 -85 -145 -85q-39 0 -75 16q-38 16 -105 63z" />
    <glyph glyph-name="ograve" unicode="&#xf2;" horiz-adv-x="1228" 
d="M614 1065q236 0 381 -150q146 -151 146 -395q0 -246 -145 -396q-144 -149 -382 -149t-382 149q-144 148 -144 396q0 246 145 395q145 150 381 150zM614 870q-125 0 -194 -92q-70 -93 -70 -258t70 -258q69 -92 194 -92q126 0 195 92q70 93 70 258q0 163 -70 257
q-69 93 -195 93zM623 1507l108 -325h-172l-237 325h301z" />
    <glyph glyph-name="oacute" unicode="&#xf3;" horiz-adv-x="1228" 
d="M614 1065q236 0 381 -150q146 -151 146 -395q0 -246 -145 -396q-144 -149 -382 -149t-382 149q-144 148 -144 396q0 246 145 395q145 150 381 150zM614 870q-125 0 -194 -92q-70 -93 -70 -258t70 -258q69 -92 194 -92q126 0 195 92q70 93 70 258q0 163 -70 257
q-69 93 -195 93zM915 1507l-237 -325h-172l108 325h301z" />
    <glyph glyph-name="ocircumflex" unicode="&#xf4;" horiz-adv-x="1228" 
d="M614 1065q236 0 381 -150q146 -151 146 -395q0 -246 -145 -396q-144 -149 -382 -149t-382 149q-144 148 -144 396q0 246 145 395q145 150 381 150zM614 870q-125 0 -194 -92q-70 -93 -70 -258t70 -258q69 -92 194 -92q126 0 195 92q70 93 70 258q0 163 -70 257
q-69 93 -195 93zM295 1180l201 327h237l201 -327h-152l-166 178l-170 -178h-151z" />
    <glyph glyph-name="otilde" unicode="&#xf5;" horiz-adv-x="1228" 
d="M614 1065q236 0 381 -150q146 -151 146 -395q0 -246 -145 -396q-144 -149 -382 -149t-382 149q-144 148 -144 396q0 246 145 395q145 150 381 150zM614 870q-125 0 -194 -92q-70 -93 -70 -258t70 -258q69 -92 194 -92q126 0 195 92q70 93 70 258q0 163 -70 257
q-69 93 -195 93zM596 1255q-50 37 -72 48q-21 10 -41 10q-37 0 -58 -35q-22 -35 -26 -100h-145q0 145 53 231t146 86q38 0 74 -16t106 -64q46 -35 72 -47q21 -10 40 -10q38 0 59 35q20 34 25 100h146q0 -146 -53 -232q-52 -85 -146 -85q-39 0 -75 16q-37 16 -105 63z" />
    <glyph glyph-name="odieresis" unicode="&#xf6;" horiz-adv-x="1228" 
d="M614 1065q236 0 381 -150q146 -151 146 -395q0 -246 -145 -396q-144 -149 -382 -149t-382 149q-144 148 -144 396q0 246 145 395q145 150 381 150zM614 870q-125 0 -194 -92q-70 -93 -70 -258t70 -258q69 -92 194 -92q126 0 195 92q70 93 70 258q0 163 -70 257
q-69 93 -195 93zM940 1217h-242v256h242v-256zM530 1217h-241v256h241v-256z" />
    <glyph glyph-name="divide" unicode="&#xf7;" horiz-adv-x="1351" 
d="M803 1004h-252v243h252v-243zM1217 584h-1084v194h1084v-194zM803 113h-252v245h252v-245z" />
    <glyph glyph-name="oslash" unicode="&#xf8;" horiz-adv-x="1228" 
d="M1141 520q0 -246 -145 -396q-144 -149 -382 -149q-82 0 -162 22q-78 21 -141 62l-110 -129l-101 93l111 127q-63 74 -92 165q-31 98 -31 205q0 246 145 395q145 150 381 150q88 0 169 -23t143 -67l102 119l100 -93l-102 -118q58 -73 86 -164q29 -93 29 -199zM614 879
q-128 0 -201 -96t-73 -263q0 -51 8 -101q7 -43 23 -85l415 481q-36 32 -77 47q-45 17 -95 17zM614 162q130 0 202 95q73 96 73 263q0 54 -7 95q-7 43 -20 79l-413 -477q33 -25 76 -41q39 -14 89 -14z" />
    <glyph glyph-name="ugrave" unicode="&#xf9;" horiz-adv-x="1261" 
d="M1102 1040v-1040h-258v174q-39 -92 -125 -145q-88 -54 -199 -54q-175 0 -273 104q-97 103 -97 292v669h264v-612q0 -123 50 -187q50 -63 150 -63q106 0 165 77t59 220v565h264zM623 1507l108 -325h-172l-237 325h301z" />
    <glyph glyph-name="uacute" unicode="&#xfa;" horiz-adv-x="1261" 
d="M1102 1040v-1040h-258v174q-39 -92 -125 -145q-88 -54 -199 -54q-175 0 -273 104q-97 103 -97 292v669h264v-612q0 -123 50 -187q50 -63 150 -63q106 0 165 77t59 220v565h264zM934 1507l-238 -325h-172l109 325h301z" />
    <glyph glyph-name="ucircumflex" unicode="&#xfb;" horiz-adv-x="1261" 
d="M1102 1040v-1040h-258v174q-39 -92 -125 -145q-88 -54 -199 -54q-175 0 -273 104q-97 103 -97 292v669h264v-612q0 -123 50 -187q50 -63 150 -63q106 0 165 77t59 220v565h264zM309 1180l201 327h238l200 -327h-151l-166 178l-170 -178h-152z" />
    <glyph glyph-name="udieresis" unicode="&#xfc;" horiz-adv-x="1261" 
d="M1102 1040v-1040h-258v174q-39 -92 -125 -145q-88 -54 -199 -54q-175 0 -273 104q-97 103 -97 292v669h264v-612q0 -123 50 -187q50 -63 150 -63q106 0 165 77t59 220v565h264zM954 1217h-241v256h241v-256zM545 1217h-242v256h242v-256z" />
    <glyph glyph-name="yacute" unicode="&#xfd;" horiz-adv-x="1175" 
d="M240 -178q83 0 124 37q42 37 82 143l-405 1038h266l289 -784h4l274 784h261l-406 -1058q-74 -196 -174 -278q-102 -84 -264 -85q-27 0 -61 3q-38 3 -60 7v199q11 -3 31 -5q10 -1 39 -1zM915 1507l-237 -325h-172l108 325h301z" />
    <glyph glyph-name="thorn" unicode="&#xfe;" horiz-adv-x="1298" 
d="M752 -25q-108 0 -197 53q-88 52 -133 138v-531h-262v1872h260v-637q41 89 131 142q91 53 201 53q203 0 331 -152q127 -151 127 -393t-127 -393q-128 -152 -331 -152zM678 872q-124 0 -193 -89t-69 -244v-37q0 -156 69 -245t193 -89t196 94t72 258t-72 258t-196 94z" />
    <glyph glyph-name="ydieresis" unicode="&#xff;" horiz-adv-x="1175" 
d="M240 -178q83 0 124 37q42 37 82 143l-405 1038h266l289 -784h4l274 784h261l-406 -1058q-74 -196 -174 -278q-102 -84 -264 -85q-27 0 -61 3q-38 3 -60 7v199q11 -3 31 -5q10 -1 39 -1zM932 1217h-242v256h242v-256zM522 1217h-241v256h241v-256z" />
    <glyph glyph-name="Amacron" unicode="&#x100;" horiz-adv-x="1527" 
d="M1503 0h-278l-138 358h-659l-139 -358h-266l587 1462h305zM764 1200h-6l-246 -631h494zM1098 1595h-668v177h668v-177z" />
    <glyph glyph-name="amacron" unicode="&#x101;" horiz-adv-x="1175" 
d="M1047 0h-252q-8 51 -11 82q-4 36 -4 82q-37 -88 -128 -137q-92 -50 -218 -50q-159 0 -254 82q-96 83 -96 220q0 138 94 217t281 102l311 35v49q0 90 -51 139q-50 49 -146 49q-85 0 -135 -43q-51 -44 -57 -116h-252q16 166 137 260t316 94q216 0 330 -102t114 -301v-402
q0 -77 5 -144q4 -52 16 -116zM344 293q0 -64 43 -98q44 -35 119 -35q114 0 189 66t75 177v64l-231 -27q-113 -15 -153 -48q-42 -34 -42 -99zM895 1217h-627v176h627v-176z" />
    <glyph glyph-name="Abreve" unicode="&#x102;" horiz-adv-x="1527" 
d="M1503 0h-278l-138 358h-659l-139 -358h-266l587 1462h305zM764 1200h-6l-246 -631h494zM766 1559q-137 0 -218 89t-81 238h166q0 -77 35 -120q35 -42 98 -42q62 0 97 42q34 41 34 120h166q0 -150 -81 -238q-81 -89 -216 -89z" />
    <glyph glyph-name="abreve" unicode="&#x103;" horiz-adv-x="1175" 
d="M1047 0h-252q-8 51 -11 82q-4 36 -4 82q-37 -88 -128 -137q-92 -50 -218 -50q-159 0 -254 82q-96 83 -96 220q0 138 94 217t281 102l311 35v49q0 90 -51 139q-50 49 -146 49q-85 0 -135 -43q-51 -44 -57 -116h-252q16 166 137 260t316 94q216 0 330 -102t114 -301v-402
q0 -77 5 -144q4 -52 16 -116zM344 293q0 -64 43 -98q44 -35 119 -35q114 0 189 66t75 177v64l-231 -27q-113 -15 -153 -48q-42 -34 -42 -99zM582 1180q-137 0 -218 89t-81 238h161q1 -78 37 -123q34 -43 101 -43q64 0 98 43q36 45 37 123h162q0 -149 -81 -238t-216 -89z" />
    <glyph glyph-name="Aogonek" unicode="&#x104;" horiz-adv-x="1527" 
d="M1411 -233v-138q-24 -8 -58 -14q-24 -4 -67 -4q-86 0 -140 45t-54 123q0 53 26 104q28 54 99 137l-130 338h-659l-139 -358h-266l587 1462h305l588 -1462h-151q-65 -85 -81 -116q-18 -34 -18 -62q0 -32 21 -50t55 -18q23 0 41 3q9 2 41 10zM764 1200h-6l-246 -631h494z
" />
    <glyph glyph-name="aogonek" unicode="&#x105;" horiz-adv-x="1175" 
d="M993 -233v-138q-24 -8 -58 -14q-24 -4 -67 -4q-86 0 -140 45t-54 123q0 53 26 104q28 54 93 131q-8 50 -10 76q-3 39 -3 74q-37 -88 -128 -137q-92 -50 -218 -50q-159 0 -254 82q-96 83 -96 220q0 138 94 217t281 102l311 35v49q0 90 -51 139q-50 49 -146 49
q-85 0 -135 -43q-51 -44 -57 -116h-252q16 166 137 260t316 94q216 0 330 -102t114 -301v-402q0 -77 5 -144q4 -52 16 -116h-113q-65 -85 -81 -116q-17 -33 -17 -62q0 -33 20 -50q21 -18 55 -18q23 0 41 3q9 2 41 10zM344 293q0 -64 43 -98q44 -35 119 -35q114 0 189 66
t75 177v64l-231 -27q-113 -15 -153 -48q-42 -34 -42 -99z" />
    <glyph glyph-name="Cacute" unicode="&#x106;" horiz-adv-x="1445" 
d="M774 1272q-195 0 -303 -143q-109 -144 -109 -396q0 -254 109 -399q108 -144 303 -144q138 0 224 69t110 200h264q-41 -230 -196 -357t-402 -127q-310 0 -499 209q-189 208 -189 549q0 338 190 546t498 208q246 0 402 -126q155 -126 196 -357h-264q-24 129 -110 199
q-85 69 -224 69zM1083 1878l-241 -313h-162l108 313h295z" />
    <glyph glyph-name="cacute" unicode="&#x107;" horiz-adv-x="1140" 
d="M610 -25q-235 0 -379 149q-143 147 -143 396q0 245 144 395t378 150q192 0 311 -101q120 -102 142 -280h-248q-16 90 -70 137q-53 47 -137 47q-120 0 -189 -93t-69 -255q0 -164 69 -256t189 -92q84 0 137 48q54 49 70 136h248q-22 -177 -142 -279t-311 -102zM924 1507
l-238 -325h-172l109 325h301z" />
    <glyph glyph-name="Ccircumflex" unicode="&#x108;" horiz-adv-x="1445" 
d="M774 1272q-195 0 -303 -143q-109 -144 -109 -396q0 -254 109 -399q108 -144 303 -144q138 0 224 69t110 200h264q-41 -230 -196 -357t-402 -127q-310 0 -499 209q-189 208 -189 549q0 338 190 546t498 208q246 0 402 -126q155 -126 196 -357h-264q-24 129 -110 199
q-85 69 -224 69zM455 1563l198 315h244l197 -315h-152l-166 163l-170 -163h-151z" />
    <glyph glyph-name="ccircumflex" unicode="&#x109;" horiz-adv-x="1140" 
d="M610 -25q-235 0 -379 149q-143 147 -143 396q0 245 144 395t378 150q192 0 311 -101q120 -102 142 -280h-248q-16 90 -70 137q-53 47 -137 47q-120 0 -189 -93t-69 -255q0 -164 69 -256t189 -92q84 0 137 48q54 49 70 136h248q-22 -177 -142 -279t-311 -102zM289 1180
l200 327h238l201 -327h-152l-166 178l-170 -178h-151z" />
    <glyph glyph-name="Cdotaccent" unicode="&#x10a;" horiz-adv-x="1445" 
d="M774 1272q-195 0 -303 -143q-109 -144 -109 -396q0 -254 109 -399q108 -144 303 -144q138 0 224 69t110 200h264q-41 -230 -196 -357t-402 -127q-310 0 -499 209q-189 208 -189 549q0 338 190 546t498 208q246 0 402 -126q155 -126 196 -357h-264q-24 129 -110 199
q-85 69 -224 69zM911 1587h-278v256h278v-256z" />
    <glyph glyph-name="cdotaccent" unicode="&#x10b;" horiz-adv-x="1140" 
d="M610 -25q-235 0 -379 149q-143 147 -143 396q0 245 144 395t378 150q192 0 311 -101q120 -102 142 -280h-248q-16 90 -70 137q-53 47 -137 47q-120 0 -189 -93t-69 -255q0 -164 69 -256t189 -92q84 0 137 48q54 49 70 136h248q-22 -177 -142 -279t-311 -102zM748 1217
h-279v256h279v-256z" />
    <glyph glyph-name="Ccaron" unicode="&#x10c;" horiz-adv-x="1445" 
d="M774 1272q-195 0 -303 -143q-109 -144 -109 -396q0 -254 109 -399q108 -144 303 -144q138 0 224 69t110 200h264q-41 -230 -196 -357t-402 -127q-310 0 -499 209q-189 208 -189 549q0 338 190 546t498 208q246 0 402 -126q155 -126 196 -357h-264q-24 129 -110 199
q-85 69 -224 69zM606 1878l170 -164l166 164h152l-197 -315h-244l-198 315h151z" />
    <glyph glyph-name="ccaron" unicode="&#x10d;" horiz-adv-x="1140" 
d="M610 -25q-235 0 -379 149q-143 147 -143 396q0 245 144 395t378 150q192 0 311 -101q120 -102 142 -280h-248q-16 90 -70 137q-53 47 -137 47q-120 0 -189 -93t-69 -255q0 -164 69 -256t189 -92q84 0 137 48q54 49 70 136h248q-22 -177 -142 -279t-311 -102zM440 1507
l170 -178l166 178h152l-201 -327h-238l-200 327h151z" />
    <glyph glyph-name="Dcaron" unicode="&#x10e;" horiz-adv-x="1544" 
d="M166 1462h563q331 0 531 -200t200 -531q0 -330 -200 -530q-201 -201 -531 -201h-563v1462zM1182 731q0 247 -118 381q-118 135 -335 135h-297v-1032h297q217 0 335 135q118 134 118 381zM553 1878l170 -164l166 164h151l-196 -315h-244l-199 315h152z" />
    <glyph glyph-name="dcaron" unicode="&#x10f;" horiz-adv-x="1327" 
d="M547 -25q-204 0 -332 152q-127 151 -127 393t127 393q128 152 332 152q110 0 199 -53q91 -54 131 -142v637h262v-1507h-258v166q-41 -86 -132 -138q-92 -53 -202 -53zM621 872q-125 0 -197 -94t-72 -258t72 -258t197 -94q123 0 192 89q70 90 70 245v37q0 154 -70 244
q-69 89 -192 89zM1616 1507l-197 -415h-127l49 415h275z" />
    <glyph glyph-name="Dcroat" unicode="&#x110;" horiz-adv-x="1585" 
d="M1501 731q0 -329 -201 -530t-530 -201h-563v639h-150v207h150v616h563q330 0 530 -200q201 -201 201 -531zM473 639v-424h297q216 0 335 135q118 134 118 381t-118 381q-118 135 -335 135h-297v-401h256v-207h-256z" />
    <glyph glyph-name="dcroat" unicode="&#x111;" horiz-adv-x="1329" 
d="M881 0v166q-41 -86 -132 -138q-92 -53 -202 -53q-204 0 -332 152q-127 151 -127 393t127 393q128 152 332 152q110 0 199 -53q91 -54 131 -142v314h-242v155h242v168h262v-168h147v-155h-147v-1184h-258zM621 168q123 0 192 89q70 90 70 245v37q0 154 -70 244
q-69 89 -192 89q-125 0 -197 -94t-72 -258t72 -258t197 -94z" />
    <glyph glyph-name="Emacron" unicode="&#x112;" horiz-adv-x="1345" 
d="M1225 215v-215h-1059v1462h1051v-215h-785v-407h694v-215h-694v-410h793zM1030 1595h-668v177h668v-177z" />
    <glyph glyph-name="emacron" unicode="&#x113;" horiz-adv-x="1177" 
d="M842 324h241q-33 -163 -158 -255q-127 -94 -311 -94q-235 0 -381 149q-145 148 -145 394q0 247 145 396q146 151 375 151q221 0 351 -145q131 -146 131 -379v-84h-748q12 -138 82 -214q69 -75 190 -75q87 0 144 39t84 117zM608 870q-106 0 -171 -62q-66 -63 -87 -181h490
q0 109 -63 176t-169 67zM922 1217h-627v176h627v-176z" />
    <glyph glyph-name="Ebreve" unicode="&#x114;" horiz-adv-x="1345" 
d="M1225 215v-215h-1059v1462h1051v-215h-785v-407h694v-215h-694v-410h793zM696 1559q-137 0 -218 89q-81 88 -81 238h166q0 -77 35 -120q34 -42 98 -42t98 42q33 40 33 120h166q0 -150 -81 -238q-81 -89 -216 -89z" />
    <glyph glyph-name="ebreve" unicode="&#x115;" horiz-adv-x="1177" 
d="M842 324h241q-33 -163 -158 -255q-127 -94 -311 -94q-235 0 -381 149q-145 148 -145 394q0 247 145 396q146 151 375 151q221 0 351 -145q131 -146 131 -379v-84h-748q12 -138 82 -214q69 -75 190 -75q87 0 144 39t84 117zM608 870q-106 0 -171 -62q-66 -63 -87 -181h490
q0 109 -63 176t-169 67zM604 1180q-137 0 -218 89t-81 238h162q1 -78 37 -123q34 -43 100 -43q64 0 98 43q36 45 37 123h162q0 -149 -81 -238t-216 -89z" />
    <glyph glyph-name="Edotaccent" unicode="&#x116;" horiz-adv-x="1345" 
d="M1225 215v-215h-1059v1462h1051v-215h-785v-407h694v-215h-694v-410h793zM834 1587h-279v256h279v-256z" />
    <glyph glyph-name="edotaccent" unicode="&#x117;" horiz-adv-x="1177" 
d="M842 324h241q-33 -163 -158 -255q-127 -94 -311 -94q-235 0 -381 149q-145 148 -145 394q0 247 145 396q146 151 375 151q221 0 351 -145q131 -146 131 -379v-84h-748q12 -138 82 -214q69 -75 190 -75q87 0 144 39t84 117zM608 870q-106 0 -171 -62q-66 -63 -87 -181h490
q0 109 -63 176t-169 67zM748 1217h-279v256h279v-256z" />
    <glyph glyph-name="Eogonek" unicode="&#x118;" horiz-adv-x="1345" 
d="M1153 -233v-138q-24 -8 -58 -14q-24 -4 -67 -4q-86 0 -140 45t-54 123q0 49 23 98q25 54 83 123h-774v1462h1051v-215h-785v-407h694v-215h-694v-410h793v-215h-131q-65 -85 -81 -116q-18 -34 -18 -62q0 -32 21 -50t55 -18q23 0 41 3q9 2 41 10z" />
    <glyph glyph-name="eogonek" unicode="&#x119;" horiz-adv-x="1177" 
d="M911 -233v-138q-24 -8 -58 -14q-24 -4 -67 -4q-86 0 -140 45t-54 123q0 48 20 92q23 50 70 109q-11 -1 -42 -4q-9 -1 -26 -1q-235 0 -381 149q-145 148 -145 394q0 247 145 396q146 151 375 151q221 0 351 -145q131 -146 131 -379v-84h-748q12 -138 82 -214
q69 -75 190 -75q87 0 144 39t84 117h241q-16 -77 -59 -142q-45 -68 -141 -147q-60 -50 -96 -109q-33 -55 -33 -104q0 -33 20 -50q21 -18 55 -18q23 0 41 3q9 2 41 10zM608 870q-106 0 -171 -62q-66 -63 -87 -181h490q0 109 -63 176t-169 67z" />
    <glyph glyph-name="Ecaron" unicode="&#x11a;" horiz-adv-x="1345" 
d="M1225 215v-215h-1059v1462h1051v-215h-785v-407h694v-215h-694v-410h793zM526 1878l170 -164l166 164h152l-197 -315h-244l-198 315h151z" />
    <glyph glyph-name="ecaron" unicode="&#x11b;" horiz-adv-x="1177" 
d="M842 324h241q-33 -163 -158 -255q-127 -94 -311 -94q-235 0 -381 149q-145 148 -145 394q0 247 145 396q146 151 375 151q221 0 351 -145q131 -146 131 -379v-84h-748q12 -138 82 -214q69 -75 190 -75q87 0 144 39t84 117zM608 870q-106 0 -171 -62q-66 -63 -87 -181h490
q0 109 -63 176t-169 67zM444 1507l170 -178l166 178h152l-201 -327h-237l-201 327h151z" />
    <glyph glyph-name="Gcircumflex" unicode="&#x11c;" horiz-adv-x="1562" 
d="M772 -25q-308 0 -497 209q-189 208 -189 549q0 335 196 545q195 209 511 209q249 0 407 -125t203 -356h-268q-27 131 -115 198q-89 68 -227 68q-202 0 -316 -144q-115 -145 -115 -395q0 -253 113 -398t313 -145q159 0 262 86q101 85 101 222v51h-283v196h553v-745h-211
l-18 209q-39 -101 -159 -167q-122 -67 -261 -67zM481 1563l199 315h244l196 -315h-151l-166 163l-170 -163h-152z" />
    <glyph glyph-name="gcircumflex" unicode="&#x11d;" horiz-adv-x="1300" 
d="M610 -205q131 0 199 70t68 205v147q-43 -85 -132 -138q-88 -52 -198 -52q-208 0 -333 143q-126 144 -126 377q0 232 127 375t332 143q110 0 201 -53q89 -52 133 -142v170h258v-938q0 -236 -139 -364q-137 -127 -390 -127q-211 0 -341 84q-130 83 -158 239h260
q21 -70 80 -104q61 -35 159 -35zM616 219q121 0 196 85q75 86 75 222v43q0 138 -75 222q-74 83 -196 83t-194 -88t-72 -239t72 -240q72 -88 194 -88zM326 1180l200 327h238l201 -327h-152l-166 178l-170 -178h-151z" />
    <glyph glyph-name="Gbreve" unicode="&#x11e;" horiz-adv-x="1562" 
d="M772 -25q-308 0 -497 209q-189 208 -189 549q0 335 196 545q195 209 511 209q249 0 407 -125t203 -356h-268q-27 131 -115 198q-89 68 -227 68q-202 0 -316 -144q-115 -145 -115 -395q0 -253 113 -398t313 -145q159 0 262 86q101 85 101 222v51h-283v196h553v-745h-211
l-18 209q-39 -101 -159 -167q-122 -67 -261 -67zM801 1559q-137 0 -218 89t-81 238h166q0 -79 34 -120q34 -42 99 -42q63 0 97 42q34 41 34 120h166q0 -150 -81 -238q-81 -89 -216 -89z" />
    <glyph glyph-name="gbreve" unicode="&#x11f;" horiz-adv-x="1300" 
d="M610 -205q131 0 199 70t68 205v147q-43 -85 -132 -138q-88 -52 -198 -52q-208 0 -333 143q-126 144 -126 377q0 232 127 375t332 143q110 0 201 -53q89 -52 133 -142v170h258v-938q0 -236 -139 -364q-137 -127 -390 -127q-211 0 -341 84q-130 83 -158 239h260
q21 -70 80 -104q61 -35 159 -35zM616 219q121 0 196 85q75 86 75 222v43q0 138 -75 222q-74 83 -196 83t-194 -88t-72 -239t72 -240q72 -88 194 -88zM647 1180q-137 0 -218 89t-81 238h162q1 -78 37 -123q34 -43 100 -43q64 0 98 43q36 45 37 123h162q0 -149 -81 -238
t-216 -89z" />
    <glyph glyph-name="Gdotaccent" unicode="&#x120;" horiz-adv-x="1562" 
d="M772 -25q-308 0 -497 209q-189 208 -189 549q0 335 196 545q195 209 511 209q249 0 407 -125t203 -356h-268q-27 131 -115 198q-89 68 -227 68q-202 0 -316 -144q-115 -145 -115 -395q0 -253 113 -398t313 -145q159 0 262 86q101 85 101 222v51h-283v196h553v-745h-211
l-18 209q-39 -101 -159 -167q-122 -67 -261 -67zM940 1587h-278v256h278v-256z" />
    <glyph glyph-name="gdotaccent" unicode="&#x121;" horiz-adv-x="1300" 
d="M610 -205q131 0 199 70t68 205v147q-43 -85 -132 -138q-88 -52 -198 -52q-208 0 -333 143q-126 144 -126 377q0 232 127 375t332 143q110 0 201 -53q89 -52 133 -142v170h258v-938q0 -236 -139 -364q-137 -127 -390 -127q-211 0 -341 84q-130 83 -158 239h260
q21 -70 80 -104q61 -35 159 -35zM616 219q121 0 196 85q75 86 75 222v43q0 138 -75 222q-74 83 -196 83t-194 -88t-72 -239t72 -240q72 -88 194 -88zM774 1217h-278v256h278v-256z" />
    <glyph glyph-name="Gcommaaccent" unicode="&#x122;" horiz-adv-x="1562" 
d="M772 -25q-308 0 -497 209q-189 208 -189 549q0 335 196 545q195 209 511 209q249 0 407 -125t203 -356h-268q-27 131 -115 198q-89 68 -227 68q-202 0 -316 -144q-115 -145 -115 -395q0 -253 113 -398t313 -145q159 0 262 86q101 85 101 222v51h-283v196h553v-745h-211
l-18 209q-39 -101 -159 -167q-122 -67 -261 -67zM772 -270h-104v170h264v-119q0 -129 -67 -193q-66 -63 -203 -63v96q55 0 83 26q27 25 27 83z" />
    <glyph glyph-name="gcommaaccent" unicode="&#x123;" horiz-adv-x="1300" 
d="M610 -205q131 0 199 70t68 205v147q-43 -85 -132 -138q-88 -52 -198 -52q-208 0 -333 143q-126 144 -126 377q0 232 127 375t332 143q110 0 201 -53q89 -52 133 -142v170h258v-938q0 -236 -139 -364q-137 -127 -390 -127q-211 0 -341 84q-130 83 -158 239h260
q21 -70 80 -104q61 -35 159 -35zM616 219q121 0 196 85q75 86 75 222v43q0 138 -75 222q-74 83 -196 83t-194 -88t-72 -239t72 -240q72 -88 194 -88zM659 1358h105v-170h-264v119q0 129 66 192q67 64 204 64v-97q-58 0 -84 -25q-27 -25 -27 -83z" />
    <glyph glyph-name="Hcircumflex" unicode="&#x124;" horiz-adv-x="1624" 
d="M438 0h-272v1462h272v-614h750v614h270v-1462h-270v635h-750v-635zM494 1563l198 315h244l197 -315h-152l-166 163l-170 -163h-151z" />
    <glyph glyph-name="hcircumflex" unicode="&#x125;" horiz-adv-x="1273" 
d="M422 1507v-643q41 96 126 148q86 53 197 53q177 0 280 -106q101 -104 101 -291v-668h-262v606q0 125 -53 189q-53 63 -156 63q-111 0 -172 -76t-61 -217v-565h-262v1507h262zM322 1583l198 315h244l197 -315h-152l-166 164l-170 -164h-151z" />
    <glyph glyph-name="Hbar" unicode="&#x126;" horiz-adv-x="1705" 
d="M1227 504h-750v-504h-270v977h-150v207h150v278h270v-278h750v278h272v-278h150v-207h-150v-977h-272v504zM477 977v-260h750v260h-750z" />
    <glyph glyph-name="hbar" unicode="&#x127;" horiz-adv-x="1304" 
d="M686 858q-111 0 -172 -76t-61 -217v-565h-263v1184h-147v153h147v170h263v-170h239v-153h-239v-320q41 96 126 148q86 53 197 53q177 0 280 -106q101 -104 101 -291v-668h-262v606q0 125 -53 189q-52 63 -156 63z" />
    <glyph glyph-name="Itilde" unicode="&#x128;" horiz-adv-x="604" 
d="M438 0h-272v1462h272v-1462zM283 1649q-49 35 -72 45q-21 10 -41 10q-37 0 -58 -34q-22 -35 -26 -97h-145q0 145 53 231t145 86q37 0 75 -15q32 -13 105 -63q49 -34 72 -45q21 -10 41 -10q37 0 58 34q22 35 26 97h146q0 -144 -54 -232q-52 -85 -145 -85q-37 0 -75 15
q-32 13 -105 63z" />
    <glyph glyph-name="itilde" unicode="&#x129;" horiz-adv-x="581" 
d="M276 1257q-31 36 -47 46t-34 10q-37 0 -58 -35q-19 -32 -24 -100h-148q0 146 54 231q54 86 147 86q38 0 67 -16q31 -17 74 -66q29 -34 47 -45q16 -10 35 -10q36 0 57 35q20 34 25 100h145q0 -146 -53 -232q-52 -85 -145 -85q-39 0 -68 16q-33 18 -74 65zM160 0v1040h262
v-1040h-262z" />
    <glyph glyph-name="Imacron" unicode="&#x12a;" horiz-adv-x="604" 
d="M438 0h-272v1462h272v-1462zM635 1595h-668v177h668v-177z" />
    <glyph glyph-name="imacron" unicode="&#x12b;" horiz-adv-x="581" 
d="M567 1217h-547v176h547v-176zM160 0v1040h262v-1040h-262z" />
    <glyph glyph-name="Ibreve" unicode="&#x12c;" horiz-adv-x="604" 
d="M438 0h-272v1462h272v-1462zM303 1559q-137 0 -218 89q-81 88 -81 238h166q0 -77 35 -120q35 -42 98 -42t97 42q34 41 34 120h166q0 -150 -81 -238q-81 -89 -216 -89z" />
    <glyph glyph-name="ibreve" unicode="&#x12d;" horiz-adv-x="581" 
d="M160 0v1040h262v-1040h-262zM293 1180q-137 0 -218 89t-81 238h162q1 -78 37 -123q34 -43 100 -43q64 0 98 43q36 45 37 123h162q0 -149 -81 -238t-216 -89z" />
    <glyph glyph-name="Iogonek" unicode="&#x12e;" horiz-adv-x="604" 
d="M436 -233v-138q-24 -9 -57 -14q-25 -4 -68 -4q-87 0 -139 45q-53 45 -53 123q0 53 26 102q28 54 88 119h-67v1462h272v-1462q-75 -33 -117 -80q-40 -44 -40 -96q0 -33 21 -51q22 -19 56 -19q20 0 38 3q7 1 40 10z" />
    <glyph glyph-name="iogonek" unicode="&#x12f;" horiz-adv-x="581" 
d="M430 1217h-278v256h278v-256zM301 -389q-86 0 -139 45t-53 123q0 52 26 103q28 54 86 118h-61v1040h262v-1040q-74 -35 -113 -80t-39 -96q0 -32 22 -51t56 -19q20 0 38 3q7 1 40 10v-138q-24 -9 -57 -14q-25 -4 -68 -4z" />
    <glyph glyph-name="Idotaccent" unicode="&#x130;" horiz-adv-x="604" 
d="M438 0h-272v1462h272v-1462zM440 1587h-278v256h278v-256z" />
    <glyph glyph-name="dotlessi" unicode="&#x131;" horiz-adv-x="581" 
d="M160 0v1040h262v-1040h-262z" />
    <glyph glyph-name="Jcircumflex" unicode="&#x134;" horiz-adv-x="1239" 
d="M549 176q135 0 204 87q68 86 68 255v944h271v-936q0 -255 -146 -403t-397 -148q-235 0 -377 128q-140 127 -145 350h258q5 -133 73 -204q70 -73 191 -73zM631 1563l198 315h244l197 -315h-152l-166 163l-170 -163h-151z" />
    <glyph glyph-name="jcircumflex" unicode="&#x135;" horiz-adv-x="581" 
d="M92 -377q-29 0 -65 2q-24 1 -56 8v195q10 -3 32 -5q10 -1 32 -1q70 0 97 28q28 30 28 97v1093h262v-1097q0 -161 -82 -240q-83 -80 -248 -80zM-33 1180l201 327h238l200 -327h-151l-166 178l-170 -178h-152z" />
    <glyph glyph-name="Kcommaaccent" unicode="&#x136;" horiz-adv-x="1511" 
d="M1483 0h-328l-514 637l-203 -213v-424h-272v1462h272v-735l676 735h311l-604 -635zM733 -270h-104v170h264v-119q0 -129 -67 -193q-66 -63 -203 -63v96q56 0 84 26q26 25 26 83z" />
    <glyph glyph-name="kcommaaccent" unicode="&#x137;" horiz-adv-x="1224" 
d="M1186 0h-301l-342 440l-121 -116v-324h-262v1507h262v-913l442 446h301l-440 -434zM641 -270h-104v170h264v-119q0 -129 -67 -193q-66 -63 -204 -63v96q56 0 84 26q27 25 27 83z" />
    <glyph glyph-name="kgreenlandic" unicode="&#x138;" horiz-adv-x="1224" 
d="M1186 0h-301l-342 440l-121 -116v-324h-262v1040h262v-446l442 446h301l-440 -434z" />
    <glyph glyph-name="Lacute" unicode="&#x139;" horiz-adv-x="1296" 
d="M1192 0h-1026v1462h272v-1247h754v-215zM627 1878l-242 -313h-162l109 313h295z" />
    <glyph glyph-name="lacute" unicode="&#x13a;" horiz-adv-x="581" 
d="M422 1507v-1507h-262v1507h262zM616 1898l-241 -313h-162l109 313h294z" />
    <glyph glyph-name="Lcommaaccent" unicode="&#x13b;" horiz-adv-x="1296" 
d="M1192 0h-1026v1462h272v-1247h754v-215zM659 -270h-104v170h264v-119q0 -130 -66 -193t-204 -63v96q56 0 84 26q26 25 26 83z" />
    <glyph glyph-name="lcommaaccent" unicode="&#x13c;" horiz-adv-x="581" 
d="M422 1507v-1507h-262v1507h262zM266 -270h-104v170h264v-119q0 -129 -67 -193q-66 -63 -203 -63v96q56 0 84 26q26 25 26 83z" />
    <glyph glyph-name="Lcaron" unicode="&#x13d;" horiz-adv-x="1296" 
d="M1192 0h-1026v1462h272v-1247h754v-215zM1020 1462l-197 -415h-127l49 415h275z" />
    <glyph glyph-name="lcaron" unicode="&#x13e;" horiz-adv-x="612" 
d="M422 1507v-1507h-262v1507h262zM899 1507l-197 -415h-127l50 415h274z" />
    <glyph glyph-name="Ldot" unicode="&#x13f;" horiz-adv-x="1296" 
d="M1192 0h-1026v1462h272v-1247h754v-215zM1081 664h-278v256h278v-256z" />
    <glyph glyph-name="ldot" unicode="&#x140;" horiz-adv-x="987" 
d="M422 1507v-1507h-262v1507h262zM915 590h-278v256h278v-256z" />
    <glyph glyph-name="Lslash" unicode="&#x141;" horiz-adv-x="1286" 
d="M479 215h754v-215h-1026v567l-150 -53v201l150 53v694h272v-606l332 119v-201l-332 -119v-440z" />
    <glyph glyph-name="lslash" unicode="&#x142;" horiz-adv-x="720" 
d="M680 1063v-193l-188 -88v-782h-263v672l-188 -88v190l188 90v643h263v-534z" />
    <glyph glyph-name="Nacute" unicode="&#x143;" horiz-adv-x="1599" 
d="M166 1462h317l688 -1036h5v1036h258v-1462h-252l-752 1133h-4v-1133h-260v1462zM1090 1878l-242 -313h-162l109 313h295z" />
    <glyph glyph-name="nacute" unicode="&#x144;" horiz-adv-x="1273" 
d="M160 1040h258v-176q40 94 126 147q87 54 201 54q177 0 280 -106q101 -104 101 -291v-668h-262v606q0 125 -53 189q-53 63 -156 63q-111 0 -172 -76t-61 -217v-565h-262v1040zM952 1507l-237 -325h-172l108 325h301z" />
    <glyph glyph-name="Ncommaaccent" unicode="&#x145;" horiz-adv-x="1599" 
d="M166 1462h317l688 -1036h5v1036h258v-1462h-252l-752 1133h-4v-1133h-260v1462zM772 -270h-104v170h264v-119q0 -129 -67 -193q-66 -63 -203 -63v96q55 0 83 26q27 25 27 83z" />
    <glyph glyph-name="ncommaaccent" unicode="&#x146;" horiz-adv-x="1273" 
d="M160 1040h258v-176q40 94 126 147q87 54 201 54q177 0 280 -106q101 -104 101 -291v-668h-262v606q0 125 -53 189q-53 63 -156 63q-111 0 -172 -76t-61 -217v-565h-262v1040zM625 -270h-105v170h264v-119q0 -130 -66 -193t-204 -63v96q56 0 84 26q27 25 27 83z" />
    <glyph glyph-name="Ncaron" unicode="&#x147;" horiz-adv-x="1599" 
d="M166 1462h317l688 -1036h5v1036h258v-1462h-252l-752 1133h-4v-1133h-260v1462zM623 1878l170 -164l165 164h152l-197 -315h-243l-199 315h152z" />
    <glyph glyph-name="ncaron" unicode="&#x148;" horiz-adv-x="1273" 
d="M160 1040h258v-176q40 94 126 147q87 54 201 54q177 0 280 -106q101 -104 101 -291v-668h-262v606q0 125 -53 189q-53 63 -156 63q-111 0 -172 -76t-61 -217v-565h-262v1040zM475 1507l170 -178l166 178h152l-201 -327h-238l-200 327h151z" />
    <glyph glyph-name="Eng" unicode="&#x14a;" horiz-adv-x="1599" 
d="M1102 -377q-28 0 -64 2q-23 1 -55 8v195q10 -3 32 -5q10 -1 32 -1q70 0 99 28q30 29 30 97v73l-746 1113h-4v-1133h-260v1462h317l688 -1036h5v1036h258v-1519q0 -160 -83 -240t-249 -80z" />
    <glyph glyph-name="eng" unicode="&#x14b;" horiz-adv-x="1273" 
d="M795 -377q-31 0 -67 2q-24 1 -54 8v195q11 -3 33 -5q11 -1 30 -1q71 0 99 28t28 97v659q0 125 -53 189q-53 63 -156 63q-111 0 -172 -76t-61 -217v-565h-262v1040h258v-176q40 94 126 147q87 54 201 54q177 0 280 -106q101 -104 101 -291v-725q0 -160 -83 -240t-248 -80z
" />
    <glyph glyph-name="Omacron" unicode="&#x14c;" horiz-adv-x="1566" 
d="M784 1487q315 0 507 -209t192 -547q0 -339 -192 -547q-192 -209 -507 -209q-314 0 -506 209q-192 208 -192 547t192 547q192 209 506 209zM784 190q201 0 312 143q110 141 110 398q0 254 -110 397q-111 144 -312 144q-200 0 -311 -143t-111 -398t111 -398t311 -143z
M1116 1595h-667v177h667v-177z" />
    <glyph glyph-name="omacron" unicode="&#x14d;" horiz-adv-x="1228" 
d="M614 1065q236 0 381 -150q146 -151 146 -395q0 -246 -145 -396q-144 -149 -382 -149t-382 149q-144 148 -144 396q0 246 145 395q145 150 381 150zM614 870q-125 0 -194 -92q-70 -93 -70 -258t70 -258q69 -92 194 -92q126 0 195 92q70 93 70 258q0 163 -70 257
q-69 93 -195 93zM928 1217h-627v176h627v-176z" />
    <glyph glyph-name="Obreve" unicode="&#x14e;" horiz-adv-x="1566" 
d="M784 1487q315 0 507 -209t192 -547q0 -339 -192 -547q-192 -209 -507 -209q-314 0 -506 209q-192 208 -192 547t192 547q192 209 506 209zM784 190q201 0 312 143q110 141 110 398q0 254 -110 397q-111 144 -312 144q-200 0 -311 -143t-111 -398t111 -398t311 -143z
M784 1559q-137 0 -218 89t-81 238h166q0 -77 35 -120q35 -42 98 -42q64 0 98 42q33 40 33 120h166q0 -150 -81 -238q-81 -89 -216 -89z" />
    <glyph glyph-name="obreve" unicode="&#x14f;" horiz-adv-x="1228" 
d="M614 1065q236 0 381 -150q146 -151 146 -395q0 -246 -145 -396q-144 -149 -382 -149t-382 149q-144 148 -144 396q0 246 145 395q145 150 381 150zM614 870q-125 0 -194 -92q-70 -93 -70 -258t70 -258q69 -92 194 -92q126 0 195 92q70 93 70 258q0 163 -70 257
q-69 93 -195 93zM616 1180q-137 0 -218 89t-81 238h162q1 -78 37 -123q34 -43 100 -43q65 0 99 43q36 45 37 123h161q0 -151 -80 -238q-81 -89 -217 -89z" />
    <glyph glyph-name="Ohungarumlaut" unicode="&#x150;" horiz-adv-x="1566" 
d="M784 1487q315 0 507 -209t192 -547q0 -339 -192 -547q-192 -209 -507 -209q-314 0 -506 209q-192 208 -192 547t192 547q192 209 506 209zM784 190q201 0 312 143q110 141 110 398q0 254 -110 397q-111 144 -312 144q-200 0 -311 -143t-111 -398t111 -398t311 -143z
M1026 1565h-152l111 313h268zM662 1565h-152l111 313h266z" />
    <glyph glyph-name="ohungarumlaut" unicode="&#x151;" horiz-adv-x="1228" 
d="M614 1065q236 0 381 -150q146 -151 146 -395q0 -246 -145 -396q-144 -149 -382 -149t-382 149q-144 148 -144 396q0 246 145 395q145 150 381 150zM614 870q-125 0 -194 -92q-70 -93 -70 -258t70 -258q69 -92 194 -92q126 0 195 92q70 93 70 258q0 163 -70 257
q-69 93 -195 93zM858 1182h-151l110 325h268zM494 1182h-152l111 325h266z" />
    <glyph glyph-name="OE" unicode="&#x152;" horiz-adv-x="2291" 
d="M2171 0h-1356q-329 0 -529 201q-200 202 -200 530q0 332 200 532q199 199 529 199h1348v-215h-785v-407h695v-215h-695v-410h793v-215zM362 731q0 -247 118 -381q118 -135 335 -135h297v1032h-297q-217 0 -335 -135q-118 -134 -118 -381z" />
    <glyph glyph-name="oe" unicode="&#x153;" horiz-adv-x="1966" 
d="M1630 324h244q-34 -161 -160 -255t-309 -94q-122 0 -224 54q-98 52 -171 155q-75 -103 -175 -156t-221 -53q-238 0 -382 149q-144 148 -144 396q0 246 145 395q145 150 381 150q123 0 223 -53q99 -52 173 -160q73 106 170 159q99 54 217 54q221 0 351 -144
q130 -143 130 -378v-78h-750q11 -144 82 -220q72 -77 195 -77q85 0 142 39q56 38 83 117zM1397 874q-108 0 -177 -69t-87 -197h499q-5 124 -66 194q-63 72 -169 72zM614 870q-125 0 -194 -92q-70 -93 -70 -258t70 -258q69 -92 194 -92q124 0 193 93q70 94 70 257t-70 257
q-69 93 -193 93z" />
    <glyph glyph-name="Racute" unicode="&#x154;" horiz-adv-x="1452" 
d="M432 547v-547h-266v1462h627q259 0 401 -119q141 -119 141 -339q0 -152 -83 -261t-228 -155l367 -588h-297l-334 547h-328zM432 1247v-487h330q152 0 228 61q77 62 77 183q0 120 -77 182q-76 61 -228 61h-330zM997 1878l-241 -313h-162l108 313h295z" />
    <glyph glyph-name="racute" unicode="&#x155;" horiz-adv-x="856" 
d="M737 1059q15 0 43 -2q20 -1 35 -6v-242q-21 5 -46 6q-34 2 -54 2q-133 0 -213 -90q-80 -91 -80 -246v-481h-262v1040h258v-233q38 120 121 185q85 67 198 67zM791 1507l-238 -325h-172l108 325h302z" />
    <glyph glyph-name="Rcommaaccent" unicode="&#x156;" horiz-adv-x="1452" 
d="M432 547v-547h-266v1462h627q259 0 401 -119q141 -119 141 -339q0 -152 -83 -261t-228 -155l367 -588h-297l-334 547h-328zM432 1247v-487h330q152 0 228 61q77 62 77 183q0 120 -77 182q-76 61 -228 61h-330zM709 -270h-105v170h264v-119q0 -130 -66 -193t-204 -63v96
q56 0 84 26q27 25 27 83z" />
    <glyph glyph-name="rcommaaccent" unicode="&#x157;" horiz-adv-x="856" 
d="M737 1059q15 0 43 -2q20 -1 35 -6v-242q-21 5 -46 6q-34 2 -54 2q-133 0 -213 -90q-80 -91 -80 -246v-481h-262v1040h258v-233q38 120 121 185q85 67 198 67zM266 -270h-104v170h264v-119q0 -129 -67 -193q-66 -63 -203 -63v96q56 0 84 26q26 25 26 83z" />
    <glyph glyph-name="Rcaron" unicode="&#x158;" horiz-adv-x="1452" 
d="M432 547v-547h-266v1462h627q259 0 401 -119q141 -119 141 -339q0 -152 -83 -261t-228 -155l367 -588h-297l-334 547h-328zM432 1247v-487h330q152 0 228 61q77 62 77 183q0 120 -77 182q-76 61 -228 61h-330zM530 1878l170 -164l166 164h152l-197 -315h-243l-199 315
h151z" />
    <glyph glyph-name="rcaron" unicode="&#x159;" horiz-adv-x="856" 
d="M737 1059q15 0 43 -2q20 -1 35 -6v-242q-21 5 -46 6q-34 2 -54 2q-133 0 -213 -90q-80 -91 -80 -246v-481h-262v1040h258v-233q38 120 121 185q85 67 198 67zM324 1507l170 -178l165 178h152l-201 -327h-237l-201 327h152z" />
    <glyph glyph-name="Sacute" unicode="&#x15a;" horiz-adv-x="1366" 
d="M713 -25q-285 0 -455 122t-188 345h262q12 -128 109 -197t264 -69q137 0 224 61q85 60 85 164q0 81 -57 128q-58 48 -183 71l-268 49q-197 35 -293 134t-96 264q0 194 153 317t396 123q262 0 413 -111t172 -315h-256q-15 105 -101 164t-226 59q-129 0 -208 -61t-79 -160
q0 -80 49 -122q50 -42 184 -69l283 -55q196 -38 289 -135q94 -98 94 -264q0 -194 -160 -319q-158 -124 -407 -124zM1001 1878l-241 -313h-162l109 313h294z" />
    <glyph glyph-name="sacute" unicode="&#x15b;" horiz-adv-x="1095" 
d="M563 -25q-213 0 -343 90q-128 89 -144 250h250q7 -73 72 -115q64 -42 161 -42q87 0 142 35t55 94q0 49 -36 74q-36 26 -124 42l-184 33q-152 27 -226 101q-73 73 -73 196q0 146 118 239t304 93q198 0 314 -83q115 -82 132 -237h-240q-7 61 -63 99q-55 37 -141 37
q-83 0 -133 -33t-50 -88q0 -49 35 -75q34 -25 125 -42l203 -35q140 -24 213 -101q71 -75 71 -202q0 -147 -123 -237q-127 -93 -315 -93zM860 1507l-237 -325h-172l108 325h301z" />
    <glyph glyph-name="Scircumflex" unicode="&#x15c;" horiz-adv-x="1366" 
d="M713 -25q-285 0 -455 122t-188 345h262q12 -128 109 -197t264 -69q137 0 224 61q85 60 85 164q0 81 -57 128q-58 48 -183 71l-268 49q-197 35 -293 134t-96 264q0 194 153 317t396 123q262 0 413 -111t172 -315h-256q-15 105 -101 164t-226 59q-129 0 -208 -61t-79 -160
q0 -80 49 -122q50 -42 184 -69l283 -55q196 -38 289 -135q94 -98 94 -264q0 -194 -160 -319q-158 -124 -407 -124zM383 1563l199 315h243l197 -315h-152l-165 163l-170 -163h-152z" />
    <glyph glyph-name="scircumflex" unicode="&#x15d;" horiz-adv-x="1095" 
d="M563 -25q-213 0 -343 90q-128 89 -144 250h250q7 -73 72 -115q64 -42 161 -42q87 0 142 35t55 94q0 49 -36 74q-36 26 -124 42l-184 33q-152 27 -226 101q-73 73 -73 196q0 146 118 239t304 93q198 0 314 -83q115 -82 132 -237h-240q-7 61 -63 99q-55 37 -141 37
q-83 0 -133 -33t-50 -88q0 -49 35 -75q34 -25 125 -42l203 -35q140 -24 213 -101q71 -75 71 -202q0 -147 -123 -237q-127 -93 -315 -93zM233 1180l201 327h238l200 -327h-151l-166 178l-170 -178h-152z" />
    <glyph glyph-name="Scedilla" unicode="&#x15e;" horiz-adv-x="1366" 
d="M922 -227q0 -83 -72 -133q-73 -50 -182 -50q-44 0 -99 10q-49 9 -90 27v119q65 -26 102 -34q42 -9 83 -9q49 0 77 16q29 17 29 48q0 44 -53 58q-54 14 -115 -7l-47 45l70 117q-249 18 -394 138q-145 119 -161 324h262q12 -128 109 -197t264 -69q137 0 224 61
q85 60 85 164q0 81 -57 128q-58 48 -183 71l-268 49q-197 35 -293 134t-96 264q0 194 153 317t396 123q262 0 413 -111t172 -315h-256q-15 105 -101 164t-226 59q-129 0 -208 -61t-79 -160q0 -80 49 -122q50 -42 184 -69l283 -55q196 -38 289 -135q94 -98 94 -264
q0 -192 -154 -316q-152 -122 -395 -127l-35 -55q93 10 160 -31q66 -41 66 -116z" />
    <glyph glyph-name="scedilla" unicode="&#x15f;" horiz-adv-x="1095" 
d="M774 -227q0 -83 -72 -133q-73 -50 -182 -50q-43 0 -98 10q-50 9 -90 27v119q67 -27 101 -34q42 -9 83 -9q50 0 78 16q29 17 29 48q0 44 -54 58q-53 14 -114 -7l-47 45l71 117q-178 18 -283 105t-120 230h250q7 -73 72 -115q64 -42 161 -42q87 0 142 35t55 94q0 49 -36 74
q-36 26 -124 42l-184 33q-152 27 -226 101q-73 73 -73 196q0 146 118 239t304 93q198 0 314 -83q115 -82 132 -237h-240q-7 61 -63 99q-55 37 -141 37q-83 0 -133 -33t-50 -88q0 -49 35 -75q34 -25 125 -42l203 -35q140 -24 213 -101q71 -75 71 -202q0 -140 -116 -231
q-119 -93 -301 -99l-35 -55q93 10 160 -31q65 -40 65 -116z" />
    <glyph glyph-name="Scaron" unicode="&#x160;" horiz-adv-x="1366" 
d="M713 -25q-285 0 -455 122t-188 345h262q12 -128 109 -197t264 -69q137 0 224 61q85 60 85 164q0 81 -57 128q-58 48 -183 71l-268 49q-197 35 -293 134t-96 264q0 194 153 317t396 123q262 0 413 -111t172 -315h-256q-15 105 -101 164t-226 59q-129 0 -208 -61t-79 -160
q0 -80 49 -122q50 -42 184 -69l283 -55q196 -38 289 -135q94 -98 94 -264q0 -194 -160 -319q-158 -124 -407 -124zM535 1878l170 -164l165 164h152l-197 -315h-243l-199 315h152z" />
    <glyph glyph-name="scaron" unicode="&#x161;" horiz-adv-x="1095" 
d="M563 -25q-213 0 -343 90q-128 89 -144 250h250q7 -73 72 -115q64 -42 161 -42q87 0 142 35t55 94q0 49 -36 74q-36 26 -124 42l-184 33q-152 27 -226 101q-73 73 -73 196q0 146 118 239t304 93q198 0 314 -83q115 -82 132 -237h-240q-7 61 -63 99q-55 37 -141 37
q-83 0 -133 -33t-50 -88q0 -49 35 -75q34 -25 125 -42l203 -35q140 -24 213 -101q71 -75 71 -202q0 -147 -123 -237q-127 -93 -315 -93zM377 1507l170 -178l166 178h151l-200 -327h-238l-201 327h152z" />
    <glyph glyph-name="Tcommaaccent" unicode="&#x162;" horiz-adv-x="1476" 
d="M940 -227q0 -83 -72 -133q-73 -50 -182 -50q-43 0 -98 10q-50 9 -90 27v119q67 -27 101 -34q42 -9 83 -9q50 0 78 16t28 48q0 44 -53 58t-114 -7l-48 45l84 137h-55v1247h-524v215h1321v-215h-527v-1247h-108l-49 -80q92 10 159 -31q66 -41 66 -116z" />
    <glyph glyph-name="tcommaaccent" unicode="&#x163;" horiz-adv-x="796" 
d="M641 -227q0 -83 -72 -133q-73 -50 -182 -50q-43 0 -98 10q-49 9 -90 27v119q67 -27 101 -34q42 -9 83 -9q50 0 78 16t28 48q0 44 -53 58t-114 -7l-48 45l84 139q-90 29 -134 98q-44 70 -44 185v567h-143v188h143v260h260v-260h248v-188h-250v-526q0 -68 32 -100
q31 -31 103 -31q31 0 68 5q32 4 70 15v-201q-45 -14 -103 -23q-46 -7 -104 -7h-30q-7 0 -17 2l-41 -66q92 10 159 -31q66 -41 66 -116z" />
    <glyph glyph-name="Tcaron" unicode="&#x164;" horiz-adv-x="1476" 
d="M872 0h-270v1247h-524v215h1321v-215h-527v-1247zM569 1878l170 -164l166 164h152l-197 -315h-244l-198 315h151z" />
    <glyph glyph-name="tcaron" unicode="&#x165;" horiz-adv-x="796" 
d="M573 195q31 0 68 5q32 4 70 15v-201q-45 -14 -103 -23q-46 -7 -104 -7q-166 0 -245 73t-79 228v567h-143v188h143v260h260v-260h248v-188h-250v-526q0 -68 32 -100q31 -31 103 -31zM856 1569l-197 -416h-127l50 416h274z" />
    <glyph glyph-name="Tbar" unicode="&#x166;" horiz-adv-x="1476" 
d="M1104 846v-207h-232v-639h-270v639h-231v207h231v401h-524v215h1321v-215h-527v-401h232z" />
    <glyph glyph-name="tbar" unicode="&#x167;" horiz-adv-x="862" 
d="M752 215v-201q-45 -14 -103 -23q-46 -7 -104 -7q-166 0 -245 73t-79 228v221h-145v172h145v186h-145v176h145v260h260v-260h248v-176h-250v-186h246v-172h-246v-180q0 -68 32 -100q31 -31 103 -31q31 0 68 5q32 4 70 15z" />
    <glyph glyph-name="Utilde" unicode="&#x168;" horiz-adv-x="1544" 
d="M1397 1462v-872q0 -296 -162 -455q-163 -160 -463 -160q-298 0 -462 161q-163 160 -163 458v868h273v-870q0 -195 89 -298q88 -101 263 -101q174 0 264 102t90 297v870h271zM754 1649q-50 35 -72 45q-21 10 -41 10q-37 0 -58 -34q-22 -35 -26 -97h-145q0 145 53 231
t145 86q38 0 75 -15q35 -14 106 -63q52 -36 71 -45q21 -10 41 -10q38 0 59 34q20 34 25 97h146q0 -144 -54 -232q-52 -85 -145 -85q-38 0 -75 15q-32 13 -105 63z" />
    <glyph glyph-name="utilde" unicode="&#x169;" horiz-adv-x="1261" 
d="M1102 1040v-1040h-258v174q-39 -92 -125 -145q-88 -54 -199 -54q-175 0 -273 104q-97 103 -97 292v669h264v-612q0 -123 50 -187q50 -63 150 -63q106 0 165 77t59 220v565h264zM610 1255q-51 39 -71 48q-21 10 -41 10q-38 0 -59 -35q-20 -34 -25 -100h-146q0 143 54 231
q53 86 145 86q39 0 75 -16q33 -15 105 -64q46 -35 72 -47q21 -10 41 -10q37 0 58 35q22 35 26 100h145q0 -146 -53 -232q-52 -85 -145 -85q-39 0 -75 16q-40 18 -106 63z" />
    <glyph glyph-name="Umacron" unicode="&#x16a;" horiz-adv-x="1544" 
d="M1397 1462v-872q0 -296 -162 -455q-163 -160 -463 -160q-298 0 -462 161q-163 160 -163 458v868h273v-870q0 -195 89 -298q88 -101 263 -101q174 0 264 102t90 297v870h271zM1106 1595h-668v177h668v-177z" />
    <glyph glyph-name="umacron" unicode="&#x16b;" horiz-adv-x="1261" 
d="M1102 1040v-1040h-258v174q-39 -92 -125 -145q-88 -54 -199 -54q-175 0 -273 104q-97 103 -97 292v669h264v-612q0 -123 50 -187q50 -63 150 -63q106 0 165 77t59 220v565h264zM946 1217h-627v176h627v-176z" />
    <glyph glyph-name="Ubreve" unicode="&#x16c;" horiz-adv-x="1544" 
d="M1397 1462v-872q0 -296 -162 -455q-163 -160 -463 -160q-298 0 -462 161q-163 160 -163 458v868h273v-870q0 -195 89 -298q88 -101 263 -101q174 0 264 102t90 297v870h271zM774 1559q-137 0 -218 89t-81 238h166q0 -77 35 -120q34 -42 98 -42q62 0 97 42q34 41 34 120
h166q0 -150 -81 -238q-81 -89 -216 -89z" />
    <glyph glyph-name="ubreve" unicode="&#x16d;" horiz-adv-x="1261" 
d="M1102 1040v-1040h-258v174q-39 -92 -125 -145q-88 -54 -199 -54q-175 0 -273 104q-97 103 -97 292v669h264v-612q0 -123 50 -187q50 -63 150 -63q106 0 165 77t59 220v565h264zM635 1180q-137 0 -218 89t-81 238h162q1 -78 37 -123q34 -43 100 -43q64 0 98 43
q36 45 37 123h162q0 -149 -81 -238t-216 -89z" />
    <glyph glyph-name="Uring" unicode="&#x16e;" horiz-adv-x="1544" 
d="M1397 1462v-872q0 -296 -162 -455q-163 -160 -463 -160q-298 0 -462 161q-163 160 -163 458v868h273v-870q0 -195 89 -298q88 -101 263 -101q174 0 264 102t90 297v870h271zM1036 1737q0 -108 -77 -187q-76 -77 -185 -77t-186 77q-78 78 -78 187q0 108 78 186t186 78
t185 -78q77 -79 77 -186zM905 1737q0 53 -39 92t-92 39q-55 0 -94 -39t-39 -92q0 -56 39 -95q38 -38 94 -38q53 0 92 40t39 93z" />
    <glyph glyph-name="uring" unicode="&#x16f;" horiz-adv-x="1261" 
d="M1102 1040v-1040h-258v174q-39 -92 -125 -145q-88 -54 -199 -54q-175 0 -273 104q-97 103 -97 292v669h264v-612q0 -123 50 -187q50 -63 150 -63q106 0 165 77t59 220v565h264zM631 1159q-94 0 -161 67t-67 158q0 94 67 161t161 67q93 0 160 -67q65 -65 65 -161
q0 -92 -66 -158q-67 -67 -159 -67zM631 1278q43 0 75 32q31 31 31 74q0 46 -30 77q-30 32 -76 32q-45 0 -77 -32t-32 -77q0 -42 32 -74t77 -32z" />
    <glyph glyph-name="Uhungarumlaut" unicode="&#x170;" horiz-adv-x="1544" 
d="M1397 1462v-872q0 -296 -162 -455q-163 -160 -463 -160q-298 0 -462 161q-163 160 -163 458v868h273v-870q0 -195 89 -298q88 -101 263 -101q174 0 264 102t90 297v870h271zM999 1565h-151l110 313h269zM635 1565h-152l111 313h266z" />
    <glyph glyph-name="uhungarumlaut" unicode="&#x171;" horiz-adv-x="1261" 
d="M1102 1040v-1040h-258v174q-39 -92 -125 -145q-88 -54 -199 -54q-175 0 -273 104q-97 103 -97 292v669h264v-612q0 -123 50 -187q50 -63 150 -63q106 0 165 77t59 220v565h264zM854 1182h-152l111 325h268zM489 1182h-151l111 325h266z" />
    <glyph glyph-name="Uogonek" unicode="&#x172;" horiz-adv-x="1544" 
d="M1124 -233v-138q-24 -8 -58 -14q-24 -4 -67 -4q-86 0 -140 45t-54 123q0 49 21 98q20 47 69 107q-36 -6 -56 -7q-40 -2 -67 -2q-298 0 -462 161q-163 160 -163 458v868h273v-870q0 -195 89 -298q88 -101 263 -101q174 0 264 102t90 297v870h271v-872q0 -204 -78 -344
q-79 -140 -229 -209q-59 -46 -90 -103q-31 -56 -31 -110q0 -33 19 -51q21 -19 54 -19q23 0 41 3q9 2 41 10z" />
    <glyph glyph-name="uogonek" unicode="&#x173;" horiz-adv-x="1261" 
d="M1040 -233v-138q-24 -8 -58 -14q-24 -4 -67 -4q-86 0 -140 45t-54 123q0 51 27 104t96 135v156q-39 -92 -125 -145q-88 -54 -199 -54q-175 0 -273 104q-97 103 -97 292v669h264v-612q0 -123 50 -187q50 -63 150 -63q106 0 165 77t59 220v565h264v-1040h-121
q-65 -85 -81 -116q-17 -33 -17 -62q0 -33 20 -50q21 -18 55 -18q23 0 41 3q9 2 41 10z" />
    <glyph glyph-name="Wcircumflex" unicode="&#x174;" horiz-adv-x="2050" 
d="M1612 0h-299l-287 1128h-4l-287 -1128h-297l-403 1462h278l293 -1134h4l285 1134h274l285 -1134h4l291 1134h266zM707 1563l198 315h244l197 -315h-152l-166 163l-170 -163h-151z" />
    <glyph glyph-name="wcircumflex" unicode="&#x175;" horiz-adv-x="1665" 
d="M715 1040h243l199 -772h4l211 772h252l-317 -1040h-267l-204 752h-7l-202 -752h-269l-317 1040h260l211 -772h4zM514 1180l201 327h237l201 -327h-152l-165 178l-170 -178h-152z" />
    <glyph glyph-name="Ycircumflex" unicode="&#x176;" horiz-adv-x="1445" 
d="M858 600v-600h-272v600l-566 862h304l405 -624h4l395 624h297zM403 1563l199 315h244l196 -315h-151l-166 163l-170 -163h-152z" />
    <glyph glyph-name="ycircumflex" unicode="&#x177;" horiz-adv-x="1175" 
d="M240 -178q83 0 124 37q42 37 82 143l-405 1038h266l289 -784h4l274 784h261l-406 -1058q-74 -196 -174 -278q-102 -84 -264 -85q-27 0 -61 3q-38 3 -60 7v199q11 -3 31 -5q10 -1 39 -1zM289 1180l200 327h238l201 -327h-152l-166 178l-170 -178h-151z" />
    <glyph glyph-name="Ydieresis" unicode="&#x178;" horiz-adv-x="1445" 
d="M858 600v-600h-272v600l-566 862h304l405 -624h4l395 624h297zM1049 1587h-242v256h242v-256zM639 1587h-242v256h242v-256z" />
    <glyph glyph-name="Zacute" unicode="&#x179;" horiz-adv-x="1388" 
d="M1278 1462v-205l-846 -1042h858v-215h-1194v190l850 1057h-823v215h1155zM991 1878l-241 -313h-162l108 313h295z" />
    <glyph glyph-name="zacute" unicode="&#x17a;" horiz-adv-x="1093" 
d="M977 1040v-182l-561 -665h581v-193h-901v170l561 678h-542v192h862zM854 1507l-238 -325h-172l109 325h301z" />
    <glyph glyph-name="Zdotaccent" unicode="&#x17b;" horiz-adv-x="1388" 
d="M1278 1462v-205l-846 -1042h858v-215h-1194v190l850 1057h-823v215h1155zM831 1587h-278v256h278v-256z" />
    <glyph glyph-name="zdotaccent" unicode="&#x17c;" horiz-adv-x="1093" 
d="M977 1040v-182l-561 -665h581v-193h-901v170l561 678h-542v192h862zM692 1217h-278v256h278v-256z" />
    <glyph glyph-name="Zcaron" unicode="&#x17d;" horiz-adv-x="1388" 
d="M1278 1462v-205l-846 -1042h858v-215h-1194v190l850 1057h-823v215h1155zM535 1878l170 -164l165 164h152l-197 -315h-243l-199 315h152z" />
    <glyph glyph-name="zcaron" unicode="&#x17e;" horiz-adv-x="1093" 
d="M977 1040v-182l-561 -665h581v-193h-901v170l561 678h-542v192h862zM385 1507l170 -178l166 178h151l-200 -327h-238l-201 327h152z" />
    <glyph glyph-name="florin" unicode="&#x192;" horiz-adv-x="1044" 
d="M825 827v-198h-252l-149 -854h-254l154 854h-166v198h200l62 344q30 173 135 267q104 94 264 94q40 0 76 -7q37 -7 74 -20v-235q-35 13 -59 17q-28 5 -62 5q-79 0 -126 -47t-65 -145l-47 -273h215z" />
    <glyph glyph-name="AEacute" unicode="&#x1fc;" horiz-adv-x="2289" 
d="M2169 0h-1059v369h-580l-235 -369h-275l930 1462h1211v-215h-785v-407h695v-215h-695v-410h793v-215zM1110 582v698l-444 -698h444zM1855 1878l-241 -313h-162l109 313h294z" />
    <glyph glyph-name="aeacute" unicode="&#x1fd;" horiz-adv-x="1843" 
d="M1507 324h242q-33 -162 -159 -255q-127 -94 -310 -94q-124 0 -230 50q-107 51 -178 139q-75 -93 -174 -139q-104 -48 -227 -48q-176 0 -282 83q-105 82 -105 227q0 155 124 237t359 82h203v76q0 92 -51 141q-50 49 -146 49q-85 0 -135 -43q-51 -44 -57 -118h-252
q16 165 135 260q118 94 309 94q116 0 203 -37q89 -38 144 -106q68 68 159 106q89 37 193 37q223 0 353 -145t130 -379v-78h-749q10 -144 80 -219q70 -76 194 -76q85 0 142 39q56 39 85 117zM1272 874q-108 0 -176 -69t-86 -199h499q-5 126 -66 196q-63 72 -171 72zM342 307
q0 -66 47 -107q46 -40 125 -40q115 0 185 64q71 65 71 177v62h-211q-105 0 -161 -40t-56 -116zM1225 1507l-238 -325h-172l109 325h301z" />
    <glyph glyph-name="Oslashacute" unicode="&#x1fe;" horiz-adv-x="1566" 
d="M1483 731q0 -339 -192 -547q-192 -209 -507 -209q-114 0 -219 31q-102 30 -186 90l-127 -157l-123 94l135 168q-86 101 -132 236t-46 294q0 339 192 547q192 209 506 209q117 0 224 -32q104 -31 190 -93l119 147l121 -94l-127 -160q85 -101 128 -234q44 -135 44 -290z
M784 1272q-200 0 -311 -143t-111 -398q0 -93 17 -178q17 -84 49 -150l623 775q-49 45 -118 70q-66 24 -149 24zM784 190q201 0 312 143q110 141 110 398q0 92 -15 173q-15 79 -46 145l-621 -770q51 -43 117 -66q67 -23 143 -23zM1100 1878l-242 -313h-162l109 313h295z" />
    <glyph glyph-name="oslashacute" unicode="&#x1ff;" horiz-adv-x="1228" 
d="M1141 520q0 -246 -145 -396q-144 -149 -382 -149q-82 0 -162 22q-78 21 -141 62l-110 -129l-101 93l111 127q-63 74 -92 165q-31 98 -31 205q0 246 145 395q145 150 381 150q88 0 169 -23t143 -67l102 119l100 -93l-102 -118q58 -73 86 -164q29 -93 29 -199zM614 879
q-128 0 -201 -96t-73 -263q0 -51 8 -101q7 -43 23 -85l415 481q-36 32 -77 47q-45 17 -95 17zM614 162q130 0 202 95q73 96 73 263q0 54 -7 95q-7 43 -20 79l-413 -477q33 -25 76 -41q39 -14 89 -14zM928 1507l-238 -325h-172l109 325h301z" />
    <glyph glyph-name="Scommaaccent" unicode="&#x218;" horiz-adv-x="1366" 
d="M713 -25q-285 0 -455 122t-188 345h262q12 -128 109 -197t264 -69q137 0 224 61q85 60 85 164q0 81 -57 128q-58 48 -183 71l-268 49q-197 35 -293 134t-96 264q0 194 153 317t396 123q262 0 413 -111t172 -315h-256q-15 105 -101 164t-226 59q-129 0 -208 -61t-79 -160
q0 -80 49 -122q50 -42 184 -69l283 -55q196 -38 289 -135q94 -98 94 -264q0 -194 -160 -319q-158 -124 -407 -124zM668 -270h-105v170h264v-119q0 -130 -66 -193t-204 -63v96q56 0 84 26q27 25 27 83z" />
    <glyph glyph-name="scommaaccent" unicode="&#x219;" horiz-adv-x="1095" 
d="M563 -25q-213 0 -343 90q-128 89 -144 250h250q7 -73 72 -115q64 -42 161 -42q87 0 142 35t55 94q0 49 -36 74q-36 26 -124 42l-184 33q-152 27 -226 101q-73 73 -73 196q0 146 118 239t304 93q198 0 314 -83q115 -82 132 -237h-240q-7 61 -63 99q-55 37 -141 37
q-83 0 -133 -33t-50 -88q0 -49 35 -75q34 -25 125 -42l203 -35q140 -24 213 -101q71 -75 71 -202q0 -147 -123 -237q-127 -93 -315 -93zM545 -270h-105v170h265v-119q0 -129 -67 -193q-66 -63 -204 -63v96q56 0 84 26q27 25 27 83z" />
    <glyph glyph-name="uni021A" unicode="&#x21a;" horiz-adv-x="1476" 
d="M872 0h-270v1247h-524v215h1321v-215h-527v-1247zM717 -270h-105v170h265v-119q0 -129 -67 -193q-66 -63 -204 -63v96q56 0 84 26q27 25 27 83z" />
    <glyph glyph-name="uni021B" unicode="&#x21b;" horiz-adv-x="796" 
d="M573 195q31 0 68 5q32 4 70 15v-201q-45 -14 -103 -23q-46 -7 -104 -7q-166 0 -245 73t-79 228v567h-143v188h143v260h260v-260h248v-188h-250v-526q0 -68 32 -100q31 -31 103 -31zM418 -270h-105v170h265v-119q0 -129 -67 -193q-66 -63 -204 -63v96q56 0 84 26
q27 25 27 83z" />
    <glyph glyph-name="uni0237" unicode="&#x237;" horiz-adv-x="581" 
d="M92 -377q-29 0 -65 2q-24 1 -56 8v195q10 -3 32 -5q10 -1 32 -1q70 0 97 28q28 30 28 97v1093h262v-1097q0 -161 -82 -240q-83 -80 -248 -80z" />
    <glyph glyph-name="circumflex" unicode="&#x2c6;" 
d="M258 1180l201 327h237l201 -327h-152l-165 178l-170 -178h-152z" />
    <glyph glyph-name="caron" unicode="&#x2c7;" 
d="M410 1507l170 -178l165 178h152l-201 -327h-237l-201 327h152z" />
    <glyph glyph-name="breve" unicode="&#x2d8;" 
d="M569 1180q-137 0 -218 89t-81 238h162q1 -78 37 -123q34 -43 100 -43q65 0 99 43q36 45 37 123h161q0 -149 -81 -238t-216 -89z" />
    <glyph glyph-name="dotaccent" unicode="&#x2d9;" 
d="M717 1217h-279v256h279v-256z" />
    <glyph glyph-name="ring" unicode="&#x2da;" 
d="M580 1159q-94 0 -161 67t-67 158q0 94 67 161t161 67q92 0 159 -67q66 -66 66 -161q0 -91 -67 -158t-158 -67zM580 1278q42 0 74 32t32 74q0 44 -31 77q-30 32 -75 32t-77 -32t-32 -77q0 -42 32 -74t77 -32z" />
    <glyph glyph-name="ogonek" unicode="&#x2db;" 
d="M647 -389q-86 0 -140 45t-54 123q0 51 27 106q25 51 114 156h149q-88 -115 -109 -153q-20 -37 -20 -66q0 -32 21 -50t55 -18q23 0 41 3q9 2 41 10v-138q-24 -8 -58 -14q-24 -4 -67 -4z" />
    <glyph glyph-name="tilde" unicode="&#x2dc;" 
d="M569 1255q-51 39 -71 48q-21 10 -41 10q-38 0 -59 -35q-20 -34 -25 -100h-146q0 143 54 231q53 86 145 86q39 0 75 -16q33 -15 105 -64q46 -35 72 -47q21 -10 41 -10q37 0 58 35q22 35 26 100h145q0 -146 -53 -232q-52 -85 -145 -85q-39 0 -75 16q-40 18 -106 63z" />
    <glyph glyph-name="hungarumlaut" unicode="&#x2dd;" 
d="M721 1182h-152l111 325h268zM356 1182h-151l110 325h267z" />
    <glyph glyph-name="Wgrave" unicode="&#x1e80;" horiz-adv-x="2050" 
d="M1612 0h-299l-287 1128h-4l-287 -1128h-297l-403 1462h278l293 -1134h4l285 1134h274l285 -1134h4l291 1134h266zM1016 1878l108 -313h-161l-242 313h295z" />
    <glyph glyph-name="wgrave" unicode="&#x1e81;" horiz-adv-x="1665" 
d="M715 1040h243l199 -772h4l211 772h252l-317 -1040h-267l-204 752h-7l-202 -752h-269l-317 1040h260l211 -772h4zM827 1507l109 -325h-172l-238 325h301z" />
    <glyph glyph-name="Wacute" unicode="&#x1e82;" horiz-adv-x="2050" 
d="M1612 0h-299l-287 1128h-4l-287 -1128h-297l-403 1462h278l293 -1134h4l285 1134h274l285 -1134h4l291 1134h266zM1364 1878l-242 -313h-161l108 313h295z" />
    <glyph glyph-name="wacute" unicode="&#x1e83;" horiz-adv-x="1665" 
d="M715 1040h243l199 -772h4l211 772h252l-317 -1040h-267l-204 752h-7l-202 -752h-269l-317 1040h260l211 -772h4zM1149 1507l-238 -325h-172l109 325h301z" />
    <glyph glyph-name="Wdieresis" unicode="&#x1e84;" horiz-adv-x="2050" 
d="M1612 0h-299l-287 1128h-4l-287 -1128h-297l-403 1462h278l293 -1134h4l285 1134h274l285 -1134h4l291 1134h266zM1352 1587h-242v256h242v-256zM942 1587h-242v256h242v-256z" />
    <glyph glyph-name="wdieresis" unicode="&#x1e85;" horiz-adv-x="1665" 
d="M715 1040h243l199 -772h4l211 772h252l-317 -1040h-267l-204 752h-7l-202 -752h-269l-317 1040h260l211 -772h4zM1159 1217h-241v256h241v-256zM750 1217h-242v256h242v-256z" />
    <glyph glyph-name="Ygrave" unicode="&#x1ef2;" horiz-adv-x="1445" 
d="M858 600v-600h-272v600l-566 862h304l405 -624h4l395 624h297zM719 1878l108 -313h-161l-242 313h295z" />
    <glyph glyph-name="ygrave" unicode="&#x1ef3;" horiz-adv-x="1175" 
d="M240 -178q83 0 124 37q42 37 82 143l-405 1038h266l289 -784h4l274 784h261l-406 -1058q-74 -196 -174 -278q-102 -84 -264 -85q-27 0 -61 3q-38 3 -60 7v199q11 -3 31 -5q10 -1 39 -1zM596 1507l109 -325h-173l-237 325h301z" />
    <glyph glyph-name="endash" unicode="&#x2013;" horiz-adv-x="1386" 
d="M1208 483h-1030v195h1030v-195z" />
    <glyph glyph-name="emdash" unicode="&#x2014;" horiz-adv-x="2054" 
d="M1876 483h-1698v195h1698v-195z" />
    <glyph glyph-name="quoteleft" unicode="&#x2018;" horiz-adv-x="673" 
d="M344 1176h143v-269h-305v291q0 151 92 237q91 85 256 85v-142q-97 0 -141 -43q-45 -43 -45 -135v-24z" />
    <glyph glyph-name="quoteright" unicode="&#x2019;" horiz-adv-x="673" 
d="M330 1239h-144v268h306v-290q0 -150 -93 -237q-91 -85 -256 -85v141q98 0 142 43q45 43 45 135v25z" />
    <glyph glyph-name="quotesinglbase" unicode="&#x201a;" horiz-adv-x="673" 
d="M330 49h-144v268h306v-290q0 -150 -93 -237q-91 -85 -256 -85v141q98 0 142 43q45 43 45 136v24z" />
    <glyph glyph-name="quotedblleft" unicode="&#x201c;" 
d="M827 1176h144v-269h-305v291q0 151 92 237q91 85 256 85v-142q-98 0 -142 -43q-45 -43 -45 -135v-24zM344 1176h143v-269h-305v291q0 151 92 237q91 85 256 85v-142q-97 0 -141 -43q-45 -43 -45 -135v-24z" />
    <glyph glyph-name="quotedblright" unicode="&#x201d;" 
d="M330 1239h-144v268h306v-290q0 -150 -93 -237q-91 -85 -256 -85v141q98 0 142 43q45 43 45 135v25zM811 1239h-143v268h305v-290q0 -151 -92 -237q-91 -85 -256 -85v141q97 0 141 43q45 43 45 135v25z" />
    <glyph glyph-name="quotedblbase" unicode="&#x201e;" 
d="M330 49h-144v268h306v-290q0 -150 -93 -237q-91 -85 -256 -85v141q98 0 142 43q45 43 45 136v24zM811 49h-143v268h305v-290q0 -151 -92 -237q-91 -85 -256 -85v141q97 0 141 43q45 44 45 136v24z" />
    <glyph glyph-name="dagger" unicode="&#x2020;" horiz-adv-x="792" 
d="M721 1262v-152h-246v-473h-158v473h-243v152h243v225h158v-225h246z" />
    <glyph glyph-name="daggerdbl" unicode="&#x2021;" horiz-adv-x="792" 
d="M721 977v-146h-246v-194h-158v194h-243v146h243v170h-243v147h243v193h158v-193h246v-147h-246v-170h246z" />
    <glyph glyph-name="bullet" unicode="&#x2022;" horiz-adv-x="987" 
d="M496 307q-131 0 -225 92q-93 91 -93 224q0 127 93 219q94 92 225 92q130 0 221 -91q92 -92 92 -220q0 -133 -91 -224q-92 -92 -222 -92z" />
    <glyph glyph-name="ellipsis" unicode="&#x2026;" horiz-adv-x="1642" 
d="M1460 0h-305v305h305v-305zM975 0h-305v305h305v-305zM487 0h-305v305h305v-305z" />
    <glyph glyph-name="guilsinglleft" unicode="&#x2039;" horiz-adv-x="692" 
d="M358 508l222 -418h-185l-282 418l282 418h185z" />
    <glyph glyph-name="guilsinglright" unicode="&#x203a;" horiz-adv-x="692" 
d="M113 922h184l283 -418l-283 -418h-184l221 418z" />
    <glyph glyph-name="fraction" unicode="&#x2044;" horiz-adv-x="376" 
d="M803 1489l-1055 -1514h-176l1057 1514h174z" />
    <glyph glyph-name="uni2070" unicode="&#x2070;" horiz-adv-x="876" 
d="M795 1063q0 -185 -99 -300q-99 -116 -258 -116t-258 116q-98 114 -98 300q0 188 98 302q99 116 258 116t258 -116q99 -115 99 -302zM270 1063q0 -134 43 -204q44 -71 125 -71q82 0 126 71t44 204q0 135 -44 206q-43 70 -126 70q-82 0 -125 -71t-43 -205z" />
    <glyph glyph-name="uni2074" unicode="&#x2074;" horiz-adv-x="856" 
d="M442 1462h193v-497h158v-127h-158v-176h-170v176h-399v129zM465 965v329l-244 -329h244z" />
    <glyph glyph-name="uni2075" unicode="&#x2075;" horiz-adv-x="788" 
d="M530 926q0 66 -35 104q-36 39 -98 39q-41 0 -72 -16q-33 -17 -51 -47h-168l46 456h507v-143h-376l-19 -182q27 29 72 45q44 16 98 16q122 0 199 -75q76 -75 76 -197t-86 -202q-85 -79 -224 -79q-140 0 -229 71q-88 70 -98 191h188q5 -58 42 -92q38 -35 95 -35q62 0 98 40
q35 39 35 106z" />
    <glyph glyph-name="uni2076" unicode="&#x2076;" horiz-adv-x="802" 
d="M422 1341q-76 0 -123 -69q-47 -70 -47 -178q28 46 79 75q48 27 111 27q123 0 202 -76t79 -192q0 -123 -85 -202t-222 -79q-151 0 -243 110q-91 109 -91 292q0 191 95 312q95 120 249 120q114 0 194 -65q78 -64 95 -169h-168q-12 46 -43 71q-29 23 -82 23zM272 924
q0 -64 40 -104t104 -40q61 0 100 41t39 103q0 64 -39 104q-39 41 -100 41q-63 0 -104 -41q-40 -40 -40 -104z" />
    <glyph glyph-name="uni2077" unicode="&#x2077;" horiz-adv-x="739" 
d="M487 1321h-419v141h600v-143q-131 -160 -184 -306q-55 -150 -56 -351h-190q1 172 62 335q60 163 187 324z" />
    <glyph glyph-name="uni2078" unicode="&#x2078;" horiz-adv-x="813" 
d="M733 883q0 -109 -89 -172q-90 -64 -238 -64t-238 64q-88 63 -88 172q0 66 46 119q47 54 107 69q-54 23 -88 73q-32 47 -32 105q0 105 82 168q84 64 211 64q129 0 211 -64q81 -63 81 -168q0 -58 -31 -105q-32 -49 -85 -73q61 -15 106 -69t45 -119zM537 1243q0 51 -35 80
t-96 29q-60 0 -95 -29t-35 -80t35 -80q34 -28 95 -28q62 0 96 28q35 29 35 80zM561 893q0 54 -41 84q-42 31 -114 31q-70 0 -112 -31q-40 -30 -40 -84t40 -84q42 -31 112 -31q72 0 114 31q41 30 41 84z" />
    <glyph glyph-name="uni2079" unicode="&#x2079;" horiz-adv-x="802" 
d="M383 786q75 0 124 70q48 69 48 178q-33 -51 -83 -78q-48 -26 -112 -26q-120 0 -199 78t-79 194q0 120 86 200q85 79 221 79q150 0 242 -110t92 -292q0 -192 -96 -312t-250 -120q-114 0 -193 64q-77 63 -94 168h168q12 -47 43 -70t82 -23zM532 1204q0 63 -39 102
q-40 40 -104 40q-61 0 -100 -39t-39 -103t39 -105q39 -40 100 -40q64 0 104 40q39 39 39 105z" />
    <glyph glyph-name="uni2080" unicode="&#x2080;" horiz-adv-x="876" 
d="M795 115q0 -185 -99 -300q-99 -116 -258 -116t-258 116q-98 114 -98 300q0 188 98 302q99 115 258 115t258 -115q99 -116 99 -302zM270 115q0 -134 43 -204q44 -71 125 -71q82 0 126 71t44 204q0 135 -44 206q-43 70 -126 70q-82 0 -125 -72q-43 -71 -43 -204z" />
    <glyph glyph-name="uni2081" unicode="&#x2081;" horiz-adv-x="708" 
d="M457 -160h194v-127h-567v127h199v439h-197v118q122 0 173 23t69 96h129v-676z" />
    <glyph glyph-name="uni2082" unicode="&#x2082;" horiz-adv-x="759" 
d="M391 530q127 0 209 -69t82 -178q0 -80 -47 -141q-45 -59 -201 -144q-81 -43 -122 -79q-40 -36 -42 -66h420v-140h-616v66q0 91 59 168t197 157q116 68 147 104t31 77q0 48 -32 77t-87 29q-57 0 -94 -39q-38 -39 -39 -98h-176q7 124 92 201q82 75 219 75z" />
    <glyph glyph-name="uni2083" unicode="&#x2083;" horiz-adv-x="776" 
d="M539 115q72 -12 117 -63q44 -50 44 -122q0 -103 -85 -167t-224 -64q-137 0 -227 70q-87 68 -98 186h174q5 -53 46 -86q42 -33 105 -33t101 30q36 29 36 79q0 48 -34 75t-103 27h-80v133h76q59 0 92 27t33 78q0 47 -33 77q-34 31 -86 31q-57 0 -94 -34t-41 -89h-168
q6 117 89 189q81 71 216 71q129 0 207 -66t78 -171q0 -67 -39 -117q-39 -49 -102 -61z" />
    <glyph glyph-name="uni2084" unicode="&#x2084;" horiz-adv-x="856" 
d="M442 514h193v-498h158v-127h-158v-176h-170v176h-399v129zM465 16v330l-244 -330h244z" />
    <glyph glyph-name="uni2085" unicode="&#x2085;" horiz-adv-x="788" 
d="M530 -20q0 66 -35 104q-36 39 -98 39q-40 0 -72 -17q-33 -17 -51 -47h-168l46 457h507v-143h-376l-19 -183q28 30 72 46t98 16q122 0 199 -75q76 -75 76 -197t-86 -202q-85 -79 -224 -79q-140 0 -229 71q-88 70 -98 191h188q5 -58 42 -92q38 -35 95 -35q62 0 98 40
q35 39 35 106z" />
    <glyph glyph-name="uni2086" unicode="&#x2086;" horiz-adv-x="802" 
d="M422 393q-76 0 -123 -69q-47 -70 -47 -179q29 48 79 76q48 27 111 27q123 0 202 -76t79 -192q0 -123 -85 -202t-222 -79q-151 0 -243 110q-91 109 -91 291q0 192 95 313q94 119 249 119q115 0 194 -64q78 -64 95 -169h-168q-12 46 -43 71q-29 23 -82 23zM272 -25
q0 -63 40 -103t104 -40q61 0 100 41t39 102q0 65 -39 105q-39 41 -100 41q-63 0 -104 -41q-40 -40 -40 -105z" />
    <glyph glyph-name="uni2087" unicode="&#x2087;" horiz-adv-x="739" 
d="M487 373h-419v141h600v-143q-131 -160 -184 -306q-55 -150 -56 -352h-190q1 173 62 336q60 163 187 324z" />
    <glyph glyph-name="uni2088" unicode="&#x2088;" horiz-adv-x="813" 
d="M733 -66q0 -109 -89 -172q-88 -63 -238 -63t-238 63t-88 172q0 67 46 120q47 54 107 69q-54 23 -88 73q-32 47 -32 105q0 105 82 168t211 63q130 0 211 -63t81 -168q0 -58 -31 -105q-32 -49 -85 -73q61 -15 106 -69t45 -120zM537 295q0 51 -35 80q-34 28 -96 28
q-61 0 -95 -28q-35 -29 -35 -80t35 -80t95 -29q61 0 96 29t35 80zM561 -55q0 54 -41 84q-40 30 -114 30q-72 0 -112 -30t-40 -84t40 -84q42 -31 112 -31q72 0 114 31q41 30 41 84z" />
    <glyph glyph-name="uni2089" unicode="&#x2089;" horiz-adv-x="802" 
d="M383 -162q75 0 124 70q48 69 48 178q-33 -51 -83 -78q-48 -26 -112 -26q-121 0 -199 77q-79 78 -79 195q0 120 86 200q84 78 221 78q151 0 242 -109q92 -110 92 -292q0 -192 -96 -312t-250 -120q-115 0 -193 63q-77 63 -94 168h168q12 -46 43 -69t82 -23zM532 256
q0 62 -39 101q-40 40 -104 40q-61 0 -100 -39t-39 -102q0 -64 39 -105q39 -40 100 -40q64 0 104 40q39 39 39 105z" />
    <glyph glyph-name="Euro" unicode="&#x20ac;" horiz-adv-x="1462" 
d="M1137 459h245q-39 -231 -179 -357q-140 -127 -361 -127q-225 0 -385 142q-161 143 -213 387h-158v158h135q-2 16 -2 26v45v43q0 11 2 27h-135v158h156q55 244 215 386q158 140 385 140q220 0 361 -126q140 -125 179 -357h-245q-22 131 -97 200q-74 68 -196 68
q-127 0 -216 -80q-88 -80 -126 -231h418l-23 -158h-418q-2 -16 -2 -27v-43v-45q0 -10 2 -26h391l-22 -158h-346q38 -152 126 -233t216 -81q122 0 195 68q74 70 98 201z" />
    <glyph glyph-name="trademark" unicode="&#x2122;" horiz-adv-x="1812" 
d="M483 1317v-518h-168v518h-223v145h619v-145h-228zM1401 1298l-146 -499h-120l-148 499h-4v-499h-154v663h250l121 -452h6l131 452h232v-663h-164v499h-4z" />
    <glyph glyph-name="uni2153" unicode="&#x2153;" horiz-adv-x="1882" 
d="M1554 1489l-1054 -1514h-176l1056 1514h174zM489 788h195v-126h-567v126h198v439h-196v119q125 0 173 22q50 23 68 96h129v-676zM1620 401q74 -12 118 -62t44 -122q0 -103 -85 -167t-224 -64t-228 69q-87 68 -98 187h174q5 -53 46 -86q42 -33 106 -33q63 0 100 30t37 78
q0 49 -35 76t-102 27h-80v133h75q60 0 93 27q32 26 32 77q0 49 -32 78q-34 31 -86 31q-58 0 -95 -34t-41 -89h-168q6 115 90 188q83 72 216 72q128 0 206 -66t78 -171q0 -68 -39 -117q-39 -50 -102 -62z" />
    <glyph glyph-name="uni2154" unicode="&#x2154;" horiz-adv-x="1931" 
d="M1604 1489l-1055 -1514h-176l1057 1514h174zM1669 401q74 -12 118 -62t44 -122q0 -103 -85 -167t-224 -64q-140 0 -228 69q-87 68 -98 187h174q5 -53 46 -86q42 -33 106 -33q62 0 100 30q37 30 37 78q0 49 -35 76q-34 27 -102 27h-80v133h76q59 0 92 27q32 26 32 77
q0 49 -32 78q-34 31 -86 31q-57 0 -94 -34t-41 -89h-168q6 115 89 188q82 72 216 72q129 0 207 -66q77 -65 77 -171q0 -69 -38 -117q-39 -50 -103 -62zM424 1479q125 0 209 -70q82 -69 82 -178q0 -79 -47 -140q-47 -60 -201 -145q-81 -43 -122 -79t-42 -66h420v-139h-617v65
q0 90 60 168q61 79 196 158q120 71 148 103q31 36 31 77q0 49 -32 78q-31 28 -87 28t-94 -39t-39 -98h-176q7 124 92 201q83 76 219 76z" />
    <glyph glyph-name="uni215B" unicode="&#x215b;" horiz-adv-x="1914" 
d="M1815 221q0 -108 -90 -172q-88 -63 -238 -63q-149 0 -238 63q-88 63 -88 172q0 67 46 120q47 54 108 69q-55 24 -88 72t-33 106q0 105 82 168t211 63q131 0 212 -63t81 -168q0 -57 -32 -106q-31 -47 -85 -72q61 -15 106 -69q46 -55 46 -120zM1618 582q0 51 -35 80
q-34 28 -96 28q-60 0 -94 -28q-35 -29 -35 -80t35 -80t94 -29q61 0 96 29t35 80zM1642 231q0 54 -40 84q-42 31 -115 31q-70 0 -112 -31q-40 -30 -40 -84t40 -84q41 -30 112 -30q74 0 115 30q40 30 40 84zM1554 1489l-1054 -1514h-176l1056 1514h174zM489 788h195v-126h-567
v126h198v439h-196v119q125 0 173 22q50 23 68 96h129v-676z" />
    <glyph glyph-name="uni215C" unicode="&#x215c;" horiz-adv-x="1945" 
d="M1843 221q0 -109 -89 -172t-238 -63q-150 0 -238 63t-88 172q0 67 46 120q47 54 107 69q-55 24 -88 72q-32 47 -32 106q0 105 82 168q83 63 211 63q130 0 211 -63t81 -168q0 -59 -31 -106t-85 -72q61 -15 106 -69t45 -120zM1647 582q0 51 -35 80q-34 28 -96 28
q-61 0 -95 -28q-35 -29 -35 -80t35 -80t95 -29q61 0 96 29t35 80zM1671 231q0 54 -41 84q-42 31 -114 31q-70 0 -112 -31q-40 -30 -40 -84t40 -84t112 -30q74 0 114 30q41 30 41 84zM1583 1489l-1055 -1514h-176l1057 1514h174zM571 1063q73 -12 118 -63q44 -50 44 -121
q0 -103 -85 -167q-86 -65 -224 -65q-137 0 -227 70q-89 69 -99 186h174q5 -53 46 -86q42 -33 106 -33q63 0 100 30t37 79t-35 76q-33 26 -102 26h-80v133h76q59 0 92 27t33 78q0 48 -33 78t-86 30q-58 0 -94 -33q-37 -34 -41 -89h-168q6 115 89 188q82 72 216 72
q128 0 207 -67q78 -66 78 -171q0 -67 -39 -117q-38 -49 -103 -61z" />
    <glyph glyph-name="uni215D" unicode="&#x215d;" horiz-adv-x="1925" 
d="M1565 1489l-1055 -1514h-176l1057 1514h174zM1825 221q0 -109 -89 -172q-88 -63 -239 -63q-149 0 -237 63q-89 63 -89 172q0 65 47 120q47 54 107 69q-55 24 -88 72t-33 106q0 105 82 168t211 63q131 0 212 -63t81 -168q0 -57 -32 -106q-31 -47 -85 -72q62 -15 107 -69
t45 -120zM1628 582q0 51 -35 80q-34 28 -96 28q-60 0 -94 -28q-35 -29 -35 -80t35 -80t94 -29q61 0 96 29t35 80zM1653 231q0 54 -41 84q-42 31 -115 31q-70 0 -112 -31q-39 -29 -39 -84t39 -84q41 -30 112 -30q74 0 115 30t41 84zM563 926q0 65 -36 104t-97 39
q-42 0 -73 -16q-32 -17 -50 -47h-168l45 456h508v-143h-377l-18 -182q27 29 72 45q44 16 98 16q123 0 199 -75q75 -74 75 -197q0 -122 -86 -202q-85 -79 -223 -79q-140 0 -229 71t-99 191h189q5 -58 42 -92q38 -35 95 -35q61 0 97 40t36 106z" />
    <glyph glyph-name="uni215E" unicode="&#x215e;" horiz-adv-x="1792" 
d="M1692 221q0 -109 -89 -172t-239 -63t-238 63t-88 172q0 67 46 120q46 54 108 69q-55 24 -88 72t-33 106q0 105 82 168q83 63 211 63q131 0 212 -63t81 -168q0 -57 -32 -106q-31 -47 -85 -72q62 -15 107 -69t45 -120zM1495 582q0 51 -35 80q-34 28 -96 28q-60 0 -94 -28
q-35 -29 -35 -80t35 -80t94 -29q61 0 96 29t35 80zM1520 231q0 54 -41 84q-42 31 -115 31q-70 0 -112 -31q-40 -30 -40 -84t40 -84t112 -30q74 0 115 30t41 84zM1432 1489l-1055 -1514h-176l1056 1514h175zM520 1321h-420v141h600v-143q-129 -157 -183 -306
q-55 -150 -56 -351h-191q1 169 63 335q60 163 187 324z" />
    <glyph glyph-name="minus" unicode="&#x2212;" horiz-adv-x="1351" 
d="M1217 584h-1084v194h1084v-194z" />
    <glyph glyph-name="commaaccent" unicode="&#xf6c3;" 
d="M559 -270h-104v170h264v-119q0 -129 -67 -193q-66 -63 -203 -63v96q55 0 83 26q27 25 27 83z" />
    <glyph glyph-name="idotaccent" horiz-adv-x="581" 
d="M160 0v1040h262v-1040h-262zM430 1217h-278v256h278v-256z" />
    <glyph glyph-name="a.ord" horiz-adv-x="835" 
d="M537 754q-28 -60 -86 -90q-59 -31 -140 -31q-107 0 -171 54t-64 147q0 90 61 141q60 50 191 65l198 21v37q0 57 -29 83q-30 27 -87 27q-50 0 -81 -25t-36 -71h-189q11 114 94 178q84 64 218 64q148 0 227 -71q78 -70 78 -206v-246q0 -61 3 -103q3 -41 9 -79h-188
q-4 24 -6 50q-2 34 -2 55zM369 760q68 0 112 43q45 43 45 110v45l-139 -16q-61 -7 -89 -32t-28 -64t27 -63q26 -23 72 -23z" />
    <glyph glyph-name="b.ord" horiz-adv-x="915" 
d="M535 631q-72 0 -131 35q-57 34 -85 92v-111h-196v993h199v-409q28 54 86 89q56 34 127 34q137 0 220 -101t83 -262t-83 -261q-83 -99 -220 -99zM477 1210q-74 0 -117 -55t-43 -151v-25q0 -97 43 -152t117 -55q76 0 119 58t43 161t-43 161t-119 58z" />
    <glyph glyph-name="c.ord" horiz-adv-x="813" 
d="M430 631q-158 0 -255 99q-97 98 -97 263q0 163 98 261q100 100 254 100q132 0 215 -69q81 -68 96 -191h-186q-10 55 -42 85q-30 29 -83 29q-72 0 -113 -57q-41 -58 -41 -158q0 -103 40 -159q41 -58 114 -58q52 0 83 30q32 30 42 85h186q-15 -124 -96 -192t-215 -68z" />
    <glyph glyph-name="d.ord" horiz-adv-x="915" 
d="M381 631q-137 0 -220 99q-83 100 -83 261t83 262t220 101q71 0 127 -34q58 -35 86 -89v409h199v-993h-197v111q-28 -58 -85 -92q-59 -35 -130 -35zM438 1210q-76 0 -119 -58t-43 -161t43 -161t119 -58q74 0 117 55t43 152v25q0 96 -43 151t-117 55z" />
    <glyph glyph-name="e.ord" horiz-adv-x="835" 
d="M571 866h183q-21 -109 -107 -173q-84 -62 -213 -62q-158 0 -257 99t-99 261q0 163 98 262q99 101 254 101q151 0 240 -97q88 -95 88 -251v-48h-490q6 -91 48 -137q42 -47 118 -47q52 0 87 23q33 22 50 69zM430 1212q-65 0 -107 -42q-43 -43 -53 -119h303q-1 72 -40 117
q-38 44 -103 44z" />
    <glyph glyph-name="f.ord" horiz-adv-x="522" 
d="M143 647v549h-92v141h92v86q0 108 62 167t176 59q28 0 42 -1q13 -1 66 -8v-149q-32 2 -43 3q-8 1 -24 1q-42 0 -61 -19t-19 -61v-78h135v-141h-135v-549h-199z" />
    <glyph glyph-name="g.ord" horiz-adv-x="915" 
d="M434 524q81 0 121 43q41 44 41 125v101q-24 -57 -82 -92q-55 -33 -131 -33q-137 0 -221 95t-84 249q0 152 84 246q85 96 221 96q73 0 132 -35q57 -34 85 -92v108h197v-614q0 -160 -95 -246t-268 -86q-144 0 -232 57q-89 57 -110 162h197q12 -42 48 -63t97 -21zM438 811
q74 0 119 51t45 135v29q0 84 -45 134t-119 50q-75 0 -117 -52t-42 -146q0 -96 42 -148q42 -53 117 -53z" />
    <glyph glyph-name="h.ord" horiz-adv-x="905" 
d="M322 1640v-413q27 58 84 93q55 34 129 34q118 0 186 -70q67 -68 67 -194v-443h-200v395q0 77 -32 118q-31 40 -93 40q-67 0 -105 -47q-36 -45 -36 -133v-373h-199v993h199z" />
    <glyph glyph-name="i.ord" horiz-adv-x="446" 
d="M326 1442h-207v180h207v-180zM123 647v688h199v-688h-199z" />
    <glyph glyph-name="j.ord" horiz-adv-x="446" 
d="M326 1442h-207v180h207v-180zM88 397q-16 0 -44 2q-14 1 -44 7v143q10 -2 18 -2h25q45 0 62 17q18 18 18 61v710h199v-717q0 -109 -59 -165t-175 -56z" />
    <glyph glyph-name="k.ord" horiz-adv-x="878" 
d="M836 647h-224l-215 279l-75 -74v-205h-199v993h199v-587l274 282h225l-286 -284z" />
    <glyph glyph-name="l.ord" horiz-adv-x="446" 
d="M322 1640v-993h-199v993h199z" />
    <glyph glyph-name="m.ord" horiz-adv-x="1337" 
d="M528 1354q78 0 131 -32q55 -33 84 -97q34 58 97 94q62 35 135 35q116 0 180 -70t64 -194v-443h-197v397q0 78 -30 117t-89 39q-61 0 -97 -47t-36 -131v-375h-197v397q0 79 -28 117q-29 39 -88 39q-64 0 -100 -46q-35 -45 -35 -132v-375h-199v688h196v-108q28 59 83 92
q58 35 126 35z" />
    <glyph glyph-name="n.ord" horiz-adv-x="905" 
d="M123 1335h196v-108q26 58 84 93q56 34 132 34q118 0 186 -70q67 -68 67 -194v-443h-200v395q0 77 -32 118q-31 40 -93 40q-67 0 -105 -47q-36 -45 -36 -133v-373h-199v688z" />
    <glyph glyph-name="o.ord" horiz-adv-x="870" 
d="M436 631q-162 0 -260 98t-98 264q0 164 98 262q99 99 260 99q159 0 258 -99t99 -262q0 -164 -99 -263t-258 -99zM436 1208q-77 0 -118 -56q-42 -57 -42 -159q0 -105 42 -162t118 -57q74 0 116 57t42 162q0 101 -42 158t-116 57z" />
    <glyph glyph-name="p.ord" horiz-adv-x="917" 
d="M535 631q-71 0 -127 34q-58 35 -86 89v-346h-199v927h196v-108q28 58 85 92q59 35 131 35q137 0 220 -101t83 -262t-83 -261q-83 -99 -220 -99zM477 1210q-74 0 -117 -55t-43 -149v-27q0 -97 43 -152t117 -55q76 0 119 58t43 161t-43 161t-119 58z" />
    <glyph glyph-name="q.ord" horiz-adv-x="917" 
d="M383 631q-137 0 -220 99q-83 100 -83 261t83 262t220 101q71 0 130 -35q57 -34 85 -92v108h197v-927h-199v346q-28 -54 -86 -89q-56 -34 -127 -34zM440 1210q-75 0 -118 -58t-43 -161t43 -161t118 -58q74 0 117 55t43 152v27q0 94 -43 149t-117 55z" />
    <glyph glyph-name="r.ord" horiz-adv-x="632" 
d="M526 1348q19 0 29 -1q6 -1 23 -4v-182q-19 1 -37 3q-11 1 -31 1q-86 0 -137 -55q-51 -56 -51 -152v-311h-199v688h196v-149q23 74 79 119q53 43 128 43z" />
    <glyph glyph-name="s.ord" horiz-adv-x="782" 
d="M401 631q-145 0 -233 58t-100 165h184q6 -48 45 -73q38 -25 102 -25q54 0 86 22q33 22 33 62q0 29 -22 45q-21 16 -80 28l-123 21q-104 18 -153 67q-50 50 -50 132q0 97 81 159q82 62 210 62q134 0 216 -56q81 -55 91 -157h-174q-8 41 -44 65q-38 25 -87 25t-80 -23
t-31 -61q0 -28 22 -45t81 -29l131 -22q98 -18 145 -68t47 -133q0 -99 -82 -159t-215 -60z" />
    <glyph glyph-name="t.ord" horiz-adv-x="585" 
d="M420 795q15 0 43 2q18 1 45 8v-148q-33 -10 -66 -15t-77 -5q-117 0 -170 48q-54 49 -54 155v356h-96v139h96v172h195v-172h156v-139h-158v-322q0 -44 20 -61q21 -18 66 -18z" />
    <glyph glyph-name="u.ord" horiz-adv-x="894" 
d="M770 647h-195v109q-28 -59 -83 -93t-127 -34q-120 0 -184 68t-64 196v442h198v-401q0 -76 30 -114t91 -38q64 0 100 46q35 45 35 135v372h199v-688z" />
    <glyph glyph-name="v.ord" horiz-adv-x="854" 
d="M537 647h-218l-268 690h201l178 -499h2l176 499h195z" />
    <glyph glyph-name="w.ord" horiz-adv-x="1183" 
d="M504 1337h180l123 -489h2l131 489h193l-213 -690h-199l-129 473h-2l-127 -473h-199l-213 690h197l131 -489h4z" />
    <glyph glyph-name="x.ord" horiz-adv-x="870" 
d="M430 868l-162 -221h-211l265 352l-248 338h225l141 -196l142 196h213l-248 -329l264 -361h-225z" />
    <glyph glyph-name="y.ord" horiz-adv-x="851" 
d="M182 549q57 0 84 21q26 20 49 83l-264 684h205l176 -497h2l174 497h193l-266 -696q-49 -128 -121 -185q-73 -58 -189 -59q-10 0 -38 2q-10 1 -48 7v145q16 -2 21 -2h22z" />
    <glyph glyph-name="z.ord" horiz-adv-x="778" 
d="M680 1337v-137l-354 -407h370v-146h-610v129l354 416h-344v145h584z" />
    <glyph glyph-name="caron.Slovak" 
d="M748 1507l-197 -415h-127l49 415h275z" />
    <glyph glyph-name="commaturn" 
d="M602 1358h105v-170h-265v119q0 128 67 192t204 64v-97q-58 0 -84 -25q-27 -25 -27 -83z" />
    <glyph glyph-name="grave.cap" 
d="M670 1878l108 -313h-162l-241 313h295z" />
    <glyph glyph-name="acute.cap" 
d="M780 1878l-241 -313h-162l108 313h295z" />
    <glyph glyph-name="circumflex.cap" 
d="M258 1563l199 315h243l197 -315h-152l-165 163l-170 -163h-152z" />
    <glyph glyph-name="caron.cap" 
d="M410 1878l170 -164l165 164h152l-197 -315h-243l-199 315h152z" />
    <glyph glyph-name="tilde.cap" 
d="M569 1649q-52 36 -71 45q-21 10 -41 10q-38 0 -59 -34q-20 -34 -25 -97h-146q0 143 54 231q53 86 145 86q38 0 75 -15q32 -13 105 -63q50 -34 72 -45q21 -10 41 -10q37 0 58 34q22 35 26 97h145q0 -146 -53 -232q-52 -85 -145 -85q-38 0 -75 15q-35 14 -106 63z" />
    <glyph glyph-name="macron.cap" 
d="M911 1595h-667v177h667v-177z" />
    <glyph glyph-name="breve.cap" 
d="M569 1559q-137 0 -218 89q-81 88 -81 238h166q0 -77 35 -120q34 -42 98 -42q63 0 98 42q33 40 33 120h166q0 -150 -81 -238q-81 -89 -216 -89z" />
    <glyph glyph-name="dotaccent.cap" 
d="M717 1587h-279v256h279v-256z" />
    <glyph glyph-name="dieresis.cap" 
d="M903 1587h-241v256h241v-256zM494 1587h-242v256h242v-256z" />
    <glyph glyph-name="ring.cap" 
d="M842 1726q0 -107 -77 -186q-77 -78 -185 -78q-109 0 -187 78t-78 186q0 109 78 187t187 78q108 0 185 -78q77 -79 77 -187zM711 1726q0 54 -39 93t-92 39q-56 0 -95 -39t-39 -93q0 -55 39 -94t95 -39q53 0 92 40q39 41 39 93z" />
    <glyph glyph-name="hungarumlaut.cap" 
d="M721 1565h-152l111 313h268zM356 1565h-151l110 313h267z" />
    <glyph glyph-name="guilsinglleft.cap" horiz-adv-x="692" 
d="M358 668l222 -418h-185l-282 418l282 417h185z" />
    <glyph glyph-name="guilsinglright.cap" horiz-adv-x="692" 
d="M113 1085h184l283 -417l-283 -418h-184l221 418z" />
    <glyph glyph-name="guillemotleft.cap" horiz-adv-x="1120" 
d="M784 668l224 -418h-183l-280 418l280 417h183zM352 668l223 -418h-180l-282 418l282 417h180z" />
    <glyph glyph-name="guillemotright.cap" horiz-adv-x="1120" 
d="M113 1085h182l280 -417l-280 -418h-182l223 418zM545 1085h180l283 -417l-283 -418h-180l223 418z" />
    <glyph glyph-name="slash.cap" horiz-adv-x="1093" 
d="M336 -154h-246l668 1729h246z" />
    <glyph glyph-name="backslash.cap" horiz-adv-x="1093" 
d="M758 -154l-668 1729h246l668 -1729h-246z" />
    <glyph glyph-name="bar.cap" horiz-adv-x="675" 
d="M223 -154v1729h230v-1729h-230z" />
    <glyph glyph-name="periodcentered.cap" horiz-adv-x="661" 
d="M483 559h-305v305h305v-305z" />
    <glyph glyph-name="bullet.cap" horiz-adv-x="987" 
d="M496 430q-131 0 -225 92q-93 92 -93 223q0 129 93 220q94 92 225 92q130 0 221 -91q92 -92 92 -221q0 -132 -91 -223q-92 -92 -222 -92z" />
    <glyph glyph-name="hyphen.cap" horiz-adv-x="929" 
d="M752 596h-574v219h574v-219z" />
    <glyph glyph-name="endash.cap" horiz-adv-x="1386" 
d="M1208 606h-1030v195h1030v-195z" />
    <glyph glyph-name="emdash.cap" horiz-adv-x="2054" 
d="M1876 606h-1698v195h1698v-195z" />
    <glyph glyph-name="parenleft.cap" horiz-adv-x="870" 
d="M440 711q0 -220 85 -439t245 -426h-250q-169 202 -254 419q-86 219 -86 446q0 226 86 445q85 217 254 419h250q-162 -220 -246 -440q-84 -219 -84 -424z" />
    <glyph glyph-name="parenright.cap" horiz-adv-x="870" 
d="M430 711q0 205 -84 424q-84 220 -246 440h250q169 -202 254 -419q86 -219 86 -445q0 -227 -86 -446q-85 -217 -254 -419h-250q160 207 245 426t85 439z" />
    <glyph glyph-name="bracketleft.cap" horiz-adv-x="843" 
d="M721 1389h-268v-1356h268v-187h-520v1729h520v-186z" />
    <glyph glyph-name="bracketright.cap" horiz-adv-x="843" 
d="M123 1575h520v-1729h-520v187h268v1356h-268v186z" />
    <glyph glyph-name="braceleft.cap" horiz-adv-x="880" 
d="M160 616h-92v189h92q50 0 81 31q29 29 29 84v419q0 117 68 177q66 59 203 59h215v-184h-148q-58 0 -80 -21t-22 -67v-410q0 -77 -45 -123q-46 -47 -129 -59q82 -12 129 -60q45 -47 45 -123v-409q0 -47 22 -68q21 -20 80 -20h148v-185h-215q-135 0 -203 60t-68 176v420
q0 55 -29 84q-30 30 -81 30z" />
    <glyph glyph-name="braceright.cap" horiz-adv-x="880" 
d="M721 616q-51 0 -81 -30t-30 -84v-420q0 -116 -67 -176t-203 -60h-215v185h147q59 0 80 20q23 21 23 68v409q0 76 45 123q47 48 129 60q-83 12 -129 59q-45 46 -45 123v410q0 46 -23 67t-80 21h-147v184h215q137 0 203 -59q67 -60 67 -177v-419q0 -54 30 -84
q31 -31 81 -31h92v-189h-92z" />
    <glyph glyph-name="at.cap" horiz-adv-x="1878" 
d="M1178 1124h204l-104 -592q-10 -60 10 -89t74 -29q123 0 198 118q74 117 74 320q0 254 -174 405q-175 152 -461 152q-325 0 -534 -212t-209 -540q0 -317 204 -494t541 -177q129 0 240 22q113 22 221 68l54 -121q-102 -51 -239 -81t-276 -30q-403 0 -654 218t-251 595
q0 184 67 353q65 163 191 288q124 123 291 189q164 65 354 65q348 0 567 -197q220 -198 220 -503q0 -262 -132 -420t-337 -158q-85 0 -148 36t-92 100q-39 -60 -105 -94q-67 -35 -145 -35q-145 0 -230 97t-85 259q0 212 124 358q125 148 310 148q68 0 129 -35q59 -34 82 -86
zM887 459q73 0 132 54q59 55 77 144l10 76q18 103 -21 166q-40 64 -118 64q-100 0 -166 -84t-72 -207q-6 -99 36 -156t122 -57z" />
    <glyph glyph-name="Euro.lt" horiz-adv-x="1351" 
d="M1067 459h238q-37 -228 -175 -357q-136 -127 -354 -127t-374 142q-154 140 -205 387h-146v158h125q-2 16 -2 26v45v43q0 11 2 27h-125v158h146q51 245 205 386q153 140 374 140q218 0 354 -127q138 -129 175 -356h-238q-24 135 -96 201q-73 67 -193 67q-124 0 -209 -80
q-82 -78 -120 -231h403l-23 -158h-401q-2 -16 -2 -27v-43v-45q0 -10 2 -26h377l-23 -158h-331q35 -153 118 -233q84 -81 209 -81q120 0 193 67q72 66 96 202z" />
    <glyph glyph-name="dollar.lt" horiz-adv-x="1351" 
d="M1249 418q0 -182 -137 -302q-135 -119 -358 -134v-205h-150v207q-235 21 -372 140t-152 316h239q11 -109 84 -175q74 -67 201 -83v453l-102 18q-192 38 -284 134q-93 97 -93 262q0 183 132 301q131 118 347 133v194h150v-196q206 -22 327 -130t142 -288h-236
q-11 90 -69 141q-62 55 -164 72v-436l127 -25q187 -38 277 -135q91 -98 91 -262zM362 1065q0 -81 49 -124q48 -42 177 -69l16 -4v412q-115 -12 -178 -69q-64 -58 -64 -146zM1010 399q0 86 -55 133q-55 48 -179 70l-22 4v-428q120 12 188 71t68 150z" />
    <glyph glyph-name="cent.lt" horiz-adv-x="1351" 
d="M975 367h211q-21 -160 -128 -261q-108 -102 -270 -120v-203h-147v205q-204 27 -329 174q-124 146 -124 373q0 223 124 371q125 149 329 173v238h147v-236q162 -18 270 -120q107 -101 128 -261h-211q-12 78 -62 128t-125 65v-719q77 15 126 65q49 51 61 128zM420 535
q0 -143 58 -235q59 -94 163 -122v711q-104 -28 -163 -121q-58 -91 -58 -233z" />
    <glyph glyph-name="sterling.lt" horiz-adv-x="1351" 
d="M455 215h784v-215h-1124v215h26q91 0 142 83q51 82 51 228q0 14 -1 21l-3 31h-193v188h131q-39 96 -55 159q-14 56 -14 119q0 186 143 314q144 129 363 129q232 0 366 -130q136 -131 152 -360h-252q-8 136 -77 208q-70 73 -189 73q-111 0 -179 -68q-67 -67 -67 -170
q0 -31 6 -66q7 -38 20 -73l14 -35t15 -37q7 -18 17 -40t10 -23h362v-188h-319q2 -8 2 -15v-22q0 -100 -34 -183t-97 -143z" />
    <glyph glyph-name="yen.lt" horiz-adv-x="1351" 
d="M1190 502v-158h-383v-344h-260v344h-381v158h381v151h-381v160h293l-404 649h281l344 -577h4l340 577h274l-403 -649h295v-160h-383v-151h383z" />
    <glyph glyph-name="florin.lt" horiz-adv-x="1351" 
d="M1028 827v-198h-252l-149 -854h-254l153 854h-166v198h201l62 344q30 173 135 267q104 94 264 94q40 0 76 -7q35 -7 73 -20v-235q-36 13 -58 17q-28 5 -62 5q-79 0 -126 -47t-65 -145l-47 -273h215z" />
    <glyph glyph-name="zero.slash" horiz-adv-x="1431" 
d="M717 -25q-279 0 -451 210q-172 209 -172 546t172 546q172 210 451 210q278 0 449 -209t171 -547q0 -339 -171 -547q-171 -209 -449 -209zM717 1286q-168 0 -262 -148q-95 -149 -95 -407q0 -130 28 -242q27 -107 79 -182l381 950q-27 14 -64 22q-31 7 -67 7zM717 176
q167 0 262 149q94 148 94 406q0 136 -25 240q-25 105 -77 180l-383 -948q30 -15 63 -21t66 -6z" />
    <glyph glyph-name="zero.lt" horiz-adv-x="1351" 
d="M1266 731q0 -337 -163 -546q-163 -210 -427 -210t-427 210q-163 209 -163 546t163 546q163 210 427 210t427 -210q163 -209 163 -546zM352 731q0 -260 83 -402q83 -141 241 -141t240 141q83 142 83 402q0 261 -83 403q-82 140 -240 140q-159 0 -241 -140
q-83 -142 -83 -403z" />
    <glyph glyph-name="zero.slash.lt" horiz-adv-x="1351" 
d="M1266 731q0 -337 -163 -546q-163 -210 -427 -210t-427 210q-163 209 -163 546t163 546q163 210 427 210t427 -210q163 -209 163 -546zM676 1286q-162 0 -248 -144q-86 -145 -86 -411q0 -134 20 -231q21 -102 62 -172l401 919q-35 21 -71 30q-38 9 -78 9zM676 176
q162 0 248 145t86 410q0 129 -21 228q-22 102 -59 171l-400 -915q31 -18 67 -29q34 -10 79 -10z" />
    <glyph glyph-name="one.lt" horiz-adv-x="1351" 
d="M848 209h387v-209h-1092v209h435v858h-390v180q237 0 340 44t136 175h184v-1257z" />
    <glyph glyph-name="two.lt" horiz-adv-x="1351" 
d="M700 1487q225 0 362 -124q138 -124 138 -319q0 -92 -35 -173q-34 -79 -108 -148q-40 -40 -108 -86q-67 -45 -193 -117q-175 -103 -245 -171q-72 -70 -73 -134h770v-215h-1067v104q0 159 107 299q108 142 362 293q213 129 274 199q60 69 60 152q0 106 -64 167
q-65 62 -182 62q-116 0 -192 -78t-84 -203h-260q15 223 161 357q147 135 377 135z" />
    <glyph glyph-name="three.lt" horiz-adv-x="1351" 
d="M920 739q133 -22 214 -115q80 -92 80 -227q0 -185 -149 -303q-151 -119 -391 -119q-248 0 -400 124q-154 125 -172 337h260q10 -115 95 -185q84 -69 217 -69q136 0 212 63q77 63 77 171q0 105 -74 162q-73 57 -205 57h-152v201h148q117 0 182 56q66 57 66 161
q0 101 -67 165q-65 62 -181 62q-122 0 -198 -72q-78 -73 -85 -190h-250q15 208 159 339q143 130 376 130q227 0 364 -119q136 -118 136 -307q0 -122 -73 -212q-72 -89 -189 -110z" />
    <glyph glyph-name="four.lt" horiz-adv-x="1351" 
d="M721 1462h297v-889h270v-206h-270v-367h-262v367h-695v208zM756 573v637l-463 -637h463z" />
    <glyph glyph-name="five.lt" horiz-adv-x="1351" 
d="M963 479q0 135 -75 218t-206 83q-84 0 -152 -36t-108 -99h-244l84 817h877v-215h-682l-39 -381q47 53 131 86t176 33q221 0 359 -141q139 -142 139 -363q0 -223 -150 -364q-151 -142 -391 -142q-244 0 -395 127q-151 128 -168 342h270q11 -120 89 -191q81 -73 204 -73
q128 0 205 83q76 82 76 216z" />
    <glyph glyph-name="six.lt" horiz-adv-x="1351" 
d="M717 1278q-161 0 -258 -148q-97 -149 -97 -389q49 109 149 173q99 63 228 63q219 0 359 -140q141 -141 141 -354q0 -223 -149 -365q-151 -143 -388 -143q-264 0 -426 200q-161 198 -161 532q0 349 169 564q170 216 441 216q202 0 338 -112q135 -111 162 -302h-248
q-24 103 -90 154t-170 51zM406 479q0 -134 81 -218q82 -85 213 -85q130 0 209 84q80 85 80 219q0 132 -80 217q-79 84 -209 84t-213 -84q-81 -82 -81 -217z" />
    <glyph glyph-name="seven.lt" horiz-adv-x="1351" 
d="M971 1247h-850v215h1126v-207q-268 -325 -388 -620q-121 -297 -122 -635h-280q5 304 127 606q123 304 387 641z" />
    <glyph glyph-name="eight.lt" horiz-adv-x="1351" 
d="M164 1073q0 189 141 301q142 113 371 113t371 -113q141 -113 141 -301q0 -109 -61 -197q-62 -89 -166 -135q119 -23 205 -120q87 -99 87 -220q0 -192 -157 -309q-158 -117 -420 -117t-420 117t-158 309q0 121 87 220q85 97 206 120q-106 46 -167 135q-60 87 -60 197z
M403 1067q0 -105 74 -165t199 -60q122 0 197 60t75 165t-74 165t-198 60q-127 0 -199 -59q-74 -60 -74 -166zM358 412q0 -111 85 -174q87 -64 233 -64q145 0 232 64q85 63 85 174t-85 174q-86 63 -232 63q-148 0 -233 -63t-85 -174z" />
    <glyph glyph-name="nine.lt" horiz-adv-x="1351" 
d="M635 184q161 0 258 148q96 147 96 389q-49 -110 -148 -173t-229 -63q-217 0 -358 141t-141 353q0 224 149 366t387 142q264 0 426 -200q162 -199 162 -531q0 -350 -169 -565q-170 -216 -441 -216q-202 0 -338 112q-135 111 -162 302h248q24 -102 90 -153q67 -52 170 -52z
M946 983q0 133 -82 218t-213 85q-129 0 -209 -84q-80 -85 -80 -219q0 -132 80 -217q80 -84 209 -84q131 0 213 84q82 83 82 217z" />
    <glyph glyph-name="period.tab" horiz-adv-x="675" 
d="M492 0h-306v305h306v-305z" />
    <glyph glyph-name="comma.tab" horiz-adv-x="675" 
d="M328 8h-140v297h306v-325q0 -150 -93 -237q-91 -85 -258 -85v141q97 0 141 44t44 137v28z" />
    <glyph glyph-name="colon.tab" horiz-adv-x="675" 
d="M492 666h-306v305h306v-305zM492 0h-306v305h306v-305z" />
    <glyph glyph-name="semicolon.tab" horiz-adv-x="675" 
d="M328 8h-140v297h306v-325q0 -150 -93 -237q-91 -85 -258 -85v141q97 0 141 44t44 137v28zM494 666h-306v305h306v-305z" />
    <glyph glyph-name="space.tab" horiz-adv-x="675" 
 />
    <glyph glyph-name="zero.dnom" horiz-adv-x="876" 
d="M795 401q0 -185 -99 -300t-258 -115t-258 115q-98 114 -98 300q0 188 98 302q99 116 258 116t258 -116t99 -302zM270 401q0 -133 43 -203q44 -71 125 -71q82 0 126 71t44 203q0 135 -44 206t-126 71t-125 -72q-43 -71 -43 -205z" />
    <glyph glyph-name="one.dnom" horiz-adv-x="708" 
d="M457 127h194v-127h-567v127h199v438h-197v119q122 0 173 23t69 96h129v-676z" />
    <glyph glyph-name="two.dnom" horiz-adv-x="759" 
d="M391 817q127 0 209 -69t82 -179q0 -79 -47 -140q-45 -59 -201 -144q-81 -43 -122 -79q-40 -36 -42 -67h420v-139h-616v66q0 90 59 167q60 78 197 158q116 68 147 104t31 76q0 49 -32 78t-87 29q-57 0 -94 -39q-38 -39 -39 -98h-176q7 123 92 200q83 76 219 76z" />
    <glyph glyph-name="three.dnom" horiz-adv-x="776" 
d="M539 401q73 -12 117 -62t44 -122q0 -103 -85 -167t-224 -64t-227 69q-87 68 -98 187h174q5 -53 46 -86q42 -33 105 -33t101 30q36 29 36 78t-34 76t-103 27h-80v133h76q59 0 92 27t33 77q0 48 -33 78q-34 31 -86 31q-57 0 -94 -34t-41 -89h-168q6 115 89 188
q83 72 216 72q129 0 207 -66t78 -171q0 -68 -39 -117q-39 -50 -102 -62z" />
    <glyph glyph-name="four.dnom" horiz-adv-x="856" 
d="M442 801h193v-498h158v-127h-158v-176h-170v176h-399v129zM465 303v330l-244 -330h244z" />
    <glyph glyph-name="five.dnom" horiz-adv-x="788" 
d="M530 266q0 67 -35 105q-36 39 -98 39q-40 0 -72 -17q-33 -17 -51 -47h-168l46 457h507v-144h-376l-19 -182q27 29 72 45q46 17 98 17q122 0 199 -75q76 -75 76 -198q0 -121 -86 -201q-85 -79 -224 -79q-141 0 -229 70q-87 70 -98 192h188q5 -58 42 -92q38 -35 95 -35
q62 0 98 40q35 39 35 105z" />
    <glyph glyph-name="six.dnom" horiz-adv-x="802" 
d="M422 680q-76 0 -123 -70t-47 -178q29 48 79 76q48 27 111 27q123 0 202 -76t79 -193q0 -122 -85 -201t-222 -79q-152 0 -243 109t-91 292q0 191 95 312q95 120 249 120q115 0 194 -64q78 -64 95 -169h-168q-12 45 -43 70q-30 24 -82 24zM272 262q0 -63 40 -103t104 -40
q61 0 100 41q39 40 39 102q0 64 -39 105t-100 41q-63 0 -104 -41q-40 -40 -40 -105z" />
    <glyph glyph-name="seven.dnom" horiz-adv-x="739" 
d="M487 659h-419v142h600v-144q-131 -160 -184 -306q-55 -150 -56 -351h-190q1 173 62 336q60 161 187 323z" />
    <glyph glyph-name="eight.dnom" horiz-adv-x="813" 
d="M733 221q0 -109 -89 -172q-88 -63 -238 -63t-238 63t-88 172q0 67 46 120q47 54 107 69q-55 24 -88 72q-32 47 -32 106q0 105 82 168t211 63q130 0 211 -63t81 -168q0 -59 -31 -106t-85 -72q61 -15 106 -69t45 -120zM537 582q0 51 -35 80q-34 28 -96 28q-61 0 -95 -28
q-35 -29 -35 -80t35 -80t95 -29q61 0 96 29t35 80zM561 231q0 54 -41 84q-42 31 -114 31q-70 0 -112 -31q-40 -30 -40 -84t40 -84t112 -30q74 0 114 30q41 30 41 84z" />
    <glyph glyph-name="nine.dnom" horiz-adv-x="802" 
d="M383 125q75 0 124 70q48 69 48 178q-33 -51 -83 -78t-112 -27q-120 0 -199 78t-79 195q0 119 86 199q85 79 221 79q151 0 242 -109q92 -110 92 -292q0 -193 -96 -313q-95 -119 -250 -119q-115 0 -193 63q-77 63 -94 168h168q12 -47 43 -70q29 -22 82 -22zM532 543
q0 62 -39 101q-40 40 -104 40q-61 0 -100 -39t-39 -102q0 -65 39 -106q39 -40 100 -40q64 0 104 40q39 39 39 106z" />
    <glyph glyph-name="percent.lt" horiz-adv-x="1351" 
d="M346 840q-132 0 -227 95q-94 94 -94 228q0 135 94 229q95 95 227 95q135 0 229 -94q95 -95 95 -230q0 -134 -95 -229q-94 -94 -229 -94zM80 2l993 1460h182l-993 -1460h-182zM346 1335q-69 0 -119 -50q-49 -49 -49 -122t49 -122q50 -50 119 -50t119 50q49 49 49 122
t-49 122q-50 50 -119 50zM1004 -25q-133 0 -228 95q-94 94 -94 227q0 132 95 229t227 97q134 0 230 -96q95 -95 95 -230q0 -132 -95 -227t-230 -95zM1004 471q-70 0 -118 -51t-48 -123q0 -71 49 -120q50 -50 117 -50q69 0 119 50q51 51 51 120q0 70 -51 123q-49 51 -119 51z
" />
    <glyph glyph-name="thinspace" horiz-adv-x="129" 
 />
    </font>
</defs>
</svg>
