<?xml version="1.0" standalone="no"?>
<!DOCTYPE svg PUBLIC "-//W3C//DTD SVG 1.1//EN" "http://www.w3.org/Graphics/SVG/1.1/DTD/svg11.dtd" >
<svg xmlns="http://www.w3.org/2000/svg" xmlns:xlink="http://www.w3.org/1999/xlink" version="1.1">
<metadata>
Created by FontForge 20170731 at Wed Oct 14 17:38:51 2020
 By Aleksey,,,
Copyright (c) 2017-2018 by Jan Weidemu:ller. All rights reserved.
</metadata>
<defs>
<font id="Para-LightCentral" horiz-adv-x="1052" >
  <font-face 
    font-family="Para Light Central"
    font-weight="400"
    font-stretch="normal"
    units-per-em="2048"
    panose-1="0 0 5 0 0 0 0 0 0 0"
    ascent="1610"
    descent="-438"
    x-height="979"
    cap-height="1464"
    bbox="-285 -504 3844 2165"
    underline-thickness="69"
    underline-position="-212"
    unicode-range="U+0020-2212"
  />
<missing-glyph horiz-adv-x="1333" 
d="M143 0v1610h1053v-1610h-1053zM1108 143v1379h-829zM231 88h832l-832 1382v-1382z" />
    <glyph glyph-name="f_b" unicode="fb" horiz-adv-x="1824" 
d="M1317 -20q-89 0 -161.5 49t-141.5 141h-15l9 -170h-152v1288q-198 148 -264 148q-34 0 -67.5 -12.5t-66.5 -41t-53 -84.5t-20 -133v-188h340v-82h-340v-721q0 -41 21.5 -65.5t78.5 -45.5l56 -20v-45h-475v45l55 20q57 21 78.5 45.5t21.5 65.5v721h-160v82h160v78
q0 109 30.5 197t82.5 143.5t118.5 85.5t139.5 30q127 0 282 -51l146 66v-707q74 97 151 141t168 44q116 0 207 -72.5t138 -186.5t47 -245q0 -107 -34.5 -204.5t-91 -166t-132.5 -109t-156 -40.5zM1292 86q88 0 151 58.5t91.5 146t28.5 192.5q0 175 -75.5 290.5t-207.5 115.5
q-140 0 -260 -148v-497q117 -158 272 -158z" />
    <glyph glyph-name="f_f" unicode="ff" horiz-adv-x="1392" 
d="M66 0v45l55 21q57 21 78.5 45t21.5 65v721h-160v82h160v74q0 105 21 187t53.5 131t76 81t84.5 43.5t83 11.5q156 0 295 -32l-86 -140h-25q-81 61 -114.5 79t-63.5 18q-29 0 -53.5 -8.5t-50.5 -29.5t-41 -66.5t-15 -110.5v-238h471v76q0 227 92.5 342.5t253.5 115.5
q117 0 322 -49l-90 -145h-25q-118 71 -167 93t-75 22q-23 0 -45 -7.5t-47 -27.5t-40 -65.5t-15 -110.5v-244h287v-12l-39 -70h-248v-721q0 -40 26 -64.5t95 -45.5l65 -21v-45h-506v45l56 21q57 21 78.5 45t21.5 65v721h-471v-721q0 -41 21.5 -65t78.5 -45l56 -21v-45h-475z
" />
    <glyph glyph-name="f_f_i" unicode="ffi" horiz-adv-x="1865" 
d="M66 0v45l55 21q57 21 78.5 45t21.5 65v721h-160v82h160v74q0 105 21 187t53.5 131t76 81t84.5 43.5t83 11.5q156 0 295 -32l-86 -140h-25q-81 61 -114.5 79t-63.5 18q-29 0 -53.5 -8.5t-50.5 -29.5t-41 -66.5t-15 -110.5v-238h471v61q0 86 12 157t31.5 119t48 84.5
t58 57.5t65 34t65 17t62.5 4q155 0 344 -71l-92 -178h-25q-121 119 -150 141q-42 33 -75 33q-180 0 -180 -248v-211h489l146 33v-836q0 -41 21.5 -65t78.5 -45l55 -21v-45h-475v45l56 21q57 21 78.5 45t21.5 65v721h-471v-721q0 -41 21.5 -65t78.5 -45l56 -21v-45h-476v45
l56 21q57 21 78.5 45t21.5 65v721h-471v-721q0 -41 21.5 -65t78.5 -45l56 -21v-45h-475z" />
    <glyph glyph-name="f_f_l" unicode="ffl" horiz-adv-x="1863" 
d="M66 0v45l55 21q57 21 78.5 45t21.5 65v721h-160v82h160v74q0 105 21 187t53.5 131t76 81t84.5 43.5t83 11.5q156 0 295 -32l-86 -140h-25q-81 61 -114.5 79t-63.5 18q-29 0 -53.5 -8.5t-50.5 -29.5t-41 -66.5t-15 -110.5v-238h469v78q0 109 30.5 197t82.5 143.5
t118.5 85.5t139.5 30q117 0 284 -51l144 64v-1350q0 -41 21.5 -65t78.5 -45l55 -21v-45h-475v45l56 21q57 21 78.5 45t21.5 65v1114q-198 148 -264 148q-34 0 -67.5 -12.5t-66.5 -41t-53 -84.5t-20 -133v-188h340v-82h-340v-721q0 -41 21.5 -65t78.5 -45l56 -21v-45h-476v45
l56 21q57 21 78.5 45t21.5 65v721h-469v-721q0 -41 21.5 -65t78.5 -45l56 -21v-45h-475z" />
    <glyph glyph-name="f_h" unicode="fh" horiz-adv-x="1869" 
d="M66 0v45l55 21q57 21 78.5 45t21.5 65v721h-160v82h160v78q0 109 30.5 197t82.5 143.5t118.5 85.5t139.5 30q124 0 289 -53l141 66v-733q161 211 354 211q125 0 204 -72t79 -207v-549q0 -41 21.5 -65t78.5 -45l56 -21v-45h-476v45l56 21q57 21 78.5 45t21.5 65v463
q0 235 -184 235q-144 0 -289 -163v-535q0 -41 21.5 -65t78.5 -45l56 -21v-45h-476v45l56 21q57 21 78.5 45t21.5 65v1114q-198 148 -266 148q-34 0 -67.5 -12.5t-66.5 -41t-53 -84.5t-20 -133v-188h340v-82h-340v-721q0 -41 21.5 -65t78.5 -45l56 -21v-45h-475z" />
    <glyph glyph-name="f_i" unicode="fi" horiz-adv-x="1230" 
d="M66 0v45l55 21q57 21 78.5 45t21.5 65v721h-160v82h160v61q0 86 12 157t31.5 119t48 84.5t58 57.5t65 34t65 17t62.5 4q155 0 344 -71l-92 -178h-24q-121 119 -153 143q-41 31 -73 31q-180 0 -180 -248v-211h489l146 33v-836q0 -41 21.5 -65t78.5 -45l56 -21v-45h-476v45
l56 21q57 21 78.5 45t21.5 65v721h-471v-721q0 -41 21.5 -65t78.5 -45l56 -21v-45h-475z" />
    <glyph glyph-name="f_j" unicode="fj" horiz-adv-x="1226" 
d="M668 -438l-13 41q74 42 114 82.5t61.5 107t21.5 168.5v936h-471v-721q0 -41 21.5 -65t78.5 -45l56 -21v-45h-476v45l56 21q57 21 78.5 45t21.5 65v721h-154v82h154v61q0 86 12 157t31.5 119t48 84.5t58 57.5t65 34t65 17t62.5 4q155 0 344 -71l-92 -178h-25
q-121 119 -150 141q-42 33 -75 33q-180 0 -180 -248v-211h489l146 33v-987q0 -191 -88.5 -303.5t-259.5 -159.5z" />
    <glyph glyph-name="f_k" unicode="fk" horiz-adv-x="1789" 
d="M66 0v45l55 21q57 21 78.5 45t21.5 65v721h-160v82h160v78q0 109 30.5 197t82.5 143.5t118.5 85.5t139.5 30q126 0 287 -53l141 53v-1017l373 315q30 27 30 45q0 15 -12 25l-94 73v25h393v-25q-169 -113 -223 -157l-289 -242l109 25l321 -443q35 -51 107 -92v-45h-201
l-373 524l-141 -118v-230q0 -41 21.5 -65t78.5 -45l56 -21v-45h-476v45l56 21q57 21 78.5 45t21.5 65v1114q-198 148 -264 148q-34 0 -67.5 -12.5t-66.5 -41t-53 -84.5t-20 -133v-188h340v-82h-340v-721q0 -41 21.5 -65t78.5 -45l56 -21v-45h-475z" />
    <glyph glyph-name="f_l" unicode="fl" horiz-adv-x="1230" 
d="M66 0v45l55 21q57 21 78.5 45t21.5 65v721h-160v82h160v78q0 109 30.5 197t82.5 143.5t118.5 85.5t139.5 30q118 0 285 -51l143 64v-1350q0 -41 21.5 -65t78.5 -45l56 -21v-45h-476v45l56 21q57 21 78.5 45t21.5 65v1114q-198 148 -264 148q-34 0 -67.5 -12.5t-66.5 -41
t-53 -84.5t-20 -133v-188h340v-82h-340v-721q0 -41 21.5 -65t78.5 -45l56 -21v-45h-475z" />
    <glyph glyph-name="w_w_w" unicode="www" horiz-adv-x="3868" 
d="M469 -4l-281 809q-13 42 -35 65t-77 43l-56 21v45h480v-45l-56 -21q-48 -18 -70 -37t-22 -45q0 -6 4 -26l242 -711l190 570l-47 141q-13 42 -35 65t-77 43l-56 21v45h480v-45l-56 -21q-48 -18 -70 -37t-22 -45q0 -6 4 -26l238 -711l194 572l-49 139q-15 43 -36 65.5
t-76 42.5l-56 21v45h480v-45l-56 -21q-96 -31 -96 -75q0 -15 6 -33l244 -711l190 570l-47 141q-13 42 -35 65t-77 43l-56 21v45h480v-45l-56 -21q-48 -18 -70 -37t-22 -45q0 -16 4 -26l238 -711l194 572l-49 139q-15 43 -36 65.5t-76 42.5l-56 21v45h479v-45l-55 -21
q-48 -18 -70 -37t-22 -45q0 -16 4 -26l242 -711l190 570l-47 141q-13 41 -35.5 64t-77.5 44l-55 21v45h479v-45l-55 -21q-48 -18 -70 -37t-22 -45q0 -16 4 -26l238 -711l235 694q6 15 6 31q0 53 -71 88l-56 27v45h375v-45l-63 -33q-95 -49 -127 -147l-263 -754l-163 -4
l-195 555l-190 -551l-166 -4l-195 563l-194 -559l-164 -4l-195 555l-190 -551l-166 -4l-195 563l-194 -559l-164 -4l-195 555l-190 -551z" />
    <glyph glyph-name=".notdef" horiz-adv-x="1333" 
d="M143 0v1610h1053v-1610h-1053zM1108 143v1379h-829zM231 88h832l-832 1382v-1382z" />
    <glyph glyph-name=".null" horiz-adv-x="1228" 
 />
    <glyph glyph-name="nonmarkingreturn" horiz-adv-x="682" 
 />
    <glyph glyph-name="space" unicode=" " horiz-adv-x="413" 
 />
    <glyph glyph-name="exclam" unicode="!" horiz-adv-x="468" 
d="M211 385l-72 1071v8h197v-8l-76 -1071h-49zM238 -10q-48 0 -83.5 34.5t-35.5 81.5q0 46 36 81.5t83 35.5t82.5 -35.5t35.5 -81.5q0 -47 -35.5 -81.5t-82.5 -34.5z" />
    <glyph glyph-name="quotedbl" unicode="&#x22;" horiz-adv-x="612" 
d="M166 991l-60 443l9 30h131l8 -30l-53 -443h-35zM424 991l-59 443l8 30h131l8 -30l-53 -443h-35z" />
    <glyph glyph-name="numbersign" unicode="#" horiz-adv-x="1300" 
d="M289 0l78 420h-273v80h287l63 340h-278v80h295l74 401h79l-73 -401h313l72 401h80l-72 -401h278v-80h-292l-60 -340h281v-80h-295l-76 -420h-80l76 420h-320l-77 -420h-80zM461 500h319l60 340h-316z" />
    <glyph glyph-name="dollar" unicode="$" horiz-adv-x="1140" 
d="M721 776q35 -16 64 -32t68 -42t68 -58.5t55.5 -73t41 -95t14.5 -115.5q0 -94 -37.5 -169.5t-100 -121.5t-139.5 -70t-161 -24q-10 0 -32 1t-32 1l-28 -235h-68l31 246q-57 9 -124.5 30.5t-95 32.5t-93.5 39l-25 248h33q125 -125 194.5 -184t120.5 -82l72 583l-125 56
q-123 56 -201 149t-78 227q0 118 59 205t153.5 129.5t211.5 42.5q24 0 78 -4l23 187h67l-24 -195q88 -14 202 -53l21 -219h-33q-120 112 -203 168l-65 -533zM524 864l45 -20l66 536q-35 13 -72 13q-113 0 -194.5 -66t-81.5 -176q0 -181 237 -287zM598 49q133 0 211 74.5
t78 189.5q0 95 -65.5 172t-174.5 125l-37 17l-69 -574q18 -4 57 -4z" />
    <glyph glyph-name="percent" unicode="%" horiz-adv-x="1593" 
d="M334 -35l-58 39l998 1481l55 -39zM438 739q-102 0 -179 50.5t-115 132t-38 180.5q0 154 89.5 258t242.5 104q154 0 243 -104.5t89 -257.5q0 -154 -89.5 -258.5t-242.5 -104.5zM438 797q75 0 126.5 80t51.5 225q0 162 -49.5 234.5t-128.5 72.5q-73 0 -125.5 -81.5
t-52.5 -225.5t52.5 -224.5t125.5 -80.5zM1163 -20q-153 0 -242.5 104.5t-89.5 257.5q0 154 89.5 258.5t242.5 104.5q154 0 243 -105t89 -258q0 -154 -89.5 -258t-242.5 -104zM1163 37q75 0 126.5 80t51.5 225q0 162 -49.5 234.5t-128.5 72.5q-73 0 -125.5 -81.5
t-52.5 -225.5t52.5 -224.5t125.5 -80.5z" />
    <glyph glyph-name="ampersand" unicode="&#x26;" horiz-adv-x="1527" 
d="M539 -25q-195 0 -318 121.5t-123 286.5q0 144 100 269.5t291 193.5q-86 106 -123.5 184.5t-37.5 153.5q0 129 93 217t245 88q77 0 140.5 -25t103.5 -65.5t61.5 -89t21.5 -97.5q0 -98 -78.5 -200.5t-216.5 -175.5l365 -441q39 57 92 205t53 184q0 8 -1.5 13.5t-7 12.5
t-11.5 12t-20 14t-26 16.5t-37 23t-46 29.5v41h391v-41q-119 -76 -139 -97q-15 -15 -21 -32q-1 -3 -14 -40.5t-17.5 -50.5t-18 -51t-21 -57.5t-21 -54t-23 -56t-22 -47.5t-23.5 -45t-22 -34l152 -178q44 -52 165 -117v-45h-233l-178 217q-88 -121 -214 -181.5t-261 -60.5z
M651 891q60 29 102 68.5t64 82.5t31.5 83.5t9.5 82.5q0 103 -52 154t-142 51t-142.5 -48.5t-52.5 -135.5q0 -76 41 -147t141 -191zM584 90q222 0 383 182l-428 516q-140 -58 -212.5 -156.5t-72.5 -211.5q0 -144 97 -237t233 -93z" />
    <glyph glyph-name="quotesingle" unicode="'" horiz-adv-x="354" 
d="M166 991l-60 443l9 30h131l8 -30l-53 -443h-35z" />
    <glyph glyph-name="parenleft" unicode="(" horiz-adv-x="731" 
d="M635 -406q-97 71 -178.5 164.5t-150 217t-107.5 283.5t-39 339t39 339t107.5 283.5t150 217t178.5 164.5l24 -37q-69 -65 -129 -155t-113 -209.5t-83.5 -275.5t-30.5 -327q0 -169 30 -324t82.5 -275t113 -210.5t130.5 -157.5z" />
    <glyph glyph-name="parenright" unicode=")" horiz-adv-x="731" 
d="M96 -406l-24 37q70 67 130.5 157.5t113 210.5t82.5 275t30 324q0 171 -30.5 327t-83.5 275.5t-113 209.5t-129 155l24 37q97 -71 178.5 -164.5t150 -217t107.5 -283.5t39 -339t-39 -339t-107.5 -283.5t-150 -217t-178.5 -164.5z" />
    <glyph glyph-name="asterisk" unicode="*" horiz-adv-x="974" 
d="M346 780l-141 103l33 43l208 186l-278 29l-53 18l55 166l51 -18l238 -138l-58 273v55h177l-5 -55l-55 -268l242 141l53 16l53 -168l-51 -14l-276 -29l209 -188l32 -45l-141 -103l-31 45l-114 254l-115 -260z" />
    <glyph glyph-name="plus" unicode="+" horiz-adv-x="1110" 
d="M524 283v381h-381v69h381v379h68v-379h381v-69h-381v-381h-68z" />
    <glyph glyph-name="comma" unicode="," horiz-adv-x="526" 
d="M182 -268l-35 22q50 77 73 125t42 115h-2q-47 0 -80 32.5t-33 79.5t37 80t88 33q48 0 80.5 -34t32.5 -93q0 -70 -46.5 -146.5t-156.5 -213.5z" />
    <glyph glyph-name="hyphen" unicode="-" horiz-adv-x="796" 
d="M115 473v119h573v-119h-573z" />
    <glyph glyph-name="period" unicode="." horiz-adv-x="526" 
d="M266 -10q-47 0 -83 35t-36 79q0 45 36 80t83 35q46 0 82.5 -35.5t36.5 -79.5t-36.5 -79t-82.5 -35z" />
    <glyph glyph-name="slash" unicode="/" horiz-adv-x="819" 
d="M63 -240l592 1821h76l-592 -1821h-76z" />
    <glyph glyph-name="zero" unicode="0" horiz-adv-x="1257" 
d="M627 -25q-103 0 -194 52.5t-159 147.5t-107.5 236t-39.5 308q0 165 40 306t108.5 236.5t159.5 149t192 53.5q103 0 195 -55t160 -151.5t108 -236.5t40 -302q0 -338 -142 -541t-361 -203zM637 51q134 0 227.5 180t93.5 488q0 311 -96 490.5t-239 179.5
q-137 0 -230.5 -179.5t-93.5 -490.5t96 -489.5t242 -178.5z" />
    <glyph glyph-name="one" unicode="1" horiz-adv-x="821" 
d="M121 0v45l117 33q110 29 110 63v1086l-215 47v24l375 166v-1323q0 -36 102 -63l125 -33v-45h-614z" />
    <glyph glyph-name="two" unicode="2" horiz-adv-x="1075" 
d="M106 0v66l132 141q34 37 88.5 94.5t86 90.5t77 83.5t72.5 84t62 80.5t55 84t42.5 84t34 90t19 93.5t7.5 102.5q0 138 -49 216.5t-155 78.5q-41 0 -78.5 -15.5t-109.5 -74.5t-179 -171h-25l19 222q30 19 76 41t134.5 47.5t166.5 25.5q161 0 260.5 -86.5t99.5 -247.5
q0 -109 -53 -226.5t-197.5 -298t-400.5 -437.5v-6h678l-58 -162h-805z" />
    <glyph glyph-name="three" unicode="3" horiz-adv-x="1118" 
d="M506 -25q-74 0 -176 21.5t-203 62.5l33 203h24q107 -103 160.5 -145.5t86.5 -54t87 -11.5q58 0 111 21.5t97.5 64.5t70.5 115.5t26 165.5q0 177 -90.5 273.5t-226.5 96.5q-73 0 -148 -28l-55 69l475 449h-588l58 162h725v-70l-533 -498l9 -10q66 15 118 15
q81 0 157.5 -31.5t136 -87.5t95 -139.5t35.5 -180.5q0 -106 -42 -195.5t-111.5 -146.5t-155.5 -89t-176 -32z" />
    <glyph glyph-name="four" unicode="4" horiz-adv-x="1167" 
d="M723 0v395h-623v54l510 991h219v-17l-645 -956h539v397l160 49v-446h198v-72h-198v-395h-160z" />
    <glyph glyph-name="five" unicode="5" horiz-adv-x="1144" 
d="M532 -25q-89 0 -198 30t-205 77l45 205h25q134 -148 200.5 -192t124.5 -44q57 0 112.5 22t104.5 65.5t79 120t30 175.5t-29 176.5t-77 122.5t-104.5 67.5t-117.5 22.5q-76 0 -151 -32.5t-133 -88.5l-56 15l113 723h694l-57 -162h-594l-72 -467q151 98 307 98
q80 0 158 -30.5t142.5 -85.5t104.5 -142.5t40 -191.5q0 -139 -67.5 -251t-178 -172.5t-240.5 -60.5z" />
    <glyph glyph-name="six" unicode="6" horiz-adv-x="1187" 
d="M897 1464l18 -57q-239 -103 -400.5 -283t-209.5 -419q60 75 150 120t190 45q180 0 306 -122.5t126 -303.5q0 -91 -36 -176t-98.5 -150t-154 -104t-194.5 -39q-65 0 -127 15.5t-125 55t-109.5 99.5t-76 157t-29.5 220q0 173 59 326t165 269.5t243.5 203.5t302.5 143z
M606 768q-84 0 -169.5 -38.5t-143.5 -119.5q-4 -58 -4 -86q0 -128 33.5 -233t105 -172.5t170.5 -67.5q131 0 221 105t90 264q0 152 -81 250t-222 98z" />
    <glyph glyph-name="seven" unicode="7" horiz-adv-x="1067" 
d="M211 -6l657 1268h-774l64 178h835v-68l-667 -1378h-115z" />
    <glyph glyph-name="eight" unicode="8" horiz-adv-x="1179" 
d="M588 -25q-122 0 -226 45.5t-168.5 133t-64.5 200.5q0 75 26.5 139.5t74.5 112.5t104.5 83t124.5 61l-27 16q-27 16 -38.5 24t-43 30.5t-49 40t-43 48t-39.5 59.5t-24.5 68.5t-10.5 81.5q0 107 62 188t153 119.5t191 38.5q97 0 187 -36t152 -110t62 -169q0 -62 -29 -123
t-75 -107t-94 -80t-95 -55l47 -28q45 -28 77 -49t79 -61.5t76.5 -79t51.5 -93t22 -111.5q0 -158 -132 -272.5t-331 -114.5zM633 825q223 102 223 305q0 125 -77 192t-193 67q-113 0 -181.5 -62.5t-68.5 -161.5q0 -54 22 -102.5t64.5 -88.5t81.5 -68t94 -60zM594 51
q141 0 225 73t84 181q0 45 -17.5 87.5t-43 75.5t-69 70.5t-81 63.5t-94.5 62l-70 45q-105 -45 -178.5 -134t-73.5 -219t84 -217.5t234 -87.5z" />
    <glyph glyph-name="nine" unicode="9" horiz-adv-x="1187" 
d="M291 -25l-19 58q239 103 401 283.5t210 418.5q-60 -76 -150 -121t-190 -45q-180 0 -306 122.5t-126 303.5q0 91 36 176t98.5 150t154 104t194.5 39q65 0 127 -15.5t125 -54.5t109.5 -99t76 -157t29.5 -220q0 -173 -59.5 -326t-165 -270t-243 -204t-302.5 -143zM582 672
q85 0 170 38t143 119q4 58 4 86q0 128 -33.5 233.5t-105 173t-170.5 67.5q-131 0 -221 -105t-90 -264q0 -152 81 -250t222 -98z" />
    <glyph glyph-name="colon" unicode=":" horiz-adv-x="518" 
d="M262 721q-47 0 -83 36t-36 83t36 82.5t83 35.5t83 -35.5t36 -82.5t-36 -83t-83 -36zM262 -10q-47 0 -83 36t-36 83t36 82.5t83 35.5t83 -35.5t36 -82.5t-36 -83t-83 -36z" />
    <glyph glyph-name="semicolon" unicode=";" horiz-adv-x="520" 
d="M264 721q-47 0 -83 36t-36 83t36 82.5t83 35.5t83 -35.5t36 -82.5t-36 -83t-83 -36zM178 -268l-35 22q50 77 73 125t42 115h-2q-47 0 -80 32.5t-33 79.5t37 80t88 33q48 0 80.5 -34t32.5 -93q0 -70 -46.5 -146.5t-156.5 -213.5z" />
    <glyph glyph-name="less" unicode="&#x3c;" horiz-adv-x="1087" 
d="M950 242l-807 426v63l807 430v-78l-721 -383l721 -381v-77z" />
    <glyph glyph-name="equal" unicode="=" horiz-adv-x="987" 
d="M850 838v-70h-707v70h707zM850 618v-69h-707v69h707z" />
    <glyph glyph-name="greater" unicode="&#x3e;" horiz-adv-x="1087" 
d="M143 242v77l721 381l-721 383v78l807 -430v-63z" />
    <glyph glyph-name="question" unicode="?" horiz-adv-x="958" 
d="M383 387l-129 354q41 14 68.5 24.5t78 34t86.5 46t79 59.5t70 76t45.5 92.5t18.5 112.5q0 106 -55.5 168.5t-128.5 62.5q-74 0 -127.5 -30.5t-193.5 -153.5h-25l-55 153q92 44 199 75.5t188 31.5q68 0 131.5 -23t114 -65t80.5 -107.5t30 -144.5q0 -87 -38 -166
t-90.5 -132.5t-125.5 -101.5t-125.5 -72.5t-107.5 -45.5l47 -238zM377 -6q-47 0 -83 35t-36 82q0 46 36 81t83 35t83 -35t36 -81q0 -47 -36 -82t-83 -35z" />
    <glyph glyph-name="at" unicode="@" horiz-adv-x="1914" 
d="M813 -311q-198 0 -352.5 72.5t-244 212.5t-89.5 327q0 146 54.5 286.5t151.5 255t222.5 202t275.5 136t302 48.5q132 0 243 -37.5t185.5 -98.5t127 -140.5t76 -161.5t23.5 -164q0 -125 -56 -239t-144.5 -193t-200 -125.5t-220.5 -46.5q-69 0 -104 21.5t-35 72.5
q0 52 45 145l-12 6q-64 -105 -174 -172t-223 -67q-87 0 -144 53t-57 149q0 102 66.5 219.5t169 212.5t234.5 158.5t253 63.5q62 0 108 -21l168 35l-278 -717q-15 -40 -15 -55q0 -39 58 -39q51 0 106 18q38 13 82.5 39t97.5 72.5t95 103t70 137t28 169.5q0 75 -18.5 148.5
t-61.5 146t-106.5 127t-161.5 88.5t-219 34q-137 0 -272.5 -43t-250.5 -123t-203.5 -185.5t-139 -238.5t-50.5 -274q0 -262 166.5 -411.5t441.5 -149.5q282 0 535 166h119q-337 -223 -672 -223zM766 139q45 0 95 22.5t116.5 83.5t130.5 156l158 406q-35 24 -101 24
q-97 0 -197 -53.5t-173 -132.5t-119.5 -173t-46.5 -173q0 -70 36 -115t101 -45z" />
    <glyph glyph-name="A" unicode="A" horiz-adv-x="1564" 
d="M63 0v45l64 23q67 23 108 63t66 105l387 1028l-80 200h189l495 -1274q27 -73 121 -110l90 -35v-45h-540v45l90 35q67 26 67 72q0 14 -8 38l-119 308h-506l-98 -262q-18 -46 -18 -82q0 -61 78 -86l63 -23v-45h-449zM518 580h443l-224 583h-2z" />
    <glyph glyph-name="B" unicode="B" horiz-adv-x="1370" 
d="M94 0v45l74 29q58 24 82 45t24 57v1112q0 36 -24.5 57.5t-81.5 45.5l-74 28v45h631q218 0 340.5 -99t122.5 -241q0 -121 -86.5 -212t-222.5 -124v-10q171 -35 268.5 -136t97.5 -243q0 -78 -32 -148t-95.5 -127t-170 -90.5t-242.5 -33.5h-611zM446 807h256q75 0 145.5 34
t119.5 104t49 159q0 117 -81 196.5t-235 79.5h-254v-573zM446 84h254q175 0 271 77t96 238q0 84 -25.5 148t-70 101.5t-99 56t-118.5 18.5h-308v-639z" />
    <glyph glyph-name="C" unicode="C" horiz-adv-x="1394" 
d="M807 -25q-144 0 -268.5 53t-216 149t-143.5 240t-52 318q0 162 53 303t143.5 239.5t214.5 155t263 56.5q191 0 434 -82l20 -225h-24q-191 148 -260 183.5t-168 35.5q-97 0 -184.5 -43.5t-156.5 -125t-110 -210.5t-41 -287q0 -154 39.5 -282t107 -212.5t158.5 -131
t195 -46.5q56 0 96 11.5t116 58.5t208 148h24l-20 -224q-255 -82 -428 -82z" />
    <glyph glyph-name="D" unicode="D" horiz-adv-x="1513" 
d="M94 0v45l74 29q58 24 82 45t24 57v1112q0 36 -24.5 57.5t-81.5 45.5l-74 28v45h580q209 0 371.5 -93t251.5 -259.5t89 -378.5q0 -217 -89.5 -383.5t-252 -258t-374.5 -91.5h-576zM446 84h216q111 0 202 33.5t153 92t104 140.5t61.5 176.5t19.5 202.5t-19 203t-61 178
t-104 142.5t-152 93.5t-200 34h-220v-1296z" />
    <glyph glyph-name="E" unicode="E" horiz-adv-x="1329" 
d="M94 0v45l74 29q58 24 82 45t24 57v1112q0 36 -24.5 57.5t-81.5 45.5l-74 28v45h1022l35 -338h-33q-111 164 -159 210t-113 46h-400v-581h400q19 0 35.5 7.5t39 31.5t37 42.5t50.5 67.5h32v-375h-32q-58 82 -91.5 114t-70.5 32h-400v-639h463q43 0 71.5 15t74 71
t123.5 178h34l-36 -346h-1082z" />
    <glyph glyph-name="F" unicode="F" horiz-adv-x="1218" 
d="M94 0v45l74 29q58 24 82 45t24 57v1112q0 36 -24.5 57.5t-81.5 45.5l-74 28v45h998l34 -338h-32q-110 163 -159 209.5t-114 46.5h-375v-581h375q19 0 35.5 7.5t39 31.5t37 42.5t50.5 67.5h33v-375h-33q-58 82 -91.5 114t-70.5 32h-375v-545q0 -36 32 -57t108 -45l94 -29
v-45h-586z" />
    <glyph glyph-name="G" unicode="G" horiz-adv-x="1480" 
d="M791 -20q-154 0 -279.5 56.5t-209.5 156.5t-129.5 237t-45.5 297q0 166 52 308t143.5 241.5t220.5 156t278 56.5q103 0 227 -26.5t201 -55.5l19 -223h-25q-124 99 -196.5 145t-117.5 59t-108 13q-107 0 -200.5 -47.5t-162 -133t-108 -213t-39.5 -280.5q0 -302 142 -480.5
t374 -178.5q105 0 198 30t134 74v420l-391 65v48h563v-592l-108 -17q-209 -116 -432 -116z" />
    <glyph glyph-name="H" unicode="H" horiz-adv-x="1609" 
d="M94 0v45l74 29q58 24 82 45t24 57v1112q0 36 -24.5 57.5t-81.5 45.5l-74 28v45h533v-45l-74 -28q-58 -24 -82.5 -45.5t-24.5 -57.5v-479h723v479q0 36 -24.5 57.5t-81.5 45.5l-74 28v45h533v-45l-74 -28q-58 -24 -82.5 -45.5t-24.5 -57.5v-1112q0 -36 24.5 -57t82.5 -45
l74 -29v-45h-533v45l74 29q58 24 82 45t24 57v545h-723v-545q0 -36 24.5 -57t82.5 -45l74 -29v-45h-533z" />
    <glyph glyph-name="I" unicode="I" horiz-adv-x="714" 
d="M94 0v45l74 29q58 24 82 45t24 57v1112q0 36 -24.5 57.5t-81.5 45.5l-74 28v45h533v-45l-74 -28q-58 -24 -82.5 -45.5t-24.5 -57.5v-1112q0 -36 24.5 -57t82.5 -45l74 -29v-45h-533z" />
    <glyph glyph-name="J" unicode="J" horiz-adv-x="1077" 
d="M500 -20q-173 0 -314 98l29 254h25q71 -117 113 -171.5t73.5 -73.5t73.5 -19q172 0 172 268v952q0 36 -24.5 57.5t-82.5 45.5l-73 28v45h532v-45l-74 -28q-57 -24 -81.5 -45.5t-24.5 -57.5v-973q0 -88 -32 -155.5t-84 -105t-109.5 -56t-118.5 -18.5z" />
    <glyph glyph-name="K" unicode="K" horiz-adv-x="1454" 
d="M94 0v45l74 29q58 24 82 45t24 57v1112q0 36 -24.5 57.5t-81.5 45.5l-74 28v45h533v-45l-74 -28q-58 -24 -82.5 -45.5t-24.5 -57.5v-635l510 621q23 30 23 47q0 18 -18.5 33t-61.5 35l-68 30v45h498v-45l-92 -37q-74 -30 -113.5 -56.5t-70.5 -63.5l-402 -484l4 -6l131 14
l402 -598q28 -42 60 -68.5t118 -78.5v-41h-254l-494 737l-172 -209v-352q0 -36 24.5 -57t82.5 -45l74 -29v-45h-533z" />
    <glyph glyph-name="L" unicode="L" horiz-adv-x="1304" 
d="M94 0v45l74 29q58 24 82 45t24 57v1112q0 36 -24.5 57.5t-81.5 45.5l-74 28v45h533v-45l-74 -28q-58 -24 -82.5 -45.5t-24.5 -57.5v-1206h437q42 0 71 16.5t73.5 71t123.5 176.5h35l-37 -346h-1055z" />
    <glyph glyph-name="M" unicode="M" horiz-adv-x="1943" 
d="M84 0v45l86 37q113 50 113 131v1128l-195 74v49h389l502 -1370l465 1370h411v-45l-73 -28q-58 -24 -82.5 -45.5t-24.5 -57.5v-1112q0 -36 24.5 -57t82.5 -45l73 -29v-45h-532v45l74 29q58 24 82 45t24 57v1200h-4l-467 -1376h-190l-471 1280h-4v-1067q0 -80 112 -131
l86 -37v-45h-481z" />
    <glyph glyph-name="N" unicode="N" horiz-adv-x="1599" 
d="M84 0v45l86 37q113 50 113 131v1139l-195 63v49h377l782 -1370v1157q0 82 -112 131l-86 37v45h481v-45l-86 -37q-113 -51 -113 -131v-1251h-221l-739 1298h-4v-1085q0 -80 112 -131l86 -37v-45h-481z" />
    <glyph glyph-name="O" unicode="O" horiz-adv-x="1601" 
d="M801 -25q-142 0 -266.5 57t-214 156.5t-141.5 241t-52 303.5t51.5 302.5t141 240t214.5 156.5t267 57t267 -57t214.5 -156.5t141 -240t51.5 -302.5t-51.5 -303t-141 -240.5t-214.5 -157t-267 -57.5zM805 63q135 0 245.5 85t175 239t64.5 346q0 294 -140 481t-351 187
q-102 0 -192 -50.5t-155 -138.5t-103 -213.5t-38 -269.5q0 -191 65 -344t178 -237.5t251 -84.5z" />
    <glyph glyph-name="P" unicode="P" horiz-adv-x="1275" 
d="M94 0v45l74 29q58 24 82 45t24 57v1112q0 36 -24.5 57.5t-81.5 45.5l-74 28v45h590q105 0 197 -25t167.5 -74t119.5 -131.5t44 -189.5q0 -87 -29 -158.5t-79.5 -121t-118.5 -83.5t-145.5 -49.5t-161.5 -15.5h-232v-440q0 -36 29 -57t98 -45l91 -29v-45h-570zM446 700h209
q189 0 284 79t95 265q0 336 -366 336h-222v-680z" />
    <glyph glyph-name="Q" unicode="Q" horiz-adv-x="1601" 
d="M1319 -330l-412 314q-53 -9 -106 -9q-142 0 -266.5 57t-214 156.5t-141.5 241t-52 303.5t51.5 302.5t141 240t214.5 156.5t267 57t267 -57t214.5 -156.5t141 -240t51.5 -302.5q0 -264 -129 -460.5t-340 -264.5v-10l153 -23l418 -256v-49h-258zM805 63q97 0 185.5 50.5
t154.5 137.5t105.5 213t39.5 269q0 145 -39.5 270.5t-106 212t-156.5 136t-189 49.5q-130 0 -241.5 -85.5t-179 -240.5t-67.5 -346q0 -142 40 -267.5t107 -212t157.5 -136.5t189.5 -50z" />
    <glyph glyph-name="R" unicode="R" horiz-adv-x="1423" 
d="M94 0v45l74 29q58 24 82 45t24 57v1112q0 36 -24.5 57.5t-81.5 45.5l-74 28v45h629q221 0 340 -110.5t119 -276.5q0 -178 -132 -294.5t-358 -116.5h-6v-15l172 -59l283 -389q72 -98 194 -158v-45h-252l-487 664h-150v-488q0 -36 24.5 -57t82.5 -45l74 -29v-45h-533z
M446 748h211q351 0 351 313q0 156 -85.5 237.5t-222.5 81.5h-254v-632z" />
    <glyph glyph-name="S" unicode="S" horiz-adv-x="1140" 
d="M594 -25q-183 0 -442 117l-25 250h33q128 -131 203 -191t120 -75t115 -15q134 0 209.5 70.5t75.5 187.5q0 97 -64 175t-172 127l-225 102q-123 56 -201 150t-78 231q0 120 59 209t154 132.5t211 43.5q164 0 346 -70l21 -221h-33q-98 94 -156 137.5t-94 55.5t-88 12
q-114 0 -193 -62t-79 -174q0 -182 233 -290l197 -91q44 -20 78.5 -39t80.5 -56.5t77 -79.5t53 -106.5t22 -139.5q0 -95 -37 -171t-99.5 -123t-139.5 -71.5t-162 -24.5z" />
    <glyph glyph-name="T" unicode="T" horiz-adv-x="1374" 
d="M424 0v45l74 29q58 24 82 45t24 57v1206h-219q-64 0 -112 -46t-160 -210h-33l35 338h1151l34 -338h-32q-112 163 -160.5 209.5t-112.5 46.5h-219v-1206q0 -36 24.5 -57t82.5 -45l73 -29v-45h-532z" />
    <glyph glyph-name="U" unicode="U" horiz-adv-x="1501" 
d="M752 -25q-71 0 -138.5 14t-137 50.5t-120.5 92.5t-83.5 148t-32.5 209v799q0 36 -24.5 57.5t-82.5 45.5l-74 28v45h533v-45l-74 -28q-57 -24 -81.5 -45.5t-24.5 -57.5v-760q0 -207 103 -319.5t284 -112.5q167 0 276 98.5t109 270.5v786q0 81 -103 131l-77 37v45h444v-45
l-78 -37q-102 -50 -102 -131v-800q0 -214 -146.5 -345t-369.5 -131z" />
    <glyph glyph-name="V" unicode="V" horiz-adv-x="1480" 
d="M645 0l-393 1272q-12 37 -37.5 64.5t-77.5 47.5l-90 35v45h533v-45l-91 -35q-71 -27 -71 -77q0 -17 6 -35l364 -1182l342 1135q13 41 13 67q0 38 -25 63t-82 42l-75 22v45h483v-45l-64 -22q-66 -23 -104 -64t-59 -108l-373 -1225h-199z" />
    <glyph glyph-name="W" unicode="W" horiz-adv-x="2217" 
d="M651 0l-399 1272q-20 75 -115 112l-90 35v45h533v-45l-91 -35q-69 -26 -69 -75q0 -19 6 -37l369 -1176l274 897l-90 279q-23 75 -117 112l-90 35v45h533v-45l-91 -35q-69 -26 -69 -75q0 -19 6 -37l377 -1182l340 1135q12 37 12 67q0 38 -24.5 63t-81.5 42l-76 22v45h483
v-45l-63 -22q-67 -23 -105 -64t-59 -108l-371 -1225h-197l-274 858l-264 -858h-197z" />
    <glyph glyph-name="X" unicode="X" horiz-adv-x="1536" 
d="M74 0v45l73 29q73 29 121 62t90 95l332 486l-381 561q-53 79 -155 115l-78 26v45h551v-45l-78 -26q-72 -25 -72 -64q0 -19 21 -51l303 -451l272 406q51 74 51 100q0 19 -15.5 33t-53.5 27l-74 26v45h475v-45l-74 -28q-72 -29 -120.5 -62.5t-90.5 -95.5l-323 -475
l387 -572q56 -79 156 -114l77 -27v-45h-548v45l77 27q70 25 70 63q0 21 -20 51l-310 463l-280 -416q-28 -42 -36.5 -60.5t-8.5 -37.5q0 -40 59 -61l80 -29v-45h-477z" />
    <glyph glyph-name="Y" unicode="Y" horiz-adv-x="1439" 
d="M455 0v45l73 29q58 24 82.5 45t24.5 57v479l-387 625q-41 67 -135 104l-90 35v45h550v-45l-90 -35q-61 -24 -61 -59q0 -19 16 -45l328 -535l303 496q33 58 33 88q0 46 -70 68l-63 22v45h458v-45l-63 -22q-68 -24 -115.5 -60.5t-83.5 -95.5l-358 -584v-481q0 -36 24 -57
t82 -45l74 -29v-45h-532z" />
    <glyph glyph-name="Z" unicode="Z" horiz-adv-x="1298" 
d="M145 0v45l832 1337h-477q-64 0 -112.5 -46.5t-160.5 -209.5h-32l34 338h953v-45l-832 -1337h531q42 0 71 16.5t73.5 71t123.5 176.5h35l-37 -346h-1002z" />
    <glyph glyph-name="bracketleft" unicode="[" horiz-adv-x="716" 
d="M233 -381v1966h355v-67h-236v-1831h236v-68h-355z" />
    <glyph glyph-name="backslash" unicode="\" horiz-adv-x="804" 
d="M762 -240h-76l-592 1821h76z" />
    <glyph glyph-name="bracketright" unicode="]" horiz-adv-x="716" 
d="M483 -381h-354v68h236v1831h-236v67h354v-1966z" />
    <glyph glyph-name="asciicircum" unicode="^" horiz-adv-x="1214" 
d="M233 748l349 716h53l352 -716h-78l-299 606l-299 -606h-78z" />
    <glyph glyph-name="underscore" unicode="_" horiz-adv-x="1032" 
d="M119 -233v71h801v-71h-801z" />
    <glyph glyph-name="grave" unicode="`" horiz-adv-x="645" 
d="M489 1106l-354 283l141 104l240 -365z" />
    <glyph glyph-name="a" unicode="a" horiz-adv-x="1044" 
d="M360 -20q-114 0 -194 64.5t-80 176.5q0 70 37 130.5t94.5 103t138 76.5t157.5 54.5t163 35.5v112q0 21 -1 34.5t-4 40.5t-11.5 45.5t-22 38.5t-37.5 30t-55 10q-40 0 -89 -32.5t-196 -154.5h-24l-89 136q266 123 410 123q134 0 208.5 -73.5t74.5 -191.5l-2 -551
q0 -40 29.5 -62t125.5 -44v-45l-309 -55l8 176h-14q-49 -77 -134 -127.5t-184 -50.5zM412 92q133 0 264 139v330q-109 -26 -202 -69.5t-158.5 -111t-65.5 -142.5q0 -66 46 -106t116 -40z" />
    <glyph glyph-name="b" unicode="b" horiz-adv-x="1136" 
d="M629 -20q-89 0 -161.5 49t-141.5 141h-15l8 -170l-151 -8v1335l-158 107v32l322 60v-707q141 185 315 185q118 0 209.5 -72t138.5 -185.5t47 -246.5q0 -216 -124 -368t-289 -152zM604 86q88 0 151 58.5t91 146t28 192.5q0 175 -74.5 290.5t-203.5 115.5q-144 0 -264 -148
v-497q59 -80 130 -119t142 -39z" />
    <glyph glyph-name="c" unicode="c" horiz-adv-x="987" 
d="M522 -20q-182 0 -305 143t-123 364q0 224 127.5 370.5t304.5 146.5q141 0 305 -80l-24 -187h-25q-145 127 -191.5 158t-84.5 31q-46 0 -91.5 -24.5t-84 -70t-62.5 -120t-24 -164.5q0 -192 99.5 -311t242.5 -119q73 0 146 34t122 105l43 -14q-11 -41 -41.5 -85t-77 -84.5
t-114.5 -66.5t-142 -26z" />
    <glyph glyph-name="d" unicode="d" horiz-adv-x="1185" 
d="M485 -20q-116 0 -207 72.5t-137.5 186t-46.5 244.5q0 143 58 263.5t153 189t203 68.5q88 0 159.5 -48.5t139.5 -138.5v510l-158 107v32l322 60v-1350q0 -40 22 -62.5t80 -41.5l53 -17l4 -45l-317 -20l8 180h-12q-74 -99 -152.5 -144.5t-171.5 -45.5zM545 94
q142 0 262 152v491q-121 160 -275 160q-88 0 -151 -58.5t-91 -146t-28 -192.5q0 -175 75.5 -290.5t207.5 -115.5z" />
    <glyph glyph-name="e" unicode="e" horiz-adv-x="1032" 
d="M547 -20q-194 0 -323.5 143.5t-129.5 363.5q0 141 55.5 259t155.5 188t223 70q112 0 202 -59t137.5 -152.5t47.5 -200.5v-39h-669q0 -107 29.5 -192.5t79.5 -138t111.5 -80t129.5 -27.5q182 0 293 153l45 -12q-34 -112 -142.5 -194t-244.5 -82zM250 627h495
q-9 132 -70.5 216.5t-162.5 84.5q-96 0 -169 -79t-93 -222z" />
    <glyph glyph-name="f" unicode="f" horiz-adv-x="753" 
d="M61 0v45l56 21q57 21 78.5 45t21.5 65v721h-156v82h156v76q0 227 93.5 342.5t258.5 115.5q111 0 316 -49l-90 -145h-25q-118 71 -167 93t-75 22q-23 0 -45.5 -9t-47 -30.5t-39.5 -67t-15 -108.5v-240h287v-12l-39 -70h-248v-721q0 -40 26 -64.5t95 -45.5l65 -21v-45h-506
z" />
    <glyph glyph-name="g" unicode="g" horiz-adv-x="1095" 
d="M463 -438q-67 0 -133.5 12.5t-125 37t-94.5 66t-36 93.5q0 39 20.5 77t52.5 66.5t56.5 46t46.5 29.5v10q-69 7 -100 39.5t-31 73.5t42 82.5t187 148.5v14q-107 38 -166 120.5t-59 189.5q0 148 109 242t288 94h45l359 90h24l-33 -154l-247 29l-4 -11q31 -9 59 -21
t63.5 -36t61.5 -53.5t43.5 -75.5t17.5 -100q0 -141 -108 -239.5t-291 -98.5q-28 0 -74 4q-87 -74 -111 -101.5t-24 -48.5q0 -20 16 -31.5t43 -11.5q47 0 181 2.5t153 2.5q157 0 237.5 -57.5t80.5 -164.5q0 -72 -35 -133.5t-92 -103.5t-130 -72t-147 -43.5t-145 -13.5z
M520 406q96 0 159.5 68t63.5 194q0 127 -63.5 195.5t-157.5 68.5q-95 0 -165 -69.5t-70 -196.5q0 -124 68.5 -192t164.5 -68zM481 -362q162 0 282 65t120 156q0 60 -46.5 103.5t-136.5 43.5q-98 0 -350 -8q-133 -94 -133 -199q0 -75 68.5 -118t195.5 -43z" />
    <glyph glyph-name="h" unicode="h" horiz-adv-x="1230" 
d="M63 0v45l56 21q57 21 78.5 45t21.5 65v1151l-158 107v32l322 60v-735q160 213 362 213q120 0 197.5 -72.5t77.5 -206.5v-549q0 -41 21.5 -65t78.5 -45l56 -21v-45h-476v45l56 21q57 21 78.5 45t21.5 65v463q0 235 -180 235q-149 0 -293 -163v-535q0 -41 21.5 -65
t78.5 -45l56 -21v-45h-476z" />
    <glyph glyph-name="i" unicode="i" horiz-adv-x="593" 
d="M272 1178q-44 0 -78 33t-34 77q0 43 34 76t78 33t78.5 -33t34.5 -76q0 -44 -34 -77t-79 -33zM63 0v45l56 21q57 21 78.5 45t21.5 65v623l-158 96v33l322 84v-836q0 -41 21.5 -65t78.5 -45l56 -21v-45h-476z" />
    <glyph glyph-name="j" unicode="j" horiz-adv-x="595" 
d="M272 1178q-44 0 -78 33t-34 77q0 43 34 76t78 33t78.5 -33t34.5 -76q0 -44 -34 -77t-79 -33zM33 -438l-10 43q109 56 152.5 131.5t43.5 228.5v834l-158 96v33l322 84v-983q0 -193 -87.5 -304.5t-262.5 -162.5z" />
    <glyph glyph-name="k" unicode="k" horiz-adv-x="1153" 
d="M63 0v45l56 21q57 21 78.5 45t21.5 65v1151l-158 107v32l322 60v-1030l373 315q30 27 30 45q0 15 -12 25l-94 73v25h393v-25q-169 -113 -223 -157l-297 -248l2 -4l115 35l321 -443q35 -51 107 -92v-45h-201l-373 524l-141 -118v-230q0 -41 21.5 -65t78.5 -45l56 -21v-45
h-476z" />
    <glyph glyph-name="l" unicode="l" horiz-adv-x="593" 
d="M63 0v45l56 21q57 21 78.5 45t21.5 65v1151l-158 107v32l322 60v-1350q0 -41 21.5 -65t78.5 -45l56 -21v-45h-476z" />
    <glyph glyph-name="m" unicode="m" horiz-adv-x="1806" 
d="M63 0v45l56 21q57 21 78.5 45t21.5 65v623l-158 96v33l320 84l-14 -236h4q64 99 154.5 163.5t199.5 64.5q99 0 171 -58t89 -164q64 98 152 160t194 62q113 0 188.5 -72.5t75.5 -206.5v-549q0 -40 21.5 -64.5t79.5 -45.5l55 -21v-45h-475v45l55 21q58 21 79.5 45.5
t21.5 64.5v463q0 235 -172 235q-67 0 -132 -38t-139 -123v-537q0 -40 21.5 -64.5t79.5 -45.5l55 -21v-45h-475v45l55 21q57 21 78.5 45t21.5 65v463q0 235 -172 235q-67 0 -131.5 -38t-138.5 -123v-537q0 -41 21.5 -65t78.5 -45l56 -21v-45h-476z" />
    <glyph glyph-name="n" unicode="n" horiz-adv-x="1230" 
d="M63 0v45l56 21q57 21 78.5 45t21.5 65v623l-158 96v33l320 84l-14 -230h10q70 97 161.5 159.5t198.5 62.5q125 0 204 -72t79 -207v-549q0 -41 21.5 -65t78.5 -45l56 -21v-45h-476v45l56 21q57 21 78.5 45t21.5 65v463q0 235 -180 235q-149 0 -293 -163v-535
q0 -41 21.5 -65t78.5 -45l56 -21v-45h-476z" />
    <glyph glyph-name="o" unicode="o" horiz-adv-x="1150" 
d="M575 -20q-114 0 -207 43t-151.5 115t-90.5 163t-32 191t32 191t90.5 163t151.5 115t207 43t207 -43t152 -115t91 -163t32 -191t-32 -191t-91 -163t-152 -115t-207 -43zM575 55q61 0 115 27t97 79.5t68.5 137.5t25.5 193q0 115 -25 201.5t-69 136t-97 74t-115 24.5
q-58 0 -111.5 -27t-97 -79t-70 -137.5t-26.5 -192.5t26.5 -193t70 -138t97 -79t111.5 -27z" />
    <glyph glyph-name="p" unicode="p" horiz-adv-x="1148" 
d="M25 -426v45l55 21q57 21 78.5 45t21.5 65v1049l-157 96v33l319 84l-12 -199h10q141 191 324 191q87 0 162 -42.5t124 -113t77 -161t28 -187.5q0 -107 -34.5 -204.5t-91 -166t-132.5 -109t-156 -40.5q-88 0 -159 47.5t-138 136.5v-414q0 -41 29.5 -65t111.5 -45l76 -21
v-45h-536zM616 86q88 0 151 58.5t91.5 146t28.5 192.5q0 175 -75.5 290.5t-207.5 115.5q-140 0 -260 -148v-497q117 -158 272 -158z" />
    <glyph glyph-name="q" unicode="q" horiz-adv-x="1146" 
d="M633 -426v45l61 21q64 21 87.5 45.5t23.5 64.5v414q-140 -184 -320 -184q-116 0 -207 72.5t-137.5 186t-46.5 244.5q0 143 58 263.5t153 189t203 68.5q90 0 161 -49t136 -136h12l-12 160l164 8v-1237q0 -41 21.5 -65t78.5 -45l55 -21v-45h-491zM545 94q140 0 260 148v497
q-117 158 -273 158q-88 0 -151 -58.5t-91 -146t-28 -192.5q0 -175 75.5 -290.5t207.5 -115.5z" />
    <glyph glyph-name="r" unicode="r" horiz-adv-x="831" 
d="M63 0v45l56 21q57 21 78.5 45t21.5 65v623l-158 96v33l318 84l-12 -230h10q60 105 127 163.5t158 58.5q47 0 100 -33l-33 -160q-128 29 -182 29q-38 0 -74.5 -31t-89.5 -117v-516q0 -40 27 -64.5t98 -45.5l70 -21v-45h-515z" />
    <glyph glyph-name="s" unicode="s" horiz-adv-x="894" 
d="M451 -20q-80 0 -169 21.5t-155 53.5l-25 207h33q69 -67 101.5 -97t66 -58t56 -36t45 -12t59.5 -4q81 0 135.5 42.5t54.5 111.5q0 114 -161 184l-150 66q-238 105 -238 282q0 65 30.5 116.5t81 83t111 47.5t124.5 16q134 0 268 -50l22 -186h-32q-143 107 -188 133.5
t-87 26.5q-76 0 -129 -44t-53 -114q0 -60 41 -100.5t113 -69.5l159 -65q45 -18 84 -43t75 -59.5t56.5 -82.5t20.5 -102q0 -123 -102 -195.5t-248 -72.5z" />
    <glyph glyph-name="t" unicode="t" horiz-adv-x="712" 
d="M434 -16q-44 0 -84.5 14.5t-75 43t-55 79.5t-20.5 117v659h-148v82h148v127l159 162h4v-289h306v-82h-306v-635q0 -104 41.5 -146t102.5 -42q68 0 127 39l24 -33q-83 -96 -223 -96z" />
    <glyph glyph-name="u" unicode="u" horiz-adv-x="1232" 
d="M500 -20q-126 0 -204.5 72t-78.5 206v545q0 41 -21.5 65t-78.5 45l-56 21v45h320v-639q0 -231 182 -231q146 0 291 163v531q0 41 -21.5 65t-78.5 45l-56 21v45h320v-803q0 -40 22 -62.5t80 -41.5l54 -17l4 -45l-322 -20l12 211h-8q-159 -221 -360 -221z" />
    <glyph glyph-name="v" unicode="v" horiz-adv-x="1071" 
d="M449 -4l-261 809q-13 42 -35 65t-77 43l-56 21v45h480v-45l-56 -21q-48 -18 -70 -37t-22 -45q0 -6 4 -26l224 -711l219 694q6 15 6 31q0 53 -72 88l-55 27v45h369v-45l-64 -33q-91 -47 -125 -147l-242 -754z" />
    <glyph glyph-name="w" unicode="w" horiz-adv-x="1660" 
d="M469 -4l-281 809q-13 42 -35 65t-77 43l-56 21v45h480v-45l-56 -21q-48 -18 -70 -37t-22 -45q0 -6 4 -26l242 -711l190 570l-47 141q-13 42 -35 65t-77 43l-56 21v45h480v-45l-56 -21q-48 -18 -70 -37t-22 -45q0 -6 4 -26l238 -711l235 694q7 18 7 31q0 53 -72 88l-55 27
v45h374v-45l-63 -33q-95 -49 -127 -147l-262 -754l-164 -4l-195 555l-190 -551z" />
    <glyph glyph-name="x" unicode="x" horiz-adv-x="1136" 
d="M33 0v45l30 10q136 45 191 117l231 303l-247 340q-6 8 -13.5 15.5t-18 14.5t-19 12.5t-24.5 13.5t-26 12.5t-31.5 14.5t-33.5 15l-43 21v45h497v-45l-43 -21q-42 -20 -58.5 -34t-16.5 -29q0 -14 14 -35l170 -242l174 232q16 26 16 41q0 20 -19.5 35t-64.5 34l-43 19v45
h420v-45l-31 -10q-134 -44 -190 -117l-221 -291l258 -352q7 -10 17 -18.5t18.5 -15t26.5 -16t28.5 -14.5t36.5 -16.5t39 -17.5l43 -21v-45h-502v45l43 21q42 21 59 34.5t17 28.5q0 13 -15 35l-176 254l-186 -246q-18 -24 -18 -39q0 -20 20.5 -35t65.5 -35l43 -18v-45h-418z
" />
    <glyph glyph-name="y" unicode="y" horiz-adv-x="1118" 
d="M299 -420q-75 0 -143 35l-13 225h17q97 -96 143 -125.5t78 -29.5q54 0 74 55l100 266h-74l-291 799q-15 42 -37 65t-77 43l-56 21v45h482v-45l-56 -21q-48 -18 -70 -37t-22 -45q0 -6 4 -26l242 -674l238 657q6 18 6 35q0 49 -68 84l-55 27v45h373v-45l-64 -33
q-92 -47 -129 -147l-395 -1051q-45 -123 -207 -123z" />
    <glyph glyph-name="z" unicode="z" horiz-adv-x="976" 
d="M106 0v53l574 850h-295q-39 0 -79 -38t-132 -165h-33l25 279h708v-53l-579 -850h338q28 0 49.5 12t60.5 59.5t101 143.5h33l-25 -291h-746z" />
    <glyph glyph-name="braceleft" unicode="{" horiz-adv-x="778" 
d="M639 -416q-112 23 -182 78t-109 164t-39 280v283q0 78 -48.5 128.5t-108.5 62.5v45q61 12 109 62t48 128v283q0 171 39 280t109 164t182 78l10 -35q-67 -17 -112 -62.5t-67 -114.5t-30 -138.5t-8 -159.5v-299q0 -94 -54 -151.5t-130 -57.5q76 0 130 -57.5t54 -151.5v-299
q0 -90 8 -159.5t30 -138.5t67 -114.5t112 -62.5z" />
    <glyph glyph-name="bar" unicode="|" horiz-adv-x="499" 
d="M217 -240v1821h72v-1821h-72z" />
    <glyph glyph-name="braceright" unicode="}" horiz-adv-x="778" 
d="M139 -416l-10 35q67 17 112 62.5t67 114.5t30 138.5t8 159.5v299q0 94 54 151.5t130 57.5q-76 0 -130 57.5t-54 151.5v299q0 90 -8 159.5t-30 138.5t-67 114.5t-112 62.5l10 35q112 -23 182 -78t109 -164t39 -280v-283q0 -78 48.5 -128t109.5 -62v-45
q-61 -12 -109.5 -62.5t-48.5 -128.5v-283q0 -171 -39 -280t-109 -164t-182 -78z" />
    <glyph glyph-name="asciitilde" unicode="~" horiz-adv-x="985" 
d="M682 575q-59 0 -177.5 43.5t-166.5 43.5q-51 0 -111.5 -18.5t-107.5 -49.5v102q126 70 221 70q65 0 180 -43t160 -43q58 0 99.5 15.5t92.5 49.5v-102q-53 -34 -96 -51t-94 -17z" />
    <glyph glyph-name="exclamdown" unicode="&#xa1;" horiz-adv-x="411" 
d="M209 995q48 0 83.5 -34.5t35.5 -81.5q0 -46 -36 -81.5t-83 -35.5t-83 35.5t-36 81.5q0 47 35.5 81.5t83.5 34.5zM182 600h49l76 -1071v-8h-196v8z" />
    <glyph glyph-name="cent" unicode="&#xa2;" horiz-adv-x="987" 
d="M854 256l43 -14q-11 -41 -41.5 -85t-77 -84.5t-114.5 -66.5t-142 -26q-47 0 -80 8l-28 -226h-68l31 246q-127 51 -205 179t-78 300q0 143 55.5 258.5t147 181.5t201.5 74l24 199h70l-25 -199q131 -12 264 -77l-24 -187h-25q-175 154 -225 178l-96 -772q63 -26 125 -26
q73 0 146 34t122 105zM244 547q0 -121 41 -215t112 -150l92 744q-97 -10 -171 -110.5t-74 -268.5z" />
    <glyph glyph-name="sterling" unicode="&#xa3;" horiz-adv-x="1114" 
d="M109 0v55l88 103q85 98 120 167.5t35 180.5q0 41 -8 115h-240v67h228q-6 28 -27.5 111.5t-31 139t-9.5 110.5q0 184 107.5 299.5t269.5 115.5q123 0 313 -59l21 -223h-25q-145 130 -205 168.5t-120 38.5q-102 0 -165 -66t-63 -180q0 -68 25 -154t50.5 -165t25.5 -130v-6
h321v-67h-317q-3 -133 -52 -239.5t-167 -207.5v-12h708l-57 -162h-825z" />
    <glyph glyph-name="currency" unicode="&#xa4;" horiz-adv-x="1146" 
d="M578 244q-160 0 -283 102l-90 -90l-51 53l88 88q-107 126 -107 289q0 164 105 285l-86 88l51 51l88 -86q123 102 285 102q163 0 286 -104l88 86l52 -51l-89 -88q103 -128 103 -283q0 -161 -103 -285l89 -90l-52 -51l-90 88q-120 -104 -284 -104zM578 317
q153 0 258.5 107.5t105.5 261.5q0 153 -105.5 260t-258.5 107q-155 0 -261 -107t-106 -260q0 -154 106 -261.5t261 -107.5z" />
    <glyph glyph-name="yen" unicode="&#xa5;" horiz-adv-x="1431" 
d="M938 1440h481v-45l-57 -17q-61 -17 -108.5 -56.5t-75.5 -84.5l-340 -541h260v-67h-291v-150h293v-67h-293v-238q0 -37 31 -62t90 -46l59 -21v-45h-532v45l59 21q59 21 90 46t31 62v238h-289v67h289v150h-291v67h258l-358 570q-41 71 -131 100l-90 29v45h550v-45l-90 -29
q-63 -19 -63 -63q0 -11 8 -27l348 -559l314 514q16 24 16 49q0 32 -22.5 54t-98.5 46l-47 15v45z" />
    <glyph glyph-name="section" unicode="&#xa7;" horiz-adv-x="1179" 
d="M596 -309q-139 0 -277 80l-20 247h25q22 -25 49.5 -56t42.5 -48t34.5 -39.5t30 -33t25 -24.5t23 -20t20 -13.5t20.5 -10t19 -4.5t22 -2q85 0 143 54t58 130q0 80 -71 152.5t-224 148.5q-47 23 -71.5 36t-69.5 39.5t-70.5 47t-58.5 53t-50.5 64t-30.5 73t-13 86.5
q0 186 198 310q-92 89 -92 217q0 138 98 224.5t242 86.5q75 0 163.5 -22t133.5 -40l16 -221h-24q-134 131 -189 169t-116 38q-74 0 -133.5 -54.5t-59.5 -137.5q0 -84 67 -148t212 -137q7 -4 43.5 -22.5t50 -25.5t49 -27.5t52 -32.5t46.5 -35t45.5 -41t36.5 -45t31 -52.5
t17.5 -57t7.5 -65.5q0 -103 -54 -175.5t-151 -135.5q98 -89 98 -217q0 -135 -93 -224t-251 -89zM791 266q56 43 89 92t33 119q0 58 -22.5 104.5t-73 87.5t-98.5 69.5t-133 70.5q-136 69 -185 106q-127 -87 -127 -217q0 -37 13 -71.5t39.5 -64t52.5 -52.5t66.5 -47.5t66 -38
t66.5 -33.5q132 -66 213 -125z" />
    <glyph glyph-name="dieresis" unicode="&#xa8;" horiz-adv-x="835" 
d="M236 1184q-42 0 -71.5 29t-29.5 71q0 41 30 71.5t71 30.5t71.5 -30.5t30.5 -71.5q0 -42 -30 -71t-72 -29zM604 1184q-42 0 -71 29t-29 71q0 41 29.5 71.5t70.5 30.5t72 -30.5t31 -71.5q0 -42 -30.5 -71t-72.5 -29z" />
    <glyph glyph-name="copyright" unicode="&#xa9;" horiz-adv-x="1839" 
d="M922 -4q-204 0 -376.5 98.5t-273 267.5t-100.5 369t100.5 369t273 267.5t376.5 98.5q152 0 290 -58t237.5 -156.5t158.5 -234.5t59 -286t-59 -286t-158.5 -234.5t-237.5 -156.5t-290 -58zM922 70q138 0 262.5 54.5t212.5 145t140 211.5t52 250q0 130 -52 251
t-140.5 211.5t-213 145t-261.5 54.5q-132 0 -254.5 -52t-212.5 -140t-143.5 -211.5t-53.5 -258.5q0 -180 91 -332.5t243.5 -240.5t329.5 -88zM926 285q-85 0 -160 28.5t-134 83.5t-93.5 143.5t-34.5 200.5q0 207 121 331t303 124q108 0 266 -45l16 -186h-18q-15 13 -41 36
q-98 87 -136.5 111.5t-86.5 24.5q-104 0 -179 -104.5t-75 -291.5q0 -185 74 -291t180 -106q44 0 88.5 29t173.5 143h20l-18 -186q-170 -45 -266 -45z" />
    <glyph glyph-name="ordfeminine" unicode="&#xaa;" horiz-adv-x="831" 
d="M305 788q-76 0 -131 43.5t-55 118.5q0 56 36.5 103t98 78t127 51t139.5 32v70q0 64 -15 90q-21 37 -69 37q-25 0 -58 -21t-134 -100h-21l-63 96q177 80 284 80q93 0 145 -49t52 -129v-352q0 -17 4 -26.5t27.5 -22t70.5 -23.5v-35l-217 -38l9 114h-13q-34 -49 -91 -83
t-126 -34zM342 877q86 0 178 88v202q-70 -18 -130 -45t-105 -69.5t-45 -89.5q0 -39 28.5 -62.5t73.5 -23.5z" />
    <glyph glyph-name="guillemotleft" unicode="&#xab;" horiz-adv-x="1085" 
d="M522 106l-428 426v35l428 428h49l-299 -444l299 -445h-49zM887 106l-428 426v35l428 428h49l-299 -444l299 -445h-49z" />
    <glyph glyph-name="registered" unicode="&#xae;" horiz-adv-x="1425" 
d="M715 1602q105 0 202.5 -42t168.5 -112.5t113 -167t42 -199.5q0 -140 -71 -260.5t-192.5 -191t-262.5 -70.5q-143 0 -265.5 70.5t-194 191t-71.5 260.5q0 138 71.5 258.5t194 191.5t265.5 71zM715 635q123 0 228 62t165.5 164.5t60.5 219.5q0 86 -36 167.5t-96 142.5
t-145 98t-177 37q-121 0 -226 -59.5t-167 -162t-62 -223.5t62 -224.5t167 -162.5t226 -59zM815 1028l133 -201l66 -28v-31h-131l-201 289h-64v-209q0 -18 25 -29l51 -20v-31h-248v31l54 20q24 12 24 29v485q0 17 -24 29l-54 20v31h289q101 0 155 -48.5t54 -125.5
q0 -78 -60 -130t-159 -52v-4zM618 1368v-268h84q74 0 111 33t37 108q0 58 -35.5 92.5t-93.5 34.5h-103z" />
    <glyph glyph-name="macron" unicode="&#xaf;" horiz-adv-x="755" 
d="M135 1227v102h492v-102h-492z" />
    <glyph glyph-name="degree" unicode="&#xb0;" horiz-adv-x="888" 
d="M449 903q-125 0 -215.5 87.5t-90.5 211.5q0 125 90 212t216 87q123 0 213 -87t90 -212t-89.5 -212t-213.5 -87zM449 979q93 0 155 66.5t62 156.5q0 96 -61 159.5t-156 63.5q-94 0 -156 -64t-62 -159q0 -90 63 -156.5t155 -66.5z" />
    <glyph glyph-name="twosuperior" unicode="&#xb2;" horiz-adv-x="561" 
d="M59 819v39l76 74q118 115 152 156q94 118 96 233q0 42 -20.5 73t-67.5 31q-35 0 -62.5 -20.5t-117.5 -112.5h-19l10 135q106 48 193 48q82 0 135 -39t53 -115q0 -74 -69.5 -163.5t-237.5 -233.5v-4h324l-35 -101h-410z" />
    <glyph glyph-name="threesuperior" unicode="&#xb3;" horiz-adv-x="583" 
d="M270 807q-85 0 -196 39l20 129h10q78 -80 105 -98.5t63 -18.5q54 0 94 35.5t40 99.5q0 80 -42 124t-104 44q-25 0 -67 -12l-29 37l207 178h-273l37 100h367v-45l-266 -217l4 -4q35 10 75 10q46 0 90 -20t77.5 -69t33.5 -118q0 -83 -75.5 -138.5t-170.5 -55.5z" />
    <glyph glyph-name="acute" unicode="&#xb4;" horiz-adv-x="645" 
d="M162 1106l-27 22l240 365l141 -104z" />
    <glyph glyph-name="paragraph" unicode="&#xb6;" 
d="M295 0v45l74 29q58 24 82 45t24 57v619h-47q-138 0 -236 97.5t-98 235.5t98 237t236 99h127v-1464h-260zM705 0v1464h260v-45l-74 -28q-58 -24 -82.5 -45.5t-24.5 -57.5v-1112q0 -36 24.5 -57t82.5 -45l74 -29v-45h-260z" />
    <glyph glyph-name="periodcentered" unicode="&#xb7;" horiz-adv-x="583" 
d="M295 455q-53 0 -92 39.5t-39 91.5t39 91.5t92 39.5t92 -39.5t39 -91.5t-39 -91.5t-92 -39.5z" />
    <glyph glyph-name="cedilla" unicode="&#xb8;" horiz-adv-x="669" 
d="M336 -446q-73 0 -201 34l68 115h12q57 -52 82.5 -70t44.5 -18q31 0 55.5 18.5t24.5 63.5q0 60 -46 90t-116 37l-59 6l137 170h70l-62 -82q78 -10 136.5 -58t58.5 -130q0 -84 -58 -130t-147 -46z" />
    <glyph glyph-name="onesuperior" unicode="&#xb9;" horiz-adv-x="430" 
d="M66 819v25l51 16q53 16 53 33v446l-100 33v19l206 84v-582q0 -18 50 -33l55 -16v-25h-315z" />
    <glyph glyph-name="ordmasculine" unicode="&#xba;" horiz-adv-x="894" 
d="M451 788q-154 0 -243 99.5t-89 240.5t89.5 239.5t242.5 98.5t242 -98.5t89 -239.5q0 -140 -88.5 -240t-242.5 -100zM451 850q84 0 142 72t58 206q0 144 -57 211.5t-143 67.5q-81 0 -141 -72.5t-60 -206.5q0 -133 60 -205.5t141 -72.5z" />
    <glyph glyph-name="guillemotright" unicode="&#xbb;" horiz-adv-x="1081" 
d="M143 106h-49l299 445l-299 444h49l428 -428v-35zM508 106h-49l299 445l-299 444h49l428 -428v-35z" />
    <glyph glyph-name="onequarter" unicode="&#xbc;" horiz-adv-x="1507" 
d="M66 819v25l51 16q53 16 53 33v446l-100 33v19l206 84v-582q0 -18 50 -33l55 -16v-25h-315zM199 0l1009 1464h82l-1009 -1464h-82zM1255 0v170h-303v37l238 438h149v-10l-344 -418h260v164l107 31v-195h94v-47h-94v-170h-107z" />
    <glyph glyph-name="onehalf" unicode="&#xbd;" horiz-adv-x="1540" 
d="M66 819v25l51 16q53 16 53 33v446l-100 33v19l206 84v-582q0 -18 50 -33l55 -16v-25h-315zM199 0l1009 1464h82l-1009 -1464h-82zM1038 0v39l76 74q118 115 152 156q94 118 96 233q0 42 -20.5 73t-67.5 31q-35 0 -62.5 -20.5t-117.5 -112.5h-19l10 135q104 47 193 47
q82 0 135 -38.5t53 -114.5q0 -74 -70 -164t-237 -234v-4h324l-35 -100h-410z" />
    <glyph glyph-name="threequarters" unicode="&#xbe;" horiz-adv-x="1587" 
d="M270 807q-85 0 -196 39l20 129h10q78 -80 105 -98.5t63 -18.5q54 0 94 35.5t40 99.5q0 80 -42 124t-104 44q-25 0 -67 -12l-29 37l207 178h-273l37 100h367v-45l-266 -217l4 -4q35 10 75 10q46 0 90 -20t77.5 -69t33.5 -118q0 -83 -75.5 -138.5t-170.5 -55.5zM279 0
l1009 1464h82l-1010 -1464h-81zM1335 0v170h-303v37l238 438h149v-10l-344 -418h260v164l107 31v-195h94v-47h-94v-170h-107z" />
    <glyph glyph-name="questiondown" unicode="&#xbf;" horiz-adv-x="944" 
d="M598 995q48 0 83.5 -34.5t35.5 -81.5q0 -46 -36 -81.5t-83 -35.5t-83 35.5t-36 81.5q0 47 35.5 81.5t83.5 34.5zM592 602l129 -354q-41 -14 -68.5 -24.5t-78.5 -34t-86.5 -46t-79 -59.5t-70.5 -76t-45.5 -92.5t-18.5 -112.5q0 -106 56 -168.5t129 -62.5q74 0 127.5 30.5
t193.5 153.5h25l55 -153q-92 -44 -199 -75.5t-188 -31.5q-68 0 -131.5 23t-114 65t-80.5 107.5t-30 144.5q0 87 38 166t90.5 132.5t125.5 101.5t125.5 72.5t107.5 45.5l-47 238z" />
    <glyph glyph-name="Agrave" unicode="&#xc0;" horiz-adv-x="1564" 
d="M874 1526l-428 137l101 145l344 -254zM63 0v45l64 23q67 23 108 63t66 105l387 1028l-80 200h189l495 -1274q27 -73 121 -110l90 -35v-45h-540v45l90 35q67 26 67 72q0 14 -8 38l-119 308h-506l-98 -262q-18 -46 -18 -82q0 -61 78 -86l63 -23v-45h-449zM518 580h443
l-224 583h-2z" />
    <glyph glyph-name="Aacute" unicode="&#xc1;" horiz-adv-x="1564" 
d="M582 1526l-17 28l344 252l101 -143zM63 0v45l64 23q67 23 108 63t66 105l387 1028l-80 200h189l495 -1274q27 -73 121 -110l90 -35v-45h-540v45l90 35q67 26 67 72q0 14 -8 38l-119 308h-506l-98 -262q-18 -46 -18 -82q0 -61 78 -86l63 -23v-45h-449zM518 580h443
l-224 583h-2z" />
    <glyph glyph-name="Acircumflex" unicode="&#xc2;" horiz-adv-x="1564" 
d="M430 1532l-14 24l315 295h25l315 -295l-14 -24l-314 147zM63 0v45l64 23q67 23 108 63t66 105l387 1028l-80 200h189l495 -1274q27 -73 121 -110l90 -35v-45h-540v45l90 35q67 26 67 72q0 14 -8 38l-119 308h-506l-98 -262q-18 -46 -18 -82q0 -61 78 -86l63 -23v-45h-449
zM518 580h443l-224 583h-2z" />
    <glyph glyph-name="Atilde" unicode="&#xc3;" horiz-adv-x="1564" 
d="M850 1591q-45 0 -129 31q-85 33 -131 33q-27 0 -44 -13t-52 -51l-27 13q15 81 58 123t108 42q53 0 127 -32q81 -33 133 -33q56 0 94 61l29 -10q-33 -164 -166 -164zM63 0v45l64 23q67 23 108 63t66 105l387 1028l-80 200h189l495 -1274q27 -73 121 -110l90 -35v-45h-540
v45l90 35q67 26 67 72q0 14 -8 38l-119 308h-506l-98 -262q-18 -46 -18 -82q0 -61 78 -86l63 -23v-45h-449zM518 580h443l-224 583h-2z" />
    <glyph glyph-name="Adieresis" unicode="&#xc4;" horiz-adv-x="1564" 
d="M557 1563q-46 0 -78.5 32t-32.5 78t32.5 78.5t78.5 32.5t78.5 -32.5t32.5 -78.5t-32.5 -78t-78.5 -32zM932 1563q-46 0 -78.5 32t-32.5 78t32.5 78.5t78.5 32.5t78 -32.5t32 -78.5t-32 -78t-78 -32zM63 0v45l64 23q67 23 108 63t66 105l387 1028l-80 200h189l495 -1274
q27 -73 121 -110l90 -35v-45h-540v45l90 35q67 26 67 72q0 14 -8 38l-119 308h-506l-98 -262q-18 -46 -18 -82q0 -61 78 -86l63 -23v-45h-449zM518 580h443l-224 583h-2z" />
    <glyph glyph-name="Aring" unicode="&#xc5;" horiz-adv-x="1564" 
d="M743 1522q-71 0 -125.5 52.5t-54.5 125.5q0 70 54.5 122t125.5 52q75 0 130 -52.5t55 -121.5q0 -72 -55 -125t-130 -53zM743 1573q54 0 89.5 37.5t35.5 89.5t-35 87.5t-90 35.5q-50 0 -86 -36t-36 -87t36.5 -89t85.5 -38zM63 0v45l64 23q67 23 108 63t66 105l387 1028
l-80 200h189l495 -1274q27 -73 121 -110l90 -35v-45h-540v45l90 35q67 26 67 72q0 14 -8 38l-119 308h-506l-98 -262q-18 -46 -18 -82q0 -61 78 -86l63 -23v-45h-449zM518 580h443l-224 583h-2z" />
    <glyph glyph-name="AE" unicode="&#xc6;" horiz-adv-x="2109" 
d="M33 0v45l63 23q69 24 117 60t84 95l647 1069q14 22 14 45q0 45 -63 62l-74 20v45h1073l35 -338h-33q-112 164 -160 210t-112 46h-373v-581h357q37 0 67 30.5t94 118.5h33v-375h-33q-58 82 -91 114t-70 32h-357v-639h439q42 0 71 16.5t73.5 71t123.5 176.5h35l-37 -346
h-1057v45l74 29q58 24 82 45t24 57v397h-475l-211 -350q-35 -65 -35 -88q0 -44 70 -67l64 -23v-45h-459zM1079 655v695h-6l-420 -695h426z" />
    <glyph glyph-name="Ccedilla" unicode="&#xc7;" horiz-adv-x="1394" 
d="M811 63q56 0 96 11.5t116 58.5t208 148h24l-20 -224q-242 -76 -404 -82l-53 -57q51 -7 95.5 -27t77 -62.5t32.5 -98.5q0 -84 -61 -130t-154 -46q-75 0 -211 34l70 115h12q59 -50 87.5 -69t47.5 -19q33 0 59.5 18.5t26.5 63.5q0 58 -49.5 89t-122.5 38l-63 6l133 147
q-135 9 -250.5 65t-200 152t-132.5 235.5t-48 305.5q0 162 53 303t143.5 239.5t214.5 155t263 56.5q191 0 434 -82l20 -225h-24q-191 148 -260 183.5t-168 35.5q-97 0 -184.5 -43.5t-156.5 -125t-110 -210.5t-41 -287q0 -154 39.5 -282t107 -212.5t158.5 -131t195 -46.5z
" />
    <glyph glyph-name="Egrave" unicode="&#xc8;" horiz-adv-x="1329" 
d="M817 1526l-428 137l100 145l345 -254zM94 0v45l74 29q58 24 82 45t24 57v1112q0 36 -24.5 57.5t-81.5 45.5l-74 28v45h1022l35 -338h-33q-111 164 -159 210t-113 46h-400v-581h400q19 0 35.5 7.5t39 31.5t37 42.5t50.5 67.5h32v-375h-32q-58 82 -91.5 114t-70.5 32h-400
v-639h463q43 0 71.5 15t74 71t123.5 178h34l-36 -346h-1082z" />
    <glyph glyph-name="Eacute" unicode="&#xc9;" horiz-adv-x="1329" 
d="M524 1526l-16 28l344 252l100 -143zM94 0v45l74 29q58 24 82 45t24 57v1112q0 36 -24.5 57.5t-81.5 45.5l-74 28v45h1022l35 -338h-33q-111 164 -159 210t-113 46h-400v-581h400q19 0 35.5 7.5t39 31.5t37 42.5t50.5 67.5h32v-375h-32q-58 82 -91.5 114t-70.5 32h-400
v-639h463q43 0 71.5 15t74 71t123.5 178h34l-36 -346h-1082z" />
    <glyph glyph-name="Ecircumflex" unicode="&#xca;" horiz-adv-x="1329" 
d="M373 1532l-15 24l316 295h24l316 -295l-15 -24l-313 147zM94 0v45l74 29q58 24 82 45t24 57v1112q0 36 -24.5 57.5t-81.5 45.5l-74 28v45h1022l35 -338h-33q-111 164 -159 210t-113 46h-400v-581h400q19 0 35.5 7.5t39 31.5t37 42.5t50.5 67.5h32v-375h-32
q-58 82 -91.5 114t-70.5 32h-400v-639h463q43 0 71.5 15t74 71t123.5 178h34l-36 -346h-1082z" />
    <glyph glyph-name="Edieresis" unicode="&#xcb;" horiz-adv-x="1329" 
d="M500 1563q-46 0 -78.5 32t-32.5 78t32.5 78.5t78.5 32.5t78 -32.5t32 -78.5t-32 -78t-78 -32zM874 1563q-46 0 -78 32t-32 78t32 78.5t78 32.5t78.5 -32.5t32.5 -78.5t-32.5 -78t-78.5 -32zM94 0v45l74 29q58 24 82 45t24 57v1112q0 36 -24.5 57.5t-81.5 45.5l-74 28v45
h1022l35 -338h-33q-111 164 -159 210t-113 46h-400v-581h400q19 0 35.5 7.5t39 31.5t37 42.5t50.5 67.5h32v-375h-32q-58 82 -91.5 114t-70.5 32h-400v-639h463q43 0 71.5 15t74 71t123.5 178h34l-36 -346h-1082z" />
    <glyph glyph-name="Igrave" unicode="&#xcc;" horiz-adv-x="714" 
d="M492 1526l-429 137l101 145l344 -254zM94 0v45l74 29q58 24 82 45t24 57v1112q0 36 -24.5 57.5t-81.5 45.5l-74 28v45h533v-45l-74 -28q-58 -24 -82.5 -45.5t-24.5 -57.5v-1112q0 -36 24.5 -57t82.5 -45l74 -29v-45h-533z" />
    <glyph glyph-name="Iacute" unicode="&#xcd;" horiz-adv-x="714" 
d="M199 1526l-17 28l344 252l101 -143zM94 0v45l74 29q58 24 82 45t24 57v1112q0 36 -24.5 57.5t-81.5 45.5l-74 28v45h533v-45l-74 -28q-58 -24 -82.5 -45.5t-24.5 -57.5v-1112q0 -36 24.5 -57t82.5 -45l74 -29v-45h-533z" />
    <glyph glyph-name="Icircumflex" unicode="&#xce;" horiz-adv-x="714" 
d="M47 1532l-14 24l315 295h25l315 -295l-14 -24l-314 147zM94 0v45l74 29q58 24 82 45t24 57v1112q0 36 -24.5 57.5t-81.5 45.5l-74 28v45h533v-45l-74 -28q-58 -24 -82.5 -45.5t-24.5 -57.5v-1112q0 -36 24.5 -57t82.5 -45l74 -29v-45h-533z" />
    <glyph glyph-name="Idieresis" unicode="&#xcf;" horiz-adv-x="714" 
d="M174 1563q-46 0 -78.5 32t-32.5 78t32.5 78.5t78.5 32.5t78.5 -32.5t32.5 -78.5t-32.5 -78t-78.5 -32zM549 1563q-46 0 -78.5 32t-32.5 78t32.5 78.5t78.5 32.5t78 -32.5t32 -78.5t-32 -78t-78 -32zM94 0v45l74 29q58 24 82 45t24 57v1112q0 36 -24.5 57.5t-81.5 45.5
l-74 28v45h533v-45l-74 -28q-58 -24 -82.5 -45.5t-24.5 -57.5v-1112q0 -36 24.5 -57t82.5 -45l74 -29v-45h-533z" />
    <glyph glyph-name="Eth" unicode="&#xd0;" horiz-adv-x="1513" 
d="M94 0v45l74 29q58 24 82 45t24 57v549h-157v76h157v487q0 36 -24.5 57.5t-81.5 45.5l-74 28v45h580q209 0 371.5 -93t251.5 -259.5t89 -378.5q0 -217 -89.5 -383.5t-252 -258t-374.5 -91.5h-576zM446 82h216q139 0 244.5 51t169 141t95 204.5t31.5 250.5t-31.5 251.5
t-94.5 206.5t-168 143t-242 52h-220v-581h252v-76h-252v-643z" />
    <glyph glyph-name="Ntilde" unicode="&#xd1;" horiz-adv-x="1599" 
d="M915 1591q-45 0 -129 31q-85 33 -131 33q-27 0 -44 -13t-52 -51l-27 13q15 81 58 123t108 42q53 0 127 -32q81 -33 133 -33q57 0 95 61l28 -10q-33 -164 -166 -164zM84 0v45l86 37q113 50 113 131v1139l-195 63v49h377l782 -1370v1157q0 82 -112 131l-86 37v45h481v-45
l-86 -37q-113 -51 -113 -131v-1251h-221l-739 1298h-4v-1085q0 -80 112 -131l86 -37v-45h-481z" />
    <glyph glyph-name="Ograve" unicode="&#xd2;" horiz-adv-x="1601" 
d="M932 1526l-428 137l100 145l344 -254zM801 -25q-142 0 -266.5 57t-214 156.5t-141.5 241t-52 303.5t51.5 302.5t141 240t214.5 156.5t267 57t267 -57t214.5 -156.5t141 -240t51.5 -302.5t-51.5 -303t-141 -240.5t-214.5 -157t-267 -57.5zM805 63q135 0 245.5 85t175 239
t64.5 346q0 294 -140 481t-351 187q-102 0 -192 -50.5t-155 -138.5t-103 -213.5t-38 -269.5q0 -191 65 -344t178 -237.5t251 -84.5z" />
    <glyph glyph-name="Oacute" unicode="&#xd3;" horiz-adv-x="1601" 
d="M639 1526l-16 28l344 252l100 -143zM801 -25q-142 0 -266.5 57t-214 156.5t-141.5 241t-52 303.5t51.5 302.5t141 240t214.5 156.5t267 57t267 -57t214.5 -156.5t141 -240t51.5 -302.5t-51.5 -303t-141 -240.5t-214.5 -157t-267 -57.5zM805 63q135 0 245.5 85t175 239
t64.5 346q0 294 -140 481t-351 187q-102 0 -192 -50.5t-155 -138.5t-103 -213.5t-38 -269.5q0 -191 65 -344t178 -237.5t251 -84.5z" />
    <glyph glyph-name="Ocircumflex" unicode="&#xd4;" horiz-adv-x="1601" 
d="M487 1532l-14 24l315 295h25l315 -295l-14 -24l-313 147zM801 -25q-142 0 -266.5 57t-214 156.5t-141.5 241t-52 303.5t51.5 302.5t141 240t214.5 156.5t267 57t267 -57t214.5 -156.5t141 -240t51.5 -302.5t-51.5 -303t-141 -240.5t-214.5 -157t-267 -57.5zM805 63
q135 0 245.5 85t175 239t64.5 346q0 294 -140 481t-351 187q-102 0 -192 -50.5t-155 -138.5t-103 -213.5t-38 -269.5q0 -191 65 -344t178 -237.5t251 -84.5z" />
    <glyph glyph-name="Otilde" unicode="&#xd5;" horiz-adv-x="1601" 
d="M907 1591q-45 0 -129 31q-85 33 -131 33q-27 0 -44 -13t-52 -51l-27 13q15 81 58 123t108 42q53 0 127 -32q81 -33 133 -33q56 0 94 61l29 -10q-33 -164 -166 -164zM801 -25q-142 0 -266.5 57t-214 156.5t-141.5 241t-52 303.5t51.5 302.5t141 240t214.5 156.5t267 57
t267 -57t214.5 -156.5t141 -240t51.5 -302.5t-51.5 -303t-141 -240.5t-214.5 -157t-267 -57.5zM805 63q135 0 245.5 85t175 239t64.5 346q0 294 -140 481t-351 187q-102 0 -192 -50.5t-155 -138.5t-103 -213.5t-38 -269.5q0 -191 65 -344t178 -237.5t251 -84.5z" />
    <glyph glyph-name="Odieresis" unicode="&#xd6;" horiz-adv-x="1601" 
d="M614 1563q-46 0 -78 32t-32 78t32 78.5t78 32.5t78.5 -32.5t32.5 -78.5t-32.5 -78t-78.5 -32zM989 1563q-46 0 -78 32t-32 78t32 78.5t78 32.5t78.5 -32.5t32.5 -78.5t-32.5 -78t-78.5 -32zM801 -25q-142 0 -266.5 57t-214 156.5t-141.5 241t-52 303.5t51.5 302.5
t141 240t214.5 156.5t267 57t267 -57t214.5 -156.5t141 -240t51.5 -302.5t-51.5 -303t-141 -240.5t-214.5 -157t-267 -57.5zM805 63q135 0 245.5 85t175 239t64.5 346q0 294 -140 481t-351 187q-102 0 -192 -50.5t-155 -138.5t-103 -213.5t-38 -269.5q0 -191 65 -344
t178 -237.5t251 -84.5z" />
    <glyph glyph-name="multiply" unicode="&#xd7;" horiz-adv-x="913" 
d="M188 385l-45 47l271 266l-267 273l41 41l273 -267l268 273l45 -47l-272 -273l274 -274l-43 -41l-272 268z" />
    <glyph glyph-name="Oslash" unicode="&#xd8;" horiz-adv-x="1601" 
d="M1227 1329q117 -101 182.5 -256t65.5 -340q0 -162 -51.5 -303t-141 -240.5t-214.5 -157t-267 -57.5q-209 0 -375 119l-156 -239h-82l185 282q-116 103 -181 257.5t-65 338.5q0 162 51.5 302.5t141 240t214.5 156.5t267 57q210 0 373 -117l143 223h82zM311 729
q0 -282 138 -473l655 1012q-130 133 -305 133q-102 0 -192 -50.5t-155 -138.5t-103 -213.5t-38 -269.5zM805 63q135 0 245.5 85t175 239t64.5 346q0 290 -139 479l-655 -1011q135 -138 309 -138z" />
    <glyph glyph-name="Ugrave" unicode="&#xd9;" horiz-adv-x="1501" 
d="M899 1526l-428 137l100 145l344 -254zM752 -25q-71 0 -138.5 14t-137 50.5t-120.5 92.5t-83.5 148t-32.5 209v799q0 36 -24.5 57.5t-82.5 45.5l-74 28v45h533v-45l-74 -28q-57 -24 -81.5 -45.5t-24.5 -57.5v-760q0 -207 103 -319.5t284 -112.5q167 0 276 98.5t109 270.5
v786q0 81 -103 131l-77 37v45h444v-45l-78 -37q-102 -50 -102 -131v-800q0 -214 -146.5 -345t-369.5 -131z" />
    <glyph glyph-name="Uacute" unicode="&#xda;" horiz-adv-x="1501" 
d="M606 1526l-16 28l344 252l100 -143zM752 -25q-71 0 -138.5 14t-137 50.5t-120.5 92.5t-83.5 148t-32.5 209v799q0 36 -24.5 57.5t-82.5 45.5l-74 28v45h533v-45l-74 -28q-57 -24 -81.5 -45.5t-24.5 -57.5v-760q0 -207 103 -319.5t284 -112.5q167 0 276 98.5t109 270.5
v786q0 81 -103 131l-77 37v45h444v-45l-78 -37q-102 -50 -102 -131v-800q0 -214 -146.5 -345t-369.5 -131z" />
    <glyph glyph-name="Ucircumflex" unicode="&#xdb;" horiz-adv-x="1501" 
d="M455 1532l-15 24l316 295h24l316 -295l-15 -24l-313 147zM752 -25q-71 0 -138.5 14t-137 50.5t-120.5 92.5t-83.5 148t-32.5 209v799q0 36 -24.5 57.5t-82.5 45.5l-74 28v45h533v-45l-74 -28q-57 -24 -81.5 -45.5t-24.5 -57.5v-760q0 -207 103 -319.5t284 -112.5
q167 0 276 98.5t109 270.5v786q0 81 -103 131l-77 37v45h444v-45l-78 -37q-102 -50 -102 -131v-800q0 -214 -146.5 -345t-369.5 -131z" />
    <glyph glyph-name="Udieresis" unicode="&#xdc;" horiz-adv-x="1501" 
d="M582 1563q-46 0 -78.5 32t-32.5 78t32.5 78.5t78.5 32.5t78 -32.5t32 -78.5t-32 -78t-78 -32zM956 1563q-46 0 -78 32t-32 78t32 78.5t78 32.5t78.5 -32.5t32.5 -78.5t-32.5 -78t-78.5 -32zM752 -25q-71 0 -138.5 14t-137 50.5t-120.5 92.5t-83.5 148t-32.5 209v799
q0 36 -24.5 57.5t-82.5 45.5l-74 28v45h533v-45l-74 -28q-57 -24 -81.5 -45.5t-24.5 -57.5v-760q0 -207 103 -319.5t284 -112.5q167 0 276 98.5t109 270.5v786q0 81 -103 131l-77 37v45h444v-45l-78 -37q-102 -50 -102 -131v-800q0 -214 -146.5 -345t-369.5 -131z" />
    <glyph glyph-name="Yacute" unicode="&#xdd;" horiz-adv-x="1439" 
d="M629 1526l-17 28l344 252l101 -143zM455 0v45l73 29q58 24 82.5 45t24.5 57v479l-387 625q-41 67 -135 104l-90 35v45h550v-45l-90 -35q-61 -24 -61 -59q0 -19 16 -45l328 -535l303 496q33 58 33 88q0 46 -70 68l-63 22v45h458v-45l-63 -22q-68 -24 -115.5 -60.5
t-83.5 -95.5l-358 -584v-481q0 -36 24 -57t82 -45l74 -29v-45h-532z" />
    <glyph glyph-name="Thorn" unicode="&#xde;" horiz-adv-x="1343" 
d="M94 0v45l74 29q58 24 82 45t24 57v1112q0 36 -24.5 57.5t-81.5 45.5l-74 28v45h533v-45l-74 -28q-58 -24 -82.5 -45.5t-24.5 -57.5v-117h242q83 0 159 -15t144 -48t118 -81t79 -118.5t29 -156.5q0 -108 -44.5 -192t-120 -134t-170 -76t-200.5 -26h-236v-148
q0 -36 24.5 -57t82.5 -45l74 -29v-45h-533zM446 406h213q188 0 283.5 80t95.5 266q0 338 -366 338h-226v-684z" />
    <glyph glyph-name="germandbls" unicode="&#xdf;" horiz-adv-x="1277" 
d="M842 -25q-75 0 -158.5 32t-114.5 67l-22 209h22q131 -149 178 -190.5t97 -41.5q82 0 137 49.5t55 135.5q0 64 -21.5 116t-55.5 87.5t-75.5 66t-82.5 58.5t-75 57t-55.5 69.5t-21.5 89.5q0 46 20 88t48.5 76.5t56.5 72t48 92t20 118.5q0 60 -34.5 104t-80.5 63t-94 19
q-50 0 -90 -10.5t-79 -37t-61 -82t-22 -136.5v-971q0 -41 21.5 -65t78.5 -45l56 -21v-45h-476v45l56 21q57 21 78.5 45t21.5 65v725h-151v78h151v65q0 97 24.5 177t73.5 140.5t128.5 94t183.5 33.5q64 0 123 -13t112.5 -40t86 -77.5t32.5 -117.5q0 -62 -21.5 -114.5
t-52.5 -87t-62.5 -64.5t-53 -62t-21.5 -65q0 -32 23 -63t59.5 -57.5t80.5 -55.5t88 -65t80.5 -77t59.5 -100t23 -127q0 -104 -51 -180.5t-127 -112t-164 -35.5z" />
    <glyph glyph-name="agrave" unicode="&#xe0;" horiz-adv-x="1044" 
d="M608 1106l-354 283l141 104l240 -365zM360 -20q-114 0 -194 64.5t-80 176.5q0 70 37 130.5t94.5 103t138 76.5t157.5 54.5t163 35.5v112q0 21 -1 34.5t-4 40.5t-11.5 45.5t-22 38.5t-37.5 30t-55 10q-40 0 -89 -32.5t-196 -154.5h-24l-89 136q266 123 410 123
q134 0 208.5 -73.5t74.5 -191.5l-2 -551q0 -40 29.5 -62t125.5 -44v-45l-309 -55l8 176h-14q-49 -77 -134 -127.5t-184 -50.5zM412 92q133 0 264 139v330q-109 -26 -202 -69.5t-158.5 -111t-65.5 -142.5q0 -66 46 -106t116 -40z" />
    <glyph glyph-name="aacute" unicode="&#xe1;" horiz-adv-x="1044" 
d="M416 1106l-27 22l240 365l141 -104zM360 -20q-114 0 -194 64.5t-80 176.5q0 70 37 130.5t94.5 103t138 76.5t157.5 54.5t163 35.5v112q0 21 -1 34.5t-4 40.5t-11.5 45.5t-22 38.5t-37.5 30t-55 10q-40 0 -89 -32.5t-196 -154.5h-24l-89 136q266 123 410 123
q134 0 208.5 -73.5t74.5 -191.5l-2 -551q0 -40 29.5 -62t125.5 -44v-45l-309 -55l8 176h-14q-49 -77 -134 -127.5t-184 -50.5zM412 92q133 0 264 139v330q-109 -26 -202 -69.5t-158.5 -111t-65.5 -142.5q0 -66 46 -106t116 -40z" />
    <glyph glyph-name="acircumflex" unicode="&#xe2;" horiz-adv-x="1044" 
d="M307 1137l-22 20l223 342h29l225 -342l-25 -18l-217 172zM360 -20q-114 0 -194 64.5t-80 176.5q0 70 37 130.5t94.5 103t138 76.5t157.5 54.5t163 35.5v112q0 21 -1 34.5t-4 40.5t-11.5 45.5t-22 38.5t-37.5 30t-55 10q-40 0 -89 -32.5t-196 -154.5h-24l-89 136
q266 123 410 123q134 0 208.5 -73.5t74.5 -191.5l-2 -551q0 -40 29.5 -62t125.5 -44v-45l-309 -55l8 176h-14q-49 -77 -134 -127.5t-184 -50.5zM412 92q133 0 264 139v330q-109 -26 -202 -69.5t-158.5 -111t-65.5 -142.5q0 -66 46 -106t116 -40z" />
    <glyph glyph-name="atilde" unicode="&#xe3;" horiz-adv-x="1044" 
d="M625 1208q-42 0 -123 31q-82 33 -127 33q-18 0 -33 -8.5t-24 -18t-33 -37.5l-27 13q15 81 56 123t104 42q52 0 123 -32q73 -33 127 -33q30 0 49.5 14t40.5 47l26 -10q-14 -83 -56 -123.5t-103 -40.5zM360 -20q-114 0 -194 64.5t-80 176.5q0 70 37 130.5t94.5 103
t138 76.5t157.5 54.5t163 35.5v112q0 21 -1 34.5t-4 40.5t-11.5 45.5t-22 38.5t-37.5 30t-55 10q-40 0 -89 -32.5t-196 -154.5h-24l-89 136q266 123 410 123q134 0 208.5 -73.5t74.5 -191.5l-2 -551q0 -40 29.5 -62t125.5 -44v-45l-309 -55l8 176h-14q-49 -77 -134 -127.5
t-184 -50.5zM412 92q133 0 264 139v330q-109 -26 -202 -69.5t-158.5 -111t-65.5 -142.5q0 -66 46 -106t116 -40z" />
    <glyph glyph-name="adieresis" unicode="&#xe4;" horiz-adv-x="1044" 
d="M336 1184q-42 0 -71 29t-29 71q0 41 29.5 71.5t70.5 30.5t71.5 -30.5t30.5 -71.5q0 -42 -30 -71t-72 -29zM705 1184q-42 0 -71.5 29t-29.5 71q0 41 30 71.5t71 30.5t71.5 -30.5t30.5 -71.5q0 -42 -30 -71t-72 -29zM360 -20q-114 0 -194 64.5t-80 176.5q0 70 37 130.5
t94.5 103t138 76.5t157.5 54.5t163 35.5v112q0 21 -1 34.5t-4 40.5t-11.5 45.5t-22 38.5t-37.5 30t-55 10q-40 0 -89 -32.5t-196 -154.5h-24l-89 136q266 123 410 123q134 0 208.5 -73.5t74.5 -191.5l-2 -551q0 -40 29.5 -62t125.5 -44v-45l-309 -55l8 176h-14
q-49 -77 -134 -127.5t-184 -50.5zM412 92q133 0 264 139v330q-109 -26 -202 -69.5t-158.5 -111t-65.5 -142.5q0 -66 46 -106t116 -40z" />
    <glyph glyph-name="aring" unicode="&#xe5;" horiz-adv-x="1044" 
d="M522 1108q-75 0 -131.5 54.5t-56.5 129.5q0 73 57 127t131 54q78 0 135.5 -54.5t57.5 -126.5q0 -75 -57.5 -129.5t-135.5 -54.5zM522 1167q53 0 88 37t35 88q0 50 -35 85.5t-88 35.5q-48 0 -84.5 -36t-36.5 -85t37 -87t84 -38zM360 -20q-114 0 -194 64.5t-80 176.5
q0 70 37 130.5t94.5 103t138 76.5t157.5 54.5t163 35.5v112q0 21 -1 34.5t-4 40.5t-11.5 45.5t-22 38.5t-37.5 30t-55 10q-40 0 -89 -32.5t-196 -154.5h-24l-89 136q266 123 410 123q134 0 208.5 -73.5t74.5 -191.5l-2 -551q0 -40 29.5 -62t125.5 -44v-45l-309 -55l8 176
h-14q-49 -77 -134 -127.5t-184 -50.5zM412 92q133 0 264 139v330q-109 -26 -202 -69.5t-158.5 -111t-65.5 -142.5q0 -66 46 -106t116 -40z" />
    <glyph glyph-name="ae" unicode="&#xe6;" horiz-adv-x="1599" 
d="M369 -25q-120 0 -201.5 66.5t-81.5 177.5q0 88 57.5 164.5t147 125.5t190 79t195.5 35v139q0 90 -36.5 129t-88.5 39t-103 -33.5t-188 -155.5h-24l-89 140q257 123 408 123q88 0 149.5 -40.5t88.5 -109.5q51 71 132 110.5t175 39.5q161 0 272 -122.5t111 -291.5v-39h-668
q0 -110 30 -196.5t81 -138.5t113 -78.5t130 -26.5q173 0 287 155l45 -12q-31 -111 -141.5 -195t-247.5 -84q-121 0 -222.5 61t-156.5 169q-41 -90 -141 -160t-223 -70zM819 625h494q-1 71 -30 140t-82 116t-116 47q-100 0 -173 -82t-93 -221zM424 92q88 0 163.5 50
t112.5 118q-26 86 -26 223q0 13 1.5 35.5t0.5 36.5q-106 -14 -202 -54.5t-160 -106t-64 -140.5q0 -78 49.5 -120t124.5 -42z" />
    <glyph glyph-name="ccedilla" unicode="&#xe7;" horiz-adv-x="987" 
d="M522 -20h-10l-43 -58q78 -10 136.5 -58t58.5 -130q0 -84 -58 -130t-147 -46q-73 0 -201 34l68 115h12q57 -52 82.5 -70t44.5 -18q31 0 55.5 18.5t24.5 63.5q0 60 -46 90t-116 37l-59 6l122 154q-154 30 -253 167t-99 332q0 224 127.5 370.5t304.5 146.5q141 0 305 -80
l-24 -187h-25q-145 127 -191.5 158t-84.5 31q-46 0 -91.5 -24.5t-84 -70t-62.5 -120t-24 -164.5q0 -192 99.5 -311t242.5 -119q73 0 146 34t122 105l43 -14q-11 -41 -41.5 -85t-77 -84.5t-114.5 -66.5t-142 -26z" />
    <glyph glyph-name="egrave" unicode="&#xe8;" horiz-adv-x="1032" 
d="M614 1106l-354 283l141 104l240 -365zM547 -20q-194 0 -323.5 143.5t-129.5 363.5q0 141 55.5 259t155.5 188t223 70q112 0 202 -59t137.5 -152.5t47.5 -200.5v-39h-669q0 -107 29.5 -192.5t79.5 -138t111.5 -80t129.5 -27.5q182 0 293 153l45 -12q-34 -112 -142.5 -194
t-244.5 -82zM250 627h495q-9 132 -70.5 216.5t-162.5 84.5q-96 0 -169 -79t-93 -222z" />
    <glyph glyph-name="eacute" unicode="&#xe9;" horiz-adv-x="1032" 
d="M422 1106l-27 22l240 365l141 -104zM547 -20q-194 0 -323.5 143.5t-129.5 363.5q0 141 55.5 259t155.5 188t223 70q112 0 202 -59t137.5 -152.5t47.5 -200.5v-39h-669q0 -107 29.5 -192.5t79.5 -138t111.5 -80t129.5 -27.5q182 0 293 153l45 -12q-34 -112 -142.5 -194
t-244.5 -82zM250 627h495q-9 132 -70.5 216.5t-162.5 84.5q-96 0 -169 -79t-93 -222z" />
    <glyph glyph-name="ecircumflex" unicode="&#xea;" horiz-adv-x="1032" 
d="M313 1137l-22 20l223 342h29l225 -342l-25 -18l-217 172zM547 -20q-194 0 -323.5 143.5t-129.5 363.5q0 141 55.5 259t155.5 188t223 70q112 0 202 -59t137.5 -152.5t47.5 -200.5v-39h-669q0 -107 29.5 -192.5t79.5 -138t111.5 -80t129.5 -27.5q182 0 293 153l45 -12
q-34 -112 -142.5 -194t-244.5 -82zM250 627h495q-9 132 -70.5 216.5t-162.5 84.5q-96 0 -169 -79t-93 -222z" />
    <glyph glyph-name="edieresis" unicode="&#xeb;" horiz-adv-x="1032" 
d="M342 1184q-42 0 -71 29t-29 71q0 41 29.5 71.5t70.5 30.5t71.5 -30.5t30.5 -71.5q0 -42 -30 -71t-72 -29zM711 1184q-42 0 -71.5 29t-29.5 71q0 41 30 71.5t71 30.5t71.5 -30.5t30.5 -71.5q0 -42 -30 -71t-72 -29zM547 -20q-194 0 -323.5 143.5t-129.5 363.5
q0 141 55.5 259t155.5 188t223 70q112 0 202 -59t137.5 -152.5t47.5 -200.5v-39h-669q0 -107 29.5 -192.5t79.5 -138t111.5 -80t129.5 -27.5q182 0 293 153l45 -12q-34 -112 -142.5 -194t-244.5 -82zM250 627h495q-9 132 -70.5 216.5t-162.5 84.5q-96 0 -169 -79t-93 -222z
" />
    <glyph glyph-name="igrave" unicode="&#xec;" horiz-adv-x="593" 
d="M358 1106l-354 283l141 104l240 -365zM63 0v45l56 21q57 21 78.5 45t21.5 65v623l-158 96v33l322 84v-836q0 -41 21.5 -65t78.5 -45l56 -21v-45h-476z" />
    <glyph glyph-name="iacute" unicode="&#xed;" horiz-adv-x="593" 
d="M166 1106l-27 22l240 365l141 -104zM63 0v45l56 21q57 21 78.5 45t21.5 65v623l-158 96v33l322 84v-836q0 -41 21.5 -65t78.5 -45l56 -21v-45h-476z" />
    <glyph glyph-name="icircumflex" unicode="&#xee;" horiz-adv-x="593" 
d="M57 1137l-22 20l223 342h29l225 -342l-25 -18l-217 172zM63 0v45l56 21q57 21 78.5 45t21.5 65v623l-158 96v33l322 84v-836q0 -41 21.5 -65t78.5 -45l56 -21v-45h-476z" />
    <glyph glyph-name="idieresis" unicode="&#xef;" horiz-adv-x="593" 
d="M86 1184q-42 0 -71 29t-29 71q0 41 29.5 71.5t70.5 30.5t71.5 -30.5t30.5 -71.5q0 -42 -30 -71t-72 -29zM455 1184q-42 0 -71.5 29t-29.5 71q0 41 30 71.5t71 30.5t71.5 -30.5t30.5 -71.5q0 -42 -30 -71t-72 -29zM63 0v45l56 21q57 21 78.5 45t21.5 65v623l-158 96v33
l322 84v-836q0 -41 21.5 -65t78.5 -45l56 -21v-45h-476z" />
    <glyph glyph-name="eth" unicode="&#xf0;" horiz-adv-x="1142" 
d="M573 -25q-114 0 -206.5 43t-151 115.5t-90 164t-31.5 191.5t31.5 192t89.5 164.5t150 115.5t204 43q103 0 195 -37q-85 186 -213 311l-219 -127l-35 59l203 117q-124 109 -301 191l16 53q204 -65 373 -193l203 119l34 -59l-180 -105q188 -160 296 -374.5t108 -440.5
q0 -249 -130 -396t-346 -147zM573 51q122 0 210.5 117.5t88.5 320.5t-88.5 321t-210.5 118t-212.5 -118t-90.5 -321q0 -104 26 -189t69 -138.5t96.5 -82t111.5 -28.5z" />
    <glyph glyph-name="ntilde" unicode="&#xf1;" horiz-adv-x="1230" 
d="M723 1208q-42 0 -123 31q-82 33 -127 33q-18 0 -33 -8.5t-24 -18t-33 -37.5l-27 13q15 81 56 123t104 42q52 0 123 -32q73 -33 127 -33q30 0 49.5 14t40.5 47l27 -10q-14 -83 -56.5 -123.5t-103.5 -40.5zM63 0v45l56 21q57 21 78.5 45t21.5 65v623l-158 96v33l320 84
l-14 -230h10q70 97 161.5 159.5t198.5 62.5q125 0 204 -72t79 -207v-549q0 -41 21.5 -65t78.5 -45l56 -21v-45h-476v45l56 21q57 21 78.5 45t21.5 65v463q0 235 -180 235q-149 0 -293 -163v-535q0 -41 21.5 -65t78.5 -45l56 -21v-45h-476z" />
    <glyph glyph-name="ograve" unicode="&#xf2;" horiz-adv-x="1150" 
d="M670 1106l-355 283l142 104l239 -365zM575 -20q-114 0 -207 43t-151.5 115t-90.5 163t-32 191t32 191t90.5 163t151.5 115t207 43t207 -43t152 -115t91 -163t32 -191t-32 -191t-91 -163t-152 -115t-207 -43zM575 55q61 0 115 27t97 79.5t68.5 137.5t25.5 193
q0 115 -25 201.5t-69 136t-97 74t-115 24.5q-58 0 -111.5 -27t-97 -79t-70 -137.5t-26.5 -192.5t26.5 -193t70 -138t97 -79t111.5 -27z" />
    <glyph glyph-name="oacute" unicode="&#xf3;" horiz-adv-x="1150" 
d="M477 1106l-26 22l239 365l141 -104zM575 -20q-114 0 -207 43t-151.5 115t-90.5 163t-32 191t32 191t90.5 163t151.5 115t207 43t207 -43t152 -115t91 -163t32 -191t-32 -191t-91 -163t-152 -115t-207 -43zM575 55q61 0 115 27t97 79.5t68.5 137.5t25.5 193
q0 115 -25 201.5t-69 136t-97 74t-115 24.5q-58 0 -111.5 -27t-97 -79t-70 -137.5t-26.5 -192.5t26.5 -193t70 -138t97 -79t111.5 -27z" />
    <glyph glyph-name="ocircumflex" unicode="&#xf4;" horiz-adv-x="1150" 
d="M369 1137l-23 20l223 342h29l225 -342l-24 -18l-217 172zM575 -20q-114 0 -207 43t-151.5 115t-90.5 163t-32 191t32 191t90.5 163t151.5 115t207 43t207 -43t152 -115t91 -163t32 -191t-32 -191t-91 -163t-152 -115t-207 -43zM575 55q61 0 115 27t97 79.5t68.5 137.5
t25.5 193q0 115 -25 201.5t-69 136t-97 74t-115 24.5q-58 0 -111.5 -27t-97 -79t-70 -137.5t-26.5 -192.5t26.5 -193t70 -138t97 -79t111.5 -27z" />
    <glyph glyph-name="otilde" unicode="&#xf5;" horiz-adv-x="1150" 
d="M686 1208q-42 0 -123 31q-82 33 -127 33q-18 0 -33 -8.5t-24 -18t-33 -37.5l-27 13q15 81 56 123t104 42q52 0 123 -32q73 -33 127 -33q30 0 49.5 14t40.5 47l27 -10q-14 -83 -56.5 -123.5t-103.5 -40.5zM575 -20q-114 0 -207 43t-151.5 115t-90.5 163t-32 191t32 191
t90.5 163t151.5 115t207 43t207 -43t152 -115t91 -163t32 -191t-32 -191t-91 -163t-152 -115t-207 -43zM575 55q61 0 115 27t97 79.5t68.5 137.5t25.5 193q0 115 -25 201.5t-69 136t-97 74t-115 24.5q-58 0 -111.5 -27t-97 -79t-70 -137.5t-26.5 -192.5t26.5 -193t70 -138
t97 -79t111.5 -27z" />
    <glyph glyph-name="odieresis" unicode="&#xf6;" horiz-adv-x="1150" 
d="M397 1184q-42 0 -71 29t-29 71q0 41 29.5 71.5t70.5 30.5t72 -30.5t31 -71.5q0 -42 -30.5 -71t-72.5 -29zM766 1184q-42 0 -71 29t-29 71q0 41 29.5 71.5t70.5 30.5t71.5 -30.5t30.5 -71.5q0 -42 -30 -71t-72 -29zM575 -20q-114 0 -207 43t-151.5 115t-90.5 163t-32 191
t32 191t90.5 163t151.5 115t207 43t207 -43t152 -115t91 -163t32 -191t-32 -191t-91 -163t-152 -115t-207 -43zM575 55q61 0 115 27t97 79.5t68.5 137.5t25.5 193q0 115 -25 201.5t-69 136t-97 74t-115 24.5q-58 0 -111.5 -27t-97 -79t-70 -137.5t-26.5 -192.5t26.5 -193
t70 -138t97 -79t111.5 -27z" />
    <glyph glyph-name="divide" unicode="&#xf7;" horiz-adv-x="987" 
d="M506 809q-41 0 -69.5 28t-28.5 68q0 41 28.5 70t69.5 29q40 0 68 -29t28 -70q0 -40 -28 -68t-68 -28zM143 666v69h707v-69h-707zM506 393q-41 0 -69.5 28t-28.5 68q0 41 28.5 70t69.5 29q40 0 68 -29t28 -70q0 -40 -28 -68t-68 -28z" />
    <glyph glyph-name="oslash" unicode="&#xf8;" horiz-adv-x="1150" 
d="M868 909q91 -71 140 -182t49 -235q0 -100 -32 -191t-91 -163t-152 -115t-207 -43q-135 0 -241 61l-127 -207h-76l150 242q-91 72 -139 182t-48 234q0 100 32 191t90.5 163t151.5 115t207 43q130 0 240 -60l113 184h76zM270 492q0 -187 78 -306l412 670q-75 72 -185 72
q-58 0 -111.5 -27t-97 -79t-70 -137.5t-26.5 -192.5zM575 55q61 0 115 27t97 79.5t68.5 137.5t25.5 193q0 200 -76 313l-414 -670q83 -80 184 -80z" />
    <glyph glyph-name="ugrave" unicode="&#xf9;" horiz-adv-x="1232" 
d="M702 1106l-354 283l141 104l240 -365zM500 -20q-126 0 -204.5 72t-78.5 206v545q0 41 -21.5 65t-78.5 45l-56 21v45h320v-639q0 -231 182 -231q146 0 291 163v531q0 41 -21.5 65t-78.5 45l-56 21v45h320v-803q0 -40 22 -62.5t80 -41.5l54 -17l4 -45l-322 -20l12 211h-8
q-159 -221 -360 -221z" />
    <glyph glyph-name="uacute" unicode="&#xfa;" horiz-adv-x="1232" 
d="M510 1106l-27 22l240 365l141 -104zM500 -20q-126 0 -204.5 72t-78.5 206v545q0 41 -21.5 65t-78.5 45l-56 21v45h320v-639q0 -231 182 -231q146 0 291 163v531q0 41 -21.5 65t-78.5 45l-56 21v45h320v-803q0 -40 22 -62.5t80 -41.5l54 -17l4 -45l-322 -20l12 211h-8
q-159 -221 -360 -221z" />
    <glyph glyph-name="ucircumflex" unicode="&#xfb;" horiz-adv-x="1232" 
d="M401 1137l-22 20l223 342h29l225 -342l-25 -18l-217 172zM500 -20q-126 0 -204.5 72t-78.5 206v545q0 41 -21.5 65t-78.5 45l-56 21v45h320v-639q0 -231 182 -231q146 0 291 163v531q0 41 -21.5 65t-78.5 45l-56 21v45h320v-803q0 -40 22 -62.5t80 -41.5l54 -17l4 -45
l-322 -20l12 211h-8q-159 -221 -360 -221z" />
    <glyph glyph-name="udieresis" unicode="&#xfc;" horiz-adv-x="1232" 
d="M430 1184q-42 0 -71 29t-29 71q0 41 29.5 71.5t70.5 30.5t71.5 -30.5t30.5 -71.5q0 -42 -30 -71t-72 -29zM799 1184q-42 0 -71.5 29t-29.5 71q0 41 30 71.5t71 30.5t71.5 -30.5t30.5 -71.5q0 -42 -30 -71t-72 -29zM500 -20q-126 0 -204.5 72t-78.5 206v545q0 41 -21.5 65
t-78.5 45l-56 21v45h320v-639q0 -231 182 -231q146 0 291 163v531q0 41 -21.5 65t-78.5 45l-56 21v45h320v-803q0 -40 22 -62.5t80 -41.5l54 -17l4 -45l-322 -20l12 211h-8q-159 -221 -360 -221z" />
    <glyph glyph-name="yacute" unicode="&#xfd;" horiz-adv-x="1118" 
d="M465 1106l-27 22l240 365l141 -104zM299 -420q-75 0 -143 35l-13 225h17q97 -96 143 -125.5t78 -29.5q54 0 74 55l100 266h-74l-291 799q-15 42 -37 65t-77 43l-56 21v45h482v-45l-56 -21q-48 -18 -70 -37t-22 -45q0 -6 4 -26l242 -674l238 657q6 18 6 35q0 49 -68 84
l-55 27v45h373v-45l-64 -33q-92 -47 -129 -147l-395 -1051q-45 -123 -207 -123z" />
    <glyph glyph-name="thorn" unicode="&#xfe;" horiz-adv-x="1136" 
d="M12 -430v45l56 20q57 21 78.5 45.5t21.5 65.5v1581l-158 107v32l322 60v-707q74 97 151 141t168 44q87 0 162 -42.5t124 -113t77 -161t28 -187.5q0 -216 -124 -368t-289 -152q-88 0 -159 47.5t-138 136.5v-418q0 -41 30 -65.5t111 -45.5l76 -20v-45h-537zM604 86
q88 0 151 58.5t91 146t28 192.5q0 176 -75 291t-207 115q-140 0 -260 -148v-497q117 -158 272 -158z" />
    <glyph glyph-name="ydieresis" unicode="&#xff;" horiz-adv-x="1118" 
d="M385 1184q-42 0 -71 29t-29 71q0 41 29.5 71.5t70.5 30.5t71.5 -30.5t30.5 -71.5q0 -42 -30 -71t-72 -29zM754 1184q-42 0 -71.5 29t-29.5 71q0 41 30 71.5t71 30.5t71.5 -30.5t30.5 -71.5q0 -42 -30 -71t-72 -29zM299 -420q-75 0 -143 35l-13 225h17q97 -96 143 -125.5
t78 -29.5q54 0 74 55l100 266h-74l-291 799q-15 42 -37 65t-77 43l-56 21v45h482v-45l-56 -21q-48 -18 -70 -37t-22 -45q0 -6 4 -26l242 -674l238 657q6 18 6 35q0 49 -68 84l-55 27v45h373v-45l-64 -33q-92 -47 -129 -147l-395 -1051q-45 -123 -207 -123z" />
    <glyph glyph-name="Amacron" unicode="&#x100;" horiz-adv-x="1564" 
d="M510 1610v102h481v-102h-481zM63 0v45l64 23q67 23 108 63t66 105l387 1028l-80 200h189l495 -1274q27 -73 121 -110l90 -35v-45h-540v45l90 35q67 26 67 72q0 14 -8 38l-119 308h-506l-98 -262q-18 -46 -18 -82q0 -61 78 -86l63 -23v-45h-449zM518 580h443l-224 583h-2z
" />
    <glyph glyph-name="amacron" unicode="&#x101;" horiz-adv-x="1044" 
d="M283 1227v102h491v-102h-491zM360 -20q-114 0 -194 64.5t-80 176.5q0 70 37 130.5t94.5 103t138 76.5t157.5 54.5t163 35.5v112q0 21 -1 34.5t-4 40.5t-11.5 45.5t-22 38.5t-37.5 30t-55 10q-40 0 -89 -32.5t-196 -154.5h-24l-89 136q266 123 410 123q134 0 208.5 -73.5
t74.5 -191.5l-2 -551q0 -40 29.5 -62t125.5 -44v-45l-309 -55l8 176h-14q-49 -77 -134 -127.5t-184 -50.5zM412 92q133 0 264 139v330q-109 -26 -202 -69.5t-158.5 -111t-65.5 -142.5q0 -66 46 -106t116 -40z" />
    <glyph glyph-name="Abreve" unicode="&#x102;" horiz-adv-x="1564" 
d="M743 1538q-125 0 -195 77t-85 218h29q16 -82 87 -125t164 -43q92 0 162.5 43.5t83.5 124.5h29q-15 -141 -83.5 -218t-191.5 -77zM63 0v45l64 23q67 23 108 63t66 105l387 1028l-80 200h189l495 -1274q27 -73 121 -110l90 -35v-45h-540v45l90 35q67 26 67 72q0 14 -8 38
l-119 308h-506l-98 -262q-18 -46 -18 -82q0 -61 78 -86l63 -23v-45h-449zM518 580h443l-224 583h-2z" />
    <glyph glyph-name="abreve" unicode="&#x103;" horiz-adv-x="1044" 
d="M522 1155q-212 0 -241 295h34q14 -82 71.5 -125t135.5 -43q77 0 134.5 43t68.5 125h35q-29 -295 -238 -295zM360 -20q-114 0 -194 64.5t-80 176.5q0 70 37 130.5t94.5 103t138 76.5t157.5 54.5t163 35.5v112q0 21 -1 34.5t-4 40.5t-11.5 45.5t-22 38.5t-37.5 30t-55 10
q-40 0 -89 -32.5t-196 -154.5h-24l-89 136q266 123 410 123q134 0 208.5 -73.5t74.5 -191.5l-2 -551q0 -40 29.5 -62t125.5 -44v-45l-309 -55l8 176h-14q-49 -77 -134 -127.5t-184 -50.5zM412 92q133 0 264 139v330q-109 -26 -202 -69.5t-158.5 -111t-65.5 -142.5
q0 -66 46 -106t116 -40z" />
    <glyph glyph-name="Aogonek" unicode="&#x104;" horiz-adv-x="1564" 
d="M1184 0q-70 -61 -123 -133.5t-53 -136.5q0 -47 28 -72t70 -25q68 0 154 82l30 -26q-40 -62 -113.5 -111t-150.5 -49q-71 0 -118.5 39.5t-47.5 97.5q0 71 73 162.5t171 171.5h-141v45l90 35q67 26 67 72q0 14 -8 38l-119 308h-506l-98 -262q-18 -46 -18 -82q0 -61 78 -86
l63 -23v-45h-449v45l64 23q67 23 108 63t66 105l387 1028l-80 200h189l495 -1274q27 -73 121 -110l90 -35v-45h-319zM518 580h443l-224 583h-2z" />
    <glyph glyph-name="aogonek" unicode="&#x105;" horiz-adv-x="1044" 
d="M756 -6q-64 -57 -112 -128.5t-48 -135.5q0 -47 26 -72t66 -25q68 0 146 82l28 -26q-39 -64 -109.5 -113t-142.5 -49q-67 0 -112 40t-45 99q0 72 68.5 162t162.5 172l8 158h-14q-49 -77 -134 -127.5t-184 -50.5q-114 0 -194 64.5t-80 176.5q0 70 37 130.5t94.5 103
t138 76.5t157.5 54.5t163 35.5v112q0 21 -1 34.5t-4 40.5t-11.5 45.5t-22 38.5t-37.5 30t-55 10q-40 0 -89 -32.5t-196 -154.5h-24l-89 136q266 123 410 123q134 0 208.5 -73.5t74.5 -191.5l-2 -551q0 -40 29.5 -62t125.5 -44v-45zM676 231v330q-109 -26 -202 -69.5
t-158.5 -111t-65.5 -142.5q0 -66 46 -106t116 -40q133 0 264 139z" />
    <glyph glyph-name="Cacute" unicode="&#x106;" horiz-adv-x="1394" 
d="M645 1526l-16 28l344 252l100 -143zM807 -25q-144 0 -268.5 53t-216 149t-143.5 240t-52 318q0 162 53 303t143.5 239.5t214.5 155t263 56.5q191 0 434 -82l20 -225h-24q-191 148 -260 183.5t-168 35.5q-97 0 -184.5 -43.5t-156.5 -125t-110 -210.5t-41 -287
q0 -154 39.5 -282t107 -212.5t158.5 -131t195 -46.5q56 0 96 11.5t116 58.5t208 148h24l-20 -224q-255 -82 -428 -82z" />
    <glyph glyph-name="cacute" unicode="&#x107;" horiz-adv-x="987" 
d="M401 1106l-26 22l239 365l142 -104zM522 -20q-182 0 -305 143t-123 364q0 224 127.5 370.5t304.5 146.5q141 0 305 -80l-24 -187h-25q-145 127 -191.5 158t-84.5 31q-46 0 -91.5 -24.5t-84 -70t-62.5 -120t-24 -164.5q0 -192 99.5 -311t242.5 -119q73 0 146 34t122 105
l43 -14q-11 -41 -41.5 -85t-77 -84.5t-114.5 -66.5t-142 -26z" />
    <glyph glyph-name="Ccircumflex" unicode="&#x108;" horiz-adv-x="1394" 
d="M494 1532l-15 24l316 295h24l316 -295l-15 -24l-313 147zM807 -25q-144 0 -268.5 53t-216 149t-143.5 240t-52 318q0 162 53 303t143.5 239.5t214.5 155t263 56.5q191 0 434 -82l20 -225h-24q-191 148 -260 183.5t-168 35.5q-97 0 -184.5 -43.5t-156.5 -125t-110 -210.5
t-41 -287q0 -154 39.5 -282t107 -212.5t158.5 -131t195 -46.5q56 0 96 11.5t116 58.5t208 148h24l-20 -224q-255 -82 -428 -82z" />
    <glyph glyph-name="ccircumflex" unicode="&#x109;" horiz-adv-x="987" 
d="M293 1137l-23 20l224 342h28l226 -342l-25 -18l-217 172zM522 -20q-182 0 -305 143t-123 364q0 224 127.5 370.5t304.5 146.5q141 0 305 -80l-24 -187h-25q-145 127 -191.5 158t-84.5 31q-46 0 -91.5 -24.5t-84 -70t-62.5 -120t-24 -164.5q0 -192 99.5 -311t242.5 -119
q73 0 146 34t122 105l43 -14q-11 -41 -41.5 -85t-77 -84.5t-114.5 -66.5t-142 -26z" />
    <glyph glyph-name="Cdotaccent" unicode="&#x10a;" horiz-adv-x="1394" 
d="M807 1563q-46 0 -78.5 32t-32.5 78t32.5 78.5t78.5 32.5t78.5 -32.5t32.5 -78.5t-32.5 -78t-78.5 -32zM807 -25q-144 0 -268.5 53t-216 149t-143.5 240t-52 318q0 162 53 303t143.5 239.5t214.5 155t263 56.5q191 0 434 -82l20 -225h-24q-191 148 -260 183.5t-168 35.5
q-97 0 -184.5 -43.5t-156.5 -125t-110 -210.5t-41 -287q0 -154 39.5 -282t107 -212.5t158.5 -131t195 -46.5q56 0 96 11.5t116 58.5t208 148h24l-20 -224q-255 -82 -428 -82z" />
    <glyph glyph-name="cdotaccent" unicode="&#x10b;" horiz-adv-x="987" 
d="M508 1178q-45 0 -79 33t-34 77q0 43 34.5 76t78.5 33t78.5 -33t34.5 -76q0 -44 -34 -77t-79 -33zM522 -20q-182 0 -305 143t-123 364q0 224 127.5 370.5t304.5 146.5q141 0 305 -80l-24 -187h-25q-145 127 -191.5 158t-84.5 31q-46 0 -91.5 -24.5t-84 -70t-62.5 -120
t-24 -164.5q0 -192 99.5 -311t242.5 -119q73 0 146 34t122 105l43 -14q-11 -41 -41.5 -85t-77 -84.5t-114.5 -66.5t-142 -26z" />
    <glyph glyph-name="Ccaron" unicode="&#x10c;" horiz-adv-x="1394" 
d="M494 1847l313 -147l313 147l15 -24l-316 -295h-24l-316 295zM807 -25q-144 0 -268.5 53t-216 149t-143.5 240t-52 318q0 162 53 303t143.5 239.5t214.5 155t263 56.5q191 0 434 -82l20 -225h-24q-191 148 -260 183.5t-168 35.5q-97 0 -184.5 -43.5t-156.5 -125
t-110 -210.5t-41 -287q0 -154 39.5 -282t107 -212.5t158.5 -131t195 -46.5q56 0 96 11.5t116 58.5t208 148h24l-20 -224q-255 -82 -428 -82z" />
    <glyph glyph-name="ccaron" unicode="&#x10d;" horiz-adv-x="987" 
d="M293 1505l213 -174l217 172l25 -18l-226 -342h-28l-224 342zM522 -20q-182 0 -305 143t-123 364q0 224 127.5 370.5t304.5 146.5q141 0 305 -80l-24 -187h-25q-145 127 -191.5 158t-84.5 31q-46 0 -91.5 -24.5t-84 -70t-62.5 -120t-24 -164.5q0 -192 99.5 -311
t242.5 -119q73 0 146 34t122 105l43 -14q-11 -41 -41.5 -85t-77 -84.5t-114.5 -66.5t-142 -26z" />
    <glyph glyph-name="Dcaron" unicode="&#x10e;" horiz-adv-x="1513" 
d="M432 1847l313 -147l314 147l14 -24l-315 -295h-25l-315 295zM94 0v45l74 29q58 24 82 45t24 57v1112q0 36 -24.5 57.5t-81.5 45.5l-74 28v45h580q209 0 371.5 -93t251.5 -259.5t89 -378.5q0 -217 -89.5 -383.5t-252 -258t-374.5 -91.5h-576zM446 84h216q111 0 202 33.5
t153 92t104 140.5t61.5 176.5t19.5 202.5t-19 203t-61 178t-104 142.5t-152 93.5t-200 34h-220v-1296z" />
    <glyph glyph-name="dcaron" unicode="&#x10f;" horiz-adv-x="1185" 
d="M485 -20q-116 0 -207 72.5t-137.5 186t-46.5 244.5q0 143 58 263.5t153 189t203 68.5q88 0 159.5 -48.5t139.5 -138.5v510l-158 107v32l322 60v-1350q0 -40 22 -62.5t80 -41.5l53 -17l4 -45l-317 -20l8 180h-12q-74 -99 -152.5 -144.5t-171.5 -45.5zM1085 1087l31 418
h180l-182 -418h-29zM545 94q142 0 262 152v491q-121 160 -275 160q-88 0 -151 -58.5t-91 -146t-28 -192.5q0 -175 75.5 -290.5t207.5 -115.5z" />
    <glyph glyph-name="Dcroat" unicode="&#x110;" horiz-adv-x="1513" 
d="M94 0v45l74 29q58 24 82 45t24 57v549h-157v76h157v487q0 36 -24.5 57.5t-81.5 45.5l-74 28v45h580q209 0 371.5 -93t251.5 -259.5t89 -378.5q0 -217 -89.5 -383.5t-252 -258t-374.5 -91.5h-576zM446 82h216q139 0 244.5 51t169 141t95 204.5t31.5 250.5t-31.5 251.5
t-94.5 206.5t-168 143t-242 52h-220v-581h252v-76h-252v-643z" />
    <glyph glyph-name="dcroat" unicode="&#x111;" horiz-adv-x="1185" 
d="M1126 55l4 -45l-317 -20l8 180h-12q-74 -99 -152.5 -144.5t-171.5 -45.5q-116 0 -207 72.5t-137.5 186t-46.5 244.5q0 143 58 263.5t153 189t203 68.5q88 0 159.5 -48.5t139.5 -138.5v371h-260v69h260v70l-158 107v32l322 60v-269h133v-69h-133v-1012q0 -40 22 -62.5
t80 -41.5zM807 246v491q-121 160 -275 160q-88 0 -151 -58.5t-91 -146t-28 -192.5q0 -175 75.5 -290.5t207.5 -115.5q142 0 262 152z" />
    <glyph glyph-name="Emacron" unicode="&#x112;" horiz-adv-x="1329" 
d="M426 1610v102h535v-102h-535zM94 0v45l74 29q58 24 82 45t24 57v1112q0 36 -24.5 57.5t-81.5 45.5l-74 28v45h1022l35 -338h-33q-111 164 -159 210t-113 46h-400v-581h400q19 0 35.5 7.5t39 31.5t37 42.5t50.5 67.5h32v-375h-32q-58 82 -91.5 114t-70.5 32h-400v-639h463
q43 0 71.5 15t74 71t123.5 178h34l-36 -346h-1082z" />
    <glyph glyph-name="emacron" unicode="&#x113;" horiz-adv-x="1032" 
d="M289 1227v102h491v-102h-491zM547 -20q-194 0 -323.5 143.5t-129.5 363.5q0 141 55.5 259t155.5 188t223 70q112 0 202 -59t137.5 -152.5t47.5 -200.5v-39h-669q0 -107 29.5 -192.5t79.5 -138t111.5 -80t129.5 -27.5q182 0 293 153l45 -12q-34 -112 -142.5 -194
t-244.5 -82zM250 627h495q-9 132 -70.5 216.5t-162.5 84.5q-96 0 -169 -79t-93 -222z" />
    <glyph glyph-name="Ebreve" unicode="&#x114;" horiz-adv-x="1329" 
d="M686 1538q-125 0 -195 77t-85 218h28q16 -82 87.5 -125t164.5 -43q92 0 162.5 43.5t83.5 124.5h29q-15 -141 -83.5 -218t-191.5 -77zM94 0v45l74 29q58 24 82 45t24 57v1112q0 36 -24.5 57.5t-81.5 45.5l-74 28v45h1022l35 -338h-33q-111 164 -159 210t-113 46h-400v-581
h400q19 0 35.5 7.5t39 31.5t37 42.5t50.5 67.5h32v-375h-32q-58 82 -91.5 114t-70.5 32h-400v-639h463q43 0 71.5 15t74 71t123.5 178h34l-36 -346h-1082z" />
    <glyph glyph-name="ebreve" unicode="&#x115;" horiz-adv-x="1032" 
d="M528 1155q-212 0 -241 295h35q14 -82 71 -125t135 -43q77 0 134.5 43t68.5 125h35q-29 -295 -238 -295zM547 -20q-194 0 -323.5 143.5t-129.5 363.5q0 141 55.5 259t155.5 188t223 70q112 0 202 -59t137.5 -152.5t47.5 -200.5v-39h-669q0 -107 29.5 -192.5t79.5 -138
t111.5 -80t129.5 -27.5q182 0 293 153l45 -12q-34 -112 -142.5 -194t-244.5 -82zM250 627h495q-9 132 -70.5 216.5t-162.5 84.5q-96 0 -169 -79t-93 -222z" />
    <glyph glyph-name="Edotaccent" unicode="&#x116;" horiz-adv-x="1329" 
d="M686 1563q-46 0 -78.5 32t-32.5 78t32.5 78.5t78.5 32.5t78.5 -32.5t32.5 -78.5t-32.5 -78t-78.5 -32zM94 0v45l74 29q58 24 82 45t24 57v1112q0 36 -24.5 57.5t-81.5 45.5l-74 28v45h1022l35 -338h-33q-111 164 -159 210t-113 46h-400v-581h400q19 0 35.5 7.5t39 31.5
t37 42.5t50.5 67.5h32v-375h-32q-58 82 -91.5 114t-70.5 32h-400v-639h463q43 0 71.5 15t74 71t123.5 178h34l-36 -346h-1082z" />
    <glyph glyph-name="edotaccent" unicode="&#x117;" horiz-adv-x="1032" 
d="M528 1178q-44 0 -78 33t-34 77q0 43 34 76t78 33t78.5 -33t34.5 -76q0 -44 -34 -77t-79 -33zM547 -20q-194 0 -323.5 143.5t-129.5 363.5q0 141 55.5 259t155.5 188t223 70q112 0 202 -59t137.5 -152.5t47.5 -200.5v-39h-669q0 -107 29.5 -192.5t79.5 -138t111.5 -80
t129.5 -27.5q182 0 293 153l45 -12q-34 -112 -142.5 -194t-244.5 -82zM250 627h495q-9 132 -70.5 216.5t-162.5 84.5q-96 0 -169 -79t-93 -222z" />
    <glyph glyph-name="Eogonek" unicode="&#x118;" horiz-adv-x="1329" 
d="M965 0q-70 -61 -123.5 -133.5t-53.5 -136.5q0 -47 28.5 -72t70.5 -25q67 0 153 82l31 -26q-40 -62 -113.5 -111t-150.5 -49q-71 0 -118.5 39.5t-47.5 97.5q0 71 73 162.5t171 171.5h-791v45l74 29q58 24 82 45t24 57v1112q0 36 -24.5 57.5t-81.5 45.5l-74 28v45h1022
l35 -338h-33q-111 164 -159 210t-113 46h-400v-581h400q19 0 35.5 7.5t39 31.5t37 42.5t50.5 67.5h32v-375h-32q-58 82 -91.5 114t-70.5 32h-400v-639h463q43 0 71.5 15t74 71t123.5 178h34l-36 -346h-211z" />
    <glyph glyph-name="eogonek" unicode="&#x119;" horiz-adv-x="1032" 
d="M676 -328q65 0 143 82l29 -26q-38 -64 -108 -112t-142 -48q-67 0 -112.5 39t-45.5 98q0 113 172 281q-30 -6 -65 -6q-194 0 -323.5 143.5t-129.5 363.5q0 141 55.5 259t155.5 188t223 70q112 0 202 -59t137.5 -152.5t47.5 -200.5v-39h-669q0 -107 29.5 -192.5t79.5 -138
t111.5 -80t129.5 -27.5q182 0 293 153l45 -12q-20 -69 -74 -131t-127 -100q-60 -57 -104.5 -126t-44.5 -130q0 -47 26 -72t66 -25zM512 928q-96 0 -169 -79t-93 -222h495q-9 132 -70.5 216.5t-162.5 84.5z" />
    <glyph glyph-name="Ecaron" unicode="&#x11a;" horiz-adv-x="1329" 
d="M373 1847l313 -147l313 147l15 -24l-316 -295h-24l-316 295zM94 0v45l74 29q58 24 82 45t24 57v1112q0 36 -24.5 57.5t-81.5 45.5l-74 28v45h1022l35 -338h-33q-111 164 -159 210t-113 46h-400v-581h400q19 0 35.5 7.5t39 31.5t37 42.5t50.5 67.5h32v-375h-32
q-58 82 -91.5 114t-70.5 32h-400v-639h463q43 0 71.5 15t74 71t123.5 178h34l-36 -346h-1082z" />
    <glyph glyph-name="ecaron" unicode="&#x11b;" horiz-adv-x="1032" 
d="M313 1505l213 -174l217 172l25 -18l-225 -342h-29l-223 342zM547 -20q-194 0 -323.5 143.5t-129.5 363.5q0 141 55.5 259t155.5 188t223 70q112 0 202 -59t137.5 -152.5t47.5 -200.5v-39h-669q0 -107 29.5 -192.5t79.5 -138t111.5 -80t129.5 -27.5q182 0 293 153l45 -12
q-34 -112 -142.5 -194t-244.5 -82zM250 627h495q-9 132 -70.5 216.5t-162.5 84.5q-96 0 -169 -79t-93 -222z" />
    <glyph glyph-name="Gcircumflex" unicode="&#x11c;" horiz-adv-x="1480" 
d="M477 1532l-14 24l315 295h25l315 -295l-14 -24l-313 147zM791 -20q-154 0 -279.5 56.5t-209.5 156.5t-129.5 237t-45.5 297q0 166 52 308t143.5 241.5t220.5 156t278 56.5q103 0 227 -26.5t201 -55.5l19 -223h-25q-124 99 -196.5 145t-117.5 59t-108 13
q-107 0 -200.5 -47.5t-162 -133t-108 -213t-39.5 -280.5q0 -302 142 -480.5t374 -178.5q105 0 198 30t134 74v420l-391 65v48h563v-592l-108 -17q-209 -116 -432 -116z" />
    <glyph glyph-name="gcircumflex" unicode="&#x11d;" horiz-adv-x="1095" 
d="M299 1135l-23 20l224 342h28l226 -342l-25 -18l-217 172zM463 -438q-67 0 -133.5 12.5t-125 37t-94.5 66t-36 93.5q0 39 20.5 77t52.5 66.5t56.5 46t46.5 29.5v10q-69 7 -100 39.5t-31 73.5t42 82.5t187 148.5v14q-107 38 -166 120.5t-59 189.5q0 148 109 242t288 94h45
l359 90h24l-33 -154l-247 29l-4 -11q31 -9 59 -21t63.5 -36t61.5 -53.5t43.5 -75.5t17.5 -100q0 -141 -108 -239.5t-291 -98.5q-28 0 -74 4q-87 -74 -111 -101.5t-24 -48.5q0 -20 16 -31.5t43 -11.5q47 0 181 2.5t153 2.5q157 0 237.5 -57.5t80.5 -164.5q0 -72 -35 -133.5
t-92 -103.5t-130 -72t-147 -43.5t-145 -13.5zM520 406q96 0 159.5 68t63.5 194q0 127 -63.5 195.5t-157.5 68.5q-95 0 -165 -69.5t-70 -196.5q0 -124 68.5 -192t164.5 -68zM481 -362q162 0 282 65t120 156q0 60 -46.5 103.5t-136.5 43.5q-98 0 -350 -8q-133 -94 -133 -199
q0 -75 68.5 -118t195.5 -43z" />
    <glyph glyph-name="Gbreve" unicode="&#x11e;" horiz-adv-x="1480" 
d="M791 1538q-125 0 -195.5 77t-85.5 218h29q16 -82 87.5 -125t164.5 -43q92 0 162 43.5t83 124.5h29q-15 -141 -83 -218t-191 -77zM791 -20q-154 0 -279.5 56.5t-209.5 156.5t-129.5 237t-45.5 297q0 166 52 308t143.5 241.5t220.5 156t278 56.5q103 0 227 -26.5t201 -55.5
l19 -223h-25q-124 99 -196.5 145t-117.5 59t-108 13q-107 0 -200.5 -47.5t-162 -133t-108 -213t-39.5 -280.5q0 -302 142 -480.5t374 -178.5q105 0 198 30t134 74v420l-391 65v48h563v-592l-108 -17q-209 -116 -432 -116z" />
    <glyph glyph-name="gbreve" unicode="&#x11f;" horiz-adv-x="1095" 
d="M514 1153q-213 0 -242 295h35q14 -82 71.5 -125t135.5 -43q77 0 134.5 43t68.5 125h35q-29 -295 -238 -295zM463 -438q-67 0 -133.5 12.5t-125 37t-94.5 66t-36 93.5q0 39 20.5 77t52.5 66.5t56.5 46t46.5 29.5v10q-69 7 -100 39.5t-31 73.5t42 82.5t187 148.5v14
q-107 38 -166 120.5t-59 189.5q0 148 109 242t288 94h45l359 90h24l-33 -154l-247 29l-4 -11q31 -9 59 -21t63.5 -36t61.5 -53.5t43.5 -75.5t17.5 -100q0 -141 -108 -239.5t-291 -98.5q-28 0 -74 4q-87 -74 -111 -101.5t-24 -48.5q0 -20 16 -31.5t43 -11.5q47 0 181 2.5
t153 2.5q157 0 237.5 -57.5t80.5 -164.5q0 -72 -35 -133.5t-92 -103.5t-130 -72t-147 -43.5t-145 -13.5zM520 406q96 0 159.5 68t63.5 194q0 127 -63.5 195.5t-157.5 68.5q-95 0 -165 -69.5t-70 -196.5q0 -124 68.5 -192t164.5 -68zM481 -362q162 0 282 65t120 156
q0 60 -46.5 103.5t-136.5 43.5q-98 0 -350 -8q-133 -94 -133 -199q0 -75 68.5 -118t195.5 -43z" />
    <glyph glyph-name="Gdotaccent" unicode="&#x120;" horiz-adv-x="1480" 
d="M791 1563q-46 0 -78.5 32t-32.5 78t32.5 78.5t78.5 32.5t78 -32.5t32 -78.5t-32 -78t-78 -32zM791 -20q-154 0 -279.5 56.5t-209.5 156.5t-129.5 237t-45.5 297q0 166 52 308t143.5 241.5t220.5 156t278 56.5q103 0 227 -26.5t201 -55.5l19 -223h-25q-124 99 -196.5 145
t-117.5 59t-108 13q-107 0 -200.5 -47.5t-162 -133t-108 -213t-39.5 -280.5q0 -302 142 -480.5t374 -178.5q105 0 198 30t134 74v420l-391 65v48h563v-592l-108 -17q-209 -116 -432 -116z" />
    <glyph glyph-name="gdotaccent" unicode="&#x121;" horiz-adv-x="1095" 
d="M514 1178q-46 0 -78.5 32t-32.5 78t32.5 78.5t78.5 32.5t78.5 -32.5t32.5 -78.5t-32.5 -78t-78.5 -32zM463 -438q-67 0 -133.5 12.5t-125 37t-94.5 66t-36 93.5q0 39 20.5 77t52.5 66.5t56.5 46t46.5 29.5v10q-69 7 -100 39.5t-31 73.5t42 82.5t187 148.5v14
q-107 38 -166 120.5t-59 189.5q0 148 109 242t288 94h45l359 90h24l-33 -154l-247 29l-4 -11q31 -9 59 -21t63.5 -36t61.5 -53.5t43.5 -75.5t17.5 -100q0 -141 -108 -239.5t-291 -98.5q-28 0 -74 4q-87 -74 -111 -101.5t-24 -48.5q0 -20 16 -31.5t43 -11.5q47 0 181 2.5
t153 2.5q157 0 237.5 -57.5t80.5 -164.5q0 -72 -35 -133.5t-92 -103.5t-130 -72t-147 -43.5t-145 -13.5zM520 406q96 0 159.5 68t63.5 194q0 127 -63.5 195.5t-157.5 68.5q-95 0 -165 -69.5t-70 -196.5q0 -124 68.5 -192t164.5 -68zM481 -362q162 0 282 65t120 156
q0 60 -46.5 103.5t-136.5 43.5q-98 0 -350 -8q-133 -94 -133 -199q0 -75 68.5 -118t195.5 -43z" />
    <glyph glyph-name="Gcommaaccent" unicode="&#x122;" horiz-adv-x="1480" 
d="M768 705h563v-592l-108 -17q-209 -116 -432 -116q-154 0 -279.5 56.5t-209.5 156.5t-129.5 237t-45.5 297q0 166 52 308t143.5 241.5t220.5 156t278 56.5q103 0 227 -26.5t201 -55.5l19 -223h-25q-124 99 -196.5 145t-117.5 59t-108 13q-107 0 -200.5 -47.5t-162 -133
t-108 -213t-39.5 -280.5q0 -302 142 -480.5t374 -178.5q105 0 198 30t134 74v420l-391 65v48zM838 -68q43 0 72.5 -27.5t29.5 -72.5q0 -56 -42.5 -120.5t-133.5 -166.5l-33 23q41 55 61.5 91.5t38.5 88.5q-43 3 -71.5 28.5t-28.5 63.5t32 65t75 27z" />
    <glyph glyph-name="gcommaaccent" unicode="&#x123;" horiz-adv-x="1095" 
d="M508 1149q-43 0 -72.5 27.5t-29.5 72.5q0 56 42.5 120.5t133.5 166.5l32 -23q-41 -55 -61.5 -91.5t-38.5 -88.5q43 -3 71.5 -28.5t28.5 -63.5t-31.5 -65t-74.5 -27zM694 150q157 0 237.5 -57.5t80.5 -164.5q0 -72 -35 -133.5t-92 -103.5t-130 -72t-147 -43.5t-145 -13.5
q-67 0 -133.5 12.5t-125 37t-94.5 66t-36 93.5q0 39 20.5 77t52.5 66.5t56.5 46t46.5 29.5v10q-69 7 -100 39.5t-31 73.5t42 82.5t187 148.5v14q-107 38 -166 120.5t-59 189.5q0 148 109 242t288 94h45l359 90h24l-33 -154l-247 29l-4 -11q31 -9 59 -21t63.5 -36t61.5 -53.5
t43.5 -75.5t17.5 -100q0 -141 -108 -239.5t-291 -98.5q-28 0 -74 4q-87 -74 -111 -101.5t-24 -48.5q0 -20 16 -31.5t43 -11.5q47 0 181 2.5t153 2.5zM287 666q0 -124 68.5 -192t164.5 -68t159.5 68t63.5 194q0 127 -63.5 195.5t-157.5 68.5q-95 0 -165 -69.5t-70 -196.5z
M481 -362q162 0 282 65t120 156q0 60 -46.5 103.5t-136.5 43.5q-98 0 -350 -8q-133 -94 -133 -199q0 -75 68.5 -118t195.5 -43z" />
    <glyph glyph-name="Hcircumflex" unicode="&#x124;" horiz-adv-x="1609" 
d="M487 1532l-14 24l315 295h25l315 -295l-14 -24l-313 147zM94 0v45l74 29q58 24 82 45t24 57v1112q0 36 -24.5 57.5t-81.5 45.5l-74 28v45h533v-45l-74 -28q-58 -24 -82.5 -45.5t-24.5 -57.5v-479h723v479q0 36 -24.5 57.5t-81.5 45.5l-74 28v45h533v-45l-74 -28
q-58 -24 -82.5 -45.5t-24.5 -57.5v-1112q0 -36 24.5 -57t82.5 -45l74 -29v-45h-533v45l74 29q58 24 82 45t24 57v545h-723v-545q0 -36 24.5 -57t82.5 -45l74 -29v-45h-533z" />
    <glyph glyph-name="hcircumflex" unicode="&#x125;" horiz-adv-x="1230" 
d="M10 1528l-12 22l283 265h22l285 -265l-15 -22l-280 133zM63 0v45l56 21q57 21 78.5 45t21.5 65v1151l-158 107v32l322 60v-735q160 213 362 213q120 0 197.5 -72.5t77.5 -206.5v-549q0 -41 21.5 -65t78.5 -45l56 -21v-45h-476v45l56 21q57 21 78.5 45t21.5 65v463
q0 235 -180 235q-149 0 -293 -163v-535q0 -41 21.5 -65t78.5 -45l56 -21v-45h-476z" />
    <glyph glyph-name="Hbar" unicode="&#x126;" horiz-adv-x="1611" 
d="M94 0v45l74 29q58 24 82 45t24 57v866h-178v62h178v184q0 36 -24.5 57.5t-81.5 45.5l-74 28v45h533v-45l-74 -28q-58 -24 -82.5 -45.5t-24.5 -57.5v-184h723v184q0 36 -24.5 57.5t-81.5 45.5l-74 28v45h533v-45l-74 -28q-58 -24 -82.5 -45.5t-24.5 -57.5v-184h183v-62
h-183v-866q0 -36 24.5 -57t82.5 -45l74 -29v-45h-533v45l74 29q58 24 82 45t24 57v545h-723v-545q0 -36 24.5 -57t82.5 -45l74 -29v-45h-533zM446 809h723v233h-723v-233z" />
    <glyph glyph-name="hbar" unicode="&#x127;" horiz-adv-x="1230" 
d="M1120 66l56 -21v-45h-476v45l56 21q57 21 78.5 45t21.5 65v463q0 235 -180 235q-149 0 -293 -163v-535q0 -41 21.5 -65t78.5 -45l56 -21v-45h-476v45l56 21q57 21 78.5 45t21.5 65v1008h-145v69h145v74l-158 107v32l322 60v-273h229v-69h-229v-393q160 213 362 213
q120 0 197.5 -72.5t77.5 -206.5v-549q0 -41 21.5 -65t78.5 -45z" />
    <glyph glyph-name="Itilde" unicode="&#x128;" horiz-adv-x="714" 
d="M467 1591q-45 0 -129 31q-85 33 -131 33q-27 0 -44 -13t-52 -51l-27 13q15 81 58 123t108 42q53 0 127 -32q81 -33 133 -33q56 0 94 61l29 -10q-33 -164 -166 -164zM94 0v45l74 29q58 24 82 45t24 57v1112q0 36 -24.5 57.5t-81.5 45.5l-74 28v45h533v-45l-74 -28
q-58 -24 -82.5 -45.5t-24.5 -57.5v-1112q0 -36 24.5 -57t82.5 -45l74 -29v-45h-533z" />
    <glyph glyph-name="itilde" unicode="&#x129;" horiz-adv-x="593" 
d="M375 1208q-42 0 -123 31q-82 33 -127 33q-18 0 -33 -8.5t-24 -18t-33 -37.5l-27 13q15 81 56 123t104 42q52 0 123 -32q73 -33 127 -33q30 0 49.5 14t40.5 47l27 -10q-14 -83 -56.5 -123.5t-103.5 -40.5zM63 0v45l56 21q57 21 78.5 45t21.5 65v623l-158 96v33l322 84
v-836q0 -41 21.5 -65t78.5 -45l56 -21v-45h-476z" />
    <glyph glyph-name="Imacron" unicode="&#x12a;" horiz-adv-x="714" 
d="M100 1610v102h535v-102h-535zM94 0v45l74 29q58 24 82 45t24 57v1112q0 36 -24.5 57.5t-81.5 45.5l-74 28v45h533v-45l-74 -28q-58 -24 -82.5 -45.5t-24.5 -57.5v-1112q0 -36 24.5 -57t82.5 -45l74 -29v-45h-533z" />
    <glyph glyph-name="imacron" unicode="&#x12b;" horiz-adv-x="593" 
d="M33 1227v102h491v-102h-491zM63 0v45l56 21q57 21 78.5 45t21.5 65v623l-158 96v33l322 84v-836q0 -41 21.5 -65t78.5 -45l56 -21v-45h-476z" />
    <glyph glyph-name="Ibreve" unicode="&#x12c;" horiz-adv-x="714" 
d="M360 1538q-125 0 -195 77t-85 218h29q16 -82 87 -125t164 -43q92 0 162.5 43.5t83.5 124.5h29q-15 -141 -83.5 -218t-191.5 -77zM94 0v45l74 29q58 24 82 45t24 57v1112q0 36 -24.5 57.5t-81.5 45.5l-74 28v45h533v-45l-74 -28q-58 -24 -82.5 -45.5t-24.5 -57.5v-1112
q0 -36 24.5 -57t82.5 -45l74 -29v-45h-533z" />
    <glyph glyph-name="ibreve" unicode="&#x12d;" horiz-adv-x="593" 
d="M272 1155q-212 0 -241 295h35q14 -82 71 -125t135 -43q77 0 134.5 43t68.5 125h35q-29 -295 -238 -295zM63 0v45l56 21q57 21 78.5 45t21.5 65v623l-158 96v33l322 84v-836q0 -41 21.5 -65t78.5 -45l56 -21v-45h-476z" />
    <glyph glyph-name="Iogonek" unicode="&#x12e;" horiz-adv-x="714" 
d="M553 1391q-58 -24 -82.5 -45.5t-24.5 -57.5v-1112q0 -36 24.5 -57t82.5 -45l74 -29v-45h-215q-70 -61 -123 -133.5t-53 -136.5q0 -47 28 -72t70 -25q67 0 153 82l31 -26q-40 -62 -113.5 -111t-150.5 -49q-71 0 -118.5 39.5t-47.5 97.5q0 71 73 162.5t171 171.5h-238v45
l74 29q58 24 82 45t24 57v1112q0 36 -24.5 57.5t-81.5 45.5l-74 28v45h533v-45z" />
    <glyph glyph-name="iogonek" unicode="&#x12f;" horiz-adv-x="593" 
d="M272 1178q-44 0 -78 33t-34 77q0 43 34 76t78 33t78.5 -33t34.5 -76q0 -44 -34 -77t-79 -33zM373 0q-65 -60 -114.5 -132.5t-49.5 -137.5q0 -47 26 -72t66 -25q65 0 143 82l29 -26q-38 -64 -108 -112t-142 -48q-67 0 -112 39t-45 98q0 72 68.5 162t162.5 172h-234v45
l56 21q57 21 78.5 45t21.5 65v623l-158 96v33l322 84v-836q0 -41 21.5 -65t78.5 -45l56 -21v-45h-166z" />
    <glyph glyph-name="Idotaccent" unicode="&#x130;" horiz-adv-x="714" 
d="M360 1563q-46 0 -78 32t-32 78t32 78.5t78 32.5t78.5 -32.5t32.5 -78.5t-32.5 -78t-78.5 -32zM94 0v45l74 29q58 24 82 45t24 57v1112q0 36 -24.5 57.5t-81.5 45.5l-74 28v45h533v-45l-74 -28q-58 -24 -82.5 -45.5t-24.5 -57.5v-1112q0 -36 24.5 -57t82.5 -45l74 -29v-45
h-533z" />
    <glyph glyph-name="dotlessi" unicode="&#x131;" horiz-adv-x="593" 
d="M63 0v45l56 21q57 21 78.5 45t21.5 65v623l-158 96v33l322 84v-836q0 -41 21.5 -65t78.5 -45l56 -21v-45h-476z" />
    <glyph glyph-name="Jcircumflex" unicode="&#x134;" horiz-adv-x="1077" 
d="M444 1532l-14 24l315 295h25l315 -295l-14 -24l-313 147zM500 -20q-173 0 -314 98l29 254h25q71 -117 113 -171.5t73.5 -73.5t73.5 -19q172 0 172 268v952q0 36 -24.5 57.5t-82.5 45.5l-73 28v45h532v-45l-74 -28q-57 -24 -81.5 -45.5t-24.5 -57.5v-973q0 -88 -32 -155.5
t-84 -105t-109.5 -56t-118.5 -18.5z" />
    <glyph glyph-name="jcircumflex" unicode="&#x135;" horiz-adv-x="595" 
d="M57 1137l-22 20l223 342h29l225 -342l-25 -18l-217 172zM33 -438l-10 43q109 56 152.5 131.5t43.5 228.5v834l-158 96v33l322 84v-983q0 -193 -87.5 -304.5t-262.5 -162.5z" />
    <glyph glyph-name="Kcommaaccent" unicode="&#x136;" horiz-adv-x="1454" 
d="M1188 188q28 -42 60 -68.5t118 -78.5v-41h-254l-494 737l-172 -209v-352q0 -36 24.5 -57t82.5 -45l74 -29v-45h-533v45l74 29q58 24 82 45t24 57v1112q0 36 -24.5 57.5t-81.5 45.5l-74 28v45h533v-45l-74 -28q-58 -24 -82.5 -45.5t-24.5 -57.5v-635l510 621q23 30 23 47
q0 18 -18.5 33t-61.5 35l-68 30v45h498v-45l-92 -37q-74 -30 -113.5 -56.5t-70.5 -63.5l-402 -484l4 -6l131 14zM770 -68q43 0 72.5 -27.5t29.5 -72.5q0 -56 -42.5 -120.5t-133.5 -166.5l-32 23q41 55 61.5 91.5t38.5 88.5q-43 3 -71.5 28.5t-28.5 63.5t31.5 65t74.5 27z
" />
    <glyph glyph-name="kcommaaccent" unicode="&#x137;" horiz-adv-x="1153" 
d="M991 137q35 -51 107 -92v-45h-201l-373 524l-141 -118v-230q0 -41 21.5 -65t78.5 -45l56 -21v-45h-476v45l56 21q57 21 78.5 45t21.5 65v1151l-158 107v32l322 60v-1030l373 315q30 27 30 45q0 15 -12 25l-94 73v25h393v-25q-169 -113 -223 -157l-297 -248l2 -4l115 35z
M602 -68q43 0 73 -28t30 -72q0 -56 -42.5 -120t-134.5 -167l-32 23q41 55 61.5 91.5t38.5 88.5q-43 3 -71.5 28.5t-28.5 63.5t31.5 65t74.5 27z" />
    <glyph glyph-name="kgreenlandic" unicode="&#x138;" horiz-adv-x="1155" 
d="M63 0v45l56 21q57 21 78.5 45t21.5 65v623l-158 96v33l322 84v-514l375 317q30 27 30 45q0 15 -12 25l-94 73v25h393v-25q-169 -114 -223 -157l-289 -242l109 25l321 -443q35 -51 107 -92v-45h-201l-373 524l-143 -120v-232q0 -41 21.5 -65t78.5 -45l56 -21v-45h-476z
" />
    <glyph glyph-name="Lacute" unicode="&#x139;" horiz-adv-x="1304" 
d="M209 1526l-16 28l344 252l100 -143zM94 0v45l74 29q58 24 82 45t24 57v1112q0 36 -24.5 57.5t-81.5 45.5l-74 28v45h533v-45l-74 -28q-58 -24 -82.5 -45.5t-24.5 -57.5v-1206h437q42 0 71 16.5t73.5 71t123.5 176.5h35l-37 -346h-1055z" />
    <glyph glyph-name="lacute" unicode="&#x13a;" horiz-adv-x="593" 
d="M55 1565l-20 28l315 299l113 -135zM63 0v45l56 21q57 21 78.5 45t21.5 65v1151l-158 107v32l322 60v-1350q0 -41 21.5 -65t78.5 -45l56 -21v-45h-476z" />
    <glyph glyph-name="Lcommaaccent" unicode="&#x13b;" horiz-adv-x="1304" 
d="M1151 346h35l-37 -346h-1055v45l74 29q58 24 82 45t24 57v1112q0 36 -24.5 57.5t-81.5 45.5l-74 28v45h533v-45l-74 -28q-58 -24 -82.5 -45.5t-24.5 -57.5v-1206h437q42 0 71 16.5t73.5 71t123.5 176.5zM717 -68q43 0 72.5 -27.5t29.5 -72.5q0 -56 -42.5 -120.5
t-133.5 -166.5l-33 23q41 56 62 92.5t39 87.5q-43 3 -72 28.5t-29 63.5t32 65t75 27z" />
    <glyph glyph-name="lcommaaccent" unicode="&#x13c;" horiz-adv-x="593" 
d="M483 66l56 -21v-45h-476v45l56 21q57 21 78.5 45t21.5 65v1151l-158 107v32l322 60v-1350q0 -41 21.5 -65t78.5 -45zM303 -68q43 0 73 -28t30 -72q0 -56 -42.5 -120t-134.5 -167l-32 23q41 55 61.5 91.5t38.5 88.5q-43 3 -71.5 28.5t-28.5 63.5t31.5 65t74.5 27z" />
    <glyph glyph-name="Lcaron" unicode="&#x13d;" horiz-adv-x="1304" 
d="M711 1139l-33 6l47 434l174 -29zM94 0v45l74 29q58 24 82 45t24 57v1112q0 36 -24.5 57.5t-81.5 45.5l-74 28v45h533v-45l-74 -28q-58 -24 -82.5 -45.5t-24.5 -57.5v-1206h437q42 0 71 16.5t73.5 71t123.5 176.5h35l-37 -346h-1055z" />
    <glyph glyph-name="lcaron" unicode="&#x13e;" horiz-adv-x="593" 
d="M63 0v45l56 21q57 21 78.5 45t21.5 65v1151l-158 107v32l322 60v-1350q0 -41 21.5 -65t78.5 -45l56 -21v-45h-476zM492 1087l30 418h180l-182 -418h-28z" />
    <glyph glyph-name="Ldot" unicode="&#x13f;" horiz-adv-x="1304" 
d="M94 0v45l74 29q58 24 82 45t24 57v1112q0 36 -24.5 57.5t-81.5 45.5l-74 28v45h533v-45l-74 -28q-58 -24 -82.5 -45.5t-24.5 -57.5v-1214h437q41 0 71.5 19t73 73.5t123.5 179.5h35l-37 -346h-1055zM1055 516q-53 0 -92 39t-39 92t39 92t92 39t92 -39t39 -92t-39 -92
t-92 -39z" />
    <glyph glyph-name="ldot" unicode="&#x140;" horiz-adv-x="925" 
d="M63 0v45l56 21q57 21 78.5 45t21.5 65v1151l-158 107v32l322 60v-1350q0 -41 21.5 -65t78.5 -45l56 -21v-45h-476zM735 455q-53 0 -92 39.5t-39 91.5t39 91.5t92 39.5t92 -39.5t39 -91.5t-39 -91.5t-92 -39.5z" />
    <glyph glyph-name="Lslash" unicode="&#x141;" horiz-adv-x="1345" 
d="M1192 346h35l-37 -346h-1055v45l74 29q58 24 82 45t24 57v395l-221 -131v78l221 131v639q0 36 -24.5 57.5t-81.5 45.5l-74 28v45h533v-45l-74 -28q-58 -24 -82.5 -45.5t-24.5 -57.5v-536l295 174v-78l-295 -174v-592h437q42 0 71 16.5t73.5 71t123.5 176.5z" />
    <glyph glyph-name="lslash" unicode="&#x142;" horiz-adv-x="610" 
d="M555 866l-162 -108v-582q0 -40 21.5 -64.5t79.5 -45.5l55 -21v-45h-475v45l55 21q57 21 78.5 45t21.5 65v473l-168 -112v79l168 113v598l-157 107v32l321 60v-688l162 108v-80z" />
    <glyph glyph-name="Nacute" unicode="&#x143;" horiz-adv-x="1599" 
d="M647 1526l-16 28l344 252l100 -143zM84 0v45l86 37q113 50 113 131v1139l-195 63v49h377l782 -1370v1157q0 82 -112 131l-86 37v45h481v-45l-86 -37q-113 -51 -113 -131v-1251h-221l-739 1298h-4v-1085q0 -80 112 -131l86 -37v-45h-481z" />
    <glyph glyph-name="nacute" unicode="&#x144;" horiz-adv-x="1230" 
d="M514 1106l-27 22l240 365l141 -104zM63 0v45l56 21q57 21 78.5 45t21.5 65v623l-158 96v33l320 84l-14 -230h10q70 97 161.5 159.5t198.5 62.5q125 0 204 -72t79 -207v-549q0 -41 21.5 -65t78.5 -45l56 -21v-45h-476v45l56 21q57 21 78.5 45t21.5 65v463q0 235 -180 235
q-149 0 -293 -163v-535q0 -41 21.5 -65t78.5 -45l56 -21v-45h-476z" />
    <glyph glyph-name="Ncommaaccent" unicode="&#x145;" horiz-adv-x="1599" 
d="M1530 1464v-45l-86 -37q-113 -51 -113 -131v-1251h-221l-739 1298h-4v-1085q0 -80 112 -131l86 -37v-45h-481v45l86 37q113 50 113 131v1139l-195 63v49h377l782 -1370v1157q0 82 -112 131l-86 37v45h481zM788 -68q43 0 73 -28t30 -72q0 -56 -42.5 -120.5t-133.5 -166.5
l-33 23q41 55 61.5 91.5t38.5 88.5q-43 3 -71.5 28.5t-28.5 63.5t31.5 65t74.5 27z" />
    <glyph glyph-name="ncommaaccent" unicode="&#x146;" horiz-adv-x="1230" 
d="M1120 66l56 -21v-45h-476v45l56 21q57 21 78.5 45t21.5 65v463q0 235 -180 235q-149 0 -293 -163v-535q0 -41 21.5 -65t78.5 -45l56 -21v-45h-476v45l56 21q57 21 78.5 45t21.5 65v623l-158 96v33l320 84l-14 -230h10q70 97 161.5 159.5t198.5 62.5q125 0 204 -72
t79 -207v-549q0 -41 21.5 -65t78.5 -45zM641 -68q43 0 72.5 -27.5t29.5 -72.5q0 -56 -42.5 -120.5t-133.5 -166.5l-32 23q41 55 61.5 91.5t38.5 88.5q-43 3 -71.5 28.5t-28.5 63.5t31.5 65t74.5 27z" />
    <glyph glyph-name="Ncaron" unicode="&#x147;" horiz-adv-x="1599" 
d="M496 1847l313 -147l313 147l15 -24l-316 -295h-24l-316 295zM84 0v45l86 37q113 50 113 131v1139l-195 63v49h377l782 -1370v1157q0 82 -112 131l-86 37v45h481v-45l-86 -37q-113 -51 -113 -131v-1251h-221l-739 1298h-4v-1085q0 -80 112 -131l86 -37v-45h-481z" />
    <glyph glyph-name="ncaron" unicode="&#x148;" horiz-adv-x="1230" 
d="M406 1505l212 -174l218 172l24 -18l-225 -342h-29l-223 342zM63 0v45l56 21q57 21 78.5 45t21.5 65v623l-158 96v33l320 84l-14 -230h10q70 97 161.5 159.5t198.5 62.5q125 0 204 -72t79 -207v-549q0 -41 21.5 -65t78.5 -45l56 -21v-45h-476v45l56 21q57 21 78.5 45
t21.5 65v463q0 235 -180 235q-149 0 -293 -163v-535q0 -41 21.5 -65t78.5 -45l56 -21v-45h-476z" />
    <glyph glyph-name="Eng" unicode="&#x14a;" horiz-adv-x="1599" 
d="M1530 1464v-45l-86 -37q-113 -51 -113 -131v-1507q0 -95 -50.5 -132.5t-152.5 -37.5q-15 0 -30 1.5t-25 3.5t-26 6.5t-22.5 7t-24 9t-21.5 7.5l-25 231h25q120 -111 157.5 -139.5t67.5 -28.5q53 0 53 90v238h-147l-739 1298h-4v-1085q0 -80 112 -131l86 -37v-45h-481v45
l86 37q113 50 113 131v1139l-195 63v49h377l782 -1370v1157q0 82 -112 131l-86 37v45h481z" />
    <glyph glyph-name="eng" unicode="&#x14b;" horiz-adv-x="1230" 
d="M670 -451l-8 43q103 55 148.5 130.5t45.5 222.5v692q0 237 -180 237q-148 0 -293 -163v-535q0 -41 21.5 -65t78.5 -45l56 -21v-45h-476v45l56 21q57 21 78.5 45t21.5 65v623l-158 96v33l320 84l-14 -236h6q68 97 161 162.5t203 65.5q125 0 204 -72t79 -207v-725
q0 -188 -91 -296t-259 -155z" />
    <glyph glyph-name="Omacron" unicode="&#x14c;" horiz-adv-x="1601" 
d="M541 1610v102h534v-102h-534zM801 -25q-142 0 -266.5 57t-214 156.5t-141.5 241t-52 303.5t51.5 302.5t141 240t214.5 156.5t267 57t267 -57t214.5 -156.5t141 -240t51.5 -302.5t-51.5 -303t-141 -240.5t-214.5 -157t-267 -57.5zM805 63q135 0 245.5 85t175 239t64.5 346
q0 294 -140 481t-351 187q-102 0 -192 -50.5t-155 -138.5t-103 -213.5t-38 -269.5q0 -191 65 -344t178 -237.5t251 -84.5z" />
    <glyph glyph-name="omacron" unicode="&#x14d;" horiz-adv-x="1150" 
d="M344 1227v102h492v-102h-492zM575 -20q-114 0 -207 43t-151.5 115t-90.5 163t-32 191t32 191t90.5 163t151.5 115t207 43t207 -43t152 -115t91 -163t32 -191t-32 -191t-91 -163t-152 -115t-207 -43zM575 55q61 0 115 27t97 79.5t68.5 137.5t25.5 193q0 115 -25 201.5
t-69 136t-97 74t-115 24.5q-58 0 -111.5 -27t-97 -79t-70 -137.5t-26.5 -192.5t26.5 -193t70 -138t97 -79t111.5 -27z" />
    <glyph glyph-name="Obreve" unicode="&#x14e;" horiz-adv-x="1601" 
d="M801 1538q-125 0 -195.5 77t-85.5 218h29q16 -82 87.5 -125t164.5 -43q92 0 162.5 43.5t83.5 124.5h28q-15 -141 -83 -218t-191 -77zM801 -25q-142 0 -266.5 57t-214 156.5t-141.5 241t-52 303.5t51.5 302.5t141 240t214.5 156.5t267 57t267 -57t214.5 -156.5t141 -240
t51.5 -302.5t-51.5 -303t-141 -240.5t-214.5 -157t-267 -57.5zM805 63q135 0 245.5 85t175 239t64.5 346q0 294 -140 481t-351 187q-102 0 -192 -50.5t-155 -138.5t-103 -213.5t-38 -269.5q0 -191 65 -344t178 -237.5t251 -84.5z" />
    <glyph glyph-name="obreve" unicode="&#x14f;" horiz-adv-x="1150" 
d="M584 1155q-213 0 -242 295h35q14 -82 71.5 -125t135.5 -43q77 0 134 43t68 125h35q-29 -295 -237 -295zM575 -20q-114 0 -207 43t-151.5 115t-90.5 163t-32 191t32 191t90.5 163t151.5 115t207 43t207 -43t152 -115t91 -163t32 -191t-32 -191t-91 -163t-152 -115
t-207 -43zM575 55q61 0 115 27t97 79.5t68.5 137.5t25.5 193q0 115 -25 201.5t-69 136t-97 74t-115 24.5q-58 0 -111.5 -27t-97 -79t-70 -137.5t-26.5 -192.5t26.5 -193t70 -138t97 -79t111.5 -27z" />
    <glyph glyph-name="Ohungarumlaut" unicode="&#x150;" horiz-adv-x="1601" 
d="M526 1518l-24 26l286 326l127 -123zM899 1518l-25 26l287 326l127 -123zM801 -25q-142 0 -266.5 57t-214 156.5t-141.5 241t-52 303.5t51.5 302.5t141 240t214.5 156.5t267 57t267 -57t214.5 -156.5t141 -240t51.5 -302.5t-51.5 -303t-141 -240.5t-214.5 -157t-267 -57.5
zM805 63q135 0 245.5 85t175 239t64.5 346q0 294 -140 481t-351 187q-102 0 -192 -50.5t-155 -138.5t-103 -213.5t-38 -269.5q0 -191 65 -344t178 -237.5t251 -84.5z" />
    <glyph glyph-name="ohungarumlaut" unicode="&#x151;" horiz-adv-x="1150" 
d="M358 1110l-28 16l170 402l157 -78zM705 1110l-29 16l170 402l158 -78zM575 -20q-114 0 -207 43t-151.5 115t-90.5 163t-32 191t32 191t90.5 163t151.5 115t207 43t207 -43t152 -115t91 -163t32 -191t-32 -191t-91 -163t-152 -115t-207 -43zM575 55q61 0 115 27t97 79.5
t68.5 137.5t25.5 193q0 115 -25 201.5t-69 136t-97 74t-115 24.5q-58 0 -111.5 -27t-97 -79t-70 -137.5t-26.5 -192.5t26.5 -193t70 -138t97 -79t111.5 -27z" />
    <glyph glyph-name="OE" unicode="&#x152;" horiz-adv-x="2263" 
d="M797 -25q-193 0 -346 96.5t-238.5 270t-85.5 391.5t85.5 391t238.5 269t346 96q265 0 430 -201v176h817l35 -338h-33q-112 164 -160 210t-112 46h-375v-579h358q37 0 68 31t94 118h33v-374h-33q-57 81 -90.5 113t-71.5 32h-358v-641h444q42 0 71 16.5t73.5 71
t123.5 176.5h35l-37 -346h-882v178q-164 -203 -430 -203zM805 63q139 0 250.5 84t171.5 244v678q-60 162 -172 247t-252 85q-136 0 -247.5 -80.5t-178 -234.5t-66.5 -355q0 -152 39 -279t106.5 -211.5t157.5 -131t191 -46.5z" />
    <glyph glyph-name="oe" unicode="&#x153;" horiz-adv-x="1826" 
d="M575 -25q-91 0 -169.5 28.5t-135 77.5t-97 114t-60 140t-19.5 154q0 80 20 155t60 140.5t97 114.5t135 77t169 28q136 0 231.5 -62.5t149.5 -171.5q57 109 151.5 171.5t211.5 62.5q112 0 202 -59t137.5 -153t47.5 -202v-39h-668q0 -107 29.5 -192.5t79 -138.5t111 -81
t128.5 -28q184 0 297 157l46 -12q-35 -114 -142 -197.5t-250 -83.5q-123 0 -223.5 62.5t-159.5 171.5q-52 -108 -148 -171t-231 -63zM575 51q126 0 216 117t90 321t-90 321.5t-216 117.5q-121 0 -213 -118.5t-92 -320.5q0 -203 91.5 -320.5t213.5 -117.5zM1042 625h494
q-5 121 -69 212t-162 91q-95 0 -170 -83.5t-93 -219.5z" />
    <glyph glyph-name="Racute" unicode="&#x154;" horiz-adv-x="1423" 
d="M496 1526l-17 28l344 252l101 -143zM94 0v45l74 29q58 24 82 45t24 57v1112q0 36 -24.5 57.5t-81.5 45.5l-74 28v45h629q221 0 340 -110.5t119 -276.5q0 -178 -132 -294.5t-358 -116.5h-6v-15l172 -59l283 -389q72 -98 194 -158v-45h-252l-487 664h-150v-488
q0 -36 24.5 -57t82.5 -45l74 -29v-45h-533zM446 748h211q351 0 351 313q0 156 -85.5 237.5t-222.5 81.5h-254v-632z" />
    <glyph glyph-name="racute" unicode="&#x155;" horiz-adv-x="831" 
d="M346 1106l-27 22l240 365l141 -104zM63 0v45l56 21q57 21 78.5 45t21.5 65v623l-158 96v33l318 84l-12 -230h10q60 105 127 163.5t158 58.5q47 0 100 -33l-33 -160q-128 29 -182 29q-38 0 -74.5 -31t-89.5 -117v-516q0 -40 27 -64.5t98 -45.5l70 -21v-45h-515z" />
    <glyph glyph-name="Rcommaaccent" unicode="&#x156;" horiz-adv-x="1423" 
d="M1141 203q72 -98 194 -158v-45h-252l-487 664h-150v-488q0 -36 24.5 -57t82.5 -45l74 -29v-45h-533v45l74 29q58 24 82 45t24 57v1112q0 36 -24.5 57.5t-81.5 45.5l-74 28v45h629q221 0 340 -110.5t119 -276.5q0 -178 -132 -294.5t-358 -116.5h-6v-15l172 -59zM446 748
h211q351 0 351 313q0 156 -85.5 237.5t-222.5 81.5h-254v-632zM737 -68q43 0 73 -28t30 -72q0 -56 -42.5 -120.5t-133.5 -166.5l-33 23q41 55 61.5 91.5t38.5 88.5q-43 3 -71.5 28.5t-28.5 63.5t31.5 65t74.5 27z" />
    <glyph glyph-name="rcommaaccent" unicode="&#x157;" horiz-adv-x="831" 
d="M547 840q-38 0 -74.5 -31t-89.5 -117v-516q0 -40 27 -64.5t98 -45.5l70 -21v-45h-515v45l56 21q57 21 78.5 45t21.5 65v623l-158 96v33l318 84l-12 -230h10q60 105 127 163.5t158 58.5q47 0 100 -33l-33 -160q-128 29 -182 29zM305 -68q43 0 73 -28t30 -72
q0 -56 -42.5 -120t-134.5 -167l-32 23q41 55 61.5 91.5t38.5 88.5q-43 3 -71.5 28.5t-28.5 63.5t31.5 65t74.5 27z" />
    <glyph glyph-name="Rcaron" unicode="&#x158;" horiz-adv-x="1423" 
d="M344 1847l313 -147l314 147l14 -24l-315 -295h-25l-315 295zM94 0v45l74 29q58 24 82 45t24 57v1112q0 36 -24.5 57.5t-81.5 45.5l-74 28v45h629q221 0 340 -110.5t119 -276.5q0 -178 -132 -294.5t-358 -116.5h-6v-15l172 -59l283 -389q72 -98 194 -158v-45h-252
l-487 664h-150v-488q0 -36 24.5 -57t82.5 -45l74 -29v-45h-533zM446 748h211q351 0 351 313q0 156 -85.5 237.5t-222.5 81.5h-254v-632z" />
    <glyph glyph-name="rcaron" unicode="&#x159;" horiz-adv-x="831" 
d="M238 1505l213 -174l217 172l24 -18l-225 -342h-29l-223 342zM63 0v45l56 21q57 21 78.5 45t21.5 65v623l-158 96v33l318 84l-12 -230h10q60 105 127 163.5t158 58.5q47 0 100 -33l-33 -160q-128 29 -182 29q-38 0 -74.5 -31t-89.5 -117v-516q0 -40 27 -64.5t98 -45.5
l70 -21v-45h-515z" />
    <glyph glyph-name="Sacute" unicode="&#x15a;" horiz-adv-x="1140" 
d="M418 1526l-17 28l344 252l101 -143zM594 -25q-183 0 -442 117l-25 250h33q128 -131 203 -191t120 -75t115 -15q134 0 209.5 70.5t75.5 187.5q0 97 -64 175t-172 127l-225 102q-123 56 -201 150t-78 231q0 120 59 209t154 132.5t211 43.5q164 0 346 -70l21 -221h-33
q-98 94 -156 137.5t-94 55.5t-88 12q-114 0 -193 -62t-79 -174q0 -182 233 -290l197 -91q44 -20 78.5 -39t80.5 -56.5t77 -79.5t53 -106.5t22 -139.5q0 -95 -37 -171t-99.5 -123t-139.5 -71.5t-162 -24.5z" />
    <glyph glyph-name="sacute" unicode="&#x15b;" horiz-adv-x="894" 
d="M326 1108l-27 22l240 365l141 -104zM451 -20q-80 0 -169 21.5t-155 53.5l-25 207h33q69 -67 101.5 -97t66 -58t56 -36t45 -12t59.5 -4q81 0 135.5 42.5t54.5 111.5q0 114 -161 184l-150 66q-238 105 -238 282q0 65 30.5 116.5t81 83t111 47.5t124.5 16q134 0 268 -50
l22 -186h-32q-143 107 -188 133.5t-87 26.5q-76 0 -129 -44t-53 -114q0 -60 41 -100.5t113 -69.5l159 -65q45 -18 84 -43t75 -59.5t56.5 -82.5t20.5 -102q0 -123 -102 -195.5t-248 -72.5z" />
    <glyph glyph-name="Scircumflex" unicode="&#x15c;" horiz-adv-x="1140" 
d="M266 1532l-14 24l315 295h25l315 -295l-14 -24l-313 147zM594 -25q-183 0 -442 117l-25 250h33q128 -131 203 -191t120 -75t115 -15q134 0 209.5 70.5t75.5 187.5q0 97 -64 175t-172 127l-225 102q-123 56 -201 150t-78 231q0 120 59 209t154 132.5t211 43.5
q164 0 346 -70l21 -221h-33q-98 94 -156 137.5t-94 55.5t-88 12q-114 0 -193 -62t-79 -174q0 -182 233 -290l197 -91q44 -20 78.5 -39t80.5 -56.5t77 -79.5t53 -106.5t22 -139.5q0 -95 -37 -171t-99.5 -123t-139.5 -71.5t-162 -24.5z" />
    <glyph glyph-name="scircumflex" unicode="&#x15d;" horiz-adv-x="894" 
d="M217 1139l-22 20l223 342h28l226 -342l-25 -18l-217 172zM451 -20q-80 0 -169 21.5t-155 53.5l-25 207h33q69 -67 101.5 -97t66 -58t56 -36t45 -12t59.5 -4q81 0 135.5 42.5t54.5 111.5q0 114 -161 184l-150 66q-238 105 -238 282q0 65 30.5 116.5t81 83t111 47.5
t124.5 16q134 0 268 -50l22 -186h-32q-143 107 -188 133.5t-87 26.5q-76 0 -129 -44t-53 -114q0 -60 41 -100.5t113 -69.5l159 -65q45 -18 84 -43t75 -59.5t56.5 -82.5t20.5 -102q0 -123 -102 -195.5t-248 -72.5z" />
    <glyph glyph-name="Scedilla" unicode="&#x15e;" horiz-adv-x="1140" 
d="M1032 365q0 -74 -23 -137t-62 -108t-92.5 -77t-113.5 -49t-125 -19l-53 -57q51 -7 95.5 -27t77 -62.5t32.5 -98.5q0 -84 -61 -130t-154 -46q-75 0 -211 34l70 115h12q59 -50 87.5 -69t47.5 -19q33 0 59.5 18.5t26.5 63.5q0 58 -49.5 89t-122.5 38l-63 6l133 147
q-168 13 -391 115l-25 250h33q128 -131 203 -191t120 -75t115 -15q134 0 209.5 70.5t75.5 187.5q0 97 -64 175t-172 127l-225 102q-123 56 -201 150t-78 231q0 120 59 209t154 132.5t211 43.5q164 0 346 -70l21 -221h-33q-98 94 -156 137.5t-94 55.5t-88 12q-114 0 -193 -62
t-79 -174q0 -182 233 -290l197 -91q44 -20 78.5 -39t80.5 -56.5t77 -79.5t53 -106.5t22 -139.5z" />
    <glyph glyph-name="scedilla" unicode="&#x15f;" horiz-adv-x="894" 
d="M801 248q0 -117 -92.5 -188.5t-229.5 -79.5l-43 -58q78 -10 136.5 -58t58.5 -130q0 -84 -58 -130t-147 -46q-73 0 -201 34l68 115h12q57 -52 82.5 -70t44.5 -18q31 0 55.5 18.5t24.5 63.5q0 60 -46 90t-116 37l-59 6l119 148q-151 9 -283 73l-25 207h33q69 -67 101.5 -97
t66 -58t56 -36t45 -12t59.5 -4q81 0 135.5 42.5t54.5 111.5q0 114 -161 184l-150 66q-238 105 -238 282q0 65 30.5 116.5t81 83t111 47.5t124.5 16q134 0 268 -50l22 -186h-32q-143 107 -188 133.5t-87 26.5q-76 0 -129 -44t-53 -114q0 -60 41 -100.5t113 -69.5l159 -65
q45 -18 84 -43t75 -59.5t56.5 -82.5t20.5 -102z" />
    <glyph glyph-name="Scaron" unicode="&#x160;" horiz-adv-x="1140" 
d="M266 1847l314 -147l313 147l14 -24l-315 -295h-25l-315 295zM594 -25q-183 0 -442 117l-25 250h33q128 -131 203 -191t120 -75t115 -15q134 0 209.5 70.5t75.5 187.5q0 97 -64 175t-172 127l-225 102q-123 56 -201 150t-78 231q0 120 59 209t154 132.5t211 43.5
q164 0 346 -70l21 -221h-33q-98 94 -156 137.5t-94 55.5t-88 12q-114 0 -193 -62t-79 -174q0 -182 233 -290l197 -91q44 -20 78.5 -39t80.5 -56.5t77 -79.5t53 -106.5t22 -139.5q0 -95 -37 -171t-99.5 -123t-139.5 -71.5t-162 -24.5z" />
    <glyph glyph-name="scaron" unicode="&#x161;" horiz-adv-x="894" 
d="M217 1507l213 -174l217 172l25 -18l-226 -342h-28l-223 342zM451 -20q-80 0 -169 21.5t-155 53.5l-25 207h33q69 -67 101.5 -97t66 -58t56 -36t45 -12t59.5 -4q81 0 135.5 42.5t54.5 111.5q0 114 -161 184l-150 66q-238 105 -238 282q0 65 30.5 116.5t81 83t111 47.5
t124.5 16q134 0 268 -50l22 -186h-32q-143 107 -188 133.5t-87 26.5q-76 0 -129 -44t-53 -114q0 -60 41 -100.5t113 -69.5l159 -65q45 -18 84 -43t75 -59.5t56.5 -82.5t20.5 -102q0 -123 -102 -195.5t-248 -72.5z" />
    <glyph glyph-name="Tcedilla" unicode="&#x162;" horiz-adv-x="1374" 
d="M1266 1464l34 -338h-32q-112 163 -160.5 209.5t-112.5 46.5h-219v-1206q0 -36 24.5 -57t82.5 -45l73 -29v-45h-227l-65 -72q51 -7 95 -27t76.5 -62.5t32.5 -98.5q0 -84 -61 -130t-154 -46q-71 0 -211 35l70 114h12q59 -50 87.5 -69t47.5 -19q33 0 59.5 18.5t26.5 63.5
q0 58 -49.5 89t-122.5 38l-63 6l145 160h-231v45l74 29q58 24 82 45t24 57v1206h-219q-64 0 -112 -46t-160 -210h-33l35 338h1151z" />
    <glyph glyph-name="tcedilla" unicode="&#x163;" horiz-adv-x="712" 
d="M668 897h-306v-635q0 -104 41.5 -146t102.5 -42q68 0 127 39l24 -33q-83 -96 -221 -96l-49 -66q78 -10 136.5 -58t58.5 -130q0 -84 -58 -130t-147 -46q-73 0 -201 34l68 115h12q57 -52 82.5 -70t44.5 -18q31 0 55.5 18.5t24.5 63.5q0 60 -46 90t-116 37l-59 6l129 162
q-74 16 -123 78t-49 168v659h-148v82h148v127l159 162h4v-289h306v-82z" />
    <glyph glyph-name="Tcaron" unicode="&#x164;" horiz-adv-x="1374" 
d="M377 1847l313 -147l314 147l14 -24l-316 -295h-24l-316 295zM424 0v45l74 29q58 24 82 45t24 57v1206h-219q-64 0 -112 -46t-160 -210h-33l35 338h1151l34 -338h-32q-112 163 -160.5 209.5t-112.5 46.5h-219v-1206q0 -36 24.5 -57t82.5 -45l73 -29v-45h-532z" />
    <glyph glyph-name="tcaron" unicode="&#x165;" horiz-adv-x="712" 
d="M455 1087l30 418h181l-183 -418h-28zM434 -16q-44 0 -84.5 14.5t-75 43t-55 79.5t-20.5 117v659h-148v82h148v127l159 162h4v-289h306v-82h-306v-635q0 -104 41.5 -146t102.5 -42q68 0 127 39l24 -33q-83 -96 -223 -96z" />
    <glyph glyph-name="Tbar" unicode="&#x166;" horiz-adv-x="1374" 
d="M1266 1464l34 -338h-32q-112 163 -160.5 209.5t-112.5 46.5h-219v-610h252v-70h-252v-526q0 -36 24.5 -57t82.5 -45l73 -29v-45h-532v45l74 29q58 24 82 45t24 57v526h-250v70h250v610h-219q-64 0 -112 -46t-160 -210h-33l35 338h1151z" />
    <glyph glyph-name="tbar" unicode="&#x167;" horiz-adv-x="712" 
d="M668 897h-306v-158h265v-69h-265v-408q0 -104 41.5 -146t102.5 -42q68 0 127 39l24 -33q-83 -96 -223 -96q-44 0 -84.5 14.5t-75 43t-55 79.5t-20.5 117v432h-146v69h146v158h-148v82h148v127l159 162h4v-289h306v-82z" />
    <glyph glyph-name="Utilde" unicode="&#x168;" horiz-adv-x="1501" 
d="M874 1591q-45 0 -129 31q-85 33 -131 33q-27 0 -44 -13t-52 -51l-26 13q15 81 57.5 123t107.5 42q53 0 127 -32q81 -33 134 -33q56 0 94 61l28 -10q-33 -164 -166 -164zM752 -25q-71 0 -138.5 14t-137 50.5t-120.5 92.5t-83.5 148t-32.5 209v799q0 36 -24.5 57.5
t-82.5 45.5l-74 28v45h533v-45l-74 -28q-57 -24 -81.5 -45.5t-24.5 -57.5v-760q0 -207 103 -319.5t284 -112.5q167 0 276 98.5t109 270.5v786q0 81 -103 131l-77 37v45h444v-45l-78 -37q-102 -50 -102 -131v-800q0 -214 -146.5 -345t-369.5 -131z" />
    <glyph glyph-name="utilde" unicode="&#x169;" horiz-adv-x="1232" 
d="M719 1208q-42 0 -123 31q-82 33 -127 33q-18 0 -33 -8.5t-24 -18t-33 -37.5l-27 13q15 81 56 123t104 42q52 0 123 -32q73 -33 127 -33q30 0 49.5 14t40.5 47l27 -10q-14 -83 -56.5 -123.5t-103.5 -40.5zM500 -20q-126 0 -204.5 72t-78.5 206v545q0 41 -21.5 65t-78.5 45
l-56 21v45h320v-639q0 -231 182 -231q146 0 291 163v531q0 41 -21.5 65t-78.5 45l-56 21v45h320v-803q0 -40 22 -62.5t80 -41.5l54 -17l4 -45l-322 -20l12 211h-8q-159 -221 -360 -221z" />
    <glyph glyph-name="Umacron" unicode="&#x16a;" horiz-adv-x="1501" 
d="M508 1610v102h534v-102h-534zM752 -25q-71 0 -138.5 14t-137 50.5t-120.5 92.5t-83.5 148t-32.5 209v799q0 36 -24.5 57.5t-82.5 45.5l-74 28v45h533v-45l-74 -28q-57 -24 -81.5 -45.5t-24.5 -57.5v-760q0 -207 103 -319.5t284 -112.5q167 0 276 98.5t109 270.5v786
q0 81 -103 131l-77 37v45h444v-45l-78 -37q-102 -50 -102 -131v-800q0 -214 -146.5 -345t-369.5 -131z" />
    <glyph glyph-name="umacron" unicode="&#x16b;" horiz-adv-x="1232" 
d="M377 1227v102h491v-102h-491zM500 -20q-126 0 -204.5 72t-78.5 206v545q0 41 -21.5 65t-78.5 45l-56 21v45h320v-639q0 -231 182 -231q146 0 291 163v531q0 41 -21.5 65t-78.5 45l-56 21v45h320v-803q0 -40 22 -62.5t80 -41.5l54 -17l4 -45l-322 -20l12 211h-8
q-159 -221 -360 -221z" />
    <glyph glyph-name="Ubreve" unicode="&#x16c;" horiz-adv-x="1501" 
d="M768 1538q-125 0 -195.5 77t-85.5 218h29q16 -82 87.5 -125t164.5 -43q92 0 162.5 43.5t83.5 124.5h28q-15 -141 -83 -218t-191 -77zM752 -25q-71 0 -138.5 14t-137 50.5t-120.5 92.5t-83.5 148t-32.5 209v799q0 36 -24.5 57.5t-82.5 45.5l-74 28v45h533v-45l-74 -28
q-57 -24 -81.5 -45.5t-24.5 -57.5v-760q0 -207 103 -319.5t284 -112.5q167 0 276 98.5t109 270.5v786q0 81 -103 131l-77 37v45h444v-45l-78 -37q-102 -50 -102 -131v-800q0 -214 -146.5 -345t-369.5 -131z" />
    <glyph glyph-name="ubreve" unicode="&#x16d;" horiz-adv-x="1232" 
d="M616 1155q-212 0 -241 295h35q14 -82 71 -125t135 -43q77 0 134.5 43t68.5 125h35q-29 -295 -238 -295zM500 -20q-126 0 -204.5 72t-78.5 206v545q0 41 -21.5 65t-78.5 45l-56 21v45h320v-639q0 -231 182 -231q146 0 291 163v531q0 41 -21.5 65t-78.5 45l-56 21v45h320
v-803q0 -40 22 -62.5t80 -41.5l54 -17l4 -45l-322 -20l12 211h-8q-159 -221 -360 -221z" />
    <glyph glyph-name="Uring" unicode="&#x16e;" horiz-adv-x="1501" 
d="M768 1522q-71 0 -125.5 52.5t-54.5 125.5q0 70 54.5 122t125.5 52q75 0 129.5 -52.5t54.5 -121.5q0 -72 -54.5 -125t-129.5 -53zM768 1573q54 0 89.5 37.5t35.5 89.5t-35 87.5t-90 35.5q-50 0 -86.5 -36t-36.5 -87t37 -89t86 -38zM752 -25q-71 0 -138.5 14t-137 50.5
t-120.5 92.5t-83.5 148t-32.5 209v799q0 36 -24.5 57.5t-82.5 45.5l-74 28v45h533v-45l-74 -28q-57 -24 -81.5 -45.5t-24.5 -57.5v-760q0 -207 103 -319.5t284 -112.5q167 0 276 98.5t109 270.5v786q0 81 -103 131l-77 37v45h444v-45l-78 -37q-102 -50 -102 -131v-800
q0 -214 -146.5 -345t-369.5 -131z" />
    <glyph glyph-name="uring" unicode="&#x16f;" horiz-adv-x="1232" 
d="M616 1108q-75 0 -131.5 54.5t-56.5 129.5q0 73 57 127t131 54q78 0 135.5 -54.5t57.5 -126.5q0 -75 -57.5 -129.5t-135.5 -54.5zM616 1167q53 0 88 37t35 88q0 50 -35 85.5t-88 35.5q-48 0 -84 -36t-36 -85t36.5 -87t83.5 -38zM500 -20q-126 0 -204.5 72t-78.5 206v545
q0 41 -21.5 65t-78.5 45l-56 21v45h320v-639q0 -231 182 -231q146 0 291 163v531q0 41 -21.5 65t-78.5 45l-56 21v45h320v-803q0 -40 22 -62.5t80 -41.5l54 -17l4 -45l-322 -20l12 211h-8q-159 -221 -360 -221z" />
    <glyph glyph-name="Uhungarumlaut" unicode="&#x170;" horiz-adv-x="1501" 
d="M494 1518l-25 26l287 326l127 -123zM866 1518l-24 26l286 326l127 -123zM752 -25q-71 0 -138.5 14t-137 50.5t-120.5 92.5t-83.5 148t-32.5 209v799q0 36 -24.5 57.5t-82.5 45.5l-74 28v45h533v-45l-74 -28q-57 -24 -81.5 -45.5t-24.5 -57.5v-760q0 -207 103 -319.5
t284 -112.5q167 0 276 98.5t109 270.5v786q0 81 -103 131l-77 37v45h444v-45l-78 -37q-102 -50 -102 -131v-800q0 -214 -146.5 -345t-369.5 -131z" />
    <glyph glyph-name="uhungarumlaut" unicode="&#x171;" horiz-adv-x="1232" 
d="M391 1110l-29 16l170 402l158 -78zM737 1110l-28 16l170 402l157 -78zM500 -20q-126 0 -204.5 72t-78.5 206v545q0 41 -21.5 65t-78.5 45l-56 21v45h320v-639q0 -231 182 -231q146 0 291 163v531q0 41 -21.5 65t-78.5 45l-56 21v45h320v-803q0 -40 22 -62.5t80 -41.5
l54 -17l4 -45l-322 -20l12 211h-8q-159 -221 -360 -221z" />
    <glyph glyph-name="Uogonek" unicode="&#x172;" horiz-adv-x="1501" 
d="M1448 1464v-45l-78 -37q-102 -50 -102 -131v-800q0 -162 -86.5 -278t-231.5 -167q-65 -57 -113.5 -126t-48.5 -130q0 -47 28 -71.5t71 -24.5q67 0 153 82l31 -27q-40 -62 -113.5 -111t-150.5 -49q-70 0 -118 39.5t-48 98.5q0 63 57 141.5t142 153.5q-51 -7 -88 -7
q-71 0 -138.5 14t-137 50.5t-120.5 92.5t-83.5 148t-32.5 209v799q0 36 -24.5 57.5t-82.5 45.5l-74 28v45h533v-45l-74 -28q-57 -24 -81.5 -45.5t-24.5 -57.5v-760q0 -207 103 -319.5t284 -112.5q167 0 276 98.5t109 270.5v786q0 81 -103 131l-77 37v45h444z" />
    <glyph glyph-name="uogonek" unicode="&#x173;" horiz-adv-x="1232" 
d="M862 -367q66 0 144 82l28 -26q-38 -64 -108 -112t-142 -48q-67 0 -112 39t-45 98q0 72 67.5 161.5t161.5 170.5l12 203h-8q-159 -221 -360 -221q-126 0 -204.5 72t-78.5 206v545q0 41 -21.5 65t-78.5 45l-56 21v45h320v-639q0 -231 182 -231q146 0 291 163v531
q0 41 -21.5 65t-78.5 45l-56 21v45h320v-803q0 -40 22 -62.5t80 -41.5l54 -17l4 -45l-250 -16q-63 -58 -110.5 -129t-47.5 -135q0 -47 26 -72t66 -25z" />
    <glyph glyph-name="Wcircumflex" unicode="&#x174;" horiz-adv-x="2217" 
d="M758 1532l-15 24l316 295h24l316 -295l-15 -24l-313 147zM651 0l-399 1272q-20 75 -115 112l-90 35v45h533v-45l-91 -35q-69 -26 -69 -75q0 -19 6 -37l369 -1176l274 897l-90 279q-23 75 -117 112l-90 35v45h533v-45l-91 -35q-69 -26 -69 -75q0 -19 6 -37l377 -1182
l340 1135q12 37 12 67q0 38 -24.5 63t-81.5 42l-76 22v45h483v-45l-63 -22q-67 -23 -105 -64t-59 -108l-371 -1225h-197l-274 858l-264 -858h-197z" />
    <glyph glyph-name="wcircumflex" unicode="&#x175;" horiz-adv-x="1660" 
d="M592 1137l-23 20l224 342h28l226 -342l-25 -18l-217 172zM469 -4l-281 809q-13 42 -35 65t-77 43l-56 21v45h480v-45l-56 -21q-48 -18 -70 -37t-22 -45q0 -6 4 -26l242 -711l190 570l-47 141q-13 42 -35 65t-77 43l-56 21v45h480v-45l-56 -21q-48 -18 -70 -37t-22 -45
q0 -6 4 -26l238 -711l235 694q7 18 7 31q0 53 -72 88l-55 27v45h374v-45l-63 -33q-95 -49 -127 -147l-262 -754l-164 -4l-195 555l-190 -551z" />
    <glyph glyph-name="Ycircumflex" unicode="&#x176;" horiz-adv-x="1439" 
d="M477 1532l-14 24l315 295h25l315 -295l-14 -24l-313 147zM455 0v45l73 29q58 24 82.5 45t24.5 57v479l-387 625q-41 67 -135 104l-90 35v45h550v-45l-90 -35q-61 -24 -61 -59q0 -19 16 -45l328 -535l303 496q33 58 33 88q0 46 -70 68l-63 22v45h458v-45l-63 -22
q-68 -24 -115.5 -60.5t-83.5 -95.5l-358 -584v-481q0 -36 24 -57t82 -45l74 -29v-45h-532z" />
    <glyph glyph-name="ycircumflex" unicode="&#x177;" horiz-adv-x="1118" 
d="M356 1137l-22 20l223 342h29l225 -342l-25 -18l-217 172zM299 -420q-75 0 -143 35l-13 225h17q97 -96 143 -125.5t78 -29.5q54 0 74 55l100 266h-74l-291 799q-15 42 -37 65t-77 43l-56 21v45h482v-45l-56 -21q-48 -18 -70 -37t-22 -45q0 -6 4 -26l242 -674l238 657
q6 18 6 35q0 49 -68 84l-55 27v45h373v-45l-64 -33q-92 -47 -129 -147l-395 -1051q-45 -123 -207 -123z" />
    <glyph glyph-name="Ydieresis" unicode="&#x178;" horiz-adv-x="1439" 
d="M604 1563q-46 0 -78 32t-32 78t32 78.5t78 32.5t78.5 -32.5t32.5 -78.5t-32.5 -78t-78.5 -32zM979 1563q-46 0 -78.5 32t-32.5 78t32.5 78.5t78.5 32.5t78.5 -32.5t32.5 -78.5t-32.5 -78t-78.5 -32zM455 0v45l73 29q58 24 82.5 45t24.5 57v479l-387 625q-41 67 -135 104
l-90 35v45h550v-45l-90 -35q-61 -24 -61 -59q0 -19 16 -45l328 -535l303 496q33 58 33 88q0 46 -70 68l-63 22v45h458v-45l-63 -22q-68 -24 -115.5 -60.5t-83.5 -95.5l-358 -584v-481q0 -36 24 -57t82 -45l74 -29v-45h-532z" />
    <glyph glyph-name="Zacute" unicode="&#x179;" horiz-adv-x="1298" 
d="M514 1526l-16 28l344 252l100 -143zM145 0v45l832 1337h-477q-64 0 -112.5 -46.5t-160.5 -209.5h-32l34 338h953v-45l-832 -1337h531q42 0 71 16.5t73.5 71t123.5 176.5h35l-37 -346h-1002z" />
    <glyph glyph-name="zacute" unicode="&#x17a;" horiz-adv-x="976" 
d="M397 1106l-26 22l239 365l142 -104zM106 0v53l574 850h-295q-39 0 -79 -38t-132 -165h-33l25 279h708v-53l-579 -850h338q28 0 49.5 12t60.5 59.5t101 143.5h33l-25 -291h-746z" />
    <glyph glyph-name="Zdotaccent" unicode="&#x17b;" horiz-adv-x="1298" 
d="M676 1563q-46 0 -78.5 32t-32.5 78t32.5 78.5t78.5 32.5t78 -32.5t32 -78.5t-32 -78t-78 -32zM145 0v45l832 1337h-477q-64 0 -112.5 -46.5t-160.5 -209.5h-32l34 338h953v-45l-832 -1337h531q42 0 71 16.5t73.5 71t123.5 176.5h35l-37 -346h-1002z" />
    <glyph glyph-name="zdotaccent" unicode="&#x17c;" horiz-adv-x="976" 
d="M504 1178q-45 0 -79 33t-34 77q0 43 34.5 76t78.5 33t78 -33t34 -76q0 -44 -34 -77t-78 -33zM106 0v53l574 850h-295q-39 0 -79 -38t-132 -165h-33l25 279h708v-53l-579 -850h338q28 0 49.5 12t60.5 59.5t101 143.5h33l-25 -291h-746z" />
    <glyph glyph-name="Zcaron" unicode="&#x17d;" horiz-adv-x="1298" 
d="M362 1847l314 -147l313 147l15 -24l-316 -295h-24l-316 295zM145 0v45l832 1337h-477q-64 0 -112.5 -46.5t-160.5 -209.5h-32l34 338h953v-45l-832 -1337h531q42 0 71 16.5t73.5 71t123.5 176.5h35l-37 -346h-1002z" />
    <glyph glyph-name="zcaron" unicode="&#x17e;" horiz-adv-x="976" 
d="M289 1505l213 -174l217 172l24 -18l-225 -342h-29l-223 342zM106 0v53l574 850h-295q-39 0 -79 -38t-132 -165h-33l25 279h708v-53l-579 -850h338q28 0 49.5 12t60.5 59.5t101 143.5h33l-25 -291h-746z" />
    <glyph glyph-name="Aringacute" unicode="&#x1fa;" horiz-adv-x="1564" 
d="M582 1884l-17 29l344 252l101 -144zM743 1522q-71 0 -125.5 52.5t-54.5 125.5q0 70 54.5 122t125.5 52q75 0 130 -52.5t55 -121.5q0 -72 -55 -125t-130 -53zM743 1573q54 0 89.5 37.5t35.5 89.5t-35 87.5t-90 35.5q-50 0 -86 -36t-36 -87t36.5 -89t85.5 -38zM63 0v45
l64 23q67 23 108 63t66 105l387 1028l-80 200h189l495 -1274q27 -73 121 -110l90 -35v-45h-540v45l90 35q67 26 67 72q0 14 -8 38l-119 308h-506l-98 -262q-18 -46 -18 -82q0 -61 78 -86l63 -23v-45h-449zM518 580h443l-224 583h-2z" />
    <glyph glyph-name="aringacute" unicode="&#x1fb;" horiz-adv-x="1044" 
d="M416 1497l-27 23l240 364l141 -104zM522 1108q-75 0 -131.5 54.5t-56.5 129.5q0 73 57 127t131 54q78 0 135.5 -54.5t57.5 -126.5q0 -75 -57.5 -129.5t-135.5 -54.5zM522 1167q53 0 88 37t35 88q0 50 -35 85.5t-88 35.5q-48 0 -84.5 -36t-36.5 -85t37 -87t84 -38z
M360 -20q-114 0 -194 64.5t-80 176.5q0 70 37 130.5t94.5 103t138 76.5t157.5 54.5t163 35.5v112q0 21 -1 34.5t-4 40.5t-11.5 45.5t-22 38.5t-37.5 30t-55 10q-40 0 -89 -32.5t-196 -154.5h-24l-89 136q266 123 410 123q134 0 208.5 -73.5t74.5 -191.5l-2 -551
q0 -40 29.5 -62t125.5 -44v-45l-309 -55l8 176h-14q-49 -77 -134 -127.5t-184 -50.5zM412 92q133 0 264 139v330q-109 -26 -202 -69.5t-158.5 -111t-65.5 -142.5q0 -66 46 -106t116 -40z" />
    <glyph glyph-name="AEacute" unicode="&#x1fc;" horiz-adv-x="2109" 
d="M1307 1526l-17 28l344 252l101 -143zM33 0v45l63 23q69 24 117 60t84 95l647 1069q14 22 14 45q0 45 -63 62l-74 20v45h1073l35 -338h-33q-112 164 -160 210t-112 46h-373v-581h357q37 0 67 30.5t94 118.5h33v-375h-33q-58 82 -91 114t-70 32h-357v-639h439q42 0 71 16.5
t73.5 71t123.5 176.5h35l-37 -346h-1057v45l74 29q58 24 82 45t24 57v397h-475l-211 -350q-35 -65 -35 -88q0 -44 70 -67l64 -23v-45h-459zM1079 655v695h-6l-420 -695h426z" />
    <glyph glyph-name="aeacute" unicode="&#x1fd;" horiz-adv-x="1599" 
d="M690 1085l-26 23l239 365l141 -105zM369 -25q-120 0 -201.5 66.5t-81.5 177.5q0 88 57.5 164.5t147 125.5t190 79t195.5 35v139q0 90 -36.5 129t-88.5 39t-103 -33.5t-188 -155.5h-24l-89 140q257 123 408 123q88 0 149.5 -40.5t88.5 -109.5q51 71 132 110.5t175 39.5
q161 0 272 -122.5t111 -291.5v-39h-668q0 -110 30 -196.5t81 -138.5t113 -78.5t130 -26.5q173 0 287 155l45 -12q-31 -111 -141.5 -195t-247.5 -84q-121 0 -222.5 61t-156.5 169q-41 -90 -141 -160t-223 -70zM819 625h494q-1 71 -30 140t-82 116t-116 47q-100 0 -173 -82
t-93 -221zM424 92q88 0 163.5 50t112.5 118q-26 86 -26 223q0 13 1.5 35.5t0.5 36.5q-106 -14 -202 -54.5t-160 -106t-64 -140.5q0 -78 49.5 -120t124.5 -42z" />
    <glyph glyph-name="Oslashacute" unicode="&#x1fe;" horiz-adv-x="1601" 
d="M1067 1663l-428 -137l-16 28l344 252zM1227 1329q117 -101 182.5 -256t65.5 -340q0 -162 -51.5 -303t-141 -240.5t-214.5 -157t-267 -57.5q-209 0 -375 119l-156 -239h-82l185 282q-116 103 -181 257.5t-65 338.5q0 162 51.5 302.5t141 240t214.5 156.5t267 57
q210 0 373 -117l143 223h82zM311 729q0 -282 138 -473l655 1012q-130 133 -305 133q-102 0 -192 -50.5t-155 -138.5t-103 -213.5t-38 -269.5zM805 63q135 0 245.5 85t175 239t64.5 346q0 290 -139 479l-655 -1011q135 -138 309 -138z" />
    <glyph glyph-name="oslashacute" unicode="&#x1ff;" horiz-adv-x="1150" 
d="M831 1389l-354 -283l-26 22l239 365zM868 909q91 -71 140 -182t49 -235q0 -100 -32 -191t-91 -163t-152 -115t-207 -43q-135 0 -241 61l-127 -207h-76l150 242q-91 72 -139 182t-48 234q0 100 32 191t90.5 163t151.5 115t207 43q130 0 240 -60l113 184h76zM270 492
q0 -187 78 -306l412 670q-75 72 -185 72q-58 0 -111.5 -27t-97 -79t-70 -137.5t-26.5 -192.5zM575 55q61 0 115 27t97 79.5t68.5 137.5t25.5 193q0 200 -76 313l-414 -670q83 -80 184 -80z" />
    <glyph glyph-name="Scommaaccent" unicode="&#x218;" horiz-adv-x="1140" 
d="M721 786q44 -20 78.5 -39t80.5 -56.5t77 -79.5t53 -106.5t22 -139.5q0 -95 -37 -171t-99.5 -123t-139.5 -71.5t-162 -24.5q-183 0 -442 117l-25 250h33q128 -131 203 -191t120 -75t115 -15q134 0 209.5 70.5t75.5 187.5q0 97 -64 175t-172 127l-225 102q-123 56 -201 150
t-78 231q0 120 59 209t154 132.5t211 43.5q164 0 346 -70l21 -221h-33q-98 94 -156 137.5t-94 55.5t-88 12q-114 0 -193 -62t-79 -174q0 -182 233 -290zM592 -68q43 0 72.5 -27.5t29.5 -72.5q0 -56 -42.5 -120.5t-133.5 -166.5l-33 23q41 56 62 92.5t39 87.5q-43 3 -72 28.5
t-29 63.5t32 65t75 27z" />
    <glyph glyph-name="scommaaccent" unicode="&#x219;" horiz-adv-x="894" 
d="M565 535q45 -18 84 -43t75 -59.5t56.5 -82.5t20.5 -102q0 -123 -102 -195.5t-248 -72.5q-80 0 -169 21.5t-155 53.5l-25 207h33q69 -67 101.5 -97t66 -58t56 -36t45 -12t59.5 -4q81 0 135.5 42.5t54.5 111.5q0 114 -161 184l-150 66q-238 105 -238 282q0 65 30.5 116.5
t81 83t111 47.5t124.5 16q134 0 268 -50l22 -186h-32q-143 107 -188 133.5t-87 26.5q-76 0 -129 -44t-53 -114q0 -60 41 -100.5t113 -69.5zM463 -63q42 0 72 -28t30 -73q0 -56 -42.5 -120.5t-133.5 -166.5l-33 23q41 56 62 92.5t39 87.5q-43 3 -72 28.5t-29 63.5t32 65.5
t75 27.5z" />
    <glyph glyph-name="Tcommaaccent" unicode="&#x21a;" horiz-adv-x="1374" 
d="M1266 1464l34 -338h-32q-112 163 -160.5 209.5t-112.5 46.5h-219v-1206q0 -36 24.5 -57t82.5 -45l73 -29v-45h-532v45l74 29q58 24 82 45t24 57v1206h-219q-64 0 -112 -46t-160 -210h-33l35 338h1151zM692 -57q43 0 73 -28t30 -73q0 -56 -42.5 -119t-134.5 -167l-32 22
q41 55 61.5 91.5t38.5 88.5q-43 3 -71.5 28.5t-28.5 63.5t31.5 65.5t74.5 27.5z" />
    <glyph glyph-name="tcommaaccent" unicode="&#x21b;" horiz-adv-x="712" 
d="M668 897h-306v-635q0 -104 41.5 -146t102.5 -42q68 0 127 39l24 -33q-83 -96 -223 -96q-44 0 -84.5 14.5t-75 43t-55 79.5t-20.5 117v659h-148v82h148v127l159 162h4v-289h306v-82zM414 -68q43 0 72.5 -27.5t29.5 -72.5q0 -56 -42.5 -120.5t-133.5 -166.5l-33 23
q41 56 62 92.5t39 87.5q-43 3 -72 28.5t-29 63.5t32 65t75 27z" />
    <glyph glyph-name="uni0237" unicode="&#x237;" horiz-adv-x="595" 
d="M33 -438l-10 43q109 56 152.5 131.5t43.5 228.5v834l-158 96v33l322 84v-983q0 -193 -87.5 -304.5t-262.5 -162.5z" />
    <glyph glyph-name="circumflex" unicode="&#x2c6;" horiz-adv-x="741" 
d="M158 1137l-23 20l223 342h29l225 -342l-24 -18l-217 172z" />
    <glyph glyph-name="caron" unicode="&#x2c7;" horiz-adv-x="741" 
d="M158 1505l213 -174l217 172l24 -18l-225 -342h-29l-223 342z" />
    <glyph glyph-name="breve" unicode="&#x2d8;" horiz-adv-x="743" 
d="M377 1155q-213 0 -242 295h35q14 -82 71.5 -125t135.5 -43q77 0 134.5 43t68.5 125h34q-29 -295 -237 -295z" />
    <glyph glyph-name="dotaccent" unicode="&#x2d9;" horiz-adv-x="489" 
d="M248 1178q-45 0 -79 33t-34 77q0 43 34.5 76t78.5 33t78 -33t34 -76q0 -44 -34 -77t-78 -33z" />
    <glyph glyph-name="ring" unicode="&#x2da;" horiz-adv-x="645" 
d="M324 1071q-75 0 -132 54.5t-57 129.5q0 73 57.5 127t131.5 54q78 0 135 -54.5t57 -126.5q0 -75 -57 -129.5t-135 -54.5zM324 1130q53 0 87.5 37t34.5 88q0 50 -34.5 85.5t-87.5 35.5q-48 0 -84.5 -36t-36.5 -85t37 -87t84 -38z" />
    <glyph glyph-name="ogonek" unicode="&#x2db;" horiz-adv-x="671" 
d="M293 -463q-67 0 -112.5 39t-45.5 98q0 72 68.5 162t163.5 172h75q-64 -60 -113.5 -132.5t-49.5 -137.5q0 -47 25.5 -71.5t66.5 -24.5q65 0 143 82l29 -27q-38 -64 -108 -112t-142 -48z" />
    <glyph glyph-name="tilde" unicode="&#x2dc;" horiz-adv-x="790" 
d="M502 1208q-42 0 -123 31q-82 33 -127 33q-18 0 -33 -8.5t-24 -18t-33 -37.5l-27 13q15 81 56 123t104 42q52 0 123 -32q73 -33 127 -33q30 0 49.5 14t40.5 47l27 -10q-14 -83 -56.5 -123.5t-103.5 -40.5z" />
    <glyph glyph-name="hungarumlaut" unicode="&#x2dd;" horiz-adv-x="937" 
d="M164 1110l-29 16l170 402l158 -78zM510 1110l-29 16l170 402l158 -78z" />
    <glyph glyph-name="Wgrave" unicode="&#x1e80;" horiz-adv-x="2217" 
d="M1202 1526l-428 137l100 145l345 -254zM651 0l-399 1272q-20 75 -115 112l-90 35v45h533v-45l-91 -35q-69 -26 -69 -75q0 -19 6 -37l369 -1176l274 897l-90 279q-23 75 -117 112l-90 35v45h533v-45l-91 -35q-69 -26 -69 -75q0 -19 6 -37l377 -1182l340 1135q12 37 12 67
q0 38 -24.5 63t-81.5 42l-76 22v45h483v-45l-63 -22q-67 -23 -105 -64t-59 -108l-371 -1225h-197l-274 858l-264 -858h-197z" />
    <glyph glyph-name="wgrave" unicode="&#x1e81;" horiz-adv-x="1660" 
d="M893 1106l-354 283l141 104l240 -365zM469 -4l-281 809q-13 42 -35 65t-77 43l-56 21v45h480v-45l-56 -21q-48 -18 -70 -37t-22 -45q0 -6 4 -26l242 -711l190 570l-47 141q-13 42 -35 65t-77 43l-56 21v45h480v-45l-56 -21q-48 -18 -70 -37t-22 -45q0 -6 4 -26l238 -711
l235 694q7 18 7 31q0 53 -72 88l-55 27v45h374v-45l-63 -33q-95 -49 -127 -147l-262 -754l-164 -4l-195 555l-190 -551z" />
    <glyph glyph-name="Wacute" unicode="&#x1e82;" horiz-adv-x="2217" 
d="M909 1526l-16 28l344 252l100 -143zM651 0l-399 1272q-20 75 -115 112l-90 35v45h533v-45l-91 -35q-69 -26 -69 -75q0 -19 6 -37l369 -1176l274 897l-90 279q-23 75 -117 112l-90 35v45h533v-45l-91 -35q-69 -26 -69 -75q0 -19 6 -37l377 -1182l340 1135q12 37 12 67
q0 38 -24.5 63t-81.5 42l-76 22v45h483v-45l-63 -22q-67 -23 -105 -64t-59 -108l-371 -1225h-197l-274 858l-264 -858h-197z" />
    <glyph glyph-name="wacute" unicode="&#x1e83;" horiz-adv-x="1660" 
d="M700 1106l-26 22l239 365l142 -104zM469 -4l-281 809q-13 42 -35 65t-77 43l-56 21v45h480v-45l-56 -21q-48 -18 -70 -37t-22 -45q0 -6 4 -26l242 -711l190 570l-47 141q-13 42 -35 65t-77 43l-56 21v45h480v-45l-56 -21q-48 -18 -70 -37t-22 -45q0 -6 4 -26l238 -711
l235 694q7 18 7 31q0 53 -72 88l-55 27v45h374v-45l-63 -33q-95 -49 -127 -147l-262 -754l-164 -4l-195 555l-190 -551z" />
    <glyph glyph-name="Wdieresis" unicode="&#x1e84;" horiz-adv-x="2217" 
d="M885 1563q-46 0 -78.5 32t-32.5 78t32.5 78.5t78.5 32.5t78 -32.5t32 -78.5t-32 -78t-78 -32zM1260 1563q-46 0 -78.5 32t-32.5 78t32.5 78.5t78.5 32.5t78 -32.5t32 -78.5t-32 -78t-78 -32zM651 0l-399 1272q-20 75 -115 112l-90 35v45h533v-45l-91 -35q-69 -26 -69 -75
q0 -19 6 -37l369 -1176l274 897l-90 279q-23 75 -117 112l-90 35v45h533v-45l-91 -35q-69 -26 -69 -75q0 -19 6 -37l377 -1182l340 1135q12 37 12 67q0 38 -24.5 63t-81.5 42l-76 22v45h483v-45l-63 -22q-67 -23 -105 -64t-59 -108l-371 -1225h-197l-274 858l-264 -858h-197
z" />
    <glyph glyph-name="wdieresis" unicode="&#x1e85;" horiz-adv-x="1660" 
d="M621 1184q-42 0 -71.5 29t-29.5 71q0 41 30 71.5t71 30.5t71.5 -30.5t30.5 -71.5q0 -42 -30 -71t-72 -29zM989 1184q-42 0 -71 29t-29 71q0 41 29.5 71.5t70.5 30.5t72 -30.5t31 -71.5q0 -42 -30.5 -71t-72.5 -29zM469 -4l-281 809q-13 42 -35 65t-77 43l-56 21v45h480
v-45l-56 -21q-48 -18 -70 -37t-22 -45q0 -6 4 -26l242 -711l190 570l-47 141q-13 42 -35 65t-77 43l-56 21v45h480v-45l-56 -21q-48 -18 -70 -37t-22 -45q0 -6 4 -26l238 -711l235 694q7 18 7 31q0 53 -72 88l-55 27v45h374v-45l-63 -33q-95 -49 -127 -147l-262 -754
l-164 -4l-195 555l-190 -551z" />
    <glyph glyph-name="uni1E8A" unicode="&#x1e8a;" horiz-adv-x="1536" 
d="M778 1563q-46 0 -78 32t-32 78t32 78.5t78 32.5t78.5 -32.5t32.5 -78.5t-32.5 -78t-78.5 -32zM74 0v45l73 29q73 29 121 62t90 95l332 486l-381 561q-53 79 -155 115l-78 26v45h551v-45l-78 -26q-72 -25 -72 -64q0 -19 21 -51l303 -451l272 406q51 74 51 100
q0 19 -15.5 33t-53.5 27l-74 26v45h475v-45l-74 -28q-72 -29 -120.5 -62.5t-90.5 -95.5l-323 -475l387 -572q56 -79 156 -114l77 -27v-45h-548v45l77 27q70 25 70 63q0 21 -20 51l-310 463l-280 -416q-28 -42 -36.5 -60.5t-8.5 -37.5q0 -40 59 -61l80 -29v-45h-477z" />
    <glyph glyph-name="uni1E8B" unicode="&#x1e8b;" horiz-adv-x="1136" 
d="M563 1178q-44 0 -78 33t-34 77q0 43 34 76t78 33t78.5 -33t34.5 -76q0 -44 -34 -77t-79 -33zM33 0v45l30 10q136 45 191 117l231 303l-247 340q-6 8 -13.5 15.5t-18 14.5t-19 12.5t-24.5 13.5t-26 12.5t-31.5 14.5t-33.5 15l-43 21v45h497v-45l-43 -21q-42 -20 -58.5 -34
t-16.5 -29q0 -14 14 -35l170 -242l174 232q16 26 16 41q0 20 -19.5 35t-64.5 34l-43 19v45h420v-45l-31 -10q-134 -44 -190 -117l-221 -291l258 -352q7 -10 17 -18.5t18.5 -15t26.5 -16t28.5 -14.5t36.5 -16.5t39 -17.5l43 -21v-45h-502v45l43 21q42 21 59 34.5t17 28.5
q0 13 -15 35l-176 254l-186 -246q-18 -24 -18 -39q0 -20 20.5 -35t65.5 -35l43 -18v-45h-418z" />
    <glyph glyph-name="Ygrave" unicode="&#x1ef2;" horiz-adv-x="1439" 
d="M922 1526l-428 137l100 145l344 -254zM455 0v45l73 29q58 24 82.5 45t24.5 57v479l-387 625q-41 67 -135 104l-90 35v45h550v-45l-90 -35q-61 -24 -61 -59q0 -19 16 -45l328 -535l303 496q33 58 33 88q0 46 -70 68l-63 22v45h458v-45l-63 -22q-68 -24 -115.5 -60.5
t-83.5 -95.5l-358 -584v-481q0 -36 24 -57t82 -45l74 -29v-45h-532z" />
    <glyph glyph-name="ygrave" unicode="&#x1ef3;" horiz-adv-x="1118" 
d="M657 1106l-354 283l141 104l240 -365zM299 -420q-75 0 -143 35l-13 225h17q97 -96 143 -125.5t78 -29.5q54 0 74 55l100 266h-74l-291 799q-15 42 -37 65t-77 43l-56 21v45h482v-45l-56 -21q-48 -18 -70 -37t-22 -45q0 -6 4 -26l242 -674l238 657q6 18 6 35q0 49 -68 84
l-55 27v45h373v-45l-64 -33q-92 -47 -129 -147l-395 -1051q-45 -123 -207 -123z" />
    <glyph glyph-name="endash" unicode="&#x2013;" horiz-adv-x="1083" 
d="M115 494v73h860v-73h-860z" />
    <glyph glyph-name="emdash" unicode="&#x2014;" horiz-adv-x="1943" 
d="M115 494v73h1720v-73h-1720z" />
    <glyph glyph-name="quoteleft" unicode="&#x2018;" horiz-adv-x="471" 
d="M313 1528l33 -19q-48 -80 -68 -123.5t-38 -105.5h2q43 0 72.5 -29.5t29.5 -72.5q0 -41 -33.5 -71t-79.5 -30q-42 0 -71 30.5t-29 86.5q0 45 25 99t55 97t102 138z" />
    <glyph glyph-name="quoteright" unicode="&#x2019;" horiz-adv-x="446" 
d="M152 1038l-33 19q48 80 68 123.5t38 105.5h-2q-43 0 -72.5 30t-29.5 73q0 41 33 70.5t79 29.5q42 0 71.5 -30.5t29.5 -86.5q0 -45 -25 -99t-55 -97t-102 -138z" />
    <glyph glyph-name="quotesinglbase" unicode="&#x201a;" horiz-adv-x="526" 
d="M182 -268l-35 22q50 77 73 125t42 115h-2q-47 0 -80 32.5t-33 79.5t37 80t88 33q48 0 80.5 -34t32.5 -93q0 -70 -46.5 -146.5t-156.5 -213.5z" />
    <glyph glyph-name="quotedblleft" unicode="&#x201c;" horiz-adv-x="739" 
d="M313 1528l33 -19q-48 -80 -68 -123.5t-38 -105.5h2q43 0 72.5 -29.5t29.5 -72.5q0 -41 -33.5 -71t-79.5 -30q-42 0 -71 30.5t-29 86.5q0 45 25 99t55 97t102 138zM582 1528l32 -19q-48 -80 -68 -123.5t-38 -105.5h2q43 0 72.5 -29.5t29.5 -72.5q0 -41 -33 -71t-79 -30
q-42 0 -71.5 30.5t-29.5 86.5q0 45 25.5 99.5t55 96t102.5 138.5z" />
    <glyph glyph-name="quotedblright" unicode="&#x201d;" horiz-adv-x="714" 
d="M152 1038l-33 19q48 80 68 123.5t38 105.5h-2q-43 0 -72.5 30t-29.5 73q0 41 33 70.5t79 29.5q42 0 71.5 -30.5t29.5 -86.5q0 -45 -25 -99t-55 -97t-102 -138zM420 1038l-33 19q49 81 69.5 124.5t37.5 104.5h-2q-43 0 -73 30t-30 73q0 41 33.5 70.5t79.5 29.5
q42 0 71 -30.5t29 -86.5q0 -45 -25 -99t-55 -97t-102 -138z" />
    <glyph glyph-name="quotedblbase" unicode="&#x201e;" horiz-adv-x="817" 
d="M182 -268l-35 22q50 77 73 125t42 115h-2q-47 0 -80 32.5t-33 79.5t37 80t88 33q48 0 80.5 -34t32.5 -93q0 -70 -46.5 -146.5t-156.5 -213.5zM473 -268l-35 22q50 77 73 125t42 115h-2q-47 0 -80 32.5t-33 79.5t37 80t88 33q48 0 80.5 -34t32.5 -93q0 -70 -46.5 -146.5
t-156.5 -213.5z" />
    <glyph glyph-name="dagger" unicode="&#x2020;" horiz-adv-x="1001" 
d="M492 0l-72 938l57 223l-276 -67h-8v168h8l276 -68l-57 262v8h170v-8l-60 -262l277 68h8v-168h-8l-277 67l60 -223l-74 -938h-24z" />
    <glyph glyph-name="daggerdbl" unicode="&#x2021;" horiz-adv-x="1001" 
d="M815 1094h-8l-279 69l62 -164l-72 -266l72 -268l-62 -162l279 68h8v-168h-8l-279 69l62 -264v-8h-170v8l59 264l-278 -69h-8v168h8l278 -68l-59 162l69 268l-69 266l59 164l-278 -69h-8v168h8l278 -68l-59 262v8h170v-8l-62 -262l279 68h8v-168z" />
    <glyph glyph-name="bullet" unicode="&#x2022;" horiz-adv-x="786" 
d="M395 369q-92 0 -161.5 69.5t-69.5 163.5q0 92 69.5 162t161.5 70q94 0 164 -70t70 -162q0 -94 -70 -163.5t-164 -69.5z" />
    <glyph glyph-name="ellipsis" unicode="&#x2026;" horiz-adv-x="1378" 
d="M266 -10q-47 0 -83 35t-36 79q0 45 36 80t83 35q46 0 82.5 -35.5t36.5 -79.5t-36.5 -79t-82.5 -35zM692 -10q-47 0 -83 35t-36 79q0 45 36 80t83 35q46 0 82.5 -35.5t36.5 -79.5t-36.5 -79t-82.5 -35zM1118 -10q-47 0 -83 35t-36 79q0 45 36 80t83 35q46 0 82.5 -35.5
t36.5 -79.5t-36.5 -79t-82.5 -35z" />
    <glyph glyph-name="perthousand" unicode="&#x2030;" horiz-adv-x="2359" 
d="M334 -35l-58 39l998 1481l55 -39zM438 739q-102 0 -179 50.5t-115 132t-38 180.5q0 154 89.5 258t242.5 104q154 0 243 -104.5t89 -257.5q0 -154 -89.5 -258.5t-242.5 -104.5zM438 797q75 0 126.5 80t51.5 225q0 162 -49.5 234.5t-128.5 72.5q-73 0 -125.5 -81.5
t-52.5 -225.5t52.5 -224.5t125.5 -80.5zM1929 -18q-153 0 -242.5 104.5t-89.5 257.5q0 154 89.5 258.5t242.5 104.5q154 0 243 -105t89 -258q0 -154 -89.5 -258t-242.5 -104zM1163 -20q-153 0 -242.5 104.5t-89.5 257.5q0 154 89.5 258.5t242.5 104.5q154 0 243 -105
t89 -258q0 -154 -89.5 -258t-242.5 -104zM1929 39q75 0 126.5 80t51.5 225q0 162 -49.5 234.5t-128.5 72.5q-73 0 -125.5 -81.5t-52.5 -225.5t52.5 -224.5t125.5 -80.5zM1163 37q75 0 126.5 80t51.5 225q0 162 -49.5 234.5t-128.5 72.5q-73 0 -125.5 -81.5t-52.5 -225.5
t52.5 -224.5t125.5 -80.5z" />
    <glyph glyph-name="guilsinglleft" unicode="&#x2039;" horiz-adv-x="720" 
d="M522 106l-428 426v35l428 428h49l-299 -444l299 -445h-49z" />
    <glyph glyph-name="guilsinglright" unicode="&#x203a;" horiz-adv-x="716" 
d="M143 106h-49l299 445l-299 444h49l428 -428v-35z" />
    <glyph glyph-name="fraction" unicode="&#x2044;" horiz-adv-x="516" 
d="M-285 0l1010 1464h82l-1010 -1464h-82z" />
    <glyph glyph-name="Euro" unicode="&#x20ac;" horiz-adv-x="1556" 
d="M969 -25q-259 0 -442.5 158.5t-225.5 433.5h-227v70h219q-4 58 -4 86q0 49 2 72h-217v67h225q43 268 228 435t436 167q197 0 434 -80l20 -223h-24q-203 156 -269 193t-159 37q-176 0 -313 -141.5t-171 -387.5h658v-67h-664q-2 -23 -2 -72q0 -28 4 -86h600v-70h-594
q36 -238 171.5 -377t318.5 -139q77 0 149 38.5t271 189.5h24l-20 -224q-269 -80 -428 -80z" />
    <glyph glyph-name="trademark" unicode="&#x2122;" horiz-adv-x="1886" 
d="M319 731v25l64 22q27 12 27 31v616h-109q-29 0 -52.5 -22t-84.5 -111h-17l19 172h575l19 -172h-17q-62 90 -84.5 111.5t-52.5 21.5h-108v-616q0 -20 26 -31l64 -22v-25h-269zM856 731v25l70 22q28 10 28 31v592l-96 37v26h189l253 -696l242 696h203v-26l-64 -23
q-26 -7 -26 -29v-577q0 -20 26 -31l64 -22v-25h-268v25l61 22q29 10 29 31v610h-2l-242 -688h-98l-234 639v-561q0 -22 31 -31l70 -22v-25h-236z" />
    <glyph glyph-name="oneeighth" unicode="&#x215b;" horiz-adv-x="1593" 
d="M66 819v25l51 16q53 16 53 33v446l-100 33v19l206 84v-582q0 -18 50 -33l55 -16v-25h-315zM199 0l1009 1464h82l-1009 -1464h-82zM1284 -12q-100 0 -167.5 48t-67.5 122q0 117 159 168q-133 68 -133 168q0 75 64 118t147 43q81 0 144 -39.5t63 -101.5q0 -82 -139 -156
l20 -10q25 -15 33.5 -20t36.5 -25.5t41 -37t26 -44t13 -55.5q0 -75 -68 -126.5t-172 -51.5zM1313 381q94 42 94 125q0 44 -34 72t-87 28q-48 0 -78 -23.5t-30 -56.5q0 -59 79 -111q13 -8 56 -34zM1286 37q62 0 97.5 28t35.5 70q0 40 -29 71t-83 64l-62 35
q-104 -53 -104 -145q0 -52 38.5 -87.5t106.5 -35.5z" />
    <glyph glyph-name="threeeighths" unicode="&#x215c;" horiz-adv-x="1673" 
d="M270 807q-85 0 -196 39l20 129h10q78 -80 105 -98.5t63 -18.5q54 0 94 35.5t40 99.5q0 80 -42 124t-104 44q-25 0 -67 -12l-29 37l207 178h-273l37 100h367v-45l-266 -217l4 -4q35 10 75 10q46 0 90 -20t77.5 -69t33.5 -118q0 -83 -75.5 -138.5t-170.5 -55.5zM279 0
l1009 1464h82l-1010 -1464h-81zM1364 -12q-100 0 -168 48t-68 122q0 117 160 168q-133 68 -133 168q0 75 64 118t147 43q81 0 144 -39.5t63 -101.5q0 -82 -139 -156l20 -10q25 -15 33.5 -20t36.5 -25.5t41 -37t26 -44t13 -55.5q0 -75 -68 -126.5t-172 -51.5zM1393 381
q94 42 94 125q0 44 -34 72t-87 28q-48 0 -78.5 -23.5t-30.5 -56.5q0 -19 8 -36.5t18 -30t29.5 -27t32 -22.5t36.5 -22q8 -5 12 -7zM1366 37q62 0 97.5 28t35.5 70q0 40 -29 71t-84 64l-61 35q-104 -53 -104 -145q0 -52 38.5 -87.5t106.5 -35.5z" />
    <glyph glyph-name="fiveeighths" unicode="&#x215d;" horiz-adv-x="1681" 
d="M274 807q-96 0 -204 45l28 127h13q74 -82 100 -101.5t63 -19.5q52 0 96 38t44 103q0 92 -47 134.5t-111 42.5q-62 0 -125 -52l-37 11l58 329h356l-35 -100h-293l-30 -178q84 41 153 41q85 0 153 -55t68 -152t-75.5 -155t-174.5 -58zM287 0l1009 1464h82l-1009 -1464h-82z
M1372 -12q-100 0 -167.5 48t-67.5 122q0 117 159 168q-133 68 -133 168q0 75 64 118t147 43q81 0 144 -39.5t63 -101.5q0 -82 -139 -156l20 -10q25 -15 33.5 -20t36.5 -25.5t41 -37t26 -44t13 -55.5q0 -75 -68 -126.5t-172 -51.5zM1401 381q94 42 94 125q0 44 -34 72t-87 28
q-48 0 -78 -23.5t-30 -56.5q0 -59 79 -111q13 -8 56 -34zM1374 37q62 0 97.5 28t35.5 70q0 40 -29 71t-83 64l-62 35q-104 -53 -104 -145q0 -52 38.5 -87.5t106.5 -35.5z" />
    <glyph glyph-name="seveneighths" unicode="&#x215e;" horiz-adv-x="1546" 
d="M104 815l316 539h-365l39 110h420v-26l-336 -623h-74zM152 0l1009 1464h82l-1010 -1464h-81zM1237 -12q-100 0 -168 48t-68 122q0 117 160 168q-133 68 -133 168q0 75 64 118t147 43q81 0 144 -39.5t63 -101.5q0 -82 -139 -156l20 -10q25 -15 33.5 -20t36.5 -25.5t41 -37
t26 -44t13 -55.5q0 -75 -68 -126.5t-172 -51.5zM1266 381q94 42 94 125q0 44 -34 72t-87 28q-48 0 -78.5 -23.5t-30.5 -56.5q0 -19 8 -36.5t18 -30t29.5 -27t32 -22.5t36.5 -22q8 -5 12 -7zM1239 37q62 0 97.5 28t35.5 70q0 40 -29 71t-83 64l-62 35q-104 -53 -104 -145
q0 -52 38.5 -87.5t106.5 -35.5z" />
    <glyph glyph-name="arrowleft" unicode="&#x2190;" horiz-adv-x="1175" 
d="M1059 616v-69h-791l318 -389h-70l-393 422v4l393 422h70l-318 -390h791z" />
    <glyph glyph-name="arrowup" unicode="&#x2191;" horiz-adv-x="1087" 
d="M971 563v-69l-389 317v-791h-70v791l-389 -317v69l422 393h4z" />
    <glyph glyph-name="arrowright" unicode="&#x2192;" horiz-adv-x="1175" 
d="M666 1006l393 -422v-4l-393 -422h-70l317 389h-790v69h790l-317 390h70z" />
    <glyph glyph-name="arrowdown" unicode="&#x2193;" horiz-adv-x="1087" 
d="M582 190l389 318v-70l-422 -393h-4l-422 393v70l389 -318v791h70v-791z" />
    <glyph glyph-name="uni2196" unicode="&#x2196;" horiz-adv-x="948" 
d="M831 186l-49 -49l-559 559l-51 -499l-49 49l20 577h2l2 2l576 21l49 -49l-500 -52z" />
    <glyph glyph-name="uni2197" unicode="&#x2197;" horiz-adv-x="948" 
d="M831 246l-49 -49l-51 499l-559 -559l-49 49l559 559l-500 52l49 49l578 -21v-2l2 -2z" />
    <glyph glyph-name="uni2198" unicode="&#x2198;" horiz-adv-x="948" 
d="M782 805l49 -49l-20 -578h-2l-2 -2l-576 -20l-49 49l500 51l-559 559l49 49l559 -559z" />
    <glyph glyph-name="uni2199" unicode="&#x2199;" horiz-adv-x="948" 
d="M831 815l-559 -559l500 -51l-49 -49l-576 20l-2 2h-2l-20 578l49 49l51 -500l559 559z" />
    <glyph glyph-name="minus" unicode="&#x2212;" horiz-adv-x="987" 
d="M143 666v69h707v-69h-707z" />
    <glyph glyph-name="uni00A40301" horiz-adv-x="1077" 
d="M596 1526l-16 28l344 252l100 -143zM500 -20q-173 0 -314 98l29 254h25q71 -117 113 -171.5t73.5 -73.5t73.5 -19q172 0 172 268v952q0 36 -24.5 57.5t-82.5 45.5l-73 28v45h532v-45l-74 -28q-57 -24 -81.5 -45.5t-24.5 -57.5v-973q0 -88 -32 -155.5t-84 -105t-109.5 -56
t-118.5 -18.5z" />
    <glyph glyph-name="i.loclTRK" horiz-adv-x="593" 
d="M272 1178q-44 0 -78 33t-34 77q0 43 34 76t78 33t78.5 -33t34.5 -76q0 -44 -34 -77t-79 -33zM63 0v45l56 21q57 21 78.5 45t21.5 65v623l-158 96v33l322 84v-836q0 -41 21.5 -65t78.5 -45l56 -21v-45h-476z" />
    <glyph glyph-name="uni006A0301" horiz-adv-x="595" 
d="M166 1106l-27 22l240 365l141 -104zM33 -438l-10 43q109 56 152.5 131.5t43.5 228.5v834l-158 96v33l322 84v-983q0 -193 -87.5 -304.5t-262.5 -162.5z" />
    <glyph glyph-name="f.calt" horiz-adv-x="743" 
d="M72 0v45l55 21q57 21 78.5 45t21.5 65v721h-166v82h166v88q0 207 95 326.5t251 119.5q30 0 69 -5t61.5 -9.5t70.5 -15.5t57 -13l-106 -147h-25q-112 87 -135 99q-20 10 -39 10q-24 0 -45 -10t-42.5 -35.5t-34.5 -80.5t-13 -135v-192h287v-12l-39 -70h-248v-721
q0 -40 26 -64.5t95 -45.5l66 -21v-45h-506z" />
    <glyph glyph-name="germandbls.calt" horiz-adv-x="1486" 
d="M971 -25q-154 0 -338 82l-33 226h25q154 -142 196 -173q72 -54 141 -58q9 -1 19 -1q121 0 203 73.5t82 176.5q0 57 -22.5 108.5t-52 86t-77.5 69t-79 51.5t-77 39l-204 101l-35 37l368 587h-641v-1380h-352v45l74 29q58 24 82 45t24 57v1112q0 36 -24.5 57.5t-81.5 45.5
l-74 28v45h1180v-78l-408 -489l213 -100q324 -152 324 -432q0 -92 -38.5 -167.5t-101 -123t-138.5 -73.5t-154 -26z" />
    <glyph glyph-name="f_f.calt" horiz-adv-x="1372" 
d="M66 0v45l55 21q57 21 78.5 45t21.5 65v721h-160v82h160v74q0 105 21 187t53.5 131t76 81t84.5 43.5t83 11.5q156 0 295 -32l-86 -140h-25q-81 61 -114.5 79t-63.5 18q-29 0 -53.5 -8.5t-50.5 -29.5t-41 -66.5t-15 -110.5v-238h471v88q0 207 95 326.5t251 119.5
q30 0 69 -5t61.5 -9.5t70.5 -15.5t57 -13l-106 -147h-25q-112 87 -135 99q-20 10 -39 10q-24 0 -45 -10t-42.5 -35.5t-34.5 -80.5t-13 -135v-192h287v-12l-39 -70h-248v-721q0 -41 21.5 -65t78.5 -45l56 -21v-45h-476v45l56 21q57 21 78.5 45t21.5 65v721h-471v-721
q0 -40 26 -64.5t95 -45.5l65 -21v-45h-505z" />
    <glyph glyph-name="A.sc" horiz-adv-x="1239" 
d="M51 0v35l49 20q34 16 55 28.5t45 38.5t38 62l294 758l-65 160h174l385 -952q28 -62 94 -89l68 -26v-35h-445v35l70 28q51 21 51 56q0 16 -6 31l-88 219h-389l-74 -185q-12 -30 -12 -59q0 -51 59 -72l49 -18v-35h-352zM406 432h337l-170 430h-2z" />
    <glyph glyph-name="Aacute.sc" horiz-adv-x="1239" 
d="M479 1157l-26 23l239 323l142 -104zM51 0v35l49 20q34 16 55 28.5t45 38.5t38 62l294 758l-65 160h174l385 -952q28 -62 94 -89l68 -26v-35h-445v35l70 28q51 21 51 56q0 16 -6 31l-88 219h-389l-74 -185q-12 -30 -12 -59q0 -51 59 -72l49 -18v-35h-352zM406 432h337
l-170 430h-2z" />
    <glyph glyph-name="Abreve.sc" horiz-adv-x="1239" 
d="M586 1178q-212 0 -242 282h35q14 -74 72 -114.5t135 -40.5q76 0 133 41t69 114h35q-14 -133 -72.5 -207.5t-164.5 -74.5zM51 0v35l49 20q34 16 55 28.5t45 38.5t38 62l294 758l-65 160h174l385 -952q28 -62 94 -89l68 -26v-35h-445v35l70 28q51 21 51 56q0 16 -6 31
l-88 219h-389l-74 -185q-12 -30 -12 -59q0 -51 59 -72l49 -18v-35h-352zM406 432h337l-170 430h-2z" />
    <glyph glyph-name="Acircumflex.sc" horiz-adv-x="1239" 
d="M371 1167l-23 21l223 321h29l225 -321l-24 -19l-217 168zM51 0v35l49 20q34 16 55 28.5t45 38.5t38 62l294 758l-65 160h174l385 -952q28 -62 94 -89l68 -26v-35h-445v35l70 28q51 21 51 56q0 16 -6 31l-88 219h-389l-74 -185q-12 -30 -12 -59q0 -51 59 -72l49 -18v-35
h-352zM406 432h337l-170 430h-2z" />
    <glyph glyph-name="Adieresis.sc" horiz-adv-x="1239" 
d="M399 1194q-42 0 -71 29t-29 71t29.5 72.5t70.5 30.5t72 -31t31 -72q0 -42 -30.5 -71t-72.5 -29zM768 1194q-42 0 -71 29t-29 71t29.5 72.5t70.5 30.5t71.5 -31t30.5 -72q0 -42 -30 -71t-72 -29zM51 0v35l49 20q34 16 55 28.5t45 38.5t38 62l294 758l-65 160h174l385 -952
q28 -62 94 -89l68 -26v-35h-445v35l70 28q51 21 51 56q0 16 -6 31l-88 219h-389l-74 -185q-12 -30 -12 -59q0 -51 59 -72l49 -18v-35h-352zM406 432h337l-170 430h-2z" />
    <glyph glyph-name="Agrave.sc" horiz-adv-x="1239" 
d="M672 1157l-355 242l142 104l239 -323zM51 0v35l49 20q34 16 55 28.5t45 38.5t38 62l294 758l-65 160h174l385 -952q28 -62 94 -89l68 -26v-35h-445v35l70 28q51 21 51 56q0 16 -6 31l-88 219h-389l-74 -185q-12 -30 -12 -59q0 -51 59 -72l49 -18v-35h-352zM406 432h337
l-170 430h-2z" />
    <glyph glyph-name="Amacron.sc" horiz-adv-x="1239" 
d="M346 1237v102h492v-102h-492zM51 0v35l49 20q34 16 55 28.5t45 38.5t38 62l294 758l-65 160h174l385 -952q28 -62 94 -89l68 -26v-35h-445v35l70 28q51 21 51 56q0 16 -6 31l-88 219h-389l-74 -185q-12 -30 -12 -59q0 -51 59 -72l49 -18v-35h-352zM406 432h337l-170 430
h-2z" />
    <glyph glyph-name="Aogonek.sc" horiz-adv-x="1239" 
d="M913 0q-64 -60 -113.5 -132.5t-49.5 -137.5q0 -47 26 -72t66 -25q65 0 143 82l29 -26q-38 -64 -108 -112t-142 -48q-67 0 -112.5 39t-45.5 98q0 72 68.5 162t163.5 172h-95v35l70 28q51 21 51 56q0 16 -6 31l-88 219h-389l-74 -185q-12 -30 -12 -59q0 -51 59 -72l49 -18
v-35h-352v35l49 20q34 16 55 28.5t45 38.5t38 62l294 758l-65 160h174l385 -952q28 -62 94 -89l68 -26v-35h-275zM406 432h337l-170 430h-2z" />
    <glyph glyph-name="Aring.sc" horiz-adv-x="1239" 
d="M586 1171q-64 0 -113 46.5t-49 111.5q0 64 49 110t113 46q67 0 116.5 -46.5t49.5 -109.5q0 -64 -49 -111t-117 -47zM586 1223q45 0 75.5 32t30.5 74q0 43 -30.5 74t-75.5 31q-42 0 -73.5 -31.5t-31.5 -73.5q0 -41 32 -73.5t73 -32.5zM51 0v35l49 20q34 16 55 28.5
t45 38.5t38 62l294 758l-65 160h174l385 -952q28 -62 94 -89l68 -26v-35h-445v35l70 28q51 21 51 56q0 16 -6 31l-88 219h-389l-74 -185q-12 -30 -12 -59q0 -51 59 -72l49 -18v-35h-352zM406 432h337l-170 430h-2z" />
    <glyph glyph-name="Aringacute.sc" horiz-adv-x="1239" 
d="M479 1542l-26 23l239 323l142 -104zM586 1171q-64 0 -113 46.5t-49 111.5q0 64 49 110t113 46q67 0 116.5 -46.5t49.5 -109.5q0 -64 -49 -111t-117 -47zM586 1223q45 0 75.5 32t30.5 74q0 43 -30.5 74t-75.5 31q-42 0 -73.5 -31.5t-31.5 -73.5q0 -41 32 -73.5t73 -32.5z
M51 0v35l49 20q34 16 55 28.5t45 38.5t38 62l294 758l-65 160h174l385 -952q28 -62 94 -89l68 -26v-35h-445v35l70 28q51 21 51 56q0 16 -6 31l-88 219h-389l-74 -185q-12 -30 -12 -59q0 -51 59 -72l49 -18v-35h-352zM406 432h337l-170 430h-2z" />
    <glyph glyph-name="Atilde.sc" horiz-adv-x="1239" 
d="M688 1219q-45 0 -123 30q-82 33 -127 33q-18 0 -33 -8t-24.5 -18t-32.5 -37l-26 12q15 82 55.5 124t103.5 42q50 0 123 -33t127 -33q30 0 49.5 14t40.5 48l27 -11q-14 -83 -56.5 -123t-103.5 -40zM51 0v35l49 20q34 16 55 28.5t45 38.5t38 62l294 758l-65 160h174
l385 -952q28 -62 94 -89l68 -26v-35h-445v35l70 28q51 21 51 56q0 16 -6 31l-88 219h-389l-74 -185q-12 -30 -12 -59q0 -51 59 -72l49 -18v-35h-352zM406 432h337l-170 430h-2z" />
    <glyph glyph-name="AE.sc" horiz-adv-x="1656" 
d="M25 0v35l49 20q111 47 157 121l494 791q12 18 12 37q0 33 -49 47l-57 16v35h854l31 -273h-27q-95 132 -135.5 169.5t-89.5 37.5h-271v-432h258q29 0 55.5 25.5t75.5 91.5h27v-295h-27q-48 67 -75 91t-56 24h-258v-475h320q35 0 57 11.5t59.5 55.5t106.5 146h29l-31 -279
h-838v35l56 22q41 16 61.5 33.5t20.5 46.5v291h-367l-158 -252q-26 -44 -26 -65q0 -35 53 -56l49 -20v-35h-360zM834 492v518h-5l-323 -518h328z" />
    <glyph glyph-name="AEacute.sc" horiz-adv-x="1656" 
d="M1040 1157l-26 23l239 323l142 -104zM25 0v35l49 20q111 47 157 121l494 791q12 18 12 37q0 33 -49 47l-57 16v35h854l31 -273h-27q-95 132 -135.5 169.5t-89.5 37.5h-271v-432h258q29 0 55.5 25.5t75.5 91.5h27v-295h-27q-48 67 -75 91t-56 24h-258v-475h320
q35 0 57 11.5t59.5 55.5t106.5 146h29l-31 -279h-838v35l56 22q41 16 61.5 33.5t20.5 46.5v291h-367l-158 -252q-26 -44 -26 -65q0 -35 53 -56l49 -20v-35h-360zM834 492v518h-5l-323 -518h328z" />
    <glyph glyph-name="B.sc" horiz-adv-x="1097" 
d="M78 0v35l45 16q90 32 90 88v824q0 56 -90 88l-45 16v35h508q178 0 274 -75t96 -183q0 -93 -70 -160.5t-179 -91.5v-8q138 -25 216 -100.5t78 -184.5q0 -128 -110 -213.5t-316 -85.5h-497zM373 608h186q92 0 165 61.5t73 159.5q0 86 -61.5 145.5t-178.5 59.5h-184v-426z
M373 66h182q281 0 281 235q0 122 -68 182t-172 60h-223v-477z" />
    <glyph glyph-name="C.sc" horiz-adv-x="1103" 
d="M637 -18q-112 0 -209.5 38t-171 108.5t-116 180t-42.5 244.5q0 166 72.5 296.5t194.5 200.5t270 70q155 0 344 -59l16 -197h-20q-152 124 -208.5 155.5t-129.5 31.5q-72 0 -137 -31.5t-117.5 -91.5t-83.5 -157t-31 -218q0 -234 107 -369t266 -135q65 0 121.5 31
t212.5 156h20l-18 -195q-207 -59 -340 -59z" />
    <glyph glyph-name="Cacute.sc" horiz-adv-x="1103" 
d="M532 1157l-26 23l239 323l142 -104zM637 -18q-112 0 -209.5 38t-171 108.5t-116 180t-42.5 244.5q0 166 72.5 296.5t194.5 200.5t270 70q155 0 344 -59l16 -197h-20q-152 124 -208.5 155.5t-129.5 31.5q-72 0 -137 -31.5t-117.5 -91.5t-83.5 -157t-31 -218
q0 -234 107 -369t266 -135q65 0 121.5 31t212.5 156h20l-18 -195q-207 -59 -340 -59z" />
    <glyph glyph-name="Ccaron.sc" horiz-adv-x="1103" 
d="M424 1503l213 -170l217 168l25 -18l-226 -322h-28l-224 322zM637 -18q-112 0 -209.5 38t-171 108.5t-116 180t-42.5 244.5q0 166 72.5 296.5t194.5 200.5t270 70q155 0 344 -59l16 -197h-20q-152 124 -208.5 155.5t-129.5 31.5q-72 0 -137 -31.5t-117.5 -91.5t-83.5 -157
t-31 -218q0 -234 107 -369t266 -135q65 0 121.5 31t212.5 156h20l-18 -195q-207 -59 -340 -59z" />
    <glyph glyph-name="Ccedilla.sc" horiz-adv-x="1103" 
d="M641 49q65 0 121.5 31t212.5 156h20l-18 -195q-202 -55 -318 -59l-47 -64q78 -10 136.5 -58t58.5 -130q0 -84 -58 -130t-147 -46q-73 0 -201 34l68 115h12q57 -52 82.5 -70t44.5 -18q31 0 55.5 18.5t24.5 63.5q0 60 -46 90t-116 37l-59 6l123 154q-104 8 -193 49
t-156 111.5t-105 175.5t-38 233q0 166 72.5 296.5t194.5 200.5t270 70q155 0 344 -59l16 -197h-20q-152 124 -208.5 155.5t-129.5 31.5q-72 0 -137 -31.5t-117.5 -91.5t-83.5 -157t-31 -218q0 -234 107 -369t266 -135z" />
    <glyph glyph-name="Ccircumflex.sc" horiz-adv-x="1103" 
d="M424 1167l-23 21l224 321h28l226 -321l-25 -19l-217 168zM637 -18q-112 0 -209.5 38t-171 108.5t-116 180t-42.5 244.5q0 166 72.5 296.5t194.5 200.5t270 70q155 0 344 -59l16 -197h-20q-152 124 -208.5 155.5t-129.5 31.5q-72 0 -137 -31.5t-117.5 -91.5t-83.5 -157
t-31 -218q0 -234 107 -369t266 -135q65 0 121.5 31t212.5 156h20l-18 -195q-207 -59 -340 -59z" />
    <glyph glyph-name="Cdotaccent.sc" horiz-adv-x="1103" 
d="M639 1188q-45 0 -79 33t-34 77q0 43 34.5 76t78.5 33t78.5 -33t34.5 -76q0 -44 -34 -77t-79 -33zM637 -18q-112 0 -209.5 38t-171 108.5t-116 180t-42.5 244.5q0 166 72.5 296.5t194.5 200.5t270 70q155 0 344 -59l16 -197h-20q-152 124 -208.5 155.5t-129.5 31.5
q-72 0 -137 -31.5t-117.5 -91.5t-83.5 -157t-31 -218q0 -234 107 -369t266 -135q65 0 121.5 31t212.5 156h20l-18 -195q-207 -59 -340 -59z" />
    <glyph glyph-name="D.sc" horiz-adv-x="1208" 
d="M78 0v35l45 16q90 32 90 88v824q0 56 -90 88l-45 16v35h467q252 0 408.5 -153.5t156.5 -397.5q0 -246 -156 -398.5t-413 -152.5h-463zM373 66h159q136 0 229 64.5t135 171t42 247.5q0 105 -24 192.5t-72.5 153.5t-126.5 102.5t-180 36.5h-162v-968z" />
    <glyph glyph-name="Eth.sc" horiz-adv-x="1208" 
d="M78 0v35l45 16q90 32 90 88v404h-121v59h121v361q0 56 -90 88l-45 16v35h467q252 0 408.5 -153.5t156.5 -397.5q0 -247 -155.5 -399t-411.5 -152h-465zM373 66h159q137 0 230.5 65t135.5 171.5t42 246.5q0 105 -24 192t-72.5 154t-127 104t-181.5 37h-162v-434h192v-59
h-192v-477z" />
    <glyph glyph-name="Dcaron.sc" horiz-adv-x="1208" 
d="M381 1503l213 -170l217 168l25 -18l-226 -322h-28l-224 322zM78 0v35l45 16q90 32 90 88v824q0 56 -90 88l-45 16v35h467q252 0 408.5 -153.5t156.5 -397.5q0 -246 -156 -398.5t-413 -152.5h-463zM373 66h159q136 0 229 64.5t135 171t42 247.5q0 105 -24 192.5
t-72.5 153.5t-126.5 102.5t-180 36.5h-162v-968z" />
    <glyph glyph-name="Dcroat.sc" horiz-adv-x="1208" 
d="M78 0v35l45 16q90 32 90 88v404h-121v59h121v361q0 56 -90 88l-45 16v35h467q252 0 408.5 -153.5t156.5 -397.5q0 -247 -155.5 -399t-411.5 -152h-465zM373 66h159q137 0 230.5 65t135.5 171.5t42 246.5q0 105 -24 192t-72.5 154t-127 104t-181.5 37h-162v-434h192v-59
h-192v-477z" />
    <glyph glyph-name="E.sc" horiz-adv-x="1056" 
d="M78 0v35l45 16q90 32 90 88v824q0 56 -90 88l-45 16v35h809l28 -273h-26q-51 74 -84 115.5t-58.5 62t-41 25t-41.5 4.5h-291v-434h291q29 0 55 25t78 94h26v-297h-26q-47 65 -75 91t-58 26h-291v-478h340q34 0 53 8.5t59 55.5t111 152h29l-31 -279h-856z" />
    <glyph glyph-name="Eacute.sc" horiz-adv-x="1056" 
d="M438 1157l-26 23l239 323l142 -104zM78 0v35l45 16q90 32 90 88v824q0 56 -90 88l-45 16v35h809l28 -273h-26q-51 74 -84 115.5t-58.5 62t-41 25t-41.5 4.5h-291v-434h291q29 0 55 25t78 94h26v-297h-26q-47 65 -75 91t-58 26h-291v-478h340q34 0 53 8.5t59 55.5t111 152
h29l-31 -279h-856z" />
    <glyph glyph-name="Ebreve.sc" horiz-adv-x="1056" 
d="M545 1178q-212 0 -242 282h35q14 -74 72 -114.5t135 -40.5q76 0 134 41t69 114h34q-14 -133 -72.5 -207.5t-164.5 -74.5zM78 0v35l45 16q90 32 90 88v824q0 56 -90 88l-45 16v35h809l28 -273h-26q-51 74 -84 115.5t-58.5 62t-41 25t-41.5 4.5h-291v-434h291q29 0 55 25
t78 94h26v-297h-26q-47 65 -75 91t-58 26h-291v-478h340q34 0 53 8.5t59 55.5t111 152h29l-31 -279h-856z" />
    <glyph glyph-name="Ecaron.sc" horiz-adv-x="1056" 
d="M330 1503l213 -170l217 168l24 -18l-225 -322h-29l-223 322zM78 0v35l45 16q90 32 90 88v824q0 56 -90 88l-45 16v35h809l28 -273h-26q-51 74 -84 115.5t-58.5 62t-41 25t-41.5 4.5h-291v-434h291q29 0 55 25t78 94h26v-297h-26q-47 65 -75 91t-58 26h-291v-478h340
q34 0 53 8.5t59 55.5t111 152h29l-31 -279h-856z" />
    <glyph glyph-name="Ecircumflex.sc" horiz-adv-x="1056" 
d="M330 1167l-23 21l223 321h29l225 -321l-24 -19l-217 168zM78 0v35l45 16q90 32 90 88v824q0 56 -90 88l-45 16v35h809l28 -273h-26q-51 74 -84 115.5t-58.5 62t-41 25t-41.5 4.5h-291v-434h291q29 0 55 25t78 94h26v-297h-26q-47 65 -75 91t-58 26h-291v-478h340
q34 0 53 8.5t59 55.5t111 152h29l-31 -279h-856z" />
    <glyph glyph-name="Edieresis.sc" horiz-adv-x="1056" 
d="M358 1194q-42 0 -71 29t-29 71t29.5 72.5t70.5 30.5t72 -31t31 -72q0 -42 -30.5 -71t-72.5 -29zM727 1194q-42 0 -71 29t-29 71t29.5 72.5t70.5 30.5t71.5 -31t30.5 -72q0 -42 -30 -71t-72 -29zM78 0v35l45 16q90 32 90 88v824q0 56 -90 88l-45 16v35h809l28 -273h-26
q-51 74 -84 115.5t-58.5 62t-41 25t-41.5 4.5h-291v-434h291q29 0 55 25t78 94h26v-297h-26q-47 65 -75 91t-58 26h-291v-478h340q34 0 53 8.5t59 55.5t111 152h29l-31 -279h-856z" />
    <glyph glyph-name="Edotaccent.sc" horiz-adv-x="1056" 
d="M545 1188q-45 0 -79 33t-34 77q0 43 34.5 76t78.5 33t78 -33t34 -76q0 -44 -34 -77t-78 -33zM78 0v35l45 16q90 32 90 88v824q0 56 -90 88l-45 16v35h809l28 -273h-26q-51 74 -84 115.5t-58.5 62t-41 25t-41.5 4.5h-291v-434h291q29 0 55 25t78 94h26v-297h-26
q-47 65 -75 91t-58 26h-291v-478h340q34 0 53 8.5t59 55.5t111 152h29l-31 -279h-856z" />
    <glyph glyph-name="Egrave.sc" horiz-adv-x="1056" 
d="M631 1157l-355 242l142 104l239 -323zM78 0v35l45 16q90 32 90 88v824q0 56 -90 88l-45 16v35h809l28 -273h-26q-51 74 -84 115.5t-58.5 62t-41 25t-41.5 4.5h-291v-434h291q29 0 55 25t78 94h26v-297h-26q-47 65 -75 91t-58 26h-291v-478h340q34 0 53 8.5t59 55.5
t111 152h29l-31 -279h-856z" />
    <glyph glyph-name="Emacron.sc" horiz-adv-x="1056" 
d="M305 1237v102h492v-102h-492zM78 0v35l45 16q90 32 90 88v824q0 56 -90 88l-45 16v35h809l28 -273h-26q-51 74 -84 115.5t-58.5 62t-41 25t-41.5 4.5h-291v-434h291q29 0 55 25t78 94h26v-297h-26q-47 65 -75 91t-58 26h-291v-478h340q34 0 53 8.5t59 55.5t111 152h29
l-31 -279h-856z" />
    <glyph glyph-name="Eogonek.sc" horiz-adv-x="1056" 
d="M756 0q-65 -60 -114.5 -132.5t-49.5 -137.5q0 -47 26 -72t66 -25q65 0 143 82l29 -26q-38 -64 -108 -112t-142 -48q-67 0 -112 39t-45 98q0 72 68.5 162t162.5 172h-602v35l45 16q90 32 90 88v824q0 56 -90 88l-45 16v35h809l28 -273h-26q-51 74 -84 115.5t-58.5 62
t-41 25t-41.5 4.5h-291v-434h291q29 0 55 25t78 94h26v-297h-26q-47 65 -75 91t-58 26h-291v-478h340q34 0 53 8.5t59 55.5t111 152h29l-31 -279h-178z" />
    <glyph glyph-name="F.sc" horiz-adv-x="970" 
d="M78 0v35l45 16q90 32 90 88v824q0 56 -90 88l-45 16v35h790l31 -273h-29q-92 132 -132.5 169.5t-90.5 37.5h-274v-434h272q22 0 44 16.5t36.5 34t52.5 68.5h27v-297h-27q-51 69 -76.5 93t-56.5 24h-272v-402q0 -56 116 -88l60 -16v-35h-471z" />
    <glyph glyph-name="G.sc" horiz-adv-x="1175" 
d="M625 -16q-237 0 -382 154.5t-145 408.5q0 256 155 414.5t394 158.5q81 0 180.5 -18.5t161.5 -40.5l19 -195h-23q-146 121 -206 153t-128 32q-166 0 -274.5 -135t-108.5 -373q0 -231 106 -360.5t279 -129.5q77 0 147.5 21.5t100.5 52.5v313l-295 56v36h453v-450l-96 -12
q-168 -86 -338 -86z" />
    <glyph glyph-name="Gbreve.sc" horiz-adv-x="1175" 
d="M629 1178q-212 0 -242 282h35q14 -74 72 -114.5t135 -40.5q76 0 133 41t69 114h35q-14 -133 -72.5 -207.5t-164.5 -74.5zM625 -16q-237 0 -382 154.5t-145 408.5q0 256 155 414.5t394 158.5q81 0 180.5 -18.5t161.5 -40.5l19 -195h-23q-146 121 -206 153t-128 32
q-166 0 -274.5 -135t-108.5 -373q0 -231 106 -360.5t279 -129.5q77 0 147.5 21.5t100.5 52.5v313l-295 56v36h453v-450l-96 -12q-168 -86 -338 -86z" />
    <glyph glyph-name="Gcircumflex.sc" horiz-adv-x="1175" 
d="M414 1167l-23 21l223 321h29l225 -321l-24 -19l-217 168zM625 -16q-237 0 -382 154.5t-145 408.5q0 256 155 414.5t394 158.5q81 0 180.5 -18.5t161.5 -40.5l19 -195h-23q-146 121 -206 153t-128 32q-166 0 -274.5 -135t-108.5 -373q0 -231 106 -360.5t279 -129.5
q77 0 147.5 21.5t100.5 52.5v313l-295 56v36h453v-450l-96 -12q-168 -86 -338 -86z" />
    <glyph glyph-name="uni0122.sc" horiz-adv-x="1175" 
d="M606 532h453v-450l-96 -12q-168 -86 -338 -86q-237 0 -382 154.5t-145 408.5q0 256 155 414.5t394 158.5q81 0 180.5 -18.5t161.5 -40.5l19 -195h-23q-146 121 -206 153t-128 32q-166 0 -274.5 -135t-108.5 -373q0 -231 106 -360.5t279 -129.5q77 0 147.5 21.5
t100.5 52.5v313l-295 56v36zM664 -68q43 0 72.5 -27.5t29.5 -72.5q0 -56 -42.5 -120.5t-133.5 -166.5l-33 23q41 55 61.5 91.5t38.5 88.5q-43 3 -71.5 28.5t-28.5 63.5t32 65t75 27z" />
    <glyph glyph-name="Gdotaccent.sc" horiz-adv-x="1175" 
d="M629 1188q-45 0 -79 33t-34 77q0 43 34.5 76t78.5 33t78 -33t34 -76q0 -44 -34 -77t-78 -33zM625 -16q-237 0 -382 154.5t-145 408.5q0 256 155 414.5t394 158.5q81 0 180.5 -18.5t161.5 -40.5l19 -195h-23q-146 121 -206 153t-128 32q-166 0 -274.5 -135t-108.5 -373
q0 -231 106 -360.5t279 -129.5q77 0 147.5 21.5t100.5 52.5v313l-295 56v36h453v-450l-96 -12q-168 -86 -338 -86z" />
    <glyph glyph-name="H.sc" horiz-adv-x="1284" 
d="M78 0v35l45 16q90 32 90 88v824q0 56 -90 88l-45 16v35h430v-35l-45 -16q-90 -32 -90 -88v-355h545v355q0 56 -91 88l-45 16v35h430v-35l-45 -16q-90 -32 -90 -88v-824q0 -56 90 -88l45 -16v-35h-430v35l45 16q91 32 91 88v402h-545v-402q0 -56 90 -88l45 -16v-35h-430z
" />
    <glyph glyph-name="Hbar.sc" horiz-adv-x="1290" 
d="M80 0v35l45 16q90 32 90 88v641h-137v51h137v132q0 56 -90 88l-45 16v35h430v-35l-45 -16q-90 -32 -90 -88v-132h545v132q0 56 -91 88l-45 16v35h430v-35l-45 -16q-90 -32 -90 -88v-132h140v-51h-140v-641q0 -56 90 -88l45 -16v-35h-430v35l45 16q91 32 91 88v402h-545
v-402q0 -56 90 -88l45 -16v-35h-430zM375 608h545v172h-545v-172z" />
    <glyph glyph-name="Hcircumflex.sc" horiz-adv-x="1284" 
d="M424 1167l-23 21l224 321h28l226 -321l-25 -19l-217 168zM78 0v35l45 16q90 32 90 88v824q0 56 -90 88l-45 16v35h430v-35l-45 -16q-90 -32 -90 -88v-355h545v355q0 56 -91 88l-45 16v35h430v-35l-45 -16q-90 -32 -90 -88v-824q0 -56 90 -88l45 -16v-35h-430v35l45 16
q91 32 91 88v402h-545v-402q0 -56 90 -88l45 -16v-35h-430z" />
    <glyph glyph-name="I.sc" horiz-adv-x="579" 
d="M78 0v35l45 16q90 32 90 88v824q0 56 -90 88l-45 16v35h430v-35l-45 -16q-90 -32 -90 -88v-824q0 -56 90 -88l45 -16v-35h-430z" />
    <glyph glyph-name="Iacute.sc" horiz-adv-x="579" 
d="M186 1157l-26 23l239 323l142 -104zM78 0v35l45 16q90 32 90 88v824q0 56 -90 88l-45 16v35h430v-35l-45 -16q-90 -32 -90 -88v-824q0 -56 90 -88l45 -16v-35h-430z" />
    <glyph glyph-name="Ibreve.sc" horiz-adv-x="579" 
d="M293 1178q-212 0 -242 282h35q14 -74 72 -114.5t135 -40.5q76 0 134 41t69 114h34q-14 -133 -72.5 -207.5t-164.5 -74.5zM78 0v35l45 16q90 32 90 88v824q0 56 -90 88l-45 16v35h430v-35l-45 -16q-90 -32 -90 -88v-824q0 -56 90 -88l45 -16v-35h-430z" />
    <glyph glyph-name="Icircumflex.sc" horiz-adv-x="579" 
d="M78 1167l-23 21l224 321h28l225 -321l-24 -19l-217 168zM78 0v35l45 16q90 32 90 88v824q0 56 -90 88l-45 16v35h430v-35l-45 -16q-90 -32 -90 -88v-824q0 -56 90 -88l45 -16v-35h-430z" />
    <glyph glyph-name="Idieresis.sc" horiz-adv-x="579" 
d="M106 1194q-42 0 -71 29t-29 71t29.5 72.5t70.5 30.5t72 -31t31 -72q0 -42 -30.5 -71t-72.5 -29zM475 1194q-42 0 -71 29t-29 71t29.5 72.5t70.5 30.5t72 -31t31 -72q0 -42 -30.5 -71t-72.5 -29zM78 0v35l45 16q90 32 90 88v824q0 56 -90 88l-45 16v35h430v-35l-45 -16
q-90 -32 -90 -88v-824q0 -56 90 -88l45 -16v-35h-430z" />
    <glyph glyph-name="Idotaccent.sc" horiz-adv-x="579" 
d="M293 1188q-45 0 -79 33t-34 77q0 43 34.5 76t78.5 33t78.5 -33t34.5 -76q0 -44 -34 -77t-79 -33zM78 0v35l45 16q90 32 90 88v824q0 56 -90 88l-45 16v35h430v-35l-45 -16q-90 -32 -90 -88v-824q0 -56 90 -88l45 -16v-35h-430z" />
    <glyph glyph-name="Igrave.sc" horiz-adv-x="579" 
d="M379 1157l-354 242l141 104l240 -323zM78 0v35l45 16q90 32 90 88v824q0 56 -90 88l-45 16v35h430v-35l-45 -16q-90 -32 -90 -88v-824q0 -56 90 -88l45 -16v-35h-430z" />
    <glyph glyph-name="Imacron.sc" horiz-adv-x="579" 
d="M53 1237v102h492v-102h-492zM78 0v35l45 16q90 32 90 88v824q0 56 -90 88l-45 16v35h430v-35l-45 -16q-90 -32 -90 -88v-824q0 -56 90 -88l45 -16v-35h-430z" />
    <glyph glyph-name="Iogonek.sc" horiz-adv-x="579" 
d="M463 1051q-90 -32 -90 -88v-824q0 -56 90 -88l45 -16v-35h-168q-70 -61 -123 -133.5t-53 -136.5q0 -47 28 -72t70 -25q68 0 154 82l30 -26q-40 -62 -113.5 -111t-150.5 -49q-71 0 -118.5 39.5t-47.5 97.5q0 71 73 162.5t171 171.5h-182v35l45 16q90 32 90 88v824
q0 56 -90 88l-45 16v35h430v-35z" />
    <glyph glyph-name="Itilde.sc" horiz-adv-x="579" 
d="M395 1219q-45 0 -123 30q-82 33 -127 33q-18 0 -33 -8t-24.5 -18t-32.5 -37l-26 12q15 82 55.5 124t103.5 42q50 0 123 -33t127 -33q30 0 49.5 14t40.5 48l27 -11q-14 -83 -56.5 -123t-103.5 -40zM78 0v35l45 16q90 32 90 88v824q0 56 -90 88l-45 16v35h430v-35l-45 -16
q-90 -32 -90 -88v-824q0 -56 90 -88l45 -16v-35h-430z" />
    <glyph glyph-name="J.sc" horiz-adv-x="866" 
d="M395 -16q-135 0 -252 71l23 217h22q83 -141 120.5 -180t86.5 -39q129 0 129 191v719q0 56 -90 88l-45 16v35h430v-35l-45 -16q-90 -32 -90 -88v-719q0 -55 -18 -100t-46.5 -74t-67 -49t-78 -28.5t-79.5 -8.5z" />
    <glyph glyph-name="uni00A40301.sc" horiz-adv-x="866" 
d="M498 1157l-27 23l240 323l141 -104zM395 -16q-135 0 -252 71l23 217h22q83 -141 120.5 -180t86.5 -39q129 0 129 191v719q0 56 -90 88l-45 16v35h430v-35l-45 -16q-90 -32 -90 -88v-719q0 -55 -18 -100t-46.5 -74t-67 -49t-78 -28.5t-79.5 -8.5z" />
    <glyph glyph-name="Jcircumflex.sc" horiz-adv-x="866" 
d="M389 1167l-22 21l223 321h28l226 -321l-25 -19l-217 168zM395 -16q-135 0 -252 71l23 217h22q83 -141 120.5 -180t86.5 -39q129 0 129 191v719q0 56 -90 88l-45 16v35h430v-35l-45 -16q-90 -32 -90 -88v-719q0 -55 -18 -100t-46.5 -74t-67 -49t-78 -28.5t-79.5 -8.5z" />
    <glyph glyph-name="K.sc" horiz-adv-x="1169" 
d="M78 0v35l45 16q90 32 90 88v824q0 56 -90 88l-45 16v35h430v-35l-45 -16q-90 -32 -90 -88v-469l391 452q20 23 20 41q0 27 -61 55l-51 25v35h395v-35l-74 -33q-45 -21 -61.5 -29.5t-43.5 -27.5t-48 -43l-297 -338h116l297 -436q26 -37 49.5 -58.5t94.5 -68.5v-33h-217
l-377 551l-133 -156v-256q0 -56 90 -88l45 -16v-35h-430z" />
    <glyph glyph-name="uni0136.sc" horiz-adv-x="1169" 
d="M956 160q26 -37 49.5 -58.5t94.5 -68.5v-33h-217l-377 551l-133 -156v-256q0 -56 90 -88l45 -16v-35h-430v35l45 16q90 32 90 88v824q0 56 -90 88l-45 16v35h430v-35l-45 -16q-90 -32 -90 -88v-469l391 452q20 23 20 41q0 27 -61 55l-51 25v35h395v-35l-74 -33
q-45 -21 -61.5 -29.5t-43.5 -27.5t-48 -43l-297 -338h116zM616 -68q43 0 73 -28t30 -72q0 -56 -42.5 -120.5t-133.5 -166.5l-33 23q41 55 61.5 91.5t38.5 88.5q-43 3 -71.5 28.5t-28.5 63.5t31.5 65t74.5 27z" />
    <glyph glyph-name="L.sc" horiz-adv-x="1034" 
d="M78 0v35l45 16q90 32 90 88v824q0 56 -90 88l-45 16v35h430v-35l-45 -16q-90 -32 -90 -88v-897h317q26 0 39 3.5t38.5 23t58.5 63.5t87 123h29l-31 -279h-833z" />
    <glyph glyph-name="Lacute.sc" horiz-adv-x="1034" 
d="M193 1157l-27 23l240 323l141 -104zM78 0v35l45 16q90 32 90 88v824q0 56 -90 88l-45 16v35h430v-35l-45 -16q-90 -32 -90 -88v-897h317q26 0 39 3.5t38.5 23t58.5 63.5t87 123h29l-31 -279h-833z" />
    <glyph glyph-name="Lcaron.sc" horiz-adv-x="1034" 
d="M580 799l-33 8l65 397l174 -28zM78 0v35l45 16q90 32 90 88v824q0 56 -90 88l-45 16v35h430v-35l-45 -16q-90 -32 -90 -88v-897h317q26 0 39 3.5t38.5 23t58.5 63.5t87 123h29l-31 -279h-833z" />
    <glyph glyph-name="uni013B.sc" horiz-adv-x="1034" 
d="M913 279h29l-31 -279h-833v35l45 16q90 32 90 88v824q0 56 -90 88l-45 16v35h430v-35l-45 -16q-90 -32 -90 -88v-897h317q26 0 39 3.5t38.5 23t58.5 63.5t87 123zM569 -68q43 0 73 -28t30 -72q0 -56 -42.5 -120.5t-133.5 -166.5l-33 23q41 55 61.5 91.5t38.5 88.5
q-43 3 -71.5 28.5t-28.5 63.5t31.5 65t74.5 27z" />
    <glyph glyph-name="Ldot.sc" horiz-adv-x="1034" 
d="M78 0v35l45 16q90 32 90 88v824q0 56 -90 88l-45 16v35h430v-35l-45 -16q-90 -32 -90 -88v-904h317q32 0 53.5 12t60.5 58.5t109 149.5h29l-31 -279h-833zM829 387q-43 0 -76.5 33t-33.5 76q0 41 33.5 73.5t76.5 32.5t76 -32.5t33 -73.5q0 -43 -33 -76t-76 -33z" />
    <glyph glyph-name="Lslash.sc" horiz-adv-x="1067" 
d="M946 279h29l-31 -279h-833v35l45 16q90 32 90 88v283l-168 -96v63l168 96v478q0 56 -90 88l-45 16v35h430v-35l-45 -16q-90 -32 -90 -88v-388l225 130v-62l-225 -129v-448h317q32 0 50.5 7.5t61.5 55.5t111 150z" />
    <glyph glyph-name="M.sc" horiz-adv-x="1544" 
d="M68 0v35l65 31q86 40 86 100v833l-151 64v39h329l381 -1024l352 1024h343v-35l-46 -16q-90 -32 -90 -88v-824q0 -56 90 -88l46 -16v-35h-431v35l45 16q91 32 91 88v887h-2l-355 -1026h-172l-358 946h-2v-780q0 -60 86 -100l65 -31v-35h-372z" />
    <glyph glyph-name="N.sc" horiz-adv-x="1261" 
d="M70 0v35l65 31q86 40 86 100v840l-151 57v39h315l600 -1024v858q0 60 -86 100l-65 31v35h370v-35l-65 -31q-86 -40 -86 -100v-936h-199l-561 958h-4v-792q0 -60 86 -100l65 -31v-35h-370z" />
    <glyph glyph-name="Nacute.sc" horiz-adv-x="1261" 
d="M532 1157l-26 23l239 323l142 -104zM70 0v35l65 31q86 40 86 100v840l-151 57v39h315l600 -1024v858q0 60 -86 100l-65 31v35h370v-35l-65 -31q-86 -40 -86 -100v-936h-199l-561 958h-4v-792q0 -60 86 -100l65 -31v-35h-370z" />
    <glyph glyph-name="Ncaron.sc" horiz-adv-x="1261" 
d="M424 1503l213 -170l217 168l25 -18l-226 -322h-28l-224 322zM70 0v35l65 31q86 40 86 100v840l-151 57v39h315l600 -1024v858q0 60 -86 100l-65 31v35h370v-35l-65 -31q-86 -40 -86 -100v-936h-199l-561 958h-4v-792q0 -60 86 -100l65 -31v-35h-370z" />
    <glyph glyph-name="uni0145.sc" horiz-adv-x="1261" 
d="M1204 1102v-35l-65 -31q-86 -40 -86 -100v-936h-199l-561 958h-4v-792q0 -60 86 -100l65 -31v-35h-370v35l65 31q86 40 86 100v840l-151 57v39h315l600 -1024v858q0 60 -86 100l-65 31v35h370zM625 -68q43 0 72.5 -27.5t29.5 -72.5q0 -56 -42.5 -120.5t-133.5 -166.5
l-33 23q41 55 61.5 91.5t38.5 88.5q-43 3 -71.5 28.5t-28.5 63.5t32 65t75 27z" />
    <glyph glyph-name="Eng.sc" horiz-adv-x="1259" 
d="M1202 1102v-35l-65 -31q-86 -40 -86 -100v-1126q0 -134 -170 -134q-44 0 -121 29l-21 186h21q95 -86 127.5 -109.5t56.5 -23.5q43 0 43 70v172h-135l-563 963h-2v-797q0 -60 86 -100l65 -31v-35h-368v35l65 31q86 40 86 100v835l-149 62v39h311l604 -1022v856
q0 60 -86 100l-65 31v35h366z" />
    <glyph glyph-name="Ntilde.sc" horiz-adv-x="1261" 
d="M741 1219q-45 0 -123 30q-82 33 -126 33q-25 0 -42 -13t-49 -50l-26 12q15 81 56 123.5t104 42.5q49 0 122 -33t127 -33q30 0 49.5 14t40.5 48l27 -11q-14 -83 -56.5 -123t-103.5 -40zM70 0v35l65 31q86 40 86 100v840l-151 57v39h315l600 -1024v858q0 60 -86 100l-65 31
v35h370v-35l-65 -31q-86 -40 -86 -100v-936h-199l-561 958h-4v-792q0 -60 86 -100l65 -31v-35h-370z" />
    <glyph glyph-name="O.sc" horiz-adv-x="1271" 
d="M635 -18q-232 0 -384.5 159.5t-152.5 409.5t152.5 409.5t384.5 159.5q233 0 386 -159.5t153 -409.5q0 -249 -153 -409t-386 -160zM639 49q153 0 257.5 141t104.5 361q0 222 -105 361t-261 139t-261.5 -141t-105.5 -361q0 -218 107 -359t264 -141z" />
    <glyph glyph-name="Oacute.sc" horiz-adv-x="1271" 
d="M528 1157l-26 23l239 323l142 -104zM635 -18q-232 0 -384.5 159.5t-152.5 409.5t152.5 409.5t384.5 159.5q233 0 386 -159.5t153 -409.5q0 -249 -153 -409t-386 -160zM639 49q153 0 257.5 141t104.5 361q0 222 -105 361t-261 139t-261.5 -141t-105.5 -361
q0 -218 107 -359t264 -141z" />
    <glyph glyph-name="Obreve.sc" horiz-adv-x="1271" 
d="M635 1178q-212 0 -242 282h35q14 -74 72 -114.5t135 -40.5q76 0 134 41t69 114h34q-14 -133 -72.5 -207.5t-164.5 -74.5zM635 -18q-232 0 -384.5 159.5t-152.5 409.5t152.5 409.5t384.5 159.5q233 0 386 -159.5t153 -409.5q0 -249 -153 -409t-386 -160zM639 49
q153 0 257.5 141t104.5 361q0 222 -105 361t-261 139t-261.5 -141t-105.5 -361q0 -218 107 -359t264 -141z" />
    <glyph glyph-name="Ocircumflex.sc" horiz-adv-x="1271" 
d="M420 1167l-23 21l224 321h28l225 -321l-24 -19l-217 168zM635 -18q-232 0 -384.5 159.5t-152.5 409.5t152.5 409.5t384.5 159.5q233 0 386 -159.5t153 -409.5q0 -249 -153 -409t-386 -160zM639 49q153 0 257.5 141t104.5 361q0 222 -105 361t-261 139t-261.5 -141
t-105.5 -361q0 -218 107 -359t264 -141z" />
    <glyph glyph-name="Odieresis.sc" horiz-adv-x="1271" 
d="M449 1194q-42 0 -71.5 29t-29.5 71q0 41 30 72t71 31t71.5 -31t30.5 -72q0 -42 -30 -71t-72 -29zM817 1194q-42 0 -71 29t-29 71t29.5 72.5t70.5 30.5t72 -31t31 -72q0 -42 -30.5 -71t-72.5 -29zM635 -18q-232 0 -384.5 159.5t-152.5 409.5t152.5 409.5t384.5 159.5
q233 0 386 -159.5t153 -409.5q0 -249 -153 -409t-386 -160zM639 49q153 0 257.5 141t104.5 361q0 222 -105 361t-261 139t-261.5 -141t-105.5 -361q0 -218 107 -359t264 -141z" />
    <glyph glyph-name="Ograve.sc" horiz-adv-x="1271" 
d="M721 1157l-354 242l141 104l240 -323zM635 -18q-232 0 -384.5 159.5t-152.5 409.5t152.5 409.5t384.5 159.5q233 0 386 -159.5t153 -409.5q0 -249 -153 -409t-386 -160zM639 49q153 0 257.5 141t104.5 361q0 222 -105 361t-261 139t-261.5 -141t-105.5 -361
q0 -218 107 -359t264 -141z" />
    <glyph glyph-name="Ohungarumlaut.sc" horiz-adv-x="1271" 
d="M403 1159l-30 19l178 360l158 -78zM750 1159l-31 19l178 360l158 -78zM635 -18q-232 0 -384.5 159.5t-152.5 409.5t152.5 409.5t384.5 159.5q233 0 386 -159.5t153 -409.5q0 -249 -153 -409t-386 -160zM639 49q153 0 257.5 141t104.5 361q0 222 -105 361t-261 139
t-261.5 -141t-105.5 -361q0 -218 107 -359t264 -141z" />
    <glyph glyph-name="Omacron.sc" horiz-adv-x="1271" 
d="M395 1237v102h492v-102h-492zM635 -18q-232 0 -384.5 159.5t-152.5 409.5t152.5 409.5t384.5 159.5q233 0 386 -159.5t153 -409.5q0 -249 -153 -409t-386 -160zM639 49q153 0 257.5 141t104.5 361q0 222 -105 361t-261 139t-261.5 -141t-105.5 -361q0 -218 107 -359
t264 -141z" />
    <glyph glyph-name="Oslash.sc" horiz-adv-x="1271" 
d="M973 1004q95 -76 148 -193t53 -260q0 -249 -153 -409t-386 -160q-162 0 -295 84l-119 -177h-67l141 211q-93 77 -145 193t-52 258q0 250 152.5 409.5t384.5 159.5q168 0 293 -84l110 164h68zM268 549q0 -201 97 -346l501 743q-94 105 -231 105q-156 0 -261.5 -141
t-105.5 -361zM639 49q153 0 257.5 141t104.5 361q0 212 -98 350l-502 -743q103 -109 238 -109z" />
    <glyph glyph-name="Oslashacute.sc" horiz-adv-x="1271" 
d="M883 1399l-355 -242l-26 23l239 323zM973 1004q95 -76 148 -193t53 -260q0 -249 -153 -409t-386 -160q-162 0 -295 84l-119 -177h-67l141 211q-93 77 -145 193t-52 258q0 250 152.5 409.5t384.5 159.5q168 0 293 -84l110 164h68zM268 549q0 -201 97 -346l501 743
q-94 105 -231 105q-156 0 -261.5 -141t-105.5 -361zM639 49q153 0 257.5 141t104.5 361q0 212 -98 350l-502 -743q103 -109 238 -109z" />
    <glyph glyph-name="Otilde.sc" horiz-adv-x="1271" 
d="M737 1219q-45 0 -123 30q-82 33 -127 33q-18 0 -33 -8t-24.5 -18t-32.5 -37l-26 12q15 82 55.5 124t103.5 42q50 0 123 -33t127 -33q30 0 49.5 14t40.5 48l27 -11q-14 -83 -56.5 -123t-103.5 -40zM635 -18q-232 0 -384.5 159.5t-152.5 409.5t152.5 409.5t384.5 159.5
q233 0 386 -159.5t153 -409.5q0 -249 -153 -409t-386 -160zM639 49q153 0 257.5 141t104.5 361q0 222 -105 361t-261 139t-261.5 -141t-105.5 -361q0 -218 107 -359t264 -141z" />
    <glyph glyph-name="OE.sc" horiz-adv-x="1777" 
d="M629 -18q-230 0 -380.5 158.5t-150.5 410.5q0 253 150 411t379 158q196 0 323 -137v119h654l30 -273h-26q-95 132 -135.5 169.5t-90.5 37.5h-272v-432h260q29 0 56 26t75 93h27v-297h-27q-46 65 -73 90t-58 25h-260v-475h324q35 0 55.5 10t59.5 55t110 148h27l-31 -279
h-705v121q-124 -139 -321 -139zM639 51q103 0 185.5 58.5t125.5 169.5v540q-43 113 -126 172.5t-187 59.5q-159 0 -264 -137t-105 -363q0 -228 106 -364t265 -136z" />
    <glyph glyph-name="P.sc" horiz-adv-x="1026" 
d="M78 0v35l45 16q90 32 90 88v824q0 56 -90 88l-45 16v35h479q84 0 157.5 -19.5t132.5 -57.5t93.5 -100.5t34.5 -142.5q0 -81 -34.5 -144.5t-94 -102t-134 -58.5t-159.5 -20h-180v-318q0 -56 108 -88l54 -16v-35h-457zM373 522h153q64 0 113.5 12.5t89.5 41t61 80.5t21 126
q0 124 -69.5 188t-206.5 64h-162v-512z" />
    <glyph glyph-name="Thorn.sc" horiz-adv-x="1075" 
d="M78 0v35l45 16q90 32 90 88v824q0 56 -90 88l-45 16v35h430v-35l-45 -16q-90 -32 -90 -88v-80h188q83 0 156 -19t132 -56.5t93.5 -100t34.5 -142.5q0 -81 -34.5 -144.5t-93.5 -102t-133.5 -58.5t-158.5 -20h-184v-101q0 -56 90 -88l45 -16v-35h-430zM373 303h157
q133 0 208 59.5t75 202.5q0 124 -69 189t-205 65h-166v-516z" />
    <glyph glyph-name="Q.sc" horiz-adv-x="1271" 
d="M1038 -254l-321 242q-27 -6 -82 -6q-232 0 -384.5 159.5t-152.5 409.5t152.5 409.5t384.5 159.5q233 0 386 -159.5t153 -409.5q0 -200 -103 -347.5t-272 -197.5v-8l139 -18l332 -197v-37h-232zM639 49q151 0 256.5 142t105.5 360q0 221 -106.5 360.5t-259.5 139.5
q-152 0 -259.5 -142t-107.5 -360t108.5 -359t262.5 -141z" />
    <glyph glyph-name="R.sc" horiz-adv-x="1144" 
d="M78 0v35l45 16q90 32 90 88v824q0 56 -90 88l-45 16v35h506q178 0 273 -82.5t95 -212.5q0 -136 -104.5 -221.5t-280.5 -85.5h-6v-13l152 -45l207 -276q54 -73 155 -131v-35h-225l-365 496h-112v-357q0 -56 90 -88l45 -16v-35h-430zM373 563h153q267 0 267 234
q0 116 -64 176.5t-168 60.5h-188v-471z" />
    <glyph glyph-name="Racute.sc" horiz-adv-x="1144" 
d="M420 1157l-27 23l240 323l141 -104zM78 0v35l45 16q90 32 90 88v824q0 56 -90 88l-45 16v35h506q178 0 273 -82.5t95 -212.5q0 -136 -104.5 -221.5t-280.5 -85.5h-6v-13l152 -45l207 -276q54 -73 155 -131v-35h-225l-365 496h-112v-357q0 -56 90 -88l45 -16v-35h-430z
M373 563h153q267 0 267 234q0 116 -64 176.5t-168 60.5h-188v-471z" />
    <glyph glyph-name="Rcaron.sc" horiz-adv-x="1144" 
d="M311 1503l213 -170l217 168l25 -18l-225 -322h-29l-223 322zM78 0v35l45 16q90 32 90 88v824q0 56 -90 88l-45 16v35h506q178 0 273 -82.5t95 -212.5q0 -136 -104.5 -221.5t-280.5 -85.5h-6v-13l152 -45l207 -276q54 -73 155 -131v-35h-225l-365 496h-112v-357
q0 -56 90 -88l45 -16v-35h-430zM373 563h153q267 0 267 234q0 116 -64 176.5t-168 60.5h-188v-471z" />
    <glyph glyph-name="uni0156.sc" horiz-adv-x="1144" 
d="M920 166q54 -73 155 -131v-35h-225l-365 496h-112v-357q0 -56 90 -88l45 -16v-35h-430v35l45 16q90 32 90 88v824q0 56 -90 88l-45 16v35h506q178 0 273 -82.5t95 -212.5q0 -136 -104.5 -221.5t-280.5 -85.5h-6v-13l152 -45zM373 563h153q267 0 267 234q0 116 -64 176.5
t-168 60.5h-188v-471zM590 -68q43 0 72.5 -27.5t29.5 -72.5q0 -56 -42.5 -120.5t-133.5 -166.5l-33 23q41 56 62 92.5t39 87.5q-43 3 -72 28.5t-29 63.5t32 65t75 27z" />
    <glyph glyph-name="S.sc" horiz-adv-x="909" 
d="M471 -18q-148 0 -350 84l-21 210h27q79 -81 128.5 -125.5t88.5 -67.5t64.5 -28.5t66.5 -5.5q102 0 158.5 51t56.5 136q0 70 -48.5 126.5t-135.5 94.5l-174 75q-98 42 -158.5 115t-60.5 176q0 138 97 217.5t241 79.5q133 0 278 -49l19 -186h-29q-112 108 -167.5 138
t-107.5 30q-84 0 -143 -45t-59 -123q0 -134 182 -213l154 -68q34 -15 61 -29.5t63.5 -42.5t61 -60.5t42 -82t17.5 -106.5q0 -75 -30.5 -134t-81.5 -94.5t-112.5 -54t-127.5 -18.5z" />
    <glyph glyph-name="Sacute.sc" horiz-adv-x="909" 
d="M354 1157l-26 23l239 323l142 -104zM471 -18q-148 0 -350 84l-21 210h27q79 -81 128.5 -125.5t88.5 -67.5t64.5 -28.5t66.5 -5.5q102 0 158.5 51t56.5 136q0 70 -48.5 126.5t-135.5 94.5l-174 75q-98 42 -158.5 115t-60.5 176q0 138 97 217.5t241 79.5q133 0 278 -49
l19 -186h-29q-112 108 -167.5 138t-107.5 30q-84 0 -143 -45t-59 -123q0 -134 182 -213l154 -68q34 -15 61 -29.5t63.5 -42.5t61 -60.5t42 -82t17.5 -106.5q0 -75 -30.5 -134t-81.5 -94.5t-112.5 -54t-127.5 -18.5z" />
    <glyph glyph-name="Scaron.sc" horiz-adv-x="909" 
d="M246 1503l213 -170l217 168l24 -18l-225 -322h-29l-223 322zM471 -18q-148 0 -350 84l-21 210h27q79 -81 128.5 -125.5t88.5 -67.5t64.5 -28.5t66.5 -5.5q102 0 158.5 51t56.5 136q0 70 -48.5 126.5t-135.5 94.5l-174 75q-98 42 -158.5 115t-60.5 176q0 138 97 217.5
t241 79.5q133 0 278 -49l19 -186h-29q-112 108 -167.5 138t-107.5 30q-84 0 -143 -45t-59 -123q0 -134 182 -213l154 -68q34 -15 61 -29.5t63.5 -42.5t61 -60.5t42 -82t17.5 -106.5q0 -75 -30.5 -134t-81.5 -94.5t-112.5 -54t-127.5 -18.5z" />
    <glyph glyph-name="Scedilla.sc" horiz-adv-x="909" 
d="M823 283q0 -72 -28.5 -129.5t-76.5 -93t-106.5 -55.5t-122.5 -23l-47 -64q78 -10 136.5 -58t58.5 -130q0 -84 -58 -130t-147 -46q-73 0 -201 34l68 115h12q57 -52 82.5 -70t44.5 -18q31 0 55.5 18.5t24.5 63.5q0 60 -46 90t-116 37l-59 6l125 154q-132 11 -301 82
l-21 210h27q79 -81 128.5 -125.5t88.5 -67.5t64.5 -28.5t66.5 -5.5q102 0 158.5 51t56.5 136q0 70 -48.5 126.5t-135.5 94.5l-174 75q-98 42 -158.5 115t-60.5 176q0 138 97 217.5t241 79.5q133 0 278 -49l19 -186h-29q-112 108 -167.5 138t-107.5 30q-84 0 -143 -45
t-59 -123q0 -134 182 -213l154 -68q34 -15 61 -29.5t63.5 -42.5t61 -60.5t42 -82t17.5 -106.5z" />
    <glyph glyph-name="Scircumflex.sc" horiz-adv-x="909" 
d="M246 1167l-23 21l223 321h29l225 -321l-24 -19l-217 168zM471 -18q-148 0 -350 84l-21 210h27q79 -81 128.5 -125.5t88.5 -67.5t64.5 -28.5t66.5 -5.5q102 0 158.5 51t56.5 136q0 70 -48.5 126.5t-135.5 94.5l-174 75q-98 42 -158.5 115t-60.5 176q0 138 97 217.5
t241 79.5q133 0 278 -49l19 -186h-29q-112 108 -167.5 138t-107.5 30q-84 0 -143 -45t-59 -123q0 -134 182 -213l154 -68q34 -15 61 -29.5t63.5 -42.5t61 -60.5t42 -82t17.5 -106.5q0 -75 -30.5 -134t-81.5 -94.5t-112.5 -54t-127.5 -18.5z" />
    <glyph glyph-name="uni0218.sc" horiz-adv-x="909" 
d="M578 604q34 -15 61 -29.5t63.5 -42.5t61 -60.5t42 -82t17.5 -106.5q0 -75 -30.5 -134t-81.5 -94.5t-112.5 -54t-127.5 -18.5q-148 0 -350 84l-21 210h27q79 -81 128.5 -125.5t88.5 -67.5t64.5 -28.5t66.5 -5.5q102 0 158.5 51t56.5 136q0 70 -48.5 126.5t-135.5 94.5
l-174 75q-98 42 -158.5 115t-60.5 176q0 138 97 217.5t241 79.5q133 0 278 -49l19 -186h-29q-112 108 -167.5 138t-107.5 30q-84 0 -143 -45t-59 -123q0 -134 182 -213zM469 -68q43 0 72.5 -27.5t29.5 -72.5q0 -56 -42.5 -120.5t-133.5 -166.5l-33 23q41 56 62 92.5t39 87.5
q-43 3 -72 28.5t-29 63.5t32 65t75 27z" />
    <glyph glyph-name="T.sc" horiz-adv-x="1093" 
d="M334 0v35l45 16q90 32 90 88v897h-156q-33 0 -56 -12.5t-60 -55t-107 -139.5h-27l29 273h912l30 -273h-28q-93 130 -133 168.5t-89 38.5h-155v-897q0 -56 90 -88l45 -16v-35h-430z" />
    <glyph glyph-name="Tbar.sc" horiz-adv-x="1093" 
d="M1004 1102l30 -273h-28q-93 130 -133 168.5t-89 38.5h-155v-446h192v-70h-192v-381q0 -56 90 -88l45 -16v-35h-430v35l45 16q90 32 90 88v381h-188v70h188v446h-156q-33 0 -56 -12.5t-60 -55t-107 -139.5h-27l29 273h912z" />
    <glyph glyph-name="Tcaron.sc" horiz-adv-x="1093" 
d="M334 1503l213 -170l217 168l24 -18l-225 -322h-28l-224 322zM334 0v35l45 16q90 32 90 88v897h-156q-33 0 -56 -12.5t-60 -55t-107 -139.5h-27l29 273h912l30 -273h-28q-93 130 -133 168.5t-89 38.5h-155v-897q0 -56 90 -88l45 -16v-35h-430z" />
    <glyph glyph-name="uni0162.sc" horiz-adv-x="1093" 
d="M1004 1102l30 -273h-28q-93 130 -133 168.5t-89 38.5h-155v-897q0 -56 90 -88l45 -16v-35h-184l-56 -74q78 -10 136.5 -58t58.5 -130q0 -84 -58 -130t-147 -46q-69 0 -201 35l68 114h12q57 -52 82.5 -70t44.5 -18q31 0 55.5 18.5t24.5 63.5q0 60 -46 90t-116 37l-59 6
l131 162h-176v35l45 16q90 32 90 88v897h-156q-33 0 -56 -12.5t-60 -55t-107 -139.5h-27l29 273h912z" />
    <glyph glyph-name="uni021A.sc" horiz-adv-x="1093" 
d="M1004 1102l30 -273h-28q-93 130 -133 168.5t-89 38.5h-155v-897q0 -56 90 -88l45 -16v-35h-430v35l45 16q90 32 90 88v897h-156q-33 0 -56 -12.5t-60 -55t-107 -139.5h-27l29 273h912zM551 -59q42 0 72 -28t30 -73q0 -56 -42.5 -119.5t-133.5 -166.5l-33 22
q41 56 62 92.5t39 87.5q-43 3 -72 28.5t-29 63.5t32 65.5t75 27.5z" />
    <glyph glyph-name="U.sc" horiz-adv-x="1191" 
d="M596 -18q-58 0 -112.5 11t-110 38.5t-96 70t-66 111.5t-25.5 156v594q0 56 -90 88l-45 16v35h430v-35l-45 -16q-90 -32 -90 -88v-570q0 -150 80 -231.5t217 -81.5q127 0 213 72.5t86 203.5v580q0 60 -78 100l-59 31v35h342v-35l-60 -31q-77 -39 -77 -100v-590
q0 -167 -117.5 -265.5t-296.5 -98.5z" />
    <glyph glyph-name="Uacute.sc" horiz-adv-x="1191" 
d="M502 1157l-27 23l240 323l141 -104zM596 -18q-58 0 -112.5 11t-110 38.5t-96 70t-66 111.5t-25.5 156v594q0 56 -90 88l-45 16v35h430v-35l-45 -16q-90 -32 -90 -88v-570q0 -150 80 -231.5t217 -81.5q127 0 213 72.5t86 203.5v580q0 60 -78 100l-59 31v35h342v-35
l-60 -31q-77 -39 -77 -100v-590q0 -167 -117.5 -265.5t-296.5 -98.5z" />
    <glyph glyph-name="Ubreve.sc" horiz-adv-x="1191" 
d="M608 1178q-211 0 -241 282h34q14 -74 72 -114.5t135 -40.5q76 0 134 41t69 114h35q-14 -133 -73 -207.5t-165 -74.5zM596 -18q-58 0 -112.5 11t-110 38.5t-96 70t-66 111.5t-25.5 156v594q0 56 -90 88l-45 16v35h430v-35l-45 -16q-90 -32 -90 -88v-570q0 -150 80 -231.5
t217 -81.5q127 0 213 72.5t86 203.5v580q0 60 -78 100l-59 31v35h342v-35l-60 -31q-77 -39 -77 -100v-590q0 -167 -117.5 -265.5t-296.5 -98.5z" />
    <glyph glyph-name="Ucircumflex.sc" horiz-adv-x="1191" 
d="M393 1167l-22 21l223 321h29l225 -321l-25 -19l-217 168zM596 -18q-58 0 -112.5 11t-110 38.5t-96 70t-66 111.5t-25.5 156v594q0 56 -90 88l-45 16v35h430v-35l-45 -16q-90 -32 -90 -88v-570q0 -150 80 -231.5t217 -81.5q127 0 213 72.5t86 203.5v580q0 60 -78 100
l-59 31v35h342v-35l-60 -31q-77 -39 -77 -100v-590q0 -167 -117.5 -265.5t-296.5 -98.5z" />
    <glyph glyph-name="Udieresis.sc" horiz-adv-x="1191" 
d="M422 1194q-42 0 -71 29t-29 71t29.5 72.5t70.5 30.5t71.5 -31t30.5 -72q0 -42 -30 -71t-72 -29zM791 1194q-42 0 -71.5 29t-29.5 71q0 41 30 72t71 31t71.5 -31t30.5 -72q0 -42 -30 -71t-72 -29zM596 -18q-58 0 -112.5 11t-110 38.5t-96 70t-66 111.5t-25.5 156v594
q0 56 -90 88l-45 16v35h430v-35l-45 -16q-90 -32 -90 -88v-570q0 -150 80 -231.5t217 -81.5q127 0 213 72.5t86 203.5v580q0 60 -78 100l-59 31v35h342v-35l-60 -31q-77 -39 -77 -100v-590q0 -167 -117.5 -265.5t-296.5 -98.5z" />
    <glyph glyph-name="Ugrave.sc" horiz-adv-x="1191" 
d="M694 1157l-354 242l141 104l240 -323zM596 -18q-58 0 -112.5 11t-110 38.5t-96 70t-66 111.5t-25.5 156v594q0 56 -90 88l-45 16v35h430v-35l-45 -16q-90 -32 -90 -88v-570q0 -150 80 -231.5t217 -81.5q127 0 213 72.5t86 203.5v580q0 60 -78 100l-59 31v35h342v-35
l-60 -31q-77 -39 -77 -100v-590q0 -167 -117.5 -265.5t-296.5 -98.5z" />
    <glyph glyph-name="Uhungarumlaut.sc" horiz-adv-x="1191" 
d="M377 1159l-31 19l178 360l158 -78zM723 1159l-31 19l178 360l158 -78zM596 -18q-58 0 -112.5 11t-110 38.5t-96 70t-66 111.5t-25.5 156v594q0 56 -90 88l-45 16v35h430v-35l-45 -16q-90 -32 -90 -88v-570q0 -150 80 -231.5t217 -81.5q127 0 213 72.5t86 203.5v580
q0 60 -78 100l-59 31v35h342v-35l-60 -31q-77 -39 -77 -100v-590q0 -167 -117.5 -265.5t-296.5 -98.5z" />
    <glyph glyph-name="Umacron.sc" horiz-adv-x="1191" 
d="M369 1237v102h491v-102h-491zM596 -18q-58 0 -112.5 11t-110 38.5t-96 70t-66 111.5t-25.5 156v594q0 56 -90 88l-45 16v35h430v-35l-45 -16q-90 -32 -90 -88v-570q0 -150 80 -231.5t217 -81.5q127 0 213 72.5t86 203.5v580q0 60 -78 100l-59 31v35h342v-35l-60 -31
q-77 -39 -77 -100v-590q0 -167 -117.5 -265.5t-296.5 -98.5z" />
    <glyph glyph-name="Uogonek.sc" horiz-adv-x="1191" 
d="M1147 1102v-35l-60 -31q-77 -39 -77 -100v-590q0 -127 -69 -215.5t-187 -126.5q-61 -58 -106.5 -127.5t-45.5 -130.5q0 -47 25.5 -71.5t66.5 -24.5q66 0 144 82l28 -27q-38 -64 -108 -112t-142 -48q-67 0 -112 39.5t-45 98.5q0 121 196 301q-20 -2 -59 -2
q-58 0 -112.5 11t-110 38.5t-96 70t-66 111.5t-25.5 156v594q0 56 -90 88l-45 16v35h430v-35l-45 -16q-90 -32 -90 -88v-570q0 -150 80 -231.5t217 -81.5q127 0 213 72.5t86 203.5v580q0 60 -78 100l-59 31v35h342z" />
    <glyph glyph-name="Uring.sc" horiz-adv-x="1191" 
d="M608 1171q-64 0 -113 46.5t-49 111.5q0 64 49 110t113 46q67 0 116.5 -46.5t49.5 -109.5q0 -64 -49 -111t-117 -47zM608 1223q45 0 76 32t31 74q0 43 -31 74t-76 31q-42 0 -73 -31t-31 -74q0 -41 31.5 -73.5t72.5 -32.5zM596 -18q-58 0 -112.5 11t-110 38.5t-96 70
t-66 111.5t-25.5 156v594q0 56 -90 88l-45 16v35h430v-35l-45 -16q-90 -32 -90 -88v-570q0 -150 80 -231.5t217 -81.5q127 0 213 72.5t86 203.5v580q0 60 -78 100l-59 31v35h342v-35l-60 -31q-77 -39 -77 -100v-590q0 -167 -117.5 -265.5t-296.5 -98.5z" />
    <glyph glyph-name="Utilde.sc" horiz-adv-x="1191" 
d="M711 1219q-45 0 -123 30q-82 33 -127 33q-18 0 -33 -8t-24.5 -18t-32.5 -37l-27 12q15 81 56 123.5t104 42.5q50 0 123 -33t127 -33q30 0 49.5 14t40.5 48l26 -11q-14 -83 -56 -123t-103 -40zM596 -18q-58 0 -112.5 11t-110 38.5t-96 70t-66 111.5t-25.5 156v594
q0 56 -90 88l-45 16v35h430v-35l-45 -16q-90 -32 -90 -88v-570q0 -150 80 -231.5t217 -81.5q127 0 213 72.5t86 203.5v580q0 60 -78 100l-59 31v35h342v-35l-60 -31q-77 -39 -77 -100v-590q0 -167 -117.5 -265.5t-296.5 -98.5z" />
    <glyph glyph-name="V.sc" horiz-adv-x="1175" 
d="M500 0l-305 950q-10 29 -30 49.5t-61 38.5l-67 29v35h438v-35l-69 -29q-56 -22 -56 -61q0 -9 6 -27l279 -876l264 839q8 24 8 50q0 56 -82 84l-59 20v35h381v-35l-51 -20q-47 -20 -78.5 -49.5t-48.5 -84.5l-289 -913h-180z" />
    <glyph glyph-name="W.sc" horiz-adv-x="1759" 
d="M504 0l-309 950q-7 18 -13 29t-26 28.5t-52 30.5l-67 29v35h438v-35l-69 -29q-54 -22 -54 -59q0 -17 4 -29l283 -868l207 645l-72 223q-10 29 -30 49.5t-62 38.5l-68 29v35h437v-35l-68 -29q-53 -22 -53 -59q0 -17 4 -29l289 -876l262 839q8 27 8 50q0 56 -84 84l-57 20
v35h379v-35l-50 -20q-100 -41 -129 -134l-284 -913h-181l-206 621l-199 -621h-178z" />
    <glyph glyph-name="Wacute.sc" horiz-adv-x="1759" 
d="M748 1157l-27 23l240 323l141 -104zM504 0l-309 950q-7 18 -13 29t-26 28.5t-52 30.5l-67 29v35h438v-35l-69 -29q-54 -22 -54 -59q0 -17 4 -29l283 -868l207 645l-72 223q-10 29 -30 49.5t-62 38.5l-68 29v35h437v-35l-68 -29q-53 -22 -53 -59q0 -17 4 -29l289 -876
l262 839q8 27 8 50q0 56 -84 84l-57 20v35h379v-35l-50 -20q-100 -41 -129 -134l-284 -913h-181l-206 621l-199 -621h-178z" />
    <glyph glyph-name="Wcircumflex.sc" horiz-adv-x="1759" 
d="M639 1167l-23 21l224 321h28l226 -321l-25 -19l-217 168zM504 0l-309 950q-7 18 -13 29t-26 28.5t-52 30.5l-67 29v35h438v-35l-69 -29q-54 -22 -54 -59q0 -17 4 -29l283 -868l207 645l-72 223q-10 29 -30 49.5t-62 38.5l-68 29v35h437v-35l-68 -29q-53 -22 -53 -59
q0 -17 4 -29l289 -876l262 839q8 27 8 50q0 56 -84 84l-57 20v35h379v-35l-50 -20q-100 -41 -129 -134l-284 -913h-181l-206 621l-199 -621h-178z" />
    <glyph glyph-name="Wdieresis.sc" horiz-adv-x="1759" 
d="M668 1194q-42 0 -71.5 29t-29.5 71q0 41 30 72t71 31t71.5 -31t30.5 -72q0 -42 -30 -71t-72 -29zM1036 1194q-42 0 -71 29t-29 71t29.5 72.5t70.5 30.5t72 -31t31 -72q0 -42 -30.5 -71t-72.5 -29zM504 0l-309 950q-7 18 -13 29t-26 28.5t-52 30.5l-67 29v35h438v-35
l-69 -29q-54 -22 -54 -59q0 -17 4 -29l283 -868l207 645l-72 223q-10 29 -30 49.5t-62 38.5l-68 29v35h437v-35l-68 -29q-53 -22 -53 -59q0 -17 4 -29l289 -876l262 839q8 27 8 50q0 56 -84 84l-57 20v35h379v-35l-50 -20q-100 -41 -129 -134l-284 -913h-181l-206 621
l-199 -621h-178z" />
    <glyph glyph-name="Wgrave.sc" horiz-adv-x="1759" 
d="M940 1157l-354 242l141 104l240 -323zM504 0l-309 950q-7 18 -13 29t-26 28.5t-52 30.5l-67 29v35h438v-35l-69 -29q-54 -22 -54 -59q0 -17 4 -29l283 -868l207 645l-72 223q-10 29 -30 49.5t-62 38.5l-68 29v35h437v-35l-68 -29q-53 -22 -53 -59q0 -17 4 -29l289 -876
l262 839q8 27 8 50q0 56 -84 84l-57 20v35h379v-35l-50 -20q-100 -41 -129 -134l-284 -913h-181l-206 621l-199 -621h-178z" />
    <glyph glyph-name="X.sc" horiz-adv-x="1220" 
d="M59 0v35l58 22q55 21 94.5 48t73.5 75l256 352l-299 422q-38 56 -123 90l-58 23v35h453v-35l-59 -23q-56 -20 -56 -49q0 -17 17 -41l227 -321l207 289q41 57 41 77q0 27 -57 48l-56 20v35h377v-35l-57 -25q-46 -21 -64 -30t-49.5 -33.5t-54.5 -56.5l-248 -342l305 -435
q41 -61 121 -90l57 -20v-35h-450v35l59 20q53 17 53 51q0 17 -16 39l-233 332l-211 -295q-39 -54 -39 -78q0 -31 47 -47l63 -22v-35h-379z" />
    <glyph glyph-name="uni1E8A.sc" horiz-adv-x="1220" 
d="M618 1188q-44 0 -78 33t-34 77q0 43 34 76t78 33t78.5 -33t34.5 -76q0 -44 -34 -77t-79 -33zM59 0v35l58 22q55 21 94.5 48t73.5 75l256 352l-299 422q-38 56 -123 90l-58 23v35h453v-35l-59 -23q-56 -20 -56 -49q0 -17 17 -41l227 -321l207 289q41 57 41 77q0 27 -57 48
l-56 20v35h377v-35l-57 -25q-46 -21 -64 -30t-49.5 -33.5t-54.5 -56.5l-248 -342l305 -435q41 -61 121 -90l57 -20v-35h-450v35l59 20q53 17 53 51q0 17 -16 39l-233 332l-211 -295q-39 -54 -39 -78q0 -31 47 -47l63 -22v-35h-379z" />
    <glyph glyph-name="Y.sc" horiz-adv-x="1138" 
d="M354 0v35l56 22q44 19 63 36t19 44v352l-302 467q-32 50 -106 82l-68 29v35h453v-35l-68 -29q-47 -19 -47 -47q0 -16 13 -35l251 -389l230 359q24 38 24 65q0 34 -53 56l-49 20v35h360v-35l-49 -20q-72 -34 -100 -58q-31 -26 -55 -63l-275 -428v-361q0 -25 17.5 -41
t64.5 -37l58 -24v-35h-437z" />
    <glyph glyph-name="Yacute.sc" horiz-adv-x="1138" 
d="M516 1157l-27 23l240 323l141 -104zM354 0v35l56 22q44 19 63 36t19 44v352l-302 467q-32 50 -106 82l-68 29v35h453v-35l-68 -29q-47 -19 -47 -47q0 -16 13 -35l251 -389l230 359q24 38 24 65q0 34 -53 56l-49 20v35h360v-35l-49 -20q-72 -34 -100 -58q-31 -26 -55 -63
l-275 -428v-361q0 -25 17.5 -41t64.5 -37l58 -24v-35h-437z" />
    <glyph glyph-name="Ycircumflex.sc" horiz-adv-x="1138" 
d="M408 1167l-23 21l223 321h29l225 -321l-24 -19l-217 168zM354 0v35l56 22q44 19 63 36t19 44v352l-302 467q-32 50 -106 82l-68 29v35h453v-35l-68 -29q-47 -19 -47 -47q0 -16 13 -35l251 -389l230 359q24 38 24 65q0 34 -53 56l-49 20v35h360v-35l-49 -20
q-72 -34 -100 -58q-31 -26 -55 -63l-275 -428v-361q0 -25 17.5 -41t64.5 -37l58 -24v-35h-437z" />
    </font>
</defs>
</svg>
