<?xml version="1.0" standalone="no"?>
<!DOCTYPE svg PUBLIC "-//W3C//DTD SVG 1.1//EN" "http://www.w3.org/Graphics/SVG/1.1/DTD/svg11.dtd" >
<svg xmlns="http://www.w3.org/2000/svg" xmlns:xlink="http://www.w3.org/1999/xlink" version="1.1">
<metadata>
Created by FontForge 20170731 at Wed Jul 11 02:32:33 2018
 By Aleksey,,,
Copyright (c) 2017 by Deni Anggara. All rights reserved.
</metadata>
<defs>
<font id="AllianceNo.1-ExtraBold" horiz-adv-x="0" >
  <font-face 
    font-family="Alliance No.1 ExtraBold"
    font-weight="800"
    font-stretch="normal"
    units-per-em="1000"
    panose-1="0 0 9 0 0 0 0 0 0 0"
    ascent="795"
    descent="-205"
    x-height="541"
    cap-height="729"
    bbox="-562 -312 2115 1033"
    underline-thickness="50"
    underline-position="-200"
    unicode-range="U+000D-FB02"
  />
<missing-glyph horiz-adv-x="644" 
d="M644 0h-644v729h644v-729zM63 666v-604h518v604h-518zM518 125h-392v478h392v-478zM189 540v-351h266v351h-266zM252 252v225h140v-225h-140z" />
    <glyph glyph-name="fi" unicode="fi" horiz-adv-x="689" 
d="M286 541h350v-541h-175v399h-175v-399h-176v399h-103v142h103v25q0 94 55.5 142.5t155.5 48.5q47 0 80 -10v-137q-25 5 -42 5q-73 0 -73 -60v-14zM460 585v161h176v-161h-176z" />
    <glyph glyph-name="fl" unicode="fl" horiz-adv-x="691" 
d="M462 541v207h176v-748h-176v399h-177v-399h-175v399h-103v142h103v25q0 94 55.5 142.5t155.5 48.5q47 0 80 -10v-137q-25 5 -42 5q-74 0 -74 -60v-14h177z" />
    <glyph glyph-name="f_f" unicode="ff" horiz-adv-x="756" 
d="M707 615q-73 0 -73 -60v-14h116v-142h-116v-399h-176v399h-172v-399h-176v399h-103v142h103v25q0 94 55.5 142.5t155.5 48.5q47 0 80 -10v-137q-25 5 -42 5q-73 0 -73 -60v-14h172v25q0 94 55.5 142.5t156.5 48.5q47 0 80 -10v-137q-25 5 -43 5z" />
    <glyph glyph-name="f_f_i" unicode="ffi" horiz-adv-x="1036" 
d="M633 541h351v-541h-176v399h-175v-399h-176v399h-171v-399h-176v399h-103v142h103v25q0 94 55.5 142.5t155.5 48.5q47 0 80 -10v-137q-25 5 -42 5q-73 0 -73 -60v-14h171v25q0 94 55.5 142.5t155.5 48.5q48 0 81 -10v-137q-25 5 -43 5q-73 0 -73 -60v-14zM808 585v161
h176v-161h-176z" />
    <glyph glyph-name="t_i" unicode="ti" horiz-adv-x="670" 
d="M442 585v161h176v-161h-176zM266 541h352v-541h-176v399h-176v-202q0 -36 14.5 -51.5t46.5 -15.5q31 0 53 5v-135q-53 -10 -107 -10q-90 0 -136 39q-19 16 -30 43q-17 41 -17 102v225h-85v142h85v123l176 68v-191z" />
    <glyph glyph-name="t_t" unicode="tt" horiz-adv-x="764" 
d="M737 541v-142h-114v-202q0 -36 14.5 -51.5t46.5 -15.5q31 0 53 5v-135q-53 -10 -107 -10q-90 0 -136 39q-19 16 -30 43q-17 41 -17 102v225h-181v-202q0 -36 14.5 -51.5t46.5 -15.5q31 0 53 5v-135q-53 -10 -107 -10q-90 0 -136 39q-19 16 -30 43q-17 41 -17 102v225h-85
v142h85v123l176 68v-191h181v123l176 68v-191h114z" />
    <glyph glyph-name="t_t_i" unicode="tti" horiz-adv-x="1021" 
d="M792 585v161h176v-161h-176zM617 541h351v-541h-175l-1 399h-175v-202q0 -35 14 -52q13 -15 46 -15q29 0 54 5v-135q-53 -10 -107 -10q-90 0 -136 39q-19 16 -30 43q-17 41 -17 102v225h-175v-202q0 -36 14.5 -51.5t46.5 -15.5q31 0 53 5v-135q-53 -10 -107 -10
q-90 0 -136 39q-19 16 -30 43q-17 41 -17 102v225h-85v142h85v123l176 68v-191h175v123l176 68v-191z" />
    <glyph glyph-name="hyphen_hyphen_greater" unicode="&#x2d;&#x2d;&#x3e;" horiz-adv-x="858" 
d="M686 229h-591v94h591l-169 225h118l206 -271l-206 -277h-118z" />
    <glyph glyph-name="less_hyphen_hyphen" unicode="&#x3c;&#x2d;&#x2d;" horiz-adv-x="858" 
d="M765 323v-94h-590l169 -229h-119l-206 277l206 271h119l-169 -225h590z" />
    <glyph glyph-name=".notdef" horiz-adv-x="644" 
d="M644 0h-644v729h644v-729zM63 666v-604h518v604h-518zM518 125h-392v478h392v-478zM189 540v-351h266v351h-266zM252 252v225h140v-225h-140z" />
    <glyph glyph-name=".null" 
 />
    <glyph glyph-name="nonmarkingreturn" horiz-adv-x="333" 
 />
    <glyph glyph-name="CR" unicode="&#xd;" horiz-adv-x="171" 
 />
    <glyph glyph-name="space" unicode=" " horiz-adv-x="207" 
 />
    <glyph glyph-name="exclam" unicode="!" horiz-adv-x="310" 
d="M201 234h-90l-45 279v216h179v-216zM248 0h-186v165h186v-165z" />
    <glyph glyph-name="quotedbl" unicode="&#x22;" horiz-adv-x="557" 
d="M240 560l-41 -194h-76l-40 194v169h157v-169zM474 560l-40 -194h-76l-41 194v169h157v-169z" />
    <glyph glyph-name="numbersign" unicode="#" horiz-adv-x="703" 
d="M654 544v-76h-116v-182h116v-77h-116v-209h-81v209h-209v-209h-83v209h-117v77h117v182h-117v76h117v206h83v-206h209v206h81v-206h116zM248 286h209v182h-209v-182z" />
    <glyph glyph-name="dollar" unicode="$" horiz-adv-x="570" 
d="M543 258q0 -86 -55.5 -141t-151.5 -66v-63h-108v65q-92 14 -145.5 70t-53.5 138h177q0 -72 79 -72q69 0 69 44q-4 27 -14.5 35t-50.5 17l-78 19q-174 40 -174 192q0 78 51.5 132t139.5 68v66h108v-66q82 -13 130 -64.5t48 -124.5h-177q1 29 -14.5 42.5t-45.5 13.5
q-53 0 -53 -41q0 -28 24 -41q20 -9 42 -14l73 -15q180 -38 180 -194z" />
    <glyph glyph-name="percent" unicode="%" horiz-adv-x="899" 
d="M49 556q0 78 50 130q51 52 132 52q82 0 133 -52q51 -51 51 -132q0 -79 -52 -131q-51 -52 -132 -52q-79 0 -131 52q-51 53 -51 133zM258 0h-78l463 729h80zM158 557q0 -38 20 -62t53 -24t53.5 24t20.5 62q0 36 -20.5 58.5t-53.5 22.5q-32 0 -52.5 -22.5t-20.5 -58.5z
M482 175q0 79 51 130q51 52 132 52q83 0 132 -52q50 -53 50 -132t-51 -132q-50 -51 -131 -51q-79 0 -131 52t-52 133zM591 176q0 -38 20.5 -62t53.5 -24t54 24t21 62q0 36 -21 59t-54 23q-32 0 -53 -23t-21 -59z" />
    <glyph glyph-name="ampersand" unicode="&#x26;" horiz-adv-x="806" 
d="M577 399l148 -39q-28 -107 -98 -206l140 -154h-213l-43 47q-75 -57 -204 -57q-109 0 -177 50t-68 144q0 120 141 202v8q-51 45 -72 83t-21 81q0 82 61 131t164 49q101 0 160 -47.5t59 -125.5q0 -51 -30.5 -95t-96.5 -90v-8l99 -108q28 51 51 135zM277 562q0 -40 49 -88h8
q54 50 54 88q0 23 -15.5 36t-40.5 13t-40 -13.5t-15 -35.5zM242 212q0 -38 24.5 -59t66.5 -21q51 0 80 25l-120 131q-51 -32 -51 -76z" />
    <glyph glyph-name="quotesingle" unicode="'" horiz-adv-x="322" 
d="M240 560l-41 -194h-76l-40 194v169h157v-169z" />
    <glyph glyph-name="parenleft" unicode="(" horiz-adv-x="369" 
d="M50 321q0 140 61 263q62 126 162 190h98q-105 -67 -169 -191q-65 -125 -65 -262q0 -136 65 -263q67 -126 169 -190h-98q-101 64 -162 189q-61 123 -61 264z" />
    <glyph glyph-name="parenright" unicode=")" horiz-adv-x="354" 
d="M319 321q0 -138 -62 -264q-62 -125 -161 -189h-98q103 64 168 190q65 127 65 263q0 137 -65 262t-168 191h98q98 -63 161 -190q62 -126 62 -263z" />
    <glyph glyph-name="asterisk" unicode="*" horiz-adv-x="359" 
d="M67 466l-35 61l108 47l-108 47l35 60l92 -70l-13 118h68l-13 -119l91 71l36 -60l-108 -47l108 -47l-36 -61l-91 73l13 -119h-68l13 119z" />
    <glyph glyph-name="plus" unicode="+" horiz-adv-x="600" 
d="M554 265h-185v-188h-139v188h-184v135h184v191h139v-191h185v-135z" />
    <glyph glyph-name="comma" unicode="," horiz-adv-x="241" 
d="M34 -145v60q96 0 96 79v6h-78v165h161v-163q0 -69 -48.5 -108t-130.5 -39z" />
    <glyph glyph-name="hyphen" unicode="-" horiz-adv-x="478" 
d="M423 253h-369v94h369v-94z" />
    <glyph glyph-name="period" unicode="." horiz-adv-x="285" 
d="M223 0h-161v178h161v-178z" />
    <glyph glyph-name="slash" unicode="/" horiz-adv-x="351" 
d="M86 0h-90l268 729h91z" />
    <glyph glyph-name="zero" unicode="0" horiz-adv-x="636" 
d="M317 -6q-133 0 -206 99q-74 100 -74 271q0 173 77 270q76 96 206 96t204 -99q74 -98 74 -269q0 -174 -77 -272q-77 -96 -204 -96zM316 147q60 0 80 60q18 55 18 149q0 86 -14 139q-12 48 -31 65.5t-50 17.5q-40 0 -63 -29q-36 -46 -36 -179q0 -126 25 -175q26 -48 71 -48
z" />
    <glyph glyph-name="one" unicode="1" horiz-adv-x="477" 
d="M213 458h-189v134h31q71 0 117 35.5t52 93.5h165v-721h-176v458z" />
    <glyph glyph-name="two" unicode="2" horiz-adv-x="586" 
d="M387 154h171v-154h-528v24q-5 108 64 201q18 25 48 49q27 24 54 43q35 25 65 46q34 23 56 40q52 44 52 99q0 36 -21.5 56.5t-58.5 20.5q-41 0 -62.5 -26t-17.5 -74h-175q-3 115 70 182q74 69 195 69q114 0 183 -63q70 -61 70 -168q0 -73 -37 -129t-113 -109l-51 -34
q-68 -44 -103 -81q78 8 139 8z" />
    <glyph glyph-name="three" unicode="3" horiz-adv-x="620" 
d="M304 -10q-124 0 -196.5 63t-75.5 171h175q0 -39 26.5 -61.5t71.5 -22.5q44 0 69.5 23t25.5 62q0 35 -23 55.5t-60 20.5h-92v131h77q42 0 65 20t23 56q0 34 -23 53t-62 19q-41 0 -65.5 -21.5t-25.5 -58.5h-178q5 106 79 167q75 63 198 63q115 0 186 -54t71 -144
q0 -53 -26 -95t-71 -61v-7q51 -15 79.5 -57.5t28.5 -102.5q0 -97 -77 -159q-76 -60 -200 -60z" />
    <glyph glyph-name="four" unicode="4" horiz-adv-x="632" 
d="M530 721v-442h77v-143h-77v-136h-176v136h-323v131l258 454h241zM354 533l-145 -254h145v254z" />
    <glyph glyph-name="five" unicode="5" horiz-adv-x="615" 
d="M341 488q109 0 174 -68t65 -176q0 -114 -74 -185q-74 -69 -202 -69q-124 0 -198 65q-73 66 -73 173h178q0 -38 26 -61.5t68 -23.5q44 0 71 27t27 70q0 45 -27.5 73.5t-72.5 28.5q-71 0 -89 -58h-168l20 437h460v-153h-304l-6 -107l8 -3q40 30 117 30z" />
    <glyph glyph-name="six" unicode="6" horiz-adv-x="628" 
d="M323 -9q-139 0 -212 94.5t-73 272.5q0 183 76.5 277.5t216.5 94.5q104 0 170 -51.5t80 -140.5h-175q-15 46 -80 46q-55 0 -84 -42.5t-25 -114.5h8q41 62 142 62q102 0 165 -66t63 -175q0 -116 -74 -187q-73 -70 -198 -70zM326 143q43 0 68.5 27.5t25.5 74.5
q0 46 -25.5 74.5t-68.5 28.5q-42 0 -67.5 -29t-25.5 -75q0 -47 25.5 -74t67.5 -27z" />
    <glyph glyph-name="seven" unicode="7" horiz-adv-x="566" 
d="M152 455h-140v266h535v-128q-101 -135 -172 -289q-72 -154 -95 -304h-189q18 139 85 289q68 151 162 279h-186v-113z" />
    <glyph glyph-name="eight" unicode="8" horiz-adv-x="616" 
d="M35 193q0 117 101 164v8q-101 47 -101 163q0 90 75 146q76 56 199 56q122 0 198 -56q75 -56 75 -145q0 -55 -26.5 -98t-74.5 -66v-8q101 -49 101 -165q0 -92 -76 -147q-74 -55 -198 -55q-122 0 -198 56q-75 56 -75 147zM308 432q44 0 68.5 19.5t24.5 52.5q0 35 -25.5 55
t-67.5 20q-44 0 -68 -20.5t-24 -54.5t25 -53t67 -19zM216 216q0 -35 25 -54.5t67 -19.5q44 0 68.5 20t24.5 54q0 35 -25 54.5t-68 19.5t-67.5 -20t-24.5 -54z" />
    <glyph glyph-name="nine" unicode="9" horiz-adv-x="622" 
d="M290 -9q-101 0 -167.5 52t-79.5 140h175q13 -46 82 -46q56 0 83.5 42t22.5 115h-8q-41 -62 -139 -62q-103 0 -168 66q-63 66 -63 175q0 115 74 186t196 71q139 0 213 -98t74 -278q0 -363 -295 -363zM390 477q0 47 -25.5 74t-67.5 27q-43 0 -68.5 -27.5t-25.5 -74.5
q0 -46 25.5 -74.5t68.5 -28.5q42 0 67.5 29t25.5 75z" />
    <glyph glyph-name="colon" unicode=":" horiz-adv-x="285" 
d="M222 377h-161v164h161v-164zM222 0h-161v164h161v-164z" />
    <glyph glyph-name="semicolon" unicode=";" horiz-adv-x="264" 
d="M212 377h-161v164h161v-164zM34 -144v56q52 0 73.5 18.5t21.5 58.5v11h-78v164h161v-154q0 -154 -178 -154z" />
    <glyph glyph-name="less" unicode="&#x3c;" horiz-adv-x="514" 
d="M451 174v-166l-400 214v130l400 216v-161l-128 -60l-131 -56v-10l137 -53z" />
    <glyph glyph-name="equal" unicode="=" horiz-adv-x="537" 
d="M467 336h-398v141h398v-141zM467 117h-398v140h398v-140z" />
    <glyph glyph-name="greater" unicode="&#x3e;" horiz-adv-x="514" 
d="M463 222l-400 -214v166l121 54l139 53v10l-132 56l-128 60v161l400 -216v-130z" />
    <glyph glyph-name="question" unicode="?" horiz-adv-x="598" 
d="M369 217h-167v199q16 -9 67 -9q58 0 90 25.5t32 68.5q0 41 -26.5 64t-71.5 23q-40 0 -66.5 -18.5t-30.5 -50.5h-173q8 104 81.5 161.5t192.5 57.5q128 0 199 -63.5t71 -173.5q0 -83 -55 -144t-143 -77v-63zM370 0h-171v162h171v-162z" />
    <glyph glyph-name="at" unicode="@" horiz-adv-x="916" 
d="M55 316q0 189 115 305q116 117 302 117q176 0 285 -106q111 -106 111 -272q0 -118 -56 -189q-55 -70 -145 -70q-40 0 -72 20t-44 53h-7q-32 -68 -113 -68q-74 0 -115.5 54t-41.5 145q0 93 46 151q46 60 125 60q67 0 102 -48h6l13 36h65l-18 -240q-2 -37 9 -54.5t41 -17.5
q51 0 78.5 44.5t27.5 122.5q0 137 -82 213t-213 76q-149 0 -232 -92t-83 -235q0 -153 93 -243q95 -89 234 -89q126 0 237 53v-93q-102 -50 -241 -50q-188 0 -308 114q-119 114 -119 303zM370 304q0 -52 19.5 -80t50.5 -28q38 0 63.5 34t25.5 94q0 53 -20.5 80t-52.5 27
q-38 0 -62 -33.5t-24 -93.5z" />
    <glyph glyph-name="A" unicode="A" horiz-adv-x="727" 
d="M729 0h-205l-35 110h-263l-36 -110h-193l251 729h218zM294 321l-22 -68h172l-22 68l-58 211h-7z" />
    <glyph glyph-name="B" unicode="B" horiz-adv-x="719" 
d="M453 0h-384v729h384q97 0 157 -51t60 -135q0 -58 -27 -99.5t-76 -60.5v-9q60 -17 91.5 -62t31.5 -110q0 -91 -65 -147q-64 -55 -172 -55zM250 593v-154h144q38 0 61 21.5t23 58.5q0 35 -22.5 54.5t-61.5 19.5h-144zM250 306v-170h149q40 0 67.5 21.5t27.5 64.5
t-26.5 63.5t-68.5 20.5h-149z" />
    <glyph glyph-name="C" unicode="C" horiz-adv-x="755" 
d="M533 256h194q-14 -120 -106 -193t-228 -73q-167 0 -265 102q-98 103 -98 270q0 170 99 273q100 103 264 103q138 0 229 -73q91 -72 105 -191h-194q-13 47 -51 74.5t-90 27.5q-79 0 -122 -56.5t-43 -158.5q0 -101 42.5 -155t118.5 -54q55 0 94.5 28.5t50.5 75.5z" />
    <glyph glyph-name="D" unicode="D" horiz-adv-x="754" 
d="M384 0h-315v729h315q162 0 251 -99q88 -98 88 -266q0 -166 -89 -266q-89 -98 -250 -98zM255 570v-411h97q84 0 130 45t46 164q0 110 -43.5 156t-132.5 46h-97z" />
    <glyph glyph-name="E" unicode="E" horiz-adv-x="640" 
d="M595 0h-526v729h526v-159h-340v-117h288v-149h-288v-145h340v-159z" />
    <glyph glyph-name="F" unicode="F" horiz-adv-x="620" 
d="M255 0h-186v729h529v-159h-343v-171h303v-151h-303v-248z" />
    <glyph glyph-name="G" unicode="G" horiz-adv-x="802" 
d="M349 260v146h397v-406h-152l-8 87h-7q-28 -44 -88.5 -70.5t-135.5 -26.5q-148 0 -237 101q-88 100 -88 265q0 174 99 277q101 105 265 105q132 0 221 -66t103 -174h-194q-12 36 -47 57t-84 21q-80 0 -123 -57.5t-43 -159.5q0 -103 44 -157.5t121 -54.5q60 0 101 31t50 82
h-194z" />
    <glyph glyph-name="H" unicode="H" horiz-adv-x="809" 
d="M255 0h-186v729h186v-286h299v286h186v-729h-186v297h-299v-297z" />
    <glyph glyph-name="I" unicode="I" horiz-adv-x="324" 
d="M255 729v-729h-186v729h186z" />
    <glyph glyph-name="J" unicode="J" horiz-adv-x="427" 
d="M364 729v-498q0 -240 -247 -240q-61 0 -102 9v149q28 -5 60 -5q55 0 79 27.5t24 83.5v474h186z" />
    <glyph glyph-name="K" unicode="K" horiz-adv-x="743" 
d="M740 0h-226l-175 262l-84 -101v-161h-186v729h186v-306l245 306h230l-264 -316z" />
    <glyph glyph-name="L" unicode="L" horiz-adv-x="573" 
d="M536 0h-467v729h186v-564h281v-165z" />
    <glyph glyph-name="M" unicode="M" horiz-adv-x="919" 
d="M251 0h-182v729h229l159 -364h8l156 364h230v-729h-181v275l10 196h-7l-212 -461l-212 461h-9l11 -198v-273z" />
    <glyph glyph-name="N" unicode="N" horiz-adv-x="793" 
d="M255 0h-186v729h213l260 -463h8l-11 205v258h185v-729h-213l-258 458h-8l10 -198v-260z" />
    <glyph glyph-name="O" unicode="O" horiz-adv-x="780" 
d="M30 365q0 178 97 275q98 98 262 98q171 0 265 -102q95 -101 95 -271q0 -177 -98 -277q-98 -98 -262 -98q-170 0 -265 101q-94 101 -94 274zM227 365q0 -100 43.5 -156t118.5 -56q78 0 121 57t43 155t-44.5 154.5t-119.5 56.5q-76 0 -119 -57t-43 -154z" />
    <glyph glyph-name="P" unicode="P" horiz-adv-x="692" 
d="M69 729h333q124 0 197 -70q74 -71 74 -184q0 -115 -75 -185q-73 -70 -196 -70h-147v-220h-186v729zM255 378h120q100 0 100 94q0 92 -100 92h-120v-186z" />
    <glyph glyph-name="Q" unicode="Q" horiz-adv-x="780" 
d="M532 13q54 -30 137 -30q37 0 66 6v-162q-25 -3 -51 -3q-117 0 -195.5 43.5t-112.5 122.5q-164 4 -256 105q-90 102 -90 270q0 178 97 275q98 98 262 98q171 0 265 -102q95 -101 95 -271q0 -134 -56.5 -224.5t-160.5 -127.5zM227 365q0 -100 43.5 -156t118.5 -56
q78 0 121 57t43 155t-44.5 154.5t-119.5 56.5q-76 0 -119 -57t-43 -154z" />
    <glyph glyph-name="R" unicode="R" horiz-adv-x="737" 
d="M255 0h-186v729h375q111 0 172 -58.5t61 -162.5q0 -59 -29 -106.5t-78 -72.5v-8q97 -28 97 -146v-85q0 -62 12 -90h-192q-11 24 -11 90v59q0 46 -21.5 68t-73.5 22h-126v-239zM255 570v-173h126q47 0 72 23t25 65q0 85 -94 85h-129z" />
    <glyph glyph-name="S" unicode="S" horiz-adv-x="675" 
d="M23 230h193q2 -43 35.5 -67.5t90.5 -24.5q48 0 75.5 19t27.5 51q0 26 -20 44q-7 7 -22 11q-15 6 -41 11l-107 22l-50 11q-17 4 -55 21q-35 16 -58 36q-56 54 -56 140q0 105 80 170q79 64 212 64q130 0 209 -60q81 -61 82 -159h-193q-3 35 -31 54.5t-73 19.5
q-42 0 -65 -16t-23 -44q0 -23 25 -44q15 -9 33 -13q3 0 11 -2t15 -4l7 -1l113 -22q206 -39 206 -215q0 -115 -84 -179q-83 -63 -224 -63t-227 66q-84 65 -86 174z" />
    <glyph glyph-name="T" unicode="T" horiz-adv-x="581" 
d="M7 729h567v-161h-193v-568h-187v568h-187v161z" />
    <glyph glyph-name="U" unicode="U" horiz-adv-x="770" 
d="M63 282v447h185v-436q0 -66 35.5 -102t101.5 -36q64 0 100.5 36t36.5 102v436h186v-447q0 -137 -88 -215q-89 -77 -236 -77q-158 0 -239.5 77t-81.5 215z" />
    <glyph glyph-name="V" unicode="V" horiz-adv-x="745" 
d="M490 0h-234l-254 729h208l90 -291l68 -259h8l71 259l88 291h208z" />
    <glyph glyph-name="W" unicode="W" horiz-adv-x="1009" 
d="M154 0l-148 729h206l56 -344l25 -181h8l91 525h228l94 -527h8l22 180l54 347h205l-148 -729h-254l-91 476h-8l-93 -476h-255z" />
    <glyph glyph-name="X" unicode="X" horiz-adv-x="728" 
d="M245 0h-229l201 363l-215 367h233l68 -133l59 -126h8l55 124l65 135h229l-205 -367l213 -363h-233l-55 105l-69 141h-7l-67 -142z" />
    <glyph glyph-name="Y" unicode="Y" horiz-adv-x="728" 
d="M270 273l-270 456h220l65 -138l75 -154h7l75 151l67 141h219l-271 -456v-273h-187v273z" />
    <glyph glyph-name="Z" unicode="Z" horiz-adv-x="590" 
d="M20 729h547v-152l-317 -418h311v-159h-541v153l314 416h-314v160z" />
    <glyph glyph-name="bracketleft" unicode="[" horiz-adv-x="310" 
d="M284 -238h-197v1033h197v-75h-116v-887h116v-71z" />
    <glyph glyph-name="backslash" unicode="\" horiz-adv-x="352" 
d="M87 729l268 -729h-90l-269 729h91z" />
    <glyph glyph-name="bracketright" unicode="]" horiz-adv-x="310" 
d="M222 -238h-197v71h117v887h-117v75h197v-1033z" />
    <glyph glyph-name="asciicircum" unicode="^" horiz-adv-x="460" 
d="M439 469h-134l-74 126l-76 -126h-134l154 260h111z" />
    <glyph glyph-name="underscore" unicode="_" horiz-adv-x="355" 
d="M357 -89h-359v89h359v-89z" />
    <glyph glyph-name="grave" unicode="`" horiz-adv-x="412" 
d="M338 797l-51 -84l-243 135l71 116z" />
    <glyph glyph-name="a" unicode="a" horiz-adv-x="589" 
d="M18 148q0 83 59 130.5t159 47.5h116v28q0 30 -17.5 46.5t-48.5 16.5q-32 0 -51.5 -15.5t-21.5 -40.5h-173q8 89 76 139.5t176 50.5q115 0 175.5 -53.5t60.5 -148.5v-198q0 -31 24 -31q8 0 16 2v-120q-49 -11 -86 -11q-110 0 -120 88h-8q-13 -41 -57 -65t-104 -24
q-80 0 -127.5 42.5t-47.5 115.5zM195 171q0 -24 17.5 -37t47.5 -13q44 0 68 23t24 65v15h-85q-36 0 -54 -15t-18 -38z" />
    <glyph glyph-name="b" unicode="b" horiz-adv-x="654" 
d="M205 0h-152v748h176v-305h9q19 51 63.5 79.5t108.5 28.5q102 0 161 -74.5t59 -206.5q0 -130 -57.5 -205t-157.5 -75q-61 0 -107.5 28t-69.5 79h-9zM229 283v-27q0 -59 29.5 -91.5t80.5 -32.5q54 0 83 36t29 102q0 68 -30 103.5t-82 35.5q-53 0 -81.5 -33.5t-28.5 -92.5z
" />
    <glyph glyph-name="c" unicode="c" horiz-adv-x="573" 
d="M379 204h174q-5 -98 -76 -156q-70 -58 -180 -58q-123 0 -198 77q-75 78 -75 204q0 127 75 203q77 77 200 77q107 0 177 -58q71 -59 77 -155h-173q-12 70 -83 70q-95 0 -95 -138q0 -137 94 -137q36 0 57.5 19t25.5 52z" />
    <glyph glyph-name="d" unicode="d" horiz-adv-x="655" 
d="M602 748v-748h-153l-23 97h-10q-23 -51 -69.5 -79t-105.5 -28q-101 0 -159 74.5t-58 203.5q0 132 58.5 207.5t158.5 75.5q64 0 109 -30t66 -83h10v310h176zM426 256v27q0 60 -30.5 93t-82.5 33q-53 0 -81.5 -37t-28.5 -102q0 -68 28.5 -103t79.5 -35q55 0 85 33t30 91z
" />
    <glyph glyph-name="e" unicode="e" horiz-adv-x="581" 
d="M298 -10q-123 0 -199 76q-75 76 -75 203q0 128 74 205q75 77 197 77q117 0 188 -68t71 -178q0 -42 -8 -76h-347q-2 -50 24 -78.5t72 -28.5q32 0 57 14.5t32 37.5h173q-14 -83 -86 -134q-71 -50 -173 -50zM201 342h177q-1 36 -25 57t-64 21q-39 0 -62.5 -21t-25.5 -57z
" />
    <glyph glyph-name="f" unicode="f" horiz-adv-x="408" 
d="M401 541v-142h-115v-399h-176v399h-103v142h103v25q0 94 55.5 142.5t155.5 48.5q47 0 80 -10v-137q-25 5 -42 5q-73 0 -73 -60v-14h115z" />
    <glyph glyph-name="g" unicode="g" horiz-adv-x="569" 
d="M8 -67q0 37 23 65t60 36v8q-29 10 -45.5 33t-16.5 51q0 73 83 102v8q-83 45 -83 139q0 80 62 128q61 48 164 48q48 0 79 -10q17 54 69.5 87t122.5 33v-132q-70 0 -93 -30q63 -49 63 -129q0 -79 -61 -127q-62 -47 -162 -47q-37 0 -64 6q-21 -10 -21 -30q0 -19 15 -25.5
t48 -6.5h113q90 0 139 -42.5t49 -117.5q0 -175 -299 -175q-120 0 -182.5 33.5t-62.5 94.5zM200 374q0 -27 17.5 -43t45.5 -16q29 0 46 16t17 43t-17 43t-46 16q-28 0 -45.5 -16.5t-17.5 -42.5zM172 -31q0 -41 91 -41q114 0 114 46q0 30 -43 30h-112q-50 0 -50 -35z" />
    <glyph glyph-name="h" unicode="h" horiz-adv-x="647" 
d="M229 0h-176v748h176v-304h9q50 107 176 107q92 0 139 -60.5t47 -168.5v-322h-177v304q0 104 -90 104q-50 0 -77 -32t-27 -87v-289z" />
    <glyph glyph-name="i" unicode="i" horiz-adv-x="281" 
d="M229 585h-176v161h176v-161zM229 0h-176v541h176v-541z" />
    <glyph glyph-name="j" unicode="j" horiz-adv-x="282" 
d="M229 585h-176v161h176v-161zM25 -176q-43 0 -73 6v137q10 -2 28 -2q40 0 59 23q7 7 10 22q4 17 4 39v492h176v-521q0 -95 -54.5 -145.5t-149.5 -50.5z" />
    <glyph glyph-name="k" unicode="k" horiz-adv-x="619" 
d="M624 0h-200l-132 205l-61 -64v-141h-178v748h178v-388l166 181h216l-201 -210z" />
    <glyph glyph-name="l" unicode="l" horiz-adv-x="281" 
d="M229 0h-176v748h176v-748z" />
    <glyph glyph-name="m" unicode="m" horiz-adv-x="944" 
d="M229 0h-176v541h153l22 -99h10q24 57 59 83t91 26q114 0 155 -108h11q50 108 166 108q87 0 132 -61t45 -169v-321h-176v303q0 105 -72 105q-42 0 -64.5 -27.5t-22.5 -73.5v-307h-176v307q0 101 -73 101q-39 0 -61.5 -26t-22.5 -71v-311z" />
    <glyph glyph-name="n" unicode="n" horiz-adv-x="646" 
d="M229 0h-176v541h154l22 -99h9q49 109 176 109q92 0 138.5 -60t46.5 -170v-321h-176v303q0 105 -90 105q-49 0 -76.5 -33t-27.5 -89v-286z" />
    <glyph glyph-name="o" unicode="o" horiz-adv-x="597" 
d="M24 271q0 124 75 202q77 78 200 78t198 -78q76 -77 76 -203q0 -125 -76 -202q-75 -77 -198 -77t-200 77q-75 78 -75 203zM202 270q0 -62 26.5 -99t69.5 -37q45 0 70.5 37t25.5 100t-26 100t-71 37q-44 0 -69.5 -37.5t-25.5 -100.5z" />
    <glyph glyph-name="p" unicode="p" horiz-adv-x="654" 
d="M53 -167v708h152l24 -100h9q22 51 69 80.5t105 29.5q102 0 160 -75.5t58 -205.5q0 -131 -58.5 -205.5t-158.5 -74.5q-64 0 -110.5 29t-64.5 78h-9v-264h-176zM229 282v-24q0 -57 29.5 -91.5t80.5 -34.5q54 0 83 37.5t29 102.5t-29.5 101t-80.5 36t-81.5 -35t-30.5 -92z
" />
    <glyph glyph-name="q" unicode="q" horiz-adv-x="655" 
d="M449 541h153v-708h-176v264h-10q-21 -51 -66 -79t-109 -28q-100 0 -158.5 74t-58.5 206q0 130 57 205q58 76 159 76q59 0 106 -29t70 -81h10zM426 258v24q0 56 -31.5 91.5t-82.5 35.5q-52 0 -80.5 -35t-28.5 -101q0 -65 28 -103t82 -38q51 0 82 34.5t31 91.5z" />
    <glyph glyph-name="r" unicode="r" horiz-adv-x="405" 
d="M229 0h-176v541h153l22 -100h7q38 110 165 110v-152q-86 2 -128.5 -43t-42.5 -132v-224z" />
    <glyph glyph-name="s" unicode="s" horiz-adv-x="541" 
d="M25 172h173q2 -59 75 -59q64 0 64 42q-3 23 -14.5 30.5t-36.5 10.5l-89 15q-164 29 -164 161q0 84 62 131.5t170 47.5q106 0 168.5 -46.5t65.5 -125.5h-173q0 49 -64 49q-53 0 -53 -40q0 -22 15 -30.5t48 -12.5l89 -14q155 -24 155 -158q0 -86 -65.5 -134.5t-178.5 -48.5
q-115 0 -181 50t-66 132z" />
    <glyph glyph-name="t" unicode="t" horiz-adv-x="406" 
d="M5 399v142h85v123l176 68v-191h114v-142h-114v-202q0 -36 14.5 -51.5t46.5 -15.5q31 0 53 5v-135q-50 -10 -107 -10q-90 0 -136 39q-19 16 -30 43q-17 41 -17 102v225h-85z" />
    <glyph glyph-name="u" unicode="u" horiz-adv-x="636" 
d="M412 541h176v-541h-155l-22 99h-10q-51 -109 -172 -109q-89 0 -135.5 56.5t-46.5 158.5v336h177v-308q0 -100 86 -100q47 0 74.5 33.5t27.5 88.5v286z" />
    <glyph glyph-name="v" unicode="v" horiz-adv-x="559" 
d="M170 0l-179 541h190l50 -204l45 -190h6l96 394h190l-178 -541h-220z" />
    <glyph glyph-name="w" unicode="w" horiz-adv-x="812" 
d="M594 336l43 205h171l-134 -541h-214l-37 212l-17 105h-6l-17 -104l-37 -213h-209l-133 541h170l39 -203l30 -162h8l60 365h191l57 -367h6z" />
    <glyph glyph-name="x" unicode="x" horiz-adv-x="542" 
d="M175 0h-180l177 269l-174 272h181l94 -163h8l94 163h179l-171 -272l174 -269h-185l-94 154h-8z" />
    <glyph glyph-name="y" unicode="y" horiz-adv-x="543" 
d="M186 41l-199 500h188l54 -188l40 -149h8l39 149l52 188h183l-192 -552q-32 -91 -93.5 -128.5t-168.5 -37.5q-41 0 -76 7v140q21 -4 61 -4q83 0 98 53z" />
    <glyph glyph-name="z" unicode="z" horiz-adv-x="500" 
d="M463 417l-214 -276h219v-141h-433v126l213 273h-216v142h431v-124z" />
    <glyph glyph-name="braceleft" unicode="{" horiz-adv-x="341" 
d="M54 242v77q72 0 72 76v309q0 42 23.5 66.5t67.5 24.5h99v-75h-107v-319q0 -102 -79 -116v-3q79 -21 79 -118v-331h107v-71h-99q-43 0 -67 24t-24 67v316q0 73 -72 73z" />
    <glyph glyph-name="bar" unicode="|" horiz-adv-x="298" 
d="M219 -55h-145v808h145v-808z" />
    <glyph glyph-name="braceright" unicode="}" horiz-adv-x="341" 
d="M286 319v-77q-73 0 -73 -73v-316q0 -43 -22.5 -67t-66.5 -24h-99v71h105v331q0 97 81 118v3q-81 15 -81 116v319h-105v75h99q42 0 65.5 -24.5t23.5 -66.5v-309q0 -35 19 -55.5t54 -20.5z" />
    <glyph glyph-name="asciitilde" unicode="~" horiz-adv-x="449" 
d="M100 256h-78q-6 88 27 132t91 44q39 0 89 -31q53 -30 80 -30q54 0 54 66h77q6 -92 -31 -135t-90 -43q-42 0 -102 31t-75 31q-23 0 -34 -18.5t-8 -46.5z" />
    <glyph glyph-name="uni00A0" unicode="&#xa0;" horiz-adv-x="207" 
 />
    <glyph glyph-name="exclamdown" unicode="&#xa1;" horiz-adv-x="310" 
d="M62 563v166h186v-166h-186zM66 216l45 279h90l44 -279v-216h-179v216z" />
    <glyph glyph-name="cent" unicode="&#xa2;" horiz-adv-x="557" 
d="M270 247q28 0 47.5 16t24.5 43h172q-6 -78 -57.5 -130t-132.5 -65v-81h-108v82q-92 16 -143.5 82t-51.5 170q0 102 52 169t143 84v82h108v-81q83 -13 134.5 -65t58.5 -130h-174q-4 28 -24 44t-49 16q-78 0 -78 -119q0 -117 78 -117z" />
    <glyph glyph-name="sterling" unicode="&#xa3;" horiz-adv-x="656" 
d="M459 150v89h150v-239h-594v150h66v147h-66v140h66v67q0 107 69 170q68 64 184 64q104 0 172 -57q67 -57 73 -150h-181q-10 51 -66 51q-70 0 -70 -78v-67h220v-140h-220v-147h197z" />
    <glyph glyph-name="currency" unicode="&#xa4;" horiz-adv-x="595" 
d="M105 50l-81 83l80 74q-47 63 -46.5 131.5t46.5 132.5l-81 74l82 84l74 -85q125 71 242 3l71 82l80 -85l-73 -69q44 -62 44.5 -130.5t-46.5 -141.5l76 -71l-79 -82l-72 84q-126 -71 -242 3zM211 339q0 -40 25 -67t63 -28q39 1 64.5 28t25.5 68q0 42 -25.5 68t-64.5 26
q-38 0 -63.5 -27.5t-24.5 -67.5z" />
    <glyph glyph-name="yen" unicode="&#xa5;" horiz-adv-x="710" 
d="M493 729h217l-183 -323h63v-140h-142v-43h142v-140h-142v-83h-185v83h-141v140h141v43h-141v140h61l-183 323h219l89 -195l42 -110h8l44 110z" />
    <glyph glyph-name="brokenbar" unicode="&#xa6;" horiz-adv-x="298" 
d="M219 381h-145v372h145v-372zM219 -62h-145v360h145v-360z" />
    <glyph glyph-name="section" unicode="&#xa7;" horiz-adv-x="577" 
d="M34 325q0 53 32 87t87 43v9q-83 30 -83 112q0 72 62.5 117t169.5 45q96 0 157 -44q61 -43 63 -116h-181q-3 30 -41 30q-32 0 -32 -24q0 -5 1 -8.5t4 -6.5t4.5 -5t7 -4.5t7.5 -3t9.5 -3t9.5 -3.5l84 -29q50 -17 78 -33q64 -36 69 -118q0 -89 -85 -125v-10q34 -11 54.5 -45
t20.5 -76q0 -76 -66 -122q-65 -46 -175 -46q-102 0 -165 41.5t-69 113.5h189q4 -28 40 -28q46 0 46 33q0 14 -10 21.5t-36 16.5l-132 43q-120 41 -120 138zM223 368q0 -29 43 -44l53 -21l40 -14q9 17 9 33t-10 26q-12 15 -43 25l-34 14l-43 16q-15 -12 -15 -35z" />
    <glyph glyph-name="dieresis" unicode="&#xa8;" horiz-adv-x="427" 
d="M167 731h-133v156h133v-156zM384 731h-133v156h133v-156z" />
    <glyph glyph-name="copyright" unicode="&#xa9;" horiz-adv-x="955" 
d="M479 -81q-110 0 -207 52q-95 52 -157 150q-60 97 -60 221q0 122 60 220q60 97 155.5 149t208.5 52q111 0 206 -52q97 -52 155 -148q60 -97 60 -219q0 -120 -59 -220q-57 -97 -153.5 -151t-208.5 -54zM479 -41q157 0 267 107q110 108 110 278q0 166 -110 273t-267 107
t-269 -107q-111 -107 -111 -275q0 -167 111 -275t269 -108zM486 108q-105 0 -172 67t-67 167t67 166q67 67 171 67q91 0 156 -53q66 -52 67 -130h-110q-4 38 -35 61.5t-77 23.5q-59 0 -93.5 -38t-34.5 -99q0 -60 33.5 -97t92.5 -37q46 0 78 22.5t36 60.5h110
q-5 -82 -69 -131q-65 -50 -153 -50z" />
    <glyph glyph-name="ordfeminine" unicode="&#xaa;" horiz-adv-x="463" 
d="M417 442q11 0 12 1v-97q-22 -8 -56 -8q-42 0 -66.5 20.5t-26.5 57.5h-3q-23 -77 -117 -77q-54 0 -87 31.5t-33 82.5q0 57 39.5 90t108.5 33h76v12q0 40 -49 40q-41 0 -46 -30h-125q4 59 52 95t128 36q82 0 125 -39.5t43 -107.5v-114q0 -26 25 -26zM264 485v11h-53
q-45 0 -45 -32q0 -29 41 -29q25 0 41 14t16 36z" />
    <glyph glyph-name="guillemotleft" unicode="&#xab;" horiz-adv-x="571" 
d="M153 56l-120 218l120 216h148l-107 -216l107 -218h-148zM397 56l-118 218l118 216h151l-109 -216l109 -218h-151z" />
    <glyph glyph-name="logicalnot" unicode="&#xac;" horiz-adv-x="569" 
d="M521 141h-134v146h-341v138h475v-284z" />
    <glyph glyph-name="registered" unicode="&#xae;" horiz-adv-x="613" 
d="M39 473q0 118 76 191q77 74 191 74q115 0 192 -74t77 -191q0 -116 -78 -191q-77 -74 -191 -74t-191 74q-76 75 -76 191zM306 248q96 0 161 63q66 63 66 163t-66 164q-64 64 -161 64q-94 0 -161 -65q-65 -65 -65 -164t65 -162q66 -63 161 -63zM271 363h-62v235h120
q38 0 58 -18.5t20 -49.5q0 -41 -34 -60v-1q31 -12 31 -48v-28q0 -22 4 -30h-63q-4 7 -4 29v18q0 30 -30 30h-40v-77zM271 547v-59h39q31 0 31 30q0 29 -32 29h-38z" />
    <glyph glyph-name="overscore" unicode="&#xaf;" horiz-adv-x="357" 
d="M367 727h-376v132h376v-132z" />
    <glyph glyph-name="degree" unicode="&#xb0;" horiz-adv-x="430" 
d="M380 571q0 -69 -47 -116q-46 -46 -119 -46q-72 0 -118 46t-46 116q0 72 46 117.5t118 45.5q73 0 119 -46q47 -45 47 -117zM263 571q2 32 -23.5 46t-51 0t-22.5 -46q0 -21 14 -36.5t34 -15.5q21 0 35 15.5t14 36.5z" />
    <glyph glyph-name="plusminus" unicode="&#xb1;" horiz-adv-x="602" 
d="M556 324h-187v-149h-138v149h-185v134h185v146h138v-146h187v-134zM556 0h-510v135h510v-135z" />
    <glyph glyph-name="uni00B2" unicode="&#xb2;" horiz-adv-x="459" 
d="M201 412l66 3h163v-115h-392v19q0 119 89 197q16 14 54 43.5t56.5 45.5t35.5 41.5t17 49.5q0 28 -17.5 44t-47.5 16q-33 0 -51 -21t-15 -57h-133q2 89 57.5 140t146.5 51q90 0 144 -48t54 -126q0 -49 -26 -94t-64 -73q-15 -11 -76 -59q-41 -31 -61 -57z" />
    <glyph glyph-name="uni00B3" unicode="&#xb3;" horiz-adv-x="475" 
d="M237 292q-94 0 -149 49q-56 50 -55 129h133q-1 -28 19.5 -46.5t55.5 -18.5q33 0 52.5 18.5t19.5 49.5q0 62 -79 62h-62v104h49q79 0 79 61q0 26 -17.5 41t-47.5 15q-34 0 -53.5 -17.5t-17.5 -45.5h-133q-5 80 53 128q57 48 154 48q88 0 142 -42q55 -42 55 -110
q0 -85 -75 -119v-5q88 -36 88 -134q0 -74 -59 -121q-58 -46 -152 -46z" />
    <glyph glyph-name="acute" unicode="&#xb4;" horiz-adv-x="412" 
d="M371 844l-243 -136l-51 85l223 167z" />
    <glyph glyph-name="paragraph" unicode="&#xb6;" horiz-adv-x="683" 
d="M262 729h366v-107h-64v-626q0 -83 -45.5 -125.5t-129.5 -42.5h-275v98h135v396q-102 0 -160 55t-58 143q0 98 62.5 153.5t168.5 55.5zM364 -74h16q67 0 67 63v633h-83v-696z" />
    <glyph glyph-name="middot" unicode="&#xb7;" horiz-adv-x="349" 
d="M62 283q0 49 33 83t79 34q47 0 80 -35q33 -34 33 -82q0 -47 -33 -81t-80 -34q-46 0 -79 33q-33 34 -33 82z" />
    <glyph glyph-name="cedilla" unicode="&#xb8;" horiz-adv-x="504" 
d="M308 14l-29 -54q33 1 67 -20q33 -22 33 -67q0 -39 -23 -66.5t-57.5 -37.5t-74 -6.5t-71.5 20.5v80q44 -27 80 -20q38 6 38 42q0 24 -27 32.5t-54 -6.5v40l51 85h67v-22z" />
    <glyph glyph-name="uni00B9" unicode="&#xb9;" horiz-adv-x="347" 
d="M152 661h-147v101h25q54 0 90 27.5t39 72.5h124v-562h-131v361z" />
    <glyph glyph-name="ordmasculine" unicode="&#xba;" horiz-adv-x="478" 
d="M239 729q88 0 140 -55q53 -55 53 -141q0 -85 -54 -139q-52 -54 -139 -54q-86 0 -140 54q-53 55 -53 140t53 140q54 55 140 55zM175 534q0 -42 17.5 -67t46.5 -25q30 0 47 26t17 67t-17.5 66t-47.5 25t-46.5 -25t-16.5 -67z" />
    <glyph glyph-name="guillemotright" unicode="&#xbb;" horiz-adv-x="571" 
d="M174 490l118 -216l-118 -218h-150l108 218l-108 216h150zM419 490l118 -216l-118 -218h-151l109 218l-109 216h151z" />
    <glyph glyph-name="onequarter" unicode="&#xbc;" horiz-adv-x="918" 
d="M174 -46l414 814h133l-415 -814h-132zM257 729v-473h-110v301h-125v87h45q42 0 64.5 21.5t22.5 60.5v3h103zM876 480v-301h46v-96h-46v-83h-108v83h-207v88l152 309h163zM768 356l-86 -177h86v177z" />
    <glyph glyph-name="onehalf" unicode="&#xbd;" horiz-adv-x="960" 
d="M174 -46l414 814h133l-415 -814h-132zM257 729v-473h-110v301h-125v87h45q42 0 64.5 21.5t22.5 60.5v3h103zM742 92l56 3h125v-95h-316v16q0 102 74 167q15 13 46 38t46.5 39t29.5 36t14 42q0 26 -15 40.5t-39 14.5q-28 0 -42.5 -19t-12.5 -50l-110 6q2 70 49.5 113
t122.5 43q74 0 116 -40.5t42 -107.5q0 -42 -21.5 -81t-53.5 -64l-62 -51q-35 -29 -49 -50z" />
    <glyph glyph-name="threequarters" unicode="&#xbe;" horiz-adv-x="975" 
d="M234 -46l414 814h133l-415 -814h-132zM349 389q0 -63 -46.5 -102t-118.5 -39q-74 0 -120 41t-45 108h109q1 -23 16 -38.5t38 -15.5q24 0 39.5 15t15.5 38t-16.5 37t-41.5 14h-44v98h30q29 0 45 13.5t16 37.5q0 44 -48 44q-25 0 -39 -15t-13 -39h-110q-2 67 42.5 108
t122.5 41q72 0 114.5 -35.5t42.5 -92.5q0 -72 -64 -100v-5q75 -30 75 -113zM935 480v-301h46v-96h-46v-83h-108v83h-207v88l152 309h163zM827 356l-86 -177h86v177z" />
    <glyph glyph-name="questiondown" unicode="&#xbf;" horiz-adv-x="598" 
d="M228 729h171v-162h-171v162zM229 512h167v-199q-16 9 -67 9q-58 0 -90 -25.5t-32 -68.5q0 -41 26.5 -64t71.5 -23q40 0 66.5 18.5t30.5 50.5h173q-8 -104 -81.5 -161.5t-192.5 -57.5q-128 0 -199 63.5t-71 173.5q0 82 55 143q56 62 143 78v63z" />
    <glyph glyph-name="Agrave" unicode="&#xc0;" horiz-adv-x="727" 
d="M185 1016l223 -167l-51 -84l-243 135zM729 0h-205l-35 110h-263l-36 -110h-193l251 729h218zM294 321l-22 -68h172l-22 68l-58 211h-7z" />
    <glyph glyph-name="Aacute" unicode="&#xc1;" horiz-adv-x="727" 
d="M528 1012l71 -116l-243 -136l-51 85zM729 0h-205l-35 110h-263l-36 -110h-193l251 729h218zM294 321l-22 -68h172l-22 68l-58 211h-7z" />
    <glyph glyph-name="Acircumflex" unicode="&#xc2;" horiz-adv-x="727" 
d="M470 764l-113 122l-114 -122l-82 81l147 142h97l148 -142zM729 0h-205l-35 110h-263l-36 -110h-193l251 729h218zM294 321l-22 -68h172l-22 68l-58 211h-7z" />
    <glyph glyph-name="Atilde" unicode="&#xc3;" horiz-adv-x="727" 
d="M296 812q-28 0 -63 -38l-69 46q44 112 132 111q31 0 66 -19t59 -19q38 0 57 35l3 4l71 -44q-41 -116 -132 -116q-30 2 -65 20q-38 20 -59 20zM729 0h-205l-35 110h-263l-36 -110h-193l251 729h218zM294 321l-22 -68h172l-22 68l-58 211h-7z" />
    <glyph glyph-name="Adieresis" unicode="&#xc4;" horiz-adv-x="727" 
d="M181 932h133v-156h-133v156zM398 932h133v-156h-133v156zM729 0h-205l-35 110h-263l-36 -110h-193l251 729h218zM294 321l-22 -68h172l-22 68l-58 211h-7z" />
    <glyph glyph-name="Aring" unicode="&#xc5;" horiz-adv-x="727" 
d="M729 0h-205l-35 110h-263l-36 -110h-193l251 729h8q-33 35 -33 88q0 57 37.5 92.5t96.5 35.5t96.5 -35.5t37.5 -92.5q0 -53 -33 -88h8zM316 817q-3 -28 19 -39.5t44.5 0t19.5 39.5q3 28 -19.5 40t-44.5 0t-19 -40zM294 321l-22 -68h172l-22 68l-58 211h-7z" />
    <glyph glyph-name="AE" unicode="&#xc6;" horiz-adv-x="999" 
d="M955 729v-159h-328v-134h275v-148h-275v-129h328v-159h-515v152h-206l-44 -152h-193l225 729h733zM275 295h165v275h-86z" />
    <glyph glyph-name="Ccedilla" unicode="&#xc7;" horiz-adv-x="755" 
d="M388 152q55 0 94.5 28.5t50.5 75.5h194q-14 -120 -106 -193t-228 -73l-17 -31q33 1 67 -20q33 -22 33 -67q0 -39 -23 -66.5t-57.5 -37.5t-74 -6.5t-71.5 20.5v80q44 -27 81 -20q37 6 37 42q0 24 -27 32.5t-54 -6.5v40l28 47q-132 22 -209 120q-76 97 -76 245
q0 170 99 273q100 103 264 103q138 0 229 -73q91 -72 105 -191h-194q-13 47 -51 74.5t-90 27.5q-79 0 -122 -56.5t-43 -158.5q0 -101 42.5 -155t118.5 -54z" />
    <glyph glyph-name="Egrave" unicode="&#xc8;" horiz-adv-x="640" 
d="M381 849l-51 -84l-243 135l71 116zM595 0h-526v729h526v-159h-340v-117h288v-149h-288v-145h340v-159z" />
    <glyph glyph-name="Eacute" unicode="&#xc9;" horiz-adv-x="640" 
d="M573 896l-243 -136l-51 85l223 167zM595 0h-526v729h526v-159h-340v-117h288v-149h-288v-145h340v-159z" />
    <glyph glyph-name="Ecircumflex" unicode="&#xca;" horiz-adv-x="640" 
d="M216 764l-82 81l147 142h97l148 -142l-83 -81l-113 122zM595 0h-526v729h526v-159h-340v-117h288v-149h-288v-145h340v-159z" />
    <glyph glyph-name="Edieresis" unicode="&#xcb;" horiz-adv-x="640" 
d="M288 776h-133v156h133v-156zM505 776h-133v156h133v-156zM595 0h-526v729h526v-159h-340v-117h288v-149h-288v-145h340v-159z" />
    <glyph glyph-name="Igrave" unicode="&#xcc;" horiz-adv-x="324" 
d="M213 849l-51 -84l-243 135l71 116zM255 729v-729h-186v729h186z" />
    <glyph glyph-name="Iacute" unicode="&#xcd;" horiz-adv-x="324" 
d="M405 896l-243 -136l-51 85l223 167zM255 729v-729h-186v729h186z" />
    <glyph glyph-name="Icircumflex" unicode="&#xce;" horiz-adv-x="324" 
d="M49 764l-82 81l147 142h97l148 -142l-83 -81l-113 122zM255 729v-729h-186v729h186z" />
    <glyph glyph-name="Idieresis" unicode="&#xcf;" horiz-adv-x="324" 
d="M120 776h-133v156h133v-156zM337 776h-133v156h133v-156zM255 729v-729h-186v729h186z" />
    <glyph glyph-name="Eth" unicode="&#xd0;" horiz-adv-x="754" 
d="M69 729h315q162 0 251 -99q88 -98 88 -266q0 -166 -89 -266q-89 -98 -250 -98h-315v308h-93v126h93v295zM255 159h97q84 0 130 45t46 164q0 110 -43.5 156t-132.5 46h-97v-136h90v-126h-90v-149z" />
    <glyph glyph-name="Ntilde" unicode="&#xd1;" horiz-adv-x="793" 
d="M454 772q-30 2 -65 20q-38 20 -59 20q-28 0 -63 -38l-69 46q44 112 132 111q31 0 66 -19t59 -19q38 0 57 35l3 4l71 -44q-41 -116 -132 -116zM255 0h-186v729h213l260 -463h8l-11 205v258h185v-729h-213l-258 458h-8l10 -198v-260z" />
    <glyph glyph-name="Ograve" unicode="&#xd2;" horiz-adv-x="780" 
d="M440 849l-51 -84l-243 135l71 116zM30 365q0 178 97 275q98 98 262 98q171 0 265 -102q95 -101 95 -271q0 -177 -98 -277q-98 -98 -262 -98q-170 0 -265 101q-94 101 -94 274zM227 365q0 -100 43.5 -156t118.5 -56q78 0 121 57t43 155t-44.5 154.5t-119.5 56.5
q-76 0 -119 -57t-43 -154z" />
    <glyph glyph-name="Oacute" unicode="&#xd3;" horiz-adv-x="780" 
d="M632 896l-243 -136l-51 85l223 167zM30 365q0 178 97 275q98 98 262 98q171 0 265 -102q95 -101 95 -271q0 -177 -98 -277q-98 -98 -262 -98q-170 0 -265 101q-94 101 -94 274zM227 365q0 -100 43.5 -156t118.5 -56q78 0 121 57t43 155t-44.5 154.5t-119.5 56.5
q-76 0 -119 -57t-43 -154z" />
    <glyph glyph-name="Ocircumflex" unicode="&#xd4;" horiz-adv-x="780" 
d="M276 764l-82 81l147 142h97l148 -142l-83 -81l-113 122zM30 365q0 178 97 275q98 98 262 98q171 0 265 -102q95 -101 95 -271q0 -177 -98 -277q-98 -98 -262 -98q-170 0 -265 101q-94 101 -94 274zM227 365q0 -100 43.5 -156t118.5 -56q78 0 121 57t43 155t-44.5 154.5
t-119.5 56.5q-76 0 -119 -57t-43 -154z" />
    <glyph glyph-name="Otilde" unicode="&#xd5;" horiz-adv-x="780" 
d="M452 772q-30 2 -65 20q-38 20 -59 20q-28 0 -63 -38l-69 46q44 112 132 111q31 0 66 -19t59 -19q38 0 57 35l3 4l71 -44q-41 -116 -132 -116zM30 365q0 178 97 275q98 98 262 98q171 0 265 -102q95 -101 95 -271q0 -177 -98 -277q-98 -98 -262 -98q-170 0 -265 101
q-94 101 -94 274zM227 365q0 -100 43.5 -156t118.5 -56q78 0 121 57t43 155t-44.5 154.5t-119.5 56.5q-76 0 -119 -57t-43 -154z" />
    <glyph glyph-name="Odieresis" unicode="&#xd6;" horiz-adv-x="780" 
d="M347 776h-133v156h133v-156zM564 776h-133v156h133v-156zM30 365q0 178 97 275q98 98 262 98q171 0 265 -102q95 -101 95 -271q0 -177 -98 -277q-98 -98 -262 -98q-170 0 -265 101q-94 101 -94 274zM227 365q0 -100 43.5 -156t118.5 -56q78 0 121 57t43 155t-44.5 154.5
t-119.5 56.5q-76 0 -119 -57t-43 -154z" />
    <glyph glyph-name="multiply" unicode="&#xd7;" horiz-adv-x="659" 
d="M145 4l-104 107l183 189l-183 191l104 106l178 -185h13l175 185l105 -106l-182 -191l182 -189l-105 -107l-175 184h-13z" />
    <glyph glyph-name="Oslash" unicode="&#xd8;" horiz-adv-x="804" 
d="M715 676l78 -110l-63 -45q25 -68 25 -156q0 -180 -97 -277q-98 -98 -263 -98q-166 0 -262 99l-53 -38l-69 116l52 38q-26 73 -26 160q0 178 97 275q98 98 261 98q170 0 266 -101zM234 365q0 -4 2 -36l273 198q-43 49 -114 49q-75 0 -118 -57t-43 -154zM559 365
q0 24 -1 31l-273 -197q43 -46 110 -46q78 0 121 57t43 155z" />
    <glyph glyph-name="Ugrave" unicode="&#xd9;" horiz-adv-x="770" 
d="M435 849l-51 -84l-243 135l71 116zM63 282v447h185v-436q0 -66 35.5 -102t101.5 -36q64 0 100.5 36t36.5 102v436h186v-447q0 -137 -88 -215q-89 -77 -236 -77q-158 0 -239.5 77t-81.5 215z" />
    <glyph glyph-name="Uacute" unicode="&#xda;" horiz-adv-x="770" 
d="M627 896l-243 -136l-51 85l223 167zM63 282v447h185v-436q0 -66 35.5 -102t101.5 -36q64 0 100.5 36t36.5 102v436h186v-447q0 -137 -88 -215q-89 -77 -236 -77q-158 0 -239.5 77t-81.5 215z" />
    <glyph glyph-name="Ucircumflex" unicode="&#xdb;" horiz-adv-x="770" 
d="M271 764l-82 81l147 142h97l148 -142l-83 -81l-113 122zM63 282v447h185v-436q0 -66 35.5 -102t101.5 -36q64 0 100.5 36t36.5 102v436h186v-447q0 -137 -88 -215q-89 -77 -236 -77q-158 0 -239.5 77t-81.5 215z" />
    <glyph glyph-name="Udieresis" unicode="&#xdc;" horiz-adv-x="770" 
d="M342 776h-133v156h133v-156zM559 776h-133v156h133v-156zM63 282v447h185v-436q0 -66 35.5 -102t101.5 -36q64 0 100.5 36t36.5 102v436h186v-447q0 -137 -88 -215q-89 -77 -236 -77q-158 0 -239.5 77t-81.5 215z" />
    <glyph glyph-name="Yacute" unicode="&#xdd;" horiz-adv-x="728" 
d="M606 896l-243 -136l-51 85l223 167zM270 273l-270 456h220l65 -138l75 -154h7l75 151l67 141h219l-271 -456v-273h-187v273z" />
    <glyph glyph-name="Thorn" unicode="&#xde;" horiz-adv-x="664" 
d="M241 629h131q120 0 194 -70q75 -71 75 -182t-78 -183q-77 -72 -189 -72h-133v-122h-186v750h186v-121zM241 280h97q48 0 76 26t28 68q0 40 -32 66q-31 25 -72 25h-97v-185z" />
    <glyph glyph-name="germandbls" unicode="&#xdf;" horiz-adv-x="630" 
d="M451 422v-8q70 -13 111.5 -65.5t41.5 -126.5q0 -107 -73.5 -164.5t-204.5 -57.5h-40v143h23q54 0 85.5 29.5t31.5 78.5q0 48 -31 73.5t-86 25.5h-18v124h9q36 0 58 20t22 53q0 30 -17.5 48t-48.5 18q-67 0 -67 -68v-545h-175v395h-67v136h67q1 110 67 168t183 58
q107 0 170 -50.5t63 -133.5q0 -54 -27.5 -94t-76.5 -57z" />
    <glyph glyph-name="agrave" unicode="&#xe0;" horiz-adv-x="589" 
d="M332 663l-51 -84l-243 135l71 116zM18 148q0 83 59 130.5t159 47.5h116v28q0 30 -17.5 46.5t-48.5 16.5q-32 0 -51.5 -15.5t-21.5 -40.5h-173q8 89 76 139.5t176 50.5q115 0 175.5 -53.5t60.5 -148.5v-198q0 -31 24 -31q8 0 16 2v-120q-49 -11 -86 -11q-110 0 -120 88h-8
q-13 -41 -57 -65t-104 -24q-80 0 -127.5 42.5t-47.5 115.5zM195 171q0 -24 17.5 -37t47.5 -13q44 0 68 23t24 65v15h-85q-36 0 -54 -15t-18 -38z" />
    <glyph glyph-name="aacute" unicode="&#xe1;" horiz-adv-x="589" 
d="M524 710l-243 -136l-51 85l223 167zM18 148q0 83 59 130.5t159 47.5h116v28q0 30 -17.5 46.5t-48.5 16.5q-32 0 -51.5 -15.5t-21.5 -40.5h-173q8 89 76 139.5t176 50.5q115 0 175.5 -53.5t60.5 -148.5v-198q0 -31 24 -31q8 0 16 2v-120q-49 -11 -86 -11q-110 0 -120 88
h-8q-13 -41 -57 -65t-104 -24q-80 0 -127.5 42.5t-47.5 115.5zM195 171q0 -24 17.5 -37t47.5 -13q44 0 68 23t24 65v15h-85q-36 0 -54 -15t-18 -38z" />
    <glyph glyph-name="acircumflex" unicode="&#xe2;" horiz-adv-x="589" 
d="M168 578l-82 81l147 142h97l148 -142l-83 -81l-113 122zM18 148q0 83 59 130.5t159 47.5h116v28q0 30 -17.5 46.5t-48.5 16.5q-32 0 -51.5 -15.5t-21.5 -40.5h-173q8 89 76 139.5t176 50.5q115 0 175.5 -53.5t60.5 -148.5v-198q0 -31 24 -31q8 0 16 2v-120
q-49 -11 -86 -11q-110 0 -120 88h-8q-13 -41 -57 -65t-104 -24q-80 0 -127.5 42.5t-47.5 115.5zM195 171q0 -24 17.5 -37t47.5 -13q44 0 68 23t24 65v15h-85q-36 0 -54 -15t-18 -38z" />
    <glyph glyph-name="atilde" unicode="&#xe3;" horiz-adv-x="589" 
d="M344 586q-30 2 -65 20q-38 20 -59 20q-28 0 -63 -38l-69 46q44 112 132 111q31 0 66 -19t59 -19q38 0 57 35l3 4l71 -44q-41 -116 -132 -116zM18 148q0 83 59 130.5t159 47.5h116v28q0 30 -17.5 46.5t-48.5 16.5q-32 0 -51.5 -15.5t-21.5 -40.5h-173q8 89 76 139.5
t176 50.5q115 0 175.5 -53.5t60.5 -148.5v-198q0 -31 24 -31q8 0 16 2v-120q-49 -11 -86 -11q-110 0 -120 88h-8q-13 -41 -57 -65t-104 -24q-80 0 -127.5 42.5t-47.5 115.5zM195 171q0 -24 17.5 -37t47.5 -13q44 0 68 23t24 65v15h-85q-36 0 -54 -15t-18 -38z" />
    <glyph glyph-name="adieresis" unicode="&#xe4;" horiz-adv-x="589" 
d="M239 590h-133v156h133v-156zM456 590h-133v156h133v-156zM18 148q0 83 59 130.5t159 47.5h116v28q0 30 -17.5 46.5t-48.5 16.5q-32 0 -51.5 -15.5t-21.5 -40.5h-173q8 89 76 139.5t176 50.5q115 0 175.5 -53.5t60.5 -148.5v-198q0 -31 24 -31q8 0 16 2v-120
q-49 -11 -86 -11q-110 0 -120 88h-8q-13 -41 -57 -65t-104 -24q-80 0 -127.5 42.5t-47.5 115.5zM195 171q0 -24 17.5 -37t47.5 -13q44 0 68 23t24 65v15h-85q-36 0 -54 -15t-18 -38z" />
    <glyph glyph-name="aring" unicode="&#xe5;" horiz-adv-x="589" 
d="M552 120q8 0 16 2v-120q-49 -11 -86 -11q-110 0 -120 88h-8q-13 -41 -57 -65t-104 -24q-80 0 -127.5 42.5t-47.5 115.5q0 83 59 130.5t159 47.5h116v28q0 30 -17.5 46.5t-48.5 16.5q-32 0 -51.5 -15.5t-21.5 -40.5h-173q6 65 44.5 110t102.5 65q-40 34 -40 95
q0 57 37.5 92.5t96.5 35.5t96.5 -35.5t37.5 -92.5q0 -55 -35 -90q72 -18 110 -67.5t38 -124.5v-198q0 -31 24 -31zM240 631q-3 -28 19 -39.5t44.5 0t19.5 39.5q3 28 -19.5 40t-44.5 0t-19 -40zM352 209v15h-85q-36 0 -54 -15t-18 -38q0 -24 17.5 -37t47.5 -13q44 0 68 23
t24 65z" />
    <glyph glyph-name="ae" unicode="&#xe6;" horiz-adv-x="894" 
d="M714 181h156q-9 -86 -80 -139q-70 -52 -175 -52q-138 0 -207 82q-60 -82 -192 -82q-90 0 -146 47q-56 48 -56 124q0 81 55 126.5t155 45.5h111v23q0 28 -19.5 44.5t-51.5 16.5q-29 0 -48 -15t-20 -38h-176q5 86 72 136.5t180 50.5q99 0 164 -56q65 56 170 56
q118 0 189 -71q70 -70 70 -186q0 -26 -4 -65h-351q0 -49 28.5 -76t77.5 -27q34 0 62.5 15.5t35.5 39.5zM607 419q-40 0 -65.5 -20t-30.5 -57h183q-3 38 -26.5 57.5t-60.5 19.5zM337 198v20h-80q-65 0 -65 -50q0 -44 57 -44q39 0 63.5 20.5t24.5 53.5z" />
    <glyph glyph-name="ccedilla" unicode="&#xe7;" horiz-adv-x="573" 
d="M296 133q36 0 57.5 19t25.5 52h174q-5 -96 -74 -154t-176 -60l-16 -30q33 1 67 -20q33 -22 33 -67q0 -39 -23 -66.5t-57.5 -37.5t-74 -6.5t-71.5 20.5v80q44 -27 80 -20q38 6 38 42q0 24 -27 32.5t-54 -6.5v40l28 47q-93 21 -147.5 94.5t-54.5 178.5q0 127 75 203
q77 77 200 77q107 0 177 -58q71 -59 77 -155h-173q-12 70 -83 70q-95 0 -95 -138q0 -137 94 -137z" />
    <glyph glyph-name="egrave" unicode="&#xe8;" horiz-adv-x="581" 
d="M337 663l-51 -84l-243 135l71 116zM298 -10q-123 0 -199 76q-75 76 -75 203q0 128 74 205q75 77 197 77q117 0 188 -68t71 -178q0 -42 -8 -76h-347q-2 -50 24 -78.5t72 -28.5q32 0 57 14.5t32 37.5h173q-14 -83 -86 -134q-71 -50 -173 -50zM201 342h177q-1 36 -25 57
t-64 21q-39 0 -62.5 -21t-25.5 -57z" />
    <glyph glyph-name="eacute" unicode="&#xe9;" horiz-adv-x="581" 
d="M529 710l-243 -136l-51 85l223 167zM298 -10q-123 0 -199 76q-75 76 -75 203q0 128 74 205q75 77 197 77q117 0 188 -68t71 -178q0 -42 -8 -76h-347q-2 -50 24 -78.5t72 -28.5q32 0 57 14.5t32 37.5h173q-14 -83 -86 -134q-71 -50 -173 -50zM201 342h177q-1 36 -25 57
t-64 21q-39 0 -62.5 -21t-25.5 -57z" />
    <glyph glyph-name="ecircumflex" unicode="&#xea;" horiz-adv-x="581" 
d="M173 578l-82 81l147 142h97l148 -142l-83 -81l-113 122zM298 -10q-123 0 -199 76q-75 76 -75 203q0 128 74 205q75 77 197 77q117 0 188 -68t71 -178q0 -42 -8 -76h-347q-2 -50 24 -78.5t72 -28.5q32 0 57 14.5t32 37.5h173q-14 -83 -86 -134q-71 -50 -173 -50zM201 342
h177q-1 36 -25 57t-64 21q-39 0 -62.5 -21t-25.5 -57z" />
    <glyph glyph-name="edieresis" unicode="&#xeb;" horiz-adv-x="581" 
d="M244 590h-133v156h133v-156zM461 590h-133v156h133v-156zM298 -10q-123 0 -199 76q-75 76 -75 203q0 128 74 205q75 77 197 77q117 0 188 -68t71 -178q0 -42 -8 -76h-347q-2 -50 24 -78.5t72 -28.5q32 0 57 14.5t32 37.5h173q-14 -83 -86 -134q-71 -50 -173 -50zM201 342
h177q-1 36 -25 57t-64 21q-39 0 -62.5 -21t-25.5 -57z" />
    <glyph glyph-name="igrave" unicode="&#xec;" horiz-adv-x="281" 
d="M192 661l-51 -84l-243 135l71 116zM229 0h-176v541h176v-541z" />
    <glyph glyph-name="iacute" unicode="&#xed;" horiz-adv-x="281" 
d="M384 708l-243 -136l-51 85l223 167zM229 0h-176v541h176v-541z" />
    <glyph glyph-name="icircumflex" unicode="&#xee;" horiz-adv-x="281" 
d="M28 576l-82 81l147 142h97l148 -142l-83 -81l-113 122zM229 0h-176v541h176v-541z" />
    <glyph glyph-name="idieresis" unicode="&#xef;" horiz-adv-x="281" 
d="M99 588h-133v156h133v-156zM316 588h-133v156h133v-156zM229 0h-176v541h176v-541z" />
    <glyph glyph-name="eth" unicode="&#xf0;" horiz-adv-x="614" 
d="M30 243q0 105 66 170q67 65 174 65q37 0 61 -9l4 5l-40 35l-40 49l-138 -50v124l69 25l-65 99h210l23 -38l137 51v-124l-71 -24l47 -75q6 -8 24 -37l27 -42q5 -7 22 -41q15 -26 22 -49q17 -53 17 -109q0 -124 -78 -201q-77 -76 -201 -76q-119 0 -195 71q-75 70 -75 181z
M209 246q0 -50 26 -81t69 -31q44 0 69.5 31t25.5 83q0 50 -26.5 81.5t-68.5 31.5q-44 0 -69.5 -31.5t-25.5 -83.5z" />
    <glyph glyph-name="ntilde" unicode="&#xf1;" horiz-adv-x="646" 
d="M391 586q-30 2 -65 20q-38 20 -59 20q-28 0 -63 -38l-69 46q43 112 132 111q30 0 65 -19t60 -19q16 0 29.5 7.5t16 11t12.5 16.5l2 4l71 -44q-41 -116 -132 -116zM229 0h-176v541h154l22 -99h9q49 109 176 109q92 0 138.5 -60t46.5 -170v-321h-176v303q0 105 -90 105
q-49 0 -76.5 -33t-27.5 -89v-286z" />
    <glyph glyph-name="ograve" unicode="&#xf2;" horiz-adv-x="597" 
d="M349 663l-51 -84l-243 135l71 116zM24 271q0 124 75 202q77 78 200 78t198 -78q76 -77 76 -203q0 -125 -76 -202q-75 -77 -198 -77t-200 77q-75 78 -75 203zM202 270q0 -62 26.5 -99t69.5 -37q45 0 70.5 37t25.5 100t-26 100t-71 37q-44 0 -69.5 -37.5t-25.5 -100.5z" />
    <glyph glyph-name="oacute" unicode="&#xf3;" horiz-adv-x="597" 
d="M541 710l-243 -136l-51 85l223 167zM24 271q0 124 75 202q77 78 200 78t198 -78q76 -77 76 -203q0 -125 -76 -202q-75 -77 -198 -77t-200 77q-75 78 -75 203zM202 270q0 -62 26.5 -99t69.5 -37q45 0 70.5 37t25.5 100t-26 100t-71 37q-44 0 -69.5 -37.5t-25.5 -100.5z
" />
    <glyph glyph-name="ocircumflex" unicode="&#xf4;" horiz-adv-x="597" 
d="M185 578l-82 81l147 142h97l148 -142l-83 -81l-113 122zM24 271q0 124 75 202q77 78 200 78t198 -78q76 -77 76 -203q0 -125 -76 -202q-75 -77 -198 -77t-200 77q-75 78 -75 203zM202 270q0 -62 26.5 -99t69.5 -37q45 0 70.5 37t25.5 100t-26 100t-71 37
q-44 0 -69.5 -37.5t-25.5 -100.5z" />
    <glyph glyph-name="otilde" unicode="&#xf5;" horiz-adv-x="597" 
d="M362 586q-30 2 -65 20q-38 20 -59 20q-28 0 -63 -38l-69 46q44 112 132 111q31 0 66 -19t59 -19q38 0 57 35l3 4l71 -44q-41 -116 -132 -116zM24 271q0 124 75 202q77 78 200 78t198 -78q76 -77 76 -203q0 -125 -76 -202q-75 -77 -198 -77t-200 77q-75 78 -75 203z
M202 270q0 -62 26.5 -99t69.5 -37q45 0 70.5 37t25.5 100t-26 100t-71 37q-44 0 -69.5 -37.5t-25.5 -100.5z" />
    <glyph glyph-name="odieresis" unicode="&#xf6;" horiz-adv-x="597" 
d="M256 590h-133v156h133v-156zM473 590h-133v156h133v-156zM24 271q0 124 75 202q77 78 200 78t198 -78q76 -77 76 -203q0 -125 -76 -202q-75 -77 -198 -77t-200 77q-75 78 -75 203zM202 270q0 -62 26.5 -99t69.5 -37q45 0 70.5 37t25.5 100t-26 100t-71 37
q-44 0 -69.5 -37.5t-25.5 -100.5z" />
    <glyph glyph-name="divide" unicode="&#xf7;" horiz-adv-x="631" 
d="M402 411h-173v162h173v-162zM561 219h-492v138h492v-138zM402 -1h-173v162h173v-162z" />
    <glyph glyph-name="oslash" unicode="&#xf8;" horiz-adv-x="631" 
d="M561 519l62 -91l-56 -41q21 -53 21 -117q0 -125 -76 -202q-75 -77 -199 -77q-116 0 -193 71l-51 -37l-61 90l52 38q-22 54 -22 118q0 125 76 202q77 78 199 78q119 0 193 -72zM217 270v-2l156 114q-23 26 -62 26q-44 0 -69 -37.5t-25 -100.5zM408 271v1l-155 -113
q25 -25 60 -25q45 0 70 37t25 100z" />
    <glyph glyph-name="ugrave" unicode="&#xf9;" horiz-adv-x="636" 
d="M369 663l-51 -84l-243 135l71 116zM412 541h176v-541h-155l-22 99h-10q-51 -109 -172 -109q-89 0 -135.5 56.5t-46.5 158.5v336h177v-308q0 -100 86 -100q47 0 74.5 33.5t27.5 88.5v286z" />
    <glyph glyph-name="uacute" unicode="&#xfa;" horiz-adv-x="636" 
d="M561 710l-243 -136l-51 85l223 167zM412 541h176v-541h-155l-22 99h-10q-51 -109 -172 -109q-89 0 -135.5 56.5t-46.5 158.5v336h177v-308q0 -100 86 -100q47 0 74.5 33.5t27.5 88.5v286z" />
    <glyph glyph-name="ucircumflex" unicode="&#xfb;" horiz-adv-x="636" 
d="M205 578l-82 81l147 142h97l148 -142l-83 -81l-113 122zM412 541h176v-541h-155l-22 99h-10q-51 -109 -172 -109q-89 0 -135.5 56.5t-46.5 158.5v336h177v-308q0 -100 86 -100q47 0 74.5 33.5t27.5 88.5v286z" />
    <glyph glyph-name="udieresis" unicode="&#xfc;" horiz-adv-x="636" 
d="M276 590h-133v156h133v-156zM493 590h-133v156h133v-156zM412 541h176v-541h-155l-22 99h-10q-51 -109 -172 -109q-89 0 -135.5 56.5t-46.5 158.5v336h177v-308q0 -100 86 -100q47 0 74.5 33.5t27.5 88.5v286z" />
    <glyph glyph-name="yacute" unicode="&#xfd;" horiz-adv-x="543" 
d="M507 711l-243 -136l-51 85l223 167zM186 41l-199 500h188l54 -188l40 -149h8l39 149l52 188h183l-192 -552q-32 -91 -93.5 -128.5t-168.5 -37.5q-41 0 -76 7v140q21 -4 61 -4q83 0 98 53z" />
    <glyph glyph-name="thorn" unicode="&#xfe;" horiz-adv-x="652" 
d="M53 -167v896h176v-287h9q22 51 69 80t105 29q101 0 158.5 -76t57.5 -208q0 -130 -59 -204q-58 -73 -156 -73q-65 0 -111 28.5t-64 77.5h-9v-263h-176zM229 284v-28q0 -57 29.5 -90.5t80.5 -33.5q54 0 83 36.5t29 100.5q0 68 -29 104t-81 36q-51 0 -81.5 -34.5
t-30.5 -90.5z" />
    <glyph glyph-name="ydieresis" unicode="&#xff;" horiz-adv-x="543" 
d="M222 592h-133v156h133v-156zM439 592h-133v156h133v-156zM186 41l-199 500h188l54 -188l40 -149h8l39 149l52 188h183l-192 -552q-32 -91 -93.5 -128.5t-168.5 -37.5q-41 0 -76 7v140q21 -4 61 -4q83 0 98 53z" />
    <glyph glyph-name="Amacron" unicode="&#x100;" horiz-adv-x="727" 
d="M168 909h376v-132h-376v132zM729 0h-205l-35 110h-263l-36 -110h-193l251 729h218zM294 321l-22 -68h172l-22 68l-58 211h-7z" />
    <glyph glyph-name="amacron" unicode="&#x101;" horiz-adv-x="589" 
d="M469 591h-376v132h376v-132zM18 148q0 83 59 130.5t159 47.5h116v28q0 30 -17.5 46.5t-48.5 16.5q-32 0 -51.5 -15.5t-21.5 -40.5h-173q8 89 76 139.5t176 50.5q115 0 175.5 -53.5t60.5 -148.5v-198q0 -31 24 -31q8 0 16 2v-120q-49 -11 -86 -11q-110 0 -120 88h-8
q-13 -41 -57 -65t-104 -24q-80 0 -127.5 42.5t-47.5 115.5zM195 171q0 -24 17.5 -37t47.5 -13q44 0 68 23t24 65v15h-85q-36 0 -54 -15t-18 -38z" />
    <glyph glyph-name="Abreve" unicode="&#x102;" horiz-adv-x="727" 
d="M356 773q-78 0 -123 47t-45 122h105q0 -35 16.5 -54t46.5 -19q31 0 48 19t17 54h106q0 -75 -46 -122t-125 -47zM729 0h-205l-35 110h-263l-36 -110h-193l251 729h218zM294 321l-22 -68h172l-22 68l-58 211h-7z" />
    <glyph glyph-name="abreve" unicode="&#x103;" horiz-adv-x="589" 
d="M345 756h106q0 -75 -46 -122t-125 -47q-78 0 -123 47t-45 122h105q0 -35 16.5 -54t46.5 -19q31 0 48 19t17 54zM18 148q0 83 59 130.5t159 47.5h116v28q0 30 -17.5 46.5t-48.5 16.5q-32 0 -51.5 -15.5t-21.5 -40.5h-173q8 89 76 139.5t176 50.5q115 0 175.5 -53.5
t60.5 -148.5v-198q0 -31 24 -31q8 0 16 2v-120q-49 -11 -86 -11q-110 0 -120 88h-8q-13 -41 -57 -65t-104 -24q-80 0 -127.5 42.5t-47.5 115.5zM195 171q0 -24 17.5 -37t47.5 -13q44 0 68 23t24 65v15h-85q-36 0 -54 -15t-18 -38z" />
    <glyph glyph-name="Aogonek" unicode="&#x104;" horiz-adv-x="727" 
d="M699 -116q27 0 57 11v-89q-36 -17 -88 -17q-61 -1 -98 31t-37 84q0 58 41 96h-50l-35 110h-263l-36 -110h-193l251 729h218l263 -729q-94 -12 -94 -72q0 -44 64 -44zM294 321l-22 -68h172l-22 68l-58 211h-7z" />
    <glyph glyph-name="aogonek" unicode="&#x105;" horiz-adv-x="589" 
d="M543 -116q27 0 57 11v-89q-36 -17 -88 -17q-61 -1 -98 31t-37 84q0 61 43 98q-52 19 -58 77h-8q-13 -41 -57 -65t-104 -24q-80 0 -127.5 42.5t-47.5 115.5q0 83 59 130.5t159 47.5h116v28q0 30 -17.5 46.5t-48.5 16.5q-32 0 -51.5 -15.5t-21.5 -40.5h-173q8 89 76 139.5
t176 50.5q115 0 175.5 -53.5t60.5 -148.5v-198q0 -31 24 -31q8 0 16 2v-115l5 -7q-94 -12 -94 -72q0 -44 64 -44zM352 209v15h-85q-36 0 -54 -15t-18 -38q0 -24 17.5 -37t47.5 -13q44 0 68 23t24 65z" />
    <glyph glyph-name="Cacute" unicode="&#x106;" horiz-adv-x="755" 
d="M619 896l-243 -136l-51 85l223 167zM533 256h194q-14 -120 -106 -193t-228 -73q-167 0 -265 102q-98 103 -98 270q0 170 99 273q100 103 264 103q138 0 229 -73q91 -72 105 -191h-194q-13 47 -51 74.5t-90 27.5q-79 0 -122 -56.5t-43 -158.5q0 -101 42.5 -155t118.5 -54
q55 0 94.5 28.5t50.5 75.5z" />
    <glyph glyph-name="cacute" unicode="&#x107;" horiz-adv-x="573" 
d="M532 710l-243 -136l-51 85l223 167zM379 204h174q-5 -98 -76 -156q-70 -58 -180 -58q-123 0 -198 77q-75 78 -75 204q0 127 75 203q77 77 200 77q107 0 177 -58q71 -59 77 -155h-173q-12 70 -83 70q-95 0 -95 -138q0 -137 94 -137q36 0 57.5 19t25.5 52z" />
    <glyph glyph-name="Cdotaccent" unicode="&#x10a;" horiz-adv-x="755" 
d="M443 776h-134v156h134v-156zM533 256h194q-14 -120 -106 -193t-228 -73q-167 0 -265 102q-98 103 -98 270q0 170 99 273q100 103 264 103q138 0 229 -73q91 -72 105 -191h-194q-13 47 -51 74.5t-90 27.5q-79 0 -122 -56.5t-43 -158.5q0 -101 42.5 -155t118.5 -54
q55 0 94.5 28.5t50.5 75.5z" />
    <glyph glyph-name="cdotaccent" unicode="&#x10b;" horiz-adv-x="573" 
d="M356 590h-134v156h134v-156zM379 204h174q-5 -98 -76 -156q-70 -58 -180 -58q-123 0 -198 77q-75 78 -75 204q0 127 75 203q77 77 200 77q107 0 177 -58q71 -59 77 -155h-173q-12 70 -83 70q-95 0 -95 -138q0 -137 94 -137q36 0 57.5 19t25.5 52z" />
    <glyph glyph-name="Ccaron" unicode="&#x10c;" horiz-adv-x="755" 
d="M329 782l-148 144l82 80l114 -123l113 123l83 -80l-148 -144h-96zM533 256h194q-14 -120 -106 -193t-228 -73q-167 0 -265 102q-98 103 -98 270q0 170 99 273q100 103 264 103q138 0 229 -73q91 -72 105 -191h-194q-13 47 -51 74.5t-90 27.5q-79 0 -122 -56.5t-43 -158.5
q0 -101 42.5 -155t118.5 -54q55 0 94.5 28.5t50.5 75.5z" />
    <glyph glyph-name="ccaron" unicode="&#x10d;" horiz-adv-x="573" 
d="M241 596l-148 144l82 80l114 -123l113 123l83 -80l-148 -144h-96zM379 204h174q-5 -98 -76 -156q-70 -58 -180 -58q-123 0 -198 77q-75 78 -75 204q0 127 75 203q77 77 200 77q107 0 177 -58q71 -59 77 -155h-173q-12 70 -83 70q-95 0 -95 -138q0 -137 94 -137
q36 0 57.5 19t25.5 52z" />
    <glyph glyph-name="Dcaron" unicode="&#x10e;" horiz-adv-x="754" 
d="M290 782l-148 144l82 80l114 -123l113 123l83 -80l-148 -144h-96zM384 0h-315v729h315q162 0 251 -99q88 -98 88 -266q0 -166 -89 -266q-89 -98 -250 -98zM255 570v-411h97q84 0 130 45t46 164q0 110 -43.5 156t-132.5 46h-97z" />
    <glyph glyph-name="dcaron" unicode="&#x10f;" horiz-adv-x="618" 
d="M417 438h9v310h176v-748h-152l-24 97h-9q-23 -51 -70 -79t-106 -28q-101 0 -159 75q-58 74 -58 203q0 132 58.5 207.5t158.5 75.5q65 0 110 -30t66 -83zM661 614v134h132v-116q0 -126 -146 -126v47q41 0 58 14t18 47h-62zM426 256v27q0 60 -30 93t-82 33q-53 0 -81.5 -37
t-28.5 -102q0 -68 28.5 -103t79.5 -35q54 0 84 33t30 91z" />
    <glyph glyph-name="Dcroat" unicode="&#x110;" horiz-adv-x="754" 
d="M69 729h315q162 0 251 -99q88 -98 88 -266q0 -166 -89 -266q-89 -98 -250 -98h-315v308h-93v126h93v295zM255 159h97q84 0 130 45t46 164q0 110 -43.5 156t-132.5 46h-97v-136h90v-126h-90v-149z" />
    <glyph glyph-name="dslash" unicode="&#x111;" horiz-adv-x="655" 
d="M602 658h82v-112h-82v-546h-153l-23 97h-10q-23 -51 -69.5 -79t-105.5 -28q-101 0 -159 74.5t-58 203.5q0 132 58.5 207.5t158.5 75.5q64 0 109 -30t66 -83h10v108h-102v112h102v90h176v-90zM426 256v27q0 60 -30.5 93t-82.5 33q-53 0 -81.5 -37t-28.5 -102
q0 -68 28.5 -103t79.5 -35q55 0 85 33t30 91z" />
    <glyph glyph-name="Emacron" unicode="&#x112;" horiz-adv-x="640" 
d="M518 777h-376v132h376v-132zM595 0h-526v729h526v-159h-340v-117h288v-149h-288v-145h340v-159z" />
    <glyph glyph-name="emacron" unicode="&#x113;" horiz-adv-x="581" 
d="M474 591h-376v132h376v-132zM298 -10q-123 0 -199 76q-75 76 -75 203q0 128 74 205q75 77 197 77q117 0 188 -68t71 -178q0 -42 -8 -76h-347q-2 -50 24 -78.5t72 -28.5q32 0 57 14.5t32 37.5h173q-14 -83 -86 -134q-71 -50 -173 -50zM201 342h177q-1 36 -25 57t-64 21
q-39 0 -62.5 -21t-25.5 -57z" />
    <glyph glyph-name="Edotaccent" unicode="&#x116;" horiz-adv-x="640" 
d="M397 776h-134v156h134v-156zM595 0h-526v729h526v-159h-340v-117h288v-149h-288v-145h340v-159z" />
    <glyph glyph-name="edotaccent" unicode="&#x117;" horiz-adv-x="581" 
d="M354 590h-134v156h134v-156zM298 -10q-123 0 -199 76q-75 76 -75 203q0 128 74 205q75 77 197 77q117 0 188 -68t71 -178q0 -42 -8 -76h-347q-2 -50 24 -78.5t72 -28.5q32 0 57 14.5t32 37.5h173q-14 -83 -86 -134q-71 -50 -173 -50zM201 342h177q-1 36 -25 57t-64 21
q-39 0 -62.5 -21t-25.5 -57z" />
    <glyph glyph-name="Eogonek" unicode="&#x118;" horiz-adv-x="640" 
d="M565 -116q27 0 57 11v-89q-36 -17 -88 -17q-61 -1 -98 31t-37 84q0 58 41 96h-371v729h526v-159h-340v-117h288v-149h-288v-145h340v-159q-94 -12 -94 -72q0 -44 64 -44z" />
    <glyph glyph-name="eogonek" unicode="&#x119;" horiz-adv-x="581" 
d="M384 174h173q-11 -63 -57.5 -109t-115.5 -64v-1h-3l-3 -1l-9 -1q-9 -2 -14 -3q-65 -18 -65 -67q0 -44 64 -44q27 0 57 11v-89q-36 -17 -88 -17q-61 -1 -98 31t-37 84q0 56 38 94q-92 19 -148 92q-54 74 -54 179q0 128 74 205q75 77 197 77q117 0 188 -68t71 -178
q0 -42 -8 -76h-347q-2 -50 24 -78.5t72 -28.5q32 0 57 14.5t32 37.5zM289 420q-39 0 -62.5 -21t-25.5 -57h177q-1 36 -25 57t-64 21z" />
    <glyph glyph-name="Ecaron" unicode="&#x11a;" horiz-adv-x="640" 
d="M282 782l-148 144l82 80l114 -123l113 123l83 -80l-148 -144h-96zM595 0h-526v729h526v-159h-340v-117h288v-149h-288v-145h340v-159z" />
    <glyph glyph-name="ecaron" unicode="&#x11b;" horiz-adv-x="581" 
d="M239 596l-148 144l82 80l114 -123l113 123l83 -80l-148 -144h-96zM298 -10q-123 0 -199 76q-75 76 -75 203q0 128 74 205q75 77 197 77q117 0 188 -68t71 -178q0 -42 -8 -76h-347q-2 -50 24 -78.5t72 -28.5q32 0 57 14.5t32 37.5h173q-14 -83 -86 -134q-71 -50 -173 -50z
M201 342h177q-1 36 -25 57t-64 21q-39 0 -62.5 -21t-25.5 -57z" />
    <glyph glyph-name="Gbreve" unicode="&#x11e;" horiz-adv-x="802" 
d="M385 773q-78 0 -123 47t-45 122h105q0 -35 16.5 -54t46.5 -19q31 0 48 19t17 54h106q0 -75 -46 -122t-125 -47zM349 260v146h397v-406h-152l-8 87h-7q-28 -44 -88.5 -70.5t-135.5 -26.5q-148 0 -237 101q-88 100 -88 265q0 174 99 277q101 105 265 105q132 0 221 -66
t103 -174h-194q-12 36 -47 57t-84 21q-80 0 -123 -57.5t-43 -159.5q0 -103 44 -157.5t121 -54.5q60 0 101 31t50 82h-194z" />
    <glyph glyph-name="gbreve" unicode="&#x11f;" horiz-adv-x="569" 
d="M303 766h106q0 -75 -46 -122t-125 -47q-78 0 -123 47t-45 122h105q0 -35 16.5 -54t46.5 -19q31 0 48 19t17 54zM8 -67q0 37 23 65t60 36v8q-29 10 -45.5 33t-16.5 51q0 73 83 102v8q-83 45 -83 139q0 80 62 128q61 48 164 48q48 0 79 -10q17 54 69.5 87t122.5 33v-132
q-70 0 -93 -30q63 -49 63 -129q0 -79 -61 -127q-62 -47 -162 -47q-37 0 -64 6q-21 -10 -21 -30q0 -19 15 -25.5t48 -6.5h113q90 0 139 -42.5t49 -117.5q0 -175 -299 -175q-120 0 -182.5 33.5t-62.5 94.5zM200 374q0 -27 17.5 -43t45.5 -16q29 0 46 16t17 43t-17 43t-46 16
q-28 0 -45.5 -16.5t-17.5 -42.5zM172 -31q0 -41 91 -41q114 0 114 46q0 30 -43 30h-112q-50 0 -50 -35z" />
    <glyph glyph-name="Gdotaccent" unicode="&#x120;" horiz-adv-x="802" 
d="M319 932h134v-156h-134v156zM349 260v146h397v-406h-152l-8 87h-7q-28 -44 -88.5 -70.5t-135.5 -26.5q-148 0 -237 101q-88 100 -88 265q0 174 99 277q101 105 265 105q132 0 221 -66t103 -174h-194q-12 36 -47 57t-84 21q-80 0 -123 -57.5t-43 -159.5q0 -103 44 -157.5
t121 -54.5q60 0 101 31t50 82h-194z" />
    <glyph glyph-name="gdotaccent" unicode="&#x121;" horiz-adv-x="569" 
d="M306 601h-134v156h134v-156zM8 -67q0 37 23 65t60 36v8q-29 10 -45.5 33t-16.5 51q0 73 83 102v8q-83 45 -83 139q0 80 62 128q61 48 164 48q48 0 79 -10q17 54 69.5 87t122.5 33v-132q-70 0 -93 -30q63 -49 63 -129q0 -79 -61 -127q-62 -47 -162 -47q-37 0 -64 6
q-21 -10 -21 -30q0 -19 15 -25.5t48 -6.5h113q90 0 139 -42.5t49 -117.5q0 -175 -299 -175q-120 0 -182.5 33.5t-62.5 94.5zM200 374q0 -27 17.5 -43t45.5 -16q29 0 46 16t17 43t-17 43t-46 16q-28 0 -45.5 -16.5t-17.5 -42.5zM172 -31q0 -41 91 -41q114 0 114 46
q0 30 -43 30h-112q-50 0 -50 -35z" />
    <glyph glyph-name="uni0122" unicode="&#x122;" horiz-adv-x="802" 
d="M349 260v146h397v-406h-152l-8 87h-7q-28 -44 -88.5 -70.5t-135.5 -26.5q-148 0 -237 101q-88 100 -88 265q0 174 99 277q101 105 265 105q132 0 221 -66t103 -174h-194q-12 36 -47 57t-84 21q-80 0 -123 -57.5t-43 -159.5q0 -103 44 -157.5t121 -54.5q60 0 101 31t50 82
h-194zM381 -190h-64v140h137v-149q0 -111 -128 -111v49q55 0 55 49v22z" />
    <glyph glyph-name="uni0123" unicode="&#x123;" horiz-adv-x="569" 
d="M299 878v-49q-56 0 -56 -49v-33h64v-140h-137v160q0 111 129 111zM8 -67q0 37 23 65t60 36v8q-29 10 -45.5 33t-16.5 51q0 73 83 102v8q-83 45 -83 139q0 80 62 128q61 48 164 48q48 0 79 -10q17 54 69.5 87t122.5 33v-132q-70 0 -93 -30q63 -49 63 -129q0 -79 -61 -127
q-62 -47 -162 -47q-37 0 -64 6q-21 -10 -21 -30q0 -19 15 -25.5t48 -6.5h113q90 0 139 -42.5t49 -117.5q0 -175 -299 -175q-120 0 -182.5 33.5t-62.5 94.5zM200 374q0 -27 17.5 -43t45.5 -16q29 0 46 16t17 43t-17 43t-46 16q-28 0 -45.5 -16.5t-17.5 -42.5zM172 -31
q0 -41 91 -41q114 0 114 46q0 30 -43 30h-112q-50 0 -50 -35z" />
    <glyph glyph-name="Hbar" unicode="&#x126;" horiz-adv-x="809" 
d="M740 647h62v-108h-62v-539h-186v297h-299v-297h-186v539h-52v108h52v82h186v-82h299v82h186v-82zM255 443h299v96h-299v-96z" />
    <glyph glyph-name="hbar" unicode="&#x127;" horiz-adv-x="647" 
d="M414 551q92 0 139 -60.5t47 -168.5v-322h-177v304q0 104 -90 104q-50 0 -77 -32t-27 -87v-289h-176v546h-82v112h82v90h176v-90h102v-112h-102v-102h9q50 107 176 107z" />
    <glyph glyph-name="Imacron" unicode="&#x12a;" horiz-adv-x="324" 
d="M350 777h-376v132h376v-132zM255 729v-729h-186v729h186z" />
    <glyph glyph-name="imacron" unicode="&#x12b;" horiz-adv-x="281" 
d="M329 589h-376v132h376v-132zM229 0h-176v541h176v-541z" />
    <glyph glyph-name="Iogonek" unicode="&#x12e;" horiz-adv-x="324" 
d="M206 -116q27 0 57 11v-89q-36 -17 -88 -17q-61 -1 -98 31t-37 84q0 58 41 96h-12v729h186v-729h-19q-94 -12 -94 -72q0 -44 64 -44z" />
    <glyph glyph-name="iogonek" unicode="&#x12f;" horiz-adv-x="281" 
d="M74 744h134v-156h-134v156zM197 -116q27 0 57 11v-89q-36 -17 -88 -17q-61 -1 -98 31t-37 84q0 58 41 96h-19v541h176v-541h-2q-94 -12 -94 -72q0 -44 64 -44z" />
    <glyph glyph-name="Idot" unicode="&#x130;" horiz-adv-x="324" 
d="M253 776h-182v156h182v-156zM255 729v-729h-186v729h186z" />
    <glyph glyph-name="dotlessi" unicode="&#x131;" horiz-adv-x="281" 
d="M229 0h-176v541h176v-541z" />
    <glyph glyph-name="Jcircumflex" unicode="&#x134;" horiz-adv-x="427" 
d="M157 764l-82 81l147 142h97l148 -142l-83 -81l-113 122zM364 729v-498q0 -240 -247 -240q-61 0 -102 9v149q28 -5 60 -5q55 0 79 27.5t24 83.5v474h186z" />
    <glyph glyph-name="jcircumflex" unicode="&#x135;" horiz-adv-x="280" 
d="M28 576l-82 81l147 142h97l148 -142l-83 -81l-113 122zM34 -184q-52 0 -82 6v126q24 -2 26 -2q55 0 66 21q9 16 9 56v8v510h175v-523q0 -88 -36 -140q-42 -62 -158 -62z" />
    <glyph glyph-name="uni0136" unicode="&#x136;" horiz-adv-x="743" 
d="M730 729l-264 -316l274 -413h-226l-175 262l-84 -101v-161h-186v729h186v-306l245 306h230zM390 -190h-64v140h137v-149q0 -111 -128 -111v49q55 0 55 49v22z" />
    <glyph glyph-name="uni0137" unicode="&#x137;" horiz-adv-x="619" 
d="M424 0l-132 205l-61 -64v-141h-178v748h178v-388l166 181h216l-201 -210l212 -331h-200zM394 -190h-64v140h137v-149q0 -111 -128 -111v49q55 0 55 49v22z" />
    <glyph glyph-name="Lacute" unicode="&#x139;" horiz-adv-x="573" 
d="M440 896l-243 -136l-51 85l223 167zM536 0h-467v729h186v-564h281v-165z" />
    <glyph glyph-name="lacute" unicode="&#x13a;" horiz-adv-x="281" 
d="M385 917l-243 -136l-51 85l223 167zM229 0h-176v748h176v-748z" />
    <glyph glyph-name="uni013B" unicode="&#x13b;" horiz-adv-x="573" 
d="M536 0h-467v729h186v-564h281v-165zM243 -310v49q55 0 55 49v22h-64v140h137v-149q0 -111 -128 -111z" />
    <glyph glyph-name="uni013C" unicode="&#x13c;" horiz-adv-x="281" 
d="M229 0h-176v748h176v-748zM82 -310v49q55 0 55 49v22h-64v140h137v-149q0 -111 -128 -111z" />
    <glyph glyph-name="Lcaron" unicode="&#x13d;" horiz-adv-x="569" 
d="M536 0h-467v729h187v-564h280v-165zM340 471v49q77 0 77 64v5h-63v134h130v-132q0 -57 -38.5 -88.5t-105.5 -31.5z" />
    <glyph glyph-name="lcaron" unicode="&#x13e;" horiz-adv-x="281" 
d="M94 803l-148 144l82 80l114 -123l113 123l83 -80l-148 -144h-96zM229 0h-176v748h176v-748z" />
    <glyph glyph-name="Ldot" unicode="&#x13f;" horiz-adv-x="600" 
d="M536 0h-467v729h186v-564h281v-165zM328 442q0 38 25.5 64.5t61.5 26.5q37 0 62.5 -26.5t25.5 -64.5q0 -36 -26 -62.5t-62 -26.5q-35 0 -61 26t-26 63z" />
    <glyph glyph-name="ldot" unicode="&#x140;" horiz-adv-x="511" 
d="M229 0h-176v748h176v-748zM310 380q0 38 26 65t62 27q37 0 62.5 -27t25.5 -65q0 -37 -25.5 -63t-62.5 -26q-36 0 -62 26t-26 63z" />
    <glyph glyph-name="Lslash" unicode="&#x141;" horiz-adv-x="572" 
d="M255 332v-167h280v-165h-467v265l-65 -23v158l65 23v306h187v-240l147 52v-157z" />
    <glyph glyph-name="lslash" unicode="&#x142;" horiz-adv-x="327" 
d="M252 521l52 20v-157l-52 -20v-364h-176v298l-53 -20v157l53 20v293h176v-227z" />
    <glyph glyph-name="Nacute" unicode="&#x143;" horiz-adv-x="793" 
d="M634 896l-243 -136l-51 85l223 167zM255 0h-186v729h213l260 -463h8l-11 205v258h185v-729h-213l-258 458h-8l10 -198v-260z" />
    <glyph glyph-name="nacute" unicode="&#x144;" horiz-adv-x="646" 
d="M571 710l-243 -136l-51 85l223 167zM229 0h-176v541h154l22 -99h9q49 109 176 109q92 0 138.5 -60t46.5 -170v-321h-176v303q0 105 -90 105q-49 0 -76.5 -33t-27.5 -89v-286z" />
    <glyph glyph-name="uni0145" unicode="&#x145;" horiz-adv-x="793" 
d="M255 0h-186v729h213l260 -463h8l-11 205v258h185v-729h-213l-258 458h-8l10 -198v-260zM331 -310v49q55 0 55 49v22h-64v140h137v-149q0 -111 -128 -111z" />
    <glyph glyph-name="uni0146" unicode="&#x146;" horiz-adv-x="646" 
d="M229 0h-176v541h154l22 -99h9q49 109 176 109q92 0 138.5 -60t46.5 -170v-321h-176v303q0 105 -90 105q-49 0 -76.5 -33t-27.5 -89v-286zM264 -310v49q55 0 55 49v22h-64v140h137v-149q0 -111 -128 -111z" />
    <glyph glyph-name="Ncaron" unicode="&#x147;" horiz-adv-x="793" 
d="M343 782l-148 144l82 80l114 -123l113 123l83 -80l-148 -144h-96zM255 0h-186v729h213l260 -463h8l-11 205v258h185v-729h-213l-258 458h-8l10 -198v-260z" />
    <glyph glyph-name="ncaron" unicode="&#x148;" horiz-adv-x="646" 
d="M280 596l-148 144l82 80l114 -123l113 123l83 -80l-148 -144h-96zM229 0h-176v541h154l22 -99h9q49 109 176 109q92 0 138.5 -60t46.5 -170v-321h-176v303q0 105 -90 105q-49 0 -76.5 -33t-27.5 -89v-286z" />
    <glyph glyph-name="Eng" unicode="&#x14a;" horiz-adv-x="793" 
d="M539 471v258h185v-736q0 -83 -51 -126t-142 -43q-39 0 -82 10v105q18 -2 25 -2q64 0 64 59v4h-27l-258 458h-8l10 -198v-260h-186v729h213l260 -463h8z" />
    <glyph glyph-name="eng" unicode="&#x14b;" horiz-adv-x="646" 
d="M414 551q92 0 138.5 -60t46.5 -170v-329q0 -83 -50.5 -126.5t-141.5 -43.5q-55 0 -84 6v128q24 -2 28 -2q45 0 58.5 15.5t13.5 57.5v276q0 105 -90 105q-49 0 -76.5 -33t-27.5 -89v-286h-176v541h154l22 -99h9q49 109 176 109z" />
    <glyph glyph-name="Omacron" unicode="&#x14c;" horiz-adv-x="780" 
d="M577 777h-376v132h376v-132zM30 365q0 178 97 275q98 98 262 98q171 0 265 -102q95 -101 95 -271q0 -177 -98 -277q-98 -98 -262 -98q-170 0 -265 101q-94 101 -94 274zM227 365q0 -100 43.5 -156t118.5 -56q78 0 121 57t43 155t-44.5 154.5t-119.5 56.5q-76 0 -119 -57
t-43 -154z" />
    <glyph glyph-name="omacron" unicode="&#x14d;" horiz-adv-x="597" 
d="M486 591h-376v132h376v-132zM24 271q0 124 75 202q77 78 200 78t198 -78q76 -77 76 -203q0 -125 -76 -202q-75 -77 -198 -77t-200 77q-75 78 -75 203zM202 270q0 -62 26.5 -99t69.5 -37q45 0 70.5 37t25.5 100t-26 100t-71 37q-44 0 -69.5 -37.5t-25.5 -100.5z" />
    <glyph glyph-name="Ohungarumlaut" unicode="&#x150;" horiz-adv-x="780" 
d="M497 901l-235 -136l-52 80l216 169zM755 901l-235 -136l-51 80l213 169zM30 365q0 178 97 275q98 98 262 98q171 0 265 -102q95 -101 95 -271q0 -177 -98 -277q-98 -98 -262 -98q-170 0 -265 101q-94 101 -94 274zM227 365q0 -100 43.5 -156t118.5 -56q78 0 121 57
t43 155t-44.5 154.5t-119.5 56.5q-76 0 -119 -57t-43 -154z" />
    <glyph glyph-name="ohungarumlaut" unicode="&#x151;" horiz-adv-x="597" 
d="M406 715l-235 -136l-52 80l216 169zM664 715l-235 -136l-51 80l213 169zM24 271q0 124 75 202q77 78 200 78t198 -78q76 -77 76 -203q0 -125 -76 -202q-75 -77 -198 -77t-200 77q-75 78 -75 203zM202 270q0 -62 26.5 -99t69.5 -37q45 0 70.5 37t25.5 100t-26 100t-71 37
q-44 0 -69.5 -37.5t-25.5 -100.5z" />
    <glyph glyph-name="OE" unicode="&#x152;" horiz-adv-x="941" 
d="M385 728h512v-158h-299v-134h207v-148h-207v-129h299v-158h-511q-159 0 -258 101q-98 101 -98 263q0 161 98 262t257 101zM227 365q0 -91 43 -149q44 -57 116 -57h26v409h-26q-72 0 -115.5 -56.5t-43.5 -146.5z" />
    <glyph glyph-name="oe" unicode="&#x153;" horiz-adv-x="973" 
d="M776 174h174q-15 -83 -87 -134q-71 -50 -173 -50q-119 0 -196 74q-76 -73 -195 -73q-123 0 -200 77q-75 78 -75 203q0 124 75 202q77 78 200 78q118 0 195 -74q74 74 193 74q117 0 188 -68t71 -178q0 -42 -8 -76h-347q-2 -50 24 -78.5t72 -28.5q33 0 57 14t32 38z
M681 420q-39 0 -62.5 -21t-25.5 -57h177q-1 36 -25 57t-64 21zM298 134q45 0 70.5 37t25.5 100t-26 100t-71 37q-44 0 -69.5 -37.5t-25.5 -100.5q0 -62 26.5 -99t69.5 -37z" />
    <glyph glyph-name="Racute" unicode="&#x154;" horiz-adv-x="737" 
d="M624 896l-243 -136l-51 85l223 167zM255 0h-186v729h375q111 0 172 -58.5t61 -162.5q0 -59 -29 -106.5t-78 -72.5v-8q97 -28 97 -146v-85q0 -62 12 -90h-192q-11 24 -11 90v59q0 46 -21.5 68t-73.5 22h-126v-239zM255 570v-173h126q47 0 72 23t25 65q0 85 -94 85h-129z
" />
    <glyph glyph-name="racute" unicode="&#x155;" horiz-adv-x="405" 
d="M467 710l-243 -136l-51 85l223 167zM229 0h-176v541h153l22 -100h7q38 110 165 110v-152q-86 2 -128.5 -43t-42.5 -132v-224z" />
    <glyph glyph-name="uni0156" unicode="&#x156;" horiz-adv-x="737" 
d="M255 0h-186v729h375q111 0 172 -58.5t61 -162.5q0 -59 -29 -106.5t-78 -72.5v-8q97 -28 97 -146v-85q0 -62 12 -90h-192q-11 24 -11 90v59q0 46 -21.5 68t-73.5 22h-126v-239zM255 570v-173h126q47 0 72 23t25 65q0 85 -94 85h-129zM319 -310v49q55 0 55 49v22h-64v140
h137v-149q0 -111 -128 -111z" />
    <glyph glyph-name="uni0157" unicode="&#x157;" horiz-adv-x="405" 
d="M229 0h-176v541h153l22 -100h7q38 110 165 110v-152q-86 2 -128.5 -43t-42.5 -132v-224zM81 -310v49q55 0 55 49v22h-64v140h137v-149q0 -111 -128 -111z" />
    <glyph glyph-name="Rcaron" unicode="&#x158;" horiz-adv-x="737" 
d="M334 782l-148 144l82 80l114 -123l113 123l83 -80l-148 -144h-96zM255 0h-186v729h375q111 0 172 -58.5t61 -162.5q0 -59 -29 -106.5t-78 -72.5v-8q97 -28 97 -146v-85q0 -62 12 -90h-192q-11 24 -11 90v59q0 46 -21.5 68t-73.5 22h-126v-239zM255 570v-173h126
q47 0 72 23t25 65q0 85 -94 85h-129z" />
    <glyph glyph-name="rcaron" unicode="&#x159;" horiz-adv-x="405" 
d="M176 596l-148 144l82 80l114 -123l113 123l83 -80l-148 -144h-96zM229 0h-176v541h153l22 -100h7q38 110 165 110v-152q-86 2 -128.5 -43t-42.5 -132v-224z" />
    <glyph glyph-name="Sacute" unicode="&#x15a;" horiz-adv-x="675" 
d="M572 896l-243 -136l-51 85l223 167zM23 230h193q2 -43 35.5 -67.5t90.5 -24.5q48 0 75.5 19t27.5 51q0 26 -20 44q-7 7 -22 11q-15 6 -41 11l-107 22l-50 11q-17 4 -55 21q-35 16 -58 36q-56 54 -56 140q0 105 80 170q79 64 212 64q130 0 209 -60q81 -61 82 -159h-193
q-3 35 -31 54.5t-73 19.5q-42 0 -65 -16t-23 -44q0 -23 25 -44q15 -9 33 -13q3 0 11 -2t15 -4l7 -1l113 -22q206 -39 206 -215q0 -115 -84 -179q-83 -63 -224 -63t-227 66q-84 65 -86 174z" />
    <glyph glyph-name="sacute" unicode="&#x15b;" horiz-adv-x="541" 
d="M518 710l-243 -136l-51 85l223 167zM25 172h173q2 -59 75 -59q64 0 64 42q-3 23 -14.5 30.5t-36.5 10.5l-89 15q-164 29 -164 161q0 84 62 131.5t170 47.5q106 0 168.5 -46.5t65.5 -125.5h-173q0 49 -64 49q-53 0 -53 -40q0 -22 15 -30.5t48 -12.5l89 -14
q155 -24 155 -158q0 -86 -65.5 -134.5t-178.5 -48.5q-115 0 -181 50t-66 132z" />
    <glyph glyph-name="Scedilla" unicode="&#x15e;" horiz-adv-x="675" 
d="M644 232q0 -109 -76.5 -173t-209.5 -69l-16 -30q33 1 67 -20q33 -22 33 -67q0 -39 -23 -66.5t-57.5 -37.5t-74 -6.5t-71.5 20.5v80q44 -27 81 -20q37 6 37 42q0 24 -27 32.5t-54 -6.5v40l25 42q-116 13 -186 77q-68 63 -69 160h193q2 -43 35.5 -67.5t90.5 -24.5
q48 0 75.5 19t27.5 51q0 26 -20 44q-7 7 -22 11q-15 6 -41 11l-107 22l-50 11q-17 4 -55 21q-35 16 -58 36q-56 54 -56 140q0 105 80 170q79 64 212 64q130 0 209 -60q81 -61 82 -159h-193q-3 35 -31 54.5t-73 19.5q-42 0 -65 -16t-23 -44q0 -23 25 -44q15 -9 33 -13
q3 0 11 -2t15 -4l7 -1l113 -22q206 -39 206 -215z" />
    <glyph glyph-name="scedilla" unicode="&#x15f;" horiz-adv-x="541" 
d="M516 173q0 -82 -59.5 -130t-163.5 -53l-17 -31q33 1 67 -20q33 -22 33 -67q0 -39 -23 -66.5t-57.5 -37.5t-74 -6.5t-71.5 20.5v80q44 -27 81 -20q37 6 37 42q0 24 -27 32.5t-54 -6.5v40l26 44q-89 13 -138.5 60.5t-49.5 117.5h173q2 -59 75 -59q64 0 64 42
q-3 23 -14.5 30.5t-36.5 10.5l-89 15q-164 29 -164 161q0 84 62 131.5t170 47.5q106 0 168.5 -46.5t65.5 -125.5h-173q0 49 -64 49q-53 0 -53 -40q0 -22 15 -30.5t48 -12.5l89 -14q155 -24 155 -158z" />
    <glyph glyph-name="Scaron" unicode="&#x160;" horiz-adv-x="675" 
d="M282 782l-148 144l82 80l114 -123l113 123l83 -80l-148 -144h-96zM23 230h193q2 -43 35.5 -67.5t90.5 -24.5q48 0 75.5 19t27.5 51q0 26 -20 44q-7 7 -22 11q-15 6 -41 11l-107 22l-50 11q-17 4 -55 21q-35 16 -58 36q-56 54 -56 140q0 105 80 170q79 64 212 64
q130 0 209 -60q81 -61 82 -159h-193q-3 35 -31 54.5t-73 19.5q-42 0 -65 -16t-23 -44q0 -23 25 -44q15 -9 33 -13q3 0 11 -2t15 -4l7 -1l113 -22q206 -39 206 -215q0 -115 -84 -179q-83 -63 -224 -63t-227 66q-84 65 -86 174z" />
    <glyph glyph-name="scaron" unicode="&#x161;" horiz-adv-x="541" 
d="M228 596l-148 144l82 80l114 -123l113 123l83 -80l-148 -144h-96zM25 172h173q2 -59 75 -59q64 0 64 42q-3 23 -14.5 30.5t-36.5 10.5l-89 15q-164 29 -164 161q0 84 62 131.5t170 47.5q106 0 168.5 -46.5t65.5 -125.5h-173q0 49 -64 49q-53 0 -53 -40q0 -22 15 -30.5
t48 -12.5l89 -14q155 -24 155 -158q0 -86 -65.5 -134.5t-178.5 -48.5q-115 0 -181 50t-66 132z" />
    <glyph glyph-name="uni0162" unicode="&#x162;" horiz-adv-x="581" 
d="M381 568v-568h-72l-21 -40q33 1 67 -20q33 -22 33 -67q0 -39 -23 -66.5t-57.5 -37.5t-74 -6.5t-71.5 20.5v80q44 -27 81 -20q37 6 37 42q0 24 -27 32.5t-54 -6.5v40l29 49h-34v568h-187v161h567v-161h-193z" />
    <glyph glyph-name="uni0163" unicode="&#x163;" horiz-adv-x="406" 
d="M380 541v-142h-114v-202q0 -36 14.5 -51.5t46.5 -15.5q31 0 53 5v-135q-50 -10 -107 -10h-4l-12 -23q33 1 67 -20q33 -23 33 -67q0 -39 -23 -66.5t-57.5 -37.5t-74 -6.5t-71.5 20.5v80q44 -27 80 -20q38 6 38 42q0 24 -27 32.5t-54 -6.5v40l25 42q-66 19 -86 71
q-17 46 -17 103v225h-85v142h85v123l176 68v-191h114z" />
    <glyph glyph-name="Tcaron" unicode="&#x164;" horiz-adv-x="581" 
d="M487 926l-148 -144h-96l-148 144l82 80l114 -123l113 123zM7 729h567v-161h-193v-568h-187v568h-187v161z" />
    <glyph glyph-name="tcaron" unicode="&#x165;" horiz-adv-x="406" 
d="M136 747l-148 144l82 80l114 -123l113 123l83 -80l-148 -144h-96zM5 399v142h85v123l176 68v-191h114v-142h-114v-202q0 -36 14.5 -51.5t46.5 -15.5q31 0 53 5v-135q-50 -10 -107 -10q-90 0 -136 39q-19 16 -30 43q-17 41 -17 102v225h-85z" />
    <glyph glyph-name="Tbar" unicode="&#x166;" horiz-adv-x="581" 
d="M574 729v-161h-193v-134h128v-146h-128v-288h-187v288h-117v146h117v134h-187v161h567z" />
    <glyph glyph-name="tbar" unicode="&#x167;" horiz-adv-x="406" 
d="M381 353v-147h-115v-9q0 -36 14.5 -51.5t46.5 -15.5q31 0 53 5v-135q-50 -10 -107 -10q-90 0 -136 39q-19 16 -30 43q-17 41 -17 102v32h-85v147h85v46h-85v142h85v123l176 68v-191h114v-142h-114v-46h115z" />
    <glyph glyph-name="Umacron" unicode="&#x16a;" horiz-adv-x="770" 
d="M572 777h-376v132h376v-132zM63 282v447h185v-436q0 -66 35.5 -102t101.5 -36q64 0 100.5 36t36.5 102v436h186v-447q0 -137 -88 -215q-89 -77 -236 -77q-158 0 -239.5 77t-81.5 215z" />
    <glyph glyph-name="umacron" unicode="&#x16b;" horiz-adv-x="636" 
d="M506 591h-376v132h376v-132zM412 541h176v-541h-155l-22 99h-10q-51 -109 -172 -109q-89 0 -135.5 56.5t-46.5 158.5v336h177v-308q0 -100 86 -100q47 0 74.5 33.5t27.5 88.5v286z" />
    <glyph glyph-name="Uring" unicode="&#x16e;" horiz-adv-x="770" 
d="M481 909q38 -35 38 -92t-38 -93q-38 -35 -96 -35q-59 0 -97 35q-37 36 -37 93q0 58 37 92q38 36 97 36t96 -36zM427 817q3 28 -19.5 40t-44.5 0t-19 -40q-3 -28 19 -39.5t44.5 0t19.5 39.5zM63 282v447h185v-436q0 -66 35.5 -102t101.5 -36q64 0 100.5 36t36.5 102v436
h186v-447q0 -137 -88 -215q-89 -77 -236 -77q-158 0 -239.5 77t-81.5 215z" />
    <glyph glyph-name="uring" unicode="&#x16f;" horiz-adv-x="636" 
d="M417 541h171v-541h-155l-22 99h-10q-51 -109 -172 -109q-89 0 -135.5 56.5t-46.5 158.5v336h172q-35 35 -35 90q0 57 37.5 92.5t96.5 35.5t96.5 -35.5t37.5 -92.5q0 -55 -35 -90zM277 631q-3 -28 19 -39.5t44.5 0t19.5 39.5q3 28 -19.5 40t-44.5 0t-19 -40zM310 133
q47 0 74.5 33.5t27.5 88.5v281q-38 -33 -94 -33t-94 33v-303q0 -100 86 -100z" />
    <glyph glyph-name="Uhungarumlaut" unicode="&#x170;" horiz-adv-x="770" 
d="M492 901l-235 -136l-52 80l216 169zM750 901l-235 -136l-51 80l213 169zM63 282v447h185v-436q0 -66 35.5 -102t101.5 -36q64 0 100.5 36t36.5 102v436h186v-447q0 -137 -88 -215q-89 -77 -236 -77q-158 0 -239.5 77t-81.5 215z" />
    <glyph glyph-name="uhungarumlaut" unicode="&#x171;" horiz-adv-x="636" 
d="M426 715l-235 -136l-52 80l216 169zM684 715l-235 -136l-51 80l213 169zM412 541h176v-541h-155l-22 99h-10q-51 -109 -172 -109q-89 0 -135.5 56.5t-46.5 158.5v336h177v-308q0 -100 86 -100q47 0 74.5 33.5t27.5 88.5v286z" />
    <glyph glyph-name="Uogonek" unicode="&#x172;" horiz-adv-x="770" 
d="M522 293v436h186v-447q0 -111 -60 -184.5t-166 -97.5h-2l-24 -5q-68 -17 -68 -67q0 -44 64 -44q27 0 57 11v-89q-36 -17 -88 -17q-61 -1 -98 31t-37 84q0 53 34 90q-127 15 -192 90t-65 198v447h185v-436q0 -66 35.5 -102t101.5 -36q64 0 100.5 36t36.5 102z" />
    <glyph glyph-name="uogonek" unicode="&#x173;" horiz-adv-x="636" 
d="M558 -116q27 0 57 11v-89q-36 -17 -88 -17q-61 -1 -98 31t-37 84q0 58 41 96l-22 99h-10q-51 -109 -172 -109q-89 0 -135.5 56.5t-46.5 158.5v336h177v-308q0 -100 86 -100q47 0 74.5 33.5t27.5 88.5v286h176v-541q-94 -12 -94 -72q0 -44 64 -44z" />
    <glyph glyph-name="Wcircumflex" unicode="&#x174;" horiz-adv-x="1009" 
d="M407 764l-82 81l147 142h97l148 -142l-83 -81l-113 122zM154 0l-148 729h206l56 -344l25 -181h8l91 525h228l94 -527h8l22 180l54 347h205l-148 -729h-254l-91 476h-8l-93 -476h-255z" />
    <glyph glyph-name="wcircumflex" unicode="&#x175;" horiz-adv-x="812" 
d="M520 578l-113 122l-114 -122l-82 81l147 142h97l148 -142zM594 336l43 205h171l-134 -541h-214l-37 212l-17 105h-6l-17 -104l-37 -213h-209l-133 541h170l39 -203l30 -162h8l60 365h191l57 -367h6z" />
    <glyph glyph-name="Ycircumflex" unicode="&#x176;" horiz-adv-x="728" 
d="M250 764l-82 81l147 142h97l148 -142l-83 -81l-113 122zM270 273l-270 456h220l65 -138l75 -154h7l75 151l67 141h219l-271 -456v-273h-187v273z" />
    <glyph glyph-name="ycircumflex" unicode="&#x177;" horiz-adv-x="543" 
d="M151 579l-82 81l147 142h97l148 -142l-83 -81l-113 122zM186 41l-199 500h188l54 -188l40 -149h8l39 149l52 188h183l-192 -552q-32 -91 -93.5 -128.5t-168.5 -37.5q-41 0 -76 7v140q21 -4 61 -4q83 0 98 53z" />
    <glyph glyph-name="Ydieresis" unicode="&#x178;" horiz-adv-x="728" 
d="M321 776h-133v156h133v-156zM538 776h-133v156h133v-156zM270 273l-270 456h220l65 -138l75 -154h7l75 151l67 141h219l-271 -456v-273h-187v273z" />
    <glyph glyph-name="Zacute" unicode="&#x179;" horiz-adv-x="590" 
d="M442 1012l71 -116l-243 -136l-51 85zM20 729h547v-152l-317 -418h311v-159h-541v153l314 416h-314v160z" />
    <glyph glyph-name="zacute" unicode="&#x17a;" horiz-adv-x="500" 
d="M419 826l71 -116l-243 -136l-51 85zM463 541v-124l-214 -276h219v-141h-433v126l213 273h-216v142h431z" />
    <glyph glyph-name="Zdotaccent" unicode="&#x17b;" horiz-adv-x="590" 
d="M203 932h134v-156h-134v156zM20 729h547v-152l-317 -418h311v-159h-541v153l314 416h-314v160z" />
    <glyph glyph-name="zdotaccent" unicode="&#x17c;" horiz-adv-x="500" 
d="M181 746h134v-156h-134v156zM463 417l-214 -276h219v-141h-433v126l213 273h-216v142h431v-124z" />
    <glyph glyph-name="Zcaron" unicode="&#x17d;" horiz-adv-x="590" 
d="M467 926l-148 -144h-96l-148 144l82 80l114 -123l113 123zM20 729h547v-152l-317 -418h311v-159h-541v153l314 416h-314v160z" />
    <glyph glyph-name="zcaron" unicode="&#x17e;" horiz-adv-x="500" 
d="M444 740l-148 -144h-96l-148 144l82 80l114 -123l113 123zM463 417l-214 -276h219v-141h-433v126l213 273h-216v142h431v-124z" />
    <glyph glyph-name="uni018F" unicode="&#x18f;" horiz-adv-x="721" 
d="M360 739q155 0 243 -97q88 -95 88 -271t-89 -279q-88 -102 -246 -102q-152 0 -239 95q-86 97 -86 262q0 45 6 67h454q0 80 -35.5 121t-101.5 41q-50 0 -84 -23.5t-46 -65.5h-188q25 120 110 186t214 66zM356 148q56 0 90.5 32.5t42.5 92.5h-257q9 -125 124 -125z" />
    <glyph glyph-name="florin" unicode="&#x192;" horiz-adv-x="627" 
d="M602 729v-141h-154l-17 -122h103v-140h-123l-26 -194l-16 -124q-7 -59 -37 -99q-35 -49 -131 -49h-163v141h153l19 131l26 194h-99v140h118v-3l17 119q10 69 45 108t122 39h163z" />
    <glyph glyph-name="AEacute" unicode="&#x1fc;" horiz-adv-x="999" 
d="M737 1012l71 -116l-243 -136l-51 85zM955 729v-159h-328v-134h275v-148h-275v-129h328v-159h-515v152h-206l-44 -152h-193l225 729h733zM275 295h165v275h-86z" />
    <glyph glyph-name="Oslashacute" unicode="&#x1fe;" horiz-adv-x="804" 
d="M606 1012l71 -116l-243 -136l-51 85zM715 676l78 -110l-63 -45q25 -68 25 -156q0 -180 -97 -277q-98 -98 -263 -98q-166 0 -262 99l-53 -38l-69 116l52 38q-26 73 -26 160q0 178 97 275q98 98 261 98q170 0 266 -101zM234 365q0 -4 2 -36l273 198q-43 49 -114 49
q-75 0 -118 -57t-43 -154zM559 365q0 24 -1 31l-273 -197q43 -46 110 -46q78 0 121 57t43 155z" />
    <glyph glyph-name="oslashacute" unicode="&#x1ff;" horiz-adv-x="631" 
d="M485 826l71 -116l-243 -136l-51 85zM561 519l62 -91l-56 -41q21 -53 21 -117q0 -125 -76 -202q-75 -77 -199 -77q-116 0 -193 71l-51 -37l-61 90l52 38q-22 54 -22 118q0 125 76 202q77 78 199 78q119 0 193 -72zM217 270v-2l156 114q-23 26 -62 26q-44 0 -69 -37.5
t-25 -100.5zM408 271v1l-155 -113q25 -25 60 -25q45 0 70 37t25 100z" />
    <glyph glyph-name="uni0218" unicode="&#x218;" horiz-adv-x="675" 
d="M23 230h193q2 -43 35.5 -67.5t90.5 -24.5q48 0 75.5 19t27.5 51q0 26 -20 44q-7 7 -22 11q-15 6 -41 11l-107 22l-50 11q-17 4 -55 21q-35 16 -58 36q-56 54 -56 140q0 105 80 170q79 64 212 64q130 0 209 -60q81 -61 82 -159h-193q-3 35 -31 54.5t-73 19.5
q-42 0 -65 -16t-23 -44q0 -23 25 -44q15 -9 33 -13q3 0 11 -2t15 -4l7 -1l113 -22q206 -39 206 -215q0 -115 -84 -179q-83 -63 -224 -63t-227 66q-84 65 -86 174zM282 -310v49q55 0 55 49v22h-64v140h137v-149q0 -111 -128 -111z" />
    <glyph glyph-name="uni0219" unicode="&#x219;" horiz-adv-x="541" 
d="M25 172h173q2 -59 75 -59q64 0 64 42q-3 23 -14.5 30.5t-36.5 10.5l-89 15q-164 29 -164 161q0 84 62 131.5t170 47.5q106 0 168.5 -46.5t65.5 -125.5h-173q0 49 -64 49q-53 0 -53 -40q0 -22 15 -30.5t48 -12.5l89 -14q155 -24 155 -158q0 -86 -65.5 -134.5t-178.5 -48.5
q-115 0 -181 50t-66 132zM216 -312v49q55 0 55 49v22h-64v140h137v-149q0 -111 -128 -111z" />
    <glyph glyph-name="uni021A" unicode="&#x21a;" horiz-adv-x="581" 
d="M7 729h567v-161h-193v-568h-187v568h-187v161zM283 -190h-64v140h137v-149q0 -111 -128 -111v49q55 0 55 49v22z" />
    <glyph glyph-name="uni021B" unicode="&#x21b;" horiz-adv-x="406" 
d="M5 399v142h85v123l176 68v-191h114v-142h-114v-202q0 -36 14.5 -51.5t46.5 -15.5q31 0 53 5v-135q-50 -10 -107 -10q-90 0 -136 39q-19 16 -30 43q-17 41 -17 102v225h-85zM197 -303v49q55 0 55 49v22h-64v140h137v-149q0 -111 -128 -111z" />
    <glyph glyph-name="uni0237" unicode="&#x237;" horiz-adv-x="280" 
d="M34 -184q-52 0 -82 6v126q24 -2 26 -2q55 0 66 21q9 16 9 56v8v510h175v-523q0 -88 -36 -140q-42 -62 -158 -62z" />
    <glyph glyph-name="circumflex" unicode="&#x2c6;" horiz-adv-x="384" 
d="M79 713l-82 81l147 142h97l148 -142l-83 -81l-113 122z" />
    <glyph glyph-name="caron" unicode="&#x2c7;" horiz-adv-x="384" 
d="M145 730l-148 144l82 80l114 -123l113 123l83 -80l-148 -144h-96z" />
    <glyph glyph-name="breve" unicode="&#x2d8;" horiz-adv-x="348" 
d="M238 891h106q0 -75 -46 -122t-125 -47q-78 0 -123 47t-45 122h105q0 -35 16.5 -54t46.5 -19q31 0 48 19t17 54z" />
    <glyph glyph-name="dotaccent" unicode="&#x2d9;" horiz-adv-x="234" 
d="M184 731h-134v156h134v-156z" />
    <glyph glyph-name="ring" unicode="&#x2da;" horiz-adv-x="338" 
d="M269 892q38 -35 38 -92t-38 -93q-38 -35 -96 -35q-59 0 -97 35q-37 36 -37 93q0 58 37 92q38 36 97 36t96 -36zM215 800q3 28 -19.5 40t-44.5 0t-19 -40q-3 -28 19 -39.5t44.5 0t19.5 39.5z" />
    <glyph glyph-name="ogonek" unicode="&#x2db;" horiz-adv-x="402" 
d="M69 -96q0 61 43.5 98.5t117.5 44.5l35 -47q-94 -12 -94 -72q0 -44 64 -44q27 0 57 11v-89q-36 -17 -88 -17q-61 -1 -98 31t-37 84z" />
    <glyph glyph-name="tilde" unicode="&#x2dc;" horiz-adv-x="356" 
d="M240 721q-30 2 -65 20q-38 20 -59 20q-28 0 -63 -38l-69 46q44 113 132 111q31 0 66 -19t59 -19q38 0 57 35l3 4l71 -44q-41 -116 -132 -116z" />
    <glyph glyph-name="hungarumlaut" unicode="&#x2dd;" horiz-adv-x="600" 
d="M325 849l-235 -136l-52 80l216 169zM583 849l-235 -136l-51 80l213 169z" />
    <glyph glyph-name="gravecomb" unicode="&#x300;" 
d="M-74 797l-51 -84l-243 135l71 116z" />
    <glyph glyph-name="acutecomb" unicode="&#x301;" 
d="M-41 844l-243 -136l-51 85l223 167z" />
    <glyph glyph-name="uni0302" unicode="&#x302;" 
d="M-305 713l-82 81l147 142h97l148 -142l-83 -81l-113 122z" />
    <glyph glyph-name="tildecomb" unicode="&#x303;" 
d="M-116 721q-30 2 -65 20q-38 20 -59 20q-28 0 -63 -38l-69 46q44 113 132 111q31 0 66 -19t59 -19q38 0 57 35l3 4l71 -44q-41 -116 -132 -116z" />
    <glyph glyph-name="uni0304" unicode="&#x304;" 
d="M10 727h-376v132h376v-132z" />
    <glyph glyph-name="uni0306" unicode="&#x306;" 
d="M-110 891h106q0 -75 -46 -122t-125 -47q-78 0 -123 47t-45 122h105q0 -35 16.5 -54t46.5 -19q31 0 48 19t17 54z" />
    <glyph glyph-name="uni0307" unicode="&#x307;" 
d="M-50 731h-134v156h134v-156z" />
    <glyph glyph-name="uni0308" unicode="&#x308;" 
d="M-260 731h-133v156h133v-156zM-43 731h-133v156h133v-156z" />
    <glyph glyph-name="uni030A" unicode="&#x30a;" 
d="M-68 892q37 -34 37 -92q0 -57 -37 -93q-38 -35 -97 -35q-58 0 -96 35q-38 36 -38 93t38 92q37 36 96 36t97 -36zM-123 800q3 28 -19.5 40t-44.5 0t-19 -40q-3 -28 19 -39.5t44.5 0t19.5 39.5z" />
    <glyph glyph-name="uni030B" unicode="&#x30b;" 
d="M-275 849l-235 -136l-52 80l216 169zM-17 849l-235 -136l-51 80l213 169z" />
    <glyph glyph-name="uni030C" unicode="&#x30c;" 
d="M-239 730l-148 144l82 80l114 -123l113 123l83 -80l-148 -144h-96z" />
    <glyph glyph-name="uni0312" unicode="&#x312;" 
d="M-57 1003v-49q-56 0 -56 -49v-33h64v-140h-137v160q0 111 129 111z" />
    <glyph glyph-name="uni0326" unicode="&#x326;" 
d="M-173 -291v49q55 0 55 49v22h-64v140h137v-149q0 -111 -128 -111z" />
    <glyph glyph-name="uni0327" unicode="&#x327;" 
d="M-196 14l-29 -54q33 1 67 -20q33 -22 33 -67q0 -39 -23 -66.5t-57.5 -37.5t-74 -6.5t-71.5 20.5v80q44 -27 81 -20q37 6 37 42q0 24 -27 32.5t-54 -6.5v40l51 85h67v-22z" />
    <glyph glyph-name="uni0328" unicode="&#x328;" 
d="M-333 -96q0 61 43.5 98.5t117.5 44.5l35 -47q-94 -12 -94 -72q0 -44 64 -44q27 0 57 11v-89q-36 -17 -88 -17q-61 -1 -98 31t-37 84z" />
    <glyph glyph-name="uni0335" unicode="&#x335;" 
d="M-80 295h-433v132h433v-132z" />
    <glyph glyph-name="uni0336" unicode="&#x336;" 
 />
    <glyph glyph-name="uni0337" unicode="&#x337;" 
d="M-265 0h-90l268 729h91z" />
    <glyph glyph-name="uni0338" unicode="&#x338;" 
d="M-265 0h-90l268 729h91z" />
    <glyph glyph-name="uni03BC" unicode="&#x3bc;" horiz-adv-x="619" 
d="M210 -173h-158l2 714h175v-338q0 -37 21 -58.5t56 -21.5q39 0 62 24t23 64v330h176v-541h-168l3 57h-10q-15 -67 -102 -67q-49 0 -70 27h-10v-190z" />
    <glyph glyph-name="pi" unicode="&#x3c0;" horiz-adv-x="632" 
d="M617 123v-116q-51 -13 -85 -13q-101 0 -134 52q-29 46 -29 112v266h-105v-424h-172v424h-78v117h604v-117h-77v-256q0 -48 47 -48q22 0 29 3z" />
    <glyph glyph-name="omega" unicode="&#x3c9;" horiz-adv-x="770" 
d="M692 0h-277v264q59 12 95.5 58t36.5 110q0 71 -45 114.5t-118 43.5t-117.5 -44.5t-44.5 -115.5q0 -63 36.5 -108t96.5 -58v-264h-279v139h138v28q-78 31 -126 105q-47 74 -47 161q0 140 91 222q92 84 252 84q156 0 251 -81q94 -81 94 -225q0 -87 -48 -161t-126 -105v-28
h137v-139z" />
    <glyph glyph-name="Wgrave" unicode="&#x1e80;" horiz-adv-x="1009" 
d="M571 849l-51 -84l-243 135l71 116zM154 0l-148 729h206l56 -344l25 -181h8l91 525h228l94 -527h8l22 180l54 347h205l-148 -729h-254l-91 476h-8l-93 -476h-255z" />
    <glyph glyph-name="wgrave" unicode="&#x1e81;" horiz-adv-x="812" 
d="M234 830l223 -167l-51 -84l-243 135zM594 336l43 205h171l-134 -541h-214l-37 212l-17 105h-6l-17 -104l-37 -213h-209l-133 541h170l39 -203l30 -162h8l60 365h191l57 -367h6z" />
    <glyph glyph-name="Wacute" unicode="&#x1e82;" horiz-adv-x="1009" 
d="M763 896l-243 -136l-51 85l223 167zM154 0l-148 729h206l56 -344l25 -181h8l91 525h228l94 -527h8l22 180l54 347h205l-148 -729h-254l-91 476h-8l-93 -476h-255z" />
    <glyph glyph-name="wacute" unicode="&#x1e83;" horiz-adv-x="812" 
d="M578 826l71 -116l-243 -136l-51 85zM594 336l43 205h171l-134 -541h-214l-37 212l-17 105h-6l-17 -104l-37 -213h-209l-133 541h170l39 -203l30 -162h8l60 365h191l57 -367h6z" />
    <glyph glyph-name="Wdieresis" unicode="&#x1e84;" horiz-adv-x="1009" 
d="M478 776h-133v156h133v-156zM695 776h-133v156h133v-156zM154 0l-148 729h206l56 -344l25 -181h8l91 525h228l94 -527h8l22 180l54 347h205l-148 -729h-254l-91 476h-8l-93 -476h-255z" />
    <glyph glyph-name="wdieresis" unicode="&#x1e85;" horiz-adv-x="812" 
d="M231 746h133v-156h-133v156zM448 746h133v-156h-133v156zM594 336l43 205h171l-134 -541h-214l-37 212l-17 105h-6l-17 -104l-37 -213h-209l-133 541h170l39 -203l30 -162h8l60 365h191l57 -367h6z" />
    <glyph glyph-name="Ygrave" unicode="&#x1ef2;" horiz-adv-x="728" 
d="M414 849l-51 -84l-243 135l71 116zM270 273l-270 456h220l65 -138l75 -154h7l75 151l67 141h219l-271 -456v-273h-187v273z" />
    <glyph glyph-name="ygrave" unicode="&#x1ef3;" horiz-adv-x="543" 
d="M316 664l-51 -84l-243 135l71 116zM186 41l-199 500h188l54 -188l40 -149h8l39 149l52 188h183l-192 -552q-32 -91 -93.5 -128.5t-168.5 -37.5q-41 0 -76 7v140q21 -4 61 -4q83 0 98 53z" />
    <glyph glyph-name="endash" unicode="&#x2013;" horiz-adv-x="654" 
d="M599 253h-545v94h545v-94z" />
    <glyph glyph-name="emdash" unicode="&#x2014;" horiz-adv-x="850" 
d="M795 253h-741v94h741v-94z" />
    <glyph glyph-name="quoteleft" unicode="&#x2018;" horiz-adv-x="242" 
d="M206 731v-60q-95 0 -95 -79v-6h78v-166h-161v163q0 69 48 108.5t130 39.5z" />
    <glyph glyph-name="quoteright" unicode="&#x2019;" horiz-adv-x="241" 
d="M34 427v60q95 0 95 79v6h-78v166h161v-163q0 -69 -48 -108.5t-130 -39.5z" />
    <glyph glyph-name="quotesinglbase" unicode="&#x201a;" horiz-adv-x="241" 
d="M34 -145v60q96 0 96 79v6h-78v165h161v-163q0 -69 -48.5 -108t-130.5 -39z" />
    <glyph glyph-name="quotedblleft" unicode="&#x201c;" horiz-adv-x="495" 
d="M209 731v-60q-96 0 -96 -79v-6h79v-166h-161v163q0 69 48 108.5t130 39.5zM459 731v-60q-95 0 -95 -79v-6h78v-166h-161v163q0 69 48 108.5t130 39.5z" />
    <glyph glyph-name="quotedblright" unicode="&#x201d;" horiz-adv-x="488" 
d="M39 427v60q96 0 96 79v6h-78v166h160v-163q0 -69 -48 -108.5t-130 -39.5zM283 427v60q96 0 96 79v6h-78v166h160v-163q0 -69 -48 -108.5t-130 -39.5z" />
    <glyph glyph-name="quotedblbase" unicode="&#x201e;" horiz-adv-x="464" 
d="M33 -145v60q96 0 96 79v6h-78v165h160v-163q0 -69 -48 -108t-130 -39zM256 -145v60q96 0 96 79v6h-78v165h160v-163q0 -69 -48 -108t-130 -39z" />
    <glyph glyph-name="dagger" unicode="&#x2020;" horiz-adv-x="432" 
d="M273 727v-335h142v-104h-142v-134h-115v134h-140v104h140v335h115z" />
    <glyph glyph-name="daggerdbl" unicode="&#x2021;" horiz-adv-x="432" 
d="M273 494v-102h142v-104h-142v-134h-115v134h-140v104h140v102h-140v102h140v131h115v-131h140v-102h-140z" />
    <glyph glyph-name="bullet" unicode="&#x2022;" horiz-adv-x="393" 
d="M198 438q66 0 109 -46q44 -47 44 -115t-44 -114q-44 -44 -109 -44q-69 0 -112.5 44t-43.5 114q0 71 43 115q43 46 113 46z" />
    <glyph glyph-name="ellipsis" unicode="&#x2026;" horiz-adv-x="814" 
d="M223 0h-161v178h161v-178zM487 0h-160v178h160v-178zM753 0h-161v178h161v-178z" />
    <glyph glyph-name="perthousand" unicode="&#x2030;" horiz-adv-x="1312" 
d="M49 556q0 78 50 130q51 52 132 52q82 0 133 -52q51 -51 51 -132q0 -79 -52 -131q-51 -52 -132 -52q-79 0 -131 52q-51 53 -51 133zM258 0h-78l463 729h80zM158 557q0 -38 20 -62t53 -24t53.5 24t20.5 62q0 36 -20.5 58.5t-53.5 22.5q-32 0 -52.5 -22.5t-20.5 -58.5z
M482 175q0 79 51 130q51 52 132 52q83 0 132 -52q50 -53 50 -132t-51 -132q-50 -51 -131 -51q-79 0 -131 52t-52 133zM896 175q0 79 51 130q51 52 132 52q82 0 131 -52q51 -53 51 -132t-51 -132q-50 -51 -131 -51q-80 0 -132 52q-51 52 -51 133zM591 176q0 -38 20.5 -62
t53.5 -24t54 24t21 62q0 36 -21 59t-54 23q-32 0 -53 -23t-21 -59zM1005 176q0 -37 20.5 -61.5t53.5 -24.5t53.5 24t20.5 62q0 36 -21 59t-53 23q-33 0 -53.5 -23t-20.5 -59z" />
    <glyph glyph-name="guilsinglleft" unicode="&#x2039;" horiz-adv-x="317" 
d="M140 56l-119 218l119 216h149l-110 -216l110 -218h-149z" />
    <glyph glyph-name="guilsinglright" unicode="&#x203a;" horiz-adv-x="316" 
d="M178 490l117 -216l-117 -218h-150l109 218l-109 216h150z" />
    <glyph glyph-name="fraction" unicode="&#x2044;" horiz-adv-x="263" 
d="M-10 -46h-132l414 814h133z" />
    <glyph glyph-name="uni2070" unicode="&#x2070;" horiz-adv-x="495" 
d="M246 295q-105 0 -160.5 77t-55.5 212q0 138 58 211.5t161 73.5q105 0 160 -76t55 -211q0 -139 -57.5 -213t-160.5 -74zM246 410q44 0 62 40.5t18 127.5q0 97 -19 137.5t-58 40.5q-45 0 -63 -41t-18 -127q0 -178 78 -178z" />
    <glyph glyph-name="uni2074" unicode="&#x2074;" horiz-adv-x="496" 
d="M409 862v-347h67v-108h-67v-107h-131v107h-254v99l191 356h194zM278 738l-120 -223h120v223z" />
    <glyph glyph-name="uni2075" unicode="&#x2075;" horiz-adv-x="479" 
d="M264 680q84 0 135 -53t51 -137q0 -90 -57.5 -144t-155.5 -54q-95 0 -153 51q-57 51 -57 134h134q0 -31 20.5 -50.5t55.5 -19.5t57 22.5t22 56.5q0 37 -22.5 60.5t-58.5 23.5q-27 0 -46.5 -12.5t-25.5 -33.5h-126l16 338h356v-114h-240l-4 -91l6 -2q31 25 93 25z" />
    <glyph glyph-name="uni2076" unicode="&#x2076;" horiz-adv-x="484" 
d="M251 293q-107 0 -163.5 75.5t-56.5 214.5q0 138 56.5 212t164.5 74q83 0 135 -40t60 -109h-134q-11 39 -65 39q-92 0 -84 -129h6q32 51 110 51q79 0 128 -52t49 -136q0 -90 -57 -146q-56 -54 -149 -54zM253 407q32 0 52.5 23t20.5 61q0 37 -20.5 60t-52.5 23
q-33 0 -54 -24t-21 -61q0 -38 20.5 -60t54.5 -22z" />
    <glyph glyph-name="uni2077" unicode="&#x2077;" horiz-adv-x="439" 
d="M116 658h-105v204h413v-95q-74 -100 -134 -228q-58 -123 -76 -239h-142q15 108 68 228q52 118 127 220h-151v-90z" />
    <glyph glyph-name="uni2078" unicode="&#x2078;" horiz-adv-x="477" 
d="M27 452q0 90 80 126v7q-80 35 -80 126q0 74 57.5 116t155.5 42t154 -42.5t56 -115.5q0 -90 -79 -126v-7q79 -36 79 -127q0 -74 -57 -116.5t-155 -42.5q-99 0 -155 43.5t-56 116.5zM163 694q0 -27 21.5 -43t54.5 -16q34 0 54 16.5t20 42.5q0 28 -20 45t-54 17
q-36 0 -56 -17t-20 -45zM163 467q0 -28 21.5 -45t54.5 -17t53.5 17.5t20.5 44.5q0 28 -20 45t-54 17q-35 0 -55.5 -17t-20.5 -45z" />
    <glyph glyph-name="uni2079" unicode="&#x2079;" horiz-adv-x="480" 
d="M230 293q-81 0 -133.5 40.5t-61.5 109.5h134q10 -40 64 -40q91 0 84 130h-6q-33 -51 -111 -51q-79 0 -128 52t-49 136q0 90 57 144q56 55 150 55q107 0 163 -75t56 -215q0 -141 -55.5 -213.5t-163.5 -72.5zM303 674q0 37 -20.5 59t-53.5 22t-53.5 -23t-20.5 -61
q0 -37 20.5 -60t53.5 -23t53.5 24t20.5 62z" />
    <glyph glyph-name="uni2080" unicode="&#x2080;" horiz-adv-x="495" 
d="M246 -105q-105 0 -160.5 77t-55.5 212q0 138 58 211.5t161 73.5q105 0 160 -76t55 -211q0 -139 -57.5 -213t-160.5 -74zM246 10q44 0 62 40.5t18 127.5q0 97 -19 137.5t-58 40.5q-45 0 -63 -41t-18 -127q0 -178 78 -178z" />
    <glyph glyph-name="uni2081" unicode="&#x2081;" horiz-adv-x="347" 
d="M152 261h-147v101h25q54 0 90 27.5t39 72.5h124v-562h-131v361z" />
    <glyph glyph-name="uni2082" unicode="&#x2082;" horiz-adv-x="459" 
d="M201 12l66 3h163v-115h-392v19q0 119 89 197q16 14 54 43.5t56.5 45.5t35.5 41.5t17 49.5q0 28 -17.5 44t-47.5 16q-33 0 -51 -21t-15 -57h-133q2 89 57.5 140t146.5 51q90 0 144 -48t54 -126q0 -49 -26 -94t-64 -73q-15 -11 -76 -59q-41 -31 -61 -57z" />
    <glyph glyph-name="uni2083" unicode="&#x2083;" horiz-adv-x="475" 
d="M237 -108q-94 0 -149 49q-56 50 -55 129h133q-1 -28 19.5 -46.5t55.5 -18.5q33 0 52.5 18.5t19.5 49.5q0 62 -79 62h-62v104h49q79 0 79 61q0 26 -17.5 41t-47.5 15q-34 0 -53.5 -17.5t-17.5 -45.5h-133q-5 80 53 128q57 48 154 48q88 0 142 -42q55 -42 55 -110
q0 -85 -75 -119v-5q88 -36 88 -134q0 -73 -59 -120t-152 -47z" />
    <glyph glyph-name="uni2084" unicode="&#x2084;" horiz-adv-x="496" 
d="M409 462v-347h67v-108h-67v-107h-131v107h-254v99l191 356h194zM278 338l-120 -223h120v223z" />
    <glyph glyph-name="uni2085" unicode="&#x2085;" horiz-adv-x="479" 
d="M264 280q84 0 135 -53q51 -52 51 -137q0 -90 -57.5 -144t-155.5 -54q-95 0 -153 51q-57 51 -57 134h134q0 -31 20.5 -50.5t55.5 -19.5t57 22.5t22 56.5q0 37 -22.5 60.5t-58.5 23.5q-27 0 -46.5 -12.5t-25.5 -33.5h-126l16 338h356v-114h-240l-4 -91l6 -2q31 25 93 25z
" />
    <glyph glyph-name="uni2086" unicode="&#x2086;" horiz-adv-x="484" 
d="M251 -107q-107 0 -163.5 75.5t-56.5 214.5q0 138 56.5 212t164.5 74q83 0 135 -40t60 -109h-134q-11 39 -65 39q-92 0 -84 -129h6q32 51 110 51q79 0 128 -52t49 -136q0 -91 -57 -145q-55 -55 -149 -55zM253 7q32 0 52.5 23t20.5 61q0 37 -20.5 60t-52.5 23
q-33 0 -54 -24t-21 -61q0 -38 20.5 -60t54.5 -22z" />
    <glyph glyph-name="uni2087" unicode="&#x2087;" horiz-adv-x="439" 
d="M116 258h-105v204h413v-95q-74 -100 -134 -228q-58 -123 -76 -239h-142q15 111 67 228q53 119 128 220h-151v-90z" />
    <glyph glyph-name="uni2088" unicode="&#x2088;" horiz-adv-x="477" 
d="M27 52q0 90 80 126v7q-80 35 -80 126q0 74 57.5 116t155.5 42t154 -42.5t56 -115.5q0 -90 -79 -126v-7q79 -36 79 -127q0 -74 -57 -116.5t-155 -42.5q-99 0 -155 43.5t-56 116.5zM163 294q0 -27 21.5 -43t54.5 -16q34 0 54 16.5t20 42.5q0 28 -20 45t-54 17
q-36 0 -56 -17t-20 -45zM163 67q0 -28 21.5 -45t54.5 -17t53.5 17.5t20.5 44.5q0 28 -20 45t-54 17q-35 0 -55.5 -17t-20.5 -45z" />
    <glyph glyph-name="uni2089" unicode="&#x2089;" horiz-adv-x="480" 
d="M230 -107q-81 0 -133.5 40.5t-61.5 109.5h134q10 -40 64 -40q91 0 84 130h-6q-33 -51 -111 -51q-79 0 -128 52t-49 136q0 90 57 144q56 55 150 55q107 0 163 -75t56 -215q0 -141 -55.5 -213.5t-163.5 -72.5zM303 274q0 37 -20.5 59t-53.5 22t-53.5 -23t-20.5 -61
q0 -37 20.5 -60t53.5 -23t53.5 24t20.5 62z" />
    <glyph glyph-name="uni20A6" unicode="&#x20a6;" horiz-adv-x="758" 
d="M670 417h87v-106h-87v-311h-206l-134 311h-75l1 -33v-278h-176v311h-80v106h80v312h206l134 -312h76l-1 37v275h175v-312zM248 484l3 -67h34l-29 67h-8zM495 241h7l-2 70h-35z" />
    <glyph glyph-name="uni20A9" unicode="&#x20a9;" horiz-adv-x="916" 
d="M834 417h76v-106h-95l-58 -311h-258l-11 224l-11 87h-47l-10 -85l-7 -226h-255l-57 311h-95v106h75l-57 312h192l41 -312h61l41 312h184l45 -312h63l39 312h202zM449 461l-5 -44h19l-6 44h-8zM284 185h6l15 126h-35zM620 183h7l12 128h-36z" />
    <glyph glyph-name="uni20AA" unicode="&#x20aa;" horiz-adv-x="829" 
d="M433 177v413h-212v-590h-141v729h350q73 0 108 -32.5t35 -111.5v-408h-140zM608 140v589h142v-729h-350q-73 0 -108.5 32.5t-35.5 111.5v409h141v-413h211z" />
    <glyph glyph-name="Euro" unicode="&#x20ac;" horiz-adv-x="736" 
d="M505 223h195q-20 -107 -99 -170q-80 -62 -200 -62q-118 0 -198 62.5t-110 175.5h-69v109h53q-1 6 -1 27q0 22 1 28h-53v108h69q31 114 111 175.5t197 61.5q120 0 200 -62.5t99 -168.5h-195q-22 70 -104 70q-80 0 -113 -76h181l-13 -108h-191q-1 -6 -1 -28q0 -21 1 -27
h184l-17 -109h-144q34 -76 113 -76t104 70z" />
    <glyph glyph-name="uni20B2" unicode="&#x20b2;" horiz-adv-x="691" 
d="M315 290v126h320v-48q0 -133 -67 -211.5t-186 -91.5v-77h-108v80q-115 17 -179.5 96.5t-64.5 205.5q0 128 65 211t179 103v78h108v-74q101 -10 166 -67.5t77 -146.5h-191q-15 60 -96 60q-59 0 -89 -40.5t-30 -116.5q0 -79 32 -120.5t90 -41.5q46 0 76 20t38 55h-140z" />
    <glyph glyph-name="uni20B8" unicode="&#x20b8;" horiz-adv-x="578" 
d="M7 590v139h564v-139h-564zM200 378h-193v152h564v-152h-197v-378h-174v378z" />
    <glyph glyph-name="uni20B9" unicode="&#x20b9;" horiz-adv-x="559" 
d="M515 729v-109h-113q30 -45 39 -97h74v-109h-77q-13 -56 -50.5 -96.5t-92.5 -57.5v-7q35 -11 51 -30q19 -20 42 -64l6 -12l77 -147h-195l-83 153q-14 27 -22 36q-22 30 -80 30h-92v142h147q71 0 97 53h-244v109h242q-28 49 -95 49h-147v157h516z" />
    <glyph glyph-name="uni20BA" unicode="&#x20ba;" horiz-adv-x="675" 
d="M467 352h182q-28 -160 -140 -255q-109 -94 -284 -96l-142 -1v242l-78 -31v133l78 31v69l-78 -30v131l78 33v151h175v-83l120 50v-132l-120 -52v-69l120 51v-133l-120 -50v-142q75 1 131 50.5t78 132.5z" />
    <glyph glyph-name="uni20BC" unicode="&#x20bc;" horiz-adv-x="805" 
d="M217 0h-177v316q0 303 272 333v80h179v-80q273 -31 273 -333v-316h-177v316q0 144 -96 163v-479h-179v479q-95 -15 -95 -163v-316z" />
    <glyph glyph-name="uni20BD" unicode="&#x20bd;" horiz-adv-x="656" 
d="M371 236h-108v-40h149v-107h-149v-89h-175v89h-79v107h79v41h-79v119h79v373h282q118 0 192 -69t74 -179q0 -108 -74 -177q-74 -68 -191 -68zM450 480q0 92 -111 92h-76v-187h76q54 0 82.5 25.5t28.5 69.5z" />
    <glyph glyph-name="uni20BF" unicode="&#x20bf;" horiz-adv-x="731" 
d="M622 234q0 -68 -44 -121t-133 -63v-62h-107v60h-53v-60h-107v60h-69v655h69v59h107v-59h53v59h107v-63q76 -13 118 -59.5t42 -116.5q0 -92 -76 -135q45 -19 69 -59.5t24 -94.5zM351 574h-64v-129h64q30 0 49 19t19 51q0 27 -19 43t-49 16zM353 319h-66v-142h66
q12 0 24.5 3t26.5 10t22.5 22.5t8.5 38.5q0 35 -24 51.5t-58 16.5z" />
    <glyph glyph-name="uni2105" unicode="&#x2105;" horiz-adv-x="938" 
d="M274 490h121q-6 -63 -55.5 -101t-127.5 -38q-85 0 -136.5 52t-51.5 141t53 142q55 53 142 53q72 0 120.5 -39t56.5 -102h-123q-4 19 -20 30t-37 11q-70 0 -70 -95t70 -95q22 0 38 11t20 30zM283 0h-102l465 729h102zM723 381q85 0 138 -54q53 -55 53 -140t-53 -140
q-53 -53 -138 -53q-86 0 -139 53q-52 53 -52 140q0 85 53 140q53 54 138 54zM653 187q0 -44 19.5 -69.5t50.5 -25.5q32 0 50.5 26t18.5 70q0 42 -19 68t-51 26t-50.5 -26t-18.5 -69z" />
    <glyph glyph-name="uni2116" unicode="&#x2116;" horiz-adv-x="1424" 
d="M810 487q0 105 72 175q72 72 183 72q110 0 182 -72q73 -70 73 -175q0 -103 -72 -175q-73 -71 -183 -71t-183 71q-72 72 -72 175zM255 0h-186v729h213l260 -463h8l-11 205v258h185v-729h-213l-258 458h-8l10 -198v-260zM989 487q0 -50 20 -77t56 -27q38 0 57 29t19 75
q0 50 -21 78t-55 28q-38 0 -57 -30t-19 -76zM865 1v139h401v-139h-401z" />
    <glyph glyph-name="uni2117" unicode="&#x2117;" horiz-adv-x="885" 
d="M443 -77q-165 0 -293 115q-59 55 -93.5 135.5t-34.5 169.5q0 121 59 219q59 97 154.5 149t207.5 52q170 0 294 -118q125 -119 125 -299q0 -181 -125 -303q-125 -120 -294 -120zM818 347q0 163 -110 270t-265 107q-156 0 -267 -108q-111 -106 -111 -273q0 -165 111 -273
t267 -108q155 0 265 108q110 110 110 277zM397 126h-102v427h226q69 0 110 -38.5t41 -102.5q0 -63 -41 -102.5t-110 -39.5h-124v-144zM395 469v-119h110q29 0 46.5 17t17.5 45q0 25 -18.5 41t-45.5 16h-110z" />
    <glyph glyph-name="trademark" unicode="&#x2122;" horiz-adv-x="639" 
d="M88 667h-80v68h240v-68h-84v-244h-76v244zM456 575l70 160h93v-312h-73v120l4 85h-3l-92 -200l-92 200h-5l6 -85v-120h-74v312h94l70 -160h2z" />
    <glyph glyph-name="estimated" unicode="&#x212e;" horiz-adv-x="738" 
d="M668 230h46q-27 -108 -120 -174q-94 -65 -222 -65q-162 0 -260 102q-97 101 -97 266t99 267q100 103 266 103q152 0 243 -88q91 -87 99 -246q1 -14 1 -57h-600v-185q35 -59 102 -91.5t149 -32.5q107 0 187 55q81 56 107 146zM123 561v-187h493v205q-88 111 -249 108
q-159 -3 -244 -126z" />
    <glyph glyph-name="oneeighth" unicode="&#x215b;" horiz-adv-x="965" 
d="M306 -46h-132l414 814h133zM147 557h-125v87h45q42 0 64.5 21.5t22.5 60.5v3h103v-473h-110v301zM598 129q0 79 68 108v6q-32 13 -50 42t-18 66q0 63 47.5 99t128.5 36q80 0 126 -37t46 -98q0 -79 -66 -108v-6q66 -29 66 -109q0 -63 -47 -99t-127 -36q-81 0 -127.5 36.5
t-46.5 99.5zM834 338q0 24 -17 38.5t-44 14.5q-28 3 -45.5 -14t-16.5 -38.5t17 -38.5q17 -14 45 -14t44.5 14.5t16.5 37.5zM773 87q27 0 44 15t17 39q0 25 -17 39q-16 15 -44 15t-45 -15q-16 -17 -17 -39t16.5 -39t45.5 -15z" />
    <glyph glyph-name="threeeighths" unicode="&#x215c;" horiz-adv-x="1023" 
d="M366 -46h-132l414 814h133zM184 248q-74 0 -120 41t-45 108h109q1 -23 16 -38.5t38 -15.5q24 0 39.5 15t15.5 38t-16.5 37t-41.5 14h-44v98h30q29 0 45 13.5t16 37.5q0 44 -48 44q-25 0 -39 -15t-13 -39h-110q-2 67 42.5 108t122.5 41q72 0 114.5 -35.5t42.5 -92.5
q0 -72 -64 -100v-5q75 -30 75 -113q0 -63 -46.5 -102t-118.5 -39zM657 129q0 79 68 108v6q-32 13 -50 42t-18 66q0 63 47.5 99t128.5 36q80 0 126 -37t46 -98q0 -79 -66 -108v-6q66 -29 66 -109q0 -63 -47 -99t-127 -36q-81 0 -127.5 36.5t-46.5 99.5zM893 338
q0 24 -17 38.5t-44 14.5q-28 3 -45.5 -14t-16.5 -38.5t17 -38.5q17 -14 45 -14t44.5 14.5t16.5 37.5zM832 87q27 0 44 15t17 39q0 25 -17 39q-16 15 -44 15t-45 -15q-16 -17 -17 -39t16.5 -39t45.5 -15z" />
    <glyph glyph-name="fiveeighths" unicode="&#x215d;" horiz-adv-x="1047" 
d="M389 -46h-132l414 814h133zM25 403h111q0 -26 18.5 -43.5t44.5 -17.5q27 0 45 20t18 50q0 31 -18.5 51.5t-46.5 20.5q-46 0 -58 -39h-105v284h308v-95h-200v-43l-2 -35l3 -3q26 23 77 23q68 0 110.5 -45.5t42.5 -115.5q0 -75 -48 -121q-47 -46 -127 -46q-77 0 -124.5 43
t-48.5 112zM680 129q0 79 68 108v6q-32 13 -50 42t-18 66q0 63 47.5 99t128.5 36q80 0 126 -37t46 -98q0 -79 -66 -108v-6q66 -29 66 -109q0 -63 -47 -99t-127 -36q-81 0 -127.5 36.5t-46.5 99.5zM916 338q0 24 -17 38.5t-44 14.5q-28 3 -45.5 -14t-16.5 -38.5t17 -38.5
q17 -14 45 -14t44.5 14.5t16.5 37.5zM855 87q27 0 44 15t17 39q0 25 -17 39q-16 15 -44 15t-45 -15q-16 -17 -17 -39t16.5 -39t45.5 -15z" />
    <glyph glyph-name="seveneighths" unicode="&#x215e;" horiz-adv-x="944" 
d="M153 -46l414 814h133l-415 -814h-132zM162 256h-108q12 99 52 198q39 99 103 180h-117v-72h-83v167h333v-79q-143 -164 -180 -394zM858 243v-6q66 -29 66 -109q0 -63 -47 -99t-127 -36q-81 0 -127.5 36.5t-46.5 99.5q0 79 68 108v6q-32 13 -50 42t-18 66q0 63 47.5 99
t128.5 36q80 0 126 -37t46 -98q0 -79 -66 -108zM812 338q0 24 -17 38.5t-44 14.5q-28 3 -45.5 -14t-16.5 -38.5t17 -38.5q17 -14 45 -14t44.5 14.5t16.5 37.5zM751 87q27 0 44 15t17 39q0 25 -17 39q-16 15 -44 15t-45 -15q-16 -17 -17 -39t16.5 -39t45.5 -15z" />
    <glyph glyph-name="arrowleft" unicode="&#x2190;" horiz-adv-x="858" 
d="M765 323v-94h-590l169 -229h-119l-206 277l206 271h119l-169 -225h590z" />
    <glyph glyph-name="arrowup" unicode="&#x2191;" horiz-adv-x="595" 
d="M555 382v-111l-210 187v-371h210v-89h-514v89h209v371l-209 -187v111l258 226z" />
    <glyph glyph-name="arrowright" unicode="&#x2192;" horiz-adv-x="896" 
d="M686 229h-591v94h591l-169 225h118l206 -271l-206 -277h-118z" />
    <glyph glyph-name="arrowdown" unicode="&#x2193;" horiz-adv-x="595" 
d="M555 557v-90h-210v-370l210 187v-113l-256 -224l-258 224v113l209 -187v370h-209v90h514z" />
    <glyph glyph-name="arrowboth" unicode="&#x2194;" horiz-adv-x="1027" 
d="M243 93l-221 267l221 262h110l-181 -217h683l-179 217h109l220 -262l-220 -267h-109l179 218h-683l181 -218h-110z" />
    <glyph glyph-name="arrowupdn" unicode="&#x2195;" horiz-adv-x="668" 
d="M339 -141l-304 247v109l258 -210v609l-258 -209v108l304 247l302 -247v-108l-258 209v-609l258 210v-109z" />
    <glyph glyph-name="uni2196" unicode="&#x2196;" horiz-adv-x="708" 
d="M660 73l-68 -73l-401 412v-324h-94v487h477v-95h-316z" />
    <glyph glyph-name="uni2197" unicode="&#x2197;" horiz-adv-x="690" 
d="M577 392l-382 -392l-68 70l384 396h-315v91h477v-486h-96v321z" />
    <glyph glyph-name="uni2198" unicode="&#x2198;" horiz-adv-x="696" 
d="M601 0l-478 -1v98h318l-387 389l68 71l384 -398l1 331h95z" />
    <glyph glyph-name="uni2199" unicode="&#x2199;" horiz-adv-x="694" 
d="M572 0h-479v490h98v-331l386 398l63 -69l-387 -391h319v-97z" />
    <glyph glyph-name="uni21A9" unicode="&#x21a9;" horiz-adv-x="859" 
d="M836 498q0 -107 -68 -173t-195 -66h-359v-124l-193 174l193 177v-126h359q74 0 119 36.5t45 101.5q0 61 -42.5 99t-111.5 38h-13v99h13q112 0 182 -67q71 -68 71 -169z" />
    <glyph glyph-name="uni21AA" unicode="&#x21aa;" horiz-adv-x="859" 
d="M24 498q0 101 71 169q71 67 182 67h13v-99h-13q-69 0 -110.5 -38t-41.5 -99q0 -65 44 -101.5t118 -36.5h363v126l189 -177l-189 -174v124h-363q-127 0 -195 64.5t-68 174.5z" />
    <glyph glyph-name="uni21B2" unicode="&#x21b2;" horiz-adv-x="698" 
d="M568 360v405h91v-506h-433v-124l-192 174l192 177v-126h342z" />
    <glyph glyph-name="uni21B3" unicode="&#x21b3;" horiz-adv-x="698" 
d="M470 486l189 -177l-189 -174v124h-436v506h92v-405h344v126z" />
    <glyph glyph-name="uni21BA" unicode="&#x21ba;" horiz-adv-x="825" 
d="M76 319q0 87 41.5 167t121.5 135l48 -58q-133 -88 -133 -244q0 -109 75 -182q74 -73 187 -73q108 0 180 72q72 74 72 176q0 74 -37 132q-37 60 -155 160l-3 -2l5 -68v-132h-72v327h316v-77h-129l-61 5l-3 -3q129 -107 173 -177q45 -69 45 -165q0 -136 -97 -230
q-95 -94 -238 -94q-142 0 -239 94t-97 237z" />
    <glyph glyph-name="uni21BB" unicode="&#x21bb;" horiz-adv-x="825" 
d="M408 -12q-140 0 -236 93q-96 95 -96 231q0 95 45 167q46 71 174 175l-4 3l-63 -5h-129v77h320v-327h-76v132l5 68l-3 2q-115 -97 -155 -160q-36 -58 -36 -132q0 -102 72 -176q72 -72 181 -72q111 0 186 72q75 74 75 183q0 75 -34.5 140t-96.5 104l47 58
q78 -53 120.5 -135t42.5 -167q0 -140 -98 -236q-98 -95 -241 -95z" />
    <glyph glyph-name="emptyset" unicode="&#x2205;" horiz-adv-x="750" 
d="M391 738q171 0 265 -102q95 -101 95 -271q0 -177 -98 -277q-98 -98 -262 -98q-170 0 -265 101q-94 101 -94 274q0 178 97 275q98 98 262 98zM391 576q-76 0 -119 -57t-43 -154q0 -35 6 -65l242 251q-38 25 -86 25zM391 153q78 0 121 57t43 155q0 36 -4 56l-240 -247
q35 -21 80 -21z" />
    <glyph glyph-name="product" unicode="&#x220f;" horiz-adv-x="800" 
d="M54 729h693v-152h-107v-577h-177v577h-126v-577h-178v577h-105v152z" />
    <glyph glyph-name="summation" unicode="&#x2211;" horiz-adv-x="606" 
d="M561 -168h-511v174l220 257v9l-220 281v176h511v-177h-191l-108 10v-10l210 -288l-216 -249v-10l114 10h191v-183z" />
    <glyph glyph-name="minus" unicode="&#x2212;" horiz-adv-x="578" 
d="M69 229v140h438v-140h-438z" />
    <glyph glyph-name="radical" unicode="&#x221a;" horiz-adv-x="825" 
d="M491 342l143 387h178l-313 -836h-223l-162 445h-98v149h228v-3l50 -142l90 -283h8z" />
    <glyph glyph-name="infinity" unicode="&#x221e;" horiz-adv-x="857" 
d="M227 34q-97 0 -162 65q-65 67 -65 170q0 102 65 172q65 69 162 69q61 0 113 -33.5t87 -89.5q79 123 202 123q97 0 162 -69q65 -70 65 -172q0 -103 -65 -170q-65 -65 -162 -65q-126 0 -202 118q-34 -55 -86 -86.5t-114 -31.5zM238 192q57 0 111 78q-51 77 -111 77
q-33 0 -53.5 -21.5t-20.5 -55.5t20.5 -56t53.5 -22zM617 192q33 0 53.5 22.5t20.5 55.5t-20.5 55t-53.5 22q-59 0 -109 -77q51 -78 109 -78z" />
    <glyph glyph-name="integral" unicode="&#x222b;" horiz-adv-x="625" 
d="M372 753h164v-141h-134v-606q0 -58 -23 -96q-30 -50 -125 -50h-162v140h134v606q0 52 18 91q26 56 128 56z" />
    <glyph glyph-name="approxequal" unicode="&#x2248;" horiz-adv-x="541" 
d="M145 348h-77q-6 75 28.5 116.5t88.5 41.5q40 0 90 -28q53 -27 80 -27q53 0 54 55h76q6 -81 -31 -121q-38 -39 -90 -39q-48 0 -102 27q-53 28 -74 28q-23 0 -34.5 -16.5t-8.5 -36.5zM145 144h-77q-6 75 27.5 115.5t88.5 40.5q38 0 91 -27t80 -27q52 0 54 53h76
q6 -83 -31 -121q-38 -38 -90 -38q-49 0 -102 28q-55 29 -74 29q-22 0 -34 -16.5t-9 -36.5z" />
    <glyph glyph-name="notequal" unicode="&#x2260;" horiz-adv-x="609" 
d="M539 454v-123h-159l-40 -76h199v-122h-262l-53 -102h-113l53 102h-95v122h159l40 76h-199v123h263l53 102h112l-53 -102h95z" />
    <glyph glyph-name="lessequal" unicode="&#x2264;" horiz-adv-x="563" 
d="M500 332v-160l-449 154v156l449 149v-159l-153 -38l-137 -25v-9l130 -26zM500 158v-158h-449v158h449z" />
    <glyph glyph-name="greaterequal" unicode="&#x2265;" horiz-adv-x="563" 
d="M512 326l-449 -154v160l160 42l131 26v9l-138 25l-153 38v159l449 -149v-156zM512 0h-449v158h449v-158z" />
    <glyph glyph-name="filledbox" unicode="&#x25a0;" horiz-adv-x="929" 
d="M106 1v728h717v-728h-717z" />
    <glyph glyph-name="uni25A1" unicode="&#x25a1;" horiz-adv-x="818" 
d="M50 0v729h718v-729h-718zM696 658h-573v-586h573v586z" />
    <glyph glyph-name="triagup" unicode="&#x25b2;" horiz-adv-x="895" 
d="M37 0l410 737l411 -737h-821z" />
    <glyph glyph-name="uni25B3" unicode="&#x25b3;" horiz-adv-x="888" 
d="M845 0h-801l399 738zM444 582l-270 -503h542z" />
    <glyph glyph-name="lozenge" unicode="&#x25ca;" horiz-adv-x="2154" 
d="M985 -10q-135 0 -214 100t-79 268q0 96 28 170.5t76.5 119.5t109.5 68t132 23q120 0 202 -62q82 -61 100 -164h-156q-36 86 -147 86q-90 0 -137 -62t-47 -175q0 -115 46.5 -175t129.5 -60q67 0 109 33t52 92h-162v143h324v-395h-111l-16 119h-35q-16 -60 -71.5 -94.5
t-133.5 -34.5zM1487 576q-34 0 -56.5 23t-22.5 59q0 35 22.5 58t56.5 23q35 0 55.5 -22.5t20.5 -58.5q0 -37 -20.5 -59.5t-55.5 -22.5zM1685 576q-34 0 -55 23t-21 59q0 35 21.5 58t54.5 23q36 0 58.5 -23t22.5 -58q0 -36 -22.5 -59t-58.5 -23zM311 0h-271v729h271
q161 0 248.5 -92.5t87.5 -270.5t-88.5 -272t-247.5 -94zM1887 572h-36v126h-38v31h118v-31h-44v-126zM1985 572h-34v157h63l17 -127l23 127h61v-157h-40v135l-17 -135h-52l-21 135v-135zM146 109l26 -26q29 29 52.5 40.5t60.5 11.5h26q31 0 69 15q31 12 52 33q24 24 41 72
t17 108q0 59 -16 106t-39 70q-21 23 -49 36q-37 19 -75 19h-26q-29 0 -52 10q-26 12 -32 17l-29 27l-26 -30q0 -2 7 -9t7 -8q5 -2 20 -27q15 -22 15 -71v-276q-3 -51 -16 -74l-10 -15q-9 -15 -23 -29zM1583 0h-149v491h141l7 -58h27q12 36 49 56t90 20v-147
q-165 16 -165 -148v-214z" />
    <glyph glyph-name="circle" unicode="&#x25cb;" horiz-adv-x="766" 
d="M15 365q0 163 105 268t263 105t263 -105t105 -268q0 -165 -105 -270t-263 -105t-263 105t-105 270zM677 365q0 133 -85 218q-84 86 -209 86q-124 0 -210 -86q-84 -85 -84 -218t84 -220q86 -86 210 -86q125 0 209 86q85 85 85 220z" />
    <glyph glyph-name="uni25CF" unicode="&#x25cf;" horiz-adv-x="891" 
d="M447 -10q-157 0 -262 107q-105 108 -105 269q0 158 105 265t262 107q155 0 259 -107t104 -265q0 -160 -104 -269q-104 -107 -259 -107z" />
    <glyph glyph-name="uni262E" unicode="&#x262e;" horiz-adv-x="813" 
d="M774 363q0 -166 -104 -272q-104 -105 -264 -105t-263 105q-104 106 -104 272t104 270t263 104t263 -104q105 -103 105 -270zM719 363q0 136 -81 224q-79 88 -205 99v-300l260 -162q26 64 26 139zM379 386v300q-124 -10 -205 -99q-80 -89 -80 -224q0 -77 27 -139zM379 321
l-234 -145q38 -60 99 -96t135 -42v283zM433 321v-283q156 14 235 138z" />
    <glyph glyph-name="uni2639" unicode="&#x2639;" horiz-adv-x="815" 
d="M37 365q0 162 107 267q106 106 263 106t263 -106q108 -106 108 -267q0 -163 -108 -269q-106 -106 -263 -106t-263 106q-107 107 -107 269zM91 365q0 -125 78 -216q35 51 99.5 81.5t138.5 30.5q76 0 140 -30t100 -82q77 94 77 216q0 139 -93 230q-94 92 -223 92
q-130 0 -224 -92q-93 -91 -93 -230zM277 438q0 51 14.5 79t38.5 28q26 0 39.5 -29t13.5 -78q0 -52 -14 -79.5t-39 -27.5q-26 0 -39.5 29t-13.5 78zM434 438q0 50 15 78.5t40 28.5q53 0 53 -107q0 -51 -14.5 -79t-38.5 -28q-26 0 -40.5 29t-14.5 78zM208 113q90 -72 200 -72
q112 0 200 72q-26 44 -81 70t-119 26q-66 0 -121 -26.5t-79 -69.5z" />
    <glyph glyph-name="smileface" unicode="&#x263a;" horiz-adv-x="815" 
d="M778 365q0 -163 -108 -269q-106 -106 -263 -106t-263 106q-107 107 -107 269t107 267q106 106 263 106t263 -106q108 -106 108 -267zM408 41q132 0 224 93q92 95 92 231q0 139 -93 230q-94 92 -223 92q-130 0 -224 -92q-93 -91 -93 -230t93 -232q94 -92 224 -92zM330 331
q-26 0 -39.5 29t-13.5 78q0 51 14.5 79t38.5 28q26 0 39.5 -29t13.5 -78q0 -52 -14 -79.5t-39 -27.5zM489 331q-26 0 -40.5 29t-14.5 78q0 50 15 78.5t40 28.5q53 0 53 -107q0 -51 -14.5 -79t-38.5 -28zM567 314v17h106v-17h-26q-13 -86 -81 -139q-68 -51 -159 -51
q-94 0 -159 52q-67 53 -80 138h-24v17h108v-17h-29q11 -64 63 -102q53 -38 122 -38q73 0 124 39t62 101h-27z" />
    <glyph glyph-name="uni2708" unicode="&#x2708;" horiz-adv-x="861" 
d="M116 207h-50l35 159l-35 159h50l69 -108l210 12l-99 276h90l144 -239q15 -23 48 -25l59 4q60 4 109 -21t49 -58q0 -35 -49 -60q-49 -24 -109 -20l-59 4q-34 -2 -48 -24l-144 -240h-90l99 276l-210 14z" />
    <glyph glyph-name="uni2713" unicode="&#x2713;" horiz-adv-x="835" 
d="M305 239l377 362l98 -116l-486 -460l-240 283l108 99z" />
    <glyph glyph-name="uni2714" unicode="&#x2714;" horiz-adv-x="1286" 
d="M1110 732l111 -196q-229 -109 -464 -283q-228 -168 -350 -322q-147 201 -342 373l130 135q143 -117 225 -256q115 156 300 301q181 143 390 248z" />
    <glyph glyph-name="uni2776" unicode="&#x2776;" horiz-adv-x="892" 
d="M447 -9q-163 0 -276 110q-111 111 -111 274q0 161 111 272q112 112 276 112q162 0 273 -112q111 -111 111 -272q0 -163 -111 -274q-112 -110 -273 -110zM430 421v-267h89v422h-82v-1q0 -35 -25 -59.5t-66 -24.5h-33v-70h117z" />
    <glyph glyph-name="uni2777" unicode="&#x2777;" horiz-adv-x="893" 
d="M447 -9q-163 0 -276 111q-111 111 -111 274q0 162 111 273q113 111 276 111t274 -111t111 -273q0 -163 -111 -274t-274 -111zM309 168v-14h279v79h-115l-55 -4q18 30 102 93q31 23 51.5 57.5t20.5 73.5q0 58 -38 94t-101 36q-66 0 -108.5 -37.5t-43.5 -99.5l90 -5
q-2 29 13 46.5t42 17.5q38 0 51.5 -32t-16.5 -70q-16 -18 -56 -49.5t-48 -38.5q-68 -59 -68 -147z" />
    <glyph glyph-name="uni2778" unicode="&#x2778;" horiz-adv-x="893" 
d="M447 -9q-162 0 -275 110q-112 111 -112 273t112 274t275 112q162 0 273 -112q112 -112 112 -274t-112 -273q-112 -110 -273 -110zM448 148q64 0 104.5 34.5t40.5 90.5q0 33 -18 60.5t-48 39.5v4q56 26 56 89q0 52 -37.5 84t-100.5 32q-68 0 -107 -36.5t-38 -96.5h90
q0 56 53 56q22 0 35.5 -12.5t13.5 -33.5q0 -23 -16 -37t-44 -14h-28v-77h39q26 0 42.5 -14.5t16.5 -37.5q0 -24 -15.5 -38.5t-41.5 -14.5q-24 0 -38.5 15.5t-14.5 40.5h-89q-1 -62 39 -98t106 -36z" />
    <glyph glyph-name="uni2779" unicode="&#x2779;" horiz-adv-x="895" 
d="M448 -9q-164 0 -276 111t-112 274q0 162 112 273t276 111q162 0 275 -111q112 -111 112 -273q0 -163 -112 -274q-113 -111 -275 -111zM465 245v-91h88v91h44v77h-44v254h-134l-140 -259v-72h186zM465 322h-88l88 161v-161z" />
    <glyph glyph-name="uni277A" unicode="&#x277a;" horiz-adv-x="892" 
d="M447 -9q-163 0 -276 110q-111 109 -111 273q0 162 112 274t275 112q162 0 273 -112q112 -112 112 -274t-112 -273q-112 -110 -273 -110zM451 149q70 0 111.5 40.5t41.5 107.5q0 63 -37 103t-97 40q-50 0 -72 -24l-4 2l2 36v46h182v76h-268v-247h84q12 35 57 35
q28 0 46 -20t18 -51q0 -29 -18 -48t-45 -19t-44 16.5t-18 43.5h-89q-1 -60 41.5 -98.5t108.5 -38.5z" />
    <glyph glyph-name="uni277B" unicode="&#x277b;" horiz-adv-x="918" 
d="M460 -34q-170 0 -285 114q-115 115 -115 283q0 167 115 282t285 115q167 0 282 -115q116 -116 116 -282q0 -167 -116 -283q-116 -114 -282 -114zM458 148q68 0 111 41.5t43 106.5q0 62 -36.5 102t-94.5 40q-66 0 -90 -44h-3q0 58 16.5 85t54.5 27q45 0 56 -38h90
q-6 52 -45.5 83t-97.5 31q-78 0 -122 -58.5t-44 -161.5q0 -102 42 -158t120 -56zM460 226q-29 0 -46 18.5t-17 48.5t18 50.5t45 20.5q28 0 45 -19.5t17 -50.5t-17 -49.5t-45 -18.5z" />
    <glyph glyph-name="uni277C" unicode="&#x277c;" horiz-adv-x="895" 
d="M60 374q0 162 112 274t276 112q163 0 275 -112t112 -274t-112 -273q-113 -110 -275 -110q-164 0 -276 111t-112 272zM351 154h95q33 200 156 361v61h-292v-144h67v68h116q-54 -69 -91.5 -161t-50.5 -185z" />
    <glyph glyph-name="uni277D" unicode="&#x277d;" horiz-adv-x="893" 
d="M447 -9q-162 0 -275 111q-112 111 -112 272q0 162 112 274t275 112q162 0 273 -112q112 -112 112 -274t-112 -273q-112 -110 -273 -110zM446 148q70 0 112.5 32t42.5 87q0 31 -16.5 57.5t-45.5 38.5v5q29 13 45.5 38.5t16.5 56.5q0 54 -42 86.5t-113 32.5q-69 0 -111 -32
t-42 -87q0 -31 16.5 -56.5t44.5 -38.5v-5q-28 -13 -44.5 -39t-16.5 -56q0 -54 41 -87t112 -33zM446 401q-27 0 -44.5 14t-17.5 38t16.5 38t45.5 14q28 0 45 -14t17 -38t-16.5 -38t-45.5 -14zM446 226q-28 0 -45 14t-17 38t16.5 38t45.5 14q27 0 44.5 -14t17.5 -38t-16.5 -38
t-45.5 -14z" />
    <glyph glyph-name="uni277E" unicode="&#x277e;" horiz-adv-x="895" 
d="M448 -9q-163 0 -276 110q-112 111 -112 275q0 161 112 272q112 112 276 112q162 0 274 -112q113 -111 113 -272q0 -164 -113 -275q-113 -110 -274 -110zM449 148q78 0 121 58t43 163q0 102 -41.5 157.5t-119.5 55.5q-68 0 -110.5 -41.5t-42.5 -106.5q0 -62 36.5 -101
t93.5 -39q65 0 91 42h3q0 -112 -71 -112q-46 0 -57 38h-89q7 -52 46 -83t97 -31zM452 366q-29 0 -46.5 19t-17.5 50q0 33 17 52t47 19q27 0 44 -19.5t17 -49.5q0 -31 -17 -51t-44 -20z" />
    <glyph glyph-name="uni2780" unicode="&#x2780;" horiz-adv-x="892" 
d="M447 -9q-163 0 -276 110q-111 111 -111 274q0 161 111 272q112 112 276 112q162 0 273 -112q111 -111 111 -272q0 -163 -111 -274q-112 -110 -273 -110zM447 37q142 0 240 98q98 100 98 240q0 142 -98 240t-240 98q-144 0 -242 -98q-97 -97 -97 -240q0 -142 98 -240
t241 -98zM430 154v267h-117v70h33q42 0 66.5 24t24.5 60v1h82v-422h-89z" />
    <glyph glyph-name="uni2781" unicode="&#x2781;" horiz-adv-x="893" 
d="M447 760q163 0 274 -111t111 -273q0 -163 -111 -274t-274 -111t-276 111q-111 111 -111 274q0 162 111 273q113 111 276 111zM447 37q143 0 241 98q98 100 98 241q0 142 -98 240q-98 99 -241 99q-145 0 -242 -99q-98 -98 -98 -240q0 -141 98 -241q98 -98 242 -98z
M592 453q0 -52 -34 -92q-31 -37 -80 -73q-47 -35 -60 -58l55 3h115v-79h-279v14q0 35 11 65t32.5 54.5t38 38.5t42.5 33q68 51 68 93q0 25 -15 39t-40 14q-27 0 -42 -17.5t-13 -46.5l-90 5q1 62 43.5 99.5t108.5 37.5q63 0 101 -36t38 -94z" />
    <glyph glyph-name="uni2782" unicode="&#x2782;" horiz-adv-x="893" 
d="M447 -9q-162 0 -275 110q-112 111 -112 273t112 274t275 112q162 0 273 -112q112 -112 112 -274t-112 -273q-112 -110 -273 -110zM786 374q0 143 -98 241q-98 99 -241 99q-145 0 -242 -99q-98 -98 -98 -241q0 -141 98 -239q100 -98 242 -98q143 0 241 98t98 239zM448 148
q-66 0 -106 36t-39 98h89q0 -25 14.5 -40.5t38.5 -15.5q26 0 41.5 14.5t15.5 38.5q0 23 -16.5 37.5t-42.5 14.5h-39v77h28q28 0 44 14t16 37q0 21 -13.5 33.5t-35.5 12.5q-53 0 -53 -56h-90q-1 60 38 96.5t107 36.5q63 0 100.5 -32t37.5 -84q0 -63 -56 -89v-4
q30 -12 48 -39.5t18 -60.5q0 -56 -40.5 -90.5t-104.5 -34.5z" />
    <glyph glyph-name="uni2783" unicode="&#x2783;" horiz-adv-x="895" 
d="M60 376q0 162 112 273t276 111q162 0 275 -111q112 -111 112 -273q0 -163 -112 -274q-113 -111 -275 -111q-164 0 -276 111t-112 274zM448 37q143 0 241 98q98 100 98 241q0 142 -98 240q-98 99 -241 99q-144 0 -242 -99q-98 -98 -98 -240q0 -141 98 -241q98 -98 242 -98
zM465 245h-186v72l140 259h134v-254h44v-77h-44v-91h-88v91zM465 483l-88 -161h88v161z" />
    <glyph glyph-name="uni2784" unicode="&#x2784;" horiz-adv-x="892" 
d="M447 -9q-163 0 -276 110q-111 109 -111 273q0 162 112 274t275 112q162 0 273 -112q112 -112 112 -274t-112 -273q-112 -110 -273 -110zM785 374q0 144 -98 242q-97 99 -240 99q-145 0 -242 -99q-98 -98 -98 -242q0 -141 98 -239q100 -98 242 -98t240 98t98 239zM451 149
q-66 0 -108.5 38.5t-41.5 98.5h89q1 -27 18 -43.5t44 -16.5t45 19t18 48q0 31 -18 51t-46 20q-45 0 -57 -35h-84v247h268v-76h-182v-46l-2 -36l4 -2q22 24 72 24q60 0 97 -40t37 -103q0 -67 -41.5 -107.5t-111.5 -40.5z" />
    <glyph glyph-name="uni2785" unicode="&#x2785;" horiz-adv-x="918" 
d="M60 363q0 167 115 282t285 115q167 0 282 -115q116 -116 116 -282q0 -167 -116 -283q-116 -114 -282 -114q-170 0 -285 114q-115 115 -115 283zM109 363q0 -144 101 -247q103 -101 250 -101t248 101q101 103 101 247q0 146 -101 249q-100 102 -248 102q-150 0 -250 -102
q-101 -103 -101 -249zM296 362q0 103 44 161.5t122 58.5q58 0 97.5 -31t45.5 -83h-90q-11 38 -56 38q-38 0 -54.5 -27t-16.5 -85h3q24 44 90 44q58 0 94.5 -40t36.5 -102q0 -65 -43 -106.5t-111 -41.5q-78 0 -120 56t-42 158zM460 226q28 0 45 18.5t17 49.5t-17 50.5
t-45 19.5q-27 0 -45 -20.5t-18 -50.5t17 -48.5t46 -18.5z" />
    <glyph glyph-name="uni2786" unicode="&#x2786;" horiz-adv-x="895" 
d="M60 374q0 162 112 274t276 112q163 0 275 -112t112 -274t-112 -273q-113 -110 -275 -110q-164 0 -276 111t-112 272zM448 37q143 0 241 98q98 100 98 239q0 142 -98 242q-98 99 -241 99q-144 0 -242 -99q-98 -100 -98 -242q0 -139 98 -239q98 -98 242 -98zM446 154h-95
q13 93 50.5 185t91.5 161h-116v-68h-67v144h292v-61q-123 -161 -156 -361z" />
    <glyph glyph-name="uni2787" unicode="&#x2787;" horiz-adv-x="893" 
d="M447 -9q-162 0 -275 111q-112 111 -112 272q0 162 112 274t275 112q162 0 273 -112q112 -112 112 -274t-112 -273q-112 -110 -273 -110zM447 37q142 0 240 98q98 100 98 239q0 142 -98 242q-97 99 -240 99t-241 -99q-98 -100 -98 -242q0 -139 98 -239q98 -98 241 -98z
M446 148q-71 0 -112 33t-41 87q0 30 16.5 56t44.5 39v5q-28 13 -44.5 38.5t-16.5 56.5q0 55 42 87t111 32q71 0 113 -32.5t42 -86.5q0 -31 -16.5 -56.5t-45.5 -38.5v-5q29 -12 45.5 -38.5t16.5 -57.5q0 -55 -42.5 -87t-112.5 -32zM446 401q29 0 45.5 14t16.5 38t-17 38
t-45 14q-29 0 -45.5 -14t-16.5 -38t17.5 -38t44.5 -14zM446 226q29 0 45.5 14t16.5 38t-17.5 38t-44.5 14q-29 0 -45.5 -14t-16.5 -38t17 -38t45 -14z" />
    <glyph glyph-name="uni2788" unicode="&#x2788;" horiz-adv-x="895" 
d="M448 -9q-163 0 -276 110q-112 111 -112 275q0 161 112 272q112 112 276 112q162 0 274 -112q113 -111 113 -272q0 -164 -113 -275q-113 -110 -274 -110zM448 37q143 0 241 98q98 100 98 241q0 142 -98 240t-241 98q-144 0 -242 -98t-98 -240q0 -141 98 -241
q98 -98 242 -98zM449 148q-58 0 -97 31t-46 83h89q11 -38 57 -38q71 0 71 112h-3q-26 -42 -91 -42q-57 0 -93.5 39t-36.5 101q0 65 42.5 106.5t110.5 41.5q78 0 119.5 -55.5t41.5 -157.5q0 -105 -43 -163t-121 -58zM452 366q27 0 44 20t17 51q0 30 -17 49.5t-44 19.5
q-30 0 -47 -19t-17 -52q0 -31 17.5 -50t46.5 -19z" />
    <glyph glyph-name="uniECE0" unicode="&#xece0;" horiz-adv-x="1026" 
d="M152 311v-250l-101 -75v743h370l-83 -106h-186v-209h133q19 139 122 231t241 92q90 0 170.5 -44t131.5 -122l-84 -63q-35 57 -95.5 91t-124.5 34q-109 0 -184 -80q-74 -80 -74 -188t74 -190q75 -80 184 -80q65 0 124 33t94 92l86 -63q-52 -79 -132 -123t-170 -44
q-138 0 -241 91q-103 92 -122 230h-133zM645 246q64 0 102 67l83 -64q-30 -50 -78 -77.5t-105 -27.5q-88 0 -153 65q-64 64 -64 156q0 90 64 154q65 65 153 65q55 0 104 -28t79 -78l-83 -63q-16 30 -43.5 47.5t-58.5 17.5q-47 0 -78.5 -33.5t-31.5 -81.5q0 -49 31 -84
q32 -35 79 -35z" />
    <glyph glyph-name="uniEFCC" unicode="&#xefcc;" horiz-adv-x="1180" 
d="M465 734q20 0 38 -2v-117q-24 3 -37 3q-111 0 -180 -72q-68 -71 -68 -185t68 -185q69 -71 180 -71q26 0 37 3v-118q-24 -2 -38 -2q-162 0 -262 103t-100 270t100 270t262 103zM728 366q0 166 96 267q98 101 260 101q20 0 44 -2v-117q-25 3 -40 3q-92 0 -155.5 -50.5
t-83.5 -146.5h203v-110h-203q20 -96 83.5 -146.5t155.5 -50.5q30 0 40 3v-118q-26 -2 -44 -2q-163 0 -260 100q-96 101 -96 269z" />
    <glyph glyph-name="uniF8FF" unicode="&#xf8ff;" horiz-adv-x="639" 
d="M428 632q-16 -21 -43 -36.5t-48 -19.5l-18 -3l-1 10q-6 57 31 104q22 29 51 46.5t48 18.5l18 2q-1 -2 1 -19q2 -16 -8.5 -47t-30.5 -56zM210 0q-44 0 -89 53q-45 56 -73 134q-28 80 -28 156q0 104 53 166q54 62 124 62q28 0 70 -17t56 -17q15 0 56 18q42 18 80 18
q51 0 87 -23t49 -45l5 -8q-21 -16 -28 -22q-52 -48 -52 -120q0 -58 29.5 -96t59.5 -53l10 -5q-5 -19 -28 -70q-14 -33 -33 -61q-20 -29 -48 -49t-55 -20q-19 0 -59 14q-38 15 -62 15q-26 0 -66 -15t-58 -15z" />
    <glyph glyph-name="NULL" 
 />
    <glyph glyph-name="CR.001" horiz-adv-x="333" 
 />
    <glyph glyph-name="uni00A40301" horiz-adv-x="427" 
d="M513 896l-243 -136l-51 85l223 167zM364 729v-498q0 -240 -247 -240q-61 0 -102 9v149q28 -5 60 -5q55 0 79 27.5t24 83.5v474h186z" />
    <glyph glyph-name="G.ss01" horiz-adv-x="775" 
d="M395 -10q-165 0 -265 102q-100 101 -100 269q0 170 100 273q101 104 265 104q135 0 229 -71t111 -186h-200q-9 44 -47.5 69.5t-93.5 25.5q-79 0 -123 -56.5t-44 -158.5q0 -103 44.5 -158t128.5 -55q62 0 103 29.5t45 75.5h-164v143h360v-73q0 -151 -96 -242
q-95 -91 -253 -91z" />
    <glyph glyph-name="Gbreve.ss01" horiz-adv-x="775" 
d="M452 942h106q0 -75 -46 -122t-125 -47q-78 0 -123 47t-45 122h105q0 -35 16.5 -54t46.5 -19q31 0 48 19t17 54zM395 -10q-165 0 -265 102q-100 101 -100 269q0 170 100 273q101 104 265 104q135 0 229 -71t111 -186h-200q-9 44 -47.5 69.5t-93.5 25.5q-79 0 -123 -56.5
t-44 -158.5q0 -103 44.5 -158t128.5 -55q62 0 103 29.5t45 75.5h-164v143h360v-73q0 -151 -96 -242q-95 -91 -253 -91z" />
    <glyph glyph-name="uni0122.ss01" horiz-adv-x="775" 
d="M395 -10q-165 0 -265 102q-100 101 -100 269q0 170 100 273q101 104 265 104q135 0 229 -71t111 -186h-200q-9 44 -47.5 69.5t-93.5 25.5q-79 0 -123 -56.5t-44 -158.5q0 -103 44.5 -158t128.5 -55q62 0 103 29.5t45 75.5h-164v143h360v-73q0 -151 -96 -242
q-95 -91 -253 -91zM328 -310v49q55 0 55 49v22h-64v140h137v-149q0 -111 -128 -111z" />
    <glyph glyph-name="Gdotaccent.ss01" horiz-adv-x="775" 
d="M455 776h-134v156h134v-156zM395 -10q-165 0 -265 102q-100 101 -100 269q0 170 100 273q101 104 265 104q135 0 229 -71t111 -186h-200q-9 44 -47.5 69.5t-93.5 25.5q-79 0 -123 -56.5t-44 -158.5q0 -103 44.5 -158t128.5 -55q62 0 103 29.5t45 75.5h-164v143h360v-73
q0 -151 -96 -242q-95 -91 -253 -91z" />
    <glyph glyph-name="R.ss02" horiz-adv-x="720" 
d="M255 0h-186v729h343q125 0 197 -66.5t72 -181.5q0 -69 -35 -125t-92 -78v-8q43 -18 77 -106l67 -164h-204l-72 169q-16 38 -36 51t-65 13h-66v-233zM255 563v-180h122q49 0 77.5 23t28.5 67q0 90 -106 90h-122z" />
    <glyph glyph-name="Racute.ss02" horiz-adv-x="720" 
d="M617 896l-243 -136l-51 85l223 167zM255 0h-186v729h343q125 0 197 -66.5t72 -181.5q0 -69 -35 -125t-92 -78v-8q43 -18 77 -106l67 -164h-204l-72 169q-16 38 -36 51t-65 13h-66v-233zM255 563v-180h122q49 0 77.5 23t28.5 67q0 90 -106 90h-122z" />
    <glyph glyph-name="Rcaron.ss02" horiz-adv-x="720" 
d="M327 782l-148 144l82 80l114 -123l113 123l83 -80l-148 -144h-96zM255 0h-186v729h343q125 0 197 -66.5t72 -181.5q0 -69 -35 -125t-92 -78v-8q43 -18 77 -106l67 -164h-204l-72 169q-16 38 -36 51t-65 13h-66v-233zM255 563v-180h122q49 0 77.5 23t28.5 67q0 90 -106 90
h-122z" />
    <glyph glyph-name="uni0156.ss02" horiz-adv-x="720" 
d="M255 0h-186v729h343q125 0 197 -66.5t72 -181.5q0 -69 -35 -125t-92 -78v-8q43 -18 77 -106l67 -164h-204l-72 169q-16 38 -36 51t-65 13h-66v-233zM255 563v-180h122q49 0 77.5 23t28.5 67q0 90 -106 90h-122zM315 -310v49q55 0 55 49v22h-64v140h137v-149
q0 -111 -128 -111z" />
    <glyph glyph-name="i.loclTRK" horiz-adv-x="281" 
d="M228 588h-173v156h173v-156zM229 0h-176v541h176v-541z" />
    <glyph glyph-name="uni006A0301" horiz-adv-x="280" 
d="M384 708l-243 -136l-51 85l223 167zM34 -184q-52 0 -82 6v126q24 -2 26 -2q55 0 66 21q9 16 9 56v8v510h175v-523q0 -88 -36 -140q-42 -62 -158 -62z" />
    <glyph glyph-name="germandbls.alt01" horiz-adv-x="702" 
d="M256 0h-187v479q0 123 73 190q74 69 196 69q97 0 170.5 -45t107.5 -123l-88 -140q69 -21 106.5 -75t37.5 -129q0 -106 -77 -166t-207 -60h-69v160h32q125 -4 130 91q0 98 -172 88l123 211q-33 35 -92 35q-36 0 -60 -25t-24 -64v-496z" />
    <glyph glyph-name="a.ss01" horiz-adv-x="652" 
d="M448 541h151v-541h-175v98h-9q-43 -108 -175 -108q-100 0 -158 74.5t-58 205.5q0 130 57.5 205.5t157.5 75.5q60 0 107 -29t69 -80h9zM424 258v24q0 57 -31.5 92t-82.5 35t-79.5 -35.5t-28.5 -100.5q0 -66 27.5 -103.5t82.5 -37.5q51 0 81.5 34.5t30.5 91.5z" />
    <glyph glyph-name="aacute.ss01" horiz-adv-x="652" 
d="M536 710l-243 -136l-51 85l223 167zM448 541h151v-541h-175v98h-9q-43 -108 -175 -108q-100 0 -158 74.5t-58 205.5q0 130 57.5 205.5t157.5 75.5q60 0 107 -29t69 -80h9zM424 258v24q0 57 -31.5 92t-82.5 35t-79.5 -35.5t-28.5 -100.5q0 -66 27.5 -103.5t82.5 -37.5
q51 0 81.5 34.5t30.5 91.5z" />
    <glyph glyph-name="abreve.ss01" horiz-adv-x="652" 
d="M357 756h106q0 -75 -46 -122t-125 -47q-78 0 -123 47t-45 122h105q0 -35 16.5 -54t46.5 -19q31 0 48 19t17 54zM448 541h151v-541h-175v98h-9q-43 -108 -175 -108q-100 0 -158 74.5t-58 205.5q0 130 57.5 205.5t157.5 75.5q60 0 107 -29t69 -80h9zM424 258v24
q0 57 -31.5 92t-82.5 35t-79.5 -35.5t-28.5 -100.5q0 -66 27.5 -103.5t82.5 -37.5q51 0 81.5 34.5t30.5 91.5z" />
    <glyph glyph-name="acircumflex.ss01" horiz-adv-x="652" 
d="M180 578l-82 81l147 142h97l148 -142l-83 -81l-113 122zM448 541h151v-541h-175v98h-9q-43 -108 -175 -108q-100 0 -158 74.5t-58 205.5q0 130 57.5 205.5t157.5 75.5q60 0 107 -29t69 -80h9zM424 258v24q0 57 -31.5 92t-82.5 35t-79.5 -35.5t-28.5 -100.5
q0 -66 27.5 -103.5t82.5 -37.5q51 0 81.5 34.5t30.5 91.5z" />
    <glyph glyph-name="adieresis.ss01" horiz-adv-x="652" 
d="M251 590h-133v156h133v-156zM468 590h-133v156h133v-156zM448 541h151v-541h-175v98h-9q-43 -108 -175 -108q-100 0 -158 74.5t-58 205.5q0 130 57.5 205.5t157.5 75.5q60 0 107 -29t69 -80h9zM424 258v24q0 57 -31.5 92t-82.5 35t-79.5 -35.5t-28.5 -100.5
q0 -66 27.5 -103.5t82.5 -37.5q51 0 81.5 34.5t30.5 91.5z" />
    <glyph glyph-name="agrave.ss01" horiz-adv-x="652" 
d="M344 663l-51 -84l-243 135l71 116zM448 541h151v-541h-175v98h-9q-43 -108 -175 -108q-100 0 -158 74.5t-58 205.5q0 130 57.5 205.5t157.5 75.5q60 0 107 -29t69 -80h9zM424 258v24q0 57 -31.5 92t-82.5 35t-79.5 -35.5t-28.5 -100.5q0 -66 27.5 -103.5t82.5 -37.5
q51 0 81.5 34.5t30.5 91.5z" />
    <glyph glyph-name="amacron.ss01" horiz-adv-x="652" 
d="M481 591h-376v132h376v-132zM448 541h151v-541h-175v98h-9q-43 -108 -175 -108q-100 0 -158 74.5t-58 205.5q0 130 57.5 205.5t157.5 75.5q60 0 107 -29t69 -80h9zM424 258v24q0 57 -31.5 92t-82.5 35t-79.5 -35.5t-28.5 -100.5q0 -66 27.5 -103.5t82.5 -37.5
q51 0 81.5 34.5t30.5 91.5z" />
    <glyph glyph-name="aogonek.ss01" horiz-adv-x="652" 
d="M555 -116q27 0 57 11v-89q-36 -17 -88 -17q-61 -1 -98 31t-37 84q0 58 41 96h-6v98h-9q-43 -108 -175 -108q-100 0 -158 74.5t-58 205.5q0 130 57.5 205.5t157.5 75.5q60 0 107 -29t69 -80h9l24 99h151v-541h-14q-94 -12 -94 -72q0 -44 64 -44zM424 258v24q0 57 -31.5 92
t-82.5 35t-79.5 -35.5t-28.5 -100.5q0 -66 27.5 -103.5t82.5 -37.5q51 0 81.5 34.5t30.5 91.5z" />
    <glyph glyph-name="aring.ss01" horiz-adv-x="652" 
d="M424 442l24 99h151v-541h-175v98h-9q-43 -108 -175 -108q-100 0 -158 74.5t-58 205.5q0 102 36 171.5t101 95.5q-31 34 -31 86q0 57 37.5 92t96.5 35t96.5 -35t37.5 -92q0 -68 -50 -103q48 -32 67 -78h9zM294 655q-11 13 -30 13t-31 -13q-11 -12 -11 -32t11 -33
q12 -12 31 -12t30 12q12 13 12 33t-12 32zM424 258v24q0 57 -31.5 92t-82.5 35t-79.5 -35.5t-28.5 -100.5q0 -66 27.5 -103.5t82.5 -37.5q51 0 81.5 34.5t30.5 91.5z" />
    <glyph glyph-name="atilde.ss01" horiz-adv-x="652" 
d="M356 586q-30 2 -65 20q-38 20 -59 20q-28 0 -63 -38l-69 46q44 112 132 111q31 0 66 -19t59 -19q38 0 57 35l3 4l71 -44q-41 -116 -132 -116zM448 541h151v-541h-175v98h-9q-43 -108 -175 -108q-100 0 -158 74.5t-58 205.5q0 130 57.5 205.5t157.5 75.5q60 0 107 -29
t69 -80h9zM424 258v24q0 57 -31.5 92t-82.5 35t-79.5 -35.5t-28.5 -100.5q0 -66 27.5 -103.5t82.5 -37.5q51 0 81.5 34.5t30.5 91.5z" />
    <glyph glyph-name="g.ss01" horiz-adv-x="642" 
d="M41 -4h174q5 -23 30 -36.5t61 -13.5q51 0 80 23.5t29 62.5v92h-10q-21 -45 -63.5 -70.5t-98.5 -25.5q-99 0 -159 71q-60 72 -60 191q0 115 59 188q60 73 161 73q127 0 174 -110h10l11 100h151v-487q0 -108 -76.5 -169.5t-207.5 -61.5q-115 0 -188 47q-71 47 -77 126z
M309 164q46 0 76 31.5t30 75.5v26q0 46 -29 76.5t-76 30.5q-50 0 -79 -33t-29 -87t29.5 -87t77.5 -33z" />
    <glyph glyph-name="gbreve.ss01" horiz-adv-x="642" 
d="M325 756h106q0 -75 -46 -122t-125 -47q-78 0 -123 47t-45 122h105q0 -35 16.5 -54t46.5 -19q31 0 48 19t17 54zM41 -4h174q5 -23 30 -36.5t61 -13.5q51 0 80 23.5t29 62.5v92h-10q-21 -45 -63.5 -70.5t-98.5 -25.5q-99 0 -159 71q-60 72 -60 191q0 115 59 188
q60 73 161 73q127 0 174 -110h10l11 100h151v-487q0 -108 -76.5 -169.5t-207.5 -61.5q-115 0 -188 47q-71 47 -77 126zM309 164q46 0 76 31.5t30 75.5v26q0 46 -29 76.5t-76 30.5q-50 0 -79 -33t-29 -87t29.5 -87t77.5 -33z" />
    <glyph glyph-name="uni0123.ss01" horiz-adv-x="642" 
d="M321 868v-49q-56 0 -56 -49v-33h64v-140h-137v160q0 111 129 111zM41 -4h174q5 -23 30 -36.5t61 -13.5q51 0 80 23.5t29 62.5v92h-10q-21 -45 -63.5 -70.5t-98.5 -25.5q-99 0 -159 71q-60 72 -60 191q0 115 59 188q60 73 161 73q127 0 174 -110h10l11 100h151v-487
q0 -108 -76.5 -169.5t-207.5 -61.5q-115 0 -188 47q-71 47 -77 126zM309 164q46 0 76 31.5t30 75.5v26q0 46 -29 76.5t-76 30.5q-50 0 -79 -33t-29 -87t29.5 -87t77.5 -33z" />
    <glyph glyph-name="gdotaccent.ss01" horiz-adv-x="642" 
d="M328 590h-134v156h134v-156zM41 -4h174q5 -23 30 -36.5t61 -13.5q51 0 80 23.5t29 62.5v92h-10q-21 -45 -63.5 -70.5t-98.5 -25.5q-99 0 -159 71q-60 72 -60 191q0 115 59 188q60 73 161 73q127 0 174 -110h10l11 100h151v-487q0 -108 -76.5 -169.5t-207.5 -61.5
q-115 0 -188 47q-71 47 -77 126zM309 164q46 0 76 31.5t30 75.5v26q0 46 -29 76.5t-76 30.5q-50 0 -79 -33t-29 -87t29.5 -87t77.5 -33z" />
    <glyph glyph-name="a.ss02" horiz-adv-x="567" 
d="M19 152q0 81 53 127.5t144 46.5h135v30q0 63 -74 63q-35 0 -55 -15.5t-20 -41.5h-171q8 89 77 139t181 50q118 0 178.5 -55.5t60.5 -156.5v-339h-153l-18 88h-9q-17 -47 -60.5 -72.5t-101.5 -25.5q-76 0 -121.5 44.5t-45.5 117.5zM196 172q0 -24 17 -37.5t47 -13.5
q42 0 67 24t25 64v11h-91q-65 0 -65 -48z" />
    <glyph glyph-name="aacute.ss02" horiz-adv-x="567" 
d="M528 710l-243 -136l-51 85l223 167zM19 152q0 81 53 127.5t144 46.5h135v30q0 63 -74 63q-35 0 -55 -15.5t-20 -41.5h-171q8 89 77 139t181 50q118 0 178.5 -55.5t60.5 -156.5v-339h-153l-18 88h-9q-17 -47 -60.5 -72.5t-101.5 -25.5q-76 0 -121.5 44.5t-45.5 117.5z
M196 172q0 -24 17 -37.5t47 -13.5q42 0 67 24t25 64v11h-91q-65 0 -65 -48z" />
    <glyph glyph-name="abreve.ss02" horiz-adv-x="567" 
d="M349 756h106q0 -75 -46 -122t-125 -47q-78 0 -123 47t-45 122h105q0 -35 16.5 -54t46.5 -19q31 0 48 19t17 54zM19 152q0 81 53 127.5t144 46.5h135v30q0 63 -74 63q-35 0 -55 -15.5t-20 -41.5h-171q8 89 77 139t181 50q118 0 178.5 -55.5t60.5 -156.5v-339h-153l-18 88
h-9q-17 -47 -60.5 -72.5t-101.5 -25.5q-76 0 -121.5 44.5t-45.5 117.5zM196 172q0 -24 17 -37.5t47 -13.5q42 0 67 24t25 64v11h-91q-65 0 -65 -48z" />
    <glyph glyph-name="acircumflex.ss02" horiz-adv-x="567" 
d="M172 578l-82 81l147 142h97l148 -142l-83 -81l-113 122zM19 152q0 81 53 127.5t144 46.5h135v30q0 63 -74 63q-35 0 -55 -15.5t-20 -41.5h-171q8 89 77 139t181 50q118 0 178.5 -55.5t60.5 -156.5v-339h-153l-18 88h-9q-17 -47 -60.5 -72.5t-101.5 -25.5
q-76 0 -121.5 44.5t-45.5 117.5zM196 172q0 -24 17 -37.5t47 -13.5q42 0 67 24t25 64v11h-91q-65 0 -65 -48z" />
    <glyph glyph-name="adieresis.ss02" horiz-adv-x="567" 
d="M243 590h-133v156h133v-156zM460 590h-133v156h133v-156zM19 152q0 81 53 127.5t144 46.5h135v30q0 63 -74 63q-35 0 -55 -15.5t-20 -41.5h-171q8 89 77 139t181 50q118 0 178.5 -55.5t60.5 -156.5v-339h-153l-18 88h-9q-17 -47 -60.5 -72.5t-101.5 -25.5
q-76 0 -121.5 44.5t-45.5 117.5zM196 172q0 -24 17 -37.5t47 -13.5q42 0 67 24t25 64v11h-91q-65 0 -65 -48z" />
    <glyph glyph-name="agrave.ss02" horiz-adv-x="567" 
d="M336 663l-51 -84l-243 135l71 116zM19 152q0 81 53 127.5t144 46.5h135v30q0 63 -74 63q-35 0 -55 -15.5t-20 -41.5h-171q8 89 77 139t181 50q118 0 178.5 -55.5t60.5 -156.5v-339h-153l-18 88h-9q-17 -47 -60.5 -72.5t-101.5 -25.5q-76 0 -121.5 44.5t-45.5 117.5z
M196 172q0 -24 17 -37.5t47 -13.5q42 0 67 24t25 64v11h-91q-65 0 -65 -48z" />
    <glyph glyph-name="amacron.ss02" horiz-adv-x="567" 
d="M473 591h-376v132h376v-132zM19 152q0 81 53 127.5t144 46.5h135v30q0 63 -74 63q-35 0 -55 -15.5t-20 -41.5h-171q8 89 77 139t181 50q118 0 178.5 -55.5t60.5 -156.5v-339h-153l-18 88h-9q-17 -47 -60.5 -72.5t-101.5 -25.5q-76 0 -121.5 44.5t-45.5 117.5zM196 172
q0 -24 17 -37.5t47 -13.5q42 0 67 24t25 64v11h-91q-65 0 -65 -48z" />
    <glyph glyph-name="aogonek.ss02" horiz-adv-x="567" 
d="M497 -116q27 0 57 11v-89q-36 -17 -88 -17q-61 -1 -98 31t-37 84q0 62 44 98l-18 86h-9q-17 -47 -60.5 -72.5t-101.5 -25.5q-76 0 -121.5 44.5t-45.5 117.5q0 81 53 127.5t144 46.5h135v30q0 63 -74 63q-35 0 -55 -15.5t-20 -41.5h-171q8 89 77 139t181 50
q118 0 178.5 -55.5t60.5 -156.5v-339h-1q-94 -12 -94 -72q0 -44 64 -44zM352 209v11h-91q-65 0 -65 -48q0 -24 17 -37.5t47 -13.5q42 0 67 24t25 64z" />
    <glyph glyph-name="aring.ss02" horiz-adv-x="567" 
d="M383 540q145 -40 145 -201v-339h-153l-18 88h-9q-17 -47 -60.5 -72.5t-101.5 -25.5q-76 0 -121.5 44.5t-45.5 117.5q0 81 53 127.5t144 46.5h135v30q0 63 -74 63q-35 0 -55 -15.5t-20 -41.5h-171q6 68 46.5 113t110.5 64q-37 34 -37 92q0 57 37.5 92.5t96.5 35.5t96 -36
q38 -35 38 -92t-36 -91zM244 631q-3 -28 19 -39.5t44.5 0t19.5 39.5q3 28 -19.5 40t-44.5 0t-19 -40zM352 209v11h-91q-65 0 -65 -48q0 -24 17 -37.5t47 -13.5q42 0 67 24t25 64z" />
    <glyph glyph-name="atilde.ss02" horiz-adv-x="567" 
d="M348 586q-30 2 -65 20q-38 20 -59 20q-28 0 -63 -38l-69 46q44 112 132 111q30 0 65 -19q37 -19 60 -19q38 0 57 35l3 4l71 -44q-41 -116 -132 -116zM19 152q0 81 53 127.5t144 46.5h135v30q0 63 -74 63q-35 0 -55 -15.5t-20 -41.5h-171q8 89 77 139t181 50
q118 0 178.5 -55.5t60.5 -156.5v-339h-153l-18 88h-9q-17 -47 -60.5 -72.5t-101.5 -25.5q-76 0 -121.5 44.5t-45.5 117.5zM196 172q0 -24 17 -37.5t47 -13.5q42 0 67 24t25 64v11h-91q-65 0 -65 -48z" />
    <glyph glyph-name="h_t_t_p" horiz-adv-x="2007" 
d="M98 768h1811v-953h-670v521h-140v-195h89v-120h-114q-66 0 -97.5 29.5t-31.5 99.5v186h-168v-195h90v-120h-115q-65 0 -96.5 29.5t-31.5 99.5v186h-82v121h82v139h153v-139h168v139h154v-139h273l20 -88h8q18 46 59.5 71.5t94.5 25.5q86 0 139 -63q52 -62 52 -164
t-53 -164t-138 -62q-117 0 -154 94h-8v-203h419v774h-1615v-306h9q40 94 155 94q80 0 121 -52.5t41 -147.5v-245h-153v230q0 44 -21.5 68t-58.5 24q-42 0 -67.5 -30t-25.5 -79v-330h992v-89h-1090v953zM1392 251v-22q0 -39 27.5 -66t70.5 -27q47 0 73.5 29.5t26.5 75.5
q0 45 -27 74t-71 29q-42 0 -71 -28t-29 -65z" />
    <glyph glyph-name="w_w_w" horiz-adv-x="2008" 
d="M336 0h-188l-144 541h170l42 -203l31 -177h6l61 380h161l58 -382h5l76 382h170l73 -380h6l61 380h162l57 -382h5l76 382h170l73 -380h6l61 380h162l57 -382h5l30 177l46 205h170l-148 -541h-187l-53 318h-6l-54 -318h-188l-60 279l-62 -279h-187l-53 318h-6l-54 -318
h-188l-60 276l-61 -276h-188l-53 318h-6z" />
    <glyph glyph-name="g_g.ss01" horiz-adv-x="1285" 
d="M41 -4h174q5 -23 30 -36.5t61 -13.5q51 0 80 23.5t29 62.5v92h-10q-21 -45 -63.5 -70.5t-98.5 -25.5q-99 0 -159 71q-60 72 -60 191q0 115 59 188q60 73 161 73q127 0 174 -110h10l11 100h151v-487q0 -108 -76.5 -169.5t-207.5 -61.5q-115 0 -188 47q-71 47 -77 126z
M683 -4h174q5 -23 30 -36.5t61 -13.5q51 0 80 23.5t29 62.5v92h-10q-21 -45 -63.5 -70.5t-98.5 -25.5q-99 0 -159 71q-60 72 -60 191q0 115 59 188q60 73 161 73q127 0 174 -110h10l11 100h151v-487q0 -108 -76.5 -169.5t-207.5 -61.5q-115 0 -188 47q-71 47 -77 126z
M309 164q46 0 76 31.5t30 75.5v26q0 46 -29 76.5t-76 30.5q-50 0 -79 -33t-29 -87t29.5 -87t77.5 -33zM951 164q46 0 76 31.5t30 75.5v26q0 46 -29 76.5t-76 30.5q-50 0 -79 -33t-29 -87t29.5 -87t77.5 -33z" />
    <glyph glyph-name="zero.ss01" horiz-adv-x="636" 
d="M317 -6q-133 0 -206 99q-74 100 -74 271q0 173 77 270q76 96 206 96t204 -99q74 -98 74 -269q0 -174 -77 -272q-77 -96 -204 -96zM316 147q60 0 80 60q18 55 18 149q0 86 -14 139q-12 48 -31 65.5t-50 17.5q-40 0 -63 -29q-36 -46 -36 -179q0 -126 25 -175q26 -48 71 -48
zM373 312h-111v100h111v-100z" />
    <glyph glyph-name="zero.tf" horiz-adv-x="620" 
d="M312 730q130 0 204 -99q74 -98 74 -269q0 -174 -77 -272q-77 -96 -205 -96q-132 0 -205 99q-74 101 -74 271q0 173 77 270q76 96 206 96zM311 578q-53 0 -75 -47t-24 -146l183 103q-11 49 -31.5 69.5t-52.5 20.5zM308 147q55 4 76.5 51.5t21.5 141.5l-183 -102
q21 -91 85 -91z" />
    <glyph glyph-name="one.tf" horiz-adv-x="620" 
d="M411 721v-568h173v-153h-549v153h197v302h-189v137h30q76 0 119.5 34t50.5 95h168z" />
    <glyph glyph-name="two.tf" horiz-adv-x="620" 
d="M398 154h170v-154h-527v24q0 97 41 168q16 32 51 63q35 34 62 53q16 13 77 55q34 23 56 40q52 44 52 99q0 36 -22 56.5t-59 20.5q-40 0 -61.5 -26.5t-17.5 -73.5h-175q-3 114 69 182q74 69 195 69q115 0 184 -63q70 -61 70 -168q0 -73 -37 -129t-113 -109q-10 -8 -51 -34
q-70 -46 -104 -81q80 8 140 8z" />
    <glyph glyph-name="three.tf" horiz-adv-x="620" 
d="M308 -10q-126 0 -198 63q-73 65 -74 171h175q0 -39 26.5 -61.5t70.5 -22.5t70 23t26 62q0 36 -22.5 56t-61.5 20h-92v131h78q42 0 65 20t23 56q0 34 -23 53t-62 19q-41 0 -65.5 -21t-26.5 -59h-177q5 106 79 167q75 63 198 63q115 0 186 -54t71 -144q0 -53 -26 -95
t-71 -61v-7q51 -15 79 -57.5t28 -102.5q0 -99 -77 -159t-199 -60z" />
    <glyph glyph-name="four.tf" horiz-adv-x="620" 
d="M517 721v-442h77v-143h-77v-136h-176v136h-324v131l259 454h241zM341 533l-145 -254h145v254z" />
    <glyph glyph-name="five.tf" horiz-adv-x="620" 
d="M346 488q109 0 174 -68t65 -176q0 -114 -74 -185q-73 -69 -202 -69q-125 0 -198 66q-74 67 -73 172h178q0 -38 26 -61.5t68 -23.5q44 0 70.5 27t26.5 70q0 45 -27.5 73.5t-72.5 28.5q-70 0 -88 -58h-168l20 437h460v-153h-304l-6 -107l7 -3q42 30 118 30z" />
    <glyph glyph-name="six.tf" horiz-adv-x="620" 
d="M319 -9q-138 0 -211 94.5t-73 272.5q0 183 76 277.5t216 94.5q104 0 170 -51.5t80 -140.5h-174q-15 46 -80 46q-55 0 -84.5 -42.5t-24.5 -114.5h7q44 62 142 62q102 0 165 -67q64 -65 64 -174q0 -116 -75 -187q-73 -70 -198 -70zM230 244q0 -47 25 -74t68 -27t68.5 28
t25.5 74t-25.5 74.5t-68.5 28.5q-42 0 -67.5 -29t-25.5 -75z" />
    <glyph glyph-name="seven.tf" horiz-adv-x="620" 
d="M171 455h-140v266h558v-128q-106 -139 -182 -302q-78 -167 -97 -291h-189q17 126 87 282q72 158 172 286h-209v-113z" />
    <glyph glyph-name="eight.tf" horiz-adv-x="620" 
d="M37 193q0 117 101 164v8q-48 23 -74.5 65.5t-26.5 97.5q0 90 75 146q77 56 200 56q121 0 197 -56q75 -56 75 -145q0 -55 -26.5 -98t-74.5 -66v-8q101 -47 101 -165q0 -92 -76 -147q-74 -55 -198 -55q-121 0 -198 56q-75 56 -75 147zM310 432q44 0 68.5 19.5t24.5 52.5
q0 35 -25.5 55t-67.5 20q-44 0 -68 -20.5t-24 -54.5t25 -53t67 -19zM218 216q0 -35 25 -54.5t67 -19.5q44 0 68.5 20t24.5 54q0 35 -25 54.5t-68 19.5t-67.5 -20t-24.5 -54z" />
    <glyph glyph-name="nine.tf" horiz-adv-x="620" 
d="M296 -9q-101 0 -167.5 52t-79.5 140h175q15 -46 82 -46q56 0 83.5 42t22.5 115h-7q-41 -62 -140 -62q-104 0 -167 66t-63 175q0 116 73 186q74 71 196 71q140 0 214 -97.5t74 -278.5q0 -363 -296 -363zM396 477q0 47 -25 74t-68 27t-68.5 -28t-25.5 -74t25.5 -74.5
t68.5 -28.5q42 0 67.5 29t25.5 75z" />
    <glyph glyph-name="zero.tf.ss01" horiz-adv-x="620" 
d="M312 730q130 0 204 -99q74 -98 74 -269q0 -174 -77 -272q-77 -96 -205 -96q-132 0 -205 99q-74 101 -74 271q0 173 77 270q76 96 206 96zM311 578q-46 0 -68.5 -34.5t-28.5 -106.5h189q-8 77 -30.5 109t-61.5 32zM308 147q46 0 68 34.5t28 106.5h-188q8 -76 31 -108.5
t61 -32.5z" />
    <glyph glyph-name="zero.dnom" horiz-adv-x="416" 
d="M207 -4q-89 0 -135.5 65.5t-46.5 180.5q0 118 48.5 181t134.5 63q89 0 136 -65t47 -180q0 -119 -49 -182t-135 -63zM206 91q38 0 54 36t16 110q0 84 -16.5 119.5t-50.5 35.5q-38 0 -54 -36t-16 -110q0 -83 16.5 -119t50.5 -36z" />
    <glyph glyph-name="one.dnom" horiz-adv-x="316" 
d="M147 306h-125v88h45q42 0 64.5 22t22.5 61v3h103v-480h-110v306z" />
    <glyph glyph-name="two.dnom" horiz-adv-x="382" 
d="M163 92l56 3h125v-95h-316v16q0 102 74 167q15 13 46 38t46.5 39t29.5 36t14 42q0 26 -15 40.5t-39 14.5q-28 0 -42.5 -19t-12.5 -50l-110 6q2 70 49.5 113t122.5 43q74 0 116 -40.5t42 -107.5q0 -42 -21.5 -81t-53.5 -64l-62 -51q-35 -29 -49 -50z" />
    <glyph glyph-name="three.dnom" horiz-adv-x="374" 
d="M184 -7q-75 0 -120.5 41.5t-44.5 109.5h109q1 -24 16 -39.5t38 -15.5q24 0 39.5 15.5t15.5 38.5t-16 37.5t-42 14.5h-44v99h30q28 0 44.5 14.5t16.5 36.5q0 21 -13.5 33.5t-34.5 12.5q-24 0 -38.5 -15.5t-13.5 -39.5h-110q-2 67 43 108.5t122 41.5q72 0 114.5 -35.5
t42.5 -94.5q0 -71 -64 -101v-5q35 -14 55 -44t20 -70q0 -63 -46.5 -103t-118.5 -40z" />
    <glyph glyph-name="four.dnom" horiz-adv-x="368" 
d="M326 480v-301h46v-96h-46v-83h-108v83h-207v88l152 309h163zM218 356l-86 -177h86v177z" />
    <glyph glyph-name="five.dnom" horiz-adv-x="399" 
d="M25 150h111q0 -27 18 -44t45 -17q28 0 45.5 20t17.5 50q0 31 -18.5 51.5t-46.5 20.5q-46 0 -58 -38h-105v287h308v-95h-200v-44l-2 -36l3 -3q29 23 77 23q69 0 111 -46q42 -47 42 -117q0 -76 -48 -122.5t-127 -46.5q-78 0 -125 43q-47 44 -48 114z" />
    <glyph glyph-name="six.dnom" horiz-adv-x="406" 
d="M211 486q66 0 111.5 -36t52.5 -96h-110q-11 38 -58 38q-73 0 -73 -112h4q13 20 40 32t58 12q65 0 105.5 -44.5t40.5 -115.5q0 -75 -48.5 -122.5t-126.5 -47.5q-88 0 -136 63t-48 180q0 118 49 183.5t139 65.5zM145 160q0 -32 18 -51.5t47 -19.5t46.5 20t17.5 54
q0 32 -17.5 51.5t-46.5 19.5q-30 0 -47.5 -20.5t-17.5 -53.5z" />
    <glyph glyph-name="seven.dnom" horiz-adv-x="347" 
d="M9 480h333v-79q-69 -80 -115.5 -184.5t-64.5 -216.5h-108q10 100 51 202q40 101 106 183h-119v-75h-83v170z" />
    <glyph glyph-name="eight.dnom" horiz-adv-x="386" 
d="M19 129q0 79 68 108v6q-32 13 -50 42t-18 66q0 63 47.5 99t128.5 36q80 0 126 -37t46 -98q0 -79 -66 -108v-6q66 -29 66 -109q0 -63 -47 -99t-127 -36q-81 0 -127.5 36.5t-46.5 99.5zM255 338q0 24 -17 38.5t-44 14.5q-28 3 -45.5 -14t-16.5 -38.5t17 -38.5
q17 -14 45 -14t44.5 14.5t16.5 37.5zM194 87q27 0 44 15t17 39q0 25 -17 39q-16 15 -44 15t-45 -15q-16 -17 -17 -39t16.5 -39t45.5 -15z" />
    <glyph glyph-name="nine.dnom" horiz-adv-x="406" 
d="M383 243q0 -118 -49 -183.5t-139 -65.5q-67 0 -111 36t-52 96h109q10 -37 59 -37q72 0 72 111h-5q-12 -20 -38.5 -32t-57.5 -12q-66 0 -106.5 44.5t-40.5 115.5q0 76 49 122q50 48 127 48q87 0 135 -63t48 -180zM198 392q-30 0 -48 -20.5t-18 -53.5q0 -32 18 -52t48 -20
q29 0 45.5 20.5t16.5 53.5t-17 52.5t-45 19.5z" />
    <glyph glyph-name="zero.numr" horiz-adv-x="416" 
d="M207 251q-88 0 -135 65t-47 178q0 116 48.5 178.5t134.5 62.5q89 0 136 -64.5t47 -177.5q0 -117 -49 -179.5t-135 -62.5zM206 345q38 0 54 36t16 108q0 82 -16.5 117t-50.5 35q-38 0 -54 -35t-16 -108q0 -153 67 -153z" />
    <glyph glyph-name="one.numr" horiz-adv-x="316" 
d="M147 557h-125v87h45q42 0 64.5 21.5t22.5 60.5v3h103v-473h-110v301z" />
    <glyph glyph-name="two.numr" horiz-adv-x="382" 
d="M163 346l56 3h125v-94h-316v17q0 100 74 165q14 12 45.5 37t47 38.5t29.5 35t14 41.5q0 24 -15 38.5t-39 14.5q-28 0 -42.5 -18t-12.5 -50l-110 6q2 69 49.5 112t122.5 43q74 0 116 -40t42 -106q0 -42 -21.5 -80t-53.5 -63l-62 -50q-35 -29 -49 -50z" />
    <glyph glyph-name="three.numr" horiz-adv-x="374" 
d="M184 248q-74 0 -120 41t-45 108h109q1 -23 16 -38.5t38 -15.5q24 0 39.5 15t15.5 38t-16.5 37t-41.5 14h-44v98h30q29 0 45 13.5t16 37.5q0 44 -48 44q-25 0 -39 -15t-13 -39h-110q-2 67 42.5 108t122.5 41q72 0 114.5 -35.5t42.5 -92.5q0 -72 -64 -100v-5
q75 -30 75 -113q0 -63 -46.5 -102t-118.5 -39z" />
    <glyph glyph-name="four.numr" horiz-adv-x="368" 
d="M326 729v-298h46v-94h-46v-81h-108v81h-207v87l152 305h163zM218 607l-86 -176h86v176z" />
    <glyph glyph-name="five.numr" horiz-adv-x="399" 
d="M25 403h111q0 -26 18.5 -43.5t44.5 -17.5q27 0 45 20t18 50q0 31 -18.5 51.5t-46.5 20.5q-46 0 -58 -39h-105v284h308v-95h-200v-43l-2 -35l3 -3q26 23 77 23q68 0 110.5 -45.5t42.5 -115.5q0 -75 -48 -121q-47 -46 -127 -46q-77 0 -124.5 43t-48.5 112z" />
    <glyph glyph-name="six.numr" horiz-adv-x="406" 
d="M23 489q0 117 49 181.5t139 64.5q67 0 112 -35t52 -95h-110q-11 36 -58 36q-38 0 -55.5 -26.5t-17.5 -82.5h4q31 44 98 44q65 0 105.5 -44.5t40.5 -114.5q0 -75 -49 -121q-49 -47 -126 -47q-88 0 -136 62t-48 178zM145 413q0 -32 18 -51.5t47 -19.5t46.5 20.5t17.5 53.5
q0 32 -17.5 51.5t-46.5 19.5q-30 0 -47.5 -20.5t-17.5 -53.5z" />
    <glyph glyph-name="seven.numr" horiz-adv-x="347" 
d="M9 729h333v-79q-143 -164 -180 -394h-108q12 99 52 198q39 99 103 180h-117v-72h-83v167z" />
    <glyph glyph-name="eight.numr" horiz-adv-x="386" 
d="M19 382q0 77 68 107v6q-68 32 -68 107q0 62 47.5 97.5t128.5 35.5q80 0 126 -36t46 -97q0 -76 -66 -107v-6q66 -30 66 -107q0 -62 -47.5 -98t-126.5 -36q-80 0 -127 36.5t-47 97.5zM132 589q0 -24 16.5 -38t45.5 -14q28 0 44.5 14.5t16.5 37.5q0 24 -16.5 37.5
t-44.5 13.5q-29 0 -45.5 -14t-16.5 -37zM255 394q0 24 -17 38.5t-44 14.5q-28 2 -45.5 -15t-16.5 -38.5t17 -38.5q17 -14 45 -14q27 0 44 15.5t17 37.5z" />
    <glyph glyph-name="nine.numr" horiz-adv-x="406" 
d="M383 495q0 -117 -49 -181.5t-139 -64.5q-66 0 -111 35.5t-52 95.5h109q12 -38 59 -38q72 0 72 110h-5q-25 -43 -96 -43q-66 0 -106.5 44.5t-40.5 113.5q0 75 48 121q50 47 128 47q87 0 135 -62.5t48 -177.5zM198 641q-30 0 -48 -20t-18 -52t18 -52t48 -20q29 0 45.5 20.5
t16.5 53.5q0 32 -17 51t-45 19z" />
    <glyph glyph-name="question.ss01" horiz-adv-x="548" 
d="M200 510h-177q0 107 68.5 167.5t187.5 60.5q111 0 174.5 -52.5t63.5 -140.5q0 -26 -7 -53q-9 -29 -18 -44q-8 -12 -12 -20l-16 -21l-15 -20l-18 -22l-18 -21q-39 -47 -51 -66.5t-12 -38.5v-8h-168v10q0 79 81 168l21 23q20 22 22 25q39 42 34 71q0 27 -19 43t-49 16
q-36 0 -55.5 -21t-16.5 -56zM354 0h-171v162h171v-162z" />
    <glyph glyph-name="questiondown.ss01" horiz-adv-x="548" 
d="M187 615h170v-162h-170v162zM341 105h176q0 -107 -68.5 -167.5t-187.5 -60.5q-111 0 -174.5 52.5t-63.5 140.5q0 27 8 57q2 7 6.5 16.5t10 20t6.5 13.5q2 5 9 14.5t15 19t9 11.5l21 25l20 24q38 47 50.5 67t12.5 38v8h167v-10q0 -80 -81 -168q-2 -3 -18 -19
q-8 -9 -13 -14.5t-10 -12t-11 -12.5q-20 -25 -25 -61q0 -27 19 -43t50 -16q35 0 54.5 21t17.5 56z" />
    <glyph glyph-name="numbersign.ss03" horiz-adv-x="633" 
d="M607 543l-21 -77h-95l-41 -179h118l-19 -77h-117l-48 -210h-89l48 210h-132l-48 -210h-88l48 210h-97l22 77h93l41 179h-117l22 77h112l48 208h88l-48 -208h133l48 208h89l-48 -208h98zM229 287h132l41 179h-132z" />
    <glyph glyph-name="parenleft.case" horiz-adv-x="290" 
d="M48 365q0 115 44 218q43 101 118 166h83q-74 -67 -116 -171q-41 -105 -41 -213q0 -115 43 -217t114 -167h-83q-76 65 -120 168q-42 103 -42 216z" />
    <glyph glyph-name="parenright.case" horiz-adv-x="290" 
d="M243 365q0 -115 -44 -220q-44 -103 -117 -164h-84q75 67 115 170q42 104 42 214q0 115 -43 216q-44 103 -114 168h84q75 -63 118 -169q43 -102 43 -215z" />
    <glyph glyph-name="braceleft.case" horiz-adv-x="282" 
d="M15 291v77q35 0 53.5 20.5t18.5 56.5v200q0 43 23.5 67t67.5 24h99v-71h-107v-215q0 -102 -79 -115v-3q38 -10 58.5 -41t20.5 -77v-224h107v-73h-99q-43 0 -67 24.5t-24 68.5v209q0 72 -72 72z" />
    <glyph glyph-name="braceright.case" horiz-adv-x="282" 
d="M266 368v-77q-33 0 -53 -18t-20 -54v-209q0 -45 -23 -69t-66 -24h-99v73h105v224q0 95 80 118v3q-80 14 -80 115v215h-105v71h99q43 0 66 -24t23 -67v-200q0 -35 19.5 -56t53.5 -21z" />
    <glyph glyph-name="bracketleft.case" horiz-adv-x="255" 
d="M250 -83h-197v842h197v-75h-115v-694h115v-73z" />
    <glyph glyph-name="bracketright.case" horiz-adv-x="255" 
d="M202 -83h-197v73h116v694h-116v75h197v-842z" />
    <glyph glyph-name="hyphen.case" horiz-adv-x="477" 
d="M423 323h-369v94h369v-94z" />
    <glyph glyph-name="endash.case" horiz-adv-x="653" 
d="M599 323h-545v94h545v-94z" />
    <glyph glyph-name="emdash.case" horiz-adv-x="849" 
d="M795 323h-741v94h741v-94z" />
    <glyph glyph-name="greater.case" horiz-adv-x="542" 
d="M489 302l-399 -213v166l120 56l151 52v9l-144 54l-127 63v159l399 -216v-130z" />
    <glyph glyph-name="less.case" horiz-adv-x="542" 
d="M452 255v-166l-399 213v130l399 216v-159l-127 -63l-143 -54v-9l149 -52z" />
    <glyph glyph-name="percent.tf" horiz-adv-x="588" 
d="M24 584q0 66 44 112q44 45 114 45q72 0 115 -46q44 -47 44 -114t-45 -112q-44 -45 -114 -45q-66 0 -113 45q-45 45 -45 115zM130 585q0 -29 14 -46.5t38 -17.5t39.5 17.5t15.5 46.5q0 25 -15.5 42t-39.5 17q-23 0 -37.5 -17t-14.5 -42zM568 437l-548 -214v76l548 216v-78
zM241 151q0 65 44 111q45 45 114 45q71 0 115 -45q45 -45 45 -112q0 -68 -45 -114t-115 -46q-67 0 -113 45q-45 45 -45 116zM347 152q0 -29 14.5 -46t37.5 -17q24 0 40 17t16 46q0 26 -15.5 43t-40.5 17q-22 0 -37 -17t-15 -43z" />
    <glyph glyph-name="perthousand.tf" horiz-adv-x="644" 
d="M181 437q-67 0 -114 42q-45 42 -45 109t45 109q47 42 114 42t113 -43q47 -42 47 -108q0 -65 -47 -109q-46 -42 -113 -42zM182 643q-23 0 -37.5 -15t-14.5 -40q0 -24 13.5 -38t37.5 -14q25 0 40 15t15 40q0 23 -15 37.5t-39 14.5zM51 338l548 214v-76l-548 -215v77z
M472 290q66 0 107 -41t41 -107q0 -68 -41 -110t-109 -42q-67 0 -115 53q-47 -53 -116 -53q-68 0 -109.5 41.5t-41.5 109.5q0 67 41.5 108.5t108.5 41.5q68 0 115 -54q50 53 119 53zM462 89q24 0 38.5 15.5t14.5 41.5q0 22 -15 36t-38 14q-24 0 -39 -15t-15 -38
q0 -25 15 -39.5t39 -14.5zM246 86q25 0 40 16t15 41q0 22 -14.5 36.5t-37.5 14.5q-24 0 -39 -14.5t-15 -38.5t14.5 -39.5t36.5 -15.5z" />
    <glyph glyph-name="uni1F310" horiz-adv-x="1014" 
d="M507 738q199 0 325 -105q126 -103 126 -268t-127 -270q-126 -105 -324 -105q-197 0 -325 105q-127 105 -127 270t126 268q126 105 326 105zM410 578h193q-35 126 -96 126t-97 -126zM425 692q-95 -27 -149 -114h96q19 73 53 114zM641 578h96q-54 87 -148 114
q33 -41 52 -114zM307 668q-83 -34 -132 -90h57q30 52 75 90zM781 578h57q-52 57 -132 90q45 -38 75 -90zM833 384h84q-5 87 -48 153v-2h-68q29 -70 32 -151zM95 384h84q3 81 32 151h-69q-43 -68 -47 -151zM362 535h-109q-30 -71 -33 -151h127q1 83 15 151zM385 384h242
q-2 88 -14 151h-213q-14 -66 -15 -151zM666 384h127q-3 80 -33 151h-109q14 -68 15 -151zM179 343h-84q5 -82 47 -148h69q-27 65 -32 148zM347 343h-127q4 -83 33 -148h109q-14 66 -15 148zM627 343h-242q1 -74 15 -148h212q14 65 15 148zM651 195h109q29 65 33 148h-127
q-1 -82 -15 -148zM917 343h-84q-4 -80 -31 -148h68q42 66 47 148zM230 154h-56q52 -58 130 -91q-42 36 -74 91zM371 154h-96q54 -88 149 -117q-34 43 -53 117zM603 154h-193q16 -61 41.5 -95t55.5 -34q61 0 96 129zM590 37q94 28 148 117h-96q-19 -71 -52 -117zM709 63
q78 33 130 91h-57q-29 -53 -73 -91z" />
    <glyph glyph-name="uni1F441" horiz-adv-x="809" 
d="M40 366q0 164 103 267q104 104 262 104q157 0 261 -104q103 -103 103 -267q0 -169 -103 -272q-102 -103 -261 -103t-262 103t-103 272zM112 366q0 -136 83 -222q84 -85 210 -85q127 0 209 85q84 86 84 222q0 134 -84 218q-82 85 -209 85q-126 0 -210 -85
q-83 -85 -83 -218zM215 367q0 84 55 136q56 54 135 54t135 -54q55 -52 55 -136q0 -87 -55 -141q-54 -54 -135 -54t-136 54q-54 54 -54 141zM251 376v-21l145 7l-94 -86l16 -18l84 98l-7 -150h21l-7 150l83 -98l16 18l-93 86l145 -7v21l-145 -6l93 84l-16 17l-83 -95l7 148
h-21l7 -148l-84 95l-16 -17l94 -84z" />
    </font>
</defs>
</svg>
