<?xml version="1.0" standalone="no"?>
<!DOCTYPE svg PUBLIC "-//W3C//DTD SVG 1.1//EN" "http://www.w3.org/Graphics/SVG/1.1/DTD/svg11.dtd" >
<svg xmlns="http://www.w3.org/2000/svg" xmlns:xlink="http://www.w3.org/1999/xlink" version="1.1">
<metadata>
Created by FontForge 20170731 at Wed Jul 11 02:32:40 2018
 By Aleksey,,,
Copyright (c) 2017 by Deni Anggara. All rights reserved.
</metadata>
<defs>
<font id="AllianceNo.1-BoldItalic" horiz-adv-x="0" >
  <font-face 
    font-family="Alliance No.1"
    font-weight="700"
    font-style="italic"
    font-stretch="normal"
    units-per-em="1000"
    panose-1="0 0 5 0 0 0 0 0 0 0"
    ascent="797"
    descent="-203"
    x-height="536"
    cap-height="729"
    bbox="-475 -290 2179 1009"
    underline-thickness="50"
    underline-position="-200"
    slope="-8"
    unicode-range="U+000D-FB02"
  />
<missing-glyph horiz-adv-x="746" 
d="M709 0h-644v729h644v-729zM128 666v-604h518v604h-518zM583 125h-392v478h392v-478zM254 540v-351h266v351h-266zM317 252v225h140v-225h-140z" />
    <glyph glyph-name="fi" unicode="fi" horiz-adv-x="662" 
d="M300 536h337l-75 -536h-153l59 413h-186l-58 -413h-152l58 413h-100l17 123h101l6 47q12 87 61.5 128t142.5 41q52 0 95 -12l-16 -117q-18 6 -51 6q-38 0 -57 -15t-24 -46zM493 592l20 148h152l-20 -148h-152z" />
    <glyph glyph-name="fl" unicode="fl" horiz-adv-x="664" 
d="M488 536l29 208h152l-104 -744h-153l58 413h-188l-58 -413h-152l58 413h-100l17 123h101l6 47q12 87 61.5 128t142.5 41q52 0 95 -12l-16 -117q-18 6 -51 6q-38 0 -57 -15t-24 -46l-5 -32h188z" />
    <glyph glyph-name="f_f" unicode="ff" horiz-adv-x="728" 
d="M717 629q-71 0 -81 -61l-5 -32h119l-18 -123h-118l-58 -413h-153l59 413h-180l-58 -413h-152l58 413h-100l17 123h101l6 47q12 87 61.5 128t142.5 41q52 0 95 -12l-16 -117q-18 6 -51 6q-38 0 -57 -15t-24 -46l-5 -32h179l7 47q11 87 60.5 128t142.5 41q51 0 95 -12
l-15 -117q-18 6 -52 6z" />
    <glyph glyph-name="f_f_i" unicode="ffi" horiz-adv-x="994" 
d="M631 536h337l-75 -536h-152l58 413h-185l-58 -413h-153l59 413h-180l-58 -413h-152l58 413h-100l17 123h101l6 47q12 87 61.5 128t142.5 41q52 0 95 -12l-16 -117q-18 6 -51 6q-38 0 -57 -15t-24 -46l-5 -32h179l7 47q11 87 60.5 128t142.5 41q51 0 95 -12l-15 -117
q-18 6 -52 6q-71 0 -81 -61zM825 592l20 148h152l-20 -148h-152z" />
    <glyph glyph-name="t_i" unicode="ti" horiz-adv-x="645" 
d="M476 592l21 148h152l-21 -148h-152zM284 536h336l-75 -536h-152l58 413h-185l-32 -229q-4 -38 8 -54t52 -16q24 0 46 5l-17 -118q-39 -9 -86 -9q-91 0 -130 47.5t-27 135.5l34 238h-86l18 123h86l18 132l160 59z" />
    <glyph glyph-name="t_t" unicode="tt" horiz-adv-x="720" 
d="M712 413h-115l-32 -229q-6 -37 6.5 -53.5t52.5 -16.5q25 0 47 5l-17 -118q-39 -9 -87 -9q-91 0 -129.5 47.5t-26.5 135.5l34 238h-179l-32 -229q-4 -38 8 -54t52 -16q24 0 46 5l-17 -118q-39 -9 -86 -9q-91 0 -130 47.5t-27 135.5l34 238h-86l18 123h86l18 132l160 59
l-26 -191h178l18 132l161 59l-26 -191h115z" />
    <glyph glyph-name="t_t_i" unicode="tti" horiz-adv-x="970" 
d="M801 592l20 148h152l-20 -148h-152zM612 536h333l-76 -536h-152l58 413h-181l-32 -229q-6 -37 6.5 -53.5t52.5 -16.5q25 0 47 5l-17 -118q-39 -9 -87 -9q-91 0 -129.5 47.5t-26.5 135.5l34 238h-176l-32 -229q-4 -38 8 -54t52 -16q24 0 46 5l-17 -118q-39 -9 -86 -9
q-91 0 -130 47.5t-27 135.5l34 238h-86l18 123h86l18 132l160 59l-26 -191h175l18 132l161 59z" />
    <glyph glyph-name="hyphen_hyphen_greater" unicode="&#x2d;&#x2d;&#x3e;" horiz-adv-x="863" 
d="M700 230h-597v84h597l-169 227h106l204 -268l-204 -273h-106z" />
    <glyph glyph-name="less_hyphen_hyphen" unicode="&#x3c;&#x2d;&#x2d;" horiz-adv-x="862" 
d="M763 314v-84h-598l169 -230h-106l-203 273l203 268h106l-169 -227h598z" />
    <glyph glyph-name=".notdef" horiz-adv-x="746" 
d="M709 0h-644v729h644v-729zM128 666v-604h518v604h-518zM583 125h-392v478h392v-478zM254 540v-351h266v351h-266zM317 252v225h140v-225h-140z" />
    <glyph glyph-name=".null" 
 />
    <glyph glyph-name="nonmarkingreturn" horiz-adv-x="333" 
 />
    <glyph glyph-name="CR" unicode="&#xd;" horiz-adv-x="189" 
 />
    <glyph glyph-name="space" unicode=" " horiz-adv-x="214" 
 />
    <glyph glyph-name="exclam" unicode="!" horiz-adv-x="302" 
d="M186 230h-78l1 285l30 214h154l-29 -214zM195 0h-163l20 146h164z" />
    <glyph glyph-name="quotedbl" unicode="&#x22;" horiz-adv-x="504" 
d="M256 570l-62 -185h-66l-10 185l23 159h137zM471 570l-61 -185h-66l-10 185l22 159h138z" />
    <glyph glyph-name="numbersign" unicode="#" horiz-adv-x="708" 
d="M693 542l-9 -71h-116l-26 -188h115l-10 -72h-115l-30 -211h-76l30 211h-217l-30 -211h-77l30 211h-117l9 72h118l26 188h-117l10 71h117l29 208h77l-29 -208h217l29 208h76l-29 -208h115zM249 283h217l26 188h-217z" />
    <glyph glyph-name="dollar" unicode="$" horiz-adv-x="566" 
d="M309 577q-34 0 -54.5 -17t-20.5 -44q0 -26 16.5 -39.5t51.5 -22.5l69 -16q74 -17 115.5 -65.5t41.5 -115.5q0 -88 -64 -145q-65 -56 -168 -62l-10 -69h-98l11 76q-78 17 -121 69.5t-45 130.5h152q-2 -40 22.5 -64.5t68.5 -24.5q38 0 61.5 18t23.5 48q0 46 -66 62l-60 16
q-166 45 -166 184q0 86 59.5 139t159.5 59l10 70h98l-11 -77q71 -17 109.5 -64.5t37.5 -116.5h-146q-1 32 -21.5 51.5t-55.5 19.5z" />
    <glyph glyph-name="percent" unicode="%" horiz-adv-x="933" 
d="M92 543q0 87 55 141q56 54 139 54q75 0 121.5 -46.5t46.5 -123.5q0 -87 -55 -141t-139 -54q-74 0 -121 47t-47 123zM233 0h-77l565 729h78zM193 547q0 -39 19.5 -61.5t52.5 -22.5q38 0 63.5 28.5t25.5 73.5q0 39 -20 61.5t-53 22.5q-38 0 -63 -28.5t-25 -73.5zM504 160
q0 87 55 141t139 54q75 0 121 -46.5t46 -123.5q0 -87 -55 -141q-56 -54 -139 -54q-74 0 -121 47q-46 46 -46 123zM604 164q0 -39 19.5 -61.5t53.5 -22.5q38 0 63 28.5t25 73.5q0 39 -19.5 61.5t-53.5 22.5q-38 0 -63 -28.5t-25 -73.5z" />
    <glyph glyph-name="ampersand" unicode="&#x26;" horiz-adv-x="767" 
d="M730 398l-16 -113h-83q-17 -71 -57 -126l118 -159h-198l-36 51q-82 -61 -211 -61q-99 0 -156.5 42.5t-57.5 119.5q0 55 26 102q25 44 57.5 73t88.5 61l1 6q-71 74 -71 140q0 90 67 147q68 57 176 57q88 0 138 -39t50 -106q0 -63 -38.5 -113t-113.5 -99l-1 -8l75 -108
q18 39 35 133h207zM331 469h8q71 59 71 105q0 21 -14 32.5t-38 11.5q-30 0 -48.5 -18t-18.5 -48q0 -34 40 -83zM290 123q56 0 89 30l-104 142q-71 -42 -71 -102q0 -33 23 -51.5t63 -18.5z" />
    <glyph glyph-name="quotesingle" unicode="'" horiz-adv-x="289" 
d="M256 570l-62 -185h-66l-10 185l23 159h137z" />
    <glyph glyph-name="parenleft" unicode="(" horiz-adv-x="378" 
d="M60 239q0 158 82 307q83 150 212 227h89q-131 -76 -217 -227q-84 -149 -84 -302q0 -117 46 -218q46 -102 127 -158h-89q-79 56 -122 156q-44 102 -44 215z" />
    <glyph glyph-name="parenright" unicode=")" horiz-adv-x="366" 
d="M333 401q0 -156 -83 -307q-82 -149 -210 -226h-89q131 76 216 226q85 149 85 303q0 117 -47 219q-47 101 -127 157h89q79 -56 122 -156q44 -102 44 -216z" />
    <glyph glyph-name="asterisk" unicode="*" horiz-adv-x="356" 
d="M95 473l-24 55l114 48l-100 49l39 55l84 -70l4 119h63l-30 -120l103 71l25 -55l-115 -49l101 -48l-40 -55l-83 72l-4 -120h-63l30 120z" />
    <glyph glyph-name="plus" unicode="+" horiz-adv-x="612" 
d="M555 271h-188l-28 -195h-122l27 195h-187l17 119h187l27 194h123l-27 -194h188z" />
    <glyph glyph-name="comma" unicode="," horiz-adv-x="231" 
d="M-25 -164l8 55q89 0 100 81l4 28h-73l23 161h148l-25 -173q-21 -152 -185 -152z" />
    <glyph glyph-name="hyphen" unicode="-" horiz-adv-x="474" 
d="M416 258h-361l11 84h361z" />
    <glyph glyph-name="period" unicode="." horiz-adv-x="275" 
d="M174 0h-148l23 164h148z" />
    <glyph glyph-name="slash" unicode="/" horiz-adv-x="367" 
d="M50 0h-83l376 729h84z" />
    <glyph glyph-name="zero" unicode="0" horiz-adv-x="640" 
d="M294 -8q-114 0 -178 82q-63 82 -63 225q0 186 92 308q93 123 233 123q113 0 177 -82t64 -223q0 -187 -93 -310q-92 -123 -232 -123zM303 126q67 0 111 87q44 88 44 221q0 162 -89 162q-67 0 -111 -87q-43 -85 -43 -220q0 -163 88 -163z" />
    <glyph glyph-name="one" unicode="1" horiz-adv-x="448" 
d="M230 475h-186l17 118h31q70 0 120 35.5t62 92.5h146l-101 -721h-155z" />
    <glyph glyph-name="two" unicode="2" horiz-adv-x="587" 
d="M238 132l74 4h220l-20 -136h-501l4 24q22 165 173 267q24 17 63 41.5t62.5 40t48.5 37.5t36.5 46t11.5 53q0 40 -24.5 63.5t-64.5 23.5q-48 0 -75 -29.5t-23 -78.5h-150q3 107 74 175q71 67 183 67t177.5 -57.5t65.5 -158.5q-1 -76 -36.5 -129.5t-100.5 -98.5
q-39 -29 -74 -50q-88 -53 -124 -104z" />
    <glyph glyph-name="three" unicode="3" horiz-adv-x="609" 
d="M279 -10q-113 0 -179 63t-63 165h158q-2 -42 23 -68t70 -26q49 0 80.5 27t31.5 71q-1 45 -32 66t-67 19h-74l17 123h60q56 0 88.5 25.5t32.5 67.5q0 34 -23 53.5t-62 19.5q-47 0 -77 -26t-29 -66h-157q5 103 81 164q79 62 198 62q104 0 169 -50q64 -49 64 -133
q0 -62 -32.5 -108t-90.5 -67l-1 -6q93 -36 93 -149q0 -102 -77 -165q-77 -62 -202 -62z" />
    <glyph glyph-name="four" unicode="4" horiz-adv-x="633" 
d="M581 721l-64 -453h86l-17 -128h-87l-19 -140h-155l19 140h-330l16 119l321 462h230zM406 580l-217 -312h173z" />
    <glyph glyph-name="five" unicode="5" horiz-adv-x="616" 
d="M352 485q98 0 158 -62q60 -61 60 -161q0 -121 -79 -197q-79 -75 -206 -75q-112 0 -183 65q-69 65 -69 171h157q-1 -46 26 -73t73 -27q54 0 87.5 35t33.5 90q0 48 -27 76t-73 28q-36 0 -66 -17t-41 -44h-149l80 427h449l-19 -135h-312l-25 -134l6 -3q47 36 119 36z" />
    <glyph glyph-name="six" unicode="6" horiz-adv-x="628" 
d="M309 -9q-124 0 -188 82.5t-64 233.5q0 187 88 305t241 118q98 0 162 -54q65 -53 74 -140h-155q-6 29 -31 46.5t-59 17.5q-60 0 -99 -49.5t-47 -136.5h7q49 70 150 70q88 0 142 -60q55 -58 55 -156q0 -124 -78 -200q-77 -77 -198 -77zM310 126q51 0 84 37t33 93
q0 46 -24 74t-66 28q-51 0 -85 -39q-34 -37 -34 -93q1 -46 25.5 -73t66.5 -27z" />
    <glyph glyph-name="seven" unicode="7" horiz-adv-x="561" 
d="M171 468h-125l36 253h520l-15 -112q-117 -135 -215 -297q-99 -165 -143 -312h-167q42 141 132 298q92 156 204 288h-211z" />
    <glyph glyph-name="eight" unicode="8" horiz-adv-x="614" 
d="M28 178q0 62 35 112.5t93 71.5l1 8q-82 45 -82 141q0 95 81 157q82 62 208 62q114 0 180.5 -51t66.5 -138q0 -63 -35 -113.5t-92 -68.5l-1 -8q37 -19 58.5 -56.5t21.5 -84.5q0 -98 -80 -160q-79 -60 -207 -60q-111 0 -180 51q-68 53 -68 137zM234 502q0 -37 25.5 -57.5
t70.5 -20.5q52 0 84 26.5t32 67.5q0 35 -26 56.5t-71 21.5q-51 0 -83 -26.5t-32 -67.5zM192 202q0 -36 26.5 -57t69.5 -21q52 0 84.5 27t32.5 69q0 36 -25.5 57t-69.5 21q-52 0 -85 -27t-33 -69z" />
    <glyph glyph-name="nine" unicode="9" horiz-adv-x="624" 
d="M265 -9q-97 0 -162 53q-64 52 -75 140h155q5 -28 30 -45.5t61 -17.5q61 0 99.5 49.5t46.5 137.5h-7q-49 -72 -150 -72q-88 0 -144 59q-54 60 -54 158q0 123 77 200t199 77q124 0 188 -82t64 -233q0 -189 -86 -307q-85 -117 -242 -117zM313 363q52 0 85.5 36.5t33.5 92.5
q0 47 -25 75t-68 28q-51 0 -83.5 -37t-32.5 -94q0 -46 24 -73.5t66 -27.5z" />
    <glyph glyph-name="colon" unicode=":" horiz-adv-x="282" 
d="M232 385h-148l21 151h148zM178 0h-148l21 150h148z" />
    <glyph glyph-name="semicolon" unicode=";" horiz-adv-x="259" 
d="M216 385h-148l21 151h148zM-23 -160l7 52q48 0 70.5 17.5t27.5 55.5l5 35h-73l21 150h148l-24 -169q-19 -141 -182 -141z" />
    <glyph glyph-name="less" unicode="&#x3c;" horiz-adv-x="525" 
d="M440 162l-21 -147l-364 216l16 114l424 215l-20 -144l-140 -63l-146 -61l-1 -10l134 -60z" />
    <glyph glyph-name="equal" unicode="=" horiz-adv-x="541" 
d="M476 342h-391l17 125h392zM446 127h-391l17 124h392z" />
    <glyph glyph-name="greater" unicode="&#x3e;" horiz-adv-x="525" 
d="M460 231l-426 -216l21 147l134 60l153 60l1 10l-130 61l-122 63l20 144l365 -215z" />
    <glyph glyph-name="question" unicode="?" horiz-adv-x="595" 
d="M341 212h-145l28 197q24 -8 66 -8q68 0 107 30t39 81q0 42 -29 68.5t-74 26.5q-47 0 -79 -23t-39 -60h-149q16 100 93 157t189 57t176 -60q66 -60 66 -153q0 -102 -69 -165q-68 -62 -169 -65zM315 0h-155l21 148h156z" />
    <glyph glyph-name="at" unicode="@" horiz-adv-x="917" 
d="M56 244q0 210 138 352q139 142 343 142q158 0 251 -87q94 -87 94 -229q0 -136 -69 -228q-68 -92 -169 -92q-41 0 -69.5 20.5t-34.5 54.5h-7q-44 -71 -127 -71q-60 0 -95 41t-35 111q0 106 59 182q58 76 144 76q70 0 97 -52h6l17 40h63l-52 -244q-16 -75 42 -75
q60 0 99 65q40 64 40 163q0 113 -72 178q-71 64 -192 64q-163 0 -268 -112q-105 -113 -105 -285q0 -128 78 -202q80 -74 209 -74q127 0 244 53l-12 -86q-108 -50 -248 -50q-169 0 -269 93t-100 252zM365 270q0 -39 17 -60t46 -21q48 0 82 48q34 49 34 117q0 41 -17.5 62.5
t-47.5 21.5q-48 0 -81 -49t-33 -119z" />
    <glyph glyph-name="A" unicode="A" horiz-adv-x="710" 
d="M674 0h-170l-24 127h-286l-59 -127h-173l358 729h189zM393 560l-142 -309h206l-58 309h-6z" />
    <glyph glyph-name="B" unicode="B" horiz-adv-x="717" 
d="M408 0h-368l102 729h368q89 0 141 -42.5t52 -114.5q0 -65 -35 -116.5t-94 -73.5l-1 -9q101 -29 101 -139q0 -103 -75 -169q-74 -65 -191 -65zM283 608l-26 -176h165q49 0 80 29.5t31 75.5q0 34 -23 52.5t-63 18.5h-164zM241 313l-27 -192h169q56 0 89.5 31t33.5 83
q0 39 -26 58.5t-70 19.5h-169z" />
    <glyph glyph-name="C" unicode="C" horiz-adv-x="781" 
d="M577 252h167q-21 -117 -116 -190q-94 -72 -231 -72q-156 0 -252 98q-95 98 -95 259q0 167 104 279q103 112 271 112q133 0 224 -71q91 -70 105 -188h-167q-15 53 -60 85t-105 32q-89 0 -145 -68t-56 -176q0 -100 48.5 -160t130.5 -60q58 0 108 33t69 87z" />
    <glyph glyph-name="D" unicode="D" horiz-adv-x="755" 
d="M334 0h-294l102 729h293q145 0 223.5 -81t78.5 -224q0 -191 -112 -307q-111 -117 -291 -117zM284 590l-63 -451h103q115 0 179 71t64 204q0 176 -177 176h-106z" />
    <glyph glyph-name="E" unicode="E" horiz-adv-x="641" 
d="M555 0h-515l102 729h515l-19 -139h-354l-20 -147h303l-19 -131h-303l-24 -173h354z" />
    <glyph glyph-name="F" unicode="F" horiz-adv-x="618" 
d="M201 0h-161l102 729h516l-20 -139h-354l-28 -200h314l-18 -132h-314z" />
    <glyph glyph-name="G" unicode="G" horiz-adv-x="815" 
d="M357 272l18 128h396l-56 -400h-132l5 97h-7q-33 -51 -94 -79t-137 -28q-136 0 -219 93q-82 94 -82 249q0 179 106 292q107 114 275 114q126 0 212 -66q87 -65 106 -174h-168q-14 44 -55 71t-96 27q-93 0 -151 -73t-58 -185q0 -99 47.5 -157t128.5 -58q71 0 122 42t63 107
h-224z" />
    <glyph glyph-name="H" unicode="H" horiz-adv-x="807" 
d="M201 0h-161l102 729h161l-41 -294h330l41 294h161l-102 -729h-161l43 307h-330z" />
    <glyph glyph-name="I" unicode="I" horiz-adv-x="316" 
d="M303 729l-102 -729h-161l102 729h161z" />
    <glyph glyph-name="J" unicode="J" horiz-adv-x="418" 
d="M411 729l-71 -507q-34 -231 -266 -231q-58 0 -96 9l19 131q28 -5 63 -5q56 0 85 28.5t37 86.5l68 488h161z" />
    <glyph glyph-name="K" unicode="K" horiz-adv-x="724" 
d="M578 729h197l-307 -316l215 -413h-194l-149 282l-116 -119l-23 -163h-161l102 729h161l-48 -340z" />
    <glyph glyph-name="L" unicode="L" horiz-adv-x="572" 
d="M498 0h-458l102 729h161l-82 -585h297z" />
    <glyph glyph-name="M" unicode="M" horiz-adv-x="917" 
d="M198 0h-158l102 729h201l121 -407h7l233 407h201l-102 -729h-157l43 307l38 200h-7l-297 -496l-156 496h-8l-18 -202z" />
    <glyph glyph-name="N" unicode="N" horiz-adv-x="792" 
d="M201 0h-161l102 729h186l224 -503h7l19 209l42 294h160l-102 -729h-187l-222 499h-7l-19 -201z" />
    <glyph glyph-name="O" unicode="O" horiz-adv-x="798" 
d="M49 337q0 177 107 289q108 112 280 112q150 0 245 -96q95 -97 95 -251q0 -178 -109 -290q-108 -111 -281 -111q-150 0 -244 96q-93 96 -93 251zM221 337q0 -93 46 -149q47 -56 125 -56q94 0 152 72q60 72 60 185q0 92 -48 149q-46 58 -123 58q-95 0 -153 -73
q-59 -73 -59 -186z" />
    <glyph glyph-name="P" unicode="P" horiz-adv-x="692" 
d="M142 729h309q115 0 181 -61.5t66 -171.5q0 -124 -81 -195q-79 -69 -216 -69l-167 1l-33 -233h-161zM253 370h137q65 0 100.5 32.5t35.5 87.5q0 45 -27.5 70t-76.5 25h-139z" />
    <glyph glyph-name="Q" unicode="Q" horiz-adv-x="800" 
d="M512 8q52 -46 149 -46q30 0 62 5l-20 -141q-32 -2 -48 -2q-221 0 -273 166q-147 1 -241 97q-92 95 -92 250q0 177 107 289q108 112 280 112q150 0 245 -96q95 -97 95 -251q0 -141 -71 -244q-70 -101 -193 -139zM221 337q0 -93 46 -149q47 -56 125 -56q94 0 152 72
q60 72 60 185q0 92 -48 149q-46 58 -123 58q-95 0 -153 -73q-59 -73 -59 -186z" />
    <glyph glyph-name="R" unicode="R" horiz-adv-x="730" 
d="M201 0h-161l102 729h336q107 0 168 -53.5t61 -144.5q0 -69 -37.5 -123.5t-100.5 -75.5l-1 -8q93 -27 79 -137l-13 -100q-9 -59 -1 -87h-165q-7 20 1 89l9 67q8 55 -6 75.5t-64 20.5h-172zM284 590l-28 -200h148q60 0 94 29.5t34 78.5q0 92 -104 92h-144z" />
    <glyph glyph-name="S" unicode="S" horiz-adv-x="667" 
d="M25 230h167q-2 -50 34 -81t97 -31q55 0 88.5 24.5t33.5 66.5q0 34 -21 51q-9 9 -23 14q-23 9 -42 13l-86 22q-190 48 -190 199q0 103 79 166q79 64 205 64q120 0 196 -62q77 -62 81 -163h-168q-1 44 -32 71.5t-81 27.5q-46 0 -74.5 -21.5t-28.5 -57.5q0 -29 20.5 -45.5
t69.5 -27.5l97 -23q84 -21 128.5 -74t44.5 -129q0 -109 -83 -177q-82 -67 -218 -67q-133 0 -213 65q-80 66 -81 175z" />
    <glyph glyph-name="T" unicode="T" horiz-adv-x="574" 
d="M71 729h561l-19 -141h-201l-84 -588h-161l83 588h-198z" />
    <glyph glyph-name="U" unicode="U" horiz-adv-x="772" 
d="M97 309l59 420h161l-61 -435q-11 -72 26 -116t110 -44q70 0 115.5 41.5t55.5 113.5l62 440h161l-64 -450q-19 -138 -112 -214q-92 -75 -230 -75q-148 0 -226 87q-76 88 -57 232z" />
    <glyph glyph-name="V" unicode="V" horiz-adv-x="721" 
d="M425 0h-203l-154 729h178l56 -306l37 -270h7l116 269l140 307h181z" />
    <glyph glyph-name="W" unicode="W" horiz-adv-x="987" 
d="M118 0l-46 729h176l13 -368l1 -185h8l189 553h200l36 -554h7l51 184l114 370h178l-251 -729h-221l-40 517h-7l-187 -517h-221z" />
    <glyph glyph-name="X" unicode="X" horiz-adv-x="698" 
d="M175 0h-198l261 365l-166 365h198l55 -139l48 -132h7l85 133l91 138h197l-262 -366l166 -364h-199l-47 113l-56 148h-7l-98 -150z" />
    <glyph glyph-name="Y" unicode="Y" horiz-adv-x="707" 
d="M273 279l-207 450h189l57 -151l57 -155h7l202 306h192l-335 -450l-39 -279h-161z" />
    <glyph glyph-name="Z" unicode="Z" horiz-adv-x="586" 
d="M84 729h545l-18 -131l-408 -459h338l-20 -139h-539l18 132l406 457h-341z" />
    <glyph glyph-name="bracketleft" unicode="[" horiz-adv-x="311" 
d="M216 -232h-192l144 1023h191l-9 -70h-116l-125 -887h116z" />
    <glyph glyph-name="backslash" unicode="\" horiz-adv-x="368" 
d="M153 729l172 -729h-83l-173 729h84z" />
    <glyph glyph-name="bracketright" unicode="]" horiz-adv-x="311" 
d="M147 -232h-192l9 66h116l125 887h-116l10 70h192z" />
    <glyph glyph-name="asciicircum" unicode="^" horiz-adv-x="435" 
d="M445 470h-119l-59 140l-100 -140h-119l186 259h99z" />
    <glyph glyph-name="underscore" unicode="_" horiz-adv-x="351" 
d="M304 -84h-355l12 84h355z" />
    <glyph glyph-name="grave" unicode="`" horiz-adv-x="418" 
d="M405 789l-55 -73l-210 128l77 103z" />
    <glyph glyph-name="a" unicode="a" horiz-adv-x="571" 
d="M9 138q0 85 57.5 134.5t156.5 49.5h141l5 31q5 39 -14.5 59.5t-59.5 20.5q-38 0 -62 -18.5t-29 -49.5h-150q15 85 82.5 133t169.5 48q115 0 170 -61t39 -177l-25 -171q-5 -32 21 -32q5 0 17 3l-15 -108q-35 -8 -67 -8q-49 0 -73 25t-21 71h-9q-21 -46 -67.5 -72
t-105.5 -26q-73 0 -117 40.5t-44 107.5zM166 162q0 -27 17.5 -42t48.5 -15q47 0 79 29.5t37 77.5l2 15h-102q-39 0 -60.5 -17.5t-21.5 -47.5z" />
    <glyph glyph-name="b" unicode="b" horiz-adv-x="654" 
d="M158 0h-134l104 744h153l-42 -305h8q27 49 76 78t110 29q90 0 141.5 -64.5t51.5 -176.5q0 -139 -73 -227q-72 -88 -184 -88q-62 0 -107.5 29.5t-61.5 80.5h-9zM218 287l-2 -15q-12 -71 18 -114t90 -43q64 0 104 48q41 50 41 126q0 63 -29.5 97.5t-81.5 34.5
q-54 0 -92.5 -37t-47.5 -97z" />
    <glyph glyph-name="c" unicode="c" horiz-adv-x="576" 
d="M389 197h151q-16 -91 -87 -150q-71 -57 -176 -57q-113 0 -181 68q-67 68 -67 184q0 132 82 217q83 87 214 87q102 0 167 -56t67 -148h-151q-2 35 -27 56.5t-62 21.5q-60 0 -97.5 -50t-37.5 -130q0 -59 26 -91.5t71 -32.5q39 0 69 23t39 58z" />
    <glyph glyph-name="d" unicode="d" horiz-adv-x="652" 
d="M657 744l-104 -744h-133l-5 97h-9q-27 -50 -79 -78.5t-110 -28.5q-90 0 -140.5 58t-50.5 161q0 144 74 241q74 96 188 96q64 0 106.5 -30t58.5 -83h9l43 311h152zM436 251l3 22q10 71 -19.5 109.5t-87.5 38.5q-67 0 -107 -52q-41 -53 -41 -134q0 -59 28 -89.5t79 -30.5
q59 0 98 36.5t47 99.5z" />
    <glyph glyph-name="e" unicode="e" horiz-adv-x="585" 
d="M282 -10q-115 0 -185 68q-68 70 -68 187q0 130 80 216q81 85 208 85q106 0 173 -62q67 -61 67 -162q0 -47 -14 -89h-362q-8 -59 19.5 -94t81.5 -35q38 0 67.5 17t41.5 45h151q-21 -81 -93 -129q-71 -47 -167 -47zM197 333h210q4 44 -22.5 71.5t-73.5 27.5q-45 0 -77 -27
t-37 -72z" />
    <glyph glyph-name="f" unicode="f" horiz-adv-x="396" 
d="M418 536l-18 -123h-118l-58 -413h-152l58 413h-100l17 123h101l6 47q12 87 61.5 128t142.5 41q52 0 95 -12l-16 -117q-18 6 -51 6q-38 0 -57 -15t-24 -46l-5 -32h118z" />
    <glyph glyph-name="g" unicode="g" horiz-adv-x="558" 
d="M-30 -67q0 39 24.5 67.5t66.5 37.5l1 8q-48 18 -48 71q0 36 24.5 65t68.5 43l1 9q-63 38 -63 122t66 136q66 54 168 54q57 0 92 -15q23 51 77 82.5t120 31.5l-16 -116q-33 0 -61 -10.5t-40 -27.5q45 -41 45 -114q0 -82 -65 -133t-170 -51q-41 0 -68 7q-36 -9 -36 -40
q0 -30 60 -30h110q82 0 126 -38.5t44 -105.5q0 -86 -76.5 -131.5t-214.5 -45.5q-118 0 -177 32.5t-59 91.5zM194 364q0 -30 19.5 -48t51.5 -18q36 0 59.5 21.5t23.5 55.5q0 31 -19.5 49t-51.5 18q-36 0 -59.5 -21.5t-23.5 -56.5zM110 -35q0 -49 109 -49q125 0 125 59
q0 36 -47 36h-120q-67 0 -67 -46z" />
    <glyph glyph-name="h" unicode="h" horiz-adv-x="639" 
d="M177 0h-153l104 744h153l-42 -305h8q66 107 191 107q89 0 128 -59t25 -165l-45 -322h-153l42 306q17 114 -82 114q-54 0 -91 -36.5t-45 -97.5z" />
    <glyph glyph-name="i" unicode="i" horiz-adv-x="277" 
d="M260 592h-152l20 148h152zM176 0h-152l75 536h153z" />
    <glyph glyph-name="j" unicode="j" horiz-adv-x="278" 
d="M262 592h-153l21 148h152zM-35 -175q-41 0 -66 6l17 120q10 -2 28 -2q50 0 68 32q14 23 18 51l71 504h152l-73 -528q-12 -88 -69.5 -135.5t-145.5 -47.5z" />
    <glyph glyph-name="k" unicode="k" horiz-adv-x="602" 
d="M440 536h188l-230 -209l166 -327h-174l-111 220l-79 -72l-21 -148h-155l104 744h155l-57 -406z" />
    <glyph glyph-name="l" unicode="l" horiz-adv-x="276" 
d="M176 0h-152l104 744h153z" />
    <glyph glyph-name="m" unicode="m" horiz-adv-x="940" 
d="M177 0h-153l75 536h133l6 -99h10q61 109 168 109q56 0 91.5 -29t46.5 -81h11q63 110 183 110q85 0 122 -60t22 -165l-45 -321h-153l43 305q16 115 -67 115q-48 0 -78 -32.5t-38 -88.5l-42 -299h-154l44 308q16 112 -68 112q-46 0 -76.5 -32t-37.5 -85z" />
    <glyph glyph-name="n" unicode="n" horiz-adv-x="639" 
d="M177 0h-153l75 536h134l6 -99h9q30 53 80 81t111 28q89 0 127.5 -59.5t23.5 -165.5l-45 -321h-152l43 305q15 115 -82 115q-54 0 -91.5 -37t-46.5 -100z" />
    <glyph glyph-name="o" unicode="o" horiz-adv-x="604" 
d="M30 248q0 132 80 215q81 83 211 83q114 0 183 -71q70 -70 70 -187q0 -132 -81 -215q-79 -82 -210 -82q-114 0 -184 70q-69 71 -69 187zM186 244q0 -59 27 -93.5t72 -34.5q59 0 95.5 49t36.5 127q0 59 -27 93.5t-72 34.5q-59 0 -95.5 -48.5t-36.5 -127.5z" />
    <glyph glyph-name="p" unicode="p" horiz-adv-x="654" 
d="M0 -167l99 703h130l9 -99h8q60 109 186 109q90 0 142 -66q52 -65 52 -176q0 -141 -73 -227q-73 -87 -184 -87q-64 0 -109.5 30t-60.5 81h-9l-37 -268h-153zM217 285l-2 -13q-11 -71 18.5 -114t90.5 -43q64 0 104.5 47.5t40.5 124.5q0 63 -29 98.5t-81 35.5
q-54 0 -93 -37.5t-49 -98.5z" />
    <glyph glyph-name="q" unicode="q" horiz-adv-x="655" 
d="M498 536h133l-99 -703h-152l37 261h-9q-59 -104 -181 -104q-92 0 -145 66t-53 179q0 139 71 225t181 86q64 0 110.5 -30t63.5 -82h9zM438 249l2 17q10 70 -20.5 112.5t-89.5 42.5q-63 0 -103 -49t-40 -124q0 -63 29 -98t81 -35q55 0 93.5 36.5t47.5 97.5z" />
    <glyph glyph-name="r" unicode="r" horiz-adv-x="394" 
d="M177 0h-153l75 536h133l6 -102h6q25 51 74.5 81.5t107.5 30.5l-19 -133q-171 -1 -197 -183z" />
    <glyph glyph-name="s" unicode="s" horiz-adv-x="527" 
d="M16 172h146q-1 -34 21.5 -54t62.5 -20q36 0 57 15t21 42q0 37 -55 49l-53 11q-52 13 -74 23q-76 35 -81 128q0 82 63 131q62 49 162 49q97 0 156 -47t61 -124h-146q0 29 -20 46t-54 17q-30 0 -48 -14.5t-18 -38.5q0 -17 11 -28q4 -4 8 -6.5t6 -4t8 -3.5t8 -2.5t10.5 -2.5
t12.5 -3l57 -12q145 -28 145 -150q0 -83 -65 -133t-172 -50q-104 0 -165.5 49t-64.5 133z" />
    <glyph glyph-name="t" unicode="t" horiz-adv-x="389" 
d="M28 413l18 123h86l18 132l160 59l-26 -191h115l-18 -123h-115l-32 -229q-4 -38 8 -54t52 -16q24 0 46 5l-17 -118q-39 -9 -86 -9q-91 0 -130 47.5t-27 135.5l34 238h-86z" />
    <glyph glyph-name="u" unicode="u" horiz-adv-x="627" 
d="M471 536h152l-75 -536h-134l-5 98h-10q-65 -108 -189 -108q-86 0 -124.5 56t-24.5 155l47 335h153l-44 -311q-17 -110 79 -110q53 0 90 38t45 100z" />
    <glyph glyph-name="v" unicode="v" horiz-adv-x="538" 
d="M137 0l-106 536h161l29 -223l23 -181h6l71 180l92 224h169l-256 -536h-189z" />
    <glyph glyph-name="w" unicode="w" horiz-adv-x="794" 
d="M104 0l-61 536h146l17 -222l8 -162h7l126 384h169l17 -385h4l53 160l82 225h154l-212 -536h-187l-14 227l-5 116h-6l-37 -115l-76 -228h-185z" />
    <glyph glyph-name="x" unicode="x" horiz-adv-x="532" 
d="M127 0h-163l197 267l-126 269h158l78 -180h7l125 180h163l-194 -265l125 -271h-158l-78 181h-8z" />
    <glyph glyph-name="y" unicode="y" horiz-adv-x="523" 
d="M156 34l-128 502h159l35 -205l23 -152h7l63 152l89 205h163l-275 -562q-41 -83 -100 -117t-158 -34q-40 0 -71 7l17 122q28 -5 57 -5q79 0 102 53z" />
    <glyph glyph-name="z" unicode="z" horiz-adv-x="482" 
d="M66 536h420l-15 -109l-275 -304h237l-18 -123h-422l15 110l275 303h-234z" />
    <glyph glyph-name="braceleft" unicode="{" horiz-adv-x="330" 
d="M45 246l10 73q69 0 81 75l44 312q5 40 30 62.5t66 22.5h102l-10 -70h-108l-45 -321q-7 -48 -32 -78t-62 -36v-3q75 -19 61 -114l-46 -335h108l-10 -66h-101q-40 0 -59 21.5t-14 63.5l45 320q6 37 -11 55t-49 18z" />
    <glyph glyph-name="bar" unicode="|" horiz-adv-x="301" 
d="M168 -49h-128l113 802h128z" />
    <glyph glyph-name="braceright" unicode="}" horiz-adv-x="329" 
d="M288 319l-10 -73q-72 0 -82 -73l-45 -320q-13 -85 -95 -85h-101l9 66h106l48 335q7 45 31.5 75.5t63.5 38.5v3q-36 7 -53 36.5t-10 77.5l45 321h-106l10 70h101q39 0 58 -23t13 -62l-44 -312q-5 -34 10.5 -54.5t50.5 -20.5z" />
    <glyph glyph-name="asciitilde" unicode="~" horiz-adv-x="428" 
d="M86 263h-70q6 80 42.5 121t88.5 41q36 0 83 -29q47 -28 74 -28q52 0 61 64h70q-6 -85 -47 -126q-40 -39 -90 -39q-40 0 -94.5 29.5t-68.5 29.5q-21 0 -34 -17.5t-15 -45.5z" />
    <glyph glyph-name="uni00A0" unicode="&#xa0;" horiz-adv-x="214" 
 />
    <glyph glyph-name="exclamdown" unicode="&#xa1;" horiz-adv-x="302" 
d="M113 582l21 147h163l-20 -147h-164zM67 214l78 285h78l-1 -285l-31 -214h-154z" />
    <glyph glyph-name="cent" unicode="&#xa2;" horiz-adv-x="549" 
d="M301 500q-52 0 -85.5 -49.5t-33.5 -127.5q0 -94 81 -94q35 0 62 19.5t38 51.5h149q-18 -76 -76.5 -127t-140.5 -63l-12 -80h-97l11 81q-78 13 -121 66t-43 137q0 119 65 202q66 84 170 102l12 81h97l-11 -80q80 -12 124.5 -62.5t40.5 -126.5h-150q-1 32 -23 51t-57 19z
" />
    <glyph glyph-name="sterling" unicode="&#xa3;" horiz-adv-x="653" 
d="M380 603q-40 0 -65.5 -24.5t-31.5 -69.5l-12 -83h223l-17 -122h-223l-24 -172h222l15 107h131l-15 -107l-19 -132h-577l19 132h68l24 172h-68l17 122h68l12 83q14 104 88 166q75 63 187 63q99 0 156 -54t51 -142h-156q-1 29 -21 45t-52 16z" />
    <glyph glyph-name="currency" unicode="&#xa4;" horiz-adv-x="615" 
d="M87 61l-64 74l89 72q-38 63 -27.5 132.5t64.5 130.5l-69 71l85 76l59 -82q63 36 127.5 37t118.5 -34l80 80l62 -77l-82 -68q35 -57 25 -131q-9 -74 -64 -138l65 -70l-83 -73l-57 80q-67 -38 -131 -37t-115 40zM217 329q-4 -42 21 -70t65 -28q50 0 84 37q35 38 35 89
q0 39 -25 64t-64 25q-45 0 -79 -34q-34 -32 -37 -83z" />
    <glyph glyph-name="yen" unicode="&#xa5;" horiz-adv-x="683" 
d="M559 729h187l-237 -336h74l-17 -123h-144l-7 -49h144l-17 -122h-144l-14 -99h-160l14 99h-144l17 122h144l7 49h-144l18 123h73l-143 336h188l68 -199l34 -122h8l71 122z" />
    <glyph glyph-name="brokenbar" unicode="&#xa6;" horiz-adv-x="301" 
d="M231 399h-128l50 354h128zM167 -55h-127l48 345h128z" />
    <glyph glyph-name="section" unicode="&#xa7;" horiz-adv-x="559" 
d="M50 317q0 53 34.5 92.5t90.5 50.5l1 9q-61 28 -61 91q0 76 69 126q71 50 176 50q94 0 147 -43.5t45 -113.5h-157q1 21 -13.5 31.5t-41.5 10.5q-26 0 -39.5 -12t-13.5 -31q0 -12 9 -21q11 -11 38 -21l87 -32q45 -15 77 -38q42 -28 42 -86q0 -47 -25.5 -84.5t-72.5 -57.5
l-1 -10q25 -10 39.5 -35.5t14.5 -58.5q0 -81 -71 -132q-70 -51 -182 -51q-99 0 -153.5 40.5t-50.5 112.5h162q2 -41 55 -41q30 0 47.5 13.5t17.5 36.5q0 15 -11 24.5t-37 18.5l-121 44q-101 36 -101 117zM219 368q0 -30 42 -48l64 -27l39 -15q17 22 17 47q0 15 -9 26
q-8 11 -40 25l-48 21q-7 0 -41 18q-24 -18 -24 -47z" />
    <glyph glyph-name="dieresis" unicode="&#xa8;" horiz-adv-x="417" 
d="M225 733h-120l21 147h119zM434 733h-119l21 147h119z" />
    <glyph glyph-name="copyright" unicode="&#xa9;" horiz-adv-x="959" 
d="M492 -74q-112 0 -207 52q-96 52 -155 148q-59 98 -59 219q0 182 124 300t297 118q110 0 205 -51t153 -148q59 -97 59 -217q0 -182 -123 -302q-124 -119 -294 -119zM869 347q0 166 -110 273t-267 107q-158 0 -269 -108q-111 -107 -111 -274t110 -275q112 -107 269 -107
q158 0 268 107q110 108 110 277zM498 115q-101 0 -168 65q-66 66 -66 165q0 101 66 165q68 65 168 65q89 0 152 -51q62 -51 67 -129h-101q-4 41 -37 66t-81 25q-61 0 -96.5 -39.5t-35.5 -102.5t35 -101.5t95 -38.5q50 0 83 24t37 65h101q-6 -79 -69 -129q-61 -49 -150 -49z
" />
    <glyph glyph-name="ordfeminine" unicode="&#xaa;" horiz-adv-x="454" 
d="M430 434q10 0 12 1l-12 -86q-20 -7 -51 -7q-80 0 -74 76h-4q-14 -36 -47.5 -56t-77.5 -20q-49 0 -79.5 29.5t-30.5 77.5q0 58 42.5 93t116.5 35h88l1 8q4 26 -10.5 40t-42.5 14q-45 0 -59 -36h-109q8 56 57 91t122 35q81 0 122.5 -43.5t30.5 -115.5l-16 -109
q-5 -27 21 -27zM301 494l2 10h-68q-26 0 -40.5 -11t-14.5 -30q0 -16 12.5 -25.5t33.5 -9.5q31 0 51 18t24 48z" />
    <glyph glyph-name="guillemotleft" unicode="&#xab;" horiz-adv-x="559" 
d="M136 58l-89 216l150 214h130l-138 -214l77 -216h-130zM366 58l-89 216l150 214h131l-140 -214l79 -216h-131z" />
    <glyph glyph-name="logicalnot" unicode="&#xac;" horiz-adv-x="588" 
d="M514 144h-121l22 153h-354l17 122h475z" />
    <glyph glyph-name="registered" unicode="&#xae;" horiz-adv-x="623" 
d="M329 209q-112 0 -185 70t-73 183q0 121 80 198q79 78 201 78q112 0 185 -70q74 -69 74 -182q0 -121 -80 -199q-79 -78 -202 -78zM331 246q106 0 173 67q68 68 68 171q0 98 -64 159q-62 61 -158 61q-105 0 -173 -67q-68 -68 -68 -171q0 -98 63 -159q64 -61 159 -61z
M284 359h-56l33 242h120q33 0 51.5 -16t18.5 -43q0 -50 -45 -73l-1 -1q31 -16 26 -48l-4 -31q-2 -27 -1 -30h-57q-3 6 0 30l3 20q3 32 -28 32h-49zM311 553l-10 -68h46q19 0 30.5 11t11.5 29q0 28 -33 28h-45z" />
    <glyph glyph-name="overscore" unicode="&#xaf;" horiz-adv-x="356" 
d="M422 730h-358l16 113h358z" />
    <glyph glyph-name="degree" unicode="&#xb0;" horiz-adv-x="432" 
d="M421 583q0 -72 -48 -119q-47 -46 -120 -46q-70 0 -112.5 41.5t-42.5 110.5q0 71 47 118q47 46 121 46q68 0 111 -42q44 -42 44 -109zM317 579q0 28 -15 45t-40 17q-27 0 -44 -19t-17 -49q0 -27 15.5 -44t39.5 -17q27 0 44 18.5t17 48.5z" />
    <glyph glyph-name="plusminus" unicode="&#xb1;" horiz-adv-x="620" 
d="M572 328h-192l-21 -156h-126l22 156h-190l17 120h190l21 153h126l-22 -153h192zM526 0h-507l17 122h507z" />
    <glyph glyph-name="uni00B2" unicode="&#xb2;" horiz-adv-x="456" 
d="M199 399l79 4h164l-14 -103h-381l3 19q9 54 36 99q16 27 39 51.5t37 36t47 36.5q6 5 9 7q7 5 30 21t30.5 21.5t24.5 19.5t23.5 22.5t16 22t13 27.5t3.5 29q0 26 -17.5 41t-47.5 15q-36 0 -60 -23.5t-27 -62.5h-118q13 86 73.5 136.5t150.5 50.5q78 0 124 -39t46 -105
q0 -100 -80 -167q-35 -30 -72 -54q-107 -70 -132 -105z" />
    <glyph glyph-name="uni00B3" unicode="&#xb3;" horiz-adv-x="472" 
d="M248 292q-91 0 -139 49q-47 50 -34 129h120q-7 -35 12.5 -55.5t58.5 -20.5q40 0 66 25t26 63q0 59 -79 59h-56l13 94h46q44 0 70.5 21.5t26.5 57.5q0 25 -18 39.5t-47 14.5q-37 0 -62 -20.5t-28 -54.5h-119q7 78 70 127q62 49 156 49q78 0 125 -35t47 -95
q0 -47 -25.5 -84.5t-70.5 -57.5l-1 -5q72 -30 72 -110q0 -82 -66 -136q-64 -54 -164 -54z" />
    <glyph glyph-name="acute" unicode="&#xb4;" horiz-adv-x="423" 
d="M447 840l-247 -128l-40 71l231 156z" />
    <glyph glyph-name="paragraph" unicode="&#xb6;" horiz-adv-x="681" 
d="M326 729h351l-13 -96h-67l-89 -636q-11 -79 -59 -119.5t-128 -40.5h-270l13 87h139l58 410q-89 0 -138.5 43.5t-49.5 117.5q0 104 70 168q71 66 183 66zM307 -76h19q68 0 77 67l89 642h-85z" />
    <glyph glyph-name="middot" unicode="&#xb7;" horiz-adv-x="333" 
d="M65 274q0 50 33 83t81 33q40 0 66.5 -27t26.5 -69q0 -50 -32 -83t-80 -33q-41 0 -68 26.5t-27 69.5z" />
    <glyph glyph-name="cedilla" unicode="&#xb8;" horiz-adv-x="505" 
d="M269 11l-36 -37q35 -4 56.5 -24.5t21.5 -57.5q0 -50 -38 -76.5t-87.5 -25.5t-89.5 22l10 72q30 -25 71 -20t41 38q0 24 -26 32q-26 6 -46 -4l6 39l62 66h58z" />
    <glyph glyph-name="uni00B9" unicode="&#xb9;" horiz-adv-x="349" 
d="M216 673h-145l12 90h24q54 0 93.5 27.5t48.5 71.5h110l-79 -562h-117z" />
    <glyph glyph-name="ordmasculine" unicode="&#xba;" horiz-adv-x="470" 
d="M81 515q0 92 59 153q60 61 153 61q77 0 124 -47t47 -125q0 -93 -60 -154q-58 -60 -152 -60q-77 0 -124 47.5t-47 124.5zM195 519q0 -38 17.5 -61.5t47.5 -23.5q40 0 65 33t25 86q0 39 -17 62t-47 23q-40 0 -65.5 -33t-25.5 -86z" />
    <glyph glyph-name="guillemotright" unicode="&#xbb;" horiz-adv-x="559" 
d="M194 488l89 -214l-149 -216h-131l139 216l-79 214h131zM425 488l88 -214l-149 -216h-132l140 216l-79 214h132z" />
    <glyph glyph-name="onequarter" unicode="&#xbc;" horiz-adv-x="910" 
d="M129 -46l527 814h117l-527 -814h-117zM247 256h-100l43 309h-124l11 80h45q43 0 68.5 22.5t25.5 58.5v3h98zM886 480l-43 -306h48l-12 -88h-48l-12 -86h-99l11 86h-209l12 81l200 313h152zM772 373l-127 -199h99z" />
    <glyph glyph-name="onehalf" unicode="&#xbd;" horiz-adv-x="943" 
d="M129 -46l527 814h117l-527 -814h-117zM247 256h-100l43 309h-124l11 80h45q43 0 68.5 22.5t25.5 58.5v3h98zM689 85l63 3h128l-13 -88h-310l2 16q13 103 102 170q14 11 43.5 31t44.5 32t33.5 29.5t27 35.5t8.5 38q0 22 -14 35t-38 13q-30 0 -49.5 -20.5t-23.5 -53.5
l-99 6q11 69 63.5 111.5t126.5 42.5q64 0 100.5 -33t36.5 -88q0 -86 -65 -144q-13 -12 -80.5 -60.5t-86.5 -75.5z" />
    <glyph glyph-name="threequarters" unicode="&#xbe;" horiz-adv-x="970" 
d="M200 -46l527 814h117l-527 -814h-117zM374 409q0 -68 -53 -115q-52 -46 -130 -46q-74 0 -113 41.5t-29 107.5h101q-4 -27 11 -44.5t40 -17.5q30 0 50.5 19.5t20.5 48.5q0 23 -16.5 36t-41.5 13h-41l12 90h30q33 0 54 18t21 47q0 20 -13 30.5t-35 10.5q-27 0 -45.5 -17
t-21.5 -45h-101q8 67 57.5 108t125.5 41q64 0 101 -29.5t37 -79.5q0 -86 -81 -120v-5q60 -26 60 -92zM957 480l-43 -306h48l-12 -88h-48l-12 -86h-99l11 86h-209l12 81l200 313h152zM843 373l-127 -199h99z" />
    <glyph glyph-name="questiondown" unicode="&#xbf;" horiz-adv-x="595" 
d="M308 729h155l-21 -148h-156zM282 517h145l-28 -197q-24 8 -66 8q-68 0 -107 -30t-39 -81q0 -42 29 -68.5t74 -26.5q47 0 79 23t39 60h149q-16 -100 -93 -157q-76 -57 -189 -57q-111 0 -177 60q-65 60 -65 153q0 102 69 164q69 63 169 66z" />
    <glyph glyph-name="Agrave" unicode="&#xc0;" horiz-adv-x="710" 
d="M287 1000l188 -158l-55 -73l-210 128zM674 0h-170l-24 127h-286l-59 -127h-173l358 729h189zM393 560l-142 -309h206l-58 309h-6z" />
    <glyph glyph-name="Aacute" unicode="&#xc1;" horiz-adv-x="710" 
d="M608 992l56 -99l-247 -128l-40 71zM674 0h-170l-24 127h-286l-59 -127h-173l358 729h189zM393 560l-142 -309h206l-58 309h-6z" />
    <glyph glyph-name="Acircumflex" unicode="&#xc2;" horiz-adv-x="710" 
d="M536 768l-94 118l-128 -118l-67 70l159 137h87l120 -137zM674 0h-170l-24 127h-286l-59 -127h-173l358 729h189zM393 560l-142 -309h206l-58 309h-6z" />
    <glyph glyph-name="Atilde" unicode="&#xc3;" horiz-adv-x="710" 
d="M363 814q-13 0 -26 -6q-12 -6 -39 -30l-54 41q56 101 136 101q27 0 61 -19q35 -19 59 -19q13 0 25 5t17 9.5t13 13.5t9 10l56 -40q-54 -105 -135 -105q-29 0 -64 19q-35 20 -58 20zM674 0h-170l-24 127h-286l-59 -127h-173l358 729h189zM393 560l-142 -309h206l-58 309
h-6z" />
    <glyph glyph-name="Adieresis" unicode="&#xc4;" horiz-adv-x="710" 
d="M278 929h119l-20 -147h-120zM488 929h119l-21 -147h-119zM674 0h-170l-24 127h-286l-59 -127h-173l358 729h189zM393 560l-142 -309h206l-58 309h-6z" />
    <glyph glyph-name="Aring" unicode="&#xc5;" horiz-adv-x="710" 
d="M674 0h-170l-24 127h-286l-59 -127h-173l352 718q-18 28 -18 65q0 58 38.5 95t100.5 37q54 0 87 -31.5t33 -81.5q0 -61 -40 -98zM430 842q-23 0 -37 -15.5t-14 -40.5q0 -19 11.5 -31t29.5 -12q23 0 37.5 15t14.5 40q0 20 -11.5 32t-30.5 12zM393 560l-142 -309h206
l-58 309h-6z" />
    <glyph glyph-name="AE" unicode="&#xc6;" horiz-adv-x="988" 
d="M1004 729l-19 -139h-347l-23 -162h293l-18 -130h-293l-23 -159h347l-19 -139h-509l23 165h-216l-72 -165h-166l333 729h709zM255 290h179l42 300h-89z" />
    <glyph glyph-name="Ccedilla" unicode="&#xc7;" horiz-adv-x="781" 
d="M400 132q58 0 108 33t69 87h167q-21 -117 -116 -190q-94 -72 -231 -72h-14l-16 -16q35 -4 56.5 -24.5t21.5 -57.5q0 -50 -38 -76.5t-87.5 -25.5t-89.5 22l10 72q30 -25 71 -20t41 38q0 24 -26 32q-26 6 -46 -4l6 39l27 29q-122 26 -192 118q-71 94 -71 231q0 167 104 279
q103 112 271 112q133 0 224 -71q91 -70 105 -188h-167q-15 53 -60 85t-105 32q-89 0 -145 -68t-56 -176q0 -100 48.5 -160t130.5 -60z" />
    <glyph glyph-name="Egrave" unicode="&#xc8;" horiz-adv-x="641" 
d="M455 842l-55 -73l-210 128l77 103zM555 0h-515l102 729h515l-19 -139h-354l-20 -147h303l-19 -131h-303l-24 -173h354z" />
    <glyph glyph-name="Eacute" unicode="&#xc9;" horiz-adv-x="641" 
d="M644 893l-247 -128l-40 71l231 156zM555 0h-515l102 729h515l-19 -139h-354l-20 -147h303l-19 -131h-303l-24 -173h354z" />
    <glyph glyph-name="Ecircumflex" unicode="&#xca;" horiz-adv-x="641" 
d="M294 768l-67 70l159 137h87l120 -137l-77 -70l-94 118zM555 0h-515l102 729h515l-19 -139h-354l-20 -147h303l-19 -131h-303l-24 -173h354z" />
    <glyph glyph-name="Edieresis" unicode="&#xcb;" horiz-adv-x="641" 
d="M357 782h-120l21 147h119zM566 782h-119l21 147h119zM555 0h-515l102 729h515l-19 -139h-354l-20 -147h303l-19 -131h-303l-24 -173h354z" />
    <glyph glyph-name="Igrave" unicode="&#xcc;" horiz-adv-x="316" 
d="M283 842l-55 -73l-210 128l77 103zM303 729l-102 -729h-161l102 729h161z" />
    <glyph glyph-name="Iacute" unicode="&#xcd;" horiz-adv-x="316" 
d="M472 893l-247 -128l-40 71l231 156zM303 729l-102 -729h-161l102 729h161z" />
    <glyph glyph-name="Icircumflex" unicode="&#xce;" horiz-adv-x="316" 
d="M123 768l-67 70l159 137h87l120 -137l-77 -70l-94 118zM303 729l-102 -729h-161l102 729h161z" />
    <glyph glyph-name="Idieresis" unicode="&#xcf;" horiz-adv-x="316" 
d="M185 782h-120l21 147h119zM394 782h-119l21 147h119zM303 729l-102 -729h-161l102 729h161z" />
    <glyph glyph-name="Eth" unicode="&#xd0;" horiz-adv-x="755" 
d="M142 729h293q145 0 223.5 -81t78.5 -224q0 -191 -112 -307q-111 -117 -291 -117h-294l44 316h-74l16 117h75zM221 139h103q115 0 179 71t64 204q0 176 -177 176h-106l-22 -157h121l-16 -117h-121z" />
    <glyph glyph-name="Ntilde" unicode="&#xd1;" horiz-adv-x="792" 
d="M535 775q-29 0 -64 19q-35 20 -58 20q-13 0 -26 -6q-12 -6 -39 -30l-54 41q56 101 136 101q27 0 61 -19q35 -19 59 -19q13 0 25 5t17 9.5t13 13.5t9 10l56 -40q-54 -105 -135 -105zM201 0h-161l102 729h186l224 -503h7l19 209l42 294h160l-102 -729h-187l-222 499h-7
l-19 -201z" />
    <glyph glyph-name="Ograve" unicode="&#xd2;" horiz-adv-x="798" 
d="M497 851l-55 -73l-210 128l77 103zM49 337q0 177 107 289q108 112 280 112q150 0 245 -96q95 -97 95 -251q0 -178 -109 -290q-108 -111 -281 -111q-150 0 -244 96q-93 96 -93 251zM221 337q0 -93 46 -149q47 -56 125 -56q94 0 152 72q60 72 60 185q0 92 -48 149
q-46 58 -123 58q-95 0 -153 -73q-59 -73 -59 -186z" />
    <glyph glyph-name="Oacute" unicode="&#xd3;" horiz-adv-x="798" 
d="M685 902l-247 -128l-40 71l231 156zM49 337q0 177 107 289q108 112 280 112q150 0 245 -96q95 -97 95 -251q0 -178 -109 -290q-108 -111 -281 -111q-150 0 -244 96q-93 96 -93 251zM221 337q0 -93 46 -149q47 -56 125 -56q94 0 152 72q60 72 60 185q0 92 -48 149
q-46 58 -123 58q-95 0 -153 -73q-59 -73 -59 -186z" />
    <glyph glyph-name="Ocircumflex" unicode="&#xd4;" horiz-adv-x="798" 
d="M336 777l-67 70l159 137h87l120 -137l-77 -70l-94 118zM49 337q0 177 107 289q108 112 280 112q150 0 245 -96q95 -97 95 -251q0 -178 -109 -290q-108 -111 -281 -111q-150 0 -244 96q-93 96 -93 251zM221 337q0 -93 46 -149q47 -56 125 -56q94 0 152 72q60 72 60 185
q0 92 -48 149q-46 58 -123 58q-95 0 -153 -73q-59 -73 -59 -186z" />
    <glyph glyph-name="Otilde" unicode="&#xd5;" horiz-adv-x="798" 
d="M507 784q-29 0 -64 19q-35 20 -58 20q-13 0 -26 -6q-12 -6 -39 -30l-54 41q56 101 136 101q27 0 61 -19q35 -19 59 -19q13 0 25 5t17 9.5t13 13.5t9 10l56 -40q-54 -105 -135 -105zM49 337q0 177 107 289q108 112 280 112q150 0 245 -96q95 -97 95 -251q0 -178 -109 -290
q-108 -111 -281 -111q-150 0 -244 96q-93 96 -93 251zM221 337q0 -93 46 -149q47 -56 125 -56q94 0 152 72q60 72 60 185q0 92 -48 149q-46 58 -123 58q-95 0 -153 -73q-59 -73 -59 -186z" />
    <glyph glyph-name="Odieresis" unicode="&#xd6;" horiz-adv-x="798" 
d="M398 791h-120l21 147h119zM607 791h-119l21 147h119zM49 337q0 177 107 289q108 112 280 112q150 0 245 -96q95 -97 95 -251q0 -178 -109 -290q-108 -111 -281 -111q-150 0 -244 96q-93 96 -93 251zM221 337q0 -93 46 -149q47 -56 125 -56q94 0 152 72q60 72 60 185
q0 92 -48 149q-46 58 -123 58q-95 0 -153 -73q-59 -73 -59 -186z" />
    <glyph glyph-name="multiply" unicode="&#xd7;" horiz-adv-x="678" 
d="M111 9l-78 94l218 197l-163 199l104 93l160 -193h11l211 193l79 -93l-218 -199l163 -197l-105 -94l-158 193h-11z" />
    <glyph glyph-name="Oslash" unicode="&#xd8;" horiz-adv-x="798" 
d="M773 669l58 -97l-75 -49q21 -60 21 -132q0 -178 -109 -290q-108 -111 -281 -111q-169 0 -263 117l-73 -48l-57 97l76 50q-20 63 -20 131q0 177 107 289q108 112 280 112q169 0 264 -116zM222 337q0 -23 1 -30l340 224q-48 65 -129 65q-95 0 -153 -73q-59 -73 -59 -186z
M605 389q0 3 -2 33l-342 -225q48 -65 131 -65q94 0 153 72q60 72 60 185z" />
    <glyph glyph-name="Ugrave" unicode="&#xd9;" horiz-adv-x="772" 
d="M531 842l-55 -73l-210 128l77 103zM97 309l59 420h161l-61 -435q-11 -72 26 -116t110 -44q70 0 115.5 41.5t55.5 113.5l62 440h161l-64 -450q-19 -138 -112 -214q-92 -75 -230 -75q-148 0 -226 87q-76 88 -57 232z" />
    <glyph glyph-name="Uacute" unicode="&#xda;" horiz-adv-x="772" 
d="M720 893l-247 -128l-40 71l231 156zM97 309l59 420h161l-61 -435q-11 -72 26 -116t110 -44q70 0 115.5 41.5t55.5 113.5l62 440h161l-64 -450q-19 -138 -112 -214q-92 -75 -230 -75q-148 0 -226 87q-76 88 -57 232z" />
    <glyph glyph-name="Ucircumflex" unicode="&#xdb;" horiz-adv-x="772" 
d="M371 768l-67 70l159 137h87l120 -137l-77 -70l-94 118zM97 309l59 420h161l-61 -435q-11 -72 26 -116t110 -44q70 0 115.5 41.5t55.5 113.5l62 440h161l-64 -450q-19 -138 -112 -214q-92 -75 -230 -75q-148 0 -226 87q-76 88 -57 232z" />
    <glyph glyph-name="Udieresis" unicode="&#xdc;" horiz-adv-x="772" 
d="M433 782h-120l21 147h119zM642 782h-119l21 147h119zM97 309l59 420h161l-61 -435q-11 -72 26 -116t110 -44q70 0 115.5 41.5t55.5 113.5l62 440h161l-64 -450q-19 -138 -112 -214q-92 -75 -230 -75q-148 0 -226 87q-76 88 -57 232z" />
    <glyph glyph-name="Yacute" unicode="&#xdd;" horiz-adv-x="707" 
d="M667 893l-247 -128l-40 71l231 156zM273 279l-207 450h189l57 -151l57 -155h7l202 306h192l-335 -450l-39 -279h-161z" />
    <glyph glyph-name="Thorn" unicode="&#xde;" horiz-adv-x="670" 
d="M192 0h-160l104 744h160l-17 -127h128q112 0 180 -62t68 -161q0 -128 -81 -201q-81 -72 -216 -72h-149zM259 474l-30 -215h124q58 0 92.5 33.5t34.5 89.5q0 42 -26 67t-71 25h-124z" />
    <glyph glyph-name="germandbls" unicode="&#xdf;" horiz-adv-x="613" 
d="M454 407l-1 -7q125 -35 125 -154q0 -106 -81 -177q-81 -69 -206 -69h-56l18 133h25q65 0 103.5 33t38.5 84q0 40 -29 64t-77 24h-18l16 120h13q38 0 63 24.5t25 61.5q0 27 -17.5 42.5t-47.5 15.5q-70 0 -81 -76l-74 -526h-157l55 393h-66l17 123h66q15 104 88 163.5
t185 59.5q93 0 145 -41t52 -113q0 -62 -33 -110t-91 -68z" />
    <glyph glyph-name="agrave" unicode="&#xe0;" horiz-adv-x="571" 
d="M371 654l-55 -73l-210 128l77 103zM9 138q0 85 57.5 134.5t156.5 49.5h141l5 31q5 39 -14.5 59.5t-59.5 20.5q-38 0 -62 -18.5t-29 -49.5h-150q15 85 82.5 133t169.5 48q115 0 170 -61t39 -177l-25 -171q-5 -32 21 -32q5 0 17 3l-15 -108q-35 -8 -67 -8q-49 0 -73 25
t-21 71h-9q-21 -46 -67.5 -72t-105.5 -26q-73 0 -117 40.5t-44 107.5zM166 162q0 -27 17.5 -42t48.5 -15q47 0 79 29.5t37 77.5l2 15h-102q-39 0 -60.5 -17.5t-21.5 -47.5z" />
    <glyph glyph-name="aacute" unicode="&#xe1;" horiz-adv-x="571" 
d="M560 705l-247 -128l-40 71l231 156zM9 138q0 85 57.5 134.5t156.5 49.5h141l5 31q5 39 -14.5 59.5t-59.5 20.5q-38 0 -62 -18.5t-29 -49.5h-150q15 85 82.5 133t169.5 48q115 0 170 -61t39 -177l-25 -171q-5 -32 21 -32q5 0 17 3l-15 -108q-35 -8 -67 -8q-49 0 -73 25
t-21 71h-9q-21 -46 -67.5 -72t-105.5 -26q-73 0 -117 40.5t-44 107.5zM166 162q0 -27 17.5 -42t48.5 -15q47 0 79 29.5t37 77.5l2 15h-102q-39 0 -60.5 -17.5t-21.5 -47.5z" />
    <glyph glyph-name="acircumflex" unicode="&#xe2;" horiz-adv-x="571" 
d="M211 580l-67 70l159 137h87l120 -137l-77 -70l-94 118zM9 138q0 85 57.5 134.5t156.5 49.5h141l5 31q5 39 -14.5 59.5t-59.5 20.5q-38 0 -62 -18.5t-29 -49.5h-150q15 85 82.5 133t169.5 48q115 0 170 -61t39 -177l-25 -171q-5 -32 21 -32q5 0 17 3l-15 -108
q-35 -8 -67 -8q-49 0 -73 25t-21 71h-9q-21 -46 -67.5 -72t-105.5 -26q-73 0 -117 40.5t-44 107.5zM166 162q0 -27 17.5 -42t48.5 -15q47 0 79 29.5t37 77.5l2 15h-102q-39 0 -60.5 -17.5t-21.5 -47.5z" />
    <glyph glyph-name="atilde" unicode="&#xe3;" horiz-adv-x="571" 
d="M382 587q-29 0 -64 19q-35 20 -58 20q-12 0 -26 -6q-12 -6 -39 -30l-54 41q56 101 136 101q27 0 61 -19q35 -19 59 -19q13 0 25 5t17 9.5t13 13.5t9 10l56 -40q-54 -105 -135 -105zM9 138q0 85 57.5 134.5t156.5 49.5h141l5 31q5 39 -14.5 59.5t-59.5 20.5
q-38 0 -62 -18.5t-29 -49.5h-150q15 85 82.5 133t169.5 48q115 0 170 -61t39 -177l-25 -171q-5 -32 21 -32q5 0 17 3l-15 -108q-35 -8 -67 -8q-49 0 -73 25t-21 71h-9q-21 -46 -67.5 -72t-105.5 -26q-73 0 -117 40.5t-44 107.5zM166 162q0 -27 17.5 -42t48.5 -15
q47 0 79 29.5t37 77.5l2 15h-102q-39 0 -60.5 -17.5t-21.5 -47.5z" />
    <glyph glyph-name="adieresis" unicode="&#xe4;" horiz-adv-x="571" 
d="M273 593h-120l21 147h119zM482 593h-119l21 147h119zM9 138q0 85 57.5 134.5t156.5 49.5h141l5 31q5 39 -14.5 59.5t-59.5 20.5q-38 0 -62 -18.5t-29 -49.5h-150q15 85 82.5 133t169.5 48q115 0 170 -61t39 -177l-25 -171q-5 -32 21 -32q5 0 17 3l-15 -108q-35 -8 -67 -8
q-49 0 -73 25t-21 71h-9q-21 -46 -67.5 -72t-105.5 -26q-73 0 -117 40.5t-44 107.5zM166 162q0 -27 17.5 -42t48.5 -15q47 0 79 29.5t37 77.5l2 15h-102q-39 0 -60.5 -17.5t-21.5 -47.5z" />
    <glyph glyph-name="aring" unicode="&#xe5;" horiz-adv-x="571" 
d="M511 105q5 0 17 3l-15 -108q-35 -8 -67 -8q-49 0 -73 25t-21 71h-9q-21 -46 -67.5 -72t-105.5 -26q-73 0 -117 40.5t-44 107.5q0 85 57.5 134.5t156.5 49.5h141l5 31q5 39 -14.5 59.5t-59.5 20.5q-38 0 -62 -18.5t-29 -49.5h-150q23 128 154 167q-16 28 -16 62
q0 58 38.5 95t100.5 37q54 0 87 -31.5t33 -81.5q0 -54 -31 -88q117 -53 95 -217l-25 -171q-5 -32 21 -32zM326 653q-23 0 -37 -15.5t-14 -40.5q0 -19 11.5 -31t29.5 -12q23 0 37.5 15t14.5 40q0 20 -11.5 32t-30.5 12zM348 212l2 15h-102q-39 0 -60.5 -17.5t-21.5 -47.5
q0 -27 17.5 -42t48.5 -15q47 0 79 29.5t37 77.5z" />
    <glyph glyph-name="ae" unicode="&#xe6;" horiz-adv-x="903" 
d="M604 110q40 0 73.5 17.5t46.5 46.5h137q-23 -85 -99 -134q-77 -50 -176 -50q-140 0 -197 92q-72 -92 -209 -92q-79 0 -126.5 39t-47.5 104q0 90 64 142q64 54 170 54h120l3 23q5 36 -15 56.5t-60 20.5q-35 0 -61 -18t-32 -45h-152q18 81 89 131q70 49 179 49t161 -64
q73 64 184 64q102 0 161 -56t59 -152q0 -52 -16 -106h-360q-8 -57 19.5 -89.5t84.5 -32.5zM640 430q-47 0 -80.5 -25.5t-44.5 -70.5h215q4 46 -21 71t-69 25zM345 206l3 20h-95q-43 0 -67 -18t-24 -52q0 -48 64 -48q47 0 80 27.5t39 70.5z" />
    <glyph glyph-name="ccedilla" unicode="&#xe7;" horiz-adv-x="576" 
d="M281 116q39 0 69 23t39 58h151q-15 -86 -78 -143q-63 -55 -158 -63l-22 -23q35 -4 56.5 -24.5t21.5 -57.5q0 -50 -38 -76.5t-87.5 -25.5t-89.5 22l10 72q30 -25 71 -20t41 38q0 24 -26 32q-26 6 -46 -4l6 39l29 30q-93 14 -147 80.5t-54 168.5q0 132 82 217q83 87 214 87
q102 0 167 -56t67 -148h-151q-2 35 -27 56.5t-62 21.5q-60 0 -97.5 -50t-37.5 -130q0 -59 26 -91.5t71 -32.5z" />
    <glyph glyph-name="egrave" unicode="&#xe8;" horiz-adv-x="585" 
d="M388 654l-55 -73l-210 128l77 103zM282 -10q-115 0 -185 68q-68 70 -68 187q0 130 80 216q81 85 208 85q106 0 173 -62q67 -61 67 -162q0 -47 -14 -89h-362q-8 -59 19.5 -94t81.5 -35q38 0 67.5 17t41.5 45h151q-21 -81 -93 -129q-71 -47 -167 -47zM197 333h210
q4 44 -22.5 71.5t-73.5 27.5q-45 0 -77 -27t-37 -72z" />
    <glyph glyph-name="eacute" unicode="&#xe9;" horiz-adv-x="585" 
d="M577 705l-247 -128l-40 71l231 156zM282 -10q-115 0 -185 68q-68 70 -68 187q0 130 80 216q81 85 208 85q106 0 173 -62q67 -61 67 -162q0 -47 -14 -89h-362q-8 -59 19.5 -94t81.5 -35q38 0 67.5 17t41.5 45h151q-21 -81 -93 -129q-71 -47 -167 -47zM197 333h210
q4 44 -22.5 71.5t-73.5 27.5q-45 0 -77 -27t-37 -72z" />
    <glyph glyph-name="ecircumflex" unicode="&#xea;" horiz-adv-x="585" 
d="M228 580l-67 70l159 137h87l120 -137l-77 -70l-94 118zM282 -10q-115 0 -185 68q-68 70 -68 187q0 130 80 216q81 85 208 85q106 0 173 -62q67 -61 67 -162q0 -47 -14 -89h-362q-8 -59 19.5 -94t81.5 -35q38 0 67.5 17t41.5 45h151q-21 -81 -93 -129q-71 -47 -167 -47z
M197 333h210q4 44 -22.5 71.5t-73.5 27.5q-45 0 -77 -27t-37 -72z" />
    <glyph glyph-name="edieresis" unicode="&#xeb;" horiz-adv-x="585" 
d="M290 593h-120l21 147h119zM499 593h-119l21 147h119zM282 -10q-115 0 -185 68q-68 70 -68 187q0 130 80 216q81 85 208 85q106 0 173 -62q67 -61 67 -162q0 -47 -14 -89h-362q-8 -59 19.5 -94t81.5 -35q38 0 67.5 17t41.5 45h151q-21 -81 -93 -129q-71 -47 -167 -47z
M197 333h210q4 44 -22.5 71.5t-73.5 27.5q-45 0 -77 -27t-37 -72z" />
    <glyph glyph-name="igrave" unicode="&#xec;" horiz-adv-x="276" 
d="M237 649l-55 -73l-210 128l77 103zM177 0h-153l75 536h153z" />
    <glyph glyph-name="iacute" unicode="&#xed;" horiz-adv-x="276" 
d="M425 700l-247 -128l-40 71l231 156zM177 0h-153l75 536h153z" />
    <glyph glyph-name="icircumflex" unicode="&#xee;" horiz-adv-x="276" 
d="M76 575l-67 70l159 137h87l120 -137l-77 -70l-94 118zM177 0h-153l75 536h153z" />
    <glyph glyph-name="idieresis" unicode="&#xef;" horiz-adv-x="276" 
d="M138 589h-120l21 147h119zM347 589h-119l21 147h119zM177 0h-153l75 536h153z" />
    <glyph glyph-name="eth" unicode="&#xf0;" horiz-adv-x="622" 
d="M32 221q0 113 76 186q77 74 192 74q39 0 66 -9l2 5q-26 23 -39 44l-26 40l-140 -49l16 109l75 26l-56 103h184l26 -50l143 51l-15 -109l-81 -26l63 -121q32 -68 47 -118q14 -45 14 -103q0 -127 -82 -205q-83 -78 -214 -78q-113 0 -182 63q-69 65 -69 167zM190 231
q0 -54 27.5 -84.5t73.5 -30.5q54 0 92 41q37 40 37 104q0 54 -27.5 84.5t-74.5 30.5q-56 0 -92 -41t-36 -104z" />
    <glyph glyph-name="ntilde" unicode="&#xf1;" horiz-adv-x="639" 
d="M441 587q-29 0 -64 19q-35 20 -58 20q-12 0 -26 -6q-12 -6 -39 -30l-54 41q56 101 136 101q27 0 61 -19q35 -19 59 -19q13 0 25 5t17 9.5t13 13.5t9 10l56 -40q-54 -105 -135 -105zM177 0h-153l75 536h134l6 -99h9q30 53 80 81t111 28q89 0 127.5 -59.5t23.5 -165.5
l-45 -321h-152l43 305q15 115 -82 115q-54 0 -91.5 -37t-46.5 -100z" />
    <glyph glyph-name="ograve" unicode="&#xf2;" horiz-adv-x="604" 
d="M401 654l-55 -73l-210 128l77 103zM30 248q0 132 80 215q81 83 211 83q114 0 183 -71q70 -70 70 -187q0 -132 -81 -215q-79 -82 -210 -82q-114 0 -184 70q-69 71 -69 187zM186 244q0 -59 27 -93.5t72 -34.5q59 0 95.5 49t36.5 127q0 59 -27 93.5t-72 34.5
q-59 0 -95.5 -48.5t-36.5 -127.5z" />
    <glyph glyph-name="oacute" unicode="&#xf3;" horiz-adv-x="604" 
d="M590 705l-247 -128l-40 71l231 156zM30 248q0 132 80 215q81 83 211 83q114 0 183 -71q70 -70 70 -187q0 -132 -81 -215q-79 -82 -210 -82q-114 0 -184 70q-69 71 -69 187zM186 244q0 -59 27 -93.5t72 -34.5q59 0 95.5 49t36.5 127q0 59 -27 93.5t-72 34.5
q-59 0 -95.5 -48.5t-36.5 -127.5z" />
    <glyph glyph-name="ocircumflex" unicode="&#xf4;" horiz-adv-x="604" 
d="M241 580l-67 70l159 137h87l120 -137l-77 -70l-94 118zM30 248q0 132 80 215q81 83 211 83q114 0 183 -71q70 -70 70 -187q0 -132 -81 -215q-79 -82 -210 -82q-114 0 -184 70q-69 71 -69 187zM186 244q0 -59 27 -93.5t72 -34.5q59 0 95.5 49t36.5 127q0 59 -27 93.5
t-72 34.5q-59 0 -95.5 -48.5t-36.5 -127.5z" />
    <glyph glyph-name="otilde" unicode="&#xf5;" horiz-adv-x="604" 
d="M412 587q-29 0 -64 19q-35 20 -58 20q-12 0 -26 -6q-12 -6 -39 -30l-54 41q56 101 136 101q27 0 61 -19q35 -19 59 -19q13 0 25 5t17 9.5t13 13.5t9 10l56 -40q-54 -105 -135 -105zM30 248q0 132 80 215q81 83 211 83q114 0 183 -71q70 -70 70 -187q0 -132 -81 -215
q-79 -82 -210 -82q-114 0 -184 70q-69 71 -69 187zM186 244q0 -59 27 -93.5t72 -34.5q59 0 95.5 49t36.5 127q0 59 -27 93.5t-72 34.5q-59 0 -95.5 -48.5t-36.5 -127.5z" />
    <glyph glyph-name="odieresis" unicode="&#xf6;" horiz-adv-x="604" 
d="M303 593h-120l21 147h119zM512 593h-119l21 147h119zM30 248q0 132 80 215q81 83 211 83q114 0 183 -71q70 -70 70 -187q0 -132 -81 -215q-79 -82 -210 -82q-114 0 -184 70q-69 71 -69 187zM186 244q0 -59 27 -93.5t72 -34.5q59 0 95.5 49t36.5 127q0 59 -27 93.5
t-72 34.5q-59 0 -95.5 -48.5t-36.5 -127.5z" />
    <glyph glyph-name="divide" unicode="&#xf7;" horiz-adv-x="641" 
d="M420 418h-158l21 151h159zM561 228h-492l17 123h492zM363 9h-158l21 151h158z" />
    <glyph glyph-name="oslash" unicode="&#xf8;" horiz-adv-x="630" 
d="M596 509l43 -81l-66 -44q14 -47 14 -96q0 -132 -80 -215q-79 -82 -210 -82q-125 0 -195 82l-68 -45l-42 80l66 44q-14 47 -14 96q0 132 80 215t210 83q125 0 194 -82zM332 420q-58 0 -94.5 -48t-37.5 -126l206 137q-28 37 -74 37zM299 116q58 0 94.5 48.5t37.5 125.5
l-207 -136q29 -38 75 -38z" />
    <glyph glyph-name="ugrave" unicode="&#xf9;" horiz-adv-x="627" 
d="M427 654l-55 -73l-210 128l77 103zM471 536h152l-75 -536h-134l-5 98h-10q-65 -108 -189 -108q-86 0 -124.5 56t-24.5 155l47 335h153l-44 -311q-17 -110 79 -110q53 0 90 38t45 100z" />
    <glyph glyph-name="uacute" unicode="&#xfa;" horiz-adv-x="627" 
d="M616 705l-247 -128l-40 71l231 156zM471 536h152l-75 -536h-134l-5 98h-10q-65 -108 -189 -108q-86 0 -124.5 56t-24.5 155l47 335h153l-44 -311q-17 -110 79 -110q53 0 90 38t45 100z" />
    <glyph glyph-name="ucircumflex" unicode="&#xfb;" horiz-adv-x="627" 
d="M266 580l-67 70l159 137h87l120 -137l-77 -70l-94 118zM471 536h152l-75 -536h-134l-5 98h-10q-65 -108 -189 -108q-86 0 -124.5 56t-24.5 155l47 335h153l-44 -311q-17 -110 79 -110q53 0 90 38t45 100z" />
    <glyph glyph-name="udieresis" unicode="&#xfc;" horiz-adv-x="627" 
d="M329 593h-120l21 147h119zM538 593h-119l21 147h119zM471 536h152l-75 -536h-134l-5 98h-10q-65 -108 -189 -108q-86 0 -124.5 56t-24.5 155l47 335h153l-44 -311q-17 -110 79 -110q53 0 90 38t45 100z" />
    <glyph glyph-name="yacute" unicode="&#xfd;" horiz-adv-x="523" 
d="M544 706l-247 -128l-40 71l231 156zM156 34l-128 502h159l35 -205l23 -152h7l63 152l89 205h163l-275 -562q-41 -83 -100 -117t-158 -34q-40 0 -71 7l17 122q28 -5 57 -5q79 0 102 53z" />
    <glyph glyph-name="thorn" unicode="&#xfe;" horiz-adv-x="654" 
d="M0 -167l127 897h153l-42 -293h9q29 53 77 81t107 28q90 0 142.5 -62.5t52.5 -172.5q0 -144 -71 -233q-70 -88 -185 -88q-61 0 -107.5 30.5t-63.5 80.5h-9l-37 -268h-153zM217 285l-2 -13q-9 -70 21.5 -113.5t90.5 -43.5q61 0 102 47q40 47 40 123q0 64 -30.5 100
t-83.5 36q-54 0 -91 -37t-47 -99z" />
    <glyph glyph-name="ydieresis" unicode="&#xff;" horiz-adv-x="523" 
d="M257 595h-120l21 147h119zM466 595h-119l21 147h119zM156 34l-128 502h159l35 -205l23 -152h7l63 152l89 205h163l-275 -562q-41 -83 -100 -117t-158 -34q-40 0 -71 7l17 122q28 -5 57 -5q79 0 102 53z" />
    <glyph glyph-name="Amacron" unicode="&#x100;" horiz-adv-x="710" 
d="M258 895h358l-16 -113h-358zM674 0h-170l-24 127h-286l-59 -127h-173l358 729h189zM393 560l-142 -309h206l-58 309h-6z" />
    <glyph glyph-name="amacron" unicode="&#x101;" horiz-adv-x="571" 
d="M496 593h-358l16 113h358zM9 138q0 85 57.5 134.5t156.5 49.5h141l5 31q5 39 -14.5 59.5t-59.5 20.5q-38 0 -62 -18.5t-29 -49.5h-150q15 85 82.5 133t169.5 48q115 0 170 -61t39 -177l-25 -171q-5 -32 21 -32q5 0 17 3l-15 -108q-35 -8 -67 -8q-49 0 -73 25t-21 71h-9
q-21 -46 -67.5 -72t-105.5 -26q-73 0 -117 40.5t-44 107.5zM166 162q0 -27 17.5 -42t48.5 -15q47 0 79 29.5t37 77.5l2 15h-102q-39 0 -60.5 -17.5t-21.5 -47.5z" />
    <glyph glyph-name="Abreve" unicode="&#x102;" horiz-adv-x="710" 
d="M430 775q-74 0 -115 44.5t-39 117.5h93q-2 -36 14.5 -56.5t47.5 -20.5q32 0 53.5 21t23.5 56h94q-1 -73 -49 -118q-49 -44 -123 -44zM674 0h-170l-24 127h-286l-59 -127h-173l358 729h189zM393 560l-142 -309h206l-58 309h-6z" />
    <glyph glyph-name="abreve" unicode="&#x103;" horiz-adv-x="571" 
d="M404 749h94q-1 -73 -49 -118q-49 -44 -123 -44t-115 44.5t-39 117.5h93q-2 -36 14.5 -56.5t47.5 -20.5q32 0 53.5 21t23.5 56zM9 138q0 85 57.5 134.5t156.5 49.5h141l5 31q5 39 -14.5 59.5t-59.5 20.5q-38 0 -62 -18.5t-29 -49.5h-150q15 85 82.5 133t169.5 48
q115 0 170 -61t39 -177l-25 -171q-5 -32 21 -32q5 0 17 3l-15 -108q-35 -8 -67 -8q-49 0 -73 25t-21 71h-9q-21 -46 -67.5 -72t-105.5 -26q-73 0 -117 40.5t-44 107.5zM166 162q0 -27 17.5 -42t48.5 -15q47 0 79 29.5t37 77.5l2 15h-102q-39 0 -60.5 -17.5t-21.5 -47.5z" />
    <glyph glyph-name="Aogonek" unicode="&#x104;" horiz-adv-x="710" 
d="M629 -113q31 0 59 15l-11 -71q-36 -14 -75 -14q-49 1 -79 26.5t-30 67.5q0 53 39 89h-28l-24 127h-286l-59 -127h-173l358 729h189l165 -729q-96 -16 -96 -74q0 -18 13.5 -28.5t37.5 -10.5zM393 560l-142 -309h206l-58 309h-6z" />
    <glyph glyph-name="aogonek" unicode="&#x105;" horiz-adv-x="571" 
d="M418 -75q0 -18 13.5 -28.5t37.5 -10.5q31 0 59 15l-11 -71q-36 -14 -75 -14q-49 1 -79 26.5t-30 67.5q0 63 51 98q-35 24 -32 80h-9q-21 -46 -67.5 -72t-105.5 -26q-73 0 -117 40.5t-44 107.5q0 85 57.5 134.5t156.5 49.5h141l5 31q5 39 -14.5 59.5t-59.5 20.5
q-38 0 -62 -18.5t-29 -49.5h-150q15 85 82.5 133t169.5 48q115 0 170 -61t39 -177l-25 -171q-5 -32 21 -32q5 0 17 3l-15 -106l1 -3q-96 -17 -96 -74zM348 212l2 15h-102q-39 0 -60.5 -17.5t-21.5 -47.5q0 -27 17.5 -42t48.5 -15q47 0 79 29.5t37 77.5z" />
    <glyph glyph-name="Cacute" unicode="&#x106;" horiz-adv-x="781" 
d="M705 893l-247 -128l-40 71l231 156zM577 252h167q-21 -117 -116 -190q-94 -72 -231 -72q-156 0 -252 98q-95 98 -95 259q0 167 104 279q103 112 271 112q133 0 224 -71q91 -70 105 -188h-167q-15 53 -60 85t-105 32q-89 0 -145 -68t-56 -176q0 -100 48.5 -160t130.5 -60
q58 0 108 33t69 87z" />
    <glyph glyph-name="cacute" unicode="&#x107;" horiz-adv-x="576" 
d="M579 705l-247 -128l-40 71l231 156zM389 197h151q-16 -91 -87 -150q-71 -57 -176 -57q-113 0 -181 68q-67 68 -67 184q0 132 82 217q83 87 214 87q102 0 167 -56t67 -148h-151q-2 35 -27 56.5t-62 21.5q-60 0 -97.5 -50t-37.5 -130q0 -59 26 -91.5t71 -32.5q39 0 69 23
t39 58z" />
    <glyph glyph-name="Cdotaccent" unicode="&#x10a;" horiz-adv-x="781" 
d="M523 782h-120l21 147h119zM577 252h167q-21 -117 -116 -190q-94 -72 -231 -72q-156 0 -252 98q-95 98 -95 259q0 167 104 279q103 112 271 112q133 0 224 -71q91 -70 105 -188h-167q-15 53 -60 85t-105 32q-89 0 -145 -68t-56 -176q0 -100 48.5 -160t130.5 -60
q58 0 108 33t69 87z" />
    <glyph glyph-name="cdotaccent" unicode="&#x10b;" horiz-adv-x="576" 
d="M397 593h-120l21 147h119zM389 197h151q-16 -91 -87 -150q-71 -57 -176 -57q-113 0 -181 68q-67 68 -67 184q0 132 82 217q83 87 214 87q102 0 167 -56t67 -148h-151q-2 35 -27 56.5t-62 21.5q-60 0 -97.5 -50t-37.5 -130q0 -59 26 -91.5t71 -32.5q39 0 69 23t39 58z" />
    <glyph glyph-name="Ccaron" unicode="&#x10c;" horiz-adv-x="781" 
d="M420 784l-120 139l76 69l94 -119l128 119l68 -69l-159 -139h-87zM577 252h167q-21 -117 -116 -190q-94 -72 -231 -72q-156 0 -252 98q-95 98 -95 259q0 167 104 279q103 112 271 112q133 0 224 -71q91 -70 105 -188h-167q-15 53 -60 85t-105 32q-89 0 -145 -68t-56 -176
q0 -100 48.5 -160t130.5 -60q58 0 108 33t69 87z" />
    <glyph glyph-name="ccaron" unicode="&#x10d;" horiz-adv-x="576" 
d="M294 596l-120 139l76 69l94 -119l128 119l68 -69l-159 -139h-87zM389 197h151q-16 -91 -87 -150q-71 -57 -176 -57q-113 0 -181 68q-67 68 -67 184q0 132 82 217q83 87 214 87q102 0 167 -56t67 -148h-151q-2 35 -27 56.5t-62 21.5q-60 0 -97.5 -50t-37.5 -130
q0 -59 26 -91.5t71 -32.5q39 0 69 23t39 58z" />
    <glyph glyph-name="Dcaron" unicode="&#x10e;" horiz-adv-x="755" 
d="M362 784l-120 139l76 69l94 -119l128 119l68 -69l-159 -139h-87zM334 0h-294l102 729h293q145 0 223.5 -81t78.5 -224q0 -191 -112 -307q-111 -117 -291 -117zM284 590l-63 -451h103q115 0 179 71t64 204q0 176 -177 176h-106z" />
    <glyph glyph-name="dcaron" unicode="&#x10f;" horiz-adv-x="673" 
d="M454 433h9l43 311h152l-104 -744h-133l-5 97h-9q-29 -50 -80 -78.5t-109 -28.5q-90 0 -140.5 58t-50.5 161q0 144 74 241q74 96 188 96q64 0 106.5 -30t58.5 -83zM743 618l18 126h125l-16 -115q-16 -118 -155 -118l7 44q74 0 82 63h-61zM437 251l3 22q10 71 -19.5 109.5
t-87.5 38.5q-67 0 -107 -52q-41 -53 -41 -134q0 -59 28 -89.5t79 -30.5q59 0 98 36.5t47 99.5z" />
    <glyph glyph-name="Dcroat" unicode="&#x110;" horiz-adv-x="755" 
d="M142 729h293q145 0 223.5 -81t78.5 -224q0 -191 -112 -307q-111 -117 -291 -117h-294l44 316h-74l16 117h75zM221 139h103q115 0 179 71t64 204q0 176 -177 176h-106l-22 -157h121l-16 -117h-121z" />
    <glyph glyph-name="dslash" unicode="&#x111;" horiz-adv-x="652" 
d="M648 677h72l-14 -103h-73l-80 -574h-133l-5 97h-9q-27 -50 -79 -78.5t-110 -28.5q-90 0 -140.5 58t-50.5 161q0 144 74 241q74 96 188 96q64 0 106.5 -30t58.5 -83h9l19 141h-135l14 103h136l9 67h152zM436 251l3 22q10 71 -19.5 109.5t-87.5 38.5q-67 0 -107 -52
q-41 -53 -41 -134q0 -59 28 -89.5t79 -30.5q59 0 98 36.5t47 99.5z" />
    <glyph glyph-name="Emacron" unicode="&#x112;" horiz-adv-x="641" 
d="M580 782h-358l16 113h358zM555 0h-515l102 729h515l-19 -139h-354l-20 -147h303l-19 -131h-303l-24 -173h354z" />
    <glyph glyph-name="emacron" unicode="&#x113;" horiz-adv-x="585" 
d="M514 593h-358l16 113h358zM282 -10q-115 0 -185 68q-68 70 -68 187q0 130 80 216q81 85 208 85q106 0 173 -62q67 -61 67 -162q0 -47 -14 -89h-362q-8 -59 19.5 -94t81.5 -35q38 0 67.5 17t41.5 45h151q-21 -81 -93 -129q-71 -47 -167 -47zM197 333h210q4 44 -22.5 71.5
t-73.5 27.5q-45 0 -77 -27t-37 -72z" />
    <glyph glyph-name="Edotaccent" unicode="&#x116;" horiz-adv-x="641" 
d="M462 782h-120l21 147h119zM555 0h-515l102 729h515l-19 -139h-354l-20 -147h303l-19 -131h-303l-24 -173h354z" />
    <glyph glyph-name="edotaccent" unicode="&#x117;" horiz-adv-x="585" 
d="M396 593h-120l21 147h119zM282 -10q-115 0 -185 68q-68 70 -68 187q0 130 80 216q81 85 208 85q106 0 173 -62q67 -61 67 -162q0 -47 -14 -89h-362q-8 -59 19.5 -94t81.5 -35q38 0 67.5 17t41.5 45h151q-21 -81 -93 -129q-71 -47 -167 -47zM197 333h210q4 44 -22.5 71.5
t-73.5 27.5q-45 0 -77 -27t-37 -72z" />
    <glyph glyph-name="Eogonek" unicode="&#x118;" horiz-adv-x="641" 
d="M657 729l-19 -139h-354l-20 -147h303l-19 -131h-303l-24 -173h354l-20 -139h-7q-96 -16 -96 -74q0 -18 13.5 -28.5t37.5 -10.5q31 0 59 15l-11 -71q-36 -14 -75 -14q-49 1 -79 26.5t-30 67.5q0 53 39 89h-366l102 729h515z" />
    <glyph glyph-name="eogonek" unicode="&#x119;" horiz-adv-x="585" 
d="M543 233h-362q-8 -59 19.5 -94t81.5 -35q38 0 67.5 17t41.5 45h151q-20 -78 -84 -124t-154 -51q-60 -21 -60 -65q0 -18 13.5 -28.5t37.5 -10.5q31 0 59 15l-11 -71q-36 -14 -75 -14q-49 1 -79 26.5t-30 67.5q0 56 40 90q-81 22 -125.5 85.5t-44.5 158.5q0 130 80 216
q81 85 208 85q106 0 173 -62q67 -61 67 -162q0 -47 -14 -89zM311 432q-45 0 -77 -27t-37 -72h210q4 44 -22.5 71.5t-73.5 27.5z" />
    <glyph glyph-name="Ecaron" unicode="&#x11a;" horiz-adv-x="641" 
d="M359 784l-120 139l76 69l94 -119l128 119l68 -69l-159 -139h-87zM555 0h-515l102 729h515l-19 -139h-354l-20 -147h303l-19 -131h-303l-24 -173h354z" />
    <glyph glyph-name="ecaron" unicode="&#x11b;" horiz-adv-x="585" 
d="M293 596l-120 139l76 69l94 -119l128 119l68 -69l-159 -139h-87zM282 -10q-115 0 -185 68q-68 70 -68 187q0 130 80 216q81 85 208 85q106 0 173 -62q67 -61 67 -162q0 -47 -14 -89h-362q-8 -59 19.5 -94t81.5 -35q38 0 67.5 17t41.5 45h151q-21 -81 -93 -129
q-71 -47 -167 -47zM197 333h210q4 44 -22.5 71.5t-73.5 27.5q-45 0 -77 -27t-37 -72z" />
    <glyph glyph-name="Gbreve" unicode="&#x11e;" horiz-adv-x="815" 
d="M473 775q-74 0 -115 44.5t-39 117.5h93q-2 -36 14.5 -56.5t47.5 -20.5q32 0 53.5 21t23.5 56h94q-1 -73 -49 -118q-49 -44 -123 -44zM357 272l18 128h396l-56 -400h-132l5 97h-7q-33 -51 -94 -79t-137 -28q-136 0 -219 93q-82 94 -82 249q0 179 106 292q107 114 275 114
q126 0 212 -66q87 -65 106 -174h-168q-14 44 -55 71t-96 27q-93 0 -151 -73t-58 -185q0 -99 47.5 -157t128.5 -58q71 0 122 42t63 107h-224z" />
    <glyph glyph-name="gbreve" unicode="&#x11f;" horiz-adv-x="558" 
d="M371 757h94q-1 -73 -49 -118q-49 -44 -123 -44t-115 44.5t-39 117.5h93q-2 -36 14.5 -56.5t47.5 -20.5q32 0 53.5 21t23.5 56zM-30 -67q0 39 24.5 67.5t66.5 37.5l1 8q-48 18 -48 71q0 36 24.5 65t68.5 43l1 9q-63 38 -63 122t66 136q66 54 168 54q57 0 92 -15
q23 51 77 82.5t120 31.5l-16 -116q-33 0 -61 -10.5t-40 -27.5q45 -41 45 -114q0 -82 -65 -133t-170 -51q-41 0 -68 7q-36 -9 -36 -40q0 -30 60 -30h110q82 0 126 -38.5t44 -105.5q0 -86 -76.5 -131.5t-214.5 -45.5q-118 0 -177 32.5t-59 91.5zM194 364q0 -30 19.5 -48
t51.5 -18q36 0 59.5 21.5t23.5 55.5q0 31 -19.5 49t-51.5 18q-36 0 -59.5 -21.5t-23.5 -56.5zM110 -35q0 -49 109 -49q125 0 125 59q0 36 -47 36h-120q-67 0 -67 -46z" />
    <glyph glyph-name="Gdotaccent" unicode="&#x120;" horiz-adv-x="815" 
d="M427 929h119l-20 -147h-120zM357 272l18 128h396l-56 -400h-132l5 97h-7q-33 -51 -94 -79t-137 -28q-136 0 -219 93q-82 94 -82 249q0 179 106 292q107 114 275 114q126 0 212 -66q87 -65 106 -174h-168q-14 44 -55 71t-96 27q-93 0 -151 -73t-58 -185q0 -99 47.5 -157
t128.5 -58q71 0 122 42t63 107h-224z" />
    <glyph glyph-name="gdotaccent" unicode="&#x121;" horiz-adv-x="558" 
d="M345 602h-120l21 147h119zM-30 -67q0 39 24.5 67.5t66.5 37.5l1 8q-48 18 -48 71q0 36 24.5 65t68.5 43l1 9q-63 38 -63 122t66 136q66 54 168 54q57 0 92 -15q23 51 77 82.5t120 31.5l-16 -116q-33 0 -61 -10.5t-40 -27.5q45 -41 45 -114q0 -82 -65 -133t-170 -51
q-41 0 -68 7q-36 -9 -36 -40q0 -30 60 -30h110q82 0 126 -38.5t44 -105.5q0 -86 -76.5 -131.5t-214.5 -45.5q-118 0 -177 32.5t-59 91.5zM194 364q0 -30 19.5 -48t51.5 -18q36 0 59.5 21.5t23.5 55.5q0 31 -19.5 49t-51.5 18q-36 0 -59.5 -21.5t-23.5 -56.5zM110 -35
q0 -49 109 -49q125 0 125 59q0 36 -47 36h-120q-67 0 -67 -46z" />
    <glyph glyph-name="uni0122" unicode="&#x122;" horiz-adv-x="815" 
d="M357 272l18 128h396l-56 -400h-132l5 97h-7q-33 -51 -94 -79t-137 -28q-136 0 -219 93q-82 94 -82 249q0 179 106 292q107 114 275 114q126 0 212 -66q87 -65 106 -174h-168q-14 44 -55 71t-96 27q-93 0 -151 -73t-58 -185q0 -99 47.5 -157t128.5 -58q71 0 122 42t63 107
h-224zM328 -182h-59l18 128h124l-20 -134q-13 -102 -131 -102l6 42q52 0 59 48z" />
    <glyph glyph-name="uni0123" unicode="&#x123;" horiz-adv-x="558" 
d="M375 856l-5 -43q-52 0 -60 -48l-4 -30h59l-18 -129h-124l21 147q15 103 131 103zM-30 -67q0 39 24.5 67.5t66.5 37.5l1 8q-48 18 -48 71q0 36 24.5 65t68.5 43l1 9q-63 38 -63 122t66 136q66 54 168 54q57 0 92 -15q23 51 77 82.5t120 31.5l-16 -116q-33 0 -61 -10.5
t-40 -27.5q45 -41 45 -114q0 -82 -65 -133t-170 -51q-41 0 -68 7q-36 -9 -36 -40q0 -30 60 -30h110q82 0 126 -38.5t44 -105.5q0 -86 -76.5 -131.5t-214.5 -45.5q-118 0 -177 32.5t-59 91.5zM194 364q0 -30 19.5 -48t51.5 -18q36 0 59.5 21.5t23.5 55.5q0 31 -19.5 49
t-51.5 18q-36 0 -59.5 -21.5t-23.5 -56.5zM110 -35q0 -49 109 -49q125 0 125 59q0 36 -47 36h-120q-67 0 -67 -46z" />
    <glyph glyph-name="Hbar" unicode="&#x126;" horiz-adv-x="807" 
d="M783 647h76l-14 -104h-77l-76 -543h-161l43 307h-330l-43 -307h-161l76 543h-62l14 104h63l11 82h161l-11 -82h330l11 82h161zM262 435h330l15 108h-330z" />
    <glyph glyph-name="hbar" unicode="&#x127;" horiz-adv-x="639" 
d="M438 546q89 0 128 -59t25 -165l-45 -322h-153l42 306q17 114 -82 114q-54 0 -91 -36.5t-45 -97.5l-40 -286h-153l79 567h-59l14 103h60l10 74h153l-10 -74h147l-14 -103h-147l-18 -128h8q66 107 191 107z" />
    <glyph glyph-name="Imacron" unicode="&#x12a;" horiz-adv-x="316" 
d="M408 782h-358l16 113h358zM303 729l-102 -729h-161l102 729h161z" />
    <glyph glyph-name="imacron" unicode="&#x12b;" horiz-adv-x="276" 
d="M362 589h-358l16 113h358zM177 0h-153l75 536h153z" />
    <glyph glyph-name="Iogonek" unicode="&#x12e;" horiz-adv-x="316" 
d="M201 0h-23q-96 -16 -96 -74q0 -18 13.5 -28.5t37.5 -10.5q31 0 59 15l-11 -71q-36 -14 -75 -14q-49 1 -79 26.5t-30 67.5q0 58 44 93l101 725h161z" />
    <glyph glyph-name="iogonek" unicode="&#x12f;" horiz-adv-x="276" 
d="M145 736h119l-20 -147h-120zM25 7l74 529h153l-75 -536h-19q-96 -16 -96 -74q0 -18 13.5 -28.5t37.5 -10.5q31 0 59 15l-11 -71q-36 -14 -75 -14q-49 1 -79 26.5t-30 67.5q0 61 48 96z" />
    <glyph glyph-name="Idot" unicode="&#x130;" horiz-adv-x="316" 
d="M310 782h-154l27 147h154zM303 729l-102 -729h-161l102 729h161z" />
    <glyph glyph-name="dotlessi" unicode="&#x131;" horiz-adv-x="276" 
d="M177 0h-153l75 536h153z" />
    <glyph glyph-name="Jcircumflex" unicode="&#x134;" horiz-adv-x="418" 
d="M230 768l-67 70l159 137h87l120 -137l-77 -70l-94 118zM411 729l-71 -507q-34 -231 -266 -231q-58 0 -96 9l19 131q28 -5 63 -5q56 0 85 28.5t37 86.5l68 488h161z" />
    <glyph glyph-name="jcircumflex" unicode="&#x135;" horiz-adv-x="277" 
d="M78 575l-67 70l159 137h87l120 -137l-77 -70l-94 118zM-28 -175q-35 0 -73 5l17 118q14 -3 30 -3q72 0 83 77l72 514h152l-77 -542q-24 -169 -204 -169z" />
    <glyph glyph-name="uni0136" unicode="&#x136;" horiz-adv-x="724" 
d="M578 729h197l-307 -316l215 -413h-194l-149 282l-116 -119l-23 -163h-161l102 729h161l-48 -340zM318 -182h-59l18 128h124l-20 -134q-13 -102 -131 -102l6 42q52 0 59 48z" />
    <glyph glyph-name="uni0137" unicode="&#x137;" horiz-adv-x="602" 
d="M440 536h188l-230 -209l166 -327h-174l-111 220l-79 -72l-21 -148h-155l104 744h155l-57 -406zM252 -182h-59l18 128h124l-20 -134q-13 -102 -131 -102l6 42q52 0 59 48z" />
    <glyph glyph-name="Lacute" unicode="&#x139;" horiz-adv-x="572" 
d="M514 893l-247 -128l-40 71l231 156zM498 0h-458l102 729h161l-82 -585h297z" />
    <glyph glyph-name="lacute" unicode="&#x13a;" horiz-adv-x="276" 
d="M456 910l-247 -128l-40 71l231 156zM176 0h-152l104 744h153z" />
    <glyph glyph-name="uni013B" unicode="&#x13b;" horiz-adv-x="572" 
d="M498 0h-458l102 729h161l-82 -585h297zM173 -290l6 42q51 0 59 48l3 18h-59l18 128h124l-20 -134q-14 -102 -131 -102z" />
    <glyph glyph-name="uni013C" unicode="&#x13c;" horiz-adv-x="276" 
d="M176 0h-152l104 744h153zM6 -290l6 42q52 0 59 48l3 18h-59l18 128h124l-20 -134q-13 -102 -131 -102z" />
    <glyph glyph-name="Lcaron" unicode="&#x13d;" horiz-adv-x="572" 
d="M363 456l7 47q77 0 85 68l4 24h-63l20 138h125l-20 -148q-18 -129 -158 -129zM500 0h-458l102 729h161l-82 -585h297z" />
    <glyph glyph-name="lcaron" unicode="&#x13e;" horiz-adv-x="276" 
d="M171 801l-120 139l76 69l94 -119l128 119l68 -69l-159 -139h-87zM176 0h-152l104 744h153z" />
    <glyph glyph-name="Ldot" unicode="&#x13f;" horiz-adv-x="601" 
d="M498 0h-458l102 729h161l-82 -585h297zM347 421q0 41 27.5 68.5t66.5 27.5q33 0 54.5 -22t21.5 -58q0 -41 -26 -67.5t-66 -26.5q-34 0 -56 21.5t-22 56.5z" />
    <glyph glyph-name="ldot" unicode="&#x140;" horiz-adv-x="470" 
d="M176 0h-152l104 744h153zM299 372q0 42 27 69t67 27q33 0 55 -22t22 -57q0 -41 -26.5 -68.5t-66.5 -27.5q-34 0 -56 22t-22 57z" />
    <glyph glyph-name="Lslash" unicode="&#x141;" horiz-adv-x="572" 
d="M249 346l-28 -202h297l-20 -144h-458l40 289l-79 -27l20 137l79 27l42 303h161l-35 -247l159 54l-19 -137z" />
    <glyph glyph-name="lslash" unicode="&#x142;" horiz-adv-x="309" 
d="M266 515l59 21l-19 -137l-59 -21l-53 -378h-153l45 321l-60 -22l19 137l61 22l40 286h152z" />
    <glyph glyph-name="Nacute" unicode="&#x143;" horiz-adv-x="792" 
d="M713 893l-247 -128l-40 71l231 156zM201 0h-161l102 729h186l224 -503h7l19 209l42 294h160l-102 -729h-187l-222 499h-7l-19 -201z" />
    <glyph glyph-name="nacute" unicode="&#x144;" horiz-adv-x="639" 
d="M619 705l-247 -128l-40 71l231 156zM177 0h-153l75 536h134l6 -99h9q30 53 80 81t111 28q89 0 127.5 -59.5t23.5 -165.5l-45 -321h-152l43 305q15 115 -82 115q-54 0 -91.5 -37t-46.5 -100z" />
    <glyph glyph-name="uni0145" unicode="&#x145;" horiz-adv-x="792" 
d="M201 0h-161l102 729h186l224 -503h7l19 209l42 294h160l-102 -729h-187l-222 499h-7l-19 -201zM266 -290l6 42q52 0 59 48l3 18h-59l18 128h124l-20 -134q-13 -102 -131 -102z" />
    <glyph glyph-name="uni0146" unicode="&#x146;" horiz-adv-x="639" 
d="M177 0h-153l75 536h134l6 -99h9q30 53 80 81t111 28q89 0 127.5 -59.5t23.5 -165.5l-45 -321h-152l43 305q15 115 -82 115q-54 0 -91.5 -37t-46.5 -100zM188 -290l6 42q52 0 59 48l3 18h-59l18 128h124l-20 -134q-13 -102 -131 -102z" />
    <glyph glyph-name="Ncaron" unicode="&#x147;" horiz-adv-x="792" 
d="M428 784l-120 139l76 69l94 -119l128 119l68 -69l-159 -139h-87zM201 0h-161l102 729h186l224 -503h7l19 209l42 294h160l-102 -729h-187l-222 499h-7l-19 -201z" />
    <glyph glyph-name="ncaron" unicode="&#x148;" horiz-adv-x="639" 
d="M334 596l-120 139l76 69l94 -119l128 119l68 -69l-159 -139h-87zM177 0h-153l75 536h134l6 -99h9q30 53 80 81t111 28q89 0 127.5 -59.5t23.5 -165.5l-45 -321h-152l43 305q15 115 -82 115q-54 0 -91.5 -37t-46.5 -100z" />
    <glyph glyph-name="Eng" unicode="&#x14a;" horiz-adv-x="792" 
d="M620 729h160l-102 -729l-2 -12q-11 -78 -64.5 -119.5t-137.5 -41.5q-32 0 -75 8l13 94q24 -2 27 -2q67 0 75 63l1 10h-24l-222 499h-7l-19 -201l-42 -298h-161l102 729h186l224 -503h7l19 209z" />
    <glyph glyph-name="eng" unicode="&#x14b;" horiz-adv-x="639" 
d="M439 546q89 0 127.5 -59.5t23.5 -165.5l-45 -326q-24 -171 -203 -171q-40 0 -76 9l16 108q14 -3 28 -3q42 0 61 21t25 64l6 40l34 242q15 115 -82 115q-54 0 -91.5 -37t-46.5 -100l-39 -283h-153l75 536h134l6 -99h9q30 53 80 81t111 28z" />
    <glyph glyph-name="Omacron" unicode="&#x14c;" horiz-adv-x="798" 
d="M622 791h-358l16 113h358zM49 337q0 177 107 289q108 112 280 112q150 0 245 -96q95 -97 95 -251q0 -178 -109 -290q-108 -111 -281 -111q-150 0 -244 96q-93 96 -93 251zM221 337q0 -93 46 -149q47 -56 125 -56q94 0 152 72q60 72 60 185q0 92 -48 149q-46 58 -123 58
q-95 0 -153 -73q-59 -73 -59 -186z" />
    <glyph glyph-name="omacron" unicode="&#x14d;" horiz-adv-x="604" 
d="M526 593h-358l16 113h358zM30 248q0 132 80 215q81 83 211 83q114 0 183 -71q70 -70 70 -187q0 -132 -81 -215q-79 -82 -210 -82q-114 0 -184 70q-69 71 -69 187zM186 244q0 -59 27 -93.5t72 -34.5q59 0 95.5 49t36.5 127q0 59 -27 93.5t-72 34.5q-59 0 -95.5 -48.5
t-36.5 -127.5z" />
    <glyph glyph-name="Ohungarumlaut" unicode="&#x150;" horiz-adv-x="798" 
d="M562 906l-241 -128l-36 70l228 160zM806 906l-241 -128l-35 70l226 160zM49 337q0 177 107 289q108 112 280 112q150 0 245 -96q95 -97 95 -251q0 -178 -109 -290q-108 -111 -281 -111q-150 0 -244 96q-93 96 -93 251zM221 337q0 -93 46 -149q47 -56 125 -56q94 0 152 72
q60 72 60 185q0 92 -48 149q-46 58 -123 58q-95 0 -153 -73q-59 -73 -59 -186z" />
    <glyph glyph-name="ohungarumlaut" unicode="&#x151;" horiz-adv-x="604" 
d="M467 709l-241 -128l-36 70l228 160zM711 709l-241 -128l-35 70l226 160zM30 248q0 132 80 215q81 83 211 83q114 0 183 -71q70 -70 70 -187q0 -132 -81 -215q-79 -82 -210 -82q-114 0 -184 70q-69 71 -69 187zM186 244q0 -59 27 -93.5t72 -34.5q59 0 95.5 49t36.5 127
q0 59 -27 93.5t-72 34.5q-59 0 -95.5 -48.5t-36.5 -127.5z" />
    <glyph glyph-name="OE" unicode="&#x152;" horiz-adv-x="951" 
d="M47 317q0 193 119 303q118 109 324 109h478l-20 -138h-318l-23 -163h224l-17 -130h-225l-23 -159h318l-19 -139h-448q-175 0 -273 86q-97 87 -97 231zM218 326q0 -87 47 -137t128 -50h13l63 450h-24q-101 0 -164 -74q-63 -73 -63 -189z" />
    <glyph glyph-name="oe" unicode="&#x153;" horiz-adv-x="986" 
d="M943 233h-362q-7 -60 20.5 -94.5t80.5 -34.5q38 0 67.5 17t41.5 45h151q-21 -81 -93 -129q-71 -47 -167 -47q-124 0 -193 78q-80 -77 -206 -77q-114 0 -184 70q-69 71 -69 187q0 132 80 215q81 83 211 83q124 0 193 -81q80 81 203 81q106 0 173 -62q67 -61 67 -162
q0 -47 -14 -89zM712 432q-46 0 -77.5 -27t-37.5 -72h211q3 45 -23 72t-73 27zM285 116q59 0 95.5 49t36.5 127q0 59 -27 93.5t-72 34.5q-59 0 -95.5 -48.5t-36.5 -127.5q0 -59 27 -93.5t72 -34.5z" />
    <glyph glyph-name="Racute" unicode="&#x154;" horiz-adv-x="730" 
d="M663 893l-247 -128l-40 71l231 156zM201 0h-161l102 729h336q107 0 168 -53.5t61 -144.5q0 -69 -37.5 -123.5t-100.5 -75.5l-1 -8q93 -27 79 -137l-13 -100q-9 -59 -1 -87h-165q-7 20 1 89l9 67q8 55 -6 75.5t-64 20.5h-172zM284 590l-28 -200h148q60 0 94 29.5t34 78.5
q0 92 -104 92h-144z" />
    <glyph glyph-name="racute" unicode="&#x155;" horiz-adv-x="394" 
d="M508 705l-247 -128l-40 71l231 156zM177 0h-153l75 536h133l6 -102h6q25 51 74.5 81.5t107.5 30.5l-19 -133q-171 -1 -197 -183z" />
    <glyph glyph-name="uni0156" unicode="&#x156;" horiz-adv-x="730" 
d="M201 0h-161l102 729h336q107 0 168 -53.5t61 -144.5q0 -69 -37.5 -123.5t-100.5 -75.5l-1 -8q93 -27 79 -137l-13 -100q-9 -59 -1 -87h-165q-7 20 1 89l9 67q8 55 -6 75.5t-64 20.5h-172zM284 590l-28 -200h148q60 0 94 29.5t34 78.5q0 92 -104 92h-144zM247 -290l6 42
q51 0 59 48l3 18h-59l18 128h124l-20 -134q-14 -102 -131 -102z" />
    <glyph glyph-name="uni0157" unicode="&#x157;" horiz-adv-x="394" 
d="M177 0h-153l75 536h133l6 -102h6q25 51 74.5 81.5t107.5 30.5l-19 -133q-171 -1 -197 -183zM5 -290l6 42q51 0 59 48l3 18h-59l18 128h124l-20 -134q-14 -102 -131 -102z" />
    <glyph glyph-name="Rcaron" unicode="&#x158;" horiz-adv-x="730" 
d="M378 784l-120 139l76 69l94 -119l128 119l68 -69l-159 -139h-87zM201 0h-161l102 729h336q107 0 168 -53.5t61 -144.5q0 -69 -37.5 -123.5t-100.5 -75.5l-1 -8q93 -27 79 -137l-13 -100q-9 -59 -1 -87h-165q-7 20 1 89l9 67q8 55 -6 75.5t-64 20.5h-172zM284 590
l-28 -200h148q60 0 94 29.5t34 78.5q0 92 -104 92h-144z" />
    <glyph glyph-name="rcaron" unicode="&#x159;" horiz-adv-x="394" 
d="M224 596l-120 139l76 69l94 -119l128 119l68 -69l-159 -139h-87zM177 0h-153l75 536h133l6 -102h6q25 51 74.5 81.5t107.5 30.5l-19 -133q-171 -1 -197 -183z" />
    <glyph glyph-name="Sacute" unicode="&#x15a;" horiz-adv-x="667" 
d="M642 893l-247 -128l-40 71l231 156zM25 230h167q-2 -50 34 -81t97 -31q55 0 88.5 24.5t33.5 66.5q0 34 -21 51q-9 9 -23 14q-23 9 -42 13l-86 22q-190 48 -190 199q0 103 79 166q79 64 205 64q120 0 196 -62q77 -62 81 -163h-168q-1 44 -32 71.5t-81 27.5
q-46 0 -74.5 -21.5t-28.5 -57.5q0 -29 20.5 -45.5t69.5 -27.5l97 -23q84 -21 128.5 -74t44.5 -129q0 -109 -83 -177q-82 -67 -218 -67q-133 0 -213 65q-80 66 -81 175z" />
    <glyph glyph-name="sacute" unicode="&#x15b;" horiz-adv-x="527" 
d="M563 705l-247 -128l-40 71l231 156zM16 172h146q-1 -34 21.5 -54t62.5 -20q36 0 57 15t21 42q0 37 -55 49l-53 11q-52 13 -74 23q-76 35 -81 128q0 82 63 131q62 49 162 49q97 0 156 -47t61 -124h-146q0 29 -20 46t-54 17q-30 0 -48 -14.5t-18 -38.5q0 -17 11 -28
q4 -4 8 -6.5t6 -4t8 -3.5t8 -2.5t10.5 -2.5t12.5 -3l57 -12q145 -28 145 -150q0 -83 -65 -133t-172 -50q-104 0 -165.5 49t-64.5 133z" />
    <glyph glyph-name="Scedilla" unicode="&#x15e;" horiz-adv-x="667" 
d="M350 460l97 -23q84 -21 128.5 -74t44.5 -129q0 -109 -82 -176t-214 -68l-16 -16q35 -4 56.5 -24.5t21.5 -57.5q0 -50 -38 -76.5t-87.5 -25.5t-89.5 22l10 72q30 -25 71 -20t41 38q0 24 -26 32q-26 6 -46 -4l6 39l24 26q-104 16 -164.5 78.5t-61.5 156.5h167
q-2 -50 34 -81t97 -31q55 0 88.5 24.5t33.5 66.5q0 34 -21 51q-9 9 -23 14q-23 9 -42 13l-86 22q-190 48 -190 199q0 103 79 166q79 64 205 64q120 0 196 -62q77 -62 81 -163h-168q-1 44 -32 71.5t-81 27.5q-46 0 -74.5 -21.5t-28.5 -57.5q0 -29 20.5 -45.5t69.5 -27.5z" />
    <glyph glyph-name="scedilla" unicode="&#x15f;" horiz-adv-x="527" 
d="M281 335l57 -12q145 -28 145 -150q0 -78 -59 -128q-58 -49 -157 -54l-15 -16q35 -4 56.5 -24.5t21.5 -57.5q0 -50 -38 -76.5t-87.5 -25.5t-89.5 22l10 72q30 -25 71 -20t41 38q0 24 -26 32q-26 6 -46 -4l6 39l22 24q-81 12 -128 59t-49 119h146q-1 -34 21.5 -54t62.5 -20
q36 0 57 15t21 42q0 37 -55 49l-53 11q-52 13 -74 23q-76 35 -81 128q0 82 63 131q62 49 162 49q97 0 156 -47t61 -124h-146q0 29 -20 46t-54 17q-30 0 -48 -14.5t-18 -38.5q0 -17 11 -28q4 -4 8 -6.5t6 -4t8 -3.5t8 -2.5t10.5 -2.5t12.5 -3z" />
    <glyph glyph-name="Scaron" unicode="&#x160;" horiz-adv-x="667" 
d="M358 784l-120 139l76 69l94 -119l128 119l68 -69l-159 -139h-87zM25 230h167q-2 -50 34 -81t97 -31q55 0 88.5 24.5t33.5 66.5q0 34 -21 51q-9 9 -23 14q-23 9 -42 13l-86 22q-190 48 -190 199q0 103 79 166q79 64 205 64q120 0 196 -62q77 -62 81 -163h-168
q-1 44 -32 71.5t-81 27.5q-46 0 -74.5 -21.5t-28.5 -57.5q0 -29 20.5 -45.5t69.5 -27.5l97 -23q84 -21 128.5 -74t44.5 -129q0 -109 -83 -177q-82 -67 -218 -67q-133 0 -213 65q-80 66 -81 175z" />
    <glyph glyph-name="scaron" unicode="&#x161;" horiz-adv-x="527" 
d="M278 596l-120 139l76 69l94 -119l128 119l68 -69l-159 -139h-87zM16 172h146q-1 -34 21.5 -54t62.5 -20q36 0 57 15t21 42q0 37 -55 49l-53 11q-52 13 -74 23q-76 35 -81 128q0 82 63 131q62 49 162 49q97 0 156 -47t61 -124h-146q0 29 -20 46t-54 17q-30 0 -48 -14.5
t-18 -38.5q0 -17 11 -28q4 -4 8 -6.5t6 -4t8 -3.5t8 -2.5t10.5 -2.5t12.5 -3l57 -12q145 -28 145 -150q0 -83 -65 -133t-172 -50q-104 0 -165.5 49t-64.5 133z" />
    <glyph glyph-name="uni0162" unicode="&#x162;" horiz-adv-x="574" 
d="M412 588l-84 -588h-42l-25 -26q35 -4 56.5 -24.5t21.5 -57.5q0 -50 -38 -76.5t-87.5 -25.5t-89.5 22l10 72q30 -25 71 -20t41 38q0 24 -26 32q-26 6 -46 -4l6 39l29 31h-42l83 588h-198l19 141h561l-19 -141h-201z" />
    <glyph glyph-name="uni0163" unicode="&#x163;" horiz-adv-x="389" 
d="M381 413h-115l-32 -229q-4 -38 8 -54t52 -16q24 0 46 5l-17 -118q-32 -8 -67 -9l-15 -15q35 -4 56.5 -24.5t21.5 -57.5q0 -50 -38 -76.5t-87.5 -25.5t-89.5 22l10 72q30 -25 71 -20t41 38q0 24 -26 32q-26 6 -46 -4l6 39l24 25q-125 27 -104 178l34 238h-86l18 123h86
l18 132l160 59l-26 -191h115z" />
    <glyph glyph-name="Tcaron" unicode="&#x164;" horiz-adv-x="574" 
d="M563 923l-159 -139h-87l-120 139l76 69l94 -119l128 119zM71 729h561l-19 -141h-201l-84 -588h-161l83 588h-198z" />
    <glyph glyph-name="tcaron" unicode="&#x165;" horiz-adv-x="389" 
d="M199 748l-120 139l76 69l94 -119l128 119l68 -69l-159 -139h-87zM28 413l18 123h86l18 132l160 59l-26 -191h115l-18 -123h-115l-32 -229q-4 -38 8 -54t52 -16q24 0 46 5l-17 -118q-39 -9 -86 -9q-91 0 -130 47.5t-27 135.5l34 238h-86z" />
    <glyph glyph-name="Tbar" unicode="&#x166;" horiz-adv-x="574" 
d="M632 729l-19 -141h-201l-22 -154h143l-17 -130h-145l-43 -304h-161l43 304h-133l17 130h134l22 154h-198l19 141h561z" />
    <glyph glyph-name="tbar" unicode="&#x167;" horiz-adv-x="389" 
d="M399 536l-18 -123h-115l-9 -67h124l-14 -126h-128l-5 -36q-4 -38 8 -54t52 -16q24 0 46 5l-17 -118q-39 -9 -86 -9q-91 0 -130 47.5t-27 135.5l6 45h-76l14 126h80l10 67h-86l18 123h86l18 132l160 59l-26 -191h115z" />
    <glyph glyph-name="Umacron" unicode="&#x16a;" horiz-adv-x="772" 
d="M656 782h-358l16 113h358zM97 309l59 420h161l-61 -435q-11 -72 26 -116t110 -44q70 0 115.5 41.5t55.5 113.5l62 440h161l-64 -450q-19 -138 -112 -214q-92 -75 -230 -75q-148 0 -226 87q-76 88 -57 232z" />
    <glyph glyph-name="umacron" unicode="&#x16b;" horiz-adv-x="627" 
d="M552 593h-358l16 113h358zM471 536h152l-75 -536h-134l-5 98h-10q-65 -108 -189 -108q-86 0 -124.5 56t-24.5 155l47 335h153l-44 -311q-17 -110 79 -110q53 0 90 38t45 100z" />
    <glyph glyph-name="Uring" unicode="&#x16e;" horiz-adv-x="772" 
d="M611 802q0 -60 -38.5 -96.5t-100.5 -36.5q-54 0 -87 31t-33 83q0 58 38.5 95t100.5 37q54 0 87 -31.5t33 -81.5zM528 798q0 20 -11.5 32t-30.5 12q-23 0 -37 -15.5t-14 -40.5q0 -19 11.5 -31t29.5 -12q23 0 37.5 15t14.5 40zM97 309l59 420h161l-61 -435q-11 -72 26 -116
t110 -44q70 0 115.5 41.5t55.5 113.5l62 440h161l-64 -450q-19 -138 -112 -214q-92 -75 -230 -75q-148 0 -226 87q-76 88 -57 232z" />
    <glyph glyph-name="uring" unicode="&#x16f;" horiz-adv-x="627" 
d="M485 536h138l-75 -536h-134l-5 98h-10q-65 -108 -189 -108q-86 0 -124.5 56t-24.5 155l47 335h153l-44 -311q-17 -110 79 -110q53 0 90 38t45 100l37 263q-38 -36 -100 -36q-54 0 -87 31t-33 83q0 58 38.5 95t100.5 37q54 0 87 -31.5t33 -81.5q0 -45 -22 -77zM372 554
q23 0 37.5 15t14.5 40q0 20 -11.5 32t-30.5 12q-23 0 -37 -15.5t-14 -40.5q0 -19 11.5 -31t29.5 -12z" />
    <glyph glyph-name="Uhungarumlaut" unicode="&#x170;" horiz-adv-x="772" 
d="M597 897l-241 -128l-36 70l228 160zM841 897l-241 -128l-35 70l226 160zM97 309l59 420h161l-61 -435q-11 -72 26 -116t110 -44q70 0 115.5 41.5t55.5 113.5l62 440h161l-64 -450q-19 -138 -112 -214q-92 -75 -230 -75q-148 0 -226 87q-76 88 -57 232z" />
    <glyph glyph-name="uhungarumlaut" unicode="&#x171;" horiz-adv-x="627" 
d="M493 709l-241 -128l-36 70l228 160zM737 709l-241 -128l-35 70l226 160zM471 536h152l-75 -536h-134l-5 98h-10q-65 -108 -189 -108q-86 0 -124.5 56t-24.5 155l47 335h153l-44 -311q-17 -110 79 -110q53 0 90 38t45 100z" />
    <glyph glyph-name="Uogonek" unicode="&#x172;" horiz-adv-x="772" 
d="M560 289l62 440h161l-64 -450q-18 -128 -98.5 -202.5t-205.5 -84.5q-62 -23 -62 -66q0 -18 13.5 -28.5t37.5 -10.5q30 0 59 15l-11 -71q-36 -14 -75 -14q-49 1 -79 26.5t-30 67.5q0 51 35 86q-114 21 -170 104q-55 84 -39 208l59 420h161l-61 -435q-11 -72 26 -116
t110 -44q70 0 115.5 41.5t55.5 113.5z" />
    <glyph glyph-name="uogonek" unicode="&#x173;" horiz-adv-x="627" 
d="M444 -74q0 -18 13.5 -28.5t37.5 -10.5q31 0 59 15l-11 -71q-36 -14 -75 -14q-49 1 -79 26.5t-30 67.5q0 65 54 101l-4 86h-10q-65 -108 -189 -108q-86 0 -124.5 56t-24.5 155l47 335h153l-44 -311q-17 -110 79 -110q53 0 90 38t45 100l40 283h152l-75 -536h-8
q-96 -16 -96 -74z" />
    <glyph glyph-name="Wcircumflex" unicode="&#x174;" horiz-adv-x="987" 
d="M467 768l-67 70l159 137h87l120 -137l-77 -70l-94 118zM118 0l-46 729h176l13 -368l1 -185h8l189 553h200l36 -554h7l51 184l114 370h178l-251 -729h-221l-40 517h-7l-187 -517h-221z" />
    <glyph glyph-name="wcircumflex" unicode="&#x175;" horiz-adv-x="794" 
d="M335 580l-67 70l159 137h87l120 -137l-77 -70l-94 118zM104 0l-61 536h146l17 -222l8 -162h7l126 384h169l17 -385h4l53 160l82 225h154l-212 -536h-187l-14 227l-5 116h-6l-37 -115l-76 -228h-185z" />
    <glyph glyph-name="Ycircumflex" unicode="&#x176;" horiz-adv-x="707" 
d="M318 768l-67 70l159 137h87l120 -137l-77 -70l-94 118zM273 279l-207 450h189l57 -151l57 -155h7l202 306h192l-335 -450l-39 -279h-161z" />
    <glyph glyph-name="ycircumflex" unicode="&#x177;" horiz-adv-x="523" 
d="M195 581l-67 70l159 137h87l120 -137l-77 -70l-94 118zM156 34l-128 502h159l35 -205l23 -152h7l63 152l89 205h163l-275 -562q-41 -83 -100 -117t-158 -34q-40 0 -71 7l17 122q28 -5 57 -5q79 0 102 53z" />
    <glyph glyph-name="Ydieresis" unicode="&#x178;" horiz-adv-x="707" 
d="M380 782h-120l21 147h119zM589 782h-119l21 147h119zM273 279l-207 450h189l57 -151l57 -155h7l202 306h192l-335 -450l-39 -279h-161z" />
    <glyph glyph-name="Zacute" unicode="&#x179;" horiz-adv-x="586" 
d="M529 992l56 -99l-247 -128l-40 71zM84 729h545l-18 -131l-408 -459h338l-20 -139h-539l18 132l406 457h-341z" />
    <glyph glyph-name="zacute" unicode="&#x17a;" horiz-adv-x="482" 
d="M470 804l56 -99l-247 -128l-40 71zM283 413h-234l17 123h420l-15 -109l-275 -304h237l-18 -123h-422l15 110z" />
    <glyph glyph-name="Zdotaccent" unicode="&#x17b;" horiz-adv-x="586" 
d="M304 929h119l-20 -147h-120zM84 729h545l-18 -131l-408 -459h338l-20 -139h-539l18 132l406 457h-341z" />
    <glyph glyph-name="zdotaccent" unicode="&#x17c;" horiz-adv-x="482" 
d="M245 740h119l-20 -147h-120zM66 536h420l-15 -109l-275 -304h237l-18 -123h-422l15 110l275 303h-234z" />
    <glyph glyph-name="Zcaron" unicode="&#x17d;" horiz-adv-x="586" 
d="M546 923l-159 -139h-87l-120 139l76 69l94 -119l128 119zM84 729h545l-18 -131l-408 -459h338l-20 -139h-539l18 132l406 457h-341z" />
    <glyph glyph-name="zcaron" unicode="&#x17e;" horiz-adv-x="482" 
d="M487 735l-159 -139h-87l-120 139l76 69l94 -119l128 119zM283 413h-234l17 123h420l-15 -109l-275 -304h237l-18 -123h-422l15 110z" />
    <glyph glyph-name="uni018F" unicode="&#x18f;" horiz-adv-x="717" 
d="M423 739q133 0 206 -75t73 -212q0 -205 -109 -333q-108 -129 -278 -129q-131 0 -203 73.5t-72 204.5q0 36 7 78q8 46 12 59h471q13 95 -21.5 143.5t-111.5 48.5q-57 0 -100.5 -26.5t-63.5 -74.5h-163q39 113 134 178t219 65zM334 128q67 0 113.5 40.5t63.5 113.5h-300
q-15 -154 123 -154z" />
    <glyph glyph-name="florin" unicode="&#x192;" horiz-adv-x="600" 
d="M621 606h-151l-35 -124l-7 -23h106l-16 -123h-123l-62 -222l-33 -121q-13 -48 -42 -83q-36 -46 -123 -46h-158l17 123h151l36 127l62 222h-100l17 123h117l6 23l34 118q17 60 51 94q37 35 113 35h157z" />
    <glyph glyph-name="AEacute" unicode="&#x1fc;" horiz-adv-x="988" 
d="M821 992l56 -99l-247 -128l-40 71zM1004 729l-19 -139h-347l-23 -162h293l-18 -130h-293l-23 -159h347l-19 -139h-509l23 165h-216l-72 -165h-166l333 729h709zM255 290h179l42 300h-89z" />
    <glyph glyph-name="Oslashacute" unicode="&#x1fe;" horiz-adv-x="798" 
d="M658 982l56 -98l-247 -129l-40 72zM773 669l58 -97l-75 -49q21 -60 21 -132q0 -178 -109 -290q-108 -111 -281 -111q-169 0 -263 117l-73 -48l-57 97l76 50q-20 63 -20 131q0 177 107 289q108 112 280 112q169 0 264 -116zM222 337q0 -23 1 -30l340 224q-48 65 -129 65
q-95 0 -153 -73q-59 -73 -59 -186zM605 389q0 3 -2 33l-342 -225q48 -65 131 -65q94 0 153 72q60 72 60 185z" />
    <glyph glyph-name="oslashacute" unicode="&#x1ff;" horiz-adv-x="630" 
d="M548 804l56 -99l-247 -128l-40 71zM596 509l43 -81l-66 -44q14 -47 14 -96q0 -132 -80 -215q-79 -82 -210 -82q-125 0 -195 82l-68 -45l-42 80l66 44q-14 47 -14 96q0 132 80 215t210 83q125 0 194 -82zM332 420q-58 0 -94.5 -48t-37.5 -126l206 137q-28 37 -74 37z
M299 116q58 0 94.5 48.5t37.5 125.5l-207 -136q29 -38 75 -38z" />
    <glyph glyph-name="uni0218" unicode="&#x218;" horiz-adv-x="667" 
d="M25 230h167q-2 -50 34 -81t97 -31q55 0 88.5 24.5t33.5 66.5q0 34 -21 51q-9 9 -23 14q-23 9 -42 13l-86 22q-190 48 -190 199q0 103 79 166q79 64 205 64q120 0 196 -62q77 -62 81 -163h-168q-1 44 -32 71.5t-81 27.5q-46 0 -74.5 -21.5t-28.5 -57.5q0 -29 20.5 -45.5
t69.5 -27.5l97 -23q84 -21 128.5 -74t44.5 -129q0 -109 -83 -177q-82 -67 -218 -67q-133 0 -213 65q-80 66 -81 175zM198 -290l6 42q52 0 59 48l3 18h-59l18 128h124l-20 -134q-13 -102 -131 -102z" />
    <glyph glyph-name="uni0219" unicode="&#x219;" horiz-adv-x="527" 
d="M16 172h146q-1 -34 21.5 -54t62.5 -20q36 0 57 15t21 42q0 37 -55 49l-53 11q-52 13 -74 23q-76 35 -81 128q0 82 63 131q62 49 162 49q97 0 156 -47t61 -124h-146q0 29 -20 46t-54 17q-30 0 -48 -14.5t-18 -38.5q0 -17 11 -28q4 -4 8 -6.5t6 -4t8 -3.5t8 -2.5t10.5 -2.5
t12.5 -3l57 -12q145 -28 145 -150q0 -83 -65 -133t-172 -50q-104 0 -165.5 49t-64.5 133zM142 -288l6 42q52 0 59 48l3 18h-59l18 128h124l-20 -134q-13 -102 -131 -102z" />
    <glyph glyph-name="uni021A" unicode="&#x21a;" horiz-adv-x="574" 
d="M71 729h561l-19 -141h-201l-84 -588h-161l83 588h-198zM220 -182h-59l18 128h124l-20 -134q-13 -102 -131 -102l6 42q52 0 59 48z" />
    <glyph glyph-name="uni021B" unicode="&#x21b;" horiz-adv-x="389" 
d="M28 413l18 123h86l18 132l160 59l-26 -191h115l-18 -123h-115l-32 -229q-4 -38 8 -54t52 -16q24 0 46 5l-17 -118q-39 -9 -86 -9q-91 0 -130 47.5t-27 135.5l34 238h-86zM131 -287l6 42q51 0 59 48l3 18h-59l18 128h124l-20 -134q-13 -102 -131 -102z" />
    <glyph glyph-name="uni0237" unicode="&#x237;" horiz-adv-x="277" 
d="M-28 -175q-35 0 -73 5l17 118q14 -3 30 -3q72 0 83 77l72 514h152l-77 -542q-24 -169 -204 -169z" />
    <glyph glyph-name="circumflex" unicode="&#x2c6;" horiz-adv-x="377" 
d="M146 716l-67 70l159 137h87l120 -137l-77 -70l-94 118z" />
    <glyph glyph-name="caron" unicode="&#x2c7;" horiz-adv-x="377" 
d="M211 731l-120 139l76 69l94 -119l128 119l68 -69l-159 -139h-87z" />
    <glyph glyph-name="breve" unicode="&#x2d8;" horiz-adv-x="354" 
d="M334 885h94q-1 -73 -49 -118q-49 -44 -123 -44t-115 44.5t-39 117.5h93q-2 -36 14.5 -56.5t47.5 -20.5q32 0 53.5 21t23.5 56z" />
    <glyph glyph-name="dotaccent" unicode="&#x2d9;" horiz-adv-x="221" 
d="M236 733h-120l21 147h119z" />
    <glyph glyph-name="ring" unicode="&#x2da;" horiz-adv-x="351" 
d="M383 804q0 -60 -38.5 -96.5t-100.5 -36.5q-54 0 -87 31t-33 83q0 58 38.5 95t100.5 37q54 0 87 -31.5t33 -81.5zM300 800q0 20 -11.5 32t-30.5 12q-23 0 -37 -15.5t-14 -40.5q0 -19 11.5 -31t29.5 -12q23 0 37.5 15t14.5 40z" />
    <glyph glyph-name="ogonek" unicode="&#x2db;" horiz-adv-x="390" 
d="M35 -89q0 60 47.5 96t121.5 34l12 -41q-96 -16 -96 -74q0 -18 13.5 -28.5t37.5 -10.5q31 0 59 15l-11 -71q-36 -14 -75 -14q-49 1 -79 26.5t-30 67.5z" />
    <glyph glyph-name="tilde" unicode="&#x2dc;" horiz-adv-x="350" 
d="M302 723q-29 0 -64 19q-35 20 -58 20q-12 0 -26 -6q-12 -6 -39 -30l-54 41q56 101 136 101q27 0 61 -19q35 -19 59 -19q13 0 25 5t17 9.5t13 13.5t9 10l56 -40q-54 -105 -135 -105z" />
    <glyph glyph-name="hungarumlaut" unicode="&#x2dd;" horiz-adv-x="569" 
d="M384 844l-241 -128l-36 70l228 160zM628 844l-241 -128l-35 70l226 160z" />
    <glyph glyph-name="gravecomb" unicode="&#x300;" 
d="M-13 789l-55 -73l-210 128l77 103z" />
    <glyph glyph-name="acutecomb" unicode="&#x301;" 
d="M24 840l-247 -128l-40 71l231 156z" />
    <glyph glyph-name="uni0302" unicode="&#x302;" 
d="M-231 716l-67 70l159 137h87l120 -137l-77 -70l-94 118z" />
    <glyph glyph-name="tildecomb" unicode="&#x303;" 
d="M-48 723q-29 0 -63 19q-37 20 -59 20q-13 0 -25 -6q-14 -6 -40 -30l-54 41q56 101 136 101q27 0 62 -19q34 -19 58 -19q13 0 25 5t17 9.5t13 13.5t9 10l56 -40q-54 -105 -135 -105z" />
    <glyph glyph-name="uni0304" unicode="&#x304;" 
d="M66 730h-358l16 113h358z" />
    <glyph glyph-name="uni0306" unicode="&#x306;" 
d="M-20 885h94q-1 -73 -49 -118q-49 -44 -123 -44t-115 44.5t-39 117.5h93q-2 -36 14.5 -56.5t47.5 -20.5q32 0 53.5 21t23.5 56z" />
    <glyph glyph-name="uni0307" unicode="&#x307;" 
d="M15 733h-120l21 147h119z" />
    <glyph glyph-name="uni0308" unicode="&#x308;" 
d="M-192 733h-120l21 147h119zM17 733h-119l21 147h119z" />
    <glyph glyph-name="uni030A" unicode="&#x30a;" 
d="M32 804q0 -60 -38.5 -96.5t-100.5 -36.5q-54 0 -87 31t-33 83q0 58 38.5 95t100.5 37q54 0 87 -31.5t33 -81.5zM-51 800q0 20 -11.5 32t-30.5 12q-23 0 -37 -15.5t-14 -40.5q0 -19 11.5 -31t29.5 -12q23 0 37.5 15t14.5 40z" />
    <glyph glyph-name="uni030B" unicode="&#x30b;" 
d="M-185 844l-241 -128l-36 70l228 160zM59 844l-241 -128l-35 70l226 160z" />
    <glyph glyph-name="uni030C" unicode="&#x30c;" 
d="M-166 731l-120 139l76 69l94 -119l128 119l68 -69l-159 -139h-87z" />
    <glyph glyph-name="uni0312" unicode="&#x312;" 
d="M45 984l-5 -43q-52 0 -60 -48l-4 -30h59l-18 -129h-124l21 147q15 103 131 103z" />
    <glyph glyph-name="uni0326" unicode="&#x326;" 
d="M-254 -276l6 42q52 0 59 48l3 18h-59l18 128h124l-20 -134q-13 -102 -131 -102z" />
    <glyph glyph-name="uni0327" unicode="&#x327;" 
d="M-236 11l-36 -37q35 -4 56.5 -24.5t21.5 -57.5q0 -50 -38 -76.5t-87.5 -25.5t-89.5 22l10 72q30 -25 72 -20q40 4 40 38q0 25 -25 32q-27 6 -47 -4l6 39l62 66h58z" />
    <glyph glyph-name="uni0328" unicode="&#x328;" 
d="M-355 -89q0 60 47.5 96t121.5 34l12 -41q-96 -16 -96 -74q0 -18 13.5 -28.5t37.5 -10.5q31 0 59 15l-11 -71q-36 -14 -75 -14q-49 1 -79 26.5t-30 67.5z" />
    <glyph glyph-name="uni0335" unicode="&#x335;" 
d="M-72 297h-403l16 113h403z" />
    <glyph glyph-name="uni0336" unicode="&#x336;" 
 />
    <glyph glyph-name="uni0337" unicode="&#x337;" 
d="M-317 0h-83l376 729h84z" />
    <glyph glyph-name="uni0338" unicode="&#x338;" 
d="M-317 0h-83l376 729h84z" />
    <glyph glyph-name="uni03BC" unicode="&#x3bc;" horiz-adv-x="609" 
d="M134 -173h-137l101 709h152l-47 -336q-6 -44 14 -69t60 -25q45 0 75 29.5t37 77.5l45 323h152l-76 -536h-145l14 65h-10q-31 -75 -123 -75q-56 0 -76 32h-8z" />
    <glyph glyph-name="pi" unicode="&#x3c0;" horiz-adv-x="619" 
d="M579 109l-15 -104q-49 -11 -79 -11q-38 0 -65 9.5t-40 25t-20.5 36t-6 42t3.5 42.5l39 283h-126l-61 -432h-149l61 432h-82l15 104h586l-15 -104h-80l-39 -274q-6 -52 41 -52q19 0 32 3z" />
    <glyph glyph-name="omega" unicode="&#x3c9;" horiz-adv-x="801" 
d="M713 0h-266v243q68 14 109 65t41 123q0 78 -51 128q-50 50 -131 50q-82 0 -132 -50t-50 -130q0 -72 41 -122t110 -64v-243h-268v121h144v38q-83 32 -134 105q-50 76 -50 168q0 139 90 223q92 84 249 84q154 0 246 -83q93 -82 93 -224q0 -93 -51 -168q-49 -73 -133 -105
v-38h143v-121z" />
    <glyph glyph-name="Wgrave" unicode="&#x1e80;" horiz-adv-x="987" 
d="M627 842l-55 -73l-210 128l77 103zM118 0l-46 729h176l13 -368l1 -185h8l189 553h200l36 -554h7l51 184l114 370h178l-251 -729h-221l-40 517h-7l-187 -517h-221z" />
    <glyph glyph-name="wgrave" unicode="&#x1e81;" horiz-adv-x="794" 
d="M496 654l-55 -73l-210 128l77 103zM104 0l-61 536h146l17 -222l8 -162h7l126 384h169l17 -385h4l53 160l82 225h154l-212 -536h-187l-14 227l-5 116h-6l-37 -115l-76 -228h-185z" />
    <glyph glyph-name="Wacute" unicode="&#x1e82;" horiz-adv-x="987" 
d="M816 893l-247 -128l-40 71l231 156zM118 0l-46 729h176l13 -368l1 -185h8l189 553h200l36 -554h7l51 184l114 370h178l-251 -729h-221l-40 517h-7l-187 -517h-221z" />
    <glyph glyph-name="wacute" unicode="&#x1e83;" horiz-adv-x="794" 
d="M685 705l-247 -128l-40 71l231 156zM104 0l-61 536h146l17 -222l8 -162h7l126 384h169l17 -385h4l53 160l82 225h154l-212 -536h-187l-14 227l-5 116h-6l-37 -115l-76 -228h-185z" />
    <glyph glyph-name="Wdieresis" unicode="&#x1e84;" horiz-adv-x="987" 
d="M529 782h-120l21 147h119zM738 782h-119l21 147h119zM118 0l-46 729h176l13 -368l1 -185h8l189 553h200l36 -554h7l51 184l114 370h178l-251 -729h-221l-40 517h-7l-187 -517h-221z" />
    <glyph glyph-name="wdieresis" unicode="&#x1e85;" horiz-adv-x="794" 
d="M397 593h-120l21 147h119zM606 593h-119l21 147h119zM104 0l-61 536h146l17 -222l8 -162h7l126 384h169l17 -385h4l53 160l82 225h154l-212 -536h-187l-14 227l-5 116h-6l-37 -115l-76 -228h-185z" />
    <glyph glyph-name="Ygrave" unicode="&#x1ef2;" horiz-adv-x="707" 
d="M478 842l-55 -73l-210 128l77 103zM273 279l-207 450h189l57 -151l57 -155h7l202 306h192l-335 -450l-39 -279h-161z" />
    <glyph glyph-name="ygrave" unicode="&#x1ef3;" horiz-adv-x="523" 
d="M356 655l-55 -73l-210 128l77 103zM156 34l-128 502h159l35 -205l23 -152h7l63 152l89 205h163l-275 -562q-41 -83 -100 -117t-158 -34q-40 0 -71 7l17 122q28 -5 57 -5q79 0 102 53z" />
    <glyph glyph-name="endash" unicode="&#x2013;" horiz-adv-x="650" 
d="M592 258h-537l11 84h537z" />
    <glyph glyph-name="emdash" unicode="&#x2014;" horiz-adv-x="846" 
d="M788 258h-733l11 84h733z" />
    <glyph glyph-name="quoteleft" unicode="&#x2018;" horiz-adv-x="231" 
d="M263 754l-8 -56q-48 0 -71 -19.5t-29 -60.5l-4 -28h74l-23 -162h-148l24 174q21 152 185 152z" />
    <glyph glyph-name="quoteright" unicode="&#x2019;" horiz-adv-x="230" 
d="M57 418l8 56q49 0 72 19.5t28 60.5l4 28h-73l23 162h148l-25 -174q-21 -152 -185 -152z" />
    <glyph glyph-name="quotesinglbase" unicode="&#x201a;" horiz-adv-x="231" 
d="M-25 -164l8 55q89 0 100 81l4 28h-73l23 161h148l-25 -173q-21 -152 -185 -152z" />
    <glyph glyph-name="quotedblleft" unicode="&#x201c;" horiz-adv-x="437" 
d="M265 754l-8 -56q-48 0 -71 -19.5t-29 -60.5l-4 -28h74l-23 -162h-148l24 174q23 152 185 152zM468 754l-7 -56q-49 0 -72 -19.5t-29 -60.5l-4 -28h74l-23 -162h-148l24 174q23 152 185 152z" />
    <glyph glyph-name="quotedblright" unicode="&#x201d;" horiz-adv-x="441" 
d="M62 418l7 56q49 0 72 19.5t29 60.5l4 28h-74l23 162h148l-24 -174q-23 -152 -185 -152zM270 418l8 56q49 0 72 19.5t28 60.5l4 28h-73l23 162h147l-24 -174q-21 -152 -185 -152z" />
    <glyph glyph-name="quotedblbase" unicode="&#x201e;" horiz-adv-x="447" 
d="M-23 -164l8 55q48 0 71 20t29 61l4 28h-73l22 161h148l-24 -173q-21 -152 -185 -152zM192 -164l8 55q90 0 100 81l4 28h-73l23 161h147l-24 -173q-21 -152 -185 -152z" />
    <glyph glyph-name="dagger" unicode="&#x2020;" horiz-adv-x="427" 
d="M330 728l-48 -341h139l-13 -93h-139l-20 -139h-103l19 139h-139l13 93h139l48 341h104z" />
    <glyph glyph-name="daggerdbl" unicode="&#x2021;" horiz-adv-x="427" 
d="M449 593l-12 -92h-139l-16 -114h139l-13 -93h-139l-20 -139h-103l19 139h-139l13 93h139l16 114h-138l12 92h139l19 135h104l-19 -135h138z" />
    <glyph glyph-name="bullet" unicode="&#x2022;" horiz-adv-x="393" 
d="M48 252q0 73 50 126q51 53 122 53q57 0 92 -36.5t35 -93.5q0 -72 -50 -124q-49 -51 -120 -51q-58 0 -93.5 35t-35.5 91z" />
    <glyph glyph-name="ellipsis" unicode="&#x2026;" horiz-adv-x="775" 
d="M174 0h-148l23 164h148zM423 0h-147l23 164h147zM674 0h-148l23 164h148z" />
    <glyph glyph-name="perthousand" unicode="&#x2030;" horiz-adv-x="1310" 
d="M90 525q0 89 60 151t148 62q72 0 115.5 -41.5t43.5 -110.5q0 -91 -61 -152q-62 -62 -149 -62q-71 0 -114 42t-43 111zM222 0h-77l565 729h78zM191 538q0 -34 18 -55t50 -21q40 0 68.5 32.5t28.5 79.5q0 33 -19 53.5t-51 20.5q-40 0 -67.5 -31.5t-27.5 -78.5zM468 143
q0 89 60 151q62 62 149 62q72 0 114.5 -41.5t42.5 -110.5q0 -91 -61 -152q-60 -62 -147 -62q-71 0 -114.5 42t-43.5 111zM878 143q0 90 61 151q62 62 149 62q72 0 114.5 -42t42.5 -111q0 -90 -61 -151q-60 -62 -147 -62q-72 0 -115.5 42t-43.5 111zM568 157q0 -35 19 -56
t52 -21q40 0 68 33t28 79q0 34 -19.5 54.5t-50.5 20.5q-41 0 -69 -32t-28 -78zM979 157q0 -34 19 -55.5t51 -21.5q40 0 68 33t28 79q0 34 -19 54.5t-51 20.5q-41 0 -68.5 -32t-27.5 -78z" />
    <glyph glyph-name="guilsinglleft" unicode="&#x2039;" horiz-adv-x="320" 
d="M120 58l-89 216l150 214h130l-140 -214l80 -216h-131z" />
    <glyph glyph-name="guilsinglright" unicode="&#x203a;" horiz-adv-x="320" 
d="M203 488l87 -214l-148 -216h-132l139 216l-78 214h132z" />
    <glyph glyph-name="fraction" unicode="&#x2044;" horiz-adv-x="247" 
d="M-69 -46h-117l527 814h117z" />
    <glyph glyph-name="uni2070" unicode="&#x2070;" horiz-adv-x="496" 
d="M251 295q-87 0 -132 55.5t-45 156.5q0 161 72 261q72 101 187 101q86 0 131 -55t45 -156q0 -160 -72 -262q-72 -101 -186 -101zM264 398q54 0 88 73q34 72 34 190q0 107 -67 107q-55 0 -89 -73q-33 -72 -33 -188q0 -109 67 -109z" />
    <glyph glyph-name="uni2074" unicode="&#x2074;" horiz-adv-x="491" 
d="M484 862l-49 -355h67l-13 -97h-68l-16 -110h-117l16 110h-259l13 91l252 361h174zM352 756l-174 -249h139z" />
    <glyph glyph-name="uni2075" unicode="&#x2075;" horiz-adv-x="478" 
d="M328 678q74 0 117 -42.5t43 -114.5q0 -99 -68 -164t-170 -65q-92 0 -140.5 51t-37.5 133h119q-5 -36 14.5 -58.5t58.5 -22.5q44 0 73 30.5t29 76.5q0 34 -21 56t-56 22q-29 0 -52 -13.5t-35 -35.5h-112l62 331h348l-14 -102h-245l-20 -109l4 -2q40 29 103 29z" />
    <glyph glyph-name="uni2076" unicode="&#x2076;" horiz-adv-x="484" 
d="M254 293q-88 0 -133.5 54t-45.5 155q0 166 72 266q72 101 191 101q80 0 125.5 -40t43.5 -107h-120q-4 49 -66 49q-102 0 -115 -151h5q42 57 124 57q69 0 110.5 -41.5t41.5 -111.5q0 -100 -66 -166q-67 -65 -167 -65zM271 395q41 0 68.5 32.5t27.5 79.5q0 34 -19 54
t-50 20q-42 0 -70 -32.5t-28 -79.5q0 -34 19 -54t52 -20z" />
    <glyph glyph-name="uni2077" unicode="&#x2077;" horiz-adv-x="436" 
d="M165 667h-94l27 195h404l-12 -85q-91 -102 -168 -233q-75 -125 -112 -244h-127q32 111 104 234q70 121 160 226h-169z" />
    <glyph glyph-name="uni2078" unicode="&#x2078;" horiz-adv-x="474" 
d="M56 427q0 50 26.5 90t72.5 61l1 7q-64 30 -64 104q0 80 63 130q65 50 167 50q86 0 135.5 -36.5t49.5 -97.5q0 -49 -27 -90t-73 -60l-1 -7q63 -32 63 -105q0 -82 -64 -131q-64 -50 -166 -50q-86 0 -134.5 36.5t-48.5 98.5zM213 687q0 -26 20.5 -42t54.5 -16q41 0 67.5 22
t26.5 57q0 27 -20 43.5t-55 16.5q-41 0 -67.5 -23t-26.5 -58zM179 453q0 -28 20.5 -43.5t55.5 -15.5q41 0 67.5 22.5t26.5 57.5q0 28 -20.5 44t-54.5 16q-41 0 -68 -23t-27 -58z" />
    <glyph glyph-name="uni2079" unicode="&#x2079;" horiz-adv-x="480" 
d="M233 293q-77 0 -123 40t-45 108h120q1 -23 19 -36.5t46 -13.5q50 0 79.5 39.5t35.5 112.5h-5q-44 -57 -125 -57q-69 0 -110 41t-41 111q0 100 65 165q66 66 167 66q88 0 133.5 -54.5t45.5 -155.5q0 -166 -71 -267q-70 -99 -191 -99zM273 581q41 0 69 32.5t28 79.5
q0 34 -19 54t-52 20q-41 0 -68.5 -32t-27.5 -79q0 -35 19 -55t51 -20z" />
    <glyph glyph-name="uni2080" unicode="&#x2080;" horiz-adv-x="496" 
d="M195 -105q-87 0 -132 55.5t-45 156.5q0 161 72 261q72 101 187 101q86 0 131 -55t45 -156q0 -160 -72 -261q-72 -102 -186 -102zM208 -2q54 0 88 73q34 72 34 190q0 107 -67 107q-55 0 -89 -73q-33 -72 -33 -188q0 -109 67 -109z" />
    <glyph glyph-name="uni2081" unicode="&#x2081;" horiz-adv-x="349" 
d="M160 273h-145l12 90h24q54 0 93.5 27.5t48.5 71.5h110l-79 -562h-117z" />
    <glyph glyph-name="uni2082" unicode="&#x2082;" horiz-adv-x="456" 
d="M143 -1l78 4h164l-14 -103h-381l3 19q9 54 36 99q16 27 39 51.5t37 36t47 36.5q6 5 9 7q7 5 30 21t30.5 21.5t24.5 19.5t23.5 22.5t16 22t13 27.5t3.5 29q0 26 -17.5 41t-46.5 15q-37 0 -61 -23t-27 -63h-118q13 86 74 136.5t150 50.5q78 0 124 -39t46 -105
q0 -100 -80 -167q-34 -30 -72 -54q-107 -70 -131 -105z" />
    <glyph glyph-name="uni2083" unicode="&#x2083;" horiz-adv-x="472" 
d="M192 -108q-91 0 -139 49q-47 50 -34 129h120q-7 -35 12.5 -55.5t58.5 -20.5q40 0 66 25t26 63q0 59 -79 59h-56l13 94h46q44 0 70.5 21.5t26.5 57.5q0 25 -18 39.5t-47 14.5q-37 0 -62 -20.5t-28 -54.5h-119q7 78 70 127q62 49 156 49q78 0 125 -35t47 -95
q0 -47 -25.5 -84.5t-70.5 -57.5l-1 -5q72 -30 72 -110q0 -82 -66 -136q-64 -54 -164 -54z" />
    <glyph glyph-name="uni2084" unicode="&#x2084;" horiz-adv-x="492" 
d="M428 462l-50 -355h67l-13 -97h-68l-15 -110h-117l15 110h-259l13 91l252 361h175zM296 358l-175 -251h140z" />
    <glyph glyph-name="uni2085" unicode="&#x2085;" horiz-adv-x="478" 
d="M272 278q74 0 117 -42.5t43 -114.5q0 -99 -68 -164t-170 -65q-92 0 -140.5 51t-37.5 133h119q-5 -36 14.5 -58.5t58.5 -22.5q44 0 73 30.5t29 76.5q0 34 -21 56t-56 22q-29 0 -52 -13.5t-35 -35.5h-112l62 331h348l-14 -102h-245l-20 -109l4 -2q40 29 103 29z" />
    <glyph glyph-name="uni2086" unicode="&#x2086;" horiz-adv-x="484" 
d="M198 -107q-88 0 -133.5 54t-45.5 155q0 165 72 266t191 101q80 0 125.5 -40t43.5 -107h-120q-4 49 -66 49q-103 0 -115 -151h5q42 57 124 57q69 0 110.5 -41.5t41.5 -111.5q0 -100 -66 -165q-66 -66 -167 -66zM215 -5q41 0 68.5 32.5t27.5 79.5q0 34 -19 54t-50 20
q-42 0 -70 -32.5t-28 -79.5q0 -34 19 -54t52 -20z" />
    <glyph glyph-name="uni2087" unicode="&#x2087;" horiz-adv-x="436" 
d="M109 267h-94l27 195h404l-12 -85q-91 -104 -168 -233q-78 -130 -112 -244h-127q31 109 103 233q72 123 161 227h-169z" />
    <glyph glyph-name="uni2088" unicode="&#x2088;" horiz-adv-x="474" 
d="M0 27q0 51 26 91t73 60l1 7q-64 30 -64 104q0 81 63 130q65 50 167 50q86 0 135.5 -36.5t49.5 -97.5q0 -49 -27 -90t-73 -60l-1 -7q63 -32 63 -105q0 -82 -64 -131q-64 -50 -166 -50q-86 0 -134.5 36.5t-48.5 98.5zM157 287q0 -26 20.5 -42t54.5 -16q41 0 67.5 22
t26.5 57q0 27 -20 43.5t-55 16.5q-41 0 -67.5 -23t-26.5 -58zM123 53q0 -28 20.5 -43.5t55.5 -15.5q41 0 67.5 22.5t26.5 57.5q0 28 -20.5 44t-54.5 16q-41 0 -68 -23t-27 -58z" />
    <glyph glyph-name="uni2089" unicode="&#x2089;" horiz-adv-x="480" 
d="M177 -107q-77 0 -123 40t-45 108h120q1 -23 19 -36.5t46 -13.5q101 0 115 152h-5q-44 -57 -125 -57q-69 0 -110 41t-41 111q0 100 65 165q66 66 167 66q88 0 133.5 -54.5t45.5 -155.5q0 -166 -71 -266q-70 -100 -191 -100zM217 181q41 0 69 32.5t28 79.5q0 34 -19 54
t-52 20q-41 0 -68.5 -32t-27.5 -79q0 -35 19 -55t51 -20z" />
    <glyph glyph-name="uni20A6" unicode="&#x20a6;" horiz-adv-x="744" 
d="M676 412h86l-13 -96h-87l-44 -316h-178l-105 316h-93l-1 -5l-43 -311h-153l44 316h-81l14 96h81l44 317h178l104 -317h95l1 10l43 307h152zM263 514l-11 -102h52l-34 102h-7zM495 212h7l11 104h-52z" />
    <glyph glyph-name="uni20A9" unicode="&#x20a9;" horiz-adv-x="925" 
d="M797 729h171l-114 -331h82l-14 -96h-100l-104 -302h-213l-4 302h-74l-95 -302h-217l-14 302h-89l14 96h71l-15 331h164l-1 -331h78l104 331h195l2 -331h76zM491 503l-33 -105h41l-1 105h-7zM244 167h6l43 135h-49v-135zM625 165h7l40 137h-48z" />
    <glyph glyph-name="uni20AA" unicode="&#x20aa;" horiz-adv-x="794" 
d="M457 520l12 86h-220l-85 -606h-125l102 729h340q66 0 94 -29.5t17 -100.5l-11 -79l-49 -347h-124zM573 124l85 605h125l-102 -729h-340q-52 0 -85 21q-38 27 -26 109l12 80l47 347h125l-48 -347l-13 -86h220z" />
    <glyph glyph-name="Euro" unicode="&#x20ac;" horiz-adv-x="740" 
d="M382 132q98 0 141 90h168q-35 -108 -123 -169q-89 -62 -207 -62q-117 0 -187.5 64.5t-82.5 180.5h-70l14 98h56q3 34 9 67h-55l13 97h71q46 112 135.5 176t203.5 64q118 0 189 -63q69 -61 74 -167h-169q-14 90 -114 90q-96 0 -151 -100h206l-25 -97h-216q-6 -31 -9 -67
h209l-29 -98h-175q23 -104 124 -104z" />
    <glyph glyph-name="uni20B2" unicode="&#x20b2;" horiz-adv-x="719" 
d="M325 295l16 112l331 -1l-4 -46q-10 -138 -97 -217q-85 -76 -218 -81l-11 -81h-97l13 91q-96 23 -152 97t-56 181q0 138 80 230q81 92 213 104l12 80h97l-12 -83q90 -14 147.5 -70t65.5 -138h-165q-8 35 -39 56.5t-73 21.5q-74 0 -117.5 -54.5t-43.5 -142.5
q0 -74 37 -116.5t98 -42.5q54 0 93 27.5t49 72.5h-167z" />
    <glyph glyph-name="uni20B8" unicode="&#x20b8;" horiz-adv-x="572" 
d="M54 606l18 123h559l-18 -123h-559zM228 403h-202l18 133h559l-18 -133h-205l-57 -403h-152z" />
    <glyph glyph-name="uni20B9" unicode="&#x20b9;" horiz-adv-x="607" 
d="M611 729l-14 -99h-117q27 -45 28 -105h74l-14 -99h-76q-20 -58 -64 -100t-104 -59l-1 -7q29 -8 43.5 -26t32.5 -66l4 -11l60 -157h-170l-62 161q-15 40 -33 55q-17 16 -64 16h-109l18 124h159q87 0 123 70h-273l14 99h271q-8 32 -35 49.5t-67 17.5h-159l5 38l14 99h516z
" />
    <glyph glyph-name="uni20BA" unicode="&#x20ba;" horiz-adv-x="651" 
d="M478 345h157q-50 -159 -170 -251q-121 -92 -288 -93l-124 -1l36 254l-88 -32l17 117l88 33l10 75l-88 -32l17 116l89 35l22 163h152l-15 -104l146 57l-17 -117l-145 -59l-10 -75l145 58l-17 -117l-145 -58l-24 -167q83 1 150.5 54.5t101.5 143.5z" />
    <glyph glyph-name="uni20BC" unicode="&#x20bc;" horiz-adv-x="766" 
d="M158 0h-153l46 326q41 288 307 315l12 88h154l-12 -88q260 -29 220 -315l-46 -326h-152l45 326q21 151 -87 167l-70 -493h-154l70 493q-114 -13 -135 -167z" />
    <glyph glyph-name="uni20BD" unicode="&#x20bd;" horiz-adv-x="657" 
d="M369 244l-116 1l-7 -50h165l-13 -97h-166l-14 -98h-152l14 98h-83l14 97h83l7 50h-83l15 106h83l53 378h269q106 0 168 -57q62 -56 62 -149q0 -121 -85 -200t-214 -79zM506 504q0 42 -30 65t-82 23h-92l-31 -218h92q65 0 104 35.5t39 94.5z" />
    <glyph glyph-name="uni20BF" unicode="&#x20bf;" horiz-adv-x="729" 
d="M531 385q78 -33 78 -125q0 -81 -54 -139q-53 -59 -148 -70l-10 -70h-97l10 68h-59l-10 -68h-96l10 68h-69l91 648h69l9 67h96l-10 -67h60l9 67h97l-10 -71q65 -10 100 -48.5t35 -96.5q0 -53 -27 -96t-74 -67zM295 436h82q40 0 66 25.5t26 63.5q0 27 -19 42t-52 15h-83z
M256 163h85q48 0 77.5 26.5t29.5 69.5q0 32 -24 48.5t-60 16.5h-84z" />
    <glyph glyph-name="uni2105" unicode="&#x2105;" horiz-adv-x="996" 
d="M326 492h109q-6 -62 -55 -100t-124 -38q-84 0 -134.5 51.5t-50.5 139.5q0 89 52 141.5t139 52.5q70 0 117.5 -38t55.5 -100h-110q-5 23 -23 35.5t-43 12.5q-78 0 -78 -104q0 -103 78 -103q26 0 44.5 14t22.5 36zM324 0h-95l463 729h95zM766 378q84 0 135 -54
q52 -52 52 -138q0 -87 -52 -139q-51 -53 -135 -53t-137 53q-51 52 -51 139q0 86 51 139q53 53 137 53zM687 186q0 -47 21.5 -75t57.5 -28t57 28.5t21 75.5q0 46 -21.5 74t-57.5 28t-57 -28.5t-21 -74.5z" />
    <glyph glyph-name="uni2116" unicode="&#x2116;" horiz-adv-x="1454" 
d="M861 478q0 113 76 185q77 72 192 72q105 0 170 -64q66 -63 66 -167q0 -113 -76 -185q-77 -71 -191 -71q-104 0 -171 63q-66 63 -66 167zM201 0h-161l102 729h186l224 -503h7l19 209l42 294h160l-102 -729h-187l-222 499h-7l-19 -201zM1017 476q0 -47 23.5 -75.5
t60.5 -28.5q48 0 78 37.5t30 97.5q0 47 -23.5 75.5t-60.5 28.5q-47 0 -77.5 -37.5t-30.5 -97.5zM851 1l17 123h387l-17 -123h-387z" />
    <glyph glyph-name="uni2117" unicode="&#x2117;" horiz-adv-x="906" 
d="M464 -77q-112 0 -207.5 52t-154.5 148q-59 98 -59 220q0 121 59 219q59 96 154.5 148.5t207.5 52.5t206 -52q96 -52 154 -148q59 -97 59 -217q0 -183 -124 -303q-123 -120 -295 -120zM842 346q0 166 -111 273q-109 108 -267 108t-270 -109q-111 -108 -111 -275t112 -275
q113 -108 269 -108q158 0 267 109q111 109 111 277zM411 128h-94v424h220q69 0 110 -38.5t41 -102.5q0 -63 -41 -102.5t-110 -39.5h-126v-141zM409 473v-128h116q32 0 50 18t18 48q0 27 -19.5 44.5t-48.5 17.5h-116z" />
    <glyph glyph-name="trademark" unicode="&#x2122;" horiz-adv-x="652" 
d="M78 734h238l-9 -62h-86l-35 -250h-69l35 250h-83zM499 562l99 172h85l-44 -312h-67l19 128l16 87h-3l-126 -210l-66 210h-5l-6 -87l-19 -128h-66l44 312h85l51 -172h3z" />
    <glyph glyph-name="estimated" unicode="&#x212e;" horiz-adv-x="771" 
d="M695 230h46q-27 -108 -120 -174q-94 -65 -222 -65q-163 0 -260 102q-97 101 -97 266q0 166 100 267q100 103 266 103q151 0 242 -88q92 -87 99 -246q1 -14 1 -57h-600v-185q35 -59 102 -91.5t149 -32.5q108 0 187 55q81 56 107 146zM150 561v-187h493v205
q-89 111 -249 108q-159 -3 -244 -126z" />
    <glyph glyph-name="oneeighth" unicode="&#x215b;" horiz-adv-x="951" 
d="M246 -46h-117l527 814h117zM190 565h-124l11 80h45q43 0 68.5 22.5t25.5 58.5v3h98l-67 -473h-100zM564 109q0 42 23.5 77t62.5 51v6q-54 25 -54 90q0 68 53 110q53 43 140 43q71 0 111.5 -31t40.5 -83q0 -42 -23 -77.5t-61 -51.5l-1 -6q53 -26 53 -87q0 -71 -53 -114
t-139 -43q-72 0 -112.5 31t-40.5 85zM698 331q0 -23 16.5 -36t44.5 -13q33 0 54.5 19t21.5 48q0 23 -16.5 36.5t-43.5 13.5q-34 0 -55.5 -19.5t-21.5 -48.5zM670 129q0 -23 16 -36t44 -13q33 0 55 19.5t22 48.5q0 23 -16 37t-44 14q-33 0 -55 -20t-22 -50z" />
    <glyph glyph-name="threeeighths" unicode="&#x215c;" horiz-adv-x="1012" 
d="M317 -46h-117l527 814h117zM191 248q-74 0 -113 41.5t-29 107.5h101q-4 -27 11 -44.5t40 -17.5q30 0 50.5 19.5t20.5 48.5q0 23 -16.5 36t-41.5 13h-41l12 90h30q33 0 54 18t21 47q0 20 -13 30.5t-35 10.5q-27 0 -45.5 -17t-21.5 -45h-101q8 67 57.5 108t125.5 41
q64 0 101 -29.5t37 -79.5q0 -86 -81 -120v-5q60 -26 60 -92q0 -68 -53 -115q-52 -46 -130 -46zM635 109q0 42 23.5 77t62.5 51v6q-54 25 -54 90q0 68 53 110q53 43 140 43q71 0 111.5 -31t40.5 -83q0 -42 -23 -77.5t-61 -51.5l-1 -6q53 -26 53 -87q0 -71 -53 -114t-139 -43
q-72 0 -112.5 31t-40.5 85zM769 331q0 -23 16.5 -36t44.5 -13q33 0 54.5 19t21.5 48q0 23 -16.5 36.5t-43.5 13.5q-34 0 -55.5 -19.5t-21.5 -48.5zM741 129q0 -23 16 -36t44 -13q33 0 55 19.5t22 48.5q0 23 -16 37t-44 14q-33 0 -55 -20t-22 -50z" />
    <glyph glyph-name="fiveeighths" unicode="&#x215d;" horiz-adv-x="1035" 
d="M340 -46h-117l527 814h117zM58 402h102q-4 -28 12.5 -47.5t45.5 -19.5q34 0 57.5 26.5t23.5 63.5q0 29 -16.5 47t-44.5 18q-48 0 -69 -41h-95l39 280h302l-12 -88h-203l-7 -51l-8 -38l2 -3q29 26 83 26q60 0 96 -36.5t36 -96.5q0 -84 -57 -139q-55 -55 -140 -55
q-75 0 -116 42.5t-31 111.5zM658 109q0 42 23.5 77t62.5 51v6q-54 25 -54 90q0 68 53 110q53 43 140 43q71 0 111.5 -31t40.5 -83q0 -42 -23 -77.5t-61 -51.5l-1 -6q53 -26 53 -87q0 -71 -53 -114t-139 -43q-72 0 -112.5 31t-40.5 85zM792 331q0 -23 16.5 -36t44.5 -13
q33 0 54.5 19t21.5 48q0 23 -16.5 36.5t-43.5 13.5q-34 0 -55.5 -19.5t-21.5 -48.5zM764 129q0 -23 16 -36t44 -13q33 0 55 19.5t22 48.5q0 23 -16 37t-44 14q-33 0 -55 -20t-22 -50z" />
    <glyph glyph-name="seveneighths" unicode="&#x215e;" horiz-adv-x="931" 
d="M109 -46l527 814h117l-527 -814h-117zM158 256h-99q30 106 85.5 207.5t128.5 177.5h-130l-9 -69h-76l9 69l12 88h327l-9 -72q-171 -171 -239 -401zM837 243l-1 -6q53 -26 53 -87q0 -71 -53 -114t-139 -43q-72 0 -112.5 31t-40.5 85q0 42 23.5 77t62.5 51v6q-54 25 -54 90
q0 68 53 110q53 43 140 43q71 0 111.5 -31t40.5 -83q0 -42 -23 -77.5t-61 -51.5zM739 282q33 0 54.5 19t21.5 48q0 23 -16.5 36.5t-43.5 13.5q-34 0 -55.5 -19.5t-21.5 -48.5q0 -23 16.5 -36t44.5 -13zM710 80q33 0 55 19.5t22 48.5q0 23 -16 37t-44 14q-33 0 -55 -20
t-22 -50q0 -23 16 -36t44 -13z" />
    <glyph glyph-name="arrowleft" unicode="&#x2190;" horiz-adv-x="862" 
d="M763 314v-84h-598l169 -230h-106l-203 273l203 268h106l-169 -227h598z" />
    <glyph glyph-name="arrowup" unicode="&#x2191;" horiz-adv-x="669" 
d="M574 380v-102l-208 185v-383h208v-81h-501v81h208v383l-208 -185v102l251 219z" />
    <glyph glyph-name="arrowright" unicode="&#x2192;" horiz-adv-x="896" 
d="M700 230h-598v84h598l-169 227h105l204 -268l-204 -273h-105z" />
    <glyph glyph-name="arrowdown" unicode="&#x2193;" horiz-adv-x="669" 
d="M598 548v-81h-208v-383l208 185v-103l-250 -218l-251 218v103l208 -185v383h-208v81h501z" />
    <glyph glyph-name="arrowboth" unicode="&#x2194;" horiz-adv-x="1039" 
d="M267 98l-215 259l215 256h99l-178 -215h688l-176 215h99l214 -256l-214 -259h-99l176 216h-688l178 -216h-99z" />
    <glyph glyph-name="arrowupdn" unicode="&#x2195;" horiz-adv-x="750" 
d="M385 -141l-299 248v101l258 -215v633l-258 -214v100l299 248l297 -248v-100l-258 214v-633l258 215v-101z" />
    <glyph glyph-name="uni2196" unicode="&#x2196;" horiz-adv-x="772" 
d="M692 65l-61 -65l-403 417v-332h-85v478h466v-86h-322z" />
    <glyph glyph-name="uni2197" unicode="&#x2197;" horiz-adv-x="693" 
d="M542 401l-390 -401l-60 63l391 403h-321v82h466v-476h-86v329z" />
    <glyph glyph-name="uni2198" unicode="&#x2198;" horiz-adv-x="760" 
d="M624 0l-468 -1v88h324l-393 399l60 62l392 -405l1 337h85z" />
    <glyph glyph-name="uni2199" unicode="&#x2199;" horiz-adv-x="691" 
d="M596 0h-468v480h87v-337l392 405l58 -61l-394 -400h325v-87z" />
    <glyph glyph-name="uni21A9" unicode="&#x21a9;" horiz-adv-x="861" 
d="M847 498q0 -107 -67.5 -170.5t-190.5 -63.5h-360v-124l-186 169l186 171v-125h360q77 0 123 37.5t46 105.5q0 64 -43.5 103t-115.5 39h-13v89h13q109 0 178 -66q70 -64 70 -165z" />
    <glyph glyph-name="uni21AA" unicode="&#x21aa;" horiz-adv-x="914" 
d="M79 498q0 101 70 165q71 66 179 66h13v-89h-13q-72 0 -115 -39t-43 -103q0 -68 45 -105.5t123 -37.5h362v125l184 -171l-184 -169v124h-362q-124 0 -191.5 63t-67.5 171z" />
    <glyph glyph-name="uni21B2" unicode="&#x21b2;" horiz-adv-x="732" 
d="M593 355v403h82v-494h-430v-124l-186 169l186 171v-125h348z" />
    <glyph glyph-name="uni21B3" unicode="&#x21b3;" horiz-adv-x="789" 
d="M554 480l184 -171l-184 -169v124h-432v494h83v-403h349v125z" />
    <glyph glyph-name="uni21BA" unicode="&#x21ba;" horiz-adv-x="832" 
d="M423 -12q-142 0 -239 94t-97 236q0 89 43 169.5t123 132.5l44 -54q-137 -89 -137 -248q0 -110 76 -185q77 -74 189 -74q111 0 184 73q74 74 74 179q0 75 -38 134q-39 61 -163 167l-3 -2l5 -68v-137h-67v324h313v-72h-134l-62 5l-3 -3q134 -112 180 -182q45 -67 45 -166
q0 -135 -96 -229q-95 -94 -237 -94z" />
    <glyph glyph-name="uni21BB" unicode="&#x21bb;" horiz-adv-x="861" 
d="M448 -12q-141 0 -236 94q-95 95 -95 229q0 98 46 168q48 72 179 180l-2 3l-65 -5h-133v72h317v-324h-72v137l5 68l-3 2q-123 -105 -162 -166q-37 -58 -37 -135q0 -106 73 -179t185 -73t188 74q76 73 76 185q0 77 -35.5 141.5t-98.5 106.5l42 54q80 -52 123 -136
q43 -82 43 -166q0 -141 -97 -235q-98 -95 -241 -95z" />
    <glyph glyph-name="emptyset" unicode="&#x2205;" horiz-adv-x="778" 
d="M437 738q151 0 246 -96q94 -95 94 -251q0 -178 -109 -290q-108 -111 -280 -111q-149 0 -244 95q-94 95 -94 252q0 177 107 289q108 112 280 112zM434 596q-95 0 -153 -73q-59 -73 -59 -186q0 -33 6 -62l311 282q-43 39 -105 39zM393 132q93 0 152 72q60 72 60 185
q0 36 -7 63l-311 -283q43 -37 106 -37z" />
    <glyph glyph-name="product" unicode="&#x220f;" horiz-adv-x="782" 
d="M131 729h650l-18 -131h-107l-83 -598h-152l83 598h-133l-83 -598h-154l84 598h-105z" />
    <glyph glyph-name="summation" unicode="&#x2211;" horiz-adv-x="600" 
d="M493 -167h-503l20 146l267 288l2 9l-184 306l21 147h503l-21 -151h-205l-115 9l-1 -9l174 -309l-262 -280l-1 -9l122 9h205z" />
    <glyph glyph-name="minus" unicode="&#x2212;" horiz-adv-x="593" 
d="M69 236l18 125h444l-18 -125h-444z" />
    <glyph glyph-name="radical" unicode="&#x221a;" horiz-adv-x="797" 
d="M475 321l209 408h155l-425 -826h-196l-96 431h-91l19 128h201l30 -140l52 -278h7z" />
    <glyph glyph-name="infinity" unicode="&#x221e;" horiz-adv-x="868" 
d="M198 43q-83 0 -135 52t-52 137q0 109 74 189t177 80q118 0 186 -129q104 129 222 129q84 0 135 -55q52 -53 52 -138q0 -109 -74 -188q-74 -77 -176 -77q-123 0 -188 126q-97 -126 -221 -126zM225 178q63 0 140 93q-49 91 -114 91q-41 0 -70 -31.5t-29 -76.5q0 -34 20 -55
t53 -21zM616 178q41 0 70 32t29 77q0 33 -20.5 54t-53.5 21q-64 0 -137 -91q25 -48 51.5 -70.5t60.5 -22.5z" />
    <glyph glyph-name="integral" unicode="&#x222b;" horiz-adv-x="609" 
d="M425 753h159l-18 -123h-134l-12 -87l-66 -472l-12 -82q-7 -49 -33 -85q-31 -43 -114 -43h-158l17 122h134l13 88l66 472l11 81q4 34 18 65q33 64 129 64z" />
    <glyph glyph-name="approxequal" unicode="&#x2248;" horiz-adv-x="538" 
d="M152 348h-70q5 72 42 111t88 39q37 0 83 -27q48 -27 75 -27q51 0 59 56h69q-4 -73 -42.5 -111.5t-91.5 -38.5q-45 0 -95 26t-68 26q-22 0 -35 -16t-14 -38zM124 146h-70q5 72 41.5 110t87.5 38q36 0 84 -27q49 -26 74 -26q51 0 60 55h69q-5 -74 -43 -112t-92 -38
q-45 0 -94 27q-49 28 -69 28q-21 0 -34.5 -16.5t-13.5 -38.5z" />
    <glyph glyph-name="notequal" unicode="&#x2260;" horiz-adv-x="607" 
d="M558 450l-15 -112h-155l-59 -89h201l-15 -110h-258l-70 -106h-105l70 106h-96l16 110h153l59 89h-199l15 112h258l72 108h103l-71 -108h96z" />
    <glyph glyph-name="lessequal" unicode="&#x2264;" horiz-adv-x="564" 
d="M499 306l-20 -144l-411 164l19 135l456 160l-20 -143l-167 -49l-140 -32l-1 -8l125 -31zM475 136l-19 -136h-434l19 136h434z" />
    <glyph glyph-name="greaterequal" unicode="&#x2265;" horiz-adv-x="564" 
d="M512 326l-457 -164l20 144l173 52l135 31l1 8l-132 32l-152 49l20 143l411 -160zM466 0h-434l19 136h434z" />
    <glyph glyph-name="filledbox" unicode="&#x25a0;" horiz-adv-x="1027" 
d="M172 1v728h710v-728h-710z" />
    <glyph glyph-name="uni25A1" unicode="&#x25a1;" horiz-adv-x="943" 
d="M130 0v729h710v-729h-710zM773 662h-574v-594h574v594z" />
    <glyph glyph-name="triagup" unicode="&#x25b2;" horiz-adv-x="926" 
d="M9 0l416 737l417 -737h-833z" />
    <glyph glyph-name="uni25B3" unicode="&#x25b3;" horiz-adv-x="921" 
d="M831 0h-816l407 738zM423 594l-286 -521h573z" />
    <glyph glyph-name="lozenge" unicode="&#x25ca;" horiz-adv-x="2175" 
d="M1049 -10q-135 0 -214 100t-79 268q0 96 28 170.5t76.5 119.5t109.5 68t132 23q120 0 202 -62q82 -61 100 -164h-156q-36 86 -147 86q-90 0 -137 -62t-47 -175q0 -115 46.5 -175t129.5 -60q67 0 109 33t52 92h-162v143h324v-395h-111l-16 119h-35q-15 -61 -70.5 -95
t-134.5 -34zM1551 576q-34 0 -56.5 23t-22.5 59q0 35 22.5 58t56.5 23q35 0 55.5 -22.5t20.5 -58.5q0 -37 -20.5 -59.5t-55.5 -22.5zM1749 576q-34 0 -55 23t-21 59q0 35 21.5 58t54.5 23q36 0 58.5 -23t22.5 -58q0 -36 -22.5 -59t-58.5 -23zM375 0h-271v729h271
q161 0 248.5 -92.5t87.5 -270.5t-88.5 -272t-247.5 -94zM1951 572h-36v126h-38v31h118v-31h-44v-126zM2049 572h-34v157h63l17 -127l23 127h61v-157h-40v135l-17 -135h-52l-21 135v-135zM210 109l26 -26q29 29 52.5 40.5t60.5 11.5h26q32 0 69 15q31 12 52 33q24 24 41 72
t17 108q0 59 -16 106t-39 70q-21 23 -49 36q-37 19 -75 19h-26q-29 0 -52 10q-26 12 -32 17l-29 27l-26 -30q0 -2 7 -9t7 -8q5 -2 20 -27q15 -22 15 -71v-276q-3 -51 -16 -74l-10 -15q-9 -15 -23 -29zM1647 0h-149v491h141l7 -58h27q12 36 49 56t90 20v-147
q-165 16 -165 -148v-214z" />
    <glyph glyph-name="circle" unicode="&#x25cb;" horiz-adv-x="793" 
d="M42 365q0 163 105 268q107 105 263 105q157 0 262 -105q106 -105 106 -268q0 -165 -106 -270q-105 -105 -262 -105q-156 0 -263 105q-105 105 -105 270zM410 53q128 0 213 88q87 89 87 224t-87 222q-85 88 -213 88q-126 0 -213 -88q-86 -88 -86 -222q0 -135 86 -224
q87 -88 213 -88z" />
    <glyph glyph-name="uni25CF" unicode="&#x25cf;" horiz-adv-x="902" 
d="M466 -10q-157 0 -262 107q-105 108 -105 269q0 158 105 265t262 107q155 0 259 -107t104 -265q0 -160 -104 -269q-104 -107 -259 -107z" />
    <glyph glyph-name="uni262E" unicode="&#x262e;" horiz-adv-x="842" 
d="M802 363q0 -167 -104 -273q-104 -104 -264 -104q-159 0 -263 104q-104 106 -104 273q0 166 104 270t263 104t263 -104q105 -103 105 -270zM748 363q0 139 -82 227q-81 89 -207 98v-303l262 -163q27 68 27 141zM408 385v303q-124 -9 -207 -99q-82 -88 -82 -226
q0 -77 27 -141zM408 323l-238 -147q38 -62 100 -98.5t138 -41.5v287zM459 323v-287q76 5 138 41.5t100 98.5z" />
    <glyph glyph-name="uni2639" unicode="&#x2639;" horiz-adv-x="843" 
d="M64 365q0 160 107 267q107 106 264 106t263 -106q108 -106 108 -267q0 -163 -108 -269q-106 -106 -263 -106t-264 106q-107 107 -107 269zM117 365q0 -127 80 -219q36 51 100 82t138 31q75 0 140 -30.5t100 -82.5q79 94 79 219q0 140 -94 231q-93 93 -224 93
q-132 0 -226 -93q-93 -92 -93 -231zM305 438q0 51 14 78.5t39 27.5q24 0 38 -29t14 -77q0 -107 -52 -107q-26 0 -39.5 29t-13.5 78zM463 438q0 50 14.5 78t38.5 28q26 0 39.5 -28.5t13.5 -77.5q0 -107 -53 -107q-26 0 -39.5 29t-13.5 78zM234 112q91 -73 202 -73
q112 0 201 73q-26 44 -82 70q-55 27 -119 27q-66 0 -121.5 -27t-80.5 -70z" />
    <glyph glyph-name="smileface" unicode="&#x263a;" horiz-adv-x="843" 
d="M806 365q0 -163 -108 -269q-106 -106 -263 -106t-264 106q-107 107 -107 269q0 160 107 267q107 106 264 106t263 -106q108 -106 108 -267zM436 39q134 0 225 94q93 95 93 232q0 140 -94 231q-93 93 -224 93q-132 0 -226 -93q-93 -92 -93 -231q0 -140 93 -233
q94 -93 226 -93zM358 331q-26 0 -39.5 29t-13.5 78q0 51 14 78.5t39 27.5q24 0 38 -29t14 -77q0 -107 -52 -107zM516 331q-26 0 -39.5 29t-13.5 78q0 50 14.5 78t38.5 28q26 0 39.5 -28.5t13.5 -77.5q0 -107 -53 -107zM595 313v17h107v-17h-27q-13 -85 -81 -138
q-67 -52 -159 -52q-93 0 -160 52q-67 53 -80 138h-24v17h109v-17h-31q11 -64 63 -102.5t124 -38.5q74 0 125 39t62 102h-28z" />
    <glyph glyph-name="uni2708" unicode="&#x2708;" horiz-adv-x="905" 
d="M163 207h-50l35 159l-35 159h50l69 -108l210 12l-99 276h90l144 -239q15 -23 48 -25l59 4q60 4 109 -21t49 -58q0 -35 -49 -60q-49 -24 -109 -20l-59 4q-35 -2 -48 -24l-144 -240h-90l99 276l-210 14z" />
    <glyph glyph-name="uni2713" unicode="&#x2713;" horiz-adv-x="838" 
d="M327 225l377 364l85 -100l-470 -450l-233 272l94 85z" />
    <glyph glyph-name="uni2714" unicode="&#x2714;" horiz-adv-x="1254" 
d="M1117 727l109 -188q-242 -120 -462 -285q-222 -166 -351 -322q-142 198 -342 371l125 132q142 -115 231 -261q122 161 301 302q185 145 389 251z" />
    <glyph glyph-name="uni2776" unicode="&#x2776;" horiz-adv-x="901" 
d="M467 -9q-163 0 -276 110q-111 111 -111 274q0 162 111 273q113 111 276 111q162 0 273 -112q111 -111 111 -272q0 -163 -111 -274q-112 -110 -273 -110zM451 427v-272h84v420h-78v-2q0 -35 -23 -58t-63 -23h-35v-65h115z" />
    <glyph glyph-name="uni2777" unicode="&#x2777;" horiz-adv-x="902" 
d="M468 -9q-165 0 -276 111t-111 274q0 162 111 273t276 111q163 0 274 -111t111 -273q0 -163 -111 -274t-274 -111zM332 169v-14h274v74h-116l-58 -4q16 31 79 78q46 34 72 68.5t26 82.5q0 57 -37.5 92.5t-99.5 35.5q-64 0 -105.5 -37t-42.5 -98l84 -5q-2 30 14 48.5
t45 18.5q39 0 53 -34t-16 -72q-12 -14 -29 -28.5t-39.5 -32t-35.5 -28.5q-68 -59 -68 -145z" />
    <glyph glyph-name="uni2778" unicode="&#x2778;" horiz-adv-x="902" 
d="M467 -9q-163 0 -276 110q-111 111 -111 274q0 162 112 273q112 112 275 112q162 0 273 -112q112 -111 112 -273t-112 -273q-111 -111 -273 -111zM467 149q63 0 103 34.5t40 89.5q0 34 -17.5 61t-49.5 39v4q28 12 43 36.5t15 52.5q0 52 -37.5 83.5t-98.5 31.5
q-68 0 -106.5 -36t-36.5 -96h84q2 60 57 60q24 0 38 -13t14 -36q0 -24 -16.5 -39t-46.5 -15h-27v-72h37q27 0 45 -15.5t18 -40.5t-16.5 -40.5t-43.5 -15.5q-26 0 -42 17t-15 43h-84q-1 -61 38.5 -97t104.5 -36z" />
    <glyph glyph-name="uni2779" unicode="&#x2779;" horiz-adv-x="904" 
d="M468 -9q-164 0 -276 111q-111 111 -111 274q0 162 111 273q112 111 276 111q162 0 275 -111q112 -111 112 -273q0 -163 -112 -274q-113 -111 -275 -111zM487 246v-91h82v91h45v72h-45v257h-126l-143 -261v-68h187zM487 318h-95l95 172v-172z" />
    <glyph glyph-name="uni277A" unicode="&#x277a;" horiz-adv-x="902" 
d="M467 -9q-163 0 -276 110q-111 111 -111 274q0 162 112 273q112 112 275 112q162 0 273 -112q112 -111 112 -273t-112 -273q-111 -111 -273 -111zM471 150q69 0 110 40t41 106q0 63 -37 103t-97 40q-51 0 -73 -25l-3 2l2 37v51h183v71h-264v-244h79q13 36 59 36
q29 0 48 -21t19 -53q0 -31 -18.5 -51t-47.5 -20t-46.5 18t-17.5 46h-84q-1 -60 40 -98t107 -38z" />
    <glyph glyph-name="uni277B" unicode="&#x277b;" horiz-adv-x="922" 
d="M476 -28q-167 0 -283 113q-114 114 -114 281q0 166 114 280q115 114 283 114q166 0 280 -114q115 -114 115 -280q0 -167 -115 -281q-115 -113 -280 -113zM475 149q67 0 109 40.5t42 105.5q0 62 -36 102t-93 40q-29 0 -54.5 -13t-37.5 -34h-3q0 120 75 120q49 0 59 -42h83
q-5 51 -43.5 82t-95.5 31q-78 0 -120.5 -58.5t-42.5 -161.5q0 -100 41.5 -156t116.5 -56zM477 222q-30 0 -48 20t-18 51t18.5 52.5t47.5 21.5t47 -20.5t18 -52.5t-18 -52t-47 -20z" />
    <glyph glyph-name="uni277C" unicode="&#x277c;" horiz-adv-x="904" 
d="M468 -9q-164 0 -276 111t-112 273t112 273q112 112 276 112q163 0 274 -112q112 -111 112 -273t-112 -273t-274 -111zM374 155h88q35 203 158 363v57h-287v-140h62v69h122q-54 -72 -92 -164t-51 -185z" />
    <glyph glyph-name="uni277D" unicode="&#x277d;" horiz-adv-x="902" 
d="M467 -9q-163 0 -275 111t-112 273t112 273q112 112 275 112q162 0 273 -112q112 -111 112 -273t-112 -273q-111 -111 -273 -111zM466 149q68 0 109.5 32t41.5 86q0 30 -17 57t-44 39v5q29 12 45 38t16 57q0 54 -41 86t-110 32q-68 0 -109.5 -32t-41.5 -86q0 -68 61 -95
v-5q-28 -13 -44.5 -39t-16.5 -56q0 -54 41 -86.5t110 -32.5zM466 399q-29 0 -47 15t-18 40q0 24 17.5 39.5t47.5 15.5q29 0 47 -15t18 -40q0 -24 -17.5 -39.5t-47.5 -15.5zM466 222q-30 0 -47.5 14.5t-17.5 40.5q0 24 17.5 39.5t47.5 15.5q28 0 46.5 -15.5t18.5 -39.5
t-17.5 -39.5t-47.5 -15.5z" />
    <glyph glyph-name="uni277E" unicode="&#x277e;" horiz-adv-x="904" 
d="M81 376q0 161 112 272q112 112 275 112t275 -112q112 -111 112 -272q0 -164 -112 -275q-113 -110 -275 -110t-275 111q-112 111 -112 274zM468 149q78 0 120 58t42 162q0 101 -40.5 156.5t-117.5 55.5q-67 0 -109 -40.5t-42 -105.5q0 -62 36.5 -101t93.5 -39q66 0 92 45
h3q0 -120 -75 -120q-21 0 -37.5 11t-21.5 31h-84q7 -51 45 -82t95 -31zM472 509q29 0 46.5 -20.5t17.5 -51.5q0 -32 -17.5 -53t-46.5 -21q-30 0 -48.5 20t-18.5 53t18.5 53t48.5 20z" />
    <glyph glyph-name="uni2780" unicode="&#x2780;" horiz-adv-x="901" 
d="M467 -9q-163 0 -276 110q-111 111 -111 274q0 162 111 273q113 111 276 111q162 0 273 -112q111 -111 111 -272q0 -163 -111 -274q-112 -110 -273 -110zM467 35q143 0 241 99q99 99 99 241q0 143 -99 242q-98 99 -241 99q-145 0 -244 -99t-99 -242q0 -142 99 -241
t244 -99zM451 155v272h-115v65h35q40 0 63 23t23 58v2h78v-420h-84z" />
    <glyph glyph-name="uni2781" unicode="&#x2781;" horiz-adv-x="902" 
d="M468 760q163 0 274 -111t111 -273q0 -163 -111 -274t-274 -111q-165 0 -276 111t-111 274q0 162 111 273t276 111zM468 35q144 0 242 99q99 99 99 242t-99 242q-98 99 -242 99q-146 0 -245 -99q-98 -100 -98 -242t98 -242q99 -99 245 -99zM609 454q0 -65 -52 -112
q-14 -14 -43.5 -37t-51 -42.5t-30.5 -36.5l58 3h116v-74h-274v14q0 34 11 64t32.5 54t38 38t42.5 33q68 51 68 95q0 26 -15.5 41t-41.5 15q-29 0 -45 -18.5t-14 -48.5l-84 5q1 61 42.5 98t105.5 37q62 0 99.5 -35.5t37.5 -92.5z" />
    <glyph glyph-name="uni2782" unicode="&#x2782;" horiz-adv-x="902" 
d="M467 -9q-163 0 -276 110q-111 111 -111 274q0 162 112 273q112 112 275 112q162 0 273 -112q112 -111 112 -273t-112 -273q-111 -111 -273 -111zM467 35q145 0 242 99q99 99 99 241q0 143 -99 242q-97 99 -242 99t-244 -99q-99 -97 -99 -242q0 -142 99 -241t244 -99z
M467 149q-65 0 -104.5 36t-38.5 97h84q-1 -26 15 -43t42 -17q27 0 43.5 15.5t16.5 40.5t-18 40.5t-45 15.5h-37v72h27q30 0 46.5 15t16.5 39q0 23 -14 36t-38 13q-55 0 -57 -60h-84q-2 60 36.5 96t106.5 36q61 0 98.5 -31.5t37.5 -83.5q0 -28 -15 -52.5t-43 -36.5v-4
q32 -12 49.5 -39t17.5 -61q0 -55 -40 -89.5t-103 -34.5z" />
    <glyph glyph-name="uni2783" unicode="&#x2783;" horiz-adv-x="904" 
d="M81 376q0 162 111 273q112 111 276 111q162 0 275 -111q112 -111 112 -273q0 -163 -112 -274q-113 -111 -275 -111q-164 0 -276 111q-111 111 -111 274zM468 35q144 0 242 99q99 99 99 242t-99 242q-98 99 -242 99q-145 0 -244 -99t-99 -242t99 -242t244 -99zM487 246
h-187v68l143 261h126v-257h45v-72h-45v-91h-82v91zM487 490l-95 -172h95v172z" />
    <glyph glyph-name="uni2784" unicode="&#x2784;" horiz-adv-x="902" 
d="M467 -9q-163 0 -276 110q-111 111 -111 274q0 162 112 273q112 112 275 112q162 0 273 -112q112 -111 112 -273t-112 -273q-111 -111 -273 -111zM467 35q145 0 242 99q99 99 99 241q0 144 -99 243q-97 99 -242 99t-244 -99t-99 -243q0 -142 99 -241t244 -99zM471 150
q-66 0 -107 38t-40 98h84q0 -28 17.5 -46t46.5 -18t47.5 20t18.5 51q0 32 -19 53t-48 21q-46 0 -59 -36h-79v244h264v-71h-183v-51l-2 -37l3 -2q22 25 73 25q60 0 97 -40t37 -103q0 -66 -41 -106t-110 -40z" />
    <glyph glyph-name="uni2785" unicode="&#x2785;" horiz-adv-x="922" 
d="M79 366q0 166 114 280q115 114 283 114q166 0 280 -114q115 -114 115 -280q0 -167 -115 -281q-115 -113 -280 -113q-167 0 -283 113q-114 114 -114 281zM125 366q0 -145 101 -248q101 -101 250 -101q147 0 248 101q101 103 101 248q0 147 -101 248q-100 102 -248 102
q-150 0 -250 -102q-101 -101 -101 -248zM317 361q0 103 42.5 161.5t120.5 58.5q57 0 95.5 -31t43.5 -82h-83q-10 42 -59 42q-75 0 -75 -120h3q12 21 37.5 34t54.5 13q57 0 93 -40t36 -102q0 -65 -42 -105.5t-109 -40.5q-75 0 -116.5 56t-41.5 156zM477 222q29 0 47 20t18 52
t-18 52.5t-47 20.5t-47.5 -21.5t-18.5 -52.5t18 -51t48 -20z" />
    <glyph glyph-name="uni2786" unicode="&#x2786;" horiz-adv-x="904" 
d="M468 -9q-164 0 -276 111t-112 273t112 273q112 112 276 112q163 0 274 -112q112 -111 112 -273t-112 -273t-274 -111zM468 35q144 0 241 99q99 99 99 241q0 143 -98 243q-98 99 -242 99q-146 0 -245 -99t-99 -243q0 -142 99 -241t245 -99zM462 155h-88q13 93 51 185
t92 164h-122v-69h-62v140h287v-57q-123 -160 -158 -363z" />
    <glyph glyph-name="uni2787" unicode="&#x2787;" horiz-adv-x="902" 
d="M467 -9q-163 0 -275 111t-112 273t112 273q112 112 275 112q162 0 273 -112q112 -111 112 -273t-112 -273q-111 -111 -273 -111zM467 35q143 0 241 99q99 99 99 241q0 143 -99 242q-97 100 -241 100q-145 0 -244 -99t-99 -243q0 -142 99 -241t244 -99zM466 149
q-69 0 -110 32.5t-41 86.5q0 30 16.5 56t44.5 39v5q-61 27 -61 95q0 54 41.5 86t109.5 32q69 0 110 -32t41 -86q0 -31 -16 -57t-45 -38v-5q27 -12 44 -39t17 -57q0 -54 -41.5 -86t-109.5 -32zM466 399q30 0 47.5 15.5t17.5 39.5q0 25 -18 40t-47 15q-30 0 -47.5 -15.5
t-17.5 -39.5q0 -25 18 -40t47 -15zM466 222q30 0 47.5 15.5t17.5 39.5t-18.5 39.5t-46.5 15.5q-30 0 -47.5 -15.5t-17.5 -39.5q0 -26 17.5 -40.5t47.5 -14.5z" />
    <glyph glyph-name="uni2788" unicode="&#x2788;" horiz-adv-x="904" 
d="M81 376q0 161 112 272q112 112 275 112t275 -112q112 -111 112 -272q0 -164 -112 -275q-113 -110 -275 -110t-275 111q-112 111 -112 274zM468 35q144 0 242 99q99 99 99 242q0 144 -99 241q-98 99 -242 99q-145 0 -244 -99q-99 -97 -99 -241q0 -143 99 -242t244 -99z
M468 149q-57 0 -95 31t-45 82h84q5 -20 21.5 -31t37.5 -11q75 0 75 120h-3q-26 -45 -92 -45q-57 0 -93.5 39t-36.5 101q0 65 42 105.5t109 40.5q77 0 117.5 -55.5t40.5 -156.5q0 -104 -42 -162t-120 -58zM472 509q-30 0 -48.5 -20t-18.5 -53t18.5 -53t48.5 -20q29 0 46.5 21
t17.5 53q0 31 -17.5 51.5t-46.5 20.5z" />
    <glyph glyph-name="uniECE0" unicode="&#xece0;" horiz-adv-x="1112" 
d="M213 314v-254l-95 -70v739h363l-79 -100h-189v-217h141q18 142 120 233q104 92 242 92q90 0 170 -43.5t131 -120.5l-80 -59q-36 57 -97 91t-126 34q-110 0 -187 -81q-76 -80 -76 -193q0 -112 77 -194q76 -81 186 -81q66 0 126 33.5t96 90.5l81 -59q-52 -78 -131.5 -121.5
t-169.5 -43.5q-136 0 -240 92q-102 90 -122 232h-141zM713 242q31 0 59 17.5t45 47.5l78 -60q-30 -48 -77.5 -75t-102.5 -27q-88 0 -152 64q-63 65 -63 156q0 89 63 153q65 65 152 65q54 0 102.5 -27.5t77.5 -75.5l-78 -60q-16 30 -44 47.5t-60 17.5q-48 0 -81 -35
q-33 -34 -33 -85q0 -49 33 -87q33 -36 81 -36z" />
    <glyph glyph-name="uniEFCC" unicode="&#xefcc;" horiz-adv-x="1241" 
d="M487 734q20 0 38 -2v-112q-23 3 -37 3q-114 0 -184 -73q-70 -71 -70 -189q0 -116 70 -189q70 -72 184 -72q24 0 37 3v-113q-24 -2 -38 -2q-162 0 -262 103t-100 270t100 270t262 103zM750 366q0 166 96 267q98 101 260 101q20 0 44 -2v-112q-24 3 -40 3
q-97 0 -162.5 -52.5t-82.5 -151.5h209v-106h-209q16 -103 84 -154q68 -50 161 -50q30 0 40 3v-113q-26 -2 -44 -2q-163 0 -260 100q-96 101 -96 269z" />
    <glyph glyph-name="uniF8FF" unicode="&#xf8ff;" horiz-adv-x="663" 
d="M442 632q-16 -21 -43 -36.5t-48 -19.5l-18 -3l-1 10q-6 57 31 104q22 29 51 46.5t48 18.5l18 2q-1 -2 1 -19q2 -16 -8.5 -47t-30.5 -56zM224 0q-44 0 -89 53q-45 56 -73 134q-28 80 -28 156q0 104 53 166q54 62 124 62q28 0 70 -17t56 -17q15 0 56 18q42 18 80 18
q51 0 87 -23t49 -45l5 -8q-21 -16 -28 -22q-52 -48 -52 -120q0 -58 29.5 -96t59.5 -53l10 -5q-5 -19 -28 -70q-14 -33 -33 -61q-20 -29 -48 -49t-55 -20q-19 0 -59 14q-38 15 -62 15q-26 0 -66 -15t-58 -15z" />
    <glyph glyph-name="NULL" 
 />
    <glyph glyph-name="CR.001" horiz-adv-x="333" 
 />
    <glyph glyph-name="uni00A40301" horiz-adv-x="418" 
d="M579 893l-247 -128l-40 71l231 156zM411 729l-71 -507q-34 -231 -266 -231q-58 0 -96 9l19 131q28 -5 63 -5q56 0 85 28.5t37 86.5l68 488h161z" />
    <glyph glyph-name="G.ss01" horiz-adv-x="794" 
d="M402 -10q-158 0 -256 96q-96 98 -96 258q0 172 106 282q106 112 268 112q137 0 228 -70q92 -71 107 -185h-173q-14 53 -58 83.5t-104 30.5q-90 0 -147 -69q-56 -70 -56 -180q0 -102 50 -161t134 -59q67 0 117.5 38t63.5 99h-193l19 127h357v-27q0 -169 -102 -272
q-100 -103 -265 -103z" />
    <glyph glyph-name="Gbreve.ss01" horiz-adv-x="794" 
d="M559 937h94q-1 -73 -49 -118q-49 -44 -123 -44t-115 44.5t-39 117.5h93q-2 -36 14.5 -56.5t47.5 -20.5q32 0 53.5 21t23.5 56zM402 -10q-158 0 -256 96q-96 98 -96 258q0 172 106 282q106 112 268 112q137 0 228 -70q92 -71 107 -185h-173q-14 53 -58 83.5t-104 30.5
q-90 0 -147 -69q-56 -70 -56 -180q0 -102 50 -161t134 -59q67 0 117.5 38t63.5 99h-193l19 127h357v-27q0 -169 -102 -272q-100 -103 -265 -103z" />
    <glyph glyph-name="uni0122.ss01" horiz-adv-x="794" 
d="M402 -10q-158 0 -256 96q-96 98 -96 258q0 172 106 282q106 112 268 112q137 0 228 -70q92 -71 107 -185h-173q-14 53 -58 83.5t-104 30.5q-90 0 -147 -69q-56 -70 -56 -180q0 -102 50 -161t134 -59q67 0 117.5 38t63.5 99h-193l19 127h357v-27q0 -169 -102 -272
q-100 -103 -265 -103zM256 -290l6 42q52 0 59 48l3 18h-59l18 128h124l-20 -134q-13 -102 -131 -102z" />
    <glyph glyph-name="Gdotaccent.ss01" horiz-adv-x="794" 
d="M534 782h-120l21 147h119zM402 -10q-158 0 -256 96q-96 98 -96 258q0 172 106 282q106 112 268 112q137 0 228 -70q92 -71 107 -185h-173q-14 53 -58 83.5t-104 30.5q-90 0 -147 -69q-56 -70 -56 -180q0 -102 50 -161t134 -59q67 0 117.5 38t63.5 99h-193l19 127h357v-27
q0 -169 -102 -272q-100 -103 -265 -103z" />
    <glyph glyph-name="R.ss02" horiz-adv-x="715" 
d="M201 0h-161l102 729h332q108 0 170 -54.5t62 -148.5q0 -82 -46 -149q-45 -67 -118 -91l-1 -7q41 -17 60 -97l49 -182h-177l-49 179q-11 40 -30 54t-64 14h-95zM283 585l-30 -207h142q65 0 101 32t36 89q0 41 -28 63.5t-77 22.5h-144z" />
    <glyph glyph-name="Racute.ss02" horiz-adv-x="715" 
d="M688 893l-247 -128l-40 71l231 156zM201 0h-161l102 729h332q108 0 170 -54.5t62 -148.5q0 -82 -46 -149q-45 -67 -118 -91l-1 -7q41 -17 60 -97l49 -182h-177l-49 179q-11 40 -30 54t-64 14h-95zM283 585l-30 -207h142q65 0 101 32t36 89q0 41 -28 63.5t-77 22.5h-144z
" />
    <glyph glyph-name="Rcaron.ss02" horiz-adv-x="715" 
d="M403 784l-120 139l76 69l94 -119l128 119l68 -69l-159 -139h-87zM201 0h-161l102 729h332q108 0 170 -54.5t62 -148.5q0 -82 -46 -149q-45 -67 -118 -91l-1 -7q41 -17 60 -97l49 -182h-177l-49 179q-11 40 -30 54t-64 14h-95zM283 585l-30 -207h142q65 0 101 32t36 89
q0 41 -28 63.5t-77 22.5h-144z" />
    <glyph glyph-name="uni0156.ss02" horiz-adv-x="715" 
d="M201 0h-161l102 729h332q108 0 170 -54.5t62 -148.5q0 -82 -46 -149q-45 -67 -118 -91l-1 -7q41 -17 60 -97l49 -182h-177l-49 179q-11 40 -30 54t-64 14h-95zM283 585l-30 -207h142q65 0 101 32t36 89q0 41 -28 63.5t-77 22.5h-144zM241 -290l6 42q51 0 59 48l3 18h-59
l18 128h124l-20 -134q-14 -102 -131 -102z" />
    <glyph glyph-name="i.loclTRK" horiz-adv-x="276" 
d="M260 589h-148l25 147h149zM177 0h-153l75 536h153z" />
    <glyph glyph-name="uni006A0301" horiz-adv-x="277" 
d="M427 700l-247 -128l-40 71l231 156zM-28 -175q-35 0 -73 5l17 118q14 -3 30 -3q72 0 83 77l72 514h152l-77 -542q-24 -169 -204 -169z" />
    <glyph glyph-name="germandbls.alt01" horiz-adv-x="695" 
d="M201 0h-161l68 490q16 117 97 182q79 66 199 66q94 0 159 -44.5t83 -120.5l-118 -146q60 -17 93.5 -61.5t33.5 -107.5q0 -115 -86 -187q-86 -71 -226 -71h-78l19 139h47q74 0 116.5 30t42.5 92q0 92 -169 85l162 213q-11 21 -38.5 33.5t-58.5 12.5q-45 0 -76.5 -28.5
t-37.5 -73.5z" />
    <glyph glyph-name="a.ss01" horiz-adv-x="655" 
d="M498 536h133l-75 -536h-152l13 94h-9q-56 -104 -181 -104q-92 0 -145 66t-53 179q0 139 71 225t181 86q64 0 110.5 -30t63.5 -82h9zM438 249l2 17q10 70 -20.5 112.5t-89.5 42.5q-63 0 -103 -49t-40 -124q0 -63 29 -98t81 -35q55 0 93.5 36.5t47.5 97.5z" />
    <glyph glyph-name="aacute.ss01" horiz-adv-x="655" 
d="M580 705l-247 -128l-40 71l231 156zM498 536h133l-75 -536h-152l13 94h-9q-56 -104 -181 -104q-92 0 -145 66t-53 179q0 139 71 225t181 86q64 0 110.5 -30t63.5 -82h9zM438 249l2 17q10 70 -20.5 112.5t-89.5 42.5q-63 0 -103 -49t-40 -124q0 -63 29 -98t81 -35
q55 0 93.5 36.5t47.5 97.5z" />
    <glyph glyph-name="abreve.ss01" horiz-adv-x="655" 
d="M424 749h94q-1 -73 -49 -118q-49 -44 -123 -44t-115 44.5t-39 117.5h93q-2 -36 14.5 -56.5t47.5 -20.5q32 0 53.5 21t23.5 56zM498 536h133l-75 -536h-152l13 94h-9q-56 -104 -181 -104q-92 0 -145 66t-53 179q0 139 71 225t181 86q64 0 110.5 -30t63.5 -82h9zM438 249
l2 17q10 70 -20.5 112.5t-89.5 42.5q-63 0 -103 -49t-40 -124q0 -63 29 -98t81 -35q55 0 93.5 36.5t47.5 97.5z" />
    <glyph glyph-name="acircumflex.ss01" horiz-adv-x="655" 
d="M231 580l-67 70l159 137h87l120 -137l-77 -70l-94 118zM498 536h133l-75 -536h-152l13 94h-9q-56 -104 -181 -104q-92 0 -145 66t-53 179q0 139 71 225t181 86q64 0 110.5 -30t63.5 -82h9zM438 249l2 17q10 70 -20.5 112.5t-89.5 42.5q-63 0 -103 -49t-40 -124
q0 -63 29 -98t81 -35q55 0 93.5 36.5t47.5 97.5z" />
    <glyph glyph-name="adieresis.ss01" horiz-adv-x="655" 
d="M293 593h-120l21 147h119zM502 593h-119l21 147h119zM498 536h133l-75 -536h-152l13 94h-9q-56 -104 -181 -104q-92 0 -145 66t-53 179q0 139 71 225t181 86q64 0 110.5 -30t63.5 -82h9zM438 249l2 17q10 70 -20.5 112.5t-89.5 42.5q-63 0 -103 -49t-40 -124
q0 -63 29 -98t81 -35q55 0 93.5 36.5t47.5 97.5z" />
    <glyph glyph-name="agrave.ss01" horiz-adv-x="655" 
d="M391 654l-55 -73l-210 128l77 103zM498 536h133l-75 -536h-152l13 94h-9q-56 -104 -181 -104q-92 0 -145 66t-53 179q0 139 71 225t181 86q64 0 110.5 -30t63.5 -82h9zM438 249l2 17q10 70 -20.5 112.5t-89.5 42.5q-63 0 -103 -49t-40 -124q0 -63 29 -98t81 -35
q55 0 93.5 36.5t47.5 97.5z" />
    <glyph glyph-name="amacron.ss01" horiz-adv-x="655" 
d="M516 593h-358l16 113h358zM498 536h133l-75 -536h-152l13 94h-9q-56 -104 -181 -104q-92 0 -145 66t-53 179q0 139 71 225t181 86q64 0 110.5 -30t63.5 -82h9zM438 249l2 17q10 70 -20.5 112.5t-89.5 42.5q-63 0 -103 -49t-40 -124q0 -63 29 -98t81 -35q55 0 93.5 36.5
t47.5 97.5z" />
    <glyph glyph-name="aogonek.ss01" horiz-adv-x="655" 
d="M556 0h-27q-96 -16 -96 -74q0 -18 13.5 -28.5t37.5 -10.5q30 0 59 15l-11 -71q-36 -14 -75 -14q-49 1 -79 26.5t-30 67.5q0 69 58 103l11 80h-9q-56 -104 -181 -104q-92 0 -145 66t-53 179q0 139 71 225t181 86q64 0 110.5 -30t63.5 -82h9l34 102h133zM297 115
q55 0 93.5 36.5t47.5 97.5l2 17q10 70 -20.5 112.5t-89.5 42.5q-63 0 -103 -49t-40 -124q0 -63 29 -98t81 -35z" />
    <glyph glyph-name="aring.ss01" horiz-adv-x="655" 
d="M464 434l34 102h133l-75 -536h-152l13 94h-9q-56 -104 -181 -104q-92 0 -145 66t-53 179q0 125 57 207q58 84 150 100q-20 29 -20 67q0 59 38.5 96t100.5 37q54 0 86.5 -31.5t32.5 -82.5q0 -85 -73 -119q39 -30 54 -75h9zM350 669q-23 0 -37 -15.5t-14 -40.5
q0 -19 11.5 -31t29.5 -12q23 0 37 15t14 40q0 20 -11 32t-30 12zM438 249l2 17q10 70 -20.5 112.5t-89.5 42.5q-63 0 -103 -49t-40 -124q0 -63 29 -98t81 -35q55 0 93.5 36.5t47.5 97.5z" />
    <glyph glyph-name="atilde.ss01" horiz-adv-x="655" 
d="M401 587q-29 0 -64 19q-35 20 -58 20q-13 0 -26 -6q-12 -6 -39 -30l-54 41q56 101 136 101q27 0 61 -19q35 -19 59 -19q13 0 25 5t17 9.5t13 13.5t9 10l56 -40q-54 -105 -135 -105zM498 536h133l-75 -536h-152l13 94h-9q-56 -104 -181 -104q-92 0 -145 66t-53 179
q0 139 71 225t181 86q64 0 110.5 -30t63.5 -82h9zM438 249l2 17q10 70 -20.5 112.5t-89.5 42.5q-63 0 -103 -49t-40 -124q0 -63 29 -98t81 -35q55 0 93.5 36.5t47.5 97.5z" />
    <glyph glyph-name="g.ss01" horiz-adv-x="640" 
d="M14 -4h151q5 -29 33.5 -46.5t70.5 -17.5q51 0 84.5 26t39.5 70l13 95h-8q-26 -48 -72 -73.5t-103 -25.5q-88 0 -140 61.5t-52 168.5q0 126 69 209t177 83q63 0 110 -29.5t65 -78.5h9l23 98h131l-67 -491q-15 -109 -88.5 -165.5t-192.5 -56.5q-103 0 -174 48
q-68 46 -79 125zM426 259l2 14q9 65 -21.5 104.5t-87.5 39.5q-58 0 -95 -42t-37 -109q0 -56 29.5 -89t79.5 -33q51 0 87 31t43 84z" />
    <glyph glyph-name="gbreve.ss01" horiz-adv-x="640" 
d="M399 750h94q-1 -73 -49 -118q-49 -44 -123 -44t-115 44.5t-39 117.5h93q-2 -36 14.5 -56.5t47.5 -20.5q32 0 53.5 21t23.5 56zM14 -4h151q5 -29 33.5 -46.5t70.5 -17.5q51 0 84.5 26t39.5 70l13 95h-8q-26 -48 -72 -73.5t-103 -25.5q-88 0 -140 61.5t-52 168.5
q0 126 69 209t177 83q63 0 110 -29.5t65 -78.5h9l23 98h131l-67 -491q-15 -109 -88.5 -165.5t-192.5 -56.5q-103 0 -174 48q-68 46 -79 125zM426 259l2 14q9 65 -21.5 104.5t-87.5 39.5q-58 0 -95 -42t-37 -109q0 -56 29.5 -89t79.5 -33q51 0 87 31t43 84z" />
    <glyph glyph-name="uni0123.ss01" horiz-adv-x="640" 
d="M403 849l-5 -43q-52 0 -60 -48l-4 -30h59l-18 -129h-124l21 147q15 103 131 103zM14 -4h151q5 -29 33.5 -46.5t70.5 -17.5q51 0 84.5 26t39.5 70l13 95h-8q-26 -48 -72 -73.5t-103 -25.5q-88 0 -140 61.5t-52 168.5q0 126 69 209t177 83q63 0 110 -29.5t65 -78.5h9l23 98
h131l-67 -491q-15 -109 -88.5 -165.5t-192.5 -56.5q-103 0 -174 48q-68 46 -79 125zM426 259l2 14q9 65 -21.5 104.5t-87.5 39.5q-58 0 -95 -42t-37 -109q0 -56 29.5 -89t79.5 -33q51 0 87 31t43 84z" />
    <glyph glyph-name="gdotaccent.ss01" horiz-adv-x="640" 
d="M373 594h-120l21 147h119zM14 -4h151q5 -29 33.5 -46.5t70.5 -17.5q51 0 84.5 26t39.5 70l13 95h-8q-26 -48 -72 -73.5t-103 -25.5q-88 0 -140 61.5t-52 168.5q0 126 69 209t177 83q63 0 110 -29.5t65 -78.5h9l23 98h131l-67 -491q-15 -109 -88.5 -165.5t-192.5 -56.5
q-103 0 -174 48q-68 46 -79 125zM426 259l2 14q9 65 -21.5 104.5t-87.5 39.5q-58 0 -95 -42t-37 -109q0 -56 29.5 -89t79.5 -33q51 0 87 31t43 84z" />
    <glyph glyph-name="a.ss02" horiz-adv-x="568" 
d="M9 132q0 84 62 137t164 53h138l4 26q6 38 -15.5 60.5t-61.5 22.5q-39 0 -65.5 -18.5t-31.5 -49.5h-148q13 85 80.5 134t169.5 49q120 0 178 -62.5t42 -175.5l-44 -308h-133l-3 88h-9q-50 -98 -173 -98q-70 0 -112 39t-42 103zM167 159q0 -54 68 -54q50 0 84 29.5t40 77.5
l2 15h-103q-43 0 -67 -18t-24 -50z" />
    <glyph glyph-name="aacute.ss02" horiz-adv-x="568" 
d="M573 705l-247 -128l-40 71l231 156zM9 132q0 84 62 137t164 53h138l4 26q6 38 -15.5 60.5t-61.5 22.5q-39 0 -65.5 -18.5t-31.5 -49.5h-148q13 85 80.5 134t169.5 49q120 0 178 -62.5t42 -175.5l-44 -308h-133l-3 88h-9q-50 -98 -173 -98q-70 0 -112 39t-42 103zM167 159
q0 -54 68 -54q50 0 84 29.5t40 77.5l2 15h-103q-43 0 -67 -18t-24 -50z" />
    <glyph glyph-name="abreve.ss02" horiz-adv-x="568" 
d="M417 749h94q-1 -73 -49 -118q-49 -44 -123 -44t-115 44.5t-39 117.5h93q-2 -36 14.5 -56.5t47.5 -20.5q32 0 53.5 21t23.5 56zM9 132q0 84 62 137t164 53h138l4 26q6 38 -15.5 60.5t-61.5 22.5q-39 0 -65.5 -18.5t-31.5 -49.5h-148q13 85 80.5 134t169.5 49
q120 0 178 -62.5t42 -175.5l-44 -308h-133l-3 88h-9q-50 -98 -173 -98q-70 0 -112 39t-42 103zM167 159q0 -54 68 -54q50 0 84 29.5t40 77.5l2 15h-103q-43 0 -67 -18t-24 -50z" />
    <glyph glyph-name="acircumflex.ss02" horiz-adv-x="568" 
d="M224 580l-67 70l159 137h87l120 -137l-77 -70l-94 118zM9 132q0 84 62 137t164 53h138l4 26q6 38 -15.5 60.5t-61.5 22.5q-39 0 -65.5 -18.5t-31.5 -49.5h-148q13 85 80.5 134t169.5 49q120 0 178 -62.5t42 -175.5l-44 -308h-133l-3 88h-9q-50 -98 -173 -98
q-70 0 -112 39t-42 103zM167 159q0 -54 68 -54q50 0 84 29.5t40 77.5l2 15h-103q-43 0 -67 -18t-24 -50z" />
    <glyph glyph-name="adieresis.ss02" horiz-adv-x="568" 
d="M286 593h-120l21 147h119zM495 593h-119l21 147h119zM9 132q0 84 62 137t164 53h138l4 26q6 38 -15.5 60.5t-61.5 22.5q-39 0 -65.5 -18.5t-31.5 -49.5h-148q13 85 80.5 134t169.5 49q120 0 178 -62.5t42 -175.5l-44 -308h-133l-3 88h-9q-50 -98 -173 -98q-70 0 -112 39
t-42 103zM167 159q0 -54 68 -54q50 0 84 29.5t40 77.5l2 15h-103q-43 0 -67 -18t-24 -50z" />
    <glyph glyph-name="agrave.ss02" horiz-adv-x="568" 
d="M384 654l-55 -73l-210 128l77 103zM9 132q0 84 62 137t164 53h138l4 26q6 38 -15.5 60.5t-61.5 22.5q-39 0 -65.5 -18.5t-31.5 -49.5h-148q13 85 80.5 134t169.5 49q120 0 178 -62.5t42 -175.5l-44 -308h-133l-3 88h-9q-50 -98 -173 -98q-70 0 -112 39t-42 103zM167 159
q0 -54 68 -54q50 0 84 29.5t40 77.5l2 15h-103q-43 0 -67 -18t-24 -50z" />
    <glyph glyph-name="amacron.ss02" horiz-adv-x="568" 
d="M509 593h-358l16 113h358zM9 132q0 84 62 137t164 53h138l4 26q6 38 -15.5 60.5t-61.5 22.5q-39 0 -65.5 -18.5t-31.5 -49.5h-148q13 85 80.5 134t169.5 49q120 0 178 -62.5t42 -175.5l-44 -308h-133l-3 88h-9q-50 -98 -173 -98q-70 0 -112 39t-42 103zM167 159
q0 -54 68 -54q50 0 84 29.5t40 77.5l2 15h-103q-43 0 -67 -18t-24 -50z" />
    <glyph glyph-name="aogonek.ss02" horiz-adv-x="568" 
d="M481 0h-9q-96 -16 -96 -74q0 -18 13.5 -28.5t37.5 -10.5q31 0 59 15l-11 -71q-36 -14 -75 -14q-49 1 -79 26.5t-30 67.5q0 66 57 102l-3 75h-9q-50 -98 -173 -98q-70 0 -112 39t-42 103q0 84 62 137t164 53h138l4 26q6 38 -15.5 60.5t-61.5 22.5q-39 0 -65.5 -18.5
t-31.5 -49.5h-148q13 85 80.5 134t169.5 49q120 0 178 -62.5t42 -175.5zM235 105q50 0 84 29.5t40 77.5l2 15h-103q-43 0 -67 -18t-24 -50q0 -54 68 -54z" />
    <glyph glyph-name="aring.ss02" horiz-adv-x="568" 
d="M430 521q116 -54 95 -213l-44 -308h-133l-3 88h-9q-50 -98 -173 -98q-70 0 -112 39t-42 103q0 84 62 137t164 53h138l4 26q6 38 -15.5 60.5t-61.5 22.5q-39 0 -65.5 -18.5t-31.5 -49.5h-148q10 65 53 110t111 63q-14 26 -14 58q0 58 38.5 95t100.5 37q54 0 87 -31.5
t33 -81.5q0 -57 -34 -92zM339 653q-23 0 -37 -15.5t-14 -40.5q0 -19 11.5 -31t29.5 -12q23 0 37.5 15t14.5 40q0 20 -11.5 32t-30.5 12zM359 212l2 15h-103q-43 0 -67 -18t-24 -50q0 -54 68 -54q50 0 84 29.5t40 77.5z" />
    <glyph glyph-name="atilde.ss02" horiz-adv-x="568" 
d="M395 587q-29 0 -64 19q-35 20 -58 20q-13 0 -26 -6q-12 -6 -39 -30l-54 41q56 101 136 101q27 0 61 -19q35 -19 59 -19q13 0 25 5t17 9.5t13 13.5t9 10l56 -40q-54 -105 -135 -105zM9 132q0 84 62 137t164 53h138l4 26q6 38 -15.5 60.5t-61.5 22.5q-39 0 -65.5 -18.5
t-31.5 -49.5h-148q13 85 80.5 134t169.5 49q120 0 178 -62.5t42 -175.5l-44 -308h-133l-3 88h-9q-50 -98 -173 -98q-70 0 -112 39t-42 103zM167 159q0 -54 68 -54q50 0 84 29.5t40 77.5l2 15h-103q-43 0 -67 -18t-24 -50z" />
    <glyph glyph-name="h_t_t_p" horiz-adv-x="2028" 
d="M179 764h1809l-133 -945h-662l75 533h-157l-32 -229h96l-15 -106h-117q-58 0 -82.5 26t-15.5 88l31 221h-180l-32 -229h97l-15 -106h-118q-57 0 -82 26t-16 88l32 221h-88l15 108h88l19 139h135l-20 -139h180l19 139h136l-20 -139h275l4 -88h8q25 45 71 71t101 26
q79 0 124 -50t45 -134q0 -118 -68 -198q-67 -79 -166 -79q-119 0 -145 96h-8l-29 -203h439l109 780h-1629l-43 -308h8q27 46 73 71t100 25q80 0 115 -53t22 -148l-35 -251h-134l34 238q7 50 -13.5 77t-62.5 27q-50 0 -84.5 -35t-42.5 -92l-46 -331h996l-12 -82h-1085z
M1388 256l-5 -34q-5 -43 23 -73.5t77 -30.5q57 0 95 41q39 42 39 103q0 45 -26.5 71.5t-71.5 26.5q-48 0 -88 -32q-39 -32 -43 -72z" />
    <glyph glyph-name="w_w_w" horiz-adv-x="2005" 
d="M281 0h-168l-70 536h150l19 -222l9 -173h6l126 395h145l15 -397h5l140 397h150l27 -395h6l127 395h145l15 -397h5l140 397h150l27 -395h6l128 395h144l15 -397h5l56 172l84 225h149l-223 -536h-166l-17 346h-6l-113 -346h-169l-28 311l-116 -311h-166l-17 346h-6
l-114 -346h-168l-29 308l-114 -308h-167l-17 346h-6z" />
    <glyph glyph-name="g_g.ss01" horiz-adv-x="1280" 
d="M14 -4h151q5 -29 33.5 -46.5t70.5 -17.5q51 0 84.5 26t39.5 70l13 95h-8q-26 -48 -72 -73.5t-103 -25.5q-88 0 -140 61.5t-52 168.5q0 126 69 209t177 83q63 0 110 -29.5t65 -78.5h9l23 98h131l-67 -491q-15 -109 -88.5 -165.5t-192.5 -56.5q-103 0 -174 48
q-68 46 -79 125zM654 -4h151q5 -29 33.5 -46.5t70.5 -17.5q51 0 84.5 26t39.5 70l13 95h-8q-26 -48 -72 -73.5t-103 -25.5q-88 0 -140 61.5t-52 168.5q0 126 69 209t177 83q63 0 110 -29.5t65 -78.5h9l23 98h131l-67 -491q-15 -109 -88.5 -165.5t-192.5 -56.5
q-103 0 -174 48q-68 46 -79 125zM426 259l2 14q9 65 -21.5 104.5t-87.5 39.5q-58 0 -95 -42t-37 -109q0 -56 29.5 -89t79.5 -33q51 0 87 31t43 84zM1066 259l2 14q9 65 -21.5 104.5t-87.5 39.5q-58 0 -95 -42t-37 -109q0 -56 29.5 -89t79.5 -33q51 0 87 31t43 84z" />
    <glyph glyph-name="zero.ss01" horiz-adv-x="640" 
d="M294 -8q-114 0 -178 82q-63 82 -63 225q0 186 92 308q93 123 233 123q113 0 177 -82t64 -223q0 -187 -93 -310q-92 -123 -232 -123zM303 126q67 0 111 87q44 88 44 221q0 162 -89 162q-67 0 -111 -87q-43 -85 -43 -220q0 -163 88 -163zM384 314h-105l13 95h104z" />
    <glyph glyph-name="zero.tf" horiz-adv-x="600" 
d="M353 730q113 0 177.5 -81.5t64.5 -223.5q0 -187 -93 -310q-92 -123 -232 -123q-114 0 -178 82q-63 82 -63 225q0 186 92 308q91 123 232 123zM345 596q-58 0 -99 -65q-42 -66 -52 -172l235 140q-16 97 -84 97zM279 126q57 0 98 65q43 65 53 171l-234 -140q17 -96 83 -96z
" />
    <glyph glyph-name="one.tf" horiz-adv-x="600" 
d="M442 721l-82 -586h187l-19 -135h-536l19 135h194l48 340h-186l16 118h31q70 0 120 35.5t63 92.5h145z" />
    <glyph glyph-name="two.tf" horiz-adv-x="600" 
d="M250 132l74 4h220l-19 -136h-501l3 24q11 77 44 133q21 37 52 69t52 47t65 45q58 38 89 57q93 56 93 134q0 40 -24 63.5t-65 23.5q-47 0 -74 -29.5t-24 -78.5h-150q3 107 74 175q71 67 184 67q112 0 177.5 -57.5t65.5 -158.5q0 -116 -95 -196q-34 -28 -86 -62
q-121 -76 -155 -124z" />
    <glyph glyph-name="three.tf" horiz-adv-x="600" 
d="M279 -10q-113 0 -180 63q-66 63 -62 165h157q-1 -43 24 -68.5t70 -25.5q48 0 80 27t32 71q0 45 -32 65t-68 20h-74l17 123h60q56 0 89 25.5t33 67.5q0 34 -23.5 53.5t-62.5 19.5q-47 0 -76.5 -26t-29.5 -66h-157q5 103 82 164q79 62 198 62q104 0 168 -50q64 -49 64 -133
q0 -62 -32.5 -108t-89.5 -67l-1 -6q92 -36 92 -149q0 -102 -77 -165q-77 -62 -201 -62z" />
    <glyph glyph-name="four.tf" horiz-adv-x="600" 
d="M564 721l-64 -453h87l-18 -128h-87l-19 -140h-155l19 140h-330l16 119l321 462h230zM389 580l-217 -312h173z" />
    <glyph glyph-name="five.tf" horiz-adv-x="600" 
d="M350 485q98 0 158 -62q60 -61 60 -161q0 -121 -79 -197q-79 -75 -206 -75q-112 0 -183 65q-69 65 -69 171h157q-1 -46 26 -73t73 -27q54 0 87.5 35t33.5 90q0 48 -27 76t-73 28q-36 0 -66 -17t-41 -44h-149l80 427h449l-19 -135h-311l-26 -134l6 -3q47 36 119 36z" />
    <glyph glyph-name="six.tf" horiz-adv-x="600" 
d="M291 -9q-124 0 -188 82.5t-64 233.5q0 187 88 305t241 118q98 0 162 -54q66 -52 75 -140h-155q-7 29 -32 46.5t-59 17.5q-62 0 -100 -49.5t-45 -136.5h6q49 70 150 70q87 0 143 -60q55 -58 55 -156q0 -122 -78 -200q-79 -77 -199 -77zM292 126q51 0 84.5 37t33.5 93
q0 46 -24.5 74t-66.5 28q-51 0 -85 -39q-34 -37 -33 -93q0 -46 24.5 -73t66.5 -27z" />
    <glyph glyph-name="seven.tf" horiz-adv-x="600" 
d="M195 468h-125l35 253h521l-16 -112q-119 -135 -215 -297t-142 -312h-167q40 140 131 298q93 158 205 288h-211z" />
    <glyph glyph-name="eight.tf" horiz-adv-x="600" 
d="M17 178q0 62 35 112.5t93 71.5l1 8q-82 45 -82 141q0 95 81 157q82 62 208 62q114 0 180.5 -51t66.5 -138q0 -63 -35 -113.5t-92 -68.5l-1 -8q37 -19 58.5 -56.5t21.5 -84.5q0 -99 -79 -160q-79 -60 -207 -60q-112 0 -181 51q-68 53 -68 137zM223 502q0 -37 25.5 -57.5
t70.5 -20.5q52 0 84 26.5t32 67.5q0 35 -26 56.5t-70 21.5q-52 0 -84 -26.5t-32 -67.5zM181 202q0 -36 26.5 -57t69.5 -21q52 0 84.5 27t32.5 69q0 36 -25.5 57t-69.5 21q-52 0 -85 -27t-33 -69z" />
    <glyph glyph-name="nine.tf" horiz-adv-x="600" 
d="M260 -9q-98 0 -163 53q-64 52 -75 140h155q6 -28 30.5 -45.5t60.5 -17.5q61 0 99.5 49.5t46.5 137.5h-7q-49 -72 -149 -72q-89 0 -145 59q-54 60 -54 158q0 123 77 200t199 77q124 0 188.5 -82t64.5 -233q0 -189 -86 -307q-86 -117 -242 -117zM308 363q52 0 85 36t33 93
q0 47 -25 75t-67 28q-52 0 -84.5 -37t-32.5 -94q0 -45 24.5 -73t66.5 -28z" />
    <glyph glyph-name="zero.tf.ss01" horiz-adv-x="598" 
d="M353 730q113 0 177.5 -81.5t64.5 -223.5q0 -187 -93 -310q-92 -123 -232 -123q-114 0 -178 82q-63 82 -63 225q0 186 92 308q91 123 232 123zM345 596q-48 0 -85.5 -46.5t-55.5 -127.5h230v12q0 162 -89 162zM279 126q48 0 85.5 46.5t55.5 127.5h-229v-11q0 -163 88 -163
z" />
    <glyph glyph-name="zero.dnom" horiz-adv-x="419" 
d="M171 -4q-73 0 -111 47t-38 133q0 138 60 223q62 87 158 87q73 0 111 -47t38 -133q0 -137 -61 -223q-62 -87 -157 -87zM182 84q45 0 74 62q29 64 29 163q0 90 -57 90q-45 0 -74 -62q-28 -60 -28 -162q0 -91 56 -91z" />
    <glyph glyph-name="one.dnom" horiz-adv-x="315" 
d="M155 314h-124l11 81h45q44 0 69 22.5t25 59.5v3h98l-67 -480h-100z" />
    <glyph glyph-name="two.dnom" horiz-adv-x="381" 
d="M127 85l63 3h128l-13 -88h-310l2 16q13 103 102 170q14 11 43.5 31t44.5 32t33.5 29.5t27 35.5t8.5 38q0 22 -14 35t-38 13q-30 0 -49.5 -20.5t-23.5 -53.5l-99 6q11 69 63.5 111.5t126.5 42.5q64 0 100.5 -33t36.5 -88q0 -86 -65 -144q-13 -12 -80.5 -60.5t-86.5 -75.5z
" />
    <glyph glyph-name="three.dnom" horiz-adv-x="376" 
d="M155 -7q-73 0 -112 42t-29 109h100q-4 -28 11 -45.5t41 -17.5q29 0 50 20.5t21 48.5q0 23 -16 36.5t-42 13.5h-42l13 91h30q33 0 54 18.5t21 47.5q0 20 -13 31t-34 11q-29 0 -47 -17.5t-21 -45.5h-101q8 68 57.5 109t125.5 41q64 0 101 -29.5t37 -80.5q0 -86 -80 -122
l-1 -5q60 -25 60 -94t-53 -116q-52 -46 -131 -46z" />
    <glyph glyph-name="four.dnom" horiz-adv-x="375" 
d="M351 480l-43 -306h48l-12 -88h-48l-12 -86h-99l11 86h-209l12 81l200 313h152zM237 373l-127 -199h99z" />
    <glyph glyph-name="five.dnom" horiz-adv-x="398" 
d="M22 149h102q-4 -30 12 -48.5t46 -18.5q34 0 57.5 26t23.5 64q0 29 -16.5 47t-44.5 18q-50 0 -69 -40h-95l40 283h301l-12 -88h-203l-7 -52l-8 -39l3 -3q29 26 83 26q60 0 95.5 -37t35.5 -98q0 -85 -57 -140q-56 -56 -141 -56q-74 0 -115 43t-31 113z" />
    <glyph glyph-name="six.dnom" horiz-adv-x="407" 
d="M18 172q0 138 63 226t162 88q65 0 103.5 -35.5t37.5 -94.5h-100q-5 43 -57 43q-81 0 -97 -126h4q15 23 44.5 36t62.5 13q57 0 91.5 -35.5t34.5 -94.5q0 -85 -57 -142q-58 -56 -141 -56q-73 0 -112 46t-39 132zM124 145q0 -29 16 -46t44 -17q35 0 58.5 27t23.5 68
q0 28 -16 45t-43 17q-35 0 -59 -27t-24 -67z" />
    <glyph glyph-name="seven.dnom" horiz-adv-x="352" 
d="M45 480h327l-10 -72q-171 -177 -240 -408h-99q27 107 83.5 210t133.5 182h-131l-11 -75h-76z" />
    <glyph glyph-name="eight.dnom" horiz-adv-x="389" 
d="M2 109q0 42 23.5 77t62.5 51v6q-54 25 -54 90q0 68 53 110q53 43 140 43q71 0 111.5 -31t40.5 -83q0 -42 -23 -77.5t-61 -51.5l-1 -6q53 -26 53 -87q0 -71 -53 -114t-139 -43q-72 0 -112.5 31t-40.5 85zM136 331q0 -23 16.5 -36t44.5 -13q33 0 54.5 19t21.5 48
q0 23 -16.5 36.5t-43.5 13.5q-34 0 -55.5 -19.5t-21.5 -48.5zM108 129q0 -23 16 -36t44 -13q33 0 55 19.5t22 48.5q0 23 -16 37t-44 14q-33 0 -55 -20t-22 -50z" />
    <glyph glyph-name="nine.dnom" horiz-adv-x="407" 
d="M383 309q0 -139 -63 -227t-162 -88q-66 0 -104.5 35.5t-36.5 94.5h100q5 -42 57 -42q80 0 97 125h-4q-34 -49 -107 -49q-58 0 -92 36t-34 95q0 83 57 140t141 57q73 0 112 -46t39 -131zM276 336q0 29 -15.5 46t-42.5 17q-35 0 -59 -27.5t-24 -67.5q0 -29 16.5 -46
t44.5 -17q34 0 57 27t23 68z" />
    <glyph glyph-name="zero.numr" horiz-adv-x="419" 
d="M206 251q-73 0 -111 46.5t-38 132.5q0 134 60 220q61 85 158 85q74 0 112 -46.5t38 -131.5q0 -135 -61 -220q-62 -86 -158 -86zM217 338q46 0 74 61q29 63 29 159q0 90 -56 90q-47 0 -75 -61q-28 -59 -28 -158q0 -91 56 -91z" />
    <glyph glyph-name="one.numr" horiz-adv-x="315" 
d="M190 565h-124l11 80h45q43 0 68.5 22.5t25.5 58.5v3h98l-67 -473h-100z" />
    <glyph glyph-name="two.numr" horiz-adv-x="382" 
d="M163 338l63 4h128l-13 -87h-310l2 17q6 46 28 84.5t50 62t60 47t58.5 41.5t44 42.5t17.5 52.5q0 22 -14 34.5t-38 12.5q-29 0 -49 -20t-23 -53l-100 6q12 69 64 111t126 42q65 0 101.5 -32t36.5 -87q0 -84 -66 -142q-18 -17 -82.5 -63t-83.5 -73z" />
    <glyph glyph-name="three.numr" horiz-adv-x="376" 
d="M191 248q-74 0 -113 41.5t-29 107.5h101q-4 -27 11 -44.5t40 -17.5q30 0 50.5 19.5t20.5 48.5q0 23 -16.5 36t-41.5 13h-41l12 90h30q33 0 54 18t21 47q0 20 -13 30.5t-35 10.5q-27 0 -45.5 -17t-21.5 -45h-101q8 67 57.5 108t125.5 41q64 0 101 -29.5t37 -79.5
q0 -86 -81 -120v-5q60 -26 60 -92q0 -68 -53 -115q-52 -46 -130 -46z" />
    <glyph glyph-name="four.numr" horiz-adv-x="375" 
d="M386 729l-42 -303h48l-12 -86h-48l-12 -84h-99l11 84h-209l12 80l199 309h152zM272 623l-126 -197h99z" />
    <glyph glyph-name="five.numr" horiz-adv-x="399" 
d="M58 402h102q-4 -28 12.5 -47.5t45.5 -19.5q34 0 57.5 26.5t23.5 63.5q0 29 -16.5 47t-44.5 18q-48 0 -69 -41h-95l39 280h302l-12 -88h-203l-7 -51l-8 -38l2 -3q29 26 83 26q60 0 96 -36.5t36 -96.5q0 -84 -57 -139q-55 -55 -140 -55q-75 0 -116 42.5t-31 111.5z" />
    <glyph glyph-name="six.numr" horiz-adv-x="407" 
d="M54 425q0 137 62 223q63 87 162 87q66 0 104.5 -34.5t37.5 -93.5h-100q-6 41 -57 41q-80 0 -97 -123h4q16 21 46.5 35t60.5 14q57 0 91.5 -36t34.5 -94q0 -84 -57 -139q-58 -56 -141 -56q-73 0 -112 45.5t-39 130.5zM160 398q0 -29 16 -46t44 -17q35 0 58.5 27t23.5 68
q0 28 -16 45t-43 17q-35 0 -59 -27t-24 -67z" />
    <glyph glyph-name="seven.numr" horiz-adv-x="351" 
d="M79 729h327l-9 -72q-171 -171 -239 -401h-99q30 106 85.5 207.5t128.5 177.5h-130l-9 -69h-76l9 69z" />
    <glyph glyph-name="eight.numr" horiz-adv-x="389" 
d="M38 363q0 42 22.5 76t61.5 50l1 6q-54 29 -54 89q0 67 53 109q54 42 140 42q71 0 111 -30.5t40 -82.5q0 -41 -22 -75t-61 -52l-1 -6q54 -25 54 -87q0 -68 -54 -111q-52 -43 -138 -43q-71 0 -112 31.5t-41 83.5zM171 582q0 -22 16.5 -35.5t44.5 -13.5q33 0 54.5 19
t21.5 48q0 23 -16.5 35.5t-43.5 12.5q-34 0 -55.5 -18.5t-21.5 -47.5zM143 383q0 -22 16.5 -35.5t44.5 -13.5q32 0 54 19.5t22 47.5q0 23 -16.5 36.5t-43.5 13.5q-33 0 -55 -19t-22 -49z" />
    <glyph glyph-name="nine.numr" horiz-adv-x="406" 
d="M416 559q0 -136 -62 -224q-62 -86 -162 -86q-64 0 -103 35t-38 94h100q6 -43 58 -43q78 0 96 124h-5q-34 -48 -105 -48q-57 0 -92 36t-35 94q0 83 57 138q58 56 141 56q73 0 111.5 -45.5t38.5 -130.5zM310 586q0 28 -15.5 45t-42.5 17q-35 0 -59 -26.5t-24 -66.5
q0 -29 16 -46t45 -17q34 0 57 27t23 67z" />
    <glyph glyph-name="question.ss01" horiz-adv-x="551" 
d="M218 514h-153q9 103 79.5 163.5t184.5 60.5q100 0 160.5 -50t60.5 -132q0 -74 -43 -126q-21 -25 -38 -42q-13 -14 -48 -42q-53 -44 -70 -65q-18 -22 -22 -50l-1 -11h-146l2 12q12 97 114 179l29 23q6 6 13 11q13 10 24 24q6 6 11 14t7 10q12 19 12 45q0 31 -21.5 50
t-57.5 19q-44 0 -69.5 -25t-27.5 -68zM304 0h-155l20 148h156z" />
    <glyph glyph-name="questiondown.ss01" horiz-adv-x="551" 
d="M250 622h155l-21 -149h-155zM336 107h153q-9 -103 -79.5 -163t-183.5 -60q-101 0 -162 49.5t-61 132.5q0 50 27 102q8 17 32 42q23 24 32 32l39 34q49 41 70 65q18 22 22 50l1 11h146l-2 -13q-12 -97 -115 -179q-33 -26 -37 -30l-27 -26q-31 -31 -31 -70
q0 -32 21.5 -50.5t57.5 -18.5q42 0 68 25t29 67z" />
    <glyph glyph-name="parenleft.case" horiz-adv-x="292" 
d="M60 284q0 134 60 261q62 130 160 204h78q-97 -76 -157 -204t-60 -263q0 -90 29 -169.5t80 -131.5h-77q-54 51 -83.5 130.5t-29.5 172.5z" />
    <glyph glyph-name="parenright.case" horiz-adv-x="292" 
d="M260 445q0 -133 -60 -261q-59 -125 -161 -203h-78q100 79 158 205q59 129 59 262q0 191 -109 301h78q54 -51 83.5 -131t29.5 -173z" />
    <glyph glyph-name="braceleft.case" horiz-adv-x="295" 
d="M28 295l10 73q69 0 81 76l29 205q6 40 31 63t66 23h101l-9 -67h-108l-31 -219q-13 -99 -94 -113v-3q35 -8 51.5 -38.5t9.5 -75.5l-32 -229h108l-9 -68h-102q-40 0 -59 22.5t-13 64.5l30 214q6 36 -11 54t-49 18z" />
    <glyph glyph-name="braceright.case" horiz-adv-x="295" 
d="M284 368l-10 -73q-32 0 -54.5 -18.5t-27.5 -53.5l-30 -214q-5 -42 -30 -64.5t-65 -22.5h-101l9 68h107l32 229q6 43 31 73.5t63 40.5l1 3q-36 7 -53 36t-10 77l31 219h-107l10 67h101q39 0 57.5 -23t13.5 -63l-28 -205q-5 -35 10.5 -55.5t49.5 -20.5z" />
    <glyph glyph-name="bracketleft.case" horiz-adv-x="273" 
d="M210 -78h-192l117 830h192l-10 -69h-116l-97 -693h116z" />
    <glyph glyph-name="bracketright.case" horiz-adv-x="273" 
d="M158 -78h-192l9 68h116l97 693h-116l10 69h192z" />
    <glyph glyph-name="hyphen.case" horiz-adv-x="471" 
d="M424 328h-361l12 84h361z" />
    <glyph glyph-name="endash.case" horiz-adv-x="647" 
d="M600 328h-537l12 84h537z" />
    <glyph glyph-name="emdash.case" horiz-adv-x="843" 
d="M796 328h-733l12 84h733z" />
    <glyph glyph-name="greater.case" horiz-adv-x="542" 
d="M495 309l-425 -215l21 147l133 61l163 60l1 9l-140 59l-122 65l20 141l365 -213z" />
    <glyph glyph-name="less.case" horiz-adv-x="543" 
d="M444 241l-20 -147l-365 215l16 114l425 213l-20 -141l-140 -65l-155 -59l-2 -9l144 -60z" />
    <glyph glyph-name="percent.tf" horiz-adv-x="597" 
d="M69 556q0 77 53 130q52 54 129 54q62 0 99.5 -37t37.5 -97q0 -77 -53 -130t-128 -53q-61 0 -99.5 36.5t-38.5 96.5zM166 568q0 -26 14 -42t39 -16q30 0 52 25.5t22 59.5q0 25 -15 41t-39 16q-30 0 -51.5 -24t-21.5 -60zM597 440l-578 -215l10 72l578 217zM228 124
q0 77 53 130q53 54 129 54q63 0 101 -37t38 -95q0 -76 -54 -132q-54 -54 -129 -54q-61 0 -99.5 37t-38.5 97zM325 137q0 -27 14.5 -42.5t38.5 -15.5q31 0 53 25t22 60q0 26 -15 42t-40 16q-30 0 -51.5 -24.5t-21.5 -60.5z" />
    <glyph glyph-name="perthousand.tf" horiz-adv-x="653" 
d="M209 437q-62 0 -100 35t-38 92q0 73 52 124t128 51q61 0 100.5 -35.5t39.5 -92.5q0 -72 -54 -123q-53 -51 -128 -51zM240 652q-30 0 -50.5 -21.5t-20.5 -53.5q0 -23 14 -37t38 -14q31 0 52.5 21.5t21.5 52.5q0 23 -15 37.5t-40 14.5zM55 264l10 73l578 214l-10 -71z
M479 291q59 0 95 -34t36 -90q0 -75 -50 -127q-50 -50 -124 -50q-71 0 -111 55q-55 -55 -126 -55q-61 0 -96.5 34t-35.5 91q0 76 49 125q50 51 124 51q70 0 111 -56q59 56 128 56zM441 79q29 0 50.5 22t21.5 53q0 23 -14.5 37.5t-39.5 14.5q-30 0 -51 -21.5t-21 -52.5
q0 -24 14.5 -38.5t39.5 -14.5zM218 77q30 0 51.5 22.5t21.5 53.5q0 23 -14.5 37.5t-38.5 14.5q-31 0 -51.5 -21.5t-20.5 -53.5q0 -24 14 -38.5t38 -14.5z" />
    <glyph glyph-name="uni1F310" horiz-adv-x="1035" 
d="M532 738q198 0 323 -105q126 -103 126 -268t-126 -270t-323 -105t-325 105q-126 105 -126 270t125 269q127 104 326 104zM433 577h196q-35 128 -97 128q-64 0 -99 -128zM665 577h99q-56 90 -153 117q35 -44 54 -117zM451 694q-97 -27 -153 -117h99q19 72 54 117zM336 671
q-87 -35 -140 -94h61q32 56 79 94zM804 577h61q-55 61 -139 94q48 -39 78 -94zM117 383h88q3 83 32 153h-72q-43 -68 -48 -153zM388 536h-112q-30 -70 -33 -153h130q1 85 15 153zM408 383h245q-1 87 -15 153h-215q-13 -66 -15 -153zM689 383h130q-3 83 -33 153h-112
q14 -68 15 -153zM856 383h88q-4 85 -48 153h-72q29 -70 32 -153zM205 344h-87q4 -81 48 -150h71q-27 66 -32 150zM373 344h-130q5 -84 33 -150h112q-14 68 -15 150zM653 344h-245q2 -84 15 -150h215q14 66 15 150zM674 194h111q30 67 34 150h-130q-1 -82 -15 -150zM943 344
h-87q-5 -84 -32 -150h72q42 69 47 150zM255 155h-60q58 -64 138 -95q-46 39 -78 95zM396 155h-99q55 -91 153 -120q-32 43 -54 120zM629 155h-197q17 -62 43 -96.5t57 -34.5q61 0 97 131zM612 35q98 29 153 120h-100q-19 -76 -53 -120zM728 60q83 33 138 95h-60
q-35 -59 -78 -95z" />
    <glyph glyph-name="uni1F441" horiz-adv-x="839" 
d="M68 365q0 165 103 268q104 104 262 104t262 -104q103 -103 103 -268q0 -169 -103 -272t-262 -103t-262 103t-103 272zM134 365q0 -140 85 -226q85 -87 214 -87t214 87q85 86 85 226q0 138 -85 223q-86 87 -214 87q-129 0 -214 -87q-85 -85 -85 -223zM249 366q0 79 53 132
q53 52 131 52q79 0 131 -52q53 -51 53 -132q0 -84 -53 -137q-52 -52 -131 -52t-131 52q-53 53 -53 137zM281 375v-21l143 7l-92 -85l15 -17l83 96l-7 -148h22l-8 148l83 -96l16 17l-93 85l144 -7v21l-144 -6l93 84l-16 16l-83 -94l8 147h-22l7 -147l-83 94l-15 -16l92 -84z
" />
    </font>
</defs>
</svg>
