<?xml version="1.0" standalone="no"?>
<!DOCTYPE svg PUBLIC "-//W3C//DTD SVG 1.1//EN" "http://www.w3.org/Graphics/SVG/1.1/DTD/svg11.dtd" >
<svg xmlns="http://www.w3.org/2000/svg" xmlns:xlink="http://www.w3.org/1999/xlink" version="1.1">
<metadata>
Created by FontForge 20170731 at Wed Jul 11 02:32:35 2018
 By Aleksey,,,
Copyright (c) 2017 by Deni Anggara. All rights reserved.
</metadata>
<defs>
<font id="AllianceNo.1-Medium" horiz-adv-x="0" >
  <font-face 
    font-family="Alliance No.1 Medium"
    font-weight="500"
    font-stretch="normal"
    units-per-em="1000"
    panose-1="0 0 6 0 0 0 0 0 0 0"
    ascent="802"
    descent="-198"
    x-height="526"
    cap-height="729"
    bbox="-480 -249 2114 974"
    underline-thickness="50"
    underline-position="-200"
    unicode-range="U+000D-FB02"
  />
<missing-glyph horiz-adv-x="644" 
d="M644 0h-644v729h644v-729zM63 666v-604h518v604h-518zM518 125h-392v478h392v-478zM189 540v-351h266v351h-266zM252 252v225h140v-225h-140z" />
    <glyph glyph-name="fi" unicode="fi" horiz-adv-x="613" 
d="M211 526h321v-526h-103v440h-218v-440h-102v440h-96v86h96v61q0 77 42.5 116t120.5 39q42 0 63 -7v-84q-25 5 -46 5q-41 0 -59.5 -19.5t-18.5 -59.5v-51zM429 605v123h103v-123h-103z" />
    <glyph glyph-name="fl" unicode="fl" horiz-adv-x="624" 
d="M440 526v210h103v-736h-103v440h-229v-440h-103v440h-95v86h95v61q0 77 42.5 116t121.5 39q42 0 63 -7v-84q-25 5 -46 5q-41 0 -59.5 -19.5t-18.5 -59.5v-51h229z" />
    <glyph glyph-name="f_f" unicode="ff" horiz-adv-x="671" 
d="M613 656q-41 0 -59.5 -19.5t-18.5 -59.5v-51h124v-86h-124v-440h-104v440h-220v-440h-103v440h-95v86h95v61q0 77 42.5 116t121.5 39q42 0 64 -7v-84q-25 5 -46 5q-79 0 -79 -79v-51h220v61q0 77 42.5 116t121.5 39q42 0 64 -7v-84q-25 5 -46 5z" />
    <glyph glyph-name="f_f_i" unicode="ffi" horiz-adv-x="927" 
d="M528 526h319v-526h-103l-1 440h-215v-440h-104v440h-213v-440h-103v440h-95v86h95v61q0 77 42.5 116t121.5 39q42 0 64 -7v-84q-25 5 -46 5q-79 0 -79 -79v-51h213v61q0 77 43 116t122 39q42 0 62 -7v-84q-25 5 -46 5q-77 0 -77 -79v-51zM743 605v123h104v-123h-104z" />
    <glyph glyph-name="t_i" unicode="ti" horiz-adv-x="614" 
d="M430 605v123h104v-123h-104zM204 526h330v-526h-103l-1 440h-226v-280q0 -81 68 -81q26 0 48 5v-84q-37 -8 -71 -8q-149 0 -149 155v293h-88v86h88v151l104 40v-191z" />
    <glyph glyph-name="t_t" unicode="tt" horiz-adv-x="684" 
d="M653 526v-86h-117v-280q0 -81 69 -81q26 0 48 5v-84q-40 -8 -70 -8q-80 0 -115 39.5t-35 115.5v293h-229v-280q0 -81 68 -81q26 0 48 5v-84q-37 -8 -71 -8q-149 0 -149 155v293h-88v86h88v151l104 40v-191h229v151l103 40v-191h117z" />
    <glyph glyph-name="t_t_i" unicode="tti" horiz-adv-x="931" 
d="M747 605v123h103v-123h-103zM520 526h330v-526h-103v440h-227v-280q0 -81 68 -81q26 0 48 5v-84q-37 -8 -70 -8q-80 0 -114.5 39.5t-34.5 115.5v293h-213v-280q0 -81 68 -81q26 0 48 5v-84q-37 -8 -71 -8q-149 0 -149 155v293h-88v86h88v151l104 40v-191h213v151l103 40
v-191z" />
    <glyph glyph-name="hyphen_hyphen_greater" unicode="&#x2d;&#x2d;&#x3e;" horiz-adv-x="851" 
d="M708 231h-612v66h612l-169 231h81l197 -263l-197 -265h-81z" />
    <glyph glyph-name="less_hyphen_hyphen" unicode="&#x3c;&#x2d;&#x2d;" horiz-adv-x="851" 
d="M755 297v-66h-612l169 -231h-80l-198 265l198 263h80l-169 -231h612z" />
    <glyph glyph-name=".notdef" horiz-adv-x="644" 
d="M644 0h-644v729h644v-729zM63 666v-604h518v604h-518zM518 125h-392v478h392v-478zM189 540v-351h266v351h-266zM252 252v225h140v-225h-140z" />
    <glyph glyph-name=".null" 
 />
    <glyph glyph-name="nonmarkingreturn" horiz-adv-x="333" 
 />
    <glyph glyph-name="CR" unicode="&#xd;" horiz-adv-x="226" 
 />
    <glyph glyph-name="space" unicode=" " horiz-adv-x="228" 
 />
    <glyph glyph-name="exclam" unicode="!" horiz-adv-x="286" 
d="M169 222h-51l-27 298v209h105v-209zM201 0h-116v105h116v-105z" />
    <glyph glyph-name="quotedbl" unicode="&#x22;" horiz-adv-x="393" 
d="M157 591l-26 -167h-44l-26 167v138h96v-138zM332 591l-26 -167h-44l-26 167v138h96v-138z" />
    <glyph glyph-name="numbersign" unicode="#" horiz-adv-x="717" 
d="M657 539v-61h-116v-202h116v-62h-116v-214h-65v214h-233v-214h-66v214h-117v62h117v202h-117v61h117v211h66v-211h233v211h65v-211h116zM243 276h233v202h-233v-202z" />
    <glyph glyph-name="dollar" unicode="$" horiz-adv-x="555" 
d="M506 237q0 -78 -53 -127.5t-143 -57.5v-85h-74v86q-90 10 -141.5 63t-51.5 134h104q0 -57 33.5 -87t95.5 -30q57 0 89 25t32 68q0 36 -22.5 56.5t-69.5 32.5l-87 22q-160 37 -160 170q0 71 48 119t130 57v87h74v-87q81 -10 128 -57.5t48 -122.5h-103q-1 46 -31.5 73.5
t-83.5 27.5q-48 0 -75 -23t-27 -63q0 -35 24 -55.5t73 -33.5l85 -21q158 -38 158 -171z" />
    <glyph glyph-name="percent" unicode="%" horiz-adv-x="898" 
d="M57 557q0 81 49 130q50 50 128 50q79 0 129 -50q49 -49 49 -131q0 -80 -50 -132q-50 -50 -128 -50q-79 0 -128 51q-49 50 -49 132zM261 0h-74l462 729h74zM136 557q0 -51 27 -82.5t71 -31.5q45 0 72.5 31.5t27.5 82.5q0 50 -27.5 81t-72.5 31q-43 0 -70.5 -31t-27.5 -81z
M485 173q0 81 49 131q50 51 129 51t127 -51q49 -50 49 -132t-49 -132q-50 -50 -127 -50q-79 0 -129 50q-49 50 -49 133zM663 286q-45 0 -72.5 -31.5t-27.5 -81.5t28 -82t72 -32t71.5 32t27.5 82t-28 81.5t-71 31.5z" />
    <glyph glyph-name="ampersand" unicode="&#x26;" horiz-adv-x="722" 
d="M556 371l91 -22q-22 -115 -80 -206l131 -143h-127l-67 73q-80 -83 -223 -83q-103 0 -166 51t-63 138q0 63 37 114t118 98v7q-57 56 -79 92q-22 37 -22 83q0 74 51.5 119t138.5 45q84 0 133.5 -43.5t49.5 -115.5q0 -51 -30 -94.5t-101 -93.5v-8l157 -173q36 75 51 162z
M204 574q0 -56 77 -130h9q91 70 91 133q0 36 -24 58t-63 22q-40 0 -65 -22.5t-25 -60.5zM156 191q0 -54 36.5 -84.5t99.5 -30.5q99 0 153 62l-180 197q-109 -60 -109 -144z" />
    <glyph glyph-name="quotesingle" unicode="'" horiz-adv-x="217" 
d="M157 591l-26 -167h-44l-26 167v138h96v-138z" />
    <glyph glyph-name="parenleft" unicode="(" horiz-adv-x="397" 
d="M76 319q0 133 62 259q61 124 164 192h70q-101 -64 -165 -190q-63 -124 -63 -261t63 -261t165 -190h-70q-103 67 -164 190q-62 126 -62 261z" />
    <glyph glyph-name="parenright" unicode=")" horiz-adv-x="391" 
d="M321 319q0 -136 -62 -262q-61 -123 -164 -189h-69q102 67 164 190q63 124 63 261t-63 261q-64 126 -164 190h69q103 -68 164 -192q62 -126 62 -259z" />
    <glyph glyph-name="asterisk" unicode="*" horiz-adv-x="349" 
d="M65 486l-27 45l108 51l-108 50l27 47l95 -71l-12 121h53l-12 -121l96 71l27 -47l-108 -50l108 -51l-27 -45l-96 71l12 -122h-53l12 122z" />
    <glyph glyph-name="plus" unicode="+" horiz-adv-x="635" 
d="M557 283h-196v-210h-88v210h-195v84h195v203h88v-203h196v-84z" />
    <glyph glyph-name="comma" unicode="," horiz-adv-x="210" 
d="M40 -138v46q75 0 75 71v21h-64v129h121v-150q0 -54 -36 -85.5t-96 -31.5z" />
    <glyph glyph-name="hyphen" unicode="-" horiz-adv-x="465" 
d="M404 268h-344v65h344v-65z" />
    <glyph glyph-name="period" unicode="." horiz-adv-x="253" 
d="M188 0h-122v136h122v-136z" />
    <glyph glyph-name="slash" unicode="/" horiz-adv-x="400" 
d="M91 0h-69l287 729h68z" />
    <glyph glyph-name="zero" unicode="0" horiz-adv-x="628" 
d="M314 -6q-115 0 -185 94t-70 275t70 273q70 94 186 94q117 0 185 -95.5t68 -271.5q0 -177 -68.5 -273t-185.5 -96zM313 86q146 0 146 274q0 278 -145 278q-146 0 -146 -272q0 -280 145 -280z" />
    <glyph glyph-name="one" unicode="1" horiz-adv-x="465" 
d="M234 516h-189v79h24q73 0 118.5 33.5t53.5 92.5h96v-721h-103v516z" />
    <glyph glyph-name="two" unicode="2" horiz-adv-x="577" 
d="M312 92h220v-92h-478v25q0 80 42 150q16 26 51 58q38 34 55 48l67 47l20 14q68 48 97 86.5t29 90.5q0 56 -33.5 87.5t-90.5 31.5q-62 0 -95.5 -36.5t-29.5 -98.5h-104q-3 102 62 164q64 63 173 63q102 0 164 -59t62 -151q0 -74 -38 -129t-119 -113l-49 -34
q-37 -26 -54 -39q-4 -3 -40 -35q-45 -40 -56 -85q74 7 145 7z" />
    <glyph glyph-name="three" unicode="3" horiz-adv-x="599" 
d="M296 -10q-110 0 -175 62q-64 62 -62 168h107q-2 -67 33.5 -103t97.5 -36t99.5 34.5t37.5 90.5q0 57 -37.5 90t-101.5 33h-59v84h55q62 0 97 32.5t35 84.5q0 50 -34.5 79t-89.5 29q-60 0 -93.5 -35.5t-34.5 -100.5h-107q-1 103 65 165q67 63 173 63q98 0 163 -51
q66 -51 66 -140q0 -115 -107 -162v-6q58 -20 88 -65t30 -104q0 -96 -69 -154q-67 -58 -177 -58z" />
    <glyph glyph-name="four" unicode="4" horiz-adv-x="613" 
d="M487 721v-481h87v-87h-87v-153h-103v153h-349v86l299 482h153zM384 632l-241 -392h241v392z" />
    <glyph glyph-name="five" unicode="5" horiz-adv-x="606" 
d="M317 478q101 0 166 -68t65 -173q0 -110 -70 -179q-70 -68 -181 -68q-107 0 -174 64q-66 65 -65 167h105q-2 -60 35.5 -99.5t99.5 -39.5q64 0 103 41.5t39 109.5q0 70 -39 113t-104 43q-44 0 -79 -20t-48 -50h-98l16 402h422v-91h-330l-10 -201l5 -1q22 22 61.5 36
t80.5 14z" />
    <glyph glyph-name="six" unicode="6" horiz-adv-x="615" 
d="M318 -10q-132 0 -194 99q-62 100 -62 270q0 180 65.5 275.5t197.5 95.5q96 0 156.5 -49.5t69.5 -134.5h-106q-7 46 -39.5 70t-81.5 24q-166 0 -152 -263h5q47 95 166 95q97 0 158 -66q61 -64 61 -171q0 -111 -66 -178t-178 -67zM322 384q-62 0 -98.5 -43t-36.5 -109
q0 -69 37 -109q38 -41 98 -41q61 0 97 41q36 42 36 112q0 69 -36 109t-97 40z" />
    <glyph glyph-name="seven" unicode="7" horiz-adv-x="551" 
d="M119 501h-86v220h484v-74q-101 -139 -177 -315q-77 -176 -105 -332h-112q26 154 98 319q74 171 171 311h-273v-129z" />
    <glyph glyph-name="eight" unicode="8" horiz-adv-x="594" 
d="M53 186q0 57 27.5 101.5t77.5 68.5v8q-48 22 -76.5 68t-28.5 101q0 87 67 141q67 55 177 55q109 0 176 -55q68 -54 68 -141q0 -55 -28 -100.5t-76 -68.5v-8q49 -24 76.5 -69t27.5 -101q0 -86 -68 -142q-67 -54 -177 -54q-108 0 -176 54q-67 55 -67 142zM161 520
q0 -54 37 -86t98 -32q63 0 100 32t37 86t-37 86t-100 32t-99 -32t-36 -86zM161 200q0 -55 37 -86.5t98 -31.5q65 0 101 31.5t36 86.5q0 54 -37.5 86t-99.5 32t-98.5 -32.5t-36.5 -85.5z" />
    <glyph glyph-name="nine" unicode="9" horiz-adv-x="612" 
d="M290 -10q-91 0 -153 50q-61 51 -70 133h105q7 -44 39.5 -68.5t83.5 -24.5q81 0 119 68t30 195h-5q-49 -94 -167 -94q-96 0 -158 65q-61 64 -61 172t66 176t177 68q133 0 195 -101t62 -276q0 -187 -65 -275t-198 -88zM293 337q62 0 99 43t37 109q0 67 -38 108t-98 41
q-61 0 -97 -41t-36 -111q0 -69 36 -109t97 -40z" />
    <glyph glyph-name="colon" unicode=":" horiz-adv-x="275" 
d="M201 403h-121v123h121v-123zM201 0h-121v122h121v-122z" />
    <glyph glyph-name="semicolon" unicode=";" horiz-adv-x="246" 
d="M173 403h-121v123h121v-123zM41 -129v42q42 0 58.5 17t16.5 49v21h-64v122h121v-138q0 -56 -34.5 -84.5t-97.5 -28.5z" />
    <glyph glyph-name="less" unicode="&#x3c;" horiz-adv-x="547" 
d="M463 138v-108l-386 221v80l386 210v-108l-291 -140v-8l154 -75z" />
    <glyph glyph-name="equal" unicode="=" horiz-adv-x="547" 
d="M463 355h-379v92h379v-92zM463 147h-379v91h379v-91z" />
    <glyph glyph-name="greater" unicode="&#x3e;" horiz-adv-x="547" 
d="M470 251l-386 -221v108l136 72l156 75v8l-292 140v108l386 -210v-80z" />
    <glyph glyph-name="question" unicode="?" horiz-adv-x="583" 
d="M299 200h-99v199q34 -7 67 -7q74 0 115.5 34.5t41.5 95.5q0 57 -38 90.5t-102 33.5q-61 0 -97.5 -30t-40.5 -83h-102q5 96 70 150q66 54 173 54q112 0 177 -59t65 -156q0 -92 -63 -151q-62 -58 -167 -61v-110zM311 0h-125v120h125v-120z" />
    <glyph glyph-name="at" unicode="@" horiz-adv-x="916" 
d="M51 314q0 191 115 307q116 117 302 117q171 0 280 -104q109 -103 109 -270q0 -116 -54 -189q-52 -72 -139 -72q-44 0 -73 22t-38 59h-7q-34 -78 -122 -78q-67 0 -109.5 52t-42.5 140q0 95 47 157q46 61 122 61q75 0 108 -61h6l10 49h57l-18 -252q-4 -82 58 -82
q54 0 86.5 53t32.5 139q0 141 -87 224q-86 84 -228 84q-156 0 -246 -98q-89 -98 -89 -255t90 -254q90 -96 247 -96q130 0 239 53v-71q-102 -50 -240 -50q-185 0 -301 113q-115 114 -115 302zM346 300q0 -62 22.5 -94.5t64.5 -32.5q49 0 78.5 41.5t29.5 108.5
q0 60 -24.5 94.5t-66.5 34.5q-48 0 -76 -41.5t-28 -110.5z" />
    <glyph glyph-name="A" unicode="A" horiz-adv-x="677" 
d="M673 0h-118l-58 160h-323l-58 -160h-113l270 729h126zM248 362l-42 -114h259l-41 114l-84 255h-5z" />
    <glyph glyph-name="B" unicode="B" horiz-adv-x="712" 
d="M430 0h-335v729h336q98 0 156 -50.5t58 -134.5q0 -57 -27.5 -100.5t-76.5 -63.5v-8q59 -18 91 -63.5t32 -108.5q0 -91 -64 -146q-63 -54 -170 -54zM202 640v-224h207q58 0 91 30t33 83q0 51 -33.5 81t-90.5 30h-207zM202 329v-240h210q66 0 101.5 32t35.5 89
q0 58 -36.5 88.5t-100.5 30.5h-210z" />
    <glyph glyph-name="C" unicode="C" horiz-adv-x="752" 
d="M593 243h113q-15 -115 -103 -184q-87 -69 -216 -69q-157 0 -251 103t-94 271q0 167 95 271q94 103 250 103q128 0 216 -68q86 -67 103 -182h-113q-17 72 -72.5 112.5t-133.5 40.5q-107 0 -168 -75q-62 -76 -62 -202q0 -129 61 -203q62 -74 167 -74q84 0 138.5 41.5
t69.5 114.5z" />
    <glyph glyph-name="D" unicode="D" horiz-adv-x="748" 
d="M380 0h-285v729h285q155 0 240 -100q86 -100 86 -265t-86 -265q-86 -99 -240 -99zM204 632v-535h165q105 0 164 70t59 198q0 129 -59.5 198t-163.5 69h-165z" />
    <glyph glyph-name="E" unicode="E" horiz-adv-x="644" 
d="M587 0h-492v729h492v-97h-383v-210h335v-92h-335v-233h383v-97z" />
    <glyph glyph-name="F" unicode="F" horiz-adv-x="613" 
d="M204 0h-109v729h486v-97h-377v-259h337v-93h-337v-280z" />
    <glyph glyph-name="G" unicode="G" horiz-adv-x="803" 
d="M353 299v90h373v-389h-89l-9 120h-7q-34 -61 -101.5 -95.5t-151.5 -34.5q-144 0 -235 99q-91 100 -91 268q0 172 95 276q96 105 254 105q122 0 207 -64q85 -63 100 -165h-112q-16 62 -69 97t-128 35q-110 0 -171 -76t-61 -209q0 -132 60 -201.5t165 -69.5q98 0 160 60
q63 61 67 154h-256z" />
    <glyph glyph-name="H" unicode="H" horiz-adv-x="803" 
d="M204 0h-109v729h109v-311h395v311h109v-729h-109v327h-395v-327z" />
    <glyph glyph-name="I" unicode="I" horiz-adv-x="299" 
d="M204 729v-729h-109v729h109z" />
    <glyph glyph-name="J" unicode="J" horiz-adv-x="399" 
d="M309 729v-526q0 -211 -206 -211q-58 0 -87 8v94q27 -6 73 -6q112 0 112 124v517h108z" />
    <glyph glyph-name="K" unicode="K" horiz-adv-x="685" 
d="M681 0h-130l-217 325l-130 -156v-169h-109v729h109v-409l337 409h130l-265 -317z" />
    <glyph glyph-name="L" unicode="L" horiz-adv-x="570" 
d="M535 0h-440v729h109v-629h331v-100z" />
    <glyph glyph-name="M" unicode="M" horiz-adv-x="912" 
d="M202 0h-107v729h142l216 -496h6l217 496h141v-729h-106v372l8 211h-6l-256 -570l-257 570h-7l9 -212v-371z" />
    <glyph glyph-name="N" unicode="N" horiz-adv-x="791" 
d="M204 0h-109v729h132l363 -586h5l-7 218v368h108v-729h-132l-362 586h-5l7 -210v-376z" />
    <glyph glyph-name="O" unicode="O" horiz-adv-x="773" 
d="M42 364q0 171 94 272q94 102 250 102q158 0 251 -103q93 -102 93 -270q0 -173 -94 -274q-95 -101 -250 -101q-158 0 -251 103t-93 271zM157 365q0 -126 62 -202q62 -74 167 -74q106 0 168 75q62 76 62 200q0 126 -63 201q-63 76 -167 76q-106 0 -167 -76
q-62 -76 -62 -200z" />
    <glyph glyph-name="P" unicode="P" horiz-adv-x="679" 
d="M95 729h301q118 0 186 -65q69 -64 69 -171q0 -109 -70 -173q-68 -64 -185 -64l-192 1v-257h-109v729zM204 352h178q76 0 115 37t39 104q0 72 -43 104q-16 13 -41 21q-32 11 -70 11h-178v-277z" />
    <glyph glyph-name="Q" unicode="Q" horiz-adv-x="773" 
d="M478 0q57 -82 184 -82q29 0 50 4v-97q-24 -2 -41 -2q-109 0 -180.5 44t-99.5 123h-5q-158 0 -251 103t-93 271q0 171 94 272q94 102 250 102q158 0 251 -103q93 -102 93 -270q0 -143 -68 -241q-67 -96 -184 -124zM157 365q0 -126 62 -202q62 -74 167 -74q106 0 168 75
q62 76 62 200q0 126 -63 201q-63 76 -167 76q-106 0 -167 -76q-62 -76 -62 -200z" />
    <glyph glyph-name="R" unicode="R" horiz-adv-x="718" 
d="M204 0h-109v729h331q110 0 169.5 -55.5t59.5 -153.5q0 -62 -31 -109.5t-86 -72.5v-7q104 -23 104 -141v-108q0 -54 11 -82h-111q-11 24 -11 88v82q0 58 -24.5 83t-85.5 25h-217v-278zM204 633v-259h184q69 0 110.5 36.5t41.5 96.5q0 126 -139 126h-197z" />
    <glyph glyph-name="S" unicode="S" horiz-adv-x="673" 
d="M44 226h112q6 -148 180 -148q78 0 122.5 33t44.5 90q0 59 -44 82q-29 17 -65 26l-129 28q-61 13 -100 30q-100 44 -105 163q0 95 72 152q74 57 193 57q123 0 194.5 -57.5t73.5 -155.5h-112q-4 61 -46.5 93t-115.5 32q-68 0 -106.5 -28.5t-38.5 -77.5q0 -55 46 -79
q35 -17 77 -27l129 -26q79 -17 130 -59q62 -49 62 -143q0 -104 -75.5 -162.5t-206.5 -58.5q-139 0 -215 64q-75 65 -77 172z" />
    <glyph glyph-name="T" unicode="T" horiz-adv-x="560" 
d="M6 729h548v-98h-220v-631h-108v631h-220v98z" />
    <glyph glyph-name="U" unicode="U" horiz-adv-x="775" 
d="M89 272v457h108v-448q0 -89 51.5 -140t139.5 -51t139 50.5t51 140.5v448h108v-457q0 -130 -81 -206q-79 -76 -218 -76q-143 0 -220 76q-78 76 -78 206z" />
    <glyph glyph-name="V" unicode="V" horiz-adv-x="672" 
d="M406 0h-140l-260 729h119l117 -338l90 -291h7l92 290l117 339h118z" />
    <glyph glyph-name="W" unicode="W" horiz-adv-x="942" 
d="M159 0l-149 729h118l80 -417l31 -192h7l154 609h143l156 -610h6l31 192l79 418h117l-149 -729h-151l-157 601h-6l-159 -601h-151z" />
    <glyph glyph-name="X" unicode="X" horiz-adv-x="638" 
d="M142 0h-128l227 368l-223 361h129l89 -149l83 -147h7l87 152l85 144h128l-225 -364l226 -365h-129l-81 131l-93 161h-6l-99 -167z" />
    <glyph glyph-name="Y" unicode="Y" horiz-adv-x="663" 
d="M277 291l-273 438h131l105 -179l88 -158h8l89 158l103 179h130l-273 -438v-291h-108v291z" />
    <glyph glyph-name="Z" unicode="Z" horiz-adv-x="578" 
d="M19 729h539v-88l-401 -543h396v-98h-534v88l401 543h-401v98z" />
    <glyph glyph-name="bracketleft" unicode="[" horiz-adv-x="314" 
d="M289 -219h-180v1003h180v-60h-115v-887h115v-56z" />
    <glyph glyph-name="backslash" unicode="\" horiz-adv-x="403" 
d="M91 729l286 -729h-68l-287 729h69z" />
    <glyph glyph-name="bracketright" unicode="]" horiz-adv-x="314" 
d="M205 -219h-180v56h116v887h-116v60h180v-1003z" />
    <glyph glyph-name="asciicircum" unicode="^" horiz-adv-x="384" 
d="M368 473h-87l-89 168l-89 -168h-87l140 256h73z" />
    <glyph glyph-name="underscore" unicode="_" horiz-adv-x="342" 
d="M344 -74h-346v74h346v-74z" />
    <glyph glyph-name="grave" unicode="`" horiz-adv-x="431" 
d="M321 773l-33 -52l-199 114l46 77z" />
    <glyph glyph-name="a" unicode="a" horiz-adv-x="569" 
d="M39 144q0 81 56 125.5t154 44.5h135v37q0 103 -110 103q-50 0 -80.5 -23t-32.5 -62h-100q6 76 65 121q59 46 152 46q101 0 154.5 -50.5t53.5 -140.5v-231q0 -39 31 -39q10 0 18 2v-76q-29 -8 -52 -8q-91 0 -93 92h-7q-16 -43 -63 -69t-108 -26q-78 0 -125.5 42.5
t-47.5 111.5zM144 156q0 -39 25.5 -61t70.5 -22q65 0 104.5 40.5t39.5 104.5v25h-124q-116 0 -116 -87z" />
    <glyph glyph-name="b" unicode="b" horiz-adv-x="633" 
d="M174 0h-93v736h103v-310h7q20 50 68.5 80t111.5 30q97 0 159 -75q62 -74 62 -199q0 -124 -61 -198q-62 -74 -163 -74q-61 0 -109 27.5t-68 75.5h-7zM184 290v-59q0 -67 43 -110q44 -42 109 -42q68 0 109 47.5t41 135.5q0 90 -40.5 137t-108.5 47t-110.5 -43t-42.5 -113z
" />
    <glyph glyph-name="c" unicode="c" horiz-adv-x="565" 
d="M424 183h105q-8 -88 -72 -140q-65 -53 -163 -53q-115 0 -184 74q-69 75 -69 198q0 124 69 199q70 75 187 75q95 0 157 -52q64 -51 72 -135h-104q-10 47 -44 72t-83 25q-71 0 -110 -49.5t-39 -135.5q0 -87 39.5 -134.5t108.5 -47.5q54 0 89 28.5t41 75.5z" />
    <glyph glyph-name="d" unicode="d" horiz-adv-x="633" 
d="M553 736v-736h-93l-11 93h-7q-20 -48 -68.5 -75.5t-110.5 -27.5q-102 0 -162 72q-60 74 -60 197q0 128 61 202q62 75 162 75q64 0 110.5 -30.5t67.5 -82.5h7v313h104zM449 231v59q0 70 -42.5 113t-110.5 43q-72 0 -111 -50q-38 -50 -38 -137t39 -134q40 -46 108 -46
t111 43q44 44 44 109z" />
    <glyph glyph-name="e" unicode="e" horiz-adv-x="571" 
d="M292 -10q-113 0 -182 74t-69 197q0 124 68 200q69 75 182 75q110 0 173.5 -64.5t63.5 -173.5q0 -26 -5 -58h-378q-1 -79 38.5 -123t109.5 -44q53 0 89 24t46 64h103q-14 -77 -79 -124t-160 -47zM146 314h278q0 66 -35.5 102.5t-99.5 36.5q-63 0 -102 -38t-41 -101z" />
    <glyph glyph-name="f" unicode="f" horiz-adv-x="348" 
d="M335 526v-86h-123v-440h-103v440h-96v86h96v61q0 77 42.5 116t120.5 39q42 0 63 -7v-84q-25 5 -46 5q-41 0 -59 -19.5t-18 -59.5v-51h123z" />
    <glyph glyph-name="g" unicode="g" horiz-adv-x="543" 
d="M32 -56q0 37 21.5 64.5t57.5 37.5v7q-25 8 -39.5 28t-14.5 46q0 32 19 55.5t52 33.5v7q-76 45 -76 139q0 78 56 126t146 48q57 0 95 -20q15 44 57.5 70.5t99.5 26.5v-83q-35 0 -62 -13.5t-35 -34.5q52 -46 52 -123q0 -78 -55 -124q-56 -47 -145 -47q-42 0 -69 7
q-40 -7 -40 -44q0 -43 68 -43h134q77 0 119.5 -36t42.5 -99q0 -78 -67.5 -117t-192.5 -39q-111 0 -167.5 33.5t-56.5 93.5zM154 361q0 -47 27.5 -73.5t74.5 -26.5q48 0 75.5 27t27.5 73q0 47 -28 74t-75 27t-74.5 -27.5t-27.5 -73.5zM126 -38q0 -69 135 -69q152 0 152 76
q0 56 -72 56h-136q-38 0 -58.5 -16.5t-20.5 -46.5z" />
    <glyph glyph-name="h" unicode="h" horiz-adv-x="623" 
d="M184 0h-103v736h103v-306h7q25 50 71 78t105 28q86 0 134 -57t48 -157v-322h-104v312q0 134 -116 134q-66 0 -105.5 -46t-39.5 -121v-279z" />
    <glyph glyph-name="i" unicode="i" horiz-adv-x="264" 
d="M183 605h-102v123h102v-123zM183 0h-102v526h102v-526z" />
    <glyph glyph-name="j" unicode="j" horiz-adv-x="269" 
d="M188 605h-103v123h103v-123zM32 -174q-13 0 -55 5v87q8 -4 30 -4q78 0 78 82v530h103v-542q0 -75 -42 -116.5t-114 -41.5z" />
    <glyph glyph-name="k" unicode="k" horiz-adv-x="568" 
d="M553 0h-119l-164 248l-85 -87v-161h-104v736h104v-445l227 235h131l-202 -206z" />
    <glyph glyph-name="l" unicode="l" horiz-adv-x="264" 
d="M183 0h-102v736h102v-736z" />
    <glyph glyph-name="m" unicode="m" horiz-adv-x="931" 
d="M184 0h-103v526h89l14 -98h8q48 108 159 108q54 0 94.5 -30.5t58.5 -82.5h8q23 54 68 83.5t103 29.5q83 0 128.5 -57t45.5 -158v-321h-103v311q0 135 -107 135q-62 0 -94 -43t-32 -120v-283h-104v311q0 135 -105 135q-59 0 -93.5 -44.5t-34.5 -117.5v-284z" />
    <glyph glyph-name="n" unicode="n" horiz-adv-x="623" 
d="M184 0h-103v526h90l14 -98h7q24 51 70.5 79.5t105.5 28.5q86 0 134 -57.5t48 -157.5v-321h-104v311q0 135 -117 135q-66 0 -105.5 -47t-39.5 -123v-276z" />
    <glyph glyph-name="o" unicode="o" horiz-adv-x="591" 
d="M41 261q0 122 70 198q71 77 185 77t184 -76q71 -77 71 -198q0 -120 -71 -197q-70 -75 -184 -75t-185 75q-70 76 -70 196zM146 262q0 -84 40.5 -133t109.5 -49t109 49t40 134q0 84 -40 133.5t-109 49.5t-109.5 -49.5t-40.5 -134.5z" />
    <glyph glyph-name="p" unicode="p" horiz-adv-x="633" 
d="M81 -167v693h93l10 -95h7q21 48 69 76.5t110 28.5q103 0 163 -74t60 -197q0 -127 -62 -201t-163 -74q-62 0 -109.5 29t-67.5 78h-7v-264h-103zM184 292v-59q0 -68 43 -111t110 -43q71 0 110.5 50t39.5 136t-39.5 133.5t-108.5 47.5q-67 0 -111 -44t-44 -110z" />
    <glyph glyph-name="q" unicode="q" horiz-adv-x="633" 
d="M460 526h93v-693h-104v264h-7q-21 -49 -69 -78t-111 -29q-99 0 -161 74q-60 74 -60 198t60 199q62 75 163 75q63 0 110.5 -28.5t67.5 -76.5h7zM449 233v59q0 66 -44 110t-110 44q-68 0 -108 -46.5t-40 -136.5q0 -88 40.5 -136t108.5 -48q67 0 110 43t43 111z" />
    <glyph glyph-name="r" unicode="r" horiz-adv-x="370" 
d="M184 0h-103v526h90l13 -105h6q44 113 169 113v-92q-175 -2 -175 -204v-238z" />
    <glyph glyph-name="s" unicode="s" horiz-adv-x="517" 
d="M41 161h101q0 -43 31.5 -68t87.5 -25q51 0 79 21t28 58q0 54 -66 66l-107 20q-144 25 -144 142q0 75 55 118t149 43t149 -44t57 -118h-100q-3 84 -107 84q-47 0 -73 -19.5t-26 -53.5q0 -57 80 -68l100 -18q140 -26 140 -148q0 -74 -58.5 -117.5t-155.5 -43.5
q-102 0 -161 46.5t-59 124.5z" />
    <glyph glyph-name="t" unicode="t" horiz-adv-x="351" 
d="M12 440v86h88v151l104 40v-191h116v-86h-116v-282q0 -40 15 -59.5t55 -19.5q29 0 46 5v-84q-37 -8 -73 -8q-147 0 -147 155v293h-88z" />
    <glyph glyph-name="u" unicode="u" horiz-adv-x="610" 
d="M433 526h103v-526h-89l-14 97h-8q-50 -107 -177 -107q-83 0 -129 53t-46 149v334h104v-319q0 -128 111 -128q66 0 105.5 47.5t39.5 123.5v276z" />
    <glyph glyph-name="v" unicode="v" horiz-adv-x="493" 
d="M185 0l-187 526h113l84 -264l50 -162h6l47 161l84 265h113l-185 -526h-125z" />
    <glyph glyph-name="w" unicode="w" horiz-adv-x="757" 
d="M575 260l66 266h107l-143 -526h-133l-61 258l-31 139h-6l-29 -139l-59 -258h-132l-146 526h109l66 -264l34 -159h8l94 423h121l96 -422h7z" />
    <glyph glyph-name="x" unicode="x" horiz-adv-x="483" 
d="M110 0h-109l181 264l-174 262h112l122 -193h6l120 193h110l-170 -260l178 -266h-113l-127 194h-6z" />
    <glyph glyph-name="y" unicode="y" horiz-adv-x="483" 
d="M195 19l-198 507h112l84 -241l50 -159h6l48 159l78 241h109l-188 -535q-58 -168 -212 -168q-21 0 -51 5v87q21 -4 42 -4q83 0 109 80z" />
    <glyph glyph-name="z" unicode="z" horiz-adv-x="476" 
d="M435 448l-273 -363h276v-85h-400v77l272 363h-273v86h398v-78z" />
    <glyph glyph-name="braceleft" unicode="{" horiz-adv-x="303" 
d="M34 254v65q67 0 67 74v318q0 73 72 73h105v-60h-111v-327q0 -46 -20 -74.5t-53 -33.5v-3q33 -5 53 -34.5t20 -73.5v-341h111v-56h-105q-72 0 -72 72v328q0 37 -18 55t-49 18z" />
    <glyph glyph-name="bar" unicode="|" horiz-adv-x="305" 
d="M197 -37h-91v790h91v-790z" />
    <glyph glyph-name="braceright" unicode="}" horiz-adv-x="303" 
d="M269 319v-65q-68 0 -68 -73v-328q0 -72 -71 -72h-105v56h109v341q0 44 21 73.5t55 34.5v3q-34 5 -55 33.5t-21 74.5v327h-109v60h105q34 0 52.5 -19t18.5 -54v-318q0 -74 68 -74z" />
    <glyph glyph-name="asciitilde" unicode="~" horiz-adv-x="384" 
d="M78 277h-56q-5 69 20.5 101.5t70.5 32.5q32 0 81 -25q50 -25 75 -25q47 0 47 62h55q5 -70 -23 -104.5t-75 -34.5q-38 0 -89 25q-54 26 -70 26q-41 0 -36 -58z" />
    <glyph glyph-name="uni00A0" unicode="&#xa0;" horiz-adv-x="228" 
 />
    <glyph glyph-name="exclamdown" unicode="&#xa1;" horiz-adv-x="286" 
d="M85 623v106h116v-106h-116zM91 209l27 298h51l27 -298v-209h-105v209z" />
    <glyph glyph-name="cent" unicode="&#xa2;" horiz-adv-x="532" 
d="M390 289h102q-11 -75 -63 -123t-130 -58v-78h-75v79q-91 12 -144 79.5t-53 174.5q0 105 53.5 174t143.5 82v80h75v-79q79 -9 130.5 -56t61.5 -119h-102q-10 43 -43.5 67t-82.5 24q-64 0 -99.5 -47t-35.5 -128t35.5 -125t98.5 -44q50 0 84 26t44 71z" />
    <glyph glyph-name="sterling" unicode="&#xa3;" horiz-adv-x="644" 
d="M494 93v147h92v-240h-541v93h71v226h-71v86h71v116q0 99 59.5 158t161.5 59q90 0 149 -48t67 -127h-104q-7 38 -39 60.5t-75 22.5q-52 0 -83.5 -33t-31.5 -92v-116h229v-86h-229v-226h274z" />
    <glyph glyph-name="currency" unicode="&#xa4;" horiz-adv-x="653" 
d="M138 82l-61 58l75 66q-45 60 -44.5 131.5t44.5 131.5l-74 65l59 60l64 -76q55 40 126 39q71 0 126 -39l63 76l59 -60l-71 -64q44 -58 44.5 -130.5t-44.5 -133.5l72 -66l-59 -58l-63 75q-59 -41 -127 -41q-69 0 -125 42zM199 338q0 -59 36.5 -97t91.5 -38q54 1 90.5 39.5
t36.5 95.5t-36.5 94t-91.5 37t-90.5 -36t-36.5 -95z" />
    <glyph glyph-name="yen" unicode="&#xa5;" horiz-adv-x="625" 
d="M498 729h123l-205 -364h99v-87h-148v-60h148v-87h-148v-131h-108v131h-149v87h149v60h-149v87h100l-206 364h125l108 -207l72 -149h7l74 149z" />
    <glyph glyph-name="brokenbar" unicode="&#xa6;" horiz-adv-x="305" 
d="M197 436h-91v317h91v-317zM197 -39h-91v313h91v-313z" />
    <glyph glyph-name="section" unicode="&#xa7;" horiz-adv-x="519" 
d="M45 360q0 39 21 68.5t57 42.5v10q-57 35 -57 102t54 107.5t145 40.5q89 0 144 -42t58 -109h-105q-4 32 -32 49.5t-72 17.5q-79 0 -79 -61q0 -35 28 -53q15 -9 49 -24l103 -41q118 -40 118 -135q0 -76 -66 -109v-10q55 -34 55 -103q0 -71 -54.5 -111t-147.5 -40
q-91 0 -147.5 40t-61.5 110h108q4 -32 31.5 -50t71.5 -18q85 0 85 65q0 28 -16.5 43.5t-57.5 31.5l-116 44q-116 45 -116 134zM152 387q0 -49 65 -75l97 -40q1 -1 17 -7.5t24 -11.5q19 19 19 50q0 38 -23 54q-18 15 -41 23l-90 40q-2 1 -8 3t-16 6t-21 10q-23 -20 -23 -52z
" />
    <glyph glyph-name="dieresis" unicode="&#xa8;" horiz-adv-x="396" 
d="M143 738h-90v127h90v-127zM339 738h-90v127h90v-127z" />
    <glyph glyph-name="copyright" unicode="&#xa9;" horiz-adv-x="940" 
d="M471 -60q-172 0 -293 115t-121 297q0 180 121 295q122 116 293 116q109 2 204 -50t152.5 -148t55.5 -211q0 -181 -121 -298q-121 -116 -291 -116zM848 354q0 165 -110 272q-109 106 -267 106q-157 0 -269 -107q-111 -107 -111 -273q0 -167 110 -274q112 -107 269 -107
q158 0 268 107t110 276zM476 130q-96 0 -160 62q-63 62 -63 160t63 160q64 62 161 62q85 0 144 -48q59 -46 67 -124h-80q-7 46 -43 74.5t-89 28.5q-66 0 -104 -42t-38 -111q0 -70 38 -111.5t103 -41.5q53 0 89.5 28.5t43.5 73.5h80q-7 -73 -68 -123q-58 -48 -144 -48z" />
    <glyph glyph-name="ordfeminine" unicode="&#xaa;" horiz-adv-x="437" 
d="M386 418q10 0 12 1v-63q-16 -6 -39 -6q-35 0 -53.5 19.5t-16.5 53.5h-5q-13 -35 -44.5 -54.5t-74.5 -19.5q-55 0 -88 31.5t-33 82.5q0 54 38.5 85t104.5 31h94v16q0 68 -77 68q-64 0 -76 -48h-78q6 52 49.5 83t110.5 31q74 0 112.5 -37t38.5 -105v-141q0 -28 25 -28z
M281 505v18h-83q-74 0 -74 -57q0 -25 17 -38.5t47 -13.5q42 0 67.5 26t25.5 65z" />
    <glyph glyph-name="guillemotleft" unicode="&#xab;" horiz-adv-x="533" 
d="M194 64l-121 210l121 208h90l-109 -208l109 -210h-90zM393 64l-121 210l121 208h91l-110 -208l110 -210h-91z" />
    <glyph glyph-name="logicalnot" unicode="&#xac;" horiz-adv-x="627" 
d="M553 151h-92v167h-383v90h475v-257z" />
    <glyph glyph-name="registered" unicode="&#xae;" horiz-adv-x="616" 
d="M307 211q-112 0 -189 74q-75 75 -75 190t75 189q77 74 189 74q113 0 190 -74q76 -73 76 -189q0 -115 -76 -190q-77 -74 -190 -74zM308 243q98 0 165 65q67 64 67 167q0 102 -67 168q-66 66 -165 66q-98 0 -165 -67q-66 -66 -66 -168t66 -166q68 -65 165 -65zM257 351h-46
v254h119q38 0 59.5 -19.5t21.5 -53.5q0 -46 -39 -65v-1q35 -9 35 -49v-36q0 -21 3 -30h-46q-4 8 -4 31v26q0 36 -36 36h-67v-93zM257 566v-85h58q48 0 48 44q0 41 -46 41h-60z" />
    <glyph glyph-name="overscore" unicode="&#xaf;" horiz-adv-x="354" 
d="M337 734h-322v76h322v-76z" />
    <glyph glyph-name="degree" unicode="&#xb0;" horiz-adv-x="418" 
d="M359 585q0 -64 -43 -106q-44 -41 -109 -41q-64 0 -105.5 41.5t-41.5 105.5q0 66 41.5 107.5t105.5 41.5q66 0 109 -41.5t43 -107.5zM285 585q0 35 -22 57.5t-55 22.5q-31 0 -53 -22.5t-22 -57.5q0 -33 22 -55.5t53 -22.5q32 0 54.5 22.5t22.5 55.5z" />
    <glyph glyph-name="plusminus" unicode="&#xb1;" horiz-adv-x="657" 
d="M578 336h-202v-169h-98v169h-200v91h200v169h98v-169h202v-91zM578 0h-500v94h500v-94z" />
    <glyph glyph-name="uni00B2" unicode="&#xb2;" horiz-adv-x="452" 
d="M149 374l93 4h168v-78h-359v19q0 113 92 187q14 12 45 35.5t47.5 38t37 36t30 43.5t9.5 46q0 41 -24 64t-66 23q-46 0 -71.5 -26.5t-23.5 -74.5h-88q-1 81 50.5 129.5t135.5 48.5q81 0 130.5 -45.5t49.5 -117.5q0 -91 -81 -160q-13 -11 -64 -50t-76.5 -66t-34.5 -56z" />
    <glyph glyph-name="uni00B3" unicode="&#xb3;" horiz-adv-x="465" 
d="M231 292q-87 0 -137.5 49t-48.5 129h91q-2 -48 24 -74.5t72 -26.5t73.5 25.5t27.5 67.5q0 43 -29 67t-79 24h-45v73h40q49 0 75.5 23.5t26.5 62.5q0 37 -25 58.5t-65 21.5q-46 0 -71.5 -26.5t-24.5 -72.5h-89q-3 79 48 127q52 49 138 49q79 0 130 -40.5t51 -108.5
q0 -87 -82 -124v-4q44 -17 68 -53t24 -82q0 -73 -54 -119q-52 -46 -139 -46z" />
    <glyph glyph-name="acute" unicode="&#xb4;" horiz-adv-x="432" 
d="M343 833l-200 -113l-32 51l186 140z" />
    <glyph glyph-name="paragraph" unicode="&#xb6;" horiz-adv-x="677" 
d="M259 729h321v-74h-71v-656q0 -145 -144 -145h-259v67h149v437q-93 0 -147 50t-54 134q0 87 55.5 137t149.5 50zM336 -79h25q36 0 51.5 18t15.5 58v658h-92v-734z" />
    <glyph glyph-name="middot" unicode="&#xb7;" horiz-adv-x="294" 
d="M65 282q0 36 24 61t57 25q34 0 58.5 -25.5t24.5 -60.5q0 -34 -24.5 -58.5t-58.5 -24.5q-33 0 -57 24.5t-24 58.5z" />
    <glyph glyph-name="cedilla" unicode="&#xb8;" horiz-adv-x="524" 
d="M293 4l-28 -46q35 3 61.5 -18t26.5 -59q1 -33 -18 -55.5t-47 -30t-58 -4t-50 19.5v54q27 -25 67 -21q41 5 41 40q0 26 -21.5 34.5t-63.5 -2.5v27l51 89h39v-28z" />
    <glyph glyph-name="uni00B9" unicode="&#xb9;" horiz-adv-x="354" 
d="M174 697h-143v68h23q54 0 89 27t36 70h82v-562h-87v397z" />
    <glyph glyph-name="ordmasculine" unicode="&#xba;" horiz-adv-x="450" 
d="M44 538q0 85 50 138t131 53t130 -54q50 -53 50 -137q0 -83 -50 -136q-49 -52 -130 -52q-82 0 -131 52q-50 53 -50 136zM126 539q0 -55 27 -88.5t72 -33.5q44 0 71.5 34t27.5 89q0 54 -27 87.5t-72 33.5t-72 -33t-27 -89z" />
    <glyph glyph-name="guillemotright" unicode="&#xbb;" horiz-adv-x="533" 
d="M142 482l120 -208l-120 -210h-91l110 210l-110 208h91zM341 482l120 -208l-120 -210h-92l111 210l-111 208h92z" />
    <glyph glyph-name="onequarter" unicode="&#xbc;" horiz-adv-x="894" 
d="M173 -46l410 814h84l-410 -814h-84zM233 729v-473h-81v326h-123v65h45q82 0 82 78v4h77zM819 480v-316h52v-73h-52v-91h-81v91h-213v68l167 321h127zM738 403l-124 -239h124v239z" />
    <glyph glyph-name="onehalf" unicode="&#xbd;" horiz-adv-x="909" 
d="M173 -46l410 814h84l-410 -814h-84zM233 729v-473h-81v326h-123v65h45q82 0 82 78v4h77zM664 69l73 4h133v-73h-299v16q0 98 77 162q11 10 37.5 30t40 32t30.5 30.5t25 36.5t8 38q0 32 -19.5 51.5t-52.5 19.5q-35 0 -55.5 -23.5t-19.5 -60.5l-80 5q1 67 45 108t115 41
q69 0 109.5 -39t40.5 -102q0 -77 -64 -134q-11 -10 -52 -42t-62.5 -54.5t-29.5 -45.5z" />
    <glyph glyph-name="threequarters" unicode="&#xbe;" horiz-adv-x="964" 
d="M245 -46l410 814h84l-410 -814h-84zM348 387q0 -61 -45 -100t-114 -39q-71 0 -114 41t-42 108h82q-1 -36 20 -57t54 -21t54.5 20t21.5 50q0 33 -22.5 52.5t-59.5 19.5h-37v74h30q37 0 57.5 18.5t20.5 49.5q0 29 -18.5 45t-47.5 16q-34 0 -54 -21.5t-19 -56.5h-82
q-2 67 40 108t115 41q67 0 109 -35.5t42 -92.5q0 -71 -67 -102v-5q76 -30 76 -113zM890 480v-316h52v-73h-52v-91h-81v91h-213v68l167 321h127zM809 403l-124 -239h124v239z" />
    <glyph glyph-name="questiondown" unicode="&#xbf;" horiz-adv-x="583" 
d="M272 729h125v-120h-125v120zM284 529h99v-199q-34 7 -67 7q-73 0 -114.5 -34.5t-41.5 -95.5q0 -57 38 -90.5t101 -33.5q62 0 98 30t40 83h103q-4 -96 -71 -150q-66 -54 -172 -54q-113 0 -177 58q-65 59 -65 157q0 91 63 150q64 59 166 62v110z" />
    <glyph glyph-name="Agrave" unicode="&#xc0;" horiz-adv-x="677" 
d="M183 968l186 -139l-33 -52l-199 114zM673 0h-118l-58 160h-323l-58 -160h-113l270 729h126zM248 362l-42 -114h259l-41 114l-84 255h-5z" />
    <glyph glyph-name="Aacute" unicode="&#xc1;" horiz-adv-x="677" 
d="M489 967l46 -78l-200 -113l-32 51zM673 0h-118l-58 160h-323l-58 -160h-113l270 729h126zM248 362l-42 -114h259l-41 114l-84 255h-5z" />
    <glyph glyph-name="Acircumflex" unicode="&#xc2;" horiz-adv-x="677" 
d="M442 776l-106 112l-106 -112l-50 49l124 127h66l123 -127zM673 0h-118l-58 160h-323l-58 -160h-113l270 729h126zM248 362l-42 -114h259l-41 114l-84 255h-5z" />
    <glyph glyph-name="Atilde" unicode="&#xc3;" horiz-adv-x="677" 
d="M269 820q-31 -2 -53 -34l-44 31q38 77 100 80q24 1 66 -19t62 -19q29 1 55 35l44 -31q-36 -79 -99 -81q-32 -2 -72 18q-41 21 -59 20zM673 0h-118l-58 160h-323l-58 -160h-113l270 729h126zM248 362l-42 -114h259l-41 114l-84 255h-5z" />
    <glyph glyph-name="Adieresis" unicode="&#xc4;" horiz-adv-x="677" 
d="M192 921h90v-127h-90v127zM388 921h90v-127h-90v127zM673 0h-118l-58 160h-323l-58 -160h-113l270 729h126zM248 362l-42 -114h259l-41 114l-84 255h-5z" />
    <glyph glyph-name="Aring" unicode="&#xc5;" horiz-adv-x="677" 
d="M673 0h-118l-58 160h-323l-58 -160h-113l263 711q-45 31 -45 92q0 51 32 81.5t83 30.5t83 -30.5t32 -81.5q0 -61 -45 -92zM282 803q0 -25 15 -41t39 -16t38.5 16t14.5 41q0 26 -14.5 42t-38.5 16t-39 -16t-15 -42zM248 362l-42 -114h259l-41 114l-84 255h-5z" />
    <glyph glyph-name="AE" unicode="&#xc6;" horiz-adv-x="963" 
d="M907 729v-97h-387v-222h330v-91h-330v-222h387v-97h-496v193h-233l-62 -193h-113l244 729h660zM205 280h206v352h-93z" />
    <glyph glyph-name="Ccedilla" unicode="&#xc7;" horiz-adv-x="752" 
d="M385 87q84 0 138.5 41.5t69.5 114.5h113q-13 -110 -97 -180q-84 -69 -205 -73l-18 -29q35 3 61.5 -18t26.5 -59q1 -33 -18 -55.5t-47 -30t-58 -4t-50 19.5v54q27 -25 67 -21q41 5 41 40q0 26 -21.5 34.5t-63.5 -2.5v27l26 46q-140 12 -224 113q-84 102 -84 259
q0 167 95 271q94 103 250 103q128 0 216 -68q86 -67 103 -182h-113q-17 72 -72.5 112.5t-133.5 40.5q-107 0 -168 -75q-62 -76 -62 -202q0 -129 61 -203q62 -74 167 -74z" />
    <glyph glyph-name="Egrave" unicode="&#xc8;" horiz-adv-x="644" 
d="M363 829l-33 -52l-199 114l46 77zM587 0h-492v729h492v-97h-383v-210h335v-92h-335v-233h383v-97z" />
    <glyph glyph-name="Eacute" unicode="&#xc9;" horiz-adv-x="644" 
d="M528 889l-200 -113l-32 51l186 140zM587 0h-492v729h492v-97h-383v-210h335v-92h-335v-233h383v-97z" />
    <glyph glyph-name="Ecircumflex" unicode="&#xca;" horiz-adv-x="644" 
d="M224 776l-50 49l124 127h66l123 -127l-51 -49l-106 112zM587 0h-492v729h492v-97h-383v-210h335v-92h-335v-233h383v-97z" />
    <glyph glyph-name="Edieresis" unicode="&#xcb;" horiz-adv-x="644" 
d="M276 794h-90v127h90v-127zM472 794h-90v127h90v-127zM587 0h-492v729h492v-97h-383v-210h335v-92h-335v-233h383v-97z" />
    <glyph glyph-name="Igrave" unicode="&#xcc;" horiz-adv-x="299" 
d="M183 829l-33 -52l-199 114l46 77zM204 729v-729h-109v729h109z" />
    <glyph glyph-name="Iacute" unicode="&#xcd;" horiz-adv-x="299" 
d="M349 889l-200 -113l-32 51l186 140zM204 729v-729h-109v729h109z" />
    <glyph glyph-name="Icircumflex" unicode="&#xce;" horiz-adv-x="299" 
d="M44 776l-50 49l124 127h66l123 -127l-51 -49l-106 112zM204 729v-729h-109v729h109z" />
    <glyph glyph-name="Idieresis" unicode="&#xcf;" horiz-adv-x="299" 
d="M97 794h-90v127h90v-127zM293 794h-90v127h90v-127zM204 729v-729h-109v729h109z" />
    <glyph glyph-name="Eth" unicode="&#xd0;" horiz-adv-x="748" 
d="M95 729h285q155 0 240 -100q86 -100 86 -265t-86 -265q-86 -99 -240 -99h-285v332h-88v89h88v308zM204 97h165q105 0 164 70t59 198q0 129 -59.5 198t-163.5 69h-165v-211h128v-89h-128v-235z" />
    <glyph glyph-name="Ntilde" unicode="&#xd1;" horiz-adv-x="791" 
d="M481 782q-31 -2 -72 18q-41 21 -59 20q-31 -2 -53 -34l-44 31q38 77 100 80q24 1 66 -19t62 -19q29 1 55 35l44 -31q-36 -79 -99 -81zM204 0h-109v729h132l363 -586h5l-7 218v368h108v-729h-132l-362 586h-5l7 -210v-376z" />
    <glyph glyph-name="Ograve" unicode="&#xd2;" horiz-adv-x="773" 
d="M419 829l-33 -52l-199 114l46 77zM42 364q0 171 94 272q94 102 250 102q158 0 251 -103q93 -102 93 -270q0 -173 -94 -274q-95 -101 -250 -101q-158 0 -251 103t-93 271zM157 365q0 -126 62 -202q62 -74 167 -74q106 0 168 75q62 76 62 200q0 126 -63 201q-63 76 -167 76
q-106 0 -167 -76q-62 -76 -62 -200z" />
    <glyph glyph-name="Oacute" unicode="&#xd3;" horiz-adv-x="773" 
d="M585 889l-200 -113l-32 51l186 140zM42 364q0 171 94 272q94 102 250 102q158 0 251 -103q93 -102 93 -270q0 -173 -94 -274q-95 -101 -250 -101q-158 0 -251 103t-93 271zM157 365q0 -126 62 -202q62 -74 167 -74q106 0 168 75q62 76 62 200q0 126 -63 201
q-63 76 -167 76q-106 0 -167 -76q-62 -76 -62 -200z" />
    <glyph glyph-name="Ocircumflex" unicode="&#xd4;" horiz-adv-x="773" 
d="M280 776l-50 49l124 127h66l123 -127l-51 -49l-106 112zM42 364q0 171 94 272q94 102 250 102q158 0 251 -103q93 -102 93 -270q0 -173 -94 -274q-95 -101 -250 -101q-158 0 -251 103t-93 271zM157 365q0 -126 62 -202q62 -74 167 -74q106 0 168 75q62 76 62 200
q0 126 -63 201q-63 76 -167 76q-106 0 -167 -76q-62 -76 -62 -200z" />
    <glyph glyph-name="Otilde" unicode="&#xd5;" horiz-adv-x="773" 
d="M451 782q-31 -2 -72 18q-41 21 -59 20q-31 -2 -53 -34l-44 31q38 77 100 80q24 1 66 -19t62 -19q29 1 55 35l44 -31q-36 -79 -99 -81zM42 364q0 171 94 272q94 102 250 102q158 0 251 -103q93 -102 93 -270q0 -173 -94 -274q-95 -101 -250 -101q-158 0 -251 103t-93 271z
M157 365q0 -126 62 -202q62 -74 167 -74q106 0 168 75q62 76 62 200q0 126 -63 201q-63 76 -167 76q-106 0 -167 -76q-62 -76 -62 -200z" />
    <glyph glyph-name="Odieresis" unicode="&#xd6;" horiz-adv-x="773" 
d="M333 794h-90v127h90v-127zM529 794h-90v127h90v-127zM42 364q0 171 94 272q94 102 250 102q158 0 251 -103q93 -102 93 -270q0 -173 -94 -274q-95 -101 -250 -101q-158 0 -251 103t-93 271zM157 365q0 -126 62 -202q62 -74 167 -74q106 0 168 75q62 76 62 200
q0 126 -63 201q-63 76 -167 76q-106 0 -167 -76q-62 -76 -62 -200z" />
    <glyph glyph-name="multiply" unicode="&#xd7;" horiz-adv-x="717" 
d="M151 18l-65 68l207 214l-207 215l65 67l203 -211h10l202 211l65 -67l-207 -215l207 -214l-65 -68l-202 211h-10z" />
    <glyph glyph-name="Oslash" unicode="&#xd8;" horiz-adv-x="854" 
d="M754 661l51 -70l-79 -58q30 -73 30 -168q0 -173 -94 -274q-95 -101 -250 -101q-170 0 -266 121l-58 -43l-46 71l61 45q-35 81 -35 180q0 171 94 272q95 102 250 102q179 0 272 -128zM183 365q0 -61 15 -111l397 290q-63 97 -183 97q-106 0 -167 -76q-62 -76 -62 -200z
M642 364q0 54 -12 99l-394 -287q62 -87 176 -87q106 0 168 75q62 76 62 200z" />
    <glyph glyph-name="Ugrave" unicode="&#xd9;" horiz-adv-x="775" 
d="M421 829l-33 -52l-199 114l46 77zM89 272v457h108v-448q0 -89 51.5 -140t139.5 -51t139 50.5t51 140.5v448h108v-457q0 -130 -81 -206q-79 -76 -218 -76q-143 0 -220 76q-78 76 -78 206z" />
    <glyph glyph-name="Uacute" unicode="&#xda;" horiz-adv-x="775" 
d="M586 889l-200 -113l-32 51l186 140zM89 272v457h108v-448q0 -89 51.5 -140t139.5 -51t139 50.5t51 140.5v448h108v-457q0 -130 -81 -206q-79 -76 -218 -76q-143 0 -220 76q-78 76 -78 206z" />
    <glyph glyph-name="Ucircumflex" unicode="&#xdb;" horiz-adv-x="775" 
d="M282 776l-50 49l124 127h66l123 -127l-51 -49l-106 112zM89 272v457h108v-448q0 -89 51.5 -140t139.5 -51t139 50.5t51 140.5v448h108v-457q0 -130 -81 -206q-79 -76 -218 -76q-143 0 -220 76q-78 76 -78 206z" />
    <glyph glyph-name="Udieresis" unicode="&#xdc;" horiz-adv-x="775" 
d="M334 794h-90v127h90v-127zM530 794h-90v127h90v-127zM89 272v457h108v-448q0 -89 51.5 -140t139.5 -51t139 50.5t51 140.5v448h108v-457q0 -130 -81 -206q-79 -76 -218 -76q-143 0 -220 76q-78 76 -78 206z" />
    <glyph glyph-name="Yacute" unicode="&#xdd;" horiz-adv-x="663" 
d="M531 889l-200 -113l-32 51l186 140zM277 291l-273 438h131l105 -179l88 -158h8l89 158l103 179h130l-273 -438v-291h-108v291z" />
    <glyph glyph-name="Thorn" unicode="&#xde;" horiz-adv-x="671" 
d="M205 610h174q115 0 183 -65t68 -172q0 -108 -71 -171t-186 -63h-168v-139h-107v750h107v-140zM205 234h162q71 0 111 37.5t40 101.5t-42 101.5t-109 37.5h-162v-278z" />
    <glyph glyph-name="germandbls" unicode="&#xdf;" horiz-adv-x="598" 
d="M406 410v-7q71 -17 111 -69.5t40 -123.5q0 -94 -68 -153q-67 -57 -180 -57h-57v87h46q71 0 112.5 37.5t41.5 100.5q0 62 -42 98t-111 36h-16v82h14q49 0 78 30t29 78t-30 76.5t-79 28.5q-51 0 -79.5 -31t-28.5 -85v-538h-102v424h-73v85h73v26q0 100 57.5 155t156.5 55
q93 0 151 -50q58 -49 58 -130q0 -55 -27 -96t-75 -59z" />
    <glyph glyph-name="agrave" unicode="&#xe0;" horiz-adv-x="569" 
d="M307 636l-33 -52l-199 114l46 77zM39 144q0 81 56 125.5t154 44.5h135v37q0 103 -110 103q-50 0 -80.5 -23t-32.5 -62h-100q6 76 65 121q59 46 152 46q101 0 154.5 -50.5t53.5 -140.5v-231q0 -39 31 -39q10 0 18 2v-76q-29 -8 -52 -8q-91 0 -93 92h-7q-16 -43 -63 -69
t-108 -26q-78 0 -125.5 42.5t-47.5 111.5zM144 156q0 -39 25.5 -61t70.5 -22q65 0 104.5 40.5t39.5 104.5v25h-124q-116 0 -116 -87z" />
    <glyph glyph-name="aacute" unicode="&#xe1;" horiz-adv-x="569" 
d="M473 696l-200 -113l-32 51l186 140zM39 144q0 81 56 125.5t154 44.5h135v37q0 103 -110 103q-50 0 -80.5 -23t-32.5 -62h-100q6 76 65 121q59 46 152 46q101 0 154.5 -50.5t53.5 -140.5v-231q0 -39 31 -39q10 0 18 2v-76q-29 -8 -52 -8q-91 0 -93 92h-7q-16 -43 -63 -69
t-108 -26q-78 0 -125.5 42.5t-47.5 111.5zM144 156q0 -39 25.5 -61t70.5 -22q65 0 104.5 40.5t39.5 104.5v25h-124q-116 0 -116 -87z" />
    <glyph glyph-name="acircumflex" unicode="&#xe2;" horiz-adv-x="569" 
d="M168 584l-50 49l124 127h66l123 -127l-51 -49l-106 112zM39 144q0 81 56 125.5t154 44.5h135v37q0 103 -110 103q-50 0 -80.5 -23t-32.5 -62h-100q6 76 65 121q59 46 152 46q101 0 154.5 -50.5t53.5 -140.5v-231q0 -39 31 -39q10 0 18 2v-76q-29 -8 -52 -8q-91 0 -93 92
h-7q-16 -43 -63 -69t-108 -26q-78 0 -125.5 42.5t-47.5 111.5zM144 156q0 -39 25.5 -61t70.5 -22q65 0 104.5 40.5t39.5 104.5v25h-124q-116 0 -116 -87z" />
    <glyph glyph-name="atilde" unicode="&#xe3;" horiz-adv-x="569" 
d="M339 590q-31 -2 -72 18q-41 21 -59 20q-31 -2 -53 -34l-44 31q38 77 100 80q24 1 66 -19t62 -19q29 1 55 35l44 -31q-36 -79 -99 -81zM39 144q0 81 56 125.5t154 44.5h135v37q0 103 -110 103q-50 0 -80.5 -23t-32.5 -62h-100q6 76 65 121q59 46 152 46q101 0 154.5 -50.5
t53.5 -140.5v-231q0 -39 31 -39q10 0 18 2v-76q-29 -8 -52 -8q-91 0 -93 92h-7q-16 -43 -63 -69t-108 -26q-78 0 -125.5 42.5t-47.5 111.5zM144 156q0 -39 25.5 -61t70.5 -22q65 0 104.5 40.5t39.5 104.5v25h-124q-116 0 -116 -87z" />
    <glyph glyph-name="adieresis" unicode="&#xe4;" horiz-adv-x="569" 
d="M221 601h-90v127h90v-127zM417 601h-90v127h90v-127zM39 144q0 81 56 125.5t154 44.5h135v37q0 103 -110 103q-50 0 -80.5 -23t-32.5 -62h-100q6 76 65 121q59 46 152 46q101 0 154.5 -50.5t53.5 -140.5v-231q0 -39 31 -39q10 0 18 2v-76q-29 -8 -52 -8q-91 0 -93 92h-7
q-16 -43 -63 -69t-108 -26q-78 0 -125.5 42.5t-47.5 111.5zM144 156q0 -39 25.5 -61t70.5 -22q65 0 104.5 40.5t39.5 104.5v25h-124q-116 0 -116 -87z" />
    <glyph glyph-name="aring" unicode="&#xe5;" horiz-adv-x="569" 
d="M517 75q10 0 18 2v-76q-29 -8 -52 -8q-91 0 -93 92h-7q-16 -43 -63 -69t-108 -26q-78 0 -125.5 42.5t-47.5 111.5q0 81 56 125.5t154 44.5h135v37q0 103 -110 103q-50 0 -80.5 -23t-32.5 -62h-100q4 56 39.5 97t95.5 59q-37 31 -37 86q0 51 32 81.5t83 30.5t83 -30.5
t32 -81.5q0 -52 -35 -84q132 -35 132 -182v-231q0 -39 31 -39zM220 611q0 -25 15 -41t39 -16t38.5 16t14.5 41q0 26 -14.5 42t-38.5 16t-39 -16t-15 -42zM384 218v25h-124q-116 0 -116 -87q0 -39 25.5 -61t70.5 -22q65 0 104.5 40.5t39.5 104.5z" />
    <glyph glyph-name="ae" unicode="&#xe6;" horiz-adv-x="922" 
d="M785 158h97q-15 -77 -79 -122.5t-156 -45.5q-151 0 -215 115q-26 -54 -81 -84.5t-125 -30.5q-82 0 -133 44.5t-51 116.5q0 79 54 124.5t152 45.5h138v22q0 53 -31.5 81t-87.5 28q-48 0 -80.5 -22t-36.5 -58h-102q8 75 68 119.5t155 44.5q125 0 181 -84q64 84 186 84
q106 0 172 -67q67 -66 67 -173q0 -18 -4 -57h-378q-2 -75 38.5 -118.5t114.5 -43.5q51 0 88 22t49 59zM638 451q-62 0 -101 -36.5t-42 -97.5h280q-1 61 -39 97.5t-98 36.5zM386 223v21h-127q-112 0 -112 -84q0 -39 26.5 -61.5t71.5 -22.5q65 0 103 40.5t38 106.5z" />
    <glyph glyph-name="ccedilla" unicode="&#xe7;" horiz-adv-x="565" 
d="M424 183h105q-7 -83 -66.5 -135.5t-150.5 -57.5l-20 -32q35 3 61.5 -18t26.5 -59q1 -33 -18 -55.5t-47 -30t-58 -4t-50 19.5v54q27 -25 67 -21q41 5 41 40q0 26 -21.5 34.5t-63.5 -2.5v27l28 49q-100 12 -158 84q-59 74 -59 186q0 124 69 199q70 75 187 75q95 0 157 -52
q64 -51 72 -135h-104q-10 47 -44 72t-83 25q-71 0 -110 -49.5t-39 -135.5q0 -87 39.5 -134.5t108.5 -47.5q54 0 89 28.5t41 75.5z" />
    <glyph glyph-name="egrave" unicode="&#xe8;" horiz-adv-x="571" 
d="M317 636l-33 -52l-199 114l46 77zM292 -10q-113 0 -182 74t-69 197q0 124 68 200q69 75 182 75q110 0 173.5 -64.5t63.5 -173.5q0 -26 -5 -58h-378q-1 -79 38.5 -123t109.5 -44q53 0 89 24t46 64h103q-14 -77 -79 -124t-160 -47zM146 314h278q0 66 -35.5 102.5
t-99.5 36.5q-63 0 -102 -38t-41 -101z" />
    <glyph glyph-name="eacute" unicode="&#xe9;" horiz-adv-x="571" 
d="M482 696l-200 -113l-32 51l186 140zM292 -10q-113 0 -182 74t-69 197q0 124 68 200q69 75 182 75q110 0 173.5 -64.5t63.5 -173.5q0 -26 -5 -58h-378q-1 -79 38.5 -123t109.5 -44q53 0 89 24t46 64h103q-14 -77 -79 -124t-160 -47zM146 314h278q0 66 -35.5 102.5
t-99.5 36.5q-63 0 -102 -38t-41 -101z" />
    <glyph glyph-name="ecircumflex" unicode="&#xea;" horiz-adv-x="571" 
d="M178 584l-50 49l124 127h66l123 -127l-51 -49l-106 112zM292 -10q-113 0 -182 74t-69 197q0 124 68 200q69 75 182 75q110 0 173.5 -64.5t63.5 -173.5q0 -26 -5 -58h-378q-1 -79 38.5 -123t109.5 -44q53 0 89 24t46 64h103q-14 -77 -79 -124t-160 -47zM146 314h278
q0 66 -35.5 102.5t-99.5 36.5q-63 0 -102 -38t-41 -101z" />
    <glyph glyph-name="edieresis" unicode="&#xeb;" horiz-adv-x="571" 
d="M230 601h-90v127h90v-127zM426 601h-90v127h90v-127zM292 -10q-113 0 -182 74t-69 197q0 124 68 200q69 75 182 75q110 0 173.5 -64.5t63.5 -173.5q0 -26 -5 -58h-378q-1 -79 38.5 -123t109.5 -44q53 0 89 24t46 64h103q-14 -77 -79 -124t-160 -47zM146 314h278
q0 66 -35.5 102.5t-99.5 36.5q-63 0 -102 -38t-41 -101z" />
    <glyph glyph-name="igrave" unicode="&#xec;" horiz-adv-x="264" 
d="M166 625l-33 -52l-199 114l46 77zM184 0h-103v526h103v-526z" />
    <glyph glyph-name="iacute" unicode="&#xed;" horiz-adv-x="264" 
d="M332 685l-200 -113l-32 51l186 140zM184 0h-103v526h103v-526z" />
    <glyph glyph-name="icircumflex" unicode="&#xee;" horiz-adv-x="264" 
d="M27 573l-50 49l124 127h66l123 -127l-51 -49l-106 112zM184 0h-103v526h103v-526z" />
    <glyph glyph-name="idieresis" unicode="&#xef;" horiz-adv-x="264" 
d="M79 591h-90v127h90v-127zM275 591h-90v127h90v-127zM184 0h-103v526h103v-526z" />
    <glyph glyph-name="eth" unicode="&#xf0;" horiz-adv-x="615" 
d="M48 239q0 108 67 178q68 71 174 71q34 0 65 -12l3 2l-43 43l-47 59l-125 -46v76l80 30l-85 114h129l58 -77l131 48v-76l-88 -31l89 -119l13 -19l15 -20l14 -21q6 -8 28 -47q8 -14 22 -54q16 -36 16 -94q0 -111 -73 -183q-74 -71 -187 -71q-114 0 -185 70q-71 71 -71 179z
M305 80q69 0 110.5 45.5t41.5 118.5q0 72 -41.5 117.5t-109.5 45.5q-67 0 -109.5 -45.5t-42.5 -117.5q0 -73 41.5 -118.5t109.5 -45.5z" />
    <glyph glyph-name="ntilde" unicode="&#xf1;" horiz-adv-x="623" 
d="M403 590q-31 -2 -72 18q-41 21 -59 20q-31 -2 -53 -34l-44 31q38 77 100 80q24 1 66 -19t62 -19q29 1 55 35l44 -31q-36 -79 -99 -81zM184 0h-103v526h90l14 -98h7q24 51 70.5 79.5t105.5 28.5q86 0 134 -57.5t48 -157.5v-321h-104v311q0 135 -117 135q-66 0 -105.5 -47
t-39.5 -123v-276z" />
    <glyph glyph-name="ograve" unicode="&#xf2;" horiz-adv-x="591" 
d="M330 636l-33 -52l-199 114l46 77zM41 261q0 122 70 198q71 77 185 77t184 -76q71 -77 71 -198q0 -120 -71 -197q-70 -75 -184 -75t-185 75q-70 76 -70 196zM146 262q0 -84 40.5 -133t109.5 -49t109 49t40 134q0 84 -40 133.5t-109 49.5t-109.5 -49.5t-40.5 -134.5z" />
    <glyph glyph-name="oacute" unicode="&#xf3;" horiz-adv-x="591" 
d="M495 696l-200 -113l-32 51l186 140zM41 261q0 122 70 198q71 77 185 77t184 -76q71 -77 71 -198q0 -120 -71 -197q-70 -75 -184 -75t-185 75q-70 76 -70 196zM146 262q0 -84 40.5 -133t109.5 -49t109 49t40 134q0 84 -40 133.5t-109 49.5t-109.5 -49.5t-40.5 -134.5z" />
    <glyph glyph-name="ocircumflex" unicode="&#xf4;" horiz-adv-x="591" 
d="M191 584l-50 49l124 127h66l123 -127l-51 -49l-106 112zM41 261q0 122 70 198q71 77 185 77t184 -76q71 -77 71 -198q0 -120 -71 -197q-70 -75 -184 -75t-185 75q-70 76 -70 196zM146 262q0 -84 40.5 -133t109.5 -49t109 49t40 134q0 84 -40 133.5t-109 49.5
t-109.5 -49.5t-40.5 -134.5z" />
    <glyph glyph-name="otilde" unicode="&#xf5;" horiz-adv-x="591" 
d="M361 590q-31 -2 -72 18q-41 21 -59 20q-31 -2 -53 -34l-44 31q38 77 100 80q24 1 66 -19t62 -19q29 1 55 35l44 -31q-36 -79 -99 -81zM41 261q0 122 70 198q71 77 185 77t184 -76q71 -77 71 -198q0 -120 -71 -197q-70 -75 -184 -75t-185 75q-70 76 -70 196zM146 262
q0 -84 40.5 -133t109.5 -49t109 49t40 134q0 84 -40 133.5t-109 49.5t-109.5 -49.5t-40.5 -134.5z" />
    <glyph glyph-name="odieresis" unicode="&#xf6;" horiz-adv-x="591" 
d="M243 601h-90v127h90v-127zM439 601h-90v127h90v-127zM41 261q0 122 70 198q71 77 185 77t184 -76q71 -77 71 -198q0 -120 -71 -197q-70 -75 -184 -75t-185 75q-70 76 -70 196zM146 262q0 -84 40.5 -133t109.5 -49t109 49t40 134q0 84 -40 133.5t-109 49.5t-109.5 -49.5
t-40.5 -134.5z" />
    <glyph glyph-name="divide" unicode="&#xf7;" horiz-adv-x="662" 
d="M392 431h-127v130h127v-130zM576 247h-492v91h492v-91zM392 30h-127v129h127v-129z" />
    <glyph glyph-name="oslash" unicode="&#xf8;" horiz-adv-x="630" 
d="M563 491l41 -61l-59 -43q23 -58 23 -125q0 -121 -70 -197q-70 -75 -184 -75q-123 0 -195 85l-52 -38l-40 59l55 41q-24 54 -24 124q0 122 70 198q71 77 186 77q121 0 193 -86zM164 262q0 -33 6 -60l257 189q-39 55 -114 55q-69 0 -109 -49.5t-40 -134.5zM462 263
q0 32 -6 59l-256 -188q40 -54 113 -54q69 0 109 49t40 134z" />
    <glyph glyph-name="ugrave" unicode="&#xf9;" horiz-adv-x="610" 
d="M339 636l-33 -52l-199 114l46 77zM433 526h103v-526h-89l-14 97h-8q-50 -107 -177 -107q-83 0 -129 53t-46 149v334h104v-319q0 -128 111 -128q66 0 105.5 47.5t39.5 123.5v276z" />
    <glyph glyph-name="uacute" unicode="&#xfa;" horiz-adv-x="610" 
d="M504 696l-200 -113l-32 51l186 140zM433 526h103v-526h-89l-14 97h-8q-50 -107 -177 -107q-83 0 -129 53t-46 149v334h104v-319q0 -128 111 -128q66 0 105.5 47.5t39.5 123.5v276z" />
    <glyph glyph-name="ucircumflex" unicode="&#xfb;" horiz-adv-x="610" 
d="M200 584l-50 49l124 127h66l123 -127l-51 -49l-106 112zM433 526h103v-526h-89l-14 97h-8q-50 -107 -177 -107q-83 0 -129 53t-46 149v334h104v-319q0 -128 111 -128q66 0 105.5 47.5t39.5 123.5v276z" />
    <glyph glyph-name="udieresis" unicode="&#xfc;" horiz-adv-x="610" 
d="M252 601h-90v127h90v-127zM448 601h-90v127h90v-127zM433 526h103v-526h-89l-14 97h-8q-50 -107 -177 -107q-83 0 -129 53t-46 149v334h104v-319q0 -128 111 -128q66 0 105.5 47.5t39.5 123.5v276z" />
    <glyph glyph-name="yacute" unicode="&#xfd;" horiz-adv-x="483" 
d="M438 697l-200 -113l-32 51l186 140zM195 19l-198 507h112l84 -241l50 -159h6l48 159l78 241h109l-188 -535q-58 -168 -212 -168q-21 0 -51 5v87q21 -4 42 -4q83 0 109 80z" />
    <glyph glyph-name="thorn" unicode="&#xfe;" horiz-adv-x="632" 
d="M81 -167v896h103v-297h7q21 48 69 76t110 28q102 0 162 -74t60 -200q0 -125 -62 -199q-61 -73 -162 -73q-63 0 -110 28.5t-67 77.5h-7v-263h-103zM184 294v-63q0 -67 43 -109.5t110 -42.5q71 0 110 49t39 134q0 89 -39 136.5t-108 47.5q-68 0 -111 -43q-44 -44 -44 -109z
" />
    <glyph glyph-name="ydieresis" unicode="&#xff;" horiz-adv-x="483" 
d="M186 602h-90v127h90v-127zM382 602h-90v127h90v-127zM195 19l-198 507h112l84 -241l50 -159h6l48 159l78 241h109l-188 -535q-58 -168 -212 -168q-21 0 -51 5v87q21 -4 42 -4q83 0 109 80z" />
    <glyph glyph-name="Amacron" unicode="&#x100;" horiz-adv-x="677" 
d="M175 865h322v-76h-322v76zM673 0h-118l-58 160h-323l-58 -160h-113l270 729h126zM248 362l-42 -114h259l-41 114l-84 255h-5z" />
    <glyph glyph-name="amacron" unicode="&#x101;" horiz-adv-x="569" 
d="M435 597h-322v76h322v-76zM39 144q0 81 56 125.5t154 44.5h135v37q0 103 -110 103q-50 0 -80.5 -23t-32.5 -62h-100q6 76 65 121q59 46 152 46q101 0 154.5 -50.5t53.5 -140.5v-231q0 -39 31 -39q10 0 18 2v-76q-29 -8 -52 -8q-91 0 -93 92h-7q-16 -43 -63 -69t-108 -26
q-78 0 -125.5 42.5t-47.5 111.5zM144 156q0 -39 25.5 -61t70.5 -22q65 0 104.5 40.5t39.5 104.5v25h-124q-116 0 -116 -87z" />
    <glyph glyph-name="Abreve" unicode="&#x102;" horiz-adv-x="677" 
d="M188 927h68q0 -39 22 -62.5t58 -23.5t58 23.5t22 62.5h69q0 -66 -40.5 -107t-108.5 -41t-108 40.5t-40 107.5zM673 0h-118l-58 160h-323l-58 -160h-113l270 729h126zM248 362l-42 -114h259l-41 114l-84 255h-5z" />
    <glyph glyph-name="abreve" unicode="&#x103;" horiz-adv-x="569" 
d="M354 735h69q0 -66 -40.5 -107t-108.5 -41t-108 40.5t-40 107.5h68q0 -39 22 -62.5t58 -23.5t58 23.5t22 62.5zM39 144q0 81 56 125.5t154 44.5h135v37q0 103 -110 103q-50 0 -80.5 -23t-32.5 -62h-100q6 76 65 121q59 46 152 46q101 0 154.5 -50.5t53.5 -140.5v-231
q0 -39 31 -39q10 0 18 2v-76q-29 -8 -52 -8q-91 0 -93 92h-7q-16 -43 -63 -69t-108 -26q-78 0 -125.5 42.5t-47.5 111.5zM144 156q0 -39 25.5 -61t70.5 -22q65 0 104.5 40.5t39.5 104.5v25h-124q-116 0 -116 -87z" />
    <glyph glyph-name="Aogonek" unicode="&#x104;" horiz-adv-x="677" 
d="M652 -127q30 0 59 12v-60q-34 -15 -79 -13q-50 1 -80 27t-30 68q0 57 46 93h-13l-58 160h-323l-58 -160h-113l270 729h126l271 -720l5 -9q-85 -21 -85 -80q0 -47 62 -47zM248 362l-42 -114h259l-41 114l-84 255h-5z" />
    <glyph glyph-name="aogonek" unicode="&#x105;" horiz-adv-x="569" 
d="M517 -127q31 0 59 12v-60q-34 -15 -79 -13q-49 1 -79.5 27t-30.5 68q0 58 49 95q-44 20 -46 83h-7q-16 -43 -63 -69t-108 -26q-78 0 -125.5 42.5t-47.5 111.5q0 81 56 125.5t154 44.5h135v37q0 103 -110 103q-50 0 -80.5 -23t-32.5 -62h-100q6 76 65 121q59 46 152 46
q101 0 154.5 -50.5t53.5 -140.5v-231q0 -39 31 -39q10 0 18 2v-69l5 -8q-85 -21 -85 -80q0 -47 62 -47zM384 218v25h-124q-116 0 -116 -87q0 -39 25.5 -61t70.5 -22q65 0 104.5 40.5t39.5 104.5z" />
    <glyph glyph-name="Cacute" unicode="&#x106;" horiz-adv-x="752" 
d="M577 889l-200 -113l-32 51l186 140zM593 243h113q-15 -115 -103 -184q-87 -69 -216 -69q-157 0 -251 103t-94 271q0 167 95 271q94 103 250 103q128 0 216 -68q86 -67 103 -182h-113q-17 72 -72.5 112.5t-133.5 40.5q-107 0 -168 -75q-62 -76 -62 -202q0 -129 61 -203
q62 -74 167 -74q84 0 138.5 41.5t69.5 114.5z" />
    <glyph glyph-name="cacute" unicode="&#x107;" horiz-adv-x="565" 
d="M483 696l-200 -113l-32 51l186 140zM424 183h105q-8 -88 -72 -140q-65 -53 -163 -53q-115 0 -184 74q-69 75 -69 198q0 124 69 199q70 75 187 75q95 0 157 -52q64 -51 72 -135h-104q-10 47 -44 72t-83 25q-71 0 -110 -49.5t-39 -135.5q0 -87 39.5 -134.5t108.5 -47.5
q54 0 89 28.5t41 75.5z" />
    <glyph glyph-name="Cdotaccent" unicode="&#x10a;" horiz-adv-x="752" 
d="M424 794h-91v127h91v-127zM593 243h113q-15 -115 -103 -184q-87 -69 -216 -69q-157 0 -251 103t-94 271q0 167 95 271q94 103 250 103q128 0 216 -68q86 -67 103 -182h-113q-17 72 -72.5 112.5t-133.5 40.5q-107 0 -168 -75q-62 -76 -62 -202q0 -129 61 -203
q62 -74 167 -74q84 0 138.5 41.5t69.5 114.5z" />
    <glyph glyph-name="cdotaccent" unicode="&#x10b;" horiz-adv-x="565" 
d="M330 601h-91v127h91v-127zM424 183h105q-8 -88 -72 -140q-65 -53 -163 -53q-115 0 -184 74q-69 75 -69 198q0 124 69 199q70 75 187 75q95 0 157 -52q64 -51 72 -135h-104q-10 47 -44 72t-83 25q-71 0 -110 -49.5t-39 -135.5q0 -87 39.5 -134.5t108.5 -47.5q54 0 89 28.5
t41 75.5z" />
    <glyph glyph-name="Ccaron" unicode="&#x10c;" horiz-adv-x="752" 
d="M345 789l-124 129l52 48l104 -113l106 113l51 -48l-123 -129h-66zM593 243h113q-15 -115 -103 -184q-87 -69 -216 -69q-157 0 -251 103t-94 271q0 167 95 271q94 103 250 103q128 0 216 -68q86 -67 103 -182h-113q-17 72 -72.5 112.5t-133.5 40.5q-107 0 -168 -75
q-62 -76 -62 -202q0 -129 61 -203q62 -74 167 -74q84 0 138.5 41.5t69.5 114.5z" />
    <glyph glyph-name="ccaron" unicode="&#x10d;" horiz-adv-x="565" 
d="M251 596l-124 129l52 48l104 -113l106 113l51 -48l-123 -129h-66zM424 183h105q-8 -88 -72 -140q-65 -53 -163 -53q-115 0 -184 74q-69 75 -69 198q0 124 69 199q70 75 187 75q95 0 157 -52q64 -51 72 -135h-104q-10 47 -44 72t-83 25q-71 0 -110 -49.5t-39 -135.5
q0 -87 39.5 -134.5t108.5 -47.5q54 0 89 28.5t41 75.5z" />
    <glyph glyph-name="Dcaron" unicode="&#x10e;" horiz-adv-x="748" 
d="M291 789l-124 129l52 48l104 -113l106 113l51 -48l-123 -129h-66zM380 0h-285v729h285q155 0 240 -100q86 -100 86 -265t-86 -265q-86 -99 -240 -99zM204 632v-535h165q105 0 164 70t59 198q0 129 -59.5 198t-163.5 69h-165z" />
    <glyph glyph-name="dcaron" unicode="&#x10f;" horiz-adv-x="670" 
d="M555 736v-736h-93l-11 93h-6q-21 -48 -69.5 -75.5t-110.5 -27.5q-102 0 -162 72q-60 74 -60 197q0 128 61 202q62 75 162 75q64 0 111 -30.5t68 -82.5h6v313h104zM637 521v39q68 0 68 61v4h-59v111h112v-112q0 -50 -32 -76.5t-89 -26.5zM451 231v59q0 70 -42.5 113
t-110.5 43q-72 0 -111 -50q-38 -50 -38 -137t39 -134q40 -46 108 -46t111 43q44 44 44 109z" />
    <glyph glyph-name="Dcroat" unicode="&#x110;" horiz-adv-x="748" 
d="M95 729h285q155 0 240 -100q86 -100 86 -265t-86 -265q-86 -99 -240 -99h-285v332h-88v89h88v308zM204 97h165q105 0 164 70t59 198q0 129 -59.5 198t-163.5 69h-165v-211h128v-89h-128v-235z" />
    <glyph glyph-name="dslash" unicode="&#x111;" horiz-adv-x="633" 
d="M553 646h103v-76h-103v-570h-93l-11 93h-7q-20 -48 -68.5 -75.5t-110.5 -27.5q-102 0 -162 72q-60 74 -60 197q0 128 61 202q62 75 162 75q64 0 110.5 -30.5t67.5 -82.5h7v147h-141v76h141v90h104v-90zM449 231v59q0 70 -42.5 113t-110.5 43q-72 0 -111 -50
q-38 -50 -38 -137t39 -134q40 -46 108 -46t111 43q44 44 44 109z" />
    <glyph glyph-name="Emacron" unicode="&#x112;" horiz-adv-x="644" 
d="M490 789h-322v76h322v-76zM587 0h-492v729h492v-97h-383v-210h335v-92h-335v-233h383v-97z" />
    <glyph glyph-name="emacron" unicode="&#x113;" horiz-adv-x="571" 
d="M445 597h-322v76h322v-76zM292 -10q-113 0 -182 74t-69 197q0 124 68 200q69 75 182 75q110 0 173.5 -64.5t63.5 -173.5q0 -26 -5 -58h-378q-1 -79 38.5 -123t109.5 -44q53 0 89 24t46 64h103q-14 -77 -79 -124t-160 -47zM146 314h278q0 66 -35.5 102.5t-99.5 36.5
q-63 0 -102 -38t-41 -101z" />
    <glyph glyph-name="Edotaccent" unicode="&#x116;" horiz-adv-x="644" 
d="M375 794h-91v127h91v-127zM587 0h-492v729h492v-97h-383v-210h335v-92h-335v-233h383v-97z" />
    <glyph glyph-name="edotaccent" unicode="&#x117;" horiz-adv-x="571" 
d="M330 601h-91v127h91v-127zM292 -10q-113 0 -182 74t-69 197q0 124 68 200q69 75 182 75q110 0 173.5 -64.5t63.5 -173.5q0 -26 -5 -58h-378q-1 -79 38.5 -123t109.5 -44q53 0 89 24t46 64h103q-14 -77 -79 -124t-160 -47zM146 314h278q0 66 -35.5 102.5t-99.5 36.5
q-63 0 -102 -38t-41 -101z" />
    <glyph glyph-name="Eogonek" unicode="&#x118;" horiz-adv-x="644" 
d="M566 -127q30 0 59 12v-60q-34 -15 -79 -13q-50 1 -80 27t-30 68q0 57 46 93h-387v729h492v-97h-383v-210h335v-92h-335v-233h383v-94l2 -3q-85 -21 -85 -80q0 -47 62 -47z" />
    <glyph glyph-name="eogonek" unicode="&#x119;" horiz-adv-x="571" 
d="M428 161h103q-10 -58 -51.5 -100.5t-104.5 -59.5v-1q-85 -21 -85 -80q0 -47 62 -47q30 0 59 12v-60q-34 -15 -79 -13q-50 1 -80 27t-30 68q0 48 37 85q-100 10 -159 83q-59 74 -59 186q0 124 68 200q69 75 182 75q110 0 173.5 -64.5t63.5 -173.5q0 -26 -5 -58h-378
q-1 -79 38.5 -123t109.5 -44q53 0 89 24t46 64zM289 453q-63 0 -102 -38t-41 -101h278q0 66 -35.5 102.5t-99.5 36.5z" />
    <glyph glyph-name="Ecaron" unicode="&#x11a;" horiz-adv-x="644" 
d="M296 789l-124 129l52 48l104 -113l106 113l51 -48l-123 -129h-66zM587 0h-492v729h492v-97h-383v-210h335v-92h-335v-233h383v-97z" />
    <glyph glyph-name="ecaron" unicode="&#x11b;" horiz-adv-x="571" 
d="M251 596l-124 129l52 48l104 -113l106 113l51 -48l-123 -129h-66zM292 -10q-113 0 -182 74t-69 197q0 124 68 200q69 75 182 75q110 0 173.5 -64.5t63.5 -173.5q0 -26 -5 -58h-378q-1 -79 38.5 -123t109.5 -44q53 0 89 24t46 64h103q-14 -77 -79 -124t-160 -47zM146 314
h278q0 66 -35.5 102.5t-99.5 36.5q-63 0 -102 -38t-41 -101z" />
    <glyph glyph-name="Gbreve" unicode="&#x11e;" horiz-adv-x="803" 
d="M242 927h68q0 -39 22 -62.5t58 -23.5t58 23.5t22 62.5h69q0 -66 -40.5 -107t-108.5 -41t-108 40.5t-40 107.5zM353 299v90h373v-389h-89l-9 120h-7q-34 -61 -101.5 -95.5t-151.5 -34.5q-144 0 -235 99q-91 100 -91 268q0 172 95 276q96 105 254 105q122 0 207 -64
q85 -63 100 -165h-112q-16 62 -69 97t-128 35q-110 0 -171 -76t-61 -209q0 -132 60 -201.5t165 -69.5q98 0 160 60q63 61 67 154h-256z" />
    <glyph glyph-name="gbreve" unicode="&#x11f;" horiz-adv-x="543" 
d="M328 739h69q0 -66 -40.5 -107t-108.5 -41t-108 40.5t-40 107.5h68q0 -39 22 -62.5t58 -23.5t58 23.5t22 62.5zM32 -56q0 37 21.5 64.5t57.5 37.5v7q-25 8 -39.5 28t-14.5 46q0 32 19 55.5t52 33.5v7q-76 45 -76 139q0 78 56 126t146 48q57 0 95 -20q15 44 57.5 70.5
t99.5 26.5v-83q-35 0 -62 -13.5t-35 -34.5q52 -46 52 -123q0 -78 -55 -124q-56 -47 -145 -47q-42 0 -69 7q-40 -7 -40 -44q0 -43 68 -43h134q77 0 119.5 -36t42.5 -99q0 -78 -67.5 -117t-192.5 -39q-111 0 -167.5 33.5t-56.5 93.5zM154 361q0 -47 27.5 -73.5t74.5 -26.5
q48 0 75.5 27t27.5 73q0 47 -28 74t-75 27t-74.5 -27.5t-27.5 -73.5zM126 -38q0 -69 135 -69q152 0 152 76q0 56 -72 56h-136q-38 0 -58.5 -16.5t-20.5 -46.5z" />
    <glyph glyph-name="Gdotaccent" unicode="&#x120;" horiz-adv-x="803" 
d="M345 921h91v-127h-91v127zM353 299v90h373v-389h-89l-9 120h-7q-34 -61 -101.5 -95.5t-151.5 -34.5q-144 0 -235 99q-91 100 -91 268q0 172 95 276q96 105 254 105q122 0 207 -64q85 -63 100 -165h-112q-16 62 -69 97t-128 35q-110 0 -171 -76t-61 -209q0 -132 60 -201.5
t165 -69.5q98 0 160 60q63 61 67 154h-256z" />
    <glyph glyph-name="gdotaccent" unicode="&#x121;" horiz-adv-x="543" 
d="M294 605h-91v127h91v-127zM32 -56q0 37 21.5 64.5t57.5 37.5v7q-25 8 -39.5 28t-14.5 46q0 32 19 55.5t52 33.5v7q-76 45 -76 139q0 78 56 126t146 48q57 0 95 -20q15 44 57.5 70.5t99.5 26.5v-83q-35 0 -62 -13.5t-35 -34.5q52 -46 52 -123q0 -78 -55 -124
q-56 -47 -145 -47q-42 0 -69 7q-40 -7 -40 -44q0 -43 68 -43h134q77 0 119.5 -36t42.5 -99q0 -78 -67.5 -117t-192.5 -39q-111 0 -167.5 33.5t-56.5 93.5zM154 361q0 -47 27.5 -73.5t74.5 -26.5q48 0 75.5 27t27.5 73q0 47 -28 74t-75 27t-74.5 -27.5t-27.5 -73.5zM126 -38
q0 -69 135 -69q152 0 152 76q0 56 -72 56h-136q-38 0 -58.5 -16.5t-20.5 -46.5z" />
    <glyph glyph-name="uni0122" unicode="&#x122;" horiz-adv-x="803" 
d="M353 299v90h373v-389h-89l-9 120h-7q-34 -61 -101.5 -95.5t-151.5 -34.5q-144 0 -235 99q-91 100 -91 268q0 172 95 276q96 105 254 105q122 0 207 -64q85 -63 100 -165h-112q-16 62 -69 97t-128 35q-110 0 -171 -76t-61 -209q0 -132 60 -201.5t165 -69.5q98 0 160 60
q63 61 67 154h-256zM392 -164h-50v105h95v-104q0 -86 -92 -86v32q47 0 47 44v9z" />
    <glyph glyph-name="uni0123" unicode="&#x123;" horiz-adv-x="543" 
d="M293 812v-32q-47 0 -47 -45v-24h50v-105h-95v120q0 86 92 86zM32 -56q0 37 21.5 64.5t57.5 37.5v7q-25 8 -39.5 28t-14.5 46q0 32 19 55.5t52 33.5v7q-76 45 -76 139q0 78 56 126t146 48q57 0 95 -20q15 44 57.5 70.5t99.5 26.5v-83q-35 0 -62 -13.5t-35 -34.5
q52 -46 52 -123q0 -78 -55 -124q-56 -47 -145 -47q-42 0 -69 7q-40 -7 -40 -44q0 -43 68 -43h134q77 0 119.5 -36t42.5 -99q0 -78 -67.5 -117t-192.5 -39q-111 0 -167.5 33.5t-56.5 93.5zM154 361q0 -47 27.5 -73.5t74.5 -26.5q48 0 75.5 27t27.5 73q0 47 -28 74t-75 27
t-74.5 -27.5t-27.5 -73.5zM126 -38q0 -69 135 -69q152 0 152 76q0 56 -72 56h-136q-38 0 -58.5 -16.5t-20.5 -46.5z" />
    <glyph glyph-name="Hbar" unicode="&#x126;" horiz-adv-x="803" 
d="M708 638h91v-84h-91v-554h-109v327h-395v-327h-109v554h-69v84h69v91h109v-91h395v91h109v-91zM204 418h395v136h-395v-136z" />
    <glyph glyph-name="hbar" unicode="&#x127;" horiz-adv-x="623" 
d="M367 536q86 0 134 -57t48 -157v-322h-104v312q0 134 -116 134q-66 0 -105.5 -46t-39.5 -121v-279h-103v570h-90v76h90v90h103v-90h154v-76h-154v-140h7q25 50 71 78t105 28z" />
    <glyph glyph-name="Imacron" unicode="&#x12a;" horiz-adv-x="299" 
d="M311 789h-322v76h322v-76zM204 729v-729h-109v729h109z" />
    <glyph glyph-name="imacron" unicode="&#x12b;" horiz-adv-x="264" 
d="M294 586h-322v76h322v-76zM184 0h-103v526h103v-526z" />
    <glyph glyph-name="Iogonek" unicode="&#x12e;" horiz-adv-x="299" 
d="M175 -127q31 0 59 12v-60q-34 -15 -79 -13q-49 1 -79.5 27t-30.5 68q0 57 50 96v726h109v-729h-6q-85 -21 -85 -80q0 -47 62 -47z" />
    <glyph glyph-name="iogonek" unicode="&#x12f;" horiz-adv-x="264" 
d="M88 718h91v-127h-91v127zM162 -127q31 0 59 12v-60q-34 -15 -79 -13q-50 1 -80 27t-30 68q0 59 49 95v524h103v-524l1 -2q-85 -21 -85 -80q0 -47 62 -47z" />
    <glyph glyph-name="Idot" unicode="&#x130;" horiz-adv-x="299" 
d="M202 794h-103v127h103v-127zM204 729v-729h-109v729h109z" />
    <glyph glyph-name="dotlessi" unicode="&#x131;" horiz-adv-x="264" 
d="M184 0h-103v526h103v-526z" />
    <glyph glyph-name="Jcircumflex" unicode="&#x134;" horiz-adv-x="399" 
d="M149 776l-50 49l124 127h66l123 -127l-51 -49l-106 112zM309 729v-526q0 -211 -206 -211q-58 0 -87 8v94q27 -6 73 -6q112 0 112 124v517h108z" />
    <glyph glyph-name="jcircumflex" unicode="&#x135;" horiz-adv-x="268" 
d="M31 573l-50 49l124 127h66l123 -127l-51 -49l-106 112zM35 -176q-23 0 -58 5v83q12 -4 29 -4q43 0 60.5 19.5t17.5 62.5v536h103v-543q0 -76 -38 -117.5t-114 -41.5z" />
    <glyph glyph-name="uni0136" unicode="&#x136;" horiz-adv-x="685" 
d="M671 729l-265 -317l275 -412h-130l-217 325l-130 -156v-169h-109v729h109v-409l337 409h130zM363 -164h-50v105h95v-104q0 -86 -92 -86v32q47 0 47 44v9z" />
    <glyph glyph-name="uni0137" unicode="&#x137;" horiz-adv-x="568" 
d="M543 526l-202 -206l212 -320h-119l-164 248l-85 -87v-161h-104v736h104v-445l227 235h131zM335 -164h-50v105h95v-104q0 -86 -92 -86v32q47 0 47 44v9z" />
    <glyph glyph-name="Lacute" unicode="&#x139;" horiz-adv-x="570" 
d="M406 889l-200 -113l-32 51l186 140zM535 0h-440v729h109v-629h331v-100z" />
    <glyph glyph-name="lacute" unicode="&#x13a;" horiz-adv-x="264" 
d="M332 896l-200 -113l-32 51l186 140zM183 0h-102v736h102v-736z" />
    <glyph glyph-name="uni013B" unicode="&#x13b;" horiz-adv-x="570" 
d="M535 0h-440v729h109v-629h331v-100zM271 -249v32q47 0 47 44v9h-50v105h95v-104q0 -86 -92 -86z" />
    <glyph glyph-name="uni013C" unicode="&#x13c;" horiz-adv-x="264" 
d="M183 0h-102v736h102v-736zM89 -249v32q47 0 47 44v9h-50v105h95v-104q0 -86 -92 -86z" />
    <glyph glyph-name="Lcaron" unicode="&#x13d;" horiz-adv-x="579" 
d="M539 0h-440v729h109v-629h331v-100zM326 479v43q70 0 70 67v19h-60v121h113v-140q0 -51 -33 -80.5t-90 -29.5z" />
    <glyph glyph-name="lcaron" unicode="&#x13e;" horiz-adv-x="264" 
d="M100 796l-124 129l52 48l104 -113l106 113l51 -48l-123 -129h-66zM183 0h-102v736h102v-736z" />
    <glyph glyph-name="Ldot" unicode="&#x13f;" horiz-adv-x="601" 
d="M535 0h-440v729h109v-629h331v-100zM317 400q0 33 22 56t53 23t53.5 -23.5t22.5 -55.5q0 -31 -22.5 -54t-53.5 -23t-53 22.5t-22 54.5z" />
    <glyph glyph-name="ldot" unicode="&#x140;" horiz-adv-x="426" 
d="M183 0h-102v736h102v-736zM269 378q-2 33 21.5 56t53 23t54.5 -24q23 -25 23 -55t-22.5 -54.5t-54.5 -22.5q-31 0 -53 22.5t-22 54.5z" />
    <glyph glyph-name="Lslash" unicode="&#x141;" horiz-adv-x="566" 
d="M200 365v-265h331v-100h-440v326l-67 -24v95l67 24v308h109v-269l187 66v-95z" />
    <glyph glyph-name="lslash" unicode="&#x142;" horiz-adv-x="272" 
d="M187 501l67 25v-95l-67 -25v-406h-103v368l-66 -25v95l66 25v273h103v-235z" />
    <glyph glyph-name="Nacute" unicode="&#x143;" horiz-adv-x="791" 
d="M615 889l-200 -113l-32 51l186 140zM204 0h-109v729h132l363 -586h5l-7 218v368h108v-729h-132l-362 586h-5l7 -210v-376z" />
    <glyph glyph-name="nacute" unicode="&#x144;" horiz-adv-x="623" 
d="M537 696l-200 -113l-32 51l186 140zM184 0h-103v526h90l14 -98h7q24 51 70.5 79.5t105.5 28.5q86 0 134 -57.5t48 -157.5v-321h-104v311q0 135 -117 135q-66 0 -105.5 -47t-39.5 -123v-276z" />
    <glyph glyph-name="uni0145" unicode="&#x145;" horiz-adv-x="791" 
d="M204 0h-109v729h132l363 -586h5l-7 218v368h108v-729h-132l-362 586h-5l7 -210v-376zM372 -249v32q47 0 47 44v9h-50v105h95v-104q0 -86 -92 -86z" />
    <glyph glyph-name="uni0146" unicode="&#x146;" horiz-adv-x="623" 
d="M184 0h-103v526h90l14 -98h7q24 51 70.5 79.5t105.5 28.5q86 0 134 -57.5t48 -157.5v-321h-104v311q0 135 -117 135q-66 0 -105.5 -47t-39.5 -123v-276zM270 -249v32q47 0 47 44v9h-50v105h95v-104q0 -86 -92 -86z" />
    <glyph glyph-name="Ncaron" unicode="&#x147;" horiz-adv-x="791" 
d="M383 789l-124 129l52 48l104 -113l106 113l51 -48l-123 -129h-66zM204 0h-109v729h132l363 -586h5l-7 218v368h108v-729h-132l-362 586h-5l7 -210v-376z" />
    <glyph glyph-name="ncaron" unicode="&#x148;" horiz-adv-x="623" 
d="M305 596l-124 129l52 48l104 -113l106 113l51 -48l-123 -129h-66zM184 0h-103v526h90l14 -98h7q24 51 70.5 79.5t105.5 28.5q86 0 134 -57.5t48 -157.5v-321h-104v311q0 135 -117 135q-66 0 -105.5 -47t-39.5 -123v-276z" />
    <glyph glyph-name="Eng" unicode="&#x14a;" horiz-adv-x="791" 
d="M588 361v368h108v-764q0 -65 -39 -99.5t-109 -34.5q-34 0 -63 7v71q18 -3 34 -3q69 0 69 71v23h-24l-362 586h-5l7 -210v-376h-109v729h132l363 -586h5z" />
    <glyph glyph-name="eng" unicode="&#x14b;" horiz-adv-x="623" 
d="M368 536q86 0 134 -57.5t48 -157.5v-356q0 -67 -40 -103.5t-109 -36.5q-41 0 -62 6v78q24 -3 36 -3q51 0 63 29q8 20 8 55v321q0 135 -117 135q-66 0 -105.5 -47t-39.5 -123v-276h-103v526h90l14 -98h7q24 51 70.5 79.5t105.5 28.5z" />
    <glyph glyph-name="Omacron" unicode="&#x14c;" horiz-adv-x="773" 
d="M547 789h-322v76h322v-76zM42 364q0 171 94 272q94 102 250 102q158 0 251 -103q93 -102 93 -270q0 -173 -94 -274q-95 -101 -250 -101q-158 0 -251 103t-93 271zM157 365q0 -126 62 -202q62 -74 167 -74q106 0 168 75q62 76 62 200q0 126 -63 201q-63 76 -167 76
q-106 0 -167 -76q-62 -76 -62 -200z" />
    <glyph glyph-name="omacron" unicode="&#x14d;" horiz-adv-x="591" 
d="M457 597h-322v76h322v-76zM41 261q0 122 70 198q71 77 185 77t184 -76q71 -77 71 -198q0 -120 -71 -197q-70 -75 -184 -75t-185 75q-70 76 -70 196zM146 262q0 -84 40.5 -133t109.5 -49t109 49t40 134q0 84 -40 133.5t-109 49.5t-109.5 -49.5t-40.5 -134.5z" />
    <glyph glyph-name="Ohungarumlaut" unicode="&#x150;" horiz-adv-x="773" 
d="M476 891l-197 -114l-33 50l183 140zM692 891l-198 -114l-32 50l182 140zM42 364q0 171 94 272q94 102 250 102q158 0 251 -103q93 -102 93 -270q0 -173 -94 -274q-95 -101 -250 -101q-158 0 -251 103t-93 271zM157 365q0 -126 62 -202q62 -74 167 -74q106 0 168 75
q62 76 62 200q0 126 -63 201q-63 76 -167 76q-106 0 -167 -76q-62 -76 -62 -200z" />
    <glyph glyph-name="ohungarumlaut" unicode="&#x151;" horiz-adv-x="591" 
d="M386 698l-197 -114l-33 50l183 140zM602 698l-198 -114l-32 50l182 140zM41 261q0 122 70 198q71 77 185 77t184 -76q71 -77 71 -198q0 -120 -71 -197q-70 -75 -184 -75t-185 75q-70 76 -70 196zM146 262q0 -84 40.5 -133t109.5 -49t109 49t40 134q0 84 -40 133.5
t-109 49.5t-109.5 -49.5t-40.5 -134.5z" />
    <glyph glyph-name="OE" unicode="&#x152;" horiz-adv-x="960" 
d="M42 365q0 162 98 263q99 101 259 101h505v-97h-359v-222h262v-91h-262v-220h359v-99h-505q-160 0 -259 101q-98 101 -98 264zM399 99h39v532h-39q-108 0 -176 -74q-66 -73 -66 -192t66 -192q68 -74 176 -74z" />
    <glyph glyph-name="oe" unicode="&#x153;" horiz-adv-x="988" 
d="M845 161h103q-14 -77 -79 -124t-160 -47q-137 0 -205 104q-72 -104 -208 -104q-114 0 -185 75q-70 76 -70 196q0 122 70 198q71 77 185 77q136 0 208 -105q68 105 204 105q110 0 173.5 -64.5t63.5 -173.5q0 -26 -5 -58h-378q-1 -79 38.5 -123t109.5 -44q53 0 89 24t46 64
zM706 453q-63 0 -102 -38t-41 -101h278q0 66 -35.5 102.5t-99.5 36.5zM296 80q69 0 109 49t40 134q0 84 -40 133.5t-109 49.5t-109.5 -49.5t-40.5 -134.5q0 -84 40.5 -133t109.5 -49z" />
    <glyph glyph-name="Racute" unicode="&#x154;" horiz-adv-x="718" 
d="M568 889l-200 -113l-32 51l186 140zM204 0h-109v729h331q110 0 169.5 -55.5t59.5 -153.5q0 -62 -31 -109.5t-86 -72.5v-7q104 -23 104 -141v-108q0 -54 11 -82h-111q-11 24 -11 88v82q0 58 -24.5 83t-85.5 25h-217v-278zM204 633v-259h184q69 0 110.5 36.5t41.5 96.5
q0 126 -139 126h-197z" />
    <glyph glyph-name="racute" unicode="&#x155;" horiz-adv-x="370" 
d="M413 696l-200 -113l-32 51l186 140zM184 0h-103v526h90l13 -105h6q44 113 169 113v-92q-175 -2 -175 -204v-238z" />
    <glyph glyph-name="uni0156" unicode="&#x156;" horiz-adv-x="718" 
d="M204 0h-109v729h331q110 0 169.5 -55.5t59.5 -153.5q0 -62 -31 -109.5t-86 -72.5v-7q104 -23 104 -141v-108q0 -54 11 -82h-111q-11 24 -11 88v82q0 58 -24.5 83t-85.5 25h-217v-278zM204 633v-259h184q69 0 110.5 36.5t41.5 96.5q0 126 -139 126h-197zM339 -249v32
q47 0 47 44v9h-50v105h95v-104q0 -86 -92 -86z" />
    <glyph glyph-name="uni0157" unicode="&#x157;" horiz-adv-x="370" 
d="M184 0h-103v526h90l13 -105h6q44 113 169 113v-92q-175 -2 -175 -204v-238zM88 -249v32q47 0 47 44v9h-50v105h95v-104q0 -86 -92 -86z" />
    <glyph glyph-name="Rcaron" unicode="&#x158;" horiz-adv-x="718" 
d="M336 789l-124 129l52 48l104 -113l106 113l51 -48l-123 -129h-66zM204 0h-109v729h331q110 0 169.5 -55.5t59.5 -153.5q0 -62 -31 -109.5t-86 -72.5v-7q104 -23 104 -141v-108q0 -54 11 -82h-111q-11 24 -11 88v82q0 58 -24.5 83t-85.5 25h-217v-278zM204 633v-259h184
q69 0 110.5 36.5t41.5 96.5q0 126 -139 126h-197z" />
    <glyph glyph-name="rcaron" unicode="&#x159;" horiz-adv-x="370" 
d="M181 596l-124 129l52 48l104 -113l106 113l51 -48l-123 -129h-66zM184 0h-103v526h90l13 -105h6q44 113 169 113v-92q-175 -2 -175 -204v-238z" />
    <glyph glyph-name="Sacute" unicode="&#x15a;" horiz-adv-x="673" 
d="M531 889l-200 -113l-32 51l186 140zM44 226h112q6 -148 180 -148q78 0 122.5 33t44.5 90q0 59 -44 82q-29 17 -65 26l-129 28q-61 13 -100 30q-100 44 -105 163q0 95 72 152q74 57 193 57q123 0 194.5 -57.5t73.5 -155.5h-112q-4 61 -46.5 93t-115.5 32
q-68 0 -106.5 -28.5t-38.5 -77.5q0 -55 46 -79q35 -17 77 -27l129 -26q79 -17 130 -59q62 -49 62 -143q0 -104 -75.5 -162.5t-206.5 -58.5q-139 0 -215 64q-75 65 -77 172z" />
    <glyph glyph-name="sacute" unicode="&#x15b;" horiz-adv-x="517" 
d="M459 696l-200 -113l-32 51l186 140zM41 161h101q0 -43 31.5 -68t87.5 -25q51 0 79 21t28 58q0 54 -66 66l-107 20q-144 25 -144 142q0 75 55 118t149 43t149 -44t57 -118h-100q-3 84 -107 84q-47 0 -73 -19.5t-26 -53.5q0 -57 80 -68l100 -18q140 -26 140 -148
q0 -74 -58.5 -117.5t-155.5 -43.5q-102 0 -161 46.5t-59 124.5z" />
    <glyph glyph-name="Scedilla" unicode="&#x15e;" horiz-adv-x="673" 
d="M618 211q0 -98 -68 -156t-186 -64l-20 -33q35 3 61.5 -18t26.5 -59q1 -33 -18 -55.5t-47 -30t-58 -4t-50 19.5v54q27 -25 67 -21q41 5 41 40q0 26 -21.5 34.5t-63.5 -2.5v27l27 48q-124 6 -193.5 69t-71.5 166h112q6 -148 180 -148q78 0 122.5 33t44.5 90q0 59 -44 82
q-29 17 -65 26l-129 28q-61 13 -100 30q-100 44 -105 163q0 95 72 152q74 57 193 57q123 0 194.5 -57.5t73.5 -155.5h-112q-4 61 -46.5 93t-115.5 32q-68 0 -106.5 -28.5t-38.5 -77.5q0 -55 46 -79q35 -17 77 -27l129 -26q79 -17 130 -59q62 -49 62 -143z" />
    <glyph glyph-name="scedilla" unicode="&#x15f;" horiz-adv-x="517" 
d="M475 151q0 -69 -53 -112.5t-143 -48.5l-15 -25q35 3 61.5 -18t26.5 -59q1 -33 -18 -55.5t-47 -30t-58 -4t-50 19.5v54q27 -25 67 -21q41 5 41 40q0 26 -21.5 34.5t-63.5 -2.5v27l24 42q-86 7 -135.5 53t-49.5 116h101q0 -43 31.5 -68t87.5 -25q51 0 79 21t28 58
q0 54 -66 66l-107 20q-144 25 -144 142q0 75 55 118t149 43t149 -44t57 -118h-100q-3 84 -107 84q-47 0 -73 -19.5t-26 -53.5q0 -57 80 -68l100 -18q140 -26 140 -148z" />
    <glyph glyph-name="Scaron" unicode="&#x160;" horiz-adv-x="673" 
d="M299 789l-124 129l52 48l104 -113l106 113l51 -48l-123 -129h-66zM44 226h112q6 -148 180 -148q78 0 122.5 33t44.5 90q0 59 -44 82q-29 17 -65 26l-129 28q-61 13 -100 30q-100 44 -105 163q0 95 72 152q74 57 193 57q123 0 194.5 -57.5t73.5 -155.5h-112
q-4 61 -46.5 93t-115.5 32q-68 0 -106.5 -28.5t-38.5 -77.5q0 -55 46 -79q35 -17 77 -27l129 -26q79 -17 130 -59q62 -49 62 -143q0 -104 -75.5 -162.5t-206.5 -58.5q-139 0 -215 64q-75 65 -77 172z" />
    <glyph glyph-name="scaron" unicode="&#x161;" horiz-adv-x="517" 
d="M227 596l-124 129l52 48l104 -113l106 113l51 -48l-123 -129h-66zM41 161h101q0 -43 31.5 -68t87.5 -25q51 0 79 21t28 58q0 54 -66 66l-107 20q-144 25 -144 142q0 75 55 118t149 43t149 -44t57 -118h-100q-3 84 -107 84q-47 0 -73 -19.5t-26 -53.5q0 -57 80 -68
l100 -18q140 -26 140 -148q0 -74 -58.5 -117.5t-155.5 -43.5q-102 0 -161 46.5t-59 124.5z" />
    <glyph glyph-name="uni0162" unicode="&#x162;" horiz-adv-x="560" 
d="M334 631v-631h-24l-26 -42q35 3 61.5 -18t26.5 -59q1 -33 -18 -55.5t-47 -30t-58 -4t-50 19.5v54q27 -25 67 -21q41 5 41 40q0 26 -21.5 34.5t-63.5 -2.5v27l33 57h-29v631h-220v98h548v-98h-220z" />
    <glyph glyph-name="uni0163" unicode="&#x163;" horiz-adv-x="351" 
d="M320 526v-86h-116v-282q0 -40 15 -59.5t55 -19.5q29 0 46 5v-84q-37 -8 -72 -8l-19 -31q35 3 61.5 -18t26.5 -59q1 -33 -18 -55.5t-47 -30t-58 -4t-50 19.5v54q27 -25 67 -21q41 5 41 40q0 26 -21.5 34.5t-63.5 -2.5v27l29 51q-96 23 -96 150v293h-88v86h88v151l104 40
v-191h116z" />
    <glyph glyph-name="Tcaron" unicode="&#x164;" horiz-adv-x="560" 
d="M437 918l-123 -129h-66l-124 129l52 48l104 -113l106 113zM6 729h548v-98h-220v-631h-108v631h-220v98z" />
    <glyph glyph-name="tcaron" unicode="&#x165;" horiz-adv-x="351" 
d="M121 749l-124 129l52 48l104 -113l106 113l51 -48l-123 -129h-66zM12 440v86h88v151l104 40v-191h116v-86h-116v-282q0 -40 15 -59.5t55 -19.5q29 0 46 5v-84q-37 -8 -73 -8q-147 0 -147 155v293h-88z" />
    <glyph glyph-name="Tbar" unicode="&#x166;" horiz-adv-x="560" 
d="M554 729v-98h-220v-200h169v-92h-169v-339h-108v339h-159v92h159v200h-220v98h548z" />
    <glyph glyph-name="tbar" unicode="&#x167;" horiz-adv-x="351" 
d="M324 332v-84h-120v-90q0 -40 15 -59.5t55 -19.5q29 0 46 5v-84q-37 -8 -73 -8q-147 0 -147 155v101h-89v84h89v108h-88v86h88v151l104 40v-191h116v-86h-116v-108h120z" />
    <glyph glyph-name="Umacron" unicode="&#x16a;" horiz-adv-x="775" 
d="M549 789h-322v76h322v-76zM89 272v457h108v-448q0 -89 51.5 -140t139.5 -51t139 50.5t51 140.5v448h108v-457q0 -130 -81 -206q-79 -76 -218 -76q-143 0 -220 76q-78 76 -78 206z" />
    <glyph glyph-name="umacron" unicode="&#x16b;" horiz-adv-x="610" 
d="M466 597h-322v76h322v-76zM433 526h103v-526h-89l-14 97h-8q-50 -107 -177 -107q-83 0 -129 53t-46 149v334h104v-319q0 -128 111 -128q66 0 105.5 47.5t39.5 123.5v276z" />
    <glyph glyph-name="Uring" unicode="&#x16e;" horiz-adv-x="775" 
d="M503 803q0 -50 -32 -81t-83 -31t-83 31t-32 81q0 51 32 81.5t83 30.5t83 -30.5t32 -81.5zM441 803q0 26 -14.5 42t-38.5 16t-39 -16t-15 -42q0 -25 15 -41t39 -16t38.5 16t14.5 41zM89 272v457h108v-448q0 -89 51.5 -140t139.5 -51t139 50.5t51 140.5v448h108v-457
q0 -130 -81 -206q-79 -76 -218 -76q-143 0 -220 76q-78 76 -78 206z" />
    <glyph glyph-name="uring" unicode="&#x16f;" horiz-adv-x="610" 
d="M420 611q0 -50 -32 -81t-83 -31t-83 31t-32 81q0 51 32 81.5t83 30.5t83 -30.5t32 -81.5zM358 611q0 26 -14.5 42t-38.5 16t-39 -16t-15 -42q0 -25 15 -41t39 -16t38.5 16t14.5 41zM433 526h103v-526h-89l-14 97h-8q-50 -107 -177 -107q-83 0 -129 53t-46 149v334h104
v-319q0 -128 111 -128q66 0 105.5 47.5t39.5 123.5v276z" />
    <glyph glyph-name="Uhungarumlaut" unicode="&#x170;" horiz-adv-x="775" 
d="M478 891l-197 -114l-33 50l183 140zM694 891l-198 -114l-32 50l182 140zM89 272v457h108v-448q0 -89 51.5 -140t139.5 -51t139 50.5t51 140.5v448h108v-457q0 -130 -81 -206q-79 -76 -218 -76q-143 0 -220 76q-78 76 -78 206z" />
    <glyph glyph-name="uhungarumlaut" unicode="&#x171;" horiz-adv-x="610" 
d="M396 698l-197 -114l-33 50l183 140zM612 698l-198 -114l-32 50l182 140zM433 526h103v-526h-89l-14 97h-8q-50 -107 -177 -107q-83 0 -129 53t-46 149v334h104v-319q0 -128 111 -128q66 0 105.5 47.5t39.5 123.5v276z" />
    <glyph glyph-name="Uogonek" unicode="&#x172;" horiz-adv-x="775" 
d="M578 281v448h108v-457q0 -112 -62 -185.5t-171 -91.5q-68 -23 -68 -75q0 -47 62 -47q31 0 59 12v-60q-34 -15 -79 -13q-50 1 -80 27t-30 68q0 49 36 84q-125 10 -194.5 84.5t-69.5 196.5v457h108v-448q0 -89 51.5 -140t139.5 -51t139 50.5t51 140.5z" />
    <glyph glyph-name="uogonek" unicode="&#x173;" horiz-adv-x="610" 
d="M514 -127q30 0 59 12v-60q-34 -15 -79 -13q-50 1 -80 27t-30 68q0 65 61 104l-12 86h-8q-50 -107 -177 -107q-83 0 -129 53t-46 149v334h104v-319q0 -128 111 -128q66 0 105.5 47.5t39.5 123.5v276h103v-524l1 -2q-85 -21 -85 -80q0 -47 62 -47z" />
    <glyph glyph-name="Wcircumflex" unicode="&#x174;" horiz-adv-x="942" 
d="M359 776l-50 49l124 127h66l123 -127l-51 -49l-106 112zM159 0l-149 729h118l80 -417l31 -192h7l154 609h143l156 -610h6l31 192l79 418h117l-149 -729h-151l-157 601h-6l-159 -601h-151z" />
    <glyph glyph-name="wcircumflex" unicode="&#x175;" horiz-adv-x="757" 
d="M485 584l-106 112l-106 -112l-50 49l124 127h66l123 -127zM575 260l66 266h107l-143 -526h-133l-61 258l-31 139h-6l-29 -139l-59 -258h-132l-146 526h109l66 -264l34 -159h8l94 423h121l96 -422h7z" />
    <glyph glyph-name="Ycircumflex" unicode="&#x176;" horiz-adv-x="663" 
d="M226 776l-50 49l124 127h66l123 -127l-51 -49l-106 112zM277 291l-273 438h131l105 -179l88 -158h8l89 158l103 179h130l-273 -438v-291h-108v291z" />
    <glyph glyph-name="ycircumflex" unicode="&#x177;" horiz-adv-x="483" 
d="M134 585l-50 49l124 127h66l123 -127l-51 -49l-106 112zM195 19l-198 507h112l84 -241l50 -159h6l48 159l78 241h109l-188 -535q-58 -168 -212 -168q-21 0 -51 5v87q21 -4 42 -4q83 0 109 80z" />
    <glyph glyph-name="Ydieresis" unicode="&#x178;" horiz-adv-x="663" 
d="M278 794h-90v127h90v-127zM474 794h-90v127h90v-127zM277 291l-273 438h131l105 -179l88 -158h8l89 158l103 179h130l-273 -438v-291h-108v291z" />
    <glyph glyph-name="Zacute" unicode="&#x179;" horiz-adv-x="578" 
d="M425 967l46 -78l-200 -113l-32 51zM19 729h539v-88l-401 -543h396v-98h-534v88l401 543h-401v98z" />
    <glyph glyph-name="zacute" unicode="&#x17a;" horiz-adv-x="476" 
d="M389 774l46 -78l-200 -113l-32 51zM435 448l-273 -363h276v-85h-400v77l272 363h-273v86h398v-78z" />
    <glyph glyph-name="Zdotaccent" unicode="&#x17b;" horiz-adv-x="578" 
d="M227 921h91v-127h-91v127zM19 729h539v-88l-401 -543h396v-98h-534v88l401 543h-401v98z" />
    <glyph glyph-name="zdotaccent" unicode="&#x17c;" horiz-adv-x="476" 
d="M191 728h91v-127h-91v127zM435 448l-273 -363h276v-85h-400v77l272 363h-273v86h398v-78z" />
    <glyph glyph-name="Zcaron" unicode="&#x17d;" horiz-adv-x="578" 
d="M428 918l-123 -129h-66l-124 129l52 48l104 -113l106 113zM19 729h539v-88l-401 -543h396v-98h-534v88l401 543h-401v98z" />
    <glyph glyph-name="zcaron" unicode="&#x17e;" horiz-adv-x="476" 
d="M392 725l-123 -129h-66l-124 129l52 48l104 -113l106 113zM435 448l-273 -363h276v-85h-400v77l272 363h-273v86h398v-78z" />
    <glyph glyph-name="uni018F" unicode="&#x18f;" horiz-adv-x="708" 
d="M352 739q149 0 231 -98t82 -275q0 -182 -85 -279t-231 -97q-145 0 -225 92q-79 92 -79 248q0 34 4 58h502q0 125 -53 189.5t-151 64.5q-73 0 -126 -34.5t-67 -92.5h-110q22 103 106 163q83 61 202 61zM349 86q90 0 143.5 56.5t58.5 158.5h-390q1 -108 51 -161.5
t137 -53.5z" />
    <glyph glyph-name="florin" unicode="&#x192;" horiz-adv-x="545" 
d="M515 642h-146l-17 -121l-11 -78h112v-86h-123l-39 -280l-16 -114q-9 -91 -104 -91h-146v87h146l18 118l37 280h-101v86h113l10 78l17 117q4 42 25.5 65t78.5 26h146v-87z" />
    <glyph glyph-name="AEacute" unicode="&#x1fc;" horiz-adv-x="963" 
d="M712 967l46 -78l-200 -113l-32 51zM907 729v-97h-387v-222h330v-91h-330v-222h387v-97h-496v193h-233l-62 -193h-113l244 729h660zM205 280h206v352h-93z" />
    <glyph glyph-name="Oslashacute" unicode="&#x1fe;" horiz-adv-x="854" 
d="M614 967l46 -78l-200 -113l-32 51zM754 661l51 -70l-79 -58q30 -73 30 -168q0 -173 -94 -274q-95 -101 -250 -101q-170 0 -266 121l-58 -43l-46 71l61 45q-35 81 -35 180q0 171 94 272q95 102 250 102q179 0 272 -128zM183 365q0 -61 15 -111l397 290q-63 97 -183 97
q-106 0 -167 -76q-62 -76 -62 -200zM642 364q0 54 -12 99l-394 -287q62 -87 176 -87q106 0 168 75q62 76 62 200z" />
    <glyph glyph-name="oslashacute" unicode="&#x1ff;" horiz-adv-x="630" 
d="M467 774l46 -78l-200 -113l-32 51zM563 491l41 -61l-59 -43q23 -58 23 -125q0 -121 -70 -197q-70 -75 -184 -75q-123 0 -195 85l-52 -38l-40 59l55 41q-24 54 -24 124q0 122 70 198q71 77 186 77q121 0 193 -86zM164 262q0 -33 6 -60l257 189q-39 55 -114 55
q-69 0 -109 -49.5t-40 -134.5zM462 263q0 32 -6 59l-256 -188q40 -54 113 -54q69 0 109 49t40 134z" />
    <glyph glyph-name="uni0218" unicode="&#x218;" horiz-adv-x="673" 
d="M44 226h112q6 -148 180 -148q78 0 122.5 33t44.5 90q0 59 -44 82q-29 17 -65 26l-129 28q-61 13 -100 30q-100 44 -105 163q0 95 72 152q74 57 193 57q123 0 194.5 -57.5t73.5 -155.5h-112q-4 61 -46.5 93t-115.5 32q-68 0 -106.5 -28.5t-38.5 -77.5q0 -55 46 -79
q35 -17 77 -27l129 -26q79 -17 130 -59q62 -49 62 -143q0 -104 -75.5 -162.5t-206.5 -58.5q-139 0 -215 64q-75 65 -77 172zM296 -249v32q47 0 47 44v9h-50v105h95v-104q0 -86 -92 -86z" />
    <glyph glyph-name="uni0219" unicode="&#x219;" horiz-adv-x="517" 
d="M41 161h101q0 -43 31.5 -68t87.5 -25q51 0 79 21t28 58q0 54 -66 66l-107 20q-144 25 -144 142q0 75 55 118t149 43t149 -44t57 -118h-100q-3 84 -107 84q-47 0 -73 -19.5t-26 -53.5q0 -57 80 -68l100 -18q140 -26 140 -148q0 -74 -58.5 -117.5t-155.5 -43.5
q-102 0 -161 46.5t-59 124.5zM216 -242v32q47 0 47 44v9h-50v105h95v-104q0 -86 -92 -86z" />
    <glyph glyph-name="uni021A" unicode="&#x21a;" horiz-adv-x="560" 
d="M6 729h548v-98h-220v-631h-108v631h-220v98zM282 -164h-50v105h95v-104q0 -86 -92 -86v32q47 0 47 44v9z" />
    <glyph glyph-name="uni021B" unicode="&#x21b;" horiz-adv-x="351" 
d="M12 440v86h88v151l104 40v-191h116v-86h-116v-282q0 -40 15 -59.5t55 -19.5q29 0 46 5v-84q-37 -8 -73 -8q-147 0 -147 155v293h-88zM180 -246v32q47 0 47 44v9h-50v105h95v-104q0 -86 -92 -86z" />
    <glyph glyph-name="uni0237" unicode="&#x237;" horiz-adv-x="268" 
d="M35 -176q-23 0 -58 5v83q12 -4 29 -4q43 0 60.5 19.5t17.5 62.5v536h103v-543q0 -76 -38 -117.5t-114 -41.5z" />
    <glyph glyph-name="circumflex" unicode="&#x2c6;" horiz-adv-x="362" 
d="M75 721l-50 49l124 127h66l123 -127l-51 -49l-106 112z" />
    <glyph glyph-name="caron" unicode="&#x2c7;" horiz-adv-x="362" 
d="M149 733l-124 129l52 48l104 -113l106 113l51 -48l-123 -129h-66z" />
    <glyph glyph-name="breve" unicode="&#x2d8;" horiz-adv-x="358" 
d="M259 872h69q0 -66 -40.5 -107t-108.5 -41t-108 40.5t-40 107.5h68q0 -40 22 -63t58 -23t58 23t22 63z" />
    <glyph glyph-name="dotaccent" unicode="&#x2d9;" horiz-adv-x="195" 
d="M143 738h-91v127h91v-127z" />
    <glyph glyph-name="ring" unicode="&#x2da;" horiz-adv-x="368" 
d="M303 781q0 -50 -32 -81t-83 -31t-83 31t-32 81q0 51 32 81.5t83 30.5t83 -30.5t32 -81.5zM241 781q0 26 -14.5 42t-38.5 16t-39 -16t-15 -42q0 -25 15 -41t39 -16t38.5 16t14.5 41z" />
    <glyph glyph-name="ogonek" unicode="&#x2db;" horiz-adv-x="412" 
d="M115 -93q0 48 35.5 83.5t95.5 46.5l22 -37q-85 -21 -85 -80q0 -47 62 -47q31 0 59 12v-60q-34 -15 -79 -13q-49 1 -79.5 27t-30.5 68z" />
    <glyph glyph-name="tilde" unicode="&#x2dc;" horiz-adv-x="337" 
d="M232 727q-32 -1 -72 18q-41 21 -59 20q-31 -2 -53 -34l-44 31q38 77 100 80q24 1 66 -19t62 -19q29 1 55 35l44 -31q-36 -80 -99 -81z" />
    <glyph glyph-name="hungarumlaut" unicode="&#x2dd;" horiz-adv-x="506" 
d="M256 835l-197 -114l-33 50l183 140zM472 835l-198 -114l-32 50l182 140z" />
    <glyph glyph-name="gravecomb" unicode="&#x300;" 
d="M-110 773l-33 -52l-199 114l46 77z" />
    <glyph glyph-name="acutecomb" unicode="&#x301;" 
d="M-89 833l-200 -113l-32 51l186 140z" />
    <glyph glyph-name="uni0302" unicode="&#x302;" 
d="M-287 721l-50 49l124 127h66l123 -127l-51 -49l-106 112z" />
    <glyph glyph-name="tildecomb" unicode="&#x303;" 
d="M-105 727q-31 -1 -72 18q-41 21 -59 20q-31 -2 -53 -34l-44 31q38 77 100 80q24 1 66 -19t62 -19q29 1 55 35l44 -31q-36 -80 -99 -81z" />
    <glyph glyph-name="uni0304" unicode="&#x304;" 
d="M-17 734h-322v76h322v-76z" />
    <glyph glyph-name="uni0306" unicode="&#x306;" 
d="M-99 872h69q0 -66 -40.5 -107t-108.5 -41t-108 40.5t-40 107.5h68q0 -40 22 -63t58 -23t58 23t22 63z" />
    <glyph glyph-name="uni0307" unicode="&#x307;" 
d="M-52 738h-91v127h91v-127z" />
    <glyph glyph-name="uni0308" unicode="&#x308;" 
d="M-253 738h-90v127h90v-127zM-57 738h-90v127h90v-127z" />
    <glyph glyph-name="uni030A" unicode="&#x30a;" 
d="M-65 781q0 -50 -32 -81t-83 -31t-83 31t-32 81q0 51 32 81.5t83 30.5t83 -30.5t32 -81.5zM-127 781q0 26 -14.5 42t-38.5 16t-39 -16t-15 -42q0 -25 15 -41t39 -16t38.5 16t14.5 41z" />
    <glyph glyph-name="uni030B" unicode="&#x30b;" 
d="M-250 835l-197 -114l-33 50l183 140zM-34 835l-198 -114l-32 50l182 140z" />
    <glyph glyph-name="uni030C" unicode="&#x30c;" 
d="M-213 733l-124 129l52 48l104 -113l106 113l51 -48l-123 -129h-66z" />
    <glyph glyph-name="uni0312" unicode="&#x312;" 
d="M-47 945v-32q-47 0 -47 -45v-24h50v-105h-95v120q0 86 92 86z" />
    <glyph glyph-name="uni0326" unicode="&#x326;" 
d="M-184 -247v32q47 0 47 44v9h-50v105h95v-104q0 -86 -92 -86z" />
    <glyph glyph-name="uni0327" unicode="&#x327;" 
d="M-231 4l-28 -46q35 3 61.5 -18t26.5 -59q1 -33 -18 -55.5t-47 -30t-58 -4t-50 19.5v54q27 -26 68 -21q40 4 40 40q0 26 -21.5 34.5t-63.5 -2.5v27l51 89h39v-28z" />
    <glyph glyph-name="uni0328" unicode="&#x328;" 
d="M-297 -93q0 48 35.5 83.5t95.5 46.5l22 -37q-85 -21 -85 -80q0 -47 62 -47q31 0 59 12v-60q-34 -15 -79 -13q-49 1 -79.5 27t-30.5 68z" />
    <glyph glyph-name="uni0335" unicode="&#x335;" 
d="M-68 302h-341v75h341v-75z" />
    <glyph glyph-name="uni0336" unicode="&#x336;" 
 />
    <glyph glyph-name="uni0337" unicode="&#x337;" 
d="M-309 0h-69l287 729h68z" />
    <glyph glyph-name="uni0338" unicode="&#x338;" 
d="M-309 0h-69l287 729h68z" />
    <glyph glyph-name="uni03BC" unicode="&#x3bc;" horiz-adv-x="588" 
d="M168 -173h-92v699h104v-333q0 -57 29 -88.5t79 -31.5q56 0 88 39t32 106v308h104v-526h-98l3 81h-6q-17 -44 -53.5 -67.5t-84.5 -23.5q-30 0 -57 12t-40 32h-8v-207z" />
    <glyph glyph-name="pi" unicode="&#x3c0;" horiz-adv-x="591" 
d="M566 81v-79q-27 -9 -59 -9q-127 0 -127 139v317h-169v-449h-103v449h-87v77h546v-77h-86v-314q0 -58 51 -58q23 0 34 4z" />
    <glyph glyph-name="omega" unicode="&#x3c9;" horiz-adv-x="793" 
d="M674 0h-244v199q86 17 137 78q52 61 52 151q0 96 -62 158t-161 62t-161 -62q-61 -61 -61 -160q0 -88 51 -149t137 -78v-199h-244v83h155v58q-93 29 -150 108q-56 80 -56 183q0 136 89 222q89 85 240 85q148 0 239 -85q91 -84 91 -222q0 -102 -57 -182q-55 -79 -149 -109
v-58h154v-83z" />
    <glyph glyph-name="Wgrave" unicode="&#x1e80;" horiz-adv-x="942" 
d="M498 829l-33 -52l-199 114l46 77zM159 0l-149 729h118l80 -417l31 -192h7l154 609h143l156 -610h6l31 192l79 418h117l-149 -729h-151l-157 601h-6l-159 -601h-151z" />
    <glyph glyph-name="wgrave" unicode="&#x1e81;" horiz-adv-x="757" 
d="M226 775l186 -139l-33 -52l-199 114zM575 260l66 266h107l-143 -526h-133l-61 258l-31 139h-6l-29 -139l-59 -258h-132l-146 526h109l66 -264l34 -159h8l94 423h121l96 -422h7z" />
    <glyph glyph-name="Wacute" unicode="&#x1e82;" horiz-adv-x="942" 
d="M664 889l-200 -113l-32 51l186 140zM159 0l-149 729h118l80 -417l31 -192h7l154 609h143l156 -610h6l31 192l79 418h117l-149 -729h-151l-157 601h-6l-159 -601h-151z" />
    <glyph glyph-name="wacute" unicode="&#x1e83;" horiz-adv-x="757" 
d="M531 774l46 -78l-200 -113l-32 51zM575 260l66 266h107l-143 -526h-133l-61 258l-31 139h-6l-29 -139l-59 -258h-132l-146 526h109l66 -264l34 -159h8l94 423h121l96 -422h7z" />
    <glyph glyph-name="Wdieresis" unicode="&#x1e84;" horiz-adv-x="942" 
d="M412 794h-90v127h90v-127zM608 794h-90v127h90v-127zM159 0l-149 729h118l80 -417l31 -192h7l154 609h143l156 -610h6l31 192l79 418h117l-149 -729h-151l-157 601h-6l-159 -601h-151z" />
    <glyph glyph-name="wdieresis" unicode="&#x1e85;" horiz-adv-x="757" 
d="M235 728h90v-127h-90v127zM431 728h90v-127h-90v127zM575 260l66 266h107l-143 -526h-133l-61 258l-31 139h-6l-29 -139l-59 -258h-132l-146 526h109l66 -264l34 -159h8l94 423h121l96 -422h7z" />
    <glyph glyph-name="Ygrave" unicode="&#x1ef2;" horiz-adv-x="663" 
d="M365 829l-33 -52l-199 114l46 77zM277 291l-273 438h131l105 -179l88 -158h8l89 158l103 179h130l-273 -438v-291h-108v291z" />
    <glyph glyph-name="ygrave" unicode="&#x1ef3;" horiz-adv-x="483" 
d="M273 637l-33 -52l-199 114l46 77zM195 19l-198 507h112l84 -241l50 -159h6l48 159l78 241h109l-188 -535q-58 -168 -212 -168q-21 0 -51 5v87q21 -4 42 -4q83 0 109 80z" />
    <glyph glyph-name="endash" unicode="&#x2013;" horiz-adv-x="641" 
d="M580 268h-520v65h520v-65z" />
    <glyph glyph-name="emdash" unicode="&#x2014;" horiz-adv-x="837" 
d="M776 268h-716v65h716v-65z" />
    <glyph glyph-name="quoteleft" unicode="&#x2018;" horiz-adv-x="210" 
d="M170 736v-46q-74 0 -74 -71v-21h63v-129h-121v150q0 54 36 85.5t96 31.5z" />
    <glyph glyph-name="quoteright" unicode="&#x2019;" horiz-adv-x="208" 
d="M42 465v46q75 0 75 71v21h-64v129h121v-150q0 -54 -36 -85.5t-96 -31.5z" />
    <glyph glyph-name="quotesinglbase" unicode="&#x201a;" horiz-adv-x="210" 
d="M40 -138v46q75 0 75 71v21h-64v129h121v-150q0 -54 -36 -85.5t-96 -31.5z" />
    <glyph glyph-name="quotedblleft" unicode="&#x201c;" horiz-adv-x="419" 
d="M171 736v-46q-75 0 -75 -71v-21h64v-129h-121v150q0 54 36 85.5t96 31.5zM378 736v-46q-74 0 -74 -71v-21h63v-129h-121v150q0 54 36 85.5t96 31.5z" />
    <glyph glyph-name="quotedblright" unicode="&#x201d;" horiz-adv-x="410" 
d="M44 465v46q75 0 75 71v21h-64v129h121v-150q0 -54 -36 -85.5t-96 -31.5zM245 465v46q74 0 74 71v21h-64v129h121v-150q0 -54 -35.5 -85.5t-95.5 -31.5z" />
    <glyph glyph-name="quotedblbase" unicode="&#x201e;" horiz-adv-x="408" 
d="M47 -138v46q75 0 75 71v21h-64v129h121v-150q0 -54 -36 -85.5t-96 -31.5zM246 -138v46q75 0 75 71v21h-64v129h121v-150q0 -54 -36 -85.5t-96 -31.5z" />
    <glyph glyph-name="dagger" unicode="&#x2020;" horiz-adv-x="415" 
d="M247 731v-353h136v-73h-136v-148h-79v148h-137v73h137v353h79z" />
    <glyph glyph-name="daggerdbl" unicode="&#x2021;" horiz-adv-x="416" 
d="M384 586v-71h-137v-137h136v-73h-136v-148h-79v148h-137v73h137v137h-136v71h136v145h79v-145h137z" />
    <glyph glyph-name="bullet" unicode="&#x2022;" horiz-adv-x="392" 
d="M63 276q0 58 38 99t94 41t95 -41t39 -99q0 -56 -40 -96q-39 -40 -94 -40t-94 40q-38 41 -38 96z" />
    <glyph glyph-name="ellipsis" unicode="&#x2026;" horiz-adv-x="691" 
d="M188 0h-122v136h122v-136zM406 0h-121v136h121v-136zM625 0h-122v136h122v-136z" />
    <glyph glyph-name="perthousand" unicode="&#x2030;" horiz-adv-x="1303" 
d="M57 557q0 81 49 130q50 50 128 50q79 0 129 -50q49 -49 49 -131q0 -80 -50 -132q-50 -50 -128 -50q-79 0 -128 51q-49 50 -49 132zM261 0h-74l462 729h74zM136 557q0 -51 27 -82.5t71 -31.5q45 0 72.5 31.5t27.5 82.5q0 50 -27.5 81t-72.5 31q-43 0 -70.5 -31t-27.5 -81z
M485 173q0 81 49 131q50 51 129 51t127 -51q49 -50 49 -132t-49 -132q-50 -50 -127 -50q-79 0 -129 50q-49 50 -49 133zM888 173q0 81 49 131q49 51 129 51q78 0 128 -51q49 -50 49 -132t-49 -132q-50 -50 -128 -50q-79 0 -128.5 50.5t-49.5 132.5zM663 286
q-45 0 -72.5 -31.5t-27.5 -81.5t28 -82t72 -32t71.5 32t27.5 82t-28 81.5t-71 31.5zM1066 59q44 0 71.5 32t27.5 82t-27.5 81.5t-71.5 31.5t-71.5 -31.5t-27.5 -81.5q0 -51 27 -82.5t72 -31.5z" />
    <glyph glyph-name="guilsinglleft" unicode="&#x2039;" horiz-adv-x="327" 
d="M170 64l-121 210l121 208h93l-110 -208l110 -210h-93z" />
    <glyph glyph-name="guilsinglright" unicode="&#x203a;" horiz-adv-x="327" 
d="M159 482l119 -208l-119 -210h-96l110 210l-110 208h96z" />
    <glyph glyph-name="fraction" unicode="&#x2044;" horiz-adv-x="217" 
d="M-55 -46h-84l410 814h84z" />
    <glyph glyph-name="uni2070" unicode="&#x2070;" horiz-adv-x="491" 
d="M246 295q-95 0 -148 75t-53 213q0 139 53.5 212.5t147.5 73.5t147 -74.5t53 -211.5q0 -140 -53.5 -214t-146.5 -74zM354 581q0 211 -108 211q-110 0 -110 -206q0 -213 109 -213t109 208z" />
    <glyph glyph-name="uni2074" unicode="&#x2074;" horiz-adv-x="482" 
d="M383 862v-371h69v-74h-69v-117h-87v117h-270v72l224 373h133zM296 791l-179 -300h179v300z" />
    <glyph glyph-name="uni2075" unicode="&#x2075;" horiz-adv-x="475" 
d="M250 674q80 0 130 -53q51 -53 51 -135q0 -86 -55 -140q-56 -54 -143 -54q-85 0 -138 50t-52 131h89q-2 -46 26 -74q29 -29 76 -29q48 0 76 31q30 31 30 82t-30 84t-78 33q-32 0 -58.5 -15.5t-37.5 -39.5h-83l14 317h332v-77h-255l-7 -147l4 -2q36 38 109 38z" />
    <glyph glyph-name="uni2076" unicode="&#x2076;" horiz-adv-x="479" 
d="M248 292q-101 0 -151.5 76t-50.5 214t51 212.5t155 74.5q76 0 124 -39t55 -105h-90q-11 69 -91 69q-122 0 -113 -195h5q35 71 126 71q76 0 124 -51t48 -134q0 -87 -52.5 -140t-139.5 -53zM251 596q-46 0 -73.5 -32.5t-27.5 -81.5q0 -51 28 -82q28 -30 73 -30t72 31
q27 32 27 83t-27 81.5t-72 30.5z" />
    <glyph glyph-name="uni2077" unicode="&#x2077;" horiz-adv-x="430" 
d="M95 686h-72v176h383v-62q-79 -109 -138 -244q-60 -137 -81 -256h-95q19 112 76 246q58 132 132 239h-205v-99z" />
    <glyph glyph-name="uni2078" unicode="&#x2078;" horiz-adv-x="465" 
d="M39 447q0 92 82 131v6q-37 18 -59.5 52.5t-22.5 78.5q0 70 53.5 112t140.5 42t140 -42.5t53 -111.5q0 -43 -21.5 -78t-59.5 -53v-6q39 -19 60 -53.5t21 -77.5q0 -71 -53.5 -113t-141.5 -42q-87 0 -139.5 43t-52.5 112zM232 617q47 0 74.5 24t27.5 63q0 42 -28 64
q-27 24 -74 24q-46 0 -75 -24q-27 -24 -27 -64q0 -39 28.5 -63t73.5 -24zM130 457q0 -41 28 -64.5t74 -23.5q47 0 74.5 24t27.5 64q0 41 -28 65t-74 24q-47 0 -74.5 -24.5t-27.5 -64.5z" />
    <glyph glyph-name="uni2079" unicode="&#x2079;" horiz-adv-x="477" 
d="M228 292q-73 0 -122 39t-56 105h90q4 -32 29 -50t62 -18q121 0 111 195h-5q-36 -70 -127 -70q-75 0 -123 51t-48 134q0 86 52 138q53 53 140 53q101 0 151 -76.5t50 -215.5q0 -146 -51 -215.5t-153 -69.5zM228 566q46 0 73.5 32.5t27.5 82.5q0 49 -28 80t-73 31t-72 -31
t-27 -83q0 -51 27 -81.5t72 -30.5z" />
    <glyph glyph-name="uni2080" unicode="&#x2080;" horiz-adv-x="491" 
d="M246 -105q-95 0 -148 75t-53 213q0 139 53.5 212.5t147.5 73.5t147 -74.5t53 -211.5q0 -140 -53.5 -214t-146.5 -74zM354 181q0 211 -108 211q-110 0 -110 -206q0 -213 109 -213t109 208z" />
    <glyph glyph-name="uni2081" unicode="&#x2081;" horiz-adv-x="354" 
d="M174 297h-143v68h23q54 0 89 27t36 70h82v-562h-87v397z" />
    <glyph glyph-name="uni2082" unicode="&#x2082;" horiz-adv-x="452" 
d="M149 -26l93 4h168v-78h-359v19q0 113 92 187q14 12 45 35.5t47.5 38t37 36t30 43.5t9.5 46q0 41 -24 64t-66 23q-46 0 -71.5 -26.5t-23.5 -74.5h-88q-1 81 50.5 129.5t135.5 48.5q81 0 130.5 -45.5t49.5 -117.5q0 -91 -81 -160q-13 -11 -64 -50t-76.5 -66t-34.5 -56z" />
    <glyph glyph-name="uni2083" unicode="&#x2083;" horiz-adv-x="465" 
d="M231 -108q-87 0 -137.5 49t-48.5 129h91q-2 -48 24 -74.5t72 -26.5t73.5 25.5t27.5 67.5q0 43 -29 67t-79 24h-45v73h40q49 0 75.5 23.5t26.5 62.5q0 37 -25 58.5t-65 21.5q-46 0 -71.5 -26.5t-24.5 -72.5h-89q-3 79 48 127q52 49 138 49q79 0 130 -40.5t51 -108.5
q0 -87 -82 -124v-4q44 -17 68 -53t24 -82q0 -72 -54 -119q-52 -46 -139 -46z" />
    <glyph glyph-name="uni2084" unicode="&#x2084;" horiz-adv-x="482" 
d="M383 462v-371h69v-74h-69v-117h-87v117h-270v72l224 373h133zM296 391l-179 -300h179v300z" />
    <glyph glyph-name="uni2085" unicode="&#x2085;" horiz-adv-x="475" 
d="M250 274q80 0 130 -53q51 -53 51 -135q0 -86 -55 -140q-56 -54 -143 -54q-85 0 -138 50t-52 131h89q-2 -46 26 -74q29 -29 76 -29q48 0 76 31q30 32 30 82q0 51 -30 84t-78 33q-32 0 -58.5 -15.5t-37.5 -39.5h-83l14 317h332v-77h-255l-7 -147l4 -2q36 38 109 38z" />
    <glyph glyph-name="uni2086" unicode="&#x2086;" horiz-adv-x="479" 
d="M248 -108q-101 0 -151.5 76t-50.5 214t51 212.5t155 74.5q76 0 124 -39t55 -105h-90q-11 69 -91 69q-122 0 -113 -195h5q35 71 126 71q76 0 124 -51t48 -134q0 -87 -52.5 -140t-139.5 -53zM251 196q-46 0 -73.5 -32.5t-27.5 -81.5q0 -51 28 -82q28 -30 73 -30t72 31
t27 83q0 51 -27 81.5t-72 30.5z" />
    <glyph glyph-name="uni2087" unicode="&#x2087;" horiz-adv-x="430" 
d="M95 286h-72v176h383v-62q-79 -110 -138 -244q-60 -133 -81 -256h-95q19 112 76 246q58 132 132 239h-205v-99z" />
    <glyph glyph-name="uni2088" unicode="&#x2088;" horiz-adv-x="465" 
d="M39 47q0 92 82 131v6q-37 18 -59.5 52.5t-22.5 78.5q0 70 53.5 112t140.5 42t140 -42.5t53 -111.5q0 -43 -21.5 -78t-59.5 -53v-6q39 -19 60 -53.5t21 -77.5q0 -71 -53.5 -113t-141.5 -42q-87 0 -139.5 43t-52.5 112zM232 217q47 0 74.5 24t27.5 63q0 42 -28 64
q-27 24 -74 24q-46 0 -75 -24q-27 -24 -27 -64q0 -39 28.5 -63t73.5 -24zM130 57q0 -41 28 -64.5t74 -23.5q47 0 74.5 24t27.5 64q0 41 -28 65t-74 24q-47 0 -74.5 -24.5t-27.5 -64.5z" />
    <glyph glyph-name="uni2089" unicode="&#x2089;" horiz-adv-x="477" 
d="M228 -108q-73 0 -122 39t-56 105h90q4 -32 29 -50t62 -18q121 0 111 195h-5q-36 -70 -127 -70q-75 0 -123 51t-48 134q0 86 52 138q53 53 140 53q101 0 151 -76.5t50 -215.5q0 -146 -51 -215.5t-153 -69.5zM228 166q46 0 73.5 32.5t27.5 82.5q0 49 -28 80t-73 31t-72 -31
t-27 -83q0 -51 27 -81.5t72 -30.5z" />
    <glyph glyph-name="uni20A6" unicode="&#x20a6;" horiz-adv-x="715" 
d="M625 402h85v-76h-85v-326h-120l-177 326h-136v-326h-105v326h-83v76h83v327h121l177 -327h136v327h104v-327zM186 578l5 -176h96l-95 176h-6zM521 151h5l-4 175h-96z" />
    <glyph glyph-name="uni20A9" unicode="&#x20a9;" horiz-adv-x="815" 
d="M724 402h80v-76h-94l-59 -326h-128l-63 326h-102l-62 -326h-127l-61 326h-98v76h83l-61 327h107l53 -327h96l67 327h107l67 -327h95l49 327h110zM411 589h-5l-34 -187h73zM238 128l32 184l3 14h-68l2 -13l26 -185h5zM586 127l24 184l2 15h-67l3 -15l32 -184h6z" />
    <glyph glyph-name="uni20AA" unicode="&#x20aa;" horiz-adv-x="722" 
d="M398 165v476h-237v-641h-91v729h317q52 0 76.5 -22.5t24.5 -78.5v-463h-90zM561 89v640h91v-729h-317q-52 0 -76.5 22.5t-24.5 78.5v464h90v-476h237z" />
    <glyph glyph-name="Euro" unicode="&#x20ac;" horiz-adv-x="743" 
d="M401 87q69 0 114.5 35.5t61.5 98.5h114q-19 -107 -99 -168q-79 -62 -194 -62q-118 0 -195.5 68t-102.5 191h-73v76h63q-1 9 -1 39q0 7 2 53h-64v76h76q28 117 106 180.5t193 63.5q114 0 192 -63t97 -166h-114q-17 65 -63.5 99t-113.5 34q-141 0 -184 -148h257l-9 -76
h-262q-2 -46 -2 -54q0 -30 1 -38h257l-11 -76h-235q39 -163 189 -163z" />
    <glyph glyph-name="uni20B2" unicode="&#x20b2;" horiz-adv-x="694" 
d="M316 307v83h300v-42q0 -127 -69 -202q-68 -74 -182 -85v-94h-74v94q-115 14 -182 95q-67 82 -67 212q0 128 67 210q68 84 182 97v95h74v-93q97 -7 161 -62.5t77 -142.5h-111q-12 53 -54 83t-103 30q-87 0 -135 -57.5t-48 -159.5t48.5 -159t133.5 -57q75 0 123 42.5
t51 112.5h-192z" />
    <glyph glyph-name="uni20B8" unicode="&#x20b8;" horiz-adv-x="559" 
d="M6 641v88h547v-88h-547zM228 456h-222v92h547v-92h-221v-456h-104v456z" />
    <glyph glyph-name="uni20B9" unicode="&#x20b9;" horiz-adv-x="704" 
d="M610 729v-77h-127q43 -50 52 -124h75v-76h-76q-9 -65 -48 -108.5t-101 -62.5v-6q30 -8 43 -28q9 -10 16 -23q1 -3 3 -6t3.5 -5t1.5 -3q2 -2 9.5 -16.5t8.5 -16.5l92 -177h-117l-92 180q-22 45 -45 62q-22 16 -69 16h-145v88h185q122 0 143 106h-328v76h328
q-10 51 -47.5 78.5t-95.5 27.5h-185v95h516z" />
    <glyph glyph-name="uni20BA" unicode="&#x20ba;" horiz-adv-x="602" 
d="M466 331h105q-22 -154 -125 -242q-101 -87 -253 -89h-86v280l-95 -37v86l95 38v87l-95 -38v85l95 41v187h104v-148l174 71v-86l-174 -72v-87l174 72v-86l-174 -72v-222q99 2 167 64t88 168z" />
    <glyph glyph-name="uni20BC" unicode="&#x20bc;" horiz-adv-x="687" 
d="M150 0h-103v348q0 128 64 197t182 78v106h102v-106q122 -8 183.5 -79.5t61.5 -195.5v-348h-102v348q0 83 -37.5 127t-105.5 49v-524h-102v524q-143 -11 -143 -176v-348z" />
    <glyph glyph-name="uni20BD" unicode="&#x20bd;" horiz-adv-x="661" 
d="M374 261l-133 1v-69h202v-76h-202v-117h-104v117h-92v76h92v68h-92v80h92v388h243q118 0 186 -66q68 -65 68 -172q0 -108 -71 -170q-71 -61 -189 -60zM523 492q0 66 -41 103t-113 37h-128v-279h128q72 0 113 38t41 101z" />
    <glyph glyph-name="uni20BF" unicode="&#x20bf;" horiz-adv-x="723" 
d="M589 226q0 -70 -44 -116.5t-124 -56.5v-86h-75v84h-73v-84h-73v84h-67v635h67v84h73v-84h73v84h75v-87q72 -11 112 -56t40 -112q0 -44 -24 -80.5t-65 -53.5q50 -18 77.5 -59t27.5 -96zM464 510q0 44 -28 67.5t-77 23.5h-121v-185h121q49 0 77 25.5t28 68.5zM238 135h123
q55 0 86.5 26.5t31.5 74.5q0 47 -32 72t-86 25h-123v-198z" />
    <glyph glyph-name="uni2105" unicode="&#x2105;" horiz-adv-x="946" 
d="M306 498h83q-7 -63 -54.5 -101t-116.5 -38q-79 0 -128 51.5t-49 137.5q0 87 49.5 139t131.5 52q66 0 112 -36.5t54 -94.5h-83q-6 28 -29.5 44.5t-55.5 16.5q-46 0 -71 -32t-25 -89t25 -88.5t70 -31.5q34 0 58.5 19t28.5 51zM279 0h-81l462 729h81zM544 183q0 84 50 137
t131 53q80 0 130 -53t50 -137t-50 -137t-130 -53q-82 0 -131.5 52.5t-49.5 137.5zM627 183q0 -54 26.5 -87t71.5 -33t71 33t26 88q0 54 -26 86.5t-71 32.5q-46 0 -72 -32.5t-26 -87.5z" />
    <glyph glyph-name="uni2116" unicode="&#x2116;" horiz-adv-x="1425" 
d="M822 498q0 98 66 168q66 71 171 71q106 0 172 -71q67 -70 67 -168q0 -99 -68 -167t-171 -68q-102 0 -170 68q-67 67 -67 167zM204 0h-109v729h132l363 -586h5l-7 218v368h108v-729h-132l-362 586h-5l7 -210v-376zM1059 351q59 0 96 42.5t37 106.5t-36.5 106t-94.5 42
q-60 0 -96.5 -42.5t-36.5 -106.5t37 -106t94 -42zM882 0v89h356v-89h-356z" />
    <glyph glyph-name="uni2117" unicode="&#x2117;" horiz-adv-x="926" 
d="M462 -76q-174 0 -298 117q-123 119 -123 301q0 184 123 302q124 119 298 119q175 0 297 -118q124 -117 124 -300q2 -119 -56.5 -217.5t-155.5 -152t-209 -51.5zM462 -46q160 0 273 110q112 111 112 281q0 169 -112 278t-273 109q-160 0 -273 -110t-113 -280
q0 -169 113 -279q112 -109 273 -109zM394 134h-78v417h210q68 0 109 -39t41 -103q0 -63 -41 -102.5t-109 -39.5h-132v-133zM392 480v-145h130q35 0 56 20.5t21 53.5q0 31 -21 51t-56 20h-130z" />
    <glyph glyph-name="trademark" unicode="&#x2122;" horiz-adv-x="679" 
d="M109 681h-88v50h235v-50h-92v-261h-55v261zM459 534l86 197h70v-311h-54v146l4 88h-3l-105 -228l-103 228h-4l4 -88v-146h-52v311h69l85 -197h3z" />
    <glyph glyph-name="estimated" unicode="&#x212e;" horiz-adv-x="797" 
d="M698 230h46q-27 -108 -120 -174q-94 -65 -222 -65q-162 0 -260 102q-97 101 -97 266t99 267q100 103 266 103q152 0 243 -88q91 -87 99 -246q1 -14 1 -57h-600v-185q35 -59 102 -91.5t149 -32.5q107 0 187 55q81 56 107 146zM153 561v-187h493v205q-90 111 -249 108
t-244 -126z" />
    <glyph glyph-name="oneeighth" unicode="&#x215b;" horiz-adv-x="922" 
d="M257 -46h-84l410 814h84zM152 582h-123v65h45q82 0 82 78v4h77v-473h-81v326zM562 127q0 36 18 65.5t51 44.5v5q-33 15 -51 45t-18 67q0 60 45.5 96t119.5 36q75 0 119 -36t44 -96q0 -37 -18 -67t-50 -45v-5q68 -32 68 -111q0 -61 -45 -97t-119 -36q-75 0 -119.5 37
t-44.5 97zM645 345q0 -33 22.5 -52t58.5 -19q37 0 58.5 19.5t21.5 51.5t-22 51t-58 19t-58.5 -19.5t-22.5 -50.5zM645 134q0 -33 22 -51.5t59 -18.5q36 0 58 19.5t22 50.5q0 33 -22 52.5t-58 19.5q-37 0 -59 -20t-22 -52z" />
    <glyph glyph-name="threeeighths" unicode="&#x215c;" horiz-adv-x="991" 
d="M329 -46h-84l410 814h84zM189 248q-71 0 -114 41t-42 108h82q-1 -36 20 -57t54 -21t54.5 20t21.5 50q0 33 -22.5 52.5t-59.5 19.5h-37v74h30q37 0 57.5 18.5t20.5 49.5q0 29 -18.5 45t-47.5 16q-34 0 -54 -21.5t-19 -56.5h-82q-2 67 40 108t115 41q67 0 109 -35.5
t42 -92.5q0 -71 -67 -102v-5q76 -30 76 -113q0 -61 -45 -100t-114 -39zM633 127q0 36 18 65.5t51 44.5v5q-33 15 -51 45t-18 67q0 60 45.5 96t119.5 36q75 0 119 -36t44 -96q0 -37 -18 -67t-50 -45v-5q68 -32 68 -111q0 -61 -45 -97t-119 -36q-75 0 -119.5 37t-44.5 97z
M716 345q0 -33 22.5 -52t58.5 -19q37 0 58.5 19.5t21.5 51.5t-22 51t-58 19t-58.5 -19.5t-22.5 -50.5zM716 134q0 -33 22 -51.5t59 -18.5q36 0 58 19.5t22 50.5q0 33 -22 52.5t-58 19.5q-37 0 -59 -20t-22 -52z" />
    <glyph glyph-name="fiveeighths" unicode="&#x215d;" horiz-adv-x="1006" 
d="M341 -46h-84l410 814h84zM36 401h82q-1 -34 21.5 -57.5t57.5 -23.5q36 0 58.5 25t22.5 65q0 41 -22.5 67t-59.5 26q-27 0 -46.5 -12.5t-26.5 -32.5h-77v271h289v-73h-210v-67l-2 -45l2 -2q29 30 86 30q66 0 108 -45t42 -114q0 -73 -46 -119q-45 -46 -119 -46
q-71 0 -115.5 42t-44.5 111zM646 127q0 36 18 65.5t51 44.5v5q-33 15 -51 45t-18 67q0 60 45.5 96t119.5 36q75 0 119 -36t44 -96q0 -37 -18 -67t-50 -45v-5q68 -32 68 -111q0 -61 -45 -97t-119 -36q-75 0 -119.5 37t-44.5 97zM729 345q0 -33 22.5 -52t58.5 -19
q37 0 58.5 19.5t21.5 51.5t-22 51t-58 19t-58.5 -19.5t-22.5 -50.5zM729 134q0 -33 22 -51.5t59 -18.5q36 0 58 19.5t22 50.5q0 33 -22 52.5t-58 19.5q-37 0 -59 -20t-22 -52z" />
    <glyph glyph-name="seveneighths" unicode="&#x215e;" horiz-adv-x="906" 
d="M157 -46l410 814h84l-410 -814h-84zM27 729h314v-58q-150 -183 -188 -415h-80q36 230 170 400h-155v-64h-61v137zM806 242v-5q68 -32 68 -111q0 -61 -45 -97t-119 -36q-75 0 -119.5 37t-44.5 97q0 36 18 65.5t51 44.5v5q-33 15 -51 45t-18 67q0 60 45.5 96t119.5 36
q75 0 119 -36t44 -96q0 -37 -18 -67t-50 -45zM710 274q37 0 58.5 19.5t21.5 51.5t-22 51t-58 19t-58.5 -19.5t-22.5 -50.5q0 -33 22.5 -52t58.5 -19zM790 134q0 33 -22 52.5t-58 19.5q-37 0 -59 -20t-22 -52q0 -33 22 -51.5t59 -18.5q36 0 58 19.5t22 50.5z" />
    <glyph glyph-name="arrowleft" unicode="&#x2190;" horiz-adv-x="851" 
d="M755 297v-66h-612l169 -231h-80l-198 265l198 263h80l-169 -231h612z" />
    <glyph glyph-name="arrowup" unicode="&#x2191;" horiz-adv-x="657" 
d="M565 375v-81l-205 181v-410h205v-64h-473v64h204v410l-204 -181v81l236 207z" />
    <glyph glyph-name="arrowright" unicode="&#x2192;" horiz-adv-x="877" 
d="M708 231h-612v66h612l-169 231h81l197 -263l-197 -265h-81z" />
    <glyph glyph-name="arrowdown" unicode="&#x2193;" horiz-adv-x="657" 
d="M565 531v-64h-205v-409l205 180v-81l-237 -207l-236 207v81l204 -180v409h-204v64h473z" />
    <glyph glyph-name="arrowboth" unicode="&#x2194;" horiz-adv-x="1063" 
d="M276 109l-203 244l203 243h77l-173 -211h702l-171 211h75l204 -243l-204 -244h-75l171 211h-702l173 -211h-77z" />
    <glyph glyph-name="arrowupdn" unicode="&#x2195;" horiz-adv-x="746" 
d="M375 -141l-291 250v83l259 -223v681l-259 -222v82l291 250l288 -250v-82l-258 222v-681l258 223v-83z" />
    <glyph glyph-name="uni2196" unicode="&#x2196;" horiz-adv-x="689" 
d="M631 48l-46 -48l-411 426v-347h-64v458h444v-67h-335z" />
    <glyph glyph-name="uni2197" unicode="&#x2197;" horiz-adv-x="704" 
d="M558 420l-407 -420l-46 47l408 420h-336v64h445v-457h-64v346z" />
    <glyph glyph-name="uni2198" unicode="&#x2198;" horiz-adv-x="687" 
d="M577 0l-446 -2v69h336l-407 418l45 46l408 -420l1 349h64z" />
    <glyph glyph-name="uni2199" unicode="&#x2199;" horiz-adv-x="685" 
d="M555 0h-447v460h66v-349l406 420l45 -46l-406 -418h336v-67z" />
    <glyph glyph-name="uni21A9" unicode="&#x21a9;" horiz-adv-x="940" 
d="M852 498q0 -103 -64 -162.5t-183 -59.5h-360v-124l-173 157l173 159v-125h360q82 0 130.5 40.5t48.5 114.5q0 70 -46 112t-123 42h-13v65h13q103 0 170 -62q67 -61 67 -157z" />
    <glyph glyph-name="uni21AA" unicode="&#x21aa;" horiz-adv-x="940" 
d="M89 498q0 96 66 157q67 62 171 62h13v-65h-13q-77 0 -122.5 -42t-45.5 -112q0 -75 48 -115t130 -40h361v125l172 -159l-172 -157v124h-361q-119 0 -183 59t-64 163z" />
    <glyph glyph-name="uni21B2" unicode="&#x21b2;" horiz-adv-x="784" 
d="M626 343v399h65v-466h-424v-124l-174 157l174 159v-125h359z" />
    <glyph glyph-name="uni21B3" unicode="&#x21b3;" horiz-adv-x="784" 
d="M517 468l174 -159l-174 -157v124h-424v466h64v-399h360v125z" />
    <glyph glyph-name="uni21BA" unicode="&#x21ba;" horiz-adv-x="824" 
d="M413 -12q-143 0 -238 94q-95 95 -95 234q0 91 45 171.5t125 131.5l35 -49q-144 -88 -144 -254q0 -114 78 -191q80 -77 195 -77t190 76q76 76 76 186q0 83 -39 140q-40 60 -178 180l-3 -2l5 -70v-146h-58v317h307v-62h-143l-65 5l-1 -3q146 -123 193 -192q46 -67 46 -167
q0 -133 -95 -228q-94 -94 -236 -94z" />
    <glyph glyph-name="uni21BB" unicode="&#x21bb;" horiz-adv-x="824" 
d="M409 -12q-140 0 -234 94q-95 95 -95 228q0 101 46 169t192 190l-1 3l-67 -5h-144v62h311v-317h-62v146l5 70l-3 2q-139 -123 -178 -181q-38 -58 -38 -139q0 -110 76 -186t191 -76q117 0 194 76q78 76 78 192q0 82 -37.5 148t-104.5 106l35 49q78 -49 125 -132
q46 -82 46 -171q0 -140 -96 -234q-95 -94 -239 -94z" />
    <glyph glyph-name="emptyset" unicode="&#x2205;" horiz-adv-x="771" 
d="M386 738q158 0 251 -103q93 -102 93 -270q0 -173 -94 -274q-95 -101 -250 -101q-158 0 -251 103t-93 271q0 171 94 272q94 102 250 102zM386 641q-106 0 -167 -76q-62 -76 -62 -200q0 -89 31 -152l352 367q-61 61 -154 61zM386 89q106 0 168 75q62 76 62 200
q0 79 -25 139l-349 -363q58 -51 144 -51z" />
    <glyph glyph-name="product" unicode="&#x220f;" horiz-adv-x="744" 
d="M92 729h561v-88h-105v-641h-102v641h-145v-641h-103v641h-106v88z" />
    <glyph glyph-name="summation" unicode="&#x2211;" horiz-adv-x="587" 
d="M540 -164h-488v86l242 354v7l-242 359v87h488v-97l-232 -1l-135 7v-7l236 -352l-238 -343v-7l137 7h232v-100z" />
    <glyph glyph-name="minus" unicode="&#x2212;" horiz-adv-x="625" 
d="M84 250v95h459v-95h-459z" />
    <glyph glyph-name="radical" unicode="&#x221a;" horiz-adv-x="736" 
d="M419 277l166 452h107l-298 -806h-139l-149 403h-72v83h147l49 -129l91 -267h7z" />
    <glyph glyph-name="infinity" unicode="&#x221e;" horiz-adv-x="888" 
d="M234 62q-87 0 -141 59q-54 60 -54 151q0 88 54 150t141 62q63 0 112 -36t98 -108q52 73 99.5 108.5t111.5 35.5q86 0 139 -62q54 -62 54 -150t-54 -149q-52 -61 -139 -61q-64 0 -112.5 35.5t-98.5 107.5q-47 -71 -97 -107t-113 -36zM237 149q39 0 75 28t84 95
q-49 68 -83.5 95t-75.5 27q-48 0 -78 -34t-30 -88t30.5 -88.5t77.5 -34.5zM651 149q48 0 78.5 34.5t30.5 88.5t-31 88t-78 34q-41 0 -76.5 -27.5t-81.5 -94.5q49 -69 83 -96t75 -27z" />
    <glyph glyph-name="integral" unicode="&#x222b;" horiz-adv-x="575" 
d="M325 753h147v-87h-134v-713q0 -43 -20.5 -66t-71.5 -23h-146v86h134v712q0 91 91 91z" />
    <glyph glyph-name="approxequal" unicode="&#x2248;" horiz-adv-x="532" 
d="M150 349h-55q-5 66 21 98.5t69 32.5q33 0 82 -25q50 -25 75 -25q49 0 47 59h54q5 -67 -22.5 -99.5t-74.5 -32.5q-38 0 -90 24q-51 24 -69 24q-21 0 -31 -15.5t-6 -40.5zM150 151h-55q-5 66 21.5 98t69.5 32q32 0 81 -25q51 -24 75 -24q49 0 47 59h54q5 -68 -22.5 -101
t-74.5 -33q-39 0 -90 25q-54 26 -69 26q-21 0 -31 -16.5t-6 -40.5z" />
    <glyph glyph-name="notequal" unicode="&#x2260;" horiz-adv-x="603" 
d="M519 441v-87h-144l-61 -118h205v-85h-249l-60 -115h-88l60 115h-98v85h142l61 118h-203v87h249l62 120h87l-62 -120h99z" />
    <glyph glyph-name="lessequal" unicode="&#x2264;" horiz-adv-x="563" 
d="M479 253v-111l-402 184v90l402 183v-110l-173 -70l-133 -45v-7l129 -44zM479 91v-91h-402v91h402z" />
    <glyph glyph-name="greaterequal" unicode="&#x2265;" horiz-adv-x="563" 
d="M486 326l-402 -184v111l177 70l129 44v7l-133 45l-173 70v110l402 -183v-90zM486 0h-402v91h402v-91z" />
    <glyph glyph-name="filledbox" unicode="&#x25a0;" horiz-adv-x="916" 
d="M111 1v728h693v-728h-693z" />
    <glyph glyph-name="uni25A1" unicode="&#x25a1;" horiz-adv-x="888" 
d="M98 0v729h694v-729h-694zM732 670h-575v-611h575v611z" />
    <glyph glyph-name="triagup" unicode="&#x25b2;" horiz-adv-x="991" 
d="M68 0l426 737l428 -737h-854z" />
    <glyph glyph-name="uni25B3" unicode="&#x25b3;" horiz-adv-x="989" 
d="M919 0h-848l423 738zM494 618l-319 -556h640z" />
    <glyph glyph-name="lozenge" unicode="&#x25ca;" horiz-adv-x="2152" 
d="M984 -10q-135 0 -214 100t-79 268q0 96 28 170.5t76.5 119.5t109.5 68t132 23q120 0 202 -62q82 -61 100 -164h-156q-36 86 -147 86q-90 0 -137 -62t-47 -175q0 -115 46.5 -175t129.5 -60q67 0 109 33t52 92h-162v143h324v-395h-111l-16 119h-35q-17 -62 -71.5 -95.5
t-133.5 -33.5zM1486 576q-34 0 -56.5 23t-22.5 59q0 35 22.5 58t56.5 23q35 0 55.5 -22.5t20.5 -58.5q0 -37 -20.5 -59.5t-55.5 -22.5zM1684 576q-34 0 -55 23t-21 59q0 35 21.5 58t54.5 23q36 0 58.5 -23t22.5 -58q0 -36 -22.5 -59t-58.5 -23zM310 0h-271v729h271
q161 0 248.5 -92.5t87.5 -270.5t-88.5 -272t-247.5 -94zM1886 572h-36v126h-38v31h118v-31h-44v-126zM1984 572h-34v157h63l17 -127l23 127h61v-157h-40v135l-17 -135h-52l-21 135v-135zM145 109l26 -26q29 29 52.5 40.5t60.5 11.5h26q31 0 69 15q31 12 52 33q24 24 41 72
t17 108q0 59 -16 106t-39 70q-21 23 -49 36q-37 19 -75 19h-26q-29 0 -52 10q-26 12 -32 17l-29 27l-26 -30q1 -2 7 -9t7 -8q5 -2 20 -27q15 -22 15 -71v-276q-3 -51 -16 -74l-10 -15q-9 -15 -23 -29zM1582 0h-149v491h141l7 -58h27q12 36 49 56t90 20v-147
q-165 16 -165 -148v-214z" />
    <glyph glyph-name="circle" unicode="&#x25cb;" horiz-adv-x="825" 
d="M413 -10q-155 0 -262 105q-106 105 -106 270q0 163 106 268q107 105 262 105t261 -105q107 -105 107 -268q0 -165 -107 -270q-106 -105 -261 -105zM192 132q92 -92 221 -92q128 0 220 92t92 233q0 140 -92 232q-91 91 -220 91q-130 0 -221 -91t-91 -232q0 -142 91 -233z
" />
    <glyph glyph-name="uni25CF" unicode="&#x25cf;" horiz-adv-x="899" 
d="M451 -10q-157 0 -262 107q-105 108 -105 269q0 158 105 265t262 107q155 0 259 -107t104 -265q0 -160 -104 -269q-104 -107 -259 -107z" />
    <glyph glyph-name="uni262E" unicode="&#x262e;" horiz-adv-x="874" 
d="M437 737q159 0 263 -105q105 -104 105 -270q0 -167 -104 -273q-104 -104 -264 -104t-264 104q-104 106 -104 273q0 166 104 270q103 105 264 105zM755 362q0 139 -83 231q-83 93 -212 100v-310l267 -165q28 63 28 144zM413 383v310q-127 -7 -212 -100q-83 -92 -83 -231
q0 -78 28 -144zM413 326l-245 -151q39 -64 103 -102t142 -43v296zM460 326v-296q78 5 142 43t103 102z" />
    <glyph glyph-name="uni2639" unicode="&#x2639;" horiz-adv-x="877" 
d="M68 365q0 160 107 267q107 106 263 106t263 -106q108 -106 108 -267q0 -163 -108 -269q-106 -106 -263 -106q-156 0 -263 106q-107 107 -107 269zM117 365q0 -133 82 -224q35 53 99.5 84t139.5 31q77 0 142 -31.5t99 -83.5q82 95 82 224q0 140 -95 235q-94 94 -227 94
q-134 0 -228 -94t-94 -235zM309 437q0 51 14 78.5t38 27.5q51 0 51 -106t-51 -106q-24 0 -38 28.5t-14 77.5zM468 437q0 51 14 78.5t38 27.5t38 -28.5t14 -77.5q0 -106 -52 -106q-24 0 -38 29t-14 77zM234 109q94 -75 205 -75q112 0 205 75q-27 46 -83.5 73.5t-121.5 27.5
q-67 0 -122.5 -27.5t-82.5 -73.5z" />
    <glyph glyph-name="smileface" unicode="&#x263a;" horiz-adv-x="877" 
d="M809 365q0 -163 -108 -269q-106 -106 -263 -106q-156 0 -263 106q-107 107 -107 269q0 160 107 267q107 106 263 106t263 -106q108 -106 108 -267zM439 34q135 0 228 95q94 95 94 236q0 140 -95 235q-94 94 -227 94q-134 0 -228 -94t-94 -235q0 -143 94 -237t228 -94z
M361 331q-24 0 -38 28.5t-14 77.5q0 51 14 78.5t38 27.5q51 0 51 -106t-51 -106zM520 331q-24 0 -38 29t-14 77q0 51 14 78.5t38 27.5t38 -28.5t14 -77.5q0 -106 -52 -106zM599 312v17h108v-17h-29q-14 -87 -81 -139t-159 -52q-94 0 -159 52q-66 53 -80 139h-25v17h108v-17
h-33q11 -65 64 -106q52 -40 126 -40q75 0 127 40t64 106h-31z" />
    <glyph glyph-name="uni2708" unicode="&#x2708;" horiz-adv-x="926" 
d="M149 207h-50l35 159l-35 159h50l69 -108l210 12l-99 276h90l144 -238q14 -24 48 -26l59 4q60 4 109 -21t49 -58q0 -35 -49 -60q-49 -24 -109 -20l-59 4q-20 0 -29.5 -5t-18.5 -19l-144 -240h-90l99 276l-210 14z" />
    <glyph glyph-name="uni2713" unicode="&#x2713;" horiz-adv-x="924" 
d="M354 194l375 372l61 -69l-439 -431l-217 250l64 59z" />
    <glyph glyph-name="uni2714" unicode="&#x2714;" horiz-adv-x="1287" 
d="M1116 717l104 -171q-498 -267 -809 -611q-145 200 -344 365l116 128q149 -119 243 -271q246 312 690 560z" />
    <glyph glyph-name="uni2776" unicode="&#x2776;" horiz-adv-x="895" 
d="M449 -9q-163 0 -276 111q-111 111 -111 274q0 162 111 273q113 111 276 111q162 0 273 -112q111 -111 111 -272q0 -163 -111 -274t-273 -111zM438 438v-281h72v417h-69v-4q0 -76 -76 -76h-39v-56h112z" />
    <glyph glyph-name="uni2777" unicode="&#x2777;" horiz-adv-x="896" 
d="M449 -9q-165 0 -276 111q-111 112 -111 275t111 272q111 111 276 111q163 0 274 -111q111 -109 111 -272t-111 -275q-111 -111 -274 -111zM319 171v-14h264v64h-117l-64 -3q16 40 103 101q34 24 57 60.5t23 76.5q0 55 -36.5 89t-96.5 34q-61 0 -101 -36.5t-40 -93.5
l71 -5q-1 33 17 53t49 20q29 0 46 -17t17 -45q0 -49 -68 -100q-36 -26 -58 -45t-44 -57t-22 -82z" />
    <glyph glyph-name="uni2778" unicode="&#x2778;" horiz-adv-x="896" 
d="M449 -9q-163 0 -276 111q-111 111 -111 274q0 162 111 273q113 111 276 111t274 -111t111 -273q0 -163 -111 -274t-274 -111zM588 273q0 73 -68 100v3q29 12 44.5 36.5t15.5 52.5q0 52 -37 83.5t-96 31.5q-63 0 -101 -37t-36 -95h73q-1 31 16 50t47 19q27 0 43 -14.5
t16 -41.5t-18.5 -43.5t-50.5 -16.5h-26v-62h33q31 0 51 -17t20 -46q0 -27 -18.5 -44.5t-48.5 -17.5t-47.5 18.5t-16.5 50.5h-73q-1 -60 37 -96t101 -36q62 0 101 34t39 88z" />
    <glyph glyph-name="uni2779" unicode="&#x2779;" horiz-adv-x="897" 
d="M449 -9q-163 0 -276 111q-111 112 -111 275t111 272q113 111 276 111t274 -111q112 -111 112 -272q0 -163 -112 -275q-111 -111 -274 -111zM472 248v-91h70v91h47v62h-47v264h-111l-148 -267v-59h189zM472 310h-110l110 196v-196z" />
    <glyph glyph-name="uni277A" unicode="&#x277a;" horiz-adv-x="897" 
d="M450 -9q-164 0 -277 111q-111 111 -111 274q0 162 111 273q113 111 277 111q163 0 274 -111t111 -273q0 -163 -111 -274t-274 -111zM455 151q65 0 105.5 40t40.5 104q0 62 -37 101.5t-95 39.5q-54 0 -76 -28l-3 3l2 40v60h185v63h-255v-238h68q7 17 25.5 27.5t39.5 10.5
q32 0 52 -23t20 -59q0 -35 -20 -56.5t-51 -21.5q-32 0 -51 20.5t-19 50.5h-73q-1 -60 39 -97t103 -37z" />
    <glyph glyph-name="uni277B" unicode="&#x277b;" horiz-adv-x="905" 
d="M453 -17q-167 0 -279 112t-112 278q0 162 113 275q112 112 278 112q165 0 277 -112q113 -113 113 -275q0 -165 -113 -278q-112 -112 -277 -112zM455 151q64 0 105 40t41 103q0 62 -35.5 101t-92.5 39q-29 0 -55.5 -13.5t-38.5 -37.5h-3q0 134 82 134q53 0 64 -48h71
q-5 49 -41.5 80t-90.5 31q-77 0 -117.5 -58.5t-40.5 -161.5q0 -99 39 -154t113 -55zM457 214q-32 0 -51.5 22.5t-19.5 56.5t19.5 56.5t51.5 22.5t51.5 -22t19.5 -57t-19.5 -57t-51.5 -22z" />
    <glyph glyph-name="uni277C" unicode="&#x277c;" horiz-adv-x="897" 
d="M449 -9q-163 0 -276 111q-111 112 -111 274t111 273q113 111 276 111t274 -111q112 -111 112 -273q0 -163 -112 -274q-111 -111 -274 -111zM363 157h76q34 202 160 366v51h-277v-132h53v69h135q-116 -156 -147 -354z" />
    <glyph glyph-name="uni277D" unicode="&#x277d;" horiz-adv-x="896" 
d="M449 -9q-163 0 -276 111q-111 112 -111 274t111 273q113 111 276 111t274 -111t111 -273q0 -163 -111 -274t-274 -111zM448 151q66 0 106 31.5t40 84.5q0 31 -16.5 57.5t-44.5 39.5v4q29 13 45 39t16 57q0 51 -40 83.5t-106 32.5t-105.5 -31.5t-39.5 -84.5q0 -69 61 -96
v-4q-28 -13 -44.5 -39.5t-16.5 -57.5q0 -52 39.5 -84t105.5 -32zM448 517q32 0 52 -17t20 -45q0 -26 -20 -44q-20 -17 -52 -17t-52 17q-19 20 -20 44.5t19.5 44t52.5 17.5zM448 214q-31 0 -51.5 17t-20.5 44t19.5 44.5t52.5 17.5q32 0 52 -17t20 -45q0 -27 -19.5 -44
t-52.5 -17z" />
    <glyph glyph-name="uni277E" unicode="&#x277e;" horiz-adv-x="897" 
d="M449 -9q-163 0 -276 111q-111 111 -111 274q0 162 112 273t275 111t274 -111q112 -111 112 -273q0 -163 -112 -274q-111 -111 -274 -111zM448 151q77 0 117 58t40 161q0 100 -39 155t-113 55q-64 0 -105 -41t-41 -102q0 -62 36 -101.5t93 -39.5q29 0 55 14t39 37h3
q0 -134 -82 -134q-24 0 -42 13t-22 35h-73q6 -50 42 -80t92 -30zM380 437q0 35 20 57t52 22t51.5 -22t19.5 -56q0 -35 -19.5 -57.5t-51.5 -22.5q-33 0 -52.5 21.5t-19.5 57.5z" />
    <glyph glyph-name="uni2780" unicode="&#x2780;" horiz-adv-x="895" 
d="M449 -9q-163 0 -276 111q-111 111 -111 274q0 162 111 273q113 111 276 111q162 0 273 -112q111 -111 111 -272q0 -163 -111 -274t-273 -111zM449 29q145 0 246 101q100 100 100 246q0 144 -100 244q-101 101 -246 101q-148 0 -248 -100t-100 -245q0 -146 100 -246
q101 -101 248 -101zM438 157v281h-112v56h39q38 0 57 21.5t19 54.5v4h69v-417h-72z" />
    <glyph glyph-name="uni2781" unicode="&#x2781;" horiz-adv-x="896" 
d="M449 760q163 0 274 -111q111 -109 111 -272t-111 -275q-111 -111 -274 -111q-165 0 -276 111q-111 112 -111 275t111 272q111 111 276 111zM449 29q145 0 246 101t101 247q0 143 -101 244t-246 101q-148 0 -248 -100t-100 -245q0 -147 100 -247q101 -101 248 -101z
M585 456q0 -40 -23 -76.5t-57 -60.5q-87 -61 -103 -101l64 3h117v-64h-264v14q0 83 68 140q11 9 40.5 32t43 35.5t27 34t13.5 42.5q0 28 -17 45t-46 17q-31 0 -49 -20t-17 -53l-71 5q0 57 40 93.5t101 36.5q60 0 96.5 -34t36.5 -89z" />
    <glyph glyph-name="uni2782" unicode="&#x2782;" horiz-adv-x="896" 
d="M449 -9q-163 0 -276 111q-111 111 -111 274q0 162 111 273q113 111 276 111t274 -111t111 -273q0 -163 -111 -274t-274 -111zM449 29q145 0 246 101t101 246q0 144 -101 245t-246 101q-147 0 -248 -101q-100 -100 -100 -245q0 -146 100 -246q101 -101 248 -101zM310 283
h73q-1 -32 16.5 -50.5t47.5 -18.5t48.5 17.5t18.5 44.5q0 29 -20 46t-51 17h-33v62h26q32 0 50.5 16.5t18.5 43.5t-16 41.5t-43 14.5q-30 0 -47 -19t-16 -50h-73q-2 58 36 95t101 37q59 0 96 -31.5t37 -83.5q0 -28 -15.5 -52.5t-44.5 -36.5v-3q68 -27 68 -100q0 -54 -39 -88
t-101 -34q-63 0 -101 36t-37 96z" />
    <glyph glyph-name="uni2783" unicode="&#x2783;" horiz-adv-x="897" 
d="M62 377q0 163 111 272q113 111 276 111t274 -111q112 -111 112 -272q0 -163 -112 -275q-111 -111 -274 -111t-276 111q-111 112 -111 275zM101 377q0 -147 100 -247q101 -101 248 -101q145 0 246 101q100 100 100 247q0 144 -100 244q-101 101 -246 101q-147 0 -248 -101
q-100 -100 -100 -244zM472 248h-189v59l148 267h111v-264h47v-62h-47v-91h-70v91zM472 506l-110 -196h110v196z" />
    <glyph glyph-name="uni2784" unicode="&#x2784;" horiz-adv-x="897" 
d="M450 -9q-164 0 -277 111q-111 111 -111 274q0 162 111 273q113 111 277 111q163 0 274 -111t111 -273q0 -163 -111 -274t-274 -111zM450 29q145 0 246 101t101 246t-101 246t-246 101q-148 0 -249 -101q-100 -100 -100 -246t100 -246q101 -101 249 -101zM455 151
q-63 0 -103 37t-39 97h73q0 -30 19 -50.5t51 -20.5q31 0 51 21.5t20 56.5q0 36 -20 59t-52 23q-21 0 -39.5 -10.5t-25.5 -27.5h-68v238h255v-63h-185v-60l-2 -40l3 -3q22 28 76 28q58 0 95 -39.5t37 -101.5q0 -64 -40.5 -104t-105.5 -40z" />
    <glyph glyph-name="uni2785" unicode="&#x2785;" horiz-adv-x="905" 
d="M62 373q0 162 113 275q112 112 278 112q165 0 277 -112q113 -113 113 -275q0 -165 -113 -278q-112 -112 -277 -112q-167 0 -279 112t-112 278zM453 23q148 0 249 101q101 103 101 249q0 147 -102 248q-101 101 -248 101q-148 0 -251 -101q-101 -101 -101 -248
q0 -146 101 -249q103 -101 251 -101zM303 360q0 103 40.5 161.5t117.5 58.5q54 0 90.5 -31t41.5 -80h-71q-11 48 -64 48q-82 0 -82 -134h3q12 24 38.5 37.5t55.5 13.5q57 0 92.5 -39t35.5 -101q0 -63 -41 -103t-105 -40q-74 0 -113 55t-39 154zM386 293q0 -34 19.5 -56.5
t51.5 -22.5t51.5 22t19.5 57t-19.5 57t-51.5 22t-51.5 -22.5t-19.5 -56.5z" />
    <glyph glyph-name="uni2786" unicode="&#x2786;" horiz-adv-x="897" 
d="M449 -9q-163 0 -276 111q-111 112 -111 274t111 273q113 111 276 111t274 -111q112 -111 112 -273q0 -163 -112 -274q-111 -111 -274 -111zM449 29q145 0 246 101q100 100 100 246q0 145 -100 245q-101 101 -246 101q-147 0 -248 -101q-100 -100 -100 -245
q0 -146 100 -246q101 -101 248 -101zM439 157h-76q31 198 147 354h-135v-69h-53v132h277v-51q-126 -164 -160 -366z" />
    <glyph glyph-name="uni2787" unicode="&#x2787;" horiz-adv-x="896" 
d="M449 -9q-163 0 -276 111q-111 112 -111 274t111 273q113 111 276 111t274 -111t111 -273q0 -163 -111 -274t-274 -111zM449 29q145 0 246 101q100 100 100 246q0 145 -100 245q-101 101 -246 101q-147 0 -248 -101q-100 -100 -100 -245q0 -146 100 -246
q101 -101 248 -101zM448 151q-66 0 -105.5 32t-39.5 84q0 31 16.5 57.5t44.5 39.5v4q-61 27 -61 96q0 53 39.5 84.5t105.5 31.5t106 -32.5t40 -83.5q0 -31 -16 -57t-45 -39v-4q28 -13 44.5 -39.5t16.5 -57.5q0 -53 -40 -84.5t-106 -31.5zM520 455q0 28 -20 45t-52 17
q-32 2 -52.5 -17.5t-19.5 -44t20 -44.5q20 -17 52 -17t52 17t20 44zM448 214q33 0 52.5 17t19.5 44q0 28 -20 45t-52 17q-33 0 -52.5 -17.5t-19.5 -44.5t20.5 -44t51.5 -17z" />
    <glyph glyph-name="uni2788" unicode="&#x2788;" horiz-adv-x="897" 
d="M449 -9q-163 0 -276 111q-111 111 -111 274q0 162 112 273t275 111t274 -111q112 -111 112 -273q0 -163 -112 -274q-111 -111 -274 -111zM449 29q145 0 246 101q100 100 100 246q0 145 -100 245q-101 101 -246 101q-147 0 -248 -101q-100 -100 -100 -245q0 -146 100 -246
q101 -101 248 -101zM448 151q-56 0 -92 30t-42 80h73q4 -22 22 -35t42 -13q82 0 82 134h-3q-13 -23 -39 -37t-55 -14q-57 0 -93 39.5t-36 101.5q0 61 41 102t105 41q74 0 113 -55t39 -155q0 -103 -40 -161t-117 -58zM523 438q0 34 -19.5 56t-51.5 22t-52 -22t-20 -57
q0 -36 19.5 -57.5t52.5 -21.5q32 0 51.5 22.5t19.5 57.5z" />
    <glyph glyph-name="uniECE0" unicode="&#xece0;" horiz-adv-x="1042" 
d="M140 321v-262l-82 -62v732h348l-69 -88h-197v-235h157q16 142 119 236q104 95 244 95q89 0 167 -41.5t130 -116.5l-71 -53q-37 56 -99 90.5t-129 34.5q-111 0 -194 -83q-82 -82 -82 -203q0 -122 82 -204q83 -83 194 -83q68 0 129 34t98 90l72 -52q-52 -76 -130 -117.5
t-167 -41.5q-140 0 -243 93q-103 94 -120 237h-157zM534 365q0 -54 35 -94q36 -38 88 -38q66 0 107 63l69 -52q-30 -46 -76 -71t-98 -25q-89 0 -150 64q-62 65 -62 153q0 87 62 151q63 64 150 64q52 0 98.5 -25.5t75.5 -69.5l-69 -53q-38 62 -107 62q-52 0 -88 -38
q-35 -38 -35 -91z" />
    <glyph glyph-name="uniEFCC" unicode="&#xefcc;" horiz-adv-x="1198" 
d="M478 734q20 0 38 -2v-102q-21 3 -37 3q-119 0 -192 -75q-72 -75 -72 -197q0 -121 72 -196q73 -75 192 -75q22 0 37 3v-103q-24 -2 -38 -2q-163 0 -263 103q-99 103 -99 270t100 270t262 103zM741 366q0 166 96 267q98 101 260 101q20 0 44 -2v-102q-19 3 -40 3
q-103 0 -174 -55q-71 -56 -81 -165h219v-94h-219q10 -110 81 -166q72 -54 174 -54q28 0 40 3v-103q-26 -2 -44 -2q-163 0 -260 100q-96 101 -96 269z" />
    <glyph glyph-name="uniF8FF" unicode="&#xf8ff;" horiz-adv-x="640" 
d="M429 632q-16 -21 -43 -36.5t-48 -19.5l-18 -3l-1 10q-6 57 31 104q22 29 51 47t49 19l17 1q-1 -2 1 -19q2 -16 -8.5 -47t-30.5 -56zM211 0q-44 0 -89 53q-45 56 -73 134q-28 80 -28 156q0 104 53 166q54 62 124 62q28 0 70 -17t56 -17q16 0 56 18q42 18 80 18
q51 0 87 -23t49 -45l5 -8l-5 -3q-4 -3 -11 -8.5t-15.5 -13.5t-17 -19.5t-15.5 -25.5t-11.5 -33t-4.5 -39q0 -58 29.5 -96t59.5 -53l10 -5q-5 -19 -28 -70q-14 -33 -33 -61q-20 -29 -48 -49t-55 -20q-19 0 -59 14q-37 15 -62 15t-66 -15t-58 -15z" />
    <glyph glyph-name="NULL" 
 />
    <glyph glyph-name="CR.001" horiz-adv-x="333" 
 />
    <glyph glyph-name="uni00A40301" horiz-adv-x="399" 
d="M453 889l-200 -113l-32 51l186 140zM309 729v-526q0 -211 -206 -211q-58 0 -87 8v94q27 -6 73 -6q112 0 112 124v517h108z" />
    <glyph glyph-name="G.ss01" horiz-adv-x="774" 
d="M392 -10q-159 0 -255 102q-95 103 -95 270q0 168 96 272q98 104 255 104q129 0 217 -69q90 -69 106 -181h-117q-14 71 -70 111.5t-137 40.5q-109 0 -172 -75q-63 -73 -63 -202q0 -126 62 -202q63 -75 174 -75q96 0 158 56t65 147h-206v95h321v-53q0 -153 -94 -247
q-93 -94 -245 -94z" />
    <glyph glyph-name="Gbreve.ss01" horiz-adv-x="774" 
d="M467 927h69q0 -66 -40.5 -107t-108.5 -41t-108 40.5t-40 107.5h68q0 -39 22 -62.5t58 -23.5t58 23.5t22 62.5zM392 -10q-159 0 -255 102q-95 103 -95 270q0 168 96 272q98 104 255 104q129 0 217 -69q90 -69 106 -181h-117q-14 71 -70 111.5t-137 40.5q-109 0 -172 -75
q-63 -73 -63 -202q0 -126 62 -202q63 -75 174 -75q96 0 158 56t65 147h-206v95h321v-53q0 -153 -94 -247q-93 -94 -245 -94z" />
    <glyph glyph-name="uni0122.ss01" horiz-adv-x="774" 
d="M392 -10q-159 0 -255 102q-95 103 -95 270q0 168 96 272q98 104 255 104q129 0 217 -69q90 -69 106 -181h-117q-14 71 -70 111.5t-137 40.5q-109 0 -172 -75q-63 -73 -63 -202q0 -126 62 -202q63 -75 174 -75q96 0 158 56t65 147h-206v95h321v-53q0 -153 -94 -247
q-93 -94 -245 -94zM343 -249v32q47 0 47 44v9h-50v105h95v-104q0 -86 -92 -86z" />
    <glyph glyph-name="Gdotaccent.ss01" horiz-adv-x="774" 
d="M433 794h-91v127h91v-127zM392 -10q-159 0 -255 102q-95 103 -95 270q0 168 96 272q98 104 255 104q129 0 217 -69q90 -69 106 -181h-117q-14 71 -70 111.5t-137 40.5q-109 0 -172 -75q-63 -73 -63 -202q0 -126 62 -202q63 -75 174 -75q96 0 158 56t65 147h-206v95h321
v-53q0 -153 -94 -247q-93 -94 -245 -94z" />
    <glyph glyph-name="R.ss02" horiz-adv-x="705" 
d="M202 0h-107v729h309q116 0 182 -61t66 -166q0 -72 -36.5 -125t-100.5 -77v-8q38 -14 71 -96l79 -196h-120l-79 199q-20 49 -43 62q-23 14 -70 14h-151v-275zM202 630v-264h191q70 0 107 35t37 98q0 64 -38 97.5t-106 33.5h-191z" />
    <glyph glyph-name="Racute.ss02" horiz-adv-x="705" 
d="M572 889l-200 -113l-32 51l186 140zM202 0h-107v729h309q116 0 182 -61t66 -166q0 -72 -36.5 -125t-100.5 -77v-8q38 -14 71 -96l79 -196h-120l-79 199q-20 49 -43 62q-23 14 -70 14h-151v-275zM202 630v-264h191q70 0 107 35t37 98q0 64 -38 97.5t-106 33.5h-191z" />
    <glyph glyph-name="Rcaron.ss02" horiz-adv-x="705" 
d="M341 789l-124 129l52 48l104 -113l106 113l51 -48l-123 -129h-66zM202 0h-107v729h309q116 0 182 -61t66 -166q0 -72 -36.5 -125t-100.5 -77v-8q38 -14 71 -96l79 -196h-120l-79 199q-20 49 -43 62q-23 14 -70 14h-151v-275zM202 630v-264h191q70 0 107 35t37 98
q0 64 -38 97.5t-106 33.5h-191z" />
    <glyph glyph-name="uni0156.ss02" horiz-adv-x="705" 
d="M202 0h-107v729h309q116 0 182 -61t66 -166q0 -72 -36.5 -125t-100.5 -77v-8q38 -14 71 -96l79 -196h-120l-79 199q-20 49 -43 62q-23 14 -70 14h-151v-275zM202 630v-264h191q70 0 107 35t37 98q0 64 -38 97.5t-106 33.5h-191zM329 -249v32q47 0 47 44v9h-50v105h95
v-104q0 -86 -92 -86z" />
    <glyph glyph-name="i.loclTRK" horiz-adv-x="264" 
d="M183 591h-100v127h100v-127zM184 0h-103v526h103v-526z" />
    <glyph glyph-name="uni006A0301" horiz-adv-x="268" 
d="M335 685l-200 -113l-32 51l186 140zM35 -176q-23 0 -58 5v83q12 -4 29 -4q43 0 60.5 19.5t17.5 62.5v536h103v-543q0 -76 -38 -117.5t-114 -41.5z" />
    <glyph glyph-name="germandbls.alt01" horiz-adv-x="678" 
d="M203 0h-108v514q0 106 64.5 165t177.5 59q92 0 156.5 -43t81.5 -115l-117 -160q78 -15 124.5 -70.5t46.5 -133.5q0 -100 -72 -158q-71 -58 -193 -58h-96v96h79q80 0 125 34t45 98q0 134 -205 133l151 218q-11 30 -46.5 48t-80.5 18q-63 0 -98 -34t-35 -94v-517z" />
    <glyph glyph-name="a.ss01" horiz-adv-x="633" 
d="M460 526h92v-526h-104v97h-6q-21 -49 -69 -78t-111 -29q-99 0 -161 74q-60 74 -60 198t60 199q62 75 163 75q63 0 110.5 -28.5t67.5 -76.5h6zM448 233v59q0 66 -44 110t-109 44q-68 0 -108 -46.5t-40 -136.5q0 -88 40 -136t108 -48q67 0 110 43t43 111z" />
    <glyph glyph-name="aacute.ss01" horiz-adv-x="633" 
d="M484 696l-200 -113l-32 51l186 140zM460 526h92v-526h-104v97h-6q-21 -49 -69 -78t-111 -29q-99 0 -161 74q-60 74 -60 198t60 199q62 75 163 75q63 0 110.5 -28.5t67.5 -76.5h6zM448 233v59q0 66 -44 110t-109 44q-68 0 -108 -46.5t-40 -136.5q0 -88 40 -136t108 -48
q67 0 110 43t43 111z" />
    <glyph glyph-name="abreve.ss01" horiz-adv-x="633" 
d="M365 735h69q0 -66 -40.5 -107t-108.5 -41t-108 40.5t-40 107.5h68q0 -39 22 -62.5t58 -23.5t58 23.5t22 62.5zM460 526h92v-526h-104v97h-6q-21 -49 -69 -78t-111 -29q-99 0 -161 74q-60 74 -60 198t60 199q62 75 163 75q63 0 110.5 -28.5t67.5 -76.5h6zM448 233v59
q0 66 -44 110t-109 44q-68 0 -108 -46.5t-40 -136.5q0 -88 40 -136t108 -48q67 0 110 43t43 111z" />
    <glyph glyph-name="acircumflex.ss01" horiz-adv-x="633" 
d="M180 584l-50 49l124 127h66l123 -127l-51 -49l-106 112zM460 526h92v-526h-104v97h-6q-21 -49 -69 -78t-111 -29q-99 0 -161 74q-60 74 -60 198t60 199q62 75 163 75q63 0 110.5 -28.5t67.5 -76.5h6zM448 233v59q0 66 -44 110t-109 44q-68 0 -108 -46.5t-40 -136.5
q0 -88 40 -136t108 -48q67 0 110 43t43 111z" />
    <glyph glyph-name="adieresis.ss01" horiz-adv-x="633" 
d="M232 601h-90v127h90v-127zM428 601h-90v127h90v-127zM460 526h92v-526h-104v97h-6q-21 -49 -69 -78t-111 -29q-99 0 -161 74q-60 74 -60 198t60 199q62 75 163 75q63 0 110.5 -28.5t67.5 -76.5h6zM448 233v59q0 66 -44 110t-109 44q-68 0 -108 -46.5t-40 -136.5
q0 -88 40 -136t108 -48q67 0 110 43t43 111z" />
    <glyph glyph-name="agrave.ss01" horiz-adv-x="633" 
d="M319 636l-33 -52l-199 114l46 77zM460 526h92v-526h-104v97h-6q-21 -49 -69 -78t-111 -29q-99 0 -161 74q-60 74 -60 198t60 199q62 75 163 75q63 0 110.5 -28.5t67.5 -76.5h6zM448 233v59q0 66 -44 110t-109 44q-68 0 -108 -46.5t-40 -136.5q0 -88 40 -136t108 -48
q67 0 110 43t43 111z" />
    <glyph glyph-name="amacron.ss01" horiz-adv-x="633" 
d="M447 597h-322v76h322v-76zM460 526h92v-526h-104v97h-6q-21 -49 -69 -78t-111 -29q-99 0 -161 74q-60 74 -60 198t60 199q62 75 163 75q63 0 110.5 -28.5t67.5 -76.5h6zM448 233v59q0 66 -44 110t-109 44q-68 0 -108 -46.5t-40 -136.5q0 -88 40 -136t108 -48q67 0 110 43
t43 111z" />
    <glyph glyph-name="aogonek.ss01" horiz-adv-x="633" 
d="M526 -127q30 0 59 12v-60q-34 -15 -79 -13q-49 1 -79.5 27t-30.5 68q0 60 52 97v93h-6q-21 -49 -69 -78t-111 -29q-99 0 -161 74q-60 74 -60 198t60 199q62 75 163 75q63 0 110.5 -28.5t67.5 -76.5h6l12 95h92v-526h-3q-85 -21 -85 -80q0 -47 62 -47zM295 79q67 0 110 43
t43 111v59q0 66 -44 110t-109 44q-68 0 -108 -46.5t-40 -136.5q0 -88 40 -136t108 -48z" />
    <glyph glyph-name="aring.ss01" horiz-adv-x="633" 
d="M448 431l12 95h92v-526h-104v97h-6q-21 -49 -69 -78t-111 -29q-99 0 -161 74q-60 74 -60 198q0 102 42.5 172.5t117.5 92.5q-35 32 -35 84q0 51 32 81.5t83 30.5t83 -30.5t32 -81.5q0 -61 -45 -92q65 -26 91 -88h6zM282 669q-24 0 -39 -16t-15 -42q0 -25 15 -41t39 -16
q23 0 38 16t15 41q0 26 -15 42t-38 16zM448 233v59q0 66 -44 110t-109 44q-68 0 -108 -46.5t-40 -136.5q0 -88 40 -136t108 -48q67 0 110 43t43 111z" />
    <glyph glyph-name="atilde.ss01" horiz-adv-x="633" 
d="M350 590q-32 -2 -72 18q-41 21 -59 20q-31 -2 -53 -34l-44 31q38 77 100 80q24 1 66 -19t62 -19q29 1 55 35l44 -31q-36 -79 -99 -81zM460 526h92v-526h-104v97h-6q-21 -49 -69 -78t-111 -29q-99 0 -161 74q-60 74 -60 198t60 199q62 75 163 75q63 0 110.5 -28.5
t67.5 -76.5h6zM448 233v59q0 66 -44 110t-109 44q-68 0 -108 -46.5t-40 -136.5q0 -88 40 -136t108 -48q67 0 110 43t43 111z" />
    <glyph glyph-name="g.ss01" horiz-adv-x="625" 
d="M65 -21h101q4 -37 39 -58.5t91 -21.5q71 0 108.5 35t37.5 96v90h-7q-20 -47 -67 -75.5t-106 -28.5q-98 0 -160 72q-61 71 -61 188q0 113 62 187q61 73 162 73q61 0 107 -28t67 -77h8l5 95h92v-486q0 -101 -66.5 -159t-181.5 -58q-101 0 -163 42.5t-68 113.5zM292 102
q65 0 107 42q43 43 43 107v45q0 63 -43 106t-106 43q-64 0 -105 -45.5t-41 -125.5q0 -81 40.5 -126.5t104.5 -45.5z" />
    <glyph glyph-name="gbreve.ss01" horiz-adv-x="625" 
d="M350 736h69q0 -66 -40.5 -107t-108.5 -41t-108 40.5t-40 107.5h68q0 -40 22 -63t58 -23t58 23t22 63zM65 -21h101q4 -37 39 -58.5t91 -21.5q71 0 108.5 35t37.5 96v90h-7q-20 -47 -67 -75.5t-106 -28.5q-98 0 -160 72q-61 71 -61 188q0 113 62 187q61 73 162 73
q61 0 107 -28t67 -77h8l5 95h92v-486q0 -101 -66.5 -159t-181.5 -58q-101 0 -163 42.5t-68 113.5zM292 102q65 0 107 42q43 43 43 107v45q0 63 -43 106t-106 43q-64 0 -105 -45.5t-41 -125.5q0 -81 40.5 -126.5t104.5 -45.5z" />
    <glyph glyph-name="uni0123.ss01" horiz-adv-x="625" 
d="M315 809v-32q-47 0 -47 -45v-24h50v-105h-95v120q0 86 92 86zM65 -21h101q4 -37 39 -58.5t91 -21.5q71 0 108.5 35t37.5 96v90h-7q-20 -47 -67 -75.5t-106 -28.5q-98 0 -160 72q-61 71 -61 188q0 113 62 187q61 73 162 73q61 0 107 -28t67 -77h8l5 95h92v-486
q0 -101 -66.5 -159t-181.5 -58q-101 0 -163 42.5t-68 113.5zM292 102q65 0 107 42q43 43 43 107v45q0 63 -43 106t-106 43q-64 0 -105 -45.5t-41 -125.5q0 -81 40.5 -126.5t104.5 -45.5z" />
    <glyph glyph-name="gdotaccent.ss01" horiz-adv-x="625" 
d="M317 603h-91v127h91v-127zM65 -21h101q4 -37 39 -58.5t91 -21.5q71 0 108.5 35t37.5 96v90h-7q-20 -47 -67 -75.5t-106 -28.5q-98 0 -160 72q-61 71 -61 188q0 113 62 187q61 73 162 73q61 0 107 -28t67 -77h8l5 95h92v-486q0 -101 -66.5 -159t-181.5 -58
q-101 0 -163 42.5t-68 113.5zM292 102q65 0 107 42q43 43 43 107v45q0 63 -43 106t-106 43q-64 0 -105 -45.5t-41 -125.5q0 -81 40.5 -126.5t104.5 -45.5z" />
    <glyph glyph-name="a.ss02" horiz-adv-x="565" 
d="M42 150q0 78 54.5 121t150.5 43h144v38q0 103 -115 103q-53 0 -83.5 -24.5t-31.5 -65.5h-101q5 79 65.5 125t158.5 46q102 0 156 -50t54 -143v-343h-93l-8 88h-7q-18 -47 -62.5 -72.5t-105.5 -25.5q-81 0 -128.5 43t-47.5 117zM147 157q0 -40 26 -62t73 -22q65 0 105 40
t40 105v24h-127q-117 0 -117 -85z" />
    <glyph glyph-name="aacute.ss02" horiz-adv-x="565" 
d="M481 696l-200 -113l-32 51l186 140zM42 150q0 78 54.5 121t150.5 43h144v38q0 103 -115 103q-53 0 -83.5 -24.5t-31.5 -65.5h-101q5 79 65.5 125t158.5 46q102 0 156 -50t54 -143v-343h-93l-8 88h-7q-18 -47 -62.5 -72.5t-105.5 -25.5q-81 0 -128.5 43t-47.5 117z
M147 157q0 -40 26 -62t73 -22q65 0 105 40t40 105v24h-127q-117 0 -117 -85z" />
    <glyph glyph-name="abreve.ss02" horiz-adv-x="565" 
d="M362 735h69q0 -66 -40.5 -107t-108.5 -41t-108 40.5t-40 107.5h68q0 -39 22 -62.5t58 -23.5t58 23.5t22 62.5zM42 150q0 78 54.5 121t150.5 43h144v38q0 103 -115 103q-53 0 -83.5 -24.5t-31.5 -65.5h-101q5 79 65.5 125t158.5 46q102 0 156 -50t54 -143v-343h-93l-8 88
h-7q-18 -47 -62.5 -72.5t-105.5 -25.5q-81 0 -128.5 43t-47.5 117zM147 157q0 -40 26 -62t73 -22q65 0 105 40t40 105v24h-127q-117 0 -117 -85z" />
    <glyph glyph-name="acircumflex.ss02" horiz-adv-x="565" 
d="M176 584l-50 49l124 127h66l123 -127l-51 -49l-106 112zM42 150q0 78 54.5 121t150.5 43h144v38q0 103 -115 103q-53 0 -83.5 -24.5t-31.5 -65.5h-101q5 79 65.5 125t158.5 46q102 0 156 -50t54 -143v-343h-93l-8 88h-7q-18 -47 -62.5 -72.5t-105.5 -25.5
q-81 0 -128.5 43t-47.5 117zM147 157q0 -40 26 -62t73 -22q65 0 105 40t40 105v24h-127q-117 0 -117 -85z" />
    <glyph glyph-name="adieresis.ss02" horiz-adv-x="565" 
d="M229 601h-90v127h90v-127zM425 601h-90v127h90v-127zM42 150q0 78 54.5 121t150.5 43h144v38q0 103 -115 103q-53 0 -83.5 -24.5t-31.5 -65.5h-101q5 79 65.5 125t158.5 46q102 0 156 -50t54 -143v-343h-93l-8 88h-7q-18 -47 -62.5 -72.5t-105.5 -25.5q-81 0 -128.5 43
t-47.5 117zM147 157q0 -40 26 -62t73 -22q65 0 105 40t40 105v24h-127q-117 0 -117 -85z" />
    <glyph glyph-name="agrave.ss02" horiz-adv-x="565" 
d="M315 636l-33 -52l-199 114l46 77zM42 150q0 78 54.5 121t150.5 43h144v38q0 103 -115 103q-53 0 -83.5 -24.5t-31.5 -65.5h-101q5 79 65.5 125t158.5 46q102 0 156 -50t54 -143v-343h-93l-8 88h-7q-18 -47 -62.5 -72.5t-105.5 -25.5q-81 0 -128.5 43t-47.5 117zM147 157
q0 -40 26 -62t73 -22q65 0 105 40t40 105v24h-127q-117 0 -117 -85z" />
    <glyph glyph-name="amacron.ss02" horiz-adv-x="565" 
d="M443 597h-322v76h322v-76zM42 150q0 78 54.5 121t150.5 43h144v38q0 103 -115 103q-53 0 -83.5 -24.5t-31.5 -65.5h-101q5 79 65.5 125t158.5 46q102 0 156 -50t54 -143v-343h-93l-8 88h-7q-18 -47 -62.5 -72.5t-105.5 -25.5q-81 0 -128.5 43t-47.5 117zM147 157
q0 -40 26 -62t73 -22q65 0 105 40t40 105v24h-127q-117 0 -117 -85z" />
    <glyph glyph-name="aogonek.ss02" horiz-adv-x="565" 
d="M471 -127q30 0 59 12v-60q-34 -15 -79 -13q-50 1 -80 27t-30 68q0 64 59 102l-7 79h-7q-18 -47 -62.5 -72.5t-105.5 -25.5q-81 0 -128.5 43t-47.5 117q0 78 54.5 121t150.5 43h144v38q0 103 -115 103q-53 0 -83.5 -24.5t-31.5 -65.5h-101q5 79 65.5 125t158.5 46
q102 0 156 -50t54 -143v-343q-85 -21 -85 -80q0 -47 62 -47zM391 218v24h-127q-117 0 -117 -85q0 -40 26 -62t73 -22q65 0 105 40t40 105z" />
    <glyph glyph-name="aring.ss02" horiz-adv-x="565" 
d="M361 527q133 -34 133 -184v-343h-93l-8 88h-7q-18 -47 -62.5 -72.5t-105.5 -25.5q-81 0 -128.5 43t-47.5 117q0 78 54.5 121t150.5 43h144v38q0 103 -115 103q-53 0 -83.5 -24.5t-31.5 -65.5h-101q4 61 41.5 103t101.5 58q-36 32 -36 85q0 51 32 81.5t83 30.5t83 -30.5
t32 -81.5q0 -53 -36 -84zM228 611q0 -25 15 -41t39 -16t38.5 16t14.5 41q0 26 -14.5 42t-38.5 16t-39 -16t-15 -42zM391 218v24h-127q-117 0 -117 -85q0 -40 26 -62t73 -22q65 0 105 40t40 105z" />
    <glyph glyph-name="atilde.ss02" horiz-adv-x="565" 
d="M347 590q-31 -2 -72 18q-41 21 -59 20q-31 -2 -53 -34l-44 31q38 77 100 80q24 1 66 -19t62 -19q29 1 55 35l44 -31q-36 -79 -99 -81zM42 150q0 78 54.5 121t150.5 43h144v38q0 103 -115 103q-53 0 -83.5 -24.5t-31.5 -65.5h-101q5 79 65.5 125t158.5 46q102 0 156 -50
t54 -143v-343h-93l-8 88h-7q-18 -47 -62.5 -72.5t-105.5 -25.5q-81 0 -128.5 43t-47.5 117zM147 157q0 -40 26 -62t73 -22q65 0 105 40t40 105v24h-127q-117 0 -117 -85z" />
    <glyph glyph-name="h_t_t_p" horiz-adv-x="2069" 
d="M134 756h1801v-929h-645v560h-192v-300h112v-79h-123q-42 0 -63.5 19.5t-21.5 64.5v295h-204v-300h112v-79h-124q-42 0 -63 19t-21 65v295h-98v79h98v140h96v-140h204v140h96v-140h278l9 -90h7q20 46 66 73t106 27q96 0 154 -67q58 -65 58 -170q0 -106 -59 -174
q-58 -67 -155 -67q-60 0 -105.5 27.5t-64.5 74.5h-7v-206h479v794h-1658v-314h7q22 48 66.5 75t101.5 27q81 0 127 -54.5t46 -148.5v-265h-95v256q0 63 -29.5 96.5t-83.5 33.5q-63 0 -101.5 -45.5t-38.5 -119.5v-335h1004v-67h-1076v929zM1385 266v-58q0 -53 43 -90
q44 -38 106 -38q67 0 106 44.5t39 115.5q0 70 -39.5 112.5t-103.5 42.5t-107 -40q-44 -39 -44 -89z" />
    <glyph glyph-name="w_w_w" horiz-adv-x="2000" 
d="M283 0h-126l-149 526h109l68 -264l36 -164h6l94 428h109l96 -427h5l103 427h108l104 -428h6l94 428h109l97 -427h5l102 427h109l103 -428h6l95 428h109l96 -427h5l36 161l67 266h106l-148 -526h-123l-92 404h-6l-88 -404h-126l-96 377l-94 -377h-123l-92 404h-6l-88 -404
h-127l-95 376l-94 -376h-123l-93 404h-6z" />
    <glyph glyph-name="g_g.ss01" horiz-adv-x="1250" 
d="M65 -21h101q4 -37 39 -58.5t91 -21.5q71 0 108.5 35t37.5 96v90h-7q-20 -47 -67 -75.5t-106 -28.5q-98 0 -160 72q-61 71 -61 188q0 113 62 187q61 73 162 73q61 0 107 -28t67 -77h8l5 95h92v-486q0 -101 -66.5 -159t-181.5 -58q-101 0 -163 42.5t-68 113.5zM690 -21h101
q4 -37 39 -58.5t91 -21.5q71 0 108.5 35t37.5 96v90h-7q-20 -47 -67 -75.5t-106 -28.5q-99 0 -160 72q-61 71 -61 188q0 113 62 187q61 73 162 73q61 0 107 -28t67 -77h8l5 95h92v-486q0 -101 -66.5 -159t-181.5 -58q-101 0 -163 42.5t-68 113.5zM292 102q65 0 107 42
q43 43 43 107v45q0 63 -43 106t-106 43q-64 0 -105 -45.5t-41 -125.5q0 -81 40.5 -126.5t104.5 -45.5zM917 102q65 0 107 42q43 43 43 107v45q0 63 -43 106t-106 43q-64 0 -105 -45.5t-41 -125.5q0 -81 40.5 -126.5t104.5 -45.5z" />
    <glyph glyph-name="zero.ss01" horiz-adv-x="628" 
d="M314 -6q-115 0 -185 94t-70 275t70 273q70 94 186 94q117 0 185 -95.5t68 -271.5q0 -177 -68.5 -273t-185.5 -96zM313 86q146 0 146 274q0 278 -145 278q-146 0 -146 -272q0 -280 145 -280zM358 320h-92v84h92v-84z" />
    <glyph glyph-name="zero.tf" horiz-adv-x="620" 
d="M311 730q116 0 184.5 -95.5t68.5 -271.5q0 -177 -68.5 -273t-185.5 -96q-115 0 -185 94t-70 275q0 177 69 272t187 95zM310 638q-146 0 -146 -272q0 -28 1 -36l279 161q-29 147 -134 147zM309 86q146 0 146 274q0 29 -1 37l-280 -160q28 -151 135 -151z" />
    <glyph glyph-name="one.tf" horiz-adv-x="620" 
d="M373 721v-633h175v-88h-477v88h198v427h-186v80h21q74 0 119 33t53 93h97z" />
    <glyph glyph-name="two.tf" horiz-adv-x="620" 
d="M327 92h219v-92h-477v25q0 80 42 150q16 26 51 58q38 34 55 48l67 47l20 14q67 48 96 86.5t29 90.5q0 56 -33 87.5t-90 31.5q-62 0 -95.5 -36.5t-29.5 -98.5h-104q-4 102 61 164q66 63 174 63q102 0 164 -59t62 -151q0 -74 -38 -129t-119 -113l-49 -34q-38 -26 -54 -39
q-4 -3 -40 -35q-45 -40 -56 -85q74 7 145 7z" />
    <glyph glyph-name="three.tf" horiz-adv-x="620" 
d="M307 -10q-111 0 -176 63q-63 63 -61 167h107q-2 -67 33.5 -103t97.5 -36t99.5 34.5t37.5 90.5q0 57 -37.5 90t-102.5 33h-58v84h54q62 0 97.5 32.5t35.5 84.5q0 50 -34.5 79t-89.5 29q-60 0 -93.5 -35.5t-34.5 -100.5h-107q-1 103 65 165q67 63 173 63q99 0 163 -51
q66 -51 66 -140q0 -114 -107 -162v-6q58 -20 88 -65t30 -104q0 -96 -69 -154q-67 -58 -177 -58z" />
    <glyph glyph-name="four.tf" horiz-adv-x="620" 
d="M491 721v-481h86v-87h-86v-153h-104v153h-348v86l299 482h153zM387 631l-240 -391h240v391z" />
    <glyph glyph-name="five.tf" horiz-adv-x="620" 
d="M326 478q101 0 166 -68t65 -173q0 -110 -70 -179q-70 -68 -181 -68q-107 0 -174 64q-66 64 -65 167h105q-2 -60 35.5 -99.5t99.5 -39.5q64 0 103 41.5t39 109.5q0 70 -39 113t-104 43q-44 0 -79 -20t-48 -50h-98l16 402h422v-91h-330l-10 -201l5 -1q21 22 60.5 36
t81.5 14z" />
    <glyph glyph-name="six.tf" horiz-adv-x="620" 
d="M317 -10q-133 0 -195 98q-61 98 -61 271q0 180 65 275.5t198 95.5q96 0 156 -49.5t69 -134.5h-105q-7 46 -39.5 70t-82.5 24q-164 0 -152 -263h6q47 95 165 95q96 0 158 -65t62 -172q0 -111 -67 -178q-66 -67 -177 -67zM453 235q0 68 -36 108.5t-96 40.5q-62 0 -98.5 -43
t-36.5 -109q0 -68 37 -109t98 -41t96.5 41.5t35.5 111.5z" />
    <glyph glyph-name="seven.tf" horiz-adv-x="620" 
d="M137 501h-87v220h526v-74q-110 -142 -195 -319q-83 -177 -112 -328h-112q26 148 104 316q80 175 186 314h-310v-129z" />
    <glyph glyph-name="eight.tf" horiz-adv-x="620" 
d="M66 186q0 57 27.5 101.5t77.5 68.5v8q-48 22 -76.5 68t-28.5 101q0 87 67 141q67 55 177 55q109 0 176 -55q68 -54 68 -141q0 -55 -28 -100.5t-76 -68.5v-8q49 -24 76.5 -69t27.5 -101q0 -86 -68 -142q-68 -54 -177 -54t-176 54q-67 55 -67 142zM174 520q0 -54 37 -86
t98 -32q63 0 100 32t37 86t-37 86t-100 32t-99 -32t-36 -86zM174 200q0 -55 37 -86.5t98 -31.5q65 0 101 31.5t36 86.5q0 54 -37.5 86t-99.5 32t-98.5 -32.5t-36.5 -85.5z" />
    <glyph glyph-name="nine.tf" horiz-adv-x="620" 
d="M298 -10q-91 0 -153 50q-61 51 -70 133h105q7 -44 39.5 -68.5t83.5 -24.5q81 0 119 68t30 195h-5q-49 -94 -167 -94q-96 0 -158 65q-61 64 -61 172t66 176t177 68q133 0 195 -101t62 -276q0 -187 -65 -275t-198 -88zM301 337q62 0 99 43t37 109q0 67 -38 108t-98 41
q-61 0 -97 -41t-36 -111q0 -69 36 -109t97 -40z" />
    <glyph glyph-name="zero.tf.ss01" horiz-adv-x="620" 
d="M311 730q116 0 184.5 -95.5t68.5 -271.5q0 -177 -68.5 -273t-185.5 -96q-115 0 -185 94t-70 275q0 177 69 272t187 95zM310 638q-134 0 -145 -233h289q-12 233 -144 233zM309 86q134 0 145 233h-289q12 -233 144 -233z" />
    <glyph glyph-name="zero.dnom" horiz-adv-x="419" 
d="M209 -4q-82 0 -127 64.5t-45 180.5q0 118 46 181.5t126 63.5q82 0 127 -64t45 -181q0 -118 -46 -181.5t-126 -63.5zM208 68q89 0 89 172q0 174 -87 174q-89 0 -89 -170q0 -176 87 -176z" />
    <glyph glyph-name="one.dnom" horiz-adv-x="312" 
d="M152 331h-123v66h45q82 0 82 79v4h77v-480h-81v331z" />
    <glyph glyph-name="two.dnom" horiz-adv-x="379" 
d="M134 69l73 4h133v-73h-299v16q0 98 77 162q11 10 37.5 30t40 32t30.5 30.5t25 36.5t8 38q0 32 -19.5 51.5t-52.5 19.5q-35 0 -55.5 -23.5t-19.5 -60.5l-80 5q1 67 45 108t115 41q69 0 109.5 -39t40.5 -102q0 -77 -64 -134q-11 -10 -52 -42t-62.5 -54.5t-29.5 -45.5z" />
    <glyph glyph-name="three.dnom" horiz-adv-x="382" 
d="M189 -7q-72 0 -115 41.5t-41 109.5h82q-1 -37 19.5 -58t54.5 -21q33 0 54.5 20t21.5 51q0 34 -22.5 53.5t-59.5 19.5h-37v75h30q37 0 57.5 18.5t20.5 49.5q0 29 -18.5 46t-47.5 17q-35 0 -54.5 -21.5t-18.5 -57.5h-82q-2 67 40.5 108.5t114.5 41.5q67 0 109 -35.5
t42 -94.5q0 -72 -67 -103v-5q36 -14 56 -44.5t20 -69.5q0 -63 -45 -102t-114 -39z" />
    <glyph glyph-name="four.dnom" horiz-adv-x="388" 
d="M312 480v-316h52v-73h-52v-91h-81v91h-213v68l167 321h127zM231 403l-124 -239h124v239z" />
    <glyph glyph-name="five.dnom" horiz-adv-x="396" 
d="M36 148h82q-1 -36 21.5 -59t57.5 -23q36 0 58.5 25t22.5 66t-22.5 67t-59.5 26q-26 0 -46 -12t-27 -32h-77v274h289v-73h-210v-68l-2 -46l2 -2q30 30 86 30q66 0 108 -46q42 -45 42 -116q0 -74 -46 -120t-119 -46q-71 0 -115.5 43t-44.5 112z" />
    <glyph glyph-name="six.dnom" horiz-adv-x="406" 
d="M36 235q0 117 45.5 184t131.5 67q63 0 103.5 -34t47.5 -93h-81q-4 26 -23 40.5t-49 14.5q-93 0 -93 -154h3q14 27 43 42t63 15q64 0 104.5 -44t40.5 -114q0 -73 -46 -119t-120 -46q-83 0 -126.5 63t-43.5 178zM128 158q0 -40 22.5 -66t58.5 -26q37 0 59.5 25.5t22.5 67.5
q0 41 -22 65.5t-60 24.5q-37 0 -59 -26t-22 -65z" />
    <glyph glyph-name="seven.dnom" horiz-adv-x="360" 
d="M27 480h314v-58q-151 -188 -188 -422h-80q35 238 171 407h-156v-74h-61v147z" />
    <glyph glyph-name="eight.dnom" horiz-adv-x="393" 
d="M32 127q0 36 18 65.5t51 44.5v5q-33 15 -51 45t-18 67q0 60 45.5 96t119.5 36q75 0 119 -36t44 -96q0 -37 -18 -67t-50 -45v-5q68 -32 68 -111q0 -61 -45 -97t-119 -36q-75 0 -119.5 37t-44.5 97zM115 345q0 -33 22.5 -52t58.5 -19q37 0 58.5 19.5t21.5 51.5t-22 51
t-58 19t-58.5 -19.5t-22.5 -50.5zM115 134q0 -33 22 -51.5t59 -18.5q36 0 58 19.5t22 50.5q0 33 -22 52.5t-58 19.5q-37 0 -59 -20t-22 -52z" />
    <glyph glyph-name="nine.dnom" horiz-adv-x="406" 
d="M370 245q0 -117 -45.5 -184t-131.5 -67q-63 0 -104 34.5t-47 92.5h80q10 -55 74 -55q92 0 92 155h-4q-14 -28 -43 -44t-63 -16q-64 0 -104 45q-40 46 -40 117t46 117t119 46q83 0 127 -63t44 -178zM277 322q0 40 -22 66t-58 26t-59 -26t-23 -66q0 -42 22 -66t60 -24
q37 0 58.5 25.5t21.5 64.5z" />
    <glyph glyph-name="zero.numr" horiz-adv-x="419" 
d="M209 251q-82 0 -127 63.5t-45 178.5q0 117 46 179.5t126 62.5q82 0 127 -63.5t45 -178.5q0 -118 -46 -180t-126 -62zM208 322q89 0 89 170q0 171 -87 171q-89 0 -89 -167q0 -174 87 -174z" />
    <glyph glyph-name="one.numr" horiz-adv-x="312" 
d="M152 582h-123v65h45q82 0 82 78v4h77v-473h-81v326z" />
    <glyph glyph-name="two.numr" horiz-adv-x="379" 
d="M134 323l73 4h133v-72h-299v17q0 95 77 159q10 8 46 36.5t50 41.5t29.5 38t15.5 49q0 32 -19.5 50.5t-52.5 18.5q-35 0 -55.5 -23t-19.5 -60l-80 5q1 66 45 107t115 41q69 0 109.5 -38t40.5 -101q0 -45 -26.5 -87t-64.5 -69q-34 -24 -71 -56q-35 -32 -46 -61z" />
    <glyph glyph-name="three.numr" horiz-adv-x="382" 
d="M189 248q-71 0 -114 41t-42 108h82q-1 -36 20 -57t54 -21t54.5 20t21.5 50q0 33 -22.5 52.5t-59.5 19.5h-37v74h30q37 0 57.5 18.5t20.5 49.5q0 29 -18.5 45t-47.5 16q-34 0 -54 -21.5t-19 -56.5h-82q-2 67 40 108t115 41q67 0 109 -35.5t42 -92.5q0 -71 -67 -102v-5
q76 -30 76 -113q0 -61 -45 -100t-114 -39z" />
    <glyph glyph-name="four.numr" horiz-adv-x="388" 
d="M312 729v-313h52v-71h-52v-89h-81v89h-213v67l167 317h127zM231 653l-124 -237h124v237z" />
    <glyph glyph-name="five.numr" horiz-adv-x="396" 
d="M36 401h82q-1 -34 21.5 -57.5t57.5 -23.5q36 0 58.5 25t22.5 65q0 41 -22.5 67t-59.5 26q-27 0 -46.5 -12.5t-26.5 -32.5h-77v271h289v-73h-210v-67l-2 -45l2 -2q29 30 86 30q66 0 108 -45t42 -114q0 -73 -46 -119q-45 -46 -119 -46q-71 0 -115.5 42t-44.5 111z" />
    <glyph glyph-name="six.numr" horiz-adv-x="406" 
d="M36 487q0 116 45.5 182t131.5 66q62 0 103 -34t48 -91h-81q-11 53 -72 53q-93 0 -93 -151h3q14 26 43.5 41.5t62.5 15.5q64 0 104.5 -44t40.5 -113q0 -72 -46 -118q-46 -45 -120 -45q-83 0 -126.5 62.5t-43.5 175.5zM128 411q0 -40 22.5 -65.5t58.5 -25.5q37 0 59.5 25.5
t22.5 66.5t-22 65.5t-60 24.5q-37 0 -59 -26t-22 -65z" />
    <glyph glyph-name="seven.numr" horiz-adv-x="360" 
d="M27 729h314v-58q-150 -183 -188 -415h-80q36 230 170 400h-155v-64h-61v137z" />
    <glyph glyph-name="eight.numr" horiz-adv-x="393" 
d="M32 380q0 77 69 110v5q-69 33 -69 109q0 60 45 95.5t120 35.5t119 -36t44 -95q0 -76 -68 -109v-5q68 -33 68 -111q0 -59 -45 -94.5t-119 -35.5t-119 36.5t-45 94.5zM115 596q0 -32 22.5 -51t58.5 -19t58 19.5t22 50.5q0 32 -22 50.5t-58 18.5q-38 0 -59.5 -19t-21.5 -50z
M115 389q0 -33 22 -51.5t59 -18.5q36 0 58 19.5t22 50.5q0 32 -22 51t-58 19t-58.5 -19.5t-22.5 -50.5z" />
    <glyph glyph-name="nine.numr" horiz-adv-x="406" 
d="M370 497q0 -117 -45.5 -182.5t-131.5 -65.5q-62 0 -103.5 34.5t-47.5 91.5h80q12 -55 74 -55q92 0 92 152h-4q-30 -56 -106 -56q-63 0 -104 44q-40 43 -40 112q0 72 46 117q46 46 119 46q83 0 127 -62.5t44 -175.5zM277 573q0 39 -22 64.5t-58 25.5q-37 0 -59.5 -25
t-22.5 -65q0 -42 22 -66.5t60 -24.5q37 0 58.5 26.5t21.5 64.5z" />
    <glyph glyph-name="question.ss01" horiz-adv-x="549" 
d="M146 522h-102q0 98 63 157q64 59 170 59q101 0 159.5 -51.5t58.5 -136.5q0 -52 -23 -92q-22 -36 -74 -93l-24 -25l-37 -41q-10 -12 -24 -39q-8 -17 -8 -47v-17h-101v17q0 41 18 78q18 38 35 58q14 16 57 61q76 77 76 135q0 48 -32 75t-86 27q-60 0 -93.5 -34t-32.5 -91z
M319 0h-125v120h125v-120z" />
    <glyph glyph-name="questiondown.ss01" horiz-adv-x="549" 
d="M220 616h124v-120h-124v120zM392 93h103q0 -99 -63 -157t-168 -58q-102 0 -161 51t-59 137q0 52 23 92q22 38 74 93l23 24q33 37 37 41q10 12 23 39q9 18 9 48v16h101v-17q0 -40 -18 -77q-19 -39 -36 -59q-13 -15 -56 -60q-76 -77 -76 -135q0 -48 32 -75.5t86 -27.5
q60 0 93.5 33.5t32.5 91.5z" />
    <glyph glyph-name="numbersign.ss03" horiz-adv-x="602" 
d="M582 536l-17 -61h-95l-45 -195h118l-16 -61h-116l-51 -219h-72l51 219h-153l-50 -219h-71l50 219h-96l17 61h93l45 195h-116l17 61h113l49 213h71l-49 -213h153l49 213h72l-49 -213h98zM200 280h153l45 195h-153z" />
    <glyph glyph-name="parenleft.case" horiz-adv-x="297" 
d="M61 363q0 116 44 221q43 104 117 165h65q-75 -64 -116 -163.5t-41 -221.5q0 -120 41 -219t116 -165h-65q-75 63 -118 164q-43 102 -43 219z" />
    <glyph glyph-name="parenright.case" horiz-adv-x="297" 
d="M236 363q0 -117 -44 -220q-44 -102 -117 -163h-65q75 65 116 164.5t41 219.5q0 122 -41 222t-116 163h65q74 -62 117 -166q44 -105 44 -220z" />
    <glyph glyph-name="braceleft.case" horiz-adv-x="320" 
d="M43 303v66q67 0 67 74v215q0 35 19 54.5t53 19.5h105v-59h-110v-227q0 -46 -20.5 -74t-53.5 -33v-3q33 -5 53.5 -34.5t20.5 -73.5v-238h110v-59h-105q-72 0 -72 75v225q0 72 -67 72z" />
    <glyph glyph-name="braceright.case" horiz-adv-x="320" 
d="M277 369v-66q-31 0 -49.5 -17.5t-18.5 -54.5v-225q0 -75 -71 -75h-105v59h110v238q0 44 20.5 73t54.5 35v3q-34 5 -54.5 33t-20.5 74v227h-110v59h105q34 0 52.5 -19.5t18.5 -54.5v-215q0 -34 17.5 -54t50.5 -20z" />
    <glyph glyph-name="bracketleft.case" horiz-adv-x="309" 
d="M276 -69h-180v807h180v-58h-115v-690h115v-59z" />
    <glyph glyph-name="bracketright.case" horiz-adv-x="309" 
d="M214 -69h-181v59h116v690h-116v58h181v-807z" />
    <glyph glyph-name="hyphen.case" horiz-adv-x="459" 
d="M401 337h-344v65h344v-65z" />
    <glyph glyph-name="endash.case" horiz-adv-x="635" 
d="M577 337h-520v65h520v-65z" />
    <glyph glyph-name="emdash.case" horiz-adv-x="831" 
d="M773 337h-716v65h716v-65z" />
    <glyph glyph-name="greater.case" horiz-adv-x="543" 
d="M490 323l-387 -220v108l137 74l159 76v7l-157 69l-139 70v106l387 -210v-80z" />
    <glyph glyph-name="less.case" horiz-adv-x="543" 
d="M439 211v-108l-386 220v80l386 210v-106l-139 -70l-156 -69v-7l158 -76z" />
    <glyph glyph-name="percent.tf" horiz-adv-x="614" 
d="M33 580q0 70 43 114t113 44t113.5 -44.5t43.5 -114.5q0 -71 -43.5 -115t-113.5 -44q-69 0 -112.5 44t-43.5 116zM109 580q0 -42 22 -68t58 -26t58.5 26t22.5 68q0 39 -22.5 64.5t-58.5 25.5t-58 -25.5t-22 -64.5zM582 447l-548 -216v61l548 219v-64zM258 151
q0 69 44 113.5t113 44.5q70 0 113.5 -44t43.5 -114t-44 -116q-44 -45 -113 -45t-113 44.5t-44 116.5zM415 244q-35 0 -57.5 -26t-22.5 -67t22 -67t58 -26t59 26t23 67t-23 67t-59 26z" />
    <glyph glyph-name="perthousand.tf" horiz-adv-x="671" 
d="M194 437q-69 0 -113 42t-44 109t44 109t113 42q68 0 113 -42t45 -109t-45 -109t-113 -42zM115 588q0 -37 22 -60t57 -23q37 0 59.5 23t22.5 61q0 37 -22.5 60t-58.5 23t-58 -23t-22 -61zM64 334l548 215v-62l-548 -216v63zM486 292q66 0 108.5 -42t42.5 -108
q0 -68 -42 -110t-110 -42q-79 0 -124 59q-45 -59 -124 -59q-68 0 -110 42t-42 110q0 67 42 108.5t109 41.5q77 0 124 -59q47 59 126 59zM184 80q22 -23 58 -23t58 23t22 62t-22 61q-22 23 -58 23t-58 -23q-22 -22 -22 -61t22 -62zM480 58q35 0 57.5 23.5t22.5 61.5
q0 37 -22.5 60t-57.5 23q-36 0 -58.5 -23.5t-22.5 -60.5t22.5 -60.5t58.5 -23.5z" />
    <glyph glyph-name="uni1F310" horiz-adv-x="1009" 
d="M505 738q196 0 321 -104q124 -103 124 -269q0 -165 -125 -270t-320 -105q-197 0 -323 105q-125 105 -125 270q0 166 124 269q125 104 324 104zM401 574h205q-17 63 -43.5 98.5t-57.5 35.5q-66 0 -104 -134zM636 574h106q-56 97 -162 125q36 -44 56 -125zM265 574h106
q23 84 58 124q-104 -27 -164 -124zM776 574h69q-61 70 -157 104q53 -40 88 -104zM320 678q-98 -35 -158 -104h69q35 63 89 104zM86 380h95q3 88 33 159h-78q-46 -71 -50 -159zM363 539h-116q-32 -72 -35 -159h136q2 88 15 159zM377 380h253q-1 86 -16 159h-221
q-15 -71 -16 -159zM659 380h136q-3 90 -34 159h-117q14 -71 15 -159zM825 380h95q-5 89 -49 159h-78q29 -73 32 -159zM181 347h-95q4 -85 51 -156h77q-30 73 -33 156zM348 347h-136q3 -86 35 -156h116q-13 69 -15 156zM630 347h-253q2 -85 16 -156h221q14 71 16 156z
M644 191h116q32 70 35 156h-136q-1 -87 -15 -156zM920 347h-95q-3 -84 -32 -156h77q45 69 50 156zM229 158h-68q58 -69 155 -105q-51 39 -87 105zM370 158h-106q58 -98 164 -127q-35 41 -58 127zM607 158h-207q38 -137 105 -137q31 0 58 36.5t44 100.5zM743 158h-106
q-22 -85 -57 -127q104 29 163 127zM690 52q98 36 156 106h-69q-35 -66 -87 -106z" />
    <glyph glyph-name="uni1F441" horiz-adv-x="873" 
d="M70 363q0 167 103 270q104 104 263 104t263 -104t104 -270q0 -168 -104 -272t-263 -104t-263 104q-103 103 -103 272zM436 37q136 0 224 91q89 92 89 235t-89 234q-88 91 -224 91q-135 0 -223 -91q-89 -91 -89 -234t89 -235q88 -91 223 -91zM266 364q0 75 49 123
q49 49 121 49t121 -49q50 -48 50 -123q0 -78 -49 -127q-50 -48 -122 -48t-122 48q-48 49 -48 127zM287 374v-21l140 6l-90 -82l15 -17l81 93l-6 -144h20l-7 144l82 -93l15 17l-91 82l141 -6v21l-141 -7l91 83l-15 16l-82 -93l7 144h-20l6 -144l-81 93l-15 -16l90 -83z" />
    </font>
</defs>
</svg>
