<?xml version="1.0" standalone="no"?>
<!DOCTYPE svg PUBLIC "-//W3C//DTD SVG 1.1//EN" "http://www.w3.org/Graphics/SVG/1.1/DTD/svg11.dtd" >
<svg xmlns="http://www.w3.org/2000/svg" xmlns:xlink="http://www.w3.org/1999/xlink" version="1.1">
<metadata>
Created by FontForge 20170731 at Tue Jul 10 19:29:49 2018
 By Aleksey,,,
Copyright (c) 2017 by Deni Anggara. All rights reserved.
</metadata>
<defs>
<font id="AllianceNo.2-Medium" horiz-adv-x="774" >
  <font-face 
    font-family="Alliance No.2 Medium"
    font-weight="500"
    font-stretch="normal"
    units-per-em="1000"
    panose-1="0 0 6 0 0 0 0 0 0 0"
    ascent="801"
    descent="-199"
    x-height="526"
    cap-height="729"
    bbox="-409 -249 2114 991"
    underline-thickness="50"
    underline-position="-200"
    unicode-range="U+000D-FB02"
  />
<missing-glyph horiz-adv-x="644" 
d="M644 0h-644v729h644v-729zM63 666v-604h518v604h-518zM518 125h-392v478h392v-478zM189 540v-351h266v351h-266zM252 252v225h140v-225h-140z" />
    <glyph glyph-name="fi" unicode="fi" horiz-adv-x="623" 
d="M217 526h326v-526h-103v440h-223v-440h-103v440h-101v86h101v119q0 91 91 91h147v-84h-135v-126zM440 613v123h103v-123h-103z" />
    <glyph glyph-name="fl" unicode="fl" horiz-adv-x="622" 
d="M205 736h337v-736h-103v652h-222v-126h111v-85h-111v-441h-103v441h-101v85h101v119q0 91 91 91z" />
    <glyph glyph-name="f_f" unicode="ff" horiz-adv-x="688" 
d="M675 652h-135v-126h111v-86h-111v-440h-103v440h-220v-440h-103v440h-101v86h101v119q0 91 91 91h143v-84h-131v-126h220v121q0 17 3 30t11.5 28t28 23t48.5 8h147v-84z" />
    <glyph glyph-name="f_f_i" unicode="ffi" horiz-adv-x="946" 
d="M540 526h326v-526h-103v440h-223v-440h-103v440h-220v-440h-103v440h-101v86h101v119q0 91 91 91h143v-84h-131v-126h220v119q0 91 91 91h147v-84h-135v-126zM763 605v123h103v-123h-103z" />
    <glyph glyph-name="f_t" unicode="ft" horiz-adv-x="706" 
d="M558 440v-356h110v-84h-125q-87 0 -87 85v355h-239v-440h-102v440h-102v86h102v126q0 84 94 84h143v-84h-135v-126h239v171h102v-171h109v-86h-109z" />
    <glyph glyph-name="t_i" unicode="ti" horiz-adv-x="612" 
d="M429 605v123h102v-123h-102zM210 526h321v-526h-102v440h-219v-356h105v-84h-116q-49 0 -70 23t-22 68v349h-95v86h95v171h103v-171z" />
    <glyph glyph-name="t_t" unicode="tt" horiz-adv-x="681" 
d="M534 440v-356h108v-84h-119q-51 0 -71.5 23t-20.5 68v349h-220v-356h107v-84h-119q-49 0 -70 23t-22 68v349h-95v86h95v171h104v-171h220v171h103v-171h107v-86h-107z" />
    <glyph glyph-name="t_t_i" unicode="tti" horiz-adv-x="938" 
d="M755 605v123h102v-123h-102zM534 526h323v-526h-102v440h-221v-356h108v-84h-119q-51 0 -71.5 23t-20.5 68v349h-220v-356h107v-84h-119q-49 0 -70 23t-22 68v349h-95v86h95v171h104v-171h220v171h103v-171z" />
    <glyph glyph-name=".notdef" horiz-adv-x="644" 
d="M644 0h-644v729h644v-729zM63 666v-604h518v604h-518zM518 125h-392v478h392v-478zM189 540v-351h266v351h-266zM252 252v225h140v-225h-140z" />
    <glyph glyph-name=".null" horiz-adv-x="0" 
 />
    <glyph glyph-name="nonmarkingreturn" horiz-adv-x="333" 
 />
    <glyph glyph-name="CR.001" unicode="&#xd;" horiz-adv-x="226" 
 />
    <glyph glyph-name="space" unicode=" " horiz-adv-x="228" 
 />
    <glyph glyph-name="exclam" unicode="!" horiz-adv-x="286" 
d="M169 222h-51l-27 298v209h105v-209zM201 0h-116v105h116v-105z" />
    <glyph glyph-name="quotedbl" unicode="&#x22;" horiz-adv-x="393" 
d="M157 591l-26 -167h-44l-26 167v138h96v-138zM332 591l-26 -167h-44l-26 167v138h96v-138z" />
    <glyph glyph-name="numbersign" unicode="#" horiz-adv-x="717" 
d="M657 540v-61h-116v-204h116v-61h-116v-214h-65v214h-233v-214h-66v214h-117v61h117v204h-117v61h117v210h66v-210h233v210h65v-210h116zM243 275h233v204h-233v-204z" />
    <glyph glyph-name="dollar" unicode="$" horiz-adv-x="555" 
d="M506 237q0 -78 -53 -127.5t-143 -57.5v-85h-74v86q-90 10 -141.5 63t-51.5 134h104q0 -57 33.5 -87t95.5 -30q57 0 89 25t32 68q0 36 -22.5 56.5t-69.5 32.5l-87 22q-160 37 -160 170q0 71 48 119t130 57v87h74v-87q81 -10 128 -57.5t48 -122.5h-103q-1 46 -31.5 73.5
t-83.5 27.5q-48 0 -75 -23t-27 -63q0 -35 24 -55.5t73 -33.5l85 -21q158 -38 158 -171z" />
    <glyph glyph-name="percent" unicode="%" horiz-adv-x="898" 
d="M57 557q0 81 49 130q50 50 128 50q79 0 129 -50q49 -49 49 -131q0 -80 -50 -132q-50 -50 -128 -50q-79 0 -128 51q-49 50 -49 132zM261 0h-74l462 729h74zM136 557q0 -51 27 -82.5t71 -31.5q45 0 72.5 31.5t27.5 82.5q0 50 -27.5 81t-72.5 31q-43 0 -70.5 -31t-27.5 -81z
M485 173q0 81 49 131q50 51 129 51t127 -51q49 -50 49 -132t-49 -132q-50 -50 -127 -50q-79 0 -129 50q-49 50 -49 133zM663 286q-45 0 -72.5 -31.5t-27.5 -81.5t28 -82t72 -32t71.5 32t27.5 82t-28 81.5t-71 31.5z" />
    <glyph glyph-name="ampersand" unicode="&#x26;" horiz-adv-x="659" 
d="M634 0h-345q-122 0 -182.5 50.5t-60.5 144.5q0 65 32 113.5t84 66.5v8q-49 20 -76 62t-27 98q0 91 61 143t163 52q47 0 83 -9v-88q-25 9 -68 9q-64 0 -97.5 -26.5t-33.5 -74.5v-31q0 -45 34 -69t88 -24h140v113h101v-113h104v-89h-104v-245h104v-91zM287 91h142v245h-151
q-60 0 -92 -28t-32 -79v-38q0 -100 133 -100z" />
    <glyph glyph-name="quotesingle" unicode="'" horiz-adv-x="217" 
d="M157 591l-26 -167h-44l-26 167v138h96v-138z" />
    <glyph glyph-name="parenleft" unicode="(" horiz-adv-x="397" 
d="M76 319q0 133 62 259q61 124 164 192h70q-101 -64 -165 -190q-63 -124 -63 -261t63 -261t165 -190h-70q-103 67 -164 190q-62 126 -62 261z" />
    <glyph glyph-name="parenright" unicode=")" horiz-adv-x="391" 
d="M321 319q0 -136 -62 -262q-61 -123 -164 -189h-69q102 67 164 190q63 124 63 261t-63 261q-64 126 -164 190h69q103 -68 164 -192q62 -126 62 -259z" />
    <glyph glyph-name="asterisk" unicode="*" horiz-adv-x="349" 
d="M65 486l-27 45l108 51l-108 50l27 47l95 -71l-12 121h53l-12 -121l96 71l27 -47l-108 -50l108 -51l-27 -45l-96 71l12 -122h-53l12 122z" />
    <glyph glyph-name="plus" unicode="+" horiz-adv-x="635" 
d="M557 283h-196v-210h-88v210h-195v84h195v203h88v-203h196v-84z" />
    <glyph glyph-name="comma" unicode="," horiz-adv-x="210" 
d="M40 -148v46q75 0 75 73v29h-64v133h121v-157q0 -60 -35 -92t-97 -32z" />
    <glyph glyph-name="hyphen" unicode="-" horiz-adv-x="465" 
d="M404 268h-344v65h344v-65z" />
    <glyph glyph-name="period" unicode="." horiz-adv-x="253" 
d="M188 0h-122v136h122v-136z" />
    <glyph glyph-name="slash" unicode="/" horiz-adv-x="400" 
d="M91 0h-69l287 729h68z" />
    <glyph glyph-name="zero" unicode="0" horiz-adv-x="629" 
d="M316 730q253 0 253 -370t-253 -370q-256 0 -256 370t256 370zM175 468v-216q0 -82 36.5 -126t102.5 -44t103 43t37 127v216q0 84 -37 127t-103 43t-102.5 -44t-36.5 -126z" />
    <glyph glyph-name="one" unicode="1" horiz-adv-x="459" 
d="M224 515h-182v81h29q70 0 114 34.5t46 90.5h97v-721h-104v515z" />
    <glyph glyph-name="two" unicode="2" horiz-adv-x="595" 
d="M315 93h223v-93h-478v74l284 297q69 73 69 121v40q0 47 -37.5 76t-92.5 29q-61 0 -97.5 -35.5t-36.5 -93.5v-18h-102q-3 111 63 175q67 65 177 65q107 0 172 -59t65 -154q0 -46 -18 -88q-16 -40 -35 -64q-17 -23 -48 -54l-213 -224q56 6 105 6z" />
    <glyph glyph-name="three" unicode="3" horiz-adv-x="597" 
d="M296 -10q-109 0 -177 59q-66 60 -66 157v16h108v-10q0 -62 35 -96.5t98 -34.5q61 0 99 29.5t38 78.5v33q0 51 -36.5 78.5t-100.5 27.5h-58v86h56q59 0 92.5 28t33.5 76v20q0 46 -32.5 73t-86.5 27q-59 0 -94 -35t-35 -93v-10h-104v13q0 97 64 157q65 60 172 60
q100 0 162 -53t62 -139q0 -113 -101 -161v-6q56 -21 85 -66.5t29 -106.5q0 -93 -67 -151q-68 -57 -176 -57z" />
    <glyph glyph-name="four" unicode="4" horiz-adv-x="617" 
d="M488 721v-481h89v-88h-89v-152h-105v152h-348v87l292 482h161zM383 644l-242 -404h242v404z" />
    <glyph glyph-name="five" unicode="5" horiz-adv-x="606" 
d="M48 221h106q-1 -63 38.5 -101.5t107.5 -38.5q66 0 107 37.5t41 95.5v55q0 60 -41 97t-106 37q-50 0 -88 -23t-52 -62h-102l18 403h440v-92h-346l-10 -199l5 -2q48 61 154 61q108 0 172 -67q64 -65 64 -177q0 -116 -70 -186q-70 -69 -188 -69q-113 0 -182 63
q-69 65 -68 168z" />
    <glyph glyph-name="six" unicode="6" horiz-adv-x="613" 
d="M52 355q0 375 274 375q101 0 162 -48.5t71 -135.5h-108q-13 93 -129 93q-174 0 -163 -261h5q51 101 183 101q103 0 163.5 -64t60.5 -174q0 -112 -68 -182q-67 -69 -183 -69q-268 0 -268 365zM180 262v-54q0 -56 39.5 -90.5t101.5 -34.5t101.5 34.5t39.5 90.5v54
q0 62 -38.5 96t-99.5 34q-63 0 -103.5 -35.5t-40.5 -94.5z" />
    <glyph glyph-name="seven" unicode="7" horiz-adv-x="551" 
d="M113 500h-88v221h500v-75q-102 -139 -181 -314q-80 -176 -108 -332h-114q25 147 101 318q76 173 175 311h-285v-129z" />
    <glyph glyph-name="eight" unicode="8" horiz-adv-x="597" 
d="M297 -10q-117 0 -186 54q-68 56 -68 144q0 59 30.5 104.5t80.5 63.5v8q-52 20 -81.5 64.5t-29.5 103.5q0 92 70 144q70 54 187 54q118 0 185 -54q69 -54 69 -143q0 -58 -31 -104t-81 -65v-8q52 -18 82 -63t30 -105q0 -91 -71 -145q-71 -53 -186 -53zM298 404
q71 0 109 26.5t38 76.5v24q0 51 -39 79t-108 28q-68 0 -107 -28t-39 -79v-24q0 -50 38 -76.5t108 -26.5zM298 82q69 0 108 28.5t39 79.5v25q0 50 -38.5 76t-108.5 26q-69 0 -107.5 -26t-38.5 -76v-25q0 -51 39 -79.5t107 -28.5z" />
    <glyph glyph-name="nine" unicode="9" horiz-adv-x="610" 
d="M568 365q0 -181 -67.5 -278t-206.5 -97q-99 0 -161.5 49.5t-72.5 134.5h108q7 -46 40.5 -69.5t88.5 -23.5q173 0 163 262h-5q-51 -102 -183 -102q-102 0 -163 64t-61 174q0 115 67 182q67 69 184 69q269 0 269 -365zM439 458v54q0 56 -39.5 90.5t-101.5 34.5
t-101.5 -34.5t-39.5 -90.5v-54q0 -61 38.5 -95.5t99.5 -34.5q63 0 103.5 35.5t40.5 94.5z" />
    <glyph glyph-name="colon" unicode=":" horiz-adv-x="275" 
d="M201 403h-121v123h121v-123zM201 0h-121v122h121v-122z" />
    <glyph glyph-name="semicolon" unicode=";" horiz-adv-x="246" 
d="M173 403h-121v123h121v-123zM41 -138v42q42 0 58.5 17t16.5 49v30h-64v122h121v-148q0 -54 -34.5 -83t-97.5 -29z" />
    <glyph glyph-name="less" unicode="&#x3c;" horiz-adv-x="547" 
d="M463 138v-108l-386 221v80l386 210v-108l-291 -140v-8l154 -75z" />
    <glyph glyph-name="equal" unicode="=" horiz-adv-x="547" 
d="M463 355h-379v92h379v-92zM463 147h-379v91h379v-91z" />
    <glyph glyph-name="greater" unicode="&#x3e;" horiz-adv-x="547" 
d="M470 251l-386 -221v108l136 72l156 75v8l-292 140v108l386 -210v-80z" />
    <glyph glyph-name="question" unicode="?" horiz-adv-x="583" 
d="M299 200h-99v199q34 -7 67 -7q74 0 115.5 34.5t41.5 95.5q0 57 -38 90.5t-102 33.5q-61 0 -97.5 -30t-40.5 -83h-102q5 96 70 150q66 54 173 54q112 0 177 -59t65 -156q0 -92 -63 -151q-62 -58 -167 -61v-110zM311 0h-125v120h125v-120z" />
    <glyph glyph-name="at" unicode="@" horiz-adv-x="932" 
d="M802 -52h-671v677h671v-501h-182q-71 0 -76 56l-1 7h-6q-12 -25 -41 -40.5t-68 -15.5q-63 0 -98 42.5t-35 117.5q0 78 36 119t103 41q80 0 109 -57h3v52h64v-252h112v354h-509v-522h589v-78zM451 200q35 0 53.5 19t18.5 53v38q0 34 -19.5 53t-53.5 19t-53 -19t-19 -52
v-39q0 -33 19.5 -52.5t53.5 -19.5z" />
    <glyph glyph-name="A" unicode="A" horiz-adv-x="677" 
d="M673 0h-118l-58 160h-323l-58 -160h-113l270 729h126zM248 362l-42 -114h259l-41 114l-84 255h-5z" />
    <glyph glyph-name="B" unicode="B" horiz-adv-x="716" 
d="M442 0h-347v729h352q97 0 149 -49.5t52 -135.5q0 -60 -27 -102.5t-77 -61.5v-8q60 -15 91.5 -61t31.5 -116q0 -90 -60 -142.5t-165 -52.5zM202 641v-226h232q48 0 75 24t27 66v48q0 41 -27 64.5t-76 23.5h-231zM202 328v-240h226q57 0 90.5 25.5t33.5 68.5v49
q0 47 -29 72t-82 25h-239z" />
    <glyph glyph-name="C" unicode="C" horiz-adv-x="752" 
d="M377 -10q-158 0 -247 98q-88 98 -88 275t90 276q90 100 253 100q135 0 221 -71q87 -71 100 -187h-113q-15 74 -70 117t-141 43q-102 0 -164 -60q-61 -58 -61 -160v-119q0 -95 61 -155q62 -60 161 -60q82 0 139.5 43.5t74.5 117.5h113q-18 -119 -106 -189
q-88 -69 -223 -69z" />
    <glyph glyph-name="D" unicode="D" horiz-adv-x="748" 
d="M395 0h-300v729h300q162 0 236.5 -91t74.5 -274t-75.5 -273.5t-235.5 -90.5zM204 632v-535h189q104 0 151.5 49t47.5 157v122q0 109 -48.5 158t-150.5 49h-189z" />
    <glyph glyph-name="E" unicode="E" horiz-adv-x="644" 
d="M587 0h-492v729h492v-97h-383v-210h335v-92h-335v-233h383v-97z" />
    <glyph glyph-name="F" unicode="F" horiz-adv-x="613" 
d="M204 0h-109v729h486v-97h-377v-259h337v-93h-337v-280z" />
    <glyph glyph-name="G" unicode="G" horiz-adv-x="797" 
d="M42 358q0 182 94 280q94 100 250 100q124 0 210 -63q86 -62 103 -163h-113q-14 59 -67.5 94t-129.5 35q-103 0 -168 -62q-64 -61 -64 -163v-114q0 -97 61 -158t161 -61q95 0 157 59q61 58 63 157h-246v91h367v-390h-89l-10 120h-7q-36 -63 -102 -96.5t-150 -33.5
q-150 0 -235 99q-85 98 -85 269z" />
    <glyph glyph-name="H" unicode="H" horiz-adv-x="803" 
d="M204 0h-109v729h109v-311h395v311h109v-729h-109v327h-395v-327z" />
    <glyph glyph-name="I" unicode="I" horiz-adv-x="299" 
d="M204 729v-729h-109v729h109z" />
    <glyph glyph-name="J" unicode="J" horiz-adv-x="399" 
d="M202 97v632h107v-638q0 -91 -91 -91h-202v97h186z" />
    <glyph glyph-name="K" unicode="K" horiz-adv-x="685" 
d="M681 0h-130l-217 325l-130 -156v-169h-109v729h109v-409l337 409h130l-265 -317z" />
    <glyph glyph-name="L" unicode="L" horiz-adv-x="572" 
d="M536 0h-441v729h109v-631h332v-98z" />
    <glyph glyph-name="M" unicode="M" horiz-adv-x="912" 
d="M202 0h-107v729h142l216 -496h6l217 496h141v-729h-106v372l8 211h-6l-256 -570l-257 570h-7l9 -212v-371z" />
    <glyph glyph-name="N" unicode="N" horiz-adv-x="791" 
d="M204 0h-109v729h132l363 -586h5l-7 218v368h108v-729h-132l-362 586h-5l7 -210v-376z" />
    <glyph glyph-name="O" unicode="O" 
d="M42 363q0 178 91 276q91 99 254 99q161 0 253 -99q91 -98 91 -276q0 -177 -91 -275q-90 -98 -253 -98q-162 0 -254 98q-91 98 -91 275zM157 416v-103q0 -106 62 -166t168 -60q108 0 169 61t61 165v103q0 105 -62 165t-168 60q-108 0 -169 -60.5t-61 -164.5z" />
    <glyph glyph-name="P" unicode="P" horiz-adv-x="679" 
d="M204 0h-109v729h323q114 0 173.5 -61.5t59.5 -173.5t-60.5 -173.5t-172.5 -61.5h-214v-259zM204 629v-277h206q59 0 92.5 29.5t33.5 78.5v69q0 48 -31 74t-86 26h-215z" />
    <glyph glyph-name="Q" unicode="Q" 
d="M731 363q0 -162 -78.5 -259.5t-220.5 -111.5v-105h132v-80h-145q-52 0 -71.5 23t-19.5 67v97q-136 17 -211 113.5t-75 255.5q0 178 91 276q91 99 254 99q161 0 253 -99q91 -98 91 -276zM157 416v-103q0 -106 62 -166t168 -60q108 0 169 61t61 165v103q0 105 -62 165
t-168 60q-108 0 -169 -60.5t-61 -164.5z" />
    <glyph glyph-name="R" unicode="R" horiz-adv-x="740" 
d="M204 0h-109v729h356q104 0 159 -56.5t55 -159.5q0 -64 -28.5 -110t-78.5 -64v-7h37q72 0 72 -78v-254h-110v275h-353v-275zM204 634v-268h223q57 0 89.5 28t32.5 76v61q0 50 -32 76.5t-90 26.5h-223z" />
    <glyph glyph-name="S" unicode="S" horiz-adv-x="671" 
d="M45 226h112q2 -71 50.5 -109.5t131.5 -38.5q75 0 119 33t44 90q0 60 -44 83q-30 17 -65 25l-125 28q-24 5 -39 9q-56 15 -89 37q-82 56 -77 147q0 97 71 153q73 56 191 56q119 0 193 -57q75 -58 76 -156h-112q-4 60 -45.5 92.5t-112.5 32.5q-69 0 -108 -29t-39 -78
q0 -41 30 -67q9 -9 31 -19q31 -12 62 -18l132 -28q185 -41 185 -199q0 -105 -77 -164t-206 -59q-139 0 -215 67q-75 68 -74 169z" />
    <glyph glyph-name="T" unicode="T" horiz-adv-x="560" 
d="M6 729h548v-97h-220v-632h-108v632h-220v97z" />
    <glyph glyph-name="U" unicode="U" 
d="M89 272v457h108v-448q0 -90 51 -140.5t139 -50.5t139 50.5t51 140.5v448h108v-457q0 -130 -81 -206q-79 -76 -218 -76q-143 0 -220 76q-77 77 -77 206z" />
    <glyph glyph-name="V" unicode="V" horiz-adv-x="672" 
d="M406 0h-140l-260 729h119l117 -335l90 -291h7l92 290l117 336h118z" />
    <glyph glyph-name="W" unicode="W" horiz-adv-x="942" 
d="M159 0l-149 729h118l80 -417l31 -192h7l154 609h143l156 -610h6l31 192l79 418h117l-149 -729h-151l-157 601h-6l-159 -601h-151z" />
    <glyph glyph-name="X" unicode="X" horiz-adv-x="638" 
d="M142 0h-128l227 368l-223 361h129l89 -149l83 -147h7l87 152l85 144h128l-225 -364l226 -365h-129l-81 131l-93 161h-6l-99 -167z" />
    <glyph glyph-name="Y" unicode="Y" horiz-adv-x="663" 
d="M277 291l-273 438h131l104 -179l89 -158h7l89 158l104 179h130l-272 -438v-291h-109v291z" />
    <glyph glyph-name="Z" unicode="Z" horiz-adv-x="616" 
d="M38 729h539v-88l-401 -544h397v-97h-535v88l401 543h-401v98z" />
    <glyph glyph-name="bracketleft" unicode="[" horiz-adv-x="314" 
d="M289 -219h-180v1003h180v-60h-115v-887h115v-56z" />
    <glyph glyph-name="backslash" unicode="\" horiz-adv-x="403" 
d="M91 729l286 -729h-68l-287 729h69z" />
    <glyph glyph-name="bracketright" unicode="]" horiz-adv-x="314" 
d="M205 -219h-180v56h116v887h-116v60h180v-1003z" />
    <glyph glyph-name="asciicircum" unicode="^" horiz-adv-x="384" 
d="M368 473h-87l-89 168l-89 -168h-87l140 256h73z" />
    <glyph glyph-name="underscore" unicode="_" horiz-adv-x="342" 
d="M344 -74h-346v74h346v-74z" />
    <glyph glyph-name="grave" unicode="`" horiz-adv-x="431" 
d="M336 771l-33 -50l-193 116l44 68z" />
    <glyph glyph-name="a" unicode="a" horiz-adv-x="582" 
d="M39 151q0 77 50.5 120t140.5 43h153v38q0 102 -108 102q-53 0 -82 -23.5t-31 -66.5h-102q5 82 63 127t157 45q102 0 151 -49q55 -53 55 -137v-275h74v-75h-95q-71 0 -75 60l-1 25h-7q-17 -43 -64.5 -69t-110.5 -26q-78 0 -123 44t-45 117zM144 173v-28q0 -35 24.5 -54
t67.5 -19q68 0 107.5 40t39.5 106v25h-140q-47 0 -73 -18.5t-26 -51.5z" />
    <glyph glyph-name="b" unicode="b" horiz-adv-x="633" 
d="M174 0h-93v736h103v-310h7q21 50 69.5 80t110.5 30q107 0 164 -72.5t57 -202.5q0 -129 -58 -200t-166 -71q-58 0 -106 27.5t-71 75.5h-7zM184 292v-62q0 -67 44 -111q46 -44 115 -44q68 0 105.5 36t37.5 99v102q0 64 -38.5 101t-104.5 37q-70 0 -114.5 -44t-44.5 -114z
" />
    <glyph glyph-name="c" unicode="c" horiz-adv-x="566" 
d="M427 183h102q-12 -90 -75.5 -141.5t-161.5 -51.5q-118 0 -185 73q-66 73 -66 199q0 129 69 201q70 73 185 73q94 0 157 -51t76 -136h-103q-24 100 -134 100q-66 0 -105.5 -41.5t-39.5 -107.5v-82q0 -65 39.5 -103.5t105.5 -38.5q55 0 91 28.5t45 78.5z" />
    <glyph glyph-name="d" unicode="d" horiz-adv-x="633" 
d="M257 -10q-102 0 -159 71t-57 198q0 129 57 199.5t159 70.5q135 0 185 -102h7v309h104v-736h-92l-12 93h-7q-25 -49 -73.5 -76t-111.5 -27zM290 75q72 0 115.5 42.5t43.5 112.5v59q0 70 -43.5 112.5t-115.5 42.5q-66 0 -104.5 -36t-38.5 -99v-99q0 -63 37.5 -99t105.5 -36
z" />
    <glyph glyph-name="e" unicode="e" horiz-adv-x="571" 
d="M41 264q0 128 67 200t182 72q109 0 173 -64q65 -65 65 -175q0 -26 -4 -57h-377v-29q0 -62 40 -100.5t105 -38.5q51 0 87.5 24t48.5 64h102q-16 -77 -81 -123.5t-158 -46.5q-117 0 -183.5 73.5t-66.5 200.5zM147 326v-12h277v17q0 55 -37 89t-98 34q-63 0 -102.5 -35.5
t-39.5 -92.5z" />
    <glyph glyph-name="f" unicode="f" horiz-adv-x="365" 
d="M352 652h-135v-126h111v-86h-111v-440h-102v440h-102v86h102v126q0 84 94 84h143v-84z" />
    <glyph glyph-name="g" unicode="g" horiz-adv-x="538" 
d="M222 109h133q78 0 121.5 -36.5t43.5 -99.5q0 -78 -67.5 -117t-192.5 -39q-112 0 -170 33t-58 92q0 78 80 104v7q-24 8 -38.5 28.5t-14.5 45.5q0 31 20 55t52 34v7q-78 45 -78 139q0 78 56 126q55 48 145 48q49 0 91 -15v16q0 71 81 71h85v-84h-99v-43q50 -47 50 -122
q0 -78 -55 -124q-56 -47 -143 -47q-34 0 -71 8q-18 -4 -28.5 -16.5t-10.5 -28.5q0 -42 68 -42zM155 378v-34q0 -37 28 -60t75 -23q46 0 74.5 23t28.5 60v34q0 38 -28.5 61t-74.5 23q-47 0 -75 -23t-28 -61zM267 -107q150 0 150 75q0 57 -73 57h-136q-79 0 -79 -62
q0 -37 33 -53.5t105 -16.5z" />
    <glyph glyph-name="h" unicode="h" horiz-adv-x="623" 
d="M184 0h-103v736h103v-306h7q25 50 71 78t105 28q86 0 134 -57t48 -157v-322h-104v312q0 137 -116 137q-66 0 -105.5 -46.5t-39.5 -123.5v-279z" />
    <glyph glyph-name="i" unicode="i" horiz-adv-x="264" 
d="M183 612h-102v124h102v-124zM183 0h-102v526h102v-526z" />
    <glyph glyph-name="j" unicode="j" horiz-adv-x="273" 
d="M90 612v124h103v-124h-103zM90 -84v610h103l-1 -498v-104q0 -91 -91 -91h-124v83h113z" />
    <glyph glyph-name="k" unicode="k" horiz-adv-x="568" 
d="M553 0h-119l-164 248l-85 -87v-161h-104v736h104v-445l227 235h131l-202 -206z" />
    <glyph glyph-name="l" unicode="l" horiz-adv-x="264" 
d="M183 0h-102v736h102v-736z" />
    <glyph glyph-name="m" unicode="m" horiz-adv-x="931" 
d="M184 0h-103v526h89l14 -98h8q45 108 159 108q57 0 97 -30.5t56 -82.5h8q48 113 171 113q83 0 128.5 -55.5t45.5 -155.5v-325h-103v313q0 136 -107 136q-59 0 -92.5 -44.5t-33.5 -121.5v-283h-104v311q0 138 -105 138q-58 0 -93 -45t-35 -120v-284z" />
    <glyph glyph-name="n" unicode="n" horiz-adv-x="623" 
d="M184 0h-103v526h90l14 -98h7q24 51 70.5 79.5t105.5 28.5q86 0 134 -57.5t48 -157.5v-321h-104v311q0 135 -117 135q-66 0 -105.5 -47t-39.5 -123v-276z" />
    <glyph glyph-name="o" unicode="o" horiz-adv-x="591" 
d="M41 263q0 127 69 200t186 73q114 0 184 -73q71 -73 71 -200q0 -125 -68 -199t-187 -74q-118 0 -187 73q-68 74 -68 200zM146 302v-82q0 -68 41.5 -106t108.5 -38t108 38.5t41 105.5v82q0 66 -41.5 106.5t-107.5 40.5q-67 0 -108.5 -40.5t-41.5 -106.5z" />
    <glyph glyph-name="p" unicode="p" horiz-adv-x="633" 
d="M184 -167h-103v693h91l12 -93h7q25 49 73.5 76t111.5 27q102 0 159.5 -71t57.5 -199t-57.5 -199t-159.5 -71q-134 0 -185 103h-7v-266zM343 81q66 0 104.5 36t38.5 99v100q0 62 -38 98t-105 36q-72 0 -115.5 -42t-43.5 -112v-60q0 -70 44 -112.5t115 -42.5z" />
    <glyph glyph-name="q" unicode="q" horiz-adv-x="633" 
d="M459 526h93v-693h-103v267h-8q-20 -50 -68.5 -80t-110.5 -30q-107 0 -164 72t-57 202t58 201t165 71q58 0 106 -27.5t71 -75.5h8zM449 233v63q0 66 -45 110q-44 44 -115 44q-66 0 -104.5 -36.5t-38.5 -97.5v-103q0 -64 39 -100.5t105 -36.5q70 0 114 44q45 44 45 113z
" />
    <glyph glyph-name="r" unicode="r" horiz-adv-x="365" 
d="M172 526h182v-86h-170v-440h-103v436q0 43 20 66.5t71 23.5z" />
    <glyph glyph-name="s" unicode="s" horiz-adv-x="511" 
d="M38 161h103q0 -43 31.5 -68t85.5 -25q51 0 79.5 21t28.5 58q0 54 -67 66l-107 20q-144 25 -144 142q0 75 55 118t149 43t149.5 -44.5t56.5 -117.5h-102q-3 84 -104 84q-48 0 -74 -19.5t-26 -53.5q0 -56 80 -68l100 -18q141 -25 141 -145q0 -76 -58 -120t-157 -44
q-101 0 -160.5 46.5t-59.5 124.5z" />
    <glyph glyph-name="t" unicode="t" horiz-adv-x="357" 
d="M318 440h-109v-356h109v-84h-124q-87 0 -87 85v355h-95v86h95v171h102v-171h109v-86z" />
    <glyph glyph-name="u" unicode="u" horiz-adv-x="617" 
d="M433 526h103v-526h-89l-14 97h-8q-50 -107 -177 -107q-83 0 -129 53t-46 149v334h104v-319q0 -131 111 -131q66 0 105.5 48t39.5 126v276z" />
    <glyph glyph-name="v" unicode="v" horiz-adv-x="494" 
d="M186 0l-188 526h114l84 -264l49 -162h6l48 161l84 265h113l-185 -526h-125z" />
    <glyph glyph-name="w" unicode="w" horiz-adv-x="757" 
d="M575 260l66 266h107l-143 -526h-133l-61 258l-31 139h-6l-29 -139l-59 -258h-132l-146 526h109l66 -264l34 -159h8l94 423h121l96 -422h7z" />
    <glyph glyph-name="x" unicode="x" horiz-adv-x="481" 
d="M113 0h-110l168 264l-169 262h113l122 -196h7l118 196h112l-164 -259l170 -267h-113l-123 200h-7z" />
    <glyph glyph-name="y" unicode="y" horiz-adv-x="532" 
d="M214 65l-217 461h112l72 -169l80 -192h6l82 192l73 169h111l-217 -462v-140q0 -34 -13 -58q-17 -33 -75 -33h-135v84h121v148z" />
    <glyph glyph-name="z" unicode="z" horiz-adv-x="450" 
d="M422 448l-273 -363h276v-85h-400v77l272 363h-273v86h398v-78z" />
    <glyph glyph-name="braceleft" unicode="{" horiz-adv-x="303" 
d="M34 254v65q67 0 67 74v318q0 73 72 73h105v-60h-111v-327q0 -46 -20 -74.5t-53 -33.5v-3q33 -5 53 -34.5t20 -73.5v-341h111v-56h-105q-72 0 -72 72v328q0 37 -18 55t-49 18z" />
    <glyph glyph-name="bar" unicode="|" horiz-adv-x="305" 
d="M197 -37h-91v790h91v-790z" />
    <glyph glyph-name="braceright" unicode="}" horiz-adv-x="303" 
d="M269 319v-65q-68 0 -68 -73v-328q0 -72 -71 -72h-105v56h109v341q0 44 21 73.5t55 34.5v3q-34 5 -55 33.5t-21 74.5v327h-109v60h105q34 0 52.5 -19t18.5 -54v-318q0 -74 68 -74z" />
    <glyph glyph-name="asciitilde" unicode="~" horiz-adv-x="384" 
d="M78 277h-56q-5 69 20.5 101.5t70.5 32.5q32 0 81 -25q50 -25 75 -25q47 0 47 62h55q5 -70 -23 -104.5t-75 -34.5q-38 0 -89 25q-54 26 -70 26q-41 0 -36 -58z" />
    <glyph glyph-name="uni00A0" unicode="&#xa0;" horiz-adv-x="228" 
 />
    <glyph glyph-name="exclamdown" unicode="&#xa1;" horiz-adv-x="286" 
d="M85 623v106h116v-106h-116zM91 209l27 298h51l27 -298v-209h-105v209z" />
    <glyph glyph-name="cent" unicode="&#xa2;" horiz-adv-x="557" 
d="M413 289h102q-11 -76 -62 -124t-131 -57v-78h-75v78q-93 12 -145 79t-52 175q0 109 52.5 176.5t144.5 80.5v80h75v-79q80 -8 130.5 -54t61.5 -121h-102q-22 91 -125 91q-62 0 -97 -35.5t-35 -98.5v-79q0 -61 34.5 -96t96.5 -35q51 0 85 26t42 71z" />
    <glyph glyph-name="sterling" unicode="&#xa3;" horiz-adv-x="644" 
d="M494 93v147h92v-240h-541v93h71v226h-71v86h71v116q0 99 59.5 158t161.5 59q90 0 149 -48t67 -127h-104q-7 38 -39 60.5t-75 22.5q-52 0 -83.5 -33t-31.5 -92v-116h229v-86h-229v-226h274z" />
    <glyph glyph-name="currency" unicode="&#xa4;" horiz-adv-x="653" 
d="M138 82l-61 58l75 66q-45 60 -44.5 131.5t44.5 131.5l-74 65l59 60l64 -76q55 40 126 39q71 0 126 -39l63 76l59 -60l-71 -64q44 -58 44.5 -130.5t-44.5 -133.5l72 -66l-59 -58l-63 75q-59 -41 -127 -41q-69 0 -125 42zM199 338q0 -59 36.5 -97t91.5 -38q54 1 90.5 39.5
t36.5 95.5t-36.5 94t-91.5 37t-90.5 -36t-36.5 -95z" />
    <glyph glyph-name="yen" unicode="&#xa5;" horiz-adv-x="625" 
d="M498 729h123l-205 -364h99v-87h-148v-60h148v-87h-148v-131h-108v131h-149v87h149v60h-149v87h100l-206 364h125l108 -207l72 -149h7l74 149z" />
    <glyph glyph-name="brokenbar" unicode="&#xa6;" horiz-adv-x="305" 
d="M197 436h-91v317h91v-317zM197 -39h-91v313h91v-313z" />
    <glyph glyph-name="section" unicode="&#xa7;" horiz-adv-x="519" 
d="M45 360q0 39 21 68.5t57 42.5v10q-57 35 -57 102t54 107.5t145 40.5q89 0 144 -42t58 -109h-105q-4 32 -32 49.5t-72 17.5q-79 0 -79 -61q0 -35 28 -53q15 -9 49 -24l103 -41q118 -40 118 -135q0 -76 -66 -109v-10q55 -34 55 -103q0 -71 -54.5 -111t-147.5 -40
q-91 0 -147.5 40t-61.5 110h108q4 -32 31.5 -50t71.5 -18q85 0 85 65q0 28 -16.5 43.5t-57.5 31.5l-116 44q-116 45 -116 134zM152 387q0 -49 65 -75l97 -40q1 -1 17 -7.5t24 -11.5q19 19 19 50q0 38 -23 54q-18 15 -41 23l-90 40q-2 1 -8 3t-16 6t-21 10q-23 -20 -23 -52z
" />
    <glyph glyph-name="dieresis" unicode="&#xa8;" horiz-adv-x="395" 
d="M142 738h-87v121h87v-121zM338 738h-88v121h88v-121z" />
    <glyph glyph-name="copyright" unicode="&#xa9;" horiz-adv-x="940" 
d="M471 -60q-172 0 -293 115t-121 297q0 180 121 295q122 116 293 116q109 2 204 -50t152.5 -148t55.5 -211q0 -181 -121 -298q-121 -116 -291 -116zM848 354q0 165 -110 272q-109 106 -267 106q-157 0 -269 -107q-111 -107 -111 -273q0 -167 110 -274q112 -107 269 -107
q158 0 268 107t110 276zM476 130q-96 0 -160 62q-63 62 -63 160t63 160q64 62 161 62q85 0 144 -48q59 -46 67 -124h-80q-7 46 -43 74.5t-89 28.5q-66 0 -104 -42t-38 -111q0 -70 38 -111.5t103 -41.5q53 0 89.5 28.5t43.5 73.5h80q-7 -73 -68 -123q-58 -48 -144 -48z" />
    <glyph glyph-name="ordfeminine" unicode="&#xaa;" horiz-adv-x="437" 
d="M361 587v-170h37v-63h-43q-66 0 -66 59v10h-5q-13 -35 -44.5 -54.5t-74.5 -19.5q-55 0 -88 31.5t-33 82.5q0 54 38.5 85t104.5 31h94v16q0 68 -77 68q-64 0 -76 -48h-78q6 52 49.5 83t110.5 31q74 0 112.5 -37t38.5 -105zM281 505v18h-83q-74 0 -74 -57q0 -25 17 -38.5
t47 -13.5q42 0 67.5 26t25.5 65z" />
    <glyph glyph-name="guillemotleft" unicode="&#xab;" horiz-adv-x="533" 
d="M194 64l-121 210l121 208h90l-109 -208l109 -210h-90zM393 64l-121 210l121 208h91l-110 -208l110 -210h-91z" />
    <glyph glyph-name="logicalnot" unicode="&#xac;" horiz-adv-x="627" 
d="M553 151h-92v167h-383v90h475v-257z" />
    <glyph glyph-name="registered" unicode="&#xae;" horiz-adv-x="616" 
d="M307 211q-112 0 -189 74q-75 75 -75 190t75 189q77 74 189 74q113 0 190 -74q76 -73 76 -189q0 -115 -76 -190q-77 -74 -190 -74zM308 243q98 0 165 65q67 64 67 167q0 102 -67 168q-66 66 -165 66q-98 0 -165 -67q-66 -66 -66 -168t66 -166q68 -65 165 -65zM257 350h-46
v255h125q36 0 56 -19.5t20 -53.5q0 -50 -39 -63v-3h12q28 0 28 -30v-86h-46v93h-110v-93zM257 566v-85h69q17 0 27 9.5t10 24.5v19q0 32 -36 32h-70z" />
    <glyph glyph-name="overscore" unicode="&#xaf;" horiz-adv-x="354" 
d="M337 741h-322v76h322v-76z" />
    <glyph glyph-name="degree" unicode="&#xb0;" horiz-adv-x="418" 
d="M359 585q0 -64 -43 -106q-44 -41 -109 -41q-64 0 -105.5 41.5t-41.5 105.5q0 66 41.5 107.5t105.5 41.5q66 0 109 -41.5t43 -107.5zM285 585q0 35 -22 57.5t-55 22.5q-31 0 -53 -22.5t-22 -57.5q0 -33 22 -55.5t53 -22.5q32 0 54.5 22.5t22.5 55.5z" />
    <glyph glyph-name="plusminus" unicode="&#xb1;" horiz-adv-x="657" 
d="M578 336h-202v-169h-98v169h-200v91h200v169h98v-169h202v-91zM578 0h-500v94h500v-94z" />
    <glyph glyph-name="uni00B2" unicode="&#xb2;" horiz-adv-x="452" 
d="M149 374l93 4h168v-78h-359v19q0 113 92 187q14 12 45 35.5t47.5 38t37 36t30 43.5t9.5 46q0 41 -24 64t-66 23q-46 0 -71.5 -26.5t-23.5 -74.5h-88q-1 81 50.5 129.5t135.5 48.5q81 0 130.5 -45.5t49.5 -117.5q0 -91 -81 -160q-13 -11 -64 -50t-76.5 -66t-34.5 -56z" />
    <glyph glyph-name="uni00B3" unicode="&#xb3;" horiz-adv-x="465" 
d="M231 292q-87 0 -137.5 49t-48.5 129h91q-2 -48 24 -74.5t72 -26.5t73.5 25.5t27.5 67.5q0 43 -29 67t-79 24h-45v73h40q49 0 75.5 23.5t26.5 62.5q0 37 -25 58.5t-65 21.5q-46 0 -71.5 -26.5t-24.5 -72.5h-89q-3 79 48 127q52 49 138 49q79 0 130 -40.5t51 -108.5
q0 -87 -82 -124v-4q44 -17 68 -53t24 -82q0 -73 -54 -119q-52 -46 -139 -46z" />
    <glyph glyph-name="acute" unicode="&#xb4;" horiz-adv-x="432" 
d="M336 837l-193 -116l-33 50l183 134z" />
    <glyph glyph-name="paragraph" unicode="&#xb6;" horiz-adv-x="677" 
d="M259 729h321v-74h-71v-656q0 -145 -144 -145h-259v67h149v437q-93 0 -147 50t-54 134q0 87 55.5 137t149.5 50zM336 -79h25q36 0 51.5 18t15.5 58v658h-92v-734z" />
    <glyph glyph-name="middot" unicode="&#xb7;" horiz-adv-x="297" 
d="M65 292q0 37 24 61t59 24q36 0 60 -24t24 -61q0 -35 -24 -58.5t-60 -23.5q-35 0 -59 23.5t-24 58.5z" />
    <glyph glyph-name="cedilla" unicode="&#xb8;" horiz-adv-x="524" 
d="M304 5l-29 -47q33 0 56.5 -19t23.5 -52q0 -40 -32 -63t-71 -21.5t-72 15.5v56q26 -25 67 -20t41 37q0 22 -20 30t-55 -3v27l52 87h39v-27z" />
    <glyph glyph-name="uni00B9" unicode="&#xb9;" horiz-adv-x="354" 
d="M174 697h-143v68h23q54 0 89 27t36 70h82v-562h-87v397z" />
    <glyph glyph-name="ordmasculine" unicode="&#xba;" horiz-adv-x="450" 
d="M44 538q0 85 50 138t131 53t130 -54q50 -53 50 -137q0 -83 -50 -136q-49 -52 -130 -52q-82 0 -131 52q-50 53 -50 136zM126 539q0 -55 27 -88.5t72 -33.5q44 0 71.5 34t27.5 89q0 54 -27 87.5t-72 33.5t-72 -33t-27 -89z" />
    <glyph glyph-name="guillemotright" unicode="&#xbb;" horiz-adv-x="533" 
d="M142 482l120 -208l-120 -210h-91l110 210l-110 208h91zM341 482l120 -208l-120 -210h-92l111 210l-111 208h92z" />
    <glyph glyph-name="onequarter" unicode="&#xbc;" horiz-adv-x="894" 
d="M173 -46l409 814h84l-409 -814h-84zM233 729v-473h-81v326h-123v65h45q82 0 82 78v4h77zM818 480v-316h52v-73h-52v-91h-81v91h-213v68l167 321h127zM737 403l-124 -239h124v239z" />
    <glyph glyph-name="onehalf" unicode="&#xbd;" horiz-adv-x="908" 
d="M173 -46l409 814h84l-409 -814h-84zM233 729v-473h-81v326h-123v65h45q82 0 82 78v4h77zM663 69l73 4h133v-73h-299v16q0 98 77 162q11 10 37.5 30t40 32t30.5 30.5t25 36.5t8 38q0 32 -19.5 51.5t-52.5 19.5q-35 0 -55.5 -23.5t-19.5 -60.5l-80 5q1 67 45 108t115 41
q69 0 109.5 -39t40.5 -102q0 -77 -64 -134q-11 -10 -52 -42t-62.5 -54.5t-29.5 -45.5z" />
    <glyph glyph-name="threequarters" unicode="&#xbe;" horiz-adv-x="963" 
d="M245 -46l409 814h84l-409 -814h-84zM348 387q0 -61 -45 -100t-114 -39q-71 0 -114 41t-42 108h82q-1 -36 20 -57t54 -21t54.5 20t21.5 50q0 33 -22.5 52.5t-59.5 19.5h-37v74h30q37 0 57.5 18.5t20.5 49.5q0 29 -18.5 45t-47.5 16q-34 0 -54 -21.5t-19 -56.5h-82
q-2 67 40 108t115 41q67 0 109 -35.5t42 -92.5q0 -71 -67 -102v-5q76 -30 76 -113zM889 480v-316h52v-73h-52v-91h-81v91h-213v68l167 321h127zM808 403l-124 -239h124v239z" />
    <glyph glyph-name="questiondown" unicode="&#xbf;" horiz-adv-x="583" 
d="M272 729h125v-120h-125v120zM284 529h99v-199q-34 7 -67 7q-73 0 -114.5 -34.5t-41.5 -95.5q0 -57 38 -90.5t101 -33.5q62 0 98 30t40 83h103q-4 -96 -71 -150q-66 -54 -172 -54q-113 0 -177 58q-65 59 -65 157q0 91 63 150q64 59 166 62v110z" />
    <glyph glyph-name="Agrave" unicode="&#xc0;" horiz-adv-x="677" 
d="M187 984l182 -134l-33 -50l-193 116zM673 0h-118l-58 160h-323l-58 -160h-113l270 729h126zM248 362l-42 -114h259l-41 114l-84 255h-5z" />
    <glyph glyph-name="Aacute" unicode="&#xc1;" horiz-adv-x="677" 
d="M485 984l43 -68l-193 -116l-33 50zM673 0h-118l-58 160h-323l-58 -160h-113l270 729h126zM248 362l-42 -114h259l-41 114l-84 255h-5z" />
    <glyph glyph-name="Acircumflex" unicode="&#xc2;" horiz-adv-x="677" 
d="M441 791l-106 112l-106 -112l-50 49l124 127h66l123 -127zM673 0h-118l-58 160h-323l-58 -160h-113l270 729h126zM248 362l-42 -114h259l-41 114l-84 255h-5z" />
    <glyph glyph-name="Atilde" unicode="&#xc3;" horiz-adv-x="677" 
d="M269 830q-30 0 -53 -35l-44 31q36 78 100 78q27 -2 66 -19q42 -17 61 -17q35 0 56 36l44 -32q-33 -77 -103 -77q-26 0 -68 17q-40 18 -59 18zM673 0h-118l-58 160h-323l-58 -160h-113l270 729h126zM248 362l-42 -114h259l-41 114l-84 255h-5z" />
    <glyph glyph-name="Adieresis" unicode="&#xc4;" horiz-adv-x="677" 
d="M194 932h87v-121h-87v121zM389 932h88v-121h-88v121zM673 0h-118l-58 160h-323l-58 -160h-113l270 729h126zM248 362l-42 -114h259l-41 114l-84 255h-5z" />
    <glyph glyph-name="Aring" unicode="&#xc5;" horiz-adv-x="677" 
d="M673 0h-118l-58 160h-323l-58 -160h-113l261 704q-43 30 -43 90q0 51 32 81.5t83 30.5t82.5 -30.5t31.5 -81.5q0 -58 -42 -90zM282 794q0 -25 15 -41t39 -16t38.5 15.5t14.5 41.5t-14.5 42t-38.5 16t-39 -16t-15 -42zM248 362l-42 -114h259l-41 114l-84 255h-5z" />
    <glyph glyph-name="AE" unicode="&#xc6;" horiz-adv-x="963" 
d="M907 729v-97h-387v-222h330v-91h-330v-222h387v-97h-496v193h-233l-62 -193h-113l244 729h660zM205 280h206v352h-93z" />
    <glyph glyph-name="Ccedilla" unicode="&#xc7;" horiz-adv-x="752" 
d="M379 87q82 0 139.5 43.5t74.5 117.5h113q-16 -112 -100 -184q-83 -70 -210 -74l-18 -28q33 0 56.5 -19t23.5 -53q0 -40 -32 -63t-71 -21.5t-72 15.5v56q26 -25 67 -20t41 37q0 22 -20.5 30t-54.5 -3v27l26 43q-142 11 -221 109t-79 263q0 177 90 276q90 100 253 100
q135 0 221 -71q87 -71 100 -187h-113q-15 74 -70 117t-141 43q-102 0 -164 -60q-61 -58 -61 -160v-119q0 -95 61 -155q62 -60 161 -60z" />
    <glyph glyph-name="Egrave" unicode="&#xc8;" horiz-adv-x="644" 
d="M365 850l-33 -50l-193 116l44 68zM587 0h-492v729h492v-97h-383v-210h335v-92h-335v-233h383v-97z" />
    <glyph glyph-name="Eacute" unicode="&#xc9;" horiz-adv-x="644" 
d="M524 916l-193 -116l-33 50l183 134zM587 0h-492v729h492v-97h-383v-210h335v-92h-335v-233h383v-97z" />
    <glyph glyph-name="Ecircumflex" unicode="&#xca;" horiz-adv-x="644" 
d="M226 791l-50 49l124 127h66l123 -127l-51 -49l-106 112zM587 0h-492v729h492v-97h-383v-210h335v-92h-335v-233h383v-97z" />
    <glyph glyph-name="Edieresis" unicode="&#xcb;" horiz-adv-x="644" 
d="M278 811h-87v121h87v-121zM474 811h-88v121h88v-121zM587 0h-492v729h492v-97h-383v-210h335v-92h-335v-233h383v-97z" />
    <glyph glyph-name="Igrave" unicode="&#xcc;" horiz-adv-x="299" 
d="M183 850l-33 -50l-193 116l44 68zM204 729v-729h-109v729h109z" />
    <glyph glyph-name="Iacute" unicode="&#xcd;" horiz-adv-x="299" 
d="M342 916l-193 -116l-33 50l183 134zM204 729v-729h-109v729h109z" />
    <glyph glyph-name="Icircumflex" unicode="&#xce;" horiz-adv-x="299" 
d="M44 791l-50 49l124 127h66l123 -127l-51 -49l-106 112zM204 729v-729h-109v729h109z" />
    <glyph glyph-name="Idieresis" unicode="&#xcf;" horiz-adv-x="299" 
d="M96 811h-87v121h87v-121zM292 811h-88v121h88v-121zM204 729v-729h-109v729h109z" />
    <glyph glyph-name="Eth" unicode="&#xd0;" horiz-adv-x="748" 
d="M95 729h300q162 0 236.5 -91t74.5 -274t-75.5 -273.5t-235.5 -90.5h-300v332h-88v89h88v308zM592 303v122q0 109 -48.5 158t-150.5 49h-189v-211h128v-89h-128v-235h189q104 0 151.5 49t47.5 157z" />
    <glyph glyph-name="Ntilde" unicode="&#xd1;" horiz-adv-x="791" 
d="M477 795q-26 0 -68 17q-39 18 -59 18q-30 0 -53 -35l-44 31q36 78 100 78q27 -2 66 -19q42 -17 61 -17q35 0 56 36l44 -32q-33 -77 -103 -77zM204 0h-109v729h132l363 -586h5l-7 218v368h108v-729h-132l-362 586h-5l7 -210v-376z" />
    <glyph glyph-name="Ograve" unicode="&#xd2;" 
d="M419 850l-33 -50l-193 116l44 68zM42 363q0 178 91 276q91 99 254 99q161 0 253 -99q91 -98 91 -276q0 -177 -91 -275q-90 -98 -253 -98q-162 0 -254 98q-91 98 -91 275zM157 416v-103q0 -106 62 -166t168 -60q108 0 169 61t61 165v103q0 105 -62 165t-168 60
q-108 0 -169 -60.5t-61 -164.5z" />
    <glyph glyph-name="Oacute" unicode="&#xd3;" 
d="M578 916l-193 -116l-33 50l183 134zM42 363q0 178 91 276q91 99 254 99q161 0 253 -99q91 -98 91 -276q0 -177 -91 -275q-90 -98 -253 -98q-162 0 -254 98q-91 98 -91 275zM157 416v-103q0 -106 62 -166t168 -60q108 0 169 61t61 165v103q0 105 -62 165t-168 60
q-108 0 -169 -60.5t-61 -164.5z" />
    <glyph glyph-name="Ocircumflex" unicode="&#xd4;" 
d="M280 791l-50 49l124 127h66l123 -127l-51 -49l-106 112zM42 363q0 178 91 276q91 99 254 99q161 0 253 -99q91 -98 91 -276q0 -177 -91 -275q-90 -98 -253 -98q-162 0 -254 98q-91 98 -91 275zM157 416v-103q0 -106 62 -166t168 -60q108 0 169 61t61 165v103
q0 105 -62 165t-168 60q-108 0 -169 -60.5t-61 -164.5z" />
    <glyph glyph-name="Otilde" unicode="&#xd5;" 
d="M447 795q-28 0 -68 17q-39 18 -59 18q-30 0 -53 -35l-44 31q36 78 100 78q27 -2 66 -19q42 -17 61 -17q35 0 56 36l44 -32q-33 -77 -103 -77zM42 363q0 178 91 276q91 99 254 99q161 0 253 -99q91 -98 91 -276q0 -177 -91 -275q-90 -98 -253 -98q-162 0 -254 98
q-91 98 -91 275zM157 416v-103q0 -106 62 -166t168 -60q108 0 169 61t61 165v103q0 105 -62 165t-168 60q-108 0 -169 -60.5t-61 -164.5z" />
    <glyph glyph-name="Odieresis" unicode="&#xd6;" 
d="M332 811h-87v121h87v-121zM528 811h-88v121h88v-121zM42 363q0 178 91 276q91 99 254 99q161 0 253 -99q91 -98 91 -276q0 -177 -91 -275q-90 -98 -253 -98q-162 0 -254 98q-91 98 -91 275zM157 416v-103q0 -106 62 -166t168 -60q108 0 169 61t61 165v103q0 105 -62 165
t-168 60q-108 0 -169 -60.5t-61 -164.5z" />
    <glyph glyph-name="multiply" unicode="&#xd7;" horiz-adv-x="717" 
d="M151 18l-65 68l207 214l-207 215l65 67l203 -211h10l202 211l65 -67l-207 -215l207 -214l-65 -68l-202 211h-10z" />
    <glyph glyph-name="Oslash" unicode="&#xd8;" 
d="M717 661l51 -70l-68 -50q31 -77 31 -178q0 -177 -91 -275q-90 -98 -253 -98q-182 0 -274 123l-62 -45l-45 71l66 49q-30 75 -30 175q0 178 91 276q91 99 254 99q180 0 271 -121zM157 416v-103q0 -32 6 -59l413 303q-62 84 -189 84q-108 0 -169 -60.5t-61 -164.5zM617 313
v103q0 33 -6 60l-415 -302q62 -87 191 -87q108 0 169 61t61 165z" />
    <glyph glyph-name="Ugrave" unicode="&#xd9;" 
d="M420 850l-33 -50l-193 116l44 68zM89 272v457h108v-448q0 -90 51 -140.5t139 -50.5t139 50.5t51 140.5v448h108v-457q0 -130 -81 -206q-79 -76 -218 -76q-143 0 -220 76q-77 77 -77 206z" />
    <glyph glyph-name="Uacute" unicode="&#xda;" 
d="M579 916l-193 -116l-33 50l183 134zM89 272v457h108v-448q0 -90 51 -140.5t139 -50.5t139 50.5t51 140.5v448h108v-457q0 -130 -81 -206q-79 -76 -218 -76q-143 0 -220 76q-77 77 -77 206z" />
    <glyph glyph-name="Ucircumflex" unicode="&#xdb;" 
d="M280 791l-50 49l124 127h66l123 -127l-51 -49l-106 112zM89 272v457h108v-448q0 -90 51 -140.5t139 -50.5t139 50.5t51 140.5v448h108v-457q0 -130 -81 -206q-79 -76 -218 -76q-143 0 -220 76q-77 77 -77 206z" />
    <glyph glyph-name="Udieresis" unicode="&#xdc;" 
d="M332 811h-87v121h87v-121zM528 811h-88v121h88v-121zM89 272v457h108v-448q0 -90 51 -140.5t139 -50.5t139 50.5t51 140.5v448h108v-457q0 -130 -81 -206q-79 -76 -218 -76q-143 0 -220 76q-77 77 -77 206z" />
    <glyph glyph-name="Yacute" unicode="&#xdd;" horiz-adv-x="663" 
d="M524 916l-193 -116l-33 50l183 134zM277 291l-273 438h131l104 -179l89 -158h7l89 158l104 179h130l-272 -438v-291h-109v291z" />
    <glyph glyph-name="Thorn" unicode="&#xde;" horiz-adv-x="679" 
d="M204 600h214q114 0 173.5 -61.5t59.5 -173.5t-60.5 -173.5t-172.5 -61.5h-214v-130h-109v730h109v-130zM536 331v69q0 48 -31 74t-86 26h-215v-277h206q59 0 92.5 29.5t33.5 78.5z" />
    <glyph glyph-name="germandbls" unicode="&#xdf;" horiz-adv-x="593" 
d="M84 419h-72v87h72v31q0 94 57.5 148t153.5 54q93 0 152 -50t59 -130q0 -115 -101 -153v-8q75 -11 112 -66q38 -55 38 -125q0 -96 -62.5 -151.5t-174.5 -55.5h-67v89h66q57 0 91.5 28t34.5 75v54q0 50 -34.5 78t-94.5 28h-33v87h19q39 0 66.5 19.5t27.5 49.5v66
q0 31 -29 50t-72 19q-50 0 -77 -29.5t-27 -82.5v-531h-105v419z" />
    <glyph glyph-name="agrave" unicode="&#xe0;" horiz-adv-x="582" 
d="M305 650l-33 -50l-193 116l44 68zM39 151q0 77 50.5 120t140.5 43h153v38q0 102 -108 102q-53 0 -82 -23.5t-31 -66.5h-102q5 82 63 127t157 45q102 0 151 -49q55 -53 55 -137v-275h74v-75h-95q-71 0 -75 60l-1 25h-7q-17 -43 -64.5 -69t-110.5 -26q-78 0 -123 44
t-45 117zM144 173v-28q0 -35 24.5 -54t67.5 -19q68 0 107.5 40t39.5 106v25h-140q-47 0 -73 -18.5t-26 -51.5z" />
    <glyph glyph-name="aacute" unicode="&#xe1;" horiz-adv-x="582" 
d="M463 716l-193 -116l-33 50l183 134zM39 151q0 77 50.5 120t140.5 43h153v38q0 102 -108 102q-53 0 -82 -23.5t-31 -66.5h-102q5 82 63 127t157 45q102 0 151 -49q55 -53 55 -137v-275h74v-75h-95q-71 0 -75 60l-1 25h-7q-17 -43 -64.5 -69t-110.5 -26q-78 0 -123 44
t-45 117zM144 173v-28q0 -35 24.5 -54t67.5 -19q68 0 107.5 40t39.5 106v25h-140q-47 0 -73 -18.5t-26 -51.5z" />
    <glyph glyph-name="acircumflex" unicode="&#xe2;" horiz-adv-x="582" 
d="M165 591l-50 49l124 127h66l123 -127l-51 -49l-106 112zM39 151q0 77 50.5 120t140.5 43h153v38q0 102 -108 102q-53 0 -82 -23.5t-31 -66.5h-102q5 82 63 127t157 45q102 0 151 -49q55 -53 55 -137v-275h74v-75h-95q-71 0 -75 60l-1 25h-7q-17 -43 -64.5 -69t-110.5 -26
q-78 0 -123 44t-45 117zM144 173v-28q0 -35 24.5 -54t67.5 -19q68 0 107.5 40t39.5 106v25h-140q-47 0 -73 -18.5t-26 -51.5z" />
    <glyph glyph-name="atilde" unicode="&#xe3;" horiz-adv-x="582" 
d="M332 594q-26 0 -68 17q-40 18 -59 18q-30 0 -53 -35l-44 31q36 78 100 78q27 -2 66 -19q42 -17 61 -17q35 0 56 36l44 -32q-33 -77 -103 -77zM39 151q0 77 50.5 120t140.5 43h153v38q0 102 -108 102q-53 0 -82 -23.5t-31 -66.5h-102q5 82 63 127t157 45q102 0 151 -49
q55 -53 55 -137v-275h74v-75h-95q-71 0 -75 60l-1 25h-7q-17 -43 -64.5 -69t-110.5 -26q-78 0 -123 44t-45 117zM144 173v-28q0 -35 24.5 -54t67.5 -19q68 0 107.5 40t39.5 106v25h-140q-47 0 -73 -18.5t-26 -51.5z" />
    <glyph glyph-name="adieresis" unicode="&#xe4;" horiz-adv-x="582" 
d="M217 611h-87v121h87v-121zM413 611h-88v121h88v-121zM39 151q0 77 50.5 120t140.5 43h153v38q0 102 -108 102q-53 0 -82 -23.5t-31 -66.5h-102q5 82 63 127t157 45q102 0 151 -49q55 -53 55 -137v-275h74v-75h-95q-71 0 -75 60l-1 25h-7q-17 -43 -64.5 -69t-110.5 -26
q-78 0 -123 44t-45 117zM144 173v-28q0 -35 24.5 -54t67.5 -19q68 0 107.5 40t39.5 106v25h-140q-47 0 -73 -18.5t-26 -51.5z" />
    <glyph glyph-name="aring" unicode="&#xe5;" horiz-adv-x="582" 
d="M486 350v-275h74v-75h-95q-71 0 -75 60l-1 25h-7q-17 -43 -64.5 -69t-110.5 -26q-78 0 -123 44t-45 117q0 77 50.5 120t140.5 43h153v38q0 102 -108 102q-53 0 -82 -23.5t-31 -66.5h-102q4 63 40 104.5t99 57.5q-42 32 -42 90q0 51 32 81.5t83 30.5t83 -30.5t32 -81.5
q0 -54 -39 -87q55 -13 88 -48.5t41.5 -67t8.5 -63.5zM218 616q0 -25 15 -41t39 -16t38.5 16t14.5 41q0 26 -14.5 42t-38.5 16t-39 -16t-15 -42zM383 218v25h-140q-47 0 -73 -18.5t-26 -51.5v-28q0 -35 24.5 -54t67.5 -19q68 0 107.5 40t39.5 106z" />
    <glyph glyph-name="ae" unicode="&#xe6;" horiz-adv-x="922" 
d="M218 -10q-85 0 -132 42.5t-47 117.5q0 78 52 121t143 43h152v31q0 51 -31.5 80t-84.5 29q-50 0 -80 -22.5t-33 -61.5h-103q7 75 67 120.5t151 45.5q63 0 110.5 -24t68.5 -65q29 42 80 65.5t112 23.5q105 0 170 -66q64 -65 64 -174q0 -18 -4 -57h-378q-2 -75 38.5 -118.5
t114.5 -43.5q51 0 88 22t49 59h97q-16 -77 -80 -122.5t-155 -45.5q-77 0 -133.5 33.5t-81.5 93.5q-24 -59 -81.5 -93t-132.5 -34zM495 317h280q-1 61 -38.5 97.5t-98.5 36.5q-62 0 -101 -36.5t-42 -97.5zM235 72q69 0 110 41.5t41 112.5v16h-145q-45 0 -71 -18.5t-26 -49.5
v-30q0 -34 24.5 -53t66.5 -19z" />
    <glyph glyph-name="ccedilla" unicode="&#xe7;" horiz-adv-x="566" 
d="M427 183h102q-11 -85 -69.5 -136.5t-149.5 -56.5l-24 -39q33 0 56.5 -19t23.5 -52q0 -40 -32 -63t-71 -21.5t-72 15.5v56q26 -25 67 -20t41 37q0 22 -20.5 30t-54.5 -3v27l32 54q-102 11 -158.5 83t-56.5 187q0 129 69 201q70 73 185 73q94 0 157 -51t76 -136h-103
q-24 100 -134 100q-66 0 -105.5 -41.5t-39.5 -107.5v-82q0 -65 39.5 -103.5t105.5 -38.5q55 0 91 28.5t45 78.5z" />
    <glyph glyph-name="egrave" unicode="&#xe8;" horiz-adv-x="571" 
d="M323 650l-33 -50l-193 116l44 68zM41 264q0 128 67 200t182 72q109 0 173 -64q65 -65 65 -175q0 -26 -4 -57h-377v-29q0 -62 40 -100.5t105 -38.5q51 0 87.5 24t48.5 64h102q-16 -77 -81 -123.5t-158 -46.5q-117 0 -183.5 73.5t-66.5 200.5zM147 326v-12h277v17
q0 55 -37 89t-98 34q-63 0 -102.5 -35.5t-39.5 -92.5z" />
    <glyph glyph-name="eacute" unicode="&#xe9;" horiz-adv-x="571" 
d="M482 716l-193 -116l-33 50l183 134zM41 264q0 128 67 200t182 72q109 0 173 -64q65 -65 65 -175q0 -26 -4 -57h-377v-29q0 -62 40 -100.5t105 -38.5q51 0 87.5 24t48.5 64h102q-16 -77 -81 -123.5t-158 -46.5q-117 0 -183.5 73.5t-66.5 200.5zM147 326v-12h277v17
q0 55 -37 89t-98 34q-63 0 -102.5 -35.5t-39.5 -92.5z" />
    <glyph glyph-name="ecircumflex" unicode="&#xea;" horiz-adv-x="571" 
d="M184 591l-50 49l124 127h66l123 -127l-51 -49l-106 112zM41 264q0 128 67 200t182 72q109 0 173 -64q65 -65 65 -175q0 -26 -4 -57h-377v-29q0 -62 40 -100.5t105 -38.5q51 0 87.5 24t48.5 64h102q-16 -77 -81 -123.5t-158 -46.5q-117 0 -183.5 73.5t-66.5 200.5z
M147 326v-12h277v17q0 55 -37 89t-98 34q-63 0 -102.5 -35.5t-39.5 -92.5z" />
    <glyph glyph-name="edieresis" unicode="&#xeb;" horiz-adv-x="571" 
d="M236 611h-87v121h87v-121zM432 611h-88v121h88v-121zM41 264q0 128 67 200t182 72q109 0 173 -64q65 -65 65 -175q0 -26 -4 -57h-377v-29q0 -62 40 -100.5t105 -38.5q51 0 87.5 24t48.5 64h102q-16 -77 -81 -123.5t-158 -46.5q-117 0 -183.5 73.5t-66.5 200.5zM147 326
v-12h277v17q0 55 -37 89t-98 34q-63 0 -102.5 -35.5t-39.5 -92.5z" />
    <glyph glyph-name="igrave" unicode="&#xec;" horiz-adv-x="264" 
d="M165 654l-33 -50l-193 116l44 68zM183 0h-102v526h102v-526z" />
    <glyph glyph-name="iacute" unicode="&#xed;" horiz-adv-x="264" 
d="M324 720l-193 -116l-33 50l183 134zM183 0h-102v526h102v-526z" />
    <glyph glyph-name="icircumflex" unicode="&#xee;" horiz-adv-x="264" 
d="M26 595l-50 49l124 127h66l123 -127l-51 -49l-106 112zM183 0h-102v526h102v-526z" />
    <glyph glyph-name="idieresis" unicode="&#xef;" horiz-adv-x="264" 
d="M78 614h-87v121h87v-121zM274 614h-88v121h88v-121zM183 0h-102v526h102v-526z" />
    <glyph glyph-name="eth" unicode="&#xf0;" horiz-adv-x="597" 
d="M41 241q0 109 66 177q66 67 173 67q40 0 67 -9l2 2l-42 43l-47 59l-125 -46v76l79 30l-84 114h129l57 -77l131 48v-76l-88 -31l90 -119q23 -32 37 -54q8 -12 31 -54q40 -70 40 -153q0 -110 -71 -179q-70 -69 -190 -69q-115 0 -186 68q-69 69 -69 183zM152 279v-71
q0 -60 40 -94t107 -34t106.5 34.5t39.5 93.5v71q0 59 -40 93.5t-106 34.5q-67 0 -107 -34.5t-40 -93.5z" />
    <glyph glyph-name="ntilde" unicode="&#xf1;" horiz-adv-x="623" 
d="M429 594q-28 0 -68 17q-39 18 -59 18q-30 0 -53 -35l-44 31q36 78 100 78q27 -2 66 -19q42 -17 61 -17q35 0 56 36l44 -32q-33 -77 -103 -77zM184 0h-103v526h90l14 -98h7q24 51 70.5 79.5t105.5 28.5q86 0 134 -57.5t48 -157.5v-321h-104v311q0 135 -117 135
q-66 0 -105.5 -47t-39.5 -123v-276z" />
    <glyph glyph-name="ograve" unicode="&#xf2;" horiz-adv-x="591" 
d="M329 650l-33 -50l-193 116l44 68zM41 263q0 127 69 200t186 73q114 0 184 -73q71 -73 71 -200q0 -125 -68 -199t-187 -74q-118 0 -187 73q-68 74 -68 200zM146 302v-82q0 -68 41.5 -106t108.5 -38t108 38.5t41 105.5v82q0 66 -41.5 106.5t-107.5 40.5q-67 0 -108.5 -40.5
t-41.5 -106.5z" />
    <glyph glyph-name="oacute" unicode="&#xf3;" horiz-adv-x="591" 
d="M487 716l-193 -116l-33 50l183 134zM41 263q0 127 69 200t186 73q114 0 184 -73q71 -73 71 -200q0 -125 -68 -199t-187 -74q-118 0 -187 73q-68 74 -68 200zM146 302v-82q0 -68 41.5 -106t108.5 -38t108 38.5t41 105.5v82q0 66 -41.5 106.5t-107.5 40.5
q-67 0 -108.5 -40.5t-41.5 -106.5z" />
    <glyph glyph-name="ocircumflex" unicode="&#xf4;" horiz-adv-x="591" 
d="M189 591l-50 49l124 127h66l123 -127l-51 -49l-106 112zM41 263q0 127 69 200t186 73q114 0 184 -73q71 -73 71 -200q0 -125 -68 -199t-187 -74q-118 0 -187 73q-68 74 -68 200zM146 302v-82q0 -68 41.5 -106t108.5 -38t108 38.5t41 105.5v82q0 66 -41.5 106.5
t-107.5 40.5q-67 0 -108.5 -40.5t-41.5 -106.5z" />
    <glyph glyph-name="otilde" unicode="&#xf5;" horiz-adv-x="591" 
d="M356 594q-26 0 -68 17q-40 18 -59 18q-30 0 -53 -35l-44 31q36 78 100 78q27 -2 66 -19q42 -17 61 -17q35 0 56 36l44 -32q-33 -77 -103 -77zM41 263q0 127 69 200t186 73q114 0 184 -73q71 -73 71 -200q0 -125 -68 -199t-187 -74q-118 0 -187 73q-68 74 -68 200z
M146 302v-82q0 -68 41.5 -106t108.5 -38t108 38.5t41 105.5v82q0 66 -41.5 106.5t-107.5 40.5q-67 0 -108.5 -40.5t-41.5 -106.5z" />
    <glyph glyph-name="odieresis" unicode="&#xf6;" horiz-adv-x="591" 
d="M241 611h-87v121h87v-121zM437 611h-88v121h88v-121zM41 263q0 127 69 200t186 73q114 0 184 -73q71 -73 71 -200q0 -125 -68 -199t-187 -74q-118 0 -187 73q-68 74 -68 200zM146 302v-82q0 -68 41.5 -106t108.5 -38t108 38.5t41 105.5v82q0 66 -41.5 106.5t-107.5 40.5
q-67 0 -108.5 -40.5t-41.5 -106.5z" />
    <glyph glyph-name="divide" unicode="&#xf7;" horiz-adv-x="662" 
d="M392 431h-127v130h127v-130zM576 247h-492v91h492v-91zM392 30h-127v129h127v-129z" />
    <glyph glyph-name="oslash" unicode="&#xf8;" horiz-adv-x="591" 
d="M543 490l41 -61l-55 -41q22 -54 22 -125q0 -125 -68 -199t-187 -74q-129 0 -196 85l-53 -39l-40 59l56 42q-22 56 -22 126q0 127 69 200t186 73q126 0 195 -84zM146 302v-82q0 -17 1 -22l268 198q-42 53 -119 53q-67 0 -108.5 -40.5t-41.5 -106.5zM445 220v82q0 2 -2 24
l-269 -197q41 -53 122 -53q67 0 108 38.5t41 105.5z" />
    <glyph glyph-name="ugrave" unicode="&#xf9;" horiz-adv-x="617" 
d="M339 654l-33 -50l-193 116l44 68zM433 526h103v-526h-89l-14 97h-8q-50 -107 -177 -107q-83 0 -129 53t-46 149v334h104v-319q0 -131 111 -131q66 0 105.5 48t39.5 126v276z" />
    <glyph glyph-name="uacute" unicode="&#xfa;" horiz-adv-x="617" 
d="M497 720l-193 -116l-33 50l183 134zM433 526h103v-526h-89l-14 97h-8q-50 -107 -177 -107q-83 0 -129 53t-46 149v334h104v-319q0 -131 111 -131q66 0 105.5 48t39.5 126v276z" />
    <glyph glyph-name="ucircumflex" unicode="&#xfb;" horiz-adv-x="617" 
d="M199 595l-50 49l124 127h66l123 -127l-51 -49l-106 112zM433 526h103v-526h-89l-14 97h-8q-50 -107 -177 -107q-83 0 -129 53t-46 149v334h104v-319q0 -131 111 -131q66 0 105.5 48t39.5 126v276z" />
    <glyph glyph-name="udieresis" unicode="&#xfc;" horiz-adv-x="617" 
d="M251 614h-87v121h87v-121zM447 614h-88v121h88v-121zM433 526h103v-526h-89l-14 97h-8q-50 -107 -177 -107q-83 0 -129 53t-46 149v334h104v-319q0 -131 111 -131q66 0 105.5 48t39.5 126v276z" />
    <glyph glyph-name="yacute" unicode="&#xfd;" horiz-adv-x="532" 
d="M458 720l-193 -116l-33 50l183 134zM214 65l-217 461h112l72 -169l80 -192h6l82 192l73 169h111l-217 -462v-140q0 -34 -13 -58q-17 -33 -75 -33h-135v84h121v148z" />
    <glyph glyph-name="thorn" unicode="&#xfe;" horiz-adv-x="633" 
d="M184 -167h-103v903h103v-303h7q25 49 73.5 76t111.5 27q102 0 159.5 -71t57.5 -199t-57.5 -199t-159.5 -71q-134 0 -185 103h-7v-266zM343 81q66 0 104.5 36t38.5 99v100q0 62 -38 98t-105 36q-72 0 -115.5 -42t-43.5 -112v-60q0 -70 44 -112.5t115 -42.5z" />
    <glyph glyph-name="ydieresis" unicode="&#xff;" horiz-adv-x="532" 
d="M212 615h-87v121h87v-121zM408 615h-88v121h88v-121zM214 65l-217 461h112l72 -169l80 -192h6l82 192l73 169h111l-217 -462v-140q0 -34 -13 -58q-17 -33 -75 -33h-135v84h121v148z" />
    <glyph glyph-name="Amacron" unicode="&#x100;" horiz-adv-x="677" 
d="M175 884h322v-76h-322v76zM673 0h-118l-58 160h-323l-58 -160h-113l270 729h126zM248 362l-42 -114h259l-41 114l-84 255h-5z" />
    <glyph glyph-name="amacron" unicode="&#x101;" horiz-adv-x="582" 
d="M432 608h-322v76h322v-76zM39 151q0 77 50.5 120t140.5 43h153v38q0 102 -108 102q-53 0 -82 -23.5t-31 -66.5h-102q5 82 63 127t157 45q102 0 151 -49q55 -53 55 -137v-275h74v-75h-95q-71 0 -75 60l-1 25h-7q-17 -43 -64.5 -69t-110.5 -26q-78 0 -123 44t-45 117z
M144 173v-28q0 -35 24.5 -54t67.5 -19q68 0 107.5 40t39.5 106v25h-140q-47 0 -73 -18.5t-26 -51.5z" />
    <glyph glyph-name="Abreve" unicode="&#x102;" horiz-adv-x="677" 
d="M187 946h68q0 -40 22 -63t58 -23t58 23t22 63h69q0 -66 -40.5 -107t-108.5 -41t-108 40.5t-40 107.5zM673 0h-118l-58 160h-323l-58 -160h-113l270 729h126zM248 362l-42 -114h259l-41 114l-84 255h-5z" />
    <glyph glyph-name="abreve" unicode="&#x103;" horiz-adv-x="582" 
d="M351 745h69q0 -66 -40.5 -107t-108.5 -41t-108 40.5t-40 107.5h68q0 -39 22 -62.5t58 -23.5t58 23.5t22 62.5zM39 151q0 77 50.5 120t140.5 43h153v38q0 102 -108 102q-53 0 -82 -23.5t-31 -66.5h-102q5 82 63 127t157 45q102 0 151 -49q55 -53 55 -137v-275h74v-75h-95
q-71 0 -75 60l-1 25h-7q-17 -43 -64.5 -69t-110.5 -26q-78 0 -123 44t-45 117zM144 173v-28q0 -35 24.5 -54t67.5 -19q68 0 107.5 40t39.5 106v25h-140q-47 0 -73 -18.5t-26 -51.5z" />
    <glyph glyph-name="Aogonek" unicode="&#x104;" horiz-adv-x="677" 
d="M651 -130q25 0 53 12v-57q-32 -15 -73 -13q-46 2 -74.5 27.5t-28.5 66.5q0 56 50 94h-23l-58 160h-323l-58 -160h-113l270 729h126l273 -726l2 -3q-82 -21 -82 -82q0 -48 59 -48zM248 362l-42 -114h259l-41 114l-84 255h-5z" />
    <glyph glyph-name="aogonek" unicode="&#x105;" horiz-adv-x="582" 
d="M532 -130q24 0 53 12v-57q-32 -15 -73 -13q-46 2 -74.5 27.5t-28.5 66.5q0 56 50 94q-35 1 -51 15.5t-18 44.5l-1 25h-7q-17 -43 -64.5 -69t-110.5 -26q-78 0 -123 44t-45 117q0 77 50.5 120t140.5 43h153v38q0 102 -108 102q-53 0 -82 -23.5t-31 -66.5h-102q5 82 63 127
t157 45q102 0 151 -49q55 -53 55 -137v-275h74v-75h-5q-82 -21 -82 -82q0 -48 59 -48zM383 218v25h-140q-47 0 -73 -18.5t-26 -51.5v-28q0 -35 24.5 -54t67.5 -19q68 0 107.5 40t39.5 106z" />
    <glyph glyph-name="Cacute" unicode="&#x106;" horiz-adv-x="752" 
d="M570 916l-193 -116l-33 50l183 134zM377 -10q-158 0 -247 98q-88 98 -88 275t90 276q90 100 253 100q135 0 221 -71q87 -71 100 -187h-113q-15 74 -70 117t-141 43q-102 0 -164 -60q-61 -58 -61 -160v-119q0 -95 61 -155q62 -60 161 -60q82 0 139.5 43.5t74.5 117.5h113
q-18 -119 -106 -189q-88 -69 -223 -69z" />
    <glyph glyph-name="cacute" unicode="&#x107;" horiz-adv-x="566" 
d="M487 716l-193 -116l-33 50l183 134zM427 183h102q-12 -90 -75.5 -141.5t-161.5 -51.5q-118 0 -185 73q-66 73 -66 199q0 129 69 201q70 73 185 73q94 0 157 -51t76 -136h-103q-24 100 -134 100q-66 0 -105.5 -41.5t-39.5 -107.5v-82q0 -65 39.5 -103.5t105.5 -38.5
q55 0 91 28.5t45 78.5z" />
    <glyph glyph-name="Cdotaccent" unicode="&#x10a;" horiz-adv-x="752" 
d="M422 811h-88v121h88v-121zM377 -10q-158 0 -247 98q-88 98 -88 275t90 276q90 100 253 100q135 0 221 -71q87 -71 100 -187h-113q-15 74 -70 117t-141 43q-102 0 -164 -60q-61 -58 -61 -160v-119q0 -95 61 -155q62 -60 161 -60q82 0 139.5 43.5t74.5 117.5h113
q-18 -119 -106 -189q-88 -69 -223 -69z" />
    <glyph glyph-name="cdotaccent" unicode="&#x10b;" horiz-adv-x="566" 
d="M339 611h-88v121h88v-121zM427 183h102q-12 -90 -75.5 -141.5t-161.5 -51.5q-118 0 -185 73q-66 73 -66 199q0 129 69 201q70 73 185 73q94 0 157 -51t76 -136h-103q-24 100 -134 100q-66 0 -105.5 -41.5t-39.5 -107.5v-82q0 -65 39.5 -103.5t105.5 -38.5q55 0 91 28.5
t45 78.5z" />
    <glyph glyph-name="Ccaron" unicode="&#x10c;" horiz-adv-x="752" 
d="M345 778l-124 129l52 48l104 -113l106 113l51 -48l-123 -129h-66zM377 -10q-158 0 -247 98q-88 98 -88 275t90 276q90 100 253 100q135 0 221 -71q87 -71 100 -187h-113q-15 74 -70 117t-141 43q-102 0 -164 -60q-61 -58 -61 -160v-119q0 -95 61 -155q62 -60 161 -60
q82 0 139.5 43.5t74.5 117.5h113q-18 -119 -106 -189q-88 -69 -223 -69z" />
    <glyph glyph-name="ccaron" unicode="&#x10d;" horiz-adv-x="566" 
d="M262 578l-124 129l52 48l104 -113l106 113l51 -48l-123 -129h-66zM427 183h102q-12 -90 -75.5 -141.5t-161.5 -51.5q-118 0 -185 73q-66 73 -66 199q0 129 69 201q70 73 185 73q94 0 157 -51t76 -136h-103q-24 100 -134 100q-66 0 -105.5 -41.5t-39.5 -107.5v-82
q0 -65 39.5 -103.5t105.5 -38.5q55 0 91 28.5t45 78.5z" />
    <glyph glyph-name="Dcaron" unicode="&#x10e;" horiz-adv-x="748" 
d="M337 778l-124 129l52 48l104 -113l106 113l51 -48l-123 -129h-66zM395 0h-300v729h300q162 0 236.5 -91t74.5 -274t-75.5 -273.5t-235.5 -90.5zM204 632v-535h189q104 0 151.5 49t47.5 157v122q0 109 -48.5 158t-150.5 49h-189z" />
    <glyph glyph-name="dcaron" unicode="&#x10f;" horiz-adv-x="633" 
d="M257 -10q-102 0 -159 71t-57 198q0 129 57 199.5t159 70.5q135 0 185 -102h7v309h104v-736h-92l-12 93h-7q-25 -49 -73.5 -76t-111.5 -27zM623 521v39q69 0 69 61v4h-59v111h112v-112q0 -50 -32.5 -76.5t-89.5 -26.5zM290 75q72 0 115.5 42.5t43.5 112.5v59
q0 70 -43.5 112.5t-115.5 42.5q-66 0 -104.5 -36t-38.5 -99v-99q0 -63 37.5 -99t105.5 -36z" />
    <glyph glyph-name="Dcroat" unicode="&#x110;" horiz-adv-x="748" 
d="M95 729h300q162 0 236.5 -91t74.5 -274t-75.5 -273.5t-235.5 -90.5h-300v332h-88v89h88v308zM592 303v122q0 109 -48.5 158t-150.5 49h-189v-211h128v-89h-128v-235h189q104 0 151.5 49t47.5 157z" />
    <glyph glyph-name="dslash" unicode="&#x111;" horiz-adv-x="633" 
d="M553 646h103v-76h-103v-570h-92l-12 93h-7q-25 -49 -73.5 -76t-111.5 -27q-102 0 -159 71t-57 198q0 129 57 199.5t159 70.5q135 0 185 -102h7v143h-141v76h141v90h104v-90zM449 230v59q0 70 -43.5 112.5t-115.5 42.5q-66 0 -104.5 -36t-38.5 -99v-99q0 -63 37.5 -99
t105.5 -36q72 0 115.5 42.5t43.5 112.5z" />
    <glyph glyph-name="Emacron" unicode="&#x112;" horiz-adv-x="644" 
d="M493 808h-322v76h322v-76zM587 0h-492v729h492v-97h-383v-210h335v-92h-335v-233h383v-97z" />
    <glyph glyph-name="emacron" unicode="&#x113;" horiz-adv-x="571" 
d="M451 608h-322v76h322v-76zM41 264q0 128 67 200t182 72q109 0 173 -64q65 -65 65 -175q0 -26 -4 -57h-377v-29q0 -62 40 -100.5t105 -38.5q51 0 87.5 24t48.5 64h102q-16 -77 -81 -123.5t-158 -46.5q-117 0 -183.5 73.5t-66.5 200.5zM147 326v-12h277v17q0 55 -37 89
t-98 34q-63 0 -102.5 -35.5t-39.5 -92.5z" />
    <glyph glyph-name="Edotaccent" unicode="&#x116;" horiz-adv-x="644" 
d="M376 811h-88v121h88v-121zM587 0h-492v729h492v-97h-383v-210h335v-92h-335v-233h383v-97z" />
    <glyph glyph-name="edotaccent" unicode="&#x117;" horiz-adv-x="571" 
d="M334 611h-88v121h88v-121zM41 264q0 128 67 200t182 72q109 0 173 -64q65 -65 65 -175q0 -26 -4 -57h-377v-29q0 -62 40 -100.5t105 -38.5q51 0 87.5 24t48.5 64h102q-16 -77 -81 -123.5t-158 -46.5q-117 0 -183.5 73.5t-66.5 200.5zM147 326v-12h277v17q0 55 -37 89
t-98 34q-63 0 -102.5 -35.5t-39.5 -92.5z" />
    <glyph glyph-name="Eogonek" unicode="&#x118;" horiz-adv-x="644" 
d="M565 -130q25 0 53 12v-57q-32 -15 -73 -13q-46 2 -74.5 27.5t-28.5 66.5q0 56 50 94h-397v729h492v-97h-383v-210h335v-92h-335v-233h383v-96l1 -1q-82 -21 -82 -82q0 -48 59 -48z" />
    <glyph glyph-name="eogonek" unicode="&#x119;" horiz-adv-x="571" 
d="M428 160h102q-14 -68 -67 -112.5t-130 -54.5l2 -3q-82 -21 -82 -82q0 -48 59 -48q24 0 53 12v-57q-32 -15 -73 -13q-46 2 -74.5 27.5t-28.5 66.5q0 60 55 97q-96 15 -149.5 86.5t-53.5 184.5q0 128 67 200t182 72q109 0 173 -64q65 -65 65 -175q0 -26 -4 -57h-377v-29
q0 -62 40 -100.5t105 -38.5q51 0 87.5 24t48.5 64zM147 326v-12h277v17q0 55 -37 89t-98 34q-63 0 -102.5 -35.5t-39.5 -92.5z" />
    <glyph glyph-name="Ecaron" unicode="&#x11a;" horiz-adv-x="644" 
d="M299 778l-124 129l52 48l104 -113l106 113l51 -48l-123 -129h-66zM587 0h-492v729h492v-97h-383v-210h335v-92h-335v-233h383v-97z" />
    <glyph glyph-name="ecaron" unicode="&#x11b;" horiz-adv-x="571" 
d="M257 578l-124 129l52 48l104 -113l106 113l51 -48l-123 -129h-66zM41 264q0 128 67 200t182 72q109 0 173 -64q65 -65 65 -175q0 -26 -4 -57h-377v-29q0 -62 40 -100.5t105 -38.5q51 0 87.5 24t48.5 64h102q-16 -77 -81 -123.5t-158 -46.5q-117 0 -183.5 73.5
t-66.5 200.5zM147 326v-12h277v17q0 55 -37 89t-98 34q-63 0 -102.5 -35.5t-39.5 -92.5z" />
    <glyph glyph-name="Gbreve" unicode="&#x11e;" horiz-adv-x="797" 
d="M469 946h69q0 -66 -40.5 -107t-108.5 -41t-108 40.5t-40 107.5h68q0 -40 22 -63t58 -23t58 23t22 63zM42 358q0 182 94 280q94 100 250 100q124 0 210 -63q86 -62 103 -163h-113q-14 59 -67.5 94t-129.5 35q-103 0 -168 -62q-64 -61 -64 -163v-114q0 -97 61 -158t161 -61
q95 0 157 59q61 58 63 157h-246v91h367v-390h-89l-10 120h-7q-36 -63 -102 -96.5t-150 -33.5q-150 0 -235 99q-85 98 -85 269z" />
    <glyph glyph-name="gbreve" unicode="&#x11f;" horiz-adv-x="538" 
d="M87 745h68q0 -39 22 -62.5t58 -23.5t58 23.5t22 62.5h69q0 -66 -40.5 -106.5t-108.5 -40.5t-108 40.5t-40 106.5zM222 109h133q78 0 121.5 -36.5t43.5 -99.5q0 -78 -67.5 -117t-192.5 -39q-112 0 -170 33t-58 92q0 78 80 104v7q-24 8 -38.5 28.5t-14.5 45.5q0 31 20 55
t52 34v7q-78 45 -78 139q0 78 56 126q55 48 145 48q49 0 91 -15v16q0 71 81 71h85v-84h-99v-43q50 -47 50 -122q0 -78 -55 -124q-56 -47 -143 -47q-34 0 -71 8q-18 -4 -28.5 -16.5t-10.5 -28.5q0 -42 68 -42zM155 378v-34q0 -37 28 -60t75 -23q46 0 74.5 23t28.5 60v34
q0 38 -28.5 61t-74.5 23q-47 0 -75 -23t-28 -61zM267 -107q150 0 150 75q0 57 -73 57h-136q-79 0 -79 -62q0 -37 33 -53.5t105 -16.5z" />
    <glyph glyph-name="Gdotaccent" unicode="&#x120;" horiz-adv-x="797" 
d="M434 811h-88v121h88v-121zM42 358q0 182 94 280q94 100 250 100q124 0 210 -63q86 -62 103 -163h-113q-14 59 -67.5 94t-129.5 35q-103 0 -168 -62q-64 -61 -64 -163v-114q0 -97 61 -158t161 -61q95 0 157 59q61 58 63 157h-246v91h367v-390h-89l-10 120h-7
q-36 -63 -102 -96.5t-150 -33.5q-150 0 -235 99q-85 98 -85 269z" />
    <glyph glyph-name="gdotaccent" unicode="&#x121;" horiz-adv-x="538" 
d="M210 732h88v-121h-88v121zM222 109h133q78 0 121.5 -36.5t43.5 -99.5q0 -78 -67.5 -117t-192.5 -39q-112 0 -170 33t-58 92q0 78 80 104v7q-24 8 -38.5 28.5t-14.5 45.5q0 31 20 55t52 34v7q-78 45 -78 139q0 78 56 126q55 48 145 48q49 0 91 -15v16q0 71 81 71h85v-84
h-99v-43q50 -47 50 -122q0 -78 -55 -124q-56 -47 -143 -47q-34 0 -71 8q-18 -4 -28.5 -16.5t-10.5 -28.5q0 -42 68 -42zM155 378v-34q0 -37 28 -60t75 -23q46 0 74.5 23t28.5 60v34q0 38 -28.5 61t-74.5 23q-47 0 -75 -23t-28 -61zM267 -107q150 0 150 75q0 57 -73 57h-136
q-79 0 -79 -62q0 -37 33 -53.5t105 -16.5z" />
    <glyph glyph-name="uni0122" unicode="&#x122;" horiz-adv-x="797" 
d="M42 358q0 182 94 280q94 100 250 100q124 0 210 -63q86 -62 103 -163h-113q-14 59 -67.5 94t-129.5 35q-103 0 -168 -62q-64 -61 -64 -163v-114q0 -97 61 -158t161 -61q95 0 157 59q61 58 63 157h-246v91h367v-390h-89l-10 120h-7q-36 -63 -102 -96.5t-150 -33.5
q-150 0 -235 99q-85 98 -85 269zM344 -239v32q20 0 32 13t12 36v5h-44v98h91v-87q0 -47 -24 -72t-67 -25z" />
    <glyph glyph-name="uni0123" unicode="&#x123;" horiz-adv-x="538" 
d="M255 708h43v-98h-90v83q0 48 24 74.5t66 26.5v-32q-20 0 -31.5 -13t-11.5 -35v-6zM222 109h133q78 0 121.5 -36.5t43.5 -99.5q0 -78 -67.5 -117t-192.5 -39q-112 0 -170 33t-58 92q0 78 80 104v7q-24 8 -38.5 28.5t-14.5 45.5q0 31 20 55t52 34v7q-78 45 -78 139
q0 78 56 126q55 48 145 48q49 0 91 -15v16q0 71 81 71h85v-84h-99v-43q50 -47 50 -122q0 -78 -55 -124q-56 -47 -143 -47q-34 0 -71 8q-18 -4 -28.5 -16.5t-10.5 -28.5q0 -42 68 -42zM155 378v-34q0 -37 28 -60t75 -23q46 0 74.5 23t28.5 60v34q0 38 -28.5 61t-74.5 23
q-47 0 -75 -23t-28 -61zM267 -107q150 0 150 75q0 57 -73 57h-136q-79 0 -79 -62q0 -37 33 -53.5t105 -16.5z" />
    <glyph glyph-name="Hbar" unicode="&#x126;" horiz-adv-x="803" 
d="M708 639h94v-83h-94v-556h-109v327h-395v-327h-109v556h-73v83h73v90h109v-90h395v90h109v-90zM204 418h395v138h-395v-138z" />
    <glyph glyph-name="hbar" unicode="&#x127;" horiz-adv-x="623" 
d="M367 536q86 0 134 -57t48 -157v-322h-104v312q0 137 -116 137q-66 0 -105.5 -46.5t-39.5 -123.5v-279h-103v570h-90v76h90v90h103v-90h154v-76h-154v-140h7q25 50 71 78t105 28z" />
    <glyph glyph-name="Imacron" unicode="&#x12a;" horiz-adv-x="299" 
d="M311 808h-322v76h322v-76zM204 729v-729h-109v729h109z" />
    <glyph glyph-name="imacron" unicode="&#x12b;" horiz-adv-x="264" 
d="M293 611h-322v76h322v-76zM183 0h-102v526h102v-526z" />
    <glyph glyph-name="Iogonek" unicode="&#x12e;" horiz-adv-x="299" 
d="M180 -130q24 0 53 12v-57q-32 -15 -73 -13q-46 2 -74.5 27.5t-28.5 66.5q0 56 50 94h-12v729h109v-729h-1q-82 -21 -82 -82q0 -48 59 -48z" />
    <glyph glyph-name="iogonek" unicode="&#x12f;" horiz-adv-x="264" 
d="M88 735h88v-121h-88v121zM153 -130q25 0 53 12v-57q-32 -15 -73 -13q-46 2 -74.5 27.5t-28.5 66.5q0 58 51 95v525h102v-526h-7q-82 -21 -82 -82q0 -48 59 -48z" />
    <glyph glyph-name="Idot" unicode="&#x130;" horiz-adv-x="299" 
d="M199 811h-99v121h99v-121zM204 729v-729h-109v729h109z" />
    <glyph glyph-name="dotlessi" unicode="&#x131;" horiz-adv-x="264" 
d="M183 0h-102v526h102v-526z" />
    <glyph glyph-name="Jcircumflex" unicode="&#x134;" horiz-adv-x="399" 
d="M222 967h66l123 -127l-51 -49l-106 112l-106 -112l-50 49zM202 97v632h107v-638q0 -91 -91 -91h-202v97h186z" />
    <glyph glyph-name="jcircumflex" unicode="&#x135;" horiz-adv-x="273" 
d="M109 764h66l123 -127l-51 -49l-106 112l-106 -112l-50 49zM90 -84v610h103l-1 -494v-108q0 -91 -91 -91h-124v83h113z" />
    <glyph glyph-name="uni0136" unicode="&#x136;" horiz-adv-x="685" 
d="M671 729l-265 -317l275 -412h-130l-217 325l-130 -156v-169h-109v729h109v-409l337 409h130zM358 -153h-44v98h91v-87q0 -47 -24 -72t-67 -25v32q20 0 32 13t12 36v5z" />
    <glyph glyph-name="uni0137" unicode="&#x137;" horiz-adv-x="568" 
d="M543 526l-202 -206l212 -320h-119l-164 248l-85 -87v-161h-104v736h104v-445l227 235h131zM294 -153h-44v98h91v-87q0 -47 -24 -72t-67 -25v32q20 0 32 13t12 36v5z" />
    <glyph glyph-name="Lacute" unicode="&#x139;" horiz-adv-x="572" 
d="M342 916l-193 -116l-33 50l183 134zM536 0h-441v729h109v-631h332v-98z" />
    <glyph glyph-name="lacute" unicode="&#x13a;" horiz-adv-x="264" 
d="M325 923l-193 -116l-33 50l183 134zM183 0h-102v736h102v-736z" />
    <glyph glyph-name="uni013B" unicode="&#x13b;" horiz-adv-x="572" 
d="M536 0h-441v729h109v-631h332v-98zM270 -239v32q20 0 32 13t12 36v5h-44v98h91v-87q0 -47 -24 -72t-67 -25z" />
    <glyph glyph-name="uni013C" unicode="&#x13c;" horiz-adv-x="264" 
d="M183 0h-102v736h102v-736zM86 -239v32q20 0 32 13t12 36v5h-44v98h91v-87q0 -47 -24 -72t-67 -25z" />
    <glyph glyph-name="Lcaron" unicode="&#x13d;" horiz-adv-x="572" 
d="M319 470v43q39 0 54.5 17.5t15.5 50.5v27h-60v125h114v-147q0 -56 -32.5 -86t-91.5 -30zM536 0h-441v729h109v-631h332v-98z" />
    <glyph glyph-name="lcaron" unicode="&#x13e;" horiz-adv-x="264" 
d="M100 785l-124 129l52 48l104 -113l106 113l51 -48l-123 -129h-66zM183 0h-102v736h102v-736z" />
    <glyph glyph-name="Ldot" unicode="&#x13f;" horiz-adv-x="572" 
d="M536 0h-441v729h109v-631h332v-98zM317 409q0 34 22 56t54 22q33 0 55.5 -22t22.5 -56q0 -33 -22.5 -54t-55.5 -21t-54.5 21t-21.5 54z" />
    <glyph glyph-name="ldot" unicode="&#x140;" horiz-adv-x="437" 
d="M183 0h-102v736h102v-736zM268 387q0 34 22 56t55 22t55 -22t22 -56q0 -32 -22 -53.5t-55 -21.5t-55 21.5t-22 53.5z" />
    <glyph glyph-name="Lslash" unicode="&#x141;" horiz-adv-x="573" 
d="M205 366v-268h332v-98h-440v328l-73 -26v95l73 26v306h108v-268l182 65v-95z" />
    <glyph glyph-name="lslash" unicode="&#x142;" horiz-adv-x="264" 
d="M183 501l67 25v-95l-67 -25v-406h-102v368l-67 -25v95l67 25v273h102v-235z" />
    <glyph glyph-name="Nacute" unicode="&#x143;" horiz-adv-x="791" 
d="M608 916l-193 -116l-33 50l183 134zM204 0h-109v729h132l363 -586h5l-7 218v368h108v-729h-132l-362 586h-5l7 -210v-376z" />
    <glyph glyph-name="nacute" unicode="&#x144;" horiz-adv-x="623" 
d="M560 716l-193 -116l-33 50l183 134zM184 0h-103v526h90l14 -98h7q24 51 70.5 79.5t105.5 28.5q86 0 134 -57.5t48 -157.5v-321h-104v311q0 135 -117 135q-66 0 -105.5 -47t-39.5 -123v-276z" />
    <glyph glyph-name="uni0145" unicode="&#x145;" horiz-adv-x="791" 
d="M204 0h-109v729h132l363 -586h5l-7 218v368h108v-729h-132l-362 586h-5l7 -210v-376zM336 -204v32q20 0 32 13t12 36v5h-44v98h91v-87q0 -47 -24 -72t-67 -25z" />
    <glyph glyph-name="uni0146" unicode="&#x146;" horiz-adv-x="623" 
d="M184 0h-103v526h90l14 -98h7q24 51 70.5 79.5t105.5 28.5q86 0 134 -57.5t48 -157.5v-321h-104v311q0 135 -117 135q-66 0 -105.5 -47t-39.5 -123v-276zM269 -239v32q20 0 32 13t12 36v5h-44v98h91v-87q0 -47 -24 -72t-67 -25z" />
    <glyph glyph-name="Ncaron" unicode="&#x147;" horiz-adv-x="791" 
d="M383 778l-124 129l52 48l104 -113l106 113l51 -48l-123 -129h-66zM204 0h-109v729h132l363 -586h5l-7 218v368h108v-729h-132l-362 586h-5l7 -210v-376z" />
    <glyph glyph-name="ncaron" unicode="&#x148;" horiz-adv-x="623" 
d="M335 578l-124 129l52 48l104 -113l106 113l51 -48l-123 -129h-66zM184 0h-103v526h90l14 -98h7q24 51 70.5 79.5t105.5 28.5q86 0 134 -57.5t48 -157.5v-321h-104v311q0 135 -117 135q-66 0 -105.5 -47t-39.5 -123v-276z" />
    <glyph glyph-name="Eng" unicode="&#x14a;" horiz-adv-x="791" 
d="M588 361v368h108v-807q0 -25 -6 -41q-15 -48 -85 -48h-125v75h112l1 92h-29l-362 586h-5l7 -210v-376h-109v729h132l363 -586h5z" />
    <glyph glyph-name="eng" unicode="&#x14b;" horiz-adv-x="623" 
d="M368 536q86 0 134 -57.5t48 -157.5v-397q0 -91 -91 -91h-125v75h111l1 168v235q0 135 -117 135q-66 0 -105.5 -47t-39.5 -123v-276h-103v526h90l14 -98h7q24 51 70.5 79.5t105.5 28.5z" />
    <glyph glyph-name="Omacron" unicode="&#x14c;" 
d="M547 808h-322v76h322v-76zM42 363q0 178 91 276q91 99 254 99q161 0 253 -99q91 -98 91 -276q0 -177 -91 -275q-90 -98 -253 -98q-162 0 -254 98q-91 98 -91 275zM157 416v-103q0 -106 62 -166t168 -60q108 0 169 61t61 165v103q0 105 -62 165t-168 60q-108 0 -169 -60.5
t-61 -164.5z" />
    <glyph glyph-name="omacron" unicode="&#x14d;" horiz-adv-x="591" 
d="M457 608h-322v76h322v-76zM41 263q0 127 69 200t186 73q114 0 184 -73q71 -73 71 -200q0 -125 -68 -199t-187 -74q-118 0 -187 73q-68 74 -68 200zM146 302v-82q0 -68 41.5 -106t108.5 -38t108 38.5t41 105.5v82q0 66 -41.5 106.5t-107.5 40.5q-67 0 -108.5 -40.5
t-41.5 -106.5z" />
    <glyph glyph-name="Ohungarumlaut" unicode="&#x150;" 
d="M472 897l-183 -126l-35 48l173 144zM675 887l-191 -116l-32 50l179 133zM42 363q0 178 91 276q91 99 254 99q161 0 253 -99q91 -98 91 -276q0 -177 -91 -275q-90 -98 -253 -98q-162 0 -254 98q-91 98 -91 275zM157 416v-103q0 -106 62 -166t168 -60q108 0 169 61t61 165
v103q0 105 -62 165t-168 60q-108 0 -169 -60.5t-61 -164.5z" />
    <glyph glyph-name="ohungarumlaut" unicode="&#x151;" horiz-adv-x="591" 
d="M382 697l-183 -126l-35 48l173 144zM585 687l-191 -116l-32 50l179 133zM41 263q0 127 69 200t186 73q114 0 184 -73q71 -73 71 -200q0 -125 -68 -199t-187 -74q-118 0 -187 73q-68 74 -68 200zM146 302v-82q0 -68 41.5 -106t108.5 -38t108 38.5t41 105.5v82
q0 66 -41.5 106.5t-107.5 40.5q-67 0 -108.5 -40.5t-41.5 -106.5z" />
    <glyph glyph-name="OE" unicode="&#x152;" horiz-adv-x="966" 
d="M42 364q0 365 356 365h511v-97h-383v-210h334v-92h-334v-233h383v-97h-511q-175 0 -265.5 94t-90.5 270zM157 415v-99q0 -102 63 -161q62 -58 166 -58h31v535h-31q-108 0 -168.5 -56t-60.5 -161z" />
    <glyph glyph-name="oe" unicode="&#x153;" horiz-adv-x="982" 
d="M839 160h102q-15 -78 -81 -124q-64 -46 -158 -46q-134 0 -201 96q-67 -96 -205 -96q-118 0 -187 73q-68 74 -68 200q0 127 69 200t186 73q134 0 204 -96q68 96 201 96q109 0 173 -64q65 -65 65 -175q0 -26 -4 -57h-377v-29q0 -62 40 -100.5t105 -38.5q51 0 87.5 24
t48.5 64zM558 326v-12h277v17q0 55 -37 89t-98 34q-63 0 -102.5 -35.5t-39.5 -92.5zM445 220v82q0 66 -41.5 106.5t-107.5 40.5q-67 0 -108.5 -40.5t-41.5 -106.5v-82q0 -68 41.5 -106t108.5 -38t108 38.5t41 105.5z" />
    <glyph glyph-name="Racute" unicode="&#x154;" horiz-adv-x="740" 
d="M570 916l-193 -116l-33 50l183 134zM204 0h-109v729h356q104 0 159 -56.5t55 -159.5q0 -64 -28.5 -110t-78.5 -64v-7h37q72 0 72 -78v-254h-110v275h-353v-275zM204 634v-268h223q57 0 89.5 28t32.5 76v61q0 50 -32 76.5t-90 26.5h-223z" />
    <glyph glyph-name="racute" unicode="&#x155;" horiz-adv-x="365" 
d="M369 788l43 -68l-193 -116l-33 50zM81 0v436q0 43 20 66.5t71 23.5h182v-86h-170v-440h-103z" />
    <glyph glyph-name="uni0156" unicode="&#x156;" horiz-adv-x="740" 
d="M204 0h-109v729h356q104 0 159 -56.5t55 -159.5q0 -64 -28.5 -110t-78.5 -64v-7h37q72 0 72 -78v-254h-110v275h-353v-275zM204 634v-268h223q57 0 89.5 28t32.5 76v61q0 50 -32 76.5t-90 26.5h-223zM346 -239v32q20 0 32 13t12 36v5h-44v98h91v-87q0 -47 -24 -72
t-67 -25z" />
    <glyph glyph-name="uni0157" unicode="&#x157;" horiz-adv-x="365" 
d="M172 526h182v-86h-170v-440h-103v436q0 43 20 66.5t71 23.5zM130 -153h-44v98h91v-87q0 -47 -24 -72t-67 -25v32q20 0 32 13t12 36v5z" />
    <glyph glyph-name="Rcaron" unicode="&#x158;" horiz-adv-x="740" 
d="M345 778l-124 129l52 48l104 -113l106 113l51 -48l-123 -129h-66zM204 0h-109v729h356q104 0 159 -56.5t55 -159.5q0 -64 -28.5 -110t-78.5 -64v-7h37q72 0 72 -78v-254h-110v275h-353v-275zM204 634v-268h223q57 0 89.5 28t32.5 76v61q0 50 -32 76.5t-90 26.5h-223z" />
    <glyph glyph-name="rcaron" unicode="&#x159;" horiz-adv-x="365" 
d="M376 711l-123 -129h-66l-124 129l52 48l104 -113l106 113zM81 0v436q0 43 20 66.5t71 23.5h182v-86h-170v-440h-103z" />
    <glyph glyph-name="Sacute" unicode="&#x15a;" horiz-adv-x="671" 
d="M525 916l-193 -116l-33 50l183 134zM45 226h112q2 -71 50.5 -109.5t131.5 -38.5q75 0 119 33t44 90q0 60 -44 83q-30 17 -65 25l-125 28q-24 5 -39 9q-56 15 -89 37q-82 56 -77 147q0 97 71 153q73 56 191 56q119 0 193 -57q75 -58 76 -156h-112q-4 60 -45.5 92.5
t-112.5 32.5q-69 0 -108 -29t-39 -78q0 -41 30 -67q9 -9 31 -19q31 -12 62 -18l132 -28q185 -41 185 -199q0 -105 -77 -164t-206 -59q-139 0 -215 67q-75 68 -74 169z" />
    <glyph glyph-name="sacute" unicode="&#x15b;" horiz-adv-x="511" 
d="M444 716l-193 -116l-33 50l183 134zM38 161h103q0 -43 31.5 -68t85.5 -25q51 0 79.5 21t28.5 58q0 54 -67 66l-107 20q-144 25 -144 142q0 75 55 118t149 43t149.5 -44.5t56.5 -117.5h-102q-3 84 -104 84q-48 0 -74 -19.5t-26 -53.5q0 -56 80 -68l100 -18
q141 -25 141 -145q0 -76 -58 -120t-157 -44q-101 0 -160.5 46.5t-59.5 124.5z" />
    <glyph glyph-name="Scedilla" unicode="&#x15e;" horiz-adv-x="671" 
d="M617 213q0 -101 -70 -159q-71 -58 -189 -63l-20 -32q33 0 56.5 -19t23.5 -53q0 -40 -32 -63t-71 -21.5t-72 15.5v56q26 -25 67 -20t41 37q0 22 -20 30t-55 -3v27l27 46q-123 7 -192 73q-67 66 -66 162h112q2 -71 50.5 -109.5t131.5 -38.5q75 0 119 33t44 90q0 60 -44 83
q-30 17 -65 25l-125 28q-24 5 -39 9q-56 15 -89 37q-82 56 -77 147q0 97 71 153q73 56 191 56q119 0 193 -57q75 -58 76 -156h-112q-4 60 -45.5 92.5t-112.5 32.5q-69 0 -108 -29t-39 -78q0 -41 30 -67q9 -9 31 -19q31 -12 62 -18l132 -28q185 -41 185 -199z" />
    <glyph glyph-name="scedilla" unicode="&#x15f;" horiz-adv-x="511" 
d="M473 154q0 -71 -51.5 -114.5t-140.5 -48.5l-26 -43q33 0 56.5 -19t23.5 -52q0 -40 -32 -63t-71 -21.5t-72 15.5v56q26 -25 67 -20t41 37q0 22 -20 30t-55 -3v27l34 56q-87 7 -138 53.5t-51 116.5h103q0 -43 31.5 -68t85.5 -25q51 0 79.5 21t28.5 58q0 54 -67 66l-107 20
q-144 25 -144 142q0 75 55 118t149 43t149.5 -44.5t56.5 -117.5h-102q-3 84 -104 84q-48 0 -74 -19.5t-26 -53.5q0 -56 80 -68l100 -18q141 -25 141 -145z" />
    <glyph glyph-name="Scaron" unicode="&#x160;" horiz-adv-x="671" 
d="M300 778l-124 129l52 48l104 -113l106 113l51 -48l-123 -129h-66zM45 226h112q2 -71 50.5 -109.5t131.5 -38.5q75 0 119 33t44 90q0 60 -44 83q-30 17 -65 25l-125 28q-24 5 -39 9q-56 15 -89 37q-82 56 -77 147q0 97 71 153q73 56 191 56q119 0 193 -57q75 -58 76 -156
h-112q-4 60 -45.5 92.5t-112.5 32.5q-69 0 -108 -29t-39 -78q0 -41 30 -67q9 -9 31 -19q31 -12 62 -18l132 -28q185 -41 185 -199q0 -105 -77 -164t-206 -59q-139 0 -215 67q-75 68 -74 169z" />
    <glyph glyph-name="scaron" unicode="&#x161;" horiz-adv-x="511" 
d="M219 578l-124 129l52 48l104 -113l106 113l51 -48l-123 -129h-66zM38 161h103q0 -43 31.5 -68t85.5 -25q51 0 79.5 21t28.5 58q0 54 -67 66l-107 20q-144 25 -144 142q0 75 55 118t149 43t149.5 -44.5t56.5 -117.5h-102q-3 84 -104 84q-48 0 -74 -19.5t-26 -53.5
q0 -56 80 -68l100 -18q141 -25 141 -145q0 -76 -58 -120t-157 -44q-101 0 -160.5 46.5t-59.5 124.5z" />
    <glyph glyph-name="uni0162" unicode="&#x162;" horiz-adv-x="560" 
d="M334 632v-632h-32l-26 -41q33 0 56.5 -19t23.5 -53q0 -40 -32 -63t-71 -21.5t-72 15.5v56q26 -25 67 -20t41 37q0 22 -20.5 30t-54.5 -3v27l33 55h-21v632h-220v97h548v-97h-220z" />
    <glyph glyph-name="uni0163" unicode="&#x163;" horiz-adv-x="357" 
d="M318 440h-109v-356h109v-84h-80l-26 -42q33 0 56.5 -19t23.5 -52q0 -40 -32 -63t-71 -21.5t-72 15.5v56q26 -25 67 -20t41 37q0 22 -20.5 30t-54.5 -3v27l33 55q-76 4 -76 85v355h-95v86h95v171h102v-171h109v-86z" />
    <glyph glyph-name="Tcaron" unicode="&#x164;" horiz-adv-x="560" 
d="M437 907l-123 -129h-66l-124 129l52 48l104 -113l106 113zM6 729h548v-97h-220v-632h-108v632h-220v97z" />
    <glyph glyph-name="tcaron" unicode="&#x165;" horiz-adv-x="357" 
d="M314 876l-123 -129h-66l-124 129l52 48l104 -113l106 113zM318 440h-109v-356h109v-84h-124q-87 0 -87 85v355h-95v86h95v171h102v-171h109v-86z" />
    <glyph glyph-name="Tbar" unicode="&#x166;" horiz-adv-x="560" 
d="M554 729v-97h-220v-201h172v-92h-172v-339h-108v339h-156v92h156v201h-220v97h548z" />
    <glyph glyph-name="tbar" unicode="&#x167;" horiz-adv-x="357" 
d="M319 244h-110v-160h109v-84h-124q-87 0 -87 85v159h-96v84h96v112h-95v86h95v171h102v-171h109v-86h-109v-112h110v-84z" />
    <glyph glyph-name="Umacron" unicode="&#x16a;" 
d="M548 808h-322v76h322v-76zM89 272v457h108v-448q0 -90 51 -140.5t139 -50.5t139 50.5t51 140.5v448h108v-457q0 -130 -81 -206q-79 -76 -218 -76q-143 0 -220 76q-77 77 -77 206z" />
    <glyph glyph-name="umacron" unicode="&#x16b;" horiz-adv-x="617" 
d="M466 611h-322v76h322v-76zM433 526h103v-526h-89l-14 97h-8q-50 -107 -177 -107q-83 0 -129 53t-46 149v334h104v-319q0 -131 111 -131q66 0 105.5 48t39.5 126v276z" />
    <glyph glyph-name="Uring" unicode="&#x16e;" 
d="M502 816q0 -50 -32 -81t-83 -31t-83 31t-32 81q0 51 32 81.5t83 30.5t83 -30.5t32 -81.5zM440 816q0 26 -14.5 42t-38.5 16t-39 -16t-15 -42q0 -25 15 -41t39 -16t38.5 16t14.5 41zM89 272v457h108v-448q0 -90 51 -140.5t139 -50.5t139 50.5t51 140.5v448h108v-457
q0 -130 -81 -206q-79 -76 -218 -76q-143 0 -220 76q-77 77 -77 206z" />
    <glyph glyph-name="uring" unicode="&#x16f;" horiz-adv-x="617" 
d="M420 620q0 -50 -32 -81t-83 -31t-83 31t-32 81q0 51 32 81.5t83 30.5t83 -30.5t32 -81.5zM358 620q0 26 -14.5 42t-38.5 16t-39 -16t-15 -42q0 -25 15 -41t39 -16t38.5 16t14.5 41zM433 526h103v-526h-89l-14 97h-8q-50 -107 -177 -107q-83 0 -129 53t-46 149v334h104
v-319q0 -131 111 -131q66 0 105.5 48t39.5 126v276z" />
    <glyph glyph-name="Uhungarumlaut" unicode="&#x170;" 
d="M473 897l-183 -126l-35 48l173 144zM676 887l-191 -116l-32 50l179 133zM89 272v457h108v-448q0 -90 51 -140.5t139 -50.5t139 50.5t51 140.5v448h108v-457q0 -130 -81 -206q-79 -76 -218 -76q-143 0 -220 76q-77 77 -77 206z" />
    <glyph glyph-name="uhungarumlaut" unicode="&#x171;" horiz-adv-x="617" 
d="M391 700l-183 -126l-35 48l173 144zM594 690l-191 -116l-32 50l179 133zM433 526h103v-526h-89l-14 97h-8q-50 -107 -177 -107q-83 0 -129 53t-46 149v334h104v-319q0 -131 111 -131q66 0 105.5 48t39.5 126v276z" />
    <glyph glyph-name="Uogonek" unicode="&#x172;" 
d="M577 281v448h108v-457q0 -113 -62 -186.5t-172 -90.5q-65 -23 -65 -77q0 -48 59 -48q25 0 53 12v-57q-32 -15 -73 -13q-46 2 -74.5 27.5t-28.5 66.5q0 50 39 85q-129 7 -200.5 82t-71.5 199v457h108v-448q0 -90 51 -140.5t139 -50.5t139 50.5t51 140.5z" />
    <glyph glyph-name="uogonek" unicode="&#x173;" horiz-adv-x="617" 
d="M513 -130q25 0 53 12v-57q-32 -15 -73 -13q-46 2 -74.5 27.5t-28.5 66.5q0 60 56 98l-13 93h-8q-50 -107 -177 -107q-83 0 -129 53t-46 149v334h104v-319q0 -131 111 -131q66 0 105.5 48t39.5 126v276h103v-526q-82 -21 -82 -82q0 -48 59 -48z" />
    <glyph glyph-name="Wcircumflex" unicode="&#x174;" horiz-adv-x="942" 
d="M362 791l-50 49l124 127h66l123 -127l-51 -49l-106 112zM159 0l-149 729h118l80 -417l31 -192h7l154 609h143l156 -610h6l31 192l79 418h117l-149 -729h-151l-157 601h-6l-159 -601h-151z" />
    <glyph glyph-name="wcircumflex" unicode="&#x175;" horiz-adv-x="757" 
d="M484 595l-106 112l-106 -112l-50 49l124 127h66l123 -127zM575 260l66 266h107l-143 -526h-133l-61 258l-31 139h-6l-29 -139l-59 -258h-132l-146 526h109l66 -264l34 -159h8l94 423h121l96 -422h7z" />
    <glyph glyph-name="Ycircumflex" unicode="&#x176;" horiz-adv-x="663" 
d="M225 791l-50 49l124 127h66l123 -127l-51 -49l-106 112zM277 291l-273 438h131l104 -179l89 -158h7l89 158l104 179h130l-272 -438v-291h-109v291z" />
    <glyph glyph-name="ycircumflex" unicode="&#x177;" horiz-adv-x="532" 
d="M160 595l-50 49l124 127h66l123 -127l-51 -49l-106 112zM214 65l-217 461h112l72 -169l80 -192h6l82 192l73 169h111l-217 -462v-140q0 -34 -13 -58q-17 -33 -75 -33h-135v84h121v148z" />
    <glyph glyph-name="Ydieresis" unicode="&#x178;" horiz-adv-x="663" 
d="M277 811h-87v121h87v-121zM473 811h-88v121h88v-121zM277 291l-273 438h131l104 -179l89 -158h7l89 158l104 179h130l-272 -438v-291h-109v291z" />
    <glyph glyph-name="Zacute" unicode="&#x179;" horiz-adv-x="616" 
d="M440 984l43 -68l-193 -116l-33 50zM38 729h539v-88l-401 -544h397v-97h-535v88l401 543h-401v98z" />
    <glyph glyph-name="zacute" unicode="&#x17a;" horiz-adv-x="450" 
d="M372 788l43 -68l-193 -116l-33 50zM422 448l-273 -363h276v-85h-400v77l272 363h-273v86h398v-78z" />
    <glyph glyph-name="Zdotaccent" unicode="&#x17b;" horiz-adv-x="616" 
d="M247 932h88v-121h-88v121zM38 729h539v-88l-401 -544h397v-97h-535v88l401 543h-401v98z" />
    <glyph glyph-name="zdotaccent" unicode="&#x17c;" horiz-adv-x="450" 
d="M179 735h88v-121h-88v121zM422 448l-273 -363h276v-85h-400v77l272 363h-273v86h398v-78z" />
    <glyph glyph-name="Zcaron" unicode="&#x17d;" horiz-adv-x="616" 
d="M447 907l-123 -129h-66l-124 129l52 48l104 -113l106 113zM38 729h539v-88l-401 -544h397v-97h-535v88l401 543h-401v98z" />
    <glyph glyph-name="zcaron" unicode="&#x17e;" horiz-adv-x="450" 
d="M379 711l-123 -129h-66l-124 129l52 48l104 -113l106 113zM422 448l-273 -363h276v-85h-400v77l272 363h-273v86h398v-78z" />
    <glyph glyph-name="uni018F" unicode="&#x18f;" horiz-adv-x="708" 
d="M352 739q149 0 231 -98t82 -275q0 -182 -85 -279t-231 -97q-145 0 -225 92q-79 92 -79 248q0 34 4 58h502q0 125 -53 189.5t-151 64.5q-73 0 -126 -34.5t-67 -92.5h-110q22 103 106 163q83 61 202 61zM349 86q90 0 143.5 56.5t58.5 158.5h-390q1 -108 51 -161.5
t137 -53.5z" />
    <glyph glyph-name="florin" unicode="&#x192;" horiz-adv-x="545" 
d="M173 -131h-147v87h146l54 401h-101v86h113l28 200q12 86 101 86h148v-87h-146l-28 -199h112v-86h-123l-54 -397q-12 -91 -103 -91z" />
    <glyph glyph-name="AEacute" unicode="&#x1fc;" horiz-adv-x="963" 
d="M726 984l43 -68l-193 -116l-33 50zM907 729v-97h-387v-222h330v-91h-330v-222h387v-97h-496v193h-233l-62 -193h-113l244 729h660zM205 280h206v352h-93z" />
    <glyph glyph-name="Oslashacute" unicode="&#x1fe;" 
d="M536 984l43 -68l-193 -116l-33 50zM717 661l51 -70l-68 -50q31 -77 31 -178q0 -177 -91 -275q-90 -98 -253 -98q-182 0 -274 123l-62 -45l-45 71l66 49q-30 75 -30 175q0 178 91 276q91 99 254 99q180 0 271 -121zM157 416v-103q0 -32 6 -59l413 303q-62 84 -189 84
q-108 0 -169 -60.5t-61 -164.5zM617 313v103q0 33 -6 60l-415 -302q62 -87 191 -87q108 0 169 61t61 165z" />
    <glyph glyph-name="oslashacute" unicode="&#x1ff;" horiz-adv-x="591" 
d="M444 784l43 -68l-193 -116l-33 50zM543 490l41 -61l-55 -41q22 -54 22 -125q0 -125 -68 -199t-187 -74q-129 0 -196 85l-53 -39l-40 59l56 42q-22 56 -22 126q0 127 69 200t186 73q126 0 195 -84zM146 302v-82q0 -17 1 -22l268 198q-42 53 -119 53q-67 0 -108.5 -40.5
t-41.5 -106.5zM445 220v82q0 2 -2 24l-269 -197q41 -53 122 -53q67 0 108 38.5t41 105.5z" />
    <glyph glyph-name="uni0218" unicode="&#x218;" horiz-adv-x="671" 
d="M45 226h112q2 -71 50.5 -109.5t131.5 -38.5q75 0 119 33t44 90q0 60 -44 83q-30 17 -65 25l-125 28q-24 5 -39 9q-56 15 -89 37q-82 56 -77 147q0 97 71 153q73 56 191 56q119 0 193 -57q75 -58 76 -156h-112q-4 60 -45.5 92.5t-112.5 32.5q-69 0 -108 -29t-39 -78
q0 -41 30 -67q9 -9 31 -19q31 -12 62 -18l132 -28q185 -41 185 -199q0 -105 -77 -164t-206 -59q-139 0 -215 67q-75 68 -74 169zM295 -239v32q20 0 32 13t12 36v5h-44v98h91v-87q0 -47 -24 -72t-67 -25z" />
    <glyph glyph-name="uni0219" unicode="&#x219;" horiz-adv-x="511" 
d="M38 161h103q0 -43 31.5 -68t85.5 -25q51 0 79.5 21t28.5 58q0 54 -67 66l-107 20q-144 25 -144 142q0 75 55 118t149 43t149.5 -44.5t56.5 -117.5h-102q-3 84 -104 84q-48 0 -74 -19.5t-26 -53.5q0 -56 80 -68l100 -18q141 -25 141 -145q0 -76 -58 -120t-157 -44
q-101 0 -160.5 46.5t-59.5 124.5zM212 -249v32q20 0 32 13t12 36v5h-44v98h91v-87q0 -47 -24 -72t-67 -25z" />
    <glyph glyph-name="uni021A" unicode="&#x21a;" horiz-adv-x="560" 
d="M6 729h548v-97h-220v-632h-108v632h-220v97zM277 -153h-44v98h91v-87q0 -47 -24 -72t-67 -25v32q20 0 32 13t12 36v5z" />
    <glyph glyph-name="uni021B" unicode="&#x21b;" horiz-adv-x="357" 
d="M318 440h-109v-356h109v-84h-124q-87 0 -87 85v355h-95v86h95v171h102v-171h109v-86zM213 -153h-44v98h91v-87q0 -47 -24 -72t-67 -25v32q20 0 32 13t12 36v5z" />
    <glyph glyph-name="uni0237" unicode="&#x237;" horiz-adv-x="273" 
d="M90 -84v610h103l-1 -494v-108q0 -91 -91 -91h-124v83h113z" />
    <glyph glyph-name="circumflex" unicode="&#x2c6;" horiz-adv-x="362" 
d="M75 721l-50 49l124 127h66l123 -127l-51 -49l-106 112z" />
    <glyph glyph-name="caron" unicode="&#x2c7;" horiz-adv-x="362" 
d="M149 733l-124 129l52 48l104 -113l106 113l51 -48l-123 -129h-66z" />
    <glyph glyph-name="breve" unicode="&#x2d8;" horiz-adv-x="358" 
d="M259 872h69q0 -66 -40.5 -107t-108.5 -41t-108 40.5t-40 107.5h68q0 -40 22 -63t58 -23t58 23t22 63z" />
    <glyph glyph-name="dotaccent" unicode="&#x2d9;" horiz-adv-x="195" 
d="M141 738h-88v121h88v-121z" />
    <glyph glyph-name="ring" unicode="&#x2da;" horiz-adv-x="368" 
d="M303 781q0 -50 -32 -81t-83 -31t-83 31t-32 81q0 51 32 81.5t83 30.5t83 -30.5t32 -81.5zM241 781q0 26 -14.5 42t-38.5 16t-39 -16t-15 -42q0 -25 15 -41t39 -16t38.5 16t14.5 41z" />
    <glyph glyph-name="ogonek" unicode="&#x2db;" horiz-adv-x="412" 
d="M122 -94q0 47 33.5 80.5t90.5 45.5l22 -32q-82 -21 -82 -82q0 -48 59 -48q25 0 53 12v-57q-32 -15 -73 -13q-46 2 -74.5 27.5t-28.5 66.5z" />
    <glyph glyph-name="tilde" unicode="&#x2dc;" horiz-adv-x="337" 
d="M228 734q-26 0 -68 17q-41 18 -59 18q-30 0 -53 -35l-44 31q36 78 100 78q27 -2 66 -19q42 -17 61 -17q35 0 56 36l44 -32q-33 -77 -103 -77z" />
    <glyph glyph-name="hungarumlaut" unicode="&#x2dd;" horiz-adv-x="506" 
d="M316 850l-183 -126l-35 48l173 144zM519 840l-191 -116l-32 50l179 133z" />
    <glyph glyph-name="gravecomb" unicode="&#x300;" horiz-adv-x="0" 
d="M-95 771l-33 -50l-193 116l44 68z" />
    <glyph glyph-name="acutecomb" unicode="&#x301;" horiz-adv-x="0" 
d="M-96 837l-193 -116l-33 50l183 134z" />
    <glyph glyph-name="uni0302" unicode="&#x302;" horiz-adv-x="0" 
d="M-287 721l-50 49l124 127h66l123 -127l-51 -49l-106 112z" />
    <glyph glyph-name="tildecomb" unicode="&#x303;" horiz-adv-x="0" 
d="M-109 734q-28 0 -68 17q-39 18 -59 18q-30 0 -53 -35l-44 31q36 78 100 78q27 -2 66 -19q42 -17 61 -17q35 0 56 36l44 -32q-33 -77 -103 -77z" />
    <glyph glyph-name="uni0304" unicode="&#x304;" horiz-adv-x="0" 
d="M-17 741h-322v76h322v-76z" />
    <glyph glyph-name="uni0306" unicode="&#x306;" horiz-adv-x="0" 
d="M-99 872h69q0 -66 -40.5 -107t-108.5 -41t-108 40.5t-40 107.5h68q0 -40 22 -63t58 -23t58 23t22 63z" />
    <glyph glyph-name="uni0307" unicode="&#x307;" horiz-adv-x="0" 
d="M-54 738h-88v121h88v-121z" />
    <glyph glyph-name="uni0308" unicode="&#x308;" horiz-adv-x="0" 
d="M-253 738h-87v121h87v-121zM-57 738h-88v121h88v-121z" />
    <glyph glyph-name="uni030A" unicode="&#x30a;" horiz-adv-x="0" 
d="M-65 781q0 -50 -32 -81t-83 -31t-83 31t-32 81q0 51 32 81.5t83 30.5t83 -30.5t32 -81.5zM-127 781q0 26 -14.5 42t-38.5 16t-39 -16t-15 -42q0 -25 15 -41t39 -16t38.5 16t14.5 41z" />
    <glyph glyph-name="uni030B" unicode="&#x30b;" horiz-adv-x="0" 
d="M-190 850l-183 -126l-35 48l173 144zM13 840l-191 -116l-32 50l179 133z" />
    <glyph glyph-name="uni030C" unicode="&#x30c;" horiz-adv-x="0" 
d="M-213 733l-124 129l52 48l104 -113l106 113l51 -48l-123 -129h-66z" />
    <glyph glyph-name="uni0312" unicode="&#x312;" horiz-adv-x="0" 
d="M-47 922v-32q-20 0 -31.5 -13t-11.5 -35v-6h43v-98h-90v83q0 48 24 74.5t66 26.5z" />
    <glyph glyph-name="uni0326" unicode="&#x326;" horiz-adv-x="0" 
d="M-130 -237v32q20 0 32 13t12 36v5h-44v98h91v-87q0 -47 -24 -72t-67 -25z" />
    <glyph glyph-name="uni0327" unicode="&#x327;" horiz-adv-x="0" 
d="M-220 5l-29 -47q33 0 56.5 -19t23.5 -52q0 -40 -32 -63t-71 -21.5t-72 15.5v56q26 -25 68 -20q40 4 40 37q0 22 -20 30t-55 -3v27l52 87h39v-27z" />
    <glyph glyph-name="uni0328" unicode="&#x328;" horiz-adv-x="0" 
d="M-290 -94q0 47 33.5 80.5t90.5 45.5l22 -32q-82 -21 -82 -82q0 -48 59 -48q25 0 53 12v-57q-32 -15 -73 -13q-46 2 -74.5 27.5t-28.5 66.5z" />
    <glyph glyph-name="uni0335" unicode="&#x335;" horiz-adv-x="0" 
d="M-68 302h-341v75h341v-75z" />
    <glyph glyph-name="uni0336" unicode="&#x336;" horiz-adv-x="0" 
 />
    <glyph glyph-name="uni0337" unicode="&#x337;" horiz-adv-x="0" 
d="M-309 0h-69l287 729h68z" />
    <glyph glyph-name="uni0338" unicode="&#x338;" horiz-adv-x="0" 
d="M-309 0h-69l287 729h68z" />
    <glyph glyph-name="uni03BC" unicode="&#x3bc;" horiz-adv-x="588" 
d="M168 -173h-92v699h104v-333q0 -57 29 -88.5t79 -31.5q56 0 88 39t32 106v308h104v-526h-98l3 81h-6q-17 -44 -53.5 -67.5t-84.5 -23.5q-30 0 -57 12t-40 32h-8v-207z" />
    <glyph glyph-name="pi" unicode="&#x3c0;" horiz-adv-x="591" 
d="M108 449h-87v77h546v-77h-86v-365h86v-84h-97q-46 0 -68 20.5t-22 65.5v363h-169v-449h-103v449z" />
    <glyph glyph-name="omega" unicode="&#x3c9;" horiz-adv-x="793" 
d="M67 432q0 139 89 223q90 84 240 84q149 0 239 -84q91 -82 91 -223q0 -102 -57 -182q-55 -79 -149 -109v-58h154v-83h-244v199q84 15 136 70q53 56 53 135v53q0 89 -65 140q-64 51 -158 51t-158 -51t-64 -140v-54q0 -77 51.5 -132.5t136.5 -71.5v-199h-244v83h155v58
q-93 29 -150 108q-56 80 -56 183z" />
    <glyph glyph-name="Wgrave" unicode="&#x1e80;" horiz-adv-x="942" 
d="M501 850l-33 -50l-193 116l44 68zM159 0l-149 729h118l80 -417l31 -192h7l154 609h143l156 -610h6l31 192l79 418h117l-149 -729h-151l-157 601h-6l-159 -601h-151z" />
    <glyph glyph-name="wgrave" unicode="&#x1e81;" horiz-adv-x="757" 
d="M230 788l182 -134l-33 -50l-193 116zM575 260l66 266h107l-143 -526h-133l-61 258l-31 139h-6l-29 -139l-59 -258h-132l-146 526h109l66 -264l34 -159h8l94 423h121l96 -422h7z" />
    <glyph glyph-name="Wacute" unicode="&#x1e82;" horiz-adv-x="942" 
d="M660 916l-193 -116l-33 50l183 134zM159 0l-149 729h118l80 -417l31 -192h7l154 609h143l156 -610h6l31 192l79 418h117l-149 -729h-151l-157 601h-6l-159 -601h-151z" />
    <glyph glyph-name="wacute" unicode="&#x1e83;" horiz-adv-x="757" 
d="M527 788l43 -68l-193 -116l-33 50zM575 260l66 266h107l-143 -526h-133l-61 258l-31 139h-6l-29 -139l-59 -258h-132l-146 526h109l66 -264l34 -159h8l94 423h121l96 -422h7z" />
    <glyph glyph-name="Wdieresis" unicode="&#x1e84;" horiz-adv-x="942" 
d="M414 811h-87v121h87v-121zM610 811h-88v121h88v-121zM159 0l-149 729h118l80 -417l31 -192h7l154 609h143l156 -610h6l31 192l79 418h117l-149 -729h-151l-157 601h-6l-159 -601h-151z" />
    <glyph glyph-name="wdieresis" unicode="&#x1e85;" horiz-adv-x="757" 
d="M237 735h87v-121h-87v121zM432 735h88v-121h-88v121zM575 260l66 266h107l-143 -526h-133l-61 258l-31 139h-6l-29 -139l-59 -258h-132l-146 526h109l66 -264l34 -159h8l94 423h121l96 -422h7z" />
    <glyph glyph-name="Ygrave" unicode="&#x1ef2;" horiz-adv-x="663" 
d="M365 850l-33 -50l-193 116l44 68zM277 291l-273 438h131l104 -179l89 -158h7l89 158l104 179h130l-272 -438v-291h-109v291z" />
    <glyph glyph-name="ygrave" unicode="&#x1ef3;" horiz-adv-x="532" 
d="M299 654l-33 -50l-193 116l44 68zM214 65l-217 461h112l72 -169l80 -192h6l82 192l73 169h111l-217 -462v-140q0 -34 -13 -58q-17 -33 -75 -33h-135v84h121v148z" />
    <glyph glyph-name="endash" unicode="&#x2013;" horiz-adv-x="641" 
d="M580 268h-520v65h520v-65z" />
    <glyph glyph-name="emdash" unicode="&#x2014;" horiz-adv-x="837" 
d="M776 268h-716v65h716v-65z" />
    <glyph glyph-name="quoteleft" unicode="&#x2018;" horiz-adv-x="210" 
d="M170 746v-46q-41 0 -57.5 -19t-16.5 -54v-29h63v-133h-121v157q0 60 35 92t97 32z" />
    <glyph glyph-name="quoteright" unicode="&#x2019;" horiz-adv-x="207" 
d="M43 455v46q41 0 57.5 19t16.5 54v29h-64v133h122v-157q0 -60 -35 -92t-97 -32z" />
    <glyph glyph-name="quotesinglbase" unicode="&#x201a;" horiz-adv-x="210" 
d="M40 -148v46q75 0 75 73v29h-64v133h121v-157q0 -60 -35 -92t-97 -32z" />
    <glyph glyph-name="quotedblleft" unicode="&#x201c;" horiz-adv-x="420" 
d="M170 746v-46q-41 0 -57.5 -19t-16.5 -54v-29h63v-133h-121v157q0 60 35 92t97 32zM380 746v-46q-41 0 -57.5 -19t-16.5 -54v-29h64v-133h-122v157q0 60 35 92t97 32z" />
    <glyph glyph-name="quotedblright" unicode="&#x201d;" horiz-adv-x="420" 
d="M40 455v46q75 0 75 73v29h-64v133h121v-157q0 -60 -35 -92t-97 -32zM250 455v46q42 0 58.5 18.5t16.5 54.5v29h-64v133h121v-157q0 -60 -35 -92t-97 -32z" />
    <glyph glyph-name="quotedblbase" unicode="&#x201e;" horiz-adv-x="420" 
d="M40 -148v46q75 0 75 73v29h-64v133h121v-157q0 -60 -35 -92t-97 -32zM250 -148v46q75 0 75 73v29h-64v133h121v-157q0 -60 -35 -92t-97 -32z" />
    <glyph glyph-name="dagger" unicode="&#x2020;" horiz-adv-x="415" 
d="M247 731v-353h136v-73h-136v-148h-79v148h-137v73h137v353h79z" />
    <glyph glyph-name="daggerdbl" unicode="&#x2021;" horiz-adv-x="416" 
d="M384 586v-71h-137v-137h136v-73h-136v-148h-79v148h-137v73h137v137h-136v71h136v145h79v-145h137z" />
    <glyph glyph-name="bullet" unicode="&#x2022;" horiz-adv-x="392" 
d="M332 298q0 -60 -40 -99q-39 -39 -96 -39t-97 38q-39 39 -39 100t38 99q39 39 97 39t97.5 -39t39.5 -99z" />
    <glyph glyph-name="ellipsis" unicode="&#x2026;" horiz-adv-x="691" 
d="M188 0h-122v136h122v-136zM406 0h-121v136h121v-136zM625 0h-122v136h122v-136z" />
    <glyph glyph-name="perthousand" unicode="&#x2030;" horiz-adv-x="1303" 
d="M57 557q0 81 49 130q50 50 128 50q79 0 129 -50q49 -49 49 -131q0 -80 -50 -132q-50 -50 -128 -50q-79 0 -128 51q-49 50 -49 132zM261 0h-74l462 729h74zM136 557q0 -51 27 -82.5t71 -31.5q45 0 72.5 31.5t27.5 82.5q0 50 -27.5 81t-72.5 31q-43 0 -70.5 -31t-27.5 -81z
M485 173q0 81 49 131q50 51 129 51t127 -51q49 -50 49 -132t-49 -132q-50 -50 -127 -50q-79 0 -129 50q-49 50 -49 133zM888 173q0 81 49 131q49 51 129 51q78 0 128 -51q49 -50 49 -132t-49 -132q-50 -50 -128 -50q-79 0 -128.5 50.5t-49.5 132.5zM663 286
q-45 0 -72.5 -31.5t-27.5 -81.5t28 -82t72 -32t71.5 32t27.5 82t-28 81.5t-71 31.5zM1066 59q44 0 71.5 32t27.5 82t-27.5 81.5t-71.5 31.5t-71.5 -31.5t-27.5 -81.5q0 -51 27 -82.5t72 -31.5z" />
    <glyph glyph-name="guilsinglleft" unicode="&#x2039;" horiz-adv-x="327" 
d="M170 64l-121 210l121 208h93l-110 -208l110 -210h-93z" />
    <glyph glyph-name="guilsinglright" unicode="&#x203a;" horiz-adv-x="327" 
d="M159 482l119 -208l-119 -210h-96l110 210l-110 208h96z" />
    <glyph glyph-name="fraction" unicode="&#x2044;" horiz-adv-x="217" 
d="M-55 -46h-84l409 814h84z" />
    <glyph glyph-name="uni2070" unicode="&#x2070;" horiz-adv-x="491" 
d="M246 295q-95 0 -148 75t-53 213q0 139 53.5 212.5t147.5 73.5t147 -74.5t53 -211.5q0 -140 -53.5 -214t-146.5 -74zM354 581q0 211 -108 211q-110 0 -110 -206q0 -213 109 -213t109 208z" />
    <glyph glyph-name="uni2074" unicode="&#x2074;" horiz-adv-x="482" 
d="M383 862v-371h69v-74h-69v-117h-87v117h-270v72l224 373h133zM296 791l-179 -300h179v300z" />
    <glyph glyph-name="uni2075" unicode="&#x2075;" horiz-adv-x="475" 
d="M250 674q80 0 130 -53q51 -53 51 -135q0 -86 -55 -140q-56 -54 -143 -54q-85 0 -138 50t-52 131h89q-2 -46 26 -74q29 -29 76 -29q48 0 76 31q30 31 30 82t-30 84t-78 33q-32 0 -58.5 -15.5t-37.5 -39.5h-83l14 317h332v-77h-255l-7 -147l4 -2q36 38 109 38z" />
    <glyph glyph-name="uni2076" unicode="&#x2076;" horiz-adv-x="479" 
d="M248 292q-101 0 -151.5 76t-50.5 214t51 212.5t155 74.5q76 0 124 -39t55 -105h-90q-11 69 -91 69q-122 0 -113 -195h5q35 71 126 71q76 0 124 -51t48 -134q0 -87 -52.5 -140t-139.5 -53zM251 596q-46 0 -73.5 -32.5t-27.5 -81.5q0 -51 28 -82q28 -30 73 -30t72 31
q27 32 27 83t-27 81.5t-72 30.5z" />
    <glyph glyph-name="uni2077" unicode="&#x2077;" horiz-adv-x="430" 
d="M95 686h-72v176h383v-62q-79 -109 -138 -244q-60 -137 -81 -256h-95q19 112 76 246q58 132 132 239h-205v-99z" />
    <glyph glyph-name="uni2078" unicode="&#x2078;" horiz-adv-x="465" 
d="M39 447q0 92 82 131v6q-37 18 -59.5 52.5t-22.5 78.5q0 70 53.5 112t140.5 42t140 -42.5t53 -111.5q0 -43 -21.5 -78t-59.5 -53v-6q39 -19 60 -53.5t21 -77.5q0 -71 -53.5 -113t-141.5 -42q-87 0 -139.5 43t-52.5 112zM232 617q47 0 74.5 24t27.5 63q0 42 -28 64
q-27 24 -74 24q-46 0 -75 -24q-27 -24 -27 -64q0 -39 28.5 -63t73.5 -24zM130 457q0 -41 28 -64.5t74 -23.5q47 0 74.5 24t27.5 64q0 41 -28 65t-74 24q-47 0 -74.5 -24.5t-27.5 -64.5z" />
    <glyph glyph-name="uni2079" unicode="&#x2079;" horiz-adv-x="477" 
d="M228 292q-73 0 -122 39t-56 105h90q4 -32 29 -50t62 -18q121 0 111 195h-5q-36 -70 -127 -70q-75 0 -123 51t-48 134q0 86 52 138q53 53 140 53q101 0 151 -76.5t50 -215.5q0 -146 -51 -215.5t-153 -69.5zM228 566q46 0 73.5 32.5t27.5 82.5q0 49 -28 80t-73 31t-72 -31
t-27 -83q0 -51 27 -81.5t72 -30.5z" />
    <glyph glyph-name="uni2080" unicode="&#x2080;" horiz-adv-x="491" 
d="M246 -105q-95 0 -148 75t-53 213q0 139 53.5 212.5t147.5 73.5t147 -74.5t53 -211.5q0 -140 -53.5 -214t-146.5 -74zM354 181q0 211 -108 211q-110 0 -110 -206q0 -213 109 -213t109 208z" />
    <glyph glyph-name="uni2081" unicode="&#x2081;" horiz-adv-x="354" 
d="M174 297h-143v68h23q54 0 89 27t36 70h82v-562h-87v397z" />
    <glyph glyph-name="uni2082" unicode="&#x2082;" horiz-adv-x="452" 
d="M149 -26l93 4h168v-78h-359v19q0 113 92 187q14 12 45 35.5t47.5 38t37 36t30 43.5t9.5 46q0 41 -24 64t-66 23q-46 0 -71.5 -26.5t-23.5 -74.5h-88q-1 81 50.5 129.5t135.5 48.5q81 0 130.5 -45.5t49.5 -117.5q0 -91 -81 -160q-13 -11 -64 -50t-76.5 -66t-34.5 -56z" />
    <glyph glyph-name="uni2083" unicode="&#x2083;" horiz-adv-x="465" 
d="M231 -108q-87 0 -137.5 49t-48.5 129h91q-2 -48 24 -74.5t72 -26.5t73.5 25.5t27.5 67.5q0 43 -29 67t-79 24h-45v73h40q49 0 75.5 23.5t26.5 62.5q0 37 -25 58.5t-65 21.5q-46 0 -71.5 -26.5t-24.5 -72.5h-89q-3 79 48 127q52 49 138 49q79 0 130 -40.5t51 -108.5
q0 -87 -82 -124v-4q44 -17 68 -53t24 -82q0 -72 -54 -119q-52 -46 -139 -46z" />
    <glyph glyph-name="uni2084" unicode="&#x2084;" horiz-adv-x="482" 
d="M383 462v-371h69v-74h-69v-117h-87v117h-270v72l224 373h133zM296 391l-179 -300h179v300z" />
    <glyph glyph-name="uni2085" unicode="&#x2085;" horiz-adv-x="475" 
d="M250 274q80 0 130 -53q51 -53 51 -135q0 -86 -55 -140q-56 -54 -143 -54q-85 0 -138 50t-52 131h89q-2 -46 26 -74q29 -29 76 -29q48 0 76 31q30 32 30 82q0 51 -30 84t-78 33q-32 0 -58.5 -15.5t-37.5 -39.5h-83l14 317h332v-77h-255l-7 -147l4 -2q36 38 109 38z" />
    <glyph glyph-name="uni2086" unicode="&#x2086;" horiz-adv-x="479" 
d="M248 -108q-101 0 -151.5 76t-50.5 214t51 212.5t155 74.5q76 0 124 -39t55 -105h-90q-11 69 -91 69q-122 0 -113 -195h5q35 71 126 71q76 0 124 -51t48 -134q0 -87 -52.5 -140t-139.5 -53zM251 196q-46 0 -73.5 -32.5t-27.5 -81.5q0 -51 28 -82q28 -30 73 -30t72 31
t27 83q0 51 -27 81.5t-72 30.5z" />
    <glyph glyph-name="uni2087" unicode="&#x2087;" horiz-adv-x="430" 
d="M95 286h-72v176h383v-62q-79 -110 -138 -244q-60 -133 -81 -256h-95q19 112 76 246q58 132 132 239h-205v-99z" />
    <glyph glyph-name="uni2088" unicode="&#x2088;" horiz-adv-x="465" 
d="M39 47q0 92 82 131v6q-37 18 -59.5 52.5t-22.5 78.5q0 70 53.5 112t140.5 42t140 -42.5t53 -111.5q0 -43 -21.5 -78t-59.5 -53v-6q39 -19 60 -53.5t21 -77.5q0 -71 -53.5 -113t-141.5 -42q-87 0 -139.5 43t-52.5 112zM232 217q47 0 74.5 24t27.5 63q0 42 -28 64
q-27 24 -74 24q-46 0 -75 -24q-27 -24 -27 -64q0 -39 28.5 -63t73.5 -24zM130 57q0 -41 28 -64.5t74 -23.5q47 0 74.5 24t27.5 64q0 41 -28 65t-74 24q-47 0 -74.5 -24.5t-27.5 -64.5z" />
    <glyph glyph-name="uni2089" unicode="&#x2089;" horiz-adv-x="477" 
d="M228 -108q-73 0 -122 39t-56 105h90q4 -32 29 -50t62 -18q121 0 111 195h-5q-36 -70 -127 -70q-75 0 -123 51t-48 134q0 86 52 138q53 53 140 53q101 0 151 -76.5t50 -215.5q0 -146 -51 -215.5t-153 -69.5zM228 166q46 0 73.5 32.5t27.5 82.5q0 49 -28 80t-73 31t-72 -31
t-27 -83q0 -51 27 -81.5t72 -30.5z" />
    <glyph glyph-name="uni20A6" unicode="&#x20a6;" horiz-adv-x="715" 
d="M625 402h85v-76h-85v-326h-120l-177 326h-136v-326h-105v326h-83v76h83v327h121l177 -327h136v327h104v-327zM186 578l5 -176h96l-95 176h-6zM521 151h5l-4 175h-96z" />
    <glyph glyph-name="uni20A9" unicode="&#x20a9;" horiz-adv-x="815" 
d="M724 402h80v-76h-94l-59 -326h-128l-63 326h-102l-62 -326h-127l-61 326h-98v76h83l-61 327h107l53 -327h96l67 327h107l67 -327h95l49 327h110zM411 589h-5l-34 -187h73zM238 128l32 184l3 14h-68l2 -13l26 -185h5zM586 127l24 184l2 15h-67l3 -15l32 -184h6z" />
    <glyph glyph-name="uni20AA" unicode="&#x20aa;" horiz-adv-x="722" 
d="M398 165v476h-237v-641h-91v729h317q52 0 76.5 -22.5t24.5 -78.5v-463h-90zM561 89v640h91v-729h-317q-52 0 -76.5 22.5t-24.5 78.5v464h90v-476h237z" />
    <glyph glyph-name="Euro" unicode="&#x20ac;" horiz-adv-x="743" 
d="M401 87q69 0 114.5 35.5t61.5 98.5h114q-19 -107 -99 -168q-79 -62 -194 -62q-118 0 -195.5 68t-102.5 191h-73v76h63q-1 9 -1 39q0 7 2 53h-64v76h76q28 117 106 180.5t193 63.5q114 0 192 -63t97 -166h-114q-17 65 -63.5 99t-113.5 34q-141 0 -184 -148h257l-9 -76
h-262q-2 -46 -2 -54q0 -30 1 -38h257l-11 -76h-235q39 -163 189 -163z" />
    <glyph glyph-name="uni20B2" unicode="&#x20b2;" horiz-adv-x="686" 
d="M344 303v85h265v-48q0 -127 -65.5 -201.5t-180.5 -84.5v-85h-74v85q-117 12 -182 94.5t-65 218.5q0 137 66 221.5t181 96.5v84h74v-84q93 -10 154.5 -65.5t73.5 -140.5h-105q-12 56 -54.5 87.5t-105.5 31.5q-81 0 -130 -51.5t-49 -135.5v-84q0 -89 49.5 -140t133.5 -51
q80 0 126 45t48 122h-160z" />
    <glyph glyph-name="uni20B8" unicode="&#x20b8;" horiz-adv-x="559" 
d="M6 641v88h547v-88h-547zM228 456h-222v92h547v-92h-221v-456h-104v456z" />
    <glyph glyph-name="uni20B9" unicode="&#x20b9;" horiz-adv-x="704" 
d="M610 729v-77h-127q43 -50 52 -124h75v-76h-76q-9 -65 -48 -108.5t-101 -62.5v-6q30 -8 43 -28q9 -10 16 -23q1 -3 3 -6t3.5 -5t1.5 -3q2 -2 9.5 -16.5t8.5 -16.5l92 -177h-117l-92 180q-22 45 -45 62q-22 16 -69 16h-145v88h185q122 0 143 106h-328v76h328
q-10 51 -47.5 78.5t-95.5 27.5h-185v95h516z" />
    <glyph glyph-name="uni20BA" unicode="&#x20ba;" horiz-adv-x="610" 
d="M466 331h105q-22 -154 -125 -242q-101 -87 -253 -89h-86v280l-95 -37v86l95 38v87l-95 -38v85l95 41v187h104v-148l174 71v-86l-174 -72v-87l174 72v-86l-174 -72v-222q99 2 167 64t88 168z" />
    <glyph glyph-name="uni20BC" unicode="&#x20bc;" horiz-adv-x="687" 
d="M150 0h-103v348q0 128 64 197t182 78v106h102v-106q122 -8 183.5 -79.5t61.5 -195.5v-348h-102v348q0 83 -37.5 127t-105.5 49v-524h-102v524q-143 -11 -143 -176v-348z" />
    <glyph glyph-name="uni20BD" unicode="&#x20bd;" horiz-adv-x="671" 
d="M411 259h-195v-72h234v-77h-234v-110h-109v110h-76v77h76v77h-76v88h76v377h304q113 0 172.5 -61.5t59.5 -173.5t-60.5 -173.5t-171.5 -61.5zM411 629h-195v-277h187q59 0 92 29t33 79v69q0 48 -31 74t-86 26z" />
    <glyph glyph-name="uni20BF" unicode="&#x20bf;" horiz-adv-x="723" 
d="M513 384v-7q108 -27 108 -155q0 -78 -53 -124.5t-145 -46.5h-1v-82h-74v82h-77v-82h-74v82h-79v639h79v79h74v-79h77v79h74v-79h6q84 0 130.5 -43.5t46.5 -119.5q0 -51 -24 -89t-68 -54zM499 492v41q0 35 -23 55t-65 20h-191v-191h193q40 0 63 20t23 55zM514 213v41
q0 39 -25 60.5t-70 21.5h-199v-203h187q49 0 78 21.5t29 58.5z" />
    <glyph glyph-name="uni2105" unicode="&#x2105;" horiz-adv-x="946" 
d="M306 498h83q-7 -63 -54.5 -101t-116.5 -38q-79 0 -128 51.5t-49 137.5q0 87 49.5 139t131.5 52q66 0 112 -36.5t54 -94.5h-83q-6 28 -29.5 44.5t-55.5 16.5q-46 0 -71 -32t-25 -89t25 -88.5t70 -31.5q34 0 58.5 19t28.5 51zM279 0h-81l462 729h81zM544 183q0 84 50 137
t131 53q80 0 130 -53t50 -137t-50 -137t-130 -53q-82 0 -131.5 52.5t-49.5 137.5zM627 183q0 -54 26.5 -87t71.5 -33t71 33t26 88q0 54 -26 86.5t-71 32.5q-46 0 -72 -32.5t-26 -87.5z" />
    <glyph glyph-name="uni2116" unicode="&#x2116;" horiz-adv-x="1381" 
d="M761 498q0 98 66 168q66 71 171 71q106 0 172 -71q67 -70 67 -168q0 -99 -68 -167t-171 -68q-102 0 -170 68q-67 67 -67 167zM204 0h-109v729h132l363 -586h5l-7 218v368h108v-729h-132l-362 586h-5l7 -210v-376zM874 538v-76q0 -48 36 -79.5t88 -31.5q54 0 90.5 31
t36.5 80v75q0 48 -35.5 79.5t-89.5 31.5t-90 -30.5t-36 -79.5zM820 0v89h357v-89h-357z" />
    <glyph glyph-name="uni2117" unicode="&#x2117;" horiz-adv-x="926" 
d="M462 -76q-174 0 -298 117q-123 119 -123 301q0 184 123 302q124 119 298 119q175 0 297 -118q124 -117 124 -300q2 -119 -56.5 -217.5t-155.5 -152t-209 -51.5zM462 -46q160 0 273 110q112 111 112 281q0 169 -112 278t-273 109q-160 0 -273 -110t-113 -280
q0 -169 113 -279q112 -109 273 -109zM394 134h-78v417h210q68 0 109 -39t41 -103q0 -63 -41 -102.5t-109 -39.5h-132v-133zM392 480v-145h130q35 0 56 20.5t21 53.5q0 31 -21 51t-56 20h-130z" />
    <glyph glyph-name="trademark" unicode="&#x2122;" horiz-adv-x="679" 
d="M109 681h-88v50h235v-50h-92v-261h-55v261zM459 534l86 197h70v-311h-54v146l4 88h-3l-105 -228l-103 228h-4l4 -88v-146h-52v311h69l85 -197h3z" />
    <glyph glyph-name="estimated" unicode="&#x212e;" horiz-adv-x="797" 
d="M698 230h46q-27 -108 -120 -174q-94 -65 -222 -65q-162 0 -260 102q-97 101 -97 266t99 267q100 103 266 103q152 0 243 -88q91 -87 99 -246q1 -14 1 -57h-600v-185q35 -59 102 -91.5t149 -32.5q107 0 187 55q81 56 107 146zM153 561v-187h493v205q-90 111 -249 108
t-244 -126z" />
    <glyph glyph-name="oneeighth" unicode="&#x215b;" horiz-adv-x="921" 
d="M257 -46h-84l409 814h84zM152 582h-123v65h45q82 0 82 78v4h77v-473h-81v326zM561 127q0 36 18 65.5t51 44.5v5q-33 15 -51 45t-18 67q0 60 45.5 96t119.5 36q75 0 119 -36t44 -96q0 -37 -18 -67t-50 -45v-5q68 -32 68 -111q0 -61 -45 -97t-119 -36q-75 0 -119.5 37
t-44.5 97zM644 345q0 -33 22.5 -52t58.5 -19q37 0 58.5 19.5t21.5 51.5t-22 51t-58 19t-58.5 -19.5t-22.5 -50.5zM644 134q0 -33 22 -51.5t59 -18.5q36 0 58 19.5t22 50.5q0 33 -22 52.5t-58 19.5q-37 0 -59 -20t-22 -52z" />
    <glyph glyph-name="threeeighths" unicode="&#x215c;" horiz-adv-x="991" 
d="M329 -46h-84l409 814h84zM189 248q-71 0 -114 41t-42 108h82q-1 -36 20 -57t54 -21t54.5 20t21.5 50q0 33 -22.5 52.5t-59.5 19.5h-37v74h30q37 0 57.5 18.5t20.5 49.5q0 29 -18.5 45t-47.5 16q-34 0 -54 -21.5t-19 -56.5h-82q-2 67 40 108t115 41q67 0 109 -35.5
t42 -92.5q0 -71 -67 -102v-5q76 -30 76 -113q0 -61 -45 -100t-114 -39zM632 127q0 36 18 65.5t51 44.5v5q-33 15 -51 45t-18 67q0 60 45.5 96t119.5 36q75 0 119 -36t44 -96q0 -37 -18 -67t-50 -45v-5q68 -32 68 -111q0 -61 -45 -97t-119 -36q-75 0 -119.5 37t-44.5 97z
M715 345q0 -33 22.5 -52t58.5 -19q37 0 58.5 19.5t21.5 51.5t-22 51t-58 19t-58.5 -19.5t-22.5 -50.5zM715 134q0 -33 22 -51.5t59 -18.5q36 0 58 19.5t22 50.5q0 33 -22 52.5t-58 19.5q-37 0 -59 -20t-22 -52z" />
    <glyph glyph-name="fiveeighths" unicode="&#x215d;" horiz-adv-x="1005" 
d="M341 -46h-84l409 814h84zM36 401h82q-1 -34 21.5 -57.5t57.5 -23.5q36 0 58.5 25t22.5 65q0 41 -22.5 67t-59.5 26q-27 0 -46.5 -12.5t-26.5 -32.5h-77v271h289v-73h-210v-67l-2 -45l2 -2q29 30 86 30q66 0 108 -45t42 -114q0 -73 -46 -119q-45 -46 -119 -46
q-71 0 -115.5 42t-44.5 111zM645 127q0 36 18 65.5t51 44.5v5q-33 15 -51 45t-18 67q0 60 45.5 96t119.5 36q75 0 119 -36t44 -96q0 -37 -18 -67t-50 -45v-5q68 -32 68 -111q0 -61 -45 -97t-119 -36q-75 0 -119.5 37t-44.5 97zM728 345q0 -33 22.5 -52t58.5 -19
q37 0 58.5 19.5t21.5 51.5t-22 51t-58 19t-58.5 -19.5t-22.5 -50.5zM728 134q0 -33 22 -51.5t59 -18.5q36 0 58 19.5t22 50.5q0 33 -22 52.5t-58 19.5q-37 0 -59 -20t-22 -52z" />
    <glyph glyph-name="seveneighths" unicode="&#x215e;" horiz-adv-x="906" 
d="M157 -46l409 814h84l-409 -814h-84zM27 729h314v-58q-150 -183 -188 -415h-80q36 230 170 400h-155v-64h-61v137zM805 242v-5q68 -32 68 -111q0 -61 -45 -97t-119 -36q-75 0 -119.5 37t-44.5 97q0 36 18 65.5t51 44.5v5q-33 15 -51 45t-18 67q0 60 45.5 96t119.5 36
q75 0 119 -36t44 -96q0 -37 -18 -67t-50 -45zM709 274q37 0 58.5 19.5t21.5 51.5t-22 51t-58 19t-58.5 -19.5t-22.5 -50.5q0 -33 22.5 -52t58.5 -19zM789 134q0 33 -22 52.5t-58 19.5q-37 0 -59 -20t-22 -52q0 -33 22 -51.5t59 -18.5q36 0 58 19.5t22 50.5z" />
    <glyph glyph-name="arrowleft" unicode="&#x2190;" horiz-adv-x="851" 
d="M755 297v-66h-612l169 -231h-80l-198 265l198 263h80l-169 -231h612z" />
    <glyph glyph-name="arrowup" unicode="&#x2191;" horiz-adv-x="657" 
d="M565 375v-81l-205 181v-410h205v-64h-473v64h204v410l-204 -181v81l236 207z" />
    <glyph glyph-name="arrowright" unicode="&#x2192;" horiz-adv-x="884" 
d="M708 231h-612v66h612l-169 231h81l197 -263l-197 -265h-81z" />
    <glyph glyph-name="arrowdown" unicode="&#x2193;" horiz-adv-x="657" 
d="M565 531v-64h-205v-409l205 180v-81l-237 -207l-236 207v81l204 -180v409h-204v64h473z" />
    <glyph glyph-name="arrowboth" unicode="&#x2194;" horiz-adv-x="1063" 
d="M276 109l-203 244l203 243h77l-173 -211h702l-171 211h75l204 -243l-204 -244h-75l171 211h-702l173 -211h-77z" />
    <glyph glyph-name="arrowupdn" unicode="&#x2195;" horiz-adv-x="746" 
d="M375 -141l-291 250v83l259 -223v681l-259 -222v82l291 250l288 -250v-82l-258 222v-681l258 223v-83z" />
    <glyph glyph-name="uni2196" unicode="&#x2196;" horiz-adv-x="689" 
d="M631 48l-46 -48l-411 426v-347h-64v458h444v-67h-335z" />
    <glyph glyph-name="uni2197" unicode="&#x2197;" horiz-adv-x="704" 
d="M558 420l-407 -420l-46 47l408 420h-336v64h445v-457h-64v346z" />
    <glyph glyph-name="uni2198" unicode="&#x2198;" horiz-adv-x="687" 
d="M577 0l-446 -2v69h336l-407 418l45 46l408 -420l1 349h64z" />
    <glyph glyph-name="uni2199" unicode="&#x2199;" horiz-adv-x="685" 
d="M555 0h-447v460h66v-349l406 420l45 -46l-406 -418h336v-67z" />
    <glyph glyph-name="uni21A9" unicode="&#x21a9;" horiz-adv-x="940" 
d="M852 498q0 -103 -64 -162.5t-183 -59.5h-360v-124l-173 157l173 159v-125h360q82 0 130.5 40.5t48.5 114.5q0 70 -46 112t-123 42h-13v65h13q103 0 170 -62q67 -61 67 -157z" />
    <glyph glyph-name="uni21AA" unicode="&#x21aa;" horiz-adv-x="940" 
d="M89 498q0 96 66 157q67 62 171 62h13v-65h-13q-77 0 -122.5 -42t-45.5 -112q0 -75 48 -115t130 -40h361v125l172 -159l-172 -157v124h-361q-119 0 -183 59t-64 163z" />
    <glyph glyph-name="uni21B2" unicode="&#x21b2;" horiz-adv-x="784" 
d="M626 343v399h65v-466h-424v-124l-174 157l174 159v-125h359z" />
    <glyph glyph-name="uni21B3" unicode="&#x21b3;" horiz-adv-x="784" 
d="M517 468l174 -159l-174 -157v124h-424v466h64v-399h360v125z" />
    <glyph glyph-name="uni21BA" unicode="&#x21ba;" horiz-adv-x="824" 
d="M413 -12q-143 0 -238 94q-95 95 -95 234q0 91 45 171.5t125 131.5l35 -49q-144 -88 -144 -254q0 -114 78 -191q80 -77 195 -77t190 76q76 76 76 186q0 83 -39 140q-40 60 -178 180l-3 -2l5 -70v-146h-58v317h307v-62h-143l-65 5l-1 -3q146 -123 193 -192q46 -67 46 -167
q0 -133 -95 -228q-94 -94 -236 -94z" />
    <glyph glyph-name="uni21BB" unicode="&#x21bb;" horiz-adv-x="824" 
d="M409 -12q-140 0 -234 94q-95 95 -95 228q0 101 46 169t192 190l-1 3l-67 -5h-144v62h311v-317h-62v146l5 70l-3 2q-139 -123 -178 -181q-38 -58 -38 -139q0 -110 76 -186t191 -76q117 0 194 76q78 76 78 192q0 82 -37.5 148t-104.5 106l35 49q78 -49 125 -132
q46 -82 46 -171q0 -140 -96 -234q-95 -94 -239 -94z" />
    <glyph glyph-name="emptyset" unicode="&#x2205;" horiz-adv-x="772" 
d="M731 363q0 -177 -91 -275q-90 -98 -253 -98q-162 0 -254 98q-91 98 -91 275q0 178 91 276q91 99 254 99q161 0 253 -99q91 -98 91 -276zM157 416v-103q0 -64 22 -109l368 384q-62 53 -160 53q-108 0 -169 -60.5t-61 -164.5zM617 313v103q0 52 -17 97l-365 -380
q59 -46 152 -46q108 0 169 61t61 165z" />
    <glyph glyph-name="product" unicode="&#x220f;" horiz-adv-x="744" 
d="M92 729h561v-88h-105v-641h-102v641h-145v-641h-103v641h-106v88z" />
    <glyph glyph-name="summation" unicode="&#x2211;" horiz-adv-x="587" 
d="M540 -164h-488v86l242 354v7l-242 359v87h488v-97l-232 -1l-135 7v-7l236 -352l-238 -343v-7l137 7h232v-100z" />
    <glyph glyph-name="minus" unicode="&#x2212;" horiz-adv-x="625" 
d="M84 250v95h459v-95h-459z" />
    <glyph glyph-name="radical" unicode="&#x221a;" horiz-adv-x="736" 
d="M419 277l166 452h107l-298 -806h-139l-149 403h-72v83h147l49 -129l91 -267h7z" />
    <glyph glyph-name="infinity" unicode="&#x221e;" horiz-adv-x="888" 
d="M234 62q-87 0 -141 59q-54 60 -54 151q0 88 54 150t141 62q63 0 112 -36t98 -108q52 73 99.5 108.5t111.5 35.5q86 0 139 -62q54 -62 54 -150t-54 -149q-52 -61 -139 -61q-64 0 -112.5 35.5t-98.5 107.5q-47 -71 -97 -107t-113 -36zM237 149q39 0 75 28t84 95
q-49 68 -83.5 95t-75.5 27q-48 0 -78 -34t-30 -88t30.5 -88.5t77.5 -34.5zM651 149q48 0 78.5 34.5t30.5 88.5t-31 88t-78 34q-41 0 -76.5 -27.5t-81.5 -94.5q49 -69 83 -96t75 -27z" />
    <glyph glyph-name="integral" unicode="&#x222b;" horiz-adv-x="575" 
d="M325 753h147v-87h-134v-713q0 -43 -20.5 -66t-71.5 -23h-146v86h134v712q0 91 91 91z" />
    <glyph glyph-name="approxequal" unicode="&#x2248;" horiz-adv-x="532" 
d="M150 349h-55q-5 66 21 98.5t69 32.5q33 0 82 -25q50 -25 75 -25q49 0 47 59h54q5 -67 -22.5 -99.5t-74.5 -32.5q-38 0 -90 24q-51 24 -69 24q-21 0 -31 -15.5t-6 -40.5zM150 151h-55q-5 66 21.5 98t69.5 32q32 0 81 -25q51 -24 75 -24q49 0 47 59h54q5 -68 -22.5 -101
t-74.5 -33q-39 0 -90 25q-54 26 -69 26q-21 0 -31 -16.5t-6 -40.5z" />
    <glyph glyph-name="notequal" unicode="&#x2260;" horiz-adv-x="603" 
d="M519 441v-87h-144l-61 -118h205v-85h-249l-60 -115h-88l60 115h-98v85h142l61 118h-203v87h249l62 120h87l-62 -120h99z" />
    <glyph glyph-name="lessequal" unicode="&#x2264;" horiz-adv-x="563" 
d="M479 253v-111l-402 184v90l402 183v-110l-173 -70l-133 -45v-7l129 -44zM479 91v-91h-402v91h402z" />
    <glyph glyph-name="greaterequal" unicode="&#x2265;" horiz-adv-x="563" 
d="M486 326l-402 -184v111l177 70l129 44v7l-133 45l-173 70v110l402 -183v-90zM486 0h-402v91h402v-91z" />
    <glyph glyph-name="filledbox" unicode="&#x25a0;" horiz-adv-x="916" 
d="M111 1v728h693v-728h-693z" />
    <glyph glyph-name="uni25A1" unicode="&#x25a1;" horiz-adv-x="888" 
d="M98 0v729h694v-729h-694zM732 670h-575v-611h575v611z" />
    <glyph glyph-name="triagup" unicode="&#x25b2;" horiz-adv-x="991" 
d="M68 0l426 737l428 -737h-854z" />
    <glyph glyph-name="uni25B3" unicode="&#x25b3;" horiz-adv-x="989" 
d="M919 0h-848l423 738zM494 618l-319 -556h640z" />
    <glyph glyph-name="lozenge" unicode="&#x25ca;" horiz-adv-x="2152" 
d="M984 -10q-135 0 -214 100t-79 268q0 96 28 170.5t76.5 119.5t109.5 68t132 23q120 0 202 -62q82 -61 100 -164h-156q-36 86 -147 86q-90 0 -137 -62t-47 -175q0 -115 46.5 -175t129.5 -60q67 0 109 33t52 92h-162v143h324v-395h-111l-16 119h-35q-17 -62 -71.5 -95.5
t-133.5 -33.5zM1486 576q-34 0 -56.5 23t-22.5 59q0 35 22.5 58t56.5 23q35 0 55.5 -22.5t20.5 -58.5q0 -37 -20.5 -59.5t-55.5 -22.5zM1684 576q-34 0 -55 23t-21 59q0 35 21.5 58t54.5 23q36 0 58.5 -23t22.5 -58q0 -36 -22.5 -59t-58.5 -23zM310 0h-271v729h271
q161 0 248.5 -92.5t87.5 -270.5t-88.5 -272t-247.5 -94zM1886 572h-36v126h-38v31h118v-31h-44v-126zM1984 572h-34v157h63l17 -127l23 127h61v-157h-40v135l-17 -135h-52l-21 135v-135zM145 109l26 -26q29 29 52.5 40.5t60.5 11.5h26q31 0 69 15q31 12 52 33q24 24 41 72
t17 108q0 59 -16 106t-39 70q-21 23 -49 36q-37 19 -75 19h-26q-29 0 -52 10q-26 12 -32 17l-29 27l-26 -30q1 -2 7 -9t7 -8q5 -2 20 -27q15 -22 15 -71v-276q-3 -51 -16 -74l-10 -15q-9 -15 -23 -29zM1582 0h-149v491h141l7 -58h27q12 36 49 56t90 20v-147
q-165 16 -165 -148v-214z" />
    <glyph glyph-name="circle" unicode="&#x25cb;" horiz-adv-x="825" 
d="M413 -10q-155 0 -262 105q-106 105 -106 270q0 163 106 268q107 105 262 105t261 -105q107 -105 107 -268q0 -165 -107 -270q-106 -105 -261 -105zM192 132q92 -92 221 -92q128 0 220 92t92 233q0 140 -92 232q-91 91 -220 91q-130 0 -221 -91t-91 -232q0 -142 91 -233z
" />
    <glyph glyph-name="uni25CF" unicode="&#x25cf;" horiz-adv-x="899" 
d="M451 -10q-157 0 -262 107q-105 108 -105 269q0 158 105 265t262 107q155 0 259 -107t104 -265q0 -160 -104 -269q-104 -107 -259 -107z" />
    <glyph glyph-name="uni262E" unicode="&#x262e;" horiz-adv-x="874" 
d="M437 737q159 0 263 -105q105 -104 105 -270q0 -167 -104 -273q-104 -104 -264 -104t-264 104q-104 106 -104 273q0 166 104 270q103 105 264 105zM755 362q0 139 -83 231q-83 93 -212 100v-310l267 -165q28 63 28 144zM413 383v310q-127 -7 -212 -100q-83 -92 -83 -231
q0 -78 28 -144zM413 326l-245 -151q39 -64 103 -102t142 -43v296zM460 326v-296q78 5 142 43t103 102z" />
    <glyph glyph-name="uni2639" unicode="&#x2639;" horiz-adv-x="877" 
d="M68 365q0 160 107 267q107 106 263 106t263 -106q108 -106 108 -267q0 -163 -108 -269q-106 -106 -263 -106q-156 0 -263 106q-107 107 -107 269zM117 365q0 -133 82 -224q35 53 99.5 84t139.5 31q77 0 142 -31.5t99 -83.5q82 95 82 224q0 140 -95 235q-94 94 -227 94
q-134 0 -228 -94t-94 -235zM309 437q0 51 14 78.5t38 27.5q51 0 51 -106t-51 -106q-24 0 -38 28.5t-14 77.5zM468 437q0 51 14 78.5t38 27.5t38 -28.5t14 -77.5q0 -106 -52 -106q-24 0 -38 29t-14 77zM234 109q94 -75 205 -75q112 0 205 75q-27 46 -83.5 73.5t-121.5 27.5
q-67 0 -122.5 -27.5t-82.5 -73.5z" />
    <glyph glyph-name="smileface" unicode="&#x263a;" horiz-adv-x="877" 
d="M809 365q0 -163 -108 -269q-106 -106 -263 -106q-156 0 -263 106q-107 107 -107 269q0 160 107 267q107 106 263 106t263 -106q108 -106 108 -267zM439 34q135 0 228 95q94 95 94 236q0 140 -95 235q-94 94 -227 94q-134 0 -228 -94t-94 -235q0 -143 94 -237t228 -94z
M361 331q-24 0 -38 28.5t-14 77.5q0 51 14 78.5t38 27.5q51 0 51 -106t-51 -106zM520 331q-24 0 -38 29t-14 77q0 51 14 78.5t38 27.5t38 -28.5t14 -77.5q0 -106 -52 -106zM599 312v17h108v-17h-29q-14 -87 -81 -139t-159 -52q-94 0 -159 52q-66 53 -80 139h-25v17h108v-17
h-33q11 -65 64 -106q52 -40 126 -40q75 0 127 40t64 106h-31z" />
    <glyph glyph-name="uni2708" unicode="&#x2708;" horiz-adv-x="926" 
d="M149 207h-50l35 159l-35 159h50l69 -108l210 12l-99 276h90l144 -238q14 -24 48 -26l59 4q60 4 109 -21t49 -58q0 -35 -49 -60q-49 -24 -109 -20l-59 4q-20 0 -29.5 -5t-18.5 -19l-144 -240h-90l99 276l-210 14z" />
    <glyph glyph-name="uni2713" unicode="&#x2713;" horiz-adv-x="924" 
d="M354 194l375 372l61 -69l-439 -431l-217 250l64 59z" />
    <glyph glyph-name="uni2714" unicode="&#x2714;" horiz-adv-x="1287" 
d="M1116 717l104 -171q-498 -267 -809 -611q-145 200 -344 365l116 128q149 -119 243 -271q246 312 690 560z" />
    <glyph glyph-name="uni2776" unicode="&#x2776;" horiz-adv-x="891" 
d="M447 -9q-163 0 -276 111q-111 111 -111 274q0 162 111 273q113 111 276 111q162 0 273 -112q111 -111 111 -272q0 -163 -111 -274t-273 -111zM436 438v-281h72v417h-69v-4q0 -76 -76 -76h-39v-56h112z" />
    <glyph glyph-name="uni2777" unicode="&#x2777;" horiz-adv-x="892" 
d="M447 -9q-165 0 -276 111q-111 112 -111 275t111 272q111 111 276 111q163 0 274 -111q111 -109 111 -272t-111 -275q-111 -111 -274 -111zM317 171v-14h264v64h-117l-64 -3q16 40 103 101q34 24 57 60.5t23 76.5q0 55 -36.5 89t-96.5 34q-61 0 -101 -36.5t-40 -93.5
l71 -5q-1 33 17 53t49 20q29 0 46 -17t17 -45q0 -49 -68 -100q-36 -26 -58 -45t-44 -57t-22 -82z" />
    <glyph glyph-name="uni2778" unicode="&#x2778;" horiz-adv-x="892" 
d="M447 -9q-163 0 -276 111q-111 111 -111 274q0 162 111 273q113 111 276 111t274 -111t111 -273q0 -163 -111 -274t-274 -111zM586 273q0 73 -68 100v3q29 12 44.5 36.5t15.5 52.5q0 52 -37 83.5t-96 31.5q-63 0 -101 -37t-36 -95h73q-1 31 16 50t47 19q27 0 43 -14.5
t16 -41.5t-18.5 -43.5t-50.5 -16.5h-26v-62h33q31 0 51 -17t20 -46q0 -27 -18.5 -44.5t-48.5 -17.5t-47.5 18.5t-16.5 50.5h-73q-1 -60 37 -96t101 -36q62 0 101 34t39 88z" />
    <glyph glyph-name="uni2779" unicode="&#x2779;" horiz-adv-x="893" 
d="M447 -9q-163 0 -276 111q-111 112 -111 275t111 272q113 111 276 111t274 -111q112 -111 112 -272q0 -163 -112 -275q-111 -111 -274 -111zM469 248v-91h71v91h47v62h-47v264h-111l-148 -267v-59h188zM469 310h-109l109 196v-196z" />
    <glyph glyph-name="uni277A" unicode="&#x277a;" horiz-adv-x="893" 
d="M448 -9q-164 0 -277 111q-111 111 -111 274q0 162 111 273q113 111 277 111q163 0 274 -111t111 -273q0 -163 -111 -274t-274 -111zM453 151q65 0 105.5 40t40.5 104q0 62 -37 101.5t-95 39.5q-54 0 -76 -28l-3 3l2 40v60h185v63h-255v-238h68q7 17 25.5 27.5t39.5 10.5
q32 0 52 -23t20 -59q0 -35 -20 -56.5t-51 -21.5q-32 0 -51 20.5t-19 50.5h-73q-1 -60 39 -97t103 -37z" />
    <glyph glyph-name="uni277B" unicode="&#x277b;" horiz-adv-x="900" 
d="M447 -9q-163 0 -276 111q-111 111 -111 274q0 162 111 273q113 111 276 111q162 0 273 -112q111 -111 111 -272q0 -163 -111 -274t-273 -111zM453 151q64 0 105 40t41 103q0 62 -35.5 101t-92.5 39q-29 0 -55.5 -13.5t-38.5 -37.5h-3q0 134 82 134q24 0 41.5 -12.5
t21.5 -35.5h72q-5 49 -41.5 80t-90.5 31q-77 0 -117.5 -58.5t-40.5 -161.5q0 -99 39 -154t113 -55zM455 214q-32 0 -51.5 22.5t-19.5 56.5t19.5 56.5t51.5 22.5t51.5 -22t19.5 -57t-19.5 -57t-51.5 -22z" />
    <glyph glyph-name="uni277C" unicode="&#x277c;" horiz-adv-x="893" 
d="M447 -9q-163 0 -276 111q-111 112 -111 274t111 273q113 111 276 111t274 -111q112 -111 112 -273q0 -163 -112 -274q-111 -111 -274 -111zM361 157h76q34 202 160 366v51h-277v-132h53v69h134q-114 -153 -146 -354z" />
    <glyph glyph-name="uni277D" unicode="&#x277d;" horiz-adv-x="892" 
d="M447 -9q-163 0 -276 111q-111 112 -111 274t111 273q113 111 276 111t274 -111t111 -273q0 -163 -111 -274t-274 -111zM446 151q66 0 106 31.5t40 84.5q0 31 -16.5 57.5t-44.5 39.5v4q29 13 45 39t16 57q0 51 -40 83.5t-106 32.5t-105.5 -31.5t-39.5 -84.5q0 -69 61 -96
v-4q-28 -13 -44.5 -39.5t-16.5 -57.5q0 -52 39.5 -84t105.5 -32zM446 517q32 0 52 -17t20 -45q0 -26 -20 -44q-20 -17 -52 -17t-52 17q-19 20 -20 44.5t19.5 44t52.5 17.5zM446 214q-31 0 -51.5 17t-20.5 44t19.5 44.5t52.5 17.5q32 0 52 -17t20 -45q0 -27 -19.5 -44
t-52.5 -17z" />
    <glyph glyph-name="uni277E" unicode="&#x277e;" horiz-adv-x="893" 
d="M447 -9q-163 0 -276 111q-111 111 -111 274q0 162 112 273q113 111 275 111q163 0 274 -111q112 -111 112 -273q0 -163 -112 -274q-111 -111 -274 -111zM446 151q77 0 117 58t40 161q0 100 -39 155t-113 55q-64 0 -105 -41t-41 -102q0 -62 36 -101.5t92 -39.5q30 0 56 14
t39 37h3q0 -134 -82 -134q-24 0 -42 13t-22 35h-73q6 -50 42 -80t92 -30zM378 437q0 35 20 57t52 22t51.5 -22t19.5 -56q0 -35 -19.5 -57.5t-51.5 -22.5q-33 0 -52.5 21.5t-19.5 57.5z" />
    <glyph glyph-name="uni2780" unicode="&#x2780;" horiz-adv-x="891" 
d="M447 -9q-163 0 -276 111q-111 111 -111 274q0 162 111 273q113 111 276 111q162 0 273 -112q111 -111 111 -272q0 -163 -111 -274t-273 -111zM447 29q144 0 245 101t101 246q0 143 -101 244t-245 101q-148 0 -248 -100t-100 -245q0 -146 100 -246q101 -101 248 -101z
M436 157v281h-112v56h39q38 0 57 21.5t19 54.5v4h69v-417h-72z" />
    <glyph glyph-name="uni2781" unicode="&#x2781;" horiz-adv-x="891" 
d="M447 760q162 0 273 -112q111 -111 111 -272q0 -163 -111 -274t-273 -111q-163 0 -276 111q-111 111 -111 274q0 162 111 273q113 111 276 111zM447 29q144 0 245 101t101 246q0 143 -101 244t-245 101q-148 0 -248 -100t-100 -245q0 -146 100 -246q101 -101 248 -101z
M583 456q0 -40 -23 -76.5t-57 -60.5q-87 -61 -103 -101l64 3h117v-64h-264v14q0 83 68 140q11 9 40.5 32t43 35.5t27 34t13.5 42.5q0 28 -17 45t-46 17q-31 0 -49 -20t-17 -53l-71 5q0 57 40 93.5t101 36.5q60 0 96.5 -34t36.5 -89z" />
    <glyph glyph-name="uni2782" unicode="&#x2782;" horiz-adv-x="891" 
d="M447 -9q-163 0 -276 111q-111 111 -111 274q0 162 111 273q113 111 276 111q162 0 273 -112q111 -111 111 -272q0 -163 -111 -274t-273 -111zM447 29q144 0 245 101t101 246q0 143 -101 244t-245 101q-148 0 -248 -100t-100 -245q0 -146 100 -246q101 -101 248 -101z
M308 283h73q-1 -32 16.5 -50.5t47.5 -18.5t48.5 17.5t18.5 44.5q0 29 -20 46t-51 17h-33v62h26q32 0 50.5 16.5t18.5 43.5t-16 41.5t-43 14.5q-30 0 -47 -19t-16 -50h-73q-2 58 36 95t101 37q59 0 96 -31.5t37 -83.5q0 -28 -15.5 -52.5t-44.5 -36.5v-3q68 -27 68 -100
q0 -54 -39 -88t-101 -34q-63 0 -101 36t-37 96z" />
    <glyph glyph-name="uni2783" unicode="&#x2783;" horiz-adv-x="891" 
d="M447 -9q-163 0 -276 111q-111 111 -111 274q0 162 111 273q113 111 276 111q162 0 273 -112q111 -111 111 -272q0 -163 -111 -274t-273 -111zM447 29q144 0 245 101t101 246q0 143 -101 244t-245 101q-148 0 -248 -100t-100 -245q0 -146 100 -246q101 -101 248 -101z
M540 157h-71v91h-188v59l148 267h111v-264h47v-62h-47v-91zM469 506l-109 -196h109v196z" />
    <glyph glyph-name="uni2784" unicode="&#x2784;" horiz-adv-x="891" 
d="M447 -9q-163 0 -276 111q-111 111 -111 274q0 162 111 273q113 111 276 111q162 0 273 -112q111 -111 111 -272q0 -163 -111 -274t-273 -111zM447 29q144 0 245 101t101 246q0 143 -101 244t-245 101q-148 0 -248 -100t-100 -245q0 -146 100 -246q101 -101 248 -101z
M453 151q-63 0 -103 37t-39 97h73q0 -30 19 -50.5t51 -20.5q31 0 51 21.5t20 56.5q0 36 -20 59t-52 23q-21 0 -39.5 -10.5t-25.5 -27.5h-68v238h255v-63h-185v-60l-2 -40l3 -3q22 28 76 28q58 0 95 -39.5t37 -101.5q0 -64 -40.5 -104t-105.5 -40z" />
    <glyph glyph-name="uni2785" unicode="&#x2785;" horiz-adv-x="891" 
d="M447 -9q-163 0 -276 111q-111 111 -111 274q0 162 111 273q113 111 276 111q162 0 273 -112q111 -111 111 -272q0 -163 -111 -274t-273 -111zM447 29q144 0 245 101t101 246q0 143 -101 244t-245 101q-148 0 -248 -100t-100 -245q0 -146 100 -246q101 -101 248 -101z
M453 151q-74 0 -113 55t-39 154q0 103 40.5 161.5t117.5 58.5q54 0 90.5 -31t41.5 -80h-72q-4 23 -21.5 35.5t-41.5 12.5q-82 0 -82 -134h3q12 24 38.5 37.5t55.5 13.5q57 0 92.5 -39t35.5 -101q0 -63 -41 -103t-105 -40zM455 214q32 0 51.5 22t19.5 57t-19.5 57t-51.5 22
t-51.5 -22.5t-19.5 -56.5t19.5 -56.5t51.5 -22.5z" />
    <glyph glyph-name="uni2786" unicode="&#x2786;" horiz-adv-x="891" 
d="M60 376q0 162 111 273q113 111 276 111q162 0 273 -112q111 -111 111 -272q0 -163 -111 -274t-273 -111q-163 0 -276 111q-111 111 -111 274zM447 29q144 0 245 101t101 246q0 143 -101 244t-245 101q-148 0 -248 -100t-100 -245q0 -146 100 -246q101 -101 248 -101z
M373 442h-53v132h277v-51q-126 -164 -160 -366h-76q32 201 146 354h-134v-69z" />
    <glyph glyph-name="uni2787" unicode="&#x2787;" horiz-adv-x="891" 
d="M447 -9q-163 0 -276 111q-111 111 -111 274q0 162 111 273q113 111 276 111q162 0 273 -112q111 -111 111 -272q0 -163 -111 -274t-273 -111zM447 29q144 0 245 101t101 246q0 143 -101 244t-245 101q-148 0 -248 -100t-100 -245q0 -146 100 -246q101 -101 248 -101z
M446 151q-66 0 -105.5 32t-39.5 84q0 31 16.5 57.5t44.5 39.5v4q-61 27 -61 96q0 53 39.5 84.5t105.5 31.5t106 -32.5t40 -83.5q0 -31 -16 -57t-45 -39v-4q28 -13 44.5 -39.5t16.5 -57.5q0 -53 -40 -84.5t-106 -31.5zM518 455q0 28 -20 45t-52 17q-32 2 -52.5 -17.5
t-19.5 -44t20 -44.5q20 -17 52 -17t52 17t20 44zM446 214q33 0 52.5 17t19.5 44q0 28 -20 45t-52 17q-33 0 -52.5 -17.5t-19.5 -44.5t20.5 -44t51.5 -17z" />
    <glyph glyph-name="uni2788" unicode="&#x2788;" horiz-adv-x="891" 
d="M60 376q0 162 111 273q113 111 276 111q162 0 273 -112q111 -111 111 -272q0 -163 -111 -274t-273 -111q-163 0 -276 111q-111 111 -111 274zM447 29q144 0 245 101t101 246q0 143 -101 244t-245 101q-148 0 -248 -100t-100 -245q0 -146 100 -246q101 -101 248 -101z
M451 580q74 0 113 -55t39 -155q0 -103 -40 -161t-117 -58q-56 0 -92 30t-42 80h73q4 -22 22 -35t42 -13q82 0 82 134h-3q-13 -23 -39 -37t-56 -14q-56 0 -92 39.5t-36 101.5q0 61 41 102t105 41zM378 437q0 -36 19.5 -57.5t52.5 -21.5q32 0 51.5 22.5t19.5 57.5
q0 34 -19.5 56t-51.5 22t-52 -22t-20 -57z" />
    <glyph glyph-name="uniECE0" unicode="&#xece0;" horiz-adv-x="1042" 
d="M140 321v-262l-82 -62v732h348l-69 -88h-197v-235h157q16 142 119 236q104 95 244 95q89 0 167 -41.5t130 -116.5l-71 -53q-37 56 -99 90.5t-129 34.5q-111 0 -194 -83q-82 -82 -82 -203q0 -122 82 -204q83 -83 194 -83q68 0 129 34t98 90l72 -52q-52 -76 -130 -117.5
t-167 -41.5q-140 0 -243 93q-103 94 -120 237h-157zM534 365q0 -54 35 -94q36 -38 88 -38q66 0 107 63l69 -52q-30 -46 -76 -71t-98 -25q-89 0 -150 64q-62 65 -62 153q0 87 62 151q63 64 150 64q52 0 98.5 -25.5t75.5 -69.5l-69 -53q-38 62 -107 62q-52 0 -88 -38
q-35 -38 -35 -91z" />
    <glyph glyph-name="uniEFCC" unicode="&#xefcc;" horiz-adv-x="1198" 
d="M478 734q20 0 38 -2v-102q-21 3 -37 3q-119 0 -192 -75q-72 -75 -72 -197q0 -121 72 -196q73 -75 192 -75q22 0 37 3v-103q-24 -2 -38 -2q-163 0 -263 103q-99 103 -99 270t100 270t262 103zM741 366q0 166 96 267q98 101 260 101q20 0 44 -2v-102q-19 3 -40 3
q-103 0 -174 -55q-71 -56 -81 -165h219v-94h-219q10 -110 81 -166q72 -54 174 -54q28 0 40 3v-103q-26 -2 -44 -2q-163 0 -260 100q-96 101 -96 269z" />
    <glyph glyph-name="uniF8FF" unicode="&#xf8ff;" horiz-adv-x="640" 
d="M429 632q-16 -21 -43 -36.5t-48 -19.5l-18 -3l-1 10q-6 57 31 104q22 29 51 47t49 19l17 1q-1 -2 1 -19q2 -16 -8.5 -47t-30.5 -56zM211 0q-44 0 -89 53q-45 56 -73 134q-28 80 -28 156q0 104 53 166q54 62 124 62q28 0 70 -17t56 -17q16 0 56 18q42 18 80 18
q51 0 87 -23t49 -45l5 -8l-5 -3q-4 -3 -11 -8.5t-15.5 -13.5t-17 -19.5t-15.5 -25.5t-11.5 -33t-4.5 -39q0 -58 29.5 -96t59.5 -53l10 -5q-5 -19 -28 -70q-14 -33 -33 -61q-20 -29 -48 -49t-55 -20q-19 0 -59 14q-37 15 -62 15t-66 -15t-58 -15z" />
    <glyph glyph-name="NULL" horiz-adv-x="0" 
 />
    <glyph glyph-name="CR" horiz-adv-x="333" 
 />
    <glyph glyph-name="uni00A40301" horiz-adv-x="399" 
d="M403 984l43 -68l-193 -116l-33 50zM202 97v632h107v-638q0 -91 -91 -91h-202v97h186z" />
    <glyph glyph-name="G.ss01" horiz-adv-x="772" 
d="M42 360q0 176 93 277t251 101q130 0 219 -68t105 -177h-116q-15 69 -70.5 108.5t-136.5 39.5q-107 0 -168 -63q-62 -62 -62 -165v-100q0 -108 64 -169t170 -61q103 0 163 55.5t62 150.5h-206v95h320v-53q0 -165 -93 -253q-92 -88 -249 -88q-163 0 -255 98q-91 98 -91 272
z" />
    <glyph glyph-name="Gbreve.ss01" horiz-adv-x="772" 
d="M473 946h69q0 -66 -40.5 -107t-108.5 -41t-108 40.5t-40 107.5h68q0 -40 22 -63t58 -23t58 23t22 63zM42 360q0 176 93 277t251 101q130 0 219 -68t105 -177h-116q-15 69 -70.5 108.5t-136.5 39.5q-107 0 -168 -63q-62 -62 -62 -165v-100q0 -108 64 -169t170 -61
q103 0 163 55.5t62 150.5h-206v95h320v-53q0 -165 -93 -253q-92 -88 -249 -88q-163 0 -255 98q-91 98 -91 272z" />
    <glyph glyph-name="uni0122.ss01" horiz-adv-x="772" 
d="M42 360q0 176 93 277t251 101q130 0 219 -68t105 -177h-116q-15 69 -70.5 108.5t-136.5 39.5q-107 0 -168 -63q-62 -62 -62 -165v-100q0 -108 64 -169t170 -61q103 0 163 55.5t62 150.5h-206v95h320v-53q0 -165 -93 -253q-92 -88 -249 -88q-163 0 -255 98q-91 98 -91 272
zM348 -239v32q20 0 32 13t12 36v5h-44v98h91v-87q0 -47 -24 -72t-67 -25z" />
    <glyph glyph-name="Gdotaccent.ss01" horiz-adv-x="772" 
d="M438 811h-88v121h88v-121zM42 360q0 176 93 277t251 101q130 0 219 -68t105 -177h-116q-15 69 -70.5 108.5t-136.5 39.5q-107 0 -168 -63q-62 -62 -62 -165v-100q0 -108 64 -169t170 -61q103 0 163 55.5t62 150.5h-206v95h320v-53q0 -165 -93 -253q-92 -88 -249 -88
q-163 0 -255 98q-91 98 -91 272z" />
    <glyph glyph-name="R.ss02" horiz-adv-x="730" 
d="M204 0h-109v729h346q113 0 170 -59.5t57 -167.5q0 -77 -36.5 -129t-100.5 -73v-8q21 -8 37 -29.5t33 -66.5l80 -196h-121l-78 199q-20 49 -43 62q-23 14 -70 14h-165v-275zM204 630v-264h229q54 0 87 29t33 75v64q0 44 -30.5 70t-80.5 26h-238z" />
    <glyph glyph-name="Racute.ss02" horiz-adv-x="730" 
d="M576 916l-193 -116l-33 50l183 134zM204 0h-109v729h346q113 0 170 -59.5t57 -167.5q0 -77 -36.5 -129t-100.5 -73v-8q21 -8 37 -29.5t33 -66.5l80 -196h-121l-78 199q-20 49 -43 62q-23 14 -70 14h-165v-275zM204 630v-264h229q54 0 87 29t33 75v64q0 44 -30.5 70
t-80.5 26h-238z" />
    <glyph glyph-name="Rcaron.ss02" horiz-adv-x="730" 
d="M352 778l-124 129l52 48l104 -113l106 113l51 -48l-123 -129h-66zM204 0h-109v729h346q113 0 170 -59.5t57 -167.5q0 -77 -36.5 -129t-100.5 -73v-8q21 -8 37 -29.5t33 -66.5l80 -196h-121l-78 199q-20 49 -43 62q-23 14 -70 14h-165v-275zM204 630v-264h229q54 0 87 29
t33 75v64q0 44 -30.5 70t-80.5 26h-238z" />
    <glyph glyph-name="uni0156.ss02" horiz-adv-x="730" 
d="M204 0h-109v729h346q113 0 170 -59.5t57 -167.5q0 -77 -36.5 -129t-100.5 -73v-8q21 -8 37 -29.5t33 -66.5l80 -196h-121l-78 199q-20 49 -43 62q-23 14 -70 14h-165v-275zM204 630v-264h229q54 0 87 29t33 75v64q0 44 -30.5 70t-80.5 26h-238zM339 -239v32q20 0 32 13
t12 36v5h-44v98h91v-87q0 -47 -24 -72t-67 -25z" />
    <glyph glyph-name="O.ss03" 
d="M42 363q0 178 91 276q91 99 254 99q161 0 253 -99q91 -98 91 -276q0 -177 -91 -275q-90 -98 -253 -98q-162 0 -254 98q-91 98 -91 275zM157 416v-103q0 -106 62 -166t168 -60q108 0 169 61t61 165v103q0 105 -62 165t-168 60q-108 0 -169 -60.5t-61 -164.5zM439 312h-108
v105h108v-105z" />
    <glyph glyph-name="Oacute.ss03" 
d="M577 916l-193 -116l-33 50l183 134zM42 363q0 178 91 276q91 99 254 99q161 0 253 -99q91 -98 91 -276q0 -177 -91 -275q-90 -98 -253 -98q-162 0 -254 98q-91 98 -91 275zM157 416v-103q0 -106 62 -166t168 -60q108 0 169 61t61 165v103q0 105 -62 165t-168 60
q-108 0 -169 -60.5t-61 -164.5zM439 312h-108v105h108v-105z" />
    <glyph glyph-name="Ocircumflex.ss03" 
d="M279 791l-50 49l124 127h66l123 -127l-51 -49l-106 112zM42 363q0 178 91 276q91 99 254 99q161 0 253 -99q91 -98 91 -276q0 -177 -91 -275q-90 -98 -253 -98q-162 0 -254 98q-91 98 -91 275zM157 416v-103q0 -106 62 -166t168 -60q108 0 169 61t61 165v103
q0 105 -62 165t-168 60q-108 0 -169 -60.5t-61 -164.5zM439 312h-108v105h108v-105z" />
    <glyph glyph-name="Odieresis.ss03" 
d="M331 811h-87v121h87v-121zM527 811h-88v121h88v-121zM42 363q0 178 91 276q91 99 254 99q161 0 253 -99q91 -98 91 -276q0 -177 -91 -275q-90 -98 -253 -98q-162 0 -254 98q-91 98 -91 275zM157 416v-103q0 -106 62 -166t168 -60q108 0 169 61t61 165v103q0 105 -62 165
t-168 60q-108 0 -169 -60.5t-61 -164.5zM439 312h-108v105h108v-105z" />
    <glyph glyph-name="Ograve.ss03" 
d="M418 850l-33 -50l-193 116l44 68zM42 363q0 178 91 276q91 99 254 99q161 0 253 -99q91 -98 91 -276q0 -177 -91 -275q-90 -98 -253 -98q-162 0 -254 98q-91 98 -91 275zM157 416v-103q0 -106 62 -166t168 -60q108 0 169 61t61 165v103q0 105 -62 165t-168 60
q-108 0 -169 -60.5t-61 -164.5zM439 312h-108v105h108v-105z" />
    <glyph glyph-name="Ohungarumlaut.ss03" 
d="M471 897l-183 -126l-35 48l173 144zM674 887l-191 -116l-32 50l179 133zM42 363q0 178 91 276q91 99 254 99q161 0 253 -99q91 -98 91 -276q0 -177 -91 -275q-90 -98 -253 -98q-162 0 -254 98q-91 98 -91 275zM157 416v-103q0 -106 62 -166t168 -60q108 0 169 61t61 165
v103q0 105 -62 165t-168 60q-108 0 -169 -60.5t-61 -164.5zM439 312h-108v105h108v-105z" />
    <glyph glyph-name="Omacron.ss03" 
d="M546 808h-322v76h322v-76zM42 363q0 178 91 276q91 99 254 99q161 0 253 -99q91 -98 91 -276q0 -177 -91 -275q-90 -98 -253 -98q-162 0 -254 98q-91 98 -91 275zM157 416v-103q0 -106 62 -166t168 -60q108 0 169 61t61 165v103q0 105 -62 165t-168 60q-108 0 -169 -60.5
t-61 -164.5zM439 312h-108v105h108v-105z" />
    <glyph glyph-name="Otilde.ss03" 
d="M445 795q-28 0 -68 17q-39 18 -59 18q-30 0 -53 -35l-44 31q36 78 100 78q27 -2 66 -19q42 -17 61 -17q35 0 56 36l44 -32q-33 -77 -103 -77zM42 363q0 178 91 276q91 99 254 99q161 0 253 -99q91 -98 91 -276q0 -177 -91 -275q-90 -98 -253 -98q-162 0 -254 98
q-91 98 -91 275zM157 416v-103q0 -106 62 -166t168 -60q108 0 169 61t61 165v103q0 105 -62 165t-168 60q-108 0 -169 -60.5t-61 -164.5zM439 312h-108v105h108v-105z" />
    <glyph glyph-name="A.ss04" horiz-adv-x="750" 
d="M330 729h90l239 -281v-448h-109v168h-350v-168h-109v448zM200 418v-159h350v159l-170 206h-10z" />
    <glyph glyph-name="Aacute.ss04" horiz-adv-x="750" 
d="M524 981l43 -68l-193 -116l-33 50zM330 729h90l239 -281v-448h-109v168h-350v-168h-109v448zM200 418v-159h350v159l-170 206h-10z" />
    <glyph glyph-name="Abreve.ss04" horiz-adv-x="750" 
d="M226 942h68q0 -40 22 -63t58 -23t58 23t22 63h69q0 -66 -40.5 -107t-108.5 -41t-108 40.5t-40 107.5zM330 729h90l239 -281v-448h-109v168h-350v-168h-109v448zM200 418v-159h350v159l-170 206h-10z" />
    <glyph glyph-name="Acircumflex.ss04" horiz-adv-x="750" 
d="M481 788l-106 112l-106 -112l-50 49l124 127h66l123 -127zM330 729h90l239 -281v-448h-109v168h-350v-168h-109v448zM200 418v-159h350v159l-170 206h-10z" />
    <glyph glyph-name="Adieresis.ss04" horiz-adv-x="750" 
d="M234 929h87v-121h-87v121zM429 929h88v-121h-88v121zM330 729h90l239 -281v-448h-109v168h-350v-168h-109v448zM200 418v-159h350v159l-170 206h-10z" />
    <glyph glyph-name="Agrave.ss04" horiz-adv-x="750" 
d="M226 981l182 -134l-33 -50l-193 116zM330 729h90l239 -281v-448h-109v168h-350v-168h-109v448zM200 418v-159h350v159l-170 206h-10z" />
    <glyph glyph-name="Amacron.ss04" horiz-adv-x="750" 
d="M214 881h322v-76h-322v76zM330 729h90l239 -281v-448h-109v168h-350v-168h-109v448zM200 418v-159h350v159l-170 206h-10z" />
    <glyph glyph-name="Aogonek.ss04" horiz-adv-x="750" 
d="M636 -130q24 0 53 12v-57q-32 -15 -73 -13q-46 2 -74.5 27.5t-28.5 66.5q0 56 50 94h-13v168h-350v-168h-109v448l239 281h90l239 -281v-448q-82 -21 -82 -82q0 -48 59 -48zM200 418v-159h350v159l-170 206h-10z" />
    <glyph glyph-name="Aring.ss04" horiz-adv-x="750" 
d="M433 714l226 -266v-448h-109v168h-350v-168h-109v448l226 266q-57 28 -57 99q0 51 32 81.5t83 30.5t83 -30.5t32 -81.5q0 -71 -57 -99zM321 813q0 -25 15 -41t39 -16t38.5 16t14.5 41q0 26 -14.5 42t-38.5 16t-39 -16t-15 -42zM200 418v-159h350v159l-170 206h-10z" />
    <glyph glyph-name="Atilde.ss04" horiz-adv-x="750" 
d="M309 826q-30 0 -53 -35l-44 31q36 78 100 78q27 -2 66 -19q42 -17 61 -17q35 0 56 36l44 -32q-33 -77 -103 -77q-26 0 -68 17q-40 18 -59 18zM330 729h90l239 -281v-448h-109v168h-350v-168h-109v448zM200 418v-159h350v159l-170 206h-10z" />
    <glyph glyph-name="I.ss04" horiz-adv-x="652" 
d="M574 729v-97h-193v-535h193v-97h-496v97h194v535h-194v97h496z" />
    <glyph glyph-name="V.ss04" horiz-adv-x="757" 
d="M95 280v449h108v-421l170 -206h11l169 206v421h109v-449l-238 -280h-91z" />
    <glyph glyph-name="W.ss04" horiz-adv-x="951" 
d="M251 0l-156 264v465h108v-441l99 -178h12l108 184v227h100v-227l114 -184h12l99 178v441h109v-465l-157 -264h-101l-126 203l-120 -203h-101z" />
    <glyph glyph-name="Wacute.ss04" horiz-adv-x="951" 
d="M667 916l-193 -116l-33 50l183 134zM251 0l-156 264v465h108v-441l99 -178h12l108 184v227h100v-227l114 -184h12l99 178v441h109v-465l-157 -264h-101l-126 203l-120 -203h-101z" />
    <glyph glyph-name="Wcircumflex.ss04" horiz-adv-x="951" 
d="M369 791l-50 49l124 127h66l123 -127l-51 -49l-106 112zM251 0l-156 264v465h108v-441l99 -178h12l108 184v227h100v-227l114 -184h12l99 178v441h109v-465l-157 -264h-101l-126 203l-120 -203h-101z" />
    <glyph glyph-name="Wdieresis.ss04" horiz-adv-x="951" 
d="M421 811h-87v121h87v-121zM617 811h-88v121h88v-121zM251 0l-156 264v465h108v-441l99 -178h12l108 184v227h100v-227l114 -184h12l99 178v441h109v-465l-157 -264h-101l-126 203l-120 -203h-101z" />
    <glyph glyph-name="Wgrave.ss04" horiz-adv-x="951" 
d="M509 850l-33 -50l-193 116l44 68zM251 0l-156 264v465h108v-441l99 -178h12l108 184v227h100v-227l114 -184h12l99 178v441h109v-465l-157 -264h-101l-126 203l-120 -203h-101z" />
    <glyph glyph-name="Y.ss04" horiz-adv-x="691" 
d="M520 729h109v-239l-229 -267v-223h-109v223l-229 267v239h108v-212l170 -203h11l169 203v212z" />
    <glyph glyph-name="Yacute.ss04" horiz-adv-x="691" 
d="M495 984l43 -68l-193 -116l-33 50zM520 729h109v-239l-229 -267v-223h-109v223l-229 267v239h108v-212l170 -203h11l169 203v212z" />
    <glyph glyph-name="Ycircumflex.ss04" horiz-adv-x="691" 
d="M451 791l-106 112l-106 -112l-50 49l124 127h66l123 -127zM520 729h109v-239l-229 -267v-223h-109v223l-229 267v239h108v-212l170 -203h11l169 203v212z" />
    <glyph glyph-name="Ydieresis.ss04" horiz-adv-x="691" 
d="M204 932h87v-121h-87v121zM399 932h88v-121h-88v121zM520 729h109v-239l-229 -267v-223h-109v223l-229 267v239h108v-212l170 -203h11l169 203v212z" />
    <glyph glyph-name="Ygrave.ss04" horiz-adv-x="691" 
d="M197 984l182 -134l-33 -50l-193 116zM520 729h109v-239l-229 -267v-223h-109v223l-229 267v239h108v-212l170 -203h11l169 203v212z" />
    <glyph glyph-name="i.loclTRK" horiz-adv-x="264" 
d="M180 614h-96v121h96v-121zM183 0h-102v526h102v-526z" />
    <glyph glyph-name="uni006A0301" horiz-adv-x="273" 
d="M290 781l43 -68l-193 -116l-33 50zM90 -84v610h103l-1 -494v-108q0 -91 -91 -91h-124v83h113z" />
    <glyph glyph-name="s.001" horiz-adv-x="515" 
d="M38 161h101q-1 -45 30.5 -69t89.5 -24q53 0 82 20.5t29 56.5q0 55 -69 67l-97 19q-156 30 -156 146q0 74 55.5 116.5t149.5 42.5q93 0 148 -44t57 -118h-100q-3 84 -108 84q-48 0 -73 -18.5t-25 -51.5q0 -38 31 -54q29 -11 55 -16l101 -20q138 -28 138 -145
q0 -75 -60 -119t-160 -44q-102 0 -161 46t-58 125z" />
    <glyph glyph-name="germandbls.alt01" horiz-adv-x="678" 
d="M579 586l-117 -162q80 -13 123.5 -66t43.5 -136q0 -107 -69 -164.5t-190 -57.5h-102v92h110q62 0 98 28t36 74v70q0 44 -37 70.5t-98 26.5h-65l151 218q-11 30 -46.5 48t-82.5 18q-63 0 -97 -33t-34 -92v-520h-108v514q0 106 64.5 165t176.5 59q93 0 157 -40.5t86 -111.5
z" />
    <glyph glyph-name="a.ss01" horiz-adv-x="633" 
d="M459 526h93v-526h-103v100h-8q-20 -50 -68.5 -80t-110.5 -30q-107 0 -164 72t-57 202t58 201t165 71q58 0 106 -27.5t71 -75.5h8zM449 233v63q0 66 -45 110q-44 44 -115 44q-66 0 -104.5 -36.5t-38.5 -97.5v-103q0 -64 39 -100.5t105 -36.5q70 0 114 44q45 44 45 113z
" />
    <glyph glyph-name="aacute.ss01" horiz-adv-x="633" 
d="M461 724l-193 -116l-33 50l183 134zM459 526h93v-526h-103v100h-8q-20 -50 -68.5 -80t-110.5 -30q-107 0 -164 72t-57 202t58 201t165 71q58 0 106 -27.5t71 -75.5h8zM449 233v63q0 66 -45 110q-44 44 -115 44q-66 0 -104.5 -36.5t-38.5 -97.5v-103q0 -64 39 -100.5
t105 -36.5q70 0 114 44q45 44 45 113z" />
    <glyph glyph-name="abreve.ss01" horiz-adv-x="633" 
d="M348 753h69q0 -66 -40.5 -107t-108.5 -41t-108 40.5t-40 107.5h68q0 -39 22 -62.5t58 -23.5t58 23.5t22 62.5zM459 526h93v-526h-103v100h-8q-20 -50 -68.5 -80t-110.5 -30q-107 0 -164 72t-57 202t58 201t165 71q58 0 106 -27.5t71 -75.5h8zM449 233v63q0 66 -45 110
q-44 44 -115 44q-66 0 -104.5 -36.5t-38.5 -97.5v-103q0 -64 39 -100.5t105 -36.5q70 0 114 44q45 44 45 113z" />
    <glyph glyph-name="acircumflex.ss01" horiz-adv-x="633" 
d="M163 599l-50 49l124 127h66l123 -127l-51 -49l-106 112zM459 526h93v-526h-103v100h-8q-20 -50 -68.5 -80t-110.5 -30q-107 0 -164 72t-57 202t58 201t165 71q58 0 106 -27.5t71 -75.5h8zM449 233v63q0 66 -45 110q-44 44 -115 44q-66 0 -104.5 -36.5t-38.5 -97.5v-103
q0 -64 39 -100.5t105 -36.5q70 0 114 44q45 44 45 113z" />
    <glyph glyph-name="adieresis.ss01" horiz-adv-x="633" 
d="M244 601h-88v122h88v-122zM439 601h-87v122h87v-122zM459 526h93v-526h-103v100h-8q-20 -50 -68.5 -80t-110.5 -30q-107 0 -164 72t-57 202t58 201t165 71q58 0 106 -27.5t71 -75.5h8zM449 233v63q0 66 -45 110q-44 44 -115 44q-66 0 -104.5 -36.5t-38.5 -97.5v-103
q0 -64 39 -100.5t105 -36.5q70 0 114 44q45 44 45 113z" />
    <glyph glyph-name="agrave.ss01" horiz-adv-x="633" 
d="M302 658l-33 -50l-193 116l44 68zM459 526h93v-526h-103v100h-8q-20 -50 -68.5 -80t-110.5 -30q-107 0 -164 72t-57 202t58 201t165 71q58 0 106 -27.5t71 -75.5h8zM449 233v63q0 66 -45 110q-44 44 -115 44q-66 0 -104.5 -36.5t-38.5 -97.5v-103q0 -64 39 -100.5
t105 -36.5q70 0 114 44q45 44 45 113z" />
    <glyph glyph-name="amacron.ss01" horiz-adv-x="633" 
d="M430 616h-322v76h322v-76zM459 526h93v-526h-103v100h-8q-20 -50 -68.5 -80t-110.5 -30q-107 0 -164 72t-57 202t58 201t165 71q58 0 106 -27.5t71 -75.5h8zM449 233v63q0 66 -45 110q-44 44 -115 44q-66 0 -104.5 -36.5t-38.5 -97.5v-103q0 -64 39 -100.5t105 -36.5
q70 0 114 44q45 44 45 113z" />
    <glyph glyph-name="aogonek.ss01" horiz-adv-x="633" 
d="M524 -130q24 0 53 12v-57q-32 -15 -73 -13q-46 2 -74.5 27.5t-28.5 66.5q0 56 50 94h-2v100h-8q-20 -50 -68.5 -80t-110.5 -30q-107 0 -164 72t-57 202t58 201t165 71q58 0 106 -27.5t71 -75.5h8l10 93h93v-526h-5q-82 -21 -82 -82q0 -48 59 -48zM449 233v63
q0 66 -45 110q-44 44 -115 44q-66 0 -104.5 -36.5t-38.5 -97.5v-103q0 -64 39 -100.5t105 -36.5q70 0 114 44q45 44 45 113z" />
    <glyph glyph-name="aring.ss01" horiz-adv-x="633" 
d="M449 433l10 93h93v-526h-103v100h-8q-20 -50 -68.5 -80t-110.5 -30q-107 0 -164 72t-57 202q0 110 42 178t121 87q-50 32 -50 95q0 51 32 81.5t83 30.5t83 -30.5t32 -81.5q0 -67 -55 -98q79 -24 112 -93h8zM215 624q0 -25 15 -41t39 -16t38.5 16t14.5 41q0 26 -14.5 42
t-38.5 16t-39 -16t-15 -42zM449 233v63q0 66 -45 110q-44 44 -115 44q-66 0 -104.5 -36.5t-38.5 -97.5v-103q0 -64 39 -100.5t105 -36.5q70 0 114 44q45 44 45 113z" />
    <glyph glyph-name="atilde.ss01" horiz-adv-x="633" 
d="M330 602q-27 0 -69 17q-39 18 -58 18q-30 0 -53 -35l-44 31q36 78 100 78q27 -2 66 -19q42 -17 61 -17q35 0 56 36l44 -32q-33 -77 -103 -77zM459 526h93v-526h-103v100h-8q-20 -50 -68.5 -80t-110.5 -30q-107 0 -164 72t-57 202t58 201t165 71q58 0 106 -27.5t71 -75.5
h8zM449 233v63q0 66 -45 110q-44 44 -115 44q-66 0 -104.5 -36.5t-38.5 -97.5v-103q0 -64 39 -100.5t105 -36.5q70 0 114 44q45 44 45 113z" />
    <glyph glyph-name="g.ss01" horiz-adv-x="633" 
d="M264 536q58 0 106 -27.5t71 -75.5h8l10 93h93v-486q0 -101 -66.5 -159t-181.5 -58q-101 0 -163 42.5t-68 113.5h100q4 -37 39.5 -58.5t91.5 -21.5q70 0 107.5 35t37.5 96v96h-8q-20 -50 -68.5 -80t-110.5 -30q-106 0 -163.5 70t-57.5 192q0 121 59 189.5t164 68.5z
M146 326v-96q0 -57 39 -92.5t105 -35.5q70 0 114 42q45 44 45 106v56q0 60 -45 102t-115 42q-65 0 -104 -34.5t-39 -89.5z" />
    <glyph glyph-name="gbreve.ss01" horiz-adv-x="633" 
d="M360 743h69q0 -66 -40.5 -107t-108.5 -41t-108 40.5t-40 107.5h68q0 -39 22 -62.5t58 -23.5t58 23.5t22 62.5zM264 536q58 0 106 -27.5t71 -75.5h8l10 93h93v-486q0 -101 -66.5 -159t-181.5 -58q-101 0 -163 42.5t-68 113.5h100q4 -37 39.5 -58.5t91.5 -21.5
q70 0 107.5 35t37.5 96v96h-8q-20 -50 -68.5 -80t-110.5 -30q-106 0 -163.5 70t-57.5 192q0 121 59 189.5t164 68.5zM146 326v-96q0 -57 39 -92.5t105 -35.5q70 0 114 42q45 44 45 106v56q0 60 -45 102t-115 42q-65 0 -104 -34.5t-39 -89.5z" />
    <glyph glyph-name="uni0123.ss01" horiz-adv-x="633" 
d="M325 792v-32q-20 0 -31.5 -13t-11.5 -35v-6h43v-98h-90v83q0 48 24 74.5t66 26.5zM264 536q58 0 106 -27.5t71 -75.5h8l10 93h93v-486q0 -101 -66.5 -159t-181.5 -58q-101 0 -163 42.5t-68 113.5h100q4 -37 39.5 -58.5t91.5 -21.5q70 0 107.5 35t37.5 96v96h-8
q-20 -50 -68.5 -80t-110.5 -30q-106 0 -163.5 70t-57.5 192q0 121 59 189.5t164 68.5zM146 326v-96q0 -57 39 -92.5t105 -35.5q70 0 114 42q45 44 45 106v56q0 60 -45 102t-115 42q-65 0 -104 -34.5t-39 -89.5z" />
    <glyph glyph-name="gdotaccent.ss01" horiz-adv-x="633" 
d="M324 608h-88v121h88v-121zM264 536q58 0 106 -27.5t71 -75.5h8l10 93h93v-486q0 -101 -66.5 -159t-181.5 -58q-101 0 -163 42.5t-68 113.5h100q4 -37 39.5 -58.5t91.5 -21.5q70 0 107.5 35t37.5 96v96h-8q-20 -50 -68.5 -80t-110.5 -30q-106 0 -163.5 70t-57.5 192
q0 121 59 189.5t164 68.5zM146 326v-96q0 -57 39 -92.5t105 -35.5q70 0 114 42q45 44 45 106v56q0 60 -45 102t-115 42q-65 0 -104 -34.5t-39 -89.5z" />
    <glyph glyph-name="a.ss02" horiz-adv-x="555" 
d="M41 150q0 78 50.5 121t140.5 43h150v40q0 101 -111 101q-53 0 -82.5 -23t-32.5 -62h-100q7 80 64.5 123t155.5 43q104 0 156.5 -49t52.5 -140v-347h-92l-10 88h-7q-18 -46 -63 -72t-107 -26q-77 0 -121 43.5t-44 116.5zM146 172v-26q0 -36 24 -55t66 -19q66 0 106.5 40
t40.5 106v24h-139q-46 0 -72 -19t-26 -51z" />
    <glyph glyph-name="aacute.ss02" horiz-adv-x="555" 
d="M468 720l-193 -116l-33 50l183 134zM41 150q0 78 50.5 121t140.5 43h150v40q0 101 -111 101q-53 0 -82.5 -23t-32.5 -62h-100q7 80 64.5 123t155.5 43q104 0 156.5 -49t52.5 -140v-347h-92l-10 88h-7q-18 -46 -63 -72t-107 -26q-77 0 -121 43.5t-44 116.5zM146 172v-26
q0 -36 24 -55t66 -19q66 0 106.5 40t40.5 106v24h-139q-46 0 -72 -19t-26 -51z" />
    <glyph glyph-name="abreve.ss02" horiz-adv-x="555" 
d="M355 749h69q0 -66 -40.5 -107t-108.5 -41t-108 40.5t-40 107.5h68q0 -39 22 -62.5t58 -23.5t58 23.5t22 62.5zM41 150q0 78 50.5 121t140.5 43h150v40q0 101 -111 101q-53 0 -82.5 -23t-32.5 -62h-100q7 80 64.5 123t155.5 43q104 0 156.5 -49t52.5 -140v-347h-92l-10 88
h-7q-18 -46 -63 -72t-107 -26q-77 0 -121 43.5t-44 116.5zM146 172v-26q0 -36 24 -55t66 -19q66 0 106.5 40t40.5 106v24h-139q-46 0 -72 -19t-26 -51z" />
    <glyph glyph-name="acircumflex.ss02" horiz-adv-x="555" 
d="M170 595l-50 49l124 127h66l123 -127l-51 -49l-106 112zM41 150q0 78 50.5 121t140.5 43h150v40q0 101 -111 101q-53 0 -82.5 -23t-32.5 -62h-100q7 80 64.5 123t155.5 43q104 0 156.5 -49t52.5 -140v-347h-92l-10 88h-7q-18 -46 -63 -72t-107 -26q-77 0 -121 43.5
t-44 116.5zM146 172v-26q0 -36 24 -55t66 -19q66 0 106.5 40t40.5 106v24h-139q-46 0 -72 -19t-26 -51z" />
    <glyph glyph-name="adieresis.ss02" horiz-adv-x="555" 
d="M222 614h-87v121h87v-121zM418 614h-88v121h88v-121zM41 150q0 78 50.5 121t140.5 43h150v40q0 101 -111 101q-53 0 -82.5 -23t-32.5 -62h-100q7 80 64.5 123t155.5 43q104 0 156.5 -49t52.5 -140v-347h-92l-10 88h-7q-18 -46 -63 -72t-107 -26q-77 0 -121 43.5
t-44 116.5zM146 172v-26q0 -36 24 -55t66 -19q66 0 106.5 40t40.5 106v24h-139q-46 0 -72 -19t-26 -51z" />
    <glyph glyph-name="agrave.ss02" horiz-adv-x="555" 
d="M309 654l-33 -50l-193 116l44 68zM41 150q0 78 50.5 121t140.5 43h150v40q0 101 -111 101q-53 0 -82.5 -23t-32.5 -62h-100q7 80 64.5 123t155.5 43q104 0 156.5 -49t52.5 -140v-347h-92l-10 88h-7q-18 -46 -63 -72t-107 -26q-77 0 -121 43.5t-44 116.5zM146 172v-26
q0 -36 24 -55t66 -19q66 0 106.5 40t40.5 106v24h-139q-46 0 -72 -19t-26 -51z" />
    <glyph glyph-name="amacron.ss02" horiz-adv-x="555" 
d="M437 611h-322v76h322v-76zM41 150q0 78 50.5 121t140.5 43h150v40q0 101 -111 101q-53 0 -82.5 -23t-32.5 -62h-100q7 80 64.5 123t155.5 43q104 0 156.5 -49t52.5 -140v-347h-92l-10 88h-7q-18 -46 -63 -72t-107 -26q-77 0 -121 43.5t-44 116.5zM146 172v-26
q0 -36 24 -55t66 -19q66 0 106.5 40t40.5 106v24h-139q-46 0 -72 -19t-26 -51z" />
    <glyph glyph-name="aogonek.ss02" horiz-adv-x="555" 
d="M461 -130q25 0 53 12v-57q-32 -15 -73 -13q-46 2 -74.5 27.5t-28.5 66.5q0 60 55 97l-10 85h-7q-18 -46 -63 -72t-107 -26q-77 0 -121 43.5t-44 116.5q0 78 50.5 121t140.5 43h150v40q0 101 -111 101q-53 0 -82.5 -23t-32.5 -62h-100q7 80 64.5 123t155.5 43
q104 0 156.5 -49t52.5 -140v-347h-1q-82 -21 -82 -82q0 -48 59 -48zM383 218v24h-139q-46 0 -72 -19t-26 -51v-26q0 -36 24 -55t66 -19q66 0 106.5 40t40.5 106z" />
    <glyph glyph-name="aring.ss02" horiz-adv-x="555" 
d="M347 529q138 -30 138 -182v-347h-92l-10 88h-7q-18 -46 -63 -72t-107 -26q-77 0 -121 43.5t-44 116.5q0 78 50.5 121t140.5 43h150v40q0 101 -111 101q-53 0 -82.5 -23t-32.5 -62h-100q10 129 149 159q-44 32 -44 91q0 51 32 81.5t83 30.5t83 -30.5t32 -81.5
q0 -59 -44 -91zM222 620q0 -25 15 -41t39 -16t38.5 16t14.5 41q0 26 -14.5 42t-38.5 16t-39 -16t-15 -42zM383 218v24h-139q-46 0 -72 -19t-26 -51v-26q0 -36 24 -55t66 -19q66 0 106.5 40t40.5 106z" />
    <glyph glyph-name="atilde.ss02" horiz-adv-x="555" 
d="M337 598q-28 0 -68 17q-39 18 -59 18q-30 0 -53 -35l-44 31q36 78 100 78q27 -2 66 -19q42 -17 61 -17q35 0 56 36l44 -32q-33 -77 -103 -77zM41 150q0 78 50.5 121t140.5 43h150v40q0 101 -111 101q-53 0 -82.5 -23t-32.5 -62h-100q7 80 64.5 123t155.5 43
q104 0 156.5 -49t52.5 -140v-347h-92l-10 88h-7q-18 -46 -63 -72t-107 -26q-77 0 -121 43.5t-44 116.5zM146 172v-26q0 -36 24 -55t66 -19q66 0 106.5 40t40.5 106v24h-139q-46 0 -72 -19t-26 -51z" />
    <glyph glyph-name="o.ss03" horiz-adv-x="591" 
d="M41 263q0 127 69 200t186 73q114 0 184 -73q71 -73 71 -200q0 -125 -68 -199t-187 -74q-118 0 -187 73q-68 74 -68 200zM146 302v-82q0 -68 41.5 -106t108.5 -38t108 38.5t41 105.5v82q0 66 -41.5 106.5t-107.5 40.5q-67 0 -108.5 -40.5t-41.5 -106.5zM335 224h-80v79h80
v-79z" />
    <glyph glyph-name="oacute.ss03" horiz-adv-x="591" 
d="M486 712l-193 -116l-33 50l183 134zM41 263q0 127 69 200t186 73q114 0 184 -73q71 -73 71 -200q0 -125 -68 -199t-187 -74q-118 0 -187 73q-68 74 -68 200zM146 302v-82q0 -68 41.5 -106t108.5 -38t108 38.5t41 105.5v82q0 66 -41.5 106.5t-107.5 40.5
q-67 0 -108.5 -40.5t-41.5 -106.5zM335 224h-80v79h80v-79z" />
    <glyph glyph-name="ocircumflex.ss03" horiz-adv-x="591" 
d="M188 587l-50 49l124 127h66l123 -127l-51 -49l-106 112zM41 263q0 127 69 200t186 73q114 0 184 -73q71 -73 71 -200q0 -125 -68 -199t-187 -74q-118 0 -187 73q-68 74 -68 200zM146 302v-82q0 -68 41.5 -106t108.5 -38t108 38.5t41 105.5v82q0 66 -41.5 106.5
t-107.5 40.5q-67 0 -108.5 -40.5t-41.5 -106.5zM335 224h-80v79h80v-79z" />
    <glyph glyph-name="odieresis.ss03" horiz-adv-x="591" 
d="M240 607h-87v121h87v-121zM436 607h-88v121h88v-121zM41 263q0 127 69 200t186 73q114 0 184 -73q71 -73 71 -200q0 -125 -68 -199t-187 -74q-118 0 -187 73q-68 74 -68 200zM146 302v-82q0 -68 41.5 -106t108.5 -38t108 38.5t41 105.5v82q0 66 -41.5 106.5t-107.5 40.5
q-67 0 -108.5 -40.5t-41.5 -106.5zM335 224h-80v79h80v-79z" />
    <glyph glyph-name="ograve.ss03" horiz-adv-x="591" 
d="M328 646l-33 -50l-193 116l44 68zM41 263q0 127 69 200t186 73q114 0 184 -73q71 -73 71 -200q0 -125 -68 -199t-187 -74q-118 0 -187 73q-68 74 -68 200zM146 302v-82q0 -68 41.5 -106t108.5 -38t108 38.5t41 105.5v82q0 66 -41.5 106.5t-107.5 40.5q-67 0 -108.5 -40.5
t-41.5 -106.5zM335 224h-80v79h80v-79z" />
    <glyph glyph-name="ohungarumlaut.ss03" horiz-adv-x="591" 
d="M380 693l-183 -126l-35 48l173 144zM583 683l-191 -116l-32 50l179 133zM41 263q0 127 69 200t186 73q114 0 184 -73q71 -73 71 -200q0 -125 -68 -199t-187 -74q-118 0 -187 73q-68 74 -68 200zM146 302v-82q0 -68 41.5 -106t108.5 -38t108 38.5t41 105.5v82
q0 66 -41.5 106.5t-107.5 40.5q-67 0 -108.5 -40.5t-41.5 -106.5zM335 224h-80v79h80v-79z" />
    <glyph glyph-name="omacron.ss03" horiz-adv-x="591" 
d="M455 604h-322v76h322v-76zM41 263q0 127 69 200t186 73q114 0 184 -73q71 -73 71 -200q0 -125 -68 -199t-187 -74q-118 0 -187 73q-68 74 -68 200zM146 302v-82q0 -68 41.5 -106t108.5 -38t108 38.5t41 105.5v82q0 66 -41.5 106.5t-107.5 40.5q-67 0 -108.5 -40.5
t-41.5 -106.5zM335 224h-80v79h80v-79z" />
    <glyph glyph-name="otilde.ss03" horiz-adv-x="591" 
d="M355 591q-26 0 -68 17q-39 18 -59 18q-30 0 -53 -35l-44 31q36 78 100 78q27 -2 66 -19q42 -17 61 -17q35 0 56 36l44 -32q-33 -77 -103 -77zM41 263q0 127 69 200t186 73q114 0 184 -73q71 -73 71 -200q0 -125 -68 -199t-187 -74q-118 0 -187 73q-68 74 -68 200z
M146 302v-82q0 -68 41.5 -106t108.5 -38t108 38.5t41 105.5v82q0 66 -41.5 106.5t-107.5 40.5q-67 0 -108.5 -40.5t-41.5 -106.5zM335 224h-80v79h80v-79z" />
    <glyph glyph-name="h_t_t_p" horiz-adv-x="2069" 
d="M134 756h1801v-929h-645v562h-192v-302h112v-79h-123q-42 0 -63.5 19.5t-21.5 64.5v297h-204v-302h112v-79h-124q-42 0 -63 19t-21 65v297h-98v77h98v140h96v-140h204v140h96v-140h278l9 -90h7q20 46 66 73t106 27q96 0 154 -67q58 -65 58 -170q0 -106 -59 -174
q-58 -67 -155 -67q-60 0 -105.5 27.5t-64.5 74.5h-7v-206h479v794h-1658v-314h7q22 48 66.5 75t101.5 27q81 0 127 -54.5t46 -148.5v-265h-95v256q0 63 -29.5 96.5t-83.5 33.5q-63 0 -101.5 -45.5t-38.5 -119.5v-335h1004v-67h-1076v929zM1385 266v-58q0 -53 43 -90
q44 -38 106 -38q67 0 106 44.5t39 115.5q0 70 -39.5 112.5t-103.5 42.5t-107 -40q-44 -39 -44 -89z" />
    <glyph glyph-name="w_w_w" horiz-adv-x="2000" 
d="M283 0h-126l-149 526h109l68 -264l36 -164h6l94 428h109l96 -427h5l103 427h108l104 -428h6l94 428h109l97 -427h5l102 427h109l103 -428h6l95 428h109l96 -427h5l36 161l67 266h106l-148 -526h-123l-92 404h-6l-88 -404h-126l-96 377l-94 -377h-123l-92 404h-6l-88 -404
h-127l-95 376l-94 -376h-123l-93 404h-6z" />
    <glyph glyph-name="zero.ss01" horiz-adv-x="629" 
d="M316 730q253 0 253 -370t-253 -370q-256 0 -256 370t256 370zM175 468v-216q0 -82 36.5 -126t102.5 -44t103 43t37 127v216q0 84 -37 127t-103 43t-102.5 -44t-36.5 -126zM358 320h-92v84h92v-84z" />
    <glyph glyph-name="zero.tf" horiz-adv-x="602" 
d="M303 730q253 0 253 -370t-253 -370q-256 0 -256 370t256 370zM301 638q-66 0 -102.5 -44t-36.5 -126v-139l278 168q-7 70 -43.5 105.5t-95.5 35.5zM301 82q66 0 103 43t37 127v146l-278 -168q5 -72 41 -110t97 -38z" />
    <glyph glyph-name="one.tf" horiz-adv-x="590" 
d="M352 721v-629h197v-92h-505v92h204v425h-204v79q86 0 140.5 32.5t69.5 92.5h98z" />
    <glyph glyph-name="two.tf" horiz-adv-x="605" 
d="M333 93h222v-93h-477v74l284 297q68 74 68 121v40q0 47 -37 76t-92 29q-61 0 -98 -35.5t-37 -93.5v-18h-102q-3 111 63 175q68 65 178 65q107 0 172 -59t65 -154q0 -45 -18 -89q-17 -41 -35 -63q-12 -15 -49 -54l-213 -224q55 6 106 6z" />
    <glyph glyph-name="three.tf" horiz-adv-x="605" 
d="M297 -10q-109 0 -176 59q-66 60 -66 157v16h108v-10q0 -62 34.5 -96.5t97.5 -34.5q62 0 99.5 29.5t37.5 78.5v33q0 51 -36.5 78.5t-100.5 27.5h-58v86h56q59 0 92.5 28t33.5 76v20q0 45 -33 72.5t-85 27.5q-59 0 -94.5 -35t-35.5 -93v-10h-103v13q0 97 64 157
q65 60 172 60q100 0 162 -53t62 -139q0 -114 -102 -161v-6q57 -21 86 -66.5t29 -106.5q0 -92 -68 -151q-67 -57 -176 -57z" />
    <glyph glyph-name="four.tf" horiz-adv-x="603" 
d="M484 721v-481h90v-88h-90v-152h-104v152h-348v87l291 482h161zM380 644l-243 -404h243v404z" />
    <glyph glyph-name="five.tf" horiz-adv-x="605" 
d="M55 221h106q-1 -63 39 -101.5t108 -38.5q65 0 106 37.5t41 95.5v55q0 60 -41 97t-106 37q-50 0 -88 -23t-52 -62h-102l18 403h440v-92h-346l-10 -199l5 -2q48 61 154 61q109 0 172 -67q64 -65 64 -177q0 -116 -70 -186q-71 -69 -188 -69q-113 0 -182 63q-69 65 -68 168z
" />
    <glyph glyph-name="six.tf" horiz-adv-x="605" 
d="M52 355q0 375 274 375q101 0 162 -48.5t72 -135.5h-108q-14 93 -129 93q-90 0 -129 -66t-35 -195h5q53 101 183 101q103 0 163.5 -64t60.5 -174q0 -112 -68 -182q-67 -69 -183 -69q-268 0 -268 365zM181 262v-54q0 -56 39.5 -90.5t100.5 -34.5q62 0 101.5 34.5t39.5 90.5
v54q0 62 -38 96t-100 34q-63 0 -103 -35.5t-40 -94.5z" />
    <glyph glyph-name="seven.tf" horiz-adv-x="605" 
d="M147 500h-88v221h500v-75q-102 -138 -182 -314q-79 -174 -108 -332h-113q25 147 101 319q75 170 175 310h-285v-129z" />
    <glyph glyph-name="eight.tf" horiz-adv-x="608" 
d="M293 -10q-117 0 -186 54q-69 56 -69 144q0 59 30.5 104.5t81.5 63.5v8q-52 21 -82 65t-30 103q0 92 70 144q70 54 187 54t186 -54t69 -143q0 -58 -31 -104t-81 -65v-8q52 -18 82 -63t30 -105q0 -91 -71 -145q-71 -53 -186 -53zM294 404q71 0 109 26.5t38 76.5v24
q0 51 -39 79t-108 28t-108 -28t-39 -79v-24q0 -50 38.5 -76.5t108.5 -26.5zM294 82q69 0 108 28.5t39 79.5v25q0 50 -38.5 76t-108.5 26t-108.5 -26t-38.5 -76v-25q0 -51 39 -79.5t108 -28.5z" />
    <glyph glyph-name="nine.tf" horiz-adv-x="605" 
d="M568 365q0 -181 -67.5 -278t-206.5 -97q-99 0 -161.5 49.5t-72.5 134.5h108q7 -46 40.5 -69.5t88.5 -23.5q173 0 163 262h-5q-51 -102 -183 -102q-102 0 -163 64t-61 174q0 115 67 182q67 69 184 69q269 0 269 -365zM439 458v54q0 56 -39.5 90.5t-101.5 34.5
t-101.5 -34.5t-39.5 -90.5v-54q0 -61 38.5 -95.5t99.5 -34.5q64 0 104 35.5t40 94.5z" />
    <glyph glyph-name="zero.tf.ss01" horiz-adv-x="602" 
d="M303 730q253 0 253 -370t-253 -370q-256 0 -256 370t256 370zM301 638q-66 0 -102.5 -44t-36.5 -126v-66h279v66q0 84 -37 127t-103 43zM301 82q66 0 103 43t37 127v69h-279v-69q0 -82 36.5 -126t102.5 -44z" />
    <glyph glyph-name="zero.dnom" horiz-adv-x="419" 
d="M209 -4q-82 0 -127 64.5t-45 180.5q0 118 46 181.5t126 63.5q82 0 127 -64t45 -181q0 -118 -46 -181.5t-126 -63.5zM208 68q89 0 89 172q0 174 -87 174q-89 0 -89 -170q0 -176 87 -176z" />
    <glyph glyph-name="one.dnom" horiz-adv-x="312" 
d="M152 331h-123v66h45q82 0 82 79v4h77v-480h-81v331z" />
    <glyph glyph-name="two.dnom" horiz-adv-x="379" 
d="M134 69l73 4h133v-73h-299v16q0 98 77 162q11 10 37.5 30t40 32t30.5 30.5t25 36.5t8 38q0 32 -19.5 51.5t-52.5 19.5q-35 0 -55.5 -23.5t-19.5 -60.5l-80 5q1 67 45 108t115 41q69 0 109.5 -39t40.5 -102q0 -77 -64 -134q-11 -10 -52 -42t-62.5 -54.5t-29.5 -45.5z" />
    <glyph glyph-name="three.dnom" horiz-adv-x="382" 
d="M189 -7q-72 0 -115 41.5t-41 109.5h82q-1 -37 19.5 -58t54.5 -21q33 0 54.5 20t21.5 51q0 34 -22.5 53.5t-59.5 19.5h-37v75h30q37 0 57.5 18.5t20.5 49.5q0 29 -18.5 46t-47.5 17q-35 0 -54.5 -21.5t-18.5 -57.5h-82q-2 67 40.5 108.5t114.5 41.5q67 0 109 -35.5
t42 -94.5q0 -72 -67 -103v-5q36 -14 56 -44.5t20 -69.5q0 -63 -45 -102t-114 -39z" />
    <glyph glyph-name="four.dnom" horiz-adv-x="388" 
d="M312 480v-316h52v-73h-52v-91h-81v91h-213v68l167 321h127zM231 403l-124 -239h124v239z" />
    <glyph glyph-name="five.dnom" horiz-adv-x="396" 
d="M36 148h82q-1 -36 21.5 -59t57.5 -23q36 0 58.5 25t22.5 66t-22.5 67t-59.5 26q-26 0 -46 -12t-27 -32h-77v274h289v-73h-210v-68l-2 -46l2 -2q30 30 86 30q66 0 108 -46q42 -45 42 -116q0 -74 -46 -120t-119 -46q-71 0 -115.5 43t-44.5 112z" />
    <glyph glyph-name="six.dnom" horiz-adv-x="406" 
d="M36 235q0 117 45.5 184t131.5 67q63 0 103.5 -34t47.5 -93h-81q-4 26 -23 40.5t-49 14.5q-93 0 -93 -154h3q14 27 43 42t63 15q64 0 104.5 -44t40.5 -114q0 -73 -46 -119t-120 -46q-83 0 -126.5 63t-43.5 178zM128 158q0 -40 22.5 -66t58.5 -26q37 0 59.5 25.5t22.5 67.5
q0 41 -22 65.5t-60 24.5q-37 0 -59 -26t-22 -65z" />
    <glyph glyph-name="seven.dnom" horiz-adv-x="360" 
d="M27 480h314v-58q-151 -188 -188 -422h-80q35 238 171 407h-156v-74h-61v147z" />
    <glyph glyph-name="eight.dnom" horiz-adv-x="393" 
d="M32 127q0 36 18 65.5t51 44.5v5q-33 15 -51 45t-18 67q0 60 45.5 96t119.5 36q75 0 119 -36t44 -96q0 -37 -18 -67t-50 -45v-5q68 -32 68 -111q0 -61 -45 -97t-119 -36q-75 0 -119.5 37t-44.5 97zM115 345q0 -33 22.5 -52t58.5 -19q37 0 58.5 19.5t21.5 51.5t-22 51
t-58 19t-58.5 -19.5t-22.5 -50.5zM115 134q0 -33 22 -51.5t59 -18.5q36 0 58 19.5t22 50.5q0 33 -22 52.5t-58 19.5q-37 0 -59 -20t-22 -52z" />
    <glyph glyph-name="nine.dnom" horiz-adv-x="406" 
d="M370 245q0 -117 -45.5 -184t-131.5 -67q-63 0 -104 34.5t-47 92.5h80q10 -55 74 -55q92 0 92 155h-4q-14 -28 -43 -44t-63 -16q-64 0 -104 45q-40 46 -40 117t46 117t119 46q83 0 127 -63t44 -178zM277 322q0 40 -22 66t-58 26t-59 -26t-23 -66q0 -42 22 -66t60 -24
q37 0 58.5 25.5t21.5 64.5z" />
    <glyph glyph-name="zero.numr" horiz-adv-x="419" 
d="M209 251q-82 0 -127 63.5t-45 178.5q0 117 46 179.5t126 62.5q82 0 127 -63.5t45 -178.5q0 -118 -46 -180t-126 -62zM208 322q89 0 89 170q0 171 -87 171q-89 0 -89 -167q0 -174 87 -174z" />
    <glyph glyph-name="one.numr" horiz-adv-x="312" 
d="M152 582h-123v65h45q82 0 82 78v4h77v-473h-81v326z" />
    <glyph glyph-name="two.numr" horiz-adv-x="379" 
d="M134 323l73 4h133v-72h-299v17q0 95 77 159q10 8 46 36.5t50 41.5t29.5 38t15.5 49q0 32 -19.5 50.5t-52.5 18.5q-35 0 -55.5 -23t-19.5 -60l-80 5q1 66 45 107t115 41q69 0 109.5 -38t40.5 -101q0 -45 -26.5 -87t-64.5 -69q-34 -24 -71 -56q-35 -32 -46 -61z" />
    <glyph glyph-name="three.numr" horiz-adv-x="382" 
d="M189 248q-71 0 -114 41t-42 108h82q-1 -36 20 -57t54 -21t54.5 20t21.5 50q0 33 -22.5 52.5t-59.5 19.5h-37v74h30q37 0 57.5 18.5t20.5 49.5q0 29 -18.5 45t-47.5 16q-34 0 -54 -21.5t-19 -56.5h-82q-2 67 40 108t115 41q67 0 109 -35.5t42 -92.5q0 -71 -67 -102v-5
q76 -30 76 -113q0 -61 -45 -100t-114 -39z" />
    <glyph glyph-name="four.numr" horiz-adv-x="388" 
d="M312 729v-313h52v-71h-52v-89h-81v89h-213v67l167 317h127zM231 653l-124 -237h124v237z" />
    <glyph glyph-name="five.numr" horiz-adv-x="396" 
d="M36 401h82q-1 -34 21.5 -57.5t57.5 -23.5q36 0 58.5 25t22.5 65q0 41 -22.5 67t-59.5 26q-27 0 -46.5 -12.5t-26.5 -32.5h-77v271h289v-73h-210v-67l-2 -45l2 -2q29 30 86 30q66 0 108 -45t42 -114q0 -73 -46 -119q-45 -46 -119 -46q-71 0 -115.5 42t-44.5 111z" />
    <glyph glyph-name="six.numr" horiz-adv-x="406" 
d="M36 487q0 116 45.5 182t131.5 66q62 0 103 -34t48 -91h-81q-11 53 -72 53q-93 0 -93 -151h3q14 26 43.5 41.5t62.5 15.5q64 0 104.5 -44t40.5 -113q0 -72 -46 -118q-46 -45 -120 -45q-83 0 -126.5 62.5t-43.5 175.5zM128 411q0 -40 22.5 -65.5t58.5 -25.5q37 0 59.5 25.5
t22.5 66.5t-22 65.5t-60 24.5q-37 0 -59 -26t-22 -65z" />
    <glyph glyph-name="seven.numr" horiz-adv-x="360" 
d="M27 729h314v-58q-150 -183 -188 -415h-80q36 230 170 400h-155v-64h-61v137z" />
    <glyph glyph-name="eight.numr" horiz-adv-x="393" 
d="M32 380q0 77 69 110v5q-69 33 -69 109q0 60 45 95.5t120 35.5t119 -36t44 -95q0 -76 -68 -109v-5q68 -33 68 -111q0 -59 -45 -94.5t-119 -35.5t-119 36.5t-45 94.5zM115 596q0 -32 22.5 -51t58.5 -19t58 19.5t22 50.5q0 32 -22 50.5t-58 18.5q-38 0 -59.5 -19t-21.5 -50z
M115 389q0 -33 22 -51.5t59 -18.5q36 0 58 19.5t22 50.5q0 32 -22 51t-58 19t-58.5 -19.5t-22.5 -50.5z" />
    <glyph glyph-name="nine.numr" horiz-adv-x="406" 
d="M370 497q0 -117 -45.5 -182.5t-131.5 -65.5q-62 0 -103.5 34.5t-47.5 91.5h80q12 -55 74 -55q92 0 92 152h-4q-30 -56 -106 -56q-63 0 -104 44q-40 43 -40 112q0 72 46 117q46 46 119 46q83 0 127 -62.5t44 -175.5zM277 573q0 39 -22 64.5t-58 25.5q-37 0 -59.5 -25
t-22.5 -65q0 -42 22 -66.5t60 -24.5q37 0 58.5 26.5t21.5 64.5z" />
    <glyph glyph-name="numbersign.ss03" horiz-adv-x="602" 
d="M582 536l-17 -61h-95l-45 -195h118l-16 -61h-116l-51 -219h-72l51 219h-153l-50 -219h-71l50 219h-96l17 61h93l45 195h-116l17 61h113l49 213h71l-49 -213h153l49 213h72l-49 -213h98zM200 280h153l45 195h-153z" />
    <glyph glyph-name="parenleft.case" horiz-adv-x="297" 
d="M61 363q0 116 44 221q43 104 117 165h65q-75 -64 -116 -163.5t-41 -221.5q0 -120 41 -219t116 -165h-65q-75 63 -118 164q-43 102 -43 219z" />
    <glyph glyph-name="parenright.case" horiz-adv-x="297" 
d="M236 363q0 -117 -44 -220q-44 -102 -117 -163h-65q75 65 116 164.5t41 219.5q0 122 -41 222t-116 163h65q74 -62 117 -166q44 -105 44 -220z" />
    <glyph glyph-name="braceleft.case" horiz-adv-x="320" 
d="M43 303v66q67 0 67 74v215q0 35 19 54.5t53 19.5h105v-59h-110v-227q0 -46 -20.5 -74t-53.5 -33v-3q33 -5 53.5 -34.5t20.5 -73.5v-238h110v-59h-105q-72 0 -72 75v225q0 72 -67 72z" />
    <glyph glyph-name="braceright.case" horiz-adv-x="320" 
d="M277 369v-66q-31 0 -49.5 -17.5t-18.5 -54.5v-225q0 -75 -71 -75h-105v59h110v238q0 44 20.5 73t54.5 35v3q-34 5 -54.5 33t-20.5 74v227h-110v59h105q34 0 52.5 -19.5t18.5 -54.5v-215q0 -34 17.5 -54t50.5 -20z" />
    <glyph glyph-name="bracketleft.case" horiz-adv-x="309" 
d="M276 -69h-180v807h180v-58h-115v-690h115v-59z" />
    <glyph glyph-name="bracketright.case" horiz-adv-x="309" 
d="M214 -69h-181v59h116v690h-116v58h181v-807z" />
    <glyph glyph-name="hyphen.case" horiz-adv-x="459" 
d="M401 337h-344v65h344v-65z" />
    <glyph glyph-name="endash.case" horiz-adv-x="635" 
d="M577 337h-520v65h520v-65z" />
    <glyph glyph-name="emdash.case" horiz-adv-x="831" 
d="M773 337h-716v65h716v-65z" />
    <glyph glyph-name="hyphen_hyphen_greater" horiz-adv-x="851" 
d="M708 231h-612v66h612l-169 231h81l197 -263l-197 -265h-81z" />
    <glyph glyph-name="greater.case" horiz-adv-x="543" 
d="M490 323l-387 -220v108l137 74l159 76v7l-157 69l-139 70v106l387 -210v-80z" />
    <glyph glyph-name="less.case" horiz-adv-x="543" 
d="M439 211v-108l-386 220v80l386 210v-106l-139 -70l-156 -69v-7l158 -76z" />
    <glyph glyph-name="percent.tf" horiz-adv-x="614" 
d="M33 580q0 70 43 114t113 44t113.5 -44.5t43.5 -114.5q0 -71 -43.5 -115t-113.5 -44q-69 0 -112.5 44t-43.5 116zM109 580q0 -42 22 -68t58 -26t58.5 26t22.5 68q0 39 -22.5 64.5t-58.5 25.5t-58 -25.5t-22 -64.5zM582 447l-548 -216v61l548 219v-64zM258 151
q0 69 44 113.5t113 44.5q70 0 113.5 -44t43.5 -114t-44 -116q-44 -45 -113 -45t-113 44.5t-44 116.5zM415 244q-35 0 -57.5 -26t-22.5 -67t22 -67t58 -26t59 26t23 67t-23 67t-59 26z" />
    <glyph glyph-name="perthousand.tf" horiz-adv-x="671" 
d="M194 437q-69 0 -113 42t-44 109t44 109t113 42q68 0 113 -42t45 -109t-45 -109t-113 -42zM115 588q0 -37 22 -60t57 -23q37 0 59.5 23t22.5 61q0 37 -22.5 60t-58.5 23t-58 -23t-22 -61zM64 334l548 215v-62l-548 -216v63zM486 292q66 0 108.5 -42t42.5 -108
q0 -68 -42 -110t-110 -42q-79 0 -124 59q-45 -59 -124 -59q-68 0 -110 42t-42 110q0 67 42 108.5t109 41.5q77 0 124 -59q47 59 126 59zM184 80q22 -23 58 -23t58 23t22 62t-22 61q-22 23 -58 23t-58 -23q-22 -22 -22 -61t22 -62zM480 58q35 0 57.5 23.5t22.5 61.5
q0 37 -22.5 60t-57.5 23q-36 0 -58.5 -23.5t-22.5 -60.5t22.5 -60.5t58.5 -23.5z" />
    <glyph glyph-name="at.ss03" horiz-adv-x="913" 
d="M565 504h58l-18 -256q-4 -79 56 -79q53 0 84.5 54t31.5 144q0 139 -85 221t-225 82q-159 0 -248 -99q-88 -97 -88 -263q0 -156 90 -250t256 -94h222v-67h-222q-197 0 -312 112q-114 113 -114 302q0 193 115 309q115 118 301 118q174 0 280 -103q107 -102 107 -266
q0 -118 -55 -192q-54 -74 -136 -74q-91 0 -110 81h-6q-36 -78 -123 -78q-67 0 -109.5 52t-42.5 140q0 95 47 157q46 61 122 61q78 0 109 -61h4zM434 172q48 0 77.5 42t29.5 109q0 60 -24.5 94.5t-66.5 34.5q-48 0 -76 -42t-28 -111q0 -60 23.5 -93.5t64.5 -33.5z" />
    <glyph glyph-name="less_hyphen_hyphen" horiz-adv-x="851" 
d="M755 297v-66h-612l169 -231h-80l-198 265l198 263h80l-169 -231h612z" />
    <glyph glyph-name="uni1F310" horiz-adv-x="1007" 
d="M505 738q196 0 321 -104q124 -103 124 -269q0 -165 -125 -270t-320 -105q-197 0 -323 105q-125 105 -125 270q0 166 124 269q125 104 324 104zM401 574h205q-17 63 -43.5 98.5t-57.5 35.5q-66 0 -104 -134zM636 574h106q-56 97 -162 125q36 -44 56 -125zM265 574h106
q23 84 58 124q-104 -27 -164 -124zM776 574h69q-61 70 -157 104q53 -40 88 -104zM320 678q-98 -35 -158 -104h69q35 63 89 104zM86 380h95q3 88 33 159h-78q-46 -71 -50 -159zM363 539h-116q-32 -72 -35 -159h136q2 88 15 159zM377 380h253q-1 86 -16 159h-221
q-15 -71 -16 -159zM659 380h136q-3 90 -34 159h-117q14 -71 15 -159zM825 380h95q-5 89 -49 159h-78q29 -73 32 -159zM181 347h-95q4 -85 51 -156h77q-30 73 -33 156zM348 347h-136q3 -86 35 -156h116q-13 69 -15 156zM630 347h-253q2 -85 16 -156h221q14 71 16 156z
M644 191h116q32 70 35 156h-136q-1 -87 -15 -156zM920 347h-95q-3 -84 -32 -156h77q45 69 50 156zM229 158h-68q58 -69 155 -105q-51 39 -87 105zM370 158h-106q58 -98 164 -127q-35 41 -58 127zM607 158h-207q38 -137 105 -137q31 0 58 36.5t44 100.5zM743 158h-106
q-22 -85 -57 -127q104 29 163 127zM690 52q98 36 156 106h-69q-35 -66 -87 -106z" />
    <glyph glyph-name="uni1F441" horiz-adv-x="873" 
d="M70 363q0 167 103 270q104 104 263 104t263 -104t104 -270q0 -168 -104 -272t-263 -104t-263 104q-103 103 -103 272zM436 37q136 0 224 91q89 92 89 235t-89 234q-88 91 -224 91q-135 0 -223 -91q-89 -91 -89 -234t89 -235q88 -91 223 -91zM266 364q0 75 49 123
q49 49 121 49t121 -49q50 -48 50 -123q0 -78 -49 -127q-50 -48 -122 -48t-122 48q-48 49 -48 127zM287 374v-21l140 6l-90 -82l15 -17l81 93l-6 -144h20l-7 144l82 -93l15 17l-91 82l141 -6v21l-141 -7l91 83l-15 16l-82 -93l7 144h-20l6 -144l-81 93l-15 -16l90 -83z" />
    </font>
</defs>
</svg>
