<?xml version="1.0" standalone="no"?>
<!DOCTYPE svg PUBLIC "-//W3C//DTD SVG 1.1//EN" "http://www.w3.org/Graphics/SVG/1.1/DTD/svg11.dtd" >
<svg xmlns="http://www.w3.org/2000/svg" xmlns:xlink="http://www.w3.org/1999/xlink" version="1.1">
<metadata>
Created by FontForge 20170731 at Wed Jul 11 02:32:36 2018
 By Aleksey,,,
Copyright (c) 2017 by Deni Anggara. All rights reserved.
</metadata>
<defs>
<font id="AllianceNo.1-BlackItalic" horiz-adv-x="0" >
  <font-face 
    font-family="Alliance No.1 Black"
    font-weight="900"
    font-style="italic"
    font-stretch="normal"
    units-per-em="1000"
    panose-1="0 0 10 0 0 0 0 0 0 0"
    ascent="794"
    descent="-206"
    x-height="544"
    cap-height="729"
    bbox="-532 -326 2179 1038"
    underline-thickness="50"
    underline-position="-200"
    slope="-8"
    unicode-range="U+000D-FB02"
  />
<missing-glyph horiz-adv-x="746" 
d="M708 0h-644v729h644v-729zM127 666v-604h518v604h-518zM582 125h-392v478h392v-478zM253 540v-351h266v351h-266zM316 252v225h140v-225h-140z" />
    <glyph glyph-name="fi" unicode="fi" horiz-adv-x="706" 
d="M339 544h357l-76 -544h-191l55 391h-166l-55 -391h-191l55 391h-104l22 153h104l4 30q13 96 68 141t161 45q56 0 109 -14l-19 -145q-21 6 -52 6q-38 0 -56 -13t-23 -40zM511 581l23 169h191l-23 -169h-191z" />
    <glyph glyph-name="fl" unicode="fl" horiz-adv-x="705" 
d="M505 544l29 206h191l-105 -750h-191l55 391h-166l-55 -391h-191l55 391h-104l22 153h104l4 30q13 96 68 141t161 45q56 0 109 -14l-19 -145q-21 6 -52 6q-38 0 -56 -13t-23 -40l-2 -10h166z" />
    <glyph glyph-name="f_f" unicode="ff" horiz-adv-x="786" 
d="M775 607q-38 0 -56 -13t-23 -40l-2 -10h115l-22 -153h-114l-55 -391h-191l55 391h-164l-55 -391h-191l55 391h-104l22 153h104l4 30q13 96 68 141t161 45q56 0 109 -14l-19 -145q-21 6 -52 6q-38 0 -56 -13t-23 -40l-2 -10h165l4 30q13 96 68 141t161 45q56 0 109 -14
l-19 -145q-21 6 -52 6z" />
    <glyph glyph-name="f_f_i" unicode="ffi" horiz-adv-x="1065" 
d="M694 544h361l-76 -544h-191l55 391h-170l-55 -391h-191l55 391h-164l-55 -391h-191l55 391h-104l22 153h104l4 30q13 96 68 141t161 45q56 0 109 -14l-19 -145q-21 6 -52 6q-38 0 -56 -13t-23 -40l-2 -10h165l4 30q13 96 68 141t161 45q56 0 109 -14l-19 -145
q-21 6 -52 6q-38 0 -56 -13t-23 -40zM870 581l23 169h191l-23 -169h-191z" />
    <glyph glyph-name="t_i" unicode="ti" horiz-adv-x="684" 
d="M489 581l23 169h191l-23 -169h-191zM318 544h356l-76 -544h-191l55 391h-166l-26 -186q-1 -15 -2 -29.5t13.5 -24.5t45.5 -10q27 0 49 5l-21 -146q-49 -10 -100 -10q-205 0 -178 203l28 198h-84l22 153h84l16 117l201 74z" />
    <glyph glyph-name="t_t" unicode="tt" horiz-adv-x="767" 
d="M758 391h-114l-26 -186q-1 -15 -2 -29.5t13.5 -24.5t45.5 -10q27 0 49 5l-21 -146q-49 -10 -100 -10q-205 0 -178 203l28 198h-157l-26 -186q-1 -15 -2 -29.5t13.5 -24.5t45.5 -10q27 0 49 5l-21 -146q-49 -10 -100 -10q-205 0 -178 203l28 198h-84l22 153h84l16 117
l201 74l-26 -191h157l16 117l201 74l-26 -191h114z" />
    <glyph glyph-name="t_t_i" unicode="tti" horiz-adv-x="1032" 
d="M837 581l23 169h191l-23 -169h-191zM666 544h356l-76 -544h-191l55 391h-166l-26 -186q-1 -15 -2 -29.5t13.5 -24.5t45.5 -10q27 0 49 5l-21 -146q-49 -10 -100 -10q-205 0 -178 203l28 198h-157l-26 -186q-1 -15 -2 -29.5t13.5 -24.5t45.5 -10q27 0 49 5l-21 -146
q-49 -10 -100 -10q-205 0 -178 203l28 198h-84l22 153h84l16 117l201 74l-26 -191h157l16 117l201 74z" />
    <glyph glyph-name="hyphen_hyphen_greater" unicode="&#x2d;&#x2d;&#x3e;" horiz-adv-x="867" 
d="M689 228h-586v100h586l-169 224h126l208 -272l-208 -280h-126z" />
    <glyph glyph-name="less_hyphen_hyphen" unicode="&#x3c;&#x2d;&#x2d;" horiz-adv-x="867" 
d="M768 328v-100h-586l169 -228h-126l-208 280l208 272h126l-169 -224h586z" />
    <glyph glyph-name=".notdef" horiz-adv-x="746" 
d="M708 0h-644v729h644v-729zM127 666v-604h518v604h-518zM582 125h-392v478h392v-478zM253 540v-351h266v351h-266zM316 252v225h140v-225h-140z" />
    <glyph glyph-name=".null" 
 />
    <glyph glyph-name="nonmarkingreturn" horiz-adv-x="333" 
 />
    <glyph glyph-name="CR" unicode="&#xd;" horiz-adv-x="159" 
 />
    <glyph glyph-name="space" unicode=" " horiz-adv-x="203" 
 />
    <glyph glyph-name="exclam" unicode="!" horiz-adv-x="315" 
d="M203 236h-99l-9 275l30 218h194l-30 -218zM220 0h-201l25 178h201z" />
    <glyph glyph-name="quotedbl" unicode="&#x22;" horiz-adv-x="592" 
d="M297 554l-72 -200h-83l-15 200l25 175h170zM544 554l-71 -200h-83l-16 200l25 175h170z" />
    <glyph glyph-name="numbersign" unicode="#" horiz-adv-x="700" 
d="M691 545l-11 -79h-115l-25 -178h115l-11 -80h-115l-29 -208h-85l29 208h-204l-29 -208h-87l29 208h-116l11 80h116l25 178h-116l11 79h116l29 205h87l-29 -205h204l29 205h85l-29 -205h115zM251 288h204l25 178h-204z" />
    <glyph glyph-name="dollar" unicode="$" horiz-adv-x="578" 
d="M315 555q-22 0 -34.5 -10t-12.5 -27q3 -23 16.5 -31.5t41.5 -13.5l56 -12q80 -17 125.5 -68t45.5 -123q0 -92 -67 -153t-175 -68l-8 -57h-115l9 65q-78 19 -122.5 73.5t-48.5 132.5h192q-2 -30 15.5 -48.5t52.5 -18.5q25 0 41 11.5t16 30.5q0 14 -10 23q-10 10 -45 20
l-52 14q-177 48 -177 197q0 89 62 145.5t167 64.5l8 58h115l-10 -66q72 -18 113 -67.5t40 -118.5h-185q-2 22 -16.5 34.5t-37.5 12.5z" />
    <glyph glyph-name="percent" unicode="%" horiz-adv-x="937" 
d="M87 543q0 87 55 141q55 55 142 55q74 0 122 -48q48 -47 48 -123q0 -88 -56 -142t-141 -54q-73 0 -122 47q-48 48 -48 124zM236 0h-80l566 729h81zM204 548q0 -32 16 -51t44 -19q32 0 52.5 24t20.5 61q0 32 -16 51t-44 19q-32 0 -52.5 -24t-20.5 -61zM506 161q0 87 55 141
q55 55 142 55q74 0 122 -48q48 -47 48 -123q0 -88 -56 -142q-55 -54 -141 -54q-73 0 -122 47q-48 48 -48 124zM623 166q0 -32 16 -51t44 -19q32 0 52.5 24t20.5 61q0 32 -16 51t-44 19q-32 0 -52.5 -24t-20.5 -61z" />
    <glyph glyph-name="ampersand" unicode="&#x26;" horiz-adv-x="807" 
d="M757 399l-20 -141h-89q-16 -50 -50 -90l124 -168h-249l-23 35q-78 -45 -196 -45q-103 0 -162 42t-59 122q0 139 161 231l1 6q-65 67 -65 133q0 96 72 154q74 60 191 60q98 0 152.5 -41t54.5 -112q0 -64 -37.5 -113.5t-109.5 -96.5l-1 -8l40 -64q11 26 25 96h240zM353 487
h7q43 46 43 75q0 28 -34 28q-42 0 -42 -42q0 -23 26 -61zM311 157q25 0 40 7l-71 103q-29 -27 -29 -58q0 -25 16 -38.5t44 -13.5z" />
    <glyph glyph-name="quotesingle" unicode="'" horiz-adv-x="345" 
d="M297 554l-72 -200h-83l-15 200l25 175h170z" />
    <glyph glyph-name="parenleft" unicode="(" horiz-adv-x="363" 
d="M46 238q0 160 82 309q82 151 210 228h104q-132 -77 -218 -227q-86 -149 -86 -302q0 -115 47 -220q47 -102 129 -158h-104q-78 55 -121 154t-43 216z" />
    <glyph glyph-name="parenright" unicode=")" horiz-adv-x="346" 
d="M331 404q0 -159 -82 -310q-83 -150 -209 -226h-104q132 75 218 227q86 151 86 302q0 118 -48 220q-48 103 -129 158h104q77 -56 120 -155q44 -100 44 -216z" />
    <glyph glyph-name="asterisk" unicode="*" horiz-adv-x="361" 
d="M94 462l-27 64l114 46l-101 47l45 63l82 -71l3 118h72l-31 -118l101 71l28 -63l-115 -47l102 -46l-46 -64l-81 73l-2 -118h-72l30 118z" />
    <glyph glyph-name="plus" unicode="+" horiz-adv-x="593" 
d="M551 261h-182l-26 -183h-150l26 183h-181l21 146h181l26 188h150l-26 -188h182z" />
    <glyph glyph-name="comma" unicode="," horiz-adv-x="248" 
d="M-30 -177l9 63q54 0 80 20.5t32 65.5l4 28h-81l26 184h169l-26 -187q-25 -174 -213 -174z" />
    <glyph glyph-name="hyphen" unicode="-" horiz-adv-x="481" 
d="M424 250h-374l14 100h374z" />
    <glyph glyph-name="period" unicode="." horiz-adv-x="291" 
d="M192 0h-169l26 187h169z" />
    <glyph glyph-name="slash" unicode="/" horiz-adv-x="341" 
d="M47 0h-94l366 729h95z" />
    <glyph glyph-name="zero" unicode="0" horiz-adv-x="641" 
d="M296 -9q-120 0 -187 85q-68 86 -68 231q0 182 95 303q96 120 241 120q121 0 188 -85q69 -85 69 -230q0 -183 -96 -304q-96 -120 -242 -120zM309 158q55 0 89 76q35 78 35 195q0 134 -67 134q-54 0 -88 -76q-34 -75 -34 -194q0 -135 65 -135z" />
    <glyph glyph-name="one" unicode="1" horiz-adv-x="443" 
d="M206 443h-189l21 148h32q70 0 121.5 36t65.5 94h183l-101 -721h-195z" />
    <glyph glyph-name="two" unicode="2" horiz-adv-x="592" 
d="M302 168l34 2h214l-24 -170h-529l3 24q11 79 43 139q30 56 67.5 90.5t97.5 73.5q52 34 87 53q90 48 90 116q0 32 -18.5 50t-49.5 18q-36 0 -56.5 -24.5t-16.5 -63.5h-187q4 113 80 184q74 70 194 70q119 0 189 -60.5t70 -165.5q0 -109 -75 -179q-37 -34 -69 -56
q-22 -15 -78 -52q-45 -30 -66 -49z" />
    <glyph glyph-name="three" unicode="3" horiz-adv-x="618" 
d="M280 -10q-115 0 -188 62q-71 63 -71 166h196q3 -29 23.5 -45t51.5 -16q38 0 62 19t24 53q0 62 -77 62h-89l21 151h68q45 0 71 19t26 50q0 25 -17 39t-47 14q-35 0 -58 -17.5t-22 -42.5h-196q5 103 87 164q83 62 209 62q112 0 180 -51t68 -135q0 -63 -30.5 -107t-85.5 -65
l-1 -7q89 -35 89 -146q0 -103 -81 -166t-213 -63z" />
    <glyph glyph-name="four" unicode="4" horiz-adv-x="646" 
d="M604 721l-61 -432h84l-22 -158h-84l-18 -131h-195l18 131h-317l20 143l290 447h285zM381 525l-153 -236h120z" />
    <glyph glyph-name="five" unicode="5" horiz-adv-x="621" 
d="M365 490q99 0 161 -62t62 -161q0 -124 -83 -201q-82 -76 -216 -76q-119 0 -193 66q-75 67 -76 173h197q1 -32 22.5 -51t55.5 -19q42 0 68 26.5t26 66.5q0 36 -21.5 56.5t-57.5 20.5q-30 0 -53.5 -15t-31.5 -39h-186l84 446h470l-24 -169h-297l-16 -83l7 -3q41 24 102 24z
" />
    <glyph glyph-name="six" unicode="6" horiz-adv-x="633" 
d="M314 -9q-130 0 -200 86t-70 242q0 185 93 298t245 113q103 0 171 -55q71 -56 81 -145h-193q-7 17 -26 28t-44 11q-45 0 -74 -34.5t-34 -94.5h8q43 54 131 54q90 0 145 -61q55 -59 55 -160q0 -125 -81 -204q-79 -78 -207 -78zM316 159q39 0 64.5 28.5t25.5 70.5
q0 36 -19 58t-52 22q-39 0 -64.5 -28.5t-25.5 -71.5q0 -36 19 -57.5t52 -21.5z" />
    <glyph glyph-name="seven" unicode="7" horiz-adv-x="569" 
d="M185 442h-154l39 279h548l-20 -142q-116 -129 -209 -282q-96 -158 -136 -297h-209q38 136 123 282q84 144 196 270h-163z" />
    <glyph glyph-name="eight" unicode="8" horiz-adv-x="625" 
d="M18 183q0 62 34.5 112t90.5 70l1 8q-80 44 -80 136q0 97 85 158q85 63 220 63q121 0 191.5 -51.5t70.5 -141.5q0 -64 -34.5 -114t-90.5 -66l-1 -8q38 -18 58.5 -54.5t20.5 -81.5q0 -100 -83 -162q-82 -61 -220 -61q-118 0 -191 53q-72 53 -72 140zM262 496q0 -26 20 -41
t55 -15q39 0 63.5 19t24.5 49q0 26 -20 41t-54 15q-39 0 -64 -19t-25 -49zM223 213q0 -26 20 -41t53 -15q39 0 64.5 20t25.5 50q0 26 -20 41t-53 15q-39 0 -64.5 -20t-25.5 -50z" />
    <glyph glyph-name="nine" unicode="9" horiz-adv-x="627" 
d="M269 -9q-102 0 -172 55q-70 56 -80 145h193q7 -17 26 -28t44 -11q45 0 74 34.5t34 94.5h-8q-44 -54 -131 -54q-89 0 -145 60q-55 61 -55 161q0 125 80 203q80 79 208 79q130 0 200 -86t70 -242q0 -187 -89 -300q-88 -111 -249 -111zM316 383q39 0 64.5 28.5t25.5 71.5
q0 36 -19 57.5t-52 21.5q-39 0 -64.5 -28.5t-25.5 -70.5q0 -36 19 -58t52 -22z" />
    <glyph glyph-name="colon" unicode=":" horiz-adv-x="287" 
d="M240 371h-169l24 173h169zM188 0h-169l24 173h169z" />
    <glyph glyph-name="semicolon" unicode=";" horiz-adv-x="268" 
d="M234 371h-169l24 173h169zM-30 -177l8 59q55 0 79.5 19t30.5 60l6 39h-81l24 173h169l-26 -187q-22 -163 -210 -163z" />
    <glyph glyph-name="less" unicode="&#x3c;" horiz-adv-x="507" 
d="M435 181l-25 -178l-372 213l20 140l432 218l-24 -172l-133 -59l-135 -53l-1 -10l127 -48z" />
    <glyph glyph-name="equal" unicode="=" horiz-adv-x="536" 
d="M477 332h-402l21 151h402zM446 111h-402l21 150h402z" />
    <glyph glyph-name="greater" unicode="&#x3e;" horiz-adv-x="507" 
d="M453 216l-432 -213l25 178l124 51l143 48l1 10l-120 53l-117 59l24 172l372 -218z" />
    <glyph glyph-name="question" unicode="?" horiz-adv-x="603" 
d="M376 221h-181l27 198q10 -9 66 -9q60 0 94 25.5t34 68.5q0 32 -22 52t-57 20q-37 0 -63.5 -16t-33.5 -44h-187q19 105 101 163.5t204 58.5q116 0 184 -62q67 -61 67 -156q0 -102 -66 -166q-65 -62 -159 -70zM343 0h-180l25 171h180z" />
    <glyph glyph-name="at" unicode="@" horiz-adv-x="917" 
d="M58 247q0 208 138 349q139 142 343 142q158 0 253 -89t95 -230q0 -137 -70 -228q-69 -91 -172 -91q-40 0 -70 19.5t-37 52.5h-8q-40 -66 -121 -66q-64 0 -98 41.5t-34 112.5q0 108 59 182t145 74q65 0 94 -45h7l17 33h67l-51 -237q-11 -25 -2 -47.5t40 -22.5q58 0 94 59
q37 59 37 155q0 110 -69 171t-186 61q-157 0 -259 -108q-101 -107 -101 -271q0 -127 80 -199q80 -71 203 -71q126 0 243 53l-14 -98q-108 -50 -248 -50q-169 0 -272 94t-103 254zM378 275q0 -36 15 -55t40 -19q43 0 73 44q31 44 31 107q0 37 -16 56t-41 19q-43 0 -73 -45
q-29 -44 -29 -107z" />
    <glyph glyph-name="A" unicode="A" horiz-adv-x="737" 
d="M703 0h-215l-16 100h-254l-43 -100h-217l349 729h237zM398 514l-113 -260h162l-42 260h-7z" />
    <glyph glyph-name="B" unicode="B" horiz-adv-x="721" 
d="M420 0h-395l102 729h394q89 0 141.5 -42.5t52.5 -115.5q0 -64 -34.5 -115t-92.5 -73l-1 -9q101 -27 101 -137q0 -103 -75 -171q-75 -66 -193 -66zM304 583l-20 -139h131q38 0 62.5 24t24.5 61q0 26 -18 40t-49 14h-131zM264 301l-21 -155h136q44 0 71 25.5t27 66.5
q0 33 -22 48t-55 15h-136z" />
    <glyph glyph-name="C" unicode="C" horiz-adv-x="784" 
d="M547 259h210q-18 -121 -116 -195t-240 -74q-160 0 -260 98q-98 98 -98 259q0 167 105 279q106 112 279 112q139 0 233 -74q94 -73 106 -193h-210q-12 41 -49 66t-86 25q-73 0 -118 -57t-45 -149q0 -87 39.5 -138.5t106.5 -51.5q48 0 88 25.5t55 67.5z" />
    <glyph glyph-name="D" unicode="D" horiz-adv-x="756" 
d="M347 0h-322l102 729h322q143 0 220 -76.5t77 -213.5q0 -197 -111 -318q-109 -121 -288 -121zM306 557l-54 -385h83q198 0 198 252q0 79 -39 106q-38 27 -105 27h-83z" />
    <glyph glyph-name="E" unicode="E" horiz-adv-x="639" 
d="M559 0h-534l102 729h534l-24 -172h-331l-13 -98h278l-23 -161h-278l-18 -126h331z" />
    <glyph glyph-name="F" unicode="F" horiz-adv-x="622" 
d="M228 0h-203l102 729h539l-24 -172h-336l-21 -153h296l-23 -163h-296z" />
    <glyph glyph-name="G" unicode="G" horiz-adv-x="813" 
d="M351 252l22 157h407l-57 -409h-165l3 80h-7q-30 -42 -89 -66t-128 -24q-135 0 -216 92q-80 92 -80 245q0 180 109 295q110 116 283 116q131 0 218 -66q87 -65 107 -176h-211q-12 30 -43.5 48t-72.5 18q-77 0 -127 -63q-48 -63 -48 -161q0 -85 38 -134t106 -49
q52 0 91.5 27t52.5 70h-193z" />
    <glyph glyph-name="H" unicode="H" horiz-adv-x="810" 
d="M228 0h-203l102 729h203l-39 -281h278l39 281h203l-102 -729h-203l41 291h-278z" />
    <glyph glyph-name="I" unicode="I" horiz-adv-x="329" 
d="M330 729l-102 -729h-203l102 729h203z" />
    <glyph glyph-name="J" unicode="J" horiz-adv-x="433" 
d="M439 729l-69 -492q-34 -246 -289 -246q-63 0 -104 9l23 161q25 -5 56 -5q57 0 83 27t33 81l65 465h202z" />
    <glyph glyph-name="K" unicode="K" horiz-adv-x="755" 
d="M556 729h250l-307 -315l215 -414h-246l-131 249l-87 -90l-22 -159h-203l102 729h203l-40 -284z" />
    <glyph glyph-name="L" unicode="L" horiz-adv-x="573" 
d="M498 0h-473l102 729h203l-77 -550h270z" />
    <glyph glyph-name="M" unicode="M" horiz-adv-x="921" 
d="M223 0h-198l102 729h248l100 -337h8l191 337h248l-102 -729h-196l36 255l37 193h-7l-265 -438l-141 438h-9l-16 -195z" />
    <glyph glyph-name="N" unicode="N" horiz-adv-x="793" 
d="M228 0h-203l102 729h230l178 -437h8l17 202l33 235h201l-102 -729h-230l-176 431h-8l-17 -195z" />
    <glyph glyph-name="O" unicode="O" horiz-adv-x="803" 
d="M42 340q0 177 109 287q109 111 284 111q158 0 255 -97q97 -96 97 -253q0 -174 -111 -287q-111 -111 -285 -111q-155 0 -253 96q-96 96 -96 254zM258 339q0 -79 37.5 -126t102.5 -47q74 0 124 62q49 61 49 157q0 80 -38.5 128.5t-101.5 48.5q-75 0 -124 -63
q-49 -62 -49 -160z" />
    <glyph glyph-name="P" unicode="P" horiz-adv-x="699" 
d="M127 729h325q119 0 187.5 -63.5t68.5 -178.5q0 -129 -82 -202q-82 -72 -220 -72h-148l-30 -213h-203zM282 384h108q47 0 74 26t27 68q0 72 -78 72h-108z" />
    <glyph glyph-name="Q" unicode="Q" horiz-adv-x="806" 
d="M549 18q42 -21 121 -21q38 0 70 6l-25 -176q-29 -3 -53 -3q-229 0 -287 166q-150 4 -242 100q-91 95 -91 250q0 177 109 287q109 111 284 111q158 0 255 -97q97 -96 97 -253q0 -132 -64 -229q-65 -97 -174 -141zM258 339q0 -79 37.5 -126t102.5 -47q74 0 124 62
q49 61 49 157q0 80 -38.5 128.5t-101.5 48.5q-75 0 -124 -63q-49 -62 -49 -160z" />
    <glyph glyph-name="R" unicode="R" horiz-adv-x="741" 
d="M228 0h-203l102 729h356q110 0 172 -54t62 -147q0 -70 -36.5 -125t-96.5 -76l-1 -8q89 -29 75 -137l-11 -90q-7 -67 0 -92h-209q-7 20 1 90l7 55q8 52 -3 69t-52 17h-131zM306 557l-22 -155h119q45 0 69 22t24 61q0 72 -82 72h-108z" />
    <glyph glyph-name="S" unicode="S" horiz-adv-x="673" 
d="M14 233h210q-2 -37 26 -60t77 -23q42 0 67 16.5t25 45.5q0 23 -19 38q-7 7 -26 11q-24 6 -25 6l-84 21q-195 48 -195 207q0 108 85 175q86 68 217 68q124 0 204 -63q81 -62 85 -164h-211q-1 31 -24 50.5t-60 19.5q-34 0 -54 -14t-20 -39q0 -21 16.5 -32t60.5 -21l91 -21
q87 -21 133.5 -76t46.5 -135q0 -112 -89 -183q-88 -70 -230 -70q-138 0 -222 66q-84 68 -85 177z" />
    <glyph glyph-name="T" unicode="T" horiz-adv-x="585" 
d="M71 729h571l-24 -174h-187l-78 -555h-203l78 555h-181z" />
    <glyph glyph-name="U" unicode="U" horiz-adv-x="770" 
d="M84 314l59 415h202l-61 -433q-8 -57 22 -92t89 -35q57 0 94.5 33.5t45.5 93.5l61 433h202l-63 -445q-20 -140 -116 -217q-97 -77 -242 -77q-153 0 -234 89q-80 89 -59 235z" />
    <glyph glyph-name="V" unicode="V" horiz-adv-x="760" 
d="M469 0h-253l-151 729h227l45 -281l28 -253h8l102 253l121 281h227z" />
    <glyph glyph-name="W" unicode="W" horiz-adv-x="1023" 
d="M115 0l-46 729h224l5 -329l-1 -179h9l148 508h246l9 -510h8l46 178l95 332h224l-250 -729h-276l-14 450h-8l-143 -450h-276z" />
    <glyph glyph-name="X" unicode="X" horiz-adv-x="746" 
d="M227 0h-250l247 362l-161 368h254l45 -130l37 -121h8l65 118l80 133h250l-252 -367l159 -363h-255l-35 99l-45 138h-7l-80 -137z" />
    <glyph glyph-name="Y" unicode="Y" horiz-adv-x="742" 
d="M268 269l-205 460h239l39 -129l49 -153h8l92 149l79 133h238l-336 -460l-37 -269h-203z" />
    <glyph glyph-name="Z" unicode="Z" horiz-adv-x="592" 
d="M84 729h549l-23 -165l-354 -392h293l-24 -172h-543l23 167l351 389h-296z" />
    <glyph glyph-name="bracketleft" unicode="[" horiz-adv-x="309" 
d="M211 -242h-200l146 1039h200l-11 -78h-116l-125 -887h116z" />
    <glyph glyph-name="backslash" unicode="\" horiz-adv-x="341" 
d="M150 729l162 -729h-94l-163 729h95z" />
    <glyph glyph-name="bracketright" unicode="]" horiz-adv-x="309" 
d="M154 -242h-201l10 74h117l125 887h-117l11 78h201z" />
    <glyph glyph-name="asciicircum" unicode="^" horiz-adv-x="476" 
d="M482 468h-144l-54 118l-90 -118h-144l194 261h119z" />
    <glyph glyph-name="underscore" unicode="_" horiz-adv-x="358" 
d="M309 -92h-362l13 92h362z" />
    <glyph glyph-name="grave" unicode="`" horiz-adv-x="408" 
d="M416 802l-68 -91l-232 140l93 124z" />
    <glyph glyph-name="a" unicode="a" horiz-adv-x="583" 
d="M-2 138q0 90 59 140t161 50h126l5 35q7 52 -52 52q-61 0 -69 -53h-188q15 92 87.5 142t183.5 50q122 0 180.5 -64t40.5 -188l-21 -146q-5 -26 18 -26q6 0 16 2l-18 -132q-39 -10 -83 -10q-53 0 -80 26t-26 72h-9q-19 -46 -65 -72t-106 -26q-72 0 -116 40.5t-44 107.5z
M194 170q0 -39 46 -39q35 0 59 21t28 55l1 9h-78q-27 0 -41.5 -12.5t-14.5 -33.5z" />
    <glyph glyph-name="b" unicode="b" horiz-adv-x="662" 
d="M174 0h-165l105 750h191l-42 -303h10q58 107 182 107q90 0 139 -63t49 -177q0 -141 -71 -233q-70 -91 -183 -91q-62 0 -105.5 28.5t-59.5 79.5h-10zM240 282l-2 -14q-8 -57 15.5 -91t72.5 -34q54 0 87.5 41.5t33.5 107.5q0 54 -24 81.5t-67 27.5q-47 0 -77.5 -31.5
t-38.5 -87.5z" />
    <glyph glyph-name="c" unicode="c" horiz-adv-x="578" 
d="M364 208h188q-15 -96 -89 -158q-73 -60 -184 -60q-119 0 -189 69q-70 70 -70 188q0 131 86 219q85 88 222 88q110 0 177 -60q68 -60 66 -158h-188q0 28 -17.5 46t-46.5 18q-47 0 -76 -43t-29 -113q0 -48 18.5 -74t51.5 -26q28 0 50.5 18t29.5 46z" />
    <glyph glyph-name="d" unicode="d" horiz-adv-x="660" 
d="M680 750l-105 -750h-165l-12 98h-10q-29 -51 -81 -79.5t-109 -28.5q-87 0 -134.5 56.5t-47.5 156.5q0 151 74 251q73 100 187 100q64 0 105 -30t54 -83h10l43 309h191zM421 261l3 21q9 59 -15 89t-73 30q-55 0 -88.5 -45t-33.5 -118q0 -95 84 -95q51 0 83 31t40 87z" />
    <glyph glyph-name="e" unicode="e" horiz-adv-x="587" 
d="M283 -10q-123 0 -193 70t-70 189q0 133 84 218q84 87 215 87q111 0 180 -63t69 -164q0 -55 -17 -100h-343q-7 -44 13.5 -71t61.5 -27q59 0 82 42h188q-21 -83 -95 -133q-74 -48 -175 -48zM227 348h156q2 30 -17 48.5t-54 18.5q-34 0 -57.5 -18.5t-27.5 -48.5z" />
    <glyph glyph-name="f" unicode="f" horiz-adv-x="431" 
d="M454 544l-22 -153h-114l-55 -391h-191l55 391h-104l22 153h104l4 30q13 96 68 141t161 45q56 0 109 -14l-19 -145q-21 6 -52 6q-38 0 -56 -13t-23 -40l-2 -10h115z" />
    <glyph glyph-name="g" unicode="g" horiz-adv-x="568" 
d="M-44 -73q0 39 24.5 67.5t64.5 36.5l1 9q-52 19 -52 75q0 37 27 68.5t74 46.5l1 9q-67 37 -67 121q0 85 70 139q70 55 180 55q53 0 83 -8q24 55 83 90q61 35 133 35l-20 -142q-68 0 -96 -27q49 -40 49 -118q0 -84 -69 -135q-68 -51 -182 -51q-37 0 -65 5q-21 -11 -21 -32
q0 -25 57 -25h95q91 0 138.5 -41t47.5 -114q0 -94 -81 -141t-230 -47q-245 0 -245 124zM216 372q0 -21 13.5 -33.5t36.5 -12.5q27 0 43.5 15.5t16.5 39.5q0 21 -13.5 33.5t-36.5 12.5q-26 0 -43 -15t-17 -40zM130 -30q0 -35 91 -35q99 0 99 40q0 25 -33 25h-107
q-50 0 -50 -30z" />
    <glyph glyph-name="h" unicode="h" horiz-adv-x="652" 
d="M200 0h-191l105 750h191l-42 -303h10q65 107 191 107q93 0 130.5 -60.5t22.5 -171.5l-45 -322h-192l42 302q14 98 -70 98q-45 0 -74.5 -29.5t-36.5 -79.5z" />
    <glyph glyph-name="i" unicode="i" horiz-adv-x="286" 
d="M282 581h-191l23 169h191zM200 0h-191l76 544h191z" />
    <glyph glyph-name="j" unicode="j" horiz-adv-x="286" 
d="M282 581h-192l23 169h192zM-40 -177q-43 0 -75 7l21 147q4 -1 27 -1q27 0 45 10t25.5 26t10 27t2.5 21l68 484h192l-72 -516q-14 -100 -78.5 -152.5t-165.5 -52.5z" />
    <glyph glyph-name="k" unicode="k" horiz-adv-x="629" 
d="M432 544h234l-230 -211l165 -333h-217l-98 196l-64 -59l-19 -137h-194l105 750h194l-52 -374z" />
    <glyph glyph-name="l" unicode="l" horiz-adv-x="285" 
d="M200 0h-191l105 750h191z" />
    <glyph glyph-name="m" unicode="m" horiz-adv-x="947" 
d="M200 0h-191l76 544h167l10 -99h11q31 58 69 83.5t94 25.5q116 0 140 -107h12q65 107 180 107q88 0 123.5 -61.5t20.5 -171.5l-45 -321h-191l42 301q14 99 -51 99q-37 0 -61 -24t-29 -64l-44 -312h-192l43 306q13 94 -53 94q-35 0 -58 -22.5t-28 -60.5z" />
    <glyph glyph-name="n" unicode="n" horiz-adv-x="651" 
d="M200 0h-191l76 544h168l10 -99h10q64 109 191 109q93 0 130 -61t22 -172l-45 -321h-191l42 301q14 99 -70 99q-45 0 -75 -30.5t-37 -81.5z" />
    <glyph glyph-name="o" unicode="o" horiz-adv-x="607" 
d="M21 252q0 136 83 219t219 83q119 0 191 -72q72 -70 72 -189q0 -136 -83 -219t-219 -83q-118 0 -191 71q-72 72 -72 190zM216 246q0 -46 19 -73.5t51 -27.5q47 0 75.5 42.5t28.5 111.5q0 46 -19 73.5t-51 27.5q-47 0 -75.5 -42.5t-28.5 -111.5z" />
    <glyph glyph-name="p" unicode="p" horiz-adv-x="662" 
d="M-15 -167l100 711h165l12 -101h10q62 111 185 111q87 0 136.5 -64.5t49.5 -174.5q0 -146 -73 -235q-72 -90 -185 -90q-63 0 -106 29t-56 78h-10l-37 -264h-191zM240 283l-2 -11q-11 -58 12.5 -93.5t72.5 -35.5q55 0 89 42t34 108q0 52 -22.5 80t-63.5 28
q-47 0 -78.5 -31.5t-41.5 -86.5z" />
    <glyph glyph-name="q" unicode="q" horiz-adv-x="664" 
d="M490 544h165l-100 -711h-191l38 264h-10q-59 -107 -179 -107q-91 0 -142 66t-51 180q0 142 68 230q69 88 181 88q63 0 109 -30t62 -81h10zM425 263l2 17q7 55 -18 88t-72 33q-53 0 -86 -41t-33 -106q0 -53 23.5 -82t65.5 -29q46 0 78.5 33t39.5 87z" />
    <glyph glyph-name="r" unicode="r" horiz-adv-x="412" 
d="M200 0h-191l76 544h166l11 -99h7q24 51 72.5 80.5t106.5 29.5l-23 -165q-88 1 -134.5 -40.5t-58.5 -126.5z" />
    <glyph glyph-name="s" unicode="s" horiz-adv-x="543" 
d="M8 174h184q0 -52 62 -52q55 0 55 38q0 26 -42 34l-47 9l-39 8q-19 6 -42 16q-81 33 -88 136q0 88 68 139q67 52 174 52q102 0 164.5 -47t66.5 -127h-183q-1 19 -14.5 30.5t-35.5 11.5q-20 0 -32.5 -9.5t-12.5 -25.5q2 -12 10 -19.5t16 -10t29 -6.5l57 -11
q149 -29 149 -156q0 -89 -70 -141q-70 -53 -184 -53q-110 0 -175 49.5t-70 134.5z" />
    <glyph glyph-name="t" unicode="t" horiz-adv-x="419" 
d="M21 391l22 153h84l16 117l201 74l-26 -191h114l-22 -153h-114l-26 -186q-1 -15 -2 -29.5t13.5 -24.5t45.5 -10q27 0 49 5l-21 -146q-49 -10 -100 -10q-205 0 -178 203l28 198h-84z" />
    <glyph glyph-name="u" unicode="u" horiz-adv-x="641" 
d="M460 544h191l-76 -544h-169l-9 99h-11q-64 -109 -187 -109q-90 0 -128.5 57.5t-23.5 160.5l47 336h192l-43 -305q-14 -95 68 -95q43 0 72.5 31t36.5 81z" />
    <glyph glyph-name="v" unicode="v" horiz-adv-x="573" 
d="M129 0l-101 544h201l16 -191l18 -196h6l72 194l70 193h210l-253 -544h-239z" />
    <glyph glyph-name="w" unicode="w" horiz-adv-x="823" 
d="M95 0l-54 544h179l6 -190l6 -163h8l103 353h206v-356h5l51 164l65 192h188l-208 -544h-230l-5 203v97h-6l-28 -96l-61 -204h-225z" />
    <glyph glyph-name="x" unicode="x" horiz-adv-x="572" 
d="M164 0h-202l191 269l-121 275h196l65 -168h8l107 168h202l-190 -269l120 -275h-196l-65 166h-8z" />
    <glyph glyph-name="y" unicode="y" horiz-adv-x="555" 
d="M152 45l-129 499h200l23 -177l18 -147h8l57 147l72 177h202l-271 -556q-42 -89 -112 -128q-67 -37 -183 -37q-45 0 -80 7l21 152q28 -5 64 -5q84 0 102 48z" />
    <glyph glyph-name="z" unicode="z" horiz-adv-x="506" 
d="M69 544h438l-18 -133l-239 -258h208l-22 -153h-440l19 136l237 255h-204z" />
    <glyph glyph-name="braceleft" unicode="{" horiz-adv-x="350" 
d="M54 240l11 79q35 0 57 20.5t27 55.5l43 307q6 44 34.5 69.5t73.5 25.5h98l-11 -78h-106l-44 -317q-16 -103 -97 -118v-3q76 -23 63 -120l-46 -329h106l-11 -74h-98q-45 0 -66 25t-15 70l44 313q6 37 -11.5 55.5t-51.5 18.5z" />
    <glyph glyph-name="bar" unicode="|" horiz-adv-x="298" 
d="M178 -59h-156l114 812h156z" />
    <glyph glyph-name="braceright" unicode="}" horiz-adv-x="349" 
d="M297 319l-11 -79q-73 0 -85 -74l-44 -313q-14 -95 -106 -95h-98l10 74h104l47 329q15 97 99 120v3q-78 16 -65 118l44 317h-104l11 78h98q44 0 65 -25.5t15 -69.5l-43 -307q-5 -34 11.5 -55t51.5 -21z" />
    <glyph glyph-name="asciitilde" unicode="~" horiz-adv-x="462" 
d="M95 252h-82q6 90 47.5 137t101.5 47q40 0 87 -32q46 -31 76 -31q56 0 65 67h81q-6 -90 -49 -138t-102 -48q-34 0 -68.5 16t-61.5 32t-42 16q-23 0 -37.5 -18.5t-15.5 -47.5z" />
    <glyph glyph-name="uni00A0" unicode="&#xa0;" horiz-adv-x="203" 
 />
    <glyph glyph-name="exclamdown" unicode="&#xa1;" horiz-adv-x="315" 
d="M96 550l25 179h201l-25 -179h-201zM54 218l86 275h99l9 -275l-31 -218h-194z" />
    <glyph glyph-name="cent" unicode="&#xa2;" horiz-adv-x="562" 
d="M543 419h-188q1 24 -14.5 38.5t-40.5 14.5q-38 0 -61 -40t-23 -105q0 -69 55 -69q24 0 42 13.5t25 37.5h187q-16 -77 -74.5 -130t-143.5 -67l-11 -82h-115l12 82q-78 14 -120.5 66.5t-42.5 136.5q0 119 64 199q65 83 169 102l12 83h115l-12 -81q82 -14 126.5 -67.5
t38.5 -131.5z" />
    <glyph glyph-name="sterling" unicode="&#xa3;" horiz-adv-x="659" 
d="M373 569q-59 0 -70 -69l-8 -57h218l-21 -151h-218l-18 -130h181l11 77h162l-34 -239h-605l23 162h65l18 130h-65l21 151h65l8 57q16 110 96 174q79 64 198 64q106 0 167 -59q61 -58 53 -154h-197q-3 44 -50 44z" />
    <glyph glyph-name="currency" unicode="&#xa4;" horiz-adv-x="584" 
d="M67 44l-73 88l92 75q-39 63 -29 132t66 133l-72 75l100 89l63 -87q136 68 241 4l84 83l72 -90l-84 -70q35 -56 26 -131q-9 -74 -66 -142l66 -73l-95 -86l-61 85q-134 -68 -241 4zM222 326q0 -32 19.5 -52.5t49.5 -20.5q39 0 67 30q28 31 28 72q0 32 -20 52t-51 20
q-37 0 -65 -31q-28 -29 -28 -70z" />
    <glyph glyph-name="yen" unicode="&#xa5;" horiz-adv-x="728" 
d="M556 729h237l-222 -314h54l-21 -152h-140l-5 -39h139l-21 -151h-140l-10 -73h-201l10 73h-140l21 151h141l5 39h-140l21 152h54l-135 314h239l58 -193l21 -101h9l52 102z" />
    <glyph glyph-name="brokenbar" unicode="&#xa6;" horiz-adv-x="298" 
d="M238 369h-156l54 384h156zM177 -67h-156l52 370h156z" />
    <glyph glyph-name="section" unicode="&#xa7;" horiz-adv-x="590" 
d="M41 297q0 60 40.5 103t107.5 52l1 8q-73 25 -73 96q0 80 74 131q73 52 189 52q99 0 154 -44t46 -117h-196q1 12 -6 17t-19 5q-25 0 -25 -20q0 -7 3.5 -10t13.5 -6t15 -6l78 -26q55 -18 88 -41q45 -31 45 -90q0 -51 -28.5 -91t-80.5 -61l-1 -10q28 -8 45.5 -36.5
t17.5 -66.5q0 -85 -77 -139t-198 -54q-105 0 -163 41.5t-54 114.5h205q2 -20 24 -20q19 0 30.5 8.5t11.5 21.5q0 15 -36 27l-129 43q-32 11 -60 30q-43 29 -43 88zM255 360q0 -20 33 -34l42 -16l38 -13q11 24 11 35t-8 19q-9 10 -37 21l-21 8q-10 4 -19.5 8t-14.5 6t-6 2
q-18 -14 -18 -36z" />
    <glyph glyph-name="dieresis" unicode="&#xa8;" horiz-adv-x="433" 
d="M236 729h-142l23 163h142zM457 729h-142l23 163h142z" />
    <glyph glyph-name="copyright" unicode="&#xa9;" horiz-adv-x="967" 
d="M495 -85q-110 0 -207 52q-96 52 -158 151q-61 98 -61 222q0 123 61 220q60 98 156 150.5t209 52.5q169 0 296 -119q126 -118 126 -302q0 -120 -59 -220q-59 -98 -155 -152.5t-208 -54.5zM495 -43q157 0 267 107q110 108 110 278q0 166 -110 273t-267 107t-269 -107
q-111 -107 -111 -275q0 -167 111 -275t269 -108zM502 103q-105 0 -174 69q-68 70 -68 168q0 99 68 167q70 68 173 68q91 0 158 -53q67 -52 67 -132h-116q-4 37 -34 59t-74 22q-58 0 -91.5 -37.5t-33.5 -95.5t32.5 -94.5t90.5 -36.5q45 0 75.5 22t34.5 58h116
q-5 -83 -69 -134q-65 -50 -155 -50z" />
    <glyph glyph-name="ordfeminine" unicode="&#xaa;" horiz-adv-x="468" 
d="M448 447q11 0 12 1l-15 -104q-24 -8 -60 -8q-43 0 -65 20.5t-20 57.5h-4q-13 -36 -46 -56.5t-78 -20.5q-49 0 -79 29t-30 78q0 61 43.5 96.5t119.5 35.5h77l1 7q4 18 -6.5 28t-31.5 10q-34 0 -44 -27h-134q8 59 59 96q53 39 132 39q84 0 128 -44.5t33 -117.5l-14 -94
q-5 -26 22 -26zM290 481l1 9h-50q-39 0 -39 -28q0 -23 33 -23q24 0 38.5 11.5t16.5 30.5z" />
    <glyph glyph-name="guillemotleft" unicode="&#xab;" horiz-adv-x="579" 
d="M113 54l-88 220l150 218h161l-138 -218l76 -220h-161zM367 54l-87 220l149 218h163l-140 -218l78 -220h-163z" />
    <glyph glyph-name="logicalnot" unicode="&#xac;" horiz-adv-x="557" 
d="M496 139h-144l20 142h-331l21 147h475z" />
    <glyph glyph-name="registered" unicode="&#xae;" horiz-adv-x="622" 
d="M327 207q-112 0 -185 70q-74 71 -74 183q0 122 81 200q83 78 203 78q112 0 185 -70q74 -69 74 -182q0 -120 -81 -200q-79 -79 -203 -79zM329 249q103 0 171 66q68 68 68 169q0 96 -63 156t-156 60q-102 0 -171 -66q-68 -66 -68 -169q0 -96 63 -156t156 -60zM292 365h-65
l32 232h120q69 0 69 -56q0 -49 -42 -71l-1 -1q29 -18 24 -47l-4 -27q-3 -23 0 -30h-66q-3 8 0 29l2 17q3 28 -25 28h-34zM317 543l-8 -54h35q15 0 23.5 9t8.5 23q0 22 -26 22h-33z" />
    <glyph glyph-name="overscore" unicode="&#xaf;" horiz-adv-x="358" 
d="M437 726h-387l20 143h387z" />
    <glyph glyph-name="degree" unicode="&#xb0;" horiz-adv-x="438" 
d="M431 576q0 -76 -51 -125q-51 -48 -127 -48q-73 0 -117.5 43.5t-44.5 114.5q0 77 50 125q51 48 128 48q70 0 116 -44q46 -43 46 -114zM304 571q0 22 -11 35.5t-30 13.5q-20 0 -33 -15t-13 -39q0 -22 11 -35.5t30 -13.5q20 0 33 15t13 39z" />
    <glyph glyph-name="plusminus" unicode="&#xb1;" horiz-adv-x="591" 
d="M558 321h-183l-20 -144h-147l20 144h-181l20 143h181l20 142h147l-20 -142h183zM513 0h-511l20 143h511z" />
    <glyph glyph-name="uni00B2" unicode="&#xb2;" horiz-adv-x="460" 
d="M234 420l60 3h161l-17 -123h-398l3 19q9 54 35 102q17 29 42 56t38.5 37.5t50.5 38.5q10 7 34 24t33.5 24.5t26.5 22t24 25t13 25t6 30.5q0 21 -14 33t-39 12q-31 0 -50 -19.5t-20 -54.5h-142q15 90 78 142t156 52q83 0 131 -40t48 -109q0 -94 -69 -157q-29 -26 -64 -50
q-104 -70 -127 -93z" />
    <glyph glyph-name="uni00B3" unicode="&#xb3;" horiz-adv-x="477" 
d="M249 292q-95 0 -145 49t-38 129h142q-4 -24 13 -40.5t49 -16.5q33 0 54.5 20.5t21.5 51.5q0 46 -66 46h-65l15 111h51q38 0 60.5 17t22.5 47q0 20 -14.5 31.5t-39.5 11.5q-31 0 -52 -15.5t-22 -40.5h-142q7 79 72 127q65 49 165 49q83 0 131.5 -36t48.5 -96
q0 -46 -24.5 -83t-67.5 -56l-1 -5q70 -30 70 -109q0 -82 -68 -138q-68 -54 -171 -54z" />
    <glyph glyph-name="acute" unicode="&#xb4;" horiz-adv-x="414" 
d="M464 846l-272 -140l-49 88l252 169z" />
    <glyph glyph-name="paragraph" unicode="&#xb6;" horiz-adv-x="684" 
d="M326 729h376l-16 -114h-63l-87 -619q-12 -86 -65.5 -129.5t-139.5 -43.5h-278l15 104h132l54 387q-92 0 -144 46t-52 123q0 108 75 177t193 69zM322 -73h14q68 0 75 60l88 628h-81z" />
    <glyph glyph-name="middot" unicode="&#xb7;" horiz-adv-x="363" 
d="M63 272q0 58 38 96q38 39 94 39q48 0 78 -30.5t30 -80.5q0 -58 -37 -96q-38 -38 -93 -38q-48 0 -79 30t-31 80z" />
    <glyph glyph-name="cedilla" unicode="&#xb8;" horiz-adv-x="492" 
d="M278 16l-39 -38q35 -4 58.5 -26.5t23.5 -62.5t-25 -68t-62 -37.5t-78.5 -6.5t-75.5 20l12 85q37 -23 75 -17q39 6 39 39q0 24 -25 30q-26 5 -42 -4l7 48l62 59h73z" />
    <glyph glyph-name="uni00B9" unicode="&#xb9;" horiz-adv-x="346" 
d="M201 654h-147l15 108h25q54 0 94 27.5t50 72.5h133l-79 -562h-141z" />
    <glyph glyph-name="ordmasculine" unicode="&#xba;" horiz-adv-x="485" 
d="M81 514q0 94 61 154q61 61 157 61q80 0 129 -49q50 -48 50 -127q0 -94 -61 -155q-61 -60 -157 -60q-80 0 -130 48q-49 49 -49 128zM221 517q0 -33 12.5 -51.5t35.5 -18.5q31 0 50 28t19 74q0 32 -12.5 51t-34.5 19q-31 0 -50.5 -28t-19.5 -74z" />
    <glyph glyph-name="guillemotright" unicode="&#xbb;" horiz-adv-x="579" 
d="M211 492l87 -218l-149 -220h-162l139 220l-77 218h162zM466 492l87 -218l-149 -220h-163l140 220l-78 218h163z" />
    <glyph glyph-name="onequarter" unicode="&#xbc;" horiz-adv-x="922" 
d="M129 -46l529 814h143l-530 -814h-142zM259 256h-116l42 296h-125l13 92h45q43 0 69 22t26 60v3h113zM916 480l-42 -298h45l-14 -101h-45l-11 -81h-114l11 81h-206l13 93l192 306h171zM783 346l-101 -164h78z" />
    <glyph glyph-name="onehalf" unicode="&#xbd;" horiz-adv-x="970" 
d="M129 -46l529 814h143l-530 -814h-142zM259 256h-116l42 296h-125l13 92h45q43 0 69 22t26 60v3h113zM733 97l52 3h124l-14 -100h-320l2 16q6 53 34 98.5t67 74.5q16 12 52 38t53 39.5t33 36t16 44.5q0 20 -12.5 30.5t-31.5 10.5q-26 0 -42 -18t-19 -48l-115 6
q12 71 66 114.5t131 43.5q67 0 104 -33t37 -91q0 -49 -24.5 -92t-59.5 -69l-74 -53q-42 -31 -59 -51z" />
    <glyph glyph-name="threequarters" unicode="&#xbe;" horiz-adv-x="976" 
d="M193 -46l529 814h143l-530 -814h-142zM374 410q0 -70 -54 -116q-52 -46 -133 -46q-76 0 -116 41.5t-30 107.5h115q-2 -20 10 -34.5t33 -14.5q24 0 41 16.5t17 39.5q0 18 -13 29t-34 11h-45l14 103h30q29 0 46.5 15t17.5 40q0 33 -39 33q-22 0 -37 -13.5t-17 -35.5h-116
q8 68 59 108.5t130 40.5q65 0 103 -30t38 -79q0 -86 -79 -119v-5q59 -26 59 -92zM980 480l-42 -298h45l-14 -101h-45l-11 -81h-114l11 81h-206l13 93l192 306h171zM847 346l-101 -164h78z" />
    <glyph glyph-name="questiondown" unicode="&#xbf;" horiz-adv-x="603" 
d="M286 729h180l-25 -171h-180zM253 508h181l-27 -198q-11 9 -66 9q-60 0 -94 -25.5t-34 -68.5q0 -32 22 -52t57 -20q37 0 63.5 16t33.5 44h187q-19 -105 -101 -163.5t-204 -58.5q-117 0 -184 61t-67 157q0 102 66 165q65 63 159 71z" />
    <glyph glyph-name="Agrave" unicode="&#xc0;" horiz-adv-x="737" 
d="M290 1026l207 -173l-68 -91l-232 140zM703 0h-215l-16 100h-254l-43 -100h-217l349 729h237zM398 514l-113 -260h162l-42 260h-7z" />
    <glyph glyph-name="Aacute" unicode="&#xc1;" horiz-adv-x="737" 
d="M628 1014l69 -117l-272 -140l-49 88zM703 0h-215l-16 100h-254l-43 -100h-217l349 729h237zM398 514l-113 -260h162l-42 260h-7z" />
    <glyph glyph-name="Acircumflex" unicode="&#xc2;" horiz-adv-x="737" 
d="M551 761l-98 124l-132 -124l-83 88l172 145h104l132 -145zM703 0h-215l-16 100h-254l-43 -100h-217l349 729h237zM398 514l-113 -260h162l-42 260h-7z" />
    <glyph glyph-name="Atilde" unicode="&#xc3;" horiz-adv-x="737" 
d="M376 810q-30 0 -70 -39l-67 50q31 61 72 89.5t83 27.5q29 -2 60 -20q34 -18 59 -18q37 0 62 34l5 6l69 -47q-29 -61 -70 -92.5t-85 -30.5q-28 2 -61 20q-35 20 -57 20zM703 0h-215l-16 100h-254l-43 -100h-217l349 729h237zM398 514l-113 -260h162l-42 260h-7z" />
    <glyph glyph-name="Adieresis" unicode="&#xc4;" horiz-adv-x="737" 
d="M272 935h142l-23 -163h-142zM493 935h142l-23 -163h-142zM703 0h-215l-16 100h-254l-43 -100h-217l349 729h237zM398 514l-113 -260h162l-42 260h-7z" />
    <glyph glyph-name="Aring" unicode="&#xc5;" horiz-adv-x="737" 
d="M703 0h-215l-16 100h-254l-43 -100h-217l349 729q-9 23 -9 50q0 64 41.5 103t109.5 39q58 0 93 -33t35 -87q0 -52 -29 -90zM443 833q-20 0 -32.5 -13.5t-12.5 -35.5q0 -16 9.5 -26t24.5 -10q21 0 33.5 13t12.5 35q0 17 -9.5 27t-25.5 10zM398 514l-113 -260h162l-42 260
h-7z" />
    <glyph glyph-name="AE" unicode="&#xc6;" horiz-adv-x="1007" 
d="M1029 729l-24 -172h-316l-16 -115h264l-22 -160h-265l-15 -110h316l-24 -172h-519l20 144h-200l-61 -144h-209l323 729h748zM293 298h157l36 259h-84z" />
    <glyph glyph-name="Ccedilla" unicode="&#xc7;" horiz-adv-x="784" 
d="M404 166q48 0 88 25.5t55 67.5h210q-18 -121 -116 -195t-240 -74h-11l-15 -14q35 -4 58.5 -26.5t23.5 -62.5t-25 -68t-62 -37.5t-78.5 -6.5t-75.5 20l12 85q37 -23 75 -17q39 6 39 39q0 24 -25 30q-26 5 -42 -4l7 48l25 24q-122 27 -193 119q-71 94 -71 228
q0 167 105 279q106 112 279 112q139 0 233 -74q94 -73 106 -193h-210q-12 41 -49 66t-86 25q-73 0 -118 -57t-45 -149q0 -87 39.5 -138.5t106.5 -51.5z" />
    <glyph glyph-name="Egrave" unicode="&#xc8;" horiz-adv-x="639" 
d="M466 853l-68 -91l-232 140l93 124zM559 0h-534l102 729h534l-24 -172h-331l-13 -98h278l-23 -161h-278l-18 -126h331z" />
    <glyph glyph-name="Eacute" unicode="&#xc9;" horiz-adv-x="639" 
d="M666 897l-272 -140l-49 88l252 169zM559 0h-534l102 729h534l-24 -172h-331l-13 -98h278l-23 -161h-278l-18 -126h331z" />
    <glyph glyph-name="Ecircumflex" unicode="&#xca;" horiz-adv-x="639" 
d="M290 761l-83 88l172 145h104l132 -145l-95 -88l-98 124zM559 0h-534l102 729h534l-24 -172h-331l-13 -98h278l-23 -161h-278l-18 -126h331z" />
    <glyph glyph-name="Edieresis" unicode="&#xcb;" horiz-adv-x="639" 
d="M360 772h-142l23 163h142zM581 772h-142l23 163h142zM559 0h-534l102 729h534l-24 -172h-331l-13 -98h278l-23 -161h-278l-18 -126h331z" />
    <glyph glyph-name="Igrave" unicode="&#xcc;" horiz-adv-x="329" 
d="M301 853l-68 -91l-232 140l93 124zM330 729l-102 -729h-203l102 729h203z" />
    <glyph glyph-name="Iacute" unicode="&#xcd;" horiz-adv-x="329" 
d="M501 897l-272 -140l-49 88l252 169zM330 729l-102 -729h-203l102 729h203z" />
    <glyph glyph-name="Icircumflex" unicode="&#xce;" horiz-adv-x="329" 
d="M125 761l-83 88l172 145h104l132 -145l-95 -88l-98 124zM330 729l-102 -729h-203l102 729h203z" />
    <glyph glyph-name="Idieresis" unicode="&#xcf;" horiz-adv-x="329" 
d="M195 772h-142l23 163h142zM416 772h-142l23 163h142zM330 729l-102 -729h-203l102 729h203z" />
    <glyph glyph-name="Eth" unicode="&#xd0;" horiz-adv-x="756" 
d="M127 729h322q143 0 220 -76.5t77 -213.5q0 -197 -111 -318q-109 -121 -288 -121h-322l43 304h-65l19 130h64zM252 172h83q198 0 198 252q0 79 -39 106q-38 27 -105 27h-83l-17 -123h108l-18 -130h-108z" />
    <glyph glyph-name="Ntilde" unicode="&#xd1;" horiz-adv-x="793" 
d="M519 770q-28 2 -61 20q-35 20 -57 20q-29 0 -70 -39l-67 50q31 61 72 89.5t83 27.5q29 -2 60 -20q35 -18 59 -18q37 0 62 34l5 6l69 -47q-29 -61 -70 -92.5t-85 -30.5zM228 0h-203l102 729h230l178 -437h8l17 202l33 235h201l-102 -729h-230l-176 431h-8l-17 -195z" />
    <glyph glyph-name="Ograve" unicode="&#xd2;" horiz-adv-x="803" 
d="M507 862l-68 -91l-232 140l93 124zM42 340q0 177 109 287q109 111 284 111q158 0 255 -97q97 -96 97 -253q0 -174 -111 -287q-111 -111 -285 -111q-155 0 -253 96q-96 96 -96 254zM258 339q0 -79 37.5 -126t102.5 -47q74 0 124 62q49 61 49 157q0 80 -38.5 128.5
t-101.5 48.5q-75 0 -124 -63q-49 -62 -49 -160z" />
    <glyph glyph-name="Oacute" unicode="&#xd3;" horiz-adv-x="803" 
d="M707 906l-272 -140l-49 88l252 169zM42 340q0 177 109 287q109 111 284 111q158 0 255 -97q97 -96 97 -253q0 -174 -111 -287q-111 -111 -285 -111q-155 0 -253 96q-96 96 -96 254zM258 339q0 -79 37.5 -126t102.5 -47q74 0 124 62q49 61 49 157q0 80 -38.5 128.5
t-101.5 48.5q-75 0 -124 -63q-49 -62 -49 -160z" />
    <glyph glyph-name="Ocircumflex" unicode="&#xd4;" horiz-adv-x="803" 
d="M331 770l-83 88l172 145h104l132 -145l-95 -88l-98 124zM42 340q0 177 109 287q109 111 284 111q158 0 255 -97q97 -96 97 -253q0 -174 -111 -287q-111 -111 -285 -111q-155 0 -253 96q-96 96 -96 254zM258 339q0 -79 37.5 -126t102.5 -47q74 0 124 62q49 61 49 157
q0 80 -38.5 128.5t-101.5 48.5q-75 0 -124 -63q-49 -62 -49 -160z" />
    <glyph glyph-name="Otilde" unicode="&#xd5;" horiz-adv-x="803" 
d="M504 779q-28 2 -61 20q-35 20 -57 20q-29 0 -70 -39l-67 50q31 61 72 89.5t83 27.5q29 -2 60 -20q34 -18 59 -18q34 0 62 33l5 7l69 -47q-29 -61 -70 -92.5t-85 -30.5zM42 340q0 177 109 287q109 111 284 111q158 0 255 -97q97 -96 97 -253q0 -174 -111 -287
q-111 -111 -285 -111q-155 0 -253 96q-96 96 -96 254zM258 339q0 -79 37.5 -126t102.5 -47q74 0 124 62q49 61 49 157q0 80 -38.5 128.5t-101.5 48.5q-75 0 -124 -63q-49 -62 -49 -160z" />
    <glyph glyph-name="Odieresis" unicode="&#xd6;" horiz-adv-x="803" 
d="M401 781h-142l23 163h142zM622 781h-142l23 163h142zM42 340q0 177 109 287q109 111 284 111q158 0 255 -97q97 -96 97 -253q0 -174 -111 -287q-111 -111 -285 -111q-155 0 -253 96q-96 96 -96 254zM258 339q0 -79 37.5 -126t102.5 -47q74 0 124 62q49 61 49 157
q0 80 -38.5 128.5t-101.5 48.5q-75 0 -124 -63q-49 -62 -49 -160z" />
    <glyph glyph-name="multiply" unicode="&#xd7;" horiz-adv-x="647" 
d="M106 1l-96 115l204 184l-152 186l128 114l148 -179h13l195 179l97 -114l-203 -186l151 -184l-129 -115l-145 179h-13z" />
    <glyph glyph-name="Oslash" unicode="&#xd8;" horiz-adv-x="803" 
d="M766 677l70 -119l-67 -44q19 -58 19 -126q0 -174 -111 -287q-111 -111 -285 -111q-165 0 -262 106l-68 -45l-70 119l70 46q-19 53 -19 124q0 177 109 287q110 111 284 111q166 0 263 -105zM432 562q-73 0 -123 -62q-48 -60 -50 -155l268 176q-38 41 -95 41zM572 385
l-271 -178q36 -41 98 -41q74 0 124 62q49 61 49 157z" />
    <glyph glyph-name="Ugrave" unicode="&#xd9;" horiz-adv-x="770" 
d="M542 853l-68 -91l-232 140l93 124zM84 314l59 415h202l-61 -433q-8 -57 22 -92t89 -35q57 0 94.5 33.5t45.5 93.5l61 433h202l-63 -445q-20 -140 -116 -217q-97 -77 -242 -77q-153 0 -234 89q-80 89 -59 235z" />
    <glyph glyph-name="Uacute" unicode="&#xda;" horiz-adv-x="770" 
d="M742 897l-272 -140l-49 88l252 169zM84 314l59 415h202l-61 -433q-8 -57 22 -92t89 -35q57 0 94.5 33.5t45.5 93.5l61 433h202l-63 -445q-20 -140 -116 -217q-97 -77 -242 -77q-153 0 -234 89q-80 89 -59 235z" />
    <glyph glyph-name="Ucircumflex" unicode="&#xdb;" horiz-adv-x="770" 
d="M366 761l-83 88l172 145h104l132 -145l-95 -88l-98 124zM84 314l59 415h202l-61 -433q-8 -57 22 -92t89 -35q57 0 94.5 33.5t45.5 93.5l61 433h202l-63 -445q-20 -140 -116 -217q-97 -77 -242 -77q-153 0 -234 89q-80 89 -59 235z" />
    <glyph glyph-name="Udieresis" unicode="&#xdc;" horiz-adv-x="770" 
d="M436 772h-142l23 163h142zM657 772h-142l23 163h142zM84 314l59 415h202l-61 -433q-8 -57 22 -92t89 -35q57 0 94.5 33.5t45.5 93.5l61 433h202l-63 -445q-20 -140 -116 -217q-97 -77 -242 -77q-153 0 -234 89q-80 89 -59 235z" />
    <glyph glyph-name="Yacute" unicode="&#xdd;" horiz-adv-x="742" 
d="M706 897l-272 -140l-49 88l252 169zM268 269l-205 460h239l39 -129l49 -153h8l92 149l79 133h238l-336 -460l-37 -269h-203z" />
    <glyph glyph-name="Thorn" unicode="&#xde;" horiz-adv-x="667" 
d="M211 0h-203l105 750h203l-16 -117h104q116 0 186 -64q71 -65 71 -168q0 -134 -84 -209q-83 -74 -224 -74h-126zM275 455l-23 -166h92q44 0 70.5 26t26.5 69q0 32 -20 51.5t-54 19.5h-92z" />
    <glyph glyph-name="germandbls" unicode="&#xdf;" horiz-adv-x="628" 
d="M477 409l-1 -8q125 -35 125 -150q0 -111 -84 -181q-82 -70 -214 -70h-52l23 166h10q55 0 86.5 25.5t31.5 65.5q0 31 -23.5 50.5t-62.5 19.5h-19l20 146h10q29 0 47.5 17t18.5 42q0 17 -11.5 27.5t-31.5 10.5q-43 0 -51 -47l-73 -523h-198l52 373h-62l21 151h62
q21 102 98 158.5t193 56.5q99 0 154 -41.5t55 -113.5q0 -62 -33 -108.5t-91 -66.5z" />
    <glyph glyph-name="agrave" unicode="&#xe0;" horiz-adv-x="583" 
d="M383 668l-68 -91l-232 140l93 124zM-2 138q0 90 59 140t161 50h126l5 35q7 52 -52 52q-61 0 -69 -53h-188q15 92 87.5 142t183.5 50q122 0 180.5 -64t40.5 -188l-21 -146q-5 -26 18 -26q6 0 16 2l-18 -132q-39 -10 -83 -10q-53 0 -80 26t-26 72h-9q-19 -46 -65 -72
t-106 -26q-72 0 -116 40.5t-44 107.5zM194 170q0 -39 46 -39q35 0 59 21t28 55l1 9h-78q-27 0 -41.5 -12.5t-14.5 -33.5z" />
    <glyph glyph-name="aacute" unicode="&#xe1;" horiz-adv-x="583" 
d="M583 712l-272 -140l-49 88l252 169zM-2 138q0 90 59 140t161 50h126l5 35q7 52 -52 52q-61 0 -69 -53h-188q15 92 87.5 142t183.5 50q122 0 180.5 -64t40.5 -188l-21 -146q-5 -26 18 -26q6 0 16 2l-18 -132q-39 -10 -83 -10q-53 0 -80 26t-26 72h-9q-19 -46 -65 -72
t-106 -26q-72 0 -116 40.5t-44 107.5zM194 170q0 -39 46 -39q35 0 59 21t28 55l1 9h-78q-27 0 -41.5 -12.5t-14.5 -33.5z" />
    <glyph glyph-name="acircumflex" unicode="&#xe2;" horiz-adv-x="583" 
d="M207 576l-83 88l172 145h104l132 -145l-95 -88l-98 124zM-2 138q0 90 59 140t161 50h126l5 35q7 52 -52 52q-61 0 -69 -53h-188q15 92 87.5 142t183.5 50q122 0 180.5 -64t40.5 -188l-21 -146q-5 -26 18 -26q6 0 16 2l-18 -132q-39 -10 -83 -10q-53 0 -80 26t-26 72h-9
q-19 -46 -65 -72t-106 -26q-72 0 -116 40.5t-44 107.5zM194 170q0 -39 46 -39q35 0 59 21t28 55l1 9h-78q-27 0 -41.5 -12.5t-14.5 -33.5z" />
    <glyph glyph-name="atilde" unicode="&#xe3;" horiz-adv-x="583" 
d="M380 585q-28 2 -61 20q-35 20 -57 20q-30 0 -70 -39l-67 50q31 61 72 89.5t83 27.5q29 -2 60 -20q35 -18 59 -18q34 0 62 33l5 7l69 -47q-29 -61 -70 -92.5t-85 -30.5zM-2 138q0 90 59 140t161 50h126l5 35q7 52 -52 52q-61 0 -69 -53h-188q15 92 87.5 142t183.5 50
q122 0 180.5 -64t40.5 -188l-21 -146q-5 -26 18 -26q6 0 16 2l-18 -132q-39 -10 -83 -10q-53 0 -80 26t-26 72h-9q-19 -46 -65 -72t-106 -26q-72 0 -116 40.5t-44 107.5zM194 170q0 -39 46 -39q35 0 59 21t28 55l1 9h-78q-27 0 -41.5 -12.5t-14.5 -33.5z" />
    <glyph glyph-name="adieresis" unicode="&#xe4;" horiz-adv-x="583" 
d="M277 587h-142l23 163h142zM498 587h-142l23 163h142zM-2 138q0 90 59 140t161 50h126l5 35q7 52 -52 52q-61 0 -69 -53h-188q15 92 87.5 142t183.5 50q122 0 180.5 -64t40.5 -188l-21 -146q-5 -26 18 -26q6 0 16 2l-18 -132q-39 -10 -83 -10q-53 0 -80 26t-26 72h-9
q-19 -46 -65 -72t-106 -26q-72 0 -116 40.5t-44 107.5zM194 170q0 -39 46 -39q35 0 59 21t28 55l1 9h-78q-27 0 -41.5 -12.5t-14.5 -33.5z" />
    <glyph glyph-name="aring" unicode="&#xe5;" horiz-adv-x="583" 
d="M529 130q6 0 16 2l-18 -132q-39 -10 -83 -10q-53 0 -80 26t-26 72h-9q-19 -46 -65 -72t-106 -26q-72 0 -116 40.5t-44 107.5q0 90 59 140t161 50h126l5 35q7 52 -52 52q-61 0 -69 -53h-188q23 132 156 175q-12 25 -12 57q0 64 41.5 103t109.5 39q58 0 93 -33t35 -87
q0 -51 -26 -86q120 -56 95 -228l-21 -146q-5 -26 18 -26zM329 648q-20 0 -32.5 -13.5t-12.5 -35.5q0 -16 9.5 -26t24.5 -10q21 0 33.5 13t12.5 35q0 17 -9.5 27t-25.5 10zM327 207l1 9h-78q-27 0 -41.5 -12.5t-14.5 -33.5q0 -39 46 -39q35 0 59 21t28 55z" />
    <glyph glyph-name="ae" unicode="&#xe6;" horiz-adv-x="888" 
d="M590 136q31 0 59.5 14.5t37.5 35.5h169q-21 -87 -101 -142q-79 -54 -187 -54q-134 0 -194 76q-70 -76 -200 -76q-83 0 -133 40.5t-50 107.5q0 89 64 143t173 54h105l3 24q3 22 -12 36.5t-41 14.5q-24 0 -43 -14t-22 -34h-191q18 89 93.5 140.5t191.5 51.5q95 0 153 -52
q71 52 174 52q108 0 169 -58t61 -157q0 -55 -17 -112h-345q-6 -44 17 -67.5t66 -23.5zM620 413q-74 0 -95 -66h163q2 32 -17 49t-51 17zM316 193l3 19h-70q-29 0 -46 -12.5t-17 -34.5q0 -31 45 -31q33 0 57 17t28 42z" />
    <glyph glyph-name="ccedilla" unicode="&#xe7;" horiz-adv-x="578" 
d="M319 400q-47 0 -76 -43t-29 -113q0 -48 18.5 -74t51.5 -26q28 0 50.5 18t29.5 46h188q-14 -88 -76 -146t-156 -70l-24 -23q35 -4 58.5 -26.5t23.5 -62.5t-25 -68t-62 -37.5t-78.5 -6.5t-75.5 20l12 85q37 -23 75 -17q39 6 39 39q0 24 -25 30q-26 5 -42 -4l7 48l26 25
q-97 14 -153 81.5t-56 171.5q0 131 86 219q85 88 222 88q110 0 177 -60q68 -60 66 -158h-188q0 28 -17.5 46t-46.5 18z" />
    <glyph glyph-name="egrave" unicode="&#xe8;" horiz-adv-x="587" 
d="M401 668l-68 -91l-232 140l93 124zM283 -10q-123 0 -193 70t-70 189q0 133 84 218q84 87 215 87q111 0 180 -63t69 -164q0 -55 -17 -100h-343q-7 -44 13.5 -71t61.5 -27q59 0 82 42h188q-21 -83 -95 -133q-74 -48 -175 -48zM227 348h156q2 30 -17 48.5t-54 18.5
q-34 0 -57.5 -18.5t-27.5 -48.5z" />
    <glyph glyph-name="eacute" unicode="&#xe9;" horiz-adv-x="587" 
d="M601 712l-272 -140l-49 88l252 169zM283 -10q-123 0 -193 70t-70 189q0 133 84 218q84 87 215 87q111 0 180 -63t69 -164q0 -55 -17 -100h-343q-7 -44 13.5 -71t61.5 -27q59 0 82 42h188q-21 -83 -95 -133q-74 -48 -175 -48zM227 348h156q2 30 -17 48.5t-54 18.5
q-34 0 -57.5 -18.5t-27.5 -48.5z" />
    <glyph glyph-name="ecircumflex" unicode="&#xea;" horiz-adv-x="587" 
d="M225 576l-83 88l172 145h104l132 -145l-95 -88l-98 124zM283 -10q-123 0 -193 70t-70 189q0 133 84 218q84 87 215 87q111 0 180 -63t69 -164q0 -55 -17 -100h-343q-7 -44 13.5 -71t61.5 -27q59 0 82 42h188q-21 -83 -95 -133q-74 -48 -175 -48zM227 348h156
q2 30 -17 48.5t-54 18.5q-34 0 -57.5 -18.5t-27.5 -48.5z" />
    <glyph glyph-name="edieresis" unicode="&#xeb;" horiz-adv-x="587" 
d="M295 587h-142l23 163h142zM516 587h-142l23 163h142zM283 -10q-123 0 -193 70t-70 189q0 133 84 218q84 87 215 87q111 0 180 -63t69 -164q0 -55 -17 -100h-343q-7 -44 13.5 -71t61.5 -27q59 0 82 42h188q-21 -83 -95 -133q-74 -48 -175 -48zM227 348h156q2 30 -17 48.5
t-54 18.5q-34 0 -57.5 -18.5t-27.5 -48.5z" />
    <glyph glyph-name="igrave" unicode="&#xec;" horiz-adv-x="285" 
d="M253 668l-68 -91l-232 140l93 124zM200 0h-191l76 544h191z" />
    <glyph glyph-name="iacute" unicode="&#xed;" horiz-adv-x="285" 
d="M453 712l-272 -140l-49 88l252 169zM200 0h-191l76 544h191z" />
    <glyph glyph-name="icircumflex" unicode="&#xee;" horiz-adv-x="285" 
d="M77 576l-83 88l172 145h104l132 -145l-95 -88l-98 124zM200 0h-191l76 544h191z" />
    <glyph glyph-name="idieresis" unicode="&#xef;" horiz-adv-x="285" 
d="M147 587h-142l23 163h142zM368 587h-142l23 163h142zM200 0h-191l76 544h191z" />
    <glyph glyph-name="eth" unicode="&#xf0;" horiz-adv-x="622" 
d="M22 220q0 114 76 184q77 72 197 72q33 0 55 -6l3 5q-30 24 -41 43l-18 29l-147 -50l19 134l69 23l-46 96h227l10 -30l147 52l-19 -134l-71 -23l49 -110q35 -77 45 -121q11 -47 11 -104q0 -131 -85 -210q-83 -79 -223 -79q-116 0 -187 63t-71 166zM219 232q0 -41 19.5 -64
t52.5 -23q42 0 69.5 33.5t27.5 84.5q0 42 -19.5 65.5t-52.5 23.5q-42 0 -69.5 -34.5t-27.5 -85.5z" />
    <glyph glyph-name="ntilde" unicode="&#xf1;" horiz-adv-x="651" 
d="M433 585q-28 2 -61 20q-35 20 -57 20q-29 0 -70 -39l-67 50q31 61 72 89.5t83 27.5q29 -2 60 -20q34 -18 59 -18q34 0 62 33l5 7l69 -47q-29 -61 -70 -92.5t-85 -30.5zM200 0h-191l76 544h168l10 -99h10q64 109 191 109q93 0 130 -61t22 -172l-45 -321h-191l42 301
q14 99 -70 99q-45 0 -75 -30.5t-37 -81.5z" />
    <glyph glyph-name="ograve" unicode="&#xf2;" horiz-adv-x="607" 
d="M414 668l-68 -91l-232 140l93 124zM21 252q0 136 83 219t219 83q119 0 191 -72q72 -70 72 -189q0 -136 -83 -219t-219 -83q-118 0 -191 71q-72 72 -72 190zM216 246q0 -46 19 -73.5t51 -27.5q47 0 75.5 42.5t28.5 111.5q0 46 -19 73.5t-51 27.5q-47 0 -75.5 -42.5
t-28.5 -111.5z" />
    <glyph glyph-name="oacute" unicode="&#xf3;" horiz-adv-x="607" 
d="M614 712l-272 -140l-49 88l252 169zM21 252q0 136 83 219t219 83q119 0 191 -72q72 -70 72 -189q0 -136 -83 -219t-219 -83q-118 0 -191 71q-72 72 -72 190zM216 246q0 -46 19 -73.5t51 -27.5q47 0 75.5 42.5t28.5 111.5q0 46 -19 73.5t-51 27.5q-47 0 -75.5 -42.5
t-28.5 -111.5z" />
    <glyph glyph-name="ocircumflex" unicode="&#xf4;" horiz-adv-x="607" 
d="M238 576l-83 88l172 145h104l132 -145l-95 -88l-98 124zM21 252q0 136 83 219t219 83q119 0 191 -72q72 -70 72 -189q0 -136 -83 -219t-219 -83q-118 0 -191 71q-72 72 -72 190zM216 246q0 -46 19 -73.5t51 -27.5q47 0 75.5 42.5t28.5 111.5q0 46 -19 73.5t-51 27.5
q-47 0 -75.5 -42.5t-28.5 -111.5z" />
    <glyph glyph-name="otilde" unicode="&#xf5;" horiz-adv-x="607" 
d="M411 585q-28 2 -61 20q-35 20 -57 20q-29 0 -70 -39l-67 50q31 61 72 89.5t83 27.5q29 -2 60 -20q35 -18 59 -18q34 0 62 33l5 7l69 -47q-29 -61 -70 -92.5t-85 -30.5zM21 252q0 136 83 219t219 83q119 0 191 -72q72 -70 72 -189q0 -136 -83 -219t-219 -83
q-118 0 -191 71q-72 72 -72 190zM216 246q0 -46 19 -73.5t51 -27.5q47 0 75.5 42.5t28.5 111.5q0 46 -19 73.5t-51 27.5q-47 0 -75.5 -42.5t-28.5 -111.5z" />
    <glyph glyph-name="odieresis" unicode="&#xf6;" horiz-adv-x="607" 
d="M308 587h-142l23 163h142zM529 587h-142l23 163h142zM21 252q0 136 83 219t219 83q119 0 191 -72q72 -70 72 -189q0 -136 -83 -219t-219 -83q-118 0 -191 71q-72 72 -72 190zM216 246q0 -46 19 -73.5t51 -27.5q47 0 75.5 42.5t28.5 111.5q0 46 -19 73.5t-51 27.5
q-47 0 -75.5 -42.5t-28.5 -111.5z" />
    <glyph glyph-name="divide" unicode="&#xf7;" horiz-adv-x="624" 
d="M423 407h-183l24 169h183zM550 213h-492l21 148h492zM365 -7h-183l24 168h183z" />
    <glyph glyph-name="oslash" unicode="&#xf8;" horiz-adv-x="630" 
d="M596 524l52 -98l-63 -42q13 -45 13 -91q0 -136 -83 -219t-219 -83q-122 0 -194 75l-69 -45l-51 97l64 43q-13 42 -13 91q0 136 83 219t219 83q122 0 194 -75zM332 400q-39 0 -66.5 -32t-35.5 -86l147 97q-18 21 -45 21zM298 145q40 0 67 31.5t35 85.5l-147 -96
q17 -21 45 -21z" />
    <glyph glyph-name="ugrave" unicode="&#xf9;" horiz-adv-x="641" 
d="M445 668l-68 -91l-232 140l93 124zM460 544h191l-76 -544h-169l-9 99h-11q-64 -109 -187 -109q-90 0 -128.5 57.5t-23.5 160.5l47 336h192l-43 -305q-14 -95 68 -95q43 0 72.5 31t36.5 81z" />
    <glyph glyph-name="uacute" unicode="&#xfa;" horiz-adv-x="641" 
d="M645 712l-272 -140l-49 88l252 169zM460 544h191l-76 -544h-169l-9 99h-11q-64 -109 -187 -109q-90 0 -128.5 57.5t-23.5 160.5l47 336h192l-43 -305q-14 -95 68 -95q43 0 72.5 31t36.5 81z" />
    <glyph glyph-name="ucircumflex" unicode="&#xfb;" horiz-adv-x="641" 
d="M269 576l-83 88l172 145h104l132 -145l-95 -88l-98 124zM460 544h191l-76 -544h-169l-9 99h-11q-64 -109 -187 -109q-90 0 -128.5 57.5t-23.5 160.5l47 336h192l-43 -305q-14 -95 68 -95q43 0 72.5 31t36.5 81z" />
    <glyph glyph-name="udieresis" unicode="&#xfc;" horiz-adv-x="641" 
d="M339 587h-142l23 163h142zM560 587h-142l23 163h142zM460 544h191l-76 -544h-169l-9 99h-11q-64 -109 -187 -109q-90 0 -128.5 57.5t-23.5 160.5l47 336h192l-43 -305q-14 -95 68 -95q43 0 72.5 31t36.5 81z" />
    <glyph glyph-name="yacute" unicode="&#xfd;" horiz-adv-x="555" 
d="M581 714l-272 -140l-49 88l252 169zM152 45l-129 499h200l23 -177l18 -147h8l57 147l72 177h202l-271 -556q-42 -89 -112 -128q-67 -37 -183 -37q-45 0 -80 7l21 152q28 -5 64 -5q84 0 102 48z" />
    <glyph glyph-name="thorn" unicode="&#xfe;" horiz-adv-x="661" 
d="M-15 -167l127 897h192l-42 -287h10q62 111 183 111q88 0 138 -60t50 -170q0 -150 -71 -242t-185 -92q-59 0 -104.5 29.5t-59.5 77.5h-10l-37 -264h-191zM240 283l-2 -11q-8 -57 16.5 -93t72.5 -36q51 0 85 41t34 106q0 53 -24.5 82t-67.5 29q-45 0 -74.5 -31.5
t-39.5 -86.5z" />
    <glyph glyph-name="ydieresis" unicode="&#xff;" horiz-adv-x="555" 
d="M275 589h-142l23 163h142zM496 589h-142l23 163h142zM152 45l-129 499h200l23 -177l18 -147h8l57 147l72 177h202l-271 -556q-42 -89 -112 -128q-67 -37 -183 -37q-45 0 -80 7l21 152q28 -5 64 -5q84 0 102 48z" />
    <glyph glyph-name="Amacron" unicode="&#x100;" horiz-adv-x="737" 
d="M257 918h387l-20 -143h-387zM703 0h-215l-16 100h-254l-43 -100h-217l349 729h237zM398 514l-113 -260h162l-42 260h-7z" />
    <glyph glyph-name="amacron" unicode="&#x101;" horiz-adv-x="583" 
d="M510 590h-387l20 143h387zM-2 138q0 90 59 140t161 50h126l5 35q7 52 -52 52q-61 0 -69 -53h-188q15 92 87.5 142t183.5 50q122 0 180.5 -64t40.5 -188l-21 -146q-5 -26 18 -26q6 0 16 2l-18 -132q-39 -10 -83 -10q-53 0 -80 26t-26 72h-9q-19 -46 -65 -72t-106 -26
q-72 0 -116 40.5t-44 107.5zM194 170q0 -39 46 -39q35 0 59 21t28 55l1 9h-78q-27 0 -41.5 -12.5t-14.5 -33.5z" />
    <glyph glyph-name="Abreve" unicode="&#x102;" horiz-adv-x="737" 
d="M444 771q-78 0 -124 47.5t-46 126.5h113q-1 -70 55 -70q29 0 47.5 19t19.5 51h113q1 -78 -48.5 -126t-129.5 -48zM703 0h-215l-16 100h-254l-43 -100h-217l349 729h237zM398 514l-113 -260h162l-42 260h-7z" />
    <glyph glyph-name="abreve" unicode="&#x103;" horiz-adv-x="583" 
d="M395 760h113q1 -78 -48.5 -126t-129.5 -48q-78 0 -124 47.5t-46 126.5h113q-1 -70 55 -70q29 0 47.5 19t19.5 51zM-2 138q0 90 59 140t161 50h126l5 35q7 52 -52 52q-61 0 -69 -53h-188q15 92 87.5 142t183.5 50q122 0 180.5 -64t40.5 -188l-21 -146q-5 -26 18 -26
q6 0 16 2l-18 -132q-39 -10 -83 -10q-53 0 -80 26t-26 72h-9q-19 -46 -65 -72t-106 -26q-72 0 -116 40.5t-44 107.5zM194 170q0 -39 46 -39q35 0 59 21t28 55l1 9h-78q-27 0 -41.5 -12.5t-14.5 -33.5z" />
    <glyph glyph-name="Aogonek" unicode="&#x104;" horiz-adv-x="737" 
d="M655 -104q30 0 57 15l-12 -82q-36 -15 -75 -15q-54 0 -87 27.5t-33 72.5q0 52 33 86h-50l-16 100h-254l-43 -100h-217l349 729h237l159 -729q-97 -16 -97 -69q0 -16 13.5 -25.5t35.5 -9.5zM398 514l-113 -260h162l-42 260h-7z" />
    <glyph glyph-name="aogonek" unicode="&#x105;" horiz-adv-x="583" 
d="M430 -70q0 -16 13.5 -25.5t35.5 -9.5q30 0 57 15l-12 -82q-36 -15 -75 -15q-54 0 -87 27.5t-33 72.5q0 60 44 96q-37 25 -35 79h-9q-19 -46 -65 -72t-106 -26q-72 0 -116 40.5t-44 107.5q0 90 59 140t161 50h126l5 35q7 52 -52 52q-61 0 -69 -53h-188q15 92 87.5 142
t183.5 50q122 0 180.5 -64t40.5 -188l-21 -146q-5 -26 18 -26q6 0 16 2l-18 -132v-1q-97 -16 -97 -69zM327 207l1 9h-78q-27 0 -41.5 -12.5t-14.5 -33.5q0 -39 46 -39q35 0 59 21t28 55z" />
    <glyph glyph-name="Cacute" unicode="&#x106;" horiz-adv-x="784" 
d="M729 897l-272 -140l-49 88l252 169zM547 259h210q-18 -121 -116 -195t-240 -74q-160 0 -260 98q-98 98 -98 259q0 167 105 279q106 112 279 112q139 0 233 -74q94 -73 106 -193h-210q-12 41 -49 66t-86 25q-73 0 -118 -57t-45 -149q0 -87 39.5 -138.5t106.5 -51.5
q48 0 88 25.5t55 67.5z" />
    <glyph glyph-name="cacute" unicode="&#x107;" horiz-adv-x="578" 
d="M604 712l-272 -140l-49 88l252 169zM364 208h188q-15 -96 -89 -158q-73 -60 -184 -60q-119 0 -189 69q-70 70 -70 188q0 131 86 219q85 88 222 88q110 0 177 -60q68 -60 66 -158h-188q0 28 -17.5 46t-46.5 18q-47 0 -76 -43t-29 -113q0 -48 18.5 -74t51.5 -26
q28 0 50.5 18t29.5 46z" />
    <glyph glyph-name="Cdotaccent" unicode="&#x10a;" horiz-adv-x="784" 
d="M534 772h-142l23 163h142zM547 259h210q-18 -121 -116 -195t-240 -74q-160 0 -260 98q-98 98 -98 259q0 167 105 279q106 112 279 112q139 0 233 -74q94 -73 106 -193h-210q-12 41 -49 66t-86 25q-73 0 -118 -57t-45 -149q0 -87 39.5 -138.5t106.5 -51.5q48 0 88 25.5
t55 67.5z" />
    <glyph glyph-name="cdotaccent" unicode="&#x10b;" horiz-adv-x="578" 
d="M409 587h-142l23 163h142zM364 208h188q-15 -96 -89 -158q-73 -60 -184 -60q-119 0 -189 69q-70 70 -70 188q0 131 86 219q85 88 222 88q110 0 177 -60q68 -60 66 -158h-188q0 28 -17.5 46t-46.5 18q-47 0 -76 -43t-29 -113q0 -48 18.5 -74t51.5 -26q28 0 50.5 18
t29.5 46z" />
    <glyph glyph-name="Ccaron" unicode="&#x10c;" horiz-adv-x="784" 
d="M413 780l-132 147l95 87l98 -125l132 125l83 -87l-173 -147h-103zM547 259h210q-18 -121 -116 -195t-240 -74q-160 0 -260 98q-98 98 -98 259q0 167 105 279q106 112 279 112q139 0 233 -74q94 -73 106 -193h-210q-12 41 -49 66t-86 25q-73 0 -118 -57t-45 -149
q0 -87 39.5 -138.5t106.5 -51.5q48 0 88 25.5t55 67.5z" />
    <glyph glyph-name="ccaron" unicode="&#x10d;" horiz-adv-x="578" 
d="M288 595l-132 147l95 87l98 -125l132 125l83 -87l-173 -147h-103zM364 208h188q-15 -96 -89 -158q-73 -60 -184 -60q-119 0 -189 69q-70 70 -70 188q0 131 86 219q85 88 222 88q110 0 177 -60q68 -60 66 -158h-188q0 28 -17.5 46t-46.5 18q-47 0 -76 -43t-29 -113
q0 -48 18.5 -74t51.5 -26q28 0 50.5 18t29.5 46z" />
    <glyph glyph-name="Dcaron" unicode="&#x10e;" horiz-adv-x="756" 
d="M360 780l-132 147l95 87l98 -125l132 125l83 -87l-173 -147h-103zM347 0h-322l102 729h322q143 0 220 -76.5t77 -213.5q0 -197 -111 -318q-109 -121 -288 -121zM306 557l-54 -385h83q198 0 198 252q0 79 -39 106q-38 27 -105 27h-83z" />
    <glyph glyph-name="dcaron" unicode="&#x10f;" horiz-adv-x="646" 
d="M436 441h10l43 309h191l-105 -750h-165l-12 98h-10q-29 -51 -81 -79.5t-109 -28.5q-87 0 -134.5 56.5t-47.5 156.5q0 151 74 251q73 100 187 100q64 0 105 -30t54 -83zM750 612l20 138h136l-17 -116q-20 -131 -169 -131l7 48q42 0 62 14t25 47h-64zM421 261l3 21
q9 59 -15 89t-73 30q-55 0 -88.5 -45t-33.5 -118q0 -95 84 -95q51 0 83 31t40 87z" />
    <glyph glyph-name="Dcroat" unicode="&#x110;" horiz-adv-x="756" 
d="M127 729h322q143 0 220 -76.5t77 -213.5q0 -197 -111 -318q-109 -121 -288 -121h-322l43 304h-65l19 130h64zM252 172h83q198 0 198 252q0 79 -39 106q-38 27 -105 27h-83l-17 -123h108l-18 -130h-108z" />
    <glyph glyph-name="dslash" unicode="&#x111;" horiz-adv-x="660" 
d="M671 688h64l-16 -117h-64l-80 -571h-165l-12 98h-10q-29 -51 -81 -79.5t-109 -28.5q-87 0 -134.5 56.5t-47.5 156.5q0 151 74 251q73 100 187 100q64 0 105 -30t54 -83h10l18 130h-103l16 117h103l9 62h191zM421 261l3 21q9 59 -15 89t-73 30q-55 0 -88.5 -45t-33.5 -118
q0 -95 84 -95q51 0 83 31t40 87z" />
    <glyph glyph-name="Emacron" unicode="&#x112;" horiz-adv-x="639" 
d="M593 775h-387l20 143h387zM559 0h-534l102 729h534l-24 -172h-331l-13 -98h278l-23 -161h-278l-18 -126h331z" />
    <glyph glyph-name="emacron" unicode="&#x113;" horiz-adv-x="587" 
d="M528 590h-387l20 143h387zM283 -10q-123 0 -193 70t-70 189q0 133 84 218q84 87 215 87q111 0 180 -63t69 -164q0 -55 -17 -100h-343q-7 -44 13.5 -71t61.5 -27q59 0 82 42h188q-21 -83 -95 -133q-74 -48 -175 -48zM227 348h156q2 30 -17 48.5t-54 18.5
q-34 0 -57.5 -18.5t-27.5 -48.5z" />
    <glyph glyph-name="Edotaccent" unicode="&#x116;" horiz-adv-x="639" 
d="M471 772h-142l23 163h142zM559 0h-534l102 729h534l-24 -172h-331l-13 -98h278l-23 -161h-278l-18 -126h331z" />
    <glyph glyph-name="edotaccent" unicode="&#x117;" horiz-adv-x="587" 
d="M406 587h-142l23 163h142zM283 -10q-123 0 -193 70t-70 189q0 133 84 218q84 87 215 87q111 0 180 -63t69 -164q0 -55 -17 -100h-343q-7 -44 13.5 -71t61.5 -27q59 0 82 42h188q-21 -83 -95 -133q-74 -48 -175 -48zM227 348h156q2 30 -17 48.5t-54 18.5
q-34 0 -57.5 -18.5t-27.5 -48.5z" />
    <glyph glyph-name="Eogonek" unicode="&#x118;" horiz-adv-x="639" 
d="M661 729l-24 -172h-331l-13 -98h278l-23 -161h-278l-18 -126h331l-24 -172h-11q-97 -16 -97 -69q0 -16 13.5 -25.5t35.5 -9.5q30 0 57 15l-12 -82q-36 -15 -75 -15q-54 0 -87 27.5t-33 72.5q0 52 33 86h-358l102 729h534z" />
    <glyph glyph-name="eogonek" unicode="&#x119;" horiz-adv-x="587" 
d="M283 129q59 0 82 42h188q-20 -80 -88 -128t-164 -53q-56 -18 -56 -59q0 -16 13.5 -25.5t35.5 -9.5q30 0 57 15l-12 -82q-36 -15 -75 -15q-54 0 -87 27.5t-33 72.5q0 56 38 91q-77 26 -119.5 89.5t-42.5 154.5q0 133 84 218q84 87 215 87q111 0 180 -63t69 -164
q0 -55 -17 -100h-343q-7 -44 13.5 -71t61.5 -27zM312 415q-34 0 -57.5 -18.5t-27.5 -48.5h156q2 30 -17 48.5t-54 18.5z" />
    <glyph glyph-name="Ecaron" unicode="&#x11a;" horiz-adv-x="639" 
d="M350 780l-132 147l95 87l98 -125l132 125l83 -87l-173 -147h-103zM559 0h-534l102 729h534l-24 -172h-331l-13 -98h278l-23 -161h-278l-18 -126h331z" />
    <glyph glyph-name="ecaron" unicode="&#x11b;" horiz-adv-x="587" 
d="M285 595l-132 147l95 87l98 -125l132 125l83 -87l-173 -147h-103zM283 -10q-123 0 -193 70t-70 189q0 133 84 218q84 87 215 87q111 0 180 -63t69 -164q0 -55 -17 -100h-343q-7 -44 13.5 -71t61.5 -27q59 0 82 42h188q-21 -83 -95 -133q-74 -48 -175 -48zM227 348h156
q2 30 -17 48.5t-54 18.5q-34 0 -57.5 -18.5t-27.5 -48.5z" />
    <glyph glyph-name="Gbreve" unicode="&#x11e;" horiz-adv-x="813" 
d="M474 771q-78 0 -124 47.5t-46 126.5h113q-1 -70 55 -70q29 0 47.5 19t19.5 51h113q1 -78 -48.5 -126t-129.5 -48zM351 252l22 157h407l-57 -409h-165l3 80h-7q-30 -42 -89 -66t-128 -24q-135 0 -216 92q-80 92 -80 245q0 180 109 295q110 116 283 116q131 0 218 -66
q87 -65 107 -176h-211q-12 30 -43.5 48t-72.5 18q-77 0 -127 -63q-48 -63 -48 -161q0 -85 38 -134t106 -49q52 0 91.5 27t52.5 70h-193z" />
    <glyph glyph-name="gbreve" unicode="&#x11f;" horiz-adv-x="568" 
d="M353 772h113q1 -78 -48.5 -126t-129.5 -48q-78 0 -124 47.5t-46 126.5h113q-1 -70 55 -70q29 0 47.5 19t19.5 51zM-44 -73q0 39 24.5 67.5t64.5 36.5l1 9q-52 19 -52 75q0 37 27 68.5t74 46.5l1 9q-67 37 -67 121q0 85 70 139q70 55 180 55q53 0 83 -8q24 55 83 90
q61 35 133 35l-20 -142q-68 0 -96 -27q49 -40 49 -118q0 -84 -69 -135q-68 -51 -182 -51q-37 0 -65 5q-21 -11 -21 -32q0 -25 57 -25h95q91 0 138.5 -41t47.5 -114q0 -94 -81 -141t-230 -47q-245 0 -245 124zM216 372q0 -21 13.5 -33.5t36.5 -12.5q27 0 43.5 15.5t16.5 39.5
q0 21 -13.5 33.5t-36.5 12.5q-26 0 -43 -15t-17 -40zM130 -30q0 -35 91 -35q99 0 99 40q0 25 -33 25h-107q-50 0 -50 -30z" />
    <glyph glyph-name="Gdotaccent" unicode="&#x120;" horiz-adv-x="813" 
d="M413 935h142l-23 -163h-142zM351 252l22 157h407l-57 -409h-165l3 80h-7q-30 -42 -89 -66t-128 -24q-135 0 -216 92q-80 92 -80 245q0 180 109 295q110 116 283 116q131 0 218 -66q87 -65 107 -176h-211q-12 30 -43.5 48t-72.5 18q-77 0 -127 -63q-48 -63 -48 -161
q0 -85 38 -134t106 -49q52 0 91.5 27t52.5 70h-193z" />
    <glyph glyph-name="gdotaccent" unicode="&#x121;" horiz-adv-x="568" 
d="M346 599h-142l23 163h142zM-44 -73q0 39 24.5 67.5t64.5 36.5l1 9q-52 19 -52 75q0 37 27 68.5t74 46.5l1 9q-67 37 -67 121q0 85 70 139q70 55 180 55q53 0 83 -8q24 55 83 90q61 35 133 35l-20 -142q-68 0 -96 -27q49 -40 49 -118q0 -84 -69 -135q-68 -51 -182 -51
q-37 0 -65 5q-21 -11 -21 -32q0 -25 57 -25h95q91 0 138.5 -41t47.5 -114q0 -94 -81 -141t-230 -47q-245 0 -245 124zM216 372q0 -21 13.5 -33.5t36.5 -12.5q27 0 43.5 15.5t16.5 39.5q0 21 -13.5 33.5t-36.5 12.5q-26 0 -43 -15t-17 -40zM130 -30q0 -35 91 -35q99 0 99 40
q0 25 -33 25h-107q-50 0 -50 -30z" />
    <glyph glyph-name="uni0122" unicode="&#x122;" horiz-adv-x="813" 
d="M351 252l22 157h407l-57 -409h-165l3 80h-7q-30 -42 -89 -66t-128 -24q-135 0 -216 92q-80 92 -80 245q0 180 109 295q110 116 283 116q131 0 218 -66q87 -65 107 -176h-211q-12 30 -43.5 48t-72.5 18q-77 0 -127 -63q-48 -63 -48 -161q0 -85 38 -134t106 -49
q52 0 91.5 27t52.5 70h-193zM320 -196h-67l21 147h146l-23 -158q-17 -116 -152 -116l7 52q56 0 64 50z" />
    <glyph glyph-name="uni0123" unicode="&#x123;" horiz-adv-x="568" 
d="M379 892l-7 -52q-56 0 -64 -50l-5 -35h67l-21 -147h-146l24 168q17 116 152 116zM-44 -73q0 39 24.5 67.5t64.5 36.5l1 9q-52 19 -52 75q0 37 27 68.5t74 46.5l1 9q-67 37 -67 121q0 85 70 139q70 55 180 55q53 0 83 -8q24 55 83 90q61 35 133 35l-20 -142q-68 0 -96 -27
q49 -40 49 -118q0 -84 -69 -135q-68 -51 -182 -51q-37 0 -65 5q-21 -11 -21 -32q0 -25 57 -25h95q91 0 138.5 -41t47.5 -114q0 -94 -81 -141t-230 -47q-245 0 -245 124zM216 372q0 -21 13.5 -33.5t36.5 -12.5q27 0 43.5 15.5t16.5 39.5q0 21 -13.5 33.5t-36.5 12.5
q-26 0 -43 -15t-17 -40zM130 -30q0 -35 91 -35q99 0 99 40q0 25 -33 25h-107q-50 0 -50 -30z" />
    <glyph glyph-name="Hbar" unicode="&#x126;" horiz-adv-x="810" 
d="M799 646h46l-15 -110h-46l-75 -536h-203l41 291h-278l-41 -291h-203l75 536h-47l15 110h47l12 83h203l-12 -83h278l12 83h203zM291 448h278l12 88h-278z" />
    <glyph glyph-name="hbar" unicode="&#x127;" horiz-adv-x="652" 
d="M464 554q93 0 130.5 -60.5t22.5 -171.5l-45 -322h-192l42 302q14 98 -70 98q-45 0 -74.5 -29.5t-36.5 -79.5l-41 -291h-191l79 562h-48l16 116h48l10 72h191l-10 -72h119l-16 -116h-119l-16 -115h10q65 107 191 107z" />
    <glyph glyph-name="Imacron" unicode="&#x12a;" horiz-adv-x="329" 
d="M428 775h-387l20 143h387zM330 729l-102 -729h-203l102 729h203z" />
    <glyph glyph-name="imacron" unicode="&#x12b;" horiz-adv-x="285" 
d="M380 590h-387l20 143h387zM200 0h-191l76 544h191z" />
    <glyph glyph-name="Iogonek" unicode="&#x12e;" horiz-adv-x="329" 
d="M228 0h-32q-97 -16 -97 -69q0 -16 13.5 -25.5t35.5 -9.5q30 0 57 15l-12 -82q-36 -15 -75 -15q-54 0 -87 27.5t-33 72.5q0 52 33 86h-6l102 729h203z" />
    <glyph glyph-name="iogonek" unicode="&#x12f;" horiz-adv-x="285" 
d="M139 750h142l-23 -163h-142zM9 0l76 544h191l-76 -544h-26q-97 -16 -97 -69q0 -16 13.5 -25.5t35.5 -9.5q30 0 57 15l-12 -82q-36 -15 -75 -15q-54 0 -87 27.5t-33 72.5q0 52 33 86z" />
    <glyph glyph-name="Idot" unicode="&#x130;" horiz-adv-x="329" 
d="M338 772h-201l32 163h202zM330 729l-102 -729h-203l102 729h203z" />
    <glyph glyph-name="dotlessi" unicode="&#x131;" horiz-adv-x="285" 
d="M200 0h-191l76 544h191z" />
    <glyph glyph-name="Jcircumflex" unicode="&#x134;" horiz-adv-x="433" 
d="M234 761l-83 88l172 145h104l132 -145l-95 -88l-98 124zM439 729l-69 -492q-34 -246 -289 -246q-63 0 -104 9l23 161q25 -5 56 -5q57 0 83 27t33 81l65 465h202z" />
    <glyph glyph-name="jcircumflex" unicode="&#x135;" horiz-adv-x="284" 
d="M77 576l-83 88l172 145h104l132 -145l-95 -88l-98 124zM-29 -177q-56 0 -86 6l21 144q14 -3 30 -3q69 0 79 75l70 499h190l-76 -537q-14 -96 -70 -140t-158 -44z" />
    <glyph glyph-name="uni0136" unicode="&#x136;" horiz-adv-x="755" 
d="M556 729h250l-307 -315l215 -414h-246l-131 249l-87 -90l-22 -159h-203l102 729h203l-40 -284zM331 -196h-67l21 147h146l-23 -158q-17 -116 -152 -116l7 52q56 0 64 50z" />
    <glyph glyph-name="uni0137" unicode="&#x137;" horiz-adv-x="629" 
d="M432 544h234l-230 -211l165 -333h-217l-98 196l-64 -59l-19 -137h-194l105 750h194l-52 -374zM256 -196h-67l21 147h146l-23 -158q-17 -116 -152 -116l7 52q56 0 64 50z" />
    <glyph glyph-name="Lacute" unicode="&#x139;" horiz-adv-x="573" 
d="M531 897l-272 -140l-49 88l252 169zM498 0h-473l102 729h203l-77 -550h270z" />
    <glyph glyph-name="lacute" unicode="&#x13a;" horiz-adv-x="285" 
d="M484 921l-272 -140l-49 88l252 169zM200 0h-191l105 750h191z" />
    <glyph glyph-name="uni013B" unicode="&#x13b;" horiz-adv-x="573" 
d="M498 0h-473l102 729h203l-77 -550h270zM154 -323l7 52q56 0 64 50l4 25h-67l21 147h146l-23 -158q-17 -116 -152 -116z" />
    <glyph glyph-name="uni013C" unicode="&#x13c;" horiz-adv-x="285" 
d="M200 0h-191l105 750h191zM-2 -323l7 52q56 0 64 50l4 25h-67l21 147h146l-23 -158q-17 -116 -152 -116z" />
    <glyph glyph-name="Lcaron" unicode="&#x13d;" horiz-adv-x="567" 
d="M498 0h-473l102 729h203l-77 -550h270zM374 446l7 50q42 0 62 16t25 51l3 22h-63l20 144h133l-21 -146q-20 -137 -166 -137z" />
    <glyph glyph-name="lcaron" unicode="&#x13e;" horiz-adv-x="285" 
d="M168 804l-132 147l95 87l98 -125l132 125l83 -87l-173 -147h-103zM200 0h-191l105 750h191z" />
    <glyph glyph-name="Ldot" unicode="&#x13f;" horiz-adv-x="600" 
d="M498 0h-473l102 729h203l-77 -550h270zM362 443q0 43 28 71.5t70 28.5q36 0 58.5 -22.5t22.5 -59.5q0 -43 -27.5 -71.5t-69.5 -28.5q-36 0 -59 23t-23 59z" />
    <glyph glyph-name="ldot" unicode="&#x140;" horiz-adv-x="516" 
d="M200 0h-191l105 750h191zM320 372q0 44 28.5 73t70.5 29q36 0 59 -23t23 -61q0 -43 -28 -71.5t-70 -28.5q-36 0 -59.5 23t-23.5 59z" />
    <glyph glyph-name="Lslash" unicode="&#x141;" horiz-adv-x="573" 
d="M273 325l-20 -146h270l-25 -179h-473l35 253l-67 -23l24 170l67 23l43 306h203l-33 -234l146 49l-24 -170z" />
    <glyph glyph-name="lslash" unicode="&#x142;" horiz-adv-x="338" 
d="M301 526l51 18l-24 -170l-51 -18l-50 -356h-191l40 284l-53 -19l24 170l53 19l41 296h191z" />
    <glyph glyph-name="Nacute" unicode="&#x143;" horiz-adv-x="793" 
d="M722 897l-272 -140l-49 88l252 169zM228 0h-203l102 729h230l178 -437h8l17 202l33 235h201l-102 -729h-230l-176 431h-8l-17 -195z" />
    <glyph glyph-name="nacute" unicode="&#x144;" horiz-adv-x="651" 
d="M636 712l-272 -140l-49 88l252 169zM200 0h-191l76 544h168l10 -99h10q64 109 191 109q93 0 130 -61t22 -172l-45 -321h-191l42 301q14 99 -70 99q-45 0 -75 -30.5t-37 -81.5z" />
    <glyph glyph-name="uni0145" unicode="&#x145;" horiz-adv-x="793" 
d="M228 0h-203l102 729h230l178 -437h8l17 202l33 235h201l-102 -729h-230l-176 431h-8l-17 -195zM240 -323l7 52q56 0 64 50l4 25h-67l21 147h146l-23 -158q-17 -116 -152 -116z" />
    <glyph glyph-name="uni0146" unicode="&#x146;" horiz-adv-x="651" 
d="M200 0h-191l76 544h168l10 -99h10q64 109 191 109q93 0 130 -61t22 -172l-45 -321h-191l42 301q14 99 -70 99q-45 0 -75 -30.5t-37 -81.5zM180 -323l7 52q56 0 64 50l4 25h-67l21 147h146l-23 -158q-17 -116 -152 -116z" />
    <glyph glyph-name="Ncaron" unicode="&#x147;" horiz-adv-x="793" 
d="M406 780l-132 147l95 87l98 -125l132 125l83 -87l-173 -147h-103zM228 0h-203l102 729h230l178 -437h8l17 202l33 235h201l-102 -729h-230l-176 431h-8l-17 -195z" />
    <glyph glyph-name="ncaron" unicode="&#x148;" horiz-adv-x="651" 
d="M320 595l-132 147l95 87l98 -125l132 125l83 -87l-173 -147h-103zM200 0h-191l76 544h168l10 -99h10q64 109 191 109q93 0 130 -61t22 -172l-45 -321h-191l42 301q14 99 -70 99q-45 0 -75 -30.5t-37 -81.5z" />
    <glyph glyph-name="Eng" unicode="&#x14a;" horiz-adv-x="793" 
d="M593 729h201l-99 -709l-3 -21q-12 -86 -72.5 -131t-155.5 -45q-40 0 -86 10l16 112q18 -2 22 -2q64 0 72 57h-26l-176 431h-8l-17 -195l-33 -236h-203l102 729h230l178 -437h8l17 202z" />
    <glyph glyph-name="eng" unicode="&#x14b;" horiz-adv-x="651" 
d="M464 554q93 0 130 -61t22 -172l-42 -298l-1 -9l-1 -7l-1 -7q-31 -177 -227 -177q-43 0 -87 10l19 133q24 -2 26 -2q70 0 83 75l37 262q14 99 -70 99q-45 0 -75 -30.5t-37 -81.5l-40 -288h-191l76 544h168l10 -99h10q64 109 191 109z" />
    <glyph glyph-name="Omacron" unicode="&#x14c;" horiz-adv-x="803" 
d="M634 784h-387l20 143h387zM42 340q0 177 109 287q109 111 284 111q158 0 255 -97q97 -96 97 -253q0 -174 -111 -287q-111 -111 -285 -111q-155 0 -253 96q-96 96 -96 254zM258 339q0 -79 37.5 -126t102.5 -47q74 0 124 62q49 61 49 157q0 80 -38.5 128.5t-101.5 48.5
q-75 0 -124 -63q-49 -62 -49 -160z" />
    <glyph glyph-name="omacron" unicode="&#x14d;" horiz-adv-x="607" 
d="M541 590h-387l20 143h387zM21 252q0 136 83 219t219 83q119 0 191 -72q72 -70 72 -189q0 -136 -83 -219t-219 -83q-118 0 -191 71q-72 72 -72 190zM216 246q0 -46 19 -73.5t51 -27.5q47 0 75.5 42.5t28.5 111.5q0 46 -19 73.5t-51 27.5q-47 0 -75.5 -42.5t-28.5 -111.5z
" />
    <glyph glyph-name="Ohungarumlaut" unicode="&#x150;" horiz-adv-x="803" 
d="M571 912l-262 -141l-44 86l247 176zM838 912l-263 -141l-43 86l245 176zM42 340q0 177 109 287q109 111 284 111q158 0 255 -97q97 -96 97 -253q0 -174 -111 -287q-111 -111 -285 -111q-155 0 -253 96q-96 96 -96 254zM258 339q0 -79 37.5 -126t102.5 -47q74 0 124 62
q49 61 49 157q0 80 -38.5 128.5t-101.5 48.5q-75 0 -124 -63q-49 -62 -49 -160z" />
    <glyph glyph-name="ohungarumlaut" unicode="&#x151;" horiz-adv-x="607" 
d="M478 718l-262 -141l-44 86l247 176zM745 718l-263 -141l-43 86l245 176zM21 252q0 136 83 219t219 83q119 0 191 -72q72 -70 72 -189q0 -136 -83 -219t-219 -83q-118 0 -191 71q-72 72 -72 190zM216 246q0 -46 19 -73.5t51 -27.5q47 0 75.5 42.5t28.5 111.5
q0 46 -19 73.5t-51 27.5q-47 0 -75.5 -42.5t-28.5 -111.5z" />
    <glyph glyph-name="OE" unicode="&#x152;" horiz-adv-x="941" 
d="M40 317q0 196 121 304t334 108h468l-24 -171h-286l-17 -116h195l-22 -160h-195l-16 -111h286l-24 -171h-437q-182 0 -283 86q-100 85 -100 231zM255 333q0 -77 36.5 -119.5t99.5 -42.5h5l54 385h-14q-82 0 -131 -63q-50 -64 -50 -160z" />
    <glyph glyph-name="oe" unicode="&#x153;" horiz-adv-x="974" 
d="M670 129q60 0 82 42h188q-21 -83 -95 -133q-73 -48 -175 -48q-116 0 -188 66q-80 -65 -198 -65t-191 71q-72 72 -72 190q0 136 83 219t219 83q116 0 187 -68q82 68 196 68q111 0 180 -63t69 -164q0 -55 -17 -100h-343q-7 -44 13.5 -71t61.5 -27zM699 415
q-34 0 -57.5 -18.5t-27.5 -48.5h156q2 30 -17 48.5t-54 18.5zM286 145q47 0 75.5 42.5t28.5 111.5q0 46 -19 73.5t-51 27.5q-47 0 -75.5 -42.5t-28.5 -111.5q0 -46 19 -73.5t51 -27.5z" />
    <glyph glyph-name="Racute" unicode="&#x154;" horiz-adv-x="741" 
d="M680 897l-272 -140l-49 88l252 169zM228 0h-203l102 729h356q110 0 172 -54t62 -147q0 -70 -36.5 -125t-96.5 -76l-1 -8q89 -29 75 -137l-11 -90q-7 -67 0 -92h-209q-7 20 1 90l7 55q8 52 -3 69t-52 17h-131zM306 557l-22 -155h119q45 0 69 22t24 61q0 72 -82 72h-108z
" />
    <glyph glyph-name="racute" unicode="&#x155;" horiz-adv-x="412" 
d="M536 712l-272 -140l-49 88l252 169zM200 0h-191l76 544h166l11 -99h7q24 51 72.5 80.5t106.5 29.5l-23 -165q-88 1 -134.5 -40.5t-58.5 -126.5z" />
    <glyph glyph-name="uni0156" unicode="&#x156;" horiz-adv-x="741" 
d="M228 0h-203l102 729h356q110 0 172 -54t62 -147q0 -70 -36.5 -125t-96.5 -76l-1 -8q89 -29 75 -137l-11 -90q-7 -67 0 -92h-209q-7 20 1 90l7 55q8 52 -3 69t-52 17h-131zM306 557l-22 -155h119q45 0 69 22t24 61q0 72 -82 72h-108zM232 -323l7 52q56 0 64 50l4 25h-67
l21 147h146l-23 -158q-17 -116 -152 -116z" />
    <glyph glyph-name="uni0157" unicode="&#x157;" horiz-adv-x="412" 
d="M200 0h-191l76 544h166l11 -99h7q24 51 72.5 80.5t106.5 29.5l-23 -165q-88 1 -134.5 -40.5t-58.5 -126.5zM-4 -323l7 52q56 0 64 50l4 25h-67l21 147h146l-23 -158q-17 -116 -152 -116z" />
    <glyph glyph-name="Rcaron" unicode="&#x158;" horiz-adv-x="741" 
d="M364 780l-132 147l95 87l98 -125l132 125l83 -87l-173 -147h-103zM228 0h-203l102 729h356q110 0 172 -54t62 -147q0 -70 -36.5 -125t-96.5 -76l-1 -8q89 -29 75 -137l-11 -90q-7 -67 0 -92h-209q-7 20 1 90l7 55q8 52 -3 69t-52 17h-131zM306 557l-22 -155h119
q45 0 69 22t24 61q0 72 -82 72h-108z" />
    <glyph glyph-name="rcaron" unicode="&#x159;" horiz-adv-x="412" 
d="M220 595l-132 147l95 87l98 -125l132 125l83 -87l-173 -147h-103zM200 0h-191l76 544h166l11 -99h7q24 51 72.5 80.5t106.5 29.5l-23 -165q-88 1 -134.5 -40.5t-58.5 -126.5z" />
    <glyph glyph-name="Sacute" unicode="&#x15a;" horiz-adv-x="673" 
d="M667 897l-272 -140l-49 88l252 169zM14 233h210q-2 -37 26 -60t77 -23q42 0 67 16.5t25 45.5q0 23 -19 38q-7 7 -26 11q-24 6 -25 6l-84 21q-195 48 -195 207q0 108 85 175q86 68 217 68q124 0 204 -63q81 -62 85 -164h-211q-1 31 -24 50.5t-60 19.5q-34 0 -54 -14
t-20 -39q0 -21 16.5 -32t60.5 -21l91 -21q87 -21 133.5 -76t46.5 -135q0 -112 -89 -183q-88 -70 -230 -70q-138 0 -222 66q-84 68 -85 177z" />
    <glyph glyph-name="sacute" unicode="&#x15b;" horiz-adv-x="543" 
d="M589 712l-272 -140l-49 88l252 169zM8 174h184q0 -52 62 -52q55 0 55 38q0 26 -42 34l-47 9l-39 8q-19 6 -42 16q-81 33 -88 136q0 88 68 139q67 52 174 52q102 0 164.5 -47t66.5 -127h-183q-1 19 -14.5 30.5t-35.5 11.5q-20 0 -32.5 -9.5t-12.5 -25.5q2 -12 10 -19.5
t16 -10t29 -6.5l57 -11q149 -29 149 -156q0 -89 -70 -141q-70 -53 -184 -53q-110 0 -175 49.5t-70 134.5z" />
    <glyph glyph-name="Scedilla" unicode="&#x15e;" horiz-adv-x="673" 
d="M369 475l91 -21q87 -21 133.5 -76t46.5 -135q0 -107 -83 -178q-83 -69 -215 -75l-13 -12q35 -4 58.5 -26.5t23.5 -62.5t-25 -68t-62 -37.5t-78.5 -6.5t-75.5 20l12 85q37 -23 75 -17q39 6 39 39q0 24 -25 30q-26 5 -42 -4l7 48l17 17q-109 15 -173.5 78.5t-65.5 159.5
h210q-2 -37 26 -60t77 -23q42 0 67 16.5t25 45.5q0 23 -19 38q-7 7 -26 11q-24 6 -25 6l-84 21q-195 48 -195 207q0 108 85 175q86 68 217 68q124 0 204 -63q81 -62 85 -164h-211q-1 31 -24 50.5t-60 19.5q-34 0 -54 -14t-20 -39q0 -21 16.5 -32t60.5 -21z" />
    <glyph glyph-name="scedilla" unicode="&#x15f;" horiz-adv-x="543" 
d="M301 351l57 -11q149 -29 149 -156q0 -82 -62 -135q-61 -52 -166 -58l-16 -16q35 -4 58.5 -26.5t23.5 -62.5t-25 -68t-62 -37.5t-78.5 -6.5t-75.5 20l12 85q37 -23 75 -17q39 6 39 39q0 24 -25 30q-26 5 -42 -4l7 48l21 20q-82 13 -130 60t-53 119h184q0 -52 62 -52
q55 0 55 38q0 26 -42 34l-47 9l-39 8q-19 6 -42 16q-81 33 -88 136q0 88 68 139q67 52 174 52q102 0 164.5 -47t66.5 -127h-183q-1 19 -14.5 30.5t-35.5 11.5q-20 0 -32.5 -9.5t-12.5 -25.5q2 -12 10 -19.5t16 -10t29 -6.5z" />
    <glyph glyph-name="Scaron" unicode="&#x160;" horiz-adv-x="673" 
d="M351 780l-132 147l95 87l98 -125l132 125l83 -87l-173 -147h-103zM14 233h210q-2 -37 26 -60t77 -23q42 0 67 16.5t25 45.5q0 23 -19 38q-7 7 -26 11q-24 6 -25 6l-84 21q-195 48 -195 207q0 108 85 175q86 68 217 68q124 0 204 -63q81 -62 85 -164h-211q-1 31 -24 50.5
t-60 19.5q-34 0 -54 -14t-20 -39q0 -21 16.5 -32t60.5 -21l91 -21q87 -21 133.5 -76t46.5 -135q0 -112 -89 -183q-88 -70 -230 -70q-138 0 -222 66q-84 68 -85 177z" />
    <glyph glyph-name="scaron" unicode="&#x161;" horiz-adv-x="543" 
d="M273 595l-132 147l95 87l98 -125l132 125l83 -87l-173 -147h-103zM8 174h184q0 -52 62 -52q55 0 55 38q0 26 -42 34l-47 9l-39 8q-19 6 -42 16q-81 33 -88 136q0 88 68 139q67 52 174 52q102 0 164.5 -47t66.5 -127h-183q-1 19 -14.5 30.5t-35.5 11.5q-20 0 -32.5 -9.5
t-12.5 -25.5q2 -12 10 -19.5t16 -10t29 -6.5l57 -11q149 -29 149 -156q0 -89 -70 -141q-70 -53 -184 -53q-110 0 -175 49.5t-70 134.5z" />
    <glyph glyph-name="uni0162" unicode="&#x162;" horiz-adv-x="585" 
d="M431 555l-78 -555h-55l-23 -22q35 -4 58.5 -26.5t23.5 -62.5t-25 -68t-62 -37.5t-78.5 -6.5t-75.5 20l12 85q37 -23 75 -17q39 6 39 39q0 24 -25 30q-26 5 -42 -4l7 48l23 22h-55l78 555h-181l24 174h571l-24 -174h-187z" />
    <glyph glyph-name="uni0163" unicode="&#x163;" horiz-adv-x="419" 
d="M410 391h-114l-26 -186q-1 -15 -2 -29.5t13.5 -24.5t45.5 -10q27 0 49 5l-21 -146q-41 -8 -73 -9l-13 -13q35 -4 58.5 -26.5t23.5 -62.5t-25 -68t-62 -37.5t-78.5 -6.5t-75.5 20l12 85q37 -23 75 -17q39 6 39 39q0 24 -25 30q-26 5 -42 -4l7 48l18 18q-140 29 -117 197
l28 198h-84l22 153h84l16 117l201 74l-26 -191h114z" />
    <glyph glyph-name="Tcaron" unicode="&#x164;" horiz-adv-x="585" 
d="M589 927l-173 -147h-103l-132 147l95 87l98 -125l132 125zM71 729h571l-24 -174h-187l-78 -555h-203l78 555h-181z" />
    <glyph glyph-name="tcaron" unicode="&#x165;" horiz-adv-x="419" 
d="M206 746l-132 147l95 87l98 -125l132 125l83 -87l-173 -147h-103zM21 391l22 153h84l16 117l201 74l-26 -191h114l-22 -153h-114l-26 -186q-1 -15 -2 -29.5t13.5 -24.5t45.5 -10q27 0 49 5l-21 -146q-49 -10 -100 -10q-205 0 -178 203l28 198h-84z" />
    <glyph glyph-name="Tbar" unicode="&#x166;" horiz-adv-x="585" 
d="M642 729l-24 -174h-187l-17 -122h115l-18 -156h-119l-39 -277h-203l39 277h-103l19 156h106l17 122h-181l24 174h571z" />
    <glyph glyph-name="tbar" unicode="&#x167;" horiz-adv-x="419" 
d="M410 391h-114l-5 -34h121l-17 -160h-126q-5 -24 6.5 -40t51.5 -16q27 0 49 5l-21 -146q-49 -10 -100 -10q-205 0 -178 203l1 4h-72l17 160h77l5 34h-84l22 153h84l16 117l201 74l-26 -191h114z" />
    <glyph glyph-name="Umacron" unicode="&#x16a;" horiz-adv-x="770" 
d="M669 775h-387l20 143h387zM84 314l59 415h202l-61 -433q-8 -57 22 -92t89 -35q57 0 94.5 33.5t45.5 93.5l61 433h202l-63 -445q-20 -140 -116 -217q-97 -77 -242 -77q-153 0 -234 89q-80 89 -59 235z" />
    <glyph glyph-name="umacron" unicode="&#x16b;" horiz-adv-x="641" 
d="M572 590h-387l20 143h387zM460 544h191l-76 -544h-169l-9 99h-11q-64 -109 -187 -109q-90 0 -128.5 57.5t-23.5 160.5l47 336h192l-43 -305q-14 -95 68 -95q43 0 72.5 31t36.5 81z" />
    <glyph glyph-name="Uring" unicode="&#x16e;" horiz-adv-x="770" 
d="M605 729h193l-63 -445q-20 -140 -116 -217q-97 -77 -242 -77q-153 0 -234 89q-80 89 -59 235l59 415h202l-61 -433q-8 -57 22 -92t89 -35q57 0 94.5 33.5t45.5 93.5l59 416q-44 -54 -123 -54q-58 0 -93 33t-35 88q0 64 41.5 103t109.5 39q58 0 93 -33t35 -87
q0 -40 -17 -72zM477 748q21 0 33.5 13t12.5 35q0 17 -9.5 27t-25.5 10q-20 0 -32.5 -13.5t-12.5 -35.5q0 -16 9.5 -26t24.5 -10z" />
    <glyph glyph-name="uring" unicode="&#x16f;" horiz-adv-x="641" 
d="M508 544h143l-76 -544h-169l-9 99h-11q-64 -109 -187 -109q-90 0 -128.5 57.5t-23.5 160.5l47 336h161q-9 22 -9 50q0 64 41.5 103t109.5 39q58 0 93 -33t35 -87q0 -40 -17 -72zM391 648q-20 0 -32.5 -13.5t-12.5 -35.5q0 -16 9.5 -26t24.5 -10q21 0 33.5 13t12.5 35
q0 17 -9.5 27t-25.5 10zM311 144q43 0 72.5 31t36.5 81l33 234q-37 -17 -79 -17q-59 0 -93 34l-38 -268q-14 -95 68 -95z" />
    <glyph glyph-name="Uhungarumlaut" unicode="&#x170;" horiz-adv-x="770" 
d="M606 903l-262 -141l-44 86l247 176zM873 903l-263 -141l-43 86l245 176zM84 314l59 415h202l-61 -433q-8 -57 22 -92t89 -35q57 0 94.5 33.5t45.5 93.5l61 433h202l-63 -445q-20 -140 -116 -217q-97 -77 -242 -77q-153 0 -234 89q-80 89 -59 235z" />
    <glyph glyph-name="uhungarumlaut" unicode="&#x171;" horiz-adv-x="641" 
d="M509 718l-262 -141l-44 86l247 176zM776 718l-263 -141l-43 86l245 176zM460 544h191l-76 -544h-169l-9 99h-11q-64 -109 -187 -109q-90 0 -128.5 57.5t-23.5 160.5l47 336h192l-43 -305q-14 -95 68 -95q43 0 72.5 31t36.5 81z" />
    <glyph glyph-name="Uogonek" unicode="&#x172;" horiz-adv-x="770" 
d="M532 296l61 433h202l-63 -445q-19 -128 -101.5 -204.5t-212.5 -87.5q-61 -18 -61 -61q0 -16 13.5 -25.5t35.5 -9.5q30 0 57 15l-12 -82q-36 -15 -75 -15q-54 0 -87 27.5t-33 72.5q0 50 32 85q-114 24 -169 108q-56 85 -38 207l59 415h202l-61 -433q-8 -57 22 -92t89 -35
q57 0 94.5 33.5t45.5 93.5z" />
    <glyph glyph-name="uogonek" unicode="&#x173;" horiz-adv-x="641" 
d="M575 0h-11q-97 -16 -97 -69q0 -16 13.5 -25.5t35.5 -9.5q30 0 57 15l-12 -82q-36 -15 -75 -15q-54 0 -87 27.5t-33 72.5q0 56 39 92l-8 93h-11q-64 -109 -187 -109q-90 0 -128.5 57.5t-23.5 160.5l47 336h192l-43 -305q-14 -95 68 -95q43 0 72.5 31t36.5 81l40 288h191z
" />
    <glyph glyph-name="Wcircumflex" unicode="&#x174;" horiz-adv-x="1023" 
d="M492 761l-83 88l172 145h104l132 -145l-95 -88l-98 124zM115 0l-46 729h224l5 -329l-1 -179h9l148 508h246l9 -510h8l46 178l95 332h224l-250 -729h-276l-14 450h-8l-143 -450h-276z" />
    <glyph glyph-name="wcircumflex" unicode="&#x175;" horiz-adv-x="823" 
d="M346 576l-83 88l172 145h104l132 -145l-95 -88l-98 124zM95 0l-54 544h179l6 -190l6 -163h8l103 353h206v-356h5l51 164l65 192h188l-208 -544h-230l-5 203v97h-6l-28 -96l-61 -204h-225z" />
    <glyph glyph-name="Ycircumflex" unicode="&#x176;" horiz-adv-x="742" 
d="M330 761l-83 88l172 145h104l132 -145l-95 -88l-98 124zM268 269l-205 460h239l39 -129l49 -153h8l92 149l79 133h238l-336 -460l-37 -269h-203z" />
    <glyph glyph-name="ycircumflex" unicode="&#x177;" horiz-adv-x="555" 
d="M205 578l-83 88l172 145h104l132 -145l-95 -88l-98 124zM152 45l-129 499h200l23 -177l18 -147h8l57 147l72 177h202l-271 -556q-42 -89 -112 -128q-67 -37 -183 -37q-45 0 -80 7l21 152q28 -5 64 -5q84 0 102 48z" />
    <glyph glyph-name="Ydieresis" unicode="&#x178;" horiz-adv-x="742" 
d="M400 772h-142l23 163h142zM621 772h-142l23 163h142zM268 269l-205 460h239l39 -129l49 -153h8l92 149l79 133h238l-336 -460l-37 -269h-203z" />
    <glyph glyph-name="Zacute" unicode="&#x179;" horiz-adv-x="592" 
d="M537 1014l69 -117l-272 -140l-49 88zM84 729h549l-23 -165l-354 -392h293l-24 -172h-543l23 167l351 389h-296z" />
    <glyph glyph-name="zacute" unicode="&#x17a;" horiz-adv-x="506" 
d="M491 829l69 -117l-272 -140l-49 88zM252 391h-204l21 153h438l-18 -133l-239 -258h208l-22 -153h-440l19 136z" />
    <glyph glyph-name="Zdotaccent" unicode="&#x17b;" horiz-adv-x="592" 
d="M292 935h142l-23 -163h-142zM84 729h549l-23 -165l-354 -392h293l-24 -172h-543l23 167l351 389h-296z" />
    <glyph glyph-name="zdotaccent" unicode="&#x17c;" horiz-adv-x="506" 
d="M246 750h142l-23 -163h-142zM69 544h438l-18 -133l-239 -258h208l-22 -153h-440l19 136l237 255h-204z" />
    <glyph glyph-name="Zcaron" unicode="&#x17d;" horiz-adv-x="592" 
d="M566 927l-173 -147h-103l-132 147l95 87l98 -125l132 125zM84 729h549l-23 -165l-354 -392h293l-24 -172h-543l23 167l351 389h-296z" />
    <glyph glyph-name="zcaron" unicode="&#x17e;" horiz-adv-x="506" 
d="M520 742l-173 -147h-103l-132 147l95 87l98 -125l132 125zM252 391h-204l21 153h438l-18 -133l-239 -258h208l-22 -153h-440l19 136z" />
    <glyph glyph-name="uni018F" unicode="&#x18f;" horiz-adv-x="724" 
d="M427 739q137 0 212.5 -75t75.5 -213q0 -202 -112 -332q-111 -129 -285 -129q-135 0 -210 75.5t-75 210.5q0 38 7 81q8 50 14 62h445q10 71 -17 107t-87 36q-91 0 -127 -81h-205q42 122 138 190t226 68zM342 161q48 0 82.5 28t50.5 78h-229q-6 -106 96 -106z" />
    <glyph glyph-name="florin" unicode="&#x192;" horiz-adv-x="644" 
d="M684 729l-21 -152h-156l-29 -106h101l-21 -151h-123l-49 -177l-34 -126q-16 -60 -51 -103q-44 -56 -152 -56h-166l21 152h154l38 133l49 177h-99l21 151h120l28 99q21 74 65 116q43 43 138 43h166z" />
    <glyph glyph-name="AEacute" unicode="&#x1fc;" horiz-adv-x="1007" 
d="M833 1014l69 -117l-272 -140l-49 88zM1029 729l-24 -172h-316l-16 -115h264l-22 -160h-265l-15 -110h316l-24 -172h-519l20 144h-200l-61 -144h-209l323 729h748zM293 298h157l36 259h-84z" />
    <glyph glyph-name="Oslashacute" unicode="&#x1fe;" horiz-adv-x="803" 
d="M635 1000l69 -117l-272 -140l-49 88zM766 677l70 -119l-67 -44q19 -58 19 -126q0 -174 -111 -287q-111 -111 -285 -111q-165 0 -262 106l-68 -45l-70 119l70 46q-19 53 -19 124q0 177 109 287q110 111 284 111q166 0 263 -105zM432 562q-73 0 -123 -62q-48 -60 -50 -155
l268 176q-38 41 -95 41zM572 385l-271 -178q36 -41 98 -41q74 0 124 62q49 61 49 157z" />
    <glyph glyph-name="oslashacute" unicode="&#x1ff;" horiz-adv-x="630" 
d="M557 829l69 -117l-272 -140l-49 88zM596 524l52 -98l-63 -42q13 -45 13 -91q0 -136 -83 -219t-219 -83q-122 0 -194 75l-69 -45l-51 97l64 43q-13 42 -13 91q0 136 83 219t219 83q122 0 194 -75zM332 400q-39 0 -66.5 -32t-35.5 -86l147 97q-18 21 -45 21zM298 145
q40 0 67 31.5t35 85.5l-147 -96q17 -21 45 -21z" />
    <glyph glyph-name="uni0218" unicode="&#x218;" horiz-adv-x="673" 
d="M14 233h210q-2 -37 26 -60t77 -23q42 0 67 16.5t25 45.5q0 23 -19 38q-7 7 -26 11q-24 6 -25 6l-84 21q-195 48 -195 207q0 108 85 175q86 68 217 68q124 0 204 -63q81 -62 85 -164h-211q-1 31 -24 50.5t-60 19.5q-34 0 -54 -14t-20 -39q0 -21 16.5 -32t60.5 -21l91 -21
q87 -21 133.5 -76t46.5 -135q0 -112 -89 -183q-88 -70 -230 -70q-138 0 -222 66q-84 68 -85 177zM198 -323l7 52q56 0 64 50l4 25h-67l21 147h146l-23 -158q-17 -116 -152 -116z" />
    <glyph glyph-name="uni0219" unicode="&#x219;" horiz-adv-x="543" 
d="M8 174h184q0 -52 62 -52q55 0 55 38q0 26 -42 34l-47 9l-39 8q-19 6 -42 16q-81 33 -88 136q0 88 68 139q67 52 174 52q102 0 164.5 -47t66.5 -127h-183q-1 19 -14.5 30.5t-35.5 11.5q-20 0 -32.5 -9.5t-12.5 -25.5q2 -12 10 -19.5t16 -10t29 -6.5l57 -11
q149 -29 149 -156q0 -89 -70 -141q-70 -53 -184 -53q-110 0 -175 49.5t-70 134.5zM132 -326l7 52q56 0 64 50l4 25h-67l21 147h146l-23 -158q-17 -116 -152 -116z" />
    <glyph glyph-name="uni021A" unicode="&#x21a;" horiz-adv-x="585" 
d="M71 729h571l-24 -174h-187l-78 -555h-203l78 555h-181zM219 -196h-67l21 147h146l-23 -158q-17 -116 -152 -116l7 52q56 0 64 50z" />
    <glyph glyph-name="uni021B" unicode="&#x21b;" horiz-adv-x="419" 
d="M21 391l22 153h84l16 117l201 74l-26 -191h114l-22 -153h-114l-26 -186q-1 -15 -2 -29.5t13.5 -24.5t45.5 -10q27 0 49 5l-21 -146q-49 -10 -100 -10q-205 0 -178 203l28 198h-84zM138 -323l7 52q56 0 64 50l4 25h-67l21 147h146l-23 -158q-17 -116 -152 -116z" />
    <glyph glyph-name="uni0237" unicode="&#x237;" horiz-adv-x="284" 
d="M-29 -177q-56 0 -86 6l21 144q14 -3 30 -3q69 0 79 75l70 499h190l-76 -537q-14 -96 -70 -140t-158 -44z" />
    <glyph glyph-name="circumflex" unicode="&#x2c6;" horiz-adv-x="389" 
d="M148 711l-83 88l172 145h104l132 -145l-95 -88l-98 124z" />
    <glyph glyph-name="caron" unicode="&#x2c7;" horiz-adv-x="389" 
d="M208 729l-132 147l95 87l98 -125l132 125l83 -87l-173 -147h-103z" />
    <glyph glyph-name="breve" unicode="&#x2d8;" horiz-adv-x="349" 
d="M322 895h113q1 -78 -48.5 -126t-129.5 -48q-78 0 -124 47.5t-46 126.5h113q-1 -70 55 -70q29 0 47.5 19t19.5 51z" />
    <glyph glyph-name="dotaccent" unicode="&#x2d9;" horiz-adv-x="242" 
d="M256 729h-142l23 163h142z" />
    <glyph glyph-name="ring" unicode="&#x2da;" horiz-adv-x="335" 
d="M386 815q0 -65 -41.5 -104t-109.5 -39q-58 0 -93 33t-35 88q0 64 41.5 103t109.5 39q58 0 93 -33t35 -87zM287 810q0 17 -9.5 27t-25.5 10q-20 0 -32.5 -13.5t-12.5 -35.5q0 -16 9.5 -26t24.5 -10q21 0 33.5 13t12.5 35z" />
    <glyph glyph-name="ogonek" unicode="&#x2db;" horiz-adv-x="378" 
d="M10 -86q0 67 52 103t135 32l11 -49q-97 -16 -97 -69q0 -16 13.5 -25.5t35.5 -9.5q30 0 57 15l-12 -82q-36 -15 -75 -15q-54 0 -87 27.5t-33 72.5z" />
    <glyph glyph-name="tilde" unicode="&#x2dc;" horiz-adv-x="360" 
d="M305 720q-28 2 -61 20q-35 20 -57 20q-29 0 -70 -39l-67 50q31 61 72 89.5t83 27.5q29 -2 60 -20q35 -18 59 -18q37 0 62 34l5 6l69 -47q-29 -61 -70 -92.5t-85 -30.5z" />
    <glyph glyph-name="hungarumlaut" unicode="&#x2dd;" horiz-adv-x="619" 
d="M421 852l-262 -141l-44 86l247 176zM688 852l-263 -141l-43 86l245 176z" />
    <glyph glyph-name="gravecomb" unicode="&#x300;" 
d="M8 802l-68 -91l-232 140l93 124z" />
    <glyph glyph-name="acutecomb" unicode="&#x301;" 
d="M50 846l-272 -140l-49 88l252 169z" />
    <glyph glyph-name="uni0302" unicode="&#x302;" 
d="M-241 711l-83 88l172 145h104l132 -145l-95 -88l-98 124z" />
    <glyph glyph-name="tildecomb" unicode="&#x303;" 
d="M-55 720q-28 2 -61 20q-35 20 -57 20q-29 0 -70 -39l-67 50q31 61 72 89.5t83 27.5q28 -2 61 -20t58 -18q37 0 62 34l5 6l69 -47q-29 -61 -70 -92.5t-85 -30.5z" />
    <glyph glyph-name="uni0304" unicode="&#x304;" 
d="M79 726h-387l20 143h387z" />
    <glyph glyph-name="uni0306" unicode="&#x306;" 
d="M-27 895h113q1 -78 -48.5 -126t-129.5 -48q-78 0 -124 47.5t-46 126.5h113q-1 -70 55 -70q29 0 47.5 19t19.5 51z" />
    <glyph glyph-name="uni0307" unicode="&#x307;" 
d="M14 729h-142l23 163h142z" />
    <glyph glyph-name="uni0308" unicode="&#x308;" 
d="M-197 729h-142l23 163h142zM24 729h-142l23 163h142z" />
    <glyph glyph-name="uni030A" unicode="&#x30a;" 
d="M51 815q0 -65 -41.5 -104t-109.5 -39q-58 0 -93 33t-35 88q0 64 41.5 103t109.5 39q58 0 93 -33t35 -87zM-48 810q0 17 -9.5 27t-25.5 10q-20 0 -32.5 -13.5t-12.5 -35.5q0 -16 9.5 -26t24.5 -10q21 0 33.5 13t12.5 35z" />
    <glyph glyph-name="uni030B" unicode="&#x30b;" 
d="M-198 852l-262 -141l-44 86l247 176zM69 852l-263 -141l-43 86l245 176z" />
    <glyph glyph-name="uni030C" unicode="&#x30c;" 
d="M-181 729l-132 147l95 87l98 -125l132 125l83 -87l-173 -147h-103z" />
    <glyph glyph-name="uni0312" unicode="&#x312;" 
d="M44 1015l-7 -52q-56 0 -64 -50l-5 -35h67l-21 -147h-146l24 168q17 116 152 116z" />
    <glyph glyph-name="uni0326" unicode="&#x326;" 
d="M-252 -300l7 52q56 0 64 50l4 25h-67l21 147h146l-23 -158q-17 -116 -152 -116z" />
    <glyph glyph-name="uni0327" unicode="&#x327;" 
d="M-214 16l-39 -38q35 -4 58.5 -26.5t23.5 -62.5t-25 -68t-62 -37.5t-78.5 -6.5t-75.5 20l12 85q37 -23 75 -17q39 6 39 39q0 24 -25 30q-26 5 -42 -4l7 48l62 59h73z" />
    <glyph glyph-name="uni0328" unicode="&#x328;" 
d="M-368 -86q0 67 52 103t135 32l11 -49q-97 -16 -97 -69q0 -16 13.5 -25.5t35.5 -9.5q30 0 57 15l-12 -82q-36 -15 -75 -15q-54 0 -87 27.5t-33 72.5z" />
    <glyph glyph-name="uni0335" unicode="&#x335;" 
d="M-80 293h-452l20 144h452z" />
    <glyph glyph-name="uni0336" unicode="&#x336;" 
 />
    <glyph glyph-name="uni0337" unicode="&#x337;" 
d="M-294 0h-94l366 729h95z" />
    <glyph glyph-name="uni0338" unicode="&#x338;" 
d="M-294 0h-94l366 729h95z" />
    <glyph glyph-name="uni03BC" unicode="&#x3bc;" horiz-adv-x="625" 
d="M156 -173h-172l103 717h190l-48 -339q-4 -33 12.5 -52.5t48.5 -19.5q35 0 59 21t29 55l47 335h191l-77 -544h-182l11 52h-11q-20 -62 -103 -62q-47 0 -62 23h-10z" />
    <glyph glyph-name="pi" unicode="&#x3c0;" horiz-adv-x="641" 
d="M609 132l-18 -124q-58 -14 -93 -14q-52 0 -85.5 14t-46.5 37.5t-17 54t3 63.5l36 256h-92l-59 -419h-186l59 419h-77l18 125h617l-18 -125h-76l-34 -244q-7 -46 40 -46q18 0 29 3z" />
    <glyph glyph-name="omega" unicode="&#x3c9;" horiz-adv-x="796" 
d="M722 0h-284v278q54 11 87 53.5t33 101.5q0 65 -41 105t-109 40q-67 0 -108.5 -40.5t-41.5 -106.5q0 -58 33 -100t88 -53v-278h-286v151h135v22q-74 31 -121 102q-45 72 -45 158q0 141 91 223q92 83 255 83q158 0 253 -81q94 -79 94 -225q0 -86 -46 -157
q-48 -72 -121 -103v-22h134v-151z" />
    <glyph glyph-name="Wgrave" unicode="&#x1e80;" horiz-adv-x="1023" 
d="M668 853l-68 -91l-232 140l93 124zM115 0l-46 729h224l5 -329l-1 -179h9l148 508h246l9 -510h8l46 178l95 332h224l-250 -729h-276l-14 450h-8l-143 -450h-276z" />
    <glyph glyph-name="wgrave" unicode="&#x1e81;" horiz-adv-x="823" 
d="M522 668l-68 -91l-232 140l93 124zM95 0l-54 544h179l6 -190l6 -163h8l103 353h206v-356h5l51 164l65 192h188l-208 -544h-230l-5 203v97h-6l-28 -96l-61 -204h-225z" />
    <glyph glyph-name="Wacute" unicode="&#x1e82;" horiz-adv-x="1023" 
d="M868 897l-272 -140l-49 88l252 169zM115 0l-46 729h224l5 -329l-1 -179h9l148 508h246l9 -510h8l46 178l95 332h224l-250 -729h-276l-14 450h-8l-143 -450h-276z" />
    <glyph glyph-name="wacute" unicode="&#x1e83;" horiz-adv-x="823" 
d="M722 712l-272 -140l-49 88l252 169zM95 0l-54 544h179l6 -190l6 -163h8l103 353h206v-356h5l51 164l65 192h188l-208 -544h-230l-5 203v97h-6l-28 -96l-61 -204h-225z" />
    <glyph glyph-name="Wdieresis" unicode="&#x1e84;" horiz-adv-x="1023" 
d="M562 772h-142l23 163h142zM783 772h-142l23 163h142zM115 0l-46 729h224l5 -329l-1 -179h9l148 508h246l9 -510h8l46 178l95 332h224l-250 -729h-276l-14 450h-8l-143 -450h-276z" />
    <glyph glyph-name="wdieresis" unicode="&#x1e85;" horiz-adv-x="823" 
d="M416 587h-142l23 163h142zM637 587h-142l23 163h142zM95 0l-54 544h179l6 -190l6 -163h8l103 353h206v-356h5l51 164l65 192h188l-208 -544h-230l-5 203v97h-6l-28 -96l-61 -204h-225z" />
    <glyph glyph-name="Ygrave" unicode="&#x1ef2;" horiz-adv-x="742" 
d="M506 853l-68 -91l-232 140l93 124zM268 269l-205 460h239l39 -129l49 -153h8l92 149l79 133h238l-336 -460l-37 -269h-203z" />
    <glyph glyph-name="ygrave" unicode="&#x1ef3;" horiz-adv-x="555" 
d="M381 670l-68 -91l-232 140l93 124zM152 45l-129 499h200l23 -177l18 -147h8l57 147l72 177h202l-271 -556q-42 -89 -112 -128q-67 -37 -183 -37q-45 0 -80 7l21 152q28 -5 64 -5q84 0 102 48z" />
    <glyph glyph-name="endash" unicode="&#x2013;" horiz-adv-x="657" 
d="M600 250h-550l14 100h550z" />
    <glyph glyph-name="emdash" unicode="&#x2014;" horiz-adv-x="853" 
d="M796 250h-746l14 100h746z" />
    <glyph glyph-name="quoteleft" unicode="&#x2018;" horiz-adv-x="248" 
d="M283 760l-9 -63q-54 0 -80 -20.5t-32 -65.5l-4 -28h81l-26 -184h-169l26 187q26 174 213 174z" />
    <glyph glyph-name="quoteright" unicode="&#x2019;" horiz-adv-x="248" 
d="M48 389l9 63q54 0 80 20.5t32 65.5l4 28h-81l26 184h169l-26 -187q-25 -174 -213 -174z" />
    <glyph glyph-name="quotesinglbase" unicode="&#x201a;" horiz-adv-x="248" 
d="M-30 -177l9 63q54 0 80 20.5t32 65.5l4 28h-81l26 184h169l-26 -187q-25 -174 -213 -174z" />
    <glyph glyph-name="quotedblleft" unicode="&#x201c;" horiz-adv-x="475" 
d="M286 760l-9 -63q-54 0 -80 -20.5t-32 -65.5l-4 -28h81l-26 -184h-169l26 187q25 174 213 174zM509 760l-9 -63q-54 0 -80 -20.5t-32 -65.5l-4 -28h81l-26 -184h-169l26 187q26 174 213 174z" />
    <glyph glyph-name="quotedblright" unicode="&#x201d;" horiz-adv-x="480" 
d="M54 389l9 63q54 0 80 20.5t32 65.5l4 28h-81l26 184h169l-26 -187q-25 -174 -213 -174zM283 389l9 63q54 0 80 20.5t32 65.5l4 28h-81l26 184h169l-26 -187q-26 -174 -213 -174z" />
    <glyph glyph-name="quotedblbase" unicode="&#x201e;" horiz-adv-x="477" 
d="M-33 -177l9 63q54 0 80 20.5t32 65.5l4 28h-81l26 184h169l-26 -187q-26 -174 -213 -174zM195 -177l9 63q54 0 80 20.5t32 65.5l4 28h-81l26 184h169l-26 -187q-26 -174 -213 -174z" />
    <glyph glyph-name="dagger" unicode="&#x2020;" horiz-adv-x="436" 
d="M343 726l-47 -331h142l-15 -110h-142l-18 -131h-123l18 131h-141l15 110h141l47 331h123z" />
    <glyph glyph-name="daggerdbl" unicode="&#x2021;" horiz-adv-x="435" 
d="M465 598l-15 -108h-141l-13 -95h142l-15 -110h-142l-18 -131h-123l18 131h-141l15 110h141l13 95h-140l15 108h141l18 128h123l-18 -128h140z" />
    <glyph glyph-name="bullet" unicode="&#x2022;" horiz-adv-x="394" 
d="M37 249q0 81 54 137q54 57 131 57q62 0 99.5 -39t37.5 -100q0 -78 -53 -134q-52 -55 -130 -55q-64 0 -101.5 36.5t-37.5 97.5z" />
    <glyph glyph-name="ellipsis" unicode="&#x2026;" horiz-adv-x="840" 
d="M192 0h-169l26 187h169zM466 0h-168l26 187h168zM741 0h-169l26 187h169z" />
    <glyph glyph-name="perthousand" unicode="&#x2030;" horiz-adv-x="1315" 
d="M85 526q0 89 61 150q62 62 150 62q74 0 117.5 -42t43.5 -111q0 -88 -62 -152q-62 -62 -151 -62q-71 0 -115 43t-44 112zM220 0h-80l566 729h81zM202 541q0 -28 15.5 -46t41.5 -18q34 0 57.5 27.5t23.5 66.5q0 27 -16 44t-43 17q-33 0 -56 -26.5t-23 -64.5zM466 145
q0 90 61 151q62 62 151 62q72 0 116 -42.5t44 -111.5q0 -90 -62 -152t-149 -62q-72 0 -116.5 42.5t-44.5 112.5zM882 145q0 90 61 151q62 62 151 62q72 0 116 -43t44 -112q0 -89 -62 -151t-149 -62q-72 0 -116.5 42.5t-44.5 112.5zM583 161q0 -29 16 -47t43 -18q33 0 57 28
t24 66q0 28 -16.5 45t-43.5 17q-34 0 -57 -26.5t-23 -64.5zM999 161q0 -30 16 -47.5t43 -17.5q32 0 56 27.5t24 66.5q0 28 -16 45t-43 17q-34 0 -57 -26.5t-23 -64.5z" />
    <glyph glyph-name="guilsinglleft" unicode="&#x2039;" horiz-adv-x="315" 
d="M103 54l-88 220l150 218h160l-140 -218l78 -220h-160z" />
    <glyph glyph-name="guilsinglright" unicode="&#x203a;" horiz-adv-x="314" 
d="M213 492l86 -218l-148 -220h-161l139 220l-77 218h161z" />
    <glyph glyph-name="fraction" unicode="&#x2044;" horiz-adv-x="271" 
d="M-46 -46h-142l529 814h143z" />
    <glyph glyph-name="uni2070" unicode="&#x2070;" horiz-adv-x="498" 
d="M250 295q-91 0 -137.5 56.5t-46.5 158.5q0 160 74 260q74 99 194 99q91 0 137.5 -56t46.5 -157q0 -160 -74 -261q-73 -100 -194 -100zM267 418q45 0 74 66q29 69 29 175q0 89 -53 89q-47 0 -76 -66q-28 -65 -28 -173q0 -91 54 -91z" />
    <glyph glyph-name="uni2074" unicode="&#x2074;" horiz-adv-x="499" 
d="M498 862l-48 -342h66l-16 -115h-66l-15 -105h-141l15 105h-251l15 105l234 352h207zM338 725l-137 -205h108z" />
    <glyph glyph-name="uni2075" unicode="&#x2075;" horiz-adv-x="480" 
d="M337 681q75 0 118.5 -42.5t43.5 -114.5q0 -101 -69 -167q-70 -65 -177 -65q-98 0 -149 51.5t-39 134.5h143q-4 -28 12.5 -45.5t49.5 -17.5q36 0 60 24.5t24 60.5q0 28 -17.5 46t-47.5 18q-25 0 -44.5 -12.5t-28.5 -31.5h-135l64 342h361l-17 -122h-236l-15 -79l5 -2
q35 22 94 22z" />
    <glyph glyph-name="uni2076" unicode="&#x2076;" horiz-adv-x="486" 
d="M255 293q-92 0 -140 55.5t-48 158.5q0 163 74 263q74 99 196 99q83 0 130.5 -40.5t46.5 -109.5h-143q-7 33 -55 33q-43 0 -66.5 -31t-27.5 -85h6q38 47 114 47q70 0 112 -41.5t42 -112.5q0 -101 -69 -169q-67 -67 -172 -67zM274 415q34 0 57 26.5t23 65.5q0 28 -16 45
t-42 17q-35 0 -58 -26.5t-23 -66.5q0 -29 16 -45t43 -16z" />
    <glyph glyph-name="uni2077" unicode="&#x2077;" horiz-adv-x="441" 
d="M173 652h-112l30 210h420l-15 -102q-89 -99 -165 -224q-74 -124 -107 -236h-152q30 107 98 224q66 114 155 216h-140z" />
    <glyph glyph-name="uni2078" unicode="&#x2078;" horiz-adv-x="481" 
d="M49 429q0 52 26 91t72 58l1 7q-63 30 -63 101q0 83 65 133q67 50 175 50q92 0 143 -36t51 -100q0 -49 -26.5 -89t-72.5 -59l-1 -7q63 -30 63 -102q0 -83 -66 -134q-65 -50 -174 -50q-92 0 -142.5 36.5t-50.5 100.5zM229 685q0 -21 17 -33.5t46 -12.5q34 0 55.5 17
t21.5 44q0 22 -16.5 35.5t-45.5 13.5q-34 0 -56 -18t-22 -46zM197 461q0 -22 17 -35t46 -13q34 0 56 18t22 46q0 22 -17 35t-45 13q-34 0 -56.5 -18t-22.5 -46z" />
    <glyph glyph-name="uni2079" unicode="&#x2079;" horiz-adv-x="481" 
d="M234 293q-82 0 -130 40t-47 111h143q6 -34 54 -34q41 0 65.5 30.5t29.5 86.5h-6q-39 -47 -115 -47q-71 0 -112.5 42t-41.5 112q0 102 68 168q68 67 173 67q92 0 140 -55t48 -159q0 -163 -74 -263q-73 -99 -195 -99zM275 593q34 0 57 27t23 67q0 28 -15.5 44t-42.5 16
q-35 0 -58 -26t-23 -65q0 -28 16 -45.5t43 -17.5z" />
    <glyph glyph-name="uni2080" unicode="&#x2080;" horiz-adv-x="498" 
d="M194 -105q-91 0 -137.5 56.5t-46.5 158.5q0 160 74 260q73 99 194 99q91 0 137.5 -56t46.5 -157q0 -160 -74 -261q-73 -100 -194 -100zM211 18q45 0 74 66q29 69 29 175q0 89 -53 89q-47 0 -76 -66q-28 -65 -28 -173q0 -91 54 -91z" />
    <glyph glyph-name="uni2081" unicode="&#x2081;" horiz-adv-x="346" 
d="M145 254h-147l15 108h25q54 0 94 27.5t50 72.5h133l-79 -562h-141z" />
    <glyph glyph-name="uni2082" unicode="&#x2082;" horiz-adv-x="459" 
d="M177 20l60 3h161l-17 -123h-398l3 19q9 54 35 102q17 29 42 56t38.5 37.5t50.5 38.5q10 7 34 24t33.5 24.5t26.5 22t24 25t13 25t6 30.5q0 21 -14 33t-39 12q-31 0 -50 -19.5t-20 -54.5h-142q15 90 78 142t156 52q83 0 131 -40t48 -109q0 -94 -69 -157q-29 -26 -64 -50
q-104 -70 -127 -93z" />
    <glyph glyph-name="uni2083" unicode="&#x2083;" horiz-adv-x="477" 
d="M193 -108q-95 0 -145 49t-38 129h142q-4 -24 13 -40.5t49 -16.5q33 0 54.5 20.5t21.5 51.5q0 46 -66 46h-65l15 111h51q38 0 60.5 17t22.5 47q0 20 -14.5 31.5t-39.5 11.5q-31 0 -52 -15.5t-22 -40.5h-142q7 79 72 127q65 49 165 49q83 0 131.5 -36t48.5 -96
q0 -46 -24.5 -83t-67.5 -56l-1 -5q70 -30 70 -109q0 -83 -68 -137q-67 -55 -171 -55z" />
    <glyph glyph-name="uni2084" unicode="&#x2084;" horiz-adv-x="499" 
d="M441 462l-48 -342h66l-16 -115h-66l-15 -105h-141l15 105h-251l15 105l234 352h207zM281 325l-137 -205h108z" />
    <glyph glyph-name="uni2085" unicode="&#x2085;" horiz-adv-x="480" 
d="M281 281q75 0 118.5 -42.5t43.5 -114.5q0 -101 -69 -166q-69 -66 -177 -66q-98 0 -149 51.5t-39 134.5h143q-4 -28 12.5 -45.5t49.5 -17.5q36 0 60 24.5t24 60.5q0 28 -17.5 46t-47.5 18q-25 0 -44.5 -12.5t-28.5 -31.5h-135l64 342h361l-17 -122h-236l-15 -79l5 -2
q35 22 94 22z" />
    <glyph glyph-name="uni2086" unicode="&#x2086;" horiz-adv-x="487" 
d="M199 -107q-92 0 -140 55.5t-48 158.5q0 163 74 263q73 99 196 99q83 0 130.5 -40.5t46.5 -109.5h-143q-7 33 -55 33q-85 0 -94 -116h6q38 47 114 47q70 0 112 -41.5t42 -112.5q0 -101 -69 -169q-67 -67 -172 -67zM218 15q34 0 57 26.5t23 65.5q0 28 -16 45t-42 17
q-35 0 -58 -26.5t-23 -66.5q0 -29 16 -45t43 -16z" />
    <glyph glyph-name="uni2087" unicode="&#x2087;" horiz-adv-x="441" 
d="M117 252h-112l30 210h420l-15 -102q-90 -101 -165 -226q-74 -123 -107 -234h-152q27 102 97 223q67 116 156 217h-140z" />
    <glyph glyph-name="uni2088" unicode="&#x2088;" horiz-adv-x="481" 
d="M-7 29q0 107 98 149l1 7q-63 30 -63 101q0 83 65 133q67 50 175 50q92 0 143 -36t51 -100q0 -49 -26.5 -89t-72.5 -59l-1 -7q63 -30 63 -102q0 -84 -66 -133q-64 -51 -174 -51q-92 0 -142.5 36.5t-50.5 100.5zM173 285q0 -21 17 -33.5t46 -12.5q34 0 55.5 17t21.5 44
q0 22 -16.5 35.5t-45.5 13.5q-34 0 -56 -18t-22 -46zM141 61q0 -22 17 -35t46 -13q34 0 56 18t22 46q0 22 -17 35t-45 13q-34 0 -56.5 -18t-22.5 -46z" />
    <glyph glyph-name="uni2089" unicode="&#x2089;" horiz-adv-x="482" 
d="M178 -107q-82 0 -130 40t-47 111h143q6 -34 54 -34q41 0 65.5 30.5t29.5 86.5h-6q-39 -47 -115 -47q-71 0 -112.5 42t-41.5 112q0 102 68 168q68 67 173 67q92 0 140 -55t48 -159q0 -163 -74 -263q-73 -99 -195 -99zM219 193q34 0 57 27t23 67q0 28 -15.5 44t-42.5 16
q-35 0 -58 -26t-23 -65q0 -28 16 -45.5t43 -17.5z" />
    <glyph glyph-name="uni20A6" unicode="&#x20a6;" horiz-adv-x="767" 
d="M700 420h88l-16 -112h-88l-43 -308h-223l-81 308h-65l-5 -52l-36 -256h-190l43 308h-80l16 112h80l43 309h223l80 -309h65l6 55l36 254h190zM288 464l-4 -44h24l-12 44h-8zM487 260h8l5 48h-25z" />
    <glyph glyph-name="uni20A9" unicode="&#x20a9;" horiz-adv-x="997" 
d="M825 729h221l-116 -329h80l-16 -112h-104l-102 -288h-281l9 288h-45l-81 -288h-285l-13 288h-85l16 112h64l-14 329h210l-7 -329h60l95 329h252l-12 -329h59zM513 435l-10 -35h17l1 35h-8zM271 197h6l26 91h-30zM664 195h7l27 93h-31z" />
    <glyph glyph-name="uni20AA" unicode="&#x20aa;" horiz-adv-x="851" 
d="M475 520l8 59h-206l-81 -579h-152l102 729h357q78 0 110.5 -34.5t20.5 -118.5l-8 -56l-48 -340h-151zM601 151l81 578h152l-102 -729h-357q-61 0 -99 23q-44 31 -31 130l8 57l47 340h151l-47 -340l-9 -59h206z" />
    <glyph glyph-name="Euro" unicode="&#x20ac;" horiz-adv-x="736" 
d="M387 167q65 0 97 57h212q-35 -108 -124 -171q-89 -62 -210 -62q-117 0 -189 61.5t-88 172.5h-67l16 116h49l6 47h-48l16 114h66q46 111 136.5 173.5t207.5 62.5q122 0 193 -63t75 -169h-212q-13 57 -80 57q-63 0 -106 -61h164l-30 -114h-178l-6 -47h170l-34 -116h-124
q25 -58 88 -58z" />
    <glyph glyph-name="uni20B2" unicode="&#x20b2;" horiz-adv-x="721" 
d="M323 286l19 135l344 -2l-4 -49q-12 -141 -98 -221q-87 -81 -222 -85l-10 -72h-115l12 85q-96 26 -150.5 100.5t-54.5 179.5q0 136 79 227t212 105l10 71h115l-11 -74q91 -16 149 -72.5t67 -138.5h-208q-8 22 -30.5 35.5t-50.5 13.5q-59 0 -92 -43.5t-33 -119.5
q0 -62 29 -97.5t78 -35.5q37 0 65 16t39 42h-139z" />
    <glyph glyph-name="uni20B8" unicode="&#x20b8;" horiz-adv-x="583" 
d="M50 579l22 150h568l-22 -150h-568zM207 362h-187l23 164h568l-23 -164h-192l-51 -362h-189z" />
    <glyph glyph-name="uni20B9" unicode="&#x20b9;" horiz-adv-x="530" 
d="M560 729l-17 -116h-109q20 -43 23 -91h74l-17 -116h-77q-22 -56 -64.5 -95.5t-98.5 -54.5l-1 -8q22 -6 33 -12.5t20 -22.5q13 -20 14 -23l15 -37l5 -12l54 -141h-211l-60 147q-12 29 -25 44q-16 20 -66 20h-81l22 153h139q58 0 92 42h-226l17 116h221q-22 37 -77 37h-139
l8 54h-1l17 116h516z" />
    <glyph glyph-name="uni20BA" unicode="&#x20ba;" horiz-adv-x="690" 
d="M479 356h198q-52 -161 -178 -258q-124 -95 -305 -97l-154 -1l33 234l-78 -29l20 142l78 30l9 65l-78 -29l20 141l79 32l20 143h190l-10 -69l115 45l-20 -142l-115 -47l-9 -65l115 46l-20 -142l-115 -46l-18 -125q71 1 130 48t93 124z" />
    <glyph glyph-name="uni20BC" unicode="&#x20bc;" horiz-adv-x="829" 
d="M193 0h-192l43 309q23 162 105.5 246t220.5 100l10 74h195l-10 -74q141 -18 196 -104.5t34 -241.5l-43 -309h-193l43 309q10 75 -5.5 112.5t-57.5 47.5l-66 -469h-195l66 469q-49 -9 -73.5 -47.5t-34.5 -112.5z" />
    <glyph glyph-name="uni20BD" unicode="&#x20bd;" horiz-adv-x="654" 
d="M365 231h-103l-5 -34h137l-16 -114h-137l-12 -83h-190l12 83h-76l16 114h76l5 35h-76l18 127h76l52 370h290q106 0 171 -59t65 -153q0 -122 -88 -204q-86 -82 -215 -82zM465 493q0 67 -92 67h-65l-24 -169h65q53 0 84.5 27.5t31.5 74.5z" />
    <glyph glyph-name="uni20BF" unicode="&#x20bf;" horiz-adv-x="734" 
d="M555 390q72 -34 72 -124q0 -82 -55 -143q-55 -63 -153 -73l-8 -58h-114l8 56h-49l-8 -56h-113l8 56h-70l92 658h70l8 54h113l-8 -54h49l8 54h114l-8 -58q66 -12 102 -51t36 -98q0 -53 -25 -96t-69 -67zM323 451h52q28 0 49 22t21 51q0 21 -15 32.5t-39 11.5h-52zM358 316
h-54l-19 -130h54q38 0 62 21.5t24 56.5q0 27 -20 39.5t-47 12.5z" />
    <glyph glyph-name="uni2105" unicode="&#x2105;" horiz-adv-x="991" 
d="M308 488h129q-5 -62 -55.5 -100.5t-129.5 -38.5q-87 0 -139 52t-52 142q0 89 54 142q55 54 145 54q73 0 122.5 -39.5t56.5 -103.5h-131q-7 37 -52 37q-64 0 -64 -90t65 -90q19 0 33 9.5t18 25.5zM325 0h-106l465 729h106zM957 188q0 -86 -54 -140q-53 -54 -139 -54
t-141 53q-53 55 -53 141t53 141q54 54 141 54q88 0 140 -54q53 -55 53 -141zM700 188q0 -41 18 -65.5t46 -24.5q29 0 46 25t17 66q0 40 -17.5 64.5t-46.5 24.5t-46 -25t-17 -65z" />
    <glyph glyph-name="uni2116" unicode="&#x2116;" horiz-adv-x="1456" 
d="M863 470q0 117 79 190q80 74 198 74q109 0 177 -65t68 -170q0 -116 -79 -189q-79 -74 -197 -74q-109 0 -178 63q-68 65 -68 171zM228 0h-203l102 729h230l178 -437h8l17 202l33 235h201l-102 -729h-230l-176 431h-8l-17 -195zM1058 466q0 -36 15 -56.5t39 -20.5
q35 0 56.5 31.5t21.5 83.5q0 36 -15 56.5t-39 20.5q-35 0 -56.5 -31.5t-21.5 -83.5zM851 1l21 150h411l-21 -150h-411z" />
    <glyph glyph-name="uni2117" unicode="&#x2117;" horiz-adv-x="884" 
d="M453 -77q-110 0 -205 52q-94 51 -156 149q-60 98 -60 219q0 89 34.5 169.5t93.5 134.5q127 116 293 116q110 0 204 -52q96 -52 155 -148q60 -97 60 -217q0 -119 -59 -219q-59 -97 -154 -150.5t-206 -53.5zM826 347q0 163 -109 269t-264 106q-154 0 -266 -107
q-110 -107 -110 -272t110 -272q112 -107 266 -107q155 0 264 108t109 275zM412 124h-107v430h229q69 0 110 -39t41 -103q0 -63 -41 -102.5t-110 -39.5h-122v-146zM410 467v-114h105q29 0 45.5 16t16.5 43q0 24 -18 39.5t-44 15.5h-105z" />
    <glyph glyph-name="trademark" unicode="&#x2122;" horiz-adv-x="631" 
d="M70 736h241l-10 -72h-82l-34 -241h-80l34 241h-79zM500 583l87 153h98l-44 -313h-77l16 115l16 85h-3l-117 -195l-62 195h-5l-6 -85l-16 -115h-78l44 313h99l45 -153h3z" />
    <glyph glyph-name="estimated" unicode="&#x212e;" horiz-adv-x="740" 
d="M679 230h46q-27 -108 -120 -174q-94 -65 -222 -65q-163 0 -260 102q-97 101 -97 266t99 267q100 103 266 103q152 0 243 -88q92 -87 99 -246q1 -14 1 -57h-600v-185q35 -59 102 -91.5t149 -32.5q107 0 187 55q81 56 107 146zM134 561v-187h493v205q-89 111 -249 108
q-159 -3 -244 -126z" />
    <glyph glyph-name="oneeighth" unicode="&#x215b;" horiz-adv-x="974" 
d="M271 -46h-142l529 814h143zM185 552h-125l13 92h45q43 0 69 22t26 60v3h113l-67 -473h-116zM583 110q0 43 22.5 77t62.5 50v6q-54 24 -54 89q0 70 55 112t145 42q74 0 115 -30.5t41 -84.5q0 -42 -23 -77.5t-60 -50.5v-6q52 -24 52 -85q0 -72 -54 -115.5t-144 -43.5
q-75 0 -116.5 31.5t-41.5 85.5zM732 329q0 -19 14 -30t38 -11q28 0 46.5 16t18.5 40q0 19 -14.5 30.5t-37.5 11.5q-28 0 -46.5 -16t-18.5 -41zM705 134q0 -19 13.5 -30.5t37.5 -11.5q28 0 47 16.5t19 41.5q0 20 -14 31.5t-38 11.5q-28 0 -46.5 -17t-18.5 -42z" />
    <glyph glyph-name="threeeighths" unicode="&#x215c;" horiz-adv-x="1028" 
d="M335 -46h-142l529 814h143zM187 248q-76 0 -116 41.5t-30 107.5h115q-2 -20 10 -34.5t33 -14.5q24 0 41 16.5t17 39.5q0 18 -13 29t-34 11h-45l14 103h30q29 0 46.5 15t17.5 40q0 33 -39 33q-22 0 -37 -13.5t-17 -35.5h-116q8 68 59 108.5t130 40.5q65 0 103 -30t38 -79
q0 -86 -79 -119v-5q59 -26 59 -92q0 -70 -54 -116q-52 -46 -133 -46zM647 110q0 43 22.5 77t62.5 50v6q-54 24 -54 89q0 70 55 112t145 42q74 0 115 -30.5t41 -84.5q0 -42 -23 -77.5t-60 -50.5v-6q52 -24 52 -85q0 -72 -54 -115.5t-144 -43.5q-75 0 -116.5 31.5t-41.5 85.5z
M796 329q0 -19 14 -30t38 -11q28 0 46.5 16t18.5 40q0 19 -14.5 30.5t-37.5 11.5q-28 0 -46.5 -16t-18.5 -41zM769 134q0 -19 13.5 -30.5t37.5 -11.5q28 0 47 16.5t19 41.5q0 20 -14 31.5t-38 11.5q-28 0 -46.5 -17t-18.5 -42z" />
    <glyph glyph-name="fiveeighths" unicode="&#x215d;" horiz-adv-x="1057" 
d="M363 -46h-142l529 814h143zM51 404h117q-4 -24 11.5 -40.5t40.5 -16.5q28 0 48.5 23t20.5 54q0 25 -15 40.5t-38 15.5q-43 0 -61 -38h-110l41 287h311l-14 -100h-197l-6 -38l-7 -33l3 -3q26 22 78 22q62 0 97.5 -36.5t35.5 -96.5q0 -86 -58 -141t-145 -55q-78 0 -120 43
t-33 113zM675 110q0 43 22.5 77t62.5 50v6q-54 24 -54 89q0 70 55 112t145 42q74 0 115 -30.5t41 -84.5q0 -42 -23 -77.5t-60 -50.5v-6q52 -24 52 -85q0 -72 -54 -115.5t-144 -43.5q-75 0 -116.5 31.5t-41.5 85.5zM824 329q0 -19 14 -30t38 -11q28 0 46.5 16t18.5 40
q0 19 -14.5 30.5t-37.5 11.5q-28 0 -46.5 -16t-18.5 -41zM797 134q0 -19 13.5 -30.5t37.5 -11.5q28 0 47 16.5t19 41.5q0 20 -14 31.5t-38 11.5q-28 0 -46.5 -17t-18.5 -42z" />
    <glyph glyph-name="seveneighths" unicode="&#x215e;" horiz-adv-x="951" 
d="M106 -46l529 814h143l-530 -814h-142zM162 256h-114q22 90 77 192q54 102 127 181h-109l-10 -73h-88l10 73l14 100h337l-11 -83q-78 -75 -141 -181q-59 -100 -92 -209zM864 243v-6q52 -24 52 -85q0 -72 -54 -115.5t-144 -43.5q-74 0 -116 31.5t-42 85.5q0 43 22.5 77
t62.5 50v6q-54 24 -54 89q0 70 55 112t145 42q74 0 115 -30.5t41 -84.5q0 -42 -23 -77.5t-60 -50.5zM761 288q28 0 46.5 16t18.5 40q0 19 -14.5 30.5t-37.5 11.5q-28 0 -46.5 -16t-18.5 -41q0 -19 14 -30t38 -11zM733 92q28 0 47 16.5t19 41.5q0 20 -14 31.5t-38 11.5
q-28 0 -46.5 -17t-18.5 -42q0 -19 13.5 -30.5t37.5 -11.5z" />
    <glyph glyph-name="arrowleft" unicode="&#x2190;" horiz-adv-x="867" 
d="M768 328v-100h-586l169 -228h-126l-208 280l208 272h126l-169 -224h586z" />
    <glyph glyph-name="arrowup" unicode="&#x2191;" horiz-adv-x="637" 
d="M569 384v-118l-211 188v-362h211v-95h-523v95h211v362l-211 -188v118l263 229z" />
    <glyph glyph-name="arrowright" unicode="&#x2192;" horiz-adv-x="907" 
d="M689 228h-586v100h586l-169 224h126l208 -272l-208 -280h-126z" />
    <glyph glyph-name="arrowdown" unicode="&#x2193;" horiz-adv-x="637" 
d="M594 562v-95h-211v-362l211 188v-119l-260 -228l-263 228v119l211 -188v362h-211v95h523z" />
    <glyph glyph-name="arrowboth" unicode="&#x2194;" horiz-adv-x="1020" 
d="M249 90l-224 271l224 266h117l-183 -218h679l-180 218h116l223 -266l-223 -271h-116l180 219h-679l183 -219h-117z" />
    <glyph glyph-name="arrowupdn" unicode="&#x2195;" horiz-adv-x="709" 
d="M365 -141l-306 246v115l258 -207v593l-258 -206v114l306 246l305 -246v-114l-258 206v-593l258 207v-115z" />
    <glyph glyph-name="uni2196" unicode="&#x2196;" horiz-adv-x="783" 
d="M710 78l-73 -78l-398 409v-319h-101v493h484v-101h-312z" />
    <glyph glyph-name="uni2197" unicode="&#x2197;" horiz-adv-x="688" 
d="M554 386l-377 -386l-72 75l378 391h-310v96h484v-492h-103v316z" />
    <glyph glyph-name="uni2198" unicode="&#x2198;" horiz-adv-x="765" 
d="M636 0l-485 -1v104h315l-383 383l72 76l380 -393l1 327h101z" />
    <glyph glyph-name="uni2199" unicode="&#x2199;" horiz-adv-x="698" 
d="M607 0h-486v496h104v-327l382 393l67 -73l-383 -386h316v-103z" />
    <glyph glyph-name="uni21A9" unicode="&#x21a9;" horiz-adv-x="818" 
d="M838 498q0 -108 -69 -176q-68 -67 -197 -67h-360v-124l-197 178l197 181v-126h360q72 0 116 35.5t44 98.5q0 60 -41 96.5t-109 36.5h-13v107h13q112 0 184 -69q72 -67 72 -171z" />
    <glyph glyph-name="uni21AA" unicode="&#x21aa;" horiz-adv-x="871" 
d="M44 498q0 104 73 171q74 69 184 69h13v-107h-13q-68 0 -108.5 -37t-40.5 -96q0 -63 43 -98.5t116 -35.5h363v126l193 -181l-193 -178v124h-363q-128 0 -197.5 65.5t-69.5 177.5z" />
    <glyph glyph-name="uni21B2" unicode="&#x21b2;" horiz-adv-x="687" 
d="M561 364v406h97v-515h-435v-124l-196 178l196 181v-126h338z" />
    <glyph glyph-name="uni21B3" unicode="&#x21b3;" horiz-adv-x="745" 
d="M530 490l193 -181l-193 -178v124h-438v515h98v-406h340v126z" />
    <glyph glyph-name="uni21BA" unicode="&#x21ba;" horiz-adv-x="833" 
d="M85 320q0 87 41.5 167t120.5 135l51 -60q-131 -89 -131 -242q0 -106 74 -180q73 -73 185 -73q107 0 178 71q72 72 72 175q0 71 -36 129q-37 59 -151 156l-3 -2l5 -67v-129h-75v329h318v-80h-127l-60 5l-3 -3q127 -105 169 -174q45 -69 45 -164q0 -137 -97 -231t-239 -94
q-143 0 -240 94t-97 238z" />
    <glyph glyph-name="uni21BB" unicode="&#x21bb;" horiz-adv-x="863" 
d="M449 -12q-140 0 -237 94q-96 94 -96 231q0 94 45 166q44 70 170 172l-4 3l-63 -5h-125v80h322v-329h-79v129l5 67l-3 2q-113 -95 -150 -155q-36 -59 -36 -130q0 -102 71 -175q71 -71 179 -71q110 0 184 72q75 72 75 181q0 73 -34.5 138t-94.5 104l49 60
q79 -55 120.5 -136t41.5 -166q0 -141 -98 -237q-98 -95 -242 -95z" />
    <glyph glyph-name="emptyset" unicode="&#x2205;" horiz-adv-x="768" 
d="M437 738q158 0 255 -97q97 -96 97 -253q0 -174 -111 -287q-111 -111 -285 -111q-155 0 -253 96q-96 96 -96 254q0 177 109 287q109 111 284 111zM433 562q-75 0 -124 -63q-49 -62 -49 -160q0 -16 1 -20l244 222q-31 21 -72 21zM400 166q74 0 124 62q49 61 49 157
q0 17 -1 22l-245 -221q32 -20 73 -20z" />
    <glyph glyph-name="product" unicode="&#x220f;" horiz-adv-x="812" 
d="M110 729h720l-23 -165h-107l-79 -564h-192l79 564h-123l-79 -564h-193l79 564h-105z" />
    <glyph glyph-name="summation" unicode="&#x2211;" horiz-adv-x="610" 
d="M503 -169h-515l27 192l248 237l2 10l-178 265l27 194h515l-27 -194h-182l-101 11l-1 -11l165 -274l-243 -230l-1 -10l110 10h182z" />
    <glyph glyph-name="minus" unicode="&#x2212;" horiz-adv-x="568" 
d="M59 225l21 149h433l-21 -149h-433z" />
    <glyph glyph-name="radical" unicode="&#x221a;" horiz-adv-x="844" 
d="M518 356l191 373h193l-435 -842h-241l-100 453h-104l23 163h245v-3l29 -145l50 -287h8z" />
    <glyph glyph-name="infinity" unicode="&#x221e;" horiz-adv-x="851" 
d="M191 28q-89 0 -145 55q-57 55 -57 146q0 116 80 201q81 85 191 85q61 0 108.5 -32t73.5 -86q41 54 97.5 86t117.5 32q90 0 147 -58q57 -59 57 -149q0 -115 -80 -198q-79 -82 -191 -82q-128 0 -184 113q-40 -53 -96 -83t-119 -30zM228 201q56 0 111 69q-34 67 -92 67
q-32 0 -54.5 -23t-22.5 -56q0 -25 16 -41t42 -16zM600 201q32 0 55 23.5t23 56.5q0 25 -16 40.5t-43 15.5q-58 0 -108 -67q34 -69 89 -69z" />
    <glyph glyph-name="integral" unicode="&#x222b;" horiz-adv-x="635" 
d="M450 753h167l-22 -152h-134l-8 -60l-66 -470l-8 -54q-10 -62 -40 -104q-37 -54 -141 -54h-166l21 151h134l9 61l66 470l7 53q7 48 22 79q35 76 159 80z" />
    <glyph glyph-name="approxequal" unicode="&#x2248;" horiz-adv-x="543" 
d="M149 348h-82q4 81 49 122q44 42 97 42q40 0 87 -29q47 -28 77 -28q54 0 63 54h81q-5 -83 -50 -124q-46 -41 -99 -41q-51 0 -101 28q-49 28 -71 28q-23 0 -37 -16t-14 -36zM120 143h-82q4 80 48 121q43 40 97 40q42 0 89 -28q48 -27 76 -27q26 0 42.5 14t20.5 38h81
q-4 -83 -50 -124q-43 -40 -99 -40q-49 0 -101 29q-50 29 -71 29q-22 0 -36.5 -16.5t-14.5 -35.5z" />
    <glyph glyph-name="notequal" unicode="&#x2260;" horiz-adv-x="610" 
d="M569 457l-18 -131h-162l-45 -67h197l-18 -130h-265l-65 -99h-118l66 99h-95l18 130h163l44 67h-197l18 131h266l65 98h117l-65 -98h94z" />
    <glyph glyph-name="lessequal" unicode="&#x2264;" horiz-adv-x="564" 
d="M515 348l-24 -170l-437 148l24 170l478 142l-24 -169l-154 -32l-140 -21l-1 -9l127 -22zM490 172l-24 -172h-458l24 172h458z" />
    <glyph glyph-name="greaterequal" unicode="&#x2265;" horiz-adv-x="564" 
d="M525 326l-479 -148l24 170l161 37l134 22l1 9l-135 21l-144 32l24 169l438 -142zM479 0h-458l24 172h458z" />
    <glyph glyph-name="filledbox" unicode="&#x25a0;" horiz-adv-x="1034" 
d="M169 1v728h722v-728h-722z" />
    <glyph glyph-name="uni25A1" unicode="&#x25a1;" horiz-adv-x="905" 
d="M104 0v729h723v-729h-723zM753 655h-573v-580h573v580z" />
    <glyph glyph-name="triagup" unicode="&#x25b2;" horiz-adv-x="875" 
d="M-8 0l407 737l408 -737h-815z" />
    <glyph glyph-name="uni25B3" unicode="&#x25b3;" horiz-adv-x="867" 
d="M791 0h-791l394 738zM396 574l-260 -492h521z" />
    <glyph glyph-name="lozenge" unicode="&#x25ca;" horiz-adv-x="2177" 
d="M1049 -10q-135 0 -214 100t-79 268q0 96 28 170.5t76.5 119.5t109.5 68t132 23q120 0 202 -62q82 -61 100 -164h-156q-36 86 -147 86q-90 0 -137 -62t-47 -175q0 -115 46.5 -175t129.5 -60q67 0 109 33t52 92h-162v143h324v-395h-111l-16 119h-35q-16 -61 -71 -95
t-134 -34zM1551 576q-34 0 -56.5 23t-22.5 59q0 35 22.5 58t56.5 23q35 0 55.5 -22.5t20.5 -58.5q0 -37 -20.5 -59.5t-55.5 -22.5zM1749 576q-34 0 -55 23t-21 59q0 35 21.5 58t54.5 23q36 0 58.5 -23t22.5 -58q0 -36 -22.5 -59t-58.5 -23zM375 0h-271v729h271
q161 0 248.5 -92.5t87.5 -270.5t-88.5 -272t-247.5 -94zM1951 572h-36v126h-38v31h118v-31h-44v-126zM2049 572h-34v157h63l17 -127l23 127h61v-157h-40v135l-17 -135h-52l-21 135v-135zM210 109l26 -26q29 29 52.5 40.5t60.5 11.5h26q32 0 69 15q31 12 52 33q24 24 41 72
t17 108q0 59 -16 106t-39 70q-21 23 -49 36q-37 19 -75 19h-26q-29 0 -52 10q-26 12 -32 17l-29 27l-26 -30q0 -2 7 -9t7 -8q5 -2 20 -27q15 -22 15 -71v-276q-3 -51 -16 -74l-10 -15q-9 -15 -23 -29zM1647 0h-149v491h141l7 -58h27q12 36 49 56t90 20v-147
q-165 16 -165 -148v-214z" />
    <glyph glyph-name="circle" unicode="&#x25cb;" horiz-adv-x="762" 
d="M26 365q0 162 104 268q105 105 264 105q160 0 263 -105q105 -105 105 -268q0 -165 -105 -270q-103 -105 -263 -105q-159 0 -264 105q-104 106 -104 270zM394 63q125 0 207 85q83 86 83 217q0 130 -83 215q-82 85 -207 85t-207 -85q-83 -85 -83 -215q0 -131 83 -217
q84 -85 207 -85z" />
    <glyph glyph-name="uni25CF" unicode="&#x25cf;" horiz-adv-x="897" 
d="M463 -10q-157 0 -262 107q-105 108 -105 269q0 158 105 265t262 107q155 0 259 -107t104 -265q0 -160 -104 -269q-104 -107 -259 -107z" />
    <glyph glyph-name="uni262E" unicode="&#x262e;" horiz-adv-x="809" 
d="M785 363q0 -166 -104 -272q-103 -105 -264 -105q-160 0 -263 105q-104 106 -104 272t104 270t263 104t263 -104q105 -103 105 -270zM728 363q0 135 -80 224q-79 87 -204 98v-299l258 -160q26 63 26 137zM389 386v299q-125 -11 -203 -98q-80 -89 -80 -224q0 -74 26 -138z
M389 320l-231 -144q38 -59 98 -94.5t133 -41.5v280zM444 320v-280q154 13 232 136z" />
    <glyph glyph-name="uni2639" unicode="&#x2639;" horiz-adv-x="810" 
d="M47 365q0 162 107 267q107 106 264 106t263 -106q108 -106 108 -267q0 -163 -108 -269q-106 -106 -263 -106q-158 0 -264 105q-107 107 -107 270zM103 365q0 -123 77 -214q36 51 100 81t138 30q75 0 139.5 -30t99.5 -81q76 92 76 214q0 137 -92 229t-222 92t-224 -92
q-92 -92 -92 -229zM287 438q0 51 14.5 79t39.5 28q26 0 39.5 -29t13.5 -78q0 -52 -14 -79.5t-39 -27.5q-26 0 -40 29t-14 78zM444 438q0 50 15 78.5t40 28.5q26 0 40 -28.5t14 -78.5q0 -51 -14.5 -79t-39.5 -28q-26 0 -40.5 29t-14.5 78zM219 114q90 -72 200 -72
q109 0 198 72q-25 44 -81 69q-57 26 -117 26q-66 0 -120.5 -26.5t-79.5 -68.5z" />
    <glyph glyph-name="smileface" unicode="&#x263a;" horiz-adv-x="810" 
d="M789 365q0 -163 -108 -269q-106 -106 -263 -106q-158 0 -264 105q-107 107 -107 270q0 162 107 267q107 106 264 106t263 -106q108 -106 108 -267zM419 686q-130 0 -224 -92q-92 -92 -92 -229t92 -231q94 -92 224 -92q131 0 222 93q92 94 92 230q0 137 -92 229t-222 92z
M341 331q-26 0 -40 29t-14 78q0 51 14.5 79t39.5 28q26 0 39.5 -29t13.5 -78q0 -52 -14 -79.5t-39 -27.5zM499 331q-26 0 -40.5 29t-14.5 78q0 50 15 78.5t40 28.5q26 0 40 -28.5t14 -78.5q0 -51 -14.5 -79t-39.5 -28zM577 315v17h106v-17h-25q-13 -86 -82 -139
q-67 -52 -158 -52q-93 0 -160 52q-66 53 -80 139h-23v17h108v-17h-28q10 -63 61.5 -101t122.5 -38q72 0 122.5 38t61.5 101h-26z" />
    <glyph glyph-name="uni2708" unicode="&#x2708;" horiz-adv-x="870" 
d="M145 207h-50l35 159l-35 159h50l69 -108l210 12l-99 276h90l144 -239q15 -23 48 -25l59 4q60 4 109 -21t49 -58q0 -35 -49 -60q-49 -24 -109 -20l-59 4q-35 -2 -48 -24l-144 -240h-90l99 276l-210 14z" />
    <glyph glyph-name="uni2713" unicode="&#x2713;" horiz-adv-x="791" 
d="M300 249l377 359l106 -125l-496 -466l-245 289l117 107z" />
    <glyph glyph-name="uni2714" unicode="&#x2714;" horiz-adv-x="1254" 
d="M1114 735l112 -201q-228 -107 -465 -281q-237 -175 -350 -323q-147 202 -341 375l132 136q136 -110 221 -252q115 155 300 300q187 146 391 246z" />
    <glyph glyph-name="uni2776" unicode="&#x2776;" horiz-adv-x="899" 
d="M465 -9q-163 0 -276 110q-111 111 -111 274q0 161 111 272q112 112 276 112q162 0 273 -112q111 -111 111 -272q0 -163 -111 -274q-112 -110 -273 -110zM446 418v-264h93v423h-85v-1q0 -35 -25.5 -60t-68.5 -25h-32v-73h118z" />
    <glyph glyph-name="uni2777" unicode="&#x2777;" horiz-adv-x="900" 
d="M466 -9q-164 0 -276 111q-111 111 -111 274q0 162 111 273q112 111 276 111q163 0 274 -111t111 -273q0 -163 -111 -274t-274 -111zM326 168v-14h282v81h-115l-53 -3q15 21 44 45l58 46q30 23 50 58t20 72q0 58 -38.5 94.5t-101.5 36.5q-65 0 -109 -38t-45 -100l94 -5
q-2 28 12 45t41 17q24 0 38.5 -13.5t14.5 -37.5q0 -41 -68 -92q-26 -18 -43.5 -33t-38 -39t-31.5 -54.5t-11 -65.5z" />
    <glyph glyph-name="uni2778" unicode="&#x2778;" horiz-adv-x="900" 
d="M465 -9q-162 0 -275 110q-112 111 -112 273t112 274t275 112q161 0 273 -112t112 -274t-112 -273q-112 -110 -273 -110zM466 148q64 0 105 34.5t41 90.5q0 33 -18 60.5t-48 39.5v4q56 26 56 89q0 52 -38 84.5t-101 32.5q-70 0 -109 -36.5t-38 -97.5h93q1 54 51 54
q21 0 34 -11.5t13 -32.5q0 -22 -15.5 -36t-42.5 -14h-28v-80h40q24 0 40.5 -14t16.5 -36t-15.5 -36.5t-39.5 -14.5q-23 0 -37 15t-14 39h-93q-1 -62 39.5 -98t107.5 -36z" />
    <glyph glyph-name="uni2779" unicode="&#x2779;" horiz-adv-x="903" 
d="M467 -9q-163 0 -276 111q-112 111 -112 274q0 162 112 273q113 111 276 111t275 -111t112 -273q0 -163 -112 -274t-275 -111zM483 245v-91h91v91h44v80h-44v252h-138l-139 -258v-74h186zM483 325h-84l84 153v-153z" />
    <glyph glyph-name="uni277A" unicode="&#x277a;" horiz-adv-x="899" 
d="M465 -9q-163 0 -276 110q-111 109 -111 273q0 162 112 274t275 112q161 0 272 -112q112 -112 112 -274t-111 -273q-112 -110 -273 -110zM468 149q71 0 113 40.5t42 107.5q0 63 -37.5 103.5t-97.5 40.5q-50 0 -71 -23l-4 2l2 34v44h181v79h-271v-250h88q12 35 55 35
q27 0 45 -19.5t18 -49.5q0 -28 -18 -46t-44 -18t-42.5 16t-17.5 41h-92q-1 -60 42 -98.5t109 -38.5z" />
    <glyph glyph-name="uni277B" unicode="&#x277b;" horiz-adv-x="930" 
d="M478 -37q-170 0 -285 115q-116 116 -116 283t116 283t285 116q168 0 284 -116t116 -283q0 -168 -117 -284q-115 -114 -283 -114zM475 148q68 0 112 41q44 42 44 107q0 62 -36.5 102.5t-94.5 40.5q-64 0 -90 -43h-3q0 108 69 108q44 0 55 -36h93q-6 52 -46 83.5t-99 31.5
q-80 0 -123.5 -58t-43.5 -163q0 -102 42.5 -158t120.5 -56zM416 293q0 30 17 49.5t44 19.5q28 0 44.5 -18.5t16.5 -49.5q0 -30 -16.5 -48t-44.5 -18t-44.5 18t-16.5 47z" />
    <glyph glyph-name="uni277C" unicode="&#x277c;" horiz-adv-x="903" 
d="M78 374q0 162 112 274t276 112q163 0 275 -112t112 -274t-112 -273q-113 -110 -275 -110q-164 0 -276 111t-112 272zM367 154h98q33 198 156 359v64h-295v-147h70v68h111q-54 -71 -91 -161t-49 -183z" />
    <glyph glyph-name="uni277D" unicode="&#x277d;" horiz-adv-x="900" 
d="M465 -9q-163 0 -275 111t-112 272q0 162 112 274t275 112q161 0 273 -112t112 -274t-112 -273q-113 -110 -273 -110zM464 148q71 0 113.5 31.5t42.5 87.5q0 31 -16.5 57.5t-45.5 38.5v5q29 13 45.5 38.5t16.5 56.5q0 54 -42.5 87t-113.5 33q-70 0 -112.5 -32t-42.5 -88
q0 -31 16.5 -56.5t44.5 -38.5v-5q-28 -13 -44.5 -39t-16.5 -56q0 -55 41.5 -87.5t113.5 -32.5zM464 402q-26 0 -43 14t-17 36t16.5 36.5t43.5 14.5t43.5 -14t16.5 -37q0 -22 -16.5 -36t-43.5 -14zM464 228q-27 0 -43.5 13.5t-16.5 36.5q0 22 16.5 36t43.5 14t43.5 -13.5
t16.5 -36.5q0 -22 -16.5 -36t-43.5 -14z" />
    <glyph glyph-name="uni277E" unicode="&#x277e;" horiz-adv-x="903" 
d="M467 -9q-163 0 -276 110q-112 111 -112 275q0 161 112 272q112 112 276 112q162 0 274 -112q113 -111 113 -272q0 -164 -113 -275q-113 -110 -274 -110zM468 148q80 0 123 58t43 163q0 102 -42.5 158t-120.5 56q-69 0 -112 -41.5t-43 -107.5q0 -62 36.5 -101.5
t94.5 -39.5q64 0 90 41h3q0 -108 -69 -108q-45 0 -55 36h-93q7 -52 46.5 -83t98.5 -31zM471 368q-29 0 -45.5 18.5t-16.5 48.5q0 31 16.5 50t45.5 19q27 0 43 -18.5t16 -48.5t-16 -49.5t-43 -19.5z" />
    <glyph glyph-name="uni2780" unicode="&#x2780;" horiz-adv-x="899" 
d="M465 -9q-163 0 -276 110q-111 111 -111 274q0 161 111 272q112 112 276 112q162 0 273 -112q111 -111 111 -272q0 -163 -111 -274q-112 -110 -273 -110zM465 39q141 0 238 97q98 98 98 239t-97 238q-98 98 -239 98q-143 0 -241 -98q-97 -97 -97 -238q0 -142 97 -239
t241 -97zM446 154v264h-118v73h32q43 0 68.5 24.5t25.5 60.5v1h85v-423h-93z" />
    <glyph glyph-name="uni2781" unicode="&#x2781;" horiz-adv-x="900" 
d="M466 760q163 0 274 -111t111 -273q0 -163 -111 -274t-274 -111q-164 0 -276 111q-111 111 -111 274q0 162 111 273q112 111 276 111zM466 39q141 0 239 98t98 239t-98 239t-239 98q-144 0 -242 -98q-97 -97 -97 -239q0 -143 97 -240t242 -97zM612 453q0 -37 -20 -72
t-50 -58l-58 -46q-29 -24 -44 -45l53 3h115v-81h-282v14q0 88 68 147q14 12 41 33.5t42 34.5t28 32t13 37q0 24 -14.5 37.5t-38.5 13.5q-27 0 -41 -17t-12 -45l-94 5q1 62 45 100t109 38q63 0 101.5 -36.5t38.5 -94.5z" />
    <glyph glyph-name="uni2782" unicode="&#x2782;" horiz-adv-x="900" 
d="M465 -9q-162 0 -275 110q-112 111 -112 273t112 274t275 112q161 0 273 -112t112 -274t-112 -273q-112 -110 -273 -110zM465 39q142 0 239 97q98 98 98 238q0 142 -98 240t-239 98q-144 0 -242 -98q-97 -97 -97 -240q0 -140 98 -238q97 -97 241 -97zM466 148
q-67 0 -107.5 36t-39.5 98h93q0 -24 14 -39t37 -15q24 0 39.5 14.5t15.5 36.5t-16.5 36t-40.5 14h-40v80h28q27 0 42.5 14t15.5 36q0 21 -13 32.5t-34 11.5q-50 0 -51 -54h-93q-1 61 38 97.5t109 36.5q63 0 101 -32.5t38 -84.5q0 -63 -56 -89v-4q30 -12 48 -39.5t18 -60.5
q0 -56 -41 -90.5t-105 -34.5z" />
    <glyph glyph-name="uni2783" unicode="&#x2783;" horiz-adv-x="903" 
d="M79 376q0 162 112 273q113 111 276 111t275 -111t112 -273q0 -163 -112 -274t-275 -111t-276 111q-112 111 -112 274zM226 615q-98 -98 -98 -239q0 -142 98 -240q97 -97 241 -97q143 0 240 97t97 240q0 142 -97 239q-98 98 -240 98q-143 0 -241 -98zM483 245h-186v74
l139 258h138v-252h44v-80h-44v-91h-91v91zM483 478l-84 -153h84v153z" />
    <glyph glyph-name="uni2784" unicode="&#x2784;" horiz-adv-x="899" 
d="M465 -9q-163 0 -276 110q-111 109 -111 273q0 162 112 274t275 112q161 0 272 -112q112 -112 112 -274t-111 -273q-112 -110 -273 -110zM465 39q142 0 239 97t97 238q0 144 -97 241q-98 98 -239 98q-144 0 -242 -98q-97 -97 -97 -241q0 -140 98 -238q97 -97 241 -97z
M468 149q-66 0 -109 38.5t-42 98.5h92q1 -25 17.5 -41t42.5 -16t44 18t18 46q0 30 -18 49.5t-45 19.5q-43 0 -55 -35h-88v250h271v-79h-181v-44l-2 -34l4 -2q21 23 71 23q60 0 97.5 -40.5t37.5 -103.5q0 -67 -42 -107.5t-113 -40.5z" />
    <glyph glyph-name="uni2785" unicode="&#x2785;" horiz-adv-x="930" 
d="M478 760q168 0 284 -116t116 -283q0 -168 -117 -284q-115 -114 -283 -114q-170 0 -285 115q-116 116 -116 283t116 283t285 116zM128 361q0 -146 101 -247t249 -101q147 0 248 101q101 103 101 247q0 146 -101 249q-100 102 -248 102t-249 -102q-101 -103 -101 -249z
M312 362q0 105 43.5 163t123.5 58q59 0 99 -31.5t46 -83.5h-93q-11 36 -55 36q-69 0 -69 -108h3q26 43 90 43q58 0 94.5 -40.5t36.5 -102.5q0 -65 -44 -107q-44 -41 -112 -41q-78 0 -120.5 56t-42.5 158zM416 293q0 -29 16.5 -47t44.5 -18t44.5 18t16.5 48q0 31 -16.5 49.5
t-44.5 18.5q-27 0 -44 -19.5t-17 -49.5z" />
    <glyph glyph-name="uni2786" unicode="&#x2786;" horiz-adv-x="903" 
d="M78 374q0 162 112 274t276 112q163 0 275 -112t112 -274t-112 -273q-113 -110 -275 -110q-164 0 -276 111t-112 272zM466 39q142 0 239 97q98 98 98 238q0 143 -97 240q-98 99 -240 99q-144 0 -241 -99q-98 -98 -98 -240q0 -140 98 -238q97 -97 241 -97zM465 154h-98
q12 93 49 183t91 161h-111v-68h-70v147h295v-64q-123 -161 -156 -359z" />
    <glyph glyph-name="uni2787" unicode="&#x2787;" horiz-adv-x="900" 
d="M465 -9q-163 0 -275 111t-112 272q0 162 112 274t275 112q161 0 273 -112t112 -274t-112 -273q-113 -110 -273 -110zM465 39q140 0 238 98t98 237q0 142 -98 240q-97 99 -238 99q-143 0 -241 -99q-97 -97 -97 -240q0 -141 97 -238t241 -97zM464 148q-72 0 -113.5 32.5
t-41.5 87.5q0 30 16.5 56t44.5 39v5q-28 13 -44.5 38.5t-16.5 56.5q0 56 42.5 88t112.5 32q71 0 113.5 -33t42.5 -87q0 -31 -16.5 -56.5t-45.5 -38.5v-5q29 -12 45.5 -38.5t16.5 -57.5q0 -56 -42.5 -87.5t-113.5 -31.5zM464 402q27 0 43.5 14t16.5 36q0 23 -16.5 37
t-43.5 14t-43.5 -14.5t-16.5 -36.5t17 -36t43 -14zM464 228q27 0 43.5 14t16.5 36q0 23 -16.5 36.5t-43.5 13.5t-43.5 -14t-16.5 -36q0 -23 16.5 -36.5t43.5 -13.5z" />
    <glyph glyph-name="uni2788" unicode="&#x2788;" horiz-adv-x="903" 
d="M467 -9q-163 0 -276 110q-112 111 -112 275q0 161 112 272q112 112 276 112q162 0 274 -112q113 -111 113 -272q0 -164 -113 -275q-113 -110 -274 -110zM804 376q0 141 -97 238q-98 98 -240 98q-144 0 -242 -98q-97 -97 -97 -238q0 -142 98 -240q97 -97 241 -97
q143 0 240 97t97 240zM468 148q-59 0 -98.5 31t-46.5 83h93q10 -36 55 -36q69 0 69 108h-3q-26 -41 -90 -41q-58 0 -94.5 39.5t-36.5 101.5q0 66 43 107.5t112 41.5q78 0 120.5 -56t42.5 -158q0 -105 -43 -163t-123 -58zM471 368q27 0 43 19.5t16 49.5t-16 48.5t-43 18.5
q-29 0 -45.5 -19t-16.5 -50q0 -30 16.5 -48.5t45.5 -18.5z" />
    <glyph glyph-name="uniECE0" unicode="&#xece0;" horiz-adv-x="1103" 
d="M218 309v-247l-104 -78v745h374l-86 -110h-184v-203h129q20 140 122 230q101 91 240 91q91 0 172.5 -45t131.5 -123l-87 -65q-35 57 -95 91t-124 34q-108 0 -181 -79t-73 -185q0 -107 73 -186q74 -80 181 -80q65 0 123.5 33t93.5 92l89 -65q-51 -80 -132 -124.5
t-172 -44.5q-137 0 -240 90q-103 92 -122 229h-129zM599 365q0 -47 30 -82q31 -34 77 -34q30 0 57.5 18t43.5 49l86 -66q-30 -51 -78.5 -79t-106.5 -28q-88 0 -153 65q-64 65 -64 157q0 90 64 154q65 66 153 66q57 0 106 -28.5t79 -79.5l-86 -66q-15 30 -42.5 48t-58.5 18
q-45 0 -76 -33t-31 -79z" />
    <glyph glyph-name="uniEFCC" unicode="&#xefcc;" horiz-adv-x="1231" 
d="M117 361q0 166 100 269q101 104 262 104q20 0 38 -2v-120q-24 3 -37 3q-110 0 -178 -71q-67 -70 -67 -183t67 -183t178 -70q26 0 37 3v-121q-24 -2 -38 -2q-162 0 -262 103t-100 270zM742 366q0 166 96 267q98 101 260 101q20 0 44 -2v-120q-25 3 -40 3q-89 0 -152 -49
t-84 -143h200v-114h-200q21 -94 84 -143t152 -49q30 0 40 3v-121q-26 -2 -44 -2q-163 0 -260 100q-96 101 -96 269z" />
    <glyph glyph-name="uniF8FF" unicode="&#xf8ff;" horiz-adv-x="662" 
d="M441 632q-16 -21 -43 -36.5t-48 -19.5l-18 -3l-1 10q-6 57 31 104q22 29 51 46.5t49 18.5l17 2q-1 -2 1 -19q2 -16 -8.5 -47t-30.5 -56zM223 0q-44 0 -89 53q-45 56 -73 134q-28 80 -28 156q0 104 53 166q54 62 124 62q28 0 70 -17t56 -17q15 0 56 18q42 18 80 18
q51 0 87 -23t49 -45l5 -8q-21 -16 -28 -22q-52 -48 -52 -120q0 -58 29.5 -96t59.5 -53l10 -5q-5 -19 -28 -70q-14 -33 -33 -61q-20 -29 -48 -49t-55 -20q-19 0 -59 14q-37 15 -62 15t-66 -15t-58 -15z" />
    <glyph glyph-name="NULL" 
 />
    <glyph glyph-name="CR.001" horiz-adv-x="333" 
 />
    <glyph glyph-name="uni00A40301" horiz-adv-x="433" 
d="M610 897l-272 -140l-49 88l252 169zM439 729l-69 -492q-34 -246 -289 -246q-63 0 -104 9l23 161q25 -5 56 -5q57 0 83 27t33 81l65 465h202z" />
    <glyph glyph-name="G.ss01" horiz-adv-x="802" 
d="M409 -10q-165 0 -266 98q-100 97 -100 259q0 168 108 279q108 112 273 112q143 0 238 -71q95 -70 109 -187h-217q-13 39 -47.5 61t-82.5 22q-75 0 -120.5 -58t-45.5 -154q0 -89 41.5 -139.5t113.5 -50.5q49 0 87.5 23t52.5 61h-174l22 154h382v-30q0 -172 -103 -275
q-102 -104 -271 -104z" />
    <glyph glyph-name="Gbreve.ss01" horiz-adv-x="802" 
d="M541 945h113q1 -78 -48.5 -126t-129.5 -48q-78 0 -124 47.5t-46 126.5h113q-1 -70 55 -70q29 0 47.5 19t19.5 51zM409 -10q-165 0 -266 98q-100 97 -100 259q0 168 108 279q108 112 273 112q143 0 238 -71q95 -70 109 -187h-217q-13 39 -47.5 61t-82.5 22
q-75 0 -120.5 -58t-45.5 -154q0 -89 41.5 -139.5t113.5 -50.5q49 0 87.5 23t52.5 61h-174l22 154h382v-30q0 -172 -103 -275q-102 -104 -271 -104z" />
    <glyph glyph-name="uni0122.ss01" horiz-adv-x="802" 
d="M409 -10q-165 0 -266 98q-100 97 -100 259q0 168 108 279q108 112 273 112q143 0 238 -71q95 -70 109 -187h-217q-13 39 -47.5 61t-82.5 22q-75 0 -120.5 -58t-45.5 -154q0 -89 41.5 -139.5t113.5 -50.5q49 0 87.5 23t52.5 61h-174l22 154h382v-30q0 -172 -103 -275
q-102 -104 -271 -104zM247 -323l7 52q56 0 64 50l4 25h-67l21 147h146l-23 -158q-17 -116 -152 -116z" />
    <glyph glyph-name="Gdotaccent.ss01" horiz-adv-x="802" 
d="M534 772h-142l23 163h142zM409 -10q-165 0 -266 98q-100 97 -100 259q0 168 108 279q108 112 273 112q143 0 238 -71q95 -70 109 -187h-217q-13 39 -47.5 61t-82.5 22q-75 0 -120.5 -58t-45.5 -154q0 -89 41.5 -139.5t113.5 -50.5q49 0 87.5 23t52.5 61h-174l22 154h382
v-30q0 -172 -103 -275q-102 -104 -271 -104z" />
    <glyph glyph-name="R.ss02" horiz-adv-x="723" 
d="M228 0h-203l102 729h351q114 0 177.5 -55.5t63.5 -152.5q0 -82 -44 -153q-43 -69 -113 -95l-1 -8q23 -9 37 -34t27 -74l42 -157h-222l-47 163q-10 36 -28 48.5t-63 12.5h-48zM305 549l-23 -162h108q52 0 81.5 25.5t29.5 69.5q0 67 -88 67h-108z" />
    <glyph glyph-name="Racute.ss02" horiz-adv-x="723" 
d="M711 897l-272 -140l-49 88l252 169zM228 0h-203l102 729h351q114 0 177.5 -55.5t63.5 -152.5q0 -82 -44 -153q-43 -69 -113 -95l-1 -8q23 -9 37 -34t27 -74l42 -157h-222l-47 163q-10 36 -28 48.5t-63 12.5h-48zM305 549l-23 -162h108q52 0 81.5 25.5t29.5 69.5
q0 67 -88 67h-108z" />
    <glyph glyph-name="Rcaron.ss02" horiz-adv-x="723" 
d="M395 780l-132 147l95 87l98 -125l132 125l83 -87l-173 -147h-103zM228 0h-203l102 729h351q114 0 177.5 -55.5t63.5 -152.5q0 -82 -44 -153q-43 -69 -113 -95l-1 -8q23 -9 37 -34t27 -74l42 -157h-222l-47 163q-10 36 -28 48.5t-63 12.5h-48zM305 549l-23 -162h108
q52 0 81.5 25.5t29.5 69.5q0 67 -88 67h-108z" />
    <glyph glyph-name="uni0156.ss02" horiz-adv-x="723" 
d="M228 0h-203l102 729h351q114 0 177.5 -55.5t63.5 -152.5q0 -82 -44 -153q-43 -69 -113 -95l-1 -8q23 -9 37 -34t27 -74l42 -157h-222l-47 163q-10 36 -28 48.5t-63 12.5h-48zM305 549l-23 -162h108q52 0 81.5 25.5t29.5 69.5q0 67 -88 67h-108zM229 -323l7 52q56 0 64 50
l4 25h-67l21 147h146l-23 -158q-17 -116 -152 -116z" />
    <glyph glyph-name="i.loclTRK" horiz-adv-x="285" 
d="M285 587h-191l31 163h191zM200 0h-191l76 544h191z" />
    <glyph glyph-name="uni006A0301" horiz-adv-x="284" 
d="M453 712l-272 -140l-49 88l252 169zM-29 -177q-56 0 -86 6l21 144q14 -3 30 -3q69 0 79 75l70 499h190l-76 -537q-14 -96 -70 -140t-158 -44z" />
    <glyph glyph-name="germandbls.alt01" horiz-adv-x="708" 
d="M229 0h-204l66 472q18 125 103 195q86 71 210 71q97 0 166 -45.5t97 -124.5l-101 -136q54 -19 83 -62.5t29 -103.5q0 -119 -89 -193q-88 -73 -234 -73h-63l24 173h22q134 0 134 97q0 41 -38.5 55.5t-116.5 8.5l146 210q-32 29 -79 29q-31 0 -56 -24t-30 -57z" />
    <glyph glyph-name="a.ss01" horiz-adv-x="664" 
d="M490 544h165l-76 -544h-191l14 97h-10q-57 -107 -179 -107q-91 0 -142 66t-51 180q0 142 68 230q69 88 181 88q63 0 109 -30t62 -81h10zM425 263l2 17q7 55 -18 88t-72 33q-53 0 -86 -41t-33 -106q0 -53 23.5 -82t65.5 -29q46 0 78.5 33t39.5 87z" />
    <glyph glyph-name="aacute.ss01" horiz-adv-x="664" 
d="M607 712l-272 -140l-49 88l252 169zM490 544h165l-76 -544h-191l14 97h-10q-57 -107 -179 -107q-91 0 -142 66t-51 180q0 142 68 230q69 88 181 88q63 0 109 -30t62 -81h10zM425 263l2 17q7 55 -18 88t-72 33q-53 0 -86 -41t-33 -106q0 -53 23.5 -82t65.5 -29
q46 0 78.5 33t39.5 87z" />
    <glyph glyph-name="abreve.ss01" horiz-adv-x="664" 
d="M419 760h113q1 -78 -48.5 -126t-129.5 -48q-78 0 -124 47.5t-46 126.5h113q-1 -70 55 -70q29 0 47.5 19t19.5 51zM490 544h165l-76 -544h-191l14 97h-10q-57 -107 -179 -107q-91 0 -142 66t-51 180q0 142 68 230q69 88 181 88q63 0 109 -30t62 -81h10zM425 263l2 17
q7 55 -18 88t-72 33q-53 0 -86 -41t-33 -106q0 -53 23.5 -82t65.5 -29q46 0 78.5 33t39.5 87z" />
    <glyph glyph-name="acircumflex.ss01" horiz-adv-x="664" 
d="M231 576l-83 88l172 145h104l132 -145l-95 -88l-98 124zM490 544h165l-76 -544h-191l14 97h-10q-57 -107 -179 -107q-91 0 -142 66t-51 180q0 142 68 230q69 88 181 88q63 0 109 -30t62 -81h10zM425 263l2 17q7 55 -18 88t-72 33q-53 0 -86 -41t-33 -106q0 -53 23.5 -82
t65.5 -29q46 0 78.5 33t39.5 87z" />
    <glyph glyph-name="adieresis.ss01" horiz-adv-x="664" 
d="M301 587h-142l23 163h142zM522 587h-142l23 163h142zM490 544h165l-76 -544h-191l14 97h-10q-57 -107 -179 -107q-91 0 -142 66t-51 180q0 142 68 230q69 88 181 88q63 0 109 -30t62 -81h10zM425 263l2 17q7 55 -18 88t-72 33q-53 0 -86 -41t-33 -106q0 -53 23.5 -82
t65.5 -29q46 0 78.5 33t39.5 87z" />
    <glyph glyph-name="agrave.ss01" horiz-adv-x="664" 
d="M407 668l-68 -91l-232 140l93 124zM490 544h165l-76 -544h-191l14 97h-10q-57 -107 -179 -107q-91 0 -142 66t-51 180q0 142 68 230q69 88 181 88q63 0 109 -30t62 -81h10zM425 263l2 17q7 55 -18 88t-72 33q-53 0 -86 -41t-33 -106q0 -53 23.5 -82t65.5 -29
q46 0 78.5 33t39.5 87z" />
    <glyph glyph-name="amacron.ss01" horiz-adv-x="664" 
d="M534 590h-387l20 143h387zM490 544h165l-76 -544h-191l14 97h-10q-57 -107 -179 -107q-91 0 -142 66t-51 180q0 142 68 230q69 88 181 88q63 0 109 -30t62 -81h10zM425 263l2 17q7 55 -18 88t-72 33q-53 0 -86 -41t-33 -106q0 -53 23.5 -82t65.5 -29q46 0 78.5 33
t39.5 87z" />
    <glyph glyph-name="aogonek.ss01" horiz-adv-x="664" 
d="M579 0h-33q-97 -16 -97 -69q0 -16 13.5 -25.5t35.5 -9.5q30 0 57 15l-12 -82q-36 -15 -75 -15q-54 0 -87 27.5t-33 72.5q0 59 41 94l13 89h-10q-57 -107 -179 -107q-91 0 -142 66t-51 180q0 142 68 230q69 88 181 88q63 0 109 -30t62 -81h10l40 101h165zM307 143
q46 0 78.5 33t39.5 87l2 17q7 55 -18 88t-72 33q-53 0 -86 -41t-33 -106q0 -53 23.5 -82t65.5 -29z" />
    <glyph glyph-name="aring.ss01" horiz-adv-x="664" 
d="M450 443l40 101h165l-76 -544h-191l14 97h-10q-57 -107 -179 -107q-91 0 -142 66t-51 180q0 125 52 208q53 84 142 104q-17 29 -17 66q0 64 41.5 103t109.5 39q58 0 93 -33t35 -87q0 -93 -77 -128q29 -26 41 -65h10zM342 668q-20 0 -32.5 -13.5t-12.5 -35.5
q0 -16 9.5 -26t24.5 -10q21 0 33.5 13t12.5 35q0 17 -9.5 27t-25.5 10zM425 263l2 17q7 55 -18 88t-72 33q-53 0 -86 -41t-33 -106q0 -53 23.5 -82t65.5 -29q46 0 78.5 33t39.5 87z" />
    <glyph glyph-name="atilde.ss01" horiz-adv-x="664" 
d="M404 585q-28 2 -61 20q-35 20 -57 20q-30 0 -70 -39l-67 50q31 61 72 89.5t83 27.5q29 -2 60 -20q34 -18 59 -18q34 0 62 33l5 7l69 -47q-29 -61 -70 -92.5t-85 -30.5zM490 544h165l-76 -544h-191l14 97h-10q-57 -107 -179 -107q-91 0 -142 66t-51 180q0 142 68 230
q69 88 181 88q63 0 109 -30t62 -81h10zM425 263l2 17q7 55 -18 88t-72 33q-53 0 -86 -41t-33 -106q0 -53 23.5 -82t65.5 -29q46 0 78.5 33t39.5 87z" />
    <glyph glyph-name="g.ss01" horiz-adv-x="649" 
d="M2 4h191q5 -21 28 -34t56 -13q41 0 69 20.5t33 55.5l13 92h-9q-24 -45 -68.5 -69.5t-101.5 -24.5q-88 0 -139.5 61t-51.5 167q0 127 69 211t177 84q63 0 110 -30.5t63 -80.5h10l26 101h163l-67 -488q-15 -113 -93 -173t-203 -60q-112 0 -189 50q-76 50 -86 131zM309 177
q42 0 70.5 24t33.5 66l1 8q7 54 -17.5 87t-70.5 33q-48 0 -78.5 -33t-30.5 -87q0 -44 25.5 -71t66.5 -27z" />
    <glyph glyph-name="gbreve.ss01" horiz-adv-x="649" 
d="M384 760h113q1 -78 -48.5 -126t-129.5 -48q-78 0 -124 47.5t-46 126.5h113q-1 -70 55 -70q29 0 47.5 19t19.5 51zM2 4h191q5 -21 28 -34t56 -13q41 0 69 20.5t33 55.5l13 92h-9q-24 -45 -68.5 -69.5t-101.5 -24.5q-88 0 -139.5 61t-51.5 167q0 127 69 211t177 84
q63 0 110 -30.5t63 -80.5h10l26 101h163l-67 -488q-15 -113 -93 -173t-203 -60q-112 0 -189 50q-76 50 -86 131zM309 177q42 0 70.5 24t33.5 66l1 8q7 54 -17.5 87t-70.5 33q-48 0 -78.5 -33t-30.5 -87q0 -44 25.5 -71t66.5 -27z" />
    <glyph glyph-name="uni0123.ss01" horiz-adv-x="649" 
d="M410 880l-7 -52q-56 0 -64 -50l-5 -35h67l-21 -147h-146l24 168q17 116 152 116zM2 4h191q5 -21 28 -34t56 -13q41 0 69 20.5t33 55.5l13 92h-9q-24 -45 -68.5 -69.5t-101.5 -24.5q-88 0 -139.5 61t-51.5 167q0 127 69 211t177 84q63 0 110 -30.5t63 -80.5h10l26 101h163
l-67 -488q-15 -113 -93 -173t-203 -60q-112 0 -189 50q-76 50 -86 131zM309 177q42 0 70.5 24t33.5 66l1 8q7 54 -17.5 87t-70.5 33q-48 0 -78.5 -33t-30.5 -87q0 -44 25.5 -71t66.5 -27z" />
    <glyph glyph-name="gdotaccent.ss01" horiz-adv-x="649" 
d="M377 587h-142l23 163h142zM2 4h191q5 -21 28 -34t56 -13q41 0 69 20.5t33 55.5l13 92h-9q-24 -45 -68.5 -69.5t-101.5 -24.5q-88 0 -139.5 61t-51.5 167q0 127 69 211t177 84q63 0 110 -30.5t63 -80.5h10l26 101h163l-67 -488q-15 -113 -93 -173t-203 -60q-112 0 -189 50
q-76 50 -86 131zM309 177q42 0 70.5 24t33.5 66l1 8q7 54 -17.5 87t-70.5 33q-48 0 -78.5 -33t-30.5 -87q0 -44 25.5 -71t66.5 -27z" />
    <glyph glyph-name="a.ss02" horiz-adv-x="570" 
d="M-3 134q0 86 61 140q62 54 162 54h133l3 22q4 28 -12 45t-46 17t-50 -13.5t-24 -36.5h-185q13 90 84.5 141t180.5 51q129 0 191 -67t46 -190l-42 -297h-165l-8 88h-10q-48 -98 -167 -98q-68 0 -110 39.5t-42 104.5zM194 170q0 -39 53 -39q38 0 62 21t28 55l1 9h-83
q-28 0 -44.5 -12.5t-16.5 -33.5z" />
    <glyph glyph-name="aacute.ss02" horiz-adv-x="570" 
d="M598 712l-272 -140l-49 88l252 169zM-3 134q0 86 61 140q62 54 162 54h133l3 22q4 28 -12 45t-46 17t-50 -13.5t-24 -36.5h-185q13 90 84.5 141t180.5 51q129 0 191 -67t46 -190l-42 -297h-165l-8 88h-10q-48 -98 -167 -98q-68 0 -110 39.5t-42 104.5zM194 170
q0 -39 53 -39q38 0 62 21t28 55l1 9h-83q-28 0 -44.5 -12.5t-16.5 -33.5z" />
    <glyph glyph-name="abreve.ss02" horiz-adv-x="570" 
d="M410 760h113q1 -78 -48.5 -126t-129.5 -48q-78 0 -124 47.5t-46 126.5h113q-1 -70 55 -70q29 0 47.5 19t19.5 51zM-3 134q0 86 61 140q62 54 162 54h133l3 22q4 28 -12 45t-46 17t-50 -13.5t-24 -36.5h-185q13 90 84.5 141t180.5 51q129 0 191 -67t46 -190l-42 -297h-165
l-8 88h-10q-48 -98 -167 -98q-68 0 -110 39.5t-42 104.5zM194 170q0 -39 53 -39q38 0 62 21t28 55l1 9h-83q-28 0 -44.5 -12.5t-16.5 -33.5z" />
    <glyph glyph-name="acircumflex.ss02" horiz-adv-x="570" 
d="M222 576l-83 88l172 145h104l132 -145l-95 -88l-98 124zM-3 134q0 86 61 140q62 54 162 54h133l3 22q4 28 -12 45t-46 17t-50 -13.5t-24 -36.5h-185q13 90 84.5 141t180.5 51q129 0 191 -67t46 -190l-42 -297h-165l-8 88h-10q-48 -98 -167 -98q-68 0 -110 39.5t-42 104.5
zM194 170q0 -39 53 -39q38 0 62 21t28 55l1 9h-83q-28 0 -44.5 -12.5t-16.5 -33.5z" />
    <glyph glyph-name="adieresis.ss02" horiz-adv-x="570" 
d="M292 587h-142l23 163h142zM513 587h-142l23 163h142zM-3 134q0 86 61 140q62 54 162 54h133l3 22q4 28 -12 45t-46 17t-50 -13.5t-24 -36.5h-185q13 90 84.5 141t180.5 51q129 0 191 -67t46 -190l-42 -297h-165l-8 88h-10q-48 -98 -167 -98q-68 0 -110 39.5t-42 104.5z
M194 170q0 -39 53 -39q38 0 62 21t28 55l1 9h-83q-28 0 -44.5 -12.5t-16.5 -33.5z" />
    <glyph glyph-name="agrave.ss02" horiz-adv-x="570" 
d="M398 668l-68 -91l-232 140l93 124zM-3 134q0 86 61 140q62 54 162 54h133l3 22q4 28 -12 45t-46 17t-50 -13.5t-24 -36.5h-185q13 90 84.5 141t180.5 51q129 0 191 -67t46 -190l-42 -297h-165l-8 88h-10q-48 -98 -167 -98q-68 0 -110 39.5t-42 104.5zM194 170
q0 -39 53 -39q38 0 62 21t28 55l1 9h-83q-28 0 -44.5 -12.5t-16.5 -33.5z" />
    <glyph glyph-name="amacron.ss02" horiz-adv-x="570" 
d="M525 590h-387l20 143h387zM-3 134q0 86 61 140q62 54 162 54h133l3 22q4 28 -12 45t-46 17t-50 -13.5t-24 -36.5h-185q13 90 84.5 141t180.5 51q129 0 191 -67t46 -190l-42 -297h-165l-8 88h-10q-48 -98 -167 -98q-68 0 -110 39.5t-42 104.5zM194 170q0 -39 53 -39
q38 0 62 21t28 55l1 9h-83q-28 0 -44.5 -12.5t-16.5 -33.5z" />
    <glyph glyph-name="aogonek.ss02" horiz-adv-x="570" 
d="M304 554q129 0 191 -67t46 -190l-42 -297h-11q-97 -16 -97 -69q0 -16 13.5 -25.5t35.5 -9.5q30 0 57 15l-12 -82q-36 -15 -75 -15q-54 0 -87 27.5t-33 72.5q0 59 43 96l-7 78h-10q-48 -98 -167 -98q-68 0 -110 39.5t-42 104.5q0 86 61 140q62 54 162 54h133l3 22
q4 28 -12 45t-46 17t-50 -13.5t-24 -36.5h-185q13 90 84.5 141t180.5 51zM247 131q38 0 62 21t28 55l1 9h-83q-28 0 -44.5 -12.5t-16.5 -33.5q0 -39 53 -39z" />
    <glyph glyph-name="aring.ss02" horiz-adv-x="570" 
d="M447 523q116 -61 94 -226l-42 -297h-165l-8 88h-10q-48 -98 -167 -98q-68 0 -110 39.5t-42 104.5q0 86 61 140q62 54 162 54h133l3 22q4 28 -12 45t-46 17t-50 -13.5t-24 -36.5h-185q10 69 54 115.5t116 64.5q-10 21 -10 52q0 64 41.5 103t109.5 39q58 0 93 -33t35 -87
q0 -56 -31 -93zM344 648q-20 0 -32.5 -13.5t-12.5 -35.5q0 -16 9.5 -26t24.5 -10q21 0 33.5 13t12.5 35q0 17 -9.5 27t-25.5 10zM337 207l1 9h-83q-28 0 -44.5 -12.5t-16.5 -33.5q0 -39 53 -39q38 0 62 21t28 55z" />
    <glyph glyph-name="atilde.ss02" horiz-adv-x="570" 
d="M395 585q-28 2 -61 20q-35 20 -57 20q-29 0 -70 -39l-67 50q31 61 72 89.5t83 27.5q29 -2 60 -20q34 -18 59 -18q34 0 62 33l5 7l69 -47q-29 -61 -70 -92.5t-85 -30.5zM-3 134q0 86 61 140q62 54 162 54h133l3 22q4 28 -12 45t-46 17t-50 -13.5t-24 -36.5h-185
q13 90 84.5 141t180.5 51q129 0 191 -67t46 -190l-42 -297h-165l-8 88h-10q-48 -98 -167 -98q-68 0 -110 39.5t-42 104.5zM194 170q0 -39 53 -39q38 0 62 21t28 55l1 9h-83q-28 0 -44.5 -12.5t-16.5 -33.5z" />
    <glyph glyph-name="h_t_t_p" horiz-adv-x="1995" 
d="M1119 -187h-1093l134 957h104l-56 -399h9q54 93 166 93q79 0 111.5 -52.5t19.5 -147.5l-33 -240h-165l31 224q6 39 -11 61.5t-50 22.5q-39 0 -65 -26t-32 -71l-46 -329h989zM264 770h1710l-134 -957h-676l72 512h-129l-24 -173h84l-18 -128h-112q-71 0 -100.5 31.5
t-18.5 106.5l23 163h-160l-24 -173h85l-18 -128h-113q-70 0 -99.5 31.5t-18.5 106.5l23 163h-79l18 130h79l20 139h165l-20 -139h160l20 139h166l-20 -139h272l10 -87h9q24 46 67.5 71t95.5 25q74 0 116 -48t42 -130q0 -115 -63 -193q-63 -77 -157 -77q-115 0 -138 92h-9
l-28 -202h407l108 770h-1606zM1390 248l-2 -15q-5 -35 16 -60t60 -25q44 0 74.5 31t30.5 77q0 34 -21 55.5t-56 21.5q-38 0 -67.5 -25t-34.5 -60z" />
    <glyph glyph-name="w_w_w" horiz-adv-x="2010" 
d="M309 0h-201l-67 544h183l10 -190l5 -180h6l105 370h173l-3 -373h5l123 373h183l14 -370h6l106 370h173l-3 -373h5l123 373h183l14 -370h6l106 370h173l-3 -373h5l54 181l69 192h183l-224 -544h-201l-2 300h-6l-89 -300h-201l-17 259l-91 -259h-201l-2 300h-6l-89 -300
h-201l-18 255l-89 -255h-201l-3 300h-6z" />
    <glyph glyph-name="g_g.ss01" horiz-adv-x="1298" 
d="M2 4h191q5 -21 28 -34t56 -13q41 0 69 20.5t33 55.5l13 92h-9q-24 -45 -68.5 -69.5t-101.5 -24.5q-88 0 -139.5 61t-51.5 167q0 127 69 211t177 84q63 0 110 -30.5t63 -80.5h10l26 101h163l-67 -488q-15 -113 -93 -173t-203 -60q-112 0 -189 50q-76 50 -86 131zM651 4
h191q5 -21 28 -34t56 -13q41 0 69 20.5t33 55.5l13 92h-9q-24 -45 -68.5 -69.5t-101.5 -24.5q-88 0 -139.5 61t-51.5 167q0 127 69 211t177 84q63 0 110 -30.5t63 -80.5h10l26 101h163l-67 -488q-15 -113 -93 -173t-203 -60q-112 0 -189 50q-76 50 -86 131zM309 177
q42 0 70.5 24t33.5 66l1 8q7 54 -17.5 87t-70.5 33q-48 0 -78.5 -33t-30.5 -87q0 -44 25.5 -71t66.5 -27zM958 177q42 0 70.5 24t33.5 66l1 8q7 54 -17.5 87t-70.5 33q-48 0 -78.5 -33t-30.5 -87q0 -44 25.5 -71t66.5 -27z" />
    <glyph glyph-name="zero.ss01" horiz-adv-x="641" 
d="M296 -9q-120 0 -187 85q-68 86 -68 231q0 182 95 303q96 120 241 120q121 0 188 -85q69 -85 69 -230q0 -183 -96 -304q-96 -120 -242 -120zM309 158q55 0 89 76q35 78 35 195q0 134 -67 134q-54 0 -88 -76q-34 -75 -34 -194q0 -135 65 -135zM390 309h-115l14 104h115z
" />
    <glyph glyph-name="zero.tf" horiz-adv-x="600" 
d="M351 730q121 0 188 -85q69 -85 69 -230q0 -183 -96 -304q-96 -120 -242 -120q-120 0 -187 85q-68 86 -68 231q0 182 95 303q96 120 241 120zM340 563q-41 0 -71.5 -46t-43.5 -125l176 106q-14 65 -61 65zM283 158q41 0 72 46t44 124l-175 -105q14 -65 59 -65z" />
    <glyph glyph-name="one.tf" horiz-adv-x="600" 
d="M464 721l-77 -550h174l-24 -171h-555l24 171h186l38 272h-189l21 148h32q70 0 121.5 36t65.5 94h183z" />
    <glyph glyph-name="two.tf" horiz-adv-x="600" 
d="M313 168l34 2h214l-24 -170h-529l3 24q11 79 43 139q30 56 67.5 90.5t97.5 73.5q52 34 87 53q90 48 90 116q0 32 -18.5 50t-49.5 18q-36 0 -56.5 -24.5t-16.5 -63.5h-187q4 113 80 184q74 70 194 70q119 0 189 -60.5t70 -165.5q0 -109 -75 -179q-37 -34 -69 -56
q-22 -15 -78 -52q-45 -30 -66 -49z" />
    <glyph glyph-name="three.tf" horiz-adv-x="600" 
d="M276 -10q-115 0 -188 62q-71 63 -71 166h196q3 -29 23.5 -45t51.5 -16q38 0 62 19t24 53q0 62 -77 62h-89l21 151h68q45 0 71 19t26 50q0 25 -17 39t-47 14q-35 0 -58 -17.5t-22 -42.5h-196q5 103 87 164q83 62 209 62q112 0 180 -51t68 -135q0 -63 -30.5 -107t-85.5 -65
l-1 -7q89 -35 89 -146q0 -103 -81 -166t-213 -63z" />
    <glyph glyph-name="four.tf" horiz-adv-x="600" 
d="M578 721l-61 -432h84l-22 -158h-84l-18 -131h-195l18 131h-317l20 143l290 447h285zM355 525l-153 -236h120z" />
    <glyph glyph-name="five.tf" horiz-adv-x="600" 
d="M361 490q99 0 161 -62t62 -161q0 -124 -83 -201q-82 -76 -216 -76q-119 0 -193 66q-75 67 -76 173h197q1 -32 22.5 -51t55.5 -19q42 0 68 26.5t26 66.5q0 36 -21.5 56.5t-57.5 20.5q-30 0 -53.5 -15t-31.5 -39h-186l84 446h470l-24 -169h-297l-16 -83l7 -3q41 24 102 24z
" />
    <glyph glyph-name="six.tf" horiz-adv-x="600" 
d="M292 -9q-130 0 -200 86t-70 242q0 185 93 298t245 113q103 0 171 -55q71 -56 81 -145h-193q-7 17 -26 28t-44 11q-45 0 -74 -34.5t-34 -94.5h8q43 54 131 54q90 0 145 -61q55 -59 55 -160q0 -125 -81 -204q-79 -78 -207 -78zM294 159q39 0 64.5 28.5t25.5 70.5
q0 36 -19 58t-52 22q-39 0 -64.5 -28.5t-25.5 -71.5q0 -36 19 -57.5t52 -21.5z" />
    <glyph glyph-name="seven.tf" horiz-adv-x="600" 
d="M203 442h-154l39 279h548l-20 -142q-116 -129 -209 -282q-96 -158 -136 -297h-209q38 136 123 282q84 144 196 270h-163z" />
    <glyph glyph-name="eight.tf" horiz-adv-x="600" 
d="M1 183q0 62 34.5 112t90.5 70l1 8q-80 44 -80 136q0 97 85 158q86 63 220 63q121 0 191.5 -51.5t70.5 -141.5q0 -64 -34.5 -114t-90.5 -66l-1 -8q38 -18 58.5 -54.5t20.5 -81.5q0 -100 -83 -162q-82 -61 -220 -61q-118 0 -191 53q-72 53 -72 140zM245 496q0 -26 20 -41
t55 -15q39 0 63.5 19t24.5 49q0 26 -20 41t-54 15q-39 0 -64 -19t-25 -49zM206 213q0 -26 20 -41t53 -15q39 0 64.5 20t25.5 50q0 26 -20 41t-53 15q-39 0 -64.5 -20t-25.5 -50z" />
    <glyph glyph-name="nine.tf" horiz-adv-x="600" 
d="M260 -9q-102 0 -172 55q-70 56 -80 145h193q7 -17 26 -28t44 -11q45 0 74 34.5t34 94.5h-8q-43 -54 -131 -54q-90 0 -145 60q-55 61 -55 161q0 125 80 203q80 79 208 79q130 0 200 -86t70 -242q0 -187 -89 -300q-89 -111 -249 -111zM307 383q39 0 64.5 28.5t25.5 71.5
q0 36 -19 57.5t-52 21.5q-39 0 -64.5 -28.5t-25.5 -70.5q0 -36 19 -58t52 -22z" />
    <glyph glyph-name="zero.tf.ss01" horiz-adv-x="597" 
d="M351 730q121 0 188 -85q69 -85 69 -230q0 -183 -96 -304q-96 -120 -242 -120q-120 0 -187 85q-68 86 -68 231q0 182 95 303q96 120 241 120zM340 563q-35 0 -62.5 -33.5t-43.5 -93.5h173q-1 127 -67 127zM283 158q35 0 63 33.5t44 93.5h-172q1 -127 65 -127z" />
    <glyph glyph-name="zero.dnom" horiz-adv-x="418" 
d="M169 -4q-76 0 -115 47.5t-39 133.5q0 137 62 223t162 86q77 0 116 -48t39 -134q0 -136 -63 -222q-62 -86 -162 -86zM182 96q41 0 66.5 58.5t25.5 153.5q0 79 -48 79q-41 0 -66 -58.5t-25 -152.5q0 -80 47 -80z" />
    <glyph glyph-name="one.dnom" horiz-adv-x="317" 
d="M150 301h-125l13 93h45q44 0 69.5 22.5t25.5 60.5v3h113l-67 -480h-116z" />
    <glyph glyph-name="two.dnom" horiz-adv-x="382" 
d="M145 97l52 3h124l-14 -100h-320l2 16q6 53 34 98.5t67 74.5q16 12 52 38t53 39.5t33 36t16 44.5q0 20 -12.5 30.5t-31.5 10.5q-26 0 -42 -18t-19 -48l-115 6q12 71 66 114.5t131 43.5q67 0 104 -33t37 -91q0 -49 -24.5 -92t-59.5 -69l-74 -53q-42 -31 -59 -51z" />
    <glyph glyph-name="three.dnom" horiz-adv-x="372" 
d="M152 -7q-75 0 -115.5 42t-30.5 109h115q-2 -21 10 -35.5t33 -14.5q24 0 41 17t17 40q0 18 -13 29.5t-34 11.5h-45l14 104h30q29 0 47 15.5t18 40.5q0 34 -39 34q-23 0 -38 -14t-17 -36h-116q9 69 59.5 109.5t129.5 40.5q66 0 103.5 -29.5t37.5 -80.5q0 -41 -20.5 -73
t-57.5 -48l-1 -5q59 -26 59 -94q0 -70 -54 -117q-52 -46 -133 -46z" />
    <glyph glyph-name="four.dnom" horiz-adv-x="364" 
d="M358 480l-42 -298h45l-14 -101h-45l-11 -81h-114l11 81h-206l13 93l192 306h171zM225 346l-101 -164h78z" />
    <glyph glyph-name="five.dnom" horiz-adv-x="400" 
d="M15 151h117q-4 -26 11.5 -41.5t40.5 -15.5q28 0 48.5 23t20.5 54q0 25 -15 40.5t-38 15.5q-45 0 -61 -37h-110l41 290h311l-14 -100h-197l-5 -39l-8 -34l4 -3q26 22 78 22q60 0 96 -37t36 -98q0 -87 -58 -142q-58 -56 -145 -56q-78 0 -120 43.5t-33 114.5z" />
    <glyph glyph-name="six.dnom" horiz-adv-x="407" 
d="M11 175q0 138 64 224q64 87 166 87q68 0 108.5 -36t39.5 -97h-116q-2 15 -15.5 24.5t-34.5 9.5q-71 0 -84 -103h5q35 41 102 41q58 0 92 -35.5t34 -94.5q0 -85 -59 -144q-59 -57 -145 -57q-75 0 -116 47t-41 134zM133 148q0 -25 14.5 -39.5t38.5 -14.5q30 0 50.5 23.5
t20.5 59.5q0 24 -14 39t-38 15q-31 0 -51.5 -24t-20.5 -59z" />
    <glyph glyph-name="seven.dnom" horiz-adv-x="345" 
d="M35 480h337l-12 -83q-80 -80 -141 -184q-61 -105 -93 -213h-114q23 99 76 197q57 104 131 183h-110l-11 -75h-88z" />
    <glyph glyph-name="eight.dnom" horiz-adv-x="386" 
d="M-5 110q0 43 22.5 77t62.5 50v6q-54 24 -54 89q0 70 55 112t145 42q74 0 115 -30.5t41 -84.5q0 -42 -23 -77.5t-60 -50.5v-6q52 -24 52 -85q0 -72 -54 -115.5t-144 -43.5q-75 0 -116.5 31.5t-41.5 85.5zM144 329q0 -19 14 -30t38 -11q28 0 46.5 16t18.5 40
q0 19 -14.5 30.5t-37.5 11.5q-28 0 -46.5 -16t-18.5 -41zM117 134q0 -19 13.5 -30.5t37.5 -11.5q28 0 47 16.5t19 41.5q0 20 -14 31.5t-38 11.5q-28 0 -46.5 -17t-18.5 -42z" />
    <glyph glyph-name="nine.dnom" horiz-adv-x="407" 
d="M388 306q0 -140 -64 -226q-65 -86 -166 -86q-69 0 -108.5 36.5t-38.5 96.5h115q8 -33 51 -33q69 0 83 102h-5q-33 -41 -100 -41q-59 0 -93.5 35.5t-34.5 94.5q0 86 58 143q58 58 146 58q76 0 116.5 -46t40.5 -134zM265 334q0 25 -13 39t-36 14q-31 0 -52 -24t-21 -59
q0 -25 14 -40t39 -15q30 0 49.5 24t19.5 61z" />
    <glyph glyph-name="zero.numr" horiz-adv-x="417" 
d="M204 251q-76 0 -115 47.5t-39 133.5q0 134 62 219q62 84 162 84q76 0 115.5 -47.5t39.5 -132.5q0 -134 -63 -220q-62 -84 -162 -84zM217 350q41 0 66.5 57.5t25.5 149.5q0 79 -48 79q-41 0 -66 -56.5t-25 -149.5q0 -80 47 -80z" />
    <glyph glyph-name="one.numr" horiz-adv-x="317" 
d="M185 552h-125l13 92h45q43 0 69 22t26 60v3h113l-67 -473h-116z" />
    <glyph glyph-name="two.numr" horiz-adv-x="383" 
d="M181 351l52 3h124l-14 -99h-320l2 17q6 47 28 86t49.5 63.5t59 47.5t57.5 40t43 40t17 48q0 19 -12 29.5t-32 10.5q-25 0 -41.5 -17.5t-18.5 -47.5l-116 6q13 71 66.5 114t130.5 43q67 0 104.5 -33t37.5 -89q0 -48 -24.5 -91t-59.5 -68l-74 -53q-41 -29 -59 -50z" />
    <glyph glyph-name="three.numr" horiz-adv-x="371" 
d="M187 248q-76 0 -116 41.5t-30 107.5h115q-2 -20 10 -34.5t33 -14.5q24 0 41 16.5t17 39.5q0 18 -13 29t-34 11h-45l14 103h30q29 0 46.5 15t17.5 40q0 33 -39 33q-22 0 -37 -13.5t-17 -35.5h-116q8 68 59 108.5t130 40.5q65 0 103 -30t38 -79q0 -86 -79 -119v-5
q59 -26 59 -92q0 -70 -54 -116q-52 -46 -133 -46z" />
    <glyph glyph-name="four.numr" horiz-adv-x="364" 
d="M393 729l-41 -295h45l-14 -99h-45l-11 -79h-114l11 79h-206l13 92l191 302h171zM261 596l-101 -162h78z" />
    <glyph glyph-name="five.numr" horiz-adv-x="400" 
d="M51 404h117q-4 -24 11.5 -40.5t40.5 -16.5q28 0 48.5 23t20.5 54q0 25 -15 40.5t-38 15.5q-43 0 -61 -38h-110l41 287h311l-14 -100h-197l-6 -38l-7 -33l3 -3q26 22 78 22q62 0 97.5 -36.5t35.5 -96.5q0 -86 -58 -141t-145 -55q-78 0 -120 43t-33 113z" />
    <glyph glyph-name="six.numr" horiz-adv-x="407" 
d="M47 428q0 136 64 221q65 86 165 86q67 0 108.5 -35.5t40.5 -95.5h-116q-6 32 -51 32q-70 0 -83 -100h5q15 18 44 29.5t58 11.5q58 0 92 -35.5t34 -94.5q0 -84 -59 -141t-144 -57q-76 0 -117 46t-41 133zM169 401q0 -25 14.5 -39.5t38.5 -14.5q30 0 50.5 24t20.5 59
q0 24 -14 39t-38 15q-31 0 -51.5 -24t-20.5 -59z" />
    <glyph glyph-name="seven.numr" horiz-adv-x="344" 
d="M69 729h337l-11 -83q-78 -75 -141 -181q-59 -100 -92 -209h-114q22 90 77 192q54 102 127 181h-109l-10 -73h-88l10 73z" />
    <glyph glyph-name="eight.numr" horiz-adv-x="385" 
d="M30 364q0 42 22.5 75t61.5 50l1 6q-54 27 -54 87q0 69 55 111q56 42 144 42q74 0 115 -30.5t41 -83.5q0 -42 -21.5 -75t-60.5 -51l-1 -6q53 -26 53 -85q0 -70 -55 -113q-53 -43 -143 -43q-74 0 -116 31t-42 85zM179 580q0 -19 14 -30t37 -11q28 0 47 16t19 40
q0 19 -14 29.5t-38 10.5q-28 0 -46.5 -15.5t-18.5 -39.5zM152 388q0 -18 14 -30t37 -12q28 0 47 16t19 41q0 19 -14.5 30.5t-37.5 11.5q-28 0 -46.5 -16t-18.5 -41z" />
    <glyph glyph-name="nine.numr" horiz-adv-x="406" 
d="M422 556q0 -137 -64 -222q-63 -85 -165 -85q-67 0 -107.5 36t-39.5 96h115q7 -34 51 -34q36 0 55.5 24t26.5 77h-5q-31 -40 -99 -40q-59 0 -93.5 36t-34.5 94q0 85 58 140q58 57 146 57q75 0 115.5 -46t40.5 -133zM300 584q0 25 -13.5 38.5t-36.5 13.5q-31 0 -52 -23.5
t-21 -57.5q0 -25 14 -40t40 -15q29 0 49 24t20 60z" />
    <glyph glyph-name="question.ss01" horiz-adv-x="551" 
d="M245 508h-192q7 106 78.5 168t191.5 62q107 0 172 -54q66 -53 66 -140q0 -50 -27 -102q-9 -16 -33 -42q-25 -27 -34 -33q-2 -1 -8 -6.5t-14.5 -13t-17.5 -14.5q-69 -57 -73 -88l-1 -7h-181l1 9q12 97 98 165q37 27 53 40q46 35 41 69q0 24 -16 39t-41 15q-30 0 -46.5 -18
t-16.5 -49zM322 0h-180l24 171h180z" />
    <glyph glyph-name="questiondown.ss01" horiz-adv-x="551" 
d="M233 624h180l-24 -171h-180zM310 116h192q-7 -106 -78.5 -168t-191.5 -62q-107 0 -173 54q-65 53 -65 140q0 50 27 102q9 16 33 42t33 33q3 2 8.5 6.5t14.5 12.5t18 15q69 57 73 88l1 7h181l-1 -9q-12 -97 -98 -165l-54 -40q-45 -38 -40 -69q0 -24 16 -39t41 -15
q30 0 46.5 18t16.5 49z" />
    <glyph glyph-name="parenleft.case" horiz-adv-x="289" 
d="M52 286q0 132 60 260q61 127 161 203h87q-94 -76 -156 -205q-60 -128 -60 -256q0 -92 29 -172.5t80 -134.5h-87q-114 109 -114 305z" />
    <glyph glyph-name="parenright.case" horiz-adv-x="289" 
d="M263 445q0 -131 -60 -259t-161 -205h-88q98 79 156 207q60 128 60 254q0 92 -28.5 172.5t-79.5 134.5h88q54 -52 83.5 -131.5t29.5 -172.5z" />
    <glyph glyph-name="braceleft.case" horiz-adv-x="274" 
d="M11 289l11 79q35 0 57 21t27 56l28 197q6 45 33.5 70t74.5 25h98l-10 -74h-106l-30 -212q-15 -104 -97 -117v-3q37 -10 53.5 -42t9.5 -78l-31 -221h106l-11 -76h-98q-45 0 -66 25.5t-15 71.5l29 205q6 37 -11.5 55t-51.5 18z" />
    <glyph glyph-name="braceright.case" horiz-adv-x="275" 
d="M278 368l-11 -79q-32 0 -56 -19t-29 -54l-28 -205q-6 -45 -34 -71t-73 -26h-98l11 76h104l31 221q13 97 98 120v3q-79 16 -65 117l30 212h-104l11 74h98q45 0 65 -25t14 -70l-27 -197q-5 -35 11.5 -56t51.5 -21z" />
    <glyph glyph-name="bracketleft.case" horiz-adv-x="245" 
d="M195 -86h-201l119 849h201l-11 -78h-116l-97 -695h116z" />
    <glyph glyph-name="bracketright.case" horiz-adv-x="244" 
d="M150 -86h-201l11 76h116l97 695h-116l11 78h201z" />
    <glyph glyph-name="hyphen.case" horiz-adv-x="481" 
d="M434 320h-374l14 100h374z" />
    <glyph glyph-name="endash.case" horiz-adv-x="657" 
d="M610 320h-550l14 100h550z" />
    <glyph glyph-name="emdash.case" horiz-adv-x="853" 
d="M806 320h-746l14 100h746z" />
    <glyph glyph-name="greater.case" horiz-adv-x="542" 
d="M493 298l-432 -212l25 178l124 52l156 48l1 9l-133 51l-117 61l24 170l371 -217z" />
    <glyph glyph-name="less.case" horiz-adv-x="542" 
d="M454 264l-25 -178l-372 212l20 140l432 217l-24 -170l-133 -61l-147 -51l-2 -9l141 -48z" />
    <glyph glyph-name="percent.tf" horiz-adv-x="583" 
d="M64 560q0 75 53 128q55 53 130 53q63 0 100.5 -37.5t37.5 -97.5q0 -74 -54 -128q-53 -53 -128 -53q-61 0 -100 37.5t-39 97.5zM177 573q0 -20 10.5 -32.5t29.5 -12.5q23 0 40.5 20t17.5 46q0 19 -11.5 31.5t-30.5 12.5q-23 0 -39.5 -18.5t-16.5 -46.5zM588 435l-578 -214
l11 79l578 216zM218 125q0 75 53 128q54 54 130 54q63 0 101.5 -37.5t38.5 -95.5q0 -75 -55 -130q-56 -54 -129 -54q-61 0 -100 37.5t-39 97.5zM331 140q0 -21 11 -33t29 -12q24 0 41.5 20t17.5 46q0 19 -12 31.5t-31 12.5q-22 0 -39 -19t-17 -46z" />
    <glyph glyph-name="perthousand.tf" horiz-adv-x="638" 
d="M201 437q-61 0 -100 35.5t-39 92.5q0 72 53 123q52 51 128 51q61 0 101.5 -36t40.5 -93q0 -71 -55 -122q-54 -51 -129 -51zM230 637q-22 0 -37.5 -16.5t-15.5 -40.5q0 -17 10.5 -27.5t28.5 -10.5q24 0 40.5 16.5t16.5 39.5q0 17 -12 28t-31 11zM46 259l11 80l578 213
l-11 -78zM471 290q59 0 94 -33.5t35 -89.5q0 -75 -50 -127q-50 -50 -123 -50q-66 0 -106 52q-53 -52 -121 -52q-61 0 -96.5 33.5t-35.5 90.5q0 77 49 126q49 51 123 51q66 0 107 -54q56 53 124 53zM433 95q22 0 38.5 17t16.5 40q0 17 -11.5 27.5t-30.5 10.5q-23 0 -39 -16
t-16 -39q0 -18 11.5 -29t30.5 -11zM222 92q23 0 40 17.5t17 40.5q0 17 -11.5 27.5t-29.5 10.5q-23 0 -39 -16t-16 -40q0 -18 10.5 -29t28.5 -11z" />
    <glyph glyph-name="uni1F310" horiz-adv-x="1006" 
d="M516 738q199 0 325 -105q127 -103 127 -268t-127 -270q-128 -105 -325 -105q-198 0 -326 105q-127 105 -127 270t126 269q127 104 327 104zM420 579h190q-16 59 -40.5 91.5t-53.5 32.5q-62 0 -96 -124zM650 579h94q-53 83 -145 112q32 -41 51 -112zM432 691
q-91 -28 -146 -112h94q19 71 52 112zM312 665q-76 -31 -126 -86h55q29 50 71 86zM790 579h54q-50 54 -125 86q42 -36 71 -86zM843 385h82q-5 86 -49 153v-4h-64q27 -68 31 -149zM105 385h82q4 85 32 149h-68q-42 -68 -46 -149zM370 534h-107q-29 -65 -33 -149h125
q2 83 15 149zM395 385h240q-2 87 -14 149h-211q-14 -65 -15 -149zM675 385h126q-4 84 -33 149h-108q13 -66 15 -149zM188 342h-83q5 -80 47 -146h66q-27 71 -30 146zM355 342h-124q3 -79 32 -146h107q-13 66 -15 146zM635 342h-240q1 -81 15 -146h210q14 65 15 146zM660 196
h108q29 67 32 146h-125q-2 -80 -15 -146zM925 342h-83q-3 -75 -30 -146h66q42 66 47 146zM239 153h-54q50 -53 124 -87q-42 36 -70 87zM379 153h-93q52 -85 145 -114q-33 42 -52 114zM611 153h-191q16 -60 41 -93.5t55 -33.5q58 0 95 127zM600 39q91 28 145 114h-94
q-19 -73 -51 -114zM722 66q74 32 123 87h-54q-29 -51 -69 -87z" />
    <glyph glyph-name="uni1F441" horiz-adv-x="805" 
d="M52 366q0 164 103 267q104 104 261 104t261 -104q103 -103 103 -267q0 -168 -103 -271q-102 -103 -261 -103q-158 0 -261 103t-103 271zM127 366q0 -135 82 -218q83 -84 207 -84t207 84q82 83 82 218q0 134 -82 216q-83 83 -207 83t-207 -84q-82 -82 -82 -215zM222 367
q0 85 56 139q55 55 138 55q82 0 138 -54t56 -140q0 -88 -56 -144q-55 -55 -138 -55q-84 0 -139 55t-55 144zM261 377v-22l146 7l-94 -86l16 -18l84 98l-7 -150h22l-8 150l84 -98l16 18l-94 86l146 -7v22l-146 -7l94 85l-16 17l-84 -96l8 150h-22l7 -150l-84 96l-16 -17
l94 -85z" />
    </font>
</defs>
</svg>
