<?xml version="1.0" standalone="no"?>
<!DOCTYPE svg PUBLIC "-//W3C//DTD SVG 1.1//EN" "http://www.w3.org/Graphics/SVG/1.1/DTD/svg11.dtd" >
<svg xmlns="http://www.w3.org/2000/svg" xmlns:xlink="http://www.w3.org/1999/xlink" version="1.1">
<metadata>
Created by FontForge 20170731 at Tue Jul 10 19:29:52 2018
 By Aleksey,,,
Copyright (c) 2017 by Deni Anggara. All rights reserved.
</metadata>
<defs>
<font id="AllianceNo.2-MediumItalic" horiz-adv-x="774" >
  <font-face 
    font-family="Alliance No.2 Medium"
    font-weight="500"
    font-style="italic"
    font-stretch="normal"
    units-per-em="1000"
    panose-1="0 0 6 0 0 0 0 0 0 0"
    ascent="801"
    descent="-199"
    x-height="526"
    cap-height="729"
    bbox="-414 -249 2179 991"
    underline-thickness="50"
    underline-position="-200"
    slope="-8"
    unicode-range="U+000D-FB02"
  />
<missing-glyph horiz-adv-x="644" 
d="M709 0h-644v729h644v-729zM128 666v-604h518v604h-518zM583 125h-392v478h392v-478zM254 540v-351h266v351h-266zM317 252v225h140v-225h-140z" />
    <glyph glyph-name="fi" unicode="fi" horiz-adv-x="620" 
d="M255 526h322l-74 -526h-104l63 440h-220l-62 -440h-103l62 440h-101l12 86h102l3 30l13 89q12 91 103 91h148l-11 -84h-136l-14 -96zM486 613l17 123h103l-17 -123h-103z" />
    <glyph glyph-name="fl" unicode="fl" horiz-adv-x="622" 
d="M271 736h337l-103 -736h-103l91 652h-221l-14 -96l-4 -30h111l-12 -85h-111l-62 -441h-103l62 441h-101l12 85h101l4 30l13 89q12 91 103 91z" />
    <glyph glyph-name="f_f" unicode="ff" horiz-adv-x="688" 
d="M731 652h-136l-14 -96l-3 -30h111l-13 -86h-111l-62 -440h-103l62 440h-220l-62 -440h-103l62 440h-101l12 86h102l3 30l13 89q12 91 103 91h143l-11 -84h-131l-14 -96l-3 -30h220l3 30l13 91q14 89 103 89h148z" />
    <glyph glyph-name="f_f_i" unicode="ffi" horiz-adv-x="943" 
d="M578 526h322l-74 -526h-103l62 440h-220l-62 -440h-103l62 440h-220l-62 -440h-103l62 440h-101l12 86h102l3 30l13 89q12 91 103 91h143l-11 -84h-131l-14 -96l-3 -30h220l3 30l13 89q12 91 103 91h148l-11 -84h-136l-14 -96zM809 605l16 123h103l-17 -123h-102z" />
    <glyph glyph-name="f_t" unicode="ft" horiz-adv-x="706" 
d="M692 440h-109l-34 -245l-15 -111h109l-12 -84h-124q-89 0 -76 85l15 110l35 245h-238l-62 -440h-103l62 440h-102l12 86h102l3 23l15 103q14 84 105 84h144l-11 -84h-135l-15 -103l-3 -23h238l24 171h102l-23 -171h108z" />
    <glyph glyph-name="t_i" unicode="ti" horiz-adv-x="612" 
d="M477 605l17 123h103l-17 -123h-103zM247 526h322l-74 -526h-103l62 440h-219l-35 -245l-15 -111h106l-12 -84h-116q-51 0 -68 23t-11 68l14 104l34 245h-95l12 86h96l24 171h102z" />
    <glyph glyph-name="t_t" unicode="tt" horiz-adv-x="681" 
d="M666 440h-107l-34 -245l-15 -111h107l-12 -84h-119q-51 0 -68 23t-11 68l14 104l35 245h-220l-35 -245l-15 -111h108l-12 -84h-119q-51 0 -68 23t-11 68l14 104l34 245h-95l12 86h96l24 171h103l-24 -171h220l24 171h103l-23 -171h107z" />
    <glyph glyph-name="t_t_i" unicode="tti" horiz-adv-x="938" 
d="M803 605l17 123h103l-17 -123h-103zM572 526h323l-74 -526h-103l62 440h-221l-34 -245l-15 -111h107l-12 -84h-119q-51 0 -68 23t-11 68l14 104l35 245h-220l-35 -245l-15 -111h108l-12 -84h-119q-51 0 -68 23t-11 68l14 104l34 245h-95l12 86h96l24 171h103l-24 -171
h220l24 171h103z" />
    <glyph glyph-name=".notdef" horiz-adv-x="644" 
d="M709 0h-644v729h644v-729zM128 666v-604h518v604h-518zM583 125h-392v478h392v-478zM254 540v-351h266v351h-266zM317 252v225h140v-225h-140z" />
    <glyph glyph-name=".null" horiz-adv-x="0" 
 />
    <glyph glyph-name="nonmarkingreturn" horiz-adv-x="333" 
 />
    <glyph glyph-name="CR.001" unicode="&#xd;" horiz-adv-x="226" 
 />
    <glyph glyph-name="space" unicode=" " horiz-adv-x="228" 
 />
    <glyph glyph-name="exclam" unicode="!" horiz-adv-x="286" 
d="M163 222h-51l16 298l28 209h105l-29 -209zM164 0h-116l15 105h116z" />
    <glyph glyph-name="quotedbl" unicode="&#x22;" horiz-adv-x="393" 
d="M203 591l-49 -167h-44l-3 167l20 138h96zM379 591l-50 -167h-44l-3 167l20 138h96z" />
    <glyph glyph-name="numbersign" unicode="#" horiz-adv-x="717" 
d="M696 540l-8 -61h-117l-28 -204h115l-8 -61h-116l-30 -214h-64l30 214h-234l-30 -214h-66l30 214h-117l9 61h117l28 204h-116l8 61h117l29 210h66l-29 -210h234l29 210h64l-29 -210h116zM245 275h234l28 204h-234z" />
    <glyph glyph-name="dollar" unicode="$" horiz-adv-x="555" 
d="M530 503h-103q6 46 -20.5 73.5t-79.5 27.5q-52 0 -83.5 -27.5t-31.5 -71.5q0 -31 20.5 -47.5t65.5 -28.5l81 -21q136 -33 136 -144q0 -86 -62 -145q-61 -57 -161 -67l-13 -85h-74l12 86q-89 10 -132.5 63t-32.5 134h104q-8 -57 21 -87t92 -30q62 0 98.5 29t36.5 78
q0 54 -81 75l-83 22q-138 35 -138 143q0 80 56 136q58 57 147 67l13 87h74l-12 -87q79 -10 119.5 -58t30.5 -122z" />
    <glyph glyph-name="percent" unicode="%" horiz-adv-x="898" 
d="M101 557q0 81 48 130q50 50 128 50q79 0 129 -50t50 -131q0 -80 -50 -132q-50 -50 -129 -50q-77 0 -127 50q-49 50 -49 133zM304 0h-74l462 729h74zM277 443q45 0 72.5 31.5t27.5 82.5q0 50 -27.5 81t-72.5 31q-43 0 -70.5 -31t-27.5 -81t27.5 -82t70.5 -32zM528 173
q0 81 49 131q49 51 129 51t128 -51t48 -132q0 -82 -49 -132q-50 -50 -127 -50q-79 0 -128.5 50.5t-49.5 132.5zM706 286q-44 0 -72 -31.5t-28 -81.5t28 -82t72 -32t71.5 32t27.5 82t-28 81.5t-71 31.5z" />
    <glyph glyph-name="ampersand" unicode="&#x26;" horiz-adv-x="659" 
d="M597 0h-346q-108 0 -162.5 41.5t-54.5 117.5t40 135q40 61 104 81l1 8q-83 36 -83 131q0 98 71 161t183 63q48 0 82 -9l-13 -88q-26 9 -67 9q-64 0 -101 -26.5t-44 -74.5l-4 -31q-8 -45 23 -69t86 -24h140l16 113h101l-16 -113h104l-13 -89h-104l-34 -245h104zM262 91
h143l34 245h-151q-121 0 -139 -107l-5 -38q-8 -50 23 -75t95 -25z" />
    <glyph glyph-name="quotesingle" unicode="'" horiz-adv-x="217" 
d="M203 591l-49 -167h-44l-3 167l20 138h96z" />
    <glyph glyph-name="parenleft" unicode="(" horiz-adv-x="397" 
d="M78 240q0 154 83 303t213 227h69q-130 -76 -214 -226q-83 -149 -83 -302q0 -116 45 -217q48 -103 125 -157h-70q-81 58 -124 157q-44 102 -44 215z" />
    <glyph glyph-name="parenright" unicode=")" horiz-adv-x="391" 
d="M336 397q0 -155 -83 -304q-82 -148 -212 -225h-70q129 77 212 227q84 150 84 303q0 117 -46 216q-45 101 -124 156h70q78 -56 124 -158q45 -100 45 -215z" />
    <glyph glyph-name="asterisk" unicode="*" horiz-adv-x="349" 
d="M97 486l-21 45l115 51l-101 50l34 47l85 -71l5 121h52l-28 -121l106 71l20 -47l-115 -50l101 -51l-33 -45l-86 71l-6 -122h-52l29 122z" />
    <glyph glyph-name="plus" unicode="+" horiz-adv-x="635" 
d="M560 283h-196l-29 -210h-89l30 210h-196l13 84h195l28 203h88l-28 -203h196z" />
    <glyph glyph-name="comma" unicode="," horiz-adv-x="210" 
d="M-18 -148l7 46q75 0 85 73l4 29h-64l18 133h122l-22 -157q-9 -60 -48 -92t-102 -32z" />
    <glyph glyph-name="hyphen" unicode="-" horiz-adv-x="465" 
d="M405 268h-345l9 65h345z" />
    <glyph glyph-name="period" unicode="." horiz-adv-x="253" 
d="M151 0h-122l19 136h122z" />
    <glyph glyph-name="slash" unicode="/" horiz-adv-x="400" 
d="M55 0h-69l388 729h69z" />
    <glyph glyph-name="zero" unicode="0" horiz-adv-x="628" 
d="M66 244q0 221 86 354q86 132 231 132q210 0 210 -253q0 -221 -86 -355q-85 -132 -228 -132q-213 0 -213 254zM205 468l-30 -216q-11 -83 19 -126.5t96 -43.5q65 0 108.5 43t55.5 127l31 216q12 82 -19.5 126t-96.5 44q-67 0 -109 -43.5t-55 -126.5z" />
    <glyph glyph-name="one" unicode="1" horiz-adv-x="459" 
d="M267 515h-182l11 81h29q70 0 118.5 34.5t58.5 90.5h98l-101 -721h-104z" />
    <glyph glyph-name="two" unicode="2" horiz-adv-x="582" 
d="M404 293l-219 -203l105 3h212l-13 -93h-461l10 74l298 280q96 89 104 145l5 33q6 48 -24 76.5t-85 28.5q-57 0 -97 -32t-47 -85l-3 -23h-103l2 19q11 96 86 155q77 59 183 59q92 0 145.5 -47.5t53.5 -127.5q0 -87 -52 -154q-25 -33 -44 -54q-14 -15 -56 -54z" />
    <glyph glyph-name="three" unicode="3" horiz-adv-x="596" 
d="M276 -10q-112 0 -168 62t-39 166h109q-12 -67 17.5 -101.5t91.5 -34.5q60 0 100.5 28.5t47.5 75.5l6 37q7 50 -25.5 77t-96.5 27h-62l12 88h57q60 0 98 26t44 71l4 33q6 45 -24.5 69t-83.5 24q-60 0 -97.5 -35t-47.5 -99h-107q14 104 87 165t183 61q91 0 146 -44t55 -118
q0 -63 -34 -112t-97 -76v-7q97 -37 97 -144q0 -104 -77 -172q-76 -67 -196 -67z" />
    <glyph glyph-name="four" unicode="4" horiz-adv-x="617" 
d="M552 721l-68 -481h90l-13 -88h-89l-22 -152h-104l21 152h-348l13 87l359 482h161zM435 638l-295 -398h239z" />
    <glyph glyph-name="five" unicode="5" horiz-adv-x="606" 
d="M66 221h107q-10 -60 22.5 -99t94.5 -39q60 0 103 31q44 31 52 81l11 79q7 52 -29 83q-35 31 -95 31q-44 0 -83 -19.5t-56 -50.5h-99l73 403h422l-13 -92h-329l-38 -199l4 -2q25 22 66.5 36t83.5 14q93 0 146.5 -53t53.5 -143q0 -128 -81 -210t-208 -82q-108 0 -166 64
t-42 167z" />
    <glyph glyph-name="six" unicode="6" horiz-adv-x="613" 
d="M69 246q0 221 87 352q88 132 234 132q97 0 151 -49.5t50 -134.5h-108q0 46 -29 69.5t-78 23.5q-162 0 -187 -261h6q58 94 178 94q88 0 139 -50.5t51 -139.5q0 -128 -78 -210t-200 -82q-216 0 -216 256zM194 270l-10 -70q-8 -53 25 -85t89 -32t97.5 31.5t49.5 85.5l10 70
q8 52 -25.5 83t-89.5 31t-97.5 -31t-48.5 -83z" />
    <glyph glyph-name="seven" unicode="7" horiz-adv-x="551" 
d="M154 500h-88l31 221h485l-10 -75q-120 -140 -222 -315q-103 -178 -151 -331h-113q45 150 141 318q98 170 215 311h-271z" />
    <glyph glyph-name="eight" unicode="8" horiz-adv-x="597" 
d="M260 -10q-105 0 -162.5 45t-57.5 123q0 67 34.5 120t96.5 78l1 8q-84 40 -84 133q0 104 76 168t201 64q104 0 162 -45.5t58 -124.5q0 -66 -35 -118t-96 -77l-1 -8q84 -39 84 -135q0 -104 -76 -168q-77 -63 -201 -63zM318 403q64 0 104.5 26t47.5 73l4 36q7 48 -25.5 73.5
t-97.5 25.5t-104 -25.5t-46 -73.5l-6 -36q-7 -47 26.5 -73t96.5 -26zM274 82q63 0 103.5 27.5t47.5 78.5l5 36q7 44 -26 68.5t-97 24.5t-104 -24t-47 -69l-4 -36q-7 -51 25.5 -78.5t96.5 -27.5z" />
    <glyph glyph-name="nine" unicode="9" horiz-adv-x="610" 
d="M579 475q0 -222 -88 -353q-87 -132 -234 -132q-96 0 -150.5 49.5t-50.5 134.5h108q1 -46 30 -69.5t78 -23.5q161 0 185 262h-5q-60 -95 -177 -95q-88 0 -139 50.5t-51 139.5q0 128 77 210q78 82 200 82q217 0 217 -255zM453 450l10 71q8 53 -25 84.5t-89 31.5
t-97.5 -31.5t-49.5 -84.5l-10 -71q-8 -52 25.5 -82.5t89.5 -30.5t97 30.5t49 82.5z" />
    <glyph glyph-name="colon" unicode=":" horiz-adv-x="275" 
d="M222 403h-122l17 123h122zM165 0h-122l17 122h122z" />
    <glyph glyph-name="semicolon" unicode=";" horiz-adv-x="246" 
d="M193 403h-121l17 123h121zM-15 -138l6 42q42 0 59.5 16t23.5 50l5 30h-64l17 122h121l-20 -148q-8 -54 -46.5 -83t-101.5 -29z" />
    <glyph glyph-name="less" unicode="&#x3c;" horiz-adv-x="547" 
d="M446 138l-15 -108l-355 221l11 80l415 210l-15 -108l-310 -140l-1 -8l143 -75z" />
    <glyph glyph-name="equal" unicode="=" horiz-adv-x="547" 
d="M476 355h-378l12 92h378zM447 147h-378l12 91h378z" />
    <glyph glyph-name="greater" unicode="&#x3e;" horiz-adv-x="547" 
d="M469 251l-418 -221l16 108l146 72l166 75l1 8l-272 140l15 108l357 -210z" />
    <glyph glyph-name="question" unicode="?" horiz-adv-x="583" 
d="M291 200h-99l27 199q32 -7 66 -7q80 0 128.5 41.5t48.5 109.5q0 48 -33.5 75.5t-90.5 27.5q-61 0 -102 -30t-52 -83h-102q18 96 92 150t180 54q101 0 157 -48t56 -132q0 -106 -75 -175q-74 -69 -186 -72zM274 0h-125l17 120h125z" />
    <glyph glyph-name="at" unicode="@" horiz-adv-x="932" 
d="M758 -52h-671l95 677h671l-70 -501h-182q-33 0 -51 15t-17 41v7h-6q-15 -25 -47 -40.5t-70 -15.5q-54 0 -83.5 32.5t-29.5 90.5q0 90 45 143.5t119 53.5q38 0 65 -15.5t36 -41.5h3l8 52h63l-36 -252h112l51 354h-509l-74 -522h588zM443 200q33 0 54.5 19.5t26.5 52.5
l6 38q4 34 -12.5 53t-50.5 19q-33 0 -54.5 -19t-26.5 -52l-6 -39q-5 -33 12 -52.5t51 -19.5z" />
    <glyph glyph-name="A" unicode="A" horiz-adv-x="677" 
d="M637 0h-115l-35 160h-324l-80 -160h-117l372 729h126zM265 362l-57 -114h259l-25 114l-49 255h-5z" />
    <glyph glyph-name="B" unicode="B" horiz-adv-x="712" 
d="M402 0h-343l102 729h348q86 0 132 -39.5t46 -110.5q0 -69 -34.5 -122.5t-95.5 -76.5l-1 -8q101 -26 101 -139q0 -105 -70 -169t-185 -64zM255 641l-32 -226h229q48 0 78.5 24t36.5 66l7 48q6 41 -18 64.5t-73 23.5h-228zM211 328l-33 -240h222q57 0 94.5 25.5t43.5 68.5
l7 49q7 47 -19 72t-79 25h-236z" />
    <glyph glyph-name="C" unicode="C" horiz-adv-x="752" 
d="M340 -10q-138 0 -213 76.5t-75 215.5q0 204 110 331q111 126 291 126q134 0 211 -71t73 -187h-112q-4 74 -53.5 117t-135.5 43q-102 0 -172 -60q-69 -57 -83 -160l-17 -119q-14 -95 39 -155t153 -60q82 0 145.5 43.5t90.5 117.5h113q-34 -118 -133 -189q-98 -69 -232 -69
z" />
    <glyph glyph-name="D" unicode="D" horiz-adv-x="748" 
d="M358 0h-299l102 729h299q135 0 202 -64.5t67 -198.5q0 -223 -97 -344q-98 -122 -274 -122zM256 632l-75 -535h189q103 0 158 48.5t70 157.5l16 122q15 109 -26.5 158t-142.5 49h-189z" />
    <glyph glyph-name="E" unicode="E" horiz-adv-x="644" 
d="M551 0h-492l102 729h492l-13 -97h-384l-29 -210h334l-13 -92h-335l-32 -233h384z" />
    <glyph glyph-name="F" unicode="F" horiz-adv-x="613" 
d="M167 0h-108l102 729h486l-13 -97h-378l-37 -259h338l-13 -93h-337z" />
    <glyph glyph-name="G" unicode="G" horiz-adv-x="811" 
d="M51 280q0 202 113 330t291 128q123 0 200 -62t80 -164h-113q-5 59 -54 94t-125 35q-103 0 -177 -62q-72 -60 -86 -163l-16 -114q-14 -98 39 -159q54 -60 159 -60q100 0 174 60q75 62 91 156h-269l13 91h381l-55 -390h-89l8 120h-7q-96 -130 -278 -130q-135 0 -207.5 76.5
t-72.5 213.5z" />
    <glyph glyph-name="H" unicode="H" horiz-adv-x="803" 
d="M167 0h-108l102 729h108l-43 -311h396l43 311h108l-102 -729h-108l46 327h-396z" />
    <glyph glyph-name="I" unicode="I" horiz-adv-x="299" 
d="M269 729l-102 -729h-108l102 729h108z" />
    <glyph glyph-name="J" unicode="J" horiz-adv-x="399" 
d="M206 294l61 435h108l-61 -435l-29 -203q-10 -91 -104 -91h-202l14 97h186z" />
    <glyph glyph-name="K" unicode="K" horiz-adv-x="685" 
d="M606 729h130l-309 -317l217 -412h-129l-172 325l-152 -156l-24 -169h-108l102 729h108l-57 -409z" />
    <glyph glyph-name="L" unicode="L" horiz-adv-x="572" 
d="M499 0h-440l102 729h108l-88 -631h332z" />
    <glyph glyph-name="M" unicode="M" horiz-adv-x="912" 
d="M166 0h-107l102 729h142l146 -496h6l286 496h141l-102 -729h-106l52 372l39 211h-7l-336 -570l-176 570h-7l-21 -212z" />
    <glyph glyph-name="N" unicode="N" horiz-adv-x="791" 
d="M167 0h-108l102 729h131l281 -586h6l23 218l51 368h108l-102 -729h-132l-279 586h-6l-22 -210z" />
    <glyph glyph-name="O" unicode="O" 
d="M52 284q0 203 112 328q112 126 291 126q142 0 220 -77.5t78 -217.5q0 -203 -112 -328q-113 -125 -291 -125q-143 0 -220.5 76.5t-77.5 217.5zM180 416l-15 -103q-15 -105 38.5 -165.5t159.5 -60.5q107 0 177 61t85 165l15 103q15 105 -39 165t-160 60
q-107 0 -176.5 -60.5t-84.5 -164.5z" />
    <glyph glyph-name="P" unicode="P" horiz-adv-x="679" 
d="M167 0h-108l102 729h323q100 0 152 -48t52 -137q0 -129 -74 -208q-74 -77 -196 -77h-214zM256 629l-40 -277h207q59 0 96.5 29.5t44.5 78.5l10 69q6 47 -21 73.5t-82 26.5h-215z" />
    <glyph glyph-name="Q" unicode="Q" 
d="M753 443q0 -189 -99 -312q-97 -122 -260 -139l-15 -105h132l-11 -80h-145q-30 0 -48 8t-24 21t-8 29t1 32l14 97q-115 16 -176.5 90.5t-61.5 199.5q0 203 112 328q112 126 291 126q142 0 220 -77.5t78 -217.5zM180 416l-15 -103q-15 -105 38.5 -165.5t159.5 -60.5
q107 0 177 61t85 165l15 103q15 105 -39 165t-160 60q-107 0 -176.5 -60.5t-84.5 -164.5z" />
    <glyph glyph-name="R" unicode="R" horiz-adv-x="724" 
d="M167 0h-108l102 729h346q93 0 140.5 -44.5t47.5 -125.5q0 -80 -36.5 -139.5t-98.5 -80.5l-1 -7h37q71 0 62 -78l-37 -254h-110l39 275h-344zM256 634l-38 -268h215q57 0 94 28t43 76l9 61q7 50 -21.5 76.5t-86.5 26.5h-215z" />
    <glyph glyph-name="S" unicode="S" horiz-adv-x="671" 
d="M52 226h113q-9 -71 34 -109.5t127 -38.5q81 0 131 39t50 102q0 36 -25 59q-8 8 -25 16q-23 10 -45 15l-120 28q-56 14 -89 28q-87 38 -92 136q0 104 82 171t211 67q122 0 186 -57q66 -57 54 -156h-112q4 60 -33.5 92.5t-107.5 32.5q-73 0 -117.5 -33.5t-44.5 -88.5
q0 -31 26 -57q15 -10 28 -16q31 -11 54 -16l129 -28q159 -34 159 -165q0 -116 -88 -186q-88 -71 -228 -71q-138 0 -205 67q-66 67 -52 169z" />
    <glyph glyph-name="T" unicode="T" horiz-adv-x="560" 
d="M72 729h548l-14 -97h-219l-89 -632h-109l89 632h-220z" />
    <glyph glyph-name="U" unicode="U" 
d="M108 272l65 457h107l-63 -448q-13 -89 31.5 -140t132.5 -51t146 50.5t71 140.5l63 448h107l-64 -457q-18 -129 -110 -206q-91 -76 -228 -76q-140 0 -208 76t-50 206z" />
    <glyph glyph-name="V" unicode="V" horiz-adv-x="672" 
d="M369 0h-139l-159 729h120l69 -335l49 -291h7l133 290l164 336h118z" />
    <glyph glyph-name="W" unicode="W" horiz-adv-x="942" 
d="M123 0l-47 729h115l21 -417l4 -192h7l240 609h143l70 -610h6l58 192l137 418h120l-250 -729h-151l-74 601h-6l-243 -601h-150z" />
    <glyph glyph-name="X" unicode="X" horiz-adv-x="638" 
d="M109 0h-132l278 368l-171 361h124l69 -149l62 -147h7l109 152l105 144h131l-276 -364l175 -365h-125l-62 131l-71 161h-6l-123 -167z" />
    <glyph glyph-name="Y" unicode="Y" horiz-adv-x="663" 
d="M281 291l-211 438h126l80 -179l66 -158h7l112 158l128 179h135l-334 -438l-41 -291h-108z" />
    <glyph glyph-name="Z" unicode="Z" horiz-adv-x="578" 
d="M84 729h539l-12 -88l-477 -544h397l-14 -97h-535l12 88l478 543h-401z" />
    <glyph glyph-name="bracketleft" unicode="[" horiz-adv-x="314" 
d="M221 -219h-180l141 1003h180l-8 -60h-115l-125 -887h115z" />
    <glyph glyph-name="backslash" unicode="\" horiz-adv-x="403" 
d="M156 729l185 -729h-69l-184 729h68z" />
    <glyph glyph-name="bracketright" unicode="]" horiz-adv-x="314" 
d="M138 -219h-181l8 56h116l125 887h-116l8 60h181z" />
    <glyph glyph-name="asciicircum" unicode="^" horiz-adv-x="384" 
d="M397 473h-87l-65 168l-113 -168h-87l176 256h74z" />
    <glyph glyph-name="underscore" unicode="_" horiz-adv-x="342" 
d="M297 -74h-346l10 74h347z" />
    <glyph glyph-name="grave" unicode="`" horiz-adv-x="431" 
d="M408 771l-41 -50l-176 116l53 68z" />
    <glyph glyph-name="a" unicode="a" horiz-adv-x="570" 
d="M21 122q0 86 59 139t156 53h150l6 39q15 102 -98 102q-49 0 -80.5 -23.5t-40.5 -61.5h-104q18 77 82.5 121.5t158.5 44.5q104 0 150.5 -50t33.5 -142l-38 -269h73l-11 -75h-79q-39 0 -57.5 16.5t-15.5 52.5l2 19h-8q-23 -45 -74 -71.5t-116 -26.5q-69 0 -109 35.5
t-40 96.5zM132 174l-4 -30q-5 -35 16 -53.5t63 -18.5q67 0 113 40t54 106l3 24h-138q-45 0 -74 -19t-33 -49z" />
    <glyph glyph-name="b" unicode="b" horiz-adv-x="633" 
d="M137 0h-93l103 736h103l-43 -310h7q28 50 80.5 80t114.5 30q92 0 140 -54t48 -154q0 -153 -73 -245q-74 -93 -193 -93q-60 0 -103.5 27.5t-59.5 75.5h-7zM188 292l-8 -62q-8 -67 30 -111t107 -44q68 0 111 36t51 99l14 102q9 64 -24.5 101t-99.5 37q-70 0 -121 -45
q-51 -43 -60 -113z" />
    <glyph glyph-name="c" unicode="c" horiz-adv-x="566" 
d="M416 183h102q-25 -90 -95.5 -141.5t-168.5 -51.5q-102 0 -159.5 57t-57.5 159q0 145 83 237q82 93 214 93q93 0 149 -51t57 -136h-103q-4 48 -36 74t-84 26q-64 0 -109.5 -41t-55.5 -108l-12 -82q-10 -65 24.5 -103.5t100.5 -38.5q54 0 94.5 29t56.5 78z" />
    <glyph glyph-name="d" unicode="d" horiz-adv-x="633" 
d="M220 -10q-88 0 -136 53.5t-48 150.5q0 149 72 242t187 93q133 0 171 -102h7l43 309h103l-103 -736h-92l2 93h-7q-32 -49 -84.5 -76t-114.5 -27zM264 75q72 0 122 43t59 112l8 59q10 70 -28 112.5t-109 42.5q-66 0 -109.5 -36t-52.5 -99l-14 -99q-8 -62 24.5 -98.5
t99.5 -36.5z" />
    <glyph glyph-name="e" unicode="e" horiz-adv-x="571" 
d="M38 208q0 144 81 236q83 92 211 92q96 0 151 -51.5t55 -143.5q0 -37 -14 -101h-378l-4 -29q-8 -62 26.5 -100.5t99.5 -38.5q50 0 90 24t58 64h102q-26 -77 -98 -124q-71 -46 -165 -46q-102 0 -158.5 58t-56.5 160zM157 326l-2 -12h278l2 17q6 55 -26 89t-92 34
q-64 0 -109 -35.5t-51 -92.5z" />
    <glyph glyph-name="f" unicode="f" horiz-adv-x="365" 
d="M408 652h-135l-15 -103l-3 -23h111l-13 -86h-110l-62 -440h-103l62 440h-102l12 86h102l3 23l15 103q14 84 105 84h144z" />
    <glyph glyph-name="g" unicode="g" horiz-adv-x="538" 
d="M560 608l-13 -84h-99l-6 -43q35 -38 35 -96q0 -86 -64 -141q-64 -56 -159 -56q-37 0 -69 8q-22 -5 -34.5 -19t-12.5 -32q0 -36 63 -36h132q71 0 109.5 -29.5t38.5 -83.5q0 -85 -74 -132t-209 -47q-105 0 -158.5 28.5t-53.5 80.5q0 42 26 74.5t70 45.5l1 7q-43 16 -43 63
q0 33 24 61.5t60 38.5l1 7q-60 37 -60 113q0 85 65 142q64 58 162 58q54 0 90 -16l2 17q9 71 91 71h85zM372 344l5 34q5 37 -20 60.5t-71 23.5t-77.5 -23t-36.5 -61l-6 -34q-5 -37 20 -60t72 -23q46 0 77 22.5t37 60.5zM311 25h-137q-41 0 -64.5 -19.5t-23.5 -53.5
q0 -59 129 -59q161 0 161 85q0 47 -65 47z" />
    <glyph glyph-name="h" unicode="h" horiz-adv-x="623" 
d="M147 0h-103l103 736h103l-42 -306h7q30 50 81.5 78t109.5 28q86 0 126 -57.5t26 -156.5l-45 -322h-104l43 312q20 137 -97 137q-66 0 -112 -46.5t-57 -123.5z" />
    <glyph glyph-name="i" unicode="i" horiz-adv-x="264" 
d="M233 612h-103l17 124h103zM147 0h-103l74 526h103z" />
    <glyph glyph-name="j" unicode="j" horiz-adv-x="273" 
d="M140 612l17 124h103l-17 -124h-103zM41 -84l16 112l70 498h103l-70 -498l-15 -104q-5 -28 -19 -53q-18 -38 -84 -38h-125l12 83h112z" />
    <glyph glyph-name="k" unicode="k" horiz-adv-x="568" 
d="M448 526h132l-230 -205l166 -321h-114l-131 250l-100 -89l-23 -161h-104l103 736h104l-62 -440z" />
    <glyph glyph-name="l" unicode="l" horiz-adv-x="264" 
d="M147 0h-103l103 736h103z" />
    <glyph glyph-name="m" unicode="m" horiz-adv-x="931" 
d="M147 0h-103l74 526h90l-1 -98h9q60 108 174 108q56 0 92 -30.5t45 -82.5h8q65 113 187 113q83 0 120.5 -56t23.5 -155l-45 -325h-104l44 313q19 136 -88 136q-59 0 -98.5 -44.5t-50.5 -121.5l-40 -283h-103l43 311q20 138 -85 138q-58 0 -99.5 -45.5t-51.5 -119.5z" />
    <glyph glyph-name="n" unicode="n" horiz-adv-x="623" 
d="M147 0h-103l74 526h91l-1 -98h8q31 51 81.5 79.5t109.5 28.5q86 0 125.5 -57.5t25.5 -157.5l-45 -321h-104l44 311q18 135 -98 135q-65 0 -111.5 -47t-57.5 -123z" />
    <glyph glyph-name="o" unicode="o" horiz-adv-x="591" 
d="M37 208q0 144 83 236q84 92 214 92q103 0 162 -58t59 -161q0 -143 -84 -235q-83 -92 -214 -92q-104 0 -162 58t-58 160zM152 302l-11 -82q-9 -68 26.5 -106t102.5 -38t113.5 38.5t55.5 105.5l11 82q10 66 -25.5 106.5t-102.5 40.5t-114 -40.5t-56 -106.5z" />
    <glyph glyph-name="p" unicode="p" horiz-adv-x="633" 
d="M123 -167h-103l97 693h92l-2 -93h8q31 49 83.5 76t115.5 27q88 0 136 -53.5t48 -151.5q0 -148 -73 -242q-72 -93 -187 -93q-66 0 -110 27t-60 76h-8zM317 81q66 0 110 36t52 99l14 100q9 62 -23.5 98t-100.5 36q-72 0 -121.5 -42.5t-59.5 -111.5l-8 -60
q-10 -70 28 -112.5t109 -42.5z" />
    <glyph glyph-name="q" unicode="q" horiz-adv-x="633" 
d="M497 526h93l-97 -693h-104l38 267h-7q-28 -50 -81 -80t-115 -30q-92 0 -139.5 53.5t-47.5 153.5q0 153 73 245q73 94 193 94q58 0 102.5 -27.5t60.5 -75.5h7zM446 233l8 63q8 67 -30 110.5t-107 43.5q-67 0 -110.5 -36t-52.5 -98l-14 -103q-8 -64 25 -100.5t100 -36.5
q68 0 120 44q50 43 61 113z" />
    <glyph glyph-name="r" unicode="r" horiz-adv-x="365" 
d="M209 526h182l-12 -86h-170l-20 -143l-42 -297h-103l42 297l19 139q13 90 104 90z" />
    <glyph glyph-name="s" unicode="s" horiz-adv-x="511" 
d="M35 161h102q-5 -43 23 -68t81 -25q54 0 87 24.5t33 65.5q0 42 -57 55l-105 20q-126 24 -126 120q0 81 63 132t165 51q94 0 143 -44t40 -118h-102q5 42 -19.5 63t-72.5 21q-51 0 -81 -22.5t-30 -60.5q0 -47 72 -58l97 -18q122 -23 122 -121q0 -84 -66 -136
q-65 -52 -173 -52q-102 0 -154.5 46.5t-41.5 124.5z" />
    <glyph glyph-name="t" unicode="t" horiz-adv-x="357" 
d="M343 440h-109l-34 -245l-16 -111h110l-12 -84h-125q-88 0 -75 85l15 110l35 245h-95l12 86h95l24 171h102l-23 -171h108z" />
    <glyph glyph-name="u" unicode="u" horiz-adv-x="617" 
d="M483 526h103l-74 -526h-89v97h-9q-28 -50 -78.5 -78.5t-112.5 -28.5q-83 0 -121 53t-25 149l47 334h104l-45 -319q-20 -131 91 -131q66 0 112.5 47.5t57.5 126.5z" />
    <glyph glyph-name="v" unicode="v" horiz-adv-x="494" 
d="M149 0l-114 526h109l47 -264l28 -162h6l70 161l121 265h117l-259 -526h-125z" />
    <glyph glyph-name="w" unicode="w" horiz-adv-x="757" 
d="M571 260l103 266h108l-215 -526h-132l-25 258l-11 139h-6l-49 -139l-95 -258h-133l-71 526h105l29 -264l11 -159h8l153 423h121l37 -422h7z" />
    <glyph glyph-name="x" unicode="x" horiz-adv-x="481" 
d="M77 0h-111l205 264l-131 262h113l93 -196h7l146 196h112l-200 -259l133 -267h-114l-95 200h-7z" />
    <glyph glyph-name="y" unicode="y" horiz-adv-x="532" 
d="M186 65l-153 461h109l49 -169l52 -192h6l110 192l96 169h115l-282 -462l-19 -140q-5 -35 -22 -58q-20 -33 -80 -33h-135l13 84h121z" />
    <glyph glyph-name="z" unicode="z" horiz-adv-x="450" 
d="M61 526h398l-11 -78l-323 -363h276l-12 -85h-401l11 77l324 363h-274z" />
    <glyph glyph-name="braceleft" unicode="{" horiz-adv-x="303" 
d="M33 254l9 65q67 0 78 74l45 318q10 73 82 73h105l-9 -60h-111l-45 -327q-6 -46 -30.5 -74.5t-58.5 -33.5v-3q33 -5 49 -34.5t9 -73.5l-48 -341h111l-8 -56h-106q-71 0 -61 72l46 328q6 37 -10 55t-47 18z" />
    <glyph glyph-name="bar" unicode="|" horiz-adv-x="305" 
d="M155 -37h-91l111 790h92z" />
    <glyph glyph-name="braceright" unicode="}" horiz-adv-x="303" 
d="M276 319l-8 -65q-69 0 -79 -73l-46 -328q-11 -72 -81 -72h-105l8 56h110l48 341q7 45 31.5 74t58.5 34v3q-33 6 -49.5 34t-10.5 74l47 327h-110l8 60h105q34 0 50 -19.5t11 -53.5l-45 -318q-5 -34 9.5 -54t47.5 -20z" />
    <glyph glyph-name="asciitilde" unicode="~" horiz-adv-x="384" 
d="M74 277h-55q5 68 35.5 101t73.5 33q33 0 79 -25t70 -25q47 0 56 62h55q-5 -70 -38 -104.5t-80 -34.5q-38 0 -85 25q-49 26 -66 26q-41 0 -45 -58z" />
    <glyph glyph-name="uni00A0" unicode="&#xa0;" horiz-adv-x="228" 
 />
    <glyph glyph-name="exclamdown" unicode="&#xa1;" horiz-adv-x="286" 
d="M136 623l14 106h116l-15 -106h-115zM84 209l68 298h51l-14 -298l-30 -209h-105z" />
    <glyph glyph-name="cent" unicode="&#xa2;" horiz-adv-x="557" 
d="M277 192q51 0 88.5 26t52.5 71h102q-21 -76 -79.5 -124t-139.5 -57l-11 -78h-75l11 78q-80 10 -122.5 62.5t-42.5 138.5q0 125 65 210q64 85 172 100l11 80h75l-11 -79q78 -8 122 -54.5t44 -120.5h-102q-4 44 -33 67.5t-78 23.5q-61 0 -101 -35.5t-49 -98.5l-12 -79
q-8 -61 21.5 -96t91.5 -35z" />
    <glyph glyph-name="sterling" unicode="&#xa3;" horiz-adv-x="644" 
d="M389 646q-52 0 -88 -33t-44 -92l-16 -116h229l-12 -86h-230l-32 -226h274l21 147h92l-21 -147h1l-14 -93h-541l13 93h71l32 226h-71l12 86h72l16 116q14 99 81 157q68 60 170 60q90 0 142.5 -48t49.5 -127h-104q-1 36 -30.5 59.5t-72.5 23.5z" />
    <glyph glyph-name="currency" unicode="&#xa4;" horiz-adv-x="653" 
d="M113 82l-53 58l85 66q-36 61 -25.5 132t62.5 131l-66 65l68 60l53 -76q61 40 132 39q71 0 120 -39l75 76l49 -60l-79 -64q35 -58 25 -131q-9 -74 -62 -133l62 -66l-67 -58l-53 75q-64 -42 -132.5 -42t-119.5 43zM210 332q-7 -57 24 -93.5t85 -35.5q61 1 104 47
q44 47 44 110q0 49 -31 79t-81 30q-56 0 -97 -37.5t-48 -99.5z" />
    <glyph glyph-name="yen" unicode="&#xa5;" horiz-adv-x="625" 
d="M564 729h122l-255 -364h99l-12 -87h-148l-8 -60h147l-12 -87h-148l-18 -131h-108l18 131h-149l12 87h150l8 60h-149l12 87h100l-155 364h124l79 -207l52 -149h7l94 149z" />
    <glyph glyph-name="brokenbar" unicode="&#xa6;" horiz-adv-x="305" 
d="M222 436h-92l44 317h92zM155 -39h-92l44 313h92z" />
    <glyph glyph-name="section" unicode="&#xa7;" horiz-adv-x="519" 
d="M62 341q0 45 26 80.5t69 49.5l2 10q-45 29 -45 83q0 73 62 120t159 47q87 0 137 -42t44 -109h-106q1 32 -24.5 49.5t-68.5 17.5q-42 0 -65.5 -18.5t-23.5 -51.5q0 -28 23 -46q15 -10 43 -22l99 -41q100 -37 100 -115q0 -88 -83 -129l-2 -10q43 -28 43 -83q0 -76 -63 -124
q-62 -47 -162 -47q-91 0 -142 40t-47 110h109q0 -32 24.5 -50t68.5 -18q45 0 70 20t25 56q0 23 -14 36t-50 28l-110 44q-98 39 -98 115zM173 377q0 -43 55 -65l91 -41q25 -10 39 -18q26 24 26 63q-3 28 -15.5 41t-37.5 23l-84 40q-32 12 -43 19q-31 -22 -31 -62z" />
    <glyph glyph-name="dieresis" unicode="&#xa8;" horiz-adv-x="395" 
d="M209 738h-88l17 121h87zM404 738h-87l17 121h87z" />
    <glyph glyph-name="copyright" unicode="&#xa9;" horiz-adv-x="940" 
d="M487 -60q-171 0 -292 115t-121 297q0 180 121 295q122 116 293 116q109 2 204 -50t152.5 -148t55.5 -211q0 -181 -121 -298q-121 -116 -292 -116zM865 354q0 165 -110 272q-109 106 -267 106q-157 0 -269 -107q-111 -107 -111 -273q0 -167 110 -274q112 -107 269 -107
q158 0 268 107t110 276zM492 130q-96 0 -160 62q-62 62 -62 160t63 160q64 62 160 62q85 0 145 -48q59 -46 67 -124h-81q-6 46 -42.5 74.5t-89.5 28.5q-65 0 -103 -42t-38 -111q0 -70 38 -111.5t103 -41.5q53 0 89.5 28.5t42.5 73.5h81q-7 -75 -68 -123q-59 -48 -145 -48z
" />
    <glyph glyph-name="ordfeminine" unicode="&#xaa;" horiz-adv-x="437" 
d="M405 587v-170h37v-63h-42q-67 0 -67 59v10h-5q-13 -35 -44.5 -54.5t-74.5 -19.5q-55 0 -88 31.5t-33 82.5q0 54 38.5 85t104.5 31h94v16q0 68 -77 68q-64 0 -76 -48h-78q6 52 49.5 83t110.5 31q74 0 112.5 -37t38.5 -105zM325 505v18h-83q-74 0 -74 -57q0 -25 17 -38.5
t47 -13.5q42 0 67.5 26t25.5 65z" />
    <glyph glyph-name="guillemotleft" unicode="&#xab;" horiz-adv-x="533" 
d="M166 64l-92 210l151 208h90l-138 -208l79 -210h-90zM364 64l-91 210l151 208h91l-140 -208l81 -210h-92z" />
    <glyph glyph-name="logicalnot" unicode="&#xac;" horiz-adv-x="627" 
d="M537 151h-91l23 167h-384l13 90h475z" />
    <glyph glyph-name="registered" unicode="&#xae;" horiz-adv-x="616" 
d="M300 211q-102 0 -166 61q-63 62 -63 161q0 128 88 216q89 89 215 89q102 0 167 -62t65 -160q0 -126 -90 -216q-89 -89 -216 -89zM306 243q110 0 188 79q79 79 79 190q0 86 -57 142q-55 55 -145 55q-108 0 -188 -80q-79 -79 -79 -192q0 -86 57 -140t145 -54zM269 350h-46
l36 255h126q66 0 66 -59q0 -27 -13 -48t-35 -29l-1 -3h11q29 0 25 -30l-12 -86h-46l13 93h-110zM300 566l-12 -85h69q16 0 28 9.5t14 24.5l3 19q2 32 -32 32h-70z" />
    <glyph glyph-name="overscore" unicode="&#xaf;" horiz-adv-x="354" 
d="M404 741h-322l11 76h322z" />
    <glyph glyph-name="degree" unicode="&#xb0;" horiz-adv-x="418" 
d="M407 585q0 -64 -44 -106q-44 -41 -109 -41q-62 0 -105 41q-42 42 -42 106q0 66 41.5 107.5t105.5 41.5q66 0 109.5 -41.5t43.5 -107.5zM332 585q0 35 -21.5 57.5t-54.5 22.5q-32 0 -53.5 -22.5t-21.5 -57.5q0 -33 21.5 -55.5t53.5 -22.5t54 22.5t22 55.5z" />
    <glyph glyph-name="plusminus" unicode="&#xb1;" horiz-adv-x="657" 
d="M589 336h-202l-24 -169h-98l24 169h-201l13 91h201l23 169h98l-23 -169h202zM542 0h-501l13 94h501z" />
    <glyph glyph-name="uni00B2" unicode="&#xb2;" horiz-adv-x="452" 
d="M164 374l93 4h169l-11 -78h-360l3 19q6 43 24 78.5t50.5 67t53 47t62.5 44.5q4 3 7 5l6 4q75 49 98 94q28 44 9.5 90.5t-72.5 42.5q-46 0 -76 -27t-34 -74h-88q10 81 69 129q58 49 143 49q73 0 115.5 -37.5t42.5 -99.5q0 -107 -92 -178q-22 -17 -77 -53.5t-88.5 -66
t-46.5 -60.5z" />
    <glyph glyph-name="uni00B3" unicode="&#xb3;" horiz-adv-x="465" 
d="M248 292q-87 0 -131.5 49t-30.5 129h91q-9 -48 14 -74.5t69 -26.5q49 0 81.5 30.5t32.5 77.5q0 36 -25.5 56t-69.5 20h-46l10 73h41q51 0 83 27.5t32 71.5q0 32 -22 49.5t-59 17.5q-45 0 -74.5 -26.5t-34.5 -72.5h-90q7 77 67 127q58 49 144 49q72 0 117 -34.5t45 -92.5
q0 -49 -27 -87.5t-74 -58.5l-1 -4q75 -30 75 -112q0 -80 -63 -134q-62 -54 -154 -54z" />
    <glyph glyph-name="acute" unicode="&#xb4;" horiz-adv-x="432" 
d="M417 837l-209 -116l-26 50l201 134z" />
    <glyph glyph-name="paragraph" unicode="&#xb6;" horiz-adv-x="677" 
d="M325 729h321l-11 -74h-71l-92 -656q-21 -145 -164 -145h-259l9 67h150l61 437q-84 0 -130.5 41t-46.5 112q0 97 65 157q64 61 168 61zM392 -3l92 658h-92l-103 -734h25q68 0 78 76z" />
    <glyph glyph-name="middot" unicode="&#xb7;" horiz-adv-x="297" 
d="M67 270q0 39 28.5 68t67.5 29q32 0 52.5 -20t20.5 -52q0 -39 -28 -67t-68 -28q-32 0 -52.5 20t-20.5 50z" />
    <glyph glyph-name="cedilla" unicode="&#xb8;" horiz-adv-x="524" 
d="M268 5l-35 -47q29 0 49.5 -15.5t20.5 -43.5q0 -44 -34 -69q-63 -50 -152 -12l8 56q26 -26 68 -19q43 6 43 42q0 19 -19 25t-52 -4l4 27l64 87h39z" />
    <glyph glyph-name="uni00B9" unicode="&#xb9;" horiz-adv-x="354" 
d="M235 697h-143l9 68h23q54 0 92.5 27t46.5 70h81l-79 -562h-87z" />
    <glyph glyph-name="ordmasculine" unicode="&#xba;" horiz-adv-x="450" 
d="M85 538q0 85 50 138q51 53 131 53t130 -54q50 -53 50 -137q0 -83 -50 -136q-49 -52 -130 -52q-80 0 -131 52q-50 53 -50 136zM167 539q0 -55 27 -88.5t72 -33.5q44 0 71.5 34t27.5 89q0 54 -27 87.5t-72 33.5t-72 -33t-27 -89z" />
    <glyph glyph-name="guillemotright" unicode="&#xbb;" horiz-adv-x="533" 
d="M173 482l90 -208l-149 -210h-91l139 210l-80 208h91zM372 482l91 -208l-150 -210h-92l140 210l-81 208h92z" />
    <glyph glyph-name="onequarter" unicode="&#xbc;" horiz-adv-x="894" 
d="M129 -46l523 814h85l-524 -814h-84zM232 256h-81l46 326h-123l9 65h45q42 0 66.5 22t24.5 56v4h80zM848 480l-44 -316h52l-10 -73h-52l-13 -91h-80l12 91h-213l9 68l212 321h127zM757 403l-158 -239h124z" />
    <glyph glyph-name="onehalf" unicode="&#xbd;" horiz-adv-x="908" 
d="M129 -46l523 814h85l-524 -814h-84zM232 256h-81l46 326h-123l9 65h45q42 0 66.5 22t24.5 56v4h80zM636 69l74 4h133l-10 -73h-299l2 16q6 46 28 84t51.5 61.5t62 47.5t60 43t45.5 46.5t18 58.5q0 27 -17 43t-46 16q-35 0 -59 -23.5t-28 -60.5l-80 5q11 67 60 108
q52 41 122 41q62 0 97 -32t35 -86q0 -88 -74 -150q-18 -14 -62 -44.5t-72.5 -55.5t-40.5 -49z" />
    <glyph glyph-name="threequarters" unicode="&#xbe;" horiz-adv-x="963" 
d="M210 -46l523 814h85l-524 -814h-84zM376 408q0 -68 -52 -114t-128 -46q-72 0 -109 41.5t-26 107.5h82q-7 -35 11 -56.5t51 -21.5q37 0 62 23.5t25 58.5q0 29 -19.5 44.5t-52.5 15.5h-37l11 74h30q38 0 63 22t25 57q0 24 -16 37t-43 13q-34 0 -56.5 -21.5t-26.5 -56.5h-82
q7 66 55 107.5t121 41.5q60 0 97 -29.5t37 -78.5q0 -86 -83 -122l-1 -5q62 -26 62 -92zM928 480l-44 -316h52l-10 -73h-52l-13 -91h-80l12 91h-213l9 68l212 321h127zM837 403l-158 -239h124z" />
    <glyph glyph-name="questiondown" unicode="&#xbf;" horiz-adv-x="583" 
d="M337 729h125l-17 -120h-125zM320 529h99l-27 -199q-32 7 -66 7q-80 0 -128.5 -41.5t-48.5 -109.5q0 -48 33.5 -75.5t90.5 -27.5q61 0 102 30t52 83h102q-18 -96 -92 -150q-73 -54 -180 -54q-101 0 -157 48t-56 132q0 106 74 175q75 69 187 72z" />
    <glyph glyph-name="Agrave" unicode="&#xc0;" horiz-adv-x="677" 
d="M289 984l164 -134l-41 -50l-176 116zM637 0h-115l-35 160h-324l-80 -160h-117l372 729h126zM265 362l-57 -114h259l-25 114l-49 255h-5z" />
    <glyph glyph-name="Aacute" unicode="&#xc1;" horiz-adv-x="677" 
d="M586 984l34 -68l-209 -116l-26 50zM637 0h-115l-35 160h-324l-80 -160h-117l372 729h126zM265 362l-57 -114h259l-25 114l-49 255h-5z" />
    <glyph glyph-name="Acircumflex" unicode="&#xc2;" horiz-adv-x="677" 
d="M515 791l-89 112l-122 -112l-44 49l142 127h66l105 -127zM637 0h-115l-35 160h-324l-80 -160h-117l372 729h126zM265 362l-57 -114h259l-25 114l-49 255h-5z" />
    <glyph glyph-name="Atilde" unicode="&#xc3;" horiz-adv-x="677" 
d="M349 830q-30 0 -59 -35l-39 31q47 78 110 78q25 -2 63 -19q40 -17 60 -17q34 0 60 36l41 -32q-44 -77 -114 -77q-27 0 -66 17q-38 18 -56 18zM637 0h-115l-35 160h-324l-80 -160h-117l372 729h126zM265 362l-57 -114h259l-25 114l-49 255h-5z" />
    <glyph glyph-name="Adieresis" unicode="&#xc4;" horiz-adv-x="677" 
d="M288 932h87l-16 -121h-88zM484 932h87l-17 -121h-87zM637 0h-115l-35 160h-324l-80 -160h-117l372 729h126zM265 362l-57 -114h259l-25 114l-49 255h-5z" />
    <glyph glyph-name="Aring" unicode="&#xc5;" horiz-adv-x="677" 
d="M637 0h-115l-35 160h-324l-80 -160h-117l359 703q-32 27 -32 72q0 56 37 93q38 38 95 38q45 0 72.5 -25t27.5 -68q0 -69 -55 -108zM417 852q-26 0 -44.5 -20t-18.5 -48q0 -21 12.5 -34t34.5 -13q26 0 44 19.5t18 48.5q0 21 -12.5 34t-33.5 13zM265 362l-57 -114h259
l-25 114l-49 255h-5z" />
    <glyph glyph-name="AE" unicode="&#xc6;" horiz-adv-x="963" 
d="M972 729l-13 -97h-388l-31 -222h331l-13 -91h-330l-31 -222h387l-14 -97h-496l27 193h-233l-89 -193h-113l346 729h660zM208 280h205l49 352h-93z" />
    <glyph glyph-name="Ccedilla" unicode="&#xc7;" horiz-adv-x="752" 
d="M181 421l-17 -119q-14 -95 39 -155t153 -60q82 0 145.5 43.5t90.5 117.5h113q-33 -113 -126 -184q-92 -70 -219 -74l-23 -29q30 0 50.5 -15.5t20.5 -43.5q0 -44 -34 -69q-63 -50 -152 -12l8 56q26 -26 68 -19q43 6 43 42q0 19 -19 25t-52 -4l4 27l32 43
q-122 10 -188 85.5t-66 205.5q0 204 110 331q111 126 291 126q134 0 211 -71t73 -187h-112q-4 74 -53.5 117t-135.5 43q-102 0 -172 -60q-69 -57 -83 -160z" />
    <glyph glyph-name="Egrave" unicode="&#xc8;" horiz-adv-x="644" 
d="M449 850l-41 -50l-176 116l53 68zM551 0h-492l102 729h492l-13 -97h-384l-29 -210h334l-13 -92h-335l-32 -233h384z" />
    <glyph glyph-name="Eacute" unicode="&#xc9;" horiz-adv-x="644" 
d="M616 916l-209 -116l-26 50l201 134zM551 0h-492l102 729h492l-13 -97h-384l-29 -210h334l-13 -92h-335l-32 -233h384z" />
    <glyph glyph-name="Ecircumflex" unicode="&#xca;" horiz-adv-x="644" 
d="M300 791l-44 49l142 127h66l105 -127l-58 -49l-89 112zM551 0h-492l102 729h492l-13 -97h-384l-29 -210h334l-13 -92h-335l-32 -233h384z" />
    <glyph glyph-name="Edieresis" unicode="&#xcb;" horiz-adv-x="644" 
d="M355 811h-88l17 121h87zM550 811h-87l17 121h87zM551 0h-492l102 729h492l-13 -97h-384l-29 -210h334l-13 -92h-335l-32 -233h384z" />
    <glyph glyph-name="Igrave" unicode="&#xcc;" horiz-adv-x="299" 
d="M267 850l-41 -50l-176 116l53 68zM269 729l-102 -729h-108l102 729h108z" />
    <glyph glyph-name="Iacute" unicode="&#xcd;" horiz-adv-x="299" 
d="M434 916l-209 -116l-26 50l201 134zM269 729l-102 -729h-108l102 729h108z" />
    <glyph glyph-name="Icircumflex" unicode="&#xce;" horiz-adv-x="299" 
d="M118 791l-44 49l142 127h66l105 -127l-58 -49l-89 112zM269 729l-102 -729h-108l102 729h108z" />
    <glyph glyph-name="Idieresis" unicode="&#xcf;" horiz-adv-x="299" 
d="M173 811h-88l17 121h87zM368 811h-87l17 121h87zM269 729l-102 -729h-108l102 729h108z" />
    <glyph glyph-name="Eth" unicode="&#xd0;" horiz-adv-x="748" 
d="M161 729h299q135 0 202 -64.5t67 -198.5q0 -223 -97 -344q-98 -122 -274 -122h-299l46 332h-83l10 89h86zM598 303l16 122q15 109 -26.5 158t-142.5 49h-189l-30 -211h131l-10 -89h-133l-33 -235h189q103 0 158 48.5t70 157.5z" />
    <glyph glyph-name="Ntilde" unicode="&#xd1;" horiz-adv-x="791" 
d="M552 795q-26 0 -65 17q-37 18 -57 18q-30 0 -59 -35l-39 31q46 78 110 78q25 -2 63 -19q40 -17 60 -17q35 0 60 36l41 -32q-44 -77 -114 -77zM167 0h-108l102 729h131l281 -586h6l23 218l51 368h108l-102 -729h-132l-279 586h-6l-22 -210z" />
    <glyph glyph-name="Ograve" unicode="&#xd2;" 
d="M505 850l-41 -50l-176 116l53 68zM52 284q0 203 112 328q112 126 291 126q142 0 220 -77.5t78 -217.5q0 -203 -112 -328q-113 -125 -291 -125q-143 0 -220.5 76.5t-77.5 217.5zM180 416l-15 -103q-15 -105 38.5 -165.5t159.5 -60.5q107 0 177 61t85 165l15 103
q15 105 -39 165t-160 60q-107 0 -176.5 -60.5t-84.5 -164.5z" />
    <glyph glyph-name="Oacute" unicode="&#xd3;" 
d="M672 916l-209 -116l-26 50l201 134zM52 284q0 203 112 328q112 126 291 126q142 0 220 -77.5t78 -217.5q0 -203 -112 -328q-113 -125 -291 -125q-143 0 -220.5 76.5t-77.5 217.5zM180 416l-15 -103q-15 -105 38.5 -165.5t159.5 -60.5q107 0 177 61t85 165l15 103
q15 105 -39 165t-160 60q-107 0 -176.5 -60.5t-84.5 -164.5z" />
    <glyph glyph-name="Ocircumflex" unicode="&#xd4;" 
d="M356 791l-44 49l142 127h66l105 -127l-58 -49l-89 112zM52 284q0 203 112 328q112 126 291 126q142 0 220 -77.5t78 -217.5q0 -203 -112 -328q-113 -125 -291 -125q-143 0 -220.5 76.5t-77.5 217.5zM180 416l-15 -103q-15 -105 38.5 -165.5t159.5 -60.5q107 0 177 61
t85 165l15 103q15 105 -39 165t-160 60q-107 0 -176.5 -60.5t-84.5 -164.5z" />
    <glyph glyph-name="Otilde" unicode="&#xd5;" 
d="M523 795q-27 0 -66 17q-38 18 -56 18q-30 0 -59 -35l-39 31q47 78 110 78q25 -2 63 -19q40 -17 60 -17q34 0 60 36l41 -32q-44 -77 -114 -77zM52 284q0 203 112 328q112 126 291 126q142 0 220 -77.5t78 -217.5q0 -203 -112 -328q-113 -125 -291 -125q-143 0 -220.5 76.5
t-77.5 217.5zM180 416l-15 -103q-15 -105 38.5 -165.5t159.5 -60.5q107 0 177 61t85 165l15 103q15 105 -39 165t-160 60q-107 0 -176.5 -60.5t-84.5 -164.5z" />
    <glyph glyph-name="Odieresis" unicode="&#xd6;" 
d="M410 811h-88l17 121h87zM605 811h-87l17 121h87zM52 284q0 203 112 328q112 126 291 126q142 0 220 -77.5t78 -217.5q0 -203 -112 -328q-113 -125 -291 -125q-143 0 -220.5 76.5t-77.5 217.5zM180 416l-15 -103q-15 -105 38.5 -165.5t159.5 -60.5q107 0 177 61t85 165
l15 103q15 105 -39 165t-160 60q-107 0 -176.5 -60.5t-84.5 -164.5z" />
    <glyph glyph-name="multiply" unicode="&#xd7;" horiz-adv-x="717" 
d="M117 18l-56 68l238 214l-178 215l74 67l174 -211h10l231 211l56 -67l-237 -215l177 -214l-74 -68l-173 211h-10z" />
    <glyph glyph-name="Oslash" unicode="&#xd8;" 
d="M774 661l40 -70l-73 -48q12 -47 12 -100q0 -203 -112 -328q-113 -125 -291 -125q-184 0 -257 124l-69 -46l-35 71l74 49q-11 49 -11 96q0 203 112 328q112 126 291 126t254 -120zM180 416l-15 -103q-5 -32 -3 -59l456 303q-50 84 -177 84q-107 0 -176.5 -60.5
t-84.5 -164.5zM625 313l15 103q5 37 2 61l-458 -303q50 -87 179 -87q107 0 177 61t85 165z" />
    <glyph glyph-name="Ugrave" unicode="&#xd9;" 
d="M522 850l-41 -50l-176 116l53 68zM108 272l65 457h107l-63 -448q-13 -89 31.5 -140t132.5 -51t146 50.5t71 140.5l63 448h107l-64 -457q-18 -129 -110 -206q-91 -76 -228 -76q-140 0 -208 76t-50 206z" />
    <glyph glyph-name="Uacute" unicode="&#xda;" 
d="M689 916l-209 -116l-26 50l201 134zM108 272l65 457h107l-63 -448q-13 -89 31.5 -140t132.5 -51t146 50.5t71 140.5l63 448h107l-64 -457q-18 -129 -110 -206q-91 -76 -228 -76q-140 0 -208 76t-50 206z" />
    <glyph glyph-name="Ucircumflex" unicode="&#xdb;" 
d="M373 791l-44 49l142 127h66l105 -127l-58 -49l-89 112zM108 272l65 457h107l-63 -448q-13 -89 31.5 -140t132.5 -51t146 50.5t71 140.5l63 448h107l-64 -457q-18 -129 -110 -206q-91 -76 -228 -76q-140 0 -208 76t-50 206z" />
    <glyph glyph-name="Udieresis" unicode="&#xdc;" 
d="M428 811h-88l17 121h87zM623 811h-87l17 121h87zM108 272l65 457h107l-63 -448q-13 -89 31.5 -140t132.5 -51t146 50.5t71 140.5l63 448h107l-64 -457q-18 -129 -110 -206q-91 -76 -228 -76q-140 0 -208 76t-50 206z" />
    <glyph glyph-name="Yacute" unicode="&#xdd;" horiz-adv-x="663" 
d="M616 916l-209 -116l-26 50l201 134zM281 291l-211 438h126l80 -179l66 -158h7l112 158l128 179h135l-334 -438l-41 -291h-108z" />
    <glyph glyph-name="Thorn" unicode="&#xde;" horiz-adv-x="678" 
d="M252 600h214q100 0 151.5 -48t51.5 -137q0 -131 -73 -208q-74 -77 -196 -77h-214l-19 -130h-108l102 730h109zM546 331l9 69q7 48 -21 74t-82 26h-214l-5 -36h-1l-33 -241h206q59 0 96.5 29.5t44.5 78.5z" />
    <glyph glyph-name="germandbls" unicode="&#xdf;" horiz-adv-x="593" 
d="M106 419h-72l12 87h72l5 31q12 96 78 148q67 54 162 54q86 0 136.5 -42t50.5 -111q0 -62 -34 -111t-91 -69l-1 -8q61 -9 93 -51.5t32 -104.5q0 -109 -73 -176q-74 -66 -194 -66h-68l13 89h66q56 0 94.5 28.5t45.5 74.5l8 54q7 50 -23.5 78t-90.5 28h-33l13 87h18
q39 0 69 19.5t34 49.5l10 66q5 31 -21.5 50t-69.5 19q-50 0 -81.5 -30t-38.5 -82l-75 -531h-105z" />
    <glyph glyph-name="agrave" unicode="&#xe0;" horiz-adv-x="570" 
d="M361 650l-41 -50l-176 116l53 68zM21 122q0 86 59 139t156 53h150l6 39q15 102 -98 102q-49 0 -80.5 -23.5t-40.5 -61.5h-104q18 77 82.5 121.5t158.5 44.5q104 0 150.5 -50t33.5 -142l-38 -269h73l-11 -75h-79q-39 0 -57.5 16.5t-15.5 52.5l2 19h-8q-23 -45 -74 -71.5
t-116 -26.5q-69 0 -109 35.5t-40 96.5zM132 174l-4 -30q-5 -35 16 -53.5t63 -18.5q67 0 113 40t54 106l3 24h-138q-45 0 -74 -19t-33 -49z" />
    <glyph glyph-name="aacute" unicode="&#xe1;" horiz-adv-x="570" 
d="M528 716l-209 -116l-26 50l201 134zM21 122q0 86 59 139t156 53h150l6 39q15 102 -98 102q-49 0 -80.5 -23.5t-40.5 -61.5h-104q18 77 82.5 121.5t158.5 44.5q104 0 150.5 -50t33.5 -142l-38 -269h73l-11 -75h-79q-39 0 -57.5 16.5t-15.5 52.5l2 19h-8q-23 -45 -74 -71.5
t-116 -26.5q-69 0 -109 35.5t-40 96.5zM132 174l-4 -30q-5 -35 16 -53.5t63 -18.5q67 0 113 40t54 106l3 24h-138q-45 0 -74 -19t-33 -49z" />
    <glyph glyph-name="acircumflex" unicode="&#xe2;" horiz-adv-x="570" 
d="M212 591l-44 49l142 127h66l105 -127l-58 -49l-89 112zM21 122q0 86 59 139t156 53h150l6 39q15 102 -98 102q-49 0 -80.5 -23.5t-40.5 -61.5h-104q18 77 82.5 121.5t158.5 44.5q104 0 150.5 -50t33.5 -142l-38 -269h73l-11 -75h-79q-39 0 -57.5 16.5t-15.5 52.5l2 19h-8
q-23 -45 -74 -71.5t-116 -26.5q-69 0 -109 35.5t-40 96.5zM132 174l-4 -30q-5 -35 16 -53.5t63 -18.5q67 0 113 40t54 106l3 24h-138q-45 0 -74 -19t-33 -49z" />
    <glyph glyph-name="atilde" unicode="&#xe3;" horiz-adv-x="570" 
d="M380 594q-26 0 -65 17q-37 18 -57 18q-30 0 -59 -35l-39 31q46 78 110 78q25 -2 63 -19q40 -17 60 -17q35 0 60 36l41 -32q-44 -77 -114 -77zM21 122q0 86 59 139t156 53h150l6 39q15 102 -98 102q-49 0 -80.5 -23.5t-40.5 -61.5h-104q18 77 82.5 121.5t158.5 44.5
q104 0 150.5 -50t33.5 -142l-38 -269h73l-11 -75h-79q-39 0 -57.5 16.5t-15.5 52.5l2 19h-8q-23 -45 -74 -71.5t-116 -26.5q-69 0 -109 35.5t-40 96.5zM132 174l-4 -30q-5 -35 16 -53.5t63 -18.5q67 0 113 40t54 106l3 24h-138q-45 0 -74 -19t-33 -49z" />
    <glyph glyph-name="adieresis" unicode="&#xe4;" horiz-adv-x="570" 
d="M267 611h-88l17 121h87zM462 611h-87l17 121h87zM21 122q0 86 59 139t156 53h150l6 39q15 102 -98 102q-49 0 -80.5 -23.5t-40.5 -61.5h-104q18 77 82.5 121.5t158.5 44.5q104 0 150.5 -50t33.5 -142l-38 -269h73l-11 -75h-79q-39 0 -57.5 16.5t-15.5 52.5l2 19h-8
q-23 -45 -74 -71.5t-116 -26.5q-69 0 -109 35.5t-40 96.5zM132 174l-4 -30q-5 -35 16 -53.5t63 -18.5q67 0 113 40t54 106l3 24h-138q-45 0 -74 -19t-33 -49z" />
    <glyph glyph-name="aring" unicode="&#xe5;" horiz-adv-x="570" 
d="M494 344l-38 -269h73l-11 -75h-79q-39 0 -57.5 16.5t-15.5 52.5l2 19h-8q-23 -45 -74 -71.5t-116 -26.5q-69 0 -109 35.5t-40 96.5q0 86 59 139t156 53h150l6 39q15 102 -98 102q-49 0 -80.5 -23.5t-40.5 -61.5h-104q14 60 57.5 101t108.5 57q-29 26 -29 69q0 56 37 93
q38 38 95 38q45 0 72.5 -25t27.5 -68q0 -69 -54 -107q132 -33 110 -184zM330 674q-26 0 -44.5 -20t-18.5 -48q0 -21 13 -34t34 -13q26 0 44 20t18 48q0 21 -12.5 34t-33.5 13zM374 218l3 24h-138q-45 0 -74 -19t-33 -49l-4 -30q-5 -35 16 -53.5t63 -18.5q67 0 113 40t54 106
z" />
    <glyph glyph-name="ae" unicode="&#xe6;" horiz-adv-x="922" 
d="M180 -10q-76 0 -117.5 35t-41.5 97q0 86 60 139q62 53 161 53h152l4 31q7 51 -21 80t-80 29q-49 0 -82.5 -23t-41.5 -61h-104q18 76 84 121t157 45q63 0 107.5 -24t60.5 -65q35 41 89.5 65t114.5 24q94 0 148.5 -53.5t54.5 -143.5q0 -52 -15 -100h-378q-12 -75 22 -118.5
t108 -43.5q51 0 91.5 22t57.5 59h97q-27 -77 -97 -123q-71 -45 -161 -45q-78 0 -129.5 33.5t-67.5 93.5q-33 -59 -95.5 -93t-137.5 -34zM503 317h280q8 61 -24.5 97.5t-93.5 36.5t-105.5 -36.5t-56.5 -97.5zM209 72q68 0 116 41.5t57 112.5l2 16h-145q-45 0 -73.5 -18.5
t-33.5 -49.5l-5 -30q-4 -34 18 -53t64 -19z" />
    <glyph glyph-name="ccedilla" unicode="&#xe7;" horiz-adv-x="566" 
d="M265 76q54 0 94.5 29t56.5 78h102q-23 -85 -89 -136.5t-157 -56.5l-29 -39q29 0 49.5 -15.5t20.5 -43.5q0 -44 -34 -69q-63 -50 -152 -12l8 56q26 -26 68 -19q43 6 43 42q0 19 -19 25t-52 -4l4 27l40 54q-87 10 -134.5 66.5t-47.5 147.5q0 145 83 237q82 93 214 93
q93 0 149 -51t57 -136h-103q-4 48 -36 74t-84 26q-64 0 -109.5 -41t-55.5 -108l-12 -82q-10 -65 24.5 -103.5t100.5 -38.5z" />
    <glyph glyph-name="egrave" unicode="&#xe8;" horiz-adv-x="571" 
d="M380 650l-41 -50l-176 116l53 68zM38 208q0 144 81 236q83 92 211 92q96 0 151 -51.5t55 -143.5q0 -37 -14 -101h-378l-4 -29q-8 -62 26.5 -100.5t99.5 -38.5q50 0 90 24t58 64h102q-26 -77 -98 -124q-71 -46 -165 -46q-102 0 -158.5 58t-56.5 160zM157 326l-2 -12h278
l2 17q6 55 -26 89t-92 34q-64 0 -109 -35.5t-51 -92.5z" />
    <glyph glyph-name="eacute" unicode="&#xe9;" horiz-adv-x="571" 
d="M547 716l-209 -116l-26 50l201 134zM38 208q0 144 81 236q83 92 211 92q96 0 151 -51.5t55 -143.5q0 -37 -14 -101h-378l-4 -29q-8 -62 26.5 -100.5t99.5 -38.5q50 0 90 24t58 64h102q-26 -77 -98 -124q-71 -46 -165 -46q-102 0 -158.5 58t-56.5 160zM157 326l-2 -12h278
l2 17q6 55 -26 89t-92 34q-64 0 -109 -35.5t-51 -92.5z" />
    <glyph glyph-name="ecircumflex" unicode="&#xea;" horiz-adv-x="571" 
d="M231 591l-44 49l142 127h66l105 -127l-58 -49l-89 112zM38 208q0 144 81 236q83 92 211 92q96 0 151 -51.5t55 -143.5q0 -37 -14 -101h-378l-4 -29q-8 -62 26.5 -100.5t99.5 -38.5q50 0 90 24t58 64h102q-26 -77 -98 -124q-71 -46 -165 -46q-102 0 -158.5 58t-56.5 160z
M157 326l-2 -12h278l2 17q6 55 -26 89t-92 34q-64 0 -109 -35.5t-51 -92.5z" />
    <glyph glyph-name="edieresis" unicode="&#xeb;" horiz-adv-x="571" 
d="M286 611h-88l17 121h87zM481 611h-87l17 121h87zM38 208q0 144 81 236q83 92 211 92q96 0 151 -51.5t55 -143.5q0 -37 -14 -101h-378l-4 -29q-8 -62 26.5 -100.5t99.5 -38.5q50 0 90 24t58 64h102q-26 -77 -98 -124q-71 -46 -165 -46q-102 0 -158.5 58t-56.5 160z
M157 326l-2 -12h278l2 17q6 55 -26 89t-92 34q-64 0 -109 -35.5t-51 -92.5z" />
    <glyph glyph-name="igrave" unicode="&#xec;" horiz-adv-x="263" 
d="M222 654l-41 -50l-176 116l53 68zM147 0h-103l74 526h103z" />
    <glyph glyph-name="iacute" unicode="&#xed;" horiz-adv-x="263" 
d="M389 720l-209 -116l-26 50l201 134zM147 0h-103l74 526h103z" />
    <glyph glyph-name="icircumflex" unicode="&#xee;" horiz-adv-x="263" 
d="M73 595l-44 49l142 127h66l105 -127l-58 -49l-89 112zM147 0h-103l74 526h103z" />
    <glyph glyph-name="idieresis" unicode="&#xef;" horiz-adv-x="263" 
d="M128 614h-88l17 121h87zM323 614h-87l17 121h87zM147 0h-103l74 526h103z" />
    <glyph glyph-name="eth" unicode="&#xf0;" horiz-adv-x="596" 
d="M34 197q0 124 79 206t198 82q41 0 66 -9l2 2l-36 43l-39 59l-131 -46l11 76l83 30l-69 114h130l47 -77l137 48l-10 -76l-93 -31l73 -119q26 -44 35 -63q13 -26 25 -67q14 -47 14 -88q0 -126 -85 -208q-85 -83 -213 -83q-104 0 -164 55.5t-60 151.5zM155 279l-10 -71
q-9 -59 26 -93.5t102 -34.5t111.5 34.5t52.5 93.5l10 71q9 59 -26 93.5t-102 34.5t-111.5 -34.5t-52.5 -93.5z" />
    <glyph glyph-name="ntilde" unicode="&#xf1;" horiz-adv-x="623" 
d="M476 594q-26 0 -65 17q-37 18 -57 18q-30 0 -59 -35l-39 31q46 78 110 78q25 -2 63 -19q40 -17 60 -17q35 0 60 36l41 -32q-44 -77 -114 -77zM147 0h-103l74 526h91l-1 -98h8q31 51 81.5 79.5t109.5 28.5q86 0 125.5 -57.5t25.5 -157.5l-45 -321h-104l44 311
q18 135 -98 135q-65 0 -111.5 -47t-57.5 -123z" />
    <glyph glyph-name="ograve" unicode="&#xf2;" horiz-adv-x="591" 
d="M385 650l-41 -50l-176 116l53 68zM37 208q0 144 83 236q84 92 214 92q103 0 162 -58t59 -161q0 -143 -84 -235q-83 -92 -214 -92q-104 0 -162 58t-58 160zM152 302l-11 -82q-9 -68 26.5 -106t102.5 -38t113.5 38.5t55.5 105.5l11 82q10 66 -25.5 106.5t-102.5 40.5
t-114 -40.5t-56 -106.5z" />
    <glyph glyph-name="oacute" unicode="&#xf3;" horiz-adv-x="591" 
d="M552 716l-209 -116l-26 50l201 134zM37 208q0 144 83 236q84 92 214 92q103 0 162 -58t59 -161q0 -143 -84 -235q-83 -92 -214 -92q-104 0 -162 58t-58 160zM152 302l-11 -82q-9 -68 26.5 -106t102.5 -38t113.5 38.5t55.5 105.5l11 82q10 66 -25.5 106.5t-102.5 40.5
t-114 -40.5t-56 -106.5z" />
    <glyph glyph-name="ocircumflex" unicode="&#xf4;" horiz-adv-x="591" 
d="M236 591l-44 49l142 127h66l105 -127l-58 -49l-89 112zM37 208q0 144 83 236q84 92 214 92q103 0 162 -58t59 -161q0 -143 -84 -235q-83 -92 -214 -92q-104 0 -162 58t-58 160zM152 302l-11 -82q-9 -68 26.5 -106t102.5 -38t113.5 38.5t55.5 105.5l11 82
q10 66 -25.5 106.5t-102.5 40.5t-114 -40.5t-56 -106.5z" />
    <glyph glyph-name="otilde" unicode="&#xf5;" horiz-adv-x="591" 
d="M403 594q-27 0 -66 17q-37 18 -56 18q-30 0 -59 -35l-39 31q47 78 110 78q25 -2 63 -19q40 -17 60 -17q34 0 60 36l41 -32q-44 -77 -114 -77zM37 208q0 144 83 236q84 92 214 92q103 0 162 -58t59 -161q0 -143 -84 -235q-83 -92 -214 -92q-104 0 -162 58t-58 160z
M152 302l-11 -82q-9 -68 26.5 -106t102.5 -38t113.5 38.5t55.5 105.5l11 82q10 66 -25.5 106.5t-102.5 40.5t-114 -40.5t-56 -106.5z" />
    <glyph glyph-name="odieresis" unicode="&#xf6;" horiz-adv-x="591" 
d="M290 611h-88l17 121h87zM485 611h-87l17 121h87zM37 208q0 144 83 236q84 92 214 92q103 0 162 -58t59 -161q0 -143 -84 -235q-83 -92 -214 -92q-104 0 -162 58t-58 160zM152 302l-11 -82q-9 -68 26.5 -106t102.5 -38t113.5 38.5t55.5 105.5l11 82q10 66 -25.5 106.5
t-102.5 40.5t-114 -40.5t-56 -106.5z" />
    <glyph glyph-name="divide" unicode="&#xf7;" horiz-adv-x="662" 
d="M416 431h-127l19 130h127zM575 247h-492l12 91h492zM360 30h-127l18 129h127z" />
    <glyph glyph-name="oslash" unicode="&#xf8;" horiz-adv-x="591" 
d="M575 490l32 -61l-93 -62q4 -19 4 -50q0 -143 -84 -235q-83 -92 -214 -92q-114 0 -171 68l-34 -22l-31 59l31 21q-15 40 -15 92q0 144 83 236q84 92 214 92q140 0 194 -102zM115 302l-12 -82q-3 -25 0 -46l303 203q-28 72 -121 72q-67 0 -114 -40.5t-56 -106.5zM402 220
l11 80l-282 -187q37 -37 101 -37q67 0 114 38.5t56 105.5z" />
    <glyph glyph-name="ugrave" unicode="&#xf9;" horiz-adv-x="617" 
d="M408 654l-41 -50l-176 116l53 68zM483 526h103l-74 -526h-89v97h-9q-28 -50 -78.5 -78.5t-112.5 -28.5q-83 0 -121 53t-25 149l47 334h104l-45 -319q-20 -131 91 -131q66 0 112.5 47.5t57.5 126.5z" />
    <glyph glyph-name="uacute" unicode="&#xfa;" horiz-adv-x="617" 
d="M575 720l-209 -116l-26 50l201 134zM483 526h103l-74 -526h-89v97h-9q-28 -50 -78.5 -78.5t-112.5 -28.5q-83 0 -121 53t-25 149l47 334h104l-45 -319q-20 -131 91 -131q66 0 112.5 47.5t57.5 126.5z" />
    <glyph glyph-name="ucircumflex" unicode="&#xfb;" horiz-adv-x="617" 
d="M259 595l-44 49l142 127h66l105 -127l-58 -49l-89 112zM483 526h103l-74 -526h-89v97h-9q-28 -50 -78.5 -78.5t-112.5 -28.5q-83 0 -121 53t-25 149l47 334h104l-45 -319q-20 -131 91 -131q66 0 112.5 47.5t57.5 126.5z" />
    <glyph glyph-name="udieresis" unicode="&#xfc;" horiz-adv-x="617" 
d="M314 614h-88l17 121h87zM509 614h-87l17 121h87zM483 526h103l-74 -526h-89v97h-9q-28 -50 -78.5 -78.5t-112.5 -28.5q-83 0 -121 53t-25 149l47 334h104l-45 -319q-20 -131 91 -131q66 0 112.5 47.5t57.5 126.5z" />
    <glyph glyph-name="yacute" unicode="&#xfd;" horiz-adv-x="532" 
d="M523 720l-209 -116l-26 50l201 134zM186 65l-153 461h109l49 -169l52 -192h6l110 192l96 169h115l-282 -462l-19 -140q-5 -35 -22 -58q-20 -33 -80 -33h-135l13 84h121z" />
    <glyph glyph-name="thorn" unicode="&#xfe;" horiz-adv-x="633" 
d="M123 -167h-103l127 903h103l-43 -303h8q31 49 83.5 76t115.5 27q88 0 136 -53.5t48 -151.5q0 -148 -73 -242q-72 -93 -187 -93q-66 0 -110 27t-60 76h-8zM317 81q66 0 110 36t52 99l14 100q9 62 -23.5 98t-100.5 36q-72 0 -121.5 -42.5t-59.5 -111.5l-8 -60
q-10 -70 28 -112.5t109 -42.5z" />
    <glyph glyph-name="ydieresis" unicode="&#xff;" horiz-adv-x="532" 
d="M261 615h-88l17 121h87zM456 615h-87l17 121h87zM186 65l-153 461h109l49 -169l52 -192h6l110 192l96 169h115l-282 -462l-19 -140q-5 -35 -22 -58q-20 -33 -80 -33h-135l13 84h121z" />
    <glyph glyph-name="Amacron" unicode="&#x100;" horiz-adv-x="677" 
d="M261 884h322l-11 -76h-322zM637 0h-115l-35 160h-324l-80 -160h-117l372 729h126zM265 362l-57 -114h259l-25 114l-49 255h-5z" />
    <glyph glyph-name="amacron" unicode="&#x101;" horiz-adv-x="570" 
d="M481 608h-322l11 76h322zM21 122q0 86 59 139t156 53h150l6 39q15 102 -98 102q-49 0 -80.5 -23.5t-40.5 -61.5h-104q18 77 82.5 121.5t158.5 44.5q104 0 150.5 -50t33.5 -142l-38 -269h73l-11 -75h-79q-39 0 -57.5 16.5t-15.5 52.5l2 19h-8q-23 -45 -74 -71.5
t-116 -26.5q-69 0 -109 35.5t-40 96.5zM132 174l-4 -30q-5 -35 16 -53.5t63 -18.5q67 0 113 40t54 106l3 24h-138q-45 0 -74 -19t-33 -49z" />
    <glyph glyph-name="Abreve" unicode="&#x102;" horiz-adv-x="677" 
d="M410 798q-66 0 -101 41t-26 107h68q-6 -39 13 -62.5t55 -23.5t61.5 23.5t30.5 62.5h69q-9 -66 -55.5 -107t-114.5 -41zM637 0h-115l-35 160h-324l-80 -160h-117l372 729h126zM265 362l-57 -114h259l-25 114l-49 255h-5z" />
    <glyph glyph-name="abreve" unicode="&#x103;" horiz-adv-x="570" 
d="M419 745h69q-9 -66 -55.5 -107t-114.5 -41q-66 0 -101 41t-26 107h68q-6 -39 13 -62.5t55 -23.5t61.5 23.5t30.5 62.5zM21 122q0 86 59 139t156 53h150l6 39q15 102 -98 102q-49 0 -80.5 -23.5t-40.5 -61.5h-104q18 77 82.5 121.5t158.5 44.5q104 0 150.5 -50t33.5 -142
l-38 -269h73l-11 -75h-79q-39 0 -57.5 16.5t-15.5 52.5l2 19h-8q-23 -45 -74 -71.5t-116 -26.5q-69 0 -109 35.5t-40 96.5zM132 174l-4 -30q-5 -35 16 -53.5t63 -18.5q67 0 113 40t54 106l3 24h-138q-45 0 -74 -19t-33 -49z" />
    <glyph glyph-name="Aogonek" unicode="&#x104;" horiz-adv-x="677" 
d="M596 -130q27 0 54 12l-8 -57q-32 -15 -74 -13t-66.5 23t-24.5 56q0 65 65 109h-20l-35 160h-324l-80 -160h-117l372 729h126l173 -729q-44 -11 -69 -35t-25 -55q0 -40 53 -40zM265 362l-57 -114h259l-25 114l-49 255h-5z" />
    <glyph glyph-name="aogonek" unicode="&#x105;" horiz-adv-x="570" 
d="M477 -130q27 0 54 12l-8 -57q-32 -15 -74 -13t-66.5 23t-24.5 56q0 67 66 110q-64 4 -58 68l2 19h-8q-23 -45 -74 -71.5t-116 -26.5q-69 0 -109 35.5t-40 96.5q0 86 59 139t156 53h150l6 39q15 102 -98 102q-49 0 -80.5 -23.5t-40.5 -61.5h-104q18 77 82.5 121.5
t158.5 44.5q104 0 150.5 -50t33.5 -142l-38 -269h73l-11 -75q-44 -11 -69 -35t-25 -55q0 -40 53 -40zM374 218l3 24h-138q-45 0 -74 -19t-33 -49l-4 -30q-5 -35 16 -53.5t63 -18.5q67 0 113 40t54 106z" />
    <glyph glyph-name="Cacute" unicode="&#x106;" horiz-adv-x="752" 
d="M664 916l-209 -116l-26 50l201 134zM340 -10q-138 0 -213 76.5t-75 215.5q0 204 110 331q111 126 291 126q134 0 211 -71t73 -187h-112q-4 74 -53.5 117t-135.5 43q-102 0 -172 -60q-69 -57 -83 -160l-17 -119q-14 -95 39 -155t153 -60q82 0 145.5 43.5t90.5 117.5h113
q-34 -118 -133 -189q-98 -69 -232 -69z" />
    <glyph glyph-name="cacute" unicode="&#x107;" horiz-adv-x="566" 
d="M551 716l-209 -116l-26 50l201 134zM416 183h102q-25 -90 -95.5 -141.5t-168.5 -51.5q-102 0 -159.5 57t-57.5 159q0 145 83 237q82 93 214 93q93 0 149 -51t57 -136h-103q-4 48 -36 74t-84 26q-64 0 -109.5 -41t-55.5 -108l-12 -82q-10 -65 24.5 -103.5t100.5 -38.5
q54 0 94.5 29t56.5 78z" />
    <glyph glyph-name="Cdotaccent" unicode="&#x10a;" horiz-adv-x="752" 
d="M500 811h-87l17 121h87zM340 -10q-138 0 -213 76.5t-75 215.5q0 204 110 331q111 126 291 126q134 0 211 -71t73 -187h-112q-4 74 -53.5 117t-135.5 43q-102 0 -172 -60q-69 -57 -83 -160l-17 -119q-14 -95 39 -155t153 -60q82 0 145.5 43.5t90.5 117.5h113
q-34 -118 -133 -189q-98 -69 -232 -69z" />
    <glyph glyph-name="cdotaccent" unicode="&#x10b;" horiz-adv-x="566" 
d="M387 611h-87l17 121h87zM416 183h102q-25 -90 -95.5 -141.5t-168.5 -51.5q-102 0 -159.5 57t-57.5 159q0 145 83 237q82 93 214 93q93 0 149 -51t57 -136h-103q-4 48 -36 74t-84 26q-64 0 -109.5 -41t-55.5 -108l-12 -82q-10 -65 24.5 -103.5t100.5 -38.5q54 0 94.5 29
t56.5 78z" />
    <glyph glyph-name="Ccaron" unicode="&#x10c;" horiz-adv-x="752" 
d="M419 778l-105 129l57 48l90 -113l121 113l44 -48l-141 -129h-66zM340 -10q-138 0 -213 76.5t-75 215.5q0 204 110 331q111 126 291 126q134 0 211 -71t73 -187h-112q-4 74 -53.5 117t-135.5 43q-102 0 -172 -60q-69 -57 -83 -160l-17 -119q-14 -95 39 -155t153 -60
q82 0 145.5 43.5t90.5 117.5h113q-34 -118 -133 -189q-98 -69 -232 -69z" />
    <glyph glyph-name="ccaron" unicode="&#x10d;" horiz-adv-x="566" 
d="M306 578l-105 129l57 48l90 -113l121 113l44 -48l-141 -129h-66zM416 183h102q-25 -90 -95.5 -141.5t-168.5 -51.5q-102 0 -159.5 57t-57.5 159q0 145 83 237q82 93 214 93q93 0 149 -51t57 -136h-103q-4 48 -36 74t-84 26q-64 0 -109.5 -41t-55.5 -108l-12 -82
q-10 -65 24.5 -103.5t100.5 -38.5q54 0 94.5 29t56.5 78z" />
    <glyph glyph-name="Dcaron" unicode="&#x10e;" horiz-adv-x="748" 
d="M409 778l-105 129l57 48l90 -113l121 113l44 -48l-141 -129h-66zM358 0h-299l102 729h299q135 0 202 -64.5t67 -198.5q0 -223 -97 -344q-98 -122 -274 -122zM256 632l-75 -535h189q103 0 158 48.5t70 157.5l16 122q15 109 -26.5 158t-142.5 49h-189z" />
    <glyph glyph-name="dcaron" unicode="&#x10f;" horiz-adv-x="633" 
d="M220 -10q-88 0 -136 53.5t-48 150.5q0 149 72 242t187 93q133 0 171 -102h7l43 309h103l-103 -736h-92l2 93h-7q-32 -49 -84.5 -76t-114.5 -27zM697 521l5 39q70 0 77 61l1 4h-60l16 111h112l-15 -112q-7 -49 -43.5 -76t-92.5 -27zM264 75q72 0 122 43t59 112l8 59
q10 70 -28 112.5t-109 42.5q-66 0 -109.5 -36t-52.5 -99l-14 -99q-8 -62 24.5 -98.5t99.5 -36.5z" />
    <glyph glyph-name="Dcroat" unicode="&#x110;" horiz-adv-x="748" 
d="M161 729h299q135 0 202 -64.5t67 -198.5q0 -223 -97 -344q-98 -122 -274 -122h-299l46 332h-83l10 89h86zM598 303l16 122q15 109 -26.5 158t-142.5 49h-189l-30 -211h131l-10 -89h-133l-33 -235h189q103 0 158 48.5t70 157.5z" />
    <glyph glyph-name="dslash" unicode="&#x111;" horiz-adv-x="633" 
d="M608 659h70l-10 -77h-71l-81 -582h-92l2 93h-7q-32 -49 -84.5 -76t-114.5 -27q-88 0 -136 53.5t-48 150.5q0 149 72 242t187 93q133 0 171 -102h7l22 155h-175l11 77h174l11 77h103zM445 230l8 59q10 70 -28 112.5t-109 42.5q-66 0 -109.5 -36t-52.5 -99l-14 -99
q-8 -62 24.5 -98.5t99.5 -36.5q72 0 122 43t59 112z" />
    <glyph glyph-name="Emacron" unicode="&#x112;" horiz-adv-x="644" 
d="M568 808h-322l11 76h322zM551 0h-492l102 729h492l-13 -97h-384l-29 -210h334l-13 -92h-335l-32 -233h384z" />
    <glyph glyph-name="emacron" unicode="&#x113;" horiz-adv-x="571" 
d="M499 608h-322l11 76h322zM38 208q0 144 81 236q83 92 211 92q96 0 151 -51.5t55 -143.5q0 -37 -14 -101h-378l-4 -29q-8 -62 26.5 -100.5t99.5 -38.5q50 0 90 24t58 64h102q-26 -77 -98 -124q-71 -46 -165 -46q-102 0 -158.5 58t-56.5 160zM157 326l-2 -12h278l2 17
q6 55 -26 89t-92 34q-64 0 -109 -35.5t-51 -92.5z" />
    <glyph glyph-name="Edotaccent" unicode="&#x116;" horiz-adv-x="644" 
d="M452 811h-87l17 121h87zM551 0h-492l102 729h492l-13 -97h-384l-29 -210h334l-13 -92h-335l-32 -233h384z" />
    <glyph glyph-name="edotaccent" unicode="&#x117;" horiz-adv-x="571" 
d="M383 611h-87l17 121h87zM38 208q0 144 81 236q83 92 211 92q96 0 151 -51.5t55 -143.5q0 -37 -14 -101h-378l-4 -29q-8 -62 26.5 -100.5t99.5 -38.5q50 0 90 24t58 64h102q-26 -77 -98 -124q-71 -46 -165 -46q-102 0 -158.5 58t-56.5 160zM157 326l-2 -12h278l2 17
q6 55 -26 89t-92 34q-64 0 -109 -35.5t-51 -92.5z" />
    <glyph glyph-name="Eogonek" unicode="&#x118;" horiz-adv-x="644" 
d="M653 729l-13 -97h-384l-29 -210h334l-13 -92h-335l-32 -233h384l-14 -97q-44 -11 -69 -35t-25 -55q0 -40 53 -40q27 0 54 12l-8 -57q-32 -15 -74 -13t-66.5 23t-24.5 56q0 65 65 109h-397l102 729h492z" />
    <glyph glyph-name="eogonek" unicode="&#x119;" horiz-adv-x="571" 
d="M522 240h-378l-4 -29q-8 -62 26.5 -100.5t99.5 -38.5q50 0 90 24t58 64h102q-23 -67 -82.5 -112t-137.5 -55l1 -3q-44 -11 -69 -35t-25 -55q0 -40 53 -40q27 0 54 12l-8 -57q-32 -15 -74 -13t-66.5 23t-24.5 56q0 69 70 112q-81 13 -125 69t-44 146q0 144 81 236
q83 92 211 92q96 0 151 -51.5t55 -143.5q0 -37 -14 -101zM157 326l-2 -12h278l2 17q6 55 -26 89t-92 34q-64 0 -109 -35.5t-51 -92.5z" />
    <glyph glyph-name="Ecaron" unicode="&#x11a;" horiz-adv-x="644" 
d="M371 778l-105 129l57 48l90 -113l121 113l44 -48l-141 -129h-66zM551 0h-492l102 729h492l-13 -97h-384l-29 -210h334l-13 -92h-335l-32 -233h384z" />
    <glyph glyph-name="ecaron" unicode="&#x11b;" horiz-adv-x="571" 
d="M302 578l-105 129l57 48l90 -113l121 113l44 -48l-141 -129h-66zM38 208q0 144 81 236q83 92 211 92q96 0 151 -51.5t55 -143.5q0 -37 -14 -101h-378l-4 -29q-8 -62 26.5 -100.5t99.5 -38.5q50 0 90 24t58 64h102q-26 -77 -98 -124q-71 -46 -165 -46q-102 0 -158.5 58
t-56.5 160zM157 326l-2 -12h278l2 17q6 55 -26 89t-92 34q-64 0 -109 -35.5t-51 -92.5z" />
    <glyph glyph-name="Gbreve" unicode="&#x11e;" horiz-adv-x="811" 
d="M566 946h69q-9 -66 -55.5 -107t-114.5 -41q-66 0 -101 41t-26 107h68q-6 -39 13 -62.5t55 -23.5t61.5 23.5t30.5 62.5zM51 280q0 202 113 330t291 128q123 0 200 -62t80 -164h-113q-5 59 -54 94t-125 35q-103 0 -177 -62q-72 -60 -86 -163l-16 -114q-14 -98 39 -159
q54 -60 159 -60q100 0 174 60q75 62 91 156h-269l13 91h381l-55 -390h-89l8 120h-7q-96 -130 -278 -130q-135 0 -207.5 76.5t-72.5 213.5z" />
    <glyph glyph-name="gbreve" unicode="&#x11f;" horiz-adv-x="538" 
d="M161 745h67q-5 -39 13.5 -62.5t54.5 -23.5t61.5 23.5t31.5 62.5h68q-9 -65 -55.5 -106t-113.5 -41q-66 0 -101 40.5t-26 106.5zM560 608l-13 -84h-99l-6 -43q35 -38 35 -96q0 -86 -64 -141q-64 -56 -159 -56q-37 0 -69 8q-22 -5 -34.5 -19t-12.5 -32q0 -36 63 -36h132
q71 0 109.5 -29.5t38.5 -83.5q0 -85 -74 -132t-209 -47q-105 0 -158.5 28.5t-53.5 80.5q0 42 26 74.5t70 45.5l1 7q-43 16 -43 63q0 33 24 61.5t60 38.5l1 7q-60 37 -60 113q0 85 65 142q64 58 162 58q54 0 90 -16l2 17q9 71 91 71h85zM372 344l5 34q5 37 -20 60.5t-71 23.5
t-77.5 -23t-36.5 -61l-6 -34q-5 -37 20 -60t72 -23q46 0 77 22.5t37 60.5zM311 25h-137q-41 0 -64.5 -19.5t-23.5 -53.5q0 -59 129 -59q161 0 161 85q0 47 -65 47z" />
    <glyph glyph-name="Gdotaccent" unicode="&#x120;" horiz-adv-x="811" 
d="M511 811h-87l17 121h87zM51 280q0 202 113 330t291 128q123 0 200 -62t80 -164h-113q-5 59 -54 94t-125 35q-103 0 -177 -62q-72 -60 -86 -163l-16 -114q-14 -98 39 -159q54 -60 159 -60q100 0 174 60q75 62 91 156h-269l13 91h381l-55 -390h-89l8 120h-7
q-96 -130 -278 -130q-135 0 -207.5 76.5t-72.5 213.5z" />
    <glyph glyph-name="gdotaccent" unicode="&#x121;" horiz-adv-x="538" 
d="M276 732h87l-17 -121h-87zM560 608l-13 -84h-99l-6 -43q35 -38 35 -96q0 -86 -64 -141q-64 -56 -159 -56q-37 0 -69 8q-22 -5 -34.5 -19t-12.5 -32q0 -36 63 -36h132q71 0 109.5 -29.5t38.5 -83.5q0 -85 -74 -132t-209 -47q-105 0 -158.5 28.5t-53.5 80.5q0 42 26 74.5
t70 45.5l1 7q-43 16 -43 63q0 33 24 61.5t60 38.5l1 7q-60 37 -60 113q0 85 65 142q64 58 162 58q54 0 90 -16l2 17q9 71 91 71h85zM372 344l5 34q5 37 -20 60.5t-71 23.5t-77.5 -23t-36.5 -61l-6 -34q-5 -37 20 -60t72 -23q46 0 77 22.5t37 60.5zM311 25h-137
q-41 0 -64.5 -19.5t-23.5 -53.5q0 -59 129 -59q161 0 161 85q0 47 -65 47z" />
    <glyph glyph-name="uni0122" unicode="&#x122;" horiz-adv-x="811" 
d="M51 280q0 202 113 330t291 128q123 0 200 -62t80 -164h-113q-5 59 -54 94t-125 35q-103 0 -177 -62q-72 -60 -86 -163l-16 -114q-14 -98 39 -159q54 -60 159 -60q100 0 174 60q75 62 91 156h-269l13 91h381l-55 -390h-89l8 120h-7q-96 -130 -278 -130q-135 0 -207.5 76.5
t-72.5 213.5zM307 -239v32q20 0 32 13t12 36v5h-44v98h91v-87q0 -47 -24 -72t-67 -25z" />
    <glyph glyph-name="uni0123" unicode="&#x123;" horiz-adv-x="538" 
d="M293 708h43v-98h-91v83q0 47 24.5 74t66.5 27v-32q-20 0 -31.5 -13t-11.5 -35v-6zM560 608l-13 -84h-99l-6 -43q35 -38 35 -96q0 -86 -64 -141q-64 -56 -159 -56q-37 0 -69 8q-22 -5 -34.5 -19t-12.5 -32q0 -36 63 -36h132q71 0 109.5 -29.5t38.5 -83.5q0 -85 -74 -132
t-209 -47q-105 0 -158.5 28.5t-53.5 80.5q0 42 26 74.5t70 45.5l1 7q-43 16 -43 63q0 33 24 61.5t60 38.5l1 7q-60 37 -60 113q0 85 65 142q64 58 162 58q54 0 90 -16l2 17q9 71 91 71h85zM372 344l5 34q5 37 -20 60.5t-71 23.5t-77.5 -23t-36.5 -61l-6 -34q-5 -37 20 -60
t72 -23q46 0 77 22.5t37 60.5zM311 25h-137q-41 0 -64.5 -19.5t-23.5 -53.5q0 -59 129 -59q161 0 161 85q0 47 -65 47z" />
    <glyph glyph-name="Hbar" unicode="&#x126;" horiz-adv-x="803" 
d="M760 639h87l-10 -83h-88l-78 -556h-108l46 327h-396l-46 -327h-108l78 556h-80l10 83h81l13 90h108l-12 -90h396l12 90h108zM226 418h396l19 138h-396z" />
    <glyph glyph-name="hbar" unicode="&#x127;" horiz-adv-x="623" 
d="M406 536q86 0 126 -57.5t26 -156.5l-45 -322h-104l43 312q20 137 -97 137q-66 0 -112 -46.5t-57 -123.5l-39 -279h-103l81 579h-109l10 77h110l11 80h103l-11 -80h135l-11 -77h-135l-20 -149h7q30 50 81.5 78t109.5 28z" />
    <glyph glyph-name="Imacron" unicode="&#x12a;" horiz-adv-x="299" 
d="M387 808h-322l11 76h322zM269 729l-102 -729h-108l102 729h108z" />
    <glyph glyph-name="imacron" unicode="&#x12b;" horiz-adv-x="263" 
d="M341 611h-322l11 76h322zM147 0h-103l74 526h103z" />
    <glyph glyph-name="Iogonek" unicode="&#x12e;" horiz-adv-x="299" 
d="M72 -90q0 -40 53 -40q27 0 54 12l-8 -57q-32 -15 -74 -13t-66.5 23t-24.5 56q0 65 65 109h-12l102 729h108l-102 -729h-1q-44 -11 -69 -35t-25 -55z" />
    <glyph glyph-name="iogonek" unicode="&#x12f;" horiz-adv-x="263" 
d="M138 614l17 121h87l-17 -121h-87zM147 0h-8q-44 -11 -69 -35t-25 -55q0 -40 53 -40q27 0 54 12l-8 -57q-32 -15 -74 -13t-66.5 23t-24.5 56q0 65 65 109l74 526h103z" />
    <glyph glyph-name="Idot" unicode="&#x130;" horiz-adv-x="299" 
d="M272 811h-99l17 121h99zM269 729l-102 -729h-108l102 729h108z" />
    <glyph glyph-name="dotlessi" unicode="&#x131;" horiz-adv-x="263" 
d="M147 0h-103l74 526h103z" />
    <glyph glyph-name="Jcircumflex" unicode="&#x134;" horiz-adv-x="399" 
d="M320 967h66l105 -127l-58 -49l-89 112l-122 -112l-44 49zM179 97l27 197l61 435h108l-61 -435l-29 -203q-10 -91 -104 -91h-202l14 97h186z" />
    <glyph glyph-name="jcircumflex" unicode="&#x135;" horiz-adv-x="273" 
d="M180 764h66l105 -127l-58 -49l-89 112l-122 -112l-44 49zM41 -84l17 116l69 494h103l-69 -494l-16 -108q-5 -28 -19 -53q-18 -38 -84 -38h-125l12 83h112z" />
    <glyph glyph-name="uni0136" unicode="&#x136;" horiz-adv-x="685" 
d="M606 729h130l-309 -317l217 -412h-129l-172 325l-152 -156l-24 -169h-108l102 729h108l-57 -409zM322 -153h-44v98h91v-87q0 -47 -24 -72t-67 -25v32q20 0 32 13t12 36v5z" />
    <glyph glyph-name="uni0137" unicode="&#x137;" horiz-adv-x="568" 
d="M448 526h132l-230 -205l166 -321h-114l-131 250l-100 -89l-23 -161h-104l103 736h104l-62 -440zM258 -153h-44v98h91v-87q0 -47 -24 -72t-67 -25v32q20 0 32 13t12 36v5z" />
    <glyph glyph-name="Lacute" unicode="&#x139;" horiz-adv-x="572" 
d="M434 916l-209 -116l-26 50l201 134zM499 0h-440l102 729h108l-88 -631h332z" />
    <glyph glyph-name="lacute" unicode="&#x13a;" horiz-adv-x="264" 
d="M418 923l-209 -116l-26 50l201 134zM147 0h-103l103 736h103z" />
    <glyph glyph-name="uni013B" unicode="&#x13b;" horiz-adv-x="572" 
d="M499 0h-440l102 729h108l-88 -631h332zM233 -239v32q20 0 32 13t12 36v5h-44v98h91v-87q0 -47 -24 -72t-67 -25z" />
    <glyph glyph-name="uni013C" unicode="&#x13c;" horiz-adv-x="264" 
d="M147 0h-103l103 736h103zM49 -239v32q20 0 32 13t12 36v5h-44v98h91v-87q0 -47 -24 -72t-67 -25z" />
    <glyph glyph-name="Lcaron" unicode="&#x13d;" horiz-adv-x="572" 
d="M337 470l6 43q69 0 80 68l4 27h-60l17 125h113l-20 -147q-8 -56 -45 -86t-95 -30zM499 0h-440l102 729h108l-88 -631h332z" />
    <glyph glyph-name="lcaron" unicode="&#x13e;" horiz-adv-x="264" 
d="M173 785l-105 129l57 48l90 -113l121 113l44 -48l-141 -129h-66zM147 0h-103l103 736h103z" />
    <glyph glyph-name="Ldot" unicode="&#x13f;" horiz-adv-x="572" 
d="M499 0h-440l102 729h108l-88 -631h332zM319 389q0 35 26 61.5t62 26.5q30 0 48.5 -18t18.5 -47q0 -36 -26 -62t-63 -26q-29 0 -47.5 18t-18.5 47z" />
    <glyph glyph-name="ldot" unicode="&#x140;" horiz-adv-x="437" 
d="M147 0h-103l103 736h103zM270 367q0 36 26 62.5t62 26.5q30 0 49 -18.5t19 -47.5q0 -36 -26 -61.5t-63 -25.5q-29 0 -48 18t-19 46z" />
    <glyph glyph-name="Lslash" unicode="&#x141;" horiz-adv-x="594" 
d="M243 374l-39 -276h332l-14 -98h-441l47 336l-99 -34l14 95l98 33l42 299h109l-36 -260l168 57l-14 -95z" />
    <glyph glyph-name="lslash" unicode="&#x142;" horiz-adv-x="264" 
d="M242 510l46 16l-14 -95l-45 -16l-58 -415h-103l53 377l-96 -34l14 95l95 34l37 264h103z" />
    <glyph glyph-name="Nacute" unicode="&#x143;" horiz-adv-x="791" 
d="M700 916l-209 -116l-26 50l201 134zM167 0h-108l102 729h131l281 -586h6l23 218l51 368h108l-102 -729h-132l-279 586h-6l-22 -210z" />
    <glyph glyph-name="nacute" unicode="&#x144;" horiz-adv-x="623" 
d="M625 716l-209 -116l-26 50l201 134zM147 0h-103l74 526h91l-1 -98h8q31 51 81.5 79.5t109.5 28.5q86 0 125.5 -57.5t25.5 -157.5l-45 -321h-104l44 311q18 135 -98 135q-65 0 -111.5 -47t-57.5 -123z" />
    <glyph glyph-name="uni0145" unicode="&#x145;" horiz-adv-x="791" 
d="M167 0h-108l102 729h131l281 -586h6l23 218l51 368h108l-102 -729h-132l-279 586h-6l-22 -210zM304 -204v32q20 0 32 13t12 36v5h-44v98h91v-87q0 -47 -24 -72t-67 -25z" />
    <glyph glyph-name="uni0146" unicode="&#x146;" horiz-adv-x="623" 
d="M147 0h-103l74 526h91l-1 -98h8q31 51 81.5 79.5t109.5 28.5q86 0 125.5 -57.5t25.5 -157.5l-45 -321h-104l44 311q18 135 -98 135q-65 0 -111.5 -47t-57.5 -123zM232 -239v32q20 0 32 13t12 36v5h-44v98h91v-87q0 -47 -24 -72t-67 -25z" />
    <glyph glyph-name="Ncaron" unicode="&#x147;" horiz-adv-x="791" 
d="M455 778l-105 129l57 48l90 -113l121 113l44 -48l-141 -129h-66zM167 0h-108l102 729h131l281 -586h6l23 218l51 368h108l-102 -729h-132l-279 586h-6l-22 -210z" />
    <glyph glyph-name="ncaron" unicode="&#x148;" horiz-adv-x="623" 
d="M380 578l-105 129l57 48l90 -113l121 113l44 -48l-141 -129h-66zM147 0h-103l74 526h91l-1 -98h8q31 51 81.5 79.5t109.5 28.5q86 0 125.5 -57.5t25.5 -157.5l-45 -321h-104l44 311q18 135 -98 135q-65 0 -111.5 -47t-57.5 -123z" />
    <glyph glyph-name="Eng" unicode="&#x14a;" horiz-adv-x="792" 
d="M653 729h108l-102 -729l-11 -78q-11 -89 -103 -89h-125l11 75h111l13 92h-28l-279 586h-6l-22 -210l-53 -376h-108l102 729h131l281 -586h6l23 218z" />
    <glyph glyph-name="eng" unicode="&#x14b;" horiz-adv-x="661" 
d="M558 321l-34 -245h37l-22 -152q-5 -28 -19 -53q-18 -38 -84 -38h-125l11 75h111l13 92h-37l44 311q18 135 -98 135q-65 0 -111.5 -47t-57.5 -123l-39 -276h-103l74 526h91l-1 -98h8q31 51 81.5 79.5t109.5 28.5q86 0 125.5 -57.5t25.5 -157.5z" />
    <glyph glyph-name="Omacron" unicode="&#x14c;" 
d="M624 808h-322l11 76h322zM52 284q0 203 112 328q112 126 291 126q142 0 220 -77.5t78 -217.5q0 -203 -112 -328q-113 -125 -291 -125q-143 0 -220.5 76.5t-77.5 217.5zM180 416l-15 -103q-15 -105 38.5 -165.5t159.5 -60.5q107 0 177 61t85 165l15 103q15 105 -39 165
t-160 60q-107 0 -176.5 -60.5t-84.5 -164.5z" />
    <glyph glyph-name="omacron" unicode="&#x14d;" horiz-adv-x="591" 
d="M504 608h-322l11 76h322zM37 208q0 144 83 236q84 92 214 92q103 0 162 -58t59 -161q0 -143 -84 -235q-83 -92 -214 -92q-104 0 -162 58t-58 160zM152 302l-11 -82q-9 -68 26.5 -106t102.5 -38t113.5 38.5t55.5 105.5l11 82q10 66 -25.5 106.5t-102.5 40.5t-114 -40.5
t-56 -106.5z" />
    <glyph glyph-name="Ohungarumlaut" unicode="&#x150;" 
d="M563 897l-201 -126l-28 48l193 144zM764 887l-206 -116l-26 50l198 133zM52 284q0 203 112 328q112 126 291 126q142 0 220 -77.5t78 -217.5q0 -203 -112 -328q-113 -125 -291 -125q-143 0 -220.5 76.5t-77.5 217.5zM180 416l-15 -103q-15 -105 38.5 -165.5t159.5 -60.5
q107 0 177 61t85 165l15 103q15 105 -39 165t-160 60q-107 0 -176.5 -60.5t-84.5 -164.5z" />
    <glyph glyph-name="ohungarumlaut" unicode="&#x151;" horiz-adv-x="591" 
d="M443 697l-201 -126l-28 48l193 144zM644 687l-206 -116l-26 50l198 133zM37 208q0 144 83 236q84 92 214 92q103 0 162 -58t59 -161q0 -143 -84 -235q-83 -92 -214 -92q-104 0 -162 58t-58 160zM152 302l-11 -82q-9 -68 26.5 -106t102.5 -38t113.5 38.5t55.5 105.5l11 82
q10 66 -25.5 106.5t-102.5 40.5t-114 -40.5t-56 -106.5z" />
    <glyph glyph-name="OE" unicode="&#x152;" horiz-adv-x="966" 
d="M52 283q0 209 109 327q110 119 304 119h512l-14 -97h-384l-29 -210h334l-12 -92h-335l-33 -233h384l-14 -97h-512q-154 0 -232 73t-78 210zM180 415l-14 -99q-15 -103 40 -161t159 -58h31l75 535h-31q-108 0 -176.5 -56t-83.5 -161z" />
    <glyph glyph-name="oe" unicode="&#x153;" horiz-adv-x="982" 
d="M933 240h-377l-4 -29q-9 -62 25.5 -100.5t100.5 -38.5q50 0 90 24.5t57 63.5h103q-26 -78 -99 -124q-71 -46 -165 -46q-133 0 -187 98q-84 -98 -220 -98q-104 0 -162 58t-58 160q0 144 83 236q84 92 214 92q137 0 192 -97q82 97 215 97q96 0 151 -51.5t55 -143.5
q0 -37 -14 -101zM568 326l-1 -12h277l2 17q6 55 -26 89t-92 34q-64 0 -109 -35.5t-51 -92.5zM439 220l11 82q10 66 -25.5 106.5t-102.5 40.5t-114 -40.5t-56 -106.5l-11 -82q-9 -68 26.5 -106t102.5 -38t113.5 38.5t55.5 105.5z" />
    <glyph glyph-name="Racute" unicode="&#x154;" horiz-adv-x="724" 
d="M653 916l-209 -116l-26 50l201 134zM167 0h-108l102 729h346q93 0 140.5 -44.5t47.5 -125.5q0 -80 -36.5 -139.5t-98.5 -80.5l-1 -7h37q71 0 62 -78l-37 -254h-110l39 275h-344zM256 634l-38 -268h215q57 0 94 28t43 76l9 61q7 50 -21.5 76.5t-86.5 26.5h-215z" />
    <glyph glyph-name="racute" unicode="&#x155;" horiz-adv-x="365" 
d="M443 788l34 -68l-209 -116l-26 50zM86 297l19 139q13 90 104 90h182l-12 -86h-170l-20 -143l-42 -297h-103z" />
    <glyph glyph-name="uni0156" unicode="&#x156;" horiz-adv-x="724" 
d="M167 0h-108l102 729h346q93 0 140.5 -44.5t47.5 -125.5q0 -80 -36.5 -139.5t-98.5 -80.5l-1 -7h37q71 0 62 -78l-37 -254h-110l39 275h-344zM256 634l-38 -268h215q57 0 94 28t43 76l9 61q7 50 -21.5 76.5t-86.5 26.5h-215zM301 -239v32q20 0 32 13t12 36v5h-44v98h91
v-87q0 -47 -24 -72t-67 -25z" />
    <glyph glyph-name="uni0157" unicode="&#x157;" horiz-adv-x="365" 
d="M209 526h182l-12 -86h-170l-20 -143l-42 -297h-103l42 297l19 139q13 90 104 90zM94 -153h-44v98h91v-87q0 -47 -24 -72t-67 -25v32q20 0 32 13t12 36v5z" />
    <glyph glyph-name="Rcaron" unicode="&#x158;" horiz-adv-x="724" 
d="M408 778l-105 129l57 48l90 -113l121 113l44 -48l-141 -129h-66zM167 0h-108l102 729h346q93 0 140.5 -44.5t47.5 -125.5q0 -80 -36.5 -139.5t-98.5 -80.5l-1 -7h37q71 0 62 -78l-37 -254h-110l39 275h-344zM256 634l-38 -268h215q57 0 94 28t43 76l9 61q7 50 -21.5 76.5
t-86.5 26.5h-215z" />
    <glyph glyph-name="rcaron" unicode="&#x159;" horiz-adv-x="365" 
d="M438 711l-141 -129h-66l-105 129l57 48l90 -113l121 113zM86 297l19 139q13 90 104 90h182l-12 -86h-170l-20 -143l-42 -297h-103z" />
    <glyph glyph-name="Sacute" unicode="&#x15a;" horiz-adv-x="671" 
d="M631 916l-209 -116l-26 50l201 134zM52 226h113q-9 -71 34 -109.5t127 -38.5q81 0 131 39t50 102q0 36 -25 59q-8 8 -25 16q-23 10 -45 15l-120 28q-56 14 -89 28q-87 38 -92 136q0 104 82 171t211 67q122 0 186 -57q66 -57 54 -156h-112q4 60 -33.5 92.5t-107.5 32.5
q-73 0 -117.5 -33.5t-44.5 -88.5q0 -31 26 -57q15 -10 28 -16q31 -11 54 -16l129 -28q159 -34 159 -165q0 -116 -88 -186q-88 -71 -228 -71q-138 0 -205 67q-66 67 -52 169z" />
    <glyph glyph-name="sacute" unicode="&#x15b;" horiz-adv-x="511" 
d="M519 716l-209 -116l-26 50l201 134zM35 161h102q-5 -43 23 -68t81 -25q54 0 87 24.5t33 65.5q0 42 -57 55l-105 20q-126 24 -126 120q0 81 63 132t165 51q94 0 143 -44t40 -118h-102q5 42 -19.5 63t-72.5 21q-51 0 -81 -22.5t-30 -60.5q0 -47 72 -58l97 -18
q122 -23 122 -121q0 -84 -66 -136q-65 -52 -173 -52q-102 0 -154.5 46.5t-41.5 124.5z" />
    <glyph glyph-name="Scedilla" unicode="&#x15e;" horiz-adv-x="671" 
d="M643 526h-112q4 60 -33.5 92.5t-107.5 32.5q-73 0 -117.5 -33.5t-44.5 -88.5q0 -31 26 -57q15 -10 28 -16q31 -11 54 -16l129 -28q159 -34 159 -165q0 -109 -80 -180q-79 -70 -212 -76l-25 -33q30 0 50.5 -15.5t20.5 -43.5q0 -44 -34 -69q-63 -50 -152 -12l8 56
q26 -26 68 -19q43 6 43 42q0 19 -19 25t-52 -4l4 27l34 46q-122 7 -182 73q-58 66 -45 162h113q-9 -71 34 -109.5t127 -38.5q81 0 131 39t50 102q0 36 -25 59q-8 8 -25 16q-23 10 -45 15l-120 28q-56 14 -89 28q-87 38 -92 136q0 104 82 171t211 67q121 0 186 -57
q66 -57 54 -156z" />
    <glyph glyph-name="scedilla" unicode="&#x15f;" horiz-adv-x="511" 
d="M484 374h-102q5 42 -19.5 63t-72.5 21q-51 0 -81 -22.5t-30 -60.5q0 -47 72 -58l97 -18q122 -23 122 -121q0 -78 -60 -131q-59 -52 -156 -56l-32 -43q29 0 49.5 -15.5t20.5 -43.5q0 -44 -34 -69q-63 -50 -152 -12l8 56q26 -26 68 -19q43 6 43 42q0 19 -19 25t-52 -4l4 27
l41 56q-87 7 -131 52.5t-33 117.5h102q-5 -43 23 -68t81 -25q54 0 87 24.5t33 65.5q0 42 -57 55l-105 20q-126 24 -126 120q0 81 63 132t165 51q94 0 143 -44t40 -118z" />
    <glyph glyph-name="Scaron" unicode="&#x160;" horiz-adv-x="671" 
d="M385 778l-105 129l57 48l90 -113l121 113l44 -48l-141 -129h-66zM52 226h113q-9 -71 34 -109.5t127 -38.5q81 0 131 39t50 102q0 36 -25 59q-8 8 -25 16q-23 10 -45 15l-120 28q-56 14 -89 28q-87 38 -92 136q0 104 82 171t211 67q122 0 186 -57q66 -57 54 -156h-112
q4 60 -33.5 92.5t-107.5 32.5q-73 0 -117.5 -33.5t-44.5 -88.5q0 -31 26 -57q15 -10 28 -16q31 -11 54 -16l129 -28q159 -34 159 -165q0 -116 -88 -186q-88 -71 -228 -71q-138 0 -205 67q-66 67 -52 169z" />
    <glyph glyph-name="scaron" unicode="&#x161;" horiz-adv-x="511" 
d="M274 578l-105 129l57 48l90 -113l121 113l44 -48l-141 -129h-66zM35 161h102q-5 -43 23 -68t81 -25q54 0 87 24.5t33 65.5q0 42 -57 55l-105 20q-126 24 -126 120q0 81 63 132t165 51q94 0 143 -44t40 -118h-102q5 42 -19.5 63t-72.5 21q-51 0 -81 -22.5t-30 -60.5
q0 -47 72 -58l97 -18q122 -23 122 -121q0 -84 -66 -136q-65 -52 -173 -52q-102 0 -154.5 46.5t-41.5 124.5z" />
    <glyph glyph-name="uni0162" unicode="&#x162;" horiz-adv-x="560" 
d="M387 632l-89 -632h-33l-32 -42q30 0 50.5 -15.5t20.5 -43.5q0 -44 -34 -69q-63 -50 -152 -12l8 56q26 -26 68 -19q43 6 43 42q0 19 -19 25t-52 -4l4 27l40 55h-21l89 632h-220l14 97h548l-14 -97h-219z" />
    <glyph glyph-name="uni0163" unicode="&#x163;" horiz-adv-x="357" 
d="M343 440h-109l-34 -245l-16 -111h110l-12 -84h-81l-31 -42q29 0 49.5 -15.5t20.5 -43.5q0 -44 -34 -69q-63 -50 -152 -12l8 56q26 -26 68 -19q43 6 43 42q0 19 -19 25t-52 -4l4 27l41 55q-78 6 -65 85l15 110l35 245h-95l12 86h95l24 171h102l-23 -171h108z" />
    <glyph glyph-name="Tcaron" unicode="&#x164;" horiz-adv-x="560" 
d="M527 907l-141 -129h-66l-105 129l57 48l90 -113l121 113zM72 729h548l-14 -97h-219l-89 -632h-109l89 632h-220z" />
    <glyph glyph-name="tcaron" unicode="&#x165;" horiz-adv-x="357" 
d="M400 876l-141 -129h-66l-105 129l57 48l90 -113l121 113zM168 697h102l-23 -171h108l-12 -86h-109l-34 -245l-16 -111h110l-12 -84h-125q-88 0 -75 85l15 110l35 245h-95l12 86h95z" />
    <glyph glyph-name="Tbar" unicode="&#x166;" horiz-adv-x="560" 
d="M620 729l-14 -97h-219l-28 -201h167l-13 -92h-167l-48 -339h-109l48 339h-160l13 92h160l28 201h-220l14 97h548z" />
    <glyph glyph-name="tbar" unicode="&#x167;" horiz-adv-x="357" 
d="M355 526l-12 -86h-109l-16 -112h115l-9 -84h-117l-7 -49l-16 -111h110l-12 -84h-125q-88 0 -75 85l15 110l7 49h-87l9 84h90l16 112h-95l12 86h95l24 171h102l-23 -171h108z" />
    <glyph glyph-name="Umacron" unicode="&#x16a;" 
d="M642 808h-322l11 76h322zM108 272l65 457h107l-63 -448q-13 -89 31.5 -140t132.5 -51t146 50.5t71 140.5l63 448h107l-64 -457q-18 -129 -110 -206q-91 -76 -228 -76q-140 0 -208 76t-50 206z" />
    <glyph glyph-name="umacron" unicode="&#x16b;" horiz-adv-x="617" 
d="M527 611h-322l11 76h322zM483 526h103l-74 -526h-89v97h-9q-28 -50 -78.5 -78.5t-112.5 -28.5q-83 0 -121 53t-25 149l47 334h104l-45 -319q-20 -131 91 -131q66 0 112.5 47.5t57.5 126.5z" />
    <glyph glyph-name="Uring" unicode="&#x16e;" 
d="M599 835q0 -56 -38 -94q-37 -37 -94 -37q-46 0 -73 25.5t-27 67.5q0 56 37 93q38 38 95 38q45 0 72.5 -25t27.5 -68zM537 827q0 21 -12.5 34t-33.5 13q-26 0 -44.5 -20t-18.5 -48q0 -21 13 -34t34 -13q26 0 44 20t18 48zM108 272l65 457h107l-63 -448q-13 -89 31.5 -140
t132.5 -51t146 50.5t71 140.5l63 448h107l-64 -457q-18 -129 -110 -206q-91 -76 -228 -76q-140 0 -208 76t-50 206z" />
    <glyph glyph-name="uring" unicode="&#x16f;" horiz-adv-x="617" 
d="M485 639q0 -56 -38 -94q-37 -37 -94 -37q-46 0 -73 25.5t-27 67.5q0 56 37 93q38 38 95 38q45 0 72.5 -25t27.5 -68zM423 631q0 21 -12.5 34t-33.5 13q-26 0 -44.5 -20t-18.5 -48q0 -21 13 -34t34 -13q26 0 44 20t18 48zM483 526h103l-74 -526h-89v97h-9
q-28 -50 -78.5 -78.5t-112.5 -28.5q-83 0 -121 53t-25 149l47 334h104l-45 -319q-20 -131 91 -131q66 0 112.5 47.5t57.5 126.5z" />
    <glyph glyph-name="Uhungarumlaut" unicode="&#x170;" 
d="M580 897l-201 -126l-28 48l193 144zM781 887l-206 -116l-26 50l198 133zM108 272l65 457h107l-63 -448q-13 -89 31.5 -140t132.5 -51t146 50.5t71 140.5l63 448h107l-64 -457q-18 -129 -110 -206q-91 -76 -228 -76q-140 0 -208 76t-50 206z" />
    <glyph glyph-name="uhungarumlaut" unicode="&#x171;" horiz-adv-x="617" 
d="M466 700l-201 -126l-28 48l193 144zM667 690l-206 -116l-26 50l198 133zM483 526h103l-74 -526h-89v97h-9q-28 -50 -78.5 -78.5t-112.5 -28.5q-83 0 -121 53t-25 149l47 334h104l-45 -319q-20 -131 91 -131q66 0 112.5 47.5t57.5 126.5z" />
    <glyph glyph-name="Uogonek" unicode="&#x172;" 
d="M597 281l63 448h107l-64 -457q-16 -113 -88.5 -186.5t-184.5 -90.5q-77 -27 -77 -85q0 -40 53 -40q27 0 54 12l-8 -57q-32 -15 -74 -13t-66.5 23t-24.5 56q0 57 52 100q-128 7 -188.5 82t-43.5 199l65 457h107l-63 -448q-13 -89 31.5 -140t132.5 -51t146 50.5t71 140.5z
" />
    <glyph glyph-name="uogonek" unicode="&#x173;" horiz-adv-x="617" 
d="M418 -90q0 -40 53 -40q27 0 54 12l-8 -57q-32 -15 -74 -13t-66.5 23t-24.5 56q0 69 71 113v93h-9q-28 -50 -78.5 -78.5t-112.5 -28.5q-83 0 -121 53t-25 149l47 334h104l-45 -319q-20 -131 91 -131q66 0 112.5 47.5t57.5 126.5l39 276h103l-74 -526q-44 -11 -69 -35
t-25 -55z" />
    <glyph glyph-name="Wcircumflex" unicode="&#x174;" horiz-adv-x="942" 
d="M436 791l-44 49l142 127h66l105 -127l-58 -49l-89 112zM123 0l-47 729h115l21 -417l4 -192h7l240 609h143l70 -610h6l58 192l137 418h120l-250 -729h-151l-74 601h-6l-243 -601h-150z" />
    <glyph glyph-name="wcircumflex" unicode="&#x175;" horiz-adv-x="757" 
d="M529 595l-89 112l-122 -112l-44 49l142 127h66l105 -127zM571 260l103 266h108l-215 -526h-132l-25 258l-11 139h-6l-49 -139l-95 -258h-133l-71 526h105l29 -264l11 -159h8l153 423h121l37 -422h7z" />
    <glyph glyph-name="Ycircumflex" unicode="&#x176;" horiz-adv-x="663" 
d="M300 791l-44 49l142 127h66l105 -127l-58 -49l-89 112zM281 291l-211 438h126l80 -179l66 -158h7l112 158l128 179h135l-334 -438l-41 -291h-108z" />
    <glyph glyph-name="ycircumflex" unicode="&#x177;" horiz-adv-x="532" 
d="M207 595l-44 49l142 127h66l105 -127l-58 -49l-89 112zM186 65l-153 461h109l49 -169l52 -192h6l110 192l96 169h115l-282 -462l-19 -140q-5 -35 -22 -58q-20 -33 -80 -33h-135l13 84h121z" />
    <glyph glyph-name="Ydieresis" unicode="&#x178;" horiz-adv-x="663" 
d="M355 811h-88l17 121h87zM550 811h-87l17 121h87zM281 291l-211 438h126l80 -179l66 -158h7l112 158l128 179h135l-334 -438l-41 -291h-108z" />
    <glyph glyph-name="Zacute" unicode="&#x179;" horiz-adv-x="578" 
d="M522 984l34 -68l-209 -116l-26 50zM84 729h539l-12 -88l-477 -544h397l-14 -97h-535l12 88l478 543h-401z" />
    <glyph glyph-name="zacute" unicode="&#x17a;" horiz-adv-x="450" 
d="M446 788l34 -68l-209 -116l-26 50zM323 440h-274l12 86h398l-11 -78l-323 -363h276l-12 -85h-401l11 77z" />
    <glyph glyph-name="Zdotaccent" unicode="&#x17b;" horiz-adv-x="578" 
d="M322 932h87l-17 -121h-87zM84 729h539l-12 -88l-477 -544h397l-14 -97h-535l12 88l478 543h-401z" />
    <glyph glyph-name="zdotaccent" unicode="&#x17c;" horiz-adv-x="450" 
d="M246 735h87l-17 -121h-87zM61 526h398l-11 -78l-323 -363h276l-12 -85h-401l11 77l324 363h-274z" />
    <glyph glyph-name="Zcaron" unicode="&#x17d;" horiz-adv-x="578" 
d="M518 907l-141 -129h-66l-105 129l57 48l90 -113l121 113zM84 729h539l-12 -88l-477 -544h397l-14 -97h-535l12 88l478 543h-401z" />
    <glyph glyph-name="zcaron" unicode="&#x17e;" horiz-adv-x="450" 
d="M442 711l-141 -129h-66l-105 129l57 48l90 -113l121 113zM61 526h398l-11 -78l-323 -363h276l-12 -85h-401l11 77l324 363h-274z" />
    <glyph glyph-name="uni018F" unicode="&#x18f;" horiz-adv-x="706" 
d="M419 739q129 0 198 -74.5t69 -211.5q0 -205 -105 -334q-103 -129 -271 -129q-125 0 -193 72t-68 197q0 33 6 75q8 47 11 54h503q18 124 -27 189t-142 65q-73 0 -131 -35t-80 -92h-110q36 103 129 163q94 61 211 61zM324 86q90 0 151.5 56.5t80.5 158.5h-390
q-14 -108 28.5 -161.5t129.5 -53.5z" />
    <glyph glyph-name="florin" unicode="&#x192;" horiz-adv-x="545" 
d="M118 -131h-147l12 87h147l110 401h-101l12 86h113l56 200q26 86 113 86h148l-12 -87h-147l-55 -199h111l-12 -86h-123l-109 -397q-25 -91 -116 -91z" />
    <glyph glyph-name="AEacute" unicode="&#x1fc;" horiz-adv-x="963" 
d="M828 984l34 -68l-209 -116l-26 50zM972 729l-13 -97h-388l-31 -222h331l-13 -91h-330l-31 -222h387l-14 -97h-496l27 193h-233l-89 -193h-113l346 729h660zM208 280h205l49 352h-93z" />
    <glyph glyph-name="Oslashacute" unicode="&#x1fe;" 
d="M774 661l40 -70l-73 -48q12 -47 12 -100q0 -203 -112 -328q-113 -125 -291 -125q-184 0 -257 124l-69 -46l-35 71l74 49q-11 49 -11 96q0 203 112 328q112 126 291 126q61 0 111 -15l18 12l11 -22q73 -30 114 -95zM180 416l-15 -103q-5 -32 -3 -59l456 303q-26 43 -78 66
l-131 -72l-26 50l60 40h-2q-107 0 -176.5 -60.5t-84.5 -164.5zM625 313l15 103q5 37 2 61l-458 -303q50 -87 179 -87q107 0 177 61t85 165z" />
    <glyph glyph-name="oslashacute" unicode="&#x1ff;" horiz-adv-x="591" 
d="M480 784l34 -68l-209 -116l-26 50zM575 490l32 -61l-93 -62q4 -19 4 -50q0 -143 -84 -235q-83 -92 -214 -92q-114 0 -171 68l-34 -22l-31 59l31 21q-15 40 -15 92q0 144 83 236q84 92 214 92q140 0 194 -102zM115 302l-12 -82q-3 -25 0 -46l303 203q-28 72 -121 72
q-67 0 -114 -40.5t-56 -106.5zM402 220l11 80l-282 -187q37 -37 101 -37q67 0 114 38.5t56 105.5z" />
    <glyph glyph-name="uni0218" unicode="&#x218;" horiz-adv-x="671" 
d="M52 226h113q-9 -71 34 -109.5t127 -38.5q81 0 131 39t50 102q0 36 -25 59q-8 8 -25 16q-23 10 -45 15l-120 28q-56 14 -89 28q-87 38 -92 136q0 104 82 171t211 67q122 0 186 -57q66 -57 54 -156h-112q4 60 -33.5 92.5t-107.5 32.5q-73 0 -117.5 -33.5t-44.5 -88.5
q0 -31 26 -57q15 -10 28 -16q31 -11 54 -16l129 -28q159 -34 159 -165q0 -116 -88 -186q-88 -71 -228 -71q-138 0 -205 67q-66 67 -52 169zM272 -239v32q20 0 32 13t12 36v5h-44v98h91v-87q0 -47 -24 -72t-67 -25z" />
    <glyph glyph-name="uni0219" unicode="&#x219;" horiz-adv-x="511" 
d="M35 161h102q-5 -43 23 -68t81 -25q54 0 87 24.5t33 65.5q0 42 -57 55l-105 20q-126 24 -126 120q0 81 63 132t165 51q94 0 143 -44t40 -118h-102q5 42 -19.5 63t-72.5 21q-51 0 -81 -22.5t-30 -60.5q0 -47 72 -58l97 -18q122 -23 122 -121q0 -84 -66 -136
q-65 -52 -173 -52q-102 0 -154.5 46.5t-41.5 124.5zM185 -249v32q20 0 32 13t12 36v5h-44v98h91v-87q0 -47 -24 -72t-67 -25z" />
    <glyph glyph-name="uni021A" unicode="&#x21a;" horiz-adv-x="560" 
d="M72 729h548l-14 -97h-219l-89 -632h-109l89 632h-220zM241 -153h-44v98h91v-87q0 -47 -24 -72t-67 -25v32q20 0 32 13t12 36v5z" />
    <glyph glyph-name="uni021B" unicode="&#x21b;" horiz-adv-x="357" 
d="M343 440h-109l-34 -245l-16 -111h110l-12 -84h-125q-88 0 -75 85l15 110l35 245h-95l12 86h95l24 171h102l-23 -171h108zM177 -153h-44v98h91v-87q0 -47 -24 -72t-67 -25v32q20 0 32 13t12 36v5z" />
    <glyph glyph-name="uni0237" unicode="&#x237;" horiz-adv-x="273" 
d="M58 32l69 494h103l-69 -494l-16 -108q-5 -28 -19 -53q-18 -38 -84 -38h-125l12 83h112z" />
    <glyph glyph-name="circumflex" unicode="&#x2c6;" horiz-adv-x="362" 
d="M140 721l-44 49l142 127h66l105 -127l-58 -49l-89 112z" />
    <glyph glyph-name="caron" unicode="&#x2c7;" horiz-adv-x="362" 
d="M215 733l-105 129l57 48l90 -113l121 113l44 -48l-141 -129h-66z" />
    <glyph glyph-name="breve" unicode="&#x2d8;" horiz-adv-x="358" 
d="M354 872h69q-9 -66 -55.5 -107t-114.5 -41q-66 0 -101 41t-26 107h68q-6 -39 13 -62.5t55 -23.5t61.5 23.5t30.5 62.5z" />
    <glyph glyph-name="dotaccent" unicode="&#x2d9;" horiz-adv-x="195" 
d="M207 738h-87l17 121h87z" />
    <glyph glyph-name="ring" unicode="&#x2da;" horiz-adv-x="368" 
d="M377 800q0 -56 -38 -94q-37 -37 -94 -37q-46 0 -73 25.5t-27 67.5q0 56 37 93q38 38 95 38q45 0 72.5 -25t27.5 -68zM315 792q0 21 -12.5 34t-33.5 13q-26 0 -44.5 -20t-18.5 -48q0 -21 13 -34t34 -13q26 0 44 20t18 48z" />
    <glyph glyph-name="ogonek" unicode="&#x2db;" horiz-adv-x="412" 
d="M71 -109q0 49 39 88t104 53l17 -32q-44 -11 -69 -35t-25 -55q0 -40 53 -40q27 0 54 12l-8 -57q-32 -15 -74 -13t-66.5 23t-24.5 56z" />
    <glyph glyph-name="tilde" unicode="&#x2dc;" horiz-adv-x="337" 
d="M295 734q-27 0 -66 17q-38 18 -56 18q-30 0 -59 -35l-39 31q46 78 110 78q25 -2 63 -19q40 -17 60 -17q34 0 60 36l41 -32q-44 -77 -114 -77z" />
    <glyph glyph-name="hungarumlaut" unicode="&#x2dd;" horiz-adv-x="506" 
d="M399 850l-201 -126l-28 48l193 144zM600 840l-206 -116l-26 50l198 133z" />
    <glyph glyph-name="gravecomb" unicode="&#x300;" horiz-adv-x="0" 
d="M-23 771l-41 -50l-176 116l53 68z" />
    <glyph glyph-name="acutecomb" unicode="&#x301;" horiz-adv-x="0" 
d="M-15 837l-209 -116l-26 50l201 134z" />
    <glyph glyph-name="uni0302" unicode="&#x302;" horiz-adv-x="0" 
d="M-222 721l-44 49l142 127h66l105 -127l-58 -49l-89 112z" />
    <glyph glyph-name="tildecomb" unicode="&#x303;" horiz-adv-x="0" 
d="M-42 734q-26 0 -65 17q-37 18 -57 18q-30 0 -59 -35l-39 31q46 78 110 78q25 -2 63 -19q40 -17 60 -17q35 0 60 36l41 -32q-44 -77 -114 -77z" />
    <glyph glyph-name="uni0304" unicode="&#x304;" horiz-adv-x="0" 
d="M50 741h-322l11 76h322z" />
    <glyph glyph-name="uni0306" unicode="&#x306;" horiz-adv-x="0" 
d="M-4 872h69q-9 -66 -55.5 -107t-114.5 -41q-66 0 -101 41t-26 107h68q-6 -39 13 -62.5t55 -23.5t61.5 23.5t30.5 62.5z" />
    <glyph glyph-name="uni0307" unicode="&#x307;" horiz-adv-x="0" 
d="M12 738h-87l17 121h87z" />
    <glyph glyph-name="uni0308" unicode="&#x308;" horiz-adv-x="0" 
d="M-186 738h-88l17 121h87zM9 738h-87l17 121h87z" />
    <glyph glyph-name="uni030A" unicode="&#x30a;" horiz-adv-x="0" 
d="M9 800q0 -56 -38 -94q-37 -37 -94 -37q-46 0 -73 25.5t-27 67.5q0 55 38 93t94 38q45 0 72.5 -25t27.5 -68zM-53 792q0 21 -12.5 34t-33.5 13q-26 0 -44.5 -20t-18.5 -48q0 -21 13 -34t34 -13q26 0 44 20t18 48z" />
    <glyph glyph-name="uni030B" unicode="&#x30b;" horiz-adv-x="0" 
d="M-107 850l-201 -126l-28 48l193 144zM94 840l-206 -116l-26 50l198 133z" />
    <glyph glyph-name="uni030C" unicode="&#x30c;" horiz-adv-x="0" 
d="M-147 733l-105 129l57 48l90 -113l121 113l44 -48l-141 -129h-66z" />
    <glyph glyph-name="uni0312" unicode="&#x312;" horiz-adv-x="0" 
d="M33 922v-32q-20 0 -31.5 -13t-11.5 -35v-6h43v-98h-91v83q0 47 24.5 74t66.5 27z" />
    <glyph glyph-name="uni0326" unicode="&#x326;" horiz-adv-x="0" 
d="M-174 -237v32q20 0 32 13t12 36v5h-44v98h91v-87q0 -47 -24 -72t-67 -25z" />
    <glyph glyph-name="uni0327" unicode="&#x327;" horiz-adv-x="0" 
d="M-256 5l-35 -47q29 0 49.5 -15.5t20.5 -43.5q0 -44 -34 -69q-63 -50 -152 -12l8 56q26 -26 68 -19q43 6 43 42q0 19 -19 25t-52 -4l4 27l64 87h39z" />
    <glyph glyph-name="uni0328" unicode="&#x328;" horiz-adv-x="0" 
d="M-341 -109q0 49 39 88t104 53l17 -32q-44 -11 -69 -35t-25 -55q0 -40 53 -40q27 0 54 12l-8 -57q-32 -15 -74 -13t-66.5 23t-24.5 56z" />
    <glyph glyph-name="uni0335" unicode="&#x335;" horiz-adv-x="0" 
d="M-62 302h-342l11 75h341z" />
    <glyph glyph-name="uni0336" unicode="&#x336;" horiz-adv-x="0" 
 />
    <glyph glyph-name="uni0337" unicode="&#x337;" horiz-adv-x="0" 
d="M-345 0h-69l388 729h69z" />
    <glyph glyph-name="uni0338" unicode="&#x338;" horiz-adv-x="0" 
d="M-345 0h-69l388 729h69z" />
    <glyph glyph-name="uni03BC" unicode="&#x3bc;" horiz-adv-x="588" 
d="M138 -173h-93l67 699h104l-32 -333q-7 -57 19 -88.5t76 -31.5q56 0 92.5 39t44.5 106l28 308h104l-50 -526h-98l13 81h-7q-43 -91 -147 -91q-30 0 -56 12t-37 32h-7z" />
    <glyph glyph-name="pi" unicode="&#x3c0;" horiz-adv-x="591" 
d="M140 449h-87l5 77h546l-5 -77h-86l-39 -365h86l-5 -84h-98q-92 0 -84 86l39 363h-169l-45 -449h-102z" />
    <glyph glyph-name="omega" unicode="&#x3c9;" horiz-adv-x="793" 
d="M94 432q0 139 89 223q90 84 241 84q149 0 239 -84q91 -82 91 -223q0 -102 -57 -182q-55 -79 -150 -109v-58h154v-83h-243v199q85 15 136.5 71t51.5 134v53q0 89 -65 140t-157 51q-94 0 -159 -51q-64 -51 -64 -140v-54q0 -78 52 -133q51 -54 136 -71v-199h-243v83h154v58
q-93 29 -150 108q-56 80 -56 183z" />
    <glyph glyph-name="Wgrave" unicode="&#x1e80;" horiz-adv-x="942" 
d="M585 850l-41 -50l-176 116l53 68zM123 0l-47 729h115l21 -417l4 -192h7l240 609h143l70 -610h6l58 192l137 418h120l-250 -729h-151l-74 601h-6l-243 -601h-150z" />
    <glyph glyph-name="wgrave" unicode="&#x1e81;" horiz-adv-x="757" 
d="M304 788l164 -134l-41 -50l-176 116zM571 260l103 266h108l-215 -526h-132l-25 258l-11 139h-6l-49 -139l-95 -258h-133l-71 526h105l29 -264l11 -159h8l153 423h121l37 -422h7z" />
    <glyph glyph-name="Wacute" unicode="&#x1e82;" horiz-adv-x="942" 
d="M752 916l-209 -116l-26 50l201 134zM123 0l-47 729h115l21 -417l4 -192h7l240 609h143l70 -610h6l58 192l137 418h120l-250 -729h-151l-74 601h-6l-243 -601h-150z" />
    <glyph glyph-name="wacute" unicode="&#x1e83;" horiz-adv-x="757" 
d="M601 788l34 -68l-209 -116l-26 50zM571 260l103 266h108l-215 -526h-132l-25 258l-11 139h-6l-49 -139l-95 -258h-133l-71 526h105l29 -264l11 -159h8l153 423h121l37 -422h7z" />
    <glyph glyph-name="Wdieresis" unicode="&#x1e84;" horiz-adv-x="942" 
d="M491 811h-88l17 121h87zM686 811h-87l17 121h87zM123 0l-47 729h115l21 -417l4 -192h7l240 609h143l70 -610h6l58 192l137 418h120l-250 -729h-151l-74 601h-6l-243 -601h-150z" />
    <glyph glyph-name="wdieresis" unicode="&#x1e85;" horiz-adv-x="757" 
d="M302 735h87l-16 -121h-88zM498 735h87l-17 -121h-87zM571 260l103 266h108l-215 -526h-132l-25 258l-11 139h-6l-49 -139l-95 -258h-133l-71 526h105l29 -264l11 -159h8l153 423h121l37 -422h7z" />
    <glyph glyph-name="Ygrave" unicode="&#x1ef2;" horiz-adv-x="663" 
d="M449 850l-41 -50l-176 116l53 68zM281 291l-211 438h126l80 -179l66 -158h7l112 158l128 179h135l-334 -438l-41 -291h-108z" />
    <glyph glyph-name="ygrave" unicode="&#x1ef3;" horiz-adv-x="532" 
d="M356 654l-41 -50l-176 116l53 68zM186 65l-153 461h109l49 -169l52 -192h6l110 192l96 169h115l-282 -462l-19 -140q-5 -35 -22 -58q-20 -33 -80 -33h-135l13 84h121z" />
    <glyph glyph-name="endash" unicode="&#x2013;" horiz-adv-x="641" 
d="M581 268h-521l9 65h521z" />
    <glyph glyph-name="emdash" unicode="&#x2014;" horiz-adv-x="837" 
d="M777 268h-717l9 65h717z" />
    <glyph glyph-name="quoteleft" unicode="&#x2018;" horiz-adv-x="210" 
d="M238 746l-6 -46q-42 0 -61 -18.5t-25 -54.5l-4 -29h64l-18 -133h-121l21 157q9 60 48 92t102 32z" />
    <glyph glyph-name="quoteright" unicode="&#x2019;" horiz-adv-x="207" 
d="M70 455l6 46q75 0 85 73l4 29h-64l19 133h121l-22 -157q-9 -60 -48 -92t-101 -32z" />
    <glyph glyph-name="quotesinglbase" unicode="&#x201a;" horiz-adv-x="210" 
d="M-18 -148l7 46q75 0 85 73l4 29h-64l18 133h122l-22 -157q-9 -60 -48 -92t-102 -32z" />
    <glyph glyph-name="quotedblleft" unicode="&#x201c;" horiz-adv-x="420" 
d="M250 830l-6 -45q-75 0 -85 -73l-4 -29h63l-18 -133h-121l22 157q9 60 47.5 91.5t101.5 31.5zM460 830l-6 -45q-75 0 -85 -73l-4 -29h64l-19 -133h-121l22 157q9 60 47.5 91.5t101.5 31.5z" />
    <glyph glyph-name="quotedblright" unicode="&#x201d;" horiz-adv-x="420" 
d="M7 31l7 46q75 0 85 73l4 29h-64l18 133h122l-22 -157q-9 -60 -48 -92t-102 -32zM217 31l7 46q75 0 85 73l4 29h-64l19 133h121l-22 -157q-9 -60 -48 -92t-102 -32z" />
    <glyph glyph-name="quotedblbase" unicode="&#x201e;" horiz-adv-x="420" 
d="M-18 -148l7 46q75 0 85 73l4 29h-64l18 133h122l-22 -157q-9 -60 -48 -92t-102 -32zM192 -148l7 46q75 0 85 73l4 29h-64l18 133h122l-22 -157q-9 -60 -48 -92t-102 -32z" />
    <glyph glyph-name="dagger" unicode="&#x2020;" horiz-adv-x="415" 
d="M313 731l-50 -353h137l-11 -73h-136l-21 -148h-79l21 148h-136l10 73h136l50 353h79z" />
    <glyph glyph-name="daggerdbl" unicode="&#x2021;" horiz-adv-x="416" 
d="M429 586l-9 -71h-138l-19 -137h137l-11 -73h-136l-21 -148h-79l21 148h-136l10 73h136l19 137h-135l9 71h136l21 145h79l-21 -145h137z" />
    <glyph glyph-name="bullet" unicode="&#x2022;" horiz-adv-x="392" 
d="M63 257q0 64 46 111q47 48 108 48q50 0 82.5 -34t32.5 -85q0 -63 -47 -110t-107 -47q-50 0 -82.5 33.5t-32.5 83.5z" />
    <glyph glyph-name="ellipsis" unicode="&#x2026;" horiz-adv-x="691" 
d="M151 0h-122l19 136h122zM370 0h-122l19 136h122zM589 0h-122l19 136h122z" />
    <glyph glyph-name="perthousand" unicode="&#x2030;" horiz-adv-x="1303" 
d="M101 557q0 81 48 130q50 50 128 50q79 0 129 -50t50 -131q0 -80 -50 -132q-50 -50 -129 -50q-77 0 -127 50q-49 50 -49 133zM304 0h-74l462 729h74zM277 443q45 0 72.5 31.5t27.5 82.5q0 50 -27.5 81t-72.5 31q-43 0 -70.5 -31t-27.5 -81t27.5 -82t70.5 -32zM528 173
q0 81 49 131q49 51 129 51t128 -51t48 -132q0 -82 -49 -132q-50 -50 -127 -50q-79 0 -128.5 50.5t-49.5 132.5zM932 173q0 81 49 131q49 51 129 51q78 0 127 -51q49 -50 49 -132t-49 -132q-50 -50 -127 -50q-79 0 -129 50q-49 50 -49 133zM706 286q-44 0 -72 -31.5
t-28 -81.5t28 -82t72 -32t71.5 32t27.5 82t-28 81.5t-71 31.5zM1110 59q43 0 70.5 32t27.5 82t-27.5 81.5t-70.5 31.5q-45 0 -72.5 -31.5t-27.5 -81.5q0 -51 27.5 -82.5t72.5 -31.5z" />
    <glyph glyph-name="guilsinglleft" unicode="&#x2039;" horiz-adv-x="327" 
d="M141 64l-90 210l150 208h93l-140 -208l81 -210h-94z" />
    <glyph glyph-name="guilsinglright" unicode="&#x203a;" horiz-adv-x="327" 
d="M190 482l89 -208l-149 -210h-95l140 210l-81 208h96z" />
    <glyph glyph-name="fraction" unicode="&#x2044;" horiz-adv-x="217" 
d="M-99 -46h-84l523 814h85z" />
    <glyph glyph-name="uni2070" unicode="&#x2070;" horiz-adv-x="491" 
d="M251 295q-81 0 -124 53.5t-43 155.5q0 160 69 262q70 103 179 103q79 0 122 -53.5t43 -154.5q0 -159 -69 -263q-69 -103 -177 -103zM261 373q63 0 104 81q41 84 41 208q0 130 -85 130q-65 0 -105 -81q-40 -79 -40 -207q0 -131 85 -131z" />
    <glyph glyph-name="uni2074" unicode="&#x2074;" horiz-adv-x="482" 
d="M467 862l-52 -371h70l-11 -74h-69l-17 -117h-87l17 117h-270l10 72l276 373h133zM370 791l-221 -300h179z" />
    <glyph glyph-name="uni2075" unicode="&#x2075;" horiz-adv-x="475" 
d="M494 862l-10 -77h-256l-27 -147l4 -2q41 38 114 38q71 0 114 -43t43 -113q0 -97 -66 -161q-65 -65 -162 -65q-84 0 -131 50q-46 51 -34 131h89q-7 -45 17 -74t71 -29q53 0 88 38t35 96q0 43 -25.5 69.5t-67.5 26.5q-31 0 -60 -15.5t-43 -39.5h-83l58 317h332z" />
    <glyph glyph-name="uni2076" unicode="&#x2076;" horiz-adv-x="479" 
d="M254 292q-85 0 -126.5 53t-41.5 151q0 171 69 271q69 102 183 102q76 0 119 -39t41 -105h-91q-1 35 -22.5 52t-58.5 17q-124 0 -140 -195h4q47 71 137 71q67 0 107.5 -41t40.5 -110q0 -99 -63 -163t-158 -64zM267 370q50 0 83 39q34 40 34 98q0 42 -23 65.5t-62 23.5
q-49 0 -84 -39q-34 -38 -34 -96q0 -41 23 -66t63 -25z" />
    <glyph glyph-name="uni2077" unicode="&#x2077;" horiz-adv-x="430" 
d="M155 686h-72l24 176h383l-8 -62q-93 -110 -172 -245q-80 -135 -117 -255h-95q36 116 111 246q76 132 165 239h-205z" />
    <glyph glyph-name="uni2078" unicode="&#x2078;" horiz-adv-x="465" 
d="M64 425q0 50 27.5 91t73.5 62l1 6q-65 32 -65 108q0 78 61 127q62 50 156 50q80 0 126.5 -36t46.5 -96q0 -49 -27.5 -91t-73.5 -62l-1 -6q64 -33 64 -108q0 -79 -61 -128q-62 -50 -156 -50q-80 0 -126 36t-46 97zM192 690q0 -34 24.5 -53.5t65.5 -19.5q51 0 83.5 28.5
t32.5 72.5q0 34 -24.5 54t-66.5 20q-50 0 -82.5 -28.5t-32.5 -73.5zM157 443q0 -35 24.5 -54.5t66.5 -19.5q50 0 82.5 28.5t32.5 73.5q0 34 -24.5 54.5t-65.5 20.5q-51 0 -83.5 -29t-32.5 -74z" />
    <glyph glyph-name="uni2079" unicode="&#x2079;" horiz-adv-x="477" 
d="M234 292q-73 0 -116.5 39t-41.5 105h90q0 -32 22 -50t59 -18q121 0 139 195h-4q-48 -70 -138 -70q-67 0 -107 41t-40 110q0 96 62 161q63 64 158 64q168 0 168 -204q0 -172 -68 -273q-67 -100 -183 -100zM272 566q50 0 84 39q35 41 35 96q0 42 -23.5 66.5t-64.5 24.5
q-50 0 -83 -40q-33 -39 -33 -97q0 -42 23 -65.5t62 -23.5z" />
    <glyph glyph-name="uni2080" unicode="&#x2080;" horiz-adv-x="491" 
d="M195 -105q-81 0 -124 53.5t-43 155.5q0 160 69 262q70 103 179 103q79 0 122 -53.5t43 -154.5q0 -159 -69 -263q-69 -103 -177 -103zM205 -27q63 0 104 81q41 84 41 208q0 130 -85 130q-65 0 -105 -81q-40 -79 -40 -207q0 -131 85 -131z" />
    <glyph glyph-name="uni2081" unicode="&#x2081;" horiz-adv-x="354" 
d="M179 297h-143l9 68h23q54 0 92.5 27t46.5 70h81l-79 -562h-87z" />
    <glyph glyph-name="uni2082" unicode="&#x2082;" horiz-adv-x="452" 
d="M107 -26l94 4h168l-11 -78h-359l3 19q8 53 35 97t62 71.5t74 55.5t71 50.5t53 55.5t21 72q0 34 -21 52.5t-58 18.5q-46 0 -75.5 -27t-33.5 -74h-88q10 79 69 129q58 49 142 49q74 0 116.5 -37t42.5 -100q-1 -69 -36 -117t-97 -91q-15 -11 -50.5 -34.5t-53 -36.5
t-38.5 -35t-30 -44z" />
    <glyph glyph-name="uni2083" unicode="&#x2083;" horiz-adv-x="465" 
d="M192 -108q-87 0 -131.5 49t-30.5 129h91q-9 -48 14 -74.5t69 -26.5q49 0 81.5 30.5t32.5 77.5q0 36 -25.5 56t-69.5 20h-46l10 73h41q51 0 83 27.5t32 71.5q0 32 -22 49.5t-59 17.5q-45 0 -74.5 -26.5t-34.5 -72.5h-90q7 77 67 127q58 49 144 49q72 0 117 -34.5t45 -92.5
q0 -49 -27 -87.5t-74 -58.5l-1 -4q75 -30 75 -112q0 -80 -63 -134q-62 -54 -154 -54z" />
    <glyph glyph-name="uni2084" unicode="&#x2084;" horiz-adv-x="482" 
d="M411 462l-52 -371h69l-10 -74h-70l-16 -117h-87l16 117h-269l10 72l276 373h133zM314 391l-221 -300h179z" />
    <glyph glyph-name="uni2085" unicode="&#x2085;" horiz-adv-x="475" 
d="M438 462l-10 -77h-256l-27 -147l4 -2q41 38 114 38q71 0 114 -43t43 -113q0 -96 -66 -161q-65 -65 -162 -65q-84 0 -131 51q-46 49 -34 130h89q-7 -45 17 -74t71 -29q53 0 88 38t35 96q0 43 -25.5 69.5t-67.5 26.5q-31 0 -60 -15.5t-43 -39.5h-83l58 317h332z" />
    <glyph glyph-name="uni2086" unicode="&#x2086;" horiz-adv-x="479" 
d="M198 -108q-85 0 -126.5 53t-41.5 151q0 170 69 271q69 102 183 102q76 0 119 -39t41 -105h-91q-1 35 -22.5 52t-58.5 17q-124 0 -140 -195h4q47 71 137 71q67 0 107.5 -41t40.5 -110q0 -97 -63 -162t-158 -65zM211 -30q50 0 83 39q34 40 34 98q0 42 -23 65.5t-62 23.5
q-49 0 -84 -39q-34 -38 -34 -96q0 -41 23 -66t63 -25z" />
    <glyph glyph-name="uni2087" unicode="&#x2087;" horiz-adv-x="430" 
d="M99 286h-72l24 176h383l-8 -62q-92 -109 -172 -244q-80 -136 -117 -256h-95q38 116 111 246q76 132 165 239h-205z" />
    <glyph glyph-name="uni2088" unicode="&#x2088;" horiz-adv-x="465" 
d="M8 25q0 50 27 90.5t74 62.5l1 6q-30 14 -47.5 43t-17.5 65q0 78 61 127q62 50 156 50q80 0 126.5 -36t46.5 -96q0 -49 -27.5 -91t-73.5 -62l-1 -6q64 -33 64 -108q0 -79 -61 -128q-62 -50 -156 -50q-80 0 -126 36t-46 97zM136 290q0 -34 24.5 -53.5t65.5 -19.5
q51 0 83.5 28.5t32.5 72.5q0 34 -24.5 54t-66.5 20q-50 0 -82.5 -28.5t-32.5 -73.5zM101 43q0 -35 24.5 -54.5t66.5 -19.5q50 0 82.5 28.5t32.5 73.5q0 34 -24.5 54.5t-65.5 20.5q-51 0 -83.5 -29t-32.5 -74z" />
    <glyph glyph-name="uni2089" unicode="&#x2089;" horiz-adv-x="477" 
d="M178 -108q-73 0 -116.5 39t-41.5 105h90q0 -32 22 -50t59 -18q121 0 139 195h-4q-48 -70 -138 -70q-67 0 -107 41t-40 110q0 96 62 161q63 64 158 64q168 0 168 -204q0 -172 -68 -273q-67 -100 -183 -100zM216 166q50 0 84 39q35 41 35 96q0 42 -23.5 66.5t-64.5 24.5
q-50 0 -83 -40q-33 -39 -33 -97q0 -42 23 -65.5t62 -23.5z" />
    <glyph glyph-name="uni20A6" unicode="&#x20a6;" horiz-adv-x="715" 
d="M644 402h86l-11 -76h-85l-46 -326h-120l-130 326h-137l-46 -326h-104l46 326h-83l10 76h83l46 327h121l131 -327h136l46 327h103zM231 578l-20 -176h96l-70 176h-6zM505 151h6l20 175h-96z" />
    <glyph glyph-name="uni20A9" unicode="&#x20a9;" horiz-adv-x="815" 
d="M739 729h109l-105 -327h81l-11 -76h-94l-105 -326h-128l-17 326h-102l-107 -326h-128l-16 326h-96l10 76h83l-16 327h107l8 -327h96l112 327h107l22 -327h94zM458 589h-6l-61 -187h75zM219 128l58 184l5 14h-68v-198h5zM567 127l53 199h-66l1 -15l6 -184h6z" />
    <glyph glyph-name="uni20AA" unicode="&#x20aa;" horiz-adv-x="722" 
d="M435 520l17 121h-238l-90 -641h-91l102 729h317q52 0 74 -22.5t14 -78.5l-16 -108l-50 -355h-89zM537 89l90 640h91l-102 -729h-318q-51 0 -73 22.5t-14 78.5l16 109l49 355h90l-49 -355l-18 -121h238z" />
    <glyph glyph-name="Euro" unicode="&#x20ac;" horiz-adv-x="743" 
d="M377 87q68 0 119 35.5t76 98.5h114q-34 -107 -123 -168q-88 -62 -202 -62q-118 0 -186 68t-76 191h-73l10 76h63q4 53 14 92h-64l11 76h76q45 115 132.5 179.5t200.5 64.5q114 0 183 -63q70 -63 74 -166h-114q-7 64 -48.5 98.5t-108.5 34.5t-120 -38.5t-86 -109.5h257
l-19 -76h-264q-12 -57 -13 -92h257l-21 -76h-235q8 -80 51 -121.5t115 -41.5z" />
    <glyph glyph-name="uni20B2" unicode="&#x20b2;" horiz-adv-x="687" 
d="M350 303l12 85h266l-7 -48q-18 -126 -94 -201t-192 -85l-12 -85h-75l12 85q-99 10 -153 74.5t-54 170.5q0 158 82 264q83 107 214 122l12 84h75l-12 -84q92 -10 145.5 -65.5t52.5 -140.5h-104q-4 57 -42 88t-102 31q-81 0 -137 -51.5t-68 -135.5l-12 -84
q-13 -89 29.5 -140t127.5 -51q79 0 131.5 45t65.5 122h-161z" />
    <glyph glyph-name="uni20B8" unicode="&#x20b8;" horiz-adv-x="558" 
d="M59 641l12 88h548l-13 -88h-547zM255 456h-222l13 92h547l-13 -92h-221l-64 -456h-104z" />
    <glyph glyph-name="uni20B9" unicode="&#x20b9;" horiz-adv-x="704" 
d="M160 729h516l-11 -77h-127q35 -47 35 -117v-7h74l-11 -76h-75q-18 -63 -62.5 -107.5t-110.5 -63.5l-1 -6q27 -8 39 -28q8 -11 13 -23l6 -14q2 -2 7 -16.5t6 -16.5l67 -177h-117l-66 180q-16 45 -37 61.5t-66 16.5h-146l13 88h185q59 0 100 27.5t58 78.5h-329l11 76h328
q-3 51 -36.5 78.5t-91.5 27.5h-184l2 18z" />
    <glyph glyph-name="uni20BA" unicode="&#x20ba;" horiz-adv-x="609" 
d="M476 331h105q-45 -154 -160 -242q-113 -87 -265 -89h-86l40 280l-101 -37l12 86l101 38l12 87l-100 -38l11 85l102 41l26 187h104l-21 -148l184 71l-12 -86l-184 -72l-12 -87l184 72l-13 -86l-184 -72l-31 -222q99 2 176 64t112 168z" />
    <glyph glyph-name="uni20BC" unicode="&#x20bc;" horiz-adv-x="687" 
d="M113 0h-102l48 348q18 129 91.5 197.5t192.5 77.5l15 106h102l-15 -106q121 -9 172.5 -79.5t33.5 -195.5l-48 -348h-101l48 348q11 82 -20 126.5t-98 49.5l-74 -524h-102l74 524q-143 -10 -169 -176z" />
    <glyph glyph-name="uni20BD" unicode="&#x20bd;" horiz-adv-x="671" 
d="M410 259h-194l-10 -72h233l-10 -77h-234l-16 -110h-108l16 110h-77l11 77h76l11 77h-76l12 88h77l53 377h303q100 0 151.5 -48t51.5 -137q0 -131 -73 -208q-74 -77 -197 -77zM463 629h-195l-39 -277h187q59 0 96.5 29.5t44.5 78.5l9 69q7 48 -21 74t-82 26z" />
    <glyph glyph-name="uni20BF" unicode="&#x20bf;" horiz-adv-x="723" 
d="M530 384l-1 -7q89 -23 89 -122q0 -92 -62 -148t-163 -56h-1l-11 -82h-74l11 82h-77l-11 -82h-74l12 82h-79l90 639h78l11 79h74l-11 -79h77l11 79h74l-11 -79h6q75 0 116 -35t41 -98q0 -61 -31 -107.5t-84 -65.5zM460 608h-192l-27 -191h194q41 0 66.5 20.5t30.5 54.5
l5 41q5 35 -15 55t-62 20zM507 213l6 41q5 39 -17 60.5t-67 21.5h-199l-29 -203h188q49 0 81 21.5t37 58.5z" />
    <glyph glyph-name="uni2105" unicode="&#x2105;" horiz-adv-x="1001" 
d="M349 498h83q-7 -63 -54.5 -101t-116.5 -38q-79 0 -128 51.5t-49 137.5q0 87 49.5 139t131.5 52q66 0 112 -36.5t54 -94.5h-83q-6 28 -29.5 44.5t-55.5 16.5q-46 0 -71 -32t-25 -89t25 -88.5t70 -31.5q34 0 58.5 19t28.5 51zM322 0h-81l462 729h81zM587 183q0 84 50 137
t131 53q80 0 130 -53t50 -137t-50 -137t-130 -53q-82 0 -131.5 52.5t-49.5 137.5zM670 183q0 -54 26.5 -87t71.5 -33t71 33t26 88q0 54 -26 86.5t-71 32.5q-46 0 -72 -32.5t-26 -87.5z" />
    <glyph glyph-name="uni2116" unicode="&#x2116;" horiz-adv-x="1381" 
d="M828 463q0 112 81 193t193 81q95 0 151 -59t56 -145q0 -111 -81 -190q-82 -80 -193 -80q-92 0 -150 56q-57 57 -57 144zM167 0h-108l102 729h131l281 -586h6l23 218l51 368h108l-102 -729h-132l-279 586h-6l-22 -210zM949 538l-10 -76q-7 -48 25 -79.5t84 -31.5t93 31
q42 31 49 80l10 75q7 48 -24.5 79.5t-85.5 31.5t-94 -30.5t-47 -79.5zM820 0l13 89h357l-13 -89h-357z" />
    <glyph glyph-name="uni2117" unicode="&#x2117;" horiz-adv-x="926" 
d="M477 -76q-173 0 -298 117q-123 119 -123 301q0 184 123 302q125 119 299 119q175 0 297 -118q123 -117 123 -300q0 -185 -123 -303q-122 -118 -298 -118zM477 -46q160 0 273 110q112 111 112 281q0 169 -112 278t-273 109q-160 0 -273 -110t-113 -280q0 -169 113 -279
q112 -109 273 -109zM409 134h-77v417h210q68 0 108.5 -39.5t40.5 -102.5t-40.5 -102.5t-108.5 -39.5h-133v-133zM407 480v-145h131q35 0 55.5 20.5t20.5 53.5q0 31 -21 51t-55 20h-131z" />
    <glyph glyph-name="trademark" unicode="&#x2122;" horiz-adv-x="679" 
d="M169 681h-89l7 50h236l-8 -50h-92l-37 -261h-54zM497 534l114 197h70l-44 -311h-54l21 146l16 88h-3l-136 -228l-72 228h-3l-8 -88l-21 -146h-53l44 311h69l58 -197h2z" />
    <glyph glyph-name="estimated" unicode="&#x212e;" horiz-adv-x="797" 
d="M716 230h46q-27 -108 -120 -174q-94 -65 -222 -65q-163 0 -260 102q-97 101 -97 266q0 166 100 267q100 103 266 103q151 0 242 -88q91 -87 99 -246q1 -14 1 -57h-600v-185q35 -59 102 -91.5t149 -32.5q108 0 187 55q81 56 107 146zM171 561v-187h493v205
q-90 111 -249 108t-244 -126z" />
    <glyph glyph-name="oneeighth" unicode="&#x215b;" horiz-adv-x="921" 
d="M213 -46h-84l523 814h85zM197 582h-123l9 65h45q42 0 66.5 22t24.5 56v4h80l-67 -473h-81zM540 107q0 42 24 78t63 52v5q-55 28 -55 93q0 66 52 108q52 43 134 43q68 0 106.5 -30.5t38.5 -82.5q0 -42 -23.5 -78.5t-61.5 -52.5v-5q54 -29 54 -90q0 -68 -52 -111
q-50 -43 -133 -43q-68 0 -107.5 31t-39.5 83zM655 333q0 -28 19.5 -43.5t52.5 -15.5q40 0 65.5 23.5t25.5 58.5q0 28 -19 43.5t-52 15.5q-40 0 -66 -23.5t-26 -58.5zM625 123q0 -27 20 -43t53 -16q38 0 64 23.5t26 59.5q0 28 -19 43.5t-51 15.5q-40 0 -66.5 -23.5
t-26.5 -59.5z" />
    <glyph glyph-name="threeeighths" unicode="&#x215c;" horiz-adv-x="991" 
d="M294 -46h-84l523 814h85zM196 248q-72 0 -109 41.5t-26 107.5h82q-7 -35 11 -56.5t51 -21.5q37 0 62 23.5t25 58.5q0 29 -19.5 44.5t-52.5 15.5h-37l11 74h30q38 0 63 22t25 57q0 24 -16 37t-43 13q-34 0 -56.5 -21.5t-26.5 -56.5h-82q7 66 55 107.5t121 41.5
q60 0 97 -29.5t37 -78.5q0 -86 -83 -122l-1 -5q62 -26 62 -92q0 -68 -52 -114t-128 -46zM620 107q0 42 24 78t63 52v5q-55 28 -55 93q0 66 52 108q52 43 134 43q68 0 106.5 -30.5t38.5 -82.5q0 -42 -23.5 -78.5t-61.5 -52.5v-5q54 -29 54 -90q0 -68 -52 -111
q-50 -43 -133 -43q-68 0 -107.5 31t-39.5 83zM735 333q0 -28 19.5 -43.5t52.5 -15.5q40 0 65.5 23.5t25.5 58.5q0 28 -19 43.5t-52 15.5q-40 0 -66 -23.5t-26 -58.5zM705 123q0 -27 20 -43t53 -16q38 0 64 23.5t26 59.5q0 28 -19 43.5t-51 15.5q-40 0 -66.5 -23.5
t-26.5 -59.5z" />
    <glyph glyph-name="fiveeighths" unicode="&#x215d;" horiz-adv-x="1005" 
d="M307 -46h-84l523 814h85zM66 401h82q-5 -34 13.5 -57.5t53.5 -23.5q40 0 68 31t28 76q0 34 -19.5 55t-51.5 21q-26 0 -48 -12.5t-32 -32.5h-77l38 271h290l-10 -73h-210l-9 -67l-9 -45l1 -2q33 30 91 30q59 0 94.5 -36.5t35.5 -95.5q0 -81 -56 -137q-55 -55 -135 -55
q-70 0 -109 42q-39 44 -29 111zM634 107q0 42 24 78t63 52v5q-55 28 -55 93q0 66 52 108q52 43 134 43q68 0 106.5 -30.5t38.5 -82.5q0 -42 -23.5 -78.5t-61.5 -52.5v-5q54 -29 54 -90q0 -68 -52 -111q-50 -43 -133 -43q-68 0 -107.5 31t-39.5 83zM749 333q0 -28 19.5 -43.5
t52.5 -15.5q40 0 65.5 23.5t25.5 58.5q0 28 -19 43.5t-52 15.5q-40 0 -66 -23.5t-26 -58.5zM719 123q0 -27 20 -43t53 -16q38 0 64 23.5t26 59.5q0 28 -19 43.5t-51 15.5q-40 0 -66.5 -23.5t-26.5 -59.5z" />
    <glyph glyph-name="seveneighths" unicode="&#x215e;" horiz-adv-x="906" 
d="M113 -46l523 814h85l-524 -814h-84zM152 256h-79q67 232 225 400h-154l-9 -64h-61l8 64l10 73h314l-8 -58q-176 -188 -246 -415zM802 242v-5q54 -29 54 -90q0 -68 -52 -111q-50 -43 -133 -43q-68 0 -107.5 31t-39.5 83q0 42 24 78t63 52v5q-55 28 -55 93q0 66 52 108
q52 43 134 43q68 0 106.5 -30.5t38.5 -82.5q0 -42 -23.5 -78.5t-61.5 -52.5zM711 274q40 0 65.5 23.5t25.5 58.5q0 28 -19 43.5t-52 15.5q-40 0 -66 -23.5t-26 -58.5q0 -28 19.5 -43.5t52.5 -15.5zM682 64q38 0 64 23.5t26 59.5q0 28 -19 43.5t-51 15.5q-40 0 -66.5 -23.5
t-26.5 -59.5q0 -27 20 -43t53 -16z" />
    <glyph glyph-name="arrowleft" unicode="&#x2190;" horiz-adv-x="851" 
d="M755 297v-66h-612l169 -231h-80l-198 265l198 263h80l-169 -231h612z" />
    <glyph glyph-name="arrowup" unicode="&#x2191;" horiz-adv-x="657" 
d="M581 375v-81l-205 181v-410h205v-64h-473v64h204v410l-204 -181v81l236 207z" />
    <glyph glyph-name="arrowright" unicode="&#x2192;" horiz-adv-x="884" 
d="M713 231h-612v66h612l-169 231h80l198 -263l-198 -265h-80z" />
    <glyph glyph-name="arrowdown" unicode="&#x2193;" horiz-adv-x="657" 
d="M603 531v-64h-205v-409l205 180v-81l-238 -207l-236 207v81l204 -180v409h-204v64h474z" />
    <glyph glyph-name="arrowboth" unicode="&#x2194;" horiz-adv-x="1063" 
d="M289 109l-203 244l203 243h77l-173 -211h702l-171 211h75l204 -243l-204 -244h-75l171 211h-702l173 -211h-77z" />
    <glyph glyph-name="arrowupdn" unicode="&#x2195;" horiz-adv-x="746" 
d="M409 -141l-290 250v83l259 -223v681l-259 -222v82l290 250l289 -250v-82l-258 222v-681l258 223v-83z" />
    <glyph glyph-name="uni2196" unicode="&#x2196;" horiz-adv-x="689" 
d="M670 48l-46 -48l-411 426v-347h-65v458h445v-67h-336z" />
    <glyph glyph-name="uni2197" unicode="&#x2197;" horiz-adv-x="704" 
d="M527 420l-407 -420l-45 47l408 420h-336v64h444v-457h-64v346z" />
    <glyph glyph-name="uni2198" unicode="&#x2198;" horiz-adv-x="687" 
d="M609 0l-446 -2v69h335l-407 418l46 46l407 -420l1 349h65z" />
    <glyph glyph-name="uni2199" unicode="&#x2199;" horiz-adv-x="685" 
d="M583 0h-447v460h66v-349l406 420l45 -46l-406 -418h336v-67z" />
    <glyph glyph-name="uni21A9" unicode="&#x21a9;" horiz-adv-x="940" 
d="M859 498q0 -103 -64.5 -162.5t-183.5 -59.5h-359v-124l-174 157l174 159v-125h359q82 0 131 41t49 114q0 69 -46 111.5t-124 42.5h-13v65h13q104 0 171 -62q67 -61 67 -157z" />
    <glyph glyph-name="uni21AA" unicode="&#x21aa;" horiz-adv-x="940" 
d="M124 498q0 96 66 157q68 62 172 62h13v-65h-13q-77 0 -122.5 -42t-45.5 -112q0 -75 47.5 -115t130.5 -40h360v125l173 -159l-173 -157v124h-360q-119 0 -183.5 59t-64.5 163z" />
    <glyph glyph-name="uni21B2" unicode="&#x21b2;" horiz-adv-x="784" 
d="M633 343v399h64v-466h-423v-124l-175 157l175 159v-125h359z" />
    <glyph glyph-name="uni21B3" unicode="&#x21b3;" horiz-adv-x="784" 
d="M584 468l174 -159l-174 -157v124h-424v466h64v-399h360v125z" />
    <glyph glyph-name="uni21BA" unicode="&#x21ba;" horiz-adv-x="824" 
d="M424 -12q-143 0 -238 94q-96 94 -96 234q0 91 45.5 171.5t125.5 131.5l34 -49q-143 -89 -143 -254q0 -114 78 -191q79 -77 195 -77q115 0 190 76q76 76 76 186q0 82 -39 140q-40 60 -178 180l-3 -2l5 -70v-146h-58v317h307v-62h-143l-65 5l-2 -3q146 -121 194 -192
q46 -67 46 -167q0 -134 -96 -228q-94 -94 -235 -94z" />
    <glyph glyph-name="uni21BB" unicode="&#x21bb;" horiz-adv-x="824" 
d="M448 -12q-140 0 -234 94q-95 95 -95 228q0 101 46 169t192 190l-1 3l-67 -5h-144v62h311v-317h-62v146l5 70l-3 2q-139 -123 -178 -181q-38 -58 -38 -139q0 -110 76 -186t191 -76q117 0 194 76q78 76 78 192q0 82 -37.5 148t-104.5 106l35 49q78 -49 125 -132
q46 -82 46 -171q0 -140 -96 -234q-95 -94 -239 -94z" />
    <glyph glyph-name="emptyset" unicode="&#x2205;" horiz-adv-x="772" 
d="M455 738q142 0 220 -77.5t78 -217.5q0 -203 -112 -328q-113 -125 -291 -125q-143 0 -220.5 76.5t-77.5 217.5q0 203 112 328q112 126 291 126zM180 416l-15 -103q-8 -56 3 -98l418 380q-52 46 -145 46q-107 0 -176.5 -60.5t-84.5 -164.5zM625 313l15 103q9 60 -7 108
l-423 -384q56 -53 153 -53q107 0 177 61t85 165z" />
    <glyph glyph-name="product" unicode="&#x220f;" horiz-adv-x="744" 
d="M157 729h562l-13 -88h-104l-90 -641h-102l90 641h-145l-91 -641h-102l90 641h-107z" />
    <glyph glyph-name="summation" unicode="&#x2211;" horiz-adv-x="587" 
d="M480 -164h-488l12 86l291 354l1 7l-191 359l12 87h489l-14 -97l-232 -1l-135 7v-7l186 -352l-287 -343v-7l137 7h233z" />
    <glyph glyph-name="minus" unicode="&#x2212;" horiz-adv-x="625" 
d="M82 250l14 95h458l-13 -95h-459z" />
    <glyph glyph-name="radical" unicode="&#x221a;" horiz-adv-x="736" 
d="M422 277l230 452h106l-411 -806h-139l-92 403h-73l12 83h148l30 -129l53 -267h7z" />
    <glyph glyph-name="infinity" unicode="&#x221e;" horiz-adv-x="888" 
d="M237 62q-87 0 -141 59q-53 61 -53 151q0 88 54 150t140 62q63 0 112 -36t98 -108q52 73 99.5 108.5t112.5 35.5q86 0 139 -62q54 -62 54 -150t-54 -149q-52 -61 -139 -61q-65 0 -113.5 35.5t-98.5 107.5q-95 -143 -210 -143zM240 149q40 0 76 28t83 95q-49 68 -83.5 95
t-75.5 27q-48 0 -78 -34t-30 -88t31 -88.5t77 -34.5zM654 149q48 0 78.5 34.5t30.5 88.5t-31 88t-78 34q-41 0 -75 -27t-82 -95q50 -69 82 -96q35 -27 75 -27z" />
    <glyph glyph-name="integral" unicode="&#x222b;" horiz-adv-x="575" 
d="M394 753h147l-12 -87h-134l-17 -120l-67 -475l-17 -118q-14 -89 -104 -89h-146l12 86h134l17 121l67 475l16 116q10 91 104 91z" />
    <glyph glyph-name="approxequal" unicode="&#x2248;" horiz-adv-x="532" 
d="M157 349h-55q5 66 35.5 98.5t73.5 32.5q32 0 78 -25q47 -25 72 -25q49 0 54 59h55q-5 -67 -37.5 -99.5t-78.5 -32.5q-38 0 -86 24t-66 24q-21 0 -33 -15.5t-12 -40.5zM129 151h-55q5 66 35.5 98t73.5 32q32 0 78 -25q48 -24 72 -24q47 0 55 59h54q-5 -68 -37.5 -101
t-78.5 -33q-37 0 -86 25q-50 26 -66 26q-20 0 -32.5 -16.5t-12.5 -40.5z" />
    <glyph glyph-name="notequal" unicode="&#x2260;" horiz-adv-x="603" 
d="M544 441l-11 -87h-144l-78 -118h205l-12 -85h-249l-76 -115h-88l76 115h-98l12 85h142l78 118h-203l12 87h249l79 120h87l-79 -120h98z" />
    <glyph glyph-name="lessequal" unicode="&#x2264;" horiz-adv-x="563" 
d="M478 253l-15 -111l-377 184l13 90l428 183l-16 -110l-183 -70l-139 -45l-1 -7l122 -44zM455 91l-12 -91h-403l13 91h402z" />
    <glyph glyph-name="greaterequal" unicode="&#x2265;" horiz-adv-x="563" 
d="M496 326l-429 -184l15 111l187 70l136 44l1 7l-127 45l-163 70l16 110l376 -183zM450 0h-403l12 91h403z" />
    <glyph glyph-name="filledbox" unicode="&#x25a0;" horiz-adv-x="916" 
d="M177 1v728h693v-728h-693z" />
    <glyph glyph-name="uni25A1" unicode="&#x25a1;" horiz-adv-x="888" 
d="M163 0v729h694v-729h-694zM797 670h-575v-611h575v611z" />
    <glyph glyph-name="triagup" unicode="&#x25b2;" horiz-adv-x="991" 
d="M32 0l426 737l428 -737h-854z" />
    <glyph glyph-name="uni25B3" unicode="&#x25b3;" horiz-adv-x="989" 
d="M883 0h-849l423 738zM458 618l-320 -556h640z" />
    <glyph glyph-name="lozenge" unicode="&#x25ca;" horiz-adv-x="2152" 
d="M1049 -10q-135 0 -214 100t-79 268q0 96 28 170.5t76.5 119.5t109.5 68t132 23q120 0 202 -62q82 -61 100 -164h-156q-36 86 -147 86q-90 0 -137 -62t-47 -175q0 -115 46.5 -175t129.5 -60q67 0 109 33t52 92h-162v143h324v-395h-111l-16 119h-35q-17 -62 -71.5 -95.5
t-133.5 -33.5zM1551 576q-34 0 -56.5 23t-22.5 59q0 35 22.5 58t56.5 23q35 0 55.5 -22.5t20.5 -58.5q0 -37 -20.5 -59.5t-55.5 -22.5zM1749 576q-34 0 -55 23t-21 59q0 35 21.5 58t54.5 23q36 0 58.5 -23t22.5 -58q0 -36 -22.5 -59t-58.5 -23zM375 0h-271v729h271
q161 0 248.5 -92.5t87.5 -270.5t-88.5 -272t-247.5 -94zM1951 572h-36v126h-38v31h118v-31h-44v-126zM2049 572h-34v157h63l17 -127l23 127h61v-157h-40v135l-17 -135h-52l-21 135v-135zM210 109l26 -26q28 28 53 40t60 12h26q32 0 69 15q31 12 52 33q24 24 41 72t17 108
q0 59 -16 106t-39 70q-21 23 -49 36q-37 19 -75 19h-26q-29 0 -52 10q-26 12 -32 17l-29 27l-26 -30q0 -2 7 -9t7 -8q5 -2 20 -27q15 -22 15 -71v-276q-3 -51 -16 -74l-10 -15q-9 -15 -23 -29zM1647 0h-149v491h141l7 -58h27q12 36 49 56t90 20v-147q-165 16 -165 -148v-214
z" />
    <glyph glyph-name="circle" unicode="&#x25cb;" horiz-adv-x="825" 
d="M431 -10q-155 0 -262 105q-106 105 -106 270q0 163 106 268q107 105 262 105t261 -105q107 -105 107 -268q0 -165 -107 -270q-106 -105 -261 -105zM210 132q92 -92 221 -92q128 0 220 92t92 233q0 140 -92 232q-91 91 -220 91q-130 0 -221 -91t-91 -232q0 -142 91 -233z
" />
    <glyph glyph-name="uni25CF" unicode="&#x25cf;" horiz-adv-x="899" 
d="M470 -10q-157 0 -262 107q-105 108 -105 269q0 158 105 265t262 107q155 0 259 -107t104 -265q0 -160 -104 -269q-104 -107 -259 -107z" />
    <glyph glyph-name="uni262E" unicode="&#x262e;" horiz-adv-x="874" 
d="M455 737q161 0 264 -105q104 -104 104 -270q0 -167 -104 -273q-104 -104 -264 -104q-159 0 -263 104q-104 106 -104 273q0 166 104 270q104 105 263 105zM774 362q0 140 -84 231q-83 93 -212 100v-310l268 -166q28 66 28 145zM431 383v310q-126 -7 -211 -100
q-84 -91 -84 -231q0 -81 28 -144zM431 326l-245 -151q39 -64 103 -102t142 -43v296zM478 326v-296q79 5 143 43t103 102z" />
    <glyph glyph-name="uni2639" unicode="&#x2639;" horiz-adv-x="877" 
d="M87 365q0 160 107 267q107 106 262 106q157 0 263 -106q108 -106 108 -267q0 -163 -108 -269q-106 -106 -263 -106q-156 0 -262 106q-107 107 -107 269zM135 365q0 -132 83 -224q35 53 99.5 84t138.5 31q77 0 142 -31.5t99 -83.5q83 98 83 224q0 140 -95 235
q-94 94 -228 94t-228 -94t-94 -235zM327 437q0 51 14 78.5t38 27.5q51 0 51 -106t-51 -106q-24 0 -38 28.5t-14 77.5zM486 437q0 51 14.5 78.5t38.5 27.5t37.5 -28.5t13.5 -77.5q0 -106 -51 -106q-26 0 -39.5 28.5t-13.5 77.5zM253 109q95 -75 204 -75q113 0 205 75
q-26 46 -82.5 73.5t-122.5 27.5q-67 0 -122.5 -27.5t-81.5 -73.5z" />
    <glyph glyph-name="smileface" unicode="&#x263a;" horiz-adv-x="877" 
d="M456 738q157 0 263 -106q108 -106 108 -267q0 -163 -108 -269q-106 -106 -263 -106q-156 0 -262 106q-107 107 -107 269q0 160 107 267q107 106 262 106zM457 34q134 0 229 95q94 95 94 236q0 140 -95 235q-94 94 -228 94t-228 -94t-94 -235q0 -143 94 -237t228 -94z
M379 331q-24 0 -38 28.5t-14 77.5q0 51 14 78.5t38 27.5q51 0 51 -106t-51 -106zM539 331q-26 0 -39.5 28.5t-13.5 77.5q0 51 14.5 78.5t38.5 27.5t37.5 -28.5t13.5 -77.5q0 -106 -51 -106zM617 312v17h108v-17h-29q-14 -87 -81 -139t-159 -52q-93 0 -158 52q-66 53 -80 139
h-26v17h109v-17h-34q12 -65 65 -106q52 -40 125 -40q75 0 127 40q53 41 64 106h-31z" />
    <glyph glyph-name="uni2708" unicode="&#x2708;" horiz-adv-x="926" 
d="M185 207h-50l35 159l-35 159h50l69 -108l210 12l-99 276h90l144 -238q16 -25 48 -26l59 4q60 4 109 -21t49 -58q0 -35 -49 -60q-49 -24 -109 -20l-59 4q-20 0 -30 -5t-18 -19l-144 -240h-90l99 276l-210 14z" />
    <glyph glyph-name="uni2713" unicode="&#x2713;" horiz-adv-x="924" 
d="M362 194l375 372l60 -69l-438 -431l-217 250l64 59z" />
    <glyph glyph-name="uni2714" unicode="&#x2714;" horiz-adv-x="1287" 
d="M1122 717l104 -171q-493 -264 -810 -611q-136 192 -343 365l116 128q149 -122 243 -271q245 313 690 560z" />
    <glyph glyph-name="uni2776" unicode="&#x2776;" horiz-adv-x="891" 
d="M467 -9q-163 0 -276 111q-111 111 -111 274q0 162 111 273q113 111 276 111q162 0 273 -112q111 -111 111 -272q0 -163 -111 -274t-273 -111zM456 438v-281h72v417h-69v-4q0 -76 -76 -76h-39v-56h112z" />
    <glyph glyph-name="uni2777" unicode="&#x2777;" horiz-adv-x="892" 
d="M467 -9q-163 0 -276 111q-111 112 -111 275t111 272q113 111 276 111t274 -111q111 -109 111 -272t-111 -275q-111 -111 -274 -111zM338 171v-14h263v64h-117l-64 -3q16 40 103 101q34 24 57 60.5t23 76.5q0 55 -36 89t-96 34q-63 0 -102 -35.5t-40 -94.5l71 -5
q-1 33 17.5 53t48.5 20q29 0 46.5 -17t17.5 -45q0 -49 -68 -100q-36 -26 -58 -45t-44 -57t-22 -82z" />
    <glyph glyph-name="uni2778" unicode="&#x2778;" horiz-adv-x="892" 
d="M467 -9q-163 0 -276 111q-111 111 -111 274q0 162 111 273q113 111 276 111t274 -111t111 -273q0 -163 -111 -274t-274 -111zM606 273q0 73 -68 100v3q29 12 44.5 36.5t15.5 52.5q0 52 -37 83.5t-96 31.5q-63 0 -101 -37t-36 -95h73q-1 31 16 50t47 19q27 0 43 -14.5
t16 -41.5t-18.5 -43.5t-50.5 -16.5h-26v-62h33q31 0 51 -17t20 -46q0 -27 -18.5 -44.5t-48.5 -17.5t-47.5 18.5t-16.5 50.5h-73q-1 -60 37 -96t101 -36q62 0 101 34t39 88z" />
    <glyph glyph-name="uni2779" unicode="&#x2779;" horiz-adv-x="893" 
d="M468 -9q-164 0 -276 111q-112 112 -112 275q0 161 112 272t276 111q163 0 274 -111t111 -272q0 -163 -111 -275q-111 -111 -274 -111zM490 248v-91h70v91h47v62h-47v264h-110l-148 -267v-59h188zM490 310h-109l109 196v-196z" />
    <glyph glyph-name="uni277A" unicode="&#x277a;" horiz-adv-x="893" 
d="M468 -9q-164 0 -277 111q-111 111 -111 274q0 162 111 273q113 111 277 111q163 0 274 -111t111 -273q0 -163 -111 -274t-274 -111zM473 151q65 0 105.5 40t40.5 104q0 62 -37 101.5t-95 39.5q-54 0 -76 -28l-3 3l2 40v60h185v63h-255v-238h68q7 17 25.5 27.5t39.5 10.5
q32 0 52 -23t20 -59q0 -35 -20 -56.5t-51 -21.5q-32 0 -51 20.5t-19 50.5h-73q-1 -60 39 -97t103 -37z" />
    <glyph glyph-name="uni277B" unicode="&#x277b;" horiz-adv-x="900" 
d="M467 -9q-163 0 -276 111q-111 111 -111 274q0 162 111 273q113 111 276 111q162 0 273 -112q111 -111 111 -272q0 -163 -111 -274t-273 -111zM473 151q64 0 105 40t41 103q0 62 -35.5 101t-92.5 39q-29 0 -55.5 -13.5t-38.5 -37.5h-3q0 134 82 134q53 0 64 -48h71
q-5 49 -41.5 80t-90.5 31q-77 0 -117.5 -58.5t-40.5 -161.5q0 -99 39 -154t113 -55zM475 214q-32 0 -51.5 22.5t-19.5 56.5t19.5 56.5t51.5 22.5t51.5 -22t19.5 -57t-19.5 -57t-51.5 -22z" />
    <glyph glyph-name="uni277C" unicode="&#x277c;" horiz-adv-x="893" 
d="M467 -9q-163 0 -276 111q-111 112 -111 274t111 273q113 111 276 111t274 -111q112 -111 112 -273q0 -163 -112 -274q-111 -111 -274 -111zM381 157h76q34 202 160 366v51h-277v-132h53v69h135q-116 -156 -147 -354z" />
    <glyph glyph-name="uni277D" unicode="&#x277d;" horiz-adv-x="892" 
d="M467 -9q-163 0 -276 111q-111 112 -111 274t111 273q113 111 276 111t274 -111t111 -273q0 -163 -111 -274t-274 -111zM466 151q66 0 106 31.5t40 84.5q0 31 -16.5 57.5t-44.5 39.5v4q29 13 45 39t16 57q0 51 -40 83.5t-106 32.5t-105.5 -31.5t-39.5 -84.5q0 -69 61 -96
v-4q-28 -13 -44.5 -39.5t-16.5 -57.5q0 -52 39.5 -84t105.5 -32zM466 517q32 0 52 -17t20 -45q0 -26 -20 -44q-20 -17 -52 -17t-52 17q-19 20 -20 44.5t19.5 44t52.5 17.5zM466 214q-31 0 -51.5 17t-20.5 44t19.5 44.5t52.5 17.5q32 0 52 -17t20 -45q0 -27 -19.5 -44
t-52.5 -17z" />
    <glyph glyph-name="uni277E" unicode="&#x277e;" horiz-adv-x="893" 
d="M468 -9q-164 0 -276 111t-112 274q0 162 112 273t276 111q162 0 273 -111q112 -111 112 -273q0 -163 -112 -274q-111 -111 -273 -111zM467 151q76 0 116 58.5t40 160.5q0 98 -39 154t-112 56q-65 0 -105.5 -40t-40.5 -103q0 -62 35.5 -101.5t92.5 -39.5q30 0 56 14t38 37
h3q0 -134 -82 -134q-24 0 -42 13t-22 35h-72q5 -49 41.5 -79.5t92.5 -30.5zM470 358q-32 0 -51.5 21t-19.5 58q0 35 19.5 57t51.5 22t52 -22t20 -56t-20 -57t-52 -23z" />
    <glyph glyph-name="uni2780" unicode="&#x2780;" horiz-adv-x="891" 
d="M467 -9q-163 0 -276 111q-111 111 -111 274q0 162 111 273q113 111 276 111q162 0 273 -112q111 -111 111 -272q0 -163 -111 -274t-273 -111zM467 29q145 0 246 101q100 100 100 246q0 144 -100 244q-101 101 -246 101q-148 0 -248 -100t-100 -245q0 -146 100 -246
q101 -101 248 -101zM456 157v281h-112v56h39q38 0 57 21.5t19 54.5v4h69v-417h-72z" />
    <glyph glyph-name="uni2781" unicode="&#x2781;" horiz-adv-x="891" 
d="M467 760q162 0 273 -112q111 -111 111 -272q0 -163 -111 -274t-273 -111q-163 0 -276 111q-111 111 -111 274q0 162 111 273q113 111 276 111zM467 29q145 0 246 101q100 100 100 246q0 144 -100 244q-101 101 -246 101q-148 0 -248 -100t-100 -245q0 -146 100 -246
q101 -101 248 -101zM603 456q0 -40 -23 -76.5t-57 -60.5q-87 -61 -103 -101l64 3h117v-64h-264v14q0 83 68 140q11 9 40.5 32t43 35.5t27 34t13.5 42.5q0 28 -17 45t-46 17q-31 0 -49 -20t-17 -53l-71 5q0 57 40 93.5t101 36.5q60 0 96.5 -34t36.5 -89z" />
    <glyph glyph-name="uni2782" unicode="&#x2782;" horiz-adv-x="891" 
d="M467 -9q-163 0 -276 111q-111 111 -111 274q0 162 111 273q113 111 276 111q162 0 273 -112q111 -111 111 -272q0 -163 -111 -274t-273 -111zM467 29q145 0 246 101q100 100 100 246q0 144 -100 244q-101 101 -246 101q-148 0 -248 -100t-100 -245q0 -146 100 -246
q101 -101 248 -101zM328 283h73q-1 -32 16.5 -50.5t47.5 -18.5t48.5 17.5t18.5 44.5q0 29 -20 46t-51 17h-33v62h26q32 0 50.5 16.5t18.5 43.5t-16 41.5t-43 14.5q-30 0 -47 -19t-16 -50h-73q-2 58 36 95t101 37q59 0 96 -31.5t37 -83.5q0 -28 -15.5 -52.5t-44.5 -36.5v-3
q68 -27 68 -100q0 -54 -39 -88t-101 -34q-63 0 -101 36t-37 96z" />
    <glyph glyph-name="uni2783" unicode="&#x2783;" horiz-adv-x="891" 
d="M467 -9q-163 0 -276 111q-111 111 -111 274q0 162 111 273q113 111 276 111q162 0 273 -112q111 -111 111 -272q0 -163 -111 -274t-273 -111zM467 29q145 0 246 101q100 100 100 246q0 144 -100 244q-101 101 -246 101q-148 0 -248 -100t-100 -245q0 -146 100 -246
q101 -101 248 -101zM560 157h-70v91h-189v59l148 267h111v-264h47v-62h-47v-91zM490 506l-110 -196h110v196z" />
    <glyph glyph-name="uni2784" unicode="&#x2784;" horiz-adv-x="891" 
d="M467 -9q-163 0 -276 111q-111 111 -111 274q0 162 111 273q113 111 276 111q162 0 273 -112q111 -111 111 -272q0 -163 -111 -274t-273 -111zM467 29q145 0 246 101q100 100 100 246q0 144 -100 244q-101 101 -246 101q-148 0 -248 -100t-100 -245q0 -146 100 -246
q101 -101 248 -101zM473 151q-63 0 -103 37t-39 97h73q0 -30 19 -50.5t51 -20.5q31 0 51 21.5t20 56.5q0 36 -20 59t-52 23q-21 0 -39.5 -10.5t-25.5 -27.5h-68v238h255v-63h-185v-60l-2 -40l3 -3q22 28 76 28q58 0 95 -39.5t37 -101.5q0 -64 -40.5 -104t-105.5 -40z" />
    <glyph glyph-name="uni2785" unicode="&#x2785;" horiz-adv-x="891" 
d="M467 -9q-163 0 -276 111q-111 111 -111 274q0 162 111 273q113 111 276 111q162 0 273 -112q111 -111 111 -272q0 -163 -111 -274t-273 -111zM467 29q145 0 246 101q100 100 100 246q0 144 -100 244q-101 101 -246 101q-148 0 -248 -100t-100 -245q0 -146 100 -246
q101 -101 248 -101zM473 151q-74 0 -113 55t-39 154q0 103 40.5 161.5t117.5 58.5q54 0 90.5 -31t41.5 -80h-71q-11 48 -64 48q-82 0 -82 -134h3q12 24 38.5 37.5t55.5 13.5q57 0 92.5 -39t35.5 -101q0 -63 -41 -103t-105 -40zM475 214q32 0 51.5 22t19.5 57t-19.5 57
t-51.5 22t-51.5 -22.5t-19.5 -56.5t19.5 -56.5t51.5 -22.5z" />
    <glyph glyph-name="uni2786" unicode="&#x2786;" horiz-adv-x="891" 
d="M80 376q0 162 111 273q113 111 276 111q162 0 273 -112q111 -111 111 -272q0 -163 -111 -274t-273 -111q-163 0 -276 111q-111 111 -111 274zM467 29q145 0 246 101q100 100 100 246q0 144 -100 244q-101 101 -246 101q-148 0 -248 -100t-100 -245q0 -146 100 -246
q101 -101 248 -101zM393 442h-53v132h277v-51q-126 -164 -160 -366h-76q31 198 147 354h-135v-69z" />
    <glyph glyph-name="uni2787" unicode="&#x2787;" horiz-adv-x="891" 
d="M467 -9q-163 0 -276 111q-111 111 -111 274q0 162 111 273q113 111 276 111q162 0 273 -112q111 -111 111 -272q0 -163 -111 -274t-273 -111zM467 29q145 0 246 101q100 100 100 246q0 144 -100 244q-101 101 -246 101q-148 0 -248 -100t-100 -245q0 -146 100 -246
q101 -101 248 -101zM466 151q-66 0 -105.5 32t-39.5 84q0 31 16.5 57.5t44.5 39.5v4q-61 27 -61 96q0 53 39.5 84.5t105.5 31.5t106 -32.5t40 -83.5q0 -31 -16 -57t-45 -39v-4q28 -13 44.5 -39.5t16.5 -57.5q0 -53 -40 -84.5t-106 -31.5zM538 455q0 28 -20 45t-52 17
q-32 2 -52.5 -17.5t-19.5 -44t20 -44.5q20 -17 52 -17t52 17t20 44zM466 214q33 0 52.5 17t19.5 44q0 28 -20 45t-52 17q-33 0 -52.5 -17.5t-19.5 -44.5t20.5 -44t51.5 -17z" />
    <glyph glyph-name="uni2788" unicode="&#x2788;" horiz-adv-x="891" 
d="M80 376q0 162 111 273q113 111 276 111q162 0 273 -112q111 -111 111 -272q0 -163 -111 -274t-273 -111q-163 0 -276 111q-111 111 -111 274zM467 29q145 0 246 101q100 100 100 246q0 144 -100 244q-101 101 -246 101q-148 0 -248 -100t-100 -245q0 -146 100 -246
q101 -101 248 -101zM471 580q74 0 113 -55t39 -155q0 -103 -40 -161t-117 -58q-56 0 -92 30t-42 80h73q4 -22 22 -35t42 -13q82 0 82 134h-3q-13 -23 -39 -37t-55 -14q-57 0 -93 39.5t-36 101.5q0 61 41 102t105 41zM398 437q0 -36 19.5 -57.5t52.5 -21.5q32 0 51.5 22.5
t19.5 57.5q0 34 -19.5 56t-51.5 22t-52 -22t-20 -57z" />
    <glyph glyph-name="uniECE0" unicode="&#xece0;" horiz-adv-x="1042" 
d="M206 321v-262l-83 -62v732h349l-69 -88h-197v-235h156q16 141 120 236t243 95q90 0 168 -41.5t129 -116.5l-71 -53q-37 57 -98.5 91t-129.5 34q-110 0 -193 -83q-82 -82 -82 -203q0 -122 82 -204q83 -83 193 -83q68 0 129.5 33.5t98.5 90.5l71 -52q-52 -75 -130 -117
t-167 -42q-139 0 -243 93q-104 94 -120 237h-156zM599 365q0 -54 35 -94q36 -38 88 -38q66 0 107 63l69 -52q-29 -46 -75 -71t-99 -25q-87 0 -150 64q-62 65 -62 153q0 87 62 151q63 64 150 64q53 0 99 -25t75 -70l-69 -53q-16 28 -45 45t-62 17q-52 0 -88 -38
q-35 -38 -35 -91z" />
    <glyph glyph-name="uniEFCC" unicode="&#xefcc;" horiz-adv-x="1198" 
d="M496 734q20 0 38 -2v-102q-19 3 -37 3q-119 0 -191 -75t-72 -197q0 -121 72 -196t191 -75q22 0 37 3v-103q-24 -2 -38 -2q-162 0 -262 103t-100 270t100 270t262 103zM759 366q0 166 96 267q98 101 260 101q20 0 44 -2v-102q-19 3 -40 3q-102 0 -173 -55
q-70 -56 -81 -165h218v-94h-218q10 -110 81 -166q72 -54 173 -54q28 0 40 3v-103q-26 -2 -44 -2q-163 0 -260 100q-96 101 -96 269z" />
    <glyph glyph-name="uniF8FF" unicode="&#xf8ff;" horiz-adv-x="640" 
d="M443 632q-16 -21 -43 -36.5t-48 -19.5l-18 -3l-1 10q-6 57 31 104q22 29 51 47t49 19l17 1q-1 -2 1 -19q2 -16 -8.5 -47t-30.5 -56zM225 0q-44 0 -89 53q-45 56 -73 134q-28 80 -28 156q0 104 53 166q54 62 124 62q28 0 70 -17t56 -17q16 0 56 18q42 18 80 18
q51 0 87 -23t49 -45l5 -8l-5 -3q-4 -3 -11 -8.5t-15.5 -13.5t-17 -19.5t-15.5 -25.5t-11.5 -33t-4.5 -39q0 -58 29.5 -96t59.5 -53l10 -5q-5 -19 -28 -70q-14 -33 -33 -61q-20 -29 -48 -49t-55 -20q-19 0 -59 14q-37 15 -62 15t-66 -15t-58 -15z" />
    <glyph glyph-name="NULL" horiz-adv-x="0" 
 />
    <glyph glyph-name="CR" horiz-adv-x="333" 
 />
    <glyph glyph-name="uni00A40301" horiz-adv-x="399" 
d="M504 984l34 -68l-209 -116l-26 50zM179 97l27 197l61 435h108l-61 -435l-29 -203q-10 -91 -104 -91h-202l14 97h186z" />
    <glyph glyph-name="G.ss01" horiz-adv-x="771" 
d="M51 283q0 199 113 327t290 128q130 0 210 -68q79 -67 79 -177h-115q-6 69 -56 108.5t-131 39.5q-104 0 -177 -62q-71 -62 -85 -166l-14 -100q-14 -107 40.5 -168.5t161.5 -61.5q103 0 171 55.5t83 150.5h-206l13 95h320l-8 -53q-22 -163 -128 -252t-261 -89
q-143 0 -221.5 77t-78.5 216z" />
    <glyph glyph-name="Gbreve.ss01" horiz-adv-x="771" 
d="M570 946h69q-9 -66 -55.5 -107t-114.5 -41q-66 0 -101 41t-26 107h68q-6 -39 13 -62.5t55 -23.5t61.5 23.5t30.5 62.5zM51 283q0 199 113 327t290 128q130 0 210 -68q79 -67 79 -177h-115q-6 69 -56 108.5t-131 39.5q-104 0 -177 -62q-71 -62 -85 -166l-14 -100
q-14 -107 40.5 -168.5t161.5 -61.5q103 0 171 55.5t83 150.5h-206l13 95h320l-8 -53q-22 -163 -128 -252t-261 -89q-143 0 -221.5 77t-78.5 216z" />
    <glyph glyph-name="uni0122.ss01" horiz-adv-x="771" 
d="M51 283q0 199 113 327t290 128q130 0 210 -68q79 -67 79 -177h-115q-6 69 -56 108.5t-131 39.5q-104 0 -177 -62q-71 -62 -85 -166l-14 -100q-14 -107 40.5 -168.5t161.5 -61.5q103 0 171 55.5t83 150.5h-206l13 95h320l-8 -53q-22 -163 -128 -252t-261 -89
q-143 0 -221.5 77t-78.5 216zM312 -239v32q20 0 32 13t12 36v5h-44v98h91v-87q0 -47 -24 -72t-67 -25z" />
    <glyph glyph-name="Gdotaccent.ss01" horiz-adv-x="771" 
d="M516 811h-87l17 121h87zM51 283q0 199 113 327t290 128q130 0 210 -68q79 -67 79 -177h-115q-6 69 -56 108.5t-131 39.5q-104 0 -177 -62q-71 -62 -85 -166l-14 -100q-14 -107 40.5 -168.5t161.5 -61.5q103 0 171 55.5t83 150.5h-206l13 95h320l-8 -53
q-22 -163 -128 -252t-261 -89q-143 0 -221.5 77t-78.5 216z" />
    <glyph glyph-name="R.ss02" horiz-adv-x="716" 
d="M167 0h-108l102 729h331q99 0 149 -46t50 -132q0 -93 -45.5 -160.5t-123.5 -90.5l-1 -8q20 -8 32.5 -30t24.5 -66l52 -196h-121l-50 199q-12 47 -33 61.5t-70 14.5h-150zM256 630l-38 -264h215q55 0 91 28.5t43 75.5l10 64q7 44 -20 70t-78 26h-223z" />
    <glyph glyph-name="Racute.ss02" horiz-adv-x="716" 
d="M659 916l-209 -116l-26 50l201 134zM167 0h-108l102 729h331q99 0 149 -46t50 -132q0 -93 -45.5 -160.5t-123.5 -90.5l-1 -8q20 -8 32.5 -30t24.5 -66l52 -196h-121l-50 199q-12 47 -33 61.5t-70 14.5h-150zM256 630l-38 -264h215q55 0 91 28.5t43 75.5l10 64
q7 44 -20 70t-78 26h-223z" />
    <glyph glyph-name="Rcaron.ss02" horiz-adv-x="716" 
d="M413 778l-105 129l57 48l90 -113l121 113l44 -48l-141 -129h-66zM167 0h-108l102 729h331q99 0 149 -46t50 -132q0 -93 -45.5 -160.5t-123.5 -90.5l-1 -8q20 -8 32.5 -30t24.5 -66l52 -196h-121l-50 199q-12 47 -33 61.5t-70 14.5h-150zM256 630l-38 -264h215
q55 0 91 28.5t43 75.5l10 64q7 44 -20 70t-78 26h-223z" />
    <glyph glyph-name="uni0156.ss02" horiz-adv-x="716" 
d="M167 0h-108l102 729h331q99 0 149 -46t50 -132q0 -93 -45.5 -160.5t-123.5 -90.5l-1 -8q20 -8 32.5 -30t24.5 -66l52 -196h-121l-50 199q-12 47 -33 61.5t-70 14.5h-150zM256 630l-38 -264h215q55 0 91 28.5t43 75.5l10 64q7 44 -20 70t-78 26h-223zM292 -239v32
q20 0 32 13t12 36v5h-44v98h91v-87q0 -47 -24 -72t-67 -25z" />
    <glyph glyph-name="O.ss03" 
d="M52 284q0 203 112 328q112 126 291 126q142 0 220 -77.5t78 -217.5q0 -203 -112 -328q-113 -125 -291 -125q-143 0 -220.5 76.5t-77.5 217.5zM180 416l-15 -103q-15 -105 38.5 -165.5t159.5 -60.5q107 0 177 61t85 165l15 103q15 105 -39 165t-160 60
q-107 0 -176.5 -60.5t-84.5 -164.5zM443 312h-108l14 105h108z" />
    <glyph glyph-name="Oacute.ss03" 
d="M604 916l-209 -116l-26 50l201 134zM52 284q0 203 112 328q112 126 291 126q142 0 220 -77.5t78 -217.5q0 -203 -112 -328q-113 -125 -291 -125q-143 0 -220.5 76.5t-77.5 217.5zM180 416l-15 -103q-15 -105 38.5 -165.5t159.5 -60.5q107 0 177 61t85 165l15 103
q15 105 -39 165t-160 60q-107 0 -176.5 -60.5t-84.5 -164.5zM443 312h-108l14 105h108z" />
    <glyph glyph-name="Ocircumflex.ss03" 
d="M288 791l-44 49l142 127h66l105 -127l-58 -49l-89 112zM52 284q0 203 112 328q112 126 291 126q142 0 220 -77.5t78 -217.5q0 -203 -112 -328q-113 -125 -291 -125q-143 0 -220.5 76.5t-77.5 217.5zM180 416l-15 -103q-15 -105 38.5 -165.5t159.5 -60.5q107 0 177 61
t85 165l15 103q15 105 -39 165t-160 60q-107 0 -176.5 -60.5t-84.5 -164.5zM443 312h-108l14 105h108z" />
    <glyph glyph-name="Odieresis.ss03" 
d="M342 811h-88l17 121h87zM537 811h-87l17 121h87zM52 284q0 203 112 328q112 126 291 126q142 0 220 -77.5t78 -217.5q0 -203 -112 -328q-113 -125 -291 -125q-143 0 -220.5 76.5t-77.5 217.5zM180 416l-15 -103q-15 -105 38.5 -165.5t159.5 -60.5q107 0 177 61t85 165
l15 103q15 105 -39 165t-160 60q-107 0 -176.5 -60.5t-84.5 -164.5zM443 312h-108l14 105h108z" />
    <glyph glyph-name="Ograve.ss03" 
d="M437 850l-41 -50l-176 116l53 68zM52 284q0 203 112 328q112 126 291 126q142 0 220 -77.5t78 -217.5q0 -203 -112 -328q-113 -125 -291 -125q-143 0 -220.5 76.5t-77.5 217.5zM180 416l-15 -103q-15 -105 38.5 -165.5t159.5 -60.5q107 0 177 61t85 165l15 103
q15 105 -39 165t-160 60q-107 0 -176.5 -60.5t-84.5 -164.5zM443 312h-108l14 105h108z" />
    <glyph glyph-name="Ohungarumlaut.ss03" 
d="M495 897l-201 -126l-28 48l193 144zM696 887l-206 -116l-26 50l198 133zM52 284q0 203 112 328q112 126 291 126q142 0 220 -77.5t78 -217.5q0 -203 -112 -328q-113 -125 -291 -125q-143 0 -220.5 76.5t-77.5 217.5zM180 416l-15 -103q-15 -105 38.5 -165.5t159.5 -60.5
q107 0 177 61t85 165l15 103q15 105 -39 165t-160 60q-107 0 -176.5 -60.5t-84.5 -164.5zM443 312h-108l14 105h108z" />
    <glyph glyph-name="Omacron.ss03" 
d="M556 808h-322l11 76h322zM52 284q0 203 112 328q112 126 291 126q142 0 220 -77.5t78 -217.5q0 -203 -112 -328q-113 -125 -291 -125q-143 0 -220.5 76.5t-77.5 217.5zM180 416l-15 -103q-15 -105 38.5 -165.5t159.5 -60.5q107 0 177 61t85 165l15 103q15 105 -39 165
t-160 60q-107 0 -176.5 -60.5t-84.5 -164.5zM443 312h-108l14 105h108z" />
    <glyph glyph-name="Otilde.ss03" 
d="M455 795q-27 0 -66 17q-37 18 -56 18q-30 0 -59 -35l-39 31q47 78 110 78q25 -2 63 -19q40 -17 60 -17q34 0 60 36l41 -32q-44 -77 -114 -77zM52 284q0 203 112 328q112 126 291 126q142 0 220 -77.5t78 -217.5q0 -203 -112 -328q-113 -125 -291 -125q-143 0 -220.5 76.5
t-77.5 217.5zM180 416l-15 -103q-15 -105 38.5 -165.5t159.5 -60.5q107 0 177 61t85 165l15 103q15 105 -39 165t-160 60q-107 0 -176.5 -60.5t-84.5 -164.5zM443 312h-108l14 105h108z" />
    <glyph glyph-name="A.ss04" horiz-adv-x="750" 
d="M395 729h90l200 -281l-63 -448h-109l24 168h-350l-24 -168h-109l63 448zM222 420l-23 -161h350l23 161l-140 207h-10z" />
    <glyph glyph-name="Aacute.ss04" horiz-adv-x="750" 
d="M625 981l34 -68l-209 -116l-26 50zM395 729h90l200 -281l-63 -448h-109l24 168h-350l-24 -168h-109l63 448zM222 420l-23 -161h350l23 161l-140 207h-10z" />
    <glyph glyph-name="Abreve.ss04" horiz-adv-x="750" 
d="M449 794q-66 0 -101 41t-26 107h68q-6 -39 13 -62.5t55 -23.5t61.5 23.5t30.5 62.5h69q-9 -66 -55.5 -107t-114.5 -41zM395 729h90l200 -281l-63 -448h-109l24 168h-350l-24 -168h-109l63 448zM222 420l-23 -161h350l23 161l-140 207h-10z" />
    <glyph glyph-name="Acircumflex.ss04" horiz-adv-x="750" 
d="M554 788l-89 112l-122 -112l-44 49l142 127h66l105 -127zM395 729h90l200 -281l-63 -448h-109l24 168h-350l-24 -168h-109l63 448zM222 420l-23 -161h350l23 161l-140 207h-10z" />
    <glyph glyph-name="Adieresis.ss04" horiz-adv-x="750" 
d="M327 929h87l-16 -121h-88zM523 929h87l-17 -121h-87zM395 729h90l200 -281l-63 -448h-109l24 168h-350l-24 -168h-109l63 448zM222 420l-23 -161h350l23 161l-140 207h-10z" />
    <glyph glyph-name="Agrave.ss04" horiz-adv-x="750" 
d="M328 981l164 -134l-41 -50l-176 116zM395 729h90l200 -281l-63 -448h-109l24 168h-350l-24 -168h-109l63 448zM222 420l-23 -161h350l23 161l-140 207h-10z" />
    <glyph glyph-name="Amacron.ss04" horiz-adv-x="750" 
d="M301 881h322l-11 -76h-322zM395 729h90l200 -281l-63 -448h-109l24 168h-350l-24 -168h-109l63 448zM222 420l-23 -161h350l23 161l-140 207h-10z" />
    <glyph glyph-name="Aogonek.ss04" horiz-adv-x="750" 
d="M528 -90q0 -40 53 -40q27 0 54 12l-8 -57q-32 -15 -74 -13t-66.5 23t-24.5 56q0 65 65 109h-14l24 168h-350l-24 -168h-109l63 448l278 281h90l200 -281l-63 -448q-44 -11 -69 -35t-25 -55zM222 420l-23 -161h350l23 161l-140 207h-10z" />
    <glyph glyph-name="Aring.ss04" horiz-adv-x="750" 
d="M496 714l189 -266l-63 -448h-109l24 168h-350l-24 -168h-109l63 448l264 266q-44 26 -44 80q0 56 37 93q38 38 95 38q45 0 72.5 -25t27.5 -68q0 -39 -20 -70.5t-53 -47.5zM461 871q-26 0 -44.5 -20t-18.5 -48q0 -21 13 -34t34 -13q26 0 44 20t18 48q0 21 -12.5 34
t-33.5 13zM222 420l-23 -161h350l23 161l-140 207h-10z" />
    <glyph glyph-name="Atilde.ss04" horiz-adv-x="750" 
d="M389 826q-30 0 -59 -35l-39 31q47 78 110 78q25 -2 63 -19q40 -17 60 -17q34 0 60 36l41 -32q-44 -77 -114 -77q-27 0 -66 17q-37 18 -56 18zM395 729h90l200 -281l-63 -448h-109l24 168h-350l-24 -168h-109l63 448zM222 420l-23 -161h350l23 161l-140 207h-10z" />
    <glyph glyph-name="V.ss04" horiz-adv-x="757" 
d="M98 280l63 449h104l-59 -421l140 -206h11l199 206l58 421h113l-63 -449l-277 -280h-91z" />
    <glyph glyph-name="W.ss04" horiz-adv-x="952" 
d="M214 0l-118 264l65 465h109l-63 -441l74 -178h11l135 184l31 227h101l-32 -227l88 -184h12l124 178l62 441h109l-66 -465l-194 -264h-101l-97 203l-149 -203h-101z" />
    <glyph glyph-name="Wacute.ss04" horiz-adv-x="952" 
d="M761 916l-209 -116l-26 50l201 134zM214 0l-118 264l65 465h109l-63 -441l74 -178h11l135 184l31 227h101l-32 -227l88 -184h12l124 178l62 441h109l-66 -465l-194 -264h-101l-97 203l-149 -203h-101z" />
    <glyph glyph-name="Wcircumflex.ss04" horiz-adv-x="952" 
d="M444 791l-44 49l142 127h66l105 -127l-58 -49l-89 112zM214 0l-118 264l65 465h109l-63 -441l74 -178h11l135 184l31 227h101l-32 -227l88 -184h12l124 178l62 441h109l-66 -465l-194 -264h-101l-97 203l-149 -203h-101z" />
    <glyph glyph-name="Wdieresis.ss04" horiz-adv-x="952" 
d="M499 811h-88l17 121h87zM694 811h-87l17 121h87zM214 0l-118 264l65 465h109l-63 -441l74 -178h11l135 184l31 227h101l-32 -227l88 -184h12l124 178l62 441h109l-66 -465l-194 -264h-101l-97 203l-149 -203h-101z" />
    <glyph glyph-name="Wgrave.ss04" horiz-adv-x="952" 
d="M593 850l-41 -50l-176 116l53 68zM214 0l-118 264l65 465h109l-63 -441l74 -178h11l135 184l31 227h101l-32 -227l88 -184h12l124 178l62 441h109l-66 -465l-194 -264h-101l-97 203l-149 -203h-101z" />
    <glyph glyph-name="Y.ss04" horiz-adv-x="691" 
d="M581 729h113l-33 -239l-266 -267l-32 -223h-108l31 223l-192 267l33 239h105l-29 -212l141 -203h10l198 203z" />
    <glyph glyph-name="Yacute.ss04" horiz-adv-x="691" 
d="M596 984l34 -68l-209 -116l-26 50zM581 729h113l-33 -239l-266 -267l-32 -223h-108l31 223l-192 267l33 239h105l-29 -212l141 -203h10l198 203z" />
    <glyph glyph-name="Ycircumflex.ss04" horiz-adv-x="691" 
d="M525 791l-89 112l-122 -112l-44 49l142 127h66l105 -127zM581 729h113l-33 -239l-266 -267l-32 -223h-108l31 223l-192 267l33 239h105l-29 -212l141 -203h10l198 203z" />
    <glyph glyph-name="Ydieresis.ss04" horiz-adv-x="691" 
d="M298 932h87l-16 -121h-88zM494 932h87l-17 -121h-87zM581 729h113l-33 -239l-266 -267l-32 -223h-108l31 223l-192 267l33 239h105l-29 -212l141 -203h10l198 203z" />
    <glyph glyph-name="Ygrave.ss04" horiz-adv-x="691" 
d="M299 984l164 -134l-41 -50l-176 116zM581 729h113l-33 -239l-266 -267l-32 -223h-108l31 223l-192 267l33 239h105l-29 -212l141 -203h10l198 203z" />
    <glyph glyph-name="i.loclTRK" horiz-adv-x="263" 
d="M230 614h-96l19 121h96zM147 0h-103l74 526h103z" />
    <glyph glyph-name="uni006A0301" horiz-adv-x="273" 
d="M364 781l34 -68l-209 -116l-26 50zM41 -84l17 116l69 494h103l-69 -494l-16 -108q-5 -28 -19 -53q-18 -38 -84 -38h-125l12 83h112z" />
    <glyph glyph-name="s.001" horiz-adv-x="515" 
d="M34 161h101q-7 -45 21 -69t86 -24q56 0 89.5 24t33.5 64q0 44 -60 56l-96 19q-136 27 -136 124q0 81 63 130q64 51 166 51q93 0 142 -44.5t40 -117.5h-100q4 41 -20.5 62.5t-75.5 21.5q-50 0 -79.5 -22t-29.5 -59q3 -46 71 -58q3 -1 6 -1l98 -20q120 -26 120 -122
q0 -82 -69 -135q-67 -51 -176 -51q-103 0 -155 46t-40 125z" />
    <glyph glyph-name="germandbls.alt01" horiz-adv-x="678" 
d="M624 586l-139 -162q69 -12 105 -54.5t36 -109.5q0 -118 -80 -189t-213 -71h-102l13 92h111q61 0 101.5 28.5t46.5 73.5l9 70q6 44 -27 70.5t-94 26.5h-65l182 218q-7 30 -40 48t-80 18q-62 0 -101.5 -33t-47.5 -92l-73 -520h-107l72 514q15 106 87.5 165t185.5 59
q92 0 150 -40.5t70 -111.5z" />
    <glyph glyph-name="a.ss01" horiz-adv-x="633" 
d="M497 526h93l-74 -526h-104l15 100h-7q-28 -50 -81 -80t-115 -30q-92 0 -139.5 53.5t-47.5 153.5q0 153 73 245q73 94 193 94q58 0 102.5 -27.5t60.5 -75.5h7zM446 233l8 63q8 67 -30 110.5t-107 43.5q-67 0 -110.5 -36t-52.5 -98l-14 -103q-8 -64 25 -100.5t100 -36.5
q68 0 120 44q50 43 61 113z" />
    <glyph glyph-name="aacute.ss01" horiz-adv-x="633" 
d="M527 724l-209 -116l-26 50l201 134zM497 526h93l-74 -526h-104l15 100h-7q-28 -50 -81 -80t-115 -30q-92 0 -139.5 53.5t-47.5 153.5q0 153 73 245q73 94 193 94q58 0 102.5 -27.5t60.5 -75.5h7zM446 233l8 63q8 67 -30 110.5t-107 43.5q-67 0 -110.5 -36t-52.5 -98
l-14 -103q-8 -64 25 -100.5t100 -36.5q68 0 120 44q50 43 61 113z" />
    <glyph glyph-name="abreve.ss01" horiz-adv-x="633" 
d="M418 753h69q-9 -66 -55.5 -107t-114.5 -41q-66 0 -101 41t-26 107h68q-6 -39 13 -62.5t55 -23.5t61.5 23.5t30.5 62.5zM497 526h93l-74 -526h-104l15 100h-7q-28 -50 -81 -80t-115 -30q-92 0 -139.5 53.5t-47.5 153.5q0 153 73 245q73 94 193 94q58 0 102.5 -27.5
t60.5 -75.5h7zM446 233l8 63q8 67 -30 110.5t-107 43.5q-67 0 -110.5 -36t-52.5 -98l-14 -103q-8 -64 25 -100.5t100 -36.5q68 0 120 44q50 43 61 113z" />
    <glyph glyph-name="acircumflex.ss01" horiz-adv-x="633" 
d="M211 599l-44 49l142 127h66l105 -127l-58 -49l-89 112zM497 526h93l-74 -526h-104l15 100h-7q-28 -50 -81 -80t-115 -30q-92 0 -139.5 53.5t-47.5 153.5q0 153 73 245q73 94 193 94q58 0 102.5 -27.5t60.5 -75.5h7zM446 233l8 63q8 67 -30 110.5t-107 43.5
q-67 0 -110.5 -36t-52.5 -98l-14 -103q-8 -64 25 -100.5t100 -36.5q68 0 120 44q50 43 61 113z" />
    <glyph glyph-name="adieresis.ss01" horiz-adv-x="633" 
d="M310 601h-87l17 122h87zM506 601h-87l17 122h87zM497 526h93l-74 -526h-104l15 100h-7q-28 -50 -81 -80t-115 -30q-92 0 -139.5 53.5t-47.5 153.5q0 153 73 245q73 94 193 94q58 0 102.5 -27.5t60.5 -75.5h7zM446 233l8 63q8 67 -30 110.5t-107 43.5q-67 0 -110.5 -36
t-52.5 -98l-14 -103q-8 -64 25 -100.5t100 -36.5q68 0 120 44q50 43 61 113z" />
    <glyph glyph-name="agrave.ss01" horiz-adv-x="633" 
d="M360 658l-41 -50l-176 116l53 68zM497 526h93l-74 -526h-104l15 100h-7q-28 -50 -81 -80t-115 -30q-92 0 -139.5 53.5t-47.5 153.5q0 153 73 245q73 94 193 94q58 0 102.5 -27.5t60.5 -75.5h7zM446 233l8 63q8 67 -30 110.5t-107 43.5q-67 0 -110.5 -36t-52.5 -98
l-14 -103q-8 -64 25 -100.5t100 -36.5q68 0 120 44q50 43 61 113z" />
    <glyph glyph-name="amacron.ss01" horiz-adv-x="633" 
d="M479 616h-322l11 76h322zM497 526h93l-74 -526h-104l15 100h-7q-28 -50 -81 -80t-115 -30q-92 0 -139.5 53.5t-47.5 153.5q0 153 73 245q73 94 193 94q58 0 102.5 -27.5t60.5 -75.5h7zM446 233l8 63q8 67 -30 110.5t-107 43.5q-67 0 -110.5 -36t-52.5 -98l-14 -103
q-8 -64 25 -100.5t100 -36.5q68 0 120 44q50 43 61 113z" />
    <glyph glyph-name="aogonek.ss01" horiz-adv-x="633" 
d="M417 -90q0 -40 53 -40q27 0 54 12l-8 -57q-32 -15 -74 -13t-66.5 23t-24.5 56q0 65 65 109h-4l15 100h-7q-28 -50 -81 -80t-115 -30q-92 0 -139.5 53.5t-47.5 153.5q0 153 73 245q73 94 193 94q58 0 102.5 -27.5t60.5 -75.5h7l24 93h93l-74 -526h-5q-44 -11 -69 -35
t-25 -55zM265 76q68 0 120 44q50 43 61 113l8 63q8 67 -30 110.5t-107 43.5q-67 0 -110.5 -36t-52.5 -98l-14 -103q-8 -64 25 -100.5t100 -36.5z" />
    <glyph glyph-name="aring.ss01" horiz-adv-x="633" 
d="M473 433l24 93h93l-74 -526h-104l15 100h-7q-28 -50 -81 -80t-115 -30q-92 0 -139.5 53.5t-47.5 153.5q0 132 55 220q56 89 151 112q-38 26 -38 76q0 56 37 93q38 38 95 38q45 0 72.5 -25t27.5 -68q0 -80 -70 -117q75 -24 99 -93h7zM329 682q-26 0 -44.5 -20t-18.5 -48
q0 -21 13 -34t34 -13q26 0 44 20t18 48q0 21 -12.5 34t-33.5 13zM446 233l8 63q8 67 -30 110.5t-107 43.5q-67 0 -110.5 -36t-52.5 -98l-14 -103q-8 -64 25 -100.5t100 -36.5q68 0 120 44q50 43 61 113z" />
    <glyph glyph-name="atilde.ss01" horiz-adv-x="633" 
d="M378 602q-26 0 -65 17q-37 18 -57 18q-30 0 -59 -35l-39 31q46 78 110 78q25 -2 63 -19q40 -17 60 -17q35 0 60 36l41 -32q-44 -77 -114 -77zM497 526h93l-74 -526h-104l15 100h-7q-28 -50 -81 -80t-115 -30q-92 0 -139.5 53.5t-47.5 153.5q0 153 73 245q73 94 193 94
q58 0 102.5 -27.5t60.5 -75.5h7zM446 233l8 63q8 67 -30 110.5t-107 43.5q-67 0 -110.5 -36t-52.5 -98l-14 -103q-8 -64 25 -100.5t100 -36.5q68 0 120 44q50 43 61 113z" />
    <glyph glyph-name="g.ss01" horiz-adv-x="633" 
d="M43 218q0 142 73 230t191 88q58 0 102.5 -27.5t60.5 -75.5h7l23 93h94l-68 -486q-15 -102 -90 -159.5t-190 -57.5q-99 0 -156 43t-53 113h101q-1 -37 31.5 -58.5t87.5 -21.5q70 0 112 34.5t51 96.5l14 96h-8q-27 -50 -79.5 -80t-114.5 -30q-92 0 -140.5 53.5t-48.5 148.5
zM160 326l-14 -96q-8 -57 26 -92.5t99 -35.5q70 0 121 42q52 44 59 106l8 56q9 60 -31 102q-39 42 -108 42q-65 0 -108.5 -34.5t-51.5 -89.5z" />
    <glyph glyph-name="gbreve.ss01" horiz-adv-x="633" 
d="M431 743h69q-9 -66 -55.5 -107t-114.5 -41q-66 0 -101 41t-26 107h68q-6 -39 13 -62.5t55 -23.5t61.5 23.5t30.5 62.5zM43 218q0 142 73 230t191 88q58 0 102.5 -27.5t60.5 -75.5h7l23 93h94l-68 -486q-15 -102 -90 -159.5t-190 -57.5q-99 0 -156 43t-53 113h101
q-1 -37 31.5 -58.5t87.5 -21.5q70 0 112 34.5t51 96.5l14 96h-8q-27 -50 -79.5 -80t-114.5 -30q-92 0 -140.5 53.5t-48.5 148.5zM160 326l-14 -96q-8 -57 26 -92.5t99 -35.5q70 0 121 42q52 44 59 106l8 56q9 60 -31 102q-39 42 -108 42q-65 0 -108.5 -34.5t-51.5 -89.5z
" />
    <glyph glyph-name="uni0123.ss01" horiz-adv-x="633" 
d="M367 792v-32q-20 0 -31.5 -13t-11.5 -35v-6h43v-98h-91v83q0 47 24.5 74t66.5 27zM43 218q0 142 73 230t191 88q58 0 102.5 -27.5t60.5 -75.5h7l23 93h94l-68 -486q-15 -102 -90 -159.5t-190 -57.5q-99 0 -156 43t-53 113h101q-1 -37 31.5 -58.5t87.5 -21.5
q70 0 112 34.5t51 96.5l14 96h-8q-27 -50 -79.5 -80t-114.5 -30q-92 0 -140.5 53.5t-48.5 148.5zM160 326l-14 -96q-8 -57 26 -92.5t99 -35.5q70 0 121 42q52 44 59 106l8 56q9 60 -31 102q-39 42 -108 42q-65 0 -108.5 -34.5t-51.5 -89.5z" />
    <glyph glyph-name="gdotaccent.ss01" horiz-adv-x="633" 
d="M376 608h-87l17 121h87zM43 218q0 142 73 230t191 88q58 0 102.5 -27.5t60.5 -75.5h7l23 93h94l-68 -486q-15 -102 -90 -159.5t-190 -57.5q-99 0 -156 43t-53 113h101q-1 -37 31.5 -58.5t87.5 -21.5q70 0 112 34.5t51 96.5l14 96h-8q-27 -50 -79.5 -80t-114.5 -30
q-92 0 -140.5 53.5t-48.5 148.5zM160 326l-14 -96q-8 -57 26 -92.5t99 -35.5q70 0 121 42q52 44 59 106l8 56q9 60 -31 102q-39 42 -108 42q-65 0 -108.5 -34.5t-51.5 -89.5z" />
    <glyph glyph-name="a.ss02" horiz-adv-x="555" 
d="M23 120q0 88 59 141t157 53h151l5 40q15 101 -97 101q-53 0 -85.5 -23t-41.5 -62h-99q18 80 81.5 123t161.5 43q104 0 149.5 -49.5t32.5 -139.5l-49 -347h-92l3 88h-7q-25 -46 -73.5 -72t-110.5 -26q-68 0 -106.5 35t-38.5 95zM134 172l-3 -26q-5 -36 15.5 -55t62.5 -19
q67 0 113 40q47 41 55 106l3 24h-139q-45 0 -74 -19t-33 -51z" />
    <glyph glyph-name="aacute.ss02" horiz-adv-x="555" 
d="M533 720l-209 -116l-26 50l201 134zM23 120q0 88 59 141t157 53h151l5 40q15 101 -97 101q-53 0 -85.5 -23t-41.5 -62h-99q18 80 81.5 123t161.5 43q104 0 149.5 -49.5t32.5 -139.5l-49 -347h-92l3 88h-7q-25 -46 -73.5 -72t-110.5 -26q-68 0 -106.5 35t-38.5 95z
M134 172l-3 -26q-5 -36 15.5 -55t62.5 -19q67 0 113 40q47 41 55 106l3 24h-139q-45 0 -74 -19t-33 -51z" />
    <glyph glyph-name="abreve.ss02" horiz-adv-x="555" 
d="M424 749h69q-9 -66 -55.5 -107t-114.5 -41q-66 0 -101 41t-26 107h68q-6 -39 13 -62.5t55 -23.5t61.5 23.5t30.5 62.5zM23 120q0 88 59 141t157 53h151l5 40q15 101 -97 101q-53 0 -85.5 -23t-41.5 -62h-99q18 80 81.5 123t161.5 43q104 0 149.5 -49.5t32.5 -139.5
l-49 -347h-92l3 88h-7q-25 -46 -73.5 -72t-110.5 -26q-68 0 -106.5 35t-38.5 95zM134 172l-3 -26q-5 -36 15.5 -55t62.5 -19q67 0 113 40q47 41 55 106l3 24h-139q-45 0 -74 -19t-33 -51z" />
    <glyph glyph-name="acircumflex.ss02" horiz-adv-x="555" 
d="M217 595l-44 49l142 127h66l105 -127l-58 -49l-89 112zM23 120q0 88 59 141t157 53h151l5 40q15 101 -97 101q-53 0 -85.5 -23t-41.5 -62h-99q18 80 81.5 123t161.5 43q104 0 149.5 -49.5t32.5 -139.5l-49 -347h-92l3 88h-7q-25 -46 -73.5 -72t-110.5 -26
q-68 0 -106.5 35t-38.5 95zM134 172l-3 -26q-5 -36 15.5 -55t62.5 -19q67 0 113 40q47 41 55 106l3 24h-139q-45 0 -74 -19t-33 -51z" />
    <glyph glyph-name="adieresis.ss02" horiz-adv-x="555" 
d="M271 614h-88l17 121h87zM466 614h-87l17 121h87zM23 120q0 88 59 141t157 53h151l5 40q15 101 -97 101q-53 0 -85.5 -23t-41.5 -62h-99q18 80 81.5 123t161.5 43q104 0 149.5 -49.5t32.5 -139.5l-49 -347h-92l3 88h-7q-25 -46 -73.5 -72t-110.5 -26q-68 0 -106.5 35
t-38.5 95zM134 172l-3 -26q-5 -36 15.5 -55t62.5 -19q67 0 113 40q47 41 55 106l3 24h-139q-45 0 -74 -19t-33 -51z" />
    <glyph glyph-name="agrave.ss02" horiz-adv-x="555" 
d="M366 654l-41 -50l-176 116l53 68zM23 120q0 88 59 141t157 53h151l5 40q15 101 -97 101q-53 0 -85.5 -23t-41.5 -62h-99q18 80 81.5 123t161.5 43q104 0 149.5 -49.5t32.5 -139.5l-49 -347h-92l3 88h-7q-25 -46 -73.5 -72t-110.5 -26q-68 0 -106.5 35t-38.5 95zM134 172
l-3 -26q-5 -36 15.5 -55t62.5 -19q67 0 113 40q47 41 55 106l3 24h-139q-45 0 -74 -19t-33 -51z" />
    <glyph glyph-name="amacron.ss02" horiz-adv-x="555" 
d="M485 611h-322l11 76h322zM23 120q0 88 59 141t157 53h151l5 40q15 101 -97 101q-53 0 -85.5 -23t-41.5 -62h-99q18 80 81.5 123t161.5 43q104 0 149.5 -49.5t32.5 -139.5l-49 -347h-92l3 88h-7q-25 -46 -73.5 -72t-110.5 -26q-68 0 -106.5 35t-38.5 95zM134 172l-3 -26
q-5 -36 15.5 -55t62.5 -19q67 0 113 40q47 41 55 106l3 24h-139q-45 0 -74 -19t-33 -51z" />
    <glyph glyph-name="aogonek.ss02" horiz-adv-x="555" 
d="M448 0h-1q-44 -11 -69 -35t-25 -55q0 -40 53 -40q27 0 54 12l-8 -57q-32 -15 -74 -13t-66.5 23t-24.5 56q0 67 69 112l3 85h-7q-25 -46 -73.5 -72t-110.5 -26q-68 0 -106.5 35t-38.5 95q0 88 59 141t157 53h151l5 40q15 101 -97 101q-53 0 -85.5 -23t-41.5 -62h-99
q18 80 81.5 123t161.5 43q104 0 149.5 -49.5t32.5 -139.5zM209 72q67 0 113 40q47 41 55 106l3 24h-139q-45 0 -74 -19t-33 -51l-3 -26q-5 -36 15.5 -55t62.5 -19z" />
    <glyph glyph-name="aring.ss02" horiz-adv-x="555" 
d="M384 529q134 -30 113 -182l-49 -347h-92l3 88h-7q-25 -46 -73.5 -72t-110.5 -26q-68 0 -106.5 35t-38.5 95q0 88 59 141t157 53h151l5 40q15 101 -97 101q-53 0 -85.5 -23t-41.5 -62h-99q28 130 171 159q-32 27 -32 72q0 56 37 93q38 38 95 38q45 0 72.5 -25t27.5 -68
q0 -72 -59 -110zM335 678q-26 0 -44.5 -20t-18.5 -48q0 -21 13 -34t34 -13q26 0 44 20t18 48q0 21 -12.5 34t-33.5 13zM377 218l3 24h-139q-45 0 -74 -19t-33 -51l-3 -26q-5 -36 15.5 -55t62.5 -19q67 0 113 40q47 41 55 106z" />
    <glyph glyph-name="atilde.ss02" horiz-adv-x="555" 
d="M384 598q-26 0 -65 17q-37 18 -57 18q-30 0 -59 -35l-39 31q46 78 110 78q25 -2 63 -19q40 -17 60 -17q35 0 60 36l41 -32q-44 -77 -114 -77zM23 120q0 88 59 141t157 53h151l5 40q15 101 -97 101q-53 0 -85.5 -23t-41.5 -62h-99q18 80 81.5 123t161.5 43
q104 0 149.5 -49.5t32.5 -139.5l-49 -347h-92l3 88h-7q-25 -46 -73.5 -72t-110.5 -26q-68 0 -106.5 35t-38.5 95zM134 172l-3 -26q-5 -36 15.5 -55t62.5 -19q67 0 113 40q47 41 55 106l3 24h-139q-45 0 -74 -19t-33 -51z" />
    <glyph glyph-name="o.ss03" horiz-adv-x="591" 
d="M37 208q0 144 83 236q84 92 214 92q103 0 162 -58t59 -161q0 -143 -84 -235q-83 -92 -214 -92q-104 0 -162 58t-58 160zM152 302l-11 -82q-9 -68 26.5 -106t102.5 -38t113.5 38.5t55.5 105.5l11 82q10 66 -25.5 106.5t-102.5 40.5t-114 -40.5t-56 -106.5zM329 224h-80
l11 79h80z" />
    <glyph glyph-name="oacute.ss03" horiz-adv-x="591" 
d="M513 712l-209 -116l-26 50l201 134zM37 208q0 144 83 236q84 92 214 92q103 0 162 -58t59 -161q0 -143 -84 -235q-83 -92 -214 -92q-104 0 -162 58t-58 160zM152 302l-11 -82q-9 -68 26.5 -106t102.5 -38t113.5 38.5t55.5 105.5l11 82q10 66 -25.5 106.5t-102.5 40.5
t-114 -40.5t-56 -106.5zM329 224h-80l11 79h80z" />
    <glyph glyph-name="ocircumflex.ss03" horiz-adv-x="591" 
d="M197 587l-44 49l142 127h66l105 -127l-58 -49l-89 112zM37 208q0 144 83 236q84 92 214 92q103 0 162 -58t59 -161q0 -143 -84 -235q-83 -92 -214 -92q-104 0 -162 58t-58 160zM152 302l-11 -82q-9 -68 26.5 -106t102.5 -38t113.5 38.5t55.5 105.5l11 82
q10 66 -25.5 106.5t-102.5 40.5t-114 -40.5t-56 -106.5zM329 224h-80l11 79h80z" />
    <glyph glyph-name="odieresis.ss03" horiz-adv-x="591" 
d="M252 607h-88l17 121h87zM447 607h-87l17 121h87zM37 208q0 144 83 236q84 92 214 92q103 0 162 -58t59 -161q0 -143 -84 -235q-83 -92 -214 -92q-104 0 -162 58t-58 160zM152 302l-11 -82q-9 -68 26.5 -106t102.5 -38t113.5 38.5t55.5 105.5l11 82q10 66 -25.5 106.5
t-102.5 40.5t-114 -40.5t-56 -106.5zM329 224h-80l11 79h80z" />
    <glyph glyph-name="ograve.ss03" horiz-adv-x="591" 
d="M346 646l-41 -50l-176 116l53 68zM37 208q0 144 83 236q84 92 214 92q103 0 162 -58t59 -161q0 -143 -84 -235q-83 -92 -214 -92q-104 0 -162 58t-58 160zM152 302l-11 -82q-9 -68 26.5 -106t102.5 -38t113.5 38.5t55.5 105.5l11 82q10 66 -25.5 106.5t-102.5 40.5
t-114 -40.5t-56 -106.5zM329 224h-80l11 79h80z" />
    <glyph glyph-name="ohungarumlaut.ss03" horiz-adv-x="591" 
d="M404 693l-201 -126l-28 48l193 144zM605 683l-206 -116l-26 50l198 133zM37 208q0 144 83 236q84 92 214 92q103 0 162 -58t59 -161q0 -143 -84 -235q-83 -92 -214 -92q-104 0 -162 58t-58 160zM152 302l-11 -82q-9 -68 26.5 -106t102.5 -38t113.5 38.5t55.5 105.5l11 82
q10 66 -25.5 106.5t-102.5 40.5t-114 -40.5t-56 -106.5zM329 224h-80l11 79h80z" />
    <glyph glyph-name="omacron.ss03" horiz-adv-x="591" 
d="M465 604h-322l11 76h322zM37 208q0 144 83 236q84 92 214 92q103 0 162 -58t59 -161q0 -143 -84 -235q-83 -92 -214 -92q-104 0 -162 58t-58 160zM152 302l-11 -82q-9 -68 26.5 -106t102.5 -38t113.5 38.5t55.5 105.5l11 82q10 66 -25.5 106.5t-102.5 40.5t-114 -40.5
t-56 -106.5zM329 224h-80l11 79h80z" />
    <glyph glyph-name="otilde.ss03" horiz-adv-x="591" 
d="M365 591q-27 0 -66 17q-37 18 -56 18q-30 0 -59 -35l-39 31q47 78 110 78q25 -2 63 -19q40 -17 60 -17q34 0 60 36l41 -32q-44 -77 -114 -77zM37 208q0 144 83 236q84 92 214 92q103 0 162 -58t59 -161q0 -143 -84 -235q-83 -92 -214 -92q-104 0 -162 58t-58 160z
M152 302l-11 -82q-9 -68 26.5 -106t102.5 -38t113.5 38.5t55.5 105.5l11 82q10 66 -25.5 106.5t-102.5 40.5t-114 -40.5t-56 -106.5zM329 224h-80l11 79h80z" />
    <glyph glyph-name="h_t_t_p" horiz-adv-x="2069" 
d="M203 756h1802l-131 -929h-645l79 562h-192l-43 -302h112l-11 -79h-123q-42 0 -60.5 19.5t-12.5 64.5l42 297h-205l-42 -302h112l-11 -79h-124q-42 0 -60 19.5t-12 64.5l41 297h-97l11 77h97l20 140h96l-20 -140h205l19 140h96l-19 -140h278l-3 -90h6q26 46 76 73t109 27
q85 0 134 -52.5t49 -139.5q0 -121 -73 -203q-74 -83 -178 -83q-61 0 -102.5 27.5t-53.5 74.5h-7l-28 -206h478l111 794h-1658l-44 -314h8q29 48 77 75t105 27q81 0 119 -54.5t25 -148.5l-37 -265h-95l37 256q9 63 -16.5 96.5t-78.5 33.5q-63 0 -108.5 -45.5t-55.5 -119.5
l-47 -335h1005l-10 -67h-1076zM1386 266l-8 -58q-8 -53 29 -90q38 -38 101 -38q72 0 121 54q49 53 49 135q0 57 -33.5 91.5t-90.5 34.5q-63 0 -112 -40q-48 -38 -56 -89z" />
    <glyph glyph-name="w_w_w" horiz-adv-x="2002" 
d="M246 0h-126l-75 526h109l30 -264l13 -164h6l155 428h108l38 -427h5l162 427h108l43 -428h6l155 428h109l37 -427h5l162 427h108l44 -428h6l154 428h109l38 -427h5l58 161l103 266h107l-222 -526h-123l-35 404h-6l-145 -404h-126l-43 377l-148 -377h-123l-34 404h-6
l-145 -404h-127l-43 376l-147 -376h-123l-35 404h-6z" />
    <glyph glyph-name="zero.ss01" horiz-adv-x="628" 
d="M66 244q0 221 86 354q86 132 231 132q210 0 210 -253q0 -221 -86 -355q-85 -132 -228 -132q-213 0 -213 254zM205 468l-30 -216q-11 -83 19 -126.5t96 -43.5q65 0 108.5 43t55.5 127l31 216q12 82 -19.5 126t-96.5 44q-67 0 -109 -43.5t-55 -126.5zM366 320h-91l11 84h92
z" />
    <glyph glyph-name="zero.tf" horiz-adv-x="602" 
d="M375 730q210 0 210 -253q0 -221 -86 -355q-85 -132 -228 -132q-213 0 -213 254q0 221 86 354q86 132 231 132zM197 468l-17 -124l299 178q-3 57 -34 86.5t-85 29.5q-66 0 -108.5 -43.5t-54.5 -126.5zM446 252l22 156l-303 -178q-6 -72 24 -110t93 -38q65 0 108.5 43
t55.5 127z" />
    <glyph glyph-name="one.tf" horiz-adv-x="590" 
d="M387 721l-88 -628h220v-93h-499v93h175l59 422h-182l11 81h29q70 0 118.5 34.5t58.5 90.5h98z" />
    <glyph glyph-name="two.tf" horiz-adv-x="605" 
d="M424 293l-219 -203l106 3h211l-13 -93h-461l10 74l299 280q96 90 104 145l4 33q6 48 -23.5 76.5t-84.5 28.5q-57 0 -97 -32t-47 -85l-3 -23h-104l2 19q12 97 87 155q77 59 182 59q93 0 146 -47t53 -128q0 -87 -51 -154q-29 -37 -46 -54q-21 -23 -55 -54z" />
    <glyph glyph-name="three.tf" horiz-adv-x="605" 
d="M286 -10q-112 0 -168 62t-39 166h109q-12 -67 17.5 -101.5t91.5 -34.5q60 0 100.5 28.5t47.5 75.5l6 37q7 50 -25.5 77t-96.5 27h-62l12 88h57q60 0 98 26.5t44 70.5l4 33q6 45 -24.5 69t-83.5 24q-60 0 -98 -35t-47 -99h-108q13 102 87 164t184 62q91 0 146 -44t55 -118
q0 -63 -34 -112t-97 -76v-7q97 -37 97 -144q0 -104 -77 -172q-76 -67 -196 -67z" />
    <glyph glyph-name="four.tf" horiz-adv-x="603" 
d="M546 721l-68 -481h90l-13 -88h-89l-22 -152h-104l21 152h-348l13 87l359 482h161zM429 638l-295 -398h240z" />
    <glyph glyph-name="five.tf" horiz-adv-x="605" 
d="M76 221h107q-11 -60 22 -99t95 -39q59 0 103 31t52 81l11 79q7 51 -28.5 82.5t-95.5 31.5q-44 0 -83.5 -19.5t-55.5 -50.5h-99l73 403h422l-13 -92h-330l-37 -199l4 -2q25 22 66.5 36t82.5 14q93 0 147 -53t54 -143q0 -128 -81 -210t-208 -82q-108 0 -166 64t-42 167z
" />
    <glyph glyph-name="six.tf" horiz-adv-x="605" 
d="M68 246q0 221 87 352q89 132 235 132q96 0 150 -49.5t51 -134.5h-108q-1 46 -30 69.5t-78 23.5q-162 0 -186 -261h5q60 94 178 94q88 0 139 -50.5t51 -139.5q0 -128 -78 -210q-76 -82 -199 -82q-217 0 -217 256zM193 270l-10 -70q-8 -53 25.5 -85t89.5 -32t97.5 32
t48.5 85l10 70q8 54 -27 84t-87 30q-56 0 -98 -31t-49 -83z" />
    <glyph glyph-name="seven.tf" horiz-adv-x="605" 
d="M181 500h-88l31 221h486l-11 -75q-120 -141 -221 -315q-102 -177 -152 -331h-113q47 151 142 319q99 172 215 310h-271z" />
    <glyph glyph-name="eight.tf" horiz-adv-x="608" 
d="M260 -10q-105 0 -162.5 45t-57.5 123q0 67 34.5 120t96.5 78l1 8q-85 40 -85 133q0 103 77 168q76 64 201 64q104 0 162 -45.5t58 -124.5q0 -66 -35 -118t-96 -77l-1 -8q84 -39 84 -135q0 -104 -76 -168q-77 -63 -201 -63zM318 403q63 0 104 26t47 73l5 36
q7 48 -25.5 73.5t-97.5 25.5t-104 -25.5t-46 -73.5l-6 -36q-7 -47 26 -73t97 -26zM274 82q63 0 103.5 27.5t47.5 78.5l5 36q6 45 -27 69t-97 24t-103.5 -24t-46.5 -69l-5 -36q-7 -51 26 -78.5t97 -27.5z" />
    <glyph glyph-name="nine.tf" horiz-adv-x="605" 
d="M569 475q0 -222 -88 -353q-87 -132 -234 -132q-96 0 -150.5 49.5t-50.5 134.5h108q1 -46 30 -69.5t78 -23.5q161 0 185 262h-5q-60 -95 -177 -95q-88 0 -139 50.5t-51 139.5q0 128 77 210q78 82 200 82q217 0 217 -255zM443 450l10 71q8 53 -25 84.5t-89 31.5
t-97.5 -31.5t-49.5 -84.5l-10 -71q-8 -52 25.5 -82.5t89.5 -30.5t97 30.5t49 82.5z" />
    <glyph glyph-name="zero.tf.ss01" horiz-adv-x="602" 
d="M375 730q210 0 210 -253q0 -221 -86 -355q-85 -132 -228 -132q-213 0 -213 254q0 221 86 354q86 132 231 132zM360 638q-66 0 -108.5 -43.5t-54.5 -126.5l-9 -63h279l9 63q12 83 -19 126.5t-97 43.5zM446 252l9 67h-279l-9 -67q-12 -83 18 -126.5t97 -43.5q65 0 108.5 43
t55.5 127z" />
    <glyph glyph-name="zero.dnom" horiz-adv-x="419" 
d="M172 -4q-69 0 -105.5 46.5t-36.5 131.5q0 136 59 224q60 88 153 88q68 0 105 -46.5t37 -132.5q0 -135 -60 -223q-58 -88 -152 -88zM181 68q52 0 85 67t33 174q0 105 -68 105q-52 0 -85 -67q-32 -69 -32 -173q0 -106 67 -106z" />
    <glyph glyph-name="one.dnom" horiz-adv-x="312" 
d="M162 331h-123l9 66h45q42 0 66.5 21.5t24.5 57.5v4h80l-67 -480h-81z" />
    <glyph glyph-name="two.dnom" horiz-adv-x="379" 
d="M107 69l74 4h133l-10 -73h-299l2 16q6 46 28 84t51.5 61.5t62 47.5t60 43t45.5 46.5t18 58.5q0 27 -17 43t-46 16q-35 0 -59 -23.5t-28 -60.5l-80 5q10 67 60 108q52 41 122 41q62 0 97 -32t35 -86q0 -88 -74 -150q-18 -14 -62 -44.5t-72.5 -55.5t-40.5 -49z" />
    <glyph glyph-name="three.dnom" horiz-adv-x="382" 
d="M161 -7q-71 0 -109 42t-27 109h82q-6 -36 11.5 -57.5t51.5 -21.5q36 0 61.5 24.5t25.5 58.5q0 29 -20 45t-53 16h-37l11 75h30q39 0 64 22t25 57q0 24 -16 38t-43 14q-35 0 -57 -21t-27 -58h-81q8 67 55.5 108.5t119.5 41.5q61 0 97.5 -29.5t36.5 -79.5q0 -87 -83 -124
l-1 -5q62 -24 62 -94q0 -69 -52 -115q-50 -46 -127 -46z" />
    <glyph glyph-name="four.dnom" horiz-adv-x="388" 
d="M342 480l-44 -316h52l-10 -73h-52l-13 -91h-80l12 91h-213l9 68l212 321h127zM251 403l-158 -239h124z" />
    <glyph glyph-name="five.dnom" horiz-adv-x="396" 
d="M30 148h82q-5 -36 13.5 -59t53.5 -23q40 0 68 31t28 77q0 34 -19.5 55t-51.5 21q-25 0 -47.5 -12t-32.5 -32h-77l39 274h290l-10 -73h-210l-10 -68l-9 -46l2 -2q35 30 90 30q60 0 95 -36.5t35 -96.5q0 -84 -55 -139q-56 -56 -136 -56q-70 0 -109 43q-39 44 -29 112z" />
    <glyph glyph-name="six.dnom" horiz-adv-x="406" 
d="M27 167q0 141 61 229q61 90 158 90q62 0 97.5 -34.5t34.5 -92.5h-81q-2 55 -64 55q-93 0 -115 -154h3q17 26 48.5 41.5t66.5 15.5q57 0 90.5 -35.5t33.5 -94.5q0 -83 -55 -138q-54 -55 -136 -55q-69 0 -105.5 45t-36.5 128zM113 140q0 -33 18.5 -53.5t51.5 -20.5
q40 0 67.5 32t27.5 79q0 33 -18.5 52.5t-51.5 19.5q-40 0 -67.5 -31.5t-27.5 -77.5z" />
    <glyph glyph-name="seven.dnom" horiz-adv-x="360" 
d="M58 480h313l-8 -58q-175 -188 -247 -422h-79q65 233 227 407h-155l-10 -74h-62z" />
    <glyph glyph-name="eight.dnom" horiz-adv-x="393" 
d="M11 107q0 42 24 78t63 52v5q-55 28 -55 93q0 66 52 108q52 43 134 43q68 0 106.5 -30.5t38.5 -82.5q0 -42 -23.5 -78.5t-61.5 -52.5v-5q54 -29 54 -90q0 -68 -52 -111q-50 -43 -133 -43q-68 0 -107.5 31t-39.5 83zM126 333q0 -28 19.5 -43.5t52.5 -15.5q40 0 65.5 23.5
t25.5 58.5q0 28 -19 43.5t-52 15.5q-40 0 -66 -23.5t-26 -58.5zM96 123q0 -27 20 -43t53 -16q38 0 64 23.5t26 59.5q0 28 -19 43.5t-51 15.5q-40 0 -66.5 -23.5t-26.5 -59.5z" />
    <glyph glyph-name="nine.dnom" horiz-adv-x="406" 
d="M375 313q0 -139 -62 -230q-62 -89 -156 -89q-62 0 -98.5 34.5t-34.5 92.5h80q3 -55 66 -55q93 0 114 155h-4q-18 -28 -49 -44t-65 -16q-57 0 -90.5 36t-33.5 96q0 81 54 137q56 56 136 56q71 0 107 -44.5t36 -128.5zM289 339q0 34 -18.5 54.5t-50.5 20.5q-41 0 -68.5 -32
t-27.5 -79q0 -33 19 -52t51 -19q40 0 67.5 31t27.5 76z" />
    <glyph glyph-name="zero.numr" horiz-adv-x="419" 
d="M208 251q-69 0 -105.5 46t-36.5 131q0 135 59 221t152 86q69 0 105.5 -46t36.5 -131q0 -135 -59 -221t-152 -86zM217 322q52 0 85 66q33 68 33 171q0 104 -68 104q-52 0 -85 -66t-33 -170q0 -105 68 -105z" />
    <glyph glyph-name="one.numr" horiz-adv-x="312" 
d="M197 582h-123l9 65h45q42 0 66.5 22t24.5 56v4h80l-67 -473h-81z" />
    <glyph glyph-name="two.numr" horiz-adv-x="379" 
d="M143 323l74 4h132l-9 -72h-299l2 17q11 98 102 163q10 7 44 30t47 33.5t34 30t29 38.5t8 41q0 26 -16.5 41.5t-46.5 15.5q-34 0 -58 -23t-28 -60l-81 5q11 66 61 107t121 41q61 0 96.5 -32t35.5 -84q0 -39 -15 -72.5t-38 -56.5t-52.5 -45t-56.5 -39t-51 -39t-35 -44z" />
    <glyph glyph-name="three.numr" horiz-adv-x="382" 
d="M196 248q-72 0 -109 41.5t-26 107.5h82q-7 -35 11 -56.5t51 -21.5q37 0 62 23.5t25 58.5q0 29 -19.5 44.5t-52.5 15.5h-37l11 74h30q38 0 63 22t25 57q0 24 -16 37t-43 13q-34 0 -56.5 -21.5t-26.5 -56.5h-82q7 66 55 107.5t121 41.5q60 0 97 -29.5t37 -78.5
q0 -86 -83 -122l-1 -5q62 -26 62 -92q0 -68 -52 -114t-128 -46z" />
    <glyph glyph-name="four.numr" horiz-adv-x="388" 
d="M377 729l-43 -313h52l-10 -71h-52l-13 -89h-80l12 89h-213l9 67l211 317h127zM286 653l-157 -237h124z" />
    <glyph glyph-name="five.numr" horiz-adv-x="396" 
d="M66 401h82q-5 -34 13.5 -57.5t53.5 -23.5q40 0 68 31t28 76q0 34 -19.5 55t-51.5 21q-26 0 -48 -12.5t-32 -32.5h-77l38 271h290l-10 -73h-210l-9 -67l-9 -45l1 -2q33 30 91 30q59 0 94.5 -36.5t35.5 -95.5q0 -81 -56 -137q-55 -55 -135 -55q-70 0 -109 42
q-39 44 -29 111z" />
    <glyph glyph-name="six.numr" horiz-adv-x="406" 
d="M63 421q0 137 61 225q62 89 157 89q61 0 97.5 -34t35.5 -91h-81q-1 26 -18.5 39.5t-46.5 13.5q-95 0 -114 -151h3q17 26 49 41.5t65 15.5q57 0 91 -36t34 -94q0 -80 -55 -135q-54 -55 -135 -55q-70 0 -106.5 44.5t-36.5 127.5zM149 394q0 -33 18.5 -53.5t51.5 -20.5
q40 0 67.5 31.5t27.5 78.5q0 33 -18.5 52.5t-51.5 19.5q-40 0 -67.5 -31.5t-27.5 -76.5z" />
    <glyph glyph-name="seven.numr" horiz-adv-x="360" 
d="M92 729h314l-8 -58q-176 -188 -246 -415h-79q67 232 225 400h-154l-9 -64h-61l8 64z" />
    <glyph glyph-name="eight.numr" horiz-adv-x="393" 
d="M47 361q0 42 23 76.5t63 52.5l1 5q-55 27 -55 91q0 65 52 107q53 42 132 42q68 0 107.5 -30t39.5 -81q0 -42 -22.5 -76.5t-62.5 -52.5l-1 -5q54 -29 54 -91q0 -65 -52 -108q-51 -42 -132 -42q-67 0 -107 31t-40 81zM162 585q0 -28 19 -43.5t52 -15.5q40 0 65.5 23
t25.5 58q0 27 -19.5 42.5t-50.5 15.5q-41 0 -66.5 -22.5t-25.5 -57.5zM132 378q0 -27 19.5 -43t52.5 -16q39 0 65 23t26 58q0 27 -19.5 43t-50.5 16q-40 0 -66.5 -23t-26.5 -58z" />
    <glyph glyph-name="nine.numr" horiz-adv-x="406" 
d="M410 563q0 -138 -61 -226t-156 -88q-61 0 -98.5 34.5t-35.5 91.5h81q1 -26 19 -40.5t46 -14.5q92 0 115 152h-5q-17 -26 -48 -41t-65 -15q-57 0 -91 35.5t-34 92.5q0 81 55 136t135 55q70 0 106.5 -44.5t36.5 -127.5zM324 589q0 34 -18.5 54t-50.5 20q-41 0 -68 -31.5
t-27 -77.5q0 -33 18.5 -52.5t50.5 -19.5q39 0 67 31.5t28 75.5z" />
    <glyph glyph-name="numbersign.ss03" horiz-adv-x="602" 
d="M620 536l-26 -61h-95l-72 -195h118l-24 -61h-117l-81 -219h-72l81 219h-151l-81 -219h-72l81 219h-96l25 61h94l72 195h-116l25 61h113l79 213h72l-79 -213h152l79 213h72l-79 -213h98zM204 280h151l72 195h-151z" />
    <glyph glyph-name="parenleft.case" horiz-adv-x="297" 
d="M69 281q0 133 60 264q62 131 160 204h66q-99 -75 -159 -203q-59 -129 -59 -271q0 -187 110 -295h-65q-54 50 -83.5 129t-29.5 172z" />
    <glyph glyph-name="parenright.case" horiz-adv-x="297" 
d="M255 444q0 -135 -60 -262t-159 -202h-66q102 78 160 205q58 126 58 270q0 189 -110 294h66q52 -49 81.5 -129.5t29.5 -175.5z" />
    <glyph glyph-name="braceleft.case" horiz-adv-x="320" 
d="M49 303l9 66q67 0 78 74l30 215q5 35 26.5 54.5t55.5 19.5h106l-8 -59h-111l-32 -227q-7 -45 -31.5 -73.5t-58.5 -33.5v-3q32 -5 49 -35t10 -73l-33 -238h110l-8 -59h-105q-73 0 -62 75l32 225q11 72 -57 72z" />
    <glyph glyph-name="braceright.case" horiz-adv-x="320" 
d="M292 369l-9 -66q-68 0 -78 -72l-32 -225q-11 -75 -82 -75h-104l8 59h109l34 238q7 44 31.5 73t58.5 35l1 3q-34 6 -50.5 33.5t-10.5 73.5l32 227h-109l8 59h105q34 0 50 -19.5t11 -54.5l-30 -215q-5 -34 9.5 -54t47.5 -20z" />
    <glyph glyph-name="bracketleft.case" horiz-adv-x="309" 
d="M229 -69h-180l114 807h180l-9 -58h-114l-97 -690h114z" />
    <glyph glyph-name="bracketright.case" horiz-adv-x="309" 
d="M167 -69h-180l8 59h115l97 690h-115l8 58h181z" />
    <glyph glyph-name="hyphen.case" horiz-adv-x="459" 
d="M411 337h-343l9 65h344z" />
    <glyph glyph-name="endash.case" horiz-adv-x="635" 
d="M587 337h-519l9 65h520z" />
    <glyph glyph-name="emdash.case" horiz-adv-x="831" 
d="M783 337h-715l9 65h716z" />
    <glyph glyph-name="hyphen_hyphen_greater" horiz-adv-x="851" 
d="M718 231h-612v66h612l-169 231h80l197 -263l-197 -265h-80z" />
    <glyph glyph-name="greater.case" horiz-adv-x="543" 
d="M498 323l-417 -220l15 108l147 74l170 76l1 7l-147 69l-129 70l15 106l356 -210z" />
    <glyph glyph-name="less.case" horiz-adv-x="543" 
d="M432 211l-15 -108l-355 220l11 80l415 210l-14 -106l-149 -70l-166 -69l-1 -7l148 -76z" />
    <glyph glyph-name="percent.tf" horiz-adv-x="614" 
d="M78 580q0 70 43 114t113 44t113.5 -44.5t43.5 -114.5q0 -71 -43.5 -115t-113.5 -44q-69 0 -112.5 44t-43.5 116zM154 580q0 -42 22 -68t58 -26t58.5 26t22.5 68q0 39 -22.5 64.5t-58.5 25.5t-58 -25.5t-22 -64.5zM627 447l-548 -216v61l548 219v-64zM303 151
q0 69 44 113.5t113 44.5q71 0 114.5 -44t43.5 -114t-44 -116q-44 -45 -114 -45q-69 0 -113 44.5t-44 116.5zM460 244q-35 0 -57.5 -26t-22.5 -67t22 -67t58 -26t59 26t23 67t-23 67t-59 26z" />
    <glyph glyph-name="perthousand.tf" horiz-adv-x="671" 
d="M242 437q-69 0 -113 42t-44 109t44 109t113 42q68 0 112 -42q45 -42 45 -109t-45 -109q-44 -42 -112 -42zM242 672q-35 0 -57.5 -23.5t-22.5 -60.5t22 -60t58 -23t58.5 23.5t22.5 60.5t-22.5 60t-58.5 23zM112 334l548 215v-62l-548 -216v63zM533 292q67 0 109 -41.5
t42 -108.5q0 -68 -42 -110t-109 -42q-80 0 -125 59q-45 -59 -124 -59q-67 0 -109.5 42t-42.5 110q0 67 42 108.5t109 41.5q77 0 124 -59q48 59 126 59zM370 142q0 37 -22.5 60.5t-57.5 23.5q-36 0 -59 -23q-22 -22 -22 -61t22 -62q23 -23 58 -23q36 0 58.5 23.5t22.5 61.5z
M608 143q0 37 -22.5 60t-58.5 23t-58.5 -23.5t-22.5 -60.5t22.5 -60.5t58.5 -23.5t58.5 23.5t22.5 61.5z" />
    <glyph glyph-name="at.ss03" horiz-adv-x="913" 
d="M603 504h57l-54 -256q-16 -79 45 -79q60 0 104 74t44 178q0 115 -73 182t-198 67q-171 0 -282 -121q-110 -121 -110 -307q0 -130 79 -204t224 -74h222l-10 -67h-222q-177 0 -275 91q-98 92 -98 249q0 215 138 357q138 144 343 144q157 0 248 -85q92 -84 92 -224
q0 -133 -69 -230q-69 -96 -164 -96q-44 0 -69.5 22t-29.5 59h-5q-48 -78 -134 -78q-59 0 -94 39.5t-35 109.5q0 107 60 184t143 77q76 0 100 -61h5zM425 172q55 0 92 54q39 54 39 130q0 45 -20.5 70.5t-55.5 25.5q-54 0 -91 -55t-37 -134q0 -44 19.5 -67.5t53.5 -23.5z" />
    <glyph glyph-name="less_hyphen_hyphen" horiz-adv-x="851" 
d="M755 297v-66h-612l169 -231h-80l-198 265l198 263h80l-169 -231h612z" />
    <glyph glyph-name="uni1F310" horiz-adv-x="1065" 
d="M552 738q196 0 321 -104q124 -103 124 -269q0 -165 -125 -270q-124 -105 -320 -105q-197 0 -323 105q-125 105 -125 270q0 166 124 269q125 104 324 104zM448 574h205q-17 63 -43.5 98.5t-57.5 35.5q-66 0 -104 -134zM683 574h106q-56 97 -162 125q36 -44 56 -125z
M312 574h106q23 84 58 124q-104 -27 -164 -124zM823 574h69q-61 70 -157 104q53 -40 88 -104zM367 678q-98 -35 -158 -104h69q35 63 89 104zM133 380h95q3 88 33 159h-78q-46 -71 -50 -159zM410 539h-116q-32 -72 -35 -159h136q1 88 15 159zM424 380h253q-1 86 -16 159h-221
q-15 -71 -16 -159zM706 380h136q-3 90 -34 159h-117q13 -71 15 -159zM872 380h95q-5 89 -49 159h-78q29 -73 32 -159zM228 347h-95q5 -85 51 -156h77q-30 73 -33 156zM395 347h-136q3 -86 35 -156h116q-14 69 -15 156zM677 347h-253q2 -85 16 -156h221q14 71 16 156z
M691 191h116q32 70 35 156h-136q-2 -87 -15 -156zM967 347h-95q-3 -84 -32 -156h77q45 69 50 156zM276 158h-68q58 -69 155 -105q-51 39 -87 105zM417 158h-106q58 -98 164 -127q-35 41 -58 127zM654 158h-207q38 -137 105 -137q31 0 58 36.5t44 100.5zM790 158h-106
q-22 -85 -57 -127q104 29 163 127zM737 52q98 36 156 106h-69q-35 -66 -87 -106z" />
    <glyph glyph-name="uni1F441" horiz-adv-x="873" 
d="M88 363q0 166 104 270t263 104t263 -104t104 -270q0 -168 -104 -272t-263 -104t-263 104t-104 272zM232 597q-89 -91 -89 -234t89 -235q88 -91 223 -91t223 91q89 92 89 235t-89 234q-88 91 -223 91t-223 -91zM284 364q0 75 49 123q49 49 122 49q72 0 121 -49
q50 -48 50 -123q0 -78 -49 -127q-49 -48 -122 -48t-122 48q-49 49 -49 127zM305 374v-21l141 6l-91 -82l16 -17l81 93l-6 -144h20l-7 144l81 -93l16 17l-91 82l141 -6v21l-141 -7l91 83l-16 16l-81 -93l7 144h-20l6 -144l-81 93l-16 -16l91 -83z" />
    </font>
</defs>
</svg>
