<?xml version="1.0" standalone="no"?>
<!DOCTYPE svg PUBLIC "-//W3C//DTD SVG 1.1//EN" "http://www.w3.org/Graphics/SVG/1.1/DTD/svg11.dtd" >
<svg xmlns="http://www.w3.org/2000/svg" xmlns:xlink="http://www.w3.org/1999/xlink" version="1.1">
<metadata>
Created by FontForge 20170731 at Tue Jul 10 19:29:47 2018
 By Aleksey,,,
Copyright (c) 2017 by Deni Anggara. All rights reserved.
</metadata>
<defs>
<font id="AllianceNo.2-SemiBold" horiz-adv-x="639" >
  <font-face 
    font-family="Alliance No.2 SemiBold"
    font-weight="600"
    font-stretch="normal"
    units-per-em="1000"
    panose-1="0 0 7 0 0 0 0 0 0 0"
    ascent="798"
    descent="-202"
    x-height="530"
    cap-height="729"
    bbox="-449 -267 2114 1007"
    underline-thickness="50"
    underline-position="-200"
    unicode-range="U+000D-FB02"
  />
<missing-glyph horiz-adv-x="644" 
d="M644 0h-644v729h644v-729zM63 666v-604h518v604h-518zM518 125h-392v478h392v-478zM189 540v-351h266v351h-266zM252 252v225h140v-225h-140z" />
    <glyph glyph-name="fi" unicode="fi" horiz-adv-x="646" 
d="M236 530h338v-530h-124v429h-214v-429h-124v429h-101v101h101v102q0 39 15 69q21 38 92 38h152v-99h-135v-110zM450 605v134h124v-134h-124z" />
    <glyph glyph-name="fl" unicode="fl" 
d="M219 739h348v-739h-125v640h-206v-110h108v-101h-108v-429h-124v429h-101v101h101v102q0 39 15 69q21 38 92 38z" />
    <glyph glyph-name="f_f" unicode="ff" horiz-adv-x="711" 
d="M700 640h-135v-110h108v-101h-108v-429h-124v429h-205v-429h-124v429h-101v101h101v102q0 39 15 69q21 38 92 38h145v-99h-128v-110h205v105q0 39 16 67q20 37 91 37h152v-99z" />
    <glyph glyph-name="f_f_i" unicode="ffi" horiz-adv-x="976" 
d="M565 530h338v-530h-124v429h-214v-429h-124v429h-205v-429h-124v429h-101v101h101v102q0 39 15 69q21 38 92 38h145v-99h-128v-110h205v102q0 39 16 69q21 38 91 38h152v-99h-135v-110zM779 600v133h124v-133h-124z" />
    <glyph glyph-name="f_t" unicode="ft" horiz-adv-x="729" 
d="M586 429v-330h108v-99h-130q-101 0 -101 99v330h-227v-429h-124v429h-101v101h101v111q0 98 109 98h150v-99h-135v-110h227v170h123v-170h107v-101h-107z" />
    <glyph glyph-name="t_i" unicode="ti" horiz-adv-x="628" 
d="M432 600v133h124v-133h-124zM228 530h328v-530h-124v429h-204v-330h103v-99h-118q-71 0 -91 37q-17 31 -17 70v322h-95v101h95v170h123v-170z" />
    <glyph glyph-name="t_t" unicode="tt" horiz-adv-x="703" 
d="M561 429v-330h107v-99h-123q-71 0 -91 37q-17 31 -17 70v322h-208v-330h107v-99h-123q-71 0 -91 37q-17 31 -17 70v322h-95v101h95v170h124v-170h208v170h124v-170h106v-101h-106z" />
    <glyph glyph-name="t_t_i" unicode="tti" horiz-adv-x="965" 
d="M769 600v133h123v-133h-123zM561 530h331v-530h-123v429h-208v-330h107v-99h-123q-71 0 -91 37q-17 31 -17 70v322h-208v-330h107v-99h-123q-71 0 -91 37q-17 31 -17 70v322h-95v101h95v170h124v-170h208v170h124v-170z" />
    <glyph glyph-name=".notdef" horiz-adv-x="644" 
d="M644 0h-644v729h644v-729zM63 666v-604h518v604h-518zM518 125h-392v478h392v-478zM189 540v-351h266v351h-266zM252 252v225h140v-225h-140z" />
    <glyph glyph-name=".null" horiz-adv-x="0" 
 />
    <glyph glyph-name="nonmarkingreturn" horiz-adv-x="333" 
 />
    <glyph glyph-name="CR.001" unicode="&#xd;" horiz-adv-x="210" 
 />
    <glyph glyph-name="space" unicode=" " horiz-adv-x="222" 
 />
    <glyph glyph-name="exclam" unicode="!" horiz-adv-x="293" 
d="M178 225h-62l-32 293v211h126v-211zM214 0h-136v122h136v-122z" />
    <glyph glyph-name="quotedbl" unicode="&#x22;" horiz-adv-x="440" 
d="M181 582l-31 -175h-53l-30 175v147h114v-147zM373 582l-30 -175h-53l-31 175v147h114v-147z" />
    <glyph glyph-name="numbersign" unicode="#" horiz-adv-x="713" 
d="M656 541v-65h-116v-197h116v-66h-116v-213h-69v213h-227v-213h-71v213h-116v65h116v197h-116v66h116v209h71v-209h227v209h69v-209h116zM244 278l227 1v197l-227 -1v-197z" />
    <glyph glyph-name="dollar" unicode="$" horiz-adv-x="559" 
d="M517 243q0 -80 -53.5 -131t-145.5 -60v-79h-85v80q-91 11 -142.5 64.5t-51.5 135.5h125q0 -104 115 -104q51 0 78.5 21t27.5 58q0 32 -19.5 49t-64.5 30l-85 20q-164 39 -164 177q0 74 49 123.5t132 59.5v80h85v-81q81 -11 128 -59t48 -123h-124q-1 41 -27 65t-72 24
q-42 0 -65.5 -20t-23.5 -54q0 -59 89 -79l81 -19q165 -37 165 -178z" />
    <glyph glyph-name="percent" unicode="%" horiz-adv-x="898" 
d="M55 557q0 81 49 130q50 50 129 50q81 0 130.5 -50t49.5 -131q0 -80 -50 -132q-49 -51 -130 -51q-79 0 -128 51q-50 53 -50 133zM260 0h-75l462 729h76zM142 557q0 -47 25.5 -76.5t65.5 -29.5q42 0 67.5 29.5t25.5 76.5q0 46 -26 74.5t-67 28.5q-40 0 -65.5 -28.5
t-25.5 -74.5zM484 173q0 81 49 131q49 51 130 51q79 0 129 -51q49 -50 49 -132q0 -79 -50 -131q-49 -51 -128 -51t-129 51q-50 52 -50 132zM571 174q0 -47 26 -76.5t66 -29.5q41 0 66.5 29.5t25.5 76.5q0 46 -26 75t-66 29t-66 -29t-26 -75z" />
    <glyph glyph-name="ampersand" unicode="&#x26;" horiz-adv-x="672" 
d="M642 0h-350q-122 0 -184 51t-62 144q0 64 31 112.5t82 66.5v8q-100 43 -100 160q0 90 62 143t165 53q43 0 83 -8v-106q-27 8 -63 8q-57 0 -86.5 -24t-29.5 -67v-26q0 -40 30 -61t78 -21h123v111h122v-111h99v-106h-99v-217h99v-110zM293 110h128v217h-134q-54 0 -82 -25
t-28 -70v-34q0 -88 116 -88z" />
    <glyph glyph-name="quotesingle" unicode="'" horiz-adv-x="247" 
d="M181 582l-31 -175h-53l-30 175v147h114v-147z" />
    <glyph glyph-name="parenleft" unicode="(" horiz-adv-x="389" 
d="M294 771h78q-102 -65 -167 -191q-63 -124 -63 -261q0 -136 64 -260q65 -126 166 -191h-78q-102 67 -164 190q-62 126 -62 261q0 134 62 260q63 124 164 192z" />
    <glyph glyph-name="parenright" unicode=")" horiz-adv-x="380" 
d="M321 319q0 -136 -62 -262q-61 -123 -164 -189h-77q102 66 165 190q64 124 64 261q0 138 -64 262q-64 126 -165 190h77q103 -68 164 -191q62 -126 62 -261z" />
    <glyph glyph-name="asterisk" unicode="*" horiz-adv-x="352" 
d="M65 480l-29 50l108 49l-108 50l29 50l95 -70l-12 120h56l-11 -121l94 71l29 -50l-108 -50l108 -49l-29 -50l-94 72l11 -121h-56l12 121z" />
    <glyph glyph-name="plus" unicode="+" horiz-adv-x="625" 
d="M556 278h-192v-204h-103v204h-192v99h192v199h103v-199h192v-99z" />
    <glyph glyph-name="comma" unicode="," horiz-adv-x="219" 
d="M38 -155v50q45 0 63 19t18 57v29h-68v145h132v-164q0 -67 -38 -101.5t-107 -34.5z" />
    <glyph glyph-name="hyphen" unicode="-" horiz-adv-x="468" 
d="M410 264h-352v73h352v-73z" />
    <glyph glyph-name="period" unicode="." horiz-adv-x="262" 
d="M198 0h-133v148h133v-148z" />
    <glyph glyph-name="slash" unicode="/" horiz-adv-x="386" 
d="M90 0h-75l281 729h75z" />
    <glyph glyph-name="zero" unicode="0" horiz-adv-x="633" 
d="M318 730q261 0 261 -370t-261 -370q-264 0 -264 370t264 370zM191 468v-216q0 -75 32 -113.5t93 -38.5q60 0 93 37.5t33 114.5v216q0 77 -33 114.5t-93 37.5q-61 0 -93 -38.5t-32 -113.5z" />
    <glyph glyph-name="one" unicode="1" horiz-adv-x="459" 
d="M218 498h-183v97h29q70 0 114.5 35t47.5 91h118v-721h-126v498z" />
    <glyph glyph-name="two" unicode="2" horiz-adv-x="597" 
d="M339 112h206v-112h-487v87l280 292q63 67 63 110v37q0 41 -33 67.5t-82 26.5q-55 0 -87.5 -31.5t-32.5 -84.5v-19h-122q-5 113 63 179q67 66 183 66q111 0 178 -59q66 -58 66 -157q0 -44 -17 -86q-18 -44 -34 -64q-24 -30 -49 -55l-196 -204q59 7 101 7z" />
    <glyph glyph-name="three" unicode="3" horiz-adv-x="602" 
d="M298 -10q-114 0 -183 60q-68 62 -68 159v16h128v-10q0 -55 32 -86t89 -31q56 0 90.5 27t34.5 71v28q0 46 -32 71t-88 25h-67v99h63q51 0 81.5 25.5t30.5 67.5v18q0 42 -30 67t-79 25q-53 0 -85 -31.5t-32 -83.5v-9h-124v14q0 97 67 157q67 61 178 61q104 0 169 -54
q65 -53 65 -141q0 -111 -98 -158v-7q54 -20 82 -65t28 -104q0 -95 -70 -153q-68 -58 -182 -58z" />
    <glyph glyph-name="four" unicode="4" horiz-adv-x="625" 
d="M501 721v-469h88v-105h-88v-147h-126v147h-341v100l276 474h191zM375 624l-216 -372h216v372z" />
    <glyph glyph-name="five" unicode="5" horiz-adv-x="609" 
d="M42 223h128q-1 -56 35 -90.5t97 -34.5q60 0 96 33t36 87v49q0 54 -36.5 87t-94.5 33q-47 0 -81 -21.5t-47 -57.5h-121l18 413h448v-111h-336l-8 -171l6 -2q43 52 144 52q109 0 173 -67t64 -177q0 -115 -71 -186q-70 -69 -192 -69q-116 0 -187 63q-70 64 -71 170z" />
    <glyph glyph-name="six" unicode="6" horiz-adv-x="616" 
d="M47 357q0 180 69.5 276.5t208.5 96.5q102 0 165.5 -50t74.5 -137h-129q-14 80 -115 80q-157 0 -146 -231h6q48 91 171 91q101 0 163 -65t62 -174q0 -114 -69 -185q-69 -69 -187 -69q-138 0 -206 95.5t-68 271.5zM195 264v-52q0 -50 35.5 -80.5t91.5 -30.5q57 0 91.5 30
t34.5 81v52q0 55 -34 85t-90 30q-58 0 -93.5 -31t-35.5 -84z" />
    <glyph glyph-name="seven" unicode="7" horiz-adv-x="555" 
d="M124 486h-103v235h511v-91q-102 -137 -179 -306q-77 -171 -104 -324h-136q23 146 96 309q75 166 171 301h-256v-124z" />
    <glyph glyph-name="eight" unicode="8" horiz-adv-x="603" 
d="M300 -10q-121 0 -191 54.5t-70 145.5q0 59 29.5 103.5t79.5 62.5v8q-51 21 -80 65t-29 101q0 94 72 146q72 54 192 54t190 -54t70 -145q0 -57 -30 -101.5t-79 -65.5v-8q51 -19 80 -63t29 -103q0 -93 -71 -146.5t-192 -53.5zM432 504v22q0 45 -35 69.5t-96 24.5t-96 -24.5
t-35 -69.5v-22q0 -45 34 -68.5t97 -23.5t97 23.5t34 68.5zM432 196v22q0 91 -131 91t-131 -91v-22q0 -46 34.5 -71t96.5 -25t96.5 25t34.5 71z" />
    <glyph glyph-name="nine" unicode="9" horiz-adv-x="612" 
d="M572 363q0 -180 -69.5 -276.5t-208.5 -96.5q-102 0 -165.5 50t-74.5 137h129q13 -79 115 -79q157 0 146 230h-6q-46 -90 -171 -90q-103 0 -164 64.5t-61 174.5q0 115 69 184t187 69q138 0 206 -95t68 -272zM424 457v51q0 50 -35.5 80.5t-91.5 30.5q-57 0 -91.5 -30
t-34.5 -81v-51q0 -55 34 -85.5t90 -30.5q58 0 93.5 31.5t35.5 84.5z" />
    <glyph glyph-name="colon" unicode=":" horiz-adv-x="278" 
d="M207 396h-133v134h133v-134zM207 0h-133v134h133v-134z" />
    <glyph glyph-name="semicolon" unicode=";" horiz-adv-x="251" 
d="M184 396h-132v134h132v-134zM39 -147v46q45 0 62.5 17t17.5 52v32h-67v134h132v-157q0 -62 -37.5 -93t-107.5 -31z" />
    <glyph glyph-name="less" unicode="&#x3c;" horiz-adv-x="537" 
d="M459 148v-125l-390 220v94l390 212v-124l-135 -65l-146 -67v-9l149 -69z" />
    <glyph glyph-name="equal" unicode="=" horiz-adv-x="544" 
d="M464 349h-384v106h384v-106zM464 139h-384v105h384v-105z" />
    <glyph glyph-name="greater" unicode="&#x3e;" horiz-adv-x="537" 
d="M468 243l-390 -220v125l132 67l151 69v9l-147 67l-136 65v124l390 -212v-94z" />
    <glyph glyph-name="question" unicode="?" horiz-adv-x="587" 
d="M319 205h-119v199q37 -8 67 -8q70 0 108.5 32t38.5 88q0 53 -34.5 83.5t-92.5 30.5q-56 0 -89.5 -27t-37.5 -74h-122q6 98 73.5 153t178.5 55q116 0 183 -59.5t67 -161.5q0 -90 -61 -148q-60 -59 -160 -66v-97zM328 0h-138v132h138v-132z" />
    <glyph glyph-name="at" unicode="@" horiz-adv-x="947" 
d="M821 -57h-695v695h695v-515h-189q-73 0 -81 56l-1 7h-6q-12 -25 -41 -40t-68 -15q-66 0 -101.5 43.5t-35.5 121.5q0 80 37 122.5t105 42.5q37 0 66.5 -14.5t43.5 -39.5h3v49h71v-255h108v351h-512v-523h601v-86zM460 208q32 0 50 19t18 52v35q0 32 -18 50.5t-51 18.5
t-51 -18.5t-18 -50.5v-35q0 -33 18.5 -52t51.5 -19z" />
    <glyph glyph-name="A" unicode="A" horiz-adv-x="691" 
d="M689 0h-143l-51 146h-306l-52 -146h-136l265 729h152zM261 350l-36 -101h234l-35 101l-77 243h-6z" />
    <glyph glyph-name="B" unicode="B" horiz-adv-x="717" 
d="M445 0h-357v729h362q96 0 150.5 -50t54.5 -135q0 -59 -27.5 -101.5t-76.5 -61.5v-9q60 -15 91.5 -61t31.5 -114q0 -89 -62 -143t-167 -54zM216 627v-205h211q44 0 68.5 21.5t24.5 58.5v46q0 37 -25 58t-70 21h-209zM216 321v-219h206q54 0 84 23t30 64v43q0 89 -102 89
h-218z" />
    <glyph glyph-name="C" unicode="C" horiz-adv-x="753" 
d="M378 -10q-159 0 -249 99q-90 101 -90 274q0 176 91 276t256 100q138 0 226 -72q88 -70 100 -191h-137q-12 68 -62.5 107t-130.5 39q-93 0 -149 -54t-56 -147v-119q0 -87 55 -142q56 -54 148 -54q75 0 127.5 39.5t67.5 107.5h137q-16 -121 -107 -192t-227 -71z" />
    <glyph glyph-name="D" unicode="D" horiz-adv-x="750" 
d="M392 0h-304v729h304q163 0 241 -91.5t78 -273.5q0 -364 -319 -364zM218 614v-499h171q98 0 141 44.5t43 143.5v123q0 100 -44.5 144t-139.5 44h-171z" />
    <glyph glyph-name="E" unicode="E" horiz-adv-x="643" 
d="M590 0h-502v729h502v-115h-372v-183h322v-108h-322v-208h372v-115z" />
    <glyph glyph-name="F" unicode="F" horiz-adv-x="615" 
d="M218 0h-130v729h498v-115h-368v-233h328v-110h-328v-271z" />
    <glyph glyph-name="G" unicode="G" horiz-adv-x="795" 
d="M39 357q0 182 95 282q94 99 252 99q127 0 214 -63t104 -167h-136q-14 53 -62 83.5t-117 30.5q-95 0 -154 -56q-58 -55 -58 -150v-114q0 -90 55 -145q56 -56 147 -56q85 0 141 51t60 136h-228v106h372v-394h-107l-9 110h-7q-35 -58 -98.5 -89t-144.5 -31q-149 0 -235 98
q-84 98 -84 269z" />
    <glyph glyph-name="H" unicode="H" horiz-adv-x="805" 
d="M218 0h-130v729h130v-304h368v304h131v-729h-131v319h-368v-319z" />
    <glyph glyph-name="I" unicode="I" horiz-adv-x="306" 
d="M218 729v-729h-130v729h130z" />
    <glyph glyph-name="J" unicode="J" horiz-adv-x="407" 
d="M195 115v614h130v-622q0 -28 -8 -51q-17 -56 -99 -56h-202v115h179z" />
    <glyph glyph-name="K" unicode="K" horiz-adv-x="701" 
d="M698 0h-158l-205 307l-117 -141v-166h-130v729h130v-380l311 380h159l-264 -317z" />
    <glyph glyph-name="L" unicode="L" horiz-adv-x="572" 
d="M536 0h-448v729h130v-612h318v-117z" />
    <glyph glyph-name="M" unicode="M" horiz-adv-x="914" 
d="M216 0h-128v729h167l199 -459h7l199 459h167v-729h-128v344l9 207h-6l-244 -539l-244 539h-7l9 -208v-343z" />
    <glyph glyph-name="N" unicode="N" horiz-adv-x="791" 
d="M218 0h-130v729h154l334 -551h6l-8 214v337h130v-729h-155l-332 549h-6l7 -207v-342z" />
    <glyph glyph-name="O" unicode="O" horiz-adv-x="776" 
d="M39 363q0 175 93 275q94 100 256 100t255 -101q94 -100 94 -274q0 -173 -93 -274q-93 -99 -256 -99t-256 99q-93 101 -93 274zM177 416v-103q0 -97 57 -152t154 -55q99 0 154.5 55.5t55.5 151.5v103q0 97 -56.5 151.5t-153.5 54.5q-99 0 -155 -55.5t-56 -150.5z" />
    <glyph glyph-name="P" unicode="P" horiz-adv-x="682" 
d="M218 0h-130v729h331q116 0 177 -62.5t61 -177.5q0 -114 -62 -177t-176 -63h-201v-249zM218 611v-252h187q54 0 83.5 26t29.5 71v63q0 44 -29 68t-78 24h-193z" />
    <glyph glyph-name="Q" unicode="Q" horiz-adv-x="776" 
d="M737 363q0 -157 -78 -255q-77 -99 -215 -115v-94h126v-93h-144q-72 0 -92 37q-14 28 -14 69v83q-133 20 -207 117t-74 251q0 175 93 275q94 100 256 100t255 -101q94 -100 94 -274zM177 416v-103q0 -97 57 -152t154 -55q99 0 154.5 55.5t55.5 151.5v103q0 97 -56.5 151.5
t-153.5 54.5q-99 0 -155 -55.5t-56 -150.5z" />
    <glyph glyph-name="R" unicode="R" horiz-adv-x="737" 
d="M218 0h-130v729h364q106 0 161.5 -57t55.5 -158q0 -65 -29.5 -111t-80.5 -64v-7h33q79 0 79 -85v-247h-134v268h-319v-268zM218 615v-240h202q51 0 80.5 25t29.5 68v55q0 45 -29 68.5t-81 23.5h-202z" />
    <glyph glyph-name="S" unicode="S" horiz-adv-x="672" 
d="M39 227h135q2 -63 46 -97.5t120 -34.5q68 0 107 28.5t39 79.5q0 40 -26 64q-9 8 -27 16q-22 11 -49 16l-119 26q-10 2 -26.5 5.5t-22.5 5.5q-15 4 -52 21q-38 18 -55 34q-22 21 -38 56.5t-16 75.5q0 98 74 157q76 59 197 59q123 0 197 -58q77 -59 78 -157h-135
q-3 53 -41 82t-101 29q-62 0 -96 -25t-34 -70q0 -33 27 -60q14 -10 30 -16q38 -13 56 -16l128 -26q190 -40 190 -204q0 -108 -79 -168q-80 -60 -211 -60q-139 0 -219 66q-78 68 -77 171z" />
    <glyph glyph-name="T" unicode="T" horiz-adv-x="566" 
d="M6 729h554v-115h-212v-614h-131v614h-211v115z" />
    <glyph glyph-name="U" unicode="U" horiz-adv-x="773" 
d="M82 275v454h129v-444q0 -84 47 -130.5t129 -46.5q81 0 127.5 47t46.5 130v444h130v-454q0 -132 -83 -209q-82 -76 -222 -76q-146 0 -225 76t-79 209z" />
    <glyph glyph-name="V" unicode="V" horiz-adv-x="693" 
d="M430 0h-167l-258 729h145l108 -320l85 -282h7l85 281l109 321h144z" />
    <glyph glyph-name="W" unicode="W" horiz-adv-x="961" 
d="M158 0l-149 729h143l73 -396l29 -189h8l136 585h167l138 -586h7l28 188l72 398h142l-148 -729h-181l-138 565h-7l-140 -565h-180z" />
    <glyph glyph-name="X" unicode="X" horiz-adv-x="663" 
d="M172 0h-158l220 367l-220 362h158l83 -144l76 -141h7l79 144l79 141h156l-218 -364l222 -365h-159l-73 124l-87 155h-6l-90 -160z" />
    <glyph glyph-name="Y" unicode="Y" horiz-adv-x="681" 
d="M275 286l-272 443h156l93 -167l85 -157h7l85 156l93 168h156l-272 -443v-286h-131v286z" />
    <glyph glyph-name="Z" unicode="Z" horiz-adv-x="610" 
d="M34 729h541v-106l-377 -508h372v-115h-536v107l375 506h-375v116z" />
    <glyph glyph-name="bracketleft" unicode="[" horiz-adv-x="313" 
d="M288 -225h-185v1012h185v-64h-116v-887h116v-61z" />
    <glyph glyph-name="backslash" unicode="\" horiz-adv-x="388" 
d="M90 729l281 -729h-75l-281 729h75z" />
    <glyph glyph-name="bracketright" unicode="]" horiz-adv-x="313" 
d="M210 -225h-185v61h116v887h-116v64h185v-1012z" />
    <glyph glyph-name="asciicircum" unicode="^" horiz-adv-x="406" 
d="M388 472h-100l-85 156l-85 -156h-101l144 257h84z" />
    <glyph glyph-name="underscore" unicode="_" horiz-adv-x="346" 
d="M348 -78h-350v78h350v-78z" />
    <glyph glyph-name="grave" unicode="`" horiz-adv-x="425" 
d="M345 778l-38 -59l-207 122l52 81z" />
    <glyph glyph-name="a" unicode="a" horiz-adv-x="590" 
d="M33 153q0 77 51.5 120.5t141.5 43.5h148v35q0 91 -96 91q-94 0 -102 -80h-122q7 84 67.5 130.5t162.5 46.5q125 0 174 -69q40 -57 40 -121v-262h70v-88h-102q-41 0 -60 14.5t-24 46.5l-1 22h-7q-17 -42 -63.5 -67.5t-107.5 -25.5q-78 0 -124 44t-46 119zM158 175v-24
q0 -32 22.5 -48.5t62.5 -16.5q60 0 95.5 35.5t35.5 93.5v23h-128q-41 0 -64.5 -17.5t-23.5 -45.5z" />
    <glyph glyph-name="b" unicode="b" 
d="M183 0h-110v739h124v-308h8q20 51 67 80t110 29q105 0 163 -73t58 -203t-58 -202t-163 -72q-59 0 -106.5 27.5t-70.5 76.5h-8zM197 291v-55q0 -64 40.5 -104.5t106.5 -40.5q63 0 97.5 33.5t34.5 91.5v95q0 60 -35 93.5t-98 33.5q-65 0 -105.5 -41t-40.5 -106z" />
    <glyph glyph-name="c" unicode="c" horiz-adv-x="568" 
d="M413 189h123q-11 -93 -76.5 -146t-167.5 -53q-120 0 -188 73.5t-68 200.5q0 130 70 203t189 73q98 0 163 -53t77 -141h-123q-9 44 -41 68t-80 24q-59 0 -94 -37t-35 -97v-85q0 -59 35 -93t94 -34q49 0 81.5 26t40.5 71z" />
    <glyph glyph-name="d" unicode="d" 
d="M252 -10q-101 0 -158.5 72t-57.5 200q0 129 57 201t159 72q134 0 182 -104h8v308h125v-739h-110l-15 94h-8q-25 -50 -73 -77t-109 -27zM295 91q68 0 107.5 39.5t39.5 105.5v53q0 66 -39.5 105.5t-106.5 39.5q-62 0 -97.5 -33t-35.5 -92v-93q0 -58 35 -91.5t97 -33.5z" />
    <glyph glyph-name="e" unicode="e" horiz-adv-x="574" 
d="M36 266q0 128 68.5 201t186.5 73q110 0 177 -65q67 -64 67 -178q0 -39 -4 -60h-368v-29q0 -55 35.5 -88t93.5 -33q46 0 79 21t44 55h123q-17 -79 -83 -126q-68 -47 -163 -47q-120 0 -188 74q-68 76 -68 202zM163 332v-10h248v14q0 49 -33.5 78.5t-88.5 29.5
q-56 0 -91 -31t-35 -81z" />
    <glyph glyph-name="f" unicode="f" horiz-adv-x="382" 
d="M371 640h-135v-110h108v-101h-108v-429h-124v429h-101v101h101v111q0 98 109 98h150v-99z" />
    <glyph glyph-name="g" unicode="g" horiz-adv-x="546" 
d="M232 118h127q81 0 126.5 -38.5t45.5 -104.5q0 -81 -70.5 -121.5t-200.5 -40.5q-116 0 -174.5 32.5t-58.5 92.5q0 81 80 104v8q-25 9 -40 30t-15 47q0 32 20.5 56.5t54.5 35.5v7q-80 47 -80 140q0 78 57 126q58 48 150 48q50 0 90 -14v18q0 79 92 79h83v-99h-99v-39
q53 -47 53 -123q0 -78 -57 -125q-58 -47 -148 -47q-35 0 -69 8q-34 -10 -34 -41q0 -39 67 -39zM169 380v-30q0 -34 25 -54t66 -20t66.5 20t25.5 54v30q0 33 -25 53.5t-67 20.5q-41 0 -66 -20t-25 -54zM269 -97q138 0 138 67q0 49 -65 49h-128q-71 0 -71 -54q0 -62 126 -62z
" />
    <glyph glyph-name="h" unicode="h" horiz-adv-x="630" 
d="M197 0h-124v739h124v-305h8q24 51 70 78.5t106 27.5q88 0 135.5 -57.5t47.5 -160.5v-322h-125v309q0 129 -109 129q-60 0 -96.5 -43t-36.5 -113v-282z" />
    <glyph glyph-name="i" unicode="i" horiz-adv-x="269" 
d="M196 605h-123v134h123v-134zM196 0h-123v530h123v-530z" />
    <glyph glyph-name="j" unicode="j" horiz-adv-x="277" 
d="M81 605v134h123v-134h-123zM81 -69v599h123v-590q0 -30 -7 -50q-18 -57 -100 -57h-127v98h111z" />
    <glyph glyph-name="k" unicode="k" horiz-adv-x="583" 
d="M573 0h-142l-155 236l-78 -80v-156h-125v739h125v-429l210 220h155l-201 -206z" />
    <glyph glyph-name="l" unicode="l" horiz-adv-x="269" 
d="M196 0h-123v739h123v-739z" />
    <glyph glyph-name="m" unicode="m" horiz-adv-x="934" 
d="M197 0h-124v530h108l15 -98h9q47 108 157 108q56 0 96.5 -29.5t56.5 -81.5h9q48 111 170 111q84 0 129 -56.5t45 -159.5v-324h-124v310q0 128 -97 128q-53 0 -83.5 -40t-30.5 -108v-290h-125v310q0 128 -96 128q-53 0 -84 -40t-31 -106v-292z" />
    <glyph glyph-name="n" unicode="n" horiz-adv-x="630" 
d="M197 0h-124v530h109l15 -98h8q25 52 71 80t105 28q88 0 135.5 -58t47.5 -161v-321h-125v308q0 127 -109 127q-60 0 -96.5 -43t-36.5 -113v-279z" />
    <glyph glyph-name="o" unicode="o" horiz-adv-x="593" 
d="M36 265q0 128 70 201q71 74 190 74q117 0 189 -73t72 -202q0 -126 -70 -200q-69 -75 -191 -75q-119 0 -190 74q-70 73 -70 201zM162 305v-83q0 -61 37 -95.5t97 -34.5q61 0 97.5 34.5t36.5 95.5v83q0 60 -37 96.5t-97 36.5q-61 0 -97.5 -36t-36.5 -97z" />
    <glyph glyph-name="p" unicode="p" 
d="M197 -167h-124v697h109l15 -94h8q25 50 73 77t109 27q102 0 159.5 -72t57.5 -200q0 -129 -57.5 -201t-159.5 -72q-65 0 -112.5 27.5t-69.5 76.5h-8v-266zM343 96q62 0 97.5 33t35.5 92v93q0 58 -34.5 91.5t-97.5 33.5q-67 0 -107 -39.5t-40 -105.5v-53q0 -66 40 -105.5
t106 -39.5z" />
    <glyph glyph-name="q" unicode="q" 
d="M456 530h110v-697h-124v266h-8q-21 -51 -68 -80t-109 -29q-106 0 -163.5 72.5t-57.5 203.5q0 130 58 202t163 72q58 0 106 -28t71 -76h8zM442 239v55q0 64 -40.5 104.5t-106.5 40.5q-63 0 -98 -33.5t-35 -91.5v-95q0 -60 35 -93.5t98 -33.5q66 0 106.5 41t40.5 106z" />
    <glyph glyph-name="r" unicode="r" horiz-adv-x="372" 
d="M180 530h182v-101h-165v-429h-124v424q0 40 17 70q20 36 90 36z" />
    <glyph glyph-name="s" unicode="s" horiz-adv-x="519" 
d="M35 164h122q1 -39 29 -61t76 -22q45 0 70 18t25 50q0 49 -61 59l-103 19q-149 26 -149 147q0 77 57.5 121.5t154.5 44.5q98 0 155 -44.5t59 -120.5h-123q-1 36 -25 55.5t-67 19.5q-42 0 -64.5 -17t-22.5 -47q0 -50 75 -61l97 -17q145 -22 145 -148q0 -80 -60 -125
t-163 -45q-106 0 -166.5 47.5t-60.5 126.5z" />
    <glyph glyph-name="t" unicode="t" horiz-adv-x="372" 
d="M336 429h-108v-330h108v-99h-130q-101 0 -101 99v330h-95v101h95v170h123v-170h108v-101z" />
    <glyph glyph-name="u" unicode="u" horiz-adv-x="624" 
d="M427 530h124v-530h-108l-16 97h-9q-50 -107 -175 -107q-84 0 -130.5 54.5t-46.5 151.5v334h125v-316q0 -122 103 -122q60 0 96.5 43.5t36.5 115.5v279z" />
    <glyph glyph-name="v" unicode="v" horiz-adv-x="513" 
d="M182 0l-186 530h135l75 -246l48 -170h6l47 169l75 247h135l-184 -530h-151z" />
    <glyph glyph-name="w" unicode="w" horiz-adv-x="772" 
d="M581 282l59 248h125l-141 -530h-155l-55 245l-26 129h-6l-26 -129l-53 -245h-154l-142 530h126l59 -246l33 -160h8l83 406h142l83 -406h8z" />
    <glyph glyph-name="x" unicode="x" horiz-adv-x="503" 
d="M133 0h-131l165 265l-167 265h134l114 -189h7l110 189h132l-162 -261l168 -269h-133l-115 192h-7z" />
    <glyph glyph-name="y" unicode="y" horiz-adv-x="548" 
d="M211 68l-217 462h133l69 -166l72 -182h6l76 183l70 165h132l-217 -463v-127q0 -39 -15 -69q-19 -38 -90 -38h-137v99h118v136z" />
    <glyph glyph-name="z" unicode="z" horiz-adv-x="463" 
d="M433 439l-256 -338h260v-101h-410v91l257 338h-258v101h407v-91z" />
    <glyph glyph-name="braceleft" unicode="{" horiz-adv-x="314" 
d="M40 251v68q68 0 68 74v316q0 36 20.5 57t56.5 21h104v-64h-110v-325q0 -47 -20.5 -76t-54.5 -34v-3q35 -7 55 -36t20 -75v-338h110v-61h-104q-77 0 -77 78v324q0 37 -18.5 55.5t-49.5 18.5z" />
    <glyph glyph-name="bar" unicode="|" horiz-adv-x="303" 
d="M204 -42h-107v795h107v-795z" />
    <glyph glyph-name="braceright" unicode="}" horiz-adv-x="314" 
d="M274 319v-68q-31 0 -50 -18.5t-19 -55.5v-324q0 -78 -77 -78h-103v61h108v338q0 45 20.5 74.5t56.5 36.5v3q-35 6 -56 34.5t-21 75.5v325h-108v64h103q36 0 56.5 -21t20.5 -57v-316q0 -34 17.5 -54t51.5 -20z" />
    <glyph glyph-name="asciitilde" unicode="~" horiz-adv-x="403" 
d="M84 271h-62q-5 74 22.5 110t75.5 36q33 0 84 -27q54 -26 76 -26q49 0 49 63h61q6 -74 -24 -112t-80 -38q-42 0 -94 27t-70 27q-21 0 -30.5 -16t-7.5 -44z" />
    <glyph glyph-name="uni00A0" unicode="&#xa0;" horiz-adv-x="222" 
 />
    <glyph glyph-name="exclamdown" unicode="&#xa1;" horiz-adv-x="293" 
d="M78 606v123h136v-123h-136zM84 211l32 293h62l32 -293v-211h-126v211z" />
    <glyph glyph-name="cent" unicode="&#xa2;" horiz-adv-x="561" 
d="M399 294h123q-9 -78 -60 -126.5t-133 -59.5v-78h-84v79q-93 13 -145 80t-52 173q0 107 52.5 174.5t144.5 82.5v80h84v-79q81 -10 131.5 -58t60.5 -123h-122q-18 82 -110 82q-55 0 -85.5 -31.5t-30.5 -86.5v-80q0 -55 29.5 -85t85.5 -30q98 0 111 86z" />
    <glyph glyph-name="sterling" unicode="&#xa3;" horiz-adv-x="647" 
d="M484 109v131h109v-240h-557v109h70v204h-70v101h70v102q0 101 62 161q61 61 168 61q94 0 156 -51q61 -49 69 -133h-126q-7 33 -34.5 53t-66.5 20q-48 0 -75 -29t-27 -82v-102h227v-101h-227v-204h252z" />
    <glyph glyph-name="currency" unicode="&#xa4;" horiz-adv-x="637" 
d="M128 73l-66 65l76 68q-45 61 -44.5 132t44.5 131l-76 68l66 67l66 -78q57 38 125.5 38t124.5 -38l65 78l65 -67l-71 -66q43 -60 43.5 -130t-44.5 -136l73 -68l-65 -64l-65 77q-59 -40 -126.5 -39.5t-123.5 41.5zM203 338q-1 -54 32 -88.5t84 -34.5q48 0 83 35
q34 34 34 88q0 53 -33.5 87t-84.5 34q-50 0 -82.5 -33.5t-32.5 -87.5z" />
    <glyph glyph-name="yen" unicode="&#xa5;" horiz-adv-x="650" 
d="M497 729h150l-199 -352h89v-103h-147v-55h147v-102h-147v-117h-130v117h-146v102h146v55h-146v103h88l-199 352h151l103 -204l64 -137h7l66 138z" />
    <glyph glyph-name="brokenbar" unicode="&#xa6;" horiz-adv-x="303" 
d="M204 420h-107v333h107v-333zM204 -46h-107v327h107v-327z" />
    <glyph glyph-name="section" unicode="&#xa7;" horiz-adv-x="536" 
d="M42 350q0 43 24 73.5t66 43.5v9q-65 32 -65 105q0 69 56.5 110.5t152.5 41.5q92 0 147 -43q57 -42 60 -110h-127q-8 56 -86 56q-66 0 -66 -50q0 -30 24 -45q11 -6 43 -21l99 -37q45 -16 79 -40q47 -32 47 -99q0 -80 -72 -114v-10q61 -33 61 -108q0 -72 -58 -114t-155 -42
q-95 0 -153 40.5t-64 110.5h132q8 -56 85 -56q73 0 73 56q0 24 -15 37.5t-50 26.5l-121 44q-117 42 -117 135zM172 382q0 -41 59 -67l84 -34l41 -17q16 16 16 45q0 20 -11 36q-15 21 -50 33l-73 32q-1 1 -17 7t-28 12q-21 -18 -21 -47z" />
    <glyph glyph-name="dieresis" unicode="&#xa8;" horiz-adv-x="403" 
d="M149 736h-100v131h100v-131zM351 736h-101v131h101v-131z" />
    <glyph glyph-name="copyright" unicode="&#xa9;" horiz-adv-x="944" 
d="M473 -66q-111 0 -206 51q-93 50 -152 147q-58 95 -58 217q0 121 58 216q57 95 151.5 146.5t207.5 51.5q170 0 292 -116t122 -296t-122 -299q-121 -118 -293 -118zM851 351q0 165 -110 272t-267 107t-269 -107q-111 -107 -111 -274t110 -274q112 -107 269 -107
q158 0 268 107t110 276zM479 123q-99 0 -164 63q-64 64 -64 163t64 162q65 63 164 63q87 0 148 -49t67 -126h-89q-6 44 -41 71t-85 27q-64 0 -101 -41t-37 -107q0 -67 37 -107.5t100 -40.5q51 0 86 26.5t41 70.5h89q-8 -77 -68 -126q-59 -49 -147 -49z" />
    <glyph glyph-name="ordfeminine" unicode="&#xaa;" horiz-adv-x="444" 
d="M370 586v-162h37v-74h-47q-73 0 -73 65v6h-5q-12 -36 -43.5 -55.5t-74.5 -19.5q-55 0 -88 31.5t-33 82.5q0 55 39 86.5t105 31.5h89v15q0 60 -69 60q-56 0 -68 -43h-91q5 54 50 86.5t116 32.5q76 0 116 -37.5t40 -105.5zM276 499v16h-74q-66 0 -66 -49q0 -22 15.5 -34
t42.5 -12q36 0 59 22.5t23 56.5z" />
    <glyph glyph-name="guillemotleft" unicode="&#xab;" horiz-adv-x="544" 
d="M182 61l-120 213l120 211h107l-108 -211l108 -213h-107zM394 61l-120 213l120 211h109l-111 -211l111 -213h-109z" />
    <glyph glyph-name="logicalnot" unicode="&#xac;" horiz-adv-x="610" 
d="M544 148h-104v161h-371v104h475v-265z" />
    <glyph glyph-name="registered" unicode="&#xae;" horiz-adv-x="615" 
d="M307 738q113 0 190 -74q76 -73 76 -189t-76 -191q-77 -74 -190 -74t-190 74q-75 75 -75 191t76 189q77 74 189 74zM308 707q-98 0 -164 -66q-66 -65 -66 -167t66 -166q65 -64 164 -64q97 0 164 65q66 65 66 166q0 102 -67 166q-66 66 -163 66zM261 353h-50v250h125
q36 0 55.5 -19t19.5 -53q0 -47 -38 -61v-3h10q30 0 30 -31v-83h-51v90h-101v-90zM261 560v-77h62q34 0 34 31v17q0 29 -33 29h-63z" />
    <glyph glyph-name="overscore" unicode="&#xaf;" horiz-adv-x="355" 
d="M345 742h-337v92h337v-92z" />
    <glyph glyph-name="degree" unicode="&#xb0;" horiz-adv-x="422" 
d="M365 581q0 -65 -45 -109q-44 -42 -111 -42q-66 0 -109 42.5t-43 108.5q0 68 43 110q43 43 109 43q68 0 111 -43q45 -42 45 -110zM279 581q0 32 -19.5 52t-49.5 20q-28 0 -47.5 -20t-19.5 -52q0 -30 19.5 -50t47.5 -20q29 0 49 20t20 50z" />
    <glyph glyph-name="plusminus" unicode="&#xb1;" horiz-adv-x="641" 
d="M572 332h-198v-163h-109v163h-196v104h196v162h109v-162h198v-104zM572 0h-503v106h503v-106z" />
    <glyph glyph-name="uni00B2" unicode="&#xb2;" horiz-adv-x="454" 
d="M161 385l87 4h167v-89h-369v19q-1 73 34 124t95 97q7 5 27.5 21t28 22t23 20t22 23t15 22t11.5 26t3 28q0 38 -22 59t-61 21q-42 0 -65.5 -25t-21.5 -70h-101q1 83 53.5 132.5t138.5 49.5q84 0 134.5 -45.5t50.5 -120.5q0 -89 -76 -156q-16 -14 -62 -48t-73.5 -61
t-38.5 -53z" />
    <glyph glyph-name="uni00B3" unicode="&#xb3;" horiz-adv-x="468" 
d="M42 470h103q-2 -41 22.5 -65.5t67.5 -24.5t68 23.5t25 61.5q0 39 -27 61t-73 22h-50v81h43q46 0 70.5 21.5t24.5 58.5q0 33 -23 53t-60 20q-42 0 -65.5 -24t-22.5 -65h-102q-4 78 49 127t143 49q82 0 133.5 -41t51.5 -109q0 -85 -80 -123v-4q44 -17 67.5 -52.5
t23.5 -82.5q0 -73 -55 -119t-143 -46t-140.5 49t-50.5 129z" />
    <glyph glyph-name="acute" unicode="&#xb4;" horiz-adv-x="426" 
d="M345 841l-206 -122l-39 59l193 144z" />
    <glyph glyph-name="paragraph" unicode="&#xb6;" horiz-adv-x="679" 
d="M260 729h334v-83h-70v-648q0 -152 -152 -152h-264v76h145v426q-95 0 -150.5 51.5t-55.5 136.5q0 90 57.5 141.5t155.5 51.5zM344 -78h23q36 0 51.5 17.5t15.5 54.5v652h-90v-724z" />
    <glyph glyph-name="middot" unicode="&#xb7;" horiz-adv-x="315" 
d="M64 292q0 41 27 67.5t66 26.5q40 0 67 -26.5t27 -67.5q0 -39 -27 -65t-67 -26q-39 0 -66 26t-27 65z" />
    <glyph glyph-name="cedilla" unicode="&#xb8;" horiz-adv-x="518" 
d="M306 8l-29 -49q33 0 59 -20t26 -55q0 -44 -34 -69t-76.5 -23.5t-79.5 16.5v63q30 -25 71 -20q40 4 40 39q0 22 -22.5 30t-53.5 -4v31l52 86h47v-25z" />
    <glyph glyph-name="uni00B9" unicode="&#xb9;" horiz-adv-x="352" 
d="M167 687h-144v77h24q54 0 89 27t37 71h94v-562h-100v387z" />
    <glyph glyph-name="ordmasculine" unicode="&#xba;" horiz-adv-x="458" 
d="M44 537q0 87 51 139q53 53 134 53q82 0 133 -54q51 -53 51 -138t-51 -137q-51 -53 -133 -53q-81 0 -134 53q-51 52 -51 137zM318 539q0 51 -24 81.5t-66 30.5q-40 0 -64 -31q-24 -32 -24 -82q0 -52 24 -83t65 -31t65 31.5t24 83.5z" />
    <glyph glyph-name="guillemotright" unicode="&#xbb;" horiz-adv-x="544" 
d="M151 485l119 -211l-119 -213h-108l110 213l-110 211h108zM363 485l120 -211l-120 -213h-108l110 213l-110 211h108z" />
    <glyph glyph-name="onequarter" unicode="&#xbc;" horiz-adv-x="900" 
d="M173 -46l410 814h99l-411 -814h-98zM240 729v-473h-89v319h-124v71h45q41 0 62.5 21t21.5 58v4h84zM834 480v-312h51v-79h-51v-89h-88v89h-212v74l162 317h138zM746 392l-114 -224h114v224z" />
    <glyph glyph-name="onehalf" unicode="&#xbd;" horiz-adv-x="923" 
d="M173 -46l410 814h99l-411 -814h-98zM240 729v-473h-89v319h-124v71h45q41 0 62.5 21t21.5 58v4h84zM685 76l69 4h130v-80h-303v16q0 97 75 163q13 11 46.5 38t48.5 41t30 37.5t15 47.5q0 31 -18 48.5t-49 17.5q-33 0 -52 -22t-17 -58l-89 6q2 68 46.5 109.5t117.5 41.5
q70 0 111 -39t41 -104q0 -74 -60 -131q-15 -14 -50.5 -41.5t-59 -50t-32.5 -44.5z" />
    <glyph glyph-name="threequarters" unicode="&#xbe;" horiz-adv-x="966" 
d="M241 -46l410 814h99l-411 -814h-98zM348 387q0 -61 -45 -100t-115 -39q-72 0 -116 41t-43 108h89q0 -32 19.5 -51.5t49.5 -19.5q31 0 50.5 18.5t19.5 46.5q0 30 -21 48t-54 18h-39v81h30q35 0 54 17.5t19 45.5q0 27 -16.5 41.5t-44.5 14.5q-31 0 -49.5 -19.5t-17.5 -51.5
h-90q-2 67 41 108t117 41q69 0 111 -35t42 -93q0 -71 -67 -102v-5q76 -30 76 -113zM902 480v-312h51v-79h-51v-89h-88v89h-212v74l162 317h138zM814 392l-114 -224h114v224z" />
    <glyph glyph-name="questiondown" unicode="&#xbf;" horiz-adv-x="588" 
d="M260 729h137v-132h-137v132zM269 524h118v-199q-37 8 -67 8q-69 0 -108 -32t-39 -88q0 -53 35 -83.5t93 -30.5q55 0 88.5 27t37.5 74h123q-6 -98 -73.5 -153t-178.5 -55q-116 0 -183 59.5t-67 161.5q0 89 60 148q62 59 161 66v97z" />
    <glyph glyph-name="Agrave" unicode="&#xc0;" horiz-adv-x="691" 
d="M188 997l193 -144l-38 -59l-207 122zM689 0h-143l-51 146h-306l-52 -146h-136l265 729h152zM261 350l-36 -101h234l-35 101l-77 243h-6z" />
    <glyph glyph-name="Aacute" unicode="&#xc1;" horiz-adv-x="691" 
d="M495 997l52 -81l-206 -122l-39 59zM689 0h-143l-51 146h-306l-52 -146h-136l265 729h152zM261 350l-36 -101h234l-35 101l-77 243h-6z" />
    <glyph glyph-name="Acircumflex" unicode="&#xc2;" horiz-adv-x="691" 
d="M449 787l-107 114l-109 -114l-59 58l131 131h74l131 -131zM689 0h-143l-51 146h-306l-52 -146h-136l265 729h152zM261 350l-36 -101h234l-35 101l-77 243h-6z" />
    <glyph glyph-name="Atilde" unicode="&#xc3;" horiz-adv-x="691" 
d="M277 823q-30 0 -56 -35l-51 35q38 87 109 87q27 -2 66 -19q42 -17 61 -17q34 0 57 36l52 -35q-34 -88 -111 -88q-28 1 -67 18q-39 18 -60 18zM689 0h-143l-51 146h-306l-52 -146h-136l265 729h152zM261 350l-36 -101h234l-35 101l-77 243h-6z" />
    <glyph glyph-name="Adieresis" unicode="&#xc4;" horiz-adv-x="691" 
d="M191 933h100v-131h-100v131zM392 933h101v-131h-101v131zM689 0h-143l-51 146h-306l-52 -146h-136l265 729h152zM261 350l-36 -101h234l-35 101l-77 243h-6z" />
    <glyph glyph-name="Aring" unicode="&#xc5;" horiz-adv-x="691" 
d="M689 0h-143l-51 146h-306l-52 -146h-136l257 707q-37 31 -37 87q0 53 33.5 85t87.5 32t87 -32t33 -85q0 -54 -36 -86zM292 794q0 -24 14 -39t36 -15t36 15t14 39q3 34 -23.5 48t-53 0t-23.5 -48zM261 350l-36 -101h234l-35 101l-77 243h-6z" />
    <glyph glyph-name="AE" unicode="&#xc6;" horiz-adv-x="974" 
d="M921 729v-115h-371v-197h315v-107h-315v-195h371v-115h-502v181h-226l-56 -181h-136l239 729h681zM225 284h194v330h-92z" />
    <glyph glyph-name="Ccedilla" unicode="&#xc7;" horiz-adv-x="753" 
d="M380 106q75 0 127.5 39.5t67.5 107.5h137q-17 -118 -102 -188q-86 -71 -216 -75l-17 -29q35 0 60 -20t25 -55q0 -44 -34 -69t-76.5 -23.5t-79.5 16.5v63q30 -25 71 -20q40 4 40 39q0 22 -22.5 30t-53.5 -4v31l26 43q-138 13 -217 112q-77 98 -77 259q0 176 91 276
t256 100q138 0 226 -72q88 -70 100 -191h-137q-12 68 -62.5 107t-130.5 39q-93 0 -149 -54t-56 -147v-119q0 -87 55 -142q56 -54 148 -54z" />
    <glyph glyph-name="Egrave" unicode="&#xc8;" horiz-adv-x="643" 
d="M372 853l-38 -59l-207 122l52 81zM590 0h-502v729h502v-115h-372v-183h322v-108h-322v-208h372v-115z" />
    <glyph glyph-name="Eacute" unicode="&#xc9;" horiz-adv-x="643" 
d="M539 916l-206 -122l-39 59l193 144zM590 0h-502v729h502v-115h-372v-183h322v-108h-322v-208h372v-115z" />
    <glyph glyph-name="Ecircumflex" unicode="&#xca;" horiz-adv-x="643" 
d="M225 787l-59 58l131 131h74l131 -131l-61 -58l-107 114zM590 0h-502v729h502v-115h-372v-183h322v-108h-322v-208h372v-115z" />
    <glyph glyph-name="Edieresis" unicode="&#xcb;" horiz-adv-x="643" 
d="M282 802h-100v131h100v-131zM484 802h-101v131h101v-131zM590 0h-502v729h502v-115h-372v-183h322v-108h-322v-208h372v-115z" />
    <glyph glyph-name="Igrave" unicode="&#xcc;" horiz-adv-x="306" 
d="M192 853l-38 -59l-207 122l52 81zM218 729v-729h-130v729h130z" />
    <glyph glyph-name="Iacute" unicode="&#xcd;" horiz-adv-x="306" 
d="M359 916l-206 -122l-39 59l193 144zM218 729v-729h-130v729h130z" />
    <glyph glyph-name="Icircumflex" unicode="&#xce;" horiz-adv-x="306" 
d="M45 787l-59 58l131 131h74l131 -131l-61 -58l-107 114zM218 729v-729h-130v729h130z" />
    <glyph glyph-name="Idieresis" unicode="&#xcf;" horiz-adv-x="306" 
d="M103 802h-100v131h100v-131zM305 802h-101v131h101v-131zM218 729v-729h-130v729h130z" />
    <glyph glyph-name="Eth" unicode="&#xd0;" horiz-adv-x="750" 
d="M88 729h304q163 0 241 -91.5t78 -273.5q0 -364 -319 -364h-304v325h-90v103h90v301zM573 303v123q0 100 -44.5 144t-139.5 44h-171v-186h119v-103h-119v-210h171q98 0 141 44.5t43 143.5z" />
    <glyph glyph-name="Ntilde" unicode="&#xd1;" horiz-adv-x="791" 
d="M471 787q-28 1 -67 18q-39 18 -60 18q-30 0 -56 -35l-51 35q37 87 109 87q27 -2 66 -19q42 -17 61 -17q35 0 57 36l52 -35q-34 -88 -111 -88zM218 0h-130v729h154l334 -551h6l-8 214v337h130v-729h-155l-332 549h-6l7 -207v-342z" />
    <glyph glyph-name="Ograve" unicode="&#xd2;" horiz-adv-x="776" 
d="M426 853l-38 -59l-207 122l52 81zM39 363q0 175 93 275q94 100 256 100t255 -101q94 -100 94 -274q0 -173 -93 -274q-93 -99 -256 -99t-256 99q-93 101 -93 274zM177 416v-103q0 -97 57 -152t154 -55q99 0 154.5 55.5t55.5 151.5v103q0 97 -56.5 151.5t-153.5 54.5
q-99 0 -155 -55.5t-56 -150.5z" />
    <glyph glyph-name="Oacute" unicode="&#xd3;" horiz-adv-x="776" 
d="M592 916l-206 -122l-39 59l193 144zM39 363q0 175 93 275q94 100 256 100t255 -101q94 -100 94 -274q0 -173 -93 -274q-93 -99 -256 -99t-256 99q-93 101 -93 274zM177 416v-103q0 -97 57 -152t154 -55q99 0 154.5 55.5t55.5 151.5v103q0 97 -56.5 151.5t-153.5 54.5
q-99 0 -155 -55.5t-56 -150.5z" />
    <glyph glyph-name="Ocircumflex" unicode="&#xd4;" horiz-adv-x="776" 
d="M278 787l-59 58l131 131h74l131 -131l-61 -58l-107 114zM39 363q0 175 93 275q94 100 256 100t255 -101q94 -100 94 -274q0 -173 -93 -274q-93 -99 -256 -99t-256 99q-93 101 -93 274zM177 416v-103q0 -97 57 -152t154 -55q99 0 154.5 55.5t55.5 151.5v103
q0 97 -56.5 151.5t-153.5 54.5q-99 0 -155 -55.5t-56 -150.5z" />
    <glyph glyph-name="Otilde" unicode="&#xd5;" horiz-adv-x="776" 
d="M449 787q-28 1 -67 18q-39 18 -60 18q-30 0 -56 -35l-51 35q37 87 109 87q27 -2 66 -19q42 -17 61 -17q35 0 57 36l52 -35q-34 -88 -111 -88zM39 363q0 175 93 275q94 100 256 100t255 -101q94 -100 94 -274q0 -173 -93 -274q-93 -99 -256 -99t-256 99q-93 101 -93 274z
M177 416v-103q0 -97 57 -152t154 -55q99 0 154.5 55.5t55.5 151.5v103q0 97 -56.5 151.5t-153.5 54.5q-99 0 -155 -55.5t-56 -150.5z" />
    <glyph glyph-name="Odieresis" unicode="&#xd6;" horiz-adv-x="776" 
d="M336 802h-100v131h100v-131zM538 802h-101v131h101v-131zM39 363q0 175 93 275q94 100 256 100t255 -101q94 -100 94 -274q0 -173 -93 -274q-93 -99 -256 -99t-256 99q-93 101 -93 274zM177 416v-103q0 -97 57 -152t154 -55q99 0 154.5 55.5t55.5 151.5v103
q0 97 -56.5 151.5t-153.5 54.5q-99 0 -155 -55.5t-56 -150.5z" />
    <glyph glyph-name="multiply" unicode="&#xd7;" horiz-adv-x="700" 
d="M149 14l-76 79l201 207l-201 208l76 78l196 -203h11l194 203l77 -78l-200 -208l200 -207l-77 -79l-194 204h-11z" />
    <glyph glyph-name="Oslash" unicode="&#xd8;" horiz-adv-x="776" 
d="M714 665l58 -81l-65 -48q30 -76 30 -173q0 -173 -93 -274q-93 -99 -256 -99q-179 0 -272 118l-60 -44l-52 83l64 47q-29 76 -29 169q0 175 93 275q94 100 256 100q175 0 268 -115zM177 416v-103q0 -20 3 -38l377 275q-57 72 -169 72q-99 0 -155 -55.5t-56 -150.5z
M598 313v103q0 20 -3 40l-378 -275q55 -75 171 -75q99 0 154.5 55.5t55.5 151.5z" />
    <glyph glyph-name="Ugrave" unicode="&#xd9;" horiz-adv-x="773" 
d="M425 853l-38 -59l-207 122l52 81zM82 275v454h129v-444q0 -84 47 -130.5t129 -46.5q81 0 127.5 47t46.5 130v444h130v-454q0 -132 -83 -209q-82 -76 -222 -76q-146 0 -225 76t-79 209z" />
    <glyph glyph-name="Uacute" unicode="&#xda;" horiz-adv-x="773" 
d="M591 916l-206 -122l-39 59l193 144zM82 275v454h129v-444q0 -84 47 -130.5t129 -46.5q81 0 127.5 47t46.5 130v444h130v-454q0 -132 -83 -209q-82 -76 -222 -76q-146 0 -225 76t-79 209z" />
    <glyph glyph-name="Ucircumflex" unicode="&#xdb;" horiz-adv-x="773" 
d="M278 787l-59 58l131 131h74l131 -131l-61 -58l-107 114zM82 275v454h129v-444q0 -84 47 -130.5t129 -46.5q81 0 127.5 47t46.5 130v444h130v-454q0 -132 -83 -209q-82 -76 -222 -76q-146 0 -225 76t-79 209z" />
    <glyph glyph-name="Udieresis" unicode="&#xdc;" horiz-adv-x="773" 
d="M335 802h-100v131h100v-131zM537 802h-101v131h101v-131zM82 275v454h129v-444q0 -84 47 -130.5t129 -46.5q81 0 127.5 47t46.5 130v444h130v-454q0 -132 -83 -209q-82 -76 -222 -76q-146 0 -225 76t-79 209z" />
    <glyph glyph-name="Yacute" unicode="&#xdd;" horiz-adv-x="681" 
d="M546 916l-206 -122l-39 59l193 144zM275 286l-272 443h156l93 -167l85 -157h7l85 156l93 168h156l-272 -443v-286h-131v286z" />
    <glyph glyph-name="Thorn" unicode="&#xde;" horiz-adv-x="682" 
d="M218 605h201q116 0 177 -63t61 -177t-62 -177t-176 -63h-201v-125h-130v730h130v-125zM518 332v63q0 44 -28.5 67.5t-78.5 23.5h-193v-251h187q54 0 83.5 26t29.5 71z" />
    <glyph glyph-name="germandbls" unicode="&#xdf;" horiz-adv-x="601" 
d="M80 408h-70v102h70v27q0 95 60 148.5t160 53.5q99 0 158.5 -49.5t59.5 -130.5q0 -115 -101 -153v-7q71 -12 110.5 -64.5t39.5 -126.5q0 -97 -64.5 -152.5t-178.5 -55.5h-64v106h60q52 0 83 26t31 68v50q0 45 -31 70.5t-86 25.5h-34v101h19q36 0 59.5 17t23.5 44v55
q0 29 -25 46t-63 17q-44 0 -67 -25.5t-23 -71.5v-529h-127v408z" />
    <glyph glyph-name="agrave" unicode="&#xe0;" horiz-adv-x="590" 
d="M313 658l-38 -59l-207 122l52 81zM33 153q0 77 51.5 120.5t141.5 43.5h148v35q0 91 -96 91q-94 0 -102 -80h-122q7 84 67.5 130.5t162.5 46.5q125 0 174 -69q40 -57 40 -121v-262h70v-88h-102q-41 0 -60 14.5t-24 46.5l-1 22h-7q-17 -42 -63.5 -67.5t-107.5 -25.5
q-78 0 -124 44t-46 119zM158 175v-24q0 -32 22.5 -48.5t62.5 -16.5q60 0 95.5 35.5t35.5 93.5v23h-128q-41 0 -64.5 -17.5t-23.5 -45.5z" />
    <glyph glyph-name="aacute" unicode="&#xe1;" horiz-adv-x="590" 
d="M480 721l-206 -122l-39 59l193 144zM33 153q0 77 51.5 120.5t141.5 43.5h148v35q0 91 -96 91q-94 0 -102 -80h-122q7 84 67.5 130.5t162.5 46.5q125 0 174 -69q40 -57 40 -121v-262h70v-88h-102q-41 0 -60 14.5t-24 46.5l-1 22h-7q-17 -42 -63.5 -67.5t-107.5 -25.5
q-78 0 -124 44t-46 119zM158 175v-24q0 -32 22.5 -48.5t62.5 -16.5q60 0 95.5 35.5t35.5 93.5v23h-128q-41 0 -64.5 -17.5t-23.5 -45.5z" />
    <glyph glyph-name="acircumflex" unicode="&#xe2;" horiz-adv-x="590" 
d="M166 593l-59 58l131 131h74l131 -131l-61 -58l-107 114zM33 153q0 77 51.5 120.5t141.5 43.5h148v35q0 91 -96 91q-94 0 -102 -80h-122q7 84 67.5 130.5t162.5 46.5q125 0 174 -69q40 -57 40 -121v-262h70v-88h-102q-41 0 -60 14.5t-24 46.5l-1 22h-7
q-17 -42 -63.5 -67.5t-107.5 -25.5q-78 0 -124 44t-46 119zM158 175v-24q0 -32 22.5 -48.5t62.5 -16.5q60 0 95.5 35.5t35.5 93.5v23h-128q-41 0 -64.5 -17.5t-23.5 -45.5z" />
    <glyph glyph-name="atilde" unicode="&#xe3;" horiz-adv-x="590" 
d="M336 593q-28 1 -67 18q-39 18 -60 18q-30 0 -56 -35l-51 35q38 87 109 87q27 -2 66 -19q42 -17 61 -17q34 0 57 36l52 -35q-34 -88 -111 -88zM33 153q0 77 51.5 120.5t141.5 43.5h148v35q0 91 -96 91q-94 0 -102 -80h-122q7 84 67.5 130.5t162.5 46.5q125 0 174 -69
q40 -57 40 -121v-262h70v-88h-102q-41 0 -60 14.5t-24 46.5l-1 22h-7q-17 -42 -63.5 -67.5t-107.5 -25.5q-78 0 -124 44t-46 119zM158 175v-24q0 -32 22.5 -48.5t62.5 -16.5q60 0 95.5 35.5t35.5 93.5v23h-128q-41 0 -64.5 -17.5t-23.5 -45.5z" />
    <glyph glyph-name="adieresis" unicode="&#xe4;" horiz-adv-x="590" 
d="M223 608h-100v131h100v-131zM425 608h-101v131h101v-131zM33 153q0 77 51.5 120.5t141.5 43.5h148v35q0 91 -96 91q-94 0 -102 -80h-122q7 84 67.5 130.5t162.5 46.5q125 0 174 -69q40 -57 40 -121v-262h70v-88h-102q-41 0 -60 14.5t-24 46.5l-1 22h-7
q-17 -42 -63.5 -67.5t-107.5 -25.5q-78 0 -124 44t-46 119zM158 175v-24q0 -32 22.5 -48.5t62.5 -16.5q60 0 95.5 35.5t35.5 93.5v23h-128q-41 0 -64.5 -17.5t-23.5 -45.5z" />
    <glyph glyph-name="aring" unicode="&#xe5;" horiz-adv-x="590" 
d="M498 350v-262h70v-88h-102q-41 0 -60 14.5t-24 46.5l-1 22h-7q-17 -42 -63.5 -67.5t-107.5 -25.5q-78 0 -124 44t-46 119q0 77 51.5 120.5t141.5 43.5h148v35q0 91 -96 91q-94 0 -102 -80h-122q11 133 144 167q-44 32 -44 93q0 52 33.5 84t87.5 32q53 0 86.5 -32
t33.5 -84q0 -59 -40 -90q79 -20 110 -72q33 -53 33 -111zM311 662q-14 15 -36 15t-36 -15t-14 -39t14 -39t36 -15t36 15t14 39t-14 39zM374 215v23h-128q-41 0 -64.5 -17.5t-23.5 -45.5v-24q0 -32 22.5 -48.5t62.5 -16.5q60 0 95.5 35.5t35.5 93.5z" />
    <glyph glyph-name="ae" unicode="&#xe6;" horiz-adv-x="914" 
d="M214 -10q-86 0 -133.5 43t-47.5 118q0 78 52 122t143 44h143v33q0 44 -27.5 69t-73.5 25q-44 0 -70.5 -21t-29.5 -55h-123q7 78 68.5 125t155.5 47q123 0 176 -80q30 37 79 58.5t108 21.5q110 0 174 -67q65 -68 65 -178q0 -39 -4 -59h-370q-1 -67 36.5 -106t103.5 -39
q47 0 81.5 20t44.5 54h113q-14 -80 -80 -128q-67 -47 -160 -47q-76 0 -132.5 32.5t-80.5 88.5q-25 -57 -81.5 -89t-129.5 -32zM499 324h253q-1 54 -35 86t-88 32q-56 0 -91 -32t-39 -86zM239 86q61 0 97 36t36 99v15h-129q-39 0 -62 -16.5t-23 -43.5v-27q0 -30 22 -46.5
t59 -16.5z" />
    <glyph glyph-name="ccedilla" unicode="&#xe7;" horiz-adv-x="568" 
d="M413 189h123q-10 -89 -71 -141.5t-157 -57.5l-22 -36q33 0 59 -20t26 -55q0 -44 -34 -69t-76.5 -23.5t-79.5 16.5v63q30 -25 71 -20q40 4 40 39q0 22 -22 30t-54 -4v31l31 51q-99 13 -155 85t-56 186q0 130 70 203t189 73q98 0 163 -53t77 -141h-123q-9 44 -41 68t-80 24
q-59 0 -94 -37t-35 -97v-85q0 -59 35 -93t94 -34q49 0 81.5 26t40.5 71z" />
    <glyph glyph-name="egrave" unicode="&#xe8;" horiz-adv-x="574" 
d="M330 658l-38 -59l-207 122l52 81zM36 266q0 128 68.5 201t186.5 73q110 0 177 -65q67 -64 67 -178q0 -39 -4 -60h-368v-29q0 -55 35.5 -88t93.5 -33q46 0 79 21t44 55h123q-17 -79 -83 -126q-68 -47 -163 -47q-120 0 -188 74q-68 76 -68 202zM163 332v-10h248v14
q0 49 -33.5 78.5t-88.5 29.5q-56 0 -91 -31t-35 -81z" />
    <glyph glyph-name="eacute" unicode="&#xe9;" horiz-adv-x="574" 
d="M496 721l-206 -122l-39 59l193 144zM36 266q0 128 68.5 201t186.5 73q110 0 177 -65q67 -64 67 -178q0 -39 -4 -60h-368v-29q0 -55 35.5 -88t93.5 -33q46 0 79 21t44 55h123q-17 -79 -83 -126q-68 -47 -163 -47q-120 0 -188 74q-68 76 -68 202zM163 332v-10h248v14
q0 49 -33.5 78.5t-88.5 29.5q-56 0 -91 -31t-35 -81z" />
    <glyph glyph-name="ecircumflex" unicode="&#xea;" horiz-adv-x="574" 
d="M182 593l-59 58l131 131h74l131 -131l-61 -58l-107 114zM36 266q0 128 68.5 201t186.5 73q110 0 177 -65q67 -64 67 -178q0 -39 -4 -60h-368v-29q0 -55 35.5 -88t93.5 -33q46 0 79 21t44 55h123q-17 -79 -83 -126q-68 -47 -163 -47q-120 0 -188 74q-68 76 -68 202z
M163 332v-10h248v14q0 49 -33.5 78.5t-88.5 29.5q-56 0 -91 -31t-35 -81z" />
    <glyph glyph-name="edieresis" unicode="&#xeb;" horiz-adv-x="574" 
d="M240 608h-100v131h100v-131zM442 608h-101v131h101v-131zM36 266q0 128 68.5 201t186.5 73q110 0 177 -65q67 -64 67 -178q0 -39 -4 -60h-368v-29q0 -55 35.5 -88t93.5 -33q46 0 79 21t44 55h123q-17 -79 -83 -126q-68 -47 -163 -47q-120 0 -188 74q-68 76 -68 202z
M163 332v-10h248v14q0 49 -33.5 78.5t-88.5 29.5q-56 0 -91 -31t-35 -81z" />
    <glyph glyph-name="igrave" unicode="&#xec;" horiz-adv-x="269" 
d="M174 659l-38 -59l-207 122l52 81zM196 0h-123v530h123v-530z" />
    <glyph glyph-name="iacute" unicode="&#xed;" horiz-adv-x="269" 
d="M340 722l-206 -122l-39 59l193 144zM196 0h-123v530h123v-530z" />
    <glyph glyph-name="icircumflex" unicode="&#xee;" horiz-adv-x="269" 
d="M26 593l-59 58l131 131h74l131 -131l-61 -58l-107 114zM196 0h-123v530h123v-530z" />
    <glyph glyph-name="idieresis" unicode="&#xef;" horiz-adv-x="269" 
d="M84 608h-100v131h100v-131zM286 608h-101v131h101v-131zM196 0h-123v530h123v-530z" />
    <glyph glyph-name="eth" unicode="&#xf0;" horiz-adv-x="597" 
d="M36 241q0 110 66 176t174 66q38 0 64 -9l3 3l-41 40l-46 56l-128 -47v91l76 28l-78 109h152l47 -65l133 49v-90l-83 -29l78 -107q33 -48 37 -56q14 -21 32 -57q39 -71 39 -155q0 -112 -72 -183q-73 -71 -194 -71q-118 0 -189 68q-70 69 -70 183zM168 279v-69
q0 -53 35.5 -83.5t95.5 -31.5q60 1 95 31.5t35 83.5v69q0 53 -35.5 84t-94.5 31q-60 0 -95.5 -31t-35.5 -84z" />
    <glyph glyph-name="ntilde" unicode="&#xf1;" horiz-adv-x="630" 
d="M443 593q-28 1 -67 18q-39 18 -60 18q-30 0 -56 -35l-51 35q37 87 109 87q27 -2 66 -19q42 -17 61 -17q35 0 57 36l52 -35q-34 -88 -111 -88zM197 0h-124v530h109l15 -98h8q25 52 71 80t105 28q88 0 135.5 -58t47.5 -161v-321h-125v308q0 127 -109 127q-60 0 -96.5 -43
t-36.5 -113v-279z" />
    <glyph glyph-name="ograve" unicode="&#xf2;" horiz-adv-x="593" 
d="M335 658l-38 -59l-207 122l52 81zM36 265q0 128 70 201q71 74 190 74q117 0 189 -73t72 -202q0 -126 -70 -200q-69 -75 -191 -75q-119 0 -190 74q-70 73 -70 201zM162 305v-83q0 -61 37 -95.5t97 -34.5q61 0 97.5 34.5t36.5 95.5v83q0 60 -37 96.5t-97 36.5
q-61 0 -97.5 -36t-36.5 -97z" />
    <glyph glyph-name="oacute" unicode="&#xf3;" horiz-adv-x="593" 
d="M502 721l-206 -122l-39 59l193 144zM36 265q0 128 70 201q71 74 190 74q117 0 189 -73t72 -202q0 -126 -70 -200q-69 -75 -191 -75q-119 0 -190 74q-70 73 -70 201zM162 305v-83q0 -61 37 -95.5t97 -34.5q61 0 97.5 34.5t36.5 95.5v83q0 60 -37 96.5t-97 36.5
q-61 0 -97.5 -36t-36.5 -97z" />
    <glyph glyph-name="ocircumflex" unicode="&#xf4;" horiz-adv-x="593" 
d="M188 593l-59 58l131 131h74l131 -131l-61 -58l-107 114zM36 265q0 128 70 201q71 74 190 74q117 0 189 -73t72 -202q0 -126 -70 -200q-69 -75 -191 -75q-119 0 -190 74q-70 73 -70 201zM162 305v-83q0 -61 37 -95.5t97 -34.5q61 0 97.5 34.5t36.5 95.5v83q0 60 -37 96.5
t-97 36.5q-61 0 -97.5 -36t-36.5 -97z" />
    <glyph glyph-name="otilde" unicode="&#xf5;" horiz-adv-x="593" 
d="M358 593q-28 1 -67 18q-39 18 -60 18q-30 0 -56 -35l-51 35q38 87 109 87q27 -2 66 -19q42 -17 61 -17q34 0 57 36l52 -35q-34 -88 -111 -88zM36 265q0 128 70 201q71 74 190 74q117 0 189 -73t72 -202q0 -126 -70 -200q-69 -75 -191 -75q-119 0 -190 74q-70 73 -70 201z
M162 305v-83q0 -61 37 -95.5t97 -34.5q61 0 97.5 34.5t36.5 95.5v83q0 60 -37 96.5t-97 36.5q-61 0 -97.5 -36t-36.5 -97z" />
    <glyph glyph-name="odieresis" unicode="&#xf6;" horiz-adv-x="593" 
d="M245 608h-100v131h100v-131zM447 608h-101v131h101v-131zM36 265q0 128 70 201q71 74 190 74q117 0 189 -73t72 -202q0 -126 -70 -200q-69 -75 -191 -75q-119 0 -190 74q-70 73 -70 201zM162 305v-83q0 -61 37 -95.5t97 -34.5q61 0 97.5 34.5t36.5 95.5v83q0 60 -37 96.5
t-97 36.5q-61 0 -97.5 -36t-36.5 -97z" />
    <glyph glyph-name="divide" unicode="&#xf7;" horiz-adv-x="653" 
d="M395 425h-140v140h140v-140zM572 239h-492v105h492v-105zM395 21h-140v138h140v-138z" />
    <glyph glyph-name="oslash" unicode="&#xf8;" horiz-adv-x="593" 
d="M543 498l47 -69l-55 -40q22 -56 22 -124q0 -126 -70 -200q-69 -75 -191 -75q-124 0 -195 81l-53 -39l-45 69l55 40q-22 56 -22 124q0 128 70 201q71 74 190 74q124 0 196 -80zM162 305v-83v-4l239 176q-38 44 -105 44q-61 0 -97.5 -36t-36.5 -97zM430 222v83v7l-240 -176
q36 -44 106 -44q61 0 97.5 34.5t36.5 95.5z" />
    <glyph glyph-name="ugrave" unicode="&#xf9;" horiz-adv-x="624" 
d="M348 659l-38 -59l-207 122l52 81zM427 530h124v-530h-108l-16 97h-9q-50 -107 -175 -107q-84 0 -130.5 54.5t-46.5 151.5v334h125v-316q0 -122 103 -122q60 0 96.5 43.5t36.5 115.5v279z" />
    <glyph glyph-name="uacute" unicode="&#xfa;" horiz-adv-x="624" 
d="M514 722l-206 -122l-39 59l193 144zM427 530h124v-530h-108l-16 97h-9q-50 -107 -175 -107q-84 0 -130.5 54.5t-46.5 151.5v334h125v-316q0 -122 103 -122q60 0 96.5 43.5t36.5 115.5v279z" />
    <glyph glyph-name="ucircumflex" unicode="&#xfb;" horiz-adv-x="624" 
d="M200 593l-59 58l131 131h74l131 -131l-61 -58l-107 114zM427 530h124v-530h-108l-16 97h-9q-50 -107 -175 -107q-84 0 -130.5 54.5t-46.5 151.5v334h125v-316q0 -122 103 -122q60 0 96.5 43.5t36.5 115.5v279z" />
    <glyph glyph-name="udieresis" unicode="&#xfc;" horiz-adv-x="624" 
d="M258 608h-100v131h100v-131zM460 608h-101v131h101v-131zM427 530h124v-530h-108l-16 97h-9q-50 -107 -175 -107q-84 0 -130.5 54.5t-46.5 151.5v334h125v-316q0 -122 103 -122q60 0 96.5 43.5t36.5 115.5v279z" />
    <glyph glyph-name="yacute" unicode="&#xfd;" horiz-adv-x="548" 
d="M479 723l-206 -122l-39 59l193 144zM211 68l-217 462h133l69 -166l72 -182h6l76 183l70 165h132l-217 -463v-127q0 -39 -15 -69q-19 -38 -90 -38h-137v99h118v136z" />
    <glyph glyph-name="thorn" unicode="&#xfe;" 
d="M197 -167h-124v906h124v-303h8q25 50 73 77t109 27q102 0 159.5 -72t57.5 -200q0 -129 -57.5 -201t-159.5 -72q-65 0 -112.5 27.5t-69.5 76.5h-8v-266zM343 96q62 0 97.5 33t35.5 92v93q0 58 -34.5 91.5t-97.5 33.5q-67 0 -107 -39.5t-40 -105.5v-53q0 -66 40 -105.5
t106 -39.5z" />
    <glyph glyph-name="ydieresis" unicode="&#xff;" horiz-adv-x="548" 
d="M222 609h-100v131h100v-131zM424 609h-101v131h101v-131zM211 68l-217 462h133l69 -166l72 -182h6l76 183l70 165h132l-217 -463v-127q0 -39 -15 -69q-19 -38 -90 -38h-137v99h118v136z" />
    <glyph glyph-name="Amacron" unicode="&#x100;" horiz-adv-x="691" 
d="M173 891h337v-92h-337v92zM689 0h-143l-51 146h-306l-52 -146h-136l265 729h152zM261 350l-36 -101h234l-35 101l-77 243h-6z" />
    <glyph glyph-name="amacron" unicode="&#x101;" horiz-adv-x="590" 
d="M442 605h-337v92h337v-92zM33 153q0 77 51.5 120.5t141.5 43.5h148v35q0 91 -96 91q-94 0 -102 -80h-122q7 84 67.5 130.5t162.5 46.5q125 0 174 -69q40 -57 40 -121v-262h70v-88h-102q-41 0 -60 14.5t-24 46.5l-1 22h-7q-17 -42 -63.5 -67.5t-107.5 -25.5q-78 0 -124 44
t-46 119zM158 175v-24q0 -32 22.5 -48.5t62.5 -16.5q60 0 95.5 35.5t35.5 93.5v23h-128q-41 0 -64.5 -17.5t-23.5 -45.5z" />
    <glyph glyph-name="Abreve" unicode="&#x102;" horiz-adv-x="691" 
d="M340 790q-70 0 -111.5 42.5t-41.5 110.5h78q0 -39 20.5 -60.5t54.5 -21.5t55 22t21 60h79q0 -69 -42 -111t-113 -42zM689 0h-143l-51 146h-306l-52 -146h-136l265 729h152zM261 350l-36 -101h234l-35 101l-77 243h-6z" />
    <glyph glyph-name="abreve" unicode="&#x103;" horiz-adv-x="590" 
d="M349 748h79q0 -69 -42 -111t-113 -42q-70 0 -111.5 42.5t-41.5 110.5h78q0 -38 20.5 -60t54.5 -22t55 22t21 60zM33 153q0 77 51.5 120.5t141.5 43.5h148v35q0 91 -96 91q-94 0 -102 -80h-122q7 84 67.5 130.5t162.5 46.5q125 0 174 -69q40 -57 40 -121v-262h70v-88h-102
q-41 0 -60 14.5t-24 46.5l-1 22h-7q-17 -42 -63.5 -67.5t-107.5 -25.5q-78 0 -124 44t-46 119zM158 175v-24q0 -32 22.5 -48.5t62.5 -16.5q60 0 95.5 35.5t35.5 93.5v23h-128q-41 0 -64.5 -17.5t-23.5 -45.5z" />
    <glyph glyph-name="Aogonek" unicode="&#x104;" horiz-adv-x="691" 
d="M664 -126q27 0 54 12v-66q-33 -15 -77 -15q-51 1 -81.5 28.5t-30.5 72.5q0 58 49 94h-32l-51 146h-306l-52 -146h-136l265 729h152l271 -729q-85 -19 -85 -79q0 -47 60 -47zM261 350l-36 -101h234l-35 101l-77 243h-6z" />
    <glyph glyph-name="aogonek" unicode="&#x105;" horiz-adv-x="590" 
d="M535 -126q27 0 54 12v-66q-33 -15 -77 -15q-51 1 -81.5 28.5t-30.5 72.5q0 57 50 95q-61 5 -68 60l-1 22h-7q-17 -42 -63.5 -67.5t-107.5 -25.5q-78 0 -124 44t-46 119q0 77 51.5 120.5t141.5 43.5h148v35q0 91 -96 91q-94 0 -102 -80h-122q7 84 67.5 130.5t162.5 46.5
q125 0 174 -69q40 -57 40 -121v-262h70v-88h-8q-85 -19 -85 -79q0 -47 60 -47zM374 215v23h-128q-41 0 -64.5 -17.5t-23.5 -45.5v-24q0 -32 22.5 -48.5t62.5 -16.5q60 0 95.5 35.5t35.5 93.5z" />
    <glyph glyph-name="Cacute" unicode="&#x106;" horiz-adv-x="753" 
d="M583 916l-206 -122l-39 59l193 144zM378 -10q-159 0 -249 99q-90 101 -90 274q0 176 91 276t256 100q138 0 226 -72q88 -70 100 -191h-137q-12 68 -62.5 107t-130.5 39q-93 0 -149 -54t-56 -147v-119q0 -87 55 -142q56 -54 148 -54q75 0 127.5 39.5t67.5 107.5h137
q-16 -121 -107 -192t-227 -71z" />
    <glyph glyph-name="cacute" unicode="&#x107;" horiz-adv-x="568" 
d="M501 721l-206 -122l-39 59l193 144zM413 189h123q-11 -93 -76.5 -146t-167.5 -53q-120 0 -188 73.5t-68 200.5q0 130 70 203t189 73q98 0 163 -53t77 -141h-123q-9 44 -41 68t-80 24q-59 0 -94 -37t-35 -97v-85q0 -59 35 -93t94 -34q49 0 81.5 26t40.5 71z" />
    <glyph glyph-name="Cdotaccent" unicode="&#x10a;" horiz-adv-x="753" 
d="M428 802h-100v131h100v-131zM378 -10q-159 0 -249 99q-90 101 -90 274q0 176 91 276t256 100q138 0 226 -72q88 -70 100 -191h-137q-12 68 -62.5 107t-130.5 39q-93 0 -149 -54t-56 -147v-119q0 -87 55 -142q56 -54 148 -54q75 0 127.5 39.5t67.5 107.5h137
q-16 -121 -107 -192t-227 -71z" />
    <glyph glyph-name="cdotaccent" unicode="&#x10b;" horiz-adv-x="568" 
d="M346 608h-100v131h100v-131zM413 189h123q-11 -93 -76.5 -146t-167.5 -53q-120 0 -188 73.5t-68 200.5q0 130 70 203t189 73q98 0 163 -53t77 -141h-123q-9 44 -41 68t-80 24q-59 0 -94 -37t-35 -97v-85q0 -59 35 -93t94 -34q49 0 81.5 26t40.5 71z" />
    <glyph glyph-name="Ccaron" unicode="&#x10c;" horiz-adv-x="753" 
d="M340 777l-131 133l60 57l108 -115l107 115l61 -57l-131 -133h-74zM378 -10q-159 0 -249 99q-90 101 -90 274q0 176 91 276t256 100q138 0 226 -72q88 -70 100 -191h-137q-12 68 -62.5 107t-130.5 39q-93 0 -149 -54t-56 -147v-119q0 -87 55 -142q56 -54 148 -54
q75 0 127.5 39.5t67.5 107.5h137q-16 -121 -107 -192t-227 -71z" />
    <glyph glyph-name="ccaron" unicode="&#x10d;" horiz-adv-x="568" 
d="M258 583l-131 133l60 57l108 -115l107 115l61 -57l-131 -133h-74zM413 189h123q-11 -93 -76.5 -146t-167.5 -53q-120 0 -188 73.5t-68 200.5q0 130 70 203t189 73q98 0 163 -53t77 -141h-123q-9 44 -41 68t-80 24q-59 0 -94 -37t-35 -97v-85q0 -59 35 -93t94 -34
q49 0 81.5 26t40.5 71z" />
    <glyph glyph-name="Dcaron" unicode="&#x10e;" horiz-adv-x="750" 
d="M332 777l-131 133l60 57l108 -115l107 115l61 -57l-131 -133h-74zM392 0h-304v729h304q163 0 241 -91.5t78 -273.5q0 -364 -319 -364zM218 614v-499h171q98 0 141 44.5t43 143.5v123q0 100 -44.5 144t-139.5 44h-171z" />
    <glyph glyph-name="dcaron" unicode="&#x10f;" 
d="M252 -10q-101 0 -158.5 72t-57.5 200q0 129 57 201t159 72q134 0 182 -104h8v308h125v-739h-110l-15 94h-8q-25 -50 -73 -77t-109 -27zM628 517v41q40 0 55.5 16t15.5 46l1 2h-61v117h118v-113q0 -53 -34 -81t-95 -28zM295 91q68 0 107.5 39.5t39.5 105.5v53
q0 66 -39.5 105.5t-106.5 39.5q-62 0 -97.5 -33t-35.5 -92v-93q0 -58 35 -91.5t97 -33.5z" />
    <glyph glyph-name="Dcroat" unicode="&#x110;" horiz-adv-x="750" 
d="M88 729h304q163 0 241 -91.5t78 -273.5q0 -364 -319 -364h-304v325h-90v103h90v301zM573 303v123q0 100 -44.5 144t-139.5 44h-171v-186h119v-103h-119v-210h171q98 0 141 44.5t43 143.5z" />
    <glyph glyph-name="dslash" unicode="&#x111;" 
d="M567 651h100v-88h-100v-563h-110l-15 94h-8q-25 -50 -73 -77t-109 -27q-101 0 -158.5 72t-57.5 200q0 129 57 201t159 72q134 0 182 -104h8v132h-130v88h130v88h125v-88zM442 236v53q0 66 -39.5 105.5t-106.5 39.5q-62 0 -97.5 -33t-35.5 -92v-93q0 -58 35 -91.5
t97 -33.5q68 0 107.5 39.5t39.5 105.5z" />
    <glyph glyph-name="Emacron" unicode="&#x112;" horiz-adv-x="643" 
d="M501 799h-337v92h337v-92zM590 0h-502v729h502v-115h-372v-183h322v-108h-322v-208h372v-115z" />
    <glyph glyph-name="emacron" unicode="&#x113;" horiz-adv-x="574" 
d="M459 605h-337v92h337v-92zM36 266q0 128 68.5 201t186.5 73q110 0 177 -65q67 -64 67 -178q0 -39 -4 -60h-368v-29q0 -55 35.5 -88t93.5 -33q46 0 79 21t44 55h123q-17 -79 -83 -126q-68 -47 -163 -47q-120 0 -188 74q-68 76 -68 202zM163 332v-10h248v14
q0 49 -33.5 78.5t-88.5 29.5q-56 0 -91 -31t-35 -81z" />
    <glyph glyph-name="Edotaccent" unicode="&#x116;" horiz-adv-x="643" 
d="M384 802h-100v131h100v-131zM590 0h-502v729h502v-115h-372v-183h322v-108h-322v-208h372v-115z" />
    <glyph glyph-name="edotaccent" unicode="&#x117;" horiz-adv-x="574" 
d="M341 608h-100v131h100v-131zM36 266q0 128 68.5 201t186.5 73q110 0 177 -65q67 -64 67 -178q0 -39 -4 -60h-368v-29q0 -55 35.5 -88t93.5 -33q46 0 79 21t44 55h123q-17 -79 -83 -126q-68 -47 -163 -47q-120 0 -188 74q-68 76 -68 202zM163 332v-10h248v14
q0 49 -33.5 78.5t-88.5 29.5q-56 0 -91 -31t-35 -81z" />
    <glyph glyph-name="Eogonek" unicode="&#x118;" horiz-adv-x="643" 
d="M565 -126q27 0 54 12v-66q-33 -15 -77 -15q-51 1 -81.5 28.5t-30.5 72.5q0 58 49 94h-391v729h502v-115h-372v-183h322v-108h-322v-208h372v-115q-85 -19 -85 -79q0 -47 60 -47z" />
    <glyph glyph-name="eogonek" unicode="&#x119;" horiz-adv-x="574" 
d="M415 163h123q-14 -68 -66 -113t-130 -56l3 -4q-85 -19 -85 -79q0 -47 60 -47q27 0 54 12v-66q-33 -15 -77 -15q-51 1 -81.5 28.5t-30.5 72.5q0 61 55 98q-96 16 -150 88t-54 184q0 128 68.5 201t186.5 73q110 0 177 -65q67 -64 67 -178q0 -39 -4 -60h-368v-29
q0 -55 35.5 -88t93.5 -33q46 0 79 21t44 55zM163 332v-10h248v14q0 49 -33.5 78.5t-88.5 29.5q-56 0 -91 -31t-35 -81z" />
    <glyph glyph-name="Ecaron" unicode="&#x11a;" horiz-adv-x="643" 
d="M296 777l-131 133l60 57l108 -115l107 115l61 -57l-131 -133h-74zM590 0h-502v729h502v-115h-372v-183h322v-108h-322v-208h372v-115z" />
    <glyph glyph-name="ecaron" unicode="&#x11b;" horiz-adv-x="574" 
d="M254 583l-131 133l60 57l108 -115l107 115l61 -57l-131 -133h-74zM36 266q0 128 68.5 201t186.5 73q110 0 177 -65q67 -64 67 -178q0 -39 -4 -60h-368v-29q0 -55 35.5 -88t93.5 -33q46 0 79 21t44 55h123q-17 -79 -83 -126q-68 -47 -163 -47q-120 0 -188 74
q-68 76 -68 202zM163 332v-10h248v14q0 49 -33.5 78.5t-88.5 29.5q-56 0 -91 -31t-35 -81z" />
    <glyph glyph-name="Gbreve" unicode="&#x11e;" horiz-adv-x="795" 
d="M463 943h79q0 -69 -42 -111t-113 -42q-70 0 -111.5 42.5t-41.5 110.5h78q0 -39 20.5 -60.5t54.5 -21.5t55 22t21 60zM39 357q0 182 95 282q94 99 252 99q127 0 214 -63t104 -167h-136q-14 53 -62 83.5t-117 30.5q-95 0 -154 -56q-58 -55 -58 -150v-114q0 -90 55 -145
q56 -56 147 -56q85 0 141 51t60 136h-228v106h372v-394h-107l-9 110h-7q-35 -58 -98.5 -89t-144.5 -31q-149 0 -235 98q-84 98 -84 269z" />
    <glyph glyph-name="gbreve" unicode="&#x11f;" horiz-adv-x="546" 
d="M226 595q-71 0 -112.5 42.5t-41.5 111.5h79q0 -39 20.5 -60.5t54.5 -21.5q35 0 55.5 21.5t20.5 60.5h79q0 -70 -42 -112t-113 -42zM232 118h127q81 0 126.5 -38.5t45.5 -104.5q0 -81 -70.5 -121.5t-200.5 -40.5q-116 0 -174.5 32.5t-58.5 92.5q0 81 80 104v8
q-25 9 -40 30t-15 47q0 32 20.5 56.5t54.5 35.5v7q-80 47 -80 140q0 78 57 126q58 48 150 48q50 0 90 -14v18q0 79 92 79h83v-99h-99v-39q53 -47 53 -123q0 -78 -57 -125q-58 -47 -148 -47q-35 0 -69 8q-34 -10 -34 -41q0 -39 67 -39zM169 380v-30q0 -34 25 -54t66 -20
t66.5 20t25.5 54v30q0 33 -25 53.5t-67 20.5q-41 0 -66 -20t-25 -54zM269 -97q138 0 138 67q0 49 -65 49h-128q-71 0 -71 -54q0 -62 126 -62z" />
    <glyph glyph-name="Gdotaccent" unicode="&#x120;" horiz-adv-x="795" 
d="M439 802h-100v131h100v-131zM39 357q0 182 95 282q94 99 252 99q127 0 214 -63t104 -167h-136q-14 53 -62 83.5t-117 30.5q-95 0 -154 -56q-58 -55 -58 -150v-114q0 -90 55 -145q56 -56 147 -56q85 0 141 51t60 136h-228v106h372v-394h-107l-9 110h-7q-35 -58 -98.5 -89
t-144.5 -31q-149 0 -235 98q-84 98 -84 269z" />
    <glyph glyph-name="gdotaccent" unicode="&#x121;" horiz-adv-x="546" 
d="M204 739h100v-131h-100v131zM232 118h127q81 0 126.5 -38.5t45.5 -104.5q0 -81 -70.5 -121.5t-200.5 -40.5q-116 0 -174.5 32.5t-58.5 92.5q0 81 80 104v8q-25 9 -40 30t-15 47q0 32 20.5 56.5t54.5 35.5v7q-80 47 -80 140q0 78 57 126q58 48 150 48q50 0 90 -14v18
q0 79 92 79h83v-99h-99v-39q53 -47 53 -123q0 -78 -57 -125q-58 -47 -148 -47q-35 0 -69 8q-34 -10 -34 -41q0 -39 67 -39zM169 380v-30q0 -34 25 -54t66 -20t66.5 20t25.5 54v30q0 33 -25 53.5t-67 20.5q-41 0 -66 -20t-25 -54zM269 -97q138 0 138 67q0 49 -65 49h-128
q-71 0 -71 -54q0 -62 126 -62z" />
    <glyph glyph-name="uni0122" unicode="&#x122;" horiz-adv-x="795" 
d="M39 357q0 182 95 282q94 99 252 99q127 0 214 -63t104 -167h-136q-14 53 -62 83.5t-117 30.5q-95 0 -154 -56q-58 -55 -58 -150v-114q0 -90 55 -145q56 -56 147 -56q85 0 141 51t60 136h-228v106h372v-394h-107l-9 110h-7q-35 -58 -98.5 -89t-144.5 -31q-149 0 -235 98
q-84 98 -84 269zM337 -257v36q22 0 34.5 14t12.5 37v7h-47v110h103v-96q0 -52 -27.5 -80t-75.5 -28z" />
    <glyph glyph-name="uni0123" unicode="&#x123;" horiz-adv-x="546" 
d="M258 716h47v-109h-103v92q0 53 27.5 82.5t75.5 29.5v-37q-22 0 -34.5 -13.5t-12.5 -37.5v-7zM232 118h127q81 0 126.5 -38.5t45.5 -104.5q0 -81 -70.5 -121.5t-200.5 -40.5q-116 0 -174.5 32.5t-58.5 92.5q0 81 80 104v8q-25 9 -40 30t-15 47q0 32 20.5 56.5t54.5 35.5v7
q-80 47 -80 140q0 78 57 126q58 48 150 48q50 0 90 -14v18q0 79 92 79h83v-99h-99v-39q53 -47 53 -123q0 -78 -57 -125q-58 -47 -148 -47q-35 0 -69 8q-34 -10 -34 -41q0 -39 67 -39zM169 380v-30q0 -34 25 -54t66 -20t66.5 20t25.5 54v30q0 33 -25 53.5t-67 20.5
q-41 0 -66 -20t-25 -54zM269 -97q138 0 138 67q0 49 -65 49h-128q-71 0 -71 -54q0 -62 126 -62z" />
    <glyph glyph-name="Hbar" unicode="&#x126;" horiz-adv-x="805" 
d="M717 645h92v-94h-92v-551h-131v319h-368v-319h-130v551h-69v94h69v84h130v-84h368v84h131v-84zM218 425h368v126h-368v-126z" />
    <glyph glyph-name="hbar" unicode="&#x127;" horiz-adv-x="630" 
d="M381 540q88 0 135.5 -57.5t47.5 -160.5v-322h-125v309q0 129 -109 129q-60 0 -96.5 -43t-36.5 -113v-282h-124v563h-89v88h89v88h124v-88h142v-88h-142v-129h8q24 51 70 78.5t106 27.5z" />
    <glyph glyph-name="Imacron" unicode="&#x12a;" horiz-adv-x="306" 
d="M322 799h-337v92h337v-92zM218 729v-729h-130v729h130z" />
    <glyph glyph-name="imacron" unicode="&#x12b;" horiz-adv-x="269" 
d="M303 605h-337v92h337v-92zM196 0h-123v530h123v-530z" />
    <glyph glyph-name="Iogonek" unicode="&#x12e;" horiz-adv-x="306" 
d="M192 -126q27 0 54 12v-66q-33 -15 -77 -15q-51 1 -81.5 28.5t-30.5 72.5q0 58 49 94h-18v729h130v-729h-1q-85 -19 -85 -79q0 -47 60 -47z" />
    <glyph glyph-name="iogonek" unicode="&#x12f;" horiz-adv-x="269" 
d="M85 739h100v-131h-100v131zM162 -126q27 0 54 12v-66q-33 -15 -77 -15q-51 1 -81.5 28.5t-30.5 72.5q0 58 49 94h-3v530h123v-530h-9q-85 -19 -85 -79q0 -47 60 -47z" />
    <glyph glyph-name="Idot" unicode="&#x130;" horiz-adv-x="306" 
d="M214 802h-121v131h121v-131zM218 729v-729h-130v729h130z" />
    <glyph glyph-name="dotlessi" unicode="&#x131;" horiz-adv-x="269" 
d="M196 0h-123v530h123v-530z" />
    <glyph glyph-name="Jcircumflex" unicode="&#x134;" horiz-adv-x="407" 
d="M222 976h74l131 -131l-61 -58l-107 114l-109 -114l-59 58zM195 115v614h130v-622q0 -28 -8 -51q-17 -56 -99 -56h-202v115h179z" />
    <glyph glyph-name="jcircumflex" unicode="&#x135;" horiz-adv-x="277" 
d="M106 777h74l131 -131l-61 -58l-107 114l-109 -114l-59 58zM81 -69v599h123v-590q0 -30 -7 -50q-18 -57 -100 -57h-127v98h111z" />
    <glyph glyph-name="uni0136" unicode="&#x136;" horiz-adv-x="701" 
d="M688 729l-264 -317l274 -412h-158l-205 307l-117 -141v-166h-130v729h130v-380l311 380h159zM366 -163h-47v110h103v-96q0 -52 -27.5 -80t-75.5 -28v36q22 0 34.5 14t12.5 37v7z" />
    <glyph glyph-name="uni0137" unicode="&#x137;" horiz-adv-x="583" 
d="M563 530l-201 -206l211 -324h-142l-155 236l-78 -80v-156h-125v739h125v-429l210 220h155zM298 -163h-47v110h103v-96q0 -52 -27.5 -80t-75.5 -28v36q22 0 34.5 14t12.5 37v7z" />
    <glyph glyph-name="Lacute" unicode="&#x139;" horiz-adv-x="572" 
d="M359 916l-206 -122l-39 59l193 144zM536 0h-448v729h130v-612h318v-117z" />
    <glyph glyph-name="lacute" unicode="&#x13a;" horiz-adv-x="269" 
d="M341 926l-206 -122l-39 59l193 144zM196 0h-123v739h123v-739z" />
    <glyph glyph-name="uni013B" unicode="&#x13b;" horiz-adv-x="572" 
d="M536 0h-448v729h130v-612h318v-117zM261 -257v36q22 0 34.5 14t12.5 37v7h-47v110h103v-96q0 -52 -27.5 -80t-75.5 -28z" />
    <glyph glyph-name="uni013C" unicode="&#x13c;" horiz-adv-x="269" 
d="M196 0h-123v739h123v-739zM83 -257v36q22 0 34.5 14t12.5 37v7h-47v110h103v-96q0 -52 -27.5 -80t-75.5 -28z" />
    <glyph glyph-name="Lcaron" unicode="&#x13d;" horiz-adv-x="572" 
d="M318 464v45q40 0 56 17t16 51v26h-61v130h119v-148q0 -60 -34 -90.5t-96 -30.5zM536 0h-448v729h130v-612h318v-117z" />
    <glyph glyph-name="lcaron" unicode="&#x13e;" horiz-adv-x="269" 
d="M98 787l-131 133l60 57l108 -115l107 115l61 -57l-131 -133h-74zM196 0h-123v739h123v-739z" />
    <glyph glyph-name="Ldot" unicode="&#x13f;" horiz-adv-x="572" 
d="M536 0h-448v729h130v-612h318v-117zM320 421q0 36 23 59t58 23q36 0 59.5 -23t23.5 -59q0 -35 -23.5 -57.5t-59.5 -22.5q-35 0 -58 22.5t-23 57.5z" />
    <glyph glyph-name="ldot" unicode="&#x140;" horiz-adv-x="459" 
d="M196 0h-123v739h123v-739zM279 388q0 36 23.5 59t58.5 23t58.5 -23t23.5 -59q0 -35 -23.5 -58t-58.5 -23t-58.5 23t-23.5 58z" />
    <glyph glyph-name="Lslash" unicode="&#x141;" horiz-adv-x="573" 
d="M220 356v-239h317v-117h-448v310l-71 -25v113l71 25v306h131v-260l171 61v-113z" />
    <glyph glyph-name="lslash" unicode="&#x142;" horiz-adv-x="269" 
d="M196 506l63 24v-112l-63 -24v-394h-123v349l-63 -24v112l63 24v278h123v-233z" />
    <glyph glyph-name="Nacute" unicode="&#x143;" horiz-adv-x="791" 
d="M614 916l-206 -122l-39 59l193 144zM218 0h-130v729h154l334 -551h6l-8 214v337h130v-729h-155l-332 549h-6l7 -207v-342z" />
    <glyph glyph-name="nacute" unicode="&#x144;" horiz-adv-x="630" 
d="M587 721l-206 -122l-39 59l193 144zM197 0h-124v530h109l15 -98h8q25 52 71 80t105 28q88 0 135.5 -58t47.5 -161v-321h-125v308q0 127 -109 127q-60 0 -96.5 -43t-36.5 -113v-279z" />
    <glyph glyph-name="uni0145" unicode="&#x145;" horiz-adv-x="791" 
d="M218 0h-130v729h154l334 -551h6l-8 214v337h130v-729h-155l-332 549h-6l7 -207v-342zM329 -219v36q22 0 34.5 14t12.5 37v7h-47v110h103v-96q0 -52 -27.5 -80t-75.5 -28z" />
    <glyph glyph-name="uni0146" unicode="&#x146;" horiz-adv-x="630" 
d="M197 0h-124v530h109l15 -98h8q25 52 71 80t105 28q88 0 135.5 -58t47.5 -161v-321h-125v308q0 127 -109 127q-60 0 -96.5 -43t-36.5 -113v-279zM267 -257v36q22 0 34.5 14t12.5 37v7h-47v110h103v-96q0 -52 -27.5 -80t-75.5 -28z" />
    <glyph glyph-name="Ncaron" unicode="&#x147;" horiz-adv-x="791" 
d="M372 777l-131 133l60 57l108 -115l107 115l61 -57l-131 -133h-74zM218 0h-130v729h154l334 -551h6l-8 214v337h130v-729h-155l-332 549h-6l7 -207v-342z" />
    <glyph glyph-name="ncaron" unicode="&#x148;" horiz-adv-x="630" 
d="M344 583l-131 133l60 57l108 -115l107 115l61 -57l-131 -133h-74zM197 0h-124v530h109l15 -98h8q25 52 71 80t105 28q88 0 135.5 -58t47.5 -161v-321h-125v308q0 127 -109 127q-60 0 -96.5 -43t-36.5 -113v-279z" />
    <glyph glyph-name="Eng" unicode="&#x14a;" horiz-adv-x="791" 
d="M574 392v337h130v-791q0 -34 -13 -63q-19 -42 -94 -42h-127v87h110v80h-31l-332 549h-6l7 -207v-342h-130v729h154l334 -551h6z" />
    <glyph glyph-name="eng" unicode="&#x14b;" horiz-adv-x="630" 
d="M381 540q88 0 135.5 -58t47.5 -161v-381q0 -30 -7 -50q-18 -57 -100 -57h-127v89h109v386q0 127 -109 127q-60 0 -96.5 -43t-36.5 -113v-279h-124v530h109l15 -98h8q25 52 71 80t105 28z" />
    <glyph glyph-name="Omacron" unicode="&#x14c;" horiz-adv-x="776" 
d="M555 799h-337v92h337v-92zM39 363q0 175 93 275q94 100 256 100t255 -101q94 -100 94 -274q0 -173 -93 -274q-93 -99 -256 -99t-256 99q-93 101 -93 274zM177 416v-103q0 -97 57 -152t154 -55q99 0 154.5 55.5t55.5 151.5v103q0 97 -56.5 151.5t-153.5 54.5
q-99 0 -155 -55.5t-56 -150.5z" />
    <glyph glyph-name="omacron" unicode="&#x14d;" horiz-adv-x="593" 
d="M465 605h-337v92h337v-92zM36 265q0 128 70 201q71 74 190 74q117 0 189 -73t72 -202q0 -126 -70 -200q-69 -75 -191 -75q-119 0 -190 74q-70 73 -70 201zM162 305v-83q0 -61 37 -95.5t97 -34.5q61 0 97.5 34.5t36.5 95.5v83q0 60 -37 96.5t-97 36.5q-61 0 -97.5 -36
t-36.5 -97z" />
    <glyph glyph-name="Ohungarumlaut" unicode="&#x150;" horiz-adv-x="776" 
d="M479 898l-198 -129l-40 57l185 151zM697 891l-204 -122l-37 58l189 144zM39 363q0 175 93 275q94 100 256 100t255 -101q94 -100 94 -274q0 -173 -93 -274q-93 -99 -256 -99t-256 99q-93 101 -93 274zM177 416v-103q0 -97 57 -152t154 -55q99 0 154.5 55.5t55.5 151.5
v103q0 97 -56.5 151.5t-153.5 54.5q-99 0 -155 -55.5t-56 -150.5z" />
    <glyph glyph-name="ohungarumlaut" unicode="&#x151;" horiz-adv-x="593" 
d="M389 704l-198 -129l-40 57l185 151zM607 697l-204 -122l-37 58l189 144zM36 265q0 128 70 201q71 74 190 74q117 0 189 -73t72 -202q0 -126 -70 -200q-69 -75 -191 -75q-119 0 -190 74q-70 73 -70 201zM162 305v-83q0 -61 37 -95.5t97 -34.5q61 0 97.5 34.5t36.5 95.5v83
q0 60 -37 96.5t-97 36.5q-61 0 -97.5 -36t-36.5 -97z" />
    <glyph glyph-name="OE" unicode="&#x152;" horiz-adv-x="971" 
d="M39 364q0 179 90.5 272t271.5 93h517v-115h-371v-183h321v-108h-321v-208h371v-115h-517q-179 0 -270.5 94.5t-91.5 269.5zM176 413v-94q0 -95 58.5 -149.5t156.5 -54.5h25v499h-25q-102 0 -158.5 -52.5t-56.5 -148.5z" />
    <glyph glyph-name="oe" unicode="&#x153;" horiz-adv-x="977" 
d="M818 163h123q-15 -78 -82 -126q-68 -47 -164 -47q-129 0 -198 86q-69 -86 -201 -86q-119 0 -190 74q-70 73 -70 201t70 201q71 74 190 74q129 0 201 -86q68 86 197 86q110 0 177 -65q67 -64 67 -178q0 -39 -4 -60h-368v-29q0 -55 35.5 -88t94.5 -33q45 0 78 21t44 55z
M566 332v-10h248v14q0 49 -33.5 78.5t-87.5 29.5q-57 0 -92 -31t-35 -81zM430 222v83q0 60 -37 96.5t-97 36.5q-61 0 -97.5 -36t-36.5 -97v-83q0 -61 37 -95.5t97 -34.5q61 0 97.5 34.5t36.5 95.5z" />
    <glyph glyph-name="Racute" unicode="&#x154;" horiz-adv-x="737" 
d="M585 916l-206 -122l-39 59l193 144zM218 0h-130v729h364q106 0 161.5 -57t55.5 -158q0 -65 -29.5 -111t-80.5 -64v-7h33q79 0 79 -85v-247h-134v268h-319v-268zM218 615v-240h202q51 0 80.5 25t29.5 68v55q0 45 -29 68.5t-81 23.5h-202z" />
    <glyph glyph-name="racute" unicode="&#x155;" horiz-adv-x="372" 
d="M375 803l52 -81l-206 -122l-39 59zM73 0v424q0 40 17 70q20 36 90 36h182v-101h-165v-429h-124z" />
    <glyph glyph-name="uni0156" unicode="&#x156;" horiz-adv-x="737" 
d="M218 0h-130v729h364q106 0 161.5 -57t55.5 -158q0 -65 -29.5 -111t-80.5 -64v-7h33q79 0 79 -85v-247h-134v268h-319v-268zM218 615v-240h202q51 0 80.5 25t29.5 68v55q0 45 -29 68.5t-81 23.5h-202zM338 -257v36q22 0 34.5 14t12.5 37v7h-47v110h103v-96
q0 -52 -27.5 -80t-75.5 -28z" />
    <glyph glyph-name="uni0157" unicode="&#x157;" horiz-adv-x="372" 
d="M180 530h182v-101h-165v-429h-124v424q0 40 17 70q20 36 90 36zM130 -163h-47v110h103v-96q0 -52 -27.5 -80t-75.5 -28v36q22 0 34.5 14t12.5 37v7z" />
    <glyph glyph-name="Rcaron" unicode="&#x158;" horiz-adv-x="737" 
d="M342 777l-131 133l60 57l108 -115l107 115l61 -57l-131 -133h-74zM218 0h-130v729h364q106 0 161.5 -57t55.5 -158q0 -65 -29.5 -111t-80.5 -64v-7h33q79 0 79 -85v-247h-134v268h-319v-268zM218 615v-240h202q51 0 80.5 25t29.5 68v55q0 45 -29 68.5t-81 23.5h-202z" />
    <glyph glyph-name="rcaron" unicode="&#x159;" horiz-adv-x="372" 
d="M389 716l-131 -133h-74l-131 133l60 57l108 -115l107 115zM73 0v424q0 40 17 70q20 36 90 36h182v-101h-165v-429h-124z" />
    <glyph glyph-name="Sacute" unicode="&#x15a;" horiz-adv-x="672" 
d="M538 916l-206 -122l-39 59l193 144zM39 227h135q2 -63 46 -97.5t120 -34.5q68 0 107 28.5t39 79.5q0 40 -26 64q-9 8 -27 16q-22 11 -49 16l-119 26q-10 2 -26.5 5.5t-22.5 5.5q-15 4 -52 21q-38 18 -55 34q-22 21 -38 56.5t-16 75.5q0 98 74 157q76 59 197 59
q123 0 197 -58q77 -59 78 -157h-135q-3 53 -41 82t-101 29q-62 0 -96 -25t-34 -70q0 -33 27 -60q14 -10 30 -16q38 -13 56 -16l128 -26q190 -40 190 -204q0 -108 -79 -168q-80 -60 -211 -60q-139 0 -219 66q-78 68 -77 171z" />
    <glyph glyph-name="sacute" unicode="&#x15b;" horiz-adv-x="519" 
d="M461 721l-206 -122l-39 59l193 144zM35 164h122q1 -39 29 -61t76 -22q45 0 70 18t25 50q0 49 -61 59l-103 19q-149 26 -149 147q0 77 57.5 121.5t154.5 44.5q98 0 155 -44.5t59 -120.5h-123q-1 36 -25 55.5t-67 19.5q-42 0 -64.5 -17t-22.5 -47q0 -50 75 -61l97 -17
q145 -22 145 -148q0 -80 -60 -125t-163 -45q-106 0 -166.5 47.5t-60.5 126.5z" />
    <glyph glyph-name="Scedilla" unicode="&#x15e;" horiz-adv-x="672" 
d="M625 218q0 -103 -72 -163q-73 -60 -194 -64l-19 -32q35 0 60 -20t25 -55q0 -44 -34 -69t-76.5 -23.5t-79.5 16.5v63q30 -25 71 -20q40 4 40 39q0 22 -22.5 30t-53.5 -4v31l27 44q-124 11 -191 75q-68 65 -67 161h135q2 -63 46 -97.5t120 -34.5q68 0 107 28.5t39 79.5
q0 40 -26 64q-9 8 -27 16q-22 11 -49 16l-119 26q-10 2 -26.5 5.5t-22.5 5.5q-15 4 -52 21q-38 18 -55 34q-22 21 -38 56.5t-16 75.5q0 98 74 157q76 59 197 59q123 0 197 -58q77 -59 78 -157h-135q-3 53 -41 82t-101 29q-62 0 -96 -25t-34 -70q0 -33 27 -60q14 -10 30 -16
q38 -13 56 -16l128 -26q190 -40 190 -204z" />
    <glyph glyph-name="scedilla" unicode="&#x15f;" horiz-adv-x="519" 
d="M485 160q0 -74 -53.5 -119t-146.5 -50l-25 -42q33 0 59 -20t26 -55q0 -44 -34 -69t-76.5 -23.5t-79.5 16.5v63q30 -25 71 -20q40 4 40 39q0 22 -22 30t-54 -4v31l33 55q-89 9 -138.5 54.5t-49.5 117.5h122q1 -39 29 -61t76 -22q45 0 70 18t25 50q0 49 -61 59l-103 19
q-149 26 -149 147q0 77 57.5 121.5t154.5 44.5q98 0 155 -44.5t59 -120.5h-123q-1 36 -25 55.5t-67 19.5q-42 0 -64.5 -17t-22.5 -47q0 -50 75 -61l97 -17q145 -22 145 -148z" />
    <glyph glyph-name="Scaron" unicode="&#x160;" horiz-adv-x="672" 
d="M296 777l-131 133l60 57l108 -115l107 115l61 -57l-131 -133h-74zM39 227h135q2 -63 46 -97.5t120 -34.5q68 0 107 28.5t39 79.5q0 40 -26 64q-9 8 -27 16q-22 11 -49 16l-119 26q-10 2 -26.5 5.5t-22.5 5.5q-15 4 -52 21q-38 18 -55 34q-22 21 -38 56.5t-16 75.5
q0 98 74 157q76 59 197 59q123 0 197 -58q77 -59 78 -157h-135q-3 53 -41 82t-101 29q-62 0 -96 -25t-34 -70q0 -33 27 -60q14 -10 30 -16q38 -13 56 -16l128 -26q190 -40 190 -204q0 -108 -79 -168q-80 -60 -211 -60q-139 0 -219 66q-78 68 -77 171z" />
    <glyph glyph-name="scaron" unicode="&#x161;" horiz-adv-x="519" 
d="M218 583l-131 133l60 57l108 -115l107 115l61 -57l-131 -133h-74zM35 164h122q1 -39 29 -61t76 -22q45 0 70 18t25 50q0 49 -61 59l-103 19q-149 26 -149 147q0 77 57.5 121.5t154.5 44.5q98 0 155 -44.5t59 -120.5h-123q-1 36 -25 55.5t-67 19.5q-42 0 -64.5 -17
t-22.5 -47q0 -50 75 -61l97 -17q145 -22 145 -148q0 -80 -60 -125t-163 -45q-106 0 -166.5 47.5t-60.5 126.5z" />
    <glyph glyph-name="uni0162" unicode="&#x162;" horiz-adv-x="566" 
d="M348 614v-614h-45l-24 -41q35 0 60 -20t25 -55q0 -44 -34 -69t-76.5 -23.5t-79.5 16.5v63q30 -25 71 -20q40 4 40 39q0 22 -22.5 30t-53.5 -4v31l32 53h-24v614h-211v115h554v-115h-212z" />
    <glyph glyph-name="uni0163" unicode="&#x163;" horiz-adv-x="372" 
d="M336 429h-108v-330h108v-99h-92l-24 -41q33 0 59 -20t26 -55q0 -44 -34 -69t-76.5 -23.5t-79.5 16.5v63q30 -25 71 -20q40 4 40 39q0 22 -22 30t-54 -4v31l33 54q-78 10 -78 98v330h-95v101h95v170h123v-170h108v-101z" />
    <glyph glyph-name="Tcaron" unicode="&#x164;" horiz-adv-x="566" 
d="M452 910l-131 -133h-74l-131 133l60 57l108 -115l107 115zM6 729h554v-115h-212v-614h-131v614h-211v115z" />
    <glyph glyph-name="tcaron" unicode="&#x165;" horiz-adv-x="372" 
d="M334 882l-131 -133h-74l-131 133l60 57l108 -115l107 115zM336 429h-108v-330h108v-99h-130q-101 0 -101 99v330h-95v101h95v170h123v-170h108v-101z" />
    <glyph glyph-name="Tbar" unicode="&#x166;" horiz-adv-x="566" 
d="M560 729v-115h-212v-181h163v-109h-163v-324h-131v324h-146v109h146v181h-211v115h554z" />
    <glyph glyph-name="tbar" unicode="&#x167;" horiz-adv-x="372" 
d="M337 233h-109v-134h108v-99h-130q-101 0 -101 99v134h-96v102h96v94h-95v101h95v170h123v-170h108v-101h-108v-94h109v-102z" />
    <glyph glyph-name="Umacron" unicode="&#x16a;" horiz-adv-x="773" 
d="M554 799h-337v92h337v-92zM82 275v454h129v-444q0 -84 47 -130.5t129 -46.5q81 0 127.5 47t46.5 130v444h130v-454q0 -132 -83 -209q-82 -76 -222 -76q-146 0 -225 76t-79 209z" />
    <glyph glyph-name="umacron" unicode="&#x16b;" horiz-adv-x="624" 
d="M477 605h-337v92h337v-92zM427 530h124v-530h-108l-16 97h-9q-50 -107 -175 -107q-84 0 -130.5 54.5t-46.5 151.5v334h125v-316q0 -122 103 -122q60 0 96.5 43.5t36.5 115.5v279z" />
    <glyph glyph-name="Uring" unicode="&#x16e;" horiz-adv-x="773" 
d="M387 934q53 0 86.5 -32t33.5 -84t-33.5 -84.5t-86.5 -32.5t-87 32.5t-34 84.5t33.5 84t87.5 32zM423 779q14 15 14 39t-14 39t-36 15t-36 -15t-14 -39t14 -39t36 -15t36 15zM82 275v454h129v-444q0 -84 47 -130.5t129 -46.5q81 0 127.5 47t46.5 130v444h130v-454
q0 -132 -83 -209q-82 -76 -222 -76q-146 0 -225 76t-79 209z" />
    <glyph glyph-name="uring" unicode="&#x16f;" horiz-adv-x="624" 
d="M309 740q53 0 86.5 -32t33.5 -84t-33.5 -84.5t-86.5 -32.5t-87 32.5t-34 84.5t33.5 84t87.5 32zM345 585q14 15 14 39t-14 39t-36 15t-36 -15t-14 -39t14 -39t36 -15t36 15zM427 530h124v-530h-108l-16 97h-9q-50 -107 -175 -107q-84 0 -130.5 54.5t-46.5 151.5v334h125
v-316q0 -122 103 -122q60 0 96.5 43.5t36.5 115.5v279z" />
    <glyph glyph-name="Uhungarumlaut" unicode="&#x170;" horiz-adv-x="773" 
d="M479 898l-198 -129l-40 57l185 151zM697 891l-204 -122l-37 58l189 144zM82 275v454h129v-444q0 -84 47 -130.5t129 -46.5q81 0 127.5 47t46.5 130v444h130v-454q0 -132 -83 -209q-82 -76 -222 -76q-146 0 -225 76t-79 209z" />
    <glyph glyph-name="uhungarumlaut" unicode="&#x171;" horiz-adv-x="624" 
d="M401 704l-198 -129l-40 57l185 151zM619 697l-204 -122l-37 58l189 144zM427 530h124v-530h-108l-16 97h-9q-50 -107 -175 -107q-84 0 -130.5 54.5t-46.5 151.5v334h125v-316q0 -122 103 -122q60 0 96.5 43.5t36.5 115.5v279z" />
    <glyph glyph-name="Uogonek" unicode="&#x172;" horiz-adv-x="773" 
d="M561 285v444h130v-454q0 -114 -63 -188t-174 -92q-67 -19 -67 -74q0 -47 60 -47q27 0 54 12v-66q-33 -15 -77 -15q-51 1 -81.5 28.5t-30.5 72.5q0 50 38 85q-130 10 -199 84.5t-69 199.5v454h129v-444q0 -84 47 -130.5t129 -46.5q81 0 127.5 47t46.5 130z" />
    <glyph glyph-name="uogonek" unicode="&#x173;" horiz-adv-x="624" 
d="M525 -126q27 0 54 12v-66q-33 -15 -77 -15q-51 1 -81.5 28.5t-30.5 72.5q0 58 53 97l-16 94h-9q-50 -107 -175 -107q-84 0 -130.5 54.5t-46.5 151.5v334h125v-316q0 -122 103 -122q60 0 96.5 43.5t36.5 115.5v279h124v-530h-1q-85 -19 -85 -79q0 -47 60 -47z" />
    <glyph glyph-name="Wcircumflex" unicode="&#x174;" horiz-adv-x="961" 
d="M369 787l-59 58l131 131h74l131 -131l-61 -58l-107 114zM158 0l-149 729h143l73 -396l29 -189h8l136 585h167l138 -586h7l28 188l72 398h142l-148 -729h-181l-138 565h-7l-140 -565h-180z" />
    <glyph glyph-name="wcircumflex" unicode="&#x175;" horiz-adv-x="772" 
d="M494 593l-107 114l-109 -114l-59 58l131 131h74l131 -131zM581 282l59 248h125l-141 -530h-155l-55 245l-26 129h-6l-26 -129l-53 -245h-154l-142 530h126l59 -246l33 -160h8l83 406h142l83 -406h8z" />
    <glyph glyph-name="Ycircumflex" unicode="&#x176;" horiz-adv-x="681" 
d="M232 787l-59 58l131 131h74l131 -131l-61 -58l-107 114zM275 286l-272 443h156l93 -167l85 -157h7l85 156l93 168h156l-272 -443v-286h-131v286z" />
    <glyph glyph-name="ycircumflex" unicode="&#x177;" horiz-adv-x="548" 
d="M165 594l-59 58l131 131h74l131 -131l-61 -58l-107 114zM211 68l-217 462h133l69 -166l72 -182h6l76 183l70 165h132l-217 -463v-127q0 -39 -15 -69q-19 -38 -90 -38h-137v99h118v136z" />
    <glyph glyph-name="Ydieresis" unicode="&#x178;" horiz-adv-x="681" 
d="M290 802h-100v131h100v-131zM492 802h-101v131h101v-131zM275 286l-272 443h156l93 -167l85 -157h7l85 156l93 168h156l-272 -443v-286h-131v286z" />
    <glyph glyph-name="Zacute" unicode="&#x179;" horiz-adv-x="610" 
d="M440 997l52 -81l-206 -122l-39 59zM34 729h541v-106l-377 -508h372v-115h-536v107l375 506h-375v116z" />
    <glyph glyph-name="zacute" unicode="&#x17a;" horiz-adv-x="463" 
d="M383 803l52 -81l-206 -122l-39 59zM433 439l-256 -338h260v-101h-410v91l257 338h-258v101h407v-91z" />
    <glyph glyph-name="Zdotaccent" unicode="&#x17b;" horiz-adv-x="610" 
d="M236 933h100v-131h-100v131zM34 729h541v-106l-377 -508h372v-115h-536v107l375 506h-375v116z" />
    <glyph glyph-name="zdotaccent" unicode="&#x17c;" horiz-adv-x="463" 
d="M180 739h100v-131h-100v131zM433 439l-256 -338h260v-101h-410v91l257 338h-258v101h407v-91z" />
    <glyph glyph-name="Zcaron" unicode="&#x17d;" horiz-adv-x="610" 
d="M454 910l-131 -133h-74l-131 133l60 57l108 -115l107 115zM34 729h541v-106l-377 -508h372v-115h-536v107l375 506h-375v116z" />
    <glyph glyph-name="zcaron" unicode="&#x17e;" horiz-adv-x="463" 
d="M398 716l-131 -133h-74l-131 133l60 57l108 -115l107 115zM433 439l-256 -338h260v-101h-410v91l257 338h-258v101h407v-91z" />
    <glyph glyph-name="uni018F" unicode="&#x18f;" horiz-adv-x="711" 
d="M355 739q150 0 234 -98q84 -97 84 -274q0 -178 -86 -278q-85 -99 -236 -99q-146 0 -229 93q-81 95 -81 252q0 28 4 61h489q0 112 -48 169.5t-137 57.5q-67 0 -114 -31.5t-61 -84.5h-132q23 109 107 170q86 62 206 62zM351 104q81 0 129 50t53 139h-352q3 -96 48 -142.5
t122 -46.5z" />
    <glyph glyph-name="florin" unicode="&#x192;" horiz-adv-x="568" 
d="M182 -136h-152v102h149l50 382h-100v102h114l25 180q13 99 119 99h153v-102h-149l-24 -177h109v-102h-123l-49 -377q-14 -107 -122 -107z" />
    <glyph glyph-name="AEacute" unicode="&#x1fc;" horiz-adv-x="974" 
d="M734 997l52 -81l-206 -122l-39 59zM921 729v-115h-371v-197h315v-107h-315v-195h371v-115h-502v181h-226l-56 -181h-136l239 729h681zM225 284h194v330h-92z" />
    <glyph glyph-name="Oslashacute" unicode="&#x1fe;" horiz-adv-x="776" 
d="M541 997l52 -81l-206 -122l-39 59zM714 665l58 -81l-65 -48q30 -76 30 -173q0 -173 -93 -274q-93 -99 -256 -99q-179 0 -272 118l-60 -44l-52 83l64 47q-29 76 -29 169q0 175 93 275q94 100 256 100q175 0 268 -115zM177 416v-103q0 -20 3 -38l377 275q-57 72 -169 72
q-99 0 -155 -55.5t-56 -150.5zM598 313v103q0 20 -3 40l-378 -275q55 -75 171 -75q99 0 154.5 55.5t55.5 151.5z" />
    <glyph glyph-name="oslashacute" unicode="&#x1ff;" horiz-adv-x="593" 
d="M450 802l52 -81l-206 -122l-39 59zM543 498l47 -69l-55 -40q22 -56 22 -124q0 -126 -70 -200q-69 -75 -191 -75q-124 0 -195 81l-53 -39l-45 69l55 40q-22 56 -22 124q0 128 70 201q71 74 190 74q124 0 196 -80zM162 305v-83v-4l239 176q-38 44 -105 44q-61 0 -97.5 -36
t-36.5 -97zM430 222v83v7l-240 -176q36 -44 106 -44q61 0 97.5 34.5t36.5 95.5z" />
    <glyph glyph-name="uni0218" unicode="&#x218;" horiz-adv-x="672" 
d="M39 227h135q2 -63 46 -97.5t120 -34.5q68 0 107 28.5t39 79.5q0 40 -26 64q-9 8 -27 16q-22 11 -49 16l-119 26q-10 2 -26.5 5.5t-22.5 5.5q-15 4 -52 21q-38 18 -55 34q-22 21 -38 56.5t-16 75.5q0 98 74 157q76 59 197 59q123 0 197 -58q77 -59 78 -157h-135
q-3 53 -41 82t-101 29q-62 0 -96 -25t-34 -70q0 -33 27 -60q14 -10 30 -16q38 -13 56 -16l128 -26q190 -40 190 -204q0 -108 -79 -168q-80 -60 -211 -60q-139 0 -219 66q-78 68 -77 171zM291 -257v36q22 0 34.5 14t12.5 37v7h-47v110h103v-96q0 -52 -27.5 -80t-75.5 -28z
" />
    <glyph glyph-name="uni0219" unicode="&#x219;" horiz-adv-x="519" 
d="M35 164h122q1 -39 29 -61t76 -22q45 0 70 18t25 50q0 49 -61 59l-103 19q-149 26 -149 147q0 77 57.5 121.5t154.5 44.5q98 0 155 -44.5t59 -120.5h-123q-1 36 -25 55.5t-67 19.5q-42 0 -64.5 -17t-22.5 -47q0 -50 75 -61l97 -17q145 -22 145 -148q0 -80 -60 -125
t-163 -45q-106 0 -166.5 47.5t-60.5 126.5zM211 -267v36q22 0 34.5 14t12.5 37v7h-47v110h103v-96q0 -52 -27.5 -80t-75.5 -28z" />
    <glyph glyph-name="uni021A" unicode="&#x21a;" horiz-adv-x="566" 
d="M6 729h554v-115h-212v-614h-131v614h-211v115zM277 -163h-47v110h103v-96q0 -52 -27.5 -80t-75.5 -28v36q22 0 34.5 14t12.5 37v7z" />
    <glyph glyph-name="uni021B" unicode="&#x21b;" horiz-adv-x="372" 
d="M336 429h-108v-330h108v-99h-130q-101 0 -101 99v330h-95v101h95v170h123v-170h108v-101zM218 -163h-47v110h103v-96q0 -52 -27.5 -80t-75.5 -28v36q22 0 34.5 14t12.5 37v7z" />
    <glyph glyph-name="uni0237" unicode="&#x237;" horiz-adv-x="277" 
d="M81 -69v599h123v-590q0 -30 -7 -50q-18 -57 -100 -57h-127v98h111z" />
    <glyph glyph-name="circumflex" unicode="&#x2c6;" horiz-adv-x="368" 
d="M76 719l-59 58l131 131h74l131 -131l-61 -58l-107 114z" />
    <glyph glyph-name="caron" unicode="&#x2c7;" horiz-adv-x="368" 
d="M148 732l-131 133l60 57l108 -115l107 115l61 -57l-131 -133h-74z" />
    <glyph glyph-name="breve" unicode="&#x2d8;" horiz-adv-x="355" 
d="M253 877h79q0 -69 -42 -111t-113 -42q-70 0 -111.5 42.5t-41.5 110.5h78q0 -39 20.5 -60.5t54.5 -21.5t55 22t21 60z" />
    <glyph glyph-name="dotaccent" unicode="&#x2d9;" horiz-adv-x="206" 
d="M153 736h-100v131h100v-131z" />
    <glyph glyph-name="ring" unicode="&#x2da;" horiz-adv-x="359" 
d="M184 903q53 0 86.5 -32t33.5 -84t-33.5 -84.5t-86.5 -32.5t-87 32.5t-34 84.5t33.5 84t87.5 32zM220 748q14 15 14 39t-14 39t-36 15t-36 -15t-14 -39t14 -39t36 -15t36 15z" />
    <glyph glyph-name="ogonek" unicode="&#x2db;" horiz-adv-x="409" 
d="M107 -94q0 49 36.5 83.5t98.5 46.5l25 -36q-85 -19 -85 -79q0 -47 60 -47q27 0 54 12v-66q-33 -15 -77 -15q-51 1 -81.5 28.5t-30.5 72.5z" />
    <glyph glyph-name="tilde" unicode="&#x2dc;" horiz-adv-x="342" 
d="M232 733q-28 1 -67 18q-39 18 -60 18q-30 0 -56 -35l-51 35q38 87 109 87q27 -2 66 -19q42 -17 61 -17q34 0 57 36l52 -35q-34 -88 -111 -88z" />
    <glyph glyph-name="hungarumlaut" unicode="&#x2dd;" horiz-adv-x="533" 
d="M322 850l-198 -129l-40 57l185 151zM540 843l-204 -122l-37 58l189 144z" />
    <glyph glyph-name="gravecomb" unicode="&#x300;" horiz-adv-x="0" 
d="M-80 778l-38 -59l-207 122l52 81z" />
    <glyph glyph-name="acutecomb" unicode="&#x301;" horiz-adv-x="0" 
d="M-81 841l-206 -122l-39 59l193 144z" />
    <glyph glyph-name="uni0302" unicode="&#x302;" horiz-adv-x="0" 
d="M-292 719l-59 58l131 131h74l131 -131l-61 -58l-107 114z" />
    <glyph glyph-name="tildecomb" unicode="&#x303;" horiz-adv-x="0" 
d="M-110 733q-28 1 -67 18q-39 18 -60 18q-30 0 -56 -35l-51 35q38 87 109 87q27 -2 66 -19q42 -17 61 -17q34 0 57 36l52 -35q-34 -88 -111 -88z" />
    <glyph glyph-name="uni0304" unicode="&#x304;" horiz-adv-x="0" 
d="M-10 742h-337v92h337v-92z" />
    <glyph glyph-name="uni0306" unicode="&#x306;" horiz-adv-x="0" 
d="M-102 877h79q0 -69 -42 -111t-113 -42q-70 0 -111.5 42.5t-41.5 110.5h78q0 -39 20.5 -60.5t54.5 -21.5t55 22t21 60z" />
    <glyph glyph-name="uni0307" unicode="&#x307;" horiz-adv-x="0" 
d="M-53 736h-100v131h100v-131z" />
    <glyph glyph-name="uni0308" unicode="&#x308;" horiz-adv-x="0" 
d="M-254 736h-100v131h100v-131zM-52 736h-101v131h101v-131z" />
    <glyph glyph-name="uni030A" unicode="&#x30a;" horiz-adv-x="0" 
d="M-175 903q53 0 86.5 -32t33.5 -84t-33.5 -84.5t-86.5 -32.5t-87 32.5t-34 84.5t33.5 84t87.5 32zM-139 748q14 15 14 39t-14 39t-36 15t-36 -15t-14 -39t14 -39t36 -15t36 15z" />
    <glyph glyph-name="uni030B" unicode="&#x30b;" horiz-adv-x="0" 
d="M-211 850l-198 -129l-40 57l185 151zM7 843l-204 -122l-37 58l189 144z" />
    <glyph glyph-name="uni030C" unicode="&#x30c;" horiz-adv-x="0" 
d="M-220 732l-131 133l60 57l108 -115l107 115l61 -57l-131 -133h-74z" />
    <glyph glyph-name="uni0312" unicode="&#x312;" horiz-adv-x="0" 
d="M-48 940v-37q-22 0 -34.5 -13.5t-12.5 -37.5v-7h47v-109h-103v92q0 53 27.5 82.5t75.5 29.5z" />
    <glyph glyph-name="uni0326" unicode="&#x326;" horiz-adv-x="0" 
d="M-140 -250v36q22 0 34.5 14t12.5 37v7h-47v110h103v-96q0 -52 -27.5 -80t-75.5 -28z" />
    <glyph glyph-name="uni0327" unicode="&#x327;" horiz-adv-x="0" 
d="M-212 8l-29 -49q33 0 59 -20t26 -55q0 -44 -34 -69t-76.5 -23.5t-79.5 16.5v63q30 -25 72 -20q39 5 39 39q0 22 -22.5 30t-53.5 -4v31l52 86h47v-25z" />
    <glyph glyph-name="uni0328" unicode="&#x328;" horiz-adv-x="0" 
d="M-302 -94q0 49 36.5 83.5t98.5 46.5l25 -36q-85 -19 -85 -79q0 -47 60 -47q27 0 54 12v-66q-33 -15 -77 -15q-51 1 -81.5 28.5t-30.5 72.5z" />
    <glyph glyph-name="uni0335" unicode="&#x335;" horiz-adv-x="0" 
d="M-71 300h-368v91h368v-91z" />
    <glyph glyph-name="uni0336" unicode="&#x336;" horiz-adv-x="0" 
 />
    <glyph glyph-name="uni0337" unicode="&#x337;" horiz-adv-x="0" 
d="M-296 0h-75l281 729h75z" />
    <glyph glyph-name="uni0338" unicode="&#x338;" horiz-adv-x="0" 
d="M-296 0h-75l281 729h75z" />
    <glyph glyph-name="uni03BC" unicode="&#x3bc;" horiz-adv-x="597" 
d="M180 -173h-111l1 703h124v-334q0 -51 27 -80t72 -29q51 0 80.5 34.5t29.5 94.5v314h124v-530h-117l3 74h-8q-29 -84 -127 -84q-64 0 -90 39h-8v-202z" />
    <glyph glyph-name="pi" unicode="&#x3c0;" horiz-adv-x="603" 
d="M104 442h-85v88h562v-88h-83v-343h84v-99h-100q-54 0 -79.5 24.5t-25.5 75.5v342h-151v-442h-122v442z" />
    <glyph glyph-name="omega" unicode="&#x3c9;" horiz-adv-x="786" 
d="M59 432q0 139 90 223q92 84 244 84q150 0 242 -83t92 -224q0 -98 -54 -176q-54 -76 -143 -108v-49h149v-99h-253v217q77 15 124.5 66t47.5 124v48q0 83 -60 130q-59 47 -145 47t-146 -48q-59 -47 -59 -129v-50q0 -71 47.5 -122t124.5 -66v-217h-254v99h150v49
q-89 30 -143 107q-54 78 -54 177z" />
    <glyph glyph-name="Wgrave" unicode="&#x1e80;" horiz-adv-x="961" 
d="M517 853l-38 -59l-207 122l52 81zM158 0l-149 729h143l73 -396l29 -189h8l136 585h167l138 -586h7l28 188l72 398h142l-148 -729h-181l-138 565h-7l-140 -565h-180z" />
    <glyph glyph-name="wgrave" unicode="&#x1e81;" horiz-adv-x="772" 
d="M232 803l193 -144l-38 -59l-207 122zM581 282l59 248h125l-141 -530h-155l-55 245l-26 129h-6l-26 -129l-53 -245h-154l-142 530h126l59 -246l33 -160h8l83 406h142l83 -406h8z" />
    <glyph glyph-name="Wacute" unicode="&#x1e82;" horiz-adv-x="961" 
d="M683 916l-206 -122l-39 59l193 144zM158 0l-149 729h143l73 -396l29 -189h8l136 585h167l138 -586h7l28 188l72 398h142l-148 -729h-181l-138 565h-7l-140 -565h-180z" />
    <glyph glyph-name="wacute" unicode="&#x1e83;" horiz-adv-x="772" 
d="M540 803l52 -81l-206 -122l-39 59zM581 282l59 248h125l-141 -530h-155l-55 245l-26 129h-6l-26 -129l-53 -245h-154l-142 530h126l59 -246l33 -160h8l83 406h142l83 -406h8z" />
    <glyph glyph-name="Wdieresis" unicode="&#x1e84;" horiz-adv-x="961" 
d="M427 802h-100v131h100v-131zM629 802h-101v131h101v-131zM158 0l-149 729h143l73 -396l29 -189h8l136 585h167l138 -586h7l28 188l72 398h142l-148 -729h-181l-138 565h-7l-140 -565h-180z" />
    <glyph glyph-name="wdieresis" unicode="&#x1e85;" horiz-adv-x="772" 
d="M235 739h100v-131h-100v131zM436 739h101v-131h-101v131zM581 282l59 248h125l-141 -530h-155l-55 245l-26 129h-6l-26 -129l-53 -245h-154l-142 530h126l59 -246l33 -160h8l83 406h142l83 -406h8z" />
    <glyph glyph-name="Ygrave" unicode="&#x1ef2;" horiz-adv-x="681" 
d="M380 853l-38 -59l-207 122l52 81zM275 286l-272 443h156l93 -167l85 -157h7l85 156l93 168h156l-272 -443v-286h-131v286z" />
    <glyph glyph-name="ygrave" unicode="&#x1ef3;" horiz-adv-x="548" 
d="M312 660l-38 -59l-207 122l52 81zM211 68l-217 462h133l69 -166l72 -182h6l76 183l70 165h132l-217 -463v-127q0 -39 -15 -69q-19 -38 -90 -38h-137v99h118v136z" />
    <glyph glyph-name="endash" unicode="&#x2013;" horiz-adv-x="644" 
d="M586 264h-528v73h528v-73z" />
    <glyph glyph-name="emdash" unicode="&#x2014;" horiz-adv-x="840" 
d="M782 264h-724v73h724v-73z" />
    <glyph glyph-name="quoteleft" unicode="&#x2018;" horiz-adv-x="219" 
d="M181 749v-50q-45 0 -63 -19t-18 -57v-29h68v-144h-133v164q0 67 38 101t108 34z" />
    <glyph glyph-name="quoteright" unicode="&#x2019;" horiz-adv-x="217" 
d="M40 440v50q45 0 63 19t18 57v28h-68v145h133v-164q0 -67 -38 -101t-108 -34z" />
    <glyph glyph-name="quotesinglbase" unicode="&#x201a;" horiz-adv-x="219" 
d="M38 -155v50q45 0 63 19t18 57v29h-68v145h132v-164q0 -67 -38 -101.5t-107 -34.5z" />
    <glyph glyph-name="quotedblleft" unicode="&#x201c;" horiz-adv-x="438" 
d="M181 749v-50q-45 0 -63 -19t-18 -57v-29h68v-144h-133v164q0 67 38 101t108 34zM399 749v-50q-45 0 -62.5 -19t-17.5 -57v-29h68v-144h-133v164q0 67 37.5 101t107.5 34z" />
    <glyph glyph-name="quotedblright" unicode="&#x201d;" horiz-adv-x="438" 
d="M38 440v50q45 0 63 19t18 57v28h-68v145h132v-164q0 -67 -37.5 -101t-107.5 -34zM257 440v50q45 0 63 19t18 57v28h-68v145h132v-164q0 -67 -37.5 -101t-107.5 -34z" />
    <glyph glyph-name="quotedblbase" unicode="&#x201e;" horiz-adv-x="438" 
d="M38 -155v50q45 0 63 19t18 57v29h-68v145h132v-164q0 -67 -38 -101.5t-107 -34.5zM257 -155v50q45 0 63 19t18 57v29h-68v145h132v-164q0 -67 -38 -101.5t-107 -34.5z" />
    <glyph glyph-name="dagger" unicode="&#x2020;" horiz-adv-x="420" 
d="M254 730v-348h138v-82h-138v-144h-89v144h-137v82h137v348h89z" />
    <glyph glyph-name="daggerdbl" unicode="&#x2021;" horiz-adv-x="420" 
d="M392 589v-80h-138v-127h138v-82h-138v-144h-89v144h-137v82h137v127h-137v80h137v141h89v-141h138z" />
    <glyph glyph-name="bullet" unicode="&#x2022;" horiz-adv-x="392" 
d="M196 443q60 0 101 -41t41 -104t-41 -104q-40 -40 -101 -40t-101 40.5t-40 103.5q0 64 40 104q41 41 101 41z" />
    <glyph glyph-name="ellipsis" unicode="&#x2026;" horiz-adv-x="726" 
d="M198 0h-133v148h133v-148zM429 0h-132v148h132v-148zM662 0h-133v148h133v-148z" />
    <glyph glyph-name="perthousand" unicode="&#x2030;" horiz-adv-x="1306" 
d="M55 557q0 81 49 130q50 50 129 50q81 0 130.5 -50t49.5 -131q0 -80 -50 -132q-49 -51 -130 -51q-79 0 -128 51q-50 53 -50 133zM260 0h-75l462 729h76zM142 557q0 -47 25.5 -76.5t65.5 -29.5q42 0 67.5 29.5t25.5 76.5q0 46 -26 74.5t-67 28.5q-40 0 -65.5 -28.5
t-25.5 -74.5zM484 173q0 81 49 131q49 51 130 51q79 0 129 -51q49 -50 49 -132q0 -79 -50 -131q-49 -51 -128 -51t-129 51q-50 52 -50 132zM891 173q0 81 49 131q50 51 130 51q78 0 128 -51q50 -52 50 -132q0 -79 -50 -131q-50 -51 -128 -51q-80 0 -129 51q-50 52 -50 132z
M571 174q0 -47 26 -76.5t66 -29.5q41 0 66.5 29.5t25.5 76.5q0 46 -26 75t-66 29t-66 -29t-26 -75zM1161 174q0 46 -25.5 75t-65.5 29q-41 0 -67 -29q-25 -28 -25 -75t25 -76q25 -30 67 -30q41 0 66 29.5t25 76.5z" />
    <glyph glyph-name="guilsinglleft" unicode="&#x2039;" horiz-adv-x="324" 
d="M161 61l-120 213l120 211h110l-111 -211l111 -213h-110z" />
    <glyph glyph-name="guilsinglright" unicode="&#x203a;" horiz-adv-x="324" 
d="M164 485l119 -211l-119 -213h-111l110 213l-110 211h111z" />
    <glyph glyph-name="fraction" unicode="&#x2044;" horiz-adv-x="230" 
d="M-42 -46h-98l410 814h99z" />
    <glyph glyph-name="uni2070" unicode="&#x2070;" horiz-adv-x="492" 
d="M246 295q-98 0 -151.5 75.5t-53.5 212.5q0 139 54.5 212.5t151.5 73.5q98 0 151 -75t53 -211q0 -140 -54.5 -214t-150.5 -74zM245 384q101 0 101 196q0 202 -99 202q-102 0 -102 -196q0 -202 100 -202z" />
    <glyph glyph-name="uni2074" unicode="&#x2074;" horiz-adv-x="486" 
d="M390 862v-364h69v-84h-69v-114h-99v114h-265v80l214 368h150zM291 778l-163 -280h163v280z" />
    <glyph glyph-name="uni2075" unicode="&#x2075;" horiz-adv-x="476" 
d="M254 676q81 0 132 -53t51 -136q0 -87 -56 -141q-55 -54 -147 -54q-87 0 -142 50q-54 50 -53 132h101q-1 -39 25 -67q26 -26 70 -26t71 28q27 29 27 75q0 48 -27.5 77.5t-72.5 29.5q-31 0 -55.5 -14.5t-33.5 -37.5h-95l14 323h339v-88h-250l-7 -131l5 -1q35 34 104 34z
" />
    <glyph glyph-name="uni2076" unicode="&#x2076;" horiz-adv-x="480" 
d="M249 292q-103 0 -155 75.5t-52 214.5q0 138 52.5 212.5t157.5 74.5q78 0 127 -39.5t56 -105.5h-102q-10 60 -83 60q-114 0 -105 -176h5q35 65 122 65q76 0 124 -52q49 -50 49 -134q0 -88 -54 -142q-53 -53 -142 -53zM251 590q-42 0 -67.5 -30t-25.5 -76q0 -47 25 -75
t68 -28q42 0 67 28t25 77q0 48 -25 76t-67 28z" />
    <glyph glyph-name="uni2077" unicode="&#x2077;" horiz-adv-x="433" 
d="M101 678h-82v184h392v-72q-78 -108 -137 -240q-60 -136 -79 -250h-109q18 111 74 240q55 126 131 234h-190v-96z" />
    <glyph glyph-name="uni2078" unicode="&#x2078;" horiz-adv-x="469" 
d="M36 448q0 92 81 130v6q-37 18 -59 52t-22 78q0 71 54.5 113t144.5 42t144 -42.5t54 -112.5q0 -43 -21.5 -77.5t-59.5 -52.5v-6q81 -39 81 -130q0 -72 -54.5 -114t-145.5 -42q-90 0 -143.5 43t-53.5 113zM234 622q44 0 69 21.5t25 57.5q0 37 -25.5 59t-68.5 22
q-44 0 -69 -22t-25 -59q0 -36 26 -57.5t68 -21.5zM140 460q0 -38 25.5 -59t68.5 -21q44 0 69 22t25 58q0 37 -25.5 59t-68.5 22q-44 0 -69 -22t-25 -59z" />
    <glyph glyph-name="uni2079" unicode="&#x2079;" horiz-adv-x="478" 
d="M228 292q-75 0 -125 40t-57 106h102q11 -60 83 -60q115 0 104 177h-5q-36 -65 -123 -65q-76 0 -124 51t-48 134q0 87 53 140q54 54 143 54q102 0 154 -76t52 -216q0 -285 -209 -285zM228 572q43 0 68.5 30t25.5 77q0 46 -26 74t-68 28q-41 0 -66.5 -28.5t-25.5 -76.5
t25 -76t67 -28z" />
    <glyph glyph-name="uni2080" unicode="&#x2080;" horiz-adv-x="492" 
d="M246 -105q-98 0 -151.5 75.5t-53.5 212.5q0 139 54.5 212.5t151.5 73.5q98 0 151 -75t53 -211q0 -140 -54.5 -214t-150.5 -74zM245 -16q101 0 101 196q0 202 -99 202q-102 0 -102 -196q0 -202 100 -202z" />
    <glyph glyph-name="uni2081" unicode="&#x2081;" horiz-adv-x="352" 
d="M167 287h-144v77h24q54 0 89 27t37 71h94v-562h-100v387z" />
    <glyph glyph-name="uni2082" unicode="&#x2082;" horiz-adv-x="454" 
d="M161 -15l87 4h167v-89h-369v19q-1 73 34 124t95 97q7 5 27.5 21t28 22t23 20t22 23t15 22t11.5 26t3 28q0 38 -22 59t-61 21q-42 0 -65.5 -25t-21.5 -70h-101q1 83 53.5 132.5t138.5 49.5q84 0 134.5 -45.5t50.5 -120.5q0 -89 -76 -156q-16 -14 -62 -48t-73.5 -61
t-38.5 -53z" />
    <glyph glyph-name="uni2083" unicode="&#x2083;" horiz-adv-x="468" 
d="M42 70h103q-2 -41 22.5 -65.5t67.5 -24.5t68 23.5t25 61.5q0 39 -27 61t-73 22h-50v81h43q46 0 70.5 21.5t24.5 58.5q0 33 -23 53t-60 20q-42 0 -65.5 -24t-22.5 -65h-102q-4 78 49 127t143 49q82 0 133.5 -41t51.5 -109q0 -85 -80 -123v-4q44 -17 67.5 -52.5t23.5 -82.5
q0 -73 -55 -119t-143 -46t-140.5 49t-50.5 129z" />
    <glyph glyph-name="uni2084" unicode="&#x2084;" horiz-adv-x="486" 
d="M390 462v-364h69v-84h-69v-114h-99v114h-265v80l214 368h150zM291 378l-163 -280h163v280z" />
    <glyph glyph-name="uni2085" unicode="&#x2085;" horiz-adv-x="476" 
d="M254 276q81 0 132 -53t51 -136q0 -87 -56 -141q-55 -54 -147 -54q-87 0 -142 50q-54 50 -53 132h101q-1 -39 25 -67q26 -26 70 -26t71 28q27 29 27 75q0 48 -27.5 77.5t-72.5 29.5q-31 0 -55.5 -14.5t-33.5 -37.5h-95l14 323h339v-88h-250l-7 -131l5 -1q35 34 104 34z
" />
    <glyph glyph-name="uni2086" unicode="&#x2086;" horiz-adv-x="480" 
d="M249 -108q-103 0 -155 75.5t-52 214.5q0 138 52.5 212.5t157.5 74.5q78 0 127 -39.5t56 -105.5h-102q-10 60 -83 60q-114 0 -105 -176h5q35 65 122 65q76 0 124 -52q49 -50 49 -134q0 -89 -54 -141q-53 -54 -142 -54zM251 190q-42 0 -67.5 -30t-25.5 -76q0 -47 25 -75
t68 -28q42 0 67 28t25 77q0 48 -25 76t-67 28z" />
    <glyph glyph-name="uni2087" unicode="&#x2087;" horiz-adv-x="433" 
d="M101 278h-82v184h392v-72q-77 -108 -137 -239q-60 -135 -79 -251h-109q20 116 74 240q55 126 131 234h-190v-96z" />
    <glyph glyph-name="uni2088" unicode="&#x2088;" horiz-adv-x="469" 
d="M36 48q0 92 81 130v6q-37 18 -59 52t-22 78q0 71 54.5 113t144.5 42t144 -42.5t54 -112.5q0 -43 -21.5 -77.5t-59.5 -52.5v-6q81 -39 81 -130q0 -72 -54.5 -114t-145.5 -42q-90 0 -143.5 43t-53.5 113zM234 222q44 0 69 21.5t25 57.5q0 37 -25.5 59t-68.5 22
q-44 0 -69 -22t-25 -59q0 -36 26 -57.5t68 -21.5zM140 60q0 -38 25.5 -59t68.5 -21q44 0 69 22t25 58q0 37 -25.5 59t-68.5 22q-44 0 -69 -22t-25 -59z" />
    <glyph glyph-name="uni2089" unicode="&#x2089;" horiz-adv-x="478" 
d="M228 -108q-75 0 -125 40t-57 106h102q11 -60 83 -60q115 0 104 177h-5q-36 -65 -123 -65q-76 0 -124 51t-48 134q0 87 53 140q54 54 143 54q102 0 154 -76t52 -216q0 -285 -209 -285zM228 172q43 0 68.5 30t25.5 77q0 46 -26 74t-68 28q-41 0 -66.5 -28.5t-25.5 -76.5
t25 -76t67 -28z" />
    <glyph glyph-name="uni20A6" unicode="&#x20a6;" horiz-adv-x="727" 
d="M638 406h86v-84h-86v-322h-145l-165 322h-118v-322h-125v322h-82v84h82v323h145l166 -323h118v323h124v-323zM204 551l4 -145h76l-74 145h-6zM514 176h5l-4 146h-76z" />
    <glyph glyph-name="uni20A9" unicode="&#x20a9;" horiz-adv-x="844" 
d="M755 406h79v-84h-94l-59 -322h-165l-53 322h-82l-52 -322h-163l-61 322h-96v84h81l-61 323h132l50 -323h85l60 323h129l62 -323h84l47 323h136zM424 552h-6l-24 -146h55zM248 144h5l27 178h-56zM591 143h6l22 179h-57z" />
    <glyph glyph-name="uni20AA" unicode="&#x20aa;" horiz-adv-x="753" 
d="M408 169v458h-230v-627h-105v729h326q59 0 86 -25t27 -88v-447h-104zM575 103v626h105v-729h-327q-57 0 -85 25.5t-28 87.5v448h105v-458h230z" />
    <glyph glyph-name="Euro" unicode="&#x20ac;" horiz-adv-x="741" 
d="M401 106q60 0 100 30t55 85h138q-19 -106 -100 -168q-80 -62 -195 -62q-118 0 -196 66.5t-105 186.5h-72v86h61q-1 7 -1 35q0 6 2 46h-62v85h75q28 116 107 179t194 63q116 0 194 -63q78 -62 98 -166h-138q-15 56 -55.5 85.5t-100.5 29.5q-122 0 -164 -128h236l-10 -85
h-241q-2 -40 -2 -47q0 -27 1 -34h235l-12 -86h-210q41 -138 168 -138z" />
    <glyph glyph-name="uni20B2" unicode="&#x20b2;" horiz-adv-x="686" 
d="M339 296v97h276v-53q0 -125 -65 -199.5t-180 -86.5v-80h-85v80q-117 13 -181.5 96t-64.5 218q0 136 65.5 221t180.5 99v79h85v-78q93 -11 154 -66.5t72 -139.5h-124q-11 48 -49.5 76t-95.5 28q-75 0 -119.5 -48t-44.5 -127v-84q0 -83 45.5 -130t123.5 -47q71 0 113.5 39
t45.5 106h-152z" />
    <glyph glyph-name="uni20B8" unicode="&#x20b8;" horiz-adv-x="564" 
d="M6 627v102h552v-102h-552zM220 434h-214v109h552v-109h-214v-434h-124v434z" />
    <glyph glyph-name="uni20B9" unicode="&#x20b9;" horiz-adv-x="663" 
d="M583 729v-86h-123q39 -48 48 -116h75v-86h-76q-10 -62 -48.5 -105t-98.5 -61v-7q19 -4 35 -19q14 -11 23 -26q6 -8 24 -43q5 -9 6 -11l88 -169h-139l-90 172q-22 42 -43 59q-20 16 -67 16h-130v103h174q109 0 131 91h-305v86h305q-12 43 -46.5 66t-84.5 23h-174v113h516z
" />
    <glyph glyph-name="uni20BA" unicode="&#x20ba;" horiz-adv-x="629" 
d="M466 337h127q-24 -155 -129 -245q-104 -90 -262 -92h-102v269l-90 -35v99l90 36v82l-90 -35v98l90 38v177h124v-129l159 65v-99l-159 -67v-82l159 66v-99l-159 -66v-199q93 2 157 60q66 61 85 158z" />
    <glyph glyph-name="uni20BC" unicode="&#x20bc;" horiz-adv-x="720" 
d="M169 0h-124v339q0 136 65.5 209t187.5 82v99h124v-99q253 -19 253 -291v-339h-123v339q0 160 -130 172v-511h-124v511q-129 -11 -129 -172v-339z" />
    <glyph glyph-name="uni20BD" unicode="&#x20bd;" horiz-adv-x="681" 
d="M418 249h-181v-65h207v-85h-207v-99h-131v99h-77v85h77v73h-77v102h77v370h312q116 0 177 -62.5t61 -177.5q0 -114 -62 -177t-176 -63zM410 611h-173v-252h167q54 0 83.5 26t29.5 71v63q0 44 -29 68t-78 24z" />
    <glyph glyph-name="uni20BF" unicode="&#x20bf;" horiz-adv-x="725" 
d="M524 387v-8q109 -27 109 -155q0 -79 -54.5 -126.5t-147.5 -47.5h-2v-76h-84v76h-71v-76h-82v76h-77v643h77v74h82v-74h71v74h84v-74h6q86 0 134 -43.5t48 -119.5q0 -52 -24.5 -89t-68.5 -54zM491 493v39q0 32 -21 50t-59 18h-177v-176h179q36 0 57 19t21 50zM506 219v37
q0 76 -88 76h-184v-188h174q46 0 72 20t26 55z" />
    <glyph glyph-name="uni2105" unicode="&#x2105;" horiz-adv-x="943" 
d="M297 495h94q-7 -62 -55 -100t-120 -38q-81 0 -130.5 51.5t-49.5 138.5t51 140q51 52 134 52q69 0 115 -37t54 -97h-94q-6 26 -27.5 41t-49.5 15q-43 0 -66 -30t-23 -84t23 -83.5t65 -29.5q31 0 53 17t26 44zM280 0h-87l463 729h87zM725 375q82 0 132 -53q51 -52 51 -138
t-51 -138q-50 -53 -132 -53q-83 0 -134 53q-51 52 -51 138t51 138q51 53 134 53zM725 71q41 0 65 31.5t24 82.5t-24.5 81.5t-65.5 30.5q-42 0 -66 -31t-24 -82t24.5 -82t66.5 -31z" />
    <glyph glyph-name="uni2116" unicode="&#x2116;" horiz-adv-x="1387" 
d="M1009 256q-105 0 -174 69q-68 71 -68 170q0 100 67 170q68 71 175 71t175 -71q69 -71 69 -170t-69 -170q-69 -69 -175 -69zM218 0h-130v729h154l334 -551h6l-8 214v337h130v-729h-155l-332 549h-6l7 -207v-342zM899 533v-73q0 -44 32 -72t78 -28q48 0 80 27.5t32 71.5v73
q0 44 -31 72t-79 28q-49 0 -80.5 -27.5t-31.5 -71.5zM825 0v103h370v-103h-370z" />
    <glyph glyph-name="uni2117" unicode="&#x2117;" horiz-adv-x="914" 
d="M456 -76q-173 0 -297 118t-124 300q0 122 58 219q59 97 154.5 149.5t209.5 52.5q174 0 296 -118q124 -118 124 -300q2 -119 -57 -217.5t-156 -152t-208 -51.5zM839 345q0 168 -112 276q-110 109 -271 109q-159 0 -271 -109t-112 -279q0 -168 112 -277q113 -108 271 -108
q159 0 271 109t112 279zM395 131h-85v420h215q69 0 109.5 -39t40.5 -102t-41 -102.5t-109 -39.5h-130v-137zM393 477v-138h124q33 0 53 20t20 51q0 29 -20 48t-53 19h-124z" />
    <glyph glyph-name="trademark" unicode="&#x2122;" horiz-adv-x="668" 
d="M103 677h-86v55h237v-55h-90v-256h-61v256zM458 546l81 186h77v-311h-59v138l4 87h-3l-101 -220l-100 220h-4l4 -87v-138h-59v311h76l82 -186h2z" />
    <glyph glyph-name="estimated" unicode="&#x212e;" horiz-adv-x="780" 
d="M689 230h46q-27 -108 -120 -174q-94 -65 -222 -65q-163 0 -260 102q-97 101 -97 266q0 166 100 267q100 103 266 103q151 0 242 -88q92 -87 99 -246q1 -14 1 -57h-600v-185q35 -59 102 -91.5t149 -32.5q108 0 187 55q81 56 107 146zM144 561v-187h493v205
q-89 111 -249 108q-159 -3 -244 -126z" />
    <glyph glyph-name="oneeighth" unicode="&#x215b;" horiz-adv-x="934" 
d="M271 -46h-98l410 814h99zM151 575h-124v71h45q41 0 62.5 21t21.5 58v4h84v-473h-89v319zM571 127q0 79 69 110v5q-69 32 -69 111q0 60 46.5 96.5t122.5 36.5q75 0 120 -36.5t45 -96.5q0 -37 -17.5 -66.5t-49.5 -44.5v-5q67 -31 67 -111q0 -61 -45.5 -97t-121.5 -36
q-77 0 -122 37t-45 97zM663 343q0 -30 21 -48t55 -18t54 18.5t20 47.5q0 30 -20.5 47.5t-53.5 17.5q-35 0 -55.5 -18t-20.5 -47zM739 71q33 0 53.5 18.5t20.5 46.5q0 31 -20.5 49t-53.5 18q-34 0 -55 -18.5t-21 -48.5t20.5 -47.5t55.5 -17.5z" />
    <glyph glyph-name="threeeighths" unicode="&#x215c;" horiz-adv-x="1000" 
d="M339 -46h-98l410 814h99zM188 248q-72 0 -116 41t-43 108h89q0 -32 19.5 -51.5t49.5 -19.5q31 0 50.5 18.5t19.5 46.5q0 30 -21 48t-54 18h-39v81h30q35 0 54 17.5t19 45.5q0 27 -16.5 41.5t-44.5 14.5q-31 0 -49.5 -19.5t-17.5 -51.5h-90q-2 67 41 108t117 41
q69 0 111 -35t42 -93q0 -71 -67 -102v-5q76 -30 76 -113q0 -61 -45 -100t-115 -39zM639 127q0 79 69 110v5q-69 32 -69 111q0 60 46.5 96.5t122.5 36.5q75 0 120 -36.5t45 -96.5q0 -37 -17.5 -66.5t-49.5 -44.5v-5q67 -31 67 -111q0 -61 -45.5 -97t-121.5 -36q-77 0 -122 37
t-45 97zM731 343q0 -30 21 -48t55 -18t54 18.5t20 47.5q0 30 -20.5 47.5t-53.5 17.5q-35 0 -55.5 -18t-20.5 -47zM807 71q33 0 53.5 18.5t20.5 46.5q0 31 -20.5 49t-53.5 18q-34 0 -55 -18.5t-21 -48.5t20.5 -47.5t55.5 -17.5z" />
    <glyph glyph-name="fiveeighths" unicode="&#x215d;" horiz-adv-x="1017" 
d="M355 -46h-98l410 814h99zM33 401h90q0 -33 20.5 -54t53.5 -21q34 0 55.5 23.5t21.5 60.5q0 38 -22 62.5t-56 24.5q-53 0 -69 -43h-85v275h295v-79h-207v-61l-2 -42l2 -2q28 28 84 28q67 0 109 -45t42 -115q0 -74 -46.5 -119.5t-122.5 -45.5q-72 0 -117.5 42t-45.5 111z
M655 127q0 79 69 110v5q-69 32 -69 111q0 60 46.5 96.5t122.5 36.5q75 0 120 -36.5t45 -96.5q0 -37 -17.5 -66.5t-49.5 -44.5v-5q67 -31 67 -111q0 -61 -45.5 -97t-121.5 -36q-77 0 -122 37t-45 97zM747 343q0 -30 21 -48t55 -18t54 18.5t20 47.5q0 30 -20.5 47.5
t-53.5 17.5q-35 0 -55.5 -18t-20.5 -47zM823 71q33 0 53.5 18.5t20.5 46.5q0 31 -20.5 49t-53.5 18q-34 0 -55 -18.5t-21 -48.5t20.5 -47.5t55.5 -17.5z" />
    <glyph glyph-name="seveneighths" unicode="&#x215e;" horiz-adv-x="917" 
d="M157 -46l410 814h99l-411 -814h-98zM22 729h319v-64q-149 -179 -185 -409h-88q31 227 166 394h-145v-66h-67v145zM821 242v-5q67 -31 67 -111q0 -61 -45.5 -97t-121.5 -36q-77 0 -122 37t-45 97q0 79 69 110v5q-69 32 -69 111q0 60 46.5 96.5t122.5 36.5q75 0 120 -36.5
t45 -96.5q0 -37 -17.5 -66.5t-49.5 -44.5zM796 343q0 30 -20.5 47.5t-53.5 17.5q-35 0 -55.5 -18t-20.5 -47q0 -30 21 -48t55 -18t54 18.5t20 47.5zM722 71q33 0 53.5 18.5t20.5 46.5q0 31 -20.5 49t-53.5 18q-34 0 -55 -18.5t-21 -48.5t20.5 -47.5t55.5 -17.5z" />
    <glyph glyph-name="arrowleft" unicode="&#x2190;" horiz-adv-x="853" 
d="M757 305v-74h-606l169 -231h-91l-200 269l200 265h91l-169 -229h606z" />
    <glyph glyph-name="arrowup" unicode="&#x2191;" 
d="M562 377v-90l-206 183v-398h206v-72h-485v72h206v398l-206 -183v90l243 213z" />
    <glyph glyph-name="arrowright" unicode="&#x2192;" horiz-adv-x="888" 
d="M702 231h-606v74h606l-169 229h91l200 -265l-200 -269h-91z" />
    <glyph glyph-name="arrowdown" unicode="&#x2193;" 
d="M562 539v-72h-206v-398l206 182v-90l-242 -212l-243 212v90l206 -182v398h-206v72h485z" />
    <glyph glyph-name="arrowboth" unicode="&#x2194;" horiz-adv-x="1053" 
d="M267 105l-209 250l209 249h86l-175 -213h696l-173 213h85l208 -249l-208 -250h-85l173 212h-696l175 -212h-86z" />
    <glyph glyph-name="arrowupdn" unicode="&#x2195;" horiz-adv-x="724" 
d="M364 -141l-294 249v91l259 -220v661l-259 -219v90l294 249l293 -249v-90l-258 219v-661l258 220v-91z" />
    <glyph glyph-name="uni2196" unicode="&#x2196;" horiz-adv-x="694" 
d="M639 55l-52 -55l-408 422v-340h-73v466h454v-75h-330z" />
    <glyph glyph-name="uni2197" unicode="&#x2197;" horiz-adv-x="700" 
d="M563 412l-400 -412l-51 54l401 413h-330v72h453v-466h-73v339z" />
    <glyph glyph-name="uni2198" unicode="&#x2198;" horiz-adv-x="690" 
d="M584 0l-455 -2v78h330l-401 409l52 54l401 -414l1 343h73z" />
    <glyph glyph-name="uni2199" unicode="&#x2199;" horiz-adv-x="688" 
d="M560 0h-456v468h75v-343l400 414l50 -53l-400 -410h331v-76z" />
    <glyph glyph-name="uni21A9" unicode="&#x21a9;" horiz-adv-x="917" 
d="M848 498q0 -105 -66 -166t-186 -61h-360v-124l-179 162l179 164v-125h360q80 0 127.5 39.5t47.5 110.5q0 67 -45 108t-120 41h-13v75h13q106 0 174 -63t68 -161z" />
    <glyph glyph-name="uni21AA" unicode="&#x21aa;" horiz-adv-x="917" 
d="M70 498q0 98 68 161t174 63h13v-75h-13q-75 0 -119 -41t-44 -108q0 -72 46.5 -111t126.5 -39h361v125l178 -164l-178 -162v124h-361q-121 0 -186.5 61t-65.5 166z" />
    <glyph glyph-name="uni21B2" unicode="&#x21b2;" horiz-adv-x="759" 
d="M610 348v401h72v-478h-426v-124l-180 162l180 164v-125h354z" />
    <glyph glyph-name="uni21B3" unicode="&#x21b3;" horiz-adv-x="759" 
d="M503 473l179 -164l-179 -162v124h-427v478h72v-401h355v125z" />
    <glyph glyph-name="uni21BA" unicode="&#x21ba;" horiz-adv-x="824" 
d="M413 -12q-143 0 -238 94q-96 94 -96 235q0 89 44 170t124 132l38 -51q-140 -89 -140 -251q0 -112 77 -189q77 -76 192 -76q113 0 188 75q75 77 75 183q0 80 -39 138q-39 61 -171 175l-3 -2l5 -70v-142h-62v320h310v-66h-140l-63 5l-2 -3q141 -117 187 -188
q46 -67 46 -167q0 -134 -96 -228q-94 -94 -236 -94z" />
    <glyph glyph-name="uni21BB" unicode="&#x21bb;" horiz-adv-x="824" 
d="M409 -12q-140 0 -235 94q-95 95 -95 228q0 99 46 169q47 71 186 186l-2 3l-66 -5h-139v66h313v-320h-65v142l5 70l-3 2q-134 -115 -171 -174q-38 -59 -38 -139q0 -106 75 -183q75 -75 188 -75q116 0 192 75q77 77 77 190q0 80 -36.5 145.5t-102.5 105.5l38 51
q80 -50 124 -133q45 -83 45 -169q0 -140 -97 -234q-97 -95 -239 -95z" />
    <glyph glyph-name="emptyset" unicode="&#x2205;" horiz-adv-x="766" 
d="M737 363q0 -173 -93 -274q-92 -99 -256 -99q-163 0 -256 99q-93 101 -93 274t93 274q95 101 256 101q162 0 255 -100q94 -100 94 -275zM178 416v-103q0 -45 14 -85l336 351q-55 43 -140 43q-98 0 -154 -55.5t-56 -150.5zM599 313v103q0 40 -10 73l-333 -345
q53 -38 132 -38q99 0 155 55.5t56 151.5z" />
    <glyph glyph-name="product" unicode="&#x220f;" horiz-adv-x="760" 
d="M81 729h599v-107h-106v-622h-123v622h-140v-622h-124v622h-106v107z" />
    <glyph glyph-name="summation" unicode="&#x2211;" horiz-adv-x="592" 
d="M546 -165h-494v111l235 326v8l-235 337v112h494v-120h-220l-127 7v-7l228 -334l-232 -317v-7l131 7h220v-123z" />
    <glyph glyph-name="minus" unicode="&#x2212;" horiz-adv-x="612" 
d="M80 244v108h452v-108h-452z" />
    <glyph glyph-name="radical" unicode="&#x221a;" horiz-adv-x="761" 
d="M440 296l159 433h127l-302 -814h-163l-152 414h-80v102h170l49 -133l91 -272h7z" />
    <glyph glyph-name="infinity" unicode="&#x221e;" horiz-adv-x="879" 
d="M232 54q-90 0 -147 61t-57 156q0 94 57 157q58 64 147 64q114 0 207 -138q95 138 209 138q89 0 146 -64q57 -65 57 -157q0 -94 -57 -155q-57 -62 -146 -62q-118 0 -209 136q-88 -136 -207 -136zM237 161q37 0 70.5 25.5t74.5 85.5q-42 59 -74.5 84t-70.5 25
q-43 0 -70.5 -30.5t-27.5 -78.5q0 -49 27.5 -80t70.5 -31zM641 161q43 0 71 31t28 80q0 48 -28 78.5t-71 30.5q-38 0 -69.5 -25t-74.5 -84q43 -61 74.5 -86t69.5 -25z" />
    <glyph glyph-name="integral" unicode="&#x222b;" horiz-adv-x="589" 
d="M338 753h152v-102h-134v-683q0 -21 -3.5 -37t-13.5 -33t-33 -26t-57 -9h-152v101h134v682q0 38 14 67q21 40 93 40z" />
    <glyph glyph-name="approxequal" unicode="&#x2248;" horiz-adv-x="535" 
d="M148 349h-61q-5 68 23.5 103t74.5 35q32 0 84 -26q50 -25 77 -25q49 0 48 58h61q5 -70 -25 -105t-79 -35q-43 0 -94 25t-70 25q-21 0 -31.5 -15.5t-7.5 -39.5zM148 149h-61q-5 68 23.5 103t74.5 35q32 0 84 -26q50 -25 77 -25q50 0 48 57h61q5 -71 -24.5 -106t-79.5 -35
q-39 0 -93 26q-52 27 -71 27q-20 0 -31 -16.5t-8 -39.5z" />
    <glyph glyph-name="notequal" unicode="&#x2260;" horiz-adv-x="605" 
d="M525 445v-98h-149l-55 -105h204v-96h-253l-58 -111h-95l58 111h-97v96h147l54 105h-201v98h252l60 115h94l-60 -115h99z" />
    <glyph glyph-name="lessequal" unicode="&#x2264;" horiz-adv-x="563" 
d="M485 275v-125l-416 176v109l416 173v-124l-168 -61l-133 -39v-8l129 -38zM485 110v-110h-416v110h416z" />
    <glyph glyph-name="greaterequal" unicode="&#x2265;" horiz-adv-x="563" 
d="M494 326l-416 -176v125l172 63l130 38v8l-135 39l-167 61v124l416 -173v-109zM494 0h-416v110h416v-110z" />
    <glyph glyph-name="filledbox" unicode="&#x25a0;" horiz-adv-x="919" 
d="M110 1v728h700v-728h-700z" />
    <glyph glyph-name="uni25A1" unicode="&#x25a1;" horiz-adv-x="868" 
d="M84 0v729h701v-729h-701zM722 666h-575v-603h575v603z" />
    <glyph glyph-name="triagup" unicode="&#x25b2;" horiz-adv-x="963" 
d="M59 0l422 737l423 -737h-845z" />
    <glyph glyph-name="uni25B3" unicode="&#x25b3;" horiz-adv-x="960" 
d="M898 0h-835l416 738zM480 608l-305 -541h611z" />
    <glyph glyph-name="lozenge" unicode="&#x25ca;" horiz-adv-x="2152" 
d="M984 -10q-135 0 -214 100t-79 268q0 96 28 170.5t76.5 119.5t109.5 68t132 23q120 0 202 -62q82 -61 100 -164h-156q-36 86 -147 86q-90 0 -137 -62t-47 -175q0 -115 46.5 -175t129.5 -60q67 0 109 33t52 92h-162v143h324v-395h-111l-16 119h-35q-17 -62 -71.5 -95.5
t-133.5 -33.5zM1486 576q-34 0 -56.5 23t-22.5 59q0 35 22.5 58t56.5 23q35 0 55.5 -22.5t20.5 -58.5q0 -37 -20.5 -59.5t-55.5 -22.5zM1684 576q-34 0 -55 23t-21 59q0 35 21.5 58t54.5 23q36 0 58.5 -23t22.5 -58q0 -36 -22.5 -59t-58.5 -23zM310 0h-271v729h271
q161 0 248.5 -92.5t87.5 -270.5t-88.5 -272t-247.5 -94zM1886 572h-36v126h-38v31h118v-31h-44v-126zM1984 572h-34v157h63l17 -127l23 127h61v-157h-40v135l-17 -135h-52l-21 135v-135zM145 109l26 -26q29 29 52.5 40.5t60.5 11.5h26q31 0 69 15q31 12 52 33q24 24 41 72
t17 108q0 59 -16 106t-39 70q-21 23 -49 36q-37 19 -75 19h-26q-29 0 -52 10q-26 12 -32 17l-29 27l-26 -30q1 -2 7 -9t7 -8q5 -2 20 -27q15 -22 15 -71v-276q-3 -51 -16 -74l-10 -15q-9 -15 -23 -29zM1582 0h-149v491h141l7 -58h27q12 36 49 56t90 20v-147
q-165 16 -165 -148v-214z" />
    <glyph glyph-name="circle" unicode="&#x25cb;" horiz-adv-x="808" 
d="M36 365q0 163 106 268t262 105t262 -105t106 -268q0 -165 -106 -270t-262 -105t-262 105t-106 270zM711 365q0 138 -90 227q-88 90 -217 90q-128 0 -218 -90q-89 -89 -89 -227t89 -229q90 -90 218 -90t217 90q90 90 90 229z" />
    <glyph glyph-name="uni25CF" unicode="&#x25cf;" horiz-adv-x="897" 
d="M450 -10q-157 0 -262 107q-105 108 -105 269q0 158 105 265t262 107q155 0 259 -107t104 -265q0 -160 -104 -269q-104 -107 -259 -107z" />
    <glyph glyph-name="uni262E" unicode="&#x262e;" horiz-adv-x="856" 
d="M796 362q0 -167 -104 -273q-104 -104 -264 -104q-159 0 -263 104q-104 106 -104 273q0 166 104 270q103 105 263 105t263 -105q105 -104 105 -270zM745 362q0 139 -83 230q-82 92 -210 99v-307l265 -165q28 63 28 143zM403 384v307q-128 -9 -210 -100q-82 -89 -82 -229
q0 -80 28 -143zM403 325l-242 -149q39 -63 102 -100.5t140 -42.5v292zM452 325v-292q77 5 140.5 42.5t101.5 99.5z" />
    <glyph glyph-name="uni2639" unicode="&#x2639;" horiz-adv-x="859" 
d="M59 365q0 160 107 267q107 106 263 106q157 0 263 -106q108 -106 108 -267q0 -163 -108 -269q-106 -106 -263 -106q-156 0 -263 106q-107 107 -107 269zM109 365q0 -130 82 -222q36 52 100 83t138 31q77 0 141 -31t100 -83q80 97 80 222q0 140 -94 233q-94 94 -226 94
q-133 0 -227 -94q-94 -93 -94 -233zM300 437q0 51 14 78.5t38 27.5t38 -28.5t14 -77.5q0 -106 -52 -106q-24 0 -38 28.5t-14 77.5zM458 437q0 51 14.5 78.5t38.5 27.5t38 -28.5t14 -77.5q0 -106 -52 -106q-26 0 -39.5 28.5t-13.5 77.5zM227 110q94 -74 203 -74q112 0 203 74
q-25 45 -83 72q-55 28 -120 28q-66 0 -121.5 -27.5t-81.5 -72.5z" />
    <glyph glyph-name="smileface" unicode="&#x263a;" horiz-adv-x="859" 
d="M429 738q157 0 263 -106q108 -106 108 -267q0 -163 -108 -269q-106 -106 -263 -106q-156 0 -263 106q-107 107 -107 269q0 160 107 267q107 106 263 106zM430 36q134 0 227 95t93 234q0 140 -94 233q-94 94 -226 94q-133 0 -227 -94q-94 -93 -94 -233q0 -141 94 -235
t227 -94zM352 331q-24 0 -38 28.5t-14 77.5q0 51 14 78.5t38 27.5t38 -28.5t14 -77.5q0 -106 -52 -106zM511 331q-26 0 -39.5 28.5t-13.5 77.5q0 51 14.5 78.5t38.5 27.5t38 -28.5t14 -77.5q0 -106 -52 -106zM590 312v17h107v-17h-28q-13 -86 -81 -138q-67 -52 -159 -52
q-94 0 -159 52q-67 53 -80 138h-25v17h109v-17h-33q12 -65 64 -104t125 -39q75 0 126.5 39.5t62.5 103.5h-29z" />
    <glyph glyph-name="uni2708" unicode="&#x2708;" horiz-adv-x="908" 
d="M139 207h-50l35 159l-35 159h50l69 -108l210 12l-99 276h90l144 -238q16 -25 48 -26l59 4q60 4 109 -21t49 -58q0 -35 -49 -60q-49 -24 -109 -20l-59 4q-20 0 -30 -5t-18 -19l-144 -240h-90l99 276l-210 14z" />
    <glyph glyph-name="uni2713" unicode="&#x2713;" horiz-adv-x="898" 
d="M340 208l376 368l71 -82l-452 -439l-224 259l77 70z" />
    <glyph glyph-name="uni2714" unicode="&#x2714;" horiz-adv-x="1287" 
d="M1114 721l106 -178q-250 -130 -459 -289q-209 -158 -351 -320q-140 195 -343 367l120 130q141 -111 238 -266q247 316 689 556z" />
    <glyph glyph-name="uni2776" unicode="&#x2776;" horiz-adv-x="891" 
d="M447 -9q-163 0 -276 111q-111 111 -111 274q0 162 111 273q113 111 276 111q162 0 273 -112q111 -111 111 -272q0 -163 -111 -274t-273 -111zM434 433v-277h77v418h-72v-3q0 -35 -20.5 -56.5t-60.5 -21.5h-37v-60h113z" />
    <glyph glyph-name="uni2777" unicode="&#x2777;" horiz-adv-x="892" 
d="M447 -9q-165 0 -276 111q-111 112 -111 275t111 272q111 111 276 111q163 0 274 -111q111 -109 111 -272t-111 -275q-111 -111 -274 -111zM315 170v-14h268v68h-117l-61 -3q9 20 31.5 40.5t47 39t48 40t38.5 51t15 63.5q0 56 -36.5 90.5t-97.5 34.5q-63 0 -103.5 -36.5
t-41.5 -95.5l77 -5q-1 32 16 51.5t47 19.5q42 0 56.5 -36t-15.5 -76q-12 -14 -29 -28.5t-39.5 -32.5t-35.5 -29q-68 -57 -68 -142z" />
    <glyph glyph-name="uni2778" unicode="&#x2778;" horiz-adv-x="892" 
d="M447 -9q-163 0 -276 111q-111 111 -111 274q0 162 111 273q113 111 276 111t274 -111t111 -273q0 -163 -111 -274t-274 -111zM446 150q62 0 102 34t40 89q0 73 -68 100v3q29 12 44 36.5t15 52.5q0 52 -37 83.5t-97 31.5q-65 0 -103 -37t-36 -95h77q0 31 16 48.5t45 17.5
q25 0 40.5 -14.5t15.5 -38.5q0 -26 -18 -42t-49 -16h-26v-66h34q30 0 49 -16.5t19 -43.5q0 -26 -18 -43t-46 -17t-45 18t-16 48h-78q-1 -62 37.5 -97.5t102.5 -35.5z" />
    <glyph glyph-name="uni2779" unicode="&#x2779;" horiz-adv-x="893" 
d="M447 -9q-163 0 -276 111q-111 112 -111 275t111 272q113 111 276 111t274 -111q112 -111 112 -272q0 -163 -112 -275q-111 -111 -274 -111zM468 247v-91h76v91h46v67h-46v260h-118l-145 -264v-63h187zM468 314h-103l103 185v-185z" />
    <glyph glyph-name="uni277A" unicode="&#x277a;" horiz-adv-x="893" 
d="M448 -9q-164 0 -277 111q-111 111 -111 274q0 162 111 273q113 111 277 111q162 0 273 -111q112 -111 112 -273q0 -163 -112 -274q-111 -111 -273 -111zM452 151q66 0 107 40t41 104q0 62 -37 102t-96 40q-51 0 -74 -26l-3 2l2 39v56h184v66h-259v-240h73q6 17 23.5 27
t38.5 10q31 0 50.5 -22t19.5 -57q0 -33 -19.5 -53.5t-49.5 -20.5t-48.5 19.5t-18.5 47.5h-78q-1 -60 39.5 -97t104.5 -37z" />
    <glyph glyph-name="uni277B" unicode="&#x277b;" horiz-adv-x="905" 
d="M447 -9q-163 0 -276 111q-111 111 -111 274q0 162 111 273q113 111 276 111q162 0 273 -112q111 -111 111 -272q0 -163 -111 -274t-273 -111zM454 150q66 0 107 40q42 41 42 104q0 62 -36 101.5t-93 39.5q-29 0 -55 -13t-38 -36h-3q0 128 79 128q23 0 40 -12t21 -33h77
q-5 50 -42 80.5t-94 30.5q-77 0 -118 -58.5t-41 -161.5q0 -100 40 -155t114 -55zM388 293q0 33 18.5 55t49.5 22t50 -21t19 -56q0 -34 -19 -55t-50 -21q-30 0 -49 21.5t-19 54.5z" />
    <glyph glyph-name="uni277C" unicode="&#x277c;" horiz-adv-x="893" 
d="M447 -9q-163 0 -276 111q-111 112 -111 274t111 273q113 111 276 111t274 -111q112 -111 112 -273q0 -163 -112 -274q-111 -111 -274 -111zM358 156h81q35 200 159 365v53h-281v-135h57v69h129q-115 -154 -145 -352z" />
    <glyph glyph-name="uni277D" unicode="&#x277d;" horiz-adv-x="892" 
d="M447 -9q-163 0 -276 111q-111 112 -111 274t111 273q113 111 276 111t274 -111t111 -273q0 -163 -112 -274q-111 -111 -273 -111zM446 150q67 0 107.5 31.5t40.5 85.5q0 31 -16 58t-45 39v4q29 13 45 39t16 57q0 52 -40 84t-108 32q-66 0 -106.5 -31.5t-40.5 -84.5
q0 -68 60 -96v-4q-27 -13 -43.5 -39.5t-16.5 -57.5q0 -54 39.5 -85.5t107.5 -31.5zM446 396q-30 0 -49.5 16t-19.5 43t18.5 43t50.5 16q31 0 50 -16t19 -43t-18.5 -43t-50.5 -16zM446 217q-31 0 -50 16t-19 43t18.5 43t50.5 16q30 0 49.5 -16t19.5 -43t-18.5 -43t-50.5 -16z
" />
    <glyph glyph-name="uni277E" unicode="&#x277e;" horiz-adv-x="893" 
d="M447 -9q-163 0 -276 111q-111 111 -111 274q0 162 112 273q113 111 275 111q163 0 274 -111q112 -111 112 -273q0 -163 -112 -274q-111 -111 -274 -111zM447 150q77 0 118 58.5t41 161.5q0 99 -40 154.5t-115 55.5q-65 0 -106.5 -40.5t-41.5 -103.5q0 -62 36 -101t93 -39
q30 0 55.5 13t37.5 35h3q0 -128 -79 -128q-23 0 -40 12t-21 33h-78q6 -50 43 -80.5t94 -30.5zM381 437q0 34 19 55t50 21q30 0 49.5 -21t19.5 -54q0 -34 -18.5 -56t-50.5 -22t-50.5 21t-18.5 56z" />
    <glyph glyph-name="uni2780" unicode="&#x2780;" horiz-adv-x="891" 
d="M447 -9q-163 0 -276 111q-111 111 -111 274q0 162 111 273q113 111 276 111q162 0 273 -112q111 -111 111 -272q0 -163 -111 -274t-273 -111zM447 32q144 0 243 100q100 100 100 244t-100 243q-99 100 -243 100q-146 0 -246 -100q-100 -99 -100 -243q0 -143 99 -244
q100 -100 247 -100zM434 156v277h-113v60h37q39 0 60 22t21 56v3h72v-418h-77z" />
    <glyph glyph-name="uni2781" unicode="&#x2781;" horiz-adv-x="891" 
d="M447 760q162 0 273 -112q111 -111 111 -272q0 -163 -111 -274t-273 -111q-163 0 -276 111q-111 111 -111 274q0 162 111 273q113 111 276 111zM447 32q144 0 243 100q100 100 100 244t-100 243q-99 100 -243 100q-146 0 -246 -100q-100 -99 -100 -243q0 -143 99 -244
q100 -100 247 -100zM585 455q0 -67 -54 -114q-13 -11 -45 -36.5t-52 -45t-29 -38.5l61 3h117v-68h-268v14q0 34 10.5 62.5t33.5 53.5t37 37t43 34q68 51 68 97q0 27 -17 43.5t-44 16.5q-30 0 -47 -19.5t-16 -51.5l-77 5q1 59 41.5 95.5t103.5 36.5q61 0 97.5 -34.5
t36.5 -90.5z" />
    <glyph glyph-name="uni2782" unicode="&#x2782;" horiz-adv-x="891" 
d="M447 -9q-163 0 -276 111q-111 111 -111 274q0 162 111 273q113 111 276 111q162 0 273 -112q111 -111 111 -272q0 -163 -111 -274t-273 -111zM447 32q144 0 243 100q100 100 100 244t-100 243q-99 100 -243 100q-146 0 -246 -100q-100 -99 -100 -243q0 -143 99 -244
q100 -100 247 -100zM446 150q-64 0 -102.5 35.5t-37.5 97.5h78q-1 -30 16 -48t45 -18t46 17t18 43q0 27 -19 43.5t-49 16.5h-34v66h26q31 0 49 16t18 42q0 24 -15.5 38.5t-40.5 14.5q-29 0 -45 -17.5t-16 -48.5h-77q-2 58 36 95t103 37q60 0 97 -31.5t37 -83.5
q0 -28 -15 -52.5t-44 -36.5v-3q68 -27 68 -100q0 -55 -40 -89t-102 -34z" />
    <glyph glyph-name="uni2783" unicode="&#x2783;" horiz-adv-x="891" 
d="M447 -9q-163 0 -276 111q-111 111 -111 274q0 162 111 273q113 111 276 111q162 0 273 -112q111 -111 111 -272q0 -163 -111 -274t-273 -111zM447 32q144 0 243 100q100 100 100 244t-100 243q-99 100 -243 100q-146 0 -246 -100q-100 -99 -100 -243q0 -143 99 -244
q100 -100 247 -100zM544 156h-76v91h-187v63l145 264h118v-260h46v-67h-46v-91zM468 499l-103 -185h103v185z" />
    <glyph glyph-name="uni2784" unicode="&#x2784;" horiz-adv-x="891" 
d="M447 -9q-163 0 -276 111q-111 111 -111 274q0 162 111 273q113 111 276 111q162 0 273 -112q111 -111 111 -272q0 -163 -111 -274t-273 -111zM447 32q144 0 243 100q100 100 100 244t-100 243q-99 100 -243 100q-146 0 -246 -100q-100 -99 -100 -243q0 -143 99 -244
q100 -100 247 -100zM452 151q-64 0 -104.5 37t-39.5 97h78q0 -28 18.5 -47.5t48.5 -19.5t49.5 20.5t19.5 53.5q0 35 -19.5 57t-50.5 22q-21 0 -38.5 -10t-23.5 -27h-73v240h259v-66h-184v-56l-2 -39l3 -2q23 26 74 26q59 0 96 -40t37 -102q0 -64 -41 -104t-107 -40z" />
    <glyph glyph-name="uni2785" unicode="&#x2785;" horiz-adv-x="891" 
d="M447 -9q-163 0 -276 111q-111 111 -111 274q0 162 111 273q113 111 276 111q162 0 273 -112q111 -111 111 -272q0 -163 -111 -274t-273 -111zM447 32q144 0 243 100q100 100 100 244t-100 243q-99 100 -243 100q-146 0 -246 -100q-100 -99 -100 -243q0 -143 99 -244
q100 -100 247 -100zM454 150q-74 0 -114 55t-40 155q0 103 41 161.5t118 58.5q57 0 94 -30.5t42 -80.5h-77q-4 21 -21 33t-40 12q-79 0 -79 -128h3q12 23 38 36t55 13q57 0 93 -39.5t36 -101.5q0 -64 -42 -104q-41 -40 -107 -40zM525 293q0 35 -19 56t-50 21t-49.5 -22
t-18.5 -55t19 -54.5t49 -21.5q31 0 50 21t19 55z" />
    <glyph glyph-name="uni2786" unicode="&#x2786;" horiz-adv-x="891" 
d="M60 376q0 162 111 273q113 111 276 111q162 0 273 -112q111 -111 111 -272q0 -163 -111 -274t-273 -111q-163 0 -276 111q-111 111 -111 274zM447 32q144 0 243 100q100 100 100 244t-100 243q-99 100 -243 100q-146 0 -246 -100q-100 -99 -100 -243q0 -143 99 -244
q100 -100 247 -100zM374 439h-57v135h281v-53q-124 -165 -159 -365h-81q30 198 145 352h-129v-69z" />
    <glyph glyph-name="uni2787" unicode="&#x2787;" horiz-adv-x="891" 
d="M447 -9q-163 0 -276 111q-111 111 -111 274q0 162 111 273q113 111 276 111q162 0 273 -112q111 -111 111 -272q0 -163 -111 -274t-273 -111zM447 32q144 0 243 100q100 100 100 244t-100 243q-99 100 -243 100q-146 0 -246 -100q-100 -99 -100 -243q0 -143 99 -244
q100 -100 247 -100zM446 150q-68 0 -107.5 31.5t-39.5 85.5q0 31 16.5 57.5t43.5 39.5v4q-60 28 -60 96q0 53 40.5 84.5t106.5 31.5q68 0 108 -32t40 -84q0 -31 -16 -57t-45 -39v-4q29 -12 45 -39t16 -58q0 -54 -40.5 -85.5t-107.5 -31.5zM446 396q32 0 50.5 16t18.5 43
t-19 43t-50 16q-32 0 -50.5 -16t-18.5 -43t19.5 -43t49.5 -16zM446 217q32 0 50.5 16t18.5 43t-19.5 43t-49.5 16q-32 0 -50.5 -16t-18.5 -43t19 -43t50 -16z" />
    <glyph glyph-name="uni2788" unicode="&#x2788;" horiz-adv-x="891" 
d="M60 376q0 162 111 273q113 111 276 111q162 0 273 -112q111 -111 111 -272q0 -163 -111 -274t-273 -111q-163 0 -276 111q-111 111 -111 274zM447 32q144 0 243 100q100 100 100 244t-100 243q-99 100 -243 100q-146 0 -246 -100q-100 -99 -100 -243q0 -143 99 -244
q100 -100 247 -100zM303 436q0 63 41.5 103.5t106.5 40.5q75 0 115 -55.5t40 -154.5q0 -103 -41 -161.5t-118 -58.5q-57 0 -94 30.5t-43 80.5h78q4 -21 21 -33t40 -12q79 0 79 128h-3q-12 -22 -37.5 -35t-55.5 -13q-57 0 -93 39t-36 101zM381 437q0 -35 18.5 -56t50.5 -21
t50.5 22t18.5 56q0 33 -19.5 54t-49.5 21q-31 0 -50 -21t-19 -55z" />
    <glyph glyph-name="uniECE0" unicode="&#xece0;" horiz-adv-x="1038" 
d="M144 318v-259l-88 -65v735h354l-73 -93h-193v-227h149q17 141 120 234q103 94 243 94q90 0 169 -42.5t130 -118.5l-75 -55q-36 56 -98 90.5t-128 34.5q-111 0 -190 -82q-80 -83 -80 -199q0 -117 80 -200q79 -82 190 -82q68 0 128.5 33.5t96.5 90.5l76 -55
q-51 -77 -130 -119t-169 -42q-138 0 -242 93q-103 92 -121 234h-149zM534 365q0 -54 34 -91t85 -37q67 0 106 64l73 -56q-30 -47 -76.5 -72.5t-100.5 -25.5q-87 0 -150 64q-63 65 -63 154q0 87 63 152q63 64 150 64q53 0 100.5 -26t76.5 -72l-73 -56q-16 28 -44.5 45.5
t-61.5 17.5q-51 0 -85 -37q-34 -35 -34 -88z" />
    <glyph glyph-name="uniEFCC" unicode="&#xefcc;" horiz-adv-x="1193" 
d="M474 734q20 0 38 -2v-106q-21 3 -37 3q-117 0 -188 -74t-71 -194q0 -119 71 -193t188 -74q23 0 37 3v-107q-24 -2 -38 -2q-162 0 -262 103t-100 270t100 270t262 103zM737 366q0 166 96 267q98 101 260 101q20 0 44 -2v-106q-21 3 -40 3q-97 0 -168 -54q-68 -52 -82 -159
h214v-100h-214q14 -108 82 -160q71 -53 168 -53q28 0 40 3v-107q-26 -2 -44 -2q-163 0 -260 100q-96 101 -96 269z" />
    <glyph glyph-name="uniF8FF" unicode="&#xf8ff;" horiz-adv-x="640" 
d="M429 632q-16 -21 -43 -36.5t-48 -19.5l-18 -3l-1 10q-6 57 31 104q22 29 51 47t49 19l17 1q-1 -2 1 -19q2 -16 -8.5 -47t-30.5 -56zM211 0q-44 0 -89 53q-45 56 -73 134q-28 80 -28 156q0 104 53 166q54 62 124 62q28 0 70 -17t56 -17q16 0 56 18q42 18 80 18
q51 0 87 -23t49 -45l5 -8l-5 -3q-4 -3 -11 -8.5t-15.5 -13.5t-17 -19.5t-15.5 -25.5t-11.5 -33t-4.5 -39q0 -58 29.5 -96t59.5 -53l10 -5q-5 -19 -28 -70q-14 -33 -33 -61q-20 -29 -48 -49t-55 -20q-19 0 -59 14q-37 15 -62 15t-66 -15t-58 -15z" />
    <glyph glyph-name="NULL" horiz-adv-x="0" 
 />
    <glyph glyph-name="CR" horiz-adv-x="333" 
 />
    <glyph glyph-name="uni00A40301" horiz-adv-x="407" 
d="M412 997l52 -81l-206 -122l-39 59zM195 115v614h130v-622q0 -28 -8 -51q-17 -56 -99 -56h-202v115h179z" />
    <glyph glyph-name="G.ss01" horiz-adv-x="773" 
d="M39 360q0 177 94 277q95 101 254 101q132 0 221 -68t104 -177h-138q-14 60 -64 94.5t-123 34.5q-97 0 -154 -58q-56 -58 -56 -152v-99q0 -99 58 -155.5t157 -56.5q92 0 146.5 48t58.5 130h-194v109h331v-60q0 -162 -94 -250t-251 -88q-165 0 -258 98q-92 100 -92 272z
" />
    <glyph glyph-name="Gbreve.ss01" horiz-adv-x="773" 
d="M471 943h79q0 -69 -42 -111t-113 -42q-70 0 -111.5 42.5t-41.5 110.5h78q0 -39 20.5 -60.5t54.5 -21.5t55 22t21 60zM39 360q0 177 94 277q95 101 254 101q132 0 221 -68t104 -177h-138q-14 60 -64 94.5t-123 34.5q-97 0 -154 -58q-56 -58 -56 -152v-99q0 -99 58 -155.5
t157 -56.5q92 0 146.5 48t58.5 130h-194v109h331v-60q0 -162 -94 -250t-251 -88q-165 0 -258 98q-92 100 -92 272z" />
    <glyph glyph-name="uni0122.ss01" horiz-adv-x="773" 
d="M39 360q0 177 94 277q95 101 254 101q132 0 221 -68t104 -177h-138q-14 60 -64 94.5t-123 34.5q-97 0 -154 -58q-56 -58 -56 -152v-99q0 -99 58 -155.5t157 -56.5q92 0 146.5 48t58.5 130h-194v109h331v-60q0 -162 -94 -250t-251 -88q-165 0 -258 98q-92 100 -92 272z
M345 -257v36q22 0 34.5 14t12.5 37v7h-47v110h103v-96q0 -52 -27.5 -80t-75.5 -28z" />
    <glyph glyph-name="Gdotaccent.ss01" horiz-adv-x="773" 
d="M446 802h-100v131h100v-131zM39 360q0 177 94 277q95 101 254 101q132 0 221 -68t104 -177h-138q-14 60 -64 94.5t-123 34.5q-97 0 -154 -58q-56 -58 -56 -152v-99q0 -99 58 -155.5t157 -56.5q92 0 146.5 48t58.5 130h-194v109h331v-60q0 -162 -94 -250t-251 -88
q-165 0 -258 98q-92 100 -92 272z" />
    <glyph glyph-name="R.ss02" horiz-adv-x="728" 
d="M218 0h-130v729h349q117 0 176 -61t59 -172q0 -76 -35.5 -129t-98.5 -73v-8q40 -16 73 -99l76 -187h-145l-76 191q-18 43 -40.5 57.5t-69.5 14.5h-138v-263zM218 611v-240h208q50 0 79 25.5t29 67.5v59q0 41 -28 64.5t-75 23.5h-213z" />
    <glyph glyph-name="Racute.ss02" horiz-adv-x="728" 
d="M588 916l-206 -122l-39 59l193 144zM218 0h-130v729h349q117 0 176 -61t59 -172q0 -76 -35.5 -129t-98.5 -73v-8q40 -16 73 -99l76 -187h-145l-76 191q-18 43 -40.5 57.5t-69.5 14.5h-138v-263zM218 611v-240h208q50 0 79 25.5t29 67.5v59q0 41 -28 64.5t-75 23.5h-213z
" />
    <glyph glyph-name="Rcaron.ss02" horiz-adv-x="728" 
d="M345 777l-131 133l60 57l108 -115l107 115l61 -57l-131 -133h-74zM218 0h-130v729h349q117 0 176 -61t59 -172q0 -76 -35.5 -129t-98.5 -73v-8q40 -16 73 -99l76 -187h-145l-76 191q-18 43 -40.5 57.5t-69.5 14.5h-138v-263zM218 611v-240h208q50 0 79 25.5t29 67.5v59
q0 41 -28 64.5t-75 23.5h-213z" />
    <glyph glyph-name="uni0156.ss02" horiz-adv-x="728" 
d="M218 0h-130v729h349q117 0 176 -61t59 -172q0 -76 -35.5 -129t-98.5 -73v-8q40 -16 73 -99l76 -187h-145l-76 191q-18 43 -40.5 57.5t-69.5 14.5h-138v-263zM218 611v-240h208q50 0 79 25.5t29 67.5v59q0 41 -28 64.5t-75 23.5h-213zM331 -257v36q22 0 34.5 14t12.5 37v7
h-47v110h103v-96q0 -52 -27.5 -80t-75.5 -28z" />
    <glyph glyph-name="O.ss03" horiz-adv-x="776" 
d="M39 363q0 175 93 275q94 100 256 100t255 -101q94 -100 94 -274q0 -173 -93 -274q-93 -99 -256 -99t-256 99q-93 101 -93 274zM177 416v-103q0 -97 57 -152t154 -55q99 0 154.5 55.5t55.5 151.5v103q0 97 -56.5 151.5t-153.5 54.5q-99 0 -155 -55.5t-56 -150.5zM445 308
h-117v113h117v-113z" />
    <glyph glyph-name="Oacute.ss03" horiz-adv-x="776" 
d="M592 916l-206 -122l-39 59l193 144zM39 363q0 175 93 275q94 100 256 100t255 -101q94 -100 94 -274q0 -173 -93 -274q-93 -99 -256 -99t-256 99q-93 101 -93 274zM177 416v-103q0 -97 57 -152t154 -55q99 0 154.5 55.5t55.5 151.5v103q0 97 -56.5 151.5t-153.5 54.5
q-99 0 -155 -55.5t-56 -150.5zM445 308h-117v113h117v-113z" />
    <glyph glyph-name="Ocircumflex.ss03" horiz-adv-x="776" 
d="M278 787l-59 58l131 131h74l131 -131l-61 -58l-107 114zM39 363q0 175 93 275q94 100 256 100t255 -101q94 -100 94 -274q0 -173 -93 -274q-93 -99 -256 -99t-256 99q-93 101 -93 274zM177 416v-103q0 -97 57 -152t154 -55q99 0 154.5 55.5t55.5 151.5v103
q0 97 -56.5 151.5t-153.5 54.5q-99 0 -155 -55.5t-56 -150.5zM445 308h-117v113h117v-113z" />
    <glyph glyph-name="Odieresis.ss03" horiz-adv-x="776" 
d="M335 802h-100v131h100v-131zM537 802h-101v131h101v-131zM39 363q0 175 93 275q94 100 256 100t255 -101q94 -100 94 -274q0 -173 -93 -274q-93 -99 -256 -99t-256 99q-93 101 -93 274zM177 416v-103q0 -97 57 -152t154 -55q99 0 154.5 55.5t55.5 151.5v103
q0 97 -56.5 151.5t-153.5 54.5q-99 0 -155 -55.5t-56 -150.5zM445 308h-117v113h117v-113z" />
    <glyph glyph-name="Ograve.ss03" horiz-adv-x="776" 
d="M425 853l-38 -59l-207 122l52 81zM39 363q0 175 93 275q94 100 256 100t255 -101q94 -100 94 -274q0 -173 -93 -274q-93 -99 -256 -99t-256 99q-93 101 -93 274zM177 416v-103q0 -97 57 -152t154 -55q99 0 154.5 55.5t55.5 151.5v103q0 97 -56.5 151.5t-153.5 54.5
q-99 0 -155 -55.5t-56 -150.5zM445 308h-117v113h117v-113z" />
    <glyph glyph-name="Ohungarumlaut.ss03" horiz-adv-x="776" 
d="M479 898l-198 -129l-40 57l185 151zM697 891l-204 -122l-37 58l189 144zM39 363q0 175 93 275q94 100 256 100t255 -101q94 -100 94 -274q0 -173 -93 -274q-93 -99 -256 -99t-256 99q-93 101 -93 274zM177 416v-103q0 -97 57 -152t154 -55q99 0 154.5 55.5t55.5 151.5
v103q0 97 -56.5 151.5t-153.5 54.5q-99 0 -155 -55.5t-56 -150.5zM445 308h-117v113h117v-113z" />
    <glyph glyph-name="Omacron.ss03" horiz-adv-x="776" 
d="M554 799h-337v92h337v-92zM39 363q0 175 93 275q94 100 256 100t255 -101q94 -100 94 -274q0 -173 -93 -274q-93 -99 -256 -99t-256 99q-93 101 -93 274zM177 416v-103q0 -97 57 -152t154 -55q99 0 154.5 55.5t55.5 151.5v103q0 97 -56.5 151.5t-153.5 54.5
q-99 0 -155 -55.5t-56 -150.5zM445 308h-117v113h117v-113z" />
    <glyph glyph-name="Otilde.ss03" horiz-adv-x="776" 
d="M448 787q-28 1 -67 18q-39 18 -60 18q-30 0 -56 -35l-51 35q38 87 109 87q27 -2 66 -19q42 -17 61 -17q34 0 57 36l52 -35q-34 -88 -111 -88zM39 363q0 175 93 275q94 100 256 100t255 -101q94 -100 94 -274q0 -173 -93 -274q-93 -99 -256 -99t-256 99q-93 101 -93 274z
M177 416v-103q0 -97 57 -152t154 -55q99 0 154.5 55.5t55.5 151.5v103q0 97 -56.5 151.5t-153.5 54.5q-99 0 -155 -55.5t-56 -150.5zM445 308h-117v113h117v-113z" />
    <glyph glyph-name="A.ss04" horiz-adv-x="750" 
d="M325 729h101l240 -281v-448h-131v161h-320v-161h-131v448zM215 411v-144h320v144l-154 188h-11z" />
    <glyph glyph-name="Aacute.ss04" horiz-adv-x="750" 
d="M529 994l52 -81l-206 -122l-39 59zM325 729h101l240 -281v-448h-131v161h-320v-161h-131v448zM215 411v-144h320v144l-154 188h-11z" />
    <glyph glyph-name="Abreve.ss04" horiz-adv-x="750" 
d="M374 787q-70 0 -111.5 42.5t-41.5 110.5h78q0 -38 20.5 -60t54.5 -22t55 22t21 60h79q0 -69 -42 -111t-113 -42zM325 729h101l240 -281v-448h-131v161h-320v-161h-131v448zM215 411v-144h320v144l-154 188h-11z" />
    <glyph glyph-name="Acircumflex.ss04" horiz-adv-x="750" 
d="M483 784l-107 114l-109 -114l-59 58l131 131h74l131 -131zM325 729h101l240 -281v-448h-131v161h-320v-161h-131v448zM215 411v-144h320v144l-154 188h-11z" />
    <glyph glyph-name="Adieresis.ss04" horiz-adv-x="750" 
d="M224 930h100v-131h-100v131zM425 930h101v-131h-101v131zM325 729h101l240 -281v-448h-131v161h-320v-161h-131v448zM215 411v-144h320v144l-154 188h-11z" />
    <glyph glyph-name="Agrave.ss04" horiz-adv-x="750" 
d="M221 994l193 -144l-38 -59l-207 122zM325 729h101l240 -281v-448h-131v161h-320v-161h-131v448zM215 411v-144h320v144l-154 188h-11z" />
    <glyph glyph-name="Amacron.ss04" horiz-adv-x="750" 
d="M207 889h337v-92h-337v92zM325 729h101l240 -281v-448h-131v161h-320v-161h-131v448zM215 411v-144h320v144l-154 188h-11z" />
    <glyph glyph-name="Aogonek.ss04" horiz-adv-x="750" 
d="M641 -126q27 0 54 12v-66q-33 -15 -77 -15q-51 1 -81.5 28.5t-30.5 72.5q0 58 49 94h-20v161h-320v-161h-131v448l241 281h101l240 -281v-448q-85 -19 -85 -79q0 -47 60 -47zM215 411v-144h320v144l-154 188h-11z" />
    <glyph glyph-name="Aring.ss04" horiz-adv-x="750" 
d="M439 713l227 -265v-448h-131v161h-320v-161h-131v448l228 266q-57 32 -57 101q0 52 33.5 84t87.5 32q53 0 86.5 -32t33.5 -84q0 -69 -57 -102zM412 854q-14 15 -36 15t-36 -15t-14 -39t14 -39t36 -15t36 15t14 39t-14 39zM215 411v-144h320v144l-154 188h-11z" />
    <glyph glyph-name="Atilde.ss04" horiz-adv-x="750" 
d="M310 820q-30 0 -56 -35l-51 35q38 87 109 87q27 -2 66 -19q42 -17 61 -17q35 0 57 36l52 -35q-34 -88 -111 -88q-28 1 -67 18q-39 18 -60 18zM325 729h101l240 -281v-448h-131v161h-320v-161h-131v448zM215 411v-144h320v144l-154 188h-11z" />
    <glyph glyph-name="I.ss04" horiz-adv-x="657" 
d="M582 729v-115h-188v-499h188v-115h-508v115h189v499h-189v115h508z" />
    <glyph glyph-name="V.ss04" horiz-adv-x="756" 
d="M88 280v449h130v-416l154 -187h12l153 187v416h131v-449l-240 -280h-101z" />
    <glyph glyph-name="W.ss04" horiz-adv-x="952" 
d="M247 0l-159 261v468h130v-437l87 -153h13l96 158v228h120v-228l100 -158h12l88 153v437h131v-468l-161 -261h-112l-118 191l-115 -191h-112z" />
    <glyph glyph-name="Wacute.ss04" horiz-adv-x="952" 
d="M682 916l-206 -122l-39 59l193 144zM247 0l-159 261v468h130v-437l87 -153h13l96 158v228h120v-228l100 -158h12l88 153v437h131v-468l-161 -261h-112l-118 191l-115 -191h-112z" />
    <glyph glyph-name="Wcircumflex.ss04" horiz-adv-x="952" 
d="M368 787l-59 58l131 131h74l131 -131l-61 -58l-107 114zM247 0l-159 261v468h130v-437l87 -153h13l96 158v228h120v-228l100 -158h12l88 153v437h131v-468l-161 -261h-112l-118 191l-115 -191h-112z" />
    <glyph glyph-name="Wdieresis.ss04" horiz-adv-x="952" 
d="M425 802h-100v131h100v-131zM627 802h-101v131h101v-131zM247 0l-159 261v468h130v-437l87 -153h13l96 158v228h120v-228l100 -158h12l88 153v437h131v-468l-161 -261h-112l-118 191l-115 -191h-112z" />
    <glyph glyph-name="Wgrave.ss04" horiz-adv-x="952" 
d="M515 853l-38 -59l-207 122l52 81zM247 0l-159 261v468h130v-437l87 -153h13l96 158v228h120v-228l100 -158h12l88 153v437h131v-468l-161 -261h-112l-118 191l-115 -191h-112z" />
    <glyph glyph-name="Y.ss04" horiz-adv-x="697" 
d="M508 729h131v-247l-225 -260v-222h-131v221l-225 261v247h131v-215l154 -185h12l153 185v215z" />
    <glyph glyph-name="Yacute.ss04" horiz-adv-x="697" 
d="M502 997l52 -81l-206 -122l-39 59zM508 729h131v-247l-225 -260v-222h-131v221l-225 261v247h131v-215l154 -185h12l153 185v215z" />
    <glyph glyph-name="Ycircumflex.ss04" horiz-adv-x="697" 
d="M456 787l-107 114l-109 -114l-59 58l131 131h74l131 -131zM508 729h131v-247l-225 -260v-222h-131v221l-225 261v247h131v-215l154 -185h12l153 185v215z" />
    <glyph glyph-name="Ydieresis.ss04" horiz-adv-x="697" 
d="M198 933h100v-131h-100v131zM399 933h101v-131h-101v131zM508 729h131v-247l-225 -260v-222h-131v221l-225 261v247h131v-215l154 -185h12l153 185v215z" />
    <glyph glyph-name="Ygrave.ss04" horiz-adv-x="697" 
d="M195 997l193 -144l-38 -59l-207 122zM508 729h131v-247l-225 -260v-222h-131v221l-225 261v247h131v-215l154 -185h12l153 185v215z" />
    <glyph glyph-name="i.loclTRK" horiz-adv-x="269" 
d="M192 608h-115v131h115v-131zM196 0h-123v530h123v-530z" />
    <glyph glyph-name="uni006A0301" horiz-adv-x="277" 
d="M296 798l52 -81l-206 -122l-39 59zM81 -69v599h123v-590q0 -30 -7 -50q-18 -57 -100 -57h-127v98h111z" />
    <glyph glyph-name="s.001" horiz-adv-x="522" 
d="M34 164h122q0 -83 109 -83q46 0 71 17.5t25 48.5q0 50 -64 60l-93 18q-160 28 -160 151q0 75 58 119.5t155 44.5t154 -44.5t59 -120.5h-121q-3 75 -95 75q-42 0 -64 -16.5t-22 -44.5q0 -34 28 -46q15 -7 20 -8q10 -2 11 -3q2 0 11 -2l10 -2l98 -20q142 -30 142 -150
q0 -78 -61.5 -123t-166.5 -45q-106 0 -166.5 47t-59.5 127z" />
    <glyph glyph-name="germandbls.alt01" horiz-adv-x="685" 
d="M592 586l-110 -160q76 -16 117.5 -68.5t41.5 -131.5q0 -108 -71 -167t-195 -59h-93v110h98q56 0 88.5 25.5t32.5 67.5v63q0 41 -33 65t-87 24h-70l143 216q-12 26 -44 41.5t-73 15.5q-56 0 -87.5 -29.5t-31.5 -82.5v-516h-130v504q0 110 67 172t184 62q93 0 159.5 -41
t93.5 -111z" />
    <glyph glyph-name="a.ss01" 
d="M456 530h110v-530h-124v99h-8q-21 -51 -68 -80t-109 -29q-106 0 -163.5 72.5t-57.5 203.5q0 130 58 202t163 72q58 0 106 -28t71 -76h8zM442 239v55q0 64 -40.5 104.5t-106.5 40.5q-63 0 -98 -33.5t-35 -91.5v-95q0 -60 35 -93.5t98 -33.5q66 0 106.5 41t40.5 106z" />
    <glyph glyph-name="aacute.ss01" 
d="M468 725l-206 -122l-39 59l193 144zM456 530h110v-530h-124v99h-8q-21 -51 -68 -80t-109 -29q-106 0 -163.5 72.5t-57.5 203.5q0 130 58 202t163 72q58 0 106 -28t71 -76h8zM442 239v55q0 64 -40.5 104.5t-106.5 40.5q-63 0 -98 -33.5t-35 -91.5v-95q0 -60 35 -93.5
t98 -33.5q66 0 106.5 41t40.5 106z" />
    <glyph glyph-name="abreve.ss01" 
d="M338 752h79q0 -69 -42 -111t-113 -42q-70 0 -111.5 42.5t-41.5 110.5h78q0 -38 20.5 -60t54.5 -22t55 22t21 60zM456 530h110v-530h-124v99h-8q-21 -51 -68 -80t-109 -29q-106 0 -163.5 72.5t-57.5 203.5q0 130 58 202t163 72q58 0 106 -28t71 -76h8zM442 239v55
q0 64 -40.5 104.5t-106.5 40.5q-63 0 -98 -33.5t-35 -91.5v-95q0 -60 35 -93.5t98 -33.5q66 0 106.5 41t40.5 106z" />
    <glyph glyph-name="acircumflex.ss01" 
d="M154 596l-59 58l131 131h74l131 -131l-61 -58l-107 114zM456 530h110v-530h-124v99h-8q-21 -51 -68 -80t-109 -29q-106 0 -163.5 72.5t-57.5 203.5q0 130 58 202t163 72q58 0 106 -28t71 -76h8zM442 239v55q0 64 -40.5 104.5t-106.5 40.5q-63 0 -98 -33.5t-35 -91.5v-95
q0 -60 35 -93.5t98 -33.5q66 0 106.5 41t40.5 106z" />
    <glyph glyph-name="adieresis.ss01" 
d="M251 598h-101v131h101v-131zM452 598h-100v131h100v-131zM456 530h110v-530h-124v99h-8q-21 -51 -68 -80t-109 -29q-106 0 -163.5 72.5t-57.5 203.5q0 130 58 202t163 72q58 0 106 -28t71 -76h8zM442 239v55q0 64 -40.5 104.5t-106.5 40.5q-63 0 -98 -33.5t-35 -91.5v-95
q0 -60 35 -93.5t98 -33.5q66 0 106.5 41t40.5 106z" />
    <glyph glyph-name="agrave.ss01" 
d="M302 662l-38 -59l-207 122l52 81zM456 530h110v-530h-124v99h-8q-21 -51 -68 -80t-109 -29q-106 0 -163.5 72.5t-57.5 203.5q0 130 58 202t163 72q58 0 106 -28t71 -76h8zM442 239v55q0 64 -40.5 104.5t-106.5 40.5q-63 0 -98 -33.5t-35 -91.5v-95q0 -60 35 -93.5
t98 -33.5q66 0 106.5 41t40.5 106z" />
    <glyph glyph-name="amacron.ss01" 
d="M431 609h-337v92h337v-92zM456 530h110v-530h-124v99h-8q-21 -51 -68 -80t-109 -29q-106 0 -163.5 72.5t-57.5 203.5q0 130 58 202t163 72q58 0 106 -28t71 -76h8zM442 239v55q0 64 -40.5 104.5t-106.5 40.5q-63 0 -98 -33.5t-35 -91.5v-95q0 -60 35 -93.5t98 -33.5
q66 0 106.5 41t40.5 106z" />
    <glyph glyph-name="aogonek.ss01" 
d="M533 -126q27 0 54 12v-66q-33 -15 -77 -15q-51 1 -81.5 28.5t-30.5 72.5q0 58 49 94h-5v99h-8q-21 -51 -68 -80t-109 -29q-106 0 -163.5 72.5t-57.5 203.5q0 130 58 202t163 72q58 0 106 -28t71 -76h8l14 94h110v-530h-8q-85 -19 -85 -79q0 -47 60 -47zM442 239v55
q0 64 -40.5 104.5t-106.5 40.5q-63 0 -98 -33.5t-35 -91.5v-95q0 -60 35 -93.5t98 -33.5q66 0 106.5 41t40.5 106z" />
    <glyph glyph-name="aring.ss01" 
d="M442 436l14 94h110v-530h-124v99h-8q-21 -51 -68 -80t-109 -29q-106 0 -163.5 72.5t-57.5 203.5q0 107 40 175.5t114 89.5q-48 31 -48 96q0 52 33.5 84t87.5 32q53 0 86.5 -32t33.5 -84q0 -67 -53 -99q73 -26 104 -92h8zM299 666q-14 15 -36 15t-36 -15t-14 -39t14 -39
t36 -15t36 15t14 39t-14 39zM442 239v55q0 64 -40.5 104.5t-106.5 40.5q-63 0 -98 -33.5t-35 -91.5v-95q0 -60 35 -93.5t98 -33.5q66 0 106.5 41t40.5 106z" />
    <glyph glyph-name="atilde.ss01" 
d="M325 596q-28 1 -67 18q-39 18 -60 18q-30 0 -56 -35l-51 35q37 87 109 87q27 -2 66 -19q42 -17 61 -17q35 0 57 36l52 -35q-34 -88 -111 -88zM456 530h110v-530h-124v99h-8q-21 -51 -68 -80t-109 -29q-106 0 -163.5 72.5t-57.5 203.5q0 130 58 202t163 72q58 0 106 -28
t71 -76h8zM442 239v55q0 64 -40.5 104.5t-106.5 40.5q-63 0 -98 -33.5t-35 -91.5v-95q0 -60 35 -93.5t98 -33.5q66 0 106.5 41t40.5 106z" />
    <glyph glyph-name="g.ss01" 
d="M257 540q58 0 106 -28t71 -76h8l14 94h110v-486q0 -104 -69.5 -162.5t-189.5 -58.5q-104 0 -169 44t-71 117h121q4 -33 36 -52t83 -19q65 0 100 31t35 86v99h-8q-21 -51 -68 -80t-109 -29q-105 0 -163 70t-58 191t58.5 190t162.5 69zM162 324v-86q0 -53 36 -85t97 -32
q65 0 106 38.5t41 98.5v46q0 57 -41 96t-106 39q-62 0 -97.5 -31.5t-35.5 -83.5z" />
    <glyph glyph-name="gbreve.ss01" 
d="M349 744h79q0 -69 -42 -111t-113 -42q-70 0 -111.5 42.5t-41.5 110.5h78q0 -38 20.5 -60t54.5 -22t55 22t21 60zM257 540q58 0 106 -28t71 -76h8l14 94h110v-486q0 -104 -69.5 -162.5t-189.5 -58.5q-104 0 -169 44t-71 117h121q4 -33 36 -52t83 -19q65 0 100 31t35 86v99
h-8q-21 -51 -68 -80t-109 -29q-105 0 -163 70t-58 191t58.5 190t162.5 69zM162 324v-86q0 -53 36 -85t97 -32q65 0 106 38.5t41 98.5v46q0 57 -41 96t-106 39q-62 0 -97.5 -31.5t-35.5 -83.5z" />
    <glyph glyph-name="uni0123.ss01" 
d="M325 807v-37q-22 0 -34.5 -13.5t-12.5 -37.5v-7h47v-109h-103v92q0 53 27.5 82.5t75.5 29.5zM257 540q58 0 106 -28t71 -76h8l14 94h110v-486q0 -104 -69.5 -162.5t-189.5 -58.5q-104 0 -169 44t-71 117h121q4 -33 36 -52t83 -19q65 0 100 31t35 86v99h-8
q-21 -51 -68 -80t-109 -29q-105 0 -163 70t-58 191t58.5 190t162.5 69zM162 324v-86q0 -53 36 -85t97 -32q65 0 106 38.5t41 98.5v46q0 57 -41 96t-106 39q-62 0 -97.5 -31.5t-35.5 -83.5z" />
    <glyph glyph-name="gdotaccent.ss01" 
d="M324 603h-100v131h100v-131zM257 540q58 0 106 -28t71 -76h8l14 94h110v-486q0 -104 -69.5 -162.5t-189.5 -58.5q-104 0 -169 44t-71 117h121q4 -33 36 -52t83 -19q65 0 100 31t35 86v99h-8q-21 -51 -68 -80t-109 -29q-105 0 -163 70t-58 191t58.5 190t162.5 69zM162 324
v-86q0 -53 36 -85t97 -32q65 0 106 38.5t41 98.5v46q0 57 -41 96t-106 39q-62 0 -97.5 -31.5t-35.5 -83.5z" />
    <glyph glyph-name="a.ss02" horiz-adv-x="555" 
d="M34 150q0 78 51 122.5t141 44.5h144v39q0 89 -99 89q-47 0 -74 -21t-29 -56h-120q7 84 67 128t161 44q109 0 163.5 -50t54.5 -144v-346h-109l-13 88h-7q-18 -47 -62 -72.5t-105 -25.5q-77 0 -120.5 43.5t-43.5 116.5zM160 175v-24q0 -65 80 -65q60 0 95.5 36t35.5 93v21
h-127q-39 0 -61.5 -17t-22.5 -44z" />
    <glyph glyph-name="aacute.ss02" horiz-adv-x="555" 
d="M482 722l-206 -122l-39 59l193 144zM34 150q0 78 51 122.5t141 44.5h144v39q0 89 -99 89q-47 0 -74 -21t-29 -56h-120q7 84 67 128t161 44q109 0 163.5 -50t54.5 -144v-346h-109l-13 88h-7q-18 -47 -62 -72.5t-105 -25.5q-77 0 -120.5 43.5t-43.5 116.5zM160 175v-24
q0 -65 80 -65q60 0 95.5 36t35.5 93v21h-127q-39 0 -61.5 -17t-22.5 -44z" />
    <glyph glyph-name="abreve.ss02" horiz-adv-x="555" 
d="M351 749h79q0 -69 -42 -111t-113 -42q-70 0 -111.5 42.5t-41.5 110.5h78q0 -39 20.5 -60.5t54.5 -21.5t55 22t21 60zM34 150q0 78 51 122.5t141 44.5h144v39q0 89 -99 89q-47 0 -74 -21t-29 -56h-120q7 84 67 128t161 44q109 0 163.5 -50t54.5 -144v-346h-109l-13 88h-7
q-18 -47 -62 -72.5t-105 -25.5q-77 0 -120.5 43.5t-43.5 116.5zM160 175v-24q0 -65 80 -65q60 0 95.5 36t35.5 93v21h-127q-39 0 -61.5 -17t-22.5 -44z" />
    <glyph glyph-name="acircumflex.ss02" horiz-adv-x="555" 
d="M168 593l-59 58l131 131h74l131 -131l-61 -58l-107 114zM34 150q0 78 51 122.5t141 44.5h144v39q0 89 -99 89q-47 0 -74 -21t-29 -56h-120q7 84 67 128t161 44q109 0 163.5 -50t54.5 -144v-346h-109l-13 88h-7q-18 -47 -62 -72.5t-105 -25.5q-77 0 -120.5 43.5
t-43.5 116.5zM160 175v-24q0 -65 80 -65q60 0 95.5 36t35.5 93v21h-127q-39 0 -61.5 -17t-22.5 -44z" />
    <glyph glyph-name="adieresis.ss02" horiz-adv-x="555" 
d="M225 608h-100v131h100v-131zM427 608h-101v131h101v-131zM34 150q0 78 51 122.5t141 44.5h144v39q0 89 -99 89q-47 0 -74 -21t-29 -56h-120q7 84 67 128t161 44q109 0 163.5 -50t54.5 -144v-346h-109l-13 88h-7q-18 -47 -62 -72.5t-105 -25.5q-77 0 -120.5 43.5
t-43.5 116.5zM160 175v-24q0 -65 80 -65q60 0 95.5 36t35.5 93v21h-127q-39 0 -61.5 -17t-22.5 -44z" />
    <glyph glyph-name="agrave.ss02" horiz-adv-x="555" 
d="M315 659l-38 -59l-207 122l52 81zM34 150q0 78 51 122.5t141 44.5h144v39q0 89 -99 89q-47 0 -74 -21t-29 -56h-120q7 84 67 128t161 44q109 0 163.5 -50t54.5 -144v-346h-109l-13 88h-7q-18 -47 -62 -72.5t-105 -25.5q-77 0 -120.5 43.5t-43.5 116.5zM160 175v-24
q0 -65 80 -65q60 0 95.5 36t35.5 93v21h-127q-39 0 -61.5 -17t-22.5 -44z" />
    <glyph glyph-name="amacron.ss02" horiz-adv-x="555" 
d="M445 605h-337v92h337v-92zM34 150q0 78 51 122.5t141 44.5h144v39q0 89 -99 89q-47 0 -74 -21t-29 -56h-120q7 84 67 128t161 44q109 0 163.5 -50t54.5 -144v-346h-109l-13 88h-7q-18 -47 -62 -72.5t-105 -25.5q-77 0 -120.5 43.5t-43.5 116.5zM160 175v-24q0 -65 80 -65
q60 0 95.5 36t35.5 93v21h-127q-39 0 -61.5 -17t-22.5 -44z" />
    <glyph glyph-name="aogonek.ss02" horiz-adv-x="555" 
d="M467 -126q27 0 54 12v-66q-33 -15 -77 -15q-51 1 -81.5 28.5t-30.5 72.5q0 59 53 97l-13 85h-7q-18 -47 -62 -72.5t-105 -25.5q-77 0 -120.5 43.5t-43.5 116.5q0 78 51 122.5t141 44.5h144v39q0 89 -99 89q-47 0 -74 -21t-29 -56h-120q7 84 67 128t161 44
q109 0 163.5 -50t54.5 -144v-346h-2q-85 -19 -85 -79q0 -47 60 -47zM371 215v21h-127q-39 0 -61.5 -17t-22.5 -44v-24q0 -65 80 -65q60 0 95.5 36t35.5 93z" />
    <glyph glyph-name="aring.ss02" horiz-adv-x="555" 
d="M355 532q139 -33 139 -186v-346h-109l-13 88h-7q-18 -47 -62 -72.5t-105 -25.5q-77 0 -120.5 43.5t-43.5 116.5q0 78 51 122.5t141 44.5h144v39q0 89 -99 89q-47 0 -74 -21t-29 -56h-120q10 132 150 164q-42 34 -42 92q0 52 33.5 84t87.5 32q53 0 86.5 -32t33.5 -84
q0 -60 -42 -92zM313 663q-14 15 -36 15t-36 -15t-14 -39t14 -39t36 -15t36 15t14 39t-14 39zM371 215v21h-127q-39 0 -61.5 -17t-22.5 -44v-24q0 -65 80 -65q60 0 95.5 36t35.5 93z" />
    <glyph glyph-name="atilde.ss02" horiz-adv-x="555" 
d="M338 593q-28 1 -67 18q-39 18 -60 18q-30 0 -56 -35l-51 35q38 87 109 87q27 -2 66 -19q42 -17 61 -17q34 0 57 36l52 -35q-34 -88 -111 -88zM34 150q0 78 51 122.5t141 44.5h144v39q0 89 -99 89q-47 0 -74 -21t-29 -56h-120q7 84 67 128t161 44q109 0 163.5 -50
t54.5 -144v-346h-109l-13 88h-7q-18 -47 -62 -72.5t-105 -25.5q-77 0 -120.5 43.5t-43.5 116.5zM160 175v-24q0 -65 80 -65q60 0 95.5 36t35.5 93v21h-127q-39 0 -61.5 -17t-22.5 -44z" />
    <glyph glyph-name="o.ss03" horiz-adv-x="593" 
d="M36 265q0 128 70 201q71 74 190 74q117 0 189 -73t72 -202q0 -126 -70 -200q-69 -75 -191 -75q-119 0 -190 74q-70 73 -70 201zM162 305v-83q0 -61 37 -95.5t97 -34.5q61 0 97.5 34.5t36.5 95.5v83q0 60 -37 96.5t-97 36.5q-61 0 -97.5 -36t-36.5 -97zM337 225h-82v81h82
v-81z" />
    <glyph glyph-name="oacute.ss03" horiz-adv-x="593" 
d="M501 716l-206 -122l-39 59l193 144zM36 265q0 128 70 201q71 74 190 74q117 0 189 -73t72 -202q0 -126 -70 -200q-69 -75 -191 -75q-119 0 -190 74q-70 73 -70 201zM162 305v-83q0 -61 37 -95.5t97 -34.5q61 0 97.5 34.5t36.5 95.5v83q0 60 -37 96.5t-97 36.5
q-61 0 -97.5 -36t-36.5 -97zM337 225h-82v81h82v-81z" />
    <glyph glyph-name="ocircumflex.ss03" horiz-adv-x="593" 
d="M187 587l-59 58l131 131h74l131 -131l-61 -58l-107 114zM36 265q0 128 70 201q71 74 190 74q117 0 189 -73t72 -202q0 -126 -70 -200q-69 -75 -191 -75q-119 0 -190 74q-70 73 -70 201zM162 305v-83q0 -61 37 -95.5t97 -34.5q61 0 97.5 34.5t36.5 95.5v83q0 60 -37 96.5
t-97 36.5q-61 0 -97.5 -36t-36.5 -97zM337 225h-82v81h82v-81z" />
    <glyph glyph-name="odieresis.ss03" horiz-adv-x="593" 
d="M244 602h-100v131h100v-131zM446 602h-101v131h101v-131zM36 265q0 128 70 201q71 74 190 74q117 0 189 -73t72 -202q0 -126 -70 -200q-69 -75 -191 -75q-119 0 -190 74q-70 73 -70 201zM162 305v-83q0 -61 37 -95.5t97 -34.5q61 0 97.5 34.5t36.5 95.5v83q0 60 -37 96.5
t-97 36.5q-61 0 -97.5 -36t-36.5 -97zM337 225h-82v81h82v-81z" />
    <glyph glyph-name="ograve.ss03" horiz-adv-x="593" 
d="M334 653l-38 -59l-207 122l52 81zM36 265q0 128 70 201q71 74 190 74q117 0 189 -73t72 -202q0 -126 -70 -200q-69 -75 -191 -75q-119 0 -190 74q-70 73 -70 201zM162 305v-83q0 -61 37 -95.5t97 -34.5q61 0 97.5 34.5t36.5 95.5v83q0 60 -37 96.5t-97 36.5
q-61 0 -97.5 -36t-36.5 -97zM337 225h-82v81h82v-81z" />
    <glyph glyph-name="ohungarumlaut.ss03" horiz-adv-x="593" 
d="M388 698l-198 -129l-40 57l185 151zM606 691l-204 -122l-37 58l189 144zM36 265q0 128 70 201q71 74 190 74q117 0 189 -73t72 -202q0 -126 -70 -200q-69 -75 -191 -75q-119 0 -190 74q-70 73 -70 201zM162 305v-83q0 -61 37 -95.5t97 -34.5q61 0 97.5 34.5t36.5 95.5v83
q0 60 -37 96.5t-97 36.5q-61 0 -97.5 -36t-36.5 -97zM337 225h-82v81h82v-81z" />
    <glyph glyph-name="omacron.ss03" horiz-adv-x="593" 
d="M463 600h-337v92h337v-92zM36 265q0 128 70 201q71 74 190 74q117 0 189 -73t72 -202q0 -126 -70 -200q-69 -75 -191 -75q-119 0 -190 74q-70 73 -70 201zM162 305v-83q0 -61 37 -95.5t97 -34.5q61 0 97.5 34.5t36.5 95.5v83q0 60 -37 96.5t-97 36.5q-61 0 -97.5 -36
t-36.5 -97zM337 225h-82v81h82v-81z" />
    <glyph glyph-name="otilde.ss03" horiz-adv-x="593" 
d="M357 587q-28 1 -67 18q-39 18 -60 18q-30 0 -56 -35l-51 35q37 87 109 87q27 -2 66 -19q42 -17 61 -17q35 0 57 36l52 -35q-34 -88 -111 -88zM36 265q0 128 70 201q71 74 190 74q117 0 189 -73t72 -202q0 -126 -70 -200q-69 -75 -191 -75q-119 0 -190 74q-70 73 -70 201z
M162 305v-83q0 -61 37 -95.5t97 -34.5q61 0 97.5 34.5t36.5 95.5v83q0 60 -37 96.5t-97 36.5q-61 0 -97.5 -36t-36.5 -97zM337 225h-82v81h82v-81z" />
    <glyph glyph-name="h_t_t_p" horiz-adv-x="2051" 
d="M123 760h1805v-937h-652v551h-178v-272h106v-91h-121q-48 0 -72.5 22.5t-24.5 75.5v265h-194v-272h106v-91h-122q-48 0 -72 22.5t-24 75.5v265h-94v89h94v140h112v-140h194v140h112v-140h277l12 -89h8q19 46 63.5 72.5t102.5 26.5q95 0 150 -66q56 -65 56 -168
q0 -106 -58 -171q-57 -66 -150 -66q-59 0 -103 27t-61 73h-8v-205h462v788h-1646v-311h8q21 47 64.5 73t99.5 26q81 0 125.5 -54t44.5 -148v-260h-111v250q0 57 -27.5 88t-76.5 31q-57 0 -92 -41.5t-35 -108.5v-333h1001v-74h-1081v937zM1387 262v-48q0 -48 38 -83
q40 -35 96 -35q61 0 97 40.5t36 103.5t-36 101.5t-95 38.5q-57 0 -97 -36q-39 -36 -39 -82z" />
    <glyph glyph-name="w_w_w" horiz-adv-x="2002" 
d="M298 0h-144l-147 530h126l61 -246l34 -168h6l85 414h124l85 -414h5l95 414h126l95 -414h6l85 414h124l85 -414h5l95 414h126l95 -414h6l85 414h124l85 -414h5l35 166l60 248h125l-148 -530h-141l-81 379h-6l-78 -379h-144l-86 349l-85 -349h-142l-80 379h-6l-78 -379
h-145l-85 347l-85 -347h-141l-81 379h-6z" />
    <glyph glyph-name="zero.ss01" horiz-adv-x="633" 
d="M318 730q261 0 261 -370t-261 -370q-264 0 -264 370t264 370zM191 468v-216q0 -75 32 -113.5t93 -38.5q60 0 93 37.5t33 114.5v216q0 77 -33 114.5t-93 37.5q-61 0 -93 -38.5t-32 -113.5zM362 318h-97v88h97v-88z" />
    <glyph glyph-name="zero.tf" horiz-adv-x="602" 
d="M303 730q261 0 261 -370t-261 -370q-263 0 -263 370t263 370zM301 620q-124 0 -124 -152v-123l249 153q-12 122 -125 122zM301 100q126 0 126 152v130l-249 -153q9 -129 123 -129z" />
    <glyph glyph-name="one.tf" horiz-adv-x="592" 
d="M366 721v-612h194v-109h-522v109h203v392h-203v94q85 0 140.5 33t70.5 93h117z" />
    <glyph glyph-name="two.tf" horiz-adv-x="604" 
d="M353 112h206v-112h-488v87l281 292q62 67 62 110v37q0 41 -33 67.5t-82 26.5q-55 0 -87.5 -31.5t-32.5 -84.5v-19h-122q-4 114 64 179q67 66 183 66q110 0 177 -59q66 -58 66 -157q0 -44 -17 -86q-23 -59 -82 -119l-197 -204q60 7 102 7z" />
    <glyph glyph-name="three.tf" horiz-adv-x="604" 
d="M295 -10q-114 0 -183 60q-68 62 -68 159v16h127v-10q0 -55 32 -86t89 -31q56 0 91 27t35 71v28q0 46 -32 71t-88 25h-68v99h64q51 0 81 25.5t30 67.5v18q0 42 -29.5 67t-78.5 25q-53 0 -85 -31.5t-32 -83.5v-9h-124v14q0 97 67 157q67 61 178 61q105 0 169 -54
q65 -53 65 -141q0 -111 -98 -158v-7q54 -20 82 -65t28 -104q0 -95 -70 -153q-68 -58 -182 -58z" />
    <glyph glyph-name="four.tf" horiz-adv-x="603" 
d="M492 721v-469h88v-105h-88v-147h-126v147h-341v100l277 474h190zM366 623l-216 -371h216v371z" />
    <glyph glyph-name="five.tf" horiz-adv-x="604" 
d="M48 223h128q-1 -56 35 -90.5t97 -34.5q60 0 96 33t36 87v49q0 54 -36 87t-95 33q-47 0 -81 -21.5t-46 -57.5h-122l18 413h448v-111h-335l-9 -171l6 -2q46 52 144 52q109 0 173 -67t64 -177q0 -115 -71 -186q-70 -69 -192 -69q-116 0 -187 63q-70 64 -71 170z" />
    <glyph glyph-name="six.tf" horiz-adv-x="604" 
d="M45 357q0 180 69.5 276.5t208.5 96.5q102 0 165.5 -50t74.5 -137h-129q-14 80 -115 80q-153 0 -146 -231h6q49 91 171 91q101 0 163 -65t62 -174q0 -114 -69 -185q-69 -69 -187 -69q-138 0 -206 95.5t-68 271.5zM194 264v-52q0 -50 35 -80.5t91 -30.5q57 0 92 30t35 81
v52q0 55 -34.5 85t-90.5 30q-58 0 -93 -31t-35 -84z" />
    <glyph glyph-name="seven.tf" horiz-adv-x="604" 
d="M154 486h-103v235h511v-91q-102 -137 -179 -306q-77 -171 -104 -324h-136q23 146 96 309q75 166 171 301h-256v-124z" />
    <glyph glyph-name="eight.tf" horiz-adv-x="606" 
d="M292 -10q-121 0 -191 54.5t-70 145.5q0 59 29.5 103.5t79.5 62.5v8q-51 21 -80 65t-29 101q0 94 72 146q72 54 192 54t190 -54t70 -145q0 -57 -30 -101.5t-79 -65.5v-8q51 -19 80 -63t29 -103q0 -93 -71 -146.5t-192 -53.5zM424 504v22q0 45 -35 69.5t-96 24.5t-96 -24.5
t-35 -69.5v-22q0 -45 34 -68.5t97 -23.5t97 23.5t34 68.5zM424 196v22q0 91 -131 91t-131 -91v-22q0 -46 34.5 -71t96.5 -25t96.5 25t34.5 71z" />
    <glyph glyph-name="nine.tf" horiz-adv-x="604" 
d="M572 363q0 -180 -70 -276.5t-209 -96.5q-102 0 -165.5 50t-74.5 137h130q13 -79 114 -79q157 0 146 230h-6q-47 -90 -171 -90q-103 0 -164 64.5t-61 174.5q0 115 69 184t187 69q138 0 206.5 -95t68.5 -272zM423 457v51q0 50 -35.5 80.5t-91.5 30.5q-57 0 -91.5 -30
t-34.5 -81v-51q0 -55 34 -85.5t90 -30.5q58 0 93.5 31.5t35.5 84.5z" />
    <glyph glyph-name="zero.tf.ss01" horiz-adv-x="602" 
d="M303 730q261 0 261 -370t-261 -370q-263 0 -263 370t263 370zM301 620q-124 0 -124 -152v-59h250v59q0 152 -126 152zM301 100q126 0 126 152v62h-250v-62q0 -152 124 -152z" />
    <glyph glyph-name="zero.dnom" horiz-adv-x="418" 
d="M209 -4q-84 0 -129.5 64.5t-45.5 180.5q0 119 46.5 182t128.5 63q84 0 129.5 -65t45.5 -180q0 -118 -47 -181.5t-128 -63.5zM208 75q83 0 83 164q0 169 -81 169q-84 0 -84 -164q0 -169 82 -169z" />
    <glyph glyph-name="one.dnom" horiz-adv-x="313" 
d="M151 324h-124v72h45q41 0 62.5 21.5t21.5 58.5v4h84v-480h-89v324z" />
    <glyph glyph-name="two.dnom" horiz-adv-x="380" 
d="M142 76l69 4h130v-80h-303v16q0 99 76 163q12 10 46 37.5t48.5 41.5t29.5 38t15 47q0 31 -18 48.5t-49 17.5q-33 0 -52 -22t-17 -58l-89 6q2 68 46.5 109.5t117.5 41.5q70 0 111 -39t41 -104q0 -74 -60 -131q-15 -14 -50.5 -41.5t-59 -50t-32.5 -44.5z" />
    <glyph glyph-name="three.dnom" horiz-adv-x="379" 
d="M188 -7q-73 0 -117 41.5t-42 109.5h89q0 -33 19 -52.5t50 -19.5t50.5 18.5t19.5 47.5q0 30 -21 48.5t-54 18.5h-39v82h30q35 0 54 17.5t19 45.5q0 27 -16.5 42.5t-44.5 15.5q-32 0 -50 -19.5t-17 -52.5h-90q-2 67 41 108.5t117 41.5q69 0 111 -35t42 -95q0 -72 -67 -103
v-5q36 -13 56 -43.5t20 -70.5q0 -63 -45 -102t-115 -39z" />
    <glyph glyph-name="four.dnom" horiz-adv-x="382" 
d="M316 480v-312h51v-79h-51v-89h-88v89h-212v74l162 317h138zM228 392l-114 -224h114v224z" />
    <glyph glyph-name="five.dnom" horiz-adv-x="397" 
d="M33 148h90q0 -33 20.5 -54t53.5 -21q34 0 55.5 23.5t21.5 60.5q0 38 -22 62.5t-56 24.5q-52 0 -69 -42h-85v278h295v-79h-207v-62l-2 -43l2 -2q29 28 84 28q67 0 109 -46q42 -45 42 -116q0 -75 -47 -121t-122 -46q-72 0 -117.5 43t-45.5 112z" />
    <glyph glyph-name="six.dnom" horiz-adv-x="406" 
d="M32 235q0 118 47 184.5t134 66.5q63 0 105 -35t49 -93h-89q-11 50 -68 50q-88 0 -88 -142h4q13 24 41.5 38.5t62.5 14.5q64 0 104.5 -44t40.5 -115q0 -74 -46.5 -120t-122.5 -46q-84 0 -129 63t-45 178zM286 160q0 39 -21 62t-56 23t-55.5 -24.5t-20.5 -62.5
q0 -37 20.5 -61t55.5 -24t56 23.5t21 63.5z" />
    <glyph glyph-name="seven.dnom" horiz-adv-x="357" 
d="M22 480h319v-64q-147 -181 -185 -416h-88q30 231 167 401h-146v-75h-67v154z" />
    <glyph glyph-name="eight.dnom" horiz-adv-x="391" 
d="M28 127q0 79 69 110v5q-69 32 -69 111q0 60 46.5 96.5t122.5 36.5q75 0 120 -36.5t45 -96.5q0 -37 -17.5 -66.5t-49.5 -44.5v-5q67 -31 67 -111q0 -61 -45.5 -97t-121.5 -36q-77 0 -122 37t-45 97zM120 343q0 -30 21 -48t55 -18t54 18.5t20 47.5q0 30 -20.5 47.5
t-53.5 17.5q-35 0 -55.5 -18t-20.5 -47zM196 71q33 0 53.5 18.5t20.5 46.5q0 31 -20.5 49t-53.5 18q-34 0 -55 -18.5t-21 -48.5t20.5 -47.5t55.5 -17.5z" />
    <glyph glyph-name="nine.dnom" horiz-adv-x="406" 
d="M374 245q0 -118 -47 -184.5t-134 -66.5q-64 0 -106 35t-48 93h89q9 -49 69 -49q87 0 87 142h-5q-12 -26 -40.5 -40.5t-62.5 -14.5q-65 0 -105 44.5t-40 116.5t46.5 118.5t121.5 46.5q84 0 129.5 -63t45.5 -178zM197 408q-35 0 -56 -24t-21 -63t21 -62t56 -23t55 24t20 62
q0 37 -21 61.5t-54 24.5z" />
    <glyph glyph-name="zero.numr" horiz-adv-x="418" 
d="M209 251q-84 0 -129.5 63.5t-45.5 178.5q0 118 46.5 180t128.5 62q84 0 129.5 -63.5t45.5 -178.5q0 -117 -47 -179.5t-128 -62.5zM208 329q83 0 83 162q0 166 -81 166q-84 0 -84 -161q0 -167 82 -167z" />
    <glyph glyph-name="one.numr" horiz-adv-x="313" 
d="M151 575h-124v71h45q41 0 62.5 21t21.5 58v4h84v-473h-89v319z" />
    <glyph glyph-name="two.numr" horiz-adv-x="380" 
d="M142 330l69 4h130v-79h-303v17q0 98 76 160q11 9 46 37t49 41t29 37t15 47q0 30 -18 47t-49 17q-33 0 -52 -21.5t-17 -57.5l-89 6q2 67 47 108.5t117 41.5q70 0 111 -38.5t41 -102.5q0 -74 -60 -129q-16 -15 -51 -42t-58.5 -49.5t-32.5 -43.5z" />
    <glyph glyph-name="three.numr" horiz-adv-x="379" 
d="M188 248q-72 0 -116 41t-43 108h89q0 -32 19.5 -51.5t49.5 -19.5q31 0 50.5 18.5t19.5 46.5q0 30 -21 48t-54 18h-39v81h30q35 0 54 17.5t19 45.5q0 27 -16.5 41.5t-44.5 14.5q-31 0 -49.5 -19.5t-17.5 -51.5h-90q-2 67 41 108t117 41q69 0 111 -35t42 -93
q0 -71 -67 -102v-5q76 -30 76 -113q0 -61 -45 -100t-115 -39z" />
    <glyph glyph-name="four.numr" horiz-adv-x="382" 
d="M316 729v-309h51v-77h-51v-87h-88v87h-212v73l162 313h138zM228 642l-114 -222h114v222z" />
    <glyph glyph-name="five.numr" horiz-adv-x="397" 
d="M33 401h90q0 -33 20.5 -54t53.5 -21q34 0 55.5 23.5t21.5 60.5q0 38 -22 62.5t-56 24.5q-53 0 -69 -43h-85v275h295v-79h-207v-61l-2 -42l2 -2q28 28 84 28q67 0 109 -45t42 -115q0 -74 -46.5 -119.5t-122.5 -45.5q-72 0 -117.5 42t-45.5 111z" />
    <glyph glyph-name="six.numr" horiz-adv-x="406" 
d="M32 487q0 116 47 182t134 66q63 0 105 -34t49 -92h-89q-5 23 -23.5 35.5t-44.5 12.5q-88 0 -88 -139h4q13 24 42 38.5t62 14.5q64 0 104.5 -44.5t40.5 -113.5q0 -72 -47 -118t-122 -46q-84 0 -129 62t-45 176zM153 473q-20 -25 -20 -62t20 -61q21 -24 56 -24t56 24t21 63
t-21 62t-56 23t-56 -25z" />
    <glyph glyph-name="seven.numr" horiz-adv-x="357" 
d="M22 729h319v-64q-149 -179 -185 -409h-88q31 227 166 394h-145v-66h-67v145z" />
    <glyph glyph-name="eight.numr" horiz-adv-x="391" 
d="M28 380q0 76 69 110v5q-69 33 -69 109q0 60 46 95.5t123 35.5t121 -35.5t44 -95.5q0 -76 -67 -109v-5q67 -34 67 -110q0 -60 -46 -95.5t-121 -35.5t-121 36.5t-46 94.5zM120 594q0 -30 20.5 -47.5t55.5 -17.5q34 0 54 18t20 47q0 30 -20.5 47t-53.5 17q-35 0 -55.5 -18
t-20.5 -46zM120 390q0 -30 20.5 -47.5t55.5 -17.5q33 0 53.5 18.5t20.5 46.5q0 30 -20.5 48t-53.5 18q-35 0 -55.5 -18t-20.5 -48z" />
    <glyph glyph-name="nine.numr" horiz-adv-x="406" 
d="M374 497q0 -117 -47 -182.5t-134 -65.5q-63 0 -105.5 34.5t-48.5 92.5h89q11 -50 69 -50q87 0 87 140h-5q-28 -52 -103 -52q-65 0 -105 44t-40 113q0 73 46.5 118.5t121.5 45.5q84 0 129.5 -62.5t45.5 -175.5zM197 657q-35 0 -56 -24t-21 -61q0 -39 21 -62.5t56 -23.5
t55 25t20 62q0 36 -21 60t-54 24z" />
    <glyph glyph-name="numbersign.ss03" horiz-adv-x="611" 
d="M589 538l-18 -66h-95l-44 -190h118l-17 -66h-116l-50 -216h-77l50 216h-146l-50 -216h-76l50 216h-97l19 66h93l43 190h-116l19 66h113l48 211h76l-48 -211h146l49 211h77l-49 -211h98zM209 282h146l44 190h-147z" />
    <glyph glyph-name="parenleft.case" horiz-adv-x="295" 
d="M58 363q0 119 43 221q43 104 117 165h71q-75 -63 -116 -165t-41 -220q0 -119 41 -218.5t116 -165.5h-71q-74 62 -118 165q-42 103 -42 218z" />
    <glyph glyph-name="parenright.case" horiz-adv-x="295" 
d="M238 363q0 -116 -44 -219t-117 -164h-71q75 66 116 166.5t41 217.5q0 120 -41 221t-116 164h71q74 -61 118 -167q43 -102 43 -219z" />
    <glyph glyph-name="braceleft.case" horiz-adv-x="309" 
d="M35 300v69q68 0 68 74v211q0 37 20 58t58 21h103v-62h-109v-224q0 -47 -20 -75.5t-56 -33.5v-3q34 -7 55 -37t21 -74v-234h109v-63h-103q-37 0 -57.5 20.5t-20.5 59.5v220q0 73 -68 73z" />
    <glyph glyph-name="braceright.case" horiz-adv-x="309" 
d="M274 369v-69q-31 0 -50 -18t-19 -55v-220q0 -39 -20 -59.5t-57 -20.5h-103v63h108v234q0 44 20.5 73.5t56.5 37.5v3q-36 5 -56.5 33.5t-20.5 75.5v224h-108v62h103q38 0 57.5 -21t19.5 -58v-211q0 -34 17.5 -54t51.5 -20z" />
    <glyph glyph-name="bracketleft.case" horiz-adv-x="294" 
d="M268 -73h-184v817h184v-63h-114v-691h114v-63z" />
    <glyph glyph-name="bracketright.case" horiz-adv-x="294" 
d="M210 -73h-185v63h116v691h-116v63h185v-817z" />
    <glyph glyph-name="hyphen.case" horiz-adv-x="464" 
d="M407 333h-351v73h351v-73z" />
    <glyph glyph-name="endash.case" horiz-adv-x="640" 
d="M583 333h-527v73h527v-73z" />
    <glyph glyph-name="emdash.case" horiz-adv-x="836" 
d="M779 333h-723v73h723v-73z" />
    <glyph glyph-name="hyphen_hyphen_greater" horiz-adv-x="853" 
d="M702 231h-606v74h606l-169 229h91l200 -265l-200 -269h-91z" />
    <glyph glyph-name="greater.case" horiz-adv-x="543" 
d="M490 317l-390 -218v125l132 69l156 68v8l-153 65l-135 68v121l390 -212v-94z" />
    <glyph glyph-name="less.case" horiz-adv-x="543" 
d="M443 224v-125l-390 218v94l390 212v-121l-136 -68l-152 -65v-8l155 -68z" />
    <glyph glyph-name="percent.tf" horiz-adv-x="606" 
d="M30 581q0 69 44 113.5t113 44.5q71 0 114 -45q44 -46 44 -115q0 -68 -44 -114q-44 -44 -114 -44q-67 0 -113 44q-44 46 -44 116zM115 581q0 -38 20 -61.5t52 -23.5t53 24t21 61q0 35 -21 58.5t-53 23.5t-52 -23t-20 -59zM578 444l-548 -216v66l548 218v-68zM253 151
q0 69 44 113q43 45 114 45t114.5 -44t43.5 -114q0 -69 -45 -116q-44 -45 -113 -45t-114 45q-44 46 -44 116zM338 151q0 -38 20 -61t53 -23q32 0 53 23.5t21 60.5q0 36 -21 60t-53 24t-52.5 -24t-20.5 -60z" />
    <glyph glyph-name="perthousand.tf" horiz-adv-x="663" 
d="M191 437q-69 0 -113.5 42t-44.5 109t44.5 109t113.5 42q68 0 113 -42t45 -109t-45 -109t-113 -42zM191 664q-32 0 -52 -21t-20 -55t19 -54q20 -20 53 -20t53 21q21 21 21 54t-20.5 54t-53.5 21zM61 335l548 215v-66l-548 -216v67zM482 292q66 0 108 -41.5t42 -108.5
q0 -68 -41.5 -110t-109.5 -42q-76 0 -122 58q-43 -58 -122 -58q-68 0 -109.5 42t-41.5 110q0 67 41.5 108.5t108.5 41.5q74 0 122 -58q48 58 124 58zM547 144q0 32 -20.5 53t-51.5 21q-32 0 -53 -21q-20 -21 -20 -55t20 -55q22 -20 53 -20q32 0 52 21.5t20 55.5zM243 65
q33 0 53 21.5t20 55.5q0 33 -20 54t-52 21t-52.5 -21t-20.5 -54q0 -34 20 -55.5t52 -21.5z" />
    <glyph glyph-name="at.ss03" horiz-adv-x="910" 
d="M565 504h60l-18 -256q-5 -72 54 -72q51 0 81 51.5t30 136.5q0 140 -83 220t-222 80q-155 0 -242 -97q-86 -98 -86 -260q0 -159 91 -248t257 -89h212v-74h-212q-205 0 -320 111q-115 112 -115 303t114 310q115 118 301 118q174 0 280 -103q107 -104 107 -266
q0 -117 -54 -192q-54 -74 -137 -74q-89 0 -111 78h-6q-34 -75 -120 -75q-70 0 -112 52.5t-42 141.5q0 93 47 155q48 61 123 61q74 0 107 -58h4zM436 179q45 0 73.5 39.5t28.5 104.5q0 58 -23 90.5t-63 32.5q-45 0 -72 -39t-27 -107q0 -58 22 -89.5t61 -31.5z" />
    <glyph glyph-name="less_hyphen_hyphen" horiz-adv-x="853" 
d="M757 305v-74h-606l169 -231h-91l-200 269l200 265h91l-169 -229h606z" />
    <glyph glyph-name="uni1F310" horiz-adv-x="1009" 
d="M505 738q199 0 323 -105q125 -104 125 -268q0 -165 -126 -270q-125 -105 -322 -105t-323 105q-125 105 -125 270q0 166 124 269q125 104 324 104zM404 575h201q-17 63 -43 97.5t-57 34.5q-65 0 -101 -132zM638 575h104q-59 95 -160 122q33 -40 56 -122zM268 575h103
q23 82 56 122q-102 -27 -159 -122zM778 575h65q-58 67 -151 101q53 -41 86 -101zM317 676q-93 -34 -151 -101h65q33 60 86 101zM828 381h92q-5 89 -49 157h-75q29 -72 32 -157zM89 381h92q3 88 33 157h-76q-44 -68 -49 -157zM363 538h-114q-31 -69 -34 -157h133q1 88 15 157
zM380 381h249q-1 89 -15 157h-219q-14 -68 -15 -157zM661 381h134q-3 88 -34 157h-115q14 -69 15 -157zM181 346h-91q5 -86 49 -154h74q-29 72 -32 154zM348 346h-133q3 -85 34 -154h114q-14 69 -15 154zM629 346h-249q1 -86 15 -154h219q13 76 15 154zM646 192h114
q31 66 35 154h-134q-1 -85 -15 -154zM919 346h-91q-3 -77 -32 -154h75q44 71 48 154zM230 157h-65q56 -65 149 -102q-54 43 -84 102zM371 157h-104q58 -97 159 -124q-36 46 -55 124zM606 157h-203q37 -135 102 -135q31 0 57.5 35.5t43.5 99.5zM742 157h-104
q-19 -81 -56 -125q101 28 160 125zM695 55q94 35 149 102h-65q-33 -61 -84 -102z" />
    <glyph glyph-name="uni1F441" horiz-adv-x="854" 
d="M61 364q0 165 104 269t262 104t262 -104t104 -269q0 -168 -104 -272t-262 -104q-159 0 -263 104q-103 103 -103 272zM120 364q0 -142 87 -232q89 -89 220 -89q132 0 219 89q88 89 88 232q0 141 -88 229q-87 89 -219 89q-131 0 -220 -89q-87 -89 -87 -229zM251 365
q0 77 51 127q52 50 125 50q75 0 125 -50q51 -49 51 -127q0 -81 -50 -131t-126 -50q-74 0 -126 50q-50 50 -50 131zM276 374v-21l142 7l-91 -83l15 -17l82 94l-6 -146h20l-7 146l82 -94l16 17l-92 83l142 -7v21l-142 -6l92 83l-16 16l-82 -93l7 145h-20l6 -145l-82 93
l-15 -16l91 -83z" />
    </font>
</defs>
</svg>
