<?xml version="1.0" standalone="no"?>
<!DOCTYPE svg PUBLIC "-//W3C//DTD SVG 1.1//EN" "http://www.w3.org/Graphics/SVG/1.1/DTD/svg11.dtd" >
<svg xmlns="http://www.w3.org/2000/svg" xmlns:xlink="http://www.w3.org/1999/xlink" version="1.1">
<metadata>
Created by FontForge 20170731 at Tue Jul 10 19:29:50 2018
 By Aleksey,,,
Copyright (c) 2017 by Deni Anggara. All rights reserved.
</metadata>
<defs>
<font id="AllianceNo.2-RegularItalic" horiz-adv-x="0" >
  <font-face 
    font-family="Alliance No.2"
    font-weight="400"
    font-style="italic"
    font-stretch="normal"
    units-per-em="1000"
    panose-1="0 0 5 0 0 0 0 0 0 0"
    ascent="802"
    descent="-198"
    x-height="522"
    cap-height="729"
    bbox="-419 -233 2179 979"
    underline-thickness="50"
    underline-position="-200"
    slope="-8"
    unicode-range="U+000D-FB02"
  />
<missing-glyph horiz-adv-x="644" 
d="M710 0h-644v729h644v-729zM129 666v-604h518v604h-518zM584 125h-392v478h392v-478zM255 540v-351h266v351h-266zM318 252v225h140v-225h-140z" />
    <glyph glyph-name="fi" unicode="fi" horiz-adv-x="602" 
d="M239 522h314l-74 -522h-86l64 450h-229l-63 -450h-86l63 450h-101l11 72h101l4 31l14 102q10 78 88 78h144l-9 -71h-136l-15 -109zM480 619l16 114h85l-15 -114h-86z" />
    <glyph glyph-name="fl" unicode="fl" horiz-adv-x="608" 
d="M259 733h328l-102 -733h-86l93 662h-234l-15 -109l-4 -31h113l-11 -72h-113l-63 -450h-86l63 450h-101l10 72h102l4 31l14 102q10 78 88 78z" />
    <glyph glyph-name="f_f" unicode="ff" horiz-adv-x="669" 
d="M712 662h-136l-15 -109l-4 -31h113l-11 -72h-113l-63 -450h-86l63 450h-232l-63 -450h-86l63 450h-101l11 72h101l4 31l14 102q10 78 88 78h142l-10 -71h-133l-15 -109l-4 -31h232l4 31l14 103q11 77 88 77h144z" />
    <glyph glyph-name="f_f_i" unicode="ffi" horiz-adv-x="920" 
d="M557 522h314l-74 -522h-86l64 450h-229l-63 -450h-86l63 450h-232l-63 -450h-86l63 450h-101l11 72h101l4 31l14 102q10 78 88 78h142l-10 -71h-133l-15 -109l-4 -31h232l4 31l14 102q11 78 88 78h144l-9 -71h-136l-15 -109zM797 610l16 114h86l-16 -114h-86z" />
    <glyph glyph-name="f_t" unicode="ft" horiz-adv-x="687" 
d="M672 450h-110l-36 -256l-17 -122h111l-10 -72h-120q-76 0 -66 73l53 377h-248l-63 -450h-86l63 450h-102l11 72h102l3 27l16 112q11 72 92 72h138l-9 -71h-135l-16 -113l-3 -27h247l24 173h86l-24 -173h110z" />
    <glyph glyph-name="t_i" unicode="ti" horiz-adv-x="599" 
d="M476 610l15 114h86l-16 -114h-85zM232 522h317l-74 -522h-86l64 450h-232l-36 -256l-17 -122h108l-10 -72h-115q-78 0 -67 77l16 117l36 256h-96l10 72h96l24 173h86z" />
    <glyph glyph-name="t_t" unicode="tt" horiz-adv-x="662" 
d="M647 450h-108l-36 -256l-17 -122h109l-10 -72h-117q-78 0 -67 77l16 117l36 256h-231l-36 -256l-17 -122h109l-10 -72h-117q-78 0 -67 77l16 117l36 256h-96l10 72h96l24 173h87l-24 -173h230l24 173h87l-24 -173h108z" />
    <glyph glyph-name="t_t_i" unicode="tti" horiz-adv-x="916" 
d="M793 610l15 114h86l-16 -114h-85zM550 522h316l-74 -522h-85l63 450h-231l-36 -256l-17 -122h109l-10 -72h-117q-78 0 -67 77l16 117l36 256h-231l-36 -256l-17 -122h109l-10 -72h-117q-78 0 -67 77l16 117l36 256h-96l10 72h96l24 173h87l-24 -173h230l24 173h87z" />
    <glyph glyph-name=".notdef" horiz-adv-x="644" 
d="M710 0h-644v729h644v-729zM129 666v-604h518v604h-518zM584 125h-392v478h392v-478zM255 540v-351h266v351h-266zM318 252v225h140v-225h-140z" />
    <glyph glyph-name=".null" 
 />
    <glyph glyph-name="nonmarkingreturn" horiz-adv-x="333" 
 />
    <glyph glyph-name="CR.001" unicode="&#xd;" horiz-adv-x="239" 
 />
    <glyph glyph-name="space" unicode=" " horiz-adv-x="233" 
 />
    <glyph glyph-name="exclam" unicode="!" horiz-adv-x="280" 
d="M156 219h-42l20 303l29 207h87l-29 -207zM153 0h-99l13 91h99z" />
    <glyph glyph-name="quotedbl" unicode="&#x22;" horiz-adv-x="354" 
d="M185 598l-45 -161h-36l-1 161l19 131h82zM346 598l-44 -161h-37v161l18 131h82z" />
    <glyph glyph-name="numbersign" unicode="#" horiz-adv-x="720" 
d="M697 539l-8 -57h-117l-29 -209h116l-8 -57h-116l-30 -216h-61l30 216l-239 -1l-30 -215h-61l30 215h-117l7 57h118l29 209h-117l8 57h117l30 212h61l-30 -212l239 1l30 211h61l-30 -211h117zM243 272l239 1l29 209l-239 -1z" />
    <glyph glyph-name="dollar" unicode="$" horiz-adv-x="552" 
d="M525 501h-86q6 51 -24 82t-87 31q-58 0 -93.5 -31t-35.5 -81q0 -32 22.5 -50.5t69.5 -31.5l85 -22q131 -35 131 -140q0 -84 -61 -141q-62 -58 -159 -65l-13 -90h-67l13 91q-89 9 -132 61t-31 133h86q-8 -62 24 -94.5t99 -32.5t108 33t41 86q0 60 -86 83l-85 22
q-136 36 -136 140q0 79 55 133q55 55 145 63l13 91h67l-13 -91q79 -9 119.5 -56.5t30.5 -122.5z" />
    <glyph glyph-name="percent" unicode="%" horiz-adv-x="898" 
d="M103 557q0 81 48 130q50 50 128 50q79 0 127.5 -50t48.5 -131q0 -82 -49 -132q-48 -50 -127 -50t-127.5 50.5t-48.5 132.5zM305 0h-73l462 729h73zM174 557q0 -54 29 -87.5t76 -33.5t76 33.5t29 87.5q0 53 -29 86t-76 33q-46 0 -75.5 -33t-29.5 -86zM529 173q0 81 49 130
q50 51 128 51t126 -50.5t48 -131.5t-48 -131.5t-126 -50.5q-79 0 -128 50.5t-49 132.5zM600 173q0 -54 29.5 -87.5t76.5 -33.5q46 0 75 33.5t29 87.5q0 53 -29 86.5t-75 33.5q-47 0 -76.5 -34t-29.5 -86z" />
    <glyph glyph-name="ampersand" unicode="&#x26;" horiz-adv-x="649" 
d="M591 0h-343q-214 0 -214 158q0 76 41 138q39 60 106 80l1 8q-85 34 -85 132t69 159q71 62 182 62q42 0 82 -8l-10 -74q-26 10 -73 10q-68 0 -108.5 -29t-48.5 -81l-6 -34q-8 -53 28 -78q35 -25 92 -25h153l17 116h84l-16 -116h108l-11 -74h-108l-38 -268h109zM255 76h154
l37 268h-164q-66 0 -105 -31t-47 -88l-5 -39q-17 -110 130 -110z" />
    <glyph glyph-name="quotesingle" unicode="'" horiz-adv-x="193" 
d="M185 598l-45 -161h-36l-1 161l19 131h82z" />
    <glyph glyph-name="parenleft" unicode="(" horiz-adv-x="403" 
d="M84 240q0 153 83 302q84 149 213 227h64q-129 -77 -213 -226q-83 -149 -83 -302q0 -115 45 -216q45 -100 123 -157h-63q-81 60 -125 158q-44 102 -44 214z" />
    <glyph glyph-name="parenright" unicode=")" horiz-adv-x="400" 
d="M337 396q0 -154 -84 -303q-82 -148 -212 -225h-63q129 76 212 226q83 151 83 304q0 116 -45 215q-45 101 -124 156h63q78 -56 124 -158q46 -99 46 -215z" />
    <glyph glyph-name="asterisk" unicode="*" horiz-adv-x="347" 
d="M97 491l-19 42l114 50l-100 52l31 43l86 -70l6 121h48l-28 -122l107 71l19 -43l-116 -52l102 -50l-31 -42l-87 70l-7 -122h-48l29 122z" />
    <glyph glyph-name="plus" unicode="+" horiz-adv-x="644" 
d="M562 287h-199l-30 -215h-76l30 215h-198l10 73h198l29 205h76l-28 -205h198z" />
    <glyph glyph-name="comma" unicode="," horiz-adv-x="203" 
d="M-15 -142l5 43q71 0 81 70l4 29h-61l17 123h112l-21 -151q-8 -54 -45 -84t-92 -30z" />
    <glyph glyph-name="hyphen" unicode="-" horiz-adv-x="461" 
d="M401 271h-339l9 59h338z" />
    <glyph glyph-name="period" unicode="." horiz-adv-x="246" 
d="M143 0h-113l18 126h113z" />
    <glyph glyph-name="slash" unicode="/" horiz-adv-x="411" 
d="M56 0h-64l393 729h63z" />
    <glyph glyph-name="zero" unicode="0" horiz-adv-x="626" 
d="M71 240q0 225 84 357q85 133 227 133q205 0 205 -249q0 -225 -84 -358q-82 -133 -225 -133q-207 0 -207 250zM193 468l-30 -216q-13 -89 20.5 -136.5t104.5 -47.5q69 0 116.5 47t61.5 137l30 216q12 89 -21.5 136.5t-104.5 47.5t-117.5 -47.5t-59.5 -136.5z" />
    <glyph glyph-name="one" unicode="1" horiz-adv-x="458" 
d="M275 530h-181l10 68h28q70 0 118.5 34t56.5 89h81l-101 -721h-86z" />
    <glyph glyph-name="two" unicode="2" horiz-adv-x="578" 
d="M396 297l-238 -222l112 4h221l-11 -79h-451l9 64l298 279q105 97 114 158l4 36q7 52 -25 83t-92 31q-61 0 -105 -35t-51 -91l-3 -23h-87l2 19q10 93 85 151q73 58 177 58q89 0 141 -46.5t52 -125.5q0 -86 -52 -153q-25 -33 -44 -54q-14 -15 -56 -54z" />
    <glyph glyph-name="three" unicode="3" horiz-adv-x="592" 
d="M275 -10q-109 0 -163 62t-36 166h92q-14 -73 18 -112t98 -39q65 0 109.5 31.5t51.5 82.5l5 39q8 55 -27.5 84.5t-106.5 29.5h-53l10 76h51q66 0 107.5 29t47.5 77l5 36q6 48 -27.5 74t-89.5 26q-65 0 -105.5 -38.5t-50.5 -109.5h-91q12 103 85 164q74 62 178 62
q88 0 141 -44t53 -117q0 -64 -34.5 -113.5t-99.5 -76.5v-6q49 -18 74 -56.5t25 -88.5q0 -104 -76 -171q-74 -67 -191 -67z" />
    <glyph glyph-name="four" unicode="4" horiz-adv-x="611" 
d="M542 721l-69 -490h90l-10 -75h-91l-22 -156h-87l22 156h-354l11 76l373 489h137zM124 231h262l60 427z" />
    <glyph glyph-name="five" unicode="5" horiz-adv-x="604" 
d="M72 220h89q-11 -66 24 -109t101 -43q63 0 111 33q48 34 56 88l13 88q7 55 -32 89q-38 34 -102 34q-46 0 -88 -21t-60 -53h-82l70 395h413l-11 -78h-335l-42 -221l4 -1q25 24 68.5 39.5t86.5 15.5q92 0 145.5 -52.5t53.5 -143.5q0 -126 -80 -209q-79 -81 -203 -81
q-104 0 -160 63q-56 65 -40 167z" />
    <glyph glyph-name="six" unicode="6" horiz-adv-x="610" 
d="M75 242q0 224 85 355q85 133 231 133q94 0 146.5 -48.5t48.5 -133.5h-91q0 52 -31.5 78.5t-84.5 26.5q-175 0 -201 -287h4q62 102 185 102q88 0 138.5 -49.5t50.5 -138.5q0 -129 -76 -209q-76 -81 -195 -81q-210 0 -210 252zM184 271l-11 -77q-9 -59 28 -93
q37 -33 95 -33q57 0 103 34t55 92l11 77q7 59 -30 90q-38 32 -93 32q-58 0 -104 -33q-46 -31 -54 -89z" />
    <glyph glyph-name="seven" unicode="7" horiz-adv-x="547" 
d="M147 511h-74l29 210h474l-9 -62q-120 -141 -224 -320q-101 -176 -154 -339h-95q48 152 146 326q99 172 218 317h-292z" />
    <glyph glyph-name="eight" unicode="8" horiz-adv-x="593" 
d="M259 -10q-103 0 -158.5 44.5t-55.5 122.5q0 67 34.5 121t96.5 78l1 8q-85 37 -85 133q0 103 75 167q76 65 195 65q102 0 158 -45.5t56 -123.5q0 -67 -34.5 -119t-96.5 -77l-1 -8q84 -40 84 -136q0 -103 -75 -167q-73 -63 -194 -63zM315 396q67 0 112 28.5t52 78.5l5 40
q7 53 -28 80.5t-105 27.5t-112 -27.5t-50 -80.5l-6 -40q-7 -50 29 -78.5t103 -28.5zM270 68q68 0 112.5 30t51.5 85l5 41q7 48 -29 74t-105 26t-112 -26t-50 -74l-5 -41q-7 -56 28.5 -85.5t103.5 -29.5z" />
    <glyph glyph-name="nine" unicode="9" horiz-adv-x="609" 
d="M572 478q0 -221 -86 -355q-85 -133 -229 -133q-95 0 -147.5 48.5t-48.5 133.5h91q0 -52 31.5 -78.5t84.5 -26.5q174 0 201 287h-5q-62 -102 -184 -102q-88 0 -138 50t-50 139q0 129 75 208q77 81 195 81q210 0 210 -252zM463 450l10 76q9 57 -26.5 91.5t-95.5 34.5
q-58 0 -104 -34q-47 -35 -54 -92l-11 -76q-8 -59 29 -90q38 -32 95 -32q55 0 102 32q48 32 55 90z" />
    <glyph glyph-name="colon" unicode=":" horiz-adv-x="273" 
d="M218 409h-113l16 113h113zM160 0h-112l15 112h113z" />
    <glyph glyph-name="semicolon" unicode=";" horiz-adv-x="242" 
d="M185 409h-112l16 113h112zM-12 -130l6 38q39 0 55.5 15.5t22.5 48.5l4 28h-61l16 112h112l-19 -140q-7 -48 -43 -75t-93 -27z" />
    <glyph glyph-name="less" unicode="&#x3c;" horiz-adv-x="554" 
d="M448 130l-14 -95l-351 223l9 68l413 209l-14 -96l-318 -145l-1 -7l146 -81z" />
    <glyph glyph-name="equal" unicode="=" horiz-adv-x="549" 
d="M475 359h-373l11 81h374zM447 154h-374l12 80h373z" />
    <glyph glyph-name="greater" unicode="&#x3e;" horiz-adv-x="554" 
d="M472 258l-415 -223l13 95l151 76l171 81l1 7l-279 145l13 96l354 -209z" />
    <glyph glyph-name="question" unicode="?" horiz-adv-x="580" 
d="M274 197h-83l28 198q35 -6 66 -6q84 0 135 44t51 116q0 53 -36 82t-97 29q-66 0 -110 -33t-55 -91h-86q16 94 89 147q72 54 176 54q96 0 151.5 -47.5t55.5 -128.5q0 -108 -76 -177q-78 -68 -192 -67zM261 0h-114l15 110h114z" />
    <glyph glyph-name="at" unicode="@" horiz-adv-x="920" 
d="M742 -48h-651l93 663h651l-68 -490h-176q-33 0 -49.5 15t-14.5 41l1 8h-6q-15 -27 -46.5 -42.5t-70.5 -15.5q-54 0 -82.5 31.5t-28.5 88.5q0 88 44 140t118 52q37 0 64 -16t36 -43h3l7 53h57l-35 -248h116l50 356h-506l-74 -523h578zM520 267l5 40q5 34 -12.5 54
t-52.5 20q-72 0 -84 -73l-6 -41q-5 -34 12.5 -54t52.5 -20t57.5 20t27.5 54z" />
    <glyph glyph-name="A" unicode="A" horiz-adv-x="665" 
d="M624 0h-96l-39 172h-336l-88 -172h-97l377 729h104zM256 372l-64 -125h280l-29 125l-54 265h-4z" />
    <glyph glyph-name="B" unicode="B" horiz-adv-x="710" 
d="M398 0h-333l102 729h340q85 0 130 -39t45 -110t-34.5 -125t-96.5 -75l-1 -8q101 -29 101 -140q0 -104 -69 -169q-69 -63 -184 -63zM246 652l-35 -243h246q50 0 83.5 26t39.5 71l8 51q6 45 -19.5 70t-78.5 25h-244zM201 333l-36 -256h238q60 0 100.5 27t47.5 73l7 53
q7 48 -21.5 75.5t-82.5 27.5h-253z" />
    <glyph glyph-name="C" unicode="C" horiz-adv-x="751" 
d="M340 -10q-137 0 -211 76t-74 215q0 207 109 332q110 126 289 126q133 0 208 -69t73 -185h-94q-4 79 -56.5 125t-144.5 46q-111 0 -185 -64q-74 -63 -90 -172l-16 -118q-14 -101 42 -166q57 -64 163 -64q87 0 155.5 46.5t97.5 125.5h94q-34 -117 -132 -186
q-97 -68 -228 -68z" />
    <glyph glyph-name="D" unicode="D" horiz-adv-x="747" 
d="M360 0h-295l102 729h295q132 0 197.5 -63.5t65.5 -196.5q0 -223 -95 -347q-95 -122 -270 -122zM246 646l-79 -563h204q107 0 166 52t76 169l16 120q17 116 -27.5 169t-151.5 53h-204z" />
    <glyph glyph-name="E" unicode="E" horiz-adv-x="645" 
d="M549 0h-484l102 729h484l-11 -83h-394l-32 -231h346l-12 -79h-346l-35 -253h394z" />
    <glyph glyph-name="F" unicode="F" horiz-adv-x="611" 
d="M155 0h-90l102 729h476l-11 -83h-386l-39 -279h345l-10 -79h-346z" />
    <glyph glyph-name="G" unicode="G" horiz-adv-x="812" 
d="M54 280q0 202 112 329q112 129 289 129q122 0 196 -61q77 -61 81 -162h-95q-5 64 -57 102.5t-134 38.5q-110 0 -189 -66q-77 -66 -94 -174l-16 -114q-14 -105 43 -169q57 -65 168 -65q110 0 189 67q81 68 97 173h-283l11 78h376l-55 -386h-74l9 127h-7
q-102 -137 -287 -137q-134 0 -207 77t-73 213z" />
    <glyph glyph-name="H" unicode="H" horiz-adv-x="802" 
d="M155 0h-90l102 729h90l-44 -317h419l44 317h90l-102 -729h-90l46 334h-418z" />
    <glyph glyph-name="I" unicode="I" horiz-adv-x="293" 
d="M257 729l-102 -729h-90l102 729h90z" />
    <glyph glyph-name="J" unicode="J" horiz-adv-x="393" 
d="M212 291l62 438h88l-61 -438l-30 -214q-11 -77 -89 -77h-203l12 82h192z" />
    <glyph glyph-name="K" unicode="K" horiz-adv-x="671" 
d="M616 729h107l-310 -318l218 -411h-107l-180 340l-165 -170l-24 -170h-90l102 729h90l-61 -435z" />
    <glyph glyph-name="L" unicode="L" horiz-adv-x="571" 
d="M500 0h-435l102 729h90l-90 -646h345z" />
    <glyph glyph-name="M" unicode="M" horiz-adv-x="910" 
d="M154 0h-89l102 729h121l156 -527h6l304 527h121l-102 -729h-89l55 395l39 214h-6l-351 -596l-183 596h-6l-22 -215z" />
    <glyph glyph-name="N" unicode="N" horiz-adv-x="791" 
d="M155 0h-90l102 729h112l302 -615h4l25 221l55 394h90l-102 -729h-113l-300 615h-4l-24 -212z" />
    <glyph glyph-name="O" unicode="O" horiz-adv-x="772" 
d="M55 282q0 205 110 330q109 126 290 126q141 0 217.5 -76.5t76.5 -215.5q0 -204 -110 -331q-110 -125 -289 -125q-142 0 -218.5 76t-76.5 216zM164 416l-15 -102q-17 -113 40.5 -177.5t170.5 -64.5q116 0 190 65q74 66 90 177l15 102q16 111 -41 175.5t-171 64.5
q-115 0 -189 -64.5t-90 -175.5z" />
    <glyph glyph-name="P" unicode="P" horiz-adv-x="675" 
d="M155 0h-90l102 729h316q99 0 150 -47t51 -134q0 -130 -72 -206t-193 -76h-226zM246 645l-42 -299h222q65 0 105.5 31.5t47.5 85.5l10 73q8 50 -21.5 79.5t-87.5 29.5h-234z" />
    <glyph glyph-name="Q" unicode="Q" horiz-adv-x="772" 
d="M749 446q0 -195 -101 -320q-101 -123 -266 -135l-16 -115h137l-9 -68h-147q-79 0 -67 77l15 108q-116 14 -178 89t-62 200q0 205 110 330q109 126 290 126q141 0 217.5 -76.5t76.5 -215.5zM164 416l-15 -102q-17 -113 40.5 -177.5t170.5 -64.5q116 0 190 65q74 66 90 177
l15 102q16 111 -41 175.5t-171 64.5q-115 0 -189 -64.5t-90 -175.5z" />
    <glyph glyph-name="R" unicode="R" horiz-adv-x="723" 
d="M155 0h-90l102 729h338q92 0 138.5 -43.5t46.5 -125.5q0 -80 -35.5 -140.5t-96.5 -81.5l-1 -6h39q68 0 58 -73l-37 -259h-91l39 281h-370zM246 648l-40 -288h231q62 0 101.5 30.5t46.5 81.5l9 65q8 54 -23 82.5t-94 28.5h-231z" />
    <glyph glyph-name="S" unicode="S" horiz-adv-x="670" 
d="M57 225h93q-9 -78 37.5 -119.5t135.5 -41.5t143 42q55 43 55 113q0 75 -101 98l-124 29l-43 10q-15 4 -45 18q-32 15 -46 28q-44 44 -44 105q0 102 80 167t206 65q119 0 182.5 -56.5t51.5 -154.5h-93q5 66 -35 101.5t-116 35.5q-79 0 -128.5 -37.5t-49.5 -97.5
q0 -49 42 -72q33 -15 73 -25l133 -30q154 -34 154 -162q0 -111 -86 -182q-86 -69 -224 -69t-202 66q-63 67 -49 169z" />
    <glyph glyph-name="T" unicode="T" horiz-adv-x="555" 
d="M72 729h544l-12 -82h-226l-91 -647h-90l90 647h-227z" />
    <glyph glyph-name="U" unicode="U" horiz-adv-x="775" 
d="M115 270l64 459h90l-64 -451q-13 -96 34 -150t140 -54q94 0 156 54.5t75 149.5l64 451h89l-64 -459q-18 -128 -108 -204q-88 -76 -224 -76q-139 0 -205 76q-65 77 -47 204z" />
    <glyph glyph-name="V" unicode="V" horiz-adv-x="655" 
d="M350 0h-118l-160 729h99l74 -348l53 -298h7l139 297l172 349h98z" />
    <glyph glyph-name="W" unicode="W" horiz-adv-x="927" 
d="M124 0l-47 729h94l25 -434l6 -195h6l258 629h122l82 -629h6l60 194l146 435h99l-251 -729h-127l-85 630h-5l-262 -630h-127z" />
    <glyph glyph-name="X" unicode="X" horiz-adv-x="616" 
d="M85 0h-108l285 369l-175 360h102l72 -153l68 -152h6l227 305h108l-281 -364l178 -365h-101l-67 137l-76 165h-6l-131 -173z" />
    <glyph glyph-name="Y" unicode="Y" horiz-adv-x="647" 
d="M284 295l-213 434h106l87 -189l69 -159h8l115 160l138 188h113l-333 -434l-41 -295h-91z" />
    <glyph glyph-name="Z" unicode="Z" horiz-adv-x="575" 
d="M84 729h538l-10 -73l-501 -573h416l-12 -83h-533l10 73l502 573h-421z" />
    <glyph glyph-name="bracketleft" unicode="[" horiz-adv-x="316" 
d="M223 -215h-176l140 996h177l-8 -55h-115l-125 -887h115z" />
    <glyph glyph-name="backslash" unicode="\" horiz-adv-x="414" 
d="M157 729l189 -729h-64l-188 729h63z" />
    <glyph glyph-name="bracketright" unicode="]" horiz-adv-x="316" 
d="M134 -215h-176l7 54h116l125 887h-116l8 55h177z" />
    <glyph glyph-name="asciicircum" unicode="^" horiz-adv-x="366" 
d="M381 474h-76l-68 177l-116 -177h-77l173 255h64z" />
    <glyph glyph-name="underscore" unicode="_" horiz-adv-x="339" 
d="M295 -70h-343l10 70h343z" />
    <glyph glyph-name="grave" unicode="`" horiz-adv-x="435" 
d="M400 766l-35 -43l-166 112l45 57z" />
    <glyph glyph-name="a" unicode="a" horiz-adv-x="565" 
d="M26 120q0 86 58 138q59 53 156 53h155l6 41q16 111 -107 111q-53 0 -87.5 -25t-44.5 -67h-86q16 75 78 118t153 43q100 0 145.5 -49t33.5 -137l-39 -282h76l-9 -64h-77q-72 0 -66 68l2 20h-7q-23 -45 -75 -71.5t-117 -26.5q-69 0 -108.5 35t-39.5 95zM120 172l-5 -32
q-5 -38 18 -59t69 -21q72 0 122 44t59 116l4 27h-148q-50 0 -82 -20.5t-37 -54.5z" />
    <glyph glyph-name="b" unicode="b" horiz-adv-x="628" 
d="M130 0h-79l102 733h87l-44 -311h7q29 50 82.5 80t114.5 30q93 0 140.5 -53.5t47.5 -152.5q0 -153 -73 -244q-74 -92 -195 -92q-58 0 -102.5 27t-60.5 74h-7zM178 293l-9 -68q-9 -70 32 -117q40 -46 114 -46q71 0 117 38.5t55 104.5l15 108q9 68 -26.5 107t-105.5 39
q-73 0 -128 -47q-54 -46 -64 -119z" />
    <glyph glyph-name="c" unicode="c" horiz-adv-x="564" 
d="M426 178h86q-25 -87 -94.5 -137.5t-164.5 -50.5q-101 0 -157 57.5t-56 157.5q0 144 82 235q83 92 211 92q90 0 145 -49t57 -131h-86q-7 52 -41 79.5t-89 27.5q-69 0 -120 -45q-50 -45 -60 -118l-12 -79q-10 -70 27.5 -112.5t108.5 -42.5q58 0 102 31.5t61 84.5z" />
    <glyph glyph-name="d" unicode="d" horiz-adv-x="628" 
d="M224 -10q-88 0 -136 52.5t-48 149.5q0 148 72 240q72 93 187 93q65 0 110 -27t62 -75h7l43 310h86l-102 -733h-78l4 91h-6q-32 -48 -85 -74.5t-116 -26.5zM258 62q76 0 129 45.5t63 117.5l9 65q10 73 -30.5 117.5t-115.5 44.5q-70 0 -116.5 -38.5t-55.5 -103.5l-15 -105
q-9 -65 26.5 -104t105.5 -39z" />
    <glyph glyph-name="e" unicode="e" horiz-adv-x="568" 
d="M41 206q0 144 80 235q79 91 207 91q95 0 148.5 -50.5t53.5 -140.5q0 -50 -14 -98h-384l-4 -30q-10 -69 27.5 -111t109.5 -42q54 0 97.5 27t61.5 70h86q-25 -74 -97 -122q-70 -45 -161 -45q-100 0 -155.5 57.5t-55.5 158.5zM143 321l-2 -14h302l2 20q8 61 -27 98t-100 37
q-70 0 -119 -40q-48 -38 -56 -101z" />
    <glyph glyph-name="f" unicode="f" horiz-adv-x="351" 
d="M394 662h-135l-16 -113l-3 -27h112l-11 -72h-112l-63 -450h-86l63 450h-102l11 72h102l3 27l16 112q11 72 92 72h138z" />
    <glyph glyph-name="g" unicode="g" horiz-adv-x="531" 
d="M551 595l-10 -71h-99l-6 -46q32 -38 32 -95q0 -85 -62 -141t-155 -56q-41 0 -70 9q-53 -12 -53 -56q0 -37 64 -37h137q68 0 105.5 -29t37.5 -80q0 -82 -72 -128t-202 -46q-103 0 -155.5 28.5t-52.5 81.5q0 42 26 74.5t71 45.5l1 7q-42 14 -42 60q0 32 23 59.5t59 37.5
l1 6q-59 39 -59 114q0 85 63 142q65 57 159 57q51 0 90 -17l2 17q9 63 82 63h85zM379 340l5 36q6 41 -21.5 67t-77.5 26t-84.5 -25.5t-40.5 -67.5l-5 -36q-7 -41 21 -66.5t78 -25.5t84.5 25.5t40.5 66.5zM313 29h-142q-45 0 -71 -21t-26 -58q0 -66 138 -66q172 0 172 94
q0 51 -71 51z" />
    <glyph glyph-name="h" unicode="h" horiz-adv-x="617" 
d="M137 0h-86l102 733h87l-43 -306h7q31 49 82 77t109 28q84 0 124.5 -56.5t26.5 -153.5l-45 -322h-87l44 313q21 146 -103 146q-69 0 -118.5 -50.5t-60.5 -132.5z" />
    <glyph glyph-name="i" unicode="i" horiz-adv-x="260" 
d="M223 619h-85l15 114h86zM136 0h-85l73 522h86z" />
    <glyph glyph-name="j" unicode="j" horiz-adv-x="270" 
d="M149 619l16 114h85l-16 -114h-85zM48 -97l16 113l71 506h85l-71 -506l-15 -106q-4 -25 -16 -44q-17 -33 -73 -33h-122l10 70h115z" />
    <glyph glyph-name="k" unicode="k" horiz-adv-x="556" 
d="M452 522h111l-230 -204l167 -318h-96l-136 260l-107 -94l-23 -166h-87l102 733h87l-63 -454z" />
    <glyph glyph-name="l" unicode="l" horiz-adv-x="260" 
d="M136 0h-85l102 733h86z" />
    <glyph glyph-name="m" unicode="m" horiz-adv-x="927" 
d="M137 0h-86l73 522h75l-2 -97h7q62 107 177 107q56 0 92.5 -31t43.5 -83h8q63 114 188 114q81 0 119.5 -54t24.5 -152l-45 -326h-87l44 315q21 144 -95 144q-63 0 -106 -49t-54 -133l-39 -277h-87l44 313q21 146 -92 146q-62 0 -107 -50t-57 -131z" />
    <glyph glyph-name="n" unicode="n" horiz-adv-x="618" 
d="M137 0h-86l73 522h76l-2 -97h6q31 50 82 78.5t109 28.5q85 0 125.5 -57t26.5 -154l-45 -321h-87l44 312q20 143 -103 143q-69 0 -119 -50t-61 -132z" />
    <glyph glyph-name="o" unicode="o" horiz-adv-x="590" 
d="M41 206q0 143 82 234q83 92 210 92q100 0 158.5 -57.5t58.5 -159.5q0 -143 -82 -234t-211 -91q-102 0 -159 57t-57 159zM139 299l-12 -81q-9 -73 30 -114.5t110 -41.5t122.5 42.5t61.5 113.5l11 81q10 71 -28.5 115.5t-110.5 44.5q-71 0 -123 -45q-52 -43 -61 -115z" />
    <glyph glyph-name="p" unicode="p" horiz-adv-x="628" 
d="M113 -167h-86l96 689h78l-4 -92h6q32 49 85.5 75.5t116.5 26.5q88 0 136 -53t48 -149q0 -148 -72 -241q-72 -92 -188 -92q-65 0 -110 27t-62 75h-7zM316 70q69 0 115.5 38.5t55.5 103.5l15 105q9 65 -26 104t-105 39q-77 0 -130 -45t-63 -118l-9 -65q-10 -73 30.5 -117.5
t116.5 -44.5z" />
    <glyph glyph-name="q" unicode="q" horiz-adv-x="628" 
d="M499 522h79l-97 -689h-86l38 267h-7q-29 -50 -82.5 -80t-114.5 -30q-93 0 -141 53.5t-48 152.5q0 153 73 244q74 92 196 92q58 0 102.5 -27.5t60.5 -74.5h7zM451 229l9 68q9 69 -32 116t-114 47q-71 0 -117 -38.5t-55 -104.5l-15 -108q-10 -68 25.5 -107t105.5 -39
q73 0 128 47q54 45 65 119z" />
    <glyph glyph-name="r" unicode="r" horiz-adv-x="360" 
d="M203 522h181l-10 -72h-174l-21 -152l-42 -298h-86l41 298l22 147q11 77 89 77z" />
    <glyph glyph-name="s" unicode="s" horiz-adv-x="504" 
d="M38 158h86q-6 -46 24.5 -73t88.5 -27t94 27t36 72q0 47 -60 60l-108 21q-122 24 -122 117q0 78 61 127q62 50 159 50q92 0 139.5 -43t38.5 -116h-86q5 45 -21.5 68.5t-78.5 23.5q-56 0 -89.5 -25t-33.5 -67q0 -36 28 -49q24 -10 47 -14l100 -19q118 -19 118 -118
q0 -82 -64 -133q-65 -50 -167 -50q-99 0 -150 46t-40 122z" />
    <glyph glyph-name="t" unicode="t" horiz-adv-x="345" 
d="M330 450h-110l-36 -256l-16 -122h110l-10 -72h-120q-76 0 -66 73l53 377h-95l10 72h95l24 173h86l-24 -173h110z" />
    <glyph glyph-name="u" unicode="u" horiz-adv-x="611" 
d="M488 522h86l-73 -522h-74l1 97h-8q-28 -49 -79 -78t-113 -29q-81 0 -119.5 52t-25.5 147l47 333h86l-45 -321q-19 -138 97 -138q70 0 120 51q51 54 61 135z" />
    <glyph glyph-name="v" unicode="v" horiz-adv-x="479" 
d="M153 0l-117 522h92l53 -278l29 -155h6l70 155l131 278h99l-261 -522h-102z" />
    <glyph glyph-name="w" unicode="w" horiz-adv-x="744" 
d="M564 242l111 280h92l-216 -522h-113l-30 268l-13 148h-6l-52 -148l-102 -268h-115l-74 522h90l34 -277l12 -159h6l165 436h105l45 -434h5z" />
    <glyph glyph-name="x" unicode="x" horiz-adv-x="463" 
d="M60 0h-93l208 263l-134 259h96l100 -201h6l153 201h96l-203 -257l136 -265h-96l-102 207h-7z" />
    <glyph glyph-name="y" unicode="y" horiz-adv-x="518" 
d="M188 62l-153 460h92l52 -171l57 -200h6l215 371h98l-282 -461l-21 -151q-11 -77 -86 -77h-133l10 71h124z" />
    <glyph glyph-name="z" unicode="z" horiz-adv-x="439" 
d="M60 522h390l-10 -67l-339 -383h289l-10 -72h-393l9 65l340 385h-286z" />
    <glyph glyph-name="braceleft" unicode="{" horiz-adv-x="294" 
d="M31 257l8 62q65 0 76 74l45 320q11 68 77 68h107l-8 -55h-112l-46 -331q-6 -45 -30.5 -73t-57.5 -31v-3q32 -6 48 -34.5t10 -72.5l-48 -342h112l-8 -54h-107q-68 0 -57 68l46 331q6 36 -9.5 54.5t-45.5 18.5z" />
    <glyph glyph-name="bar" unicode="|" horiz-adv-x="306" 
d="M151 -33h-79l111 786h79z" />
    <glyph glyph-name="braceright" unicode="}" horiz-adv-x="294" 
d="M273 319l-9 -62q-67 0 -77 -73l-46 -331q-11 -68 -77 -68h-106l7 54h111l49 342q7 44 31 73t57 34v3q-31 4 -47.5 31.5t-10.5 72.5l46 331h-111l8 55h106q32 0 47 -17.5t10 -50.5l-45 -320q-5 -34 9.5 -54t47.5 -20z" />
    <glyph glyph-name="asciitilde" unicode="~" horiz-adv-x="369" 
d="M71 282h-51q5 64 33.5 94.5t68.5 30.5q31 0 77 -25q47 -24 69 -24q45 0 54 62h50q-4 -66 -35.5 -98t-76.5 -32q-34 0 -82 24q-46 24 -64 24q-40 0 -43 -56z" />
    <glyph glyph-name="uni00A0" unicode="&#xa0;" horiz-adv-x="233" 
 />
    <glyph glyph-name="exclamdown" unicode="&#xa1;" horiz-adv-x="280" 
d="M143 637l13 92h99l-13 -92h-99zM90 207l65 303h42l-20 -303l-29 -207h-87z" />
    <glyph glyph-name="cent" unicode="&#xa2;" horiz-adv-x="553" 
d="M274 180q56 0 97 28t58 77h86q-22 -74 -81 -121.5t-139 -55.5l-11 -78h-67l11 78q-80 10 -123 62t-43 138q0 126 66 212t172 99l11 80h67l-11 -78q78 -7 122 -53t45 -118h-85q-5 48 -38 73.5t-85 25.5q-66 0 -110.5 -39.5t-54.5 -108.5l-11 -77q-10 -66 23 -105t101 -39z
" />
    <glyph glyph-name="sterling" unicode="&#xa3;" horiz-adv-x="641" 
d="M393 660q-58 0 -97.5 -36t-47.5 -99l-18 -127h232l-11 -73h-232l-35 -245h292l23 160h79l-23 -160h1l-12 -80h-529l12 80h71l35 245h-72l10 73h73l18 127q13 97 78.5 155t164.5 58q87 0 137.5 -46t48.5 -122h-86q-1 40 -33 65t-79 25z" />
    <glyph glyph-name="currency" unicode="&#xa4;" horiz-adv-x="667" 
d="M122 89l-49 52l83 65q-36 59 -26 131t63 131l-64 63l61 54l52 -73q63 41 133 40q73 -2 120 -41l73 75l45 -55l-78 -62q36 -58 26 -131q-11 -74 -63 -132l62 -65l-61 -52l-51 73q-63 -43 -133 -43t-121 43zM207 333q-8 -60 25.5 -100t91.5 -40q66 2 112 50q46 49 46 118
q0 52 -33 84.5t-86 32.5q-61 0 -104 -39t-52 -106z" />
    <glyph glyph-name="yen" unicode="&#xa5;" horiz-adv-x="606" 
d="M565 729h101l-263 -374h109l-11 -74h-150l-9 -64h150l-10 -75h-150l-20 -142h-90l20 142h-151l10 75h151l9 64h-150l10 74h109l-159 374h102l83 -210l58 -157h7l102 157z" />
    <glyph glyph-name="brokenbar" unicode="&#xa6;" horiz-adv-x="306" 
d="M218 449h-79l43 304h79zM151 -34h-79l42 302h79z" />
    <glyph glyph-name="section" unicode="&#xa7;" horiz-adv-x="506" 
d="M65 350q0 41 23.5 75t62.5 50l1 9q-39 32 -39 82q0 70 60 117q62 47 153 47q86 0 134.5 -41.5t42.5 -108.5h-88q1 36 -27.5 56t-79.5 20q-47 0 -74 -21.5t-27 -58.5q0 -22 14 -39q6 -7 10.5 -11.5t10.5 -8t9.5 -5t13 -6t15.5 -7.5l103 -43q94 -37 94 -112q0 -84 -78 -125
l-2 -10q38 -29 38 -79q0 -74 -60 -121q-58 -46 -155 -46q-88 0 -137.5 40t-45.5 109h90q-1 -36 28 -56.5t79 -20.5t77 22.5t27 62.5q0 26 -15 40.5t-53 30.5l-106 44q-99 41 -99 115zM157 380q0 -45 59 -71l101 -46q32 -14 40 -18q29 27 29 68q0 19 -13 40q-2 5 -14 13
q-18 11 -29 16l-96 45q-19 8 -43 20q-34 -25 -34 -67z" />
    <glyph glyph-name="dieresis" unicode="&#xa8;" horiz-adv-x="388" 
d="M203 740h-76l15 113h77zM394 740h-77l16 113h77z" />
    <glyph glyph-name="copyright" unicode="&#xa9;" horiz-adv-x="937" 
d="M486 -56q-172 0 -291 115q-120 116 -120 295q0 117 56 212q57 95 150 146t206 51q172 0 290 -115q120 -114 120 -292q0 -180 -120 -296q-119 -116 -291 -116zM485 -26q158 0 268 107q111 107 111 275q0 165 -110 272q-109 106 -267 106t-270 -107q-110 -107 -110 -273
q0 -167 110 -274q110 -106 268 -106zM491 135q-97 0 -158 60q-62 62 -62 159t62 159q61 61 159 61q82 0 141 -47t68 -122h-74q-7 48 -44.5 77.5t-91.5 29.5q-67 0 -106 -43t-39 -114q0 -74 38.5 -115.5t105.5 -41.5q55 0 92.5 29.5t44.5 76.5h74q-7 -72 -67 -121
q-58 -48 -143 -48z" />
    <glyph glyph-name="ordfeminine" unicode="&#xaa;" horiz-adv-x="430" 
d="M398 588v-176h37v-56h-39q-61 0 -61 56v13h-5q-13 -35 -44.5 -54t-74.5 -19q-55 0 -88.5 31t-33.5 82q0 54 38 84t104 30h99v17q0 75 -84 75q-70 0 -83 -52h-67q7 51 49 80.5t106 29.5q72 0 109.5 -36.5t37.5 -104.5zM330 510v19h-90q-81 0 -81 -62q0 -28 18.5 -43
t51.5 -15q44 0 72.5 29t28.5 72z" />
    <glyph glyph-name="guillemotleft" unicode="&#xab;" horiz-adv-x="524" 
d="M176 65l-92 209l151 207h77l-139 -207l80 -209h-77zM364 65l-92 209l150 207h79l-140 -207l81 -209h-78z" />
    <glyph glyph-name="logicalnot" unicode="&#xac;" horiz-adv-x="640" 
d="M545 153h-81l24 172h-394l11 79h475z" />
    <glyph glyph-name="registered" unicode="&#xae;" horiz-adv-x="616" 
d="M301 212q-102 0 -166 61q-63 61 -63 160q0 128 88 216q89 89 215 89q102 0 167 -62q64 -61 64 -159q0 -127 -90 -216q-89 -89 -215 -89zM307 242q110 0 188 79q79 79 79 191q0 88 -57 143q-56 56 -145 56q-110 0 -189 -81q-79 -80 -79 -193q0 -87 56 -141q57 -54 147 -54
zM266 347h-42l37 260h125q66 0 66 -59q0 -62 -48 -79l-1 -3h12q30 0 25 -29l-14 -90h-42l14 97h-118zM297 571l-12 -92h73q18 0 31.5 10.5t14.5 26.5l3 20q2 16 -7.5 25.5t-26.5 9.5h-76z" />
    <glyph glyph-name="overscore" unicode="&#xaf;" horiz-adv-x="353" 
d="M398 739h-310l9 63h309z" />
    <glyph glyph-name="degree" unicode="&#xb0;" horiz-adv-x="416" 
d="M403 588q0 -63 -43 -103t-107 -40q-62 0 -102 40q-41 41 -41 103q0 63 41 104.5t102 41.5q63 0 107 -41q43 -40 43 -105zM338 588q0 38 -23.5 62.5t-59.5 24.5q-34 0 -57.5 -24.5t-23.5 -62.5q0 -35 24 -59.5t57 -24.5q34 0 58.5 24.5t24.5 59.5z" />
    <glyph glyph-name="plusminus" unicode="&#xb1;" horiz-adv-x="669" 
d="M595 339h-206l-24 -174h-88l24 174h-205l12 81h204l25 174h88l-24 -174h206zM547 0h-498l11 85h499z" />
    <glyph glyph-name="uni00B2" unicode="&#xb2;" horiz-adv-x="450" 
d="M153 365l97 4h170l-10 -69h-352l3 19q7 51 36 95q6 10 12.5 18.5t14.5 17.5t13 15t15.5 14.5t15 12.5t16.5 13t15.5 11.5t18 12.5t16.5 12l71 52q75 53 75 131q0 36 -22.5 56t-61.5 20q-49 0 -80.5 -28t-36.5 -78h-78q11 80 68 127q58 48 139 48q71 0 113 -37t42 -98
q0 -108 -97 -182q-18 -14 -77.5 -53.5t-92 -70t-43.5 -63.5z" />
    <glyph glyph-name="uni00B3" unicode="&#xb3;" horiz-adv-x="463" 
d="M247 292q-85 0 -128 48.5t-29 129.5h81q-10 -52 14 -80.5t72 -28.5q53 0 87.5 33t34.5 82q0 38 -27 59.5t-74 21.5h-42l9 65h39q53 0 87 30t34 77q0 33 -23.5 52t-62.5 19q-48 0 -79 -28.5t-37 -78.5h-79q7 77 65 127q58 49 141 49q70 0 114 -34.5t44 -91.5
q0 -50 -27.5 -88.5t-75.5 -58.5l-1 -5q77 -29 77 -112q0 -79 -62 -133t-152 -54z" />
    <glyph glyph-name="acute" unicode="&#xb4;" horiz-adv-x="437" 
d="M409 835l-198 -112l-22 43l191 126z" />
    <glyph glyph-name="paragraph" unicode="&#xb6;" horiz-adv-x="676" 
d="M325 729h310l-9 -66h-73l-93 -664q-19 -139 -156 -139h-256l9 60h152l63 447q-82 0 -128 40t-46 109q0 96 63 154q64 59 164 59zM388 -2l93 665h-94l-104 -743h27q36 0 54.5 19t23.5 59z" />
    <glyph glyph-name="middot" unicode="&#xb7;" horiz-adv-x="283" 
d="M68 271q0 35 26 61.5t61 26.5q29 0 47.5 -18t18.5 -47q0 -35 -25.5 -60.5t-61.5 -25.5q-29 0 -47.5 18t-18.5 45z" />
    <glyph glyph-name="cedilla" unicode="&#xb8;" horiz-adv-x="529" 
d="M267 3l-35 -45q29 -1 48 -16t19 -41q0 -41 -33 -65q-60 -44 -141 -10l7 51q21 -26 65 -20q44 5 44 41q0 40 -71 22l4 24l64 87h33z" />
    <glyph glyph-name="uni00B9" unicode="&#xb9;" horiz-adv-x="355" 
d="M241 705h-142l8 60h23q54 0 92 27t45 70h72l-79 -562h-76z" />
    <glyph glyph-name="ordmasculine" unicode="&#xba;" horiz-adv-x="443" 
d="M85 540q0 84 49 136q50 53 129 53q77 0 127 -53t50 -137q0 -83 -49 -135t-128 -52q-80 0 -129 52t-49 136zM155 540q0 -59 29 -94t79 -35q48 0 77.5 35.5t29.5 94.5q0 58 -28.5 93.5t-78.5 35.5q-48 0 -78 -35.5t-30 -94.5z" />
    <glyph glyph-name="guillemotright" unicode="&#xbb;" horiz-adv-x="524" 
d="M166 481l90 -207l-149 -209h-78l140 209l-81 207h78zM354 481l91 -207l-150 -209h-78l140 209l-81 207h78z" />
    <glyph glyph-name="onequarter" unicode="&#xbc;" horiz-adv-x="888" 
d="M130 -46l521 814h73l-522 -814h-72zM226 256h-73l47 332h-124l8 59h45q43 0 67 21.5t24 56.5v4h73zM834 480l-45 -320h54l-9 -67h-54l-13 -93h-74l13 93h-215l9 63l215 324h119zM750 412l-169 -252h134z" />
    <glyph glyph-name="onehalf" unicode="&#xbd;" horiz-adv-x="896" 
d="M130 -46l521 814h73l-522 -814h-72zM226 256h-73l47 332h-124l8 59h45q43 0 67 21.5t24 56.5v4h73zM619 65l76 3h135l-10 -68h-295l2 16q13 100 105 165q10 7 37.5 25.5t39 27t32 26t29.5 30.5t16.5 31.5t7.5 37.5q0 29 -17.5 45.5t-48.5 16.5q-38 0 -63 -24.5t-29 -63.5
l-73 6q11 66 60 106q50 41 118 41q60 0 95.5 -32t35.5 -85q0 -90 -76 -152q-14 -11 -63 -44t-76 -57.5t-38 -50.5z" />
    <glyph glyph-name="threequarters" unicode="&#xbe;" horiz-adv-x="960" 
d="M213 -46l521 814h73l-522 -814h-72zM198 248q-71 0 -107.5 41.5t-25.5 107.5h75q-7 -39 12 -61.5t55 -22.5q38 0 65 25.5t27 62.5q0 29 -21.5 46t-55.5 17h-36l10 68h30q41 0 67 23.5t26 60.5q0 26 -17.5 40t-45.5 14q-36 0 -60 -23t-28 -61h-75q6 66 53 107.5t119 41.5
q60 0 96.5 -29t36.5 -79q0 -86 -84 -122v-5q62 -26 62 -92q0 -68 -52 -114q-50 -46 -126 -46zM917 480l-45 -320h54l-9 -67h-54l-13 -93h-74l13 93h-215l9 63l215 324h119zM833 412l-169 -252h134z" />
    <glyph glyph-name="questiondown" unicode="&#xbf;" horiz-adv-x="580" 
d="M348 729h114l-15 -110h-114zM335 532h83l-28 -198q-34 6 -66 6q-84 0 -135 -44t-51 -116q0 -53 36 -82t97 -29q66 0 110 33t55 91h86q-16 -93 -89 -148q-73 -53 -176 -53q-96 0 -151.5 47.5t-55.5 128.5q0 109 76 176q77 69 192 68z" />
    <glyph glyph-name="Agrave" unicode="&#xc0;" horiz-adv-x="665" 
d="M287 975l156 -126l-35 -43l-166 112zM624 0h-96l-39 172h-336l-88 -172h-97l377 729h104zM256 372l-64 -125h280l-29 125l-54 265h-4z" />
    <glyph glyph-name="Aacute" unicode="&#xc1;" horiz-adv-x="665" 
d="M575 975l29 -57l-198 -112l-22 43zM624 0h-96l-39 172h-336l-88 -172h-97l377 729h104zM256 372l-64 -125h280l-29 125l-54 265h-4z" />
    <glyph glyph-name="Acircumflex" unicode="&#xc2;" horiz-adv-x="665" 
d="M510 795l-89 110l-119 -110l-37 41l136 124h58l100 -123zM624 0h-96l-39 172h-336l-88 -172h-97l377 729h104zM256 372l-64 -125h280l-29 125l-54 265h-4z" />
    <glyph glyph-name="Atilde" unicode="&#xc3;" horiz-adv-x="665" 
d="M344 835q-29 0 -56 -34l-34 27q43 70 102 70q24 0 64 -18q42 -17 60 -17q32 0 59 34l34 -28q-41 -68 -106 -68q-27 0 -66 17t-57 17zM624 0h-96l-39 172h-336l-88 -172h-97l377 729h104zM256 372l-64 -125h280l-29 125l-54 265h-4z" />
    <glyph glyph-name="Adieresis" unicode="&#xc4;" horiz-adv-x="665" 
d="M290 932h77l-16 -113h-76zM481 932h77l-16 -113h-77zM624 0h-96l-39 172h-336l-88 -172h-97l377 729h104zM256 372l-64 -125h280l-29 125l-54 265h-4z" />
    <glyph glyph-name="Aring" unicode="&#xc5;" horiz-adv-x="665" 
d="M624 0h-96l-39 172h-336l-88 -172h-97l363 701q-39 23 -39 75q0 54 36 90t91 36q44 0 70 -24.5t26 -64.5q0 -71 -60 -109zM413 855q-28 0 -47.5 -21t-19.5 -50q0 -23 14 -37t36 -14q27 0 45.5 21t18.5 51q0 23 -12.5 36.5t-34.5 13.5zM256 372l-64 -125h280l-29 125
l-54 265h-4z" />
    <glyph glyph-name="AE" unicode="&#xc6;" horiz-adv-x="955" 
d="M961 729l-11 -83h-402l-33 -242h344l-12 -78h-343l-34 -243h401l-12 -83h-491l28 202h-239l-94 -202h-95l351 729h642zM192 277h215l51 369h-95z" />
    <glyph glyph-name="Ccedilla" unicode="&#xc7;" horiz-adv-x="751" 
d="M164 420l-16 -118q-14 -101 42 -166q57 -64 163 -64q87 0 155.5 46.5t97.5 125.5h94q-35 -113 -125 -180q-91 -68 -215 -74l-21 -27q29 -1 48 -16t19 -41q0 -41 -33 -65q-60 -44 -141 -10l7 51q21 -26 65 -20q44 5 44 41q0 40 -71 22l4 24l31 42q-124 7 -190.5 82.5
t-66.5 207.5q0 207 109 332q110 126 289 126q133 0 208 -69t73 -185h-94q-4 79 -56.5 125t-144.5 46q-111 0 -185 -64q-74 -63 -90 -172z" />
    <glyph glyph-name="Egrave" unicode="&#xc8;" horiz-adv-x="645" 
d="M443 849l-35 -43l-166 112l45 57zM549 0h-484l102 729h484l-11 -83h-394l-32 -231h346l-12 -79h-346l-35 -253h394z" />
    <glyph glyph-name="Eacute" unicode="&#xc9;" horiz-adv-x="645" 
d="M604 918l-198 -112l-22 43l191 126zM549 0h-484l102 729h484l-11 -83h-394l-32 -231h346l-12 -79h-346l-35 -253h394z" />
    <glyph glyph-name="Ecircumflex" unicode="&#xca;" horiz-adv-x="645" 
d="M302 795l-37 41l136 124h58l100 -123l-49 -42l-89 110zM549 0h-484l102 729h484l-11 -83h-394l-32 -231h346l-12 -79h-346l-35 -253h394z" />
    <glyph glyph-name="Edieresis" unicode="&#xcb;" horiz-adv-x="645" 
d="M351 819h-76l15 113h77zM542 819h-77l16 113h77zM549 0h-484l102 729h484l-11 -83h-394l-32 -231h346l-12 -79h-346l-35 -253h394z" />
    <glyph glyph-name="Igrave" unicode="&#xcc;" horiz-adv-x="293" 
d="M259 849l-35 -43l-166 112l45 57zM257 729l-102 -729h-90l102 729h90z" />
    <glyph glyph-name="Iacute" unicode="&#xcd;" horiz-adv-x="293" 
d="M420 918l-198 -112l-22 43l191 126zM257 729l-102 -729h-90l102 729h90z" />
    <glyph glyph-name="Icircumflex" unicode="&#xce;" horiz-adv-x="293" 
d="M118 795l-37 41l136 124h58l100 -123l-49 -42l-89 110zM257 729l-102 -729h-90l102 729h90z" />
    <glyph glyph-name="Idieresis" unicode="&#xcf;" horiz-adv-x="293" 
d="M168 819h-76l15 113h77zM359 819h-77l16 113h77zM257 729l-102 -729h-90l102 729h90z" />
    <glyph glyph-name="Eth" unicode="&#xd0;" horiz-adv-x="747" 
d="M167 729h295q132 0 197.5 -63.5t65.5 -196.5q0 -223 -95 -347q-95 -122 -270 -122h-295l47 338h-85l8 77h88zM613 304l16 120q17 116 -27.5 169t-151.5 53h-204l-32 -231h133l-9 -77h-135l-36 -255h204q107 0 166 52t76 169z" />
    <glyph glyph-name="Ntilde" unicode="&#xd1;" horiz-adv-x="791" 
d="M558 801q-27 0 -66 17t-57 17q-29 0 -56 -34l-34 27q43 70 102 70q23 0 64 -18q42 -17 60 -17q32 0 59 34l34 -28q-41 -68 -106 -68zM155 0h-90l102 729h112l302 -615h4l25 221l55 394h90l-102 -729h-113l-300 615h-4l-24 -212z" />
    <glyph glyph-name="Ograve" unicode="&#xd2;" horiz-adv-x="772" 
d="M499 849l-35 -43l-166 112l45 57zM55 282q0 205 110 330q109 126 290 126q141 0 217.5 -76.5t76.5 -215.5q0 -204 -110 -331q-110 -125 -289 -125q-142 0 -218.5 76t-76.5 216zM164 416l-15 -102q-17 -113 40.5 -177.5t170.5 -64.5q116 0 190 65q74 66 90 177l15 102
q16 111 -41 175.5t-171 64.5q-115 0 -189 -64.5t-90 -175.5z" />
    <glyph glyph-name="Oacute" unicode="&#xd3;" horiz-adv-x="772" 
d="M660 918l-198 -112l-22 43l191 126zM55 282q0 205 110 330q109 126 290 126q141 0 217.5 -76.5t76.5 -215.5q0 -204 -110 -331q-110 -125 -289 -125q-142 0 -218.5 76t-76.5 216zM164 416l-15 -102q-17 -113 40.5 -177.5t170.5 -64.5q116 0 190 65q74 66 90 177l15 102
q16 111 -41 175.5t-171 64.5q-115 0 -189 -64.5t-90 -175.5z" />
    <glyph glyph-name="Ocircumflex" unicode="&#xd4;" horiz-adv-x="772" 
d="M358 795l-37 41l136 124h58l100 -123l-49 -42l-89 110zM55 282q0 205 110 330q109 126 290 126q141 0 217.5 -76.5t76.5 -215.5q0 -204 -110 -331q-110 -125 -289 -125q-142 0 -218.5 76t-76.5 216zM164 416l-15 -102q-17 -113 40.5 -177.5t170.5 -64.5q116 0 190 65
q74 66 90 177l15 102q16 111 -41 175.5t-171 64.5q-115 0 -189 -64.5t-90 -175.5z" />
    <glyph glyph-name="Otilde" unicode="&#xd5;" horiz-adv-x="772" 
d="M523 801q-27 0 -66 17t-57 17q-29 0 -56 -34l-34 27q43 70 102 70q24 0 64 -18q42 -17 60 -17q32 0 59 34l34 -28q-41 -68 -106 -68zM55 282q0 205 110 330q109 126 290 126q141 0 217.5 -76.5t76.5 -215.5q0 -204 -110 -331q-110 -125 -289 -125q-142 0 -218.5 76
t-76.5 216zM164 416l-15 -102q-17 -113 40.5 -177.5t170.5 -64.5q116 0 190 65q74 66 90 177l15 102q16 111 -41 175.5t-171 64.5q-115 0 -189 -64.5t-90 -175.5z" />
    <glyph glyph-name="Odieresis" unicode="&#xd6;" horiz-adv-x="772" 
d="M408 819h-76l15 113h77zM599 819h-77l16 113h77zM55 282q0 205 110 330q109 126 290 126q141 0 217.5 -76.5t76.5 -215.5q0 -204 -110 -331q-110 -125 -289 -125q-142 0 -218.5 76t-76.5 216zM164 416l-15 -102q-17 -113 40.5 -177.5t170.5 -64.5q116 0 190 65
q74 66 90 177l15 102q16 111 -41 175.5t-171 64.5q-115 0 -189 -64.5t-90 -175.5z" />
    <glyph glyph-name="multiply" unicode="&#xd7;" horiz-adv-x="730" 
d="M119 21l-48 59l244 220l-182 221l64 57l179 -217h8l239 217l48 -57l-244 -221l182 -220l-64 -59l-178 218h-9z" />
    <glyph glyph-name="Oslash" unicode="&#xd8;" horiz-adv-x="772" 
d="M777 657l35 -60l-75 -50q12 -45 12 -101q0 -204 -110 -331q-110 -125 -289 -125q-188 0 -258 129l-71 -47l-31 60l77 51q-12 45 -12 99q0 205 110 330q109 126 290 126q183 0 255 -126zM164 416l-15 -102q-6 -46 -2 -77l488 325q-52 94 -192 94q-115 0 -189 -64.5
t-90 -175.5zM640 314l15 102q6 45 2 78l-490 -325q51 -97 193 -97q116 0 190 65q74 66 90 177z" />
    <glyph glyph-name="Ugrave" unicode="&#xd9;" horiz-adv-x="775" 
d="M518 849l-35 -43l-166 112l45 57zM115 270l64 459h90l-64 -451q-13 -96 34 -150t140 -54q94 0 156 54.5t75 149.5l64 451h89l-64 -459q-18 -128 -108 -204q-88 -76 -224 -76q-139 0 -205 76q-65 77 -47 204z" />
    <glyph glyph-name="Uacute" unicode="&#xda;" horiz-adv-x="775" 
d="M679 918l-198 -112l-22 43l191 126zM115 270l64 459h90l-64 -451q-13 -96 34 -150t140 -54q94 0 156 54.5t75 149.5l64 451h89l-64 -459q-18 -128 -108 -204q-88 -76 -224 -76q-139 0 -205 76q-65 77 -47 204z" />
    <glyph glyph-name="Ucircumflex" unicode="&#xdb;" horiz-adv-x="775" 
d="M376 795l-37 41l136 124h58l100 -123l-49 -42l-89 110zM115 270l64 459h90l-64 -451q-13 -96 34 -150t140 -54q94 0 156 54.5t75 149.5l64 451h89l-64 -459q-18 -128 -108 -204q-88 -76 -224 -76q-139 0 -205 76q-65 77 -47 204z" />
    <glyph glyph-name="Udieresis" unicode="&#xdc;" horiz-adv-x="775" 
d="M426 819h-76l15 113h77zM617 819h-77l16 113h77zM115 270l64 459h90l-64 -451q-13 -96 34 -150t140 -54q94 0 156 54.5t75 149.5l64 451h89l-64 -459q-18 -128 -108 -204q-88 -76 -224 -76q-139 0 -205 76q-65 77 -47 204z" />
    <glyph glyph-name="Yacute" unicode="&#xdd;" horiz-adv-x="647" 
d="M598 918l-198 -112l-22 43l191 126zM284 295l-213 434h106l87 -189l69 -159h8l115 160l138 188h113l-333 -434l-41 -295h-91z" />
    <glyph glyph-name="Thorn" unicode="&#xde;" horiz-adv-x="675" 
d="M239 596h226q99 0 149.5 -47t50.5 -134q0 -129 -72 -205t-193 -76h-226l-19 -134h-90l84 596l19 134h90zM560 330l10 74q7 51 -23 79.5t-86 28.5h-234l-8 -58l-34 -241h223q64 0 104 31.5t48 85.5z" />
    <glyph glyph-name="germandbls" unicode="&#xdf;" horiz-adv-x="586" 
d="M111 428h-74l10 74h75l5 36q12 95 76 147q65 54 156 54q83 0 132 -41.5t49 -110.5q0 -62 -34 -112t-91 -70l-1 -7q62 -9 94 -52t32 -104q0 -108 -72 -176q-72 -66 -190 -66h-71l11 74h71q61 0 102 30.5t49 80.5l8 59q7 53 -26 83t-97 30h-31l11 75h17q42 0 75.5 21.5
t38.5 53.5l11 75q5 34 -25 54.5t-77 20.5q-56 0 -90.5 -33t-42.5 -92l-74 -532h-87z" />
    <glyph glyph-name="agrave" unicode="&#xe0;" horiz-adv-x="565" 
d="M353 644l-35 -43l-166 112l45 57zM26 120q0 86 58 138q59 53 156 53h155l6 41q16 111 -107 111q-53 0 -87.5 -25t-44.5 -67h-86q16 75 78 118t153 43q100 0 145.5 -49t33.5 -137l-39 -282h76l-9 -64h-77q-72 0 -66 68l2 20h-7q-23 -45 -75 -71.5t-117 -26.5
q-69 0 -108.5 35t-39.5 95zM120 172l-5 -32q-5 -38 18 -59t69 -21q72 0 122 44t59 116l4 27h-148q-50 0 -82 -20.5t-37 -54.5z" />
    <glyph glyph-name="aacute" unicode="&#xe1;" horiz-adv-x="565" 
d="M514 713l-198 -112l-22 43l191 126zM26 120q0 86 58 138q59 53 156 53h155l6 41q16 111 -107 111q-53 0 -87.5 -25t-44.5 -67h-86q16 75 78 118t153 43q100 0 145.5 -49t33.5 -137l-39 -282h76l-9 -64h-77q-72 0 -66 68l2 20h-7q-23 -45 -75 -71.5t-117 -26.5
q-69 0 -108.5 35t-39.5 95zM120 172l-5 -32q-5 -38 18 -59t69 -21q72 0 122 44t59 116l4 27h-148q-50 0 -82 -20.5t-37 -54.5z" />
    <glyph glyph-name="acircumflex" unicode="&#xe2;" horiz-adv-x="565" 
d="M212 590l-37 41l136 124h58l100 -123l-49 -42l-89 110zM26 120q0 86 58 138q59 53 156 53h155l6 41q16 111 -107 111q-53 0 -87.5 -25t-44.5 -67h-86q16 75 78 118t153 43q100 0 145.5 -49t33.5 -137l-39 -282h76l-9 -64h-77q-72 0 -66 68l2 20h-7q-23 -45 -75 -71.5
t-117 -26.5q-69 0 -108.5 35t-39.5 95zM120 172l-5 -32q-5 -38 18 -59t69 -21q72 0 122 44t59 116l4 27h-148q-50 0 -82 -20.5t-37 -54.5z" />
    <glyph glyph-name="atilde" unicode="&#xe3;" horiz-adv-x="565" 
d="M377 596q-27 0 -66 17t-57 17q-29 0 -56 -34l-34 27q43 70 102 70q24 0 64 -18q42 -17 60 -17q32 0 59 34l34 -28q-41 -68 -106 -68zM26 120q0 86 58 138q59 53 156 53h155l6 41q16 111 -107 111q-53 0 -87.5 -25t-44.5 -67h-86q16 75 78 118t153 43q100 0 145.5 -49
t33.5 -137l-39 -282h76l-9 -64h-77q-72 0 -66 68l2 20h-7q-23 -45 -75 -71.5t-117 -26.5q-69 0 -108.5 35t-39.5 95zM120 172l-5 -32q-5 -38 18 -59t69 -21q72 0 122 44t59 116l4 27h-148q-50 0 -82 -20.5t-37 -54.5z" />
    <glyph glyph-name="adieresis" unicode="&#xe4;" horiz-adv-x="565" 
d="M262 614h-76l15 113h77zM453 614h-77l16 113h77zM26 120q0 86 58 138q59 53 156 53h155l6 41q16 111 -107 111q-53 0 -87.5 -25t-44.5 -67h-86q16 75 78 118t153 43q100 0 145.5 -49t33.5 -137l-39 -282h76l-9 -64h-77q-72 0 -66 68l2 20h-7q-23 -45 -75 -71.5
t-117 -26.5q-69 0 -108.5 35t-39.5 95zM120 172l-5 -32q-5 -38 18 -59t69 -21q72 0 122 44t59 116l4 27h-148q-50 0 -82 -20.5t-37 -54.5z" />
    <glyph glyph-name="aring" unicode="&#xe5;" horiz-adv-x="565" 
d="M486 346l-39 -282h76l-9 -64h-77q-72 0 -66 68l2 20h-7q-23 -45 -75 -71.5t-117 -26.5q-69 0 -108.5 35t-39.5 95q0 86 58 138q59 53 156 53h155l6 41q16 111 -107 111q-53 0 -87.5 -25t-44.5 -67h-86q13 59 55 99t106 55q-30 24 -30 68q0 54 36.5 90t90.5 36
q44 0 70.5 -24.5t26.5 -64.5q0 -68 -54 -106q130 -31 109 -178zM328 672q-28 0 -47 -21t-19 -50q0 -23 13.5 -37t35.5 -14q27 0 46 21t19 51q0 22 -13 36t-35 14zM383 220l4 27h-148q-50 0 -82 -20.5t-37 -54.5l-5 -32q-5 -38 18 -59t69 -21q72 0 122 44t59 116z" />
    <glyph glyph-name="ae" unicode="&#xe6;" horiz-adv-x="929" 
d="M26 121q0 86 60 138t161 52h158l5 30q7 57 -23.5 89.5t-87.5 32.5q-54 0 -90.5 -25t-46.5 -67h-86q17 74 80 117q65 44 155 44q65 0 110.5 -26t59.5 -70q35 44 91 70t117 26q92 0 145.5 -53t53.5 -141q0 -30 -14 -97h-385q-12 -80 24 -128t115 -48q56 0 98.5 24t60.5 64
h83q-27 -75 -95 -119t-158 -44q-78 0 -129.5 35t-67.5 97q-33 -61 -96.5 -96.5t-140.5 -35.5q-76 0 -116.5 34.5t-40.5 96.5zM499 311h302q9 66 -26 106.5t-101 40.5q-67 0 -115 -40t-60 -107zM206 60q74 0 126.5 46t62.5 125l2 16h-158q-50 0 -82 -20.5t-37 -54.5l-5 -32
q-5 -38 20 -59t71 -21z" />
    <glyph glyph-name="ccedilla" unicode="&#xe7;" horiz-adv-x="564" 
d="M263 62q58 0 102 31.5t61 84.5h86q-23 -82 -86.5 -132t-150.5 -55l-32 -41q29 -1 48 -16t19 -41q0 -41 -33 -65q-60 -44 -141 -10l7 51q21 -26 65 -20q44 5 44 41q0 40 -71 22l4 24l41 55q-89 8 -137.5 64.5t-48.5 149.5q0 144 82 235q83 92 211 92q90 0 145 -49t57 -131
h-86q-7 52 -41 79.5t-89 27.5q-69 0 -120 -45q-50 -45 -60 -118l-12 -79q-10 -70 27.5 -112.5t108.5 -42.5z" />
    <glyph glyph-name="egrave" unicode="&#xe8;" horiz-adv-x="568" 
d="M374 644l-35 -43l-166 112l45 57zM41 206q0 144 80 235q79 91 207 91q95 0 148.5 -50.5t53.5 -140.5q0 -50 -14 -98h-384l-4 -30q-10 -69 27.5 -111t109.5 -42q54 0 97.5 27t61.5 70h86q-25 -74 -97 -122q-70 -45 -161 -45q-100 0 -155.5 57.5t-55.5 158.5zM143 321
l-2 -14h302l2 20q8 61 -27 98t-100 37q-70 0 -119 -40q-48 -38 -56 -101z" />
    <glyph glyph-name="eacute" unicode="&#xe9;" horiz-adv-x="568" 
d="M534 713l-198 -112l-22 43l191 126zM41 206q0 144 80 235q79 91 207 91q95 0 148.5 -50.5t53.5 -140.5q0 -50 -14 -98h-384l-4 -30q-10 -69 27.5 -111t109.5 -42q54 0 97.5 27t61.5 70h86q-25 -74 -97 -122q-70 -45 -161 -45q-100 0 -155.5 57.5t-55.5 158.5zM143 321
l-2 -14h302l2 20q8 61 -27 98t-100 37q-70 0 -119 -40q-48 -38 -56 -101z" />
    <glyph glyph-name="ecircumflex" unicode="&#xea;" horiz-adv-x="568" 
d="M232 590l-37 41l136 124h58l100 -123l-49 -42l-89 110zM41 206q0 144 80 235q79 91 207 91q95 0 148.5 -50.5t53.5 -140.5q0 -50 -14 -98h-384l-4 -30q-10 -69 27.5 -111t109.5 -42q54 0 97.5 27t61.5 70h86q-25 -74 -97 -122q-70 -45 -161 -45q-100 0 -155.5 57.5
t-55.5 158.5zM143 321l-2 -14h302l2 20q8 61 -27 98t-100 37q-70 0 -119 -40q-48 -38 -56 -101z" />
    <glyph glyph-name="edieresis" unicode="&#xeb;" horiz-adv-x="568" 
d="M282 614h-76l15 113h77zM473 614h-77l16 113h77zM41 206q0 144 80 235q79 91 207 91q95 0 148.5 -50.5t53.5 -140.5q0 -50 -14 -98h-384l-4 -30q-10 -69 27.5 -111t109.5 -42q54 0 97.5 27t61.5 70h86q-25 -74 -97 -122q-70 -45 -161 -45q-100 0 -155.5 57.5t-55.5 158.5
zM143 321l-2 -14h302l2 20q8 61 -27 98t-100 37q-70 0 -119 -40q-48 -38 -56 -101z" />
    <glyph glyph-name="igrave" unicode="&#xec;" horiz-adv-x="260" 
d="M215 650l-35 -43l-166 112l45 57zM136 0h-85l73 522h86z" />
    <glyph glyph-name="iacute" unicode="&#xed;" horiz-adv-x="260" 
d="M376 719l-198 -112l-22 43l191 126zM136 0h-85l73 522h86z" />
    <glyph glyph-name="icircumflex" unicode="&#xee;" horiz-adv-x="260" 
d="M73 596l-37 41l136 124h58l100 -123l-49 -42l-89 110zM136 0h-85l73 522h86z" />
    <glyph glyph-name="idieresis" unicode="&#xef;" horiz-adv-x="260" 
d="M123 620h-76l15 113h77zM314 620h-77l16 113h77zM136 0h-85l73 522h86z" />
    <glyph glyph-name="eth" unicode="&#xf0;" horiz-adv-x="597" 
d="M38 196q0 125 79 207q79 84 198 84q46 0 67 -10l3 2l-37 45l-40 61l-128 -45l9 65l86 31l-73 118h110l55 -86l135 47l-9 -64l-97 -33l82 -131l34 -59q12 -23 25 -65q15 -45 15 -88q0 -121 -84 -204q-82 -81 -209 -81q-102 0 -161.5 55.5t-59.5 150.5zM142 279l-11 -73
q-9 -63 30 -101t111 -38q73 0 121 37t58 102l10 73q10 63 -29 100.5t-112 37.5t-121 -37.5t-57 -100.5z" />
    <glyph glyph-name="ntilde" unicode="&#xf1;" horiz-adv-x="618" 
d="M465 596q-27 0 -66 17t-57 17q-29 0 -56 -34l-34 27q43 70 102 70q24 0 64 -18q42 -17 60 -17q32 0 59 34l34 -28q-41 -68 -106 -68zM137 0h-86l73 522h76l-2 -97h6q31 50 82 78.5t109 28.5q85 0 125.5 -57t26.5 -154l-45 -321h-87l44 312q20 143 -103 143
q-69 0 -119 -50t-61 -132z" />
    <glyph glyph-name="ograve" unicode="&#xf2;" horiz-adv-x="590" 
d="M378 644l-35 -43l-166 112l45 57zM41 206q0 143 82 234q83 92 210 92q100 0 158.5 -57.5t58.5 -159.5q0 -143 -82 -234t-211 -91q-102 0 -159 57t-57 159zM139 299l-12 -81q-9 -73 30 -114.5t110 -41.5t122.5 42.5t61.5 113.5l11 81q10 71 -28.5 115.5t-110.5 44.5
q-71 0 -123 -45q-52 -43 -61 -115z" />
    <glyph glyph-name="oacute" unicode="&#xf3;" horiz-adv-x="590" 
d="M539 713l-198 -112l-22 43l191 126zM41 206q0 143 82 234q83 92 210 92q100 0 158.5 -57.5t58.5 -159.5q0 -143 -82 -234t-211 -91q-102 0 -159 57t-57 159zM139 299l-12 -81q-9 -73 30 -114.5t110 -41.5t122.5 42.5t61.5 113.5l11 81q10 71 -28.5 115.5t-110.5 44.5
q-71 0 -123 -45q-52 -43 -61 -115z" />
    <glyph glyph-name="ocircumflex" unicode="&#xf4;" horiz-adv-x="590" 
d="M237 590l-37 41l136 124h58l100 -123l-49 -42l-89 110zM41 206q0 143 82 234q83 92 210 92q100 0 158.5 -57.5t58.5 -159.5q0 -143 -82 -234t-211 -91q-102 0 -159 57t-57 159zM139 299l-12 -81q-9 -73 30 -114.5t110 -41.5t122.5 42.5t61.5 113.5l11 81
q10 71 -28.5 115.5t-110.5 44.5q-71 0 -123 -45q-52 -43 -61 -115z" />
    <glyph glyph-name="otilde" unicode="&#xf5;" horiz-adv-x="590" 
d="M402 596q-27 0 -66 17t-57 17q-29 0 -56 -34l-34 27q43 70 102 70q23 0 64 -18q42 -17 60 -17q32 0 59 34l34 -28q-41 -68 -106 -68zM41 206q0 143 82 234q83 92 210 92q100 0 158.5 -57.5t58.5 -159.5q0 -143 -82 -234t-211 -91q-102 0 -159 57t-57 159zM139 299
l-12 -81q-9 -73 30 -114.5t110 -41.5t122.5 42.5t61.5 113.5l11 81q10 71 -28.5 115.5t-110.5 44.5q-71 0 -123 -45q-52 -43 -61 -115z" />
    <glyph glyph-name="odieresis" unicode="&#xf6;" horiz-adv-x="590" 
d="M287 614h-76l15 113h77zM478 614h-77l16 113h77zM41 206q0 143 82 234q83 92 210 92q100 0 158.5 -57.5t58.5 -159.5q0 -143 -82 -234t-211 -91q-102 0 -159 57t-57 159zM139 299l-12 -81q-9 -73 30 -114.5t110 -41.5t122.5 42.5t61.5 113.5l11 81q10 71 -28.5 115.5
t-110.5 44.5q-71 0 -123 -45q-52 -43 -61 -115z" />
    <glyph glyph-name="divide" unicode="&#xf7;" horiz-adv-x="670" 
d="M415 436h-116l17 122h116zM579 254h-492l12 80h492zM359 37h-116l17 122h116z" />
    <glyph glyph-name="oslash" unicode="&#xf8;" horiz-adv-x="590" 
d="M573 483l29 -53l-94 -63q4 -19 4 -52q0 -143 -82 -234t-210 -91q-113 0 -172 71l-33 -22l-28 52l32 21q-16 39 -16 94q0 143 82 234q83 92 211 92q141 0 193 -106zM101 299l-11 -81q-4 -25 1 -57l326 218q-14 37 -48.5 58.5t-82.5 21.5q-70 0 -123 -45q-51 -42 -62 -115z
M414 218l11 81q1 3 1 14l-309 -206q39 -45 113 -45q68 0 121 41q53 42 63 115z" />
    <glyph glyph-name="ugrave" unicode="&#xf9;" horiz-adv-x="611" 
d="M400 650l-35 -43l-166 112l45 57zM488 522h86l-73 -522h-74l1 97h-8q-28 -49 -79 -78t-113 -29q-81 0 -119.5 52t-25.5 147l47 333h86l-45 -321q-19 -138 97 -138q70 0 120 51q51 54 61 135z" />
    <glyph glyph-name="uacute" unicode="&#xfa;" horiz-adv-x="611" 
d="M561 719l-198 -112l-22 43l191 126zM488 522h86l-73 -522h-74l1 97h-8q-28 -49 -79 -78t-113 -29q-81 0 -119.5 52t-25.5 147l47 333h86l-45 -321q-19 -138 97 -138q70 0 120 51q51 54 61 135z" />
    <glyph glyph-name="ucircumflex" unicode="&#xfb;" horiz-adv-x="611" 
d="M259 596l-37 41l136 124h58l100 -123l-49 -42l-89 110zM488 522h86l-73 -522h-74l1 97h-8q-28 -49 -79 -78t-113 -29q-81 0 -119.5 52t-25.5 147l47 333h86l-45 -321q-19 -138 97 -138q70 0 120 51q51 54 61 135z" />
    <glyph glyph-name="udieresis" unicode="&#xfc;" horiz-adv-x="611" 
d="M308 620h-76l15 113h77zM499 620h-77l16 113h77zM488 522h86l-73 -522h-74l1 97h-8q-28 -49 -79 -78t-113 -29q-81 0 -119.5 52t-25.5 147l47 333h86l-45 -321q-19 -138 97 -138q70 0 120 51q51 54 61 135z" />
    <glyph glyph-name="yacute" unicode="&#xfd;" horiz-adv-x="518" 
d="M505 719l-198 -112l-22 43l191 126zM188 62l-153 460h92l52 -171l57 -200h6l215 371h98l-282 -461l-21 -151q-11 -77 -86 -77h-133l10 71h124z" />
    <glyph glyph-name="thorn" unicode="&#xfe;" horiz-adv-x="628" 
d="M113 -167h-86l126 900h87l-43 -303h6q32 49 85.5 75.5t116.5 26.5q88 0 136 -53t48 -149q0 -148 -72 -241q-72 -92 -188 -92q-65 0 -110 27t-62 75h-7zM316 70q69 0 115.5 38.5t55.5 103.5l15 105q9 65 -26 104t-105 39q-77 0 -130 -45t-63 -118l-9 -65
q-10 -73 30.5 -117.5t116.5 -44.5z" />
    <glyph glyph-name="ydieresis" unicode="&#xff;" horiz-adv-x="518" 
d="M253 620h-76l15 113h77zM444 620h-77l16 113h77zM188 62l-153 460h92l52 -171l57 -200h6l215 371h98l-282 -461l-21 -151q-11 -77 -86 -77h-133l10 71h124z" />
    <glyph glyph-name="Amacron" unicode="&#x100;" horiz-adv-x="665" 
d="M262 877h309l-8 -63h-310zM624 0h-96l-39 172h-336l-88 -172h-97l377 729h104zM256 372l-64 -125h280l-29 125l-54 265h-4z" />
    <glyph glyph-name="amacron" unicode="&#x101;" horiz-adv-x="565" 
d="M473 609h-310l9 63h309zM26 120q0 86 58 138q59 53 156 53h155l6 41q16 111 -107 111q-53 0 -87.5 -25t-44.5 -67h-86q16 75 78 118t153 43q100 0 145.5 -49t33.5 -137l-39 -282h76l-9 -64h-77q-72 0 -66 68l2 20h-7q-23 -45 -75 -71.5t-117 -26.5q-69 0 -108.5 35
t-39.5 95zM120 172l-5 -32q-5 -38 18 -59t69 -21q72 0 122 44t59 116l4 27h-148q-50 0 -82 -20.5t-37 -54.5z" />
    <glyph glyph-name="Abreve" unicode="&#x102;" horiz-adv-x="665" 
d="M406 805q-65 0 -98.5 39t-24.5 103h59q-6 -40 14 -64.5t57 -24.5q38 0 64.5 24.5t32.5 64.5h60q-9 -63 -54.5 -102.5t-109.5 -39.5zM624 0h-96l-39 172h-336l-88 -172h-97l377 729h104zM256 372l-64 -125h280l-29 125l-54 265h-4z" />
    <glyph glyph-name="abreve" unicode="&#x103;" horiz-adv-x="565" 
d="M421 742h60q-9 -63 -54.5 -102.5t-109.5 -39.5q-65 0 -98.5 39t-24.5 103h59q-6 -40 14 -64.5t57 -24.5q38 0 64.5 24.5t32.5 64.5zM26 120q0 86 58 138q59 53 156 53h155l6 41q16 111 -107 111q-53 0 -87.5 -25t-44.5 -67h-86q16 75 78 118t153 43q100 0 145.5 -49
t33.5 -137l-39 -282h76l-9 -64h-77q-72 0 -66 68l2 20h-7q-23 -45 -75 -71.5t-117 -26.5q-69 0 -108.5 35t-39.5 95zM120 172l-5 -32q-5 -38 18 -59t69 -21q72 0 122 44t59 116l4 27h-148q-50 0 -82 -20.5t-37 -54.5z" />
    <glyph glyph-name="Aogonek" unicode="&#x104;" horiz-adv-x="665" 
d="M584 -133q24 0 53 12l-6 -49q-30 -13 -70 -13q-39 2 -62 22t-23 53q0 64 65 108h-13l-39 172h-336l-88 -172h-97l377 729h104l175 -729q-43 -13 -67 -37.5t-24 -55.5q0 -40 51 -40zM256 372l-64 -125h280l-29 125l-54 265h-4z" />
    <glyph glyph-name="aogonek" unicode="&#x105;" horiz-adv-x="565" 
d="M474 -133q24 0 53 12l-6 -49q-30 -13 -70 -13q-39 2 -62 22t-23 53q0 64 65 108q-66 3 -60 68l2 20h-7q-23 -45 -75 -71.5t-117 -26.5q-69 0 -108.5 35t-39.5 95q0 86 58 138q59 53 156 53h155l6 41q16 111 -107 111q-53 0 -87.5 -25t-44.5 -67h-86q16 75 78 118t153 43
q100 0 145.5 -49t33.5 -137l-39 -282h76l-9 -64q-43 -13 -67 -37.5t-24 -55.5q0 -40 51 -40zM383 220l4 27h-148q-50 0 -82 -20.5t-37 -54.5l-5 -32q-5 -38 18 -59t69 -21q72 0 122 44t59 116z" />
    <glyph glyph-name="Cacute" unicode="&#x106;" horiz-adv-x="751" 
d="M653 918l-198 -112l-22 43l191 126zM340 -10q-137 0 -211 76t-74 215q0 207 109 332q110 126 289 126q133 0 208 -69t73 -185h-94q-4 79 -56.5 125t-144.5 46q-111 0 -185 -64q-74 -63 -90 -172l-16 -118q-14 -101 42 -166q57 -64 163 -64q87 0 155.5 46.5t97.5 125.5h94
q-34 -117 -132 -186q-97 -68 -228 -68z" />
    <glyph glyph-name="cacute" unicode="&#x107;" horiz-adv-x="564" 
d="M539 713l-198 -112l-22 43l191 126zM426 178h86q-25 -87 -94.5 -137.5t-164.5 -50.5q-101 0 -157 57.5t-56 157.5q0 144 82 235q83 92 211 92q90 0 145 -49t57 -131h-86q-7 52 -41 79.5t-89 27.5q-69 0 -120 -45q-50 -45 -60 -118l-12 -79q-10 -70 27.5 -112.5
t108.5 -42.5q58 0 102 31.5t61 84.5z" />
    <glyph glyph-name="Cdotaccent" unicode="&#x10a;" horiz-adv-x="751" 
d="M497 819h-77l16 113h77zM340 -10q-137 0 -211 76t-74 215q0 207 109 332q110 126 289 126q133 0 208 -69t73 -185h-94q-4 79 -56.5 125t-144.5 46q-111 0 -185 -64q-74 -63 -90 -172l-16 -118q-14 -101 42 -166q57 -64 163 -64q87 0 155.5 46.5t97.5 125.5h94
q-34 -117 -132 -186q-97 -68 -228 -68z" />
    <glyph glyph-name="cdotaccent" unicode="&#x10b;" horiz-adv-x="564" 
d="M382 614h-77l16 113h77zM426 178h86q-25 -87 -94.5 -137.5t-164.5 -50.5q-101 0 -157 57.5t-56 157.5q0 144 82 235q83 92 211 92q90 0 145 -49t57 -131h-86q-7 52 -41 79.5t-89 27.5q-69 0 -120 -45q-50 -45 -60 -118l-12 -79q-10 -70 27.5 -112.5t108.5 -42.5
q58 0 102 31.5t61 84.5z" />
    <glyph glyph-name="Ccaron" unicode="&#x10c;" horiz-adv-x="751" 
d="M423 780l-100 125l50 40l87 -110l119 110l39 -40l-136 -125h-59zM340 -10q-137 0 -211 76t-74 215q0 207 109 332q110 126 289 126q133 0 208 -69t73 -185h-94q-4 79 -56.5 125t-144.5 46q-111 0 -185 -64q-74 -63 -90 -172l-16 -118q-14 -101 42 -166q57 -64 163 -64
q87 0 155.5 46.5t97.5 125.5h94q-34 -117 -132 -186q-97 -68 -228 -68z" />
    <glyph glyph-name="ccaron" unicode="&#x10d;" horiz-adv-x="564" 
d="M308 574l-100 125l50 40l87 -110l119 110l39 -40l-136 -125h-59zM426 178h86q-25 -87 -94.5 -137.5t-164.5 -50.5q-101 0 -157 57.5t-56 157.5q0 144 82 235q83 92 211 92q90 0 145 -49t57 -131h-86q-7 52 -41 79.5t-89 27.5q-69 0 -120 -45q-50 -45 -60 -118l-12 -79
q-10 -70 27.5 -112.5t108.5 -42.5q58 0 102 31.5t61 84.5z" />
    <glyph glyph-name="Dcaron" unicode="&#x10e;" horiz-adv-x="747" 
d="M414 780l-100 125l50 40l87 -110l119 110l39 -40l-136 -125h-59zM360 0h-295l102 729h295q132 0 197.5 -63.5t65.5 -196.5q0 -223 -95 -347q-95 -122 -270 -122zM246 646l-79 -563h204q107 0 166 52t76 169l16 120q17 116 -27.5 169t-151.5 53h-204z" />
    <glyph glyph-name="dcaron" unicode="&#x10f;" horiz-adv-x="628" 
d="M224 -10q-88 0 -136 52.5t-48 149.5q0 148 72 240q72 93 187 93q65 0 110 -27t62 -75h7l43 310h86l-102 -733h-78l4 91h-6q-32 -48 -85 -74.5t-116 -26.5zM693 524l5 38q66 0 75 60l1 6h-58l15 105h107l-15 -111q-7 -46 -42 -72t-88 -26zM258 62q76 0 129 45.5t63 117.5
l9 65q10 73 -30.5 117.5t-115.5 44.5q-70 0 -116.5 -38.5t-55.5 -103.5l-15 -105q-9 -65 26.5 -104t105.5 -39z" />
    <glyph glyph-name="Dcroat" unicode="&#x110;" horiz-adv-x="747" 
d="M167 729h295q132 0 197.5 -63.5t65.5 -196.5q0 -223 -95 -347q-95 -122 -270 -122h-295l47 338h-85l8 77h88zM613 304l16 120q17 116 -27.5 169t-151.5 53h-204l-32 -231h133l-9 -77h-135l-36 -255h204q107 0 166 52t76 169z" />
    <glyph glyph-name="dslash" unicode="&#x111;" horiz-adv-x="628" 
d="M595 648h69l-9 -65h-69l-81 -583h-78l4 91h-6q-32 -48 -85 -74.5t-116 -26.5q-88 0 -136 52.5t-48 149.5q0 148 72 240q72 93 187 93q65 0 110 -27t62 -75h7l22 160h-184l9 65h184l12 85h86zM450 225l9 65q10 73 -30.5 117.5t-115.5 44.5q-70 0 -116.5 -38.5
t-55.5 -103.5l-15 -105q-9 -65 26.5 -104t105.5 -39q76 0 129 45.5t63 117.5z" />
    <glyph glyph-name="Emacron" unicode="&#x112;" horiz-adv-x="645" 
d="M563 814h-310l9 63h309zM549 0h-484l102 729h484l-11 -83h-394l-32 -231h346l-12 -79h-346l-35 -253h394z" />
    <glyph glyph-name="emacron" unicode="&#x113;" horiz-adv-x="568" 
d="M494 609h-310l9 63h309zM41 206q0 144 80 235q79 91 207 91q95 0 148.5 -50.5t53.5 -140.5q0 -50 -14 -98h-384l-4 -30q-10 -69 27.5 -111t109.5 -42q54 0 97.5 27t61.5 70h86q-25 -74 -97 -122q-70 -45 -161 -45q-100 0 -155.5 57.5t-55.5 158.5zM143 321l-2 -14h302
l2 20q8 61 -27 98t-100 37q-70 0 -119 -40q-48 -38 -56 -101z" />
    <glyph glyph-name="Edotaccent" unicode="&#x116;" horiz-adv-x="645" 
d="M447 819h-77l16 113h77zM549 0h-484l102 729h484l-11 -83h-394l-32 -231h346l-12 -79h-346l-35 -253h394z" />
    <glyph glyph-name="edotaccent" unicode="&#x117;" horiz-adv-x="568" 
d="M378 614h-77l16 113h77zM41 206q0 144 80 235q79 91 207 91q95 0 148.5 -50.5t53.5 -140.5q0 -50 -14 -98h-384l-4 -30q-10 -69 27.5 -111t109.5 -42q54 0 97.5 27t61.5 70h86q-25 -74 -97 -122q-70 -45 -161 -45q-100 0 -155.5 57.5t-55.5 158.5zM143 321l-2 -14h302
l2 20q8 61 -27 98t-100 37q-70 0 -119 -40q-48 -38 -56 -101z" />
    <glyph glyph-name="Eogonek" unicode="&#x118;" horiz-adv-x="645" 
d="M651 729l-11 -83h-394l-32 -231h346l-12 -79h-346l-35 -253h394l-12 -83q-43 -13 -67 -37.5t-24 -55.5q0 -40 51 -40q25 0 53 12l-6 -49q-30 -13 -70 -13q-39 2 -62 22t-23 53q0 64 65 108h-401l102 729h484z" />
    <glyph glyph-name="eogonek" unicode="&#x119;" horiz-adv-x="568" 
d="M516 243h-384l-4 -30q-10 -69 27.5 -111t109.5 -42q54 0 97.5 27t61.5 70h86q-23 -68 -83 -112t-139 -53l1 -2q-43 -13 -67 -37.5t-24 -55.5q0 -40 51 -40q25 0 53 12l-6 -49q-30 -13 -70 -13q-39 2 -62 22t-23 53q0 68 70 111q-81 11 -125.5 67t-44.5 146q0 144 80 235
q79 91 207 91q95 0 148.5 -50.5t53.5 -140.5q0 -50 -14 -98zM143 321l-2 -14h302l2 20q8 61 -27 98t-100 37q-70 0 -119 -40q-48 -38 -56 -101z" />
    <glyph glyph-name="Ecaron" unicode="&#x11a;" horiz-adv-x="645" 
d="M373 780l-100 125l50 40l87 -110l119 110l39 -40l-136 -125h-59zM549 0h-484l102 729h484l-11 -83h-394l-32 -231h346l-12 -79h-346l-35 -253h394z" />
    <glyph glyph-name="ecaron" unicode="&#x11b;" horiz-adv-x="568" 
d="M304 574l-100 125l50 40l87 -110l119 110l39 -40l-136 -125h-59zM41 206q0 144 80 235q79 91 207 91q95 0 148.5 -50.5t53.5 -140.5q0 -50 -14 -98h-384l-4 -30q-10 -69 27.5 -111t109.5 -42q54 0 97.5 27t61.5 70h86q-25 -74 -97 -122q-70 -45 -161 -45
q-100 0 -155.5 57.5t-55.5 158.5zM143 321l-2 -14h302l2 20q8 61 -27 98t-100 37q-70 0 -119 -40q-48 -38 -56 -101z" />
    <glyph glyph-name="Gbreve" unicode="&#x11e;" horiz-adv-x="812" 
d="M571 947h60q-9 -63 -54.5 -102.5t-109.5 -39.5q-65 0 -98.5 39t-24.5 103h59q-6 -40 14 -64.5t57 -24.5q38 0 64.5 24.5t32.5 64.5zM54 280q0 202 112 329q112 129 289 129q122 0 196 -61q77 -61 81 -162h-95q-5 64 -57 102.5t-134 38.5q-110 0 -189 -66
q-77 -66 -94 -174l-16 -114q-14 -105 43 -169q57 -65 168 -65q110 0 189 67q81 68 97 173h-283l11 78h376l-55 -386h-74l9 127h-7q-102 -137 -287 -137q-134 0 -207 77t-73 213z" />
    <glyph glyph-name="gbreve" unicode="&#x11f;" horiz-adv-x="531" 
d="M170 742h59q-6 -40 14 -64.5t57 -24.5q38 0 64.5 24.5t32.5 64.5h60q-9 -63 -54 -102.5t-110 -39.5t-98.5 39t-24.5 103zM551 595l-10 -71h-99l-6 -46q32 -38 32 -95q0 -85 -62 -141t-155 -56q-41 0 -70 9q-53 -12 -53 -56q0 -37 64 -37h137q68 0 105.5 -29t37.5 -80
q0 -82 -72 -128t-202 -46q-103 0 -155.5 28.5t-52.5 81.5q0 42 26 74.5t71 45.5l1 7q-42 14 -42 60q0 32 23 59.5t59 37.5l1 6q-59 39 -59 114q0 85 63 142q65 57 159 57q51 0 90 -17l2 17q9 63 82 63h85zM379 340l5 36q6 41 -21.5 67t-77.5 26t-84.5 -25.5t-40.5 -67.5
l-5 -36q-7 -41 21 -66.5t78 -25.5t84.5 25.5t40.5 66.5zM313 29h-142q-45 0 -71 -21t-26 -58q0 -66 138 -66q172 0 172 94q0 51 -71 51z" />
    <glyph glyph-name="Gdotaccent" unicode="&#x120;" horiz-adv-x="812" 
d="M508 819h-77l16 113h77zM54 280q0 202 112 329q112 129 289 129q122 0 196 -61q77 -61 81 -162h-95q-5 64 -57 102.5t-134 38.5q-110 0 -189 -66q-77 -66 -94 -174l-16 -114q-14 -105 43 -169q57 -65 168 -65q110 0 189 67q81 68 97 173h-283l11 78h376l-55 -386h-74
l9 127h-7q-102 -137 -287 -137q-134 0 -207 77t-73 213z" />
    <glyph glyph-name="gdotaccent" unicode="&#x121;" horiz-adv-x="531" 
d="M280 727h77l-16 -113h-77zM551 595l-10 -71h-99l-6 -46q32 -38 32 -95q0 -85 -62 -141t-155 -56q-41 0 -70 9q-53 -12 -53 -56q0 -37 64 -37h137q68 0 105.5 -29t37.5 -80q0 -82 -72 -128t-202 -46q-103 0 -155.5 28.5t-52.5 81.5q0 42 26 74.5t71 45.5l1 7
q-42 14 -42 60q0 32 23 59.5t59 37.5l1 6q-59 39 -59 114q0 85 63 142q65 57 159 57q51 0 90 -17l2 17q9 63 82 63h85zM379 340l5 36q6 41 -21.5 67t-77.5 26t-84.5 -25.5t-40.5 -67.5l-5 -36q-7 -41 21 -66.5t78 -25.5t84.5 25.5t40.5 66.5zM313 29h-142q-45 0 -71 -21
t-26 -58q0 -66 138 -66q172 0 172 94q0 51 -71 51z" />
    <glyph glyph-name="uni0122" unicode="&#x122;" horiz-adv-x="812" 
d="M54 280q0 202 112 329q112 129 289 129q122 0 196 -61q77 -61 81 -162h-95q-5 64 -57 102.5t-134 38.5q-110 0 -189 -66q-77 -66 -94 -174l-16 -114q-14 -105 43 -169q57 -65 168 -65q110 0 189 67q81 68 97 173h-283l11 78h376l-55 -386h-74l9 127h-7
q-102 -137 -287 -137q-134 0 -207 77t-73 213zM313 -223v27q19 0 30 12.5t11 34.5v4h-41v89h81v-80q0 -42 -21.5 -64.5t-59.5 -22.5z" />
    <glyph glyph-name="uni0123" unicode="&#x123;" horiz-adv-x="531" 
d="M290 701h40v-88h-80v74q0 44 21.5 68.5t58.5 24.5v-27q-18 0 -29 -13t-11 -34v-5zM551 595l-10 -71h-99l-6 -46q32 -38 32 -95q0 -85 -62 -141t-155 -56q-41 0 -70 9q-53 -12 -53 -56q0 -37 64 -37h137q68 0 105.5 -29t37.5 -80q0 -82 -72 -128t-202 -46
q-103 0 -155.5 28.5t-52.5 81.5q0 42 26 74.5t71 45.5l1 7q-42 14 -42 60q0 32 23 59.5t59 37.5l1 6q-59 39 -59 114q0 85 63 142q65 57 159 57q51 0 90 -17l2 17q9 63 82 63h85zM379 340l5 36q6 41 -21.5 67t-77.5 26t-84.5 -25.5t-40.5 -67.5l-5 -36q-7 -41 21 -66.5
t78 -25.5t84.5 25.5t40.5 66.5zM313 29h-142q-45 0 -71 -21t-26 -58q0 -66 138 -66q172 0 172 94q0 51 -71 51z" />
    <glyph glyph-name="Hbar" unicode="&#x126;" horiz-adv-x="802" 
d="M753 633h83l-9 -73h-85l-78 -560h-90l46 334h-418l-47 -334h-90l78 560h-81l8 73h84l13 96h90l-13 -96h419l13 96h90zM213 412h419l21 148h-419z" />
    <glyph glyph-name="hbar" unicode="&#x127;" horiz-adv-x="617" 
d="M395 532q84 0 124.5 -56.5t26.5 -153.5l-45 -322h-87l44 313q21 146 -103 146q-69 0 -118.5 -50.5t-60.5 -132.5l-39 -276h-86l81 581h-118l9 66h118l12 86h87l-12 -86h135l-9 -66h-135l-22 -154h7q31 49 82 77t109 28z" />
    <glyph glyph-name="Imacron" unicode="&#x12a;" horiz-adv-x="293" 
d="M379 814h-310l9 63h309zM257 729l-102 -729h-90l102 729h90z" />
    <glyph glyph-name="imacron" unicode="&#x12b;" horiz-adv-x="260" 
d="M335 615h-310l9 63h309zM136 0h-85l73 522h86z" />
    <glyph glyph-name="Iogonek" unicode="&#x12e;" horiz-adv-x="293" 
d="M63 -93q0 -40 51 -40q24 0 53 12l-6 -49q-30 -13 -70 -13q-39 2 -62 22t-23 53q0 64 65 108h-6l102 729h90l-102 -729h-1q-43 -13 -67 -37.5t-24 -55.5z" />
    <glyph glyph-name="iogonek" unicode="&#x12f;" horiz-adv-x="260" 
d="M142 620l16 113h77l-16 -113h-77zM136 0h-6q-43 -13 -67 -37.5t-24 -55.5q0 -40 51 -40q24 0 53 12l-6 -49q-30 -13 -70 -13q-39 2 -62 22t-23 53q0 66 69 111l73 519h86z" />
    <glyph glyph-name="Idot" unicode="&#x130;" horiz-adv-x="293" 
d="M264 819h-83l16 113h83zM257 729l-102 -729h-90l102 729h90z" />
    <glyph glyph-name="dotlessi" unicode="&#x131;" horiz-adv-x="260" 
d="M136 0h-85l73 522h86z" />
    <glyph glyph-name="Jcircumflex" unicode="&#x134;" horiz-adv-x="393" 
d="M320 960h58l100 -123l-49 -42l-89 110l-119 -110l-37 41zM183 82l29 209l62 438h88l-61 -438l-30 -214q-11 -77 -89 -77h-203l12 82h192z" />
    <glyph glyph-name="jcircumflex" unicode="&#x135;" horiz-adv-x="270" 
d="M182 753h58l100 -123l-49 -42l-89 110l-119 -110l-37 41zM48 -97l16 117l71 502h85l-70 -502l-16 -110q-5 -26 -16 -45q-18 -32 -73 -32h-122l10 70h115z" />
    <glyph glyph-name="uni0136" unicode="&#x136;" horiz-adv-x="671" 
d="M616 729h107l-310 -318l218 -411h-107l-180 340l-165 -170l-24 -170h-90l102 729h90l-61 -435zM316 -145h-41v89h81v-80q0 -42 -21.5 -64.5t-59.5 -22.5v27q19 0 30 12.5t11 34.5v4z" />
    <glyph glyph-name="uni0137" unicode="&#x137;" horiz-adv-x="556" 
d="M452 522h111l-230 -204l167 -318h-96l-136 260l-107 -94l-23 -166h-87l102 733h87l-63 -454zM255 -145h-41v89h81v-80q0 -42 -21.5 -64.5t-59.5 -22.5v27q19 0 30 12.5t11 34.5v4z" />
    <glyph glyph-name="Lacute" unicode="&#x139;" horiz-adv-x="571" 
d="M420 918l-198 -112l-22 43l191 126zM500 0h-435l102 729h90l-90 -646h345z" />
    <glyph glyph-name="lacute" unicode="&#x13a;" horiz-adv-x="260" 
d="M405 922l-198 -112l-22 43l191 126zM136 0h-85l102 733h86z" />
    <glyph glyph-name="uni013B" unicode="&#x13b;" horiz-adv-x="571" 
d="M500 0h-435l102 729h90l-90 -646h345zM241 -223v27q19 0 30 12.5t11 34.5v4h-41v89h81v-80q0 -42 -21.5 -64.5t-59.5 -22.5z" />
    <glyph glyph-name="uni013C" unicode="&#x13c;" horiz-adv-x="260" 
d="M136 0h-85l102 733h86zM53 -223v27q19 0 30 12.5t11 34.5v4h-41v89h81v-80q0 -42 -21.5 -64.5t-59.5 -22.5z" />
    <glyph glyph-name="Lcaron" unicode="&#x13d;" horiz-adv-x="571" 
d="M333 476l5 41q67 0 78 68l4 28h-59l16 118h109l-21 -146q-7 -51 -42.5 -80t-89.5 -29zM500 0h-435l102 729h90l-90 -646h345z" />
    <glyph glyph-name="lcaron" unicode="&#x13e;" horiz-adv-x="260" 
d="M174 783l-100 125l50 40l87 -110l119 110l39 -40l-136 -125h-59zM136 0h-85l102 733h86z" />
    <glyph glyph-name="Ldot" unicode="&#x13f;" horiz-adv-x="571" 
d="M500 0h-435l102 729h90l-90 -646h345zM317 379q0 34 24 59t58 25q29 0 46.5 -17t17.5 -45q0 -34 -24.5 -58t-59.5 -24q-27 0 -44.5 17t-17.5 43z" />
    <glyph glyph-name="ldot" unicode="&#x140;" horiz-adv-x="420" 
d="M136 0h-85l102 733h86zM262 367q0 34 24 59t58 25q29 0 46.5 -17t17.5 -45q0 -34 -24.5 -58t-59.5 -24q-27 0 -44.5 17t-17.5 43z" />
    <glyph glyph-name="Lslash" unicode="&#x141;" horiz-adv-x="596" 
d="M233 383l-42 -300h345l-12 -83h-435l49 351l-102 -34l12 80l101 34l42 298h91l-37 -266l175 59l-12 -80z" />
    <glyph glyph-name="lslash" unicode="&#x142;" horiz-adv-x="260" 
d="M232 505l48 17l-11 -79l-48 -17l-59 -426h-86l55 394l-100 -36l12 80l100 35l36 260h85z" />
    <glyph glyph-name="Nacute" unicode="&#x143;" horiz-adv-x="791" 
d="M695 918l-198 -112l-22 43l191 126zM155 0h-90l102 729h112l302 -615h4l25 221l55 394h90l-102 -729h-113l-300 615h-4l-24 -212z" />
    <glyph glyph-name="nacute" unicode="&#x144;" horiz-adv-x="618" 
d="M602 713l-198 -112l-22 43l191 126zM137 0h-86l73 522h76l-2 -97h6q31 50 82 78.5t109 28.5q85 0 125.5 -57t26.5 -154l-45 -321h-87l44 312q20 143 -103 143q-69 0 -119 -50t-61 -132z" />
    <glyph glyph-name="uni0145" unicode="&#x145;" horiz-adv-x="791" 
d="M155 0h-90l102 729h112l302 -615h4l25 221l55 394h90l-102 -729h-113l-300 615h-4l-24 -212zM310 -191v27q19 0 30 12.5t11 34.5v4h-41v89h81v-80q0 -42 -21.5 -64.5t-59.5 -22.5z" />
    <glyph glyph-name="uni0146" unicode="&#x146;" horiz-adv-x="618" 
d="M137 0h-86l73 522h76l-2 -97h6q31 50 82 78.5t109 28.5q85 0 125.5 -57t26.5 -154l-45 -321h-87l44 312q20 143 -103 143q-69 0 -119 -50t-61 -132zM235 -223v27q19 0 30 12.5t11 34.5v4h-41v89h81v-80q0 -42 -21.5 -64.5t-59.5 -22.5z" />
    <glyph glyph-name="Ncaron" unicode="&#x147;" horiz-adv-x="791" 
d="M464 780l-100 125l50 40l87 -110l119 110l39 -40l-136 -125h-59zM155 0h-90l102 729h112l302 -615h4l25 221l55 394h90l-102 -729h-113l-300 615h-4l-24 -212z" />
    <glyph glyph-name="ncaron" unicode="&#x148;" horiz-adv-x="618" 
d="M372 574l-100 125l50 40l87 -110l119 110l39 -40l-136 -125h-59zM137 0h-86l73 522h76l-2 -97h6q31 50 82 78.5t109 28.5q85 0 125.5 -57t26.5 -154l-45 -321h-87l44 312q20 143 -103 143q-69 0 -119 -50t-61 -132z" />
    <glyph glyph-name="Eng" unicode="&#x14a;" horiz-adv-x="791" 
d="M665 729h90l-102 -729l-13 -90q-5 -26 -16 -45q-18 -32 -73 -32h-122l9 64h113l15 103h-26l-300 615h-4l-24 -212l-57 -403h-90l102 729h112l302 -615h4l25 221z" />
    <glyph glyph-name="eng" unicode="&#x14b;" horiz-adv-x="655" 
d="M547 321l-35 -248h37l-23 -163q-5 -25 -16 -44q-17 -33 -73 -33h-122l9 64h113l15 103h-37l44 312q20 143 -103 143q-69 0 -119 -50t-61 -132l-39 -273h-86l73 522h76l-2 -97h6q31 50 82 78.5t109 28.5q85 0 125.5 -57t26.5 -154z" />
    <glyph glyph-name="Omacron" unicode="&#x14c;" horiz-adv-x="772" 
d="M619 814h-310l9 63h309zM55 282q0 205 110 330q109 126 290 126q141 0 217.5 -76.5t76.5 -215.5q0 -204 -110 -331q-110 -125 -289 -125q-142 0 -218.5 76t-76.5 216zM164 416l-15 -102q-17 -113 40.5 -177.5t170.5 -64.5q116 0 190 65q74 66 90 177l15 102
q16 111 -41 175.5t-171 64.5q-115 0 -189 -64.5t-90 -175.5z" />
    <glyph glyph-name="omacron" unicode="&#x14d;" horiz-adv-x="590" 
d="M498 609h-310l9 63h309zM41 206q0 143 82 234q83 92 210 92q100 0 158.5 -57.5t58.5 -159.5q0 -143 -82 -234t-211 -91q-102 0 -159 57t-57 159zM139 299l-12 -81q-9 -73 30 -114.5t110 -41.5t122.5 42.5t61.5 113.5l11 81q10 71 -28.5 115.5t-110.5 44.5q-71 0 -123 -45
q-52 -43 -61 -115z" />
    <glyph glyph-name="Ohungarumlaut" unicode="&#x150;" horiz-adv-x="772" 
d="M558 896l-189 -123l-26 41l183 136zM747 884l-197 -111l-22 42l189 126zM55 282q0 205 110 330q109 126 290 126q141 0 217.5 -76.5t76.5 -215.5q0 -204 -110 -331q-110 -125 -289 -125q-142 0 -218.5 76t-76.5 216zM164 416l-15 -102q-17 -113 40.5 -177.5t170.5 -64.5
q116 0 190 65q74 66 90 177l15 102q16 111 -41 175.5t-171 64.5q-115 0 -189 -64.5t-90 -175.5z" />
    <glyph glyph-name="ohungarumlaut" unicode="&#x151;" horiz-adv-x="590" 
d="M437 691l-189 -123l-26 41l183 136zM626 679l-197 -111l-22 42l189 126zM41 206q0 143 82 234q83 92 210 92q100 0 158.5 -57.5t58.5 -159.5q0 -143 -82 -234t-211 -91q-102 0 -159 57t-57 159zM139 299l-12 -81q-9 -73 30 -114.5t110 -41.5t122.5 42.5t61.5 113.5l11 81
q10 71 -28.5 115.5t-110.5 44.5q-71 0 -123 -45q-52 -43 -61 -115z" />
    <glyph glyph-name="OE" unicode="&#x152;" horiz-adv-x="961" 
d="M55 282q0 210 108 328q108 119 300 119h507l-12 -83h-394l-33 -231h346l-11 -79h-345l-36 -253h394l-12 -83h-507q-151 0 -228 72.5t-77 209.5zM164 416l-15 -103q-15 -107 43 -168q59 -62 167 -62h35l80 563h-36q-113 0 -186 -59.5t-88 -170.5z" />
    <glyph glyph-name="oe" unicode="&#x153;" horiz-adv-x="986" 
d="M934 243h-385l-4 -30q-9 -69 28.5 -111t108.5 -42q55 0 98 26.5t62 70.5h86q-25 -74 -97 -122q-71 -45 -161 -45q-139 0 -189 107q-83 -107 -224 -107q-102 0 -159 57t-57 159q0 143 82 234q83 92 210 92q140 0 194 -106q79 106 219 106q94 0 148 -50.5t54 -140.5
q0 -50 -14 -98zM560 321l-1 -14h301l3 20q8 61 -27 98t-100 37q-70 0 -119.5 -39t-56.5 -102zM451 218l11 81q10 71 -28.5 115.5t-110.5 44.5q-71 0 -123 -45q-52 -43 -61 -115l-12 -81q-9 -73 30 -114.5t110 -41.5t122.5 42.5t61.5 113.5z" />
    <glyph glyph-name="Racute" unicode="&#x154;" horiz-adv-x="723" 
d="M639 918l-198 -112l-22 43l191 126zM155 0h-90l102 729h338q92 0 138.5 -43.5t46.5 -125.5q0 -80 -35.5 -140.5t-96.5 -81.5l-1 -6h39q68 0 58 -73l-37 -259h-91l39 281h-370zM246 648l-40 -288h231q62 0 101.5 30.5t46.5 81.5l9 65q8 54 -23 82.5t-94 28.5h-231z" />
    <glyph glyph-name="racute" unicode="&#x155;" horiz-adv-x="360" 
d="M435 776l29 -57l-198 -112l-22 43zM92 298l22 147q11 77 89 77h181l-10 -72h-174l-21 -152l-42 -298h-86z" />
    <glyph glyph-name="uni0156" unicode="&#x156;" horiz-adv-x="723" 
d="M155 0h-90l102 729h338q92 0 138.5 -43.5t46.5 -125.5q0 -80 -35.5 -140.5t-96.5 -81.5l-1 -6h39q68 0 58 -73l-37 -259h-91l39 281h-370zM246 648l-40 -288h231q62 0 101.5 30.5t46.5 81.5l9 65q8 54 -23 82.5t-94 28.5h-231zM307 -223v27q19 0 30 12.5t11 34.5v4h-41
v89h81v-80q0 -42 -21.5 -64.5t-59.5 -22.5z" />
    <glyph glyph-name="uni0157" unicode="&#x157;" horiz-adv-x="360" 
d="M203 522h181l-10 -72h-174l-21 -152l-42 -298h-86l41 298l22 147q11 77 89 77zM94 -145h-41v89h81v-80q0 -42 -21.5 -64.5t-59.5 -22.5v27q19 0 30 12.5t11 34.5v4z" />
    <glyph glyph-name="Rcaron" unicode="&#x158;" horiz-adv-x="723" 
d="M409 780l-100 125l50 40l87 -110l119 110l39 -40l-136 -125h-59zM155 0h-90l102 729h338q92 0 138.5 -43.5t46.5 -125.5q0 -80 -35.5 -140.5t-96.5 -81.5l-1 -6h39q68 0 58 -73l-37 -259h-91l39 281h-370zM246 648l-40 -288h231q62 0 101.5 30.5t46.5 81.5l9 65
q8 54 -23 82.5t-94 28.5h-231z" />
    <glyph glyph-name="rcaron" unicode="&#x159;" horiz-adv-x="360" 
d="M429 706l-136 -125h-59l-100 125l50 40l87 -110l119 110zM92 298l22 147q11 77 89 77h181l-10 -72h-174l-21 -152l-42 -298h-86z" />
    <glyph glyph-name="Sacute" unicode="&#x15a;" horiz-adv-x="670" 
d="M620 918l-198 -112l-22 43l191 126zM57 225h93q-9 -78 37.5 -119.5t135.5 -41.5t143 42q55 43 55 113q0 75 -101 98l-124 29l-43 10q-15 4 -45 18q-32 15 -46 28q-44 44 -44 105q0 102 80 167t206 65q119 0 182.5 -56.5t51.5 -154.5h-93q5 66 -35 101.5t-116 35.5
q-79 0 -128.5 -37.5t-49.5 -97.5q0 -49 42 -72q33 -15 73 -25l133 -30q154 -34 154 -162q0 -111 -86 -182q-86 -69 -224 -69t-202 66q-63 67 -49 169z" />
    <glyph glyph-name="sacute" unicode="&#x15b;" horiz-adv-x="504" 
d="M504 713l-198 -112l-22 43l191 126zM38 158h86q-6 -46 24.5 -73t88.5 -27t94 27t36 72q0 47 -60 60l-108 21q-122 24 -122 117q0 78 61 127q62 50 159 50q92 0 139.5 -43t38.5 -116h-86q5 45 -21.5 68.5t-78.5 23.5q-56 0 -89.5 -25t-33.5 -67q0 -36 28 -49
q24 -10 47 -14l100 -19q118 -19 118 -118q0 -82 -64 -133q-65 -50 -167 -50q-99 0 -150 46t-40 122z" />
    <glyph glyph-name="Scedilla" unicode="&#x15e;" horiz-adv-x="670" 
d="M637 528h-93q5 66 -35 101.5t-116 35.5q-79 0 -128.5 -37.5t-49.5 -97.5q0 -49 42 -72q33 -15 73 -25l133 -30q154 -34 154 -162q0 -107 -78 -175q-78 -67 -206 -75l-26 -33q29 -1 48 -16t19 -41q0 -41 -33 -65q-60 -44 -141 -10l7 51q21 -26 65 -20q44 5 44 41
q0 40 -71 22l4 24l34 47q-124 6 -183 71q-57 66 -44 163h93q-9 -78 37.5 -119.5t135.5 -41.5t143 42q55 43 55 113q0 75 -101 98l-124 29l-43 10q-15 4 -45 18q-32 15 -46 28q-44 44 -44 105q0 102 80 167t206 65q119 0 182.5 -56.5t51.5 -154.5z" />
    <glyph glyph-name="scedilla" unicode="&#x15f;" horiz-adv-x="504" 
d="M474 373h-86q5 45 -21.5 68.5t-78.5 23.5q-56 0 -89.5 -25t-33.5 -67q0 -36 28 -49q24 -10 47 -14l100 -19q118 -19 118 -118q0 -78 -57 -127q-56 -49 -151 -55l-33 -43q29 -1 48 -16t19 -41q0 -41 -33 -65q-60 -44 -141 -10l7 51q21 -26 65 -20q44 5 44 41q0 40 -71 22
l4 24l42 57q-87 6 -130.5 50.5t-33.5 116.5h86q-6 -46 24.5 -73t88.5 -27t94 27t36 72q0 47 -60 60l-108 21q-122 24 -122 117q0 78 61 127q62 50 159 50q92 0 139.5 -43t38.5 -116z" />
    <glyph glyph-name="Scaron" unicode="&#x160;" horiz-adv-x="670" 
d="M389 780l-100 125l50 40l87 -110l119 110l39 -40l-136 -125h-59zM57 225h93q-9 -78 37.5 -119.5t135.5 -41.5t143 42q55 43 55 113q0 75 -101 98l-124 29l-43 10q-15 4 -45 18q-32 15 -46 28q-44 44 -44 105q0 102 80 167t206 65q119 0 182.5 -56.5t51.5 -154.5h-93
q5 66 -35 101.5t-116 35.5q-79 0 -128.5 -37.5t-49.5 -97.5q0 -49 42 -72q33 -15 73 -25l133 -30q154 -34 154 -162q0 -111 -86 -182q-86 -69 -224 -69t-202 66q-63 67 -49 169z" />
    <glyph glyph-name="scaron" unicode="&#x161;" horiz-adv-x="504" 
d="M273 574l-100 125l50 40l87 -110l119 110l39 -40l-136 -125h-59zM38 158h86q-6 -46 24.5 -73t88.5 -27t94 27t36 72q0 47 -60 60l-108 21q-122 24 -122 117q0 78 61 127q62 50 159 50q92 0 139.5 -43t38.5 -116h-86q5 45 -21.5 68.5t-78.5 23.5q-56 0 -89.5 -25
t-33.5 -67q0 -36 28 -49q24 -10 47 -14l100 -19q118 -19 118 -118q0 -82 -64 -133q-65 -50 -167 -50q-99 0 -150 46t-40 122z" />
    <glyph glyph-name="uni0162" unicode="&#x162;" horiz-adv-x="555" 
d="M378 647l-91 -647h-22l-33 -42q29 -1 48 -16t19 -41q0 -41 -33 -65q-60 -44 -141 -10l7 51q21 -26 65 -20q44 5 44 41q0 40 -71 22l4 24l41 56h-18l90 647h-227l12 82h544l-12 -82h-226z" />
    <glyph glyph-name="uni0163" unicode="&#x163;" horiz-adv-x="345" 
d="M330 450h-110l-36 -256l-16 -122h110l-10 -72h-71l-33 -42q29 -1 48 -16t19 -41q0 -41 -33 -65q-60 -44 -141 -10l7 51q21 -26 65 -20q44 5 44 41q0 40 -71 22l4 24l41 56q-75 0 -65 73l53 377h-95l10 72h95l24 173h86l-24 -173h110z" />
    <glyph glyph-name="Tcaron" unicode="&#x164;" horiz-adv-x="555" 
d="M517 905l-136 -125h-59l-100 125l50 40l87 -110l119 110zM72 729h544l-12 -82h-226l-91 -647h-90l90 647h-227z" />
    <glyph glyph-name="tcaron" unicode="&#x165;" horiz-adv-x="345" 
d="M384 872l-136 -125h-59l-100 125l50 40l87 -110l119 110zM169 695h86l-24 -173h110l-11 -72h-110l-36 -256l-16 -122h110l-10 -72h-120q-76 0 -66 73l53 377h-95l10 72h95z" />
    <glyph glyph-name="Tbar" unicode="&#x166;" horiz-adv-x="555" 
d="M616 729l-12 -82h-226l-31 -219h172l-12 -77h-171l-49 -351h-90l49 351h-168l11 77h168l30 219h-227l12 82h544z" />
    <glyph glyph-name="tbar" unicode="&#x167;" horiz-adv-x="345" 
d="M341 522l-11 -72h-110l-18 -128h115l-8 -69h-117l-8 -59l-16 -122h110l-10 -72h-120q-76 0 -66 73l17 121l8 59h-88l8 69h90l18 128h-95l10 72h95l24 173h86l-24 -173h110z" />
    <glyph glyph-name="Umacron" unicode="&#x16a;" horiz-adv-x="775" 
d="M638 814h-310l9 63h309zM115 270l64 459h90l-64 -451q-13 -96 34 -150t140 -54q94 0 156 54.5t75 149.5l64 451h89l-64 -459q-18 -128 -108 -204q-88 -76 -224 -76q-139 0 -205 76q-65 77 -47 204z" />
    <glyph glyph-name="umacron" unicode="&#x16b;" horiz-adv-x="611" 
d="M520 615h-310l9 63h309zM488 522h86l-73 -522h-74l1 97h-8q-28 -49 -79 -78t-113 -29q-81 0 -119.5 52t-25.5 147l47 333h86l-45 -321q-19 -138 97 -138q70 0 120 51q51 54 61 135z" />
    <glyph glyph-name="Uring" unicode="&#x16e;" horiz-adv-x="775" 
d="M595 835q0 -55 -36.5 -91t-90.5 -36q-44 0 -70.5 24.5t-26.5 65.5q0 54 36.5 90t90.5 36q44 0 70.5 -24.5t26.5 -64.5zM540 827q0 22 -13 36t-35 14q-28 0 -47 -21t-19 -50q0 -23 13.5 -37t35.5 -14q27 0 46 21t19 51zM115 270l64 459h90l-64 -451q-13 -96 34 -150
t140 -54q94 0 156 54.5t75 149.5l64 451h89l-64 -459q-18 -128 -108 -204q-88 -76 -224 -76q-139 0 -205 76q-65 77 -47 204z" />
    <glyph glyph-name="uring" unicode="&#x16f;" horiz-adv-x="611" 
d="M478 636q0 -55 -36.5 -91t-90.5 -36q-44 0 -70.5 24.5t-26.5 65.5q0 54 36.5 90t90.5 36q44 0 70.5 -24.5t26.5 -64.5zM423 628q0 22 -13 36t-35 14q-28 0 -47 -21t-19 -50q0 -23 13.5 -37t35.5 -14q27 0 46 21t19 51zM488 522h86l-73 -522h-74l1 97h-8q-28 -49 -79 -78
t-113 -29q-81 0 -119.5 52t-25.5 147l47 333h86l-45 -321q-19 -138 97 -138q70 0 120 51q51 54 61 135z" />
    <glyph glyph-name="Uhungarumlaut" unicode="&#x170;" horiz-adv-x="775" 
d="M576 896l-189 -123l-26 41l183 136zM765 884l-197 -111l-22 42l189 126zM115 270l64 459h90l-64 -451q-13 -96 34 -150t140 -54q94 0 156 54.5t75 149.5l64 451h89l-64 -459q-18 -128 -108 -204q-88 -76 -224 -76q-139 0 -205 76q-65 77 -47 204z" />
    <glyph glyph-name="uhungarumlaut" unicode="&#x171;" horiz-adv-x="611" 
d="M458 697l-189 -123l-26 41l183 136zM647 685l-197 -111l-22 42l189 126zM488 522h86l-73 -522h-74l1 97h-8q-28 -49 -79 -78t-113 -29q-81 0 -119.5 52t-25.5 147l47 333h86l-45 -321q-19 -138 97 -138q70 0 120 51q51 54 61 135z" />
    <glyph glyph-name="Uogonek" unicode="&#x172;" horiz-adv-x="775" 
d="M610 278l64 451h89l-64 -459q-16 -111 -87 -185q-70 -73 -181 -90q-36 -13 -56 -36.5t-20 -51.5q0 -40 51 -40q24 0 53 12l-6 -49q-30 -13 -70 -13q-39 2 -62 22t-23 53q0 58 52 98q-129 5 -191 80t-44 200l64 459h90l-64 -451q-13 -96 34 -150t140 -54q94 0 156 54.5
t75 149.5z" />
    <glyph glyph-name="uogonek" unicode="&#x173;" horiz-adv-x="611" 
d="M409 -93q0 -40 51 -40q24 0 53 12l-6 -49q-30 -13 -70 -13q-39 2 -62 22t-23 53q0 70 75 114l1 91h-8q-28 -49 -79 -78t-113 -29q-81 0 -119.5 52t-25.5 147l47 333h86l-45 -321q-19 -138 97 -138q70 0 120 51q51 54 61 135l39 273h86l-73 -522h-1q-43 -13 -67 -37.5
t-24 -55.5z" />
    <glyph glyph-name="Wcircumflex" unicode="&#x174;" horiz-adv-x="927" 
d="M431 795l-37 41l136 124h58l100 -123l-49 -42l-89 110zM124 0l-47 729h94l25 -434l6 -195h6l258 629h122l82 -629h6l60 194l146 435h99l-251 -729h-127l-85 630h-5l-262 -630h-127z" />
    <glyph glyph-name="wcircumflex" unicode="&#x175;" horiz-adv-x="744" 
d="M523 596l-89 110l-119 -110l-37 41l136 124h58l100 -123zM564 242l111 280h92l-216 -522h-113l-30 268l-13 148h-6l-52 -148l-102 -268h-115l-74 522h90l34 -277l12 -159h6l165 436h105l45 -434h5z" />
    <glyph glyph-name="Ycircumflex" unicode="&#x176;" horiz-adv-x="647" 
d="M295 795l-37 41l136 124h58l100 -123l-49 -42l-89 110zM284 295l-213 434h106l87 -189l69 -159h8l115 160l138 188h113l-333 -434l-41 -295h-91z" />
    <glyph glyph-name="ycircumflex" unicode="&#x177;" horiz-adv-x="518" 
d="M203 597l-37 41l136 124h58l100 -123l-49 -42l-89 110zM188 62l-153 460h92l52 -171l57 -200h6l215 371h98l-282 -461l-21 -151q-11 -77 -86 -77h-133l10 71h124z" />
    <glyph glyph-name="Ydieresis" unicode="&#x178;" horiz-adv-x="647" 
d="M345 819h-76l15 113h77zM536 819h-77l16 113h77zM284 295l-213 434h106l87 -189l69 -159h8l115 160l138 188h113l-333 -434l-41 -295h-91z" />
    <glyph glyph-name="Zacute" unicode="&#x179;" horiz-adv-x="575" 
d="M517 975l29 -57l-198 -112l-22 43zM84 729h538l-10 -73l-501 -573h416l-12 -83h-533l10 73l502 573h-421z" />
    <glyph glyph-name="zacute" unicode="&#x17a;" horiz-adv-x="439" 
d="M435 776l29 -57l-198 -112l-22 43zM336 450h-286l10 72h390l-10 -67l-339 -383h289l-10 -72h-393l9 65z" />
    <glyph glyph-name="Zdotaccent" unicode="&#x17b;" horiz-adv-x="575" 
d="M328 932h77l-16 -113h-77zM84 729h538l-10 -73l-501 -573h416l-12 -83h-533l10 73l502 573h-421z" />
    <glyph glyph-name="zdotaccent" unicode="&#x17c;" horiz-adv-x="439" 
d="M246 733h77l-16 -113h-77zM60 522h390l-10 -67l-339 -383h289l-10 -72h-393l9 65l340 385h-286z" />
    <glyph glyph-name="Zcaron" unicode="&#x17d;" horiz-adv-x="575" 
d="M510 905l-136 -125h-59l-100 125l50 40l87 -110l119 110zM84 729h538l-10 -73l-501 -573h416l-12 -83h-533l10 73l502 573h-421z" />
    <glyph glyph-name="zcaron" unicode="&#x17e;" horiz-adv-x="439" 
d="M428 706l-136 -125h-59l-100 125l50 40l87 -110l119 110zM60 522h390l-10 -67l-339 -383h289l-10 -72h-393l9 65l340 385h-286z" />
    <glyph glyph-name="uni018F" unicode="&#x18f;" horiz-adv-x="703" 
d="M417 739q126 0 194.5 -75t68.5 -211q0 -207 -103 -335q-104 -128 -268 -128q-124 0 -190.5 70.5t-66.5 195.5q0 36 7 75q8 46 10 51h513q18 135 -29.5 205t-151.5 70q-79 0 -141 -37q-64 -38 -87 -98h-90q33 99 126 157q93 60 208 60zM320 72q98 0 164.5 62t86.5 174
h-420q-15 -119 30 -177.5t139 -58.5z" />
    <glyph glyph-name="florin" unicode="&#x192;" horiz-adv-x="526" 
d="M111 -127h-143l10 74h145l116 417h-101l10 74h111l61 216q20 75 97 75h144l-11 -74h-144l-61 -217h113l-9 -74h-123l-115 -413q-23 -78 -100 -78z" />
    <glyph glyph-name="AEacute" unicode="&#x1fc;" horiz-adv-x="955" 
d="M819 975l29 -57l-198 -112l-22 43zM961 729l-11 -83h-402l-33 -242h344l-12 -78h-343l-34 -243h401l-12 -83h-491l28 202h-239l-94 -202h-95l351 729h642zM192 277h215l51 369h-95z" />
    <glyph glyph-name="Oslashacute" unicode="&#x1fe;" horiz-adv-x="772" 
d="M777 657l35 -60l-75 -50q12 -45 12 -101q0 -204 -110 -331q-110 -125 -289 -125q-188 0 -258 129l-71 -47l-31 60l77 51q-12 45 -12 99q0 205 110 330q109 126 290 126q183 0 255 -126zM164 416l-15 -102q-6 -46 -2 -77l488 325q-14 27 -42 50l-184 -104l-22 43l142 93
q-39 12 -86 12q-115 0 -189 -64.5t-90 -175.5zM640 314l15 102q6 45 2 78l-490 -325q51 -97 193 -97q116 0 190 65q74 66 90 177z" />
    <glyph glyph-name="oslashacute" unicode="&#x1ff;" horiz-adv-x="590" 
d="M473 770l29 -57l-198 -112l-22 43zM573 483l29 -53l-94 -63q4 -19 4 -52q0 -143 -82 -234t-210 -91q-113 0 -172 71l-33 -22l-28 52l32 21q-16 39 -16 94q0 143 82 234q83 92 211 92q141 0 193 -106zM101 299l-11 -81q-4 -25 1 -57l326 218q-14 37 -48.5 58.5t-82.5 21.5
q-70 0 -123 -45q-51 -42 -62 -115zM414 218l11 81q1 3 1 14l-309 -206q39 -45 113 -45q68 0 121 41q53 42 63 115z" />
    <glyph glyph-name="uni0218" unicode="&#x218;" horiz-adv-x="670" 
d="M57 225h93q-9 -78 37.5 -119.5t135.5 -41.5t143 42q55 43 55 113q0 75 -101 98l-124 29l-43 10q-15 4 -45 18q-32 15 -46 28q-44 44 -44 105q0 102 80 167t206 65q119 0 182.5 -56.5t51.5 -154.5h-93q5 66 -35 101.5t-116 35.5q-79 0 -128.5 -37.5t-49.5 -97.5
q0 -49 42 -72q33 -15 73 -25l133 -30q154 -34 154 -162q0 -111 -86 -182q-86 -69 -224 -69t-202 66q-63 67 -49 169zM276 -223v27q19 0 30 12.5t11 34.5v4h-41v89h81v-80q0 -42 -21.5 -64.5t-59.5 -22.5z" />
    <glyph glyph-name="uni0219" unicode="&#x219;" horiz-adv-x="504" 
d="M38 158h86q-6 -46 24.5 -73t88.5 -27t94 27t36 72q0 47 -60 60l-108 21q-122 24 -122 117q0 78 61 127q62 50 159 50q92 0 139.5 -43t38.5 -116h-86q5 45 -21.5 68.5t-78.5 23.5q-56 0 -89.5 -25t-33.5 -67q0 -36 28 -49q24 -10 47 -14l100 -19q118 -19 118 -118
q0 -82 -64 -133q-65 -50 -167 -50q-99 0 -150 46t-40 122zM187 -233v27q19 0 30 12.5t11 34.5v4h-41v89h81v-80q0 -42 -21.5 -64.5t-59.5 -22.5z" />
    <glyph glyph-name="uni021A" unicode="&#x21a;" horiz-adv-x="555" 
d="M72 729h544l-12 -82h-226l-91 -647h-90l90 647h-227zM241 -145h-41v89h81v-80q0 -42 -21.5 -64.5t-59.5 -22.5v27q19 0 30 12.5t11 34.5v4z" />
    <glyph glyph-name="uni021B" unicode="&#x21b;" horiz-adv-x="345" 
d="M330 450h-110l-36 -256l-16 -122h110l-10 -72h-120q-76 0 -66 73l53 377h-95l10 72h95l24 173h86l-24 -173h110zM173 -145h-41v89h81v-80q0 -42 -21.5 -64.5t-59.5 -22.5v27q19 0 30 12.5t11 34.5v4z" />
    <glyph glyph-name="uni0237" unicode="&#x237;" horiz-adv-x="270" 
d="M64 20l71 502h85l-70 -502l-16 -110q-5 -26 -16 -45q-18 -32 -73 -32h-122l10 70h115z" />
    <glyph glyph-name="circumflex" unicode="&#x2c6;" horiz-adv-x="356" 
d="M140 723l-37 41l136 124h58l100 -123l-49 -42l-89 110z" />
    <glyph glyph-name="caron" unicode="&#x2c7;" horiz-adv-x="356" 
d="M216 734l-100 125l50 40l87 -110l119 110l39 -40l-136 -125h-59z" />
    <glyph glyph-name="breve" unicode="&#x2d8;" horiz-adv-x="361" 
d="M359 867h60q-9 -63 -54.5 -102.5t-109.5 -39.5q-65 0 -98.5 39t-24.5 103h59q-6 -40 14 -64.5t57 -24.5q38 0 64.5 24.5t32.5 64.5z" />
    <glyph glyph-name="dotaccent" unicode="&#x2d9;" horiz-adv-x="186" 
d="M198 740h-77l16 113h77z" />
    <glyph glyph-name="ring" unicode="&#x2da;" horiz-adv-x="374" 
d="M376 796q0 -55 -36.5 -91t-90.5 -36q-44 0 -70.5 24.5t-26.5 65.5q0 54 36.5 90t90.5 36q44 0 70.5 -24.5t26.5 -64.5zM321 788q0 22 -13 36t-35 14q-28 0 -47 -21t-19 -50q0 -23 13.5 -37t35.5 -14q27 0 46 21t19 51z" />
    <glyph glyph-name="ogonek" unicode="&#x2db;" horiz-adv-x="414" 
d="M84 -108q0 46 36.5 84t96.5 53l15 -29q-43 -13 -67 -37.5t-24 -55.5q0 -40 51 -40q24 0 53 12l-6 -49q-30 -13 -70 -13q-39 2 -62 22t-23 53z" />
    <glyph glyph-name="tilde" unicode="&#x2dc;" horiz-adv-x="332" 
d="M292 735q-27 0 -66 17t-57 17q-29 0 -56 -34l-34 27q43 70 102 70q23 0 64 -18q42 -17 60 -17q32 0 59 34l34 -28q-41 -68 -106 -68z" />
    <glyph glyph-name="hungarumlaut" unicode="&#x2dd;" horiz-adv-x="484" 
d="M395 850l-189 -123l-26 41l183 136zM584 838l-197 -111l-22 42l189 126z" />
    <glyph glyph-name="gravecomb" unicode="&#x300;" 
d="M-35 766l-35 -43l-166 112l45 57z" />
    <glyph glyph-name="acutecomb" unicode="&#x301;" 
d="M-28 835l-198 -112l-22 43l191 126z" />
    <glyph glyph-name="uni0302" unicode="&#x302;" 
d="M-216 723l-37 41l136 124h58l100 -123l-49 -42l-89 110z" />
    <glyph glyph-name="tildecomb" unicode="&#x303;" 
d="M-40 735q-27 0 -66 17t-57 17q-29 0 -56 -34l-34 27q43 70 102 70q25 0 65 -18q42 -17 59 -17q32 0 59 34l34 -28q-41 -68 -106 -68z" />
    <glyph glyph-name="uni0304" unicode="&#x304;" 
d="M45 739h-310l9 63h309z" />
    <glyph glyph-name="uni0306" unicode="&#x306;" 
d="M-2 867h60q-9 -63 -54.5 -102.5t-109.5 -39.5q-65 0 -98.5 39t-24.5 103h59q-6 -40 14 -64.5t57 -24.5q38 0 64.5 24.5t32.5 64.5z" />
    <glyph glyph-name="uni0307" unicode="&#x307;" 
d="M12 740h-77l16 113h77z" />
    <glyph glyph-name="uni0308" unicode="&#x308;" 
d="M-185 740h-76l15 113h77zM6 740h-77l16 113h77z" />
    <glyph glyph-name="uni030A" unicode="&#x30a;" 
d="M2 796q0 -55 -36.5 -91t-90.5 -36q-44 0 -70.5 24.5t-26.5 65.5q0 54 36.5 90t90.5 36q44 0 70.5 -24.5t26.5 -64.5zM-53 788q0 22 -13 36t-35 14q-28 0 -47 -21t-19 -50q0 -23 13.5 -37t35.5 -14q27 0 46 21t19 51z" />
    <glyph glyph-name="uni030B" unicode="&#x30b;" 
d="M-89 850l-189 -123l-26 41l183 136zM100 838l-197 -111l-22 42l189 126z" />
    <glyph glyph-name="uni030C" unicode="&#x30c;" 
d="M-140 734l-100 125l50 40l87 -110l119 110l39 -40l-136 -125h-59z" />
    <glyph glyph-name="uni0312" unicode="&#x312;" 
d="M32 907v-27q-18 0 -29 -13t-11 -34v-5h40v-88h-80v74q0 44 21.5 68.5t58.5 24.5z" />
    <glyph glyph-name="uni0326" unicode="&#x326;" 
d="M-164 -225v27q19 0 30 12.5t11 34.5v4h-41v89h81v-80q0 -42 -21.5 -64.5t-59.5 -22.5z" />
    <glyph glyph-name="uni0327" unicode="&#x327;" 
d="M-262 3l-35 -45q29 -1 48 -16t19 -41q0 -41 -33 -65q-60 -44 -141 -10l7 51q21 -26 65 -20q44 5 44 41q0 40 -71 22l4 24l64 87h33z" />
    <glyph glyph-name="uni0328" unicode="&#x328;" 
d="M-330 -108q0 46 36.5 84t96.5 53l15 -29q-43 -13 -67 -37.5t-24 -55.5q0 -40 51 -40q24 0 53 12l-6 -49q-30 -13 -70 -13q-39 2 -62 22t-23 53z" />
    <glyph glyph-name="uni0335" unicode="&#x335;" 
d="M-59 304h-320l9 61h320z" />
    <glyph glyph-name="uni0336" unicode="&#x336;" 
 />
    <glyph glyph-name="uni0337" unicode="&#x337;" 
d="M-355 0h-64l393 729h63z" />
    <glyph glyph-name="uni0338" unicode="&#x338;" 
d="M-355 0h-64l393 729h63z" />
    <glyph glyph-name="uni03BC" unicode="&#x3bc;" horiz-adv-x="581" 
d="M115 -173h-77l80 695h86l-38 -332q-7 -61 20 -95t80 -34q60 0 100 43t49 116l33 302h87l-60 -522h-81l15 87h-6q-51 -97 -158 -97q-32 0 -59.5 13.5t-38.5 34.5h-7z" />
    <glyph glyph-name="pi" unicode="&#x3c0;" horiz-adv-x="582" 
d="M143 455h-90l7 67h532l-7 -67h-87l-47 -383h88l-6 -72h-95q-78 0 -71 75l46 380h-184l-53 -455h-87z" />
    <glyph glyph-name="omega" unicode="&#x3c9;" horiz-adv-x="798" 
d="M100 431q0 139 89 223q89 85 238 85q147 0 236 -84q90 -84 90 -224q0 -105 -59 -187q-60 -81 -155 -109v-65h159v-70h-236v183q88 16 145 76q56 61 56 143v57q0 94 -69 148q-67 55 -167 55t-168 -55q-69 -55 -69 -149v-57q0 -83 55 -142q57 -60 146 -76v-183h-235v70h159
v65q-98 29 -157 109q-58 79 -58 187z" />
    <glyph glyph-name="Wgrave" unicode="&#x1e80;" horiz-adv-x="927" 
d="M572 849l-35 -43l-166 112l45 57zM124 0l-47 729h94l25 -434l6 -195h6l258 629h122l82 -629h6l60 194l146 435h99l-251 -729h-127l-85 630h-5l-262 -630h-127z" />
    <glyph glyph-name="wgrave" unicode="&#x1e81;" horiz-adv-x="744" 
d="M300 776l156 -126l-35 -43l-166 112zM564 242l111 280h92l-216 -522h-113l-30 268l-13 148h-6l-52 -148l-102 -268h-115l-74 522h90l34 -277l12 -159h6l165 436h105l45 -434h5z" />
    <glyph glyph-name="Wacute" unicode="&#x1e82;" horiz-adv-x="927" 
d="M733 918l-198 -112l-22 43l191 126zM124 0l-47 729h94l25 -434l6 -195h6l258 629h122l82 -629h6l60 194l146 435h99l-251 -729h-127l-85 630h-5l-262 -630h-127z" />
    <glyph glyph-name="wacute" unicode="&#x1e83;" horiz-adv-x="744" 
d="M588 776l29 -57l-198 -112l-22 43zM564 242l111 280h92l-216 -522h-113l-30 268l-13 148h-6l-52 -148l-102 -268h-115l-74 522h90l34 -277l12 -159h6l165 436h105l45 -434h5z" />
    <glyph glyph-name="Wdieresis" unicode="&#x1e84;" horiz-adv-x="927" 
d="M481 819h-76l15 113h77zM672 819h-77l16 113h77zM124 0l-47 729h94l25 -434l6 -195h6l258 629h122l82 -629h6l60 194l146 435h99l-251 -729h-127l-85 630h-5l-262 -630h-127z" />
    <glyph glyph-name="wdieresis" unicode="&#x1e85;" horiz-adv-x="744" 
d="M303 733h77l-16 -113h-76zM494 733h77l-16 -113h-77zM564 242l111 280h92l-216 -522h-113l-30 268l-13 148h-6l-52 -148l-102 -268h-115l-74 522h90l34 -277l12 -159h6l165 436h105l45 -434h5z" />
    <glyph glyph-name="Ygrave" unicode="&#x1ef2;" horiz-adv-x="647" 
d="M437 849l-35 -43l-166 112l45 57zM284 295l-213 434h106l87 -189l69 -159h8l115 160l138 188h113l-333 -434l-41 -295h-91z" />
    <glyph glyph-name="ygrave" unicode="&#x1ef3;" horiz-adv-x="518" 
d="M344 650l-35 -43l-166 112l45 57zM188 62l-153 460h92l52 -171l57 -200h6l215 371h98l-282 -461l-21 -151q-11 -77 -86 -77h-133l10 71h124z" />
    <glyph glyph-name="endash" unicode="&#x2013;" horiz-adv-x="637" 
d="M577 271h-515l9 59h514z" />
    <glyph glyph-name="emdash" unicode="&#x2014;" horiz-adv-x="833" 
d="M773 271h-711l9 59h710z" />
    <glyph glyph-name="quoteleft" unicode="&#x2018;" horiz-adv-x="203" 
d="M229 743l-6 -43q-70 0 -80 -70l-4 -29h61l-17 -123h-112l21 151q8 54 44 84t93 30z" />
    <glyph glyph-name="quoteright" unicode="&#x2019;" horiz-adv-x="200" 
d="M73 468l6 43q73 0 80 70l4 29h-60l17 123h112l-21 -151q-8 -54 -44.5 -84t-93.5 -30z" />
    <glyph glyph-name="quotesinglbase" unicode="&#x201a;" horiz-adv-x="203" 
d="M-15 -142l5 43q71 0 81 70l4 29h-61l17 123h112l-21 -151q-8 -54 -45 -84t-92 -30z" />
    <glyph glyph-name="quotedblleft" unicode="&#x201c;" horiz-adv-x="406" 
d="M244 844l-6 -43q-70 0 -80 -70l-4 -29h61l-18 -123h-111l21 151q7 54 43.5 84t93.5 30zM447 844l-6 -43q-70 0 -80 -70l-4 -29h60l-17 -123h-111l21 151q7 54 43.5 84t93.5 30z" />
    <glyph glyph-name="quotedblright" unicode="&#x201d;" horiz-adv-x="406" 
d="M-1 -38l6 43q70 0 80 70l4 29h-60l17 123h111l-21 -151q-7 -54 -43.5 -84t-93.5 -30zM202 -38l6 43q70 0 80 70l4 29h-61l17 123h112l-21 -151q-7 -54 -43.5 -84t-93.5 -30z" />
    <glyph glyph-name="quotedblbase" unicode="&#x201e;" horiz-adv-x="406" 
d="M-15 -142l5 43q71 0 81 70l4 29h-61l17 123h112l-21 -151q-8 -54 -45 -84t-92 -30zM188 -142l5 43q71 0 81 70l4 29h-61l17 123h112l-21 -151q-8 -54 -45 -84t-92 -30z" />
    <glyph glyph-name="dagger" unicode="&#x2020;" horiz-adv-x="412" 
d="M307 732l-50 -357h135l-9 -66h-135l-22 -152h-70l21 152h-136l10 66h135l50 357h71z" />
    <glyph glyph-name="daggerdbl" unicode="&#x2021;" horiz-adv-x="412" 
d="M423 583l-9 -64h-137l-20 -144h135l-9 -66h-135l-22 -152h-70l21 152h-136l10 66h135l20 144h-134l9 64h134l21 149h71l-21 -149h137z" />
    <glyph glyph-name="bullet" unicode="&#x2022;" horiz-adv-x="392" 
d="M68 258q0 60 45 106q45 47 102 47q48 0 80 -33t32 -82q0 -60 -46 -106q-45 -45 -103 -45q-47 0 -78.5 32.5t-31.5 80.5z" />
    <glyph glyph-name="ellipsis" unicode="&#x2026;" horiz-adv-x="662" 
d="M143 0h-113l18 126h113zM351 0h-113l18 126h113zM559 0h-113l18 126h113z" />
    <glyph glyph-name="perthousand" unicode="&#x2030;" horiz-adv-x="1301" 
d="M103 557q0 81 48 130q50 50 128 50q79 0 127.5 -50t48.5 -131q0 -82 -49 -132q-48 -50 -127 -50t-127.5 50.5t-48.5 132.5zM305 0h-73l462 729h73zM174 557q0 -54 29 -87.5t76 -33.5t76 33.5t29 87.5q0 53 -29 86t-76 33q-46 0 -75.5 -33t-29.5 -86zM529 173q0 81 49 130
q50 51 128 51t126 -50.5t48 -131.5t-48 -131.5t-126 -50.5q-79 0 -128 50.5t-49 132.5zM930 173q0 81 49 130q49 51 128 51q77 0 127 -51q49 -49 49 -131t-49 -132q-48 -50 -127 -50t-128 50.5t-49 132.5zM600 173q0 -54 29.5 -87.5t76.5 -33.5q46 0 75 33.5t29 87.5
q0 53 -29 86.5t-75 33.5q-47 0 -76.5 -34t-29.5 -86zM1212 173q0 53 -29.5 86.5t-75.5 33.5q-47 0 -77 -34q-29 -34 -29 -86t29 -87q30 -34 77 -34t76 33.5t29 87.5z" />
    <glyph glyph-name="guilsinglleft" unicode="&#x2039;" horiz-adv-x="329" 
d="M149 65l-92 209l150 207h81l-140 -207l82 -209h-81z" />
    <glyph glyph-name="guilsinglright" unicode="&#x203a;" horiz-adv-x="330" 
d="M185 481l90 -207l-148 -209h-83l140 209l-81 207h82z" />
    <glyph glyph-name="fraction" unicode="&#x2044;" horiz-adv-x="206" 
d="M-109 -46h-72l521 814h73z" />
    <glyph glyph-name="uni2070" unicode="&#x2070;" horiz-adv-x="490" 
d="M252 295q-78 0 -121 53.5t-43 154.5q0 159 68 263q69 103 176 103q76 0 119 -53.5t43 -152.5q0 -161 -69 -264q-68 -104 -173 -104zM260 364q67 0 109 84q43 83 43 215q0 138 -90 138q-66 0 -110 -84q-43 -83 -43 -215q0 -138 91 -138z" />
    <glyph glyph-name="uni2074" unicode="&#x2074;" horiz-adv-x="479" 
d="M461 862l-53 -377h70l-9 -65h-70l-17 -120h-76l16 120h-273l10 65l283 377h119zM377 803l-238 -318h193z" />
    <glyph glyph-name="uni2075" unicode="&#x2075;" horiz-adv-x="473" 
d="M493 862l-10 -68h-258l-30 -161l3 -1q47 41 118 41t113.5 -43t42.5 -113q0 -95 -65 -160t-159 -65q-81 0 -128 50q-46 50 -32 130h79q-8 -48 17.5 -79.5t74.5 -31.5q55 0 93 41t38 103q0 46 -26.5 73.5t-71.5 27.5q-33 0 -64 -15.5t-45 -40.5h-73l56 312h327z" />
    <glyph glyph-name="uni2076" unicode="&#x2076;" horiz-adv-x="478" 
d="M253 292q-163 0 -163 202q0 170 68 273q68 102 181 102q75 0 116.5 -38t38.5 -105h-80q0 38 -24 57.5t-62 19.5q-130 0 -149 -211h4q48 75 141 75q66 0 106.5 -41t40.5 -109q0 -96 -62 -161q-61 -64 -156 -64zM266 361q54 0 88 42q36 42 36 104q0 44 -24.5 69.5
t-65.5 25.5q-51 0 -89 -42q-37 -41 -37 -102q0 -44 24.5 -70.5t67.5 -26.5z" />
    <glyph glyph-name="uni2077" unicode="&#x2077;" horiz-adv-x="428" 
d="M152 693h-65l24 169h376l-8 -55q-94 -108 -174 -248q-81 -139 -118 -259h-84q37 116 114 251q79 137 167 243h-218z" />
    <glyph glyph-name="uni2078" unicode="&#x2078;" horiz-adv-x="462" 
d="M67 424q0 50 27.5 91t74.5 63l1 6q-30 14 -47.5 43.5t-17.5 65.5q0 77 60 126q61 50 152 50q78 0 123.5 -35.5t45.5 -95.5q0 -49 -28 -91.5t-74 -62.5l-1 -6q65 -33 65 -109q0 -77 -60 -127q-61 -50 -153 -50q-77 0 -122.5 36t-45.5 96zM185 692q0 -37 26 -58t70 -21
q54 0 88 30.5t34 78.5q0 37 -26 57.5t-70 20.5q-53 0 -87.5 -30.5t-34.5 -77.5zM149 440q0 -36 26.5 -57.5t69.5 -21.5q53 0 88 30.5t35 78.5q0 37 -26 58t-70 21q-53 0 -88 -30.5t-35 -78.5z" />
    <glyph glyph-name="uni2079" unicode="&#x2079;" horiz-adv-x="477" 
d="M233 292q-71 0 -113 39t-40 104h79q-1 -35 23 -55.5t63 -20.5q130 0 148 211h-4q-50 -74 -142 -74q-66 0 -106 41t-40 108q0 98 61 160q61 64 156 64q163 0 163 -203q0 -174 -67 -274q-66 -100 -181 -100zM271 560q53 0 90 42q37 41 37 102q0 44 -25 70.5t-68 26.5
q-53 0 -89 -42q-35 -43 -35 -104q0 -44 24.5 -69.5t65.5 -25.5z" />
    <glyph glyph-name="uni2080" unicode="&#x2080;" horiz-adv-x="490" 
d="M196 -105q-78 0 -121 53.5t-43 154.5q0 159 68 263q69 103 176 103q76 0 119 -53.5t43 -152.5q0 -161 -69 -264q-68 -104 -173 -104zM204 -36q67 0 109 84q43 83 43 215q0 138 -90 138q-66 0 -110 -84q-43 -83 -43 -215q0 -138 91 -138z" />
    <glyph glyph-name="uni2081" unicode="&#x2081;" horiz-adv-x="355" 
d="M185 305h-142l8 60h23q54 0 92 27t45 70h72l-79 -562h-76z" />
    <glyph glyph-name="uni2082" unicode="&#x2082;" horiz-adv-x="450" 
d="M97 -35l97 4h170l-10 -69h-352l3 19q7 50 35 95q6 10 12.5 18.5t14.5 17.5t13 15t15.5 14.5t15 12.5t16.5 13t15.5 11.5t18 12.5t16.5 12l72 52q75 54 75 131q0 36 -22.5 56t-61.5 20q-49 0 -80.5 -28t-36.5 -78h-78q10 79 67 127q59 48 140 48q71 0 113 -37t42 -98
q0 -108 -97 -182q-18 -14 -77.5 -53.5t-92 -70t-43.5 -63.5z" />
    <glyph glyph-name="uni2083" unicode="&#x2083;" horiz-adv-x="463" 
d="M191 -108q-85 0 -128 48.5t-29 129.5h81q-10 -52 14 -80.5t72 -28.5q53 0 87.5 33t34.5 82q0 38 -27 59.5t-74 21.5h-42l9 65h39q53 0 87 30t34 77q0 33 -23.5 52t-62.5 19q-48 0 -79 -28.5t-37 -78.5h-79q7 77 65 127q58 49 141 49q70 0 114 -34.5t44 -91.5
q0 -50 -27.5 -88.5t-75.5 -58.5l-1 -5q77 -29 77 -112q0 -79 -62 -133q-61 -54 -152 -54z" />
    <glyph glyph-name="uni2084" unicode="&#x2084;" horiz-adv-x="479" 
d="M405 462l-53 -377h70l-9 -65h-70l-17 -120h-76l16 120h-273l9 65l284 377h119zM321 403l-238 -318h193z" />
    <glyph glyph-name="uni2085" unicode="&#x2085;" horiz-adv-x="473" 
d="M437 462l-10 -68h-258l-30 -161l3 -1q47 41 118 41t113.5 -43t42.5 -113q0 -95 -65 -160t-159 -65q-81 0 -128 50q-46 50 -32 130h79q-8 -49 17 -80t75 -31q55 0 93 41t38 103q0 46 -26.5 73.5t-71.5 27.5q-33 0 -64 -15.5t-45 -40.5h-73l56 312h327z" />
    <glyph glyph-name="uni2086" unicode="&#x2086;" horiz-adv-x="478" 
d="M197 -108q-163 0 -163 202q0 170 68 273q68 102 181 102q75 0 116.5 -38t38.5 -105h-80q0 38 -24 57.5t-62 19.5q-130 0 -149 -211h4q48 75 141 75q66 0 106.5 -41t40.5 -109q0 -96 -62 -161q-61 -64 -156 -64zM210 -39q54 0 88 42q36 42 36 104q0 44 -24.5 69.5
t-65.5 25.5q-52 0 -89 -42q-37 -41 -37 -102q0 -44 24.5 -70.5t67.5 -26.5z" />
    <glyph glyph-name="uni2087" unicode="&#x2087;" horiz-adv-x="428" 
d="M96 293h-65l24 169h376l-8 -55q-95 -112 -173 -247q-80 -138 -119 -260h-84q37 116 114 251q79 137 167 243h-218z" />
    <glyph glyph-name="uni2088" unicode="&#x2088;" horiz-adv-x="462" 
d="M11 24q0 50 27.5 91t74.5 63l1 6q-30 14 -47.5 43.5t-17.5 65.5q0 77 60 126q61 50 152 50q78 0 123.5 -35.5t45.5 -95.5q0 -49 -28 -91.5t-74 -62.5l-1 -6q65 -33 65 -109q0 -78 -60 -127q-61 -50 -153 -50q-77 0 -122.5 36t-45.5 96zM129 292q0 -37 26 -58t70 -21
q54 0 88 30.5t34 78.5q0 37 -26 57.5t-70 20.5q-53 0 -87.5 -30.5t-34.5 -77.5zM93 40q0 -36 26.5 -57.5t69.5 -21.5q53 0 88 30.5t35 78.5q0 37 -26 58t-70 21q-53 0 -88 -30.5t-35 -78.5z" />
    <glyph glyph-name="uni2089" unicode="&#x2089;" horiz-adv-x="477" 
d="M177 -108q-71 0 -113 39t-40 104h79q-1 -35 23 -55.5t63 -20.5q130 0 148 211h-4q-50 -74 -142 -74q-66 0 -106 41t-40 108q0 98 61 160q61 64 156 64q163 0 163 -203q0 -173 -67 -273q-66 -101 -181 -101zM215 160q53 0 90 42q37 41 37 102q0 44 -25 70.5t-68 26.5
q-53 0 -89 -42q-35 -43 -35 -104q0 -44 24.5 -69.5t65.5 -25.5z" />
    <glyph glyph-name="uni20A6" unicode="&#x20a6;" horiz-adv-x="705" 
d="M634 398h85l-10 -68h-85l-46 -330h-100l-139 330h-152l-47 -330h-88l46 330h-83l10 68h83l46 331h102l140 -331h150l47 331h87zM198 405l-1 -7h113l-85 202h-5zM509 129h5l23 201h-113z" />
    <glyph glyph-name="uni20A9" unicode="&#x20a9;" horiz-adv-x="791" 
d="M735 729h88l-106 -331h82l-10 -68h-94l-105 -330h-98l-24 330h-120l-115 -330h-98l-16 330h-98l10 68h84l-16 331h88l9 -331h105l118 331h89l26 -331h103zM375 407l-3 -9h92l-1 8l-12 213h-4zM205 115l60 181l12 34h-79l1 -33l2 -182h4zM555 114l51 181l10 35h-77l3 -35
l8 -181h5z" />
    <glyph glyph-name="uni20AA" unicode="&#x20aa;" horiz-adv-x="698" 
d="M427 520l18 133h-244l-91 -653h-79l102 729h310q46 0 66 -20.5t12 -70.5l-17 -118l-50 -358h-78zM525 77l91 652h79l-102 -729h-309q-46 0 -66.5 21t-12.5 70l17 119l49 358h79l-50 -358l-19 -133h244z" />
    <glyph glyph-name="Euro" unicode="&#x20ac;" horiz-adv-x="745" 
d="M375 72q75 0 131 39t82 109h96q-35 -106 -123 -167q-88 -62 -201 -62q-118 0 -185 69t-73 194h-75l9 69h66q5 53 15 101h-66l9 68h78q43 115 130.5 180.5t200.5 65.5t182 -63q68 -63 73 -165h-95q-7 71 -52.5 109.5t-119.5 38.5q-75 0 -133 -43.5t-91 -122.5h275l-18 -68
h-279q-12 -47 -15 -101h273l-18 -69h-255q7 -90 53 -136t126 -46z" />
    <glyph glyph-name="uni20B2" unicode="&#x20b2;" horiz-adv-x="687" 
d="M355 308l11 76h256l-6 -44q-17 -128 -93 -203t-193 -84l-12 -89h-67l12 90q-100 10 -153.5 73t-53.5 170q0 160 82 266q82 105 214 119l12 89h67l-12 -89q92 -9 146 -64t54 -141h-90q-4 62 -45 96t-110 34q-87 0 -146 -54t-72 -143l-12 -85q-13 -93 32 -146.5t135 -53.5
q86 0 142.5 49.5t69.5 133.5h-168z" />
    <glyph glyph-name="uni20B8" unicode="&#x20b8;" horiz-adv-x="554" 
d="M61 653l10 76h544l-11 -76h-543zM265 474h-229l10 78h544l-11 -78h-227l-67 -474h-87z" />
    <glyph glyph-name="uni20B9" unicode="&#x20b9;" horiz-adv-x="738" 
d="M182 729h516l-10 -69h-132q39 -47 39 -121v-10h75l-10 -68h-75q-37 -135 -175 -175l-1 -6q17 -5 29 -18q12 -12 17 -24l17 -42l5 -12l70 -184h-99l-67 186q-17 48 -39 64.5t-67 16.5h-158l11 75h193q65 0 109 31t61 88h-347l10 68h346q-1 58 -36.5 88.5t-98.5 30.5h-194
l2 12h-1z" />
    <glyph glyph-name="uni20BA" unicode="&#x20ba;" horiz-adv-x="594" 
d="M476 326h87q-44 -154 -156 -239q-113 -85 -258 -87h-73l41 289l-105 -39l10 75l105 40l13 92l-105 -40l11 74l106 42l27 196h87l-23 -163l197 76l-11 -75l-197 -77l-12 -92l197 77l-11 -75l-197 -76l-34 -241q103 0 184 66q83 66 117 177z" />
    <glyph glyph-name="uni20BC" unicode="&#x20bc;" horiz-adv-x="659" 
d="M98 0h-86l50 356q17 121 89.5 187.5t186.5 73.5l16 112h84l-16 -112q116 -7 167 -74.5t35 -186.5l-50 -356h-84l50 356q12 83 -22 128.5t-107 50.5l-75 -535h-84l75 535q-77 -5 -123 -52t-57 -127z" />
    <glyph glyph-name="uni20BD" unicode="&#x20bd;" horiz-adv-x="663" 
d="M406 266h-206l-11 -78h256l-10 -69h-255l-17 -119h-91l17 119h-76l10 69h76l11 82h-75l10 76h76l54 383h297q98 0 148.5 -47.5t50.5 -133.5q0 -130 -72 -206t-193 -76zM467 645h-214l-41 -299h202q65 0 105 31.5t47 85.5l10 73q8 52 -21.5 80.5t-87.5 28.5z" />
    <glyph glyph-name="uni20BF" unicode="&#x20bf;" horiz-adv-x="721" 
d="M521 383l-1 -8q89 -23 89 -121q0 -92 -61 -147q-62 -56 -161 -56l-12 -87h-67l12 87h-82l-12 -87h-66l12 87h-80l90 635h79l12 85h66l-12 -85h82l12 85h67l-12 -85h6q74 0 113.5 -34.5t39.5 -95.5q0 -62 -30.5 -108t-83.5 -65zM462 615h-204l-29 -204h206q44 0 71.5 22
t32.5 59l5 43q5 37 -16.5 58.5t-65.5 21.5zM513 208l6 44q6 41 -18 64t-70 23h-212l-30 -215h198q52 0 86 22.5t40 61.5z" />
    <glyph glyph-name="uni2105" unicode="&#x2105;" horiz-adv-x="1003" 
d="M357 499h74q-7 -62 -53.5 -100t-114.5 -38q-78 0 -126.5 51t-48.5 137q0 87 49 138.5t129 51.5q65 0 110 -36t53 -93h-74q-7 30 -32.5 48t-58.5 18q-48 0 -75 -33.5t-27 -93.5q0 -59 27 -92t74 -33q37 0 63 20.5t31 54.5zM322 0h-77l462 729h76zM590 181q0 85 49 137
q50 53 130 53t128 -53q49 -52 49 -137q0 -84 -49 -136q-48 -52 -128 -52q-81 0 -130 52t-49 136zM664 182q0 -57 28.5 -91.5t76.5 -34.5q47 0 75.5 34.5t28.5 92.5q0 57 -28 91t-76 34t-76.5 -34t-28.5 -92z" />
    <glyph glyph-name="uni2116" unicode="&#x2116;" horiz-adv-x="1377" 
d="M823 465q0 111 80 191q79 81 190 81q94 0 149 -58t55 -143q0 -109 -80 -189q-79 -79 -190 -79q-92 0 -148 56t-56 141zM155 0h-90l102 729h112l302 -615h4l25 221l55 394h90l-102 -729h-113l-300 615h-4l-24 -212zM929 541l-11 -77q-7 -51 28 -86q35 -34 91 -34
q57 0 103 33q45 32 53 87l11 77q7 52 -28 86t-93 34q-57 0 -102 -33q-45 -34 -52 -87zM817 0l10 77h346l-10 -77h-346z" />
    <glyph glyph-name="uni2117" unicode="&#x2117;" horiz-adv-x="936" 
d="M61 342q0 183 122 302q124 119 299 119q177 0 298 -118q123 -117 123 -300q0 -185 -123 -303q-121 -118 -298 -118q-176 0 -299 117q-122 119 -122 301zM869 345q0 169 -113 279t-274 110q-162 0 -275 -111q-113 -110 -113 -281q0 -169 113 -279t275 -110q161 0 274 110
q113 111 113 282zM409 135h-72v415h206q68 0 108.5 -39t40.5 -102t-40.5 -102.5t-108.5 -39.5h-134v-132zM407 483v-152h135q36 0 57.5 21.5t21.5 56.5q0 33 -21.5 53.5t-57.5 20.5h-135z" />
    <glyph glyph-name="trademark" unicode="&#x2122;" horiz-adv-x="688" 
d="M174 684h-90l6 46h235l-7 -46h-94l-37 -264h-50zM497 525l119 205h64l-44 -310h-49l22 151l16 89h-3l-140 -234l-74 234h-3l-9 -89l-21 -151h-48l44 310h63l61 -205h2z" />
    <glyph glyph-name="estimated" unicode="&#x212e;" horiz-adv-x="811" 
d="M723 230h46q-27 -108 -120 -174q-94 -65 -222 -65q-162 0 -260 102q-97 101 -97 266q0 166 100 267q100 103 266 103q151 0 242 -88q92 -87 99 -246q1 -14 1 -57h-600v-185q35 -59 102 -91.5t149 -32.5q108 0 187 55q81 56 107 146zM178 561v-187h493v205
q-90 111 -249 108t-244 -126z" />
    <glyph glyph-name="oneeighth" unicode="&#x215b;" horiz-adv-x="911" 
d="M202 -46h-72l521 814h73zM200 588h-124l8 59h45q43 0 67 21.5t24 56.5v4h73l-67 -473h-73zM532 107q0 41 23.5 77t62.5 53l1 5q-56 29 -56 93q0 66 52 108q52 43 131 43q66 0 105 -31t39 -82q0 -41 -23.5 -77.5t-61.5 -53.5l-1 -5q54 -29 54 -92q0 -65 -51 -109
q-50 -43 -130 -43q-67 0 -106 31t-39 83zM640 334q0 -30 20.5 -46.5t54.5 -16.5q42 0 69 25t27 63q0 29 -20.5 45.5t-53.5 16.5q-43 0 -70 -24.5t-27 -62.5zM610 121q0 -30 20 -46t56 -16q41 0 68 24.5t27 62.5q0 29 -20 46t-54 17q-42 0 -69.5 -25t-27.5 -63z" />
    <glyph glyph-name="threeeighths" unicode="&#x215c;" horiz-adv-x="983" 
d="M285 -46h-72l521 814h73zM198 248q-71 0 -107.5 41.5t-25.5 107.5h75q-7 -39 12 -61.5t55 -22.5q38 0 65 25.5t27 62.5q0 29 -21.5 46t-55.5 17h-36l10 68h30q41 0 67 23.5t26 60.5q0 26 -17.5 40t-45.5 14q-36 0 -60 -23t-28 -61h-75q6 66 53 107.5t119 41.5
q60 0 96.5 -29t36.5 -79q0 -86 -84 -122v-5q62 -26 62 -92q0 -68 -52 -114q-50 -46 -126 -46zM615 107q0 41 23.5 77t62.5 53l1 5q-56 29 -56 93q0 66 52 108q52 43 131 43q66 0 105 -31t39 -82q0 -41 -23.5 -77.5t-61.5 -53.5l-1 -5q54 -29 54 -92q0 -65 -51 -109
q-50 -43 -130 -43q-67 0 -106 31t-39 83zM723 334q0 -30 20.5 -46.5t54.5 -16.5q42 0 69 25t27 63q0 29 -20.5 45.5t-53.5 16.5q-43 0 -70 -24.5t-27 -62.5zM693 121q0 -30 20 -46t56 -16q41 0 68 24.5t27 62.5q0 29 -20 46t-54 17q-42 0 -69.5 -25t-27.5 -63z" />
    <glyph glyph-name="fiveeighths" unicode="&#x215d;" horiz-adv-x="996" 
d="M297 -46h-72l521 814h73zM68 400h76q-6 -36 14 -61t56 -25q43 0 71.5 32.5t28.5 80.5q0 37 -19.5 58.5t-54.5 21.5q-26 0 -49 -13t-34 -33h-71l38 268h286l-9 -67h-213l-10 -73l-9 -48l1 -2q32 31 93 31q59 0 94 -36.5t35 -94.5q0 -81 -54 -136t-134 -55q-69 0 -107.5 42
t-28.5 110zM627 107q0 41 23.5 77t62.5 53l1 5q-56 29 -56 93q0 66 52 108q52 43 131 43q66 0 105 -31t39 -82q0 -41 -23.5 -77.5t-61.5 -53.5l-1 -5q54 -29 54 -92q0 -65 -51 -109q-50 -43 -130 -43q-67 0 -106 31t-39 83zM735 334q0 -30 20.5 -46.5t54.5 -16.5q42 0 69 25
t27 63q0 29 -20.5 45.5t-53.5 16.5q-43 0 -70 -24.5t-27 -62.5zM705 121q0 -30 20 -46t56 -16q41 0 68 24.5t27 62.5q0 29 -20 46t-54 17q-42 0 -69.5 -25t-27.5 -63z" />
    <glyph glyph-name="seveneighths" unicode="&#x215e;" horiz-adv-x="897" 
d="M117 -46l521 814h73l-522 -814h-72zM151 256h-74q75 236 231 406h-164l-9 -63h-56l18 130h309l-7 -54q-94 -99 -152.5 -199t-95.5 -220zM791 242l-1 -5q54 -29 54 -92q0 -65 -51 -109q-50 -43 -130 -43q-67 0 -106 31t-39 83q0 41 23.5 77t62.5 53l1 5q-56 29 -56 93
q0 66 52 108q52 43 131 43q66 0 105 -31t39 -82q0 -41 -23.5 -77.5t-61.5 -53.5zM701 271q42 0 69 25t27 63q0 29 -20.5 45.5t-53.5 16.5q-43 0 -70 -24.5t-27 -62.5q0 -30 20.5 -46.5t54.5 -16.5zM672 59q41 0 68 24.5t27 62.5q0 29 -20 46t-54 17q-42 0 -69.5 -25
t-27.5 -63q0 -30 20 -46t56 -16z" />
    <glyph glyph-name="arrowleft" unicode="&#x2190;" horiz-adv-x="849" 
d="M753 291v-59h-617l169 -232h-71l-196 262l196 261h71l-169 -232h617z" />
    <glyph glyph-name="arrowup" unicode="&#x2191;" horiz-adv-x="671" 
d="M584 373v-74l-204 179v-418h204v-58h-465v58h203v418l-203 -179v74l232 203z" />
    <glyph glyph-name="arrowright" unicode="&#x2192;" horiz-adv-x="881" 
d="M718 232h-617v59h617l-169 232h71l196 -261l-196 -262h-71z" />
    <glyph glyph-name="arrowdown" unicode="&#x2193;" horiz-adv-x="671" 
d="M605 525v-58h-204v-418l204 179v-74l-233 -203l-232 203v74l203 -179v418h-203v58h465z" />
    <glyph glyph-name="arrowboth" unicode="&#x2194;" horiz-adv-x="1071" 
d="M297 113l-199 238l199 239h69l-171 -210h706l-169 210h68l200 -239l-200 -238h-68l169 209h-706l171 -209h-69z" />
    <glyph glyph-name="arrowupdn" unicode="&#x2195;" horiz-adv-x="765" 
d="M418 -141l-287 251v77l259 -227v699l-259 -226v76l287 251l285 -251v-76l-258 226v-699l258 227v-77z" />
    <glyph glyph-name="uni2196" unicode="&#x2196;" horiz-adv-x="684" 
d="M662 42l-41 -42l-413 429v-352h-58v451h437v-61h-340z" />
    <glyph glyph-name="uni2197" unicode="&#x2197;" horiz-adv-x="707" 
d="M522 426l-413 -426l-40 42l414 425h-341v58h437v-450h-57v351z" />
    <glyph glyph-name="uni2198" unicode="&#x2198;" horiz-adv-x="685" 
d="M603 0l-438 -2v63h339l-411 424l40 40l413 -425l1 353h57z" />
    <glyph glyph-name="uni2199" unicode="&#x2199;" horiz-adv-x="683" 
d="M578 0h-439v453h58v-353l411 425l41 -41l-411 -423h340v-61z" />
    <glyph glyph-name="uni21A9" unicode="&#x21a9;" horiz-adv-x="959" 
d="M862 498q0 -102 -63 -160.5t-180 -58.5h-360v-124l-169 154l169 155v-124h360q85 0 134 41t49 117q0 71 -47 114t-126 43h-13v59h13q104 0 168 -61q65 -60 65 -155z" />
    <glyph glyph-name="uni21AA" unicode="&#x21aa;" horiz-adv-x="959" 
d="M139 498q0 95 65 155q65 61 170 61h13v-59h-13q-80 0 -126 -42.5t-46 -114.5q0 -77 48.5 -117.5t133.5 -40.5h359v124l169 -155l-169 -154v124h-359q-118 0 -181.5 58.5t-63.5 160.5z" />
    <glyph glyph-name="uni21B2" unicode="&#x21b2;" horiz-adv-x="804" 
d="M647 340v397h58v-458h-422v-124l-169 154l169 155v-124h364z" />
    <glyph glyph-name="uni21B3" unicode="&#x21b3;" horiz-adv-x="804" 
d="M594 464l171 -155l-171 -154v124h-420v458h57v-397h363v124z" />
    <glyph glyph-name="uni21BA" unicode="&#x21ba;" horiz-adv-x="823" 
d="M92 315q0 93 45.5 173.5t125.5 129.5l32 -46q-146 -90 -146 -257q0 -115 79 -193q80 -78 196 -78t193 77t77 188q0 85 -39 142q-38 57 -184 185l-3 -2l5 -70v-149h-55v314h305v-58h-146l-66 5l-1 -3q150 -126 198 -196q46 -67 46 -168q0 -132 -95 -227q-94 -94 -235 -94
q-142 0 -237 94q-95 95 -95 233z" />
    <glyph glyph-name="uni21BB" unicode="&#x21bb;" horiz-adv-x="823" 
d="M447 -12q-140 0 -234 94t-94 227q0 70 21 121q22 53 70 104q57 61 152 139l-1 3l-68 -5h-147v58h308v-314h-57v149l5 70l-3 2q-143 -126 -184 -185q-38 -58 -38 -142q0 -111 77 -188t193 -77q117 0 196 77q79 76 79 194q0 82 -38.5 148.5t-106.5 108.5l32 46
q79 -46 126 -130q47 -83 47 -173q0 -139 -96 -233q-95 -94 -239 -94z" />
    <glyph glyph-name="emptyset" unicode="&#x2205;" horiz-adv-x="777" 
d="M454 738q141 0 218 -76.5t77 -215.5q0 -205 -111 -331q-110 -125 -289 -125q-142 0 -218.5 76t-76.5 216q0 205 110 330q111 126 290 126zM164 416l-15 -102q-10 -64 7 -118l446 407q-59 53 -160 53q-115 0 -188.5 -64.5t-89.5 -175.5zM639 314l15 102q10 73 -11 126
l-450 -409q58 -61 167 -61q114 0 188.5 65t90.5 177z" />
    <glyph glyph-name="product" unicode="&#x220f;" horiz-adv-x="731" 
d="M166 729h531l-10 -74h-105l-92 -655h-84l91 655h-150l-91 -655h-85l91 655h-106z" />
    <glyph glyph-name="summation" unicode="&#x2211;" horiz-adv-x="582" 
d="M476 -162h-483l9 65l299 376l2 7l-194 377l9 66h483l-10 -78l-243 -1l-141 6v-6l190 -368l-295 -364v-7l143 7h242z" />
    <glyph glyph-name="minus" unicode="&#x2212;" horiz-adv-x="637" 
d="M87 254l12 85h463l-12 -85h-463z" />
    <glyph glyph-name="radical" unicode="&#x221a;" horiz-adv-x="715" 
d="M403 262l237 467h91l-408 -799h-119l-90 393h-67l10 68h129l30 -125l54 -263h7z" />
    <glyph glyph-name="infinity" unicode="&#x221e;" horiz-adv-x="896" 
d="M239 69q-84 0 -136 58q-51 59 -51 145q0 88 51 146q53 60 136 60q49 0 90 -25q43 -24 67 -52q20 -24 55 -72q25 35 42 54q14 17 44 46q53 49 128 49q83 0 134 -60t51 -146q0 -84 -51 -144q-51 -59 -134 -59q-65 0 -113 35.5t-101 112.5q-51 -75 -100 -111.5t-112 -36.5z
M240 139q42 0 79.5 29.5t90.5 103.5q-53 76 -90 104q-36 30 -80 30q-51 0 -83.5 -37t-32.5 -97q0 -59 32.5 -96t83.5 -37zM663 139q51 0 83.5 37t32.5 96q0 60 -32.5 97t-83.5 37q-43 0 -81 -30q-35 -26 -89 -104q55 -76 90 -104q37 -29 80 -29z" />
    <glyph glyph-name="integral" unicode="&#x222b;" horiz-adv-x="563" 
d="M383 753h143l-10 -74h-134l-19 -132l-67 -476l-18 -130q-10 -76 -89 -76h-143l10 73h134l19 133l67 476l17 128q11 78 90 78z" />
    <glyph glyph-name="approxequal" unicode="&#x2248;" horiz-adv-x="530" 
d="M158 349h-49q5 63 33.5 94t68.5 31q30 0 76 -25q47 -24 70 -24q48 0 54 60h49q-3 -64 -34.5 -94.5t-75.5 -30.5q-35 0 -84 23q-47 24 -64 24q-43 0 -44 -58zM131 152h-50q5 64 33.5 94.5t68.5 30.5q30 0 76 -24q47 -24 71 -24q47 0 53 60h49q-4 -65 -34.5 -96.5
t-74.5 -31.5q-35 0 -84 25q-47 25 -65 25q-19 0 -31 -17t-12 -42z" />
    <glyph glyph-name="notequal" unicode="&#x2260;" horiz-adv-x="602" 
d="M540 438l-11 -79h-141l-83 -127h206l-11 -77h-246l-78 -118h-82l78 118h-98l10 77h139l84 127h-204l10 79h246l82 124h81l-82 -124h100z" />
    <glyph glyph-name="lessequal" unicode="&#x2264;" horiz-adv-x="563" 
d="M471 235l-13 -100l-366 191l10 75l420 190l-14 -98l-190 -78l-139 -50l-1 -6l122 -47zM448 75l-10 -75h-392l10 75h392z" />
    <glyph glyph-name="greaterequal" unicode="&#x2265;" horiz-adv-x="563" 
d="M490 326l-419 -191l14 100l192 77l136 47l1 6l-126 50l-167 78l14 98l365 -190zM444 0h-392l10 75h392z" />
    <glyph glyph-name="filledbox" unicode="&#x25a0;" horiz-adv-x="912" 
d="M178 1v728h688v-728h-688z" />
    <glyph glyph-name="uni25A1" unicode="&#x25a1;" horiz-adv-x="905" 
d="M175 0v729h688v-729h-688zM806 673h-575v-617h575v617z" />
    <glyph glyph-name="triagup" unicode="&#x25b2;" horiz-adv-x="1013" 
d="M39 0l430 737l432 -737h-862z" />
    <glyph glyph-name="uni25B3" unicode="&#x25b3;" horiz-adv-x="1013" 
d="M900 0h-859l428 738zM469 627l-331 -569h663z" />
    <glyph glyph-name="lozenge" unicode="&#x25ca;" horiz-adv-x="2151" 
d="M1049 -10q-135 0 -214 100t-79 268q0 96 28 170.5t76.5 119.5t109.5 68t132 23q120 0 202 -62q82 -61 100 -164h-156q-36 86 -147 86q-90 0 -137 -62t-47 -175q0 -115 46.5 -175t129.5 -60q67 0 109 33t52 92h-162v143h324v-395h-111l-16 119h-35q-17 -62 -71.5 -95.5
t-133.5 -33.5zM1551 576q-34 0 -56.5 23t-22.5 59q0 35 22.5 58t56.5 23q35 0 55.5 -22.5t20.5 -58.5q0 -37 -20.5 -59.5t-55.5 -22.5zM1749 576q-34 0 -55 23t-21 59q0 35 21.5 58t54.5 23q36 0 58.5 -23t22.5 -58q0 -36 -22.5 -59t-58.5 -23zM375 0h-271v729h271
q161 0 248.5 -92.5t87.5 -270.5t-88.5 -272t-247.5 -94zM1951 572h-36v126h-38v31h118v-31h-44v-126zM2049 572h-34v157h63l17 -127l23 127h61v-157h-40v135l-17 -135h-52l-21 135v-135zM210 109l26 -26q28 28 53 40t60 12h26q32 0 69 15q31 12 52 33q24 24 41 72t17 108
q0 59 -16 106t-39 70q-21 23 -49 36q-37 19 -75 19h-26q-29 0 -52 10q-26 12 -32 17l-29 27l-26 -30q0 -2 7 -9t7 -8q5 -2 20 -27q15 -22 15 -71v-276q-3 -51 -16 -74l-10 -15q-9 -15 -23 -29zM1647 0h-149v491h141l7 -58h27q12 36 49 56t90 20v-147q-165 16 -165 -148v-214
z" />
    <glyph glyph-name="circle" unicode="&#x25cb;" horiz-adv-x="839" 
d="M70 365q0 163 106 268t262 105q154 0 261 -105t107 -268q0 -165 -107 -270t-261 -105q-156 0 -262 105t-106 270zM438 36q131 0 224 93t93 236t-93 234q-93 93 -224 93q-130 0 -223 -93q-93 -91 -93 -234t93 -236t223 -93z" />
    <glyph glyph-name="uni25CF" unicode="&#x25cf;" horiz-adv-x="901" 
d="M471 -10q-157 0 -262 107q-105 108 -105 269q0 158 105 265t262 107q155 0 259 -107t104 -265q0 -160 -104 -269q-104 -107 -259 -107z" />
    <glyph glyph-name="uni262E" unicode="&#x262e;" horiz-adv-x="888" 
d="M463 737q159 0 263 -105q105 -104 105 -270q0 -167 -104 -273q-104 -104 -264 -104t-264 104q-104 106 -104 273q0 166 104 270q103 105 264 105zM783 362q0 141 -85 232q-85 93 -213 100v-311l269 -167q29 67 29 146zM440 383v311q-127 -7 -214 -100q-84 -92 -84 -232
q0 -79 28 -145zM440 327l-248 -152q39 -65 104 -103t144 -43v298zM485 327v-298q79 4 144 42.5t104 103.5z" />
    <glyph glyph-name="uni2639" unicode="&#x2639;" horiz-adv-x="892" 
d="M94 365q0 160 107 267q107 106 263 106t263 -106q108 -106 108 -267q0 -163 -108 -269q-106 -106 -263 -106q-156 0 -263 106q-107 107 -107 269zM141 365q0 -131 84 -226q35 53 99.5 84.5t139.5 31.5q76 0 141.5 -32t99.5 -84q84 99 84 226q0 141 -95 236
q-94 94 -229 94t-229 -94q-95 -95 -95 -236zM335 437q0 51 14 78.5t38 27.5q50 0 50 -106t-50 -106q-24 0 -38 28.5t-14 77.5zM495 437q0 51 13.5 78.5t37.5 27.5q51 0 51 -106t-51 -106q-24 0 -37.5 29t-13.5 77zM259 108q92 -75 206 -75t206 74q-27 47 -83.5 75t-122.5 28
t-122.5 -28t-83.5 -74z" />
    <glyph glyph-name="smileface" unicode="&#x263a;" horiz-adv-x="892" 
d="M835 365q0 -163 -108 -269q-106 -106 -263 -106q-156 0 -263 106q-107 107 -107 269q0 160 107 267q107 106 263 106t263 -106q108 -106 108 -267zM465 33q135 0 230 96q94 95 94 236t-95 236q-94 94 -229 94t-229 -94q-95 -95 -95 -236q0 -142 95 -237t229 -95zM387 331
q-24 0 -38 28.5t-14 77.5q0 51 14 78.5t38 27.5q50 0 50 -106t-50 -106zM546 331q-24 0 -37.5 29t-13.5 77q0 51 13.5 78.5t37.5 27.5q51 0 51 -106t-51 -106zM625 311v17h109v-17h-30q-14 -85 -81 -138q-67 -52 -159 -52q-94 0 -159 52q-67 53 -80 138h-26v17h109v-17h-35
q12 -66 65.5 -106t126.5 -40q75 0 127.5 40t64.5 106h-32z" />
    <glyph glyph-name="uni2708" unicode="&#x2708;" horiz-adv-x="942" 
d="M193 207h-50l35 159l-35 159h50l69 -108l210 12l-99 276h90l144 -238q16 -25 48 -26l59 4q60 4 109 -21t49 -58q0 -35 -49 -60q-49 -24 -109 -20l-59 4q-20 0 -30 -5t-18 -19l-144 -240h-90l99 276l-210 14z" />
    <glyph glyph-name="uni2713" unicode="&#x2713;" horiz-adv-x="945" 
d="M375 184l374 373l51 -57l-427 -424l-212 242l54 50z" />
    <glyph glyph-name="uni2714" unicode="&#x2714;" horiz-adv-x="1288" 
d="M1123 714l103 -166q-483 -263 -808 -611q-146 201 -345 362l113 126q147 -117 247 -274q128 161 296.5 296.5t393.5 266.5z" />
    <glyph glyph-name="uni2776" unicode="&#x2776;" horiz-adv-x="891" 
d="M467 -9q-163 0 -276 111q-111 111 -111 274q0 162 111 273q113 111 276 111q162 0 273 -112q111 -111 111 -272q0 -163 -111 -274t-273 -111zM458 442v-285h68v416h-65v-4q0 -75 -74 -75h-39v-52h110z" />
    <glyph glyph-name="uni2777" unicode="&#x2777;" horiz-adv-x="892" 
d="M468 -9q-165 0 -276 111q-111 112 -111 275t111 272q111 111 276 111q163 0 274 -111q111 -109 111 -272t-111 -275q-111 -111 -274 -111zM340 171v-14h260v61h-118l-65 -3q15 43 103 103q34 24 57.5 61t23.5 77q0 54 -35.5 88t-95.5 34q-61 0 -100 -36t-39 -93l67 -5
q-1 34 18.5 55t50.5 21q44 0 60 -39.5t-15 -79.5q-12 -15 -28.5 -29.5t-40 -33t-35.5 -28.5q-68 -57 -68 -139z" />
    <glyph glyph-name="uni2778" unicode="&#x2778;" horiz-adv-x="892" 
d="M467 -9q-163 0 -276 111q-111 111 -111 274q0 162 111 273q113 111 276 111t274 -111t111 -273q0 -163 -111 -274t-274 -111zM466 151q62 0 100.5 34t38.5 88q0 75 -69 100v3q61 25 61 89q0 51 -37 82.5t-95 31.5q-62 0 -99.5 -36.5t-34.5 -94.5h68q0 33 17 52.5t49 19.5
q28 0 45 -16t17 -43t-19.5 -44t-52.5 -17h-26v-59h32q33 0 53 -17.5t20 -47.5q0 -29 -19 -47t-50 -18t-49 19.5t-17 52.5h-69q-1 -60 37 -96t99 -36z" />
    <glyph glyph-name="uni2779" unicode="&#x2779;" horiz-adv-x="893" 
d="M468 -9q-164 0 -276 111q-111 112 -111 275t111 272q112 111 276 111q163 0 274 -111t111 -272q0 -163 -111 -275q-111 -111 -274 -111zM491 248v-91h67v91h47v59h-47v266h-106l-149 -269v-56h188zM491 307h-114l114 204v-204z" />
    <glyph glyph-name="uni277A" unicode="&#x277a;" horiz-adv-x="893" 
d="M468 -9q-164 0 -276 111t-112 274q0 162 112 273t276 111q163 0 274 -111q112 -111 112 -273q0 -163 -112 -274q-111 -111 -274 -111zM474 151q64 0 104 40t40 104q0 62 -37 101t-95 39q-52 0 -76 -28l-3 2l2 42v63h186v59h-252v-235h64q7 17 26 27.5t41 10.5
q33 0 53.5 -23.5t20.5 -60.5q0 -36 -20.5 -58.5t-52.5 -22.5q-33 0 -52.5 21t-19.5 53h-69q-1 -60 38 -97t102 -37z" />
    <glyph glyph-name="uni277B" unicode="&#x277b;" horiz-adv-x="897" 
d="M467 -9q-163 0 -276 111q-111 111 -111 274q0 162 111 273q113 111 276 111q162 0 273 -112q111 -111 111 -272q0 -163 -111 -274t-273 -111zM473 151q63 0 103 40t40 103q0 61 -35 99.5t-92 38.5q-69 0 -94 -52h-3q0 140 84 140q25 0 43 -13.5t22 -37.5h68
q-5 49 -41 79.5t-90 30.5q-76 0 -115.5 -58.5t-39.5 -160.5q0 -100 38.5 -154.5t111.5 -54.5zM475 211q-33 0 -53.5 23t-20.5 59q0 34 20 57.5t54 23.5q32 0 52 -22t20 -59q0 -36 -20 -59t-52 -23z" />
    <glyph glyph-name="uni277C" unicode="&#x277c;" horiz-adv-x="893" 
d="M468 -9q-164 0 -277 111q-111 112 -111 274t111 273q113 111 277 111q163 0 274 -111t111 -273q0 -163 -112 -274q-111 -111 -273 -111zM384 157h71q36 205 161 368v48h-273v-129h49v70h139q-116 -160 -147 -357z" />
    <glyph glyph-name="uni277D" unicode="&#x277d;" horiz-adv-x="892" 
d="M467 -9q-163 0 -276 111q-111 112 -111 274t111 273q113 111 276 111t274 -111t111 -273q0 -163 -111 -274t-274 -111zM466 151q64 0 104 31.5t40 84.5q0 31 -16.5 57.5t-43.5 39.5v4q60 28 60 96q0 51 -39.5 83t-104.5 32q-63 0 -102.5 -31.5t-39.5 -83.5q0 -69 60 -96
v-4q-27 -13 -43.5 -39.5t-16.5 -57.5q0 -52 38.5 -84t103.5 -32zM466 393q-32 0 -52.5 17.5t-20.5 45.5t20 46t53 18t53.5 -17.5t20.5 -46.5q0 -28 -20.5 -45.5t-53.5 -17.5zM466 211q-33 0 -53 17t-20 47q0 28 20 46t53 18t53.5 -17.5t20.5 -46.5q0 -28 -19.5 -46
t-54.5 -18z" />
    <glyph glyph-name="uni277E" unicode="&#x277e;" horiz-adv-x="893" 
d="M468 -9q-164 0 -276 111q-111 111 -111 274q0 162 111 273q112 111 276 111q163 0 274 -111t111 -273q0 -163 -112 -274q-111 -111 -273 -111zM466 151q76 0 115.5 58.5t39.5 160.5q0 99 -38 154t-111 55q-64 0 -104.5 -40t-40.5 -102t36 -101t92 -39q31 0 57 14.5
t38 38.5h3q0 -140 -84 -140q-25 0 -43.5 14t-22.5 37h-69q6 -50 41.5 -80t90.5 -30zM470 356q-33 0 -53 22t-20 59t20.5 59.5t52.5 22.5t53 -23.5t21 -57.5q0 -35 -20.5 -58.5t-53.5 -23.5z" />
    <glyph glyph-name="uni2780" unicode="&#x2780;" horiz-adv-x="891" 
d="M467 -9q-163 0 -276 111q-111 111 -111 274q0 162 111 273q113 111 276 111q162 0 273 -112q111 -111 111 -272q0 -163 -111 -274t-273 -111zM467 28q146 0 247 101t101 247q0 145 -101 246t-247 101q-148 0 -249 -101t-101 -246q0 -147 101 -248q100 -100 249 -100z
M458 157v285h-110v52h39q38 0 56 21t18 54v4h65v-416h-68z" />
    <glyph glyph-name="uni2781" unicode="&#x2781;" horiz-adv-x="891" 
d="M467 760q162 0 273 -112q111 -111 111 -272q0 -163 -111 -274t-273 -111q-163 0 -276 111q-111 111 -111 274q0 162 111 273q113 111 276 111zM467 28q146 0 247 101t101 247q0 145 -101 246t-247 101q-148 0 -249 -101t-101 -246q0 -147 101 -248q100 -100 249 -100z
M601 456q0 -35 -16 -65t-41 -51.5t-50.5 -40.5t-47.5 -41t-30 -43l66 3h118v-61h-260v14q0 33 10.5 61t33 52.5t37 36.5t43.5 34q68 51 68 100q0 29 -18 47t-48 18q-31 0 -50 -21t-18 -55l-67 5q0 57 39 93t100 36q60 0 95.5 -34t35.5 -88z" />
    <glyph glyph-name="uni2782" unicode="&#x2782;" horiz-adv-x="891" 
d="M467 -9q-163 0 -276 111q-111 111 -111 274q0 162 111 273q113 111 276 111q162 0 273 -112q111 -111 111 -272q0 -163 -111 -274t-273 -111zM467 28q146 0 247 101t101 247q0 145 -101 246t-247 101q-148 0 -249 -101t-101 -246q0 -147 101 -248q100 -100 249 -100z
M466 151q-61 0 -99 36t-37 96h69q-1 -33 17 -52.5t49 -19.5t50 18t19 47q0 30 -20 47.5t-53 17.5h-32v59h26q33 0 52.5 17t19.5 44t-17 43t-45 16q-32 0 -49 -19.5t-17 -52.5h-68q-3 58 34.5 94.5t99.5 36.5q58 0 95 -31.5t37 -82.5q0 -64 -61 -89v-3q69 -25 69 -100
q0 -54 -38.5 -88t-100.5 -34z" />
    <glyph glyph-name="uni2783" unicode="&#x2783;" horiz-adv-x="891" 
d="M467 -9q-163 0 -276 111q-111 111 -111 274q0 162 111 273q113 111 276 111q162 0 273 -112q111 -111 111 -272q0 -163 -111 -274t-273 -111zM467 28q146 0 247 101t101 247q0 145 -101 246t-247 101q-148 0 -249 -101t-101 -246q0 -147 101 -248q100 -100 249 -100z
M557 157h-66v91h-188v56l149 269h105v-266h48v-59h-48v-91zM491 511l-114 -204h114v204z" />
    <glyph glyph-name="uni2784" unicode="&#x2784;" horiz-adv-x="891" 
d="M467 -9q-163 0 -276 111q-111 111 -111 274q0 162 111 273q113 111 276 111q162 0 273 -112q111 -111 111 -272q0 -163 -111 -274t-273 -111zM467 28q146 0 247 101t101 247q0 145 -101 246t-247 101q-148 0 -249 -101t-101 -246q0 -147 101 -248q100 -100 249 -100z
M474 151q-63 0 -102 37t-38 97h69q0 -32 19.5 -53t52.5 -21q32 0 52.5 22.5t20.5 58.5q0 37 -20.5 60.5t-53.5 23.5q-22 0 -41 -10.5t-26 -27.5h-64v235h252v-59h-186v-63l-2 -42l3 -2q24 28 76 28q58 0 95 -39t37 -101q0 -64 -40 -104t-104 -40z" />
    <glyph glyph-name="uni2785" unicode="&#x2785;" horiz-adv-x="891" 
d="M467 -9q-163 0 -276 111q-111 111 -111 274q0 162 111 273q113 111 276 111q162 0 273 -112q111 -111 111 -272q0 -163 -111 -274t-273 -111zM467 28q146 0 247 101t101 247q0 145 -101 246t-247 101q-148 0 -249 -101t-101 -246q0 -147 101 -248q100 -100 249 -100z
M473 151q-73 0 -111.5 54.5t-38.5 154.5q0 102 39.5 160.5t115.5 58.5q54 0 90 -30.5t41 -79.5h-68q-4 24 -22 37.5t-43 13.5q-84 0 -84 -140h3q25 52 94 52q57 0 92 -38.5t35 -99.5q0 -63 -40 -103t-103 -40zM475 211q32 0 52 23t20 59q0 37 -20 59t-52 22q-34 0 -54 -23.5
t-20 -57.5q0 -36 20.5 -59t53.5 -23z" />
    <glyph glyph-name="uni2786" unicode="&#x2786;" horiz-adv-x="891" 
d="M80 376q0 162 111 273q113 111 276 111q162 0 273 -112q111 -111 111 -272q0 -163 -111 -274t-273 -111q-163 0 -276 111q-111 111 -111 274zM117 376q0 -147 101 -248q100 -100 249 -100q146 0 247 101t101 247q0 145 -101 246t-247 101q-148 0 -249 -101t-101 -246z
M392 444h-49v129h273v-48q-125 -163 -161 -368h-71q31 197 147 357h-139v-70z" />
    <glyph glyph-name="uni2787" unicode="&#x2787;" horiz-adv-x="891" 
d="M467 -9q-163 0 -276 111q-111 111 -111 274q0 162 111 273q113 111 276 111q162 0 273 -112q111 -111 111 -272q0 -163 -111 -274t-273 -111zM467 28q146 0 247 101t101 247q0 145 -101 246t-247 101q-148 0 -249 -101t-101 -246q0 -147 101 -248q100 -100 249 -100z
M466 151q-65 0 -103.5 32t-38.5 84q0 31 16.5 57.5t43.5 39.5v4q-60 27 -60 96q0 52 39.5 83.5t102.5 31.5q65 0 104.5 -32t39.5 -83q0 -68 -60 -96v-4q27 -13 43.5 -39.5t16.5 -57.5q0 -53 -40 -84.5t-104 -31.5zM466 393q33 0 53.5 17.5t20.5 45.5q0 29 -20.5 46.5
t-53.5 17.5t-53 -18t-20 -46t20.5 -45.5t52.5 -17.5zM466 211q35 0 54.5 18t19.5 46q0 29 -20.5 46.5t-53.5 17.5t-53 -18t-20 -46q0 -30 20 -47t53 -17z" />
    <glyph glyph-name="uni2788" unicode="&#x2788;" horiz-adv-x="891" 
d="M80 376q0 162 111 273q113 111 276 111q162 0 273 -112q111 -111 111 -272q0 -163 -111 -274t-273 -111q-163 0 -276 111q-111 111 -111 274zM117 376q0 -147 101 -248q100 -100 249 -100q146 0 247 101t101 247q0 145 -101 246t-247 101q-148 0 -249 -101t-101 -246z
M472 579q73 0 111 -55t38 -154q0 -102 -39.5 -160.5t-115.5 -58.5q-55 0 -90.5 30t-41.5 80h69q4 -23 22 -37t43 -14q85 0 85 140h-3q-12 -24 -38 -38.5t-57 -14.5q-56 0 -92 39t-36 101t40.5 102t104.5 40zM470 356q33 0 53.5 23.5t20.5 58.5q0 34 -21 57.5t-53 23.5
t-52.5 -22.5t-20.5 -59.5t20 -59t53 -22z" />
    <glyph glyph-name="uniECE0" unicode="&#xece0;" horiz-adv-x="1046" 
d="M203 323v-265l-78 -58v729h343l-65 -84h-200v-240h162q15 142 118 236q103 96 246 96q88 0 165.5 -41.5t129.5 -115.5l-68 -50q-38 56 -99 90q-62 35 -130 35q-113 0 -197 -84q-84 -82 -84 -206t84 -208q85 -83 197 -83q68 0 129.5 34t99.5 90l68 -50q-53 -75 -130 -116
t-165 -41q-141 0 -244 94t-120 238h-162zM599 365q0 -56 37 -96q38 -39 90 -39q67 0 107 62l67 -49q-29 -45 -74.5 -69.5t-97.5 -24.5q-88 0 -150 63q-62 65 -62 153q0 87 62 151q62 63 150 63q52 0 97.5 -24.5t74.5 -68.5l-67 -50q-39 61 -107 61q-52 0 -90 -39
q-37 -37 -37 -93z" />
    <glyph glyph-name="uniEFCC" unicode="&#xefcc;" horiz-adv-x="1202" 
d="M499 734q20 0 38 -2v-99q-18 3 -37 3q-121 0 -194 -76t-73 -199t73 -199t194 -76q14 0 37 3v-99q-24 -2 -38 -2q-162 0 -262 103t-100 270t100 270t262 103zM762 366q0 166 96 267q98 101 260 101q20 0 44 -2v-99q-18 3 -40 3q-103 0 -177 -56q-73 -56 -81 -168h222v-92
h-222q8 -114 81 -169q74 -56 177 -56q22 0 40 3v-99q-26 -2 -44 -2q-163 0 -260 100q-96 101 -96 269z" />
    <glyph glyph-name="uniF8FF" unicode="&#xf8ff;" horiz-adv-x="641" 
d="M443 632q-16 -21 -43 -36.5t-48 -19.5l-18 -3l-1 10q-6 57 31 104q22 29 51 47t49 19l17 1q-1 -2 1 -19q2 -16 -8.5 -47t-30.5 -56zM225 0q-44 0 -89 53q-45 56 -73 134q-28 80 -28 156q0 104 53 166q54 62 124 62q28 0 70 -17t56 -17q16 0 56 18q42 18 80 18
q51 0 87 -23t49 -45l5 -8l-5 -3q-4 -3 -11 -8.5t-15.5 -13.5t-17 -19.5t-15.5 -25.5t-11.5 -33t-4.5 -39q0 -58 29.5 -96t59.5 -53l10 -5q-5 -19 -28 -70q-14 -33 -33 -61q-20 -29 -48 -49t-55 -20q-19 0 -59 14q-37 15 -62 15t-66 -15t-58 -15z" />
    <glyph glyph-name="NULL" 
 />
    <glyph glyph-name="CR" horiz-adv-x="333" 
 />
    <glyph glyph-name="uni00A40301" horiz-adv-x="393" 
d="M495 975l29 -57l-198 -112l-22 43zM183 82l29 209l62 438h88l-61 -438l-30 -214q-11 -77 -89 -77h-203l12 82h192z" />
    <glyph glyph-name="G.ss01" horiz-adv-x="770" 
d="M55 283q0 199 111 327q113 128 288 128q128 0 208 -68q79 -67 79 -178h-96q-5 77 -59.5 120.5t-141.5 43.5q-114 0 -190 -66q-76 -65 -91 -176l-14 -101q-15 -113 43 -178.5t172 -65.5q112 0 185 61.5t90 167.5h-216l11 83h311l-7 -49q-24 -164 -128 -253t-259 -89
q-143 0 -219.5 77t-76.5 216z" />
    <glyph glyph-name="Gbreve.ss01" horiz-adv-x="770" 
d="M574 947h60q-9 -63 -54.5 -102.5t-109.5 -39.5q-65 0 -98.5 39t-24.5 103h59q-6 -40 14 -64.5t57 -24.5q38 0 64.5 24.5t32.5 64.5zM55 283q0 199 111 327q113 128 288 128q128 0 208 -68q79 -67 79 -178h-96q-5 77 -59.5 120.5t-141.5 43.5q-114 0 -190 -66
q-76 -65 -91 -176l-14 -101q-15 -113 43 -178.5t172 -65.5q112 0 185 61.5t90 167.5h-216l11 83h311l-7 -49q-24 -164 -128 -253t-259 -89q-143 0 -219.5 77t-76.5 216z" />
    <glyph glyph-name="uni0122.ss01" horiz-adv-x="770" 
d="M55 283q0 199 111 327q113 128 288 128q128 0 208 -68q79 -67 79 -178h-96q-5 77 -59.5 120.5t-141.5 43.5q-114 0 -190 -66q-76 -65 -91 -176l-14 -101q-15 -113 43 -178.5t172 -65.5q112 0 185 61.5t90 167.5h-216l11 83h311l-7 -49q-24 -164 -128 -253t-259 -89
q-143 0 -219.5 77t-76.5 216zM316 -223v27q19 0 30 12.5t11 34.5v4h-41v89h81v-80q0 -42 -21.5 -64.5t-59.5 -22.5z" />
    <glyph glyph-name="Gdotaccent.ss01" horiz-adv-x="770" 
d="M510 819h-77l16 113h77zM55 283q0 199 111 327q113 128 288 128q128 0 208 -68q79 -67 79 -178h-96q-5 77 -59.5 120.5t-141.5 43.5q-114 0 -190 -66q-76 -65 -91 -176l-14 -101q-15 -113 43 -178.5t172 -65.5q112 0 185 61.5t90 167.5h-216l11 83h311l-7 -49
q-24 -164 -128 -253t-259 -89q-143 0 -219.5 77t-76.5 216z" />
    <glyph glyph-name="R.ss02" horiz-adv-x="715" 
d="M155 0h-90l102 729h325q97 0 145.5 -45t48.5 -128q0 -95 -46.5 -161.5t-125.5 -88.5l-1 -8q20 -8 32 -29t24 -65l54 -204h-101l-51 206q-12 49 -33.5 64t-71.5 15h-171zM246 646l-40 -284h231q57 0 96.5 30.5t47.5 81.5l10 69q7 47 -21.5 75t-81.5 28h-242z" />
    <glyph glyph-name="Racute.ss02" horiz-adv-x="715" 
d="M647 918l-198 -112l-22 43l191 126zM155 0h-90l102 729h325q97 0 145.5 -45t48.5 -128q0 -95 -46.5 -161.5t-125.5 -88.5l-1 -8q20 -8 32 -29t24 -65l54 -204h-101l-51 206q-12 49 -33.5 64t-71.5 15h-171zM246 646l-40 -284h231q57 0 96.5 30.5t47.5 81.5l10 69
q7 47 -21.5 75t-81.5 28h-242z" />
    <glyph glyph-name="Rcaron.ss02" horiz-adv-x="715" 
d="M417 780l-100 125l50 40l87 -110l119 110l39 -40l-136 -125h-59zM155 0h-90l102 729h325q97 0 145.5 -45t48.5 -128q0 -95 -46.5 -161.5t-125.5 -88.5l-1 -8q20 -8 32 -29t24 -65l54 -204h-101l-51 206q-12 49 -33.5 64t-71.5 15h-171zM246 646l-40 -284h231
q57 0 96.5 30.5t47.5 81.5l10 69q7 47 -21.5 75t-81.5 28h-242z" />
    <glyph glyph-name="uni0156.ss02" horiz-adv-x="715" 
d="M155 0h-90l102 729h325q97 0 145.5 -45t48.5 -128q0 -95 -46.5 -161.5t-125.5 -88.5l-1 -8q20 -8 32 -29t24 -65l54 -204h-101l-51 206q-12 49 -33.5 64t-71.5 15h-171zM246 646l-40 -284h231q57 0 96.5 30.5t47.5 81.5l10 69q7 47 -21.5 75t-81.5 28h-242zM298 -223v27
q19 0 30 12.5t11 34.5v4h-41v89h81v-80q0 -42 -21.5 -64.5t-59.5 -22.5z" />
    <glyph glyph-name="O.ss03" horiz-adv-x="772" 
d="M55 282q0 205 110 330q109 126 290 126q141 0 217.5 -76.5t76.5 -215.5q0 -204 -110 -331q-110 -125 -289 -125q-142 0 -218.5 76t-76.5 216zM164 416l-15 -102q-17 -113 40.5 -177.5t170.5 -64.5q116 0 190 65q74 66 90 177l15 102q16 111 -41 175.5t-171 64.5
q-115 0 -189 -64.5t-90 -175.5zM438 316h-101l14 97h100z" />
    <glyph glyph-name="Oacute.ss03" horiz-adv-x="772" 
d="M591 918l-198 -112l-22 43l191 126zM55 282q0 205 110 330q109 126 290 126q141 0 217.5 -76.5t76.5 -215.5q0 -204 -110 -331q-110 -125 -289 -125q-142 0 -218.5 76t-76.5 216zM164 416l-15 -102q-17 -113 40.5 -177.5t170.5 -64.5q116 0 190 65q74 66 90 177l15 102
q16 111 -41 175.5t-171 64.5q-115 0 -189 -64.5t-90 -175.5zM438 316h-101l14 97h100z" />
    <glyph glyph-name="Ocircumflex.ss03" horiz-adv-x="772" 
d="M289 795l-37 41l136 124h58l100 -123l-49 -42l-89 110zM55 282q0 205 110 330q109 126 290 126q141 0 217.5 -76.5t76.5 -215.5q0 -204 -110 -331q-110 -125 -289 -125q-142 0 -218.5 76t-76.5 216zM164 416l-15 -102q-17 -113 40.5 -177.5t170.5 -64.5q116 0 190 65
q74 66 90 177l15 102q16 111 -41 175.5t-171 64.5q-115 0 -189 -64.5t-90 -175.5zM438 316h-101l14 97h100z" />
    <glyph glyph-name="Odieresis.ss03" horiz-adv-x="772" 
d="M339 819h-76l15 113h77zM530 819h-77l16 113h77zM55 282q0 205 110 330q109 126 290 126q141 0 217.5 -76.5t76.5 -215.5q0 -204 -110 -331q-110 -125 -289 -125q-142 0 -218.5 76t-76.5 216zM164 416l-15 -102q-17 -113 40.5 -177.5t170.5 -64.5q116 0 190 65
q74 66 90 177l15 102q16 111 -41 175.5t-171 64.5q-115 0 -189 -64.5t-90 -175.5zM438 316h-101l14 97h100z" />
    <glyph glyph-name="Ograve.ss03" horiz-adv-x="772" 
d="M430 849l-35 -43l-166 112l45 57zM55 282q0 205 110 330q109 126 290 126q141 0 217.5 -76.5t76.5 -215.5q0 -204 -110 -331q-110 -125 -289 -125q-142 0 -218.5 76t-76.5 216zM164 416l-15 -102q-17 -113 40.5 -177.5t170.5 -64.5q116 0 190 65q74 66 90 177l15 102
q16 111 -41 175.5t-171 64.5q-115 0 -189 -64.5t-90 -175.5zM438 316h-101l14 97h100z" />
    <glyph glyph-name="Ohungarumlaut.ss03" horiz-adv-x="772" 
d="M489 896l-189 -123l-26 41l183 136zM678 884l-197 -111l-22 42l189 126zM55 282q0 205 110 330q109 126 290 126q141 0 217.5 -76.5t76.5 -215.5q0 -204 -110 -331q-110 -125 -289 -125q-142 0 -218.5 76t-76.5 216zM164 416l-15 -102q-17 -113 40.5 -177.5t170.5 -64.5
q116 0 190 65q74 66 90 177l15 102q16 111 -41 175.5t-171 64.5q-115 0 -189 -64.5t-90 -175.5zM438 316h-101l14 97h100z" />
    <glyph glyph-name="Omacron.ss03" horiz-adv-x="772" 
d="M550 814h-310l9 63h309zM55 282q0 205 110 330q109 126 290 126q141 0 217.5 -76.5t76.5 -215.5q0 -204 -110 -331q-110 -125 -289 -125q-142 0 -218.5 76t-76.5 216zM164 416l-15 -102q-17 -113 40.5 -177.5t170.5 -64.5q116 0 190 65q74 66 90 177l15 102
q16 111 -41 175.5t-171 64.5q-115 0 -189 -64.5t-90 -175.5zM438 316h-101l14 97h100z" />
    <glyph glyph-name="Otilde.ss03" horiz-adv-x="772" 
d="M454 801q-27 0 -66 17t-57 17q-29 0 -56 -34l-34 27q43 70 102 70q23 0 64 -18q42 -17 60 -17q32 0 59 34l34 -28q-41 -68 -106 -68zM55 282q0 205 110 330q109 126 290 126q141 0 217.5 -76.5t76.5 -215.5q0 -204 -110 -331q-110 -125 -289 -125q-142 0 -218.5 76
t-76.5 216zM164 416l-15 -102q-17 -113 40.5 -177.5t170.5 -64.5q116 0 190 65q74 66 90 177l15 102q16 111 -41 175.5t-171 64.5q-115 0 -189 -64.5t-90 -175.5zM438 316h-101l14 97h100z" />
    <glyph glyph-name="A.ss04" horiz-adv-x="749" 
d="M399 729h82l198 -281l-63 -448h-90l24 174h-375l-25 -174h-90l63 448zM210 424l-24 -172h375l24 172l-151 223h-9z" />
    <glyph glyph-name="Aacute.ss04" horiz-adv-x="749" 
d="M619 971l29 -57l-198 -112l-22 43zM399 729h82l198 -281l-63 -448h-90l24 174h-375l-25 -174h-90l63 448zM210 424l-24 -172h375l24 172l-151 223h-9z" />
    <glyph glyph-name="Abreve.ss04" horiz-adv-x="749" 
d="M450 801q-65 0 -98.5 39t-24.5 103h59q-6 -40 14 -64.5t57 -24.5q38 0 64.5 24.5t32.5 64.5h60q-9 -63 -54.5 -102.5t-109.5 -39.5zM399 729h82l198 -281l-63 -448h-90l24 174h-375l-25 -174h-90l63 448zM210 424l-24 -172h375l24 172l-151 223h-9z" />
    <glyph glyph-name="Acircumflex.ss04" horiz-adv-x="749" 
d="M554 791l-89 110l-119 -110l-37 41l136 124h58l100 -123zM399 729h82l198 -281l-63 -448h-90l24 174h-375l-25 -174h-90l63 448zM210 424l-24 -172h375l24 172l-151 223h-9z" />
    <glyph glyph-name="Adieresis.ss04" horiz-adv-x="749" 
d="M334 928h77l-16 -113h-76zM525 928h77l-16 -113h-77zM399 729h82l198 -281l-63 -448h-90l24 174h-375l-25 -174h-90l63 448zM210 424l-24 -172h375l24 172l-151 223h-9z" />
    <glyph glyph-name="Agrave.ss04" horiz-adv-x="749" 
d="M331 971l156 -126l-35 -43l-166 112zM399 729h82l198 -281l-63 -448h-90l24 174h-375l-25 -174h-90l63 448zM210 424l-24 -172h375l24 172l-151 223h-9z" />
    <glyph glyph-name="Amacron.ss04" horiz-adv-x="749" 
d="M306 873h309l-8 -63h-310zM399 729h82l198 -281l-63 -448h-90l24 174h-375l-25 -174h-90l63 448zM210 424l-24 -172h375l24 172l-151 223h-9z" />
    <glyph glyph-name="Aogonek.ss04" horiz-adv-x="749" 
d="M525 -93q0 -40 51 -40q24 0 53 12l-6 -49q-30 -13 -70 -13q-39 2 -62 22t-23 53q0 64 65 108h-7l24 174h-375l-25 -174h-90l63 448l276 281h82l198 -281l-63 -448q-43 -13 -67 -37.5t-24 -55.5zM210 424l-24 -172h375l24 172l-151 223h-9z" />
    <glyph glyph-name="Aring.ss04" horiz-adv-x="749" 
d="M491 715l188 -267l-63 -448h-90l24 174h-375l-25 -174h-90l63 448l263 268q-45 22 -45 78q0 54 36.5 90t90.5 36q44 0 70.5 -24.5t26.5 -64.5q0 -39 -20 -70t-54 -46zM462 873q-28 0 -47 -21t-19 -50q0 -23 13.5 -37t35.5 -14q27 0 46 21t19 51q0 22 -13 36t-35 14z
M210 424l-24 -172h375l24 172l-151 223h-9z" />
    <glyph glyph-name="Atilde.ss04" horiz-adv-x="749" 
d="M387 831q-29 0 -56 -34l-34 27q43 70 102 70q23 0 64 -18q42 -17 60 -17q32 0 59 34l34 -28q-41 -68 -106 -68q-27 0 -66 17t-57 17zM399 729h82l198 -281l-63 -448h-90l24 174h-375l-25 -174h-90l63 448zM210 424l-24 -172h375l24 172l-151 223h-9z" />
    <glyph glyph-name="V.ss04" horiz-adv-x="758" 
d="M104 280l63 449h87l-60 -425l151 -222h10l214 222l59 425h94l-63 -449l-275 -280h-83z" />
    <glyph glyph-name="W.ss04" horiz-adv-x="950" 
d="M217 0l-115 267l66 462h90l-63 -445l80 -197h11l148 205l31 225h84l-31 -225l96 -205h11l136 197l64 445h90l-66 -462l-191 -267h-92l-102 214l-154 -214h-93z" />
    <glyph glyph-name="Wacute.ss04" horiz-adv-x="950" 
d="M749 918l-198 -112l-22 43l191 126zM217 0l-115 267l66 462h90l-63 -445l80 -197h11l148 205l31 225h84l-31 -225l96 -205h11l136 197l64 445h90l-66 -462l-191 -267h-92l-102 214l-154 -214h-93z" />
    <glyph glyph-name="Wcircumflex.ss04" horiz-adv-x="950" 
d="M447 795l-37 41l136 124h58l100 -123l-49 -42l-89 110zM217 0l-115 267l66 462h90l-63 -445l80 -197h11l148 205l31 225h84l-31 -225l96 -205h11l136 197l64 445h90l-66 -462l-191 -267h-92l-102 214l-154 -214h-93z" />
    <glyph glyph-name="Wdieresis.ss04" horiz-adv-x="950" 
d="M496 819h-76l15 113h77zM687 819h-77l16 113h77zM217 0l-115 267l66 462h90l-63 -445l80 -197h11l148 205l31 225h84l-31 -225l96 -205h11l136 197l64 445h90l-66 -462l-191 -267h-92l-102 214l-154 -214h-93z" />
    <glyph glyph-name="Wgrave.ss04" horiz-adv-x="950" 
d="M588 849l-35 -43l-166 112l45 57zM217 0l-115 267l66 462h90l-63 -445l80 -197h11l148 205l31 225h84l-31 -225l96 -205h11l136 197l64 445h90l-66 -462l-191 -267h-92l-102 214l-154 -214h-93z" />
    <glyph glyph-name="Y.ss04" horiz-adv-x="686" 
d="M592 729h94l-32 -233l-271 -273l-31 -223h-91l32 224l-194 272l32 233h87l-29 -209l151 -219h11l213 219z" />
    <glyph glyph-name="Yacute.ss04" horiz-adv-x="686" 
d="M588 975l29 -57l-198 -112l-22 43zM592 729h94l-32 -233l-271 -273l-31 -223h-91l32 224l-194 272l32 233h87l-29 -209l151 -219h11l213 219z" />
    <glyph glyph-name="Ycircumflex.ss04" horiz-adv-x="686" 
d="M522 795l-89 110l-119 -110l-37 41l136 124h58l100 -123zM592 729h94l-32 -233l-271 -273l-31 -223h-91l32 224l-194 272l32 233h87l-29 -209l151 -219h11l213 219z" />
    <glyph glyph-name="Ydieresis.ss04" horiz-adv-x="686" 
d="M303 932h77l-16 -113h-76zM494 932h77l-16 -113h-77zM592 729h94l-32 -233l-271 -273l-31 -223h-91l32 224l-194 272l32 233h87l-29 -209l151 -219h11l213 219z" />
    <glyph glyph-name="Ygrave.ss04" horiz-adv-x="686" 
d="M300 975l156 -126l-35 -43l-166 112zM592 729h94l-32 -233l-271 -273l-31 -223h-91l32 224l-194 272l32 233h87l-29 -209l151 -219h11l213 219z" />
    <glyph glyph-name="i.loclTRK" horiz-adv-x="260" 
d="M222 620h-81l16 113h81zM136 0h-85l73 522h86z" />
    <glyph glyph-name="uni006A0301" horiz-adv-x="270" 
d="M356 768l29 -57l-198 -112l-22 43zM48 -97l16 117l71 502h85l-70 -502l-16 -110q-5 -26 -16 -45q-18 -32 -73 -32h-122l10 70h115z" />
    <glyph glyph-name="s.001" horiz-adv-x="508" 
d="M36 158h84q-8 -49 22 -74.5t93 -25.5q62 0 99.5 26.5t37.5 70.5q0 48 -64 61l-99 19q-133 27 -133 122q0 77 61 126t160 49q91 0 138 -43t38 -116h-83q9 92 -105 92q-55 0 -87.5 -24.5t-32.5 -66.5q0 -22 15 -37q15 -13 26.5 -17.5t38.5 -8.5l102 -20q116 -24 116 -119
q0 -81 -66 -132q-67 -50 -172 -50q-99 0 -149.5 45t-39.5 123z" />
    <glyph glyph-name="germandbls.alt01" horiz-adv-x="672" 
d="M613 586l-145 -164q73 -10 110.5 -52.5t37.5 -111.5q0 -118 -78 -189q-76 -69 -209 -69h-110l11 77h121q66 0 109.5 30.5t49.5 78.5l11 77q6 47 -30 75t-102 28h-61l189 220q-6 34 -41.5 54t-86.5 20q-68 0 -110.5 -36t-51.5 -100l-73 -524h-89l73 522q15 102 85.5 159
t178.5 57q92 0 147.5 -40t63.5 -112z" />
    <glyph glyph-name="a.ss01" horiz-adv-x="628" 
d="M499 522h79l-73 -522h-87l15 100h-7q-29 -50 -82.5 -80t-114.5 -30q-93 0 -141 53.5t-48 152.5q0 153 73 244q74 92 196 92q58 0 102.5 -27.5t60.5 -74.5h7zM451 229l9 68q9 69 -32 116t-114 47q-71 0 -117 -38.5t-55 -104.5l-15 -108q-10 -68 25.5 -107t105.5 -39
q73 0 128 47q54 45 65 119z" />
    <glyph glyph-name="aacute.ss01" horiz-adv-x="628" 
d="M521 724l-198 -112l-22 43l191 126zM499 522h79l-73 -522h-87l15 100h-7q-29 -50 -82.5 -80t-114.5 -30q-93 0 -141 53.5t-48 152.5q0 153 73 244q74 92 196 92q58 0 102.5 -27.5t60.5 -74.5h7zM451 229l9 68q9 69 -32 116t-114 47q-71 0 -117 -38.5t-55 -104.5l-15 -108
q-10 -68 25.5 -107t105.5 -39q73 0 128 47q54 45 65 119z" />
    <glyph glyph-name="abreve.ss01" horiz-adv-x="628" 
d="M427 753h60q-9 -63 -54.5 -102.5t-109.5 -39.5q-65 0 -98.5 39t-24.5 103h59q-6 -40 14 -64.5t57 -24.5q38 0 64.5 24.5t32.5 64.5zM499 522h79l-73 -522h-87l15 100h-7q-29 -50 -82.5 -80t-114.5 -30q-93 0 -141 53.5t-48 152.5q0 153 73 244q74 92 196 92
q58 0 102.5 -27.5t60.5 -74.5h7zM451 229l9 68q9 69 -32 116t-114 47q-71 0 -117 -38.5t-55 -104.5l-15 -108q-10 -68 25.5 -107t105.5 -39q73 0 128 47q54 45 65 119z" />
    <glyph glyph-name="acircumflex.ss01" horiz-adv-x="628" 
d="M218 601l-37 41l136 124h58l100 -123l-49 -42l-89 110zM499 522h79l-73 -522h-87l15 100h-7q-29 -50 -82.5 -80t-114.5 -30q-93 0 -141 53.5t-48 152.5q0 153 73 244q74 92 196 92q58 0 102.5 -27.5t60.5 -74.5h7zM451 229l9 68q9 69 -32 116t-114 47q-71 0 -117 -38.5
t-55 -104.5l-15 -108q-10 -68 25.5 -107t105.5 -39q73 0 128 47q54 45 65 119z" />
    <glyph glyph-name="adieresis.ss01" horiz-adv-x="628" 
d="M305 604h-77l16 113h77zM496 604h-77l16 113h77zM499 522h79l-73 -522h-87l15 100h-7q-29 -50 -82.5 -80t-114.5 -30q-93 0 -141 53.5t-48 152.5q0 153 73 244q74 92 196 92q58 0 102.5 -27.5t60.5 -74.5h7zM451 229l9 68q9 69 -32 116t-114 47q-71 0 -117 -38.5
t-55 -104.5l-15 -108q-10 -68 25.5 -107t105.5 -39q73 0 128 47q54 45 65 119z" />
    <glyph glyph-name="agrave.ss01" horiz-adv-x="628" 
d="M360 655l-35 -43l-166 112l45 57zM499 522h79l-73 -522h-87l15 100h-7q-29 -50 -82.5 -80t-114.5 -30q-93 0 -141 53.5t-48 152.5q0 153 73 244q74 92 196 92q58 0 102.5 -27.5t60.5 -74.5h7zM451 229l9 68q9 69 -32 116t-114 47q-71 0 -117 -38.5t-55 -104.5l-15 -108
q-10 -68 25.5 -107t105.5 -39q73 0 128 47q54 45 65 119z" />
    <glyph glyph-name="amacron.ss01" horiz-adv-x="628" 
d="M480 620h-310l9 63h309zM499 522h79l-73 -522h-87l15 100h-7q-29 -50 -82.5 -80t-114.5 -30q-93 0 -141 53.5t-48 152.5q0 153 73 244q74 92 196 92q58 0 102.5 -27.5t60.5 -74.5h7zM451 229l9 68q9 69 -32 116t-114 47q-71 0 -117 -38.5t-55 -104.5l-15 -108
q-10 -68 25.5 -107t105.5 -39q73 0 128 47q54 45 65 119z" />
    <glyph glyph-name="aogonek.ss01" horiz-adv-x="628" 
d="M411 -93q0 -40 51 -40q24 0 53 12l-6 -49q-30 -13 -70 -13q-39 2 -62 22t-23 53q0 64 65 108h-1l15 100h-7q-29 -50 -82.5 -80t-114.5 -30q-93 0 -141 53.5t-48 152.5q0 153 73 244q74 92 196 92q58 0 102.5 -27.5t60.5 -74.5h7l20 92h79l-73 -522h-3q-43 -13 -67 -37.5
t-24 -55.5zM258 63q73 0 128 47q54 45 65 119l9 68q9 69 -32 116t-114 47q-71 0 -117 -38.5t-55 -104.5l-15 -108q-10 -68 25.5 -107t105.5 -39z" />
    <glyph glyph-name="aring.ss01" horiz-adv-x="628" 
d="M479 430l20 92h79l-73 -522h-87l15 100h-7q-29 -50 -82.5 -80t-114.5 -30q-93 0 -141 53.5t-48 152.5q0 134 58 222q59 90 158 109q-43 24 -43 77q0 54 36.5 90t90.5 36q44 0 70.5 -24.5t26.5 -64.5q0 -39 -20 -70.5t-53 -45.5q84 -22 108 -95h7zM334 683q-28 0 -47 -21
t-19 -50q0 -23 13.5 -37t35.5 -14q27 0 46 21t19 51q0 22 -13 36t-35 14zM451 229l9 68q9 69 -32 116t-114 47q-71 0 -117 -38.5t-55 -104.5l-15 -108q-10 -68 25.5 -107t105.5 -39q73 0 128 47q54 45 65 119z" />
    <glyph glyph-name="atilde.ss01" horiz-adv-x="628" 
d="M383 607q-27 0 -66 17t-57 17q-29 0 -56 -34l-34 27q43 70 102 70q24 0 64 -18q42 -17 60 -17q32 0 59 34l34 -28q-41 -68 -106 -68zM499 522h79l-73 -522h-87l15 100h-7q-29 -50 -82.5 -80t-114.5 -30q-93 0 -141 53.5t-48 152.5q0 153 73 244q74 92 196 92
q58 0 102.5 -27.5t60.5 -74.5h7zM451 229l9 68q9 69 -32 116t-114 47q-71 0 -117 -38.5t-55 -104.5l-15 -108q-10 -68 25.5 -107t105.5 -39q73 0 128 47q54 45 65 119z" />
    <glyph glyph-name="g.ss01" horiz-adv-x="628" 
d="M47 215q0 144 73 230q74 87 193 87q58 0 102.5 -27.5t60.5 -74.5h6l21 92h79l-68 -485q-14 -101 -86 -157.5t-185 -56.5q-96 0 -150.5 41.5t-50.5 110.5h83q-1 -40 33.5 -63.5t94.5 -23.5q75 0 119.5 37.5t53.5 104.5l13 94h-6q-29 -50 -82.5 -80t-114.5 -30
q-92 0 -140.5 53t-48.5 148zM147 327l-15 -104q-8 -61 28 -98.5t105 -37.5q74 0 128 45t63 111l10 64q9 63 -34 108q-42 45 -114 45q-69 0 -115.5 -36.5t-55.5 -96.5z" />
    <glyph glyph-name="gbreve.ss01" horiz-adv-x="628" 
d="M441 741h60q-9 -63 -54.5 -102.5t-109.5 -39.5q-65 0 -98.5 39t-24.5 103h59q-6 -40 14 -64.5t57 -24.5q38 0 64.5 24.5t32.5 64.5zM47 215q0 144 73 230q74 87 193 87q58 0 102.5 -27.5t60.5 -74.5h6l21 92h79l-68 -485q-14 -101 -86 -157.5t-185 -56.5
q-96 0 -150.5 41.5t-50.5 110.5h83q-1 -40 33.5 -63.5t94.5 -23.5q75 0 119.5 37.5t53.5 104.5l13 94h-6q-29 -50 -82.5 -80t-114.5 -30q-92 0 -140.5 53t-48.5 148zM147 327l-15 -104q-8 -61 28 -98.5t105 -37.5q74 0 128 45t63 111l10 64q9 63 -34 108q-42 45 -114 45
q-69 0 -115.5 -36.5t-55.5 -96.5z" />
    <glyph glyph-name="uni0123.ss01" horiz-adv-x="628" 
d="M366 779v-27q-18 0 -29 -13t-11 -34v-5h40v-88h-80v74q0 44 21.5 68.5t58.5 24.5zM47 215q0 144 73 230q74 87 193 87q58 0 102.5 -27.5t60.5 -74.5h6l21 92h79l-68 -485q-14 -101 -86 -157.5t-185 -56.5q-96 0 -150.5 41.5t-50.5 110.5h83q-1 -40 33.5 -63.5t94.5 -23.5
q75 0 119.5 37.5t53.5 104.5l13 94h-6q-29 -50 -82.5 -80t-114.5 -30q-92 0 -140.5 53t-48.5 148zM147 327l-15 -104q-8 -61 28 -98.5t105 -37.5q74 0 128 45t63 111l10 64q9 63 -34 108q-42 45 -114 45q-69 0 -115.5 -36.5t-55.5 -96.5z" />
    <glyph glyph-name="gdotaccent.ss01" horiz-adv-x="628" 
d="M378 613h-77l16 113h77zM47 215q0 144 73 230q74 87 193 87q58 0 102.5 -27.5t60.5 -74.5h6l21 92h79l-68 -485q-14 -101 -86 -157.5t-185 -56.5q-96 0 -150.5 41.5t-50.5 110.5h83q-1 -40 33.5 -63.5t94.5 -23.5q75 0 119.5 37.5t53.5 104.5l13 94h-6q-29 -50 -82.5 -80
t-114.5 -30q-92 0 -140.5 53t-48.5 148zM147 327l-15 -104q-8 -61 28 -98.5t105 -37.5q74 0 128 45t63 111l10 64q9 63 -34 108q-42 45 -114 45q-69 0 -115.5 -36.5t-55.5 -96.5z" />
    <glyph glyph-name="a.ss02" horiz-adv-x="555" 
d="M30 120q0 86 58 138q59 53 156 53h155l6 41q17 111 -105 111q-117 0 -138 -92h-83q18 78 79.5 119.5t155.5 41.5q100 0 144 -47.5t32 -136.5l-49 -348h-78l5 88h-6q-25 -46 -74.5 -72t-113.5 -26q-68 0 -106 34.5t-38 95.5zM123 170l-4 -28q-5 -41 17.5 -61.5t68.5 -20.5
q73 0 123 44q50 45 59 116l4 27h-149q-50 0 -82 -21t-37 -56z" />
    <glyph glyph-name="aacute.ss02" horiz-adv-x="555" 
d="M521 719l-198 -112l-22 43l191 126zM30 120q0 86 58 138q59 53 156 53h155l6 41q17 111 -105 111q-117 0 -138 -92h-83q18 78 79.5 119.5t155.5 41.5q100 0 144 -47.5t32 -136.5l-49 -348h-78l5 88h-6q-25 -46 -74.5 -72t-113.5 -26q-68 0 -106 34.5t-38 95.5zM123 170
l-4 -28q-5 -41 17.5 -61.5t68.5 -20.5q73 0 123 44q50 45 59 116l4 27h-149q-50 0 -82 -21t-37 -56z" />
    <glyph glyph-name="abreve.ss02" horiz-adv-x="555" 
d="M427 748h60q-9 -63 -54.5 -102.5t-109.5 -39.5q-65 0 -98.5 39t-24.5 103h59q-6 -40 14 -64.5t57 -24.5q38 0 64.5 24.5t32.5 64.5zM30 120q0 86 58 138q59 53 156 53h155l6 41q17 111 -105 111q-117 0 -138 -92h-83q18 78 79.5 119.5t155.5 41.5q100 0 144 -47.5
t32 -136.5l-49 -348h-78l5 88h-6q-25 -46 -74.5 -72t-113.5 -26q-68 0 -106 34.5t-38 95.5zM123 170l-4 -28q-5 -41 17.5 -61.5t68.5 -20.5q73 0 123 44q50 45 59 116l4 27h-149q-50 0 -82 -21t-37 -56z" />
    <glyph glyph-name="acircumflex.ss02" horiz-adv-x="555" 
d="M219 596l-37 41l136 124h58l100 -123l-49 -42l-89 110zM30 120q0 86 58 138q59 53 156 53h155l6 41q17 111 -105 111q-117 0 -138 -92h-83q18 78 79.5 119.5t155.5 41.5q100 0 144 -47.5t32 -136.5l-49 -348h-78l5 88h-6q-25 -46 -74.5 -72t-113.5 -26q-68 0 -106 34.5
t-38 95.5zM123 170l-4 -28q-5 -41 17.5 -61.5t68.5 -20.5q73 0 123 44q50 45 59 116l4 27h-149q-50 0 -82 -21t-37 -56z" />
    <glyph glyph-name="adieresis.ss02" horiz-adv-x="555" 
d="M269 620h-76l15 113h77zM460 620h-77l16 113h77zM30 120q0 86 58 138q59 53 156 53h155l6 41q17 111 -105 111q-117 0 -138 -92h-83q18 78 79.5 119.5t155.5 41.5q100 0 144 -47.5t32 -136.5l-49 -348h-78l5 88h-6q-25 -46 -74.5 -72t-113.5 -26q-68 0 -106 34.5
t-38 95.5zM123 170l-4 -28q-5 -41 17.5 -61.5t68.5 -20.5q73 0 123 44q50 45 59 116l4 27h-149q-50 0 -82 -21t-37 -56z" />
    <glyph glyph-name="agrave.ss02" horiz-adv-x="555" 
d="M360 650l-35 -43l-166 112l45 57zM30 120q0 86 58 138q59 53 156 53h155l6 41q17 111 -105 111q-117 0 -138 -92h-83q18 78 79.5 119.5t155.5 41.5q100 0 144 -47.5t32 -136.5l-49 -348h-78l5 88h-6q-25 -46 -74.5 -72t-113.5 -26q-68 0 -106 34.5t-38 95.5zM123 170
l-4 -28q-5 -41 17.5 -61.5t68.5 -20.5q73 0 123 44q50 45 59 116l4 27h-149q-50 0 -82 -21t-37 -56z" />
    <glyph glyph-name="amacron.ss02" horiz-adv-x="555" 
d="M480 615h-310l9 63h309zM30 120q0 86 58 138q59 53 156 53h155l6 41q17 111 -105 111q-117 0 -138 -92h-83q18 78 79.5 119.5t155.5 41.5q100 0 144 -47.5t32 -136.5l-49 -348h-78l5 88h-6q-25 -46 -74.5 -72t-113.5 -26q-68 0 -106 34.5t-38 95.5zM123 170l-4 -28
q-5 -41 17.5 -61.5t68.5 -20.5q73 0 123 44q50 45 59 116l4 27h-149q-50 0 -82 -21t-37 -56z" />
    <glyph glyph-name="aogonek.ss02" horiz-adv-x="555" 
d="M441 0h-1q-43 -13 -67 -37.5t-24 -55.5q0 -40 51 -40q24 0 53 12l-6 -49q-30 -13 -70 -13q-39 2 -62 22t-23 53q0 68 71 112l5 84h-6q-25 -46 -74.5 -72t-113.5 -26q-68 0 -106 34.5t-38 95.5q0 86 58 138q59 53 156 53h155l6 41q17 111 -105 111q-117 0 -138 -92h-83
q18 78 79.5 119.5t155.5 41.5q100 0 144 -47.5t32 -136.5zM205 60q73 0 123 44q50 45 59 116l4 27h-149q-50 0 -82 -21t-37 -56l-4 -28q-5 -41 17.5 -61.5t68.5 -20.5z" />
    <glyph glyph-name="aring.ss02" horiz-adv-x="555" 
d="M377 526q134 -27 113 -178l-49 -348h-78l5 88h-6q-25 -46 -74.5 -72t-113.5 -26q-68 0 -106 34.5t-38 95.5q0 86 58 138q59 53 156 53h155l6 41q17 111 -105 111q-117 0 -138 -92h-83q30 130 171 155q-36 26 -36 73q0 54 36.5 90t90.5 36q44 0 70.5 -24.5t26.5 -64.5
q0 -74 -61 -110zM335 678q-28 0 -47 -21t-19 -50q0 -23 13.5 -37t35.5 -14q27 0 46 21t19 51q0 22 -13 36t-35 14zM387 220l4 27h-149q-50 0 -82 -21t-37 -56l-4 -28q-5 -41 17.5 -61.5t68.5 -20.5q73 0 123 44q50 45 59 116z" />
    <glyph glyph-name="atilde.ss02" horiz-adv-x="555" 
d="M384 602q-27 0 -66 17t-57 17q-29 0 -56 -34l-34 27q43 70 102 70q23 0 64 -18q42 -17 60 -17q32 0 59 34l34 -28q-41 -68 -106 -68zM30 120q0 86 58 138q59 53 156 53h155l6 41q17 111 -105 111q-117 0 -138 -92h-83q18 78 79.5 119.5t155.5 41.5q100 0 144 -47.5
t32 -136.5l-49 -348h-78l5 88h-6q-25 -46 -74.5 -72t-113.5 -26q-68 0 -106 34.5t-38 95.5zM123 170l-4 -28q-5 -41 17.5 -61.5t68.5 -20.5q73 0 123 44q50 45 59 116l4 27h-149q-50 0 -82 -21t-37 -56z" />
    <glyph glyph-name="o.ss03" horiz-adv-x="590" 
d="M41 206q0 143 82 234q83 92 210 92q100 0 158.5 -57.5t58.5 -159.5q0 -143 -82 -234t-211 -91q-102 0 -159 57t-57 159zM139 299l-12 -81q-9 -73 30 -114.5t110 -41.5t122.5 42.5t61.5 113.5l11 81q10 71 -28.5 115.5t-110.5 44.5q-71 0 -123 -45q-52 -43 -61 -115z
M328 223h-79l11 77h78z" />
    <glyph glyph-name="oacute.ss03" horiz-adv-x="590" 
d="M501 710l-198 -112l-22 43l191 126zM41 206q0 143 82 234q83 92 210 92q100 0 158.5 -57.5t58.5 -159.5q0 -143 -82 -234t-211 -91q-102 0 -159 57t-57 159zM139 299l-12 -81q-9 -73 30 -114.5t110 -41.5t122.5 42.5t61.5 113.5l11 81q10 71 -28.5 115.5t-110.5 44.5
q-71 0 -123 -45q-52 -43 -61 -115zM328 223h-79l11 77h78z" />
    <glyph glyph-name="ocircumflex.ss03" horiz-adv-x="590" 
d="M199 587l-37 41l136 124h58l100 -123l-49 -42l-89 110zM41 206q0 143 82 234q83 92 210 92q100 0 158.5 -57.5t58.5 -159.5q0 -143 -82 -234t-211 -91q-102 0 -159 57t-57 159zM139 299l-12 -81q-9 -73 30 -114.5t110 -41.5t122.5 42.5t61.5 113.5l11 81
q10 71 -28.5 115.5t-110.5 44.5q-71 0 -123 -45q-52 -43 -61 -115zM328 223h-79l11 77h78z" />
    <glyph glyph-name="odieresis.ss03" horiz-adv-x="590" 
d="M248 611h-76l15 113h77zM439 611h-77l16 113h77zM41 206q0 143 82 234q83 92 210 92q100 0 158.5 -57.5t58.5 -159.5q0 -143 -82 -234t-211 -91q-102 0 -159 57t-57 159zM139 299l-12 -81q-9 -73 30 -114.5t110 -41.5t122.5 42.5t61.5 113.5l11 81q10 71 -28.5 115.5
t-110.5 44.5q-71 0 -123 -45q-52 -43 -61 -115zM328 223h-79l11 77h78z" />
    <glyph glyph-name="ograve.ss03" horiz-adv-x="590" 
d="M340 641l-35 -43l-166 112l45 57zM41 206q0 143 82 234q83 92 210 92q100 0 158.5 -57.5t58.5 -159.5q0 -143 -82 -234t-211 -91q-102 0 -159 57t-57 159zM139 299l-12 -81q-9 -73 30 -114.5t110 -41.5t122.5 42.5t61.5 113.5l11 81q10 71 -28.5 115.5t-110.5 44.5
q-71 0 -123 -45q-52 -43 -61 -115zM328 223h-79l11 77h78z" />
    <glyph glyph-name="ohungarumlaut.ss03" horiz-adv-x="590" 
d="M398 688l-189 -123l-26 41l183 136zM587 676l-197 -111l-22 42l189 126zM41 206q0 143 82 234q83 92 210 92q100 0 158.5 -57.5t58.5 -159.5q0 -143 -82 -234t-211 -91q-102 0 -159 57t-57 159zM139 299l-12 -81q-9 -73 30 -114.5t110 -41.5t122.5 42.5t61.5 113.5l11 81
q10 71 -28.5 115.5t-110.5 44.5q-71 0 -123 -45q-52 -43 -61 -115zM328 223h-79l11 77h78z" />
    <glyph glyph-name="omacron.ss03" horiz-adv-x="590" 
d="M460 606h-310l9 63h309zM41 206q0 143 82 234q83 92 210 92q100 0 158.5 -57.5t58.5 -159.5q0 -143 -82 -234t-211 -91q-102 0 -159 57t-57 159zM139 299l-12 -81q-9 -73 30 -114.5t110 -41.5t122.5 42.5t61.5 113.5l11 81q10 71 -28.5 115.5t-110.5 44.5q-71 0 -123 -45
q-52 -43 -61 -115zM328 223h-79l11 77h78z" />
    <glyph glyph-name="otilde.ss03" horiz-adv-x="590" 
d="M363 593q-27 0 -66 17t-57 17q-29 0 -56 -34l-34 27q43 70 102 70q24 0 64 -18q42 -17 60 -17q32 0 59 34l34 -28q-41 -68 -106 -68zM41 206q0 143 82 234q83 92 210 92q100 0 158.5 -57.5t58.5 -159.5q0 -143 -82 -234t-211 -91q-102 0 -159 57t-57 159zM139 299
l-12 -81q-9 -73 30 -114.5t110 -41.5t122.5 42.5t61.5 113.5l11 81q10 71 -28.5 115.5t-110.5 44.5q-71 0 -123 -45q-52 -43 -61 -115zM328 223h-79l11 77h78z" />
    <glyph glyph-name="h_t_t_p" horiz-adv-x="2084" 
d="M211 754h1800l-130 -925h-639l80 572h-204l-46 -327h117l-10 -70h-126q-73 0 -63 75l45 322h-213l-46 -327h117l-9 -70h-126q-74 0 -64 75l45 322h-101l10 67h101l19 140h83l-19 -140h213l19 140h83l-20 -140h280l-7 -90h7q25 45 76 72.5t113 27.5q86 0 137 -53t51 -141
q0 -121 -75 -205t-183 -84q-61 0 -103.5 28t-54.5 75h-7l-29 -207h492l112 800h-1668l-44 -316h7q30 48 79 75.5t106 27.5q82 0 121.5 -54.5t25.5 -148.5l-38 -271h-81l38 264q9 67 -18.5 102.5t-83.5 35.5q-67 0 -117 -50t-60 -128l-47 -337h1008l-9 -62h-1073zM1385 270
l-9 -66q-8 -57 32 -97t108 -40q79 0 131 58q53 59 53 147q0 62 -36 98t-98 36q-67 0 -121 -42q-53 -42 -60 -94z" />
    <glyph glyph-name="w_w_w" horiz-adv-x="2001" 
d="M234 0h-112l-76 522h94l34 -277l15 -162h6l164 439h96l45 -437h5l170 437h94l49 -439h6l164 439h96l45 -437h5l170 437h94l49 -439h6l164 439h96l45 -437h5l59 157l111 280h92l-222 -522h-108l-41 424h-6l-156 -424h-112l-47 400l-159 -400h-108l-41 424h-6l-156 -424
h-112l-47 399l-159 -399h-108l-41 424h-6z" />
    <glyph glyph-name="zero.ss01" horiz-adv-x="626" 
d="M71 240q0 225 84 357q85 133 227 133q205 0 205 -249q0 -225 -84 -358q-82 -133 -225 -133q-207 0 -207 250zM193 468l-30 -216q-13 -89 20.5 -136.5t104.5 -47.5q69 0 116.5 47t61.5 137l30 216q12 89 -21.5 136.5t-104.5 47.5t-117.5 -47.5t-59.5 -136.5zM363 322h-87
l11 80h87z" />
    <glyph glyph-name="zero.tf" horiz-adv-x="602" 
d="M374 730q205 0 205 -249q0 -225 -84 -358q-82 -133 -225 -133q-207 0 -207 250q0 225 84 357q85 133 227 133zM362 652q-71 0 -117.5 -47.5t-59.5 -136.5l-19 -139l325 191q-2 64 -36 98t-93 34zM279 68q71 0 118.5 47t59.5 137l25 172l-329 -193q-7 -79 26 -121t100 -42
z" />
    <glyph glyph-name="one.tf" horiz-adv-x="588" 
d="M372 721l-90 -642h226v-79h-488v79h175l64 451h-181l9 68h28q70 0 118.5 34t57.5 89h81z" />
    <glyph glyph-name="two.tf" horiz-adv-x="607" 
d="M416 297l-237 -222l111 4h221l-11 -79h-451l9 64l298 279q107 101 114 158l5 36q7 52 -25.5 83t-92.5 31q-61 0 -105 -35t-51 -91l-3 -23h-87l3 19q10 94 84 151q73 58 177 58q89 0 141 -46.5t52 -125.5q0 -86 -52 -153q-25 -33 -44 -54q-14 -15 -56 -54z" />
    <glyph glyph-name="three.tf" horiz-adv-x="606" 
d="M281 -10q-109 0 -163 62t-36 166h92q-12 -73 19.5 -112t96.5 -39t109.5 31.5t51.5 82.5l5 39q8 55 -27.5 84.5t-106.5 29.5h-53l10 76h51q66 0 107.5 29t47.5 77l5 36q6 48 -27 74t-90 26q-65 0 -105.5 -38.5t-50.5 -109.5h-91q13 103 85 164q74 62 178 62q88 0 141 -44
t53 -117q0 -64 -34.5 -113.5t-99.5 -76.5v-6q49 -18 74 -56.5t25 -88.5q0 -104 -76 -171q-74 -67 -191 -67z" />
    <glyph glyph-name="four.tf" horiz-adv-x="604" 
d="M536 721l-70 -490h91l-11 -75h-90l-22 -156h-87l22 156h-354l11 76l372 489h138zM117 231h262l60 425z" />
    <glyph glyph-name="five.tf" horiz-adv-x="607" 
d="M80 220h89q-11 -66 24 -109t101 -43q63 0 111 33q48 34 56 88l13 88q7 55 -32 89q-38 34 -102 34q-46 0 -88 -21t-60 -53h-83l71 395h413l-11 -78h-335l-42 -221l3 -1q26 24 70 39.5t86 15.5q92 0 145.5 -52.5t53.5 -143.5q0 -126 -80 -209q-79 -81 -203 -81
q-104 0 -160 63q-56 65 -40 167z" />
    <glyph glyph-name="six.tf" horiz-adv-x="606" 
d="M76 242q0 224 85 355q85 133 231 133q94 0 146.5 -48.5t48.5 -133.5h-91q0 52 -31.5 78.5t-84.5 26.5q-175 0 -201 -287h4q61 102 185 102q88 0 138.5 -49.5t50.5 -138.5q0 -129 -76 -209q-77 -81 -195 -81q-210 0 -210 252zM185 271l-11 -77q-9 -59 28 -93
q38 -33 95 -33t103 34t55 92l11 77q8 59 -30 90q-38 32 -93 32q-57 0 -104 -33q-46 -31 -54 -89z" />
    <glyph glyph-name="seven.tf" horiz-adv-x="606" 
d="M175 511h-75l29 210h474l-9 -62q-120 -141 -224 -320q-101 -176 -154 -339h-95q48 152 146 326q99 172 218 317h-292z" />
    <glyph glyph-name="eight.tf" horiz-adv-x="610" 
d="M260 -10q-103 0 -158.5 44.5t-55.5 122.5q0 67 34.5 121t96.5 78l1 8q-84 38 -84 133q0 103 75 167q76 65 194 65q102 0 158 -45.5t56 -123.5q0 -67 -34.5 -119t-96.5 -77l-1 -8q84 -40 84 -136q0 -103 -75 -167q-74 -63 -194 -63zM480 503l5 40q7 53 -28 80.5t-105 27.5
t-112 -27.5t-50 -80.5l-6 -40q-7 -50 29 -78.5t103 -28.5q68 0 112.5 28.5t51.5 78.5zM271 68q68 0 112.5 30t51.5 85l5 41q7 47 -29 73.5t-104 26.5q-70 0 -113 -26t-50 -74l-5 -41q-7 -56 28.5 -85.5t103.5 -29.5z" />
    <glyph glyph-name="nine.tf" horiz-adv-x="606" 
d="M563 478q0 -221 -86 -355q-85 -133 -229 -133q-95 0 -147.5 49t-48.5 133h91q0 -52 31 -78.5t85 -26.5q174 0 201 287h-5q-61 -102 -184 -102q-88 0 -138 50t-50 139q0 129 75 208q76 81 195 81q210 0 210 -252zM453 450l11 76q9 57 -26.5 91.5t-95.5 34.5
q-58 0 -104 -34q-47 -35 -54 -92l-11 -76q-8 -59 29 -90q38 -32 95 -32q55 0 102 32t54 90z" />
    <glyph glyph-name="zero.tf.ss01" horiz-adv-x="602" 
d="M374 730q205 0 205 -249q0 -225 -84 -358q-82 -133 -225 -133q-207 0 -207 250q0 225 84 357q85 133 227 133zM185 468l-10 -70h303l10 70q12 89 -21.5 136.5t-104.5 47.5t-117.5 -47.5t-59.5 -136.5zM279 68q71 0 118.5 47t59.5 137l11 74h-303l-10 -74
q-12 -89 21 -136.5t103 -47.5z" />
    <glyph glyph-name="zero.dnom" horiz-adv-x="419" 
d="M173 -4q-67 0 -103.5 46t-36.5 132q0 135 59 224q58 88 150 88q67 0 103.5 -46t36.5 -132q0 -135 -59 -224q-58 -88 -150 -88zM181 63q53 0 88 69q35 72 35 178q0 110 -71 110q-55 0 -89 -69q-34 -68 -34 -177q0 -111 71 -111z" />
    <glyph glyph-name="one.dnom" horiz-adv-x="311" 
d="M165 337h-124l8 60h45q43 0 67 22t24 57v4h73l-67 -480h-73z" />
    <glyph glyph-name="two.dnom" horiz-adv-x="379" 
d="M102 65l76 3h135l-10 -68h-295l2 16q13 100 105 165q10 7 37.5 25.5t39 27t32 26t29.5 30.5t16.5 31.5t7.5 37.5q0 29 -17.5 45.5t-48.5 16.5q-38 0 -63 -24.5t-29 -63.5l-73 6q11 66 60 106q50 41 118 41q60 0 95.5 -32t35.5 -85q0 -90 -76 -152q-14 -11 -63 -44
t-76 -57.5t-38 -50.5z" />
    <glyph glyph-name="three.dnom" horiz-adv-x="383" 
d="M163 -7q-70 0 -107.5 42t-25.5 109h75q-6 -40 13 -62.5t54 -22.5q38 0 65 26t27 63q0 30 -21 47t-56 17h-35l10 69h30q41 0 67 23.5t26 60.5q0 26 -17.5 41t-45.5 15q-36 0 -60 -23t-29 -62h-75q8 65 54 107q47 43 119 43q60 0 96 -29.5t36 -79.5q0 -87 -83 -124l-1 -5
q62 -24 62 -94q0 -69 -52 -115q-50 -46 -126 -46z" />
    <glyph glyph-name="four.dnom" horiz-adv-x="393" 
d="M339 480l-45 -320h54l-9 -67h-54l-13 -93h-74l13 93h-215l9 63l215 324h119zM255 412l-169 -252h134z" />
    <glyph glyph-name="five.dnom" horiz-adv-x="396" 
d="M32 147h76q-6 -38 13.5 -62t56.5 -24q42 0 71 32.5t29 80.5q0 37 -19.5 58.5t-54.5 21.5q-26 0 -49 -12.5t-34 -32.5h-71l39 271h286l-9 -67h-213l-11 -74l-8 -49l1 -2q32 32 92 32q59 0 94 -36.5t35 -96.5q0 -83 -55 -138q-54 -56 -134 -56q-69 0 -107 42.5t-28 111.5z
" />
    <glyph glyph-name="six.dnom" horiz-adv-x="406" 
d="M31 166q0 140 60 230q61 90 156 90q61 0 96 -34t33 -92h-74q-1 28 -19 44t-49 16q-96 0 -120 -165h3q17 27 50 44t67 17q57 0 90.5 -36t33.5 -94q0 -82 -54 -137t-134 -55q-69 0 -104 44.5t-35 127.5zM109 139q0 -35 19.5 -56.5t53.5 -21.5q42 0 71 33.5t29 82.5
q0 35 -19.5 55t-53.5 20q-42 0 -71 -33t-29 -80z" />
    <glyph glyph-name="seven.dnom" horiz-adv-x="364" 
d="M62 480h309l-7 -54q-94 -101 -153 -202.5t-96 -223.5h-74q72 240 233 413h-165l-10 -75h-56l10 75z" />
    <glyph glyph-name="eight.dnom" horiz-adv-x="394" 
d="M15 107q0 41 23.5 77t62.5 53l1 5q-56 29 -56 93q0 66 52 108q52 43 131 43q66 0 105 -31t39 -82q0 -41 -23.5 -77.5t-61.5 -53.5l-1 -5q54 -29 54 -92q0 -65 -51 -109q-50 -43 -130 -43q-67 0 -106 31t-39 83zM123 334q0 -30 20.5 -46.5t54.5 -16.5q42 0 69 25t27 63
q0 29 -20.5 45.5t-53.5 16.5q-43 0 -70 -24.5t-27 -62.5zM93 121q0 -30 20 -46t56 -16q41 0 68 24.5t27 62.5q0 29 -20 46t-54 17q-42 0 -69.5 -25t-27.5 -63z" />
    <glyph glyph-name="nine.dnom" horiz-adv-x="406" 
d="M373 314q0 -141 -61 -230q-60 -90 -154 -90q-62 0 -98 34.5t-33 91.5h74q2 -59 68 -59q98 0 121 164h-4q-18 -29 -50 -46t-68 -17q-56 0 -89.5 36.5t-33.5 96.5q0 79 54 135q56 56 134 56q69 0 104.5 -44.5t35.5 -127.5zM294 341q0 35 -19.5 57t-53.5 22q-41 0 -71 -34
q-29 -35 -29 -83q0 -35 20 -54.5t54 -19.5q41 0 70 32.5t29 79.5z" />
    <glyph glyph-name="zero.numr" horiz-adv-x="419" 
d="M209 251q-67 0 -103.5 45.5t-36.5 130.5q0 135 58 221q59 87 150 87q67 0 104 -46t37 -130q0 -133 -59 -221q-59 -87 -150 -87zM217 317q53 0 88 68q35 70 35 174q0 110 -72 110q-53 0 -88 -68q-34 -67 -34 -174q0 -110 71 -110z" />
    <glyph glyph-name="one.numr" horiz-adv-x="311" 
d="M200 588h-124l8 59h45q43 0 67 21.5t24 56.5v4h73l-67 -473h-73z" />
    <glyph glyph-name="two.numr" horiz-adv-x="379" 
d="M137 319l76 3h135l-9 -67h-295l2 17q11 98 104 162q11 8 43.5 30t46.5 33t34.5 30.5t29 39.5t8.5 43q0 28 -17.5 44t-48.5 16q-37 0 -62 -24.5t-29 -62.5l-74 6q11 65 60 105.5t118 40.5q61 0 96 -31.5t35 -83.5q0 -90 -77 -150q-17 -13 -63.5 -44.5t-74 -56t-38.5 -50.5
z" />
    <glyph glyph-name="three.numr" horiz-adv-x="383" 
d="M198 248q-71 0 -107.5 41.5t-25.5 107.5h75q-7 -39 12 -61.5t55 -22.5q38 0 65 25.5t27 62.5q0 29 -21.5 46t-55.5 17h-36l10 68h30q41 0 67 23.5t26 60.5q0 26 -17.5 40t-45.5 14q-36 0 -60 -23t-28 -61h-75q6 66 53 107.5t119 41.5q60 0 96.5 -29t36.5 -79
q0 -86 -84 -122v-5q62 -26 62 -92q0 -68 -52 -114q-50 -46 -126 -46z" />
    <glyph glyph-name="four.numr" horiz-adv-x="393" 
d="M374 729l-44 -316h54l-9 -66h-54l-13 -91h-74l13 91h-215l9 62l214 320h119zM291 662l-169 -249h134z" />
    <glyph glyph-name="five.numr" horiz-adv-x="396" 
d="M68 400h76q-6 -36 14 -61t56 -25q43 0 71.5 32.5t28.5 80.5q0 37 -19.5 58.5t-54.5 21.5q-26 0 -49 -13t-34 -33h-71l38 268h286l-9 -67h-213l-10 -73l-9 -48l1 -2q32 31 93 31q59 0 94 -36.5t35 -94.5q0 -81 -54 -136t-134 -55q-69 0 -107.5 42t-28.5 110z" />
    <glyph glyph-name="six.numr" horiz-adv-x="406" 
d="M67 420q0 138 60 226q62 89 155 89q60 0 96 -33.5t34 -90.5h-74q-1 27 -19.5 42.5t-48.5 15.5q-98 0 -120 -162h3q17 27 49.5 44t66.5 17q57 0 91 -36t34 -94q0 -80 -54 -135q-54 -54 -134 -54q-69 0 -104 44.5t-35 126.5zM145 393q0 -35 19.5 -57t53.5 -22q42 0 71 33.5
t29 82.5q0 35 -19.5 55t-53.5 20q-42 0 -71 -32.5t-29 -79.5z" />
    <glyph glyph-name="seven.numr" horiz-adv-x="364" 
d="M97 729h309l-7 -54q-94 -99 -152.5 -199t-95.5 -220h-74q75 236 231 406h-164l-9 -63h-56z" />
    <glyph glyph-name="eight.numr" horiz-adv-x="394" 
d="M50 361q0 41 23.5 76t63.5 53l1 5q-56 29 -56 92q0 64 52 106q53 42 130 42q66 0 105.5 -30.5t39.5 -80.5q0 -41 -23 -76t-63 -53l-1 -5q55 -28 55 -92t-52 -107q-51 -42 -130 -42q-66 0 -105.5 31t-39.5 81zM159 586q0 -29 20 -46t55 -17q41 0 68 24.5t27 62.5
q0 29 -20 45t-54 16q-42 0 -69 -24t-27 -61zM128 376q0 -30 20.5 -46.5t56.5 -16.5q41 0 68 24.5t27 61.5q0 29 -20.5 46t-53.5 17q-43 0 -70.5 -24.5t-27.5 -61.5z" />
    <glyph glyph-name="nine.numr" horiz-adv-x="406" 
d="M408 564q0 -138 -60 -227q-60 -88 -155 -88q-61 0 -97 34t-33 91h74q1 -29 19.5 -44.5t48.5 -15.5q98 0 120 163h-4q-37 -60 -116 -60q-57 0 -90.5 35.5t-33.5 92.5q0 79 54 135q54 55 133 55q69 0 104.5 -44.5t35.5 -126.5zM330 591q0 34 -20 56t-53 22q-43 0 -71.5 -33
t-28.5 -82q0 -35 19.5 -55t53.5 -20q42 0 70 33q30 33 30 79z" />
    <glyph glyph-name="numbersign.ss03" horiz-adv-x="594" 
d="M614 534l-24 -57h-95l-74 -199h118l-23 -57h-116l-82 -221h-68l82 221h-157l-82 -221h-67l82 221h-96l24 57h93l73 199h-115l24 57h112l80 215h67l-80 -215h158l80 215h68l-80 -215h98zM196 278h157l74 199h-158z" />
    <glyph glyph-name="parenleft.case" horiz-adv-x="298" 
d="M72 280q0 135 61 264q62 133 160 205h60q-99 -75 -158 -203q-59 -129 -59 -274q0 -185 110 -292h-61q-53 50 -83 129t-30 171z" />
    <glyph glyph-name="parenright.case" horiz-adv-x="298" 
d="M254 444q0 -136 -60 -263t-159 -201h-61q101 80 159 206t58 272q0 185 -109 291h61q52 -49 81.5 -129.5t29.5 -175.5z" />
    <glyph glyph-name="braceleft.case" horiz-adv-x="329" 
d="M57 306l8 63q66 0 77 74l30 218q10 69 77 69h107l-7 -55h-112l-32 -230q-7 -45 -31.5 -73t-56.5 -31v-3q30 -5 47 -34.5t11 -72.5l-35 -241h112l-8 -56h-107q-67 0 -57 70l32 230q6 35 -10 53.5t-45 18.5z" />
    <glyph glyph-name="braceright.case" horiz-adv-x="329" 
d="M294 369l-8 -63q-66 0 -77 -72l-32 -230q-10 -70 -77 -70h-106l8 56h110l34 241q7 44 31.5 73t57.5 34v3q-32 4 -48.5 31t-10.5 73l33 230h-111l8 55h106q65 0 57 -69l-30 -218q-5 -34 9 -54t46 -20z" />
    <glyph glyph-name="bracketleft.case" horiz-adv-x="322" 
d="M236 -66h-176l113 800h175l-7 -56h-115l-97 -688h115z" />
    <glyph glyph-name="bracketright.case" horiz-adv-x="322" 
d="M170 -66h-176l8 56h115l97 688h-115l7 56h177z" />
    <glyph glyph-name="hyphen.case" horiz-adv-x="455" 
d="M407 340h-338l8 58h338z" />
    <glyph glyph-name="endash.case" horiz-adv-x="631" 
d="M583 340h-514l8 58h514z" />
    <glyph glyph-name="emdash.case" horiz-adv-x="827" 
d="M779 340h-710l8 58h710z" />
    <glyph glyph-name="hyphen_hyphen_greater" horiz-adv-x="849" 
d="M721 232h-617v59h617l-169 232h72l196 -261l-196 -262h-72z" />
    <glyph glyph-name="greater.case" horiz-adv-x="543" 
d="M499 328l-414 -222l13 95l151 78l173 81l1 6l-150 74l-132 71l14 93l354 -208z" />
    <glyph glyph-name="less.case" horiz-adv-x="543" 
d="M428 201l-13 -95l-352 222l9 68l413 208l-13 -93l-153 -71l-169 -74l-1 -6l149 -81z" />
    <glyph glyph-name="percent.tf" horiz-adv-x="620" 
d="M237 738q70 0 113 -44.5t43 -115.5t-43 -115.5t-113 -44.5q-69 0 -112.5 44.5t-43.5 115.5q0 72 42.5 116t113.5 44zM151 579q0 -45 23.5 -73t62.5 -28q38 0 62.5 28t24.5 73q0 42 -24.5 69.5t-62.5 27.5q-39 0 -62.5 -27.5t-23.5 -69.5zM631 449l-548 -217v59l548 218
v-60zM308 151q0 71 43 114q44 44 114 44q69 0 113 -44q43 -43 43 -114q0 -72 -43 -116q-44 -45 -113 -45t-113 44.5t-44 116.5zM465 51q38 0 62.5 28t24.5 72t-24 72.5t-63 28.5t-63 -28.5t-24 -72.5t24 -72t63 -28z" />
    <glyph glyph-name="perthousand.tf" horiz-adv-x="677" 
d="M358 479q-44 -42 -113 -42q-70 0 -113 42t-43 109t43 109t113 42q69 0 113 -42t44 -109t-44 -109zM245 679q-38 0 -62 -25.5t-24 -65.5t24 -65t62 -25q39 0 63.5 25.5t24.5 65.5t-24.5 65t-63.5 25zM115 332l548 217v-59l-548 -217v59zM537 292q67 0 109 -41.5t42 -108.5
q0 -68 -42 -110t-109 -42q-83 0 -128 61q-42 -61 -125 -61q-67 0 -109.5 42t-42.5 110q0 67 42 108.5t109 41.5q83 0 126 -60q43 60 128 60zM288 50q39 0 63 25.5t24 66.5q0 40 -24 65.5t-62 25.5q-40 0 -64 -25t-24 -66q0 -40 24.5 -66t62.5 -26zM532 51q38 0 62.5 25.5
t24.5 66.5q0 40 -24.5 65t-62.5 25q-39 0 -63 -25t-24 -66t24 -66t63 -25z" />
    <glyph glyph-name="at.ss03" horiz-adv-x="914" 
d="M605 504h55l-54 -257q-17 -83 47 -83q62 0 107 76q46 76 46 182q0 117 -74 185q-74 69 -201 69q-174 0 -287 -122t-113 -310q0 -131 78 -207.5t223 -76.5h230l-9 -62h-230q-171 0 -269 92q-97 91 -97 248q-2 137 62 253.5t176 183t244 63.5q155 0 247 -84q92 -83 92 -223
q0 -133 -69 -231q-67 -96 -163 -96q-44 0 -69.5 22t-28.5 60h-6q-48 -80 -136 -80q-56 0 -92 39.5t-36 108.5q0 107 60 184q60 78 143 78q78 0 102 -65h4zM425 167q56 0 95 55q40 55 40 135q0 47 -20.5 73t-58.5 26q-56 0 -95 -57q-38 -56 -38 -138q0 -46 20 -70t57 -24z
" />
    <glyph glyph-name="less_hyphen_hyphen" horiz-adv-x="849" 
d="M753 291v-59h-617l169 -232h-71l-196 262l196 261h71l-169 -232h617z" />
    <glyph glyph-name="uni1F310" horiz-adv-x="1078" 
d="M558 738q196 0 321 -104q124 -103 124 -269q0 -165 -125 -270q-124 -105 -320 -105t-321 105t-125 270q0 166 124 269q125 104 322 104zM453 572h209q-17 66 -44 102t-60 36t-60.5 -36t-44.5 -102zM690 572h109q-59 101 -169 129q39 -43 60 -129zM316 572h110
q23 89 59 129q-109 -27 -169 -129zM830 572h72q-61 75 -167 111q57 -41 95 -111zM380 682q-104 -35 -167 -110h72q36 68 95 110zM139 378h97q3 94 34 163h-80q-48 -74 -51 -163zM419 541h-119q-32 -73 -35 -163h138q1 88 16 163zM430 378h255q-1 90 -16 163h-223
q-14 -74 -16 -163zM712 378h138q-3 90 -35 163h-118q14 -72 15 -163zM878 378h97q-3 89 -50 163h-80q30 -72 33 -163zM236 349h-97q5 -90 51 -160h79q-30 73 -33 160zM403 349h-138q3 -88 35 -160h118q-14 71 -15 160zM685 349h-255q2 -89 16 -160h223q14 71 16 160z
M697 189h118q32 72 35 160h-138q-1 -89 -15 -160zM975 349h-97q-3 -89 -33 -160h79q46 70 51 160zM283 160h-71q59 -73 165 -112q-57 42 -94 112zM425 160h-110q62 -104 169 -132q-38 46 -59 132zM662 160h-209q17 -67 44.5 -104t60.5 -37t60 37t44 104zM800 160h-110
q-21 -86 -59 -132q107 28 169 132zM738 48q101 36 165 112h-72q-34 -67 -93 -112z" />
    <glyph glyph-name="uni1F441" horiz-adv-x="887" 
d="M95 363q0 166 104 270t264 104q159 0 263 -104t104 -270q0 -167 -104 -273q-104 -104 -263 -104q-160 0 -264 104q-104 106 -104 273zM146 363q0 -147 90 -240q90 -92 227 -92q136 0 226 92q90 93 90 240q0 145 -90 237t-226 92q-137 0 -227 -92t-90 -237zM296 364
q0 74 48 120q50 47 119 47t118 -47q48 -46 48 -120q0 -76 -48 -124q-47 -47 -118 -47q-70 0 -119 47q-48 48 -48 124zM314 373v-20l140 6l-90 -82l15 -17l81 93l-7 -144h20l-6 144l80 -93l15 17l-89 82l139 -6v20l-139 -6l89 81l-15 17l-80 -92l6 142h-20l7 -142l-81 92
l-15 -17l90 -81z" />
    </font>
</defs>
</svg>
