<?xml version="1.0" standalone="no"?>
<!DOCTYPE svg PUBLIC "-//W3C//DTD SVG 1.1//EN" "http://www.w3.org/Graphics/SVG/1.1/DTD/svg11.dtd" >
<svg xmlns="http://www.w3.org/2000/svg" xmlns:xlink="http://www.w3.org/1999/xlink" version="1.1">
<metadata>
Created by FontForge 20170731 at Tue Jul 10 19:29:52 2018
 By Aleksey,,,
Copyright (c) 2017 by Deni Anggara. All rights reserved.
</metadata>
<defs>
<font id="AllianceNo.2-Black" horiz-adv-x="0" >
  <font-face 
    font-family="Alliance No.2 Black"
    font-weight="900"
    font-stretch="normal"
    units-per-em="1000"
    panose-1="0 0 10 0 0 0 0 0 0 0"
    ascent="792"
    descent="-208"
    x-height="544"
    cap-height="729"
    bbox="-578 -327 2115 1056"
    underline-thickness="50"
    underline-position="-200"
    unicode-range="U+000D-FB02"
  />
<missing-glyph horiz-adv-x="644" 
d="M644 0h-644v729h644v-729zM63 666v-604h518v604h-518zM518 125h-392v478h392v-478zM189 540v-351h266v351h-266zM252 252v225h140v-225h-140z" />
    <glyph glyph-name="fi" unicode="fi" horiz-adv-x="721" 
d="M297 544h377v-544h-192v391h-185v-391h-192v391h-99v153h99v47q0 48 12 80q29 79 147 79h167v-148h-134v-58zM483 582v168h191v-168h-191z" />
    <glyph glyph-name="fl" unicode="fl" horiz-adv-x="694" 
d="M264 750h383v-750h-192v602h-158v-58h100v-152h-100v-392h-192v392h-99v152h99v47q0 48 12 80q29 79 147 79z" />
    <glyph glyph-name="f_f" unicode="ff" horiz-adv-x="785" 
d="M780 602h-134v-58h100v-153h-100v-391h-192v391h-157v-391h-192v391h-99v153h99v47q0 48 12 80q29 79 147 79h153v-148h-120v-58h157v52q0 47 12 78q29 76 147 76h167v-148z" />
    <glyph glyph-name="f_f_i" unicode="ffi" horiz-adv-x="1070" 
d="M646 544h377v-544h-191v391h-186v-391h-192v391h-157v-391h-192v391h-99v153h99v47q0 48 12 80q29 79 147 79h153v-148h-120v-58h157v47q0 48 12 80q29 79 147 79h167v-148h-134v-58zM832 582v168h191v-168h-191z" />
    <glyph glyph-name="f_t" unicode="ft" horiz-adv-x="804" 
d="M779 391h-104v-243h104v-148h-149q-76 0 -110.5 36.5t-34.5 108.5v246h-189v-391h-191v391h-99v153h99v61q0 145 155 145h171v-148h-135v-58h189v165h190v-165h104v-153z" />
    <glyph glyph-name="t_i" unicode="ti" horiz-adv-x="681" 
d="M443 582v168h191v-168h-191zM289 544h345v-544h-191v391h-154v-243h94v-148h-125q-85 0 -126 39q-16 16 -23 40q-10 32 -10 74v6v232h-95v153h95v165h190v-165z" />
    <glyph glyph-name="t_t" unicode="tt" horiz-adv-x="775" 
d="M750 391h-103v-243h103v-148h-135q-85 0 -126 39q-16 16 -23 40q-10 32 -10 74v6v232h-166v-243h103v-148h-135q-85 0 -126 39q-16 16 -23 40q-10 32 -10 74v6v232h-95v153h95v165h191v-165h166v165h191v-165h103v-153z" />
    <glyph glyph-name="t_t_i" unicode="tti" horiz-adv-x="1052" 
d="M814 582v168h191v-168h-191zM647 544h358v-544h-191v391h-167v-243h103v-148h-135q-85 0 -126 39q-16 16 -23 40q-10 32 -10 74v6v232h-166v-243h103v-148h-135q-85 0 -126 39q-16 16 -23 40q-10 32 -10 74v6v232h-95v153h95v165h191v-165h166v165h191v-165z" />
    <glyph glyph-name=".notdef" horiz-adv-x="644" 
d="M644 0h-644v729h644v-729zM63 666v-604h518v604h-518zM518 125h-392v478h392v-478zM189 540v-351h266v351h-266zM252 252v225h140v-225h-140z" />
    <glyph glyph-name=".null" 
 />
    <glyph glyph-name="nonmarkingreturn" horiz-adv-x="333" 
 />
    <glyph glyph-name="CR.001" unicode="&#xd;" horiz-adv-x="159" 
 />
    <glyph glyph-name="space" unicode=" " horiz-adv-x="203" 
 />
    <glyph glyph-name="exclam" unicode="!" horiz-adv-x="315" 
d="M208 236h-99l-48 275v218h194v-218zM258 0h-201v178h201v-178z" />
    <glyph glyph-name="quotedbl" unicode="&#x22;" horiz-adv-x="591" 
d="M257 554l-44 -200h-83l-43 200v175h170v-175zM504 554l-43 -200h-83l-44 200v175h170v-175z" />
    <glyph glyph-name="numbersign" unicode="#" horiz-adv-x="700" 
d="M653 546v-80h-115v-177h115v-80h-115v-209h-85v209l-204 -1v-208h-87v208h-116v80h116v177h-116v80h116v205h87v-205l204 1v204h85v-204h115zM249 288l204 1v177l-204 -1v-177z" />
    <glyph glyph-name="dollar" unicode="$" horiz-adv-x="573" 
d="M551 262q0 -86 -56.5 -142.5t-153.5 -68.5v-59h-115v61q-93 15 -146.5 71t-53.5 139h192q0 -62 69 -62q58 0 58 34q0 24 -16 31q-9 5 -43 13l-76 18q-177 41 -177 197q0 80 52.5 135t140.5 69v62h115v-62q83 -13 131 -64.5t48 -125.5h-192q1 24 -12 35.5t-37 11.5
q-43 0 -43 -32q0 -25 24 -37q11 -5 36 -11l70 -14q94 -20 139.5 -71.5t45.5 -127.5z" />
    <glyph glyph-name="percent" unicode="%" horiz-adv-x="899" 
d="M47 556q0 79 51 130q51 52 132 52q83 0 134 -52q51 -51 51 -132q0 -79 -52 -131t-133 -52q-79 0 -131 52t-52 133zM258 0h-80l464 729h81zM163 557q0 -35 18.5 -57.5t48.5 -22.5q31 0 50 22.5t19 57.5q0 33 -19 54t-50 21q-29 0 -48 -21t-19 -54zM482 175q0 79 51 131
t133 52t132 -53q51 -53 51 -132t-52 -131q-51 -52 -131 -52t-132 52t-52 133zM597 176q0 -35 19 -57.5t50 -22.5t50 22.5t19 57.5q0 34 -19.5 55t-49.5 21t-49.5 -21t-19.5 -55z" />
    <glyph glyph-name="ampersand" unicode="&#x26;" horiz-adv-x="714" 
d="M667 0h-362q-126 0 -192 52t-66 144q0 60 28.5 107.5t74.5 65.5v9q-90 48 -90 160q0 91 64 146t171 55q57 0 81 -7v-164q-11 4 -42 4q-70 0 -70 -54v-12q0 -45 62 -45h70v100h189v-100h82v-165h-82v-126h82v-170zM314 170h82v126h-81q-30 0 -47 -13.5t-17 -37.5v-27
q0 -48 63 -48z" />
    <glyph glyph-name="quotesingle" unicode="'" horiz-adv-x="344" 
d="M257 554l-44 -200h-83l-43 200v175h170v-175z" />
    <glyph glyph-name="parenleft" unicode="(" horiz-adv-x="363" 
d="M267 775h104q-104 -66 -170 -191q-65 -125 -65 -263q0 -136 65 -263q67 -126 170 -190h-104q-99 64 -161 189q-61 123 -61 264t61 264q63 127 161 190z" />
    <glyph glyph-name="parenright" unicode=")" horiz-adv-x="346" 
d="M318 321q0 -142 -61 -265q-62 -125 -161 -188h-104q104 65 169 190q66 126 66 263q0 139 -66 263q-64 124 -169 191h104q98 -63 161 -190q61 -123 61 -264z" />
    <glyph glyph-name="asterisk" unicode="*" horiz-adv-x="361" 
d="M67 462l-36 64l108 46l-108 47l36 63l92 -71l-14 118h72l-14 -118l91 71l37 -63l-108 -47l108 -46l-37 -64l-91 73l14 -118h-72l14 118z" />
    <glyph glyph-name="plus" unicode="+" horiz-adv-x="593" 
d="M553 261h-182v-183h-150v183h-181v146h181v188h150v-188h182v-146z" />
    <glyph glyph-name="comma" unicode="," horiz-adv-x="247" 
d="M33 -177v63q55 0 77.5 21t22.5 65v28h-81v184h169v-187q0 -174 -188 -174z" />
    <glyph glyph-name="hyphen" unicode="-" horiz-adv-x="481" 
d="M427 250h-374v100h374v-100z" />
    <glyph glyph-name="period" unicode="." horiz-adv-x="291" 
d="M230 0h-169v187h169v-187z" />
    <glyph glyph-name="slash" unicode="/" horiz-adv-x="341" 
d="M85 0h-94l264 729h95z" />
    <glyph glyph-name="zero" unicode="0" horiz-adv-x="643" 
d="M324 730q137 0 211 -96t74 -274t-74 -274t-211 -96q-139 0 -214.5 96t-75.5 274t75.5 274t214.5 96zM242 470v-220q0 -49 17.5 -71t61.5 -22q42 0 61 20.5t19 72.5v220q0 52 -19 72.5t-61 20.5q-44 0 -61.5 -22t-17.5 -71z" />
    <glyph glyph-name="one" unicode="1" horiz-adv-x="460" 
d="M199 443h-189v148h32q70 0 116.5 35.5t52.5 94.5h183v-721h-195v443z" />
    <glyph glyph-name="two" unicode="2" horiz-adv-x="603" 
d="M416 170h152v-170h-521v129l270 276q43 43 43 73v29q0 26 -18.5 41.5t-48.5 15.5q-35 0 -54.5 -19t-19.5 -52v-23h-187q-6 122 67 191t200 69q123 0 194 -62q70 -61 70 -165q0 -105 -94 -199l-139 -141q42 7 86 7z" />
    <glyph glyph-name="three" unicode="3" horiz-adv-x="618" 
d="M306 -10q-127 0 -204 62q-76 63 -76 164v16h192v-7q0 -33 23.5 -53t60.5 -20q39 0 64 18.5t25 48.5v13q0 29 -17.5 45.5t-47.5 16.5h-98v143h87q28 0 46 16t18 41v13q0 29 -20.5 45t-54.5 16t-56 -19t-22 -50v-7h-191v17q0 99 76 160t200 61q117 0 191 -56
q73 -55 73 -147q0 -51 -23 -92t-61 -60v-7q44 -17 69 -60t25 -100q0 -98 -78 -158q-77 -60 -201 -60z" />
    <glyph glyph-name="four" unicode="4" horiz-adv-x="648" 
d="M542 721v-432h84v-158h-84v-131h-195v131h-317v143l227 447h285zM347 544l-130 -255h130v255z" />
    <glyph glyph-name="five" unicode="5" horiz-adv-x="617" 
d="M26 229h197q2 -35 25.5 -56t60.5 -21q40 0 62.5 21t22.5 56v33q0 33 -23 53.5t-59 20.5q-70 0 -87 -61h-186l21 446h470v-169h-298l-4 -83l8 -3q38 24 111 24q111 0 176 -68t65 -176q0 -116 -75 -186q-74 -70 -204 -70q-124 0 -201 65q-78 65 -82 174z" />
    <glyph glyph-name="six" unicode="6" horiz-adv-x="625" 
d="M31 363q0 178 75 272.5t217 94.5q108 0 177.5 -52.5t81.5 -142.5h-197q-15 34 -68 34q-48 0 -71.5 -34t-19.5 -95h8q39 54 133 54q103 0 166 -67q64 -65 64 -175q0 -120 -75 -190q-76 -71 -199 -71q-141 0 -216.5 96t-75.5 276zM244 269v-42q0 -68 80 -68t80 68v42
q0 33 -21.5 51t-58.5 18q-80 0 -80 -69z" />
    <glyph glyph-name="seven" unicode="7" horiz-adv-x="569" 
d="M161 442h-154v279h548v-142q-97 -127 -170 -281q-73 -153 -94 -298h-209q16 135 83 282q66 146 159 270h-163v-110z" />
    <glyph glyph-name="eight" unicode="8" horiz-adv-x="620" 
d="M309 -10q-134 0 -207 55.5t-73 151.5q0 115 100 160v8q-100 46 -100 160q0 98 75 151.5t208 53.5t206 -55t73 -150q0 -114 -100 -160v-8q100 -46 100 -161q0 -98 -75 -152t-207 -54zM391 497v12q0 55 -81 55t-81 -55v-12q0 -57 81 -57t81 57zM391 215v12q0 56 -81 56
t-81 -56v-12q0 -58 81 -58t81 58z" />
    <glyph glyph-name="nine" unicode="9" horiz-adv-x="618" 
d="M587 358q0 -178 -75 -272.5t-217 -94.5q-108 0 -177.5 52.5t-81.5 142.5h197q15 -34 68 -34q48 0 71.5 34t19.5 95h-8q-39 -54 -133 -54q-103 0 -167 66q-63 67 -63 176q0 119 75 190q76 71 199 71q141 0 216.5 -96t75.5 -276zM374 452v42q0 68 -80 68t-80 -68v-42
q0 -33 21.5 -51t58.5 -18q80 0 80 69z" />
    <glyph glyph-name="colon" unicode=":" horiz-adv-x="287" 
d="M226 371h-169v173h169v-173zM226 0h-169v173h169v-173z" />
    <glyph glyph-name="semicolon" unicode=";" horiz-adv-x="268" 
d="M220 371h-169v173h169v-173zM33 -177v59q55 0 77 19t22 60v39h-81v173h169v-187q0 -163 -187 -163z" />
    <glyph glyph-name="less" unicode="&#x3c;" horiz-adv-x="507" 
d="M448 181v-178l-402 213v140l402 218v-172l-125 -59l-127 -53v-10l134 -48z" />
    <glyph glyph-name="equal" unicode="=" horiz-adv-x="535" 
d="M468 332h-402v151h402v-151zM468 111h-402v150h402v-150z" />
    <glyph glyph-name="greater" unicode="&#x3e;" horiz-adv-x="507" 
d="M461 216l-402 -213v178l117 51l136 48v10l-128 53l-125 59v172l402 -218v-140z" />
    <glyph glyph-name="question" unicode="?" horiz-adv-x="601" 
d="M383 221h-181v198q10 -9 67 -9q54 0 84.5 23.5t30.5 63.5q0 37 -24 58t-65 21q-36 0 -60 -16t-29 -44h-187q9 106 83.5 164t196.5 58q131 0 203.5 -64.5t72.5 -176.5q0 -80 -53 -142q-52 -61 -139 -81v-53zM382 0h-180v171h180v-171z" />
    <glyph glyph-name="at" unicode="@" horiz-adv-x="995" 
d="M885 -73h-775v753h775v-561h-214q-79 0 -98 57l-2 6h-5q-32 -51 -111 -51q-71 0 -109.5 48t-38.5 133q0 86 40 133.5t111 47.5q79 0 112 -46h3v43h97v-269h93v344h-521v-523h643v-115zM487 236q58 0 58 63v27q0 62 -57 62q-61 0 -61 -65v-22q0 -30 15.5 -47.5t44.5 -17.5
z" />
    <glyph glyph-name="A" unicode="A" horiz-adv-x="737" 
d="M741 0h-223l-31 100h-250l-32 -100h-209l247 729h237zM304 312l-18 -58h154l-18 58l-53 202h-7z" />
    <glyph glyph-name="B" unicode="B" horiz-adv-x="721" 
d="M458 0h-395v729h394q97 0 157 -51q61 -51 61 -135q0 -58 -27 -99.5t-76 -60.5v-9q123 -31 123 -171q0 -91 -65 -147t-172 -56zM260 583v-139h145q29 0 45 14t16 37v37q0 51 -64 51h-142zM260 301v-155h145q77 0 77 64v27q0 34 -17.5 49t-55.5 15h-149z" />
    <glyph glyph-name="C" unicode="C" horiz-adv-x="756" 
d="M382 -10q-166 0 -261 101q-93 101 -93 271q0 175 97 275q98 101 265 101q146 0 240 -75q93 -74 101 -202h-212q-8 46 -44.5 73.5t-92.5 27.5q-64 0 -102 -36.5t-38 -101.5v-123q0 -63 37 -99t103 -36q54 0 90.5 27.5t46.5 75.5h212q-10 -126 -107 -203q-95 -76 -242 -76z
" />
    <glyph glyph-name="D" unicode="D" horiz-adv-x="755" 
d="M385 0h-322v729h322q170 0 256 -93t86 -272q0 -182 -87 -273t-255 -91zM266 557v-385h113q78 0 107 29.5t29 98.5v129q0 73 -31 100.5t-105 27.5h-113z" />
    <glyph glyph-name="E" unicode="E" horiz-adv-x="639" 
d="M597 0h-534v729h534v-172h-331v-98h278v-161h-278v-126h331v-172z" />
    <glyph glyph-name="F" unicode="F" horiz-adv-x="622" 
d="M266 0h-203v729h539v-172h-336v-153h296v-163h-296v-241z" />
    <glyph glyph-name="G" unicode="G" horiz-adv-x="789" 
d="M28 355q0 188 97 285q98 98 260 98q138 0 229 -67q93 -67 106 -175h-211q-27 66 -121 66q-70 0 -108 -38.5t-38 -106.5v-114q0 -66 37.5 -105.5t102.5 -39.5q53 0 91 26t45 68h-170v157h389v-409h-165l-8 80h-7q-61 -90 -212 -90q-149 0 -233 96t-84 269z" />
    <glyph glyph-name="H" unicode="H" horiz-adv-x="810" 
d="M266 0h-203v729h203v-281h278v281h203v-729h-203v291h-278v-291z" />
    <glyph glyph-name="I" unicode="I" horiz-adv-x="329" 
d="M266 729v-729h-203v729h203z" />
    <glyph glyph-name="J" unicode="J" horiz-adv-x="433" 
d="M172 174v555h203v-570q0 -45 -11 -77q-7 -25 -23 -42q-40 -40 -125 -40h-201v174h157z" />
    <glyph glyph-name="K" unicode="K" horiz-adv-x="755" 
d="M752 0h-246l-165 249l-75 -90v-159h-203v729h203v-284l226 284h250l-263 -315z" />
    <glyph glyph-name="L" unicode="L" horiz-adv-x="573" 
d="M536 0h-473v729h203v-550h270v-179z" />
    <glyph glyph-name="M" unicode="M" horiz-adv-x="921" 
d="M261 0h-198v729h248l147 -337h8l144 337h248v-729h-196v255l10 193h-7l-203 -438l-203 438h-9l11 -195v-253z" />
    <glyph glyph-name="N" unicode="N" horiz-adv-x="793" 
d="M266 0h-203v729h230l239 -437h8l-11 202v235h201v-729h-230l-237 431h-8l11 -195v-236z" />
    <glyph glyph-name="O" unicode="O" horiz-adv-x="782" 
d="M28 362q0 170 100 273t263 103t263 -103t100 -273q0 -168 -99 -270q-97 -102 -264 -102q-166 0 -265 102q-98 103 -98 270zM242 416v-104q0 -68 40 -107t109 -39t109 39.5t40 106.5v104q0 68 -40 107t-109 39t-109 -39.5t-40 -106.5z" />
    <glyph glyph-name="P" unicode="P" horiz-adv-x="695" 
d="M266 0h-203v729h358q123 0 189.5 -67t66.5 -191q0 -116 -68 -184t-188 -68h-155v-219zM266 550v-166h123q36 0 54.5 17t18.5 44v44q0 61 -76 61h-120z" />
    <glyph glyph-name="Q" unicode="Q" horiz-adv-x="782" 
d="M754 362q0 -142 -72 -239q-72 -96 -198 -123v-60h105v-139h-138q-95 0 -133 49q-11 14 -20 46q-3 17 -4 24q-1 21 -1 40v41q-125 29 -195 124t-70 237q0 170 100 273t263 103t263 -103t100 -273zM242 416v-104q0 -68 40 -107t109 -39t109 39.5t40 106.5v104q0 68 -40 107
t-109 39t-109 -39.5t-40 -106.5z" />
    <glyph glyph-name="R" unicode="R" horiz-adv-x="727" 
d="M266 0h-203v729h392q108 0 167.5 -57t59.5 -155q0 -65 -31.5 -111.5t-86.5 -65.5v-8h21q97 0 97 -107v-225h-208v243h-208v-243zM266 557v-155h129q71 0 71 60v35q0 60 -71 60h-129z" />
    <glyph glyph-name="S" unicode="S" horiz-adv-x="675" 
d="M19 231h210q2 -37 32.5 -59t81.5 -22q42 0 66 16t24 44q0 31 -28 43q-14 9 -49 14l-103 21q-6 1 -13.5 2.5t-12 3t-8.5 1.5l-39 11q-28 9 -44 18q-52 30 -74 62q-31 52 -31 113q0 109 81 174q83 65 216 65q131 0 213 -61q83 -60 84 -159h-211q-2 29 -27.5 46t-64.5 17
q-76 0 -76 -51q0 -20 23 -39q4 -2 16 -6l15 -5l31 -5l110 -21q208 -40 208 -218q0 -117 -85 -181q-86 -65 -228 -65q-143 0 -230 66t-87 175z" />
    <glyph glyph-name="T" unicode="T" horiz-adv-x="585" 
d="M7 729h571v-174h-187v-555h-203v555h-181v174z" />
    <glyph glyph-name="U" unicode="U" horiz-adv-x="769" 
d="M57 284v445h202v-433q0 -60 33 -93.5t93 -33.5t92.5 32.5t32.5 94.5v433h202v-445q0 -138 -90 -216q-88 -78 -239 -78q-161 0 -243.5 77t-82.5 217z" />
    <glyph glyph-name="V" unicode="V" horiz-adv-x="760" 
d="M507 0h-253l-253 729h227l84 -271l64 -253h8l66 253l82 271h227z" />
    <glyph glyph-name="W" unicode="W" horiz-adv-x="1023" 
d="M153 0l-148 729h224l51 -329l24 -179h9l77 508h246l81 -510h8l21 178l48 332h224l-148 -729h-276l-77 450h-8l-80 -450h-276z" />
    <glyph glyph-name="X" unicode="X" horiz-adv-x="747" 
d="M266 0h-250l196 362l-213 368h254l64 -130l54 -121h8l48 118l61 133h250l-200 -367l210 -363h-255l-49 99l-64 138h-7l-61 -137z" />
    <glyph glyph-name="Y" unicode="Y" horiz-adv-x="742" 
d="M269 269l-270 460h239l57 -129l71 -153h8l71 149l60 133h238l-271 -460v-269h-203v269z" />
    <glyph glyph-name="Z" unicode="Z" horiz-adv-x="592" 
d="M20 729h549v-165l-299 -392h293v-172h-543v167l296 389h-296v173z" />
    <glyph glyph-name="bracketleft" unicode="[" horiz-adv-x="309" 
d="M283 -242h-200v1039h200v-78h-116v-887h116v-74z" />
    <glyph glyph-name="backslash" unicode="\" horiz-adv-x="341" 
d="M86 729l264 -729h-94l-265 729h95z" />
    <glyph glyph-name="bracketright" unicode="]" horiz-adv-x="309" 
d="M226 -242h-201v74h117v887h-117v78h201v-1039z" />
    <glyph glyph-name="asciicircum" unicode="^" horiz-adv-x="476" 
d="M454 468h-144l-71 118l-73 -118h-144l157 261h119z" />
    <glyph glyph-name="underscore" unicode="_" horiz-adv-x="358" 
d="M360 -92h-362v92h362v-92z" />
    <glyph glyph-name="grave" unicode="`" horiz-adv-x="408" 
d="M374 798l-57 -87l-249 140l78 124z" />
    <glyph glyph-name="a" unicode="a" horiz-adv-x="616" 
d="M14 158q0 80 53.5 125t144.5 45h134v27q0 54 -58 54q-61 0 -64 -50h-188q9 95 77.5 145t183.5 50q118 0 179 -53t61 -150v-221h58v-130h-125q-52 0 -77 15t-34 50l-3 13h-8q-14 -40 -58 -64t-101 -24q-79 0 -127 46t-48 122zM206 181v-12q0 -38 57 -38q39 0 61 19.5
t22 55.5v14h-91q-49 0 -49 -39z" />
    <glyph glyph-name="b" unicode="b" horiz-adv-x="658" 
d="M212 0h-165v750h191v-303h10q19 50 63 78.5t107 28.5q102 0 161 -74.5t59 -207.5q0 -131 -56.5 -206.5t-156.5 -75.5q-61 0 -107.5 28t-69.5 80h-10zM238 288v-33q0 -53 28 -82.5t80 -29.5q98 0 98 92v73q0 93 -99 93q-51 0 -79 -30t-28 -83z" />
    <glyph glyph-name="c" unicode="c" horiz-adv-x="575" 
d="M370 208h188q-8 -103 -79 -160.5t-185 -57.5q-128 0 -201 74t-73 206q0 134 74 209t203 75q113 0 183 -60q70 -58 79 -158h-188q-3 31 -24 47.5t-56 16.5q-77 0 -77 -81v-97q0 -78 77 -78q72 0 79 64z" />
    <glyph glyph-name="d" unicode="d" horiz-adv-x="659" 
d="M236 -10q-100 0 -158 75t-58 205q0 134 58 209t158 75q132 0 175 -108h10v304h191v-750h-165l-26 98h-10q-23 -51 -70 -79.5t-105 -28.5zM313 143q52 0 80 29.5t28 82.5v33q0 53 -28 83t-79 30q-99 0 -99 -93v-73q0 -92 98 -92z" />
    <glyph glyph-name="e" unicode="e" horiz-adv-x="583" 
d="M20 271q0 133 75 208t199 75q118 0 192 -68q73 -67 73 -187q0 -34 -5 -72h-339v-28q0 -30 22.5 -48t56.5 -18q64 0 81 41h188q-15 -85 -87 -134q-73 -50 -179 -50q-131 0 -204 76t-73 205zM215 352v-4h153v4q0 27 -21 43.5t-56 16.5q-34 0 -55 -16.5t-21 -43.5z" />
    <glyph glyph-name="f" unicode="f" horiz-adv-x="436" 
d="M431 602h-135v-58h101v-153h-101v-391h-191v391h-99v153h99v61q0 145 155 145h171v-148z" />
    <glyph glyph-name="g" unicode="g" horiz-adv-x="572" 
d="M264 146h106q94 0 145 -43.5t51 -120.5q0 -179 -304 -179q-252 0 -252 125q0 81 81 103v9q-28 10 -44.5 33.5t-16.5 52.5q0 75 83 104v9q-85 45 -85 139q0 79 62 127q62 49 165 49q47 0 85 -9v20q0 55 29 81t97 26h79v-148h-99v-25q61 -48 61 -127t-63 -127
q-62 -47 -166 -47q-26 0 -58 5q-17 -11 -17 -27q0 -30 61 -30zM214 387v-20q0 -19 14.5 -30t39.5 -11t40 11t15 30v20q0 18 -14.5 29t-40.5 11q-25 0 -39.5 -10.5t-14.5 -29.5zM277 -65q99 0 99 40q0 25 -39 25h-104q-45 0 -45 -29q0 -20 21 -28t68 -8z" />
    <glyph glyph-name="h" unicode="h" horiz-adv-x="652" 
d="M238 0h-191v750h191v-303h10q50 107 176 107q94 0 140 -60.5t46 -171.5v-322h-192v302q0 98 -84 98q-47 0 -71.5 -29t-24.5 -80v-291z" />
    <glyph glyph-name="i" unicode="i" horiz-adv-x="285" 
d="M238 581h-191v169h191v-169zM238 0h-191v544h191v-544z" />
    <glyph glyph-name="j" unicode="j" horiz-adv-x="289" 
d="M51 581v169h191v-169h-191zM51 -19v563h191l-1 -450v-102q0 -45 -11 -77q-21 -77 -147 -82h-136v148h104z" />
    <glyph glyph-name="k" unicode="k" horiz-adv-x="629" 
d="M639 0h-217l-125 196l-56 -59v-137h-194v750h194v-374l153 168h234l-201 -211z" />
    <glyph glyph-name="l" unicode="l" horiz-adv-x="285" 
d="M238 0h-191v750h191v-750z" />
    <glyph glyph-name="m" unicode="m" horiz-adv-x="947" 
d="M238 0h-191v544h167l23 -99h11q24 58 58 83.5t90 25.5q114 0 155 -107h12q50 107 165 107q88 0 132.5 -61.5t44.5 -171.5v-321h-191v301q0 99 -65 99q-37 0 -57.5 -24t-20.5 -64v-312h-192v306q0 94 -66 94q-36 0 -55.5 -22t-19.5 -61v-317z" />
    <glyph glyph-name="n" unicode="n" horiz-adv-x="651" 
d="M238 0h-191v544h168l23 -99h10q49 109 176 109q93 0 139 -61t46 -172v-321h-191v301q0 99 -84 99q-46 0 -71 -30t-25 -82v-288z" />
    <glyph glyph-name="o" unicode="o" horiz-adv-x="598" 
d="M20 273q0 127 74 204q75 77 205 77q125 0 202 -75q77 -74 77 -206q0 -129 -75 -206q-74 -77 -204 -77q-125 0 -202 75t-77 208zM214 315v-86q0 -85 85 -85t85 85v86q0 85 -85 85t-85 -85z" />
    <glyph glyph-name="p" unicode="p" horiz-adv-x="659" 
d="M238 -167h-191v711h165l26 -98h10q23 51 70 79.5t105 28.5q100 0 158 -75t58 -205q0 -134 -58 -209t-158 -75q-131 0 -175 108h-10v-265zM345 143q99 0 99 93v73q0 92 -98 92q-52 0 -80 -29.5t-28 -82.5v-33q0 -53 28 -83t79 -30z" />
    <glyph glyph-name="q" unicode="q" horiz-adv-x="658" 
d="M446 544h165v-711h-191v264h-10q-19 -50 -63 -78.5t-107 -28.5q-102 0 -161 74.5t-59 207.5q0 131 56.5 206.5t156.5 75.5q61 0 107.5 -28t69.5 -80h10zM420 256v33q0 53 -28 82.5t-80 29.5q-98 0 -98 -92v-73q0 -93 99 -93q51 0 79 30t28 83z" />
    <glyph glyph-name="r" unicode="r" horiz-adv-x="392" 
d="M205 544h183v-153h-150v-391h-191v385q0 51 13 85q32 74 145 74z" />
    <glyph glyph-name="s" unicode="s" horiz-adv-x="546" 
d="M22 174h188q1 -52 66 -52q54 0 54 35q0 22 -16 27q-15 6 -31 9l-86 14q-168 29 -168 164q0 86 64 134.5t174 48.5q109 0 173 -47t67 -127h-188q0 42 -55 42q-44 0 -44 -34q0 -13 10 -22q13 -10 50 -15l86 -13q158 -24 158 -161q0 -88 -67 -137.5t-183 -49.5
q-118 0 -185 50.5t-67 133.5z" />
    <glyph glyph-name="t" unicode="t" horiz-adv-x="418" 
d="M393 391h-104v-243h104v-148h-149q-76 0 -110.5 36.5t-34.5 108.5v246h-95v153h95v165h190v-165h104v-153z" />
    <glyph glyph-name="u" unicode="u" horiz-adv-x="646" 
d="M408 544h191v-544h-169l-23 99h-11q-49 -109 -171 -109q-90 0 -136.5 57.5t-46.5 160.5v336h192v-305q0 -95 81 -95q43 0 68 30.5t25 81.5v288z" />
    <glyph glyph-name="v" unicode="v" horiz-adv-x="573" 
d="M167 0l-177 544h205l43 -191l45 -196h6l45 194l43 193h206l-177 -544h-239z" />
    <glyph glyph-name="w" unicode="w" horiz-adv-x="823" 
d="M598 352l38 192h184l-132 -544h-230l-33 203l-14 97h-6l-14 -96l-33 -204h-225l-130 544h183l33 -190l29 -163h8l53 353h206l50 -356h5z" />
    <glyph glyph-name="x" unicode="x" horiz-adv-x="572" 
d="M198 0h-198l153 269l-159 275h200l88 -168h8l84 168h198l-153 -269l159 -275h-200l-88 166h-8z" />
    <glyph glyph-name="y" unicode="y" horiz-adv-x="600" 
d="M203 78l-218 466h199l59 -157l50 -150h6l53 151l60 156h198l-217 -466v-86q0 -59 -22 -101q-27 -58 -135 -58h-145v148h112v97z" />
    <glyph glyph-name="z" unicode="z" horiz-adv-x="505" 
d="M469 411l-202 -258h207v-153h-440v136l202 255h-205v153h438v-133z" />
    <glyph glyph-name="braceleft" unicode="{" horiz-adv-x="349" 
d="M58 240v79q35 0 54 20t19 56v307q0 43 25 69t70 26h98v-78h-106v-317q0 -103 -80 -118v-3q80 -23 80 -120v-329h106v-74h-98q-46 0 -70.5 25t-24.5 70v313q0 74 -73 74z" />
    <glyph glyph-name="bar" unicode="|" horiz-adv-x="297" 
d="M224 -59h-156v812h156v-812z" />
    <glyph glyph-name="braceright" unicode="}" horiz-adv-x="349" 
d="M290 319v-79q-34 0 -54 -18.5t-20 -55.5v-313q0 -45 -24 -70t-69 -25h-98v74h104v329q0 98 82 120v3q-82 16 -82 118v317h-104v78h98q44 0 68.5 -25.5t24.5 -69.5v-307q0 -35 19.5 -55.5t54.5 -20.5z" />
    <glyph glyph-name="asciitilde" unicode="~" horiz-adv-x="463" 
d="M104 252h-82q-6 92 28.5 138t94.5 46q39 0 91 -32q52 -31 81 -31q56 0 56 67h81q6 -94 -32 -141q-38 -45 -93 -45q-34 0 -71 16t-66 32t-44 16q-23 0 -35 -18.5t-9 -47.5z" />
    <glyph glyph-name="uni00A0" unicode="&#xa0;" horiz-adv-x="203" 
 />
    <glyph glyph-name="exclamdown" unicode="&#xa1;" horiz-adv-x="315" 
d="M57 550v179h201v-179h-201zM61 218l48 275h99l47 -275v-218h-194v218z" />
    <glyph glyph-name="cent" unicode="&#xa2;" horiz-adv-x="575" 
d="M295 258q59 0 60 51h187q-5 -81 -55.5 -133t-134.5 -65v-81h-115v82q-92 16 -143 82t-51 169q0 104 51.5 170t142.5 83v83h115v-81q86 -13 136.5 -65t56.5 -134h-188q-2 53 -62 53q-62 0 -62 -65v-85q0 -33 14.5 -48.5t47.5 -15.5z" />
    <glyph glyph-name="sterling" unicode="&#xa3;" horiz-adv-x="658" 
d="M452 162v77h162v-239h-605v162h65v130h-65v151h65v57q0 109 71 174q70 64 189 64q106 0 176 -59t74 -154h-197q-8 44 -56 44q-60 0 -60 -69v-57h218v-151h-218v-130h181z" />
    <glyph glyph-name="currency" unicode="&#xa4;" horiz-adv-x="583" 
d="M98 44l-85 88l81 75q-47 63 -47 132t47 133l-82 75l87 89l75 -87q127 68 241 4l72 83l85 -90l-74 -70q91 -130 -2 -273l76 -73l-83 -86l-73 85q-123 -68 -241 4zM213 339q0 -36 23 -60.5t57 -25.5q34 0 58 24.5t24 62.5t-24 62.5t-58 24.5t-57.5 -26t-22.5 -62z" />
    <glyph glyph-name="yen" unicode="&#xa5;" horiz-adv-x="728" 
d="M492 729h237l-178 -314h54v-152h-140v-39h140v-151h-140v-73h-201v73h-140v151h140v39h-140v152h54l-179 314h239l85 -193l35 -101h9l38 102z" />
    <glyph glyph-name="brokenbar" unicode="&#xa6;" horiz-adv-x="297" 
d="M224 369h-156v384h156v-384zM224 -67h-156v370h156v-370z" />
    <glyph glyph-name="section" unicode="&#xa7;" horiz-adv-x="589" 
d="M32 318q0 56 34.5 91t92.5 43v8q-88 30 -88 115q0 73 64.5 118.5t174.5 45.5q98 0 160 -44q62 -43 63 -117h-196q-1 22 -28 22q-23 0 -23 -17q0 -3 1 -5.5t2 -4t3 -3.5t4 -3t5.5 -2.5t6 -2t7 -2l7.5 -2.5l81 -26q61 -20 100 -47q53 -34 53 -107q0 -91 -89 -129v-10
q35 -10 57 -45t22 -80q0 -78 -69 -124q-68 -47 -180 -47q-105 0 -169 41.5t-70 114.5h205q5 -20 27 -20q38 0 38 27q0 11 -9 17.5t-31 12.5l-135 43q-121 37 -121 139zM238 364q0 -24 38 -38l44 -16q32 -11 40 -13q15 34 -2 52q-10 11 -42 23l-22 8l-20 7q-19 6 -23 9
q-13 -12 -13 -32z" />
    <glyph glyph-name="dieresis" unicode="&#xa8;" horiz-adv-x="430" 
d="M172 729h-142v163h142v-163zM393 729h-142v163h142v-163z" />
    <glyph glyph-name="copyright" unicode="&#xa9;" horiz-adv-x="958" 
d="M481 -85q-110 0 -207 52q-96 52 -158 151q-61 98 -61 222q0 123 61 220q60 98 156 150.5t209 52.5q169 0 296 -119q126 -118 126 -302q0 -120 -59 -220q-59 -98 -155 -152.5t-208 -54.5zM481 -43q157 0 267 107q110 108 110 278q0 166 -110 273t-267 107t-269 -107
q-111 -107 -111 -275q0 -167 111 -275t269 -108zM488 103q-105 0 -174 69q-68 70 -68 168q0 99 68 167q70 68 173 68q91 0 158 -53q67 -52 67 -132h-116q-4 37 -34 59t-74 22q-58 0 -91.5 -37.5t-33.5 -95.5t32.5 -94.5t90.5 -36.5q45 0 75.5 22t34.5 58h116
q-5 -83 -69 -134q-65 -50 -155 -50z" />
    <glyph glyph-name="ordfeminine" unicode="&#xaa;" horiz-adv-x="468" 
d="M398 581v-135h37v-106h-59q-90 0 -95 74h-5q-23 -77 -117 -77q-54 0 -87 31.5t-33 82.5q0 57 40 91t109 34h72v11q0 16 -12 25t-31 9q-35 0 -40 -27h-134q3 60 52 97.5t132 37.5q82 0 126.5 -40t44.5 -108zM260 481v9h-46q-39 0 -39 -27q0 -24 36 -24q21 0 35 11.5
t14 30.5z" />
    <glyph glyph-name="guillemotleft" unicode="&#xab;" horiz-adv-x="579" 
d="M144 54l-119 220l119 218h161l-107 -218l107 -220h-161zM398 54l-118 220l118 218h163l-109 -218l109 -220h-163z" />
    <glyph glyph-name="logicalnot" unicode="&#xac;" horiz-adv-x="557" 
d="M515 139h-144v142h-331v147h475v-289z" />
    <glyph glyph-name="registered" unicode="&#xae;" horiz-adv-x="613" 
d="M306 738q115 0 192 -74t77 -191t-78 -192q-77 -74 -191 -74t-191 74q-77 75 -77 192t77 191t191 74zM305 249q96 0 161 62q66 63 66 163t-65 163t-161 63t-161 -64q-65 -63 -65 -163q0 -99 65 -162q65 -62 160 -62zM274 363h-65v234h126q35 0 54 -18.5t19 -49.5
q0 -43 -38 -57v-3h7q33 0 33 -34v-72h-66v77h-70v-77zM274 542v-51h42q22 0 22 20v12q0 19 -23 19h-41z" />
    <glyph glyph-name="overscore" unicode="&#xaf;" horiz-adv-x="358" 
d="M373 746h-387v143h387v-143z" />
    <glyph glyph-name="degree" unicode="&#xb0;" horiz-adv-x="432" 
d="M384 568q0 -72 -48 -118q-49 -47 -121 -47q-73 0 -120 47t-47 118q0 73 46 119q47 47 121 47t121 -46q48 -46 48 -120zM259 568q2 29 -21 41.5t-45.5 0t-19.5 -41.5q0 -19 12 -32.5t30 -13.5q19 0 31.5 13.5t12.5 32.5z" />
    <glyph glyph-name="plusminus" unicode="&#xb1;" horiz-adv-x="591" 
d="M551 321h-183v-144h-147v144h-181v143h181v142h147v-142h183v-143zM551 0h-511v143h511v-143z" />
    <glyph glyph-name="uni00B2" unicode="&#xb2;" horiz-adv-x="460" 
d="M214 420l59 3h161v-123h-398v19q0 119 88 198q19 17 54 45t55 44.5t36.5 41t16.5 46.5q0 25 -16 40t-44 15q-30 0 -46.5 -19.5t-13.5 -54.5h-142q2 90 58 142t149 52q91 0 146 -48q56 -48 56 -128q0 -48 -24.5 -92t-59.5 -71l-74 -56q-41 -30 -61 -54z" />
    <glyph glyph-name="uni00B3" unicode="&#xb3;" horiz-adv-x="477" 
d="M238 292q-96 0 -152 49q-57 50 -56 129h142q-1 -24 18.5 -40.5t51.5 -16.5t49.5 17t17.5 45q0 56 -74 56h-65v111h51q74 0 74 56q0 23 -16.5 37t-43.5 14q-31 0 -49.5 -15.5t-16.5 -40.5h-142q-5 80 54 128t158 48q90 0 145 -42t55 -111q0 -83 -74 -118v-5q41 -16 64 -51
t23 -82q0 -75 -59 -122q-58 -46 -155 -46z" />
    <glyph glyph-name="acute" unicode="&#xb4;" horiz-adv-x="408" 
d="M374 851l-249 -140l-57 87l228 177z" />
    <glyph glyph-name="paragraph" unicode="&#xb6;" horiz-adv-x="684" 
d="M262 729h376v-114h-63v-619q0 -86 -47 -129.5t-134 -43.5h-278v104h132v387q-102 0 -163 56q-59 57 -59 145q0 100 64 157t172 57zM370 -73h14q67 0 67 60v628h-81v-688z" />
    <glyph glyph-name="middot" unicode="&#xb7;" horiz-adv-x="371" 
d="M61 293q0 54 35.5 89t88.5 35t88.5 -35t35.5 -89q0 -53 -35 -87t-89 -34t-89 34t-35 87z" />
    <glyph glyph-name="cedilla" unicode="&#xb8;" horiz-adv-x="500" 
d="M311 16l-29 -56q33 1 68 -20q34 -22 34 -69q0 -40 -24.5 -68.5t-60 -39t-77 -7.5t-75.5 21v85q47 -27 83 -20q37 7 37 43q0 26 -28 33t-52 -8v43l51 84h73v-21z" />
    <glyph glyph-name="uni00B9" unicode="&#xb9;" horiz-adv-x="346" 
d="M147 654h-147v108h25q54 0 90 27.5t40 72.5h133v-562h-141v354z" />
    <glyph glyph-name="ordmasculine" unicode="&#xba;" horiz-adv-x="484" 
d="M438 532q0 -86 -54 -140t-142 -54t-142 54t-54 141t54 141q54 55 142 55t142 -55q54 -56 54 -142zM185 533q0 -39 16 -62.5t41 -23.5q27 0 42 24.5t15 62.5q0 39 -15.5 62t-42.5 23t-41.5 -23.5t-14.5 -62.5z" />
    <glyph glyph-name="guillemotright" unicode="&#xbb;" horiz-adv-x="579" 
d="M180 492l118 -218l-118 -220h-162l108 220l-108 218h162zM435 492l118 -218l-118 -220h-163l109 220l-109 218h163z" />
    <glyph glyph-name="onequarter" unicode="&#xbc;" horiz-adv-x="923" 
d="M174 -46l415 814h143l-416 -814h-142zM262 729v-473h-116v296h-125v92h45q42 0 64.5 21.5t22.5 60.5v3h109zM888 480v-298h45v-101h-45v-81h-114v81h-206v93l149 306h171zM774 346l-78 -164h78v164z" />
    <glyph glyph-name="onehalf" unicode="&#xbd;" horiz-adv-x="971" 
d="M174 -46l415 814h143l-416 -814h-142zM262 729v-473h-116v296h-125v92h45q42 0 64.5 21.5t22.5 60.5v3h109zM759 97l51 3h124v-100h-320v16q0 46 15.5 84.5t38.5 63t50.5 48.5t50.5 41t38.5 39t15.5 45q0 24 -14 37.5t-37 13.5q-26 0 -39.5 -18t-11.5 -48l-116 6
q2 71 50 114.5t125 43.5q75 0 117.5 -40.5t42.5 -109.5q0 -41 -20.5 -79t-50.5 -62l-61 -50q-33 -27 -49 -48z" />
    <glyph glyph-name="threequarters" unicode="&#xbe;" horiz-adv-x="978" 
d="M230 -46l415 814h143l-416 -814h-142zM348 389q0 -63 -46.5 -102t-119.5 -39q-75 0 -121.5 41t-45.5 108h115q1 -21 15 -35t35 -14q31 -2 44 23.5t-0.5 50.5t-46.5 22h-45v103h30q27 0 42 13t15 35q0 40 -44 40q-22 0 -35.5 -13.5t-12.5 -35.5h-116q-1 68 44 108.5
t124 40.5q72 0 115 -35.5t43 -92.5q0 -71 -63 -100v-5q74 -30 74 -113zM944 480v-298h45v-101h-45v-81h-114v81h-206v93l149 306h171zM830 346l-78 -164h78v164z" />
    <glyph glyph-name="questiondown" unicode="&#xbf;" horiz-adv-x="601" 
d="M219 729h180v-171h-180v171zM218 508h181v-198q-11 9 -67 9q-54 0 -84.5 -23.5t-30.5 -63.5q0 -37 24 -58t65 -21q36 0 60 16t29 44h187q-9 -106 -83.5 -164t-196.5 -58q-131 0 -203.5 64.5t-72.5 176.5q0 79 53 141t139 82v53z" />
    <glyph glyph-name="Agrave" unicode="&#xc0;" horiz-adv-x="737" 
d="M190 1035l228 -177l-57 -87l-249 140zM741 0h-223l-31 100h-250l-32 -100h-209l247 729h237zM304 312l-18 -58h154l-18 58l-53 202h-7z" />
    <glyph glyph-name="Aacute" unicode="&#xc1;" horiz-adv-x="737" 
d="M532 1035l78 -124l-249 -140l-57 87zM741 0h-223l-31 100h-250l-32 -100h-209l247 729h237zM304 312l-18 -58h154l-18 58l-53 202h-7z" />
    <glyph glyph-name="Acircumflex" unicode="&#xc2;" horiz-adv-x="737" 
d="M476 771l-115 124l-115 -124l-89 88l152 145h104l152 -145zM741 0h-223l-31 100h-250l-32 -100h-209l247 729h237zM304 312l-18 -58h154l-18 58l-53 202h-7z" />
    <glyph glyph-name="Atilde" unicode="&#xc3;" horiz-adv-x="737" 
d="M301 802q-31 0 -65 -39l-74 50q23 60 59.5 89t78.5 28q33 -2 66 -20q35 -18 59 -18q38 0 58 34l3 6l76 -47q-20 -61 -57 -92.5t-81 -30.5q-30 2 -64 20q-37 20 -59 20zM741 0h-223l-31 100h-250l-32 -100h-209l247 729h237zM304 312l-18 -58h154l-18 58l-53 202h-7z" />
    <glyph glyph-name="Adieresis" unicode="&#xc4;" horiz-adv-x="737" 
d="M179 935h142v-163h-142v163zM400 935h142v-163h-142v163zM741 0h-223l-31 100h-250l-32 -100h-209l247 729h237zM304 312l-18 -58h154l-18 58l-53 202h-7z" />
    <glyph glyph-name="Aring" unicode="&#xc5;" horiz-adv-x="737" 
d="M741 0h-223l-31 100h-250l-32 -100h-209l246 725q-19 29 -19 70q0 59 38.5 95t99.5 36t99.5 -36t38.5 -95q0 -41 -18 -69zM322 795q-3 -26 18 -37t42 0t19 37q2 26 -19 37.5t-42 0.5t-18 -38zM304 312l-18 -58h154l-18 58l-53 202h-7z" />
    <glyph glyph-name="AE" unicode="&#xc6;" horiz-adv-x="1007" 
d="M965 729v-172h-316v-115h264v-160h-264v-110h316v-172h-519v144h-200l-41 -144h-209l221 729h748zM289 298h157v259h-84z" />
    <glyph glyph-name="Ccedilla" unicode="&#xc7;" horiz-adv-x="756" 
d="M382 166q54 0 90.5 27.5t46.5 75.5h212q-10 -124 -104 -201q-93 -76 -236 -78l-17 -32q33 1 68 -20q34 -22 34 -69q0 -40 -24.5 -68.5t-60 -39t-77 -7.5t-75.5 21v85q47 -27 83 -20q37 7 37 43q0 26 -28 33t-52 -8v43l27 45q-132 22 -205 119t-73 247q0 175 97 275
q98 101 265 101q146 0 240 -75q93 -74 101 -202h-212q-8 46 -44.5 73.5t-92.5 27.5q-64 0 -102 -36.5t-38 -101.5v-123q0 -63 37 -99t103 -36z" />
    <glyph glyph-name="Egrave" unicode="&#xc8;" horiz-adv-x="639" 
d="M395 858l-57 -87l-249 140l78 124zM597 0h-534v729h534v-172h-331v-98h278v-161h-278v-126h331v-172z" />
    <glyph glyph-name="Eacute" unicode="&#xc9;" horiz-adv-x="639" 
d="M587 911l-249 -140l-57 87l228 177zM597 0h-534v729h534v-172h-331v-98h278v-161h-278v-126h331v-172z" />
    <glyph glyph-name="Ecircumflex" unicode="&#xca;" horiz-adv-x="639" 
d="M223 771l-89 88l152 145h104l152 -145l-89 -88l-115 124zM597 0h-534v729h534v-172h-331v-98h278v-161h-278v-126h331v-172z" />
    <glyph glyph-name="Edieresis" unicode="&#xcb;" horiz-adv-x="639" 
d="M298 772h-142v163h142v-163zM519 772h-142v163h142v-163zM597 0h-534v729h534v-172h-331v-98h278v-161h-278v-126h331v-172z" />
    <glyph glyph-name="Igrave" unicode="&#xcc;" horiz-adv-x="329" 
d="M222 858l-57 -87l-249 140l78 124zM266 729v-729h-203v729h203z" />
    <glyph glyph-name="Iacute" unicode="&#xcd;" horiz-adv-x="329" 
d="M414 911l-249 -140l-57 87l228 177zM266 729v-729h-203v729h203z" />
    <glyph glyph-name="Icircumflex" unicode="&#xce;" horiz-adv-x="329" 
d="M50 771l-89 88l152 145h104l152 -145l-89 -88l-115 124zM266 729v-729h-203v729h203z" />
    <glyph glyph-name="Idieresis" unicode="&#xcf;" horiz-adv-x="329" 
d="M125 772h-142v163h142v-163zM346 772h-142v163h142v-163zM266 729v-729h-203v729h203z" />
    <glyph glyph-name="Eth" unicode="&#xd0;" horiz-adv-x="755" 
d="M63 729h322q170 0 256 -93t86 -272q0 -182 -87 -273t-255 -91h-322v304h-93v130h93v295zM515 300v129q0 73 -31 100.5t-105 27.5h-113v-123h79v-130h-79v-132h113q78 0 107 29.5t29 98.5z" />
    <glyph glyph-name="Ntilde" unicode="&#xd1;" horiz-adv-x="793" 
d="M449 762q-30 2 -64 20q-37 20 -59 20q-30 0 -65 -39l-74 50q23 60 59.5 89t78.5 28q33 -2 66 -20q35 -18 59 -18q38 0 58 34l3 6l76 -47q-20 -61 -57 -92.5t-81 -30.5zM266 0h-203v729h230l239 -437h8l-11 202v235h201v-729h-230l-237 431h-8l11 -195v-236z" />
    <glyph glyph-name="Ograve" unicode="&#xd2;" horiz-adv-x="782" 
d="M447 858l-57 -87l-249 140l78 124zM28 362q0 170 100 273t263 103t263 -103t100 -273q0 -168 -99 -270q-97 -102 -264 -102q-166 0 -265 102q-98 103 -98 270zM242 416v-104q0 -68 40 -107t109 -39t109 39.5t40 106.5v104q0 68 -40 107t-109 39t-109 -39.5t-40 -106.5z
" />
    <glyph glyph-name="Oacute" unicode="&#xd3;" horiz-adv-x="782" 
d="M639 911l-249 -140l-57 87l228 177zM28 362q0 170 100 273t263 103t263 -103t100 -273q0 -168 -99 -270q-97 -102 -264 -102q-166 0 -265 102q-98 103 -98 270zM242 416v-104q0 -68 40 -107t109 -39t109 39.5t40 106.5v104q0 68 -40 107t-109 39t-109 -39.5t-40 -106.5z
" />
    <glyph glyph-name="Ocircumflex" unicode="&#xd4;" horiz-adv-x="782" 
d="M275 771l-89 88l152 145h104l152 -145l-89 -88l-115 124zM28 362q0 170 100 273t263 103t263 -103t100 -273q0 -168 -99 -270q-97 -102 -264 -102q-166 0 -265 102q-98 103 -98 270zM242 416v-104q0 -68 40 -107t109 -39t109 39.5t40 106.5v104q0 68 -40 107t-109 39
t-109 -39.5t-40 -106.5z" />
    <glyph glyph-name="Otilde" unicode="&#xd5;" horiz-adv-x="782" 
d="M453 762q-30 2 -64 20q-37 20 -59 20q-30 0 -65 -39l-74 50q23 60 59.5 89t78.5 28q33 -2 66 -20q34 -18 59 -18q38 0 58 34l3 6l76 -47q-20 -61 -57 -92.5t-81 -30.5zM28 362q0 170 100 273t263 103t263 -103t100 -273q0 -168 -99 -270q-97 -102 -264 -102
q-166 0 -265 102q-98 103 -98 270zM242 416v-104q0 -68 40 -107t109 -39t109 39.5t40 106.5v104q0 68 -40 107t-109 39t-109 -39.5t-40 -106.5z" />
    <glyph glyph-name="Odieresis" unicode="&#xd6;" horiz-adv-x="782" 
d="M350 772h-142v163h142v-163zM571 772h-142v163h142v-163zM28 362q0 170 100 273t263 103t263 -103t100 -273q0 -168 -99 -270q-97 -102 -264 -102q-166 0 -265 102q-98 103 -98 270zM242 416v-104q0 -68 40 -107t109 -39t109 39.5t40 106.5v104q0 68 -40 107t-109 39
t-109 -39.5t-40 -106.5z" />
    <glyph glyph-name="multiply" unicode="&#xd7;" horiz-adv-x="647" 
d="M144 1l-112 115l178 184l-178 186l112 114l173 -179h13l170 179l113 -114l-177 -186l177 -184l-113 -115l-170 179h-13z" />
    <glyph glyph-name="Oslash" unicode="&#xd8;" horiz-adv-x="782" 
d="M701 680l84 -118l-59 -42q28 -72 28 -158q0 -168 -99 -270q-97 -102 -264 -102q-165 0 -262 100l-57 -41l-74 125l54 39q-24 67 -24 149q0 170 100 273t263 103q158 0 256 -97zM242 416v-66l250 180q-38 32 -101 32q-69 0 -109 -39.5t-40 -106.5zM540 312v74l-255 -184
q41 -36 106 -36q69 0 109 39.5t40 106.5z" />
    <glyph glyph-name="Ugrave" unicode="&#xd9;" horiz-adv-x="769" 
d="M441 858l-57 -87l-249 140l78 124zM57 284v445h202v-433q0 -60 33 -93.5t93 -33.5t92.5 32.5t32.5 94.5v433h202v-445q0 -138 -90 -216q-88 -78 -239 -78q-161 0 -243.5 77t-82.5 217z" />
    <glyph glyph-name="Uacute" unicode="&#xda;" horiz-adv-x="769" 
d="M633 911l-249 -140l-57 87l228 177zM57 284v445h202v-433q0 -60 33 -93.5t93 -33.5t92.5 32.5t32.5 94.5v433h202v-445q0 -138 -90 -216q-88 -78 -239 -78q-161 0 -243.5 77t-82.5 217z" />
    <glyph glyph-name="Ucircumflex" unicode="&#xdb;" horiz-adv-x="769" 
d="M269 771l-89 88l152 145h104l152 -145l-89 -88l-115 124zM57 284v445h202v-433q0 -60 33 -93.5t93 -33.5t92.5 32.5t32.5 94.5v433h202v-445q0 -138 -90 -216q-88 -78 -239 -78q-161 0 -243.5 77t-82.5 217z" />
    <glyph glyph-name="Udieresis" unicode="&#xdc;" horiz-adv-x="769" 
d="M344 772h-142v163h142v-163zM565 772h-142v163h142v-163zM57 284v445h202v-433q0 -60 33 -93.5t93 -33.5t92.5 32.5t32.5 94.5v433h202v-445q0 -138 -90 -216q-88 -78 -239 -78q-161 0 -243.5 77t-82.5 217z" />
    <glyph glyph-name="Yacute" unicode="&#xdd;" horiz-adv-x="742" 
d="M619 911l-249 -140l-57 87l228 177zM269 269l-270 460h239l57 -129l71 -153h8l71 149l60 133h238l-271 -460v-269h-203v269z" />
    <glyph glyph-name="Thorn" unicode="&#xde;" horiz-adv-x="695" 
d="M266 620h155q123 0 189.5 -67t66.5 -191q0 -116 -68 -184t-188 -68h-155v-110h-203v729h203v-109zM462 336v44q0 61 -76 61h-120v-166h123q36 0 54.5 17t18.5 44z" />
    <glyph glyph-name="germandbls" unicode="&#xdf;" horiz-adv-x="628" 
d="M66 373h-62v151h63v10q0 98 67 151.5t182 53.5q110 0 177 -50q66 -50 66 -133q0 -109 -101 -147v-8q67 -12 107.5 -63.5t40.5 -124.5q0 -103 -70 -158t-195 -55h-52v161h40q34 0 55 18.5t21 47.5v33q0 67 -78 67h-38v146h21q21 0 34 10.5t13 27.5v19q0 40 -47 40
q-46 0 -46 -47v-523h-198v373z" />
    <glyph glyph-name="agrave" unicode="&#xe0;" horiz-adv-x="616" 
d="M340 683l-57 -87l-249 140l78 124zM14 158q0 80 53.5 125t144.5 45h134v27q0 54 -58 54q-61 0 -64 -50h-188q9 95 77.5 145t183.5 50q118 0 179 -53t61 -150v-221h58v-130h-125q-52 0 -77 15t-34 50l-3 13h-8q-14 -40 -58 -64t-101 -24q-79 0 -127 46t-48 122zM206 181
v-12q0 -38 57 -38q39 0 61 19.5t22 55.5v14h-91q-49 0 -49 -39z" />
    <glyph glyph-name="aacute" unicode="&#xe1;" horiz-adv-x="616" 
d="M532 736l-249 -140l-57 87l228 177zM14 158q0 80 53.5 125t144.5 45h134v27q0 54 -58 54q-61 0 -64 -50h-188q9 95 77.5 145t183.5 50q118 0 179 -53t61 -150v-221h58v-130h-125q-52 0 -77 15t-34 50l-3 13h-8q-14 -40 -58 -64t-101 -24q-79 0 -127 46t-48 122zM206 181
v-12q0 -38 57 -38q39 0 61 19.5t22 55.5v14h-91q-49 0 -49 -39z" />
    <glyph glyph-name="acircumflex" unicode="&#xe2;" horiz-adv-x="616" 
d="M168 596l-89 88l152 145h104l152 -145l-89 -88l-115 124zM14 158q0 80 53.5 125t144.5 45h134v27q0 54 -58 54q-61 0 -64 -50h-188q9 95 77.5 145t183.5 50q118 0 179 -53t61 -150v-221h58v-130h-125q-52 0 -77 15t-34 50l-3 13h-8q-14 -40 -58 -64t-101 -24
q-79 0 -127 46t-48 122zM206 181v-12q0 -38 57 -38q39 0 61 19.5t22 55.5v14h-91q-49 0 -49 -39z" />
    <glyph glyph-name="atilde" unicode="&#xe3;" horiz-adv-x="616" 
d="M346 587q-30 2 -64 20q-37 20 -59 20q-31 0 -65 -39l-74 50q23 60 59.5 89t78.5 28q33 -2 66 -20q34 -18 59 -18q36 1 58 35l3 5l76 -47q-20 -61 -57 -92.5t-81 -30.5zM14 158q0 80 53.5 125t144.5 45h134v27q0 54 -58 54q-61 0 -64 -50h-188q9 95 77.5 145t183.5 50
q118 0 179 -53t61 -150v-221h58v-130h-125q-52 0 -77 15t-34 50l-3 13h-8q-14 -40 -58 -64t-101 -24q-79 0 -127 46t-48 122zM206 181v-12q0 -38 57 -38q39 0 61 19.5t22 55.5v14h-91q-49 0 -49 -39z" />
    <glyph glyph-name="adieresis" unicode="&#xe4;" horiz-adv-x="616" 
d="M243 597h-142v163h142v-163zM464 597h-142v163h142v-163zM14 158q0 80 53.5 125t144.5 45h134v27q0 54 -58 54q-61 0 -64 -50h-188q9 95 77.5 145t183.5 50q118 0 179 -53t61 -150v-221h58v-130h-125q-52 0 -77 15t-34 50l-3 13h-8q-14 -40 -58 -64t-101 -24
q-79 0 -127 46t-48 122zM206 181v-12q0 -38 57 -38q39 0 61 19.5t22 55.5v14h-91q-49 0 -49 -39z" />
    <glyph glyph-name="aring" unicode="&#xe5;" horiz-adv-x="616" 
d="M537 351v-221h58v-130h-125q-52 0 -77 15t-34 50l-3 13h-8q-14 -40 -58 -64t-101 -24q-79 0 -127 46t-48 122q0 80 53.5 125t144.5 45h134v27q0 54 -58 54q-61 0 -64 -50h-188q14 143 157 182q-48 37 -48 104q0 59 38.5 95t99.5 36t99.5 -36t38.5 -95q0 -62 -43 -99
q159 -35 159 -195zM244 645q-3 -26 18 -37t42 0t19 37q2 26 -19 37.5t-42 0.5t-18 -38zM346 206v14h-91q-49 0 -49 -39v-12q0 -38 57 -38q39 0 61 19.5t22 55.5z" />
    <glyph glyph-name="ae" unicode="&#xe6;" horiz-adv-x="888" 
d="M202 -10q-87 0 -137.5 45t-50.5 121q0 80 53 126t143 46h114v37q3 29 -26 40t-58 -1.5t-27 -41.5h-188q8 90 74 141t170 51q105 0 164 -52q59 52 171 52q122 0 190.5 -69.5t68.5 -192.5q0 -35 -5 -65h-345q0 -44 26.5 -67.5t69.5 -23.5q31 0 57 14.5t33 35.5h169
q-12 -88 -84 -142q-70 -54 -175 -54q-72 0 -129.5 27.5t-79.5 73.5q-26 -48 -78.5 -74.5t-119.5 -26.5zM514 347h163q-2 32 -23 49t-54 17q-76 0 -86 -66zM249 131q37 1 57.5 20t20.5 52v13h-78q-43 0 -43 -33v-17q0 -34 43 -35z" />
    <glyph glyph-name="ccedilla" unicode="&#xe7;" horiz-adv-x="575" 
d="M291 144q72 0 79 64h188q-8 -102 -76.5 -159t-179.5 -59l-16 -30q33 1 68 -20q34 -22 34 -69q0 -40 -24.5 -68.5t-60 -39t-77 -7.5t-75.5 21v85q47 -27 83 -20q37 7 37 43q0 26 -28 33t-52 -8v43l27 45q-94 20 -146 91t-52 181q0 134 74 209t203 75q113 0 183 -60
q70 -58 79 -158h-188q-3 31 -24 47.5t-56 16.5q-77 0 -77 -81v-97q0 -78 77 -78z" />
    <glyph glyph-name="egrave" unicode="&#xe8;" horiz-adv-x="583" 
d="M351 683l-57 -87l-249 140l78 124zM20 271q0 133 75 208t199 75q118 0 192 -68q73 -67 73 -187q0 -34 -5 -72h-339v-28q0 -30 22.5 -48t56.5 -18q64 0 81 41h188q-15 -85 -87 -134q-73 -50 -179 -50q-131 0 -204 76t-73 205zM215 352v-4h153v4q0 27 -21 43.5t-56 16.5
q-34 0 -55 -16.5t-21 -43.5z" />
    <glyph glyph-name="eacute" unicode="&#xe9;" horiz-adv-x="583" 
d="M543 736l-249 -140l-57 87l228 177zM20 271q0 133 75 208t199 75q118 0 192 -68q73 -67 73 -187q0 -34 -5 -72h-339v-28q0 -30 22.5 -48t56.5 -18q64 0 81 41h188q-15 -85 -87 -134q-73 -50 -179 -50q-131 0 -204 76t-73 205zM215 352v-4h153v4q0 27 -21 43.5t-56 16.5
q-34 0 -55 -16.5t-21 -43.5z" />
    <glyph glyph-name="ecircumflex" unicode="&#xea;" horiz-adv-x="583" 
d="M179 596l-89 88l152 145h104l152 -145l-89 -88l-115 124zM20 271q0 133 75 208t199 75q118 0 192 -68q73 -67 73 -187q0 -34 -5 -72h-339v-28q0 -30 22.5 -48t56.5 -18q64 0 81 41h188q-15 -85 -87 -134q-73 -50 -179 -50q-131 0 -204 76t-73 205zM215 352v-4h153v4
q0 27 -21 43.5t-56 16.5q-34 0 -55 -16.5t-21 -43.5z" />
    <glyph glyph-name="edieresis" unicode="&#xeb;" horiz-adv-x="583" 
d="M254 597h-142v163h142v-163zM475 597h-142v163h142v-163zM20 271q0 133 75 208t199 75q118 0 192 -68q73 -67 73 -187q0 -34 -5 -72h-339v-28q0 -30 22.5 -48t56.5 -18q64 0 81 41h188q-15 -85 -87 -134q-73 -50 -179 -50q-131 0 -204 76t-73 205zM215 352v-4h153v4
q0 27 -21 43.5t-56 16.5q-34 0 -55 -16.5t-21 -43.5z" />
    <glyph glyph-name="igrave" unicode="&#xec;" horiz-adv-x="285" 
d="M200 673l-57 -87l-249 140l78 124zM238 0h-191v544h191v-544z" />
    <glyph glyph-name="iacute" unicode="&#xed;" horiz-adv-x="285" 
d="M392 726l-249 -140l-57 87l228 177zM238 0h-191v544h191v-544z" />
    <glyph glyph-name="icircumflex" unicode="&#xee;" horiz-adv-x="285" 
d="M28 586l-89 88l152 145h104l152 -145l-89 -88l-115 124zM238 0h-191v544h191v-544z" />
    <glyph glyph-name="idieresis" unicode="&#xef;" horiz-adv-x="285" 
d="M103 587h-142v163h142v-163zM324 587h-142v163h142v-163zM238 0h-191v544h191v-544z" />
    <glyph glyph-name="eth" unicode="&#xf0;" horiz-adv-x="596" 
d="M20 242q0 107 66 170q65 64 175 64q33 0 59 -8l4 5l-39 33l-39 47l-140 -50v134l66 23l-60 96h227l15 -30l139 52v-134l-68 -23l40 -65q67 -108 87 -165q24 -66 24 -129q0 -119 -76 -195q-75 -76 -208 -76q-126 0 -199 69t-73 182zM220 277v-59q0 -71 78 -73q78 2 78 73
v59q0 35 -21 55t-57 20t-57 -20t-21 -55z" />
    <glyph glyph-name="ntilde" unicode="&#xf1;" horiz-adv-x="651" 
d="M487 587q-30 2 -64 20q-37 20 -59 20q-30 0 -65 -39l-74 50q23 60 59.5 89t78.5 28q33 -2 66 -20q35 -18 59 -18q36 1 58 35l3 5l76 -47q-20 -61 -57 -92.5t-81 -30.5zM238 0h-191v544h168l23 -99h10q49 109 176 109q93 0 139 -61t46 -172v-321h-191v301q0 99 -84 99
q-46 0 -71 -30t-25 -82v-288z" />
    <glyph glyph-name="ograve" unicode="&#xf2;" horiz-adv-x="598" 
d="M356 683l-57 -87l-249 140l78 124zM20 273q0 127 74 204q75 77 205 77q125 0 202 -75q77 -74 77 -206q0 -129 -75 -206q-74 -77 -204 -77q-125 0 -202 75t-77 208zM214 315v-86q0 -85 85 -85t85 85v86q0 85 -85 85t-85 -85z" />
    <glyph glyph-name="oacute" unicode="&#xf3;" horiz-adv-x="598" 
d="M548 736l-249 -140l-57 87l228 177zM20 273q0 127 74 204q75 77 205 77q125 0 202 -75q77 -74 77 -206q0 -129 -75 -206q-74 -77 -204 -77q-125 0 -202 75t-77 208zM214 315v-86q0 -85 85 -85t85 85v86q0 85 -85 85t-85 -85z" />
    <glyph glyph-name="ocircumflex" unicode="&#xf4;" horiz-adv-x="598" 
d="M184 596l-89 88l152 145h104l152 -145l-89 -88l-115 124zM20 273q0 127 74 204q75 77 205 77q125 0 202 -75q77 -74 77 -206q0 -129 -75 -206q-74 -77 -204 -77q-125 0 -202 75t-77 208zM214 315v-86q0 -85 85 -85t85 85v86q0 85 -85 85t-85 -85z" />
    <glyph glyph-name="otilde" unicode="&#xf5;" horiz-adv-x="598" 
d="M362 587q-30 2 -64 20q-37 20 -59 20q-31 0 -65 -39l-74 50q23 60 59.5 89t78.5 28q33 -2 66 -20q34 -18 59 -18q36 1 58 35l3 5l76 -47q-20 -61 -57 -92.5t-81 -30.5zM20 273q0 127 74 204q75 77 205 77q125 0 202 -75q77 -74 77 -206q0 -129 -75 -206q-74 -77 -204 -77
q-125 0 -202 75t-77 208zM214 315v-86q0 -85 85 -85t85 85v86q0 85 -85 85t-85 -85z" />
    <glyph glyph-name="odieresis" unicode="&#xf6;" horiz-adv-x="598" 
d="M259 597h-142v163h142v-163zM480 597h-142v163h142v-163zM20 273q0 127 74 204q75 77 205 77q125 0 202 -75q77 -74 77 -206q0 -129 -75 -206q-74 -77 -204 -77q-125 0 -202 75t-77 208zM214 315v-86q0 -85 85 -85t85 85v86q0 85 -85 85t-85 -85z" />
    <glyph glyph-name="divide" unicode="&#xf7;" horiz-adv-x="624" 
d="M404 407h-183v169h183v-169zM558 213h-492v148h492v-148zM404 -7h-183v168h183v-168z" />
    <glyph glyph-name="oslash" unicode="&#xf8;" horiz-adv-x="598" 
d="M545 524l66 -98l-52 -38q19 -51 19 -115q0 -129 -75 -206q-74 -77 -204 -77q-118 0 -195 68l-51 -37l-65 97l51 38q-19 53 -19 117q0 127 74 204q75 77 205 77q121 0 195 -67zM214 315v-32l141 102q-21 15 -56 15q-85 0 -85 -85zM384 229v32l-141 -102q21 -15 56 -15
q85 0 85 85z" />
    <glyph glyph-name="ugrave" unicode="&#xf9;" horiz-adv-x="646" 
d="M378 673l-57 -87l-249 140l78 124zM408 544h191v-544h-169l-23 99h-11q-49 -109 -171 -109q-90 0 -136.5 57.5t-46.5 160.5v336h192v-305q0 -95 81 -95q43 0 68 30.5t25 81.5v288z" />
    <glyph glyph-name="uacute" unicode="&#xfa;" horiz-adv-x="646" 
d="M570 726l-249 -140l-57 87l228 177zM408 544h191v-544h-169l-23 99h-11q-49 -109 -171 -109q-90 0 -136.5 57.5t-46.5 160.5v336h192v-305q0 -95 81 -95q43 0 68 30.5t25 81.5v288z" />
    <glyph glyph-name="ucircumflex" unicode="&#xfb;" horiz-adv-x="646" 
d="M206 586l-89 88l152 145h104l152 -145l-89 -88l-115 124zM408 544h191v-544h-169l-23 99h-11q-49 -109 -171 -109q-90 0 -136.5 57.5t-46.5 160.5v336h192v-305q0 -95 81 -95q43 0 68 30.5t25 81.5v288z" />
    <glyph glyph-name="udieresis" unicode="&#xfc;" horiz-adv-x="646" 
d="M281 587h-142v163h142v-163zM502 587h-142v163h142v-163zM408 544h191v-544h-169l-23 99h-11q-49 -109 -171 -109q-90 0 -136.5 57.5t-46.5 160.5v336h192v-305q0 -95 81 -95q43 0 68 30.5t25 81.5v288z" />
    <glyph glyph-name="yacute" unicode="&#xfd;" horiz-adv-x="600" 
d="M547 728l-249 -140l-57 87l228 177zM203 78l-218 466h199l59 -157l50 -150h6l53 151l60 156h198l-217 -466v-86q0 -59 -22 -101q-27 -58 -135 -58h-145v148h112v97z" />
    <glyph glyph-name="thorn" unicode="&#xfe;" horiz-adv-x="659" 
d="M238 -167h-191v917h191v-304h10q23 51 70 79.5t105 28.5q100 0 158 -75t58 -205q0 -134 -58 -209t-158 -75q-131 0 -175 108h-10v-265zM345 143q99 0 99 93v73q0 92 -98 92q-52 0 -80 -29.5t-28 -82.5v-33q0 -53 28 -83t79 -30z" />
    <glyph glyph-name="ydieresis" unicode="&#xff;" horiz-adv-x="600" 
d="M258 589h-142v163h142v-163zM479 589h-142v163h142v-163zM203 78l-218 466h199l59 -157l50 -150h6l53 151l60 156h198l-217 -466v-86q0 -59 -22 -101q-27 -58 -135 -58h-145v148h112v97z" />
    <glyph glyph-name="Amacron" unicode="&#x100;" horiz-adv-x="737" 
d="M167 915h387v-143h-387v143zM741 0h-223l-31 100h-250l-32 -100h-209l247 729h237zM304 312l-18 -58h154l-18 58l-53 202h-7z" />
    <glyph glyph-name="amacron" unicode="&#x101;" horiz-adv-x="616" 
d="M476 597h-387v143h387v-143zM14 158q0 80 53.5 125t144.5 45h134v27q0 54 -58 54q-61 0 -64 -50h-188q9 95 77.5 145t183.5 50q118 0 179 -53t61 -150v-221h58v-130h-125q-52 0 -77 15t-34 50l-3 13h-8q-14 -40 -58 -64t-101 -24q-79 0 -127 46t-48 122zM206 181v-12
q0 -38 57 -38q39 0 61 19.5t22 55.5v14h-91q-49 0 -49 -39z" />
    <glyph glyph-name="Abreve" unicode="&#x102;" horiz-adv-x="737" 
d="M360 761q-80 0 -126.5 48.5t-46.5 125.5h113q0 -70 60 -70q29 0 45.5 18t16.5 52h113q0 -77 -47.5 -125.5t-127.5 -48.5zM741 0h-223l-31 100h-250l-32 -100h-209l247 729h237zM304 312l-18 -58h154l-18 58l-53 202h-7z" />
    <glyph glyph-name="abreve" unicode="&#x103;" horiz-adv-x="616" 
d="M344 760h113q0 -77 -47.5 -125.5t-127.5 -48.5t-126.5 48.5t-46.5 125.5h113q0 -70 60 -70q29 0 45.5 18t16.5 52zM14 158q0 80 53.5 125t144.5 45h134v27q0 54 -58 54q-61 0 -64 -50h-188q9 95 77.5 145t183.5 50q118 0 179 -53t61 -150v-221h58v-130h-125q-52 0 -77 15
t-34 50l-3 13h-8q-14 -40 -58 -64t-101 -24q-79 0 -127 46t-48 122zM206 181v-12q0 -38 57 -38q39 0 61 19.5t22 55.5v14h-91q-49 0 -49 -39z" />
    <glyph glyph-name="Aogonek" unicode="&#x104;" horiz-adv-x="737" 
d="M709 -114q26 0 57 11v-95q-36 -18 -90 -18q-63 -1 -102 32.5t-39 87.5q0 59 43 96h-60l-31 100h-250l-32 -100h-209l247 729h237l261 -729q-97 -10 -97 -70q0 -44 65 -44zM304 312l-18 -58h154l-18 58l-53 202h-7z" />
    <glyph glyph-name="aogonek" unicode="&#x105;" horiz-adv-x="616" 
d="M546 -114q26 0 57 11v-95q-36 -18 -90 -18q-63 -1 -102 32.5t-39 87.5q0 61 49 101q-50 11 -62 60l-3 13h-8q-14 -40 -58 -64t-101 -24q-79 0 -127 46t-48 122q0 80 53.5 125t144.5 45h134v27q0 54 -58 54q-61 0 -64 -50h-188q9 95 77.5 145t183.5 50q118 0 179 -53
t61 -150v-221h58v-130h-17q-97 -10 -97 -70q0 -44 65 -44zM346 206v14h-91q-49 0 -49 -39v-12q0 -38 57 -38q39 0 61 19.5t22 55.5z" />
    <glyph glyph-name="Cacute" unicode="&#x106;" horiz-adv-x="756" 
d="M625 911l-249 -140l-57 87l228 177zM382 -10q-166 0 -261 101q-93 101 -93 271q0 175 97 275q98 101 265 101q146 0 240 -75q93 -74 101 -202h-212q-8 46 -44.5 73.5t-92.5 27.5q-64 0 -102 -36.5t-38 -101.5v-123q0 -63 37 -99t103 -36q54 0 90.5 27.5t46.5 75.5h212
q-10 -126 -107 -203q-95 -76 -242 -76z" />
    <glyph glyph-name="cacute" unicode="&#x107;" horiz-adv-x="575" 
d="M546 736l-249 -140l-57 87l228 177zM370 208h188q-8 -103 -79 -160.5t-185 -57.5q-128 0 -201 74t-73 206q0 134 74 209t203 75q113 0 183 -60q70 -58 79 -158h-188q-3 31 -24 47.5t-56 16.5q-77 0 -77 -81v-97q0 -78 77 -78q72 0 79 64z" />
    <glyph glyph-name="Cdotaccent" unicode="&#x10a;" horiz-adv-x="756" 
d="M447 772h-142v163h142v-163zM382 -10q-166 0 -261 101q-93 101 -93 271q0 175 97 275q98 101 265 101q146 0 240 -75q93 -74 101 -202h-212q-8 46 -44.5 73.5t-92.5 27.5q-64 0 -102 -36.5t-38 -101.5v-123q0 -63 37 -99t103 -36q54 0 90.5 27.5t46.5 75.5h212
q-10 -126 -107 -203q-95 -76 -242 -76z" />
    <glyph glyph-name="cdotaccent" unicode="&#x10b;" horiz-adv-x="575" 
d="M368 597h-142v163h142v-163zM370 208h188q-8 -103 -79 -160.5t-185 -57.5q-128 0 -201 74t-73 206q0 134 74 209t203 75q113 0 183 -60q70 -58 79 -158h-188q-3 31 -24 47.5t-56 16.5q-77 0 -77 -81v-97q0 -78 77 -78q72 0 79 64z" />
    <glyph glyph-name="Ccaron" unicode="&#x10c;" horiz-adv-x="756" 
d="M325 773l-153 147l89 87l115 -125l115 125l89 -87l-152 -147h-103zM382 -10q-166 0 -261 101q-93 101 -93 271q0 175 97 275q98 101 265 101q146 0 240 -75q93 -74 101 -202h-212q-8 46 -44.5 73.5t-92.5 27.5q-64 0 -102 -36.5t-38 -101.5v-123q0 -63 37 -99t103 -36
q54 0 90.5 27.5t46.5 75.5h212q-10 -126 -107 -203q-95 -76 -242 -76z" />
    <glyph glyph-name="ccaron" unicode="&#x10d;" horiz-adv-x="575" 
d="M246 598l-153 147l89 87l115 -125l115 125l89 -87l-152 -147h-103zM370 208h188q-8 -103 -79 -160.5t-185 -57.5q-128 0 -201 74t-73 206q0 134 74 209t203 75q113 0 183 -60q70 -58 79 -158h-188q-3 31 -24 47.5t-56 16.5q-77 0 -77 -81v-97q0 -78 77 -78q72 0 79 64z
" />
    <glyph glyph-name="Dcaron" unicode="&#x10e;" horiz-adv-x="755" 
d="M314 773l-153 147l89 87l115 -125l115 125l89 -87l-152 -147h-103zM385 0h-322v729h322q170 0 256 -93t86 -272q0 -182 -87 -273t-255 -91zM266 557v-385h113q78 0 107 29.5t29 98.5v129q0 73 -31 100.5t-105 27.5h-113z" />
    <glyph glyph-name="dcaron" unicode="&#x10f;" horiz-adv-x="659" 
d="M411 446h10v304h191v-750h-165l-26 98h-10q-23 -51 -70 -79.5t-105 -28.5q-100 0 -158 75t-58 205q0 134 58 209t158 75q132 0 175 -108zM659 612v138h136v-116q0 -131 -151 -131v48q42 0 59.5 14t18.5 47h-63zM421 255v33q0 53 -28 83t-79 30q-99 0 -99 -93v-73
q0 -92 98 -92q52 0 80 29.5t28 82.5z" />
    <glyph glyph-name="Dcroat" unicode="&#x110;" horiz-adv-x="755" 
d="M63 729h322q170 0 256 -93t86 -272q0 -182 -87 -273t-255 -91h-322v304h-93v130h93v295zM515 300v129q0 73 -31 100.5t-105 27.5h-113v-123h79v-130h-79v-132h113q78 0 107 29.5t29 98.5z" />
    <glyph glyph-name="dslash" unicode="&#x111;" horiz-adv-x="659" 
d="M612 658h75v-117h-75v-541h-165l-26 98h-10q-23 -51 -70 -79.5t-105 -28.5q-100 0 -158 75t-58 205q0 134 58 209t158 75q132 0 175 -108h10v95h-93v117h93v92h191v-92zM421 255v33q0 53 -28 83t-79 30q-99 0 -99 -93v-73q0 -92 98 -92q52 0 80 29.5t28 82.5z" />
    <glyph glyph-name="Emacron" unicode="&#x112;" horiz-adv-x="639" 
d="M531 772h-387v143h387v-143zM597 0h-534v729h534v-172h-331v-98h278v-161h-278v-126h331v-172z" />
    <glyph glyph-name="emacron" unicode="&#x113;" horiz-adv-x="583" 
d="M487 597h-387v143h387v-143zM20 271q0 133 75 208t199 75q118 0 192 -68q73 -67 73 -187q0 -34 -5 -72h-339v-28q0 -30 22.5 -48t56.5 -18q64 0 81 41h188q-15 -85 -87 -134q-73 -50 -179 -50q-131 0 -204 76t-73 205zM215 352v-4h153v4q0 27 -21 43.5t-56 16.5
q-34 0 -55 -16.5t-21 -43.5z" />
    <glyph glyph-name="Edotaccent" unicode="&#x116;" horiz-adv-x="639" 
d="M409 772h-142v163h142v-163zM597 0h-534v729h534v-172h-331v-98h278v-161h-278v-126h331v-172z" />
    <glyph glyph-name="edotaccent" unicode="&#x117;" horiz-adv-x="583" 
d="M365 597h-142v163h142v-163zM20 271q0 133 75 208t199 75q118 0 192 -68q73 -67 73 -187q0 -34 -5 -72h-339v-28q0 -30 22.5 -48t56.5 -18q64 0 81 41h188q-15 -85 -87 -134q-73 -50 -179 -50q-131 0 -204 76t-73 205zM215 352v-4h153v4q0 27 -21 43.5t-56 16.5
q-34 0 -55 -16.5t-21 -43.5z" />
    <glyph glyph-name="Eogonek" unicode="&#x118;" horiz-adv-x="639" 
d="M565 -114q26 0 57 11v-95q-36 -18 -90 -18q-63 -1 -102 32.5t-39 87.5q0 59 43 96h-371v729h534v-172h-331v-98h278v-161h-278v-126h331v-172q-97 -10 -97 -70q0 -44 65 -44z" />
    <glyph glyph-name="eogonek" unicode="&#x119;" horiz-adv-x="583" 
d="M375 174h188q-12 -68 -62.5 -114.5t-129.5 -62.5l6 -7q-97 -10 -97 -70q0 -44 65 -44q26 0 57 11v-95q-36 -18 -90 -18q-63 -1 -102 32.5t-39 87.5q0 64 52 103q-97 21 -150 93t-53 181q0 133 75 208t199 75q118 0 192 -68q73 -67 73 -187q0 -34 -5 -72h-339v-28
q0 -30 22.5 -48t56.5 -18q64 0 81 41zM215 352v-4h153v4q0 27 -21 43.5t-56 16.5q-34 0 -55 -16.5t-21 -43.5z" />
    <glyph glyph-name="Ecaron" unicode="&#x11a;" horiz-adv-x="639" 
d="M287 773l-153 147l89 87l115 -125l115 125l89 -87l-152 -147h-103zM597 0h-534v729h534v-172h-331v-98h278v-161h-278v-126h331v-172z" />
    <glyph glyph-name="ecaron" unicode="&#x11b;" horiz-adv-x="583" 
d="M243 598l-153 147l89 87l115 -125l115 125l89 -87l-152 -147h-103zM20 271q0 133 75 208t199 75q118 0 192 -68q73 -67 73 -187q0 -34 -5 -72h-339v-28q0 -30 22.5 -48t56.5 -18q64 0 81 41h188q-15 -85 -87 -134q-73 -50 -179 -50q-131 0 -204 76t-73 205zM215 352v-4
h153v4q0 27 -21 43.5t-56 16.5q-34 0 -55 -16.5t-21 -43.5z" />
    <glyph glyph-name="Gbreve" unicode="&#x11e;" horiz-adv-x="789" 
d="M446 935h113q0 -77 -47.5 -125.5t-127.5 -48.5t-126.5 48.5t-46.5 125.5h113q0 -70 60 -70q29 0 45.5 18t16.5 52zM28 355q0 188 97 285q98 98 260 98q138 0 229 -67q93 -67 106 -175h-211q-27 66 -121 66q-70 0 -108 -38.5t-38 -106.5v-114q0 -66 37.5 -105.5
t102.5 -39.5q53 0 91 26t45 68h-170v157h389v-409h-165l-8 80h-7q-61 -90 -212 -90q-149 0 -233 96t-84 269z" />
    <glyph glyph-name="gbreve" unicode="&#x11f;" horiz-adv-x="572" 
d="M197 586q-80 0 -126.5 48.5t-46.5 125.5h113q0 -70 60 -70q29 0 45.5 18t16.5 52h113q0 -77 -47.5 -125.5t-127.5 -48.5zM264 146h106q94 0 145 -43.5t51 -120.5q0 -179 -304 -179q-252 0 -252 125q0 81 81 103v9q-28 10 -44.5 33.5t-16.5 52.5q0 75 83 104v9
q-85 45 -85 139q0 79 62 127q62 49 165 49q47 0 85 -9v20q0 55 29 81t97 26h79v-148h-99v-25q61 -48 61 -127t-63 -127q-62 -47 -166 -47q-26 0 -58 5q-17 -11 -17 -27q0 -30 61 -30zM214 387v-20q0 -19 14.5 -30t39.5 -11t40 11t15 30v20q0 18 -14.5 29t-40.5 11
q-25 0 -39.5 -10.5t-14.5 -29.5zM277 -65q99 0 99 40q0 25 -39 25h-104q-45 0 -45 -29q0 -20 21 -28t68 -8z" />
    <glyph glyph-name="Gdotaccent" unicode="&#x120;" horiz-adv-x="789" 
d="M456 772h-142v163h142v-163zM28 355q0 188 97 285q98 98 260 98q138 0 229 -67q93 -67 106 -175h-211q-27 66 -121 66q-70 0 -108 -38.5t-38 -106.5v-114q0 -66 37.5 -105.5t102.5 -39.5q53 0 91 26t45 68h-170v157h389v-409h-165l-8 80h-7q-61 -90 -212 -90
q-149 0 -233 96t-84 269z" />
    <glyph glyph-name="gdotaccent" unicode="&#x121;" horiz-adv-x="572" 
d="M184 760h142v-163h-142v163zM264 146h106q94 0 145 -43.5t51 -120.5q0 -179 -304 -179q-252 0 -252 125q0 81 81 103v9q-28 10 -44.5 33.5t-16.5 52.5q0 75 83 104v9q-85 45 -85 139q0 79 62 127q62 49 165 49q47 0 85 -9v20q0 55 29 81t97 26h79v-148h-99v-25
q61 -48 61 -127t-63 -127q-62 -47 -166 -47q-26 0 -58 5q-17 -11 -17 -27q0 -30 61 -30zM214 387v-20q0 -19 14.5 -30t39.5 -11t40 11t15 30v20q0 18 -14.5 29t-40.5 11q-25 0 -39.5 -10.5t-14.5 -29.5zM277 -65q99 0 99 40q0 25 -39 25h-104q-45 0 -45 -29q0 -20 21 -28
t68 -8z" />
    <glyph glyph-name="uni0122" unicode="&#x122;" horiz-adv-x="789" 
d="M28 355q0 188 97 285q98 98 260 98q138 0 229 -67q93 -67 106 -175h-211q-27 66 -121 66q-70 0 -108 -38.5t-38 -106.5v-114q0 -66 37.5 -105.5t102.5 -39.5q53 0 91 26t45 68h-170v157h389v-409h-165l-8 80h-7q-61 -90 -212 -90q-149 0 -233 96t-84 269zM314 -317v52
q58 0 58 59v11h-58v146h142v-123q0 -70 -37.5 -107.5t-104.5 -37.5z" />
    <glyph glyph-name="uni0123" unicode="&#x123;" horiz-adv-x="572" 
d="M268 743h58v-146h-142v123q0 70 37.5 107.5t104.5 37.5v-52q-58 0 -58 -59v-11zM264 146h106q94 0 145 -43.5t51 -120.5q0 -179 -304 -179q-252 0 -252 125q0 81 81 103v9q-28 10 -44.5 33.5t-16.5 52.5q0 75 83 104v9q-85 45 -85 139q0 79 62 127q62 49 165 49
q47 0 85 -9v20q0 55 29 81t97 26h79v-148h-99v-25q61 -48 61 -127t-63 -127q-62 -47 -166 -47q-26 0 -58 5q-17 -11 -17 -27q0 -30 61 -30zM214 387v-20q0 -19 14.5 -30t39.5 -11t40 11t15 30v20q0 18 -14.5 29t-40.5 11q-25 0 -39.5 -10.5t-14.5 -29.5zM277 -65q99 0 99 40
q0 25 -39 25h-104q-45 0 -45 -29q0 -20 21 -28t68 -8z" />
    <glyph glyph-name="Hbar" unicode="&#x126;" horiz-adv-x="810" 
d="M747 646h46v-110h-46v-536h-203v291h-278v-291h-203v536h-46v110h46v83h203v-83h278v83h203v-83zM266 448h278v88h-278v-88z" />
    <glyph glyph-name="hbar" unicode="&#x127;" horiz-adv-x="652" 
d="M424 554q94 0 140 -60.5t46 -171.5v-322h-192v302q0 98 -84 98q-47 0 -71.5 -29t-24.5 -80v-291h-191v542h-80v116h80v92h191v-92h88v-116h-88v-95h10q50 107 176 107z" />
    <glyph glyph-name="Imacron" unicode="&#x12a;" horiz-adv-x="329" 
d="M358 772h-387v143h387v-143zM266 729v-729h-203v729h203z" />
    <glyph glyph-name="imacron" unicode="&#x12b;" horiz-adv-x="285" 
d="M336 587h-387v143h387v-143zM238 0h-191v544h191v-544z" />
    <glyph glyph-name="Iogonek" unicode="&#x12e;" horiz-adv-x="329" 
d="M233 -114q26 0 57 11v-95q-36 -18 -90 -18q-63 -1 -102 32.5t-39 87.5q0 59 43 96h-39v729h203v-729h-1q-97 -10 -97 -70q0 -44 65 -44z" />
    <glyph glyph-name="iogonek" unicode="&#x12f;" horiz-adv-x="285" 
d="M72 750h142v-163h-142v163zM191 -114q26 0 57 11v-95q-36 -18 -90 -18q-63 -1 -102 32.5t-39 87.5q0 59 43 96h-13v544h191v-544h-15q-97 -10 -97 -70q0 -44 65 -44z" />
    <glyph glyph-name="Idot" unicode="&#x130;" horiz-adv-x="329" 
d="M268 772h-205v163h205v-163zM266 729v-729h-203v729h203z" />
    <glyph glyph-name="dotlessi" unicode="&#x131;" horiz-adv-x="285" 
d="M238 0h-191v544h191v-544z" />
    <glyph glyph-name="Jcircumflex" unicode="&#x134;" horiz-adv-x="433" 
d="M222 1004h104l152 -145l-89 -88l-115 124l-115 -124l-89 88zM172 174v555h203v-570q0 -45 -11 -77q-7 -25 -23 -42q-40 -40 -125 -40h-201v174h157z" />
    <glyph glyph-name="jcircumflex" unicode="&#x135;" horiz-adv-x="289" 
d="M95 819h104l152 -145l-89 -88l-115 124l-115 -124l-89 88zM51 -19v563h191l-1 -446v-106q0 -45 -11 -77q-21 -77 -147 -82h-136v148h104z" />
    <glyph glyph-name="uni0136" unicode="&#x136;" horiz-adv-x="755" 
d="M742 729l-263 -315l273 -414h-246l-165 249l-75 -90v-159h-203v729h203v-284l226 284h250zM389 -195h-58v146h142v-123q0 -70 -37.5 -107.5t-104.5 -37.5v52q58 0 58 59v11z" />
    <glyph glyph-name="uni0137" unicode="&#x137;" horiz-adv-x="629" 
d="M628 544l-201 -211l212 -333h-217l-125 196l-56 -59v-137h-194v750h194v-374l153 168h234zM308 -195h-58v146h142v-123q0 -70 -37.5 -107.5t-104.5 -37.5v52q58 0 58 59v11z" />
    <glyph glyph-name="Lacute" unicode="&#x139;" horiz-adv-x="573" 
d="M414 911l-249 -140l-57 87l228 177zM536 0h-473v729h203v-550h270v-179z" />
    <glyph glyph-name="lacute" unicode="&#x13a;" horiz-adv-x="285" 
d="M392 932l-249 -140l-57 87l228 177zM238 0h-191v750h191v-750z" />
    <glyph glyph-name="uni013B" unicode="&#x13b;" horiz-adv-x="573" 
d="M536 0h-473v729h203v-550h270v-179zM229 -317v52q58 0 58 59v11h-58v146h142v-123q0 -70 -37.5 -107.5t-104.5 -37.5z" />
    <glyph glyph-name="uni013C" unicode="&#x13c;" horiz-adv-x="285" 
d="M238 0h-191v750h191v-750zM72 -317v52q58 0 58 59v11h-58v146h142v-123q0 -70 -37.5 -107.5t-104.5 -37.5z" />
    <glyph glyph-name="Lcaron" unicode="&#x13d;" horiz-adv-x="573" 
d="M536 0h-473v729h203v-550h270v-179zM314 446v50q43 0 60.5 16.5t17.5 50.5v22h-63v144h132v-146q0 -137 -147 -137z" />
    <glyph glyph-name="lcaron" unicode="&#x13e;" horiz-adv-x="285" 
d="M92 794l-153 147l89 87l115 -125l115 125l89 -87l-152 -147h-103zM238 0h-191v750h191v-750z" />
    <glyph glyph-name="Ldot" unicode="&#x13f;" horiz-adv-x="573" 
d="M536 0h-473v729h203v-550h270v-179zM330 458q0 41 26.5 67t66.5 26q39 0 65.5 -26t26.5 -67q0 -39 -26.5 -64.5t-65.5 -25.5t-66 25.5t-27 64.5z" />
    <glyph glyph-name="ldot" unicode="&#x140;" horiz-adv-x="529" 
d="M238 0h-191v750h191v-750zM315 388q0 41 26.5 67t66.5 26t66.5 -26t26.5 -67q0 -40 -26.5 -65.5t-66.5 -25.5t-66.5 25.5t-26.5 65.5z" />
    <glyph glyph-name="Lslash" unicode="&#x141;" horiz-adv-x="573" 
d="M266 325v-146h270v-179h-473v253l-64 -23v170l64 23v306h203v-234l139 49v-170z" />
    <glyph glyph-name="lslash" unicode="&#x142;" horiz-adv-x="285" 
d="M238 526l49 18v-170l-49 -18v-356h-191v284l-50 -19v170l50 19v296h191v-224z" />
    <glyph glyph-name="Nacute" unicode="&#x143;" horiz-adv-x="793" 
d="M635 911l-249 -140l-57 87l228 177zM266 0h-203v729h230l239 -437h8l-11 202v235h201v-729h-230l-237 431h-8l11 -195v-236z" />
    <glyph glyph-name="nacute" unicode="&#x144;" horiz-adv-x="651" 
d="M673 736l-249 -140l-57 87l228 177zM238 0h-191v544h168l23 -99h10q49 109 176 109q93 0 139 -61t46 -172v-321h-191v301q0 99 -84 99q-46 0 -71 -30t-25 -82v-288z" />
    <glyph glyph-name="uni0145" unicode="&#x145;" horiz-adv-x="793" 
d="M266 0h-203v729h230l239 -437h8l-11 202v235h201v-729h-230l-237 431h-8l11 -195v-236zM306 -268v52q58 0 58 59v11h-58v146h142v-123q0 -70 -37.5 -107.5t-104.5 -37.5z" />
    <glyph glyph-name="uni0146" unicode="&#x146;" horiz-adv-x="651" 
d="M238 0h-191v544h168l23 -99h10q49 109 176 109q93 0 139 -61t46 -172v-321h-191v301q0 99 -84 99q-46 0 -71 -30t-25 -82v-288zM257 -317v52q58 0 58 59v11h-58v146h142v-123q0 -70 -37.5 -107.5t-104.5 -37.5z" />
    <glyph glyph-name="Ncaron" unicode="&#x147;" horiz-adv-x="793" 
d="M335 773l-153 147l89 87l115 -125l115 125l89 -87l-152 -147h-103zM266 0h-203v729h230l239 -437h8l-11 202v235h201v-729h-230l-237 431h-8l11 -195v-236z" />
    <glyph glyph-name="ncaron" unicode="&#x148;" horiz-adv-x="651" 
d="M373 598l-153 147l89 87l115 -125l115 125l89 -87l-152 -147h-103zM238 0h-191v544h168l23 -99h10q49 109 176 109q93 0 139 -61t46 -172v-321h-191v301q0 99 -84 99q-46 0 -71 -30t-25 -82v-288z" />
    <glyph glyph-name="Eng" unicode="&#x14a;" horiz-adv-x="793" 
d="M529 494v235h201v-741q0 -46 -11 -76q-21 -74 -147 -79h-136v128h104v39h-40l-237 431h-8l11 -195v-236h-203v729h230l239 -437h8z" />
    <glyph glyph-name="eng" unicode="&#x14b;" horiz-adv-x="651" 
d="M424 554q93 0 139 -61t46 -172v-329q0 -45 -11 -77q-21 -77 -147 -82h-136v132h103v336q0 99 -84 99q-46 0 -71 -30t-25 -82v-288h-191v544h168l23 -99h10q49 109 176 109z" />
    <glyph glyph-name="Omacron" unicode="&#x14c;" horiz-adv-x="782" 
d="M583 772h-387v143h387v-143zM28 362q0 170 100 273t263 103t263 -103t100 -273q0 -168 -99 -270q-97 -102 -264 -102q-166 0 -265 102q-98 103 -98 270zM242 416v-104q0 -68 40 -107t109 -39t109 39.5t40 106.5v104q0 68 -40 107t-109 39t-109 -39.5t-40 -106.5z" />
    <glyph glyph-name="omacron" unicode="&#x14d;" horiz-adv-x="598" 
d="M492 597h-387v143h387v-143zM20 273q0 127 74 204q75 77 205 77q125 0 202 -75q77 -74 77 -206q0 -129 -75 -206q-74 -77 -204 -77q-125 0 -202 75t-77 208zM214 315v-86q0 -85 85 -85t85 85v86q0 85 -85 85t-85 -85z" />
    <glyph glyph-name="Ohungarumlaut" unicode="&#x150;" horiz-adv-x="782" 
d="M501 903l-242 -141l-56 86l222 176zM768 903l-243 -141l-55 86l220 176zM28 362q0 170 100 273t263 103t263 -103t100 -273q0 -168 -99 -270q-97 -102 -264 -102q-166 0 -265 102q-98 103 -98 270zM242 416v-104q0 -68 40 -107t109 -39t109 39.5t40 106.5v104
q0 68 -40 107t-109 39t-109 -39.5t-40 -106.5z" />
    <glyph glyph-name="ohungarumlaut" unicode="&#x151;" horiz-adv-x="598" 
d="M410 728l-242 -141l-56 86l222 176zM677 728l-243 -141l-55 86l220 176zM20 273q0 127 74 204q75 77 205 77q125 0 202 -75q77 -74 77 -206q0 -129 -75 -206q-74 -77 -204 -77q-125 0 -202 75t-77 208zM214 315v-86q0 -85 85 -85t85 85v86q0 85 -85 85t-85 -85z" />
    <glyph glyph-name="OE" unicode="&#x152;" horiz-adv-x="989" 
d="M28 363q0 170 95 268t287 98h537v-172h-331v-98h278v-161h-278v-126h331v-172h-537q-188 0 -285 95.5t-97 267.5zM240 408v-80q0 -76 44 -116t122 -40h7v385h-7q-81 0 -123.5 -39.5t-42.5 -109.5z" />
    <glyph glyph-name="oe" unicode="&#x153;" horiz-adv-x="960" 
d="M752 174h188q-15 -85 -87 -134q-73 -50 -179 -50q-117 0 -188 61q-73 -61 -187 -61q-125 0 -202 75t-77 208q0 127 74 204q75 77 205 77q114 0 187 -61q71 61 185 61q118 0 192 -68q73 -67 73 -187q0 -34 -5 -72h-339v-28q0 -30 22.5 -48t56.5 -18q64 0 81 41zM592 352
v-4h153v4q0 27 -21 43.5t-56 16.5q-34 0 -55 -16.5t-21 -43.5zM384 229v86q0 85 -85 85t-85 -85v-86q0 -85 85 -85t85 85z" />
    <glyph glyph-name="Racute" unicode="&#x154;" horiz-adv-x="727" 
d="M633 911l-249 -140l-57 87l228 177zM266 0h-203v729h392q108 0 167.5 -57t59.5 -155q0 -65 -31.5 -111.5t-86.5 -65.5v-8h21q97 0 97 -107v-225h-208v243h-208v-243zM266 557v-155h129q71 0 71 60v35q0 60 -71 60h-129z" />
    <glyph glyph-name="racute" unicode="&#x155;" horiz-adv-x="392" 
d="M397 850l78 -124l-249 -140l-57 87zM47 0v385q0 51 13 85q32 74 145 74h183v-153h-150v-391h-191z" />
    <glyph glyph-name="uni0156" unicode="&#x156;" horiz-adv-x="727" 
d="M266 0h-203v729h392q108 0 167.5 -57t59.5 -155q0 -65 -31.5 -111.5t-86.5 -65.5v-8h21q97 0 97 -107v-225h-208v243h-208v-243zM266 557v-155h129q71 0 71 60v35q0 60 -71 60h-129zM307 -317v52q58 0 58 59v11h-58v146h142v-123q0 -70 -37.5 -107.5t-104.5 -37.5z" />
    <glyph glyph-name="uni0157" unicode="&#x157;" horiz-adv-x="392" 
d="M205 544h183v-153h-150v-391h-191v385q0 51 13 85q32 74 145 74zM129 -195h-58v146h142v-123q0 -70 -37.5 -107.5t-104.5 -37.5v52q58 0 58 59v11z" />
    <glyph glyph-name="Rcaron" unicode="&#x158;" horiz-adv-x="727" 
d="M333 773l-153 147l89 87l115 -125l115 125l89 -87l-152 -147h-103zM266 0h-203v729h392q108 0 167.5 -57t59.5 -155q0 -65 -31.5 -111.5t-86.5 -65.5v-8h21q97 0 97 -107v-225h-208v243h-208v-243zM266 557v-155h129q71 0 71 60v35q0 60 -71 60h-129z" />
    <glyph glyph-name="rcaron" unicode="&#x159;" horiz-adv-x="392" 
d="M430 735l-152 -147h-103l-153 147l89 87l115 -125l115 125zM47 0v385q0 51 13 85q32 74 145 74h183v-153h-150v-391h-191z" />
    <glyph glyph-name="Sacute" unicode="&#x15a;" horiz-adv-x="675" 
d="M580 911l-249 -140l-57 87l228 177zM19 231h210q2 -37 32.5 -59t81.5 -22q42 0 66 16t24 44q0 31 -28 43q-14 9 -49 14l-103 21q-6 1 -13.5 2.5t-12 3t-8.5 1.5l-39 11q-28 9 -44 18q-52 30 -74 62q-31 52 -31 113q0 109 81 174q83 65 216 65q131 0 213 -61
q83 -60 84 -159h-211q-2 29 -27.5 46t-64.5 17q-76 0 -76 -51q0 -20 23 -39q4 -2 16 -6l15 -5l31 -5l110 -21q208 -40 208 -218q0 -117 -85 -181q-86 -65 -228 -65q-143 0 -230 66t-87 175z" />
    <glyph glyph-name="sacute" unicode="&#x15b;" horiz-adv-x="546" 
d="M516 736l-249 -140l-57 87l228 177zM22 174h188q1 -52 66 -52q54 0 54 35q0 22 -16 27q-15 6 -31 9l-86 14q-168 29 -168 164q0 86 64 134.5t174 48.5q109 0 173 -47t67 -127h-188q0 42 -55 42q-44 0 -44 -34q0 -13 10 -22q13 -10 50 -15l86 -13q158 -24 158 -161
q0 -88 -67 -137.5t-183 -49.5q-118 0 -185 50.5t-67 133.5z" />
    <glyph glyph-name="Scedilla" unicode="&#x15e;" horiz-adv-x="675" 
d="M649 236q0 -111 -78 -176t-212 -70l-16 -30q33 1 68 -20q34 -22 34 -69q0 -40 -24.5 -68.5t-60 -39t-77 -7.5t-75.5 21v85q47 -27 83 -20q37 7 37 43q0 26 -28 33t-52 -8v43l25 41q-116 13 -186 77q-68 65 -68 160h210q2 -37 32.5 -59t81.5 -22q42 0 66 16t24 44
q0 31 -28 43q-14 9 -49 14l-103 21q-6 1 -13.5 2.5t-12 3t-8.5 1.5l-39 11q-28 9 -44 18q-52 30 -74 62q-31 52 -31 113q0 109 81 174q83 65 216 65q131 0 213 -61q83 -60 84 -159h-211q-2 29 -27.5 46t-64.5 17q-76 0 -76 -51q0 -20 23 -39q4 -2 16 -6l15 -5l31 -5l110 -21
q208 -40 208 -218z" />
    <glyph glyph-name="scedilla" unicode="&#x15f;" horiz-adv-x="546" 
d="M524 177q0 -84 -61.5 -133t-167.5 -54l-21 -40q33 1 68 -20q34 -22 34 -69q0 -40 -24.5 -68.5t-60 -39t-77 -7.5t-75.5 21v85q47 -27 83 -20q37 7 37 43q0 26 -28 33t-52 -8v43l31 51q-89 13 -138.5 61t-49.5 119h188q1 -52 66 -52q54 0 54 35q0 22 -16 27q-15 6 -31 9
l-86 14q-168 29 -168 164q0 86 64 134.5t174 48.5q109 0 173 -47t67 -127h-188q0 42 -55 42q-44 0 -44 -34q0 -13 10 -22q13 -10 50 -15l86 -13q158 -24 158 -161z" />
    <glyph glyph-name="Scaron" unicode="&#x160;" horiz-adv-x="675" 
d="M280 773l-153 147l89 87l115 -125l115 125l89 -87l-152 -147h-103zM19 231h210q2 -37 32.5 -59t81.5 -22q42 0 66 16t24 44q0 31 -28 43q-14 9 -49 14l-103 21q-6 1 -13.5 2.5t-12 3t-8.5 1.5l-39 11q-28 9 -44 18q-52 30 -74 62q-31 52 -31 113q0 109 81 174
q83 65 216 65q131 0 213 -61q83 -60 84 -159h-211q-2 29 -27.5 46t-64.5 17q-76 0 -76 -51q0 -20 23 -39q4 -2 16 -6l15 -5l31 -5l110 -21q208 -40 208 -218q0 -117 -85 -181q-86 -65 -228 -65q-143 0 -230 66t-87 175z" />
    <glyph glyph-name="scaron" unicode="&#x161;" horiz-adv-x="546" 
d="M216 598l-153 147l89 87l115 -125l115 125l89 -87l-152 -147h-103zM22 174h188q1 -52 66 -52q54 0 54 35q0 22 -16 27q-15 6 -31 9l-86 14q-168 29 -168 164q0 86 64 134.5t174 48.5q109 0 173 -47t67 -127h-188q0 42 -55 42q-44 0 -44 -34q0 -13 10 -22q13 -10 50 -15
l86 -13q158 -24 158 -161q0 -88 -67 -137.5t-183 -49.5q-118 0 -185 50.5t-67 133.5z" />
    <glyph glyph-name="uni0162" unicode="&#x162;" horiz-adv-x="585" 
d="M7 729h571v-174h-187v-555h-81l-21 -40q33 1 68 -20q34 -22 34 -69q0 -40 -24.5 -68.5t-60 -39t-77 -7.5t-75.5 21v85q47 -27 83 -20q37 7 37 43q0 26 -28 33t-52 -8v43l29 47h-35v555h-181v174z" />
    <glyph glyph-name="uni0163" unicode="&#x163;" horiz-adv-x="418" 
d="M393 391h-104v-243h104v-148h-128l-21 -40q33 1 68 -20q34 -22 34 -69q0 -40 -24.5 -68.5t-60 -39t-77 -7.5t-75.5 21v85q47 -27 83 -20q37 7 37 43q0 26 -28 33t-52 -8v43l33 55q-83 26 -83 137v246h-95v153h95v165h190v-165h104v-153z" />
    <glyph glyph-name="Tcaron" unicode="&#x164;" horiz-adv-x="585" 
d="M497 920l-152 -147h-103l-153 147l89 87l115 -125l115 125zM7 729h571v-174h-187v-555h-203v555h-181v174z" />
    <glyph glyph-name="tcaron" unicode="&#x165;" horiz-adv-x="418" 
d="M398 900l-152 -147h-103l-153 147l89 87l115 -125l115 125zM99 709h190v-165h104v-153h-104v-243h104v-148h-149q-76 0 -110.5 36.5t-34.5 108.5v246h-95v153h95v165z" />
    <glyph glyph-name="Tbar" unicode="&#x166;" horiz-adv-x="585" 
d="M578 729v-174h-187v-122h114v-156h-114v-277h-203v277h-108v156h108v122h-181v174h571z" />
    <glyph glyph-name="tbar" unicode="&#x167;" horiz-adv-x="418" 
d="M393 544v-153h-104v-34h104v-160h-104v-49h104v-148h-149q-76 0 -110.5 36.5t-34.5 108.5v52h-95v160h95v34h-95v153h95v165h190v-165h104z" />
    <glyph glyph-name="Umacron" unicode="&#x16a;" horiz-adv-x="769" 
d="M577 772h-387v143h387v-143zM57 284v445h202v-433q0 -60 33 -93.5t93 -33.5t92.5 32.5t32.5 94.5v433h202v-445q0 -138 -90 -216q-88 -78 -239 -78q-161 0 -243.5 77t-82.5 217z" />
    <glyph glyph-name="umacron" unicode="&#x16b;" horiz-adv-x="646" 
d="M514 587h-387v143h387v-143zM408 544h191v-544h-169l-23 99h-11q-49 -109 -171 -109q-90 0 -136.5 57.5t-46.5 160.5v336h192v-305q0 -95 81 -95q43 0 68 30.5t25 81.5v288z" />
    <glyph glyph-name="Uring" unicode="&#x16e;" horiz-adv-x="769" 
d="M483 915q39 -36 39 -95q0 -58 -39 -96q-39 -36 -99 -36t-99 36q-39 38 -39 96q0 59 38 95q39 36 100 36q62 0 99 -36zM345 820q-3 -26 18 -37t42 0t19 37q2 26 -19 37.5t-42 0.5t-18 -38zM57 284v445h202v-433q0 -60 33 -93.5t93 -33.5t92.5 32.5t32.5 94.5v433h202v-445
q0 -138 -90 -216q-88 -78 -239 -78q-161 0 -243.5 77t-82.5 217z" />
    <glyph glyph-name="uring" unicode="&#x16f;" horiz-adv-x="646" 
d="M425 544h174v-544h-169l-23 99h-11q-49 -109 -171 -109q-90 0 -136.5 57.5t-46.5 160.5v336h175q-34 37 -34 91q0 59 38.5 95t99.5 36t99.5 -36t38.5 -95q0 -54 -34 -91zM282 635q-3 -26 18 -37t42 0t19 37q2 26 -19 37.5t-42 0.5t-18 -38zM315 144q43 0 68 30.5t25 81.5
v273q-35 -26 -87 -26t-87 26v-290q0 -95 81 -95z" />
    <glyph glyph-name="Uhungarumlaut" unicode="&#x170;" horiz-adv-x="769" 
d="M495 903l-242 -141l-56 86l222 176zM762 903l-243 -141l-55 86l220 176zM57 284v445h202v-433q0 -60 33 -93.5t93 -33.5t92.5 32.5t32.5 94.5v433h202v-445q0 -138 -90 -216q-88 -78 -239 -78q-161 0 -243.5 77t-82.5 217z" />
    <glyph glyph-name="uhungarumlaut" unicode="&#x171;" horiz-adv-x="646" 
d="M432 718l-242 -141l-56 86l222 176zM699 718l-243 -141l-55 86l220 176zM408 544h191v-544h-169l-23 99h-11q-49 -109 -171 -109q-90 0 -136.5 57.5t-46.5 160.5v336h192v-305q0 -95 81 -95q43 0 68 30.5t25 81.5v288z" />
    <glyph glyph-name="Uogonek" unicode="&#x172;" horiz-adv-x="769" 
d="M510 296v433h202v-445q0 -112 -60 -185.5t-168 -97.5l1 -1q-1 0 -4 -0.5t-4 -0.5q-16 -4 -21 -4q-68 -15 -68 -65q0 -44 65 -44q26 0 57 11v-95q-36 -18 -90 -18q-63 -1 -102 32.5t-39 87.5q0 53 37 90q-129 15 -194 90t-65 200v445h202v-433q0 -60 33 -93.5t93 -33.5
t92.5 32.5t32.5 94.5z" />
    <glyph glyph-name="uogonek" unicode="&#x173;" horiz-adv-x="646" 
d="M567 -114q26 0 57 11v-95q-36 -18 -90 -18q-63 -1 -102 32.5t-39 87.5q0 59 43 96h-6l-23 99h-11q-49 -109 -171 -109q-90 0 -136.5 57.5t-46.5 160.5v336h192v-305q0 -95 81 -95q43 0 68 30.5t25 81.5v288h191v-544q-97 -10 -97 -70q0 -44 65 -44z" />
    <glyph glyph-name="Wcircumflex" unicode="&#x174;" horiz-adv-x="1023" 
d="M394 771l-89 88l152 145h104l152 -145l-89 -88l-115 124zM153 0l-148 729h224l51 -329l24 -179h9l77 508h246l81 -510h8l21 178l48 332h224l-148 -729h-276l-77 450h-8l-80 -450h-276z" />
    <glyph glyph-name="wcircumflex" unicode="&#x175;" horiz-adv-x="823" 
d="M527 586l-115 124l-115 -124l-89 88l152 145h104l152 -145zM598 352l38 192h184l-132 -544h-230l-33 203l-14 97h-6l-14 -96l-33 -204h-225l-130 544h183l33 -190l29 -163h8l53 353h206l50 -356h5z" />
    <glyph glyph-name="Ycircumflex" unicode="&#x176;" horiz-adv-x="742" 
d="M255 771l-89 88l152 145h104l152 -145l-89 -88l-115 124zM269 269l-270 460h239l57 -129l71 -153h8l71 149l60 133h238l-271 -460v-269h-203v269z" />
    <glyph glyph-name="ycircumflex" unicode="&#x177;" horiz-adv-x="600" 
d="M183 588l-89 88l152 145h104l152 -145l-89 -88l-115 124zM203 78l-218 466h199l59 -157l50 -150h6l53 151l60 156h198l-217 -466v-86q0 -59 -22 -101q-27 -58 -135 -58h-145v148h112v97z" />
    <glyph glyph-name="Ydieresis" unicode="&#x178;" horiz-adv-x="742" 
d="M330 772h-142v163h142v-163zM551 772h-142v163h142v-163zM269 269l-270 460h239l57 -129l71 -153h8l71 149l60 133h238l-271 -460v-269h-203v269z" />
    <glyph glyph-name="Zacute" unicode="&#x179;" horiz-adv-x="592" 
d="M441 1035l78 -124l-249 -140l-57 87zM20 729h549v-165l-299 -392h293v-172h-543v167l296 389h-296v173z" />
    <glyph glyph-name="zacute" unicode="&#x17a;" horiz-adv-x="505" 
d="M421 850l78 -124l-249 -140l-57 87zM469 544v-133l-202 -258h207v-153h-440v136l202 255h-205v153h438z" />
    <glyph glyph-name="Zdotaccent" unicode="&#x17b;" horiz-adv-x="592" 
d="M199 935h142v-163h-142v163zM20 729h549v-165l-299 -392h293v-172h-543v167l296 389h-296v173z" />
    <glyph glyph-name="zdotaccent" unicode="&#x17c;" horiz-adv-x="505" 
d="M179 750h142v-163h-142v163zM469 411l-202 -258h207v-153h-440v136l202 255h-205v153h438v-133z" />
    <glyph glyph-name="Zcaron" unicode="&#x17d;" horiz-adv-x="592" 
d="M474 920l-152 -147h-103l-153 147l89 87l115 -125l115 125zM20 729h549v-165l-299 -392h293v-172h-543v167l296 389h-296v173z" />
    <glyph glyph-name="zcaron" unicode="&#x17e;" horiz-adv-x="505" 
d="M454 735l-152 -147h-103l-153 147l89 87l115 -125l115 125zM469 411l-202 -258h207v-153h-440v136l202 255h-205v153h438v-133z" />
    <glyph glyph-name="uni018F" unicode="&#x18f;" horiz-adv-x="724" 
d="M362 739q157 0 245.5 -96.5t88.5 -270.5q0 -176 -90 -279q-88 -103 -248 -103q-154 0 -242 96q-88 97 -88 265q0 49 6 68h445q0 71 -32 107t-92 36q-92 0 -116 -81h-205q25 123 111.5 190.5t216.5 67.5zM358 161q48 0 79 27.5t39 78.5h-229q10 -106 111 -106z" />
    <glyph glyph-name="florin" unicode="&#x192;" horiz-adv-x="644" 
d="M211 -152h-166v152h154l39 320h-99v151h120l16 117q21 141 175 141h170v-152h-156l-14 -106h101v-151h-123l-36 -313q-18 -159 -181 -159z" />
    <glyph glyph-name="AEacute" unicode="&#x1fc;" horiz-adv-x="1007" 
d="M762 1035l78 -124l-249 -140l-57 87zM965 729v-172h-316v-115h264v-160h-264v-110h316v-172h-519v144h-200l-41 -144h-209l221 729h748zM289 298h157v259h-84z" />
    <glyph glyph-name="Oslashacute" unicode="&#x1fe;" horiz-adv-x="782" 
d="M562 1035l78 -124l-249 -140l-57 87zM701 680l84 -118l-59 -42q28 -72 28 -158q0 -168 -99 -270q-97 -102 -264 -102q-165 0 -262 100l-57 -41l-74 125l54 39q-24 67 -24 149q0 170 100 273t263 103q158 0 256 -97zM242 416v-66l250 180q-38 32 -101 32q-69 0 -109 -39.5
t-40 -106.5zM540 312v74l-255 -184q41 -36 106 -36q69 0 109 39.5t40 106.5z" />
    <glyph glyph-name="oslashacute" unicode="&#x1ff;" horiz-adv-x="598" 
d="M470 860l78 -124l-249 -140l-57 87zM545 524l66 -98l-52 -38q19 -51 19 -115q0 -129 -75 -206q-74 -77 -204 -77q-118 0 -195 68l-51 -37l-65 97l51 38q-19 53 -19 117q0 127 74 204q75 77 205 77q121 0 195 -67zM214 315v-32l141 102q-21 15 -56 15q-85 0 -85 -85z
M384 229v32l-141 -102q21 -15 56 -15q85 0 85 85z" />
    <glyph glyph-name="uni0218" unicode="&#x218;" horiz-adv-x="675" 
d="M19 231h210q2 -37 32.5 -59t81.5 -22q42 0 66 16t24 44q0 31 -28 43q-14 9 -49 14l-103 21q-6 1 -13.5 2.5t-12 3t-8.5 1.5l-39 11q-28 9 -44 18q-52 30 -74 62q-31 52 -31 113q0 109 81 174q83 65 216 65q131 0 213 -61q83 -60 84 -159h-211q-2 29 -27.5 46t-64.5 17
q-76 0 -76 -51q0 -20 23 -39q4 -2 16 -6l15 -5l31 -5l110 -21q208 -40 208 -218q0 -117 -85 -181q-86 -65 -228 -65q-143 0 -230 66t-87 175zM272 -317v52q58 0 58 59v11h-58v146h142v-123q0 -70 -37.5 -107.5t-104.5 -37.5z" />
    <glyph glyph-name="uni0219" unicode="&#x219;" horiz-adv-x="546" 
d="M22 174h188q1 -52 66 -52q54 0 54 35q0 22 -16 27q-15 6 -31 9l-86 14q-168 29 -168 164q0 86 64 134.5t174 48.5q109 0 173 -47t67 -127h-188q0 42 -55 42q-44 0 -44 -34q0 -13 10 -22q13 -10 50 -15l86 -13q158 -24 158 -161q0 -88 -67 -137.5t-183 -49.5
q-118 0 -185 50.5t-67 133.5zM203 -327v52q58 0 58 59v11h-58v146h142v-123q0 -70 -37.5 -107.5t-104.5 -37.5z" />
    <glyph glyph-name="uni021A" unicode="&#x21a;" horiz-adv-x="585" 
d="M7 729h571v-174h-187v-555h-203v555h-181v174zM276 -195h-58v146h142v-123q0 -70 -37.5 -107.5t-104.5 -37.5v52q58 0 58 59v11z" />
    <glyph glyph-name="uni021B" unicode="&#x21b;" horiz-adv-x="418" 
d="M393 391h-104v-243h104v-148h-149q-76 0 -110.5 36.5t-34.5 108.5v246h-95v153h95v165h190v-165h104v-153zM231 -195h-58v146h142v-123q0 -70 -37.5 -107.5t-104.5 -37.5v52q58 0 58 59v11z" />
    <glyph glyph-name="uni0237" unicode="&#x237;" horiz-adv-x="289" 
d="M51 -19v563h191l-1 -446v-106q0 -45 -11 -77q-21 -77 -147 -82h-136v148h104z" />
    <glyph glyph-name="circumflex" unicode="&#x2c6;" horiz-adv-x="389" 
d="M80 711l-89 88l152 145h104l152 -145l-89 -88l-115 124z" />
    <glyph glyph-name="caron" unicode="&#x2c7;" horiz-adv-x="389" 
d="M144 729l-153 147l89 87l115 -125l115 125l89 -87l-152 -147h-103z" />
    <glyph glyph-name="breve" unicode="&#x2d8;" horiz-adv-x="346" 
d="M234 895h113q0 -77 -47.5 -125.5t-127.5 -48.5t-126.5 48.5t-46.5 125.5h113q0 -70 60 -70q29 0 45.5 18t16.5 52z" />
    <glyph glyph-name="dotaccent" unicode="&#x2d9;" horiz-adv-x="242" 
d="M192 729h-142v163h142v-163z" />
    <glyph glyph-name="ring" unicode="&#x2da;" horiz-adv-x="332" 
d="M269 899q39 -36 39 -95q0 -58 -39 -96q-39 -36 -99 -36t-99 36q-39 38 -39 96q0 59 38 95q39 36 100 36q62 0 99 -36zM131 804q-3 -26 18 -37t42 0t19 37q2 26 -19 37.5t-42 0.5t-18 -38z" />
    <glyph glyph-name="ogonek" unicode="&#x2db;" horiz-adv-x="400" 
d="M59 -96q0 60 45.5 98t122.5 47l38 -49q-97 -10 -97 -70q0 -44 65 -44q26 0 57 11v-95q-36 -18 -90 -18q-63 -1 -102 32.5t-39 87.5z" />
    <glyph glyph-name="tilde" unicode="&#x2dc;" horiz-adv-x="360" 
d="M242 730q-30 2 -64 20q-37 20 -59 20q-31 0 -65 -39l-74 50q23 60 59.5 89t78.5 28q33 -2 66 -20q34 -18 59 -18q38 0 58 34l3 6l76 -47q-20 -61 -57 -92.5t-81 -30.5z" />
    <glyph glyph-name="hungarumlaut" unicode="&#x2dd;" horiz-adv-x="619" 
d="M339 852l-242 -141l-56 86l222 176zM606 852l-243 -141l-55 86l220 176z" />
    <glyph glyph-name="gravecomb" unicode="&#x300;" 
d="M-34 798l-57 -87l-249 140l78 124z" />
    <glyph glyph-name="acutecomb" unicode="&#x301;" 
d="M-34 851l-249 -140l-57 87l228 177z" />
    <glyph glyph-name="uni0302" unicode="&#x302;" 
d="M-309 711l-89 88l152 145h104l152 -145l-89 -88l-115 124z" />
    <glyph glyph-name="tildecomb" unicode="&#x303;" 
d="M-118 730q-30 2 -64 20q-37 20 -59 20q-31 0 -65 -39l-74 50q23 60 59.5 89t78.5 28q33 -2 66 -20q34 -18 59 -18q38 0 58 34l3 6l76 -47q-20 -61 -57 -92.5t-81 -30.5z" />
    <glyph glyph-name="uni0304" unicode="&#x304;" 
d="M15 746h-387v143h387v-143z" />
    <glyph glyph-name="uni0306" unicode="&#x306;" 
d="M-112 895h113q0 -77 -47.5 -125.5t-127.5 -48.5t-126.5 48.5t-46.5 125.5h113q0 -70 60 -70q29 0 45.5 18t16.5 52z" />
    <glyph glyph-name="uni0307" unicode="&#x307;" 
d="M-50 729h-142v163h142v-163z" />
    <glyph glyph-name="uni0308" unicode="&#x308;" 
d="M-258 729h-142v163h142v-163zM-37 729h-142v163h142v-163z" />
    <glyph glyph-name="uni030A" unicode="&#x30a;" 
d="M-62 899q38 -36 38 -95q0 -58 -39 -96q-39 -36 -99 -36t-99 36q-39 38 -39 96q0 59 39 95q37 36 99 36q61 0 100 -36zM-201 804q-3 -26 18 -37t42 0t19 37q2 26 -19 37.5t-42 0.5t-18 -38z" />
    <glyph glyph-name="uni030B" unicode="&#x30b;" 
d="M-280 852l-242 -141l-56 86l222 176zM-13 852l-243 -141l-55 86l220 176z" />
    <glyph glyph-name="uni030C" unicode="&#x30c;" 
d="M-245 729l-153 147l89 87l115 -125l115 125l89 -87l-152 -147h-103z" />
    <glyph glyph-name="uni0312" unicode="&#x312;" 
d="M-52 997v-52q-58 0 -58 -59v-11h58v-146h-142v123q0 70 37.5 107.5t104.5 37.5z" />
    <glyph glyph-name="uni0326" unicode="&#x326;" 
d="M-177 -294v52q58 0 58 59v11h-58v146h142v-123q0 -70 -37.5 -107.5t-104.5 -37.5z" />
    <glyph glyph-name="uni0327" unicode="&#x327;" 
d="M-189 16l-29 -56q33 1 68 -20q34 -22 34 -69q0 -40 -24.5 -68.5t-60 -39t-77 -7.5t-75.5 21v85q47 -27 84 -20q36 8 36 43q0 26 -28 33t-52 -8v43l51 84h73v-21z" />
    <glyph glyph-name="uni0328" unicode="&#x328;" 
d="M-341 -96q0 60 45.5 98t122.5 47l38 -49q-97 -10 -97 -70q0 -44 65 -44q26 0 57 11v-95q-36 -18 -90 -18q-63 -1 -102 32.5t-39 87.5z" />
    <glyph glyph-name="uni0335" unicode="&#x335;" 
d="M-83 293h-452v144h452v-144z" />
    <glyph glyph-name="uni0336" unicode="&#x336;" 
 />
    <glyph glyph-name="uni0337" unicode="&#x337;" 
d="M-256 0h-94l264 729h95z" />
    <glyph glyph-name="uni0338" unicode="&#x338;" 
d="M-256 0h-94l264 729h95z" />
    <glyph glyph-name="uni03BC" unicode="&#x3bc;" horiz-adv-x="625" 
d="M219 -173h-172l2 717h190v-339q0 -33 19.5 -52.5t51.5 -19.5q36 0 56.5 21t20.5 55v335h191v-544h-182l3 52h-11q-11 -62 -94 -62q-47 0 -65 23h-10v-186z" />
    <glyph glyph-name="pi" unicode="&#x3c0;" horiz-adv-x="642" 
d="M89 419h-77v125h617v-125h-76v-271h78v-148h-111q-82 0 -117.5 36t-35.5 109v274h-92v-419h-186v419z" />
    <glyph glyph-name="omega" unicode="&#x3c9;" horiz-adv-x="765" 
d="M36 433q0 141 91 223q92 83 255 83q158 0 253 -81q94 -79 94 -225q0 -86 -46 -157q-48 -72 -121 -103v-22h134v-151h-284v278q53 10 86.5 46.5t33.5 90.5v34q0 60 -42.5 94.5t-107.5 34.5t-107.5 -35t-42.5 -94v-36q0 -53 34 -89t87 -46v-278h-286v151h135v22
q-74 31 -121 102q-45 72 -45 158z" />
    <glyph glyph-name="Wgrave" unicode="&#x1e80;" horiz-adv-x="1023" 
d="M566 858l-57 -87l-249 140l78 124zM153 0l-148 729h224l51 -329l24 -179h9l77 508h246l81 -510h8l21 178l48 332h224l-148 -729h-276l-77 450h-8l-80 -450h-276z" />
    <glyph glyph-name="wgrave" unicode="&#x1e81;" horiz-adv-x="823" 
d="M241 850l228 -177l-57 -87l-249 140zM598 352l38 192h184l-132 -544h-230l-33 203l-14 97h-6l-14 -96l-33 -204h-225l-130 544h183l33 -190l29 -163h8l53 353h206l50 -356h5z" />
    <glyph glyph-name="Wacute" unicode="&#x1e82;" horiz-adv-x="1023" 
d="M758 911l-249 -140l-57 87l228 177zM153 0l-148 729h224l51 -329l24 -179h9l77 508h246l81 -510h8l21 178l48 332h224l-148 -729h-276l-77 450h-8l-80 -450h-276z" />
    <glyph glyph-name="wacute" unicode="&#x1e83;" horiz-adv-x="823" 
d="M583 850l78 -124l-249 -140l-57 87zM598 352l38 192h184l-132 -544h-230l-33 203l-14 97h-6l-14 -96l-33 -204h-225l-130 544h183l33 -190l29 -163h8l53 353h206l50 -356h5z" />
    <glyph glyph-name="Wdieresis" unicode="&#x1e84;" horiz-adv-x="1023" 
d="M469 772h-142v163h142v-163zM690 772h-142v163h142v-163zM153 0l-148 729h224l51 -329l24 -179h9l77 508h246l81 -510h8l21 178l48 332h224l-148 -729h-276l-77 450h-8l-80 -450h-276z" />
    <glyph glyph-name="wdieresis" unicode="&#x1e85;" horiz-adv-x="823" 
d="M230 750h142v-163h-142v163zM451 750h142v-163h-142v163zM598 352l38 192h184l-132 -544h-230l-33 203l-14 97h-6l-14 -96l-33 -204h-225l-130 544h183l33 -190l29 -163h8l53 353h206l50 -356h5z" />
    <glyph glyph-name="Ygrave" unicode="&#x1ef2;" horiz-adv-x="742" 
d="M427 858l-57 -87l-249 140l78 124zM269 269l-270 460h239l57 -129l71 -153h8l71 149l60 133h238l-271 -460v-269h-203v269z" />
    <glyph glyph-name="ygrave" unicode="&#x1ef3;" horiz-adv-x="600" 
d="M355 675l-57 -87l-249 140l78 124zM203 78l-218 466h199l59 -157l50 -150h6l53 151l60 156h198l-217 -466v-86q0 -59 -22 -101q-27 -58 -135 -58h-145v148h112v97z" />
    <glyph glyph-name="endash" unicode="&#x2013;" horiz-adv-x="657" 
d="M603 250h-550v100h550v-100z" />
    <glyph glyph-name="emdash" unicode="&#x2014;" horiz-adv-x="853" 
d="M799 250h-746v100h746v-100z" />
    <glyph glyph-name="quoteleft" unicode="&#x2018;" horiz-adv-x="247" 
d="M214 760v-63q-55 0 -77.5 -21t-22.5 -65v-28h81v-184h-169v187q0 174 188 174z" />
    <glyph glyph-name="quoteright" unicode="&#x2019;" horiz-adv-x="247" 
d="M33 389v63q55 0 77.5 21t22.5 65v28h-81v184h169v-187q0 -174 -188 -174z" />
    <glyph glyph-name="quotesinglbase" unicode="&#x201a;" horiz-adv-x="247" 
d="M33 -177v63q55 0 77.5 21t22.5 65v28h-81v184h169v-187q0 -174 -188 -174z" />
    <glyph glyph-name="quotedblleft" unicode="&#x201c;" horiz-adv-x="494" 
d="M214 760v-63q-55 0 -77.5 -21t-22.5 -65v-28h81v-184h-169v187q0 174 188 174zM461 760v-63q-55 0 -77.5 -21t-22.5 -65v-28h81v-184h-169v187q0 174 188 174z" />
    <glyph glyph-name="quotedblright" unicode="&#x201d;" horiz-adv-x="494" 
d="M33 389v63q55 0 77.5 21t22.5 65v28h-81v184h169v-187q0 -174 -188 -174zM280 389v63q55 0 77.5 21t22.5 65v28h-81v184h169v-187q0 -174 -188 -174z" />
    <glyph glyph-name="quotedblbase" unicode="&#x201e;" horiz-adv-x="494" 
d="M33 -177v63q55 0 77.5 21t22.5 65v28h-81v184h169v-187q0 -174 -188 -174zM280 -177v63q55 0 77.5 21t22.5 65v28h-81v184h169v-187q0 -174 -188 -174z" />
    <glyph glyph-name="dagger" unicode="&#x2020;" horiz-adv-x="436" 
d="M279 726v-331h142v-110h-142v-131h-123v131h-141v110h141v331h123z" />
    <glyph glyph-name="daggerdbl" unicode="&#x2021;" horiz-adv-x="435" 
d="M279 490v-95h142v-110h-142v-131h-123v131h-141v110h141v95h-141v108h141v128h123v-128h140v-108h-140z" />
    <glyph glyph-name="bullet" unicode="&#x2022;" horiz-adv-x="393" 
d="M38 297q0 72 44 119q45 47 116 47q69 0 113 -47q45 -46 45 -119q0 -72 -44.5 -117t-113.5 -45q-71 0 -115.5 44.5t-44.5 117.5z" />
    <glyph glyph-name="ellipsis" unicode="&#x2026;" horiz-adv-x="840" 
d="M230 0h-169v187h169v-187zM504 0h-168v187h168v-187zM779 0h-169v187h169v-187z" />
    <glyph glyph-name="perthousand" unicode="&#x2030;" horiz-adv-x="1314" 
d="M47 556q0 79 51 130q51 52 132 52q83 0 134 -52q51 -51 51 -132q0 -79 -52 -131t-133 -52q-79 0 -131 52t-52 133zM258 0h-80l464 729h81zM163 557q0 -35 18.5 -57.5t48.5 -22.5q31 0 50 22.5t19 57.5q0 33 -19 54t-50 21q-29 0 -48 -21t-19 -54zM482 175q0 79 51 131
t133 52t132 -53q51 -53 51 -132t-52 -131q-51 -52 -131 -52t-132 52t-52 133zM898 175q0 79 51 131t133 52q81 0 132 -53t51 -132t-52 -131q-51 -52 -131 -52t-132 52t-52 133zM597 176q0 -35 19 -57.5t50 -22.5t50 22.5t19 57.5q0 34 -19.5 55t-49.5 21t-49.5 -21
t-19.5 -55zM1082 96q30 0 49 22.5t19 57.5q0 34 -19 55t-49 21q-31 0 -50 -21t-19 -55t19.5 -57t49.5 -23z" />
    <glyph glyph-name="guilsinglleft" unicode="&#x2039;" horiz-adv-x="315" 
d="M134 54l-119 220l119 218h160l-109 -218l109 -220h-160z" />
    <glyph glyph-name="guilsinglright" unicode="&#x203a;" horiz-adv-x="314" 
d="M182 492l117 -218l-117 -220h-161l108 220l-108 218h161z" />
    <glyph glyph-name="fraction" unicode="&#x2044;" horiz-adv-x="272" 
d="M-1 -46h-142l415 814h143z" />
    <glyph glyph-name="uni2070" unicode="&#x2070;" horiz-adv-x="496" 
d="M246 295q-110 0 -165 79q-54 80 -54 210q0 139 58.5 212t163.5 73q108 0 163.5 -76t55.5 -211q0 -139 -58.5 -213t-163.5 -74zM246 418q42 0 58 37.5t16 122.5q0 94 -17.5 132t-53.5 38q-42 0 -58.5 -38.5t-16.5 -120.5q0 -94 18 -132.5t54 -38.5z" />
    <glyph glyph-name="uni2074" unicode="&#x2074;" horiz-adv-x="499" 
d="M415 862v-342h66v-115h-66v-105h-141v105h-251v105l185 352h207zM274 725l-108 -205h108v205z" />
    <glyph glyph-name="uni2075" unicode="&#x2075;" horiz-adv-x="480" 
d="M267 681q86 0 136 -53q51 -52 51 -137q0 -90 -58.5 -144.5t-157.5 -54.5q-98 0 -156 51q-58 52 -58 135h143q0 -28 19 -45.5t52 -17.5t53 20.5t20 51.5q0 33 -21 55t-54 22q-26 0 -44 -12.5t-23 -31.5h-135l16 342h361v-122h-236l-4 -79l6 -2q31 22 90 22z" />
    <glyph glyph-name="uni2076" unicode="&#x2076;" horiz-adv-x="485" 
d="M251 293q-108 0 -165.5 75.5t-57.5 214.5t57 212.5t167 73.5q83 0 136.5 -40.5t61.5 -109.5h-143q-11 33 -59 33q-86 0 -78 -116h6q32 47 107 47q80 0 129 -52q49 -50 49 -136q0 -92 -58 -147q-56 -55 -152 -55zM253 415q30 0 49 21t19 56q0 34 -19 55.5t-49 21.5
q-31 0 -50 -21.5t-19 -56.5t19 -55.5t50 -20.5z" />
    <glyph glyph-name="uni2077" unicode="&#x2077;" horiz-adv-x="441" 
d="M120 652h-112v210h420v-102q-73 -96 -134 -224q-58 -124 -74 -236h-152q14 109 66 224q52 117 126 216h-140v-88z" />
    <glyph glyph-name="uni2078" unicode="&#x2078;" horiz-adv-x="480" 
d="M25 453q0 91 79 125v7q-79 34 -79 125q0 75 58 117t158 42q101 0 157.5 -43t56.5 -116q0 -89 -79 -125v-7q79 -36 79 -126q0 -75 -58 -117.5t-158 -42.5q-101 0 -157.5 43.5t-56.5 117.5zM170 692q0 -24 19.5 -38.5t50.5 -14.5q32 0 50.5 14.5t18.5 38.5q0 26 -19 41.5
t-50 15.5q-32 0 -51 -16t-19 -41zM170 469q0 -25 19.5 -40.5t50.5 -15.5q32 0 50.5 15.5t18.5 40.5t-19 40.5t-50 15.5q-32 0 -51 -15.5t-19 -40.5z" />
    <glyph glyph-name="uni2079" unicode="&#x2079;" horiz-adv-x="480" 
d="M230 293q-82 0 -135.5 40t-62.5 111h143q10 -34 59 -34q84 0 78 117h-6q-32 -47 -108 -47q-80 0 -129 51q-49 52 -49 137q0 90 57 146q58 55 153 55q108 0 165.5 -75.5t57.5 -214.5q0 -140 -57.5 -213t-165.5 -73zM229 747q-31 0 -50 -21t-19 -56q0 -34 19 -56
q19 -21 50 -21t49 22q19 22 19 57t-19 55t-49 20z" />
    <glyph glyph-name="uni2080" unicode="&#x2080;" horiz-adv-x="496" 
d="M246 -105q-110 0 -165 79q-54 80 -54 210q0 139 58.5 212t163.5 73q108 0 163.5 -76t55.5 -211q0 -139 -58.5 -213t-163.5 -74zM246 18q42 0 58 37.5t16 122.5q0 94 -17.5 132t-53.5 38q-42 0 -58.5 -38.5t-16.5 -120.5q0 -94 18 -132.5t54 -38.5z" />
    <glyph glyph-name="uni2081" unicode="&#x2081;" horiz-adv-x="346" 
d="M147 254h-147v108h25q54 0 90 27.5t40 72.5h133v-562h-141v354z" />
    <glyph glyph-name="uni2082" unicode="&#x2082;" horiz-adv-x="460" 
d="M214 20l59 3h161v-123h-398v19q0 119 88 198q19 17 54 45t55 44.5t36.5 41t16.5 46.5q0 25 -16 40t-44 15q-30 0 -46.5 -19.5t-13.5 -54.5h-142q2 90 58 142t149 52q91 0 146 -48q56 -48 56 -128q0 -48 -24.5 -92t-59.5 -71l-74 -56q-41 -30 -61 -54z" />
    <glyph glyph-name="uni2083" unicode="&#x2083;" horiz-adv-x="477" 
d="M238 -108q-96 0 -152 49q-57 50 -56 129h142q-1 -24 18.5 -40.5t51.5 -16.5t49.5 17t17.5 45q0 56 -74 56h-65v111h51q74 0 74 56q0 23 -16.5 37t-43.5 14q-31 0 -49.5 -15.5t-16.5 -40.5h-142q-5 80 54 128t158 48q90 0 145 -42t55 -111q0 -83 -74 -118v-5
q41 -16 64 -51t23 -82q0 -74 -59 -121t-155 -47z" />
    <glyph glyph-name="uni2084" unicode="&#x2084;" horiz-adv-x="499" 
d="M415 462v-342h66v-115h-66v-105h-141v105h-251v105l185 352h207zM274 325l-108 -205h108v205z" />
    <glyph glyph-name="uni2085" unicode="&#x2085;" horiz-adv-x="480" 
d="M267 281q86 0 136 -53q51 -53 51 -137q0 -90 -58.5 -144.5t-157.5 -54.5q-98 0 -156 52q-58 51 -58 134h143q0 -28 19 -45.5t52 -17.5t53 20.5t20 51.5q0 33 -21 55t-54 22q-26 0 -44 -12.5t-23 -31.5h-135l16 342h361v-122h-236l-4 -79l6 -2q31 22 90 22z" />
    <glyph glyph-name="uni2086" unicode="&#x2086;" horiz-adv-x="485" 
d="M251 -107q-108 0 -165.5 75.5t-57.5 214.5t57 212.5t167 73.5q83 0 136.5 -40.5t61.5 -109.5h-143q-11 33 -59 33q-86 0 -78 -116h6q32 47 107 47q80 0 129 -52q49 -50 49 -136q0 -92 -58 -147q-56 -55 -152 -55zM253 15q30 0 49 21t19 56q0 34 -19 55.5t-49 21.5
q-31 0 -50 -21.5t-19 -56.5t19 -55.5t50 -20.5z" />
    <glyph glyph-name="uni2087" unicode="&#x2087;" horiz-adv-x="441" 
d="M120 252h-112v210h420v-102q-73 -96 -134 -224q-58 -124 -74 -236h-152q15 108 66 223q52 116 126 217h-140v-88z" />
    <glyph glyph-name="uni2088" unicode="&#x2088;" horiz-adv-x="480" 
d="M25 53q0 91 79 125v7q-79 34 -79 125q0 75 58 117t158 42q101 0 157.5 -43t56.5 -116q0 -89 -79 -125v-7q79 -36 79 -126q0 -75 -58 -117.5t-158 -42.5q-101 0 -157.5 43.5t-56.5 117.5zM170 292q0 -24 19.5 -38.5t50.5 -14.5q32 0 50.5 14.5t18.5 38.5q0 26 -19 41.5
t-50 15.5q-32 0 -51 -16t-19 -41zM170 69q0 -25 19.5 -40.5t50.5 -15.5q32 0 50.5 15.5t18.5 40.5t-19 40.5t-50 15.5q-32 0 -51 -15.5t-19 -40.5z" />
    <glyph glyph-name="uni2089" unicode="&#x2089;" horiz-adv-x="480" 
d="M230 -107q-82 0 -135.5 40t-62.5 111h143q10 -34 59 -34q84 0 78 117h-6q-32 -47 -108 -47q-80 0 -129 51q-49 52 -49 137q0 90 57 146q58 55 153 55q108 0 165.5 -75.5t57.5 -214.5q0 -140 -57.5 -213t-165.5 -73zM229 347q-31 0 -50 -21t-19 -56q0 -34 19 -56
q19 -21 50 -21t49 22q19 22 19 57t-19 55t-49 20z" />
    <glyph glyph-name="uni20A6" unicode="&#x20a6;" horiz-adv-x="767" 
d="M679 420h88v-112h-88v-308h-223l-124 308h-65l2 -52v-256h-190v308h-80v112h80v309h223l123 -309h66l-2 55v254h190v-309zM261 464l2 -44h24l-18 44h-8zM489 260h8l-2 48h-25z" />
    <glyph glyph-name="uni20A9" unicode="&#x20a9;" horiz-adv-x="937" 
d="M857 420h75v-112h-96l-57 -308h-285l2 193l-14 115h-38l-13 -112l6 -196h-281l-57 308h-94v112h74l-57 309h210l38 -309h55l35 309h200l40 -309h57l37 309h221zM458 435l-2 -15h12l-2 15h-8zM295 197h6l12 111h-30zM628 195h7l11 113h-32z" />
    <glyph glyph-name="uni20AA" unicode="&#x20aa;" horiz-adv-x="851" 
d="M440 180v399h-206v-579h-152v729h357q78 0 115 -34.5t37 -118.5v-396h-151zM618 151v578h152v-729h-357q-78 0 -115 34.5t-37 118.5v397h151v-399h206z" />
    <glyph glyph-name="Euro" unicode="&#x20ac;" horiz-adv-x="735" 
d="M401 167q65 0 89 57h212q-19 -108 -99.5 -170.5t-201.5 -62.5q-118 0 -198.5 61.5t-111.5 172.5h-67v116h49v24v23h-49v114h66q31 113 112.5 174.5t198.5 61.5q123 0 202 -63q80 -63 99 -169h-212q-21 57 -89 57q-67 0 -98 -61h165l-14 -114h-177v-23q0 -19 1 -24h169
l-18 -116h-124q31 -58 96 -58z" />
    <glyph glyph-name="uni20B2" unicode="&#x20b2;" horiz-adv-x="687" 
d="M323 274v135h312v-68q0 -120 -65.5 -195t-179.5 -90v-64h-115v64q-118 17 -182.5 100.5t-64.5 216.5q0 137 67 222q68 86 180 104v61h115v-60q91 -14 151 -70t70 -137h-184q-19 57 -95 57q-57 0 -87 -35.5t-30 -99.5v-83q0 -65 32.5 -99.5t90.5 -34.5q45 0 75 20.5
t36 55.5h-126z" />
    <glyph glyph-name="uni20B8" unicode="&#x20b8;" horiz-adv-x="582" 
d="M7 579v150h568v-150h-568zM194 362h-187v164h568v-164h-192v-362h-189v362z" />
    <glyph glyph-name="uni20B9" unicode="&#x20b9;" horiz-adv-x="529" 
d="M495 729v-116h-109q26 -43 35 -91h74v-116h-77q-14 -56 -52 -95t-90 -55v-8q27 -8 44 -22q19 -14 26 -27q9 -14 26 -47q5 -9 6 -11l74 -141h-211l-81 147q-15 27 -20 34q-21 30 -80 30h-81v153h139q58 0 87 42h-226v116h222q-28 37 -83 37h-139v170h516z" />
    <glyph glyph-name="uni20BA" unicode="&#x20ba;" horiz-adv-x="690" 
d="M467 356h198q-30 -162 -142 -257q-113 -97 -291 -98l-154 -1v234l-74 -29v142l74 30v65l-74 -29v141l74 32v143h190v-69l109 45v-142l-109 -47v-65l109 46v-142l-109 -46v-125q71 1 124 47.5t75 124.5z" />
    <glyph glyph-name="uni20BC" unicode="&#x20bc;" horiz-adv-x="829" 
d="M231 0h-192v309q0 163 70 246.5t207 99.5v74h195v-74q144 -18 211.5 -104.5t67.5 -241.5v-309h-193v309q0 76 -21.5 113.5t-64.5 46.5v-469h-195v469q-46 -8 -65.5 -47t-19.5 -113v-309z" />
    <glyph glyph-name="uni20BD" unicode="&#x20bd;" horiz-adv-x="714" 
d="M102 729h338q123 0 189.5 -67t66.5 -191q0 -116 -68 -184t-188 -68h-135v-42h120v-114h-120v-63h-203v63h-80v114h80v55h-80v152h80v345zM481 445v44q0 61 -76 61h-100v-166h103q36 0 54.5 17t18.5 44z" />
    <glyph glyph-name="uni20BF" unicode="&#x20bf;" horiz-adv-x="733" 
d="M561 394v-8q111 -28 111 -155q0 -82 -59 -132.5t-155 -50.5h-8v-56h-114v56h-49v-56h-113v56h-72v658h72v54h113v-54h49v54h114v-54h7q88 0 142.5 -46t54.5 -122q0 -52 -24.5 -89.5t-68.5 -54.5zM465 495v33q0 46 -57 46h-129v-125h131q27 0 41 12.5t14 33.5zM480 238v24
q0 31 -16 44.5t-50 13.5h-135v-140h131q70 0 70 58z" />
    <glyph glyph-name="uni2105" unicode="&#x2105;" horiz-adv-x="936" 
d="M267 488h129q-5 -62 -55.5 -100.5t-129.5 -38.5q-87 0 -139 52t-52 142q0 89 54 142q56 54 145 54q73 0 122.5 -39.5t56.5 -103.5h-131q-7 37 -52 37q-64 0 -64 -90t65 -90q19 0 33 9.5t18 25.5zM284 0h-106l465 729h106zM916 188q0 -86 -54 -140q-52 -54 -139 -54
q-86 0 -141 53q-53 55 -53 141t53 141q54 54 141 54t140 -54q53 -55 53 -141zM659 188q0 -41 18 -65.5t46 -24.5q29 0 46 25t17 66q0 40 -17.5 64.5t-46.5 24.5t-46 -25t-17 -65z" />
    <glyph glyph-name="uni2116" unicode="&#x2116;" horiz-adv-x="1404" 
d="M788 485q0 105 73 177t185 72q110 0 184 -72t74 -177q0 -104 -73 -177q-73 -72 -185 -72t-186 72q-72 74 -72 177zM266 0h-203v729h230l239 -437h8l-11 202v235h201v-729h-230l-237 431h-8l11 -195v-236zM981 517v-65q0 -28 18 -45.5t47 -17.5t47 17t18 45v66
q0 29 -18 46.5t-47 17.5t-47 -17.5t-18 -46.5zM841 1v150h411v-150h-411z" />
    <glyph glyph-name="uni2117" unicode="&#x2117;" horiz-adv-x="876" 
d="M439 -77q-110 0 -205 52q-94 51 -156 149q-60 98 -60 219q0 89 34.5 169.5t93.5 134.5q127 116 293 116q110 0 204 -52q96 -52 155 -148q60 -97 60 -217q0 -119 -59 -219q-59 -97 -154 -150.5t-206 -53.5zM812 347q0 163 -109 269t-264 106q-154 0 -266 -107
q-110 -107 -110 -272t110 -272q112 -107 266 -107q155 0 264 108t109 275zM398 124h-107v430h229q69 0 110 -39t41 -103q0 -63 -41 -102.5t-110 -39.5h-122v-146zM396 467v-114h105q29 0 45.5 16t16.5 43q0 24 -18 39.5t-44 15.5h-105z" />
    <glyph glyph-name="trademark" unicode="&#x2122;" horiz-adv-x="631" 
d="M84 664h-79v72h241v-72h-82v-241h-80v241zM456 583l66 153h98v-313h-77v115l4 85h-3l-90 -195l-89 195h-5l6 -85v-115h-78v313h99l66 -153h3z" />
    <glyph glyph-name="estimated" unicode="&#x212e;" horiz-adv-x="726" 
d="M662 230h46q-27 -108 -120 -174q-94 -65 -222 -65q-162 0 -260 102q-97 101 -97 266t99 267q100 103 266 103q152 0 243 -88q91 -87 99 -246q1 -14 1 -57h-600v-185q35 -59 102 -91.5t149 -32.5q107 0 187 55q81 56 107 146zM117 561v-187h493v205q-88 111 -249 108
q-159 -3 -244 -126z" />
    <glyph glyph-name="oneeighth" unicode="&#x215b;" horiz-adv-x="974" 
d="M316 -46h-142l415 814h143zM146 552h-125v92h45q42 0 64.5 21.5t22.5 60.5v3h109v-473h-116v296zM605 130q0 78 68 107v6q-32 13 -50 42t-18 66q0 64 48.5 99.5t130.5 35.5q81 0 127.5 -37t46.5 -98q0 -79 -66 -108v-6q66 -29 66 -108q0 -63 -48 -99.5t-129 -36.5
q-82 0 -129 37t-47 100zM724 337q0 -23 15.5 -36t42.5 -13q26 0 42 14t16 35q0 22 -16 35.5t-42 13.5q-27 0 -42.5 -13.5t-15.5 -35.5zM724 142q0 -22 15.5 -36t42.5 -14q26 0 42 14t16 36q0 23 -16 37t-42 14t-42 -14t-16 -37z" />
    <glyph glyph-name="threeeighths" unicode="&#x215c;" horiz-adv-x="1029" 
d="M372 -46h-142l415 814h143zM182 248q-75 0 -121.5 41t-45.5 108h115q1 -21 15 -35t35 -14q31 -2 44 23.5t-0.5 50.5t-46.5 22h-45v103h30q27 0 42 13t15 35q0 40 -44 40q-22 0 -35.5 -13.5t-12.5 -35.5h-116q-1 68 44 108.5t124 40.5q72 0 115 -35.5t43 -92.5
q0 -71 -63 -100v-5q74 -30 74 -113q0 -63 -46.5 -102t-119.5 -39zM661 130q0 78 68 107v6q-32 13 -50 42t-18 66q0 64 48.5 99.5t130.5 35.5q81 0 127.5 -37t46.5 -98q0 -79 -66 -108v-6q66 -29 66 -108q0 -63 -48 -99.5t-129 -36.5q-82 0 -129 37t-47 100zM780 337
q0 -23 15.5 -36t42.5 -13q26 0 42 14t16 35q0 22 -16 35.5t-42 13.5q-27 0 -42.5 -13.5t-15.5 -35.5zM780 142q0 -22 15.5 -36t42.5 -14q26 0 42 14t16 36q0 23 -16 37t-42 14t-42 -14t-16 -37z" />
    <glyph glyph-name="fiveeighths" unicode="&#x215d;" horiz-adv-x="1056" 
d="M398 -46h-142l415 814h143zM23 404h117q0 -24 17.5 -40.5t42.5 -16.5t42 19t17 47q0 29 -18 48t-44 19q-43 0 -55 -38h-110v287h311v-100h-197v-38l-3 -33l4 -3q23 22 75 22q68 0 110.5 -45.5t42.5 -115.5q0 -75 -48.5 -121.5t-128.5 -46.5q-78 0 -126 43t-49 113z
M687 130q0 78 68 107v6q-32 13 -50 42t-18 66q0 64 48.5 99.5t130.5 35.5q81 0 127.5 -37t46.5 -98q0 -79 -66 -108v-6q66 -29 66 -108q0 -63 -48 -99.5t-129 -36.5q-82 0 -129 37t-47 100zM806 337q0 -23 15.5 -36t42.5 -13q26 0 42 14t16 35q0 22 -16 35.5t-42 13.5
q-27 0 -42.5 -13.5t-15.5 -35.5zM806 142q0 -22 15.5 -36t42.5 -14q26 0 42 14t16 36q0 23 -16 37t-42 14t-42 -14t-16 -37z" />
    <glyph glyph-name="seveneighths" unicode="&#x215e;" horiz-adv-x="951" 
d="M151 -46l415 814h143l-416 -814h-142zM164 256h-114q11 96 50 193q40 102 102 180h-109v-73h-88v173h337v-83q-70 -79 -115 -181q-46 -103 -63 -209zM869 243v-6q66 -29 66 -108q0 -63 -48 -99.5t-129 -36.5q-82 0 -129 37t-47 100q0 78 68 107v6q-32 13 -50 42t-18 66
q0 64 48.5 99.5t130.5 35.5q81 0 127.5 -37t46.5 -98q0 -79 -66 -108zM759 288q27 0 42.5 14t15.5 35q0 22 -16 35.5t-42 13.5q-27 0 -42.5 -13.5t-15.5 -35.5q0 -23 15.5 -36t42.5 -13zM759 92q26 0 42 14t16 36q0 23 -16 37t-42 14t-42 -14t-16 -37q0 -22 15.5 -36
t42.5 -14z" />
    <glyph glyph-name="arrowleft" unicode="&#x2190;" horiz-adv-x="860" 
d="M765 328v-100h-586l169 -228h-126l-208 280l208 272h126l-169 -224h586z" />
    <glyph glyph-name="arrowup" unicode="&#x2191;" horiz-adv-x="582" 
d="M553 384v-118l-211 188v-362h211v-95h-523v95h211v362l-211 -188v118l263 229z" />
    <glyph glyph-name="arrowright" unicode="&#x2192;" horiz-adv-x="900" 
d="M681 228h-586v100h586l-169 224h126l208 -272l-208 -280h-126z" />
    <glyph glyph-name="arrowdown" unicode="&#x2193;" horiz-adv-x="582" 
d="M553 562v-95h-211v-362l211 188v-119l-260 -228l-263 228v119l211 -188v362h-211v95h523z" />
    <glyph glyph-name="arrowboth" unicode="&#x2194;" horiz-adv-x="1020" 
d="M236 90l-224 271l224 266h117l-183 -218h679l-180 218h116l223 -266l-223 -271h-116l180 219h-679l183 -219h-117z" />
    <glyph glyph-name="arrowupdn" unicode="&#x2195;" horiz-adv-x="652" 
d="M331 -141l-306 246v115l258 -207v593l-258 -206v114l306 246l305 -246v-114l-258 206v-593l258 207v-115z" />
    <glyph glyph-name="uni2196" unicode="&#x2196;" horiz-adv-x="712" 
d="M666 78l-73 -78l-398 409v-319h-101v493h484v-101h-312z" />
    <glyph glyph-name="uni2197" unicode="&#x2197;" horiz-adv-x="687" 
d="M581 386l-377 -386l-72 75l378 391h-310v96h484v-492h-103v316z" />
    <glyph glyph-name="uni2198" unicode="&#x2198;" horiz-adv-x="698" 
d="M606 0l-485 -1v104h315l-383 383l72 76l380 -393l1 327h101z" />
    <glyph glyph-name="uni2199" unicode="&#x2199;" horiz-adv-x="696" 
d="M576 0h-486v496h104v-327l382 393l67 -73l-383 -386h316v-103z" />
    <glyph glyph-name="uni21A9" unicode="&#x21a9;" horiz-adv-x="842" 
d="M833 498q0 -108 -69 -176q-68 -67 -197 -67h-360v-124l-197 178l197 181v-126h360q72 0 116 35.5t44 98.5q0 60 -41 96.5t-109 36.5h-13v107h13q112 0 184 -69q72 -67 72 -171z" />
    <glyph glyph-name="uni21AA" unicode="&#x21aa;" horiz-adv-x="842" 
d="M10 498q0 104 73 171q73 69 184 69h13v-107h-13q-68 0 -108.5 -37t-40.5 -96q0 -63 43 -98.5t116 -35.5h363v126l193 -181l-193 -178v124h-363q-128 0 -197.5 65.5t-69.5 177.5z" />
    <glyph glyph-name="uni21B2" unicode="&#x21b2;" horiz-adv-x="680" 
d="M556 364v406h97v-515h-435v-124l-196 178l196 181v-126h338z" />
    <glyph glyph-name="uni21B3" unicode="&#x21b3;" horiz-adv-x="680" 
d="M460 490l193 -181l-193 -178v124h-438v515h98v-406h340v126z" />
    <glyph glyph-name="uni21BA" unicode="&#x21ba;" horiz-adv-x="825" 
d="M75 320q0 87 41.5 167t120.5 135l51 -60q-131 -89 -131 -242q0 -106 74 -180q73 -73 185 -73q107 0 178 71q72 72 72 175q0 71 -36 129q-37 59 -151 156l-3 -2l5 -67v-129h-75v329h318v-80h-127l-60 5l-3 -3q127 -105 169 -174q45 -69 45 -164q0 -137 -97 -231t-239 -94
q-143 0 -240 94t-97 238z" />
    <glyph glyph-name="uni21BB" unicode="&#x21bb;" horiz-adv-x="825" 
d="M408 -12q-140 0 -237 94q-96 94 -96 231q0 94 45 166q44 70 170 172l-4 3l-63 -5h-125v80h322v-329h-79v129l5 67l-3 2q-113 -95 -150 -155q-36 -59 -36 -130q0 -102 71 -175q71 -71 179 -71q111 0 184 72q75 72 75 181q0 73 -34.5 138t-94.5 104l49 60
q79 -55 120.5 -136t41.5 -166q0 -141 -98 -237q-98 -95 -242 -95z" />
    <glyph glyph-name="emptyset" unicode="&#x2205;" horiz-adv-x="747" 
d="M756 362q0 -168 -99 -270q-97 -102 -264 -102q-166 0 -265 102q-98 103 -98 270q0 170 100 273t263 103t263 -103t100 -273zM393 562q-69 0 -109 -39.5t-40 -106.5v-99l222 230q-31 15 -73 15zM393 166q69 0 109 39.5t40 106.5v92l-218 -225q27 -13 69 -13z" />
    <glyph glyph-name="product" unicode="&#x220f;" horiz-adv-x="812" 
d="M46 729h720v-165h-107v-564h-192v564h-123v-564h-193v564h-105v165z" />
    <glyph glyph-name="summation" unicode="&#x2211;" horiz-adv-x="610" 
d="M565 -169h-515v192l215 237v10l-215 265v194h515v-194h-182l-102 11v-11l204 -274l-211 -230v-10l109 10h182v-200z" />
    <glyph glyph-name="minus" unicode="&#x2212;" horiz-adv-x="568" 
d="M66 225v149h433v-149h-433z" />
    <glyph glyph-name="radical" unicode="&#x221a;" horiz-adv-x="843" 
d="M506 356l138 373h193l-316 -842h-241l-164 453h-104v163h245v-3l50 -145l90 -287h8z" />
    <glyph glyph-name="infinity" unicode="&#x221e;" horiz-adv-x="850" 
d="M225 28q-99 0 -166 67t-67 174q0 106 67 176t167 70q61 0 112.5 -32t85.5 -86q34 55 85.5 86.5t113.5 31.5q100 0 167 -70q68 -71 68 -176q0 -106 -68 -174q-67 -67 -166 -67q-129 0 -200 113q-33 -53 -84.5 -83t-114.5 -30zM238 201q56 0 101 69q-43 67 -101 67
q-29 0 -48 -19.5t-19 -47.5q0 -30 18.5 -49.5t48.5 -19.5zM610 201q30 0 48.5 19.5t18.5 49.5q0 28 -19 47.5t-48 19.5q-59 0 -99 -67q43 -69 99 -69z" />
    <glyph glyph-name="integral" unicode="&#x222b;" horiz-adv-x="635" 
d="M382 753h167v-152h-134v-584q0 -60 -25 -104q-29 -54 -134 -54h-166v151h134v584q0 49 10 79q23 75 148 80z" />
    <glyph glyph-name="approxequal" unicode="&#x2248;" horiz-adv-x="543" 
d="M144 348h-82q-6 77 30 120.5t93 43.5q39 0 91 -29q52 -28 81 -28q55 0 56 54h81q6 -83 -33 -124q-38 -41 -93 -41q-50 0 -105 28q-53 28 -75 28q-23 0 -35 -16t-9 -36zM144 143h-82q-6 78 29 119.5t93 41.5q40 0 92 -28q52 -27 81 -27q54 0 56 52h81q6 -84 -33 -124
q-37 -40 -93 -40q-49 0 -105 29q-55 29 -75 29q-23 0 -35 -16.5t-9 -35.5z" />
    <glyph glyph-name="notequal" unicode="&#x2260;" horiz-adv-x="610" 
d="M543 457v-131h-162l-35 -67h197v-130h-265l-51 -99h-118l52 99h-95v130h163l34 67h-197v131h266l51 98h117l-51 -98h94z" />
    <glyph glyph-name="lessequal" unicode="&#x2264;" horiz-adv-x="563" 
d="M504 348v-170l-458 148v170l458 142v-169l-149 -32l-137 -21v-9l130 -22zM504 172v-172h-458v172h458z" />
    <glyph glyph-name="greaterequal" unicode="&#x2265;" horiz-adv-x="563" 
d="M517 326l-458 -148v170l156 37l131 22v9l-138 21l-149 32v169l458 -142v-170zM517 0h-458v172h458v-172z" />
    <glyph glyph-name="filledbox" unicode="&#x25a0;" horiz-adv-x="932" 
d="M105 1v728h722v-728h-722z" />
    <glyph glyph-name="uni25A1" unicode="&#x25a1;" horiz-adv-x="803" 
d="M40 0v729h723v-729h-723zM689 655h-573v-580h573v580z" />
    <glyph glyph-name="triagup" unicode="&#x25b2;" horiz-adv-x="875" 
d="M30 0l407 737l408 -737h-815z" />
    <glyph glyph-name="uni25B3" unicode="&#x25b3;" horiz-adv-x="867" 
d="M829 0h-791l394 738zM434 574l-260 -492h521z" />
    <glyph glyph-name="lozenge" unicode="&#x25ca;" horiz-adv-x="2155" 
d="M985 -10q-135 0 -214 100t-79 268q0 96 28 170.5t76.5 119.5t109.5 68t132 23q120 0 202 -62q82 -61 100 -164h-156q-36 86 -147 86q-90 0 -137 -62t-47 -175q0 -115 46.5 -175t129.5 -60q67 0 109 33t52 92h-162v143h324v-395h-111l-16 119h-35q-16 -61 -71 -95
t-134 -34zM1487 576q-34 0 -56.5 23t-22.5 59q0 35 22.5 58t56.5 23q35 0 55.5 -22.5t20.5 -58.5q0 -37 -20.5 -59.5t-55.5 -22.5zM1685 576q-34 0 -55 23t-21 59q0 35 21.5 58t54.5 23q36 0 58.5 -23t22.5 -58q0 -36 -22.5 -59t-58.5 -23zM311 0h-271v729h271
q161 0 248.5 -92.5t87.5 -270.5t-88.5 -272t-247.5 -94zM1887 572h-36v126h-38v31h118v-31h-44v-126zM1985 572h-34v157h63l17 -127l23 127h61v-157h-40v135l-17 -135h-52l-21 135v-135zM146 109l26 -26q29 29 52.5 40.5t60.5 11.5h26q31 0 69 15q31 12 52 33q24 24 41 72
t17 108q0 59 -16 106t-39 70q-21 23 -49 36q-37 19 -75 19h-26q-29 0 -52 10q-26 12 -32 17l-29 27l-26 -30q0 -2 7 -9t7 -8q5 -2 20 -27q15 -22 15 -71v-276q-3 -51 -16 -74l-10 -15q-9 -15 -23 -29zM1583 0h-149v491h141l7 -58h27q12 36 49 56t90 20v-147
q-165 16 -165 -148v-214z" />
    <glyph glyph-name="circle" unicode="&#x25cb;" horiz-adv-x="754" 
d="M9 365q0 162 104 268q105 105 264 105t263 -105q105 -105 105 -268q0 -165 -105 -270q-104 -105 -263 -105t-264 105q-104 106 -104 270zM377 63q125 0 207 85q83 86 83 217q0 130 -83 215q-82 85 -207 85t-207 -85q-83 -85 -83 -215q0 -131 83 -217q84 -85 207 -85z" />
    <glyph glyph-name="uni25CF" unicode="&#x25cf;" horiz-adv-x="889" 
d="M446 -10q-157 0 -262 107q-105 108 -105 269q0 158 105 265t262 107q155 0 259 -107t104 -265q0 -160 -104 -269q-104 -107 -259 -107z" />
    <glyph glyph-name="uni262E" unicode="&#x262e;" horiz-adv-x="800" 
d="M768 363q0 -166 -104 -272q-104 -105 -264 -105t-263 105q-104 106 -104 272t104 270t263 104t263 -104q105 -103 105 -270zM711 363q0 135 -80 224q-79 87 -204 98v-299l258 -160q26 63 26 137zM372 386v299q-125 -11 -203 -98q-80 -89 -80 -224q0 -74 26 -138zM372 320
l-231 -144q38 -59 98 -94.5t133 -41.5v280zM427 320v-280q154 13 232 136z" />
    <glyph glyph-name="uni2639" unicode="&#x2639;" horiz-adv-x="802" 
d="M30 365q0 162 107 267q107 106 264 106t263 -106q108 -106 108 -267q0 -163 -108 -269q-106 -106 -263 -106t-264 105q-107 107 -107 270zM86 365q0 -123 77 -214q36 51 100 81t138 30q75 0 139.5 -30t99.5 -81q76 92 76 214q0 137 -92 229t-222 92t-224 -92
q-92 -92 -92 -229zM270 438q0 51 14.5 79t39.5 28q26 0 39.5 -29t13.5 -78q0 -52 -14 -79.5t-39 -27.5q-26 0 -40 29t-14 78zM427 438q0 50 15 78.5t40 28.5q26 0 40 -28.5t14 -78.5q0 -51 -14.5 -79t-39.5 -28q-26 0 -40.5 29t-14.5 78zM202 114q90 -72 200 -72t198 72
q-26 44 -81 69q-57 26 -117 26q-66 0 -120.5 -26.5t-79.5 -68.5z" />
    <glyph glyph-name="smileface" unicode="&#x263a;" horiz-adv-x="802" 
d="M772 365q0 -163 -108 -269q-106 -106 -263 -106t-264 105q-107 107 -107 270q0 162 107 267q107 106 264 106t263 -106q108 -106 108 -267zM402 686q-130 0 -224 -92q-92 -92 -92 -229t92 -231q94 -92 224 -92t222 93q92 94 92 230q0 137 -92 229t-222 92zM324 331
q-26 0 -40 29t-14 78q0 51 14.5 79t39.5 28q26 0 39.5 -29t13.5 -78q0 -52 -14 -79.5t-39 -27.5zM482 331q-26 0 -40.5 29t-14.5 78q0 50 15 78.5t40 28.5q26 0 40 -28.5t14 -78.5q0 -51 -14.5 -79t-39.5 -28zM560 315v17h106v-17h-25q-13 -86 -82 -139q-67 -52 -158 -52
q-93 0 -160 52q-66 53 -80 139h-23v17h108v-17h-28q10 -63 61.5 -101t122.5 -38q72 0 122.5 38t61.5 101h-26z" />
    <glyph glyph-name="uni2708" unicode="&#x2708;" horiz-adv-x="847" 
d="M109 207h-50l35 159l-35 159h50l69 -108l210 12l-99 276h90l144 -239q15 -23 48 -25l59 4q60 4 109 -21t49 -58q0 -35 -49 -60q-49 -24 -109 -20l-59 4q-35 -2 -48 -24l-144 -240h-90l99 276l-210 14z" />
    <glyph glyph-name="uni2713" unicode="&#x2713;" horiz-adv-x="816" 
d="M295 249l377 359l106 -125l-496 -466l-245 289l117 107z" />
    <glyph glyph-name="uni2714" unicode="&#x2714;" horiz-adv-x="1286" 
d="M1109 735l112 -201q-228 -107 -465 -281q-237 -175 -350 -323q-147 202 -341 375l132 136q136 -110 221 -252q116 155 300 300q187 146 391 246z" />
    <glyph glyph-name="uni2776" unicode="&#x2776;" horiz-adv-x="891" 
d="M447 -9q-163 0 -276 110q-111 111 -111 274q0 161 111 272q112 112 276 112q162 0 273 -112q111 -111 111 -272q0 -163 -111 -274q-112 -110 -273 -110zM428 418v-264h93v423h-85v-1q0 -35 -25.5 -60t-68.5 -25h-32v-73h118z" />
    <glyph glyph-name="uni2777" unicode="&#x2777;" horiz-adv-x="892" 
d="M447 -9q-163 0 -276 111q-111 111 -111 274q0 162 111 273q113 111 276 111t274 -111t111 -273q0 -163 -111 -274t-274 -111zM307 168v-14h282v81h-115l-53 -3q15 21 44 45l58 46q30 23 50 58t20 72q0 58 -38.5 94.5t-101.5 36.5q-65 0 -109 -38t-45 -100l94 -5
q-2 28 12 45t41 17q24 0 38.5 -13.5t14.5 -37.5q0 -41 -68 -92q-26 -18 -43.5 -33t-38 -39t-31.5 -54.5t-11 -65.5z" />
    <glyph glyph-name="uni2778" unicode="&#x2778;" horiz-adv-x="892" 
d="M447 -9q-162 0 -275 110q-112 111 -112 273t112 274t275 112q161 0 273 -112t112 -274t-112 -273q-112 -110 -273 -110zM448 148q64 0 105 34.5t41 90.5q0 33 -18 60.5t-48 39.5v4q56 26 56 89q0 52 -38 84.5t-101 32.5q-70 0 -109 -36.5t-38 -97.5h93q1 54 51 54
q21 0 34 -11.5t13 -32.5q0 -22 -15.5 -36t-42.5 -14h-28v-80h40q24 0 40.5 -14t16.5 -36t-15.5 -36.5t-39.5 -14.5q-23 0 -37 15t-14 39h-93q-1 -62 39.5 -98t107.5 -36z" />
    <glyph glyph-name="uni2779" unicode="&#x2779;" horiz-adv-x="895" 
d="M448 -9q-164 0 -276 111t-112 274q0 162 112 273t276 111q162 0 275 -111q112 -111 112 -273q0 -163 -112 -274q-113 -111 -275 -111zM464 245v-91h91v91h44v80h-44v252h-138l-139 -258v-74h186zM464 325h-84l84 153v-153z" />
    <glyph glyph-name="uni277A" unicode="&#x277a;" horiz-adv-x="891" 
d="M447 -9q-163 0 -276 110q-111 109 -111 273q0 162 112 274t275 112q161 0 272 -112q112 -112 112 -274t-111 -273q-112 -110 -273 -110zM450 149q71 0 113 40.5t42 107.5q0 63 -37.5 103.5t-97.5 40.5q-50 0 -71 -23l-4 2l2 34v44h181v79h-271v-250h88q12 35 55 35
q27 0 45 -19.5t18 -49.5q0 -28 -18 -46t-44 -18t-42.5 16t-17.5 41h-92q-1 -60 42 -98.5t109 -38.5z" />
    <glyph glyph-name="uni277B" unicode="&#x277b;" horiz-adv-x="921" 
d="M447 -9q-163 0 -276 110q-111 111 -111 274q0 161 111 272q112 112 276 112q162 0 273 -112q111 -111 111 -272q0 -163 -111 -274q-112 -110 -273 -110zM458 148q68 0 112 41q44 42 44 107q0 62 -36.5 102.5t-94.5 40.5q-64 0 -90 -43h-3q0 108 69 108q45 0 55 -36h93
q-6 52 -46 83.5t-99 31.5q-80 0 -123.5 -58t-43.5 -163q0 -102 42.5 -158t120.5 -56zM399 293q0 30 17 49.5t44 19.5q28 0 44.5 -18.5t16.5 -49.5q0 -30 -16.5 -48t-44.5 -18t-44.5 18t-16.5 47z" />
    <glyph glyph-name="uni277C" unicode="&#x277c;" horiz-adv-x="895" 
d="M60 374q0 162 112 274t276 112q163 0 275 -112t112 -274t-112 -273q-113 -110 -275 -110q-164 0 -276 111t-112 272zM349 154h98q33 198 156 359v64h-295v-147h70v68h111q-54 -71 -91 -161t-49 -183z" />
    <glyph glyph-name="uni277D" unicode="&#x277d;" horiz-adv-x="892" 
d="M447 -9q-162 0 -275 111q-112 111 -112 272q0 162 112 274t275 112q161 0 273 -112t112 -274t-112 -273q-113 -110 -273 -110zM446 148q71 0 113.5 31.5t42.5 87.5q0 31 -16.5 57.5t-45.5 38.5v5q29 13 45.5 38.5t16.5 56.5q0 54 -42.5 87t-113.5 33q-70 0 -112.5 -32
t-42.5 -88q0 -31 16.5 -56.5t44.5 -38.5v-5q-28 -13 -44.5 -39t-16.5 -56q0 -55 41.5 -87.5t113.5 -32.5zM446 402q-26 0 -43 14t-17 36t16.5 36.5t43.5 14.5t43.5 -14t16.5 -37q0 -22 -16.5 -36t-43.5 -14zM446 228q-27 0 -43.5 13.5t-16.5 36.5q0 22 16.5 36t43.5 14
t43.5 -13.5t16.5 -36.5q0 -22 -16.5 -36t-43.5 -14z" />
    <glyph glyph-name="uni277E" unicode="&#x277e;" horiz-adv-x="895" 
d="M448 -9q-163 0 -276 110q-112 111 -112 275q0 161 112 272q112 112 276 112q162 0 274 -112q113 -111 113 -272q0 -164 -113 -275q-113 -110 -274 -110zM449 148q80 0 123 58t43 163q0 102 -42.5 158t-120.5 56q-69 0 -112 -41.5t-43 -107.5q0 -62 36.5 -101.5
t94.5 -39.5q64 0 90 41h3q0 -108 -69 -108q-44 0 -55 36h-93q7 -52 46.5 -83t98.5 -31zM452 368q-29 0 -45.5 18.5t-16.5 48.5q0 31 16.5 50t45.5 19q27 0 43 -18.5t16 -48.5t-16 -49.5t-43 -19.5z" />
    <glyph glyph-name="uni2780" unicode="&#x2780;" horiz-adv-x="891" 
d="M447 -9q-163 0 -276 110q-111 111 -111 274q0 161 111 272q112 112 276 112q162 0 273 -112q111 -111 111 -272q0 -163 -111 -274q-112 -110 -273 -110zM447 39q141 0 238 97q98 98 98 239t-97 238q-98 98 -239 98q-143 0 -241 -98q-97 -97 -97 -238q0 -142 97 -239
t241 -97zM428 154v264h-118v73h32q43 0 68.5 24.5t25.5 60.5v1h85v-423h-93z" />
    <glyph glyph-name="uni2781" unicode="&#x2781;" horiz-adv-x="891" 
d="M447 759q162 0 273 -112q111 -111 111 -272q0 -163 -111 -274q-112 -110 -273 -110q-163 0 -276 110q-111 111 -111 274q0 161 111 272q112 112 276 112zM447 39q141 0 238 97q98 98 98 239t-97 238q-98 98 -239 98q-143 0 -241 -98q-97 -97 -97 -238q0 -142 97 -239
t241 -97zM593 453q0 -37 -20 -72t-50 -58l-58 -46q-29 -24 -44 -45l53 3h115v-81h-282v14q0 88 68 147q14 12 41 33.5t42 34.5t28 32t13 37q0 24 -14.5 37.5t-38.5 13.5q-27 0 -41 -17t-12 -45l-94 5q1 62 45 100t109 38q63 0 101.5 -36.5t38.5 -94.5z" />
    <glyph glyph-name="uni2782" unicode="&#x2782;" horiz-adv-x="891" 
d="M447 -9q-163 0 -276 110q-111 111 -111 274q0 161 111 272q112 112 276 112q162 0 273 -112q111 -111 111 -272q0 -163 -111 -274q-112 -110 -273 -110zM447 39q141 0 238 97q98 98 98 239t-97 238q-98 98 -239 98q-143 0 -241 -98q-97 -97 -97 -238q0 -142 97 -239
t241 -97zM448 148q-67 0 -107.5 36t-39.5 98h93q0 -24 14 -39t37 -15q24 0 39.5 14.5t15.5 36.5t-16.5 36t-40.5 14h-40v80h28q27 0 42.5 14t15.5 36q0 21 -13 32.5t-34 11.5q-50 0 -51 -54h-93q-1 61 38 97.5t109 36.5q63 0 101 -32.5t38 -84.5q0 -63 -56 -89v-4
q30 -12 48 -39.5t18 -60.5q0 -56 -41 -90.5t-105 -34.5z" />
    <glyph glyph-name="uni2783" unicode="&#x2783;" horiz-adv-x="891" 
d="M447 -9q-163 0 -276 110q-111 111 -111 274q0 161 111 272q112 112 276 112q162 0 273 -112q111 -111 111 -272q0 -163 -111 -274q-112 -110 -273 -110zM447 39q141 0 238 97q98 98 98 239t-97 238q-98 98 -239 98q-143 0 -241 -98q-97 -97 -97 -238q0 -142 97 -239
t241 -97zM555 154h-91v91h-186v74l139 258h138v-252h44v-80h-44v-91zM464 478l-84 -153h84v153z" />
    <glyph glyph-name="uni2784" unicode="&#x2784;" horiz-adv-x="891" 
d="M447 -9q-163 0 -276 110q-111 111 -111 274q0 161 111 272q112 112 276 112q162 0 273 -112q111 -111 111 -272q0 -163 -111 -274q-112 -110 -273 -110zM447 39q141 0 238 97q98 98 98 239t-97 238q-98 98 -239 98q-143 0 -241 -98q-97 -97 -97 -238q0 -142 97 -239
t241 -97zM450 149q-66 0 -109 38.5t-42 98.5h92q1 -25 17.5 -41t42.5 -16t44 18t18 46q0 30 -18 49.5t-45 19.5q-43 0 -55 -35h-88v250h271v-79h-181v-44l-2 -34l4 -2q21 23 71 23q60 0 97.5 -40.5t37.5 -103.5q0 -67 -42 -107.5t-113 -40.5z" />
    <glyph glyph-name="uni2785" unicode="&#x2785;" horiz-adv-x="891" 
d="M447 -9q-163 0 -276 110q-111 111 -111 274q0 161 111 272q112 112 276 112q162 0 273 -112q111 -111 111 -272q0 -163 -111 -274q-112 -110 -273 -110zM447 39q141 0 238 97q98 98 98 239t-97 238q-98 98 -239 98q-143 0 -241 -98q-97 -97 -97 -238q0 -142 97 -239
t241 -97zM458 148q-78 0 -120.5 56t-42.5 158q0 105 43.5 163t123.5 58q59 0 99 -31.5t46 -83.5h-93q-10 36 -55 36q-69 0 -69 -108h3q26 43 90 43q58 0 94.5 -40.5t36.5 -102.5q0 -65 -44 -107q-44 -41 -112 -41zM521 294q0 31 -16.5 49.5t-44.5 18.5q-27 0 -44 -19.5
t-17 -49.5q0 -29 16.5 -47t44.5 -18t44.5 18t16.5 48z" />
    <glyph glyph-name="uni2786" unicode="&#x2786;" horiz-adv-x="891" 
d="M60 375q0 161 111 272q112 112 276 112q162 0 273 -112q111 -111 111 -272q0 -163 -111 -274q-112 -110 -273 -110q-163 0 -276 110q-111 111 -111 274zM447 39q141 0 238 97q98 98 98 239t-97 238q-98 98 -239 98q-143 0 -241 -98q-97 -97 -97 -238q0 -142 97 -239
t241 -97zM378 430h-70v147h295v-64q-123 -161 -156 -359h-98q12 93 49 183t91 161h-111v-68z" />
    <glyph glyph-name="uni2787" unicode="&#x2787;" horiz-adv-x="891" 
d="M447 -9q-163 0 -276 110q-111 111 -111 274q0 161 111 272q112 112 276 112q162 0 273 -112q111 -111 111 -272q0 -163 -111 -274q-112 -110 -273 -110zM447 39q141 0 238 97q98 98 98 239t-97 238q-98 98 -239 98q-143 0 -241 -98q-97 -97 -97 -238q0 -142 97 -239
t241 -97zM446 148q-72 0 -113.5 32.5t-41.5 87.5q0 30 16.5 56t44.5 39v5q-28 13 -44.5 38.5t-16.5 56.5q0 56 42.5 88t112.5 32q71 0 113.5 -33t42.5 -87q0 -31 -16.5 -56.5t-45.5 -38.5v-5q29 -12 45.5 -38.5t16.5 -57.5q0 -56 -42.5 -87.5t-113.5 -31.5zM446 402
q27 0 43.5 14t16.5 36q0 23 -16.5 37t-43.5 14t-43.5 -14.5t-16.5 -36.5t17 -36t43 -14zM446 228q27 0 43.5 14t16.5 36q0 23 -16.5 36.5t-43.5 13.5t-43.5 -14t-16.5 -36q0 -23 16.5 -36.5t43.5 -13.5z" />
    <glyph glyph-name="uni2788" unicode="&#x2788;" horiz-adv-x="891" 
d="M60 375q0 161 111 272q112 112 276 112q162 0 273 -112q111 -111 111 -272q0 -163 -111 -274q-112 -110 -273 -110q-163 0 -276 110q-111 111 -111 274zM447 39q141 0 238 97q98 98 98 239t-97 238q-98 98 -239 98q-143 0 -241 -98q-97 -97 -97 -238q0 -142 97 -239
t241 -97zM297 434q0 66 43 107.5t112 41.5q78 0 120.5 -56t42.5 -158q0 -105 -43 -163t-123 -58q-59 0 -98.5 31t-46.5 83h93q11 -36 55 -36q69 0 69 108h-3q-26 -41 -90 -41q-58 0 -94.5 39.5t-36.5 101.5zM390 435q0 -30 16.5 -48.5t45.5 -18.5q27 0 43 19.5t16 49.5
t-16 48.5t-43 18.5q-29 0 -45.5 -19t-16.5 -50z" />
    <glyph glyph-name="uniECE0" unicode="&#xece0;" horiz-adv-x="1023" 
d="M154 309v-247l-104 -78v745h374l-86 -110h-184v-203h129q20 140 122 230q101 91 240 91q91 0 172.5 -45t131.5 -123l-87 -65q-35 57 -95 91t-124 34q-108 0 -181 -79t-73 -185q0 -107 73 -186q74 -80 181 -80q65 0 123.5 33t93.5 92l89 -65q-51 -80 -132 -124.5
t-172 -44.5q-137 0 -240 90q-103 92 -122 229h-129zM535 365q0 -47 30 -82q31 -34 77 -34q30 0 57.5 18t43.5 49l86 -66q-30 -51 -78.5 -79t-106.5 -28q-88 0 -153 65q-64 65 -64 157q0 90 64 154q65 66 153 66q57 0 106 -28.5t79 -79.5l-86 -66q-15 30 -42.5 48t-58.5 18
q-45 0 -76 -33t-31 -79z" />
    <glyph glyph-name="uniEFCC" unicode="&#xefcc;" horiz-adv-x="1176" 
d="M100 361q0 166 100 269q101 104 262 104q20 0 38 -2v-120q-24 3 -37 3q-110 0 -178 -71q-67 -70 -67 -183t67 -183t178 -70q27 0 37 3v-121q-24 -2 -38 -2q-162 0 -262 103t-100 270zM725 366q0 166 96 267q98 101 260 101q20 0 44 -2v-120q-25 3 -40 3q-89 0 -152 -49
t-84 -143h200v-114h-200q21 -94 84 -143t152 -49q29 0 40 3v-121q-26 -2 -44 -2q-163 0 -260 100q-96 101 -96 269z" />
    <glyph glyph-name="uniF8FF" unicode="&#xf8ff;" horiz-adv-x="639" 
d="M428 632q-16 -21 -43 -36.5t-48 -19.5l-18 -3l-1 10q-6 57 31 104q22 29 51 46.5t48 18.5l18 2q-1 -2 1 -19q2 -16 -8.5 -47t-30.5 -56zM210 0q-44 0 -89 53q-45 56 -73 134q-28 80 -28 156q0 104 53 166q54 62 124 62q28 0 70 -17t56 -17q15 0 56 18q42 18 80 18
q51 0 87 -23t49 -45l5 -8q-21 -16 -28 -22q-52 -48 -52 -120q0 -58 29.5 -96t59.5 -53l10 -5q-5 -19 -28 -70q-14 -33 -33 -61q-20 -29 -48 -49t-55 -20q-19 0 -59 14q-38 15 -62 15q-26 0 -66 -15t-58 -15z" />
    <glyph glyph-name="NULL" 
 />
    <glyph glyph-name="CR" horiz-adv-x="333" 
 />
    <glyph glyph-name="uni00A40301" horiz-adv-x="433" 
d="M445 1035l78 -124l-249 -140l-57 87zM172 174v555h203v-570q0 -45 -11 -77q-7 -25 -23 -42q-40 -40 -125 -40h-201v174h157z" />
    <glyph glyph-name="G.ss01" horiz-adv-x="775" 
d="M28 358q0 178 100 278q101 102 263 102q133 0 224 -67q92 -68 105 -175h-211q-27 66 -122 66q-69 0 -107 -41t-38 -114v-96q0 -75 41 -114.5t113 -39.5q55 0 93 24t45 64h-156v154h369v-78q0 -155 -98 -244q-97 -87 -258 -87q-171 0 -267 98q-96 99 -96 270z" />
    <glyph glyph-name="Gbreve.ss01" horiz-adv-x="775" 
d="M464 935h113q0 -77 -47.5 -125.5t-127.5 -48.5t-126.5 48.5t-46.5 125.5h113q0 -70 60 -70q29 0 45.5 18t16.5 52zM28 358q0 178 100 278q101 102 263 102q133 0 224 -67q92 -68 105 -175h-211q-27 66 -122 66q-69 0 -107 -41t-38 -114v-96q0 -75 41 -114.5t113 -39.5
q55 0 93 24t45 64h-156v154h369v-78q0 -155 -98 -244q-97 -87 -258 -87q-171 0 -267 98q-96 99 -96 270z" />
    <glyph glyph-name="uni0122.ss01" horiz-adv-x="775" 
d="M28 358q0 178 100 278q101 102 263 102q133 0 224 -67q92 -68 105 -175h-211q-27 66 -122 66q-69 0 -107 -41t-38 -114v-96q0 -75 41 -114.5t113 -39.5q55 0 93 24t45 64h-156v154h369v-78q0 -155 -98 -244q-97 -87 -258 -87q-171 0 -267 98q-96 99 -96 270zM332 -317v52
q58 0 58 59v11h-58v146h142v-123q0 -70 -37.5 -107.5t-104.5 -37.5z" />
    <glyph glyph-name="Gdotaccent.ss01" horiz-adv-x="775" 
d="M474 772h-142v163h142v-163zM28 358q0 178 100 278q101 102 263 102q133 0 224 -67q92 -68 105 -175h-211q-27 66 -122 66q-69 0 -107 -41t-38 -114v-96q0 -75 41 -114.5t113 -39.5q55 0 93 24t45 64h-156v154h369v-78q0 -155 -98 -244q-97 -87 -258 -87q-171 0 -267 98
q-96 99 -96 270z" />
    <glyph glyph-name="R.ss02" horiz-adv-x="720" 
d="M266 0h-203v729h362q128 0 195 -66.5t67 -185.5q0 -74 -33.5 -128t-91.5 -76v-8q45 -18 79 -108l64 -157h-222l-70 163q-17 37 -35 48q-19 13 -64 13h-48v-224zM266 549v-162h135q35 0 53 16.5t18 43.5v42q0 60 -74 60h-132z" />
    <glyph glyph-name="Racute.ss02" horiz-adv-x="720" 
d="M624 911l-249 -140l-57 87l228 177zM266 0h-203v729h362q128 0 195 -66.5t67 -185.5q0 -74 -33.5 -128t-91.5 -76v-8q45 -18 79 -108l64 -157h-222l-70 163q-17 37 -35 48q-19 13 -64 13h-48v-224zM266 549v-162h135q35 0 53 16.5t18 43.5v42q0 60 -74 60h-132z" />
    <glyph glyph-name="Rcaron.ss02" horiz-adv-x="720" 
d="M324 773l-153 147l89 87l115 -125l115 125l89 -87l-152 -147h-103zM266 0h-203v729h362q128 0 195 -66.5t67 -185.5q0 -74 -33.5 -128t-91.5 -76v-8q45 -18 79 -108l64 -157h-222l-70 163q-17 37 -35 48q-19 13 -64 13h-48v-224zM266 549v-162h135q35 0 53 16.5t18 43.5
v42q0 60 -74 60h-132z" />
    <glyph glyph-name="uni0156.ss02" horiz-adv-x="720" 
d="M266 0h-203v729h362q128 0 195 -66.5t67 -185.5q0 -74 -33.5 -128t-91.5 -76v-8q45 -18 79 -108l64 -157h-222l-70 163q-17 37 -35 48q-19 13 -64 13h-48v-224zM266 549v-162h135q35 0 53 16.5t18 43.5v42q0 60 -74 60h-132zM304 -317v52q58 0 58 59v11h-58v146h142v-123
q0 -70 -37.5 -107.5t-104.5 -37.5z" />
    <glyph glyph-name="O.ss03" horiz-adv-x="782" 
d="M28 362q0 170 100 273t263 103t263 -103t100 -273q0 -168 -99 -270q-97 -102 -264 -102q-166 0 -265 102q-98 103 -98 270zM242 416v-104q0 -68 40 -107t109 -39t109 39.5t40 106.5v104q0 68 -40 107t-109 39t-109 -39.5t-40 -106.5zM464 294h-147v141h147v-141z" />
    <glyph glyph-name="Oacute.ss03" horiz-adv-x="782" 
d="M640 911l-249 -140l-57 87l228 177zM28 362q0 170 100 273t263 103t263 -103t100 -273q0 -168 -99 -270q-97 -102 -264 -102q-166 0 -265 102q-98 103 -98 270zM242 416v-104q0 -68 40 -107t109 -39t109 39.5t40 106.5v104q0 68 -40 107t-109 39t-109 -39.5t-40 -106.5z
M464 294h-147v141h147v-141z" />
    <glyph glyph-name="Ocircumflex.ss03" horiz-adv-x="782" 
d="M276 771l-89 88l152 145h104l152 -145l-89 -88l-115 124zM28 362q0 170 100 273t263 103t263 -103t100 -273q0 -168 -99 -270q-97 -102 -264 -102q-166 0 -265 102q-98 103 -98 270zM242 416v-104q0 -68 40 -107t109 -39t109 39.5t40 106.5v104q0 68 -40 107t-109 39
t-109 -39.5t-40 -106.5zM464 294h-147v141h147v-141z" />
    <glyph glyph-name="Odieresis.ss03" horiz-adv-x="782" 
d="M351 772h-142v163h142v-163zM572 772h-142v163h142v-163zM28 362q0 170 100 273t263 103t263 -103t100 -273q0 -168 -99 -270q-97 -102 -264 -102q-166 0 -265 102q-98 103 -98 270zM242 416v-104q0 -68 40 -107t109 -39t109 39.5t40 106.5v104q0 68 -40 107t-109 39
t-109 -39.5t-40 -106.5zM464 294h-147v141h147v-141z" />
    <glyph glyph-name="Ograve.ss03" horiz-adv-x="782" 
d="M448 858l-57 -87l-249 140l78 124zM28 362q0 170 100 273t263 103t263 -103t100 -273q0 -168 -99 -270q-97 -102 -264 -102q-166 0 -265 102q-98 103 -98 270zM242 416v-104q0 -68 40 -107t109 -39t109 39.5t40 106.5v104q0 68 -40 107t-109 39t-109 -39.5t-40 -106.5z
M464 294h-147v141h147v-141z" />
    <glyph glyph-name="Ohungarumlaut.ss03" horiz-adv-x="782" 
d="M502 903l-242 -141l-56 86l222 176zM769 903l-243 -141l-55 86l220 176zM28 362q0 170 100 273t263 103t263 -103t100 -273q0 -168 -99 -270q-97 -102 -264 -102q-166 0 -265 102q-98 103 -98 270zM242 416v-104q0 -68 40 -107t109 -39t109 39.5t40 106.5v104
q0 68 -40 107t-109 39t-109 -39.5t-40 -106.5zM464 294h-147v141h147v-141z" />
    <glyph glyph-name="Omacron.ss03" horiz-adv-x="782" 
d="M584 772h-387v143h387v-143zM28 362q0 170 100 273t263 103t263 -103t100 -273q0 -168 -99 -270q-97 -102 -264 -102q-166 0 -265 102q-98 103 -98 270zM242 416v-104q0 -68 40 -107t109 -39t109 39.5t40 106.5v104q0 68 -40 107t-109 39t-109 -39.5t-40 -106.5zM464 294
h-147v141h147v-141z" />
    <glyph glyph-name="Otilde.ss03" horiz-adv-x="782" 
d="M454 762q-30 2 -64 20q-37 20 -59 20q-31 0 -65 -39l-74 50q23 60 59.5 89t78.5 28q33 -2 66 -20q35 -18 59 -18q38 0 58 34l3 6l76 -47q-20 -61 -57 -92.5t-81 -30.5zM28 362q0 170 100 273t263 103t263 -103t100 -273q0 -168 -99 -270q-97 -102 -264 -102
q-166 0 -265 102q-98 103 -98 270zM242 416v-104q0 -68 40 -107t109 -39t109 39.5t40 106.5v104q0 68 -40 107t-109 39t-109 -39.5t-40 -106.5zM464 294h-147v141h147v-141z" />
    <glyph glyph-name="A.ss04" horiz-adv-x="753" 
d="M309 729h135l246 -282v-447h-203v139h-221v-139h-203v447zM266 391v-98h221v98l-103 126h-14z" />
    <glyph glyph-name="Aacute.ss04" horiz-adv-x="753" 
d="M548 1035l78 -124l-249 -140l-57 87zM309 729h135l246 -282v-447h-203v139h-221v-139h-203v447zM266 391v-98h221v98l-103 126h-14z" />
    <glyph glyph-name="Abreve.ss04" horiz-adv-x="753" 
d="M376 761q-80 0 -126.5 48.5t-46.5 125.5h113q0 -70 60 -70q29 0 45.5 18t16.5 52h113q0 -77 -47.5 -125.5t-127.5 -48.5zM309 729h135l246 -282v-447h-203v139h-221v-139h-203v447zM266 391v-98h221v98l-103 126h-14z" />
    <glyph glyph-name="Acircumflex.ss04" horiz-adv-x="753" 
d="M492 771l-115 124l-115 -124l-89 88l152 145h104l152 -145zM309 729h135l246 -282v-447h-203v139h-221v-139h-203v447zM266 391v-98h221v98l-103 126h-14z" />
    <glyph glyph-name="Adieresis.ss04" horiz-adv-x="753" 
d="M195 935h142v-163h-142v163zM416 935h142v-163h-142v163zM309 729h135l246 -282v-447h-203v139h-221v-139h-203v447zM266 391v-98h221v98l-103 126h-14z" />
    <glyph glyph-name="Agrave.ss04" horiz-adv-x="753" 
d="M206 1035l228 -177l-57 -87l-249 140zM309 729h135l246 -282v-447h-203v139h-221v-139h-203v447zM266 391v-98h221v98l-103 126h-14z" />
    <glyph glyph-name="Amacron.ss04" horiz-adv-x="753" 
d="M183 915h387v-143h-387v143zM309 729h135l246 -282v-447h-203v139h-221v-139h-203v447zM266 391v-98h221v98l-103 126h-14z" />
    <glyph glyph-name="Aogonek.ss04" horiz-adv-x="753" 
d="M658 -114q26 0 57 11v-95q-36 -18 -90 -18q-63 -1 -102 32.5t-39 87.5q0 59 43 96h-40v139h-221v-139h-203v447l246 282h135l246 -282v-447q-97 -10 -97 -70q0 -44 65 -44zM266 391v-98h221v98l-103 126h-14z" />
    <glyph glyph-name="Aring.ss04" horiz-adv-x="753" 
d="M459 711l231 -264v-447h-203v139h-221v-139h-203v447l231 265q-55 37 -55 108q0 59 38.5 95t99.5 36t99.5 -36t38.5 -95q0 -71 -56 -109zM338 820q-3 -26 18 -37t42 0t19 37q2 26 -19 37.5t-42 0.5t-18 -38zM266 391v-98h221v98l-103 126h-14z" />
    <glyph glyph-name="Atilde.ss04" horiz-adv-x="753" 
d="M317 802q-31 0 -65 -39l-74 50q23 60 59.5 89t78.5 28q33 -2 66 -20q35 -18 59 -18q38 0 58 34l3 6l76 -47q-20 -61 -57 -92.5t-81 -30.5q-30 2 -64 20q-37 20 -59 20zM309 729h135l246 -282v-447h-203v139h-221v-139h-203v447zM266 391v-98h221v98l-103 126h-14z" />
    <glyph glyph-name="I.ss04" horiz-adv-x="673" 
d="M610 729v-174h-172v-381h172v-174h-547v174h172v381h-172v174h547z" />
    <glyph glyph-name="V.ss04" horiz-adv-x="752" 
d="M63 281v448h202v-400l104 -125h15l102 125v400h203v-448l-246 -281h-135z" />
    <glyph glyph-name="W.ss04" horiz-adv-x="957" 
d="M237 0l-174 251v478h202v-423l51 -75h16l55 75v233h186v-233l53 -75h15l51 75v423h202v-478l-174 -251h-145l-96 150l-98 -150h-144z" />
    <glyph glyph-name="Wacute.ss04" horiz-adv-x="957" 
d="M728 911l-249 -140l-57 87l228 177zM237 0l-174 251v478h202v-423l51 -75h16l55 75v233h186v-233l53 -75h15l51 75v423h202v-478l-174 -251h-145l-96 150l-98 -150h-144z" />
    <glyph glyph-name="Wcircumflex.ss04" horiz-adv-x="957" 
d="M364 771l-89 88l152 145h104l152 -145l-89 -88l-115 124zM237 0l-174 251v478h202v-423l51 -75h16l55 75v233h186v-233l53 -75h15l51 75v423h202v-478l-174 -251h-145l-96 150l-98 -150h-144z" />
    <glyph glyph-name="Wdieresis.ss04" horiz-adv-x="957" 
d="M439 772h-142v163h142v-163zM660 772h-142v163h142v-163zM237 0l-174 251v478h202v-423l51 -75h16l55 75v233h186v-233l53 -75h15l51 75v423h202v-478l-174 -251h-145l-96 150l-98 -150h-144z" />
    <glyph glyph-name="Wgrave.ss04" horiz-adv-x="957" 
d="M536 858l-57 -87l-249 140l78 124zM237 0l-174 251v478h202v-423l51 -75h16l55 75v233h186v-233l53 -75h15l51 75v423h202v-478l-174 -251h-145l-96 150l-98 -150h-144z" />
    <glyph glyph-name="Y.ss04" horiz-adv-x="716" 
d="M468 729h203v-272l-211 -241v-216h-203v214l-212 243v272h202v-224l104 -125h15l102 125v224z" />
    <glyph glyph-name="Yacute.ss04" horiz-adv-x="716" 
d="M529 1035l78 -124l-249 -140l-57 87zM468 729h203v-272l-211 -241v-216h-203v214l-212 243v272h202v-224l104 -125h15l102 125v224z" />
    <glyph glyph-name="Ycircumflex.ss04" horiz-adv-x="716" 
d="M473 771l-115 124l-115 -124l-89 88l152 145h104l152 -145zM468 729h203v-272l-211 -241v-216h-203v214l-212 243v272h202v-224l104 -125h15l102 125v224z" />
    <glyph glyph-name="Ydieresis.ss04" horiz-adv-x="716" 
d="M176 935h142v-163h-142v163zM397 935h142v-163h-142v163zM468 729h203v-272l-211 -241v-216h-203v214l-212 243v272h202v-224l104 -125h15l102 125v224z" />
    <glyph glyph-name="Ygrave.ss04" horiz-adv-x="716" 
d="M187 1035l228 -177l-57 -87l-249 140zM468 729h203v-272l-211 -241v-216h-203v214l-212 243v272h202v-224l104 -125h15l102 125v224z" />
    <glyph glyph-name="i.loclTRK" horiz-adv-x="285" 
d="M237 587h-188v163h188v-163zM238 0h-191v544h191v-544z" />
    <glyph glyph-name="uni006A0301" horiz-adv-x="289" 
d="M318 850l78 -124l-249 -140l-57 87zM51 -19v563h191l-1 -446v-106q0 -45 -11 -77q-21 -77 -147 -82h-136v148h104z" />
    <glyph glyph-name="s.001" horiz-adv-x="546" 
d="M24 174h188q3 -52 72 -52q48 0 48 32q0 12 -8.5 20t-15.5 10t-23 6l-79 16q-175 34 -175 166q0 85 66 133q67 49 175 49q107 0 170.5 -47.5t66.5 -126.5h-188q0 42 -55 42q-44 0 -44 -29q0 -5 1.5 -9.5t5.5 -7.5t7.5 -5t10.5 -4t11 -3t12.5 -3t12.5 -3l86 -20
q157 -36 157 -164q0 -84 -68 -134t-184 -50q-118 0 -186 51q-65 52 -64 133z" />
    <glyph glyph-name="germandbls.alt01" horiz-adv-x="707" 
d="M636 587l-93 -155q64 -22 101 -72.5t37 -118.5q0 -113 -77.5 -177t-210.5 -64h-63v168h55q40 0 61.5 17t21.5 47v40q0 30 -20.5 46.5t-54.5 16.5h-85l117 209q-32 29 -81 29q-34 0 -55.5 -19.5t-21.5 -52.5v-501h-204v472q0 126 75.5 196t207.5 70q95 0 172.5 -40.5
t117.5 -110.5z" />
    <glyph glyph-name="a.ss01" horiz-adv-x="658" 
d="M446 544h165v-544h-191v97h-10q-19 -50 -63 -78.5t-107 -28.5q-102 0 -161 74.5t-59 207.5q0 131 56.5 206.5t156.5 75.5q61 0 107.5 -28t69.5 -80h10zM420 256v33q0 53 -28 82.5t-80 29.5q-98 0 -98 -92v-73q0 -93 99 -93q51 0 79 30t28 83z" />
    <glyph glyph-name="aacute.ss01" horiz-adv-x="658" 
d="M492 726l-249 -140l-57 87l228 177zM446 544h165v-544h-191v97h-10q-19 -50 -63 -78.5t-107 -28.5q-102 0 -161 74.5t-59 207.5q0 131 56.5 206.5t156.5 75.5q61 0 107.5 -28t69.5 -80h10zM420 256v33q0 53 -28 82.5t-80 29.5q-98 0 -98 -92v-73q0 -93 99 -93q51 0 79 30
t28 83z" />
    <glyph glyph-name="abreve.ss01" horiz-adv-x="658" 
d="M304 750h113q0 -77 -47.5 -125.5t-127.5 -48.5t-126.5 48.5t-46.5 125.5h113q0 -70 60 -70q29 0 45.5 18t16.5 52zM446 544h165v-544h-191v97h-10q-19 -50 -63 -78.5t-107 -28.5q-102 0 -161 74.5t-59 207.5q0 131 56.5 206.5t156.5 75.5q61 0 107.5 -28t69.5 -80h10z
M420 256v33q0 53 -28 82.5t-80 29.5q-98 0 -98 -92v-73q0 -93 99 -93q51 0 79 30t28 83z" />
    <glyph glyph-name="acircumflex.ss01" horiz-adv-x="658" 
d="M128 586l-89 88l152 145h104l152 -145l-89 -88l-115 124zM446 544h165v-544h-191v97h-10q-19 -50 -63 -78.5t-107 -28.5q-102 0 -161 74.5t-59 207.5q0 131 56.5 206.5t156.5 75.5q61 0 107.5 -28t69.5 -80h10zM420 256v33q0 53 -28 82.5t-80 29.5q-98 0 -98 -92v-73
q0 -93 99 -93q51 0 79 30t28 83z" />
    <glyph glyph-name="adieresis.ss01" horiz-adv-x="658" 
d="M273 587h-142v163h142v-163zM494 587h-142v163h142v-163zM446 544h165v-544h-191v97h-10q-19 -50 -63 -78.5t-107 -28.5q-102 0 -161 74.5t-59 207.5q0 131 56.5 206.5t156.5 75.5q61 0 107.5 -28t69.5 -80h10zM420 256v33q0 53 -28 82.5t-80 29.5q-98 0 -98 -92v-73
q0 -93 99 -93q51 0 79 30t28 83z" />
    <glyph glyph-name="agrave.ss01" horiz-adv-x="658" 
d="M300 673l-57 -87l-249 140l78 124zM446 544h165v-544h-191v97h-10q-19 -50 -63 -78.5t-107 -28.5q-102 0 -161 74.5t-59 207.5q0 131 56.5 206.5t156.5 75.5q61 0 107.5 -28t69.5 -80h10zM420 256v33q0 53 -28 82.5t-80 29.5q-98 0 -98 -92v-73q0 -93 99 -93q51 0 79 30
t28 83z" />
    <glyph glyph-name="amacron.ss01" horiz-adv-x="658" 
d="M436 587h-387v143h387v-143zM446 544h165v-544h-191v97h-10q-19 -50 -63 -78.5t-107 -28.5q-102 0 -161 74.5t-59 207.5q0 131 56.5 206.5t156.5 75.5q61 0 107.5 -28t69.5 -80h10zM420 256v33q0 53 -28 82.5t-80 29.5q-98 0 -98 -92v-73q0 -93 99 -93q51 0 79 30t28 83z
" />
    <glyph glyph-name="aogonek.ss01" horiz-adv-x="658" 
d="M561 -114q26 0 57 11v-95q-36 -18 -90 -18q-63 -1 -102 32.5t-39 87.5q0 59 43 96h-10v97h-10q-19 -50 -63 -78.5t-107 -28.5q-102 0 -161 74.5t-59 207.5q0 131 56.5 206.5t156.5 75.5q61 0 107.5 -28t69.5 -80h10l26 98h165v-544h-18q-97 -10 -97 -70q0 -44 65 -44z
M420 256v33q0 53 -28 82.5t-80 29.5q-98 0 -98 -92v-73q0 -93 99 -93q51 0 79 30t28 83z" />
    <glyph glyph-name="aring.ss01" horiz-adv-x="658" 
d="M420 446l26 98h165v-544h-191v97h-10q-19 -50 -63 -78.5t-107 -28.5q-102 0 -161 74.5t-59 207.5q0 99 33 167.5t94 96.5q-42 39 -42 99q0 59 38.5 95t99.5 36t99.5 -36t38.5 -95q0 -67 -49 -104q53 -29 78 -85h10zM204 635q-3 -26 18 -37t42 0t19 37q2 26 -19 37.5
t-42 0.5t-18 -38zM420 256v33q0 53 -28 82.5t-80 29.5q-98 0 -98 -92v-73q0 -93 99 -93q51 0 79 30t28 83z" />
    <glyph glyph-name="atilde.ss01" horiz-adv-x="658" 
d="M306 577q-30 2 -64 20q-37 20 -59 20q-31 0 -65 -39l-74 50q23 60 59.5 89t78.5 28q33 -2 66 -20q35 -18 59 -18q36 1 58 35l3 5l76 -47q-20 -61 -57 -92.5t-81 -30.5zM446 544h165v-544h-191v97h-10q-19 -50 -63 -78.5t-107 -28.5q-102 0 -161 74.5t-59 207.5
q0 131 56.5 206.5t156.5 75.5q61 0 107.5 -28t69.5 -80h10zM420 256v33q0 53 -28 82.5t-80 29.5q-98 0 -98 -92v-73q0 -93 99 -93q51 0 79 30t28 83z" />
    <glyph glyph-name="g.ss01" horiz-adv-x="658" 
d="M20 292q0 118 57 190t156 72q61 0 107.5 -28t69.5 -80h10l26 98h165v-487q0 -111 -79 -172q-80 -62 -212 -62q-119 0 -193 48q-73 48 -79 129h189q14 -44 83 -44q47 0 73.5 20.5t26.5 55.5v105h-10q-19 -50 -63 -78.5t-107 -28.5q-100 0 -160 70t-60 192zM214 319v-53
q0 -41 26 -62t73 -21q50 0 78.5 28.5t28.5 74.5v13q0 47 -28.5 74.5t-79.5 27.5q-49 0 -73.5 -22t-24.5 -60z" />
    <glyph glyph-name="gbreve.ss01" horiz-adv-x="658" 
d="M314 750h113q0 -77 -47.5 -125.5t-127.5 -48.5t-126.5 48.5t-46.5 125.5h113q0 -70 60 -70q29 0 45.5 18t16.5 52zM20 292q0 118 57 190t156 72q61 0 107.5 -28t69.5 -80h10l26 98h165v-487q0 -111 -79 -172q-80 -62 -212 -62q-119 0 -193 48q-73 48 -79 129h189
q14 -44 83 -44q47 0 73.5 20.5t26.5 55.5v105h-10q-19 -50 -63 -78.5t-107 -28.5q-100 0 -160 70t-60 192zM214 319v-53q0 -41 26 -62t73 -21q50 0 78.5 28.5t28.5 74.5v13q0 47 -28.5 74.5t-79.5 27.5q-49 0 -73.5 -22t-24.5 -60z" />
    <glyph glyph-name="uni0123.ss01" horiz-adv-x="658" 
d="M324 855v-52q-58 0 -58 -59v-11h58v-146h-142v123q0 70 37.5 107.5t104.5 37.5zM20 292q0 118 57 190t156 72q61 0 107.5 -28t69.5 -80h10l26 98h165v-487q0 -111 -79 -172q-80 -62 -212 -62q-119 0 -193 48q-73 48 -79 129h189q14 -44 83 -44q47 0 73.5 20.5t26.5 55.5
v105h-10q-19 -50 -63 -78.5t-107 -28.5q-100 0 -160 70t-60 192zM214 319v-53q0 -41 26 -62t73 -21q50 0 78.5 28.5t28.5 74.5v13q0 47 -28.5 74.5t-79.5 27.5q-49 0 -73.5 -22t-24.5 -60z" />
    <glyph glyph-name="gdotaccent.ss01" horiz-adv-x="658" 
d="M324 587h-142v163h142v-163zM20 292q0 118 57 190t156 72q61 0 107.5 -28t69.5 -80h10l26 98h165v-487q0 -111 -79 -172q-80 -62 -212 -62q-119 0 -193 48q-73 48 -79 129h189q14 -44 83 -44q47 0 73.5 20.5t26.5 55.5v105h-10q-19 -50 -63 -78.5t-107 -28.5
q-100 0 -160 70t-60 192zM214 319v-53q0 -41 26 -62t73 -21q50 0 78.5 28.5t28.5 74.5v13q0 47 -28.5 74.5t-79.5 27.5q-49 0 -73.5 -22t-24.5 -60z" />
    <glyph glyph-name="a.ss02" horiz-adv-x="556" 
d="M11 153q0 83 52.5 129t143.5 46h124v34q0 50 -61 50q-29 0 -46 -14t-17 -36h-185q7 95 73.5 143.5t182.5 48.5q245 0 245 -211v-343h-165l-20 88h-10q-35 -98 -156 -98q-74 0 -117.5 44.5t-43.5 118.5zM203 183v-17q0 -35 49 -35q36 0 58 21t22 55v9h-86q-43 0 -43 -33z
" />
    <glyph glyph-name="aacute.ss02" horiz-adv-x="556" 
d="M527 726l-249 -140l-57 87l228 177zM11 153q0 83 52.5 129t143.5 46h124v34q0 50 -61 50q-29 0 -46 -14t-17 -36h-185q7 95 73.5 143.5t182.5 48.5q245 0 245 -211v-343h-165l-20 88h-10q-35 -98 -156 -98q-74 0 -117.5 44.5t-43.5 118.5zM203 183v-17q0 -35 49 -35
q36 0 58 21t22 55v9h-86q-43 0 -43 -33z" />
    <glyph glyph-name="abreve.ss02" horiz-adv-x="556" 
d="M339 750h113q0 -77 -47.5 -125.5t-127.5 -48.5t-126.5 48.5t-46.5 125.5h113q0 -70 60 -70q29 0 45.5 18t16.5 52zM11 153q0 83 52.5 129t143.5 46h124v34q0 50 -61 50q-29 0 -46 -14t-17 -36h-185q7 95 73.5 143.5t182.5 48.5q245 0 245 -211v-343h-165l-20 88h-10
q-35 -98 -156 -98q-74 0 -117.5 44.5t-43.5 118.5zM203 183v-17q0 -35 49 -35q36 0 58 21t22 55v9h-86q-43 0 -43 -33z" />
    <glyph glyph-name="acircumflex.ss02" horiz-adv-x="556" 
d="M163 586l-89 88l152 145h104l152 -145l-89 -88l-115 124zM11 153q0 83 52.5 129t143.5 46h124v34q0 50 -61 50q-29 0 -46 -14t-17 -36h-185q7 95 73.5 143.5t182.5 48.5q245 0 245 -211v-343h-165l-20 88h-10q-35 -98 -156 -98q-74 0 -117.5 44.5t-43.5 118.5zM203 183
v-17q0 -35 49 -35q36 0 58 21t22 55v9h-86q-43 0 -43 -33z" />
    <glyph glyph-name="adieresis.ss02" horiz-adv-x="556" 
d="M238 587h-142v163h142v-163zM459 587h-142v163h142v-163zM11 153q0 83 52.5 129t143.5 46h124v34q0 50 -61 50q-29 0 -46 -14t-17 -36h-185q7 95 73.5 143.5t182.5 48.5q245 0 245 -211v-343h-165l-20 88h-10q-35 -98 -156 -98q-74 0 -117.5 44.5t-43.5 118.5zM203 183
v-17q0 -35 49 -35q36 0 58 21t22 55v9h-86q-43 0 -43 -33z" />
    <glyph glyph-name="agrave.ss02" horiz-adv-x="556" 
d="M335 673l-57 -87l-249 140l78 124zM11 153q0 83 52.5 129t143.5 46h124v34q0 50 -61 50q-29 0 -46 -14t-17 -36h-185q7 95 73.5 143.5t182.5 48.5q245 0 245 -211v-343h-165l-20 88h-10q-35 -98 -156 -98q-74 0 -117.5 44.5t-43.5 118.5zM203 183v-17q0 -35 49 -35
q36 0 58 21t22 55v9h-86q-43 0 -43 -33z" />
    <glyph glyph-name="amacron.ss02" horiz-adv-x="556" 
d="M471 587h-387v143h387v-143zM11 153q0 83 52.5 129t143.5 46h124v34q0 50 -61 50q-29 0 -46 -14t-17 -36h-185q7 95 73.5 143.5t182.5 48.5q245 0 245 -211v-343h-165l-20 88h-10q-35 -98 -156 -98q-74 0 -117.5 44.5t-43.5 118.5zM203 183v-17q0 -35 49 -35q36 0 58 21
t22 55v9h-86q-43 0 -43 -33z" />
    <glyph glyph-name="aogonek.ss02" horiz-adv-x="556" 
d="M488 -114q26 0 57 11v-95q-36 -18 -90 -18q-63 -1 -102 32.5t-39 87.5q0 60 44 96l-20 88h-10q-35 -98 -156 -98q-74 0 -117.5 44.5t-43.5 118.5q0 83 52.5 129t143.5 46h124v34q0 50 -61 50q-29 0 -46 -14t-17 -36h-185q7 95 73.5 143.5t182.5 48.5q245 0 245 -211v-343
h-3q-97 -10 -97 -70q0 -44 65 -44zM332 207v9h-86q-43 0 -43 -33v-17q0 -35 49 -35q36 0 58 21t22 55z" />
    <glyph glyph-name="aring.ss02" horiz-adv-x="556" 
d="M380 542q143 -41 143 -199v-343h-165l-20 88h-10q-35 -98 -156 -98q-74 0 -117.5 44.5t-43.5 118.5q0 83 52.5 129t143.5 46h124v34q0 50 -61 50q-29 0 -46 -14t-17 -36h-185q11 143 154 180q-36 36 -36 93q0 59 38.5 95t99.5 36t99.5 -36t38.5 -95q0 -57 -36 -93z
M239 635q-3 -26 18 -37t42 0t19 37q2 26 -19 37.5t-42 0.5t-18 -38zM332 207v9h-86q-43 0 -43 -33v-17q0 -35 49 -35q36 0 58 21t22 55z" />
    <glyph glyph-name="atilde.ss02" horiz-adv-x="556" 
d="M341 577q-30 2 -64 20q-37 20 -59 20q-30 0 -65 -39l-74 50q23 60 59.5 89t78.5 28q33 -2 66 -20q35 -18 59 -18q36 1 58 35l3 5l76 -47q-20 -61 -57 -92.5t-81 -30.5zM11 153q0 83 52.5 129t143.5 46h124v34q0 50 -61 50q-29 0 -46 -14t-17 -36h-185q7 95 73.5 143.5
t182.5 48.5q245 0 245 -211v-343h-165l-20 88h-10q-35 -98 -156 -98q-74 0 -117.5 44.5t-43.5 118.5zM203 183v-17q0 -35 49 -35q36 0 58 21t22 55v9h-86q-43 0 -43 -33z" />
    <glyph glyph-name="o.ss03" horiz-adv-x="598" 
d="M20 273q0 127 74 204q75 77 205 77q125 0 202 -75q77 -74 77 -206q0 -129 -75 -206q-74 -77 -204 -77q-125 0 -202 75t-77 208zM214 315v-86q0 -85 85 -85t85 85v86q0 85 -85 85t-85 -85zM343 230h-87v85h87v-85z" />
    <glyph glyph-name="oacute.ss03" horiz-adv-x="598" 
d="M548 726l-249 -140l-57 87l228 177zM20 273q0 127 74 204q75 77 205 77q125 0 202 -75q77 -74 77 -206q0 -129 -75 -206q-74 -77 -204 -77q-125 0 -202 75t-77 208zM214 315v-86q0 -85 85 -85t85 85v86q0 85 -85 85t-85 -85zM343 230h-87v85h87v-85z" />
    <glyph glyph-name="ocircumflex.ss03" horiz-adv-x="598" 
d="M184 586l-89 88l152 145h104l152 -145l-89 -88l-115 124zM20 273q0 127 74 204q75 77 205 77q125 0 202 -75q77 -74 77 -206q0 -129 -75 -206q-74 -77 -204 -77q-125 0 -202 75t-77 208zM214 315v-86q0 -85 85 -85t85 85v86q0 85 -85 85t-85 -85zM343 230h-87v85h87v-85z
" />
    <glyph glyph-name="odieresis.ss03" horiz-adv-x="598" 
d="M259 587h-142v163h142v-163zM480 587h-142v163h142v-163zM20 273q0 127 74 204q75 77 205 77q125 0 202 -75q77 -74 77 -206q0 -129 -75 -206q-74 -77 -204 -77q-125 0 -202 75t-77 208zM214 315v-86q0 -85 85 -85t85 85v86q0 85 -85 85t-85 -85zM343 230h-87v85h87v-85z
" />
    <glyph glyph-name="ograve.ss03" horiz-adv-x="598" 
d="M356 673l-57 -87l-249 140l78 124zM20 273q0 127 74 204q75 77 205 77q125 0 202 -75q77 -74 77 -206q0 -129 -75 -206q-74 -77 -204 -77q-125 0 -202 75t-77 208zM214 315v-86q0 -85 85 -85t85 85v86q0 85 -85 85t-85 -85zM343 230h-87v85h87v-85z" />
    <glyph glyph-name="ohungarumlaut.ss03" horiz-adv-x="598" 
d="M410 718l-242 -141l-56 86l222 176zM677 718l-243 -141l-55 86l220 176zM20 273q0 127 74 204q75 77 205 77q125 0 202 -75q77 -74 77 -206q0 -129 -75 -206q-74 -77 -204 -77q-125 0 -202 75t-77 208zM214 315v-86q0 -85 85 -85t85 85v86q0 85 -85 85t-85 -85zM343 230
h-87v85h87v-85z" />
    <glyph glyph-name="omacron.ss03" horiz-adv-x="598" 
d="M492 587h-387v143h387v-143zM20 273q0 127 74 204q75 77 205 77q125 0 202 -75q77 -74 77 -206q0 -129 -75 -206q-74 -77 -204 -77q-125 0 -202 75t-77 208zM214 315v-86q0 -85 85 -85t85 85v86q0 85 -85 85t-85 -85zM343 230h-87v85h87v-85z" />
    <glyph glyph-name="otilde.ss03" horiz-adv-x="598" 
d="M362 577q-30 2 -64 20q-37 20 -59 20q-31 0 -65 -39l-74 50q23 60 59.5 89t78.5 28q33 -2 66 -20q34 -18 59 -18q36 1 58 35l3 5l76 -47q-20 -61 -57 -92.5t-81 -30.5zM20 273q0 127 74 204q75 77 205 77q125 0 202 -75q77 -74 77 -206q0 -129 -75 -206q-74 -77 -204 -77
q-125 0 -202 75t-77 208zM214 315v-86q0 -85 85 -85t85 85v86q0 85 -85 85t-85 -85zM343 230h-87v85h87v-85z" />
    <glyph glyph-name="h_t_t_p" horiz-adv-x="1994" 
d="M90 770h1814v-957h-676v512h-129v-173h84v-128h-112q-71 0 -104.5 31t-33.5 107v163h-160v-173h85v-128h-113q-70 0 -103.5 31.5t-33.5 106.5v163h-79v130h79v139h165v-139h160v139h166v-139h272l22 -87h9q18 46 58.5 71t91.5 25q86 0 136 -62t50 -163t-51 -162t-135 -61
q-56 0 -95 24.5t-55 67.5h-9v-202h407v770h-1606v-305h9q41 93 153 93q79 0 119 -52.5t40 -147.5v-240h-165v224q0 40 -19.5 62t-53.5 22q-39 0 -61 -26t-22 -71v-329h989v-93h-1093v957zM1393 248v-15q0 -35 24.5 -60t63.5 -25q42 0 66.5 26.5t24.5 66.5t-25 66t-64 26
q-38 0 -64 -25.5t-26 -59.5z" />
    <glyph glyph-name="w_w_w" horiz-adv-x="2010" 
d="M347 0h-201l-143 544h183l37 -190l30 -180h6l53 370h173l49 -373h5l71 373h183l66 -370h6l54 370h173l49 -373h5l71 373h183l66 -370h6l54 370h173l49 -373h5l29 181l42 192h183l-148 -544h-201l-44 300h-6l-47 -300h-201l-53 259l-55 -259h-201l-44 300h-6l-47 -300
h-201l-53 255l-54 -255h-201l-45 300h-6z" />
    <glyph glyph-name="zero.ss01" horiz-adv-x="643" 
d="M324 730q137 0 211 -96t74 -274t-74 -274t-211 -96q-139 0 -214.5 96t-75.5 274t75.5 274t214.5 96zM242 470v-220q0 -49 17.5 -71t61.5 -22q42 0 61 20.5t19 72.5v220q0 52 -19 72.5t-61 20.5q-44 0 -61.5 -22t-17.5 -71zM376 310h-115v104h115v-104z" />
    <glyph glyph-name="zero.tf" horiz-adv-x="600" 
d="M305 730q137 0 211 -96t74 -274t-74 -274t-211 -96q-139 0 -214.5 96t-75.5 274t75.5 274t214.5 96zM302 563q-44 0 -61.5 -22t-17.5 -71v-74l157 102q-5 36 -24 50.5t-54 14.5zM302 157q42 0 61 20.5t19 72.5v78l-158 -102q4 -36 22 -52.5t56 -16.5z" />
    <glyph glyph-name="one.tf" horiz-adv-x="600" 
d="M414 721v-556h181v-165h-576v165h200v283h-200v143q82 0 140.5 35t71.5 95h183z" />
    <glyph glyph-name="two.tf" horiz-adv-x="600" 
d="M417 170h152v-170h-521v129l270 276q43 43 43 73v29q0 26 -18.5 41.5t-48.5 15.5q-35 0 -54.5 -19t-19.5 -52v-23h-187q-6 122 67 191q74 69 200 69q123 0 194 -62q70 -61 70 -165q0 -105 -94 -199l-139 -141q42 7 86 7z" />
    <glyph glyph-name="three.tf" horiz-adv-x="600" 
d="M287 -10q-127 0 -204 62q-76 63 -76 164v16h192v-7q0 -33 23.5 -53t60.5 -20q39 0 64 18.5t25 48.5v13q0 29 -17.5 45.5t-47.5 16.5h-98v143h87q28 0 46 16t18 41v13q0 29 -20.5 45t-54.5 16t-56 -19t-22 -50v-7h-191v17q0 99 76 160t200 61q117 0 191 -56
q73 -55 73 -147q0 -51 -23 -92t-61 -60v-7q44 -17 69 -60t25 -100q0 -98 -78 -158q-76 -60 -201 -60z" />
    <glyph glyph-name="four.tf" horiz-adv-x="600" 
d="M518 721v-432h84v-158h-84v-131h-196v131h-317v143l227 447h286zM322 543l-130 -254h130v254z" />
    <glyph glyph-name="five.tf" horiz-adv-x="600" 
d="M29 229h197q2 -35 25.5 -56t60.5 -21q40 0 62.5 21t22.5 56v33q0 33 -23 53.5t-59 20.5q-70 0 -87 -61h-186l21 446h470v-169h-298l-4 -83l8 -3q37 24 111 24q111 0 176 -68t65 -176q0 -116 -75 -186q-74 -70 -204 -70q-124 0 -201 65q-78 65 -82 174z" />
    <glyph glyph-name="six.tf" horiz-adv-x="600" 
d="M23 363q0 178 75 272.5t217 94.5q108 0 177.5 -52.5t81.5 -142.5h-197q-15 34 -68 34q-48 0 -71.5 -34t-19.5 -95h8q39 54 133 54q103 0 166 -67q64 -65 64 -175q0 -120 -75 -190q-76 -71 -199 -71q-141 0 -216.5 96t-75.5 276zM236 269v-42q0 -68 80 -68t80 68v42
q0 33 -21.5 51t-58.5 18q-80 0 -80 -69z" />
    <glyph glyph-name="seven.tf" horiz-adv-x="600" 
d="M179 442h-154v279h548v-142q-97 -127 -170 -281q-73 -153 -94 -298h-209q16 135 83 282q66 146 159 270h-163v-110z" />
    <glyph glyph-name="eight.tf" horiz-adv-x="600" 
d="M289 -10q-134 0 -207 55.5t-73 151.5q0 115 100 160v8q-100 46 -100 160q0 98 75 151.5t208 53.5t206 -55t73 -150q0 -114 -100 -160v-8q100 -46 100 -161q0 -98 -75 -152t-207 -54zM371 497v12q0 55 -81 55t-81 -55v-12q0 -57 81 -57t81 57zM371 215v12q0 56 -81 56
t-81 -56v-12q0 -58 81 -58t81 58z" />
    <glyph glyph-name="nine.tf" horiz-adv-x="600" 
d="M583 358q0 -178 -75 -272.5t-217 -94.5q-108 0 -177.5 52.5t-81.5 142.5h197q15 -34 68 -34q48 0 71.5 34t19.5 95h-8q-39 -54 -133 -54q-103 0 -167 66q-63 67 -63 176q0 119 75 190q76 71 199 71q141 0 216.5 -96t75.5 -276zM370 452v42q0 68 -80 68t-80 -68v-42
q0 -33 21.5 -51t58.5 -18q80 0 80 69z" />
    <glyph glyph-name="zero.tf.ss01" horiz-adv-x="600" 
d="M305 730q137 0 211 -96t74 -274t-74 -274t-211 -96q-139 0 -214.5 96t-75.5 274t75.5 274t214.5 96zM302 563q-44 0 -61.5 -22t-17.5 -71v-39h159v39q0 52 -19 72.5t-61 20.5zM302 157q42 0 61 20.5t19 72.5v40h-159v-40q0 -49 17.5 -71t61.5 -22z" />
    <glyph glyph-name="zero.dnom" horiz-adv-x="416" 
d="M207 -4q-90 0 -137 65t-47 181q0 118 49 181t136 63q91 0 138 -65.5t47 -179.5q0 -118 -49.5 -181.5t-136.5 -63.5zM206 96q37 0 51.5 34t14.5 107q0 83 -15.5 116.5t-47.5 33.5q-37 0 -51.5 -34t-14.5 -107q0 -81 16 -115.5t47 -34.5z" />
    <glyph glyph-name="one.dnom" horiz-adv-x="317" 
d="M146 301h-125v93h45q42 0 64.5 22t22.5 61v3h109v-480h-116v301z" />
    <glyph glyph-name="two.dnom" horiz-adv-x="382" 
d="M170 97l51 3h124v-100h-320v16q0 104 74 169q15 13 45.5 37.5t46 38.5t29.5 35t14 41q0 24 -14 37.5t-37 13.5q-26 0 -39.5 -18t-11.5 -48l-116 6q2 71 50 114.5t125 43.5q75 0 117.5 -40.5t42.5 -109.5q0 -41 -20.5 -79t-50.5 -62l-61 -50q-33 -27 -49 -48z" />
    <glyph glyph-name="three.dnom" horiz-adv-x="372" 
d="M182 -7q-76 0 -122 41.5t-45 109.5h115q1 -21 15 -35.5t35 -14.5q22 0 36 14t14 36q0 21 -14.5 34.5t-38.5 13.5h-45v104h30q27 0 42 13.5t15 34.5q0 42 -44 42q-23 0 -36 -14t-12 -36h-116q-1 69 43.5 109.5t124.5 40.5q73 0 115.5 -35.5t42.5 -94.5q0 -71 -63 -101v-5
q74 -30 74 -114q0 -63 -46.5 -103t-119.5 -40z" />
    <glyph glyph-name="four.dnom" horiz-adv-x="364" 
d="M329 480v-298h45v-101h-45v-81h-114v81h-206v93l149 306h171zM215 346l-78 -164h78v164z" />
    <glyph glyph-name="five.dnom" horiz-adv-x="399" 
d="M23 151h117q0 -26 16.5 -41.5t43.5 -15.5q25 0 42 18.5t17 47.5t-18 48t-44 19q-45 0 -55 -37h-110v290h311v-100h-197v-39l-3 -34l4 -3q25 22 75 22q69 0 111 -46t42 -118q0 -76 -48.5 -122.5t-128.5 -46.5q-78 0 -126 43.5t-49 114.5z" />
    <glyph glyph-name="six.dnom" horiz-adv-x="406" 
d="M20 238q0 118 50 183t140 65q68 0 114 -36.5t53 -96.5h-116q-10 34 -55 34q-69 0 -69 -103h5q29 41 96 41q65 0 105.5 -44t40.5 -116q0 -76 -49 -123.5t-128 -47.5q-89 0 -138 63t-49 181zM210 94q28 0 44.5 19t16.5 51q0 29 -17 48q-16 19 -44 19t-45 -20
q-16 -19 -16 -50q0 -30 17 -48.5t44 -18.5z" />
    <glyph glyph-name="seven.dnom" horiz-adv-x="344" 
d="M5 480h337v-83q-67 -77 -114 -182t-64 -215h-114q8 95 48 197q40 99 106 183h-111v-75h-88v175z" />
    <glyph glyph-name="eight.dnom" horiz-adv-x="385" 
d="M16 130q0 78 68 107v6q-32 13 -50 42t-18 66q0 64 48.5 99.5t130.5 35.5q81 0 127.5 -37t46.5 -98q0 -79 -66 -108v-6q66 -29 66 -108q0 -63 -48 -99.5t-129 -36.5q-82 0 -129 37t-47 100zM135 337q0 -23 15.5 -36t42.5 -13t42.5 14t15.5 35q0 22 -16 35.5t-42 13.5
q-27 0 -42.5 -13.5t-15.5 -35.5zM135 142q0 -22 15.5 -36t42.5 -14q26 0 42 14t16 36q0 23 -16 37t-42 14t-42 -14t-16 -37z" />
    <glyph glyph-name="nine.dnom" horiz-adv-x="406" 
d="M386 242q0 -118 -50 -183t-140 -65q-68 0 -113 36t-53 97h115q12 -33 56 -33q35 0 51.5 24t16.5 78h-5q-12 -19 -38 -30t-56 -11q-67 0 -107.5 44.5t-40.5 115.5q0 75 49 123t129 48q89 0 137.5 -63t48.5 -181zM198 387q-28 0 -45 -19.5t-17 -50.5t16.5 -49.5t45.5 -18.5
q28 0 43 18.5t15 51.5q0 32 -15.5 50t-42.5 18z" />
    <glyph glyph-name="zero.numr" horiz-adv-x="416" 
d="M207 251q-90 0 -137 64.5t-47 178.5q0 118 48.5 179.5t136.5 61.5q91 0 138 -64.5t47 -177.5q0 -118 -49 -180t-137 -62zM206 350q37 0 51.5 34t14.5 105q0 81 -15.5 114t-47.5 33q-37 0 -51.5 -33t-14.5 -105q0 -80 16 -114t47 -34z" />
    <glyph glyph-name="one.numr" horiz-adv-x="317" 
d="M146 552h-125v92h45q42 0 64.5 21.5t22.5 60.5v3h109v-473h-116v296z" />
    <glyph glyph-name="two.numr" horiz-adv-x="382" 
d="M170 351l51 3h124v-99h-320v17q0 101 74 166q15 14 45 37.5t46 37.5t30 34.5t14 40.5q0 23 -14 36t-37 13q-53 0 -51 -65l-116 6q2 71 49.5 114t125.5 43q75 0 117.5 -40t42.5 -108q0 -40 -20.5 -77.5t-50.5 -61.5l-61 -49q-33 -27 -49 -48z" />
    <glyph glyph-name="three.numr" horiz-adv-x="372" 
d="M182 248q-75 0 -121.5 41t-45.5 108h115q1 -21 15 -35t35 -14q31 -2 44 23.5t-0.5 50.5t-46.5 22h-45v103h30q27 0 42 13t15 35q0 40 -44 40q-22 0 -35.5 -13.5t-12.5 -35.5h-116q-1 68 44 108.5t124 40.5q72 0 115 -35.5t43 -92.5q0 -71 -63 -100v-5q74 -30 74 -113
q0 -63 -46.5 -102t-119.5 -39z" />
    <glyph glyph-name="four.numr" horiz-adv-x="364" 
d="M329 729v-295h45v-99h-45v-79h-114v79h-206v92l149 302h171zM215 596l-78 -162h78v162z" />
    <glyph glyph-name="five.numr" horiz-adv-x="399" 
d="M23 404h117q0 -24 17.5 -40.5t42.5 -16.5t42 19t17 47q0 29 -18 48t-44 19q-43 0 -55 -38h-110v287h311v-100h-197v-38l-3 -33l4 -3q23 22 75 22q68 0 110.5 -45.5t42.5 -115.5q0 -75 -48.5 -121.5t-128.5 -46.5q-78 0 -126 43t-49 113z" />
    <glyph glyph-name="six.numr" horiz-adv-x="406" 
d="M20 490q0 117 50 181t140 64q69 0 114.5 -35.5t52.5 -95.5h-116q-11 32 -55 32q-36 0 -52.5 -23.5t-16.5 -76.5h5q13 18 39.5 29.5t56.5 11.5q65 0 105.5 -44t40.5 -115q0 -74 -49 -122q-50 -47 -128 -47q-89 0 -138 62t-49 179zM210 347q28 0 44.5 19t16.5 51
q0 29 -17 48q-16 19 -44 19t-45 -20q-16 -19 -16 -50q0 -30 17 -48.5t44 -18.5z" />
    <glyph glyph-name="seven.numr" horiz-adv-x="344" 
d="M5 729h337v-83q-70 -79 -115 -181q-46 -103 -63 -209h-114q11 96 50 193q40 102 102 180h-109v-73h-88v173z" />
    <glyph glyph-name="eight.numr" horiz-adv-x="385" 
d="M16 383q0 76 68 106v6q-68 32 -68 106q0 63 48.5 98.5t130.5 35.5q81 0 127.5 -36.5t46.5 -97.5q0 -75 -66 -106v-6q66 -30 66 -107q0 -62 -48 -98t-129 -36t-128.5 37t-47.5 98zM135 587q0 -22 16 -35t42 -13t42 13.5t16 34.5q0 23 -16 35.5t-42 12.5q-27 0 -42.5 -13.5
t-15.5 -34.5zM135 395q0 -21 16 -35t42 -14t42 14t16 35q0 23 -16 36.5t-42 13.5q-27 0 -42.5 -14t-15.5 -36z" />
    <glyph glyph-name="nine.numr" horiz-adv-x="406" 
d="M196 249q-68 0 -113.5 36t-52.5 96h115q10 -34 56 -34q35 0 51.5 24t16.5 77h-5q-27 -40 -94 -40q-66 0 -107 44t-41 114q0 76 49 122q50 47 129 47q88 0 137 -62.5t49 -178.5q0 -117 -50 -181t-140 -64zM198 636q-28 0 -45 -19t-17 -49q0 -31 16.5 -49.5t45.5 -18.5
q27 0 42.5 19.5t15.5 50.5t-15.5 48.5t-42.5 17.5z" />
    <glyph glyph-name="numbersign.ss03" horiz-adv-x="640" 
d="M612 544l-22 -80h-94l-41 -176h118l-20 -80h-116l-48 -208h-92l48 208h-128l-48 -208h-92l48 208h-97l22 80h93l40 176h-116l22 80h113l47 207h92l-47 -207h128l48 207h92l-48 -207h98zM235 288h128l41 176h-129z" />
    <glyph glyph-name="parenleft.case" horiz-adv-x="289" 
d="M45 366q0 115 44 218q43 101 118 165h87q-73 -67 -115 -172t-42 -212q0 -115 43 -217t114 -167h-87q-78 66 -120 169q-42 104 -42 216z" />
    <glyph glyph-name="parenright.case" horiz-adv-x="289" 
d="M244 366q0 -115 -44 -220q-44 -102 -117 -165h-88q73 67 115 172t42 212q0 113 -43 215q-44 105 -114 169h88q77 -65 119 -169q42 -103 42 -214z" />
    <glyph glyph-name="braceleft.case" horiz-adv-x="274" 
d="M9 289v79q35 0 54 20.5t19 56.5v197q0 45 24 70t71 25h98v-74h-106v-212q0 -102 -80 -117v-3q80 -21 80 -120v-221h106v-76h-98q-45 0 -70 26t-25 71v205q0 73 -73 73z" />
    <glyph glyph-name="braceright.case" horiz-adv-x="274" 
d="M264 368v-79q-34 0 -54 -18t-20 -55v-205q0 -46 -24 -71.5t-69 -25.5h-98v76h104v221q0 96 81 120v3q-81 15 -81 117v212h-104v74h98q45 0 69 -25t24 -70v-197q0 -35 19.5 -56t54.5 -21z" />
    <glyph glyph-name="bracketleft.case" horiz-adv-x="244" 
d="M245 -86h-201v849h201v-78h-116v-695h116v-76z" />
    <glyph glyph-name="bracketright.case" horiz-adv-x="244" 
d="M200 -86h-201v76h116v695h-116v78h201v-849z" />
    <glyph glyph-name="hyphen.case" horiz-adv-x="481" 
d="M427 320h-374v100h374v-100z" />
    <glyph glyph-name="endash.case" horiz-adv-x="657" 
d="M603 320h-550v100h550v-100z" />
    <glyph glyph-name="emdash.case" horiz-adv-x="853" 
d="M799 320h-746v100h746v-100z" />
    <glyph glyph-name="hyphen_hyphen_greater" horiz-adv-x="860" 
d="M681 228h-586v100h586l-169 224h126l208 -272l-208 -280h-126z" />
    <glyph glyph-name="greater.case" horiz-adv-x="542" 
d="M489 298l-402 -212v178l117 52l149 48v9l-141 51l-125 61v170l402 -217v-140z" />
    <glyph glyph-name="less.case" horiz-adv-x="542" 
d="M455 264v-178l-402 212v140l402 217v-170l-125 -61l-140 -51v-9l147 -48z" />
    <glyph glyph-name="percent.tf" horiz-adv-x="583" 
d="M22 585q0 67 44 111q44 45 115 45t114 -46q45 -47 45 -113t-45 -112q-45 -45 -114 -45q-67 0 -113 45t-46 115zM134 586q0 -26 12.5 -42t34.5 -16q21 0 35 16t14 42q0 22 -14 37t-35 15t-34 -15t-13 -37zM565 435l-548 -214v79l548 216v-81zM237 151q0 66 45 111t114 45
q72 0 115 -46q45 -45 45 -111q0 -68 -46 -114q-45 -46 -114 -46q-66 0 -113 45q-46 45 -46 116zM349 152q-3 -35 22 -50t50.5 0t24.5 50q0 23 -14 38t-36 15q-20 0 -33.5 -15t-13.5 -38z" />
    <glyph glyph-name="perthousand.tf" horiz-adv-x="638" 
d="M178 437q-68 0 -114 42q-45 42 -45 109t45 109q46 42 114 42t114 -43q47 -42 47 -108q0 -65 -47 -109q-46 -42 -114 -42zM179 637q-20 0 -33 -13.5t-13 -35.5q0 -21 12 -33.5t33 -12.5q22 0 36 13.5t14 35.5q0 20 -13.5 33t-35.5 13zM48 339l548 213v-78l-548 -215v80z
M469 290q66 0 107 -41t41 -107q0 -68 -41 -110t-109 -42q-65 0 -114 52q-43 -52 -113 -52q-69 0 -110 41.5t-41 109.5q0 67 41 108q40 42 108 42t114 -54q48 53 117 53zM505 146q0 19 -13.5 31.5t-33.5 12.5q-21 0 -34.5 -13.5t-13.5 -33.5q-2 -30 23 -42.5t50 1t22 44.5z
M247 92q22 0 36 14.5t14 36.5q0 19 -13.5 32t-33.5 13q-30 3 -42 -22t-0.5 -50.5t39.5 -23.5z" />
    <glyph glyph-name="at.ss03" horiz-adv-x="903" 
d="M566 504h67l-18 -253q-5 -54 44 -54q47 0 71 42.5t24 117.5q0 137 -76 211.5t-210 74.5q-143 0 -223 -92t-80 -248q0 -316 355 -316h178v-95h-178q-227 0 -345 109q-119 110 -119 304q0 195 114 314t298 119q175 0 281 -106q108 -105 108 -265q0 -115 -57 -192
q-56 -75 -136 -75q-86 0 -113 72h-7q-32 -66 -112 -66q-74 0 -115.5 55t-41.5 145q0 93 46 151q47 59 126 59q67 0 99 -45h8zM442 201q36 0 60.5 32.5t24.5 90.5q0 51 -19.5 77t-50.5 26q-35 0 -58.5 -32t-23.5 -90q0 -51 19 -77.5t48 -26.5z" />
    <glyph glyph-name="less_hyphen_hyphen" horiz-adv-x="860" 
d="M765 328v-100h-586l169 -228h-126l-208 280l208 272h126l-169 -224h586z" />
    <glyph glyph-name="uni1F310" horiz-adv-x="1015" 
d="M508 738q199 0 325 -105q127 -103 127 -268t-127 -270t-325 -105t-326 105q-127 105 -127 270t126 269q127 104 327 104zM412 579h190q-16 59 -40.5 91.5t-53.5 32.5q-62 0 -96 -124zM642 579h94q-53 83 -145 112q32 -41 51 -112zM424 691q-91 -28 -146 -112h94
q19 71 52 112zM304 665q-76 -31 -126 -86h55q29 50 71 86zM782 579h54q-50 54 -125 86q42 -36 71 -86zM835 385h82q-5 86 -49 153v-4h-64q27 -68 31 -149zM97 385h82q4 85 32 149h-68q-42 -68 -46 -149zM362 534h-107q-29 -65 -33 -149h125q2 83 15 149zM387 385h240
q-2 87 -14 149h-211q-14 -65 -15 -149zM667 385h126q-4 84 -33 149h-108q13 -66 15 -149zM180 342h-83q5 -80 47 -146h66q-27 71 -30 146zM347 342h-124q3 -79 32 -146h107q-13 66 -15 146zM627 342h-240q1 -81 15 -146h210q14 65 15 146zM652 196h108q29 67 32 146h-125
q-2 -80 -15 -146zM917 342h-83q-3 -75 -30 -146h66q42 66 47 146zM231 153h-54q50 -53 124 -87q-42 36 -70 87zM371 153h-93q52 -85 145 -114q-33 42 -52 114zM603 153h-191q16 -60 41 -93.5t55 -33.5q58 0 95 127zM592 39q91 28 145 114h-94q-19 -73 -51 -114zM714 66
q74 32 123 87h-54q-29 -51 -69 -87z" />
    <glyph glyph-name="uni1F441" horiz-adv-x="796" 
d="M34 366q0 164 103 267q104 104 261 104t261 -104q103 -103 103 -267q0 -168 -103 -271q-102 -103 -261 -103q-158 0 -261 103t-103 271zM109 366q0 -135 82 -218q83 -84 207 -84t207 84q82 83 82 218q0 134 -82 216q-83 83 -207 83t-207 -84q-82 -82 -82 -215zM204 367
q0 85 56 139q55 55 138 55q82 0 138 -54t56 -140q0 -88 -56 -144q-55 -55 -138 -55q-84 0 -139 55t-55 144zM243 377v-22l146 7l-94 -86l16 -18l84 98l-7 -150h22l-8 150l84 -98l16 18l-94 86l146 -7v22l-146 -7l94 85l-16 17l-84 -96l8 150h-22l7 -150l-84 96l-16 -17
l94 -85z" />
    </font>
</defs>
</svg>
