<?xml version="1.0" standalone="no"?>
<!DOCTYPE svg PUBLIC "-//W3C//DTD SVG 1.1//EN" "http://www.w3.org/Graphics/SVG/1.1/DTD/svg11.dtd" >
<svg xmlns="http://www.w3.org/2000/svg" xmlns:xlink="http://www.w3.org/1999/xlink" version="1.1">
<metadata>
Created by FontForge 20170731 at Wed Jul 11 02:32:39 2018
 By Aleksey,,,
Copyright (c) 2017 by Deni Anggara. All rights reserved.
</metadata>
<defs>
<font id="AllianceNo.1-Bold" horiz-adv-x="0" >
  <font-face 
    font-family="Alliance No.1"
    font-weight="700"
    font-stretch="normal"
    units-per-em="1000"
    panose-1="0 0 5 0 0 0 0 0 0 0"
    ascent="797"
    descent="-203"
    x-height="536"
    cap-height="729"
    bbox="-535 -290 2114 1014"
    underline-thickness="50"
    underline-position="-200"
    unicode-range="U+000D-FB02"
  />
<missing-glyph horiz-adv-x="644" 
d="M644 0h-644v729h644v-729zM63 666v-604h518v604h-518zM518 125h-392v478h392v-478zM189 540v-351h266v351h-266zM252 252v225h140v-225h-140z" />
    <glyph glyph-name="fi" unicode="fi" horiz-adv-x="664" 
d="M262 536h341v-536h-153v413h-188v-413h-153v413h-100v123h100v37q0 88 52 133.5t144 45.5q45 0 75 -9v-120q-25 5 -44 5q-74 0 -74 -66v-26zM450 592v148h153v-148h-153z" />
    <glyph glyph-name="fl" unicode="fl" horiz-adv-x="669" 
d="M455 536v208h152v-744h-152v413h-194v-413h-152v413h-100v123h100v37q0 88 52 133.5t144 45.5q45 0 75 -9v-120q-25 5 -44 5q-75 0 -75 -66v-26h194z" />
    <glyph glyph-name="f_f" unicode="ff" horiz-adv-x="729" 
d="M677 628q-75 0 -75 -66v-26h118v-123h-118v-413h-152v413h-188v-413h-153v413h-100v123h100v37q0 88 52 133.5t144 45.5q45 0 75 -9v-120q-25 5 -44 5q-74 0 -74 -66v-26h188v37q0 88 51 133.5t145 45.5q46 0 74 -9v-120q-25 5 -43 5z" />
    <glyph glyph-name="f_f_i" unicode="ffi" horiz-adv-x="1001" 
d="M599 536h340v-536h-152v413h-188v-413h-152v413h-185v-413h-153v413h-100v123h100v37q0 88 52 133.5t144 45.5q45 0 75 -9v-120q-25 5 -44 5q-74 0 -74 -66v-26h185v37q0 88 51.5 133.5t143.5 45.5q46 0 75 -9v-120q-25 5 -44 5q-74 0 -74 -66v-26zM787 592v148h152v-148
h-152z" />
    <glyph glyph-name="t_i" unicode="ti" horiz-adv-x="652" 
d="M438 592v148h152v-148h-152zM246 536h344v-536h-152v413h-192v-228q0 -36 14.5 -53.5t48.5 -17.5q27 0 52 5v-119q-45 -9 -96 -9q-107 0 -143 56q-29 45 -29 119v247h-86v123h86v132l153 59v-191z" />
    <glyph glyph-name="t_t" unicode="tt" horiz-adv-x="738" 
d="M710 536v-123h-115v-228q0 -71 63 -71q30 0 52 5v-119q-45 -9 -95 -9q-108 0 -144 56q-29 45 -29 119v247h-196v-228q0 -36 14.5 -53.5t48.5 -17.5q27 0 52 5v-119q-45 -9 -96 -9q-107 0 -143 56q-29 45 -29 119v247h-86v123h86v132l153 59v-191h196v132l153 59v-191h115
z" />
    <glyph glyph-name="t_t_i" unicode="tti" horiz-adv-x="992" 
d="M778 592v148h152v-148h-152zM585 536h345v-536h-152v413h-193v-228q0 -71 63 -71q30 0 52 5v-119q-45 -9 -95 -9q-107 0 -143 56q-29 45 -29 119v247h-187v-228q0 -36 14.5 -53.5t48.5 -17.5q27 0 52 5v-119q-45 -9 -96 -9q-107 0 -143 56q-29 45 -29 119v247h-86v123h86
v132l153 59v-191h187v132l152 59v-191z" />
    <glyph glyph-name="hyphen_hyphen_greater" unicode="&#x2d;&#x2d;&#x3e;" horiz-adv-x="856" 
d="M693 230h-597v84h597l-169 227h106l203 -268l-203 -273h-106z" />
    <glyph glyph-name="less_hyphen_hyphen" unicode="&#x3c;&#x2d;&#x2d;" horiz-adv-x="856" 
d="M762 314v-84h-598l169 -230h-105l-204 273l204 268h105l-169 -227h598z" />
    <glyph glyph-name=".notdef" horiz-adv-x="644" 
d="M644 0h-644v729h644v-729zM63 666v-604h518v604h-518zM518 125h-392v478h392v-478zM189 540v-351h266v351h-266zM252 252v225h140v-225h-140z" />
    <glyph glyph-name=".null" 
 />
    <glyph glyph-name="nonmarkingreturn" horiz-adv-x="333" 
 />
    <glyph glyph-name="CR" unicode="&#xd;" horiz-adv-x="189" 
 />
    <glyph glyph-name="space" unicode=" " horiz-adv-x="214" 
 />
    <glyph glyph-name="exclam" unicode="!" horiz-adv-x="302" 
d="M191 230h-78l-39 285v214h155v-214zM233 0h-164v146h164v-146z" />
    <glyph glyph-name="quotedbl" unicode="&#x22;" horiz-adv-x="504" 
d="M213 570l-36 -185h-66l-35 185v159h137v-159zM428 570l-35 -185h-66l-36 185v159h137v-159z" />
    <glyph glyph-name="numbersign" unicode="#" horiz-adv-x="708" 
d="M655 542v-71h-116v-188h116v-72h-116v-211h-76v211h-217v-211h-77v211h-117v72h117v188h-117v71h117v208h77v-208h217v208h76v-208h116zM246 283h217v188h-217v-188z" />
    <glyph glyph-name="dollar" unicode="$" horiz-adv-x="565" 
d="M531 251q0 -82 -55 -135.5t-149 -64.5v-70h-97v72q-91 13 -143.5 67.5t-52.5 136.5h153q0 -86 95 -86q41 0 63.5 16t22.5 44t-16.5 41.5t-57.5 22.5l-80 19q-170 41 -170 186q0 76 50.5 128t135.5 64v72h97v-72q82 -13 129.5 -62.5t48.5 -123.5h-153q0 34 -21 52.5
t-57 18.5q-69 0 -69 -56q0 -49 77 -66l76 -17q173 -38 173 -187z" />
    <glyph glyph-name="percent" unicode="%" horiz-adv-x="899" 
d="M52 556q0 79 50 131q50 51 130 51q82 0 131 -51q51 -51 51 -132q0 -79 -51 -132q-49 -51 -131 -51q-79 0 -130 51q-50 53 -50 133zM259 0h-77l463 729h78zM151 557q0 -42 22.5 -68.5t58.5 -26.5q37 0 59.5 26.5t22.5 68.5q0 41 -22.5 66t-59.5 25q-36 0 -58.5 -25.5
t-22.5 -65.5zM483 174q0 78 50 130q51 52 131 52q81 0 130 -52q50 -52 50 -131q0 -80 -50 -132q-50 -51 -130 -51q-79 0 -130 51q-51 53 -51 133zM582 175q0 -42 23 -68.5t59 -26.5q37 0 60 26.5t23 68.5q0 41 -23 66.5t-60 25.5q-36 0 -59 -26t-23 -66z" />
    <glyph glyph-name="ampersand" unicode="&#x26;" horiz-adv-x="778" 
d="M570 390l129 -34q-26 -110 -92 -206l138 -150h-185l-51 56q-78 -66 -211 -66q-106 0 -173 50q-66 51 -66 142q0 121 145 206v7q-53 48 -74 85.5t-21 82.5q0 79 57.5 127t155.5 48q95 0 151.5 -46.5t56.5 -122.5q0 -52 -30.5 -96t-98.5 -90v-8l118 -129q33 64 51 144z
M253 566q0 -46 59 -102h7q67 57 67 103q0 27 -18.5 43t-47.5 16q-30 0 -48.5 -16.5t-18.5 -43.5zM214 205q0 -43 28.5 -67t77.5 -24q69 0 103 37l-139 152q-70 -40 -70 -98z" />
    <glyph glyph-name="quotesingle" unicode="'" horiz-adv-x="288" 
d="M213 570l-36 -185h-66l-35 185v159h137v-159z" />
    <glyph glyph-name="parenleft" unicode="(" horiz-adv-x="378" 
d="M282 773h89q-103 -66 -168 -191q-64 -124 -64 -262q0 -137 64 -261q65 -125 168 -191h-89q-100 64 -162 189q-61 123 -61 263q0 139 61 262q62 125 162 191z" />
    <glyph glyph-name="parenright" unicode=")" horiz-adv-x="366" 
d="M320 320q0 -137 -62 -263q-62 -125 -162 -189h-89q102 65 167 190q64 124 64 262t-64 262q-65 126 -167 191h89q100 -66 162 -191q62 -126 62 -262z" />
    <glyph glyph-name="asterisk" unicode="*" horiz-adv-x="356" 
d="M66 473l-32 55l108 48l-108 49l32 55l94 -70l-13 119h63l-13 -120l93 71l33 -55l-108 -49l108 -48l-33 -55l-93 72l13 -120h-63l13 120z" />
    <glyph glyph-name="plus" unicode="+" horiz-adv-x="612" 
d="M555 271h-188v-195h-123v195h-187v119h187v194h123v-194h188v-119z" />
    <glyph glyph-name="comma" unicode="," horiz-adv-x="231" 
d="M36 -143v55q89 0 89 77v11h-74v154h148v-159q0 -65 -43.5 -101.5t-119.5 -36.5z" />
    <glyph glyph-name="hyphen" unicode="-" horiz-adv-x="474" 
d="M417 258h-361v84h361v-84z" />
    <glyph glyph-name="period" unicode="." horiz-adv-x="274" 
d="M211 0h-148v164h148v-164z" />
    <glyph glyph-name="slash" unicode="/" horiz-adv-x="367" 
d="M88 0h-83l274 729h83z" />
    <glyph glyph-name="zero" unicode="0" horiz-adv-x="633" 
d="M316 -6q-125 0 -199 98q-73 97 -73 272q0 176 75 271t199 95q125 0 197 -97q73 -97 73 -271q0 -176 -74 -273q-74 -95 -198 -95zM315 127q61 0 87.5 57.5t26.5 172.5q0 132 -29 187q-28 54 -83 54q-61 0 -87.5 -57t-26.5 -172q0 -128 28 -185t84 -57z" />
    <glyph glyph-name="one" unicode="1" horiz-adv-x="473" 
d="M220 477h-189v116h29q71 0 117 35t53 93h142v-721h-152v477z" />
    <glyph glyph-name="two" unicode="2" horiz-adv-x="583" 
d="M363 134h186v-134h-511v24q-7 101 66 196q16 22 49 49q35 29 54 42q19 15 63 45q63 43 88.5 74.5t25.5 76.5q0 42 -25.5 66.5t-68.5 24.5q-48 0 -73.5 -29t-21.5 -82h-152q-3 110 67 176q70 67 188 67q111 0 178 -61t67 -163q0 -73 -37.5 -128.5t-114.5 -110.5
q-13 -11 -48 -33l-51 -36q-53 -37 -77 -73q72 9 148 9z" />
    <glyph glyph-name="three" unicode="3" horiz-adv-x="613" 
d="M301 -10q-121 0 -190 63t-71 170h153q-1 -48 28.5 -75t80.5 -27q50 0 79.5 26.5t29.5 71.5q0 42 -28 66.5t-74 24.5h-81v116h70q48 0 75 24.5t27 64.5q0 39 -26.5 61.5t-70.5 22.5q-47 0 -75 -26t-29 -72h-154q2 104 74 166q73 63 190 63q109 0 179 -53q69 -52 69 -143
q0 -54 -26.5 -96t-73.5 -61v-7q53 -17 82 -61t29 -103q0 -97 -75 -157q-74 -59 -192 -59z" />
    <glyph glyph-name="four" unicode="4" horiz-adv-x="626" 
d="M516 721v-455h80v-125h-80v-141h-152v141h-332v117l272 463h212zM364 567l-176 -301h176v301z" />
    <glyph glyph-name="five" unicode="5" horiz-adv-x="612" 
d="M334 485q107 0 172 -68t65 -175q0 -113 -73 -183q-74 -69 -195 -69q-118 0 -191 65q-71 65 -70 171h154q0 -46 29.5 -74.5t78.5 -28.5q50 0 81 32t31 83q0 52 -32 85.5t-83 33.5q-36 0 -63.5 -17t-37.5 -45h-145l19 426h448v-133h-313l-7 -138l6 -2q44 37 126 37z" />
    <glyph glyph-name="six" unicode="6" horiz-adv-x="624" 
d="M321 -9q-135 0 -205 95t-70 273q0 181 73 276t210 95q102 0 166 -50.5t76 -138.5h-152q-7 30 -32 45.5t-62 15.5q-64 0 -95.5 -51t-26.5 -141h6q44 74 150 74q100 0 163 -66t63 -174q0 -114 -72 -184q-72 -69 -192 -69zM325 123q49 0 77.5 32.5t28.5 86.5q0 53 -29 85.5
t-77 32.5q-49 0 -78 -33.5t-29 -86.5q0 -54 29.5 -85.5t77.5 -31.5z" />
    <glyph glyph-name="seven" unicode="7" horiz-adv-x="561" 
d="M142 470h-123v251h518v-110q-99 -136 -173 -298q-73 -163 -99 -313h-164q21 141 90 299q70 156 165 289h-214v-118z" />
    <glyph glyph-name="eight" unicode="8" horiz-adv-x="609" 
d="M41 191q0 117 102 166v8q-49 22 -75.5 65.5t-26.5 99.5q0 89 73 144q74 56 191 56t190 -56q73 -55 73 -144q0 -55 -27 -99t-75 -66v-8q102 -49 102 -167q0 -90 -73 -145t-191 -55t-191 55q-72 55 -72 146zM304 422q50 0 78.5 24t28.5 63q0 42 -29 65.5t-78 23.5
q-50 0 -78 -24t-28 -65t28.5 -64t77.5 -23zM198 211q0 -42 28.5 -65.5t77.5 -23.5q51 0 79 23.5t28 65.5q0 41 -29 64.5t-78 23.5q-50 0 -78 -24t-28 -64z" />
    <glyph glyph-name="nine" unicode="9" horiz-adv-x="619" 
d="M290 -9q-100 0 -164 51q-64 52 -75 138h152q13 -61 95 -61q64 0 94.5 50t25.5 141h-7q-43 -73 -148 -73q-102 0 -165 66q-62 67 -62 174q0 114 71 183q71 70 190 70q136 0 207 -98t71 -278q0 -363 -285 -363zM403 481q0 53 -29.5 84.5t-77.5 31.5q-49 0 -78 -32t-29 -86
t29 -86t78 -32q48 0 77.5 34t29.5 86z" />
    <glyph glyph-name="colon" unicode=":" horiz-adv-x="282" 
d="M215 385h-148v151h148v-151zM215 0h-148v150h148v-150z" />
    <glyph glyph-name="semicolon" unicode=";" horiz-adv-x="258" 
d="M199 385h-148v151h148v-151zM37 -139v52q49 0 68.5 17.5t19.5 55.5v14h-74v150h148v-148q0 -141 -162 -141z" />
    <glyph glyph-name="less" unicode="&#x3c;" horiz-adv-x="524" 
d="M455 162v-147l-395 216v114l395 215v-144l-132 -63l-138 -61v-10l143 -60z" />
    <glyph glyph-name="equal" unicode="=" horiz-adv-x="540" 
d="M466 342h-392v125h392v-125zM466 127h-392v124h392v-124z" />
    <glyph glyph-name="greater" unicode="&#x3e;" horiz-adv-x="524" 
d="M465 231l-395 -216v147l126 60l144 60v10l-139 61l-131 63v144l395 -215v-114z" />
    <glyph glyph-name="question" unicode="?" horiz-adv-x="593" 
d="M346 212h-145v198q26 -8 67 -8q63 0 98 28.5t35 77.5q0 47 -30 73t-81 26q-47 0 -76.5 -22t-34.5 -61h-149q7 101 77.5 157.5t186.5 56.5q122 0 191.5 -62t69.5 -168q0 -87 -58 -146q-57 -60 -151 -72v-78zM351 0h-156v148h156v-148z" />
    <glyph glyph-name="at" unicode="@" horiz-adv-x="916" 
d="M471 738q174 0 283 -106q110 -105 110 -271q0 -118 -55 -188q-54 -71 -143 -71q-41 0 -72.5 20.5t-41.5 54.5h-7q-33 -71 -116 -71q-72 0 -114 53.5t-42 143.5q0 92 47 153q46 60 124 60q70 0 104 -52h6l12 40h62l-18 -244q-4 -75 53 -75q53 0 81.5 46.5t28.5 128.5
q0 138 -84 216q-82 79 -218 79q-151 0 -236 -94q-85 -92 -85 -241q0 -154 92 -246t238 -92q127 0 238 53v-86q-102 -50 -241 -50q-186 0 -305 113q-118 114 -118 303q0 190 115 306q116 117 302 117zM362 303q0 -55 20.5 -84.5t55.5 -29.5q42 0 68.5 36t26.5 99q0 54 -22 84
t-57 30q-41 0 -66.5 -36.5t-25.5 -98.5z" />
    <glyph glyph-name="A" unicode="A" horiz-adv-x="710" 
d="M711 0h-177l-42 127h-283l-43 -127h-167l257 729h188zM279 334l-28 -83h200l-28 83l-67 226h-6z" />
    <glyph glyph-name="B" unicode="B" horiz-adv-x="717" 
d="M446 0h-369v729h369q98 0 157 -51t59 -135q0 -57 -27.5 -99t-76.5 -62v-9q60 -17 91.5 -62t31.5 -110q0 -91 -64 -146t-171 -55zM234 608v-176h165q45 0 71 24t26 66q0 41 -26 63.5t-71 22.5h-165zM234 313v-192h169q50 0 79.5 24.5t29.5 72.5t-30 71.5t-79 23.5h-169z
" />
    <glyph glyph-name="C" unicode="C" horiz-adv-x="754" 
d="M553 252h167q-13 -118 -105 -190q-91 -72 -224 -72q-163 0 -260 102q-97 103 -97 271t98 272q97 103 259 103q134 0 225 -71q90 -71 104 -188h-167q-15 55 -59 86.5t-104 31.5q-87 0 -136 -62.5t-49 -172.5t48.5 -170.5t133.5 -60.5q65 0 109 33t57 88z" />
    <glyph glyph-name="D" unicode="D" horiz-adv-x="752" 
d="M383 0h-306v729h306q160 0 247 -99q88 -98 88 -266q0 -167 -88 -265q-87 -99 -247 -99zM239 590v-451h119q191 0 191 228q0 223 -191 223h-119z" />
    <glyph glyph-name="E" unicode="E" horiz-adv-x="641" 
d="M593 0h-516v729h516v-139h-354v-147h303v-131h-303v-173h354v-139z" />
    <glyph glyph-name="F" unicode="F" horiz-adv-x="618" 
d="M239 0h-162v729h516v-139h-354v-200h314v-132h-314v-258z" />
    <glyph glyph-name="G" unicode="G" horiz-adv-x="803" 
d="M350 273v127h389v-400h-131l-9 97h-7q-29 -49 -92 -78t-141 -29q-146 0 -236 100q-89 101 -89 267q0 172 98 276q98 105 261 105q127 0 216 -65t102 -171h-167q-13 44 -54 69.5t-98 25.5q-90 0 -138.5 -63.5t-48.5 -175.5q0 -113 49 -172t135 -59q72 0 119.5 40t55.5 106
h-214z" />
    <glyph glyph-name="H" unicode="H" horiz-adv-x="807" 
d="M239 0h-162v729h162v-294h329v294h162v-729h-162v307h-329v-307z" />
    <glyph glyph-name="I" unicode="I" horiz-adv-x="316" 
d="M239 729v-729h-162v729h162z" />
    <glyph glyph-name="J" unicode="J" horiz-adv-x="418" 
d="M346 729v-507q0 -231 -234 -231q-58 0 -97 9v131q30 -5 65 -5q55 0 80 28t25 87v488h161z" />
    <glyph glyph-name="K" unicode="K" horiz-adv-x="724" 
d="M721 0h-195l-189 282l-98 -118v-164h-162v729h162v-339l274 339h198l-264 -316z" />
    <glyph glyph-name="L" unicode="L" horiz-adv-x="572" 
d="M535 0h-458v729h162v-585h296v-144z" />
    <glyph glyph-name="M" unicode="M" horiz-adv-x="917" 
d="M235 0h-158v729h201l178 -407h7l176 407h201v-729h-157v307l10 200h-7l-226 -496l-227 496h-8l10 -202v-305z" />
    <glyph glyph-name="N" unicode="N" horiz-adv-x="792" 
d="M239 0h-162v729h187l294 -503h6l-9 209v294h160v-729h-187l-292 499h-7l10 -201v-298z" />
    <glyph glyph-name="O" unicode="O" horiz-adv-x="777" 
d="M34 365q0 174 96 273q96 100 258 100q166 0 261 -102q94 -101 94 -271q0 -176 -97 -276q-96 -99 -258 -99q-166 0 -260 102q-94 101 -94 273zM205 365q0 -109 49 -171t134 -62q87 0 136 63t49 170t-50 169.5t-135 62.5t-134 -63t-49 -169z" />
    <glyph glyph-name="P" unicode="P" horiz-adv-x="688" 
d="M77 729h323q120 0 193 -68q73 -67 73 -180q0 -112 -73 -181q-74 -68 -193 -68h-161v-232h-162v729zM239 370h139q117 0 117 109q0 106 -117 106h-139v-215z" />
    <glyph glyph-name="Q" unicode="Q" horiz-adv-x="777" 
d="M512 8q58 -46 155 -46q29 0 61 5v-141q-32 -2 -48 -2q-115 0 -191.5 43.5t-107.5 122.5q-163 1 -255 104t-92 271q0 174 96 273q96 100 258 100q166 0 261 -102q94 -101 94 -271q0 -137 -61 -230t-170 -127zM205 365q0 -109 49 -171t134 -62q87 0 136 63t49 170
t-50 169.5t-135 62.5t-134 -63t-49 -169z" />
    <glyph glyph-name="R" unicode="R" horiz-adv-x="731" 
d="M239 0h-162v729h361q111 0 171.5 -57.5t60.5 -159.5q0 -60 -29.5 -106.5t-81.5 -73.5v-8q100 -27 100 -144v-93q0 -59 12 -87h-166q-11 24 -11 89v67q0 50 -22.5 73t-77.5 23h-155v-252zM239 590v-200h145q54 0 84 27t30 75q0 98 -109 98h-150z" />
    <glyph glyph-name="S" unicode="S" horiz-adv-x="674" 
d="M30 229h167q2 -53 39 -82t104 -29q58 0 91 24t33 64q0 35 -23 52q-8 8 -24 14q-16 7 -44 13l-115 24q-21 4 -49 11q-15 4 -54 20q-36 17 -56 36q-55 53 -55 137q0 101 77 163q79 62 206 62q128 0 205 -59t79 -157h-167q-4 44 -36 67t-87 23q-51 0 -79 -19.5t-28 -55.5
q0 -53 76 -72q14 -3 19 -4q1 0 4 -1q2 0 3 -1l118 -23q201 -40 201 -211q0 -111 -81 -173q-82 -62 -218 -62q-140 0 -223 65q-81 65 -83 174z" />
    <glyph glyph-name="T" unicode="T" horiz-adv-x="574" 
d="M6 729h561v-141h-201v-588h-161v588h-199v141z" />
    <glyph glyph-name="U" unicode="U" horiz-adv-x="772" 
d="M71 279v450h161v-440q0 -73 40.5 -114t113.5 -41t113.5 40.5t40.5 114.5v440h161v-450q0 -135 -86 -212t-230 -77q-153 0 -233.5 77t-80.5 212z" />
    <glyph glyph-name="V" unicode="V" horiz-adv-x="721" 
d="M462 0h-203l-256 729h180l98 -306l76 -270h7l78 269l97 307h179z" />
    <glyph glyph-name="W" unicode="W" horiz-adv-x="987" 
d="M156 0l-149 729h177l64 -368l27 -185h8l112 553h200l114 -554h7l25 184l62 370h177l-148 -729h-221l-113 517h-7l-114 -517h-221z" />
    <glyph glyph-name="X" unicode="X" horiz-adv-x="699" 
d="M211 0h-196l210 365l-218 365h199l75 -139l67 -132h7l66 133l72 138h196l-211 -366l217 -364h-200l-63 113l-77 148h-6l-78 -150z" />
    <glyph glyph-name="Y" unicode="Y" horiz-adv-x="707" 
d="M272 279l-271 450h192l78 -151l78 -155h8l158 306h191l-272 -450v-279h-162v279z" />
    <glyph glyph-name="Z" unicode="Z" horiz-adv-x="586" 
d="M19 729h545v-131l-344 -459h339v-139h-540v132l343 457h-343v140z" />
    <glyph glyph-name="bracketleft" unicode="[" horiz-adv-x="311" 
d="M286 -232h-192v1023h192v-70h-116v-887h116v-66z" />
    <glyph glyph-name="backslash" unicode="\" horiz-adv-x="368" 
d="M88 729l274 -729h-83l-274 729h83z" />
    <glyph glyph-name="bracketright" unicode="]" horiz-adv-x="311" 
d="M217 -232h-192v66h116v887h-116v70h192v-1023z" />
    <glyph glyph-name="asciicircum" unicode="^" horiz-adv-x="435" 
d="M416 470h-119l-79 140l-80 -140h-119l150 259h99z" />
    <glyph glyph-name="underscore" unicode="_" horiz-adv-x="351" 
d="M353 -84h-355v84h355v-84z" />
    <glyph glyph-name="grave" unicode="`" horiz-adv-x="418" 
d="M333 789l-45 -73l-229 128l63 103z" />
    <glyph glyph-name="a" unicode="a" horiz-adv-x="582" 
d="M25 147q0 81 58 128t157 47h123v31q0 37 -21.5 56.5t-59.5 19.5t-61 -18t-25 -48h-149q7 84 72 133.5t168 49.5q110 0 169 -52.5t59 -145.5v-209q0 -34 26 -34q7 0 17 2v-106q-39 -9 -75 -9q-106 0 -112 89h-8q-14 -42 -58.5 -66.5t-105.5 -24.5q-80 0 -127 42.5
t-47 114.5zM179 166q0 -29 20 -45t54 -16q51 0 80.5 29.5t29.5 77.5v18h-98q-86 0 -86 -64z" />
    <glyph glyph-name="b" unicode="b" horiz-adv-x="647" 
d="M195 0h-133v744h152v-306h9q19 50 65 79t109 29q101 0 161 -74.5t60 -203.5q0 -127 -59 -203q-59 -75 -159 -75q-62 0 -109 28t-68 78h-9zM214 286v-38q0 -61 34 -97t90 -36q58 0 91.5 40t33.5 113q0 75 -33.5 114t-91.5 39q-57 0 -90.5 -37t-33.5 -98z" />
    <glyph glyph-name="c" unicode="c" horiz-adv-x="571" 
d="M394 197h151q-4 -93 -74 -150q-69 -57 -175 -57q-121 0 -194 76t-73 202q0 124 74 201t195 77q103 0 171 -56q69 -55 76 -148h-151q-14 78 -98 78q-55 0 -83.5 -40t-28.5 -113q0 -74 29 -113t82 -39q41 0 67.5 22.5t31.5 59.5z" />
    <glyph glyph-name="d" unicode="d" horiz-adv-x="648" 
d="M586 744v-744h-133l-20 96h-8q-21 -50 -69 -78t-108 -28q-101 0 -160 74t-59 201q0 131 60 206t159 75q64 0 109.5 -30t67.5 -83h8v311h153zM433 248v38q0 63 -34 99t-91 36q-59 0 -91 -41t-32 -114t32 -112t89 -39q59 0 93 36t34 97z" />
    <glyph glyph-name="e" unicode="e" horiz-adv-x="578" 
d="M296 -10q-121 0 -194 76t-73 201q0 126 73 202q74 77 192 77q116 0 183 -67q68 -66 68 -176q0 -43 -6 -70h-358q-1 -60 29 -93.5t84 -33.5q39 0 67.5 17.5t36.5 46.5h151q-14 -82 -84 -131q-68 -49 -169 -49zM183 333h210q-1 46 -28.5 72t-75.5 26q-47 0 -75.5 -26.5
t-30.5 -71.5z" />
    <glyph glyph-name="f" unicode="f" horiz-adv-x="388" 
d="M380 536v-123h-118v-413h-153v413h-100v123h100v37q0 88 52 133.5t144 45.5q45 0 75 -9v-120q-25 5 -44 5q-74 0 -74 -66v-26h118z" />
    <glyph glyph-name="g" unicode="g" horiz-adv-x="560" 
d="M16 -63q0 37 22.5 64.5t59.5 36.5v8q-28 10 -44 31.5t-16 48.5q0 72 79 98v8q-81 45 -81 139q0 79 60 127q62 48 158 48q53 0 85 -13q16 50 65 81t115 31v-116q-73 0 -94 -36q59 -47 59 -127q0 -78 -59 -126q-59 -47 -156 -47q-36 0 -65 7q-28 -9 -28 -35q0 -36 65 -36
h120q85 0 132 -40.5t47 -110.5q0 -169 -286 -169q-117 0 -177.5 33.5t-60.5 94.5zM261 297q35 0 55.5 20t20.5 53t-21 52.5t-55 19.5q-35 0 -55.5 -19.5t-20.5 -52.5t21 -53t55 -20zM157 -33q0 -51 105 -51q127 0 127 56q0 39 -52 39h-120q-60 0 -60 -44z" />
    <glyph glyph-name="h" unicode="h" horiz-adv-x="639" 
d="M214 0h-152v744h152v-305h9q51 107 176 107q91 0 137.5 -59t46.5 -165v-322h-153v306q0 114 -98 114q-54 0 -86 -36.5t-32 -97.5v-286z" />
    <glyph glyph-name="i" unicode="i" horiz-adv-x="276" 
d="M214 592h-152v148h152v-148zM214 0h-152v536h152v-536z" />
    <glyph glyph-name="j" unicode="j" horiz-adv-x="278" 
d="M216 592h-153v148h153v-148zM27 -175q-38 0 -67 6v120q10 -2 28 -2q75 0 75 83v504h153v-528q0 -88 -50.5 -135.5t-138.5 -47.5z" />
    <glyph glyph-name="k" unicode="k" horiz-adv-x="602" 
d="M601 0h-174l-142 219l-69 -72v-147h-154v744h154v-407l186 199h188l-201 -209z" />
    <glyph glyph-name="l" unicode="l" horiz-adv-x="276" 
d="M214 0h-152v744h152v-744z" />
    <glyph glyph-name="m" unicode="m" horiz-adv-x="940" 
d="M214 0h-152v536h133l18 -99h10q46 109 153 109q113 0 154 -110h11q47 110 167 110q86 0 131 -59.5t45 -165.5v-321h-153v305q0 115 -83 115q-48 0 -73.5 -32.5t-25.5 -88.5v-299h-153v308q0 112 -83 112q-46 0 -72.5 -32t-26.5 -85v-303z" />
    <glyph glyph-name="n" unicode="n" horiz-adv-x="639" 
d="M214 0h-152v536h134l18 -99h9q51 109 176 109q89 0 136.5 -59.5t47.5 -165.5v-321h-153v305q0 115 -98 115q-54 0 -86 -37t-32 -100v-283z" />
    <glyph glyph-name="o" unicode="o" horiz-adv-x="595" 
d="M298 546q121 0 194 -78q74 -77 74 -201q0 -123 -74 -200q-73 -76 -194 -76q-122 0 -195 76q-74 77 -74 201t74 201t195 77zM184 268q0 -71 30.5 -111.5t82.5 -40.5q53 0 83 41.5t30 111.5t-30 110.5t-84 40.5q-52 0 -82 -41.5t-30 -110.5z" />
    <glyph glyph-name="p" unicode="p" horiz-adv-x="647" 
d="M62 -167v703h133l19 -98h9q21 50 68 79t107 29q102 0 161 -75q59 -76 59 -203q0 -129 -60 -203.5t-160 -74.5q-63 0 -109.5 29t-65.5 78h-9v-264h-152zM214 285v-35q0 -60 34 -97.5t90 -37.5q60 0 92.5 41.5t32.5 113.5t-32.5 111.5t-90.5 39.5q-56 0 -91 -38t-35 -98z
" />
    <glyph glyph-name="q" unicode="q" horiz-adv-x="648" 
d="M453 536h133v-703h-153v264h-8q-21 -50 -67.5 -78.5t-109.5 -28.5q-100 0 -159.5 74.5t-59.5 203.5q0 126 59 202q58 76 160 76q60 0 107.5 -28.5t69.5 -79.5h8zM433 250v35q0 59 -35.5 97.5t-91.5 38.5q-57 0 -89 -39t-32 -112t32 -114t91 -41q57 0 91 37.5t34 97.5z
" />
    <glyph glyph-name="r" unicode="r" horiz-adv-x="394" 
d="M214 0h-152v536h133l19 -102h6q40 112 166 112v-133q-86 1 -129 -46.5t-43 -137.5v-229z" />
    <glyph glyph-name="s" unicode="s" horiz-adv-x="533" 
d="M30 168h150q1 -34 24.5 -52t64.5 -18q38 0 58 14.5t20 39.5q0 29 -20 38q-12 6 -36 12l-95 16q-157 28 -157 155q0 81 60 127t163 46q102 0 162.5 -45.5t62.5 -123.5h-150q-1 61 -77 61q-33 0 -51 -13.5t-18 -37.5q0 -19 13 -31q16 -14 56 -20l92 -15q151 -24 151 -155
q0 -83 -63.5 -129.5t-171.5 -46.5q-111 0 -174.5 48.5t-63.5 129.5z" />
    <glyph glyph-name="t" unicode="t" horiz-adv-x="388" 
d="M7 413v123h86v132l153 59v-191h115v-123h-115v-229q0 -36 15 -53t49 -17q31 0 51 5v-119q-48 -9 -97 -9q-106 0 -142 56q-29 45 -29 119v247h-86z" />
    <glyph glyph-name="u" unicode="u" horiz-adv-x="627" 
d="M419 536h152v-536h-133l-20 98h-9q-49 -108 -174 -108q-87 0 -133 55.5t-46 155.5v335h153v-311q0 -110 94 -110q53 0 84.5 37.5t31.5 100.5v283z" />
    <glyph glyph-name="v" unicode="v" horiz-adv-x="538" 
d="M175 0l-181 536h164l61 -223l47 -181h6l46 180l61 224h165l-180 -536h-189z" />
    <glyph glyph-name="w" unicode="w" horiz-adv-x="794" 
d="M588 311l50 225h150l-137 -536h-187l-45 227l-22 116h-6l-20 -115l-45 -228h-184l-137 536h151l47 -222l31 -162h9l70 384h169l69 -385h7z" />
    <glyph glyph-name="x" unicode="x" horiz-adv-x="523" 
d="M154 0h-157l178 267l-174 269h159l103 -173h8l102 173h157l-171 -268l175 -268h-162l-105 167h-7z" />
    <glyph glyph-name="y" unicode="y" horiz-adv-x="523" 
d="M189 34l-199 502h164l63 -205l44 -152h7l42 152l60 205h159l-190 -546q-30 -86 -89.5 -126.5t-156.5 -40.5q-38 0 -68 6v123q23 -4 55 -4q83 0 101 62z" />
    <glyph glyph-name="z" unicode="z" horiz-adv-x="492" 
d="M454 427l-233 -304h237v-123h-422v110l233 303h-235v123h420v-109z" />
    <glyph glyph-name="braceleft" unicode="{" horiz-adv-x="329" 
d="M47 246v73q35 0 53 20t18 55v312q0 40 21.5 62.5t62.5 22.5h102v-70h-108v-321q0 -48 -21 -78t-57 -36v-3q37 -8 57.5 -38t20.5 -76v-335h108v-66h-102q-40 0 -62 22t-22 63v320q0 37 -19.5 55t-51.5 18z" />
    <glyph glyph-name="bar" unicode="|" horiz-adv-x="300" 
d="M212 -49h-127v802h127v-802z" />
    <glyph glyph-name="braceright" unicode="}" horiz-adv-x="329" 
d="M281 319v-73q-72 0 -72 -73v-320q0 -85 -83 -85h-101v66h106v335q0 46 21 76t58 38v3q-37 6 -58 36t-21 78v321h-106v70h101q40 0 61.5 -22.5t21.5 -62.5v-312q0 -34 18.5 -54.5t53.5 -20.5z" />
    <glyph glyph-name="asciitilde" unicode="~" horiz-adv-x="428" 
d="M93 263h-70q-6 82 24.5 122t83.5 40q35 0 87 -29q52 -28 78 -28q52 0 52 64h70q6 -85 -29 -126q-35 -39 -84 -39q-44 0 -99 29q-52 30 -72 30q-23 0 -33.5 -17.5t-7.5 -45.5z" />
    <glyph glyph-name="uni00A0" unicode="&#xa0;" horiz-adv-x="214" 
 />
    <glyph glyph-name="exclamdown" unicode="&#xa1;" horiz-adv-x="302" 
d="M69 582v147h164v-147h-164zM74 214l39 285h78l38 -285v-214h-155v214z" />
    <glyph glyph-name="cent" unicode="&#xa2;" horiz-adv-x="549" 
d="M268 229q35 0 59.5 19.5t30.5 51.5h149q-8 -77 -59 -127.5t-132 -62.5v-80h-97v81q-91 15 -143.5 81.5t-52.5 170.5t52.5 171.5t143.5 83.5v81h97v-80q81 -12 133 -63t59 -126h-150q-6 33 -30 51.5t-60 18.5q-48 0 -72.5 -36.5t-24.5 -100.5q0 -134 97 -134z" />
    <glyph glyph-name="sterling" unicode="&#xa3;" horiz-adv-x="652" 
d="M470 132v107h132v-239h-577v132h67v172h-67v122h67v83q0 105 66 167q67 62 177 62q99 0 164 -54t71 -142h-156q-5 29 -27.5 45t-53.5 16q-40 0 -62.5 -24.5t-22.5 -69.5v-83h224v-122h-224v-172h222z" />
    <glyph glyph-name="currency" unicode="&#xa4;" horiz-adv-x="614" 
d="M115 61l-74 74l79 72q-46 61 -46 131.5t46 131.5l-79 71l75 76l70 -82q58 36 123 37t123 -34l68 80l73 -77l-72 -68q43 -61 43.5 -130.5t-44.5 -138.5l74 -70l-73 -73l-68 80q-62 -37 -126.5 -36t-119.5 39zM307 446q-43 0 -71.5 -30t-28.5 -77t29 -77.5t72 -30.5
t72.5 30.5t29.5 77.5t-29 77t-74 30z" />
    <glyph glyph-name="yen" unicode="&#xa5;" horiz-adv-x="683" 
d="M495 729h186l-190 -336h75v-123h-144v-49h144v-122h-144v-99h-160v99h-144v122h144v49h-144v123h74l-191 336h189l95 -199l52 -122h8l53 122z" />
    <glyph glyph-name="brokenbar" unicode="&#xa6;" horiz-adv-x="300" 
d="M212 399h-127v354h127v-354zM212 -55h-127v345h127v-345z" />
    <glyph glyph-name="section" unicode="&#xa7;" horiz-adv-x="558" 
d="M38 336q0 49 28.5 81.5t76.5 42.5v9q-74 33 -74 110q0 70 60 113.5t161 43.5q94 0 153 -44q60 -44 61 -113h-156q-6 42 -61 42q-48 0 -48 -36q0 -6 1.5 -11t3 -8.5t6 -7t7 -5.5t9 -5t8.5 -4t9.5 -4t9.5 -4l91 -32q55 -19 88 -43q49 -35 49 -103q0 -86 -79 -120v-10
q31 -13 50 -44.5t19 -70.5q0 -75 -62.5 -118.5t-165.5 -43.5q-99 0 -160 40.5t-67 112.5h163q6 -41 60 -41q59 0 59 43q0 19 -12 29.5t-43 20.5l-126 44q-119 41 -119 136zM200 374q0 -34 50 -54l67 -27q5 -2 18.5 -6.5t22.5 -8.5q12 16 12 38q0 18 -10 31q-13 17 -47 29
l-52 21q-2 1 -10.5 4t-17 6.5t-15.5 7.5q-18 -15 -18 -41z" />
    <glyph glyph-name="dieresis" unicode="&#xa8;" horiz-adv-x="417" 
d="M159 733h-119v147h119v-147zM369 733h-119v147h119v-147z" />
    <glyph glyph-name="copyright" unicode="&#xa9;" horiz-adv-x="950" 
d="M476 -74q-111 0 -206 52q-96 52 -155 148q-59 98 -59 219q0 182 124 300t297 118q111 0 205 -51q95 -51 153 -148q59 -97 59 -217q0 -182 -123 -302q-124 -119 -295 -119zM854 347q0 166 -110 273t-267 107q-158 0 -269 -108q-111 -107 -111 -274t110 -275
q112 -107 269 -107q158 0 268 107q110 108 110 277zM483 115q-101 0 -168 65q-66 66 -66 165q0 101 66 165q67 65 167 65q90 0 153 -51t66 -129h-100q-4 41 -37 66t-81 25q-61 0 -97 -39.5t-36 -102.5t35 -101.5t96 -38.5q50 0 83 24t37 65h100q-4 -79 -68 -129
q-61 -49 -150 -49z" />
    <glyph glyph-name="ordfeminine" unicode="&#xaa;" horiz-adv-x="454" 
d="M407 434q10 0 12 1v-86q-20 -7 -51 -7q-39 0 -61.5 20t-24.5 56h-2q-25 -76 -118 -76q-54 0 -87.5 31.5t-33.5 82.5q0 56 39.5 88.5t106.5 32.5h82v13q0 49 -58 49q-47 0 -56 -36h-109q5 57 51.5 91.5t121.5 34.5q79 0 121 -38.5t42 -106.5v-123q0 -27 25 -27zM269 492
v12h-62q-54 0 -54 -39q0 -37 48 -37q30 0 49 18t19 46z" />
    <glyph glyph-name="guillemotleft" unicode="&#xab;" horiz-adv-x="559" 
d="M166 58l-120 216l120 214h130l-108 -214l108 -216h-130zM396 58l-120 216l120 214h131l-109 -214l109 -216h-131z" />
    <glyph glyph-name="logicalnot" unicode="&#xac;" horiz-adv-x="588" 
d="M532 144h-121v153h-354v122h475v-275z" />
    <glyph glyph-name="registered" unicode="&#xae;" horiz-adv-x="614" 
d="M497 283q-77 -74 -190 -74q-114 0 -191 74q-76 75 -76 191q0 117 76 190q77 74 191 74q113 0 190 -74t77 -190t-77 -191zM307 246q98 0 162 64q66 64 66 164t-66 165q-65 65 -162 65q-96 0 -163 -65q-65 -65 -65 -166q0 -99 66 -164q66 -63 162 -63zM266 359h-56v242h120
q38 0 58 -18.5t20 -51.5q0 -44 -36 -62v-1q33 -10 33 -48v-31q0 -22 4 -30h-58q-4 7 -4 30v20q0 32 -32 32h-49v-82zM266 553v-68h46q36 0 36 35q0 33 -36 33h-46z" />
    <glyph glyph-name="overscore" unicode="&#xaf;" horiz-adv-x="356" 
d="M357 730h-358v113h358v-113z" />
    <glyph glyph-name="degree" unicode="&#xb0;" horiz-adv-x="426" 
d="M373 576q0 -68 -46 -113q-47 -45 -116 -45t-114 45q-44 46 -44 113q0 70 44 114q46 44 114 44q69 0 116 -44q46 -43 46 -114zM270 576q0 27 -16.5 44t-41.5 17q-24 0 -40 -17t-16 -44q0 -26 16 -43.5t40 -17.5q25 0 41.5 17.5t16.5 43.5z" />
    <glyph glyph-name="plusminus" unicode="&#xb1;" horiz-adv-x="620" 
d="M563 328h-191v-156h-126v156h-189v120h189v153h126v-153h191v-120zM563 0h-506v122h506v-122z" />
    <glyph glyph-name="uni00B2" unicode="&#xb2;" horiz-adv-x="456" 
d="M181 399l78 4h164v-103h-381v19q0 54 19 96q12 28 31 53t33.5 38.5t43.5 36.5q10 8 37 29t37 30.5t26 27t22 34t6 35.5q0 32 -19.5 50.5t-53.5 18.5q-37 0 -57.5 -23t-18.5 -63h-118q1 86 55 136.5t143 50.5q87 0 139.5 -47t52.5 -123q0 -56 -31 -102q-29 -45 -68 -73
q-31 -22 -81 -62q-43 -35 -59 -63z" />
    <glyph glyph-name="uni00B3" unicode="&#xb3;" horiz-adv-x="472" 
d="M236 292q-91 0 -146 49q-54 49 -52 129h119q-1 -35 21 -55.5t61 -20.5q38 0 59.5 20.5t21.5 54.5q0 35 -23 53.5t-65 18.5h-57v94h47q42 0 64 18t22 51q0 30 -20.5 47t-53.5 17q-38 0 -59 -20.5t-20 -54.5h-118q-4 79 51 127q55 49 149 49q85 0 138 -42q54 -41 54 -109
q0 -85 -78 -121v-5q43 -17 66.5 -52.5t23.5 -81.5q0 -74 -57 -120q-55 -46 -148 -46z" />
    <glyph glyph-name="acute" unicode="&#xb4;" horiz-adv-x="419" 
d="M362 840l-229 -128l-45 74l211 158z" />
    <glyph glyph-name="paragraph" unicode="&#xb6;" horiz-adv-x="681" 
d="M261 729h351v-96h-66v-636q0 -160 -165 -160h-270v87h140v410q-98 0 -156 53q-57 54 -57 140q0 94 60.5 148t162.5 54zM355 -76h19q35 0 51 16.5t16 50.5v642h-86v-709z" />
    <glyph glyph-name="middot" unicode="&#xb7;" horiz-adv-x="331" 
d="M63 283q0 43 30 75t72 32q43 0 73 -32t30 -75t-30 -74t-73 -31q-42 0 -72 31t-30 74z" />
    <glyph glyph-name="cedilla" unicode="&#xb8;" horiz-adv-x="511" 
d="M303 11l-29 -52q34 1 65 -19q31 -21 31 -65q0 -38 -22 -63.5t-54 -34t-68 -5t-65 19.5v72q39 -27 77 -21q38 5 38 42q0 25 -25 33.5t-57 -5.5v36l51 86h58v-24z" />
    <glyph glyph-name="uni00B9" unicode="&#xb9;" horiz-adv-x="349" 
d="M159 673h-145v90h24q54 0 89.5 27.5t38.5 71.5h110v-562h-117v373z" />
    <glyph glyph-name="ordmasculine" unicode="&#xba;" horiz-adv-x="469" 
d="M45 535q0 87 52 140q53 54 137 54t137 -54q53 -55 53 -140q0 -84 -53 -139q-53 -53 -137 -53t-137 53q-52 53 -52 139zM159 536q0 -46 20.5 -74t54.5 -28q35 0 55.5 28.5t20.5 74.5q0 45 -20.5 73t-55.5 28t-55 -28t-20 -74z" />
    <glyph glyph-name="guillemotright" unicode="&#xbb;" horiz-adv-x="559" 
d="M163 488l119 -214l-119 -216h-131l109 216l-109 214h131zM394 488l119 -214l-119 -216h-132l110 216l-110 214h132z" />
    <glyph glyph-name="onequarter" unicode="&#xbc;" horiz-adv-x="910" 
d="M174 -46l412 814h117l-413 -814h-116zM249 729v-473h-100v309h-125v80h45q42 0 64 21.5t22 59.5v3h94zM857 480v-306h49v-88h-49v-86h-99v86h-209v81l157 313h151zM758 371l-98 -197h98v197z" />
    <glyph glyph-name="onehalf" unicode="&#xbd;" horiz-adv-x="944" 
d="M174 -46l412 814h117l-413 -814h-116zM249 729v-473h-100v309h-125v80h45q42 0 64 21.5t22 59.5v3h94zM716 85l62 3h128v-88h-311v16q0 100 75 166q12 10 37.5 30t39 31.5t30 28.5t24 34t7.5 34q0 28 -16.5 44t-43.5 16q-30 0 -46.5 -20t-15.5 -54l-100 6q2 69 48 111.5
t121 42.5q72 0 113.5 -40t41.5 -106q0 -72 -56 -126q-15 -14 -48 -40t-56 -47.5t-34 -41.5z" />
    <glyph glyph-name="threequarters" unicode="&#xbe;" horiz-adv-x="972" 
d="M236 -46l412 814h117l-413 -814h-116zM347 388q0 -62 -45.5 -101t-116.5 -39q-74 0 -118.5 41t-43.5 108h100q0 -27 17 -44.5t43 -17.5q28 0 45 16.5t17 42.5q0 27 -18 42.5t-48 15.5h-41v90h30q32 0 49 15.5t17 40.5q0 24 -15 37t-39 13q-28 0 -44 -17t-15 -45h-101
q-1 67 42.5 108t119.5 41q71 0 113 -35.5t42 -92.5q0 -72 -65 -101v-5q75 -29 75 -113zM919 480v-306h49v-88h-49v-86h-99v86h-209v81l157 313h151zM820 371l-98 -197h98v197z" />
    <glyph glyph-name="questiondown" unicode="&#xbf;" horiz-adv-x="593" 
d="M243 729h155v-148h-155v148zM247 517h145v-198q-26 8 -67 8q-63 0 -98 -28.5t-35 -77.5q0 -47 30 -73t81 -26q48 0 77.5 22t33.5 61h149q-7 -100 -77.5 -157t-185.5 -57q-122 0 -191.5 62t-69.5 168q0 86 57 146t151 72v78z" />
    <glyph glyph-name="Agrave" unicode="&#xc0;" horiz-adv-x="710" 
d="M185 1000l211 -158l-45 -73l-229 128zM711 0h-177l-42 127h-283l-43 -127h-167l257 729h188zM279 334l-28 -83h200l-28 83l-67 226h-6z" />
    <glyph glyph-name="Aacute" unicode="&#xc1;" horiz-adv-x="710" 
d="M515 997l63 -104l-229 -128l-45 74zM711 0h-177l-42 127h-283l-43 -127h-167l257 729h188zM279 334l-28 -83h200l-28 83l-67 226h-6z" />
    <glyph glyph-name="Acircumflex" unicode="&#xc2;" horiz-adv-x="710" 
d="M461 768l-111 118l-111 -118l-72 70l140 137h87l139 -137zM711 0h-177l-42 127h-283l-43 -127h-167l257 729h188zM279 334l-28 -83h200l-28 83l-67 226h-6z" />
    <glyph glyph-name="Atilde" unicode="&#xc3;" horiz-adv-x="710" 
d="M287 814q-29 0 -60 -36l-60 41q41 101 121 101q28 0 65 -19t61 -19q35 0 58 38l63 -40q-40 -105 -121 -105q-31 0 -68 19q-38 20 -59 20zM711 0h-177l-42 127h-283l-43 -127h-167l257 729h188zM279 334l-28 -83h200l-28 83l-67 226h-6z" />
    <glyph glyph-name="Adieresis" unicode="&#xc4;" horiz-adv-x="710" 
d="M185 929h119v-147h-119v147zM395 929h119v-147h-119v147zM711 0h-177l-42 127h-283l-43 -127h-167l257 729h188zM279 334l-28 -83h200l-28 83l-67 226h-6z" />
    <glyph glyph-name="Aring" unicode="&#xc5;" horiz-adv-x="710" 
d="M711 0h-177l-42 127h-283l-43 -127h-167l256 726q-33 34 -33 87q0 55 35.5 89t92.5 34q56 0 92 -34t36 -89q0 -53 -33 -86zM305 813q-3 -30 21 -42.5t48 0t22 42.5q2 31 -22 44t-48 0t-21 -44zM279 334l-28 -83h200l-28 83l-67 226h-6z" />
    <glyph glyph-name="AE" unicode="&#xc6;" horiz-adv-x="988" 
d="M939 729v-139h-347v-162h293v-130h-293v-159h347v-139h-508v165h-216l-49 -165h-167l231 729h709zM253 290h178v300h-89z" />
    <glyph glyph-name="Ccedilla" unicode="&#xc7;" horiz-adv-x="754" 
d="M387 131q65 0 109 33t57 88h167q-14 -116 -103 -188q-91 -73 -221 -74l-17 -31q34 1 65 -19q31 -21 31 -65q0 -38 -22 -63.5t-54 -34t-68 -5t-65 19.5v72q39 -27 77 -21q38 5 38 42q0 25 -25.5 33.5t-56.5 -5.5v36l27 46q-135 19 -214 119q-78 99 -78 249q0 168 98 272
q97 103 259 103q134 0 225 -71q90 -71 104 -188h-167q-15 55 -59 86.5t-104 31.5q-87 0 -136 -62.5t-49 -172.5t48.5 -170.5t133.5 -60.5z" />
    <glyph glyph-name="Egrave" unicode="&#xc8;" horiz-adv-x="641" 
d="M375 842l-45 -73l-229 128l63 103zM593 0h-516v729h516v-139h-354v-147h303v-131h-303v-173h354v-139z" />
    <glyph glyph-name="Eacute" unicode="&#xc9;" horiz-adv-x="641" 
d="M558 893l-229 -128l-45 74l211 158zM593 0h-516v729h516v-139h-354v-147h303v-131h-303v-173h354v-139z" />
    <glyph glyph-name="Ecircumflex" unicode="&#xca;" horiz-adv-x="641" 
d="M219 768l-72 70l140 137h87l139 -137l-72 -70l-111 118zM593 0h-516v729h516v-139h-354v-147h303v-131h-303v-173h354v-139z" />
    <glyph glyph-name="Edieresis" unicode="&#xcb;" horiz-adv-x="641" 
d="M284 782h-119v147h119v-147zM494 782h-119v147h119v-147zM593 0h-516v729h516v-139h-354v-147h303v-131h-303v-173h354v-139z" />
    <glyph glyph-name="Igrave" unicode="&#xcc;" horiz-adv-x="316" 
d="M204 842l-45 -73l-229 128l63 103zM239 729v-729h-162v729h162z" />
    <glyph glyph-name="Iacute" unicode="&#xcd;" horiz-adv-x="316" 
d="M387 893l-229 -128l-45 74l211 158zM239 729v-729h-162v729h162z" />
    <glyph glyph-name="Icircumflex" unicode="&#xce;" horiz-adv-x="316" 
d="M48 768l-72 70l140 137h87l139 -137l-72 -70l-111 118zM239 729v-729h-162v729h162z" />
    <glyph glyph-name="Idieresis" unicode="&#xcf;" horiz-adv-x="316" 
d="M112 782h-119v147h119v-147zM322 782h-119v147h119v-147zM239 729v-729h-162v729h162z" />
    <glyph glyph-name="Eth" unicode="&#xd0;" horiz-adv-x="752" 
d="M77 729h306q160 0 247 -99q88 -98 88 -266q0 -167 -88 -265q-87 -99 -247 -99h-306v316h-91v117h91v296zM239 139h119q191 0 191 228q0 223 -191 223h-119v-157h103v-117h-103v-177z" />
    <glyph glyph-name="Ntilde" unicode="&#xd1;" horiz-adv-x="792" 
d="M463 775q-31 0 -68 19q-38 20 -59 20q-28 0 -60 -36l-60 41q41 101 121 101q28 0 65 -19t61 -19q35 0 58 38l63 -40q-40 -105 -121 -105zM239 0h-162v729h187l294 -503h6l-9 209v294h160v-729h-187l-292 499h-7l10 -201v-298z" />
    <glyph glyph-name="Ograve" unicode="&#xd2;" horiz-adv-x="777" 
d="M434 842l-45 -73l-229 128l63 103zM34 365q0 174 96 273q96 100 258 100q166 0 261 -102q94 -101 94 -271q0 -176 -97 -276q-96 -99 -258 -99q-166 0 -260 102q-94 101 -94 273zM205 365q0 -109 49 -171t134 -62q87 0 136 63t49 170t-50 169.5t-135 62.5t-134 -63
t-49 -169z" />
    <glyph glyph-name="Oacute" unicode="&#xd3;" horiz-adv-x="777" 
d="M617 893l-229 -128l-45 74l211 158zM34 365q0 174 96 273q96 100 258 100q166 0 261 -102q94 -101 94 -271q0 -176 -97 -276q-96 -99 -258 -99q-166 0 -260 102q-94 101 -94 273zM205 365q0 -109 49 -171t134 -62q87 0 136 63t49 170t-50 169.5t-135 62.5t-134 -63
t-49 -169z" />
    <glyph glyph-name="Ocircumflex" unicode="&#xd4;" horiz-adv-x="777" 
d="M278 768l-72 70l140 137h87l139 -137l-72 -70l-111 118zM34 365q0 174 96 273q96 100 258 100q166 0 261 -102q94 -101 94 -271q0 -176 -97 -276q-96 -99 -258 -99q-166 0 -260 102q-94 101 -94 273zM205 365q0 -109 49 -171t134 -62q87 0 136 63t49 170t-50 169.5
t-135 62.5t-134 -63t-49 -169z" />
    <glyph glyph-name="Otilde" unicode="&#xd5;" horiz-adv-x="777" 
d="M452 775q-31 0 -68 19q-38 20 -59 20q-29 0 -60 -36l-60 41q41 101 121 101q28 0 65 -19t61 -19q35 0 58 38l63 -40q-40 -105 -121 -105zM34 365q0 174 96 273q96 100 258 100q166 0 261 -102q94 -101 94 -271q0 -176 -97 -276q-96 -99 -258 -99q-166 0 -260 102
q-94 101 -94 273zM205 365q0 -109 49 -171t134 -62q87 0 136 63t49 170t-50 169.5t-135 62.5t-134 -63t-49 -169z" />
    <glyph glyph-name="Odieresis" unicode="&#xd6;" horiz-adv-x="777" 
d="M342 782h-119v147h119v-147zM552 782h-119v147h119v-147zM34 365q0 174 96 273q96 100 258 100q166 0 261 -102q94 -101 94 -271q0 -176 -97 -276q-96 -99 -258 -99q-166 0 -260 102q-94 101 -94 273zM205 365q0 -109 49 -171t134 -62q87 0 136 63t49 170t-50 169.5
t-135 62.5t-134 -63t-49 -169z" />
    <glyph glyph-name="multiply" unicode="&#xd7;" horiz-adv-x="678" 
d="M147 9l-91 94l191 197l-191 199l91 93l186 -193h12l184 193l92 -93l-190 -199l190 -197l-92 -94l-184 193h-12z" />
    <glyph glyph-name="Oslash" unicode="&#xd8;" horiz-adv-x="821" 
d="M728 671l69 -97l-68 -49q27 -71 27 -160q0 -176 -97 -276q-96 -99 -258 -99q-170 0 -264 106l-54 -39l-62 101l55 40q-29 76 -29 167q0 174 96 273q96 100 258 100q173 0 268 -110zM217 365q0 -26 5 -61l315 228q-50 65 -136 65t-135 -63t-49 -169zM586 365q0 34 -4 54
l-313 -228q50 -59 132 -59q86 0 135.5 63t49.5 170z" />
    <glyph glyph-name="Ugrave" unicode="&#xd9;" horiz-adv-x="772" 
d="M431 842l-45 -73l-229 128l63 103zM71 279v450h161v-440q0 -73 40.5 -114t113.5 -41t113.5 40.5t40.5 114.5v440h161v-450q0 -135 -86 -212t-230 -77q-153 0 -233.5 77t-80.5 212z" />
    <glyph glyph-name="Uacute" unicode="&#xda;" horiz-adv-x="772" 
d="M614 893l-229 -128l-45 74l211 158zM71 279v450h161v-440q0 -73 40.5 -114t113.5 -41t113.5 40.5t40.5 114.5v440h161v-450q0 -135 -86 -212t-230 -77q-153 0 -233.5 77t-80.5 212z" />
    <glyph glyph-name="Ucircumflex" unicode="&#xdb;" horiz-adv-x="772" 
d="M275 768l-72 70l140 137h87l139 -137l-72 -70l-111 118zM71 279v450h161v-440q0 -73 40.5 -114t113.5 -41t113.5 40.5t40.5 114.5v440h161v-450q0 -135 -86 -212t-230 -77q-153 0 -233.5 77t-80.5 212z" />
    <glyph glyph-name="Udieresis" unicode="&#xdc;" horiz-adv-x="772" 
d="M339 782h-119v147h119v-147zM549 782h-119v147h119v-147zM71 279v450h161v-440q0 -73 40.5 -114t113.5 -41t113.5 40.5t40.5 114.5v440h161v-450q0 -135 -86 -212t-230 -77q-153 0 -233.5 77t-80.5 212z" />
    <glyph glyph-name="Yacute" unicode="&#xdd;" horiz-adv-x="707" 
d="M582 893l-229 -128l-45 74l211 158zM272 279l-271 450h192l78 -151l78 -155h8l158 306h191l-272 -450v-279h-162v279z" />
    <glyph glyph-name="Thorn" unicode="&#xde;" horiz-adv-x="667" 
d="M230 623h144q118 0 190 -69q73 -67 73 -178t-75 -180t-189 -69h-143v-127h-161v750h161v-127zM230 265h117q56 0 88 30t32 79q0 47 -35 76.5t-85 29.5h-117v-215z" />
    <glyph glyph-name="germandbls" unicode="&#xdf;" horiz-adv-x="619" 
d="M437 418v-8q69 -13 110.5 -66t41.5 -126q0 -103 -72 -160.5t-196 -57.5h-46v125h30q60 0 95 31.5t35 85.5q0 53 -34.5 82t-94.5 29h-18v111h11q41 0 65 23.5t24 60.5q0 36 -21.5 57.5t-58.5 21.5q-39 0 -60 -23t-21 -62v-542h-151v404h-69v120h69v5q0 109 63 166.5
t176 57.5q103 0 164 -51q61 -49 61 -131q0 -55 -27.5 -95.5t-75.5 -57.5z" />
    <glyph glyph-name="agrave" unicode="&#xe0;" horiz-adv-x="582" 
d="M325 654l-45 -73l-229 128l63 103zM25 147q0 81 58 128t157 47h123v31q0 37 -21.5 56.5t-59.5 19.5t-61 -18t-25 -48h-149q7 84 72 133.5t168 49.5q110 0 169 -52.5t59 -145.5v-209q0 -34 26 -34q7 0 17 2v-106q-39 -9 -75 -9q-106 0 -112 89h-8q-14 -42 -58.5 -66.5
t-105.5 -24.5q-80 0 -127 42.5t-47 114.5zM179 166q0 -29 20 -45t54 -16q51 0 80.5 29.5t29.5 77.5v18h-98q-86 0 -86 -64z" />
    <glyph glyph-name="aacute" unicode="&#xe1;" horiz-adv-x="582" 
d="M508 705l-229 -128l-45 74l211 158zM25 147q0 81 58 128t157 47h123v31q0 37 -21.5 56.5t-59.5 19.5t-61 -18t-25 -48h-149q7 84 72 133.5t168 49.5q110 0 169 -52.5t59 -145.5v-209q0 -34 26 -34q7 0 17 2v-106q-39 -9 -75 -9q-106 0 -112 89h-8q-14 -42 -58.5 -66.5
t-105.5 -24.5q-80 0 -127 42.5t-47 114.5zM179 166q0 -29 20 -45t54 -16q51 0 80.5 29.5t29.5 77.5v18h-98q-86 0 -86 -64z" />
    <glyph glyph-name="acircumflex" unicode="&#xe2;" horiz-adv-x="582" 
d="M168 580l-72 70l140 137h87l139 -137l-72 -70l-111 118zM25 147q0 81 58 128t157 47h123v31q0 37 -21.5 56.5t-59.5 19.5t-61 -18t-25 -48h-149q7 84 72 133.5t168 49.5q110 0 169 -52.5t59 -145.5v-209q0 -34 26 -34q7 0 17 2v-106q-39 -9 -75 -9q-106 0 -112 89h-8
q-14 -42 -58.5 -66.5t-105.5 -24.5q-80 0 -127 42.5t-47 114.5zM179 166q0 -29 20 -45t54 -16q51 0 80.5 29.5t29.5 77.5v18h-98q-86 0 -86 -64z" />
    <glyph glyph-name="atilde" unicode="&#xe3;" horiz-adv-x="582" 
d="M343 587q-31 0 -68 19q-38 20 -59 20q-28 0 -60 -36l-60 41q41 101 121 101q28 0 65 -19t61 -19q35 0 58 38l63 -40q-40 -105 -121 -105zM25 147q0 81 58 128t157 47h123v31q0 37 -21.5 56.5t-59.5 19.5t-61 -18t-25 -48h-149q7 84 72 133.5t168 49.5q110 0 169 -52.5
t59 -145.5v-209q0 -34 26 -34q7 0 17 2v-106q-39 -9 -75 -9q-106 0 -112 89h-8q-14 -42 -58.5 -66.5t-105.5 -24.5q-80 0 -127 42.5t-47 114.5zM179 166q0 -29 20 -45t54 -16q51 0 80.5 29.5t29.5 77.5v18h-98q-86 0 -86 -64z" />
    <glyph glyph-name="adieresis" unicode="&#xe4;" horiz-adv-x="582" 
d="M233 593h-119v147h119v-147zM443 593h-119v147h119v-147zM25 147q0 81 58 128t157 47h123v31q0 37 -21.5 56.5t-59.5 19.5t-61 -18t-25 -48h-149q7 84 72 133.5t168 49.5q110 0 169 -52.5t59 -145.5v-209q0 -34 26 -34q7 0 17 2v-106q-39 -9 -75 -9q-106 0 -112 89h-8
q-14 -42 -58.5 -66.5t-105.5 -24.5q-80 0 -127 42.5t-47 114.5zM179 166q0 -29 20 -45t54 -16q51 0 80.5 29.5t29.5 77.5v18h-98q-86 0 -86 -64z" />
    <glyph glyph-name="aring" unicode="&#xe5;" horiz-adv-x="582" 
d="M541 105q7 0 17 2v-106q-39 -9 -75 -9q-106 0 -112 89h-8q-14 -42 -58.5 -66.5t-105.5 -24.5q-80 0 -127 42.5t-47 114.5q0 81 58 128t157 47h123v31q0 37 -21.5 56.5t-59.5 19.5t-61 -18t-25 -48h-149q5 63 42.5 106.5t100.5 62.5q-39 34 -39 92q0 55 35.5 89t92.5 34
q56 0 92 -34t36 -89q0 -53 -35 -88q70 -18 106.5 -66.5t36.5 -121.5v-209q0 -34 26 -34zM312 660q-13 14 -33 14t-33 -14q-12 -14 -12 -36t12 -36q13 -13 33 -13t33 13q13 14 13 36t-13 36zM363 212v18h-98q-86 0 -86 -64q0 -29 20 -45t54 -16q51 0 80.5 29.5t29.5 77.5z
" />
    <glyph glyph-name="ae" unicode="&#xe6;" horiz-adv-x="903" 
d="M737 174h137q-11 -83 -80 -134q-70 -50 -169 -50q-141 0 -209 92q-28 -44 -79.5 -68t-117.5 -24q-87 0 -142 46q-54 46 -54 122q0 81 54.5 126t154.5 45h119v23q0 36 -23.5 56.5t-62.5 20.5q-35 0 -58.5 -18t-25.5 -45h-152q7 83 71.5 131.5t170.5 48.5q110 0 171 -64
q64 64 174 64q115 0 184 -70q69 -69 69 -181q0 -24 -4 -63h-360q-1 -57 31.5 -89.5t89.5 -32.5q40 0 71 17.5t40 46.5zM617 430q-47 0 -77 -25.5t-34 -70.5h214q-2 46 -30.5 71t-72.5 25zM353 206v20h-95q-81 0 -81 -61q0 -27 19 -42t52 -15q47 0 76 27.5t29 70.5z" />
    <glyph glyph-name="ccedilla" unicode="&#xe7;" horiz-adv-x="571" 
d="M295 115q41 0 67.5 22.5t31.5 59.5h151q-4 -91 -71 -148q-67 -56 -169 -59l-17 -31q34 1 65 -19q31 -21 31 -65q0 -38 -22 -63.5t-54 -34t-68 -5t-65 19.5v72q39 -27 77 -21q38 5 38 42q0 25 -25 33.5t-57 -5.5v36l28 47q-96 18 -151.5 91t-55.5 181q0 124 74 201t195 77
q103 0 171 -56q69 -55 76 -148h-151q-14 78 -98 78q-55 0 -83.5 -40t-28.5 -113q0 -74 29 -113t82 -39z" />
    <glyph glyph-name="egrave" unicode="&#xe8;" horiz-adv-x="578" 
d="M331 654l-45 -73l-229 128l63 103zM296 -10q-121 0 -194 76t-73 201q0 126 73 202q74 77 192 77q116 0 183 -67q68 -66 68 -176q0 -43 -6 -70h-358q-1 -60 29 -93.5t84 -33.5q39 0 67.5 17.5t36.5 46.5h151q-14 -82 -84 -131q-68 -49 -169 -49zM183 333h210
q-1 46 -28.5 72t-75.5 26q-47 0 -75.5 -26.5t-30.5 -71.5z" />
    <glyph glyph-name="eacute" unicode="&#xe9;" horiz-adv-x="578" 
d="M514 705l-229 -128l-45 74l211 158zM296 -10q-121 0 -194 76t-73 201q0 126 73 202q74 77 192 77q116 0 183 -67q68 -66 68 -176q0 -43 -6 -70h-358q-1 -60 29 -93.5t84 -33.5q39 0 67.5 17.5t36.5 46.5h151q-14 -82 -84 -131q-68 -49 -169 -49zM183 333h210
q-1 46 -28.5 72t-75.5 26q-47 0 -75.5 -26.5t-30.5 -71.5z" />
    <glyph glyph-name="ecircumflex" unicode="&#xea;" horiz-adv-x="578" 
d="M175 580l-72 70l140 137h87l139 -137l-72 -70l-111 118zM296 -10q-121 0 -194 76t-73 201q0 126 73 202q74 77 192 77q116 0 183 -67q68 -66 68 -176q0 -43 -6 -70h-358q-1 -60 29 -93.5t84 -33.5q39 0 67.5 17.5t36.5 46.5h151q-14 -82 -84 -131q-68 -49 -169 -49z
M183 333h210q-1 46 -28.5 72t-75.5 26q-47 0 -75.5 -26.5t-30.5 -71.5z" />
    <glyph glyph-name="edieresis" unicode="&#xeb;" horiz-adv-x="578" 
d="M239 593h-119v147h119v-147zM449 593h-119v147h119v-147zM296 -10q-121 0 -194 76t-73 201q0 126 73 202q74 77 192 77q116 0 183 -67q68 -66 68 -176q0 -43 -6 -70h-358q-1 -60 29 -93.5t84 -33.5q39 0 67.5 17.5t36.5 46.5h151q-14 -82 -84 -131q-68 -49 -169 -49z
M183 333h210q-1 46 -28.5 72t-75.5 26q-47 0 -75.5 -26.5t-30.5 -71.5z" />
    <glyph glyph-name="igrave" unicode="&#xec;" horiz-adv-x="276" 
d="M184 649l-45 -73l-229 128l63 103zM214 0h-152v536h152v-536z" />
    <glyph glyph-name="iacute" unicode="&#xed;" horiz-adv-x="276" 
d="M367 700l-229 -128l-45 74l211 158zM214 0h-152v536h152v-536z" />
    <glyph glyph-name="icircumflex" unicode="&#xee;" horiz-adv-x="276" 
d="M28 575l-72 70l140 137h87l139 -137l-72 -70l-111 118zM214 0h-152v536h152v-536z" />
    <glyph glyph-name="idieresis" unicode="&#xef;" horiz-adv-x="276" 
d="M92 589h-119v147h119v-147zM302 589h-119v147h119v-147zM214 0h-152v536h152v-536z" />
    <glyph glyph-name="eth" unicode="&#xf0;" horiz-adv-x="614" 
d="M36 242q0 107 66 173q68 66 174 66q36 0 62 -10l4 4l-41 38l-42 52l-134 -48v108l72 26l-71 104h184l34 -50l135 50v-109l-76 -26l60 -89l23 -35q22 -30 27 -41q3 -5 22 -39q17 -30 21 -49q18 -56 18 -107q0 -121 -77 -195t-196 -74q-118 0 -191 70q-74 71 -74 181z
M191 245q0 -58 31 -93.5t83 -35.5q51 0 82 36.5t31 94.5q0 57 -31 93t-82 36q-52 0 -83 -36t-31 -95z" />
    <glyph glyph-name="ntilde" unicode="&#xf1;" horiz-adv-x="639" 
d="M396 587q-31 0 -68 19q-38 20 -59 20q-29 0 -60 -36l-60 41q41 101 121 101q28 0 65 -19t61 -19q35 0 58 38l63 -40q-40 -105 -121 -105zM214 0h-152v536h134l18 -99h9q51 109 176 109q89 0 136.5 -59.5t47.5 -165.5v-321h-153v305q0 115 -98 115q-54 0 -86 -37t-32 -100
v-283z" />
    <glyph glyph-name="ograve" unicode="&#xf2;" horiz-adv-x="595" 
d="M343 654l-45 -73l-229 128l63 103zM298 546q121 0 194 -78q74 -77 74 -201q0 -123 -74 -200q-73 -76 -194 -76q-122 0 -195 76q-74 77 -74 201t74 201t195 77zM184 268q0 -71 30.5 -111.5t82.5 -40.5q53 0 83 41.5t30 111.5t-30 110.5t-84 40.5q-52 0 -82 -41.5
t-30 -110.5z" />
    <glyph glyph-name="oacute" unicode="&#xf3;" horiz-adv-x="595" 
d="M526 705l-229 -128l-45 74l211 158zM298 546q121 0 194 -78q74 -77 74 -201q0 -123 -74 -200q-73 -76 -194 -76q-122 0 -195 76q-74 77 -74 201t74 201t195 77zM184 268q0 -71 30.5 -111.5t82.5 -40.5q53 0 83 41.5t30 111.5t-30 110.5t-84 40.5q-52 0 -82 -41.5
t-30 -110.5z" />
    <glyph glyph-name="ocircumflex" unicode="&#xf4;" horiz-adv-x="595" 
d="M187 580l-72 70l140 137h87l139 -137l-72 -70l-111 118zM298 546q121 0 194 -78q74 -77 74 -201q0 -123 -74 -200q-73 -76 -194 -76q-122 0 -195 76q-74 77 -74 201t74 201t195 77zM184 268q0 -71 30.5 -111.5t82.5 -40.5q53 0 83 41.5t30 111.5t-30 110.5t-84 40.5
q-52 0 -82 -41.5t-30 -110.5z" />
    <glyph glyph-name="otilde" unicode="&#xf5;" horiz-adv-x="595" 
d="M362 587q-31 0 -68 19q-38 20 -59 20q-29 0 -60 -36l-60 41q41 101 121 101q28 0 65 -19t61 -19q35 0 58 38l63 -40q-40 -105 -121 -105zM298 546q121 0 194 -78q74 -77 74 -201q0 -123 -74 -200q-73 -76 -194 -76q-122 0 -195 76q-74 77 -74 201t74 201t195 77zM184 268
q0 -71 30.5 -111.5t82.5 -40.5q53 0 83 41.5t30 111.5t-30 110.5t-84 40.5q-52 0 -82 -41.5t-30 -110.5z" />
    <glyph glyph-name="odieresis" unicode="&#xf6;" horiz-adv-x="595" 
d="M252 593h-119v147h119v-147zM462 593h-119v147h119v-147zM298 546q121 0 194 -78q74 -77 74 -201q0 -123 -74 -200q-73 -76 -194 -76q-122 0 -195 76q-74 77 -74 201t74 201t195 77zM184 268q0 -71 30.5 -111.5t82.5 -40.5q53 0 83 41.5t30 111.5t-30 110.5t-84 40.5
q-52 0 -82 -41.5t-30 -110.5z" />
    <glyph glyph-name="divide" unicode="&#xf7;" horiz-adv-x="641" 
d="M399 418h-158v151h158v-151zM566 228h-492v123h492v-123zM399 9h-158v151h158v-151z" />
    <glyph glyph-name="oslash" unicode="&#xf8;" horiz-adv-x="631" 
d="M562 510l55 -81l-58 -42q22 -56 22 -120q0 -123 -74 -200q-73 -76 -194 -76q-120 0 -193 76l-52 -38l-54 80l53 39q-22 54 -22 120q0 124 74 201t194 77q121 0 194 -76zM200 268q0 -17 1 -22l190 139q-30 35 -79 35q-53 0 -82.5 -41t-29.5 -111zM426 269q0 16 -1 20
l-190 -138q29 -35 78 -35q53 0 83 41.5t30 111.5z" />
    <glyph glyph-name="ugrave" unicode="&#xf9;" horiz-adv-x="627" 
d="M360 654l-45 -73l-229 128l63 103zM419 536h152v-536h-133l-20 98h-9q-49 -108 -174 -108q-87 0 -133 55.5t-46 155.5v335h153v-311q0 -110 94 -110q53 0 84.5 37.5t31.5 100.5v283z" />
    <glyph glyph-name="uacute" unicode="&#xfa;" horiz-adv-x="627" 
d="M543 705l-229 -128l-45 74l211 158zM419 536h152v-536h-133l-20 98h-9q-49 -108 -174 -108q-87 0 -133 55.5t-46 155.5v335h153v-311q0 -110 94 -110q53 0 84.5 37.5t31.5 100.5v283z" />
    <glyph glyph-name="ucircumflex" unicode="&#xfb;" horiz-adv-x="627" 
d="M203 580l-72 70l140 137h87l139 -137l-72 -70l-111 118zM419 536h152v-536h-133l-20 98h-9q-49 -108 -174 -108q-87 0 -133 55.5t-46 155.5v335h153v-311q0 -110 94 -110q53 0 84.5 37.5t31.5 100.5v283z" />
    <glyph glyph-name="udieresis" unicode="&#xfc;" horiz-adv-x="627" 
d="M268 593h-119v147h119v-147zM478 593h-119v147h119v-147zM419 536h152v-536h-133l-20 98h-9q-49 -108 -174 -108q-87 0 -133 55.5t-46 155.5v335h153v-311q0 -110 94 -110q53 0 84.5 37.5t31.5 100.5v283z" />
    <glyph glyph-name="yacute" unicode="&#xfd;" horiz-adv-x="523" 
d="M485 706l-229 -128l-45 74l211 158zM189 34l-199 502h164l63 -205l44 -152h7l42 152l60 205h159l-190 -546q-30 -86 -89.5 -126.5t-156.5 -40.5q-38 0 -68 6v123q23 -4 55 -4q83 0 101 62z" />
    <glyph glyph-name="thorn" unicode="&#xfe;" horiz-adv-x="645" 
d="M62 -167v896h152v-290h9q21 49 68.5 78t106.5 29q102 0 160 -75.5t58 -205.5q0 -129 -60 -202q-58 -73 -158 -73q-63 0 -109.5 28.5t-65.5 77.5h-9v-263h-152zM214 287v-39q0 -60 34 -96.5t90 -36.5q59 0 92 40.5t33 111.5q0 75 -32.5 114.5t-90.5 39.5q-56 0 -91 -37.5
t-35 -96.5z" />
    <glyph glyph-name="ydieresis" unicode="&#xff;" horiz-adv-x="523" 
d="M210 595h-119v147h119v-147zM420 595h-119v147h119v-147zM189 34l-199 502h164l63 -205l44 -152h7l42 152l60 205h159l-190 -546q-30 -86 -89.5 -126.5t-156.5 -40.5q-38 0 -68 6v123q23 -4 55 -4q83 0 101 62z" />
    <glyph glyph-name="Amacron" unicode="&#x100;" horiz-adv-x="710" 
d="M171 895h358v-113h-358v113zM711 0h-177l-42 127h-283l-43 -127h-167l257 729h188zM279 334l-28 -83h200l-28 83l-67 226h-6z" />
    <glyph glyph-name="amacron" unicode="&#x101;" horiz-adv-x="582" 
d="M458 593h-358v113h358v-113zM25 147q0 81 58 128t157 47h123v31q0 37 -21.5 56.5t-59.5 19.5t-61 -18t-25 -48h-149q7 84 72 133.5t168 49.5q110 0 169 -52.5t59 -145.5v-209q0 -34 26 -34q7 0 17 2v-106q-39 -9 -75 -9q-106 0 -112 89h-8q-14 -42 -58.5 -66.5
t-105.5 -24.5q-80 0 -127 42.5t-47 114.5zM179 166q0 -29 20 -45t54 -16q51 0 80.5 29.5t29.5 77.5v18h-98q-86 0 -86 -64z" />
    <glyph glyph-name="Abreve" unicode="&#x102;" horiz-adv-x="710" 
d="M349 775q-74 0 -118 45t-44 117h93q0 -37 18.5 -57t50.5 -20q33 0 51.5 20.5t18.5 56.5h94q0 -73 -44.5 -117.5t-119.5 -44.5zM711 0h-177l-42 127h-283l-43 -127h-167l257 729h188zM279 334l-28 -83h200l-28 83l-67 226h-6z" />
    <glyph glyph-name="abreve" unicode="&#x103;" horiz-adv-x="582" 
d="M348 749h94q0 -73 -44.5 -117.5t-119.5 -44.5q-74 0 -118 45t-44 117h93q0 -37 18.5 -57t50.5 -20q33 0 51.5 20.5t18.5 56.5zM25 147q0 81 58 128t157 47h123v31q0 37 -21.5 56.5t-59.5 19.5t-61 -18t-25 -48h-149q7 84 72 133.5t168 49.5q110 0 169 -52.5t59 -145.5
v-209q0 -34 26 -34q7 0 17 2v-106q-39 -9 -75 -9q-106 0 -112 89h-8q-14 -42 -58.5 -66.5t-105.5 -24.5q-80 0 -127 42.5t-47 114.5zM179 166q0 -29 20 -45t54 -16q51 0 80.5 29.5t29.5 77.5v18h-98q-86 0 -86 -64z" />
    <glyph glyph-name="Aogonek" unicode="&#x104;" horiz-adv-x="710" 
d="M684 -120q28 0 58 12v-80q-33 -16 -85 -16q-58 0 -92.5 30t-34.5 79q0 58 43 95h-39l-42 127h-283l-43 -127h-167l257 729h188l266 -726l2 -3q-91 -15 -91 -75q0 -45 63 -45zM279 334l-28 -83h200l-28 83l-67 226h-6z" />
    <glyph glyph-name="aogonek" unicode="&#x105;" horiz-adv-x="582" 
d="M534 -120q28 0 58 12v-80q-33 -16 -85 -16q-58 0 -92.5 30t-34.5 79q0 58 45 97q-50 21 -54 79h-8q-14 -42 -58.5 -66.5t-105.5 -24.5q-80 0 -127 42.5t-47 114.5q0 81 58 128t157 47h123v31q0 37 -21.5 56.5t-59.5 19.5t-61 -18t-25 -48h-149q7 84 72 133.5t168 49.5
q110 0 169 -52.5t59 -145.5v-209q0 -34 26 -34q7 0 17 2v-101l4 -6q-91 -15 -91 -75q0 -45 63 -45zM363 212v18h-98q-86 0 -86 -64q0 -29 20 -45t54 -16q51 0 80.5 29.5t29.5 77.5z" />
    <glyph glyph-name="Cacute" unicode="&#x106;" horiz-adv-x="754" 
d="M605 893l-229 -128l-45 74l211 158zM553 252h167q-13 -118 -105 -190q-91 -72 -224 -72q-163 0 -260 102q-97 103 -97 271t98 272q97 103 259 103q134 0 225 -71q90 -71 104 -188h-167q-15 55 -59 86.5t-104 31.5q-87 0 -136 -62.5t-49 -172.5t48.5 -170.5t133.5 -60.5
q65 0 109 33t57 88z" />
    <glyph glyph-name="cacute" unicode="&#x107;" horiz-adv-x="571" 
d="M516 705l-229 -128l-45 74l211 158zM394 197h151q-4 -93 -74 -150q-69 -57 -175 -57q-121 0 -194 76t-73 202q0 124 74 201t195 77q103 0 171 -56q69 -55 76 -148h-151q-14 78 -98 78q-55 0 -83.5 -40t-28.5 -113q0 -74 29 -113t82 -39q41 0 67.5 22.5t31.5 59.5z" />
    <glyph glyph-name="Cdotaccent" unicode="&#x10a;" horiz-adv-x="754" 
d="M436 782h-119v147h119v-147zM553 252h167q-13 -118 -105 -190q-91 -72 -224 -72q-163 0 -260 102q-97 103 -97 271t98 272q97 103 259 103q134 0 225 -71q90 -71 104 -188h-167q-15 55 -59 86.5t-104 31.5q-87 0 -136 -62.5t-49 -172.5t48.5 -170.5t133.5 -60.5
q65 0 109 33t57 88z" />
    <glyph glyph-name="cdotaccent" unicode="&#x10b;" horiz-adv-x="571" 
d="M347 593h-119v147h119v-147zM394 197h151q-4 -93 -74 -150q-69 -57 -175 -57q-121 0 -194 76t-73 202q0 124 74 201t195 77q103 0 171 -56q69 -55 76 -148h-151q-14 78 -98 78q-55 0 -83.5 -40t-28.5 -113q0 -74 29 -113t82 -39q41 0 67.5 22.5t31.5 59.5z" />
    <glyph glyph-name="Ccaron" unicode="&#x10c;" horiz-adv-x="754" 
d="M334 784l-140 139l72 69l111 -119l111 119l72 -69l-139 -139h-87zM553 252h167q-13 -118 -105 -190q-91 -72 -224 -72q-163 0 -260 102q-97 103 -97 271t98 272q97 103 259 103q134 0 225 -71q90 -71 104 -188h-167q-15 55 -59 86.5t-104 31.5q-87 0 -136 -62.5
t-49 -172.5t48.5 -170.5t133.5 -60.5q65 0 109 33t57 88z" />
    <glyph glyph-name="ccaron" unicode="&#x10d;" horiz-adv-x="571" 
d="M244 596l-140 139l72 69l111 -119l111 119l72 -69l-139 -139h-87zM394 197h151q-4 -93 -74 -150q-69 -57 -175 -57q-121 0 -194 76t-73 202q0 124 74 201t195 77q103 0 171 -56q69 -55 76 -148h-151q-14 78 -98 78q-55 0 -83.5 -40t-28.5 -113q0 -74 29 -113t82 -39
q41 0 67.5 22.5t31.5 59.5z" />
    <glyph glyph-name="Dcaron" unicode="&#x10e;" horiz-adv-x="752" 
d="M290 784l-140 139l72 69l111 -119l111 119l72 -69l-139 -139h-87zM383 0h-306v729h306q160 0 247 -99q88 -98 88 -266q0 -167 -88 -265q-87 -99 -247 -99zM239 590v-451h119q191 0 191 228q0 223 -191 223h-119z" />
    <glyph glyph-name="dcaron" unicode="&#x10f;" horiz-adv-x="635" 
d="M426 433h8v311h153v-744h-133l-20 96h-8q-21 -50 -69 -78t-108 -28q-101 0 -160 74t-59 201q0 131 60 206t159 75q64 0 109.5 -30t67.5 -83zM656 618v126h126v-115q0 -118 -138 -118v44q40 0 56.5 15.5t16.5 47.5h-61zM434 248v38q0 63 -34 99t-91 36q-59 0 -91 -41
t-32 -114t32 -112t89 -39q59 0 93 36t34 97z" />
    <glyph glyph-name="Dcroat" unicode="&#x110;" horiz-adv-x="752" 
d="M77 729h306q160 0 247 -99q88 -98 88 -266q0 -167 -88 -265q-87 -99 -247 -99h-306v316h-91v117h91v296zM239 139h119q191 0 191 228q0 223 -191 223h-119v-157h103v-117h-103v-177z" />
    <glyph glyph-name="dslash" unicode="&#x111;" horiz-adv-x="648" 
d="M586 656h92v-103h-92v-553h-133l-20 96h-8q-21 -50 -69 -78t-108 -28q-101 0 -160 74t-59 201q0 131 60 206t159 75q64 0 109.5 -30t67.5 -83h8v120h-115v103h115v88h153v-88zM433 248v38q0 63 -34 99t-91 36q-59 0 -91 -41t-32 -114t32 -112t89 -39q59 0 93 36t34 97z
" />
    <glyph glyph-name="Emacron" unicode="&#x112;" horiz-adv-x="641" 
d="M509 782h-358v113h358v-113zM593 0h-516v729h516v-139h-354v-147h303v-131h-303v-173h354v-139z" />
    <glyph glyph-name="emacron" unicode="&#x113;" horiz-adv-x="578" 
d="M464 593h-358v113h358v-113zM296 -10q-121 0 -194 76t-73 201q0 126 73 202q74 77 192 77q116 0 183 -67q68 -66 68 -176q0 -43 -6 -70h-358q-1 -60 29 -93.5t84 -33.5q39 0 67.5 17.5t36.5 46.5h151q-14 -82 -84 -131q-68 -49 -169 -49zM183 333h210q-1 46 -28.5 72
t-75.5 26q-47 0 -75.5 -26.5t-30.5 -71.5z" />
    <glyph glyph-name="Edotaccent" unicode="&#x116;" horiz-adv-x="641" 
d="M389 782h-119v147h119v-147zM593 0h-516v729h516v-139h-354v-147h303v-131h-303v-173h354v-139z" />
    <glyph glyph-name="edotaccent" unicode="&#x117;" horiz-adv-x="578" 
d="M345 593h-119v147h119v-147zM296 -10q-121 0 -194 76t-73 201q0 126 73 202q74 77 192 77q116 0 183 -67q68 -66 68 -176q0 -43 -6 -70h-358q-1 -60 29 -93.5t84 -33.5q39 0 67.5 17.5t36.5 46.5h151q-14 -82 -84 -131q-68 -49 -169 -49zM183 333h210q-1 46 -28.5 72
t-75.5 26q-47 0 -75.5 -26.5t-30.5 -71.5z" />
    <glyph glyph-name="Eogonek" unicode="&#x118;" horiz-adv-x="641" 
d="M565 -120q28 0 58 12v-80q-33 -16 -85 -16q-58 0 -92.5 30t-34.5 79q0 58 43 95h-377v729h516v-139h-354v-147h303v-131h-303v-173h354v-139q-91 -15 -91 -75q0 -45 63 -45z" />
    <glyph glyph-name="eogonek" unicode="&#x119;" horiz-adv-x="578" 
d="M398 170h151q-11 -62 -56 -107t-112 -62v-1q-91 -15 -91 -75q0 -45 63 -45q28 0 58 12v-80q-33 -16 -85 -16q-58 0 -92.5 30t-34.5 79q0 54 38 90q-96 18 -152 91q-56 74 -56 181q0 126 73 202q74 77 192 77q116 0 183 -67q68 -66 68 -176q0 -43 -6 -70h-358
q-1 -60 29 -93.5t84 -33.5q39 0 67.5 17.5t36.5 46.5zM289 431q-47 0 -75.5 -26.5t-30.5 -71.5h210q-1 46 -28.5 72t-75.5 26z" />
    <glyph glyph-name="Ecaron" unicode="&#x11a;" horiz-adv-x="641" 
d="M286 784l-140 139l72 69l111 -119l111 119l72 -69l-139 -139h-87zM593 0h-516v729h516v-139h-354v-147h303v-131h-303v-173h354v-139z" />
    <glyph glyph-name="ecaron" unicode="&#x11b;" horiz-adv-x="578" 
d="M242 596l-140 139l72 69l111 -119l111 119l72 -69l-139 -139h-87zM296 -10q-121 0 -194 76t-73 201q0 126 73 202q74 77 192 77q116 0 183 -67q68 -66 68 -176q0 -43 -6 -70h-358q-1 -60 29 -93.5t84 -33.5q39 0 67.5 17.5t36.5 46.5h151q-14 -82 -84 -131
q-68 -49 -169 -49zM183 333h210q-1 46 -28.5 72t-75.5 26q-47 0 -75.5 -26.5t-30.5 -71.5z" />
    <glyph glyph-name="Gbreve" unicode="&#x11e;" horiz-adv-x="803" 
d="M386 775q-74 0 -118 45t-44 117h93q0 -37 18.5 -57t50.5 -20q33 0 51.5 20.5t18.5 56.5h94q0 -73 -44.5 -117.5t-119.5 -44.5zM350 273v127h389v-400h-131l-9 97h-7q-29 -49 -92 -78t-141 -29q-146 0 -236 100q-89 101 -89 267q0 172 98 276q98 105 261 105
q127 0 216 -65t102 -171h-167q-13 44 -54 69.5t-98 25.5q-90 0 -138.5 -63.5t-48.5 -175.5q0 -113 49 -172t135 -59q72 0 119.5 40t55.5 106h-214z" />
    <glyph glyph-name="gbreve" unicode="&#x11f;" horiz-adv-x="560" 
d="M311 757h94q0 -73 -44.5 -117.5t-119.5 -44.5q-74 0 -118 45t-44 117h93q0 -37 18.5 -57t50.5 -20q33 0 51.5 20.5t18.5 56.5zM16 -63q0 37 22.5 64.5t59.5 36.5v8q-28 10 -44 31.5t-16 48.5q0 72 79 98v8q-81 45 -81 139q0 79 60 127q62 48 158 48q53 0 85 -13
q16 50 65 81t115 31v-116q-73 0 -94 -36q59 -47 59 -127q0 -78 -59 -126q-59 -47 -156 -47q-36 0 -65 7q-28 -9 -28 -35q0 -36 65 -36h120q85 0 132 -40.5t47 -110.5q0 -169 -286 -169q-117 0 -177.5 33.5t-60.5 94.5zM261 297q35 0 55.5 20t20.5 53t-21 52.5t-55 19.5
q-35 0 -55.5 -19.5t-20.5 -52.5t21 -53t55 -20zM157 -33q0 -51 105 -51q127 0 127 56q0 39 -52 39h-120q-60 0 -60 -44z" />
    <glyph glyph-name="Gdotaccent" unicode="&#x120;" horiz-adv-x="803" 
d="M328 929h119v-147h-119v147zM350 273v127h389v-400h-131l-9 97h-7q-29 -49 -92 -78t-141 -29q-146 0 -236 100q-89 101 -89 267q0 172 98 276q98 105 261 105q127 0 216 -65t102 -171h-167q-13 44 -54 69.5t-98 25.5q-90 0 -138.5 -63.5t-48.5 -175.5q0 -113 49 -172
t135 -59q72 0 119.5 40t55.5 106h-214z" />
    <glyph glyph-name="gdotaccent" unicode="&#x121;" horiz-adv-x="560" 
d="M301 602h-119v147h119v-147zM16 -63q0 37 22.5 64.5t59.5 36.5v8q-28 10 -44 31.5t-16 48.5q0 72 79 98v8q-81 45 -81 139q0 79 60 127q62 48 158 48q53 0 85 -13q16 50 65 81t115 31v-116q-73 0 -94 -36q59 -47 59 -127q0 -78 -59 -126q-59 -47 -156 -47q-36 0 -65 7
q-28 -9 -28 -35q0 -36 65 -36h120q85 0 132 -40.5t47 -110.5q0 -169 -286 -169q-117 0 -177.5 33.5t-60.5 94.5zM261 297q35 0 55.5 20t20.5 53t-21 52.5t-55 19.5q-35 0 -55.5 -19.5t-20.5 -52.5t21 -53t55 -20zM157 -33q0 -51 105 -51q127 0 127 56q0 39 -52 39h-120
q-60 0 -60 -44z" />
    <glyph glyph-name="uni0122" unicode="&#x122;" horiz-adv-x="803" 
d="M350 273v127h389v-400h-131l-9 97h-7q-29 -49 -92 -78t-141 -29q-146 0 -236 100q-89 101 -89 267q0 172 98 276q98 105 261 105q127 0 216 -65t102 -171h-167q-13 44 -54 69.5t-98 25.5q-90 0 -138.5 -63.5t-48.5 -175.5q0 -113 49 -172t135 -59q72 0 119.5 40t55.5 106
h-214zM385 -182h-60v128h124v-134q0 -102 -117 -102v42q53 0 53 48v18z" />
    <glyph glyph-name="uni0123" unicode="&#x123;" horiz-adv-x="560" 
d="M296 856v-43q-52 0 -52 -48v-30h59v-129h-123v147q0 103 116 103zM16 -63q0 37 22.5 64.5t59.5 36.5v8q-28 10 -44 31.5t-16 48.5q0 72 79 98v8q-81 45 -81 139q0 79 60 127q62 48 158 48q53 0 85 -13q16 50 65 81t115 31v-116q-73 0 -94 -36q59 -47 59 -127
q0 -78 -59 -126q-59 -47 -156 -47q-36 0 -65 7q-28 -9 -28 -35q0 -36 65 -36h120q85 0 132 -40.5t47 -110.5q0 -169 -286 -169q-117 0 -177.5 33.5t-60.5 94.5zM261 297q35 0 55.5 20t20.5 53t-21 52.5t-55 19.5q-35 0 -55.5 -19.5t-20.5 -52.5t21 -53t55 -20zM157 -33
q0 -51 105 -51q127 0 127 56q0 39 -52 39h-120q-60 0 -60 -44z" />
    <glyph glyph-name="Hbar" unicode="&#x126;" horiz-adv-x="807" 
d="M730 647h78v-104h-78v-543h-162v307h-329v-307h-162v543h-59v104h59v82h162v-82h329v82h162v-82zM239 435h329v108h-329v-108z" />
    <glyph glyph-name="hbar" unicode="&#x127;" horiz-adv-x="639" 
d="M399 546q91 0 137.5 -59t46.5 -165v-322h-153v306q0 114 -98 114q-54 0 -86 -36.5t-32 -97.5v-286h-152v553h-86v103h86v88h152v-88h122v-103h-122v-114h9q51 107 176 107z" />
    <glyph glyph-name="Imacron" unicode="&#x12a;" horiz-adv-x="316" 
d="M337 782h-358v113h358v-113zM239 729v-729h-162v729h162z" />
    <glyph glyph-name="imacron" unicode="&#x12b;" horiz-adv-x="276" 
d="M317 589h-358v113h358v-113zM214 0h-152v536h152v-536z" />
    <glyph glyph-name="Iogonek" unicode="&#x12e;" horiz-adv-x="316" 
d="M196 -120q28 0 58 12v-80q-33 -16 -85 -16q-58 0 -92.5 30t-34.5 79q0 58 43 95h-8v729h162v-729h-15q-91 -15 -91 -75q0 -45 63 -45z" />
    <glyph glyph-name="iogonek" unicode="&#x12f;" horiz-adv-x="276" 
d="M79 736h119v-147h-119v147zM186 -120q28 0 58 12v-80q-33 -16 -85 -16q-58 0 -92.5 30t-34.5 79q0 58 43 95h-13v536h152v-536q-91 -15 -91 -75q0 -45 63 -45z" />
    <glyph glyph-name="Idot" unicode="&#x130;" horiz-adv-x="316" 
d="M236 782h-154v147h154v-147zM239 729v-729h-162v729h162z" />
    <glyph glyph-name="dotlessi" unicode="&#x131;" horiz-adv-x="276" 
d="M214 0h-152v536h152v-536z" />
    <glyph glyph-name="Jcircumflex" unicode="&#x134;" horiz-adv-x="418" 
d="M155 768l-72 70l140 137h87l139 -137l-72 -70l-111 118zM346 729v-507q0 -231 -234 -231q-58 0 -97 9v131q30 -5 65 -5q55 0 80 28t25 87v488h161z" />
    <glyph glyph-name="jcircumflex" unicode="&#x135;" horiz-adv-x="276" 
d="M29 575l-72 70l140 137h87l139 -137l-72 -70l-111 118zM34 -181q-49 0 -74 5v112q26 -2 27 -2q51 0 63 19q13 17 13 65v518h152v-530q0 -187 -181 -187z" />
    <glyph glyph-name="uni0136" unicode="&#x136;" horiz-adv-x="724" 
d="M711 729l-264 -316l274 -413h-195l-189 282l-98 -118v-164h-162v729h162v-339l274 339h198zM382 -182h-60v128h124v-134q0 -102 -117 -102v42q53 0 53 48v18z" />
    <glyph glyph-name="uni0137" unicode="&#x137;" horiz-adv-x="602" 
d="M427 0l-142 219l-69 -72v-147h-154v744h154v-407l186 199h188l-201 -209l212 -327h-174zM375 -182h-60v128h124v-134q0 -102 -117 -102v42q53 0 53 48v18z" />
    <glyph glyph-name="Lacute" unicode="&#x139;" horiz-adv-x="572" 
d="M429 893l-229 -128l-45 74l211 158zM535 0h-458v729h162v-585h296v-144z" />
    <glyph glyph-name="lacute" unicode="&#x13a;" horiz-adv-x="276" 
d="M368 910l-229 -128l-45 74l211 158zM214 0h-152v744h152v-744z" />
    <glyph glyph-name="uni013B" unicode="&#x13b;" horiz-adv-x="572" 
d="M535 0h-458v729h162v-585h296v-144zM252 -290v42q53 0 53 48v18h-60v128h124v-134q0 -102 -117 -102z" />
    <glyph glyph-name="uni013C" unicode="&#x13c;" horiz-adv-x="276" 
d="M214 0h-152v744h152v-744zM84 -290v42q53 0 53 48v18h-60v128h124v-134q0 -102 -117 -102z" />
    <glyph glyph-name="Lcaron" unicode="&#x13d;" horiz-adv-x="572" 
d="M537 0h-458v729h161v-585h297v-144zM335 473v48q76 0 76 65v9h-63v131h126v-135q0 -54 -38 -86t-101 -32z" />
    <glyph glyph-name="lcaron" unicode="&#x13e;" horiz-adv-x="276" 
d="M96 801l-140 139l72 69l111 -119l111 119l72 -69l-139 -139h-87zM214 0h-152v744h152v-744z" />
    <glyph glyph-name="Ldot" unicode="&#x13f;" horiz-adv-x="601" 
d="M535 0h-458v729h162v-585h296v-144zM324 428q0 37 24.5 63t59.5 26t60 -26t25 -63q0 -35 -25 -60t-60 -25t-59.5 25t-24.5 60z" />
    <glyph glyph-name="ldot" unicode="&#x140;" horiz-adv-x="483" 
d="M214 0h-152v744h152v-744zM297 380q0 37 24.5 62.5t59.5 25.5q36 0 61 -26t25 -62t-25 -61.5t-61 -25.5q-35 0 -59.5 25.5t-24.5 61.5z" />
    <glyph glyph-name="Lslash" unicode="&#x141;" horiz-adv-x="570" 
d="M237 342v-198h297v-144h-459v285l-65 -23v137l65 23v307h162v-250l160 57v-137z" />
    <glyph glyph-name="lslash" unicode="&#x142;" horiz-adv-x="309" 
d="M231 515l56 21v-137l-56 -21v-378h-152v321l-58 -22v137l58 22v286h152v-229z" />
    <glyph glyph-name="Nacute" unicode="&#x143;" horiz-adv-x="792" 
d="M628 893l-229 -128l-45 74l211 158zM239 0h-162v729h187l294 -503h6l-9 209v294h160v-729h-187l-292 499h-7l10 -201v-298z" />
    <glyph glyph-name="nacute" unicode="&#x144;" horiz-adv-x="639" 
d="M560 705l-229 -128l-45 74l211 158zM214 0h-152v536h134l18 -99h9q51 109 176 109q89 0 136.5 -59.5t47.5 -165.5v-321h-153v305q0 115 -98 115q-54 0 -86 -37t-32 -100v-283z" />
    <glyph glyph-name="uni0145" unicode="&#x145;" horiz-adv-x="792" 
d="M239 0h-162v729h187l294 -503h6l-9 209v294h160v-729h-187l-292 499h-7l10 -201v-298zM344 -290v42q53 0 53 48v18h-60v128h124v-134q0 -102 -117 -102z" />
    <glyph glyph-name="uni0146" unicode="&#x146;" horiz-adv-x="639" 
d="M214 0h-152v536h134l18 -99h9q51 109 176 109q89 0 136.5 -59.5t47.5 -165.5v-321h-153v305q0 115 -98 115q-54 0 -86 -37t-32 -100v-283zM266 -290v42q53 0 53 48v18h-60v128h124v-134q0 -102 -117 -102z" />
    <glyph glyph-name="Ncaron" unicode="&#x147;" horiz-adv-x="792" 
d="M356 784l-140 139l72 69l111 -119l111 119l72 -69l-139 -139h-87zM239 0h-162v729h187l294 -503h6l-9 209v294h160v-729h-187l-292 499h-7l10 -201v-298z" />
    <glyph glyph-name="ncaron" unicode="&#x148;" horiz-adv-x="639" 
d="M288 596l-140 139l72 69l111 -119l111 119l72 -69l-139 -139h-87zM214 0h-152v536h134l18 -99h9q51 109 176 109q89 0 136.5 -59.5t47.5 -165.5v-321h-153v305q0 115 -98 115q-54 0 -86 -37t-32 -100v-283z" />
    <glyph glyph-name="Eng" unicode="&#x14a;" horiz-adv-x="792" 
d="M555 435v294h160v-745q0 -77 -46.5 -117t-131.5 -40q-33 0 -76 8v94q22 -2 27 -2q67 0 67 63v10h-27l-292 499h-7l10 -201v-298h-162v729h187l294 -503h6z" />
    <glyph glyph-name="eng" unicode="&#x14b;" horiz-adv-x="639" 
d="M399 546q89 0 136.5 -59.5t47.5 -165.5v-337q0 -79 -47.5 -120t-130.5 -41q-49 0 -77 6v112q27 -3 31 -3q44 0 57.5 16t13.5 58v293q0 115 -98 115q-54 0 -86 -37t-32 -100v-283h-152v536h134l18 -99h9q51 109 176 109z" />
    <glyph glyph-name="Omacron" unicode="&#x14c;" horiz-adv-x="777" 
d="M567 782h-358v113h358v-113zM34 365q0 174 96 273q96 100 258 100q166 0 261 -102q94 -101 94 -271q0 -176 -97 -276q-96 -99 -258 -99q-166 0 -260 102q-94 101 -94 273zM205 365q0 -109 49 -171t134 -62q87 0 136 63t49 170t-50 169.5t-135 62.5t-134 -63t-49 -169z
" />
    <glyph glyph-name="omacron" unicode="&#x14d;" horiz-adv-x="595" 
d="M477 593h-358v113h358v-113zM298 546q121 0 194 -78q74 -77 74 -201q0 -123 -74 -200q-73 -76 -194 -76q-122 0 -195 76q-74 77 -74 201t74 201t195 77zM184 268q0 -71 30.5 -111.5t82.5 -40.5q53 0 83 41.5t30 111.5t-30 110.5t-84 40.5q-52 0 -82 -41.5t-30 -110.5z
" />
    <glyph glyph-name="Ohungarumlaut" unicode="&#x150;" horiz-adv-x="777" 
d="M490 897l-222 -128l-46 70l205 160zM735 897l-223 -128l-45 70l203 160zM34 365q0 174 96 273q96 100 258 100q166 0 261 -102q94 -101 94 -271q0 -176 -97 -276q-96 -99 -258 -99q-166 0 -260 102q-94 101 -94 273zM205 365q0 -109 49 -171t134 -62q87 0 136 63t49 170
t-50 169.5t-135 62.5t-134 -63t-49 -169z" />
    <glyph glyph-name="ohungarumlaut" unicode="&#x151;" horiz-adv-x="595" 
d="M399 709l-222 -128l-46 70l205 160zM644 709l-223 -128l-45 70l203 160zM298 546q121 0 194 -78q74 -77 74 -201q0 -123 -74 -200q-73 -76 -194 -76q-122 0 -195 76q-74 77 -74 201t74 201t195 77zM184 268q0 -71 30.5 -111.5t82.5 -40.5q53 0 83 41.5t30 111.5
t-30 110.5t-84 40.5q-52 0 -82 -41.5t-30 -110.5z" />
    <glyph glyph-name="OE" unicode="&#x152;" horiz-adv-x="947" 
d="M390 728h509v-138h-318v-162h225v-130h-225v-158h318v-139h-509q-159 0 -258 101q-98 101 -98 263q0 161 98 262q99 101 258 101zM205 365q0 -99 50 -163q51 -62 135 -62h31v448h-31q-83 0 -134 -62t-51 -161z" />
    <glyph glyph-name="oe" unicode="&#x153;" horiz-adv-x="978" 
d="M798 170h151q-14 -82 -84 -131q-68 -49 -169 -49q-126 0 -199 82q-75 -81 -199 -81q-122 0 -195 76q-74 77 -74 201t74 201t195 77q126 0 199 -82q73 82 197 82q116 0 183 -67q68 -66 68 -176q0 -43 -6 -70h-357q-2 -60 28 -93.5t84 -33.5q39 0 67.5 17.5t36.5 46.5z
M689 431q-46 0 -75 -27t-31 -71h210q-1 46 -28.5 72t-75.5 26zM297 116q53 0 83 41.5t30 111.5t-30 110.5t-84 40.5q-52 0 -82 -41.5t-30 -110.5q0 -71 30.5 -111.5t82.5 -40.5z" />
    <glyph glyph-name="Racute" unicode="&#x154;" horiz-adv-x="731" 
d="M606 893l-229 -128l-45 74l211 158zM239 0h-162v729h361q111 0 171.5 -57.5t60.5 -159.5q0 -60 -29.5 -106.5t-81.5 -73.5v-8q100 -27 100 -144v-93q0 -59 12 -87h-166q-11 24 -11 89v67q0 50 -22.5 73t-77.5 23h-155v-252zM239 590v-200h145q54 0 84 27t30 75
q0 98 -109 98h-150z" />
    <glyph glyph-name="racute" unicode="&#x155;" horiz-adv-x="394" 
d="M449 705l-229 -128l-45 74l211 158zM214 0h-152v536h133l19 -102h6q40 112 166 112v-133q-86 1 -129 -46.5t-43 -137.5v-229z" />
    <glyph glyph-name="uni0156" unicode="&#x156;" horiz-adv-x="731" 
d="M239 0h-162v729h361q111 0 171.5 -57.5t60.5 -159.5q0 -60 -29.5 -106.5t-81.5 -73.5v-8q100 -27 100 -144v-93q0 -59 12 -87h-166q-11 24 -11 89v67q0 50 -22.5 73t-77.5 23h-155v-252zM239 590v-200h145q54 0 84 27t30 75q0 98 -109 98h-150zM325 -290v42q53 0 53 48
v18h-60v128h124v-134q0 -102 -117 -102z" />
    <glyph glyph-name="uni0157" unicode="&#x157;" horiz-adv-x="394" 
d="M214 0h-152v536h133l19 -102h6q40 112 166 112v-133q-86 1 -129 -46.5t-43 -137.5v-229zM83 -290v42q53 0 53 48v18h-60v128h124v-134q0 -102 -117 -102z" />
    <glyph glyph-name="Rcaron" unicode="&#x158;" horiz-adv-x="731" 
d="M334 784l-140 139l72 69l111 -119l111 119l72 -69l-139 -139h-87zM239 0h-162v729h361q111 0 171.5 -57.5t60.5 -159.5q0 -60 -29.5 -106.5t-81.5 -73.5v-8q100 -27 100 -144v-93q0 -59 12 -87h-166q-11 24 -11 89v67q0 50 -22.5 73t-77.5 23h-155v-252zM239 590v-200
h145q54 0 84 27t30 75q0 98 -109 98h-150z" />
    <glyph glyph-name="rcaron" unicode="&#x159;" horiz-adv-x="394" 
d="M178 596l-140 139l72 69l111 -119l111 119l72 -69l-139 -139h-87zM214 0h-152v536h133l19 -102h6q40 112 166 112v-133q-86 1 -129 -46.5t-43 -137.5v-229z" />
    <glyph glyph-name="Sacute" unicode="&#x15a;" horiz-adv-x="674" 
d="M559 893l-229 -128l-45 74l211 158zM30 229h167q2 -53 39 -82t104 -29q58 0 91 24t33 64q0 35 -23 52q-8 8 -24 14q-16 7 -44 13l-115 24q-21 4 -49 11q-15 4 -54 20q-36 17 -56 36q-55 53 -55 137q0 101 77 163q79 62 206 62q128 0 205 -59t79 -157h-167q-4 44 -36 67
t-87 23q-51 0 -79 -19.5t-28 -55.5q0 -53 76 -72q14 -3 19 -4q1 0 4 -1q2 0 3 -1l118 -23q201 -40 201 -211q0 -111 -81 -173q-82 -62 -218 -62q-140 0 -223 65q-81 65 -83 174z" />
    <glyph glyph-name="sacute" unicode="&#x15b;" horiz-adv-x="533" 
d="M499 705l-229 -128l-45 74l211 158zM30 168h150q1 -34 24.5 -52t64.5 -18q38 0 58 14.5t20 39.5q0 29 -20 38q-12 6 -36 12l-95 16q-157 28 -157 155q0 81 60 127t163 46q102 0 162.5 -45.5t62.5 -123.5h-150q-1 61 -77 61q-33 0 -51 -13.5t-18 -37.5q0 -19 13 -31
q16 -14 56 -20l92 -15q151 -24 151 -155q0 -83 -63.5 -129.5t-171.5 -46.5q-111 0 -174.5 48.5t-63.5 129.5z" />
    <glyph glyph-name="Scedilla" unicode="&#x15e;" horiz-adv-x="674" 
d="M635 225q0 -105 -73.5 -167t-201.5 -68l-18 -31q34 1 65 -19q31 -21 31 -65q0 -38 -22 -63.5t-54 -34t-68 -5t-65 19.5v72q39 -27 77 -21q38 5 38 42q0 25 -25 33.5t-57 -5.5v36l26 43q-120 11 -188.5 74.5t-69.5 162.5h167q2 -53 39 -82t104 -29q58 0 91 24t33 64
q0 35 -23 52q-8 8 -24 14q-16 7 -44 13l-115 24q-21 4 -49 11q-15 4 -54 20q-36 17 -56 36q-55 53 -55 137q0 101 77 163q79 62 206 62q128 0 205 -59t79 -157h-167q-4 44 -36 67t-87 23q-51 0 -79 -19.5t-28 -55.5q0 -53 76 -72q14 -3 19 -4q1 0 4 -1q2 0 3 -1l118 -23
q201 -40 201 -211z" />
    <glyph glyph-name="scedilla" unicode="&#x15f;" horiz-adv-x="533" 
d="M503 166q0 -77 -57.5 -124t-156.5 -52l-17 -30q34 1 65 -19q31 -21 31 -65q0 -38 -22 -63.5t-54 -34t-68 -5t-65 19.5v72q39 -27 77 -21q38 5 38 42q0 25 -25 33.5t-57 -5.5v36l25 43q-89 11 -138 58t-49 117h150q1 -34 24.5 -52t64.5 -18q38 0 58 14.5t20 39.5
q0 29 -20 38q-12 6 -36 12l-95 16q-157 28 -157 155q0 81 60 127t163 46q102 0 162.5 -45.5t62.5 -123.5h-150q-1 61 -77 61q-33 0 -51 -13.5t-18 -37.5q0 -19 13 -31q16 -14 56 -20l92 -15q151 -24 151 -155z" />
    <glyph glyph-name="Scaron" unicode="&#x160;" horiz-adv-x="674" 
d="M287 784l-140 139l72 69l111 -119l111 119l72 -69l-139 -139h-87zM30 229h167q2 -53 39 -82t104 -29q58 0 91 24t33 64q0 35 -23 52q-8 8 -24 14q-16 7 -44 13l-115 24q-21 4 -49 11q-15 4 -54 20q-36 17 -56 36q-55 53 -55 137q0 101 77 163q79 62 206 62q128 0 205 -59
t79 -157h-167q-4 44 -36 67t-87 23q-51 0 -79 -19.5t-28 -55.5q0 -53 76 -72q14 -3 19 -4q1 0 4 -1q2 0 3 -1l118 -23q201 -40 201 -211q0 -111 -81 -173q-82 -62 -218 -62q-140 0 -223 65q-81 65 -83 174z" />
    <glyph glyph-name="scaron" unicode="&#x161;" horiz-adv-x="533" 
d="M227 596l-140 139l72 69l111 -119l111 119l72 -69l-139 -139h-87zM30 168h150q1 -34 24.5 -52t64.5 -18q38 0 58 14.5t20 39.5q0 29 -20 38q-12 6 -36 12l-95 16q-157 28 -157 155q0 81 60 127t163 46q102 0 162.5 -45.5t62.5 -123.5h-150q-1 61 -77 61q-33 0 -51 -13.5
t-18 -37.5q0 -19 13 -31q16 -14 56 -20l92 -15q151 -24 151 -155q0 -83 -63.5 -129.5t-171.5 -46.5q-111 0 -174.5 48.5t-63.5 129.5z" />
    <glyph glyph-name="uni0162" unicode="&#x162;" horiz-adv-x="574" 
d="M366 588v-588h-57l-23 -41q34 1 65 -19q31 -21 31 -65q0 -38 -22 -63.5t-54 -34t-68 -5t-65 19.5v72q39 -27 77 -21q38 5 38 42q0 25 -25 33.5t-57 -5.5v36l30 51h-31v588h-199v141h561v-141h-201z" />
    <glyph glyph-name="uni0163" unicode="&#x163;" horiz-adv-x="388" 
d="M361 536v-123h-115v-229q0 -36 15 -53t49 -17q31 0 51 5v-119q-48 -9 -97 -9h-2l-15 -26q34 1 65 -19q31 -21 31 -65q0 -38 -22 -63.5t-54 -34t-68 -5t-65 19.5v72q39 -27 77 -21q38 5 38 42q0 25 -25.5 33.5t-56.5 -5.5v36l26 45q-100 28 -100 166v247h-86v123h86v132
l153 59v-191h115z" />
    <glyph glyph-name="Tcaron" unicode="&#x164;" horiz-adv-x="574" 
d="M470 923l-139 -139h-87l-140 139l72 69l111 -119l111 119zM6 729h561v-141h-201v-588h-161v588h-199v141z" />
    <glyph glyph-name="tcaron" unicode="&#x165;" horiz-adv-x="388" 
d="M131 748l-140 139l72 69l111 -119l111 119l72 -69l-139 -139h-87zM7 413v123h86v132l153 59v-191h115v-123h-115v-229q0 -36 15 -53t49 -17q31 0 51 5v-119q-48 -9 -97 -9q-106 0 -142 56q-29 45 -29 119v247h-86z" />
    <glyph glyph-name="Tbar" unicode="&#x166;" horiz-adv-x="574" 
d="M567 729v-141h-201v-154h145v-130h-145v-304h-161v304h-133v130h133v154h-199v141h561z" />
    <glyph glyph-name="tbar" unicode="&#x167;" horiz-adv-x="388" 
d="M364 346v-126h-118v-36q0 -36 15 -53t49 -17q31 0 51 5v-119q-48 -9 -97 -9q-106 0 -142 56q-29 45 -29 119v54h-86v126h86v67h-86v123h86v132l153 59v-191h115v-123h-115v-67h118z" />
    <glyph glyph-name="Umacron" unicode="&#x16a;" horiz-adv-x="772" 
d="M564 782h-358v113h358v-113zM71 279v450h161v-440q0 -73 40.5 -114t113.5 -41t113.5 40.5t40.5 114.5v440h161v-450q0 -135 -86 -212t-230 -77q-153 0 -233.5 77t-80.5 212z" />
    <glyph glyph-name="umacron" unicode="&#x16b;" horiz-adv-x="627" 
d="M493 593h-358v113h358v-113zM419 536h152v-536h-133l-20 98h-9q-49 -108 -174 -108q-87 0 -133 55.5t-46 155.5v335h153v-311q0 -110 94 -110q53 0 84.5 37.5t31.5 100.5v283z" />
    <glyph glyph-name="Uring" unicode="&#x16e;" horiz-adv-x="772" 
d="M386 690q-57 0 -92.5 34t-35.5 89t35.5 89t92.5 34q56 0 92 -34t36 -89t-36 -89t-92 -34zM341 813q-3 -30 21 -42.5t48 0t22 42.5q2 31 -22 44t-48 0t-21 -44zM71 279v450h161v-440q0 -73 40.5 -114t113.5 -41t113.5 40.5t40.5 114.5v440h161v-450q0 -135 -86 -212
t-230 -77q-153 0 -233.5 77t-80.5 212z" />
    <glyph glyph-name="uring" unicode="&#x16f;" horiz-adv-x="627" 
d="M314 501q-57 0 -92.5 34t-35.5 89t35.5 89t92.5 34q56 0 92 -34t36 -89t-36 -89t-92 -34zM347 588q13 14 13 36t-13 36t-33 14t-33 -14q-12 -14 -12 -36t12 -36q13 -13 33 -13t33 13zM419 536h152v-536h-133l-20 98h-9q-49 -108 -174 -108q-87 0 -133 55.5t-46 155.5v335
h153v-311q0 -110 94 -110q53 0 84.5 37.5t31.5 100.5v283z" />
    <glyph glyph-name="Uhungarumlaut" unicode="&#x170;" horiz-adv-x="772" 
d="M487 897l-222 -128l-46 70l205 160zM732 897l-223 -128l-45 70l203 160zM71 279v450h161v-440q0 -73 40.5 -114t113.5 -41t113.5 40.5t40.5 114.5v440h161v-450q0 -135 -86 -212t-230 -77q-153 0 -233.5 77t-80.5 212z" />
    <glyph glyph-name="uhungarumlaut" unicode="&#x171;" horiz-adv-x="627" 
d="M416 709l-222 -128l-46 70l205 160zM661 709l-223 -128l-45 70l203 160zM419 536h152v-536h-133l-20 98h-9q-49 -108 -174 -108q-87 0 -133 55.5t-46 155.5v335h153v-311q0 -110 94 -110q53 0 84.5 37.5t31.5 100.5v283z" />
    <glyph glyph-name="Uogonek" unicode="&#x172;" horiz-adv-x="772" 
d="M540 289v440h161v-450q0 -116 -65 -190.5t-179 -92.5q-70 -19 -70 -71q0 -45 63 -45q28 0 58 12v-80q-33 -16 -85 -16q-58 0 -92.5 30t-34.5 79q0 50 35 88q-126 13 -193 88t-67 198v450h161v-440q0 -73 40.5 -114t113.5 -41t113.5 40.5t40.5 114.5z" />
    <glyph glyph-name="uogonek" unicode="&#x173;" horiz-adv-x="627" 
d="M543 -120q28 0 58 12v-80q-33 -16 -85 -16q-58 0 -92.5 30t-34.5 79q0 61 48 99l-19 94h-9q-49 -108 -174 -108q-87 0 -133 55.5t-46 155.5v335h153v-311q0 -110 94 -110q53 0 84.5 37.5t31.5 100.5v283h152v-536q-91 -15 -91 -75q0 -45 63 -45z" />
    <glyph glyph-name="Wcircumflex" unicode="&#x174;" horiz-adv-x="987" 
d="M392 768l-72 70l140 137h87l139 -137l-72 -70l-111 118zM156 0l-149 729h177l64 -368l27 -185h8l112 553h200l114 -554h7l25 184l62 370h177l-148 -729h-221l-113 517h-7l-114 -517h-221z" />
    <glyph glyph-name="wcircumflex" unicode="&#x175;" horiz-adv-x="794" 
d="M509 580l-111 118l-111 -118l-72 70l140 137h87l139 -137zM588 311l50 225h150l-137 -536h-187l-45 227l-22 116h-6l-20 -115l-45 -228h-184l-137 536h151l47 -222l31 -162h9l70 384h169l69 -385h7z" />
    <glyph glyph-name="Ycircumflex" unicode="&#x176;" horiz-adv-x="707" 
d="M242 768l-72 70l140 137h87l139 -137l-72 -70l-111 118zM272 279l-271 450h192l78 -151l78 -155h8l158 306h191l-272 -450v-279h-162v279z" />
    <glyph glyph-name="ycircumflex" unicode="&#x177;" horiz-adv-x="523" 
d="M146 581l-72 70l140 137h87l139 -137l-72 -70l-111 118zM189 34l-199 502h164l63 -205l44 -152h7l42 152l60 205h159l-190 -546q-30 -86 -89.5 -126.5t-156.5 -40.5q-38 0 -68 6v123q23 -4 55 -4q83 0 101 62z" />
    <glyph glyph-name="Ydieresis" unicode="&#x178;" horiz-adv-x="707" 
d="M307 782h-119v147h119v-147zM517 782h-119v147h119v-147zM272 279l-271 450h192l78 -151l78 -155h8l158 306h191l-272 -450v-279h-162v279z" />
    <glyph glyph-name="Zacute" unicode="&#x179;" horiz-adv-x="586" 
d="M436 997l63 -104l-229 -128l-45 74zM19 729h545v-131l-344 -459h339v-139h-540v132l343 457h-343v140z" />
    <glyph glyph-name="zacute" unicode="&#x17a;" horiz-adv-x="492" 
d="M410 809l63 -104l-229 -128l-45 74zM454 536v-109l-233 -304h237v-123h-422v110l233 303h-235v123h420z" />
    <glyph glyph-name="Zdotaccent" unicode="&#x17b;" horiz-adv-x="586" 
d="M211 929h119v-147h-119v147zM19 729h545v-131l-344 -459h339v-139h-540v132l343 457h-343v140z" />
    <glyph glyph-name="zdotaccent" unicode="&#x17c;" horiz-adv-x="492" 
d="M185 740h119v-147h-119v147zM454 427l-233 -304h237v-123h-422v110l233 303h-235v123h420v-109z" />
    <glyph glyph-name="Zcaron" unicode="&#x17d;" horiz-adv-x="586" 
d="M454 923l-139 -139h-87l-140 139l72 69l111 -119l111 119zM19 729h545v-131l-344 -459h339v-139h-540v132l343 457h-343v140z" />
    <glyph glyph-name="zcaron" unicode="&#x17e;" horiz-adv-x="492" 
d="M427 735l-139 -139h-87l-140 139l72 69l111 -119l111 119zM454 427l-233 -304h237v-123h-422v110l233 303h-235v123h420v-109z" />
    <glyph glyph-name="uni018F" unicode="&#x18f;" horiz-adv-x="717" 
d="M358 739q153 0 238.5 -97t85.5 -273q0 -179 -87 -279t-241 -100q-148 0 -234 95q-84 95 -84 257q0 41 5 63h470q0 95 -41.5 143.5t-118.5 48.5q-57 0 -97 -27t-53 -74h-162q22 114 108 179q85 64 211 64zM354 128q66 0 107 40.5t49 113.5h-301q7 -154 145 -154z" />
    <glyph glyph-name="florin" unicode="&#x192;" horiz-adv-x="600" 
d="M574 606h-152l-17 -124l-4 -23h107v-123h-123l-31 -222l-16 -121q-6 -51 -31 -86q-31 -43 -116 -43h-157v123h150l19 127l30 222h-100v123h117l3 23l17 118q9 64 41.5 96.5t104.5 32.5h158v-123z" />
    <glyph glyph-name="AEacute" unicode="&#x1fc;" horiz-adv-x="988" 
d="M729 997l63 -104l-229 -128l-45 74zM939 729v-139h-347v-162h293v-130h-293v-159h347v-139h-508v165h-216l-49 -165h-167l231 729h709zM253 290h178v300h-89z" />
    <glyph glyph-name="Oslashacute" unicode="&#x1fe;" horiz-adv-x="821" 
d="M609 997l63 -104l-229 -128l-45 74zM728 671l69 -97l-68 -49q27 -71 27 -160q0 -176 -97 -276q-96 -99 -258 -99q-170 0 -264 106l-54 -39l-62 101l55 40q-29 76 -29 167q0 174 96 273q96 100 258 100q173 0 268 -110zM217 365q0 -26 5 -61l315 228q-50 65 -136 65
t-135 -63t-49 -169zM586 365q0 34 -4 54l-313 -228q50 -59 132 -59q86 0 135.5 63t49.5 170z" />
    <glyph glyph-name="oslashacute" unicode="&#x1ff;" horiz-adv-x="631" 
d="M479 809l63 -104l-229 -128l-45 74zM562 510l55 -81l-58 -42q22 -56 22 -120q0 -123 -74 -200q-73 -76 -194 -76q-120 0 -193 76l-52 -38l-54 80l53 39q-22 54 -22 120q0 124 74 201t194 77q121 0 194 -76zM200 268q0 -17 1 -22l190 139q-30 35 -79 35q-53 0 -82.5 -41
t-29.5 -111zM426 269q0 16 -1 20l-190 -138q29 -35 78 -35q53 0 83 41.5t30 111.5z" />
    <glyph glyph-name="uni0218" unicode="&#x218;" horiz-adv-x="674" 
d="M30 229h167q2 -53 39 -82t104 -29q58 0 91 24t33 64q0 35 -23 52q-8 8 -24 14q-16 7 -44 13l-115 24q-21 4 -49 11q-15 4 -54 20q-36 17 -56 36q-55 53 -55 137q0 101 77 163q79 62 206 62q128 0 205 -59t79 -157h-167q-4 44 -36 67t-87 23q-51 0 -79 -19.5t-28 -55.5
q0 -53 76 -72q14 -3 19 -4q1 0 4 -1q2 0 3 -1l118 -23q201 -40 201 -211q0 -111 -81 -173q-82 -62 -218 -62q-140 0 -223 65q-81 65 -83 174zM286 -290v42q53 0 53 48v18h-60v128h124v-134q0 -102 -117 -102z" />
    <glyph glyph-name="uni0219" unicode="&#x219;" horiz-adv-x="533" 
d="M30 168h150q1 -34 24.5 -52t64.5 -18q38 0 58 14.5t20 39.5q0 29 -20 38q-12 6 -36 12l-95 16q-157 28 -157 155q0 81 60 127t163 46q102 0 162.5 -45.5t62.5 -123.5h-150q-1 61 -77 61q-33 0 -51 -13.5t-18 -37.5q0 -19 13 -31q16 -14 56 -20l92 -15q151 -24 151 -155
q0 -83 -63.5 -129.5t-171.5 -46.5q-111 0 -174.5 48.5t-63.5 129.5zM216 -288v42q53 0 53 48v18h-60v128h124v-134q0 -102 -117 -102z" />
    <glyph glyph-name="uni021A" unicode="&#x21a;" horiz-adv-x="574" 
d="M6 729h561v-141h-201v-588h-161v588h-199v141zM283 -182h-60v128h124v-134q0 -102 -117 -102v42q53 0 53 48v18z" />
    <glyph glyph-name="uni021B" unicode="&#x21b;" horiz-adv-x="388" 
d="M7 413v123h86v132l153 59v-191h115v-123h-115v-229q0 -36 15 -53t49 -17q31 0 51 5v-119q-48 -9 -97 -9q-106 0 -142 56q-29 45 -29 119v247h-86zM191 -284v42q53 0 53 48v18h-60v128h124v-134q0 -102 -117 -102z" />
    <glyph glyph-name="uni0237" unicode="&#x237;" horiz-adv-x="276" 
d="M34 -181q-49 0 -74 5v112q26 -2 27 -2q51 0 63 19q13 17 13 65v518h152v-530q0 -187 -181 -187z" />
    <glyph glyph-name="circumflex" unicode="&#x2c6;" horiz-adv-x="377" 
d="M78 716l-72 70l140 137h87l139 -137l-72 -70l-111 118z" />
    <glyph glyph-name="caron" unicode="&#x2c7;" horiz-adv-x="377" 
d="M146 731l-140 139l72 69l111 -119l111 119l72 -69l-139 -139h-87z" />
    <glyph glyph-name="breve" unicode="&#x2d8;" horiz-adv-x="351" 
d="M245 885h94q0 -73 -44.5 -117.5t-119.5 -44.5q-74 0 -118 45t-44 117h93q0 -37 18.5 -57t50.5 -20q33 0 51.5 20.5t18.5 56.5z" />
    <glyph glyph-name="dotaccent" unicode="&#x2d9;" horiz-adv-x="221" 
d="M170 733h-119v147h119v-147z" />
    <glyph glyph-name="ring" unicode="&#x2da;" horiz-adv-x="348" 
d="M178 671q-57 0 -92.5 34t-35.5 89t35.5 89t92.5 34q56 0 92 -34t36 -89t-36 -89t-92 -34zM211 758q13 14 13 36t-13 36t-33 14t-33 -14q-12 -14 -12 -36t12 -36q13 -13 33 -13t33 13z" />
    <glyph glyph-name="ogonek" unicode="&#x2db;" horiz-adv-x="405" 
d="M84 -95q0 57 41 93.5t110 45.5l31 -44q-91 -15 -91 -75q0 -45 63 -45q28 0 58 12v-80q-33 -16 -85 -16q-58 0 -92.5 30t-34.5 79z" />
    <glyph glyph-name="tilde" unicode="&#x2dc;" horiz-adv-x="350" 
d="M238 723q-31 0 -68 19q-38 20 -59 20q-29 0 -60 -36l-60 41q41 101 121 101q28 0 65 -19t61 -19q35 0 58 38l63 -40q-40 -105 -121 -105z" />
    <glyph glyph-name="hungarumlaut" unicode="&#x2dd;" horiz-adv-x="569" 
d="M302 844l-222 -128l-46 70l205 160zM547 844l-223 -128l-45 70l203 160z" />
    <glyph glyph-name="gravecomb" unicode="&#x300;" 
d="M-85 789l-45 -73l-229 128l63 103z" />
    <glyph glyph-name="acutecomb" unicode="&#x301;" 
d="M-57 840l-229 -128l-45 74l211 158z" />
    <glyph glyph-name="uni0302" unicode="&#x302;" 
d="M-299 716l-72 70l140 137h87l139 -137l-72 -70l-111 118z" />
    <glyph glyph-name="tildecomb" unicode="&#x303;" 
d="M-112 723q-31 0 -68 19q-38 20 -59 20q-29 0 -60 -36l-60 41q41 101 121 101q29 0 66 -19t60 -19q35 0 58 38l63 -40q-40 -105 -121 -105z" />
    <glyph glyph-name="uni0304" unicode="&#x304;" 
d="M1 730h-358v113h358v-113z" />
    <glyph glyph-name="uni0306" unicode="&#x306;" 
d="M-106 885h94q0 -73 -44.5 -117.5t-119.5 -44.5q-74 0 -118 45t-44 117h93q0 -37 18.5 -57t50.5 -20q33 0 51.5 20.5t18.5 56.5z" />
    <glyph glyph-name="uni0307" unicode="&#x307;" 
d="M-51 733h-119v147h119v-147z" />
    <glyph glyph-name="uni0308" unicode="&#x308;" 
d="M-258 733h-119v147h119v-147zM-48 733h-119v147h119v-147z" />
    <glyph glyph-name="uni030A" unicode="&#x30a;" 
d="M-170 671q-57 0 -92.5 34t-35.5 89t35.5 89t92.5 34q56 0 92 -34t36 -89t-36 -89t-92 -34zM-137 758q13 14 13 36t-13 36t-33 14t-32 -14q-13 -14 -13 -36t13 -36q12 -13 32 -13t33 13z" />
    <glyph glyph-name="uni030B" unicode="&#x30b;" 
d="M-267 844l-222 -128l-46 70l205 160zM-22 844l-223 -128l-45 70l203 160z" />
    <glyph glyph-name="uni030C" unicode="&#x30c;" 
d="M-231 731l-140 139l72 69l111 -119l111 119l72 -69l-139 -139h-87z" />
    <glyph glyph-name="uni0312" unicode="&#x312;" 
d="M-55 984v-43q-52 0 -52 -48v-30h59v-129h-123v147q0 103 116 103z" />
    <glyph glyph-name="uni0326" unicode="&#x326;" 
d="M-177 -276v42q53 0 53 48v18h-60v128h124v-134q0 -102 -117 -102z" />
    <glyph glyph-name="uni0327" unicode="&#x327;" 
d="M-208 11l-29 -52q34 1 65 -19q31 -21 31 -65q0 -38 -22 -63.5t-54 -34t-68 -5t-65 19.5v72q39 -27 77 -21q38 5 38 42q0 25 -25.5 33.5t-56.5 -5.5v36l51 86h58v-24z" />
    <glyph glyph-name="uni0328" unicode="&#x328;" 
d="M-321 -95q0 57 41 93.5t110 45.5l31 -44q-91 -15 -91 -75q0 -45 63 -45q28 0 58 12v-80q-33 -16 -85 -16q-58 0 -92.5 30t-34.5 79z" />
    <glyph glyph-name="uni0335" unicode="&#x335;" 
d="M-76 297h-403v113h403v-113z" />
    <glyph glyph-name="uni0336" unicode="&#x336;" 
 />
    <glyph glyph-name="uni0337" unicode="&#x337;" 
d="M-279 0h-83l274 729h83z" />
    <glyph glyph-name="uni0338" unicode="&#x338;" 
d="M-279 0h-83l274 729h83z" />
    <glyph glyph-name="uni03BC" unicode="&#x3bc;" horiz-adv-x="609" 
d="M197 -173h-137l1 709h152v-336q0 -44 23.5 -69t63.5 -25q45 0 70.5 29t25.5 78v323h153v-536h-145l3 65h-9q-20 -75 -113 -75q-56 0 -80 32h-8v-195z" />
    <glyph glyph-name="pi" unicode="&#x3c0;" horiz-adv-x="618" 
d="M601 109v-104q-49 -11 -77 -11q-94 0 -126 51q-25 43 -25 104v283h-126v-432h-150v432h-81v104h586v-104h-81v-274q0 -52 49 -52q19 0 31 3z" />
    <glyph glyph-name="omega" unicode="&#x3c9;" horiz-adv-x="777" 
d="M686 0h-266v243q68 13 109 64.5t41 123.5q0 79 -50.5 128.5t-131.5 49.5q-82 0 -132 -50t-50 -130q0 -72 41 -122t110 -64v-243h-267v121h143v38q-84 32 -133 105q-50 76 -50 168q0 139 90 223t248 84q153 0 247 -83q93 -82 93 -224q0 -93 -51 -168q-51 -73 -134 -105
v-38h143v-121z" />
    <glyph glyph-name="Wgrave" unicode="&#x1e80;" horiz-adv-x="987" 
d="M548 842l-45 -73l-229 128l63 103zM156 0l-149 729h177l64 -368l27 -185h8l112 553h200l114 -554h7l25 184l62 370h177l-148 -729h-221l-113 517h-7l-114 -517h-221z" />
    <glyph glyph-name="wgrave" unicode="&#x1e81;" horiz-adv-x="794" 
d="M232 812l211 -158l-45 -73l-229 128zM588 311l50 225h150l-137 -536h-187l-45 227l-22 116h-6l-20 -115l-45 -228h-184l-137 536h151l47 -222l31 -162h9l70 384h169l69 -385h7z" />
    <glyph glyph-name="Wacute" unicode="&#x1e82;" horiz-adv-x="987" 
d="M731 893l-229 -128l-45 74l211 158zM156 0l-149 729h177l64 -368l27 -185h8l112 553h200l114 -554h7l25 184l62 370h177l-148 -729h-221l-113 517h-7l-114 -517h-221z" />
    <glyph glyph-name="wacute" unicode="&#x1e83;" horiz-adv-x="794" 
d="M563 809l63 -104l-229 -128l-45 74zM588 311l50 225h150l-137 -536h-187l-45 227l-22 116h-6l-20 -115l-45 -228h-184l-137 536h151l47 -222l31 -162h9l70 384h169l69 -385h7z" />
    <glyph glyph-name="Wdieresis" unicode="&#x1e84;" horiz-adv-x="987" 
d="M456 782h-119v147h119v-147zM666 782h-119v147h119v-147zM156 0l-149 729h177l64 -368l27 -185h8l112 553h200l114 -554h7l25 184l62 370h177l-148 -729h-221l-113 517h-7l-114 -517h-221z" />
    <glyph glyph-name="wdieresis" unicode="&#x1e85;" horiz-adv-x="794" 
d="M232 740h119v-147h-119v147zM442 740h119v-147h-119v147zM588 311l50 225h150l-137 -536h-187l-45 227l-22 116h-6l-20 -115l-45 -228h-184l-137 536h151l47 -222l31 -162h9l70 384h169l69 -385h7z" />
    <glyph glyph-name="Ygrave" unicode="&#x1ef2;" horiz-adv-x="707" 
d="M399 842l-45 -73l-229 128l63 103zM272 279l-271 450h192l78 -151l78 -155h8l158 306h191l-272 -450v-279h-162v279z" />
    <glyph glyph-name="ygrave" unicode="&#x1ef3;" horiz-adv-x="523" 
d="M302 655l-45 -73l-229 128l63 103zM189 34l-199 502h164l63 -205l44 -152h7l42 152l60 205h159l-190 -546q-30 -86 -89.5 -126.5t-156.5 -40.5q-38 0 -68 6v123q23 -4 55 -4q83 0 101 62z" />
    <glyph glyph-name="endash" unicode="&#x2013;" horiz-adv-x="650" 
d="M593 258h-537v84h537v-84z" />
    <glyph glyph-name="emdash" unicode="&#x2014;" horiz-adv-x="846" 
d="M789 258h-733v84h733v-84z" />
    <glyph glyph-name="quoteleft" unicode="&#x2018;" horiz-adv-x="231" 
d="M195 733v-56q-89 0 -89 -77v-10h73v-154h-148v159q0 65 44 101.5t120 36.5z" />
    <glyph glyph-name="quoteright" unicode="&#x2019;" horiz-adv-x="230" 
d="M37 439v56q88 0 88 76v11h-73v154h148v-159q0 -65 -44 -101.5t-119 -36.5z" />
    <glyph glyph-name="quotesinglbase" unicode="&#x201a;" horiz-adv-x="231" 
d="M36 -143v55q89 0 89 77v11h-74v154h148v-159q0 -65 -43.5 -101.5t-119.5 -36.5z" />
    <glyph glyph-name="quotedblleft" unicode="&#x201c;" horiz-adv-x="470" 
d="M197 733v-56q-89 0 -89 -77v-10h73v-154h-147v159q0 65 43.5 101.5t119.5 36.5zM433 733v-56q-89 0 -89 -77v-10h74v-154h-148v159q0 65 43.5 101.5t119.5 36.5z" />
    <glyph glyph-name="quotedblright" unicode="&#x201d;" horiz-adv-x="462" 
d="M41 439v56q89 0 89 76v11h-74v154h148v-159q0 -65 -43.5 -101.5t-119.5 -36.5zM271 439v56q88 0 88 76v11h-73v154h148v-159q0 -65 -44 -101.5t-119 -36.5z" />
    <glyph glyph-name="quotedblbase" unicode="&#x201e;" horiz-adv-x="446" 
d="M38 -143v55q88 0 88 77v11h-73v154h148v-159q0 -65 -44 -101.5t-119 -36.5zM253 -143v55q89 0 89 77v11h-74v154h148v-159q0 -65 -43.5 -101.5t-119.5 -36.5z" />
    <glyph glyph-name="dagger" unicode="&#x2020;" horiz-adv-x="427" 
d="M265 728v-341h139v-93h-139v-139h-104v139h-139v93h139v341h104z" />
    <glyph glyph-name="daggerdbl" unicode="&#x2021;" horiz-adv-x="427" 
d="M404 593v-92h-139v-114h139v-93h-139v-139h-104v139h-139v93h139v114h-138v92h138v135h104v-135h139z" />
    <glyph glyph-name="bullet" unicode="&#x2022;" horiz-adv-x="393" 
d="M197 431q63 0 105 -45q42 -43 42 -109q0 -65 -42 -108t-105 -43q-65 0 -107 42q-41 44 -41 109q0 67 42 110q42 44 106 44z" />
    <glyph glyph-name="ellipsis" unicode="&#x2026;" horiz-adv-x="774" 
d="M211 0h-148v164h148v-164zM461 0h-148v164h148v-164zM711 0h-148v164h148v-164z" />
    <glyph glyph-name="perthousand" unicode="&#x2030;" horiz-adv-x="1309" 
d="M52 556q0 79 50 131q50 51 130 51q82 0 131 -51q51 -51 51 -132q0 -79 -51 -132q-49 -51 -131 -51q-79 0 -130 51q-50 53 -50 133zM259 0h-77l463 729h78zM151 557q0 -42 22.5 -68.5t58.5 -26.5q37 0 59.5 26.5t22.5 68.5q0 41 -22.5 66t-59.5 25q-36 0 -58.5 -25.5
t-22.5 -65.5zM483 174q0 78 50 130q51 52 131 52q81 0 130 -52q50 -52 50 -131q0 -80 -50 -132q-50 -51 -130 -51q-79 0 -130 51q-51 53 -51 133zM894 174q0 78 50 130q51 52 131 52q81 0 130 -52q50 -52 50 -131q0 -80 -50 -132q-49 -51 -130 -51q-80 0 -131 51
q-50 52 -50 133zM582 175q0 -42 23 -68.5t59 -26.5q37 0 60 26.5t23 68.5q0 41 -23 66.5t-60 25.5q-36 0 -59 -26t-23 -66zM993 175q0 -42 22.5 -68.5t59.5 -26.5t59.5 26.5t22.5 68.5q0 40 -23 66t-59 26q-37 0 -59.5 -25.5t-22.5 -66.5z" />
    <glyph glyph-name="guilsinglleft" unicode="&#x2039;" horiz-adv-x="320" 
d="M150 58l-120 216l120 214h130l-109 -214l109 -216h-130z" />
    <glyph glyph-name="guilsinglright" unicode="&#x203a;" horiz-adv-x="320" 
d="M172 488l118 -214l-118 -216h-132l109 216l-109 214h132z" />
    <glyph glyph-name="fraction" unicode="&#x2044;" horiz-adv-x="248" 
d="M-25 -46h-116l412 814h117z" />
    <glyph glyph-name="uni2070" unicode="&#x2070;" horiz-adv-x="494" 
d="M246 295q-102 0 -156.5 76.5t-54.5 212.5q0 138 56.5 211.5t156.5 73.5q102 0 156 -75.5t54 -211.5q0 -140 -56 -213.5t-156 -73.5zM245 398q49 0 69.5 45t20.5 136q0 189 -87 189q-49 0 -70 -45.5t-21 -135.5q0 -189 88 -189z" />
    <glyph glyph-name="uni2074" unicode="&#x2074;" horiz-adv-x="491" 
d="M401 862v-355h67v-97h-67v-110h-117v110h-259v91l201 361h175zM284 758l-140 -251h140v251z" />
    <glyph glyph-name="uni2075" unicode="&#x2075;" horiz-adv-x="478" 
d="M260 678q83 0 133 -53q51 -53 51 -136q0 -87 -57 -143q-55 -54 -151 -54q-92 0 -148 50q-56 52 -55 134h119q-1 -36 22.5 -58.5t62.5 -22.5t63 25t24 65q0 42 -25 68.5t-64 26.5q-29 0 -50 -13.5t-30 -35.5h-112l15 331h348v-102h-244l-5 -109l5 -2q35 29 98 29z" />
    <glyph glyph-name="uni2076" unicode="&#x2076;" horiz-adv-x="482" 
d="M250 293q-104 0 -159 75.5t-55 213.5q0 139 54.5 213t161.5 74q80 0 131 -40t59 -107h-120q-10 49 -73 49q-102 0 -93 -151h5q31 57 115 57q78 0 127 -51.5t49 -135.5q0 -89 -55 -143t-147 -54zM334 489q0 42 -23 67t-59 25q-38 0 -60.5 -26.5t-22.5 -67.5q0 -42 23 -67
t60 -25t59.5 25.5t22.5 68.5z" />
    <glyph glyph-name="uni2077" unicode="&#x2077;" horiz-adv-x="436" 
d="M109 667h-94v195h403v-85q-76 -103 -135 -233q-59 -131 -77 -244h-127q16 111 71 234q53 120 128 226h-169v-93z" />
    <glyph glyph-name="uni2078" unicode="&#x2078;" horiz-adv-x="473" 
d="M31 450q0 90 81 128v7q-81 36 -81 127q0 74 55.5 115.5t150.5 41.5t150 -42.5t55 -114.5q0 -42 -21 -76t-59 -51v-7q80 -38 80 -128q0 -74 -56 -116t-150 -42q-95 0 -150 43t-55 115zM153 697q0 -31 23.5 -49.5t60.5 -18.5q38 0 60.5 19t22.5 49q0 32 -22.5 51.5
t-60.5 19.5q-39 0 -61.5 -19t-22.5 -52zM153 464q0 -32 23.5 -51t60.5 -19q38 0 60.5 19.5t22.5 50.5q0 32 -23 51t-60 19q-39 0 -61.5 -19.5t-22.5 -50.5z" />
    <glyph glyph-name="uni2079" unicode="&#x2079;" horiz-adv-x="479" 
d="M229 293q-78 0 -129.5 40t-59.5 108h120q8 -50 72 -50q101 0 93 152h-5q-34 -57 -117 -57q-78 0 -126.5 51t-48.5 135q0 89 55 143t147 54q106 0 160 -75.5t54 -215.5q0 -285 -215 -285zM228 581q38 0 60.5 26.5t22.5 68.5q0 41 -23 66t-60 25t-59.5 -25.5t-22.5 -68.5
q0 -42 23 -67t59 -25z" />
    <glyph glyph-name="uni2080" unicode="&#x2080;" horiz-adv-x="494" 
d="M246 -105q-102 0 -156.5 76.5t-54.5 212.5q0 138 56.5 211.5t156.5 73.5q102 0 156 -75.5t54 -211.5q0 -140 -56 -213.5t-156 -73.5zM245 -2q49 0 69.5 45t20.5 136q0 189 -87 189q-49 0 -70 -45.5t-21 -135.5q0 -189 88 -189z" />
    <glyph glyph-name="uni2081" unicode="&#x2081;" horiz-adv-x="349" 
d="M159 273h-145v90h24q54 0 89.5 27.5t38.5 71.5h110v-562h-117v373z" />
    <glyph glyph-name="uni2082" unicode="&#x2082;" horiz-adv-x="456" 
d="M181 -1l78 4h164v-103h-381v19q0 54 19 96q12 28 31 53t33.5 38.5t43.5 36.5q10 8 37 29t37 30.5t26 27t22 34t6 35.5q0 32 -19.5 50.5t-53.5 18.5q-37 0 -57.5 -23t-18.5 -63h-118q1 86 55 136.5t143 50.5q87 0 139.5 -47t52.5 -123q0 -56 -31 -102q-29 -45 -68 -73
q-31 -22 -81 -62q-43 -35 -59 -63z" />
    <glyph glyph-name="uni2083" unicode="&#x2083;" horiz-adv-x="472" 
d="M236 -108q-91 0 -146 49q-54 49 -52 129h119q-1 -35 21 -55.5t61 -20.5q38 0 59.5 20.5t21.5 54.5q0 35 -23 53.5t-65 18.5h-57v94h47q42 0 64 18t22 51q0 30 -20.5 47t-53.5 17q-38 0 -59 -20.5t-20 -54.5h-118q-4 79 51 127q55 49 149 49q85 0 138 -42q54 -41 54 -109
q0 -85 -78 -121v-5q43 -17 66.5 -52.5t23.5 -81.5q0 -74 -57 -120q-55 -46 -148 -46z" />
    <glyph glyph-name="uni2084" unicode="&#x2084;" horiz-adv-x="491" 
d="M401 462v-355h67v-97h-67v-110h-117v110h-259v91l201 361h175zM284 358l-140 -251h140v251z" />
    <glyph glyph-name="uni2085" unicode="&#x2085;" horiz-adv-x="478" 
d="M260 278q83 0 133 -53q51 -53 51 -136q0 -88 -57 -142q-55 -55 -151 -55q-92 0 -148 51q-57 50 -55 133h119q-1 -36 22.5 -58.5t62.5 -22.5t63 25t24 65q0 42 -25 68.5t-64 26.5q-29 0 -50 -13.5t-30 -35.5h-112l15 331h348v-102h-244l-5 -109l5 -2q35 29 98 29z" />
    <glyph glyph-name="uni2086" unicode="&#x2086;" horiz-adv-x="482" 
d="M250 -107q-104 0 -159 75.5t-55 213.5q0 139 54.5 213t161.5 74q80 0 131 -40t59 -107h-120q-10 49 -73 49q-102 0 -93 -151h5q31 57 115 57q78 0 127 -51.5t49 -135.5q0 -89 -55 -143t-147 -54zM334 89q0 42 -23 67t-59 25q-38 0 -60.5 -26.5t-22.5 -67.5q0 -42 23 -67
t60 -25t59.5 25.5t22.5 68.5z" />
    <glyph glyph-name="uni2087" unicode="&#x2087;" horiz-adv-x="436" 
d="M109 267h-94v195h403v-85q-76 -103 -135 -233q-57 -123 -77 -244h-127q16 108 70 233q55 124 129 227h-169v-93z" />
    <glyph glyph-name="uni2088" unicode="&#x2088;" horiz-adv-x="473" 
d="M31 50q0 90 81 128v7q-81 36 -81 127q0 74 55.5 115.5t150.5 41.5t150 -42.5t55 -114.5q0 -42 -21 -76t-59 -51v-7q80 -38 80 -128q0 -74 -56 -116t-150 -42q-95 0 -150 43t-55 115zM153 297q0 -31 23.5 -49.5t60.5 -18.5q38 0 60.5 19t22.5 49q0 32 -22.5 51.5
t-60.5 19.5q-39 0 -61.5 -19t-22.5 -52zM153 64q0 -32 23.5 -51t60.5 -19q38 0 60.5 19.5t22.5 50.5q0 32 -23 51t-60 19q-39 0 -61.5 -19.5t-22.5 -50.5z" />
    <glyph glyph-name="uni2089" unicode="&#x2089;" horiz-adv-x="479" 
d="M229 -107q-78 0 -129.5 40t-59.5 108h120q4 -23 24 -36.5t48 -13.5q101 0 93 152h-5q-34 -57 -117 -57q-78 0 -126.5 51t-48.5 135q0 89 55 143t147 54q106 0 160 -75.5t54 -215.5q0 -285 -215 -285zM228 181q38 0 60.5 26.5t22.5 68.5q0 41 -23 66t-60 25t-59.5 -25.5
t-22.5 -68.5q0 -42 23 -67t59 -25z" />
    <glyph glyph-name="uni20A6" unicode="&#x20a6;" horiz-adv-x="744" 
d="M655 412h87v-96h-87v-316h-178l-149 316h-93v-316h-152v316h-82v96h82v317h178l148 -317h94v317h152v-317zM228 514l4 -102h51l-48 102h-7zM503 212h7l-3 104h-53z" />
    <glyph glyph-name="uni20A9" unicode="&#x20a9;" horiz-adv-x="883" 
d="M799 412h77v-96h-95l-58 -316h-216l-31 272l-6 44h-61l-6 -42l-28 -274h-213l-59 316h-96v96h78l-59 317h165l46 -317h70l51 317h159l53 -317h72l43 317h172zM435 503l-13 -91h33l-13 91h-7zM268 167h5l20 149h-43zM607 165h6l17 151h-45z" />
    <glyph glyph-name="uni20AA" unicode="&#x20aa;" horiz-adv-x="794" 
d="M422 173v433h-220v-606h-125v729h339q66 0 97.5 -29t31.5 -101v-426h-123zM593 124v605h125v-729h-339q-66 0 -98 29.5t-32 100.5v427h124v-433h220z" />
    <glyph glyph-name="Euro" unicode="&#x20ac;" horiz-adv-x="739" 
d="M401 132q99 0 127 90h169q-20 -107 -100 -169t-197 -62q-118 0 -197.5 64.5t-107.5 180.5h-70v98h56q-1 7 -1 31q0 28 1 36h-56v97h71q29 114 109.5 177t195.5 63q119 0 198 -63q78 -61 98 -167h-169q-27 90 -127 90q-101 0 -138 -100h207l-11 -97h-215q-1 -8 -1 -37
q0 -23 1 -30h208l-15 -98h-175q38 -104 139 -104z" />
    <glyph glyph-name="uni20B2" unicode="&#x20b2;" horiz-adv-x="692" 
d="M316 295v112h313v-46q0 -131 -67.5 -208t-185.5 -89v-83h-97v85q-114 16 -179.5 96.5t-65.5 206.5q0 129 66 211q66 83 179 101v83h97v-80q100 -8 164.5 -65t77.5 -146h-165q-9 36 -40 57t-76 21q-68 0 -104 -46.5t-36 -130.5q0 -86 37 -132.5t104 -46.5q56 0 92 27
t42 73h-156z" />
    <glyph glyph-name="uni20B8" unicode="&#x20b8;" horiz-adv-x="572" 
d="M6 606v123h559v-123h-559zM209 403h-203v133h559v-133h-205v-403h-151v403z" />
    <glyph glyph-name="uni20B9" unicode="&#x20b9;" horiz-adv-x="606" 
d="M546 729v-99h-116q32 -45 42 -105h74v-99h-76q-13 -59 -51 -100.5t-95 -58.5v-7q21 -6 32.5 -13t23.5 -24q13 -19 16 -26q4 -5 22 -40l83 -157h-170l-86 161q-19 38 -40 55q-19 16 -66 16h-109v124h159q89 0 113 70h-272v99h271q-25 67 -112 67h-159v137h516z" />
    <glyph glyph-name="uni20BA" unicode="&#x20ba;" horiz-adv-x="651" 
d="M467 345h157q-27 -158 -135 -251q-106 -91 -274 -93l-124 -1v254l-84 -32v117l84 33v75l-84 -32v116l84 35v163h152v-104l137 57v-117l-137 -59v-75l137 58v-117l-137 -58v-167q82 0 142.5 54t81.5 144z" />
    <glyph glyph-name="uni20BC" unicode="&#x20bc;" horiz-adv-x="766" 
d="M195 0h-152v326q0 289 263 315v88h154v-88q264 -27 264 -315v-326h-153v326q0 154 -111 167v-493h-154v493q-111 -12 -111 -167v-326z" />
    <glyph glyph-name="uni20BD" unicode="&#x20bd;" horiz-adv-x="658" 
d="M372 244l-116 1v-50h166v-97h-166v-98h-152v98h-83v97h83v50h-83v106h83v378h269q117 0 190 -68q72 -67 72 -177q0 -108 -73 -174q-72 -66 -190 -66zM474 484q0 52 -33 80t-92 28h-93v-218h93q59 0 92 30t33 80z" />
    <glyph glyph-name="uni20BF" unicode="&#x20bf;" horiz-adv-x="728" 
d="M612 231q0 -67 -44 -119q-43 -51 -131 -61v-70h-96v68h-60v-68h-96v68h-68v648h68v67h96v-67h60v67h96v-71q74 -12 115.5 -58t41.5 -115q0 -93 -78 -135q46 -19 71 -59.5t25 -94.5zM353 582h-82v-146h82q36 0 58.5 21t22.5 56q0 33 -22 51t-59 18zM271 163h85
q40 0 67 20.5t27 62.5q0 39 -27 58.5t-67 19.5h-85v-161z" />
    <glyph glyph-name="uni2105" unicode="&#x2105;" horiz-adv-x="940" 
d="M284 492h109q-6 -62 -55 -100t-124 -38q-84 0 -134.5 51.5t-50.5 139.5q0 89 52 141.5t139 52.5q70 0 117.5 -38t55.5 -100h-109q-6 23 -24.5 35.5t-42.5 12.5q-78 0 -78 -104q0 -103 78 -103q26 0 44.5 14t22.5 36zM282 0h-95l464 729h94zM724 378q84 0 135 -54
q52 -52 52 -138q0 -87 -52 -139q-51 -53 -135 -53t-137 53q-51 52 -51 139q0 86 51 139q53 53 137 53zM645 186q0 -47 21.5 -75t57.5 -28t57 28.5t21 75.5q0 46 -21.5 74t-57.5 28t-57 -28.5t-21 -74.5z" />
    <glyph glyph-name="uni2116" unicode="&#x2116;" horiz-adv-x="1425" 
d="M1063 248q-109 0 -179 70t-70 173t70 173q71 71 179 71t179 -71t71 -173t-71 -173q-70 -70 -179 -70zM239 0h-162v729h187l294 -503h6l-9 209v294h160v-729h-187l-292 499h-7l10 -201v-298zM969 491q0 -54 26 -86.5t68 -32.5q44 0 69 33.5t25 85.5q0 55 -25.5 87.5
t-67.5 32.5q-45 0 -70 -34.5t-25 -85.5zM870 1v123h387v-123h-387z" />
    <glyph glyph-name="uni2117" unicode="&#x2117;" horiz-adv-x="898" 
d="M449 -77q-112 0 -207.5 52t-154.5 148q-59 98 -59 220q0 121 59 219q59 96 154.5 148.5t207.5 52.5t206 -52q97 -52 155 -148q59 -97 59 -217q0 -183 -124 -303q-125 -120 -296 -120zM449 -40q158 0 268 108q110 110 110 278q0 166 -110 273q-110 108 -268 108
q-157 0 -269 -109q-111 -108 -111 -275t111 -275q112 -108 269 -108zM396 128h-94v424h221q69 0 109.5 -39t40.5 -102t-41 -102.5t-109 -39.5h-127v-141zM394 473v-128h116q32 0 50.5 18t18.5 48q0 27 -19.5 44.5t-49.5 17.5h-116z" />
    <glyph glyph-name="trademark" unicode="&#x2122;" horiz-adv-x="652" 
d="M95 672h-83v62h239v-62h-87v-250h-69v250zM457 562l75 172h86v-312h-67v128l4 87h-3l-96 -210l-96 210h-4l5 -87v-128h-67v312h86l75 -172h2z" />
    <glyph glyph-name="estimated" unicode="&#x212e;" horiz-adv-x="757" 
d="M678 230h46q-27 -108 -120 -174q-94 -65 -222 -65q-162 0 -260 102q-97 101 -97 266t99 267q100 103 266 103q152 0 243 -88q91 -87 99 -246q1 -14 1 -57h-600v-185q35 -59 102 -91.5t149 -32.5q107 0 187 55q81 56 107 146zM133 561v-187h493v205q-88 111 -249 108
q-159 -3 -244 -126z" />
    <glyph glyph-name="oneeighth" unicode="&#x215b;" horiz-adv-x="951" 
d="M290 -46h-116l412 814h117zM149 565h-125v80h45q42 0 64 21.5t22 59.5v3h94v-473h-100v309zM586 128q0 79 69 109v6q-69 30 -69 109q0 62 47 98t126 36q78 0 123.5 -36.5t45.5 -97.5q0 -79 -67 -109v-6q67 -30 67 -110q0 -62 -46.5 -98t-124.5 -36t-124.5 37t-46.5 98z
M689 340q0 -27 19 -42.5t50 -15.5q30 0 48.5 16.5t18.5 41.5q0 27 -18.5 43t-48.5 16q-32 0 -50.5 -16t-18.5 -43zM758 80q31 0 49 16.5t18 42.5q0 28 -18.5 44t-48.5 16q-31 0 -50 -16.5t-19 -43.5t18.5 -43t50.5 -16z" />
    <glyph glyph-name="threeeighths" unicode="&#x215c;" horiz-adv-x="1012" 
d="M352 -46h-116l412 814h117zM185 248q-74 0 -118.5 41t-43.5 108h100q0 -27 17 -44.5t43 -17.5q28 0 45 16.5t17 42.5q0 27 -18 42.5t-48 15.5h-41v90h30q32 0 49 15.5t17 40.5q0 24 -15 37t-39 13q-28 0 -44 -17t-15 -45h-101q-1 67 42.5 108t119.5 41q71 0 113 -35.5
t42 -92.5q0 -72 -65 -101v-5q75 -29 75 -113q0 -62 -45.5 -101t-116.5 -39zM648 128q0 79 69 109v6q-69 30 -69 109q0 62 47 98t126 36q78 0 123.5 -36.5t45.5 -97.5q0 -79 -67 -109v-6q67 -30 67 -110q0 -62 -46.5 -98t-124.5 -36t-124.5 37t-46.5 98zM751 340
q0 -27 19 -42.5t50 -15.5q30 0 48.5 16.5t18.5 41.5q0 27 -18.5 43t-48.5 16q-32 0 -50.5 -16t-18.5 -43zM820 80q31 0 49 16.5t18 42.5q0 28 -18.5 44t-48.5 16q-31 0 -50 -16.5t-19 -43.5t18.5 -43t50.5 -16z" />
    <glyph glyph-name="fiveeighths" unicode="&#x215d;" horiz-adv-x="1034" 
d="M373 -46h-116l412 814h117zM29 402h101q0 -29 19.5 -48t48.5 -19q31 0 50 21.5t19 54.5q0 35 -20 57t-51 22q-48 0 -62 -41h-96v280h302v-88h-203v-51l-3 -38l3 -3q26 26 80 26q68 0 110 -46q42 -45 42 -115q0 -74 -47.5 -120t-124.5 -46q-74 0 -121 42.5t-47 111.5z
M669 128q0 79 69 109v6q-69 30 -69 109q0 62 47 98t126 36q78 0 123.5 -36.5t45.5 -97.5q0 -79 -67 -109v-6q67 -30 67 -110q0 -62 -46.5 -98t-124.5 -36t-124.5 37t-46.5 98zM772 340q0 -27 19 -42.5t50 -15.5q30 0 48.5 16.5t18.5 41.5q0 27 -18.5 43t-48.5 16
q-32 0 -50.5 -16t-18.5 -43zM841 80q31 0 49 16.5t18 42.5q0 28 -18.5 44t-48.5 16q-31 0 -50 -16.5t-19 -43.5t18.5 -43t50.5 -16z" />
    <glyph glyph-name="seveneighths" unicode="&#x215e;" horiz-adv-x="931" 
d="M154 -46l412 814h117l-413 -814h-116zM159 256h-99q14 103 56.5 205t104.5 180h-130v-69h-76v157h326v-72q-144 -169 -182 -401zM841 243v-6q67 -30 67 -110q0 -62 -46.5 -98t-124.5 -36t-124.5 37t-46.5 98q0 79 69 109v6q-69 30 -69 109q0 62 47 98t126 36
q78 0 123.5 -36.5t45.5 -97.5q0 -79 -67 -109zM805 340q0 27 -18.5 43t-48.5 16q-32 0 -50.5 -16t-18.5 -43t19 -42.5t50 -15.5q30 0 48.5 16.5t18.5 41.5zM738 80q31 0 49 16.5t18 42.5q0 28 -18.5 44t-48.5 16q-31 0 -50 -16.5t-19 -43.5t18.5 -43t50.5 -16z" />
    <glyph glyph-name="arrowleft" unicode="&#x2190;" horiz-adv-x="856" 
d="M762 314v-84h-598l169 -230h-105l-204 273l204 268h105l-169 -227h598z" />
    <glyph glyph-name="arrowup" unicode="&#x2191;" horiz-adv-x="615" 
d="M558 380v-102l-208 185v-383h208v-81h-501v81h208v383l-208 -185v102l251 219z" />
    <glyph glyph-name="arrowright" unicode="&#x2192;" horiz-adv-x="890" 
d="M693 230h-597v84h597l-169 227h106l203 -268l-203 -273h-106z" />
    <glyph glyph-name="arrowdown" unicode="&#x2193;" horiz-adv-x="615" 
d="M558 548v-81h-208v-383l208 185v-103l-250 -218l-251 218v103l208 -185v383h-208v81h501z" />
    <glyph glyph-name="arrowboth" unicode="&#x2194;" horiz-adv-x="1039" 
d="M254 98l-215 259l215 256h99l-178 -215h688l-176 215h99l214 -256l-214 -259h-99l176 216h-688l178 -216h-99z" />
    <glyph glyph-name="arrowupdn" unicode="&#x2195;" horiz-adv-x="694" 
d="M350 -141l-299 248v101l259 -215v633l-259 -214v100l299 248l298 -248v-100l-258 214v-633l258 215v-101z" />
    <glyph glyph-name="uni2196" unicode="&#x2196;" horiz-adv-x="702" 
d="M651 65l-61 -65l-404 417v-332h-85v478h466v-86h-322z" />
    <glyph glyph-name="uni2197" unicode="&#x2197;" horiz-adv-x="695" 
d="M571 401l-391 -401l-60 63l392 403h-322v82h467v-476h-86v329z" />
    <glyph glyph-name="uni2198" unicode="&#x2198;" horiz-adv-x="693" 
d="M593 0l-467 -1v88h324l-394 399l60 62l392 -405l1 337h85z" />
    <glyph glyph-name="uni2199" unicode="&#x2199;" horiz-adv-x="691" 
d="M567 0h-469v480h87v-337l393 405l57 -61l-393 -400h325v-87z" />
    <glyph glyph-name="uni21A9" unicode="&#x21a9;" horiz-adv-x="885" 
d="M841 498q0 -107 -67 -170.5t-190 -63.5h-360v-124l-187 169l187 171v-125h360q76 0 122 38t46 105q0 64 -43 103t-115 39h-13v89h13q108 0 177 -66q70 -64 70 -165z" />
    <glyph glyph-name="uni21AA" unicode="&#x21aa;" horiz-adv-x="885" 
d="M45 498q0 101 70 165q71 66 178 66h13v-89h-13q-72 0 -114.5 -39t-42.5 -103q0 -68 45 -105.5t122 -37.5h362v125l184 -171l-184 -169v124h-362q-124 0 -191 63t-67 171z" />
    <glyph glyph-name="uni21B2" unicode="&#x21b2;" horiz-adv-x="726" 
d="M587 355v403h83v-494h-430v-124l-187 169l187 171v-125h347z" />
    <glyph glyph-name="uni21B3" unicode="&#x21b3;" horiz-adv-x="726" 
d="M485 480l185 -171l-185 -169v124h-432v494h83v-403h349v125z" />
    <glyph glyph-name="uni21BA" unicode="&#x21ba;" horiz-adv-x="824" 
d="M413 -12q-142 0 -239 94t-97 236q0 89 43 169.5t123 132.5l43 -54q-136 -90 -136 -248q0 -110 75 -185q77 -74 190 -74q111 0 184 73t73 179q0 75 -38 134q-38 60 -162 167l-3 -2l5 -68v-137h-67v324h313v-72h-134l-63 5l-2 -3q134 -112 180 -182q45 -67 45 -166
q0 -135 -96 -229q-95 -94 -237 -94z" />
    <glyph glyph-name="uni21BB" unicode="&#x21bb;" horiz-adv-x="824" 
d="M408 -12q-141 0 -236 94q-95 95 -95 229q0 98 46 168q48 72 179 180l-2 3l-65 -5h-133v72h316v-324h-71v137l5 68l-3 2q-123 -105 -162 -166q-37 -58 -37 -135q0 -106 73 -179t185 -73t188 74q76 73 76 185q0 77 -35.5 141.5t-98.5 106.5l42 54q80 -52 123 -136
q43 -82 43 -166q0 -141 -97 -235q-98 -95 -241 -95z" />
    <glyph glyph-name="emptyset" unicode="&#x2205;" horiz-adv-x="757" 
d="M389 738q167 0 261 -102q94 -101 94 -271q0 -176 -97 -276q-96 -99 -258 -99q-165 0 -260 102q-94 101 -94 273q0 174 96 273q96 100 258 100zM389 597q-85 0 -134 -63t-49 -169q0 -53 12 -95l279 291q-43 36 -108 36zM389 132q87 0 136.5 63t49.5 170q0 50 -10 84
l-277 -287q42 -30 101 -30z" />
    <glyph glyph-name="product" unicode="&#x220f;" horiz-adv-x="782" 
d="M66 729h650v-131h-106v-598h-152v598h-133v-598h-153v598h-106v131z" />
    <glyph glyph-name="summation" unicode="&#x2211;" horiz-adv-x="600" 
d="M554 -167h-503v146l227 288v9l-227 306v147h503v-151h-204l-117 9v-9l219 -309l-224 -280v-9l122 9h204v-156z" />
    <glyph glyph-name="minus" unicode="&#x2212;" horiz-adv-x="593" 
d="M74 236v125h444v-125h-444z" />
    <glyph glyph-name="radical" unicode="&#x221a;" horiz-adv-x="796" 
d="M468 321l150 408h155l-308 -826h-196l-157 431h-90v128h202v-3l49 -137l91 -278h7z" />
    <glyph glyph-name="infinity" unicode="&#x221e;" horiz-adv-x="867" 
d="M229 43q-93 0 -155 63q-61 64 -61 164t61 165q62 66 155 66q119 0 204 -129q85 129 204 129q94 0 155 -67q62 -67 62 -164q0 -98 -62 -163q-61 -64 -154 -64q-122 0 -205 126q-81 -126 -204 -126zM237 178q62 0 127 93q-61 91 -127 91q-38 0 -61.5 -26t-23.5 -65
q0 -40 23.5 -66.5t61.5 -26.5zM628 178q38 0 61.5 26.5t23.5 66.5q0 39 -23.5 65t-61.5 26q-64 0 -125 -91q31 -48 60.5 -70.5t64.5 -22.5z" />
    <glyph glyph-name="integral" unicode="&#x222b;" horiz-adv-x="608" 
d="M357 753h158v-123h-134v-641q0 -50 -20 -84q-25 -44 -109 -44h-158v122h134v641q0 45 17 80q23 49 112 49z" />
    <glyph glyph-name="approxequal" unicode="&#x2248;" horiz-adv-x="538" 
d="M147 348h-70q-4 76 28 113q34 37 81 37q36 0 87 -27t78 -27q52 0 52 56h69q6 -76 -29 -114q-35 -36 -84 -36q-44 0 -99 26q-54 26 -72 26q-22 0 -33 -16t-8 -38zM147 146h-70q-6 72 25.5 110t82.5 38q37 0 88 -27q52 -26 78 -26q24 0 38 15t14 40h69q6 -78 -29 -114
t-84 -36q-45 0 -99 27q-52 28 -72 28q-21 0 -32.5 -16.5t-8.5 -38.5z" />
    <glyph glyph-name="notequal" unicode="&#x2260;" horiz-adv-x="607" 
d="M532 450v-112h-154l-47 -89h201v-110h-258l-55 -106h-104l55 106h-96v110h153l47 89h-200v112h258l56 108h104l-56 -108h96z" />
    <glyph glyph-name="lessequal" unicode="&#x2264;" horiz-adv-x="563" 
d="M493 306v-144l-433 164v135l433 160v-143l-160 -49l-135 -32v-8l130 -31zM493 136v-136h-433v136h433z" />
    <glyph glyph-name="greaterequal" unicode="&#x2265;" horiz-adv-x="563" 
d="M503 326l-433 -164v144l165 52l131 31v8l-137 32l-159 49v143l433 -160v-135zM503 0h-433v136h433v-136z" />
    <glyph glyph-name="filledbox" unicode="&#x25a0;" horiz-adv-x="925" 
d="M108 1v728h709v-728h-709z" />
    <glyph glyph-name="uni25A1" unicode="&#x25a1;" horiz-adv-x="841" 
d="M66 0v729h710v-729h-710zM708 662h-574v-594h574v594z" />
    <glyph glyph-name="triagup" unicode="&#x25b2;" horiz-adv-x="926" 
d="M47 0l415 737l417 -737h-832z" />
    <glyph glyph-name="uni25B3" unicode="&#x25b3;" horiz-adv-x="921" 
d="M869 0h-817l407 738zM461 594l-287 -521h574z" />
    <glyph glyph-name="lozenge" unicode="&#x25ca;" horiz-adv-x="2153" 
d="M984 -10q-135 0 -214 100t-79 268q0 96 28 170.5t76.5 119.5t109.5 68t132 23q120 0 202 -62q82 -61 100 -164h-156q-36 86 -147 86q-90 0 -137 -62t-47 -175q0 -115 46.5 -175t129.5 -60q67 0 109 33t52 92h-162v143h324v-395h-111l-16 119h-35q-15 -61 -70.5 -95
t-134.5 -34zM1486 576q-34 0 -56.5 23t-22.5 59q0 35 22.5 58t56.5 23q35 0 55.5 -22.5t20.5 -58.5q0 -37 -20.5 -59.5t-55.5 -22.5zM1684 576q-34 0 -55 23t-21 59q0 35 21.5 58t54.5 23q36 0 58.5 -23t22.5 -58q0 -36 -22.5 -59t-58.5 -23zM310 0h-271v729h271
q161 0 248.5 -92.5t87.5 -270.5t-88.5 -272t-247.5 -94zM1886 572h-36v126h-38v31h118v-31h-44v-126zM1984 572h-34v157h63l17 -127l23 127h61v-157h-40v135l-17 -135h-52l-21 135v-135zM145 109l26 -26q29 28 53.5 40t59.5 12h26q31 0 69 15q31 12 52 33q24 24 41 72
t17 108q0 59 -16 106t-39 70q-21 23 -49 36q-37 19 -75 19h-26q-29 0 -52 10q-26 12 -32 17l-29 27l-26 -30q1 -2 7 -9t7 -8q5 -2 20 -27q15 -22 15 -71v-276q-3 -51 -16 -74l-10 -15q-9 -15 -23 -29zM1582 0h-149v491h141l7 -58h27q12 36 49 56t90 20v-147
q-165 16 -165 -148v-214z" />
    <glyph glyph-name="circle" unicode="&#x25cb;" horiz-adv-x="785" 
d="M393 -10q-158 0 -263 105t-105 270q0 163 105 268t263 105q157 0 262 -105q106 -105 106 -268q0 -165 -106 -270q-105 -105 -262 -105zM693 365q0 135 -87 222q-87 88 -213 88t-213 -88q-87 -87 -87 -222t87 -224q87 -88 213 -88t213 88q87 89 87 224z" />
    <glyph glyph-name="uni25CF" unicode="&#x25cf;" horiz-adv-x="894" 
d="M448 -10q-157 0 -262 107q-105 108 -105 269q0 158 105 265t262 107q155 0 259 -107t104 -265q0 -160 -104 -269q-104 -107 -259 -107z" />
    <glyph glyph-name="uni262E" unicode="&#x262e;" horiz-adv-x="833" 
d="M784 363q0 -167 -104 -273q-104 -104 -264 -104q-159 0 -263 104q-104 106 -104 273q0 166 104 270t263 104t263 -104q105 -103 105 -270zM731 363q0 139 -82 227q-83 89 -208 98v-303l263 -163q27 68 27 141zM390 385v303q-124 -9 -207 -99q-81 -88 -81 -226
q0 -73 27 -141zM390 323l-237 -148q38 -61 100 -97.5t137 -41.5v287zM441 323v-287q76 5 138 41.5t101 98.5z" />
    <glyph glyph-name="uni2639" unicode="&#x2639;" horiz-adv-x="835" 
d="M47 365q0 162 107 267q106 106 263 106t263 -106q108 -106 108 -267q0 -163 -108 -269q-106 -106 -263 -106t-263 106q-107 107 -107 269zM100 365q0 -128 79 -219q36 51 100 82t138 31q77 0 140.5 -30.5t99.5 -82.5q79 94 79 219q0 140 -94 231q-93 93 -224 93
q-132 0 -225 -93q-93 -92 -93 -231zM287 438q0 51 14 78.5t39 27.5q52 0 52 -106q0 -107 -52 -107q-26 0 -39.5 29t-13.5 78zM445 438q0 50 14.5 78t39.5 28q26 0 39.5 -28.5t13.5 -77.5q0 -51 -14.5 -79t-38.5 -28q-26 0 -40 29t-14 78zM216 112q91 -73 202 -73
q113 0 201 73q-24 44 -80 70.5t-121 26.5q-66 0 -120.5 -27t-81.5 -70z" />
    <glyph glyph-name="smileface" unicode="&#x263a;" horiz-adv-x="835" 
d="M788 365q0 -163 -108 -269q-106 -106 -263 -106t-263 106q-107 107 -107 269t107 267q106 106 263 106t263 -106q108 -106 108 -267zM418 39q134 0 225 94q93 95 93 232q0 140 -94 231q-93 93 -224 93q-132 0 -225 -93q-93 -92 -93 -231q0 -140 93 -233t225 -93zM340 331
q-26 0 -39.5 29t-13.5 78q0 51 14 78.5t39 27.5q52 0 52 -106q0 -107 -52 -107zM499 331q-26 0 -40 29t-14 78q0 50 14.5 78t39.5 28q26 0 39.5 -28.5t13.5 -77.5q0 -51 -14.5 -79t-38.5 -28zM577 313v17h107v-17h-27q-13 -85 -81 -138q-67 -52 -159 -52q-94 0 -159 52
q-67 53 -80 138h-24v17h108v-17h-30q11 -66 62 -103q53 -38 124 -38q74 0 125 39t62 102h-28z" />
    <glyph glyph-name="uni2708" unicode="&#x2708;" horiz-adv-x="882" 
d="M126 207h-50l35 159l-35 159h50l69 -108l210 12l-99 276h90l144 -239q16 -23 48 -25l59 4q60 4 109 -21t49 -58q0 -35 -49 -60q-49 -24 -109 -20l-59 4q-34 -2 -48 -24l-144 -240h-90l99 276l-210 14z" />
    <glyph glyph-name="uni2713" unicode="&#x2713;" horiz-adv-x="864" 
d="M321 225l376 364l86 -100l-471 -450l-232 272l94 85z" />
    <glyph glyph-name="uni2714" unicode="&#x2714;" horiz-adv-x="1287" 
d="M1112 727l109 -188q-241 -120 -462 -285q-222 -166 -351 -322q-142 198 -342 371l125 132q143 -115 231 -261q120 160 300 301q182 144 390 252z" />
    <glyph glyph-name="uni2776" unicode="&#x2776;" horiz-adv-x="893" 
d="M448 -9q-163 0 -276 110q-111 111 -111 274q0 162 111 273q112 111 276 111q162 0 273 -112q111 -111 111 -272q0 -163 -111 -274q-112 -110 -273 -110zM433 427v-272h83v420h-78v-2q0 -35 -23 -58t-63 -23h-35v-65h116z" />
    <glyph glyph-name="uni2777" unicode="&#x2777;" horiz-adv-x="894" 
d="M448 -9q-164 0 -276 111q-111 111 -111 274q0 162 111 273q112 111 276 111q163 0 274 -111t111 -273q0 -163 -111 -274t-274 -111zM312 169v-14h274v74h-116l-58 -4q15 28 79 78q46 34 72 68.5t26 82.5q0 58 -37 93t-99 35q-65 0 -106.5 -37t-42.5 -98l84 -5
q-2 30 14.5 48.5t44.5 18.5q39 0 53 -34t-16 -72q-12 -14 -29 -28.5t-39.5 -32t-35.5 -28.5q-68 -59 -68 -145z" />
    <glyph glyph-name="uni2778" unicode="&#x2778;" horiz-adv-x="894" 
d="M448 -9q-163 0 -276 110q-111 111 -111 274q0 162 112 273q112 112 275 112q162 0 273 -112q112 -111 112 -273t-112 -273q-111 -111 -273 -111zM448 149q63 0 103 34.5t40 89.5q0 34 -17.5 61t-49.5 39v4q28 12 43 36.5t15 52.5q0 52 -37.5 83.5t-98.5 31.5
q-67 0 -105.5 -36t-37.5 -96h84q1 60 57 60q24 0 38 -13t14 -36q0 -24 -16.5 -39t-46.5 -15h-27v-72h37q27 0 45 -15.5t18 -40.5t-16.5 -40.5t-43.5 -15.5q-26 0 -41.5 16.5t-15.5 43.5h-84q-1 -61 38.5 -97t104.5 -36z" />
    <glyph glyph-name="uni2779" unicode="&#x2779;" horiz-adv-x="896" 
d="M449 -9q-163 0 -276 111q-112 111 -112 274q0 162 112 273q113 111 276 111t274 -111q112 -111 112 -273q0 -163 -112 -274q-111 -111 -274 -111zM467 246v-91h82v91h45v72h-45v257h-126l-143 -261v-68h187zM467 318h-95l95 172v-172z" />
    <glyph glyph-name="uni277A" unicode="&#x277a;" horiz-adv-x="894" 
d="M448 -9q-163 0 -276 110q-111 111 -111 274q0 162 112 273q112 112 275 112q162 0 273 -112q112 -111 112 -273t-112 -273q-111 -111 -273 -111zM452 150q69 0 110 40t41 106q0 63 -37 103t-97 40q-51 0 -73 -25l-3 2l2 37v51h183v71h-264v-244h79q13 36 59 36
q29 0 48 -21t19 -53q0 -31 -18.5 -51t-47.5 -20t-46.5 18t-17.5 46h-84q-1 -60 40 -98t107 -38z" />
    <glyph glyph-name="uni277B" unicode="&#x277b;" horiz-adv-x="914" 
d="M457 -28q-167 0 -282 114q-114 114 -114 280t114 280q115 114 282 114t281 -114q115 -114 115 -280q0 -167 -115 -281q-116 -113 -281 -113zM457 149q66 0 108.5 41t42.5 105q0 62 -36.5 102t-93.5 40q-29 0 -54 -13t-37 -34h-3q0 120 75 120q21 0 37.5 -11.5t20.5 -30.5
h84q-5 51 -43.5 82t-96.5 31q-77 0 -119.5 -58.5t-42.5 -161.5q0 -100 41.5 -156t116.5 -56zM459 222q-30 0 -48 20t-18 51t18.5 52.5t47.5 21.5t47 -20.5t18 -52.5t-18 -52t-47 -20z" />
    <glyph glyph-name="uni277C" unicode="&#x277c;" horiz-adv-x="896" 
d="M449 -9q-163 0 -276 111q-112 111 -112 273t112 273q112 112 276 112q163 0 274 -112q112 -111 112 -273t-112 -273q-113 -111 -274 -111zM355 155h88q35 203 158 363v57h-287v-140h62v69h122q-54 -72 -92 -164t-51 -185z" />
    <glyph glyph-name="uni277D" unicode="&#x277d;" horiz-adv-x="894" 
d="M448 -9q-162 0 -275 111q-112 111 -112 273t112 273q112 112 275 112q162 0 273 -112q112 -111 112 -273t-112 -273q-111 -111 -273 -111zM447 149q68 0 109.5 32t41.5 86q0 30 -17 57t-44 39v5q29 12 45 38t16 57q0 54 -41 86t-110 32q-68 0 -109.5 -32t-41.5 -86
q0 -31 16.5 -56.5t44.5 -38.5v-5q-28 -13 -44.5 -39t-16.5 -56q0 -54 41 -86.5t110 -32.5zM447 399q-29 0 -47 15t-18 40q0 24 17.5 39.5t47.5 15.5q29 0 47 -15t18 -40q0 -24 -17.5 -39.5t-47.5 -15.5zM447 222q-30 0 -47.5 14.5t-17.5 40.5q0 24 17.5 39.5t47.5 15.5
q29 0 47 -15t18 -40q0 -24 -17.5 -39.5t-47.5 -15.5z" />
    <glyph glyph-name="uni277E" unicode="&#x277e;" horiz-adv-x="896" 
d="M449 -9q-163 0 -276 111q-112 111 -112 274q0 161 112 272q112 112 276 112q162 0 274 -112q112 -111 112 -272q0 -163 -112 -274q-113 -111 -274 -111zM449 149q77 0 119 58t42 162q0 100 -41 156t-116 56q-67 0 -109 -40.5t-42 -105.5q0 -62 36 -101t93 -39q66 0 92 45
h3q0 -120 -75 -120q-49 0 -59 42h-83q6 -51 44 -82t96 -31zM452 509q29 0 46.5 -20.5t17.5 -51.5q0 -32 -17.5 -53t-46.5 -21q-30 0 -48 20t-18 53t18 53t48 20z" />
    <glyph glyph-name="uni2780" unicode="&#x2780;" horiz-adv-x="893" 
d="M448 -9q-163 0 -276 110q-111 111 -111 274q0 162 111 273q112 111 276 111q162 0 273 -112q111 -111 111 -272q0 -163 -111 -274q-112 -110 -273 -110zM448 35q143 0 241 99q99 99 99 241q0 143 -99 242q-98 99 -241 99q-145 0 -244 -99t-99 -242q0 -142 99 -241
t244 -99zM433 155v272h-116v65h35q40 0 63 23t23 58v2h78v-420h-83z" />
    <glyph glyph-name="uni2781" unicode="&#x2781;" horiz-adv-x="894" 
d="M448 760q163 0 274 -111t111 -273q0 -163 -111 -274t-274 -111q-164 0 -276 111q-111 111 -111 274q0 162 111 273q112 111 276 111zM448 35q144 0 242 99q99 99 99 242t-99 242q-98 99 -242 99q-145 0 -244 -99t-99 -242t99 -242t244 -99zM589 454q0 -33 -14.5 -62
t-37 -50t-46 -39t-46 -38t-32.5 -39l57 3h116v-74h-274v14q0 34 11 64t32.5 54t38 38t42.5 33q68 51 68 95q0 26 -15.5 41t-41.5 15q-28 0 -44.5 -18.5t-14.5 -48.5l-84 5q1 61 42.5 98t106.5 37q62 0 99 -35t37 -93z" />
    <glyph glyph-name="uni2782" unicode="&#x2782;" horiz-adv-x="894" 
d="M448 -9q-163 0 -276 110q-111 111 -111 274q0 162 112 273q112 112 275 112q162 0 273 -112q112 -111 112 -273t-112 -273q-111 -111 -273 -111zM448 35q144 0 242 99q99 99 99 241q0 143 -99 242q-98 99 -242 99q-145 0 -244 -99q-99 -97 -99 -242q0 -142 99 -241
t244 -99zM448 149q-65 0 -104.5 36t-38.5 97h84q0 -27 15.5 -43.5t41.5 -16.5q27 0 43.5 15.5t16.5 40.5t-18 40.5t-45 15.5h-37v72h27q30 0 46.5 15t16.5 39q0 23 -14 36t-38 13q-56 0 -57 -60h-84q-1 60 37.5 96t105.5 36q61 0 98.5 -31.5t37.5 -83.5q0 -28 -15 -52.5
t-43 -36.5v-4q32 -12 49.5 -39t17.5 -61q0 -55 -40 -89.5t-103 -34.5z" />
    <glyph glyph-name="uni2783" unicode="&#x2783;" horiz-adv-x="896" 
d="M61 376q0 162 112 273q113 111 276 111t274 -111q112 -111 112 -273q0 -163 -112 -274q-111 -111 -274 -111t-276 111q-112 111 -112 274zM449 35q145 0 242 99q99 99 99 242t-99 242q-97 99 -242 99q-146 0 -245 -99t-99 -242t99 -242t245 -99zM467 246h-187v68l143 261
h126v-257h45v-72h-45v-91h-82v91zM467 490l-95 -172h95v172z" />
    <glyph glyph-name="uni2784" unicode="&#x2784;" horiz-adv-x="894" 
d="M448 -9q-163 0 -276 110q-111 111 -111 274q0 162 112 273q112 112 275 112q162 0 273 -112q112 -111 112 -273t-112 -273q-111 -111 -273 -111zM448 35q144 0 242 99q99 99 99 241q0 144 -99 243q-98 99 -242 99q-145 0 -244 -99t-99 -243q0 -142 99 -241t244 -99z
M452 150q-66 0 -107 38t-40 98h84q0 -28 17.5 -46t46.5 -18t47.5 20t18.5 51q0 32 -19 53t-48 21q-46 0 -59 -36h-79v244h264v-71h-183v-51l-2 -37l3 -2q22 25 73 25q60 0 97 -40t37 -103q0 -66 -41 -106t-110 -40z" />
    <glyph glyph-name="uni2785" unicode="&#x2785;" horiz-adv-x="914" 
d="M853 366q0 -167 -115 -281q-116 -113 -281 -113q-167 0 -282 114q-114 114 -114 280t114 280q115 114 282 114t281 -114q115 -114 115 -280zM107 366q0 -145 101 -248q101 -101 249 -101q147 0 248 101q102 102 102 248q0 148 -102 248q-101 102 -248 102
q-149 0 -250 -102q-100 -100 -100 -248zM299 361q0 103 42.5 161.5t119.5 58.5q58 0 96.5 -31t43.5 -82h-84q-4 19 -20.5 30.5t-37.5 11.5q-75 0 -75 -120h3q12 21 37 34t54 13q57 0 93.5 -40t36.5 -102q0 -64 -42.5 -105t-108.5 -41q-75 0 -116.5 56t-41.5 156zM459 222
q29 0 47 20t18 52t-18 52.5t-47 20.5t-47.5 -21.5t-18.5 -52.5t18 -51t48 -20z" />
    <glyph glyph-name="uni2786" unicode="&#x2786;" horiz-adv-x="896" 
d="M449 -9q-163 0 -276 111q-112 111 -112 273t112 273q112 112 276 112q163 0 274 -112q112 -111 112 -273t-112 -273q-113 -111 -274 -111zM449 35q145 0 242 99q99 99 99 241q0 144 -99 243q-97 99 -242 99q-146 0 -245 -99t-99 -243q0 -142 99 -241t245 -99zM443 155
h-88q13 93 51 185t92 164h-122v-69h-62v140h287v-57q-123 -160 -158 -363z" />
    <glyph glyph-name="uni2787" unicode="&#x2787;" horiz-adv-x="894" 
d="M448 -9q-162 0 -275 111q-112 111 -112 273t112 273q112 112 275 112q162 0 273 -112q112 -111 112 -273t-112 -273q-111 -111 -273 -111zM448 35q143 0 241 99q99 99 99 241q0 143 -99 242q-97 100 -241 100q-145 0 -244 -99t-99 -243q0 -142 99 -241t244 -99zM447 149
q-69 0 -110 32.5t-41 86.5q0 30 16.5 56t44.5 39v5q-28 13 -44.5 38.5t-16.5 56.5q0 54 41.5 86t109.5 32q69 0 110 -32t41 -86q0 -31 -16 -57t-45 -38v-5q27 -12 44 -39t17 -57q0 -54 -41.5 -86t-109.5 -32zM447 399q30 0 47.5 15.5t17.5 39.5q0 25 -18 40t-47 15
q-30 0 -47.5 -15.5t-17.5 -39.5q0 -25 18 -40t47 -15zM447 222q30 0 47.5 15.5t17.5 39.5q0 25 -18 40t-47 15q-30 0 -47.5 -15.5t-17.5 -39.5q0 -26 17.5 -40.5t47.5 -14.5z" />
    <glyph glyph-name="uni2788" unicode="&#x2788;" horiz-adv-x="896" 
d="M449 -9q-163 0 -276 111q-112 111 -112 274q0 161 112 272q112 112 276 112q162 0 274 -112q112 -111 112 -272q0 -163 -112 -274q-113 -111 -274 -111zM449 35q145 0 242 99q99 99 99 242q0 144 -99 241q-97 99 -242 99q-146 0 -245 -99q-99 -97 -99 -241
q0 -143 99 -242t245 -99zM449 149q-58 0 -96 31t-44 82h83q10 -42 59 -42q75 0 75 120h-3q-26 -45 -92 -45q-57 0 -93 39t-36 101q0 65 42 105.5t109 40.5q75 0 116 -56t41 -156q0 -104 -42 -162t-119 -58zM452 509q-30 0 -48 -20t-18 -53t18 -53t48 -20q29 0 46.5 21
t17.5 53q0 31 -17.5 51.5t-46.5 20.5z" />
    <glyph glyph-name="uniECE0" unicode="&#xece0;" horiz-adv-x="1031" 
d="M148 314v-254l-95 -70v739h363l-78 -100h-190v-217h141q20 142 121 233q104 92 242 92q90 0 170 -43.5t130 -120.5l-79 -59q-36 57 -97 91t-126 34q-110 0 -187 -81q-77 -80 -77 -193q0 -112 77 -194q77 -81 187 -81q66 0 125.5 33t95.5 91l81 -59q-51 -78 -130.5 -121.5
t-169.5 -43.5q-137 0 -241 92q-102 90 -122 232h-141zM649 242q30 0 58.5 17.5t44.5 47.5l79 -60q-30 -48 -77.5 -75t-102.5 -27q-89 0 -152 64q-63 65 -63 156q0 89 63 153q65 65 152 65q54 0 102 -27.5t78 -75.5l-79 -60q-16 30 -43.5 47.5t-59.5 17.5q-47 0 -82 -35
q-33 -34 -33 -85q0 -49 33 -87q33 -36 82 -36z" />
    <glyph glyph-name="uniEFCC" unicode="&#xefcc;" horiz-adv-x="1186" 
d="M469 734q20 0 38 -2v-112q-22 3 -37 3q-114 0 -184 -73q-69 -72 -69 -189q0 -115 69 -189q70 -72 184 -72q25 0 37 3v-113q-24 -2 -38 -2q-162 0 -262 103t-100 270t100 270t262 103zM732 366q0 166 96 267q98 101 260 101q20 0 44 -2v-112q-22 3 -40 3
q-96 0 -162.5 -52.5t-81.5 -151.5h208v-106h-208q15 -99 81.5 -151.5t162.5 -52.5q30 0 40 3v-113q-26 -2 -44 -2q-163 0 -260 100q-96 101 -96 269z" />
    <glyph glyph-name="uniF8FF" unicode="&#xf8ff;" horiz-adv-x="640" 
d="M428 632q-16 -21 -43 -36.5t-48 -19.5l-18 -3l-1 10q-6 57 31 104q22 29 51 46.5t48 18.5l18 2q-1 -2 1 -19q2 -16 -8.5 -47t-30.5 -56zM210 0q-44 0 -89 53q-45 56 -73 134q-28 80 -28 156q0 104 53 166q54 62 124 62q28 0 70 -17t56 -17q15 0 56 18q42 18 80 18
q51 0 87 -23t49 -45l5 -8q-21 -16 -28 -22q-52 -48 -52 -120q0 -58 29.5 -96t59.5 -53l10 -5q-5 -19 -28 -70q-14 -33 -33 -61q-20 -29 -48 -49t-55 -20q-19 0 -59 14q-38 15 -62 15q-26 0 -66 -15t-58 -15z" />
    <glyph glyph-name="NULL" 
 />
    <glyph glyph-name="CR.001" horiz-adv-x="333" 
 />
    <glyph glyph-name="uni00A40301" horiz-adv-x="418" 
d="M494 893l-229 -128l-45 74l211 158zM346 729v-507q0 -231 -234 -231q-58 0 -97 9v131q30 -5 65 -5q55 0 80 28t25 87v488h161z" />
    <glyph glyph-name="G.ss01" horiz-adv-x="774" 
d="M394 -10q-163 0 -262 102q-98 104 -98 270q0 168 99 272t261 104q135 0 226 -70q93 -71 109 -185h-173q-11 53 -55 83.5t-108 30.5q-89 0 -139 -62.5t-50 -172.5q0 -112 50.5 -173t143.5 -61q73 0 120.5 38t51.5 99h-178v127h348v-67q0 -151 -96 -243q-95 -92 -250 -92z
" />
    <glyph glyph-name="Gbreve.ss01" horiz-adv-x="774" 
d="M457 937h94q0 -73 -44.5 -117.5t-119.5 -44.5q-74 0 -118 45t-44 117h93q0 -37 18.5 -57t50.5 -20q33 0 51.5 20.5t18.5 56.5zM394 -10q-163 0 -262 102q-98 104 -98 270q0 168 99 272t261 104q135 0 226 -70q93 -71 109 -185h-173q-11 53 -55 83.5t-108 30.5
q-89 0 -139 -62.5t-50 -172.5q0 -112 50.5 -173t143.5 -61q73 0 120.5 38t51.5 99h-178v127h348v-67q0 -151 -96 -243q-95 -92 -250 -92z" />
    <glyph glyph-name="uni0122.ss01" horiz-adv-x="774" 
d="M394 -10q-163 0 -262 102q-98 104 -98 270q0 168 99 272t261 104q135 0 226 -70q93 -71 109 -185h-173q-11 53 -55 83.5t-108 30.5q-89 0 -139 -62.5t-50 -172.5q0 -112 50.5 -173t143.5 -61q73 0 120.5 38t51.5 99h-178v127h348v-67q0 -151 -96 -243q-95 -92 -250 -92z
M333 -290v42q53 0 53 48v18h-60v128h124v-134q0 -102 -117 -102z" />
    <glyph glyph-name="Gdotaccent.ss01" horiz-adv-x="774" 
d="M447 782h-119v147h119v-147zM394 -10q-163 0 -262 102q-98 104 -98 270q0 168 99 272t261 104q135 0 226 -70q93 -71 109 -185h-173q-11 53 -55 83.5t-108 30.5q-89 0 -139 -62.5t-50 -172.5q0 -112 50.5 -173t143.5 -61q73 0 120.5 38t51.5 99h-178v127h348v-67
q0 -151 -96 -243q-95 -92 -250 -92z" />
    <glyph glyph-name="R.ss02" horiz-adv-x="715" 
d="M238 0h-161v729h333q122 0 192 -66q70 -64 70 -175q0 -70 -36 -125.5t-95 -77.5v-8q42 -16 76 -103l71 -174h-178l-73 179q-18 41 -39 54q-22 14 -67 14h-93v-247zM238 585v-207h144q56 0 87.5 26.5t31.5 76.5q0 51 -31.5 77.5t-87.5 26.5h-144z" />
    <glyph glyph-name="Racute.ss02" horiz-adv-x="715" 
d="M603 893l-229 -128l-45 74l211 158zM238 0h-161v729h333q122 0 192 -66q70 -64 70 -175q0 -70 -36 -125.5t-95 -77.5v-8q42 -16 76 -103l71 -174h-178l-73 179q-18 41 -39 54q-22 14 -67 14h-93v-247zM238 585v-207h144q56 0 87.5 26.5t31.5 76.5q0 51 -31.5 77.5
t-87.5 26.5h-144z" />
    <glyph glyph-name="Rcaron.ss02" horiz-adv-x="715" 
d="M331 784l-140 139l72 69l111 -119l111 119l72 -69l-139 -139h-87zM238 0h-161v729h333q122 0 192 -66q70 -64 70 -175q0 -70 -36 -125.5t-95 -77.5v-8q42 -16 76 -103l71 -174h-178l-73 179q-18 41 -39 54q-22 14 -67 14h-93v-247zM238 585v-207h144q56 0 87.5 26.5
t31.5 76.5q0 51 -31.5 77.5t-87.5 26.5h-144z" />
    <glyph glyph-name="uni0156.ss02" horiz-adv-x="715" 
d="M238 0h-161v729h333q122 0 192 -66q70 -64 70 -175q0 -70 -36 -125.5t-95 -77.5v-8q42 -16 76 -103l71 -174h-178l-73 179q-18 41 -39 54q-22 14 -67 14h-93v-247zM238 585v-207h144q56 0 87.5 26.5t31.5 76.5q0 51 -31.5 77.5t-87.5 26.5h-144zM319 -290v42q53 0 53 48
v18h-60v128h124v-134q0 -102 -117 -102z" />
    <glyph glyph-name="i.loclTRK" horiz-adv-x="276" 
d="M213 589h-148v147h148v-147zM214 0h-152v536h152v-536z" />
    <glyph glyph-name="uni006A0301" horiz-adv-x="276" 
d="M368 700l-229 -128l-45 74l211 158zM34 -181q-49 0 -74 5v112q26 -2 27 -2q51 0 63 19q13 17 13 65v518h152v-530q0 -187 -181 -187z" />
    <glyph glyph-name="germandbls.alt01" horiz-adv-x="694" 
d="M239 0h-162v490q0 117 71 182q70 66 189 66q95 0 166 -44.5t100 -120.5l-98 -146q72 -19 112.5 -73.5t40.5 -130.5q0 -104 -76 -164q-76 -59 -202 -59h-77v139h47q142 0 142 105q0 110 -182 102l132 213q-14 21 -43 33.5t-60 12.5q-45 0 -72.5 -28.5t-27.5 -73.5v-503z
" />
    <glyph glyph-name="a.ss01" horiz-adv-x="646" 
d="M452 536h132v-536h-152v98h-9q-19 -51 -65 -79.5t-111 -28.5q-99 0 -159 74q-59 74 -59 204q0 128 58 202q58 76 160 76q60 0 107.5 -29t68.5 -79h9zM432 250v35q0 60 -35 98t-92 38q-56 0 -88.5 -39.5t-32.5 -111.5q0 -73 32 -114t91 -41q57 0 91 37t34 98z" />
    <glyph glyph-name="aacute.ss01" horiz-adv-x="646" 
d="M519 705l-229 -128l-45 74l211 158zM452 536h132v-536h-152v98h-9q-19 -51 -65 -79.5t-111 -28.5q-99 0 -159 74q-59 74 -59 204q0 128 58 202q58 76 160 76q60 0 107.5 -29t68.5 -79h9zM432 250v35q0 60 -35 98t-92 38q-56 0 -88.5 -39.5t-32.5 -111.5q0 -73 32 -114
t91 -41q57 0 91 37t34 98z" />
    <glyph glyph-name="abreve.ss01" horiz-adv-x="646" 
d="M360 749h94q0 -73 -44.5 -117.5t-119.5 -44.5q-74 0 -118 45t-44 117h93q0 -37 18.5 -57t50.5 -20q33 0 51.5 20.5t18.5 56.5zM452 536h132v-536h-152v98h-9q-19 -51 -65 -79.5t-111 -28.5q-99 0 -159 74q-59 74 -59 204q0 128 58 202q58 76 160 76q60 0 107.5 -29
t68.5 -79h9zM432 250v35q0 60 -35 98t-92 38q-56 0 -88.5 -39.5t-32.5 -111.5q0 -73 32 -114t91 -41q57 0 91 37t34 98z" />
    <glyph glyph-name="acircumflex.ss01" horiz-adv-x="646" 
d="M180 580l-72 70l140 137h87l139 -137l-72 -70l-111 118zM452 536h132v-536h-152v98h-9q-19 -51 -65 -79.5t-111 -28.5q-99 0 -159 74q-59 74 -59 204q0 128 58 202q58 76 160 76q60 0 107.5 -29t68.5 -79h9zM432 250v35q0 60 -35 98t-92 38q-56 0 -88.5 -39.5
t-32.5 -111.5q0 -73 32 -114t91 -41q57 0 91 37t34 98z" />
    <glyph glyph-name="adieresis.ss01" horiz-adv-x="646" 
d="M245 593h-119v147h119v-147zM455 593h-119v147h119v-147zM452 536h132v-536h-152v98h-9q-19 -51 -65 -79.5t-111 -28.5q-99 0 -159 74q-59 74 -59 204q0 128 58 202q58 76 160 76q60 0 107.5 -29t68.5 -79h9zM432 250v35q0 60 -35 98t-92 38q-56 0 -88.5 -39.5
t-32.5 -111.5q0 -73 32 -114t91 -41q57 0 91 37t34 98z" />
    <glyph glyph-name="agrave.ss01" horiz-adv-x="646" 
d="M336 654l-45 -73l-229 128l63 103zM452 536h132v-536h-152v98h-9q-19 -51 -65 -79.5t-111 -28.5q-99 0 -159 74q-59 74 -59 204q0 128 58 202q58 76 160 76q60 0 107.5 -29t68.5 -79h9zM432 250v35q0 60 -35 98t-92 38q-56 0 -88.5 -39.5t-32.5 -111.5q0 -73 32 -114
t91 -41q57 0 91 37t34 98z" />
    <glyph glyph-name="amacron.ss01" horiz-adv-x="646" 
d="M470 593h-358v113h358v-113zM452 536h132v-536h-152v98h-9q-19 -51 -65 -79.5t-111 -28.5q-99 0 -159 74q-59 74 -59 204q0 128 58 202q58 76 160 76q60 0 107.5 -29t68.5 -79h9zM432 250v35q0 60 -35 98t-92 38q-56 0 -88.5 -39.5t-32.5 -111.5q0 -73 32 -114t91 -41
q57 0 91 37t34 98z" />
    <glyph glyph-name="aogonek.ss01" horiz-adv-x="646" 
d="M545 -120q28 0 58 12v-80q-33 -16 -85 -16q-58 0 -92.5 30t-34.5 79q0 58 43 95h-2v98h-9q-19 -51 -65 -79.5t-111 -28.5q-99 0 -159 74q-59 74 -59 204q0 128 58 202q58 76 160 76q60 0 107.5 -29t68.5 -79h9l20 98h132v-536h-11q-91 -15 -91 -75q0 -45 63 -45zM432 250
v35q0 60 -35 98t-92 38q-56 0 -88.5 -39.5t-32.5 -111.5q0 -73 32 -114t91 -41q57 0 91 37t34 98z" />
    <glyph glyph-name="aring.ss01" horiz-adv-x="646" 
d="M432 438l20 98h132v-536h-152v98h-9q-19 -51 -65 -79.5t-111 -28.5q-99 0 -159 74q-59 74 -59 204q0 102 38 171.5t107 94.5q-32 35 -32 85q0 55 35.5 89t91.5 34q57 0 92.5 -34t35.5 -89q0 -65 -48 -99q51 -29 74 -82h9zM270 669q-21 0 -33.5 -13.5t-12.5 -36.5
q0 -22 12.5 -35.5t33.5 -13.5q20 0 32.5 13.5t12.5 35.5q0 23 -12.5 36.5t-32.5 13.5zM432 250v35q0 60 -35 98t-92 38q-56 0 -88.5 -39.5t-32.5 -111.5q0 -73 32 -114t91 -41q57 0 91 37t34 98z" />
    <glyph glyph-name="atilde.ss01" horiz-adv-x="646" 
d="M355 587q-31 0 -68 19q-38 20 -59 20q-28 0 -60 -36l-60 41q41 101 121 101q28 0 65 -19t61 -19q35 0 58 38l63 -40q-40 -105 -121 -105zM452 536h132v-536h-152v98h-9q-19 -51 -65 -79.5t-111 -28.5q-99 0 -159 74q-59 74 -59 204q0 128 58 202q58 76 160 76
q60 0 107.5 -29t68.5 -79h9zM432 250v35q0 60 -35 98t-92 38q-56 0 -88.5 -39.5t-32.5 -111.5q0 -73 32 -114t91 -41q57 0 91 37t34 98z" />
    <glyph glyph-name="g.ss01" horiz-adv-x="637" 
d="M49 -9h150q5 -28 33 -44t71 -16q56 0 88 27t32 73v92h-8q-21 -46 -65.5 -72.5t-100.5 -26.5q-97 0 -159 72q-61 71 -61 189q0 116 60 188q61 73 162 73q127 0 174 -108h9l9 98h132v-487q0 -106 -74 -166q-73 -60 -198 -60q-110 0 -179 46t-75 122zM423 264v33
q0 51 -34 85.5t-85 34.5q-54 0 -87 -37t-33 -99q0 -63 32.5 -100t86.5 -37q53 0 86 35q34 35 34 85z" />
    <glyph glyph-name="gbreve.ss01" horiz-adv-x="637" 
d="M333 750h94q0 -73 -44.5 -117.5t-119.5 -44.5q-74 0 -118 45t-44 117h93q0 -37 18.5 -57t50.5 -20q33 0 51.5 20.5t18.5 56.5zM49 -9h150q5 -28 33 -44t71 -16q56 0 88 27t32 73v92h-8q-21 -46 -65.5 -72.5t-100.5 -26.5q-97 0 -159 72q-61 71 -61 189q0 116 60 188
q61 73 162 73q127 0 174 -108h9l9 98h132v-487q0 -106 -74 -166q-73 -60 -198 -60q-110 0 -179 46t-75 122zM423 264v33q0 51 -34 85.5t-85 34.5q-54 0 -87 -37t-33 -99q0 -63 32.5 -100t86.5 -37q53 0 86 35q34 35 34 85z" />
    <glyph glyph-name="uni0123.ss01" horiz-adv-x="637" 
d="M319 849v-43q-52 0 -52 -48v-30h59v-129h-123v147q0 103 116 103zM49 -9h150q5 -28 33 -44t71 -16q56 0 88 27t32 73v92h-8q-21 -46 -65.5 -72.5t-100.5 -26.5q-97 0 -159 72q-61 71 -61 189q0 116 60 188q61 73 162 73q127 0 174 -108h9l9 98h132v-487q0 -106 -74 -166
q-73 -60 -198 -60q-110 0 -179 46t-75 122zM423 264v33q0 51 -34 85.5t-85 34.5q-54 0 -87 -37t-33 -99q0 -63 32.5 -100t86.5 -37q53 0 86 35q34 35 34 85z" />
    <glyph glyph-name="gdotaccent.ss01" horiz-adv-x="637" 
d="M324 594h-119v147h119v-147zM49 -9h150q5 -28 33 -44t71 -16q56 0 88 27t32 73v92h-8q-21 -46 -65.5 -72.5t-100.5 -26.5q-97 0 -159 72q-61 71 -61 189q0 116 60 188q61 73 162 73q127 0 174 -108h9l9 98h132v-487q0 -106 -74 -166q-73 -60 -198 -60q-110 0 -179 46
t-75 122zM423 264v33q0 51 -34 85.5t-85 34.5q-54 0 -87 -37t-33 -99q0 -63 32.5 -100t86.5 -37q53 0 86 35q34 35 34 85z" />
    <glyph glyph-name="a.ss02" horiz-adv-x="566" 
d="M26 151q0 80 53.5 125.5t146.5 45.5h138v33q0 76 -88 76q-40 0 -63.5 -18.5t-23.5 -49.5h-149q7 86 73 134.5t174 48.5q113 0 171.5 -54t58.5 -152v-340h-133l-15 88h-9q-17 -47 -60.5 -72.5t-102.5 -25.5q-78 0 -124.5 44t-46.5 117zM180 167q0 -29 20 -45.5t55 -16.5
q51 0 80.5 29.5t29.5 77.5v15h-103q-82 0 -82 -60z" />
    <glyph glyph-name="aacute.ss02" horiz-adv-x="566" 
d="M513 705l-229 -128l-45 74l211 158zM26 151q0 80 53.5 125.5t146.5 45.5h138v33q0 76 -88 76q-40 0 -63.5 -18.5t-23.5 -49.5h-149q7 86 73 134.5t174 48.5q113 0 171.5 -54t58.5 -152v-340h-133l-15 88h-9q-17 -47 -60.5 -72.5t-102.5 -25.5q-78 0 -124.5 44t-46.5 117z
M180 167q0 -29 20 -45.5t55 -16.5q51 0 80.5 29.5t29.5 77.5v15h-103q-82 0 -82 -60z" />
    <glyph glyph-name="abreve.ss02" horiz-adv-x="566" 
d="M353 749h94q0 -73 -44.5 -117.5t-119.5 -44.5q-74 0 -118 45t-44 117h93q0 -37 18.5 -57t50.5 -20q33 0 51.5 20.5t18.5 56.5zM26 151q0 80 53.5 125.5t146.5 45.5h138v33q0 76 -88 76q-40 0 -63.5 -18.5t-23.5 -49.5h-149q7 86 73 134.5t174 48.5q113 0 171.5 -54
t58.5 -152v-340h-133l-15 88h-9q-17 -47 -60.5 -72.5t-102.5 -25.5q-78 0 -124.5 44t-46.5 117zM180 167q0 -29 20 -45.5t55 -16.5q51 0 80.5 29.5t29.5 77.5v15h-103q-82 0 -82 -60z" />
    <glyph glyph-name="acircumflex.ss02" horiz-adv-x="566" 
d="M174 580l-72 70l140 137h87l139 -137l-72 -70l-111 118zM26 151q0 80 53.5 125.5t146.5 45.5h138v33q0 76 -88 76q-40 0 -63.5 -18.5t-23.5 -49.5h-149q7 86 73 134.5t174 48.5q113 0 171.5 -54t58.5 -152v-340h-133l-15 88h-9q-17 -47 -60.5 -72.5t-102.5 -25.5
q-78 0 -124.5 44t-46.5 117zM180 167q0 -29 20 -45.5t55 -16.5q51 0 80.5 29.5t29.5 77.5v15h-103q-82 0 -82 -60z" />
    <glyph glyph-name="adieresis.ss02" horiz-adv-x="566" 
d="M238 593h-119v147h119v-147zM448 593h-119v147h119v-147zM26 151q0 80 53.5 125.5t146.5 45.5h138v33q0 76 -88 76q-40 0 -63.5 -18.5t-23.5 -49.5h-149q7 86 73 134.5t174 48.5q113 0 171.5 -54t58.5 -152v-340h-133l-15 88h-9q-17 -47 -60.5 -72.5t-102.5 -25.5
q-78 0 -124.5 44t-46.5 117zM180 167q0 -29 20 -45.5t55 -16.5q51 0 80.5 29.5t29.5 77.5v15h-103q-82 0 -82 -60z" />
    <glyph glyph-name="agrave.ss02" horiz-adv-x="566" 
d="M330 654l-45 -73l-229 128l63 103zM26 151q0 80 53.5 125.5t146.5 45.5h138v33q0 76 -88 76q-40 0 -63.5 -18.5t-23.5 -49.5h-149q7 86 73 134.5t174 48.5q113 0 171.5 -54t58.5 -152v-340h-133l-15 88h-9q-17 -47 -60.5 -72.5t-102.5 -25.5q-78 0 -124.5 44t-46.5 117z
M180 167q0 -29 20 -45.5t55 -16.5q51 0 80.5 29.5t29.5 77.5v15h-103q-82 0 -82 -60z" />
    <glyph glyph-name="amacron.ss02" horiz-adv-x="566" 
d="M463 593h-358v113h358v-113zM26 151q0 80 53.5 125.5t146.5 45.5h138v33q0 76 -88 76q-40 0 -63.5 -18.5t-23.5 -49.5h-149q7 86 73 134.5t174 48.5q113 0 171.5 -54t58.5 -152v-340h-133l-15 88h-9q-17 -47 -60.5 -72.5t-102.5 -25.5q-78 0 -124.5 44t-46.5 117z
M180 167q0 -29 20 -45.5t55 -16.5q51 0 80.5 29.5t29.5 77.5v15h-103q-82 0 -82 -60z" />
    <glyph glyph-name="aogonek.ss02" horiz-adv-x="566" 
d="M489 -120q28 0 58 12v-80q-33 -16 -85 -16q-58 0 -92.5 30t-34.5 79q0 61 48 99l-14 84h-9q-17 -47 -60.5 -72.5t-102.5 -25.5q-78 0 -124.5 44t-46.5 117q0 80 53.5 125.5t146.5 45.5h138v33q0 76 -88 76q-40 0 -63.5 -18.5t-23.5 -49.5h-149q7 86 73 134.5t174 48.5
q113 0 171.5 -54t58.5 -152v-340q-91 -15 -91 -75q0 -45 63 -45zM365 212v15h-103q-82 0 -82 -60q0 -29 20 -45.5t55 -16.5q51 0 80.5 29.5t29.5 77.5z" />
    <glyph glyph-name="aring.ss02" horiz-adv-x="566" 
d="M376 535q141 -39 141 -195v-340h-133l-15 88h-9q-17 -47 -60.5 -72.5t-102.5 -25.5q-78 0 -124.5 44t-46.5 117q0 80 53.5 125.5t146.5 45.5h138v33q0 76 -88 76q-40 0 -63.5 -18.5t-23.5 -49.5h-149q6 65 45.5 109.5t106.5 61.5q-36 34 -36 90q0 55 35.5 89t92.5 34
t92 -34q36 -35 36 -89t-36 -89zM317 660q-13 14 -33 14t-33 -14q-12 -14 -12 -36t12 -36q13 -13 33 -13t33 13q13 14 13 36t-13 36zM365 212v15h-103q-82 0 -82 -60q0 -29 20 -45.5t55 -16.5q51 0 80.5 29.5t29.5 77.5z" />
    <glyph glyph-name="atilde.ss02" horiz-adv-x="566" 
d="M348 587q-31 0 -68 19q-38 20 -59 20q-29 0 -60 -36l-60 41q41 101 121 101q28 0 65 -19t61 -19q35 0 58 38l63 -40q-40 -105 -121 -105zM26 151q0 80 53.5 125.5t146.5 45.5h138v33q0 76 -88 76q-40 0 -63.5 -18.5t-23.5 -49.5h-149q7 86 73 134.5t174 48.5
q113 0 171.5 -54t58.5 -152v-340h-133l-15 88h-9q-17 -47 -60.5 -72.5t-102.5 -25.5q-78 0 -124.5 44t-46.5 117zM180 167q0 -29 20 -45.5t55 -16.5q51 0 80.5 29.5t29.5 77.5v15h-103q-82 0 -82 -60z" />
    <glyph glyph-name="h_t_t_p" horiz-adv-x="2027" 
d="M109 764h1809v-945h-663v533h-156v-229h96v-106h-117q-59 0 -87 25.5t-28 88.5v221h-179v-229h97v-106h-118q-58 0 -86 25.5t-28 88.5v221h-87v108h87v139h135v-139h179v139h136v-139h274l17 -88h8q18 45 61 71t98 26q90 0 144 -64q54 -65 54 -166q0 -104 -55 -168
q-56 -63 -144 -63q-57 0 -99 25.5t-59 70.5h-8v-203h438v780h-1629v-308h9q43 96 159 96q80 0 122.5 -53t42.5 -148v-251h-134v238q0 50 -24 77t-67 27q-50 0 -79 -34.5t-29 -92.5v-331h996v-82h-1086v945zM1390 256v-34q0 -43 32.5 -73.5t81.5 -30.5q53 0 84 34.5t31 87.5
t-31 86.5t-82 33.5q-48 0 -83 -32q-33 -32 -33 -72z" />
    <glyph glyph-name="w_w_w" horiz-adv-x="2005" 
d="M319 0h-168l-146 536h151l50 -222l33 -173h6l71 395h145l70 -397h5l85 397h150l82 -395h6l72 395h145l70 -397h5l85 397h150l82 -395h6l72 395h145l70 -397h5l32 172l53 225h149l-148 -536h-167l-65 346h-6l-65 -346h-168l-72 311l-72 -311h-167l-65 346h-6l-65 -346
h-168l-72 308l-72 -308h-166l-66 346h-6z" />
    <glyph glyph-name="g_g.ss01" horiz-adv-x="1273" 
d="M49 -9h150q5 -28 33 -44t71 -16q56 0 88 27t32 73v92h-8q-21 -46 -65.5 -72.5t-100.5 -26.5q-97 0 -159 72q-61 71 -61 189q0 116 60 188q61 73 162 73q127 0 174 -108h9l9 98h132v-487q0 -106 -74 -166q-73 -60 -198 -60q-110 0 -179 46t-75 122zM686 -9h150
q5 -28 33 -44t71 -16q56 0 88 27t32 73v92h-8q-21 -46 -65.5 -72.5t-100.5 -26.5q-98 0 -159 72q-61 71 -61 189q0 116 60 188q61 73 162 73q127 0 174 -108h9l9 98h132v-487q0 -106 -74 -166t-198 -60q-110 0 -179 46t-75 122zM423 264v33q0 51 -34 85.5t-85 34.5
q-54 0 -87 -37t-33 -99q0 -63 32.5 -100t86.5 -37q53 0 86 35q34 35 34 85zM1060 264v33q0 51 -34 85.5t-85 34.5q-54 0 -87 -37t-33 -99q0 -63 32.5 -100t86.5 -37q53 0 86 35q34 35 34 85z" />
    <glyph glyph-name="zero.ss01" horiz-adv-x="633" 
d="M316 -6q-125 0 -199 98q-73 97 -73 272q0 176 75 271t199 95q125 0 197 -97q73 -97 73 -271q0 -176 -74 -273q-74 -95 -198 -95zM315 127q61 0 87.5 57.5t26.5 172.5q0 132 -29 187q-28 54 -83 54q-61 0 -87.5 -57t-26.5 -172q0 -128 28 -185t84 -57zM368 315h-105v94
h105v-94z" />
    <glyph glyph-name="zero.tf" horiz-adv-x="620" 
d="M311 730q125 0 197 -97q73 -97 73 -271q0 -176 -74 -273q-74 -95 -198 -95q-125 0 -199 98q-73 97 -73 272q0 176 75 271t199 95zM310 598q-61 0 -87.5 -57t-26.5 -172v-1l215 121q-22 109 -101 109zM308 127q61 0 87.5 57.5t26.5 172.5v2l-215 -122q23 -110 101 -110z
" />
    <glyph glyph-name="one.tf" horiz-adv-x="620" 
d="M399 721v-589h174v-132h-526v132h197v343h-188v118h27q75 0 119 33.5t51 94.5h146z" />
    <glyph glyph-name="two.tf" horiz-adv-x="620" 
d="M375 134h186v-134h-511v24q0 39 7 68q14 68 44 107q3 4 35 43q12 15 45 40q35 28 47 36l54 38q63 43 88.5 74.5t25.5 76.5q0 42 -25.5 66.5t-68.5 24.5q-48 0 -73.5 -29t-21.5 -82h-152q-3 110 67 176q70 67 188 67q111 0 178 -61t67 -163q0 -73 -37.5 -128.5
t-114.5 -110.5q-19 -15 -47 -33q-31 -20 -52 -36q-51 -36 -76 -73q72 9 147 9z" />
    <glyph glyph-name="three.tf" horiz-adv-x="620" 
d="M307 -10q-121 0 -190 63t-71 170h153q-1 -47 29 -74.5t79 -27.5q50 0 80 26.5t30 71.5q0 42 -28 66.5t-74 24.5h-81v116h70q48 0 75 24.5t27 64.5q0 39 -26.5 61.5t-70.5 22.5q-47 0 -75 -26t-29 -72h-154q2 105 74 166q73 63 190 63q109 0 179 -53q69 -52 69 -143
q0 -54 -26.5 -96t-73.5 -61v-7q53 -17 82 -61t29 -103q0 -97 -75 -157q-74 -59 -192 -59z" />
    <glyph glyph-name="four.tf" horiz-adv-x="620" 
d="M508 721v-455h80v-125h-80v-141h-152v141h-332v117l272 463h212zM356 567l-176 -301h176v301z" />
    <glyph glyph-name="five.tf" horiz-adv-x="620" 
d="M339 485q107 0 172 -68t65 -175q0 -113 -73 -183q-73 -69 -195 -69q-117 0 -190 65q-72 66 -71 171h154q0 -46 29.5 -74.5t78.5 -28.5q50 0 81 32t31 83q0 52 -32 85.5t-83 33.5q-36 0 -63.5 -17t-37.5 -45h-145l19 426h448v-133h-313l-7 -138l7 -2q43 37 125 37z" />
    <glyph glyph-name="six.tf" horiz-adv-x="620" 
d="M318 -9q-135 0 -205 95t-70 273q0 181 73 276t210 95q102 0 166 -50.5t76 -138.5h-152q-7 30 -32 45.5t-61 15.5q-65 0 -96.5 -51t-26.5 -141h7q44 74 149 74q102 0 163 -66q63 -66 63 -174q0 -114 -72 -184q-72 -69 -192 -69zM322 123q49 0 78 32.5t29 86.5
q0 53 -29.5 85.5t-77.5 32.5q-49 0 -78 -33.5t-29 -86.5q0 -54 29.5 -85.5t77.5 -31.5z" />
    <glyph glyph-name="seven.tf" horiz-adv-x="620" 
d="M160 470h-123v251h548v-110q-106 -139 -186 -308q-79 -168 -102 -303h-164q20 133 93 293q72 159 176 295h-242v-118z" />
    <glyph glyph-name="eight.tf" horiz-adv-x="620" 
d="M46 191q0 117 102 166v8q-48 23 -75 66.5t-27 98.5q0 89 73 144q74 56 192 56q117 0 190 -56q73 -55 73 -144q0 -55 -27 -99t-75 -66v-8q49 -23 75.5 -67t26.5 -100q0 -90 -73 -145t-191 -55q-117 0 -191 56q-73 55 -73 145zM310 422q50 0 78.5 24t28.5 63q0 42 -29 65.5
t-78 23.5q-50 0 -78.5 -24t-28.5 -65t29 -64t78 -23zM203 211q0 -42 29 -65.5t78 -23.5q50 0 78.5 24.5t28.5 64.5q0 41 -29 64.5t-78 23.5q-50 0 -78.5 -24t-28.5 -64z" />
    <glyph glyph-name="nine.tf" horiz-adv-x="620" 
d="M297 -9q-99 0 -164 51q-65 52 -75 138h152q13 -61 95 -61q64 0 94.5 50t25.5 141h-7q-43 -73 -148 -73q-102 0 -165 66q-62 67 -62 174q0 114 71 183q71 70 190 70q136 0 207 -98t71 -278q0 -363 -285 -363zM302 361q50 0 78.5 33t28.5 87q0 53 -29 84.5t-78 31.5
t-77.5 -32t-28.5 -86t29 -86t77 -32z" />
    <glyph glyph-name="zero.tf.ss01" horiz-adv-x="620" 
d="M311 730q125 0 197 -97q73 -97 73 -271q0 -176 -74 -273q-74 -95 -198 -95q-125 0 -199 98q-73 97 -73 272q0 176 75 271t199 95zM310 598q-100 0 -112 -172h222q-8 92 -35 132t-75 40zM308 127q53 0 79.5 42.5t32.5 128.5h-221q13 -171 109 -171z" />
    <glyph glyph-name="zero.dnom" horiz-adv-x="417" 
d="M208 -4q-87 0 -133 65t-46 181q0 118 47.5 181t132.5 63q87 0 133 -64.5t46 -180.5q0 -118 -48.5 -181.5t-131.5 -63.5zM207 84q41 0 58.5 38.5t17.5 115.5q0 161 -74 161q-41 0 -58.5 -38t-17.5 -116q0 -161 74 -161z" />
    <glyph glyph-name="one.dnom" horiz-adv-x="315" 
d="M149 314h-125v81h45q42 0 64 21.5t22 60.5v3h94v-480h-100v314z" />
    <glyph glyph-name="two.dnom" horiz-adv-x="381" 
d="M153 85l62 3h128v-88h-311v16q0 100 75 166q13 11 46 37.5t48 40t29.5 36.5t14.5 44q0 28 -16.5 44t-43.5 16q-30 0 -46.5 -20t-15.5 -54l-100 6q2 69 48 111.5t121 42.5q72 0 113.5 -40t41.5 -106q0 -72 -56 -126q-15 -14 -48 -40t-56 -47.5t-34 -41.5z" />
    <glyph glyph-name="three.dnom" horiz-adv-x="376" 
d="M185 -7q-75 0 -119.5 41.5t-42.5 109.5h100q0 -29 16.5 -46t43.5 -17q28 0 45 17t17 43q0 27 -18.5 43t-47.5 16h-41v91h30q31 0 48.5 15.5t17.5 40.5q0 24 -15 38t-39 14q-29 0 -44.5 -17.5t-14.5 -45.5h-101q-1 67 43 108.5t119 41.5q71 0 113 -35.5t42 -94.5
q0 -70 -65 -102v-5q75 -29 75 -114q0 -63 -45 -102.5t-117 -39.5z" />
    <glyph glyph-name="four.dnom" horiz-adv-x="375" 
d="M321 480v-306h49v-88h-49v-86h-99v86h-209v81l157 313h151zM222 371l-98 -197h98v197z" />
    <glyph glyph-name="five.dnom" horiz-adv-x="398" 
d="M29 149h101q0 -30 19 -48.5t49 -18.5q31 0 50 21t19 55q0 35 -20 57t-51 22q-50 0 -62 -40h-96v283h302v-88h-203v-52l-3 -39l3 -3q29 26 80 26q68 0 110 -45.5t42 -117.5q0 -75 -47.5 -121.5t-124.5 -46.5q-75 0 -121 43q-47 44 -47 113z" />
    <glyph glyph-name="six.dnom" horiz-adv-x="406" 
d="M27 236q0 118 48 184t137 66q65 0 108.5 -35.5t50.5 -94.5h-100q-11 43 -63 43q-79 0 -79 -126h4q13 23 40 36t60 13q65 0 105.5 -44.5t40.5 -115.5q0 -74 -48 -121q-49 -47 -124 -47q-86 0 -133 63t-47 179zM140 159q0 -34 19 -55.5t51 -21.5t51 21.5t19 58.5
q0 35 -19 56t-51 21t-51 -22t-19 -58z" />
    <glyph glyph-name="seven.dnom" horiz-adv-x="351" 
d="M15 480h326v-72q-145 -173 -182 -408h-99q29 227 162 392h-131v-75h-76v163z" />
    <glyph glyph-name="eight.dnom" horiz-adv-x="388" 
d="M23 128q0 79 69 109v6q-69 30 -69 109q0 62 47 98t126 36q78 0 123.5 -36.5t45.5 -97.5q0 -79 -67 -109v-6q67 -30 67 -110q0 -62 -46.5 -98t-124.5 -36t-124.5 37t-46.5 98zM126 340q0 -27 19 -42.5t50 -15.5q30 0 48.5 16.5t18.5 41.5q0 27 -18.5 43t-48.5 16
q-32 0 -50.5 -16t-18.5 -43zM195 80q31 0 49 16.5t18 42.5q0 28 -18.5 44t-48.5 16q-31 0 -50 -16.5t-19 -43.5t18.5 -43t50.5 -16z" />
    <glyph glyph-name="nine.dnom" horiz-adv-x="406" 
d="M379 244q0 -118 -48 -184t-137 -66q-66 0 -109 35.5t-50 94.5h100q11 -42 64 -42q78 0 78 125h-4q-12 -23 -39 -36t-60 -13q-66 0 -106.5 44.5t-40.5 115.5q0 74 48 121q49 47 124 47q87 0 133.5 -63t46.5 -179zM197 399q-32 0 -51 -22t-19 -58q0 -35 19 -57
q20 -21 51 -21q32 0 50 22q18 23 18 58t-18.5 56.5t-49.5 21.5z" />
    <glyph glyph-name="zero.numr" horiz-adv-x="417" 
d="M208 251q-87 0 -133 64t-46 179q0 117 47.5 179t132.5 62q87 0 133 -63.5t46 -178.5q0 -118 -48 -180t-132 -62zM207 338q76 0 76 152q0 158 -74 158q-41 0 -58.5 -37.5t-17.5 -113.5q0 -159 74 -159z" />
    <glyph glyph-name="one.numr" horiz-adv-x="315" 
d="M149 565h-125v80h45q42 0 64 21.5t22 59.5v3h94v-473h-100v309z" />
    <glyph glyph-name="two.numr" horiz-adv-x="381" 
d="M153 339l62 3h128v-87h-311v17q0 97 75 163q13 12 45.5 37.5t48 39t30 36t14.5 43.5q0 27 -16.5 42.5t-43.5 15.5q-30 0 -46.5 -19.5t-15.5 -53.5l-100 6q2 69 48 111t121 42q72 0 113.5 -39.5t41.5 -104.5q0 -42 -23 -81.5t-57 -65.5q-23 -16 -66 -52q-34 -28 -48 -53z
" />
    <glyph glyph-name="three.numr" horiz-adv-x="376" 
d="M185 248q-74 0 -118.5 41t-43.5 108h100q0 -27 17 -44.5t43 -17.5q28 0 45 16.5t17 42.5q0 27 -18 42.5t-48 15.5h-41v90h30q32 0 49 15.5t17 40.5q0 24 -15 37t-39 13q-28 0 -44 -17t-15 -45h-101q-1 67 42.5 108t119.5 41q71 0 113 -35.5t42 -92.5q0 -72 -65 -101v-5
q75 -29 75 -113q0 -62 -45.5 -101t-116.5 -39z" />
    <glyph glyph-name="four.numr" horiz-adv-x="375" 
d="M321 729v-303h49v-86h-49v-84h-99v84h-209v80l157 309h151zM222 621l-98 -195h98v195z" />
    <glyph glyph-name="five.numr" horiz-adv-x="398" 
d="M29 402h101q0 -29 19.5 -48t48.5 -19q31 0 50 21.5t19 54.5q0 35 -20 57t-51 22q-48 0 -62 -41h-96v280h302v-88h-203v-51l-3 -38l3 -3q26 26 80 26q68 0 110 -46q42 -45 42 -115q0 -74 -47.5 -120t-124.5 -46q-74 0 -121 42.5t-47 111.5z" />
    <glyph glyph-name="six.numr" horiz-adv-x="406" 
d="M27 488q0 117 48 182t137 65q66 0 109 -34.5t50 -93.5h-100q-11 41 -63 41q-79 0 -79 -123h4q13 22 41 35.5t59 13.5q65 0 105.5 -44.5t40.5 -114.5q0 -73 -48 -120q-47 -46 -124 -46q-86 0 -133 62t-47 177zM140 412q0 -34 19 -55.5t51 -21.5t51 22t19 58q0 35 -19 56
t-51 21t-51 -22t-19 -58z" />
    <glyph glyph-name="seven.numr" horiz-adv-x="351" 
d="M15 729h326v-72q-144 -169 -182 -401h-99q14 103 56.5 205t104.5 180h-130v-69h-76v157z" />
    <glyph glyph-name="eight.numr" horiz-adv-x="388" 
d="M23 381q0 78 69 108v6q-69 31 -69 108q0 61 47 96.5t126 35.5q78 0 123.5 -36t45.5 -96q0 -77 -67 -108v-6q67 -30 67 -108q0 -61 -47 -97t-124 -36q-78 0 -124.5 36.5t-46.5 96.5zM126 591q0 -26 19 -42t50 -16q30 0 48.5 16t18.5 42q0 27 -18.5 42t-48.5 15
q-32 0 -50.5 -16t-18.5 -41zM262 392q0 27 -18.5 43t-48.5 16q-31 2 -51 -17t-18.5 -42t19.5 -42q19 -16 50 -16q30 0 48.5 16.5t18.5 41.5z" />
    <glyph glyph-name="nine.numr" horiz-adv-x="406" 
d="M379 496q0 -118 -48 -182.5t-137 -64.5q-65 0 -108.5 35t-50.5 94h100q10 -43 64 -43q78 0 78 124h-4q-28 -48 -99 -48q-66 0 -106.5 44.5t-40.5 113.5q0 73 48 120q47 46 124 46q87 0 133.5 -62.5t46.5 -176.5zM197 648q-32 0 -51 -21.5t-19 -56.5t19 -56.5t51 -21.5
q31 0 49.5 22.5t18.5 57.5q0 34 -18.5 55t-49.5 21z" />
    <glyph glyph-name="question.ss01" horiz-adv-x="549" 
d="M182 514h-152q0 105 66.5 164.5t181.5 59.5q108 0 170 -51.5t62 -139.5q0 -61 -32 -107l-28 -40l-42 -49q-8 -9 -18.5 -21t-16.5 -18.5t-9 -10.5q-29 -38 -29 -70v-11h-146v12q0 82 91 177l39 43q13 14 25.5 38.5t12.5 43.5q0 34 -23 53.5t-62 19.5q-44 0 -68 -25
t-22 -68zM342 0h-155v148h155v-148z" />
    <glyph glyph-name="questiondown.ss01" horiz-adv-x="549" 
d="M197 615h156v-148h-156v148zM357 101h153q0 -104 -68 -164t-180 -60q-108 0 -170 52t-62 140q0 35 18 84q6 15 24 39q23 30 26 33l34 39q56 65 65 85q8 18 8 35v12h145v-13q0 -79 -90 -177l-40 -43q-37 -46 -37 -81t23 -54.5t62 -19.5q44 0 67.5 25.5t21.5 67.5z" />
    <glyph glyph-name="numbersign.ss03" horiz-adv-x="623" 
d="M599 540l-20 -71h-95l-42 -185h118l-18 -71h-117l-49 -213h-83l49 213h-138l-49 -213h-83l49 213h-97l20 71h93l43 185h-117l20 71h113l48 210h83l-48 -210h139l48 210h83l-48 -210h98zM220 284h139l42 185h-138z" />
    <glyph glyph-name="parenleft.case" horiz-adv-x="292" 
d="M52 364q0 115 44 220q43 102 118 165h77q-74 -65 -116 -168q-41 -105 -41 -216q0 -116 42 -218t115 -166h-77q-76 64 -119 167q-43 102 -43 216z" />
    <glyph glyph-name="parenright.case" horiz-adv-x="292" 
d="M240 364q0 -116 -44 -219q-44 -104 -116 -164h-78q75 67 115 168q42 103 42 216q0 117 -43 218q-42 101 -114 166h78q75 -63 117 -167q43 -102 43 -218z" />
    <glyph glyph-name="braceleft.case" horiz-adv-x="294" 
d="M24 295v73q34 0 52 20.5t18 55.5v205q0 40 22 63t63 23h101v-67h-108v-219q0 -99 -77 -113v-3q36 -8 56.5 -38t20.5 -76v-229h108v-68h-101q-40 0 -62.5 22.5t-22.5 64.5v214q0 72 -70 72z" />
    <glyph glyph-name="braceright.case" horiz-adv-x="294" 
d="M270 368v-73q-33 0 -52.5 -17.5t-19.5 -54.5v-214q0 -87 -83 -87h-101v68h106v229q0 45 20.5 74.5t58.5 39.5v3q-37 6 -58 35.5t-21 77.5v219h-106v67h101q41 0 62 -23t21 -63v-205q0 -35 19 -55.5t53 -20.5z" />
    <glyph glyph-name="bracketleft.case" horiz-adv-x="273" 
d="M259 -78h-192v830h192v-69h-116v-693h116v-68z" />
    <glyph glyph-name="bracketright.case" horiz-adv-x="273" 
d="M206 -78h-192v68h116v693h-116v69h192v-830z" />
    <glyph glyph-name="hyphen.case" horiz-adv-x="471" 
d="M416 328h-361v84h361v-84z" />
    <glyph glyph-name="endash.case" horiz-adv-x="647" 
d="M592 328h-537v84h537v-84z" />
    <glyph glyph-name="emdash.case" horiz-adv-x="843" 
d="M788 328h-733v84h733v-84z" />
    <glyph glyph-name="greater.case" horiz-adv-x="542" 
d="M489 309l-395 -215v147l126 61l153 60v9l-148 59l-131 65v141l395 -213v-114z" />
    <glyph glyph-name="less.case" horiz-adv-x="542" 
d="M448 241v-147l-395 215v114l395 213v-141l-131 -65l-147 -59v-9l152 -60z" />
    <glyph glyph-name="percent.tf" horiz-adv-x="597" 
d="M27 583q0 69 43.5 113t114.5 44t114 -46q44 -46 44 -114q0 -67 -45 -112q-44 -45 -113 -45q-67 0 -113 44q-45 45 -45 116zM123 583q0 -33 17 -53t45 -20q27 0 45 20t18 53q0 30 -18 49.5t-45 19.5t-44.5 -19.5t-17.5 -49.5zM573 440l-548 -215v72l548 217v-74zM246 151
q0 66 44 112q45 45 114 45q72 0 115 -45q44 -46 44 -113q0 -68 -45 -114q-43 -46 -114 -46q-68 0 -113 45t-45 116zM343 152q0 -33 17 -53t44 -20t45.5 20.5t18.5 52.5q0 30 -18 50t-46 20q-27 0 -44 -20t-17 -50z" />
    <glyph glyph-name="perthousand.tf" horiz-adv-x="652" 
d="M299 479q-47 -42 -114 -42q-68 0 -113 42t-45 109t45 109t113 42t114 -43q46 -42 46 -108t-46 -109zM186 652q-27 0 -44 -18t-17 -46q0 -27 16.5 -44.5t43.5 -17.5q29 0 46.5 18t17.5 46q0 27 -17.5 44.5t-45.5 17.5zM55 337l548 214v-71l-548 -216v73zM477 291
q66 0 107.5 -41.5t41.5 -107.5q0 -68 -41.5 -110t-109.5 -42q-70 0 -119 55q-45 -55 -118 -55q-68 0 -109.5 42t-41.5 109t41.5 108.5t108.5 41.5q73 0 118 -56q50 56 122 56zM468 79q27 0 44 18t17 48q0 26 -17 43.5t-44 17.5q-28 0 -45.5 -17.5t-17.5 -45.5
q0 -29 17.5 -46.5t45.5 -17.5zM245 77q28 0 45.5 18.5t17.5 47.5q0 27 -17 44.5t-44 17.5q-28 0 -45.5 -18t-17.5 -46t17 -46t44 -18z" />
    <glyph glyph-name="uni1F310" horiz-adv-x="1012" 
d="M956 365q0 -165 -127 -270q-126 -105 -323 -105q-196 0 -324 105q-126 105 -126 270t125 269q127 104 325 104q200 0 324 -105q126 -103 126 -268zM408 577h196q-35 128 -98 128q-30 0 -55.5 -33.5t-42.5 -94.5zM639 577h100q-55 90 -153 117q33 -42 53 -117zM426 694
q-98 -27 -153 -117h99q20 72 54 117zM311 671q-87 -35 -140 -94h61q32 56 79 94zM779 577h61q-55 61 -139 94q46 -38 78 -94zM831 383h88q-5 85 -48 153h-72q29 -70 32 -153zM92 383h88q3 83 32 153h-72q-44 -68 -48 -153zM363 536h-112q-30 -70 -33 -153h130q2 85 15 153z
M383 383h245q-2 87 -15 153h-215q-14 -66 -15 -153zM663 383h131q-3 83 -33 153h-113q14 -68 15 -153zM180 344h-87q5 -81 48 -150h71q-27 66 -32 150zM348 344h-130q4 -84 33 -150h112q-13 68 -15 150zM628 344h-245q1 -84 15 -150h215q13 66 15 150zM648 194h112
q30 67 34 150h-131q-1 -82 -15 -150zM918 344h-87q-5 -84 -32 -150h71q44 69 48 150zM230 155h-60q58 -64 138 -95q-46 39 -78 95zM371 155h-99q56 -91 153 -120q-35 47 -54 120zM604 155h-197q36 -131 99 -131q30 0 55.5 34t42.5 97zM586 35q95 28 154 120h-100
q-20 -73 -54 -120zM703 60q80 31 138 95h-60q-32 -56 -78 -95z" />
    <glyph glyph-name="uni1F441" horiz-adv-x="830" 
d="M50 365q0 165 103 268q104 104 262 104q157 0 261 -104t104 -268q0 -169 -103 -272t-262 -103t-262 103t-103 272zM116 365q0 -140 85 -226q85 -87 214 -87t214 87q85 86 85 226q0 138 -85 223q-86 87 -214 87q-129 0 -214 -87q-85 -85 -85 -223zM231 366q0 79 53 132
q53 52 131 52q79 0 131 -52q53 -51 53 -132q0 -84 -53 -137q-52 -52 -131 -52t-131 52q-53 53 -53 137zM262 375v-21l144 7l-93 -85l16 -17l83 96l-7 -148h21l-7 148l83 -96l15 17l-92 85l143 -7v21l-143 -6l92 84l-15 16l-83 -94l7 147h-21l7 -147l-83 94l-16 -16l93 -84z
" />
    </font>
</defs>
</svg>
