<?xml version="1.0" standalone="no"?>
<!DOCTYPE svg PUBLIC "-//W3C//DTD SVG 1.1//EN" "http://www.w3.org/Graphics/SVG/1.1/DTD/svg11.dtd" >
<svg xmlns="http://www.w3.org/2000/svg" xmlns:xlink="http://www.w3.org/1999/xlink" version="1.1">
<metadata>
Created by FontForge 20170731 at Tue Jul 10 19:29:44 2018
 By Aleksey,,,
Copyright (c) 2017 by Deni Anggara. All rights reserved.
</metadata>
<defs>
<font id="AllianceNo.2-BoldItalic" horiz-adv-x="0" >
  <font-face 
    font-family="Alliance No.2"
    font-weight="700"
    font-style="italic"
    font-stretch="normal"
    units-per-em="1000"
    panose-1="0 0 5 0 0 0 0 0 0 0"
    ascent="796"
    descent="-204"
    x-height="536"
    cap-height="729"
    bbox="-475 -293 2179 1027"
    underline-thickness="50"
    underline-position="-200"
    slope="-8"
    unicode-range="U+000D-FB02"
  />
<missing-glyph horiz-adv-x="644" 
d="M709 0h-644v729h644v-729zM128 666v-604h518v604h-518zM583 125h-392v478h392v-478zM254 540v-351h266v351h-266zM317 252v225h140v-225h-140z" />
    <glyph glyph-name="fi" unicode="fi" horiz-adv-x="670" 
d="M300 536h347l-76 -536h-153l59 413h-195l-58 -413h-152l58 413h-100l17 123h100l4 28l7 51q6 45 29 81q31 48 117 48h159l-16 -120h-135l-9 -60zM503 596l20 148h152l-20 -148h-152z" />
    <glyph glyph-name="fl" unicode="fl" horiz-adv-x="662" 
d="M304 744h363l-104 -744h-153l87 624h-185l-9 -60l-4 -28h105l-17 -123h-105l-58 -413h-152l58 413h-100l17 123h100l4 28l7 51q6 45 29 81q31 48 117 48z" />
    <glyph glyph-name="f_f" unicode="ff" horiz-adv-x="742" 
d="M784 624h-134l-9 -60l-3 -28h104l-17 -123h-105l-58 -413h-153l58 413h-185l-58 -413h-152l58 413h-100l17 123h100l4 28l7 51q6 45 29 81q31 48 117 48h149l-16 -120h-125l-9 -60l-3 -28h185l3 28l8 54q7 45 30 80q30 46 116 46h159z" />
    <glyph glyph-name="f_f_i" unicode="ffi" horiz-adv-x="1008" 
d="M638 536h347l-76 -536h-152l59 413h-196l-58 -413h-153l58 413h-185l-58 -413h-152l58 413h-100l17 123h100l4 28l7 51q6 45 29 81q31 48 117 48h149l-16 -120h-125l-9 -60l-3 -28h185l3 28l7 51q6 45 30 82q32 47 117 47h159l-17 -120h-134l-9 -60zM841 592l20 148h152
l-20 -148h-152z" />
    <glyph glyph-name="f_t" unicode="ft" horiz-adv-x="761" 
d="M750 413h-106l-30 -214l-11 -79h107l-18 -120h-138q-119 0 -103 118l11 81l31 214h-211l-58 -413h-152l58 413h-100l17 123h101l1 13l11 77q16 118 144 118h159l-16 -120h-135l-11 -75l-1 -13h210l24 168h151l-23 -168h106z" />
    <glyph glyph-name="t_i" unicode="ti" horiz-adv-x="651" 
d="M483 592l20 148h152l-20 -148h-152zM292 536h335l-76 -536h-152l59 413h-183l-31 -214l-10 -79h99l-17 -120h-121q-45 0 -72.5 14t-34 34t-8.5 42t3 39l10 70l30 214h-95l18 123h95l23 168h152z" />
    <glyph glyph-name="t_t" unicode="tt" horiz-adv-x="733" 
d="M723 413h-105l-30 -214l-11 -79h105l-17 -120h-128q-44 0 -72 13.5t-34 34.5q-15 49 -5 81l9 70l30 214h-189l-31 -214l-10 -79h105l-17 -120h-128q-45 0 -72.5 14t-34 34t-8.5 42t3 39l10 70l30 214h-95l18 123h95l23 168h153l-24 -168h190l24 168h152l-23 -168h104z
" />
    <glyph glyph-name="t_t_i" unicode="tti" horiz-adv-x="1002" 
d="M834 592l20 148h152l-20 -148h-152zM636 536h342l-76 -536h-152l59 413h-191l-30 -214l-11 -79h105l-17 -120h-128q-44 0 -72 13.5t-34 34.5q-15 49 -5 81l9 70l30 214h-189l-31 -214l-10 -79h105l-17 -120h-128q-45 0 -72.5 14t-34 34t-8.5 42t3 39l10 70l30 214h-95
l18 123h95l23 168h153l-24 -168h190l24 168h152z" />
    <glyph glyph-name=".notdef" horiz-adv-x="644" 
d="M709 0h-644v729h644v-729zM128 666v-604h518v604h-518zM583 125h-392v478h392v-478zM254 540v-351h266v351h-266zM317 252v225h140v-225h-140z" />
    <glyph glyph-name=".null" 
 />
    <glyph glyph-name="nonmarkingreturn" horiz-adv-x="333" 
 />
    <glyph glyph-name="CR.001" unicode="&#xd;" horiz-adv-x="189" 
 />
    <glyph glyph-name="space" unicode=" " horiz-adv-x="214" 
 />
    <glyph glyph-name="exclam" unicode="!" horiz-adv-x="302" 
d="M186 230h-78l1 285l30 214h154l-29 -214zM195 0h-163l20 146h164z" />
    <glyph glyph-name="quotedbl" unicode="&#x22;" horiz-adv-x="504" 
d="M256 570l-62 -185h-66l-10 185l23 159h137zM471 570l-61 -185h-66l-10 185l22 159h138z" />
    <glyph glyph-name="numbersign" unicode="#" horiz-adv-x="708" 
d="M694 543l-11 -71h-115l-26 -189h115l-10 -72h-115l-30 -211h-76l30 211h-217l-30 -211h-78l30 211h-117l10 71h117l26 189h-116l10 72h116l29 207h78l-29 -207h217l29 207h76l-29 -207h116zM249 282l217 1l26 189l-217 -1z" />
    <glyph glyph-name="dollar" unicode="$" horiz-adv-x="565" 
d="M549 506h-153q5 34 -13 52.5t-54 18.5t-57 -18t-21 -47q0 -42 68 -57l74 -17q149 -35 149 -157q0 -92 -65 -155q-64 -63 -169 -75l-10 -70h-97l10 72q-89 13 -134 67.5t-34 136.5h153q-12 -86 84 -86q45 0 70 19t25 52q0 21 -15 32.5t-51 20.5l-77 19q-146 36 -146 155
q0 85 59 147q61 63 156 76l10 72h97l-10 -72q81 -12 121.5 -62t29.5 -124z" />
    <glyph glyph-name="percent" unicode="%" horiz-adv-x="899" 
d="M94 556q0 79 50 131q50 51 130 51q82 0 132 -51q50 -52 50 -132q0 -79 -51 -132q-49 -51 -131 -51q-78 0 -129 51q-51 53 -51 133zM302 0h-77l463 729h78zM194 557q0 -42 22 -68.5t58 -26.5q37 0 60 26.5t23 68.5q0 41 -23 66t-60 25q-35 0 -57.5 -25.5t-22.5 -65.5z
M526 174q0 78 50 130q51 52 131 52q81 0 130 -52q50 -52 50 -131q0 -80 -50 -132q-49 -51 -130 -51q-80 0 -131 51q-50 52 -50 133zM625 175q0 -42 22.5 -68.5t59.5 -26.5t59.5 26.5t22.5 68.5q0 40 -23 66t-59 26t-59 -26t-23 -66z" />
    <glyph glyph-name="ampersand" unicode="&#x26;" horiz-adv-x="690" 
d="M615 0h-355q-112 0 -169 42t-57 120q0 71 38 130q39 59 98 80l1 8q-75 38 -75 129q0 100 73 164q74 65 187 65q50 0 81 -7l-18 -131q-19 6 -54 6q-95 0 -106 -74l-4 -21q-5 -32 17 -49t63 -17h101l15 106h150l-15 -106h92l-19 -131h-92l-25 -179h92zM283 135h109l24 179
h-111q-89 0 -101 -76l-5 -32q-5 -34 17.5 -52.5t66.5 -18.5z" />
    <glyph glyph-name="quotesingle" unicode="'" horiz-adv-x="288" 
d="M256 570l-62 -185h-66l-10 185l23 159h137z" />
    <glyph glyph-name="parenleft" unicode="(" horiz-adv-x="378" 
d="M60 239q0 158 82 307q83 150 212 227h89q-131 -76 -217 -227q-84 -149 -84 -302q0 -117 46 -218q46 -102 127 -158h-89q-79 56 -122 156q-44 102 -44 215z" />
    <glyph glyph-name="parenright" unicode=")" horiz-adv-x="366" 
d="M333 401q0 -156 -83 -307q-82 -149 -210 -226h-89q131 76 216 226q85 149 85 303q0 117 -47 219q-47 101 -127 157h89q79 -56 122 -156q44 -102 44 -216z" />
    <glyph glyph-name="asterisk" unicode="*" horiz-adv-x="356" 
d="M95 473l-24 55l114 48l-100 49l39 55l84 -70l4 119h63l-30 -120l103 71l25 -55l-115 -49l101 -48l-40 -55l-83 72l-4 -120h-63l30 120z" />
    <glyph glyph-name="plus" unicode="+" horiz-adv-x="612" 
d="M555 271h-188l-28 -195h-122l27 195h-187l17 119h187l27 194h123l-27 -194h188z" />
    <glyph glyph-name="comma" unicode="," horiz-adv-x="231" 
d="M-25 -164l8 55q89 0 100 81l4 28h-73l23 161h148l-25 -173q-21 -152 -185 -152z" />
    <glyph glyph-name="hyphen" unicode="-" horiz-adv-x="474" 
d="M416 258h-361l11 84h361z" />
    <glyph glyph-name="period" unicode="." horiz-adv-x="274" 
d="M174 0h-148l23 164h148z" />
    <glyph glyph-name="slash" unicode="/" horiz-adv-x="367" 
d="M50 0h-83l376 729h84z" />
    <glyph glyph-name="zero" unicode="0" horiz-adv-x="633" 
d="M50 256q0 214 91 344t244 130q112 0 169.5 -67.5t57.5 -197.5q0 -215 -91 -345t-240 -130q-113 0 -172 68t-59 198zM241 469l-31 -218q-16 -127 88 -127q108 0 124 127l31 218q18 127 -89 127q-104 0 -123 -127z" />
    <glyph glyph-name="one" unicode="1" horiz-adv-x="459" 
d="M242 475h-186l17 118h31q70 0 120 35.5t62 92.5h146l-101 -721h-155z" />
    <glyph glyph-name="two" unicode="2" horiz-adv-x="594" 
d="M428 284l-165 -150l87 2h184l-19 -136h-492l15 105l300 280q69 63 75 106l3 28q5 35 -17 56t-64 21q-43 0 -73.5 -24.5t-36.5 -66.5l-3 -23h-152l2 21q13 100 93 163q80 64 198 64q100 0 158.5 -50t58.5 -134q0 -88 -51 -155q-29 -37 -46 -54q-15 -16 -55 -53z" />
    <glyph glyph-name="three" unicode="3" horiz-adv-x="607" 
d="M281 -10q-122 0 -184 61q-62 62 -46 167h158q-7 -47 16.5 -71.5t72.5 -24.5q45 0 76.5 21.5t36.5 55.5l4 31q5 38 -17 57.5t-68 19.5h-89l17 123h75q44 0 71.5 19t31.5 51l4 26q4 35 -19 53.5t-64 18.5q-46 0 -75 -24.5t-35 -69.5h-157q13 102 93 164t199 62
q102 0 161.5 -44.5t59.5 -121.5q0 -61 -32 -108.5t-91 -74.5l-1 -6q93 -37 93 -141q0 -109 -82 -176q-82 -68 -209 -68z" />
    <glyph glyph-name="four" unicode="4" horiz-adv-x="633" 
d="M581 721l-64 -453h86l-17 -128h-87l-19 -140h-155l19 140h-330l16 119l321 462h230zM406 580l-217 -312h173z" />
    <glyph glyph-name="five" unicode="5" horiz-adv-x="612" 
d="M48 226h157q-6 -44 20 -72t75 -28q48 0 81 24t39 64l8 53q6 41 -21 64.5t-75 23.5q-37 0 -68.5 -17t-44.5 -44h-148l79 427h449l-19 -135h-312l-25 -134l6 -3q47 36 130 36q96 0 151 -54t55 -145q0 -130 -86 -213t-222 -83q-119 0 -182 65q-62 65 -47 171z" />
    <glyph glyph-name="six" unicode="6" horiz-adv-x="620" 
d="M52 258q0 215 92 343q92 129 246 129q103 0 161 -51t56 -139h-157q-6 60 -83 60q-64 0 -100 -49t-43 -138h7q51 71 157 71q90 0 142.5 -52t52.5 -142q0 -130 -84 -215q-84 -84 -214 -84q-115 0 -174 68.5t-59 198.5zM222 270l-7 -55q-6 -42 19 -65.5t70 -23.5
q46 0 77.5 24t37.5 65l8 55q6 42 -19 65t-71 23t-77.5 -23.5t-37.5 -64.5z" />
    <glyph glyph-name="seven" unicode="7" horiz-adv-x="561" 
d="M171 468h-125l36 253h520l-15 -112q-117 -135 -215 -297q-99 -165 -143 -312h-167q42 141 132 298q92 156 204 288h-211z" />
    <glyph glyph-name="eight" unicode="8" horiz-adv-x="610" 
d="M266 -10q-115 0 -177 46t-62 127q0 65 33.5 116.5t94.5 77.5l1 8q-82 37 -82 130q0 105 81 170q83 65 217 65q114 0 176 -46t62 -127q0 -65 -34 -116t-93 -76l-1 -8q81 -41 81 -132q0 -107 -81 -171q-80 -64 -216 -64zM327 424q105 0 117 75l3 23q5 37 -18.5 55.5
t-76.5 18.5q-105 0 -116 -74l-4 -23q-5 -36 19.5 -55.5t75.5 -19.5zM286 124q104 0 116 79l3 23q6 35 -19.5 53.5t-75.5 18.5q-104 0 -116 -72l-3 -23q-6 -39 18.5 -59t76.5 -20z" />
    <glyph glyph-name="nine" unicode="9" horiz-adv-x="615" 
d="M594 463q0 -213 -92 -343q-92 -129 -245 -129q-103 0 -162 51t-57 139h158q6 -60 83 -60q64 0 100 49.5t43 137.5h-7q-53 -72 -157 -72q-90 0 -142.5 52.5t-52.5 142.5q0 130 84 214q84 85 214 85q115 0 174 -69t59 -198zM423 451l8 55q6 42 -19 65.5t-70 23.5
q-46 0 -78 -24t-38 -65l-8 -55q-6 -42 19.5 -65t71.5 -23q45 0 76 23.5t38 64.5z" />
    <glyph glyph-name="colon" unicode=":" horiz-adv-x="282" 
d="M232 385h-148l21 151h148zM178 0h-148l21 150h148z" />
    <glyph glyph-name="semicolon" unicode=";" horiz-adv-x="258" 
d="M216 385h-148l21 151h148zM-23 -160l7 52q48 0 70.5 17.5t27.5 55.5l5 35h-73l21 150h148l-24 -169q-19 -141 -182 -141z" />
    <glyph glyph-name="less" unicode="&#x3c;" horiz-adv-x="524" 
d="M440 162l-21 -147l-364 216l16 114l424 215l-20 -144l-140 -63l-146 -61l-1 -10l134 -60z" />
    <glyph glyph-name="equal" unicode="=" horiz-adv-x="540" 
d="M476 342h-391l17 125h392zM446 127h-391l17 124h392z" />
    <glyph glyph-name="greater" unicode="&#x3e;" horiz-adv-x="524" 
d="M460 231l-426 -216l21 147l134 60l153 60l1 10l-130 61l-122 63l20 144l365 -215z" />
    <glyph glyph-name="question" unicode="?" horiz-adv-x="592" 
d="M338 212h-145l28 198q24 -8 66 -8q67 0 108 33.5t41 89.5q0 39 -26.5 60.5t-72.5 21.5t-79 -22t-43 -61h-149q21 101 99.5 157.5t193.5 56.5q111 0 171.5 -51t60.5 -141q0 -104 -70 -174t-172 -82zM313 0h-156l21 148h156z" />
    <glyph glyph-name="at" unicode="@" horiz-adv-x="967" 
d="M802 -64h-729l101 720h729l-75 -535h-200q-76 0 -80 57v6h-6q-38 -53 -117 -53q-58 0 -89.5 34.5t-31.5 96.5q0 96 48 154q48 59 125 59q37 0 65 -14t39 -37h3l6 46h82l-37 -261h102l49 348h-515l-74 -522h619zM465 220q30 0 49 18t24 49l5 32q5 31 -9.5 48.5t-45.5 17.5
q-65 0 -75 -67l-4 -30q-5 -31 10 -49.5t46 -18.5z" />
    <glyph glyph-name="A" unicode="A" horiz-adv-x="710" 
d="M674 0h-172l-25 127h-283l-61 -127h-171l359 729h188zM294 334l-40 -83h199l-16 83l-35 226h-6z" />
    <glyph glyph-name="B" unicode="B" horiz-adv-x="717" 
d="M412 0h-372l102 729h374q88 0 137.5 -41.5t49.5 -113.5q0 -67 -34.5 -119t-94.5 -73l-1 -9q101 -27 101 -138q0 -104 -73 -170q-74 -65 -189 -65zM283 609l-26 -178h182q38 0 61.5 18.5t27.5 49.5l6 42q5 32 -14 50t-58 18h-179zM241 313l-27 -193h179q47 0 75.5 20.5
t33.5 57.5l5 36q10 79 -79 79h-187z" />
    <glyph glyph-name="C" unicode="C" horiz-adv-x="754" 
d="M342 -10q-142 0 -220.5 78t-78.5 218q0 200 114 326q115 126 298 126q142 0 221 -73q80 -74 73 -195h-168q-3 59 -43 93t-109 34q-81 0 -136 -47t-66 -128l-16 -121q-11 -76 30 -123t122 -47q66 0 116.5 34.5t71.5 94.5h169q-32 -124 -134 -197q-103 -73 -244 -73z" />
    <glyph glyph-name="D" unicode="D" horiz-adv-x="752" 
d="M352 0h-312l102 729h312q285 0 285 -271q0 -216 -103 -337q-102 -121 -284 -121zM284 590l-63 -451h146q89 0 132 38t55 125l17 125q12 89 -21.5 126t-119.5 37h-146z" />
    <glyph glyph-name="E" unicode="E" horiz-adv-x="641" 
d="M555 0h-515l102 729h515l-19 -139h-354l-20 -147h303l-19 -131h-303l-24 -173h354z" />
    <glyph glyph-name="F" unicode="F" horiz-adv-x="618" 
d="M201 0h-161l102 729h516l-20 -139h-354l-28 -200h314l-18 -132h-314z" />
    <glyph glyph-name="G" unicode="G" horiz-adv-x="809" 
d="M42 281q0 203 115 330t299 127q129 0 209 -65q79 -64 79 -170h-167q-8 44 -45.5 69t-96.5 25q-84 0 -141 -49t-68 -131l-16 -116q-11 -81 32.5 -129.5t128.5 -48.5q76 0 133 42t73 108h-226l19 128h395l-57 -401h-131l5 97h-7q-41 -51 -107 -79t-145 -28
q-134 0 -207.5 77t-73.5 214z" />
    <glyph glyph-name="H" unicode="H" horiz-adv-x="807" 
d="M201 0h-161l102 729h161l-41 -294h330l41 294h161l-102 -729h-161l43 307h-330z" />
    <glyph glyph-name="I" unicode="I" horiz-adv-x="316" 
d="M303 729l-102 -729h-161l102 729h161z" />
    <glyph glyph-name="J" unicode="J" horiz-adv-x="418" 
d="M190 301l60 428h161l-60 -428l-25 -172q-6 -45 -26 -78q-30 -51 -120 -51h-202l19 140h170z" />
    <glyph glyph-name="K" unicode="K" horiz-adv-x="724" 
d="M578 729h197l-307 -316l215 -413h-194l-149 282l-116 -119l-23 -163h-161l102 729h161l-48 -340z" />
    <glyph glyph-name="L" unicode="L" horiz-adv-x="572" 
d="M499 0h-459l102 729h161l-82 -586h298z" />
    <glyph glyph-name="M" unicode="M" horiz-adv-x="917" 
d="M198 0h-158l102 729h201l121 -407h7l233 407h201l-102 -729h-157l43 307l38 200h-7l-297 -496l-156 496h-8l-18 -202z" />
    <glyph glyph-name="N" unicode="N" horiz-adv-x="792" 
d="M201 0h-161l102 729h186l224 -503h7l19 209l42 294h160l-102 -729h-187l-222 499h-7l-19 -201z" />
    <glyph glyph-name="O" unicode="O" horiz-adv-x="778" 
d="M43 289q0 195 116 322q117 127 297 127q144 0 226 -81t82 -221q0 -196 -116 -321t-297 -125q-145 0 -227 80q-81 80 -81 219zM227 416l-15 -103q-13 -85 30 -133.5t128 -48.5q86 0 142.5 49t68.5 133l15 103q12 84 -31.5 132.5t-128.5 48.5q-86 0 -141.5 -48.5
t-67.5 -132.5z" />
    <glyph glyph-name="P" unicode="P" horiz-adv-x="688" 
d="M201 0h-161l102 729h342q105 0 160.5 -51t55.5 -145q0 -133 -78 -216q-78 -81 -206 -81h-181zM283 585l-30 -215h160q46 0 74.5 22.5t33.5 59.5l8 54q5 38 -17 58.5t-67 20.5h-162z" />
    <glyph glyph-name="Q" unicode="Q" horiz-adv-x="778" 
d="M764 436q0 -174 -93 -294q-94 -121 -244 -146l-11 -80h117l-16 -112h-141q-45 0 -72 13.5t-33.5 33t-8.5 41.5t3 40l9 65q-110 19 -170.5 95.5t-60.5 196.5q0 195 116 322q117 127 297 127q144 0 226 -81t82 -221zM227 416l-15 -103q-13 -85 30 -133.5t128 -48.5
q86 0 142.5 49t68.5 133l15 103q12 84 -31.5 132.5t-128.5 48.5q-86 0 -141.5 -48.5t-67.5 -132.5z" />
    <glyph glyph-name="R" unicode="R" horiz-adv-x="725" 
d="M201 0h-161l102 729h372q95 0 144.5 -45.5t49.5 -126.5q0 -78 -37.5 -137t-102.5 -81l-1 -7h28q86 0 73 -94l-34 -238h-165l36 257h-268zM284 591l-29 -205h167q45 0 72.5 21.5t32.5 58.5l7 46q5 38 -17 58.5t-66 20.5h-167z" />
    <glyph glyph-name="S" unicode="S" horiz-adv-x="673" 
d="M39 229h167q-6 -53 28.5 -82t100.5 -29q61 0 98 27.5t37 72.5q0 38 -30 51q-24 11 -51 16l-109 24q-37 8 -45 10q-10 3 -48 19q-31 13 -49 30q-19 17 -33 48t-14 65q0 113 88 185q89 72 228 72q126 0 196 -59q70 -58 58 -157h-167q3 42 -27 66t-82 24q-53 0 -85.5 -23.5
t-32.5 -62.5q0 -35 35 -51q26 -10 56 -15l117 -25q171 -35 171 -173q0 -122 -93 -197q-91 -75 -243 -75q-140 0 -214 66q-72 67 -57 173z" />
    <glyph glyph-name="T" unicode="T" horiz-adv-x="574" 
d="M71 729h561l-19 -140h-201l-83 -589h-162l83 589h-198z" />
    <glyph glyph-name="U" unicode="U" horiz-adv-x="771" 
d="M92 279l63 450h161l-62 -440q-11 -73 24 -114t108 -41t119.5 40.5t56.5 114.5l62 440h160l-63 -450q-20 -136 -116 -212q-97 -77 -240 -77q-153 0 -222.5 77t-50.5 212z" />
    <glyph glyph-name="V" unicode="V" horiz-adv-x="721" 
d="M425 0h-203l-154 729h179l57 -299l37 -270h7l116 269l140 300h179z" />
    <glyph glyph-name="W" unicode="W" horiz-adv-x="987" 
d="M118 0l-46 729h174l12 -368l1 -185h8l189 553h200l36 -554h7l52 184l113 370h181l-251 -729h-221l-40 517h-7l-187 -517h-221z" />
    <glyph glyph-name="X" unicode="X" horiz-adv-x="699" 
d="M178 0h-201l261 365l-166 365h194l55 -139l48 -132h8l84 133l91 138h201l-262 -366l166 -364h-195l-47 113l-56 148h-7l-98 -150z" />
    <glyph glyph-name="Y" unicode="Y" horiz-adv-x="707" 
d="M274 279l-208 450h186l57 -151l56 -155h8l101 153l100 153h196l-335 -450l-38 -279h-162z" />
    <glyph glyph-name="Z" unicode="Z" horiz-adv-x="586" 
d="M84 729h545l-18 -131l-409 -459h339l-20 -139h-539l18 132l408 457h-343z" />
    <glyph glyph-name="bracketleft" unicode="[" horiz-adv-x="311" 
d="M216 -232h-192l144 1023h191l-9 -70h-116l-125 -887h116z" />
    <glyph glyph-name="backslash" unicode="\" horiz-adv-x="368" 
d="M153 729l172 -729h-83l-173 729h84z" />
    <glyph glyph-name="bracketright" unicode="]" horiz-adv-x="311" 
d="M147 -232h-192l9 66h116l125 887h-116l10 70h192z" />
    <glyph glyph-name="asciicircum" unicode="^" horiz-adv-x="435" 
d="M445 470h-119l-59 140l-100 -140h-119l186 259h99z" />
    <glyph glyph-name="underscore" unicode="_" horiz-adv-x="351" 
d="M304 -84h-355l12 84h355z" />
    <glyph glyph-name="grave" unicode="`" horiz-adv-x="418" 
d="M430 786l-57 -70l-206 129l77 99z" />
    <glyph glyph-name="a" unicode="a" horiz-adv-x="583" 
d="M7 125q0 88 60 142q61 55 159 55h136l5 34q11 75 -74 75q-36 0 -60.5 -18t-30.5 -48h-150q19 83 90 132t175 49q113 0 163.5 -53.5t36.5 -154.5l-32 -232h61l-16 -106h-85q-48 0 -71.5 16t-22.5 59l1 13h-10q-20 -44 -70 -71t-113 -27q-71 0 -111.5 36.5t-40.5 98.5z
M167 179l-3 -23q-7 -51 59 -51q50 0 84.5 29.5t40.5 77.5l2 15h-109q-31 0 -51.5 -13t-22.5 -35z" />
    <glyph glyph-name="b" unicode="b" horiz-adv-x="647" 
d="M158 0h-134l104 744h153l-43 -306h9q28 50 77.5 79t112.5 29q89 0 137.5 -55t48.5 -156q0 -152 -73 -249q-74 -96 -188 -96q-60 0 -103.5 28t-59.5 78h-9zM217 290l-6 -46q-7 -60 22.5 -95.5t89.5 -35.5q56 0 91 29.5t43 81.5l12 86q7 54 -20.5 83t-82.5 29
q-59 0 -100 -36t-49 -96z" />
    <glyph glyph-name="c" unicode="c" horiz-adv-x="571" 
d="M385 197h150q-23 -98 -98 -152.5t-183 -54.5q-109 0 -169 58t-60 163q0 147 86 241q87 94 224 94q104 0 163.5 -55.5t57.5 -148.5h-151q-1 38 -25.5 59t-66.5 21q-50 0 -82.5 -30t-39.5 -81l-14 -91q-7 -50 18 -78t74 -28q43 0 74 22t42 61z" />
    <glyph glyph-name="d" unicode="d" horiz-adv-x="648" 
d="M208 -10q-87 0 -135 55t-48 154q0 152 73 247q73 97 187 97q131 0 165 -105h8l43 306h152l-104 -744h-133l-6 96h-8q-30 -50 -82 -78t-112 -28zM282 113q61 0 101 35.5t48 95.5l6 45q8 61 -22 96t-90 35q-55 0 -90.5 -29t-43.5 -82l-11 -85q-7 -52 18.5 -81.5t83.5 -29.5
z" />
    <glyph glyph-name="e" unicode="e" horiz-adv-x="578" 
d="M26 213q0 148 85 240q85 93 222 93q102 0 161 -54t59 -149q0 -47 -16 -110h-356l-4 -29q-6 -44 20.5 -71t74.5 -27q39 0 69.5 17t43.5 45h150q-25 -80 -102 -130q-77 -48 -177 -48q-110 0 -170 59t-60 164zM198 341l-1 -8h208l1 10q3 39 -22 63t-70 24q-48 0 -81 -25
t-35 -64z" />
    <glyph glyph-name="f" unicode="f" horiz-adv-x="405" 
d="M447 624h-135l-11 -75l-1 -13h105l-18 -123h-105l-58 -413h-152l58 413h-100l17 123h101l1 13l11 77q16 118 144 118h159z" />
    <glyph glyph-name="g" unicode="g" horiz-adv-x="557" 
d="M583 644l-17 -120h-99l-5 -33q41 -38 41 -99q0 -87 -68 -143t-173 -56q-35 0 -64 7q-31 -12 -31 -40q0 -30 60 -30h117q78 0 120.5 -33.5t42.5 -92.5q0 -94 -80 -144.5t-230 -50.5q-225 0 -225 110q0 42 26 74t71 45l1 8q-47 18 -47 69q0 36 25 66t67 43l1 8
q-64 37 -64 114q0 86 69 143t173 57q50 0 86 -12l3 19q12 91 119 91h81zM352 357l4 26q4 27 -14.5 43t-53.5 16q-34 0 -56.5 -16t-26.5 -43l-4 -26q-4 -27 14 -43.5t53 -16.5q34 0 57 16.5t27 43.5zM304 11h-118q-67 0 -67 -51q0 -44 104 -44q130 0 130 63q0 32 -49 32z" />
    <glyph glyph-name="h" unicode="h" horiz-adv-x="639" 
d="M177 0h-153l104 744h153l-42 -305h8q66 107 191 107q89 0 128 -59t25 -165l-45 -322h-153l42 306q17 116 -82 116q-54 0 -91 -37.5t-45 -98.5z" />
    <glyph glyph-name="i" unicode="i" horiz-adv-x="276" 
d="M260 595h-152l20 149h153zM176 0h-152l75 536h153z" />
    <glyph glyph-name="j" unicode="j" horiz-adv-x="282" 
d="M114 595l21 149h152l-21 -149h-152zM24 -48l16 113l66 471h152l-67 -471l-15 -103q-6 -43 -26 -77q-30 -52 -120 -52h-131l17 119h108z" />
    <glyph glyph-name="k" unicode="k" horiz-adv-x="602" 
d="M437 536h191l-230 -209l166 -327h-170l-113 222l-81 -74l-21 -148h-155l104 744h155l-56 -399z" />
    <glyph glyph-name="l" unicode="l" horiz-adv-x="276" 
d="M176 0h-152l104 744h153z" />
    <glyph glyph-name="m" unicode="m" horiz-adv-x="940" 
d="M177 0h-153l75 536h133l6 -99h10q31 57 71 83t97 26t92.5 -29t45.5 -81h11q63 110 183 110q85 0 122 -59.5t22 -163.5l-45 -323h-153l43 306q17 116 -67 116q-47 0 -77.5 -33t-38.5 -90l-42 -299h-154l44 308q16 114 -68 114q-45 0 -75.5 -32.5t-38.5 -86.5z" />
    <glyph glyph-name="n" unicode="n" horiz-adv-x="639" 
d="M177 0h-153l75 536h134l6 -99h9q30 53 80 81t111 28q89 0 127.5 -59.5t23.5 -165.5l-45 -321h-152l43 305q15 115 -82 115q-54 0 -91.5 -37t-46.5 -100z" />
    <glyph glyph-name="o" unicode="o" horiz-adv-x="595" 
d="M26 215q0 145 87 238t224 93q108 0 171 -59.5t63 -164.5q0 -145 -88 -239q-87 -93 -224 -93q-108 0 -170.5 60t-62.5 165zM191 309l-12 -84q-7 -54 19 -82.5t79 -28.5q54 0 87.5 28.5t41.5 82.5l11 84q7 53 -19 83t-78 30q-53 0 -87.5 -30t-41.5 -83z" />
    <glyph glyph-name="p" unicode="p" horiz-adv-x="648" 
d="M153 -167h-153l99 703h133l6 -96h9q30 50 82 78t112 28q87 0 135 -55t48 -154q0 -150 -74 -248q-74 -96 -187 -96q-65 0 -107 28t-57 77h-9zM323 116q55 0 91 29t43 82l12 85q6 52 -19.5 81.5t-83.5 29.5q-60 0 -100 -35t-49 -96l-6 -45q-9 -60 21.5 -95.5t90.5 -35.5z
" />
    <glyph glyph-name="q" unicode="q" horiz-adv-x="647" 
d="M490 536h133l-98 -703h-153l38 265h-9q-27 -49 -77.5 -78.5t-112.5 -29.5q-89 0 -137.5 55t-48.5 156q0 153 73 248q73 97 189 97q60 0 103.5 -28t58.5 -78h9zM431 246l6 46q7 60 -23 95.5t-89 35.5q-57 0 -91.5 -29t-42.5 -82l-12 -86q-7 -54 20.5 -83.5t82.5 -29.5
q58 0 99.5 36.5t49.5 96.5z" />
    <glyph glyph-name="r" unicode="r" horiz-adv-x="380" 
d="M228 536h183l-17 -123h-159l-17 -117l-41 -296h-153l42 296l16 111q7 50 32 85q31 44 114 44z" />
    <glyph glyph-name="s" unicode="s" horiz-adv-x="531" 
d="M27 168h150q-4 -33 17.5 -51.5t61.5 -18.5q39 0 62.5 17t23.5 46q-3 16 -11 24.5t-15.5 11.5t-22.5 5l-93 16q-138 25 -138 130q0 89 68 143q68 55 181 55q102 0 156 -45.5t46 -123.5h-151q4 30 -14 45.5t-54 15.5q-34 0 -55 -16.5t-21 -42.5q2 -16 12 -25t21 -12.5
t29 -5.5l90 -15q130 -21 130 -128q0 -92 -71 -148q-70 -55 -189 -55q-111 0 -168 48.5t-45 129.5z" />
    <glyph glyph-name="t" unicode="t" horiz-adv-x="391" 
d="M380 413h-106l-30 -214l-11 -79h107l-17 -120h-138q-120 0 -104 118l12 81l30 214h-95l18 123h95l23 168h151l-23 -168h106z" />
    <glyph glyph-name="u" unicode="u" horiz-adv-x="633" 
d="M471 536h152l-75 -536h-134l-5 98h-10q-65 -108 -189 -108q-86 0 -124.5 56t-24.5 155l47 335h153l-44 -311q-17 -111 78 -111q54 0 91 38t45 101z" />
    <glyph glyph-name="v" unicode="v" horiz-adv-x="538" 
d="M138 0l-107 536h160l29 -223l22 -181h6l71 180l93 224h170l-256 -536h-188z" />
    <glyph glyph-name="w" unicode="w" horiz-adv-x="794" 
d="M590 311l82 225h153l-211 -536h-187l-14 227l-5 116h-6l-37 -115l-76 -228h-185l-61 536h146l16 -222l9 -162h9l124 384h168l16 -385h6z" />
    <glyph glyph-name="x" unicode="x" horiz-adv-x="532" 
d="M123 0h-159l197 267l-126 269h162l78 -180h7l124 180h160l-194 -265l125 -271h-161l-79 181h-7z" />
    <glyph glyph-name="y" unicode="y" horiz-adv-x="570" 
d="M181 72l-153 464h156l42 -162l40 -169h6l89 169l89 162h164l-282 -464l-16 -110q-7 -43 -19 -66q-31 -63 -126 -63h-140l17 120h116z" />
    <glyph glyph-name="z" unicode="z" horiz-adv-x="481" 
d="M66 536h420l-15 -109l-276 -304h238l-18 -123h-422l15 110l276 303h-235z" />
    <glyph glyph-name="braceleft" unicode="{" horiz-adv-x="329" 
d="M45 246l10 73q69 0 81 75l44 312q5 40 30 62.5t66 22.5h102l-10 -70h-108l-45 -321q-7 -48 -32 -78t-62 -36v-3q75 -19 61 -114l-46 -335h108l-10 -66h-101q-40 0 -59 21.5t-14 63.5l45 320q6 37 -11 55t-49 18z" />
    <glyph glyph-name="bar" unicode="|" horiz-adv-x="300" 
d="M168 -49h-128l113 802h128z" />
    <glyph glyph-name="braceright" unicode="}" horiz-adv-x="329" 
d="M288 319l-10 -73q-72 0 -82 -73l-45 -320q-13 -85 -95 -85h-101l9 66h106l48 335q7 45 31.5 75.5t63.5 38.5v3q-36 7 -53 36.5t-10 77.5l45 321h-106l10 70h101q39 0 58 -23t13 -62l-44 -312q-5 -34 10.5 -54.5t50.5 -20.5z" />
    <glyph glyph-name="asciitilde" unicode="~" horiz-adv-x="428" 
d="M86 263h-70q6 80 42.5 121t88.5 41q36 0 83 -29q47 -28 74 -28q52 0 61 64h70q-6 -85 -47 -126q-40 -39 -90 -39q-40 0 -94.5 29.5t-68.5 29.5q-21 0 -34 -17.5t-15 -45.5z" />
    <glyph glyph-name="uni00A0" unicode="&#xa0;" horiz-adv-x="214" 
 />
    <glyph glyph-name="exclamdown" unicode="&#xa1;" horiz-adv-x="302" 
d="M113 582l21 147h163l-20 -147h-164zM67 214l78 285h78l-1 -285l-31 -214h-154z" />
    <glyph glyph-name="cent" unicode="&#xa2;" horiz-adv-x="567" 
d="M219 405l-12 -82q-13 -94 79 -94q80 0 100 71h150q-19 -79 -76.5 -129t-141.5 -61l-12 -80h-97l11 81q-80 13 -122 65t-42 136q0 122 64 204q65 83 171 101l12 82h97l-11 -80q81 -10 124.5 -60t40.5 -129h-150q0 33 -21 51.5t-58 18.5q-92 0 -106 -95z" />
    <glyph glyph-name="sterling" unicode="&#xa3;" horiz-adv-x="652" 
d="M380 603q-40 0 -65.5 -24.5t-31.5 -69.5l-12 -83h223l-17 -122h-223l-24 -172h222l15 107h131l-15 -107l-19 -132h-577l19 132h68l24 172h-68l17 122h68l12 83q14 104 88 166q75 63 187 63q99 0 156 -54t51 -142h-156q-1 29 -21 45t-52 16z" />
    <glyph glyph-name="currency" unicode="&#xa4;" horiz-adv-x="614" 
d="M87 61l-64 74l89 72q-38 63 -27.5 132.5t64.5 130.5l-69 71l85 76l59 -82q63 36 127.5 37t118.5 -34l80 80l62 -77l-82 -68q35 -57 25 -131q-9 -74 -64 -138l65 -70l-83 -73l-57 80q-67 -38 -131 -37t-115 40zM217 329q-4 -42 21 -70t65 -28q50 0 84 37q35 38 35 89
q0 39 -25 64t-64 25q-45 0 -79 -34q-34 -32 -37 -83z" />
    <glyph glyph-name="yen" unicode="&#xa5;" horiz-adv-x="683" 
d="M559 729h187l-237 -336h74l-17 -123h-144l-7 -49h144l-17 -122h-144l-14 -99h-160l14 99h-144l17 122h144l7 49h-144l18 123h73l-143 336h188l68 -199l34 -122h8l71 122z" />
    <glyph glyph-name="brokenbar" unicode="&#xa6;" horiz-adv-x="300" 
d="M231 399h-128l50 354h128zM167 -55h-127l48 345h128z" />
    <glyph glyph-name="section" unicode="&#xa7;" horiz-adv-x="558" 
d="M50 317q0 53 34.5 92.5t90.5 50.5l1 9q-61 28 -61 91q0 76 69 126q71 50 176 50q94 0 147 -43.5t45 -113.5h-157q1 21 -13.5 31.5t-41.5 10.5q-26 0 -39.5 -12t-13.5 -31q0 -12 9 -21q11 -11 38 -21l87 -32q45 -15 77 -38q42 -28 42 -86q0 -47 -25.5 -84.5t-72.5 -57.5
l-1 -10q25 -10 39.5 -35.5t14.5 -58.5q0 -81 -71 -132q-70 -51 -182 -51q-99 0 -153.5 40.5t-50.5 112.5h162q2 -41 55 -41q30 0 47.5 13.5t17.5 36.5q0 15 -11 24.5t-37 18.5l-121 44q-101 36 -101 117zM219 368q0 -30 42 -48l64 -27l39 -15q17 22 17 47q0 15 -9 26
q-8 11 -40 25l-48 21q-7 0 -41 18q-24 -18 -24 -47z" />
    <glyph glyph-name="dieresis" unicode="&#xa8;" horiz-adv-x="415" 
d="M224 733h-118l20 145h118zM434 733h-118l20 145h118z" />
    <glyph glyph-name="copyright" unicode="&#xa9;" horiz-adv-x="950" 
d="M492 -74q-112 0 -207 52q-96 52 -155 148q-59 98 -59 219q0 182 124 300t297 118q110 0 205 -51t153 -148q59 -97 59 -217q0 -182 -123 -302q-124 -119 -294 -119zM869 347q0 166 -110 273t-267 107q-158 0 -269 -108q-111 -107 -111 -274t110 -275q112 -107 269 -107
q158 0 268 107q110 108 110 277zM498 115q-101 0 -168 65q-66 66 -66 165q0 101 66 165q68 65 168 65q89 0 152 -51q62 -51 67 -129h-101q-4 41 -37 66t-81 25q-61 0 -96.5 -39.5t-35.5 -102.5t35 -101.5t95 -38.5q50 0 83 24t37 65h101q-6 -79 -69 -129q-61 -49 -150 -49z
" />
    <glyph glyph-name="ordfeminine" unicode="&#xaa;" horiz-adv-x="454" 
d="M425 584v-151h37v-87h-52q-82 0 -82 72h-5q-25 -76 -118 -76q-54 0 -87.5 31.5t-33.5 82.5q0 56 39.5 88.5t106.5 32.5h82v13q0 49 -58 49q-47 0 -56 -36h-109q5 57 51.5 91.5t121.5 34.5q79 0 121 -38.5t42 -106.5zM312 492v12h-62q-54 0 -54 -39q0 -37 48 -37
q30 0 49 18t19 46z" />
    <glyph glyph-name="guillemotleft" unicode="&#xab;" horiz-adv-x="559" 
d="M136 58l-89 216l150 214h130l-138 -214l77 -216h-130zM366 58l-89 216l150 214h131l-140 -214l79 -216h-131z" />
    <glyph glyph-name="logicalnot" unicode="&#xac;" horiz-adv-x="588" 
d="M514 144h-121l22 153h-354l17 122h475z" />
    <glyph glyph-name="registered" unicode="&#xae;" horiz-adv-x="614" 
d="M299 209q-104 0 -168 61q-65 62 -65 162q0 128 90 216q90 90 217 90q103 0 168 -62t65 -160q0 -127 -90 -217t-217 -90zM304 246q109 0 186 77q77 79 77 188q0 86 -56 139q-56 54 -143 54q-108 0 -186 -79q-77 -79 -77 -187q0 -86 56 -139t143 -53zM279 357h-56l33 244
h126q32 0 49 -15.5t17 -42.5q0 -55 -48 -72l-1 -3h9q32 0 27 -32l-11 -79h-57l11 85h-87zM307 553l-10 -67h54q27 0 32 27l3 15q3 25 -25 25h-54z" />
    <glyph glyph-name="overscore" unicode="&#xaf;" horiz-adv-x="356" 
d="M424 744h-358l16 113h358z" />
    <glyph glyph-name="degree" unicode="&#xb0;" horiz-adv-x="426" 
d="M419 576q0 -68 -46 -113q-47 -45 -116 -45t-114 45q-44 46 -44 113q0 70 44 114q46 44 114 44q69 0 116 -44q46 -43 46 -114zM316 576q0 27 -17 44t-42 17q-24 0 -40 -17t-16 -44q0 -25 16.5 -43t39.5 -18q25 0 42 17.5t17 43.5z" />
    <glyph glyph-name="plusminus" unicode="&#xb1;" horiz-adv-x="620" 
d="M572 328h-192l-21 -156h-126l22 156h-190l17 120h190l21 153h126l-22 -153h192zM526 0h-507l17 122h507z" />
    <glyph glyph-name="uni00B2" unicode="&#xb2;" horiz-adv-x="456" 
d="M199 399l79 4h164l-14 -103h-381l3 19q9 54 36 99q16 27 39 51.5t37 36t47 36.5q6 5 9 7q7 5 30 21t30.5 21.5t24.5 19.5t23.5 22.5t16 22t13 27.5t3.5 29q0 26 -17.5 41t-47.5 15q-36 0 -60 -23.5t-27 -62.5h-118q13 86 73.5 136.5t150.5 50.5q78 0 124 -39t46 -105
q0 -100 -80 -167q-35 -30 -72 -54q-107 -70 -132 -105z" />
    <glyph glyph-name="uni00B3" unicode="&#xb3;" horiz-adv-x="472" 
d="M248 292q-91 0 -139 49q-47 50 -34 129h120q-7 -35 12.5 -55.5t58.5 -20.5q40 0 66 25t26 63q0 59 -79 59h-56l13 94h46q44 0 70.5 21.5t26.5 57.5q0 25 -18 39.5t-47 14.5q-37 0 -62 -20.5t-28 -54.5h-119q7 78 70 127q62 49 156 49q78 0 125 -35t47 -95
q0 -47 -25.5 -84.5t-70.5 -57.5l-1 -5q72 -30 72 -110q0 -82 -66 -136q-64 -54 -164 -54z" />
    <glyph glyph-name="acute" unicode="&#xb4;" horiz-adv-x="419" 
d="M438 845l-242 -129l-37 70l231 158z" />
    <glyph glyph-name="paragraph" unicode="&#xb6;" horiz-adv-x="681" 
d="M326 729h351l-13 -96h-67l-89 -636q-11 -79 -59 -119.5t-128 -40.5h-270l13 87h139l58 410q-89 0 -138.5 43.5t-49.5 117.5q0 104 70 168q71 66 183 66zM307 -76h19q68 0 77 67l89 642h-85z" />
    <glyph glyph-name="middot" unicode="&#xb7;" horiz-adv-x="338" 
d="M64 267q0 50 36 86t86 36q41 0 67 -24.5t26 -64.5q0 -52 -36 -86q-37 -35 -87 -35q-41 0 -66.5 24.5t-25.5 63.5z" />
    <glyph glyph-name="cedilla" unicode="&#xb8;" horiz-adv-x="511" 
d="M272 11l-37 -52q33 1 57.5 -17t24.5 -51q0 -47 -38 -79.5t-87.5 -35.5t-96.5 19l10 72q37 -27 77.5 -19t40.5 45q0 21 -22.5 27t-51.5 -6l5 36l63 85h58z" />
    <glyph glyph-name="uni00B9" unicode="&#xb9;" horiz-adv-x="349" 
d="M216 673h-145l12 90h24q54 0 93.5 27.5t48.5 71.5h110l-79 -562h-117z" />
    <glyph glyph-name="ordmasculine" unicode="&#xba;" horiz-adv-x="469" 
d="M85 535q0 87 52 140q53 54 137 54t137 -54q52 -53 52 -140q0 -86 -52 -139q-53 -53 -137 -53t-137 53q-52 53 -52 139zM199 536q0 -46 20.5 -74t54.5 -28q35 0 55 29q21 29 21 74t-21 73q-19 28 -55 28q-35 0 -55 -28t-20 -74z" />
    <glyph glyph-name="guillemotright" unicode="&#xbb;" horiz-adv-x="559" 
d="M194 488l89 -214l-149 -216h-131l139 216l-79 214h131zM425 488l88 -214l-149 -216h-132l140 216l-79 214h132z" />
    <glyph glyph-name="onequarter" unicode="&#xbc;" horiz-adv-x="910" 
d="M129 -46l527 814h117l-527 -814h-117zM247 256h-100l43 309h-124l11 80h45q43 0 68.5 22.5t25.5 58.5v3h98zM886 480l-43 -306h48l-12 -88h-48l-12 -86h-99l11 86h-209l12 81l200 313h152zM772 373l-127 -199h99z" />
    <glyph glyph-name="onehalf" unicode="&#xbd;" horiz-adv-x="943" 
d="M129 -46l527 814h117l-527 -814h-117zM247 256h-100l43 309h-124l11 80h45q43 0 68.5 22.5t25.5 58.5v3h98zM689 85l63 3h128l-13 -88h-310l2 16q13 103 102 170q14 11 43.5 31t44.5 32t33.5 29.5t27 35.5t8.5 38q0 22 -14 35t-38 13q-30 0 -49.5 -20.5t-23.5 -53.5
l-99 6q11 69 63.5 111.5t126.5 42.5q64 0 100.5 -33t36.5 -88q0 -86 -65 -144q-13 -12 -80.5 -60.5t-86.5 -75.5z" />
    <glyph glyph-name="threequarters" unicode="&#xbe;" horiz-adv-x="971" 
d="M200 -46l527 814h117l-527 -814h-117zM374 409q0 -68 -53 -115q-52 -46 -130 -46q-74 0 -113 41.5t-29 107.5h101q-4 -27 11 -44.5t40 -17.5q30 0 50.5 19.5t20.5 48.5q0 23 -16.5 36t-41.5 13h-41l12 90h30q33 0 54 18t21 47q0 20 -13 30.5t-35 10.5q-27 0 -45.5 -17
t-21.5 -45h-101q8 67 57.5 108t125.5 41q64 0 101 -29.5t37 -79.5q0 -86 -81 -120v-5q60 -26 60 -92zM958 480l-43 -306h48l-12 -88h-48l-12 -86h-99l11 86h-209l12 81l200 313h152zM844 373l-127 -199h99z" />
    <glyph glyph-name="questiondown" unicode="&#xbf;" horiz-adv-x="592" 
d="M307 729h156l-21 -148h-156zM282 517h145l-28 -198q-24 8 -66 8q-67 0 -108 -33.5t-41 -89.5q0 -39 26.5 -60.5t72.5 -21.5t79 22t43 61h149q-21 -101 -99.5 -157.5t-193.5 -56.5q-111 0 -171.5 51t-60.5 141q0 103 70 173q71 71 172 83z" />
    <glyph glyph-name="Agrave" unicode="&#xc0;" horiz-adv-x="710" 
d="M293 1012l186 -158l-57 -70l-206 129zM674 0h-172l-25 127h-283l-61 -127h-171l359 729h188zM294 334l-40 -83h199l-16 83l-35 226h-6z" />
    <glyph glyph-name="Aacute" unicode="&#xc1;" horiz-adv-x="710" 
d="M616 1012l48 -99l-242 -129l-37 70zM674 0h-172l-25 127h-283l-61 -127h-171l359 729h188zM294 334l-40 -83h199l-16 83l-35 226h-6z" />
    <glyph glyph-name="Acircumflex" unicode="&#xc2;" horiz-adv-x="710" 
d="M532 781l-94 118l-128 -118l-62 70l159 137h87l120 -137zM674 0h-172l-25 127h-283l-61 -127h-171l359 729h188zM294 334l-40 -83h199l-16 83l-35 226h-6z" />
    <glyph glyph-name="Atilde" unicode="&#xc3;" horiz-adv-x="710" 
d="M364 815q-31 0 -65 -37l-55 41q54 100 135 100q27 -2 62 -19q36 -18 59 -18q38 0 64 38l56 -40q-52 -104 -136 -103q-30 2 -63 19q-34 19 -57 19zM674 0h-172l-25 127h-283l-61 -127h-171l359 729h188zM294 334l-40 -83h199l-16 83l-35 226h-6z" />
    <glyph glyph-name="Adieresis" unicode="&#xc4;" horiz-adv-x="710" 
d="M279 934h118l-20 -145h-118zM489 934h118l-20 -145h-118zM674 0h-172l-25 127h-283l-61 -127h-171l359 729h188zM294 334l-40 -83h199l-16 83l-35 226h-6z" />
    <glyph glyph-name="Aring" unicode="&#xc5;" horiz-adv-x="710" 
d="M674 0h-172l-25 127h-283l-61 -127h-171l351 713q-19 25 -19 62q0 61 42 101q44 41 105 41q50 0 81 -28t31 -74q0 -60 -41 -101zM431 844q-23 0 -38 -16.5t-15 -41.5q0 -18 10.5 -29t28.5 -11q22 0 37.5 17t15.5 41q0 18 -10.5 29t-28.5 11zM294 334l-40 -83h199l-16 83
l-35 226h-6z" />
    <glyph glyph-name="AE" unicode="&#xc6;" horiz-adv-x="988" 
d="M1004 729l-19 -139h-347l-23 -162h293l-18 -130h-293l-23 -159h347l-19 -139h-509l23 165h-216l-72 -165h-166l333 729h709zM255 290h179l42 300h-89z" />
    <glyph glyph-name="Ccedilla" unicode="&#xc7;" horiz-adv-x="754" 
d="M227 422l-16 -121q-11 -76 30 -123t122 -47q66 0 116.5 34.5t71.5 94.5h169q-31 -120 -130 -193q-98 -72 -235 -77l-22 -31q33 1 57.5 -17t24.5 -51q0 -47 -38 -79.5t-87.5 -35.5t-96.5 19l10 72q37 -27 77.5 -19t40.5 45q0 21 -22.5 27t-51.5 -6l5 36l32 44
q-116 15 -178.5 91.5t-62.5 200.5q0 200 114 326q115 126 298 126q142 0 221 -73q80 -74 73 -195h-168q-3 59 -43 93t-109 34q-81 0 -136 -47t-66 -128z" />
    <glyph glyph-name="Egrave" unicode="&#xc8;" horiz-adv-x="641" 
d="M465 854l-57 -70l-206 129l77 99zM555 0h-515l102 729h515l-19 -139h-354l-20 -147h303l-19 -131h-303l-24 -173h354z" />
    <glyph glyph-name="Eacute" unicode="&#xc9;" horiz-adv-x="641" 
d="M649 913l-242 -129l-37 70l231 158zM555 0h-515l102 729h515l-19 -139h-354l-20 -147h303l-19 -131h-303l-24 -173h354z" />
    <glyph glyph-name="Ecircumflex" unicode="&#xca;" horiz-adv-x="641" 
d="M296 781l-62 70l159 137h87l120 -137l-82 -70l-94 118zM555 0h-515l102 729h515l-19 -139h-354l-20 -147h303l-19 -131h-303l-24 -173h354z" />
    <glyph glyph-name="Edieresis" unicode="&#xcb;" horiz-adv-x="641" 
d="M362 789h-118l20 145h118zM572 789h-118l20 145h118zM555 0h-515l102 729h515l-19 -139h-354l-20 -147h303l-19 -131h-303l-24 -173h354z" />
    <glyph glyph-name="Igrave" unicode="&#xcc;" horiz-adv-x="316" 
d="M288 854l-57 -70l-206 129l77 99zM303 729l-102 -729h-161l102 729h161z" />
    <glyph glyph-name="Iacute" unicode="&#xcd;" horiz-adv-x="316" 
d="M472 913l-242 -129l-37 70l231 158zM303 729l-102 -729h-161l102 729h161z" />
    <glyph glyph-name="Icircumflex" unicode="&#xce;" horiz-adv-x="316" 
d="M119 781l-62 70l159 137h87l120 -137l-82 -70l-94 118zM303 729l-102 -729h-161l102 729h161z" />
    <glyph glyph-name="Idieresis" unicode="&#xcf;" horiz-adv-x="316" 
d="M185 789h-118l20 145h118zM395 789h-118l20 145h118zM303 729l-102 -729h-161l102 729h161z" />
    <glyph glyph-name="Eth" unicode="&#xd0;" horiz-adv-x="752" 
d="M142 729h312q285 0 285 -271q0 -216 -103 -337q-102 -121 -284 -121h-312l44 316h-74l14 117h77zM554 302l17 125q12 89 -21.5 126t-119.5 37h-146l-22 -157h119l-14 -117h-121l-25 -177h146q89 0 132 38t55 125z" />
    <glyph glyph-name="Ntilde" unicode="&#xd1;" horiz-adv-x="792" 
d="M533 777q-30 2 -63 19q-34 19 -57 19q-31 0 -65 -37l-55 41q54 100 135 100q27 -2 62 -19q36 -18 59 -18q38 0 64 38l56 -40q-52 -104 -136 -103zM201 0h-161l102 729h186l224 -503h7l19 209l42 294h160l-102 -729h-187l-222 499h-7l-19 -201z" />
    <glyph glyph-name="Ograve" unicode="&#xd2;" horiz-adv-x="778" 
d="M519 854l-57 -70l-206 129l77 99zM43 289q0 195 116 322q117 127 297 127q144 0 226 -81t82 -221q0 -196 -116 -321t-297 -125q-145 0 -227 80q-81 80 -81 219zM227 416l-15 -103q-13 -85 30 -133.5t128 -48.5q86 0 142.5 49t68.5 133l15 103q12 84 -31.5 132.5
t-128.5 48.5q-86 0 -141.5 -48.5t-67.5 -132.5z" />
    <glyph glyph-name="Oacute" unicode="&#xd3;" horiz-adv-x="778" 
d="M704 913l-242 -129l-37 70l231 158zM43 289q0 195 116 322q117 127 297 127q144 0 226 -81t82 -221q0 -196 -116 -321t-297 -125q-145 0 -227 80q-81 80 -81 219zM227 416l-15 -103q-13 -85 30 -133.5t128 -48.5q86 0 142.5 49t68.5 133l15 103q12 84 -31.5 132.5
t-128.5 48.5q-86 0 -141.5 -48.5t-67.5 -132.5z" />
    <glyph glyph-name="Ocircumflex" unicode="&#xd4;" horiz-adv-x="778" 
d="M350 781l-62 70l159 137h87l120 -137l-82 -70l-94 118zM43 289q0 195 116 322q117 127 297 127q144 0 226 -81t82 -221q0 -196 -116 -321t-297 -125q-145 0 -227 80q-81 80 -81 219zM227 416l-15 -103q-13 -85 30 -133.5t128 -48.5q86 0 142.5 49t68.5 133l15 103
q12 84 -31.5 132.5t-128.5 48.5q-86 0 -141.5 -48.5t-67.5 -132.5z" />
    <glyph glyph-name="Otilde" unicode="&#xd5;" horiz-adv-x="778" 
d="M523 777q-30 2 -63 19q-34 19 -57 19q-31 0 -65 -37l-55 41q54 100 135 100q27 -2 62 -19q36 -18 59 -18q38 0 64 38l56 -40q-52 -104 -136 -103zM43 289q0 195 116 322q117 127 297 127q144 0 226 -81t82 -221q0 -196 -116 -321t-297 -125q-145 0 -227 80
q-81 80 -81 219zM227 416l-15 -103q-13 -85 30 -133.5t128 -48.5q86 0 142.5 49t68.5 133l15 103q12 84 -31.5 132.5t-128.5 48.5q-86 0 -141.5 -48.5t-67.5 -132.5z" />
    <glyph glyph-name="Odieresis" unicode="&#xd6;" horiz-adv-x="778" 
d="M416 789h-118l20 145h118zM626 789h-118l20 145h118zM43 289q0 195 116 322q117 127 297 127q144 0 226 -81t82 -221q0 -196 -116 -321t-297 -125q-145 0 -227 80q-81 80 -81 219zM227 416l-15 -103q-13 -85 30 -133.5t128 -48.5q86 0 142.5 49t68.5 133l15 103
q12 84 -31.5 132.5t-128.5 48.5q-86 0 -141.5 -48.5t-67.5 -132.5z" />
    <glyph glyph-name="multiply" unicode="&#xd7;" horiz-adv-x="678" 
d="M111 9l-78 94l218 197l-163 199l104 93l160 -193h11l211 193l79 -93l-218 -199l163 -197l-105 -94l-158 193h-11z" />
    <glyph glyph-name="Oslash" unicode="&#xd8;" horiz-adv-x="778" 
d="M765 672l55 -97l-67 -44q11 -49 11 -95q0 -196 -116 -321t-297 -125q-170 0 -253 110l-65 -43l-47 102l66 44q-9 39 -9 86q0 195 116 322q117 127 297 127q167 0 248 -106zM227 416l-15 -103q0 -1 -0.5 -3t-0.5 -3l358 236q-42 54 -133 54q-86 0 -141.5 -48.5
t-67.5 -132.5zM581 313l15 103q1 3 1 13l-363 -239q41 -59 136 -59q86 0 142.5 49t68.5 133z" />
    <glyph glyph-name="Ugrave" unicode="&#xd9;" horiz-adv-x="771" 
d="M534 854l-57 -70l-206 129l77 99zM92 279l63 450h161l-62 -440q-11 -73 24 -114t108 -41t119.5 40.5t56.5 114.5l62 440h160l-63 -450q-20 -136 -116 -212q-97 -77 -240 -77q-153 0 -222.5 77t-50.5 212z" />
    <glyph glyph-name="Uacute" unicode="&#xda;" horiz-adv-x="771" 
d="M719 913l-242 -129l-37 70l231 158zM92 279l63 450h161l-62 -440q-11 -73 24 -114t108 -41t119.5 40.5t56.5 114.5l62 440h160l-63 -450q-20 -136 -116 -212q-97 -77 -240 -77q-153 0 -222.5 77t-50.5 212z" />
    <glyph glyph-name="Ucircumflex" unicode="&#xdb;" horiz-adv-x="771" 
d="M366 781l-62 70l159 137h87l120 -137l-82 -70l-94 118zM92 279l63 450h161l-62 -440q-11 -73 24 -114t108 -41t119.5 40.5t56.5 114.5l62 440h160l-63 -450q-20 -136 -116 -212q-97 -77 -240 -77q-153 0 -222.5 77t-50.5 212z" />
    <glyph glyph-name="Udieresis" unicode="&#xdc;" horiz-adv-x="771" 
d="M432 789h-118l20 145h118zM642 789h-118l20 145h118zM92 279l63 450h161l-62 -440q-11 -73 24 -114t108 -41t119.5 40.5t56.5 114.5l62 440h160l-63 -450q-20 -136 -116 -212q-97 -77 -240 -77q-153 0 -222.5 77t-50.5 212z" />
    <glyph glyph-name="Yacute" unicode="&#xdd;" horiz-adv-x="707" 
d="M667 913l-242 -129l-37 70l231 158zM274 279l-208 450h186l57 -151l56 -155h8l101 153l100 153h196l-335 -450l-38 -279h-162z" />
    <glyph glyph-name="Thorn" unicode="&#xde;" horiz-adv-x="688" 
d="M287 611h181q104 0 159.5 -50.5t55.5 -144.5q0 -134 -78 -216q-77 -81 -206 -81h-181l-17 -119h-161l70 495h-1l33 234h161zM504 334l7 55q6 37 -16.5 57.5t-65.5 20.5h-162l-30 -215h160q45 0 73.5 22.5t33.5 59.5z" />
    <glyph glyph-name="germandbls" unicode="&#xdf;" horiz-adv-x="613" 
d="M91 393h-66l17 123h67l3 20q10 97 83 150q74 53 178 53q95 0 150 -42t55 -114q0 -60 -33.5 -108t-90.5 -68l-1 -7q59 -11 92 -53.5t33 -102.5q0 -110 -78 -178q-78 -66 -206 -66h-59l18 129h51q44 0 74 23t35 60l7 42q5 39 -18 61.5t-71 22.5h-35l16 120h20q29 0 50 14.5
t25 36.5l6 40q4 25 -14 39t-49 14q-72 0 -83 -76l-74 -526h-157z" />
    <glyph glyph-name="agrave" unicode="&#xe0;" horiz-adv-x="583" 
d="M382 668l-57 -70l-206 129l77 99zM7 125q0 88 60 142q61 55 159 55h136l5 34q11 75 -74 75q-36 0 -60.5 -18t-30.5 -48h-150q19 83 90 132t175 49q113 0 163.5 -53.5t36.5 -154.5l-32 -232h61l-16 -106h-85q-48 0 -71.5 16t-22.5 59l1 13h-10q-20 -44 -70 -71t-113 -27
q-71 0 -111.5 36.5t-40.5 98.5zM167 179l-3 -23q-7 -51 59 -51q50 0 84.5 29.5t40.5 77.5l2 15h-109q-31 0 -51.5 -13t-22.5 -35z" />
    <glyph glyph-name="aacute" unicode="&#xe1;" horiz-adv-x="583" 
d="M566 727l-242 -129l-37 70l231 158zM7 125q0 88 60 142q61 55 159 55h136l5 34q11 75 -74 75q-36 0 -60.5 -18t-30.5 -48h-150q19 83 90 132t175 49q113 0 163.5 -53.5t36.5 -154.5l-32 -232h61l-16 -106h-85q-48 0 -71.5 16t-22.5 59l1 13h-10q-20 -44 -70 -71t-113 -27
q-71 0 -111.5 36.5t-40.5 98.5zM167 179l-3 -23q-7 -51 59 -51q50 0 84.5 29.5t40.5 77.5l2 15h-109q-31 0 -51.5 -13t-22.5 -35z" />
    <glyph glyph-name="acircumflex" unicode="&#xe2;" horiz-adv-x="583" 
d="M213 594l-62 70l159 137h87l120 -137l-82 -70l-94 118zM7 125q0 88 60 142q61 55 159 55h136l5 34q11 75 -74 75q-36 0 -60.5 -18t-30.5 -48h-150q19 83 90 132t175 49q113 0 163.5 -53.5t36.5 -154.5l-32 -232h61l-16 -106h-85q-48 0 -71.5 16t-22.5 59l1 13h-10
q-20 -44 -70 -71t-113 -27q-71 0 -111.5 36.5t-40.5 98.5zM167 179l-3 -23q-7 -51 59 -51q50 0 84.5 29.5t40.5 77.5l2 15h-109q-31 0 -51.5 -13t-22.5 -35z" />
    <glyph glyph-name="atilde" unicode="&#xe3;" horiz-adv-x="583" 
d="M386 591q-30 2 -63 19q-34 19 -57 19q-31 0 -65 -37l-55 41q54 100 135 100q27 -2 62 -19q36 -18 59 -18q38 0 64 38l56 -40q-52 -104 -136 -103zM7 125q0 88 60 142q61 55 159 55h136l5 34q11 75 -74 75q-36 0 -60.5 -18t-30.5 -48h-150q19 83 90 132t175 49
q113 0 163.5 -53.5t36.5 -154.5l-32 -232h61l-16 -106h-85q-48 0 -71.5 16t-22.5 59l1 13h-10q-20 -44 -70 -71t-113 -27q-71 0 -111.5 36.5t-40.5 98.5zM167 179l-3 -23q-7 -51 59 -51q50 0 84.5 29.5t40.5 77.5l2 15h-109q-31 0 -51.5 -13t-22.5 -35z" />
    <glyph glyph-name="adieresis" unicode="&#xe4;" horiz-adv-x="583" 
d="M279 603h-118l20 145h118zM489 603h-118l20 145h118zM7 125q0 88 60 142q61 55 159 55h136l5 34q11 75 -74 75q-36 0 -60.5 -18t-30.5 -48h-150q19 83 90 132t175 49q113 0 163.5 -53.5t36.5 -154.5l-32 -232h61l-16 -106h-85q-48 0 -71.5 16t-22.5 59l1 13h-10
q-20 -44 -70 -71t-113 -27q-71 0 -111.5 36.5t-40.5 98.5zM167 179l-3 -23q-7 -51 59 -51q50 0 84.5 29.5t40.5 77.5l2 15h-109q-31 0 -51.5 -13t-22.5 -35z" />
    <glyph glyph-name="aring" unicode="&#xe5;" horiz-adv-x="583" 
d="M517 338l-32 -232h61l-16 -106h-85q-48 0 -71.5 16t-22.5 59l1 13h-10q-20 -44 -70 -71t-113 -27q-71 0 -111.5 36.5t-40.5 98.5q0 88 60 142q61 55 159 55h136l5 34q11 75 -74 75q-36 0 -60.5 -18t-30.5 -48h-150q15 65 62 109.5t118 61.5q-32 29 -32 76q0 62 42 102
q44 41 105 41q51 0 81.5 -28t30.5 -75q0 -74 -59 -115q139 -37 117 -199zM337 682q-22 0 -37.5 -17t-15.5 -42q0 -18 10.5 -29t28.5 -11q22 0 37.5 17t15.5 41q0 18 -10.5 29.5t-28.5 11.5zM348 212l2 15h-109q-31 0 -51.5 -13t-22.5 -35l-3 -23q-7 -51 59 -51
q50 0 84.5 29.5t40.5 77.5z" />
    <glyph glyph-name="ae" unicode="&#xe6;" horiz-adv-x="902" 
d="M171 -10q-78 0 -121 36t-43 99q0 88 61 142q61 55 161 55h130l5 34q4 35 -15.5 54.5t-55.5 19.5t-60.5 -18t-30.5 -47h-150q20 86 89 133q71 48 169 48q116 0 161 -68q71 68 190 68q101 0 158.5 -55t57.5 -150q0 -52 -17 -109h-360q-8 -57 19.5 -89.5t84.5 -32.5
q40 0 73.5 17.5t46.5 46.5h137q-26 -85 -100 -134q-76 -50 -174 -50q-74 0 -126.5 30.5t-68.5 81.5q-33 -53 -92 -82.5t-129 -29.5zM515 334h215q4 45 -20.5 70.5t-69.5 25.5q-47 0 -80.5 -25.5t-44.5 -70.5zM221 105q51 1 84.5 29.5t40.5 78.5l2 14h-108q-30 0 -50 -13.5
t-23 -34.5l-4 -23q-4 -24 12 -37.5t46 -13.5z" />
    <glyph glyph-name="ccedilla" unicode="&#xe7;" horiz-adv-x="571" 
d="M191 311l-14 -91q-7 -50 18 -78t74 -28q43 0 74 22t42 61h150q-22 -94 -94 -149t-175 -58l-24 -34q33 1 57.5 -17t24.5 -51q0 -47 -38 -79.5t-87.5 -35.5t-96.5 19l10 72q37 -27 77.5 -19t40.5 45q0 21 -23 27t-51 -6l5 36l35 48q-83 14 -127 70t-44 146q0 147 86 241
q87 94 224 94q104 0 163.5 -55.5t57.5 -148.5h-151q-1 38 -25.5 59t-66.5 21q-50 0 -82.5 -30t-39.5 -81z" />
    <glyph glyph-name="egrave" unicode="&#xe8;" horiz-adv-x="578" 
d="M397 668l-57 -70l-206 129l77 99zM26 213q0 148 85 240q85 93 222 93q102 0 161 -54t59 -149q0 -47 -16 -110h-356l-4 -29q-6 -44 20.5 -71t74.5 -27q39 0 69.5 17t43.5 45h150q-25 -80 -102 -130q-77 -48 -177 -48q-110 0 -170 59t-60 164zM198 341l-1 -8h208l1 10
q3 39 -22 63t-70 24q-48 0 -81 -25t-35 -64z" />
    <glyph glyph-name="eacute" unicode="&#xe9;" horiz-adv-x="578" 
d="M581 727l-242 -129l-37 70l231 158zM26 213q0 148 85 240q85 93 222 93q102 0 161 -54t59 -149q0 -47 -16 -110h-356l-4 -29q-6 -44 20.5 -71t74.5 -27q39 0 69.5 17t43.5 45h150q-25 -80 -102 -130q-77 -48 -177 -48q-110 0 -170 59t-60 164zM198 341l-1 -8h208l1 10
q3 39 -22 63t-70 24q-48 0 -81 -25t-35 -64z" />
    <glyph glyph-name="ecircumflex" unicode="&#xea;" horiz-adv-x="578" 
d="M228 594l-62 70l159 137h87l120 -137l-82 -70l-94 118zM26 213q0 148 85 240q85 93 222 93q102 0 161 -54t59 -149q0 -47 -16 -110h-356l-4 -29q-6 -44 20.5 -71t74.5 -27q39 0 69.5 17t43.5 45h150q-25 -80 -102 -130q-77 -48 -177 -48q-110 0 -170 59t-60 164zM198 341
l-1 -8h208l1 10q3 39 -22 63t-70 24q-48 0 -81 -25t-35 -64z" />
    <glyph glyph-name="edieresis" unicode="&#xeb;" horiz-adv-x="578" 
d="M294 603h-118l20 145h118zM504 603h-118l20 145h118zM26 213q0 148 85 240q85 93 222 93q102 0 161 -54t59 -149q0 -47 -16 -110h-356l-4 -29q-6 -44 20.5 -71t74.5 -27q39 0 69.5 17t43.5 45h150q-25 -80 -102 -130q-77 -48 -177 -48q-110 0 -170 59t-60 164zM198 341
l-1 -8h208l1 10q3 39 -22 63t-70 24q-48 0 -81 -25t-35 -64z" />
    <glyph glyph-name="igrave" unicode="&#xec;" horiz-adv-x="275" 
d="M241 664l-57 -70l-206 129l77 99zM176 0h-152l75 536h153z" />
    <glyph glyph-name="iacute" unicode="&#xed;" horiz-adv-x="275" 
d="M426 723l-242 -129l-37 70l231 158zM176 0h-152l75 536h153z" />
    <glyph glyph-name="icircumflex" unicode="&#xee;" horiz-adv-x="275" 
d="M72 590l-62 70l159 137h87l120 -137l-82 -70l-94 118zM176 0h-152l75 536h153z" />
    <glyph glyph-name="idieresis" unicode="&#xef;" horiz-adv-x="275" 
d="M138 599h-118l20 145h118zM348 599h-118l20 145h118zM176 0h-152l75 536h153z" />
    <glyph glyph-name="eth" unicode="&#xf0;" horiz-adv-x="596" 
d="M22 198q0 122 78 202q80 80 199 80q41 0 62 -9l3 4l-35 38l-35 52l-140 -48l15 108l76 26l-57 104h184l27 -50l142 50l-15 -109l-81 -26l50 -89l34 -70q14 -29 25 -71q14 -51 14 -93q0 -133 -89 -220q-89 -86 -224 -86q-108 0 -170.5 55.5t-62.5 151.5zM192 278l-9 -65
q-7 -44 18.5 -70.5t75.5 -26.5t83 26.5t39 70.5l9 65q7 46 -19.5 72t-75.5 26q-48 0 -81 -26.5t-40 -71.5z" />
    <glyph glyph-name="ntilde" unicode="&#xf1;" horiz-adv-x="639" 
d="M508 591q-30 2 -63 19q-34 19 -57 19q-31 0 -65 -37l-55 41q54 100 135 100q27 -2 62 -19q36 -18 59 -18q38 0 64 38l56 -40q-52 -104 -136 -103zM177 0h-153l75 536h134l6 -99h9q30 53 80 81t111 28q89 0 127.5 -59.5t23.5 -165.5l-45 -321h-152l43 305q15 115 -82 115
q-54 0 -91.5 -37t-46.5 -100z" />
    <glyph glyph-name="ograve" unicode="&#xf2;" horiz-adv-x="595" 
d="M401 668l-57 -70l-206 129l77 99zM26 215q0 145 87 238t224 93q108 0 171 -59.5t63 -164.5q0 -145 -88 -239q-87 -93 -224 -93q-108 0 -170.5 60t-62.5 165zM191 309l-12 -84q-7 -54 19 -82.5t79 -28.5q54 0 87.5 28.5t41.5 82.5l11 84q7 53 -19 83t-78 30
q-53 0 -87.5 -30t-41.5 -83z" />
    <glyph glyph-name="oacute" unicode="&#xf3;" horiz-adv-x="595" 
d="M586 727l-242 -129l-37 70l231 158zM26 215q0 145 87 238t224 93q108 0 171 -59.5t63 -164.5q0 -145 -88 -239q-87 -93 -224 -93q-108 0 -170.5 60t-62.5 165zM191 309l-12 -84q-7 -54 19 -82.5t79 -28.5q54 0 87.5 28.5t41.5 82.5l11 84q7 53 -19 83t-78 30
q-53 0 -87.5 -30t-41.5 -83z" />
    <glyph glyph-name="ocircumflex" unicode="&#xf4;" horiz-adv-x="595" 
d="M232 594l-62 70l159 137h87l120 -137l-82 -70l-94 118zM26 215q0 145 87 238t224 93q108 0 171 -59.5t63 -164.5q0 -145 -88 -239q-87 -93 -224 -93q-108 0 -170.5 60t-62.5 165zM191 309l-12 -84q-7 -54 19 -82.5t79 -28.5q54 0 87.5 28.5t41.5 82.5l11 84q7 53 -19 83
t-78 30q-53 0 -87.5 -30t-41.5 -83z" />
    <glyph glyph-name="otilde" unicode="&#xf5;" horiz-adv-x="595" 
d="M406 591q-30 2 -63 19q-34 19 -57 19q-31 0 -65 -37l-55 41q54 100 135 100q27 -2 62 -19q36 -18 59 -18q38 0 64 38l56 -40q-52 -104 -136 -103zM26 215q0 145 87 238t224 93q108 0 171 -59.5t63 -164.5q0 -145 -88 -239q-87 -93 -224 -93q-108 0 -170.5 60t-62.5 165z
M191 309l-12 -84q-7 -54 19 -82.5t79 -28.5q54 0 87.5 28.5t41.5 82.5l11 84q7 53 -19 83t-78 30q-53 0 -87.5 -30t-41.5 -83z" />
    <glyph glyph-name="odieresis" unicode="&#xf6;" horiz-adv-x="595" 
d="M298 603h-118l20 145h118zM508 603h-118l20 145h118zM26 215q0 145 87 238t224 93q108 0 171 -59.5t63 -164.5q0 -145 -88 -239q-87 -93 -224 -93q-108 0 -170.5 60t-62.5 165zM191 309l-12 -84q-7 -54 19 -82.5t79 -28.5q54 0 87.5 28.5t41.5 82.5l11 84q7 53 -19 83
t-78 30q-53 0 -87.5 -30t-41.5 -83z" />
    <glyph glyph-name="divide" unicode="&#xf7;" horiz-adv-x="641" 
d="M420 418h-158l21 151h159zM561 228h-492l17 123h492zM363 9h-158l21 151h158z" />
    <glyph glyph-name="oslash" unicode="&#xf8;" horiz-adv-x="595" 
d="M578 509l44 -81l-92 -61q3 -21 3 -45q0 -147 -88 -239q-87 -93 -224 -93q-109 0 -171 60l-33 -22l-43 80l28 18q-14 44 -14 89q0 145 87 238t224 93t198 -91zM153 309l-12 -84l-1 -3v-4l233 155q-21 49 -91 49q-53 0 -87.5 -30t-41.5 -83zM368 225l6 39l-201 -133
q26 -17 66 -17q54 0 88 29t41 82z" />
    <glyph glyph-name="ugrave" unicode="&#xf9;" horiz-adv-x="633" 
d="M431 664l-57 -70l-206 129l77 99zM471 536h152l-75 -536h-134l-5 98h-10q-65 -108 -189 -108q-86 0 -124.5 56t-24.5 155l47 335h153l-44 -311q-17 -111 78 -111q54 0 91 38t45 101z" />
    <glyph glyph-name="uacute" unicode="&#xfa;" horiz-adv-x="633" 
d="M616 723l-242 -129l-37 70l231 158zM471 536h152l-75 -536h-134l-5 98h-10q-65 -108 -189 -108q-86 0 -124.5 56t-24.5 155l47 335h153l-44 -311q-17 -111 78 -111q54 0 91 38t45 101z" />
    <glyph glyph-name="ucircumflex" unicode="&#xfb;" horiz-adv-x="633" 
d="M262 590l-62 70l159 137h87l120 -137l-82 -70l-94 118zM471 536h152l-75 -536h-134l-5 98h-10q-65 -108 -189 -108q-86 0 -124.5 56t-24.5 155l47 335h153l-44 -311q-17 -111 78 -111q54 0 91 38t45 101z" />
    <glyph glyph-name="udieresis" unicode="&#xfc;" horiz-adv-x="633" 
d="M328 599h-118l20 145h118zM538 599h-118l20 145h118zM471 536h152l-75 -536h-134l-5 98h-10q-65 -108 -189 -108q-86 0 -124.5 56t-24.5 155l47 335h153l-44 -311q-17 -111 78 -111q54 0 91 38t45 101z" />
    <glyph glyph-name="yacute" unicode="&#xfd;" horiz-adv-x="570" 
d="M571 725l-242 -129l-37 70l231 158zM181 72l-153 464h156l42 -162l40 -169h6l89 169l89 162h164l-282 -464l-16 -110q-7 -43 -19 -66q-31 -63 -126 -63h-140l17 120h116z" />
    <glyph glyph-name="thorn" unicode="&#xfe;" horiz-adv-x="648" 
d="M153 -167h-153l128 911h153l-43 -304h9q30 50 82 78t112 28q87 0 135 -55t48 -154q0 -150 -74 -248q-74 -96 -187 -96q-65 0 -107 28t-57 77h-9zM323 116q55 0 91 29t43 82l12 85q6 52 -19.5 81.5t-83.5 29.5q-60 0 -100 -35t-49 -96l-6 -45q-9 -60 21.5 -95.5
t90.5 -35.5z" />
    <glyph glyph-name="ydieresis" unicode="&#xff;" horiz-adv-x="570" 
d="M284 601h-118l20 145h118zM494 601h-118l20 145h118zM181 72l-153 464h156l42 -162l40 -169h6l89 169l89 162h164l-282 -464l-16 -110q-7 -43 -19 -66q-31 -63 -126 -63h-140l17 120h116z" />
    <glyph glyph-name="Amacron" unicode="&#x100;" horiz-adv-x="710" 
d="M259 901h358l-16 -113h-358zM674 0h-172l-25 127h-283l-61 -127h-171l359 729h188zM294 334l-40 -83h199l-16 83l-35 226h-6z" />
    <glyph glyph-name="amacron" unicode="&#x101;" horiz-adv-x="583" 
d="M504 602h-358l16 113h358zM7 125q0 88 60 142q61 55 159 55h136l5 34q11 75 -74 75q-36 0 -60.5 -18t-30.5 -48h-150q19 83 90 132t175 49q113 0 163.5 -53.5t36.5 -154.5l-32 -232h61l-16 -106h-85q-48 0 -71.5 16t-22.5 59l1 13h-10q-20 -44 -70 -71t-113 -27
q-71 0 -111.5 36.5t-40.5 98.5zM167 179l-3 -23q-7 -51 59 -51q50 0 84.5 29.5t40.5 77.5l2 15h-109q-31 0 -51.5 -13t-22.5 -35z" />
    <glyph glyph-name="Abreve" unicode="&#x102;" horiz-adv-x="710" 
d="M281 940h93q-5 -36 11 -56.5t47 -20.5q33 0 54.5 20.5t26.5 56.5h94q-10 -72 -61 -117t-125 -45t-112 45t-28 117zM674 0h-172l-25 127h-283l-61 -127h-171l359 729h188zM294 334l-40 -83h199l-16 83l-35 226h-6z" />
    <glyph glyph-name="abreve" unicode="&#x103;" horiz-adv-x="583" 
d="M415 754h94q-10 -72 -61 -117t-125 -45t-112 45t-28 117h93q-5 -36 11 -56.5t47 -20.5q33 0 54.5 20.5t26.5 56.5zM7 125q0 88 60 142q61 55 159 55h136l5 34q11 75 -74 75q-36 0 -60.5 -18t-30.5 -48h-150q19 83 90 132t175 49q113 0 163.5 -53.5t36.5 -154.5l-32 -232
h61l-16 -106h-85q-48 0 -71.5 16t-22.5 59l1 13h-10q-20 -44 -70 -71t-113 -27q-71 0 -111.5 36.5t-40.5 98.5zM167 179l-3 -23q-7 -51 59 -51q50 0 84.5 29.5t40.5 77.5l2 15h-109q-31 0 -51.5 -13t-22.5 -35z" />
    <glyph glyph-name="Aogonek" unicode="&#x104;" horiz-adv-x="710" 
d="M629 -121q23 0 56 11l-11 -78q-33 -16 -84 -16q-50 1 -80 25.5t-30 66.5q0 67 62 112h-40l-25 127h-283l-61 -127h-171l359 729h188l165 -729q-48 -8 -75 -30t-27 -53q0 -38 57 -38zM294 334l-40 -83h199l-16 83l-35 226h-6z" />
    <glyph glyph-name="aogonek" unicode="&#x105;" horiz-adv-x="583" 
d="M429 -83q0 -38 57 -38q23 0 56 11l-11 -78q-33 -16 -84 -16q-50 1 -80 25.5t-30 66.5q0 72 67 115q-54 12 -53 72l1 13h-10q-20 -44 -70 -71t-113 -27q-71 0 -111.5 36.5t-40.5 98.5q0 88 60 142q61 55 159 55h136l5 34q11 75 -74 75q-36 0 -60.5 -18t-30.5 -48h-150
q19 83 90 132t175 49q113 0 163.5 -53.5t36.5 -154.5l-32 -232h61l-16 -105l1 -1q-48 -8 -75 -30t-27 -53zM348 212l2 15h-109q-31 0 -51.5 -13t-22.5 -35l-3 -23q-7 -51 59 -51q50 0 84.5 29.5t40.5 77.5z" />
    <glyph glyph-name="Cacute" unicode="&#x106;" horiz-adv-x="754" 
d="M692 913l-242 -129l-37 70l231 158zM342 -10q-142 0 -220.5 78t-78.5 218q0 200 114 326q115 126 298 126q142 0 221 -73q80 -74 73 -195h-168q-3 59 -43 93t-109 34q-81 0 -136 -47t-66 -128l-16 -121q-11 -76 30 -123t122 -47q66 0 116.5 34.5t71.5 94.5h169
q-32 -124 -134 -197q-103 -73 -244 -73z" />
    <glyph glyph-name="cacute" unicode="&#x107;" horiz-adv-x="571" 
d="M584 727l-242 -129l-37 70l231 158zM385 197h150q-23 -98 -98 -152.5t-183 -54.5q-109 0 -169 58t-60 163q0 147 86 241q87 94 224 94q104 0 163.5 -55.5t57.5 -148.5h-151q-1 38 -25.5 59t-66.5 21q-50 0 -82.5 -30t-39.5 -81l-14 -91q-7 -50 18 -78t74 -28q43 0 74 22
t42 61z" />
    <glyph glyph-name="Cdotaccent" unicode="&#x10a;" horiz-adv-x="754" 
d="M511 789h-118l20 145h118zM342 -10q-142 0 -220.5 78t-78.5 218q0 200 114 326q115 126 298 126q142 0 221 -73q80 -74 73 -195h-168q-3 59 -43 93t-109 34q-81 0 -136 -47t-66 -128l-16 -121q-11 -76 30 -123t122 -47q66 0 116.5 34.5t71.5 94.5h169q-32 -124 -134 -197
q-103 -73 -244 -73z" />
    <glyph glyph-name="cdotaccent" unicode="&#x10b;" horiz-adv-x="571" 
d="M403 603h-118l20 145h118zM385 197h150q-23 -98 -98 -152.5t-183 -54.5q-109 0 -169 58t-60 163q0 147 86 241q87 94 224 94q104 0 163.5 -55.5t57.5 -148.5h-151q-1 38 -25.5 59t-66.5 21q-50 0 -82.5 -30t-39.5 -81l-14 -91q-7 -50 18 -78t74 -28q43 0 74 22t42 61z
" />
    <glyph glyph-name="Ccaron" unicode="&#x10c;" horiz-adv-x="754" 
d="M406 776l-120 139l82 69l94 -119l127 119l63 -69l-159 -139h-87zM342 -10q-142 0 -220.5 78t-78.5 218q0 200 114 326q115 126 298 126q142 0 221 -73q80 -74 73 -195h-168q-3 59 -43 93t-109 34q-81 0 -136 -47t-66 -128l-16 -121q-11 -76 30 -123t122 -47
q66 0 116.5 34.5t71.5 94.5h169q-32 -124 -134 -197q-103 -73 -244 -73z" />
    <glyph glyph-name="ccaron" unicode="&#x10d;" horiz-adv-x="571" 
d="M298 589l-120 139l82 69l94 -119l127 119l63 -69l-159 -139h-87zM385 197h150q-23 -98 -98 -152.5t-183 -54.5q-109 0 -169 58t-60 163q0 147 86 241q87 94 224 94q104 0 163.5 -55.5t57.5 -148.5h-151q-1 38 -25.5 59t-66.5 21q-50 0 -82.5 -30t-39.5 -81l-14 -91
q-7 -50 18 -78t74 -28q43 0 74 22t42 61z" />
    <glyph glyph-name="Dcaron" unicode="&#x10e;" horiz-adv-x="752" 
d="M395 776l-120 139l82 69l94 -119l127 119l63 -69l-159 -139h-87zM352 0h-312l102 729h312q285 0 285 -271q0 -216 -103 -337q-102 -121 -284 -121zM284 590l-63 -451h146q89 0 132 38t55 125l17 125q12 89 -21.5 126t-119.5 37h-146z" />
    <glyph glyph-name="dcaron" unicode="&#x10f;" horiz-adv-x="648" 
d="M208 -10q-87 0 -135 55t-48 154q0 152 73 247q73 97 187 97q131 0 165 -105h8l43 306h152l-104 -744h-133l-6 96h-8q-30 -50 -82 -78t-112 -28zM707 511l6 44q41 0 60 15.5t23 47.5h-62l18 126h126l-17 -115q-16 -118 -154 -118zM282 113q61 0 101 35.5t48 95.5l6 45
q8 61 -22 96t-90 35q-55 0 -90.5 -29t-43.5 -82l-11 -85q-7 -52 18.5 -81.5t83.5 -29.5z" />
    <glyph glyph-name="Dcroat" unicode="&#x110;" horiz-adv-x="752" 
d="M142 729h312q285 0 285 -271q0 -216 -103 -337q-102 -121 -284 -121h-312l44 316h-74l14 117h77zM554 302l17 125q12 89 -21.5 126t-119.5 37h-146l-22 -157h119l-14 -117h-121l-25 -177h146q89 0 132 38t55 125z" />
    <glyph glyph-name="dslash" unicode="&#x111;" horiz-adv-x="648" 
d="M645 684h65l-14 -103h-66l-81 -581h-133l-6 96h-8q-30 -50 -82 -78t-112 -28q-87 0 -135 55t-48 154q0 152 73 247q73 97 187 97q131 0 165 -105h8l20 143h-142l14 103h143l8 60h152zM431 244l6 45q8 61 -22 96t-90 35q-55 0 -90.5 -29t-43.5 -82l-11 -85
q-7 -52 18.5 -81.5t83.5 -29.5q61 0 101 35.5t48 95.5z" />
    <glyph glyph-name="Emacron" unicode="&#x112;" horiz-adv-x="641" 
d="M587 788h-358l16 113h358zM555 0h-515l102 729h515l-19 -139h-354l-20 -147h303l-19 -131h-303l-24 -173h354z" />
    <glyph glyph-name="emacron" unicode="&#x113;" horiz-adv-x="578" 
d="M519 602h-358l16 113h358zM26 213q0 148 85 240q85 93 222 93q102 0 161 -54t59 -149q0 -47 -16 -110h-356l-4 -29q-6 -44 20.5 -71t74.5 -27q39 0 69.5 17t43.5 45h150q-25 -80 -102 -130q-77 -48 -177 -48q-110 0 -170 59t-60 164zM198 341l-1 -8h208l1 10q3 39 -22 63
t-70 24q-48 0 -81 -25t-35 -64z" />
    <glyph glyph-name="Edotaccent" unicode="&#x116;" horiz-adv-x="641" 
d="M468 789h-118l20 145h118zM555 0h-515l102 729h515l-19 -139h-354l-20 -147h303l-19 -131h-303l-24 -173h354z" />
    <glyph glyph-name="edotaccent" unicode="&#x117;" horiz-adv-x="578" 
d="M400 603h-118l20 145h118zM26 213q0 148 85 240q85 93 222 93q102 0 161 -54t59 -149q0 -47 -16 -110h-356l-4 -29q-6 -44 20.5 -71t74.5 -27q39 0 69.5 17t43.5 45h150q-25 -80 -102 -130q-77 -48 -177 -48q-110 0 -170 59t-60 164zM198 341l-1 -8h208l1 10q3 39 -22 63
t-70 24q-48 0 -81 -25t-35 -64z" />
    <glyph glyph-name="Eogonek" unicode="&#x118;" horiz-adv-x="641" 
d="M657 729l-19 -139h-354l-20 -147h303l-19 -131h-303l-24 -173h354l-20 -138l1 -1q-48 -8 -75 -30t-27 -53q0 -38 57 -38q23 0 56 11l-11 -78q-33 -16 -84 -16q-50 1 -80 25.5t-30 66.5q0 67 62 112h-384l102 729h515z" />
    <glyph glyph-name="eogonek" unicode="&#x119;" horiz-adv-x="578" 
d="M537 233h-356l-4 -29q-6 -44 20.5 -71t74.5 -27q39 0 69.5 17t43.5 45h150q-22 -67 -80 -113t-138 -60l3 -5q-48 -8 -75 -30t-27 -53q0 -38 57 -38q23 0 56 11l-11 -78q-33 -16 -84 -16q-50 1 -80 25.5t-30 66.5q0 72 70 117q-81 16 -125.5 73t-44.5 145q0 148 85 240
q85 93 222 93q102 0 161 -54t59 -149q0 -47 -16 -110zM198 341l-1 -8h208l1 10q3 39 -22 63t-70 24q-48 0 -81 -25t-35 -64z" />
    <glyph glyph-name="Ecaron" unicode="&#x11a;" horiz-adv-x="641" 
d="M363 776l-120 139l82 69l94 -119l127 119l63 -69l-159 -139h-87zM555 0h-515l102 729h515l-19 -139h-354l-20 -147h303l-19 -131h-303l-24 -173h354z" />
    <glyph glyph-name="ecaron" unicode="&#x11b;" horiz-adv-x="578" 
d="M295 589l-120 139l82 69l94 -119l127 119l63 -69l-159 -139h-87zM26 213q0 148 85 240q85 93 222 93q102 0 161 -54t59 -149q0 -47 -16 -110h-356l-4 -29q-6 -44 20.5 -71t74.5 -27q39 0 69.5 17t43.5 45h150q-25 -80 -102 -130q-77 -48 -177 -48q-110 0 -170 59t-60 164
zM198 341l-1 -8h208l1 10q3 39 -22 63t-70 24q-48 0 -81 -25t-35 -64z" />
    <glyph glyph-name="Gbreve" unicode="&#x11e;" horiz-adv-x="809" 
d="M551 940h94q-10 -72 -61 -117t-125 -45t-112 45t-28 117h93q-5 -36 11 -56.5t47 -20.5q33 0 54.5 20.5t26.5 56.5zM42 281q0 203 115 330t299 127q129 0 209 -65q79 -64 79 -170h-167q-8 44 -45.5 69t-96.5 25q-84 0 -141 -49t-68 -131l-16 -116q-11 -81 32.5 -129.5
t128.5 -48.5q76 0 133 42t73 108h-226l19 128h395l-57 -401h-131l5 97h-7q-41 -51 -107 -79t-145 -28q-134 0 -207.5 77t-73.5 214z" />
    <glyph glyph-name="gbreve" unicode="&#x11f;" horiz-adv-x="557" 
d="M133 753h94q-6 -36 10 -56.5t47 -20.5q33 0 54.5 20.5t26.5 56.5h94q-10 -72 -61 -117t-125 -45t-112 45t-28 117zM583 644l-17 -120h-99l-5 -33q41 -38 41 -99q0 -87 -68 -143t-173 -56q-35 0 -64 7q-31 -12 -31 -40q0 -30 60 -30h117q78 0 120.5 -33.5t42.5 -92.5
q0 -94 -80 -144.5t-230 -50.5q-225 0 -225 110q0 42 26 74t71 45l1 8q-47 18 -47 69q0 36 25 66t67 43l1 8q-64 37 -64 114q0 86 69 143t173 57q50 0 86 -12l3 19q12 91 119 91h81zM352 357l4 26q4 27 -14.5 43t-53.5 16q-34 0 -56.5 -16t-26.5 -43l-4 -26q-4 -27 14 -43.5
t53 -16.5q34 0 57 16.5t27 43.5zM304 11h-118q-67 0 -67 -51q0 -44 104 -44q130 0 130 63q0 32 -49 32z" />
    <glyph glyph-name="Gdotaccent" unicode="&#x120;" horiz-adv-x="809" 
d="M520 789h-118l20 145h118zM42 281q0 203 115 330t299 127q129 0 209 -65q79 -64 79 -170h-167q-8 44 -45.5 69t-96.5 25q-84 0 -141 -49t-68 -131l-16 -116q-11 -81 32.5 -129.5t128.5 -48.5q76 0 133 42t73 108h-226l19 128h395l-57 -401h-131l5 97h-7q-41 -51 -107 -79
t-145 -28q-134 0 -207.5 77t-73.5 214z" />
    <glyph glyph-name="gdotaccent" unicode="&#x121;" horiz-adv-x="557" 
d="M263 748h118l-20 -145h-118zM583 644l-17 -120h-99l-5 -33q41 -38 41 -99q0 -87 -68 -143t-173 -56q-35 0 -64 7q-31 -12 -31 -40q0 -30 60 -30h117q78 0 120.5 -33.5t42.5 -92.5q0 -94 -80 -144.5t-230 -50.5q-225 0 -225 110q0 42 26 74t71 45l1 8q-47 18 -47 69
q0 36 25 66t67 43l1 8q-64 37 -64 114q0 86 69 143t173 57q50 0 86 -12l3 19q12 91 119 91h81zM352 357l4 26q4 27 -14.5 43t-53.5 16q-34 0 -56.5 -16t-26.5 -43l-4 -26q-4 -27 14 -43.5t53 -16.5q34 0 57 16.5t27 43.5zM304 11h-118q-67 0 -67 -51q0 -44 104 -44
q130 0 130 63q0 32 -49 32z" />
    <glyph glyph-name="uni0122" unicode="&#x122;" horiz-adv-x="809" 
d="M42 281q0 203 115 330t299 127q129 0 209 -65q79 -64 79 -170h-167q-8 44 -45.5 69t-96.5 25q-84 0 -141 -49t-68 -131l-16 -116q-11 -81 32.5 -129.5t128.5 -48.5q76 0 133 42t73 108h-226l19 128h395l-57 -401h-131l5 97h-7q-41 -51 -107 -79t-145 -28
q-134 0 -207.5 77t-73.5 214zM290 -283v43q24 0 38 15t14 40v8h-52v125h119v-107q0 -59 -32 -91.5t-87 -32.5z" />
    <glyph glyph-name="uni0123" unicode="&#x123;" horiz-adv-x="557" 
d="M302 728h51v-125h-119v105q0 60 32 93t87 33v-43q-51 0 -51 -55v-8zM583 644l-17 -120h-99l-5 -33q41 -38 41 -99q0 -87 -68 -143t-173 -56q-35 0 -64 7q-31 -12 -31 -40q0 -30 60 -30h117q78 0 120.5 -33.5t42.5 -92.5q0 -94 -80 -144.5t-230 -50.5q-225 0 -225 110
q0 42 26 74t71 45l1 8q-47 18 -47 69q0 36 25 66t67 43l1 8q-64 37 -64 114q0 86 69 143t173 57q50 0 86 -12l3 19q12 91 119 91h81zM352 357l4 26q4 27 -14.5 43t-53.5 16q-34 0 -56.5 -16t-26.5 -43l-4 -26q-4 -27 14 -43.5t53 -16.5q34 0 57 16.5t27 43.5zM304 11h-118
q-67 0 -67 -51q0 -44 104 -44q130 0 130 63q0 32 -49 32z" />
    <glyph glyph-name="Hbar" unicode="&#x126;" horiz-adv-x="807" 
d="M783 648h74l-13 -104h-76l-76 -544h-161l43 307h-330l-43 -307h-161l76 544h-65l13 104h67l11 81h161l-11 -81h330l11 81h161zM262 435h330l15 109h-330z" />
    <glyph glyph-name="hbar" unicode="&#x127;" horiz-adv-x="639" 
d="M438 546q89 0 128 -59t25 -165l-45 -322h-153l42 306q17 116 -82 116q-54 0 -91 -37.5t-45 -98.5l-40 -286h-153l80 574h-82l14 103h83l9 67h153l-9 -67h124l-14 -103h-124l-19 -135h8q66 107 191 107z" />
    <glyph glyph-name="Imacron" unicode="&#x12a;" horiz-adv-x="316" 
d="M410 788h-358l16 113h358zM303 729l-102 -729h-161l102 729h161z" />
    <glyph glyph-name="imacron" unicode="&#x12b;" horiz-adv-x="275" 
d="M363 598h-358l16 113h358zM176 0h-152l75 536h153z" />
    <glyph glyph-name="Iogonek" unicode="&#x12e;" horiz-adv-x="316" 
d="M98 -83q0 -38 57 -38q23 0 56 11l-11 -78q-33 -16 -84 -16q-50 1 -80 25.5t-30 66.5q0 67 62 112h-28l102 729h161l-102 -729h-1q-48 -8 -75 -30t-27 -53z" />
    <glyph glyph-name="iogonek" unicode="&#x12f;" horiz-adv-x="275" 
d="M146 744h118l-20 -145h-118zM33 0h-9l75 536h153l-76 -536h-11q-48 -8 -75 -30t-27 -53q0 -38 57 -38q23 0 56 11l-11 -78q-33 -16 -84 -16q-50 1 -80 25.5t-30 66.5q0 67 62 112z" />
    <glyph glyph-name="Idot" unicode="&#x130;" horiz-adv-x="316" 
d="M303 789h-154l21 145h154zM303 729l-102 -729h-161l102 729h161z" />
    <glyph glyph-name="dotlessi" unicode="&#x131;" horiz-adv-x="275" 
d="M176 0h-152l75 536h153z" />
    <glyph glyph-name="Jcircumflex" unicode="&#x134;" horiz-adv-x="418" 
d="M323 988h87l120 -137l-82 -70l-94 118l-128 -118l-62 70zM167 140l23 161l60 428h161l-60 -428l-25 -172q-6 -45 -26 -78q-30 -51 -120 -51h-202l19 140h170z" />
    <glyph glyph-name="jcircumflex" unicode="&#x135;" horiz-adv-x="282" 
d="M175 794h87l120 -137l-82 -70l-94 118l-128 -118l-62 70zM24 -48l16 117l66 467h152l-66 -467l-16 -107q-4 -35 -17 -62q-29 -67 -129 -67h-131l17 119h108z" />
    <glyph glyph-name="uni0136" unicode="&#x136;" horiz-adv-x="724" 
d="M578 729h197l-307 -316l215 -413h-194l-149 282l-116 -119l-23 -163h-161l102 729h161l-48 -340zM338 -177h-52v125h119v-107q0 -59 -32 -91.5t-87 -32.5v43q24 0 38 15t14 40v8z" />
    <glyph glyph-name="uni0137" unicode="&#x137;" horiz-adv-x="602" 
d="M437 536h191l-230 -209l166 -327h-170l-113 222l-81 -74l-21 -148h-155l104 744h155l-56 -399zM265 -177h-52v125h119v-107q0 -59 -32 -91.5t-87 -32.5v43q24 0 38 15t14 40v8z" />
    <glyph glyph-name="Lacute" unicode="&#x139;" horiz-adv-x="572" 
d="M472 913l-242 -129l-37 70l231 158zM499 0h-459l102 729h161l-82 -586h298z" />
    <glyph glyph-name="lacute" unicode="&#x13a;" horiz-adv-x="276" 
d="M455 928l-242 -129l-37 70l231 158zM176 0h-152l104 744h153z" />
    <glyph glyph-name="uni013B" unicode="&#x13b;" horiz-adv-x="572" 
d="M499 0h-459l102 729h161l-82 -586h298zM210 -283v43q24 0 38 15t14 40v8h-52v125h119v-107q0 -59 -32 -91.5t-87 -32.5z" />
    <glyph glyph-name="uni013C" unicode="&#x13c;" horiz-adv-x="276" 
d="M176 0h-152l104 744h153zM41 -283v43q24 0 38 15t14 40v8h-52v125h119v-107q0 -59 -32 -91.5t-87 -32.5z" />
    <glyph glyph-name="Lcaron" unicode="&#x13d;" horiz-adv-x="572" 
d="M350 456l7 47q41 0 60.5 17t24.5 51l4 24h-63l19 138h126l-20 -148q-18 -129 -158 -129zM499 0h-459l102 729h161l-82 -586h298z" />
    <glyph glyph-name="lcaron" unicode="&#x13e;" horiz-adv-x="276" 
d="M168 790l-120 139l82 69l94 -119l127 119l63 -69l-159 -139h-87zM176 0h-152l104 744h153z" />
    <glyph glyph-name="Ldot" unicode="&#x13f;" horiz-adv-x="572" 
d="M499 0h-459l102 729h161l-82 -586h298zM325 415q0 41 29.5 71t71.5 30q33 0 54.5 -20.5t21.5 -53.5q0 -41 -30 -70t-71 -29q-33 0 -54.5 20.5t-21.5 51.5z" />
    <glyph glyph-name="ldot" unicode="&#x140;" horiz-adv-x="489" 
d="M176 0h-152l104 744h153zM295 366q0 42 29.5 72t71.5 30q34 0 55 -20.5t21 -53.5q0 -42 -29.5 -71t-71.5 -29q-34 0 -55 20t-21 52z" />
    <glyph glyph-name="Lslash" unicode="&#x141;" horiz-adv-x="591" 
d="M269 350l-29 -207h298l-20 -143h-459l41 293l-91 -31l19 137l91 31l42 299h161l-34 -242l147 49l-20 -137z" />
    <glyph glyph-name="lslash" unicode="&#x142;" horiz-adv-x="276" 
d="M271 522l38 14l-19 -137l-38 -14l-54 -385h-152l46 329l-83 -30l19 137l83 30l39 278h152z" />
    <glyph glyph-name="Nacute" unicode="&#x143;" horiz-adv-x="792" 
d="M713 913l-242 -129l-37 70l231 158zM201 0h-161l102 729h186l224 -503h7l19 209l42 294h160l-102 -729h-187l-222 499h-7l-19 -201z" />
    <glyph glyph-name="nacute" unicode="&#x144;" horiz-adv-x="639" 
d="M688 727l-242 -129l-37 70l231 158zM177 0h-153l75 536h134l6 -99h9q30 53 80 81t111 28q89 0 127.5 -59.5t23.5 -165.5l-45 -321h-152l43 305q15 115 -82 115q-54 0 -91.5 -37t-46.5 -100z" />
    <glyph glyph-name="uni0145" unicode="&#x145;" horiz-adv-x="792" 
d="M201 0h-161l102 729h186l224 -503h7l19 209l42 294h160l-102 -729h-187l-222 499h-7l-19 -201zM288 -240v43q24 0 38 15t14 40v8h-52v125h119v-107q0 -59 -32 -91.5t-87 -32.5z" />
    <glyph glyph-name="uni0146" unicode="&#x146;" horiz-adv-x="639" 
d="M177 0h-153l75 536h134l6 -99h9q30 53 80 81t111 28q89 0 127.5 -59.5t23.5 -165.5l-45 -321h-152l43 305q15 115 -82 115q-54 0 -91.5 -37t-46.5 -100zM225 -283v43q24 0 38 15t14 40v8h-52v125h119v-107q0 -59 -32 -91.5t-87 -32.5z" />
    <glyph glyph-name="Ncaron" unicode="&#x147;" horiz-adv-x="792" 
d="M427 776l-120 139l82 69l94 -119l127 119l63 -69l-159 -139h-87zM201 0h-161l102 729h186l224 -503h7l19 209l42 294h160l-102 -729h-187l-222 499h-7l-19 -201z" />
    <glyph glyph-name="ncaron" unicode="&#x148;" horiz-adv-x="639" 
d="M402 589l-120 139l82 69l94 -119l127 119l63 -69l-159 -139h-87zM177 0h-153l75 536h134l6 -99h9q30 53 80 81t111 28q89 0 127.5 -59.5t23.5 -165.5l-45 -321h-152l43 305q15 115 -82 115q-54 0 -91.5 -37t-46.5 -100z" />
    <glyph glyph-name="Eng" unicode="&#x14a;" horiz-adv-x="792" 
d="M620 729h160l-102 -729h-1l-5 -41q-6 -36 -17 -60q-28 -62 -129 -66h-131l15 104h107l9 63h-35l-222 499h-7l-19 -201l-42 -298h-161l102 729h186l224 -503h7l19 209z" />
    <glyph glyph-name="eng" unicode="&#x14b;" horiz-adv-x="677" 
d="M590 321l-33 -235h39l-18 -124q-6 -37 -17 -61q-27 -63 -130 -68h-131l16 107h106l9 60h-38l43 305q15 115 -82 115q-54 0 -91.5 -37t-46.5 -100l-39 -283h-153l75 536h134l6 -99h9q30 53 80 81t111 28q89 0 127.5 -59.5t23.5 -165.5z" />
    <glyph glyph-name="Omacron" unicode="&#x14c;" horiz-adv-x="778" 
d="M641 788h-358l16 113h358zM43 289q0 195 116 322q117 127 297 127q144 0 226 -81t82 -221q0 -196 -116 -321t-297 -125q-145 0 -227 80q-81 80 -81 219zM227 416l-15 -103q-13 -85 30 -133.5t128 -48.5q86 0 142.5 49t68.5 133l15 103q12 84 -31.5 132.5t-128.5 48.5
q-86 0 -141.5 -48.5t-67.5 -132.5z" />
    <glyph glyph-name="omacron" unicode="&#x14d;" horiz-adv-x="595" 
d="M523 602h-358l16 113h358zM26 215q0 145 87 238t224 93q108 0 171 -59.5t63 -164.5q0 -145 -88 -239q-87 -93 -224 -93q-108 0 -170.5 60t-62.5 165zM191 309l-12 -84q-7 -54 19 -82.5t79 -28.5q54 0 87.5 28.5t41.5 82.5l11 84q7 53 -19 83t-78 30q-53 0 -87.5 -30
t-41.5 -83z" />
    <glyph glyph-name="Ohungarumlaut" unicode="&#x150;" horiz-adv-x="778" 
d="M578 900l-235 -134l-37 69l223 162zM816 896l-238 -130l-35 70l224 157zM43 289q0 195 116 322q117 127 297 127q144 0 226 -81t82 -221q0 -196 -116 -321t-297 -125q-145 0 -227 80q-81 80 -81 219zM227 416l-15 -103q-13 -85 30 -133.5t128 -48.5q86 0 142.5 49
t68.5 133l15 103q12 84 -31.5 132.5t-128.5 48.5q-86 0 -141.5 -48.5t-67.5 -132.5z" />
    <glyph glyph-name="ohungarumlaut" unicode="&#x151;" horiz-adv-x="595" 
d="M460 714l-235 -134l-37 69l223 162zM698 710l-238 -130l-35 70l224 157zM26 215q0 145 87 238t224 93q108 0 171 -59.5t63 -164.5q0 -145 -88 -239q-87 -93 -224 -93q-108 0 -170.5 60t-62.5 165zM191 309l-12 -84q-7 -54 19 -82.5t79 -28.5q54 0 87.5 28.5t41.5 82.5
l11 84q7 53 -19 83t-78 30q-53 0 -87.5 -30t-41.5 -83z" />
    <glyph glyph-name="OE" unicode="&#x152;" horiz-adv-x="979" 
d="M44 287q0 205 114 324q114 118 313 118h526l-19 -139h-355l-21 -147h303l-18 -131h-303l-24 -173h354l-20 -139h-526q-161 0 -242.5 74t-81.5 213zM225 411l-13 -88q-12 -87 33.5 -135.5t135.5 -48.5h18l63 451h-18q-93 0 -150 -47t-69 -132z" />
    <glyph glyph-name="oe" unicode="&#x153;" horiz-adv-x="970" 
d="M929 233h-356l-4 -29q-6 -44 20.5 -71t74.5 -27q39 0 69.5 17t43.5 45h150q-25 -80 -102 -130q-77 -48 -177 -48q-122 0 -184 75q-82 -75 -205 -75q-108 0 -170.5 60t-62.5 165q0 145 87 238t224 93q122 0 185 -75q82 75 203 75q103 0 162 -54t59 -149q0 -40 -17 -110z
M590 341l-1 -8h208l1 10q3 39 -22 63t-70 24q-48 0 -81 -25t-35 -64zM406 225l11 84q7 53 -19 83t-78 30q-53 0 -87.5 -30t-41.5 -83l-12 -84q-7 -54 19 -82.5t79 -28.5q54 0 87.5 28.5t41.5 82.5z" />
    <glyph glyph-name="Racute" unicode="&#x154;" horiz-adv-x="725" 
d="M691 913l-242 -129l-37 70l231 158zM201 0h-161l102 729h372q95 0 144.5 -45.5t49.5 -126.5q0 -78 -37.5 -137t-102.5 -81l-1 -7h28q86 0 73 -94l-34 -238h-165l36 257h-268zM284 591l-29 -205h167q45 0 72.5 21.5t32.5 58.5l7 46q5 38 -17 58.5t-66 20.5h-167z" />
    <glyph glyph-name="racute" unicode="&#x155;" horiz-adv-x="380" 
d="M463 822l48 -99l-242 -129l-37 70zM66 296l16 111q7 50 32 85q31 44 114 44h183l-17 -123h-159l-17 -117l-41 -296h-153z" />
    <glyph glyph-name="uni0156" unicode="&#x156;" horiz-adv-x="725" 
d="M201 0h-161l102 729h372q95 0 144.5 -45.5t49.5 -126.5q0 -78 -37.5 -137t-102.5 -81l-1 -7h28q86 0 73 -94l-34 -238h-165l36 257h-268zM284 591l-29 -205h167q45 0 72.5 21.5t32.5 58.5l7 46q5 38 -17 58.5t-66 20.5h-167zM283 -283v43q24 0 38 15t14 40v8h-52v125h119
v-107q0 -59 -32 -91.5t-87 -32.5z" />
    <glyph glyph-name="uni0157" unicode="&#x157;" horiz-adv-x="380" 
d="M228 536h183l-17 -123h-159l-17 -117l-41 -296h-153l42 296l16 111q7 50 32 85q31 44 114 44zM93 -177h-52v125h119v-107q0 -59 -32 -91.5t-87 -32.5v43q24 0 38 15t14 40v8z" />
    <glyph glyph-name="Rcaron" unicode="&#x158;" horiz-adv-x="725" 
d="M405 776l-120 139l82 69l94 -119l127 119l63 -69l-159 -139h-87zM201 0h-161l102 729h372q95 0 144.5 -45.5t49.5 -126.5q0 -78 -37.5 -137t-102.5 -81l-1 -7h28q86 0 73 -94l-34 -238h-165l36 257h-268zM284 591l-29 -205h167q45 0 72.5 21.5t32.5 58.5l7 46
q5 38 -17 58.5t-66 20.5h-167z" />
    <glyph glyph-name="rcaron" unicode="&#x159;" horiz-adv-x="380" 
d="M470 724l-159 -139h-87l-120 139l82 69l94 -119l127 119zM66 296l16 111q7 50 32 85q31 44 114 44h183l-17 -123h-159l-17 -117l-41 -296h-153z" />
    <glyph glyph-name="Sacute" unicode="&#x15a;" horiz-adv-x="673" 
d="M661 913l-242 -129l-37 70l231 158zM39 229h167q-6 -53 28.5 -82t100.5 -29q61 0 98 27.5t37 72.5q0 38 -30 51q-24 11 -51 16l-109 24q-37 8 -45 10q-10 3 -48 19q-31 13 -49 30q-19 17 -33 48t-14 65q0 113 88 185q89 72 228 72q126 0 196 -59q70 -58 58 -157h-167
q3 42 -27 66t-82 24q-53 0 -85.5 -23.5t-32.5 -62.5q0 -35 35 -51q26 -10 56 -15l117 -25q171 -35 171 -173q0 -122 -93 -197q-91 -75 -243 -75q-140 0 -214 66q-72 67 -57 173z" />
    <glyph glyph-name="sacute" unicode="&#x15b;" horiz-adv-x="531" 
d="M560 727l-242 -129l-37 70l231 158zM27 168h150q-4 -33 17.5 -51.5t61.5 -18.5q39 0 62.5 17t23.5 46q-3 16 -11 24.5t-15.5 11.5t-22.5 5l-93 16q-138 25 -138 130q0 89 68 143q68 55 181 55q102 0 156 -45.5t46 -123.5h-151q4 30 -14 45.5t-54 15.5q-34 0 -55 -16.5
t-21 -42.5q2 -16 12 -25t21 -12.5t29 -5.5l90 -15q130 -21 130 -128q0 -92 -71 -148q-70 -55 -189 -55q-111 0 -168 48.5t-45 129.5z" />
    <glyph glyph-name="Scedilla" unicode="&#x15e;" horiz-adv-x="673" 
d="M659 522h-167q3 42 -27 66t-82 24q-53 0 -85.5 -23.5t-32.5 -62.5q0 -35 35 -51q26 -10 56 -15l117 -25q171 -35 171 -173q0 -117 -86 -191t-226 -80l-22 -32q33 1 57.5 -17t24.5 -51q0 -47 -38 -79.5t-87.5 -35.5t-96.5 19l10 72q37 -27 77.5 -19t40.5 45q0 21 -22.5 27
t-51.5 -6l5 36l31 42q-117 12 -176.5 76t-46.5 161h167q-6 -53 28.5 -82t100.5 -29q61 0 98 27.5t37 72.5q0 38 -30 51q-24 11 -51 16l-109 24q-37 8 -45 10q-10 3 -48 19q-31 13 -49 30q-19 17 -33 48t-14 65q0 113 88 185q89 72 228 72q126 0 196 -59q70 -58 58 -157z" />
    <glyph glyph-name="scedilla" unicode="&#x15f;" horiz-adv-x="531" 
d="M511 377h-151q4 30 -14 45.5t-54 15.5q-34 0 -55 -16.5t-21 -42.5q2 -16 12 -25t21 -12.5t29 -5.5l90 -15q130 -21 130 -128q0 -86 -65 -142q-64 -55 -173 -60l-30 -42q33 1 57.5 -17t24.5 -51q0 -47 -38 -79.5t-87.5 -35.5t-96.5 19l10 72q37 -27 77.5 -19t40.5 45
q0 21 -23 27t-51 -6l5 36l39 53q-87 10 -130 57t-33 118h150q-4 -33 17.5 -51.5t61.5 -18.5q39 0 62.5 17t23.5 46q-3 16 -11 24.5t-15.5 11.5t-22.5 5l-93 16q-138 25 -138 130q0 89 68 143q68 55 181 55q102 0 156 -45.5t46 -123.5z" />
    <glyph glyph-name="Scaron" unicode="&#x160;" horiz-adv-x="673" 
d="M374 776l-120 139l82 69l94 -119l127 119l63 -69l-159 -139h-87zM39 229h167q-6 -53 28.5 -82t100.5 -29q61 0 98 27.5t37 72.5q0 38 -30 51q-24 11 -51 16l-109 24q-37 8 -45 10q-10 3 -48 19q-31 13 -49 30q-19 17 -33 48t-14 65q0 113 88 185q89 72 228 72
q126 0 196 -59q70 -58 58 -157h-167q3 42 -27 66t-82 24q-53 0 -85.5 -23.5t-32.5 -62.5q0 -35 35 -51q26 -10 56 -15l117 -25q171 -35 171 -173q0 -122 -93 -197q-91 -75 -243 -75q-140 0 -214 66q-72 67 -57 173z" />
    <glyph glyph-name="scaron" unicode="&#x161;" horiz-adv-x="531" 
d="M274 589l-120 139l82 69l94 -119l127 119l63 -69l-159 -139h-87zM27 168h150q-4 -33 17.5 -51.5t61.5 -18.5q39 0 62.5 17t23.5 46q-3 16 -11 24.5t-15.5 11.5t-22.5 5l-93 16q-138 25 -138 130q0 89 68 143q68 55 181 55q102 0 156 -45.5t46 -123.5h-151q4 30 -14 45.5
t-54 15.5q-34 0 -55 -16.5t-21 -42.5q2 -16 12 -25t21 -12.5t29 -5.5l90 -15q130 -21 130 -128q0 -92 -71 -148q-70 -55 -189 -55q-111 0 -168 48.5t-45 129.5z" />
    <glyph glyph-name="uni0162" unicode="&#x162;" horiz-adv-x="574" 
d="M71 729h561l-19 -140h-201l-83 -589h-60l-29 -41q33 1 57.5 -17t24.5 -51q0 -47 -38 -79.5t-87.5 -35.5t-96.5 19l10 72q37 -27 77.5 -19t40.5 45q0 21 -23 27t-51 -6l5 36l37 50h-29l83 589h-198z" />
    <glyph glyph-name="uni0163" unicode="&#x163;" horiz-adv-x="391" 
d="M380 413h-106l-30 -214l-11 -79h107l-17 -120h-107l-29 -41q33 1 57.5 -17t24.5 -51q0 -47 -38 -79.5t-87.5 -35.5t-96.5 19l10 72q37 -27 77.5 -19t40.5 45q0 21 -22.5 27t-51.5 -6l5 36l40 54q-78 17 -65 114l12 81l30 214h-95l18 123h95l23 168h151l-23 -168h106z" />
    <glyph glyph-name="Tcaron" unicode="&#x164;" horiz-adv-x="574" 
d="M562 915l-159 -139h-87l-120 139l82 69l94 -119l127 119zM71 729h561l-19 -140h-201l-83 -589h-162l83 589h-198z" />
    <glyph glyph-name="tcaron" unicode="&#x165;" horiz-adv-x="391" 
d="M449 890l-159 -139h-87l-120 139l82 69l94 -119l127 119zM164 704h151l-23 -168h106l-18 -123h-106l-30 -214l-11 -79h107l-17 -120h-138q-120 0 -104 118l12 81l30 214h-95l18 123h95z" />
    <glyph glyph-name="Tbar" unicode="&#x166;" horiz-adv-x="574" 
d="M632 729l-19 -140h-201l-22 -155h144l-17 -130h-145l-43 -304h-162l43 304h-132l17 130h133l22 155h-198l19 140h561z" />
    <glyph glyph-name="tbar" unicode="&#x167;" horiz-adv-x="391" 
d="M398 536l-18 -123h-106l-10 -69h115l-14 -126h-118l-3 -19l-11 -79h107l-17 -120h-138q-120 0 -104 118l12 81l3 19h-85l13 126h89l10 69h-95l18 123h95l23 168h151l-23 -168h106z" />
    <glyph glyph-name="Umacron" unicode="&#x16a;" horiz-adv-x="771" 
d="M656 788h-358l16 113h358zM92 279l63 450h161l-62 -440q-11 -73 24 -114t108 -41t119.5 40.5t56.5 114.5l62 440h160l-63 -450q-20 -136 -116 -212q-97 -77 -240 -77q-153 0 -222.5 77t-50.5 212z" />
    <glyph glyph-name="umacron" unicode="&#x16b;" horiz-adv-x="633" 
d="M553 598h-358l16 113h358zM471 536h152l-75 -536h-134l-5 98h-10q-65 -108 -189 -108q-86 0 -124.5 56t-24.5 155l47 335h153l-44 -311q-17 -111 78 -111q54 0 91 38t45 101z" />
    <glyph glyph-name="Uring" unicode="&#x16e;" horiz-adv-x="771" 
d="M611 838q0 -62 -43 -102q-43 -41 -104 -41q-50 0 -81 28.5t-31 74.5q0 62 42 102q44 41 105 41q51 0 81.5 -28t30.5 -75zM528 827q0 18 -10.5 29.5t-28.5 11.5q-22 0 -37.5 -17t-15.5 -42q0 -18 10.5 -29t28.5 -11q22 0 37.5 17t15.5 41zM92 279l63 450h161l-62 -440
q-11 -73 24 -114t108 -41t119.5 40.5t56.5 114.5l62 440h160l-63 -450q-20 -136 -116 -212q-97 -77 -240 -77q-153 0 -222.5 77t-50.5 212z" />
    <glyph glyph-name="uring" unicode="&#x16f;" horiz-adv-x="633" 
d="M508 648q0 -62 -43 -102q-43 -41 -104 -41q-50 0 -81 28.5t-31 74.5q0 62 42 102q44 41 105 41q51 0 81.5 -28t30.5 -75zM425 637q0 18 -10.5 29.5t-28.5 11.5q-22 0 -37.5 -17t-15.5 -42q0 -18 10.5 -29t28.5 -11q22 0 37.5 17t15.5 41zM471 536h152l-75 -536h-134
l-5 98h-10q-65 -108 -189 -108q-86 0 -124.5 56t-24.5 155l47 335h153l-44 -311q-17 -111 78 -111q54 0 91 38t45 101z" />
    <glyph glyph-name="Uhungarumlaut" unicode="&#x170;" horiz-adv-x="771" 
d="M594 900l-235 -134l-37 69l223 162zM832 896l-238 -130l-35 70l224 157zM92 279l63 450h161l-62 -440q-11 -73 24 -114t108 -41t119.5 40.5t56.5 114.5l62 440h160l-63 -450q-20 -136 -116 -212q-97 -77 -240 -77q-153 0 -222.5 77t-50.5 212z" />
    <glyph glyph-name="uhungarumlaut" unicode="&#x171;" horiz-adv-x="633" 
d="M490 710l-235 -134l-37 69l223 162zM728 706l-238 -130l-35 70l224 157zM471 536h152l-75 -536h-134l-5 98h-10q-65 -108 -189 -108q-86 0 -124.5 56t-24.5 155l47 335h153l-44 -311q-17 -111 78 -111q54 0 91 38t45 101z" />
    <glyph glyph-name="Uogonek" unicode="&#x172;" horiz-adv-x="771" 
d="M561 289l62 440h160l-63 -450q-16 -115 -90.5 -189.5t-190.5 -93.5q-39 -10 -61 -30.5t-22 -48.5q0 -38 57 -38q23 0 56 11l-11 -78q-33 -16 -84 -16q-50 1 -80 25.5t-30 66.5q0 61 52 104q-128 12 -185.5 87.5t-39.5 199.5l63 450h161l-62 -440q-11 -73 24 -114t108 -41
t119.5 40.5t56.5 114.5z" />
    <glyph glyph-name="uogonek" unicode="&#x173;" horiz-adv-x="633" 
d="M446 -83q0 -38 57 -38q23 0 56 11l-11 -78q-33 -16 -84 -16q-50 1 -80 25.5t-30 66.5q0 67 62 112h-2l-5 98h-10q-65 -108 -189 -108q-86 0 -124.5 56t-24.5 155l47 335h153l-44 -311q-17 -111 78 -111q54 0 91 38t45 101l40 283h152l-75 -536q-48 -8 -75 -30t-27 -53z
" />
    <glyph glyph-name="Wcircumflex" unicode="&#x174;" horiz-adv-x="987" 
d="M452 781l-62 70l159 137h87l120 -137l-82 -70l-94 118zM118 0l-46 729h174l12 -368l1 -185h8l189 553h200l36 -554h7l52 184l113 370h181l-251 -729h-221l-40 517h-7l-187 -517h-221z" />
    <glyph glyph-name="wcircumflex" unicode="&#x175;" horiz-adv-x="794" 
d="M553 590l-94 118l-128 -118l-62 70l159 137h87l120 -137zM590 311l82 225h153l-211 -536h-187l-14 227l-5 116h-6l-37 -115l-76 -228h-185l-61 536h146l16 -222l9 -162h9l124 384h168l16 -385h6z" />
    <glyph glyph-name="Ycircumflex" unicode="&#x176;" horiz-adv-x="707" 
d="M314 781l-62 70l159 137h87l120 -137l-82 -70l-94 118zM274 279l-208 450h186l57 -151l56 -155h8l101 153l100 153h196l-335 -450l-38 -279h-162z" />
    <glyph glyph-name="ycircumflex" unicode="&#x177;" horiz-adv-x="570" 
d="M218 592l-62 70l159 137h87l120 -137l-82 -70l-94 118zM181 72l-153 464h156l42 -162l40 -169h6l89 169l89 162h164l-282 -464l-16 -110q-7 -43 -19 -66q-31 -63 -126 -63h-140l17 120h116z" />
    <glyph glyph-name="Ydieresis" unicode="&#x178;" horiz-adv-x="707" 
d="M380 789h-118l20 145h118zM590 789h-118l20 145h118zM274 279l-208 450h186l57 -151l56 -155h8l101 153l100 153h196l-335 -450l-38 -279h-162z" />
    <glyph glyph-name="Zacute" unicode="&#x179;" horiz-adv-x="586" 
d="M537 1012l48 -99l-242 -129l-37 70zM84 729h545l-18 -131l-409 -459h339l-20 -139h-539l18 132l408 457h-343z" />
    <glyph glyph-name="zacute" unicode="&#x17a;" horiz-adv-x="481" 
d="M478 822l48 -99l-242 -129l-37 70zM284 413h-235l17 123h420l-15 -109l-276 -304h238l-18 -123h-422l15 110z" />
    <glyph glyph-name="Zdotaccent" unicode="&#x17b;" horiz-adv-x="586" 
d="M305 934h118l-20 -145h-118zM84 729h545l-18 -131l-409 -459h339l-20 -139h-539l18 132l408 457h-343z" />
    <glyph glyph-name="zdotaccent" unicode="&#x17c;" horiz-adv-x="481" 
d="M246 744h118l-20 -145h-118zM66 536h420l-15 -109l-276 -304h238l-18 -123h-422l15 110l276 303h-235z" />
    <glyph glyph-name="Zcaron" unicode="&#x17d;" horiz-adv-x="586" 
d="M545 915l-159 -139h-87l-120 139l82 69l94 -119l127 119zM84 729h545l-18 -131l-409 -459h339l-20 -139h-539l18 132l408 457h-343z" />
    <glyph glyph-name="zcaron" unicode="&#x17e;" horiz-adv-x="481" 
d="M485 724l-159 -139h-87l-120 139l82 69l94 -119l127 119zM66 536h420l-15 -109l-276 -304h238l-18 -123h-422l15 110l276 303h-235z" />
    <glyph glyph-name="uni018F" unicode="&#x18f;" horiz-adv-x="715" 
d="M423 739q133 0 206 -75t73 -212q0 -205 -109 -333q-108 -129 -278 -129q-131 0 -203 73.5t-72 204.5q0 37 7 79q7 44 12 58h471q13 95 -21.5 143.5t-111.5 48.5q-57 0 -100.5 -26.5t-63.5 -74.5h-163q39 113 134 178t219 65zM334 128q67 0 113.5 40.5t63.5 113.5h-300
q-15 -154 123 -154z" />
    <glyph glyph-name="florin" unicode="&#x192;" horiz-adv-x="600" 
d="M137 -143h-158l17 123h151l96 356h-100l17 123h117l44 153q33 117 158 117h160l-18 -123h-151l-40 -147h105l-17 -123h-123l-93 -350q-34 -129 -165 -129z" />
    <glyph glyph-name="AEacute" unicode="&#x1fc;" horiz-adv-x="988" 
d="M851 1012l48 -99l-242 -129l-37 70zM1004 729l-19 -139h-347l-23 -162h293l-18 -130h-293l-23 -159h347l-19 -139h-509l23 165h-216l-72 -165h-166l333 729h709zM255 290h179l42 300h-89z" />
    <glyph glyph-name="Oslashacute" unicode="&#x1fe;" horiz-adv-x="778" 
d="M765 672l55 -97l-67 -44q11 -49 11 -95q0 -196 -116 -321t-297 -125q-170 0 -253 110l-65 -43l-47 102l66 44q-9 39 -9 86q0 171 92 293q90 120 241 149l-7 13l231 158l48 -99l-130 -69q122 -18 186 -102zM227 416l-15 -103q0 -1 -0.5 -3t-0.5 -3l358 236q-42 54 -133 54
q-86 0 -141.5 -48.5t-67.5 -132.5zM581 313l15 103q1 3 1 13l-363 -239q41 -59 136 -59q86 0 142.5 49t68.5 133z" />
    <glyph glyph-name="oslashacute" unicode="&#x1ff;" horiz-adv-x="595" 
d="M500 826l48 -99l-242 -129l-37 70zM578 509l44 -81l-92 -61q3 -21 3 -45q0 -147 -88 -239q-87 -93 -224 -93q-109 0 -171 60l-33 -22l-43 80l28 18q-14 44 -14 89q0 145 87 238t224 93t198 -91zM153 309l-12 -84l-1 -3v-4l233 155q-21 49 -91 49q-53 0 -87.5 -30
t-41.5 -83zM368 225l6 39l-201 -133q26 -17 66 -17q54 0 88 29t41 82z" />
    <glyph glyph-name="uni0218" unicode="&#x218;" horiz-adv-x="673" 
d="M39 229h167q-6 -53 28.5 -82t100.5 -29q61 0 98 27.5t37 72.5q0 38 -30 51q-24 11 -51 16l-109 24q-37 8 -45 10q-10 3 -48 19q-31 13 -49 30q-19 17 -33 48t-14 65q0 113 88 185q89 72 228 72q126 0 196 -59q70 -58 58 -157h-167q3 42 -27 66t-82 24q-53 0 -85.5 -23.5
t-32.5 -62.5q0 -35 35 -51q26 -10 56 -15l117 -25q171 -35 171 -173q0 -122 -93 -197q-91 -75 -243 -75q-140 0 -214 66q-72 67 -57 173zM260 -283v43q24 0 38 15t14 40v8h-52v125h119v-107q0 -59 -32 -91.5t-87 -32.5z" />
    <glyph glyph-name="uni0219" unicode="&#x219;" horiz-adv-x="531" 
d="M27 168h150q-4 -33 17.5 -51.5t61.5 -18.5q39 0 62.5 17t23.5 46q-3 16 -11 24.5t-15.5 11.5t-22.5 5l-93 16q-138 25 -138 130q0 89 68 143q68 55 181 55q102 0 156 -45.5t46 -123.5h-151q4 30 -14 45.5t-54 15.5q-34 0 -55 -16.5t-21 -42.5q2 -16 12 -25t21 -12.5
t29 -5.5l90 -15q130 -21 130 -128q0 -92 -71 -148q-70 -55 -189 -55q-111 0 -168 48.5t-45 129.5zM180 -293v43q24 0 38 15t14 40v8h-52v125h119v-107q0 -59 -32 -91.5t-87 -32.5z" />
    <glyph glyph-name="uni021A" unicode="&#x21a;" horiz-adv-x="574" 
d="M71 729h561l-19 -140h-201l-83 -589h-162l83 589h-198zM240 -177h-52v125h119v-107q0 -59 -32 -91.5t-87 -32.5v43q24 0 38 15t14 40v8z" />
    <glyph glyph-name="uni021B" unicode="&#x21b;" horiz-adv-x="391" 
d="M380 413h-106l-30 -214l-11 -79h107l-17 -120h-138q-120 0 -104 118l12 81l30 214h-95l18 123h95l23 168h151l-23 -168h106zM186 -177h-52v125h119v-107q0 -59 -32 -91.5t-87 -32.5v43q24 0 38 15t14 40v8z" />
    <glyph glyph-name="uni0237" unicode="&#x237;" horiz-adv-x="282" 
d="M40 69l66 467h152l-66 -467l-16 -107q-4 -35 -17 -62q-29 -67 -129 -67h-131l17 119h108z" />
    <glyph glyph-name="circumflex" unicode="&#x2c6;" horiz-adv-x="377" 
d="M141 716l-62 70l159 137h87l120 -137l-82 -70l-94 118z" />
    <glyph glyph-name="caron" unicode="&#x2c7;" horiz-adv-x="377" 
d="M211 731l-120 139l82 69l94 -119l127 119l63 -69l-159 -139h-87z" />
    <glyph glyph-name="breve" unicode="&#x2d8;" horiz-adv-x="351" 
d="M342 885h94q-10 -72 -61 -117t-125 -45t-112 45t-28 117h93q-5 -36 11 -56.5t47 -20.5q33 0 54.5 20.5t26.5 56.5z" />
    <glyph glyph-name="dotaccent" unicode="&#x2d9;" horiz-adv-x="221" 
d="M235 733h-118l20 145h118z" />
    <glyph glyph-name="ring" unicode="&#x2da;" horiz-adv-x="348" 
d="M381 814q0 -62 -43 -102q-43 -41 -104 -41q-50 0 -81 28.5t-31 74.5q0 62 42 102q44 41 105 41q51 0 81.5 -28t30.5 -75zM298 803q0 18 -10.5 29.5t-28.5 11.5q-22 0 -37.5 -17t-15.5 -42q0 -18 10.5 -29t28.5 -11q22 0 37.5 17t15.5 41z" />
    <glyph glyph-name="ogonek" unicode="&#x2db;" horiz-adv-x="405" 
d="M35 -112q0 57 46 99t123 54l25 -41q-48 -8 -75 -30t-27 -53q0 -38 57 -38q23 0 56 11l-11 -78q-33 -16 -84 -16q-50 1 -80 25.5t-30 66.5z" />
    <glyph glyph-name="tilde" unicode="&#x2dc;" horiz-adv-x="350" 
d="M302 732q-30 2 -63 19q-34 19 -57 19q-31 0 -65 -37l-55 41q54 100 135 100q27 -2 62 -19q36 -18 59 -18q38 0 64 38l56 -40q-52 -104 -136 -103z" />
    <glyph glyph-name="hungarumlaut" unicode="&#x2dd;" horiz-adv-x="569" 
d="M411 851l-235 -134l-37 69l223 162zM649 847l-238 -130l-35 70l224 157z" />
    <glyph glyph-name="gravecomb" unicode="&#x300;" 
d="M12 786l-57 -70l-206 129l77 99z" />
    <glyph glyph-name="acutecomb" unicode="&#x301;" 
d="M19 845l-242 -129l-37 70l231 158z" />
    <glyph glyph-name="uni0302" unicode="&#x302;" 
d="M-236 716l-62 70l159 137h87l120 -137l-82 -70l-94 118z" />
    <glyph glyph-name="tildecomb" unicode="&#x303;" 
d="M-48 732q-30 2 -63 19q-34 19 -57 19q-31 0 -65 -37l-55 41q54 100 135 100q27 -2 62 -19q36 -18 59 -18q38 0 64 38l56 -40q-52 -104 -136 -103z" />
    <glyph glyph-name="uni0304" unicode="&#x304;" 
d="M68 744h-358l16 113h358z" />
    <glyph glyph-name="uni0306" unicode="&#x306;" 
d="M-9 885h94q-10 -72 -61 -117t-125 -45t-112 45t-28 117h93q-5 -36 11 -56.5t47 -20.5q33 0 54.5 20.5t26.5 56.5z" />
    <glyph glyph-name="uni0307" unicode="&#x307;" 
d="M14 733h-118l20 145h118z" />
    <glyph glyph-name="uni0308" unicode="&#x308;" 
d="M-191 733h-118l20 145h118zM19 733h-118l20 145h118z" />
    <glyph glyph-name="uni030A" unicode="&#x30a;" 
d="M33 814q0 -62 -42 -102q-44 -41 -105 -41q-50 0 -81 28.5t-31 74.5q0 62 43 102q43 41 104 41q51 0 81.5 -28t30.5 -75zM-50 803q0 18 -10.5 29.5t-28.5 11.5q-22 0 -37.5 -17t-15.5 -42q0 -18 10.5 -29t28.5 -11q22 0 37.5 17t15.5 41z" />
    <glyph glyph-name="uni030B" unicode="&#x30b;" 
d="M-158 851l-235 -134l-37 69l223 162zM80 847l-238 -130l-35 70l224 157z" />
    <glyph glyph-name="uni030C" unicode="&#x30c;" 
d="M-166 731l-120 139l82 69l94 -119l127 119l63 -69l-159 -139h-87z" />
    <glyph glyph-name="uni0312" unicode="&#x312;" 
d="M32 964v-43q-51 0 -51 -55v-8h51v-125h-119v105q0 60 32 93t87 33z" />
    <glyph glyph-name="uni0326" unicode="&#x326;" 
d="M-199 -269v43q24 0 38 15t14 40v8h-52v125h119v-107q0 -59 -32 -91.5t-87 -32.5z" />
    <glyph glyph-name="uni0327" unicode="&#x327;" 
d="M-239 11l-37 -52q33 1 57.5 -17t24.5 -51q0 -47 -38 -79.5t-87.5 -35.5t-96.5 19l10 72q37 -27 77.5 -19t40.5 45q0 21 -23 27t-51 -6l5 36l63 85h58z" />
    <glyph glyph-name="uni0328" unicode="&#x328;" 
d="M-370 -112q0 57 46 99t123 54l25 -41q-48 -8 -75 -30t-27 -53q0 -38 57 -38q23 0 56 11l-11 -78q-33 -16 -84 -16q-50 1 -80 25.5t-30 66.5z" />
    <glyph glyph-name="uni0335" unicode="&#x335;" 
d="M-72 297h-403l16 113h403z" />
    <glyph glyph-name="uni0336" unicode="&#x336;" 
 />
    <glyph glyph-name="uni0337" unicode="&#x337;" 
d="M-317 0h-83l376 729h84z" />
    <glyph glyph-name="uni0338" unicode="&#x338;" 
d="M-317 0h-83l376 729h84z" />
    <glyph glyph-name="uni03BC" unicode="&#x3bc;" horiz-adv-x="609" 
d="M203 -173h-137l31 709h152l-14 -336q-3 -44 19 -69t62 -25q45 0 72.5 29t31.5 78l12 323h153l-22 -536h-145l7 65h-9q-26 -75 -117 -75q-57 0 -78 32h-9z" />
    <glyph glyph-name="pi" unicode="&#x3c0;" horiz-adv-x="620" 
d="M133 432h-82l3 104h585l-2 -104h-80l-18 -312h82l-2 -120h-105q-67 0 -96 29.5t-27 89.5l17 313h-126l-20 -432h-149z" />
    <glyph glyph-name="omega" unicode="&#x3c9;" horiz-adv-x="777" 
d="M76 432q0 140 90 223q92 84 249 84q155 0 246 -82q93 -83 93 -225q0 -93 -51 -168q-49 -73 -133 -105v-38h143v-121h-266v243q67 13 108.5 57.5t41.5 109.5v43q0 74 -53 115t-129 41q-77 0 -129 -42q-53 -41 -53 -115v-44q0 -63 42 -107.5t109 -57.5v-243h-268v121h144
v38q-83 32 -134 105q-50 76 -50 168z" />
    <glyph glyph-name="Wgrave" unicode="&#x1e80;" horiz-adv-x="987" 
d="M620 854l-57 -70l-206 129l77 99zM118 0l-46 729h174l12 -368l1 -185h8l189 553h200l36 -554h7l52 184l113 370h181l-251 -729h-221l-40 517h-7l-187 -517h-221z" />
    <glyph glyph-name="wgrave" unicode="&#x1e81;" horiz-adv-x="794" 
d="M314 822l186 -158l-57 -70l-206 129zM590 311l82 225h153l-211 -536h-187l-14 227l-5 116h-6l-37 -115l-76 -228h-185l-61 536h146l16 -222l9 -162h9l124 384h168l16 -385h6z" />
    <glyph glyph-name="Wacute" unicode="&#x1e82;" horiz-adv-x="987" 
d="M805 913l-242 -129l-37 70l231 158zM118 0l-46 729h174l12 -368l1 -185h8l189 553h200l36 -554h7l52 184l113 370h181l-251 -729h-221l-40 517h-7l-187 -517h-221z" />
    <glyph glyph-name="wacute" unicode="&#x1e83;" horiz-adv-x="794" 
d="M636 822l48 -99l-242 -129l-37 70zM590 311l82 225h153l-211 -536h-187l-14 227l-5 116h-6l-37 -115l-76 -228h-185l-61 536h146l16 -222l9 -162h9l124 384h168l16 -385h6z" />
    <glyph glyph-name="Wdieresis" unicode="&#x1e84;" horiz-adv-x="987" 
d="M518 789h-118l20 145h118zM728 789h-118l20 145h118zM118 0l-46 729h174l12 -368l1 -185h8l189 553h200l36 -554h7l52 184l113 370h181l-251 -729h-221l-40 517h-7l-187 -517h-221z" />
    <glyph glyph-name="wdieresis" unicode="&#x1e85;" horiz-adv-x="794" 
d="M299 744h118l-20 -145h-118zM509 744h118l-20 -145h-118zM590 311l82 225h153l-211 -536h-187l-14 227l-5 116h-6l-37 -115l-76 -228h-185l-61 536h146l16 -222l9 -162h9l124 384h168l16 -385h6z" />
    <glyph glyph-name="Ygrave" unicode="&#x1ef2;" horiz-adv-x="707" 
d="M483 854l-57 -70l-206 129l77 99zM274 279l-208 450h186l57 -151l56 -155h8l101 153l100 153h196l-335 -450l-38 -279h-162z" />
    <glyph glyph-name="ygrave" unicode="&#x1ef3;" horiz-adv-x="570" 
d="M387 666l-57 -70l-206 129l77 99zM181 72l-153 464h156l42 -162l40 -169h6l89 169l89 162h164l-282 -464l-16 -110q-7 -43 -19 -66q-31 -63 -126 -63h-140l17 120h116z" />
    <glyph glyph-name="endash" unicode="&#x2013;" horiz-adv-x="650" 
d="M592 258h-537l11 84h537z" />
    <glyph glyph-name="emdash" unicode="&#x2014;" horiz-adv-x="846" 
d="M788 258h-733l11 84h733z" />
    <glyph glyph-name="quoteleft" unicode="&#x2018;" horiz-adv-x="231" 
d="M263 754l-8 -56q-48 0 -71 -19.5t-29 -60.5l-4 -28h74l-23 -162h-148l24 174q21 152 185 152z" />
    <glyph glyph-name="quoteright" unicode="&#x2019;" horiz-adv-x="230" 
d="M58 418l8 56q48 0 71 19.5t29 60.5l4 28h-73l22 162h148l-24 -174q-21 -152 -185 -152z" />
    <glyph glyph-name="quotesinglbase" unicode="&#x201a;" horiz-adv-x="231" 
d="M-25 -164l8 55q89 0 100 81l4 28h-73l23 161h148l-25 -173q-21 -152 -185 -152z" />
    <glyph glyph-name="quotedblleft" unicode="&#x201c;" horiz-adv-x="461" 
d="M269 791l-8 -55q-48 0 -71.5 -20t-29.5 -61l-4 -28h74l-23 -161h-148l25 173q21 152 185 152zM499 791l-8 -55q-48 0 -71 -20t-29 -61l-4 -28h74l-23 -161h-148l24 173q23 152 185 152z" />
    <glyph glyph-name="quotedblright" unicode="&#x201d;" horiz-adv-x="461" 
d="M31 231l7 56q49 0 72 19.5t29 60.5l4 28h-74l23 162h148l-24 -174q-23 -152 -185 -152zM261 231l8 56q49 0 72 19.5t28 60.5l4 28h-73l23 162h147l-24 -174q-21 -152 -185 -152z" />
    <glyph glyph-name="quotedblbase" unicode="&#x201e;" horiz-adv-x="461" 
d="M-25 -164l8 55q89 0 100 81l4 28h-73l23 161h148l-25 -173q-21 -152 -185 -152zM206 -164l8 55q90 0 100 81l4 28h-73l23 161h148l-25 -173q-21 -152 -185 -152z" />
    <glyph glyph-name="dagger" unicode="&#x2020;" horiz-adv-x="427" 
d="M330 728l-48 -341h139l-13 -93h-139l-20 -139h-103l19 139h-139l13 93h139l48 341h104z" />
    <glyph glyph-name="daggerdbl" unicode="&#x2021;" horiz-adv-x="427" 
d="M449 593l-12 -92h-139l-16 -114h139l-13 -93h-139l-20 -139h-103l19 139h-139l13 93h139l16 114h-138l12 92h139l19 135h104l-19 -135h138z" />
    <glyph glyph-name="bullet" unicode="&#x2022;" horiz-adv-x="393" 
d="M48 252q0 73 50 126q51 53 122 53q57 0 92 -36.5t35 -93.5q0 -72 -50 -124q-49 -51 -120 -51q-58 0 -93.5 35t-35.5 91z" />
    <glyph glyph-name="ellipsis" unicode="&#x2026;" horiz-adv-x="774" 
d="M174 0h-148l23 164h148zM423 0h-147l23 164h147zM674 0h-148l23 164h148z" />
    <glyph glyph-name="perthousand" unicode="&#x2030;" horiz-adv-x="1309" 
d="M94 556q0 79 50 131q50 51 130 51q82 0 132 -51q50 -52 50 -132q0 -79 -51 -132q-49 -51 -131 -51q-78 0 -129 51q-51 53 -51 133zM302 0h-77l463 729h78zM194 557q0 -42 22 -68.5t58 -26.5q37 0 60 26.5t23 68.5q0 41 -23 66t-60 25q-35 0 -57.5 -25.5t-22.5 -65.5z
M526 174q0 78 50 130q51 52 131 52q81 0 130 -52q50 -52 50 -131q0 -80 -50 -132q-49 -51 -130 -51q-80 0 -131 51q-50 52 -50 133zM936 174q0 78 50 130q51 52 132 52t130 -52q50 -52 50 -131t-51 -132q-49 -51 -129 -51t-131 51q-51 53 -51 133zM625 175q0 -42 22.5 -68.5
t59.5 -26.5t59.5 26.5t22.5 68.5q0 40 -23 66t-59 26t-59 -26t-23 -66zM1035 175q0 -42 23 -68.5t60 -26.5t59 26.5t22 68.5q0 41 -22.5 66.5t-58.5 25.5q-37 0 -60 -25.5t-23 -66.5z" />
    <glyph glyph-name="guilsinglleft" unicode="&#x2039;" horiz-adv-x="320" 
d="M120 58l-89 216l150 214h130l-140 -214l80 -216h-131z" />
    <glyph glyph-name="guilsinglright" unicode="&#x203a;" horiz-adv-x="320" 
d="M203 488l87 -214l-148 -216h-132l139 216l-78 214h132z" />
    <glyph glyph-name="fraction" unicode="&#x2044;" horiz-adv-x="248" 
d="M-69 -46h-117l527 814h117z" />
    <glyph glyph-name="uni2070" unicode="&#x2070;" horiz-adv-x="494" 
d="M251 295q-87 0 -132 55.5t-45 156.5q0 161 72 261q72 101 187 101q86 0 131 -55t45 -156q0 -160 -72 -262q-72 -101 -186 -101zM264 398q54 0 88 73q34 72 34 190q0 107 -67 107q-55 0 -89 -73q-33 -72 -33 -188q0 -109 67 -109z" />
    <glyph glyph-name="uni2074" unicode="&#x2074;" horiz-adv-x="491" 
d="M484 862l-49 -355h67l-13 -97h-68l-16 -110h-117l16 110h-259l13 91l252 361h174zM352 756l-174 -249h139z" />
    <glyph glyph-name="uni2075" unicode="&#x2075;" horiz-adv-x="478" 
d="M328 678q74 0 117 -42.5t43 -114.5q0 -99 -68 -164t-170 -65q-92 0 -140.5 51t-37.5 133h119q-5 -36 14.5 -58.5t58.5 -22.5q44 0 73 30.5t29 76.5q0 34 -21 56t-56 22q-29 0 -52 -13.5t-35 -35.5h-112l62 331h348l-14 -102h-245l-20 -109l4 -2q40 29 103 29z" />
    <glyph glyph-name="uni2076" unicode="&#x2076;" horiz-adv-x="482" 
d="M254 293q-88 0 -133.5 54t-45.5 155q0 166 72 266q72 101 191 101q80 0 125.5 -40t43.5 -107h-120q-4 49 -66 49q-102 0 -115 -151h5q42 57 124 57q69 0 110.5 -41.5t41.5 -111.5q0 -100 -66 -166q-67 -65 -167 -65zM271 395q41 0 68.5 32.5t27.5 79.5q0 34 -19 54
t-50 20q-42 0 -70 -32.5t-28 -79.5q0 -34 19 -54t52 -20z" />
    <glyph glyph-name="uni2077" unicode="&#x2077;" horiz-adv-x="436" 
d="M165 667h-94l27 195h404l-12 -85q-91 -102 -168 -233q-75 -125 -112 -244h-127q32 111 104 234q70 121 160 226h-169z" />
    <glyph glyph-name="uni2078" unicode="&#x2078;" horiz-adv-x="473" 
d="M56 427q0 50 26.5 90t72.5 61l1 7q-64 30 -64 104q0 80 63 130q65 50 167 50q86 0 135.5 -36.5t49.5 -97.5q0 -49 -27 -90t-73 -60l-1 -7q63 -32 63 -105q0 -82 -64 -131q-64 -50 -166 -50q-86 0 -134.5 36.5t-48.5 98.5zM213 687q0 -26 20.5 -42t54.5 -16q41 0 67.5 22
t26.5 57q0 27 -20 43.5t-55 16.5q-41 0 -67.5 -23t-26.5 -58zM179 453q0 -28 20.5 -43.5t55.5 -15.5q41 0 67.5 22.5t26.5 57.5q0 28 -20.5 44t-54.5 16q-41 0 -68 -23t-27 -58z" />
    <glyph glyph-name="uni2079" unicode="&#x2079;" horiz-adv-x="479" 
d="M233 293q-77 0 -123 40t-45 108h120q1 -23 19 -36.5t46 -13.5q50 0 79.5 39.5t35.5 112.5h-5q-44 -57 -125 -57q-69 0 -110 41t-41 111q0 100 65 165q66 66 167 66q88 0 133.5 -54.5t45.5 -155.5q0 -166 -71 -267q-70 -99 -191 -99zM273 581q41 0 69 32.5t28 79.5
q0 34 -19 54t-52 20q-41 0 -68.5 -32t-27.5 -79q0 -35 19 -55t51 -20z" />
    <glyph glyph-name="uni2080" unicode="&#x2080;" horiz-adv-x="494" 
d="M195 -105q-87 0 -132 55.5t-45 156.5q0 161 72 261q72 101 187 101q86 0 131 -55t45 -156q0 -160 -72 -261q-72 -102 -186 -102zM208 -2q54 0 88 73q34 72 34 190q0 107 -67 107q-55 0 -89 -73q-33 -72 -33 -188q0 -109 67 -109z" />
    <glyph glyph-name="uni2081" unicode="&#x2081;" horiz-adv-x="349" 
d="M160 273h-145l12 90h24q54 0 93.5 27.5t48.5 71.5h110l-79 -562h-117z" />
    <glyph glyph-name="uni2082" unicode="&#x2082;" horiz-adv-x="456" 
d="M143 -1l78 4h164l-14 -103h-381l3 19q9 54 36 99q16 27 39 51.5t37 36t47 36.5q6 5 9 7q7 5 30 21t30.5 21.5t24.5 19.5t23.5 22.5t16 22t13 27.5t3.5 29q0 26 -17.5 41t-46.5 15q-37 0 -61 -23t-27 -63h-118q13 86 74 136.5t150 50.5q78 0 124 -39t46 -105
q0 -100 -80 -167q-34 -30 -72 -54q-107 -70 -131 -105z" />
    <glyph glyph-name="uni2083" unicode="&#x2083;" horiz-adv-x="472" 
d="M192 -108q-91 0 -139 49q-47 50 -34 129h120q-7 -35 12.5 -55.5t58.5 -20.5q40 0 66 25t26 63q0 59 -79 59h-56l13 94h46q44 0 70.5 21.5t26.5 57.5q0 25 -18 39.5t-47 14.5q-37 0 -62 -20.5t-28 -54.5h-119q7 78 70 127q62 49 156 49q78 0 125 -35t47 -95
q0 -47 -25.5 -84.5t-70.5 -57.5l-1 -5q72 -30 72 -110q0 -82 -66 -136q-64 -54 -164 -54z" />
    <glyph glyph-name="uni2084" unicode="&#x2084;" horiz-adv-x="491" 
d="M428 462l-50 -355h67l-13 -97h-68l-15 -110h-117l15 110h-259l13 91l252 361h175zM296 358l-175 -251h140z" />
    <glyph glyph-name="uni2085" unicode="&#x2085;" horiz-adv-x="478" 
d="M272 278q74 0 117 -42.5t43 -114.5q0 -99 -68 -164t-170 -65q-92 0 -140.5 51t-37.5 133h119q-5 -36 14.5 -58.5t58.5 -22.5q44 0 73 30.5t29 76.5q0 34 -21 56t-56 22q-29 0 -52 -13.5t-35 -35.5h-112l62 331h348l-14 -102h-245l-20 -109l4 -2q40 29 103 29z" />
    <glyph glyph-name="uni2086" unicode="&#x2086;" horiz-adv-x="482" 
d="M198 -107q-88 0 -133.5 54t-45.5 155q0 165 72 266t191 101q80 0 125.5 -40t43.5 -107h-120q-4 49 -66 49q-103 0 -115 -151h5q42 57 124 57q69 0 110.5 -41.5t41.5 -111.5q0 -100 -66 -165q-66 -66 -167 -66zM215 -5q41 0 68.5 32.5t27.5 79.5q0 34 -19 54t-50 20
q-42 0 -70 -32.5t-28 -79.5q0 -34 19 -54t52 -20z" />
    <glyph glyph-name="uni2087" unicode="&#x2087;" horiz-adv-x="436" 
d="M109 267h-94l27 195h404l-12 -85q-91 -104 -168 -233q-78 -130 -112 -244h-127q31 109 103 233q72 123 161 227h-169z" />
    <glyph glyph-name="uni2088" unicode="&#x2088;" horiz-adv-x="473" 
d="M0 27q0 51 26 91t73 60l1 7q-64 30 -64 104q0 81 63 130q65 50 167 50q86 0 135.5 -36.5t49.5 -97.5q0 -49 -27 -90t-73 -60l-1 -7q63 -32 63 -105q0 -82 -64 -131q-64 -50 -166 -50q-86 0 -134.5 36.5t-48.5 98.5zM157 287q0 -26 20.5 -42t54.5 -16q41 0 67.5 22
t26.5 57q0 27 -20 43.5t-55 16.5q-41 0 -67.5 -23t-26.5 -58zM123 53q0 -28 20.5 -43.5t55.5 -15.5q41 0 67.5 22.5t26.5 57.5q0 28 -20.5 44t-54.5 16q-41 0 -68 -23t-27 -58z" />
    <glyph glyph-name="uni2089" unicode="&#x2089;" horiz-adv-x="479" 
d="M177 -107q-77 0 -123 40t-45 108h120q1 -23 19 -36.5t46 -13.5q101 0 115 152h-5q-44 -57 -125 -57q-69 0 -110 41t-41 111q0 100 65 165q66 66 167 66q88 0 133.5 -54.5t45.5 -155.5q0 -166 -71 -266q-70 -100 -191 -100zM217 181q41 0 69 32.5t28 79.5q0 34 -19 54
t-52 20q-41 0 -68.5 -32t-27.5 -79q0 -35 19 -55t51 -20z" />
    <glyph glyph-name="uni20A6" unicode="&#x20a6;" horiz-adv-x="744" 
d="M676 412h86l-13 -96h-87l-44 -316h-178l-105 316h-93l-1 -5l-43 -311h-153l44 316h-81l14 96h81l44 317h178l104 -317h95l1 10l43 307h152zM263 514l-11 -102h52l-34 102h-7zM495 212h7l11 104h-52z" />
    <glyph glyph-name="uni20A9" unicode="&#x20a9;" horiz-adv-x="883" 
d="M750 729h171l-103 -317h78l-14 -96h-95l-102 -316h-216l8 272v44h-62l-12 -42l-65 -274h-214l-14 316h-96l14 96h77l-14 317h165l1 -317h71l94 317h159l9 -317h72zM468 503l-26 -91h34l-1 91h-7zM253 167h6l41 149h-44zM592 165h7l38 151h-45v-151z" />
    <glyph glyph-name="uni20AA" unicode="&#x20aa;" horiz-adv-x="794" 
d="M457 520l12 86h-220l-85 -606h-125l102 729h340q66 0 94 -29.5t17 -100.5l-11 -79l-49 -347h-124zM573 124l85 605h125l-102 -729h-340q-52 0 -85 21q-38 27 -26 109l12 80l47 347h125l-48 -347l-13 -86h220z" />
    <glyph glyph-name="Euro" unicode="&#x20ac;" horiz-adv-x="739" 
d="M382 132q98 0 141 90h168q-35 -108 -123 -169q-89 -62 -207 -62q-117 0 -187.5 64.5t-82.5 180.5h-70l14 98h56q3 34 9 67h-55l13 97h71q46 112 135.5 176t203.5 64q118 0 189 -63q69 -61 74 -167h-169q-14 90 -114 90q-96 0 -151 -100h206l-25 -97h-216q-6 -31 -9 -67
h209l-29 -98h-175q23 -104 124 -104z" />
    <glyph glyph-name="uni20B2" unicode="&#x20b2;" horiz-adv-x="687" 
d="M335 287l16 113h292l-9 -59q-18 -123 -93.5 -198t-191.5 -88l-10 -73h-98l11 73q-99 13 -153 78t-54 171q0 157 82 263q83 107 215 125l10 72h97l-10 -71q90 -12 143 -67.5t52 -138.5h-149q-5 40 -34 62t-78 22q-67 0 -111.5 -42.5t-55.5 -115.5l-12 -83
q-10 -76 24 -117.5t104 -41.5q60 0 101.5 31.5t53.5 84.5h-142z" />
    <glyph glyph-name="uni20B8" unicode="&#x20b8;" horiz-adv-x="572" 
d="M54 606l18 123h559l-18 -123h-559zM228 403h-202l18 133h559l-18 -133h-205l-57 -403h-152z" />
    <glyph glyph-name="uni20B9" unicode="&#x20b9;" horiz-adv-x="606" 
d="M611 729l-14 -99h-117q27 -45 28 -105h74l-14 -99h-76q-20 -58 -64 -100t-104 -59l-1 -7q29 -8 43.5 -26t32.5 -66l4 -11l60 -157h-170l-62 161q-15 40 -33 55q-17 16 -64 16h-109l18 124h159q87 0 123 70h-273l14 99h271q-8 32 -35 49.5t-67 17.5h-159l5 38l14 99h516z
" />
    <glyph glyph-name="uni20BA" unicode="&#x20ba;" horiz-adv-x="654" 
d="M478 345h157q-50 -159 -170 -251q-121 -92 -288 -93l-124 -1l36 254l-88 -32l17 117l88 33l10 75l-88 -32l17 116l89 35l22 163h152l-15 -104l146 57l-17 -117l-145 -59l-10 -75l145 58l-17 -117l-145 -58l-24 -167q83 1 150.5 54.5t101.5 143.5z" />
    <glyph glyph-name="uni20BC" unicode="&#x20bc;" horiz-adv-x="766" 
d="M158 0h-153l46 326q41 288 307 315l12 88h154l-12 -88q260 -29 220 -315l-46 -326h-152l45 326q21 151 -87 167l-70 -493h-154l70 493q-114 -13 -135 -167z" />
    <glyph glyph-name="uni20BD" unicode="&#x20bd;" horiz-adv-x="695" 
d="M423 236h-161l-8 -55h170l-14 -97h-170l-12 -84h-161l12 84h-78l13 97h79l9 65h-78l17 124h78l51 359h323q104 0 159 -51t55 -145q0 -133 -78 -216q-77 -81 -206 -81zM452 585h-141l-30 -215h139q46 0 74.5 22.5t33.5 59.5l8 54q5 38 -17.5 58.5t-66.5 20.5z" />
    <glyph glyph-name="uni20BF" unicode="&#x20bf;" horiz-adv-x="728" 
d="M558 390l-1 -8q90 -22 90 -123q0 -93 -66 -152q-64 -58 -169 -58h-5l-9 -67h-97l10 67h-61l-10 -67h-96l10 67h-75l91 650h75l9 65h96l-9 -65h61l9 65h97l-9 -65h6q78 0 122.5 -37t44.5 -102q0 -59 -31 -105t-83 -65zM512 494l5 36q4 28 -12.5 43.5t-49.5 15.5h-157
l-22 -154h159q33 0 53.5 16t23.5 43zM490 227l4 31q9 69 -69 69h-164l-23 -168h156q85 0 96 68z" />
    <glyph glyph-name="uni2105" unicode="&#x2105;" horiz-adv-x="995" 
d="M326 492h109q-6 -62 -55 -100t-124 -38q-84 0 -134.5 51.5t-50.5 139.5q0 89 52 141.5t139 52.5q70 0 117.5 -38t55.5 -100h-110q-5 23 -23 35.5t-43 12.5q-78 0 -78 -104q0 -103 78 -103q26 0 44.5 14t22.5 36zM324 0h-95l463 729h95zM766 378q84 0 135 -54
q52 -52 52 -138q0 -87 -52 -139q-51 -53 -135 -53t-137 53q-51 52 -51 139q0 86 51 139q53 53 137 53zM687 186q0 -47 21.5 -75t57.5 -28t57 28.5t21 75.5q0 46 -21.5 74t-57.5 28t-57 -28.5t-21 -74.5z" />
    <glyph glyph-name="uni2116" unicode="&#x2116;" horiz-adv-x="1394" 
d="M842 455q0 115 85 197q86 83 201 83q100 0 158 -60q60 -58 60 -149q0 -114 -85 -196t-201 -82q-100 0 -159 58q-59 59 -59 149zM201 0h-161l102 729h186l224 -503h7l19 209l42 294h160l-102 -729h-187l-222 499h-7l-19 -201zM1008 526l-10 -69q-6 -38 16.5 -61.5
t62.5 -23.5t69 23t35 61l10 70q6 37 -17 61t-63 24q-39 0 -68 -23.5t-35 -61.5zM832 1l17 123h387l-17 -123h-387z" />
    <glyph glyph-name="uni2117" unicode="&#x2117;" horiz-adv-x="898" 
d="M464 -77q-112 0 -207.5 52t-154.5 148q-59 98 -59 220q0 121 59 219q59 96 154.5 148.5t207.5 52.5t206 -52q96 -52 154 -148q59 -97 59 -217q0 -183 -124 -303q-123 -120 -295 -120zM842 346q0 166 -111 273q-109 108 -267 108t-270 -109q-111 -108 -111 -275t112 -275
q113 -108 269 -108q158 0 267 109q111 109 111 277zM411 128h-94v424h220q69 0 110 -38.5t41 -102.5q0 -63 -41 -102.5t-110 -39.5h-126v-141zM409 473v-128h116q32 0 50 18t18 48q0 27 -19.5 44.5t-48.5 17.5h-116z" />
    <glyph glyph-name="trademark" unicode="&#x2122;" horiz-adv-x="652" 
d="M78 734h238l-9 -62h-86l-35 -250h-69l35 250h-83zM499 562l99 172h85l-44 -312h-67l19 128l16 87h-3l-126 -210l-66 210h-5l-6 -87l-19 -128h-66l44 312h85l51 -172h3z" />
    <glyph glyph-name="estimated" unicode="&#x212e;" horiz-adv-x="757" 
d="M695 230h46q-27 -108 -120 -174q-94 -65 -222 -65q-163 0 -260 102q-97 101 -97 266q0 166 100 267q100 103 266 103q151 0 242 -88q92 -87 99 -246q1 -14 1 -57h-600v-185q35 -59 102 -91.5t149 -32.5q108 0 187 55q81 56 107 146zM150 561v-187h493v205
q-89 111 -249 108q-159 -3 -244 -126z" />
    <glyph glyph-name="oneeighth" unicode="&#x215b;" horiz-adv-x="951" 
d="M246 -46h-117l527 814h117zM190 565h-124l11 80h45q43 0 68.5 22.5t25.5 58.5v3h98l-67 -473h-100zM564 109q0 42 23.5 77t62.5 51v6q-54 25 -54 90q0 68 53 110q53 43 140 43q71 0 111.5 -31t40.5 -83q0 -42 -23 -77.5t-61 -51.5l-1 -6q53 -26 53 -87q0 -71 -53 -114
t-139 -43q-72 0 -112.5 31t-40.5 85zM698 331q0 -23 16.5 -36t44.5 -13q33 0 54.5 19t21.5 48q0 23 -16.5 36.5t-43.5 13.5q-34 0 -55.5 -19.5t-21.5 -48.5zM670 129q0 -23 16 -36t44 -13q33 0 55 19.5t22 48.5q0 23 -16 37t-44 14q-33 0 -55 -20t-22 -50z" />
    <glyph glyph-name="threeeighths" unicode="&#x215c;" horiz-adv-x="1012" 
d="M317 -46h-117l527 814h117zM191 248q-74 0 -113 41.5t-29 107.5h101q-4 -27 11 -44.5t40 -17.5q30 0 50.5 19.5t20.5 48.5q0 23 -16.5 36t-41.5 13h-41l12 90h30q33 0 54 18t21 47q0 20 -13 30.5t-35 10.5q-27 0 -45.5 -17t-21.5 -45h-101q8 67 57.5 108t125.5 41
q64 0 101 -29.5t37 -79.5q0 -86 -81 -120v-5q60 -26 60 -92q0 -68 -53 -115q-52 -46 -130 -46zM636 109q0 42 23.5 77t62.5 51v6q-54 25 -54 90q0 68 53 110q53 43 140 43q71 0 111.5 -31t40.5 -83q0 -42 -23 -77.5t-61 -51.5l-1 -6q53 -26 53 -87q0 -71 -53 -114t-139 -43
q-72 0 -112.5 31t-40.5 85zM770 331q0 -23 16.5 -36t44.5 -13q33 0 54.5 19t21.5 48q0 23 -16.5 36.5t-43.5 13.5q-34 0 -55.5 -19.5t-21.5 -48.5zM742 129q0 -23 16 -36t44 -13q33 0 55 19.5t22 48.5q0 23 -16 37t-44 14q-33 0 -55 -20t-22 -50z" />
    <glyph glyph-name="fiveeighths" unicode="&#x215d;" horiz-adv-x="1034" 
d="M339 -46h-117l527 814h117zM58 402h102q-4 -28 12.5 -47.5t45.5 -19.5q34 0 57.5 26.5t23.5 63.5q0 29 -16.5 47t-44.5 18q-48 0 -69 -41h-95l39 280h302l-12 -88h-203l-7 -51l-8 -38l2 -3q29 26 83 26q60 0 96 -36.5t36 -96.5q0 -84 -57 -139q-55 -55 -140 -55
q-75 0 -116 42.5t-31 111.5zM657 109q0 42 23.5 77t62.5 51v6q-54 25 -54 90q0 68 53 110q53 43 140 43q71 0 111.5 -31t40.5 -83q0 -42 -23 -77.5t-61 -51.5l-1 -6q53 -26 53 -87q0 -71 -53 -114t-139 -43q-72 0 -112.5 31t-40.5 85zM791 331q0 -23 16.5 -36t44.5 -13
q33 0 54.5 19t21.5 48q0 23 -16.5 36.5t-43.5 13.5q-34 0 -55.5 -19.5t-21.5 -48.5zM763 129q0 -23 16 -36t44 -13q33 0 55 19.5t22 48.5q0 23 -16 37t-44 14q-33 0 -55 -20t-22 -50z" />
    <glyph glyph-name="seveneighths" unicode="&#x215e;" horiz-adv-x="931" 
d="M109 -46l527 814h117l-527 -814h-117zM158 256h-99q30 106 85.5 207.5t128.5 177.5h-130l-9 -69h-76l9 69l12 88h327l-9 -72q-171 -171 -239 -401zM838 243l-1 -6q53 -26 53 -87q0 -71 -53 -114t-139 -43q-72 0 -112.5 31t-40.5 85q0 42 23.5 77t62.5 51v6q-54 25 -54 90
q0 68 53 110q53 43 140 43q71 0 111.5 -31t40.5 -83q0 -42 -23 -77.5t-61 -51.5zM740 282q33 0 54.5 19t21.5 48q0 23 -16.5 36.5t-43.5 13.5q-34 0 -55.5 -19.5t-21.5 -48.5q0 -23 16.5 -36t44.5 -13zM711 80q33 0 55 19.5t22 48.5q0 23 -16 37t-44 14q-33 0 -55 -20
t-22 -50q0 -23 16 -36t44 -13z" />
    <glyph glyph-name="arrowleft" unicode="&#x2190;" horiz-adv-x="856" 
d="M761 314v-84h-597l169 -230h-106l-204 273l204 268h106l-169 -227h597z" />
    <glyph glyph-name="arrowup" unicode="&#x2191;" horiz-adv-x="615" 
d="M574 380v-102l-208 185v-383h208v-81h-501v81h208v383l-208 -185v102l251 219z" />
    <glyph glyph-name="arrowright" unicode="&#x2192;" horiz-adv-x="893" 
d="M700 230h-598v84h598l-169 227h105l204 -268l-204 -273h-105z" />
    <glyph glyph-name="arrowdown" unicode="&#x2193;" horiz-adv-x="615" 
d="M598 548v-81h-208v-383l208 185v-103l-250 -218l-251 218v103l208 -185v383h-208v81h501z" />
    <glyph glyph-name="arrowboth" unicode="&#x2194;" horiz-adv-x="1039" 
d="M267 98l-215 259l215 256h99l-178 -215h688l-176 215h99l214 -256l-214 -259h-99l176 216h-688l178 -216h-99z" />
    <glyph glyph-name="arrowupdn" unicode="&#x2195;" horiz-adv-x="694" 
d="M385 -141l-299 248v101l258 -215v633l-258 -214v100l299 248l297 -248v-100l-258 214v-633l258 215v-101z" />
    <glyph glyph-name="uni2196" unicode="&#x2196;" horiz-adv-x="702" 
d="M692 65l-61 -65l-403 417v-332h-85v478h466v-86h-322z" />
    <glyph glyph-name="uni2197" unicode="&#x2197;" horiz-adv-x="695" 
d="M542 401l-390 -401l-60 63l391 403h-321v82h466v-476h-86v329z" />
    <glyph glyph-name="uni2198" unicode="&#x2198;" horiz-adv-x="693" 
d="M624 0l-468 -1v88h324l-393 399l60 62l392 -405l1 337h85z" />
    <glyph glyph-name="uni2199" unicode="&#x2199;" horiz-adv-x="691" 
d="M596 0h-468v480h87v-337l392 405l58 -61l-394 -400h325v-87z" />
    <glyph glyph-name="uni21A9" unicode="&#x21a9;" horiz-adv-x="885" 
d="M847 498q0 -107 -67.5 -170.5t-190.5 -63.5h-360v-124l-186 169l186 171v-125h360q77 0 123 37.5t46 105.5q0 64 -43.5 103t-115.5 39h-13v89h13q109 0 178 -66q70 -64 70 -165z" />
    <glyph glyph-name="uni21AA" unicode="&#x21aa;" horiz-adv-x="885" 
d="M79 498q0 101 70 165q71 66 179 66h13v-89h-13q-72 0 -115 -39t-43 -103q0 -68 45 -105.5t123 -37.5h362v125l184 -171l-184 -169v124h-362q-124 0 -191.5 63t-67.5 171z" />
    <glyph glyph-name="uni21B2" unicode="&#x21b2;" horiz-adv-x="726" 
d="M593 355v403h82v-494h-430v-124l-186 169l186 171v-125h348z" />
    <glyph glyph-name="uni21B3" unicode="&#x21b3;" horiz-adv-x="726" 
d="M554 480l184 -171l-184 -169v124h-432v494h83v-403h349v125z" />
    <glyph glyph-name="uni21BA" unicode="&#x21ba;" horiz-adv-x="824" 
d="M423 -12q-142 0 -239 94t-97 236q0 89 43 169.5t123 132.5l44 -54q-137 -89 -137 -248q0 -110 76 -185q77 -74 189 -74q111 0 184 73q74 74 74 179q0 75 -38 134q-39 61 -163 167l-3 -2l5 -68v-137h-67v324h313v-72h-134l-62 5l-3 -3q134 -112 180 -182q45 -67 45 -166
q0 -135 -96 -229q-95 -94 -237 -94z" />
    <glyph glyph-name="uni21BB" unicode="&#x21bb;" horiz-adv-x="824" 
d="M448 -12q-141 0 -236 94q-95 95 -95 229q0 98 46 168q48 72 179 180l-2 3l-65 -5h-133v72h317v-324h-72v137l5 68l-3 2q-123 -105 -162 -166q-37 -58 -37 -135q0 -106 73 -179t185 -73t188 74q76 73 76 185q0 77 -35.5 141.5t-98.5 106.5l42 54q80 -52 123 -136
q43 -82 43 -166q0 -141 -97 -235q-98 -95 -241 -95z" />
    <glyph glyph-name="emptyset" unicode="&#x2205;" horiz-adv-x="758" 
d="M457 738q143 0 226 -81q82 -81 82 -221q0 -196 -116 -321t-297 -125q-144 0 -226 80t-82 219q0 195 116 322q117 127 297 127zM228 416l-15 -103q-3 -19 -3 -37l327 296q-37 25 -100 25q-86 0 -141.5 -48.5t-67.5 -132.5zM582 313l15 103q4 20 2 53l-338 -306
q41 -32 110 -32q86 0 142.5 49t68.5 133z" />
    <glyph glyph-name="product" unicode="&#x220f;" horiz-adv-x="782" 
d="M131 729h650l-18 -131h-107l-83 -598h-152l83 598h-133l-83 -598h-154l84 598h-105z" />
    <glyph glyph-name="summation" unicode="&#x2211;" horiz-adv-x="600" 
d="M493 -167h-503l20 146l267 288l2 9l-184 306l21 147h503l-21 -151h-205l-115 9l-1 -9l174 -309l-262 -280l-1 -9l122 9h205z" />
    <glyph glyph-name="minus" unicode="&#x2212;" horiz-adv-x="593" 
d="M69 236l18 125h444l-18 -125h-444z" />
    <glyph glyph-name="radical" unicode="&#x221a;" horiz-adv-x="796" 
d="M475 321l209 408h155l-425 -826h-196l-96 431h-91l19 128h201l30 -140l52 -278h7z" />
    <glyph glyph-name="infinity" unicode="&#x221e;" horiz-adv-x="867" 
d="M232 43q-94 0 -156 63q-61 64 -61 164t61 165q62 66 156 66q120 0 203 -129q87 129 205 129q93 0 154 -67q62 -67 62 -164q0 -98 -62 -163q-61 -64 -154 -64q-122 0 -205 126q-79 -126 -203 -126zM240 178q62 0 127 93q-63 91 -127 91q-38 0 -61.5 -26t-23.5 -65
q0 -40 23.5 -66.5t61.5 -26.5zM631 178q37 0 61 26.5t24 66.5q0 39 -24 65t-61 26q-64 0 -125 -91q33 -49 62 -71t63 -22z" />
    <glyph glyph-name="integral" unicode="&#x222b;" horiz-adv-x="608" 
d="M425 753h159l-18 -123h-134l-12 -87l-66 -472l-12 -82q-7 -49 -33 -85q-31 -43 -114 -43h-158l17 122h134l13 88l66 472l11 81q4 34 18 65q33 64 129 64z" />
    <glyph glyph-name="approxequal" unicode="&#x2248;" horiz-adv-x="538" 
d="M152 348h-70q5 72 42 111t88 39q37 0 83 -27q48 -27 75 -27q51 0 59 56h69q-4 -73 -42.5 -111.5t-91.5 -38.5q-45 0 -95 26t-68 26q-22 0 -35 -16t-14 -38zM124 146h-70q5 72 41.5 110t87.5 38q36 0 84 -27q49 -26 74 -26q51 0 60 55h69q-5 -74 -43 -112t-92 -38
q-45 0 -94 27q-49 28 -69 28q-21 0 -34.5 -16.5t-13.5 -38.5z" />
    <glyph glyph-name="notequal" unicode="&#x2260;" horiz-adv-x="607" 
d="M558 450l-15 -112h-155l-59 -89h201l-15 -110h-258l-70 -106h-105l70 106h-96l16 110h153l59 89h-199l15 112h258l72 108h103l-71 -108h96z" />
    <glyph glyph-name="lessequal" unicode="&#x2264;" horiz-adv-x="563" 
d="M499 306l-20 -144l-411 164l19 135l456 160l-20 -143l-167 -49l-140 -32l-1 -8l125 -31zM475 136l-19 -136h-434l19 136h434z" />
    <glyph glyph-name="greaterequal" unicode="&#x2265;" horiz-adv-x="563" 
d="M512 326l-457 -164l20 144l173 52l135 31l1 8l-132 32l-152 49l20 143l411 -160zM466 0h-434l19 136h434z" />
    <glyph glyph-name="filledbox" unicode="&#x25a0;" horiz-adv-x="925" 
d="M172 1v728h710v-728h-710z" />
    <glyph glyph-name="uni25A1" unicode="&#x25a1;" horiz-adv-x="841" 
d="M130 0v729h710v-729h-710zM773 662h-574v-594h574v594z" />
    <glyph glyph-name="triagup" unicode="&#x25b2;" horiz-adv-x="926" 
d="M9 0l416 737l417 -737h-833z" />
    <glyph glyph-name="uni25B3" unicode="&#x25b3;" horiz-adv-x="921" 
d="M831 0h-816l407 738zM423 594l-286 -521h573z" />
    <glyph glyph-name="lozenge" unicode="&#x25ca;" horiz-adv-x="2153" 
d="M1049 -10q-135 0 -214 100t-79 268q0 96 28 170.5t76.5 119.5t109.5 68t132 23q120 0 202 -62q82 -61 100 -164h-156q-36 86 -147 86q-90 0 -137 -62t-47 -175q0 -115 46.5 -175t129.5 -60q67 0 109 33t52 92h-162v143h324v-395h-111l-16 119h-35q-15 -61 -70.5 -95
t-134.5 -34zM1551 576q-34 0 -56.5 23t-22.5 59q0 35 22.5 58t56.5 23q35 0 55.5 -22.5t20.5 -58.5q0 -37 -20.5 -59.5t-55.5 -22.5zM1749 576q-34 0 -55 23t-21 59q0 35 21.5 58t54.5 23q36 0 58.5 -23t22.5 -58q0 -36 -22.5 -59t-58.5 -23zM375 0h-271v729h271
q161 0 248.5 -92.5t87.5 -270.5t-88.5 -272t-247.5 -94zM1951 572h-36v126h-38v31h118v-31h-44v-126zM2049 572h-34v157h63l17 -127l23 127h61v-157h-40v135l-17 -135h-52l-21 135v-135zM210 109l26 -26q29 29 52.5 40.5t60.5 11.5h26q32 0 69 15q31 12 52 33q24 24 41 72
t17 108q0 59 -16 106t-39 70q-21 23 -49 36q-37 19 -75 19h-26q-29 0 -52 10q-26 12 -32 17l-29 27l-26 -30q0 -2 7 -9t7 -8q5 -2 20 -27q15 -22 15 -71v-276q-3 -51 -16 -74l-10 -15q-9 -15 -23 -29zM1647 0h-149v491h141l7 -58h27q12 36 49 56t90 20v-147
q-165 16 -165 -148v-214z" />
    <glyph glyph-name="circle" unicode="&#x25cb;" horiz-adv-x="785" 
d="M42 365q0 163 105 268q107 105 263 105q157 0 262 -105q106 -105 106 -268q0 -165 -106 -270q-105 -105 -262 -105q-156 0 -263 105q-105 105 -105 270zM410 53q128 0 213 88q87 89 87 224t-87 222q-85 88 -213 88q-126 0 -213 -88q-86 -88 -86 -222q0 -135 86 -224
q87 -88 213 -88z" />
    <glyph glyph-name="uni25CF" unicode="&#x25cf;" horiz-adv-x="894" 
d="M466 -10q-157 0 -262 107q-105 108 -105 269q0 158 105 265t262 107q155 0 259 -107t104 -265q0 -160 -104 -269q-104 -107 -259 -107z" />
    <glyph glyph-name="uni262E" unicode="&#x262e;" horiz-adv-x="833" 
d="M802 363q0 -167 -104 -273q-104 -104 -264 -104q-159 0 -263 104q-104 106 -104 273q0 166 104 270t263 104t263 -104q105 -103 105 -270zM748 363q0 139 -82 227q-81 89 -207 98v-303l262 -163q27 68 27 141zM408 385v303q-124 -9 -207 -99q-82 -88 -82 -226
q0 -77 27 -141zM408 323l-238 -147q38 -62 100 -98.5t138 -41.5v287zM459 323v-287q76 5 138 41.5t100 98.5z" />
    <glyph glyph-name="uni2639" unicode="&#x2639;" horiz-adv-x="835" 
d="M64 365q0 160 107 267q107 106 264 106t263 -106q108 -106 108 -267q0 -163 -108 -269q-106 -106 -263 -106t-264 106q-107 107 -107 269zM117 365q0 -127 80 -219q36 51 100 82t138 31q75 0 140 -30.5t100 -82.5q79 94 79 219q0 140 -94 231q-93 93 -224 93
q-132 0 -226 -93q-93 -92 -93 -231zM305 438q0 51 14 78.5t39 27.5q24 0 38 -29t14 -77q0 -107 -52 -107q-26 0 -39.5 29t-13.5 78zM463 438q0 50 14.5 78t38.5 28q26 0 39.5 -28.5t13.5 -77.5q0 -107 -53 -107q-26 0 -39.5 29t-13.5 78zM234 112q91 -73 202 -73
q112 0 201 73q-26 44 -82 70q-55 27 -119 27q-66 0 -121.5 -27t-80.5 -70z" />
    <glyph glyph-name="smileface" unicode="&#x263a;" horiz-adv-x="835" 
d="M806 365q0 -163 -108 -269q-106 -106 -263 -106t-264 106q-107 107 -107 269q0 160 107 267q107 106 264 106t263 -106q108 -106 108 -267zM436 39q134 0 225 94q93 95 93 232q0 140 -94 231q-93 93 -224 93q-132 0 -226 -93q-93 -92 -93 -231q0 -140 93 -233
q94 -93 226 -93zM358 331q-26 0 -39.5 29t-13.5 78q0 51 14 78.5t39 27.5q24 0 38 -29t14 -77q0 -107 -52 -107zM516 331q-26 0 -39.5 29t-13.5 78q0 50 14.5 78t38.5 28q26 0 39.5 -28.5t13.5 -77.5q0 -107 -53 -107zM595 313v17h107v-17h-27q-13 -85 -81 -138
q-67 -52 -159 -52q-93 0 -160 52q-67 53 -80 138h-24v17h109v-17h-31q11 -64 63 -102.5t124 -38.5q74 0 125 39t62 102h-28z" />
    <glyph glyph-name="uni2708" unicode="&#x2708;" horiz-adv-x="882" 
d="M163 207h-50l35 159l-35 159h50l69 -108l210 12l-99 276h90l144 -239q15 -23 48 -25l59 4q60 4 109 -21t49 -58q0 -35 -49 -60q-49 -24 -109 -20l-59 4q-35 -2 -48 -24l-144 -240h-90l99 276l-210 14z" />
    <glyph glyph-name="uni2713" unicode="&#x2713;" horiz-adv-x="864" 
d="M327 225l377 364l85 -100l-470 -450l-233 272l94 85z" />
    <glyph glyph-name="uni2714" unicode="&#x2714;" horiz-adv-x="1287" 
d="M1117 727l109 -188q-242 -120 -462 -285q-222 -166 -351 -322q-142 198 -342 371l125 132q142 -115 231 -261q122 161 301 302q185 145 389 251z" />
    <glyph glyph-name="uni2776" unicode="&#x2776;" horiz-adv-x="891" 
d="M466 -9q-163 0 -276 110q-111 111 -111 274q0 162 111 273q112 111 276 111q162 0 273 -112q111 -111 111 -272q0 -163 -111 -274q-112 -110 -273 -110zM451 427v-272h83v420h-78v-2q0 -35 -23 -58t-63 -23h-35v-65h116z" />
    <glyph glyph-name="uni2777" unicode="&#x2777;" horiz-adv-x="892" 
d="M467 -9q-165 0 -276 111t-111 274q0 162 111 273t276 111q163 0 274 -111t111 -273q0 -163 -111 -274t-274 -111zM331 169v-14h274v74h-116l-58 -4q16 31 79 78q46 34 72 68.5t26 82.5q0 57 -37 92.5t-100 35.5q-64 0 -105.5 -37t-42.5 -98l84 -5q-2 30 14 48.5t45 18.5
q39 0 53 -34t-16 -72q-12 -14 -29 -28.5t-39.5 -32t-35.5 -28.5q-68 -59 -68 -145z" />
    <glyph glyph-name="uni2778" unicode="&#x2778;" horiz-adv-x="892" 
d="M466 -9q-163 0 -276 110q-111 111 -111 274q0 162 112 273q112 112 275 112q162 0 273 -112q112 -111 112 -273t-112 -273q-111 -111 -273 -111zM466 149q63 0 103 34.5t40 89.5q0 34 -17.5 61t-49.5 39v4q28 12 43 36.5t15 52.5q0 52 -37.5 83.5t-98.5 31.5
q-67 0 -105.5 -36t-37.5 -96h84q1 60 57 60q24 0 38 -13t14 -36q0 -24 -16.5 -39t-46.5 -15h-27v-72h37q27 0 45 -15.5t18 -40.5t-16.5 -40.5t-43.5 -15.5q-26 0 -41.5 16.5t-15.5 43.5h-84q-1 -61 38.5 -97t104.5 -36z" />
    <glyph glyph-name="uni2779" unicode="&#x2779;" horiz-adv-x="894" 
d="M467 -9q-163 0 -276 111q-111 111 -111 274q0 162 111 273q113 111 276 111t275 -111t112 -273q0 -163 -112 -274t-275 -111zM486 246v-91h82v91h45v72h-45v257h-126l-143 -261v-68h187zM486 318h-95l95 172v-172z" />
    <glyph glyph-name="uni277A" unicode="&#x277a;" horiz-adv-x="892" 
d="M466 -9q-163 0 -276 110q-111 111 -111 274q0 162 112 273q112 112 275 112q162 0 273 -112q112 -111 112 -273t-112 -273q-111 -111 -273 -111zM470 150q69 0 110 40t41 106q0 63 -37 103t-97 40q-51 0 -73 -25l-3 2l2 37v51h183v71h-264v-244h79q13 36 59 36
q29 0 48 -21t19 -53q0 -31 -18.5 -51t-47.5 -20t-46.5 18t-17.5 46h-84q-1 -60 40 -98t107 -38z" />
    <glyph glyph-name="uni277B" unicode="&#x277b;" horiz-adv-x="912" 
d="M466 -9q-163 0 -276 110q-111 111 -111 274q0 162 111 273q112 111 276 111q162 0 273 -112q111 -111 111 -272q0 -163 -111 -274q-112 -110 -273 -110zM475 149q66 0 108.5 41t42.5 105q0 62 -36.5 102t-93.5 40q-29 0 -54 -13t-37 -34h-3q0 120 75 120q21 0 37.5 -11.5
t20.5 -30.5h84q-5 51 -43.5 82t-96.5 31q-77 0 -119.5 -58.5t-42.5 -161.5q0 -100 41.5 -156t116.5 -56zM477 222q-30 0 -48 20t-18 51t18.5 52.5t47.5 21.5t47 -20.5t18 -52.5t-18 -52t-47 -20z" />
    <glyph glyph-name="uni277C" unicode="&#x277c;" horiz-adv-x="894" 
d="M467 -9q-163 0 -276 111q-112 111 -112 273t112 273q112 112 276 112q163 0 274 -112q112 -111 112 -273t-112 -273q-113 -111 -274 -111zM373 155h88q35 203 158 363v57h-287v-140h62v69h122q-54 -72 -92 -164t-51 -185z" />
    <glyph glyph-name="uni277D" unicode="&#x277d;" horiz-adv-x="892" 
d="M466 -9q-162 0 -275 111q-112 111 -112 273t112 273q112 112 275 112q162 0 273 -112q112 -111 112 -273t-112 -273q-111 -111 -273 -111zM465 149q68 0 109.5 32t41.5 86q0 30 -17 57t-44 39v5q29 12 45 38t16 57q0 54 -41 86t-110 32q-68 0 -109.5 -32t-41.5 -86
q0 -31 16.5 -56.5t44.5 -38.5v-5q-28 -13 -44.5 -39t-16.5 -56q0 -54 41 -86.5t110 -32.5zM465 399q-29 0 -47 15t-18 40q0 24 17.5 39.5t47.5 15.5q29 0 47 -15t18 -40q0 -24 -17.5 -39.5t-47.5 -15.5zM465 222q-30 0 -47.5 14.5t-17.5 40.5q0 24 17.5 39.5t47.5 15.5
q29 0 47 -15t18 -40q0 -24 -17.5 -39.5t-47.5 -15.5z" />
    <glyph glyph-name="uni277E" unicode="&#x277e;" horiz-adv-x="894" 
d="M80 376q0 161 112 272q112 112 275 112t275 -112q112 -111 112 -272q0 -164 -112 -275q-113 -110 -275 -110q-163 0 -275 111t-112 274zM467 149q78 0 120 58t42 162q0 101 -40.5 156.5t-117.5 55.5q-67 0 -109 -40.5t-42 -105.5q0 -62 36.5 -101t93.5 -39q66 0 92 45h3
q0 -120 -75 -120q-48 0 -59 42h-84q7 -51 45 -82t95 -31zM471 509q29 0 46.5 -20.5t17.5 -51.5q0 -32 -17.5 -53t-46.5 -21q-30 0 -48.5 20t-18.5 53t18.5 53t48.5 20z" />
    <glyph glyph-name="uni2780" unicode="&#x2780;" horiz-adv-x="891" 
d="M466 -9q-163 0 -276 110q-111 111 -111 274q0 162 111 273q112 111 276 111q162 0 273 -112q111 -111 111 -272q0 -163 -111 -274q-112 -110 -273 -110zM466 35q144 0 241 99q99 99 99 241q0 143 -99 242q-97 99 -241 99q-145 0 -244 -99t-99 -242q0 -142 99 -241
t244 -99zM451 155v272h-116v65h35q40 0 63 23t23 58v2h78v-420h-83z" />
    <glyph glyph-name="uni2781" unicode="&#x2781;" horiz-adv-x="891" 
d="M466 759q162 0 273 -112q111 -111 111 -272q0 -163 -111 -274q-112 -110 -273 -110q-163 0 -276 110q-111 111 -111 274q0 162 111 273q112 111 276 111zM466 35q144 0 241 99q99 99 99 241q0 143 -99 242q-97 99 -241 99q-145 0 -244 -99t-99 -242q0 -142 99 -241
t244 -99zM607 454q0 -33 -14.5 -62t-37 -50t-46 -39t-46 -38t-32.5 -39l57 3h116v-74h-274v14q0 34 11 64t32.5 54t38 38t42.5 33q68 51 68 95q0 26 -15.5 41t-41.5 15q-28 0 -44.5 -18.5t-14.5 -48.5l-84 5q1 61 42.5 98t106.5 37q62 0 99 -35t37 -93z" />
    <glyph glyph-name="uni2782" unicode="&#x2782;" horiz-adv-x="891" 
d="M466 -9q-163 0 -276 110q-111 111 -111 274q0 162 111 273q112 111 276 111q162 0 273 -112q111 -111 111 -272q0 -163 -111 -274q-112 -110 -273 -110zM466 35q144 0 241 99q99 99 99 241q0 143 -99 242q-97 99 -241 99q-145 0 -244 -99t-99 -242q0 -142 99 -241
t244 -99zM466 149q-65 0 -104.5 36t-38.5 97h84q0 -27 15.5 -43.5t41.5 -16.5q27 0 43.5 15.5t16.5 40.5t-18 40.5t-45 15.5h-37v72h27q30 0 46.5 15t16.5 39q0 23 -14 36t-38 13q-56 0 -57 -60h-84q-1 60 37.5 96t105.5 36q61 0 98.5 -31.5t37.5 -83.5q0 -28 -15 -52.5
t-43 -36.5v-4q32 -12 49.5 -39t17.5 -61q0 -55 -40 -89.5t-103 -34.5z" />
    <glyph glyph-name="uni2783" unicode="&#x2783;" horiz-adv-x="891" 
d="M466 -9q-163 0 -276 110q-111 111 -111 274q0 162 111 273q112 111 276 111q162 0 273 -112q111 -111 111 -272q0 -163 -111 -274q-112 -110 -273 -110zM466 35q144 0 241 99q99 99 99 241q0 143 -99 242q-97 99 -241 99q-145 0 -244 -99t-99 -242q0 -142 99 -241
t244 -99zM567 155h-82v91h-187v68l143 261h126v-257h45v-72h-45v-91zM485 490l-95 -172h95v172z" />
    <glyph glyph-name="uni2784" unicode="&#x2784;" horiz-adv-x="891" 
d="M466 -9q-163 0 -276 110q-111 111 -111 274q0 162 111 273q112 111 276 111q162 0 273 -112q111 -111 111 -272q0 -163 -111 -274q-112 -110 -273 -110zM466 35q144 0 241 99q99 99 99 241q0 143 -99 242q-97 99 -241 99q-145 0 -244 -99t-99 -242q0 -142 99 -241
t244 -99zM470 150q-66 0 -107 38t-40 98h84q0 -28 17.5 -46t46.5 -18t47.5 20t18.5 51q0 32 -19 53t-48 21q-46 0 -59 -36h-79v244h264v-71h-183v-51l-2 -37l3 -2q22 25 73 25q60 0 97 -40t37 -103q0 -66 -41 -106t-110 -40z" />
    <glyph glyph-name="uni2785" unicode="&#x2785;" horiz-adv-x="891" 
d="M466 -9q-163 0 -276 110q-111 111 -111 274q0 162 111 273q112 111 276 111q162 0 273 -112q111 -111 111 -272q0 -163 -111 -274q-112 -110 -273 -110zM466 35q144 0 241 99q99 99 99 241q0 143 -99 242q-97 99 -241 99q-145 0 -244 -99t-99 -242q0 -142 99 -241
t244 -99zM475 149q-75 0 -116.5 56t-41.5 156q0 103 42.5 161.5t119.5 58.5q58 0 96.5 -31t43.5 -82h-84q-4 19 -20.5 30.5t-37.5 11.5q-75 0 -75 -120h3q12 21 37 34t54 13q57 0 93.5 -40t36.5 -102q0 -64 -42.5 -105t-108.5 -41zM477 222q29 0 47 20t18 52t-18 52.5
t-47 20.5t-47.5 -21.5t-18.5 -52.5t18 -51t48 -20z" />
    <glyph glyph-name="uni2786" unicode="&#x2786;" horiz-adv-x="891" 
d="M79 375q0 162 111 273q112 111 276 111q162 0 273 -112q111 -111 111 -272q0 -163 -111 -274q-112 -110 -273 -110q-163 0 -276 110q-111 111 -111 274zM123 375q0 -142 99 -241t244 -99q144 0 241 99q99 99 99 241q0 143 -99 242q-97 99 -241 99q-145 0 -244 -99
t-99 -242zM394 435h-62v140h287v-57q-123 -160 -158 -363h-88q13 93 51 185t92 164h-122v-69z" />
    <glyph glyph-name="uni2787" unicode="&#x2787;" horiz-adv-x="891" 
d="M466 -9q-163 0 -276 110q-111 111 -111 274q0 162 111 273q112 111 276 111q162 0 273 -112q111 -111 111 -272q0 -163 -111 -274q-112 -110 -273 -110zM466 35q144 0 241 99q99 99 99 241q0 143 -99 242q-97 99 -241 99q-145 0 -244 -99t-99 -242q0 -142 99 -241
t244 -99zM465 149q-69 0 -110 32.5t-41 86.5q0 30 16.5 56t44.5 39v5q-28 13 -44.5 38.5t-16.5 56.5q0 54 41.5 86t109.5 32q69 0 110 -32t41 -86q0 -31 -16 -57t-45 -38v-5q27 -12 44 -39t17 -57q0 -54 -41.5 -86t-109.5 -32zM465 399q30 0 47.5 15.5t17.5 39.5
q0 25 -18 40t-47 15q-30 0 -47.5 -15.5t-17.5 -39.5q0 -25 18 -40t47 -15zM465 222q30 0 47.5 15.5t17.5 39.5q0 25 -18 40t-47 15q-30 0 -47.5 -15.5t-17.5 -39.5q0 -26 17.5 -40.5t47.5 -14.5z" />
    <glyph glyph-name="uni2788" unicode="&#x2788;" horiz-adv-x="891" 
d="M79 375q0 162 111 273q112 111 276 111q162 0 273 -112q111 -111 111 -272q0 -163 -111 -274q-112 -110 -273 -110q-163 0 -276 110q-111 111 -111 274zM123 375q0 -142 99 -241t244 -99q144 0 241 99q99 99 99 241q0 143 -99 242q-97 99 -241 99q-145 0 -244 -99
t-99 -242zM320 435q0 65 42 105.5t109 40.5q75 0 116 -56t41 -156q0 -104 -42 -162t-119 -58q-58 0 -96 31t-44 82h83q10 -42 59 -42q75 0 75 120h-3q-26 -45 -92 -45q-57 0 -93 39t-36 101zM470 509q-30 0 -48 -20t-18 -53t18 -53t48 -20q29 0 46.5 21t17.5 53
q0 31 -17.5 51.5t-46.5 20.5z" />
    <glyph glyph-name="uniECE0" unicode="&#xece0;" horiz-adv-x="1031" 
d="M213 314v-254l-95 -70v739h363l-79 -100h-189v-217h141q18 142 120 233q104 92 242 92q90 0 170 -43.5t131 -120.5l-80 -59q-36 57 -97 91t-126 34q-110 0 -187 -81q-76 -80 -76 -193q0 -112 77 -194q76 -81 186 -81q66 0 126 33.5t96 90.5l81 -59q-52 -78 -131.5 -121.5
t-169.5 -43.5q-136 0 -240 92q-102 90 -122 232h-141zM713 242q31 0 59 17.5t45 47.5l78 -60q-30 -48 -77.5 -75t-102.5 -27q-88 0 -152 64q-63 65 -63 156q0 89 63 153q65 65 152 65q54 0 102.5 -27.5t77.5 -75.5l-78 -60q-16 30 -44 47.5t-60 17.5q-48 0 -81 -35
q-33 -34 -33 -85q0 -49 33 -87q33 -36 81 -36z" />
    <glyph glyph-name="uniEFCC" unicode="&#xefcc;" horiz-adv-x="1186" 
d="M487 734q20 0 38 -2v-112q-23 3 -37 3q-114 0 -184 -73q-70 -71 -70 -189q0 -116 70 -189q70 -72 184 -72q24 0 37 3v-113q-24 -2 -38 -2q-162 0 -262 103t-100 270t100 270t262 103zM750 366q0 166 96 267q98 101 260 101q20 0 44 -2v-112q-24 3 -40 3
q-97 0 -162.5 -52.5t-82.5 -151.5h209v-106h-209q16 -103 84 -154q68 -50 161 -50q30 0 40 3v-113q-26 -2 -44 -2q-163 0 -260 100q-96 101 -96 269z" />
    <glyph glyph-name="uniF8FF" unicode="&#xf8ff;" horiz-adv-x="640" 
d="M442 632q-16 -21 -43 -36.5t-48 -19.5l-18 -3l-1 10q-6 57 31 104q22 29 51 46.5t48 18.5l18 2q-1 -2 1 -19q2 -16 -8.5 -47t-30.5 -56zM224 0q-44 0 -89 53q-45 56 -73 134q-28 80 -28 156q0 104 53 166q54 62 124 62q28 0 70 -17t56 -17q15 0 56 18q42 18 80 18
q51 0 87 -23t49 -45l5 -8q-21 -16 -28 -22q-52 -48 -52 -120q0 -58 29.5 -96t59.5 -53l10 -5q-5 -19 -28 -70q-14 -33 -33 -61q-20 -29 -48 -49t-55 -20q-19 0 -59 14q-38 15 -62 15q-26 0 -66 -15t-58 -15z" />
    <glyph glyph-name="NULL" 
 />
    <glyph glyph-name="CR" horiz-adv-x="333" 
 />
    <glyph glyph-name="uni00A40301" horiz-adv-x="418" 
d="M531 1012l48 -99l-242 -129l-37 70zM167 140l23 161l60 428h161l-60 -428l-25 -172q-6 -45 -26 -78q-30 -51 -120 -51h-202l19 140h170z" />
    <glyph glyph-name="G.ss01" horiz-adv-x="772" 
d="M42 285q0 197 116 325q117 128 298 128q133 0 212 -67q81 -68 80 -177h-169q-7 48 -45.5 75.5t-99.5 27.5q-86 0 -141.5 -50t-67.5 -137l-13 -98q-12 -89 31.5 -138.5t130.5 -49.5q75 0 128.5 38.5t67.5 102.5h-178l18 127h347l-9 -67q-22 -158 -131 -247
q-106 -88 -265 -88q-148 0 -229 77.5t-81 217.5z" />
    <glyph glyph-name="Gbreve.ss01" horiz-adv-x="772" 
d="M563 940h94q-10 -72 -61 -117t-125 -45t-112 45t-28 117h93q-5 -36 11 -56.5t47 -20.5q33 0 54.5 20.5t26.5 56.5zM42 285q0 197 116 325q117 128 298 128q133 0 212 -67q81 -68 80 -177h-169q-7 48 -45.5 75.5t-99.5 27.5q-86 0 -141.5 -50t-67.5 -137l-13 -98
q-12 -89 31.5 -138.5t130.5 -49.5q75 0 128.5 38.5t67.5 102.5h-178l18 127h347l-9 -67q-22 -158 -131 -247q-106 -88 -265 -88q-148 0 -229 77.5t-81 217.5z" />
    <glyph glyph-name="uni0122.ss01" horiz-adv-x="772" 
d="M42 285q0 197 116 325q117 128 298 128q133 0 212 -67q81 -68 80 -177h-169q-7 48 -45.5 75.5t-99.5 27.5q-86 0 -141.5 -50t-67.5 -137l-13 -98q-12 -89 31.5 -138.5t130.5 -49.5q75 0 128.5 38.5t67.5 102.5h-178l18 127h347l-9 -67q-22 -158 -131 -247
q-106 -88 -265 -88q-148 0 -229 77.5t-81 217.5zM302 -283v43q24 0 38 15t14 40v8h-52v125h119v-107q0 -59 -32 -91.5t-87 -32.5z" />
    <glyph glyph-name="Gdotaccent.ss01" horiz-adv-x="772" 
d="M532 789h-118l20 145h118zM42 285q0 197 116 325q117 128 298 128q133 0 212 -67q81 -68 80 -177h-169q-7 48 -45.5 75.5t-99.5 27.5q-86 0 -141.5 -50t-67.5 -137l-13 -98q-12 -89 31.5 -138.5t130.5 -49.5q75 0 128.5 38.5t67.5 102.5h-178l18 127h347l-9 -67
q-22 -158 -131 -247q-106 -88 -265 -88q-148 0 -229 77.5t-81 217.5z" />
    <glyph glyph-name="R.ss02" horiz-adv-x="718" 
d="M201 0h-161l102 729h348q107 0 162 -50t55 -141t-44 -159.5t-119 -93.5l-1 -8q23 -9 35.5 -31.5t25.5 -71.5l47 -174h-178l-48 179q-11 41 -30.5 54.5t-65.5 13.5h-94zM283 585l-29 -207h170q44 0 71.5 21.5t32.5 57.5l8 52q5 36 -16.5 56t-63.5 20h-173z" />
    <glyph glyph-name="Racute.ss02" horiz-adv-x="718" 
d="M689 913l-242 -129l-37 70l231 158zM201 0h-161l102 729h348q107 0 162 -50t55 -141t-44 -159.5t-119 -93.5l-1 -8q23 -9 35.5 -31.5t25.5 -71.5l47 -174h-178l-48 179q-11 41 -30.5 54.5t-65.5 13.5h-94zM283 585l-29 -207h170q44 0 71.5 21.5t32.5 57.5l8 52
q5 36 -16.5 56t-63.5 20h-173z" />
    <glyph glyph-name="Rcaron.ss02" horiz-adv-x="718" 
d="M402 776l-120 139l82 69l94 -119l127 119l63 -69l-159 -139h-87zM201 0h-161l102 729h348q107 0 162 -50t55 -141t-44 -159.5t-119 -93.5l-1 -8q23 -9 35.5 -31.5t25.5 -71.5l47 -174h-178l-48 179q-11 41 -30.5 54.5t-65.5 13.5h-94zM283 585l-29 -207h170
q44 0 71.5 21.5t32.5 57.5l8 52q5 36 -16.5 56t-63.5 20h-173z" />
    <glyph glyph-name="uni0156.ss02" horiz-adv-x="718" 
d="M201 0h-161l102 729h348q107 0 162 -50t55 -141t-44 -159.5t-119 -93.5l-1 -8q23 -9 35.5 -31.5t25.5 -71.5l47 -174h-178l-48 179q-11 41 -30.5 54.5t-65.5 13.5h-94zM283 585l-29 -207h170q44 0 71.5 21.5t32.5 57.5l8 52q5 36 -16.5 56t-63.5 20h-173zM278 -283v43
q24 0 38 15t14 40v8h-52v125h119v-107q0 -59 -32 -91.5t-87 -32.5z" />
    <glyph glyph-name="O.ss03" horiz-adv-x="778" 
d="M43 289q0 195 116 322q117 127 297 127q144 0 226 -81t82 -221q0 -196 -116 -321t-297 -125q-145 0 -227 80q-81 80 -81 219zM227 416l-15 -103q-13 -85 30 -133.5t128 -48.5q86 0 142.5 49t68.5 133l15 103q12 84 -31.5 132.5t-128.5 48.5q-86 0 -141.5 -48.5
t-67.5 -132.5zM457 302h-130l18 125h129z" />
    <glyph glyph-name="Oacute.ss03" horiz-adv-x="778" 
d="M638 913l-242 -129l-37 70l231 158zM43 289q0 195 116 322q117 127 297 127q144 0 226 -81t82 -221q0 -196 -116 -321t-297 -125q-145 0 -227 80q-81 80 -81 219zM227 416l-15 -103q-13 -85 30 -133.5t128 -48.5q86 0 142.5 49t68.5 133l15 103q12 84 -31.5 132.5
t-128.5 48.5q-86 0 -141.5 -48.5t-67.5 -132.5zM457 302h-130l18 125h129z" />
    <glyph glyph-name="Ocircumflex.ss03" horiz-adv-x="778" 
d="M284 781l-62 70l159 137h87l120 -137l-82 -70l-94 118zM43 289q0 195 116 322q117 127 297 127q144 0 226 -81t82 -221q0 -196 -116 -321t-297 -125q-145 0 -227 80q-81 80 -81 219zM227 416l-15 -103q-13 -85 30 -133.5t128 -48.5q86 0 142.5 49t68.5 133l15 103
q12 84 -31.5 132.5t-128.5 48.5q-86 0 -141.5 -48.5t-67.5 -132.5zM457 302h-130l18 125h129z" />
    <glyph glyph-name="Odieresis.ss03" horiz-adv-x="778" 
d="M350 789h-118l20 145h118zM560 789h-118l20 145h118zM43 289q0 195 116 322q117 127 297 127q144 0 226 -81t82 -221q0 -196 -116 -321t-297 -125q-145 0 -227 80q-81 80 -81 219zM227 416l-15 -103q-13 -85 30 -133.5t128 -48.5q86 0 142.5 49t68.5 133l15 103
q12 84 -31.5 132.5t-128.5 48.5q-86 0 -141.5 -48.5t-67.5 -132.5zM457 302h-130l18 125h129z" />
    <glyph glyph-name="Ograve.ss03" horiz-adv-x="778" 
d="M453 854l-57 -70l-206 129l77 99zM43 289q0 195 116 322q117 127 297 127q144 0 226 -81t82 -221q0 -196 -116 -321t-297 -125q-145 0 -227 80q-81 80 -81 219zM227 416l-15 -103q-13 -85 30 -133.5t128 -48.5q86 0 142.5 49t68.5 133l15 103q12 84 -31.5 132.5
t-128.5 48.5q-86 0 -141.5 -48.5t-67.5 -132.5zM457 302h-130l18 125h129z" />
    <glyph glyph-name="Ohungarumlaut.ss03" horiz-adv-x="778" 
d="M512 900l-235 -134l-37 69l223 162zM750 896l-238 -130l-35 70l224 157zM43 289q0 195 116 322q117 127 297 127q144 0 226 -81t82 -221q0 -196 -116 -321t-297 -125q-145 0 -227 80q-81 80 -81 219zM227 416l-15 -103q-13 -85 30 -133.5t128 -48.5q86 0 142.5 49
t68.5 133l15 103q12 84 -31.5 132.5t-128.5 48.5q-86 0 -141.5 -48.5t-67.5 -132.5zM457 302h-130l18 125h129z" />
    <glyph glyph-name="Omacron.ss03" horiz-adv-x="778" 
d="M575 788h-358l16 113h358zM43 289q0 195 116 322q117 127 297 127q144 0 226 -81t82 -221q0 -196 -116 -321t-297 -125q-145 0 -227 80q-81 80 -81 219zM227 416l-15 -103q-13 -85 30 -133.5t128 -48.5q86 0 142.5 49t68.5 133l15 103q12 84 -31.5 132.5t-128.5 48.5
q-86 0 -141.5 -48.5t-67.5 -132.5zM457 302h-130l18 125h129z" />
    <glyph glyph-name="Otilde.ss03" horiz-adv-x="778" 
d="M458 777q-30 2 -63 19q-34 19 -57 19q-31 0 -65 -37l-55 41q54 100 135 100q27 -2 62 -19q36 -18 59 -18q38 0 64 38l56 -40q-52 -104 -136 -103zM43 289q0 195 116 322q117 127 297 127q144 0 226 -81t82 -221q0 -196 -116 -321t-297 -125q-145 0 -227 80
q-81 80 -81 219zM227 416l-15 -103q-13 -85 30 -133.5t128 -48.5q86 0 142.5 49t68.5 133l15 103q12 84 -31.5 132.5t-128.5 48.5q-86 0 -141.5 -48.5t-67.5 -132.5zM457 302h-130l18 125h129z" />
    <glyph glyph-name="A.ss04" horiz-adv-x="751" 
d="M383 729h115l204 -282l-63 -447h-162l22 152h-278l-22 -152h-161l63 447zM257 408l-18 -130h278l18 130l-110 162h-12z" />
    <glyph glyph-name="Aacute.ss04" horiz-adv-x="751" 
d="M642 1011l48 -99l-242 -129l-37 70zM383 729h115l204 -282l-63 -447h-162l22 152h-278l-22 -152h-161l63 447zM257 408l-18 -130h278l18 130l-110 162h-12z" />
    <glyph glyph-name="Abreve.ss04" horiz-adv-x="751" 
d="M307 938h93q-5 -36 11 -56.5t47 -20.5q33 0 54.5 20.5t26.5 56.5h94q-10 -72 -61 -117t-125 -45t-112 45t-28 117zM383 729h115l204 -282l-63 -447h-162l22 152h-278l-22 -152h-161l63 447zM257 408l-18 -130h278l18 130l-110 162h-12z" />
    <glyph glyph-name="Acircumflex.ss04" horiz-adv-x="751" 
d="M559 779l-94 118l-128 -118l-62 70l159 137h87l120 -137zM383 729h115l204 -282l-63 -447h-162l22 152h-278l-22 -152h-161l63 447zM257 408l-18 -130h278l18 130l-110 162h-12z" />
    <glyph glyph-name="Adieresis.ss04" horiz-adv-x="751" 
d="M305 933h118l-20 -145h-118zM515 933h118l-20 -145h-118zM383 729h115l204 -282l-63 -447h-162l22 152h-278l-22 -152h-161l63 447zM257 408l-18 -130h278l18 130l-110 162h-12z" />
    <glyph glyph-name="Agrave.ss04" horiz-adv-x="751" 
d="M320 1011l186 -158l-57 -70l-206 129zM383 729h115l204 -282l-63 -447h-162l22 152h-278l-22 -152h-161l63 447zM257 408l-18 -130h278l18 130l-110 162h-12z" />
    <glyph glyph-name="Amacron.ss04" horiz-adv-x="751" 
d="M285 900h358l-16 -113h-358zM383 729h115l204 -282l-63 -447h-162l22 152h-278l-22 -152h-161l63 447zM257 408l-18 -130h278l18 130l-110 162h-12z" />
    <glyph glyph-name="Aogonek.ss04" horiz-adv-x="751" 
d="M537 -83q0 -38 57 -38q23 0 56 11l-11 -78q-33 -16 -84 -16q-50 1 -80 25.5t-30 66.5q0 67 62 112h-30l22 152h-278l-22 -152h-161l63 447l282 282h115l204 -282l-63 -447q-48 -8 -75 -30t-27 -53zM257 408l-18 -130h278l18 130l-110 162h-12z" />
    <glyph glyph-name="Aring.ss04" horiz-adv-x="751" 
d="M510 713l192 -266l-63 -447h-162l22 152h-278l-22 -152h-161l63 447l265 265q-43 28 -43 85q0 61 42 102q44 41 105 41q51 0 81.5 -28t30.5 -75q0 -40 -19.5 -73t-52.5 -51zM460 867q-22 0 -37.5 -17t-15.5 -42q0 -18 10.5 -29t28.5 -11q22 0 37.5 17t15.5 41
q0 18 -10.5 29.5t-28.5 11.5zM257 408l-18 -130h278l18 130l-110 162h-12z" />
    <glyph glyph-name="Atilde.ss04" horiz-adv-x="751" 
d="M390 813q-31 0 -65 -37l-55 41q54 100 135 100q27 -2 62 -19q36 -18 59 -18q38 0 64 38l56 -40q-52 -104 -136 -103q-30 2 -63 19q-34 19 -57 19zM383 729h115l204 -282l-63 -447h-162l22 152h-278l-22 -152h-161l63 447zM257 408l-18 -130h278l18 130l-110 162h-12z" />
    <glyph glyph-name="V.ss04" horiz-adv-x="754" 
d="M79 281l63 448h155l-57 -409l110 -161h13l155 161l57 409h167l-63 -448l-282 -281h-116z" />
    <glyph glyph-name="W.ss04" horiz-adv-x="955" 
d="M206 0l-130 257l66 472h161l-61 -431l55 -120h14l96 123l32 230h148l-31 -230l62 -123h13l90 120l60 431h161l-66 -472l-203 -257h-125l-85 174l-132 -174h-125z" />
    <glyph glyph-name="Wacute.ss04" horiz-adv-x="955" 
d="M792 913l-242 -129l-37 70l231 158zM206 0l-130 257l66 472h161l-61 -431l55 -120h14l96 123l32 230h148l-31 -230l62 -123h13l90 120l60 431h161l-66 -472l-203 -257h-125l-85 174l-132 -174h-125z" />
    <glyph glyph-name="Wcircumflex.ss04" horiz-adv-x="955" 
d="M438 781l-62 70l159 137h87l120 -137l-82 -70l-94 118zM206 0l-130 257l66 472h161l-61 -431l55 -120h14l96 123l32 230h148l-31 -230l62 -123h13l90 120l60 431h161l-66 -472l-203 -257h-125l-85 174l-132 -174h-125z" />
    <glyph glyph-name="Wdieresis.ss04" horiz-adv-x="955" 
d="M505 789h-118l20 145h118zM715 789h-118l20 145h118zM206 0l-130 257l66 472h161l-61 -431l55 -120h14l96 123l32 230h148l-31 -230l62 -123h13l90 120l60 431h161l-66 -472l-203 -257h-125l-85 174l-132 -174h-125z" />
    <glyph glyph-name="Wgrave.ss04" horiz-adv-x="955" 
d="M607 854l-57 -70l-206 129l77 99zM206 0l-130 257l66 472h161l-61 -431l55 -120h14l96 123l32 230h148l-31 -230l62 -123h13l90 120l60 431h161l-66 -472l-203 -257h-125l-85 174l-132 -174h-125z" />
    <glyph glyph-name="Y.ss04" horiz-adv-x="705" 
d="M550 729h167l-36 -258l-254 -252l-31 -219h-161l30 218l-184 253l36 258h156l-30 -219l110 -159h13l154 159z" />
    <glyph glyph-name="Yacute.ss04" horiz-adv-x="705" 
d="M619 1012l48 -99l-242 -129l-37 70zM550 729h167l-36 -258l-254 -252l-31 -219h-161l30 218l-184 253l36 258h156l-30 -219l110 -159h13l154 159z" />
    <glyph glyph-name="Ycircumflex.ss04" horiz-adv-x="705" 
d="M535 781l-94 118l-128 -118l-62 70l159 137h87l120 -137zM550 729h167l-36 -258l-254 -252l-31 -219h-161l30 218l-184 253l36 258h156l-30 -219l110 -159h13l154 159z" />
    <glyph glyph-name="Ydieresis.ss04" horiz-adv-x="705" 
d="M281 934h118l-20 -145h-118zM491 934h118l-20 -145h-118zM550 729h167l-36 -258l-254 -252l-31 -219h-161l30 218l-184 253l36 258h156l-30 -219l110 -159h13l154 159z" />
    <glyph glyph-name="Ygrave.ss04" horiz-adv-x="705" 
d="M296 1012l186 -158l-57 -70l-206 129zM550 729h167l-36 -258l-254 -252l-31 -219h-161l30 218l-184 253l36 258h156l-30 -219l110 -159h13l154 159z" />
    <glyph glyph-name="i.loclTRK" horiz-adv-x="275" 
d="M258 599h-144l25 145h144zM176 0h-152l75 536h153z" />
    <glyph glyph-name="uni006A0301" horiz-adv-x="282" 
d="M384 819l48 -99l-242 -129l-37 70zM24 -48l16 117l66 467h152l-66 -467l-16 -107q-4 -35 -17 -62q-29 -67 -129 -67h-131l17 119h108z" />
    <glyph glyph-name="s.001" horiz-adv-x="532" 
d="M27 168h150q-4 -35 18 -52.5t65 -17.5q39 0 61.5 16t22.5 43q0 32 -50 43l-85 17q-146 29 -146 134q0 86 70 140q70 55 181 55q101 0 154 -45.5t45 -123.5h-149q3 30 -15.5 45.5t-54.5 15.5q-34 0 -54.5 -14.5t-20.5 -39.5q0 -14 12 -25q12 -9 53 -18l90 -20
q129 -30 129 -132q0 -88 -74 -144q-73 -55 -191 -55q-110 0 -167 48.5t-44 129.5z" />
    <glyph glyph-name="germandbls.alt01" horiz-adv-x="695" 
d="M655 587l-125 -158q60 -16 93 -58.5t33 -103.5q0 -120 -86 -194q-85 -73 -225 -73h-80l19 135h80q49 0 80 22t36 58l8 54q4 36 -20.5 56.5t-70.5 20.5h-76l162 213q-10 21 -36 33.5t-59 12.5q-46 0 -77.5 -25.5t-38.5 -70.5l-71 -509h-161l68 490q17 117 96.5 182.5
t203.5 65.5q94 0 160 -40.5t87 -110.5z" />
    <glyph glyph-name="a.ss01" horiz-adv-x="647" 
d="M490 536h133l-75 -536h-152l14 98h-9q-27 -49 -77.5 -78.5t-112.5 -29.5q-89 0 -137.5 55t-48.5 156q0 153 73 248q73 97 189 97q60 0 103.5 -28t58.5 -78h9zM431 246l6 46q7 60 -23 95.5t-89 35.5q-57 0 -91.5 -29t-42.5 -82l-12 -86q-7 -54 20.5 -83.5t82.5 -29.5
q58 0 99.5 36.5t49.5 96.5z" />
    <glyph glyph-name="aacute.ss01" horiz-adv-x="647" 
d="M543 725l-242 -129l-37 70l231 158zM490 536h133l-75 -536h-152l14 98h-9q-27 -49 -77.5 -78.5t-112.5 -29.5q-89 0 -137.5 55t-48.5 156q0 153 73 248q73 97 189 97q60 0 103.5 -28t58.5 -78h9zM431 246l6 46q7 60 -23 95.5t-89 35.5q-57 0 -91.5 -29t-42.5 -82l-12 -86
q-7 -54 20.5 -83.5t82.5 -29.5q58 0 99.5 36.5t49.5 96.5z" />
    <glyph glyph-name="abreve.ss01" horiz-adv-x="647" 
d="M392 751h94q-10 -72 -61 -117t-125 -45t-112 45t-28 117h93q-5 -36 11 -56.5t47 -20.5q33 0 54.5 20.5t26.5 56.5zM490 536h133l-75 -536h-152l14 98h-9q-27 -49 -77.5 -78.5t-112.5 -29.5q-89 0 -137.5 55t-48.5 156q0 153 73 248q73 97 189 97q60 0 103.5 -28t58.5 -78
h9zM431 246l6 46q7 60 -23 95.5t-89 35.5q-57 0 -91.5 -29t-42.5 -82l-12 -86q-7 -54 20.5 -83.5t82.5 -29.5q58 0 99.5 36.5t49.5 96.5z" />
    <glyph glyph-name="acircumflex.ss01" horiz-adv-x="647" 
d="M189 592l-62 70l159 137h87l120 -137l-82 -70l-94 118zM490 536h133l-75 -536h-152l14 98h-9q-27 -49 -77.5 -78.5t-112.5 -29.5q-89 0 -137.5 55t-48.5 156q0 153 73 248q73 97 189 97q60 0 103.5 -28t58.5 -78h9zM431 246l6 46q7 60 -23 95.5t-89 35.5q-57 0 -91.5 -29
t-42.5 -82l-12 -86q-7 -54 20.5 -83.5t82.5 -29.5q58 0 99.5 36.5t49.5 96.5z" />
    <glyph glyph-name="adieresis.ss01" horiz-adv-x="647" 
d="M325 593h-118l21 145h118zM535 593h-118l20 145h118zM490 536h133l-75 -536h-152l14 98h-9q-27 -49 -77.5 -78.5t-112.5 -29.5q-89 0 -137.5 55t-48.5 156q0 153 73 248q73 97 189 97q60 0 103.5 -28t58.5 -78h9zM431 246l6 46q7 60 -23 95.5t-89 35.5q-57 0 -91.5 -29
t-42.5 -82l-12 -86q-7 -54 20.5 -83.5t82.5 -29.5q58 0 99.5 36.5t49.5 96.5z" />
    <glyph glyph-name="agrave.ss01" horiz-adv-x="647" 
d="M358 666l-57 -70l-206 129l77 99zM490 536h133l-75 -536h-152l14 98h-9q-27 -49 -77.5 -78.5t-112.5 -29.5q-89 0 -137.5 55t-48.5 156q0 153 73 248q73 97 189 97q60 0 103.5 -28t58.5 -78h9zM431 246l6 46q7 60 -23 95.5t-89 35.5q-57 0 -91.5 -29t-42.5 -82l-12 -86
q-7 -54 20.5 -83.5t82.5 -29.5q58 0 99.5 36.5t49.5 96.5z" />
    <glyph glyph-name="amacron.ss01" horiz-adv-x="647" 
d="M480 600h-358l16 113h358zM490 536h133l-75 -536h-152l14 98h-9q-27 -49 -77.5 -78.5t-112.5 -29.5q-89 0 -137.5 55t-48.5 156q0 153 73 248q73 97 189 97q60 0 103.5 -28t58.5 -78h9zM431 246l6 46q7 60 -23 95.5t-89 35.5q-57 0 -91.5 -29t-42.5 -82l-12 -86
q-7 -54 20.5 -83.5t82.5 -29.5q58 0 99.5 36.5t49.5 96.5z" />
    <glyph glyph-name="aogonek.ss01" horiz-adv-x="647" 
d="M548 0h-12q-48 -8 -75 -30t-27 -53q0 -38 57 -38q23 0 56 11l-11 -78q-33 -16 -84 -16q-50 1 -80 25.5t-30 66.5q0 67 62 112h-8l14 98h-9q-27 -49 -77.5 -78.5t-112.5 -29.5q-89 0 -137.5 55t-48.5 156q0 153 73 248q73 97 189 97q60 0 103.5 -28t58.5 -78h9l32 96h133z
M282 113q58 0 99.5 36.5t49.5 96.5l6 46q7 60 -23 95.5t-89 35.5q-57 0 -91.5 -29t-42.5 -82l-12 -86q-7 -54 20.5 -83.5t82.5 -29.5z" />
    <glyph glyph-name="aring.ss01" horiz-adv-x="647" 
d="M458 440l32 96h133l-75 -536h-152l14 98h-9q-27 -49 -77.5 -78.5t-112.5 -29.5q-89 0 -137.5 55t-48.5 156q0 124 50 213t134 119q-33 29 -33 77q0 62 42 102q44 41 105 41q51 0 81.5 -28t30.5 -75q0 -78 -66 -121q60 -26 80 -89h9zM313 680q-22 0 -37.5 -17t-15.5 -42
q0 -18 10.5 -29t28.5 -11q22 0 37.5 17t15.5 41q0 18 -10.5 29.5t-28.5 11.5zM431 246l6 46q7 60 -23 95.5t-89 35.5q-57 0 -91.5 -29t-42.5 -82l-12 -86q-7 -54 20.5 -83.5t82.5 -29.5q58 0 99.5 36.5t49.5 96.5z" />
    <glyph glyph-name="atilde.ss01" horiz-adv-x="647" 
d="M363 588q-30 2 -63 19q-34 19 -57 19q-31 0 -65 -37l-55 41q54 100 135 100q27 -2 62 -19q36 -18 59 -18q38 0 64 38l56 -40q-52 -104 -136 -103zM490 536h133l-75 -536h-152l14 98h-9q-27 -49 -77.5 -78.5t-112.5 -29.5q-89 0 -137.5 55t-48.5 156q0 153 73 248
q73 97 189 97q60 0 103.5 -28t58.5 -78h9zM431 246l6 46q7 60 -23 95.5t-89 35.5q-57 0 -91.5 -29t-42.5 -82l-12 -86q-7 -54 20.5 -83.5t82.5 -29.5q58 0 99.5 36.5t49.5 96.5z" />
    <glyph glyph-name="g.ss01" horiz-adv-x="647" 
d="M33 228q0 139 73 228q74 90 185 90q60 0 103.5 -28t59.5 -78h8l32 96h134l-68 -487q-17 -108 -98 -166q-82 -60 -207 -60q-111 0 -173 46t-57 122h150q1 -28 27 -44t69 -16q56 0 91 27t42 73l15 101h-9q-28 -50 -77.5 -79t-111.5 -29q-89 0 -138.5 54t-49.5 150zM197 322
l-10 -72q-7 -48 21.5 -75.5t82.5 -27.5q57 0 98 34.5t49 88.5l5 32q8 52 -23.5 86.5t-90.5 34.5q-56 0 -90.5 -27.5t-41.5 -73.5z" />
    <glyph glyph-name="gbreve.ss01" horiz-adv-x="647" 
d="M406 747h94q-10 -72 -61 -117t-125 -45t-112 45t-28 117h93q-5 -36 11 -56.5t47 -20.5q33 0 54.5 20.5t26.5 56.5zM33 228q0 139 73 228q74 90 185 90q60 0 103.5 -28t59.5 -78h8l32 96h134l-68 -487q-17 -108 -98 -166q-82 -60 -207 -60q-111 0 -173 46t-57 122h150
q1 -28 27 -44t69 -16q56 0 91 27t42 73l15 101h-9q-28 -50 -77.5 -79t-111.5 -29q-89 0 -138.5 54t-49.5 150zM197 322l-10 -72q-7 -48 21.5 -75.5t82.5 -27.5q57 0 98 34.5t49 88.5l5 32q8 52 -23.5 86.5t-90.5 34.5q-56 0 -90.5 -27.5t-41.5 -73.5z" />
    <glyph glyph-name="uni0123.ss01" horiz-adv-x="647" 
d="M367 827v-43q-51 0 -51 -55v-8h51v-125h-119v105q0 60 32 93t87 33zM33 228q0 139 73 228q74 90 185 90q60 0 103.5 -28t59.5 -78h8l32 96h134l-68 -487q-17 -108 -98 -166q-82 -60 -207 -60q-111 0 -173 46t-57 122h150q1 -28 27 -44t69 -16q56 0 91 27t42 73l15 101h-9
q-28 -50 -77.5 -79t-111.5 -29q-89 0 -138.5 54t-49.5 150zM197 322l-10 -72q-7 -48 21.5 -75.5t82.5 -27.5q57 0 98 34.5t49 88.5l5 32q8 52 -23.5 86.5t-90.5 34.5q-56 0 -90.5 -27.5t-41.5 -73.5z" />
    <glyph glyph-name="gdotaccent.ss01" horiz-adv-x="647" 
d="M376 596h-118l20 145h118zM33 228q0 139 73 228q74 90 185 90q60 0 103.5 -28t59.5 -78h8l32 96h134l-68 -487q-17 -108 -98 -166q-82 -60 -207 -60q-111 0 -173 46t-57 122h150q1 -28 27 -44t69 -16q56 0 91 27t42 73l15 101h-9q-28 -50 -77.5 -79t-111.5 -29
q-89 0 -138.5 54t-49.5 150zM197 322l-10 -72q-7 -48 21.5 -75.5t82.5 -27.5q57 0 98 34.5t49 88.5l5 32q8 52 -23.5 86.5t-90.5 34.5q-56 0 -90.5 -27.5t-41.5 -73.5z" />
    <glyph glyph-name="a.ss02" horiz-adv-x="556" 
d="M6 122q0 88 60 144q62 56 160 56h135l6 36q5 36 -14.5 54.5t-58.5 18.5q-40 0 -65 -18t-30 -48h-148q18 89 87.5 135t177.5 46q115 0 164.5 -52t36.5 -149l-48 -345h-133l-3 88h-9q-23 -47 -69.5 -72.5t-106.5 -25.5q-66 0 -104 35.5t-38 96.5zM165 178l-2 -21
q-7 -52 59 -52q50 0 84.5 29.5t40.5 77.5l2 15h-109q-31 0 -51.5 -13.5t-23.5 -35.5z" />
    <glyph glyph-name="aacute.ss02" horiz-adv-x="556" 
d="M565 723l-242 -129l-37 70l231 158zM6 122q0 88 60 144q62 56 160 56h135l6 36q5 36 -14.5 54.5t-58.5 18.5q-40 0 -65 -18t-30 -48h-148q18 89 87.5 135t177.5 46q115 0 164.5 -52t36.5 -149l-48 -345h-133l-3 88h-9q-23 -47 -69.5 -72.5t-106.5 -25.5q-66 0 -104 35.5
t-38 96.5zM165 178l-2 -21q-7 -52 59 -52q50 0 84.5 29.5t40.5 77.5l2 15h-109q-31 0 -51.5 -13.5t-23.5 -35.5z" />
    <glyph glyph-name="abreve.ss02" horiz-adv-x="556" 
d="M414 750h94q-10 -72 -61 -117t-125 -45t-112 45t-28 117h93q-5 -36 11 -56.5t47 -20.5q33 0 54.5 20.5t26.5 56.5zM6 122q0 88 60 144q62 56 160 56h135l6 36q5 36 -14.5 54.5t-58.5 18.5q-40 0 -65 -18t-30 -48h-148q18 89 87.5 135t177.5 46q115 0 164.5 -52t36.5 -149
l-48 -345h-133l-3 88h-9q-23 -47 -69.5 -72.5t-106.5 -25.5q-66 0 -104 35.5t-38 96.5zM165 178l-2 -21q-7 -52 59 -52q50 0 84.5 29.5t40.5 77.5l2 15h-109q-31 0 -51.5 -13.5t-23.5 -35.5z" />
    <glyph glyph-name="acircumflex.ss02" horiz-adv-x="556" 
d="M211 590l-62 70l159 137h87l120 -137l-82 -70l-94 118zM6 122q0 88 60 144q62 56 160 56h135l6 36q5 36 -14.5 54.5t-58.5 18.5q-40 0 -65 -18t-30 -48h-148q18 89 87.5 135t177.5 46q115 0 164.5 -52t36.5 -149l-48 -345h-133l-3 88h-9q-23 -47 -69.5 -72.5
t-106.5 -25.5q-66 0 -104 35.5t-38 96.5zM165 178l-2 -21q-7 -52 59 -52q50 0 84.5 29.5t40.5 77.5l2 15h-109q-31 0 -51.5 -13.5t-23.5 -35.5z" />
    <glyph glyph-name="adieresis.ss02" horiz-adv-x="556" 
d="M277 599h-118l20 145h118zM487 599h-118l20 145h118zM6 122q0 88 60 144q62 56 160 56h135l6 36q5 36 -14.5 54.5t-58.5 18.5q-40 0 -65 -18t-30 -48h-148q18 89 87.5 135t177.5 46q115 0 164.5 -52t36.5 -149l-48 -345h-133l-3 88h-9q-23 -47 -69.5 -72.5t-106.5 -25.5
q-66 0 -104 35.5t-38 96.5zM165 178l-2 -21q-7 -52 59 -52q50 0 84.5 29.5t40.5 77.5l2 15h-109q-31 0 -51.5 -13.5t-23.5 -35.5z" />
    <glyph glyph-name="agrave.ss02" horiz-adv-x="556" 
d="M380 664l-57 -70l-206 129l77 99zM6 122q0 88 60 144q62 56 160 56h135l6 36q5 36 -14.5 54.5t-58.5 18.5q-40 0 -65 -18t-30 -48h-148q18 89 87.5 135t177.5 46q115 0 164.5 -52t36.5 -149l-48 -345h-133l-3 88h-9q-23 -47 -69.5 -72.5t-106.5 -25.5q-66 0 -104 35.5
t-38 96.5zM165 178l-2 -21q-7 -52 59 -52q50 0 84.5 29.5t40.5 77.5l2 15h-109q-31 0 -51.5 -13.5t-23.5 -35.5z" />
    <glyph glyph-name="amacron.ss02" horiz-adv-x="556" 
d="M502 598h-358l16 113h358zM6 122q0 88 60 144q62 56 160 56h135l6 36q5 36 -14.5 54.5t-58.5 18.5q-40 0 -65 -18t-30 -48h-148q18 89 87.5 135t177.5 46q115 0 164.5 -52t36.5 -149l-48 -345h-133l-3 88h-9q-23 -47 -69.5 -72.5t-106.5 -25.5q-66 0 -104 35.5t-38 96.5z
M165 178l-2 -21q-7 -52 59 -52q50 0 84.5 29.5t40.5 77.5l2 15h-109q-31 0 -51.5 -13.5t-23.5 -35.5z" />
    <glyph glyph-name="aogonek.ss02" horiz-adv-x="556" 
d="M469 0h-2q-48 -8 -75 -30t-27 -53q0 -38 57 -38q23 0 56 11l-11 -78q-33 -16 -84 -16q-50 1 -80 25.5t-30 66.5q0 66 63 113l-3 87h-9q-23 -47 -69.5 -72.5t-106.5 -25.5q-66 0 -104 35.5t-38 96.5q0 88 60 144q62 56 160 56h135l6 36q5 36 -14.5 54.5t-58.5 18.5
q-40 0 -65 -18t-30 -48h-148q18 89 87.5 135t177.5 46q115 0 164.5 -52t36.5 -149zM222 105q50 0 84.5 29.5t40.5 77.5l2 15h-109q-31 0 -51.5 -13.5t-23.5 -35.5l-2 -21q-7 -52 59 -52z" />
    <glyph glyph-name="aring.ss02" horiz-adv-x="556" 
d="M403 536q135 -36 114 -191l-48 -345h-133l-3 88h-9q-23 -47 -69.5 -72.5t-106.5 -25.5q-66 0 -104 35.5t-38 96.5q0 88 60 144q62 56 160 56h135l6 36q5 36 -14.5 54.5t-58.5 18.5q-40 0 -65 -18t-30 -48h-148q28 136 175 171q-28 28 -28 72q0 62 42 102q44 41 105 41
q51 0 81.5 -28t30.5 -75q0 -68 -54 -112zM335 678q-22 0 -37.5 -17t-15.5 -42q0 -18 10.5 -29t28.5 -11q22 0 37.5 17t15.5 41q0 18 -10.5 29.5t-28.5 11.5zM347 212l2 15h-109q-31 0 -51.5 -13.5t-23.5 -35.5l-2 -21q-7 -52 59 -52q50 0 84.5 29.5t40.5 77.5z" />
    <glyph glyph-name="atilde.ss02" horiz-adv-x="556" 
d="M384 587q-30 2 -63 19q-34 19 -57 19q-31 0 -65 -37l-55 41q54 100 135 100q27 -2 62 -19q36 -18 59 -18q38 0 64 38l56 -40q-52 -104 -136 -103zM6 122q0 88 60 144q62 56 160 56h135l6 36q5 36 -14.5 54.5t-58.5 18.5q-40 0 -65 -18t-30 -48h-148q18 89 87.5 135
t177.5 46q115 0 164.5 -52t36.5 -149l-48 -345h-133l-3 88h-9q-23 -47 -69.5 -72.5t-106.5 -25.5q-66 0 -104 35.5t-38 96.5zM165 178l-2 -21q-7 -52 59 -52q50 0 84.5 29.5t40.5 77.5l2 15h-109q-31 0 -51.5 -13.5t-23.5 -35.5z" />
    <glyph glyph-name="o.ss03" horiz-adv-x="595" 
d="M26 215q0 145 87 238t224 93q108 0 171 -59.5t63 -164.5q0 -145 -88 -239q-87 -93 -224 -93q-108 0 -170.5 60t-62.5 165zM191 309l-12 -84q-7 -54 19 -82.5t79 -28.5q54 0 87.5 28.5t41.5 82.5l11 84q7 53 -19 83t-78 30q-53 0 -87.5 -30t-41.5 -83zM334 227h-84l11 83
h84z" />
    <glyph glyph-name="oacute.ss03" horiz-adv-x="595" 
d="M546 720l-242 -129l-37 70l231 158zM26 215q0 145 87 238t224 93q108 0 171 -59.5t63 -164.5q0 -145 -88 -239q-87 -93 -224 -93q-108 0 -170.5 60t-62.5 165zM191 309l-12 -84q-7 -54 19 -82.5t79 -28.5q54 0 87.5 28.5t41.5 82.5l11 84q7 53 -19 83t-78 30
q-53 0 -87.5 -30t-41.5 -83zM334 227h-84l11 83h84z" />
    <glyph glyph-name="ocircumflex.ss03" horiz-adv-x="595" 
d="M193 587l-62 70l159 137h87l120 -137l-82 -70l-94 118zM26 215q0 145 87 238t224 93q108 0 171 -59.5t63 -164.5q0 -145 -88 -239q-87 -93 -224 -93q-108 0 -170.5 60t-62.5 165zM191 309l-12 -84q-7 -54 19 -82.5t79 -28.5q54 0 87.5 28.5t41.5 82.5l11 84q7 53 -19 83
t-78 30q-53 0 -87.5 -30t-41.5 -83zM334 227h-84l11 83h84z" />
    <glyph glyph-name="odieresis.ss03" horiz-adv-x="595" 
d="M259 596h-118l20 145h118zM469 596h-118l20 145h118zM26 215q0 145 87 238t224 93q108 0 171 -59.5t63 -164.5q0 -145 -88 -239q-87 -93 -224 -93q-108 0 -170.5 60t-62.5 165zM191 309l-12 -84q-7 -54 19 -82.5t79 -28.5q54 0 87.5 28.5t41.5 82.5l11 84q7 53 -19 83
t-78 30q-53 0 -87.5 -30t-41.5 -83zM334 227h-84l11 83h84z" />
    <glyph glyph-name="ograve.ss03" horiz-adv-x="595" 
d="M362 661l-57 -70l-206 129l77 99zM26 215q0 145 87 238t224 93q108 0 171 -59.5t63 -164.5q0 -145 -88 -239q-87 -93 -224 -93q-108 0 -170.5 60t-62.5 165zM191 309l-12 -84q-7 -54 19 -82.5t79 -28.5q54 0 87.5 28.5t41.5 82.5l11 84q7 53 -19 83t-78 30
q-53 0 -87.5 -30t-41.5 -83zM334 227h-84l11 83h84z" />
    <glyph glyph-name="ohungarumlaut.ss03" horiz-adv-x="595" 
d="M421 707l-235 -134l-37 69l223 162zM659 703l-238 -130l-35 70l224 157zM26 215q0 145 87 238t224 93q108 0 171 -59.5t63 -164.5q0 -145 -88 -239q-87 -93 -224 -93q-108 0 -170.5 60t-62.5 165zM191 309l-12 -84q-7 -54 19 -82.5t79 -28.5q54 0 87.5 28.5t41.5 82.5
l11 84q7 53 -19 83t-78 30q-53 0 -87.5 -30t-41.5 -83zM334 227h-84l11 83h84z" />
    <glyph glyph-name="omacron.ss03" horiz-adv-x="595" 
d="M484 595h-358l16 113h358zM26 215q0 145 87 238t224 93q108 0 171 -59.5t63 -164.5q0 -145 -88 -239q-87 -93 -224 -93q-108 0 -170.5 60t-62.5 165zM191 309l-12 -84q-7 -54 19 -82.5t79 -28.5q54 0 87.5 28.5t41.5 82.5l11 84q7 53 -19 83t-78 30q-53 0 -87.5 -30
t-41.5 -83zM334 227h-84l11 83h84z" />
    <glyph glyph-name="otilde.ss03" horiz-adv-x="595" 
d="M366 583q-30 2 -63 19q-34 19 -57 19q-31 0 -65 -37l-55 41q54 100 135 100q27 -2 62 -19q36 -18 59 -18q38 0 64 38l56 -40q-52 -104 -136 -103zM26 215q0 145 87 238t224 93q108 0 171 -59.5t63 -164.5q0 -145 -88 -239q-87 -93 -224 -93q-108 0 -170.5 60t-62.5 165z
M191 309l-12 -84q-7 -54 19 -82.5t79 -28.5q54 0 87.5 28.5t41.5 82.5l11 84q7 53 -19 83t-78 30q-53 0 -87.5 -30t-41.5 -83zM334 227h-84l11 83h84z" />
    <glyph glyph-name="h_t_t_p" horiz-adv-x="2027" 
d="M179 764h1809l-133 -945h-662l75 534h-157l-32 -230h96l-15 -106h-117q-58 0 -82.5 26t-15.5 88l31 222h-180l-32 -230h97l-15 -106h-118q-57 0 -82 26t-16 88l32 222h-88l15 107h88l19 139h135l-20 -139h180l19 139h136l-20 -139h275l4 -88h8q25 45 71 71t101 26
q79 0 124 -50t45 -134q0 -118 -68 -198q-67 -79 -166 -79q-119 0 -145 96h-8l-29 -203h439l109 780h-1629l-43 -308h8q27 46 73 71t100 25q80 0 115 -53t22 -148l-35 -251h-134l34 238q7 50 -13.5 77t-62.5 27q-50 0 -84.5 -35t-42.5 -92l-46 -331h996l-12 -82h-1085z
M1388 256l-5 -34q-5 -43 23 -73.5t77 -30.5q57 0 95 41q39 42 39 103q0 45 -26.5 71.5t-71.5 26.5q-48 0 -88 -32q-39 -32 -43 -72z" />
    <glyph glyph-name="w_w_w" horiz-adv-x="2007" 
d="M281 0h-168l-70 536h150l19 -222l9 -173h6l126 395h145l15 -397h5l140 397h150l27 -395h6l127 395h145l15 -397h5l140 397h150l27 -395h6l128 395h144l15 -397h5l56 172l84 225h149l-223 -536h-166l-17 346h-6l-113 -346h-169l-28 311l-116 -311h-166l-17 346h-6
l-114 -346h-168l-29 308l-114 -308h-167l-17 346h-6z" />
    <glyph glyph-name="zero.ss01" horiz-adv-x="633" 
d="M50 256q0 214 91 344t244 130q112 0 169.5 -67.5t57.5 -197.5q0 -215 -91 -345t-240 -130q-113 0 -172 68t-59 198zM241 469l-31 -218q-16 -127 88 -127q108 0 124 127l31 218q18 127 -89 127q-104 0 -123 -127zM375 315h-105l13 94h105z" />
    <glyph glyph-name="zero.tf" horiz-adv-x="601" 
d="M376 730q112 0 170 -67.5t58 -197.5q0 -214 -92 -345q-91 -130 -240 -130q-113 0 -171.5 67.5t-58.5 198.5q0 214 91 344t243 130zM356 596q-105 0 -124 -127l-11 -77l224 133q-11 71 -89 71zM289 124q107 0 125 127l16 113l-231 -138q-5 -102 90 -102z" />
    <glyph glyph-name="one.tf" horiz-adv-x="595" 
d="M430 721l-82 -585h206v-136h-533v136h172l48 339h-186l16 118h31q70 0 120 35.5t63 92.5h145z" />
    <glyph glyph-name="two.tf" horiz-adv-x="602" 
d="M449 284l-165 -150l87 2h184l-19 -136h-492l15 105l299 280q69 63 75 106l4 28q5 35 -17.5 56t-64.5 21q-44 0 -74 -24.5t-35 -66.5l-3 -23h-153l3 21q13 100 93 163q80 64 198 64q100 0 158.5 -50t58.5 -134q0 -89 -52 -156q-29 -37 -45 -53q-14 -15 -55 -53z" />
    <glyph glyph-name="three.tf" horiz-adv-x="602" 
d="M302 -10q-122 0 -184 61.5t-46 166.5h158q-8 -46 16 -71t72 -25q46 0 77 21t36 56l5 31q5 38 -17 57.5t-68 19.5h-90l17 123h76q44 0 71 18.5t32 51.5l3 26q5 35 -17.5 53.5t-65.5 18.5q-45 0 -74 -24.5t-36 -69.5h-157q13 102 93 164t200 62q102 0 161 -44.5t59 -121.5
q0 -60 -31.5 -108t-90.5 -75l-1 -6q93 -37 93 -141q0 -109 -82 -176q-82 -68 -209 -68z" />
    <glyph glyph-name="four.tf" horiz-adv-x="602" 
d="M577 721l-64 -453h86l-18 -128h-86l-20 -140h-155l20 140h-331l16 119l321 462h231zM401 580l-216 -312h172z" />
    <glyph glyph-name="five.tf" horiz-adv-x="602" 
d="M65 226h157q-7 -44 19.5 -72t74.5 -28q49 0 82 24t38 64l8 53q7 41 -20 64.5t-76 23.5q-37 0 -68 -17t-45 -44h-147l79 427h449l-19 -135h-312l-25 -134l6 -3q46 36 130 36q95 0 150 -54t55 -145q0 -130 -86 -213t-221 -83q-119 0 -182 65q-63 66 -47 171z" />
    <glyph glyph-name="six.tf" horiz-adv-x="602" 
d="M47 258q0 215 92 343q91 129 246 129q103 0 161.5 -51t56.5 -139h-158q-6 60 -83 60q-127 0 -143 -187h7q51 71 157 71q90 0 142.5 -52t52.5 -142q0 -131 -84 -215t-214 -84q-115 0 -174 68.5t-59 198.5zM218 270l-8 -55q-6 -42 19 -65.5t70 -23.5q46 0 77.5 23.5
t38.5 65.5l7 55q6 42 -19 65t-70 23q-46 0 -77.5 -23.5t-37.5 -64.5z" />
    <glyph glyph-name="seven.tf" horiz-adv-x="602" 
d="M199 468h-125l35 253h521l-16 -112q-119 -135 -215 -297t-142 -312h-167q40 140 131 298q93 158 205 288h-211z" />
    <glyph glyph-name="eight.tf" horiz-adv-x="604" 
d="M262 -10q-115 0 -177 46t-62 127q0 65 33.5 116.5t94.5 77.5l1 8q-82 37 -82 130q0 105 81 170q83 65 217 65q114 0 176 -46t62 -127q0 -65 -34 -116t-93 -76l-1 -8q81 -41 81 -132q0 -107 -81 -171q-80 -64 -216 -64zM323 424q105 0 117 75l3 23q5 37 -18.5 55.5
t-76.5 18.5q-105 0 -116 -74l-4 -23q-5 -36 19.5 -55.5t75.5 -19.5zM282 124q104 0 116 79l3 23q6 35 -19.5 53.5t-75.5 18.5q-104 0 -116 -72l-3 -23q-6 -39 18.5 -59t76.5 -20z" />
    <glyph glyph-name="nine.tf" horiz-adv-x="602" 
d="M582 463q0 -213 -92 -343q-92 -129 -245 -129q-103 0 -162 51t-57 139h158q6 -60 83 -60q127 0 142 187h-6q-53 -72 -157 -72q-90 0 -142.5 52t-52.5 143q0 130 84 214q84 85 214 85q115 0 174 -69t59 -198zM411 451l8 55q6 42 -19.5 65.5t-70.5 23.5q-46 0 -77.5 -24
t-37.5 -65l-8 -55q-6 -42 19.5 -65t71.5 -23q45 0 76 23.5t38 64.5z" />
    <glyph glyph-name="zero.tf.ss01" horiz-adv-x="601" 
d="M376 730q112 0 170 -67.5t58 -197.5q0 -214 -92 -345q-91 -130 -240 -130q-113 0 -171.5 67.5t-58.5 198.5q0 214 91 344t243 130zM356 596q-105 0 -124 -127l-6 -43h212l6 43q18 127 -88 127zM289 124q107 0 125 127l6 47h-212l-6 -47q-19 -127 87 -127z" />
    <glyph glyph-name="zero.dnom" horiz-adv-x="417" 
d="M171 -4q-73 0 -111 47t-38 133q0 138 60 223q62 87 158 87q73 0 111 -47t38 -133q0 -137 -61 -223q-62 -87 -157 -87zM182 84q45 0 74 62q29 64 29 163q0 90 -57 90q-45 0 -74 -62q-28 -60 -28 -162q0 -91 56 -91z" />
    <glyph glyph-name="one.dnom" horiz-adv-x="315" 
d="M155 314h-124l11 81h45q44 0 69 22.5t25 59.5v3h98l-67 -480h-100z" />
    <glyph glyph-name="two.dnom" horiz-adv-x="381" 
d="M127 85l63 3h128l-13 -88h-310l2 16q13 103 102 170q14 11 43.5 31t44.5 32t33.5 29.5t27 35.5t8.5 38q0 22 -14 35t-38 13q-30 0 -49.5 -20.5t-23.5 -53.5l-99 6q11 69 63.5 111.5t126.5 42.5q64 0 100.5 -33t36.5 -88q0 -86 -65 -144q-13 -12 -80.5 -60.5t-86.5 -75.5z
" />
    <glyph glyph-name="three.dnom" horiz-adv-x="376" 
d="M155 -7q-73 0 -112 42t-29 109h100q-4 -28 11 -45.5t41 -17.5q29 0 50 20.5t21 48.5q0 23 -16 36.5t-42 13.5h-42l13 91h30q33 0 54 18.5t21 47.5q0 20 -13 31t-34 11q-29 0 -47 -17.5t-21 -45.5h-101q8 68 57.5 109t125.5 41q64 0 101 -29.5t37 -80.5q0 -86 -80 -122
l-1 -5q60 -25 60 -94t-53 -116q-52 -46 -131 -46z" />
    <glyph glyph-name="four.dnom" horiz-adv-x="375" 
d="M351 480l-43 -306h48l-12 -88h-48l-12 -86h-99l11 86h-209l12 81l200 313h152zM237 373l-127 -199h99z" />
    <glyph glyph-name="five.dnom" horiz-adv-x="398" 
d="M22 149h102q-4 -30 12 -48.5t46 -18.5q34 0 57.5 26t23.5 64q0 29 -16.5 47t-44.5 18q-50 0 -69 -40h-95l40 283h301l-12 -88h-203l-7 -52l-8 -39l3 -3q29 26 83 26q60 0 95.5 -37t35.5 -98q0 -85 -57 -140q-56 -56 -141 -56q-74 0 -115 43t-31 113z" />
    <glyph glyph-name="six.dnom" horiz-adv-x="406" 
d="M18 172q0 138 63 226t162 88q65 0 103.5 -35.5t37.5 -94.5h-100q-5 43 -57 43q-81 0 -97 -126h4q15 23 44.5 36t62.5 13q57 0 91.5 -35.5t34.5 -94.5q0 -85 -57 -142q-58 -56 -141 -56q-73 0 -112 46t-39 132zM124 145q0 -29 16 -46t44 -17q35 0 58.5 27t23.5 68
q0 28 -16 45t-43 17q-35 0 -59 -27t-24 -67z" />
    <glyph glyph-name="seven.dnom" horiz-adv-x="351" 
d="M45 480h327l-10 -72q-171 -177 -240 -408h-99q27 107 83.5 210t133.5 182h-131l-11 -75h-76z" />
    <glyph glyph-name="eight.dnom" horiz-adv-x="388" 
d="M2 109q0 42 23.5 77t62.5 51v6q-54 25 -54 90q0 68 53 110q53 43 140 43q71 0 111.5 -31t40.5 -83q0 -42 -23 -77.5t-61 -51.5l-1 -6q53 -26 53 -87q0 -71 -53 -114t-139 -43q-72 0 -112.5 31t-40.5 85zM136 331q0 -23 16.5 -36t44.5 -13q33 0 54.5 19t21.5 48
q0 23 -16.5 36.5t-43.5 13.5q-34 0 -55.5 -19.5t-21.5 -48.5zM108 129q0 -23 16 -36t44 -13q33 0 55 19.5t22 48.5q0 23 -16 37t-44 14q-33 0 -55 -20t-22 -50z" />
    <glyph glyph-name="nine.dnom" horiz-adv-x="406" 
d="M383 309q0 -139 -63 -227t-162 -88q-66 0 -104.5 35.5t-36.5 94.5h100q5 -42 57 -42q80 0 97 125h-4q-34 -49 -107 -49q-58 0 -92 36t-34 95q0 83 57 140t141 57q73 0 112 -46t39 -131zM276 336q0 29 -15.5 46t-42.5 17q-35 0 -59 -27.5t-24 -67.5q0 -29 16.5 -46
t44.5 -17q34 0 57 27t23 68z" />
    <glyph glyph-name="zero.numr" horiz-adv-x="417" 
d="M206 251q-73 0 -111 46.5t-38 132.5q0 134 60 220q61 85 158 85q74 0 112 -46.5t38 -131.5q0 -135 -61 -220q-62 -86 -158 -86zM217 338q46 0 74 61q29 63 29 159q0 90 -56 90q-47 0 -75 -61q-28 -59 -28 -158q0 -91 56 -91z" />
    <glyph glyph-name="one.numr" horiz-adv-x="315" 
d="M190 565h-124l11 80h45q43 0 68.5 22.5t25.5 58.5v3h98l-67 -473h-100z" />
    <glyph glyph-name="two.numr" horiz-adv-x="381" 
d="M163 338l63 4h128l-13 -87h-310l2 17q6 46 28 84.5t50 62t60 47t58.5 41.5t44 42.5t17.5 52.5q0 22 -14 34.5t-38 12.5q-29 0 -49 -20t-23 -53l-100 6q12 69 64 111t126 42q65 0 101.5 -32t36.5 -87q0 -84 -66 -142q-18 -17 -82.5 -63t-83.5 -73z" />
    <glyph glyph-name="three.numr" horiz-adv-x="376" 
d="M191 248q-74 0 -113 41.5t-29 107.5h101q-4 -27 11 -44.5t40 -17.5q30 0 50.5 19.5t20.5 48.5q0 23 -16.5 36t-41.5 13h-41l12 90h30q33 0 54 18t21 47q0 20 -13 30.5t-35 10.5q-27 0 -45.5 -17t-21.5 -45h-101q8 67 57.5 108t125.5 41q64 0 101 -29.5t37 -79.5
q0 -86 -81 -120v-5q60 -26 60 -92q0 -68 -53 -115q-52 -46 -130 -46z" />
    <glyph glyph-name="four.numr" horiz-adv-x="375" 
d="M386 729l-42 -303h48l-12 -86h-48l-12 -84h-99l11 84h-209l12 80l199 309h152zM272 623l-126 -197h99z" />
    <glyph glyph-name="five.numr" horiz-adv-x="398" 
d="M58 402h102q-4 -28 12.5 -47.5t45.5 -19.5q34 0 57.5 26.5t23.5 63.5q0 29 -16.5 47t-44.5 18q-48 0 -69 -41h-95l39 280h302l-12 -88h-203l-7 -51l-8 -38l2 -3q29 26 83 26q60 0 96 -36.5t36 -96.5q0 -84 -57 -139q-55 -55 -140 -55q-75 0 -116 42.5t-31 111.5z" />
    <glyph glyph-name="six.numr" horiz-adv-x="406" 
d="M54 425q0 137 62 223q63 87 162 87q66 0 104.5 -34.5t37.5 -93.5h-100q-6 41 -57 41q-80 0 -97 -123h4q16 21 46.5 35t60.5 14q57 0 91.5 -36t34.5 -94q0 -84 -57 -139q-58 -56 -141 -56q-73 0 -112 45.5t-39 130.5zM160 398q0 -29 16 -46t44 -17q35 0 58.5 27t23.5 68
q0 28 -16 45t-43 17q-35 0 -59 -27t-24 -67z" />
    <glyph glyph-name="seven.numr" horiz-adv-x="351" 
d="M79 729h327l-9 -72q-171 -171 -239 -401h-99q30 106 85.5 207.5t128.5 177.5h-130l-9 -69h-76l9 69z" />
    <glyph glyph-name="eight.numr" horiz-adv-x="388" 
d="M38 363q0 42 22.5 76t61.5 50l1 6q-54 29 -54 89q0 67 53 109q54 42 140 42q71 0 111 -30.5t40 -82.5q0 -41 -22 -75t-61 -52l-1 -6q54 -25 54 -87q0 -68 -54 -111q-52 -43 -138 -43q-71 0 -112 31.5t-41 83.5zM171 582q0 -22 16.5 -35.5t44.5 -13.5q33 0 54.5 19
t21.5 48q0 23 -16.5 35.5t-43.5 12.5q-34 0 -55.5 -18.5t-21.5 -47.5zM143 383q0 -22 16.5 -35.5t44.5 -13.5q32 0 54 19.5t22 47.5q0 23 -16.5 36.5t-43.5 13.5q-33 0 -55 -19t-22 -49z" />
    <glyph glyph-name="nine.numr" horiz-adv-x="406" 
d="M416 559q0 -136 -62 -224q-62 -86 -162 -86q-64 0 -103 35t-38 94h100q6 -43 58 -43q78 0 96 124h-5q-34 -48 -105 -48q-57 0 -92 36t-35 94q0 83 57 138q58 56 141 56q73 0 111.5 -45.5t38.5 -130.5zM310 586q0 28 -15.5 45t-42.5 17q-35 0 -59 -26.5t-24 -66.5
q0 -29 16 -46t45 -17q34 0 57 27t23 67z" />
    <glyph glyph-name="numbersign.ss03" horiz-adv-x="623" 
d="M637 540l-30 -71h-94l-69 -185h118l-28 -71h-116l-79 -213h-83l79 213h-139l-79 -213h-83l79 213h-97l30 71h93l68 185h-116l30 71h112l78 210h83l-78 -210h140l78 210h83l-78 -210h98zM222 284h139l69 185h-140z" />
    <glyph glyph-name="parenleft.case" horiz-adv-x="292" 
d="M60 284q0 134 60 261q62 130 160 204h78q-97 -76 -157 -204t-60 -263q0 -90 29 -169.5t80 -131.5h-77q-54 51 -83.5 130.5t-29.5 172.5z" />
    <glyph glyph-name="parenright.case" horiz-adv-x="292" 
d="M260 445q0 -133 -60 -261q-59 -125 -161 -203h-78q100 79 158 205q59 129 59 262q0 191 -109 301h78q54 -51 83.5 -131t29.5 -173z" />
    <glyph glyph-name="braceleft.case" horiz-adv-x="294" 
d="M28 295l10 73q69 0 81 76l29 205q6 40 31 63t66 23h101l-9 -67h-108l-31 -219q-13 -99 -94 -113v-3q35 -8 51.5 -38.5t9.5 -75.5l-32 -229h108l-9 -68h-102q-40 0 -59 22.5t-13 64.5l30 214q6 36 -11 54t-49 18z" />
    <glyph glyph-name="braceright.case" horiz-adv-x="294" 
d="M284 368l-10 -73q-32 0 -54.5 -18.5t-27.5 -53.5l-30 -214q-5 -42 -30 -64.5t-65 -22.5h-101l9 68h107l32 229q6 43 31 73.5t63 40.5l1 3q-36 7 -53 36t-10 77l31 219h-107l10 67h101q39 0 57.5 -23t13.5 -63l-28 -205q-5 -35 10.5 -55.5t49.5 -20.5z" />
    <glyph glyph-name="bracketleft.case" horiz-adv-x="273" 
d="M210 -78h-192l117 830h192l-10 -69h-116l-97 -693h116z" />
    <glyph glyph-name="bracketright.case" horiz-adv-x="273" 
d="M158 -78h-192l9 68h116l97 693h-116l10 69h192z" />
    <glyph glyph-name="hyphen.case" horiz-adv-x="471" 
d="M424 328h-361l12 84h361z" />
    <glyph glyph-name="endash.case" horiz-adv-x="647" 
d="M600 328h-537l12 84h537z" />
    <glyph glyph-name="emdash.case" horiz-adv-x="843" 
d="M796 328h-733l12 84h733z" />
    <glyph glyph-name="hyphen_hyphen_greater" horiz-adv-x="856" 
d="M706 230h-597v84h597l-169 227h106l203 -268l-203 -273h-106z" />
    <glyph glyph-name="greater.case" horiz-adv-x="542" 
d="M495 309l-425 -215l21 147l133 61l163 60l1 9l-140 59l-122 65l20 141l365 -213z" />
    <glyph glyph-name="less.case" horiz-adv-x="542" 
d="M444 241l-20 -147l-365 215l16 114l425 213l-20 -141l-140 -65l-155 -59l-2 -9l144 -60z" />
    <glyph glyph-name="percent.tf" horiz-adv-x="597" 
d="M70 583q0 69 43 112q43 45 114 45q72 0 115 -46q44 -46 44 -114q0 -67 -45 -112q-43 -45 -114 -45q-67 0 -113 44q-44 46 -44 116zM166 583q0 -33 16.5 -53t44.5 -20t46 20t18 53q0 30 -18 49.5t-46 19.5q-27 0 -44 -19.5t-17 -49.5zM615 440l-548 -215v72l548 217v-74z
M289 151q0 66 44 112q45 45 114 45q71 0 115 -45q44 -46 44 -113q0 -68 -45 -114q-43 -46 -114 -46q-68 0 -113 45t-45 116zM385 152q0 -33 17.5 -53t44.5 -20t45.5 20.5t18.5 52.5q0 30 -18 50t-46 20q-27 0 -44.5 -20t-17.5 -50z" />
    <glyph glyph-name="perthousand.tf" horiz-adv-x="652" 
d="M391 588q0 -66 -46 -109q-45 -42 -113 -42t-113 42t-45 109t45 109t113 42t113 -42q46 -42 46 -109zM171 588q0 -27 17 -44.5t44 -17.5q28 0 46 18t18 46q0 27 -17.5 44.5t-45.5 17.5t-45 -17.5t-17 -46.5zM102 337l548 214v-71l-548 -216v73zM523 291q66 0 107.5 -41
t41.5 -108q0 -68 -41.5 -110t-108.5 -42q-70 0 -119 55q-45 -55 -118 -55q-68 0 -109.5 41.5t-41.5 109.5q0 67 41.5 108.5t108.5 41.5q70 0 118 -56q50 56 121 56zM576 145q0 26 -17.5 43.5t-44.5 17.5t-44.5 -17.5t-17.5 -45.5q0 -29 17.5 -46.5t44.5 -17.5t44.5 18
t17.5 48zM291 77q28 0 46 18.5t18 47.5q0 27 -17.5 44.5t-44.5 17.5q-28 0 -45 -17.5t-17 -46.5q0 -28 16.5 -46t43.5 -18z" />
    <glyph glyph-name="at.ss03" horiz-adv-x="907" 
d="M598 504h63l-54 -255q-13 -64 40 -64q57 0 94 66q39 68 39 166q0 113 -68.5 175.5t-190.5 62.5q-162 0 -267 -118q-105 -117 -105 -298q0 -128 80 -195t230 -67h197l-11 -83h-197q-190 0 -292.5 89t-102.5 249q0 215 137 361q136 145 342 145q156 0 248 -86t92 -226
q0 -131 -70 -228q-69 -96 -163 -96q-86 0 -101 75h-7q-44 -71 -126 -71q-62 0 -96.5 40.5t-34.5 111.5q0 107 59 183q60 75 145 75q71 0 96 -52h6zM426 188q48 0 82 49t34 117q0 41 -17.5 62.5t-47.5 21.5q-47 0 -81 -49q-33 -49 -33 -119q0 -39 17.5 -60.5t45.5 -21.5z" />
    <glyph glyph-name="less_hyphen_hyphen" horiz-adv-x="856" 
d="M761 314v-84h-597l169 -230h-106l-204 273l204 268h106l-169 -227h597z" />
    <glyph glyph-name="uni1F310" horiz-adv-x="1028" 
d="M532 738q198 0 323 -105q126 -103 126 -268t-126 -270t-323 -105t-325 105q-126 105 -126 270t125 269q127 104 326 104zM433 577h196q-35 128 -97 128q-64 0 -99 -128zM665 577h99q-56 90 -153 117q35 -44 54 -117zM451 694q-97 -27 -153 -117h99q19 72 54 117zM336 671
q-87 -35 -140 -94h61q32 56 79 94zM804 577h61q-55 61 -139 94q48 -39 78 -94zM117 383h88q3 83 32 153h-72q-43 -68 -48 -153zM388 536h-112q-30 -70 -33 -153h130q1 85 15 153zM408 383h245q-1 87 -15 153h-215q-13 -66 -15 -153zM689 383h130q-3 83 -33 153h-112
q14 -68 15 -153zM856 383h88q-4 85 -48 153h-72q29 -70 32 -153zM205 344h-87q4 -81 48 -150h71q-27 66 -32 150zM373 344h-130q5 -84 33 -150h112q-14 68 -15 150zM653 344h-245q2 -84 15 -150h215q14 66 15 150zM674 194h111q30 67 34 150h-130q-1 -82 -15 -150zM943 344
h-87q-5 -84 -32 -150h72q42 69 47 150zM255 155h-60q58 -64 138 -95q-46 39 -78 95zM396 155h-99q55 -91 153 -120q-32 43 -54 120zM629 155h-197q17 -62 43 -96.5t57 -34.5q61 0 97 131zM612 35q98 29 153 120h-100q-19 -76 -53 -120zM728 60q83 33 138 95h-60
q-35 -59 -78 -95z" />
    <glyph glyph-name="uni1F441" horiz-adv-x="830" 
d="M68 365q0 165 103 268q104 104 262 104t262 -104q103 -103 103 -268q0 -169 -103 -272t-262 -103t-262 103t-103 272zM134 365q0 -140 85 -226q85 -87 214 -87t214 87q85 86 85 226q0 138 -85 223q-86 87 -214 87q-129 0 -214 -87q-85 -85 -85 -223zM249 366q0 79 53 132
q53 52 131 52q79 0 131 -52q53 -51 53 -132q0 -84 -53 -137q-52 -52 -131 -52t-131 52q-53 53 -53 137zM281 375v-21l143 7l-92 -85l15 -17l83 96l-7 -148h22l-8 148l83 -96l16 17l-93 85l144 -7v21l-144 -6l93 84l-16 16l-83 -94l8 147h-22l7 -147l-83 94l-15 -16l92 -84z
" />
    </font>
</defs>
</svg>
