<?xml version="1.0" standalone="no"?>
<!DOCTYPE svg PUBLIC "-//W3C//DTD SVG 1.1//EN" "http://www.w3.org/Graphics/SVG/1.1/DTD/svg11.dtd" >
<svg xmlns="http://www.w3.org/2000/svg" xmlns:xlink="http://www.w3.org/1999/xlink" version="1.1">
<metadata>
Created by FontForge 20170731 at Tue Jul 10 19:29:45 2018
 By Aleksey,,,
Copyright (c) 2017 by Deni Anggara. All rights reserved.
</metadata>
<defs>
<font id="AllianceNo.2-ExtraBoldItalic" horiz-adv-x="0" >
  <font-face 
    font-family="Alliance No.2 ExtraBold"
    font-weight="800"
    font-style="italic"
    font-stretch="normal"
    units-per-em="1000"
    panose-1="0 0 9 0 0 0 0 0 0 0"
    ascent="793"
    descent="-207"
    x-height="541"
    cap-height="729"
    bbox="-510 -313 2179 1045"
    underline-thickness="50"
    underline-position="-200"
    slope="-8"
    unicode-range="U+000D-FB02"
  />
<missing-glyph horiz-adv-x="644" 
d="M708 0h-644v729h644v-729zM127 666v-604h518v604h-518zM582 125h-392v478h392v-478zM253 540v-351h266v351h-266zM316 252v225h140v-225h-140z" />
    <glyph glyph-name="fi" unicode="fi" horiz-adv-x="694" 
d="M322 541h358l-76 -541h-177l57 399h-182l-57 -399h-176l56 399h-99l20 142h99l3 27l5 32q6 44 22 75q37 73 146 73h163l-18 -137h-134l-7 -43zM511 587l22 161h176l-22 -161h-176z" />
    <glyph glyph-name="fl" unicode="fl" horiz-adv-x="682" 
d="M321 748h375l-105 -748h-177l86 611h-168l-7 -43l-4 -27h102l-19 -141h-102l-57 -400h-176l56 400h-99l19 141h99l4 27l5 32q6 44 22 75q37 73 146 73z" />
    <glyph glyph-name="f_f" unicode="ff" horiz-adv-x="768" 
d="M810 611h-134l-6 -43l-3 -27h101l-20 -142h-102l-56 -399h-177l56 399h-167l-57 -399h-176l56 399h-99l20 142h99l3 27l5 32q6 44 22 75q37 73 146 73h151l-18 -137h-122l-7 -43l-3 -27h168l3 27l5 37q10 54 33 90q35 53 134 53h164z" />
    <glyph glyph-name="f_f_i" unicode="ffi" horiz-adv-x="1040" 
d="M667 541h359l-77 -541h-175l56 399h-184l-56 -399h-177l56 399h-167l-57 -399h-176l56 399h-99l20 142h99l3 27l5 32q6 44 22 75q37 73 146 73h151l-18 -137h-122l-7 -43l-3 -27h168l3 27l5 32q6 50 33 93q33 55 134 55h164l-19 -137h-134l-6 -43zM856 586l22 160h176
l-22 -160h-176z" />
    <glyph glyph-name="f_t" unicode="ft" horiz-adv-x="787" 
d="M778 399h-105l-28 -198l-8 -64h105l-20 -137h-145q-135 0 -116 135l9 66l28 198h-197l-56 -399h-176l56 399h-99l20 142h99l1 8l9 64q19 135 163 135h166l-18 -137h-135l-9 -62l-1 -8h198l23 166h175l-23 -166h104z" />
    <glyph glyph-name="t_i" unicode="ti" horiz-adv-x="669" 
d="M485 586l22 160h176l-22 -160h-176zM314 541h341l-76 -541h-176l56 399h-165l-29 -198l-8 -64h96l-19 -137h-124q-44 0 -79 13q-10 4 -39 33q-8 9 -13 43q-1 6 0 22q1 11 1 19q1 1 3 17l8 54l28 198h-95l20 142h95l23 166h175z" />
    <glyph glyph-name="t_t" unicode="tt" horiz-adv-x="759" 
d="M750 399h-104l-28 -198l-9 -64h104l-19 -137h-133q-91 0 -116 45q-15 29 -15 55q0 19 4 47l8 54l28 198h-175l-29 -198l-8 -64h104l-20 -137h-132q-44 0 -79 13q-10 4 -39 33q-8 9 -13 43q-1 6 0 22q1 11 1 19q1 1 3 17l8 54l28 198h-95l20 142h95l23 166h176l-23 -166
h175l24 166h175l-23 -166h104z" />
    <glyph glyph-name="t_t_i" unicode="tti" horiz-adv-x="1032" 
d="M849 586l22 160h175l-22 -160h-175zM666 541h352l-76 -541h-176l57 399h-177l-28 -198l-9 -64h104l-19 -137h-133q-91 0 -116 45q-15 29 -15 55q0 19 4 47l8 54l28 198h-175l-29 -198l-8 -64h104l-20 -137h-132q-44 0 -79 13q-10 4 -39 33q-8 9 -13 43q-1 6 0 22
q1 11 1 19q1 1 3 17l8 54l28 198h-95l20 142h95l23 166h176l-23 -166h175l24 166h175z" />
    <glyph glyph-name=".notdef" horiz-adv-x="644" 
d="M708 0h-644v729h644v-729zM127 666v-604h518v604h-518zM582 125h-392v478h392v-478zM253 540v-351h266v351h-266zM316 252v225h140v-225h-140z" />
    <glyph glyph-name=".null" 
 />
    <glyph glyph-name="nonmarkingreturn" horiz-adv-x="333" 
 />
    <glyph glyph-name="CR.001" unicode="&#xd;" horiz-adv-x="171" 
 />
    <glyph glyph-name="space" unicode=" " horiz-adv-x="207" 
 />
    <glyph glyph-name="exclam" unicode="!" horiz-adv-x="310" 
d="M196 234h-91l-4 279l29 216h179l-30 -216zM210 0h-186l23 165h187z" />
    <glyph glyph-name="quotedbl" unicode="&#x22;" horiz-adv-x="557" 
d="M281 560l-68 -194h-77l-12 194l24 169h157zM516 560l-68 -194h-76l-14 194l24 169h158z" />
    <glyph glyph-name="numbersign" unicode="#" horiz-adv-x="703" 
d="M693 545l-12 -77h-115l-25 -181h115l-11 -77h-115l-29 -210h-82l29 210l-209 -1l-29 -209h-83l29 209h-116l10 77h117l25 181h-116l11 77h116l29 206h83l-29 -206l209 1l29 205h82l-29 -205h116zM250 286l209 1l25 181l-209 -1z" />
    <glyph glyph-name="dollar" unicode="$" horiz-adv-x="570" 
d="M559 507h-176q8 56 -52 56t-60 -48q3 -24 17.5 -33.5t41.5 -14.5l71 -15q155 -33 155 -163q0 -96 -67 -160q-66 -65 -172 -78l-9 -63h-108l9 65q-90 14 -135.5 70t-33.5 138h177q-11 -72 69 -72q76 0 76 54q-4 20 -14.5 27.5t-44.5 14.5l-74 19q-150 38 -150 160
q0 91 61 153q61 64 159 79l10 66h108l-9 -66q81 -13 121.5 -64.5t29.5 -124.5z" />
    <glyph glyph-name="percent" unicode="%" horiz-adv-x="899" 
d="M91 556q0 79 51 130q51 52 131 52q82 0 133 -52q51 -51 51 -132q0 -79 -52 -131q-51 -52 -132 -52q-79 0 -131 52q-51 53 -51 133zM301 0h-79l463 729h80zM201 557q0 -39 19.5 -62.5t52.5 -23.5t53.5 24t20.5 62q0 36 -20.5 58.5t-53.5 22.5q-32 0 -52 -22.5t-20 -58.5z
M525 175q0 78 50 130q51 52 133 52t131 -52q50 -53 50 -132t-51 -132q-50 -51 -130 -51t-132 52q-51 52 -51 133zM633 176q0 -38 21 -62t54 -24t53.5 24t20.5 62q0 36 -21 59t-53 23q-33 0 -54 -23t-21 -59z" />
    <glyph glyph-name="ampersand" unicode="&#x26;" horiz-adv-x="705" 
d="M623 0h-359q-113 0 -171.5 42.5t-58.5 120.5q0 69 38 128t94 79l1 9q-72 39 -72 128q0 101 74 166q75 66 190 66q53 0 80 -7l-21 -151q-12 4 -46 4q-78 0 -89 -62l-2 -15q-4 -26 13.5 -39.5t51.5 -13.5h82l14 102h174l-14 -102h86l-22 -152h-86l-20 -147h86zM294 156h92
l20 147h-93q-73 0 -83 -61l-4 -29q-4 -27 14 -42t54 -15z" />
    <glyph glyph-name="quotesingle" unicode="'" horiz-adv-x="322" 
d="M281 560l-68 -194h-77l-12 194l24 169h157z" />
    <glyph glyph-name="parenleft" unicode="(" horiz-adv-x="369" 
d="M52 238q0 159 82 308q82 152 210 228h98q-132 -77 -218 -227q-85 -149 -85 -302q0 -114 47 -219q47 -102 128 -158h-98q-78 57 -121 154q-43 99 -43 216z" />
    <glyph glyph-name="parenright" unicode=")" horiz-adv-x="354" 
d="M332 403q0 -158 -82 -309q-82 -149 -210 -226h-98q131 76 217 227t86 302q0 119 -48 219q-47 102 -128 158h98q79 -57 121 -155q44 -102 44 -216z" />
    <glyph glyph-name="asterisk" unicode="*" horiz-adv-x="359" 
d="M94 466l-25 61l114 47l-101 47l43 60l82 -70l4 118h68l-30 -119l102 71l26 -60l-115 -47l102 -47l-44 -61l-82 73l-2 -119h-69l30 119z" />
    <glyph glyph-name="plus" unicode="+" horiz-adv-x="600" 
d="M553 265h-185l-26 -188h-140l27 188h-184l20 135h183l27 191h139l-26 -191h184z" />
    <glyph glyph-name="comma" unicode="," horiz-adv-x="241" 
d="M-28 -172l9 60q52 0 76.5 20.5t30.5 63.5l4 28h-78l25 175h160l-25 -182q-24 -165 -202 -165z" />
    <glyph glyph-name="hyphen" unicode="-" horiz-adv-x="478" 
d="M421 253h-369l13 94h369z" />
    <glyph glyph-name="period" unicode="." horiz-adv-x="285" 
d="M185 0h-161l25 178h161z" />
    <glyph glyph-name="slash" unicode="/" horiz-adv-x="351" 
d="M48 0h-89l370 729h90z" />
    <glyph glyph-name="zero" unicode="0" horiz-adv-x="636" 
d="M43 261q0 212 94 340q95 129 249 129q115 0 175 -69.5t60 -201.5q0 -212 -94 -340q-93 -129 -245 -129q-117 0 -178 69.5t-61 201.5zM258 470l-31 -220q-7 -55 10 -80.5t65 -25.5q46 0 71.5 24.5t33.5 81.5l31 220q8 56 -11 81t-65 25q-49 0 -73 -26t-31 -80z" />
    <glyph glyph-name="one" unicode="1" horiz-adv-x="460" 
d="M231 455h-188l19 137h31q70 0 121.5 35.5t64.5 93.5h168l-101 -721h-179z" />
    <glyph glyph-name="two" unicode="2" horiz-adv-x="599" 
d="M440 280l-139 -125l78 2h171l-22 -157h-507l17 120l301 279q56 53 60 88l4 25q4 30 -15.5 47.5t-53.5 17.5q-37 0 -63 -21.5t-30 -57.5l-3 -23h-176l3 21q13 102 96 168q82 66 205 66q105 0 165.5 -51t60.5 -138q0 -89 -51 -156q-25 -32 -46 -53q-19 -19 -55 -52z" />
    <glyph glyph-name="three" unicode="3" horiz-adv-x="612" 
d="M283 -10q-126 0 -191 61q-65 62 -50 167h181q-5 -36 16 -56t63 -20q39 0 65.5 17.5t30.5 46.5l5 28q4 31 -14 47t-54 16h-102l19 140h84q36 0 58.5 15.5t25.5 41.5l4 23q4 30 -15 46t-56 16q-39 0 -64 -19.5t-30 -55.5h-181q13 102 96 164t208 62q106 0 168 -45t62 -123
q0 -60 -31 -107t-88 -73l-1 -6q91 -39 91 -140q0 -109 -84 -178q-85 -68 -216 -68z" />
    <glyph glyph-name="four" unicode="4" horiz-adv-x="641" 
d="M595 721l-62 -440h85l-21 -146h-84l-19 -135h-180l19 135h-322l18 133l302 453h264zM391 548l-178 -267h140z" />
    <glyph glyph-name="five" unicode="5" horiz-adv-x="615" 
d="M40 228h182q-5 -37 18 -59.5t65 -22.5q43 0 70.5 21t32.5 56l6 41q6 35 -16.5 55t-65.5 20q-34 0 -61.5 -15.5t-38.5 -41.5h-171l82 439h462l-23 -156h-303l-19 -103l7 -2q43 28 121 28q97 0 152.5 -54t55.5 -145q0 -132 -89 -216q-89 -83 -227 -83q-123 0 -190 65
q-65 67 -50 173z" />
    <glyph glyph-name="six" unicode="6" horiz-adv-x="623" 
d="M43 263q0 212 94 339q95 128 252 128q106 0 167 -52t59 -141h-182q-8 44 -70 44q-110 0 -123 -152h8q49 61 147 61q91 0 144.5 -53t53.5 -143q0 -132 -87 -218q-86 -85 -221 -85q-119 0 -180.5 69.5t-61.5 202.5zM236 269l-7 -47q-5 -36 16.5 -56t61.5 -20q41 0 68 20
t32 56l7 47q5 37 -16.5 57t-61.5 20q-42 0 -68.5 -20.5t-31.5 -56.5z" />
    <glyph glyph-name="seven" unicode="7" horiz-adv-x="566" 
d="M180 452h-143l38 269h537l-18 -130q-117 -132 -212 -288q-96 -157 -138 -303h-193q37 139 126 289q87 148 200 276h-182z" />
    <glyph glyph-name="eight" unicode="8" horiz-adv-x="616" 
d="M268 -10q-119 0 -183 46.5t-64 128.5q0 64 33 115t93 77l1 8q-81 41 -81 129q0 108 84 172q83 64 224 64q119 0 183 -46t64 -128q0 -64 -33.5 -115t-92.5 -76l-1 -8q80 -39 80 -130q0 -108 -83 -173q-82 -64 -224 -64zM331 434q91 0 100 64l2 16q6 32 -15.5 47.5
t-65.5 15.5q-90 0 -100 -63l-2 -16q-5 -31 16 -47.5t65 -16.5zM291 144q90 0 99 66l3 17q5 31 -16.5 46.5t-65.5 15.5q-88 0 -99 -62l-2 -17q-5 -32 15 -49t66 -17z" />
    <glyph glyph-name="nine" unicode="9" horiz-adv-x="617" 
d="M603 458q0 -212 -95 -340q-94 -127 -250 -127q-107 0 -168 52t-59 141h182q8 -44 70 -44q55 0 86 40t36 112h-7q-49 -61 -147 -61q-91 0 -144 52.5t-53 143.5q0 131 86 217q88 86 221 86q119 0 180.5 -69.5t61.5 -202.5zM410 452l6 47q6 36 -15 56t-62 20t-68 -20
t-32 -56l-7 -47q-6 -36 16 -56.5t63 -20.5q87 0 99 77z" />
    <glyph glyph-name="colon" unicode=":" horiz-adv-x="285" 
d="M237 377h-161l23 164h161zM184 0h-161l23 164h161z" />
    <glyph glyph-name="semicolon" unicode=";" horiz-adv-x="264" 
d="M227 377h-161l23 164h161zM-27 -170l7 56q52 0 76 18.5t30 58.5l5 37h-78l23 164h161l-25 -180q-22 -154 -199 -154z" />
    <glyph glyph-name="less" unicode="&#x3c;" horiz-adv-x="514" 
d="M437 174l-23 -166l-370 214l19 130l429 216l-22 -161l-136 -60l-140 -56l-1 -10l130 -53z" />
    <glyph glyph-name="equal" unicode="=" horiz-adv-x="537" 
d="M477 336h-398l19 141h398zM446 117h-398l20 140h398z" />
    <glyph glyph-name="greater" unicode="&#x3e;" horiz-adv-x="514" 
d="M456 222l-430 -214l24 166l127 54l147 53l1 10l-123 56l-120 60l23 161l369 -216z" />
    <glyph glyph-name="question" unicode="?" horiz-adv-x="597" 
d="M361 217h-167l28 199q16 -9 66 -9q62 0 99 30t37 80q0 34 -23 52.5t-64 18.5q-39 0 -68 -18.5t-39 -50.5h-172q23 104 104 161.5t200 57.5q115 0 177.5 -52t62.5 -145q0 -102 -68 -173q-69 -72 -164 -88zM331 0h-170l23 162h171z" />
    <glyph glyph-name="at" unicode="@" horiz-adv-x="984" 
d="M823 -69h-757l104 740h757l-77 -551h-208q-80 0 -87 57v6h-6q-37 -52 -117 -52q-61 0 -92.5 35t-31.5 100q0 98 49 159t128 61q36 0 64.5 -13t39.5 -35h3l7 44h91l-38 -266h96l50 346h-519l-74 -523h633zM545 294l4 29q5 30 -8.5 47t-41.5 17q-63 0 -72 -66l-4 -25
q-4 -31 9.5 -48.5t42.5 -17.5q59 0 70 64z" />
    <glyph glyph-name="A" unicode="A" horiz-adv-x="727" 
d="M692 0h-200l-20 110h-264l-51 -110h-198l353 729h218zM307 321l-32 -68h172l-12 68l-29 211h-6z" />
    <glyph glyph-name="B" unicode="B" horiz-adv-x="719" 
d="M417 0h-386l102 729h386q88 0 139.5 -42.5t51.5 -114.5q0 -66 -34 -116.5t-93 -72.5l-1 -9q101 -27 101 -138q0 -104 -75 -170q-74 -66 -191 -66zM296 593l-22 -154h159q33 0 53 15.5t24 42.5l5 39q4 27 -13 42t-50 15h-156zM255 306l-23 -170h158q85 0 94 69l5 31
q5 37 -12.5 53.5t-57.5 16.5h-164z" />
    <glyph glyph-name="C" unicode="C" horiz-adv-x="755" 
d="M343 -10q-145 0 -224.5 78.5t-79.5 219.5q0 197 116 324q117 126 301 126q144 0 226 -75q83 -74 72 -199h-194q-2 52 -37.5 82t-97.5 30q-70 0 -117.5 -41t-57.5 -112l-17 -122q-9 -68 26.5 -108.5t106.5 -40.5q58 0 102.5 30t63.5 83h195q-32 -126 -136 -201
q-104 -74 -248 -74z" />
    <glyph glyph-name="D" unicode="D" horiz-adv-x="754" 
d="M349 0h-318l102 729h318q293 0 293 -275q0 -214 -105 -334t-290 -120zM297 570l-57 -411h126q82 0 119 32.5t48 109.5l17 127q11 79 -19 110.5t-108 31.5h-126z" />
    <glyph glyph-name="E" unicode="E" horiz-adv-x="640" 
d="M558 0h-527l102 729h527l-23 -159h-340l-15 -117h287l-21 -149h-288l-20 -145h340z" />
    <glyph glyph-name="F" unicode="F" horiz-adv-x="620" 
d="M218 0h-187l102 729h530l-22 -159h-344l-23 -171h303l-21 -151h-304z" />
    <glyph glyph-name="G" unicode="G" horiz-adv-x="808" 
d="M38 281q0 205 115 330q115 127 303 127q134 0 213 -66q82 -66 80 -173h-194q-8 36 -40.5 56.5t-83.5 20.5q-75 0 -123.5 -43t-58.5 -116l-16 -116q-10 -73 28 -115.5t114 -42.5q64 0 113.5 32.5t64.5 84.5h-205l21 146h402l-57 -406h-152l3 87h-7q-36 -47 -99.5 -72
t-139.5 -25q-134 0 -207.5 76.5t-73.5 214.5z" />
    <glyph glyph-name="H" unicode="H" horiz-adv-x="809" 
d="M218 0h-187l102 729h187l-40 -286h298l40 286h187l-102 -729h-187l42 297h-299z" />
    <glyph glyph-name="I" unicode="I" horiz-adv-x="324" 
d="M320 729l-102 -729h-187l102 729h187z" />
    <glyph glyph-name="J" unicode="J" horiz-adv-x="427" 
d="M182 305l59 424h187l-59 -424l-23 -158q-7 -45 -19 -71q-31 -71 -148 -76h-202l23 161h162z" />
    <glyph glyph-name="K" unicode="K" horiz-adv-x="743" 
d="M565 729h229l-307 -315l215 -414h-226l-138 262l-97 -100l-23 -162h-187l102 729h187l-43 -304z" />
    <glyph glyph-name="L" unicode="L" horiz-adv-x="573" 
d="M498 0h-467l102 729h187l-79 -564h280z" />
    <glyph glyph-name="M" unicode="M" horiz-adv-x="919" 
d="M213 0h-182l102 729h230l108 -364h7l208 364h229l-102 -729h-180l38 275l38 196h-7l-278 -461l-147 461h-8l-17 -198z" />
    <glyph glyph-name="N" unicode="N" horiz-adv-x="793" 
d="M218 0h-187l102 729h213l196 -463h7l18 205l36 258h185l-102 -729h-213l-194 458h-7l-18 -198z" />
    <glyph glyph-name="O" unicode="O" horiz-adv-x="781" 
d="M39 292q0 192 119 319q118 127 299 127q143 0 228 -83q84 -82 84 -223q0 -193 -118 -317q-119 -125 -299 -125q-148 0 -230 81q-83 83 -83 221zM249 416l-15 -104q-11 -74 27 -117t113 -43q76 0 125.5 43t60.5 117l15 104q10 75 -28 117.5t-113 42.5q-76 0 -125 -43
t-60 -117z" />
    <glyph glyph-name="P" unicode="P" horiz-adv-x="692" 
d="M218 0h-187l102 729h352q107 0 163.5 -52t56.5 -149q0 -136 -80 -219t-210 -83h-166zM297 564l-26 -186h137q40 0 64 19.5t28 50.5l7 48q4 33 -15.5 50.5t-58.5 17.5h-136z" />
    <glyph glyph-name="Q" unicode="Q" horiz-adv-x="781" 
d="M769 432q0 -166 -90 -284q-89 -117 -235 -149l-10 -68h109l-17 -129h-140q-41 0 -69 10.5t-40 24t-17 36.5t-4.5 36t3.5 35q1 2 1 5l7 49q-108 22 -168 99.5t-60 194.5q0 192 119 319q118 127 299 127q143 0 228 -83q84 -82 84 -223zM249 416l-15 -104q-11 -74 27 -117
t113 -43q76 0 125.5 43t60.5 117l15 104q10 75 -28 117.5t-113 42.5q-76 0 -125 -43t-60 -117z" />
    <glyph glyph-name="R" unicode="R" horiz-adv-x="726" 
d="M218 0h-187l102 729h384q97 0 147.5 -45.5t50.5 -127.5q0 -77 -38.5 -135.5t-104.5 -80.5l-1 -8h23q92 0 79 -102l-33 -230h-191l35 249h-232zM297 570l-24 -174h143q39 0 62.5 18t27.5 49l6 40q5 32 -14 49.5t-57 17.5h-144z" />
    <glyph glyph-name="S" unicode="S" horiz-adv-x="674" 
d="M31 230h194q-5 -43 25.5 -67.5t87.5 -24.5q51 0 82 22t31 58q0 20 -15 32q-4 4 -7.5 6.5t-7.5 4.5t-6.5 3.5t-8 3t-8 2t-10.5 2t-12 2.5l-103 22q-57 13 -94 28q-94 39 -99 147q0 117 92 192q91 75 235 75q129 0 201 -60t60 -159h-194q3 35 -22.5 54.5t-70.5 19.5
q-44 0 -70.5 -19t-26.5 -50q0 -19 23 -38q18 -9 31 -11q3 0 15 -3t14 -3l111 -22q176 -35 176 -178q0 -125 -95 -202t-249 -77q-142 0 -218 66q-75 67 -61 174z" />
    <glyph glyph-name="T" unicode="T" horiz-adv-x="581" 
d="M71 729h567l-22 -161h-193l-80 -568h-186l79 568h-187z" />
    <glyph glyph-name="U" unicode="U" horiz-adv-x="770" 
d="M83 282l64 447h185l-61 -436q-9 -66 21.5 -102t96.5 -36q64 0 104.5 36t50.5 102l62 436h185l-63 -447q-20 -138 -118 -215q-100 -77 -246 -77q-157 0 -228.5 77t-52.5 215z" />
    <glyph glyph-name="V" unicode="V" horiz-adv-x="745" 
d="M452 0h-234l-152 729h209l50 -282l31 -260h8l107 260l128 282h208z" />
    <glyph glyph-name="W" unicode="W" horiz-adv-x="1009" 
d="M116 0l-46 729h202l8 -344v-181h8l164 525h228l20 -527h8l48 180l102 347h209l-250 -729h-254l-24 476h-8l-160 -476h-255z" />
    <glyph glyph-name="X" unicode="X" horiz-adv-x="728" 
d="M212 0h-235l252 363l-162 367h226l49 -133l42 -126h7l73 124l84 135h235l-256 -367l162 -363h-228l-40 105l-49 141h-7l-87 -142z" />
    <glyph glyph-name="Y" unicode="Y" horiz-adv-x="728" 
d="M270 273l-206 456h215l46 -138l52 -154h8l95 151l87 141h226l-336 -456l-38 -273h-186z" />
    <glyph glyph-name="Z" unicode="Z" horiz-adv-x="590" 
d="M84 729h547l-21 -152l-375 -418h311l-22 -159h-542l21 153l374 416h-315z" />
    <glyph glyph-name="bracketleft" unicode="[" horiz-adv-x="310" 
d="M213 -238h-197l145 1033h197l-11 -75h-115l-125 -887h115z" />
    <glyph glyph-name="backslash" unicode="\" horiz-adv-x="352" 
d="M151 729l166 -729h-90l-166 729h90z" />
    <glyph glyph-name="bracketright" unicode="]" horiz-adv-x="310" 
d="M151 -238h-197l9 71h117l125 887h-117l11 75h197z" />
    <glyph glyph-name="asciicircum" unicode="^" horiz-adv-x="460" 
d="M467 469h-134l-56 126l-94 -126h-134l191 260h111z" />
    <glyph glyph-name="underscore" unicode="_" horiz-adv-x="355" 
d="M307 -89h-359l12 89h360z" />
    <glyph glyph-name="grave" unicode="`" horiz-adv-x="412" 
d="M441 793l-65 -80l-220 136l88 114z" />
    <glyph glyph-name="a" unicode="a" horiz-adv-x="590" 
d="M0 126q0 89 61 144q62 56 160 56h129l5 32q5 29 -11.5 45t-50.5 16q-30 0 -50.5 -15.5t-25.5 -40.5h-174q20 87 94 137.5t184 50.5q117 0 169 -55t38 -161l-30 -215h56l-18 -120h-88q-40 0 -70 10q-34 13 -34 67v11h-10q-20 -44 -69 -71t-111 -27q-71 0 -112.5 37
t-41.5 99zM183 181l-2 -19q-3 -20 10.5 -30.5t39.5 -10.5q42 0 71 24.5t33 63.5l1 11h-94q-24 0 -40.5 -10.5t-18.5 -28.5z" />
    <glyph glyph-name="b" unicode="b" horiz-adv-x="654" 
d="M168 0h-153l105 748h176l-43 -305h10q27 51 75.5 79.5t111.5 28.5q88 0 136.5 -55.5t48.5 -157.5q0 -153 -73 -250q-74 -98 -186 -98q-60 0 -103.5 28t-58.5 79h-9zM231 289l-5 -38q-6 -57 20 -88.5t80 -31.5q105 0 120 100l11 78q13 100 -93 100q-54 0 -90 -32.5
t-43 -87.5z" />
    <glyph glyph-name="c" unicode="c" horiz-adv-x="573" 
d="M370 204h174q-24 -101 -101 -157.5t-188 -56.5q-112 0 -173.5 58.5t-61.5 164.5q0 150 88 244t228 94q109 0 170.5 -58t56.5 -155h-173q0 34 -21 52t-59 18q-42 0 -68.5 -24.5t-32.5 -67.5l-14 -95q-6 -43 15 -66t62 -23q38 0 64 19t34 53z" />
    <glyph glyph-name="d" unicode="d" horiz-adv-x="655" 
d="M202 -10q-87 0 -135 55.5t-48 155.5q0 154 73 251q74 98 188 98q64 0 105.5 -28.5t56.5 -78.5h9l43 305h176l-105 -748h-153l-9 97h-10q-30 -51 -81 -79t-110 -28zM290 131q56 0 92 32.5t42 87.5l5 37q8 56 -18.5 88t-80.5 32q-108 0 -121 -100l-10 -77q-13 -100 91 -100
z" />
    <glyph glyph-name="e" unicode="e" horiz-adv-x="581" 
d="M21 215q0 147 87 242q88 94 226 94q105 0 166.5 -55t61.5 -152q0 -48 -18 -115h-345l-4 -28q-5 -35 17.5 -56.5t61.5 -21.5q72 0 97 49h173q-26 -83 -104 -133q-77 -49 -183 -49q-113 0 -174.5 59.5t-61.5 165.5zM217 348v-6h175v6q1 33 -20 52t-59 19q-40 0 -67.5 -20
t-28.5 -51z" />
    <glyph glyph-name="f" unicode="f" horiz-adv-x="424" 
d="M466 611h-135l-9 -62l-1 -8h103l-20 -142h-103l-56 -399h-176l56 399h-99l20 142h99l1 8l9 64q19 135 163 135h166z" />
    <glyph glyph-name="g" unicode="g" horiz-adv-x="566" 
d="M595 661l-20 -137h-99l-4 -28q43 -39 43 -101q0 -88 -70 -143q-70 -56 -179 -56q-28 0 -60 5q-25 -10 -25 -34q0 -27 58 -27h111q82 0 126 -35t44 -97q0 -99 -83 -151t-240 -52q-232 0 -232 110q0 42 26 74t71 45l1 8q-49 19 -49 72q0 37 26.5 68.5t70.5 45.5l1 8
q-66 38 -66 115q0 88 70 143q70 57 179 57q45 0 84 -10l3 19q7 52 38.5 76.5t94.5 24.5h80zM343 363l3 22q4 22 -12 35t-45 13q-28 0 -46.5 -12.5t-21.5 -35.5l-4 -22q-3 -22 12.5 -35t43.5 -13q29 0 47.5 13t22.5 35zM301 4h-110q-55 0 -55 -40q0 -36 91 -36q115 0 115 52
q0 24 -41 24z" />
    <glyph glyph-name="h" unicode="h" horiz-adv-x="647" 
d="M191 0h-176l105 748h176l-43 -304h10q65 107 191 107q92 0 130 -60.5t23 -168.5l-45 -322h-177l42 304q15 104 -75 104q-48 0 -80 -32t-40 -87z" />
    <glyph glyph-name="i" unicode="i" horiz-adv-x="281" 
d="M274 586h-176l22 162h175zM191 0h-176l76 541h175z" />
    <glyph glyph-name="j" unicode="j" horiz-adv-x="286" 
d="M102 586l23 162h176l-23 -162h-176zM15 -30l16 113l65 458h175l-65 -458l-15 -103q-6 -42 -19 -70q-15 -35 -49 -54t-98 -23h-134l19 137h105z" />
    <glyph glyph-name="k" unicode="k" horiz-adv-x="619" 
d="M431 541h220l-230 -210l165 -331h-196l-104 208l-72 -66l-20 -142h-179l105 748h178l-53 -380z" />
    <glyph glyph-name="l" unicode="l" horiz-adv-x="281" 
d="M191 0h-176l105 748h175z" />
    <glyph glyph-name="m" unicode="m" horiz-adv-x="944" 
d="M191 0h-176l76 541h153l9 -99h10q31 57 69.5 83t95.5 26q114 0 140 -108h11q63 108 181 108q87 0 123 -60.5t21 -168.5l-45 -322h-176l42 303q15 105 -57 105q-41 0 -67.5 -27.5t-32.5 -73.5l-43 -307h-177l43 307q15 101 -59 101q-39 0 -65 -26.5t-32 -70.5z" />
    <glyph glyph-name="n" unicode="n" horiz-adv-x="646" 
d="M191 0h-176l76 541h154l9 -99h9q64 109 191 109q92 0 129.5 -60.5t22.5 -169.5l-45 -321h-176l42 303q15 105 -74 105q-49 0 -81.5 -33t-40.5 -89z" />
    <glyph glyph-name="o" unicode="o" horiz-adv-x="597" 
d="M20 218q0 145 89 239q88 94 229 94q111 0 175.5 -60t64.5 -167q0 -146 -90 -240q-88 -94 -228 -94q-111 0 -175.5 60.5t-64.5 167.5zM209 313l-12 -86q-14 -95 83 -95q47 0 75 24.5t34 70.5l12 86q14 95 -82 95t-110 -95z" />
    <glyph glyph-name="p" unicode="p" horiz-adv-x="655" 
d="M167 -167h-176l100 708h152l10 -97h9q30 51 81.5 79t110.5 28q87 0 134.5 -56t47.5 -156q0 -152 -74 -250t-187 -98q-65 0 -106 28.5t-56 78.5h-9zM325 132q50 0 82 25.5t39 75.5l11 77q12 99 -92 99q-55 0 -90.5 -31t-43.5 -88l-6 -37q-8 -56 19 -88.5t81 -32.5z" />
    <glyph glyph-name="q" unicode="q" horiz-adv-x="654" 
d="M487 541h153l-100 -708h-176l37 264h-9q-27 -50 -76 -78.5t-111 -28.5q-88 0 -136.5 55.5t-48.5 157.5q0 153 73 250q74 98 186 98q60 0 103.5 -28t58.5 -79h10zM424 252l4 38q7 55 -19 87t-80 32q-107 0 -120 -99l-11 -78q-13 -101 93 -101q52 0 88.5 32.5t44.5 88.5z
" />
    <glyph glyph-name="r" unicode="r" horiz-adv-x="387" 
d="M237 541h183l-19 -142h-154l-15 -104l-41 -295h-176l41 295l14 99q11 61 36 96q36 51 131 51z" />
    <glyph glyph-name="s" unicode="s" horiz-adv-x="540" 
d="M23 172h173q-7 -59 67 -59q32 0 50.5 13t18.5 36q0 26 -44 34l-88 15q-143 26 -143 135q0 93 70 148q71 57 188 57q106 0 162.5 -46.5t48.5 -125.5h-174q4 24 -11 36.5t-45 12.5q-27 0 -43.5 -13t-16.5 -33q0 -18 13.5 -25.5t44.5 -11.5l87 -14q134 -21 134 -131
q0 -94 -75 -153q-74 -57 -196 -57q-115 0 -174 50t-47 132z" />
    <glyph glyph-name="t" unicode="t" horiz-adv-x="408" 
d="M398 399h-104l-29 -198l-8 -64h105l-20 -137h-144q-136 0 -117 135l9 66l29 198h-95l20 142h95l23 166h175l-23 -166h105z" />
    <glyph glyph-name="u" unicode="u" horiz-adv-x="641" 
d="M464 541h176l-76 -541h-155l-7 99h-11q-64 -109 -188 -109q-89 0 -127 57t-24 158l47 336h177l-43 -308q-14 -101 72 -101q47 0 79 33.5t40 89.5z" />
    <glyph glyph-name="v" unicode="v" horiz-adv-x="559" 
d="M132 0l-103 541h184l21 -204l20 -190h6l71 189l79 205h196l-254 -541h-220z" />
    <glyph glyph-name="w" unicode="w" horiz-adv-x="812" 
d="M599 336l72 205h174l-209 -541h-213l-9 212l-2 105h-6l-31 -104l-67 -213h-209l-57 541h166l10 -203l7 -162h9l110 365h192l6 -367h5z" />
    <glyph glyph-name="x" unicode="x" horiz-adv-x="556" 
d="M146 0h-183l193 268l-123 273h185l70 -173h8l114 173h183l-192 -267l122 -274h-185l-70 172h-8z" />
    <glyph glyph-name="y" unicode="y" horiz-adv-x="588" 
d="M178 76l-153 465h179l39 -159l33 -157h6l80 158l85 158h188l-282 -465l-14 -96q-7 -52 -33 -93q-32 -54 -133 -54h-143l19 137h114z" />
    <glyph glyph-name="z" unicode="z" horiz-adv-x="495" 
d="M68 541h431l-17 -124l-254 -276h220l-20 -141h-433l17 126l252 273h-216z" />
    <glyph glyph-name="braceleft" unicode="{" horiz-adv-x="341" 
d="M50 242l11 77q35 0 56.5 20.5t26.5 55.5l43 309q6 42 33 66.5t71 24.5h99l-11 -75h-106l-45 -319q-7 -49 -31.5 -79t-63.5 -37v-3q75 -23 62 -118l-46 -331h106l-10 -71h-99q-43 0 -63.5 23.5t-14.5 67.5l44 316q11 73 -62 73z" />
    <glyph glyph-name="bar" unicode="|" horiz-adv-x="298" 
d="M174 -55h-145l114 808h145z" />
    <glyph glyph-name="braceright" unicode="}" horiz-adv-x="341" 
d="M293 319l-10 -77q-74 0 -84 -73l-44 -316q-6 -43 -32.5 -67t-69.5 -24h-99l9 71h105l48 331q15 97 97 118v3q-78 15 -64 116l44 319h-105l11 75h99q42 0 62.5 -24.5t14.5 -66.5l-44 -309q-5 -34 11 -55t51 -21z" />
    <glyph glyph-name="asciitilde" unicode="~" horiz-adv-x="449" 
d="M91 256h-77q6 86 45.5 131t96.5 45q40 0 86 -31q46 -30 75 -30q54 0 63 66h77q-8 -93 -50 -135q-43 -43 -96 -43q-43 0 -98 31t-70 31q-22 0 -36 -18t-16 -47z" />
    <glyph glyph-name="uni00A0" unicode="&#xa0;" horiz-adv-x="207" 
 />
    <glyph glyph-name="exclamdown" unicode="&#xa1;" horiz-adv-x="310" 
d="M103 563l23 166h186l-23 -166h-186zM59 216l83 279h91l5 -279l-31 -216h-179z" />
    <glyph glyph-name="cent" unicode="&#xa2;" horiz-adv-x="572" 
d="M561 423h-173q2 28 -15 44t-49 16q-73 0 -84 -77l-12 -84q-10 -75 63 -75q66 0 80 59h172q-17 -80 -75 -131.5t-143 -63.5l-11 -81h-108l11 81q-78 14 -120.5 67t-42.5 135q0 120 64 202q65 83 170 102l12 82h108l-12 -80q84 -12 127 -63.5t38 -132.5z" />
    <glyph glyph-name="sterling" unicode="&#xa3;" horiz-adv-x="656" 
d="M376 582q-70 0 -81 -78l-9 -67h220l-20 -140h-220l-21 -147h197l13 89h150l-13 -89h1l-22 -150h-594l22 150h65l21 147h-66l20 140h66l9 67q17 108 94 170q77 64 193 64q105 0 163 -57q59 -58 52 -150h-181q-3 51 -59 51z" />
    <glyph glyph-name="currency" unicode="&#xa4;" horiz-adv-x="595" 
d="M75 50l-70 83l91 74q-38 63 -28 132t65 132l-71 74l95 84l61 -85q134 70 243 3l82 82l68 -85l-83 -69q35 -56 26 -131q-9 -74 -65 -141l65 -71l-90 -82l-60 84q-134 -72 -243 3zM220 327q-1 -36 20.5 -59.5t55.5 -23.5q43 1 73 34q31 32 31 78q0 35 -22 56.5t-56 21.5
q-40 0 -70.5 -31.5t-31.5 -75.5z" />
    <glyph glyph-name="yen" unicode="&#xa5;" horiz-adv-x="710" 
d="M557 729h218l-228 -323h62l-20 -140h-141l-6 -43h141l-20 -140h-141l-12 -83h-185l12 83h-142l20 140h142l6 43h-142l20 140h62l-139 323h219l62 -195l26 -110h9l59 110z" />
    <glyph glyph-name="brokenbar" unicode="&#xa6;" horiz-adv-x="298" 
d="M235 381h-145l53 372h145zM173 -62h-145l51 360h145z" />
    <glyph glyph-name="section" unicode="&#xa7;" horiz-adv-x="577" 
d="M45 305q0 57 38 98.5t100 51.5l2 9q-69 27 -69 93q0 79 72 130t184 51q97 0 151 -44t46 -116h-181q1 16 -9 23t-27 7q-36 0 -36 -29q0 -18 38 -29l81 -29q50 -17 84 -40q44 -30 44 -88q0 -50 -27.5 -89t-77.5 -59l-1 -10q27 -10 43 -37.5t16 -62.5q0 -83 -74 -136
t-192 -53q-102 0 -159 41.5t-53 113.5h188q1 -28 36 -28q23 0 37 10t14 28q0 20 -40 33l-126 43q-32 12 -60 31q-42 30 -42 87zM278 324l50 -21l38 -14q14 23 14 40q0 13 -9 22q-10 11 -38 22l-31 14q-23 6 -41 16q-20 -15 -20 -40q0 -26 37 -39z" />
    <glyph glyph-name="dieresis" unicode="&#xa8;" horiz-adv-x="424" 
d="M231 731h-132l22 155h132zM448 731h-133l22 155h133z" />
    <glyph glyph-name="copyright" unicode="&#xa9;" horiz-adv-x="955" 
d="M70 342q0 122 60 219q59 97 155.5 149.5t208.5 52.5q111 0 205 -52q97 -52 155 -148q60 -97 60 -219q0 -120 -59 -220q-57 -97 -153 -151t-208 -54t-207 52t-157 150q-60 97 -60 221zM494 -41q157 0 267 107q110 108 110 278q0 166 -110 273t-267 107t-269 -107
q-111 -107 -111 -275q0 -167 111 -275t269 -108zM500 108q-104 0 -171 67t-67 167t67 166q67 67 171 67q91 0 156 -53t66 -130h-110q-4 38 -35 61.5t-77 23.5q-59 0 -93 -38t-34 -99q0 -60 33.5 -97t92.5 -37q46 0 77.5 22.5t35.5 60.5h110q-5 -82 -68 -131
q-65 -50 -154 -50z" />
    <glyph glyph-name="ordfeminine" unicode="&#xaa;" horiz-adv-x="463" 
d="M434 582v-141h37v-99h-56q-87 0 -90 74h-5q-24 -77 -118 -77q-54 0 -87 31.5t-33 82.5q0 57 39.5 90t108.5 33h76v12q0 40 -49 40q-39 0 -46 -30h-124q3 58 51 94.5t128 36.5q82 0 125 -39.5t43 -107.5zM306 485v11h-52q-45 0 -45 -32q0 -29 40 -29q25 0 41 14t16 36z
" />
    <glyph glyph-name="guillemotleft" unicode="&#xab;" horiz-adv-x="571" 
d="M122 56l-89 218l151 216h148l-138 -216l77 -218h-149zM367 56l-88 218l149 216h151l-140 -216l78 -218h-150z" />
    <glyph glyph-name="logicalnot" unicode="&#xac;" horiz-adv-x="569" 
d="M503 141h-135l21 146h-340l19 138h475z" />
    <glyph glyph-name="registered" unicode="&#xae;" horiz-adv-x="613" 
d="M298 208q-104 0 -169 61q-65 62 -65 162q0 129 90 217q90 90 218 90q104 0 169 -62t65 -161q0 -127 -91 -217q-90 -90 -217 -90zM303 248q108 0 185 77t77 185q0 86 -56 139t-142 53q-109 0 -185 -78q-77 -79 -77 -186q0 -85 56 -138q55 -52 142 -52zM284 361h-62l33 237
h126q31 0 48 -15t17 -41q0 -53 -47 -70l-1 -3h8q15 0 22.5 -9.5t5.5 -24.5l-11 -74h-62l10 80h-76zM310 546l-8 -57h47q22 0 27 23l2 13q1 10 -5 15.5t-17 5.5h-46z" />
    <glyph glyph-name="overscore" unicode="&#xaf;" horiz-adv-x="357" 
d="M434 745h-376l18 132h376z" />
    <glyph glyph-name="degree" unicode="&#xb0;" horiz-adv-x="430" 
d="M424 571q0 -69 -47 -116q-46 -46 -119 -46q-71 0 -117 46t-46 116q0 72 46 117q46 46 117 46q73 0 119 -46q47 -45 47 -117zM308 571q0 24 -14 38.5t-36 14.5q-21 0 -34 -14.5t-13 -38.5q0 -21 13.5 -36.5t33.5 -15.5q21 0 35.5 15.5t14.5 36.5z" />
    <glyph glyph-name="plusminus" unicode="&#xb1;" horiz-adv-x="602" 
d="M563 324h-186l-21 -149h-138l20 149h-184l19 134h184l21 146h138l-20 -146h186zM518 0h-509l19 135h509z" />
    <glyph glyph-name="uni00B2" unicode="&#xb2;" horiz-adv-x="459" 
d="M220 412l68 3h162l-16 -115h-391l3 19q9 53 35 101q17 28 41.5 54.5t39.5 38t50 38.5q8 6 30 21t30 21t24.5 19t23 21.5t15.5 21.5t12.5 25.5t3.5 26.5q0 23 -15.5 36t-42.5 13q-33 0 -54 -21t-22 -57h-133q14 89 77 140t153 51q81 0 128.5 -40t47.5 -107q0 -96 -73 -161
q-39 -34 -67 -52q-111 -76 -130 -97z" />
    <glyph glyph-name="uni00B3" unicode="&#xb3;" horiz-adv-x="475" 
d="M248 292q-93 0 -142 49t-37 129h133q-5 -28 13.5 -46.5t52.5 -18.5q36 0 59 22t23 57q0 51 -71 51h-61l14 104h49q41 0 65 19t24 51q0 22 -16 34.5t-43 12.5q-33 0 -55.5 -17.5t-24.5 -45.5h-133q8 80 71 127q64 49 162 49q81 0 128.5 -35.5t47.5 -95.5q0 -47 -25 -84
t-68 -56l-1 -5q71 -32 71 -110q0 -83 -67 -137t-169 -54z" />
    <glyph glyph-name="acute" unicode="&#xb4;" horiz-adv-x="412" 
d="M448 849l-257 -136l-42 80l244 170z" />
    <glyph glyph-name="paragraph" unicode="&#xb6;" horiz-adv-x="683" 
d="M326 729h366l-15 -107h-64l-88 -626q-12 -83 -63 -125.5t-135 -42.5h-275l14 98h135l56 396q-91 0 -142 45t-51 121q0 106 73 173q74 68 189 68zM316 -74h16q67 0 76 63l88 633h-82z" />
    <glyph glyph-name="middot" unicode="&#xb7;" horiz-adv-x="358" 
d="M62 265q0 55 40 95t95 40q45 0 73.5 -27.5t28.5 -70.5q0 -56 -40 -95q-40 -38 -95 -38q-45 0 -73.5 26.5t-28.5 69.5z" />
    <glyph glyph-name="cedilla" unicode="&#xb8;" horiz-adv-x="504" 
d="M274 14l-38 -54q34 1 61 -18t27 -55q0 -50 -40 -84q-39 -35 -93 -39.5t-107 20.5l11 80q41 -27 82 -19q40 7 40 46q0 21 -25 27t-51 -7l6 41l63 84h67z" />
    <glyph glyph-name="uni00B9" unicode="&#xb9;" horiz-adv-x="347" 
d="M207 661h-147l15 101h24q54 0 94 27.5t49 72.5h124l-79 -562h-131z" />
    <glyph glyph-name="ordmasculine" unicode="&#xba;" horiz-adv-x="478" 
d="M278 729q88 0 140 -55q54 -54 54 -141q0 -85 -54 -139q-52 -54 -140 -54q-86 0 -140 54q-53 55 -53 140t53 140q54 55 140 55zM214 534q0 -42 17.5 -67t46.5 -25q30 0 47.5 26t17.5 67t-17.5 66t-47.5 25t-47 -25t-17 -67z" />
    <glyph glyph-name="guillemotright" unicode="&#xbb;" horiz-adv-x="571" 
d="M205 490l87 -216l-149 -218h-150l139 218l-77 216h150zM450 490l87 -216l-149 -218h-150l140 218l-79 216h151z" />
    <glyph glyph-name="onequarter" unicode="&#xbc;" horiz-adv-x="918" 
d="M129 -46l528 814h133l-529 -814h-132zM254 256h-110l43 301h-125l13 87h45q43 0 68.5 22.5t25.5 59.5v3h107zM905 480l-42 -301h46l-13 -96h-46l-12 -83h-108l11 83h-207l12 88l196 309h163zM780 356l-111 -177h86z" />
    <glyph glyph-name="onehalf" unicode="&#xbd;" horiz-adv-x="960" 
d="M129 -46l528 814h133l-529 -814h-132zM254 256h-110l43 301h-125l13 87h45q43 0 68.5 22.5t25.5 59.5v3h107zM716 92l57 3h126l-14 -95h-316l2 16q13 106 101 172q14 11 52.5 38t54.5 40t32.5 36.5t16.5 46.5q0 21 -13 32.5t-34 11.5q-27 0 -45 -19t-21 -50l-109 6
q12 70 65 113t129 43q66 0 103 -33t37 -90q0 -81 -62 -140q-26 -24 -56 -45q-6 -4 -22.5 -16t-25.5 -18.5t-21.5 -16.5t-21.5 -18.5t-15 -16.5z" />
    <glyph glyph-name="threequarters" unicode="&#xbe;" horiz-adv-x="975" 
d="M197 -46l528 814h133l-529 -814h-132zM374 410q0 -70 -54 -116q-52 -46 -132 -46q-75 0 -114.5 41.5t-29.5 107.5h110q-3 -23 10.5 -38.5t35.5 -15.5q26 0 44.5 18t18.5 43q0 20 -14.5 31.5t-36.5 11.5h-44l13 98h30q31 0 49.5 16.5t18.5 42.5q0 36 -42 36
q-24 0 -40.5 -15t-18.5 -39h-110q8 67 58.5 108t128.5 41q65 0 102 -30t37 -79q0 -86 -79 -119v-5q59 -26 59 -92zM972 480l-42 -301h46l-13 -96h-46l-12 -83h-108l11 83h-207l12 88l196 309h163zM847 356l-111 -177h86z" />
    <glyph glyph-name="questiondown" unicode="&#xbf;" horiz-adv-x="597" 
d="M292 729h170l-23 -162h-171zM262 512h167l-28 -199q-17 9 -66 9q-62 0 -99 -30t-37 -80q0 -34 23 -52.5t64 -18.5q39 0 68 18.5t39 50.5h172q-23 -104 -104 -161.5t-200 -57.5q-115 0 -177.5 52t-62.5 145q0 103 67 173q69 72 165 88z" />
    <glyph glyph-name="Agrave" unicode="&#xc0;" horiz-adv-x="727" 
d="M296 1026l197 -170l-65 -80l-220 136zM692 0h-200l-20 110h-264l-51 -110h-198l353 729h218zM307 321l-32 -68h172l-12 68l-29 211h-6z" />
    <glyph glyph-name="Aacute" unicode="&#xc1;" horiz-adv-x="727" 
d="M630 1026l55 -114l-257 -136l-42 80zM692 0h-200l-20 110h-264l-51 -110h-198l353 729h218zM307 321l-32 -68h172l-12 68l-29 211h-6z" />
    <glyph glyph-name="Acircumflex" unicode="&#xc2;" horiz-adv-x="727" 
d="M540 775l-96 122l-130 -122l-72 81l167 142h98l127 -142zM692 0h-200l-20 110h-264l-51 -110h-198l353 729h218zM307 321l-32 -68h172l-12 68l-29 211h-6z" />
    <glyph glyph-name="Atilde" unicode="&#xc3;" horiz-adv-x="727" 
d="M370 807q-30 0 -68 -38l-62 46q58 112 147 110q27 0 61 -19q34 -18 59 -18q14 0 26 5.5t17.5 10t13.5 14.5l9 9l64 -44q-27 -57 -66 -86.5t-82 -28.5q-30 2 -62 20q-34 19 -57 19zM692 0h-200l-20 110h-264l-51 -110h-198l353 729h218zM307 321l-32 -68h172l-12 68
l-29 211h-6z" />
    <glyph glyph-name="Adieresis" unicode="&#xc4;" horiz-adv-x="727" 
d="M275 934h132l-22 -155h-132zM491 934h133l-22 -155h-133zM692 0h-200l-20 110h-264l-51 -110h-198l353 729h218zM307 321l-32 -68h172l-12 68l-29 211h-6z" />
    <glyph glyph-name="Aring" unicode="&#xc5;" horiz-adv-x="727" 
d="M692 0h-200l-20 110h-264l-51 -110h-198l349 720q-13 25 -13 54q0 62 44 106q44 43 110 43q53 0 85 -29t32 -78q0 -55 -34 -95zM438 840q-22 0 -35.5 -15t-13.5 -38q0 -37 36 -37q21 0 35 15.5t14 37.5q0 37 -36 37zM307 321l-32 -68h172l-12 68l-29 211h-6z" />
    <glyph glyph-name="AE" unicode="&#xc6;" horiz-adv-x="999" 
d="M1019 729l-22 -159h-328l-19 -134h276l-21 -148h-276l-18 -129h328l-22 -159h-515l21 152h-206l-65 -152h-193l327 729h733zM279 295h164l39 275h-85z" />
    <glyph glyph-name="Ccedilla" unicode="&#xc7;" horiz-adv-x="755" 
d="M250 423l-17 -122q-9 -68 26.5 -108.5t106.5 -40.5q58 0 102.5 30t63.5 83h195q-30 -123 -132 -198q-103 -74 -242 -77l-22 -31q34 1 61 -18t27 -55q0 -50 -40 -84q-39 -35 -93 -39.5t-107 20.5l11 80q41 -27 82 -19q40 7 40 46q0 21 -25 27t-51 -7l6 41l33 44
q-114 18 -175 94t-61 199q0 197 116 324q117 126 301 126q144 0 226 -75q83 -74 72 -199h-194q-2 52 -37.5 82t-97.5 30q-70 0 -117.5 -41t-57.5 -112z" />
    <glyph glyph-name="Egrave" unicode="&#xc8;" horiz-adv-x="640" 
d="M473 856l-65 -80l-220 136l88 114zM558 0h-527l102 729h527l-23 -159h-340l-15 -117h287l-21 -149h-288l-20 -145h340z" />
    <glyph glyph-name="Eacute" unicode="&#xc9;" horiz-adv-x="640" 
d="M665 912l-257 -136l-42 80l244 170zM558 0h-527l102 729h527l-23 -159h-340l-15 -117h287l-21 -149h-288l-20 -145h340z" />
    <glyph glyph-name="Ecircumflex" unicode="&#xca;" horiz-adv-x="640" 
d="M295 775l-72 81l167 142h98l127 -142l-94 -81l-96 122zM558 0h-527l102 729h527l-23 -159h-340l-15 -117h287l-21 -149h-288l-20 -145h340z" />
    <glyph glyph-name="Edieresis" unicode="&#xcb;" horiz-adv-x="640" 
d="M365 779h-132l22 155h132zM582 779h-133l22 155h133zM558 0h-527l102 729h527l-23 -159h-340l-15 -117h287l-21 -149h-288l-20 -145h340z" />
    <glyph glyph-name="Igrave" unicode="&#xcc;" horiz-adv-x="324" 
d="M298 856l-65 -80l-220 136l88 114zM320 729l-102 -729h-187l102 729h187z" />
    <glyph glyph-name="Iacute" unicode="&#xcd;" horiz-adv-x="324" 
d="M491 912l-257 -136l-42 80l244 170zM320 729l-102 -729h-187l102 729h187z" />
    <glyph glyph-name="Icircumflex" unicode="&#xce;" horiz-adv-x="324" 
d="M120 775l-72 81l167 142h98l127 -142l-94 -81l-96 122zM320 729l-102 -729h-187l102 729h187z" />
    <glyph glyph-name="Idieresis" unicode="&#xcf;" horiz-adv-x="324" 
d="M191 779h-132l22 155h132zM408 779h-133l22 155h133zM320 729l-102 -729h-187l102 729h187z" />
    <glyph glyph-name="Eth" unicode="&#xd0;" horiz-adv-x="754" 
d="M133 729h318q293 0 293 -275q0 -214 -105 -334t-290 -120h-318l43 308h-69l16 126h71zM533 301l17 127q11 79 -19 110.5t-108 31.5h-126l-19 -136h112l-16 -126h-113l-21 -149h126q82 0 119 32.5t48 109.5z" />
    <glyph glyph-name="Ntilde" unicode="&#xd1;" horiz-adv-x="793" 
d="M524 768q-30 2 -62 20q-34 19 -57 19q-30 0 -68 -38l-62 46q58 112 147 110q27 0 61 -19q35 -18 59 -18q14 0 26 5.5t17.5 10t14.5 14.5l8 9l64 -44q-27 -57 -66 -86.5t-82 -28.5zM218 0h-187l102 729h213l196 -463h7l18 205l36 258h185l-102 -729h-213l-194 458h-7
l-18 -198z" />
    <glyph glyph-name="Ograve" unicode="&#xd2;" horiz-adv-x="781" 
d="M526 856l-65 -80l-220 136l88 114zM39 292q0 192 119 319q118 127 299 127q143 0 228 -83q84 -82 84 -223q0 -193 -118 -317q-119 -125 -299 -125q-148 0 -230 81q-83 83 -83 221zM249 416l-15 -104q-11 -74 27 -117t113 -43q76 0 125.5 43t60.5 117l15 104
q10 75 -28 117.5t-113 42.5q-76 0 -125 -43t-60 -117z" />
    <glyph glyph-name="Oacute" unicode="&#xd3;" horiz-adv-x="781" 
d="M719 912l-257 -136l-42 80l244 170zM39 292q0 192 119 319q118 127 299 127q143 0 228 -83q84 -82 84 -223q0 -193 -118 -317q-119 -125 -299 -125q-148 0 -230 81q-83 83 -83 221zM249 416l-15 -104q-11 -74 27 -117t113 -43q76 0 125.5 43t60.5 117l15 104
q10 75 -28 117.5t-113 42.5q-76 0 -125 -43t-60 -117z" />
    <glyph glyph-name="Ocircumflex" unicode="&#xd4;" horiz-adv-x="781" 
d="M348 775l-72 81l167 142h98l127 -142l-94 -81l-96 122zM39 292q0 192 119 319q118 127 299 127q143 0 228 -83q84 -82 84 -223q0 -193 -118 -317q-119 -125 -299 -125q-148 0 -230 81q-83 83 -83 221zM249 416l-15 -104q-11 -74 27 -117t113 -43q76 0 125.5 43t60.5 117
l15 104q10 75 -28 117.5t-113 42.5q-76 0 -125 -43t-60 -117z" />
    <glyph glyph-name="Otilde" unicode="&#xd5;" horiz-adv-x="781" 
d="M523 768q-30 2 -62 20q-34 19 -57 19q-30 0 -68 -38l-62 46q58 112 147 110q27 0 61 -19q35 -18 59 -18q14 0 26 5.5t17.5 10t13.5 14.5l9 9l64 -44q-27 -57 -66 -86.5t-82 -28.5zM39 292q0 192 119 319q118 127 299 127q143 0 228 -83q84 -82 84 -223q0 -193 -118 -317
q-119 -125 -299 -125q-148 0 -230 81q-83 83 -83 221zM249 416l-15 -104q-11 -74 27 -117t113 -43q76 0 125.5 43t60.5 117l15 104q10 75 -28 117.5t-113 42.5q-76 0 -125 -43t-60 -117z" />
    <glyph glyph-name="Odieresis" unicode="&#xd6;" horiz-adv-x="781" 
d="M419 779h-132l22 155h132zM636 779h-133l22 155h133zM39 292q0 192 119 319q118 127 299 127q143 0 228 -83q84 -82 84 -223q0 -193 -118 -317q-119 -125 -299 -125q-148 0 -230 81q-83 83 -83 221zM249 416l-15 -104q-11 -74 27 -117t113 -43q76 0 125.5 43t60.5 117
l15 104q10 75 -28 117.5t-113 42.5q-76 0 -125 -43t-60 -117z" />
    <glyph glyph-name="multiply" unicode="&#xd7;" horiz-adv-x="659" 
d="M108 4l-89 107l210 189l-157 191l119 106l152 -185h13l201 185l90 -106l-209 -191l156 -189l-120 -107l-150 184h-12z" />
    <glyph glyph-name="Oslash" unicode="&#xd8;" horiz-adv-x="781" 
d="M761 677l62 -110l-65 -43q11 -46 11 -92q0 -193 -118 -317q-119 -125 -299 -125q-167 0 -251 104l-64 -42l-52 116l63 41q-9 39 -9 83q0 192 119 319q118 127 299 127q160 0 244 -100zM249 416l-12 -83l308 202q-38 41 -111 41q-76 0 -125 -43t-60 -117zM560 312l13 91
l-314 -206q37 -45 115 -45q76 0 125.5 43t60.5 117z" />
    <glyph glyph-name="Ugrave" unicode="&#xd9;" horiz-adv-x="770" 
d="M540 856l-65 -80l-220 136l88 114zM83 282l64 447h185l-61 -436q-9 -66 21.5 -102t96.5 -36q64 0 104.5 36t50.5 102l62 436h185l-63 -447q-20 -138 -118 -215q-100 -77 -246 -77q-157 0 -228.5 77t-52.5 215z" />
    <glyph glyph-name="Uacute" unicode="&#xda;" horiz-adv-x="770" 
d="M733 912l-257 -136l-42 80l244 170zM83 282l64 447h185l-61 -436q-9 -66 21.5 -102t96.5 -36q64 0 104.5 36t50.5 102l62 436h185l-63 -447q-20 -138 -118 -215q-100 -77 -246 -77q-157 0 -228.5 77t-52.5 215z" />
    <glyph glyph-name="Ucircumflex" unicode="&#xdb;" horiz-adv-x="770" 
d="M362 775l-72 81l167 142h98l127 -142l-94 -81l-96 122zM83 282l64 447h185l-61 -436q-9 -66 21.5 -102t96.5 -36q64 0 104.5 36t50.5 102l62 436h185l-63 -447q-20 -138 -118 -215q-100 -77 -246 -77q-157 0 -228.5 77t-52.5 215z" />
    <glyph glyph-name="Udieresis" unicode="&#xdc;" horiz-adv-x="770" 
d="M433 779h-132l22 155h132zM650 779h-133l22 155h133zM83 282l64 447h185l-61 -436q-9 -66 21.5 -102t96.5 -36q64 0 104.5 36t50.5 102l62 436h185l-63 -447q-20 -138 -118 -215q-100 -77 -246 -77q-157 0 -228.5 77t-52.5 215z" />
    <glyph glyph-name="Yacute" unicode="&#xdd;" horiz-adv-x="728" 
d="M692 912l-257 -136l-42 80l244 170zM270 273l-206 456h215l46 -138l52 -154h8l95 151l87 141h226l-336 -456l-38 -273h-186z" />
    <glyph glyph-name="Thorn" unicode="&#xde;" horiz-adv-x="693" 
d="M304 617h165q107 0 164 -52t57 -149q0 -135 -80 -220q-80 -83 -212 -83h-165l-15 -113h-187l71 510l6 40l9 67l16 112h187zM484 335l6 48q5 33 -14.5 50.5t-58.5 17.5h-136l-26 -185h138q39 0 63 19t28 50z" />
    <glyph glyph-name="germandbls" unicode="&#xdf;" horiz-adv-x="622" 
d="M84 381h-63l19 140h65l1 14q10 98 87 151t185 53q99 0 156.5 -42.5t57.5 -114.5q0 -60 -33 -107t-91 -67l-1 -7q57 -11 90.5 -53.5t33.5 -102.5q0 -111 -80 -179q-79 -66 -212 -66h-54l20 149h45q38 0 63.5 19.5t30.5 52.5l5 37q5 34 -14 53.5t-61 19.5h-37l18 136h21
q24 0 40.5 11.5t20.5 31.5l4 28q3 21 -11 33t-39 12q-56 0 -64 -59l-74 -524h-182z" />
    <glyph glyph-name="agrave" unicode="&#xe0;" horiz-adv-x="590" 
d="M392 677l-65 -80l-220 136l88 114zM0 126q0 89 61 144q62 56 160 56h129l5 32q5 29 -11.5 45t-50.5 16q-30 0 -50.5 -15.5t-25.5 -40.5h-174q20 87 94 137.5t184 50.5q117 0 169 -55t38 -161l-30 -215h56l-18 -120h-88q-40 0 -70 10q-34 13 -34 67v11h-10
q-20 -44 -69 -71t-111 -27q-71 0 -112.5 37t-41.5 99zM183 181l-2 -19q-3 -20 10.5 -30.5t39.5 -10.5q42 0 71 24.5t33 63.5l1 11h-94q-24 0 -40.5 -10.5t-18.5 -28.5z" />
    <glyph glyph-name="aacute" unicode="&#xe1;" horiz-adv-x="590" 
d="M585 733l-257 -136l-42 80l244 170zM0 126q0 89 61 144q62 56 160 56h129l5 32q5 29 -11.5 45t-50.5 16q-30 0 -50.5 -15.5t-25.5 -40.5h-174q20 87 94 137.5t184 50.5q117 0 169 -55t38 -161l-30 -215h56l-18 -120h-88q-40 0 -70 10q-34 13 -34 67v11h-10
q-20 -44 -69 -71t-111 -27q-71 0 -112.5 37t-41.5 99zM183 181l-2 -19q-3 -20 10.5 -30.5t39.5 -10.5q42 0 71 24.5t33 63.5l1 11h-94q-24 0 -40.5 -10.5t-18.5 -28.5z" />
    <glyph glyph-name="acircumflex" unicode="&#xe2;" horiz-adv-x="590" 
d="M214 595l-72 81l167 142h98l127 -142l-94 -81l-96 122zM0 126q0 89 61 144q62 56 160 56h129l5 32q5 29 -11.5 45t-50.5 16q-30 0 -50.5 -15.5t-25.5 -40.5h-174q20 87 94 137.5t184 50.5q117 0 169 -55t38 -161l-30 -215h56l-18 -120h-88q-40 0 -70 10q-34 13 -34 67v11
h-10q-20 -44 -69 -71t-111 -27q-71 0 -112.5 37t-41.5 99zM183 181l-2 -19q-3 -20 10.5 -30.5t39.5 -10.5q42 0 71 24.5t33 63.5l1 11h-94q-24 0 -40.5 -10.5t-18.5 -28.5z" />
    <glyph glyph-name="atilde" unicode="&#xe3;" horiz-adv-x="590" 
d="M389 589q-30 2 -62 20q-34 19 -57 19q-30 0 -68 -38l-62 46q58 112 147 110q27 0 61 -19q35 -18 59 -18q14 0 26 5.5t17.5 10t13.5 13.5l9 10l64 -44q-27 -57 -66 -86.5t-82 -28.5zM0 126q0 89 61 144q62 56 160 56h129l5 32q5 29 -11.5 45t-50.5 16q-30 0 -50.5 -15.5
t-25.5 -40.5h-174q20 87 94 137.5t184 50.5q117 0 169 -55t38 -161l-30 -215h56l-18 -120h-88q-40 0 -70 10q-34 13 -34 67v11h-10q-20 -44 -69 -71t-111 -27q-71 0 -112.5 37t-41.5 99zM183 181l-2 -19q-3 -20 10.5 -30.5t39.5 -10.5q42 0 71 24.5t33 63.5l1 11h-94
q-24 0 -40.5 -10.5t-18.5 -28.5z" />
    <glyph glyph-name="adieresis" unicode="&#xe4;" horiz-adv-x="590" 
d="M285 600h-132l22 155h132zM502 600h-133l22 155h133zM0 126q0 89 61 144q62 56 160 56h129l5 32q5 29 -11.5 45t-50.5 16q-30 0 -50.5 -15.5t-25.5 -40.5h-174q20 87 94 137.5t184 50.5q117 0 169 -55t38 -161l-30 -215h56l-18 -120h-88q-40 0 -70 10q-34 13 -34 67v11
h-10q-20 -44 -69 -71t-111 -27q-71 0 -112.5 37t-41.5 99zM183 181l-2 -19q-3 -20 10.5 -30.5t39.5 -10.5q42 0 71 24.5t33 63.5l1 11h-94q-24 0 -40.5 -10.5t-18.5 -28.5z" />
    <glyph glyph-name="aring" unicode="&#xe5;" horiz-adv-x="590" 
d="M528 335l-30 -215h56l-18 -120h-88q-40 0 -70 10q-34 13 -34 67v11h-10q-20 -44 -69 -71t-111 -27q-71 0 -112.5 37t-41.5 99q0 89 61 144q62 56 160 56h129l5 32q5 29 -11.5 45t-50.5 16q-30 0 -50.5 -15.5t-25.5 -40.5h-174q15 66 64 112.5t123 65.5q-32 29 -32 78
q0 62 44 106q43 43 109 43q53 0 85.5 -29.5t32.5 -77.5q0 -75 -61 -120q142 -37 120 -206zM340 686q-21 0 -35 -15.5t-14 -38.5q0 -37 36 -37q21 0 35 15.5t14 38.5q0 17 -10 27t-26 10zM335 209l1 11h-94q-24 0 -40.5 -10.5t-18.5 -28.5l-2 -19q-3 -20 10.5 -30.5
t39.5 -10.5q42 0 71 24.5t33 63.5z" />
    <glyph glyph-name="ae" unicode="&#xe6;" horiz-adv-x="893" 
d="M166 -10q-78 0 -122 36.5t-44 100.5q0 87 62 143t160 56h121l4 36q4 26 -12 41t-45 15q-27 0 -47.5 -15.5t-25.5 -39.5h-174q21 89 93 138q74 50 173 50q108 0 159 -59q68 59 182 59q105 0 164 -56t59 -153q0 -54 -18 -113h-351q-7 -49 18.5 -76t73.5 -27q34 0 64.5 15.5
t40.5 39.5h157q-26 -87 -103 -139q-76 -52 -178 -52q-73 0 -126.5 29t-69.5 76q-33 -50 -89.5 -77.5t-125.5 -27.5zM521 342h183q4 37 -17 57t-59 20q-39 0 -68 -20.5t-39 -56.5zM226 121q42 2 69 24.5t33 61.5l2 13h-89q-51 0 -58 -39l-3 -19q-3 -20 9.5 -30t36.5 -11z" />
    <glyph glyph-name="ccedilla" unicode="&#xe7;" horiz-adv-x="573" 
d="M209 316l-14 -95q-6 -43 15 -66t62 -23q38 0 64 19t34 53h174q-23 -99 -97.5 -155.5t-182.5 -58.5l-22 -31q34 1 61 -18t27 -55q0 -50 -40 -84q-39 -35 -93 -39.5t-107 20.5l11 80q41 -27 82 -19q40 7 40 46q0 21 -25 27t-51 -7l6 41l34 45q-80 17 -123.5 73t-43.5 144
q0 150 88 244t228 94q109 0 170.5 -58t56.5 -155h-173q0 34 -21 52t-59 18q-42 0 -68.5 -24.5t-32.5 -67.5z" />
    <glyph glyph-name="egrave" unicode="&#xe8;" horiz-adv-x="581" 
d="M406 677l-65 -80l-220 136l88 114zM21 215q0 147 87 242q88 94 226 94q105 0 166.5 -55t61.5 -152q0 -48 -18 -115h-345l-4 -28q-5 -35 17.5 -56.5t61.5 -21.5q72 0 97 49h173q-26 -83 -104 -133q-77 -49 -183 -49q-113 0 -174.5 59.5t-61.5 165.5zM217 348v-6h175v6
q1 33 -20 52t-59 19q-40 0 -67.5 -20t-28.5 -51z" />
    <glyph glyph-name="eacute" unicode="&#xe9;" horiz-adv-x="581" 
d="M598 733l-257 -136l-42 80l244 170zM21 215q0 147 87 242q88 94 226 94q105 0 166.5 -55t61.5 -152q0 -48 -18 -115h-345l-4 -28q-5 -35 17.5 -56.5t61.5 -21.5q72 0 97 49h173q-26 -83 -104 -133q-77 -49 -183 -49q-113 0 -174.5 59.5t-61.5 165.5zM217 348v-6h175v6
q1 33 -20 52t-59 19q-40 0 -67.5 -20t-28.5 -51z" />
    <glyph glyph-name="ecircumflex" unicode="&#xea;" horiz-adv-x="581" 
d="M227 595l-72 81l167 142h98l127 -142l-94 -81l-96 122zM21 215q0 147 87 242q88 94 226 94q105 0 166.5 -55t61.5 -152q0 -48 -18 -115h-345l-4 -28q-5 -35 17.5 -56.5t61.5 -21.5q72 0 97 49h173q-26 -83 -104 -133q-77 -49 -183 -49q-113 0 -174.5 59.5t-61.5 165.5z
M217 348v-6h175v6q1 33 -20 52t-59 19q-40 0 -67.5 -20t-28.5 -51z" />
    <glyph glyph-name="edieresis" unicode="&#xeb;" horiz-adv-x="581" 
d="M298 600h-132l22 155h132zM515 600h-133l22 155h133zM21 215q0 147 87 242q88 94 226 94q105 0 166.5 -55t61.5 -152q0 -48 -18 -115h-345l-4 -28q-5 -35 17.5 -56.5t61.5 -21.5q72 0 97 49h173q-26 -83 -104 -133q-77 -49 -183 -49q-113 0 -174.5 59.5t-61.5 165.5z
M217 348v-6h175v6q1 33 -20 52t-59 19q-40 0 -67.5 -20t-28.5 -51z" />
    <glyph glyph-name="igrave" unicode="&#xec;" horiz-adv-x="280" 
d="M251 669l-65 -80l-220 136l88 114zM191 0h-176l76 541h175z" />
    <glyph glyph-name="iacute" unicode="&#xed;" horiz-adv-x="280" 
d="M443 725l-257 -136l-42 80l244 170zM191 0h-176l76 541h175z" />
    <glyph glyph-name="icircumflex" unicode="&#xee;" horiz-adv-x="280" 
d="M72 588l-72 81l167 142h98l127 -142l-94 -81l-96 122zM191 0h-176l76 541h175z" />
    <glyph glyph-name="idieresis" unicode="&#xef;" horiz-adv-x="280" 
d="M143 592h-132l22 155h132zM360 592h-133l22 155h133zM191 0h-176l76 541h175z" />
    <glyph glyph-name="eth" unicode="&#xf0;" horiz-adv-x="595" 
d="M17 199q0 122 78 200q78 79 199 79q34 0 59 -9l4 5l-35 35l-33 49l-144 -50l17 124l72 25l-51 99h210l18 -38l144 51l-17 -124l-75 -24l38 -75q31 -65 35 -73q10 -23 24 -74t14 -94q0 -138 -91 -226q-89 -88 -229 -88q-111 0 -174 56t-63 152zM210 277l-9 -61
q-5 -38 15.5 -60t62.5 -22t69.5 22t32.5 60l8 61q6 40 -15.5 62t-62.5 22q-42 0 -69 -22.5t-32 -61.5z" />
    <glyph glyph-name="ntilde" unicode="&#xf1;" horiz-adv-x="646" 
d="M522 589q-30 2 -62 20q-34 19 -57 19q-30 0 -68 -38l-62 46q58 112 147 110q27 0 61 -19q35 -18 59 -18q14 0 26 5.5t17.5 10t14.5 13.5l8 10l64 -44q-27 -57 -66 -86.5t-82 -28.5zM191 0h-176l76 541h154l9 -99h9q64 109 191 109q92 0 129.5 -60.5t22.5 -169.5l-45 -321
h-176l42 303q15 105 -74 105q-49 0 -81.5 -33t-40.5 -89z" />
    <glyph glyph-name="ograve" unicode="&#xf2;" horiz-adv-x="597" 
d="M410 677l-65 -80l-220 136l88 114zM20 218q0 145 89 239q88 94 229 94q111 0 175.5 -60t64.5 -167q0 -146 -90 -240q-88 -94 -228 -94q-111 0 -175.5 60.5t-64.5 167.5zM209 313l-12 -86q-14 -95 83 -95q47 0 75 24.5t34 70.5l12 86q14 95 -82 95t-110 -95z" />
    <glyph glyph-name="oacute" unicode="&#xf3;" horiz-adv-x="597" 
d="M602 733l-257 -136l-42 80l244 170zM20 218q0 145 89 239q88 94 229 94q111 0 175.5 -60t64.5 -167q0 -146 -90 -240q-88 -94 -228 -94q-111 0 -175.5 60.5t-64.5 167.5zM209 313l-12 -86q-14 -95 83 -95q47 0 75 24.5t34 70.5l12 86q14 95 -82 95t-110 -95z" />
    <glyph glyph-name="ocircumflex" unicode="&#xf4;" horiz-adv-x="597" 
d="M231 595l-72 81l167 142h98l127 -142l-94 -81l-96 122zM20 218q0 145 89 239q88 94 229 94q111 0 175.5 -60t64.5 -167q0 -146 -90 -240q-88 -94 -228 -94q-111 0 -175.5 60.5t-64.5 167.5zM209 313l-12 -86q-14 -95 83 -95q47 0 75 24.5t34 70.5l12 86q14 95 -82 95
t-110 -95z" />
    <glyph glyph-name="otilde" unicode="&#xf5;" horiz-adv-x="597" 
d="M406 589q-30 2 -62 20q-34 19 -57 19q-30 0 -68 -38l-62 46q58 112 147 110q27 0 61 -19q34 -18 59 -18q14 0 26 5.5t17.5 10t14.5 13.5l8 10l64 -44q-27 -57 -66 -86.5t-82 -28.5zM20 218q0 145 89 239q88 94 229 94q111 0 175.5 -60t64.5 -167q0 -146 -90 -240
q-88 -94 -228 -94q-111 0 -175.5 60.5t-64.5 167.5zM209 313l-12 -86q-14 -95 83 -95q47 0 75 24.5t34 70.5l12 86q14 95 -82 95t-110 -95z" />
    <glyph glyph-name="odieresis" unicode="&#xf6;" horiz-adv-x="597" 
d="M302 600h-132l22 155h132zM519 600h-133l22 155h133zM20 218q0 145 89 239q88 94 229 94q111 0 175.5 -60t64.5 -167q0 -146 -90 -240q-88 -94 -228 -94q-111 0 -175.5 60.5t-64.5 167.5zM209 313l-12 -86q-14 -95 83 -95q47 0 75 24.5t34 70.5l12 86q14 95 -82 95
t-110 -95z" />
    <glyph glyph-name="divide" unicode="&#xf7;" horiz-adv-x="631" 
d="M422 411h-174l24 162h173zM554 219h-492l20 138h492zM364 -1h-173l23 162h173z" />
    <glyph glyph-name="oslash" unicode="&#xf8;" horiz-adv-x="597" 
d="M579 518l50 -91l-92 -61q3 -20 3 -42q0 -146 -90 -240q-88 -94 -228 -94q-108 0 -170 56l-34 -22l-49 90l27 18q-13 35 -13 86q0 145 89 239q88 94 228 94q134 0 199 -86zM171 313l-10 -72l196 130q-18 37 -76 37q-96 0 -110 -95zM351 227l3 18l-159 -104q19 -9 47 -9
q47 0 75 24.5t34 70.5z" />
    <glyph glyph-name="ugrave" unicode="&#xf9;" horiz-adv-x="641" 
d="M442 669l-65 -80l-220 136l88 114zM464 541h176l-76 -541h-155l-7 99h-11q-64 -109 -188 -109q-89 0 -127 57t-24 158l47 336h177l-43 -308q-14 -101 72 -101q47 0 79 33.5t40 89.5z" />
    <glyph glyph-name="uacute" unicode="&#xfa;" horiz-adv-x="641" 
d="M634 725l-257 -136l-42 80l244 170zM464 541h176l-76 -541h-155l-7 99h-11q-64 -109 -188 -109q-89 0 -127 57t-24 158l47 336h177l-43 -308q-14 -101 72 -101q47 0 79 33.5t40 89.5z" />
    <glyph glyph-name="ucircumflex" unicode="&#xfb;" horiz-adv-x="641" 
d="M264 588l-72 81l167 142h98l127 -142l-94 -81l-96 122zM464 541h176l-76 -541h-155l-7 99h-11q-64 -109 -188 -109q-89 0 -127 57t-24 158l47 336h177l-43 -308q-14 -101 72 -101q47 0 79 33.5t40 89.5z" />
    <glyph glyph-name="udieresis" unicode="&#xfc;" horiz-adv-x="641" 
d="M334 592h-132l22 155h132zM551 592h-133l22 155h133zM464 541h176l-76 -541h-155l-7 99h-11q-64 -109 -188 -109q-89 0 -127 57t-24 158l47 336h177l-43 -308q-14 -101 72 -101q47 0 79 33.5t40 89.5z" />
    <glyph glyph-name="yacute" unicode="&#xfd;" horiz-adv-x="588" 
d="M595 727l-257 -136l-42 80l244 170zM178 76l-153 465h179l39 -159l33 -157h6l80 158l85 158h188l-282 -465l-14 -96q-7 -52 -33 -93q-32 -54 -133 -54h-143l19 137h114z" />
    <glyph glyph-name="thorn" unicode="&#xfe;" horiz-adv-x="655" 
d="M167 -167h-176l129 915h176l-43 -304h9q30 51 81.5 79t110.5 28q87 0 134.5 -56t47.5 -156q0 -152 -74 -250t-187 -98q-65 0 -106 28.5t-56 78.5h-9zM325 132q50 0 82 25.5t39 75.5l11 77q12 99 -92 99q-55 0 -90.5 -31t-43.5 -88l-6 -37q-8 -56 19 -88.5t81 -32.5z" />
    <glyph glyph-name="ydieresis" unicode="&#xff;" horiz-adv-x="588" 
d="M295 594h-132l22 155h132zM512 594h-133l22 155h133zM178 76l-153 465h179l39 -159l33 -157h6l80 158l85 158h188l-282 -465l-14 -96q-7 -52 -33 -93q-32 -54 -133 -54h-143l19 137h114z" />
    <glyph glyph-name="Amacron" unicode="&#x100;" horiz-adv-x="727" 
d="M257 910h376l-18 -132h-376zM692 0h-200l-20 110h-264l-51 -110h-198l353 729h218zM307 321l-32 -68h172l-12 68l-29 211h-6z" />
    <glyph glyph-name="amacron" unicode="&#x101;" horiz-adv-x="590" 
d="M515 599h-376l18 132h376zM0 126q0 89 61 144q62 56 160 56h129l5 32q5 29 -11.5 45t-50.5 16q-30 0 -50.5 -15.5t-25.5 -40.5h-174q20 87 94 137.5t184 50.5q117 0 169 -55t38 -161l-30 -215h56l-18 -120h-88q-40 0 -70 10q-34 13 -34 67v11h-10q-20 -44 -69 -71
t-111 -27q-71 0 -112.5 37t-41.5 99zM183 181l-2 -19q-3 -20 10.5 -30.5t39.5 -10.5q42 0 71 24.5t33 63.5l1 11h-94q-24 0 -40.5 -10.5t-18.5 -28.5z" />
    <glyph glyph-name="Abreve" unicode="&#x102;" horiz-adv-x="727" 
d="M425 768q-77 0 -116 47t-29 122h105q-5 -35 9 -54t44 -19q65 0 76 73h105q-10 -75 -62.5 -122t-131.5 -47zM692 0h-200l-20 110h-264l-51 -110h-198l353 729h218zM307 321l-32 -68h172l-12 68l-29 211h-6z" />
    <glyph glyph-name="abreve" unicode="&#x103;" horiz-adv-x="590" 
d="M414 757h105q-10 -75 -62.5 -122t-131.5 -47q-77 0 -116 47t-29 122h105q-5 -35 9 -54t44 -19q65 0 76 73zM0 126q0 89 61 144q62 56 160 56h129l5 32q5 29 -11.5 45t-50.5 16q-30 0 -50.5 -15.5t-25.5 -40.5h-174q20 87 94 137.5t184 50.5q117 0 169 -55t38 -161
l-30 -215h56l-18 -120h-88q-40 0 -70 10q-34 13 -34 67v11h-10q-20 -44 -69 -71t-111 -27q-71 0 -112.5 37t-41.5 99zM183 181l-2 -19q-3 -20 10.5 -30.5t39.5 -10.5q42 0 71 24.5t33 63.5l1 11h-94q-24 0 -40.5 -10.5t-18.5 -28.5z" />
    <glyph glyph-name="Aogonek" unicode="&#x104;" horiz-adv-x="727" 
d="M645 -117q21 0 57 11l-12 -88q-37 -17 -90 -17q-55 0 -87 26.5t-32 71.5q0 67 60 113h-49l-20 110h-264l-51 -110h-198l353 729h218l162 -729q-50 -6 -78 -27t-28 -52q0 -38 59 -38zM307 321l-32 -68h172l-12 68l-29 211h-6z" />
    <glyph glyph-name="aogonek" unicode="&#x105;" horiz-adv-x="590" 
d="M431 -79q0 -38 59 -38q21 0 57 11l-12 -88q-37 -17 -90 -17q-55 0 -87 26.5t-32 71.5q0 73 67 118q-50 14 -49 72v11h-10q-20 -44 -69 -71t-111 -27q-71 0 -112.5 37t-41.5 99q0 89 61 144q62 56 160 56h129l5 32q5 29 -11.5 45t-50.5 16q-30 0 -50.5 -15.5t-25.5 -40.5
h-174q20 87 94 137.5t184 50.5q117 0 169 -55t38 -161l-30 -215h56l-18 -119l1 -1q-50 -6 -78 -27t-28 -52zM335 209l1 11h-94q-24 0 -40.5 -10.5t-18.5 -28.5l-2 -19q-3 -20 10.5 -30.5t39.5 -10.5q42 0 71 24.5t33 63.5z" />
    <glyph glyph-name="Cacute" unicode="&#x106;" horiz-adv-x="755" 
d="M706 912l-257 -136l-42 80l244 170zM343 -10q-145 0 -224.5 78.5t-79.5 219.5q0 197 116 324q117 126 301 126q144 0 226 -75q83 -74 72 -199h-194q-2 52 -37.5 82t-97.5 30q-70 0 -117.5 -41t-57.5 -112l-17 -122q-9 -68 26.5 -108.5t106.5 -40.5q58 0 102.5 30t63.5 83
h195q-32 -126 -136 -201q-104 -74 -248 -74z" />
    <glyph glyph-name="cacute" unicode="&#x107;" horiz-adv-x="573" 
d="M600 733l-257 -136l-42 80l244 170zM370 204h174q-24 -101 -101 -157.5t-188 -56.5q-112 0 -173.5 58.5t-61.5 164.5q0 150 88 244t228 94q109 0 170.5 -58t56.5 -155h-173q0 34 -21 52t-59 18q-42 0 -68.5 -24.5t-32.5 -67.5l-14 -95q-6 -43 15 -66t62 -23q38 0 64 19
t34 53z" />
    <glyph glyph-name="Cdotaccent" unicode="&#x10a;" horiz-adv-x="755" 
d="M515 779h-133l22 155h133zM343 -10q-145 0 -224.5 78.5t-79.5 219.5q0 197 116 324q117 126 301 126q144 0 226 -75q83 -74 72 -199h-194q-2 52 -37.5 82t-97.5 30q-70 0 -117.5 -41t-57.5 -112l-17 -122q-9 -68 26.5 -108.5t106.5 -40.5q58 0 102.5 30t63.5 83h195
q-32 -126 -136 -201q-104 -74 -248 -74z" />
    <glyph glyph-name="cdotaccent" unicode="&#x10b;" horiz-adv-x="573" 
d="M410 600h-133l22 155h133zM370 204h174q-24 -101 -101 -157.5t-188 -56.5q-112 0 -173.5 58.5t-61.5 164.5q0 150 88 244t228 94q109 0 170.5 -58t56.5 -155h-173q0 34 -21 52t-59 18q-42 0 -68.5 -24.5t-32.5 -67.5l-14 -95q-6 -43 15 -66t62 -23q38 0 64 19t34 53z" />
    <glyph glyph-name="Ccaron" unicode="&#x10c;" horiz-adv-x="755" 
d="M400 774l-127 144l93 80l97 -123l130 123l71 -80l-167 -144h-97zM343 -10q-145 0 -224.5 78.5t-79.5 219.5q0 197 116 324q117 126 301 126q144 0 226 -75q83 -74 72 -199h-194q-2 52 -37.5 82t-97.5 30q-70 0 -117.5 -41t-57.5 -112l-17 -122q-9 -68 26.5 -108.5
t106.5 -40.5q58 0 102.5 30t63.5 83h195q-32 -126 -136 -201q-104 -74 -248 -74z" />
    <glyph glyph-name="ccaron" unicode="&#x10d;" horiz-adv-x="573" 
d="M294 595l-127 144l93 80l97 -123l130 123l71 -80l-167 -144h-97zM370 204h174q-24 -101 -101 -157.5t-188 -56.5q-112 0 -173.5 58.5t-61.5 164.5q0 150 88 244t228 94q109 0 170.5 -58t56.5 -155h-173q0 34 -21 52t-59 18q-42 0 -68.5 -24.5t-32.5 -67.5l-14 -95
q-6 -43 15 -66t62 -23q38 0 64 19t34 53z" />
    <glyph glyph-name="Dcaron" unicode="&#x10e;" horiz-adv-x="754" 
d="M388 774l-127 144l93 80l97 -123l130 123l71 -80l-167 -144h-97zM349 0h-318l102 729h318q293 0 293 -275q0 -214 -105 -334t-290 -120zM297 570l-57 -411h126q82 0 119 32.5t48 109.5l17 127q11 79 -19 110.5t-108 31.5h-126z" />
    <glyph glyph-name="dcaron" unicode="&#x10f;" horiz-adv-x="655" 
d="M442 443h9l43 305h176l-105 -748h-153l-9 97h-10q-30 -51 -81 -79t-110 -28q-87 0 -135 55.5t-48 155.5q0 154 73 251q74 98 188 98q64 0 105.5 -28.5t56.5 -78.5zM741 614l19 134h132l-17 -116q-18 -126 -163 -126l7 47q41 0 60 14t25 47h-63zM424 251l5 37
q8 56 -18.5 88t-80.5 32q-108 0 -121 -100l-10 -77q-13 -100 91 -100q56 0 92 32.5t42 87.5z" />
    <glyph glyph-name="Dcroat" unicode="&#x110;" horiz-adv-x="754" 
d="M133 729h318q293 0 293 -275q0 -214 -105 -334t-290 -120h-318l43 308h-69l16 126h71zM533 301l17 127q11 79 -19 110.5t-108 31.5h-126l-19 -136h112l-16 -126h-113l-21 -149h126q82 0 119 32.5t48 109.5z" />
    <glyph glyph-name="dslash" unicode="&#x111;" horiz-adv-x="655" 
d="M662 693h58l-15 -112h-58l-82 -581h-153l-9 97h-10q-30 -51 -81 -79t-110 -28q-87 0 -135 55.5t-48 155.5q0 154 73 251q74 98 188 98q64 0 105.5 -28.5t56.5 -78.5h9l19 138h-125l15 112h126l8 55h176zM424 251l5 37q8 56 -18.5 88t-80.5 32q-108 0 -121 -100l-10 -77
q-13 -100 91 -100q56 0 92 32.5t42 87.5z" />
    <glyph glyph-name="Emacron" unicode="&#x112;" horiz-adv-x="640" 
d="M596 778h-376l18 132h376zM558 0h-527l102 729h527l-23 -159h-340l-15 -117h287l-21 -149h-288l-20 -145h340z" />
    <glyph glyph-name="emacron" unicode="&#x113;" horiz-adv-x="581" 
d="M528 599h-376l18 132h376zM21 215q0 147 87 242q88 94 226 94q105 0 166.5 -55t61.5 -152q0 -48 -18 -115h-345l-4 -28q-5 -35 17.5 -56.5t61.5 -21.5q72 0 97 49h173q-26 -83 -104 -133q-77 -49 -183 -49q-113 0 -174.5 59.5t-61.5 165.5zM217 348v-6h175v6q1 33 -20 52
t-59 19q-40 0 -67.5 -20t-28.5 -51z" />
    <glyph glyph-name="Edotaccent" unicode="&#x116;" horiz-adv-x="640" 
d="M475 779h-133l22 155h133zM558 0h-527l102 729h527l-23 -159h-340l-15 -117h287l-21 -149h-288l-20 -145h340z" />
    <glyph glyph-name="edotaccent" unicode="&#x117;" horiz-adv-x="581" 
d="M407 600h-133l22 155h133zM21 215q0 147 87 242q88 94 226 94q105 0 166.5 -55t61.5 -152q0 -48 -18 -115h-345l-4 -28q-5 -35 17.5 -56.5t61.5 -21.5q72 0 97 49h173q-26 -83 -104 -133q-77 -49 -183 -49q-113 0 -174.5 59.5t-61.5 165.5zM217 348v-6h175v6q1 33 -20 52
t-59 19q-40 0 -67.5 -20t-28.5 -51z" />
    <glyph glyph-name="Eogonek" unicode="&#x118;" horiz-adv-x="640" 
d="M660 729l-23 -159h-340l-15 -117h287l-21 -149h-288l-20 -145h340l-22 -159q-50 -6 -78 -27t-28 -52q0 -38 59 -38q21 0 57 11l-12 -88q-37 -17 -90 -17q-55 0 -87 26.5t-32 71.5q0 67 60 113h-376l102 729h527z" />
    <glyph glyph-name="eogonek" unicode="&#x119;" horiz-adv-x="581" 
d="M544 229h-345l-4 -28q-5 -35 17.5 -56.5t61.5 -21.5q72 0 97 49h173q-22 -68 -79.5 -114.5t-137.5 -61.5l4 -6q-50 -6 -78 -27t-28 -52q0 -38 59 -38q21 0 57 11l-12 -88q-37 -17 -90 -17q-55 0 -87 26.5t-32 71.5q0 74 69 119q-81 17 -124.5 74t-43.5 145q0 147 87 242
q88 94 226 94q105 0 166.5 -55t61.5 -152q0 -48 -18 -115zM217 348v-6h175v6q1 33 -20 52t-59 19q-40 0 -67.5 -20t-28.5 -51z" />
    <glyph glyph-name="Ecaron" unicode="&#x11a;" horiz-adv-x="640" 
d="M359 774l-127 144l93 80l97 -123l130 123l71 -80l-167 -144h-97zM558 0h-527l102 729h527l-23 -159h-340l-15 -117h287l-21 -149h-288l-20 -145h340z" />
    <glyph glyph-name="ecaron" unicode="&#x11b;" horiz-adv-x="581" 
d="M292 595l-127 144l93 80l97 -123l130 123l71 -80l-167 -144h-97zM21 215q0 147 87 242q88 94 226 94q105 0 166.5 -55t61.5 -152q0 -48 -18 -115h-345l-4 -28q-5 -35 17.5 -56.5t61.5 -21.5q72 0 97 49h173q-26 -83 -104 -133q-77 -49 -183 -49q-113 0 -174.5 59.5
t-61.5 165.5zM217 348v-6h175v6q1 33 -20 52t-59 19q-40 0 -67.5 -20t-28.5 -51z" />
    <glyph glyph-name="Gbreve" unicode="&#x11e;" horiz-adv-x="808" 
d="M544 937h105q-10 -75 -62.5 -122t-131.5 -47q-77 0 -116 47t-29 122h105q-5 -35 9 -54t44 -19q65 0 76 73zM38 281q0 205 115 330q115 127 303 127q134 0 213 -66q82 -66 80 -173h-194q-8 36 -40.5 56.5t-83.5 20.5q-75 0 -123.5 -43t-58.5 -116l-16 -116
q-10 -73 28 -115.5t114 -42.5q64 0 113.5 32.5t64.5 84.5h-205l21 146h402l-57 -406h-152l3 87h-7q-36 -47 -99.5 -72t-139.5 -25q-134 0 -207.5 76.5t-73.5 214.5z" />
    <glyph glyph-name="gbreve" unicode="&#x11f;" horiz-adv-x="566" 
d="M120 757h106q-6 -35 8.5 -53.5t44.5 -18.5q65 0 75 72h106q-11 -74 -63 -122q-53 -47 -131 -47t-117 47t-29 122zM595 661l-20 -137h-99l-4 -28q43 -39 43 -101q0 -88 -70 -143q-70 -56 -179 -56q-28 0 -60 5q-25 -10 -25 -34q0 -27 58 -27h111q82 0 126 -35t44 -97
q0 -99 -83 -151t-240 -52q-232 0 -232 110q0 42 26 74t71 45l1 8q-49 19 -49 72q0 37 26.5 68.5t70.5 45.5l1 8q-66 38 -66 115q0 88 70 143q70 57 179 57q45 0 84 -10l3 19q7 52 38.5 76.5t94.5 24.5h80zM343 363l3 22q4 22 -12 35t-45 13q-28 0 -46.5 -12.5t-21.5 -35.5
l-4 -22q-3 -22 12.5 -35t43.5 -13q29 0 47.5 13t22.5 35zM301 4h-110q-55 0 -55 -40q0 -36 91 -36q115 0 115 52q0 24 -41 24z" />
    <glyph glyph-name="Gdotaccent" unicode="&#x120;" horiz-adv-x="808" 
d="M525 779h-133l22 155h133zM38 281q0 205 115 330q115 127 303 127q134 0 213 -66q82 -66 80 -173h-194q-8 36 -40.5 56.5t-83.5 20.5q-75 0 -123.5 -43t-58.5 -116l-16 -116q-10 -73 28 -115.5t114 -42.5q64 0 113.5 32.5t64.5 84.5h-205l21 146h402l-57 -406h-152l3 87
h-7q-36 -47 -99.5 -72t-139.5 -25q-134 0 -207.5 76.5t-73.5 214.5z" />
    <glyph glyph-name="gdotaccent" unicode="&#x121;" horiz-adv-x="566" 
d="M257 755h133l-22 -155h-133zM595 661l-20 -137h-99l-4 -28q43 -39 43 -101q0 -88 -70 -143q-70 -56 -179 -56q-28 0 -60 5q-25 -10 -25 -34q0 -27 58 -27h111q82 0 126 -35t44 -97q0 -99 -83 -151t-240 -52q-232 0 -232 110q0 42 26 74t71 45l1 8q-49 19 -49 72
q0 37 26.5 68.5t70.5 45.5l1 8q-66 38 -66 115q0 88 70 143q70 57 179 57q45 0 84 -10l3 19q7 52 38.5 76.5t94.5 24.5h80zM343 363l3 22q4 22 -12 35t-45 13q-28 0 -46.5 -12.5t-21.5 -35.5l-4 -22q-3 -22 12.5 -35t43.5 -13q29 0 47.5 13t22.5 35zM301 4h-110
q-55 0 -55 -40q0 -36 91 -36q115 0 115 52q0 24 -41 24z" />
    <glyph glyph-name="uni0122" unicode="&#x122;" horiz-adv-x="808" 
d="M38 281q0 205 115 330q115 127 303 127q134 0 213 -66q82 -66 80 -173h-194q-8 36 -40.5 56.5t-83.5 20.5q-75 0 -123.5 -43t-58.5 -116l-16 -116q-10 -73 28 -115.5t114 -42.5q64 0 113.5 32.5t64.5 84.5h-205l21 146h402l-57 -406h-152l3 87h-7q-36 -47 -99.5 -72
t-139.5 -25q-134 0 -207.5 76.5t-73.5 214.5zM281 -303v48q56 0 56 58v10h-56v137h133v-116q0 -66 -35 -101.5t-98 -35.5z" />
    <glyph glyph-name="uni0123" unicode="&#x123;" horiz-adv-x="566" 
d="M305 737h56v-137h-134v116q0 65 35.5 101t98.5 36v-48q-56 0 -56 -58v-10zM595 661l-20 -137h-99l-4 -28q43 -39 43 -101q0 -88 -70 -143q-70 -56 -179 -56q-28 0 -60 5q-25 -10 -25 -34q0 -27 58 -27h111q82 0 126 -35t44 -97q0 -99 -83 -151t-240 -52q-232 0 -232 110
q0 42 26 74t71 45l1 8q-49 19 -49 72q0 37 26.5 68.5t70.5 45.5l1 8q-66 38 -66 115q0 88 70 143q70 57 179 57q45 0 84 -10l3 19q7 52 38.5 76.5t94.5 24.5h80zM343 363l3 22q4 22 -12 35t-45 13q-28 0 -46.5 -12.5t-21.5 -35.5l-4 -22q-3 -22 12.5 -35t43.5 -13
q29 0 47.5 13t22.5 35zM301 4h-110q-55 0 -55 -40q0 -36 91 -36q115 0 115 52q0 24 -41 24z" />
    <glyph glyph-name="Hbar" unicode="&#x126;" horiz-adv-x="809" 
d="M794 648h56l-13 -109h-59l-75 -539h-187l42 297h-299l-41 -297h-187l75 539h-54l13 109h57l11 81h187l-11 -81h298l11 81h187zM280 443h298l13 96h-298z" />
    <glyph glyph-name="hbar" unicode="&#x127;" horiz-adv-x="647" 
d="M454 551q92 0 130 -60.5t23 -168.5l-45 -322h-177l42 304q15 104 -75 104q-48 0 -80 -32t-40 -87l-41 -289h-176l80 573h-68l15 111h69l9 64h176l-9 -64h115l-15 -111h-116l-18 -129h10q65 107 191 107z" />
    <glyph glyph-name="Imacron" unicode="&#x12a;" horiz-adv-x="324" 
d="M421 778h-376l18 132h376zM320 729l-102 -729h-187l102 729h187z" />
    <glyph glyph-name="imacron" unicode="&#x12b;" horiz-adv-x="280" 
d="M374 591h-376l18 132h376zM191 0h-176l76 541h175z" />
    <glyph glyph-name="Iogonek" unicode="&#x12e;" horiz-adv-x="324" 
d="M111 -79q0 -38 59 -38q21 0 57 11l-12 -88q-37 -17 -90 -17q-55 0 -87 26.5t-32 71.5q0 67 60 113h-35l102 729h187l-102 -729h-1q-50 -6 -78 -27t-28 -52z" />
    <glyph glyph-name="iogonek" unicode="&#x12f;" horiz-adv-x="280" 
d="M142 747h133l-22 -155h-133zM26 0h-11l76 541h175l-75 -541h-14q-50 -6 -78 -27t-28 -52q0 -38 59 -38q21 0 57 11l-12 -88q-37 -17 -90 -17q-55 0 -87 26.5t-32 71.5q0 67 60 113z" />
    <glyph glyph-name="Idot" unicode="&#x130;" horiz-adv-x="324" 
d="M321 779h-184l23 156h184zM320 729l-102 -729h-187l102 729h187z" />
    <glyph glyph-name="dotlessi" unicode="&#x131;" horiz-adv-x="280" 
d="M191 0h-176l76 541h175z" />
    <glyph glyph-name="Jcircumflex" unicode="&#x134;" horiz-adv-x="427" 
d="M323 998h98l127 -142l-94 -81l-96 122l-130 -122l-72 81zM162 161l20 144l59 424h187l-59 -424l-23 -158q-7 -45 -19 -71q-31 -71 -148 -76h-202l23 161h162z" />
    <glyph glyph-name="jcircumflex" unicode="&#x135;" horiz-adv-x="286" 
d="M172 810h98l127 -142l-94 -81l-96 122l-130 -122l-72 81zM15 -30l17 117l64 454h175l-65 -454l-15 -107q-7 -45 -19 -71q-31 -71 -147 -76h-134l19 137h105z" />
    <glyph glyph-name="uni0136" unicode="&#x136;" horiz-adv-x="743" 
d="M565 729h229l-307 -315l215 -414h-226l-138 262l-97 -100l-23 -162h-187l102 729h187l-43 -304zM346 -187h-56v137h133v-116q0 -66 -35 -101.5t-98 -35.5v48q56 0 56 58v10z" />
    <glyph glyph-name="uni0137" unicode="&#x137;" horiz-adv-x="619" 
d="M431 541h220l-230 -210l165 -331h-196l-104 208l-72 -66l-20 -142h-179l105 748h178l-53 -380zM268 -187h-56v137h133v-116q0 -66 -35 -101.5t-98 -35.5v48q56 0 56 58v10z" />
    <glyph glyph-name="Lacute" unicode="&#x139;" horiz-adv-x="573" 
d="M491 912l-257 -136l-42 80l244 170zM498 0h-467l102 729h187l-79 -564h280z" />
    <glyph glyph-name="lacute" unicode="&#x13a;" horiz-adv-x="281" 
d="M472 931l-257 -136l-42 80l244 170zM191 0h-176l105 748h175z" />
    <glyph glyph-name="uni013B" unicode="&#x13b;" horiz-adv-x="573" 
d="M498 0h-467l102 729h187l-79 -564h280zM198 -303v48q56 0 56 58v10h-56v137h133v-116q0 -66 -35 -101.5t-98 -35.5z" />
    <glyph glyph-name="uni013C" unicode="&#x13c;" horiz-adv-x="281" 
d="M191 0h-176l105 748h175zM37 -303v48q56 0 56 58v10h-56v137h133v-116q0 -66 -35 -101.5t-98 -35.5z" />
    <glyph glyph-name="Lcaron" unicode="&#x13d;" horiz-adv-x="573" 
d="M357 450l7 48q42 0 62 16.5t25 51.5l3 23h-63l20 142h130l-20 -147q-20 -134 -164 -134zM498 0h-467l102 729h187l-79 -564h280z" />
    <glyph glyph-name="lcaron" unicode="&#x13e;" horiz-adv-x="281" 
d="M166 793l-127 144l93 80l97 -123l130 123l71 -80l-167 -144h-97zM191 0h-176l105 748h175z" />
    <glyph glyph-name="Ldot" unicode="&#x13f;" horiz-adv-x="573" 
d="M498 0h-467l102 729h187l-79 -564h280zM328 428q0 43 31 74t74 31q35 0 57 -21t22 -55q0 -43 -30.5 -73t-74.5 -30q-35 0 -57 20.5t-22 53.5z" />
    <glyph glyph-name="ldot" unicode="&#x140;" horiz-adv-x="513" 
d="M191 0h-176l105 748h175zM307 366q0 44 31 75t74 31q35 0 57.5 -21.5t22.5 -55.5q0 -43 -31 -74q-31 -30 -75 -30q-35 0 -57 20.5t-22 54.5z" />
    <glyph glyph-name="Lslash" unicode="&#x141;" horiz-adv-x="590" 
d="M282 338l-24 -173h281l-24 -165h-467l38 272l-87 -30l22 158l87 29l42 300h187l-33 -234l136 46l-23 -157z" />
    <glyph glyph-name="lslash" unicode="&#x142;" horiz-adv-x="281" 
d="M285 529l34 12l-22 -157l-34 -12l-52 -372h-176l43 306l-77 -28l22 157l77 28l40 285h175z" />
    <glyph glyph-name="Nacute" unicode="&#x143;" horiz-adv-x="793" 
d="M719 912l-257 -136l-42 80l244 170zM218 0h-187l102 729h213l196 -463h7l18 205l36 258h185l-102 -729h-213l-194 458h-7l-18 -198z" />
    <glyph glyph-name="nacute" unicode="&#x144;" horiz-adv-x="646" 
d="M718 733l-257 -136l-42 80l244 170zM191 0h-176l76 541h154l9 -99h9q64 109 191 109q92 0 129.5 -60.5t22.5 -169.5l-45 -321h-176l42 303q15 105 -74 105q-49 0 -81.5 -33t-40.5 -89z" />
    <glyph glyph-name="uni0145" unicode="&#x145;" horiz-adv-x="793" 
d="M218 0h-187l102 729h213l196 -463h7l18 205l36 258h185l-102 -729h-213l-194 458h-7l-18 -198zM280 -257v48q56 0 56 58v10h-56v137h133v-116q0 -66 -35 -101.5t-98 -35.5z" />
    <glyph glyph-name="uni0146" unicode="&#x146;" horiz-adv-x="646" 
d="M191 0h-176l76 541h154l9 -99h9q64 109 191 109q92 0 129.5 -60.5t22.5 -169.5l-45 -321h-176l42 303q15 105 -74 105q-49 0 -81.5 -33t-40.5 -89zM221 -303v48q56 0 56 58v10h-56v137h133v-116q0 -66 -35 -101.5t-98 -35.5z" />
    <glyph glyph-name="Ncaron" unicode="&#x147;" horiz-adv-x="793" 
d="M413 774l-127 144l93 80l97 -123l130 123l71 -80l-167 -144h-97zM218 0h-187l102 729h213l196 -463h7l18 205l36 258h185l-102 -729h-213l-194 458h-7l-18 -198z" />
    <glyph glyph-name="ncaron" unicode="&#x148;" horiz-adv-x="646" 
d="M412 595l-127 144l93 80l97 -123l130 123l71 -80l-167 -144h-97zM191 0h-176l76 541h154l9 -99h9q64 109 191 109q92 0 129.5 -60.5t22.5 -169.5l-45 -321h-176l42 303q15 105 -74 105q-49 0 -81.5 -33t-40.5 -89z" />
    <glyph glyph-name="Eng" unicode="&#x14a;" horiz-adv-x="793" 
d="M603 729h185l-90 -641h1l-16 -111q-7 -48 -30 -88q-33 -56 -136 -56h-134l16 119h106l6 48h-38l-194 458h-7l-18 -198l-36 -260h-187l102 729h213l196 -463h7l18 205z" />
    <glyph glyph-name="eng" unicode="&#x14b;" horiz-adv-x="685" 
d="M606 321l-32 -230h38l-16 -111q-6 -42 -19 -70q-30 -70 -148 -77h-134l18 122h104l6 45h-38l42 303q15 105 -74 105q-49 0 -81.5 -33t-40.5 -89l-40 -286h-176l76 541h154l9 -99h9q64 109 191 109q92 0 129.5 -60.5t22.5 -169.5z" />
    <glyph glyph-name="Omacron" unicode="&#x14c;" horiz-adv-x="781" 
d="M649 778h-376l18 132h376zM39 292q0 192 119 319q118 127 299 127q143 0 228 -83q84 -82 84 -223q0 -193 -118 -317q-119 -125 -299 -125q-148 0 -230 81q-83 83 -83 221zM249 416l-15 -104q-11 -74 27 -117t113 -43q76 0 125.5 43t60.5 117l15 104q10 75 -28 117.5
t-113 42.5q-76 0 -125 -43t-60 -117z" />
    <glyph glyph-name="omacron" unicode="&#x14d;" horiz-adv-x="597" 
d="M532 599h-376l18 132h376zM20 218q0 145 89 239q88 94 229 94q111 0 175.5 -60t64.5 -167q0 -146 -90 -240q-88 -94 -228 -94q-111 0 -175.5 60.5t-64.5 167.5zM209 313l-12 -86q-14 -95 83 -95q47 0 75 24.5t34 70.5l12 86q14 95 -82 95t-110 -95z" />
    <glyph glyph-name="Ohungarumlaut" unicode="&#x150;" horiz-adv-x="781" 
d="M586 902l-251 -139l-42 80l238 170zM842 900l-253 -137l-40 80l237 169zM39 292q0 192 119 319q118 127 299 127q143 0 228 -83q84 -82 84 -223q0 -193 -118 -317q-119 -125 -299 -125q-148 0 -230 81q-83 83 -83 221zM249 416l-15 -104q-11 -74 27 -117t113 -43
q76 0 125.5 43t60.5 117l15 104q10 75 -28 117.5t-113 42.5q-76 0 -125 -43t-60 -117z" />
    <glyph glyph-name="ohungarumlaut" unicode="&#x151;" horiz-adv-x="597" 
d="M469 723l-251 -139l-42 80l238 170zM725 721l-253 -137l-40 80l237 169zM20 218q0 145 89 239q88 94 229 94q111 0 175.5 -60t64.5 -167q0 -146 -90 -240q-88 -94 -228 -94q-111 0 -175.5 60.5t-64.5 167.5zM209 313l-12 -86q-14 -95 83 -95q47 0 75 24.5t34 70.5l12 86
q14 95 -82 95t-110 -95z" />
    <glyph glyph-name="OE" unicode="&#x152;" horiz-adv-x="985" 
d="M40 289q0 203 116 322q117 118 318 118h533l-22 -159h-341l-16 -117h288l-22 -149h-287l-20 -145h340l-23 -159h-533q-165 0 -248 75t-83 214zM247 409l-12 -83q-12 -80 29.5 -123.5t124.5 -43.5h11l58 411h-11q-86 0 -137.5 -42t-62.5 -119z" />
    <glyph glyph-name="oe" unicode="&#x153;" horiz-adv-x="964" 
d="M927 229h-345l-4 -28q-5 -35 17.5 -56.5t61.5 -21.5q73 0 97 49h173q-26 -83 -104 -133q-77 -49 -183 -49q-118 0 -181 66q-82 -66 -199 -66q-111 0 -175.5 60.5t-64.5 167.5q0 145 89 239q88 94 229 94q118 0 182 -67q82 67 197 67q105 0 166.5 -55t61.5 -152
q0 -48 -18 -115zM600 348v-6h174l1 6q1 33 -20 52t-59 19q-40 0 -67.5 -20t-28.5 -51zM389 227l12 86q14 95 -82 95t-110 -95l-12 -86q-14 -95 83 -95q47 0 75 24.5t34 70.5z" />
    <glyph glyph-name="Racute" unicode="&#x154;" horiz-adv-x="726" 
d="M710 912l-257 -136l-42 80l244 170zM218 0h-187l102 729h384q97 0 147.5 -45.5t50.5 -127.5q0 -77 -38.5 -135.5t-104.5 -80.5l-1 -8h23q92 0 79 -102l-33 -230h-191l35 249h-232zM297 570l-24 -174h143q39 0 62.5 18t27.5 49l6 40q5 32 -14 49.5t-57 17.5h-144z" />
    <glyph glyph-name="racute" unicode="&#x155;" horiz-adv-x="387" 
d="M472 839l55 -114l-257 -136l-42 80zM56 295l14 99q11 61 36 96q36 51 131 51h183l-19 -142h-154l-15 -104l-41 -295h-176z" />
    <glyph glyph-name="uni0156" unicode="&#x156;" horiz-adv-x="726" 
d="M218 0h-187l102 729h384q97 0 147.5 -45.5t50.5 -127.5q0 -77 -38.5 -135.5t-104.5 -80.5l-1 -8h23q92 0 79 -102l-33 -230h-191l35 249h-232zM297 570l-24 -174h143q39 0 62.5 18t27.5 49l6 40q5 32 -14 49.5t-57 17.5h-144zM275 -303v48q56 0 56 58v10h-56v137h133
v-116q0 -66 -35 -101.5t-98 -35.5z" />
    <glyph glyph-name="uni0157" unicode="&#x157;" horiz-adv-x="387" 
d="M237 541h183l-19 -142h-154l-15 -104l-41 -295h-176l41 295l14 99q11 61 36 96q36 51 131 51zM92 -187h-56v137h133v-116q0 -66 -35 -101.5t-98 -35.5v48q56 0 56 58v10z" />
    <glyph glyph-name="Rcaron" unicode="&#x158;" horiz-adv-x="726" 
d="M404 774l-127 144l93 80l97 -123l130 123l71 -80l-167 -144h-97zM218 0h-187l102 729h384q97 0 147.5 -45.5t50.5 -127.5q0 -77 -38.5 -135.5t-104.5 -80.5l-1 -8h23q92 0 79 -102l-33 -230h-191l35 249h-232zM297 570l-24 -174h143q39 0 62.5 18t27.5 49l6 40
q5 32 -14 49.5t-57 17.5h-144z" />
    <glyph glyph-name="rcaron" unicode="&#x159;" horiz-adv-x="387" 
d="M485 731l-167 -144h-97l-127 144l93 80l97 -123l130 123zM56 295l14 99q11 61 36 96q36 51 131 51h183l-19 -142h-154l-15 -104l-41 -295h-176z" />
    <glyph glyph-name="Sacute" unicode="&#x15a;" horiz-adv-x="674" 
d="M674 912l-257 -136l-42 80l244 170zM31 230h194q-5 -43 25.5 -67.5t87.5 -24.5q51 0 82 22t31 58q0 20 -15 32q-4 4 -7.5 6.5t-7.5 4.5t-6.5 3.5t-8 3t-8 2t-10.5 2t-12 2.5l-103 22q-57 13 -94 28q-94 39 -99 147q0 117 92 192q91 75 235 75q129 0 201 -60t60 -159h-194
q3 35 -22.5 54.5t-70.5 19.5q-44 0 -70.5 -19t-26.5 -50q0 -19 23 -38q18 -9 31 -11q3 0 15 -3t14 -3l111 -22q176 -35 176 -178q0 -125 -95 -202t-249 -77q-142 0 -218 66q-75 67 -61 174z" />
    <glyph glyph-name="sacute" unicode="&#x15b;" horiz-adv-x="540" 
d="M579 733l-257 -136l-42 80l244 170zM23 172h173q-7 -59 67 -59q32 0 50.5 13t18.5 36q0 26 -44 34l-88 15q-143 26 -143 135q0 93 70 148q71 57 188 57q106 0 162.5 -46.5t48.5 -125.5h-174q4 24 -11 36.5t-45 12.5q-27 0 -43.5 -13t-16.5 -33q0 -18 13.5 -25.5
t44.5 -11.5l87 -14q134 -21 134 -131q0 -94 -75 -153q-74 -57 -196 -57q-115 0 -174 50t-47 132z" />
    <glyph glyph-name="Scedilla" unicode="&#x15e;" horiz-adv-x="674" 
d="M667 519h-194q3 35 -22.5 54.5t-70.5 19.5q-44 0 -70.5 -19t-26.5 -50q0 -19 23 -38q18 -9 31 -11q3 0 15 -3t14 -3l111 -22q176 -35 176 -178q0 -121 -88 -197q-87 -75 -232 -81l-22 -31q34 1 61 -18t27 -55q0 -50 -40 -84q-39 -35 -93 -39.5t-107 20.5l11 80
q41 -27 82 -19q40 7 40 46q0 21 -25 27t-51 -7l6 41l31 41q-116 13 -176 77t-47 160h194q-5 -43 25.5 -67.5t87.5 -24.5q51 0 82 22t31 58q0 20 -15 32q-4 4 -7.5 6.5t-7.5 4.5t-6.5 3.5t-8 3t-8 2t-10.5 2t-12 2.5l-103 22q-57 13 -94 28q-94 39 -99 147q0 117 92 192
q91 75 235 75q129 0 201 -60t60 -159z" />
    <glyph glyph-name="scedilla" unicode="&#x15f;" horiz-adv-x="540" 
d="M524 379h-174q4 24 -11 36.5t-45 12.5q-27 0 -43.5 -13t-16.5 -33q0 -18 13.5 -25.5t44.5 -11.5l87 -14q134 -21 134 -131q0 -91 -68 -148q-68 -58 -182 -62l-28 -40q34 1 61 -18t27 -55q0 -50 -40 -84q-39 -35 -93 -39.5t-107 20.5l11 80q41 -27 82 -19q40 7 40 46
q0 21 -25 27t-51 -7l6 41l39 52q-87 12 -130.5 60t-33.5 118h173q-7 -59 67 -59q32 0 50.5 13t18.5 36q0 26 -44 34l-88 15q-143 26 -143 135q0 93 70 148q71 57 188 57q106 0 162.5 -46.5t48.5 -125.5z" />
    <glyph glyph-name="Scaron" unicode="&#x160;" horiz-adv-x="674" 
d="M367 774l-127 144l93 80l97 -123l130 123l71 -80l-167 -144h-97zM31 230h194q-5 -43 25.5 -67.5t87.5 -24.5q51 0 82 22t31 58q0 20 -15 32q-4 4 -7.5 6.5t-7.5 4.5t-6.5 3.5t-8 3t-8 2t-10.5 2t-12 2.5l-103 22q-57 13 -94 28q-94 39 -99 147q0 117 92 192q91 75 235 75
q129 0 201 -60t60 -159h-194q3 35 -22.5 54.5t-70.5 19.5q-44 0 -70.5 -19t-26.5 -50q0 -19 23 -38q18 -9 31 -11q3 0 15 -3t14 -3l111 -22q176 -35 176 -178q0 -125 -95 -202t-249 -77q-142 0 -218 66q-75 67 -61 174z" />
    <glyph glyph-name="scaron" unicode="&#x161;" horiz-adv-x="540" 
d="M273 595l-127 144l93 80l97 -123l130 123l71 -80l-167 -144h-97zM23 172h173q-7 -59 67 -59q32 0 50.5 13t18.5 36q0 26 -44 34l-88 15q-143 26 -143 135q0 93 70 148q71 57 188 57q106 0 162.5 -46.5t48.5 -125.5h-174q4 24 -11 36.5t-45 12.5q-27 0 -43.5 -13
t-16.5 -33q0 -18 13.5 -25.5t44.5 -11.5l87 -14q134 -21 134 -131q0 -94 -75 -153q-74 -57 -196 -57q-115 0 -174 50t-47 132z" />
    <glyph glyph-name="uni0162" unicode="&#x162;" horiz-adv-x="581" 
d="M71 729h567l-22 -161h-193l-80 -568h-72l-28 -40q34 1 61 -18t27 -55q0 -50 -40 -84q-39 -35 -93 -39.5t-107 20.5l11 80q41 -27 82 -19q40 7 40 46q0 21 -25 27t-51 -7l6 41l36 48h-33l79 568h-187z" />
    <glyph glyph-name="uni0163" unicode="&#x163;" horiz-adv-x="408" 
d="M398 399h-104l-29 -198l-8 -64h105l-20 -137h-119l-28 -40q34 1 61 -18t27 -55q0 -50 -40 -84q-39 -35 -93 -39.5t-107 20.5l11 80q41 -27 82 -19q40 7 40 46q0 21 -25 27t-51 -7l6 41l41 54q-83 21 -66 129l9 66l29 198h-95l20 142h95l23 166h175l-23 -166h105z" />
    <glyph glyph-name="Tcaron" unicode="&#x164;" horiz-adv-x="581" 
d="M577 918l-167 -144h-97l-127 144l93 80l97 -123l130 123zM71 729h567l-22 -161h-193l-80 -568h-186l79 568h-187z" />
    <glyph glyph-name="tcaron" unicode="&#x165;" horiz-adv-x="408" 
d="M472 896l-167 -144h-97l-127 144l93 80l97 -123l130 123zM162 707h175l-23 -166h105l-21 -142h-104l-29 -198l-8 -64h105l-20 -137h-144q-136 0 -117 135l9 66l29 198h-95l20 142h95z" />
    <glyph glyph-name="Tbar" unicode="&#x166;" horiz-adv-x="581" 
d="M638 729l-22 -161h-193l-19 -134h127l-18 -146h-129l-41 -288h-186l40 288h-116l18 146h119l18 134h-187l22 161h567z" />
    <glyph glyph-name="tbar" unicode="&#x167;" horiz-adv-x="408" 
d="M398 399h-104l-7 -47h113l-16 -147h-118l-1 -4l-8 -64h105l-20 -137h-144q-136 0 -117 135l9 66l1 4h-83l16 147h88l7 47h-95l20 142h95l23 166h175l-23 -166h105z" />
    <glyph glyph-name="Umacron" unicode="&#x16a;" horiz-adv-x="770" 
d="M663 778h-376l18 132h376zM83 282l64 447h185l-61 -436q-9 -66 21.5 -102t96.5 -36q64 0 104.5 36t50.5 102l62 436h185l-63 -447q-20 -138 -118 -215q-100 -77 -246 -77q-157 0 -228.5 77t-52.5 215z" />
    <glyph glyph-name="umacron" unicode="&#x16b;" horiz-adv-x="641" 
d="M565 591h-376l18 132h376zM464 541h176l-76 -541h-155l-7 99h-11q-64 -109 -188 -109q-89 0 -127 57t-24 158l47 336h177l-43 -308q-14 -101 72 -101q47 0 79 33.5t40 89.5z" />
    <glyph glyph-name="Uring" unicode="&#x16e;" horiz-adv-x="770" 
d="M617 840q0 -62 -45 -106q-43 -43 -109 -43q-53 0 -85 29t-32 78q0 62 44 106q43 43 109 43q53 0 85.5 -29.5t32.5 -77.5zM524 828q0 17 -10 27t-26 10q-21 0 -35 -15.5t-14 -38.5q0 -37 36 -37q21 0 35 15.5t14 38.5zM83 282l64 447h185l-61 -436q-9 -66 21.5 -102
t96.5 -36q64 0 104.5 36t50.5 102l62 436h185l-63 -447q-20 -138 -118 -215q-100 -77 -246 -77q-157 0 -228.5 77t-52.5 215z" />
    <glyph glyph-name="uring" unicode="&#x16f;" horiz-adv-x="641" 
d="M467 541h173l-76 -541h-155l-7 99h-11q-64 -109 -188 -109q-89 0 -127 57t-24 158l47 336h172q-24 29 -24 70q0 62 44 106q43 43 109 43q53 0 85.5 -29.5t32.5 -77.5q0 -69 -51 -112zM389 678q-21 0 -35 -15.5t-14 -38.5q0 -37 36 -37q21 0 35 15.5t14 38.5q0 17 -10 27
t-26 10zM305 132q47 0 79 33.5t40 89.5l40 283q-43 -34 -100 -34q-54 0 -89 32l-42 -303q-14 -101 72 -101z" />
    <glyph glyph-name="Uhungarumlaut" unicode="&#x170;" horiz-adv-x="770" 
d="M600 902l-251 -139l-42 80l238 170zM856 900l-253 -137l-40 80l237 169zM83 282l64 447h185l-61 -436q-9 -66 21.5 -102t96.5 -36q64 0 104.5 36t50.5 102l62 436h185l-63 -447q-20 -138 -118 -215q-100 -77 -246 -77q-157 0 -228.5 77t-52.5 215z" />
    <glyph glyph-name="uhungarumlaut" unicode="&#x171;" horiz-adv-x="641" 
d="M502 715l-251 -139l-42 80l238 170zM758 713l-253 -137l-40 80l237 169zM464 541h176l-76 -541h-155l-7 99h-11q-64 -109 -188 -109q-89 0 -127 57t-24 158l47 336h177l-43 -308q-14 -101 72 -101q47 0 79 33.5t40 89.5z" />
    <glyph glyph-name="Uogonek" unicode="&#x172;" horiz-adv-x="770" 
d="M542 293l62 436h185l-63 -447q-15 -111 -85 -184.5t-180 -97.5h-2l-25 -5q-79 -19 -79 -74q0 -38 59 -38q21 0 57 11l-12 -88q-37 -17 -90 -17q-55 0 -87 26.5t-32 71.5q0 63 52 106q-127 15 -182.5 90t-38.5 199l64 447h185l-61 -436q-9 -66 21.5 -102t96.5 -36
q64 0 104.5 36t50.5 102z" />
    <glyph glyph-name="uogonek" unicode="&#x173;" horiz-adv-x="641" 
d="M459 -79q0 -38 59 -38q21 0 57 11l-12 -88q-37 -17 -90 -17q-55 0 -87 26.5t-32 71.5q0 67 60 113h-5l-7 99h-11q-64 -109 -188 -109q-89 0 -127 57t-24 158l47 336h177l-43 -308q-14 -101 72 -101q47 0 79 33.5t40 89.5l40 286h176l-76 -540l1 -1q-50 -6 -78 -27
t-28 -52z" />
    <glyph glyph-name="Wcircumflex" unicode="&#x174;" horiz-adv-x="1009" 
d="M460 775l-72 81l167 142h98l127 -142l-94 -81l-96 122zM116 0l-46 729h202l8 -344v-181h8l164 525h228l20 -527h8l48 180l102 347h209l-250 -729h-254l-24 476h-8l-160 -476h-255z" />
    <glyph glyph-name="wcircumflex" unicode="&#x175;" horiz-adv-x="812" 
d="M563 588l-96 122l-130 -122l-72 81l167 142h98l127 -142zM599 336l72 205h174l-209 -541h-213l-9 212l-2 105h-6l-31 -104l-67 -213h-209l-57 541h166l10 -203l7 -162h9l110 365h192l6 -367h5z" />
    <glyph glyph-name="Ycircumflex" unicode="&#x176;" horiz-adv-x="728" 
d="M321 775l-72 81l167 142h98l127 -142l-94 -81l-96 122zM270 273l-206 456h215l46 -138l52 -154h8l95 151l87 141h226l-336 -456l-38 -273h-186z" />
    <glyph glyph-name="ycircumflex" unicode="&#x177;" horiz-adv-x="588" 
d="M224 590l-72 81l167 142h98l127 -142l-94 -81l-96 122zM178 76l-153 465h179l39 -159l33 -157h6l80 158l85 158h188l-282 -465l-14 -96q-7 -52 -33 -93q-32 -54 -133 -54h-143l19 137h114z" />
    <glyph glyph-name="Ydieresis" unicode="&#x178;" horiz-adv-x="728" 
d="M392 779h-132l22 155h132zM609 779h-133l22 155h133zM270 273l-206 456h215l46 -138l52 -154h8l95 151l87 141h226l-336 -456l-38 -273h-186z" />
    <glyph glyph-name="Zacute" unicode="&#x179;" horiz-adv-x="590" 
d="M544 1026l55 -114l-257 -136l-42 80zM84 729h547l-21 -152l-375 -418h311l-22 -159h-542l21 153l374 416h-315z" />
    <glyph glyph-name="zacute" unicode="&#x17a;" horiz-adv-x="495" 
d="M492 839l55 -114l-257 -136l-42 80zM264 399h-216l20 142h431l-17 -124l-254 -276h220l-20 -141h-433l17 126z" />
    <glyph glyph-name="Zdotaccent" unicode="&#x17b;" horiz-adv-x="590" 
d="M297 934h133l-22 -155h-133zM84 729h547l-21 -152l-375 -418h311l-22 -159h-542l21 153l374 416h-315z" />
    <glyph glyph-name="zdotaccent" unicode="&#x17c;" horiz-adv-x="495" 
d="M246 747h133l-22 -155h-133zM68 541h431l-17 -124l-254 -276h220l-20 -141h-433l17 126l252 273h-216z" />
    <glyph glyph-name="Zcaron" unicode="&#x17d;" horiz-adv-x="590" 
d="M557 918l-167 -144h-97l-127 144l93 80l97 -123l130 123zM84 729h547l-21 -152l-375 -418h311l-22 -159h-542l21 153l374 416h-315z" />
    <glyph glyph-name="zcaron" unicode="&#x17e;" horiz-adv-x="495" 
d="M505 731l-167 -144h-97l-127 144l93 80l97 -123l130 123zM264 399h-216l20 142h431l-17 -124l-254 -276h220l-20 -141h-433l17 126z" />
    <glyph glyph-name="uni018F" unicode="&#x18f;" horiz-adv-x="720" 
d="M426 739q135 0 209.5 -75t74.5 -213q0 -201 -110 -332q-110 -129 -283 -129q-134 0 -207.5 75t-73.5 208q0 37 7 80q8 50 13 61h455q12 79 -18.5 120.5t-96.5 41.5q-101 0 -142 -89h-188q41 120 136 186t224 66zM339 148q56 0 94.5 32.5t55.5 92.5h-257q-9 -125 107 -125
z" />
    <glyph glyph-name="florin" unicode="&#x192;" horiz-adv-x="627" 
d="M146 -148h-163l20 140h153l88 334h-99l20 140h119l37 132q38 131 180 131h166l-20 -141h-155l-32 -122h102l-20 -140h-123l-85 -327q-38 -147 -188 -147z" />
    <glyph glyph-name="AEacute" unicode="&#x1fc;" horiz-adv-x="999" 
d="M862 1026l55 -114l-257 -136l-42 80zM1019 729l-22 -159h-328l-19 -134h276l-21 -148h-276l-18 -129h328l-22 -159h-515l21 152h-206l-65 -152h-193l327 729h733zM279 295h164l39 275h-85z" />
    <glyph glyph-name="Oslashacute" unicode="&#x1fe;" horiz-adv-x="781" 
d="M761 677l62 -110l-65 -43q11 -46 11 -92q0 -193 -118 -317q-119 -125 -299 -125q-167 0 -251 104l-64 -42l-52 116l63 41q-9 39 -9 83q0 178 102 301q103 122 264 142l-41 78l244 170l55 -114l-252 -133q40 2 46 2q160 0 244 -100zM249 416l-12 -83l308 202
q-38 41 -111 41q-76 0 -125 -43t-60 -117zM560 312l13 91l-314 -206q37 -45 115 -45q76 0 125.5 43t60.5 117z" />
    <glyph glyph-name="oslashacute" unicode="&#x1ff;" horiz-adv-x="597" 
d="M509 847l55 -114l-257 -136l-42 80zM579 518l50 -91l-92 -61q3 -20 3 -42q0 -146 -90 -240q-88 -94 -228 -94q-108 0 -170 56l-34 -22l-49 90l27 18q-13 35 -13 86q0 145 89 239q88 94 228 94q134 0 199 -86zM171 313l-10 -72l196 130q-18 37 -76 37q-96 0 -110 -95z
M351 227l3 18l-159 -104q19 -9 47 -9q47 0 75 24.5t34 70.5z" />
    <glyph glyph-name="uni0218" unicode="&#x218;" horiz-adv-x="674" 
d="M31 230h194q-5 -43 25.5 -67.5t87.5 -24.5q51 0 82 22t31 58q0 20 -15 32q-4 4 -7.5 6.5t-7.5 4.5t-6.5 3.5t-8 3t-8 2t-10.5 2t-12 2.5l-103 22q-57 13 -94 28q-94 39 -99 147q0 117 92 192q91 75 235 75q129 0 201 -60t60 -159h-194q3 35 -22.5 54.5t-70.5 19.5
q-44 0 -70.5 -19t-26.5 -50q0 -19 23 -38q18 -9 31 -11q3 0 15 -3t14 -3l111 -22q176 -35 176 -178q0 -125 -95 -202t-249 -77q-142 0 -218 66q-75 67 -61 174zM252 -303v48q56 0 56 58v10h-56v137h133v-116q0 -66 -35 -101.5t-98 -35.5z" />
    <glyph glyph-name="uni0219" unicode="&#x219;" horiz-adv-x="540" 
d="M23 172h173q-7 -59 67 -59q32 0 50.5 13t18.5 36q0 26 -44 34l-88 15q-143 26 -143 135q0 93 70 148q71 57 188 57q106 0 162.5 -46.5t48.5 -125.5h-174q4 24 -11 36.5t-45 12.5q-27 0 -43.5 -13t-16.5 -33q0 -18 13.5 -25.5t44.5 -11.5l87 -14q134 -21 134 -131
q0 -94 -75 -153q-74 -57 -196 -57q-115 0 -174 50t-47 132zM177 -313v48q56 0 56 58v10h-56v137h133v-116q0 -66 -35 -101.5t-98 -35.5z" />
    <glyph glyph-name="uni021A" unicode="&#x21a;" horiz-adv-x="581" 
d="M71 729h567l-22 -161h-193l-80 -568h-186l79 568h-187zM239 -187h-56v137h133v-116q0 -66 -35 -101.5t-98 -35.5v48q56 0 56 58v10z" />
    <glyph glyph-name="uni021B" unicode="&#x21b;" horiz-adv-x="408" 
d="M398 399h-104l-29 -198l-8 -64h105l-20 -137h-144q-136 0 -117 135l9 66l29 198h-95l20 142h95l23 166h175l-23 -166h105zM191 -187h-56v137h133v-116q0 -66 -35 -101.5t-98 -35.5v48q56 0 56 58v10z" />
    <glyph glyph-name="uni0237" unicode="&#x237;" horiz-adv-x="286" 
d="M32 87l64 454h175l-65 -454l-15 -107q-7 -45 -19 -71q-31 -71 -147 -76h-134l19 137h105z" />
    <glyph glyph-name="circumflex" unicode="&#x2c6;" horiz-adv-x="384" 
d="M142 713l-72 81l167 142h98l127 -142l-94 -81l-96 122z" />
    <glyph glyph-name="caron" unicode="&#x2c7;" horiz-adv-x="384" 
d="M209 730l-127 144l93 80l97 -123l130 123l71 -80l-167 -144h-97z" />
    <glyph glyph-name="breve" unicode="&#x2d8;" horiz-adv-x="348" 
d="M336 891h105q-10 -75 -62.5 -122t-131.5 -47q-77 0 -116 47t-29 122h105q-5 -35 9 -54t44 -19q65 0 76 73z" />
    <glyph glyph-name="dotaccent" unicode="&#x2d9;" horiz-adv-x="234" 
d="M248 731h-133l22 155h133z" />
    <glyph glyph-name="ring" unicode="&#x2da;" horiz-adv-x="338" 
d="M383 821q0 -63 -45 -106q-43 -43 -109 -43q-53 0 -85 29t-32 78q0 62 44 106q43 43 109 43q53 0 85.5 -29.5t32.5 -77.5zM290 809q0 17 -10 27t-26 10q-21 0 -35 -15.5t-14 -38.5q0 -37 36 -37q21 0 35 15.5t14 38.5z" />
    <glyph glyph-name="ogonek" unicode="&#x2db;" horiz-adv-x="402" 
d="M17 -113q0 61 49.5 104.5t132.5 54.5l29 -46q-50 -6 -78 -27t-28 -52q0 -38 59 -38q21 0 57 11l-12 -88q-37 -17 -90 -17q-55 0 -87 26.5t-32 71.5z" />
    <glyph glyph-name="tilde" unicode="&#x2dc;" horiz-adv-x="356" 
d="M305 731q-30 2 -62 20q-34 19 -57 19q-30 0 -68 -38l-62 46q58 112 147 110q27 0 61 -19q35 -18 59 -18q14 0 26 5.5t17.5 10t13.5 13.5l9 10l64 -44q-27 -57 -66 -86.5t-82 -28.5z" />
    <glyph glyph-name="hungarumlaut" unicode="&#x2dd;" horiz-adv-x="600" 
d="M417 852l-251 -139l-42 80l238 170zM673 850l-253 -137l-40 80l237 169z" />
    <glyph glyph-name="gravecomb" unicode="&#x300;" 
d="M29 793l-65 -80l-220 136l88 114z" />
    <glyph glyph-name="acutecomb" unicode="&#x301;" 
d="M36 849l-257 -136l-42 80l244 170z" />
    <glyph glyph-name="uni0302" unicode="&#x302;" 
d="M-242 713l-72 81l167 142h98l127 -142l-94 -81l-96 122z" />
    <glyph glyph-name="tildecomb" unicode="&#x303;" 
d="M-51 731q-30 2 -62 20q-34 19 -57 19q-30 0 -68 -38l-62 46q58 112 147 110q27 0 61 -19q34 -18 59 -18q14 0 26 5.5t17.5 10t13.5 13.5l9 10l64 -44q-27 -57 -66 -86.5t-82 -28.5z" />
    <glyph glyph-name="uni0304" unicode="&#x304;" 
d="M77 745h-376l18 132h376z" />
    <glyph glyph-name="uni0306" unicode="&#x306;" 
d="M-12 891h105q-10 -75 -62.5 -122t-131.5 -47q-77 0 -116 47t-29 122h105q-5 -35 9 -54t44 -19q65 0 76 73z" />
    <glyph glyph-name="uni0307" unicode="&#x307;" 
d="M14 731h-133l22 155h133z" />
    <glyph glyph-name="uni0308" unicode="&#x308;" 
d="M-193 731h-132l22 155h132zM24 731h-133l22 155h133z" />
    <glyph glyph-name="uni030A" unicode="&#x30a;" 
d="M45 821q0 -63 -45 -106q-43 -43 -109 -43q-53 0 -85 29t-32 78q0 62 44 106q43 43 109 43q53 0 85.5 -29.5t32.5 -77.5zM-48 809q0 17 -10 27t-26 10q-21 0 -35 -15.5t-14 -38.5q0 -37 36 -37q21 0 35 15.5t14 38.5z" />
    <glyph glyph-name="uni030B" unicode="&#x30b;" 
d="M-183 852l-251 -139l-42 80l238 170zM73 850l-253 -137l-40 80l237 169z" />
    <glyph glyph-name="uni030C" unicode="&#x30c;" 
d="M-175 730l-127 144l93 80l97 -123l130 123l71 -80l-167 -144h-97z" />
    <glyph glyph-name="uni0312" unicode="&#x312;" 
d="M33 984v-48q-56 0 -56 -58v-10h56v-137h-134v116q0 65 35.5 101t98.5 36z" />
    <glyph glyph-name="uni0326" unicode="&#x326;" 
d="M-211 -284v48q56 0 56 58v10h-56v137h133v-116q0 -66 -35 -101.5t-98 -35.5z" />
    <glyph glyph-name="uni0327" unicode="&#x327;" 
d="M-230 14l-38 -54q34 1 61 -18t27 -55q0 -50 -40 -84q-39 -35 -93 -39.5t-107 20.5l11 80q41 -27 82 -19q40 7 40 46q0 21 -25 27t-51 -7l6 41l63 84h67z" />
    <glyph glyph-name="uni0328" unicode="&#x328;" 
d="M-385 -113q0 61 49.5 104.5t132.5 54.5l29 -46q-50 -6 -78 -27t-28 -52q0 -38 59 -38q21 0 57 11l-12 -88q-37 -17 -90 -17q-55 0 -87 26.5t-32 71.5z" />
    <glyph glyph-name="uni0335" unicode="&#x335;" 
d="M-77 295h-433l19 132h433z" />
    <glyph glyph-name="uni0336" unicode="&#x336;" 
 />
    <glyph glyph-name="uni0337" unicode="&#x337;" 
d="M-303 0h-89l370 729h90z" />
    <glyph glyph-name="uni0338" unicode="&#x338;" 
d="M-303 0h-89l370 729h90z" />
    <glyph glyph-name="uni03BC" unicode="&#x3bc;" horiz-adv-x="619" 
d="M235 -173h-158l13 714h175l-6 -338q-1 -37 19.5 -58.5t55.5 -21.5q39 0 62.5 24t25.5 64l5 330h176l-9 -541h-168l5 57h-10q-16 -67 -103 -67q-50 0 -70 27h-10z" />
    <glyph glyph-name="pi" unicode="&#x3c0;" horiz-adv-x="633" 
d="M129 424h-79l1 117h605l-1 -117h-77l-7 -287h79l-1 -137h-108q-76 0 -109 33.5t-33 101.5l7 289h-105l-8 -424h-171z" />
    <glyph glyph-name="omega" unicode="&#x3c9;" horiz-adv-x="770" 
d="M68 433q0 141 91 223q92 83 252 83q157 0 250 -81q94 -81 94 -225q0 -87 -48 -161t-126 -105v-28h137v-139h-277v264q59 12 95.5 51.5t36.5 97.5v37q0 67 -47 103q-46 37 -115 37t-116 -37q-47 -38 -47 -103v-39q0 -57 37 -96t96 -51v-264h-279v139h138v28
q-80 32 -125 104q-47 74 -47 162z" />
    <glyph glyph-name="Wgrave" unicode="&#x1e80;" horiz-adv-x="1009" 
d="M638 856l-65 -80l-220 136l88 114zM116 0l-46 729h202l8 -344v-181h8l164 525h228l20 -527h8l48 180l102 347h209l-250 -729h-254l-24 476h-8l-160 -476h-255z" />
    <glyph glyph-name="wgrave" unicode="&#x1e81;" horiz-adv-x="812" 
d="M319 839l197 -170l-65 -80l-220 136zM599 336l72 205h174l-209 -541h-213l-9 212l-2 105h-6l-31 -104l-67 -213h-209l-57 541h166l10 -203l7 -162h9l110 365h192l6 -367h5z" />
    <glyph glyph-name="Wacute" unicode="&#x1e82;" horiz-adv-x="1009" 
d="M830 912l-257 -136l-42 80l244 170zM116 0l-46 729h202l8 -344v-181h8l164 525h228l20 -527h8l48 180l102 347h209l-250 -729h-254l-24 476h-8l-160 -476h-255z" />
    <glyph glyph-name="wacute" unicode="&#x1e83;" horiz-adv-x="812" 
d="M653 839l55 -114l-257 -136l-42 80zM599 336l72 205h174l-209 -541h-213l-9 212l-2 105h-6l-31 -104l-67 -213h-209l-57 541h166l10 -203l7 -162h9l110 365h192l6 -367h5z" />
    <glyph glyph-name="Wdieresis" unicode="&#x1e84;" horiz-adv-x="1009" 
d="M530 779h-132l22 155h132zM747 779h-133l22 155h133zM116 0l-46 729h202l8 -344v-181h8l164 525h228l20 -527h8l48 180l102 347h209l-250 -729h-254l-24 476h-8l-160 -476h-255z" />
    <glyph glyph-name="wdieresis" unicode="&#x1e85;" horiz-adv-x="812" 
d="M298 747h132l-22 -155h-132zM514 747h133l-22 -155h-133zM599 336l72 205h174l-209 -541h-213l-9 212l-2 105h-6l-31 -104l-67 -213h-209l-57 541h166l10 -203l7 -162h9l110 365h192l6 -367h5z" />
    <glyph glyph-name="Ygrave" unicode="&#x1ef2;" horiz-adv-x="728" 
d="M499 856l-65 -80l-220 136l88 114zM270 273l-206 456h215l46 -138l52 -154h8l95 151l87 141h226l-336 -456l-38 -273h-186z" />
    <glyph glyph-name="ygrave" unicode="&#x1ef3;" horiz-adv-x="588" 
d="M402 671l-65 -80l-220 136l88 114zM178 76l-153 465h179l39 -159l33 -157h6l80 158l85 158h188l-282 -465l-14 -96q-7 -52 -33 -93q-32 -54 -133 -54h-143l19 137h114z" />
    <glyph glyph-name="endash" unicode="&#x2013;" horiz-adv-x="654" 
d="M597 253h-545l13 94h545z" />
    <glyph glyph-name="emdash" unicode="&#x2014;" horiz-adv-x="850" 
d="M793 253h-741l13 94h741z" />
    <glyph glyph-name="quoteleft" unicode="&#x2018;" horiz-adv-x="241" 
d="M275 758l-8 -61q-52 0 -77 -20t-31 -63l-4 -28h78l-24 -176h-161l25 182q24 166 202 166z" />
    <glyph glyph-name="quoteright" unicode="&#x2019;" horiz-adv-x="240" 
d="M53 400l8 60q52 0 76.5 20.5t30.5 63.5l4 28h-78l25 176h161l-25 -182q-24 -166 -202 -166z" />
    <glyph glyph-name="quotesinglbase" unicode="&#x201a;" horiz-adv-x="241" 
d="M-28 -172l9 60q52 0 76.5 20.5t30.5 63.5l4 28h-78l25 175h160l-25 -182q-24 -165 -202 -165z" />
    <glyph glyph-name="quotedblleft" unicode="&#x201c;" horiz-adv-x="481" 
d="M277 772l-8 -60q-52 0 -77 -20.5t-31 -63.5l-4 -28h78l-24 -175h-161l25 182q24 165 202 165zM518 772l-9 -60q-52 0 -76.5 -20.5t-30.5 -63.5l-4 -28h78l-25 -175h-160l25 182q24 165 202 165z" />
    <glyph glyph-name="quotedblright" unicode="&#x201d;" horiz-adv-x="481" 
d="M42 327l8 61q52 0 77 20t31 63l4 28h-78l24 176h161l-25 -182q-24 -166 -202 -166zM282 327l9 61q53 0 77 20t30 63l4 28h-78l25 176h161l-25 -182q-24 -166 -203 -166z" />
    <glyph glyph-name="quotedblbase" unicode="&#x201e;" horiz-adv-x="481" 
d="M-28 -172l9 60q52 0 76.5 20.5t30.5 63.5l4 28h-78l25 175h160l-25 -182q-24 -165 -202 -165zM213 -172l9 60q52 0 76.5 20.5t30.5 63.5l4 28h-78l25 175h160l-25 -182q-24 -165 -202 -165z" />
    <glyph glyph-name="dagger" unicode="&#x2020;" horiz-adv-x="432" 
d="M338 727l-48 -335h141l-14 -104h-141l-18 -134h-116l19 134h-140l14 104h140l47 335h116z" />
    <glyph glyph-name="daggerdbl" unicode="&#x2021;" horiz-adv-x="432" 
d="M459 596l-14 -102h-140l-15 -102h141l-14 -104h-141l-18 -134h-116l19 134h-140l14 104h140l14 102h-139l14 102h140l18 131h116l-19 -131h140z" />
    <glyph glyph-name="bullet" unicode="&#x2022;" horiz-adv-x="393" 
d="M41 250q0 77 53 133q52 55 127 55q60 0 96.5 -37.5t36.5 -97.5q0 -78 -52 -131q-53 -53 -126 -53q-61 0 -98 36t-37 95z" />
    <glyph glyph-name="ellipsis" unicode="&#x2026;" horiz-adv-x="814" 
d="M185 0h-161l25 178h161zM449 0h-160l25 178h160zM715 0h-161l25 178h161z" />
    <glyph glyph-name="perthousand" unicode="&#x2030;" horiz-adv-x="1312" 
d="M91 556q0 79 51 130q51 52 131 52q82 0 133 -52q51 -51 51 -132q0 -79 -52 -131q-51 -52 -132 -52q-79 0 -131 52q-51 53 -51 133zM301 0h-79l463 729h80zM201 557q0 -39 19.5 -62.5t52.5 -23.5t53.5 24t20.5 62q0 36 -20.5 58.5t-53.5 22.5q-32 0 -52 -22.5t-20 -58.5z
M525 175q0 78 50 130q51 52 133 52t131 -52q50 -53 50 -132t-51 -132q-50 -51 -130 -51t-132 52q-51 52 -51 133zM939 175q0 78 50 130q51 52 133 52q81 0 130 -52q51 -53 51 -132t-51 -132q-50 -51 -130 -51t-132 52q-51 52 -51 133zM633 176q0 -38 21 -62t54 -24t53.5 24
t20.5 62q0 36 -21 59t-53 23q-33 0 -54 -23t-21 -59zM1047 176q0 -37 21 -61.5t54 -24.5t53 24t20 62q0 36 -20.5 59t-52.5 23q-34 0 -54.5 -23t-20.5 -59z" />
    <glyph glyph-name="guilsinglleft" unicode="&#x2039;" horiz-adv-x="317" 
d="M110 56l-89 218l150 216h149l-140 -216l78 -218h-148z" />
    <glyph glyph-name="guilsinglright" unicode="&#x203a;" horiz-adv-x="316" 
d="M209 490l87 -216l-149 -218h-149l139 218l-78 216h150z" />
    <glyph glyph-name="fraction" unicode="&#x2044;" horiz-adv-x="262" 
d="M-55 -46h-132l528 814h133z" />
    <glyph glyph-name="uni2070" unicode="&#x2070;" horiz-adv-x="495" 
d="M250 295q-89 0 -135 56t-46 158q0 162 73 260q73 100 192 100q89 0 134.5 -55.5t45.5 -156.5q0 -162 -73 -262t-191 -100zM266 410q49 0 79 69q31 68 31 181q0 96 -58 96q-50 0 -81 -69q-30 -67 -30 -179q0 -98 59 -98z" />
    <glyph glyph-name="uni2074" unicode="&#x2074;" horiz-adv-x="496" 
d="M493 862l-49 -347h67l-15 -108h-67l-15 -107h-132l15 107h-254l14 99l241 356h195zM343 738l-151 -223h120z" />
    <glyph glyph-name="uni2075" unicode="&#x2075;" horiz-adv-x="479" 
d="M333 680q75 0 118 -42.5t43 -114.5q0 -101 -69 -166q-68 -65 -174 -65q-97 0 -146 52t-38 133h134q-5 -31 13 -50.5t53 -19.5q39 0 65 27t26 67q0 31 -19 50t-51 19q-27 0 -48.5 -13t-29.5 -33h-126l63 338h356l-16 -114h-239l-17 -91l4 -2q37 25 98 25z" />
    <glyph glyph-name="uni2076" unicode="&#x2076;" horiz-adv-x="484" 
d="M255 293q-90 0 -137.5 55t-47.5 157q0 166 73 264q73 100 194 100q83 0 129.5 -40t44.5 -109h-134q-6 39 -59 39q-92 0 -102 -129h6q38 51 117 51q70 0 111.5 -41.5t41.5 -112.5q0 -101 -67 -168q-67 -66 -170 -66zM273 407q37 0 61.5 29t24.5 71q0 30 -17 48.5t-45 18.5
q-37 0 -62.5 -29t-25.5 -72q0 -31 17.5 -48.5t46.5 -17.5z" />
    <glyph glyph-name="uni2077" unicode="&#x2077;" horiz-adv-x="439" 
d="M170 658h-105l29 204h413l-13 -95q-90 -102 -166 -228q-74 -122 -109 -239h-143q31 109 100 227q71 122 157 221h-151z" />
    <glyph glyph-name="uni2078" unicode="&#x2078;" horiz-adv-x="477" 
d="M52 428q0 52 26 91.5t72 58.5l1 7q-63 30 -63 102q0 83 64 132q65 50 172 50q90 0 140 -36t50 -99q0 -49 -27 -89.5t-72 -59.5l-1 -7q63 -30 63 -103q0 -83 -65 -133t-171 -50q-90 0 -139.5 36.5t-49.5 99.5zM223 686q0 -23 18.5 -37t48.5 -14q37 0 60.5 19t23.5 49
q0 24 -18 38.5t-49 14.5q-37 0 -60.5 -19.5t-23.5 -50.5zM190 458q0 -24 18.5 -38.5t49.5 -14.5q37 0 60.5 20t23.5 51q0 24 -18.5 38.5t-48.5 14.5q-37 0 -61 -20t-24 -51z" />
    <glyph glyph-name="uni2079" unicode="&#x2079;" horiz-adv-x="480" 
d="M234 293q-81 0 -128 40.5t-46 109.5h134q4 -40 59 -40q44 0 70.5 34t31.5 96h-6q-41 -51 -118 -51q-70 0 -111.5 41.5t-41.5 112.5q0 101 67 167q68 66 170 66q90 0 137.5 -55t47.5 -157q0 -167 -73 -265q-72 -99 -193 -99zM274 588q37 0 62 29.5t25 71.5q0 31 -17 48.5
t-46 17.5q-37 0 -62 -28.5t-25 -70.5q0 -30 17 -49t46 -19z" />
    <glyph glyph-name="uni2080" unicode="&#x2080;" horiz-adv-x="495" 
d="M194 -105q-89 0 -135 56t-46 158q0 162 73 260q73 100 192 100q89 0 134.5 -55.5t45.5 -156.5q0 -161 -73 -261q-74 -101 -191 -101zM210 10q49 0 79 69q31 68 31 181q0 96 -58 96q-50 0 -81 -69q-30 -68 -30 -179q0 -98 59 -98z" />
    <glyph glyph-name="uni2081" unicode="&#x2081;" horiz-adv-x="347" 
d="M151 261h-147l15 101h24q54 0 94 27.5t49 72.5h124l-79 -562h-131z" />
    <glyph glyph-name="uni2082" unicode="&#x2082;" horiz-adv-x="459" 
d="M163 12l68 3h162l-16 -115h-391l3 19q9 53 35 101q17 28 41.5 54.5t39.5 38t50 38.5q8 6 30 21t30 21t24.5 19t23 21.5t15.5 21.5t12.5 25.5t3.5 26.5q0 23 -15.5 36t-41.5 13q-34 0 -55 -21t-22 -57h-133q14 89 77 140t153 51q81 0 128.5 -40t47.5 -107q0 -96 -73 -161
q-39 -34 -67 -52q-111 -76 -130 -97z" />
    <glyph glyph-name="uni2083" unicode="&#x2083;" horiz-adv-x="475" 
d="M192 -108q-93 0 -142 49t-37 129h133q-5 -28 13.5 -46.5t52.5 -18.5q36 0 59 22t23 57q0 51 -71 51h-61l14 104h49q41 0 65 19t24 51q0 22 -16 34.5t-43 12.5q-33 0 -55.5 -17.5t-24.5 -45.5h-133q8 80 71 127q64 49 162 49q81 0 128.5 -35.5t47.5 -95.5q0 -47 -25 -84
t-68 -56l-1 -5q71 -32 71 -110q0 -83 -67 -137t-169 -54z" />
    <glyph glyph-name="uni2084" unicode="&#x2084;" horiz-adv-x="496" 
d="M436 462l-49 -347h67l-15 -108h-67l-15 -107h-132l15 107h-254l14 99l242 356h194zM286 338l-151 -223h120z" />
    <glyph glyph-name="uni2085" unicode="&#x2085;" horiz-adv-x="479" 
d="M277 280q75 0 118 -42.5t43 -114.5q0 -101 -69 -166q-68 -65 -174 -65q-97 0 -146 52t-38 133h134q-5 -31 13 -50.5t53 -19.5q39 0 65 27t26 67q0 31 -19 50t-51 19q-27 0 -48.5 -13t-29.5 -33h-126l63 338h356l-16 -114h-239l-17 -91l4 -2q37 25 98 25z" />
    <glyph glyph-name="uni2086" unicode="&#x2086;" horiz-adv-x="484" 
d="M199 -107q-90 0 -137.5 55t-47.5 157q0 166 73 264q73 100 194 100q83 0 129.5 -40t44.5 -109h-134q-6 39 -59 39q-91 0 -102 -129h6q38 51 117 51q70 0 111.5 -41.5t41.5 -112.5q0 -101 -67 -167q-67 -67 -170 -67zM217 7q37 0 61.5 29t24.5 71q0 30 -17 48.5t-45 18.5
q-37 0 -62.5 -29t-25.5 -72q0 -31 17.5 -48.5t46.5 -17.5z" />
    <glyph glyph-name="uni2087" unicode="&#x2087;" horiz-adv-x="439" 
d="M114 258h-105l29 204h413l-13 -95q-88 -100 -166 -229q-74 -123 -109 -238h-143q32 111 100 227q71 123 157 221h-151z" />
    <glyph glyph-name="uni2088" unicode="&#x2088;" horiz-adv-x="477" 
d="M-4 28q0 108 98 150l1 7q-63 30 -63 102q0 83 64 132q65 50 172 50q90 0 140 -36t50 -99q0 -49 -27 -89.5t-72 -59.5l-1 -7q63 -30 63 -103q0 -83 -65 -133t-171 -50q-90 0 -139.5 36.5t-49.5 99.5zM167 286q0 -23 18.5 -37t48.5 -14q37 0 60.5 19t23.5 49q0 24 -18 38.5
t-49 14.5q-37 0 -60.5 -19.5t-23.5 -50.5zM134 58q0 -24 18.5 -38.5t49.5 -14.5q37 0 60.5 20t23.5 51q0 24 -18.5 38.5t-48.5 14.5q-37 0 -61 -20t-24 -51z" />
    <glyph glyph-name="uni2089" unicode="&#x2089;" horiz-adv-x="480" 
d="M178 -107q-81 0 -128 40.5t-46 109.5h134q4 -40 59 -40q92 0 102 130h-6q-41 -51 -118 -51q-70 0 -111.5 41.5t-41.5 112.5q0 101 67 167q68 66 170 66q90 0 137.5 -55t47.5 -157q0 -167 -73 -265q-72 -99 -193 -99zM218 188q37 0 62 29.5t25 71.5q0 31 -17 48.5
t-46 17.5q-37 0 -62 -28.5t-25 -70.5q0 -30 17 -49t46 -19z" />
    <glyph glyph-name="uni20A6" unicode="&#x20a6;" horiz-adv-x="758" 
d="M690 417h88l-15 -106h-87l-44 -311h-205l-91 311h-76l-3 -33l-39 -278h-175l44 311h-81l15 106h80l44 312h205l90 -312h76l4 37l39 275h175zM278 484l-7 -67h35l-20 67h-8zM490 241h8l7 70h-35z" />
    <glyph glyph-name="uni20A9" unicode="&#x20a9;" horiz-adv-x="916" 
d="M755 729h202l-102 -312h76l-15 -106h-95l-102 -311h-258l21 224l1 87h-47l-22 -85l-39 -226h-255l-14 311h-94l15 106h75l-14 312h192l-2 -312h60l85 312h184l3 -312h62zM476 461l-12 -44h20v44h-8zM272 185h6l33 126h-35zM607 183h7l31 128h-36z" />
    <glyph glyph-name="uni20AA" unicode="&#x20aa;" horiz-adv-x="829" 
d="M468 520l10 70h-211l-83 -590h-142l102 729h350q73 0 104.5 -32.5t19.5 -111.5l-10 -65l-48 -343h-140zM590 140l82 589h142l-102 -729h-350q-57 0 -93 22q-42 28 -30 122l10 66l47 343h140l-47 -343l-10 -70h211z" />
    <glyph glyph-name="Euro" unicode="&#x20ac;" horiz-adv-x="736" 
d="M385 153q78 0 114 70h195q-35 -107 -123 -170q-89 -62 -209 -62q-117 0 -188.5 62.5t-85.5 175.5h-69l15 109h52l7 55h-51l15 108h68q46 111 136 174t206 63q120 0 191 -62.5t75 -168.5h-195q-13 70 -93 70q-75 0 -123 -76h180l-28 -108h-193q-1 -6 -7 -55h185l-32 -109
h-144q22 -76 102 -76z" />
    <glyph glyph-name="uni20B2" unicode="&#x20b2;" horiz-adv-x="687" 
d="M328 279l18 126h304l-9 -64q-18 -121 -94 -196t-191 -90l-10 -67h-108l10 68q-100 14 -153.5 79t-53.5 171q0 156 82 262q82 108 215 129l9 65h108l-9 -65q90 -13 142 -68.5t51 -137.5h-170q-13 67 -97 67q-60 0 -99 -38.5t-49 -105.5l-12 -83q-9 -70 21 -107t93 -37
q50 0 86.5 25t47.5 67h-132z" />
    <glyph glyph-name="uni20B8" unicode="&#x20b8;" horiz-adv-x="579" 
d="M52 590l20 139h564l-20 -139h-564zM215 378h-193l21 152h565l-21 -152h-198l-53 -378h-174z" />
    <glyph glyph-name="uni20B9" unicode="&#x20b9;" horiz-adv-x="559" 
d="M580 729l-16 -109h-112q23 -42 25 -97h74l-16 -109h-76q-21 -56 -64 -96.5t-101 -57.5l-1 -7q35 -11 47 -29q15 -20 32 -64l5 -13l56 -147h-195l-61 153q-12 29 -17 36q-16 30 -76 30h-92l20 142h147q70 0 105 53h-245l16 109h241q-21 49 -87 49h-147l7 48h-1l16 109h516
z" />
    <glyph glyph-name="uni20BA" unicode="&#x20ba;" horiz-adv-x="675" 
d="M479 352h182q-51 -161 -175 -255q-123 -95 -298 -96l-143 -1l34 242l-82 -31l19 133l82 31l10 69l-82 -30l18 131l83 33l21 151h175l-12 -83l127 50l-18 -132l-127 -52l-10 -69l127 51l-19 -133l-126 -50l-21 -142q75 1 138 51t97 132z" />
    <glyph glyph-name="uni20BC" unicode="&#x20bc;" horiz-adv-x="805" 
d="M179 0h-176l44 316q42 303 318 333l11 80h179l-11 -80q268 -31 226 -333l-44 -316h-177l44 316q19 144 -72 163l-68 -479h-179l68 479q-53 -9 -81 -49t-38 -114z" />
    <glyph glyph-name="uni20BD" unicode="&#x20bd;" horiz-adv-x="707" 
d="M168 729h332q107 0 163.5 -52.5t56.5 -148.5q0 -136 -80 -219t-211 -83h-145l-7 -47h140l-15 -108h-140l-10 -71h-187l10 71h-79l15 108h79l9 59h-79l19 140h79zM515 448l6 48q5 32 -15 50t-59 18h-116l-26 -186h118q39 0 63.5 19.5t28.5 50.5z" />
    <glyph glyph-name="uni20BF" unicode="&#x20bf;" horiz-adv-x="731" 
d="M571 392l-1 -8q90 -22 90 -123q0 -94 -67 -154q-68 -59 -172 -59h-6l-9 -60h-107l9 60h-54l-9 -60h-106l9 60h-74l92 655h73l8 59h107l-8 -59h53l8 59h108l-8 -59h6q80 0 126.5 -38t46.5 -103q0 -58 -31.5 -104.5t-83.5 -65.5zM503 495l4 34q7 51 -54 51h-140l-20 -137
h142q30 0 48 14t20 38zM481 234l4 27q4 32 -11.5 47t-51.5 15h-146l-20 -151h140q77 0 85 62z" />
    <glyph glyph-name="uni2105" unicode="&#x2105;" horiz-adv-x="992" 
d="M315 490h121q-5 -63 -54.5 -101t-127.5 -38q-86 0 -137.5 52t-51.5 141t53.5 142t142.5 53q72 0 120.5 -39t56.5 -102h-123q-11 41 -58 41q-69 0 -69 -95t70 -95q21 0 37 11.5t20 29.5zM325 0h-102l464 729h102zM765 -6q-87 0 -140 53q-52 53 -52 140q0 85 53 140
q52 54 139 54q85 0 138 -54q52 -53 52 -140q0 -85 -53 -140q-53 -53 -137 -53zM695 187q0 -44 19.5 -69.5t50.5 -25.5q32 0 50.5 26.5t18.5 69.5q0 42 -19 68t-51 26t-50.5 -26t-18.5 -69z" />
    <glyph glyph-name="uni2116" unicode="&#x2116;" horiz-adv-x="1400" 
d="M849 451q0 116 86 199q87 84 206 84q99 0 161 -60t62 -151q0 -115 -87 -199q-88 -83 -206 -83q-99 0 -161 60q-61 60 -61 150zM218 0h-187l102 729h213l196 -463h7l18 205l36 258h185l-102 -729h-213l-194 458h-7l-18 -198zM1036 521l-10 -67q-5 -32 13.5 -51.5
t52.5 -19.5q32 0 56 19.5t29 50.5l10 67q4 32 -14.5 52.5t-50.5 20.5q-34 0 -57.5 -20t-28.5 -52zM837 1l20 139h402l-20 -139h-402z" />
    <glyph glyph-name="uni2117" unicode="&#x2117;" horiz-adv-x="885" 
d="M457 -77q-165 0 -293 115q-59 55 -93.5 135.5t-34.5 169.5t34.5 169.5t93.5 134.5q127 116 293 116q170 0 294 -118q125 -119 125 -299q0 -121 -59 -219q-57 -97 -152.5 -150.5t-207.5 -53.5zM832 347q0 163 -110 270t-265 107q-156 0 -267 -108q-111 -106 -111 -273
q0 -165 111 -273t267 -108q155 0 265 108q110 110 110 277zM412 126h-102v427h225q69 0 110 -38.5t41 -102.5q0 -63 -41 -102.5t-110 -39.5h-123v-144zM410 469v-119h109q29 0 46.5 17t17.5 45q0 25 -18.5 41t-45.5 16h-109z" />
    <glyph glyph-name="trademark" unicode="&#x2122;" horiz-adv-x="639" 
d="M73 735h240l-10 -68h-83l-35 -244h-75l34 244h-81zM500 575l91 160h93l-44 -312h-73l17 120l16 85h-3l-120 -200l-64 200h-5l-6 -85l-17 -120h-73l44 312h93l48 -160h3z" />
    <glyph glyph-name="estimated" unicode="&#x212e;" horiz-adv-x="738" 
d="M685 230h46q-27 -108 -120 -174q-94 -65 -222 -65q-163 0 -260 102q-97 101 -97 266t99 267q100 103 266 103q152 0 243 -88q92 -87 99 -246q1 -14 1 -57h-600v-185q35 -59 102 -91.5t149 -32.5q107 0 187 55q81 56 107 146zM140 561v-187h493v205q-89 111 -249 108
q-159 -3 -244 -126z" />
    <glyph glyph-name="oneeighth" unicode="&#x215b;" horiz-adv-x="965" 
d="M261 -46h-132l528 814h133zM187 557h-125l13 87h45q43 0 68.5 22.5t25.5 59.5v3h107l-67 -473h-110zM577 110q0 42 23 76.5t62 50.5v6q-54 24 -54 89q0 69 54.5 111.5t142.5 42.5q74 0 114.5 -30.5t40.5 -84.5q0 -42 -23.5 -77.5t-60.5 -50.5v-6q53 -24 53 -86
q0 -71 -54 -115q-53 -43 -142 -43q-74 0 -115 31.5t-41 85.5zM720 330q0 -21 15 -32.5t40 -11.5q30 0 50 17t20 43q0 21 -15 33t-40 12q-31 0 -50.5 -17.5t-19.5 -43.5zM692 132q0 -21 14.5 -33t40.5 -12q30 0 50 18t20 44q0 21 -15 33.5t-40 12.5q-30 0 -50 -18t-20 -45z
" />
    <glyph glyph-name="threeeighths" unicode="&#x215c;" horiz-adv-x="1022" 
d="M329 -46h-132l528 814h133zM188 248q-75 0 -114.5 41.5t-29.5 107.5h110q-3 -23 10.5 -38.5t35.5 -15.5q26 0 44.5 18t18.5 43q0 20 -14.5 31.5t-36.5 11.5h-44l13 98h30q31 0 49.5 16.5t18.5 42.5q0 36 -42 36q-24 0 -40.5 -15t-18.5 -39h-110q8 67 58.5 108t128.5 41
q65 0 102 -30t37 -79q0 -86 -79 -119v-5q59 -26 59 -92q0 -70 -54 -116q-52 -46 -132 -46zM644 110q0 42 23 76.5t62 50.5v6q-54 24 -54 89q0 69 54.5 111.5t142.5 42.5q74 0 114.5 -30.5t40.5 -84.5q0 -42 -23.5 -77.5t-60.5 -50.5v-6q53 -24 53 -86q0 -71 -54 -115
q-53 -43 -142 -43q-74 0 -115 31.5t-41 85.5zM787 330q0 -21 15 -32.5t40 -11.5q30 0 50 17t20 43q0 21 -15 33t-40 12q-31 0 -50.5 -17.5t-19.5 -43.5zM759 132q0 -21 14.5 -33t40.5 -12q30 0 50 18t20 44q0 21 -15 33.5t-40 12.5q-30 0 -50 -18t-20 -45z" />
    <glyph glyph-name="fiveeighths" unicode="&#x215d;" horiz-adv-x="1047" 
d="M353 -46h-132l528 814h133zM53 403h111q-4 -26 12 -43.5t43 -17.5q30 0 52 24.5t22 57.5q0 26 -16 43t-41 17q-44 0 -64 -39h-104l40 284h308l-13 -95h-200l-6 -43l-8 -35l3 -3q31 23 80 23q62 0 97.5 -36.5t35.5 -96.5q0 -85 -58 -140q-56 -55 -143 -55q-76 0 -118 43
t-33 112zM668 110q0 42 23 76.5t62 50.5v6q-54 24 -54 89q0 69 54.5 111.5t142.5 42.5q74 0 114.5 -30.5t40.5 -84.5q0 -42 -23.5 -77.5t-60.5 -50.5v-6q53 -24 53 -86q0 -71 -54 -115q-53 -43 -142 -43q-74 0 -115 31.5t-41 85.5zM811 330q0 -21 15 -32.5t40 -11.5
q30 0 50 17t20 43q0 21 -15 33t-40 12q-31 0 -50.5 -17.5t-19.5 -43.5zM783 132q0 -21 14.5 -33t40.5 -12q30 0 50 18t20 44q0 21 -15 33.5t-40 12.5q-30 0 -50 -18t-20 -45z" />
    <glyph glyph-name="seveneighths" unicode="&#x215e;" horiz-adv-x="944" 
d="M108 -46l528 814h133l-529 -814h-132zM160 256h-108q27 100 80 197q55 101 129 181h-118l-10 -72h-83l23 167h333l-10 -79q-81 -80 -143 -183.5t-93 -210.5zM854 243v-6q53 -24 53 -86q0 -71 -54 -115q-53 -43 -142 -43q-74 0 -115 31.5t-41 85.5q0 42 23 76.5t62 50.5v6
q-54 24 -54 89q0 69 54.5 111.5t142.5 42.5q74 0 114.5 -30.5t40.5 -84.5q0 -42 -23.5 -77.5t-60.5 -50.5zM753 286q30 0 50 17t20 43q0 21 -15 33t-40 12q-31 0 -50.5 -17.5t-19.5 -43.5q0 -21 15 -32.5t40 -11.5zM725 87q30 0 50 18t20 44q0 21 -15 33.5t-40 12.5
q-30 0 -50 -18t-20 -45q0 -21 14.5 -33t40.5 -12z" />
    <glyph glyph-name="arrowleft" unicode="&#x2190;" horiz-adv-x="858" 
d="M764 323v-94h-590l169 -229h-118l-207 277l207 271h118l-169 -225h590z" />
    <glyph glyph-name="arrowup" unicode="&#x2191;" horiz-adv-x="595" 
d="M571 382v-111l-210 187v-371h210v-89h-514v89h209v371l-209 -187v111l258 226z" />
    <glyph glyph-name="arrowright" unicode="&#x2192;" horiz-adv-x="897" 
d="M693 229h-590v94h590l-169 225h118l206 -271l-206 -277h-118z" />
    <glyph glyph-name="arrowdown" unicode="&#x2193;" horiz-adv-x="595" 
d="M596 557v-90h-210v-370l210 187v-113l-257 -224l-258 224v113l210 -187v370h-210v90h515z" />
    <glyph glyph-name="arrowboth" unicode="&#x2194;" horiz-adv-x="1027" 
d="M256 93l-221 267l221 262h110l-181 -217h683l-179 217h109l220 -262l-220 -267h-109l179 218h-683l181 -218h-110z" />
    <glyph glyph-name="arrowupdn" unicode="&#x2195;" horiz-adv-x="668" 
d="M373 -141l-304 247v109l258 -210v609l-258 -209v108l304 247l302 -247v-108l-258 209v-609l258 210v-109z" />
    <glyph glyph-name="uni2196" unicode="&#x2196;" horiz-adv-x="708" 
d="M703 73l-68 -73l-400 412v-324h-95v487h477v-95h-316z" />
    <glyph glyph-name="uni2197" unicode="&#x2197;" horiz-adv-x="690" 
d="M549 392l-382 -392l-67 70l383 396h-314v91h477v-486h-97v321z" />
    <glyph glyph-name="uni2198" unicode="&#x2198;" horiz-adv-x="696" 
d="M631 0l-478 -1v98h319l-388 389l68 71l385 -398l1 331h94z" />
    <glyph glyph-name="uni2199" unicode="&#x2199;" horiz-adv-x="694" 
d="M603 0h-479v490h97v-331l386 398l63 -69l-387 -391h320v-97z" />
    <glyph glyph-name="uni21A9" unicode="&#x21a9;" horiz-adv-x="859" 
d="M842 498q0 -107 -68 -173t-195 -66h-360v-124l-193 174l193 177v-126h360q74 0 118.5 36.5t44.5 101.5q0 61 -42 99t-111 38h-13v99h13q111 0 181 -67q72 -67 72 -169z" />
    <glyph glyph-name="uni21AA" unicode="&#x21aa;" horiz-adv-x="859" 
d="M58 498q0 101 71 169q71 67 182 67h13v-99h-13q-69 0 -110.5 -38t-41.5 -99q0 -65 44 -101.5t118 -36.5h363v126l189 -177l-189 -174v124h-363q-126 0 -194.5 64.5t-68.5 174.5z" />
    <glyph glyph-name="uni21B2" unicode="&#x21b2;" horiz-adv-x="698" 
d="M573 360v405h92v-506h-433v-124l-193 174l193 177v-126h341z" />
    <glyph glyph-name="uni21B3" unicode="&#x21b3;" horiz-adv-x="698" 
d="M539 486l190 -177l-190 -174v124h-435v506h92v-405h343v126z" />
    <glyph glyph-name="uni21BA" unicode="&#x21ba;" horiz-adv-x="825" 
d="M86 319q0 87 42 167t121 135l49 -58q-134 -89 -134 -244q0 -109 75 -182q74 -73 187 -73q109 0 181 72q72 74 72 176q0 73 -37 131q-38 60 -156 161l-3 -2l5 -68v-132h-72v327h316v-77h-129l-61 5l-3 -3q129 -107 173 -177q45 -69 45 -165q0 -136 -97 -230
q-95 -94 -238 -94q-142 0 -239 94t-97 237z" />
    <glyph glyph-name="uni21BB" unicode="&#x21bb;" horiz-adv-x="825" 
d="M449 -12q-140 0 -237 94q-96 94 -96 230q0 95 45 167q46 71 174 175l-3 3l-64 -5h-128v77h320v-327h-76v132l5 68l-3 2q-115 -97 -155 -160q-36 -58 -36 -132q0 -104 72 -176t181 -72q111 0 186 72q75 74 75 183q0 75 -34.5 140t-96.5 104l46 58q79 -53 121.5 -135
t42.5 -167q0 -140 -98 -236q-98 -95 -241 -95z" />
    <glyph glyph-name="emptyset" unicode="&#x2205;" horiz-adv-x="751" 
d="M458 738q145 0 228 -83q84 -82 84 -223q0 -194 -118 -318q-117 -124 -299 -124q-147 0 -230 81q-83 83 -83 221q0 192 119 319q118 127 299 127zM250 416l-15 -104q0 -3 -1 -4l279 252q-31 16 -78 16q-76 0 -125 -43t-60 -117zM561 312l15 104q2 22 2 23l-293 -264
q38 -23 90 -23q76 0 125.5 43t60.5 117z" />
    <glyph glyph-name="product" unicode="&#x220f;" horiz-adv-x="800" 
d="M118 729h693l-21 -152h-107l-81 -577h-176l80 577h-126l-81 -577h-178l81 577h-105z" />
    <glyph glyph-name="summation" unicode="&#x2211;" horiz-adv-x="606" 
d="M499 -168h-510l24 174l256 257l1 9l-180 281l25 176h510l-25 -177h-190l-107 10l-1 -10l169 -288l-251 -249l-1 -10l115 10h191z" />
    <glyph glyph-name="minus" unicode="&#x2212;" horiz-adv-x="578" 
d="M63 229l20 140h437l-20 -140h-437z" />
    <glyph glyph-name="radical" unicode="&#x221a;" horiz-adv-x="825" 
d="M501 342l198 387h178l-431 -836h-223l-99 445h-98l21 149h228v-3l29 -142l51 -283h8z" />
    <glyph glyph-name="infinity" unicode="&#x221e;" horiz-adv-x="857" 
d="M229 34q-97 0 -162 65q-65 67 -65 170q0 102 65 172q64 69 163 69q120 0 200 -123q78 123 201 123q97 0 162 -69q66 -69 66 -172t-65 -170q-65 -65 -162 -65q-127 0 -202 118q-73 -118 -201 -118zM240 192q58 0 111 78q-51 77 -111 77q-33 0 -53.5 -21.5t-20.5 -55.5
t20.5 -56t53.5 -22zM619 192q33 0 53.5 22t20.5 56t-20.5 55.5t-53.5 21.5q-59 0 -109 -77q51 -78 109 -78z" />
    <glyph glyph-name="integral" unicode="&#x222b;" horiz-adv-x="625" 
d="M440 753h164l-20 -141h-134l-10 -70l-66 -471l-10 -65q-7 -58 -37 -96q-36 -50 -130 -50h-163l19 140h134l11 71l66 471l9 64q5 43 20 73q31 70 147 74z" />
    <glyph glyph-name="approxequal" unicode="&#x2248;" horiz-adv-x="541" 
d="M150 348h-77q4 78 47 118q41 40 93 40q39 0 85 -28q48 -27 76 -27q55 0 62 55h76q-4 -80 -48 -121q-44 -39 -95 -39q-48 0 -99 27q-49 28 -70 28q-23 0 -36.5 -16.5t-13.5 -36.5zM122 144h-78q4 79 46 117q40 39 93 39q40 0 86 -27q48 -27 76 -27q53 0 62 53h76
q-4 -82 -48 -121q-43 -38 -95 -38q-49 0 -98 28q-50 29 -71 29t-35 -16.5t-14 -36.5z" />
    <glyph glyph-name="notequal" unicode="&#x2260;" horiz-adv-x="609" 
d="M565 454l-17 -123h-159l-50 -76h198l-17 -122h-262l-67 -102h-113l68 102h-96l17 122h159l51 76h-199l17 123h263l68 102h111l-67 -102h95z" />
    <glyph glyph-name="lessequal" unicode="&#x2264;" horiz-adv-x="563" 
d="M509 332l-23 -160l-426 154l22 156l469 149l-23 -159l-159 -38l-139 -25l-1 -9l126 -26zM484 158l-22 -158h-448l22 158h448z" />
    <glyph glyph-name="greaterequal" unicode="&#x2265;" horiz-adv-x="563" 
d="M520 326l-470 -154l22 160l166 42l134 26l1 9l-134 25l-147 38l23 159l427 -149zM474 0h-449l22 158h449z" />
    <glyph glyph-name="filledbox" unicode="&#x25a0;" horiz-adv-x="929" 
d="M170 1v728h717v-728h-717z" />
    <glyph glyph-name="uni25A1" unicode="&#x25a1;" horiz-adv-x="818" 
d="M114 0v729h718v-729h-718zM761 658h-574v-586h574v586z" />
    <glyph glyph-name="triagup" unicode="&#x25b2;" horiz-adv-x="895" 
d="M-1 0l410 737l412 -737h-822z" />
    <glyph glyph-name="uni25B3" unicode="&#x25b3;" horiz-adv-x="888" 
d="M807 0h-801l399 738zM407 582l-271 -503h542z" />
    <glyph glyph-name="lozenge" unicode="&#x25ca;" horiz-adv-x="2154" 
d="M1049 -10q-135 0 -214 100t-79 268q0 96 28 170.5t76.5 119.5t109.5 68t132 23q120 0 202 -62q82 -61 100 -164h-156q-36 86 -147 86q-90 0 -137 -62t-47 -175q0 -115 46.5 -175t129.5 -60q67 0 109 33t52 92h-162v143h324v-395h-111l-16 119h-35q-16 -61 -71 -95
t-134 -34zM1551 576q-34 0 -56.5 23t-22.5 59q0 35 22.5 58t56.5 23q35 0 55.5 -22.5t20.5 -58.5q0 -37 -20.5 -59.5t-55.5 -22.5zM1749 576q-34 0 -55 23t-21 59q0 35 21.5 58t54.5 23q36 0 58.5 -23t22.5 -58q0 -36 -22.5 -59t-58.5 -23zM375 0h-271v729h271
q161 0 248.5 -92.5t87.5 -270.5t-88.5 -272t-247.5 -94zM1951 572h-36v126h-38v31h118v-31h-44v-126zM2049 572h-34v157h63l17 -127l23 127h61v-157h-40v135l-17 -135h-52l-21 135v-135zM210 109l26 -26q29 29 52.5 40.5t60.5 11.5h26q32 0 69 15q31 12 52 33q24 24 41 72
t17 108q0 59 -16 106t-39 70q-21 23 -49 36q-37 19 -75 19h-26q-29 0 -52 10q-26 12 -32 17l-29 27l-26 -30q0 -2 7 -9t7 -8q5 -2 20 -27q15 -22 15 -71v-276q-3 -51 -16 -74l-10 -15q-9 -15 -23 -29zM1647 0h-149v491h141l7 -58h27q12 36 49 56t90 20v-147
q-165 16 -165 -148v-214z" />
    <glyph glyph-name="circle" unicode="&#x25cb;" horiz-adv-x="766" 
d="M32 365q0 163 105 268t263 105t263 -105t105 -268q0 -165 -105 -270t-263 -105t-263 105t-105 270zM400 59q125 0 209 86q85 85 85 220q0 133 -85 218q-84 86 -209 86t-209 -86q-84 -85 -84 -218t84 -220q86 -86 209 -86z" />
    <glyph glyph-name="uni25CF" unicode="&#x25cf;" horiz-adv-x="891" 
d="M464 -10q-157 0 -262 107q-105 108 -105 269q0 158 105 265t262 107q155 0 259 -107t104 -265q0 -160 -104 -269q-104 -107 -259 -107z" />
    <glyph glyph-name="uni262E" unicode="&#x262e;" horiz-adv-x="813" 
d="M424 737q159 0 263 -104q105 -103 105 -270q0 -166 -104 -272q-104 -105 -264 -105t-264 105q-104 106 -104 272t104 270t264 104zM736 363q0 137 -81 225q-82 89 -205 98v-300l260 -162q26 64 26 139zM396 386v300q-124 -10 -205 -99q-80 -89 -80 -224q0 -77 27 -139z
M396 321l-233 -145q38 -60 98.5 -96t134.5 -42v283zM450 321v-283q74 5 135.5 41.5t99.5 96.5z" />
    <glyph glyph-name="uni2639" unicode="&#x2639;" horiz-adv-x="815" 
d="M54 365q0 162 107 267q107 106 264 106q156 0 263 -106q108 -106 108 -267q0 -163 -108 -269q-106 -106 -263 -106t-264 105q-107 107 -107 270zM109 365q0 -125 77 -216q36 51 100.5 81.5t138.5 30.5q75 0 139 -30.5t100 -81.5q77 94 77 216q0 139 -93 230
q-92 92 -222 92q-131 0 -225 -92q-92 -92 -92 -230zM294 438q0 51 14.5 79t39.5 28q24 0 38 -29.5t14 -77.5q0 -107 -52 -107q-26 0 -40 29t-14 78zM451 438q0 50 15 78.5t40 28.5q53 0 53 -107t-53 -107q-26 0 -40.5 29t-14.5 78zM225 113q90 -72 201 -72q110 0 199 72
q-24 44 -79.5 70t-119.5 26q-66 0 -121.5 -26.5t-79.5 -69.5z" />
    <glyph glyph-name="smileface" unicode="&#x263a;" horiz-adv-x="815" 
d="M425 738q156 0 263 -106q108 -106 108 -267q0 -163 -108 -269q-106 -106 -263 -106t-264 105q-107 107 -107 270q0 162 107 267q107 106 264 106zM426 41q132 0 223 93q92 95 92 231q0 139 -93 230q-92 92 -222 92q-131 0 -225 -92q-92 -92 -92 -230t92 -232
q94 -92 225 -92zM348 331q-26 0 -40 29t-14 78q0 51 14.5 79t39.5 28q24 0 38 -29.5t14 -77.5q0 -107 -52 -107zM506 331q-26 0 -40.5 29t-14.5 78q0 50 15 78.5t40 28.5q53 0 53 -107t-53 -107zM584 314v17h106v-17h-25q-13 -86 -82 -139q-67 -51 -158 -51q-93 0 -160 52
q-67 53 -80 138h-24v17h108v-17h-28q11 -65 62 -102q53 -38 123 -38q74 0 123 39q51 39 62 101h-27z" />
    <glyph glyph-name="uni2708" unicode="&#x2708;" horiz-adv-x="861" 
d="M152 207h-50l35 159l-35 159h50l69 -108l210 12l-99 276h90l144 -239q15 -23 48 -25l59 4q60 4 109 -21t49 -58q0 -35 -49 -60q-49 -24 -109 -20l-59 4q-34 -2 -48 -24l-144 -240h-90l99 276l-210 14z" />
    <glyph glyph-name="uni2713" unicode="&#x2713;" horiz-adv-x="835" 
d="M310 240l377 361l98 -116l-486 -460l-240 283l108 99z" />
    <glyph glyph-name="uni2714" unicode="&#x2714;" horiz-adv-x="1286" 
d="M1115 732l111 -196q-229 -109 -464 -283q-228 -168 -350 -322q-143 197 -342 373l130 135q143 -117 225 -256q115 156 300 301q181 143 390 248z" />
    <glyph glyph-name="uni2776" unicode="&#x2776;" horiz-adv-x="891" 
d="M465 -9q-163 0 -276 110q-111 111 -111 274q0 161 111 272q112 112 276 112q162 0 273 -112q111 -111 111 -272q0 -163 -111 -274q-112 -110 -273 -110zM448 421v-267h89v422h-82v-1q0 -35 -25 -59.5t-66 -24.5h-33v-70h117z" />
    <glyph glyph-name="uni2777" unicode="&#x2777;" horiz-adv-x="892" 
d="M466 -9q-164 0 -276 111q-111 111 -111 274q0 162 111 273q112 111 276 111q163 0 274 -111t111 -273q0 -163 -111 -274t-274 -111zM328 168v-14h279v79h-116l-54 -4q18 30 102 93q71 54 71 131q0 58 -37.5 94t-100.5 36q-66 0 -108.5 -37.5t-43.5 -99.5l90 -5
q-2 30 13 47t42 17q38 0 51.5 -32t-16.5 -70q-16 -18 -56 -49.5t-48 -38.5q-68 -59 -68 -147z" />
    <glyph glyph-name="uni2778" unicode="&#x2778;" horiz-adv-x="892" 
d="M465 -9q-162 0 -275 110q-112 111 -112 273t112 274t275 112q162 0 273 -112q112 -112 112 -274t-112 -273q-112 -110 -273 -110zM466 148q64 0 104.5 34.5t40.5 90.5q0 33 -18 60.5t-48 39.5v4q56 26 56 89q0 52 -37.5 84t-100.5 32q-68 0 -107 -36.5t-38 -96.5h90
q0 56 53 56q22 0 35.5 -12.5t13.5 -33.5q0 -23 -16 -37t-44 -14h-28v-77h39q26 0 42.5 -14.5t16.5 -37.5q0 -24 -15.5 -38.5t-41.5 -14.5q-24 0 -38.5 15.5t-14.5 40.5h-89q-1 -62 39 -98t106 -36z" />
    <glyph glyph-name="uni2779" unicode="&#x2779;" horiz-adv-x="895" 
d="M467 -9q-163 0 -276 111q-112 111 -112 274q0 162 112 273q113 111 276 111t275 -111t112 -273q0 -163 -112 -274t-275 -111zM484 245v-91h88v91h44v77h-44v254h-134l-140 -259v-72h186zM484 322h-88l88 161v-161z" />
    <glyph glyph-name="uni277A" unicode="&#x277a;" horiz-adv-x="891" 
d="M465 -9q-163 0 -276 110q-111 109 -111 273q0 162 112 274t275 112q162 0 273 -112q112 -112 112 -274t-112 -273q-112 -110 -273 -110zM469 149q70 0 111.5 40.5t41.5 107.5q0 63 -37 103t-97 40q-50 0 -72 -24l-4 2l2 36v46h182v76h-268v-247h84q12 35 57 35
q28 0 46 -20t18 -51q0 -29 -18 -48t-45 -19t-44 16.5t-18 43.5h-89q-1 -60 41.5 -98.5t108.5 -38.5z" />
    <glyph glyph-name="uni277B" unicode="&#x277b;" horiz-adv-x="917" 
d="M465 -9q-163 0 -276 110q-111 111 -111 274q0 161 111 272q112 112 276 112q162 0 273 -112q111 -111 111 -272q0 -163 -111 -274q-112 -110 -273 -110zM476 148q68 0 111 41.5t43 106.5q0 62 -36.5 102t-94.5 40q-66 0 -90 -44h-3q0 58 16.5 85t54.5 27q45 0 56 -38h90
q-6 52 -45.5 83t-97.5 31q-78 0 -122 -58.5t-44 -161.5q0 -102 42 -158t120 -56zM478 226q-29 0 -46 18.5t-17 48.5t18 50.5t45 20.5q28 0 45 -19.5t17 -50.5t-17 -49.5t-45 -18.5z" />
    <glyph glyph-name="uni277C" unicode="&#x277c;" horiz-adv-x="895" 
d="M78 374q0 162 112 274t276 112q163 0 275 -112t112 -274t-112 -273q-113 -110 -275 -110q-164 0 -276 111t-112 272zM369 154h95q33 200 156 361v61h-292v-144h67v68h116q-54 -69 -91.5 -161t-50.5 -185z" />
    <glyph glyph-name="uni277D" unicode="&#x277d;" horiz-adv-x="892" 
d="M465 -9q-163 0 -275 111t-112 272q0 162 112 274t275 112q162 0 273 -112q112 -112 112 -274t-112 -273q-112 -110 -273 -110zM464 148q70 0 112.5 32t42.5 87q0 31 -16.5 57.5t-45.5 38.5v5q29 13 45.5 38.5t16.5 56.5q0 54 -42 86.5t-113 32.5q-69 0 -111 -32t-42 -87
q0 -31 16.5 -56.5t44.5 -38.5v-5q-28 -13 -44.5 -39t-16.5 -56q0 -54 41 -87t112 -33zM464 401q-27 0 -44.5 14t-17.5 38t16.5 38t45.5 14q28 0 45 -14t17 -38t-16.5 -38t-45.5 -14zM464 226q-28 0 -45 14t-17 38t16.5 38t45.5 14q27 0 44.5 -14t17.5 -38t-16.5 -38
t-45.5 -14z" />
    <glyph glyph-name="uni277E" unicode="&#x277e;" horiz-adv-x="895" 
d="M467 -9q-163 0 -276 110q-112 111 -112 275q0 161 112 272q112 112 276 112q162 0 274 -112q113 -111 113 -272q0 -164 -113 -275q-113 -110 -274 -110zM468 148q78 0 121 58t43 163q0 102 -41.5 157.5t-119.5 55.5q-68 0 -110.5 -41.5t-42.5 -106.5q0 -62 36 -101
t94 -39q66 0 91 42h3q0 -112 -71 -112q-46 0 -57 38h-89q6 -52 45 -83t98 -31zM471 366q-29 0 -46.5 19t-17.5 50q0 33 17 52t47 19q27 0 44 -19.5t17 -49.5q0 -31 -17 -51t-44 -20z" />
    <glyph glyph-name="uni2780" unicode="&#x2780;" horiz-adv-x="891" 
d="M465 -9q-163 0 -276 110q-111 111 -111 274q0 161 111 272q112 112 276 112q162 0 273 -112q111 -111 111 -272q0 -163 -111 -274q-112 -110 -273 -110zM465 37q142 0 240 98q98 100 98 240q0 142 -98 240t-240 98q-144 0 -242 -98q-97 -97 -97 -240q0 -142 98 -240
t241 -98zM448 154v267h-117v70h33q42 0 66.5 24t24.5 60v1h82v-422h-89z" />
    <glyph glyph-name="uni2781" unicode="&#x2781;" horiz-adv-x="891" 
d="M465 759q162 0 273 -112q111 -111 111 -272q0 -163 -111 -274q-112 -110 -273 -110q-163 0 -276 110q-111 111 -111 274q0 161 111 272q112 112 276 112zM465 37q142 0 240 98q98 100 98 240q0 142 -98 240t-240 98q-144 0 -242 -98q-97 -97 -97 -240q0 -142 98 -240
t241 -98zM610 453q0 -52 -34 -92q-31 -37 -80 -73q-47 -35 -60 -58l55 3h115v-79h-279v14q0 35 11 65t32.5 54.5t38 38.5t42.5 33q68 51 68 93q0 25 -15 39t-40 14q-27 0 -42 -17.5t-13 -46.5l-90 5q1 62 43.5 99.5t108.5 37.5q63 0 101 -36t38 -94z" />
    <glyph glyph-name="uni2782" unicode="&#x2782;" horiz-adv-x="891" 
d="M465 -9q-163 0 -276 110q-111 111 -111 274q0 161 111 272q112 112 276 112q162 0 273 -112q111 -111 111 -272q0 -163 -111 -274q-112 -110 -273 -110zM465 37q142 0 240 98q98 100 98 240q0 142 -98 240t-240 98q-144 0 -242 -98q-97 -97 -97 -240q0 -142 98 -240
t241 -98zM466 148q-66 0 -106 36t-39 98h89q0 -25 14.5 -40.5t38.5 -15.5q26 0 41.5 14.5t15.5 38.5q0 23 -16.5 37.5t-42.5 14.5h-39v77h28q28 0 44 14t16 37q0 21 -13.5 33.5t-35.5 12.5q-53 0 -53 -56h-90q-1 60 38 96.5t107 36.5q63 0 100.5 -32t37.5 -84q0 -63 -56 -89
v-4q30 -12 48 -39.5t18 -60.5q0 -56 -40.5 -90.5t-104.5 -34.5z" />
    <glyph glyph-name="uni2783" unicode="&#x2783;" horiz-adv-x="891" 
d="M465 -9q-163 0 -276 110q-111 111 -111 274q0 161 111 272q112 112 276 112q162 0 273 -112q111 -111 111 -272q0 -163 -111 -274q-112 -110 -273 -110zM465 37q142 0 240 98q98 100 98 240q0 142 -98 240t-240 98q-144 0 -242 -98q-97 -97 -97 -240q0 -142 98 -240
t241 -98zM571 154h-88v91h-186v72l140 259h134v-254h44v-77h-44v-91zM483 483l-88 -161h88v161z" />
    <glyph glyph-name="uni2784" unicode="&#x2784;" horiz-adv-x="891" 
d="M465 -9q-163 0 -276 110q-111 111 -111 274q0 161 111 272q112 112 276 112q162 0 273 -112q111 -111 111 -272q0 -163 -111 -274q-112 -110 -273 -110zM465 37q142 0 240 98q98 100 98 240q0 142 -98 240t-240 98q-144 0 -242 -98q-97 -97 -97 -240q0 -142 98 -240
t241 -98zM469 149q-66 0 -108.5 38.5t-41.5 98.5h89q1 -27 18 -43.5t44 -16.5t45 19t18 48q0 31 -18 51t-46 20q-45 0 -57 -35h-84v247h268v-76h-182v-46l-2 -36l4 -2q22 24 72 24q60 0 97 -40t37 -103q0 -67 -41.5 -107.5t-111.5 -40.5z" />
    <glyph glyph-name="uni2785" unicode="&#x2785;" horiz-adv-x="891" 
d="M465 -9q-163 0 -276 110q-111 111 -111 274q0 161 111 272q112 112 276 112q162 0 273 -112q111 -111 111 -272q0 -163 -111 -274q-112 -110 -273 -110zM465 37q142 0 240 98q98 100 98 240q0 142 -98 240t-240 98q-144 0 -242 -98q-97 -97 -97 -240q0 -142 98 -240
t241 -98zM476 148q-78 0 -120 56t-42 158q0 103 44 161.5t122 58.5q58 0 97.5 -31t45.5 -83h-90q-11 38 -56 38q-38 0 -54.5 -27t-16.5 -85h3q24 44 90 44q58 0 94.5 -40t36.5 -102q0 -65 -43 -106.5t-111 -41.5zM478 226q28 0 45 18.5t17 49.5t-17 50.5t-45 19.5
q-27 0 -45 -20.5t-18 -50.5t17 -48.5t46 -18.5z" />
    <glyph glyph-name="uni2786" unicode="&#x2786;" horiz-adv-x="891" 
d="M78 375q0 161 111 272q112 112 276 112q162 0 273 -112q111 -111 111 -272q0 -163 -111 -274q-112 -110 -273 -110q-163 0 -276 110q-111 111 -111 274zM465 37q142 0 240 98q98 100 98 240q0 142 -98 240t-240 98q-144 0 -242 -98q-97 -97 -97 -240q0 -142 98 -240
t241 -98zM395 432h-67v144h292v-61q-123 -161 -156 -361h-95q13 93 50.5 185t91.5 161h-116v-68z" />
    <glyph glyph-name="uni2787" unicode="&#x2787;" horiz-adv-x="891" 
d="M465 -9q-163 0 -276 110q-111 111 -111 274q0 161 111 272q112 112 276 112q162 0 273 -112q111 -111 111 -272q0 -163 -111 -274q-112 -110 -273 -110zM465 37q142 0 240 98q98 100 98 240q0 142 -98 240t-240 98q-144 0 -242 -98q-97 -97 -97 -240q0 -142 98 -240
t241 -98zM464 148q-71 0 -112 33t-41 87q0 30 16.5 56t44.5 39v5q-28 13 -44.5 38.5t-16.5 56.5q0 55 42 87t111 32q71 0 113 -32.5t42 -86.5q0 -31 -16.5 -56.5t-45.5 -38.5v-5q29 -12 45.5 -38.5t16.5 -57.5q0 -55 -42.5 -87t-112.5 -32zM464 401q29 0 45.5 14t16.5 38
t-17 38t-45 14q-29 0 -45.5 -14t-16.5 -38t17.5 -38t44.5 -14zM464 226q29 0 45.5 14t16.5 38t-17.5 38t-44.5 14q-29 0 -45.5 -14t-16.5 -38t17 -38t45 -14z" />
    <glyph glyph-name="uni2788" unicode="&#x2788;" horiz-adv-x="891" 
d="M78 375q0 161 111 272q112 112 276 112q162 0 273 -112q111 -111 111 -272q0 -163 -111 -274q-112 -110 -273 -110q-163 0 -276 110q-111 111 -111 274zM465 37q142 0 240 98q98 100 98 240q0 142 -98 240t-240 98q-144 0 -242 -98q-97 -97 -97 -240q0 -142 98 -240
t241 -98zM317 434q0 65 42.5 106.5t110.5 41.5q78 0 119.5 -55.5t41.5 -157.5q0 -105 -43 -163t-121 -58q-58 0 -97 31t-46 83h89q11 -38 57 -38q71 0 71 112h-3q-26 -42 -91 -42q-57 0 -93.5 39t-36.5 101zM406 435q0 -31 17.5 -50t46.5 -19q27 0 44 20t17 51
q0 30 -17 49.5t-44 19.5q-30 0 -47 -19t-17 -52z" />
    <glyph glyph-name="uniECE0" unicode="&#xece0;" horiz-adv-x="1026" 
d="M216 311v-250l-100 -75v743h369l-83 -106h-186v-209h134q19 140 122 232q101 91 240 91q90 0 171 -44t132 -122l-85 -63q-35 57 -95.5 91t-124.5 34q-109 0 -184 -80q-74 -80 -74 -188t74 -190q75 -80 184 -80q65 0 124.5 33t94.5 92l86 -63q-52 -79 -132.5 -123
t-170.5 -44q-137 0 -240 91q-103 92 -122 230h-134zM709 246q30 0 58 18t44 49l83 -64q-30 -50 -78 -77.5t-105 -27.5q-88 0 -153 65q-63 65 -63 156q0 89 63 154q65 65 153 65q55 0 104 -28t79 -78l-83 -63q-15 29 -43 47t-59 18q-47 0 -78.5 -33.5t-31.5 -81.5
q0 -47 32 -84q32 -35 78 -35z" />
    <glyph glyph-name="uniEFCC" unicode="&#xefcc;" horiz-adv-x="1180" 
d="M120 361q0 166 100 269q101 104 262 104q20 0 38 -2v-117q-24 3 -37 3q-111 0 -180 -72q-68 -71 -68 -185t68 -185q69 -71 180 -71q26 0 37 3v-118q-24 -2 -38 -2q-162 0 -262 103t-100 270zM745 366q0 166 96 267q98 101 260 101q20 0 44 -2v-117q-24 3 -40 3
q-92 0 -155.5 -50.5t-83.5 -146.5h203v-110h-203q20 -96 83.5 -146.5t155.5 -50.5q29 0 40 3v-118q-26 -2 -44 -2q-163 0 -260 100q-96 101 -96 269z" />
    <glyph glyph-name="uniF8FF" unicode="&#xf8ff;" horiz-adv-x="639" 
d="M441 632q-16 -21 -43 -36.5t-48 -19.5l-18 -3l-1 10q-6 57 31 104q22 29 51 46.5t49 18.5l17 2q-1 -2 1 -19q2 -16 -8.5 -47t-30.5 -56zM223 0q-44 0 -89 53q-45 56 -73 134q-28 80 -28 156q0 104 53 166q54 62 124 62q28 0 70 -17t56 -17q15 0 56 18q42 18 80 18
q51 0 87 -23t49 -45l5 -8q-21 -16 -28 -22q-52 -48 -52 -120q0 -58 29.5 -96t59.5 -53l10 -5q-5 -19 -28 -70q-14 -33 -33 -61q-20 -29 -48 -49t-55 -20q-19 0 -59 14q-37 15 -62 15t-66 -15t-58 -15z" />
    <glyph glyph-name="NULL" 
 />
    <glyph glyph-name="CR" horiz-adv-x="333" 
 />
    <glyph glyph-name="uni00A40301" horiz-adv-x="427" 
d="M544 1026l55 -114l-257 -136l-42 80zM162 161l20 144l59 424h187l-59 -424l-23 -158q-7 -45 -19 -71q-31 -71 -148 -76h-202l23 161h162z" />
    <glyph glyph-name="G.ss01" horiz-adv-x="773" 
d="M38 286q0 197 118 324q119 128 301 128q133 0 213 -67q81 -68 80 -176h-194q-8 37 -41.5 59t-84.5 22q-75 0 -123.5 -45t-59.5 -123l-13 -97q-11 -80 27.5 -123.5t116.5 -43.5q62 0 108.5 30t59.5 79h-165l21 143h360l-10 -73q-22 -157 -132 -246q-108 -87 -268 -87
q-149 0 -231.5 78.5t-82.5 217.5z" />
    <glyph glyph-name="Gbreve.ss01" horiz-adv-x="773" 
d="M559 937h105q-10 -75 -62.5 -122t-131.5 -47q-77 0 -116 47t-29 122h105q-5 -35 9 -54t44 -19q65 0 76 73zM38 286q0 197 118 324q119 128 301 128q133 0 213 -67q81 -68 80 -176h-194q-8 37 -41.5 59t-84.5 22q-75 0 -123.5 -45t-59.5 -123l-13 -97q-11 -80 27.5 -123.5
t116.5 -43.5q62 0 108.5 30t59.5 79h-165l21 143h360l-10 -73q-22 -157 -132 -246q-108 -87 -268 -87q-149 0 -231.5 78.5t-82.5 217.5z" />
    <glyph glyph-name="uni0122.ss01" horiz-adv-x="773" 
d="M38 286q0 197 118 324q119 128 301 128q133 0 213 -67q81 -68 80 -176h-194q-8 37 -41.5 59t-84.5 22q-75 0 -123.5 -45t-59.5 -123l-13 -97q-11 -80 27.5 -123.5t116.5 -43.5q62 0 108.5 30t59.5 79h-165l21 143h360l-10 -73q-22 -157 -132 -246q-108 -87 -268 -87
q-149 0 -231.5 78.5t-82.5 217.5zM297 -303v48q56 0 56 58v10h-56v137h133v-116q0 -66 -35 -101.5t-98 -35.5z" />
    <glyph glyph-name="Gdotaccent.ss01" horiz-adv-x="773" 
d="M540 779h-133l22 155h133zM38 286q0 197 118 324q119 128 301 128q133 0 213 -67q81 -68 80 -176h-194q-8 37 -41.5 59t-84.5 22q-75 0 -123.5 -45t-59.5 -123l-13 -97q-11 -80 27.5 -123.5t116.5 -43.5q62 0 108.5 30t59.5 79h-165l21 143h360l-10 -73
q-22 -157 -132 -246q-108 -87 -268 -87q-149 0 -231.5 78.5t-82.5 217.5z" />
    <glyph glyph-name="R.ss02" horiz-adv-x="719" 
d="M218 0h-187l102 729h356q112 0 169 -51.5t57 -146.5q0 -90 -42.5 -158t-117.5 -95l-1 -8q23 -9 36.5 -33.5t26.5 -72.5l44 -164h-205l-48 169q-10 39 -28 51.5t-65 12.5h-65zM297 563l-26 -180h149q38 0 61 18.5t28 49.5l7 46q4 32 -15.5 49t-56.5 17h-147z" />
    <glyph glyph-name="Racute.ss02" horiz-adv-x="719" 
d="M703 912l-257 -136l-42 80l244 170zM218 0h-187l102 729h356q112 0 169 -51.5t57 -146.5q0 -90 -42.5 -158t-117.5 -95l-1 -8q23 -9 36.5 -33.5t26.5 -72.5l44 -164h-205l-48 169q-10 39 -28 51.5t-65 12.5h-65zM297 563l-26 -180h149q38 0 61 18.5t28 49.5l7 46
q4 32 -15.5 49t-56.5 17h-147z" />
    <glyph glyph-name="Rcaron.ss02" horiz-adv-x="719" 
d="M397 774l-127 144l93 80l97 -123l130 123l71 -80l-167 -144h-97zM218 0h-187l102 729h356q112 0 169 -51.5t57 -146.5q0 -90 -42.5 -158t-117.5 -95l-1 -8q23 -9 36.5 -33.5t26.5 -72.5l44 -164h-205l-48 169q-10 39 -28 51.5t-65 12.5h-65zM297 563l-26 -180h149
q38 0 61 18.5t28 49.5l7 46q4 32 -15.5 49t-56.5 17h-147z" />
    <glyph glyph-name="uni0156.ss02" horiz-adv-x="719" 
d="M218 0h-187l102 729h356q112 0 169 -51.5t57 -146.5q0 -90 -42.5 -158t-117.5 -95l-1 -8q23 -9 36.5 -33.5t26.5 -72.5l44 -164h-205l-48 169q-10 39 -28 51.5t-65 12.5h-65zM297 563l-26 -180h149q38 0 61 18.5t28 49.5l7 46q4 32 -15.5 49t-56.5 17h-147zM271 -303v48
q56 0 56 58v10h-56v137h133v-116q0 -66 -35 -101.5t-98 -35.5z" />
    <glyph glyph-name="O.ss03" horiz-adv-x="781" 
d="M39 292q0 192 119 319q118 127 299 127q143 0 228 -83q84 -82 84 -223q0 -193 -118 -317q-119 -125 -299 -125q-148 0 -230 81q-83 83 -83 221zM249 416l-15 -104q-11 -74 27 -117t113 -43q76 0 125.5 43t60.5 117l15 104q10 75 -28 117.5t-113 42.5q-76 0 -125 -43
t-60 -117zM464 297h-141l19 135h141z" />
    <glyph glyph-name="Oacute.ss03" horiz-adv-x="781" 
d="M654 912l-257 -136l-42 80l244 170zM39 292q0 192 119 319q118 127 299 127q143 0 228 -83q84 -82 84 -223q0 -193 -118 -317q-119 -125 -299 -125q-148 0 -230 81q-83 83 -83 221zM249 416l-15 -104q-11 -74 27 -117t113 -43q76 0 125.5 43t60.5 117l15 104
q10 75 -28 117.5t-113 42.5q-76 0 -125 -43t-60 -117zM464 297h-141l19 135h141z" />
    <glyph glyph-name="Ocircumflex.ss03" horiz-adv-x="781" 
d="M283 775l-72 81l167 142h98l127 -142l-94 -81l-96 122zM39 292q0 192 119 319q118 127 299 127q143 0 228 -83q84 -82 84 -223q0 -193 -118 -317q-119 -125 -299 -125q-148 0 -230 81q-83 83 -83 221zM249 416l-15 -104q-11 -74 27 -117t113 -43q76 0 125.5 43t60.5 117
l15 104q10 75 -28 117.5t-113 42.5q-76 0 -125 -43t-60 -117zM464 297h-141l19 135h141z" />
    <glyph glyph-name="Odieresis.ss03" horiz-adv-x="781" 
d="M354 779h-132l22 155h132zM571 779h-133l22 155h133zM39 292q0 192 119 319q118 127 299 127q143 0 228 -83q84 -82 84 -223q0 -193 -118 -317q-119 -125 -299 -125q-148 0 -230 81q-83 83 -83 221zM249 416l-15 -104q-11 -74 27 -117t113 -43q76 0 125.5 43t60.5 117
l15 104q10 75 -28 117.5t-113 42.5q-76 0 -125 -43t-60 -117zM464 297h-141l19 135h141z" />
    <glyph glyph-name="Ograve.ss03" horiz-adv-x="781" 
d="M462 856l-65 -80l-220 136l88 114zM39 292q0 192 119 319q118 127 299 127q143 0 228 -83q84 -82 84 -223q0 -193 -118 -317q-119 -125 -299 -125q-148 0 -230 81q-83 83 -83 221zM249 416l-15 -104q-11 -74 27 -117t113 -43q76 0 125.5 43t60.5 117l15 104
q10 75 -28 117.5t-113 42.5q-76 0 -125 -43t-60 -117zM464 297h-141l19 135h141z" />
    <glyph glyph-name="Ohungarumlaut.ss03" horiz-adv-x="781" 
d="M521 902l-251 -139l-42 80l238 170zM777 900l-253 -137l-40 80l237 169zM39 292q0 192 119 319q118 127 299 127q143 0 228 -83q84 -82 84 -223q0 -193 -118 -317q-119 -125 -299 -125q-148 0 -230 81q-83 83 -83 221zM249 416l-15 -104q-11 -74 27 -117t113 -43
q76 0 125.5 43t60.5 117l15 104q10 75 -28 117.5t-113 42.5q-76 0 -125 -43t-60 -117zM464 297h-141l19 135h141z" />
    <glyph glyph-name="Omacron.ss03" horiz-adv-x="781" 
d="M584 778h-376l18 132h376zM39 292q0 192 119 319q118 127 299 127q143 0 228 -83q84 -82 84 -223q0 -193 -118 -317q-119 -125 -299 -125q-148 0 -230 81q-83 83 -83 221zM249 416l-15 -104q-11 -74 27 -117t113 -43q76 0 125.5 43t60.5 117l15 104q10 75 -28 117.5
t-113 42.5q-76 0 -125 -43t-60 -117zM464 297h-141l19 135h141z" />
    <glyph glyph-name="Otilde.ss03" horiz-adv-x="781" 
d="M458 768q-30 2 -62 20q-34 19 -57 19q-30 0 -68 -38l-62 46q58 112 147 110q27 0 61 -19q34 -18 59 -18q14 0 26 5.5t17.5 10t14.5 14.5l8 9l64 -44q-27 -57 -66 -86.5t-82 -28.5zM39 292q0 192 119 319q118 127 299 127q143 0 228 -83q84 -82 84 -223q0 -193 -118 -317
q-119 -125 -299 -125q-148 0 -230 81q-83 83 -83 221zM249 416l-15 -104q-11 -74 27 -117t113 -43q76 0 125.5 43t60.5 117l15 104q10 75 -28 117.5t-113 42.5q-76 0 -125 -43t-60 -117zM464 297h-141l19 135h141z" />
    <glyph glyph-name="A.ss04" horiz-adv-x="752" 
d="M377 729h127l206 -282l-63 -447h-187l20 144h-243l-20 -144h-187l63 447zM273 403l-16 -116h244l16 116l-95 140h-13z" />
    <glyph glyph-name="Aacute.ss04" horiz-adv-x="752" 
d="M650 1026l55 -114l-257 -136l-42 80zM377 729h127l206 -282l-63 -447h-187l20 144h-243l-20 -144h-187l63 447zM273 403l-16 -116h244l16 116l-95 140h-13z" />
    <glyph glyph-name="Abreve.ss04" horiz-adv-x="752" 
d="M445 767q-77 0 -116 47t-29 122h105q-5 -35 9 -54t44 -19q65 0 76 73h105q-10 -75 -62.5 -122t-131.5 -47zM377 729h127l206 -282l-63 -447h-187l20 144h-243l-20 -144h-187l63 447zM273 403l-16 -116h244l16 116l-95 140h-13z" />
    <glyph glyph-name="Acircumflex.ss04" horiz-adv-x="752" 
d="M560 774l-96 122l-130 -122l-72 81l167 142h98l127 -142zM377 729h127l206 -282l-63 -447h-187l20 144h-243l-20 -144h-187l63 447zM273 403l-16 -116h244l16 116l-95 140h-13z" />
    <glyph glyph-name="Adieresis.ss04" horiz-adv-x="752" 
d="M295 934h132l-22 -155h-132zM511 934h133l-22 -155h-133zM377 729h127l206 -282l-63 -447h-187l20 144h-243l-20 -144h-187l63 447zM273 403l-16 -116h244l16 116l-95 140h-13z" />
    <glyph glyph-name="Agrave.ss04" horiz-adv-x="752" 
d="M316 1026l197 -170l-65 -80l-220 136zM377 729h127l206 -282l-63 -447h-187l20 144h-243l-20 -144h-187l63 447zM273 403l-16 -116h244l16 116l-95 140h-13z" />
    <glyph glyph-name="Amacron.ss04" horiz-adv-x="752" 
d="M277 909h376l-18 -132h-376zM377 729h127l206 -282l-63 -447h-187l20 144h-243l-20 -144h-187l63 447zM273 403l-16 -116h244l16 116l-95 140h-13z" />
    <glyph glyph-name="Aogonek.ss04" horiz-adv-x="752" 
d="M541 -79q0 -38 59 -38q21 0 57 11l-12 -88q-37 -17 -90 -17q-55 0 -87 26.5t-32 71.5q0 67 60 113h-36l20 144h-243l-20 -144h-187l63 447l284 282h127l206 -282l-63 -447q-50 -6 -78 -27t-28 -52zM273 403l-16 -116h244l16 116l-95 140h-13z" />
    <glyph glyph-name="Aring.ss04" horiz-adv-x="752" 
d="M516 712l194 -265l-63 -447h-187l20 144h-243l-20 -144h-187l63 447l267 265q-42 30 -42 86q0 62 44 106q43 43 109 43q53 0 85.5 -29.5t32.5 -77.5q0 -84 -73 -128zM460 865q-21 0 -35 -15.5t-14 -38.5q0 -37 36 -37q21 0 35 15.5t14 38.5q0 17 -10 27t-26 10zM273 403
l-16 -116h244l16 116l-95 140h-13z" />
    <glyph glyph-name="Atilde.ss04" horiz-adv-x="752" 
d="M390 806q-30 0 -68 -38l-62 46q58 112 147 110q27 0 61 -19q34 -18 59 -18q14 0 26 5.5t17.5 10t13.5 13.5l9 10l64 -44q-27 -57 -66 -86.5t-82 -28.5q-30 2 -62 20q-34 19 -57 19zM377 729h127l206 -282l-63 -447h-187l20 144h-243l-20 -144h-187l63 447zM273 403
l-16 -116h244l16 116l-95 140h-13z" />
    <glyph glyph-name="V.ss04" horiz-adv-x="753" 
d="M70 281l63 448h180l-56 -404l95 -139h14l134 139l56 404h193l-63 -448l-284 -281h-128z" />
    <glyph glyph-name="W.ss04" horiz-adv-x="956" 
d="M202 0l-136 253l67 476h186l-60 -426l46 -93h15l78 94l32 232h171l-32 -232l50 -94h15l72 93l60 426h186l-67 -476l-206 -253h-138l-79 159l-124 -159h-136z" />
    <glyph glyph-name="Wacute.ss04" horiz-adv-x="956" 
d="M807 912l-257 -136l-42 80l244 170zM202 0l-136 253l67 476h186l-60 -426l46 -93h15l78 94l32 232h171l-32 -232l50 -94h15l72 93l60 426h186l-67 -476l-206 -253h-138l-79 159l-124 -159h-136z" />
    <glyph glyph-name="Wcircumflex.ss04" horiz-adv-x="956" 
d="M436 775l-72 81l167 142h98l127 -142l-94 -81l-96 122zM202 0l-136 253l67 476h186l-60 -426l46 -93h15l78 94l32 232h171l-32 -232l50 -94h15l72 93l60 426h186l-67 -476l-206 -253h-138l-79 159l-124 -159h-136z" />
    <glyph glyph-name="Wdieresis.ss04" horiz-adv-x="956" 
d="M507 779h-132l22 155h132zM724 779h-133l22 155h133zM202 0l-136 253l67 476h186l-60 -426l46 -93h15l78 94l32 232h171l-32 -232l50 -94h15l72 93l60 426h186l-67 -476l-206 -253h-138l-79 159l-124 -159h-136z" />
    <glyph glyph-name="Wgrave.ss04" horiz-adv-x="956" 
d="M614 856l-65 -80l-220 136l88 114zM202 0l-136 253l67 476h186l-60 -426l46 -93h15l78 94l32 232h171l-32 -232l50 -94h15l72 93l60 426h186l-67 -476l-206 -253h-138l-79 159l-124 -159h-136z" />
    <glyph glyph-name="Y.ss04" horiz-adv-x="712" 
d="M536 729h192l-37 -266l-249 -246l-30 -217h-187l30 216l-180 247l37 266h180l-30 -222l95 -138h14l134 138z" />
    <glyph glyph-name="Yacute.ss04" horiz-adv-x="712" 
d="M629 1026l55 -114l-257 -136l-42 80zM536 729h192l-37 -266l-249 -246l-30 -217h-187l30 216l-180 247l37 266h180l-30 -222l95 -138h14l134 138z" />
    <glyph glyph-name="Ycircumflex.ss04" horiz-adv-x="712" 
d="M539 775l-96 122l-130 -122l-72 81l167 142h98l127 -142zM536 729h192l-37 -266l-249 -246l-30 -217h-187l30 216l-180 247l37 266h180l-30 -222l95 -138h14l134 138z" />
    <glyph glyph-name="Ydieresis.ss04" horiz-adv-x="712" 
d="M274 934h132l-22 -155h-132zM490 934h133l-22 -155h-133zM536 729h192l-37 -266l-249 -246l-30 -217h-187l30 216l-180 247l37 266h180l-30 -222l95 -138h14l134 138z" />
    <glyph glyph-name="Ygrave.ss04" horiz-adv-x="712" 
d="M295 1026l197 -170l-65 -80l-220 136zM536 729h192l-37 -266l-249 -246l-30 -217h-187l30 216l-180 247l37 266h180l-30 -222l95 -138h14l134 138z" />
    <glyph glyph-name="i.loclTRK" horiz-adv-x="280" 
d="M273 592h-170l28 155h170zM191 0h-176l76 541h175z" />
    <glyph glyph-name="uni006A0301" horiz-adv-x="286" 
d="M393 838l55 -114l-257 -136l-42 80zM15 -30l17 117l64 454h175l-65 -454l-15 -107q-7 -45 -19 -71q-31 -71 -147 -76h-134l19 137h105z" />
    <glyph glyph-name="s.001" horiz-adv-x="541" 
d="M23 172h173q-3 -29 16 -44t57 -15q31 0 48 12t17 33q0 27 -46 36l-80 16q-38 7 -71 22q-75 32 -80 116q0 91 73 146q74 57 189 57q104 0 160 -47t47 -125h-173q4 25 -10.5 37t-46.5 12q-27 0 -42.5 -11t-15.5 -30q0 -10 6 -16t12 -8.5t20.5 -6t21.5 -5.5l85 -20
q133 -31 133 -136q0 -91 -76 -148t-198 -57q-114 0 -173 50t-46 132z" />
    <glyph glyph-name="germandbls.alt01" horiz-adv-x="703" 
d="M670 587l-118 -156q56 -18 87 -60t31 -101q0 -120 -89 -195t-230 -75h-69l22 155h64q43 0 70 19t32 51l6 46q4 33 -16.5 50.5t-59.5 17.5h-81l152 211q-26 35 -84 35q-40 0 -67 -21.5t-31 -59.5l-71 -504h-187l67 479q17 122 100 190.5t213 68.5q94 0 163 -40.5
t96 -110.5z" />
    <glyph glyph-name="a.ss01" horiz-adv-x="654" 
d="M487 541h153l-76 -541h-176l13 97h-9q-27 -50 -76 -78.5t-111 -28.5q-88 0 -136.5 55.5t-48.5 157.5q0 153 73 250q74 98 186 98q60 0 103.5 -28t58.5 -79h10zM424 252l4 38q7 55 -19 87t-80 32q-107 0 -120 -99l-11 -78q-13 -101 93 -101q52 0 88.5 32.5t44.5 88.5z" />
    <glyph glyph-name="aacute.ss01" horiz-adv-x="654" 
d="M551 726l-257 -136l-42 80l244 170zM487 541h153l-76 -541h-176l13 97h-9q-27 -50 -76 -78.5t-111 -28.5q-88 0 -136.5 55.5t-48.5 157.5q0 153 73 250q74 98 186 98q60 0 103.5 -28t58.5 -79h10zM424 252l4 38q7 55 -19 87t-80 32q-107 0 -120 -99l-11 -78
q-13 -101 93 -101q52 0 88.5 32.5t44.5 88.5z" />
    <glyph glyph-name="abreve.ss01" horiz-adv-x="654" 
d="M380 750h105q-10 -75 -62.5 -122t-131.5 -47q-77 0 -116 47t-29 122h105q-5 -35 9 -54t44 -19q65 0 76 73zM487 541h153l-76 -541h-176l13 97h-9q-27 -50 -76 -78.5t-111 -28.5q-88 0 -136.5 55.5t-48.5 157.5q0 153 73 250q74 98 186 98q60 0 103.5 -28t58.5 -79h10z
M424 252l4 38q7 55 -19 87t-80 32q-107 0 -120 -99l-11 -78q-13 -101 93 -101q52 0 88.5 32.5t44.5 88.5z" />
    <glyph glyph-name="acircumflex.ss01" horiz-adv-x="654" 
d="M180 588l-72 81l167 142h98l127 -142l-94 -81l-96 122zM487 541h153l-76 -541h-176l13 97h-9q-27 -50 -76 -78.5t-111 -28.5q-88 0 -136.5 55.5t-48.5 157.5q0 153 73 250q74 98 186 98q60 0 103.5 -28t58.5 -79h10zM424 252l4 38q7 55 -19 87t-80 32q-107 0 -120 -99
l-11 -78q-13 -101 93 -101q52 0 88.5 32.5t44.5 88.5z" />
    <glyph glyph-name="adieresis.ss01" horiz-adv-x="654" 
d="M332 589h-132l22 156h132zM549 589h-133l22 156h133zM487 541h153l-76 -541h-176l13 97h-9q-27 -50 -76 -78.5t-111 -28.5q-88 0 -136.5 55.5t-48.5 157.5q0 153 73 250q74 98 186 98q60 0 103.5 -28t58.5 -79h10zM424 252l4 38q7 55 -19 87t-80 32q-107 0 -120 -99
l-11 -78q-13 -101 93 -101q52 0 88.5 32.5t44.5 88.5z" />
    <glyph glyph-name="agrave.ss01" horiz-adv-x="654" 
d="M358 670l-65 -80l-220 136l88 114zM487 541h153l-76 -541h-176l13 97h-9q-27 -50 -76 -78.5t-111 -28.5q-88 0 -136.5 55.5t-48.5 157.5q0 153 73 250q74 98 186 98q60 0 103.5 -28t58.5 -79h10zM424 252l4 38q7 55 -19 87t-80 32q-107 0 -120 -99l-11 -78
q-13 -101 93 -101q52 0 88.5 32.5t44.5 88.5z" />
    <glyph glyph-name="amacron.ss01" horiz-adv-x="654" 
d="M481 592h-376l18 132h376zM487 541h153l-76 -541h-176l13 97h-9q-27 -50 -76 -78.5t-111 -28.5q-88 0 -136.5 55.5t-48.5 157.5q0 153 73 250q74 98 186 98q60 0 103.5 -28t58.5 -79h10zM424 252l4 38q7 55 -19 87t-80 32q-107 0 -120 -99l-11 -78q-13 -101 93 -101
q52 0 88.5 32.5t44.5 88.5z" />
    <glyph glyph-name="aogonek.ss01" horiz-adv-x="654" 
d="M564 0h-15q-50 -6 -78 -27t-28 -52q0 -38 59 -38q21 0 57 11l-12 -88q-37 -17 -90 -17q-55 0 -87 26.5t-32 71.5q0 67 60 113h-10l13 97h-9q-27 -50 -76 -78.5t-111 -28.5q-88 0 -136.5 55.5t-48.5 157.5q0 153 73 250q74 98 186 98q60 0 103.5 -28t58.5 -79h10l36 97
h153zM291 131q52 0 88.5 32.5t44.5 88.5l4 38q7 55 -19 87t-80 32q-107 0 -120 -99l-11 -78q-13 -101 93 -101z" />
    <glyph glyph-name="aring.ss01" horiz-adv-x="654" 
d="M451 444l36 97h153l-76 -541h-176l13 97h-9q-27 -50 -76 -78.5t-111 -28.5q-88 0 -136.5 55.5t-48.5 157.5q0 121 47 210q48 89 128 122q-31 28 -31 77q0 62 44 106q43 43 109 43q53 0 85.5 -29.5t32.5 -77.5q0 -80 -66 -123q55 -29 72 -87h10zM306 679q-21 0 -35 -15.5
t-14 -38.5q0 -37 36 -37q21 0 35 15.5t14 38.5q0 17 -10 27t-26 10zM424 252l4 38q7 55 -19 87t-80 32q-107 0 -120 -99l-11 -78q-13 -101 93 -101q52 0 88.5 32.5t44.5 88.5z" />
    <glyph glyph-name="atilde.ss01" horiz-adv-x="654" 
d="M355 582q-30 2 -62 20q-34 19 -57 19q-30 0 -68 -38l-62 46q58 112 147 110q27 0 61 -19q35 -18 59 -18q14 0 26 5.5t17.5 10t13.5 14.5l9 9l64 -44q-27 -57 -66 -86.5t-82 -28.5zM487 541h153l-76 -541h-176l13 97h-9q-27 -50 -76 -78.5t-111 -28.5q-88 0 -136.5 55.5
t-48.5 157.5q0 153 73 250q74 98 186 98q60 0 103.5 -28t58.5 -79h10zM424 252l4 38q7 55 -19 87t-80 32q-107 0 -120 -99l-11 -78q-13 -101 93 -101q52 0 88.5 32.5t44.5 88.5z" />
    <glyph glyph-name="g.ss01" horiz-adv-x="654" 
d="M27 233q0 138 73 227q73 91 183 91q60 0 103.5 -28t58.5 -79h10l36 97h153l-68 -487q-17 -111 -101 -170q-85 -61 -216 -61q-117 0 -181 48q-64 46 -59 125h174q2 -23 25 -36.5t59 -13.5q51 0 82 23t37 63l15 103h-10q-27 -50 -75.5 -78.5t-110.5 -28.5q-88 0 -138 54.5
t-50 150.5zM215 320l-9 -60q-7 -44 18.5 -67.5t75.5 -23.5q53 0 88.5 31t42.5 80l3 20q8 48 -19.5 78.5t-81.5 30.5q-52 0 -82 -24t-36 -65z" />
    <glyph glyph-name="gbreve.ss01" horiz-adv-x="654" 
d="M394 749h105q-10 -75 -62.5 -122t-131.5 -47q-77 0 -116 47t-29 122h105q-5 -35 9 -54t44 -19q65 0 76 73zM27 233q0 138 73 227q73 91 183 91q60 0 103.5 -28t58.5 -79h10l36 97h153l-68 -487q-17 -111 -101 -170q-85 -61 -216 -61q-117 0 -181 48q-64 46 -59 125h174
q2 -23 25 -36.5t59 -13.5q51 0 82 23t37 63l15 103h-10q-27 -50 -75.5 -78.5t-110.5 -28.5q-88 0 -138 54.5t-50 150.5zM215 320l-9 -60q-7 -44 18.5 -67.5t75.5 -23.5q53 0 88.5 31t42.5 80l3 20q8 48 -19.5 78.5t-81.5 30.5q-52 0 -82 -24t-36 -65z" />
    <glyph glyph-name="uni0123.ss01" horiz-adv-x="654" 
d="M368 844v-48q-56 0 -56 -58v-10h56v-137h-134v116q0 65 35.5 101t98.5 36zM27 233q0 138 73 227q73 91 183 91q60 0 103.5 -28t58.5 -79h10l36 97h153l-68 -487q-17 -111 -101 -170q-85 -61 -216 -61q-117 0 -181 48q-64 46 -59 125h174q2 -23 25 -36.5t59 -13.5
q51 0 82 23t37 63l15 103h-10q-27 -50 -75.5 -78.5t-110.5 -28.5q-88 0 -138 54.5t-50 150.5zM215 320l-9 -60q-7 -44 18.5 -67.5t75.5 -23.5q53 0 88.5 31t42.5 80l3 20q8 48 -19.5 78.5t-81.5 30.5q-52 0 -82 -24t-36 -65z" />
    <glyph glyph-name="gdotaccent.ss01" horiz-adv-x="654" 
d="M374 591h-133l22 155h133zM27 233q0 138 73 227q73 91 183 91q60 0 103.5 -28t58.5 -79h10l36 97h153l-68 -487q-17 -111 -101 -170q-85 -61 -216 -61q-117 0 -181 48q-64 46 -59 125h174q2 -23 25 -36.5t59 -13.5q51 0 82 23t37 63l15 103h-10q-27 -50 -75.5 -78.5
t-110.5 -28.5q-88 0 -138 54.5t-50 150.5zM215 320l-9 -60q-7 -44 18.5 -67.5t75.5 -23.5q53 0 88.5 31t42.5 80l3 20q8 48 -19.5 78.5t-81.5 30.5q-52 0 -82 -24t-36 -65z" />
    <glyph glyph-name="a.ss02" horiz-adv-x="556" 
d="M-3 123q0 92 61 147q62 56 161 56h129l5 35q4 28 -12.5 43t-49.5 15t-54.5 -15.5t-24.5 -40.5h-171q20 93 91.5 140.5t184.5 47.5q120 0 171.5 -53t38.5 -154l-48 -344h-153l-6 88h-9q-50 -98 -173 -98q-66 0 -103.5 35.5t-37.5 97.5zM180 181l-2 -18q-2 -21 10.5 -31.5
t39.5 -10.5q42 0 71 24.5t33 63.5l2 11h-95q-24 0 -40.5 -10.5t-18.5 -28.5z" />
    <glyph glyph-name="aacute.ss02" horiz-adv-x="556" 
d="M580 725l-257 -136l-42 80l244 170zM-3 123q0 92 61 147q62 56 161 56h129l5 35q4 28 -12.5 43t-49.5 15t-54.5 -15.5t-24.5 -40.5h-171q20 93 91.5 140.5t184.5 47.5q120 0 171.5 -53t38.5 -154l-48 -344h-153l-6 88h-9q-50 -98 -173 -98q-66 0 -103.5 35.5t-37.5 97.5z
M180 181l-2 -18q-2 -21 10.5 -31.5t39.5 -10.5q42 0 71 24.5t33 63.5l2 11h-95q-24 0 -40.5 -10.5t-18.5 -28.5z" />
    <glyph glyph-name="abreve.ss02" horiz-adv-x="556" 
d="M409 750h105q-10 -75 -62.5 -122t-131.5 -47q-77 0 -116 47t-29 122h105q-5 -35 9 -54t44 -19q65 0 76 73zM-3 123q0 92 61 147q62 56 161 56h129l5 35q4 28 -12.5 43t-49.5 15t-54.5 -15.5t-24.5 -40.5h-171q20 93 91.5 140.5t184.5 47.5q120 0 171.5 -53t38.5 -154
l-48 -344h-153l-6 88h-9q-50 -98 -173 -98q-66 0 -103.5 35.5t-37.5 97.5zM180 181l-2 -18q-2 -21 10.5 -31.5t39.5 -10.5q42 0 71 24.5t33 63.5l2 11h-95q-24 0 -40.5 -10.5t-18.5 -28.5z" />
    <glyph glyph-name="acircumflex.ss02" horiz-adv-x="556" 
d="M209 588l-72 81l167 142h98l127 -142l-94 -81l-96 122zM-3 123q0 92 61 147q62 56 161 56h129l5 35q4 28 -12.5 43t-49.5 15t-54.5 -15.5t-24.5 -40.5h-171q20 93 91.5 140.5t184.5 47.5q120 0 171.5 -53t38.5 -154l-48 -344h-153l-6 88h-9q-50 -98 -173 -98
q-66 0 -103.5 35.5t-37.5 97.5zM180 181l-2 -18q-2 -21 10.5 -31.5t39.5 -10.5q42 0 71 24.5t33 63.5l2 11h-95q-24 0 -40.5 -10.5t-18.5 -28.5z" />
    <glyph glyph-name="adieresis.ss02" horiz-adv-x="556" 
d="M280 592h-132l22 155h132zM497 592h-133l22 155h133zM-3 123q0 92 61 147q62 56 161 56h129l5 35q4 28 -12.5 43t-49.5 15t-54.5 -15.5t-24.5 -40.5h-171q20 93 91.5 140.5t184.5 47.5q120 0 171.5 -53t38.5 -154l-48 -344h-153l-6 88h-9q-50 -98 -173 -98
q-66 0 -103.5 35.5t-37.5 97.5zM180 181l-2 -18q-2 -21 10.5 -31.5t39.5 -10.5q42 0 71 24.5t33 63.5l2 11h-95q-24 0 -40.5 -10.5t-18.5 -28.5z" />
    <glyph glyph-name="agrave.ss02" horiz-adv-x="556" 
d="M387 669l-65 -80l-220 136l88 114zM-3 123q0 92 61 147q62 56 161 56h129l5 35q4 28 -12.5 43t-49.5 15t-54.5 -15.5t-24.5 -40.5h-171q20 93 91.5 140.5t184.5 47.5q120 0 171.5 -53t38.5 -154l-48 -344h-153l-6 88h-9q-50 -98 -173 -98q-66 0 -103.5 35.5t-37.5 97.5z
M180 181l-2 -18q-2 -21 10.5 -31.5t39.5 -10.5q42 0 71 24.5t33 63.5l2 11h-95q-24 0 -40.5 -10.5t-18.5 -28.5z" />
    <glyph glyph-name="amacron.ss02" horiz-adv-x="556" 
d="M510 591h-376l18 132h376zM-3 123q0 92 61 147q62 56 161 56h129l5 35q4 28 -12.5 43t-49.5 15t-54.5 -15.5t-24.5 -40.5h-171q20 93 91.5 140.5t184.5 47.5q120 0 171.5 -53t38.5 -154l-48 -344h-153l-6 88h-9q-50 -98 -173 -98q-66 0 -103.5 35.5t-37.5 97.5zM180 181
l-2 -18q-2 -21 10.5 -31.5t39.5 -10.5q42 0 71 24.5t33 63.5l2 11h-95q-24 0 -40.5 -10.5t-18.5 -28.5z" />
    <glyph glyph-name="aogonek.ss02" horiz-adv-x="556" 
d="M479 0h-3q-50 -6 -78 -27t-28 -52q0 -38 59 -38q21 0 57 11l-12 -88q-37 -17 -90 -17q-55 0 -87 26.5t-32 71.5q0 69 61 114l-6 87h-9q-50 -98 -173 -98q-66 0 -103.5 35.5t-37.5 97.5q0 92 61 147q62 56 161 56h129l5 35q4 28 -12.5 43t-49.5 15t-54.5 -15.5
t-24.5 -40.5h-171q20 93 91.5 140.5t184.5 47.5q120 0 171.5 -53t38.5 -154zM228 121q42 0 71 24.5t33 63.5l2 11h-95q-24 0 -40.5 -10.5t-18.5 -28.5l-2 -18q-2 -21 10.5 -31.5t39.5 -10.5z" />
    <glyph glyph-name="aring.ss02" horiz-adv-x="556" 
d="M412 540q136 -37 115 -196l-48 -344h-153l-6 88h-9q-50 -98 -173 -98q-66 0 -103.5 35.5t-37.5 97.5q0 92 61 147q62 56 161 56h129l5 35q4 28 -12.5 43t-49.5 15t-54.5 -15.5t-24.5 -40.5h-171q29 139 177 177q-25 28 -25 71q0 62 44 106q43 43 109 43q53 0 85.5 -29.5
t32.5 -77.5q0 -70 -52 -113zM335 678q-21 0 -35 -15.5t-14 -38.5q0 -37 36 -37q21 0 35 15.5t14 38.5q0 17 -10 27t-26 10zM332 209l2 11h-95q-24 0 -40.5 -10.5t-18.5 -28.5l-2 -18q-2 -21 10.5 -31.5t39.5 -10.5q42 0 71 24.5t33 63.5z" />
    <glyph glyph-name="atilde.ss02" horiz-adv-x="556" 
d="M384 581q-30 2 -62 20q-34 19 -57 19q-30 0 -68 -38l-62 46q58 112 147 110q27 0 61 -19q35 -18 59 -18q14 0 26 5.5t17.5 10t14.5 13.5l8 10l64 -44q-27 -57 -66 -86.5t-82 -28.5zM-3 123q0 92 61 147q62 56 161 56h129l5 35q4 28 -12.5 43t-49.5 15t-54.5 -15.5
t-24.5 -40.5h-171q20 93 91.5 140.5t184.5 47.5q120 0 171.5 -53t38.5 -154l-48 -344h-153l-6 88h-9q-50 -98 -173 -98q-66 0 -103.5 35.5t-37.5 97.5zM180 181l-2 -18q-2 -21 10.5 -31.5t39.5 -10.5q42 0 71 24.5t33 63.5l2 11h-95q-24 0 -40.5 -10.5t-18.5 -28.5z" />
    <glyph glyph-name="o.ss03" horiz-adv-x="597" 
d="M20 218q0 145 89 239q88 94 229 94q111 0 175.5 -60t64.5 -167q0 -146 -90 -240q-88 -94 -228 -94q-111 0 -175.5 60.5t-64.5 167.5zM209 313l-12 -86q-14 -95 83 -95q47 0 75 24.5t34 70.5l12 86q14 95 -82 95t-110 -95zM336 229h-86l12 84h85z" />
    <glyph glyph-name="oacute.ss03" horiz-adv-x="597" 
d="M562 724l-257 -136l-42 80l244 170zM20 218q0 145 89 239q88 94 229 94q111 0 175.5 -60t64.5 -167q0 -146 -90 -240q-88 -94 -228 -94q-111 0 -175.5 60.5t-64.5 167.5zM209 313l-12 -86q-14 -95 83 -95q47 0 75 24.5t34 70.5l12 86q14 95 -82 95t-110 -95zM336 229h-86
l12 84h85z" />
    <glyph glyph-name="ocircumflex.ss03" horiz-adv-x="597" 
d="M192 586l-72 81l167 142h98l127 -142l-94 -81l-96 122zM20 218q0 145 89 239q88 94 229 94q111 0 175.5 -60t64.5 -167q0 -146 -90 -240q-88 -94 -228 -94q-111 0 -175.5 60.5t-64.5 167.5zM209 313l-12 -86q-14 -95 83 -95q47 0 75 24.5t34 70.5l12 86q14 95 -82 95
t-110 -95zM336 229h-86l12 84h85z" />
    <glyph glyph-name="odieresis.ss03" horiz-adv-x="597" 
d="M262 591h-132l22 155h132zM479 591h-133l22 155h133zM20 218q0 145 89 239q88 94 229 94q111 0 175.5 -60t64.5 -167q0 -146 -90 -240q-88 -94 -228 -94q-111 0 -175.5 60.5t-64.5 167.5zM209 313l-12 -86q-14 -95 83 -95q47 0 75 24.5t34 70.5l12 86q14 95 -82 95
t-110 -95zM336 229h-86l12 84h85z" />
    <glyph glyph-name="ograve.ss03" horiz-adv-x="597" 
d="M370 668l-65 -80l-220 136l88 114zM20 218q0 145 89 239q88 94 229 94q111 0 175.5 -60t64.5 -167q0 -146 -90 -240q-88 -94 -228 -94q-111 0 -175.5 60.5t-64.5 167.5zM209 313l-12 -86q-14 -95 83 -95q47 0 75 24.5t34 70.5l12 86q14 95 -82 95t-110 -95zM336 229h-86
l12 84h85z" />
    <glyph glyph-name="ohungarumlaut.ss03" horiz-adv-x="597" 
d="M429 714l-251 -139l-42 80l238 170zM685 712l-253 -137l-40 80l237 169zM20 218q0 145 89 239q88 94 229 94q111 0 175.5 -60t64.5 -167q0 -146 -90 -240q-88 -94 -228 -94q-111 0 -175.5 60.5t-64.5 167.5zM209 313l-12 -86q-14 -95 83 -95q47 0 75 24.5t34 70.5l12 86
q14 95 -82 95t-110 -95zM336 229h-86l12 84h85z" />
    <glyph glyph-name="omacron.ss03" horiz-adv-x="597" 
d="M493 590h-376l18 132h376zM20 218q0 145 89 239q88 94 229 94q111 0 175.5 -60t64.5 -167q0 -146 -90 -240q-88 -94 -228 -94q-111 0 -175.5 60.5t-64.5 167.5zM209 313l-12 -86q-14 -95 83 -95q47 0 75 24.5t34 70.5l12 86q14 95 -82 95t-110 -95zM336 229h-86l12 84h85
z" />
    <glyph glyph-name="otilde.ss03" horiz-adv-x="597" 
d="M367 580q-30 2 -62 20q-34 19 -57 19q-30 0 -68 -38l-62 46q58 112 147 110q27 0 61 -19q34 -18 59 -18q14 0 26 5.5t17.5 10t13.5 14.5l9 9l64 -44q-27 -57 -66 -86.5t-82 -28.5zM20 218q0 145 89 239q88 94 229 94q111 0 175.5 -60t64.5 -167q0 -146 -90 -240
q-88 -94 -228 -94q-111 0 -175.5 60.5t-64.5 167.5zM209 313l-12 -86q-14 -95 83 -95q47 0 75 24.5t34 70.5l12 86q14 95 -82 95t-110 -95zM336 229h-86l12 84h85z" />
    <glyph glyph-name="h_t_t_p" horiz-adv-x="2007" 
d="M167 768h1812l-133 -953h-671l73 521h-139l-28 -195h89l-17 -120h-114q-66 0 -94 29.5t-17 99.5l27 186h-168l-27 -195h89l-16 -120h-115q-65 0 -93 29.5t-17 99.5l26 186h-82l16 121h83l19 139h154l-20 -139h167l20 139h154l-20 -139h273l8 -88h9q24 46 69 71.5t97 25.5
q76 0 119.5 -48.5t43.5 -131.5q0 -115 -65 -195q-65 -78 -161 -78q-116 0 -141 94h-8l-28 -203h419l108 774h-1615l-43 -306h9q54 94 169 94q79 0 112.5 -52.5t20.5 -147.5l-34 -245h-153l32 230q7 44 -11 68t-55 24q-44 0 -73 -30t-36 -79l-46 -330h992l-13 -89h-1090z
M1389 251l-3 -22q-5 -39 18.5 -66t67.5 -27q49 0 82.5 35t33.5 87q0 39 -23 62.5t-62 23.5q-42 0 -75.5 -28t-38.5 -65z" />
    <glyph glyph-name="w_w_w" horiz-adv-x="2009" 
d="M298 0h-188l-68 541h170l13 -203l7 -177h6l113 380h162l4 -382h5l130 382h170l19 -380h6l114 380h162l4 -382h5l130 382h170l19 -380h6l115 380h162l4 -382h5l54 177l75 205h170l-224 -541h-187l-8 318h-6l-98 -318h-189l-21 279l-101 -279h-187l-8 318h-6l-99 -318h-188
l-22 276l-99 -276h-188l-8 318h-6z" />
    <glyph glyph-name="zero.ss01" horiz-adv-x="636" 
d="M43 261q0 212 94 340q95 129 249 129q115 0 175 -69.5t60 -201.5q0 -212 -94 -340q-93 -129 -245 -129q-117 0 -178 69.5t-61 201.5zM258 470l-31 -220q-7 -55 10 -80.5t65 -25.5q46 0 71.5 24.5t33.5 81.5l31 220q8 56 -11 81t-65 25q-49 0 -73 -26t-31 -80zM379 312
h-111l14 100h111z" />
    <glyph glyph-name="zero.tf" horiz-adv-x="600" 
d="M377 730q115 0 175 -69.5t60 -201.5q0 -212 -94 -340q-93 -129 -245 -129q-117 0 -178 69.5t-61 201.5q0 212 94 340q94 129 249 129zM353 576q-48 0 -71.5 -26t-32.5 -80l-8 -56l188 113q-12 49 -76 49zM293 144q46 0 71.5 24.5t33.5 81.5l13 92l-195 -117
q-2 -42 16.5 -61.5t60.5 -19.5z" />
    <glyph glyph-name="one.tf" horiz-adv-x="598" 
d="M451 721l-79 -564h198v-157h-548v157h170l42 298h-188l20 137h31q69 0 120 35.5t65 93.5h169z" />
    <glyph glyph-name="two.tf" horiz-adv-x="601" 
d="M460 280l-138 -125l78 2h171l-22 -157h-507l17 120l300 279q57 52 61 88l4 25q4 30 -16 47.5t-54 17.5q-37 0 -62.5 -21.5t-29.5 -57.5l-3 -23h-176l3 21q14 102 96 168t205 66q104 0 164.5 -51t60.5 -138q0 -88 -51 -156q-23 -31 -46 -54t-55 -51z" />
    <glyph glyph-name="three.tf" horiz-adv-x="601" 
d="M310 -10q-126 0 -191.5 61.5t-49.5 166.5h181q-5 -36 16 -56t63 -20q39 0 65.5 17.5t30.5 46.5l4 28q4 31 -13.5 47t-53.5 16h-103l20 140h84q36 0 58.5 15.5t25.5 41.5l3 23q4 30 -14.5 46t-55.5 16q-39 0 -64 -19.5t-30 -55.5h-181q13 102 95 164q83 62 208 62
q106 0 168 -45t62 -123q0 -60 -30.5 -107t-87.5 -73l-1 -6q90 -39 90 -140q0 -109 -84 -178q-83 -68 -215 -68z" />
    <glyph glyph-name="four.tf" horiz-adv-x="601" 
d="M591 721l-62 -440h85l-20 -146h-85l-19 -135h-180l19 135h-323l19 133l302 453h264zM387 548l-178 -267h140z" />
    <glyph glyph-name="five.tf" horiz-adv-x="601" 
d="M58 228h182q-5 -37 18 -59.5t65 -22.5q44 0 71.5 20.5t32.5 56.5l6 41q5 35 -17.5 55t-65.5 20q-34 0 -61.5 -15.5t-38.5 -41.5h-171l82 439h462l-22 -156h-304l-19 -103l7 -2q43 28 121 28q97 0 152.5 -54t55.5 -145q0 -132 -89 -216q-89 -83 -227 -83q-123 0 -190 65
q-65 67 -50 173z" />
    <glyph glyph-name="six.tf" horiz-adv-x="601" 
d="M37 263q0 212 94 339q95 128 252 128q106 0 166.5 -52t58.5 -141h-181q-8 44 -71 44q-110 0 -122 -152h7q49 61 148 61q91 0 144 -53t53 -143q0 -132 -87 -218q-86 -85 -221 -85q-119 0 -180 69.5t-61 202.5zM229 269l-6 -47q-6 -36 15 -56t62 -20t68 20t32 56l7 47
q6 36 -15.5 56.5t-62.5 20.5q-42 0 -68.5 -20.5t-31.5 -56.5z" />
    <glyph glyph-name="seven.tf" horiz-adv-x="601" 
d="M207 452h-142l37 269h538l-19 -130q-114 -129 -211 -288q-96 -157 -138 -303h-193q39 139 126 289q90 153 200 276h-182z" />
    <glyph glyph-name="eight.tf" horiz-adv-x="601" 
d="M263 -10q-119 0 -183.5 46.5t-64.5 128.5q0 64 33 115t93 77l1 8q-81 41 -81 129q0 108 84 172q83 64 224 64q119 0 183 -46t64 -128q0 -64 -33.5 -115t-92.5 -76l-1 -8q80 -39 80 -130q0 -108 -83 -173q-82 -64 -223 -64zM325 434q91 0 100 64l3 16q5 32 -16.5 47.5
t-65.5 15.5q-90 0 -100 -63l-2 -16q-5 -31 16 -47.5t65 -16.5zM286 144q89 0 98 66l3 17q5 31 -16.5 46.5t-65.5 15.5q-87 0 -98 -62l-3 -17q-5 -32 15.5 -49t66.5 -17z" />
    <glyph glyph-name="nine.tf" horiz-adv-x="601" 
d="M589 458q0 -213 -94 -340t-251 -127q-106 0 -167 52t-59 141h181q9 -44 71 -44q55 0 86 40.5t36 111.5h-7q-49 -61 -147 -61q-91 0 -144 52.5t-53 143.5q0 131 86 217q88 86 221 86q118 0 179.5 -70t61.5 -202zM396 452l7 47q6 36 -15.5 56t-62.5 20q-42 0 -68.5 -20
t-30.5 -56l-7 -47q-6 -36 16 -56.5t63 -20.5q40 0 66.5 20.5t31.5 56.5z" />
    <glyph glyph-name="zero.tf.ss01" horiz-adv-x="600" 
d="M377 730q115 0 175 -69.5t60 -201.5q0 -212 -94 -340q-93 -129 -245 -129q-117 0 -178 69.5t-61 201.5q0 212 94 340q94 129 249 129zM353 576q-48 0 -71.5 -26t-32.5 -80l-5 -33h180l5 33q8 56 -11 81t-65 25zM293 144q46 0 71.5 24.5t33.5 81.5l5 38h-180l-5 -38
q-7 -55 10 -80.5t65 -25.5z" />
    <glyph glyph-name="zero.dnom" horiz-adv-x="416" 
d="M170 -4q-75 0 -113.5 47.5t-38.5 133.5q0 138 61 223q62 86 160 86q76 0 114.5 -47.5t38.5 -133.5q0 -135 -62 -223q-62 -86 -160 -86zM182 91q43 0 69.5 60.5t26.5 156.5q0 84 -51 84q-43 0 -69.5 -60t-26.5 -156q0 -85 51 -85z" />
    <glyph glyph-name="one.dnom" horiz-adv-x="316" 
d="M152 306h-125l13 88h45q43 0 68.5 22.5t25.5 60.5v3h107l-67 -480h-110z" />
    <glyph glyph-name="two.dnom" horiz-adv-x="382" 
d="M137 92l57 3h126l-14 -95h-316l2 16q13 106 101 172q14 11 52.5 38t54.5 40t32.5 36.5t16.5 46.5q0 21 -13 32.5t-34 11.5q-27 0 -45 -19t-21 -50l-109 6q12 70 65 113t129 43q66 0 103 -33t37 -90q0 -81 -62 -140q-26 -24 -56 -45q-6 -4 -22.5 -16t-25.5 -18.5
t-21.5 -16.5t-21.5 -18.5t-15 -16.5z" />
    <glyph glyph-name="three.dnom" horiz-adv-x="374" 
d="M153 -7q-74 0 -114 42t-30 109h109q-3 -24 10.5 -39.5t36.5 -15.5q26 0 44.5 18t18.5 44q0 20 -14 32t-38 12h-43l13 99h30q31 0 50 17t19 43q0 37 -42 37q-26 0 -42 -15t-18 -40h-110q9 69 59 109.5t128 40.5q65 0 102 -29.5t37 -80.5q0 -41 -20.5 -73t-57.5 -48l-1 -5
q59 -26 59 -94q0 -70 -54 -117q-52 -46 -132 -46z" />
    <glyph glyph-name="four.dnom" horiz-adv-x="368" 
d="M355 480l-42 -301h46l-13 -96h-46l-12 -83h-108l11 83h-207l12 88l196 309h163zM230 356l-111 -177h86z" />
    <glyph glyph-name="five.dnom" horiz-adv-x="399" 
d="M17 150h111q-4 -27 12 -44t43 -17q30 0 52 24t22 58q0 26 -16 43t-41 17q-44 0 -64 -38h-104l41 287h307l-13 -95h-200l-5 -44l-9 -36l4 -3q31 23 80 23q60 0 96 -37t36 -98q0 -86 -58 -141q-58 -56 -143 -56q-76 0 -118 43.5t-33 113.5z" />
    <glyph glyph-name="six.dnom" horiz-adv-x="406" 
d="M14 174q0 138 63 225q65 87 165 87q67 0 106.5 -36t38.5 -96h-110q-2 17 -16 27.5t-36 10.5q-74 0 -90 -112h5q36 44 104 44q58 0 92 -35.5t34 -94.5q0 -85 -58 -143q-58 -57 -144 -57q-74 0 -114 46.5t-40 133.5zM130 147q0 -27 14.5 -42.5t40.5 -15.5q32 0 54 25t22 63
q0 26 -15 41.5t-40 15.5q-33 0 -54.5 -25t-21.5 -62z" />
    <glyph glyph-name="seven.dnom" horiz-adv-x="347" 
d="M39 480h333l-11 -79q-167 -167 -237 -401h-108q24 101 79.5 203t131.5 182h-118l-11 -75h-83z" />
    <glyph glyph-name="eight.dnom" horiz-adv-x="386" 
d="M-2 110q0 42 23 76.5t62 50.5v6q-54 24 -54 89q0 69 54.5 111.5t142.5 42.5q74 0 114.5 -30.5t40.5 -84.5q0 -42 -23.5 -77.5t-60.5 -50.5v-6q53 -24 53 -86q0 -71 -54 -115q-53 -43 -142 -43q-74 0 -115 31.5t-41 85.5zM141 330q0 -21 15 -32.5t40 -11.5q30 0 50 17
t20 43q0 21 -15 33t-40 12q-31 0 -50.5 -17.5t-19.5 -43.5zM113 132q0 -21 14.5 -33t40.5 -12q30 0 50 18t20 44q0 21 -15 33.5t-40 12.5q-30 0 -50 -18t-20 -45z" />
    <glyph glyph-name="nine.dnom" horiz-adv-x="406" 
d="M386 307q0 -140 -64 -226q-63 -87 -164 -87q-68 0 -107 36t-38 96h109q6 -37 54 -37q72 0 88 111h-5q-35 -44 -102 -44q-59 0 -93.5 35.5t-34.5 94.5q0 85 58 142q58 58 144 58q75 0 115 -46t40 -133zM269 335q0 26 -14 41.5t-39 15.5q-32 0 -54 -25.5t-22 -62.5
q0 -26 15 -42t41 -16q31 0 52 25.5t21 63.5z" />
    <glyph glyph-name="zero.numr" horiz-adv-x="416" 
d="M205 251q-75 0 -113.5 47t-38.5 133q0 136 61 219q61 85 160 85q76 0 114.5 -47t38.5 -132q0 -134 -62 -220q-61 -85 -160 -85zM217 345q43 0 69 59q27 60 27 153q0 84 -51 84q-43 0 -69.5 -58.5t-26.5 -152.5q0 -85 51 -85z" />
    <glyph glyph-name="one.numr" horiz-adv-x="316" 
d="M187 557h-125l13 87h45q43 0 68.5 22.5t25.5 59.5v3h107l-67 -473h-110z" />
    <glyph glyph-name="two.numr" horiz-adv-x="382" 
d="M173 346l57 3h126l-14 -94h-316l2 17q7 56 35.5 99.5t65 70.5t72 50t59.5 49.5t24 57.5q0 20 -13 31.5t-34 11.5q-27 0 -45 -18.5t-20 -49.5l-110 6q13 70 66 112.5t128 42.5q66 0 103.5 -33t37.5 -88q0 -50 -25.5 -93t-62.5 -69l-75 -53q-40 -28 -61 -53z" />
    <glyph glyph-name="three.numr" horiz-adv-x="374" 
d="M188 248q-75 0 -114.5 41.5t-29.5 107.5h110q-3 -23 10.5 -38.5t35.5 -15.5q26 0 44.5 18t18.5 43q0 20 -14.5 31.5t-36.5 11.5h-44l13 98h30q31 0 49.5 16.5t18.5 42.5q0 36 -42 36q-24 0 -40.5 -15t-18.5 -39h-110q8 67 58.5 108t128.5 41q65 0 102 -30t37 -79
q0 -86 -79 -119v-5q59 -26 59 -92q0 -70 -54 -116q-52 -46 -132 -46z" />
    <glyph glyph-name="four.numr" horiz-adv-x="368" 
d="M390 729l-41 -298h46l-13 -94h-46l-12 -81h-108l11 81h-207l12 87l195 305h163zM265 607l-110 -176h86z" />
    <glyph glyph-name="five.numr" horiz-adv-x="399" 
d="M53 403h111q-4 -26 12 -43.5t43 -17.5q30 0 52 24.5t22 57.5q0 26 -16 43t-41 17q-44 0 -64 -39h-104l40 284h308l-13 -95h-200l-6 -43l-8 -35l3 -3q31 23 80 23q62 0 97.5 -36.5t35.5 -96.5q0 -85 -58 -140q-56 -55 -143 -55q-76 0 -118 43t-33 112z" />
    <glyph glyph-name="six.numr" horiz-adv-x="406" 
d="M50 427q0 137 63 222q65 86 164 86q66 0 106.5 -35.5t39.5 -94.5h-110q-5 36 -53 36q-73 0 -89 -109h5q15 20 44.5 32t59.5 12q57 0 91.5 -36t34.5 -94q0 -83 -58 -140t-143 -57q-75 0 -115 45.5t-40 132.5zM166 400q0 -27 14.5 -42.5t40.5 -15.5q32 0 54 25.5t22 62.5
q0 26 -15 41.5t-40 15.5q-33 0 -54.5 -25t-21.5 -62z" />
    <glyph glyph-name="seven.numr" horiz-adv-x="347" 
d="M73 729h333l-10 -79q-81 -80 -143 -183.5t-93 -210.5h-108q27 100 80 197q55 101 129 181h-118l-10 -72h-83z" />
    <glyph glyph-name="eight.numr" horiz-adv-x="386" 
d="M33 364q0 42 22.5 75.5t61.5 49.5l1 6q-54 27 -54 88q0 68 54 110q55 42 143 42q73 0 113.5 -30.5t40.5 -83.5q0 -88 -83 -126l-1 -6q54 -25 54 -86q0 -69 -54 -112t-142 -43q-72 0 -114 31.5t-42 84.5zM176 581q0 -20 15 -32t40 -12q30 0 50 17t20 43q0 20 -15.5 31.5
t-39.5 11.5q-31 0 -50.5 -16.5t-19.5 -42.5zM149 386q0 -20 14.5 -32.5t39.5 -12.5q30 0 50 17.5t20 43.5q0 21 -15 33t-40 12q-30 0 -49.5 -17t-19.5 -44z" />
    <glyph glyph-name="nine.numr" horiz-adv-x="406" 
d="M420 557q0 -137 -63 -222q-63 -86 -164 -86q-66 0 -106 35.5t-39 95.5h109q8 -38 54 -38q72 0 87 110h-5q-14 -19 -42 -31t-59 -12q-59 0 -93.5 36t-34.5 94q0 84 58 139q58 57 144 57q74 0 114 -46t40 -132zM304 585q0 26 -14 41t-39 15q-33 0 -55 -24.5t-22 -61.5
q0 -27 15 -42.5t42 -15.5q31 0 52 25.5t21 62.5z" />
    <glyph glyph-name="numbersign.ss03" horiz-adv-x="633" 
d="M645 543l-32 -77h-94l-67 -179h118l-30 -77h-116l-78 -210h-88l78 210h-133l-77 -210h-89l77 210h-96l32 77h93l66 179h-116l32 77h112l77 208h89l-77 -208h133l77 208h88l-77 -208h98zM232 287h132l67 179h-133z" />
    <glyph glyph-name="parenleft.case" horiz-adv-x="290" 
d="M55 285q0 132 60 260q62 129 161 204h83q-95 -76 -156 -205q-60 -128 -60 -258q0 -92 29 -171.5t80 -133.5h-83q-114 108 -114 304z" />
    <glyph glyph-name="parenright.case" horiz-adv-x="290" 
d="M262 445q0 -134 -61 -260q-60 -128 -160 -204h-84q100 81 157 206q59 129 59 257q0 92 -28.5 171.5t-79.5 133.5h84q54 -51 83.5 -131t29.5 -173z" />
    <glyph glyph-name="braceleft.case" horiz-adv-x="282" 
d="M18 291l10 77q35 0 56.5 20.5t26.5 56.5l29 200q5 43 32 67t71 24h99l-9 -71h-107l-30 -215q-16 -101 -96 -115v-3q36 -10 52.5 -41t9.5 -77l-31 -224h106l-10 -73h-99q-44 0 -64 24t-14 69l30 209q11 72 -62 72z" />
    <glyph glyph-name="braceright.case" horiz-adv-x="282" 
d="M280 368l-10 -77q-34 0 -56.5 -18t-27.5 -54l-29 -209q-6 -44 -32.5 -68.5t-69.5 -24.5h-100l11 73h105l31 224q16 96 97 118v3q-77 16 -64 115l30 215h-105l11 71h99q43 0 62.5 -24t13.5 -67l-28 -200q-5 -34 11 -55.5t51 -21.5z" />
    <glyph glyph-name="bracketleft.case" horiz-adv-x="255" 
d="M201 -83h-197l118 842h197l-11 -75h-115l-97 -694h115z" />
    <glyph glyph-name="bracketright.case" horiz-adv-x="255" 
d="M153 -83h-198l11 73h116l97 694h-116l11 75h197z" />
    <glyph glyph-name="hyphen.case" horiz-adv-x="477" 
d="M430 323h-369l13 94h369z" />
    <glyph glyph-name="endash.case" horiz-adv-x="653" 
d="M606 323h-545l13 94h545z" />
    <glyph glyph-name="emdash.case" horiz-adv-x="849" 
d="M802 323h-741l13 94h741z" />
    <glyph glyph-name="hyphen_hyphen_greater" horiz-adv-x="858" 
d="M701 229h-591v94h591l-169 225h118l206 -271l-206 -277h-118z" />
    <glyph glyph-name="greater.case" horiz-adv-x="542" 
d="M494 302l-430 -213l24 166l128 56l158 52l1 9l-135 54l-119 63l22 159l369 -216z" />
    <glyph glyph-name="less.case" horiz-adv-x="542" 
d="M450 255l-23 -166l-369 213l18 130l429 216l-22 -159l-136 -63l-150 -54l-2 -9l142 -52z" />
    <glyph glyph-name="percent.tf" horiz-adv-x="588" 
d="M66 584q0 68 43 112q43 45 115 45t115 -46q44 -47 44 -114t-45 -112q-44 -45 -114 -45q-66 0 -113 45q-45 45 -45 115zM171 585q0 -29 14.5 -46.5t38.5 -17.5t39.5 17.5t15.5 46.5q0 25 -15.5 42t-39.5 17q-23 0 -38 -17.5t-15 -41.5zM610 437l-548 -214v76l548 216v-78z
M282 151q0 65 44 111q45 45 115 45q71 0 115 -45q45 -45 45 -112q0 -68 -45 -114t-115 -46q-67 0 -114 45q-45 45 -45 116zM388 152q0 -29 14.5 -46t38.5 -17t39.5 17t15.5 46q0 26 -15.5 43t-39.5 17q-23 0 -38 -17t-15 -43z" />
    <glyph glyph-name="perthousand.tf" horiz-adv-x="644" 
d="M227 437q-67 0 -114 42q-45 42 -45 109t45 109q47 42 114 42t113 -43q47 -42 47 -108q0 -65 -47 -109q-46 -42 -113 -42zM228 643q-23 0 -37.5 -15t-14.5 -40q0 -23 14 -37.5t37 -14.5q25 0 40 15t15 40q0 23 -15 37.5t-39 14.5zM97 338l548 214v-76l-548 -215v77z
M518 290q66 0 107.5 -41t41.5 -107q0 -68 -41.5 -110t-109.5 -42q-67 0 -115 53q-47 -53 -115 -53q-69 0 -110 41.5t-41 109.5q0 67 41 108q40 42 108 42q67 0 116 -55q50 54 118 54zM561 146q0 22 -15 36t-38 14t-38.5 -15t-15.5 -38q0 -24 15 -39t39 -15t38.5 15.5
t14.5 41.5zM292 86q25 0 40.5 16t15.5 41q0 22 -15 36.5t-38 14.5q-24 0 -39 -14.5t-15 -38.5t14.5 -39.5t36.5 -15.5z" />
    <glyph glyph-name="at.ss03" horiz-adv-x="905" 
d="M596 504h65l-54 -254q-12 -58 37 -58q55 0 91 63t36 160q0 111 -67 172t-187 61q-158 0 -260 -116t-102 -294q0 -127 80.5 -191t233.5 -64h185l-12 -90h-186q-196 0 -300.5 88.5t-104.5 248.5q-2 139 61.5 257t174.5 185.5t243 65.5q156 0 248 -87t92 -226
q0 -130 -70 -227q-69 -97 -163 -97q-87 0 -103 73h-7q-44 -68 -123 -68q-63 0 -97.5 41t-34.5 112q0 109 59 183q60 74 146 74q70 0 94 -48h7zM427 196q45 0 76 46q32 47 32 111q0 38 -16.5 58t-43.5 20q-44 0 -75 -46q-31 -44 -31 -112q0 -77 58 -77z" />
    <glyph glyph-name="less_hyphen_hyphen" horiz-adv-x="858" 
d="M764 323v-94h-590l169 -229h-118l-207 277l207 271h118l-169 -225h590z" />
    <glyph glyph-name="uni1F310" horiz-adv-x="1010" 
d="M522 738q199 0 325 -105q126 -103 126 -268t-127 -270q-126 -105 -324 -105q-197 0 -325 105q-127 105 -127 270t126 268q126 105 326 105zM425 578h193q-34 126 -96 126t-97 -126zM656 578h96q-54 87 -148 114q33 -44 52 -114zM440 692q-95 -27 -149 -114h96
q19 73 53 114zM322 668q-82 -34 -132 -90h57q30 52 75 90zM796 578h57q-53 57 -132 90q45 -38 75 -90zM848 384h84q-4 87 -48 153v-2h-68q29 -70 32 -151zM110 384h84q3 81 32 151h-69q-43 -68 -47 -151zM377 535h-109q-30 -71 -33 -151h127q1 83 15 151zM400 384h242
q-2 88 -14 151h-213q-14 -66 -15 -151zM680 384h128q-3 80 -33 151h-110q14 -68 15 -151zM194 343h-84q5 -82 47 -148h69q-27 65 -32 148zM362 343h-127q4 -83 33 -148h109q-14 66 -15 148zM642 343h-242q1 -83 15 -148h212q14 65 15 148zM665 195h110q29 65 33 148h-128
q-1 -82 -15 -148zM932 343h-84q-4 -80 -31 -148h68q42 66 47 148zM245 154h-56q52 -58 130 -91q-42 36 -74 91zM386 154h-96q54 -88 149 -117q-34 43 -53 117zM618 154h-194q37 -129 98 -129q62 0 96 129zM604 37q95 29 149 117h-97q-19 -75 -52 -117zM724 63q78 33 130 91
h-57q-29 -53 -73 -91z" />
    <glyph glyph-name="uni1F441" horiz-adv-x="809" 
d="M58 366q0 164 103 267q104 104 262 104q157 0 261 -104q103 -103 103 -267q0 -169 -103 -272q-102 -103 -261 -103t-262 103t-103 272zM130 366q0 -136 83 -222q84 -85 210 -85q127 0 209 85q84 86 84 222q0 134 -84 218q-82 85 -209 85q-126 0 -210 -85
q-83 -85 -83 -218zM233 367q0 84 55 136q56 54 135 54t135 -54q55 -52 55 -136q0 -87 -55 -141q-54 -54 -135 -54t-136 54q-54 54 -54 141zM269 376v-21l145 7l-94 -86l16 -18l84 98l-7 -150h21l-7 150l83 -98l16 18l-93 86l145 -7v21l-145 -6l93 84l-16 17l-83 -95l7 148
h-21l7 -148l-84 95l-16 -17l94 -84z" />
    </font>
</defs>
</svg>
