<?xml version="1.0" standalone="no"?>
<!DOCTYPE svg PUBLIC "-//W3C//DTD SVG 1.1//EN" "http://www.w3.org/Graphics/SVG/1.1/DTD/svg11.dtd" >
<svg xmlns="http://www.w3.org/2000/svg" xmlns:xlink="http://www.w3.org/1999/xlink" version="1.1">
<metadata>
Created by FontForge 20170731 at Tue Jul 10 19:29:55 2018
 By Aleksey,,,
Copyright (c) 2017 by Deni Anggara. All rights reserved.
</metadata>
<defs>
<font id="AllianceNo.2-LightItalic" horiz-adv-x="621" >
  <font-face 
    font-family="Alliance No.2 Light"
    font-weight="300"
    font-style="italic"
    font-stretch="normal"
    units-per-em="1000"
    panose-1="0 0 4 0 0 0 0 0 0 0"
    ascent="805"
    descent="-195"
    x-height="517"
    cap-height="729"
    bbox="-426 -212 2179 961"
    underline-thickness="50"
    underline-position="-200"
    slope="-8"
    unicode-range="U+000D-FB02"
  />
<missing-glyph horiz-adv-x="644" 
d="M710 0h-644v729h644v-729zM129 666v-604h518v604h-518zM584 125h-392v478h392v-478zM255 540v-351h266v351h-266zM318 252v225h140v-225h-140z" />
    <glyph glyph-name="fi" unicode="fi" horiz-adv-x="578" 
d="M217 517h302l-73 -517h-62l65 463h-240l-65 -463h-62l65 463h-102l8 54h102l4 32l17 121q8 59 67 59h139l-7 -54h-136l-18 -126zM472 627l14 102h62l-14 -102h-62z" />
    <glyph glyph-name="fl" unicode="fl" horiz-adv-x="589" 
d="M243 729h316l-102 -729h-62l94 675h-250l-18 -126l-4 -32h116l-8 -54h-116l-65 -463h-62l65 463h-102l8 54h102l4 32l17 121q8 59 67 59z" />
    <glyph glyph-name="f_f" unicode="ff" horiz-adv-x="643" 
d="M686 675h-136l-18 -126l-4 -32h116l-8 -54h-116l-65 -463h-62l65 463h-249l-65 -463h-62l65 463h-102l8 54h102l4 32l17 121q8 59 67 59h139l-7 -54h-136l-18 -126l-4 -32h249l4 32l17 121q8 59 67 59h139z" />
    <glyph glyph-name="f_f_i" unicode="ffi" horiz-adv-x="889" 
d="M528 517h302l-73 -517h-62l65 463h-240l-65 -463h-62l65 463h-249l-65 -463h-62l65 463h-102l8 54h102l4 32l17 121q8 59 67 59h139l-7 -54h-136l-18 -126l-4 -32h249l4 32l17 121q8 59 67 59h139l-7 -54h-136l-18 -126zM782 616l14 102h62l-14 -102h-62z" />
    <glyph glyph-name="f_t" unicode="ft" horiz-adv-x="661" 
d="M644 463h-111l-38 -271l-19 -137h112l-8 -55h-113q-61 0 -53 57l19 135l38 271h-261l-65 -463h-62l65 463h-103l8 54h103l4 32l18 124q8 56 73 56h131l-7 -54h-135l-18 -126l-4 -32h261l24 175h62l-24 -175h111z" />
    <glyph glyph-name="t_i" unicode="ti" horiz-adv-x="580" 
d="M473 616l14 102h62l-14 -102h-62zM210 517h311l-73 -517h-62l65 463h-249l-38 -271l-19 -137h111l-8 -55h-112q-31 0 -43.5 13.5t-8.5 45.5l18 133l38 271h-96l8 54h96l24 175h62z" />
    <glyph glyph-name="t_t" unicode="tt" horiz-adv-x="637" 
d="M620 463h-109l-38 -271l-19 -137h110l-8 -55h-112q-31 0 -43.5 13.5t-8.5 45.5l18 133l38 271h-245l-38 -271l-19 -137h110l-8 -55h-112q-31 0 -43.5 13.5t-8.5 45.5l18 133l38 271h-96l8 54h96l24 175h63l-24 -175h245l24 175h63l-24 -175h109z" />
    <glyph glyph-name="t_t_i" unicode="tti" horiz-adv-x="885" 
d="M778 616l14 102h62l-14 -102h-62zM519 517h307l-73 -517h-62l65 463h-245l-38 -271l-19 -137h110l-8 -55h-112q-31 0 -43.5 13.5t-8.5 45.5l18 133l38 271h-245l-38 -271l-19 -137h110l-8 -55h-112q-31 0 -43.5 13.5t-8.5 45.5l18 133l38 271h-96l8 54h96l24 175h63
l-24 -175h245l24 175h63z" />
    <glyph glyph-name=".notdef" horiz-adv-x="644" 
d="M710 0h-644v729h644v-729zM129 666v-604h518v604h-518zM584 125h-392v478h392v-478zM255 540v-351h266v351h-266zM318 252v225h140v-225h-140z" />
    <glyph glyph-name=".null" horiz-adv-x="0" 
 />
    <glyph glyph-name="nonmarkingreturn" horiz-adv-x="333" 
 />
    <glyph glyph-name="CR.001" unicode="&#xd;" horiz-adv-x="257" 
 />
    <glyph glyph-name="space" unicode=" " horiz-adv-x="240" 
 />
    <glyph glyph-name="exclam" unicode="!" horiz-adv-x="272" 
d="M145 215h-29l27 309l28 205h63l-28 -205zM138 0h-76l10 71h76z" />
    <glyph glyph-name="quotedbl" unicode="&#x22;" horiz-adv-x="301" 
d="M160 608l-39 -152h-26l3 152l17 121h62zM302 608l-39 -152h-26l3 152l17 121h62z" />
    <glyph glyph-name="numbersign" unicode="#" horiz-adv-x="725" 
d="M698 537l-7 -52h-117l-30 -216h116l-7 -52h-117l-30 -217h-55l30 217h-247l-30 -217h-56l30 217h-117l7 52h118l30 216h-117l7 52h117l30 213h56l-30 -213h247l30 213h55l-30 -213h117zM242 269h247l30 216h-247z" />
    <glyph glyph-name="dollar" unicode="$" horiz-adv-x="547" 
d="M515 500h-62q6 58 -27.5 92.5t-99.5 34.5q-65 0 -106 -36t-41 -92q0 -35 24.5 -55.5t76.5 -35.5l88 -24q125 -35 125 -134q0 -82 -60 -136q-58 -53 -155 -61l-14 -98h-56l14 98q-89 8 -131 58.5t-31 132.5h63q-10 -68 26 -105t111 -37q76 0 122 37.5t46 98.5q0 70 -93 94
l-88 23q-132 35 -132 134q0 76 54 127q54 52 141 60l13 98h56l-13 -98q78 -8 118 -54t31 -122z" />
    <glyph glyph-name="percent" unicode="%" horiz-adv-x="898" 
d="M106 557q0 81 48 130.5t126 49.5q79 0 127 -49.5t48 -130.5q0 -82 -48 -132t-127 -50q-78 0 -126 50t-48 132zM306 0h-71l461 729h71zM167 557q0 -58 31.5 -94t81.5 -36q51 0 82.5 36t31.5 94q0 57 -31.5 93t-82.5 36q-50 0 -81.5 -36t-31.5 -93zM530 172q0 81 48.5 131
t126.5 50t125.5 -50t47.5 -131q0 -82 -47.5 -132t-125.5 -50q-79 0 -127 50t-48 132zM591 172q0 -58 32 -94t82 -36t81.5 36t31.5 94q0 57 -31.5 93.5t-81.5 36.5q-51 0 -82.5 -36.5t-31.5 -93.5z" />
    <glyph glyph-name="ampersand" unicode="&#x26;" horiz-adv-x="634" 
d="M582 0h-338q-210 0 -210 157q0 78 41 140q42 61 110 81l1 7q-42 16 -65.5 50.5t-23.5 82.5q0 96 69 158q68 61 179 61q43 0 83 -9l-8 -53q-35 11 -79 11q-77 0 -122 -32.5t-54 -90.5l-6 -39q-9 -60 31 -88t103 -28h172l17 120h61l-17 -120h114l-8 -53h-114l-42 -300h114z
M245 55h170l42 300h-183q-74 0 -117.5 -35t-52.5 -99l-6 -42q-9 -64 29 -94t118 -30z" />
    <glyph glyph-name="quotesingle" unicode="'" horiz-adv-x="159" 
d="M160 608l-39 -152h-26l3 152l17 121h62z" />
    <glyph glyph-name="parenleft" unicode="(" horiz-adv-x="412" 
d="M93 241q0 150 83 299q84 149 214 228h54q-129 -78 -211 -226q-83 -149 -83 -302q0 -114 44 -216q45 -100 123 -156h-54q-82 59 -126 158q-44 102 -44 215z" />
    <glyph glyph-name="parenright" unicode=")" horiz-adv-x="412" 
d="M338 394q0 -152 -84 -301q-82 -149 -213 -225h-54q127 76 210 226q83 151 83 304q0 116 -45 215q-44 99 -122 155h54q80 -59 125 -159q46 -99 46 -215z" />
    <glyph glyph-name="asterisk" unicode="*" horiz-adv-x="344" 
d="M98 497l-18 37l115 52l-100 52l28 39l87 -70l6 122h43l-27 -123l108 71l17 -39l-116 -52l101 -52l-27 -37l-88 70l-8 -123h-43l29 123z" />
    <glyph glyph-name="plus" unicode="+" horiz-adv-x="655" 
d="M564 293h-202l-31 -222h-60l31 222h-202l8 56h202l29 209h60l-29 -209h202z" />
    <glyph glyph-name="comma" unicode="," horiz-adv-x="193" 
d="M-12 -134l5 38q64 0 73 67l4 29h-56l15 109h99l-20 -143q-7 -46 -39.5 -73t-80.5 -27z" />
    <glyph glyph-name="hyphen" unicode="-" horiz-adv-x="457" 
d="M396 276h-331l7 49h331z" />
    <glyph glyph-name="period" unicode="." horiz-adv-x="236" 
d="M132 0h-100l16 112h100z" />
    <glyph glyph-name="slash" unicode="/" horiz-adv-x="427" 
d="M58 0h-57l399 729h56z" />
    <glyph glyph-name="zero" unicode="0" horiz-adv-x="623" 
d="M79 234q0 228 81 362q83 134 221 134q197 0 197 -243q0 -229 -81 -363t-220 -134q-198 0 -198 244zM176 467l-30 -214q-14 -98 23.5 -151.5t114.5 -53.5t130 53t67 152l30 214q14 97 -24 151t-115 54t-129.5 -53t-66.5 -152z" />
    <glyph glyph-name="one" unicode="1" horiz-adv-x="458" 
d="M287 549h-179l7 50h27q70 0 118 33.5t55 88.5h58l-101 -721h-62z" />
    <glyph glyph-name="two" unicode="2" horiz-adv-x="572" 
d="M384 301l-263 -247l120 4h234l-8 -58h-436l7 49l297 279q119 113 128 177l5 38q8 58 -27.5 93t-102.5 35q-68 0 -117 -39q-48 -38 -56 -100l-3 -23h-63l2 18q11 91 81 147q73 56 170 56q85 0 134.5 -45t49.5 -122q0 -85 -51 -153q-25 -33 -45 -55z" />
    <glyph glyph-name="three" unicode="3" horiz-adv-x="587" 
d="M273 -10q-105 0 -156 62.5t-32 165.5h69q-15 -83 19 -126.5t106 -43.5t121 35t57 92l6 42q9 62 -31.5 94.5t-120.5 32.5h-40l8 59h42q74 0 120.5 32.5t53.5 86.5l5 39q7 55 -32 82q-38 28 -97 28q-71 0 -116.5 -43.5t-56.5 -123.5h-67q12 103 82 164q71 62 170 62
q83 0 134 -43.5t51 -115.5q0 -64 -36 -114.5t-102 -78.5v-6q101 -37 101 -146q0 -101 -74 -169q-73 -67 -184 -67z" />
    <glyph glyph-name="four" unicode="4" horiz-adv-x="603" 
d="M528 721l-71 -503h92l-8 -56h-92l-23 -162h-63l23 162h-362l9 61l391 498h104zM100 218h294l65 462z" />
    <glyph glyph-name="five" unicode="5" horiz-adv-x="601" 
d="M80 218h65q-13 -74 25 -123q38 -47 111 -47q68 0 122 36q55 38 62 96l14 100q9 60 -35 98t-112 38q-50 0 -95 -22q-47 -23 -66 -56h-59l68 383h400l-8 -57h-344l-48 -252l3 -1q27 27 73.5 44.5t91.5 17.5q90 0 143 -52.5t53 -142.5q0 -124 -77 -207q-77 -81 -197 -81
q-98 0 -152 63t-38 165z" />
    <glyph glyph-name="six" unicode="6" horiz-adv-x="607" 
d="M83 236q0 226 83 360q84 134 225 134q91 0 141 -48t46 -131h-67q1 59 -34 90t-94 31q-192 0 -222 -323h4q65 113 195 113q87 0 136.5 -49.5t49.5 -136.5q0 -128 -73 -207t-188 -79q-202 0 -202 246zM170 271l-12 -84q-9 -64 32 -102q40 -37 103 -37t113 37q51 37 60 102
l12 84q9 63 -33 98q-41 36 -102 36q-62 0 -113 -36t-60 -98z" />
    <glyph glyph-name="seven" unicode="7" horiz-adv-x="542" 
d="M139 527h-57l27 194h457l-6 -44q-122 -146 -227 -329q-103 -183 -159 -348h-69q49 153 151 335q104 182 223 329h-321z" />
    <glyph glyph-name="eight" unicode="8" horiz-adv-x="587" 
d="M256 -10q-98 0 -151.5 44t-53.5 121q0 69 35.5 122.5t97.5 78.5l1 8q-86 38 -86 134q0 102 73 166q74 65 187 65q97 0 151 -45.5t54 -122.5q0 -68 -35.5 -120t-97.5 -77l-1 -8q86 -41 86 -138q0 -102 -73 -165q-72 -63 -187 -63zM311 386q74 0 123.5 31.5t56.5 86.5l6 47
q7 59 -31 89.5t-115 30.5q-76 0 -123 -31t-56 -89l-7 -47q-8 -54 32 -86t114 -32zM445 176l6 47q7 51 -32.5 80.5t-114.5 29.5q-76 0 -124 -29.5t-55 -80.5l-6 -47q-8 -62 31.5 -95t113.5 -33t123.5 33.5t57.5 94.5z" />
    <glyph glyph-name="nine" unicode="9" horiz-adv-x="607" 
d="M565 484q0 -225 -84 -360q-83 -134 -224 -134q-91 0 -141.5 48t-45.5 131h67q-1 -60 33.5 -90.5t94.5 -30.5q191 0 221 323h-4q-65 -113 -194 -113q-88 0 -137 48.5t-49 137.5q0 126 72 206q74 80 189 80q202 0 202 -246zM477 449l12 84q9 63 -32 101t-102 38
q-62 0 -114 -38q-51 -38 -60 -101l-12 -84q-9 -63 32 -99q43 -35 104 -35q60 0 112 35q51 36 60 99z" />
    <glyph glyph-name="colon" unicode=":" horiz-adv-x="270" 
d="M213 418h-100l14 99h100zM154 0h-100l14 98h100z" />
    <glyph glyph-name="semicolon" unicode=";" horiz-adv-x="236" 
d="M174 418h-99l14 99h99zM-8 -120l5 34q27 0 43 10t20.5 21t7.5 29l4 26h-56l14 98h99l-18 -129q-6 -41 -38.5 -65t-80.5 -24z" />
    <glyph glyph-name="less" unicode="&#x3c;" horiz-adv-x="565" 
d="M451 118l-11 -76l-347 225l7 52l408 207l-11 -79l-156 -71l-174 -81l-1 -7l151 -88z" />
    <glyph glyph-name="equal" unicode="=" horiz-adv-x="552" 
d="M475 365h-367l9 65h367zM447 164h-367l9 64h367z" />
    <glyph glyph-name="greater" unicode="&#x3e;" horiz-adv-x="565" 
d="M476 267l-411 -225l11 76l157 82l177 88l1 7l-289 152l11 79l350 -207z" />
    <glyph glyph-name="question" unicode="?" horiz-adv-x="575" 
d="M251 191h-61l28 199q40 -6 66 -6q88 0 144 47q55 48 55 127q0 57 -39 89t-106 32q-72 0 -120 -37t-60 -101h-63q16 90 85 143t169 53q92 0 145.5 -46.5t53.5 -124.5q0 -109 -79 -176q-78 -67 -199 -63zM242 0h-99l13 96h99z" />
    <glyph glyph-name="at" unicode="@" horiz-adv-x="903" 
d="M721 -42h-623l90 642h623l-66 -474h-167q-31 0 -46 15t-12 41l1 8h-6q-14 -27 -46 -43t-71 -16q-51 0 -79 30.5t-28 85.5q0 85 42.5 135t114.5 50q38 0 64.5 -17t34.5 -45h3l8 55h48l-35 -243h121l51 358h-503l-74 -522h563zM425 183q36 0 59.5 21t28.5 56l6 43
q5 35 -14 55.5t-55 20.5t-59 -20t-28 -54l-7 -46q-5 -35 13.5 -55.5t55.5 -20.5z" />
    <glyph glyph-name="A" unicode="A" horiz-adv-x="649" 
d="M606 0h-68l-45 188h-354l-98 -188h-71l383 729h74zM242 385l-73 -140h310l-34 140l-60 280h-4z" />
    <glyph glyph-name="B" unicode="B" horiz-adv-x="708" 
d="M393 0h-319l102 729h328q85 0 127.5 -38t42.5 -109q0 -72 -34.5 -126t-96.5 -77l-1 -8q101 -26 101 -140q0 -106 -68 -169q-68 -62 -182 -62zM233 668l-38 -267h268q55 0 92 29t44 79l8 54q7 49 -21 77t-86 28h-267zM187 340l-39 -279h258q66 0 110.5 29.5t51.5 78.5
l8 59q7 53 -24 82.5t-89 29.5h-276z" />
    <glyph glyph-name="C" unicode="C" horiz-adv-x="750" 
d="M339 -10q-134 0 -207 75t-73 214q0 207 107 334q108 126 286 126q129 0 202.5 -67t73.5 -182h-67q-5 88 -61.5 137.5t-157.5 49.5q-121 0 -203 -70q-80 -68 -97 -188l-16 -117q-15 -110 47 -181q61 -70 177 -70q96 0 169.5 50t106.5 137h67q-38 -114 -131 -181
q-94 -67 -223 -67z" />
    <glyph glyph-name="D" unicode="D" horiz-adv-x="745" 
d="M363 0h-289l102 729h289q129 0 192 -61.5t63 -194.5q0 -227 -92.5 -350t-264.5 -123zM233 666l-85 -603h224q114 0 179 57t83 185l16 118q18 127 -29.5 185t-163.5 58h-224z" />
    <glyph glyph-name="E" unicode="E" horiz-adv-x="646" 
d="M547 0h-473l102 729h473l-8 -63h-408l-37 -261h361l-9 -60h-361l-39 -282h408z" />
    <glyph glyph-name="F" unicode="F" horiz-adv-x="609" 
d="M139 0h-65l102 729h462l-8 -63h-397l-44 -307h357l-8 -61h-357z" />
    <glyph glyph-name="G" unicode="G" horiz-adv-x="813" 
d="M58 280q0 201 112 329q112 129 285 129q119 0 193 -60q75 -59 79 -159h-68q-4 71 -61 114.5t-148 43.5q-120 0 -206 -73q-86 -71 -103 -188l-16 -114q-16 -112 46 -183q61 -70 183 -70t208 76q88 76 106 195h-304l9 61h369l-54 -381h-54l10 138h-7q-106 -148 -299 -148
q-134 0 -207 77t-73 213z" />
    <glyph glyph-name="H" unicode="H" horiz-adv-x="800" 
d="M139 0h-65l102 729h65l-45 -325h450l45 325h65l-102 -729h-65l48 344h-450z" />
    <glyph glyph-name="I" unicode="I" horiz-adv-x="285" 
d="M241 729l-102 -729h-65l102 729h65z" />
    <glyph glyph-name="J" unicode="J" horiz-adv-x="384" 
d="M220 288l62 441h63l-62 -441l-32 -229q-8 -59 -68 -59h-203l9 61h200z" />
    <glyph glyph-name="K" unicode="K" horiz-adv-x="652" 
d="M629 729h75l-310 -318l218 -411h-76l-191 360l-182 -186l-24 -174h-65l102 729h65l-65 -468z" />
    <glyph glyph-name="L" unicode="L" horiz-adv-x="571" 
d="M500 0h-426l102 729h65l-93 -668h361z" />
    <glyph glyph-name="M" unicode="M" horiz-adv-x="908" 
d="M139 0h-65l102 729h93l168 -570h5l330 570h92l-102 -729h-65l60 426l39 219h-6l-370 -631l-192 631h-6l-23 -219z" />
    <glyph glyph-name="N" unicode="N" horiz-adv-x="790" 
d="M139 0h-65l102 729h86l329 -655h4l26 225l60 430h65l-102 -729h-87l-327 657h-4l-25 -217z" />
    <glyph glyph-name="O" unicode="O" horiz-adv-x="770" 
d="M59 279q0 209 108 333q108 126 287 126q141 0 215.5 -75t74.5 -214q0 -208 -108 -334q-108 -125 -287 -125q-141 0 -215.5 74.5t-74.5 214.5zM142 416l-15 -102q-18 -124 45 -194q63 -69 185 -69q126 0 206 71q80 73 98 192l15 102q18 120 -44.5 190.5t-186.5 70.5
q-125 0 -205 -70t-98 -191z" />
    <glyph glyph-name="P" unicode="P" horiz-adv-x="671" 
d="M139 0h-65l102 729h307q97 0 146 -45.5t49 -130.5q0 -128 -70 -202q-69 -74 -188 -74h-242zM233 666l-47 -329h245q71 0 116 35t53 95l11 80q8 55 -23.5 87t-95.5 32h-259z" />
    <glyph glyph-name="Q" unicode="Q" horiz-adv-x="770" 
d="M744 449q0 -204 -103 -328t-275 -131l-18 -128h145l-7 -52h-149q-59 0 -52 58l18 124q-119 12 -181.5 85.5t-62.5 201.5q0 209 108 333q108 126 287 126q141 0 215.5 -75t74.5 -214zM142 416l-15 -102q-18 -124 45 -194q63 -69 185 -69q126 0 206 71q80 73 98 192l15 102
q18 120 -44.5 190.5t-186.5 70.5q-125 0 -205 -70t-98 -191z" />
    <glyph glyph-name="R" unicode="R" horiz-adv-x="722" 
d="M139 0h-65l102 729h326q182 0 182 -168q0 -81 -35.5 -142t-94.5 -81l-1 -6h44q62 0 52 -65l-38 -267h-65l41 290h-407zM233 669l-45 -319h254q68 0 112 33.5t52 90.5l10 72q9 60 -25.5 91.5t-103.5 31.5h-254z" />
    <glyph glyph-name="S" unicode="S" horiz-adv-x="669" 
d="M65 224h67q-10 -88 40 -133.5t148 -45.5t159 48t61 126q0 85 -107 109l-130 31q-46 10 -86 28q-81 35 -88 130q0 99 76 160q77 62 199 62q116 0 177.5 -55.5t49.5 -153.5h-66q6 74 -38 114t-129 40q-88 0 -144 -42q-55 -42 -55 -110q0 -81 123 -108l139 -32
q149 -35 149 -158q0 -110 -84 -177q-82 -67 -217 -67q-137 0 -198 67t-46 167z" />
    <glyph glyph-name="T" unicode="T" horiz-adv-x="548" 
d="M72 729h538l-9 -61h-235l-94 -668h-65l94 668h-238z" />
    <glyph glyph-name="U" unicode="U" horiz-adv-x="776" 
d="M122 267l65 462h64l-64 -455q-15 -103 36.5 -162t152.5 -59t168.5 59t82.5 162l64 455h64l-65 -462q-16 -125 -104 -202q-87 -75 -219 -75q-133 0 -198 75q-64 75 -47 202z" />
    <glyph glyph-name="V" unicode="V" horiz-adv-x="631" 
d="M323 0h-87l-162 729h70l80 -365l59 -308h6l148 307l184 366h68z" />
    <glyph glyph-name="W" unicode="W" horiz-adv-x="905" 
d="M126 0l-47 729h66l29 -458l7 -198h6l282 656h95l98 -656h6l63 198l157 458h70l-251 -729h-93l-101 671h-5l-289 -671h-93z" />
    <glyph glyph-name="X" unicode="X" horiz-adv-x="587" 
d="M52 0h-75l293 371l-177 358h68l79 -158l74 -159h6l246 317h74l-287 -363l182 -366h-68l-74 146l-83 171h-6l-142 -181z" />
    <glyph glyph-name="Y" unicode="Y" horiz-adv-x="626" 
d="M287 301l-214 428h77l98 -202l74 -161h7l121 163l151 200h84l-333 -428l-42 -301h-65z" />
    <glyph glyph-name="Z" unicode="Z" horiz-adv-x="571" 
d="M84 729h535l-7 -52l-534 -614h444l-9 -63h-531l7 52l536 614h-449z" />
    <glyph glyph-name="bracketleft" unicode="[" horiz-adv-x="317" 
d="M226 -209h-171l139 987h171l-7 -51h-115l-125 -887h115z" />
    <glyph glyph-name="backslash" unicode="\" horiz-adv-x="431" 
d="M159 729l195 -729h-57l-194 729h56z" />
    <glyph glyph-name="bracketright" unicode="]" horiz-adv-x="317" 
d="M130 -209h-171l7 49h115l125 887h-115l7 51h171z" />
    <glyph glyph-name="asciicircum" unicode="^" horiz-adv-x="341" 
d="M358 475h-61l-70 191l-123 -191h-61l168 254h52z" />
    <glyph glyph-name="underscore" unicode="_" horiz-adv-x="335" 
d="M292 -65h-339l9 65h339z" />
    <glyph glyph-name="grave" unicode="`" horiz-adv-x="441" 
d="M389 759l-27 -33l-152 105l34 42z" />
    <glyph glyph-name="a" unicode="a" horiz-adv-x="559" 
d="M33 119q0 86 57.5 137t154.5 51h162l6 43q18 125 -119 125q-60 0 -98 -27.5t-48 -74.5h-64q16 72 75 113t145 41q96 0 139.5 -47t31.5 -131l-42 -300h82l-7 -49h-74q-65 0 -56 65l3 23h-6q-25 -45 -77.5 -71.5t-118.5 -26.5q-69 0 -107.5 34.5t-38.5 94.5zM103 170
l-5 -36q-6 -44 19.5 -67t76.5 -23q81 0 136 49t66 130l4 31h-162q-57 0 -93.5 -23t-41.5 -61z" />
    <glyph glyph-name="b" unicode="b" 
d="M120 0h-60l102 729h63l-44 -313h6q29 50 84 80.5t116 30.5q94 0 141.5 -53t47.5 -151q0 -151 -74 -243q-73 -90 -197 -90q-58 0 -102.5 27t-60.5 73h-6zM164 294l-10 -76q-10 -73 35 -124q47 -50 123 -50q75 0 125.5 42.5t60.5 111.5l16 116q10 72 -28.5 115t-113.5 43
q-79 0 -139 -51q-58 -49 -69 -127z" />
    <glyph glyph-name="c" unicode="c" horiz-adv-x="562" 
d="M441 171h63q-26 -84 -93.5 -132.5t-157.5 -48.5q-98 0 -152.5 56.5t-54.5 156.5q0 141 80 233q81 91 206 91q86 0 138.5 -46.5t56.5 -125.5h-63q-8 58 -45.5 87.5t-97.5 29.5q-76 0 -133 -51q-56 -50 -68 -130l-11 -75q-11 -77 30.5 -124.5t121.5 -47.5q63 0 112 34.5
t68 92.5z" />
    <glyph glyph-name="d" unicode="d" 
d="M230 -10q-89 0 -137 52t-48 148q0 146 71 237q72 91 188 91q65 0 110.5 -26.5t64.5 -73.5h6l43 311h63l-102 -729h-58l8 90h-6q-67 -100 -203 -100zM249 44q82 0 139 48q58 50 69 126l10 72q10 78 -34 126t-125 48q-75 0 -125 -42.5t-60 -111.5l-16 -112
q-10 -69 28.5 -111.5t113.5 -42.5z" />
    <glyph glyph-name="e" unicode="e" horiz-adv-x="565" 
d="M47 204q0 143 78 233t202 90q92 0 143.5 -49.5t51.5 -137.5q0 -46 -13 -94h-395l-4 -30q-11 -78 30.5 -125t121.5 -47q59 0 107 30t69 79h63q-25 -72 -95 -118q-69 -45 -155 -45q-96 0 -150 57t-54 157zM123 314l-2 -16h335l3 23q9 68 -29 110t-111 42q-76 0 -132 -44
q-55 -43 -64 -115z" />
    <glyph glyph-name="f" unicode="f" horiz-adv-x="332" 
d="M375 675h-135l-18 -126l-4 -32h115l-8 -54h-115l-65 -463h-62l65 463h-103l8 54h103l4 32l18 124q8 56 73 56h131z" />
    <glyph glyph-name="g" unicode="g" horiz-adv-x="522" 
d="M540 578l-8 -54h-99l-7 -51q30 -37 30 -93q0 -84 -60 -141q-61 -56 -149 -56q-35 0 -72 9q-27 -3 -44 -20t-17 -40q0 -40 65 -40h145q64 0 99.5 -27.5t35.5 -75.5q0 -78 -69 -122t-192 -44q-98 0 -149.5 28.5t-51.5 80.5q0 42 25.5 74.5t70.5 46.5l1 6q-40 13 -40 58
q0 31 22.5 57.5t55.5 34.5l1 6q-57 37 -57 113q0 85 61 142t154 57q55 0 92 -19l2 16q7 54 68 54h87zM388 334l6 40q7 46 -23.5 75t-86.5 29t-94.5 -28.5t-45.5 -75.5l-6 -40q-7 -46 24 -74.5t87 -28.5t94 28.5t45 74.5zM316 36h-151q-49 0 -78 -24.5t-29 -65.5
q0 -73 150 -73q91 0 139 27t48 77q0 59 -79 59z" />
    <glyph glyph-name="h" unicode="h" horiz-adv-x="609" 
d="M123 0h-63l102 729h63l-43 -307h6q31 49 82.5 77t108.5 28q82 0 123 -55t28 -150l-45 -322h-63l44 316q22 156 -110 156q-75 0 -129 -55q-53 -54 -66 -144z" />
    <glyph glyph-name="i" unicode="i" horiz-adv-x="254" 
d="M210 627h-62l14 102h62zM122 0h-62l73 517h62z" />
    <glyph glyph-name="j" unicode="j" horiz-adv-x="266" 
d="M161 627l14 102h62l-14 -102h-62zM56 -114l16 112l73 519h62l-73 -519l-15 -106q-9 -59 -68 -59h-119l7 53h117z" />
    <glyph glyph-name="k" unicode="k" horiz-adv-x="540" 
d="M457 517h83l-230 -201l167 -316h-69l-146 274l-115 -101l-24 -173h-63l102 729h63l-66 -472z" />
    <glyph glyph-name="l" unicode="l" horiz-adv-x="254" 
d="M122 0h-62l102 729h62z" />
    <glyph glyph-name="m" unicode="m" horiz-adv-x="923" 
d="M123 0h-63l73 517h54l-5 -97h7q62 107 179 107q56 0 93 -32t43 -83h7q61 115 189 115q81 0 119.5 -52.5t25.5 -147.5l-46 -327h-63l45 318q22 154 -105 154q-69 0 -116 -54.5t-60 -148.5l-38 -269h-63l44 314q23 158 -101 158q-68 0 -118 -56t-63 -147z" />
    <glyph glyph-name="n" unicode="n" horiz-adv-x="610" 
d="M123 0h-63l73 517h55l-5 -97h6q31 50 82 78.5t109 28.5q82 0 123 -55.5t28 -150.5l-45 -321h-63l44 315q21 152 -110 152q-75 0 -129 -55q-54 -54 -67 -142z" />
    <glyph glyph-name="o" unicode="o" horiz-adv-x="588" 
d="M46 203q0 141 80 233q81 91 206 91q97 0 153.5 -56.5t56.5 -157.5q0 -141 -80 -233q-80 -90 -206 -90q-100 0 -155 56.5t-55 156.5zM120 296l-11 -80q-11 -79 33 -125.5t122 -46.5q75 0 133 46q60 47 70 126l11 80q11 77 -32 126q-44 50 -122 50t-136 -49
q-57 -49 -68 -127z" />
    <glyph glyph-name="p" unicode="p" 
d="M99 -167h-63l96 684h58l-8 -90h6q32 47 85.5 73.5t118.5 26.5q88 0 136 -52t48 -148q0 -146 -72 -238q-70 -90 -187 -90q-65 0 -110.5 26.5t-64.5 73.5h-6zM313 53q75 0 125 42.5t60 111.5l16 112q10 70 -28.5 112t-113.5 42q-82 0 -140 -49q-57 -48 -68 -125l-10 -72
q-10 -78 34 -126t125 -48z" />
    <glyph glyph-name="q" unicode="q" 
d="M502 517h60l-96 -684h-63l38 268h-6q-29 -50 -84 -80.5t-116 -30.5q-94 0 -141.5 53t-47.5 151q0 153 73 242q73 91 198 91q58 0 102.5 -27t60.5 -73h6zM458 223l10 76q10 73 -36 123q-45 51 -122 51q-75 0 -125.5 -42.5t-60.5 -111.5l-16 -116q-10 -72 28.5 -115
t113.5 -43q79 0 138 50t70 128z" />
    <glyph glyph-name="r" unicode="r" horiz-adv-x="353" 
d="M194 517h181l-8 -54h-179l-23 -164l-42 -299h-63l42 299l23 160q7 58 69 58z" />
    <glyph glyph-name="s" unicode="s" horiz-adv-x="495" 
d="M42 155h63q-7 -51 26.5 -81.5t98.5 -30.5q66 0 106.5 31t40.5 82q0 53 -64 66l-114 23q-116 24 -116 112q0 76 58 122q59 48 152 48q89 0 133.5 -42t35.5 -114h-63q6 52 -23.5 78t-88.5 26q-64 0 -101.5 -28.5t-37.5 -75.5q0 -38 31 -55q25 -11 48 -15l104 -20
q114 -23 114 -115q0 -77 -62 -127q-61 -49 -159 -49q-95 0 -144 45t-38 120z" />
    <glyph glyph-name="t" unicode="t" horiz-adv-x="329" 
d="M312 463h-111l-38 -271l-19 -137h112l-8 -55h-113q-61 0 -53 57l19 135l38 271h-95l8 54h95l24 175h62l-24 -175h111z" />
    <glyph glyph-name="u" unicode="u" horiz-adv-x="603" 
d="M494 517h63l-73 -517h-52l3 96h-7q-28 -48 -80.5 -77t-112.5 -29q-79 0 -118 51t-26 144l47 332h63l-46 -325q-21 -147 103 -147q77 0 131 55q53 55 67 147z" />
    <glyph glyph-name="v" unicode="v" horiz-adv-x="458" 
d="M158 0l-120 517h68l61 -297l32 -146h6l69 146l145 297h73l-262 -517h-72z" />
    <glyph glyph-name="w" unicode="w" horiz-adv-x="726" 
d="M555 217l121 300h71l-218 -517h-87l-35 283l-16 159h-6l-58 -159l-111 -283h-90l-79 517h70l40 -297l14 -158h4l180 455h82l58 -452h3z" />
    <glyph glyph-name="x" unicode="x" horiz-adv-x="439" 
d="M38 0h-70l212 262l-137 255h73l107 -209h6l164 209h72l-205 -254l139 -263h-73l-110 216h-6z" />
    <glyph glyph-name="y" unicode="y" horiz-adv-x="500" 
d="M191 59l-153 458h69l55 -174l63 -211h6l126 211l103 174h74l-282 -460l-23 -165q-8 -59 -65 -59h-130l8 54h126z" />
    <glyph glyph-name="z" unicode="z" horiz-adv-x="424" 
d="M58 517h379l-8 -52l-362 -411h308l-8 -54h-382l7 49l363 414h-305z" />
    <glyph glyph-name="braceleft" unicode="{" horiz-adv-x="281" 
d="M26 261l8 58q64 0 74 73l46 323q9 63 70 63h109l-8 -51h-113l-46 -333q-6 -44 -31 -72t-55 -30v-3q29 -3 45.5 -31.5t10.5 -71.5l-48 -346h113l-7 -49h-109q-61 0 -52 62l47 335q6 36 -9.5 54.5t-44.5 18.5z" />
    <glyph glyph-name="bar" unicode="|" horiz-adv-x="308" 
d="M145 -27h-62l110 780h62z" />
    <glyph glyph-name="braceright" unicode="}" horiz-adv-x="281" 
d="M267 319l-8 -58q-65 0 -75 -73l-47 -335q-9 -62 -70 -62h-108l7 49h112l49 346q6 43 30.5 71.5t55.5 31.5v3q-29 3 -46 30.5t-11 71.5l47 333h-112l7 51h108q28 0 42 -16.5t10 -46.5l-46 -323q-5 -33 9 -53t46 -20z" />
    <glyph glyph-name="asciitilde" unicode="~" horiz-adv-x="348" 
d="M65 289h-43q3 58 28.5 84.5t62.5 26.5q26 0 74 -23q45 -22 68 -22q43 0 52 60h43q-4 -60 -32.5 -88.5t-70.5 -28.5q-33 0 -78 22q-48 23 -63 23q-36 0 -41 -54z" />
    <glyph glyph-name="uni00A0" unicode="&#xa0;" horiz-adv-x="240" 
 />
    <glyph glyph-name="exclamdown" unicode="&#xa1;" horiz-adv-x="272" 
d="M154 657l10 72h76l-10 -72h-76zM98 205l60 309h29l-26 -309l-29 -205h-63z" />
    <glyph glyph-name="cent" unicode="&#xa2;" horiz-adv-x="548" 
d="M269 162q63 0 109 31.5t66 86.5h63q-22 -73 -80.5 -119t-139.5 -54l-11 -77h-56l11 77q-80 8 -123.5 60.5t-43.5 139.5q0 129 66 214t173 99l11 79h56l-11 -78q75 -6 120 -50t48 -114h-62q-7 53 -43.5 81t-94.5 28q-74 0 -125 -44.5t-62 -121.5l-11 -76
q-11 -74 26.5 -118t113.5 -44z" />
    <glyph glyph-name="sterling" unicode="&#xa3;" horiz-adv-x="637" 
d="M397 681q-64 0 -108 -40.5t-54 -109.5l-20 -143h235l-8 -56h-235l-38 -271h317l25 179h60l-25 -179l-9 -61h-512l9 61h74l38 271h-74l8 56h74l20 143q13 94 75 150.5t157 56.5q83 0 131.5 -43t47.5 -115h-61q-1 44 -37.5 72.5t-89.5 28.5z" />
    <glyph glyph-name="currency" unicode="&#xa4;" horiz-adv-x="686" 
d="M134 99l-43 44l81 63q-35 60 -25 131q10 72 62 130l-63 61l53 46l49 -70q60 43 135 41t121 -43l71 73l39 -47l-77 -61q36 -58 26 -131q-11 -75 -62 -129l61 -63l-54 -45l-49 71q-61 -44 -134 -46q-71 -2 -123 45zM204 335q-11 -68 27 -112t101 -43q72 2 121 54
q51 54 51 128q0 56 -36 91.5t-94 35.5q-65 0 -112 -40.5t-58 -113.5z" />
    <glyph glyph-name="yen" unicode="&#xa5;" horiz-adv-x="578" 
d="M567 729h70l-271 -387h120l-8 -57h-152l-10 -70h152l-8 -57h-152l-22 -158h-65l22 158h-153l8 57h153l10 70h-153l8 57h121l-164 387h71l89 -214l66 -170h6l114 170z" />
    <glyph glyph-name="brokenbar" unicode="&#xa6;" horiz-adv-x="308" 
d="M214 467h-62l40 286h62zM145 -26h-62l40 286h62z" />
    <glyph glyph-name="section" unicode="&#xa7;" horiz-adv-x="487" 
d="M71 362q0 36 19 68t52 50l2 10q-32 30 -32 78q0 70 57 115t145 45q83 0 130 -40.5t42 -106.5h-64q1 41 -33 64.5t-92 23.5q-56 0 -87 -25t-31 -69q0 -37 30 -60q18 -13 52 -29l108 -47q85 -34 85 -108q0 -80 -71 -119l-2 -10q33 -30 33 -73q0 -72 -55.5 -116.5
t-146.5 -44.5q-85 0 -132 39.5t-43 107.5h64q-1 -41 33 -65.5t92 -24.5q57 0 88 25.5t31 71.5q0 29 -17 45.5t-59 35.5l-101 44q-97 40 -97 115zM135 385q0 -51 65 -80l114 -52q37 -18 40 -20q33 29 33 76q0 35 -21 52q-17 14 -37 23l-113 54l-44 21q-37 -28 -37 -74z" />
    <glyph glyph-name="dieresis" unicode="&#xa8;" horiz-adv-x="379" 
d="M196 742h-62l14 102h62zM380 742h-62l14 102h62z" />
    <glyph glyph-name="copyright" unicode="&#xa9;" horiz-adv-x="932" 
d="M484 -49q-171 0 -290 113q-118 114 -118 293q0 178 118 292t291 114q171 0 289 -114q118 -112 118 -290q2 -177 -119 -294.5t-289 -113.5zM862 359q0 165 -110 272q-109 106 -267 106t-270 -107q-110 -107 -110 -273t110 -273q109 -106 268 -106q158 0 268 107
q111 106 111 274zM488 142q-93 0 -154 58q-60 58 -60 157q0 97 60 157q62 60 156 60q82 0 138 -46q56 -45 67 -120h-64q-7 51 -46.5 82t-96.5 31q-69 0 -109 -44.5t-40 -117.5q0 -76 40.5 -119.5t108.5 -43.5q56 0 95.5 31.5t47.5 80.5h64q-9 -72 -67 -119t-140 -47z" />
    <glyph glyph-name="ordfeminine" unicode="&#xaa;" horiz-adv-x="422" 
d="M389 590v-186h37v-44h-35q-53 0 -53 50v17h-5q-30 -72 -120 -72q-54 0 -88 31t-34 82q0 53 37.5 82.5t102.5 29.5h105v18q0 84 -93 84q-78 0 -93 -57h-52q7 48 48 76t101 28q69 0 105.5 -36t36.5 -103zM336 516v22h-100q-90 0 -90 -70q0 -32 20.5 -49t56.5 -17
q50 0 81.5 32.5t31.5 81.5z" />
    <glyph glyph-name="guillemotleft" unicode="&#xab;" horiz-adv-x="512" 
d="M190 68l-93 206l151 204h58l-139 -204l81 -206h-58zM363 68l-93 206l151 204h59l-140 -204l82 -206h-59z" />
    <glyph glyph-name="logicalnot" unicode="&#xac;" horiz-adv-x="659" 
d="M556 156h-67l25 179h-408l9 64h475z" />
    <glyph glyph-name="registered" unicode="&#xae;" horiz-adv-x="617" 
d="M302 213q-103 0 -165 61q-63 62 -63 160q0 127 88 215q89 89 214 89q102 0 166 -62q64 -61 64 -159q0 -126 -89 -215t-215 -89zM308 240q110 0 190 80q79 79 79 193q0 89 -57 144q-58 56 -147 56q-111 0 -190 -82q-79 -80 -79 -194q0 -87 57 -143q57 -54 147 -54z
M261 344h-37l38 265h125q67 0 67 -60q0 -64 -49 -81l-1 -3h13q27 0 24 -28l-14 -93h-37l15 101h-129zM294 577l-14 -101h81q20 0 34.5 11.5t16.5 29.5l3 22q2 18 -8 28t-29 10h-84z" />
    <glyph glyph-name="overscore" unicode="&#xaf;" horiz-adv-x="352" 
d="M388 738h-292l6 45h292z" />
    <glyph glyph-name="degree" unicode="&#xb0;" horiz-adv-x="412" 
d="M397 593q0 -61 -42 -100q-41 -39 -103 -39q-58 0 -99 39q-39 39 -39 100q0 62 39 101.5t99 39.5q62 0 103 -39q42 -39 42 -102zM346 593q0 41 -26.5 68t-65.5 27q-37 0 -63.5 -27t-26.5 -68q0 -39 26.5 -66t63.5 -27q38 0 65 27t27 66z" />
    <glyph glyph-name="plusminus" unicode="&#xb1;" horiz-adv-x="687" 
d="M603 343h-211l-25 -181h-75l25 181h-210l10 67h210l25 181h75l-25 -181h211zM555 0h-496l10 72h496z" />
    <glyph glyph-name="uni00B2" unicode="&#xb2;" horiz-adv-x="448" 
d="M138 353l102 4h172l-8 -57h-342l3 19q18 112 129 188q9 6 38.5 25.5t40.5 28t34.5 26.5t33.5 31t23.5 31.5t18.5 38t5 41.5q0 39 -24.5 61t-66.5 22q-53 0 -87.5 -30.5t-40.5 -83.5h-63q9 76 65 123q57 48 136 48q68 0 108.5 -36t40.5 -96q0 -49 -21 -91
q-13 -26 -35.5 -50.5t-37 -36t-51.5 -39.5q-9 -6 -36.5 -25t-38.5 -26.5t-31.5 -24.5t-30.5 -28.5t-20.5 -28.5t-15.5 -34z" />
    <glyph glyph-name="uni00B3" unicode="&#xb3;" horiz-adv-x="460" 
d="M246 292q-83 0 -124 49t-27 129h67q-11 -59 14.5 -90t77.5 -31q57 0 94.5 35.5t37.5 89.5q0 41 -29 65t-80 24h-37l8 55h36q57 0 93.5 32.5t36.5 83.5q0 37 -25.5 57.5t-67.5 20.5q-52 0 -85.5 -31.5t-40.5 -87.5h-65q7 76 64 127q55 49 135 49q68 0 110.5 -33.5
t42.5 -91.5q0 -50 -28 -89t-77 -60l-1 -4q78 -30 78 -113q0 -79 -60 -133q-61 -53 -148 -53z" />
    <glyph glyph-name="acute" unicode="&#xb4;" horiz-adv-x="443" 
d="M399 831l-182 -105l-17 33l177 114z" />
    <glyph glyph-name="paragraph" unicode="&#xb6;" horiz-adv-x="674" 
d="M325 729h295l-8 -55h-75l-94 -674q-19 -132 -145 -132h-251l7 50h157l65 461q-80 0 -124.5 39t-44.5 106q0 91 60 148q61 57 158 57zM383 1l94 673h-97l-106 -756h30q36 0 54.5 20t24.5 63z" />
    <glyph glyph-name="middot" unicode="&#xb7;" horiz-adv-x="263" 
d="M70 273q0 30 22 52.5t52 22.5q25 0 41 -15.5t16 -40.5q0 -30 -22 -52t-53 -22q-24 0 -40 16t-16 39z" />
    <glyph glyph-name="cedilla" unicode="&#xb8;" horiz-adv-x="535" 
d="M265 0l-34 -43q27 -1 44 -15t17 -37q0 -39 -31 -60q-52 -37 -125 -8l6 43q8 -16 34.5 -20.5t49 6.5t21.5 34q0 38 -69 22l3 20l65 88h23z" />
    <glyph glyph-name="uni00B9" unicode="&#xb9;" horiz-adv-x="357" 
d="M250 717h-141l7 49h22q54 0 91.5 26.5t44.5 69.5h58l-79 -562h-62z" />
    <glyph glyph-name="ordmasculine" unicode="&#xba;" horiz-adv-x="434" 
d="M259 729q76 0 124 -53q49 -52 49 -135q0 -82 -49 -134q-48 -52 -124 -52q-77 0 -126 51q-48 52 -48 135t48 135q50 53 126 53zM140 542q0 -63 31.5 -101t87.5 -38q53 0 85.5 38t32.5 102q0 62 -31.5 100t-86.5 38q-54 0 -86.5 -38t-32.5 -101z" />
    <glyph glyph-name="guillemotright" unicode="&#xbb;" horiz-adv-x="511" 
d="M156 478l91 -204l-149 -206h-59l140 206l-82 204h59zM329 478l92 -204l-150 -206h-59l140 206l-82 204h59z" />
    <glyph glyph-name="onequarter" unicode="&#xbc;" horiz-adv-x="880" 
d="M130 -46l520 814h57l-520 -814h-57zM219 256h-64l48 340h-123l7 52h45q43 0 66.5 21.5t23.5 55.5v4h64zM816 480l-46 -325h56l-8 -59h-56l-13 -96h-65l13 96h-217l8 56l221 328h107zM743 426l-184 -271h146z" />
    <glyph glyph-name="onehalf" unicode="&#xbd;" horiz-adv-x="879" 
d="M130 -46l520 814h57l-520 -814h-57zM219 256h-64l48 340h-123l7 52h45q43 0 66.5 21.5t23.5 55.5v4h64zM594 57l81 4h137l-9 -61h-289l2 16q7 53 37 95t68.5 68.5t76 51.5t63 58t25.5 73q0 31 -19 49t-53 18q-39 0 -66.5 -26.5t-32.5 -66.5l-63 5q10 64 58 104
q49 41 116 41q59 0 93.5 -31.5t34.5 -83.5q0 -48 -23 -87.5t-57.5 -66t-70.5 -50t-67.5 -51.5t-41.5 -59z" />
    <glyph glyph-name="threequarters" unicode="&#xbe;" horiz-adv-x="956" 
d="M217 -46l520 814h57l-520 -814h-57zM200 248q-69 0 -105 41.5t-25 107.5h66q-8 -43 13 -67.5t59 -24.5q42 0 71 27.5t29 67.5q0 32 -23 50.5t-61 18.5h-33l9 60h30q44 0 71.5 25t27.5 65q0 28 -19 43.5t-49 15.5q-39 0 -65.5 -25t-30.5 -67h-66q6 64 52 106q46 43 117 43
q59 0 95 -29t36 -79q0 -86 -85 -123l-1 -5q63 -25 63 -92t-51 -113q-50 -46 -125 -46zM903 480l-46 -325h56l-8 -59h-56l-13 -96h-65l13 96h-217l8 56l221 328h107zM830 426l-184 -271h146z" />
    <glyph glyph-name="questiondown" unicode="&#xbf;" horiz-adv-x="575" 
d="M363 729h99l-13 -96h-99zM354 538h61l-28 -199q-41 6 -66 6q-89 0 -144 -48q-55 -46 -55 -126q0 -57 39 -89t106 -32q72 0 120 37t60 101h63q-16 -90 -85 -143t-169 -53q-92 0 -145.5 46.5t-53.5 124.5q0 109 78 176q79 67 200 63z" />
    <glyph glyph-name="Agrave" unicode="&#xc0;" horiz-adv-x="649" 
d="M285 961l145 -114l-27 -33l-152 105zM606 0h-68l-45 188h-354l-98 -188h-71l383 729h74zM242 385l-73 -140h310l-34 140l-60 280h-4z" />
    <glyph glyph-name="Aacute" unicode="&#xc1;" horiz-adv-x="649" 
d="M561 961l22 -42l-182 -105l-17 33zM606 0h-68l-45 188h-354l-98 -188h-71l383 729h74zM242 385l-73 -140h310l-34 140l-60 280h-4z" />
    <glyph glyph-name="Acircumflex" unicode="&#xc2;" horiz-adv-x="649" 
d="M501 801l-86 106l-117 -106l-28 30l128 119h48l93 -118zM606 0h-68l-45 188h-354l-98 -188h-71l383 729h74zM242 385l-73 -140h310l-34 140l-60 280h-4z" />
    <glyph glyph-name="Atilde" unicode="&#xc3;" horiz-adv-x="649" 
d="M337 843q-31 0 -53 -33l-27 22q42 59 90 59q22 0 65 -17t60 -17q33 0 57 33l27 -24q-38 -56 -95 -56q-30 0 -68 16q-39 17 -56 17zM606 0h-68l-45 188h-354l-98 -188h-71l383 729h74zM242 385l-73 -140h310l-34 140l-60 280h-4z" />
    <glyph glyph-name="Adieresis" unicode="&#xc4;" horiz-adv-x="649" 
d="M295 931h62l-14 -102h-62zM479 931h62l-14 -102h-62zM606 0h-68l-45 188h-354l-98 -188h-71l383 729h74zM242 385l-73 -140h310l-34 140l-60 280h-4z" />
    <glyph glyph-name="Aring" unicode="&#xc5;" horiz-adv-x="649" 
d="M606 0h-68l-45 188h-354l-98 -188h-71l368 700q-47 20 -47 76q0 52 34 86.5t86 34.5q41 0 66 -23t25 -62q0 -36 -18.5 -66t-49.5 -44zM406 859q-29 0 -50 -22.5t-21 -53.5q0 -24 14.5 -39t38.5 -15q29 0 49 22.5t20 54.5q0 24 -13.5 38.5t-37.5 14.5zM242 385l-73 -140
h310l-34 140l-60 280h-4z" />
    <glyph glyph-name="AE" unicode="&#xc6;" horiz-adv-x="943" 
d="M946 729l-8 -63h-421l-38 -271h362l-9 -59h-361l-38 -273h420l-9 -63h-485l30 215h-248l-102 -215h-69l357 729h619zM168 272h229l55 394h-96z" />
    <glyph glyph-name="Ccedilla" unicode="&#xc7;" horiz-adv-x="750" 
d="M350 51q96 0 169.5 50t106.5 137h67q-36 -109 -123.5 -175t-206.5 -72l-22 -28q27 -1 44 -15t17 -37q0 -39 -31 -60q-52 -37 -125 -8l6 43q8 -16 34.5 -20.5t49 6.5t21.5 34q0 39 -69 22l3 20l31 42q-126 5 -194.5 80t-68.5 209q0 207 107 334q108 126 286 126
q129 0 202.5 -67t73.5 -182h-67q-5 88 -61.5 137.5t-157.5 49.5q-121 0 -203 -70q-80 -68 -97 -188l-16 -117q-15 -110 47 -181q61 -70 177 -70z" />
    <glyph glyph-name="Egrave" unicode="&#xc8;" horiz-adv-x="646" 
d="M435 847l-27 -33l-152 105l34 42zM547 0h-473l102 729h473l-8 -63h-408l-37 -261h361l-9 -60h-361l-39 -282h408z" />
    <glyph glyph-name="Eacute" unicode="&#xc9;" horiz-adv-x="646" 
d="M588 919l-182 -105l-17 33l177 114zM547 0h-473l102 729h473l-8 -63h-408l-37 -261h361l-9 -60h-361l-39 -282h408z" />
    <glyph glyph-name="Ecircumflex" unicode="&#xca;" horiz-adv-x="646" 
d="M303 801l-28 30l128 119h48l93 -118l-38 -31l-86 106zM547 0h-473l102 729h473l-8 -63h-408l-37 -261h361l-9 -60h-361l-39 -282h408z" />
    <glyph glyph-name="Edieresis" unicode="&#xcb;" horiz-adv-x="646" 
d="M348 829h-62l14 102h62zM532 829h-62l14 102h62zM547 0h-473l102 729h473l-8 -63h-408l-37 -261h361l-9 -60h-361l-39 -282h408z" />
    <glyph glyph-name="Igrave" unicode="&#xcc;" horiz-adv-x="285" 
d="M249 847l-27 -33l-152 105l34 42zM241 729l-102 -729h-65l102 729h65z" />
    <glyph glyph-name="Iacute" unicode="&#xcd;" horiz-adv-x="285" 
d="M402 919l-182 -105l-17 33l177 114zM241 729l-102 -729h-65l102 729h65z" />
    <glyph glyph-name="Icircumflex" unicode="&#xce;" horiz-adv-x="285" 
d="M117 801l-28 30l128 119h48l93 -118l-38 -31l-86 106zM241 729l-102 -729h-65l102 729h65z" />
    <glyph glyph-name="Idieresis" unicode="&#xcf;" horiz-adv-x="285" 
d="M162 829h-62l14 102h62zM346 829h-62l14 102h62zM241 729l-102 -729h-65l102 729h65z" />
    <glyph glyph-name="Eth" unicode="&#xd0;" horiz-adv-x="745" 
d="M176 729h289q129 0 192 -61.5t63 -194.5q0 -227 -92.5 -350t-264.5 -123h-289l48 346h-89l7 57h90zM634 305l16 118q18 127 -29.5 185t-163.5 58h-224l-37 -263h135l-6 -57h-137l-40 -283h224q114 0 179 57t83 185z" />
    <glyph glyph-name="Ntilde" unicode="&#xd1;" horiz-adv-x="790" 
d="M567 810q-30 0 -68 16q-39 17 -56 17q-30 0 -53 -33l-27 22q42 59 90 59q22 0 65 -17t60 -17q33 0 57 33l27 -24q-38 -56 -95 -56zM139 0h-65l102 729h86l329 -655h4l26 225l60 430h65l-102 -729h-87l-327 657h-4l-25 -217z" />
    <glyph glyph-name="Ograve" unicode="&#xd2;" horiz-adv-x="770" 
d="M492 847l-27 -33l-152 105l34 42zM59 279q0 209 108 333q108 126 287 126q141 0 215.5 -75t74.5 -214q0 -208 -108 -334q-108 -125 -287 -125q-141 0 -215.5 74.5t-74.5 214.5zM142 416l-15 -102q-18 -124 45 -194q63 -69 185 -69q126 0 206 71q80 73 98 192l15 102
q18 120 -44.5 190.5t-186.5 70.5q-125 0 -205 -70t-98 -191z" />
    <glyph glyph-name="Oacute" unicode="&#xd3;" horiz-adv-x="770" 
d="M645 919l-182 -105l-17 33l177 114zM59 279q0 209 108 333q108 126 287 126q141 0 215.5 -75t74.5 -214q0 -208 -108 -334q-108 -125 -287 -125q-141 0 -215.5 74.5t-74.5 214.5zM142 416l-15 -102q-18 -124 45 -194q63 -69 185 -69q126 0 206 71q80 73 98 192l15 102
q18 120 -44.5 190.5t-186.5 70.5q-125 0 -205 -70t-98 -191z" />
    <glyph glyph-name="Ocircumflex" unicode="&#xd4;" horiz-adv-x="770" 
d="M360 801l-28 30l128 119h48l93 -118l-38 -31l-86 106zM59 279q0 209 108 333q108 126 287 126q141 0 215.5 -75t74.5 -214q0 -208 -108 -334q-108 -125 -287 -125q-141 0 -215.5 74.5t-74.5 214.5zM142 416l-15 -102q-18 -124 45 -194q63 -69 185 -69q126 0 206 71
q80 73 98 192l15 102q18 120 -44.5 190.5t-186.5 70.5q-125 0 -205 -70t-98 -191z" />
    <glyph glyph-name="Otilde" unicode="&#xd5;" horiz-adv-x="770" 
d="M523 810q-30 0 -68 16q-39 17 -56 17q-30 0 -53 -33l-27 22q42 59 90 59q22 0 65 -17t60 -17q33 0 57 33l27 -24q-38 -56 -95 -56zM59 279q0 209 108 333q108 126 287 126q141 0 215.5 -75t74.5 -214q0 -208 -108 -334q-108 -125 -287 -125q-141 0 -215.5 74.5
t-74.5 214.5zM142 416l-15 -102q-18 -124 45 -194q63 -69 185 -69q126 0 206 71q80 73 98 192l15 102q18 120 -44.5 190.5t-186.5 70.5q-125 0 -205 -70t-98 -191z" />
    <glyph glyph-name="Odieresis" unicode="&#xd6;" horiz-adv-x="770" 
d="M405 829h-62l14 102h62zM589 829h-62l14 102h62zM59 279q0 209 108 333q108 126 287 126q141 0 215.5 -75t74.5 -214q0 -208 -108 -334q-108 -125 -287 -125q-141 0 -215.5 74.5t-74.5 214.5zM142 416l-15 -102q-18 -124 45 -194q63 -69 185 -69q126 0 206 71
q80 73 98 192l15 102q18 120 -44.5 190.5t-186.5 70.5q-125 0 -205 -70t-98 -191z" />
    <glyph glyph-name="multiply" unicode="&#xd7;" horiz-adv-x="749" 
d="M122 26l-37 46l253 228l-189 229l49 44l186 -225h8l248 225l37 -44l-253 -229l189 -228l-49 -46l-186 226h-8z" />
    <glyph glyph-name="Oslash" unicode="&#xd8;" horiz-adv-x="770" 
d="M781 652l28 -47l-78 -52q13 -43 13 -104q0 -208 -108 -334q-108 -125 -287 -125q-192 0 -259 136l-73 -49l-26 46l80 54q-12 45 -12 102q0 209 108 333q108 126 287 126q190 0 257 -133zM142 416l-15 -102q-7 -55 0 -100l530 355q-55 108 -212 108q-125 0 -205 -70
t-98 -191zM661 314l15 102q8 58 -1 100l-531 -354q54 -111 213 -111q126 0 206 71q80 73 98 192z" />
    <glyph glyph-name="Ugrave" unicode="&#xd9;" horiz-adv-x="776" 
d="M511 847l-27 -33l-152 105l34 42zM122 267l65 462h64l-64 -455q-15 -103 36.5 -162t152.5 -59t168.5 59t82.5 162l64 455h64l-65 -462q-16 -125 -104 -202q-87 -75 -219 -75q-133 0 -198 75q-64 75 -47 202z" />
    <glyph glyph-name="Uacute" unicode="&#xda;" horiz-adv-x="776" 
d="M664 919l-182 -105l-17 33l177 114zM122 267l65 462h64l-64 -455q-15 -103 36.5 -162t152.5 -59t168.5 59t82.5 162l64 455h64l-65 -462q-16 -125 -104 -202q-87 -75 -219 -75q-133 0 -198 75q-64 75 -47 202z" />
    <glyph glyph-name="Ucircumflex" unicode="&#xdb;" horiz-adv-x="776" 
d="M379 801l-28 30l128 119h48l93 -118l-38 -31l-86 106zM122 267l65 462h64l-64 -455q-15 -103 36.5 -162t152.5 -59t168.5 59t82.5 162l64 455h64l-65 -462q-16 -125 -104 -202q-87 -75 -219 -75q-133 0 -198 75q-64 75 -47 202z" />
    <glyph glyph-name="Udieresis" unicode="&#xdc;" horiz-adv-x="776" 
d="M424 829h-62l14 102h62zM608 829h-62l14 102h62zM122 267l65 462h64l-64 -455q-15 -103 36.5 -162t152.5 -59t168.5 59t82.5 162l64 455h64l-65 -462q-16 -125 -104 -202q-87 -75 -219 -75q-133 0 -198 75q-64 75 -47 202z" />
    <glyph glyph-name="Yacute" unicode="&#xdd;" horiz-adv-x="626" 
d="M573 919l-182 -105l-17 33l177 114zM287 301l-214 428h77l98 -202l74 -161h7l121 163l151 200h84l-333 -428l-42 -301h-65z" />
    <glyph glyph-name="Thorn" unicode="&#xde;" horiz-adv-x="670" 
d="M222 591h242q97 0 145.5 -45.5t48.5 -130.5q0 -128 -70 -202q-69 -74 -187 -74h-242l-20 -139h-65l83 591l20 139h65zM580 329l11 80q8 56 -24.5 87.5t-94.5 31.5h-258l-13 -89l-34 -240h245q71 0 115.5 35t52.5 95z" />
    <glyph glyph-name="germandbls" unicode="&#xdf;" horiz-adv-x="577" 
d="M118 440h-77l8 57h77l6 42q13 92 73.5 146t148.5 54q78 0 125 -41.5t47 -109.5q0 -63 -34 -113.5t-91 -70.5l-1 -7q64 -9 95 -51t31 -105q0 -109 -70 -175t-184 -66h-75l8 55h79q66 0 112 33.5t53 87.5l9 64q8 57 -28.5 90.5t-106.5 33.5h-30l9 59h17q48 0 85 23.5
t42 59.5l13 88q6 38 -30 60q-35 23 -85 23q-62 0 -102 -38t-49 -105l-75 -534h-62z" />
    <glyph glyph-name="agrave" unicode="&#xe0;" horiz-adv-x="559" 
d="M343 635l-27 -33l-152 105l34 42zM33 119q0 86 57.5 137t154.5 51h162l6 43q18 125 -119 125q-60 0 -98 -27.5t-48 -74.5h-64q16 72 75 113t145 41q96 0 139.5 -47t31.5 -131l-42 -300h82l-7 -49h-74q-65 0 -56 65l3 23h-6q-25 -45 -77.5 -71.5t-118.5 -26.5
q-69 0 -107.5 34.5t-38.5 94.5zM103 170l-5 -36q-6 -44 19.5 -67t76.5 -23q81 0 136 49t66 130l4 31h-162q-57 0 -93.5 -23t-41.5 -61z" />
    <glyph glyph-name="aacute" unicode="&#xe1;" horiz-adv-x="559" 
d="M496 707l-182 -105l-17 33l177 114zM33 119q0 86 57.5 137t154.5 51h162l6 43q18 125 -119 125q-60 0 -98 -27.5t-48 -74.5h-64q16 72 75 113t145 41q96 0 139.5 -47t31.5 -131l-42 -300h82l-7 -49h-74q-65 0 -56 65l3 23h-6q-25 -45 -77.5 -71.5t-118.5 -26.5
q-69 0 -107.5 34.5t-38.5 94.5zM103 170l-5 -36q-6 -44 19.5 -67t76.5 -23q81 0 136 49t66 130l4 31h-162q-57 0 -93.5 -23t-41.5 -61z" />
    <glyph glyph-name="acircumflex" unicode="&#xe2;" horiz-adv-x="559" 
d="M211 589l-28 30l128 119h48l93 -118l-38 -31l-86 106zM33 119q0 86 57.5 137t154.5 51h162l6 43q18 125 -119 125q-60 0 -98 -27.5t-48 -74.5h-64q16 72 75 113t145 41q96 0 139.5 -47t31.5 -131l-42 -300h82l-7 -49h-74q-65 0 -56 65l3 23h-6q-25 -45 -77.5 -71.5
t-118.5 -26.5q-69 0 -107.5 34.5t-38.5 94.5zM103 170l-5 -36q-6 -44 19.5 -67t76.5 -23q81 0 136 49t66 130l4 31h-162q-57 0 -93.5 -23t-41.5 -61z" />
    <glyph glyph-name="atilde" unicode="&#xe3;" horiz-adv-x="559" 
d="M374 598q-30 0 -68 16q-39 17 -56 17q-30 0 -53 -33l-27 22q42 59 90 59q22 0 65 -17t60 -17q33 0 57 33l27 -24q-38 -56 -95 -56zM33 119q0 86 57.5 137t154.5 51h162l6 43q18 125 -119 125q-60 0 -98 -27.5t-48 -74.5h-64q16 72 75 113t145 41q96 0 139.5 -47
t31.5 -131l-42 -300h82l-7 -49h-74q-65 0 -56 65l3 23h-6q-25 -45 -77.5 -71.5t-118.5 -26.5q-69 0 -107.5 34.5t-38.5 94.5zM103 170l-5 -36q-6 -44 19.5 -67t76.5 -23q81 0 136 49t66 130l4 31h-162q-57 0 -93.5 -23t-41.5 -61z" />
    <glyph glyph-name="adieresis" unicode="&#xe4;" horiz-adv-x="559" 
d="M256 617h-62l14 102h62zM440 617h-62l14 102h62zM33 119q0 86 57.5 137t154.5 51h162l6 43q18 125 -119 125q-60 0 -98 -27.5t-48 -74.5h-64q16 72 75 113t145 41q96 0 139.5 -47t31.5 -131l-42 -300h82l-7 -49h-74q-65 0 -56 65l3 23h-6q-25 -45 -77.5 -71.5
t-118.5 -26.5q-69 0 -107.5 34.5t-38.5 94.5zM103 170l-5 -36q-6 -44 19.5 -67t76.5 -23q81 0 136 49t66 130l4 31h-162q-57 0 -93.5 -23t-41.5 -61z" />
    <glyph glyph-name="aring" unicode="&#xe5;" horiz-adv-x="559" 
d="M475 349l-42 -300h82l-7 -49h-74q-65 0 -56 65l3 23h-6q-25 -45 -77.5 -71.5t-118.5 -26.5q-69 0 -107.5 34.5t-38.5 94.5q0 86 57.5 137t154.5 51h162l6 43q18 125 -119 125q-60 0 -98 -27.5t-48 -74.5h-64q12 57 52 95t102 52q-28 22 -28 65q0 52 34 86.5t86 34.5
q41 0 66 -23t25 -62q0 -67 -52 -101q62 -15 88.5 -59t17.5 -112zM325 668q-29 0 -50 -22.5t-21 -53.5q0 -24 14.5 -39t38.5 -15q29 0 49 22.5t20 54.5q0 24 -13.5 38.5t-37.5 14.5zM396 223l4 31h-162q-57 0 -93.5 -23t-41.5 -61l-5 -36q-6 -44 19.5 -67t76.5 -23
q81 0 136 49t66 130z" />
    <glyph glyph-name="ae" unicode="&#xe6;" horiz-adv-x="938" 
d="M188 -10q-75 0 -115 34t-40 95q0 86 59 137t161 51h169l4 29q9 65 -24.5 102t-100.5 37q-60 0 -101 -28t-52 -74h-64q16 69 78 111q62 43 149 43q68 0 114.5 -29t58.5 -77q37 49 94.5 77.5t120.5 28.5q88 0 140.5 -52t52.5 -138q0 -24 -13 -93h-394q-15 -89 24.5 -142
t127.5 -53q60 0 106 25.5t67 70.5h63q-27 -72 -93 -113.5t-152 -41.5q-80 0 -131 36.5t-67 102.5q-33 -65 -98 -102t-144 -37zM493 303h334q10 75 -28.5 120t-112.5 45q-75 0 -127 -46q-52 -45 -66 -119zM200 44q82 0 141 51q61 52 71 142l2 17h-176q-57 0 -93.5 -22.5
t-41.5 -61.5l-5 -36q-6 -42 22 -66t80 -24z" />
    <glyph glyph-name="ccedilla" unicode="&#xe7;" horiz-adv-x="562" 
d="M261 44q63 0 112 34.5t68 92.5h63q-24 -77 -84.5 -125t-142.5 -55v-1l-34 -43q27 -1 44 -15t17 -37q0 -39 -31 -60q-52 -37 -125 -8l6 43q8 -16 34.5 -20.5t49 6.5t21.5 34q0 38 -69 22l3 20l43 58q-90 5 -140 62t-50 151q0 141 80 233q81 91 206 91q86 0 138.5 -46.5
t56.5 -125.5h-63q-8 58 -45.5 87.5t-97.5 29.5q-76 0 -133 -51q-56 -50 -68 -130l-11 -75q-11 -77 30.5 -124.5t121.5 -47.5z" />
    <glyph glyph-name="egrave" unicode="&#xe8;" horiz-adv-x="565" 
d="M365 635l-27 -33l-152 105l34 42zM47 204q0 143 78 233t202 90q92 0 143.5 -49.5t51.5 -137.5q0 -46 -13 -94h-395l-4 -30q-11 -78 30.5 -125t121.5 -47q59 0 107 30t69 79h63q-25 -72 -95 -118q-69 -45 -155 -45q-96 0 -150 57t-54 157zM123 314l-2 -16h335l3 23
q9 68 -29 110t-111 42q-76 0 -132 -44q-55 -43 -64 -115z" />
    <glyph glyph-name="eacute" unicode="&#xe9;" horiz-adv-x="565" 
d="M518 707l-182 -105l-17 33l177 114zM47 204q0 143 78 233t202 90q92 0 143.5 -49.5t51.5 -137.5q0 -46 -13 -94h-395l-4 -30q-11 -78 30.5 -125t121.5 -47q59 0 107 30t69 79h63q-25 -72 -95 -118q-69 -45 -155 -45q-96 0 -150 57t-54 157zM123 314l-2 -16h335l3 23
q9 68 -29 110t-111 42q-76 0 -132 -44q-55 -43 -64 -115z" />
    <glyph glyph-name="ecircumflex" unicode="&#xea;" horiz-adv-x="565" 
d="M233 589l-28 30l128 119h48l93 -118l-38 -31l-86 106zM47 204q0 143 78 233t202 90q92 0 143.5 -49.5t51.5 -137.5q0 -46 -13 -94h-395l-4 -30q-11 -78 30.5 -125t121.5 -47q59 0 107 30t69 79h63q-25 -72 -95 -118q-69 -45 -155 -45q-96 0 -150 57t-54 157zM123 314
l-2 -16h335l3 23q9 68 -29 110t-111 42q-76 0 -132 -44q-55 -43 -64 -115z" />
    <glyph glyph-name="edieresis" unicode="&#xeb;" horiz-adv-x="565" 
d="M278 617h-62l14 102h62zM462 617h-62l14 102h62zM47 204q0 143 78 233t202 90q92 0 143.5 -49.5t51.5 -137.5q0 -46 -13 -94h-395l-4 -30q-11 -78 30.5 -125t121.5 -47q59 0 107 30t69 79h63q-25 -72 -95 -118q-69 -45 -155 -45q-96 0 -150 57t-54 157zM123 314l-2 -16
h335l3 23q9 68 -29 110t-111 42q-76 0 -132 -44q-55 -43 -64 -115z" />
    <glyph glyph-name="igrave" unicode="&#xec;" horiz-adv-x="254" 
d="M205 645l-27 -33l-152 105l34 42zM122 0h-62l73 517h62z" />
    <glyph glyph-name="iacute" unicode="&#xed;" horiz-adv-x="254" 
d="M358 717l-182 -105l-17 33l177 114zM122 0h-62l73 517h62z" />
    <glyph glyph-name="icircumflex" unicode="&#xee;" horiz-adv-x="254" 
d="M73 599l-28 30l128 119h48l93 -118l-38 -31l-86 106zM122 0h-62l73 517h62z" />
    <glyph glyph-name="idieresis" unicode="&#xef;" horiz-adv-x="254" 
d="M118 627h-62l14 102h62zM302 627h-62l14 102h62zM122 0h-62l73 517h62z" />
    <glyph glyph-name="eth" unicode="&#xf0;" horiz-adv-x="597" 
d="M44 195q0 126 79 209q79 85 198 85q48 0 69 -10l2 1l-37 48l-42 64l-124 -44l7 50l90 33l-79 122h84l64 -98l133 46l-7 -49l-102 -35l93 -145q28 -44 34 -56q12 -20 26 -64q14 -45 14 -85q0 -119 -82 -198q-80 -79 -204 -79q-100 0 -158 55t-58 150zM124 280l-11 -77
q-10 -71 33 -112t124 -41t135 41t64 112l11 77q10 70 -33 111t-124 41t-135 -41.5t-64 -110.5z" />
    <glyph glyph-name="ntilde" unicode="&#xf1;" horiz-adv-x="610" 
d="M450 598q-30 0 -68 16q-39 17 -56 17q-30 0 -53 -33l-27 22q42 59 90 59q22 0 65 -17t60 -17q33 0 57 33l27 -24q-38 -56 -95 -56zM123 0h-63l73 517h55l-5 -97h6q31 50 82 78.5t109 28.5q82 0 123 -55.5t28 -150.5l-45 -321h-63l44 315q21 152 -110 152q-75 0 -129 -55
q-54 -54 -67 -142z" />
    <glyph glyph-name="ograve" unicode="&#xf2;" horiz-adv-x="588" 
d="M370 635l-27 -33l-152 105l34 42zM46 203q0 141 80 233q81 91 206 91q97 0 153.5 -56.5t56.5 -157.5q0 -141 -80 -233q-80 -90 -206 -90q-100 0 -155 56.5t-55 156.5zM120 296l-11 -80q-11 -79 33 -125.5t122 -46.5q75 0 133 46q60 47 70 126l11 80q11 77 -32 126
q-44 50 -122 50t-136 -49q-57 -49 -68 -127z" />
    <glyph glyph-name="oacute" unicode="&#xf3;" horiz-adv-x="588" 
d="M523 707l-182 -105l-17 33l177 114zM46 203q0 141 80 233q81 91 206 91q97 0 153.5 -56.5t56.5 -157.5q0 -141 -80 -233q-80 -90 -206 -90q-100 0 -155 56.5t-55 156.5zM120 296l-11 -80q-11 -79 33 -125.5t122 -46.5q75 0 133 46q60 47 70 126l11 80q11 77 -32 126
q-44 50 -122 50t-136 -49q-57 -49 -68 -127z" />
    <glyph glyph-name="ocircumflex" unicode="&#xf4;" horiz-adv-x="588" 
d="M238 589l-28 30l128 119h48l93 -118l-38 -31l-86 106zM46 203q0 141 80 233q81 91 206 91q97 0 153.5 -56.5t56.5 -157.5q0 -141 -80 -233q-80 -90 -206 -90q-100 0 -155 56.5t-55 156.5zM120 296l-11 -80q-11 -79 33 -125.5t122 -46.5q75 0 133 46q60 47 70 126l11 80
q11 77 -32 126q-44 50 -122 50t-136 -49q-57 -49 -68 -127z" />
    <glyph glyph-name="otilde" unicode="&#xf5;" horiz-adv-x="588" 
d="M401 598q-30 0 -68 16q-39 17 -56 17q-31 0 -53 -33l-27 22q42 59 90 59q22 0 65 -17t60 -17q33 0 57 33l27 -24q-38 -56 -95 -56zM46 203q0 141 80 233q81 91 206 91q97 0 153.5 -56.5t56.5 -157.5q0 -141 -80 -233q-80 -90 -206 -90q-100 0 -155 56.5t-55 156.5z
M120 296l-11 -80q-11 -79 33 -125.5t122 -46.5q75 0 133 46q60 47 70 126l11 80q11 77 -32 126q-44 50 -122 50t-136 -49q-57 -49 -68 -127z" />
    <glyph glyph-name="odieresis" unicode="&#xf6;" horiz-adv-x="588" 
d="M283 617h-62l14 102h62zM467 617h-62l14 102h62zM46 203q0 141 80 233q81 91 206 91q97 0 153.5 -56.5t56.5 -157.5q0 -141 -80 -233q-80 -90 -206 -90q-100 0 -155 56.5t-55 156.5zM120 296l-11 -80q-11 -79 33 -125.5t122 -46.5q75 0 133 46q60 47 70 126l11 80
q11 77 -32 126q-44 50 -122 50t-136 -49q-57 -49 -68 -127z" />
    <glyph glyph-name="divide" unicode="&#xf7;" horiz-adv-x="680" 
d="M413 442h-101l16 112h101zM586 263h-492l9 65h492zM358 47h-101l15 111h101z" />
    <glyph glyph-name="oslash" unicode="&#xf8;" horiz-adv-x="588" 
d="M572 474l23 -43l-95 -63q5 -32 5 -55q0 -141 -80 -233q-79 -90 -206 -90q-116 0 -171 76l-34 -23l-22 42l33 22q-16 44 -16 96q0 141 80 233q81 91 206 91q142 0 190 -111zM83 296l-11 -80q-6 -41 4 -74l357 239q-16 42 -54.5 66.5t-91.5 24.5q-78 0 -136 -49
q-57 -49 -68 -127zM430 216l11 80q2 14 2 33l-345 -230q43 -55 129 -55q75 0 133 46q60 47 70 126z" />
    <glyph glyph-name="ugrave" unicode="&#xf9;" horiz-adv-x="603" 
d="M389 645l-27 -33l-152 105l34 42zM494 517h63l-73 -517h-52l3 96h-7q-28 -48 -80.5 -77t-112.5 -29q-79 0 -118 51t-26 144l47 332h63l-46 -325q-21 -147 103 -147q77 0 131 55q53 55 67 147z" />
    <glyph glyph-name="uacute" unicode="&#xfa;" horiz-adv-x="603" 
d="M542 717l-182 -105l-17 33l177 114zM494 517h63l-73 -517h-52l3 96h-7q-28 -48 -80.5 -77t-112.5 -29q-79 0 -118 51t-26 144l47 332h63l-46 -325q-21 -147 103 -147q77 0 131 55q53 55 67 147z" />
    <glyph glyph-name="ucircumflex" unicode="&#xfb;" horiz-adv-x="603" 
d="M257 599l-28 30l128 119h48l93 -118l-38 -31l-86 106zM494 517h63l-73 -517h-52l3 96h-7q-28 -48 -80.5 -77t-112.5 -29q-79 0 -118 51t-26 144l47 332h63l-46 -325q-21 -147 103 -147q77 0 131 55q53 55 67 147z" />
    <glyph glyph-name="udieresis" unicode="&#xfc;" horiz-adv-x="603" 
d="M302 627h-62l14 102h62zM486 627h-62l14 102h62zM494 517h63l-73 -517h-52l3 96h-7q-28 -48 -80.5 -77t-112.5 -29q-79 0 -118 51t-26 144l47 332h63l-46 -325q-21 -147 103 -147q77 0 131 55q53 55 67 147z" />
    <glyph glyph-name="yacute" unicode="&#xfd;" horiz-adv-x="500" 
d="M482 717l-182 -105l-17 33l177 114zM191 59l-153 458h69l55 -174l63 -211h6l126 211l103 174h74l-282 -460l-23 -165q-8 -59 -65 -59h-130l8 54h126z" />
    <glyph glyph-name="thorn" unicode="&#xfe;" 
d="M99 -167h-63l126 896h63l-43 -302h6q32 47 85.5 73.5t118.5 26.5q88 0 136 -52t48 -148q0 -146 -72 -238q-70 -90 -187 -90q-65 0 -110.5 26.5t-64.5 73.5h-6zM313 53q75 0 125 42.5t60 111.5l16 112q10 70 -28.5 112t-113.5 42q-82 0 -140 -49q-57 -48 -68 -125l-10 -72
q-10 -78 34 -126t125 -48z" />
    <glyph glyph-name="ydieresis" unicode="&#xff;" horiz-adv-x="500" 
d="M242 627h-62l14 102h62zM426 627h-62l14 102h62zM191 59l-153 458h69l55 -174l63 -211h6l126 211l103 174h74l-282 -460l-23 -165q-8 -59 -65 -59h-130l8 54h126z" />
    <glyph glyph-name="Amacron" unicode="&#x100;" horiz-adv-x="649" 
d="M263 869h292l-6 -45h-292zM606 0h-68l-45 188h-354l-98 -188h-71l383 729h74zM242 385l-73 -140h310l-34 140l-60 280h-4z" />
    <glyph glyph-name="amacron" unicode="&#x101;" horiz-adv-x="559" 
d="M462 612h-292l6 45h292zM33 119q0 86 57.5 137t154.5 51h162l6 43q18 125 -119 125q-60 0 -98 -27.5t-48 -74.5h-64q16 72 75 113t145 41q96 0 139.5 -47t31.5 -131l-42 -300h82l-7 -49h-74q-65 0 -56 65l3 23h-6q-25 -45 -77.5 -71.5t-118.5 -26.5q-69 0 -107.5 34.5
t-38.5 94.5zM103 170l-5 -36q-6 -44 19.5 -67t76.5 -23q81 0 136 49t66 130l4 31h-162q-57 0 -93.5 -23t-41.5 -61z" />
    <glyph glyph-name="Abreve" unicode="&#x102;" horiz-adv-x="649" 
d="M284 950h47q-6 -42 15.5 -67.5t60.5 -25.5q40 0 68 25.5t34 67.5h48q-8 -60 -51.5 -97.5t-104.5 -37.5t-93 37t-24 98zM606 0h-68l-45 188h-354l-98 -188h-71l383 729h74zM242 385l-73 -140h310l-34 140l-60 280h-4z" />
    <glyph glyph-name="abreve" unicode="&#x103;" horiz-adv-x="559" 
d="M422 738h48q-8 -60 -51.5 -97.5t-104.5 -37.5t-93 37t-24 98h47q-6 -42 15.5 -67.5t60.5 -25.5q40 0 68 25.5t34 67.5zM33 119q0 86 57.5 137t154.5 51h162l6 43q18 125 -119 125q-60 0 -98 -27.5t-48 -74.5h-64q16 72 75 113t145 41q96 0 139.5 -47t31.5 -131l-42 -300
h82l-7 -49h-74q-65 0 -56 65l3 23h-6q-25 -45 -77.5 -71.5t-118.5 -26.5q-69 0 -107.5 34.5t-38.5 94.5zM103 170l-5 -36q-6 -44 19.5 -67t76.5 -23q81 0 136 49t66 130l4 31h-162q-57 0 -93.5 -23t-41.5 -61z" />
    <glyph glyph-name="Aogonek" unicode="&#x104;" horiz-adv-x="649" 
d="M568 -137q28 0 52 12l-5 -39q-29 -13 -65 -11t-56 20t-20 48q0 64 67 107h-3l-45 188h-354l-98 -188h-71l383 729h74l179 -729q-41 -14 -64 -39.5t-23 -56.5q0 -41 49 -41zM242 385l-73 -140h310l-34 140l-60 280h-4z" />
    <glyph glyph-name="aogonek" unicode="&#x105;" horiz-adv-x="559" 
d="M470 -137q28 0 52 12l-5 -39q-29 -13 -65 -11t-56 20t-20 48q0 64 67 107h-9q-65 0 -56 65l3 23h-6q-25 -45 -77.5 -71.5t-118.5 -26.5q-69 0 -107.5 34.5t-38.5 94.5q0 86 57.5 137t154.5 51h162l6 43q18 125 -119 125q-60 0 -98 -27.5t-48 -74.5h-64q16 72 75 113
t145 41q96 0 139.5 -47t31.5 -131l-42 -300h82l-7 -49q-41 -14 -64 -39.5t-23 -56.5q0 -41 49 -41zM396 223l4 31h-162q-57 0 -93.5 -23t-41.5 -61l-5 -36q-6 -44 19.5 -67t76.5 -23q81 0 136 49t66 130z" />
    <glyph glyph-name="Cacute" unicode="&#x106;" horiz-adv-x="750" 
d="M640 919l-182 -105l-17 33l177 114zM339 -10q-134 0 -207 75t-73 214q0 207 107 334q108 126 286 126q129 0 202.5 -67t73.5 -182h-67q-5 88 -61.5 137.5t-157.5 49.5q-121 0 -203 -70q-80 -68 -97 -188l-16 -117q-15 -110 47 -181q61 -70 177 -70q96 0 169.5 50
t106.5 137h67q-38 -114 -131 -181q-94 -67 -223 -67z" />
    <glyph glyph-name="cacute" unicode="&#x107;" horiz-adv-x="562" 
d="M523 707l-182 -105l-17 33l177 114zM441 171h63q-26 -84 -93.5 -132.5t-157.5 -48.5q-98 0 -152.5 56.5t-54.5 156.5q0 141 80 233q81 91 206 91q86 0 138.5 -46.5t56.5 -125.5h-63q-8 58 -45.5 87.5t-97.5 29.5q-76 0 -133 -51q-56 -50 -68 -130l-11 -75
q-11 -77 30.5 -124.5t121.5 -47.5q63 0 112 34.5t68 92.5z" />
    <glyph glyph-name="Cdotaccent" unicode="&#x10a;" horiz-adv-x="750" 
d="M492 829h-62l14 102h62zM339 -10q-134 0 -207 75t-73 214q0 207 107 334q108 126 286 126q129 0 202.5 -67t73.5 -182h-67q-5 88 -61.5 137.5t-157.5 49.5q-121 0 -203 -70q-80 -68 -97 -188l-16 -117q-15 -110 47 -181q61 -70 177 -70q96 0 169.5 50t106.5 137h67
q-38 -114 -131 -181q-94 -67 -223 -67z" />
    <glyph glyph-name="cdotaccent" unicode="&#x10b;" horiz-adv-x="562" 
d="M375 617h-62l14 102h62zM441 171h63q-26 -84 -93.5 -132.5t-157.5 -48.5q-98 0 -152.5 56.5t-54.5 156.5q0 141 80 233q81 91 206 91q86 0 138.5 -46.5t56.5 -125.5h-63q-8 58 -45.5 87.5t-97.5 29.5q-76 0 -133 -51q-56 -50 -68 -130l-11 -75q-11 -77 30.5 -124.5
t121.5 -47.5q63 0 112 34.5t68 92.5z" />
    <glyph glyph-name="Ccaron" unicode="&#x10c;" horiz-adv-x="750" 
d="M429 781l-93 120l38 30l85 -107l116 107l30 -30l-127 -120h-49zM339 -10q-134 0 -207 75t-73 214q0 207 107 334q108 126 286 126q129 0 202.5 -67t73.5 -182h-67q-5 88 -61.5 137.5t-157.5 49.5q-121 0 -203 -70q-80 -68 -97 -188l-16 -117q-15 -110 47 -181
q61 -70 177 -70q96 0 169.5 50t106.5 137h67q-38 -114 -131 -181q-94 -67 -223 -67z" />
    <glyph glyph-name="ccaron" unicode="&#x10d;" horiz-adv-x="562" 
d="M312 569l-93 120l38 30l85 -107l116 107l30 -30l-127 -120h-49zM441 171h63q-26 -84 -93.5 -132.5t-157.5 -48.5q-98 0 -152.5 56.5t-54.5 156.5q0 141 80 233q81 91 206 91q86 0 138.5 -46.5t56.5 -125.5h-63q-8 58 -45.5 87.5t-97.5 29.5q-76 0 -133 -51
q-56 -50 -68 -130l-11 -75q-11 -77 30.5 -124.5t121.5 -47.5q63 0 112 34.5t68 92.5z" />
    <glyph glyph-name="Dcaron" unicode="&#x10e;" horiz-adv-x="745" 
d="M421 781l-93 120l38 30l85 -107l116 107l30 -30l-127 -120h-49zM363 0h-289l102 729h289q129 0 192 -61.5t63 -194.5q0 -227 -92.5 -350t-264.5 -123zM233 666l-85 -603h224q114 0 179 57t83 185l16 118q18 127 -29.5 185t-163.5 58h-224z" />
    <glyph glyph-name="dcaron" unicode="&#x10f;" 
d="M230 -10q-89 0 -137 52t-48 148q0 146 71 237q72 91 188 91q65 0 110.5 -26.5t64.5 -73.5h6l43 311h63l-102 -729h-58l8 90h-6q-67 -100 -203 -100zM688 529l5 35q65 0 72 60l1 7h-57l14 98h101l-15 -110q-6 -41 -39.5 -65.5t-81.5 -24.5zM249 44q82 0 139 48
q58 50 69 126l10 72q10 78 -34 126t-125 48q-75 0 -125 -42.5t-60 -111.5l-16 -112q-10 -69 28.5 -111.5t113.5 -42.5z" />
    <glyph glyph-name="Dcroat" unicode="&#x110;" horiz-adv-x="745" 
d="M176 729h289q129 0 192 -61.5t63 -194.5q0 -227 -92.5 -350t-264.5 -123h-289l48 346h-89l7 57h90zM634 305l16 118q18 127 -29.5 185t-163.5 58h-224l-37 -263h135l-6 -57h-137l-40 -283h224q114 0 179 57t83 185z" />
    <glyph glyph-name="dslash" unicode="&#x111;" 
d="M577 632h65l-6 -48h-65l-82 -584h-58l8 90h-6q-67 -100 -203 -100q-89 0 -137 52t-48 148q0 146 71 237q72 91 188 91q65 0 110.5 -26.5t64.5 -73.5h6l23 166h-198l7 48h198l13 97h63zM457 218l10 72q10 78 -34 126t-125 48q-75 0 -125 -42.5t-60 -111.5l-16 -112
q-10 -69 28.5 -111.5t113.5 -42.5q82 0 139 48q58 50 69 126z" />
    <glyph glyph-name="Emacron" unicode="&#x112;" horiz-adv-x="646" 
d="M554 824h-292l6 45h292zM547 0h-473l102 729h473l-8 -63h-408l-37 -261h361l-9 -60h-361l-39 -282h408z" />
    <glyph glyph-name="emacron" unicode="&#x113;" horiz-adv-x="565" 
d="M484 612h-292l6 45h292zM47 204q0 143 78 233t202 90q92 0 143.5 -49.5t51.5 -137.5q0 -46 -13 -94h-395l-4 -30q-11 -78 30.5 -125t121.5 -47q59 0 107 30t69 79h63q-25 -72 -95 -118q-69 -45 -155 -45q-96 0 -150 57t-54 157zM123 314l-2 -16h335l3 23q9 68 -29 110
t-111 42q-76 0 -132 -44q-55 -43 -64 -115z" />
    <glyph glyph-name="Edotaccent" unicode="&#x116;" horiz-adv-x="646" 
d="M440 829h-62l14 102h62zM547 0h-473l102 729h473l-8 -63h-408l-37 -261h361l-9 -60h-361l-39 -282h408z" />
    <glyph glyph-name="edotaccent" unicode="&#x117;" horiz-adv-x="565" 
d="M370 617h-62l14 102h62zM47 204q0 143 78 233t202 90q92 0 143.5 -49.5t51.5 -137.5q0 -46 -13 -94h-395l-4 -30q-11 -78 30.5 -125t121.5 -47q59 0 107 30t69 79h63q-25 -72 -95 -118q-69 -45 -155 -45q-96 0 -150 57t-54 157zM123 314l-2 -16h335l3 23q9 68 -29 110
t-111 42q-76 0 -132 -44q-55 -43 -64 -115z" />
    <glyph glyph-name="Eogonek" unicode="&#x118;" horiz-adv-x="646" 
d="M649 729l-8 -63h-408l-37 -261h361l-9 -60h-361l-39 -282h408l-9 -63q-41 -14 -64 -39.5t-23 -56.5q0 -41 49 -41q28 0 52 12l-5 -39q-29 -13 -65 -11t-56 20t-20 48q0 64 67 107h-408l102 729h473z" />
    <glyph glyph-name="eogonek" unicode="&#x119;" horiz-adv-x="565" 
d="M509 246h-395l-4 -30q-11 -78 30.5 -125t121.5 -47q59 0 107 30t69 79h63q-24 -67 -85 -111t-139 -51l1 -1q-41 -14 -64 -39.5t-23 -56.5q0 -41 49 -41q28 0 52 12l-5 -39q-29 -13 -65 -11t-56 20t-20 48q0 66 70 109q-81 11 -125 66.5t-44 145.5q0 143 78 233t202 90
q92 0 143.5 -49.5t51.5 -137.5q0 -46 -13 -94zM123 314l-2 -16h335l3 23q9 68 -29 110t-111 42q-76 0 -132 -44q-55 -43 -64 -115z" />
    <glyph glyph-name="Ecaron" unicode="&#x11a;" horiz-adv-x="646" 
d="M377 781l-93 120l38 30l85 -107l116 107l30 -30l-127 -120h-49zM547 0h-473l102 729h473l-8 -63h-408l-37 -261h361l-9 -60h-361l-39 -282h408z" />
    <glyph glyph-name="ecaron" unicode="&#x11b;" horiz-adv-x="565" 
d="M307 569l-93 120l38 30l85 -107l116 107l30 -30l-127 -120h-49zM47 204q0 143 78 233t202 90q92 0 143.5 -49.5t51.5 -137.5q0 -46 -13 -94h-395l-4 -30q-11 -78 30.5 -125t121.5 -47q59 0 107 30t69 79h63q-25 -72 -95 -118q-69 -45 -155 -45q-96 0 -150 57t-54 157z
M123 314l-2 -16h335l3 23q9 68 -29 110t-111 42q-76 0 -132 -44q-55 -43 -64 -115z" />
    <glyph glyph-name="Gbreve" unicode="&#x11e;" horiz-adv-x="813" 
d="M578 950h48q-8 -60 -51.5 -97.5t-104.5 -37.5t-93 37t-24 98h47q-6 -42 15.5 -67.5t60.5 -25.5q40 0 68 25.5t34 67.5zM58 280q0 201 112 329q112 129 285 129q119 0 193 -60q75 -59 79 -159h-68q-4 71 -61 114.5t-148 43.5q-120 0 -206 -73q-86 -71 -103 -188l-16 -114
q-16 -112 46 -183q61 -70 183 -70t208 76q88 76 106 195h-304l9 61h369l-54 -381h-54l10 138h-7q-106 -148 -299 -148q-134 0 -207 77t-73 213z" />
    <glyph glyph-name="gbreve" unicode="&#x11f;" horiz-adv-x="522" 
d="M183 738h47q-6 -42 15.5 -67.5t60.5 -25.5q40 0 68 25.5t34 67.5h48q-8 -60 -51.5 -97.5t-104.5 -37.5t-93 37t-24 98zM540 578l-8 -54h-99l-7 -51q30 -37 30 -93q0 -84 -60 -141q-61 -56 -149 -56q-35 0 -72 9q-27 -3 -44 -20t-17 -40q0 -40 65 -40h145q64 0 99.5 -27.5
t35.5 -75.5q0 -78 -69 -122t-192 -44q-98 0 -149.5 28.5t-51.5 80.5q0 42 25.5 74.5t70.5 46.5l1 6q-40 13 -40 58q0 31 22.5 57.5t55.5 34.5l1 6q-57 37 -57 113q0 85 61 142t154 57q55 0 92 -19l2 16q7 54 68 54h87zM388 334l6 40q7 46 -23.5 75t-86.5 29t-94.5 -28.5
t-45.5 -75.5l-6 -40q-7 -46 24 -74.5t87 -28.5t94 28.5t45 74.5zM316 36h-151q-49 0 -78 -24.5t-29 -65.5q0 -73 150 -73q91 0 139 27t48 77q0 59 -79 59z" />
    <glyph glyph-name="Gdotaccent" unicode="&#x120;" horiz-adv-x="813" 
d="M504 829h-62l14 102h62zM58 280q0 201 112 329q112 129 285 129q119 0 193 -60q75 -59 79 -159h-68q-4 71 -61 114.5t-148 43.5q-120 0 -206 -73q-86 -71 -103 -188l-16 -114q-16 -112 46 -183q61 -70 183 -70t208 76q88 76 106 195h-304l9 61h369l-54 -381h-54l10 138
h-7q-106 -148 -299 -148q-134 0 -207 77t-73 213z" />
    <glyph glyph-name="gdotaccent" unicode="&#x121;" horiz-adv-x="522" 
d="M286 719h62l-14 -102h-62zM540 578l-8 -54h-99l-7 -51q30 -37 30 -93q0 -84 -60 -141q-61 -56 -149 -56q-35 0 -72 9q-27 -3 -44 -20t-17 -40q0 -40 65 -40h145q64 0 99.5 -27.5t35.5 -75.5q0 -78 -69 -122t-192 -44q-98 0 -149.5 28.5t-51.5 80.5q0 42 25.5 74.5
t70.5 46.5l1 6q-40 13 -40 58q0 31 22.5 57.5t55.5 34.5l1 6q-57 37 -57 113q0 85 61 142t154 57q55 0 92 -19l2 16q7 54 68 54h87zM388 334l6 40q7 46 -23.5 75t-86.5 29t-94.5 -28.5t-45.5 -75.5l-6 -40q-7 -46 24 -74.5t87 -28.5t94 28.5t45 74.5zM316 36h-151
q-49 0 -78 -24.5t-29 -65.5q0 -73 150 -73q91 0 139 27t48 77q0 59 -79 59z" />
    <glyph glyph-name="uni0122" unicode="&#x122;" horiz-adv-x="813" 
d="M58 280q0 201 112 329q112 129 285 129q119 0 193 -60q75 -59 79 -159h-68q-4 71 -61 114.5t-148 43.5q-120 0 -206 -73q-86 -71 -103 -188l-16 -114q-16 -112 46 -183q61 -70 183 -70t208 76q88 76 106 195h-304l9 61h369l-54 -381h-54l10 138h-7q-106 -148 -299 -148
q-134 0 -207 77t-73 213zM322 -202v22q16 0 26.5 12t10.5 32v3h-37v76h67v-71q0 -35 -18 -54.5t-49 -19.5z" />
    <glyph glyph-name="uni0123" unicode="&#x123;" horiz-adv-x="522" 
d="M285 692h37v-76h-67v64q0 37 18 59t49 22v-22q-16 0 -26.5 -12t-10.5 -32v-3zM540 578l-8 -54h-99l-7 -51q30 -37 30 -93q0 -84 -60 -141q-61 -56 -149 -56q-35 0 -72 9q-27 -3 -44 -20t-17 -40q0 -40 65 -40h145q64 0 99.5 -27.5t35.5 -75.5q0 -78 -69 -122t-192 -44
q-98 0 -149.5 28.5t-51.5 80.5q0 42 25.5 74.5t70.5 46.5l1 6q-40 13 -40 58q0 31 22.5 57.5t55.5 34.5l1 6q-57 37 -57 113q0 85 61 142t154 57q55 0 92 -19l2 16q7 54 68 54h87zM388 334l6 40q7 46 -23.5 75t-86.5 29t-94.5 -28.5t-45.5 -75.5l-6 -40q-7 -46 24 -74.5
t87 -28.5t94 28.5t45 74.5zM316 36h-151q-49 0 -78 -24.5t-29 -65.5q0 -73 150 -73q91 0 139 27t48 77q0 59 -79 59z" />
    <glyph glyph-name="Hbar" unicode="&#x126;" horiz-adv-x="800" 
d="M741 622h73l-7 -55h-74l-79 -567h-65l48 344h-450l-48 -344h-65l79 567h-84l7 55h85l15 107h65l-15 -107h450l15 107h65zM196 404h450l23 163h-450z" />
    <glyph glyph-name="hbar" unicode="&#x127;" horiz-adv-x="609" 
d="M379 527q82 0 123 -55t28 -150l-45 -322h-63l44 316q22 156 -110 156q-75 0 -129 -55q-53 -54 -66 -144l-38 -273h-63l82 584h-129l7 48h128l14 97h63l-14 -97h134l-6 -48h-134l-23 -162h6q31 49 82.5 77t108.5 28z" />
    <glyph glyph-name="Imacron" unicode="&#x12a;" horiz-adv-x="285" 
d="M368 824h-292l6 45h292zM241 729l-102 -729h-65l102 729h65z" />
    <glyph glyph-name="imacron" unicode="&#x12b;" horiz-adv-x="254" 
d="M324 622h-292l6 45h292zM122 0h-62l73 517h62z" />
    <glyph glyph-name="Iogonek" unicode="&#x12e;" horiz-adv-x="285" 
d="M51 -96q0 -41 49 -41q28 0 52 12l-5 -39q-29 -13 -65 -11t-56 20t-20 48q0 64 68 108l102 728h65l-102 -729h-1q-41 -14 -64 -39.5t-23 -56.5z" />
    <glyph glyph-name="iogonek" unicode="&#x12f;" horiz-adv-x="254" 
d="M148 627l14 102h62l-14 -102h-62zM122 0h-4q-41 -14 -64 -39.5t-23 -56.5q0 -41 49 -41q28 0 52 12l-5 -39q-29 -13 -65 -11t-56 20t-20 48q0 69 75 112l72 512h62z" />
    <glyph glyph-name="Idot" unicode="&#x130;" horiz-adv-x="285" 
d="M254 829h-62l14 102h62zM241 729l-102 -729h-65l102 729h65z" />
    <glyph glyph-name="dotlessi" unicode="&#x131;" horiz-adv-x="254" 
d="M122 0h-62l73 517h62z" />
    <glyph glyph-name="Jcircumflex" unicode="&#x134;" horiz-adv-x="384" 
d="M319 950h48l93 -118l-38 -31l-86 106l-117 -106l-28 30zM189 61l31 227l62 441h63l-62 -441l-32 -229q-8 -59 -68 -59h-203l9 61h200z" />
    <glyph glyph-name="jcircumflex" unicode="&#x135;" horiz-adv-x="266" 
d="M184 738h48l93 -118l-38 -31l-86 106l-117 -106l-28 30zM56 -114l17 116l72 515h62l-72 -515l-16 -110q-9 -59 -68 -59h-119l7 53h117z" />
    <glyph glyph-name="uni0136" unicode="&#x136;" horiz-adv-x="652" 
d="M629 729h75l-310 -318l218 -411h-76l-191 360l-182 -186l-24 -174h-65l102 729h65l-65 -468zM308 -133h-37v76h67v-71q0 -35 -18 -54.5t-49 -19.5v22q16 0 26.5 12t10.5 32v3z" />
    <glyph glyph-name="uni0137" unicode="&#x137;" horiz-adv-x="540" 
d="M457 517h83l-230 -201l167 -316h-69l-146 274l-115 -101l-24 -173h-63l102 729h63l-66 -472zM252 -133h-37v76h67v-71q0 -35 -18 -54.5t-49 -19.5v22q16 0 26.5 12t10.5 32v3z" />
    <glyph glyph-name="Lacute" unicode="&#x139;" horiz-adv-x="571" 
d="M402 919l-182 -105l-17 33l177 114zM500 0h-426l102 729h65l-93 -668h361z" />
    <glyph glyph-name="lacute" unicode="&#x13a;" horiz-adv-x="254" 
d="M387 919l-182 -105l-17 33l177 114zM122 0h-62l102 729h62z" />
    <glyph glyph-name="uni013B" unicode="&#x13b;" horiz-adv-x="571" 
d="M500 0h-426l102 729h65l-93 -668h361zM253 -202v22q16 0 26.5 12t10.5 32v3h-37v76h67v-71q0 -35 -18 -54.5t-49 -19.5z" />
    <glyph glyph-name="uni013C" unicode="&#x13c;" horiz-adv-x="254" 
d="M122 0h-62l102 729h62zM57 -202v22q16 0 26.5 12t10.5 32v3h-37v76h67v-71q0 -35 -18 -54.5t-49 -19.5z" />
    <glyph glyph-name="Lcaron" unicode="&#x13d;" horiz-adv-x="571" 
d="M500 0h-426l102 729h65l-93 -668h361zM327 484l5 38q65 0 74 68l4 29h-57l15 110h100l-20 -144q-7 -47 -40 -74t-81 -27z" />
    <glyph glyph-name="lcaron" unicode="&#x13e;" horiz-adv-x="254" 
d="M176 781l-93 120l38 30l85 -107l116 107l30 -30l-127 -120h-49zM122 0h-62l102 729h62z" />
    <glyph glyph-name="Ldot" unicode="&#x13f;" horiz-adv-x="571" 
d="M500 0h-426l102 729h65l-93 -668h361zM314 367q0 30 22 52.5t52 22.5q25 0 41 -15.5t16 -40.5q0 -30 -22 -52t-53 -22q-24 0 -40 16t-16 39z" />
    <glyph glyph-name="ldot" unicode="&#x140;" horiz-adv-x="395" 
d="M122 0h-62l102 729h62zM250 368q0 30 22 52.5t52 22.5q25 0 41 -15.5t16 -40.5q0 -30 -22 -52t-53 -22q-24 0 -40 15.5t-16 39.5z" />
    <glyph glyph-name="Lslash" unicode="&#x141;" horiz-adv-x="597" 
d="M220 395l-46 -334h361l-9 -61h-426l52 372l-106 -36l9 60l105 35l42 298h65l-38 -275l186 63l-9 -60z" />
    <glyph glyph-name="lslash" unicode="&#x142;" horiz-adv-x="254" 
d="M219 499l51 18l-9 -59l-50 -18l-62 -440h-62l58 417l-106 -38l9 60l106 37l35 253h62z" />
    <glyph glyph-name="Nacute" unicode="&#x143;" horiz-adv-x="790" 
d="M689 919l-182 -105l-17 33l177 114zM139 0h-65l102 729h86l329 -655h4l26 225l60 430h65l-102 -729h-87l-327 657h-4l-25 -217z" />
    <glyph glyph-name="nacute" unicode="&#x144;" horiz-adv-x="610" 
d="M572 707l-182 -105l-17 33l177 114zM123 0h-63l73 517h55l-5 -97h6q31 50 82 78.5t109 28.5q82 0 123 -55.5t28 -150.5l-45 -321h-63l44 315q21 152 -110 152q-75 0 -129 -55q-54 -54 -67 -142z" />
    <glyph glyph-name="uni0145" unicode="&#x145;" horiz-adv-x="790" 
d="M139 0h-65l102 729h86l329 -655h4l26 225l60 430h65l-102 -729h-87l-327 657h-4l-25 -217zM318 -174v22q16 0 26.5 12t10.5 32v3h-37v76h67v-71q0 -35 -18 -54.5t-49 -19.5z" />
    <glyph glyph-name="uni0146" unicode="&#x146;" horiz-adv-x="610" 
d="M123 0h-63l73 517h55l-5 -97h6q31 50 82 78.5t109 28.5q82 0 123 -55.5t28 -150.5l-45 -321h-63l44 315q21 152 -110 152q-75 0 -129 -55q-54 -54 -67 -142zM239 -202v22q16 0 26.5 12t10.5 32v3h-37v76h67v-71q0 -35 -18 -54.5t-49 -19.5z" />
    <glyph glyph-name="Ncaron" unicode="&#x147;" horiz-adv-x="790" 
d="M478 781l-93 120l38 30l85 -107l116 107l30 -30l-127 -120h-49zM139 0h-65l102 729h86l329 -655h4l26 225l60 430h65l-102 -729h-87l-327 657h-4l-25 -217z" />
    <glyph glyph-name="ncaron" unicode="&#x148;" horiz-adv-x="610" 
d="M361 569l-93 120l38 30l85 -107l116 107l30 -30l-127 -120h-49zM123 0h-63l73 517h55l-5 -97h6q31 50 82 78.5t109 28.5q82 0 123 -55.5t28 -150.5l-45 -321h-63l44 315q21 152 -110 152q-75 0 -129 -55q-54 -54 -67 -142z" />
    <glyph glyph-name="Eng" unicode="&#x14a;" horiz-adv-x="791" 
d="M681 729h65l-99 -705l-18 -132q-9 -59 -69 -59h-119l7 50h115l18 117h-24l-327 657h-4l-25 -217l-62 -440h-65l102 729h86l329 -655h4l26 225z" />
    <glyph glyph-name="eng" unicode="&#x14b;" horiz-adv-x="647" 
d="M531 321l-35 -253h36l-25 -176q-9 -59 -68 -59h-119l7 49h115l17 118h-36l44 315q21 152 -110 152q-75 0 -129 -55q-54 -54 -67 -142l-38 -270h-63l73 517h55l-5 -97h6q31 50 82 78.5t109 28.5q82 0 123 -55.5t28 -150.5z" />
    <glyph glyph-name="Omacron" unicode="&#x14c;" horiz-adv-x="770" 
d="M611 824h-292l6 45h292zM59 279q0 209 108 333q108 126 287 126q141 0 215.5 -75t74.5 -214q0 -208 -108 -334q-108 -125 -287 -125q-141 0 -215.5 74.5t-74.5 214.5zM142 416l-15 -102q-18 -124 45 -194q63 -69 185 -69q126 0 206 71q80 73 98 192l15 102
q18 120 -44.5 190.5t-186.5 70.5q-125 0 -205 -70t-98 -191z" />
    <glyph glyph-name="omacron" unicode="&#x14d;" horiz-adv-x="588" 
d="M489 612h-292l6 45h292zM46 203q0 141 80 233q81 91 206 91q97 0 153.5 -56.5t56.5 -157.5q0 -141 -80 -233q-80 -90 -206 -90q-100 0 -155 56.5t-55 156.5zM120 296l-11 -80q-11 -79 33 -125.5t122 -46.5q75 0 133 46q60 47 70 126l11 80q11 77 -32 126q-44 50 -122 50
t-136 -49q-57 -49 -68 -127z" />
    <glyph glyph-name="Ohungarumlaut" unicode="&#x150;" horiz-adv-x="770" 
d="M550 894l-173 -119l-21 31l168 128zM721 880l-181 -105l-18 33l177 114zM59 279q0 209 108 333q108 126 287 126q141 0 215.5 -75t74.5 -214q0 -208 -108 -334q-108 -125 -287 -125q-141 0 -215.5 74.5t-74.5 214.5zM142 416l-15 -102q-18 -124 45 -194q63 -69 185 -69
q126 0 206 71q80 73 98 192l15 102q18 120 -44.5 190.5t-186.5 70.5q-125 0 -205 -70t-98 -191z" />
    <glyph glyph-name="ohungarumlaut" unicode="&#x151;" horiz-adv-x="588" 
d="M428 682l-173 -119l-21 31l168 128zM599 668l-181 -105l-18 33l177 114zM46 203q0 141 80 233q81 91 206 91q97 0 153.5 -56.5t56.5 -157.5q0 -141 -80 -233q-80 -90 -206 -90q-100 0 -155 56.5t-55 156.5zM120 296l-11 -80q-11 -79 33 -125.5t122 -46.5q75 0 133 46
q60 47 70 126l11 80q11 77 -32 126q-44 50 -122 50t-136 -49q-57 -49 -68 -127z" />
    <glyph glyph-name="OE" unicode="&#x152;" horiz-adv-x="955" 
d="M59 280q0 212 105 330q107 119 296 119h500l-9 -63h-408l-37 -261h361l-8 -60h-361l-40 -282h408l-9 -63h-500q-147 0 -222.5 71.5t-75.5 208.5zM142 418l-15 -108q-16 -112 46 -180q63 -67 178 -67h42l85 603h-42q-118 0 -198 -63q-79 -63 -96 -185z" />
    <glyph glyph-name="oe" unicode="&#x153;" horiz-adv-x="992" 
d="M936 246h-395l-4 -30q-11 -78 30.5 -125t121.5 -47q59 0 107 30t69 79h63q-25 -72 -95 -118q-69 -45 -155 -45q-72 0 -121 32.5t-69 92.5q-83 -125 -232 -125q-100 0 -155 56.5t-55 156.5q0 141 80 233q81 91 206 91q71 0 122 -32t73 -91q37 59 95.5 91t131.5 32
q92 0 143.5 -49.5t51.5 -137.5q0 -46 -13 -94zM550 314l-2 -16h335l3 23q9 68 -29 110t-111 42q-76 0 -132 -44q-55 -43 -64 -115zM264 44q75 0 133 46q60 47 70 126l11 80q11 77 -32 126q-44 50 -122 50t-136 -49q-57 -49 -68 -127l-11 -80q-11 -79 33 -125.5t122 -46.5z
" />
    <glyph glyph-name="Racute" unicode="&#x154;" horiz-adv-x="722" 
d="M621 919l-182 -105l-17 33l177 114zM139 0h-65l102 729h326q182 0 182 -168q0 -81 -35.5 -142t-94.5 -81l-1 -6h44q62 0 52 -65l-38 -267h-65l41 290h-407zM233 669l-45 -319h254q68 0 112 33.5t52 90.5l10 72q9 60 -25.5 91.5t-103.5 31.5h-254z" />
    <glyph glyph-name="racute" unicode="&#x155;" horiz-adv-x="353" 
d="M426 759l22 -42l-182 -105l-17 33zM102 299l23 160q7 58 69 58h181l-8 -54h-179l-23 -164l-42 -299h-63z" />
    <glyph glyph-name="uni0156" unicode="&#x156;" horiz-adv-x="722" 
d="M139 0h-65l102 729h326q182 0 182 -168q0 -81 -35.5 -142t-94.5 -81l-1 -6h44q62 0 52 -65l-38 -267h-65l41 290h-407zM233 669l-45 -319h254q68 0 112 33.5t52 90.5l10 72q9 60 -25.5 91.5t-103.5 31.5h-254zM316 -202v22q16 0 26.5 12t10.5 32v3h-37v76h67v-71
q0 -35 -18 -54.5t-49 -19.5z" />
    <glyph glyph-name="uni0157" unicode="&#x157;" horiz-adv-x="353" 
d="M194 517h181l-8 -54h-179l-23 -164l-42 -299h-63l42 299l23 160q7 58 69 58zM95 -133h-37v76h67v-71q0 -35 -18 -54.5t-49 -19.5v22q16 0 26.5 12t10.5 32v3z" />
    <glyph glyph-name="Rcaron" unicode="&#x158;" horiz-adv-x="722" 
d="M410 781l-93 120l38 30l85 -107l116 107l30 -30l-127 -120h-49zM139 0h-65l102 729h326q182 0 182 -168q0 -81 -35.5 -142t-94.5 -81l-1 -6h44q62 0 52 -65l-38 -267h-65l41 290h-407zM233 669l-45 -319h254q68 0 112 33.5t52 90.5l10 72q9 60 -25.5 91.5t-103.5 31.5
h-254z" />
    <glyph glyph-name="rcaron" unicode="&#x159;" horiz-adv-x="353" 
d="M413 699l-127 -120h-49l-93 120l38 30l85 -107l116 107zM102 299l23 160q7 58 69 58h181l-8 -54h-179l-23 -164l-42 -299h-63z" />
    <glyph glyph-name="Sacute" unicode="&#x15a;" horiz-adv-x="669" 
d="M607 919l-182 -105l-17 33l177 114zM65 224h67q-10 -88 40 -133.5t148 -45.5t159 48t61 126q0 85 -107 109l-130 31q-46 10 -86 28q-81 35 -88 130q0 99 76 160q77 62 199 62q116 0 177.5 -55.5t49.5 -153.5h-66q6 74 -38 114t-129 40q-88 0 -144 -42q-55 -42 -55 -110
q0 -81 123 -108l139 -32q149 -35 149 -158q0 -110 -84 -177q-82 -67 -217 -67q-137 0 -198 67t-46 167z" />
    <glyph glyph-name="sacute" unicode="&#x15b;" horiz-adv-x="495" 
d="M485 707l-182 -105l-17 33l177 114zM42 155h63q-7 -51 26.5 -81.5t98.5 -30.5q66 0 106.5 31t40.5 82q0 53 -64 66l-114 23q-116 24 -116 112q0 76 58 122q59 48 152 48q89 0 133.5 -42t35.5 -114h-63q6 52 -23.5 78t-88.5 26q-64 0 -101.5 -28.5t-37.5 -75.5
q0 -38 31 -55q25 -11 48 -15l104 -20q114 -23 114 -115q0 -77 -62 -127q-61 -49 -159 -49q-95 0 -144 45t-38 120z" />
    <glyph glyph-name="Scedilla" unicode="&#x15e;" horiz-adv-x="669" 
d="M631 530h-66q6 74 -38 114t-129 40q-88 0 -144 -42q-55 -42 -55 -110q0 -81 123 -108l139 -32q149 -35 149 -158q0 -104 -76 -170q-74 -65 -199 -73l-27 -34q27 -1 44 -15t17 -37q0 -39 -31 -60q-52 -37 -125 -8l6 43q8 -16 34.5 -20.5t49 6.5t21.5 34q0 38 -69 22l3 20
l36 48q-129 4 -187 70q-57 67 -42 164h67q-10 -88 40 -133.5t148 -45.5t159 48t61 126q0 85 -107 109l-130 31q-46 10 -86 28q-81 35 -88 130q0 99 76 160q77 62 199 62q116 0 177.5 -55.5t49.5 -153.5z" />
    <glyph glyph-name="scedilla" unicode="&#x15f;" horiz-adv-x="495" 
d="M461 371h-63q6 52 -23.5 78t-88.5 26q-64 0 -101.5 -28.5t-37.5 -75.5q0 -38 31 -55q25 -11 48 -15l104 -20q114 -23 114 -115q0 -73 -54 -121t-143 -54v-1l-34 -43q27 -1 44 -15t17 -37q0 -39 -31 -60q-52 -37 -125 -8l6 43q8 -16 34.5 -20.5t49 6.5t21.5 34
q0 38 -69 22l3 20l43 58q-87 4 -131 48.5t-34 116.5h63q-7 -51 26.5 -81.5t98.5 -30.5q66 0 106.5 31t40.5 82q0 53 -64 66l-114 23q-116 24 -116 112q0 76 58 122q58 48 152 48q89 0 133.5 -42t35.5 -114z" />
    <glyph glyph-name="Scaron" unicode="&#x160;" horiz-adv-x="669" 
d="M396 781l-93 120l38 30l85 -107l116 107l30 -30l-127 -120h-49zM65 224h67q-10 -88 40 -133.5t148 -45.5t159 48t61 126q0 85 -107 109l-130 31q-46 10 -86 28q-81 35 -88 130q0 99 76 160q77 62 199 62q116 0 177.5 -55.5t49.5 -153.5h-66q6 74 -38 114t-129 40
q-88 0 -144 -42q-55 -42 -55 -110q0 -81 123 -108l139 -32q149 -35 149 -158q0 -110 -84 -177q-82 -67 -217 -67q-137 0 -198 67t-46 167z" />
    <glyph glyph-name="scaron" unicode="&#x161;" horiz-adv-x="495" 
d="M274 569l-93 120l38 30l85 -107l116 107l30 -30l-127 -120h-49zM42 155h63q-7 -51 26.5 -81.5t98.5 -30.5q66 0 106.5 31t40.5 82q0 53 -64 66l-114 23q-116 24 -116 112q0 76 58 122q59 48 152 48q89 0 133.5 -42t35.5 -114h-63q6 52 -23.5 78t-88.5 26
q-64 0 -101.5 -28.5t-37.5 -75.5q0 -38 31 -55q25 -11 48 -15l104 -20q114 -23 114 -115q0 -77 -62 -127q-61 -49 -159 -49q-95 0 -144 45t-38 120z" />
    <glyph glyph-name="uni0162" unicode="&#x162;" horiz-adv-x="548" 
d="M366 668l-94 -668h-9l-34 -43q27 -1 44 -15t17 -37q0 -39 -31 -60q-52 -37 -125 -8l6 43q8 -16 34.5 -20.5t49 6.5t21.5 34q0 38 -69 22l3 20l43 58h-15l94 668h-238l9 61h538l-9 -61h-235z" />
    <glyph glyph-name="uni0163" unicode="&#x163;" horiz-adv-x="329" 
d="M312 463h-111l-38 -271l-19 -137h112l-8 -55h-58l-34 -43q27 -1 44 -15t17 -37q0 -39 -31 -60q-52 -37 -125 -8l6 43q8 -16 34.5 -20.5t49 6.5t21.5 34q0 38 -69 22l3 20l43 58h-14q-61 0 -53 57l19 135l38 271h-95l8 54h95l24 175h62l-24 -175h111z" />
    <glyph glyph-name="Tcaron" unicode="&#x164;" horiz-adv-x="548" 
d="M500 901l-127 -120h-49l-93 120l38 30l85 -107l116 107zM72 729h538l-9 -61h-235l-94 -668h-65l94 668h-238z" />
    <glyph glyph-name="tcaron" unicode="&#x165;" horiz-adv-x="329" 
d="M360 865l-127 -120h-49l-93 120l38 30l85 -107l116 107zM171 692h62l-24 -175h111l-8 -54h-111l-38 -271l-19 -137h112l-8 -55h-113q-61 0 -53 57l19 135l38 271h-95l8 54h95z" />
    <glyph glyph-name="Tbar" unicode="&#x166;" horiz-adv-x="548" 
d="M610 729l-9 -61h-235l-35 -244h173l-8 -56h-172l-52 -368h-65l52 368h-179l9 56h177l35 244h-238l9 61h538z" />
    <glyph glyph-name="tbar" unicode="&#x167;" horiz-adv-x="329" 
d="M320 517l-8 -54h-111l-21 -149h114l-5 -49h-116l-10 -73l-19 -137h112l-8 -55h-113q-61 0 -53 57l19 135l10 73h-89l6 49h90l21 149h-95l8 54h95l24 175h62l-24 -175h111z" />
    <glyph glyph-name="Umacron" unicode="&#x16a;" horiz-adv-x="776" 
d="M630 824h-292l6 45h292zM122 267l65 462h64l-64 -455q-15 -103 36.5 -162t152.5 -59t168.5 59t82.5 162l64 455h64l-65 -462q-16 -125 -104 -202q-87 -75 -219 -75q-133 0 -198 75q-64 75 -47 202z" />
    <glyph glyph-name="umacron" unicode="&#x16b;" horiz-adv-x="603" 
d="M508 622h-292l6 45h292zM494 517h63l-73 -517h-52l3 96h-7q-28 -48 -80.5 -77t-112.5 -29q-79 0 -118 51t-26 144l47 332h63l-46 -325q-21 -147 103 -147q77 0 131 55q53 55 67 147z" />
    <glyph glyph-name="Uring" unicode="&#x16e;" horiz-adv-x="776" 
d="M589 833q0 -52 -34.5 -86.5t-85.5 -34.5q-42 0 -66.5 23.5t-24.5 61.5q0 52 34 86.5t86 34.5q41 0 66 -23t25 -62zM544 827q0 24 -13.5 38.5t-37.5 14.5q-29 0 -50 -22.5t-21 -53.5q0 -24 14.5 -39t38.5 -15q29 0 49 22.5t20 54.5zM122 267l65 462h64l-64 -455
q-15 -103 36.5 -162t152.5 -59t168.5 59t82.5 162l64 455h64l-65 -462q-16 -125 -104 -202q-87 -75 -219 -75q-133 0 -198 75q-64 75 -47 202z" />
    <glyph glyph-name="uring" unicode="&#x16f;" horiz-adv-x="603" 
d="M467 631q0 -52 -34.5 -86.5t-85.5 -34.5q-42 0 -66.5 23.5t-24.5 61.5q0 52 34 86.5t86 34.5q41 0 66 -23t25 -62zM422 625q0 24 -13.5 38.5t-37.5 14.5q-29 0 -50 -22.5t-21 -53.5q0 -24 14.5 -39t38.5 -15q29 0 49 22.5t20 54.5zM494 517h63l-73 -517h-52l3 96h-7
q-28 -48 -80.5 -77t-112.5 -29q-79 0 -118 51t-26 144l47 332h63l-46 -325q-21 -147 103 -147q77 0 131 55q53 55 67 147z" />
    <glyph glyph-name="Uhungarumlaut" unicode="&#x170;" horiz-adv-x="776" 
d="M569 894l-173 -119l-21 31l168 128zM740 880l-181 -105l-18 33l177 114zM122 267l65 462h64l-64 -455q-15 -103 36.5 -162t152.5 -59t168.5 59t82.5 162l64 455h64l-65 -462q-16 -125 -104 -202q-87 -75 -219 -75q-133 0 -198 75q-64 75 -47 202z" />
    <glyph glyph-name="uhungarumlaut" unicode="&#x171;" horiz-adv-x="603" 
d="M447 692l-173 -119l-21 31l168 128zM618 678l-181 -105l-18 33l177 114zM494 517h63l-73 -517h-52l3 96h-7q-28 -48 -80.5 -77t-112.5 -29q-79 0 -118 51t-26 144l47 332h63l-46 -325q-21 -147 103 -147q77 0 131 55q53 55 67 147z" />
    <glyph glyph-name="Uogonek" unicode="&#x172;" horiz-adv-x="776" 
d="M627 274l64 455h64l-65 -462q-15 -111 -85.5 -184t-179.5 -89q-72 -32 -72 -90q0 -41 49 -41q28 0 52 12l-5 -39q-29 -13 -65 -11t-56 20t-20 48q0 56 53 97q-130 1 -193 77q-62 76 -46 200l65 462h64l-64 -455q-15 -103 36.5 -162t152.5 -59t168.5 59t82.5 162z" />
    <glyph glyph-name="uogonek" unicode="&#x173;" horiz-adv-x="603" 
d="M396 -96q0 -41 49 -41q28 0 52 12l-5 -39q-29 -13 -65 -11t-56 20t-20 48q0 72 81 115l3 88h-7q-28 -48 -80.5 -77t-112.5 -29q-79 0 -118 51t-26 144l47 332h63l-46 -325q-21 -147 103 -147q77 0 131 55q53 55 67 147l38 270h63l-73 -517h-1q-41 -14 -64 -39.5
t-23 -56.5z" />
    <glyph glyph-name="Wcircumflex" unicode="&#x174;" horiz-adv-x="905" 
d="M423 801l-28 30l128 119h48l93 -118l-38 -31l-86 106zM126 0l-47 729h66l29 -458l7 -198h6l282 656h95l98 -656h6l63 198l157 458h70l-251 -729h-93l-101 671h-5l-289 -671h-93z" />
    <glyph glyph-name="wcircumflex" unicode="&#x175;" horiz-adv-x="726" 
d="M511 599l-86 106l-117 -106l-28 30l128 119h48l93 -118zM555 217l121 300h71l-218 -517h-87l-35 283l-16 159h-6l-58 -159l-111 -283h-90l-79 517h70l40 -297l14 -158h4l180 455h82l58 -452h3z" />
    <glyph glyph-name="Ycircumflex" unicode="&#x176;" horiz-adv-x="626" 
d="M288 801l-28 30l128 119h48l93 -118l-38 -31l-86 106zM287 301l-214 428h77l98 -202l74 -161h7l121 163l151 200h84l-333 -428l-42 -301h-65z" />
    <glyph glyph-name="ycircumflex" unicode="&#x177;" horiz-adv-x="500" 
d="M197 599l-28 30l128 119h48l93 -118l-38 -31l-86 106zM191 59l-153 458h69l55 -174l63 -211h6l126 211l103 174h74l-282 -460l-23 -165q-8 -59 -65 -59h-130l8 54h126z" />
    <glyph glyph-name="Ydieresis" unicode="&#x178;" horiz-adv-x="626" 
d="M333 829h-62l14 102h62zM517 829h-62l14 102h62zM287 301l-214 428h77l98 -202l74 -161h7l121 163l151 200h84l-333 -428l-42 -301h-65z" />
    <glyph glyph-name="Zacute" unicode="&#x179;" horiz-adv-x="571" 
d="M510 961l22 -42l-182 -105l-17 33zM84 729h535l-7 -52l-534 -614h444l-9 -63h-531l7 52l536 614h-449z" />
    <glyph glyph-name="zacute" unicode="&#x17a;" horiz-adv-x="424" 
d="M420 759l22 -42l-182 -105l-17 33zM355 463h-305l8 54h379l-8 -52l-362 -411h308l-8 -54h-382l7 49z" />
    <glyph glyph-name="Zdotaccent" unicode="&#x17b;" horiz-adv-x="571" 
d="M336 931h62l-14 -102h-62zM84 729h535l-7 -52l-534 -614h444l-9 -63h-531l7 52l536 614h-449z" />
    <glyph glyph-name="zdotaccent" unicode="&#x17c;" horiz-adv-x="424" 
d="M246 729h62l-14 -102h-62zM58 517h379l-8 -52l-362 -411h308l-8 -54h-382l7 49l363 414h-305z" />
    <glyph glyph-name="Zcaron" unicode="&#x17d;" horiz-adv-x="571" 
d="M497 901l-127 -120h-49l-93 120l38 30l85 -107l116 107zM84 729h535l-7 -52l-534 -614h444l-9 -63h-531l7 52l536 614h-449z" />
    <glyph glyph-name="zcaron" unicode="&#x17e;" horiz-adv-x="424" 
d="M407 699l-127 -120h-49l-93 120l38 30l85 -107l116 107zM58 517h379l-8 -52l-362 -411h308l-8 -54h-382l7 49l363 414h-305z" />
    <glyph glyph-name="uni018F" unicode="&#x18f;" horiz-adv-x="698" 
d="M415 739q123 0 190 -74.5t67 -210.5q0 -206 -101 -336q-101 -128 -264 -128q-121 0 -186 69.5t-65 191.5q0 60 16 123h529q21 150 -31 227.5t-168 77.5q-84 0 -155 -41q-69 -40 -95 -107h-65q31 92 124 150q91 58 204 58zM315 52q109 0 182.5 69.5t95.5 195.5h-464
q-18 -132 31.5 -198.5t154.5 -66.5z" />
    <glyph glyph-name="florin" unicode="&#x192;" horiz-adv-x="499" 
d="M102 -121h-138l8 56h143l123 439h-102l7 56h110l67 239q16 60 75 60h138l-8 -57h-142l-68 -242h116l-7 -56h-123l-123 -436q-18 -59 -76 -59z" />
    <glyph glyph-name="AEacute" unicode="&#x1fc;" horiz-adv-x="943" 
d="M808 961l22 -42l-182 -105l-17 33zM946 729l-8 -63h-421l-38 -271h362l-9 -59h-361l-38 -273h420l-9 -63h-485l30 215h-248l-102 -215h-69l357 729h619zM168 272h229l55 394h-96z" />
    <glyph glyph-name="Oslashacute" unicode="&#x1fe;" horiz-adv-x="770" 
d="M781 652l28 -47l-78 -52q13 -43 13 -104q0 -208 -108 -334q-108 -125 -287 -125q-192 0 -259 136l-73 -49l-26 46l80 54q-12 45 -12 102q0 209 108 333q108 126 287 126q190 0 257 -133zM142 416l-15 -102q-7 -55 0 -100l530 355q-55 108 -212 108q-125 0 -205 -70
t-98 -191zM410 449l-17 33l177 114l22 -42zM661 314l15 102q8 58 -1 100l-531 -354q54 -111 213 -111q126 0 206 71q80 73 98 192z" />
    <glyph glyph-name="oslashacute" unicode="&#x1ff;" horiz-adv-x="588" 
d="M464 749l22 -42l-182 -105l-17 33zM572 474l23 -43l-95 -63q5 -32 5 -55q0 -141 -80 -233q-79 -90 -206 -90q-116 0 -171 76l-34 -23l-22 42l33 22q-16 44 -16 96q0 141 80 233q81 91 206 91q142 0 190 -111zM83 296l-11 -80q-6 -41 4 -74l357 239q-16 42 -54.5 66.5
t-91.5 24.5q-78 0 -136 -49q-57 -49 -68 -127zM430 216l11 80q2 14 2 33l-345 -230q43 -55 129 -55q75 0 133 46q60 47 70 126z" />
    <glyph glyph-name="uni0218" unicode="&#x218;" horiz-adv-x="669" 
d="M65 224h67q-10 -88 40 -133.5t148 -45.5t159 48t61 126q0 85 -107 109l-130 31q-46 10 -86 28q-81 35 -88 130q0 99 76 160q77 62 199 62q116 0 177.5 -55.5t49.5 -153.5h-66q6 74 -38 114t-129 40q-88 0 -144 -42q-55 -42 -55 -110q0 -81 123 -108l139 -32
q149 -35 149 -158q0 -110 -84 -177q-82 -67 -217 -67q-137 0 -198 67t-46 167zM284 -202v22q16 0 26.5 12t10.5 32v3h-37v76h67v-71q0 -35 -18 -54.5t-49 -19.5z" />
    <glyph glyph-name="uni0219" unicode="&#x219;" horiz-adv-x="495" 
d="M42 155h63q-7 -51 26.5 -81.5t98.5 -30.5q66 0 106.5 31t40.5 82q0 53 -64 66l-114 23q-116 24 -116 112q0 76 58 122q59 48 152 48q89 0 133.5 -42t35.5 -114h-63q6 52 -23.5 78t-88.5 26q-64 0 -101.5 -28.5t-37.5 -75.5q0 -38 31 -55q25 -11 48 -15l104 -20
q114 -23 114 -115q0 -77 -62 -127q-61 -49 -159 -49q-95 0 -144 45t-38 120zM190 -212v22q16 0 26.5 12t10.5 32v3h-37v76h67v-71q0 -35 -18 -54.5t-49 -19.5z" />
    <glyph glyph-name="uni021A" unicode="&#x21a;" horiz-adv-x="548" 
d="M72 729h538l-9 -61h-235l-94 -668h-65l94 668h-238zM242 -133h-37v76h67v-71q0 -35 -18 -54.5t-49 -19.5v22q16 0 26.5 12t10.5 32v3z" />
    <glyph glyph-name="uni021B" unicode="&#x21b;" horiz-adv-x="329" 
d="M312 463h-111l-38 -271l-19 -137h112l-8 -55h-113q-61 0 -53 57l19 135l38 271h-95l8 54h95l24 175h62l-24 -175h111zM169 -133h-37v76h67v-71q0 -35 -18 -54.5t-49 -19.5v22q16 0 26.5 12t10.5 32v3z" />
    <glyph glyph-name="uni0237" unicode="&#x237;" horiz-adv-x="266" 
d="M73 2l72 515h62l-72 -515l-16 -110q-9 -59 -68 -59h-119l7 53h117z" />
    <glyph glyph-name="circumflex" unicode="&#x2c6;" horiz-adv-x="349" 
d="M139 726l-28 30l128 119h48l93 -118l-38 -31l-86 106z" />
    <glyph glyph-name="caron" unicode="&#x2c7;" horiz-adv-x="349" 
d="M218 735l-93 120l38 30l85 -107l116 107l30 -30l-127 -120h-49z" />
    <glyph glyph-name="breve" unicode="&#x2d8;" horiz-adv-x="364" 
d="M364 861h48q-8 -60 -51.5 -97.5t-104.5 -37.5t-93 37t-24 98h47q-6 -42 15.5 -67.5t60.5 -25.5q40 0 68 25.5t34 67.5z" />
    <glyph glyph-name="dotaccent" unicode="&#x2d9;" horiz-adv-x="173" 
d="M185 742h-62l14 102h62z" />
    <glyph glyph-name="ring" unicode="&#x2da;" horiz-adv-x="384" 
d="M374 789q0 -52 -34.5 -86.5t-85.5 -34.5q-42 0 -66.5 23.5t-24.5 61.5q0 52 34 86.5t86 34.5q41 0 66 -23t25 -62zM329 783q0 24 -13.5 38.5t-37.5 14.5q-29 0 -50 -22.5t-21 -53.5q0 -24 14.5 -39t38.5 -15q29 0 49 22.5t20 54.5z" />
    <glyph glyph-name="ogonek" unicode="&#x2db;" horiz-adv-x="417" 
d="M101 -107q0 43 33 79t88 52l11 -24q-41 -14 -64 -39.5t-23 -56.5q0 -41 49 -41q28 0 52 12l-5 -39q-29 -13 -65 -11t-56 20t-20 48z" />
    <glyph glyph-name="tilde" unicode="&#x2dc;" horiz-adv-x="326" 
d="M289 736q-30 0 -68 16q-39 17 -56 17q-31 0 -53 -33l-27 22q42 59 90 59q22 0 65 -17t60 -17q33 0 57 33l27 -24q-38 -56 -95 -56z" />
    <glyph glyph-name="hungarumlaut" unicode="&#x2dd;" horiz-adv-x="454" 
d="M389 849l-173 -119l-21 31l168 128zM560 835l-181 -105l-18 33l177 114z" />
    <glyph glyph-name="gravecomb" unicode="&#x300;" horiz-adv-x="0" 
d="M-52 759l-27 -33l-152 105l34 42z" />
    <glyph glyph-name="acutecomb" unicode="&#x301;" horiz-adv-x="0" 
d="M-44 831l-182 -105l-17 33l177 114z" />
    <glyph glyph-name="uni0302" unicode="&#x302;" horiz-adv-x="0" 
d="M-210 726l-28 30l128 119h48l93 -118l-38 -31l-86 106z" />
    <glyph glyph-name="tildecomb" unicode="&#x303;" horiz-adv-x="0" 
d="M-37 736q-31 0 -67 16q-40 17 -57 17q-30 0 -53 -33l-27 22q42 59 90 59q22 0 65 -17t60 -17q33 0 57 33l27 -24q-38 -56 -95 -56z" />
    <glyph glyph-name="uni0304" unicode="&#x304;" horiz-adv-x="0" 
d="M36 738h-292l6 45h292z" />
    <glyph glyph-name="uni0306" unicode="&#x306;" horiz-adv-x="0" 
d="M0 861h48q-8 -60 -51.5 -97.5t-104.5 -37.5t-93 37t-24 98h47q-6 -42 15.5 -67.5t60.5 -25.5q40 0 68 25.5t34 67.5z" />
    <glyph glyph-name="uni0307" unicode="&#x307;" horiz-adv-x="0" 
d="M12 742h-62l14 102h62z" />
    <glyph glyph-name="uni0308" unicode="&#x308;" horiz-adv-x="0" 
d="M-183 742h-62l14 102h62zM1 742h-62l14 102h62z" />
    <glyph glyph-name="uni030A" unicode="&#x30a;" horiz-adv-x="0" 
d="M-10 789q0 -52 -34.5 -86.5t-85.5 -34.5q-42 0 -66.5 23.5t-24.5 61.5q0 52 34 86.5t86 34.5q41 0 66 -23t25 -62zM-55 783q0 24 -13.5 38.5t-37.5 14.5q-29 0 -50 -22.5t-21 -53.5q0 -24 14.5 -39t38.5 -15q29 0 49 22.5t20 54.5z" />
    <glyph glyph-name="uni030B" unicode="&#x30b;" horiz-adv-x="0" 
d="M-65 849l-173 -119l-21 31l168 128zM106 835l-181 -105l-18 33l177 114z" />
    <glyph glyph-name="uni030C" unicode="&#x30c;" horiz-adv-x="0" 
d="M-131 735l-93 120l38 30l85 -107l116 107l30 -30l-127 -120h-49z" />
    <glyph glyph-name="uni0312" unicode="&#x312;" horiz-adv-x="0" 
d="M33 887v-22q-16 0 -26.5 -12t-10.5 -32v-3h37v-76h-67v64q0 37 18 59t49 22z" />
    <glyph glyph-name="uni0326" unicode="&#x326;" horiz-adv-x="0" 
d="M-152 -210v22q16 0 26.5 12t10.5 32v3h-37v76h67v-71q0 -35 -18 -54.5t-49 -19.5z" />
    <glyph glyph-name="uni0327" unicode="&#x327;" horiz-adv-x="0" 
d="M-270 0l-34 -43q27 -1 44 -15t17 -37q0 -39 -31 -60q-52 -37 -125 -8l6 43q8 -16 34.5 -20.5t49 6.5t21.5 34q0 38 -69 22l3 20l65 88h23z" />
    <glyph glyph-name="uni0328" unicode="&#x328;" horiz-adv-x="0" 
d="M-316 -107q0 43 33 79t88 52l11 -24q-41 -14 -64 -39.5t-23 -56.5q0 -41 49 -41q28 0 52 12l-5 -39q-29 -13 -65 -11t-56 20t-20 48z" />
    <glyph glyph-name="uni0335" unicode="&#x335;" horiz-adv-x="0" 
d="M-54 306h-290l6 43h290z" />
    <glyph glyph-name="uni0336" unicode="&#x336;" horiz-adv-x="0" 
 />
    <glyph glyph-name="uni0337" unicode="&#x337;" horiz-adv-x="0" 
d="M-369 0h-57l399 729h56z" />
    <glyph glyph-name="uni0338" unicode="&#x338;" horiz-adv-x="0" 
d="M-369 0h-57l399 729h56z" />
    <glyph glyph-name="uni03BC" unicode="&#x3bc;" horiz-adv-x="571" 
d="M84 -173h-56l97 690h63l-46 -330q-9 -68 19.5 -105t86.5 -37q66 0 110 47.5t55 129.5l41 295h63l-73 -517h-59l18 95h-5q-62 -105 -172 -105q-35 0 -64.5 15t-41.5 39h-6z" />
    <glyph glyph-name="pi" unicode="&#x3c0;" horiz-adv-x="568" 
d="M146 463h-92l8 54h513l-8 -54h-90l-57 -408h90l-8 -55h-91q-31 0 -44.5 13.5t-8.5 45.5l57 404h-205l-65 -463h-64z" />
    <glyph glyph-name="omega" unicode="&#x3c9;" horiz-adv-x="806" 
d="M109 431q0 139 88 223q88 85 234 85q145 0 233 -85q89 -84 89 -223q0 -112 -61 -194q-62 -83 -164 -111v-74h164v-52h-225v162q98 18 159 83q61 64 61 154v62q0 101 -75 160q-73 60 -181 60q-109 0 -182 -60q-74 -59 -74 -161v-62q0 -88 60 -153q60 -63 159 -83v-162
h-224v52h164v74q-102 28 -164 111q-61 82 -61 194z" />
    <glyph glyph-name="Wgrave" unicode="&#x1e80;" horiz-adv-x="905" 
d="M555 847l-27 -33l-152 105l34 42zM126 0l-47 729h66l29 -458l7 -198h6l282 656h95l98 -656h6l63 198l157 458h70l-251 -729h-93l-101 671h-5l-289 -671h-93z" />
    <glyph glyph-name="wgrave" unicode="&#x1e81;" horiz-adv-x="726" 
d="M295 759l145 -114l-27 -33l-152 105zM555 217l121 300h71l-218 -517h-87l-35 283l-16 159h-6l-58 -159l-111 -283h-90l-79 517h70l40 -297l14 -158h4l180 455h82l58 -452h3z" />
    <glyph glyph-name="Wacute" unicode="&#x1e82;" horiz-adv-x="905" 
d="M708 919l-182 -105l-17 33l177 114zM126 0l-47 729h66l29 -458l7 -198h6l282 656h95l98 -656h6l63 198l157 458h70l-251 -729h-93l-101 671h-5l-289 -671h-93z" />
    <glyph glyph-name="wacute" unicode="&#x1e83;" horiz-adv-x="726" 
d="M571 759l22 -42l-182 -105l-17 33zM555 217l121 300h71l-218 -517h-87l-35 283l-16 159h-6l-58 -159l-111 -283h-90l-79 517h70l40 -297l14 -158h4l180 455h82l58 -452h3z" />
    <glyph glyph-name="Wdieresis" unicode="&#x1e84;" horiz-adv-x="905" 
d="M468 829h-62l14 102h62zM652 829h-62l14 102h62zM126 0l-47 729h66l29 -458l7 -198h6l282 656h95l98 -656h6l63 198l157 458h70l-251 -729h-93l-101 671h-5l-289 -671h-93z" />
    <glyph glyph-name="wdieresis" unicode="&#x1e85;" horiz-adv-x="726" 
d="M305 729h62l-14 -102h-62zM489 729h62l-14 -102h-62zM555 217l121 300h71l-218 -517h-87l-35 283l-16 159h-6l-58 -159l-111 -283h-90l-79 517h70l40 -297l14 -158h4l180 455h82l58 -452h3z" />
    <glyph glyph-name="Ygrave" unicode="&#x1ef2;" horiz-adv-x="626" 
d="M420 847l-27 -33l-152 105l34 42zM287 301l-214 428h77l98 -202l74 -161h7l121 163l151 200h84l-333 -428l-42 -301h-65z" />
    <glyph glyph-name="ygrave" unicode="&#x1ef3;" horiz-adv-x="500" 
d="M329 645l-27 -33l-152 105l34 42zM191 59l-153 458h69l55 -174l63 -211h6l126 211l103 174h74l-282 -460l-23 -165q-8 -59 -65 -59h-130l8 54h126z" />
    <glyph glyph-name="endash" unicode="&#x2013;" horiz-adv-x="633" 
d="M572 276h-507l7 49h507z" />
    <glyph glyph-name="emdash" unicode="&#x2014;" horiz-adv-x="829" 
d="M768 276h-703l7 49h703z" />
    <glyph glyph-name="quoteleft" unicode="&#x2018;" horiz-adv-x="193" 
d="M217 739l-5 -38q-64 0 -73 -67l-4 -29h56l-15 -109h-99l20 143q7 46 39.5 73t80.5 27z" />
    <glyph glyph-name="quoteright" unicode="&#x2019;" horiz-adv-x="189" 
d="M79 486l5 38q64 0 73 67l4 29h-56l15 109h99l-20 -143q-7 -46 -39.5 -73t-80.5 -27z" />
    <glyph glyph-name="quotesinglbase" unicode="&#x201a;" horiz-adv-x="193" 
d="M-12 -134l5 38q64 0 73 67l4 29h-56l15 109h99l-20 -143q-7 -46 -39.5 -73t-80.5 -27z" />
    <glyph glyph-name="quotedblleft" unicode="&#x201c;" horiz-adv-x="386" 
d="M235 863l-5 -38q-64 0 -73 -67l-4 -29h56l-15 -109h-99l20 143q7 46 39.5 73t80.5 27zM428 863l-5 -38q-64 0 -73 -67l-4 -29h56l-15 -109h-99l20 143q7 46 39.5 73t80.5 27z" />
    <glyph glyph-name="quotedblright" unicode="&#x201d;" horiz-adv-x="386" 
d="M-12 -134l5 38q64 0 73 67l4 29h-56l15 109h99l-20 -143q-7 -46 -39.5 -73t-80.5 -27zM181 -134l5 38q64 0 73 67l4 29h-56l15 109h99l-20 -143q-7 -46 -39.5 -73t-80.5 -27z" />
    <glyph glyph-name="quotedblbase" unicode="&#x201e;" horiz-adv-x="386" 
d="M-12 -134l5 38q64 0 73 67l4 29h-56l15 109h99l-20 -143q-7 -46 -39.5 -73t-80.5 -27zM181 -134l5 38q64 0 73 67l4 29h-56l15 109h99l-20 -143q-7 -46 -39.5 -73t-80.5 -27z" />
    <glyph glyph-name="dagger" unicode="&#x2020;" horiz-adv-x="406" 
d="M299 733l-51 -363h134l-8 -56h-134l-22 -156h-59l22 156h-134l8 56h134l51 363h59z" />
    <glyph glyph-name="daggerdbl" unicode="&#x2021;" horiz-adv-x="407" 
d="M413 580l-7 -54h-136l-22 -156h134l-8 -56h-134l-22 -156h-59l22 156h-134l8 56h134l22 156h-133l7 54h134l21 153h59l-21 -153h135z" />
    <glyph glyph-name="bullet" unicode="&#x2022;" horiz-adv-x="392" 
d="M75 260q0 56 43 99q44 45 96 45q45 0 75.5 -31.5t30.5 -78.5q0 -55 -44 -99q-43 -43 -97 -43q-44 0 -74 31.5t-30 76.5z" />
    <glyph glyph-name="ellipsis" unicode="&#x2026;" horiz-adv-x="622" 
d="M132 0h-100l16 112h100zM325 0h-100l16 112h100zM518 0h-100l16 112h100z" />
    <glyph glyph-name="perthousand" unicode="&#x2030;" horiz-adv-x="1298" 
d="M106 557q0 81 48 130.5t126 49.5q79 0 127 -49.5t48 -130.5q0 -82 -48 -132t-127 -50q-78 0 -126 50t-48 132zM306 0h-71l461 729h71zM167 557q0 -58 31.5 -94t81.5 -36q51 0 82.5 36t31.5 94q0 57 -31.5 93t-82.5 36q-50 0 -81.5 -36t-31.5 -93zM530 172q0 81 48.5 131
t126.5 50t125.5 -50t47.5 -131q0 -82 -47.5 -132t-125.5 -50q-79 0 -127 50t-48 132zM928 172q0 81 48.5 131t126.5 50t126 -51q48 -49 48 -130q0 -82 -48 -132t-126 -50q-79 0 -127 50t-48 132zM591 172q0 -58 32 -94t82 -36t81.5 36t31.5 94q0 57 -31.5 93.5t-81.5 36.5
q-51 0 -82.5 -36.5t-31.5 -93.5zM1103 42q50 0 81.5 36t31.5 94q0 57 -31.5 93.5t-81.5 36.5q-51 0 -82.5 -36.5t-31.5 -93.5t31.5 -93.5t82.5 -36.5z" />
    <glyph glyph-name="guilsinglleft" unicode="&#x2039;" horiz-adv-x="332" 
d="M159 68l-92 206l150 204h63l-140 -204l82 -206h-63z" />
    <glyph glyph-name="guilsinglright" unicode="&#x203a;" horiz-adv-x="333" 
d="M179 478l91 -204l-149 -206h-65l140 206l-82 204h65z" />
    <glyph glyph-name="fraction" unicode="&#x2044;" horiz-adv-x="191" 
d="M-123 -46h-57l520 814h57z" />
    <glyph glyph-name="uni2070" unicode="&#x2070;" horiz-adv-x="489" 
d="M252 295q-74 0 -116.5 53t-42.5 153q0 161 67 264q68 104 171 104q74 0 115.5 -52.5t41.5 -152.5q0 -161 -67 -265q-68 -104 -169 -104zM258 352q71 0 117 88q47 89 47 224q0 149 -99 149q-72 0 -118 -88t-46 -224q0 -149 99 -149z" />
    <glyph glyph-name="uni2074" unicode="&#x2074;" horiz-adv-x="474" 
d="M453 862l-54 -385h71l-8 -54h-71l-17 -123h-62l17 123h-278l8 56l295 383h99zM125 477h212l48 340z" />
    <glyph glyph-name="uni2075" unicode="&#x2075;" horiz-adv-x="472" 
d="M490 862l-8 -56h-264l-33 -179l3 -1q46 45 123 45q69 0 112 -43.5t43 -112.5q0 -95 -64 -159q-63 -64 -155 -64q-80 0 -123 49q-44 51 -31 130h64q-9 -52 18.5 -87t80.5 -35q60 0 101 45q41 46 41 112q0 49 -29 79.5t-77 30.5q-36 0 -68.5 -16.5t-48.5 -42.5h-59l55 305
h319z" />
    <glyph glyph-name="uni2076" unicode="&#x2076;" horiz-adv-x="476" 
d="M253 292q-158 0 -158 199q0 171 66 275q67 103 178 103q72 0 113 -37.5t38 -103.5h-66q1 42 -25 64t-68 22q-140 0 -162 -232h4q49 82 147 82q65 0 105 -41t40 -109q0 -95 -61 -159q-60 -63 -151 -63zM264 349q58 0 95 45q39 46 39 113q0 48 -26 75t-71 27q-57 0 -97 -45
q-39 -45 -39 -110q0 -48 27 -76.5t72 -28.5z" />
    <glyph glyph-name="uni2077" unicode="&#x2077;" horiz-adv-x="425" 
d="M147 702h-54l22 160h366l-6 -44q-98 -116 -176 -254q-81 -141 -120 -264h-69q40 122 117 258q78 136 170 248h-235z" />
    <glyph glyph-name="uni2078" unicode="&#x2078;" horiz-adv-x="458" 
d="M71 423q0 49 28 90.5t75 64.5l1 6q-30 14 -48 44t-18 67q0 74 59 124t147 50q74 0 118.5 -36t44.5 -94q0 -49 -28 -92t-74 -63l-1 -6q65 -35 65 -111t-59 -126q-58 -49 -148 -49q-74 0 -118 36.5t-44 94.5zM175 693q0 -40 28 -63t75 -23q58 0 95.5 33.5t37.5 86.5
q0 40 -28 62.5t-76 22.5q-58 0 -95 -33.5t-37 -85.5zM138 435q0 -41 28 -63.5t76 -22.5q58 0 95.5 33.5t37.5 85.5q0 40 -28 63.5t-76 23.5q-58 0 -95.5 -34t-37.5 -86z" />
    <glyph glyph-name="uni2079" unicode="&#x2079;" horiz-adv-x="476" 
d="M234 292q-69 0 -110 39t-38 102h65q-1 -39 24.5 -62t68.5 -23q139 0 160 232h-4q-52 -81 -148 -81q-65 0 -104.5 40.5t-39.5 108.5q0 95 60 158t151 63q158 0 158 -200q0 -176 -65 -277q-64 -100 -178 -100zM271 553q57 0 97 45q40 46 40 110q0 48 -27 76.5t-74 28.5
q-57 0 -95 -45q-38 -46 -38 -113q0 -48 26 -75t71 -27z" />
    <glyph glyph-name="uni2080" unicode="&#x2080;" horiz-adv-x="489" 
d="M196 -105q-74 0 -116.5 53t-42.5 153q0 161 67 264q68 104 171 104q74 0 115.5 -52.5t41.5 -152.5q0 -161 -67 -264q-67 -105 -169 -105zM202 -48q71 0 117 88q47 89 47 224q0 149 -99 149q-72 0 -118 -88t-46 -224q0 -149 99 -149z" />
    <glyph glyph-name="uni2081" unicode="&#x2081;" horiz-adv-x="357" 
d="M194 317h-141l7 49h22q54 0 91.5 26.5t44.5 69.5h58l-79 -562h-62z" />
    <glyph glyph-name="uni2082" unicode="&#x2082;" horiz-adv-x="448" 
d="M82 -47l102 4h172l-8 -57h-342l3 19q18 112 129 188q9 6 38.5 25.5t40.5 28t34.5 26.5t33.5 31t23.5 31.5t18.5 38t5 41.5q0 39 -24.5 61t-66.5 22q-53 0 -87.5 -30.5t-40.5 -83.5h-63q9 76 65 123q57 48 136 48q68 0 108.5 -36t40.5 -96q0 -49 -21 -91
q-13 -26 -35.5 -50.5t-37 -36t-51.5 -39.5q-9 -6 -36.5 -25t-38.5 -26.5t-31.5 -24.5t-30.5 -28.5t-20.5 -28.5t-15.5 -34z" />
    <glyph glyph-name="uni2083" unicode="&#x2083;" horiz-adv-x="460" 
d="M190 -108q-83 0 -124 49t-27 129h67q-11 -59 14.5 -90t77.5 -31q57 0 94.5 35.5t37.5 89.5q0 41 -29 65t-80 24h-37l8 55h36q57 0 93.5 32.5t36.5 83.5q0 37 -25.5 57.5t-67.5 20.5q-52 0 -85.5 -31.5t-40.5 -87.5h-65q7 76 64 127q55 49 135 49q68 0 110.5 -33.5
t42.5 -91.5q0 -50 -28 -89t-77 -60l-1 -4q78 -30 78 -113q0 -80 -60 -132q-60 -54 -148 -54z" />
    <glyph glyph-name="uni2084" unicode="&#x2084;" horiz-adv-x="474" 
d="M397 462l-54 -385h71l-8 -54h-71l-17 -123h-62l17 123h-278l8 56l295 383h99zM69 77h212l48 340z" />
    <glyph glyph-name="uni2085" unicode="&#x2085;" horiz-adv-x="472" 
d="M434 462l-8 -56h-264l-33 -179l3 -1q46 45 123 45q69 0 112 -43.5t43 -112.5q0 -94 -64 -158q-63 -65 -155 -65q-79 0 -123 50t-31 129h64q-9 -52 18.5 -87t80.5 -35q60 0 101 45q41 46 41 112q0 49 -29 79.5t-77 30.5q-36 0 -68.5 -16.5t-48.5 -42.5h-59l55 305h319z
" />
    <glyph glyph-name="uni2086" unicode="&#x2086;" horiz-adv-x="476" 
d="M197 -108q-158 0 -158 199q0 171 66 275q67 103 178 103q72 0 113 -37.5t38 -103.5h-66q1 42 -25 64t-68 22q-140 0 -162 -232h4q49 82 147 82q65 0 105 -41t40 -109q0 -96 -61 -158q-60 -64 -151 -64zM208 -51q58 0 95 46q39 45 39 112q0 48 -26 75t-71 27
q-57 0 -97 -45q-39 -45 -39 -110q0 -48 27 -76.5t72 -28.5z" />
    <glyph glyph-name="uni2087" unicode="&#x2087;" horiz-adv-x="425" 
d="M91 302h-54l22 160h366l-6 -44q-94 -112 -175 -253q-79 -136 -121 -265h-69q40 122 117 258q78 136 170 248h-235z" />
    <glyph glyph-name="uni2088" unicode="&#x2088;" horiz-adv-x="458" 
d="M15 23q0 49 28 90.5t75 64.5l1 6q-30 14 -48 44t-18 67q0 74 59 124t147 50q74 0 118.5 -36t44.5 -94q0 -49 -28 -92t-74 -63l-1 -6q65 -35 65 -111q0 -75 -59 -125t-148 -50q-74 0 -118 36.5t-44 94.5zM119 293q0 -40 28 -63t75 -23q58 0 95.5 33.5t37.5 86.5
q0 40 -28 62.5t-76 22.5q-58 0 -95 -33.5t-37 -85.5zM82 35q0 -41 28 -63.5t76 -22.5q58 0 95.5 33.5t37.5 85.5q0 40 -28 63.5t-76 23.5q-58 0 -95.5 -34t-37.5 -86z" />
    <glyph glyph-name="uni2089" unicode="&#x2089;" horiz-adv-x="476" 
d="M178 -108q-69 0 -110 39t-38 102h65q-1 -39 24.5 -62t68.5 -23q139 0 160 232h-4q-52 -81 -148 -81q-65 0 -104.5 40.5t-39.5 108.5q0 95 60 158t151 63q158 0 158 -200q0 -175 -65 -276t-178 -101zM215 153q57 0 97 45q40 46 40 110q0 48 -27 76.5t-74 28.5
q-57 0 -95 -45q-38 -46 -38 -113q0 -48 26 -75t71 -27z" />
    <glyph glyph-name="uni20A6" unicode="&#x20a6;" horiz-adv-x="691" 
d="M619 393h84l-8 -58h-84l-47 -335h-73l-150 335h-174l-47 -335h-65l47 335h-84l8 58h84l47 336h74l151 -336h173l47 336h64zM182 439l-6 -46h139l-106 238h-4zM518 100l24 200l5 35h-139l106 -235h4z" />
    <glyph glyph-name="uni20A9" unicode="&#x20a9;" horiz-adv-x="758" 
d="M730 729h58l-107 -336h83l-8 -58h-93l-107 -335h-56l-31 335h-149l-125 -335h-56l-17 335h-98l8 58h87l-17 336h60l12 -336h119l125 336h64l31 -336h115zM365 455l-23 -62h122l-6 61l-15 206h-4zM186 96l62 177l23 62h-95l2 -61l4 -178h4zM540 96l51 177l19 62h-92l6 -62
l11 -177h5z" />
    <glyph glyph-name="uni20AA" unicode="&#x20aa;" horiz-adv-x="663" 
d="M416 520l21 150h-252l-94 -670h-63l102 729h299q40 0 56.5 -17t10.5 -60l-19 -132l-51 -362h-61zM507 60l94 669h63l-102 -729h-299q-40 0 -56.5 17.5t-10.5 59.5l19 133l50 362h62l-50 -362l-22 -150h252z" />
    <glyph glyph-name="Euro" unicode="&#x20ac;" horiz-adv-x="747" 
d="M372 50q85 0 147.5 45t92.5 124h69q-35 -104 -122 -166q-86 -62 -199 -62q-117 0 -183 71t-71 199h-77l8 58h70q3 55 17 113h-71l8 58h81q42 114 128 181t200 67q112 0 179 -63q69 -62 73 -164h-69q-7 80 -58 124t-135 44t-148.5 -49.5t-100.5 -139.5h298l-15 -58h-302
q-14 -58 -17 -113h297l-15 -58h-283q4 -104 55.5 -157.5t142.5 -53.5z" />
    <glyph glyph-name="uni20B2" unicode="&#x20b2;" horiz-adv-x="687" 
d="M362 316l9 62h244l-5 -38q-18 -130 -93.5 -204.5t-193.5 -82.5l-13 -95h-56l13 95q-99 8 -153 71t-54 171q0 162 82 266q83 107 214 117l13 95h56l-13 -95q93 -8 147 -63.5t54 -141.5h-68q-4 70 -49.5 108.5t-120.5 38.5q-94 0 -159 -59t-78 -152l-12 -85
q-14 -99 35.5 -157.5t145.5 -58.5q95 0 157 56t75 152h-177z" />
    <glyph glyph-name="uni20B8" unicode="&#x20b8;" horiz-adv-x="547" 
d="M63 670l8 59h538l-8 -59h-538zM277 499h-238l8 59h538l-8 -59h-235l-70 -499h-65z" />
    <glyph glyph-name="uni20B9" unicode="&#x20b9;" horiz-adv-x="785" 
d="M213 729h516l-8 -59h-138q43 -47 43 -124v-15h75l-8 -58h-75q-17 -66 -62.5 -112.5t-114.5 -67.5l-1 -6q17 -5 28 -20q12 -15 17 -26q7 -16 18 -47l74 -194h-74l-69 195q-18 51 -40.5 68t-68.5 17h-175l8 57h206q72 0 120.5 36t64.5 100h-372l8 58h372v7q0 64 -38 97
t-108 33h-206v2z" />
    <glyph glyph-name="uni20BA" unicode="&#x20ba;" horiz-adv-x="572" 
d="M475 319h62q-40 -148 -151 -235q-110 -84 -247 -84h-55l43 301l-111 -41l8 60l111 42l14 98l-111 -42l8 59l112 44l29 208h64l-26 -184l216 83l-9 -60l-216 -84l-13 -98l216 84l-9 -60l-216 -83l-37 -267q111 0 196 70q88 71 122 189z" />
    <glyph glyph-name="uni20BC" unicode="&#x20bc;" 
d="M76 0h-61l51 366q15 112 85.5 174.5t179.5 67.5l17 121h59l-17 -121q110 -4 160 -67.5t35 -174.5l-51 -366h-59l51 366q12 86 -26.5 133.5t-117.5 50.5l-77 -550h-59l77 550q-83 -4 -133.5 -52.5t-62.5 -131.5z" />
    <glyph glyph-name="uni20BD" unicode="&#x20bd;" horiz-adv-x="651" 
d="M400 277h-222l-12 -86h286l-8 -59h-286l-19 -132h-65l19 132h-75l8 59h75l12 88h-74l8 58h75l55 392h287q97 0 145.5 -45.5t48.5 -130.5q0 -128 -70 -202q-69 -74 -188 -74zM472 666h-239l-46 -329h225q71 0 115.5 35t52.5 95l11 80q8 56 -24.5 87.5t-94.5 31.5z" />
    <glyph glyph-name="uni20BF" unicode="&#x20bf;" horiz-adv-x="718" 
d="M508 380l-1 -7q88 -22 88 -121q0 -90 -58.5 -144.5t-156.5 -55.5l-13 -94h-56l13 94h-90l-13 -94h-55l13 94h-82l89 630h81l13 91h55l-13 -91h90l13 91h56l-13 -91h6q72 0 110 -33.5t38 -94.5q0 -62 -30.5 -108.5t-83.5 -65.5zM464 624h-221l-31 -222h223q47 0 77.5 24
t35.5 65l6 45q5 40 -18.5 64t-71.5 24zM521 201l7 49q7 44 -19 68.5t-76 24.5h-229l-33 -232h214q55 0 92.5 24.5t43.5 65.5z" />
    <glyph glyph-name="uni2105" unicode="&#x2105;" horiz-adv-x="1006" 
d="M368 502h62q-8 -63 -53.5 -100.5t-111.5 -37.5q-76 0 -123.5 50.5t-47.5 135.5q0 86 48 137.5t125 51.5q63 0 107.5 -35.5t52.5 -90.5h-61q-7 33 -35 53t-65 20q-51 0 -81 -36.5t-30 -99.5q0 -62 29 -97.5t80 -35.5q42 0 70.5 23t33.5 62zM321 0h-70l461 729h69zM770 368
q78 0 126 -53t48 -135t-48 -135q-48 -52 -126 -52q-79 0 -127 52q-48 53 -48 135t48 135t127 53zM656 181q0 -61 30.5 -97.5t83.5 -36.5q51 0 82 36.5t31 98.5q0 61 -30 97t-83 36q-52 0 -83 -36t-31 -98z" />
    <glyph glyph-name="uni2116" unicode="&#x2116;" horiz-adv-x="1371" 
d="M816 469q0 109 78 189q80 80 186 80q94 0 146 -58q53 -58 53 -141q0 -108 -78 -186t-186 -78q-89 0 -144 55t-55 139zM139 0h-65l102 729h86l329 -655h4l26 225l60 430h65l-102 -729h-87l-327 657h-4l-25 -217zM901 547l-11 -80q-8 -59 31 -96q40 -37 102 -37
q64 0 114 37q53 37 60 96l11 79q7 58 -31 95q-40 38 -104 38q-65 0 -114 -36t-58 -96zM811 0l8 60h332l-8 -60h-332z" />
    <glyph glyph-name="uni2117" unicode="&#x2117;" horiz-adv-x="949" 
d="M488 -76q-178 0 -299 117q-122 117 -122 301t122 303q122 118 300 118q177 0 299 -117t122 -301q0 -185 -122 -304q-122 -117 -300 -117zM488 -50q164 0 277 111q114 111 114 283t-114 282q-112 111 -277 111q-163 0 -276 -112q-114 -111 -114 -283q0 -171 114 -282
q115 -110 276 -110zM408 138h-64v411h201q68 0 108.5 -39t40.5 -102t-40.5 -102.5t-108.5 -39.5h-137v-128zM406 486v-160h142q38 0 60.5 22.5t22.5 59.5q0 34 -22.5 56t-60.5 22h-142z" />
    <glyph glyph-name="trademark" unicode="&#x2122;" horiz-adv-x="701" 
d="M182 689h-93l6 40h233l-6 -40h-97l-38 -270h-43zM496 512l126 217h57l-44 -310h-43l23 160l16 89h-3l-145 -243l-76 243h-3l-9 -89l-23 -160h-41l44 310h55l64 -217h2z" />
    <glyph glyph-name="estimated" unicode="&#x212e;" horiz-adv-x="830" 
d="M733 230h46q-27 -108 -120 -174q-94 -65 -222 -65q-163 0 -260 102q-97 101 -97 266q0 166 100 267q100 103 266 103q151 0 242 -88q92 -87 99 -246q1 -14 1 -57h-600v-185q35 -59 102 -91.5t149 -32.5q108 0 187 55q81 56 107 146zM188 561v-187h493v205
q-89 111 -249 108q-159 -3 -244 -126z" />
    <glyph glyph-name="oneeighth" unicode="&#x215b;" horiz-adv-x="897" 
d="M187 -46h-57l520 814h57zM203 596h-123l7 52h45q43 0 66.5 21.5t23.5 55.5v4h64l-67 -473h-64zM520 106q0 41 24 77.5t63 53.5l1 5q-56 29 -56 94q0 64 51 107q50 43 128 43q65 0 103 -30.5t38 -81.5q0 -41 -24 -78t-62 -54l-1 -5q55 -30 55 -93q0 -64 -51 -108
q-49 -43 -127 -43q-64 0 -103 31t-39 82zM619 335q0 -32 22 -50t59 -18q45 0 74 27t29 68q0 31 -22 49t-58 18q-46 0 -75 -26.5t-29 -67.5zM588 118q0 -32 22.5 -49.5t59.5 -17.5q44 0 73 26.5t29 67.5q0 31 -21.5 49t-57.5 18q-46 0 -75.5 -26.5t-29.5 -67.5z" />
    <glyph glyph-name="threeeighths" unicode="&#x215c;" horiz-adv-x="973" 
d="M274 -46h-57l520 814h57zM200 248q-69 0 -105 41.5t-25 107.5h66q-8 -43 13 -67.5t59 -24.5q42 0 71 27.5t29 67.5q0 32 -23 50.5t-61 18.5h-33l9 60h30q44 0 71.5 25t27.5 65q0 28 -19 43.5t-49 15.5q-39 0 -65.5 -25t-30.5 -67h-66q6 64 52 106q46 43 117 43
q59 0 95 -29t36 -79q0 -86 -85 -123l-1 -5q63 -25 63 -92t-51 -113q-50 -46 -125 -46zM607 106q0 41 24 77.5t63 53.5l1 5q-56 29 -56 94q0 64 51 107q50 43 128 43q65 0 103 -30.5t38 -81.5q0 -41 -24 -78t-62 -54l-1 -5q55 -30 55 -93q0 -64 -51 -108q-49 -43 -127 -43
q-64 0 -103 31t-39 82zM706 335q0 -32 22 -50t59 -18q45 0 74 27t29 68q0 31 -22 49t-58 18q-46 0 -75 -26.5t-29 -67.5zM675 118q0 -32 22.5 -49.5t59.5 -17.5q44 0 73 26.5t29 67.5q0 31 -21.5 49t-57.5 18q-46 0 -75.5 -26.5t-29.5 -67.5z" />
    <glyph glyph-name="fiveeighths" unicode="&#x215d;" horiz-adv-x="982" 
d="M282 -46h-57l520 814h57zM72 399h66q-6 -40 14.5 -66t59.5 -26q46 0 77 34.5t31 86.5q0 39 -21.5 62t-57.5 23q-27 0 -52 -13.5t-36 -34.5h-62l37 264h280l-8 -60h-216l-11 -81l-10 -51l1 -1q34 33 96 33q58 0 93.5 -36.5t35.5 -94.5q0 -80 -54 -135t-131 -55
q-67 0 -104.5 42.5t-27.5 108.5zM615 106q0 41 24 77.5t63 53.5l1 5q-56 29 -56 94q0 64 51 107q50 43 128 43q65 0 103 -30.5t38 -81.5q0 -41 -24 -78t-62 -54l-1 -5q55 -30 55 -93q0 -64 -51 -108q-49 -43 -127 -43q-64 0 -103 31t-39 82zM714 335q0 -32 22 -50t59 -18
q45 0 74 27t29 68q0 31 -22 49t-58 18q-46 0 -75 -26.5t-29 -67.5zM683 118q0 -32 22.5 -49.5t59.5 -17.5q44 0 73 26.5t29 67.5q0 31 -21.5 49t-57.5 18q-46 0 -75.5 -26.5t-29.5 -67.5z" />
    <glyph glyph-name="seveneighths" unicode="&#x215e;" horiz-adv-x="885" 
d="M118 -46l520 814h57l-520 -814h-57zM148 256h-64q75 237 236 413h-176l-8 -60h-49l16 120h303l-6 -47q-98 -105 -157 -207q-56 -95 -95 -219zM774 242l-1 -5q55 -30 55 -93q0 -64 -51 -108q-49 -43 -127 -43q-64 0 -103 31t-39 82q0 41 24 77.5t63 53.5l1 5
q-56 29 -56 94q0 64 51 107q50 43 128 43q65 0 103 -30.5t38 -81.5q0 -41 -24 -78t-62 -54zM688 267q45 0 74 27t29 68q0 31 -22 49t-58 18q-46 0 -75 -26.5t-29 -67.5q0 -32 22 -50t59 -18zM658 51q44 0 73 26.5t29 67.5q0 31 -21.5 49t-57.5 18q-46 0 -75.5 -26.5
t-29.5 -67.5q0 -32 22.5 -49.5t59.5 -17.5z" />
    <glyph glyph-name="arrowleft" unicode="&#x2190;" horiz-adv-x="847" 
d="M750 283v-50h-624l169 -233h-59l-193 258l193 259h59l-169 -234h624z" />
    <glyph glyph-name="arrowup" unicode="&#x2191;" horiz-adv-x="691" 
d="M587 371v-64l-202 177v-431h202v-50h-451v50h201v431l-201 -177v64l224 197z" />
    <glyph glyph-name="arrowright" unicode="&#x2192;" horiz-adv-x="877" 
d="M724 233h-624v50h624l-169 234h59l193 -259l-193 -258h-59z" />
    <glyph glyph-name="arrowdown" unicode="&#x2193;" horiz-adv-x="691" 
d="M607 517v-50h-202v-431l202 177v-64l-227 -197l-224 197v64l201 -177v431h-201v50h451z" />
    <glyph glyph-name="arrowboth" unicode="&#x2194;" horiz-adv-x="1083" 
d="M308 118l-194 231l194 233h58l-168 -208h712l-167 208h57l195 -233l-195 -231h-57l167 207h-712l168 -207h-58z" />
    <glyph glyph-name="arrowupdn" unicode="&#x2195;" horiz-adv-x="790" 
d="M430 -141l-283 252v68l259 -231v723l-259 -230v67l283 252l281 -252v-67l-258 230v-723l258 231v-68z" />
    <glyph glyph-name="uni2196" unicode="&#x2196;" horiz-adv-x="678" 
d="M651 34l-33 -34l-417 434v-360h-48v442h426v-52h-346z" />
    <glyph glyph-name="uni2197" unicode="&#x2197;" horiz-adv-x="712" 
d="M515 435l-421 -435l-33 34l422 433h-348v50h426v-441h-46v359z" />
    <glyph glyph-name="uni2198" unicode="&#x2198;" horiz-adv-x="682" 
d="M596 0l-428 -2v53h345l-418 434l33 32l420 -433l1 359h48z" />
    <glyph glyph-name="uni2199" unicode="&#x2199;" horiz-adv-x="680" 
d="M572 0h-429v443h48v-359l417 433l35 -34l-417 -432h346v-51z" />
    <glyph glyph-name="uni21A9" unicode="&#x21a9;" horiz-adv-x="985" 
d="M868 498q0 -100 -62 -156.5t-177 -56.5h-359v-124l-163 148l163 149v-124h359q88 0 138.5 42.5t50.5 121.5q0 74 -48.5 118.5t-130.5 44.5h-13v47h13q100 0 165 -59q64 -58 64 -151z" />
    <glyph glyph-name="uni21AA" unicode="&#x21aa;" horiz-adv-x="985" 
d="M161 498q0 92 63 151q65 59 166 59h13v-47h-13q-83 0 -130 -44t-47 -119q0 -80 49.5 -122t137.5 -42h359v124l163 -149l-163 -148v124h-359q-115 0 -177 56.5t-62 156.5z" />
    <glyph glyph-name="uni21B2" unicode="&#x21b2;" horiz-adv-x="832" 
d="M666 334v395h49v-444h-418v-124l-164 148l164 149v-124h369z" />
    <glyph glyph-name="uni21B3" unicode="&#x21b3;" horiz-adv-x="832" 
d="M609 458l165 -149l-165 -148v124h-417v444h48v-395h369v124z" />
    <glyph glyph-name="uni21BA" unicode="&#x21ba;" horiz-adv-x="823" 
d="M425 -12q-143 0 -237 94q-95 95 -95 232q0 93 46.5 174t127.5 129l27 -43q-149 -90 -149 -260q0 -117 80 -197q80 -78 199 -78q118 0 196 78t78 191q0 90 -40 145q-38 56 -191 192l-3 -2l5 -71v-154h-50v311h302v-53h-151l-67 5l-1 -3q158 -134 204 -201q47 -68 47 -169
q0 -132 -94 -226t-234 -94z" />
    <glyph glyph-name="uni21BB" unicode="&#x21bb;" horiz-adv-x="823" 
d="M447 -12q-139 0 -233 94t-94 226q0 103 47 171t202 199v3l-69 -5h-152v53h305v-311h-53v154l5 71l-3 2q-154 -138 -191 -193q-39 -56 -39 -144q0 -112 79 -191q79 -78 196 -78q119 0 198 78q80 80 80 197q0 172 -148 260l28 43q78 -45 126 -128q49 -82 49 -175
q0 -138 -96 -232q-94 -94 -237 -94z" />
    <glyph glyph-name="emptyset" unicode="&#x2205;" horiz-adv-x="784" 
d="M453 738q141 0 215.5 -75t74.5 -214q0 -208 -108 -334q-108 -125 -287 -125q-141 0 -215.5 74.5t-74.5 214.5q0 209 108 333q108 126 287 126zM141 416l-15 -102q-12 -85 14 -144l485 443q-61 64 -181 64q-125 0 -205 -70t-98 -191zM660 314l15 102q13 85 -17 150
l-488 -444q62 -71 186 -71q126 0 206 71q80 73 98 192z" />
    <glyph glyph-name="product" unicode="&#x220f;" horiz-adv-x="713" 
d="M179 729h488l-7 -53h-104l-95 -676h-60l95 676h-156l-95 -676h-61l95 676h-107z" />
    <glyph glyph-name="summation" unicode="&#x2211;" horiz-adv-x="576" 
d="M470 -161h-476l5 37l311 407l1 6l-197 403l5 37h476l-7 -52l-256 -1l-150 5v-5l196 -389l-307 -395v-6l150 6h256z" />
    <glyph glyph-name="minus" unicode="&#x2212;" horiz-adv-x="652" 
d="M93 261l10 70h470l-10 -70h-470z" />
    <glyph glyph-name="radical" unicode="&#x221a;" horiz-adv-x="686" 
d="M377 241l248 488h67l-401 -789h-92l-88 379h-58l7 47h103l30 -120l55 -258h6z" />
    <glyph glyph-name="infinity" unicode="&#x221e;" horiz-adv-x="906" 
d="M242 78q-81 0 -129 56t-48 139q0 82 48 139q48 58 128 58q74 0 130 -53q34 -34 43 -46q11 -13 43 -57q58 79 91 107q58 49 126 49q81 0 127 -58q47 -59 47 -139q0 -78 -47 -137q-46 -58 -127 -58q-57 0 -107 32q-21 14 -43 38l-34 40l-33 46q-25 -36 -42 -57t-45 -48
q-54 -51 -128 -51zM240 125q44 0 84 31q40 32 102 117q-61 85 -101 116q-40 32 -85 32q-55 0 -91 -41.5t-36 -106.5t36 -106.5t91 -41.5zM674 125q55 0 91.5 41t36.5 107q0 65 -36.5 106.5t-91.5 41.5q-46 0 -86 -32q-38 -31 -99 -116q60 -83 100 -117q37 -31 85 -31z" />
    <glyph glyph-name="integral" unicode="&#x222b;" horiz-adv-x="547" 
d="M368 753h138l-8 -57h-134l-21 -148l-67 -477l-21 -147q-7 -58 -68 -58h-138l8 56h134l21 149l67 477l20 145q7 60 69 60z" />
    <glyph glyph-name="approxequal" unicode="&#x2248;" horiz-adv-x="527" 
d="M160 349h-42q5 61 30 88.5t62 27.5q27 0 74 -24q48 -23 69 -23q46 0 51 62h42q-3 -61 -31.5 -89t-69.5 -28q-34 0 -79 22q-48 23 -63 23q-41 0 -43 -59zM133 154h-42q5 61 30.5 89t61.5 28q28 0 74 -24q48 -23 69 -23q45 0 51 62h42q-4 -62 -32 -91t-69 -29q-32 0 -80 24
q-46 24 -63 24q-19 0 -30.5 -16.5t-11.5 -43.5z" />
    <glyph glyph-name="notequal" unicode="&#x2260;" horiz-adv-x="600" 
d="M533 434l-9 -67h-136l-93 -141h209l-9 -65h-243l-80 -122h-74l81 122h-99l9 65h133l93 141h-206l9 67h241l86 130h73l-86 -130h101z" />
    <glyph glyph-name="lessequal" unicode="&#x2264;" horiz-adv-x="563" 
d="M461 209l-11 -84l-349 201l7 53l406 202l-12 -83l-197 -88l-139 -56l-1 -6l120 -53zM439 53l-7 -53h-377l7 53h377z" />
    <glyph glyph-name="greaterequal" unicode="&#x2265;" horiz-adv-x="563" 
d="M482 326l-405 -201l11 84l199 86l137 53l1 6l-124 56l-172 88l12 83l348 -202zM436 0h-377l7 53h377z" />
    <glyph glyph-name="filledbox" unicode="&#x25a0;" horiz-adv-x="908" 
d="M180 1v728h680v-728h-680z" />
    <glyph glyph-name="uni25A1" unicode="&#x25a1;" horiz-adv-x="928" 
d="M191 0v729h680v-729h-680zM818 677h-576v-625h576v625z" />
    <glyph glyph-name="triagup" unicode="&#x25b2;" horiz-adv-x="1044" 
d="M50 0l435 737l437 -737h-872z" />
    <glyph glyph-name="uni25B3" unicode="&#x25b3;" horiz-adv-x="1046" 
d="M925 0h-875l436 738zM486 639l-347 -586h695z" />
    <glyph glyph-name="lozenge" unicode="&#x25ca;" horiz-adv-x="2150" 
d="M1049 -10q-135 0 -214 100t-79 268q0 96 28 170.5t76.5 119.5t109.5 68t132 23q120 0 202 -62q82 -61 100 -164h-156q-36 86 -147 86q-90 0 -137 -62t-47 -175q0 -115 46.5 -175t129.5 -60q67 0 109 33t52 92h-162v143h324v-395h-111l-16 119h-35q-17 -62 -71.5 -95.5
t-133.5 -33.5zM1551 576q-34 0 -56.5 23t-22.5 59q0 35 22.5 58t56.5 23q35 0 55.5 -22.5t20.5 -58.5q0 -37 -20.5 -59.5t-55.5 -22.5zM1749 576q-34 0 -55 23t-21 59q0 35 21.5 58t54.5 23q36 0 58.5 -23t22.5 -58q0 -36 -22.5 -59t-58.5 -23zM375 0h-271v729h271
q161 0 248.5 -92.5t87.5 -270.5t-88.5 -272t-247.5 -94zM1951 572h-36v126h-38v31h118v-31h-44v-126zM2049 572h-34v157h63l17 -127l23 127h61v-157h-40v135l-17 -135h-52l-21 135v-135zM210 109l26 -26q28 28 53 40t60 12h26q32 0 69 15q31 12 52 33q24 24 41 72t17 108
q0 59 -16 106t-39 70q-21 23 -49 36q-37 19 -75 19h-26q-29 0 -52 10q-26 12 -32 17l-29 27l-26 -30q0 -2 7 -9t7 -8q5 -2 20 -27q15 -22 15 -71v-276q-3 -51 -16 -74l-10 -15q-9 -15 -23 -29zM1647 0h-149v491h141l7 -58h27q12 36 49 56t90 20v-147q-165 16 -165 -148v-214
z" />
    <glyph glyph-name="circle" unicode="&#x25cb;" horiz-adv-x="858" 
d="M80 365q0 163 107 268t261 105t260 -105q108 -105 108 -268q0 -165 -107 -270t-261 -105t-261 105t-107 270zM448 30q134 0 228 94q95 95 95 241q0 144 -95 239q-94 94 -228 94q-133 0 -227 -94q-95 -95 -95 -239q0 -146 95 -241q94 -94 227 -94z" />
    <glyph glyph-name="uni25CF" unicode="&#x25cf;" horiz-adv-x="904" 
d="M473 -10q-157 0 -262 107q-105 108 -105 269q0 158 105 265t262 107q155 0 259 -107t104 -265q0 -160 -104 -269q-104 -107 -259 -107z" />
    <glyph glyph-name="uni262E" unicode="&#x262e;" horiz-adv-x="908" 
d="M841 362q0 -167 -104 -273q-104 -104 -264 -104t-264 104q-104 106 -104 273q0 166 104 270q103 105 264 105t264 -105q104 -104 104 -270zM795 362q0 143 -85 234q-86 93 -216 100v-314l272 -168q29 69 29 148zM451 382v314q-130 -7 -216 -100q-85 -91 -85 -234
q0 -80 29 -147zM451 329l-251 -155q40 -66 105.5 -105t145.5 -43v303zM494 329v-303q80 4 146 43t106 105z" />
    <glyph glyph-name="uni2639" unicode="&#x2639;" horiz-adv-x="912" 
d="M105 365q0 160 107 267q107 106 262 106q156 0 263 -106q108 -106 108 -267q0 -163 -108 -269q-106 -106 -263 -106q-155 0 -262 106q-107 107 -107 269zM150 365q0 -137 85 -229q35 54 100 85.5t139 31.5q77 0 142.5 -32t99.5 -85q85 98 85 229q0 143 -96 237
q-97 95 -230 95t-230 -95q-95 -95 -95 -237zM346 437q0 51 13.5 78t37.5 27q50 0 50 -105q0 -106 -50 -106q-24 0 -37.5 28.5t-13.5 77.5zM506 437q0 51 13.5 78t37.5 27q50 0 50 -105q0 -106 -50 -106q-24 0 -37.5 29t-13.5 77zM268 107q92 -76 207 -76t208 75
q-27 47 -84 75.5t-124 28.5q-66 0 -122.5 -28t-84.5 -75z" />
    <glyph glyph-name="smileface" unicode="&#x263a;" horiz-adv-x="912" 
d="M474 738q156 0 263 -106q108 -106 108 -267q0 -163 -108 -269q-106 -106 -263 -106q-155 0 -262 106q-107 107 -107 269q0 160 107 267q107 106 262 106zM475 31q137 0 231 96q95 98 95 238q0 143 -96 237q-97 95 -230 95t-230 -95q-95 -95 -95 -237t95 -239
q97 -95 230 -95zM397 331q-24 0 -37.5 28.5t-13.5 77.5q0 51 13.5 78t37.5 27q50 0 50 -105q0 -106 -50 -106zM557 331q-24 0 -37.5 29t-13.5 77q0 51 13.5 78t37.5 27q50 0 50 -105q0 -106 -50 -106zM636 310v17h109v-17h-31q-14 -86 -81 -138q-65 -52 -159 -52
q-93 0 -158 52q-67 53 -80 138h-27v17h109v-17h-36q12 -66 65 -107q55 -41 128 -41q75 0 128.5 41t65.5 107h-33z" />
    <glyph glyph-name="uni2708" unicode="&#x2708;" horiz-adv-x="963" 
d="M204 207h-50l35 159l-35 159h50l69 -108l210 12l-99 276h90l144 -238q16 -25 48 -26l59 4q60 4 109 -21t49 -58q0 -35 -49 -60q-49 -24 -109 -20l-59 4q-20 0 -29.5 -5t-18.5 -19l-144 -240h-90l99 276l-210 14z" />
    <glyph glyph-name="uni2713" unicode="&#x2713;" horiz-adv-x="974" 
d="M392 169l373 377l39 -42l-412 -415l-204 232l40 37z" />
    <glyph glyph-name="uni2714" unicode="&#x2714;" horiz-adv-x="1288" 
d="M1125 709l101 -158q-265 -148 -450 -292q-186 -145 -357 -321q-143 200 -345 360l109 124q148 -116 252 -278q142 171 307 303q167 134 383 262z" />
    <glyph glyph-name="uni2776" unicode="&#x2776;" horiz-adv-x="891" 
d="M468 -9q-164 0 -276 111q-111 111 -111 274q0 162 111 273q112 111 276 111q162 0 273 -111t111 -273q0 -163 -111 -274t-273 -111zM461 447v-289h62v414h-61v-5q0 -72 -69 -72h-41v-48h109z" />
    <glyph glyph-name="uni2777" unicode="&#x2777;" horiz-adv-x="892" 
d="M468 -9q-165 0 -276 111q-111 112 -111 275t111 272q111 111 276 111q163 0 274 -111q111 -109 111 -272t-111 -275q-111 -111 -274 -111zM343 172v-14h255v56h-118l-68 -3q7 26 40 56q32 29 63 51q36 24 60 61t24 78q0 54 -35 87t-94 33q-60 0 -98 -35t-38 -92l61 -5
q-1 35 19.5 57t52.5 22q46 3 63 -41t-15 -83q-12 -16 -28.5 -30.5t-40.5 -32.5t-35 -27q-68 -57 -68 -138z" />
    <glyph glyph-name="uni2778" unicode="&#x2778;" horiz-adv-x="892" 
d="M468 -9q-165 0 -276 111q-111 112 -111 275t111 272q111 111 276 111q163 0 274 -111q111 -109 111 -272t-111 -275q-111 -111 -274 -111zM603 273q0 75 -69 100v3q62 26 62 89q0 51 -36 82t-94 31q-60 0 -97.5 -36.5t-34.5 -93.5h63q-1 34 17.5 55t51.5 21
q30 0 47.5 -16.5t17.5 -45.5q0 -28 -20 -46t-55 -18h-25v-54h30q34 0 55.5 -18.5t21.5 -50.5q0 -30 -20 -49t-52 -19t-51.5 20.5t-18.5 55.5h-64q-1 -60 36 -95.5t98 -35.5t99 34t38 87z" />
    <glyph glyph-name="uni2779" unicode="&#x2779;" horiz-adv-x="892" 
d="M468 -9q-164 0 -276 111q-111 112 -111 275t111 272q112 111 276 111q163 0 274 -111t111 -272q0 -163 -111 -275q-111 -111 -274 -111zM493 249v-91h61v91h48v54h-48v269h-98l-152 -271v-52h189zM493 303h-121l121 216v-216z" />
    <glyph glyph-name="uni277A" unicode="&#x277a;" horiz-adv-x="894" 
d="M469 -9q-165 0 -277 111q-111 112 -111 275t111 272q112 111 277 111q163 0 274 -111q112 -109 112 -272t-112 -275q-111 -111 -274 -111zM475 152q63 0 102.5 40t39.5 102t-36.5 101t-94.5 39q-54 0 -78 -30l-2 3l2 43v67h187v55h-248v-232h59q7 17 27 28t42 11
q35 0 56 -24t21 -63q0 -38 -21 -61.5t-55 -23.5q-35 0 -55 22.5t-19 55.5h-64q-1 -59 37.5 -96t99.5 -37z" />
    <glyph glyph-name="uni277B" unicode="&#x277b;" horiz-adv-x="891" 
d="M468 -9q-164 0 -276 111q-111 111 -111 274q0 162 111 273q112 111 276 111q162 0 273 -111t111 -273q0 -163 -111 -274t-273 -111zM472 152q62 0 101.5 39.5t39.5 101.5q0 61 -35 99.5t-92 38.5q-67 0 -95 -54h-3q0 146 88 146q26 0 44.5 -14.5t22.5 -39.5h62
q-5 49 -39.5 79t-87.5 30q-74 0 -113.5 -59t-39.5 -160q0 -98 37.5 -152.5t109.5 -54.5zM474 207q-34 0 -55 24.5t-21 61.5q0 35 20.5 59.5t55.5 24.5q34 0 54.5 -23t20.5 -61t-20.5 -62t-54.5 -24z" />
    <glyph glyph-name="uni277C" unicode="&#x277c;" horiz-adv-x="892" 
d="M468 -9q-165 0 -276 111q-111 112 -111 275t111 272q111 111 276 111q163 0 274 -111q111 -109 111 -272t-111 -275q-111 -111 -274 -111zM388 158h65q36 205 162 370v44h-268v-125h44v70h146q-118 -162 -149 -359z" />
    <glyph glyph-name="uni277D" unicode="&#x277d;" horiz-adv-x="892" 
d="M468 -9q-165 0 -276 111q-111 112 -111 275t111 272q111 111 276 111q163 0 274 -111q111 -109 111 -272t-111 -275q-111 -111 -274 -111zM467 152q63 0 102 31.5t39 83.5q0 30 -16.5 56.5t-43.5 40.5v4q60 28 60 96q0 51 -38 82.5t-103 31.5q-63 0 -101.5 -31.5
t-38.5 -82.5q0 -69 60 -96v-4q-27 -13 -43.5 -39.5t-16.5 -57.5q0 -51 38.5 -83t101.5 -32zM467 391q-34 0 -55.5 18t-21.5 48t21 48.5t56 18.5q34 0 55.5 -18.5t21.5 -48.5q0 -29 -21 -47.5t-56 -18.5zM467 207q-34 0 -55.5 18.5t-21.5 48.5t21 48.5t56 18.5
q34 0 55.5 -18.5t21.5 -48.5t-21 -48.5t-56 -18.5z" />
    <glyph glyph-name="uni277E" unicode="&#x277e;" horiz-adv-x="892" 
d="M468 -9q-164 0 -276 111q-111 112 -111 274t111 273q112 111 276 111q163 0 274 -111t111 -273t-111 -274q-111 -111 -274 -111zM466 152q74 0 113 58.5t39 159.5q0 98 -37.5 153t-108.5 55q-63 0 -102.5 -39t-39.5 -101t35.5 -101t91.5 -39q31 0 57.5 15.5t38.5 39.5h3
q0 -146 -88 -146q-27 0 -45.5 14t-22.5 40h-63q5 -49 40 -79t89 -30zM470 353q-34 0 -55 23t-21 62q0 37 21.5 60.5t54.5 23.5q35 0 56 -24t21 -60t-21 -60.5t-56 -24.5z" />
    <glyph glyph-name="uni2780" unicode="&#x2780;" horiz-adv-x="891" 
d="M468 -9q-164 0 -276 111q-111 111 -111 274q0 162 111 273q112 111 276 111q162 0 273 -111t111 -273q0 -163 -111 -274t-273 -111zM468 25q148 0 248 102q102 102 102 249q0 148 -102 248q-101 102 -248 102q-149 0 -251 -102q-102 -100 -102 -248q0 -147 101 -250
q103 -101 252 -101zM461 158v289h-109v48h41q69 0 69 72v5h61v-414h-62z" />
    <glyph glyph-name="uni2781" unicode="&#x2781;" horiz-adv-x="891" 
d="M468 760q162 0 273 -111t111 -273q0 -163 -111 -274t-273 -111q-164 0 -276 111q-111 111 -111 274q0 162 111 273q112 111 276 111zM468 25q148 0 248 102q102 102 102 249q0 148 -102 248q-101 102 -248 102q-149 0 -251 -102q-102 -100 -102 -248q0 -147 101 -250
q103 -101 252 -101zM599 457q0 -41 -24 -78t-60 -61q-31 -22 -63 -51q-33 -30 -40 -56l68 3h118v-56h-255v14q0 33 10.5 61t32.5 51.5t37.5 36.5t43.5 32q68 51 68 103q0 30 -18.5 49t-49.5 19q-32 0 -52.5 -22t-19.5 -57l-61 5q0 57 38 92t98 35q59 0 94 -33t35 -87z" />
    <glyph glyph-name="uni2782" unicode="&#x2782;" horiz-adv-x="891" 
d="M468 -9q-164 0 -276 111q-111 111 -111 274q0 162 111 273q112 111 276 111q162 0 273 -111t111 -273q0 -163 -111 -274t-273 -111zM468 25q148 0 248 102q102 102 102 249q0 148 -102 248q-101 102 -248 102q-149 0 -251 -102q-102 -100 -102 -248q0 -147 101 -250
q103 -101 252 -101zM332 283h64q-1 -35 18.5 -55.5t51.5 -20.5t52 19t20 49q0 32 -21.5 50.5t-55.5 18.5h-30v54h25q35 0 55 18t20 46q0 29 -17.5 45.5t-47.5 16.5q-33 0 -51.5 -21t-17.5 -55h-63q-3 57 34.5 93.5t97.5 36.5q58 0 94 -31t36 -82q0 -63 -62 -89v-3
q69 -25 69 -100q0 -53 -38 -87t-99 -34t-98 35.5t-36 95.5z" />
    <glyph glyph-name="uni2783" unicode="&#x2783;" horiz-adv-x="891" 
d="M468 -9q-164 0 -276 111q-111 111 -111 274q0 162 111 273q112 111 276 111q162 0 273 -111t111 -273q0 -163 -111 -274t-273 -111zM468 25q148 0 248 102q102 102 102 249q0 148 -102 248q-101 102 -248 102q-149 0 -251 -102q-102 -100 -102 -248q0 -147 101 -250
q103 -101 252 -101zM554 158h-61v91h-189v52l152 271h98v-269h48v-54h-48v-91zM493 519l-121 -216h121v216z" />
    <glyph glyph-name="uni2784" unicode="&#x2784;" horiz-adv-x="891" 
d="M468 -9q-164 0 -276 111q-111 111 -111 274q0 162 111 273q112 111 276 111q162 0 273 -111t111 -273q0 -163 -111 -274t-273 -111zM468 25q148 0 248 102q102 102 102 249q0 148 -102 248q-101 102 -248 102q-149 0 -251 -102q-102 -100 -102 -248q0 -147 101 -250
q103 -101 252 -101zM475 152q-61 0 -99.5 37t-37.5 96h64q-1 -33 19 -55.5t55 -22.5q34 0 55 23.5t21 61.5q0 39 -21 63t-56 24q-22 0 -42 -11t-27 -28h-59v232h248v-55h-187v-67l-2 -43l2 -3q24 30 78 30q58 0 94.5 -39t36.5 -101t-39.5 -102t-102.5 -40z" />
    <glyph glyph-name="uni2785" unicode="&#x2785;" horiz-adv-x="891" 
d="M468 -9q-164 0 -276 111q-111 111 -111 274q0 162 111 273q112 111 276 111q162 0 273 -111t111 -273q0 -163 -111 -274t-273 -111zM468 25q148 0 248 102q102 102 102 249q0 148 -102 248q-101 102 -248 102q-149 0 -251 -102q-102 -100 -102 -248q0 -147 101 -250
q103 -101 252 -101zM472 152q-72 0 -109.5 54.5t-37.5 152.5q0 101 39.5 160t113.5 59q53 0 87.5 -30t39.5 -79h-62q-4 25 -22.5 39.5t-44.5 14.5q-88 0 -88 -146h3q28 54 95 54q57 0 92 -38.5t35 -99.5q0 -62 -39.5 -101.5t-101.5 -39.5zM474 207q34 0 54.5 24t20.5 62
t-20.5 61t-54.5 23q-35 0 -55.5 -24.5t-20.5 -59.5q0 -37 21 -61.5t55 -24.5z" />
    <glyph glyph-name="uni2786" unicode="&#x2786;" horiz-adv-x="891" 
d="M81 376q0 162 111 273q112 111 276 111q162 0 273 -111t111 -273q0 -163 -111 -274t-273 -111q-164 0 -276 111q-111 111 -111 274zM115 376q0 -147 101 -250q103 -101 252 -101q148 0 248 102q102 102 102 249q0 148 -102 248q-101 102 -248 102q-149 0 -251 -102
q-102 -100 -102 -248zM391 447h-44v125h268v-44q-126 -165 -162 -370h-65q31 197 149 359h-146v-70z" />
    <glyph glyph-name="uni2787" unicode="&#x2787;" horiz-adv-x="891" 
d="M468 -9q-164 0 -276 111q-111 111 -111 274q0 162 111 273q112 111 276 111q162 0 273 -111t111 -273q0 -163 -111 -274t-273 -111zM468 25q148 0 248 102q102 102 102 249q0 148 -102 248q-101 102 -248 102q-149 0 -251 -102q-102 -100 -102 -248q0 -147 101 -250
q103 -101 252 -101zM467 152q-63 0 -101.5 32t-38.5 83q0 31 16.5 57.5t43.5 39.5v4q-60 27 -60 96q0 51 38.5 82.5t101.5 31.5q65 0 103 -31.5t38 -82.5q0 -68 -60 -96v-4q27 -14 43.5 -40.5t16.5 -56.5q0 -52 -39 -83.5t-102 -31.5zM467 391q35 0 56 18.5t21 47.5
q0 30 -21.5 48.5t-55.5 18.5q-35 0 -56 -18.5t-21 -48.5t21.5 -48t55.5 -18zM467 207q35 0 56 18.5t21 48.5t-21.5 48.5t-55.5 18.5q-35 0 -56 -18.5t-21 -48.5t21.5 -48.5t55.5 -18.5z" />
    <glyph glyph-name="uni2788" unicode="&#x2788;" horiz-adv-x="891" 
d="M81 376q0 162 111 273q112 111 276 111q162 0 273 -111t111 -273q0 -163 -111 -274t-273 -111q-164 0 -276 111q-111 111 -111 274zM115 376q0 -147 101 -250q103 -101 252 -101q148 0 248 102q102 102 102 249q0 148 -102 248q-101 102 -248 102q-149 0 -251 -102
q-102 -100 -102 -248zM472 578q71 0 108.5 -55t37.5 -153q0 -101 -39 -159.5t-113 -58.5q-54 0 -89 30t-40 79h63q4 -26 22.5 -40t45.5 -14q88 0 88 146h-3q-12 -24 -38.5 -39.5t-57.5 -15.5q-56 0 -91.5 39t-35.5 101t39.5 101t102.5 39zM394 438q0 -39 21 -62t55 -23
q35 0 56 24.5t21 60.5t-21 60t-56 24q-33 0 -54.5 -23.5t-21.5 -60.5z" />
    <glyph glyph-name="uniECE0" unicode="&#xece0;" horiz-adv-x="1051" 
d="M200 326v-269l-73 -54v726h337l-61 -78h-203v-249h169q13 141 118 238q103 97 246 97q88 0 164.5 -40.5t128.5 -113.5l-63 -47q-39 56 -101.5 90.5t-130.5 34.5q-114 0 -200 -85q-86 -84 -86 -211t86 -213q85 -84 200 -84q70 0 132 34.5t100 89.5l63 -46
q-52 -73 -129 -114t-164 -41q-139 0 -245 95q-104 97 -119 240h-169zM599 365q0 -58 38 -99q37 -40 93 -40q68 0 109 61l62 -46q-29 -42 -74.5 -66.5t-94.5 -24.5q-88 0 -149 63q-61 62 -61 152q0 89 61 150q61 63 149 63q106 0 169 -90l-62 -46q-18 27 -47.5 43.5
t-61.5 16.5q-56 0 -93 -40q-38 -41 -38 -97z" />
    <glyph glyph-name="uniEFCC" unicode="&#xefcc;" horiz-adv-x="1208" 
d="M504 734q20 0 38 -2v-94q-18 3 -37 3q-123 0 -198 -77q-74 -77 -74 -203q0 -124 74 -203q75 -77 198 -77q11 0 37 3v-94q-24 -2 -38 -2q-163 0 -263 103q-99 103 -99 270t100 270t262 103zM767 366q0 166 96 267q98 101 260 101q20 0 44 -2v-94q-16 3 -40 3
q-68 0 -126 -23t-96 -78t-41 -131h227v-86h-227q3 -80 42 -134q73 -99 221 -99q21 0 40 3v-94q-26 -2 -44 -2q-163 0 -260 100q-96 101 -96 269z" />
    <glyph glyph-name="uniF8FF" unicode="&#xf8ff;" horiz-adv-x="641" 
d="M444 632q-16 -21 -43 -36.5t-48 -19.5l-18 -3l-1 10q-6 57 31 104q22 29 51 47t48 19l18 1q-1 -2 1 -19q2 -16 -8.5 -47t-30.5 -56zM226 0q-44 0 -89 53q-45 56 -73 134q-28 80 -28 156q0 104 53 166q54 62 124 62q28 0 70 -17t56 -17q15 0 56 18q42 18 80 18
q51 0 87 -23t49 -45l5 -8l-4 -3q-5 -3 -12 -8.5t-15.5 -13.5t-17 -19.5t-15.5 -25.5t-11.5 -33t-4.5 -39q0 -58 29.5 -96t59.5 -53l10 -5q-5 -19 -28 -70q-14 -33 -33 -61q-20 -29 -48 -49t-55 -20q-19 0 -59 14q-38 15 -62 15q-26 0 -66 -15t-58 -15z" />
    <glyph glyph-name="NULL" horiz-adv-x="0" 
 />
    <glyph glyph-name="CR" horiz-adv-x="333" 
 />
    <glyph glyph-name="uni00A40301" horiz-adv-x="384" 
d="M482 961l22 -42l-182 -105l-17 33zM189 61l31 227l62 441h63l-62 -441l-32 -229q-8 -59 -68 -59h-203l9 61h200z" />
    <glyph glyph-name="G.ss01" horiz-adv-x="769" 
d="M59 282q0 200 110 328t284 128q128 0 207 -68q77 -67 79 -179h-71q-4 88 -63.5 137t-157.5 49q-120 0 -206 -71q-83 -70 -100 -190l-14 -102q-16 -121 47 -194q65 -71 187 -71q126 0 205 70q81 71 97 191h-229l9 67h297l-6 -42q-24 -166 -127 -256q-103 -89 -256 -89
q-140 0 -216 76.5t-76 215.5z" />
    <glyph glyph-name="Gbreve.ss01" horiz-adv-x="769" 
d="M577 950h48q-8 -60 -51.5 -97.5t-104.5 -37.5t-93 37t-24 98h47q-6 -42 15.5 -67.5t60.5 -25.5q40 0 68 25.5t34 67.5zM59 282q0 200 110 328t284 128q128 0 207 -68q77 -67 79 -179h-71q-4 88 -63.5 137t-157.5 49q-120 0 -206 -71q-83 -70 -100 -190l-14 -102
q-16 -121 47 -194q65 -71 187 -71q126 0 205 70q81 71 97 191h-229l9 67h297l-6 -42q-24 -166 -127 -256q-103 -89 -256 -89q-140 0 -216 76.5t-76 215.5z" />
    <glyph glyph-name="uni0122.ss01" horiz-adv-x="769" 
d="M59 282q0 200 110 328t284 128q128 0 207 -68q77 -67 79 -179h-71q-4 88 -63.5 137t-157.5 49q-120 0 -206 -71q-83 -70 -100 -190l-14 -102q-16 -121 47 -194q65 -71 187 -71q126 0 205 70q81 71 97 191h-229l9 67h297l-6 -42q-24 -166 -127 -256q-103 -89 -256 -89
q-140 0 -216 76.5t-76 215.5zM321 -202v22q16 0 26.5 12t10.5 32v3h-37v76h67v-71q0 -35 -18 -54.5t-49 -19.5z" />
    <glyph glyph-name="Gdotaccent.ss01" horiz-adv-x="769" 
d="M503 829h-62l14 102h62zM59 282q0 200 110 328t284 128q128 0 207 -68q77 -67 79 -179h-71q-4 88 -63.5 137t-157.5 49q-120 0 -206 -71q-83 -70 -100 -190l-14 -102q-16 -121 47 -194q65 -71 187 -71q126 0 205 70q81 71 97 191h-229l9 67h297l-6 -42
q-24 -166 -127 -256q-103 -89 -256 -89q-140 0 -216 76.5t-76 215.5z" />
    <glyph glyph-name="R.ss02" horiz-adv-x="714" 
d="M139 0h-65l102 729h317q185 0 185 -167q0 -96 -47 -162t-128 -87l-1 -8q19 -6 30.5 -26.5t23.5 -64.5l57 -214h-74l-52 216q-14 55 -37 68q-22 15 -71 15h-198zM233 668l-44 -312h252q64 0 107.5 34t51.5 90l11 75q7 51 -24 82t-88 31h-266z" />
    <glyph glyph-name="Racute.ss02" horiz-adv-x="714" 
d="M633 919l-182 -105l-17 33l177 114zM139 0h-65l102 729h317q185 0 185 -167q0 -96 -47 -162t-128 -87l-1 -8q19 -6 30.5 -26.5t23.5 -64.5l57 -214h-74l-52 216q-14 55 -37 68q-22 15 -71 15h-198zM233 668l-44 -312h252q64 0 107.5 34t51.5 90l11 75q7 51 -24 82t-88 31
h-266z" />
    <glyph glyph-name="Rcaron.ss02" horiz-adv-x="714" 
d="M422 781l-93 120l38 30l85 -107l116 107l30 -30l-127 -120h-49zM139 0h-65l102 729h317q185 0 185 -167q0 -96 -47 -162t-128 -87l-1 -8q19 -6 30.5 -26.5t23.5 -64.5l57 -214h-74l-52 216q-14 55 -37 68q-22 15 -71 15h-198zM233 668l-44 -312h252q64 0 107.5 34
t51.5 90l11 75q7 51 -24 82t-88 31h-266z" />
    <glyph glyph-name="uni0156.ss02" horiz-adv-x="714" 
d="M139 0h-65l102 729h317q185 0 185 -167q0 -96 -47 -162t-128 -87l-1 -8q19 -6 30.5 -26.5t23.5 -64.5l57 -214h-74l-52 216q-14 55 -37 68q-22 15 -71 15h-198zM233 668l-44 -312h252q64 0 107.5 34t51.5 90l11 75q7 51 -24 82t-88 31h-266zM305 -202v22q16 0 26.5 12
t10.5 32v3h-37v76h67v-71q0 -35 -18 -54.5t-49 -19.5z" />
    <glyph glyph-name="O.ss03" horiz-adv-x="770" 
d="M59 279q0 209 108 333q108 126 287 126q141 0 215.5 -75t74.5 -214q0 -208 -108 -334q-108 -125 -287 -125q-141 0 -215.5 74.5t-74.5 214.5zM142 416l-15 -102q-18 -124 45 -194q63 -69 185 -69q126 0 206 71q80 73 98 192l15 102q18 120 -44.5 190.5t-186.5 70.5
q-125 0 -205 -70t-98 -191zM431 321h-90l12 87h90z" />
    <glyph glyph-name="Oacute.ss03" horiz-adv-x="770" 
d="M575 919l-182 -105l-17 33l177 114zM59 279q0 209 108 333q108 126 287 126q141 0 215.5 -75t74.5 -214q0 -208 -108 -334q-108 -125 -287 -125q-141 0 -215.5 74.5t-74.5 214.5zM142 416l-15 -102q-18 -124 45 -194q63 -69 185 -69q126 0 206 71q80 73 98 192l15 102
q18 120 -44.5 190.5t-186.5 70.5q-125 0 -205 -70t-98 -191zM431 321h-90l12 87h90z" />
    <glyph glyph-name="Ocircumflex.ss03" horiz-adv-x="770" 
d="M290 801l-28 30l128 119h48l93 -118l-38 -31l-86 106zM59 279q0 209 108 333q108 126 287 126q141 0 215.5 -75t74.5 -214q0 -208 -108 -334q-108 -125 -287 -125q-141 0 -215.5 74.5t-74.5 214.5zM142 416l-15 -102q-18 -124 45 -194q63 -69 185 -69q126 0 206 71
q80 73 98 192l15 102q18 120 -44.5 190.5t-186.5 70.5q-125 0 -205 -70t-98 -191zM431 321h-90l12 87h90z" />
    <glyph glyph-name="Odieresis.ss03" horiz-adv-x="770" 
d="M335 829h-62l14 102h62zM519 829h-62l14 102h62zM59 279q0 209 108 333q108 126 287 126q141 0 215.5 -75t74.5 -214q0 -208 -108 -334q-108 -125 -287 -125q-141 0 -215.5 74.5t-74.5 214.5zM142 416l-15 -102q-18 -124 45 -194q63 -69 185 -69q126 0 206 71
q80 73 98 192l15 102q18 120 -44.5 190.5t-186.5 70.5q-125 0 -205 -70t-98 -191zM431 321h-90l12 87h90z" />
    <glyph glyph-name="Ograve.ss03" horiz-adv-x="770" 
d="M422 847l-27 -33l-152 105l34 42zM59 279q0 209 108 333q108 126 287 126q141 0 215.5 -75t74.5 -214q0 -208 -108 -334q-108 -125 -287 -125q-141 0 -215.5 74.5t-74.5 214.5zM142 416l-15 -102q-18 -124 45 -194q63 -69 185 -69q126 0 206 71q80 73 98 192l15 102
q18 120 -44.5 190.5t-186.5 70.5q-125 0 -205 -70t-98 -191zM431 321h-90l12 87h90z" />
    <glyph glyph-name="Ohungarumlaut.ss03" horiz-adv-x="770" 
d="M480 894l-173 -119l-21 31l168 128zM651 880l-181 -105l-18 33l177 114zM59 279q0 209 108 333q108 126 287 126q141 0 215.5 -75t74.5 -214q0 -208 -108 -334q-108 -125 -287 -125q-141 0 -215.5 74.5t-74.5 214.5zM142 416l-15 -102q-18 -124 45 -194q63 -69 185 -69
q126 0 206 71q80 73 98 192l15 102q18 120 -44.5 190.5t-186.5 70.5q-125 0 -205 -70t-98 -191zM431 321h-90l12 87h90z" />
    <glyph glyph-name="Omacron.ss03" horiz-adv-x="770" 
d="M541 824h-292l6 45h292zM59 279q0 209 108 333q108 126 287 126q141 0 215.5 -75t74.5 -214q0 -208 -108 -334q-108 -125 -287 -125q-141 0 -215.5 74.5t-74.5 214.5zM142 416l-15 -102q-18 -124 45 -194q63 -69 185 -69q126 0 206 71q80 73 98 192l15 102
q18 120 -44.5 190.5t-186.5 70.5q-125 0 -205 -70t-98 -191zM431 321h-90l12 87h90z" />
    <glyph glyph-name="Otilde.ss03" horiz-adv-x="770" 
d="M453 810q-30 0 -68 16q-39 17 -56 17q-31 0 -53 -33l-27 22q42 59 90 59q22 0 65 -17t60 -17q33 0 57 33l27 -24q-38 -56 -95 -56zM59 279q0 209 108 333q108 126 287 126q141 0 215.5 -75t74.5 -214q0 -208 -108 -334q-108 -125 -287 -125q-141 0 -215.5 74.5
t-74.5 214.5zM142 416l-15 -102q-18 -124 45 -194q63 -69 185 -69q126 0 206 71q80 73 98 192l15 102q18 120 -44.5 190.5t-186.5 70.5q-125 0 -205 -70t-98 -191zM431 321h-90l12 87h90z" />
    <glyph glyph-name="A.ss04" horiz-adv-x="748" 
d="M405 729h70l196 -281l-63 -448h-65l25 182h-410l-25 -182h-65l63 448zM193 430l-26 -187h410l26 187l-166 244h-8z" />
    <glyph glyph-name="Aacute.ss04" horiz-adv-x="748" 
d="M611 956l22 -42l-182 -105l-17 33zM405 729h70l196 -281l-63 -448h-65l25 182h-410l-25 -182h-65l63 448zM193 430l-26 -187h410l26 187l-166 244h-8z" />
    <glyph glyph-name="Abreve.ss04" horiz-adv-x="748" 
d="M334 945h47q-6 -42 15.5 -67.5t60.5 -25.5q40 0 68 25.5t34 67.5h48q-8 -60 -51.5 -97.5t-104.5 -37.5t-93 37t-24 98zM405 729h70l196 -281l-63 -448h-65l25 182h-410l-25 -182h-65l63 448zM193 430l-26 -187h410l26 187l-166 244h-8z" />
    <glyph glyph-name="Acircumflex.ss04" horiz-adv-x="748" 
d="M551 796l-86 106l-117 -106l-28 30l128 119h48l93 -118zM405 729h70l196 -281l-63 -448h-65l25 182h-410l-25 -182h-65l63 448zM193 430l-26 -187h410l26 187l-166 244h-8z" />
    <glyph glyph-name="Adieresis.ss04" horiz-adv-x="748" 
d="M345 926h62l-14 -102h-62zM529 926h62l-14 -102h-62zM405 729h70l196 -281l-63 -448h-65l25 182h-410l-25 -182h-65l63 448zM193 430l-26 -187h410l26 187l-166 244h-8z" />
    <glyph glyph-name="Agrave.ss04" horiz-adv-x="748" 
d="M335 956l145 -114l-27 -33l-152 105zM405 729h70l196 -281l-63 -448h-65l25 182h-410l-25 -182h-65l63 448zM193 430l-26 -187h410l26 187l-166 244h-8z" />
    <glyph glyph-name="Amacron.ss04" horiz-adv-x="748" 
d="M313 864h292l-6 -45h-292zM405 729h70l196 -281l-63 -448h-65l25 182h-410l-25 -182h-65l63 448zM193 430l-26 -187h410l26 187l-166 244h-8z" />
    <glyph glyph-name="Aogonek.ss04" horiz-adv-x="748" 
d="M521 -96q0 -41 49 -41q28 0 52 12l-5 -39q-29 -13 -65 -11t-56 20t-20 48q0 64 67 107l25 182h-410l-25 -182h-65l63 448l274 281h70l196 -281l-63 -448q-41 -14 -64 -39.5t-23 -56.5zM193 430l-26 -187h410l26 187l-166 244h-8z" />
    <glyph glyph-name="Aring.ss04" horiz-adv-x="748" 
d="M484 716l187 -268l-63 -448h-65l25 182h-410l-25 -182h-65l63 448l262 268q-46 22 -46 76q0 52 34 86.5t86 34.5q41 0 66 -23t25 -62t-20.5 -69t-53.5 -43zM462 875q-29 0 -50 -22.5t-21 -53.5q0 -24 14.5 -39t38.5 -15q29 0 49 22.5t20 54.5q0 24 -13.5 38.5t-37.5 14.5
zM193 430l-26 -187h410l26 187l-166 244h-8z" />
    <glyph glyph-name="Atilde.ss04" horiz-adv-x="748" 
d="M387 838q-31 0 -53 -33l-27 22q42 59 90 59q22 0 65 -17t60 -17q33 0 57 33l27 -24q-38 -56 -95 -56q-30 0 -68 16q-39 17 -56 17zM405 729h70l196 -281l-63 -448h-65l25 182h-410l-25 -182h-65l63 448zM193 430l-26 -187h410l26 187l-166 244h-8z" />
    <glyph glyph-name="V.ss04" horiz-adv-x="759" 
d="M113 280l63 449h62l-60 -431l165 -243h9l235 243l60 431h68l-63 -449l-273 -280h-71z" />
    <glyph glyph-name="W.ss04" horiz-adv-x="949" 
d="M221 0l-109 270l65 459h65l-64 -450l89 -225h10l166 235l31 223h61l-31 -223l109 -235h10l153 225l64 450h65l-65 -459l-187 -270h-81l-107 228l-163 -228h-81z" />
    <glyph glyph-name="Wacute.ss04" horiz-adv-x="949" 
d="M734 919l-182 -105l-17 33l177 114zM221 0l-109 270l65 459h65l-64 -450l89 -225h10l166 235l31 223h61l-31 -223l109 -235h10l153 225l64 450h65l-65 -459l-187 -270h-81l-107 228l-163 -228h-81z" />
    <glyph glyph-name="Wcircumflex.ss04" horiz-adv-x="949" 
d="M449 801l-28 30l128 119h48l93 -118l-38 -31l-86 106zM221 0l-109 270l65 459h65l-64 -450l89 -225h10l166 235l31 223h61l-31 -223l109 -235h10l153 225l64 450h65l-65 -459l-187 -270h-81l-107 228l-163 -228h-81z" />
    <glyph glyph-name="Wdieresis.ss04" horiz-adv-x="949" 
d="M494 829h-62l14 102h62zM678 829h-62l14 102h62zM221 0l-109 270l65 459h65l-64 -450l89 -225h10l166 235l31 223h61l-31 -223l109 -235h10l153 225l64 450h65l-65 -459l-187 -270h-81l-107 228l-163 -228h-81z" />
    <glyph glyph-name="Wgrave.ss04" horiz-adv-x="949" 
d="M581 847l-27 -33l-152 105l34 42zM221 0l-109 270l65 459h65l-64 -450l89 -225h10l166 235l31 223h61l-31 -223l109 -235h10l153 225l64 450h65l-65 -459l-187 -270h-81l-107 228l-163 -228h-81z" />
    <glyph glyph-name="Y.ss04" horiz-adv-x="679" 
d="M579 523l28 206h68l-31 -224l-276 -280h-1l-31 -225h-65l32 226l-198 279l31 224h62l-28 -206l166 -240h9z" />
    <glyph glyph-name="Yacute.ss04" horiz-adv-x="679" 
d="M577 961l22 -42l-182 -105l-17 33zM579 523l28 206h68l-31 -224l-276 -280h-1l-31 -225h-65l32 226l-198 279l31 224h62l-28 -206l166 -240h9z" />
    <glyph glyph-name="Ycircumflex.ss04" horiz-adv-x="679" 
d="M517 801l-86 106l-117 -106l-28 30l128 119h48l93 -118zM579 523l28 206h68l-31 -224l-276 -280h-1l-31 -225h-65l32 226l-198 279l31 224h62l-28 -206l166 -240h9z" />
    <glyph glyph-name="Ydieresis.ss04" horiz-adv-x="679" 
d="M311 931h62l-14 -102h-62zM495 931h62l-14 -102h-62zM579 523l28 206h68l-31 -224l-276 -280h-1l-31 -225h-65l32 226l-198 279l31 224h62l-28 -206l166 -240h9z" />
    <glyph glyph-name="Ygrave.ss04" horiz-adv-x="679" 
d="M301 961l145 -114l-27 -33l-152 105zM579 523l28 206h68l-31 -224l-276 -280h-1l-31 -225h-65l32 226l-198 279l31 224h62l-28 -206l166 -240h9z" />
    <glyph glyph-name="i.loclTRK" horiz-adv-x="254" 
d="M210 627h-62l14 102h62zM122 0h-62l73 517h62z" />
    <glyph glyph-name="uni006A0301" horiz-adv-x="266" 
d="M347 749l22 -42l-182 -105l-17 33zM56 -114l17 116l72 515h62l-72 -515l-16 -110q-9 -59 -68 -59h-119l7 53h117z" />
    <glyph glyph-name="s.001" horiz-adv-x="500" 
d="M40 155h60q-9 -54 24 -83t103 -29t112.5 30.5t42.5 80.5q0 54 -68 68l-104 20q-129 24 -129 117q0 75 58 121q59 47 153 47q87 0 132 -42t36 -114h-60q5 51 -24.5 77.5t-92.5 26.5q-64 0 -100.5 -28t-36.5 -76q0 -38 32 -55q26 -11 54 -16l106 -20q112 -22 112 -114
q0 -79 -64 -128q-63 -48 -165 -48q-96 0 -144 43.5t-37 121.5z" />
    <glyph glyph-name="germandbls.alt01" horiz-adv-x="664" 
d="M598 586l-155 -168q159 -14 159 -163q0 -120 -75 -187q-74 -68 -204 -68h-120l8 57h136q71 0 119 33.5t55 85.5l12 85q7 50 -33.5 81t-113.5 31h-56l199 222q-4 38 -42.5 61t-97.5 23q-76 0 -122 -39.5t-56 -110.5l-74 -529h-63l75 533q14 97 81 151t170 54
q90 0 142 -40.5t56 -111.5z" />
    <glyph glyph-name="a.ss01" 
d="M502 517h60l-73 -517h-63l15 101h-6q-29 -50 -84 -80.5t-116 -30.5q-94 0 -141.5 53t-47.5 151q0 153 73 242q73 91 198 91q58 0 102.5 -27t60.5 -73h6zM458 223l10 76q10 73 -36 123q-45 51 -122 51q-75 0 -125.5 -42.5t-60.5 -111.5l-16 -116q-10 -72 28.5 -115
t113.5 -43q79 0 138 50t70 128z" />
    <glyph glyph-name="aacute.ss01" 
d="M513 723l-182 -105l-17 33l177 114zM502 517h60l-73 -517h-63l15 101h-6q-29 -50 -84 -80.5t-116 -30.5q-94 0 -141.5 53t-47.5 151q0 153 73 242q73 91 198 91q58 0 102.5 -27t60.5 -73h6zM458 223l10 76q10 73 -36 123q-45 51 -122 51q-75 0 -125.5 -42.5t-60.5 -111.5
l-16 -116q-10 -72 28.5 -115t113.5 -43q79 0 138 50t70 128z" />
    <glyph glyph-name="abreve.ss01" 
d="M439 754h48q-8 -60 -51.5 -97.5t-104.5 -37.5t-93 37t-24 98h47q-6 -42 15.5 -67.5t60.5 -25.5q40 0 68 25.5t34 67.5zM502 517h60l-73 -517h-63l15 101h-6q-29 -50 -84 -80.5t-116 -30.5q-94 0 -141.5 53t-47.5 151q0 153 73 242q73 91 198 91q58 0 102.5 -27t60.5 -73
h6zM458 223l10 76q10 73 -36 123q-45 51 -122 51q-75 0 -125.5 -42.5t-60.5 -111.5l-16 -116q-10 -72 28.5 -115t113.5 -43q79 0 138 50t70 128z" />
    <glyph glyph-name="acircumflex.ss01" 
d="M228 605l-28 30l128 119h48l93 -118l-38 -31l-86 106zM502 517h60l-73 -517h-63l15 101h-6q-29 -50 -84 -80.5t-116 -30.5q-94 0 -141.5 53t-47.5 151q0 153 73 242q73 91 198 91q58 0 102.5 -27t60.5 -73h6zM458 223l10 76q10 73 -36 123q-45 51 -122 51
q-75 0 -125.5 -42.5t-60.5 -111.5l-16 -116q-10 -72 28.5 -115t113.5 -43q79 0 138 50t70 128z" />
    <glyph glyph-name="adieresis.ss01" 
d="M298 608h-62l14 102h62zM482 608h-62l14 102h62zM502 517h60l-73 -517h-63l15 101h-6q-29 -50 -84 -80.5t-116 -30.5q-94 0 -141.5 53t-47.5 151q0 153 73 242q73 91 198 91q58 0 102.5 -27t60.5 -73h6zM458 223l10 76q10 73 -36 123q-45 51 -122 51q-75 0 -125.5 -42.5
t-60.5 -111.5l-16 -116q-10 -72 28.5 -115t113.5 -43q79 0 138 50t70 128z" />
    <glyph glyph-name="agrave.ss01" 
d="M360 651l-27 -33l-152 105l34 42zM502 517h60l-73 -517h-63l15 101h-6q-29 -50 -84 -80.5t-116 -30.5q-94 0 -141.5 53t-47.5 151q0 153 73 242q73 91 198 91q58 0 102.5 -27t60.5 -73h6zM458 223l10 76q10 73 -36 123q-45 51 -122 51q-75 0 -125.5 -42.5t-60.5 -111.5
l-16 -116q-10 -72 28.5 -115t113.5 -43q79 0 138 50t70 128z" />
    <glyph glyph-name="amacron.ss01" 
d="M479 628h-292l6 45h292zM502 517h60l-73 -517h-63l15 101h-6q-29 -50 -84 -80.5t-116 -30.5q-94 0 -141.5 53t-47.5 151q0 153 73 242q73 91 198 91q58 0 102.5 -27t60.5 -73h6zM458 223l10 76q10 73 -36 123q-45 51 -122 51q-75 0 -125.5 -42.5t-60.5 -111.5l-16 -116
q-10 -72 28.5 -115t113.5 -43q79 0 138 50t70 128z" />
    <glyph glyph-name="aogonek.ss01" 
d="M403 -96q0 -41 49 -41q28 0 52 12l-5 -39q-29 -13 -65 -11t-56 20t-20 48q0 64 68 108l15 100h-6q-29 -50 -84 -80.5t-116 -30.5q-94 0 -141.5 53t-47.5 151q0 153 73 242q73 91 198 91q58 0 102.5 -27t60.5 -73h6l16 90h60l-73 -515l1 -2q-41 -14 -64 -39.5t-23 -56.5z
M250 45q79 0 138 50t70 128l10 76q10 73 -36 123q-45 51 -122 51q-75 0 -125.5 -42.5t-60.5 -111.5l-16 -116q-10 -72 28.5 -115t113.5 -43z" />
    <glyph glyph-name="aring.ss01" 
d="M486 427l16 90h60l-73 -517h-63l15 101h-6q-29 -50 -84 -80.5t-116 -30.5q-94 0 -141.5 53t-47.5 151q0 138 61 226q62 89 168 104q-48 21 -48 77q0 52 34 86.5t86 34.5q41 0 66 -23t25 -62q0 -40 -21.5 -71t-57.5 -43q43 -8 75.5 -34t45.5 -62h6zM342 684
q-29 0 -50 -22.5t-21 -53.5q0 -24 14.5 -39t38.5 -15q29 0 49 22.5t20 54.5q0 24 -13.5 38.5t-37.5 14.5zM458 223l10 76q10 73 -36 123q-45 51 -122 51q-75 0 -125.5 -42.5t-60.5 -111.5l-16 -116q-10 -72 28.5 -115t113.5 -43q79 0 138 50t70 128z" />
    <glyph glyph-name="atilde.ss01" 
d="M391 614q-30 0 -68 16q-39 17 -56 17q-31 0 -53 -33l-27 22q42 59 90 59q22 0 65 -17t60 -17q33 0 57 33l27 -24q-38 -56 -95 -56zM502 517h60l-73 -517h-63l15 101h-6q-29 -50 -84 -80.5t-116 -30.5q-94 0 -141.5 53t-47.5 151q0 153 73 242q73 91 198 91
q58 0 102.5 -27t60.5 -73h6zM458 223l10 76q10 73 -36 123q-45 51 -122 51q-75 0 -125.5 -42.5t-60.5 -111.5l-16 -116q-10 -72 28.5 -115t113.5 -43q79 0 138 50t70 128z" />
    <glyph glyph-name="g.ss01" 
d="M51 210q0 145 73 230q74 87 196 87q58 0 102.5 -27t60.5 -73h6l16 90h60l-68 -485q-14 -99 -82.5 -154t-176.5 -55q-91 0 -142.5 40t-48.5 106h60q-3 -45 34.5 -70.5t104.5 -25.5q80 0 128.5 41.5t58.5 114.5l13 92h-6q-28 -50 -83 -80.5t-116 -30.5q-94 0 -142 52.5
t-48 147.5zM129 329l-17 -116q-9 -66 30 -107t113 -41q80 0 138 49q59 50 69 119l11 76q10 65 -37 115q-46 49 -123 49q-74 0 -124.5 -40t-59.5 -104z" />
    <glyph glyph-name="gbreve.ss01" 
d="M452 739h48q-8 -60 -51.5 -97.5t-104.5 -37.5t-93 37t-24 98h47q-6 -42 15.5 -67.5t60.5 -25.5q40 0 68 25.5t34 67.5zM51 210q0 145 73 230q74 87 196 87q58 0 102.5 -27t60.5 -73h6l16 90h60l-68 -485q-14 -99 -82.5 -154t-176.5 -55q-91 0 -142.5 40t-48.5 106h60
q-3 -45 34.5 -70.5t104.5 -25.5q80 0 128.5 41.5t58.5 114.5l13 92h-6q-28 -50 -83 -80.5t-116 -30.5q-94 0 -142 52.5t-48 147.5zM129 329l-17 -116q-9 -66 30 -107t113 -41q80 0 138 49q59 50 69 119l11 76q10 65 -37 115q-46 49 -123 49q-74 0 -124.5 -40t-59.5 -104z
" />
    <glyph glyph-name="uni0123.ss01" 
d="M366 762v-22q-16 0 -26.5 -12t-10.5 -32v-3h37v-76h-67v64q0 37 18 59t49 22zM51 210q0 145 73 230q74 87 196 87q58 0 102.5 -27t60.5 -73h6l16 90h60l-68 -485q-14 -99 -82.5 -154t-176.5 -55q-91 0 -142.5 40t-48.5 106h60q-3 -45 34.5 -70.5t104.5 -25.5
q80 0 128.5 41.5t58.5 114.5l13 92h-6q-28 -50 -83 -80.5t-116 -30.5q-94 0 -142 52.5t-48 147.5zM129 329l-17 -116q-9 -66 30 -107t113 -41q80 0 138 49q59 50 69 119l11 76q10 65 -37 115q-46 49 -123 49q-74 0 -124.5 -40t-59.5 -104z" />
    <glyph glyph-name="gdotaccent.ss01" 
d="M378 618h-62l14 102h62zM51 210q0 145 73 230q74 87 196 87q58 0 102.5 -27t60.5 -73h6l16 90h60l-68 -485q-14 -99 -82.5 -154t-176.5 -55q-91 0 -142.5 40t-48.5 106h60q-3 -45 34.5 -70.5t104.5 -25.5q80 0 128.5 41.5t58.5 114.5l13 92h-6q-28 -50 -83 -80.5
t-116 -30.5q-94 0 -142 52.5t-48 147.5zM129 329l-17 -116q-9 -66 30 -107t113 -41q80 0 138 49q59 50 69 119l11 76q10 65 -37 115q-46 49 -123 49q-74 0 -124.5 -40t-59.5 -104z" />
    <glyph glyph-name="a.ss02" horiz-adv-x="555" 
d="M38 119q0 86 57.5 137t154.5 51h163l6 43q18 125 -117 125q-129 0 -153 -102h-60q17 74 76.5 114t147.5 40q95 0 137 -46.5t30 -131.5l-49 -349h-58l8 88h-6q-25 -45 -75.5 -71.5t-115.5 -26.5q-69 0 -107.5 34.5t-38.5 94.5zM108 167l-4 -30q-6 -45 19 -69t76 -24
q81 0 136 49q56 50 67 130l4 31h-163q-57 0 -93.5 -23.5t-41.5 -63.5z" />
    <glyph glyph-name="aacute.ss02" horiz-adv-x="555" 
d="M506 717l-182 -105l-17 33l177 114zM38 119q0 86 57.5 137t154.5 51h163l6 43q18 125 -117 125q-129 0 -153 -102h-60q17 74 76.5 114t147.5 40q95 0 137 -46.5t30 -131.5l-49 -349h-58l8 88h-6q-25 -45 -75.5 -71.5t-115.5 -26.5q-69 0 -107.5 34.5t-38.5 94.5zM108 167
l-4 -30q-6 -45 19 -69t76 -24q81 0 136 49q56 50 67 130l4 31h-163q-57 0 -93.5 -23.5t-41.5 -63.5z" />
    <glyph glyph-name="abreve.ss02" horiz-adv-x="555" 
d="M432 748h48q-8 -60 -51.5 -97.5t-104.5 -37.5t-93 37t-24 98h47q-6 -42 15.5 -67.5t60.5 -25.5q40 0 68 25.5t34 67.5zM38 119q0 86 57.5 137t154.5 51h163l6 43q18 125 -117 125q-129 0 -153 -102h-60q17 74 76.5 114t147.5 40q95 0 137 -46.5t30 -131.5l-49 -349h-58
l8 88h-6q-25 -45 -75.5 -71.5t-115.5 -26.5q-69 0 -107.5 34.5t-38.5 94.5zM108 167l-4 -30q-6 -45 19 -69t76 -24q81 0 136 49q56 50 67 130l4 31h-163q-57 0 -93.5 -23.5t-41.5 -63.5z" />
    <glyph glyph-name="acircumflex.ss02" horiz-adv-x="555" 
d="M221 599l-28 30l128 119h48l93 -118l-38 -31l-86 106zM38 119q0 86 57.5 137t154.5 51h163l6 43q18 125 -117 125q-129 0 -153 -102h-60q17 74 76.5 114t147.5 40q95 0 137 -46.5t30 -131.5l-49 -349h-58l8 88h-6q-25 -45 -75.5 -71.5t-115.5 -26.5q-69 0 -107.5 34.5
t-38.5 94.5zM108 167l-4 -30q-6 -45 19 -69t76 -24q81 0 136 49q56 50 67 130l4 31h-163q-57 0 -93.5 -23.5t-41.5 -63.5z" />
    <glyph glyph-name="adieresis.ss02" horiz-adv-x="555" 
d="M266 627h-62l14 102h62zM450 627h-62l14 102h62zM38 119q0 86 57.5 137t154.5 51h163l6 43q18 125 -117 125q-129 0 -153 -102h-60q17 74 76.5 114t147.5 40q95 0 137 -46.5t30 -131.5l-49 -349h-58l8 88h-6q-25 -45 -75.5 -71.5t-115.5 -26.5q-69 0 -107.5 34.5
t-38.5 94.5zM108 167l-4 -30q-6 -45 19 -69t76 -24q81 0 136 49q56 50 67 130l4 31h-163q-57 0 -93.5 -23.5t-41.5 -63.5z" />
    <glyph glyph-name="agrave.ss02" horiz-adv-x="555" 
d="M353 645l-27 -33l-152 105l34 42zM38 119q0 86 57.5 137t154.5 51h163l6 43q18 125 -117 125q-129 0 -153 -102h-60q17 74 76.5 114t147.5 40q95 0 137 -46.5t30 -131.5l-49 -349h-58l8 88h-6q-25 -45 -75.5 -71.5t-115.5 -26.5q-69 0 -107.5 34.5t-38.5 94.5zM108 167
l-4 -30q-6 -45 19 -69t76 -24q81 0 136 49q56 50 67 130l4 31h-163q-57 0 -93.5 -23.5t-41.5 -63.5z" />
    <glyph glyph-name="amacron.ss02" horiz-adv-x="555" 
d="M472 622h-292l6 45h292zM38 119q0 86 57.5 137t154.5 51h163l6 43q18 125 -117 125q-129 0 -153 -102h-60q17 74 76.5 114t147.5 40q95 0 137 -46.5t30 -131.5l-49 -349h-58l8 88h-6q-25 -45 -75.5 -71.5t-115.5 -26.5q-69 0 -107.5 34.5t-38.5 94.5zM108 167l-4 -30
q-6 -45 19 -69t76 -24q81 0 136 49q56 50 67 130l4 31h-163q-57 0 -93.5 -23.5t-41.5 -63.5z" />
    <glyph glyph-name="aogonek.ss02" horiz-adv-x="555" 
d="M480 349l-49 -349q-41 -14 -64 -39.5t-23 -56.5q0 -41 49 -41q28 0 52 12l-5 -39q-29 -13 -65 -11t-56 20t-20 48q0 69 74 112l8 83h-6q-25 -45 -75.5 -71.5t-115.5 -26.5q-69 0 -107.5 34.5t-38.5 94.5q0 86 57.5 137t154.5 51h163l6 43q18 125 -117 125
q-129 0 -153 -102h-60q17 74 76.5 114t147.5 40q95 0 137 -46.5t30 -131.5zM199 44q81 0 136 49q56 50 67 130l4 31h-163q-57 0 -93.5 -23.5t-41.5 -63.5l-4 -30q-6 -45 19 -69t76 -24z" />
    <glyph glyph-name="aring.ss02" horiz-adv-x="555" 
d="M366 523q135 -24 114 -174l-49 -349h-58l8 88h-6q-25 -45 -75.5 -71.5t-115.5 -26.5q-69 0 -107.5 34.5t-38.5 94.5q0 86 57.5 137t154.5 51h163l6 43q18 125 -117 125q-129 0 -153 -102h-60q14 62 58.5 100.5t111.5 49.5q-39 23 -39 72q0 52 34 86.5t86 34.5
q41 0 66 -23t25 -62q0 -76 -65 -108zM335 678q-29 0 -50 -22.5t-21 -53.5q0 -24 14.5 -39t38.5 -15q29 0 49 22.5t20 54.5q0 24 -13.5 38.5t-37.5 14.5zM402 223l4 31h-163q-57 0 -93.5 -23.5t-41.5 -63.5l-4 -30q-6 -45 19 -69t76 -24q81 0 136 49q56 50 67 130z" />
    <glyph glyph-name="atilde.ss02" horiz-adv-x="555" 
d="M384 608q-30 0 -68 16q-39 17 -56 17q-30 0 -53 -33l-27 22q42 59 90 59q22 0 65 -17t60 -17q33 0 57 33l27 -24q-38 -56 -95 -56zM38 119q0 86 57.5 137t154.5 51h163l6 43q18 125 -117 125q-129 0 -153 -102h-60q17 74 76.5 114t147.5 40q95 0 137 -46.5t30 -131.5
l-49 -349h-58l8 88h-6q-25 -45 -75.5 -71.5t-115.5 -26.5q-69 0 -107.5 34.5t-38.5 94.5zM108 167l-4 -30q-6 -45 19 -69t76 -24q81 0 136 49q56 50 67 130l4 31h-163q-57 0 -93.5 -23.5t-41.5 -63.5z" />
    <glyph glyph-name="o.ss03" horiz-adv-x="588" 
d="M46 203q0 141 80 233q81 91 206 91q97 0 153.5 -56.5t56.5 -157.5q0 -141 -80 -233q-80 -90 -206 -90q-100 0 -155 56.5t-55 156.5zM120 296l-11 -80q-11 -79 33 -125.5t122 -46.5q75 0 133 46q60 47 70 126l11 80q11 77 -32 126q-44 50 -122 50t-136 -49
q-57 -49 -68 -127zM326 221h-77l10 76h77z" />
    <glyph glyph-name="oacute.ss03" horiz-adv-x="588" 
d="M485 706l-182 -105l-17 33l177 114zM46 203q0 141 80 233q81 91 206 91q97 0 153.5 -56.5t56.5 -157.5q0 -141 -80 -233q-80 -90 -206 -90q-100 0 -155 56.5t-55 156.5zM120 296l-11 -80q-11 -79 33 -125.5t122 -46.5q75 0 133 46q60 47 70 126l11 80q11 77 -32 126
q-44 50 -122 50t-136 -49q-57 -49 -68 -127zM326 221h-77l10 76h77z" />
    <glyph glyph-name="ocircumflex.ss03" horiz-adv-x="588" 
d="M200 588l-28 30l128 119h48l93 -118l-38 -31l-86 106zM46 203q0 141 80 233q81 91 206 91q97 0 153.5 -56.5t56.5 -157.5q0 -141 -80 -233q-80 -90 -206 -90q-100 0 -155 56.5t-55 156.5zM120 296l-11 -80q-11 -79 33 -125.5t122 -46.5q75 0 133 46q60 47 70 126l11 80
q11 77 -32 126q-44 50 -122 50t-136 -49q-57 -49 -68 -127zM326 221h-77l10 76h77z" />
    <glyph glyph-name="odieresis.ss03" horiz-adv-x="588" 
d="M245 616h-62l14 102h62zM429 616h-62l14 102h62zM46 203q0 141 80 233q81 91 206 91q97 0 153.5 -56.5t56.5 -157.5q0 -141 -80 -233q-80 -90 -206 -90q-100 0 -155 56.5t-55 156.5zM120 296l-11 -80q-11 -79 33 -125.5t122 -46.5q75 0 133 46q60 47 70 126l11 80
q11 77 -32 126q-44 50 -122 50t-136 -49q-57 -49 -68 -127zM326 221h-77l10 76h77z" />
    <glyph glyph-name="ograve.ss03" horiz-adv-x="588" 
d="M332 634l-27 -33l-152 105l34 42zM46 203q0 141 80 233q81 91 206 91q97 0 153.5 -56.5t56.5 -157.5q0 -141 -80 -233q-80 -90 -206 -90q-100 0 -155 56.5t-55 156.5zM120 296l-11 -80q-11 -79 33 -125.5t122 -46.5q75 0 133 46q60 47 70 126l11 80q11 77 -32 126
q-44 50 -122 50t-136 -49q-57 -49 -68 -127zM326 221h-77l10 76h77z" />
    <glyph glyph-name="ohungarumlaut.ss03" horiz-adv-x="588" 
d="M390 681l-173 -119l-21 31l168 128zM561 667l-181 -105l-18 33l177 114zM46 203q0 141 80 233q81 91 206 91q97 0 153.5 -56.5t56.5 -157.5q0 -141 -80 -233q-80 -90 -206 -90q-100 0 -155 56.5t-55 156.5zM120 296l-11 -80q-11 -79 33 -125.5t122 -46.5q75 0 133 46
q60 47 70 126l11 80q11 77 -32 126q-44 50 -122 50t-136 -49q-57 -49 -68 -127zM326 221h-77l10 76h77z" />
    <glyph glyph-name="omacron.ss03" horiz-adv-x="588" 
d="M451 611h-292l6 45h292zM46 203q0 141 80 233q81 91 206 91q97 0 153.5 -56.5t56.5 -157.5q0 -141 -80 -233q-80 -90 -206 -90q-100 0 -155 56.5t-55 156.5zM120 296l-11 -80q-11 -79 33 -125.5t122 -46.5q75 0 133 46q60 47 70 126l11 80q11 77 -32 126q-44 50 -122 50
t-136 -49q-57 -49 -68 -127zM326 221h-77l10 76h77z" />
    <glyph glyph-name="otilde.ss03" horiz-adv-x="588" 
d="M363 597q-30 0 -68 16q-39 17 -56 17q-31 0 -53 -33l-27 22q42 59 90 59q22 0 65 -17t60 -17q33 0 57 33l27 -24q-38 -56 -95 -56zM46 203q0 141 80 233q81 91 206 91q97 0 153.5 -56.5t56.5 -157.5q0 -141 -80 -233q-80 -90 -206 -90q-100 0 -155 56.5t-55 156.5z
M120 296l-11 -80q-11 -79 33 -125.5t122 -46.5q75 0 133 46q60 47 70 126l11 80q11 77 -32 126q-44 50 -122 50t-136 -49q-57 -49 -68 -127zM326 221h-77l10 76h77z" />
    <glyph glyph-name="h_t_t_p" horiz-adv-x="2104" 
d="M223 750h1796l-129 -917h-631l82 585h-221l-51 -361h125l-8 -57h-129q-60 0 -51 60l50 358h-225l-51 -361h125l-8 -57h-129q-60 0 -51 60l50 358h-106l8 53h106l19 140h64l-19 -140h225l19 140h64l-19 -140h281l-10 -91h6q25 45 78.5 73t116.5 28q89 0 141.5 -54
t52.5 -144q0 -122 -78 -208q-76 -85 -188 -85q-62 0 -106 28.5t-57 77.5h-6l-29 -208h511l113 806h-1682l-45 -318h7q31 49 82 77t108 28q82 0 122.5 -54.5t27.5 -149.5l-39 -277h-62l39 272q11 73 -19 112t-92 39q-73 0 -128 -55q-55 -54 -67 -142l-47 -338h1012l-8 -55
h-1069zM1384 275l-11 -78q-7 -61 36 -105q44 -43 119 -43q86 0 143 64q58 64 58 162q0 68 -39.5 108t-106.5 40q-74 0 -132 -46q-60 -46 -67 -102z" />
    <glyph glyph-name="w_w_w" horiz-adv-x="1999" 
d="M217 0h-92l-78 517h74l40 -297l17 -157h6l177 454h79l56 -451h5l180 451h74l57 -454h6l177 454h79l56 -451h5l180 451h74l57 -454h6l177 454h79l56 -451h5l60 151l120 300h71l-221 -517h-87l-50 452h-6l-171 -452h-92l-54 432l-174 -432h-87l-50 452h-6l-171 -452h-92
l-54 432l-174 -432h-87l-50 452h-6z" />
    <glyph glyph-name="zero.ss01" horiz-adv-x="623" 
d="M79 234q0 228 81 362q83 134 221 134q197 0 197 -243q0 -229 -81 -363t-220 -134q-198 0 -198 244zM176 467l-30 -214q-14 -98 23.5 -151.5t114.5 -53.5t130 53t67 152l30 214q14 97 -24 151t-115 54t-129.5 -53t-66.5 -152zM359 325h-81l10 74h81z" />
    <glyph glyph-name="zero.tf" horiz-adv-x="603" 
d="M373 730q197 0 197 -243q0 -229 -81 -363t-220 -134q-198 0 -198 244q0 228 81 362q83 134 221 134zM364 672q-77 0 -129.5 -53t-66.5 -152l-23 -161l350 205l10 -22q7 88 -30.5 135.5t-110.5 47.5zM276 48q77 0 130 53t67 152l27 192l-364 -212q-8 -89 29.5 -137
t110.5 -48z" />
    <glyph glyph-name="one.tf" horiz-adv-x="585" 
d="M351 721l-93 -663h233v-58h-472v58h177l69 491h-179l7 50h27q70 0 118 33.5t55 88.5h58z" />
    <glyph glyph-name="two.tf" horiz-adv-x="608" 
d="M404 301l-263 -247l120 4h234l-8 -58h-436l7 49l297 279q119 113 128 177l5 38q8 58 -27.5 93t-102.5 35q-68 0 -117 -39q-48 -38 -56 -100l-3 -23h-63l2 18q11 91 81 147q73 56 170 56q85 0 134.5 -45t49.5 -122q0 -85 -51 -153q-25 -33 -45 -55z" />
    <glyph glyph-name="three.tf" horiz-adv-x="607" 
d="M274 -10q-105 0 -156 62.5t-32 165.5h69q-15 -83 19 -126.5t106 -43.5t121 35t57 92l6 42q9 62 -31.5 94.5t-120.5 32.5h-40l8 59h42q74 0 120.5 32.5t53.5 86.5l5 39q7 55 -32 82q-38 28 -97 28q-71 0 -116.5 -43.5t-56.5 -123.5h-67q12 103 82 164q71 62 170 62
q83 0 134 -43.5t51 -115.5q0 -64 -36 -114.5t-102 -78.5v-6q101 -37 101 -146q0 -101 -74 -169q-73 -67 -184 -67z" />
    <glyph glyph-name="four.tf" horiz-adv-x="605" 
d="M521 721l-71 -503h92l-8 -56h-92l-23 -162h-63l23 162h-362l9 61l391 498h104zM93 218h294l65 462z" />
    <glyph glyph-name="five.tf" horiz-adv-x="608" 
d="M85 218h65q-13 -74 25 -123q38 -47 111 -47q68 0 122 36q55 38 62 96l14 100q9 60 -35 98t-112 38q-50 0 -95 -22q-47 -23 -66 -56h-59l68 383h400l-8 -57h-344l-48 -252l3 -1q27 27 73.5 44.5t91.5 17.5q90 0 143 -52.5t53 -142.5q0 -124 -77 -207q-76 -81 -197 -81
q-98 0 -152 63t-38 165z" />
    <glyph glyph-name="six.tf" horiz-adv-x="607" 
d="M86 236q0 226 83 360q84 134 225 134q91 0 141 -48t46 -131h-67q1 59 -34 90t-94 31q-192 0 -222 -323h4q65 113 195 113q87 0 136.5 -49.5t49.5 -136.5q0 -128 -73 -207t-188 -79q-202 0 -202 246zM173 271l-12 -84q-9 -64 32 -102q40 -37 103 -37t113 37q51 37 60 102
l12 84q9 63 -33 98q-40 36 -102 36t-113 -36t-60 -98z" />
    <glyph glyph-name="seven.tf" horiz-adv-x="607" 
d="M166 527h-57l27 194h457l-6 -44q-122 -146 -227 -329q-104 -183 -159 -348h-69q49 153 151 335q104 182 223 329h-321z" />
    <glyph glyph-name="eight.tf" horiz-adv-x="612" 
d="M259 -10q-98 0 -151.5 44t-53.5 121q0 69 35.5 122.5t97.5 78.5l1 8q-86 38 -86 134q0 102 73 166q74 65 187 65q97 0 151 -45.5t54 -122.5q0 -68 -35.5 -120t-97.5 -77l-1 -8q86 -41 86 -138q0 -102 -73 -165q-72 -63 -187 -63zM314 386q74 0 123.5 31.5t56.5 86.5l6 47
q7 59 -31 89.5t-115 30.5q-76 0 -123 -31t-56 -89l-7 -47q-8 -54 32 -86t114 -32zM448 176l6 47q7 51 -32.5 80.5t-114.5 29.5q-76 0 -124 -29.5t-55 -80.5l-6 -47q-8 -62 31.5 -95t113.5 -33t123.5 33.5t57.5 94.5z" />
    <glyph glyph-name="nine.tf" horiz-adv-x="607" 
d="M557 484q0 -225 -84 -360q-83 -134 -224 -134q-91 0 -141.5 48t-45.5 131h67q-1 -60 33.5 -90.5t94.5 -30.5q191 0 221 323h-4q-65 -113 -194 -113q-88 0 -137 48.5t-49 137.5q0 126 72 206q74 80 189 80q202 0 202 -246zM469 449l12 84q9 63 -32 101t-102 38
q-62 0 -114 -38q-51 -38 -60 -101l-12 -84q-9 -63 32 -99q43 -35 104 -35q60 0 112 35q51 36 60 99z" />
    <glyph glyph-name="zero.tf.ss01" horiz-adv-x="603" 
d="M373 730q197 0 197 -243q0 -229 -81 -363t-220 -134q-198 0 -198 244q0 228 81 362q83 134 221 134zM364 672q-77 0 -129.5 -53t-66.5 -152l-11 -79h335l11 79q14 97 -24 151t-115 54zM276 48q77 0 130 53t67 152l12 83h-335l-12 -83q-14 -98 23.5 -151.5t114.5 -53.5z
" />
    <glyph glyph-name="zero.dnom" horiz-adv-x="420" 
d="M174 -4q-66 0 -101.5 45.5t-35.5 131.5q0 136 58 224q59 89 148 89q65 0 100.5 -45.5t35.5 -131.5q0 -136 -58 -224q-59 -89 -147 -89zM181 55q57 0 93 72q37 71 37 183q0 117 -77 117q-56 0 -94 -71q-36 -70 -36 -183q0 -118 77 -118z" />
    <glyph glyph-name="one.dnom" horiz-adv-x="310" 
d="M168 345h-123l7 53h45q42 0 66 22t24 56v4h64l-67 -480h-64z" />
    <glyph glyph-name="two.dnom" horiz-adv-x="378" 
d="M93 57l81 4h137l-9 -61h-289l2 16q7 53 37 95t68.5 68.5t76 51.5t63 58t25.5 73q0 31 -19 49t-53 18q-39 0 -66.5 -26.5t-32.5 -66.5l-63 5q10 64 58 104q49 41 116 41q59 0 93.5 -31.5t34.5 -83.5q0 -48 -23 -87.5t-57.5 -66t-70.5 -50t-67.5 -51.5t-41.5 -59z" />
    <glyph glyph-name="three.dnom" horiz-adv-x="386" 
d="M165 -7q-69 0 -105.5 42t-24.5 109h66q-8 -43 13 -68t59 -25q42 0 71 28t29 68q0 33 -22.5 51.5t-61.5 18.5h-33l9 61h30q44 0 72 25t28 65q0 29 -18.5 45t-49.5 16q-39 0 -65.5 -25.5t-31.5 -67.5h-66q7 66 53.5 108t115.5 42q59 0 95 -29.5t36 -79.5q0 -42 -23 -75
t-62 -50l-1 -5q63 -23 63 -94q0 -67 -51 -114q-50 -46 -125 -46z" />
    <glyph glyph-name="four.dnom" horiz-adv-x="399" 
d="M335 480l-46 -325h56l-8 -59h-56l-13 -96h-65l13 96h-217l8 56l221 328h107zM262 426l-184 -271h146z" />
    <glyph glyph-name="five.dnom" horiz-adv-x="395" 
d="M36 146h66q-6 -40 14.5 -66.5t59.5 -26.5q46 0 77 35t31 87q0 39 -21.5 62t-57.5 23q-28 0 -52.5 -13t-35.5 -34h-62l38 267h280l-8 -60h-216l-12 -82l-9 -52l1 -1q15 14 42.5 24t52.5 10q58 0 93.5 -36.5t35.5 -96.5q0 -82 -54 -137q-54 -56 -132 -56q-67 0 -104 42
q-37 43 -27 111z" />
    <glyph glyph-name="six.dnom" horiz-adv-x="406" 
d="M35 164q0 141 60 231q60 91 153 91q59 0 93 -33.5t32 -90.5h-65q0 31 -19 48t-52 17q-104 0 -129 -178h3q18 29 51.5 47t68.5 18q57 0 90.5 -36t33.5 -94q0 -79 -53 -135q-52 -55 -132 -55q-67 0 -101 44t-34 126zM104 137q0 -37 20.5 -60.5t56.5 -23.5q45 0 76 36t31 88
q0 37 -21 58.5t-57 21.5q-43 0 -75 -35q-31 -34 -31 -85z" />
    <glyph glyph-name="seven.dnom" horiz-adv-x="368" 
d="M68 480h303l-6 -47q-98 -108 -157 -210q-59 -101 -96 -223h-64q72 240 237 420h-176l-10 -74h-49z" />
    <glyph glyph-name="eight.dnom" horiz-adv-x="396" 
d="M19 106q0 41 24 77.5t63 53.5l1 5q-56 29 -56 94q0 64 51 107q50 43 128 43q65 0 103 -30.5t38 -81.5q0 -41 -24 -78t-62 -54l-1 -5q55 -30 55 -93q0 -64 -51 -108q-49 -43 -127 -43q-64 0 -103 31t-39 82zM118 335q0 -32 22 -50t59 -18q45 0 74 27t29 68q0 31 -22 49
t-58 18q-46 0 -75 -26.5t-29 -67.5zM87 118q0 -32 22.5 -49.5t59.5 -17.5q44 0 73 26.5t29 67.5q0 31 -21.5 49t-57.5 18q-46 0 -75.5 -26.5t-29.5 -67.5z" />
    <glyph glyph-name="nine.dnom" horiz-adv-x="406" 
d="M369 316q0 -140 -60 -232q-60 -90 -152 -90q-60 0 -95 33.5t-32 90.5h65q0 -32 19 -48.5t53 -16.5q103 0 129 179h-4q-18 -32 -51 -50t-70 -18q-56 0 -89 36.5t-33 96.5q0 79 53 134q52 55 131 55q68 0 102 -44t34 -126zM300 342q0 37 -21 61t-57 24q-44 0 -75 -36
q-31 -35 -31 -88q0 -37 21 -58t57 -21q44 0 75 34t31 84z" />
    <glyph glyph-name="zero.numr" horiz-adv-x="420" 
d="M210 251q-66 0 -101.5 45.5t-35.5 129.5q0 135 58 221q58 88 147 88q64 0 100.5 -45.5t36.5 -129.5q0 -134 -58 -222q-59 -87 -147 -87zM217 309q57 0 93 71q37 70 37 180q0 116 -77 116q-58 0 -94 -70t-36 -180q0 -117 77 -117z" />
    <glyph glyph-name="one.numr" horiz-adv-x="310" 
d="M203 596h-123l7 52h45q43 0 66.5 21.5t23.5 55.5v4h64l-67 -473h-64z" />
    <glyph glyph-name="two.numr" horiz-adv-x="378" 
d="M129 311l80 4h137l-8 -60h-289l2 17q11 96 104 160q8 6 44.5 30t48.5 34t34 31t30 41.5t8 44.5q0 30 -19 47.5t-53 17.5q-39 0 -66 -26t-32 -66l-64 5q10 64 58 104q47 40 116 40q59 0 93.5 -31t34.5 -82q0 -48 -22.5 -87t-57.5 -66t-70.5 -50t-67 -51t-41.5 -57z" />
    <glyph glyph-name="three.numr" horiz-adv-x="386" 
d="M200 248q-69 0 -105 41.5t-25 107.5h66q-8 -43 13 -67.5t59 -24.5q42 0 71 27.5t29 67.5q0 32 -23 50.5t-61 18.5h-33l9 60h30q44 0 71.5 25t27.5 65q0 28 -19 43.5t-49 15.5q-39 0 -65.5 -25t-30.5 -67h-66q6 64 52 106q46 43 117 43q59 0 95 -29t36 -79q0 -86 -85 -123
l-1 -5q63 -25 63 -92t-51 -113q-50 -46 -125 -46z" />
    <glyph glyph-name="four.numr" horiz-adv-x="399" 
d="M370 729l-45 -321h56l-8 -58h-56l-13 -94h-65l13 94h-217l8 55l220 324h107zM298 676l-184 -268h146z" />
    <glyph glyph-name="five.numr" horiz-adv-x="395" 
d="M72 399h66q-6 -40 14.5 -66t59.5 -26q46 0 77 34.5t31 86.5q0 39 -21.5 62t-57.5 23q-27 0 -52 -13.5t-36 -34.5h-62l37 264h280l-8 -60h-216l-11 -81l-10 -51l1 -1q34 33 96 33q58 0 93.5 -36.5t35.5 -94.5q0 -80 -54 -135t-131 -55q-67 0 -104.5 42.5t-27.5 108.5z" />
    <glyph glyph-name="six.numr" horiz-adv-x="406" 
d="M71 418q0 138 59 227q60 90 153 90q60 0 94 -33t32 -89h-65q0 30 -19 46.5t-52 16.5q-104 0 -129 -175h3q18 29 51 47t68 18q57 0 91 -36t34 -94q0 -78 -53 -133q-52 -54 -132 -54q-67 0 -101 43.5t-34 125.5zM140 391q0 -37 20.5 -60.5t56.5 -23.5q45 0 76 35.5t31 87.5
q0 37 -21 58.5t-57 21.5q-44 0 -75 -34.5t-31 -84.5z" />
    <glyph glyph-name="seven.numr" horiz-adv-x="368" 
d="M103 729h303l-6 -47q-98 -105 -157 -207q-56 -95 -95 -219h-64q75 237 236 413h-176l-8 -60h-49z" />
    <glyph glyph-name="eight.numr" horiz-adv-x="396" 
d="M55 360q0 41 23.5 76.5t63.5 53.5l1 5q-56 29 -56 93q0 63 51 105t127 42q65 0 103.5 -30.5t38.5 -79.5q0 -41 -23.5 -76.5t-62.5 -53.5l-1 -5q55 -28 55 -93q0 -64 -51 -106q-50 -42 -127 -42q-65 0 -103.5 31t-38.5 80zM154 587q0 -31 21.5 -49t59.5 -18q44 0 73 26.5
t29 66.5q0 30 -21.5 48t-57.5 18q-46 0 -75 -26t-29 -66zM123 373q0 -32 22.5 -49.5t59.5 -17.5q44 0 73 26.5t29 65.5q0 31 -21.5 49.5t-57.5 18.5q-46 0 -75.5 -26.5t-29.5 -66.5z" />
    <glyph glyph-name="nine.numr" horiz-adv-x="406" 
d="M405 566q0 -138 -60 -228q-59 -89 -152 -89q-60 0 -95 33.5t-32 89.5h65q1 -31 20.5 -48t51.5 -17q103 0 129 176h-4q-18 -30 -50.5 -47t-69.5 -17q-56 0 -89.5 35.5t-33.5 92.5q0 78 53 133q52 55 130 55q68 0 102.5 -44.5t34.5 -124.5zM336 592q0 37 -21 60.5t-57 23.5
q-45 0 -75.5 -35t-30.5 -87q0 -37 21 -58.5t56 -21.5q44 0 75 34q32 35 32 84z" />
    <glyph glyph-name="numbersign.ss03" horiz-adv-x="584" 
d="M606 532l-22 -52h-96l-75 -204h118l-21 -52h-117l-83 -224h-62l83 224h-163l-83 -224h-62l83 224h-96l22 52h93l76 204h-116l22 52h113l80 216h62l-80 -216h164l80 216h62l-80 -216h98zM187 276h164l75 204h-163z" />
    <glyph glyph-name="parenleft.case" horiz-adv-x="300" 
d="M77 279q0 137 61 266q62 131 159 204h55q-101 -74 -160 -202q-58 -126 -58 -278q0 -184 110 -289h-55q-53 48 -82.5 127t-29.5 172z" />
    <glyph glyph-name="parenright.case" horiz-adv-x="300" 
d="M252 444q0 -138 -61 -264q-59 -125 -158 -200h-55q103 78 160 205q58 126 58 276q0 186 -110 288h55q52 -48 81.5 -128.5t29.5 -176.5z" />
    <glyph glyph-name="braceleft.case" horiz-adv-x="341" 
d="M67 310l8 59q65 0 75 73l31 223q9 64 70 64h109l-7 -51h-113l-33 -234q-7 -44 -31.5 -72t-54.5 -30v-3q29 -3 46 -32t11 -71l-35 -246h113l-7 -51h-109q-61 0 -52 64l33 235q6 35 -9.5 53.5t-44.5 18.5z" />
    <glyph glyph-name="braceright.case" horiz-adv-x="341" 
d="M298 369l-8 -59q-64 0 -75 -72l-33 -235q-9 -64 -70 -64h-108l7 51h112l35 246q6 43 30.5 71.5t55.5 31.5l1 3q-31 3 -47.5 30t-10.5 72l33 234h-112l7 51h108q28 0 42 -17t10 -47l-31 -223q-5 -34 8.5 -53.5t45.5 -19.5z" />
    <glyph glyph-name="bracketleft.case" horiz-adv-x="339" 
d="M245 -61h-170l111 788h170l-7 -50h-114l-97 -687h114z" />
    <glyph glyph-name="bracketright.case" horiz-adv-x="339" 
d="M175 -61h-171l7 51h115l97 687h-115l7 50h171z" />
    <glyph glyph-name="hyphen.case" horiz-adv-x="449" 
d="M401 345h-330l7 48h330z" />
    <glyph glyph-name="endash.case" horiz-adv-x="625" 
d="M577 345h-506l7 48h506z" />
    <glyph glyph-name="emdash.case" horiz-adv-x="821" 
d="M773 345h-702l7 48h702z" />
    <glyph glyph-name="hyphen_hyphen_greater" horiz-adv-x="847" 
d="M727 233h-624v50h624l-169 234h59l193 -259l-193 -258h-59z" />
    <glyph glyph-name="greater.case" horiz-adv-x="543" 
d="M500 335l-410 -224l11 76l157 84l176 88l1 6l-153 78l-135 74l11 76l350 -206z" />
    <glyph glyph-name="less.case" horiz-adv-x="543" 
d="M422 187l-10 -76l-348 224l7 52l408 206l-10 -76l-157 -74l-174 -78l-1 -6l151 -88z" />
    <glyph glyph-name="percent.tf" horiz-adv-x="628" 
d="M127 461q-42 43 -42 116t42 116q44 44 113 44t113 -44q43 -43 43 -116t-43 -116q-44 -44 -113 -44t-113 44zM145 577q0 -49 26 -79.5t69 -30.5t69.5 30.5t26.5 79.5q0 47 -26.5 77.5t-69.5 30.5q-42 0 -68.5 -30t-26.5 -78zM637 452l-548 -217v54l548 219v-56zM315 151
q0 71 43 115t113 44t113 -43.5t43 -115.5t-43 -116.5t-113 -44.5t-113 44.5t-43 116.5zM375 151q0 -49 26.5 -79.5t69.5 -30.5t69.5 30.5t26.5 79.5q0 48 -27 79.5t-69 31.5t-69 -31.5t-27 -79.5z" />
    <glyph glyph-name="perthousand.tf" horiz-adv-x="686" 
d="M362 479q-44 -42 -112 -42q-70 0 -113 42t-43 109t43 109q44 42 113 42q68 0 112 -42t44 -109t-44 -109zM154 588q0 -44 26.5 -72t69.5 -28t69.5 28t26.5 72q0 45 -26.5 72.5t-69.5 27.5t-69.5 -27.5t-26.5 -72.5zM120 331l548 217v-55l-548 -217v55zM542 293
q67 0 109.5 -42t42.5 -109q0 -68 -42.5 -110t-109.5 -42q-86 0 -130 62q-44 -62 -129 -62q-67 0 -109.5 42t-42.5 110q0 67 42.5 108.5t109.5 41.5q86 0 129 -61q44 62 130 62zM217 69q27 -28 70 -28q44 0 69 28q26 29 26 73t-26 73q-25 28 -69 28q-43 0 -70 -28
q-26 -29 -26 -73t26 -73zM468 69q27 -28 70 -28q44 0 69 28q27 28 27 73q0 44 -27 73q-25 28 -69 28q-43 0 -70 -28q-26 -29 -26 -73t26 -73z" />
    <glyph glyph-name="at.ss03" horiz-adv-x="917" 
d="M607 504h53l-54 -258q-9 -46 5 -68t44 -22q64 0 112 80q48 79 48 188q0 118 -76 188q-76 71 -205 71q-179 0 -294 -124q-115 -122 -115 -314q0 -129 75 -210q76 -81 222 -81h242l-8 -55h-242q-164 0 -260 93q-95 92 -95 248q0 212 138 355t344 143q155 0 247 -83t92 -223
q0 -134 -68 -231q-68 -96 -164 -96q-44 0 -69 22.5t-27 61.5h-6q-50 -83 -139 -83q-56 0 -91.5 38.5t-35.5 108.5q0 106 60 184q60 79 142 79q36 0 64 -18t39 -51h4zM424 159q59 0 101 58q42 59 42 141q0 49 -21.5 77t-62.5 28q-59 0 -100 -60q-40 -58 -40 -145
q0 -48 21 -73.5t60 -25.5z" />
    <glyph glyph-name="less_hyphen_hyphen" horiz-adv-x="847" 
d="M750 283v-50h-624l169 -233h-59l-193 258l193 259h59l-169 -234h624z" />
    <glyph glyph-name="uni1F310" horiz-adv-x="1096" 
d="M1011 377h2v-27h-2q-6 -160 -130 -260q-122 -100 -313 -100q-196 0 -321 105q-124 105 -124 270t123 269q125 104 322 104q191 0 315 -101t128 -260zM461 571h212q-17 66 -44.5 103t-60.5 37q-34 0 -62 -37t-45 -103zM638 703q39 -43 60 -132h113q-62 105 -173 132z
M324 571h112q21 89 61 132q-111 -27 -173 -132zM839 571h75q-64 78 -174 114q60 -41 99 -114zM394 685q-110 -36 -174 -114h75q39 73 99 114zM147 377h100q3 96 34 165h-83q-48 -74 -51 -165zM430 542h-121q-33 -70 -36 -165h141q1 90 16 165zM438 377h258q-2 91 -16 165
h-226q-15 -75 -16 -165zM720 377h141q-3 92 -35 165h-121q13 -72 15 -165zM886 377h100q-3 91 -51 165h-82q31 -76 33 -165zM247 350h-100q5 -91 52 -162h82q-31 74 -34 162zM414 350h-141q3 -92 36 -162h120q-13 72 -15 162zM696 350h-258q2 -88 16 -162h226q14 74 16 162z
M705 188h120q33 70 36 162h-141q-2 -90 -15 -162zM853 188h82q47 74 51 162h-100q-3 -90 -33 -162zM293 161h-74q64 -78 172 -115q-61 44 -98 115zM435 161h-112q62 -107 173 -134q-40 43 -61 134zM673 161h-212q17 -67 45.5 -105t61.5 -38t60.5 38t44.5 105zM811 161h-112
q-21 -89 -60 -134q112 27 172 134zM743 45q109 38 172 116h-75q-37 -72 -97 -116z" />
    <glyph glyph-name="uni1F441" horiz-adv-x="908" 
d="M105 362q0 166 104 270q103 105 264 105t264 -105q104 -104 104 -270q0 -167 -104 -273q-104 -104 -264 -104t-264 104q-104 106 -104 273zM150 362q0 -149 92 -244q91 -94 231 -94t231 94q92 95 92 244q0 148 -92 242q-91 94 -231 94t-231 -94q-92 -94 -92 -242z
M313 363q0 70 46 115q46 46 114 46q67 0 113 -46q47 -45 47 -115q0 -73 -46 -119q-47 -45 -114 -45t-114 45q-46 46 -46 119zM326 372v-20l138 6l-89 -81l15 -16l80 91l-6 -142h19l-6 142l80 -91l15 16l-89 81l138 -6v20l-138 -6l89 81l-15 16l-80 -91l6 141h-19l6 -141
l-80 91l-15 -16l89 -81z" />
    </font>
</defs>
</svg>
