<?xml version="1.0" standalone="no"?>
<!DOCTYPE svg PUBLIC "-//W3C//DTD SVG 1.1//EN" "http://www.w3.org/Graphics/SVG/1.1/DTD/svg11.dtd" >
<svg xmlns="http://www.w3.org/2000/svg" xmlns:xlink="http://www.w3.org/1999/xlink" version="1.1">
<metadata>
Created by FontForge 20170731 at Mon Jan 12 23:52:37 2015
 By Aleksey,,,
Johannes Breyer &#38; Fabian Harb, Dinamo.us
</metadata>
<defs>
<font id="Favorit-MonoBeta" horiz-adv-x="600" >
  <font-face 
    font-family="Favorit Mono Beta"
    font-weight="400"
    font-stretch="normal"
    units-per-em="1000"
    panose-1="3 0 0 0 0 0 0 0 0 0"
    ascent="750"
    descent="-250"
    x-height="500"
    cap-height="700"
    bbox="-184 -315 830 1128"
    underline-thickness="0"
    underline-position="0"
    unicode-range="U+000D-FB02"
  />
<missing-glyph 
d="M460 -1v1h-320l-90 -1v701h500v-700zM460 90v520h-320v-520h320z" />
    <glyph glyph-name=".notdef" 
d="M460 -1v1h-320l-90 -1v701h500v-700zM460 90v520h-320v-520h320z" />
    <glyph glyph-name=".null" 
 />
    <glyph glyph-name="nonmarkingreturn" horiz-adv-x="333" 
 />
    <glyph glyph-name="CR" unicode="&#xd;" 
 />
    <glyph glyph-name="space" unicode=" " 
 />
    <glyph glyph-name="exclam" unicode="!" 
d="M280 200l-35 350v150h110v-150l-35 -350h-40zM245 0v115h110v-115h-110z" />
    <glyph glyph-name="quotedbl" unicode="&#x22;" 
d="M356 485l-25 135v80h95v-80l-30 -135h-40zM201 485l-25 135v80h95v-80l-30 -135h-40z" />
    <glyph glyph-name="numbersign" unicode="#" 
d="M383 260l29 180h-167l-30 -180h168zM340 0l29 175h-169l-30 -175h-90l30 175h-116v85h131l30 180h-140v85h155l30 175h90l-30 -175h166l29 175h90l-29 -175h89v-85h-103l-29 -180h112v-85h-126l-29 -175h-90z" />
    <glyph glyph-name="dollar" unicode="$" 
d="M260 415l20 -5l47 210h-12h-10q-61 0 -93 -29t-32 -76q0 -79 80 -100zM305 80h10q62 0 93.5 26.5t31.5 73.5q0 44 -21.5 69t-79.5 43l-47 -212h13zM305 -10q-22 0 -32 1l-25 -111h-85l28 126q-140 48 -146 219h100q0 -91 66 -126l48 215l-24 6q-78 21 -116.5 67.5
t-38.5 127.5q0 90 62.5 142.5t167.5 52.5q14 0 36 -2l25 112h85l-29 -131q117 -49 123 -199h-100q-5 68 -45 101l-45 -203l10 -3q85 -23 127.5 -71t42.5 -129q0 -90 -58 -142.5t-177 -52.5z" />
    <glyph glyph-name="percent" unicode="%" 
d="M142 711q57 0 96.5 -39.5t39.5 -96.5t-39.5 -96.5t-96.5 -39.5t-94.5 39.5t-37.5 96.5t37.5 96.5t94.5 39.5zM114 0h-60l430 700h60zM142 643q-30 0 -47 -19t-17 -49t17 -49t47 -19q32 0 50 18.5t18 49.5t-18 49.5t-50 18.5zM458 296q57 0 96.5 -39.5t39.5 -96.5
t-39.5 -96.5t-96.5 -39.5t-94.5 39.5t-37.5 96.5t37.5 96.5t94.5 39.5zM458 228q-30 0 -47 -19t-17 -49t17 -49t47 -19q32 0 50 18.5t18 49.5t-18 49.5t-50 18.5z" />
    <glyph glyph-name="ampersand" unicode="&#x26;" 
d="M483 309v-309h-231q-107 0 -175.5 53t-68.5 141q0 63 35 105t90 55q-55 16 -87.5 60.5t-32.5 99.5q0 78 62.5 132t163.5 54h115v-90h-109q-60 0 -96 -30.5t-36 -74.5q0 -48 34.5 -77t90.5 -29h145v101h100v-101h110v-90h-110zM253 90h130v219h-145q-58 0 -94 -28.5
t-36 -78.5q0 -53 40 -82.5t105 -29.5z" />
    <glyph glyph-name="quotesingle" unicode="'" 
d="M278 485l-25 135v80h95v-80l-30 -135h-40z" />
    <glyph glyph-name="parenleft" unicode="(" 
d="M443 -160q-163 8 -273 149t-110 361t110 361t273 149v-85q-51 -4 -100 -31t-92 -77t-69.5 -132.5t-26.5 -184.5t26.5 -184.5t69.5 -132.5t92 -77t100 -31v-85z" />
    <glyph glyph-name="parenright" unicode=")" 
d="M363 350q0 -220 -110 -361t-273 -149v85q51 4 100 31t92 77t69.5 132.5t26.5 184.5t-26.5 184.5t-69.5 132.5t-92 77t-100 31v85q163 -8 273 -149t110 -361z" />
    <glyph glyph-name="asterisk" unicode="*" 
d="M415 450l-61 -36l-53 92l-52 -92l-63 35l52 92h-106v73h107l-53 91l61 36l53 -92l52 92l63 -35l-52 -92h106v-73h-107z" />
    <glyph glyph-name="plus" unicode="+" 
d="M548 310h-200v-200h-95v200h-200v85h200v200h95v-200h200v-85z" />
    <glyph glyph-name="comma" unicode="," 
d="M247 -140h-25v65h20q75 0 75 60v15h-60v120h120v-130q0 -59 -36.5 -94.5t-93.5 -35.5z" />
    <glyph glyph-name="hyphen" unicode="-" 
d="M165 260v85h270v-85h-270z" />
    <glyph glyph-name="period" unicode="." 
d="M240 0v120h120v-120h-120z" />
    <glyph glyph-name="slash" unicode="/" 
d="M115 0l270 700h100l-270 -700h-100z" />
    <glyph glyph-name="zero" unicode="0" 
d="M300 -10q-129 0 -202 93t-73 267t73 267t202 93t202 -93t73 -267t-73 -267t-202 -93zM295 70h10q33 0 61.5 13.5t55.5 43.5t42.5 87t15.5 136t-15.5 136t-42.5 87t-55.5 43.5t-61.5 13.5h-10q-33 0 -61.5 -13.5t-55.5 -43.5t-42.5 -87t-15.5 -136t15.5 -136t42.5 -87
t55.5 -43.5t61.5 -13.5z" />
    <glyph glyph-name="one" unicode="1" 
d="M565 0h-510v84h215v481l-160 -155v115l180 175h75v-616h200v-84z" />
    <glyph glyph-name="two" unicode="2" 
d="M534 0h-470v100l238 215q4 4 28.5 27t30.5 29.5t23 26.5t22.5 32.5t11.5 32t6 39.5q0 57 -35.5 92.5t-88.5 35.5h-10q-54 0 -90 -33t-45 -95h-95q10 94 74 151t163 57q105 0 163.5 -56.5t58.5 -142.5q0 -119 -114 -218l-236 -209h365v-84z" />
    <glyph glyph-name="three" unicode="3" 
d="M300 -10q-114 0 -174 57t-66 133h95q17 -110 140 -110h10q61 0 103 33t42 87q0 56 -36 88.5t-94 32.5h-60v80h60q55 0 90 34.5t35 84.5q0 55 -38.5 87.5t-96.5 32.5h-10q-56 0 -93.5 -31t-41.5 -79h-95q5 86 73.5 138t161.5 52q101 0 168 -52.5t67 -142.5q0 -57 -32 -99
t-86 -62q57 -16 90 -60t33 -109q0 -89 -69 -142t-176 -53z" />
    <glyph glyph-name="four" unicode="4" 
d="M473 0h-95v159h-345v96l345 445h95v-461h110v-80h-110v-159zM378 239v332l-258 -332h258z" />
    <glyph glyph-name="five" unicode="5" 
d="M301 -10q-100 0 -170 51.5t-77 143.5h95q7 -54 48 -84.5t99 -30.5h10q64 0 104.5 42.5t40.5 107.5q0 60 -36.5 98t-96.5 38h-10q-82 0 -141 -71h-88l85 415h375v-84h-304l-52 -243q66 61 159 63q89 1 146.5 -59.5t57.5 -151.5q0 -103 -70 -169t-175 -66z" />
    <glyph glyph-name="six" unicode="6" 
d="M545 234q0 -110 -68 -177t-172 -67q-126 0 -195.5 90.5t-69.5 249.5q0 103 32 187t100.5 138.5t164.5 54.5q91 0 151.5 -47.5t76.5 -132.5h-95q-12 46 -46 73t-81 27h-10q-65 0 -112 -43t-69 -106t-27 -140q68 119 210 119q94 0 152 -64.5t58 -161.5zM300 70h10
q64 0 102 44t38 111t-37.5 111t-101.5 44h-10q-61 0 -106 -43.5t-45 -105.5q0 -67 42 -114t108 -47z" />
    <glyph glyph-name="seven" unicode="7" 
d="M295 0h-95v50q0 110 24 202.5t67.5 160.5t85.5 113t97 90h-399v84h485v-95q-89 -73 -143.5 -144.5t-88 -181t-33.5 -254.5v-25z" />
    <glyph glyph-name="eight" unicode="8" 
d="M300 -10q-102 0 -161 54.5t-59 133.5q0 109 116 159q-131 59 -131 178q0 89 64.5 142t170.5 53t170.5 -53t64.5 -143q0 -118 -131 -177q116 -50 116 -159q0 -79 -59 -133.5t-161 -54.5zM305 630h-10q-58 0 -96.5 -33.5t-38.5 -91.5q0 -49 39.5 -86.5t95.5 -37.5h10
q56 0 95.5 37t39.5 86q0 58 -38.5 92t-96.5 34zM295 70h10q49 0 84 31t36 84q1 51 -34.5 83.5t-85.5 32.5h-10q-50 0 -85 -32.5t-35 -83.5q0 -52 35.5 -83.5t84.5 -31.5z" />
    <glyph glyph-name="nine" unicode="9" 
d="M300 630h-10q-64 0 -102 -44t-38 -111t37.5 -111t101.5 -44h10q61 0 106 43.5t45 105.5q0 67 -42 114t-108 47zM263 -10q-91 0 -151.5 47.5t-76.5 132.5h95q12 -46 46 -73t81 -27h10q65 0 112 43t69 106t27 140q-68 -119 -210 -119q-94 0 -152 64.5t-58 161.5
q0 110 68 177t172 67q126 0 195.5 -90.5t69.5 -249.5q0 -103 -32 -187t-100.5 -138.5t-164.5 -54.5z" />
    <glyph glyph-name="colon" unicode=":" 
d="M240 380v120h120v-120h-120zM240 0v120h120v-120h-120z" />
    <glyph glyph-name="semicolon" unicode=";" 
d="M216 380v120h120v-120h-120zM223 -140h-25v65h20q75 0 75 60v15h-60v120h120v-130q0 -59 -36.5 -94.5t-93.5 -35.5z" />
    <glyph glyph-name="less" unicode="&#x3c;" 
d="M513 230v-95l-425 175v80l425 175v-95l-305 -120z" />
    <glyph glyph-name="equal" unicode="=" 
d="M65 400v85h470v-85h-470zM65 220v85h470v-85h-470z" />
    <glyph glyph-name="greater" unicode="&#x3e;" 
d="M87 135v95l305 120l-305 120v95l425 -175v-80z" />
    <glyph glyph-name="question" unicode="?" 
d="M200 200v115q0 48 20 71.5t70 23.5q55 0 85 28t30 72t-30.5 72t-84.5 28h-195v90h205q98 0 151.5 -49.5t53.5 -140.5q0 -81 -52.5 -133t-122.5 -52q-22 0 -28.5 -8.5t-6.5 -31.5v-85h-95zM190 0v115h115v-115h-115z" />
    <glyph glyph-name="at" unicode="@" 
d="M517 -125h-170q-153 0 -248.5 112.5t-95.5 322.5q0 194 86.5 307t219.5 113q136 0 207.5 -107t71.5 -298q0 -115 -45.5 -172.5t-122.5 -57.5h-64v75q-21 -85 -78 -85q-53 0 -83.5 57t-30.5 158q0 99 31.5 154.5t82.5 55.5t75 -75v65h74v-330h16q49 0 49 155
q0 162 -43 241t-140 79q-94 0 -151.5 -91t-57.5 -244q0 -167 64.5 -258.5t186.5 -91.5h166v-85zM294 160h3q27 0 36.5 34.5t9.5 105.5t-10 103t-36 32h-3q-49 0 -49 -135q0 -69 13.5 -104.5t35.5 -35.5z" />
    <glyph glyph-name="A" unicode="A" 
d="M400 270l-101 340l-99 -340h200zM480 0l-54 180h-253l-52 -180h-101l215 700h130l215 -700h-100z" />
    <glyph glyph-name="B" unicode="B" 
d="M70 0v700h250q97 0 151 -46t54 -129q0 -58 -31.5 -101t-78.5 -59q58 -12 91.5 -56t33.5 -114q0 -88 -57.5 -141.5t-157.5 -53.5h-255zM170 400h135q54 0 87 29.5t33 80.5q0 52 -30.5 76t-94.5 24h-130v-210zM170 90h140q130 0 130 110q0 55 -33.5 82.5t-91.5 27.5h-145
v-220z" />
    <glyph glyph-name="C" unicode="C" 
d="M311 -10q-271 0 -271 360q0 175 66.5 267.5t199.5 92.5q103 0 167 -70t68 -160h-100q-4 58 -40 99t-90 41h-10q-89 0 -125 -68.5t-36 -201.5t37 -201.5t129 -68.5h10q55 0 88.5 38t41.5 107h100q-11 -107 -72 -171t-163 -64z" />
    <glyph glyph-name="D" unicode="D" 
d="M70 0v700h180q145 0 225 -94.5t80 -260.5q0 -162 -80 -253.5t-225 -91.5h-180zM170 90h70q215 0 215 260q0 130 -52 195t-163 65h-70v-520z" />
    <glyph glyph-name="E" unicode="E" 
d="M70 0v700h460v-90h-360v-205h300v-90h-300v-225h370v-90h-470z" />
    <glyph glyph-name="F" unicode="F" 
d="M60 0v700h485v-90h-385v-225h335v-90h-335v-295h-100z" />
    <glyph glyph-name="G" unicode="G" 
d="M461 0v105q-11 -21 -20 -35.5t-28 -35.5t-46 -32.5t-60 -11.5q-137 0 -202 95.5t-65 264.5t65 264.5t202 95.5q97 0 159 -63.5t77 -176.5h-100q-7 74 -41 112t-90 38h-5q-92 0 -129.5 -68.5t-37.5 -201.5q0 -270 183 -270h10q48 0 88 52t40 113v14h-175v90h160
q45 0 72.5 -27t27.5 -72v-250h-85z" />
    <glyph glyph-name="H" unicode="H" 
d="M70 0v700h100v-305h260v305h100v-700h-100v305h-260v-305h-100z" />
    <glyph glyph-name="I" unicode="I" 
d="M525 0h-450v90h175v520h-169v90h439v-90h-170v-520h175v-90z" />
    <glyph glyph-name="J" unicode="J" 
d="M313 0h-215v95h205q48 0 69 23t21 72v510h100v-520q0 -98 -41.5 -139t-138.5 -41z" />
    <glyph glyph-name="K" unicode="K" 
d="M456 0l-201 333l-95 -112v-221h-100v700h100v-343l291 343h115l-242 -286l257 -414h-125z" />
    <glyph glyph-name="L" unicode="L" 
d="M70 0v700h100v-610h385v-90h-485z" />
    <glyph glyph-name="M" unicode="M" 
d="M161 568v-568h-91v700h115l116 -305l114 305h115v-700h-90v570l-1 -1l-104 -289h-69z" />
    <glyph glyph-name="N" unicode="N" 
d="M70 0v700h140l220 -580v580h100v-700h-140l-220 580v-580h-100z" />
    <glyph glyph-name="O" unicode="O" 
d="M300 710q126 0 193 -94.5t67 -265.5t-67 -265.5t-193 -94.5t-193 94.5t-67 265.5t67 265.5t193 94.5zM295 80h10q75 0 115 71t40 199t-40 199t-115 71h-10q-75 0 -115 -71t-40 -199t40 -199t115 -71z" />
    <glyph glyph-name="P" unicode="P" 
d="M70 0v700h265q102 0 163.5 -55.5t61.5 -154.5t-61.5 -154.5t-163.5 -55.5h-165v-280h-100zM170 370h150q140 0 140 120t-140 120h-150v-240z" />
    <glyph glyph-name="Q" unicode="Q" 
d="M543 -185h-185q-52 0 -78.5 27.5t-26.5 77.5v74q-104 16 -159 109t-55 247q0 171 67 265.5t193 94.5t193 -94.5t67 -265.5q0 -153 -54 -245.5t-157 -110.5v-44q0 -25 8.5 -35t36.5 -10h150v-90zM294 80h10q75 0 115 71t40 199t-40 199t-115 71h-10q-75 0 -115 -71
t-40 -199t40 -199t115 -71z" />
    <glyph glyph-name="R" unicode="R" 
d="M170 370h115q69 0 107 36t38 94q0 110 -135 110h-125v-240zM70 0v700h240q100 0 160 -48.5t60 -136.5q0 -65 -32.5 -110t-87.5 -65q61 -4 88 -38t27 -97v-205h-100v210q0 39 -23 54.5t-67 15.5h-165v-280h-100z" />
    <glyph glyph-name="S" unicode="S" 
d="M450 490q-4 61 -38 95.5t-97 34.5h-10q-61 0 -93 -29t-32 -76q0 -79 80 -100l110 -30q85 -23 127.5 -71t42.5 -129q0 -90 -58 -142.5t-177 -52.5q-126 0 -191 60.5t-69 174.5h100q0 -145 160 -145h10q62 0 93.5 26.5t31.5 73.5q0 49 -27.5 74.5t-102.5 45.5l-75 20
q-78 21 -116.5 67.5t-38.5 127.5q0 90 62.5 142.5t167.5 52.5q114 0 175 -58t65 -162h-100z" />
    <glyph glyph-name="T" unicode="T" 
d="M250 0v610h-220v90h540v-90h-220v-610h-100z" />
    <glyph glyph-name="U" unicode="U" 
d="M300 -10q-128 0 -181.5 67.5t-53.5 192.5v450h100v-440q0 -93 27.5 -136.5t102.5 -43.5h10q75 0 102.5 43.5t27.5 136.5v440h100v-450q0 -125 -53.5 -192.5t-181.5 -67.5z" />
    <glyph glyph-name="V" unicode="V" 
d="M217 0l-179 700h106l141 -601l172 601h105l-215 -700h-130z" />
    <glyph glyph-name="W" unicode="W" 
d="M95 0l-65 700h95l54 -600l71 430h100l75 -430l50 600h95l-65 -700h-135l-70 415l-70 -415h-135z" />
    <glyph glyph-name="X" unicode="X" 
d="M446 0l-145 260l-146 -260h-115l203 363l-188 337h115l131 -234l130 234h115l-188 -337l203 -363h-115z" />
    <glyph glyph-name="Y" unicode="Y" 
d="M350 0h-100v290l-231 410h116l167 -302l163 302h115l-230 -410v-290z" />
    <glyph glyph-name="Z" unicode="Z" 
d="M42 0v90l389 520h-379v90h495v-90l-390 -520h400v-90h-515z" />
    <glyph glyph-name="bracketleft" unicode="[" 
d="M190 -160v1020h220v-85h-125v-850h125v-85h-220z" />
    <glyph glyph-name="backslash" unicode="\" 
d="M215 700l270 -700h-100l-270 700h100z" />
    <glyph glyph-name="bracketright" unicode="]" 
d="M410 860v-1020h-220v85h125v850h-125v85h220z" />
    <glyph glyph-name="asciicircum" unicode="^" 
d="M433 285l-135 335l-135 -335h-90l175 415h105l175 -415h-95z" />
    <glyph glyph-name="underscore" unicode="_" 
d="M75 -85v85h450v-85h-450z" />
    <glyph glyph-name="grave" unicode="`" 
d="M323 700l55 -135h-65l-90 135h100z" />
    <glyph glyph-name="a" unicode="a" 
d="M265 70h10q47 0 91 33.5t44 76.5v51l-125 -10q-45 -4 -72.5 -24.5t-27.5 -54.5q0 -31 23 -51.5t57 -20.5zM255 -10q-71 0 -118 42t-47 106q0 41 16.5 71t44.5 47t57.5 25.5t63.5 11.5l138 11v16q0 52 -28 81t-77 29h-5q-42 0 -71.5 -19.5t-33.5 -55.5h-95q4 69 60.5 112
t141.5 43q96 0 149.5 -54.5t53.5 -135.5v-210q0 -75 5 -110h-90q-5 25 -5 80q-16 -37 -59.5 -63.5t-100.5 -26.5z" />
    <glyph glyph-name="b" unicode="b" 
d="M540 250q0 -121 -53.5 -190.5t-150.5 -69.5q-108 0 -161 90v-80h-90v700h95v-275q22 41 62 63t89 22q100 0 154.5 -69.5t54.5 -190.5zM180 250q0 -84 36.5 -132t94.5 -48h5q58 0 93.5 46.5t35.5 133.5t-35.5 133.5t-93.5 46.5h-5q-58 0 -94.5 -48t-36.5 -132z" />
    <glyph glyph-name="c" unicode="c" 
d="M302 -10q-109 0 -175.5 72t-66.5 188q0 115 71 187.5t181 72.5q81 0 143.5 -49t69.5 -126h-95q-7 43 -41 69t-77 26h-10q-62 0 -104.5 -50t-42.5 -130q0 -91 41.5 -135.5t100.5 -44.5h10q51 0 85.5 25.5t42.5 64.5h95q-8 -75 -71 -122.5t-157 -47.5z" />
    <glyph glyph-name="d" unicode="d" 
d="M289 70q58 0 94.5 48t36.5 132t-36.5 132t-94.5 48h-5q-58 0 -93.5 -46.5t-35.5 -133.5t35.5 -133.5t93.5 -46.5h5zM264 -10q-97 0 -150.5 69.5t-53.5 190.5t54.5 190.5t154.5 69.5q49 0 89 -22t62 -63v275h95v-700h-90v80q-53 -90 -161 -90z" />
    <glyph glyph-name="e" unicode="e" 
d="M303 430q-43 0 -78 -28t-48 -87h247q0 50 -30.5 82.5t-80.5 32.5h-10zM519 148q-12 -75 -69 -116.5t-137 -41.5q-100 0 -169 68t-69 193q0 123 68.5 191t164.5 68q95 0 153.5 -64t58.5 -161v-50h-350q4 -81 47 -123t99 -42q42 0 71.5 20t36.5 58h95z" />
    <glyph glyph-name="f" unicode="f" 
d="M232 0v418h-140v82h140v95q0 105 105 105h200v-83h-170q-23 0 -31.5 -8.5t-8.5 -31.5v-77h185v-82h-185v-418h-95z" />
    <glyph glyph-name="g" unicode="g" 
d="M303 80h10q60 0 92.5 46t32.5 129t-32.5 129t-92.5 46h-10q-56 0 -93 -44.5t-37 -130.5t37 -130.5t93 -44.5zM278 -220q-91 0 -146.5 43t-63.5 112h95q15 -75 120 -75h10q67 0 106 37t39 113v75q-20 -36 -60 -60.5t-90 -24.5q-84 0 -147 65t-63 190q0 119 62 187t153 68
q49 0 88.5 -26t56.5 -59v75h95v-500q0 -100 -67 -160t-188 -60z" />
    <glyph glyph-name="h" unicode="h" 
d="M85 0v700h95v-295q16 44 61 74.5t109 30.5q83 0 126.5 -52t43.5 -138v-320h-95v310q0 56 -28 88t-77 32h-10q-52 0 -91 -44t-39 -116v-270h-95z" />
    <glyph glyph-name="i" unicode="i" 
d="M353 590h-105v110h105v-110zM529 0h-457v82h181v336h-150v82h245v-418h181v-82z" />
    <glyph glyph-name="j" unicode="j" 
d="M328 590v110h105v-110h-105zM323 -185h-205v82h175q23 0 31.5 8.5t8.5 31.5v481h-150v82h245v-580q0 -105 -105 -105z" />
    <glyph glyph-name="k" unicode="k" 
d="M447 0l-181 251l-94 -83v-168h-95v700h95v-418l250 218h125l-211 -187l226 -313h-115z" />
    <glyph glyph-name="l" unicode="l" 
d="M519 0h-457v82h181v536h-139v82h234v-618h181v-82z" />
    <glyph glyph-name="m" unicode="m" 
d="M52 0v500h95v-74q31 84 100 84q77 0 99 -84q17 43 39.5 63.5t67.5 20.5q31 0 52.5 -10t33.5 -25t18.5 -41.5t8 -51t1.5 -62.5v-320h-95v310v17q0 31 -0.5 44.5t-5 30t-15.5 22.5t-29 6h-2q-63 0 -63 -140v-290h-95v310q0 63 -9.5 91.5t-40.5 28.5h-2q-34 0 -48.5 -32.5
t-14.5 -107.5v-290h-95z" />
    <glyph glyph-name="n" unicode="n" 
d="M85 0v500h95v-95q16 45 58.5 75t106.5 30q84 0 129.5 -49.5t45.5 -130.5v-330h-95v310q0 120 -105 120h-10q-52 0 -91 -44t-39 -116v-270h-95z" />
    <glyph glyph-name="o" unicode="o" 
d="M300 -10q-106 0 -173 70.5t-67 189.5q0 115 68.5 187.5t171.5 72.5t171.5 -72.5t68.5 -187.5q0 -119 -67 -189.5t-173 -70.5zM305 70q62 0 101 48t39 132t-39 132t-101 48h-10q-62 0 -101 -48t-39 -132t39 -132t101 -48h10z" />
    <glyph glyph-name="p" unicode="p" 
d="M311 430q-58 0 -94.5 -48t-36.5 -132t36.5 -132t94.5 -48h5q58 0 93.5 46.5t35.5 133.5t-35.5 133.5t-93.5 46.5h-5zM336 510q97 0 150.5 -69.5t53.5 -190.5t-54.5 -190.5t-154.5 -69.5q-49 0 -89 22t-62 63v-275h-95v700h90v-80q53 90 161 90z" />
    <glyph glyph-name="q" unicode="q" 
d="M60 249q0 121 53.5 190.5t150.5 69.5q108 0 161 -90v80h90v-700h-95v275q-22 -41 -62 -63t-89 -22q-100 0 -154.5 69.5t-54.5 190.5zM420 249q0 84 -36.5 132t-94.5 48h-5q-58 0 -93.5 -46.5t-35.5 -133.5t35.5 -133.5t93.5 -46.5h5q58 0 94.5 48t36.5 132z" />
    <glyph glyph-name="r" unicode="r" 
d="M258 0h-95v500h90v-110q14 54 56.5 84.5t93.5 30.5h105v-95h-105q-68 0 -106.5 -42.5t-38.5 -117.5v-250z" />
    <glyph glyph-name="s" unicode="s" 
d="M303 -10q-98 0 -154.5 46.5t-60.5 118.5h95q4 -40 38.5 -62.5t81.5 -22.5h10q39 0 67 18t28 47q0 50 -75 65l-55 10q-72 12 -118.5 50.5t-46.5 99.5q0 63 52.5 106.5t142.5 43.5q93 0 147 -48.5t58 -116.5h-95q-4 35 -33 60t-72 25h-10q-41 0 -68 -19t-27 -46
q0 -50 75 -65l75 -15q145 -29 145 -145q0 -67 -56.5 -108.5t-143.5 -41.5z" />
    <glyph glyph-name="t" unicode="t" 
d="M317 0q-105 0 -105 105v313h-140v82h140v162h95v-162h175v-82h-175v-295q0 -23 8.5 -31.5t31.5 -8.5h170v-83h-200z" />
    <glyph glyph-name="u" unicode="u" 
d="M505 500v-500h-95v95q-16 -45 -57.5 -75t-102.5 -30q-82 0 -126 49.5t-44 130.5v330h95v-310q0 -120 100 -120h10q50 0 87.5 44t37.5 116v270h95z" />
    <glyph glyph-name="v" unicode="v" 
d="M358 0h-115l-185 500h100l143 -400l142 400h100z" />
    <glyph glyph-name="w" unicode="w" 
d="M135 0l-105 500h90l70 -395l60 395h100l65 -395l65 395h90l-105 -500h-105l-60 390l-60 -390h-105z" />
    <glyph glyph-name="x" unicode="x" 
d="M430 0l-130 178l-130 -178h-110l185 253l-180 247h110l125 -171l125 171h110l-180 -247l185 -253h-110z" />
    <glyph glyph-name="y" unicode="y" 
d="M63 -200v80h140q26 0 40.5 16.5t14.5 43.5v70l-210 490h105l150 -370l150 370h100l-205 -490v-100q0 -49 -30.5 -79.5t-79.5 -30.5h-175z" />
    <glyph glyph-name="z" unicode="z" 
d="M93 0v85l285 330h-280v85h395v-85l-285 -330h300v-85h-415z" />
    <glyph glyph-name="braceleft" unicode="{" 
d="M253 360v-20q80 0 80 -85v-255q0 -43 12 -59t48 -16h45v-85h-75q-66 0 -95.5 37.5t-29.5 117.5v220q0 38 -10 51.5t-40 13.5h-25v140h25q30 0 40 13.5t10 51.5v220q0 80 29.5 117.5t95.5 37.5h75v-85h-45q-36 0 -48 -16t-12 -59v-255q0 -85 -80 -85z" />
    <glyph glyph-name="bar" unicode="|" 
d="M350 -115h-100v865h100v-865z" />
    <glyph glyph-name="braceright" unicode="}" 
d="M348 340v20q-80 0 -80 85v255q0 43 -12 59t-48 16h-45v85h75q66 0 95.5 -37.5t29.5 -117.5v-220q0 -38 10 -51.5t40 -13.5h25v-140h-25q-30 0 -40 -13.5t-10 -51.5v-220q0 -80 -29.5 -117.5t-95.5 -37.5h-75v85h45q36 0 48 16t12 59v255q0 85 80 85z" />
    <glyph glyph-name="asciitilde" unicode="~" 
d="M366 422q34 0 34 39h80v-16q0 -42 -29.5 -71t-70.5 -29q-37 0 -80 23l-18 10q-27 15 -44 15q-18 0 -27.5 -11.5t-9.5 -27.5h-80v16q0 42 29.5 71t72.5 29q39 0 75 -19l18 -10q38 -19 50 -19z" />
    <glyph glyph-name="exclamdown" unicode="&#xa1;" 
d="M245 385v115h110v-115h-110zM245 -50l35 350h40l35 -350v-150h-110v150z" />
    <glyph glyph-name="cent" unicode="&#xa2;" 
d="M155 250q0 -110 64 -155l73 331l1 4q-59 -4 -98.5 -53.5t-39.5 -126.5zM302 -10q-14 0 -21 1l-25 -111h-85l29 130q-66 29 -103 91.5t-37 148.5q0 115 71 187.5t180 72.5l25 110h85l-28 -124q55 -20 91 -62.5t41 -98.5h-95q-9 53 -55 79l-76 -340l-1 -4h9q51 0 85.5 25.5
t42.5 64.5h95q-8 -75 -71 -122.5t-157 -47.5z" />
    <glyph glyph-name="sterling" unicode="&#xa3;" 
d="M547 85v-85h-495v85h30q62 0 70 70l10 145h-85v85h90l10 105q8 104 58 157t152 53h90v-85h-90q-107 0 -115 -130l-5 -100h120v-85h-130l-10 -140q0 -60 -45 -75h345z" />
    <glyph glyph-name="currency" unicode="&#xa4;" 
d="M547 10l-90 86q-72 -56 -160 -56q-87 0 -158 53l-87 -83l-61 60l90 85q-44 66 -44 150q0 79 41 144l-87 86l61 60l86 -82q69 52 159 52t161 -55l89 85l60 -60l-90 -90q40 -64 40 -140q0 -81 -43 -146l93 -89zM297 125h5q68 0 114 51t46 129t-45.5 126.5t-114.5 48.5h-10
q-69 0 -114.5 -48.5t-45.5 -126.5q0 -79 47 -129.5t118 -50.5z" />
    <glyph glyph-name="yen" unicode="&#xa5;" 
d="M347 0h-95v112l-225 -50v85l225 50v85l-225 -50v85l188 42l-43 66l-170 275h110l190 -315l190 315h105l-170 -275l-15 -22l160 35v-85l-225 -50v-85l225 50v-85l-225 -50v-133z" />
    <glyph glyph-name="brokenbar" unicode="&#xa6;" 
d="M250 425v360h100v-360h-100zM250 -85v370h100v-370h-100z" />
    <glyph glyph-name="section" unicode="&#xa7;" 
d="M338 -61h-210v80h200q75 0 75 60q0 23 -18.5 38.5t-59.5 28.5l-75 25q-142 47 -142 144q0 78 73 134q-68 39 -68 112q0 58 44.5 98.5t115.5 40.5h200v-80h-190q-80 0 -80 -55q0 -24 18 -39.5t58 -28.5l76 -25q138 -44 138 -147q0 -75 -73 -130q39 -23 56 -49.5t17 -63.5
q0 -62 -44.5 -102.5t-110.5 -40.5zM270 255l74 -24q59 35 59 84q0 30 -20 50t-50 28l-75 21q-60 -35 -60 -84q0 -53 72 -75z" />
    <glyph glyph-name="dieresis" unicode="&#xa8;" 
d="M345 585v105h100v-105h-100zM155 585v105h100v-105h-100z" />
    <glyph glyph-name="copyright" unicode="&#xa9;" 
d="M301 293q-89 0 -153 64t-64 153t64 152.5t153 63.5t152.5 -63.5t63.5 -152.5t-63.5 -153t-152.5 -64zM301 334q72 0 123.5 51.5t51.5 124.5q0 72 -51.5 123.5t-123.5 51.5q-73 0 -124.5 -51.5t-51.5 -123.5q0 -73 51.5 -124.5t124.5 -51.5zM302 402q-47 0 -76 28t-29 80
q0 50 27.5 80t77.5 30q39 0 62.5 -20t27.5 -55h-44q-8 39 -46 39h-3q-28 0 -44.5 -19t-16.5 -55q0 -34 16.5 -53t44.5 -19h3q42 0 49 39h44q-6 -36 -31 -55.5t-62 -19.5z" />
    <glyph glyph-name="ordfeminine" unicode="&#xaa;" 
d="M294 375q30 0 61 23t31 57v41l-94 -6q-30 -2 -51.5 -17t-21.5 -43t19.5 -41.5t45.5 -13.5h10zM265 310q-50 0 -88 31t-38 84q0 58 43.5 87.5t104.5 32.5l94 5v20q0 36 -21 55.5t-61 19.5h-5q-35 0 -58.5 -17.5t-23.5 -42.5h-80q1 52 46.5 88.5t115.5 36.5q81 0 124 -40
t43 -117v-134q0 -71 6 -99h-71q-5 23 -5 55q-11 -25 -45.5 -45t-80.5 -20z" />
    <glyph glyph-name="guillemotleft" unicode="&#xab;" 
d="M328 70h-110l-145 215l145 215h110l-145 -215zM529 70h-110l-145 215l145 215h110l-145 -215z" />
    <glyph glyph-name="logicalnot" unicode="&#xac;" 
d="M533 180h-95v140h-370v85h465v-225z" />
    <glyph glyph-name="registered" unicode="&#xae;" 
d="M300 293q-88 0 -152 63.5t-64 152.5q0 90 63.5 153.5t152.5 63.5q90 0 153.5 -63.5t63.5 -153.5q0 -89 -63.5 -152.5t-153.5 -63.5zM300 334q73 0 124 51.5t51 123.5q0 73 -51 124t-124 51q-72 0 -123.5 -51t-51.5 -124q0 -72 51.5 -123.5t123.5 -51.5zM265 521h41
q44 0 44 32q0 25 -44 25h-41v-57zM226 408v209h94q32 0 50.5 -16.5t18.5 -41.5q0 -43 -45 -52q42 0 42 -33v-66h-39v55q0 24 -27 24h-55v-79h-39z" />
    <glyph glyph-name="macron" unicode="&#xaf;" 
d="M158 590v80h285v-80h-285z" />
    <glyph glyph-name="degree" unicode="&#xb0;" 
d="M302 340q-78 0 -131.5 54.5t-53.5 130.5q0 79 53 132t132 53q78 0 129 -53t51 -132q0 -76 -51.5 -130.5t-128.5 -54.5zM302 425q44 0 69.5 27t25.5 73t-25.5 73t-69.5 27t-69.5 -27t-25.5 -73t25.5 -73t69.5 -27z" />
    <glyph glyph-name="plusminus" unicode="&#xb1;" 
d="M545 385h-195v-130h-100v130h-195v85h195v130h100v-130h195v-85zM55 100v85h490v-85h-490z" />
    <glyph glyph-name="twosuperior" unicode="&#xb2;" 
d="M440 384h-280v81l132 116q3 3 13.5 12t14.5 13l12 12t12 13.5t9 12.5t6.5 14t1.5 14q-1 21 -18 33.5t-41 12.5h-5q-23 0 -41 -15t-20 -42h-76q2 56 42.5 90t99.5 34q57 0 95.5 -31t38.5 -84q0 -27 -15.5 -53.5t-29.5 -39.5t-46 -40l-102 -86h197v-67z" />
    <glyph glyph-name="threesuperior" unicode="&#xb3;" horiz-adv-x="601" 
d="M298 378q-60 0 -100.5 31.5t-40.5 87.5h75q0 -26 18 -41.5t45 -15.5h5q29 0 49 15t20 42q0 25 -17 39.5t-43 14.5h-39v67h41q24 0 39.5 14t15.5 37q0 26 -18 41.5t-45 15.5h-5q-26 0 -43 -15.5t-17 -40.5h-75q0 55 40 85t100 30q58 0 98 -29t40 -81q0 -32 -16.5 -56.5
t-45.5 -34.5q65 -28 65 -95q0 -53 -42.5 -82t-103.5 -29z" />
    <glyph glyph-name="acute" unicode="&#xb4;" 
d="M223 565l55 135h100l-90 -135h-65z" />
    <glyph glyph-name="paragraph" unicode="&#xb6;" 
d="M290 700h225v-85h-135v-680h-90v390q-86 0 -145.5 51.5t-59.5 138.5q0 86 59 135.5t146 49.5z" />
    <glyph glyph-name="periodcentered" unicode="&#xb7;" 
d="M217 295v120h120v-120h-120z" />
    <glyph glyph-name="cedilla" unicode="&#xb8;" 
d="M205 -245v65h65q55 0 55 40t-40 40h-40v110h65v-60q36 -4 60.5 -27.5t24.5 -62.5q0 -48 -35.5 -76.5t-89.5 -28.5h-65z" />
    <glyph glyph-name="onesuperior" unicode="&#xb9;" 
d="M145 384v298l-115 -96v84l132 109h56v-395h-73z" />
    <glyph glyph-name="ordmasculine" unicode="&#xba;" 
d="M297 310q-82 0 -133.5 56.5t-51.5 143.5q0 90 51 145t134 55t136.5 -55.5t53.5 -144.5q0 -86 -54 -143t-136 -57zM297 385h5q43 0 71.5 33.5t28.5 91.5q0 61 -28.5 95.5t-71.5 34.5h-10q-43 0 -69 -34t-26 -96q0 -59 27 -92t73 -33z" />
    <glyph glyph-name="guillemotright" unicode="&#xbb;" 
d="M383 70h-110l145 215l-145 215h110l145 -215zM182 70h-110l145 215l-145 215h110l145 -215z" />
    <glyph glyph-name="onequarter" unicode="&#xbc;" 
d="M137 0h-60l430 700h60zM125 305v298l-115 -96v84l132 109h56v-395h-73zM508 0v88h-186v64l181 243h78v-243h56v-64h-56v-88h-73zM508 306l-114 -154h114v154z" />
    <glyph glyph-name="onehalf" unicode="&#xbd;" 
d="M114 0h-60l430 700h60zM125 305v298l-115 -96v84l132 109h56v-395h-73zM725 0h-280v81l132 116q3 3 13.5 12t14.5 13l12 12t12 13.5t9 12.5t6.5 14t1.5 14q-1 21 -18 33.5t-41 12.5h-5q-23 0 -41 -15t-20 -42h-76q2 56 42.5 90t99.5 34q57 0 95.5 -31t38.5 -84
q0 -27 -15.5 -53.5t-29.5 -39.5t-46 -40l-102 -86h197v-67z" />
    <glyph glyph-name="threequarters" unicode="&#xbe;" 
d="M74 0l184 299q39 2 67 13l72 117q-4 29 -27 52l134 219h60l-167 -271q2 -12 2 -19q0 -70 -74 -98l-191 -312h-60zM253 299q-60 0 -100.5 31.5t-40.5 87.5h75q0 -26 18 -41.5t45 -15.5h5q31 0 51 17l16 26q2 8 2 14q0 25 -17 39.5t-43 14.5h-39v67h41q24 0 39.5 14
t15.5 37q0 26 -18 41.5t-45 15.5h-5q-26 0 -43 -15.5t-17 -40.5h-75q0 55 40 85t100 30q58 0 98 -29t40 -81q0 -32 -16.5 -56.5t-45.5 -34.5q21 -9 36 -24l-48 -77q-3 -14 -16 -26l-48 -79h-5zM465 0v88h-186v64l181 243h78v-243h56v-64h-56v-88h-73zM465 306l-114 -154h114
v154z" />
    <glyph glyph-name="questiondown" unicode="&#xbf;" 
d="M410 499v-115h-115v115h115zM400 299v-115q0 -48 -20 -71.5t-70 -23.5q-55 0 -85 -28t-30 -72t30.5 -72t84.5 -28h195v-90h-205q-98 0 -151.5 49.5t-53.5 140.5q0 81 52.5 133t122.5 52q22 0 28.5 8.5t6.5 31.5v85h95z" />
    <glyph glyph-name="Agrave" unicode="&#xc0;" 
d="M298 890l40 -130h-70l-105 130h135zM400 270l-101 340l-99 -340h200zM480 0l-54 180h-253l-52 -180h-101l215 700h130l215 -700h-100z" />
    <glyph glyph-name="Aacute" unicode="&#xc1;" 
d="M263 760l40 130h135l-105 -130h-70zM400 270l-101 340l-99 -340h200zM480 0l-54 180h-253l-52 -180h-101l215 700h130l215 -700h-100z" />
    <glyph glyph-name="Acircumflex" unicode="&#xc2;" 
d="M480 760h-70l-110 60l-110 -60h-70l120 130h120zM400 270l-101 340l-99 -340h200zM480 0l-54 180h-253l-52 -180h-101l215 700h130l215 -700h-100z" />
    <glyph glyph-name="Atilde" unicode="&#xc3;" 
d="M366 832q34 0 34 39h80v-16q0 -42 -29.5 -71t-70.5 -29q-37 0 -80 23l-18 10q-27 15 -44 15q-18 0 -27.5 -11.5t-9.5 -27.5h-80v16q0 42 29.5 71t72.5 29q39 0 75 -19l18 -10q38 -19 50 -19zM400 270l-101 340l-99 -340h200zM480 0l-54 180h-253l-52 -180h-101l215 700
h130l215 -700h-100z" />
    <glyph glyph-name="Adieresis" unicode="&#xc4;" 
d="M345 770v110h105v-110h-105zM150 770v110h105v-110h-105zM400 270l-101 340l-99 -340h200zM480 0l-54 180h-253l-52 -180h-101l215 700h130l215 -700h-100z" />
    <glyph glyph-name="Aring" unicode="&#xc5;" 
d="M200 840q0 42 30 71t70 29q41 0 70.5 -28.5t29.5 -71.5t-29.5 -71.5t-70.5 -28.5q-40 0 -70 29t-30 71zM301 886q-19 0 -32.5 -13.5t-13.5 -32.5t13.5 -32.5t32.5 -13.5t32 13.5t13 32.5t-13 32.5t-32 13.5zM400 270l-101 340l-99 -340h200zM480 0l-54 180h-253l-52 -180
h-101l215 700h130l215 -700h-100z" />
    <glyph glyph-name="AE" unicode="&#xc6;" 
d="M269 615l-90 -345h90v345zM269 180h-113l-47 -180h-100l206 700h340v-90h-185v-205h170v-95h-170v-215h220v-95h-321v180z" />
    <glyph glyph-name="Ccedilla" unicode="&#xc7;" 
d="M396 -141q0 -47 -32 -75.5t-83 -28.5h-77v67h68q52 0 52 39q0 35 -43 35h-37v100q-204 42 -204 354q0 175 66.5 267.5t199.5 92.5q103 0 167 -70t68 -160h-100q-4 58 -40 99t-90 41h-10q-89 0 -125 -68.5t-36 -201.5t37 -201.5t129 -68.5h10q55 0 88.5 38t41.5 107h100
q-11 -107 -72 -171t-163 -64h-2v-36q35 0 61 -27t26 -68z" />
    <glyph glyph-name="Egrave" unicode="&#xc8;" 
d="M348 890l40 -130h-70l-105 130h135zM70 0v700h460v-90h-360v-205h300v-90h-300v-225h370v-90h-470z" />
    <glyph glyph-name="Eacute" unicode="&#xc9;" 
d="M282 760l40 130h135l-105 -130h-70zM70 0v700h460v-90h-360v-205h300v-90h-300v-225h370v-90h-470z" />
    <glyph glyph-name="Ecircumflex" unicode="&#xca;" 
d="M480 760h-70l-110 60l-110 -60h-70l120 130h120zM70 0v700h460v-90h-360v-205h300v-90h-300v-225h370v-90h-470z" />
    <glyph glyph-name="Edieresis" unicode="&#xcb;" 
d="M347 770v110h105v-110h-105zM152 770v110h105v-110h-105zM70 0v700h460v-90h-360v-205h300v-90h-300v-225h370v-90h-470z" />
    <glyph glyph-name="Igrave" unicode="&#xcc;" 
d="M348 890l40 -130h-70l-105 130h135zM525 0h-450v90h175v520h-169v90h439v-90h-170v-520h175v-90z" />
    <glyph glyph-name="Iacute" unicode="&#xcd;" 
d="M282 760l40 130h135l-105 -130h-70zM525 0h-450v90h175v520h-169v90h439v-90h-170v-520h175v-90z" />
    <glyph glyph-name="Icircumflex" unicode="&#xce;" 
d="M480 760h-70l-110 60l-110 -60h-70l120 130h120zM525 0h-450v90h175v520h-169v90h439v-90h-170v-520h175v-90z" />
    <glyph glyph-name="Idieresis" unicode="&#xcf;" 
d="M347 770v110h105v-110h-105zM152 770v110h105v-110h-105zM525 0h-450v90h175v520h-169v90h439v-90h-170v-520h175v-90z" />
    <glyph glyph-name="Eth" unicode="&#xd0;" 
d="M264 0h-180v305h-85v90h85v305h180q145 0 225 -94.5t80 -260.5q0 -162 -80 -253.5t-225 -91.5zM184 90h70q215 0 215 260q0 130 -52 195t-163 65h-70v-215h162v-90h-162v-215z" />
    <glyph glyph-name="Ntilde" unicode="&#xd1;" 
d="M373 832q34 0 34 39h80v-16q0 -42 -29.5 -71t-70.5 -29q-37 0 -80 23l-18 10q-27 15 -44 15q-18 0 -27.5 -11.5t-9.5 -27.5h-80v16q0 42 29.5 71t72.5 29q39 0 75 -19l18 -10q38 -19 50 -19zM70 0v700h140l220 -580v580h100v-700h-140l-220 580v-580h-100z" />
    <glyph glyph-name="Ograve" unicode="&#xd2;" 
d="M298 890l40 -130h-70l-105 130h135zM300 710q126 0 193 -94.5t67 -265.5t-67 -265.5t-193 -94.5t-193 94.5t-67 265.5t67 265.5t193 94.5zM295 80h10q75 0 115 71t40 199t-40 199t-115 71h-10q-75 0 -115 -71t-40 -199t40 -199t115 -71z" />
    <glyph glyph-name="Oacute" unicode="&#xd3;" 
d="M263 760l40 130h135l-105 -130h-70zM300 710q126 0 193 -94.5t67 -265.5t-67 -265.5t-193 -94.5t-193 94.5t-67 265.5t67 265.5t193 94.5zM295 80h10q75 0 115 71t40 199t-40 199t-115 71h-10q-75 0 -115 -71t-40 -199t40 -199t115 -71z" />
    <glyph glyph-name="Ocircumflex" unicode="&#xd4;" 
d="M480 760h-70l-110 60l-110 -60h-70l120 130h120zM300 710q126 0 193 -94.5t67 -265.5t-67 -265.5t-193 -94.5t-193 94.5t-67 265.5t67 265.5t193 94.5zM295 80h10q75 0 115 71t40 199t-40 199t-115 71h-10q-75 0 -115 -71t-40 -199t40 -199t115 -71z" />
    <glyph glyph-name="Otilde" unicode="&#xd5;" 
d="M366 832q34 0 34 39h80v-16q0 -42 -29.5 -71t-70.5 -29q-37 0 -80 23l-18 10q-27 15 -44 15q-18 0 -27.5 -11.5t-9.5 -27.5h-80v16q0 42 29.5 71t72.5 29q39 0 75 -19l18 -10q38 -19 50 -19zM300 710q126 0 193 -94.5t67 -265.5t-67 -265.5t-193 -94.5t-193 94.5
t-67 265.5t67 265.5t193 94.5zM295 80h10q75 0 115 71t40 199t-40 199t-115 71h-10q-75 0 -115 -71t-40 -199t40 -199t115 -71z" />
    <glyph glyph-name="Odieresis" unicode="&#xd6;" 
d="M345 770v110h105v-110h-105zM150 770v110h105v-110h-105zM300 710q126 0 193 -94.5t67 -265.5t-67 -265.5t-193 -94.5t-193 94.5t-67 265.5t67 265.5t193 94.5zM295 80h10q75 0 115 71t40 199t-40 199t-115 71h-10q-75 0 -115 -71t-40 -199t40 -199t115 -71z" />
    <glyph glyph-name="multiply" unicode="&#xd7;" 
d="M455 140l-155 155l-155 -155l-60 60l155 155l-155 155l60 60l155 -155l155 155l60 -60l-155 -155l155 -155z" />
    <glyph glyph-name="Oslash" unicode="&#xd8;" 
d="M140 350q0 -63 11 -118l261 330q-40 58 -107 58h-10q-75 0 -115 -71t-40 -199zM295 80h10q75 0 115 71t40 199q0 64 -11 117l-260 -330q40 -57 106 -57zM300 -10q-108 0 -172 69l-75 -94l-70 55l94 119q-37 83 -37 211q0 171 67 265.5t193 94.5q108 0 173 -70l75 95
l70 -55l-94 -120q36 -84 36 -210q0 -171 -67 -265.5t-193 -94.5z" />
    <glyph glyph-name="Ugrave" unicode="&#xd9;" 
d="M298 890l40 -130h-70l-105 130h135zM300 -10q-128 0 -181.5 67.5t-53.5 192.5v450h100v-440q0 -93 27.5 -136.5t102.5 -43.5h10q75 0 102.5 43.5t27.5 136.5v440h100v-450q0 -125 -53.5 -192.5t-181.5 -67.5z" />
    <glyph glyph-name="Uacute" unicode="&#xda;" 
d="M263 760l40 130h135l-105 -130h-70zM300 -10q-128 0 -181.5 67.5t-53.5 192.5v450h100v-440q0 -93 27.5 -136.5t102.5 -43.5h10q75 0 102.5 43.5t27.5 136.5v440h100v-450q0 -125 -53.5 -192.5t-181.5 -67.5z" />
    <glyph glyph-name="Ucircumflex" unicode="&#xdb;" 
d="M480 760h-70l-110 60l-110 -60h-70l120 130h120zM300 -10q-128 0 -181.5 67.5t-53.5 192.5v450h100v-440q0 -93 27.5 -136.5t102.5 -43.5h10q75 0 102.5 43.5t27.5 136.5v440h100v-450q0 -125 -53.5 -192.5t-181.5 -67.5z" />
    <glyph glyph-name="Udieresis" unicode="&#xdc;" 
d="M345 770v110h105v-110h-105zM150 770v110h105v-110h-105zM300 -10q-128 0 -181.5 67.5t-53.5 192.5v450h100v-440q0 -93 27.5 -136.5t102.5 -43.5h10q75 0 102.5 43.5t27.5 136.5v440h100v-450q0 -125 -53.5 -192.5t-181.5 -67.5z" />
    <glyph glyph-name="Yacute" unicode="&#xdd;" 
d="M263 760l40 130h135l-105 -130h-70zM350 0h-100v290l-231 410h116l167 -302l163 302h115l-230 -410v-290z" />
    <glyph glyph-name="Thorn" unicode="&#xde;" 
d="M70 700h100v-140h200q99 0 157 -55t58 -155t-58 -155t-157 -55h-200v-140h-100v700zM170 230h180q140 0 140 120t-140 120h-180v-240z" />
    <glyph glyph-name="germandbls" unicode="&#xdf;" 
d="M240 0v85h39q67 0 104 33t37 88q0 58 -37.5 91t-92.5 33h-50v80h45q47 0 81 34t34 76q0 49 -29 79.5t-73 30.5h-10q-50 0 -79 -36.5t-29 -98.5v-495h-95v503q0 93 56 150t152 57q87 0 142 -50.5t55 -128.5q0 -62 -33 -102.5t-77 -53.5q48 -4 91.5 -52t43.5 -120
q0 -93 -60 -148t-162 -55h-53z" />
    <glyph glyph-name="agrave" unicode="&#xe0;" 
d="M283 700l55 -135h-65l-90 135h100zM265 70h10q47 0 91 33.5t44 76.5v51l-125 -10q-45 -4 -72.5 -24.5t-27.5 -54.5q0 -31 23 -51.5t57 -20.5zM255 -10q-71 0 -118 42t-47 106q0 41 16.5 71t44.5 47t57.5 25.5t63.5 11.5l138 11v16q0 52 -28 81t-77 29h-5
q-42 0 -71.5 -19.5t-33.5 -55.5h-95q4 69 60.5 112t141.5 43q96 0 149.5 -54.5t53.5 -135.5v-210q0 -75 5 -110h-90q-5 25 -5 80q-16 -37 -59.5 -63.5t-100.5 -26.5z" />
    <glyph glyph-name="aacute" unicode="&#xe1;" 
d="M263 565l55 135h100l-90 -135h-65zM265 70h10q47 0 91 33.5t44 76.5v51l-125 -10q-45 -4 -72.5 -24.5t-27.5 -54.5q0 -31 23 -51.5t57 -20.5zM255 -10q-71 0 -118 42t-47 106q0 41 16.5 71t44.5 47t57.5 25.5t63.5 11.5l138 11v16q0 52 -28 81t-77 29h-5
q-42 0 -71.5 -19.5t-33.5 -55.5h-95q4 69 60.5 112t141.5 43q96 0 149.5 -54.5t53.5 -135.5v-210q0 -75 5 -110h-90q-5 25 -5 80q-16 -37 -59.5 -63.5t-100.5 -26.5z" />
    <glyph glyph-name="acircumflex" unicode="&#xe2;" 
d="M130 565l120 135h100l120 -135h-70l-99 75l-101 -75h-70zM265 70h10q47 0 91 33.5t44 76.5v51l-125 -10q-45 -4 -72.5 -24.5t-27.5 -54.5q0 -31 23 -51.5t57 -20.5zM255 -10q-71 0 -118 42t-47 106q0 41 16.5 71t44.5 47t57.5 25.5t63.5 11.5l138 11v16q0 52 -28 81
t-77 29h-5q-42 0 -71.5 -19.5t-33.5 -55.5h-95q4 69 60.5 112t141.5 43q96 0 149.5 -54.5t53.5 -135.5v-210q0 -75 5 -110h-90q-5 25 -5 80q-16 -37 -59.5 -63.5t-100.5 -26.5z" />
    <glyph glyph-name="atilde" unicode="&#xe3;" 
d="M364 638q13 0 21 13t8 29h70q0 -51 -24 -80.5t-64 -29.5q-38 0 -78 22l-18 10q-28 15 -37 15q-30 0 -34 -42h-70q0 50 27 80t71 30q31 0 66 -20l18 -10q32 -17 44 -17zM265 70h10q47 0 91 33.5t44 76.5v51l-125 -10q-45 -4 -72.5 -24.5t-27.5 -54.5q0 -31 23 -51.5
t57 -20.5zM255 -10q-71 0 -118 42t-47 106q0 41 16.5 71t44.5 47t57.5 25.5t63.5 11.5l138 11v16q0 52 -28 81t-77 29h-5q-42 0 -71.5 -19.5t-33.5 -55.5h-95q4 69 60.5 112t141.5 43q96 0 149.5 -54.5t53.5 -135.5v-210q0 -75 5 -110h-90q-5 25 -5 80q-16 -37 -59.5 -63.5
t-100.5 -26.5z" />
    <glyph glyph-name="adieresis" unicode="&#xe4;" 
d="M347 585v105h100v-105h-100zM157 585v105h100v-105h-100zM265 70h10q47 0 91 33.5t44 76.5v51l-125 -10q-45 -4 -72.5 -24.5t-27.5 -54.5q0 -31 23 -51.5t57 -20.5zM255 -10q-71 0 -118 42t-47 106q0 41 16.5 71t44.5 47t57.5 25.5t63.5 11.5l138 11v16q0 52 -28 81
t-77 29h-5q-42 0 -71.5 -19.5t-33.5 -55.5h-95q4 69 60.5 112t141.5 43q96 0 149.5 -54.5t53.5 -135.5v-210q0 -75 5 -110h-90q-5 25 -5 80q-16 -37 -59.5 -63.5t-100.5 -26.5z" />
    <glyph glyph-name="aring" unicode="&#xe5;" 
d="M205 645q0 40 28.5 67.5t66.5 27.5t66.5 -27.5t28.5 -67.5t-28.5 -67.5t-66.5 -27.5t-66.5 27.5t-28.5 67.5zM301 689q-18 0 -31 -13t-13 -31t13 -31t31 -13t30.5 13t12.5 31t-12.5 31t-30.5 13zM265 70h10q47 0 91 33.5t44 76.5v51l-125 -10q-45 -4 -72.5 -24.5
t-27.5 -54.5q0 -31 23 -51.5t57 -20.5zM255 -10q-71 0 -118 42t-47 106q0 41 16.5 71t44.5 47t57.5 25.5t63.5 11.5l138 11v16q0 52 -28 81t-77 29h-5q-42 0 -71.5 -19.5t-33.5 -55.5h-95q4 69 60.5 112t141.5 43q96 0 149.5 -54.5t53.5 -135.5v-210q0 -75 5 -110h-90
q-5 25 -5 80q-16 -37 -59.5 -63.5t-100.5 -26.5z" />
    <glyph glyph-name="ae" unicode="&#xe6;" 
d="M410 429q-35 0 -52 -27t-21 -93h158q0 120 -75 120h-10zM595 144q-4 -25 -8 -42t-16 -40t-28.5 -37.5t-47 -25t-70.5 -10.5q-109 0 -150 86q-47 -85 -149 -85q-70 0 -103.5 39t-33.5 106q0 81 40 113.5t111 38.5l101 13v25q0 55 -15 80t-55 25h-5q-62 0 -70 -75h-97
q4 71 46.5 113t125.5 42q85 0 126 -47q41 46 118 46q175 0 175 -240v-35h-255q2 -90 20.5 -127.5t64.5 -37.5h10q70 0 70 75h95zM143 70h10q37 0 62.5 32.5t25.5 77.5v47l-90 -12q-41 -4 -53.5 -21t-12.5 -55q0 -31 15.5 -50t42.5 -19z" />
    <glyph glyph-name="ccedilla" unicode="&#xe7;" 
d="M435 -140q0 -48 -35.5 -76.5t-89.5 -28.5h-65v65h65q55 0 55 40t-40 40h-40v91q-102 5 -163.5 76t-61.5 183q0 115 71 187.5t181 72.5q81 0 143.5 -49t69.5 -126h-95q-7 43 -41 69t-77 26h-10q-62 0 -104.5 -50t-42.5 -130q0 -91 41.5 -135.5t100.5 -44.5h10
q51 0 85.5 25.5t42.5 64.5h95q-7 -65 -56 -110t-124 -56v-44q36 -4 60.5 -27.5t24.5 -62.5z" />
    <glyph glyph-name="egrave" unicode="&#xe8;" 
d="M283 700l55 -135h-65l-90 135h100zM303 430q-43 0 -78 -28t-48 -87h247q0 50 -30.5 82.5t-80.5 32.5h-10zM519 148q-12 -75 -69 -116.5t-137 -41.5q-100 0 -169 68t-69 193q0 123 68.5 191t164.5 68q95 0 153.5 -64t58.5 -161v-50h-350q4 -81 47 -123t99 -42
q42 0 71.5 20t36.5 58h95z" />
    <glyph glyph-name="eacute" unicode="&#xe9;" 
d="M263 565l55 135h100l-90 -135h-65zM303 430q-43 0 -78 -28t-48 -87h247q0 50 -30.5 82.5t-80.5 32.5h-10zM519 148q-12 -75 -69 -116.5t-137 -41.5q-100 0 -169 68t-69 193q0 123 68.5 191t164.5 68q95 0 153.5 -64t58.5 -161v-50h-350q4 -81 47 -123t99 -42
q42 0 71.5 20t36.5 58h95z" />
    <glyph glyph-name="ecircumflex" unicode="&#xea;" 
d="M130 565l120 135h100l120 -135h-70l-99 75l-101 -75h-70zM303 430q-43 0 -78 -28t-48 -87h247q0 50 -30.5 82.5t-80.5 32.5h-10zM519 148q-12 -75 -69 -116.5t-137 -41.5q-100 0 -169 68t-69 193q0 123 68.5 191t164.5 68q95 0 153.5 -64t58.5 -161v-50h-350
q4 -81 47 -123t99 -42q42 0 71.5 20t36.5 58h95z" />
    <glyph glyph-name="edieresis" unicode="&#xeb;" 
d="M345 585v105h100v-105h-100zM155 585v105h100v-105h-100zM303 430q-43 0 -78 -28t-48 -87h247q0 50 -30.5 82.5t-80.5 32.5h-10zM519 148q-12 -75 -69 -116.5t-137 -41.5q-100 0 -169 68t-69 193q0 123 68.5 191t164.5 68q95 0 153.5 -64t58.5 -161v-50h-350
q4 -81 47 -123t99 -42q42 0 71.5 20t36.5 58h95z" />
    <glyph glyph-name="igrave" unicode="&#xec;" 
d="M323 700l55 -135h-65l-90 135h100zM529 0h-457v88h181v322h-139v90h234v-412h181v-88z" />
    <glyph glyph-name="iacute" unicode="&#xed;" 
d="M265 565l55 135h100l-90 -135h-65zM529 0h-457v88h181v322h-139v90h234v-412h181v-88z" />
    <glyph glyph-name="icircumflex" unicode="&#xee;" 
d="M130 565l120 135h100l120 -135h-70l-99 75l-101 -75h-70zM529 0h-457v88h181v322h-139v90h234v-412h181v-88z" />
    <glyph glyph-name="idieresis" unicode="&#xef;" 
d="M347 585v105h100v-105h-100zM157 585v105h100v-105h-100zM529 0h-457v88h181v322h-139v90h234v-412h181v-88z" />
    <glyph glyph-name="eth" unicode="&#xf0;" 
d="M297 -10q-110 0 -172.5 68t-62.5 183q0 107 62 175.5t158 68.5q93 0 150 -65l-2 18q-14 75 -62 122l-96 -65v80l35 24q-49 21 -118 21v80q115 0 195 -50l88 60v-80l-35 -23q100 -104 100 -305q0 -157 -65 -234.5t-175 -77.5zM297 75h5q61 0 100.5 41.5t39.5 123.5
q0 80 -39 122.5t-101 42.5h-10q-59 0 -97 -43t-38 -121q0 -80 40 -123t100 -43z" />
    <glyph glyph-name="ntilde" unicode="&#xf1;" 
d="M368 638q13 0 21 13t8 29h70q0 -51 -24 -80.5t-64 -29.5q-38 0 -78 22l-18 10q-28 15 -37 15q-30 0 -34 -42h-70q0 50 27 80t71 30q31 0 66 -20l18 -10q32 -17 44 -17zM85 0v500h95v-95q16 45 58.5 75t106.5 30q84 0 129.5 -49.5t45.5 -130.5v-330h-95v310
q0 120 -105 120h-10q-52 0 -91 -44t-39 -116v-270h-95z" />
    <glyph glyph-name="ograve" unicode="&#xf2;" 
d="M323 700l55 -135h-65l-90 135h100zM300 -10q-106 0 -173 70.5t-67 189.5q0 115 68.5 187.5t171.5 72.5t171.5 -72.5t68.5 -187.5q0 -119 -67 -189.5t-173 -70.5zM305 70q62 0 101 48t39 132t-39 132t-101 48h-10q-62 0 -101 -48t-39 -132t39 -132t101 -48h10z" />
    <glyph glyph-name="oacute" unicode="&#xf3;" 
d="M265 565l55 135h100l-90 -135h-65zM300 -10q-106 0 -173 70.5t-67 189.5q0 115 68.5 187.5t171.5 72.5t171.5 -72.5t68.5 -187.5q0 -119 -67 -189.5t-173 -70.5zM305 70q62 0 101 48t39 132t-39 132t-101 48h-10q-62 0 -101 -48t-39 -132t39 -132t101 -48h10z" />
    <glyph glyph-name="ocircumflex" unicode="&#xf4;" 
d="M130 565l120 135h100l120 -135h-70l-99 75l-101 -75h-70zM300 -10q-106 0 -173 70.5t-67 189.5q0 115 68.5 187.5t171.5 72.5t171.5 -72.5t68.5 -187.5q0 -119 -67 -189.5t-173 -70.5zM305 70q62 0 101 48t39 132t-39 132t-101 48h-10q-62 0 -101 -48t-39 -132t39 -132
t101 -48h10z" />
    <glyph glyph-name="otilde" unicode="&#xf5;" 
d="M368 638q13 0 21 13t8 29h70q0 -51 -24 -80.5t-64 -29.5q-38 0 -78 22l-18 10q-28 15 -37 15q-30 0 -34 -42h-70q0 50 27 80t71 30q31 0 66 -20l18 -10q32 -17 44 -17zM300 -10q-106 0 -173 70.5t-67 189.5q0 115 68.5 187.5t171.5 72.5t171.5 -72.5t68.5 -187.5
q0 -119 -67 -189.5t-173 -70.5zM305 70q62 0 101 48t39 132t-39 132t-101 48h-10q-62 0 -101 -48t-39 -132t39 -132t101 -48h10z" />
    <glyph glyph-name="odieresis" unicode="&#xf6;" 
d="M347 585v105h100v-105h-100zM157 585v105h100v-105h-100zM300 -10q-106 0 -173 70.5t-67 189.5q0 115 68.5 187.5t171.5 72.5t171.5 -72.5t68.5 -187.5q0 -119 -67 -189.5t-173 -70.5zM305 70q62 0 101 48t39 132t-39 132t-101 48h-10q-62 0 -101 -48t-39 -132t39 -132
t101 -48h10z" />
    <glyph glyph-name="divide" unicode="&#xf7;" 
d="M250 465v115h105v-115h-105zM55 310v85h490v-85h-490zM250 125v115h105v-115h-105z" />
    <glyph glyph-name="oslash" unicode="&#xf8;" 
d="M150 250q0 -46 13 -85l194 252q-25 13 -57 13h-10q-62 0 -101 -48t-39 -132zM290 70h10q62 0 101 48t39 132q0 68 -26 112l-204 -265q33 -27 80 -27zM295 -10q-79 0 -137 40l-57 -75l-60 50l61 80q-47 67 -47 165q0 115 68.5 187.5t171.5 72.5q60 0 112 -27l44 57l65 -45
l-47 -61q66 -72 66 -184q0 -119 -67 -189.5t-173 -70.5z" />
    <glyph glyph-name="ugrave" unicode="&#xf9;" 
d="M283 700l55 -135h-65l-90 135h100zM505 500v-500h-95v95q-16 -45 -57.5 -75t-102.5 -30q-82 0 -126 49.5t-44 130.5v330h95v-310q0 -120 100 -120h10q50 0 87.5 44t37.5 116v270h95z" />
    <glyph glyph-name="uacute" unicode="&#xfa;" 
d="M265 565l55 135h100l-90 -135h-65zM505 500v-500h-95v95q-16 -45 -57.5 -75t-102.5 -30q-82 0 -126 49.5t-44 130.5v330h95v-310q0 -120 100 -120h10q50 0 87.5 44t37.5 116v270h95z" />
    <glyph glyph-name="ucircumflex" unicode="&#xfb;" 
d="M130 565l120 135h100l120 -135h-70l-99 75l-101 -75h-70zM515 500v-500h-95v95q-16 -45 -57.5 -75t-102.5 -30q-82 0 -126 49.5t-44 130.5v330h95v-310q0 -120 100 -120h10q50 0 87.5 44t37.5 116v270h95z" />
    <glyph glyph-name="udieresis" unicode="&#xfc;" 
d="M345 585v105h100v-105h-100zM155 585v105h100v-105h-100zM505 500v-500h-95v95q-16 -45 -57.5 -75t-102.5 -30q-82 0 -126 49.5t-44 130.5v330h95v-310q0 -120 100 -120h10q50 0 87.5 44t37.5 116v270h95z" />
    <glyph glyph-name="yacute" unicode="&#xfd;" 
d="M263 565l55 135h100l-90 -135h-65zM63 -200v80h140q26 0 40.5 16.5t14.5 43.5v70l-210 490h105l150 -370l150 370h100l-205 -490v-100q0 -49 -30.5 -79.5t-79.5 -30.5h-175z" />
    <glyph glyph-name="thorn" unicode="&#xfe;" 
d="M302 435q-63 0 -101.5 -50t-38.5 -130q0 -82 37.5 -131t97.5 -49h5q59 0 94.5 45t35.5 135q0 87 -35 133.5t-90 46.5h-5zM67 700h95v-265q19 34 63.5 57t96.5 23q97 0 153.5 -71.5t56.5 -188.5q0 -121 -62 -193t-158 -72q-48 0 -87.5 23t-62.5 62v-275h-95v900z" />
    <glyph glyph-name="ydieresis" unicode="&#xff;" 
d="M345 585v105h100v-105h-100zM155 585v105h100v-105h-100zM63 -200v80h140q26 0 40.5 16.5t14.5 43.5v70l-210 490h105l150 -370l150 370h100l-205 -490v-100q0 -49 -30.5 -79.5t-79.5 -30.5h-175z" />
    <glyph glyph-name="Amacron" unicode="&#x100;" 
d="M155 780v80h290v-80h-290zM400 270l-101 340l-99 -340h200zM480 0l-54 180h-253l-52 -180h-101l215 700h130l215 -700h-100z" />
    <glyph glyph-name="amacron" unicode="&#x101;" 
d="M157 590v80h285v-80h-285zM265 70h10q47 0 91 33.5t44 76.5v51l-125 -10q-45 -4 -72.5 -24.5t-27.5 -54.5q0 -31 23 -51.5t57 -20.5zM255 -10q-71 0 -118 42t-47 106q0 41 16.5 71t44.5 47t57.5 25.5t63.5 11.5l138 11v16q0 52 -28 81t-77 29h-5q-42 0 -71.5 -19.5
t-33.5 -55.5h-95q4 69 60.5 112t141.5 43q96 0 149.5 -54.5t53.5 -135.5v-210q0 -75 5 -110h-90q-5 25 -5 80q-16 -37 -59.5 -63.5t-100.5 -26.5z" />
    <glyph glyph-name="Abreve" unicode="&#x102;" 
d="M300 817q35 0 59 18.5t26 54.5h75q-1 -67 -45.5 -107.5t-114.5 -40.5t-114.5 40.5t-45.5 107.5h75q2 -36 26 -54.5t59 -18.5zM400 270l-101 340l-99 -340h200zM480 0l-54 180h-253l-52 -180h-101l215 700h130l215 -700h-100z" />
    <glyph glyph-name="abreve" unicode="&#x103;" 
d="M300 560q-63 0 -104.5 36t-45.5 104h70q7 -75 80 -75t80 75h70q-4 -68 -47 -104t-103 -36zM265 70h10q47 0 91 33.5t44 76.5v51l-125 -10q-45 -4 -72.5 -24.5t-27.5 -54.5q0 -31 23 -51.5t57 -20.5zM255 -10q-71 0 -118 42t-47 106q0 41 16.5 71t44.5 47t57.5 25.5
t63.5 11.5l138 11v16q0 52 -28 81t-77 29h-5q-42 0 -71.5 -19.5t-33.5 -55.5h-95q4 69 60.5 112t141.5 43q96 0 149.5 -54.5t53.5 -135.5v-210q0 -75 5 -110h-90q-5 25 -5 80q-16 -37 -59.5 -63.5t-100.5 -26.5z" />
    <glyph glyph-name="Aogonek" unicode="&#x104;" 
d="M400 270l-101 340l-99 -340h200zM579 -150v-70h-35q-53 0 -84 28t-31 77q0 70 72 115h-21l-54 180h-253l-52 -180h-101l215 700h130l215 -700h-1q-80 -50 -80 -100t65 -50h15z" />
    <glyph glyph-name="aogonek" unicode="&#x105;" 
d="M265 70h10q47 0 91 33.5t44 76.5v51l-125 -10q-45 -4 -72.5 -24.5t-27.5 -54.5q0 -31 23 -51.5t57 -20.5zM510 -150v-70h-35q-53 0 -84 28t-31 77q0 68 86 115h-26q-5 25 -5 80q-16 -37 -59.5 -63.5t-100.5 -26.5q-71 0 -118 42t-47 106q0 41 16.5 71t44.5 47t57.5 25.5
t63.5 11.5l138 11v16q0 52 -28 81t-77 29h-5q-42 0 -71.5 -19.5t-33.5 -55.5h-95q4 69 60.5 112t141.5 43q96 0 149.5 -54.5t53.5 -135.5v-210q0 -75 5 -110q-80 -50 -80 -100t65 -50h15z" />
    <glyph glyph-name="Cacute" unicode="&#x106;" 
d="M282 760l40 130h135l-105 -130h-70zM311 -10q-271 0 -271 360q0 175 66.5 267.5t199.5 92.5q103 0 167 -70t68 -160h-100q-4 58 -40 99t-90 41h-10q-89 0 -125 -68.5t-36 -201.5t37 -201.5t129 -68.5h10q55 0 88.5 38t41.5 107h100q-11 -107 -72 -171t-163 -64z" />
    <glyph glyph-name="cacute" unicode="&#x107;" 
d="M263 565l55 135h100l-90 -135h-65zM302 -10q-109 0 -175.5 72t-66.5 188q0 115 71 187.5t181 72.5q81 0 143.5 -49t69.5 -126h-95q-7 43 -41 69t-77 26h-10q-62 0 -104.5 -50t-42.5 -130q0 -91 41.5 -135.5t100.5 -44.5h10q51 0 85.5 25.5t42.5 64.5h95
q-8 -75 -71 -122.5t-157 -47.5z" />
    <glyph glyph-name="Ccircumflex" unicode="&#x108;" 
d="M480 760h-70l-110 60l-110 -60h-70l120 130h120zM311 -10q-271 0 -271 360q0 175 66.5 267.5t199.5 92.5q103 0 167 -70t68 -160h-100q-4 58 -40 99t-90 41h-10q-89 0 -125 -68.5t-36 -201.5t37 -201.5t129 -68.5h10q55 0 88.5 38t41.5 107h100q-11 -107 -72 -171
t-163 -64z" />
    <glyph glyph-name="ccircumflex" unicode="&#x109;" 
d="M130 565l120 135h100l120 -135h-70l-99 75l-101 -75h-70zM302 -10q-109 0 -175.5 72t-66.5 188q0 115 71 187.5t181 72.5q81 0 143.5 -49t69.5 -126h-95q-7 43 -41 69t-77 26h-10q-62 0 -104.5 -50t-42.5 -130q0 -91 41.5 -135.5t100.5 -44.5h10q51 0 85.5 25.5
t42.5 64.5h95q-8 -75 -71 -122.5t-157 -47.5z" />
    <glyph glyph-name="Cdotaccent" unicode="&#x10a;" 
d="M244 770v110h115v-110h-115zM311 -10q-271 0 -271 360q0 175 66.5 267.5t199.5 92.5q103 0 167 -70t68 -160h-100q-4 58 -40 99t-90 41h-10q-89 0 -125 -68.5t-36 -201.5t37 -201.5t129 -68.5h10q55 0 88.5 38t41.5 107h100q-11 -107 -72 -171t-163 -64z" />
    <glyph glyph-name="cdotaccent" unicode="&#x10b;" 
d="M251 590v110h100v-110h-100zM302 -10q-109 0 -175.5 72t-66.5 188q0 115 71 187.5t181 72.5q81 0 143.5 -49t69.5 -126h-95q-7 43 -41 69t-77 26h-10q-62 0 -104.5 -50t-42.5 -130q0 -91 41.5 -135.5t100.5 -44.5h10q51 0 85.5 25.5t42.5 64.5h95q-8 -75 -71 -122.5
t-157 -47.5z" />
    <glyph glyph-name="Ccaron" unicode="&#x10c;" 
d="M410 890h70l-120 -130h-120l-120 130h70l110 -60zM311 -10q-271 0 -271 360q0 175 66.5 267.5t199.5 92.5q103 0 167 -70t68 -160h-100q-4 58 -40 99t-90 41h-10q-89 0 -125 -68.5t-36 -201.5t37 -201.5t129 -68.5h10q55 0 88.5 38t41.5 107h100q-11 -107 -72 -171
t-163 -64z" />
    <glyph glyph-name="ccaron" unicode="&#x10d;" 
d="M250 565l-120 135h70l101 -75l99 75h70l-120 -135h-100zM302 -10q-109 0 -175.5 72t-66.5 188q0 115 71 187.5t181 72.5q81 0 143.5 -49t69.5 -126h-95q-7 43 -41 69t-77 26h-10q-62 0 -104.5 -50t-42.5 -130q0 -91 41.5 -135.5t100.5 -44.5h10q51 0 85.5 25.5t42.5 64.5
h95q-8 -75 -71 -122.5t-157 -47.5z" />
    <glyph glyph-name="Dcaron" unicode="&#x10e;" 
d="M410 890h70l-120 -130h-120l-120 130h70l110 -60zM70 0v700h180q145 0 225 -94.5t80 -260.5q0 -162 -80 -253.5t-225 -91.5h-180zM170 90h70q215 0 215 260q0 130 -52 195t-163 65h-70v-520z" />
    <glyph glyph-name="dcaron" unicode="&#x10f;" 
d="M683 597q0 -51 -30 -79.5t-80 -28.5v43q60 0 60 55v15h-43v98h93v-103zM289 70q58 0 94.5 48t36.5 132t-36.5 132t-94.5 48h-5q-58 0 -93.5 -46.5t-35.5 -133.5t35.5 -133.5t93.5 -46.5h5zM264 -10q-97 0 -150.5 69.5t-53.5 190.5t54.5 190.5t154.5 69.5q49 0 89 -22
t62 -63v275h95v-700h-90v80q-53 -90 -161 -90z" />
    <glyph glyph-name="Dcroat" unicode="&#x110;" 
d="M262 0h-180v305h-80v90h80v305h180q145 0 225 -94.5t80 -260.5q0 -162 -80 -253.5t-225 -91.5zM182 90h70q215 0 215 260q0 130 -52 195t-163 65h-70v-215h160v-90h-160v-215z" />
    <glyph glyph-name="dcroat" unicode="&#x111;" 
d="M266 70q58 0 94.5 48t36.5 132t-36.5 132t-94.5 48h-5q-58 0 -93.5 -46.5t-35.5 -133.5t35.5 -133.5t93.5 -46.5h5zM402 80q-26 -44 -68.5 -67t-92.5 -23q-97 0 -150.5 69.5t-53.5 190.5t54.5 190.5t154.5 69.5q49 0 89 -22t62 -63v135h-114v80h114v60h95v-60h56v-80h-56
v-560h-90v80z" />
    <glyph glyph-name="Emacron" unicode="&#x112;" 
d="M155 780v80h290v-80h-290zM70 0v700h460v-90h-360v-205h300v-90h-300v-225h370v-90h-470z" />
    <glyph glyph-name="emacron" unicode="&#x113;" 
d="M158 590v80h285v-80h-285zM303 430q-43 0 -78 -28t-48 -87h247q0 50 -30.5 82.5t-80.5 32.5h-10zM519 148q-12 -75 -69 -116.5t-137 -41.5q-100 0 -169 68t-69 193q0 123 68.5 191t164.5 68q95 0 153.5 -64t58.5 -161v-50h-350q4 -81 47 -123t99 -42q42 0 71.5 20
t36.5 58h95z" />
    <glyph glyph-name="Ebreve" unicode="&#x114;" 
d="M300 817q35 0 59 18.5t26 54.5h75q-1 -67 -45.5 -107.5t-114.5 -40.5t-114.5 40.5t-45.5 107.5h75q2 -36 26 -54.5t59 -18.5zM70 0v700h460v-90h-360v-205h300v-90h-300v-225h370v-90h-470z" />
    <glyph glyph-name="ebreve" unicode="&#x115;" 
d="M300 560q-63 0 -104.5 36t-45.5 104h70q7 -75 80 -75t80 75h70q-4 -68 -47 -104t-103 -36zM303 430q-43 0 -78 -28t-48 -87h247q0 50 -30.5 82.5t-80.5 32.5h-10zM519 148q-12 -75 -69 -116.5t-137 -41.5q-100 0 -169 68t-69 193q0 123 68.5 191t164.5 68q95 0 153.5 -64
t58.5 -161v-50h-350q4 -81 47 -123t99 -42q42 0 71.5 20t36.5 58h95z" />
    <glyph glyph-name="Edotaccent" unicode="&#x116;" 
d="M244 770v110h115v-110h-115zM70 0v700h460v-90h-360v-205h300v-90h-300v-225h370v-90h-470z" />
    <glyph glyph-name="edotaccent" unicode="&#x117;" 
d="M250 590v110h100v-110h-100zM303 430q-43 0 -78 -28t-48 -87h247q0 50 -30.5 82.5t-80.5 32.5h-10zM519 148q-12 -75 -69 -116.5t-137 -41.5q-100 0 -169 68t-69 193q0 123 68.5 191t164.5 68q95 0 153.5 -64t58.5 -161v-50h-350q4 -81 47 -123t99 -42q42 0 71.5 20
t36.5 58h95z" />
    <glyph glyph-name="Eogonek" unicode="&#x118;" 
d="M375 -150v-70h-35q-53 0 -84 28t-31 77q0 70 72 115h-227v700h460v-90h-360v-205h300v-90h-300v-225h370v-90h-165q-80 -50 -80 -100t65 -50h15z" />
    <glyph glyph-name="eogonek" unicode="&#x119;" 
d="M274 430q-43 0 -78 -28t-48 -87h247q0 50 -30.5 82.5t-80.5 32.5h-10zM351 -145v-70h-35q-53 0 -84 28t-31 77q0 58 62 101q-93 7 -155 74.5t-62 185.5q0 123 68.5 191t164.5 68q95 0 153.5 -64t58.5 -161v-50h-350q4 -81 47 -123t99 -42q42 0 71.5 20t36.5 58h95
q-9 -62 -51 -101.5t-103 -51.5q-65 -45 -65 -90q0 -50 65 -50h15z" />
    <glyph glyph-name="Ecaron" unicode="&#x11a;" 
d="M410 890h70l-120 -130h-120l-120 130h70l110 -60zM70 0v700h460v-90h-360v-205h300v-90h-300v-225h370v-90h-470z" />
    <glyph glyph-name="ecaron" unicode="&#x11b;" 
d="M250 565l-120 135h70l101 -75l99 75h70l-120 -135h-100zM303 430q-43 0 -78 -28t-48 -87h247q0 50 -30.5 82.5t-80.5 32.5h-10zM519 148q-12 -75 -69 -116.5t-137 -41.5q-100 0 -169 68t-69 193q0 123 68.5 191t164.5 68q95 0 153.5 -64t58.5 -161v-50h-350
q4 -81 47 -123t99 -42q42 0 71.5 20t36.5 58h95z" />
    <glyph glyph-name="Gcircumflex" unicode="&#x11c;" 
d="M480 760h-70l-110 60l-110 -60h-70l120 130h120zM461 0v105q-11 -21 -20 -35.5t-28 -35.5t-46 -32.5t-60 -11.5q-137 0 -202 95.5t-65 264.5t65 264.5t202 95.5q97 0 159 -63.5t77 -176.5h-100q-7 74 -41 112t-90 38h-5q-92 0 -129.5 -68.5t-37.5 -201.5q0 -270 183 -270
h10q48 0 88 52t40 113v14h-175v90h160q45 0 72.5 -27t27.5 -72v-250h-85z" />
    <glyph glyph-name="gcircumflex" unicode="&#x11d;" 
d="M130 565l120 135h100l120 -135h-70l-99 75l-101 -75h-70zM303 80h10q60 0 92.5 46t32.5 129t-32.5 129t-92.5 46h-10q-56 0 -93 -44.5t-37 -130.5t37 -130.5t93 -44.5zM278 -220q-91 0 -146.5 43t-63.5 112h95q15 -75 120 -75h10q67 0 106 37t39 113v75
q-20 -36 -60 -60.5t-90 -24.5q-84 0 -147 65t-63 190q0 119 62 187t153 68q49 0 88.5 -26t56.5 -59v75h95v-500q0 -100 -67 -160t-188 -60z" />
    <glyph glyph-name="Gbreve" unicode="&#x11e;" 
d="M300 817q35 0 59 18.5t26 54.5h75q-1 -67 -45.5 -107.5t-114.5 -40.5t-114.5 40.5t-45.5 107.5h75q2 -36 26 -54.5t59 -18.5zM461 0v105q-11 -21 -20 -35.5t-28 -35.5t-46 -32.5t-60 -11.5q-137 0 -202 95.5t-65 264.5t65 264.5t202 95.5q97 0 159 -63.5t77 -176.5h-100
q-7 74 -41 112t-90 38h-5q-92 0 -129.5 -68.5t-37.5 -201.5q0 -270 183 -270h10q48 0 88 52t40 113v14h-175v90h160q45 0 72.5 -27t27.5 -72v-250h-85z" />
    <glyph glyph-name="gbreve" unicode="&#x11f;" 
d="M302 560q-63 0 -104.5 36t-45.5 104h70q7 -75 80 -75t80 75h70q-4 -68 -47 -104t-103 -36zM303 80h10q60 0 92.5 46t32.5 129t-32.5 129t-92.5 46h-10q-56 0 -93 -44.5t-37 -130.5t37 -130.5t93 -44.5zM278 -220q-91 0 -146.5 43t-63.5 112h95q15 -75 120 -75h10
q67 0 106 37t39 113v75q-20 -36 -60 -60.5t-90 -24.5q-84 0 -147 65t-63 190q0 119 62 187t153 68q49 0 88.5 -26t56.5 -59v75h95v-500q0 -100 -67 -160t-188 -60z" />
    <glyph glyph-name="Gdotaccent" unicode="&#x120;" 
d="M244 770v110h115v-110h-115zM461 0v105q-11 -21 -20 -35.5t-28 -35.5t-46 -32.5t-60 -11.5q-137 0 -202 95.5t-65 264.5t65 264.5t202 95.5q97 0 159 -63.5t77 -176.5h-100q-7 74 -41 112t-90 38h-5q-92 0 -129.5 -68.5t-37.5 -201.5q0 -270 183 -270h10q48 0 88 52
t40 113v14h-175v90h160q45 0 72.5 -27t27.5 -72v-250h-85z" />
    <glyph glyph-name="gdotaccent" unicode="&#x121;" 
d="M245 590v110h100v-110h-100zM279 80h10q60 0 92.5 46t32.5 129t-32.5 129t-92.5 46h-10q-56 0 -93 -44.5t-37 -130.5t37 -130.5t93 -44.5zM254 -220q-91 0 -146.5 43t-63.5 112h95q15 -75 120 -75h10q67 0 106 37t39 113v75q-20 -36 -60 -60.5t-90 -24.5q-84 0 -147 65
t-63 190q0 119 62 187t153 68q49 0 88.5 -26t56.5 -59v75h95v-500q0 -100 -67 -160t-188 -60z" />
    <glyph glyph-name="Gcommaaccent" unicode="&#x122;" 
d="M461 0v105q-11 -21 -20 -35.5t-28 -35.5t-46 -32.5t-60 -11.5q-137 0 -202 95.5t-65 264.5t65 264.5t202 95.5q97 0 159 -63.5t77 -176.5h-100q-7 74 -41 112t-90 38h-5q-92 0 -129.5 -68.5t-37.5 -201.5q0 -270 183 -270h10q48 0 88 52t40 113v14h-175v90h160
q45 0 72.5 -27t27.5 -72v-250h-85zM346 -165q0 -51 -30 -79.5t-80 -28.5v43q60 0 60 55v15h-43v98h93v-103z" />
    <glyph glyph-name="gcommaaccent" unicode="&#x123;" 
d="M243 674q0 51 30 79.5t80 28.5v-43q-60 0 -60 -55v-15h43v-98h-93v103zM279 80h10q60 0 92.5 46t32.5 129t-32.5 129t-92.5 46h-10q-56 0 -93 -44.5t-37 -130.5t37 -130.5t93 -44.5zM254 -220q-91 0 -146.5 43t-63.5 112h95q15 -75 120 -75h10q67 0 106 37t39 113v75
q-20 -36 -60 -60.5t-90 -24.5q-84 0 -147 65t-63 190q0 119 62 187t153 68q49 0 88.5 -26t56.5 -59v75h95v-500q0 -100 -67 -160t-188 -60z" />
    <glyph glyph-name="Hcircumflex" unicode="&#x124;" 
d="M480 760h-70l-110 60l-110 -60h-70l120 130h120zM70 0v700h100v-305h260v305h100v-700h-100v305h-260v-305h-100z" />
    <glyph glyph-name="hcircumflex" unicode="&#x125;" 
d="M480 760h-70l-110 60l-110 -60h-70l120 130h120zM85 0v700h95v-295q16 44 61 74.5t109 30.5q83 0 126.5 -52t43.5 -138v-320h-95v310q0 56 -28 88t-77 32h-10q-52 0 -91 -44t-39 -116v-270h-95z" />
    <glyph glyph-name="Hbar" unicode="&#x126;" 
d="M170 395h260v115h-260v-115zM170 305v-305h-100v510h-114v90h114v100h100v-100h260v100h100v-100h113v-90h-113v-510h-100v305h-260z" />
    <glyph glyph-name="hbar" unicode="&#x127;" 
d="M202 270v-270h-95v560h-70v80h70v60h95v-60h100v-80h-100v-155q16 44 61 74.5t109 30.5q83 0 126.5 -52t43.5 -138v-320h-95v310q0 56 -28 88t-77 32h-10q-52 0 -91 -44t-39 -116z" />
    <glyph glyph-name="Itilde" unicode="&#x128;" 
d="M373 832q34 0 34 39h80v-16q0 -42 -29.5 -71t-70.5 -29q-37 0 -80 23l-18 10q-27 15 -44 15q-18 0 -27.5 -11.5t-9.5 -27.5h-80v16q0 42 29.5 71t72.5 29q39 0 75 -19l18 -10q38 -19 50 -19zM525 0h-450v90h175v520h-169v90h439v-90h-170v-520h175v-90z" />
    <glyph glyph-name="itilde" unicode="&#x129;" 
d="M368 638q13 0 21 13t8 29h70q0 -51 -24 -80.5t-64 -29.5q-38 0 -78 22l-18 10q-28 15 -37 15q-30 0 -34 -42h-70q0 50 27 80t71 30q31 0 66 -20l18 -10q32 -17 44 -17zM529 0h-457v88h181v322h-139v90h234v-412h181v-88z" />
    <glyph glyph-name="Imacron" unicode="&#x12a;" 
d="M155 780v80h290v-80h-290zM525 0h-450v90h175v520h-169v90h439v-90h-170v-520h175v-90z" />
    <glyph glyph-name="imacron" unicode="&#x12b;" 
d="M157 590v80h285v-80h-285zM529 0h-457v88h181v322h-139v90h234v-412h181v-88z" />
    <glyph glyph-name="Ibreve" unicode="&#x12c;" 
d="M300 817q35 0 59 18.5t26 54.5h75q-1 -67 -45.5 -107.5t-114.5 -40.5t-114.5 40.5t-45.5 107.5h75q2 -36 26 -54.5t59 -18.5zM525 0h-450v90h175v520h-169v90h439v-90h-170v-520h175v-90z" />
    <glyph glyph-name="ibreve" unicode="&#x12d;" 
d="M302 560q-63 0 -104.5 36t-45.5 104h70q7 -75 80 -75t80 75h70q-4 -68 -47 -104t-103 -36zM529 0h-457v88h181v322h-139v90h234v-412h181v-88z" />
    <glyph glyph-name="Iogonek" unicode="&#x12e;" 
d="M166 -150v-70h-35q-53 0 -84 28t-31 77q0 68 86 115h-51v90h175v520h-169v90h439v-90h-170v-520h175v-90h-335q-80 -50 -80 -100t65 -50h15z" />
    <glyph glyph-name="iogonek" unicode="&#x12f;" 
d="M353 590h-105v110h105v-110zM345 -150v-70h-35q-53 0 -84 28t-31 77q0 68 86 115h-209v82h181v336h-150v82h245v-418h181v-82h-184q-80 -50 -80 -100t65 -50h15z" />
    <glyph glyph-name="Idotaccent" unicode="&#x130;" 
d="M244 770v110h115v-110h-115zM525 0h-450v90h175v520h-169v90h439v-90h-170v-520h175v-90z" />
    <glyph glyph-name="dotlessi" unicode="&#x131;" 
d="M529 0h-457v88h181v322h-139v90h234v-412h181v-88z" />
    <glyph glyph-name="IJ" unicode="&#x132;" 
d="M323 0h-225v100h215q50 0 70 19t20 71v510h100v-520q0 -89 -42.5 -134.5t-137.5 -45.5zM98 185v515h100v-515h-100z" />
    <glyph glyph-name="ij" unicode="&#x133;" 
d="M123 595v115h110v-115h-110zM368 595v115h110v-115h-110zM128 0v505h100v-505h-100zM128 -200v85h200q29 0 39.5 11.5t10.5 38.5v570h95v-605q0 -45 -28.5 -72.5t-76.5 -27.5h-240z" />
    <glyph glyph-name="Jcircumflex" unicode="&#x134;" 
d="M573 760h-70l-110 60l-110 -60h-70l120 130h120zM313 0h-215v95h205q48 0 69 23t21 72v510h100v-520q0 -98 -41.5 -139t-138.5 -41z" />
    <glyph glyph-name="jcircumflex" unicode="&#x135;" 
d="M213 565l120 135h100l120 -135h-70l-99 75l-101 -75h-70zM323 -185h-155v90h125q23 0 31.5 8.5t8.5 31.5v473h-150v82h245v-580q0 -105 -105 -105z" />
    <glyph glyph-name="Kcommaaccent" unicode="&#x136;" 
d="M456 0l-201 333l-95 -112v-221h-100v700h100v-343l291 343h115l-242 -286l257 -414h-125zM346 -165q0 -51 -30 -79.5t-80 -28.5v43q60 0 60 55v15h-43v98h93v-103z" />
    <glyph glyph-name="kcommaaccent" unicode="&#x137;" 
d="M447 0l-181 251l-94 -83v-168h-95v700h95v-418l250 218h125l-211 -187l226 -313h-115zM346 -165q0 -51 -30 -79.5t-80 -28.5v43q60 0 60 55v15h-43v98h93v-103z" />
    <glyph glyph-name="Lacute" unicode="&#x139;" 
d="M75 760l40 130h135l-105 -130h-70zM70 0v700h100v-610h385v-90h-485z" />
    <glyph glyph-name="lacute" unicode="&#x13a;" 
d="M272 760l40 130h135l-105 -130h-70zM519 0h-457v82h181v536h-139v82h234v-618h181v-82z" />
    <glyph glyph-name="Lcommaaccent" unicode="&#x13b;" 
d="M70 0v700h100v-610h385v-90h-485zM346 -165q0 -51 -30 -79.5t-80 -28.5v43q60 0 60 55v15h-43v98h93v-103z" />
    <glyph glyph-name="lcommaaccent" unicode="&#x13c;" 
d="M519 0h-457v82h181v536h-139v82h234v-618h181v-82zM346 -165q0 -51 -30 -79.5t-80 -28.5v43q60 0 60 55v15h-43v98h93v-103z" />
    <glyph glyph-name="Lcaron" unicode="&#x13d;" 
d="M272 445h-25v60h20q70 0 70 60v15h-45v120h110v-130q0 -59 -36 -92t-94 -33zM70 0v700h100v-610h385v-90h-485z" />
    <glyph glyph-name="lcaron" unicode="&#x13e;" 
d="M407 595q0 -51 -30 -79.5t-80 -28.5v43q60 0 60 55v15h-43v98h93v-103zM403 0h-457v82h181v536h-139v82h234v-618h181v-82z" />
    <glyph glyph-name="Ldot" unicode="&#x13f;" 
d="M70 0v700h100v-610h385v-90h-485zM318 345v110h115v-110h-115z" />
    <glyph glyph-name="ldot" unicode="&#x140;" 
d="M328 295v110h100v-110h-100zM391 0h-457v82h181v536h-139v82h234v-618h181v-82z" />
    <glyph glyph-name="Lslash" unicode="&#x141;" 
d="M599 0h-485v270l-106 -60v100l106 61v329h100v-271l175 101v-105l-175 -99v-236h385v-90z" />
    <glyph glyph-name="lslash" unicode="&#x142;" 
d="M519 0h-457v82h181v246l-81 -43v95l81 43v195h-139v82h234v-227l79 42v-95l-79 -42v-296h181v-82z" />
    <glyph glyph-name="Nacute" unicode="&#x143;" 
d="M282 760l40 130h135l-105 -130h-70zM70 0v700h140l220 -580v580h100v-700h-140l-220 580v-580h-100z" />
    <glyph glyph-name="nacute" unicode="&#x144;" 
d="M265 565l55 135h100l-90 -135h-65zM85 0v500h95v-95q16 45 58.5 75t106.5 30q84 0 129.5 -49.5t45.5 -130.5v-330h-95v310q0 120 -105 120h-10q-52 0 -91 -44t-39 -116v-270h-95z" />
    <glyph glyph-name="Ncommaaccent" unicode="&#x145;" 
d="M70 0v700h140l220 -580v580h100v-700h-140l-220 580v-580h-100zM346 -165q0 -51 -30 -79.5t-80 -28.5v43q60 0 60 55v15h-43v98h93v-103z" />
    <glyph glyph-name="ncommaaccent" unicode="&#x146;" 
d="M85 0v500h95v-95q16 45 58.5 75t106.5 30q84 0 129.5 -49.5t45.5 -130.5v-330h-95v310q0 120 -105 120h-10q-52 0 -91 -44t-39 -116v-270h-95zM346 -165q0 -51 -30 -79.5t-80 -28.5v43q60 0 60 55v15h-43v98h93v-103z" />
    <glyph glyph-name="Ncaron" unicode="&#x147;" 
d="M410 890h70l-120 -130h-120l-120 130h70l110 -60zM70 0v700h140l220 -580v580h100v-700h-140l-220 580v-580h-100z" />
    <glyph glyph-name="ncaron" unicode="&#x148;" 
d="M250 565l-120 135h70l101 -75l99 75h70l-120 -135h-100zM85 0v500h95v-95q16 45 58.5 75t106.5 30q84 0 129.5 -49.5t45.5 -130.5v-330h-95v310q0 120 -105 120h-10q-52 0 -91 -44t-39 -116v-270h-95z" />
    <glyph glyph-name="Eng" unicode="&#x14a;" 
d="M410 -205h-95v90h70q29 0 44.5 16.5t15.5 43.5v55h-55l-220 580v-580h-100v700h140l220 -580v580h110v-775q0 -57 -35.5 -93.5t-94.5 -36.5z" />
    <glyph glyph-name="eng" unicode="&#x14b;" 
d="M509 -65q0 -57 -35.5 -93.5t-94.5 -36.5h-85v90h60q29 0 44.5 16.5t15.5 43.5v75h10v280q0 120 -105 120h-10q-52 0 -91 -44t-39 -116v-270h-95v500h95v-95q16 45 58.5 75t106.5 30q84 0 129.5 -49.5t45.5 -130.5v-330h-10v-65z" />
    <glyph glyph-name="Omacron" unicode="&#x14c;" 
d="M155 780v80h290v-80h-290zM300 710q126 0 193 -94.5t67 -265.5t-67 -265.5t-193 -94.5t-193 94.5t-67 265.5t67 265.5t193 94.5zM295 80h10q75 0 115 71t40 199t-40 199t-115 71h-10q-75 0 -115 -71t-40 -199t40 -199t115 -71z" />
    <glyph glyph-name="omacron" unicode="&#x14d;" 
d="M157 590v80h285v-80h-285zM300 -10q-106 0 -173 70.5t-67 189.5q0 115 68.5 187.5t171.5 72.5t171.5 -72.5t68.5 -187.5q0 -119 -67 -189.5t-173 -70.5zM305 70q62 0 101 48t39 132t-39 132t-101 48h-10q-62 0 -101 -48t-39 -132t39 -132t101 -48h10z" />
    <glyph glyph-name="Obreve" unicode="&#x14e;" 
d="M300 817q35 0 59 18.5t26 54.5h75q-1 -67 -45.5 -107.5t-114.5 -40.5t-114.5 40.5t-45.5 107.5h75q2 -36 26 -54.5t59 -18.5zM300 710q126 0 193 -94.5t67 -265.5t-67 -265.5t-193 -94.5t-193 94.5t-67 265.5t67 265.5t193 94.5zM295 80h10q75 0 115 71t40 199t-40 199
t-115 71h-10q-75 0 -115 -71t-40 -199t40 -199t115 -71z" />
    <glyph glyph-name="obreve" unicode="&#x14f;" 
d="M302 560q-63 0 -104.5 36t-45.5 104h70q7 -75 80 -75t80 75h70q-4 -68 -47 -104t-103 -36zM300 -10q-106 0 -173 70.5t-67 189.5q0 115 68.5 187.5t171.5 72.5t171.5 -72.5t68.5 -187.5q0 -119 -67 -189.5t-173 -70.5zM305 70q62 0 101 48t39 132t-39 132t-101 48h-10
q-62 0 -101 -48t-39 -132t39 -132t101 -48h10z" />
    <glyph glyph-name="Ohungarumlaut" unicode="&#x150;" 
d="M335 760l40 130h135l-105 -130h-70zM171 760l40 130h135l-105 -130h-70zM300 710q126 0 193 -94.5t67 -265.5t-67 -265.5t-193 -94.5t-193 94.5t-67 265.5t67 265.5t193 94.5zM295 80h10q75 0 115 71t40 199t-40 199t-115 71h-10q-75 0 -115 -71t-40 -199t40 -199
t115 -71z" />
    <glyph glyph-name="ohungarumlaut" unicode="&#x151;" 
d="M302 565l55 135h100l-90 -135h-65zM143 565l55 135h100l-90 -135h-65zM300 -10q-106 0 -173 70.5t-67 189.5q0 115 68.5 187.5t171.5 72.5t171.5 -72.5t68.5 -187.5q0 -119 -67 -189.5t-173 -70.5zM305 70q62 0 101 48t39 132t-39 132t-101 48h-10q-62 0 -101 -48
t-39 -132t39 -132t101 -48h10z" />
    <glyph glyph-name="OE" unicode="&#x152;" 
d="M600 0h-308q-134 0 -206.5 90.5t-72.5 259.5q0 168 71.5 258.5t205.5 91.5h300v-90h-198v-205h180v-90h-180v-225h208v-90zM288 90h4v520h-4q-175 0 -175 -260t175 -260z" />
    <glyph glyph-name="oe" unicode="&#x153;" 
d="M422 430q-40 0 -55.5 -26t-18.5 -94h159q0 39 -3.5 61.5t-21 40.5t-50.5 18h-10zM175 70q20 0 34 4.5t22.5 17.5t13.5 24t7 37t2.5 43t0.5 54t-0.5 54t-2.5 43t-7 37t-13.5 24t-22.5 17.5t-34 4.5h-10q-20 0 -34 -4.5t-22.5 -17.5t-13.5 -24t-7 -37t-2.5 -43t-0.5 -54
t0.5 -54t2.5 -43t7 -37t13.5 -24t22.5 -17.5t34 -4.5h10zM607 145q-4 -25 -8 -42t-16 -40t-28.5 -37.5t-47 -25t-70.5 -10.5q-89 0 -133 58q-44 -58 -134 -58q-100 0 -140 65.5t-40 194.5q0 260 180 260q86 0 130 -57q42 57 127 57q175 0 175 -240v-35h-252q0 -13 -2 -37
q5 -69 24 -98.5t60 -29.5h10q31 0 46 19.5t24 55.5h95z" />
    <glyph glyph-name="Racute" unicode="&#x154;" 
d="M241 760l40 130h135l-105 -130h-70zM170 370h115q69 0 107 36t38 94q0 110 -135 110h-125v-240zM70 0v700h240q100 0 160 -48.5t60 -136.5q0 -65 -32.5 -110t-87.5 -65q61 -4 88 -38t27 -97v-205h-100v210q0 39 -23 54.5t-67 15.5h-165v-280h-100z" />
    <glyph glyph-name="racute" unicode="&#x155;" 
d="M265 565l55 135h100l-90 -135h-65zM258 0h-95v500h90v-110q14 54 56.5 84.5t93.5 30.5h105v-95h-105q-68 0 -106.5 -42.5t-38.5 -117.5v-250z" />
    <glyph glyph-name="Rcommaaccent" unicode="&#x156;" 
d="M170 370h115q69 0 107 36t38 94q0 110 -135 110h-125v-240zM70 0v700h240q100 0 160 -48.5t60 -136.5q0 -65 -32.5 -110t-87.5 -65q61 -4 88 -38t27 -97v-205h-100v210q0 39 -23 54.5t-67 15.5h-165v-280h-100zM346 -165q0 -51 -30 -79.5t-80 -28.5v43q60 0 60 55v15h-43
v98h93v-103z" />
    <glyph glyph-name="rcommaaccent" unicode="&#x157;" 
d="M257 0h-95v500h90v-110q14 54 56.5 84.5t93.5 30.5h105v-95h-105q-68 0 -106.5 -42.5t-38.5 -117.5v-250zM365 -165q0 -51 -30 -79.5t-80 -28.5v43q60 0 60 55v15h-43v98h93v-103z" />
    <glyph glyph-name="Rcaron" unicode="&#x158;" 
d="M410 890h70l-120 -130h-120l-120 130h70l110 -60zM170 370h115q69 0 107 36t38 94q0 110 -135 110h-125v-240zM70 0v700h240q100 0 160 -48.5t60 -136.5q0 -65 -32.5 -110t-87.5 -65q61 -4 88 -38t27 -97v-205h-100v210q0 39 -23 54.5t-67 15.5h-165v-280h-100z" />
    <glyph glyph-name="rcaron" unicode="&#x159;" 
d="M250 565l-120 135h70l101 -75l99 75h70l-120 -135h-100zM258 0h-95v500h90v-110q14 54 56.5 84.5t93.5 30.5h105v-95h-105q-68 0 -106.5 -42.5t-38.5 -117.5v-250z" />
    <glyph glyph-name="Sacute" unicode="&#x15a;" 
d="M282 765l40 130h135l-105 -130h-70zM450 490q-4 61 -38 95.5t-97 34.5h-10q-61 0 -93 -29t-32 -76q0 -79 80 -100l110 -30q85 -23 127.5 -71t42.5 -129q0 -90 -58 -142.5t-177 -52.5q-126 0 -191 60.5t-69 174.5h100q0 -145 160 -145h10q62 0 93.5 26.5t31.5 73.5
q0 49 -27.5 74.5t-102.5 45.5l-75 20q-78 21 -116.5 67.5t-38.5 127.5q0 90 62.5 142.5t167.5 52.5q114 0 175 -58t65 -162h-100z" />
    <glyph glyph-name="sacute" unicode="&#x15b;" 
d="M223 565l55 135h100l-90 -135h-65zM303 -10q-98 0 -154.5 46.5t-60.5 118.5h95q4 -40 38.5 -62.5t81.5 -22.5h10q39 0 67 18t28 47q0 50 -75 65l-55 10q-72 12 -118.5 50.5t-46.5 99.5q0 63 52.5 106.5t142.5 43.5q93 0 147 -48.5t58 -116.5h-95q-4 35 -33 60t-72 25h-10
q-41 0 -68 -19t-27 -46q0 -50 75 -65l75 -15q145 -29 145 -145q0 -67 -56.5 -108.5t-143.5 -41.5z" />
    <glyph glyph-name="Scircumflex" unicode="&#x15c;" 
d="M480 765h-70l-110 60l-110 -60h-70l120 130h120zM450 490q-4 61 -38 95.5t-97 34.5h-10q-61 0 -93 -29t-32 -76q0 -79 80 -100l110 -30q85 -23 127.5 -71t42.5 -129q0 -90 -58 -142.5t-177 -52.5q-126 0 -191 60.5t-69 174.5h100q0 -145 160 -145h10q62 0 93.5 26.5
t31.5 73.5q0 49 -27.5 74.5t-102.5 45.5l-75 20q-78 21 -116.5 67.5t-38.5 127.5q0 90 62.5 142.5t167.5 52.5q114 0 175 -58t65 -162h-100z" />
    <glyph glyph-name="scircumflex" unicode="&#x15d;" 
d="M130 565l120 135h100l120 -135h-70l-99 75l-101 -75h-70zM303 -10q-98 0 -154.5 46.5t-60.5 118.5h95q4 -40 38.5 -62.5t81.5 -22.5h10q39 0 67 18t28 47q0 50 -75 65l-55 10q-72 12 -118.5 50.5t-46.5 99.5q0 63 52.5 106.5t142.5 43.5q93 0 147 -48.5t58 -116.5h-95
q-4 35 -33 60t-72 25h-10q-41 0 -68 -19t-27 -46q0 -50 75 -65l75 -15q145 -29 145 -145q0 -67 -56.5 -108.5t-143.5 -41.5z" />
    <glyph glyph-name="Scedilla" unicode="&#x15e;" 
d="M311 -245h-77v67h68q52 0 52 39q0 35 -43 35h-37v95q-221 15 -229 234h100q0 -145 160 -145h10q62 0 93.5 26.5t31.5 73.5q0 49 -27.5 74.5t-102.5 45.5l-75 20q-78 21 -116.5 67.5t-38.5 127.5q0 90 62.5 142.5t167.5 52.5q114 0 175 -58t65 -162h-100q-4 61 -38 95.5
t-97 34.5h-10q-61 0 -93 -29t-32 -76q0 -79 80 -100l110 -30q85 -23 127.5 -71t42.5 -129q0 -84 -49.5 -135t-151.5 -59v-37q35 0 61 -27t26 -68q0 -47 -32 -75.5t-83 -28.5z" />
    <glyph glyph-name="scedilla" unicode="&#x15f;" 
d="M270 -245h-65v65h65q55 0 55 40t-40 40h-40v95q-72 13 -113 56.5t-44 103.5h95q4 -40 38.5 -62.5t81.5 -22.5h10q39 0 67 18t28 47q0 50 -75 65l-55 10q-72 12 -118.5 50.5t-46.5 99.5q0 63 52.5 106.5t142.5 43.5q93 0 147 -48.5t58 -116.5h-95q-4 35 -33 60t-72 25h-10
q-41 0 -68 -19t-27 -46q0 -50 75 -65l75 -15q145 -29 145 -145q0 -65 -54.5 -106.5t-138.5 -43.5v-40q36 -4 60.5 -27.5t24.5 -62.5q0 -48 -35.5 -76.5t-89.5 -28.5z" />
    <glyph glyph-name="Scaron" unicode="&#x160;" 
d="M410 890h70l-120 -130h-120l-120 130h70l110 -60zM450 490q-4 61 -38 95.5t-97 34.5h-10q-61 0 -93 -29t-32 -76q0 -79 80 -100l110 -30q85 -23 127.5 -71t42.5 -129q0 -90 -58 -142.5t-177 -52.5q-126 0 -191 60.5t-69 174.5h100q0 -145 160 -145h10q62 0 93.5 26.5
t31.5 73.5q0 49 -27.5 74.5t-102.5 45.5l-75 20q-78 21 -116.5 67.5t-38.5 127.5q0 90 62.5 142.5t167.5 52.5q114 0 175 -58t65 -162h-100z" />
    <glyph glyph-name="scaron" unicode="&#x161;" 
d="M250 565l-120 135h70l101 -75l99 75h70l-120 -135h-100zM303 -10q-98 0 -154.5 46.5t-60.5 118.5h95q4 -40 38.5 -62.5t81.5 -22.5h10q39 0 67 18t28 47q0 50 -75 65l-55 10q-72 12 -118.5 50.5t-46.5 99.5q0 63 52.5 106.5t142.5 43.5q93 0 147 -48.5t58 -116.5h-95
q-4 35 -33 60t-72 25h-10q-41 0 -68 -19t-27 -46q0 -50 75 -65l75 -15q145 -29 145 -145q0 -67 -56.5 -108.5t-143.5 -41.5z" />
    <glyph glyph-name="Tcommaaccent" unicode="&#x162;" 
d="M250 0v610h-220v90h540v-90h-220v-610h-100zM347 -165q0 -51 -30 -79.5t-80 -28.5v43q60 0 60 55v15h-43v98h93v-103z" />
    <glyph glyph-name="tcommaaccent" unicode="&#x163;" 
d="M317 0q-105 0 -105 105v313h-140v82h140v162h95v-162h175v-82h-175v-295q0 -23 8.5 -31.5t31.5 -8.5h170v-83h-200zM346 -165q0 -51 -30 -79.5t-80 -28.5v43q60 0 60 55v15h-43v98h93v-103z" />
    <glyph glyph-name="Tcaron" unicode="&#x164;" 
d="M410 890h70l-120 -130h-120l-120 130h70l110 -60zM250 0v610h-220v90h540v-90h-220v-610h-100z" />
    <glyph glyph-name="tcaron" unicode="&#x165;" 
d="M552 595q0 -51 -30 -79.5t-80 -28.5v43q60 0 60 55v15h-43v98h93v-103zM212 0q-105 0 -105 105v313h-140v82h140v162h95v-162h175v-82h-175v-295q0 -23 9 -31.5t31 -8.5h170v-83h-200z" />
    <glyph glyph-name="Tbar" unicode="&#x166;" 
d="M539 335h-190v-335h-100v335h-185v90h185v185h-220v90h540v-90h-220v-185h190v-90z" />
    <glyph glyph-name="tbar" unicode="&#x167;" 
d="M517 83v-83h-200q-105 0 -105 105v130h-131v85h131v98h-140v82h140v162h95v-162h175v-82h-175v-98h153v-85h-153v-112q0 -23 8.5 -31.5t31.5 -8.5h170z" />
    <glyph glyph-name="Utilde" unicode="&#x168;" 
d="M366 832q34 0 34 39h80v-16q0 -42 -29.5 -71t-70.5 -29q-37 0 -80 23l-18 10q-27 15 -44 15q-18 0 -27.5 -11.5t-9.5 -27.5h-80v16q0 42 29.5 71t72.5 29q39 0 75 -19l18 -10q38 -19 50 -19zM300 -10q-128 0 -181.5 67.5t-53.5 192.5v450h100v-440q0 -93 27.5 -136.5
t102.5 -43.5h10q75 0 102.5 43.5t27.5 136.5v440h100v-450q0 -125 -53.5 -192.5t-181.5 -67.5z" />
    <glyph glyph-name="utilde" unicode="&#x169;" 
d="M364 638q13 0 21 13t8 29h70q0 -51 -24 -80.5t-64 -29.5q-38 0 -78 22l-18 10q-28 15 -37 15q-30 0 -34 -42h-70q0 50 27 80t71 30q31 0 66 -20l18 -10q32 -17 44 -17zM505 500v-500h-95v95q-16 -45 -57.5 -75t-102.5 -30q-82 0 -126 49.5t-44 130.5v330h95v-310
q0 -120 100 -120h10q50 0 87.5 44t37.5 116v270h95z" />
    <glyph glyph-name="Umacron" unicode="&#x16a;" 
d="M155 780v80h290v-80h-290zM300 -10q-128 0 -181.5 67.5t-53.5 192.5v450h100v-440q0 -93 27.5 -136.5t102.5 -43.5h10q75 0 102.5 43.5t27.5 136.5v440h100v-450q0 -125 -53.5 -192.5t-181.5 -67.5z" />
    <glyph glyph-name="umacron" unicode="&#x16b;" 
d="M158 590v80h285v-80h-285zM505 500v-500h-95v95q-16 -45 -57.5 -75t-102.5 -30q-82 0 -126 49.5t-44 130.5v330h95v-310q0 -120 100 -120h10q50 0 87.5 44t37.5 116v270h95z" />
    <glyph glyph-name="Ubreve" unicode="&#x16c;" 
d="M300 817q35 0 59 18.5t26 54.5h75q-1 -67 -45.5 -107.5t-114.5 -40.5t-114.5 40.5t-45.5 107.5h75q2 -36 26 -54.5t59 -18.5zM300 -10q-128 0 -181.5 67.5t-53.5 192.5v450h100v-440q0 -93 27.5 -136.5t102.5 -43.5h10q75 0 102.5 43.5t27.5 136.5v440h100v-450
q0 -125 -53.5 -192.5t-181.5 -67.5z" />
    <glyph glyph-name="ubreve" unicode="&#x16d;" 
d="M300 560q-63 0 -104.5 36t-45.5 104h70q7 -75 80 -75t80 75h70q-4 -68 -47 -104t-103 -36zM505 500v-500h-95v95q-16 -45 -57.5 -75t-102.5 -30q-82 0 -126 49.5t-44 130.5v330h95v-310q0 -120 100 -120h10q50 0 87.5 44t37.5 116v270h95z" />
    <glyph glyph-name="Uring" unicode="&#x16e;" 
d="M200 840q0 42 30 71t70 29q41 0 70.5 -28.5t29.5 -71.5t-29.5 -71.5t-70.5 -28.5q-40 0 -70 29t-30 71zM301 886q-19 0 -32.5 -13.5t-13.5 -32.5t13.5 -32.5t32.5 -13.5t32 13.5t13 32.5t-13 32.5t-32 13.5zM300 -10q-128 0 -181.5 67.5t-53.5 192.5v450h100v-440
q0 -93 27.5 -136.5t102.5 -43.5h10q75 0 102.5 43.5t27.5 136.5v440h100v-450q0 -125 -53.5 -192.5t-181.5 -67.5z" />
    <glyph glyph-name="uring" unicode="&#x16f;" 
d="M200 645q0 40 28.5 67.5t66.5 27.5t66.5 -27.5t28.5 -67.5t-28.5 -67.5t-66.5 -27.5t-66.5 27.5t-28.5 67.5zM296 689q-18 0 -31 -13t-13 -31t13 -31t31 -13t30.5 13t12.5 31t-12.5 31t-30.5 13zM505 500v-500h-95v95q-16 -45 -57.5 -75t-102.5 -30q-82 0 -126 49.5
t-44 130.5v330h95v-310q0 -120 100 -120h10q50 0 87.5 44t37.5 116v270h95z" />
    <glyph glyph-name="Uhungarumlaut" unicode="&#x170;" 
d="M335 760l40 130h135l-105 -130h-70zM171 760l40 130h135l-105 -130h-70zM300 -10q-128 0 -181.5 67.5t-53.5 192.5v450h100v-440q0 -93 27.5 -136.5t102.5 -43.5h10q75 0 102.5 43.5t27.5 136.5v440h100v-450q0 -125 -53.5 -192.5t-181.5 -67.5z" />
    <glyph glyph-name="uhungarumlaut" unicode="&#x171;" 
d="M332 565l55 135h100l-90 -135h-65zM173 565l55 135h100l-90 -135h-65zM505 500v-500h-95v95q-16 -45 -57.5 -75t-102.5 -30q-82 0 -126 49.5t-44 130.5v330h95v-310q0 -120 100 -120h10q50 0 87.5 44t37.5 116v270h95z" />
    <glyph glyph-name="Uogonek" unicode="&#x172;" 
d="M375 -220h-35q-53 0 -84 28t-31 77q0 64 58 105q-118 5 -168 72t-50 188v450h100v-440q0 -93 27.5 -136.5t102.5 -43.5h10q75 0 102.5 43.5t27.5 136.5v440h100v-450q0 -107 -38 -172t-128 -82q-74 -49 -74 -96q0 -50 65 -50h15v-70z" />
    <glyph glyph-name="uogonek" unicode="&#x173;" 
d="M505 -150v-70h-35q-53 0 -84 28t-31 77q0 68 86 115h-31v95q-16 -45 -57.5 -75t-102.5 -30q-82 0 -126 49.5t-44 130.5v330h95v-310q0 -120 100 -120h10q50 0 87.5 44t37.5 116v270h95v-500q-80 -50 -80 -100t65 -50h15z" />
    <glyph glyph-name="Wcircumflex" unicode="&#x174;" 
d="M480 760h-70l-110 60l-110 -60h-70l120 130h120zM95 0l-65 700h95l54 -600l71 430h100l75 -430l50 600h95l-65 -700h-135l-70 415l-70 -415h-135z" />
    <glyph glyph-name="wcircumflex" unicode="&#x175;" 
d="M130 565l120 135h100l120 -135h-70l-99 75l-101 -75h-70zM135 0l-105 500h90l70 -395l60 395h100l65 -395l65 395h90l-105 -500h-105l-60 390l-60 -390h-105z" />
    <glyph glyph-name="Ycircumflex" unicode="&#x176;" 
d="M480 760h-70l-110 60l-110 -60h-70l120 130h120zM350 0h-100v290l-231 410h116l167 -302l163 302h115l-230 -410v-290z" />
    <glyph glyph-name="ycircumflex" unicode="&#x177;" 
d="M130 565l120 135h100l120 -135h-70l-99 75l-101 -75h-70zM63 -200v80h140q26 0 40.5 16.5t14.5 43.5v70l-210 490h105l150 -370l150 370h100l-205 -490v-100q0 -49 -30.5 -79.5t-79.5 -30.5h-175z" />
    <glyph glyph-name="Ydieresis" unicode="&#x178;" 
d="M345 770v110h105v-110h-105zM150 770v110h105v-110h-105zM350 0h-100v290l-231 410h116l167 -302l163 302h115l-230 -410v-290z" />
    <glyph glyph-name="Zacute" unicode="&#x179;" 
d="M263 760l40 130h135l-105 -130h-70zM42 0v90l389 520h-379v90h495v-90l-390 -520h400v-90h-515z" />
    <glyph glyph-name="zacute" unicode="&#x17a;" 
d="M263 565l55 135h100l-90 -135h-65zM93 0v85l285 330h-280v85h395v-85l-285 -330h300v-85h-415z" />
    <glyph glyph-name="Zdotaccent" unicode="&#x17b;" 
d="M243 770v110h115v-110h-115zM42 0v90l389 520h-379v90h495v-90l-390 -520h400v-90h-515z" />
    <glyph glyph-name="zdotaccent" unicode="&#x17c;" 
d="M250 590v110h100v-110h-100zM93 0v85l285 330h-280v85h395v-85l-285 -330h300v-85h-415z" />
    <glyph glyph-name="Zcaron" unicode="&#x17d;" 
d="M410 890h70l-120 -130h-120l-120 130h70l110 -60zM42 0v90l389 520h-379v90h495v-90l-390 -520h400v-90h-515z" />
    <glyph glyph-name="zcaron" unicode="&#x17e;" 
d="M250 565l-120 135h70l101 -75l99 75h70l-120 -135h-100zM93 0v85l285 330h-280v85h395v-85l-285 -330h300v-85h-415z" />
    <glyph glyph-name="florin" unicode="&#x192;" 
d="M308 -10q-15 -102 -58 -146t-132 -44h-50v85h45q51 0 71.5 22.5t28.5 77.5l59 390h-104v80h117l8 55q15 102 58 146t132 44h50v-85h-45q-51 0 -71.5 -22.5t-28.5 -77.5l-9 -60h126v-80h-138z" />
    <glyph glyph-name="Aringacute" unicode="&#x1fa;" 
d="M400 270l-101 340l-99 -340h200zM480 0l-54 180h-253l-52 -180h-101l215 700h130l215 -700h-100z" />
    <glyph glyph-name="aringacute" unicode="&#x1fb;" 
d="M261 766l55 135h100l-90 -135h-65zM205 645q0 40 28.5 67.5t66.5 27.5t66.5 -27.5t28.5 -67.5t-28.5 -67.5t-66.5 -27.5t-66.5 27.5t-28.5 67.5zM301 689q-18 0 -31 -13t-13 -31t13 -31t31 -13t30.5 13t12.5 31t-12.5 31t-30.5 13zM265 70h10q47 0 91 33.5t44 76.5v51
l-125 -10q-45 -4 -72.5 -24.5t-27.5 -54.5q0 -31 23 -51.5t57 -20.5zM255 -10q-71 0 -118 42t-47 106q0 41 16.5 71t44.5 47t57.5 25.5t63.5 11.5l138 11v16q0 52 -28 81t-77 29h-5q-42 0 -71.5 -19.5t-33.5 -55.5h-95q4 69 60.5 112t141.5 43q96 0 149.5 -54.5t53.5 -135.5
v-210q0 -75 5 -110h-90q-5 25 -5 80q-16 -37 -59.5 -63.5t-100.5 -26.5z" />
    <glyph glyph-name="AEacute" unicode="&#x1fc;" 
d="M282 760l40 130h135l-105 -130h-70zM269 615l-90 -345h90v345zM269 180h-113l-47 -180h-100l206 700h340v-90h-185v-205h170v-95h-170v-215h220v-95h-321v180z" />
    <glyph glyph-name="aeacute" unicode="&#x1fd;" 
d="M265 565l55 135h100l-90 -135h-65zM410 429q-35 0 -52 -27t-21 -93h158q0 120 -75 120h-10zM595 144q-4 -25 -8 -42t-16 -40t-28.5 -37.5t-47 -25t-70.5 -10.5q-109 0 -150 86q-47 -85 -149 -85q-70 0 -103.5 39t-33.5 106q0 81 40 113.5t111 38.5l101 13v25q0 55 -15 80
t-55 25h-5q-62 0 -70 -75h-97q4 71 46.5 113t125.5 42q85 0 126 -47q41 46 118 46q175 0 175 -240v-35h-255q2 -90 20.5 -127.5t64.5 -37.5h10q70 0 70 75h95zM143 70h10q37 0 62.5 32.5t25.5 77.5v47l-90 -12q-41 -4 -53.5 -21t-12.5 -55q0 -31 15.5 -50t42.5 -19z" />
    <glyph glyph-name="Oslashacute" unicode="&#x1fe;" 
d="M282 760l40 130h135l-105 -130h-70zM140 350q0 -63 11 -118l261 330q-40 58 -107 58h-10q-75 0 -115 -71t-40 -199zM295 80h10q75 0 115 71t40 199q0 64 -11 117l-260 -330q40 -57 106 -57zM300 -10q-108 0 -172 69l-75 -94l-70 55l94 119q-37 83 -37 211q0 171 67 265.5
t193 94.5q108 0 173 -70l75 95l70 -55l-94 -120q36 -84 36 -210q0 -171 -67 -265.5t-193 -94.5z" />
    <glyph glyph-name="oslashacute" unicode="&#x1ff;" 
d="M265 565l55 135h100l-90 -135h-65zM150 250q0 -46 13 -85l194 252q-25 13 -57 13h-10q-62 0 -101 -48t-39 -132zM290 70h10q62 0 101 48t39 132q0 68 -26 112l-204 -265q33 -27 80 -27zM295 -10q-79 0 -137 40l-57 -75l-60 50l61 80q-47 67 -47 165q0 115 68.5 187.5
t171.5 72.5q60 0 112 -27l44 57l65 -45l-47 -61q66 -72 66 -184q0 -119 -67 -189.5t-173 -70.5z" />
    <glyph glyph-name="Scommaaccent" unicode="&#x218;" 
d="M450 490q-4 61 -38 95.5t-97 34.5h-10q-61 0 -93 -29t-32 -76q0 -79 80 -100l110 -30q85 -23 127.5 -71t42.5 -129q0 -90 -58 -142.5t-177 -52.5q-126 0 -191 60.5t-69 174.5h100q0 -145 160 -145h10q62 0 93.5 26.5t31.5 73.5q0 49 -27.5 74.5t-102.5 45.5l-75 20
q-78 21 -116.5 67.5t-38.5 127.5q0 90 62.5 142.5t167.5 52.5q114 0 175 -58t65 -162h-100zM346 -165q0 -51 -30 -79.5t-80 -28.5v43q60 0 60 55v15h-43v98h93v-103z" />
    <glyph glyph-name="scommaaccent" unicode="&#x219;" 
d="M303 -10q-98 0 -154.5 46.5t-60.5 118.5h95q4 -40 38.5 -62.5t81.5 -22.5h10q39 0 67 18t28 47q0 50 -75 65l-55 10q-72 12 -118.5 50.5t-46.5 99.5q0 63 52.5 106.5t142.5 43.5q93 0 147 -48.5t58 -116.5h-95q-4 35 -33 60t-72 25h-10q-41 0 -68 -19t-27 -46
q0 -50 75 -65l75 -15q145 -29 145 -145q0 -67 -56.5 -108.5t-143.5 -41.5zM346 -165q0 -51 -30 -79.5t-80 -28.5v43q60 0 60 55v15h-43v98h93v-103z" />
    <glyph glyph-name="uni0226" unicode="&#x226;" 
d="M244 770v110h115v-110h-115zM400 270l-101 340l-99 -340h200zM480 0l-54 180h-253l-52 -180h-101l215 700h130l215 -700h-100z" />
    <glyph glyph-name="uni0227" unicode="&#x227;" 
d="M251 590v110h100v-110h-100zM265 70h10q47 0 91 33.5t44 76.5v51l-125 -10q-45 -4 -72.5 -24.5t-27.5 -54.5q0 -31 23 -51.5t57 -20.5zM255 -10q-71 0 -118 42t-47 106q0 41 16.5 71t44.5 47t57.5 25.5t63.5 11.5l138 11v16q0 52 -28 81t-77 29h-5q-42 0 -71.5 -19.5
t-33.5 -55.5h-95q4 69 60.5 112t141.5 43q96 0 149.5 -54.5t53.5 -135.5v-210q0 -75 5 -110h-90q-5 25 -5 80q-16 -37 -59.5 -63.5t-100.5 -26.5z" />
    <glyph glyph-name="uni0232" unicode="&#x232;" 
d="M155 780v80h290v-80h-290zM350 0h-100v290l-231 410h116l167 -302l163 302h115l-230 -410v-290z" />
    <glyph glyph-name="uni0233" unicode="&#x233;" 
d="M157 590v80h285v-80h-285zM63 -200v80h140q26 0 40.5 16.5t14.5 43.5v70l-210 490h105l150 -370l150 370h100l-205 -490v-100q0 -49 -30.5 -79.5t-79.5 -30.5h-175z" />
    <glyph glyph-name="circumflex" unicode="&#x2c6;" 
d="M130 565l120 135h100l120 -135h-70l-99 75l-101 -75h-70z" />
    <glyph glyph-name="caron" unicode="&#x2c7;" 
d="M250 565l-120 135h70l101 -75l99 75h70l-120 -135h-100z" />
    <glyph glyph-name="breve" unicode="&#x2d8;" 
d="M300 560q-63 0 -104.5 36t-45.5 104h70q7 -75 80 -75t80 75h70q-4 -68 -47 -104t-103 -36z" />
    <glyph glyph-name="dotaccent" unicode="&#x2d9;" 
d="M250 590v110h100v-110h-100z" />
    <glyph glyph-name="ring" unicode="&#x2da;" 
d="M205 645q0 40 28.5 67.5t66.5 27.5t66.5 -27.5t28.5 -67.5t-28.5 -67.5t-66.5 -27.5t-66.5 27.5t-28.5 67.5zM301 689q-18 0 -31 -13t-13 -31t13 -31t31 -13t30.5 13t12.5 31t-12.5 31t-30.5 13z" />
    <glyph glyph-name="ogonek" unicode="&#x2db;" 
d="M155 -220q-53 0 -84 28t-31 77q0 73 105 125l45 -10q-80 -50 -80 -100t65 -50h15v-70h-35z" />
    <glyph glyph-name="tilde" unicode="&#x2dc;" 
d="M364 638q13 0 21 13t8 29h70q0 -51 -24 -80.5t-64 -29.5q-38 0 -78 22l-18 10q-28 15 -37 15q-30 0 -34 -42h-70q0 50 27 80t71 30q31 0 66 -20l18 -10q32 -17 44 -17z" />
    <glyph glyph-name="hungarumlaut" unicode="&#x2dd;" 
d="M302 565l55 135h100l-90 -135h-65zM143 565l55 135h100l-90 -135h-65z" />
    <glyph glyph-name="Delta" unicode="&#x394;" 
d="M587 0h-575v80l225 620h125l225 -620v-80zM302 615l-190 -525h375z" />
    <glyph glyph-name="Omega" unicode="&#x3a9;" 
d="M250 0h-225v85h114q-56 41 -87.5 115.5t-31.5 167.5q0 166 74.5 254t205.5 88t205.5 -88t74.5 -254q0 -91 -32 -165.5t-86 -116.5l113 -1v-85h-225v85q78 54 104 116t26 167q0 129 -47.5 190.5t-127.5 61.5h-10q-80 0 -127 -61.5t-47 -190.5q0 -103 26.5 -165.5
t102.5 -117.5v-85z" />
    <glyph glyph-name="mu" unicode="&#x3bc;" 
d="M182 -300h-100v800h100v-295q0 -66 23 -98t77 -32h5q55 0 92.5 41.5t37.5 113.5v270h100v-500h-100v85q-43 -95 -150 -95q-50 0 -85 20v-310z" />
    <glyph glyph-name="pi" unicode="&#x3c0;" 
d="M385 415h-175v-415h-95v415h-105v85h580v-85h-105v-325h95v-90h-195v415z" />
    <glyph glyph-name="Wgrave" unicode="&#x1e80;" 
d="M298 891l40 -130h-70l-105 130h135zM95 0l-65 700h95l54 -600l71 430h100l75 -430l50 600h95l-65 -700h-135l-70 415l-70 -415h-135z" />
    <glyph glyph-name="wgrave" unicode="&#x1e81;" 
d="M283 700l55 -135h-65l-90 135h100zM135 0l-105 500h90l70 -395l60 395h100l65 -395l65 395h90l-105 -500h-105l-60 390l-60 -390h-105z" />
    <glyph glyph-name="Wacute" unicode="&#x1e82;" 
d="M263 760l40 130h135l-105 -130h-70zM95 0l-65 700h95l54 -600l71 430h100l75 -430l50 600h95l-65 -700h-135l-70 415l-70 -415h-135z" />
    <glyph glyph-name="wacute" unicode="&#x1e83;" 
d="M263 565l55 135h100l-90 -135h-65zM135 0l-105 500h90l70 -395l60 395h100l65 -395l65 395h90l-105 -500h-105l-60 390l-60 -390h-105z" />
    <glyph glyph-name="Wdieresis" unicode="&#x1e84;" 
d="M345 770v110h105v-110h-105zM150 770v110h105v-110h-105zM95 0l-65 700h95l54 -600l71 430h100l75 -430l50 600h95l-65 -700h-135l-70 415l-70 -415h-135z" />
    <glyph glyph-name="wdieresis" unicode="&#x1e85;" 
d="M345 585v105h100v-105h-100zM155 585v105h100v-105h-100zM135 0l-105 500h90l70 -395l60 395h100l65 -395l65 395h90l-105 -500h-105l-60 390l-60 -390h-105z" />
    <glyph glyph-name="uni1EA0" unicode="&#x1ea0;" 
d="M400 270l-101 340l-99 -340h200zM480 0l-54 180h-253l-52 -180h-101l215 700h130l215 -700h-100zM250 -185v110h100v-110h-100z" />
    <glyph glyph-name="uni1EA1" unicode="&#x1ea1;" 
d="M265 70h10q47 0 91 33.5t44 76.5v51l-125 -10q-45 -4 -72.5 -24.5t-27.5 -54.5q0 -31 23 -51.5t57 -20.5zM255 -10q-71 0 -118 42t-47 106q0 41 16.5 71t44.5 47t57.5 25.5t63.5 11.5l138 11v16q0 52 -28 81t-77 29h-5q-42 0 -71.5 -19.5t-33.5 -55.5h-95q4 69 60.5 112
t141.5 43q96 0 149.5 -54.5t53.5 -135.5v-210q0 -75 5 -110h-90q-5 25 -5 80q-16 -37 -59.5 -63.5t-100.5 -26.5zM250 -185v110h100v-110h-100z" />
    <glyph glyph-name="uni1EB8" unicode="&#x1eb8;" 
d="M70 0v700h460v-90h-360v-205h300v-90h-300v-225h370v-90h-470zM250 -185v110h100v-110h-100z" />
    <glyph glyph-name="uni1EB9" unicode="&#x1eb9;" 
d="M303 430q-43 0 -78 -28t-48 -87h247q0 50 -30.5 82.5t-80.5 32.5h-10zM519 148q-12 -75 -69 -116.5t-137 -41.5q-100 0 -169 68t-69 193q0 123 68.5 191t164.5 68q95 0 153.5 -64t58.5 -161v-50h-350q4 -81 47 -123t99 -42q42 0 71.5 20t36.5 58h95zM260 -185v110h100
v-110h-100z" />
    <glyph glyph-name="uni1ECA" unicode="&#x1eca;" 
d="M525 0h-450v90h175v520h-169v90h439v-90h-170v-520h175v-90zM250 -185v110h100v-110h-100z" />
    <glyph glyph-name="uni1ECB" unicode="&#x1ecb;" 
d="M353 590h-105v110h105v-110zM529 0h-457v82h181v336h-150v82h245v-418h181v-82zM250 -185v110h100v-110h-100z" />
    <glyph glyph-name="uni1ECC" unicode="&#x1ecc;" 
d="M300 710q126 0 193 -94.5t67 -265.5t-67 -265.5t-193 -94.5t-193 94.5t-67 265.5t67 265.5t193 94.5zM295 80h10q75 0 115 71t40 199t-40 199t-115 71h-10q-75 0 -115 -71t-40 -199t40 -199t115 -71zM250 -185v110h100v-110h-100z" />
    <glyph glyph-name="uni1ECD" unicode="&#x1ecd;" 
d="M300 -10q-106 0 -173 70.5t-67 189.5q0 115 68.5 187.5t171.5 72.5t171.5 -72.5t68.5 -187.5q0 -119 -67 -189.5t-173 -70.5zM305 70q62 0 101 48t39 132t-39 132t-101 48h-10q-62 0 -101 -48t-39 -132t39 -132t101 -48h10zM250 -185v110h100v-110h-100z" />
    <glyph glyph-name="uni1EE4" unicode="&#x1ee4;" 
d="M300 -10q-128 0 -181.5 67.5t-53.5 192.5v450h100v-440q0 -93 27.5 -136.5t102.5 -43.5h10q75 0 102.5 43.5t27.5 136.5v440h100v-450q0 -125 -53.5 -192.5t-181.5 -67.5zM250 -185v110h100v-110h-100z" />
    <glyph glyph-name="uni1EE5" unicode="&#x1ee5;" 
d="M505 500v-500h-95v95q-16 -45 -57.5 -75t-102.5 -30q-82 0 -126 49.5t-44 130.5v330h95v-310q0 -120 100 -120h10q50 0 87.5 44t37.5 116v270h95zM245 -185v110h100v-110h-100z" />
    <glyph glyph-name="Ygrave" unicode="&#x1ef2;" 
d="M298 890l40 -130h-70l-105 130h135zM350 0h-100v290l-231 410h116l167 -302l163 302h115l-230 -410v-290z" />
    <glyph glyph-name="ygrave" unicode="&#x1ef3;" 
d="M323 700l55 -135h-65l-90 135h100zM63 -200v80h140q26 0 40.5 16.5t14.5 43.5v70l-210 490h105l150 -370l150 370h100l-205 -490v-100q0 -49 -30.5 -79.5t-79.5 -30.5h-175z" />
    <glyph glyph-name="endash" unicode="&#x2013;" 
d="M75 260v85h450v-85h-450z" />
    <glyph glyph-name="emdash" unicode="&#x2014;" 
d="M-86 260v85h771v-85h-771z" />
    <glyph glyph-name="quoteleft" unicode="&#x2018;" 
d="M376 700h25v-65h-20q-75 0 -75 -60v-15h60v-120h-120v130q0 59 36.5 94.5t93.5 35.5z" />
    <glyph glyph-name="quoteright" unicode="&#x2019;" 
d="M223 440h-25v65h20q75 0 75 60v15h-60v120h120v-130q0 -59 -36.5 -94.5t-93.5 -35.5z" />
    <glyph glyph-name="quotesinglbase" unicode="&#x201a;" 
d="M246 -140h-25v65h20q75 0 75 60v15h-60v120h120v-130q0 -59 -36.5 -94.5t-93.5 -35.5z" />
    <glyph glyph-name="quotedblleft" unicode="&#x201c;" 
d="M455 700h25v-65h-20q-75 0 -75 -60v-15h60v-120h-120v130q0 59 36.5 94.5t93.5 35.5zM250 700h25v-65h-20q-75 0 -75 -60v-15h60v-120h-120v130q0 59 36.5 94.5t93.5 35.5z" />
    <glyph glyph-name="quotedblright" unicode="&#x201d;" 
d="M145 440h-25v65h20q75 0 75 60v15h-60v120h120v-130q0 -59 -36.5 -94.5t-93.5 -35.5zM350 440h-25v65h20q75 0 75 60v15h-60v120h120v-130q0 -59 -36.5 -94.5t-93.5 -35.5z" />
    <glyph glyph-name="quotedblbase" unicode="&#x201e;" 
d="M121 -140h-25v65h20q75 0 75 60v15h-60v120h120v-130q0 -59 -36.5 -94.5t-93.5 -35.5zM326 -140h-25v65h20q75 0 75 60v15h-60v120h120v-130q0 -59 -36.5 -94.5t-93.5 -35.5z" />
    <glyph glyph-name="dagger" unicode="&#x2020;" 
d="M518 460h-170v-545h-95v545h-170v85h170v240h95v-240h170v-85z" />
    <glyph glyph-name="daggerdbl" unicode="&#x2021;" 
d="M518 155h-170v-240h-95v240h-170v85h170v220h-170v85h170v240h95v-240h170v-85h-170v-220h170v-85z" />
    <glyph glyph-name="bullet" unicode="&#x2022;" 
d="M300 160q-75 0 -130 55t-55 130t55 130t130 55q78 0 131.5 -54.5t53.5 -130.5t-53.5 -130.5t-131.5 -54.5z" />
    <glyph glyph-name="ellipsis" unicode="&#x2026;" 
d="M440 0v120h120v-120h-120zM240 0v120h120v-120h-120zM40 0v120h120v-120h-120z" />
    <glyph glyph-name="perthousand" unicode="&#x2030;" 
d="M-52 711q57 0 96.5 -39.5t39.5 -96.5t-39.5 -96.5t-96.5 -39.5t-94.5 39.5t-37.5 96.5t37.5 96.5t94.5 39.5zM-80 0h-60l430 700h60zM-52 643q-30 0 -47 -19t-17 -49t17 -49t47 -19q32 0 50 18.5t18 49.5t-18 49.5t-50 18.5zM482 24q-68 0 -108 56q-40 -56 -110 -56
q-57 0 -94.5 39.5t-37.5 96.5t37.5 96.5t94.5 39.5q70 0 110 -56q40 56 108 56q57 0 96.5 -39.5t39.5 -96.5t-39.5 -96.5t-96.5 -39.5zM264 228q-30 0 -47 -19t-17 -49t17 -49t47 -19q32 0 50 18.5t18 49.5t-18 49.5t-50 18.5zM482 228q-30 0 -47 -19t-17 -49t17 -49t47 -19
q32 0 50 18.5t18 49.5t-18 49.5t-50 18.5z" />
    <glyph glyph-name="guilsinglleft" unicode="&#x2039;" 
d="M428 70h-110l-145 215l145 215h110l-145 -215z" />
    <glyph glyph-name="guilsinglright" unicode="&#x203a;" 
d="M281 70h-110l145 215l-145 215h110l145 -215z" />
    <glyph glyph-name="fraction" unicode="&#x2044;" 
d="M114 0h-60l430 700h60z" />
    <glyph glyph-name="zero.superior" unicode="&#x2070;" 
d="M204 379q-78 0 -123.5 55.5t-45.5 147.5t45.5 147.5t123.5 55.5t123.5 -55.5t45.5 -147.5t-45.5 -147.5t-123.5 -55.5zM202 443h4q44 0 68 41.5t24 97.5t-24 97.5t-68 41.5h-4q-44 0 -68 -41.5t-24 -97.5t24 -97.5t68 -41.5z" />
    <glyph glyph-name="four.superior" unicode="&#x2074;" 
d="M211 384v88h-186v64l181 243h78v-243h56v-64h-56v-88h-73zM211 690l-114 -154h114v154z" />
    <glyph glyph-name="five.superior" unicode="&#x2075;" 
d="M173 379q-58 0 -99 30t-48 84h79q3 -24 21.5 -37t45.5 -13h4q30 0 49.5 18.5t19.5 48.5q0 26 -18.5 42.5t-46.5 16.5h-3q-31 0 -61 -25h-70l45 235h226v-64h-170l-23 -112q32 29 79 29q51 0 84 -34.5t33 -85.5q0 -60 -42 -96.5t-105 -36.5z" />
    <glyph glyph-name="six.superior" unicode="&#x2076;" 
d="M187 379q-70 0 -111 51t-41 140q0 99 48.5 157t128.5 58q63 0 97 -33t34 -79h-73q-5 22 -20.5 35t-38.5 13h-6q-39 0 -68.5 -35t-33.5 -93q12 24 40.5 40t63.5 16q54 0 92 -36.5t38 -95.5q0 -58 -40.5 -98t-109.5 -40zM187 443h3q32 0 53 20t21 51q0 30 -20.5 50.5
t-51.5 20.5h-3q-29 0 -51 -20t-22 -51q0 -30 20.5 -50.5t50.5 -20.5z" />
    <glyph glyph-name="seven.superior" unicode="&#x2077;" 
d="M75 384v36q0 193 139 295h-204v64h276v-67q-136 -115 -136 -292v-36h-75z" />
    <glyph glyph-name="eight.superior" unicode="&#x2078;" 
d="M181 380q-58 0 -98 27.5t-40 78.5q0 63 72 93q-80 30 -80 96q0 51 40.5 80.5t105.5 29.5t106 -29.5t41 -80.5q0 -64 -76 -96q68 -30 68 -93q0 -51 -40.5 -78.5t-98.5 -27.5zM184 721h-5q-30 0 -50.5 -13.5t-20.5 -37.5q0 -25 21 -38.5t50 -13.5h5q29 0 50 13.5t21 38.5
q0 24 -20.5 37.5t-50.5 13.5zM179 444h5q27 0 45 13.5t18 37.5q0 23 -18.5 38t-44.5 15h-5q-26 0 -44.5 -15t-18.5 -38q0 -24 18 -37.5t45 -13.5z" />
    <glyph glyph-name="nine.superior" unicode="&#x2079;" 
d="M183 721h-3q-32 0 -53 -20t-21 -51q0 -30 20.5 -50.5t51.5 -20.5h3q29 0 51 20t22 51q0 30 -20.5 50.5t-50.5 20.5zM183 785q70 0 111 -51t41 -140q0 -99 -48.5 -157t-128.5 -58q-63 0 -97 33t-34 79h73q5 -22 20.5 -35t38.5 -13h6q39 0 68.5 35t33.5 93
q-12 -24 -40.5 -40t-63.5 -16q-54 0 -92 36.5t-38 95.5q0 58 40.5 98t109.5 40z" />
    <glyph glyph-name="n.superior" unicode="&#x207f;" 
d="M35 384v283h73v-57q10 25 34 43.5t61 18.5q45 0 70 -30t25 -78v-180h-73v170q0 27 -13.5 42t-35.5 15h-6q-26 0 -44 -21t-18 -51v-155h-73z" />
    <glyph glyph-name="zero.inferior" unicode="&#x2080;" 
d="M204 -121q-78 0 -123.5 55.5t-45.5 147.5t45.5 147.5t123.5 55.5t123.5 -55.5t45.5 -147.5t-45.5 -147.5t-123.5 -55.5zM202 -57h4q44 0 68 41.5t24 97.5t-24 97.5t-68 41.5h-4q-44 0 -68 -41.5t-24 -97.5t24 -97.5t68 -41.5z" />
    <glyph glyph-name="one.inferior" unicode="&#x2081;" 
d="M321 -116v298l-115 -96v84l132 109h56v-395h-73z" />
    <glyph glyph-name="two.inferior" unicode="&#x2082;" 
d="M440 -116h-280v81l132 116q3 3 13.5 12t14.5 13l12 12t12 13.5t9 12.5t6.5 14t1.5 14q-1 21 -18 33.5t-41 12.5h-5q-23 0 -41 -15t-20 -42h-76q2 56 42.5 90t99.5 34q57 0 95.5 -31t38.5 -84q0 -27 -15.5 -53.5t-29.5 -39.5t-46 -40l-102 -86h197v-67z" />
    <glyph glyph-name="three.inferior" unicode="&#x2083;" horiz-adv-x="601" 
d="M298 -122q-60 0 -100.5 31.5t-40.5 87.5h75q0 -26 18 -41.5t45 -15.5h5q29 0 49 15t20 42q0 25 -17 39.5t-43 14.5h-39v67h41q24 0 39.5 14t15.5 37q0 26 -18 41.5t-45 15.5h-5q-26 0 -43 -15.5t-17 -40.5h-75q0 55 40 85t100 30q58 0 98 -29t40 -81q0 -32 -16.5 -56.5
t-45.5 -34.5q65 -28 65 -95q0 -53 -42.5 -82t-103.5 -29z" />
    <glyph glyph-name="four.inferior" unicode="&#x2084;" horiz-adv-x="601" 
d="M329 -116v88h-186v64l181 243h78v-243h56v-64h-56v-88h-73zM329 190l-114 -154h114v154z" />
    <glyph glyph-name="five.inferior" unicode="&#x2085;" 
d="M300 -122q-58 0 -99 30t-48 84h79q3 -24 21.5 -37t45.5 -13h4q30 0 49.5 18.5t19.5 48.5q0 26 -18.5 42.5t-46.5 16.5h-3q-31 0 -61 -25h-70l45 235h226v-64h-170l-23 -112q32 29 79 29q51 0 84 -34.5t33 -85.5q0 -60 -42 -96.5t-105 -36.5z" />
    <glyph glyph-name="six.inferior" unicode="&#x2086;" 
d="M298 -121q-70 0 -111 51t-41 140q0 99 48.5 157t128.5 58q63 0 97 -33t34 -79h-73q-5 22 -20.5 35t-38.5 13h-6q-39 0 -68.5 -35t-33.5 -93q12 24 40.5 40t63.5 16q54 0 92 -36.5t38 -95.5q0 -58 -40.5 -98t-109.5 -40zM298 -57h3q32 0 53 20t21 51q0 30 -20.5 50.5
t-51.5 20.5h-3q-29 0 -51 -20t-22 -51q0 -30 20.5 -50.5t50.5 -20.5z" />
    <glyph glyph-name="seven.inferior" unicode="&#x2087;" 
d="M227 -116v36q0 193 139 295h-204v64h276v-67q-136 -115 -136 -292v-36h-75z" />
    <glyph glyph-name="eight.inferior" unicode="&#x2088;" horiz-adv-x="601" 
d="M300 -122q-58 0 -98 27.5t-40 78.5q0 63 72 93q-80 30 -80 96q0 51 40.5 80.5t105.5 29.5t106 -29.5t41 -80.5q0 -64 -76 -96q68 -30 68 -93q0 -51 -40.5 -78.5t-98.5 -27.5zM303 219h-5q-30 0 -50.5 -13.5t-20.5 -37.5q0 -25 21 -38.5t50 -13.5h5q29 0 50 13.5t21 38.5
q0 24 -20.5 37.5t-50.5 13.5zM298 -58h5q27 0 45 13.5t18 37.5q0 23 -18.5 38t-44.5 15h-5q-26 0 -44.5 -15t-18.5 -38q0 -24 18 -37.5t45 -13.5z" />
    <glyph glyph-name="nine.inferior" unicode="&#x2089;" 
d="M302 220h-3q-32 0 -53 -20t-21 -51q0 -30 20.5 -50.5t51.5 -20.5h3q29 0 51 20t22 51q0 30 -20.5 50.5t-50.5 20.5zM302 284q70 0 111 -51t41 -140q0 -99 -48.5 -157t-128.5 -58q-63 0 -97 33t-34 79h73q5 -22 20.5 -35t38.5 -13h6q39 0 68.5 35t33.5 93
q-12 -24 -40.5 -40t-63.5 -16q-54 0 -92 36.5t-38 95.5q0 58 40.5 98t109.5 40z" />
    <glyph glyph-name="Euro" unicode="&#x20ac;" 
d="M585 225q-11 -107 -72 -171t-163 -64q-194 0 -248 181l-148 -33v85l131 29q-4 27 -6 84l-125 -28v85l128 28q13 141 78.5 215t184.5 74q103 0 167 -70t68 -160h-100q-4 58 -40 99t-90 41h-10q-71 0 -108 -44.5t-48 -131.5l252 56v-85l-257 -57v-8q0 -42 3 -76l254 56v-85
l-239 -53q35 -112 148 -112h10q55 0 88.5 38t41.5 107h100z" />
    <glyph glyph-name="uni2117" unicode="&#x2117;" horiz-adv-x="880" 
d="M440 -40q-160 0 -275 115t-115 275q0 161 114.5 275.5t275.5 114.5t275.5 -114.5t114.5 -275.5t-114.5 -275.5t-275.5 -114.5zM440 35q130 0 222.5 92.5t92.5 222.5t-92.5 222.5t-222.5 92.5t-222.5 -92.5t-92.5 -222.5t92.5 -222.5t222.5 -92.5zM319 167v376h149
q63 0 103.5 -29t40.5 -87t-40.5 -87.5t-103.5 -29.5h-79v-143h-70zM389 379h74q79 0 79 48q0 27 -19.5 37t-59.5 10h-74v-95z" />
    <glyph glyph-name="trademark" unicode="&#x2122;" 
d="M91 320v300h-70v80h225v-80h-70v-300h-85zM281 320v380h100l50 -155l45 155h100v-380h-70v290l-40 -130h-70l-45 135v-295h-70z" />
    <glyph glyph-name="uni216C" unicode="&#x216c;" 
d="M-1 0v85h146v530h-146v85h391v-85h-150v-530h230v175h93v-260h-564z" />
    <glyph glyph-name="uni216D" unicode="&#x216d;" 
d="M465 0v80q-37 -49 -70 -69.5t-90 -20.5q-264 0 -264 360q0 175 68.5 269.5t210.5 90.5q53 0 85.5 -20.5t69.5 -69.5v80h90v-220h-90q-31 140 -145 140h-10q-55 0 -91 -17.5t-54.5 -54.5t-25.5 -83t-7 -115q0 -135 37 -202.5t136 -67.5h10q60 0 92.5 36t52.5 109h90v-225
h-95z" />
    <glyph glyph-name="uni216E" unicode="&#x216e;" 
d="M200 90h70q215 0 215 260q0 130 -52 195t-163 65h-70v-520zM0 0v85h100v530h-100v85h280q145 0 225 -94.5t80 -260.5q0 -162 -80 -253.5t-225 -91.5h-280z" />
    <glyph glyph-name="uni216F" unicode="&#x216f;" 
d="M225 85v-85h-241v85h65v530h-65v85h221l100 -329l100 329h210v-85h-65v-530h65v-85h-240v85h80v525l-85 -329h-135l-90 334v-530h80z" />
    <glyph glyph-name="uni2190" unicode="&#x2190;" 
d="M380 0l-59 -60l-251 251l-1 -1v1l-60 60l312 309l59 -60l-206 -205h416v-90h-416z" />
    <glyph glyph-name="uni2191" unicode="&#x2191;" 
d="M550 400l-205 206v-606h-90v606l-205 -206l-60 59l251 251l-1 1h1l60 60l309 -312z" />
    <glyph glyph-name="uni2192" unicode="&#x2192;" 
d="M554 190l-1 1l-251 -251l-59 60l206 205h-416v90h416l-206 205l59 60l312 -309l-60 -60v-1z" />
    <glyph glyph-name="uni2193" unicode="&#x2193;" 
d="M301 -71l-60 60h-1l1 1l-251 251l60 59l205 -206v416h90v-416l205 206l60 -59z" />
    <glyph glyph-name="uni2196" unicode="&#x2196;" 
d="M520 170l-64 -63l-294 294l1 -291h-84l-1 355h-1h1v85l439 -2l-1 -84h-290z" />
    <glyph glyph-name="uni2197" unicode="&#x2197;" 
d="M436 110l1 291l-294 -294l-64 63l294 294h-290l-1 84l439 2v-85h1h-1l-1 -355h-84z" />
    <glyph glyph-name="uni2198" unicode="&#x2198;" 
d="M521 -40l-439 2l1 84h290l-294 294l64 63l294 -294l-1 291h84l1 -355h1h-1v-85z" />
    <glyph glyph-name="uni2199" unicode="&#x2199;" 
d="M146 -34v1h-85l2 439l84 -1v-290l294 294l63 -64l-294 -294l291 1v-84l-355 -1v-1z" />
    <glyph glyph-name="uni219E" unicode="&#x219e;" 
d="M650 0l-59 -60l-250 251l-1 -1v1l-14 14h-153l206 -205l-59 -60l-251 251l-1 -1v1l-60 60l312 309l59 -60l-206 -205h151l267 265l59 -60l-205 -205h144v-90h-144z" />
    <glyph glyph-name="uni219F" unicode="&#x219f;" 
d="M345 0h-90v285l-205 -205l-61 59l266 267v150l-205 -206l-60 59l309 312l60 -60h1l-1 -1l251 -251l-60 -59l-205 206v-152l14 -14h1l250 -251l-60 -59l-205 205v-285z" />
    <glyph glyph-name="uni21A0" unicode="&#x21a0;" 
d="M531 190l-1 1l-251 -251l-59 60l206 205h-172l-14 -14v-1l-1 1l-251 -251l-59 60l206 205h-125v90h125l-206 205l59 60l268 -265h170l-206 205l59 60l312 -309l-60 -60v-1z" />
    <glyph glyph-name="uni21A1" unicode="&#x21a1;" 
d="M360 -11h-1l-60 -60l-309 312l60 59l205 -206v150l-266 267l61 59l205 -205v145h90v-145l205 205l60 -59l-250 -250v-1h-1l-14 -14v-152l205 206l60 -59l-251 -251z" />
    <glyph glyph-name="uni21A2" unicode="&#x21a2;" 
d="M625 -60l-251 251l-1 -1v1l-14 14h-231l205 -205l-59 -60l-250 251l-1 -1v1l-60 60l311 309l59 -60l-205 -205h229l268 265l59 -60l-251 -250l251 -250z" />
    <glyph glyph-name="uni21A3" unicode="&#x21a3;" 
d="M600 190v1l-251 -251l-59 60l205 205h-231l-14 -14v-1l-1 1l-251 -251l-59 60l251 250l-251 250l59 60l268 -265h229l-205 205l59 60l311 -309l-60 -60v-1z" />
    <glyph glyph-name="uni21A4" unicode="&#x21a4;" 
d="M457 0l-59 -60l-251 251l-1 -1v1l-60 60l312 309l59 -60l-206 -205h339v205h90v-501h-90v206h-339z" />
    <glyph glyph-name="uni21A5" unicode="&#x21a5;" 
d="M551 0h-501v90h205v326l-205 -206l-60 59l309 312l60 -60h1l-1 -1l251 -251l-60 -59l-205 206v-326h206v-90z" />
    <glyph glyph-name="uni21A6" unicode="&#x21a6;" 
d="M453 190l-1 1l-251 -251l-59 60l206 205h-338v-206h-91v501h91v-205h338l-206 205l59 60l312 -309l-60 -60v-1z" />
    <glyph glyph-name="uni21A7" unicode="&#x21a7;" 
d="M301 26l-60 60h-1l1 1l-251 251l60 59l205 -206v339h-206v90h501v-90h-205v-339l205 206l60 -59z" />
    <glyph glyph-name="uni21B0" unicode="&#x21b0;" 
d="M725 -175h-88v466h88v-466zM324 0l-59 -60l-251 251l-1 -1v1l-60 60l312 309l59 -60l-206 -205h416v-90h-416z" />
    <glyph glyph-name="uni21B1" unicode="&#x21b1;" 
d="M-38 -175h-88v466h88v-466zM586 190l-1 1l-251 -251l-59 60l206 205h-416v90h416l-206 205l59 60l312 -309l-60 -60v-1z" />
    <glyph glyph-name="uni21B2" unicode="&#x21b2;" 
d="M637 560h88v-466h-88v466zM265 -175l-312 309l60 60v1l1 -1l251 251l59 -60l-206 -205h416v-90h-416l206 -205z" />
    <glyph glyph-name="uni21B3" unicode="&#x21b3;" 
d="M-126 560h88v-466h-88v466zM334 -175l-59 60l206 205h-416v90h416l-206 205l59 60l251 -251l1 1v-1l60 -60z" />
    <glyph glyph-name="partialdiff" unicode="&#x2202;" 
d="M238 710q99 0 167.5 -55t100 -145t31.5 -208q0 -157 -64 -234.5t-174 -77.5t-173.5 68.5t-63.5 182.5q0 107 62 175.5t158 68.5q93 0 150 -65l-2 18q-14 93 -71 140t-129 47q-58 0 -103 -15v85q43 15 111 15zM297 75h5q61 0 100.5 41.5t39.5 123.5q0 80 -39 122.5
t-101 42.5h-10q-59 0 -97 -43t-38 -121q0 -80 40 -123t100 -43z" />
    <glyph glyph-name="product" unicode="&#x220f;" 
d="M177 0h-95v615h-101v85h636v-85h-95v-615h-100v615h-245v-615z" />
    <glyph glyph-name="summation" unicode="&#x2211;" 
d="M387 350l-195 -265h330v-85h-445v90l195 260l-195 265v85h445v-85h-330z" />
    <glyph glyph-name="minus" unicode="&#x2212;" 
d="M65 310v85h470v-85h-470z" />
    <glyph glyph-name="radical" unicode="&#x221a;" 
d="M260 0h-120l-166 500h101l125 -390l200 590h225v-85h-155z" />
    <glyph glyph-name="infinity" unicode="&#x221e;" 
d="M302 290q-43 -60 -86 -90t-109 -30q-80 0 -133 52.5t-53 137.5q0 82 53.5 136t132.5 54q65 0 108 -31.5t87 -93.5q39 61 82 93t108 32q79 0 132 -54t53 -136q0 -85 -52.5 -137.5t-132.5 -52.5q-66 0 -109 30.5t-81 89.5zM247 360q-30 52 -62 81t-73 29h-5
q-41 0 -68 -30.5t-27 -79.5q0 -51 26.5 -80.5t68.5 -29.5h5q41 0 73 29t62 81zM352 360q34 -56 63 -83t67 -27h5q46 0 73 29t27 81t-27 81t-73 29h-5q-66 0 -130 -110z" />
    <glyph glyph-name="integral" unicode="&#x222b;" 
d="M350 90q0 -190 -190 -190h-50v85h45q52 0 73.5 23.5t21.5 76.5v425q0 190 190 190h50v-85h-45q-52 0 -73.5 -23.5t-21.5 -76.5v-425z" />
    <glyph glyph-name="approxequal" unicode="&#x2248;" 
d="M455 505h80v-25q0 -47 -36.5 -78.5t-83.5 -31.5q-36 0 -119.5 27.5t-100.5 27.5q-21 0 -35.5 -14.5t-14.5 -30.5h-80v25q0 47 38.5 81t81.5 34q36 0 119.5 -27.5t100.5 -27.5q22 0 36 12t14 28zM455 315h80v-25q0 -48 -37 -81.5t-83 -33.5q-36 0 -119.5 30t-100.5 30
q-21 0 -35.5 -14.5t-14.5 -30.5h-80v25q0 47 38.5 81t81.5 34q36 0 119.5 -30t100.5 -30q21 0 35.5 14.5t14.5 30.5z" />
    <glyph glyph-name="notequal" unicode="&#x2260;" 
d="M535 220h-231l-34 -110h-90l34 110h-149v85h175l30 95h-205v85h231l34 110h90l-34 -110h149v-85h-175l-30 -95h205v-85z" />
    <glyph glyph-name="lessequal" unicode="&#x2264;" 
d="M535 605v-85l-360 -105l360 -105v-85l-470 140v100zM65 110v85h470v-85h-470z" />
    <glyph glyph-name="greaterequal" unicode="&#x2265;" 
d="M65 520v85l470 -140v-100l-470 -140v85l360 105zM535 195v-85h-470v85h470z" />
    <glyph glyph-name="lozenge" unicode="&#x25ca;" 
d="M252 700h100l230 -350l-230 -350h-100l-235 350zM302 615l-175 -265l175 -260l175 260z" />
    <glyph glyph-name="dotlessj" unicode="&#xf6be;" 
d="M323 -185h-155v90h125q23 0 31.5 8.5t8.5 31.5v473h-150v82h245v-580q0 -105 -105 -105z" />
    <glyph glyph-name="commaaccent" unicode="&#xf6c3;" 
d="M346 -165q0 -51 -30 -79.5t-80 -28.5v43q60 0 60 55v15h-43v98h93v-103z" />
    <glyph glyph-name="fi" unicode="&#xfb01;" 
d="M433 590v110h105v-110h-105zM210 0h-95v418h-90v82h90v95q0 105 105 105h140v-82h-110q-22 0 -31 -10t-9 -33v-75h323v-500h-95v418h-228v-418z" />
    <glyph glyph-name="fl" unicode="&#xfb02;" 
d="M210 0h-95v420h-90v80h90v95q0 105 105 105h320v-700h-95v615h-195q-22 0 -31 -8.5t-9 -31.5v-75h125v-80h-125v-420z" />
    <glyph glyph-name="AEmacron" 
d="M215 780v80h290v-80h-290zM269 615l-90 -345h90v345zM269 180h-113l-47 -180h-100l206 700h340v-90h-185v-205h170v-95h-170v-215h220v-95h-321v180z" />
    <glyph glyph-name="Gtilde" 
d="M220 1080q34 0 34 39h80v-16q0 -42 -29.5 -71t-70.5 -29q-37 0 -80 23l-18 10q-27 15 -44 15q-18 0 -27.5 -11.5t-9.5 -27.5h-80v16q0 42 29.5 71t72.5 29q39 0 75 -19l18 -10q38 -19 50 -19zM461 0v105q-11 -21 -20 -35.5t-28 -35.5t-46 -32.5t-60 -11.5
q-137 0 -202 95.5t-65 264.5t65 264.5t202 95.5q97 0 159 -63.5t77 -176.5h-100q-7 74 -41 112t-90 38h-5q-92 0 -129.5 -68.5t-37.5 -201.5q0 -270 183 -270h10q48 0 88 52t40 113v14h-175v90h160q45 0 72.5 -27t27.5 -72v-250h-85z" />
    <glyph glyph-name="Mcircumflex" 
d="M480 760h-70l-110 60l-110 -60h-70l120 130h120zM161 568v-568h-91v700h115l116 -305l114 305h115v-700h-90v570l-1 -1l-104 -289h-69z" />
    <glyph glyph-name="Mmacron" 
d="M155 780v80h290v-80h-290zM161 568v-568h-91v700h115l116 -305l114 305h115v-700h-90v570l-1 -1l-104 -289h-69z" />
    <glyph glyph-name="Ncircumflex" 
d="M480 760h-70l-110 60l-110 -60h-70l120 130h120zM70 0v700h140l220 -580v580h100v-700h-140l-220 580v-580h-100z" />
    <glyph glyph-name="Ndieresis" 
d="M347 770v110h105v-110h-105zM152 770v110h105v-110h-105zM70 0v700h140l220 -580v580h100v-700h-140l-220 580v-580h-100z" />
    <glyph glyph-name="Nmacron" 
d="M155 780v80h290v-80h-290zM70 0v700h140l220 -580v580h100v-700h-140l-220 580v-580h-100z" />
    <glyph glyph-name="OEacute" 
d="M213 760l40 130h135l-105 -130h-70zM600 0h-308q-134 0 -206.5 90.5t-72.5 259.5q0 168 71.5 258.5t205.5 91.5h300v-90h-198v-205h180v-90h-180v-225h208v-90zM288 90h4v520h-4q-175 0 -175 -260t175 -260z" />
    <glyph glyph-name="Pmacron" 
d="M155 780v80h290v-80h-290zM70 0v700h265q102 0 163.5 -55.5t61.5 -154.5t-61.5 -154.5t-163.5 -55.5h-165v-280h-100zM170 370h150q140 0 140 120t-140 120h-150v-240z" />
    <glyph glyph-name="Ymacron" 
d="M280 780v80h290v-80h-290zM349 0h-100v290l-231 410h116l167 -302l163 302h115l-230 -410v-290z" />
    <glyph glyph-name="aemacron" 
d="M158 590v80h285v-80h-285zM410 429q-35 0 -52 -27t-21 -93h158q0 120 -75 120h-10zM595 144q-4 -25 -8 -42t-16 -40t-28.5 -37.5t-47 -25t-70.5 -10.5q-109 0 -150 86q-47 -85 -149 -85q-70 0 -103.5 39t-33.5 106q0 81 40 113.5t111 38.5l101 13v25q0 55 -15 80t-55 25
h-5q-62 0 -70 -75h-97q4 71 46.5 113t125.5 42q85 0 126 -47q41 46 118 46q175 0 175 -240v-35h-255q2 -90 20.5 -127.5t64.5 -37.5h10q70 0 70 75h95zM143 70h10q37 0 62.5 32.5t25.5 77.5v47l-90 -12q-41 -4 -53.5 -21t-12.5 -55q0 -31 15.5 -50t42.5 -19z" />
    <glyph glyph-name="dinamo" 
d="M453 440q-6 18 -20 25q0 -11 6 -18t14 -7zM343 410q-3 -14 5 -22t20 -8q0 10 15 20q-20 10 -40 10zM323 320q-31 -10 -77.5 -40.5t-72.5 -39.5q3 -8 10.5 -20t11 -23t3.5 -27q27 2 78.5 21t86.5 19q-3 10 -10 25t-10 25q-7 12 -9.5 32t-10.5 28zM143 210q-5 -7 -21 -20.5
t-19 -24.5q1 0 17 -1t27.5 0.5t20.5 5.5q-4 4 -10.5 19t-14.5 21zM493 520q58 12 80 -5q-7 -30 -30 -30q-9 -39 -20 -58t-35 -22q-15 -30 -30 -40q-11 -16 -46.5 -25t-48.5 -20q0 -22 7.5 -39.5t21.5 -38.5t21 -37q0 -7 15.5 -23t34.5 -27q3 -3 11.5 -9t13.5 -10t12 -10.5
t9.5 -11t3.5 -10t-3 -10.5t-12 -9q-23 9 -49.5 34t-35.5 31q0 -17 9 -54.5t11 -50.5q-31 -25 -47 35q-3 11 -8 37q-11 52 -20 58q-27 -2 -50.5 -9t-52.5 -20t-37 -16q2 -25 20 -46t38.5 -42.5t26.5 -46.5q-4 -9 -11 -9.5t-15.5 5.5t-16.5 13.5t-19 18.5t-18 17
q-18 37 -35 45q-1 -4 -3 -35t-8 -45.5t-19 -14.5q-10 -1 -14 6t-3.5 20t3.5 27.5t8 31t9 27t7 18.5q-15 12 -63 10t-67 10q0 10 -10 10q6 9 16.5 15.5t13.5 9.5q8 15 30 35t30 35q-5 3 -20.5 9.5t-28 14t-16.5 16.5q5 0 5 15q9 5 17 5t13 -3t14 -8.5t16 -8.5q5 9 1 31t4 24
h5q13 -2 19 -12t9.5 -28t6.5 -25q16 2 29.5 11t28 21.5t22.5 17.5q25 10 85 30q-41 51 -15 90q43 5 74 -10t21 -55q11 0 24 6t16 19q-7 5 -23 12t-22 18q-11 11 -5.5 34t20.5 31q23 12 46.5 -5t23.5 -50q5 5 7.5 11.5t4 11t0.5 13.5t-1.5 12.5t-3 14t-2.5 12.5z" />
    <glyph glyph-name="edgeleft" 
d="M256 515v-330q0 -33 20 -54t50 -21h65v-85h-45q-20 0 -32.5 -11.5t-12.5 -33.5v-10q0 -22 12.5 -33.5t32.5 -11.5h95v-85h-100q-58 0 -99 38t-41 97q0 53 35 78q-33 15 -56.5 52.5t-23.5 84.5v320q0 47 23.5 84.5t56.5 52.5q-35 25 -35 78q0 59 41 97t99 38h100v-85h-95
q-20 0 -32.5 -11.5t-12.5 -33.5v-10q0 -22 12.5 -33.5t32.5 -11.5h45v-85h-65q-30 0 -50 -21t-20 -54z" />
    <glyph glyph-name="edgeright" 
d="M343 185v330q0 33 -20 54t-50 21h-65v85h45q20 0 32.5 11.5t12.5 33.5v10q0 22 -12.5 33.5t-32.5 11.5h-95v85h100q58 0 99 -38t41 -97q0 -53 -35 -78q33 -15 56.5 -52.5t23.5 -84.5v-320q0 -47 -23.5 -84.5t-56.5 -52.5q35 -25 35 -78q0 -59 -41 -97t-99 -38h-100v85h95
q20 0 32.5 11.5t12.5 33.5v10q0 22 -12.5 33.5t-32.5 11.5h-45v85h65q30 0 50 21t20 54z" />
    <glyph glyph-name="emspace" 
 />
    <glyph glyph-name="enspace" 
 />
    <glyph glyph-name="gtilde" 
d="M368 638q13 0 21 13t8 29h70q0 -51 -24 -80.5t-64 -29.5q-38 0 -78 22l-18 10q-28 15 -37 15q-30 0 -34 -42h-70q0 50 27 80t71 30q31 0 66 -20l18 -10q32 -17 44 -17zM303 80h10q60 0 92.5 46t32.5 129t-32.5 129t-92.5 46h-10q-56 0 -93 -44.5t-37 -130.5t37 -130.5
t93 -44.5zM278 -220q-91 0 -146.5 43t-63.5 112h95q15 -75 120 -75h10q67 0 106 37t39 113v75q-20 -36 -60 -60.5t-90 -24.5q-84 0 -147 65t-63 190q0 119 62 187t153 68q49 0 88.5 -26t56.5 -59v75h95v-500q0 -100 -67 -160t-188 -60z" />
    <glyph glyph-name="mcircumflex" 
d="M140 565l120 135h100l120 -135h-70l-99 75l-101 -75h-70zM52 0v500h95v-74q31 84 100 84q77 0 99 -84q17 43 39.5 63.5t67.5 20.5q31 0 52.5 -10t33.5 -25t18.5 -41.5t8 -51t1.5 -62.5v-320h-95v310v17q0 31 -0.5 44.5t-5 30t-15.5 22.5t-29 6h-2q-63 0 -63 -140v-290
h-95v310q0 63 -9.5 91.5t-40.5 28.5h-2q-34 0 -48.5 -32.5t-14.5 -107.5v-290h-95z" />
    <glyph glyph-name="mmacron" 
d="M167 590v80h285v-80h-285zM52 0v500h95v-74q31 84 100 84q77 0 99 -84q17 43 39.5 63.5t67.5 20.5q31 0 52.5 -10t33.5 -25t18.5 -41.5t8 -51t1.5 -62.5v-320h-95v310v17q0 31 -0.5 44.5t-5 30t-15.5 22.5t-29 6h-2q-63 0 -63 -140v-290h-95v310q0 63 -9.5 91.5
t-40.5 28.5h-2q-34 0 -48.5 -32.5t-14.5 -107.5v-290h-95z" />
    <glyph glyph-name="ncircumflex" 
d="M130 565l120 135h100l120 -135h-70l-99 75l-101 -75h-70zM85 0v500h95v-95q16 45 58.5 75t106.5 30q84 0 129.5 -49.5t45.5 -130.5v-330h-95v310q0 120 -105 120h-10q-52 0 -91 -44t-39 -116v-270h-95z" />
    <glyph glyph-name="ndieresis" 
d="M347 585v105h100v-105h-100zM157 585v105h100v-105h-100zM85 0v500h95v-95q16 45 58.5 75t106.5 30q84 0 129.5 -49.5t45.5 -130.5v-330h-95v310q0 120 -105 120h-10q-52 0 -91 -44t-39 -116v-270h-95z" />
    <glyph glyph-name="nmacron" 
d="M157 590v80h285v-80h-285zM85 0v500h95v-95q16 45 58.5 75t106.5 30q84 0 129.5 -49.5t45.5 -130.5v-330h-95v310q0 120 -105 120h-10q-52 0 -91 -44t-39 -116v-270h-95z" />
    <glyph glyph-name="oeacute" 
d="M223 565l55 135h100l-90 -135h-65zM367 430q-40 0 -55.5 -26t-18.5 -94h159q0 39 -3.5 61.5t-21 40.5t-50.5 18h-10zM120 70q20 0 34 4.5t22.5 17.5t13.5 24t7 37t2.5 43t0.5 54t-0.5 54t-2.5 43t-7 37t-13.5 24t-22.5 17.5t-34 4.5h-10q-20 0 -34 -4.5t-22.5 -17.5
t-13.5 -24t-7 -37t-2.5 -43t-0.5 -54t0.5 -54t2.5 -43t7 -37t13.5 -24t22.5 -17.5t34 -4.5h10zM552 145q-4 -25 -8 -42t-16 -40t-28.5 -37.5t-47 -25t-70.5 -10.5q-89 0 -133 58q-44 -58 -134 -58q-100 0 -140 65.5t-40 194.5q0 260 180 260q86 0 130 -57q42 57 127 57
q175 0 175 -240v-35h-252q0 -13 -2 -37q5 -69 24 -98.5t60 -29.5h10q31 0 46 19.5t24 55.5h95z" />
    <glyph glyph-name="pmacron" 
d="M165 590v80h285v-80h-285zM311 430q-58 0 -94.5 -48t-36.5 -132t36.5 -132t94.5 -48h5q58 0 93.5 46.5t35.5 133.5t-35.5 133.5t-93.5 46.5h-5zM336 510q97 0 150.5 -69.5t53.5 -190.5t-54.5 -190.5t-154.5 -69.5q-49 0 -89 22t-62 63v-275h-95v700h90v-80q53 90 161 90z
" />
    <glyph glyph-name="ringacute" 
d="M261 766l55 135h100l-90 -135h-65zM205 645q0 40 28.5 67.5t66.5 27.5t66.5 -27.5t28.5 -67.5t-28.5 -67.5t-66.5 -27.5t-66.5 27.5t-28.5 67.5zM301 689q-18 0 -31 -13t-13 -31t13 -31t31 -13t30.5 13t12.5 31t-12.5 31t-30.5 13z" />
    <glyph glyph-name="thinspace" 
 />
    <glyph glyph-name="ymacron" 
d="M209 590v80h285v-80h-285zM39 -200v80h140q26 0 40.5 16.5t14.5 43.5v70l-210 490h105l150 -370l150 370h100l-205 -490v-100q0 -49 -30.5 -79.5t-79.5 -30.5h-175z" />
    <glyph glyph-name="f_f" 
d="M210 0h-95v418h-90v82h90v95q0 105 105 105h110v-82h-80q-22 0 -31 -9t-9 -31v-78h177v95q0 105 105 105h200v-83h-170q-22 0 -31 -8.5t-9 -31.5v-77h185v-82h-185v-418h-95v418h-177v-418z" />
    <glyph glyph-name="commaaccent.caps" 
d="M247 -315h-25v60h20q70 0 70 60v15h-45v120h110v-130q0 -59 -36 -92t-94 -33z" />
    <glyph glyph-name="dotaccent.low" 
d="M250 -185v110h100v-110h-100z" />
    <glyph glyph-name="hyphen.case" 
d="M165 305v90h270v-90h-270z" />
    <glyph glyph-name="endash.case" 
d="M75 305v90h450v-90h-450z" />
    <glyph glyph-name="emdash.case" 
d="M-1 305v90h601v-90h-601z" />
    <glyph glyph-name="acute.case" 
d="M213 760l40 130h135l-105 -130h-70z" />
    <glyph glyph-name="grave.case" 
d="M348 890l40 -130h-70l-105 130h135z" />
    <glyph glyph-name="hungarumlaut.case" 
d="M295 760l40 130h135l-105 -130h-70zM131 760l40 130h135l-105 -130h-70z" />
    <glyph glyph-name="circumflex.case" 
d="M480 760h-70l-110 60l-110 -60h-70l120 130h120z" />
    <glyph glyph-name="caron.case" 
d="M410 890h70l-120 -130h-120l-120 130h70l110 -60z" />
    <glyph glyph-name="breve.case" 
d="M300 817q35 0 59 18.5t26 54.5h75q-1 -67 -45.5 -107.5t-114.5 -40.5t-114.5 40.5t-45.5 107.5h75q2 -36 26 -54.5t59 -18.5z" />
    <glyph glyph-name="tilde.case" 
d="M366 832q34 0 34 39h80v-16q0 -42 -29.5 -71t-70.5 -29q-37 0 -80 23l-18 10q-27 15 -44 15q-18 0 -27.5 -11.5t-9.5 -27.5h-80v16q0 42 29.5 71t72.5 29q39 0 75 -19l18 -10q38 -19 50 -19z" />
    <glyph glyph-name="macron.case" 
d="M155 780v80h290v-80h-290z" />
    <glyph glyph-name="dieresis.case" 
d="M345 770v110h105v-110h-105zM150 770v110h105v-110h-105z" />
    <glyph glyph-name="dotaccent.case" 
d="M243 770v110h115v-110h-115z" />
    <glyph glyph-name="ring.case" 
d="M200 840q0 42 30 71t70 29q41 0 70.5 -28.5t29.5 -71.5t-29.5 -71.5t-70.5 -28.5q-40 0 -70 29t-30 71zM301 886q-19 0 -32.5 -13.5t-13.5 -32.5t13.5 -32.5t32.5 -13.5t32 13.5t13 32.5t-13 32.5t-32 13.5z" />
    <glyph glyph-name="cedilla.case" 
d="M204 -245v67h68q52 0 52 39q0 35 -43 35h-37v114h65v-56q35 0 61 -27t26 -68q0 -47 -32 -75.5t-83 -28.5h-77z" />
    <glyph glyph-name="ogonek.case" 
d="M340 -220q-53 0 -84 28t-31 77q0 80 90 125l60 -10q-80 -50 -80 -100t65 -50h15v-70h-35z" />
    <glyph glyph-name="ringacute.case" 
 />
    <glyph glyph-name="zero.posf" 
d="M300 510q104 0 177 -73t73 -187t-73 -187t-177 -73t-177 73t-73 187t73 187t177 73zM305 430h-10q-60 0 -105 -49t-45 -131t45 -131t105 -49h10q60 0 105 49t45 131t-45 131t-105 49z" />
    <glyph glyph-name="one.posf" 
d="M320 0h-95v375l-165 -161v111l180 175h80v-500z" />
    <glyph glyph-name="two.posf" 
d="M523 2h-433v106l244 152q56 34 70 53q16 19 16 43q0 38 -29.5 57t-73.5 19h-9q-44 0 -74 -26.5t-34 -69.5h-100q6 83 66 129.5t150 46.5q85 0 142 -37.5t57 -110.5q0 -53 -28 -89.5t-80 -67.5l-208 -122h324v-83z" />
    <glyph glyph-name="three.posf" 
d="M300 -210q-114 0 -174 57t-66 133h95q17 -110 140 -110h10q61 0 103 33t42 87q0 56 -36 88.5t-94 32.5h-60v80h60q55 0 90 34.5t35 84.5q0 55 -38.5 87.5t-96.5 32.5h-10q-56 0 -93.5 -31t-41.5 -79h-95q5 86 73.5 138t161.5 52q101 0 168 -52.5t67 -142.5q0 -57 -32 -99
t-86 -62q57 -16 90 -60t33 -109q0 -89 -69 -142t-176 -53z" />
    <glyph glyph-name="four.posf" 
d="M480 -200h-95v200h-340v96l340 404h95v-420h110v-80h-110v-200zM385 80v292l-248 -292h248z" />
    <glyph glyph-name="five.posf" 
d="M301 -210q-100 0 -170 51.5t-77 143.5h95q7 -54 48 -84.5t99 -30.5h10q64 0 104.5 42.5t40.5 107.5q0 60 -36.5 98t-96.5 38h-10q-82 0 -141 -71h-88l85 415h375v-84h-304l-52 -243q66 61 159 63q89 1 146.5 -59.5t57.5 -151.5q0 -103 -70 -169t-175 -66z" />
    <glyph glyph-name="six.posf" 
d="M545 234q0 -110 -68 -177t-172 -67q-126 0 -195.5 90.5t-69.5 249.5q0 103 32 187t100.5 138.5t164.5 54.5q91 0 151.5 -47.5t76.5 -132.5h-95q-12 46 -46 73t-81 27h-10q-65 0 -112 -43t-69 -106t-27 -140q68 119 210 119q94 0 152 -64.5t58 -161.5zM300 70h10
q64 0 102 44t38 111t-37.5 111t-101.5 44h-10q-61 0 -106 -43.5t-45 -105.5q0 -67 42 -114t108 -47z" />
    <glyph glyph-name="seven.posf" 
d="M230 -200h-95v50q0 89 17.5 168t43 135t65.5 108.5t74 85.5t79 69h-389v84h485v-95q-70 -57 -117 -108.5t-86.5 -120t-58 -155t-18.5 -196.5v-25z" />
    <glyph glyph-name="eight.posf" 
d="M300 -10q-106 0 -170.5 53t-64.5 142q0 119 131 178q-116 50 -116 159q0 79 59 133.5t161 54.5t161 -54.5t59 -133.5q0 -109 -116 -159q131 -59 131 -177q0 -90 -64.5 -143t-170.5 -53zM305 630h-10q-49 0 -84.5 -31.5t-35.5 -83.5q0 -51 35 -83.5t85 -32.5h10
q50 0 85.5 32.5t34.5 83.5q-1 53 -36 84t-84 31zM295 70h10q58 0 96.5 34t38.5 92q0 49 -39.5 86t-95.5 37h-10q-56 0 -95.5 -37.5t-39.5 -86.5q0 -58 38.5 -91.5t96.5 -33.5z" />
    <glyph glyph-name="nine.posf" 
d="M360 430h-10q-64 0 -102 -44t-38 -111t37.5 -111t101.5 -44h10q61 0 106 43.5t45 105.5q0 67 -42 114t-108 47zM323 -210q-91 0 -151.5 47.5t-76.5 132.5h95q12 -46 46 -73t81 -27h10q65 0 112 43t69 106t27 140q-68 -119 -210 -119q-94 0 -152 64.5t-58 161.5
q0 110 68 177t172 67q126 0 195.5 -90.5t69.5 -249.5q0 -103 -32 -187t-100.5 -138.5t-164.5 -54.5z" />
    <glyph glyph-name="zero.tnum" 
d="M300 -10q-129 0 -202 93t-73 267t73 267t202 93t202 -93t73 -267t-73 -267t-202 -93zM295 70h10q33 0 61.5 13.5t55.5 43.5t42.5 87t15.5 136t-15.5 136t-42.5 87t-55.5 43.5t-61.5 13.5h-10q-33 0 -61.5 -13.5t-55.5 -43.5t-42.5 -87t-15.5 -136t15.5 -136t42.5 -87
t55.5 -43.5t61.5 -13.5z" />
    <glyph glyph-name="one.tnum" 
d="M565 0h-510v84h215v481l-160 -155v115l180 175h75v-616h200v-84z" />
    <glyph glyph-name="two.tnum" 
d="M534 0h-470v100l238 215q4 4 28.5 27t30.5 29.5t23 26.5t22.5 32.5t11.5 32t6 39.5q0 57 -35.5 92.5t-88.5 35.5h-10q-54 0 -90 -33t-45 -95h-95q10 94 74 151t163 57q105 0 163.5 -56.5t58.5 -142.5q0 -119 -114 -218l-236 -209h365v-84z" />
    <glyph glyph-name="three.tnum" 
d="M300 -10q-114 0 -174 57t-66 133h95q17 -110 140 -110h10q61 0 103 33t42 87q0 56 -36 88.5t-94 32.5h-60v80h60q55 0 90 34.5t35 84.5q0 55 -38.5 87.5t-96.5 32.5h-10q-56 0 -93.5 -31t-41.5 -79h-95q5 86 73.5 138t161.5 52q101 0 168 -52.5t67 -142.5q0 -57 -32 -99
t-86 -62q57 -16 90 -60t33 -109q0 -89 -69 -142t-176 -53z" />
    <glyph glyph-name="four.tnum" 
d="M473 0h-95v159h-345v96l345 445h95v-461h110v-80h-110v-159zM378 239v332l-258 -332h258z" />
    <glyph glyph-name="five.tnum" 
d="M301 -10q-100 0 -170 51.5t-77 143.5h95q7 -54 48 -84.5t99 -30.5h10q64 0 104.5 42.5t40.5 107.5q0 60 -36.5 98t-96.5 38h-10q-82 0 -141 -71h-88l85 415h375v-84h-304l-52 -243q66 61 159 63q89 1 146.5 -59.5t57.5 -151.5q0 -103 -70 -169t-175 -66z" />
    <glyph glyph-name="six.tnum" 
d="M545 234q0 -110 -68 -177t-172 -67q-126 0 -195.5 90.5t-69.5 249.5q0 103 32 187t100.5 138.5t164.5 54.5q91 0 151.5 -47.5t76.5 -132.5h-95q-12 46 -46 73t-81 27h-10q-65 0 -112 -43t-69 -106t-27 -140q68 119 210 119q94 0 152 -64.5t58 -161.5zM300 70h10
q64 0 102 44t38 111t-37.5 111t-101.5 44h-10q-61 0 -106 -43.5t-45 -105.5q0 -67 42 -114t108 -47z" />
    <glyph glyph-name="seven.tnum" 
d="M295 0h-95v50q0 110 24 202.5t67.5 160.5t85.5 113t97 90h-399v84h485v-95q-89 -73 -143.5 -144.5t-88 -181t-33.5 -254.5v-25z" />
    <glyph glyph-name="eight.tnum" 
d="M300 -10q-102 0 -161 54.5t-59 133.5q0 109 116 159q-131 59 -131 178q0 89 64.5 142t170.5 53t170.5 -53t64.5 -143q0 -118 -131 -177q116 -50 116 -159q0 -79 -59 -133.5t-161 -54.5zM305 630h-10q-58 0 -96.5 -33.5t-38.5 -91.5q0 -49 39.5 -86.5t95.5 -37.5h10
q56 0 95.5 37t39.5 86q0 58 -38.5 92t-96.5 34zM295 70h10q49 0 84 31t36 84q1 51 -34.5 83.5t-85.5 32.5h-10q-50 0 -85 -32.5t-35 -83.5q0 -52 35.5 -83.5t84.5 -31.5z" />
    <glyph glyph-name="nine.tnum" 
d="M300 630h-10q-64 0 -102 -44t-38 -111t37.5 -111t101.5 -44h10q61 0 106 43.5t45 105.5q0 67 -42 114t-108 47zM263 -10q-91 0 -151.5 47.5t-76.5 132.5h95q12 -46 46 -73t81 -27h10q65 0 112 43t69 106t27 140q-68 -119 -210 -119q-94 0 -152 64.5t-58 161.5
q0 110 68 177t172 67q126 0 195.5 -90.5t69.5 -249.5q0 -103 -32 -187t-100.5 -138.5t-164.5 -54.5z" />
    <glyph glyph-name="zero.tosf" 
d="M300 510q104 0 177 -73t73 -187t-73 -187t-177 -73t-177 73t-73 187t73 187t177 73zM305 430h-10q-60 0 -105 -49t-45 -131t45 -131t105 -49h10q60 0 105 49t45 131t-45 131t-105 49z" />
    <glyph glyph-name="one.tosf" 
d="M555 0h-510v84h230v291l-165 -161v111l180 175h80v-416h185v-84z" />
    <glyph glyph-name="two.tosf" 
d="M515 2h-433v106l244 152q56 34 70 53q16 19 16 43q0 38 -29.5 57t-73.5 19h-9q-44 0 -74 -26.5t-34 -69.5h-100q6 83 66 129.5t150 46.5q85 0 142 -37.5t57 -110.5q0 -53 -28 -89.5t-80 -67.5l-208 -122h324v-83z" />
    <glyph glyph-name="three.tosf" 
d="M308 -210q-114 0 -174 57t-66 133h95q17 -110 140 -110h10q61 0 103 33t42 87q0 56 -36 88.5t-94 32.5h-60v80h60q55 0 90 34.5t35 84.5q0 55 -38.5 87.5t-96.5 32.5h-10q-56 0 -93.5 -31t-41.5 -79h-95q5 86 73.5 138t161.5 52q101 0 168 -52.5t67 -142.5q0 -57 -32 -99
t-86 -62q57 -16 90 -60t33 -109q0 -89 -69 -142t-176 -53z" />
    <glyph glyph-name="four.tosf" 
d="M480 -200h-95v200h-345v96l345 404h95v-420h110v-80h-110v-200zM385 80v293l-253 -293h253z" />
    <glyph glyph-name="five.tosf" 
d="M301 -210q-100 0 -170 51.5t-77 143.5h95q7 -54 48 -84.5t99 -30.5h10q64 0 104.5 42.5t40.5 107.5q0 60 -36.5 98t-96.5 38h-10q-82 0 -141 -71h-88l85 415h375v-84h-304l-52 -243q66 61 159 63q89 1 146.5 -59.5t57.5 -151.5q0 -103 -70 -169t-175 -66z" />
    <glyph glyph-name="six.tosf" 
d="M515 234q0 -110 -68 -177t-172 -67q-126 0 -195.5 90.5t-69.5 249.5q0 103 32 187t100.5 138.5t164.5 54.5q91 0 151.5 -47.5t76.5 -132.5h-95q-12 46 -46 73t-81 27h-10q-65 0 -112 -43t-69 -106t-27 -140q68 119 210 119q94 0 152 -64.5t58 -161.5zM270 70h10
q64 0 102 44t38 111t-37.5 111t-101.5 44h-10q-61 0 -106 -43.5t-45 -105.5q0 -67 42 -114t108 -47z" />
    <glyph glyph-name="seven.tosf" 
d="M259 -200h-95v50q0 89 20.5 168.5t49 134t75 109t80.5 84.5t84 70h-444v84h542v-95q-60 -49 -99.5 -86t-83.5 -91.5t-69.5 -109.5t-42.5 -130.5t-17 -162.5v-25z" />
    <glyph glyph-name="eight.tosf" 
d="M300 -10q-106 0 -170.5 53t-64.5 142q0 119 131 178q-116 50 -116 159q0 79 59 133.5t161 54.5t161 -54.5t59 -133.5q0 -109 -116 -159q131 -59 131 -177q0 -90 -64.5 -143t-170.5 -53zM305 630h-10q-49 0 -84.5 -31.5t-35.5 -83.5q0 -51 35 -83.5t85 -32.5h10
q50 0 85.5 32.5t34.5 83.5q-1 53 -36 84t-84 31zM295 70h10q58 0 96.5 34t38.5 92q0 49 -39.5 86t-95.5 37h-10q-56 0 -95.5 -37.5t-39.5 -86.5q0 -58 38.5 -91.5t96.5 -33.5z" />
    <glyph glyph-name="nine.tosf" 
d="M330 430h-10q-64 0 -102 -44t-38 -111t37.5 -111t101.5 -44h10q61 0 106 43.5t45 105.5q0 67 -42 114t-108 47zM293 -210q-91 0 -151.5 47.5t-76.5 132.5h95q12 -46 46 -73t81 -27h10q65 0 112 43t69 106t27 140q-68 -119 -210 -119q-94 0 -152 64.5t-58 161.5
q0 110 68 177t172 67q126 0 195.5 -90.5t69.5 -249.5q0 -103 -32 -187t-100.5 -138.5t-164.5 -54.5z" />
    <glyph glyph-name="G.ss02" 
d="M305 -10q-146 0 -206 91.5t-60 268.5q0 83 13 145.5t43 112.5t84 76t131 26q121 0 177.5 -61t72.5 -179h-100q-12 78 -45 114t-105 36h-10q-86 1 -123 -68t-37 -202q0 -139 33.5 -204t126.5 -66h20q67 -1 101 32.5t34 87.5v65h-145v90h245v-170q0 -86 -65 -140.5
t-185 -54.5z" />
    <glyph glyph-name="Gtilde.ss02" 
d="M366 832q34 0 34 39h80v-16q0 -42 -29.5 -71t-70.5 -29q-37 0 -80 23l-18 10q-27 15 -44 15q-18 0 -27.5 -11.5t-9.5 -27.5h-80v16q0 42 29.5 71t72.5 29q39 0 75 -19l18 -10q38 -19 50 -19zM305 -10q-146 0 -206 91.5t-60 268.5q0 83 13 145.5t43 112.5t84 76t131 26
q121 0 177.5 -61t72.5 -179h-100q-12 78 -45 114t-105 36h-10q-86 1 -123 -68t-37 -202q0 -139 33.5 -204t126.5 -66h20q67 -1 101 32.5t34 87.5v65h-145v90h245v-170q0 -86 -65 -140.5t-185 -54.5z" />
    <glyph glyph-name="Gcircumflex.ss02" 
d="M480 760h-70l-110 60l-110 -60h-70l120 130h120zM305 -10q-146 0 -206 91.5t-60 268.5q0 83 13 145.5t43 112.5t84 76t131 26q121 0 177.5 -61t72.5 -179h-100q-12 78 -45 114t-105 36h-10q-86 1 -123 -68t-37 -202q0 -139 33.5 -204t126.5 -66h20q67 -1 101 32.5
t34 87.5v65h-145v90h245v-170q0 -86 -65 -140.5t-185 -54.5z" />
    <glyph glyph-name="Gbreve.ss02" 
d="M300 817q35 0 59 18.5t26 54.5h75q-1 -67 -45.5 -107.5t-114.5 -40.5t-114.5 40.5t-45.5 107.5h75q2 -36 26 -54.5t59 -18.5zM305 -10q-146 0 -206 91.5t-60 268.5q0 83 13 145.5t43 112.5t84 76t131 26q121 0 177.5 -61t72.5 -179h-100q-12 78 -45 114t-105 36h-10
q-86 1 -123 -68t-37 -202q0 -139 33.5 -204t126.5 -66h20q67 -1 101 32.5t34 87.5v65h-145v90h245v-170q0 -86 -65 -140.5t-185 -54.5z" />
    <glyph glyph-name="Gdotaccent.ss02" 
d="M243 770v110h115v-110h-115zM305 -10q-146 0 -206 91.5t-60 268.5q0 83 13 145.5t43 112.5t84 76t131 26q121 0 177.5 -61t72.5 -179h-100q-12 78 -45 114t-105 36h-10q-86 1 -123 -68t-37 -202q0 -139 33.5 -204t126.5 -66h20q67 -1 101 32.5t34 87.5v65h-145v90h245
v-170q0 -86 -65 -140.5t-185 -54.5z" />
    <glyph glyph-name="Gcommaaccent.ss02" 
d="M305 -10q-146 0 -206 91.5t-60 268.5q0 83 13 145.5t43 112.5t84 76t131 26q121 0 177.5 -61t72.5 -179h-100q-12 78 -45 114t-105 36h-10q-86 1 -123 -68t-37 -202q0 -139 33.5 -204t126.5 -66h20q67 -1 101 32.5t34 87.5v65h-145v90h245v-170q0 -86 -65 -140.5
t-185 -54.5zM247 -315h-25v60h20q70 0 70 60v15h-45v120h110v-130q0 -59 -36 -92t-94 -33z" />
    <glyph glyph-name="R.alt" 
d="M170 370h100q66 0 108 33.5t42 91.5q0 115 -135 115h-115v-240zM170 0h-100v700h230q100 0 160 -48.5t60 -136.5q0 -70 -41.5 -114t-103.5 -61q60 -6 82.5 -27t42.5 -78l75 -235h-105l-65 200q-16 47 -34 63.5t-61 16.5h-140v-280z" />
    <glyph glyph-name="Racute.alt" 
d="M213 760l40 130h135l-105 -130h-70zM170 370h100q66 0 108 33.5t42 91.5q0 115 -135 115h-115v-240zM170 0h-100v700h230q100 0 160 -48.5t60 -136.5q0 -70 -41.5 -114t-103.5 -61q60 -6 82.5 -27t42.5 -78l75 -235h-105l-65 200q-16 47 -34 63.5t-61 16.5h-140v-280z
" />
    <glyph glyph-name="Rcommaaccent.alt" 
d="M170 370h100q66 0 108 33.5t42 91.5q0 115 -135 115h-115v-240zM170 0h-100v700h230q100 0 160 -48.5t60 -136.5q0 -70 -41.5 -114t-103.5 -61q60 -6 82.5 -27t42.5 -78l75 -235h-105l-65 200q-16 47 -34 63.5t-61 16.5h-140v-280zM247 -315h-25v60h20q70 0 70 60v15h-45
v120h110v-130q0 -59 -36 -92t-94 -33z" />
    <glyph glyph-name="Rcaron.alt" 
d="M410 890h70l-120 -130h-120l-120 130h70l110 -60zM170 370h100q66 0 108 33.5t42 91.5q0 115 -135 115h-115v-240zM170 0h-100v700h230q100 0 160 -48.5t60 -136.5q0 -70 -41.5 -114t-103.5 -61q60 -6 82.5 -27t42.5 -78l75 -235h-105l-65 200q-16 47 -34 63.5t-61 16.5
h-140v-280z" />
    <glyph glyph-name="a.alt" 
d="M302 75q60 0 95 48t35 127q0 83 -33 131.5t-92 48.5h-10q-59 0 -97 -46.5t-38 -133.5q0 -86 37 -130.5t93 -44.5h10zM277 -10q-95 0 -152.5 70.5t-57.5 189.5q0 118 60 189t155 71q106 0 150 -80v70h100v-500h-100v75q-19 -39 -59.5 -62t-95.5 -23z" />
    <glyph glyph-name="agrave.alt" 
d="M323 700l55 -135h-65l-90 135h100zM302 75q60 0 95 48t35 127q0 83 -33 131.5t-92 48.5h-10q-59 0 -97 -46.5t-38 -133.5q0 -86 37 -130.5t93 -44.5h10zM277 -10q-95 0 -152.5 70.5t-57.5 189.5q0 118 60 189t155 71q106 0 150 -80v70h100v-500h-100v75
q-19 -39 -59.5 -62t-95.5 -23z" />
    <glyph glyph-name="aacute.alt" 
d="M265 565l55 135h100l-90 -135h-65zM302 75q60 0 95 48t35 127q0 83 -33 131.5t-92 48.5h-10q-59 0 -97 -46.5t-38 -133.5q0 -86 37 -130.5t93 -44.5h10zM277 -10q-95 0 -152.5 70.5t-57.5 189.5q0 118 60 189t155 71q106 0 150 -80v70h100v-500h-100v75
q-19 -39 -59.5 -62t-95.5 -23z" />
    <glyph glyph-name="acircumflex.alt" 
d="M130 565l120 135h100l120 -135h-70l-99 75l-101 -75h-70zM302 75q60 0 95 48t35 127q0 83 -33 131.5t-92 48.5h-10q-59 0 -97 -46.5t-38 -133.5q0 -86 37 -130.5t93 -44.5h10zM277 -10q-95 0 -152.5 70.5t-57.5 189.5q0 118 60 189t155 71q106 0 150 -80v70h100v-500
h-100v75q-19 -39 -59.5 -62t-95.5 -23z" />
    <glyph glyph-name="atilde.alt" 
d="M368 638q13 0 21 13t8 29h70q0 -51 -24 -80.5t-64 -29.5q-38 0 -78 22l-18 10q-28 15 -37 15q-30 0 -34 -42h-70q0 50 27 80t71 30q31 0 66 -20l18 -10q32 -17 44 -17zM302 75q60 0 95 48t35 127q0 83 -33 131.5t-92 48.5h-10q-59 0 -97 -46.5t-38 -133.5
q0 -86 37 -130.5t93 -44.5h10zM277 -10q-95 0 -152.5 70.5t-57.5 189.5q0 118 60 189t155 71q106 0 150 -80v70h100v-500h-100v75q-19 -39 -59.5 -62t-95.5 -23z" />
    <glyph glyph-name="adieresis.alt" 
d="M347 585v105h100v-105h-100zM157 585v105h100v-105h-100zM302 75q60 0 95 48t35 127q0 83 -33 131.5t-92 48.5h-10q-59 0 -97 -46.5t-38 -133.5q0 -86 37 -130.5t93 -44.5h10zM277 -10q-95 0 -152.5 70.5t-57.5 189.5q0 118 60 189t155 71q106 0 150 -80v70h100v-500
h-100v75q-19 -39 -59.5 -62t-95.5 -23z" />
    <glyph glyph-name="aring.alt" 
d="M207 645q0 40 28.5 67.5t66.5 27.5t66.5 -27.5t28.5 -67.5t-28.5 -67.5t-66.5 -27.5t-66.5 27.5t-28.5 67.5zM303 689q-18 0 -31 -13t-13 -31t13 -31t31 -13t30.5 13t12.5 31t-12.5 31t-30.5 13zM302 75q60 0 95 48t35 127q0 83 -33 131.5t-92 48.5h-10q-59 0 -97 -46.5
t-38 -133.5q0 -86 37 -130.5t93 -44.5h10zM277 -10q-95 0 -152.5 70.5t-57.5 189.5q0 118 60 189t155 71q106 0 150 -80v70h100v-500h-100v75q-19 -39 -59.5 -62t-95.5 -23z" />
    <glyph glyph-name="amacron.alt" 
d="M157 590v80h285v-80h-285zM302 75q60 0 95 48t35 127q0 83 -33 131.5t-92 48.5h-10q-59 0 -97 -46.5t-38 -133.5q0 -86 37 -130.5t93 -44.5h10zM277 -10q-95 0 -152.5 70.5t-57.5 189.5q0 118 60 189t155 71q106 0 150 -80v70h100v-500h-100v75q-19 -39 -59.5 -62
t-95.5 -23z" />
    <glyph glyph-name="abreve.alt" 
d="M302 560q-63 0 -104.5 36t-45.5 104h70q7 -75 80 -75t80 75h70q-4 -68 -47 -104t-103 -36zM302 75q60 0 95 48t35 127q0 83 -33 131.5t-92 48.5h-10q-59 0 -97 -46.5t-38 -133.5q0 -86 37 -130.5t93 -44.5h10zM277 -10q-95 0 -152.5 70.5t-57.5 189.5q0 118 60 189
t155 71q106 0 150 -80v70h100v-500h-100v75q-19 -39 -59.5 -62t-95.5 -23z" />
    <glyph glyph-name="aogonek.alt" 
d="M302 75q60 0 95 48t35 127q0 83 -33 131.5t-92 48.5h-10q-59 0 -97 -46.5t-38 -133.5q0 -86 37 -130.5t93 -44.5h10zM277 -10q-95 0 -152.5 70.5t-57.5 189.5q0 118 60 189t155 71q106 0 150 -80v70h100v-500h-100v75q-19 -39 -59.5 -62t-95.5 -23zM394 -220
q-53 0 -84 28t-31 77q0 73 105 125l45 -10q-80 -50 -80 -100t65 -50h15v-70h-35z" />
    <glyph glyph-name="aringacute.alt" 
d="M261 766l55 135h100l-90 -135h-65zM205 645q0 40 28.5 67.5t66.5 27.5t66.5 -27.5t28.5 -67.5t-28.5 -67.5t-66.5 -27.5t-66.5 27.5t-28.5 67.5zM301 689q-18 0 -31 -13t-13 -31t13 -31t31 -13t30.5 13t12.5 31t-12.5 31t-30.5 13zM302 75q60 0 95 48t35 127
q0 83 -33 131.5t-92 48.5h-10q-59 0 -97 -46.5t-38 -133.5q0 -86 37 -130.5t93 -44.5h10zM277 -10q-95 0 -152.5 70.5t-57.5 189.5q0 118 60 189t155 71q106 0 150 -80v70h100v-500h-100v75q-19 -39 -59.5 -62t-95.5 -23z" />
    <glyph glyph-name="uni1EA1.alt" 
d="M302 75q60 0 95 48t35 127q0 83 -33 131.5t-92 48.5h-10q-59 0 -97 -46.5t-38 -133.5q0 -86 37 -130.5t93 -44.5h10zM277 -10q-95 0 -152.5 70.5t-57.5 189.5q0 118 60 189t155 71q106 0 150 -80v70h100v-500h-100v75q-19 -39 -59.5 -62t-95.5 -23zM250 -185v110h100
v-110h-100z" />
    <glyph glyph-name="t.alt" 
d="M337 0q-105 0 -105 105v315h-90v80h90v162h95v-162h115v-80h-115v-295q0 -23 8.5 -31.5t31.5 -8.5h90v-85h-120z" />
    <glyph glyph-name="parenleft.alt" 
d="M435 610q-68 -13 -121.5 -81t-53.5 -179t53.5 -179t121.5 -81v-90q-107 12 -188.5 105.5t-81.5 244.5t81.5 244.5t188.5 105.5v-90z" />
    <glyph glyph-name="parenright.alt" 
d="M340 350q0 111 -53.5 179t-121.5 81v90q107 -12 188.5 -105.5t81.5 -244.5t-81.5 -244.5t-188.5 -105.5v90q68 13 121.5 81t53.5 179z" />
    <glyph glyph-name="bracketleft.alt" 
d="M200 0v700h200v-85h-105v-530h105v-85h-200z" />
    <glyph glyph-name="bracketright.alt" 
d="M400 700v-700h-200v85h105v530h-105v85h200z" />
    <glyph glyph-name="braceleft.alt" 
d="M253 360v-20q80 0 80 -85v-95q0 -43 12 -59t48 -16h45v-85h-75q-66 0 -95.5 37.5t-29.5 117.5v60q0 38 -10 51.5t-40 13.5h-25v140h25q30 0 40 13.5t10 51.5v60q0 80 29.5 117.5t95.5 37.5h75v-85h-45q-36 0 -48 -16t-12 -59v-95q0 -85 -80 -85z" />
    <glyph glyph-name="braceright.alt" 
d="M369 340v20q-80 0 -80 85v95q0 43 -12 59t-48 16h-45v85h75q66 0 95.5 -37.5t29.5 -117.5v-60q0 -38 10 -51.5t40 -13.5h25v-140h-25q-30 0 -40 -13.5t-10 -51.5v-60q0 -80 -29.5 -117.5t-95.5 -37.5h-75v85h45q36 0 48 16t12 59v95q0 85 80 85z" />
    <glyph glyph-name="question.alt" 
d="M212 200v105q0 48 20 71.5t70 23.5q55 0 85 29t30 76q0 51 -30 83t-85 32q-105 0 -120 -100h-100q4 84 64 137t156 53q97 0 156 -57t59 -148q0 -83 -52.5 -136.5t-122.5 -53.5q-22 0 -28.5 -8.5t-6.5 -31.5v-75h-95zM202 0v115h115v-115h-115z" />
    <glyph glyph-name="questiondown.alt" 
d="M421 500v-115h-115v115h115zM411 300v-105q0 -48 -20 -71.5t-70 -23.5q-55 0 -85 -29t-30 -76q0 -51 30 -83t85 -32q105 0 120 100h100q-4 -84 -64 -137t-156 -53q-97 0 -156 57t-59 148q0 83 52.5 136.5t122.5 53.5q22 0 28.5 8.5t6.5 31.5v75h95z" />
    <glyph glyph-name="at.alt" 
d="M303 -60q49 0 84 10t57.5 33.5t35.5 48.5t19 72t7.5 85t1.5 106v205h95v-210q0 -47 -0.5 -76t-2.5 -68.5t-6.5 -64.5t-12 -56t-19 -50t-27.5 -41t-38.5 -34.5t-50.5 -24t-64 -16t-79 -4.5q-180 0 -258 106t-78 329q0 209 63.5 314.5t212.5 105.5q98 0 141.5 -53.5
t43.5 -157.5v-424h-90v75q-3 -16 -4 -20.5t-5 -18.5t-8.5 -19t-11.5 -13t-17.5 -11t-23.5 -3q-66 0 -103 57t-37 158t37 155.5t103 54.5q16 0 27 -3t17 -12.5t8.5 -15t6.5 -22t6 -22.5v69q0 62 -24 101.5t-71 39.5h-10q-42 0 -71.5 -15.5t-48 -42.5t-29 -71t-14 -92
t-3.5 -114q0 -88 9.5 -148t35 -108.5t74 -71.5t122.5 -22zM278 140h5q50 0 50 140q0 72 -10.5 103.5t-39.5 31.5h-5q-55 0 -55 -135q0 -140 55 -140z" />
    <glyph glyph-name="ampersand.alt" 
d="M130 535q0 -14 4.5 -27.5t16 -28.5t19 -23.5t25.5 -26t23 -23.5l26 18q40 28 58.5 51.5t18.5 59.5q0 37 -28.5 63.5t-65.5 26.5q-41 0 -69 -26t-28 -64zM222 75q74 0 135 46l-160 169l-18 -12q-85 -56 -85 -111q0 -43 36.5 -67.5t91.5 -24.5zM471 0l-55 58
q-85 -68 -204 -68q-86 0 -150 44.5t-64 125.5q0 19 5 38t12 34t18.5 30t21 25t23 20.5t21 16t17.5 12t11 7.5l12 8q-60 63 -79 95q-26 44 -26 87q0 79 57 128t136 49t134 -47.5t55 -126.5q0 -30 -9 -56t-27.5 -47t-31 -33t-35.5 -28t-24 -17l-13 -10l142 -152q26 47 26 107
v14l90 30v-44q-4 -96 -55 -171l121 -129h-129z" />
    <glyph glyph-name="paragraph.alt" 
d="M323 -65h-90v390q-86 0 -145.5 51.5t-59.5 138.5q0 86 59 135.5t146 49.5h340v-85h-70v-680h-90v680h-90v-680z" />
    <glyph glyph-name="bullet.alt" 
d="M300 110q-99 0 -169.5 70.5t-70.5 169.5t70.5 169.5t169.5 70.5t169.5 -70.5t70.5 -169.5t-70.5 -169.5t-169.5 -70.5z" />
    <glyph glyph-name="copyright.alt" 
d="M378 478q-50 0 -85 35t-35 85t35 85t85 35t85 -35t35 -85t-35 -85t-85 -35zM378 501q40 0 69 28.5t29 68.5t-29 69t-69 29t-69 -29t-29 -69t29 -68.5t69 -28.5zM379 538q-27 0 -43 15.5t-16 44.5q0 28 16 45t43 17q45 0 50 -42h-25q-3 22 -25 22h-2q-34 0 -34 -42
q0 -40 34 -40h2q23 0 27 22h25q-8 -42 -52 -42z" />
    <glyph glyph-name="registered.alt" 
d="M378 478q-50 0 -85 35t-35 85t35 85t85 35t85 -35t35 -85t-35 -85t-85 -35zM378 501q40 0 68.5 28.5t28.5 68.5t-28.5 68.5t-68.5 28.5q-41 0 -69.5 -28.5t-28.5 -68.5t28.5 -68.5t69.5 -28.5zM358 604h23q24 0 24 18q0 14 -24 14h-23v-32zM337 542v116h52q18 0 28 -9
t10 -23q0 -25 -25 -29q23 0 23 -19v-36h-21v30q0 14 -15 14h-31v-44h-21z" />
    <glyph glyph-name="edgeleft.alt" 
d="M439 0h-94q-58 0 -99 38t-41 97q0 53 35 78q-33 15 -56.5 52.5t-23.5 84.5t23.5 84.5t56.5 52.5q-35 25 -35 78q0 59 38.5 97t95.5 38h100v-85h-95q-20 0 -32.5 -11.5t-12.5 -33.5v-10q0 -22 12.5 -33.5t32.5 -11.5h45v-85h-65q-30 0 -50 -21t-20 -54v-10q0 -33 20 -54
t50 -21h65v-85h-45q-20 0 -32.5 -11.5t-12.5 -33.5v-10q0 -22 12.5 -33.5t32.5 -11.5h95v-85z" />
    <glyph glyph-name="edgeright.alt" 
d="M255 0h-94v85h95q20 0 32.5 11.5t12.5 33.5v10q0 22 -12.5 33.5t-32.5 11.5h-45v85h65q30 0 50 21t20 54v10q0 33 -20 54t-50 21h-65v85h45q20 0 32.5 11.5t12.5 33.5v10q0 22 -12.5 33.5t-32.5 11.5h-95v85h100q57 0 95.5 -38t38.5 -97q0 -53 -35 -78q32 -15 56 -52.5
t24 -84.5t-24 -84.5t-56 -52.5q35 -25 35 -78q0 -59 -41 -97t-99 -38z" />
    <glyph glyph-name="uni0227.alt" 
d="M251 590v110h100v-110h-100zM302 75q60 0 95 48t35 127q0 83 -33 131.5t-92 48.5h-10q-59 0 -97 -46.5t-38 -133.5q0 -86 37 -130.5t93 -44.5h10zM277 -10q-95 0 -152.5 70.5t-57.5 189.5q0 118 60 189t155 71q106 0 150 -80v70h100v-500h-100v75q-19 -39 -59.5 -62
t-95.5 -23z" />
    <glyph glyph-name="ymacron.alt" 
d="M235 590v80h285v-80h-285z" />
    <glyph glyph-name="zero.tf" 
d="M50 350q0 173 61.5 266.5t188.5 93.5t188.5 -93.5t61.5 -266.5t-61.5 -266.5t-188.5 -93.5t-188.5 93.5t-61.5 266.5zM150 350q0 -270 150 -270t150 270t-150 270t-150 -270z" />
    <glyph glyph-name="one.tf" 
d="M555 0h-510v90h220v470l-160 -155v120l180 175h80v-610h190v-90z" />
    <glyph glyph-name="two.tf" 
d="M55 0v30q0 49 17 90.5t50.5 73.5t55 48t56.5 37l83 50q53 32 85.5 68.5t32.5 87.5q0 58 -36 96.5t-91 38.5h-10q-61 0 -102 -41t-41 -96h-100q0 95 70.5 161t176.5 66q103 0 168 -63.5t65 -156.5q0 -138 -157 -234l-83 -51q-6 -4 -23.5 -14.5l-25 -15t-21.5 -14.5
t-21 -16.5t-15.5 -16t-12.5 -19t-5 -19.5h374v-90h-490z" />
    <glyph glyph-name="three.tf" 
d="M300 -10q-114 0 -174 57t-66 133h95q17 -110 140 -110h10q61 0 103 33t42 87q0 56 -36 88.5t-94 32.5h-60v80h60q55 0 90 34.5t35 84.5q0 55 -38.5 87.5t-96.5 32.5h-10q-56 0 -93.5 -31t-41.5 -79h-95q5 86 73.5 138t161.5 52q101 0 168 -52.5t67 -142.5q0 -57 -32 -99
t-86 -62q57 -16 90 -60t33 -109q0 -89 -69 -142t-176 -53z" />
    <glyph glyph-name="four.tf" 
d="M363 0v155h-320v100l315 445h105v-455h95v-90h-95v-155h-100zM363 245v321l-224 -321h224z" />
    <glyph glyph-name="five.tf" 
d="M301 -10q-100 0 -170 51.5t-77 143.5h95q7 -54 48 -84.5t99 -30.5h10q64 0 104.5 42.5t40.5 107.5q0 60 -36.5 98t-96.5 38h-10q-82 0 -141 -71h-88l85 415h375v-84h-304l-52 -243q66 61 159 63q89 1 146.5 -59.5t57.5 -151.5q0 -103 -70 -169t-175 -66z" />
    <glyph glyph-name="six.tf" 
d="M292 -10q-120 0 -185 91t-65 244q0 178 83.5 281.5t210.5 103.5q200 0 221 -175h-100q-4 39 -34.5 64.5t-81.5 25.5h-10q-76 0 -133.5 -72t-60.5 -203q20 49 66.5 82t115.5 33q95 0 154.5 -67t59.5 -163q0 -103 -64.5 -174t-176.5 -71zM293 80h10q56 0 93 40t37 105
q0 69 -32.5 109.5t-91.5 40.5h-10q-58 0 -97.5 -42.5t-39.5 -102.5q0 -65 36.5 -107.5t94.5 -42.5z" />
    <glyph glyph-name="seven.tf" 
d="M177 0v55q0 94 18 174.5t45 136.5t67 105.5t75.5 79.5t79.5 59h-435v90h545v-95q-68 -54 -109 -92t-81 -88.5t-60 -104t-32.5 -127t-12.5 -168.5v-25h-100z" />
    <glyph glyph-name="eight.tf" 
d="M300 710q105 0 170 -54.5t65 -140.5q0 -67 -35.5 -113t-89.5 -67q48 -16 79 -57t31 -98q0 -83 -61.5 -136.5t-158.5 -53.5t-158.5 53.5t-61.5 136.5q0 57 31 98t79 57q-54 21 -89.5 67t-35.5 113q0 86 65 140.5t170 54.5zM305 620h-10q-57 0 -93.5 -31.5t-36.5 -83.5
q0 -47 37.5 -83.5t92.5 -36.5h10q55 0 92.5 36.5t37.5 83.5q0 52 -36.5 83.5t-93.5 31.5zM305 80q47 0 81 29t34 76q0 49 -33 82t-82 33h-10q-49 0 -82 -33t-33 -82q0 -47 34 -76t81 -29h10z" />
    <glyph glyph-name="nine.tf" 
d="M307 620h-10q-60 0 -97.5 -40.5t-37.5 -104.5q0 -68 35 -109t95 -41h10q54 0 94.5 42.5t40.5 102.5q0 64 -36.5 107t-93.5 43zM307 710q119 0 184.5 -90t65.5 -245q0 -179 -82 -282t-208 -103q-94 0 -154.5 43.5t-70.5 131.5h100q4 -37 36.5 -63.5t78.5 -26.5h10
q75 0 133 72.5t62 202.5q-19 -49 -67 -82t-113 -33q-96 0 -158 67t-62 163q0 104 63.5 174.5t181.5 70.5z" />
    <glyph glyph-name="numbersign.tf" 
d="M359 270l27 160h-137l-28 -160h138zM315 0l30 185h-138l-32 -185h-85l32 185h-102v85h116l28 160h-124v85h138l32 185h85l-32 -185h137l30 185h85l-30 -185h95v-85h-109l-27 -160h116v-85h-130l-30 -185h-85z" />
    <glyph glyph-name="period.tf" 
d="M235 0v130h130v-130h-130z" />
    <glyph glyph-name="comma.tf" 
d="M253 -140h-35v65h30q75 0 75 60v15h-70v130h130v-140q0 -59 -36.5 -94.5t-93.5 -35.5z" />
    <glyph glyph-name="colon.tf" 
d="M235 370v130h130v-130h-130zM235 0v130h130v-130h-130z" />
    <glyph glyph-name="semicolon.tf" 
d="M253 370v130h130v-130h-130zM253 -140h-35v65h30q75 0 75 60v15h-70v130h130v-140q0 -59 -36.5 -94.5t-93.5 -35.5z" />
    <glyph glyph-name="plus.tf" 
d="M548 210h-200v-200h-95v200h-200v85h200v200h95v-200h200v-85z" />
    <glyph glyph-name="minus.tf" 
d="M65 210v85h470v-85h-470z" />
    <glyph glyph-name="plusminus.tf" 
d="M545 285h-195v-130h-100v130h-195v85h195v130h100v-130h195v-85zM55 0v85h490v-85h-490z" />
    <glyph glyph-name="divide.tf" 
d="M250 365v115h105v-115h-105zM55 210v85h490v-85h-490zM250 25v115h105v-115h-105z" />
    <glyph glyph-name="multiply.tf" 
d="M455 40l-155 155l-155 -155l-60 60l155 155l-155 155l60 60l155 -155l155 155l60 -60l-155 -155l155 -155z" />
    <glyph glyph-name="equal.tf" 
d="M65 300v85h470v-85h-470zM65 120v85h470v-85h-470z" />
    <glyph glyph-name="less.tf" 
d="M513 130v-95l-425 175v80l425 175v-95l-305 -120z" />
    <glyph glyph-name="greater.tf" 
d="M87 35v95l305 120l-305 120v95l425 -175v-80z" />
    <glyph glyph-name="lessequal.tf" 
d="M535 505v-85l-360 -105l360 -105v-85l-470 140v100zM65 10v85h470v-85h-470z" />
    <glyph glyph-name="greaterequal.tf" 
d="M65 420v85l470 -140v-100l-470 -140v85l360 105zM535 95v-85h-470v85h470z" />
    <glyph glyph-name="approxequal.tf" 
d="M415 405h80v-25q0 -49 -32.5 -79.5t-77.5 -30.5q-36 0 -89.5 25t-70.5 25q-40 0 -40 -40h-80v25q0 49 32.5 79.5t77.5 30.5q36 0 89.5 -25t70.5 -25q40 0 40 40zM415 215h80v-25q0 -49 -32.5 -79.5t-77.5 -30.5q-36 0 -89.5 25t-70.5 25q-40 0 -40 -40h-80v25
q0 49 32.5 79.5t77.5 30.5q36 0 89.5 -25t70.5 -25q40 0 40 40z" />
    <glyph glyph-name="notequal.tf" 
d="M535 120h-231l-34 -110h-90l34 110h-149v85h175l30 95h-205v85h231l34 110h90l-34 -110h149v-85h-175l-30 -95h205v-85z" />
    <glyph glyph-name="logicalnot.tf" 
d="M533 80h-95v140h-370v85h465v-225z" />
    <glyph glyph-name="dollar.tf" 
d="M262 415l17 -5l60 209q-7 1 -22 1h-10q-59 0 -97 -30t-38 -75q0 -39 21.5 -61.5t68.5 -38.5zM307 80h10q60 0 97.5 27.5t37.5 72.5q0 46 -28.5 70t-101.5 47l-61 -213q19 -4 46 -4zM307 -10q-37 0 -72 6l-23 -81h-75l29 102q-124 56 -129 208h100q0 -75 56 -115l59 206
l-15 4q-82 24 -123.5 70t-41.5 125q0 88 68 141.5t172 53.5q31 0 52 -4l23 79h75l-28 -98q123 -54 128 -197h-100q-5 68 -55 103l-58 -202l23 -6q90 -28 135 -74.5t45 -125.5q0 -88 -64.5 -141.5t-180.5 -53.5z" />
    <glyph glyph-name="cent.tf" 
d="M173 250q0 -110 59 -156l93 336h-2h-10q-61 0 -100.5 -49.5t-39.5 -130.5zM313 -10q-12 0 -34 2l-21 -77h-75l27 96q-63 28 -97.5 90.5t-34.5 148.5q0 116 68 188t177 72q16 0 24 -1l21 76h75l-27 -96q91 -47 102 -154h-95q-8 43 -30 67l-92 -332h7h10q92 0 110 90h95
q-8 -77 -63 -123.5t-147 -46.5z" />
    <glyph glyph-name="sterling.tf" 
d="M543 84v-85h-485v85h30q62 0 70 70l10 145h-85v85h90l10 105q8 104 58 157t152 53h90v-85h-90q-107 0 -115 -130l-5 -100h135v-85h-145l-10 -140q0 -60 -45 -75h335z" />
    <glyph glyph-name="currency.tf" 
d="M513 52l-78 73q-61 -48 -137 -48t-135 45l-75 -70l-51 51l76 73q-38 57 -38 129q0 70 36 123l-74 74l51 51l74 -70q57 45 136 45q77 0 138 -48l77 73l51 -51l-77 -77q34 -55 34 -120q0 -69 -37 -125l80 -77zM170 305q0 -61 35.5 -99.5t87.5 -38.5h10q53 0 88 38.5
t35 99.5t-35 99.5t-88 38.5h-10q-52 0 -87.5 -38.5t-35.5 -99.5z" />
    <glyph glyph-name="yen.tf" 
d="M526 170h-175v-170h-100v170h-175v85h175v35l-28 50h-177v85h129l-155 275h115l168 -302l162 302h115l-154 -275h130v-85h-177l-28 -50v-35h175v-85z" />
    <glyph glyph-name="Euro.tf" 
d="M590 210q-10 -105 -74.5 -162.5t-165.5 -57.5q-102 0 -169.5 62t-89.5 178h-81v85h71q-1 11 -1 35q0 20 1 30h-71v85h82q25 117 99 181t179 64q95 0 152 -59.5t68 -150.5h-99q-17 116 -121 120h-10q-60 0 -104.5 -39t-62.5 -116h197v-85h-209q-1 -10 -1 -30q0 -24 1 -35
h174v-85h-161q18 -73 59 -111.5t97 -38.5h10q55 0 88.5 34t38.5 96h103z" />
    <glyph glyph-name="florin.tf" 
d="M305 -10q-15 -102 -58 -146t-132 -44h-80v85h75q51 0 71.5 22.5t28.5 77.5l59 390h-159v80h172l8 55q15 102 58 146t132 44h85v-85h-80q-51 0 -71.5 -22.5t-28.5 -77.5l-9 -60h169v-80h-181z" />
    <glyph glyph-name="section.tf" 
d="M337 -61h-200v80h190q75 0 75 60q0 48 -78 70l-77 22q-58 17 -99 54t-41 93q0 46 19 76.5t57 59.5q-35 20 -53.5 50.5t-18.5 63.5q0 59 41.5 95.5t116.5 36.5h163v-80h-166q-32 0 -48.5 -15.5t-15.5 -37.5q1 -45 76 -67l81 -24q61 -18 97 -56.5t36 -91.5q0 -74 -73 -131
q73 -44 73 -115q0 -62 -44.5 -102.5t-110.5 -40.5zM269 258l76 -25q57 34 57 85q0 30 -20 50t-50 28l-77 21q-58 -34 -58 -84q0 -53 72 -75z" />
    <glyph glyph-name="zero.slashed" horiz-adv-x="690" 
d="M300 -10q-129 0 -202 93t-73 267t73 267t202 93q147 0 218 -117l15 16v-42q42 -89 42 -217q0 -174 -73 -267t-202 -93zM120 350q0 -124 39 -194v49l293 316q-45 109 -147 109h-10q-33 0 -61.5 -13.5t-55.5 -43.5t-42.5 -87t-15.5 -136zM295 70h10q33 0 61.5 13.5
t55.5 43.5t42.5 87t15.5 136q0 44 -4 73l-287 -309q44 -44 106 -44z" />
    <glyph glyph-name="copyright.copy_1" horiz-adv-x="880" 
d="M442 157q-85 0 -136.5 49.5t-51.5 143.5q0 90 50 144t138 54q70 0 112.5 -35t50.5 -99h-79q-16 70 -84 70h-5q-50 0 -79.5 -34.5t-29.5 -99.5q0 -62 30 -95.5t79 -33.5h5q75 0 89 70h79q-11 -63 -56 -98.5t-112 -35.5z" />
    <glyph glyph-name="zero.slashed.tnum" 
d="M300 710q129 0 202 -93t73 -267t-73 -267t-202 -93t-202 93t-73 267t73 267t202 93zM120 350q0 -70 12 -119l301 326q-46 73 -128 73h-10q-33 0 -61.5 -13.5t-55.5 -43.5t-42.5 -87t-15.5 -136zM295 70h10q33 0 61.5 13.5t55.5 43.5t42.5 87t15.5 136q0 70 -12 121
l-302 -327q47 -74 129 -74z" />
    <glyph glyph-name="r.inferior" 
d="M214 -116v283h73v-57q8 28 29.5 45t52.5 17h17v-67h-25q-38 0 -56 -25t-18 -63v-133h-73z" />
    <glyph glyph-name="z.inferior" 
d="M424 -116h-248v49l147 169h-144v65h235v-57l-145 -162h155v-64z" />
    <glyph glyph-name="c.superior" horiz-adv-x="601" 
d="M304 379q-61 0 -99 41t-38 105q0 70 40.5 108.5t105.5 38.5q49 0 83 -26.5t38 -72.5h-73q-2 18 -15.5 28t-32.5 10h-3q-34 0 -52 -24.5t-18 -61.5q0 -36 16.5 -60.5t48.5 -24.5h3q41 0 51 37h73q-4 -47 -40.5 -72.5t-87.5 -25.5z" />
    <glyph glyph-name="m.inferior" 
d="M153 37v-153h-73v283h73v-50q10 23 32.5 39t51.5 16q65 0 89 -53q35 53 96 53q48 0 73.5 -30.5t25.5 -82.5v-175h-73v170q0 57 -46 57h-3q-26 0 -44 -21.5t-18 -50.5v-155h-73v170q0 57 -46 57h-3q-28 0 -45 -21.5t-17 -52.5z" />
    <glyph glyph-name="three.denominator" horiz-adv-x="450" 
d="M353 -6q-60 0 -100.5 31.5t-40.5 87.5h75q0 -26 18 -41.5t45 -15.5h5q29 0 49 15t20 42q0 25 -17 39.5t-43 14.5h-39v67h41q24 0 39.5 14t15.5 37q0 26 -18 41.5t-45 15.5h-5q-26 0 -43 -15.5t-17 -40.5h-75q0 55 40 85t100 30q58 0 98 -29t40 -81q0 -32 -16.5 -56.5
t-45.5 -34.5q65 -28 65 -95q0 -53 -42.5 -82t-103.5 -29z" />
    <glyph glyph-name="nine.denominator" horiz-adv-x="450" 
d="M234 337h-3q-32 0 -53 -20t-21 -51q0 -30 20.5 -50.5t51.5 -20.5h3q29 0 51 20t22 51q0 30 -20.5 50.5t-50.5 20.5zM234 401q70 0 111 -51t41 -140q0 -99 -48.5 -157t-128.5 -58q-63 0 -97 33t-34 79h73q5 -22 20.5 -35t38.5 -13h6q39 0 68.5 35t33.5 93
q-12 -24 -40.5 -40t-63.5 -16q-54 0 -92 36.5t-38 95.5q0 58 40.5 98t109.5 40z" />
    <glyph glyph-name="three.numerator" horiz-adv-x="450" 
d="M353 299q-60 0 -100.5 31.5t-40.5 87.5h75q0 -26 18 -41.5t45 -15.5h5q29 0 49 15t20 42q0 25 -17 39.5t-43 14.5h-39v67h41q24 0 39.5 14t15.5 37q0 26 -18 41.5t-45 15.5h-5q-26 0 -43 -15.5t-17 -40.5h-75q0 55 40 85t100 30q58 0 98 -29t40 -81q0 -32 -16.5 -56.5
t-45.5 -34.5q65 -28 65 -95q0 -53 -42.5 -82t-103.5 -29z" />
    <glyph glyph-name="zero.slashed.inferior" horiz-adv-x="408" 
d="M204 -121q-78 0 -123.5 55.5t-45.5 147.5t45.5 147.5t123.5 55.5t123.5 -55.5t45.5 -147.5t-45.5 -147.5t-123.5 -55.5zM110 82q0 -23 5 -48l148 160q-22 27 -57 27h-4q-44 0 -68 -41.5t-24 -97.5zM202 -57h4q44 0 68 41.5t24 97.5q0 22 -5 45l-147 -159q25 -25 56 -25z
" />
    <glyph glyph-name="k.superior" 
d="M351 384l-77 118l-39 -41v-77h-73v395h73v-227l103 115h92l-107 -113l115 -170h-87z" />
    <glyph glyph-name="z.superior" 
d="M273 384h-248v49l147 169h-144v65h235v-57l-145 -162h155v-64z" />
    <glyph glyph-name="six.numerator" horiz-adv-x="450" 
d="M218 300q-70 0 -111 51t-41 140q0 99 48.5 157t128.5 58q63 0 97 -33t34 -79h-73q-5 22 -20.5 35t-38.5 13h-6q-39 0 -68.5 -35t-33.5 -93q12 24 40.5 40t63.5 16q54 0 92 -36.5t38 -95.5q0 -58 -40.5 -98t-109.5 -40zM218 364h3q32 0 53 20t21 51q0 30 -20.5 50.5
t-51.5 20.5h-3q-29 0 -51 -20t-22 -51q0 -30 20.5 -50.5t50.5 -20.5z" />
    <glyph glyph-name="g.inferior" horiz-adv-x="601" 
d="M439 -60q31 0 48 23.5t17 61.5q0 39 -17 63t-48 24t-49 -24t-18 -63q0 -38 17.5 -61.5t49.5 -23.5zM503 127v40h73v-288q0 -56 -36 -87.5t-109 -31.5q-59 0 -93 25t-36 68h74q10 -32 61 -32h3q63 0 63 66v37q-26 -45 -81 -45q-56 0 -89.5 42t-33.5 104q0 63 31.5 105.5
t87.5 42.5q54 0 85 -46z" />
    <glyph glyph-name="f.superior" 
d="M245 384v221h-56v62h56v40q0 32 18.5 52t51.5 20h96v-64h-68q-15 0 -20 -7.5t-5 -23.5v-17h71v-62h-71v-221h-73z" />
    <glyph glyph-name="k.inferior" 
d="M351 -116l-77 118l-39 -41v-77h-73v395h73v-227l103 115h92l-107 -113l115 -170h-87z" />
    <glyph glyph-name="t.superior" 
d="M320 384q-34 0 -53 20t-19 50v151h-54v62h54v95h73v-95h79v-62h-79v-127q0 -15 6.5 -22.5t24.5 -7.5h54v-64h-86z" />
    <glyph glyph-name="b.inferior" horiz-adv-x="601" 
d="M687 27q0 -63 -31 -105.5t-88 -42.5q-52 0 -87 45v-39h-73v394h73v-151q8 17 30.5 31t52.5 14q57 0 90 -41.5t33 -104.5zM547 112q-31 0 -48 -23.5t-17 -61.5q0 -39 17 -63t48 -24t48 24t17 63q0 38 -17 61.5t-48 23.5z" />
    <glyph glyph-name="one.numerator" horiz-adv-x="450" 
d="M225 305v298l-115 -96v84l132 109h56v-395h-73z" />
    <glyph glyph-name="a.inferior.ss01" 
d="M366 27q0 38 -17 61.5t-48 23.5t-48 -23.5t-17 -61.5q0 -39 17 -63t48 -24t48 24t17 63zM280 -121q-57 0 -88 42.5t-31 105.5t33 104.5t90 41.5q30 0 52.5 -14t30.5 -31v43h73v-286h-73v39q-35 -45 -87 -45z" />
    <glyph glyph-name="j.inferior" 
d="M302 212v73h79v-73h-79zM306 -226h-86v64h54q18 0 24.5 7.5t6.5 22.5v299h73v-323q0 -30 -19 -50t-53 -20z" />
    <glyph glyph-name="zero.slashed.posf" 
d="M300 510q104 0 177 -73t73 -187t-73 -187t-177 -73t-177 73t-73 187t73 187t177 73zM145 250q0 -49 18 -90l225 241q-38 29 -83 29h-10q-60 0 -105 -49t-45 -131zM295 70h10q60 0 105 49t45 131q0 50 -19 90l-224 -241q37 -29 83 -29z" />
    <glyph glyph-name="u.superior" 
d="M430 667v-283h-73v57q-10 -25 -33.5 -43.5t-58.5 -18.5q-45 0 -70 30t-25 78v180h73v-170q0 -27 12.5 -42t33.5 -15h6q26 0 44 21t18 51v155h73z" />
    <glyph glyph-name="r.alt" 
d="M258 0h-95v500h90v-110q14 54 56.5 84.5t93.5 30.5h75v-95h-75q-68 0 -106.5 -42.5t-38.5 -117.5v-250z" />
    <glyph glyph-name="two.denominator" horiz-adv-x="450" 
d="M495 0h-280v81l132 116q3 3 13.5 12t14.5 13l12 12t12 13.5t9 12.5t6.5 14t1.5 14q-1 21 -18 33.5t-41 12.5h-5q-23 0 -41 -15t-20 -42h-76q2 56 42.5 90t99.5 34q57 0 95.5 -31t38.5 -84q0 -27 -15.5 -53.5t-29.5 -39.5t-46 -40l-102 -86h197v-67z" />
    <glyph glyph-name="a.superior" horiz-adv-x="601" 
d="M283 437h3q28 0 46.5 14.5t18.5 39.5v19l-65 -8q-39 -6 -39 -35q0 -14 10 -22t26 -8zM268 378q-41 0 -67.5 23t-26.5 62q0 76 96 88l81 10v7q0 20 -14.5 32t-35.5 12h-3q-18 0 -32 -9.5t-16 -25.5h-71q2 45 37 70.5t85 25.5q51 0 87 -27.5t36 -74.5v-125q0 -41 3 -62h-65
q-5 25 -5 48q-18 -54 -89 -54z" />
    <glyph glyph-name="h.superior" horiz-adv-x="601" 
d="M242 384h-73v395h73v-169q10 25 34 43.5t61 18.5q45 0 70 -30t25 -78v-180h-73v170q0 27 -13.5 42t-35.5 15h-6q-26 0 -44 -21t-18 -51v-155z" />
    <glyph glyph-name="a.inferior" horiz-adv-x="601" 
d="M432 -63h3q28 0 46.5 14.5t18.5 39.5v19l-65 -8q-39 -6 -39 -35q0 -14 10 -22t26 -8zM417 -122q-41 0 -67.5 23t-26.5 62q0 76 96 88l81 10v7q0 20 -14.5 32t-35.5 12h-3q-18 0 -32 -9.5t-16 -25.5h-71q2 45 37 70.5t85 25.5q51 0 87 -27.5t36 -74.5v-125q0 -41 3 -62
h-65q-5 25 -5 48q-18 -54 -89 -54z" />
    <glyph glyph-name="f.inferior" 
d="M424 -116v221h-56v62h56v40q0 32 18.5 52t51.5 20h96v-64h-68q-15 0 -20 -7.5t-5 -23.5v-17h71v-62h-71v-221h-73z" />
    <glyph glyph-name="i.inferior" 
d="M490 212v73h79v-73h-79zM493 -116v283h73v-283h-73z" />
    <glyph glyph-name="four.numerator" horiz-adv-x="450" 
d="M246 305v88h-186v64l181 243h78v-243h56v-64h-56v-88h-73zM246 611l-114 -154h114v154z" />
    <glyph glyph-name="r.superior" 
d="M214 384v283h73v-57q8 28 29.5 45t52.5 17h17v-67h-25q-38 0 -56 -25t-18 -63v-133h-73z" />
    <glyph glyph-name="t.inferior" 
d="M320 -116q-34 0 -53 20t-19 50v151h-54v62h54v95h73v-95h79v-62h-79v-127q0 -15 6.5 -22.5t24.5 -7.5h54v-64h-86z" />
    <glyph glyph-name="zero.denominator" horiz-adv-x="450" 
d="M225 -5q-78 0 -123.5 55.5t-45.5 147.5t45.5 147.5t123.5 55.5t123.5 -55.5t45.5 -147.5t-45.5 -147.5t-123.5 -55.5zM223 59h4q44 0 68 41.5t24 97.5t-24 97.5t-68 41.5h-4q-44 0 -68 -41.5t-24 -97.5t24 -97.5t68 -41.5z" />
    <glyph glyph-name="q.superior" horiz-adv-x="601" 
d="M161 525q0 63 31 105.5t88 42.5q52 0 87 -45v39h73v-394h-73v151q-8 -17 -30.5 -31t-52.5 -14q-57 0 -90 41.5t-33 104.5zM301 440q31 0 48 23.5t17 61.5q0 39 -17 63t-48 24t-48 -24t-17 -63q0 -38 17 -61.5t48 -23.5z" />
    <glyph glyph-name="a.superior.ss01" horiz-adv-x="601" 
d="M366 527q0 38 -17 61.5t-48 23.5t-48 -23.5t-17 -61.5q0 -39 17 -63t48 -24t48 24t17 63zM280 379q-57 0 -88 42.5t-31 105.5t33 104.5t90 41.5q30 0 52.5 -14t30.5 -31v43h73v-286h-73v39q-35 -45 -87 -45z" />
    <glyph glyph-name="c.inferior" horiz-adv-x="601" 
d="M446 -121q-61 0 -99 41t-38 105q0 70 40.5 108.5t105.5 38.5q49 0 83 -26.5t38 -72.5h-73q-2 18 -15.5 28t-32.5 10h-3q-34 0 -52 -24.5t-18 -61.5q0 -36 16.5 -60.5t48.5 -24.5h3q41 0 51 37h73q-4 -47 -40.5 -72.5t-87.5 -25.5z" />
    <glyph glyph-name="i.superior" horiz-adv-x="601" 
d="M261 712v73h79v-73h-79zM264 384v283h73v-283h-73z" />
    <glyph glyph-name="y.superior" 
d="M130 271h-93v64h60q31 0 31 31v38l-118 263h75l82 -186l82 186h73l-121 -263v-63q0 -30 -19 -50t-52 -20z" />
    <glyph glyph-name="eight.numerator" horiz-adv-x="450" 
d="M224 301q-58 0 -98 27.5t-40 78.5q0 63 72 93q-80 30 -80 96q0 51 40.5 80.5t105.5 29.5t106 -29.5t41 -80.5q0 -64 -76 -96q68 -30 68 -93q0 -51 -40.5 -78.5t-98.5 -27.5zM227 642h-5q-30 0 -50.5 -13.5t-20.5 -37.5q0 -25 21 -38.5t50 -13.5h5q29 0 50 13.5t21 38.5
q0 24 -20.5 37.5t-50.5 13.5zM222 365h5q27 0 45 13.5t18 37.5q0 23 -18.5 38t-44.5 15h-5q-26 0 -44.5 -15t-18.5 -38q0 -24 18 -37.5t45 -13.5z" />
    <glyph glyph-name="four.denominator" horiz-adv-x="450" 
d="M246 0v88h-186v64l181 243h78v-243h56v-64h-56v-88h-73zM246 306l-114 -154h114v154z" />
    <glyph glyph-name="d.superior" horiz-adv-x="601" 
d="M240 527q0 38 -17 61.5t-48 23.5t-48 -23.5t-17 -61.5q0 -39 17 -63t48 -24t48 24t17 63zM154 379q-57 0 -88 42.5t-31 105.5t33 104.5t90 41.5q30 0 52.5 -14t30.5 -31v151h73v-394h-73v39q-35 -45 -87 -45z" />
    <glyph glyph-name="zero.slashed.denominator" horiz-adv-x="450" 
d="M225 -5q-78 0 -123.5 55.5t-45.5 147.5t45.5 147.5t123.5 55.5t123.5 -55.5t45.5 -147.5t-45.5 -147.5t-123.5 -55.5zM131 198q0 -23 5 -48l148 160q-22 27 -57 27h-4q-44 0 -68 -41.5t-24 -97.5zM223 59h4q44 0 68 41.5t24 97.5q0 22 -5 45l-147 -159q25 -25 56 -25z
" />
    <glyph glyph-name="zero.slashed.case" horiz-adv-x="710" 
d="M159 210l374 404v-134l-374 -404v134z" />
    <glyph glyph-name="w.inferior" horiz-adv-x="673" 
d="M214 -116l-96 283h73l56 -188l57 188h73l51 -188l57 188h70l-90 -283h-67l-60 195l-57 -195h-67z" />
    <glyph glyph-name="s.inferior" 
d="M302 -121q-55 0 -92 25.5t-37 72.5h73q0 -20 15.5 -30.5t38.5 -10.5h6q49 0 49 30q0 21 -36 27l-48 7q-40 6 -65.5 28t-25.5 58q0 42 34.5 64.5t85.5 22.5q53 0 86 -24.5t38 -71.5h-72q-1 18 -14.5 28.5t-33.5 10.5h-6q-45 0 -45 -28q0 -24 40 -30l40 -6q42 -7 68.5 -28
t26.5 -57q0 -44 -36.5 -66t-89.5 -22z" />
    <glyph glyph-name="seven.numerator" horiz-adv-x="450" 
d="M158 305v36q0 193 139 295h-204v64h276v-67q-136 -115 -136 -292v-36h-75z" />
    <glyph glyph-name="u.inferior" 
d="M430 167v-283h-73v57q-10 -25 -33.5 -43.5t-58.5 -18.5q-45 0 -70 30t-25 78v180h73v-170q0 -27 12.5 -42t33.5 -15h6q26 0 44 21t18 51v155h73z" />
    <glyph glyph-name="n.inferior" 
d="M35 -116v283h73v-57q10 25 34 43.5t61 18.5q45 0 70 -30t25 -78v-180h-73v170q0 27 -13.5 42t-35.5 15h-6q-26 0 -44 -21t-18 -51v-155h-73z" />
    <glyph glyph-name="p.superior" horiz-adv-x="601" 
d="M235 525q0 -38 17 -61.5t48 -23.5t48 23.5t17 61.5q0 39 -17 63t-48 24t-48 -24t-17 -63zM321 673q57 0 88 -42.5t31 -105.5t-33 -104.5t-90 -41.5q-30 0 -52.5 14t-30.5 31v-151h-73v394h73v-39q35 45 87 45z" />
    <glyph glyph-name="zero.slashed.superior" horiz-adv-x="408" 
d="M204 379q-78 0 -123.5 55.5t-45.5 147.5t45.5 147.5t123.5 55.5t123.5 -55.5t45.5 -147.5t-45.5 -147.5t-123.5 -55.5zM110 582q0 -23 5 -48l148 160q-22 27 -57 27h-4q-44 0 -68 -41.5t-24 -97.5zM202 443h4q44 0 68 41.5t24 97.5q0 22 -5 45l-147 -159q25 -25 56 -25z
" />
    <glyph glyph-name="e.superior" 
d="M302 612q-52 0 -66 -53h128q-11 53 -57 53h-5zM430 471q-6 -45 -41 -68.5t-85 -23.5q-61 0 -101 40.5t-40 101.5q0 67 38.5 109.5t103.5 42.5q62 0 97 -40.5t35 -105.5v-20h-205q5 -30 23.5 -48.5t48.5 -18.5h5q35 0 49 31h72z" />
    <glyph glyph-name="v.inferior" 
d="M342 -116h-84l-104 283h73l74 -203l74 203h71z" />
    <glyph glyph-name="j.superior" horiz-adv-x="601" 
d="M302 712v73h79v-73h-79zM306 274h-86v64h54q18 0 24.5 7.5t6.5 22.5v299h73v-323q0 -30 -19 -50t-53 -20z" />
    <glyph glyph-name="six.denominator" horiz-adv-x="450" 
d="M218 -5q-70 0 -111 51t-41 140q0 99 48.5 157t128.5 58q63 0 97 -33t34 -79h-73q-5 22 -20.5 35t-38.5 13h-6q-39 0 -68.5 -35t-33.5 -93q12 24 40.5 40t63.5 16q54 0 92 -36.5t38 -95.5q0 -58 -40.5 -98t-109.5 -40zM218 59h3q32 0 53 20t21 51q0 30 -20.5 50.5
t-51.5 20.5h-3q-29 0 -51 -20t-22 -51q0 -30 20.5 -50.5t50.5 -20.5z" />
    <glyph glyph-name="l.inferior" 
d="M264 -116v395h73v-395h-73z" />
    <glyph glyph-name="y.superior.ss03" 
d="M234 271h-83v64h62q12 0 20.5 8.5t11 15t8.5 21.5l9 24l-118 263h75l82 -186l82 186h73l-147 -324q-23 -49 -35 -60q-15 -12 -40 -12z" />
    <glyph glyph-name="nine.numerator" horiz-adv-x="450" 
d="M234 642h-3q-32 0 -53 -20t-21 -51q0 -30 20.5 -50.5t51.5 -20.5h3q29 0 51 20t22 51q0 30 -20.5 50.5t-50.5 20.5zM234 706q70 0 111 -51t41 -140q0 -99 -48.5 -157t-128.5 -58q-63 0 -97 33t-34 79h73q5 -22 20.5 -35t38.5 -13h6q39 0 68.5 35t33.5 93
q-12 -24 -40.5 -40t-63.5 -16q-54 0 -92 36.5t-38 95.5q0 58 40.5 98t109.5 40z" />
    <glyph glyph-name="zero.slashed.tosf" 
d="M300 510q104 0 177 -73t73 -187t-73 -187t-177 -73t-177 73t-73 187t73 187t177 73zM145 250q0 -49 18 -90l225 241q-38 29 -83 29h-10q-60 0 -105 -49t-45 -131zM295 70h10q60 0 105 49t45 131q0 50 -19 90l-224 -241q37 -29 83 -29z" />
    <glyph glyph-name="h.inferior" 
d="M307 -116h-73v395h73v-169q10 25 34 43.5t61 18.5q45 0 70 -30t25 -78v-180h-73v170q0 27 -13.5 42t-35.5 15h-6q-26 0 -44 -21t-18 -51v-155z" />
    <glyph glyph-name="b.superior" horiz-adv-x="601" 
d="M566 527q0 -63 -31 -105.5t-88 -42.5q-52 0 -87 45v-39h-73v394h73v-151q8 17 30.5 31t52.5 14q57 0 90 -41.5t33 -104.5zM426 612q-31 0 -48 -23.5t-17 -61.5q0 -39 17 -63t48 -24t48 24t17 63q0 38 -17 61.5t-48 23.5z" />
    <glyph glyph-name="m.superior" horiz-adv-x="601" 
d="M153 537v-153h-73v283h73v-50q10 23 32.5 39t51.5 16q65 0 89 -53q35 53 96 53q48 0 73.5 -30.5t25.5 -82.5v-175h-73v170q0 57 -46 57h-3q-26 0 -44 -21.5t-18 -50.5v-155h-73v170q0 57 -46 57h-3q-28 0 -45 -21.5t-17 -52.5z" />
    <glyph glyph-name="x.superior" 
d="M360 384l-61 86l-61 -86h-79l101 141l-100 142h81l60 -85l61 85h79l-101 -140l101 -143h-81z" />
    <glyph glyph-name="d.inferior" horiz-adv-x="601" 
d="M376 27q0 38 -17 61.5t-48 23.5t-48 -23.5t-17 -61.5q0 -39 17 -63t48 -24t48 24t17 63zM290 -121q-57 0 -88 42.5t-31 105.5t33 104.5t90 41.5q30 0 52.5 -14t30.5 -31v151h73v-394h-73v39q-35 -45 -87 -45z" />
    <glyph glyph-name="zero.slashed.numerator" horiz-adv-x="450" 
d="M225 300q-78 0 -123.5 55.5t-45.5 147.5t45.5 147.5t123.5 55.5t123.5 -55.5t45.5 -147.5t-45.5 -147.5t-123.5 -55.5zM131 503q0 -23 5 -48l148 160q-22 27 -57 27h-4q-44 0 -68 -41.5t-24 -97.5zM223 364h4q44 0 68 41.5t24 97.5q0 22 -5 45l-147 -159q25 -25 56 -25z
" />
    <glyph glyph-name="one.denominator" horiz-adv-x="450" 
d="M225 0v298l-115 -96v84l132 109h56v-395h-73z" />
    <glyph glyph-name="y.inferior" 
d="M264 -229h-93v64h60q31 0 31 31v38l-118 263h75l82 -186l82 186h73l-121 -263v-63q0 -30 -19 -50t-52 -20z" />
    <glyph glyph-name="g.superior" horiz-adv-x="601" 
d="M302 440q31 0 48 23.5t17 61.5q0 39 -17 63t-48 24t-49 -24t-18 -63q0 -38 17.5 -61.5t49.5 -23.5zM366 627v40h73v-288q0 -56 -36 -87.5t-109 -31.5q-59 0 -93 25t-36 68h74q10 -32 61 -32h3q63 0 63 66v37q-26 -45 -81 -45q-56 0 -89.5 42t-33.5 104q0 63 31.5 105.5
t87.5 42.5q54 0 85 -46z" />
    <glyph glyph-name="q.inferior" horiz-adv-x="727" 
d="M287 25q0 63 31 105.5t88 42.5q52 0 87 -45v39h73v-394h-73v151q-8 -17 -30.5 -31t-52.5 -14q-57 0 -90 41.5t-33 104.5zM427 -60q31 0 48 23.5t17 61.5q0 39 -17 63t-48 24t-48 -24t-17 -63q0 -38 17 -61.5t48 -23.5z" />
    <glyph glyph-name="zero.numerator" horiz-adv-x="450" 
d="M225 300q-78 0 -123.5 55.5t-45.5 147.5t45.5 147.5t123.5 55.5t123.5 -55.5t45.5 -147.5t-45.5 -147.5t-123.5 -55.5zM223 364h4q44 0 68 41.5t24 97.5t-24 97.5t-68 41.5h-4q-44 0 -68 -41.5t-24 -97.5t24 -97.5t68 -41.5z" />
    <glyph glyph-name="two.numerator" horiz-adv-x="450" 
d="M495 305h-280v81l132 116q3 3 13.5 12t14.5 13l12 12t12 13.5t9 12.5t6.5 14t1.5 14q-1 21 -18 33.5t-41 12.5h-5q-23 0 -41 -15t-20 -42h-76q2 56 42.5 90t99.5 34q57 0 95.5 -31t38.5 -84q0 -27 -15.5 -53.5t-29.5 -39.5t-46 -40l-102 -86h197v-67z" />
    <glyph glyph-name="p.inferior" 
d="M235 25q0 -38 17 -61.5t48 -23.5t48 23.5t17 61.5q0 39 -17 63t-48 24t-48 -24t-17 -63zM321 173q57 0 88 -42.5t31 -105.5t-33 -104.5t-90 -41.5q-30 0 -52.5 14t-30.5 31v-151h-73v394h73v-39q35 45 87 45z" />
    <glyph glyph-name="five.denominator" horiz-adv-x="450" 
d="M208 -5q-58 0 -99 30t-48 84h79q3 -24 21.5 -37t45.5 -13h4q30 0 49.5 18.5t19.5 48.5q0 26 -18.5 42.5t-46.5 16.5h-3q-31 0 -61 -25h-70l45 235h226v-64h-170l-23 -112q32 29 79 29q51 0 84 -34.5t33 -85.5q0 -60 -42 -96.5t-105 -36.5z" />
    <glyph glyph-name="seven.denominator" horiz-adv-x="450" 
d="M158 0v36q0 193 139 295h-204v64h276v-67q-136 -115 -136 -292v-36h-75z" />
    <glyph glyph-name="o.superior" 
d="M300 673q64 0 102 -40t38 -107t-38 -107t-102 -40t-102 40t-38 107t38 107t102 40zM235 526q0 -38 17.5 -62t48.5 -24t47.5 23.5t16.5 62.5t-17 62.5t-48 23.5t-48 -23.5t-17 -62.5z" />
    <glyph glyph-name="s.superior" horiz-adv-x="601" 
d="M302 379q-55 0 -92 25.5t-37 72.5h73q0 -20 15.5 -30.5t38.5 -10.5h6q49 0 49 30q0 21 -36 27l-48 7q-40 6 -65.5 28t-25.5 58q0 42 34.5 64.5t85.5 22.5q53 0 86 -24.5t38 -71.5h-72q-1 18 -14.5 28.5t-33.5 10.5h-6q-45 0 -45 -28q0 -24 40 -30l40 -6q42 -7 68.5 -28
t26.5 -57q0 -44 -36.5 -66t-89.5 -22z" />
    <glyph glyph-name="registered.copy_1" horiz-adv-x="880" 
d="M376 370h74q35 0 57 15.5t22 43.5q0 25 -19.5 35t-59.5 10h-74v-104zM306 167v376h169q58 0 91 -29t33 -75q0 -76 -80 -94q39 0 57 -13.5t18 -45.5v-119h-70v99q0 44 -49 44h-99v-143h-70z" />
    <glyph glyph-name="eight.denominator" horiz-adv-x="450" 
d="M224 -4q-58 0 -98 27.5t-40 78.5q0 63 72 93q-80 30 -80 96q0 51 40.5 80.5t105.5 29.5t106 -29.5t41 -80.5q0 -64 -76 -96q68 -30 68 -93q0 -51 -40.5 -78.5t-98.5 -27.5zM227 337h-5q-30 0 -50.5 -13.5t-20.5 -37.5q0 -25 21 -38.5t50 -13.5h5q29 0 50 13.5t21 38.5
q0 24 -20.5 37.5t-50.5 13.5zM222 60h5q27 0 45 13.5t18 37.5q0 23 -18.5 38t-44.5 15h-5q-26 0 -44.5 -15t-18.5 -38q0 -24 18 -37.5t45 -13.5z" />
    <glyph glyph-name="x.inferior" 
d="M360 -116l-61 86l-61 -86h-79l101 141l-100 142h81l60 -85l61 85h79l-101 -140l101 -143h-81z" />
    <glyph glyph-name="l.superior" horiz-adv-x="601" 
d="M264 384v395h73v-395h-73z" />
    <glyph glyph-name="y.inferior.ss03" 
d="M234 -229h-83v64h62q12 0 20.5 8.5t11 15t8.5 21.5l9 24l-118 263h75l82 -186l82 186h73l-147 -324q-23 -49 -35 -60q-15 -12 -40 -12z" />
    <glyph glyph-name="five.numerator" horiz-adv-x="450" 
d="M208 300q-58 0 -99 30t-48 84h79q3 -24 21.5 -37t45.5 -13h4q30 0 49.5 18.5t19.5 48.5q0 26 -18.5 42.5t-46.5 16.5h-3q-31 0 -61 -25h-70l45 235h226v-64h-170l-23 -112q32 29 79 29q51 0 84 -34.5t33 -85.5q0 -60 -42 -96.5t-105 -36.5z" />
    <glyph glyph-name="w.superior" horiz-adv-x="601" 
d="M178 384l-96 283h73l56 -188l57 188h73l51 -188l57 188h70l-90 -283h-67l-60 195l-57 -195h-67z" />
    <glyph glyph-name="v.superior" 
d="M342 384h-84l-104 283h73l74 -203l74 203h71z" />
    <glyph glyph-name="o.inferior" 
d="M300 173q64 0 102 -40t38 -107t-38 -107t-102 -40t-102 40t-38 107t38 107t102 40zM235 26q0 -38 17.5 -62t48.5 -24t47.5 23.5t16.5 62.5t-17 62.5t-48 23.5t-48 -23.5t-17 -62.5z" />
    <glyph glyph-name="e.inferior" 
d="M440 112q-52 0 -66 -53h128q-11 53 -57 53h-5zM568 -29q-6 -45 -41 -68.5t-85 -23.5q-61 0 -101 40.5t-40 101.5q0 67 38.5 109.5t103.5 42.5q62 0 97 -40.5t35 -105.5v-20h-205q5 -30 23.5 -48.5t48.5 -18.5h5q35 0 49 31h72z" />
  </font>
</defs>
</svg>
