<?xml version="1.0" standalone="no"?>
<!DOCTYPE svg PUBLIC "-//W3C//DTD SVG 1.1//EN" "http://www.w3.org/Graphics/SVG/1.1/DTD/svg11.dtd" >
<svg xmlns="http://www.w3.org/2000/svg" xmlns:xlink="http://www.w3.org/1999/xlink" version="1.1">
<metadata>
Created by FontForge 20170731 at Thu Jun  9 19:57:23 2016
 By Aleksey,,,
Copyright 2014 Dinamo (Johannes Breyer, Fabian Harb)
</metadata>
<defs>
<font id="Favorit-BoldLining" horiz-adv-x="600" >
  <font-face 
    font-family="Favorit Bold Lining"
    font-weight="600"
    font-stretch="normal"
    units-per-em="1000"
    panose-1="2 1 8 3 3 2 1 8 2 3"
    ascent="800"
    descent="-200"
    x-height="500"
    cap-height="700"
    bbox="-327 -377 2210 1016"
    underline-thickness="0"
    underline-position="0"
    unicode-range="U+0020-FBE6"
  />
<missing-glyph horiz-adv-x="640" 
d="M570 0h-500v700h500v-700zM465 105v490h-290v-490h290z" />
    <glyph glyph-name="f_f" unicode="ff" horiz-adv-x="731" 
d="M253 0h-130v395h-102v105h102v70q0 63 33.5 96.5t96.5 33.5h143v-108h-88q-34 0 -44.5 -10.5t-10.5 -44.5v-37h205v70q0 63 33.5 96.5t96.5 33.5h143v-108h-88q-34 0 -44.5 -10.5t-10.5 -44.5v-37h118v-105h-118v-395h-130v395h-205v-395zM751 -155v-107h-771v107h771z
" />
    <glyph glyph-name="fi" unicode="fi" horiz-adv-x="655" 
d="M453 565v135h140v-135h-140zM253 0h-130v395h-102v105h102v70q0 63 33.5 96.5t96.5 33.5h143v-108h-88q-34 0 -44.5 -10.5t-10.5 -44.5v-37h335v-500h-130v395h-205v-395zM675 -155v-107h-695v107h695z" />
    <glyph glyph-name="fl" unicode="fl" horiz-adv-x="655" 
d="M253 0h-130v395h-102v105h102v70q0 63 33.5 96.5t96.5 33.5h335v-700h-130v592h-150q-34 0 -44.5 -10.5t-10.5 -44.5v-37h118v-105h-118v-395zM675 -155v-107h-695v107h695z" />
    <glyph glyph-name="f_f_i" unicode="ffi" horiz-adv-x="990" 
d="M788 565v135h140v-135h-140zM253 0h-130v395h-102v105h102v70q0 63 33.5 96.5t96.5 33.5h143v-108h-88q-34 0 -44.5 -10.5t-10.5 -44.5v-37h205v70q0 63 33.5 96.5t96.5 33.5h143v-108h-88q-34 0 -44.5 -10.5t-10.5 -44.5v-37h335v-500h-130v395h-205v-395h-130v395h-205
v-395zM1010 -155v-107h-1030v107h1030z" />
    <glyph glyph-name="f_f_l" unicode="ffl" horiz-adv-x="990" 
d="M253 0h-130v395h-102v105h102v70q0 63 33.5 96.5t96.5 33.5h143v-108h-88q-34 0 -44.5 -10.5t-10.5 -44.5v-37h205v70q0 63 33.5 96.5t96.5 33.5h335v-700h-130v592h-150q-34 0 -44.5 -10.5t-10.5 -44.5v-37h118v-105h-118v-395h-130v395h-205v-395zM1010 -155v-107
h-1030v107h1030z" />
    <glyph glyph-name="W_W_W" unicode="www" horiz-adv-x="2057" 
d="M484 0l-88 350l-83 -350h-146l-153 500h131l100 -371l81 371h139l87 -368l95 368h131l100 -371l81 371h139l87 -368l95 368h131l100 -371l81 371h139l87 -368l95 368h126l-143 -500h-146l-88 350l-83 -350h-146l-88 287l-82 -287h-146l-88 350l-83 -350h-146l-88 287
l-82 -287h-146zM2077 -155v-107h-2097v107h2097z" />
    <glyph glyph-name="slash_slash" unicode="&#x2f;&#x2f;" horiz-adv-x="775" 
d="M-72 -262l370 962h135l-365 -962h-140zM241 -262l370 962h135l-324 -855h373v-107h-554z" />
    <glyph glyph-name="u.fina" unicode="&#x6c7;" horiz-adv-x="575" arabic-form="final" 
d="M-20 -262v107h398v228q-22 -37 -60.5 -60t-85.5 -23q-87 0 -128 54t-41 136v320h130v-305q0 -49 19.5 -74.5t54.5 -25.5h8q43 0 73 37.5t30 89.5v278h130v-762h-528z" />
    <glyph glyph-name="oe.fina" unicode="&#x6c6;" horiz-adv-x="911" arabic-form="final" 
d="M535 309h214q-2 45 -32.5 70.5t-71.5 25.5h-6q-41 0 -71.5 -25.5t-32.5 -70.5zM292 95q52 0 83.5 41t31.5 114t-31.5 114t-83.5 41h-8q-52 0 -83.5 -41t-31.5 -114t31.5 -114t83.5 -41h8zM-20 -262v107h677v145q-54 0 -102 20t-82 58q-33 -37 -80.5 -57.5t-104.5 -20.5
q-56 0 -102.5 19.5t-79 54t-50.5 82.5t-18 104t18 104t50.5 82.5t79 54t102.5 19.5q57 0 103.5 -20t79.5 -55q30 35 74.5 55t101.5 20q56 0 99 -19.5t71.5 -53t43 -80.5t14.5 -101q0 -11 -0.5 -23t-1.5 -24h-338v-1v-1q4 -51 40 -81.5t84 -30.5h128v-357h-807z" />
    <glyph glyph-name="e.fina" unicode="&#x6d0;" horiz-adv-x="541" arabic-form="final" 
d="M165 309h214q-2 45 -32.5 70.5t-71.5 25.5h-6q-41 0 -71.5 -25.5t-32.5 -70.5zM-20 -262v107h307v145q-50 0 -95.5 17.5t-79 50.5t-53.5 81.5t-20 110.5q0 56 16 104t46.5 82.5t75 54t100.5 19.5t99 -19.5t71.5 -53t43 -80.5t14.5 -101q0 -11 -0.5 -23t-1.5 -24h-338
q4 -51 39.5 -82.5t84.5 -31.5h128v-357h-437z" />
    <glyph glyph-name="e.init" unicode="&#x6d0;" horiz-adv-x="541" arabic-form="initial" 
d="M165 309h214q-2 45 -32.5 70.5t-71.5 25.5h-6q-41 0 -71.5 -25.5t-32.5 -70.5zM287 -262v252q-50 0 -95.5 17.5t-79 50.5t-53.5 81.5t-20 110.5q0 56 16 104t46.5 82.5t75 54t100.5 19.5t99 -19.5t71.5 -53t43 -80.5t14.5 -101q0 -11 -0.5 -23t-1.5 -24h-338
q4 -51 39.5 -82.5t84.5 -31.5h128v-250h144v-107h-274z" />
    <glyph glyph-name=".notdef" horiz-adv-x="640" 
d="M570 0h-500v700h500v-700zM465 105v490h-290v-490h290z" />
    <glyph glyph-name=".null" horiz-adv-x="0" 
 />
    <glyph glyph-name="nonmarkingreturn" horiz-adv-x="333" 
 />
    <glyph glyph-name="space" unicode=" " horiz-adv-x="234" 
 />
    <glyph glyph-name="exclam" unicode="!" horiz-adv-x="277" 
d="M103 175l-31 285v240h133v-240l-31 -285h-71zM73 0v130h130v-130h-130zM297 -155v-107h-317v107h317z" />
    <glyph glyph-name="quotedbl" unicode="&#x22;" horiz-adv-x="389" 
d="M254 460l-32 135v105h115v-105l-32 -135h-51zM84 460l-32 135v105h115v-105l-32 -135h-51zM409 -155v-107h-429v107h429z" />
    <glyph glyph-name="numbersign" unicode="#" horiz-adv-x="710" 
d="M395 275l32 150h-110l-32 -150h110zM336 0l34 160h-110l-34 -160h-120l34 160h-100v115h125l32 150h-114v115h139l34 160h120l-34 -160h110l34 160h120l-34 -160h99v-115h-124l-32 -150h113v-115h-138l-34 -160h-120zM730 -155v-107h-750v107h750z" />
    <glyph glyph-name="dollar" unicode="$" horiz-adv-x="633" 
d="M200 505q0 -35 19.5 -53t60.5 -26l28 169q-50 -4 -79 -30t-29 -60zM370 276l-29 -171q52 2 80 28.5t28 61.5q0 31 -16.5 51t-62.5 30zM653 -155v-107h-226v107h226zM-20 -262v107h202l27 159q-86 24 -129.5 85.5t-46.5 145.5h132q2 -34 18 -62.5t46 -45.5l29 172l-13 3
q-92 19 -134.5 70.5t-42.5 127.5q0 39 16.5 77t48.5 67.5t80.5 47.5t111.5 18h2l19 110h115l-22 -128q73 -25 113 -81.5t40 -130.5h-132q-2 29 -13 51t-29 36l-27 -163q91 -19 140.5 -67t49.5 -132q0 -45 -17 -84.5t-49.5 -68t-81.5 -45.5t-112 -17l-42 -252h-299z" />
    <glyph glyph-name="percent" unicode="%" horiz-adv-x="942" 
d="M206 300q-46 0 -79 17.5t-54 45.5t-31 64.5t-10 74.5t10 74.5t31 65t54 46t79 17.5t79 -17.5t54 -46t31 -65t10 -74.5t-10 -74.5t-31 -64.5t-54 -45.5t-79 -17.5zM204 392h4q31 0 47.5 29t16.5 81t-16.5 81.5t-47.5 29.5h-4q-31 0 -47.5 -29.5t-16.5 -81.5t16.5 -81
t47.5 -29zM735 -5q-46 0 -79 17.5t-54 45.5t-31 64.5t-10 74.5t10 74.5t31 65t54 46t79 17.5t79 -17.5t54 -46t31 -65t10 -74.5t-10 -74.5t-31 -64.5t-54 -45.5t-79 -17.5zM733 87h4q31 0 47.5 29t16.5 81t-16.5 81.5t-47.5 29.5h-4q-31 0 -47.5 -29.5t-16.5 -81.5t16.5 -81
t47.5 -29zM962 -155v-107h-609v107h609zM-20 -262v107h126l514 855h117l-578 -962h-179z" />
    <glyph glyph-name="ampersand" unicode="&#x26;" horiz-adv-x="665" 
d="M537 0h-280q-41 0 -79.5 13t-67.5 36.5t-46.5 58t-17.5 77.5q0 63 37 107t96 63q-54 19 -91 60.5t-37 104.5q0 43 16.5 76.5t44.5 56.5t65 35t78 12h151v-105h-111q-49 0 -81.5 -21t-32.5 -70t32.5 -72.5t81.5 -23.5h112v121h130v-121h105v-105h-105v-303zM407 105v198
h-112q-49 0 -84 -22.5t-35 -74.5t35 -76.5t84 -24.5h112zM685 -155v-107h-705v107h705z" />
    <glyph glyph-name="quotesingle" unicode="'" horiz-adv-x="219" 
d="M84 460l-32 135v105h115v-105l-32 -135h-51zM239 -155v-107h-259v107h259z" />
    <glyph glyph-name="parenleft" unicode="(" horiz-adv-x="453" 
d="M383 -155h90v-107h-95q-82 0 -145 44t-105 123.5t-63.5 193t-21.5 251.5q0 127 30.5 220.5t79.5 154.5t109.5 90.5t120.5 29.5v-110q-32 -4 -69 -25t-68 -65.5t-52 -116.5t-21 -178q0 -139 20.5 -236t51.5 -156.5t68.5 -86t69.5 -26.5z" />
    <glyph glyph-name="parenright" unicode=")" horiz-adv-x="453" 
d="M70 -155q32 0 69.5 26.5t68.5 86t51.5 156.5t20.5 236q0 106 -21 178t-52 116.5t-68 65.5t-69 25v110q60 0 120.5 -29.5t109.5 -90.5t79.5 -154.5t30.5 -220.5q0 -138 -21.5 -251.5t-64.5 -193t-106.5 -123.5t-147.5 -44h-90v107h90z" />
    <glyph glyph-name="asterisk" unicode="*" horiz-adv-x="447" 
d="M360 451l-84 -46l-52 87l-53 -87l-84 46l53 87h-95v92h95l-53 87l84 46l53 -87l52 87l84 -46l-53 -87h95v-92h-95zM467 -155v-107h-487v107h487z" />
    <glyph glyph-name="plus" unicode="+" horiz-adv-x="573" 
d="M533 200h-180v-185h-133v185h-180v115h180v185h133v-185h180v-115zM593 -155v-107h-613v107h613z" />
    <glyph glyph-name="comma" unicode="," horiz-adv-x="272" 
d="M72 -262h-92v107h87q34 0 48 19.5t14 45.5v90h-65v145h145v-272q0 -26 -10 -50.5t-28.5 -43t-43.5 -30t-55 -11.5z" />
    <glyph glyph-name="hyphen" unicode="-" horiz-adv-x="414" 
d="M62 250v105h290v-105h-290zM434 -155v-107h-454v107h454z" />
    <glyph glyph-name="period" unicode="." horiz-adv-x="269" 
d="M62 0v145h145v-145h-145zM289 -155v-107h-309v107h309z" />
    <glyph glyph-name="slash" unicode="/" horiz-adv-x="462" 
d="M-72 -262l370 962h135l-365 -962h-140zM482 -155v-107h-243v107h243z" />
    <glyph glyph-name="zero" unicode="0" horiz-adv-x="670" 
d="M335 -10q-69 0 -122.5 26t-89.5 73t-54.5 114t-18.5 147t19.5 147t55.5 114t89.5 73t120.5 26t120.5 -26t89.5 -73t55.5 -114t19.5 -147t-18.5 -147t-54.5 -114t-89.5 -73t-122.5 -26zM331 105h8q41 0 69.5 18.5t46 51.5t25 78t7.5 97t-7.5 97t-25 78t-46 51.5
t-69.5 18.5h-8q-41 0 -69.5 -18.5t-46 -51.5t-25 -78t-7.5 -97t7.5 -97t25 -78t46 -51.5t69.5 -18.5zM690 -155v-107h-710v107h710z" />
    <glyph glyph-name="one" unicode="1" horiz-adv-x="401" 
d="M316 0h-127v512l-155 -149v165l177 172h105v-700zM421 -155v-107h-441v107h441z" />
    <glyph glyph-name="two" unicode="2" horiz-adv-x="590" 
d="M541 0h-493v121l238 224q62 58 87 91.5t25 70.5t-26 62.5t-67 25.5h-10q-45 0 -75.5 -30t-31.5 -84h-133q0 53 18.5 96t51 72.5t77.5 45t97 15.5q104 0 168 -56t64 -142q0 -67 -32.5 -117t-100.5 -113l-182 -167h325v-115zM610 -155v-107h-630v107h630z" />
    <glyph glyph-name="three" unicode="3" horiz-adv-x="598" 
d="M291 -10q-110 0 -179 54.5t-69 148.5h133q4 -38 32 -63t78 -25h10q60 0 86.5 30.5t26.5 64.5q0 45 -35 68.5t-89 23.5h-47v115h42q57 0 91 26.5t34 71.5q0 37 -29.5 63.5t-74.5 26.5h-10q-39 0 -68.5 -23.5t-33.5 -66.5h-133q0 45 18.5 82.5t50.5 65t76 42.5t95 15
q56 0 101 -16t76 -42.5t48 -62t17 -74.5q0 -60 -34 -103.5t-89 -58.5q55 -15 91.5 -59t36.5 -104q0 -49 -19 -86.5t-52.5 -62.5t-80 -38t-100.5 -13zM618 -155v-107h-638v107h638z" />
    <glyph glyph-name="four" unicode="4" horiz-adv-x="632" 
d="M494 0h-127v142h-338v131l334 427h131v-443h105v-115h-105v-142zM367 257v265l-208 -265h208zM652 -155v-107h-672v107h672z" />
    <glyph glyph-name="five" unicode="5" horiz-adv-x="594" 
d="M290 -10q-108 0 -178.5 57.5t-81.5 147.5h133q10 -42 43 -66t82 -24h6q49 0 82 29.5t33 81.5t-33 79.5t-82 27.5h-6q-26 0 -57 -11t-55 -37h-122l86 425h395v-115h-294l-40 -191q20 19 54 31.5t68 12.5q97 0 158 -61t61 -156q0 -102 -68 -166.5t-184 -64.5zM614 -155
v-107h-634v107h634z" />
    <glyph glyph-name="six" unicode="6" horiz-adv-x="631" 
d="M573 230q0 -47 -16.5 -91t-49 -77t-80 -52.5t-109.5 -19.5q-127 0 -197.5 88.5t-70.5 248.5q0 87 24.5 158t67 120.5t100 77t122.5 27.5q88 0 150.5 -51.5t73.5 -138.5h-133q-4 30 -27.5 52.5t-69.5 22.5h-8q-28 0 -58 -12t-55 -39t-43.5 -71t-24.5 -108q23 43 71 69
t107 26q46 0 87 -16t72 -45.5t49 -72.5t18 -96zM191 225q0 -51 34.5 -85.5t89.5 -34.5h8q51 0 84 35t33 85t-33 85t-84 35h-8q-53 0 -88.5 -34t-35.5 -86zM651 -155v-107h-671v107h671z" />
    <glyph glyph-name="seven" unicode="7" horiz-adv-x="558" 
d="M278 0h-139v65q0 104 20 186t53 144t75 107.5t86 77.5h-348v120h505v-110q-53 -35 -99.5 -82t-80 -110.5t-53 -146t-19.5 -186.5v-65zM578 -155v-107h-598v107h598z" />
    <glyph glyph-name="eight" unicode="8" horiz-adv-x="588" 
d="M294 -10q-56 0 -99 15.5t-71.5 42t-43.5 61t-15 71.5q0 63 34 102.5t84 56.5q-52 19 -92 64.5t-40 116.5q0 35 15.5 69.5t46 61t76 43t105.5 16.5t105.5 -16.5t76 -43t46 -61t15.5 -69.5q0 -71 -40 -116.5t-92 -64.5q50 -17 84 -56.5t34 -102.5q0 -37 -15 -71.5
t-43.5 -61t-71.5 -42t-99 -15.5zM289 595q-43 0 -74 -27t-31 -70t31 -70.5t74 -27.5h10q43 0 74 27.5t31 70.5t-31 70t-74 27h-10zM390 195q0 41 -27 66t-64 25h-10q-37 0 -64 -25t-27 -66t27 -65.5t64 -24.5h10q37 0 64 24.5t27 65.5zM608 -155v-107h-628v107h628z" />
    <glyph glyph-name="nine" unicode="9" horiz-adv-x="631" 
d="M440 475q0 51 -34.5 85.5t-89.5 34.5h-8q-51 0 -84 -35t-33 -85t33 -85t84 -35h8q53 0 88.5 34t35.5 86zM58 470q0 47 16.5 91t49 77t80 52.5t109.5 19.5q127 0 197.5 -88.5t70.5 -248.5q0 -87 -24.5 -158t-67 -120.5t-100 -77t-122.5 -27.5q-88 0 -150.5 51.5
t-73.5 138.5h133q4 -30 27.5 -52.5t69.5 -22.5h8q28 0 58 12t55 39t43.5 71t24.5 108q-23 -43 -71 -69t-107 -26q-46 0 -87 16t-72 45.5t-49 72.5t-18 96zM651 -155v-107h-671v107h671z" />
    <glyph glyph-name="colon" unicode=":" horiz-adv-x="271" 
d="M63 355v145h145v-145h-145zM63 0v145h145v-145h-145zM291 -155v-107h-311v107h311z" />
    <glyph glyph-name="semicolon" unicode=";" horiz-adv-x="290" 
d="M75 355v145h145v-145h-145zM84 -262h-104v107h99q34 0 48 19.5t14 45.5v90h-65v145h145v-272q0 -26 -10 -50.5t-28.5 -43t-43.5 -30t-55 -11.5z" />
    <glyph glyph-name="less" unicode="&#x3c;" horiz-adv-x="528" 
d="M465 26l-425 170v120l425 170v-128l-261 -98l261 -99v-135zM548 -155v-107h-568v107h568z" />
    <glyph glyph-name="equal" unicode="=" horiz-adv-x="628" 
d="M67 300v115h494v-115h-494zM67 100v115h494v-115h-494zM648 -155v-107h-668v107h668z" />
    <glyph glyph-name="greater" unicode="&#x3e;" horiz-adv-x="528" 
d="M63 26v127l264 100l-264 99v134l425 -170v-120zM548 -155v-107h-568v107h568z" />
    <glyph glyph-name="question" unicode="?" horiz-adv-x="491" 
d="M251 191h-123v154q0 37 21 58.5t58 21.5h27q41 0 67 17.5t26 62.5q0 37 -26 58.5t-67 21.5h-200v115h218q90 0 148.5 -52.5t58.5 -142.5q0 -37 -12.5 -71t-35.5 -59t-57 -40t-77 -15q-15 0 -20.5 -5t-5.5 -20v-104zM124 0v130h130v-130h-130zM511 -155v-107h-531v107h531
z" />
    <glyph glyph-name="at" unicode="@" horiz-adv-x="944" 
d="M259 298q0 43 13 81.5t36.5 67.5t56 46t71.5 17q41 0 72.5 -18t48.5 -47v55h115v-315h4q37 1 68 39t31 136q0 57 -21 105.5t-58.5 84t-91.5 55.5t-119 20t-123.5 -22.5t-102 -64t-69 -101t-25.5 -132.5q0 -110 39.5 -196t109.5 -144.5t167.5 -89t213.5 -30.5h269v-107
h-279q-136 0 -254 35t-203 105t-134 177t-49 250q0 99 37.5 178t98.5 133.5t140.5 84t163.5 29.5t159 -28.5t130.5 -78t88 -117.5t32.5 -146q0 -67 -18 -117t-47.5 -83t-67.5 -49t-77 -16h-128v55q-17 -29 -48.5 -47t-72.5 -18q-39 0 -71.5 17.5t-56 46.5t-36.5 67.5
t-13 81.5zM467 184h5q40 0 60 36t20 78q0 20 -5 40.5t-15 36.5t-25 26t-35 10h-5q-35 0 -57.5 -32t-22.5 -81q0 -51 22.5 -82.5t57.5 -31.5zM143 -155v-107h-163v107h163z" />
    <glyph glyph-name="A" unicode="A" horiz-adv-x="713" 
d="M455 285l-101 265l-101 -265h202zM2 0l277 700h158l270 -700h-143l-63 165h-294l-63 -165h-142zM743 -155v-107h-773v107h773z" />
    <glyph glyph-name="B" unicode="B" horiz-adv-x="667" 
d="M402 0h-320v700h310q50 0 90.5 -14.5t68 -38.5t42 -57.5t14.5 -70.5q0 -63 -33.5 -106t-84.5 -58q54 -11 93.5 -54.5t39.5 -114.5q0 -78 -61.5 -132t-158.5 -54zM217 413h155q49 0 74.5 21.5t25.5 62.5t-25.5 62t-74.5 21h-155v-167zM217 120h165q49 0 77 22t28 67
t-28 66.5t-77 21.5h-165v-177zM687 -155v-107h-707v107h707z" />
    <glyph glyph-name="C" unicode="C" horiz-adv-x="711" 
d="M538 230h135q-4 -51 -24.5 -95t-57 -76t-90 -50.5t-122.5 -18.5q-80 0 -143 26t-105.5 73t-64.5 114t-22 147t22 147t64.5 114t105.5 73t143 26q69 0 122.5 -19t90 -51.5t57 -76.5t24.5 -93h-135q-12 57 -51.5 88.5t-102.5 31.5h-10q-86 0 -140.5 -64t-54.5 -176
t54.5 -176t140.5 -64h10q63 0 102.5 31t51.5 89zM731 -155v-107h-751v107h751z" />
    <glyph glyph-name="D" unicode="D" horiz-adv-x="721" 
d="M82 0v700h240q78 0 144 -22.5t112.5 -66.5t72.5 -109.5t26 -151.5t-25.5 -151.5t-71 -109.5t-110.5 -66.5t-143 -22.5h-245zM217 120h95q101 0 165.5 49.5t64.5 180.5t-64.5 180.5t-165.5 49.5h-95v-460zM741 -155v-107h-761v107h761z" />
    <glyph glyph-name="E" unicode="E" horiz-adv-x="661" 
d="M82 0v700h530v-120h-395v-161h335v-120h-335v-179h405v-120h-540zM681 -155v-107h-701v107h701z" />
    <glyph glyph-name="F" unicode="F" horiz-adv-x="616" 
d="M82 0v700h510v-120h-375v-180h325v-120h-325v-280h-135zM636 -155v-107h-656v107h656z" />
    <glyph glyph-name="G" unicode="G" horiz-adv-x="745" 
d="M577 68q-31 -33 -78.5 -55.5t-111.5 -22.5q-78 0 -142 27.5t-109 75.5t-69.5 114.5t-24.5 142.5t24.5 142.5t69.5 114.5t109 75.5t142 27.5q67 0 121.5 -19t92.5 -52t60 -79t26 -100h-135q-7 56 -46 93t-114 37h-10q-97 0 -151 -66t-54 -174t54 -174t151 -66h10
q66 0 118.5 35.5t68.5 99.5h-192v120h220q41 0 63 -22t22 -63v-280h-115v68zM765 -155v-107h-785v107h785z" />
    <glyph glyph-name="H" unicode="H" horiz-adv-x="739" 
d="M82 0v700h135v-290h305v290h135v-700h-135v290h-305v-290h-135zM759 -155v-107h-779v107h779z" />
    <glyph glyph-name="I" unicode="I" horiz-adv-x="299" 
d="M82 0v700h135v-700h-135zM319 -155v-107h-339v107h339z" />
    <glyph glyph-name="J" unicode="J" horiz-adv-x="429" 
d="M211 0h-183v130h128q34 0 47 13t13 47v510h135v-560q0 -63 -38.5 -101.5t-101.5 -38.5zM449 -155v-107h-469v107h469z" />
    <glyph glyph-name="K" unicode="K" horiz-adv-x="686" 
d="M520 0l-211 308l-92 -97v-211h-135v700h135v-314l297 314h167l-275 -290l281 -410h-167zM706 -155v-107h-726v107h726z" />
    <glyph glyph-name="L" unicode="L" horiz-adv-x="630" 
d="M82 0v700h135v-580h395v-120h-530zM650 -155v-107h-670v107h670z" />
    <glyph glyph-name="M" unicode="M" horiz-adv-x="929" 
d="M393 0l-179 553v-553h-132v700h210l176 -550l170 550h209v-700h-132v552l-174 -552h-148zM949 -155v-107h-969v107h969z" />
    <glyph glyph-name="N" unicode="N" horiz-adv-x="749" 
d="M492 0l-275 515v-515h-135v700h175l275 -513v513h135v-700h-175zM769 -155v-107h-789v107h789z" />
    <glyph glyph-name="O" unicode="O" horiz-adv-x="766" 
d="M383 -10q-75 0 -137.5 24.5t-107.5 71t-70 113.5t-25 151t25 151t70 113.5t107.5 71t137.5 24.5t137.5 -24.5t107.5 -71t70 -113.5t25 -151t-25 -151t-70 -113.5t-107.5 -71t-137.5 -24.5zM378 110h10q93 0 146.5 64t53.5 176t-53.5 176t-146.5 64h-10q-93 0 -146.5 -64
t-53.5 -176t53.5 -176t146.5 -64zM786 -155v-107h-806v107h806z" />
    <glyph glyph-name="P" unicode="P" horiz-adv-x="652" 
d="M82 0v700h315q101 0 163 -58t62 -162t-62 -162.5t-163 -58.5h-180v-259h-135zM217 379h165q52 0 78.5 28t26.5 73t-26.5 72.5t-78.5 27.5h-165v-201zM672 -155v-107h-692v107h692z" />
    <glyph glyph-name="Q" unicode="Q" horiz-adv-x="766" 
d="M786 -262h-336q-63 0 -96.5 33.5t-33.5 96.5v127q-62 9 -113.5 37.5t-87.5 74t-56 107t-20 136.5q0 84 25 151t70 113.5t107.5 71t137.5 24.5t137.5 -24.5t107.5 -71t70 -113.5t25 -151q0 -74 -20 -135.5t-55.5 -106.5t-86.5 -74t-112 -39v-95q0 -34 10.5 -44.5
t44.5 -10.5h282v-107zM378 110h10q93 0 146.5 64t53.5 176t-53.5 176t-146.5 64h-10q-93 0 -146.5 -64t-53.5 -176t53.5 -176t146.5 -64zM191 -155v-107h-211v107h211z" />
    <glyph glyph-name="R" unicode="R" horiz-adv-x="682" 
d="M217 383h150q60 0 90 26t30 75t-30 72.5t-90 23.5h-150v-197zM82 0v700h325q45 0 84.5 -14.5t68 -39.5t45.5 -60t17 -76q0 -66 -29.5 -110.5t-89.5 -66.5q57 0 83 -26t26 -73v-234h-135v200q0 37 -14 51t-51 14h-195v-265h-135zM702 -155v-107h-722v107h722z" />
    <glyph glyph-name="S" unicode="S" horiz-adv-x="634" 
d="M459 480q-4 54 -40 82t-90 28h-10q-56 0 -88 -25.5t-32 -59.5t20 -52t65 -27l105 -21q90 -18 142 -66.5t52 -133.5q0 -45 -18 -84.5t-52 -68t-84 -45.5t-115 -17q-143 0 -212 68.5t-73 176.5h135q4 -52 43 -88.5t117 -36.5h10q56 0 85 25.5t29 59.5q0 30 -16.5 48.5
t-62.5 28.5l-125 26q-93 19 -136.5 71.5t-43.5 130.5q0 39 17.5 77t50.5 67.5t83 47.5t114 18q63 0 113 -17.5t83.5 -48t51 -72.5t17.5 -92h-135zM654 -155v-107h-674v107h674z" />
    <glyph glyph-name="T" unicode="T" horiz-adv-x="656" 
d="M260 0v580h-242v120h620v-120h-243v-580h-135zM676 -155v-107h-696v107h696z" />
    <glyph glyph-name="U" unicode="U" horiz-adv-x="702" 
d="M351 -10q-142 0 -208.5 68t-66.5 187v455h135v-435q0 -82 34 -118.5t101 -36.5h10q67 0 101 36.5t34 118.5v435h135v-455q0 -119 -66.5 -187t-208.5 -68zM722 -155v-107h-742v107h742z" />
    <glyph glyph-name="V" unicode="V" horiz-adv-x="716" 
d="M447 0h-175l-268 700h151l207 -558l199 558h148zM736 -155v-107h-756v107h756z" />
    <glyph glyph-name="W" unicode="W" horiz-adv-x="950" 
d="M582 0l-107 510l-108 -510h-175l-172 700h139l125 -555l110 555h165l110 -555l121 555h140l-173 -700h-175zM970 -155v-107h-990v107h990z" />
    <glyph glyph-name="X" unicode="X" horiz-adv-x="642" 
d="M482 0l-163 245l-166 -245h-152l242 359l-227 341h159l148 -223l151 223h152l-227 -336l242 -364h-159zM662 -155v-107h-682v107h682z" />
    <glyph glyph-name="Y" unicode="Y" horiz-adv-x="663" 
d="M399 0h-135v280l-260 420h153l179 -294l176 294h148l-261 -420v-280zM683 -155v-107h-703v107h703z" />
    <glyph glyph-name="Z" unicode="Z" horiz-adv-x="635" 
d="M595 0h-555v115l388 465h-378v120h535v-115l-388 -465h398v-120zM655 -155v-107h-675v107h675z" />
    <glyph glyph-name="bracketleft" unicode="[" horiz-adv-x="351" 
d="M79 -262v1107h240v-105h-110v-895h162v-107h-292z" />
    <glyph glyph-name="backslash" unicode="\" horiz-adv-x="462" 
d="M534 -262h-140l-365 962h135zM223 -155v-107h-243v107h243z" />
    <glyph glyph-name="bracketright" unicode="]" horiz-adv-x="351" 
d="M272 845v-1107h-292v107h162v895h-110v105h240z" />
    <glyph glyph-name="asciicircum" unicode="^" horiz-adv-x="540" 
d="M368 285l-99 246l-99 -246h-137l175 415h124l175 -415h-139zM560 -155v-107h-580v107h580z" />
    <glyph glyph-name="underscore" unicode="_" horiz-adv-x="530" 
d="M30 0v105h470v-105h-470z" />
    <glyph glyph-name="grave" unicode="`" horiz-adv-x="195" 
d="M160 700l25 -150h-75l-100 150h150z" />
    <glyph glyph-name="a" unicode="a" horiz-adv-x="534" 
d="M227 95h5q45 0 79 30t34 79v14l-108 -11q-25 -2 -49 -16t-24 -45q0 -23 18 -37t45 -14zM348 61q-22 -32 -60.5 -51.5t-87.5 -19.5q-67 0 -115.5 40t-48.5 107q0 40 14.5 70t39.5 50t58.5 31t70.5 14l126 11v12q0 34 -22 57t-59 23h-6q-37 0 -58.5 -19t-23.5 -41h-130
q7 70 64.5 117.5t150.5 47.5t151.5 -46.5t58.5 -133.5v-220q0 -22 0.5 -53t4.5 -57h-122q-2 11 -3.5 27.5t-2.5 33.5zM554 -155v-107h-574v107h574z" />
    <glyph glyph-name="b" unicode="b" horiz-adv-x="601" 
d="M563 250q0 -50 -14.5 -97.5t-42.5 -83.5t-69.5 -57.5t-95.5 -21.5q-52 0 -90.5 24.5t-53.5 50.5v-65h-130v700h130v-265q15 26 53.5 50.5t90.5 24.5q54 0 95.5 -21.5t69.5 -57.5t42.5 -83.5t14.5 -97.5zM197 250q0 -71 34.5 -113t79.5 -42h8q49 0 81.5 42.5t32.5 113.5
t-32.5 112.5t-81.5 41.5h-8q-45 0 -79.5 -42t-34.5 -113zM621 -155v-107h-641v107h641z" />
    <glyph glyph-name="c" unicode="c" horiz-adv-x="539" 
d="M374 175h130q-7 -93 -67.5 -139t-157.5 -46q-50 0 -94 18t-76.5 52t-51 82t-18.5 108t18.5 108t51 82t76.5 52t94 18q97 0 157.5 -46t67.5 -139h-130q-6 37 -28.5 58.5t-63.5 21.5h-6q-56 0 -81.5 -46t-25.5 -109t25.5 -109t81.5 -46h6q41 0 63.5 21.5t28.5 58.5z
M559 -155v-107h-579v107h579z" />
    <glyph glyph-name="d" unicode="d" horiz-adv-x="601" 
d="M290 95q45 0 79.5 42t34.5 113t-34.5 113t-79.5 42h-8q-49 0 -81.5 -41.5t-32.5 -112.5t32.5 -113.5t81.5 -42.5h8zM260 -10q-54 0 -95.5 21.5t-69.5 57.5t-42.5 83.5t-14.5 97.5t14.5 97.5t42.5 83.5t69.5 57.5t95.5 21.5q52 0 90.5 -24.5t53.5 -50.5v265h130v-700h-130
v65q-15 -26 -53.5 -50.5t-90.5 -24.5zM621 -155v-107h-641v107h641z" />
    <glyph glyph-name="e" unicode="e" horiz-adv-x="541" 
d="M503 158q-18 -73 -75.5 -120.5t-150.5 -47.5q-47 0 -90 17.5t-76 50.5t-52.5 81.5t-19.5 110.5q0 56 16 104t46.5 82.5t75 54t100.5 19.5t99 -19.5t71.5 -53t43 -80.5t14.5 -101q0 -11 -0.5 -23t-1.5 -24h-338q4 -51 38.5 -82.5t75.5 -31.5h6q37 0 59.5 19t29.5 44h129z
M165 309h214q-2 45 -32.5 70.5t-71.5 25.5h-6q-41 0 -71.5 -25.5t-32.5 -70.5zM592 -155v-107h-612v107h612z" />
    <glyph glyph-name="f" unicode="f" horiz-adv-x="396" 
d="M123 0v395h-102v105h102v70q0 63 33.5 96.5t96.5 33.5h143v-108h-88q-34 0 -44.5 -10.5t-10.5 -44.5v-37h118v-105h-118v-395h-130zM416 -155v-107h-436v107h436z" />
    <glyph glyph-name="g" unicode="g" horiz-adv-x="593" 
d="M281 105h8q45 0 76 39.5t31 110.5t-31 110.5t-76 39.5h-8q-47 0 -79.5 -39.5t-32.5 -110.5t32.5 -110.5t79.5 -39.5zM279 -155q49 0 83 27.5t34 87.5v110q-22 -37 -61 -53.5t-80 -16.5q-43 0 -82.5 16.5t-69 49t-47 80t-17.5 109.5t17.5 109.5t47 80t69 49t82.5 16.5
q41 0 80 -16.5t61 -53.5v60h130v-556q0 -39 -16 -76.5t-48.5 -66t-81 -46t-113.5 -17.5h-287v107h299z" />
    <glyph glyph-name="h" unicode="h" horiz-adv-x="584" 
d="M197 278v-278h-130v700h130v-273q22 37 62 60t89 23q90 0 132 -54t42 -136v-320h-130v305q0 49 -21 74.5t-58 25.5h-8q-45 0 -76.5 -37.5t-31.5 -89.5zM604 -155v-107h-624v107h624z" />
    <glyph glyph-name="i" unicode="i" horiz-adv-x="264" 
d="M62 565v135h140v-135h-140zM67 0v500h130v-500h-130zM284 -155v-107h-304v107h304z" />
    <glyph glyph-name="j" unicode="j" horiz-adv-x="272" 
d="M69 565v135h140v-135h-140zM205 500v-637q0 -60 -32.5 -92.5t-92.5 -32.5h-162v107h102q30 0 42.5 12.5t12.5 42.5v600h130z" />
    <glyph glyph-name="k" unicode="k" horiz-adv-x="551" 
d="M394 0l-139 208l-58 -59v-149h-130v700h130v-386l181 186h159l-192 -199l202 -301h-153zM571 -155v-107h-591v107h591z" />
    <glyph glyph-name="l" unicode="l" horiz-adv-x="264" 
d="M67 0v700h130v-700h-130zM284 -155v-107h-304v107h304z" />
    <glyph glyph-name="m" unicode="m" horiz-adv-x="904" 
d="M197 278v-278h-130v500h130v-71q26 43 66.5 62t82.5 19q52 0 92 -21.5t61 -64.5q28 46 73 66t92 20q49 0 83 -15t55 -41t30.5 -62t9.5 -77v-315h-130v300q0 49 -18.5 74.5t-59.5 25.5h-6q-46 0 -77 -35t-31 -87v-278h-130v300q0 49 -19 74.5t-60 25.5h-6q-46 0 -77 -35
t-31 -87zM924 -155v-107h-944v107h944z" />
    <glyph glyph-name="n" unicode="n" horiz-adv-x="584" 
d="M197 278v-278h-130v500h130v-73q22 37 62 60t89 23q90 0 132 -54t42 -136v-320h-130v305q0 49 -21 74.5t-58 25.5h-8q-45 0 -76.5 -37.5t-31.5 -89.5zM604 -155v-107h-624v107h624z" />
    <glyph glyph-name="o" unicode="o" horiz-adv-x="576" 
d="M288 -10q-56 0 -102.5 19.5t-79 54t-50.5 82.5t-18 104t18 104t50.5 82.5t79 54t102.5 19.5t102.5 -19.5t79 -54t50.5 -82.5t18 -104t-18 -104t-50.5 -82.5t-79 -54t-102.5 -19.5zM292 95q52 0 83.5 41t31.5 114t-31.5 114t-83.5 41h-8q-52 0 -83.5 -41t-31.5 -114
t31.5 -114t83.5 -41h8zM596 -155v-107h-616v107h616z" />
    <glyph glyph-name="p" unicode="p" horiz-adv-x="601" 
d="M311 405q-45 0 -79.5 -42t-34.5 -113t34.5 -113t79.5 -42h8q49 0 81.5 41.5t32.5 112.5t-32.5 113.5t-81.5 42.5h-8zM621 -155v-107h-294v107h294zM-20 -262v107h87v655h130v-65q15 26 53.5 50.5t90.5 24.5q54 0 95.5 -21.5t69.5 -57.5t42.5 -83.5t14.5 -97.5
t-14.5 -97.5t-42.5 -83.5t-69.5 -57.5t-95.5 -21.5q-52 0 -90.5 24.5t-53.5 50.5v-327h-217z" />
    <glyph glyph-name="q" unicode="q" horiz-adv-x="602" 
d="M291 405h-8q-49 0 -81.5 -42.5t-32.5 -113.5t32.5 -112.5t81.5 -41.5h8q45 0 79.5 42t34.5 113t-34.5 113t-79.5 42zM-20 -155h294v-107h-294v107zM405 -262v327q-15 -26 -53.5 -50.5t-90.5 -24.5q-54 0 -95.5 21.5t-69.5 57.5t-42.5 83.5t-14.5 97.5t14.5 97.5
t42.5 83.5t69.5 57.5t95.5 21.5q52 0 90.5 -24.5t53.5 -50.5v65h130v-655h87v-107h-217z" />
    <glyph glyph-name="r" unicode="r" horiz-adv-x="387" 
d="M67 0v500h130v-100q15 49 52 77t93 28h25v-120h-45q-63 0 -94 -31t-31 -94v-260h-130zM407 -155v-107h-427v107h427z" />
    <glyph glyph-name="s" unicode="s" horiz-adv-x="497" 
d="M248 -10q-101 0 -158.5 46.5t-57.5 128.5h133q0 -34 23.5 -54.5t60.5 -20.5h8q30 0 48 13.5t18 35.5q0 19 -12 31t-39 19l-65 16q-78 19 -116.5 55t-38.5 96q0 67 54.5 110.5t147.5 43.5q97 0 150.5 -46.5t53.5 -128.5h-130q-4 36 -22.5 55.5t-52.5 19.5h-8
q-26 0 -44.5 -13.5t-18.5 -35.5q0 -20 16.5 -32t47.5 -19l67 -17q72 -18 106 -54t34 -95q0 -63 -52 -108.5t-153 -45.5zM517 -155v-107h-537v107h537z" />
    <glyph glyph-name="t" unicode="t" horiz-adv-x="407" 
d="M377 110v-110h-127q-63 0 -96.5 33.5t-33.5 96.5v265h-103v105h103v162h130v-162h112v-105h-112v-230q0 -34 10.5 -44.5t44.5 -10.5h72zM427 -155v-107h-447v107h447z" />
    <glyph glyph-name="u" unicode="u" horiz-adv-x="575" 
d="M508 500v-500h-130v73q-22 -37 -60.5 -60t-85.5 -23q-87 0 -128 54t-41 136v320h130v-305q0 -49 19.5 -74.5t54.5 -25.5h8q43 0 73 37.5t30 89.5v278h130zM595 -155v-107h-615v107h615z" />
    <glyph glyph-name="v" unicode="v" horiz-adv-x="559" 
d="M374 0h-189l-173 500h138l132 -404l131 404h134zM579 -155v-107h-599v107h599z" />
    <glyph glyph-name="w" unicode="w" horiz-adv-x="791" 
d="M484 0l-88 350l-83 -350h-146l-153 500h131l100 -371l81 371h139l87 -368l95 368h126l-143 -500h-146zM811 -155v-107h-831v107h831z" />
    <glyph glyph-name="x" unicode="x" horiz-adv-x="525" 
d="M370 0l-109 153l-110 -153h-141l181 252l-176 248h145l104 -146l105 146h141l-176 -245l181 -255h-145zM545 -155v-107h-565v107h565z" />
    <glyph glyph-name="y" unicode="y" horiz-adv-x="572" 
d="M225 -262h-245v107h196q34 0 44.5 10.5t10.5 44.5v139l-218 461h146l135 -304l130 304h144l-213 -456v-176q0 -63 -33.5 -96.5t-96.5 -33.5zM592 -155v-107h-114v107h114z" />
    <glyph glyph-name="z" unicode="z" horiz-adv-x="509" 
d="M474 0h-435v100l258 285h-253v115h415v-100l-258 -285h273v-115zM529 -155v-107h-549v107h549z" />
    <glyph glyph-name="braceleft" unicode="{" horiz-adv-x="365" 
d="M161 361v-22q34 0 57 -21t23 -70v-328q0 -41 11.5 -58t48.5 -17h84v-107h-139q-67 0 -101 38.5t-34 116.5v322q0 37 -10 51t-40 14h-25v140h25q30 0 40 14t10 51v205q0 78 34 116.5t101 38.5h86v-105h-31q-37 0 -48.5 -17t-11.5 -58v-213q0 -49 -23 -70t-57 -21z" />
    <glyph glyph-name="bar" unicode="|" horiz-adv-x="291" 
d="M311 -262h-331v107h99v940h133v-940h99v-107z" />
    <glyph glyph-name="braceright" unicode="}" horiz-adv-x="365" 
d="M204 339v22q-34 0 -57 21t-23 70v213q0 41 -11.5 58t-48.5 17h-31v105h86q67 0 101 -38.5t34 -116.5v-205q0 -37 10 -51t40 -14h25v-140h-25q-30 0 -40 -14t-10 -51v-322q0 -78 -34 -116.5t-101 -38.5h-139v107h84q37 0 48.5 17t11.5 58v328q0 49 23 70t57 21z" />
    <glyph glyph-name="asciitilde" unicode="~" horiz-adv-x="503" 
d="M322 440q16 0 23 11.5t7 28.5h95v-26q0 -46 -26.5 -80t-83.5 -34q-19 0 -38.5 6t-41.5 18l-18 10q-12 7 -22.5 11.5t-22.5 4.5q-16 1 -23.5 -11t-7.5 -29h-95v26q0 46 32.5 80t79.5 34q28 0 44.5 -6.5t30.5 -13.5l18 -10q12 -6 24.5 -13t24.5 -7z" />
    <glyph glyph-name="exclamdown" unicode="&#xa1;" horiz-adv-x="267" 
d="M68 370v130h130v-130h-130zM67 -262v302l31 285h71l31 -285v-195h87v-107h-220z" />
    <glyph glyph-name="cent" unicode="&#xa2;" horiz-adv-x="542" 
d="M170 250q0 -34 10 -64t30 -51l44 257q-42 -13 -63 -53.5t-21 -88.5zM653 -155v-107h-259v107h259zM-20 -262v107h181l28 163q-72 28 -110.5 93t-38.5 149q0 53 15.5 99.5t45 81t73 55.5t99.5 24l19 110h103l-21 -123q55 -19 90 -64t41 -108h-129q-2 13 -8 25.5t-15 21.5
l-45 -268q28 4 46 24t22 47h129q-8 -85 -66.5 -135t-148.5 -50h-1l-43 -252h-266z" />
    <glyph glyph-name="sterling" unicode="&#xa3;" horiz-adv-x="593" 
d="M560 0h-516v115h43q32 0 46.5 15.5t16.5 46.5l6 87l-112 -27v110l121 29l8 114q7 101 62.5 155.5t159.5 54.5h115v-115h-118q-43 0 -63.5 -21t-24.5 -79l-6 -77l111 26v-110l-119 -28l-8 -99q-2 -26 -10.5 -46t-33.5 -36h322v-115zM613 -155v-107h-633v107h633z" />
    <glyph glyph-name="currency" unicode="&#xa4;" horiz-adv-x="741" 
d="M603 -5l-89 85q-31 -19 -68.5 -29.5t-77.5 -10.5t-76 10t-67 29l-87 -84l-90 90l87 83q-17 30 -27 64.5t-10 72.5q0 37 9 70t25 61l-84 84l90 90l86 -83q31 18 67.5 28t76.5 10t78 -10.5t69 -29.5l88 85l90 -90l-88 -88q16 -28 24.5 -60t8.5 -67q0 -37 -9.5 -71
t-25.5 -63l90 -86zM364 155h8q59 0 96 42t37 108q0 64 -37 104.5t-96 40.5h-8q-59 0 -96 -40.5t-37 -104.5q0 -66 37 -108t96 -42zM761 -155v-107h-781v107h781z" />
    <glyph glyph-name="yen" unicode="&#xa5;" horiz-adv-x="691" 
d="M412 0h-133v105l-133 -30v110l133 30v62l-163 -36v110l110 24l-199 325h143l179 -293l176 293h140l-161 -263l73 16v-110l-151 -33l-14 -23v-43l135 30v-110l-135 -30v-134zM711 -155v-107h-731v107h731z" />
    <glyph glyph-name="brokenbar" unicode="&#xa6;" horiz-adv-x="289" 
d="M78 415v370h133v-370h-133zM309 -262h-329v107h98v450h133v-450h98v-107z" />
    <glyph glyph-name="section" unicode="&#xa7;" horiz-adv-x="541" 
d="M288 -60h-209v105h205q27 0 39.5 11t12.5 30q0 16 -10 27t-35 20l-139 52q-58 22 -86 54.5t-27 82.5q1 37 24.5 70t66.5 55q-26 19 -39.5 47.5t-13.5 62.5q0 70 46 106.5t133 36.5h188v-105h-180q-26 0 -41.5 -10t-15.5 -30q0 -16 9.5 -27.5t33.5 -18.5l91 -30
q72 -24 117.5 -56t45.5 -96q0 -42 -25 -78t-68 -57q25 -20 41.5 -45.5t16.5 -62.5q0 -28 -10 -54t-31.5 -46t-56 -32t-83.5 -12zM231 276l88 -33q28 10 40 30t12 35q0 25 -19 39.5t-43 21.5l-87 28q-28 -12 -39 -31t-11 -36q0 -23 17.5 -34t41.5 -20zM561 -155v-107h-581
v107h581z" />
    <glyph glyph-name="dieresis" unicode="&#xa8;" horiz-adv-x="340" 
d="M210 565v130h120v-130h-120zM10 565v130h120v-130h-120z" />
    <glyph glyph-name="copyright" unicode="&#xa9;" horiz-adv-x="870" 
d="M435 -39q-80 0 -151 31t-124 84t-84 124t-31 151t31 151.5t84 124t124 83.5t151 31t151.5 -31t124 -83.5t83.5 -124t31 -151.5t-31 -151t-83.5 -124t-124 -84t-151.5 -31zM435 48q61 0 115.5 24t95 65t64 96.5t23.5 117.5t-23.5 117.5t-64 96.5t-95 65t-115.5 24
t-115.5 -24t-95 -65t-64 -96.5t-23.5 -117.5t23.5 -117.5t64 -96.5t95 -65t115.5 -24zM435 148q-46 0 -79.5 17.5t-54.5 46t-31 65t-10 74.5t10 74.5t31 65t54.5 46t79.5 17.5q87 0 127 -44.5t40 -104.5h-108q-4 28 -18 42.5t-39 14.5h-4q-31 0 -47.5 -25.5t-16.5 -85.5
t16.5 -85.5t47.5 -25.5h4q25 0 39.5 15.5t18.5 44.5h107q0 -61 -40 -106.5t-127 -45.5zM890 -155v-107h-910v107h910z" />
    <glyph glyph-name="ordfeminine" unicode="&#xaa;" horiz-adv-x="380" 
d="M143 506q0 -12 7.5 -18t20.5 -6h4q17 0 32 12.5t15 36.5v10l-55 -10q-10 -2 -17 -8.5t-7 -16.5zM231 415q-1 6 -2 15t-2 21q-16 -20 -37.5 -30.5t-49.5 -10.5q-40 0 -66.5 23.5t-26.5 63.5q0 43 32.5 62t75.5 24l65 8v9q0 15 -8.5 24t-23.5 9h-4q-13 0 -22 -4.5
t-12 -17.5h-93q2 42 35.5 68t95.5 26q57 0 92.5 -28t35.5 -71v-128q0 -13 1 -30.5t3 -32.5h-89zM400 -155v-107h-420v107h420z" />
    <glyph glyph-name="guillemotleft" unicode="&#xab;" horiz-adv-x="602" 
d="M327 70h-150l-145 215l145 215h150l-145 -215zM567 70h-150l-145 215l145 215h150l-145 -215zM622 -155v-107h-642v107h642z" />
    <glyph glyph-name="logicalnot" unicode="&#xac;" horiz-adv-x="617" 
d="M546 115h-133v135h-349v115h482v-250zM637 -155v-107h-657v107h657z" />
    <glyph glyph-name="registered" unicode="&#xae;" horiz-adv-x="870" 
d="M435 -39q-80 0 -151 31t-124 84t-84 124t-31 151t31 151.5t84 124t124 83.5t151 31t151.5 -31t124 -83.5t83.5 -124t31 -151.5t-31 -151t-83.5 -124t-124 -84t-151.5 -31zM435 48q61 0 115.5 24t95 65t64 96.5t23.5 117.5t-23.5 117.5t-64 96.5t-95 65t-115.5 24
t-115.5 -24t-95 -65t-64 -96.5t-23.5 -117.5t23.5 -117.5t64 -96.5t95 -65t115.5 -24zM392 378h63q22 0 32 10t10 29t-11 28.5t-33 9.5h-61v-77zM288 158v386h186q63 0 95 -30.5t32 -75.5t-23.5 -69.5t-57.5 -31.5q37 0 56.5 -13.5t19.5 -46.5v-119h-104v99q0 19 -7 27
t-28 8h-65v-134h-104zM890 -155v-107h-910v107h910z" />
    <glyph glyph-name="macron" unicode="&#xaf;" horiz-adv-x="325" 
d="M10 565v105h305v-105h-305z" />
    <glyph glyph-name="degree" unicode="&#xb0;" horiz-adv-x="448" 
d="M224 340q-78 0 -131.5 53.5t-53.5 131.5t53.5 131.5t131.5 53.5t131.5 -53.5t53.5 -131.5t-53.5 -131.5t-131.5 -53.5zM224 448q30 0 50.5 22t20.5 55q0 31 -20.5 51.5t-50.5 20.5t-50.5 -20.5t-20.5 -51.5q0 -33 20.5 -55t50.5 -22zM468 -155v-107h-488v107h488z" />
    <glyph glyph-name="plusminus" unicode="&#xb1;" horiz-adv-x="620" 
d="M557 275h-181v-105h-133v105h-180v115h180v110h133v-110h181v-115zM63 0v114h494v-114h-494zM640 -155v-107h-660v107h660z" />
    <glyph glyph-name="twosuperior" unicode="&#xb2;" horiz-adv-x="374" 
d="M334 415h-296v84l149 135q13 12 25.5 26t12.5 31q0 15 -10.5 25.5t-26.5 10.5h-4q-16 0 -28 -13t-13 -30h-107q4 60 48.5 95.5t107.5 35.5q33 0 59.5 -10.5t44.5 -27t27.5 -37.5t9.5 -42q0 -36 -17.5 -60t-40.5 -46l-95 -87h154v-90zM394 -155v-107h-414v107h414z" />
    <glyph glyph-name="threesuperior" unicode="&#xb3;" horiz-adv-x="378" 
d="M183 410q-60 0 -105.5 30t-45.5 87h108q1 -13 13.5 -21.5t28.5 -8.5h5q19 0 31.5 11t12.5 28t-12.5 26.5t-30.5 9.5h-37v84h37q18 0 29 10t11 26q0 15 -10 25.5t-28 10.5h-5q-15 0 -26 -8.5t-12 -19.5h-108q0 56 44.5 85.5t104.5 29.5q29 0 55.5 -7.5t47 -21.5t33 -35.5
t12.5 -48.5q0 -29 -13.5 -52t-41.5 -35q28 -13 43 -38t15 -55q0 -28 -13.5 -49t-35 -35t-50 -21t-57.5 -7zM398 -155v-107h-418v107h418z" />
    <glyph glyph-name="acute" unicode="&#xb4;" horiz-adv-x="195" 
d="M10 550l25 150h150l-100 -150h-75z" />
    <glyph glyph-name="paragraph" unicode="&#xb6;" horiz-adv-x="683" 
d="M-20 -262v107h261v429h-4q-43 1 -81 18t-66.5 45.5t-45 67.5t-16.5 82q0 44 17 83t45.5 67.5t67.5 45.5t83 17h395v-105h-70v-750h137v-107h-267v857h-65v-857h-391z" />
    <glyph glyph-name="periodcentered" unicode="&#xb7;" horiz-adv-x="269" 
d="M62 276v145h145v-145h-145zM289 -155v-107h-309v107h309z" />
    <glyph glyph-name="cedilla" unicode="&#xb8;" horiz-adv-x="240" 
d="M-20 -262v107h125q19 0 29.5 6t10.5 19q0 10 -8 17.5t-27 7.5h-55v125h70v-60q37 0 66 -24t29 -76q0 -60 -34 -91t-86 -31h-120z" />
    <glyph glyph-name="onesuperior" unicode="&#xb9;" horiz-adv-x="301" 
d="M244 415h-105v256l-109 -90v126l125 103h89v-395zM321 -155v-107h-341v107h341z" />
    <glyph glyph-name="ordmasculine" unicode="&#xba;" horiz-adv-x="392" 
d="M196 705q72 0 113 -43t41 -105t-41 -104.5t-113 -42.5t-113 42.5t-41 104.5t41 105t113 43zM198 625h-4q-23 0 -36.5 -18t-13.5 -50t13.5 -49.5t36.5 -17.5h4q23 0 36.5 17.5t13.5 49.5t-13.5 50t-36.5 18zM412 -155v-107h-432v107h432z" />
    <glyph glyph-name="guillemotright" unicode="&#xbb;" horiz-adv-x="602" 
d="M425 70h-150l145 215l-145 215h150l145 -215zM185 70h-150l145 215l-145 215h150l145 -215zM622 -155v-107h-642v107h642z" />
    <glyph glyph-name="onequarter" unicode="&#xbc;" horiz-adv-x="910" 
d="M246 305h-105v256l-109 -90v126l125 103h89v-395zM825 0h-97v62h-196v109l174 224h119v-249h53v-84h-53v-62zM728 283l-105 -137h105v137zM930 -155v-107h-598v107h598zM-20 -262v107h104l514 855h117l-578 -962h-157z" />
    <glyph glyph-name="onehalf" unicode="&#xbd;" horiz-adv-x="931" 
d="M246 305h-105v256l-109 -90v126l125 103h89v-395zM891 0h-296v84l149 135q13 12 25.5 26t12.5 31q0 15 -10.5 25.5t-26.5 10.5h-4q-16 0 -28 -13t-13 -30h-107q4 60 48.5 95.5t107.5 35.5q33 0 59.5 -10.5t44.5 -27t27.5 -37.5t9.5 -42q0 -36 -17.5 -60t-40.5 -46
l-95 -87h154v-90zM951 -155v-107h-619v107h619zM-20 -262v107h104l514 855h117l-578 -962h-157z" />
    <glyph glyph-name="threequarters" unicode="&#xbe;" horiz-adv-x="961" 
d="M185 300q-60 0 -105.5 30t-45.5 87h108q1 -13 13.5 -21.5t28.5 -8.5h5q19 0 31.5 11t12.5 28t-12.5 26.5t-30.5 9.5h-37v84h37q18 0 29 10t11 26q0 15 -10 25.5t-28 10.5h-5q-15 0 -26 -8.5t-12 -19.5h-108q0 56 44.5 85.5t104.5 29.5q29 0 55.5 -7.5t47 -21.5t33 -35.5
t12.5 -48.5q0 -29 -13.5 -52t-41.5 -35q28 -13 43 -38t15 -55q0 -28 -13.5 -49t-35 -35t-50 -21t-57.5 -7zM876 0h-97v62h-196v109l174 224h119v-249h53v-84h-53v-62zM779 283l-105 -137h105v137zM981 -155v-107h-599v107h599zM-20 -262v107h154l514 855h117l-578 -962h-207
z" />
    <glyph glyph-name="questiondown" unicode="&#xbf;" horiz-adv-x="485" 
d="M364 500v-130h-130v130h130zM237 309h123v-154q0 -37 -21 -58.5t-58 -21.5h-27q-41 0 -67 -24t-26 -86q0 -56 26 -88t67 -32h251v-107h-269q-90 0 -148.5 61.5t-58.5 165.5q0 43 12.5 82.5t35.5 68.5t57 46.5t77 17.5q15 0 20.5 5t5.5 20v104z" />
    <glyph glyph-name="Agrave" unicode="&#xc0;" horiz-adv-x="713" 
d="M371 890l40 -145h-90l-105 145h155zM455 285l-101 265l-101 -265h202zM2 0l277 700h158l270 -700h-143l-63 165h-294l-63 -165h-142zM743 -155v-107h-773v107h773z" />
    <glyph glyph-name="Aacute" unicode="&#xc1;" horiz-adv-x="713" 
d="M306 745l40 145h155l-105 -145h-90zM455 285l-101 265l-101 -265h202zM2 0l277 700h158l270 -700h-143l-63 165h-294l-63 -165h-142zM743 -155v-107h-773v107h773z" />
    <glyph glyph-name="Acircumflex" unicode="&#xc2;" horiz-adv-x="713" 
d="M274 745h-110l120 145h140l120 -145h-110l-80 58zM455 285l-101 265l-101 -265h202zM2 0l277 700h158l270 -700h-143l-63 165h-294l-63 -165h-142zM743 -155v-107h-773v107h773z" />
    <glyph glyph-name="Atilde" unicode="&#xc3;" horiz-adv-x="713" 
d="M419 850q16 0 23 11.5t7 28.5h95v-26q0 -46 -26.5 -80t-83.5 -34q-19 0 -38.5 6t-41.5 18l-18 10q-12 7 -22.5 11.5t-22.5 4.5q-16 1 -23.5 -11t-7.5 -29h-95v26q0 46 32.5 80t79.5 34q28 0 44.5 -6.5t30.5 -13.5l18 -10q12 -6 24.5 -13t24.5 -7zM455 285l-101 265
l-101 -265h202zM2 0l277 700h158l270 -700h-143l-63 165h-294l-63 -165h-142zM743 -155v-107h-773v107h773z" />
    <glyph glyph-name="Adieresis" unicode="&#xc4;" horiz-adv-x="713" 
d="M390 765v120h125v-120h-125zM195 765v120h125v-120h-125zM455 285l-101 265l-101 -265h202zM2 0l277 700h158l270 -700h-143l-63 165h-294l-63 -165h-142zM743 -155v-107h-773v107h773z" />
    <glyph glyph-name="Aring" unicode="&#xc5;" horiz-adv-x="713" 
d="M246 840q0 43 33.5 76.5t76.5 33.5q47 0 78.5 -33.5t31.5 -76.5q0 -47 -31.5 -78.5t-78.5 -31.5q-43 0 -76.5 31.5t-33.5 78.5zM356 880q-16 0 -28 -12t-12 -28t12 -28t28 -12t27.5 12t11.5 28t-11.5 28t-27.5 12zM455 285l-101 265l-101 -265h202zM2 0l277 700h158
l270 -700h-143l-63 165h-294l-63 -165h-142zM743 -155v-107h-773v107h773z" />
    <glyph glyph-name="AE" unicode="&#xc6;" horiz-adv-x="991" 
d="M472 285l-41 287l-145 -287h186zM513 0l-24 165h-264l-83 -165h-147l365 700h548v-120h-343l24 -161h289v-120h-274l26 -179h338v-120h-455zM1011 -155v-107h-1031v107h1031z" />
    <glyph glyph-name="Ccedilla" unicode="&#xc7;" horiz-adv-x="711" 
d="M491 -140q0 -60 -34 -91t-86 -31h-391v107h396q19 0 29.5 6t10.5 19q0 10 -8 17.5t-27 7.5h-55v98q-68 8 -121 37.5t-88.5 75.5t-54 108t-18.5 136q0 80 22 147t64.5 114t105.5 73t143 26q69 0 122.5 -19t90 -51.5t57 -76.5t24.5 -93h-135q-12 57 -51.5 88.5t-102.5 31.5
h-10q-86 0 -140.5 -64t-54.5 -176t54.5 -176t140.5 -64h10q63 0 102.5 31t51.5 89h135q-4 -50 -23 -93t-54 -74.5t-85 -51t-115 -21.5v-30q37 0 66 -24t29 -76zM731 -155v-107h-111v107h111z" />
    <glyph glyph-name="Egrave" unicode="&#xc8;" horiz-adv-x="661" 
d="M377 890l40 -145h-90l-105 145h155zM82 0v700h530v-120h-395v-161h335v-120h-335v-179h405v-120h-540zM681 -155v-107h-701v107h701z" />
    <glyph glyph-name="Eacute" unicode="&#xc9;" horiz-adv-x="661" 
d="M292 745l40 145h155l-105 -145h-90zM82 0v700h530v-120h-395v-161h335v-120h-335v-179h405v-120h-540zM681 -155v-107h-701v107h701z" />
    <glyph glyph-name="Ecircumflex" unicode="&#xca;" horiz-adv-x="661" 
d="M268 745h-110l120 145h140l120 -145h-110l-80 58zM82 0v700h530v-120h-395v-161h335v-120h-335v-179h405v-120h-540zM681 -155v-107h-701v107h701z" />
    <glyph glyph-name="Edieresis" unicode="&#xcb;" horiz-adv-x="661" 
d="M384 765v120h125v-120h-125zM189 765v120h125v-120h-125zM82 0v700h530v-120h-395v-161h335v-120h-335v-179h405v-120h-540zM681 -155v-107h-701v107h701z" />
    <glyph glyph-name="Igrave" unicode="&#xcc;" horiz-adv-x="299" 
d="M159 890l40 -145h-90l-105 145h155zM82 0v700h135v-700h-135zM319 -155v-107h-339v107h339z" />
    <glyph glyph-name="Iacute" unicode="&#xcd;" horiz-adv-x="299" 
d="M105 745l40 145h155l-105 -145h-90zM82 0v700h135v-700h-135zM319 -155v-107h-339v107h339z" />
    <glyph glyph-name="Icircumflex" unicode="&#xce;" horiz-adv-x="299" 
d="M70 745h-110l120 145h140l120 -145h-110l-80 58zM82 0v700h135v-700h-135zM360 -155v-107h-420v107h420z" />
    <glyph glyph-name="Idieresis" unicode="&#xcf;" horiz-adv-x="299" 
d="M185 765v120h125v-120h-125zM-10 765v120h125v-120h-125zM82 0v700h135v-700h-135zM330 -155v-107h-360v107h360z" />
    <glyph glyph-name="Eth" unicode="&#xd0;" horiz-adv-x="752" 
d="M358 0h-245v290h-100v120h100v290h240q78 0 144 -22.5t112.5 -66.5t72.5 -109.5t26 -151.5t-25.5 -151.5t-71 -109.5t-110.5 -66.5t-143 -22.5zM248 120h95q101 0 165.5 49.5t64.5 180.5t-64.5 180.5t-165.5 49.5h-95v-170h125v-120h-125v-170zM772 -155v-107h-792v107
h792z" />
    <glyph glyph-name="Ntilde" unicode="&#xd1;" horiz-adv-x="749" 
d="M451 850q16 0 23 11.5t7 28.5h95v-26q0 -46 -26.5 -80t-83.5 -34q-19 0 -38.5 6t-41.5 18l-18 10q-12 7 -22.5 11.5t-22.5 4.5q-16 1 -23.5 -11t-7.5 -29h-95v26q0 46 32.5 80t79.5 34q28 0 44.5 -6.5t30.5 -13.5l18 -10q12 -6 24.5 -13t24.5 -7zM492 0l-275 515v-515
h-135v700h175l275 -513v513h135v-700h-175zM769 -155v-107h-789v107h789z" />
    <glyph glyph-name="Ograve" unicode="&#xd2;" horiz-adv-x="766" 
d="M397 890l40 -145h-90l-105 145h155zM383 -10q-75 0 -137.5 24.5t-107.5 71t-70 113.5t-25 151t25 151t70 113.5t107.5 71t137.5 24.5t137.5 -24.5t107.5 -71t70 -113.5t25 -151t-25 -151t-70 -113.5t-107.5 -71t-137.5 -24.5zM378 110h10q93 0 146.5 64t53.5 176
t-53.5 176t-146.5 64h-10q-93 0 -146.5 -64t-53.5 -176t53.5 -176t146.5 -64zM786 -155v-107h-806v107h806z" />
    <glyph glyph-name="Oacute" unicode="&#xd3;" horiz-adv-x="766" 
d="M340 745l40 145h155l-105 -145h-90zM383 -10q-75 0 -137.5 24.5t-107.5 71t-70 113.5t-25 151t25 151t70 113.5t107.5 71t137.5 24.5t137.5 -24.5t107.5 -71t70 -113.5t25 -151t-25 -151t-70 -113.5t-107.5 -71t-137.5 -24.5zM378 110h10q93 0 146.5 64t53.5 176
t-53.5 176t-146.5 64h-10q-93 0 -146.5 -64t-53.5 -176t53.5 -176t146.5 -64zM786 -155v-107h-806v107h806z" />
    <glyph glyph-name="Ocircumflex" unicode="&#xd4;" horiz-adv-x="766" 
d="M303 745h-110l120 145h140l120 -145h-110l-80 58zM383 -10q-75 0 -137.5 24.5t-107.5 71t-70 113.5t-25 151t25 151t70 113.5t107.5 71t137.5 24.5t137.5 -24.5t107.5 -71t70 -113.5t25 -151t-25 -151t-70 -113.5t-107.5 -71t-137.5 -24.5zM378 110h10q93 0 146.5 64
t53.5 176t-53.5 176t-146.5 64h-10q-93 0 -146.5 -64t-53.5 -176t53.5 -176t146.5 -64zM786 -155v-107h-806v107h806z" />
    <glyph glyph-name="Otilde" unicode="&#xd5;" horiz-adv-x="766" 
d="M448 850q16 0 23 11.5t7 28.5h95v-26q0 -46 -26.5 -80t-83.5 -34q-19 0 -38.5 6t-41.5 18l-18 10q-12 7 -22.5 11.5t-22.5 4.5q-16 1 -23.5 -11t-7.5 -29h-95v26q0 46 32.5 80t79.5 34q28 0 44.5 -6.5t30.5 -13.5l18 -10q12 -6 24.5 -13t24.5 -7zM383 -10
q-75 0 -137.5 24.5t-107.5 71t-70 113.5t-25 151t25 151t70 113.5t107.5 71t137.5 24.5t137.5 -24.5t107.5 -71t70 -113.5t25 -151t-25 -151t-70 -113.5t-107.5 -71t-137.5 -24.5zM378 110h10q93 0 146.5 64t53.5 176t-53.5 176t-146.5 64h-10q-93 0 -146.5 -64t-53.5 -176
t53.5 -176t146.5 -64zM786 -155v-107h-806v107h806z" />
    <glyph glyph-name="Odieresis" unicode="&#xd6;" horiz-adv-x="766" 
d="M418 765v120h125v-120h-125zM223 765v120h125v-120h-125zM383 -10q-75 0 -137.5 24.5t-107.5 71t-70 113.5t-25 151t25 151t70 113.5t107.5 71t137.5 24.5t137.5 -24.5t107.5 -71t70 -113.5t25 -151t-25 -151t-70 -113.5t-107.5 -71t-137.5 -24.5zM378 110h10
q93 0 146.5 64t53.5 176t-53.5 176t-146.5 64h-10q-93 0 -146.5 -64t-53.5 -176t53.5 -176t146.5 -64zM786 -155v-107h-806v107h806z" />
    <glyph glyph-name="multiply" unicode="&#xd7;" horiz-adv-x="548" 
d="M418 31l-144 145l-145 -145l-81 82l144 144l-145 145l83 83l145 -145l144 144l81 -82l-143 -143l144 -145zM568 -155v-107h-588v107h588z" />
    <glyph glyph-name="Oslash" unicode="&#xd8;" horiz-adv-x="769" 
d="M179 350q0 -36 6 -67.5t16 -57.5l275 347q-19 9 -41 13.5t-46 4.5h-10q-93 0 -146.5 -64t-53.5 -176zM379 110h10q93 0 146.5 64t53.5 176q0 35 -6 66.5t-16 56.5l-273 -346q19 -8 40 -12.5t45 -4.5zM384 -10q-47 0 -89 9.5t-79 28.5l-61 -77l-105 82l64 82
q-33 44 -51.5 103.5t-18.5 131.5q0 84 25 151t70 113.5t107.5 71t137.5 24.5q47 0 90 -10t79 -29l62 78l105 -82l-65 -83q33 -44 51 -103.5t18 -130.5q0 -84 -25 -151t-70 -113.5t-107.5 -71t-137.5 -24.5zM789 -155v-107h-809v107h809z" />
    <glyph glyph-name="Ugrave" unicode="&#xd9;" horiz-adv-x="702" 
d="M364 890l40 -145h-90l-105 145h155zM351 -10q-142 0 -208.5 68t-66.5 187v455h135v-435q0 -82 34 -118.5t101 -36.5h10q67 0 101 36.5t34 118.5v435h135v-455q0 -119 -66.5 -187t-208.5 -68zM722 -155v-107h-742v107h742z" />
    <glyph glyph-name="Uacute" unicode="&#xda;" horiz-adv-x="702" 
d="M299 745l40 145h155l-105 -145h-90zM351 -10q-142 0 -208.5 68t-66.5 187v455h135v-435q0 -82 34 -118.5t101 -36.5h10q67 0 101 36.5t34 118.5v435h135v-455q0 -119 -66.5 -187t-208.5 -68zM722 -155v-107h-742v107h742z" />
    <glyph glyph-name="Ucircumflex" unicode="&#xdb;" horiz-adv-x="702" 
d="M271 745h-110l120 145h140l120 -145h-110l-80 58zM351 -10q-142 0 -208.5 68t-66.5 187v455h135v-435q0 -82 34 -118.5t101 -36.5h10q67 0 101 36.5t34 118.5v435h135v-455q0 -119 -66.5 -187t-208.5 -68zM722 -155v-107h-742v107h742z" />
    <glyph glyph-name="Udieresis" unicode="&#xdc;" horiz-adv-x="702" 
d="M386 765v120h125v-120h-125zM191 765v120h125v-120h-125zM351 -10q-142 0 -208.5 68t-66.5 187v455h135v-435q0 -82 34 -118.5t101 -36.5h10q67 0 101 36.5t34 118.5v435h135v-455q0 -119 -66.5 -187t-208.5 -68zM722 -155v-107h-742v107h742z" />
    <glyph glyph-name="Yacute" unicode="&#xdd;" horiz-adv-x="663" 
d="M280 745l40 145h155l-105 -145h-90zM399 0h-135v280l-260 420h153l179 -294l176 294h148l-261 -420v-280zM683 -155v-107h-703v107h703z" />
    <glyph glyph-name="Thorn" unicode="&#xde;" horiz-adv-x="652" 
d="M82 0v700h135v-125h175q101 0 165.5 -59t64.5 -166t-64.5 -166t-165.5 -59h-175v-125h-135zM217 245h165q52 0 78.5 29.5t26.5 75.5q0 47 -26.5 76t-78.5 29h-165v-210zM672 -155v-107h-692v107h692z" />
    <glyph glyph-name="germandbls" unicode="&#xdf;" horiz-adv-x="554" 
d="M574 -155v-107h-247v107h247zM-20 -262v107h87v658q0 93 57.5 150t158.5 57q47 0 85.5 -14t66 -38.5t42.5 -57.5t15 -70q0 -63 -33 -102.5t-83 -59.5q56 -10 98.5 -56.5t42.5 -113.5q0 -47 -17.5 -84t-47.5 -62t-71.5 -38.5t-90.5 -13.5h-48v105h18q60 0 93.5 28t33.5 80
t-37.5 75.5t-89.5 23.5h-18v105h18q41 0 74 24.5t33 73.5q0 45 -23.5 67.5t-57.5 22.5h-6q-34 0 -58.5 -25.5t-24.5 -81.5v-760h-217z" />
    <glyph glyph-name="agrave" unicode="&#xe0;" horiz-adv-x="534" 
d="M283 700l25 -150h-75l-100 150h150zM227 95h5q45 0 79 30t34 79v14l-108 -11q-25 -2 -49 -16t-24 -45q0 -23 18 -37t45 -14zM348 61q-22 -32 -60.5 -51.5t-87.5 -19.5q-67 0 -115.5 40t-48.5 107q0 40 14.5 70t39.5 50t58.5 31t70.5 14l126 11v12q0 34 -22 57t-59 23h-6
q-37 0 -58.5 -19t-23.5 -41h-130q7 70 64.5 117.5t150.5 47.5t151.5 -46.5t58.5 -133.5v-220q0 -22 0.5 -53t4.5 -57h-122q-2 11 -3.5 27.5t-2.5 33.5zM554 -155v-107h-574v107h574z" />
    <glyph glyph-name="aacute" unicode="&#xe1;" horiz-adv-x="534" 
d="M218 550l25 150h150l-100 -150h-75zM227 95h5q45 0 79 30t34 79v14l-108 -11q-25 -2 -49 -16t-24 -45q0 -23 18 -37t45 -14zM348 61q-22 -32 -60.5 -51.5t-87.5 -19.5q-67 0 -115.5 40t-48.5 107q0 40 14.5 70t39.5 50t58.5 31t70.5 14l126 11v12q0 34 -22 57t-59 23h-6
q-37 0 -58.5 -19t-23.5 -41h-130q7 70 64.5 117.5t150.5 47.5t151.5 -46.5t58.5 -133.5v-220q0 -22 0.5 -53t4.5 -57h-122q-2 11 -3.5 27.5t-2.5 33.5zM554 -155v-107h-574v107h574z" />
    <glyph glyph-name="acircumflex" unicode="&#xe2;" horiz-adv-x="534" 
d="M361 550l-100 72l-100 -72h-80l100 150h160l100 -150h-80zM227 95h5q45 0 79 30t34 79v14l-108 -11q-25 -2 -49 -16t-24 -45q0 -23 18 -37t45 -14zM348 61q-22 -32 -60.5 -51.5t-87.5 -19.5q-67 0 -115.5 40t-48.5 107q0 40 14.5 70t39.5 50t58.5 31t70.5 14l126 11v12
q0 34 -22 57t-59 23h-6q-37 0 -58.5 -19t-23.5 -41h-130q7 70 64.5 117.5t150.5 47.5t151.5 -46.5t58.5 -133.5v-220q0 -22 0.5 -53t4.5 -57h-122q-2 11 -3.5 27.5t-2.5 33.5zM554 -155v-107h-574v107h574z" />
    <glyph glyph-name="atilde" unicode="&#xe3;" horiz-adv-x="534" 
d="M333 655q13 0 21.5 11.5t8.5 28.5h95v-26q0 -46 -33 -80t-77 -34q-19 0 -38.5 6t-41.5 18l-18 10q-12 7 -21 11.5t-21 4.5q-13 0 -23.5 -11.5t-10.5 -28.5h-95v26q0 46 32.5 80t79.5 34q28 0 44.5 -6.5t30.5 -13.5l18 -10q12 -6 24.5 -13t24.5 -7zM227 95h5q45 0 79 30
t34 79v14l-108 -11q-25 -2 -49 -16t-24 -45q0 -23 18 -37t45 -14zM348 61q-22 -32 -60.5 -51.5t-87.5 -19.5q-67 0 -115.5 40t-48.5 107q0 40 14.5 70t39.5 50t58.5 31t70.5 14l126 11v12q0 34 -22 57t-59 23h-6q-37 0 -58.5 -19t-23.5 -41h-130q7 70 64.5 117.5t150.5 47.5
t151.5 -46.5t58.5 -133.5v-220q0 -22 0.5 -53t4.5 -57h-122q-2 11 -3.5 27.5t-2.5 33.5zM554 -155v-107h-574v107h574z" />
    <glyph glyph-name="adieresis" unicode="&#xe4;" horiz-adv-x="534" 
d="M300 565v130h120v-130h-120zM100 565v130h120v-130h-120zM227 95h5q45 0 79 30t34 79v14l-108 -11q-25 -2 -49 -16t-24 -45q0 -23 18 -37t45 -14zM348 61q-22 -32 -60.5 -51.5t-87.5 -19.5q-67 0 -115.5 40t-48.5 107q0 40 14.5 70t39.5 50t58.5 31t70.5 14l126 11v12
q0 34 -22 57t-59 23h-6q-37 0 -58.5 -19t-23.5 -41h-130q7 70 64.5 117.5t150.5 47.5t151.5 -46.5t58.5 -133.5v-220q0 -22 0.5 -53t4.5 -57h-122q-2 11 -3.5 27.5t-2.5 33.5zM554 -155v-107h-574v107h574z" />
    <glyph glyph-name="aring" unicode="&#xe5;" horiz-adv-x="534" 
d="M163 645q0 41 32 73t73 32q45 0 75 -32t30 -73q0 -45 -30 -75t-75 -30q-41 0 -73 30t-32 75zM268 689q-18 0 -31 -13t-13 -31t13 -31t31 -13t30.5 13t12.5 31t-12.5 31t-30.5 13zM227 95h5q45 0 79 30t34 79v14l-108 -11q-25 -2 -49 -16t-24 -45q0 -23 18 -37t45 -14z
M348 61q-22 -32 -60.5 -51.5t-87.5 -19.5q-67 0 -115.5 40t-48.5 107q0 40 14.5 70t39.5 50t58.5 31t70.5 14l126 11v12q0 34 -22 57t-59 23h-6q-37 0 -58.5 -19t-23.5 -41h-130q7 70 64.5 117.5t150.5 47.5t151.5 -46.5t58.5 -133.5v-220q0 -22 0.5 -53t4.5 -57h-122
q-2 11 -3.5 27.5t-2.5 33.5zM554 -155v-107h-574v107h574z" />
    <glyph glyph-name="ae" unicode="&#xe6;" horiz-adv-x="846" 
d="M582 -10q-55 0 -105 24.5t-84 70.5q-24 -40 -73.5 -67.5t-109.5 -27.5q-75 0 -124.5 40t-49.5 107q0 40 14.5 70t39.5 50t58.5 31t70.5 14l126 11v12q0 34 -22 57t-59 23h-6q-37 0 -58.5 -19t-23.5 -41h-130q7 70 64.5 117.5t150.5 47.5q51 0 93 -14t70 -42
q30 26 69.5 41t88.5 15q56 0 99 -19.5t71.5 -53t43 -80.5t14.5 -101q0 -11 -0.5 -23t-1.5 -24h-337v-9q7 -48 40.5 -76.5t72.5 -28.5h6q37 0 59.5 19t29.5 44h129q-18 -73 -75.5 -120.5t-150.5 -47.5zM574 405q-39 0 -68 -23t-35 -63v-10h213q-2 45 -32.5 70.5t-71.5 25.5
h-6zM227 95h5q45 0 79 30t34 79v14l-108 -11q-25 -2 -49 -16t-24 -45q0 -23 18 -37t45 -14zM897 -155v-107h-917v107h917z" />
    <glyph glyph-name="ccedilla" unicode="&#xe7;" horiz-adv-x="539" 
d="M407 -140q0 -60 -34 -91t-86 -31h-307v107h312q19 0 29.5 6t10.5 19q0 10 -8 17.5t-27 7.5h-55v98q-87 12 -145 80.5t-58 176.5q0 60 18.5 108t51 82t76.5 52t94 18q97 0 157.5 -46t67.5 -139h-130q-6 37 -28.5 58.5t-63.5 21.5h-6q-56 0 -81.5 -46t-25.5 -109t25.5 -109
t81.5 -46h6q41 0 63.5 21.5t28.5 58.5h130q-7 -85 -58 -131t-134 -53v-31q37 0 66 -24t29 -76z" />
    <glyph glyph-name="egrave" unicode="&#xe8;" horiz-adv-x="541" 
d="M290 700l25 -150h-75l-100 150h150zM503 158q-18 -73 -75.5 -120.5t-150.5 -47.5q-47 0 -90 17.5t-76 50.5t-52.5 81.5t-19.5 110.5q0 56 16 104t46.5 82.5t75 54t100.5 19.5t99 -19.5t71.5 -53t43 -80.5t14.5 -101q0 -11 -0.5 -23t-1.5 -24h-338q4 -51 38.5 -82.5
t75.5 -31.5h6q37 0 59.5 19t29.5 44h129zM165 309h214q-2 45 -32.5 70.5t-71.5 25.5h-6q-41 0 -71.5 -25.5t-32.5 -70.5zM561 -155v-107h-581v107h581z" />
    <glyph glyph-name="eacute" unicode="&#xe9;" horiz-adv-x="541" 
d="M227 550l25 150h150l-100 -150h-75zM503 158q-18 -73 -75.5 -120.5t-150.5 -47.5q-47 0 -90 17.5t-76 50.5t-52.5 81.5t-19.5 110.5q0 56 16 104t46.5 82.5t75 54t100.5 19.5t99 -19.5t71.5 -53t43 -80.5t14.5 -101q0 -11 -0.5 -23t-1.5 -24h-338q4 -51 38.5 -82.5
t75.5 -31.5h6q37 0 59.5 19t29.5 44h129zM165 309h214q-2 45 -32.5 70.5t-71.5 25.5h-6q-41 0 -71.5 -25.5t-32.5 -70.5zM561 -155v-107h-581v107h581z" />
    <glyph glyph-name="ecircumflex" unicode="&#xea;" horiz-adv-x="541" 
d="M373 550l-100 72l-100 -72h-80l100 150h160l100 -150h-80zM503 158q-18 -73 -75.5 -120.5t-150.5 -47.5q-47 0 -90 17.5t-76 50.5t-52.5 81.5t-19.5 110.5q0 56 16 104t46.5 82.5t75 54t100.5 19.5t99 -19.5t71.5 -53t43 -80.5t14.5 -101q0 -11 -0.5 -23t-1.5 -24h-338
q4 -51 38.5 -82.5t75.5 -31.5h6q37 0 59.5 19t29.5 44h129zM165 309h214q-2 45 -32.5 70.5t-71.5 25.5h-6q-41 0 -71.5 -25.5t-32.5 -70.5zM561 -155v-107h-581v107h581z" />
    <glyph glyph-name="edieresis" unicode="&#xeb;" horiz-adv-x="541" 
d="M308 565v130h120v-130h-120zM108 565v130h120v-130h-120zM503 158q-18 -73 -75.5 -120.5t-150.5 -47.5q-47 0 -90 17.5t-76 50.5t-52.5 81.5t-19.5 110.5q0 56 16 104t46.5 82.5t75 54t100.5 19.5t99 -19.5t71.5 -53t43 -80.5t14.5 -101q0 -11 -0.5 -23t-1.5 -24h-338
q4 -51 38.5 -82.5t75.5 -31.5h6q37 0 59.5 19t29.5 44h129zM165 309h214q-2 45 -32.5 70.5t-71.5 25.5h-6q-41 0 -71.5 -25.5t-32.5 -70.5zM561 -155v-107h-581v107h581z" />
    <glyph glyph-name="igrave" unicode="&#xec;" horiz-adv-x="264" 
d="M147 700l25 -150h-75l-100 150h150zM67 0v500h130v-500h-130zM284 -155v-107h-304v107h304z" />
    <glyph glyph-name="iacute" unicode="&#xed;" horiz-adv-x="264" 
d="M92 550l25 150h150l-100 -150h-75zM67 0v500h130v-500h-130zM284 -155v-107h-304v107h304z" />
    <glyph glyph-name="icircumflex" unicode="&#xee;" horiz-adv-x="264" 
d="M229 550l-100 72l-100 -72h-80l100 150h160l100 -150h-80zM67 0v500h130v-500h-130zM329 -155v-107h-400v107h400z" />
    <glyph glyph-name="idieresis" unicode="&#xef;" horiz-adv-x="264" 
d="M172 565v130h120v-130h-120zM-28 565v130h120v-130h-120zM67 0v500h130v-500h-130zM312 -155v-107h-360v107h360z" />
    <glyph glyph-name="eth" unicode="&#xf0;" horiz-adv-x="580" 
d="M283 -10q-56 0 -101.5 19t-77 52.5t-49 80t-17.5 99.5q0 49 16 91.5t45.5 74t72.5 50t96 18.5q31 0 62 -11t61 -34q-5 31 -16.5 55.5t-28.5 43.5l-64 -43l-56 79l25 17q-17 4 -36 6t-40 2v110q59 0 106 -9t85 -31l76 51l56 -79l-56 -38q46 -56 68.5 -134.5t22.5 -167.5
q0 -60 -15.5 -115.5t-46.5 -96.5t-78 -65.5t-110 -24.5zM281 95h8q57 0 88 43t31 102q0 53 -32 91.5t-89 38.5h-8q-54 0 -82.5 -38.5t-28.5 -90.5q0 -60 28.5 -103t84.5 -43zM600 -155v-107h-620v107h620z" />
    <glyph glyph-name="ntilde" unicode="&#xf1;" horiz-adv-x="584" 
d="M360 655q13 0 21.5 11.5t8.5 28.5h95v-26q0 -46 -33 -80t-77 -34q-19 0 -38.5 6t-41.5 18l-18 10q-12 7 -21 11.5t-21 4.5q-13 0 -23.5 -11.5t-10.5 -28.5h-95v26q0 46 32.5 80t79.5 34q28 0 44.5 -6.5t30.5 -13.5l18 -10q12 -6 24.5 -13t24.5 -7zM197 278v-278h-130v500
h130v-73q22 37 62 60t89 23q90 0 132 -54t42 -136v-320h-130v305q0 49 -21 74.5t-58 25.5h-8q-45 0 -76.5 -37.5t-31.5 -89.5zM604 -155v-107h-624v107h624z" />
    <glyph glyph-name="ograve" unicode="&#xf2;" horiz-adv-x="576" 
d="M310 700l25 -150h-75l-100 150h150zM288 -10q-56 0 -102.5 19.5t-79 54t-50.5 82.5t-18 104t18 104t50.5 82.5t79 54t102.5 19.5t102.5 -19.5t79 -54t50.5 -82.5t18 -104t-18 -104t-50.5 -82.5t-79 -54t-102.5 -19.5zM292 95q52 0 83.5 41t31.5 114t-31.5 114t-83.5 41
h-8q-52 0 -83.5 -41t-31.5 -114t31.5 -114t83.5 -41h8zM596 -155v-107h-616v107h616z" />
    <glyph glyph-name="oacute" unicode="&#xf3;" horiz-adv-x="576" 
d="M242 550l25 150h150l-100 -150h-75zM288 -10q-56 0 -102.5 19.5t-79 54t-50.5 82.5t-18 104t18 104t50.5 82.5t79 54t102.5 19.5t102.5 -19.5t79 -54t50.5 -82.5t18 -104t-18 -104t-50.5 -82.5t-79 -54t-102.5 -19.5zM292 95q52 0 83.5 41t31.5 114t-31.5 114t-83.5 41
h-8q-52 0 -83.5 -41t-31.5 -114t31.5 -114t83.5 -41h8zM596 -155v-107h-616v107h616z" />
    <glyph glyph-name="ocircumflex" unicode="&#xf4;" horiz-adv-x="576" 
d="M388 550l-100 72l-100 -72h-80l100 150h160l100 -150h-80zM288 -10q-56 0 -102.5 19.5t-79 54t-50.5 82.5t-18 104t18 104t50.5 82.5t79 54t102.5 19.5t102.5 -19.5t79 -54t50.5 -82.5t18 -104t-18 -104t-50.5 -82.5t-79 -54t-102.5 -19.5zM292 95q52 0 83.5 41t31.5 114
t-31.5 114t-83.5 41h-8q-52 0 -83.5 -41t-31.5 -114t31.5 -114t83.5 -41h8zM596 -155v-107h-616v107h616z" />
    <glyph glyph-name="otilde" unicode="&#xf5;" horiz-adv-x="576" 
d="M357 655q13 0 21.5 11.5t8.5 28.5h95v-26q0 -46 -33 -80t-77 -34q-19 0 -38.5 6t-41.5 18l-18 10q-12 7 -21 11.5t-21 4.5q-13 0 -23.5 -11.5t-10.5 -28.5h-95v26q0 46 32.5 80t79.5 34q28 0 44.5 -6.5t30.5 -13.5l18 -10q12 -6 24.5 -13t24.5 -7zM288 -10
q-56 0 -102.5 19.5t-79 54t-50.5 82.5t-18 104t18 104t50.5 82.5t79 54t102.5 19.5t102.5 -19.5t79 -54t50.5 -82.5t18 -104t-18 -104t-50.5 -82.5t-79 -54t-102.5 -19.5zM292 95q52 0 83.5 41t31.5 114t-31.5 114t-83.5 41h-8q-52 0 -83.5 -41t-31.5 -114t31.5 -114
t83.5 -41h8zM596 -155v-107h-616v107h616z" />
    <glyph glyph-name="odieresis" unicode="&#xf6;" horiz-adv-x="576" 
d="M328 565v130h120v-130h-120zM128 565v130h120v-130h-120zM288 -10q-56 0 -102.5 19.5t-79 54t-50.5 82.5t-18 104t18 104t50.5 82.5t79 54t102.5 19.5t102.5 -19.5t79 -54t50.5 -82.5t18 -104t-18 -104t-50.5 -82.5t-79 -54t-102.5 -19.5zM292 95q52 0 83.5 41t31.5 114
t-31.5 114t-83.5 41h-8q-52 0 -83.5 -41t-31.5 -114t31.5 -114t83.5 -41h8zM596 -155v-107h-616v107h616z" />
    <glyph glyph-name="divide" unicode="&#xf7;" horiz-adv-x="592" 
d="M226 360v135h140v-135h-140zM49 200v115h494v-115h-494zM226 20v135h140v-135h-140zM612 -155v-107h-632v107h632z" />
    <glyph glyph-name="oslash" unicode="&#xf8;" horiz-adv-x="578" 
d="M170 250q0 -16 1.5 -30t4.5 -27l157 205q-9 4 -19 5.5t-21 1.5h-8q-52 0 -83.5 -41t-31.5 -114zM285 95h8q52 0 83.5 41t31.5 114q0 16 -1.5 30t-4.5 26l-157 -204q9 -4 19.5 -5.5t20.5 -1.5zM289 -10q-31 0 -59 6t-53 18l-50 -65l-84 70l49 64q-25 33 -39 75.5t-14 91.5
q0 56 18 104t50.5 82.5t79 54t102.5 19.5q31 0 59 -6t53 -18l48 63l89 -66l-51 -66q25 -34 38.5 -76t13.5 -91q0 -56 -18 -104t-50.5 -82.5t-79 -54t-102.5 -19.5zM598 -155v-107h-618v107h618z" />
    <glyph glyph-name="ugrave" unicode="&#xf9;" horiz-adv-x="575" 
d="M301 700l25 -150h-75l-100 150h150zM508 500v-500h-130v73q-22 -37 -60.5 -60t-85.5 -23q-87 0 -128 54t-41 136v320h130v-305q0 -49 19.5 -74.5t54.5 -25.5h8q43 0 73 37.5t30 89.5v278h130zM595 -155v-107h-615v107h615z" />
    <glyph glyph-name="uacute" unicode="&#xfa;" horiz-adv-x="575" 
d="M243 550l25 150h150l-100 -150h-75zM508 500v-500h-130v73q-22 -37 -60.5 -60t-85.5 -23q-87 0 -128 54t-41 136v320h130v-305q0 -49 19.5 -74.5t54.5 -25.5h8q43 0 73 37.5t30 89.5v278h130zM595 -155v-107h-615v107h615z" />
    <glyph glyph-name="ucircumflex" unicode="&#xfb;" horiz-adv-x="575" 
d="M384 550l-100 72l-100 -72h-80l100 150h160l100 -150h-80zM508 500v-500h-130v73q-22 -37 -60.5 -60t-85.5 -23q-87 0 -128 54t-41 136v320h130v-305q0 -49 19.5 -74.5t54.5 -25.5h8q43 0 73 37.5t30 89.5v278h130zM595 -155v-107h-615v107h615z" />
    <glyph glyph-name="udieresis" unicode="&#xfc;" horiz-adv-x="575" 
d="M324 565v130h120v-130h-120zM124 565v130h120v-130h-120zM508 500v-500h-130v73q-22 -37 -60.5 -60t-85.5 -23q-87 0 -128 54t-41 136v320h130v-305q0 -49 19.5 -74.5t54.5 -25.5h8q43 0 73 37.5t30 89.5v278h130zM595 -155v-107h-615v107h615z" />
    <glyph glyph-name="yacute" unicode="&#xfd;" horiz-adv-x="572" 
d="M242 550l25 150h150l-100 -150h-75zM225 -262h-245v107h196q34 0 44.5 10.5t10.5 44.5v139l-218 461h146l135 -304l130 304h144l-213 -456v-176q0 -63 -33.5 -96.5t-96.5 -33.5zM592 -155v-107h-114v107h114z" />
    <glyph glyph-name="thorn" unicode="&#xfe;" horiz-adv-x="601" 
d="M311 405q-45 0 -79.5 -42t-34.5 -113t34.5 -113t79.5 -42h8q49 0 81.5 41.5t32.5 112.5t-32.5 113.5t-81.5 42.5h-8zM621 -155v-107h-294v107h294zM-20 -262v107h87v855h130v-265q15 26 53.5 50.5t90.5 24.5q54 0 95.5 -21.5t69.5 -57.5t42.5 -83.5t14.5 -97.5
t-14.5 -97.5t-42.5 -83.5t-69.5 -57.5t-95.5 -21.5q-52 0 -90.5 24.5t-53.5 50.5v-327h-217z" />
    <glyph glyph-name="ydieresis" unicode="&#xff;" horiz-adv-x="572" 
d="M326 565v130h120v-130h-120zM126 565v130h120v-130h-120zM225 -262h-245v107h196q34 0 44.5 10.5t10.5 44.5v139l-218 461h146l135 -304l130 304h144l-213 -456v-176q0 -63 -33.5 -96.5t-96.5 -33.5zM592 -155v-107h-114v107h114z" />
    <glyph glyph-name="Amacron" unicode="&#x100;" horiz-adv-x="713" 
d="M187 765v110h335v-110h-335zM455 285l-101 265l-101 -265h202zM2 0l277 700h158l270 -700h-143l-63 165h-294l-63 -165h-142zM743 -155v-107h-773v107h773z" />
    <glyph glyph-name="amacron" unicode="&#x101;" horiz-adv-x="534" 
d="M109 565v105h305v-105h-305zM227 95h5q45 0 79 30t34 79v14l-108 -11q-25 -2 -49 -16t-24 -45q0 -23 18 -37t45 -14zM348 61q-22 -32 -60.5 -51.5t-87.5 -19.5q-67 0 -115.5 40t-48.5 107q0 40 14.5 70t39.5 50t58.5 31t70.5 14l126 11v12q0 34 -22 57t-59 23h-6
q-37 0 -58.5 -19t-23.5 -41h-130q7 70 64.5 117.5t150.5 47.5t151.5 -46.5t58.5 -133.5v-220q0 -22 0.5 -53t4.5 -57h-122q-2 11 -3.5 27.5t-2.5 33.5zM554 -155v-107h-574v107h574z" />
    <glyph glyph-name="Abreve" unicode="&#x102;" horiz-adv-x="713" 
d="M354 835q22 0 39.5 13.5t20.5 41.5h110q-1 -68 -49 -109t-121 -41t-121 41t-49 109h110q3 -28 20.5 -41.5t39.5 -13.5zM455 285l-101 265l-101 -265h202zM2 0l277 700h158l270 -700h-143l-63 165h-294l-63 -165h-142zM743 -155v-107h-773v107h773z" />
    <glyph glyph-name="abreve" unicode="&#x103;" horiz-adv-x="534" 
d="M258 540q-73 0 -121 44t-49 116h110q1 -29 16.5 -47t43.5 -18t43.5 18t16.5 47h110q-1 -72 -49 -116t-121 -44zM227 95h5q45 0 79 30t34 79v14l-108 -11q-25 -2 -49 -16t-24 -45q0 -23 18 -37t45 -14zM348 61q-22 -32 -60.5 -51.5t-87.5 -19.5q-67 0 -115.5 40t-48.5 107
q0 40 14.5 70t39.5 50t58.5 31t70.5 14l126 11v12q0 34 -22 57t-59 23h-6q-37 0 -58.5 -19t-23.5 -41h-130q7 70 64.5 117.5t150.5 47.5t151.5 -46.5t58.5 -133.5v-220q0 -22 0.5 -53t4.5 -57h-122q-2 11 -3.5 27.5t-2.5 33.5zM554 -155v-107h-574v107h574z" />
    <glyph glyph-name="Aogonek" unicode="&#x104;" horiz-adv-x="713" 
d="M455 285l-101 265l-101 -265h202zM747 -155v-107h-90q-52 0 -86 36.5t-34 90.5q0 49 24 82.5t53 52.5h-50l-63 165h-294l-63 -165h-142l277 700h158l270 -700q-25 -15 -52.5 -42.5t-27.5 -62.5q0 -26 15.5 -38t34.5 -12h70zM408 -155v-107h-438v107h438z" />
    <glyph glyph-name="aogonek" unicode="&#x105;" horiz-adv-x="534" 
d="M227 95h5q45 0 79 30t34 79v14l-108 -11q-25 -2 -49 -16t-24 -45q0 -23 18 -37t45 -14zM554 -155v-107h-128q-52 0 -86 36.5t-34 90.5q0 49 24 82.5t53 52.5h-29q-2 11 -3.5 27.5t-2.5 33.5q-22 -32 -60.5 -51.5t-87.5 -19.5q-67 0 -115.5 40t-48.5 107q0 40 14.5 70
t39.5 50t58.5 31t70.5 14l126 11v12q0 34 -22 57t-59 23h-6q-37 0 -58.5 -19t-23.5 -41h-130q7 70 64.5 117.5t150.5 47.5t151.5 -46.5t58.5 -133.5v-220q0 -22 0.5 -53t4.5 -57q-25 -15 -52.5 -42.5t-27.5 -62.5q0 -26 15.5 -38t34.5 -12h108zM177 -155v-107h-197v107h197z
" />
    <glyph glyph-name="Cacute" unicode="&#x106;" horiz-adv-x="711" 
d="M336 745l40 145h155l-105 -145h-90zM538 230h135q-4 -51 -24.5 -95t-57 -76t-90 -50.5t-122.5 -18.5q-80 0 -143 26t-105.5 73t-64.5 114t-22 147t22 147t64.5 114t105.5 73t143 26q69 0 122.5 -19t90 -51.5t57 -76.5t24.5 -93h-135q-12 57 -51.5 88.5t-102.5 31.5h-10
q-86 0 -140.5 -64t-54.5 -176t54.5 -176t140.5 -64h10q63 0 102.5 31t51.5 89zM731 -155v-107h-751v107h751z" />
    <glyph glyph-name="cacute" unicode="&#x107;" horiz-adv-x="539" 
d="M240 550l25 150h150l-100 -150h-75zM374 175h130q-7 -93 -67.5 -139t-157.5 -46q-50 0 -94 18t-76.5 52t-51 82t-18.5 108t18.5 108t51 82t76.5 52t94 18q97 0 157.5 -46t67.5 -139h-130q-6 37 -28.5 58.5t-63.5 21.5h-6q-56 0 -81.5 -46t-25.5 -109t25.5 -109t81.5 -46
h6q41 0 63.5 21.5t28.5 58.5zM559 -155v-107h-579v107h579z" />
    <glyph glyph-name="Ccircumflex" unicode="&#x108;" horiz-adv-x="711" 
d="M303 745h-110l120 145h140l120 -145h-110l-80 58zM538 230h135q-4 -51 -24.5 -95t-57 -76t-90 -50.5t-122.5 -18.5q-80 0 -143 26t-105.5 73t-64.5 114t-22 147t22 147t64.5 114t105.5 73t143 26q69 0 122.5 -19t90 -51.5t57 -76.5t24.5 -93h-135q-12 57 -51.5 88.5
t-102.5 31.5h-10q-86 0 -140.5 -64t-54.5 -176t54.5 -176t140.5 -64h10q63 0 102.5 31t51.5 89zM731 -155v-107h-751v107h751z" />
    <glyph glyph-name="ccircumflex" unicode="&#x109;" horiz-adv-x="539" 
d="M382 550l-100 72l-100 -72h-80l100 150h160l100 -150h-80zM374 175h130q-7 -93 -67.5 -139t-157.5 -46q-50 0 -94 18t-76.5 52t-51 82t-18.5 108t18.5 108t51 82t76.5 52t94 18q97 0 157.5 -46t67.5 -139h-130q-6 37 -28.5 58.5t-63.5 21.5h-6q-56 0 -81.5 -46
t-25.5 -109t25.5 -109t81.5 -46h6q41 0 63.5 21.5t28.5 58.5zM559 -155v-107h-579v107h579z" />
    <glyph glyph-name="Cdotaccent" unicode="&#x10a;" horiz-adv-x="711" 
d="M323 765v135h140v-135h-140zM538 230h135q-4 -51 -24.5 -95t-57 -76t-90 -50.5t-122.5 -18.5q-80 0 -143 26t-105.5 73t-64.5 114t-22 147t22 147t64.5 114t105.5 73t143 26q69 0 122.5 -19t90 -51.5t57 -76.5t24.5 -93h-135q-12 57 -51.5 88.5t-102.5 31.5h-10
q-86 0 -140.5 -64t-54.5 -176t54.5 -176t140.5 -64h10q63 0 102.5 31t51.5 89zM731 -155v-107h-751v107h751z" />
    <glyph glyph-name="cdotaccent" unicode="&#x10b;" horiz-adv-x="539" 
d="M216 565v135h140v-135h-140zM374 175h130q-7 -93 -67.5 -139t-157.5 -46q-50 0 -94 18t-76.5 52t-51 82t-18.5 108t18.5 108t51 82t76.5 52t94 18q97 0 157.5 -46t67.5 -139h-130q-6 37 -28.5 58.5t-63.5 21.5h-6q-56 0 -81.5 -46t-25.5 -109t25.5 -109t81.5 -46h6
q41 0 63.5 21.5t28.5 58.5zM559 -155v-107h-579v107h579z" />
    <glyph glyph-name="Ccaron" unicode="&#x10c;" horiz-adv-x="711" 
d="M199 890h110l80 -58l80 58h110l-120 -145h-140zM538 230h135q-4 -51 -24.5 -95t-57 -76t-90 -50.5t-122.5 -18.5q-80 0 -143 26t-105.5 73t-64.5 114t-22 147t22 147t64.5 114t105.5 73t143 26q69 0 122.5 -19t90 -51.5t57 -76.5t24.5 -93h-135q-12 57 -51.5 88.5
t-102.5 31.5h-10q-86 0 -140.5 -64t-54.5 -176t54.5 -176t140.5 -64h10q63 0 102.5 31t51.5 89zM731 -155v-107h-751v107h751z" />
    <glyph glyph-name="ccaron" unicode="&#x10d;" horiz-adv-x="539" 
d="M202 550l-100 150h80l100 -72l100 72h80l-100 -150h-160zM374 175h130q-7 -93 -67.5 -139t-157.5 -46q-50 0 -94 18t-76.5 52t-51 82t-18.5 108t18.5 108t51 82t76.5 52t94 18q97 0 157.5 -46t67.5 -139h-130q-6 37 -28.5 58.5t-63.5 21.5h-6q-56 0 -81.5 -46t-25.5 -109
t25.5 -109t81.5 -46h6q41 0 63.5 21.5t28.5 58.5zM559 -155v-107h-579v107h579z" />
    <glyph glyph-name="Dcaron" unicode="&#x10e;" horiz-adv-x="721" 
d="M139 890h110l80 -58l80 58h110l-120 -145h-140zM82 0v700h240q78 0 144 -22.5t112.5 -66.5t72.5 -109.5t26 -151.5t-25.5 -151.5t-71 -109.5t-110.5 -66.5t-143 -22.5h-245zM217 120h95q101 0 165.5 49.5t64.5 180.5t-64.5 180.5t-165.5 49.5h-95v-460zM741 -155v-107
h-761v107h761z" />
    <glyph glyph-name="dcaron" unicode="&#x10f;" horiz-adv-x="693" 
d="M574 455v75h23q28 0 41 11t13 28v1h-52v130h130v-130q0 -50 -35.5 -82.5t-91.5 -32.5h-28zM290 95q45 0 79.5 42t34.5 113t-34.5 113t-79.5 42h-8q-49 0 -81.5 -41.5t-32.5 -112.5t32.5 -113.5t81.5 -42.5h8zM260 -10q-54 0 -95.5 21.5t-69.5 57.5t-42.5 83.5t-14.5 97.5
t14.5 97.5t42.5 83.5t69.5 57.5t95.5 21.5q52 0 90.5 -24.5t53.5 -50.5v265h130v-700h-130v65q-15 -26 -53.5 -50.5t-90.5 -24.5zM749 -155v-107h-769v107h769z" />
    <glyph glyph-name="Dcroat" unicode="&#x110;" horiz-adv-x="752" 
d="M358 0h-245v290h-100v120h100v290h240q78 0 144 -22.5t112.5 -66.5t72.5 -109.5t26 -151.5t-25.5 -151.5t-71 -109.5t-110.5 -66.5t-143 -22.5zM248 120h95q101 0 165.5 49.5t64.5 180.5t-64.5 180.5t-165.5 49.5h-95v-170h125v-120h-125v-170zM772 -155v-107h-792v107
h792z" />
    <glyph glyph-name="dcroat" unicode="&#x111;" horiz-adv-x="602" 
d="M291 95q45 0 79.5 42t34.5 113t-34.5 113t-79.5 42h-8q-49 0 -81.5 -41.5t-32.5 -112.5t32.5 -113.5t81.5 -42.5h8zM405 65q-15 -26 -53.5 -50.5t-90.5 -24.5q-54 0 -95.5 21.5t-69.5 57.5t-42.5 83.5t-14.5 97.5t14.5 97.5t42.5 83.5t69.5 57.5t95.5 21.5
q52 0 90.5 -24.5t53.5 -50.5v120h-120v90h120v55h130v-55h75v-90h-75v-555h-130v65zM630 -155v-107h-650v107h650z" />
    <glyph glyph-name="Emacron" unicode="&#x112;" horiz-adv-x="661" 
d="M182 765v110h335v-110h-335zM82 0v700h530v-120h-395v-161h335v-120h-335v-179h405v-120h-540zM681 -155v-107h-701v107h701z" />
    <glyph glyph-name="emacron" unicode="&#x113;" horiz-adv-x="541" 
d="M126 565v105h305v-105h-305zM503 158q-18 -73 -75.5 -120.5t-150.5 -47.5q-47 0 -90 17.5t-76 50.5t-52.5 81.5t-19.5 110.5q0 56 16 104t46.5 82.5t75 54t100.5 19.5t99 -19.5t71.5 -53t43 -80.5t14.5 -101q0 -11 -0.5 -23t-1.5 -24h-338q4 -51 38.5 -82.5t75.5 -31.5h6
q37 0 59.5 19t29.5 44h129zM165 309h214q-2 45 -32.5 70.5t-71.5 25.5h-6q-41 0 -71.5 -25.5t-32.5 -70.5zM561 -155v-107h-581v107h581z" />
    <glyph glyph-name="Ebreve" unicode="&#x114;" horiz-adv-x="661" 
d="M351 835q22 0 39.5 13.5t20.5 41.5h110q-1 -68 -49 -109t-121 -41t-121 41t-49 109h110q3 -28 20.5 -41.5t39.5 -13.5zM82 0v700h530v-120h-395v-161h335v-120h-335v-179h405v-120h-540zM681 -155v-107h-701v107h701z" />
    <glyph glyph-name="ebreve" unicode="&#x115;" horiz-adv-x="541" 
d="M272 540q-73 0 -121 44t-49 116h110q1 -29 16.5 -47t43.5 -18t43.5 18t16.5 47h110q-1 -72 -49 -116t-121 -44zM503 158q-18 -73 -75.5 -120.5t-150.5 -47.5q-47 0 -90 17.5t-76 50.5t-52.5 81.5t-19.5 110.5q0 56 16 104t46.5 82.5t75 54t100.5 19.5t99 -19.5t71.5 -53
t43 -80.5t14.5 -101q0 -11 -0.5 -23t-1.5 -24h-338q4 -51 38.5 -82.5t75.5 -31.5h6q37 0 59.5 19t29.5 44h129zM165 309h214q-2 45 -32.5 70.5t-71.5 25.5h-6q-41 0 -71.5 -25.5t-32.5 -70.5zM561 -155v-107h-581v107h581z" />
    <glyph glyph-name="Edotaccent" unicode="&#x116;" horiz-adv-x="661" 
d="M285 765v135h140v-135h-140zM82 0v700h530v-120h-395v-161h335v-120h-335v-179h405v-120h-540zM681 -155v-107h-701v107h701z" />
    <glyph glyph-name="edotaccent" unicode="&#x117;" horiz-adv-x="541" 
d="M205 565v135h140v-135h-140zM503 158q-18 -73 -75.5 -120.5t-150.5 -47.5q-47 0 -90 17.5t-76 50.5t-52.5 81.5t-19.5 110.5q0 56 16 104t46.5 82.5t75 54t100.5 19.5t99 -19.5t71.5 -53t43 -80.5t14.5 -101q0 -11 -0.5 -23t-1.5 -24h-338q4 -51 38.5 -82.5t75.5 -31.5h6
q37 0 59.5 19t29.5 44h129zM165 309h214q-2 45 -32.5 70.5t-71.5 25.5h-6q-41 0 -71.5 -25.5t-32.5 -70.5zM561 -155v-107h-581v107h581z" />
    <glyph glyph-name="Eogonek" unicode="&#x118;" horiz-adv-x="661" 
d="M681 -155v-107h-109q-52 0 -86 36.5t-34 90.5q0 49 24 82.5t53 52.5h-447v700h530v-120h-395v-161h335v-120h-335v-179h405v-120q-25 -15 -52.5 -42.5t-27.5 -62.5q0 -26 15.5 -38t34.5 -12h89zM323 -155v-107h-343v107h343z" />
    <glyph glyph-name="eogonek" unicode="&#x119;" horiz-adv-x="541" 
d="M561 -262h-258q-52 0 -86 36.5t-34 90.5q0 44 20 75.5t45 51.5q-42 5 -80 24.5t-66.5 52.5t-45.5 78.5t-17 102.5q0 56 16 104t46.5 82.5t75 54t100.5 19.5t99 -19.5t71.5 -53t43 -80.5t14.5 -101q0 -11 -0.5 -23t-1.5 -24h-338q4 -51 38.5 -82.5t75.5 -31.5h6
q37 0 59.5 19t29.5 44h129q-14 -57 -52 -99.5t-98 -58.5q-25 -15 -52.5 -42.5t-27.5 -62.5q0 -26 15.5 -38t34.5 -12h238v-107zM165 309h214q-2 45 -32.5 70.5t-71.5 25.5h-6q-41 0 -71.5 -25.5t-32.5 -70.5zM54 -155v-107h-74v107h74z" />
    <glyph glyph-name="Ecaron" unicode="&#x11a;" horiz-adv-x="661" 
d="M159 890h110l80 -58l80 58h110l-120 -145h-140zM82 0v700h530v-120h-395v-161h335v-120h-335v-179h405v-120h-540zM681 -155v-107h-701v107h701z" />
    <glyph glyph-name="ecaron" unicode="&#x11b;" horiz-adv-x="541" 
d="M194 550l-100 150h80l100 -72l100 72h80l-100 -150h-160zM503 158q-18 -73 -75.5 -120.5t-150.5 -47.5q-47 0 -90 17.5t-76 50.5t-52.5 81.5t-19.5 110.5q0 56 16 104t46.5 82.5t75 54t100.5 19.5t99 -19.5t71.5 -53t43 -80.5t14.5 -101q0 -11 -0.5 -23t-1.5 -24h-338
q4 -51 38.5 -82.5t75.5 -31.5h6q37 0 59.5 19t29.5 44h129zM165 309h214q-2 45 -32.5 70.5t-71.5 25.5h-6q-41 0 -71.5 -25.5t-32.5 -70.5zM561 -155v-107h-581v107h581z" />
    <glyph glyph-name="Gcircumflex" unicode="&#x11c;" horiz-adv-x="745" 
d="M300 745h-110l120 145h140l120 -145h-110l-80 58zM577 68q-31 -33 -78.5 -55.5t-111.5 -22.5q-78 0 -142 27.5t-109 75.5t-69.5 114.5t-24.5 142.5t24.5 142.5t69.5 114.5t109 75.5t142 27.5q67 0 121.5 -19t92.5 -52t60 -79t26 -100h-135q-7 56 -46 93t-114 37h-10
q-97 0 -151 -66t-54 -174t54 -174t151 -66h10q66 0 118.5 35.5t68.5 99.5h-192v120h220q41 0 63 -22t22 -63v-280h-115v68zM765 -155v-107h-785v107h785z" />
    <glyph glyph-name="gcircumflex" unicode="&#x11d;" horiz-adv-x="593" 
d="M392 550l-100 72l-100 -72h-80l100 150h160l100 -150h-80zM281 105h8q45 0 76 39.5t31 110.5t-31 110.5t-76 39.5h-8q-47 0 -79.5 -39.5t-32.5 -110.5t32.5 -110.5t79.5 -39.5zM279 -155q49 0 83 27.5t34 87.5v110q-22 -37 -61 -53.5t-80 -16.5q-43 0 -82.5 16.5t-69 49
t-47 80t-17.5 109.5t17.5 109.5t47 80t69 49t82.5 16.5q41 0 80 -16.5t61 -53.5v60h130v-556q0 -39 -16 -76.5t-48.5 -66t-81 -46t-113.5 -17.5h-287v107h299z" />
    <glyph glyph-name="Gbreve" unicode="&#x11e;" horiz-adv-x="745" 
d="M380 835q22 0 39.5 13.5t20.5 41.5h110q-1 -68 -49 -109t-121 -41t-121 41t-49 109h110q3 -28 20.5 -41.5t39.5 -13.5zM577 68q-31 -33 -78.5 -55.5t-111.5 -22.5q-78 0 -142 27.5t-109 75.5t-69.5 114.5t-24.5 142.5t24.5 142.5t69.5 114.5t109 75.5t142 27.5
q67 0 121.5 -19t92.5 -52t60 -79t26 -100h-135q-7 56 -46 93t-114 37h-10q-97 0 -151 -66t-54 -174t54 -174t151 -66h10q66 0 118.5 35.5t68.5 99.5h-192v120h220q41 0 63 -22t22 -63v-280h-115v68zM765 -155v-107h-785v107h785z" />
    <glyph glyph-name="gbreve" unicode="&#x11f;" horiz-adv-x="593" 
d="M284 540q-73 0 -121 44t-49 116h110q1 -29 16.5 -47t43.5 -18t43.5 18t16.5 47h110q-1 -72 -49 -116t-121 -44zM281 105h8q45 0 76 39.5t31 110.5t-31 110.5t-76 39.5h-8q-47 0 -79.5 -39.5t-32.5 -110.5t32.5 -110.5t79.5 -39.5zM279 -155q49 0 83 27.5t34 87.5v110
q-22 -37 -61 -53.5t-80 -16.5q-43 0 -82.5 16.5t-69 49t-47 80t-17.5 109.5t17.5 109.5t47 80t69 49t82.5 16.5q41 0 80 -16.5t61 -53.5v60h130v-556q0 -39 -16 -76.5t-48.5 -66t-81 -46t-113.5 -17.5h-287v107h299z" />
    <glyph glyph-name="Gdotaccent" unicode="&#x120;" horiz-adv-x="745" 
d="M324 765v135h140v-135h-140zM577 68q-31 -33 -78.5 -55.5t-111.5 -22.5q-78 0 -142 27.5t-109 75.5t-69.5 114.5t-24.5 142.5t24.5 142.5t69.5 114.5t109 75.5t142 27.5q67 0 121.5 -19t92.5 -52t60 -79t26 -100h-135q-7 56 -46 93t-114 37h-10q-97 0 -151 -66t-54 -174
t54 -174t151 -66h10q66 0 118.5 35.5t68.5 99.5h-192v120h220q41 0 63 -22t22 -63v-280h-115v68zM765 -155v-107h-785v107h785z" />
    <glyph glyph-name="gdotaccent" unicode="&#x121;" horiz-adv-x="593" 
d="M223 565v135h140v-135h-140zM281 105h8q45 0 76 39.5t31 110.5t-31 110.5t-76 39.5h-8q-47 0 -79.5 -39.5t-32.5 -110.5t32.5 -110.5t79.5 -39.5zM279 -155q49 0 83 27.5t34 87.5v110q-22 -37 -61 -53.5t-80 -16.5q-43 0 -82.5 16.5t-69 49t-47 80t-17.5 109.5
t17.5 109.5t47 80t69 49t82.5 16.5q41 0 80 -16.5t61 -53.5v60h130v-556q0 -39 -16 -76.5t-48.5 -66t-81 -46t-113.5 -17.5h-287v107h299z" />
    <glyph glyph-name="Gcommaaccent" unicode="&#x122;" horiz-adv-x="745" 
d="M577 68q-31 -33 -78.5 -55.5t-111.5 -22.5q-78 0 -142 27.5t-109 75.5t-69.5 114.5t-24.5 142.5t24.5 142.5t69.5 114.5t109 75.5t142 27.5q67 0 121.5 -19t92.5 -52t60 -79t26 -100h-135q-7 56 -46 93t-114 37h-10q-97 0 -151 -66t-54 -174t54 -174t151 -66h10
q66 0 118.5 35.5t68.5 99.5h-192v120h220q41 0 63 -22t22 -63v-280h-115v68zM765 -155v-107h-195v107h195zM313 -377h-28v75h23q28 0 41 11t13 28v1h-382v107h460v-107q0 -50 -35.5 -82.5t-91.5 -32.5z" />
    <glyph glyph-name="gcommaaccent" unicode="&#x123;" horiz-adv-x="593" 
d="M383 815v-75h-23q-28 0 -41 -11t-13 -28v-1h52v-130h-130v130q0 50 35.5 82.5t91.5 32.5h28zM281 105h8q45 0 76 39.5t31 110.5t-31 110.5t-76 39.5h-8q-47 0 -79.5 -39.5t-32.5 -110.5t32.5 -110.5t79.5 -39.5zM279 -155q49 0 83 27.5t34 87.5v110q-22 -37 -61 -53.5
t-80 -16.5q-43 0 -82.5 16.5t-69 49t-47 80t-17.5 109.5t17.5 109.5t47 80t69 49t82.5 16.5q41 0 80 -16.5t61 -53.5v60h130v-556q0 -39 -16 -76.5t-48.5 -66t-81 -46t-113.5 -17.5h-287v107h299z" />
    <glyph glyph-name="Hcircumflex" unicode="&#x124;" horiz-adv-x="739" 
d="M289 745h-110l120 145h140l120 -145h-110l-80 58zM82 0v700h135v-290h305v290h135v-700h-135v290h-305v-290h-135zM759 -155v-107h-779v107h779z" />
    <glyph glyph-name="hcircumflex" unicode="&#x125;" horiz-adv-x="584" 
d="M52 745h-110l120 145h140l120 -145h-110l-80 58zM197 278v-278h-130v700h130v-273q22 37 62 60t89 23q90 0 132 -54t42 -136v-320h-130v305q0 49 -21 74.5t-58 25.5h-8q-45 0 -76.5 -37.5t-31.5 -89.5zM604 -155v-107h-682v107h682z" />
    <glyph glyph-name="Hbar" unicode="&#x126;" horiz-adv-x="747" 
d="M221 410h305v82h-305v-82zM221 290v-290h-135v492h-60v115h60v93h135v-93h305v93h135v-93h60v-115h-60v-492h-135v290h-305zM767 -155v-107h-787v107h787z" />
    <glyph glyph-name="hbar" unicode="&#x127;" horiz-adv-x="584" 
d="M197 278v-278h-130v555h-70v90h70v55h130v-55h125v-90h-125v-128q22 37 62 60t89 23q90 0 132 -54t42 -136v-320h-130v305q0 49 -21 74.5t-58 25.5h-8q-45 0 -76.5 -37.5t-31.5 -89.5zM604 -155v-107h-624v107h624z" />
    <glyph glyph-name="Itilde" unicode="&#x128;" horiz-adv-x="299" 
d="M214 850q16 0 23 11.5t7 28.5h95v-26q0 -46 -26.5 -80t-83.5 -34q-19 0 -38.5 6t-41.5 18l-18 10q-12 7 -22.5 11.5t-22.5 4.5q-16 1 -23.5 -11t-7.5 -29h-95v26q0 46 32.5 80t79.5 34q28 0 44.5 -6.5t30.5 -13.5l18 -10q12 -6 24.5 -13t24.5 -7zM82 0v700h135v-700h-135
zM359 -155v-107h-419v107h419z" />
    <glyph glyph-name="itilde" unicode="&#x129;" horiz-adv-x="264" 
d="M198 655q13 0 21.5 11.5t8.5 28.5h95v-26q0 -46 -33 -80t-77 -34q-19 0 -38.5 6t-41.5 18l-18 10q-12 7 -21 11.5t-21 4.5q-13 0 -23.5 -11.5t-10.5 -28.5h-95v26q0 46 32.5 80t79.5 34q28 0 44.5 -6.5t30.5 -13.5l18 -10q12 -6 24.5 -13t24.5 -7zM67 0v500h130v-500
h-130zM343 -155v-107h-419v107h419z" />
    <glyph glyph-name="Imacron" unicode="&#x12a;" horiz-adv-x="299" 
d="M-18 765v110h335v-110h-335zM82 0v700h135v-700h-135zM337 -155v-107h-375v107h375z" />
    <glyph glyph-name="imacron" unicode="&#x12b;" horiz-adv-x="264" 
d="M-20 565v105h305v-105h-305zM67 0v500h130v-500h-130zM305 -155v-107h-345v107h345z" />
    <glyph glyph-name="Ibreve" unicode="&#x12c;" horiz-adv-x="299" 
d="M150 835q22 0 39.5 13.5t20.5 41.5h110q-1 -68 -49 -109t-121 -41t-121 41t-49 109h110q3 -28 20.5 -41.5t39.5 -13.5zM82 0v700h135v-700h-135zM340 -155v-107h-380v107h380z" />
    <glyph glyph-name="ibreve" unicode="&#x12d;" horiz-adv-x="264" 
d="M133 540q-73 0 -121 44t-49 116h110q1 -29 16.5 -47t43.5 -18t43.5 18t16.5 47h110q-1 -72 -49 -116t-121 -44zM67 0v500h130v-500h-130zM323 -155v-107h-380v107h380z" />
    <glyph glyph-name="Iogonek" unicode="&#x12e;" horiz-adv-x="299" 
d="M319 -155v-107h-152q-52 0 -86 36.5t-34 90.5q0 49 24 82.5t53 52.5h-42v700h135v-700q-25 -15 -52.5 -42.5t-27.5 -62.5q0 -26 15.5 -38t34.5 -12h132z" />
    <glyph glyph-name="iogonek" unicode="&#x12f;" horiz-adv-x="264" 
d="M62 565v135h140v-135h-140zM237 -155v-107h-90q-52 0 -86 36.5t-34 90.5q0 49 24 82.5t53 52.5h-37v500h130v-500q-25 -15 -52.5 -42.5t-27.5 -62.5q0 -26 15.5 -38t34.5 -12h70z" />
    <glyph glyph-name="Idotaccent" unicode="&#x130;" horiz-adv-x="299" 
d="M79 765v135h140v-135h-140zM82 0v700h135v-700h-135zM319 -155v-107h-339v107h339z" />
    <glyph glyph-name="dotlessi" unicode="&#x131;" horiz-adv-x="264" 
d="M67 0v500h130v-500h-130zM284 -155v-107h-304v107h304z" />
    <glyph glyph-name="IJ" unicode="&#x132;" horiz-adv-x="546" 
d="M264 0h-190v130h175q49 0 67 22t18 73v475h135v-490q0 -108 -48.5 -159t-156.5 -51zM74 206v494h135v-494h-135zM566 -155v-107h-586v107h586z" />
    <glyph glyph-name="ij" unicode="&#x133;" horiz-adv-x="507" 
d="M304 565v135h140v-135h-140zM62 565v135h140v-135h-140zM440 500v-637q0 -60 -32.5 -92.5t-92.5 -32.5h-335v107h275q30 0 42.5 12.5t12.5 42.5v600h130zM67 0v500h130v-500h-130z" />
    <glyph glyph-name="Jcircumflex" unicode="&#x134;" horiz-adv-x="429" 
d="M203 745h-110l120 145h140l120 -145h-110l-80 58zM211 0h-183v130h128q34 0 47 13t13 47v510h135v-560q0 -63 -38.5 -101.5t-101.5 -38.5zM493 -155v-107h-513v107h513z" />
    <glyph glyph-name="jcircumflex" unicode="&#x135;" horiz-adv-x="272" 
d="M238 550l-100 72l-100 -72h-80l100 150h160l100 -150h-80zM205 500v-637q0 -60 -32.5 -92.5t-92.5 -32.5h-162v107h102q30 0 42.5 12.5t12.5 42.5v600h130z" />
    <glyph glyph-name="Kcommaaccent" unicode="&#x136;" horiz-adv-x="686" 
d="M520 0l-211 308l-92 -97v-211h-135v700h135v-314l297 314h167l-275 -290l281 -410h-167zM706 -155v-107h-160v107h160zM289 -377h-28v75h23q28 0 41 11t13 28v1h-358v107h436v-107q0 -50 -35.5 -82.5t-91.5 -32.5z" />
    <glyph glyph-name="kcommaaccent" unicode="&#x137;" horiz-adv-x="551" 
d="M394 0l-139 208l-58 -59v-149h-130v700h130v-386l181 186h159l-192 -199l202 -301h-153zM571 -155v-107h-89v107h89zM225 -377h-28v75h23q28 0 41 11t13 28v1h-294v107h372v-107q0 -50 -35.5 -82.5t-91.5 -32.5z" />
    <glyph glyph-name="Lacute" unicode="&#x139;" horiz-adv-x="630" 
d="M98 745l40 145h155l-105 -145h-90zM82 0v700h135v-580h395v-120h-530zM650 -155v-107h-670v107h670z" />
    <glyph glyph-name="lacute" unicode="&#x13a;" horiz-adv-x="264" 
d="M87 745l40 145h155l-105 -145h-90zM67 0v700h130v-700h-130zM284 -155v-107h-304v107h304z" />
    <glyph glyph-name="Lcommaaccent" unicode="&#x13b;" horiz-adv-x="630" 
d="M82 0v700h135v-580h395v-120h-530zM650 -155v-107h-122v107h122zM271 -377h-28v75h23q28 0 41 11t13 28v1h-340v107h418v-107q0 -50 -35.5 -82.5t-91.5 -32.5z" />
    <glyph glyph-name="lcommaaccent" unicode="&#x13c;" horiz-adv-x="264" 
d="M67 0v700h130v-700h-130zM41 -377v75h23q28 0 41 11t13 28v1h-52v107h130v-107q0 -50 -35.5 -82.5t-91.5 -32.5h-28z" />
    <glyph glyph-name="Lcaron" unicode="&#x13d;" horiz-adv-x="630" 
d="M327 455v75h23q28 0 41 11t13 28v1h-52v130h130v-130q0 -50 -35.5 -82.5t-91.5 -32.5h-28zM82 0v700h135v-580h395v-120h-530zM650 -155v-107h-670v107h670z" />
    <glyph glyph-name="lcaron" unicode="&#x13e;" horiz-adv-x="356" 
d="M67 0v700h130v-700h-130zM237 455v75h23q28 0 41 11t13 28v1h-52v130h130v-130q0 -50 -35.5 -82.5t-91.5 -32.5h-28zM412 -155v-107h-432v107h432z" />
    <glyph glyph-name="Ldot" unicode="&#x13f;" horiz-adv-x="630" 
d="M82 0v700h135v-580h395v-120h-530zM377 305v135h140v-135h-140zM650 -155v-107h-670v107h670z" />
    <glyph glyph-name="ldot" unicode="&#x140;" horiz-adv-x="410" 
d="M67 0v700h130v-700h-130zM262 270v135h140v-135h-140zM430 -155v-107h-450v107h450z" />
    <glyph glyph-name="Lslash" unicode="&#x141;" horiz-adv-x="680" 
d="M662 0h-530v235l-95 -53v135l95 53v330h135v-254l170 95v-134l-170 -96v-191h395v-120zM700 -155v-107h-720v107h720z" />
    <glyph glyph-name="lslash" unicode="&#x142;" horiz-adv-x="333" 
d="M234 0h-130v303l-80 -45v120l80 45v277h130v-203l80 45v-120l-80 -45v-377zM353 -155v-107h-373v107h373z" />
    <glyph glyph-name="Nacute" unicode="&#x143;" horiz-adv-x="749" 
d="M316 745l40 145h155l-105 -145h-90zM492 0l-275 515v-515h-135v700h175l275 -513v513h135v-700h-175zM769 -155v-107h-789v107h789z" />
    <glyph glyph-name="nacute" unicode="&#x144;" horiz-adv-x="584" 
d="M242 550l25 150h150l-100 -150h-75zM197 278v-278h-130v500h130v-73q22 37 62 60t89 23q90 0 132 -54t42 -136v-320h-130v305q0 49 -21 74.5t-58 25.5h-8q-45 0 -76.5 -37.5t-31.5 -89.5zM604 -155v-107h-624v107h624z" />
    <glyph glyph-name="Ncommaaccent" unicode="&#x145;" horiz-adv-x="749" 
d="M492 0l-275 515v-515h-135v700h175l275 -513v513h135v-700h-175zM769 -155v-107h-198v107h198zM314 -377h-28v75h23q28 0 41 11t13 28v1h-383v107h461v-107q0 -50 -35.5 -82.5t-91.5 -32.5z" />
    <glyph glyph-name="ncommaaccent" unicode="&#x146;" horiz-adv-x="584" 
d="M197 278v-278h-130v500h130v-73q22 37 62 60t89 23q90 0 132 -54t42 -136v-320h-130v305q0 49 -21 74.5t-58 25.5h-8q-45 0 -76.5 -37.5t-31.5 -89.5zM604 -155v-107h-117v107h117zM230 -377h-28v75h23q28 0 41 11t13 28v1h-299v107h377v-107q0 -50 -35.5 -82.5
t-91.5 -32.5z" />
    <glyph glyph-name="Ncaron" unicode="&#x147;" horiz-adv-x="749" 
d="M179 890h110l80 -58l80 58h110l-120 -145h-140zM492 0l-275 515v-515h-135v700h175l275 -513v513h135v-700h-175zM769 -155v-107h-789v107h789z" />
    <glyph glyph-name="ncaron" unicode="&#x148;" horiz-adv-x="584" 
d="M213 550l-100 150h80l100 -72l100 72h80l-100 -150h-160zM197 278v-278h-130v500h130v-73q22 37 62 60t89 23q90 0 132 -54t42 -136v-320h-130v305q0 49 -21 74.5t-58 25.5h-8q-45 0 -76.5 -37.5t-31.5 -89.5zM604 -155v-107h-624v107h624z" />
    <glyph glyph-name="Eng" unicode="&#x14a;" horiz-adv-x="749" 
d="M667 -132q0 -60 -35 -95t-95 -35h-557v107h497q30 0 42.5 12.5t12.5 42.5v100h-40l-275 515v-515h-135v700h175l275 -513v513h135v-832z" />
    <glyph glyph-name="eng" unicode="&#x14b;" horiz-adv-x="584" 
d="M522 -137q0 -60 -32.5 -92.5t-92.5 -32.5h-417v107h357q30 0 42.5 12.5t12.5 42.5v405q0 49 -21 74.5t-58 25.5h-8q-45 0 -76.5 -37.5t-31.5 -89.5v-278h-130v500h130v-73q22 37 62 60t89 23q90 0 132 -54t42 -136v-457z" />
    <glyph glyph-name="Omacron" unicode="&#x14c;" horiz-adv-x="766" 
d="M216 765v110h335v-110h-335zM383 -10q-75 0 -137.5 24.5t-107.5 71t-70 113.5t-25 151t25 151t70 113.5t107.5 71t137.5 24.5t137.5 -24.5t107.5 -71t70 -113.5t25 -151t-25 -151t-70 -113.5t-107.5 -71t-137.5 -24.5zM378 110h10q93 0 146.5 64t53.5 176t-53.5 176
t-146.5 64h-10q-93 0 -146.5 -64t-53.5 -176t53.5 -176t146.5 -64zM786 -155v-107h-806v107h806z" />
    <glyph glyph-name="omacron" unicode="&#x14d;" horiz-adv-x="576" 
d="M136 565v105h305v-105h-305zM288 -10q-56 0 -102.5 19.5t-79 54t-50.5 82.5t-18 104t18 104t50.5 82.5t79 54t102.5 19.5t102.5 -19.5t79 -54t50.5 -82.5t18 -104t-18 -104t-50.5 -82.5t-79 -54t-102.5 -19.5zM292 95q52 0 83.5 41t31.5 114t-31.5 114t-83.5 41h-8
q-52 0 -83.5 -41t-31.5 -114t31.5 -114t83.5 -41h8zM596 -155v-107h-616v107h616z" />
    <glyph glyph-name="Obreve" unicode="&#x14e;" horiz-adv-x="766" 
d="M383 835q22 0 39.5 13.5t20.5 41.5h110q-1 -68 -49 -109t-121 -41t-121 41t-49 109h110q3 -28 20.5 -41.5t39.5 -13.5zM383 -10q-75 0 -137.5 24.5t-107.5 71t-70 113.5t-25 151t25 151t70 113.5t107.5 71t137.5 24.5t137.5 -24.5t107.5 -71t70 -113.5t25 -151t-25 -151
t-70 -113.5t-107.5 -71t-137.5 -24.5zM378 110h10q93 0 146.5 64t53.5 176t-53.5 176t-146.5 64h-10q-93 0 -146.5 -64t-53.5 -176t53.5 -176t146.5 -64zM786 -155v-107h-806v107h806z" />
    <glyph glyph-name="obreve" unicode="&#x14f;" horiz-adv-x="576" 
d="M289 540q-73 0 -121 44t-49 116h110q1 -29 16.5 -47t43.5 -18t43.5 18t16.5 47h110q-1 -72 -49 -116t-121 -44zM288 -10q-56 0 -102.5 19.5t-79 54t-50.5 82.5t-18 104t18 104t50.5 82.5t79 54t102.5 19.5t102.5 -19.5t79 -54t50.5 -82.5t18 -104t-18 -104t-50.5 -82.5
t-79 -54t-102.5 -19.5zM292 95q52 0 83.5 41t31.5 114t-31.5 114t-83.5 41h-8q-52 0 -83.5 -41t-31.5 -114t31.5 -114t83.5 -41h8zM596 -155v-107h-616v107h616z" />
    <glyph glyph-name="Ohungarumlaut" unicode="&#x150;" horiz-adv-x="766" 
d="M423 745l40 145h155l-105 -145h-90zM234 745l40 145h155l-105 -145h-90zM383 -10q-75 0 -137.5 24.5t-107.5 71t-70 113.5t-25 151t25 151t70 113.5t107.5 71t137.5 24.5t137.5 -24.5t107.5 -71t70 -113.5t25 -151t-25 -151t-70 -113.5t-107.5 -71t-137.5 -24.5zM378 110
h10q93 0 146.5 64t53.5 176t-53.5 176t-146.5 64h-10q-93 0 -146.5 -64t-53.5 -176t53.5 -176t146.5 -64zM786 -155v-107h-806v107h806z" />
    <glyph glyph-name="ohungarumlaut" unicode="&#x151;" horiz-adv-x="576" 
d="M328 550l25 150h150l-100 -150h-75zM169 550l25 150h150l-100 -150h-75zM288 -10q-56 0 -102.5 19.5t-79 54t-50.5 82.5t-18 104t18 104t50.5 82.5t79 54t102.5 19.5t102.5 -19.5t79 -54t50.5 -82.5t18 -104t-18 -104t-50.5 -82.5t-79 -54t-102.5 -19.5zM292 95
q52 0 83.5 41t31.5 114t-31.5 114t-83.5 41h-8q-52 0 -83.5 -41t-31.5 -114t31.5 -114t83.5 -41h8zM596 -155v-107h-616v107h616z" />
    <glyph glyph-name="OE" unicode="&#x152;" horiz-adv-x="1167" 
d="M378 110h10q93 0 146.5 64t53.5 176t-53.5 176t-146.5 64h-10q-93 0 -146.5 -64t-53.5 -176t53.5 -176t146.5 -64zM588 0v70q-40 -39 -92 -59.5t-113 -20.5q-75 0 -137.5 24.5t-107.5 71t-70 113.5t-25 151t25 151t70 113.5t107.5 71t137.5 24.5q61 0 113 -20.5t92 -59.5
v70h530v-120h-395v-161h335v-120h-335v-179h405v-120h-540zM1187 -155v-107h-1207v107h1207z" />
    <glyph glyph-name="oe" unicode="&#x153;" horiz-adv-x="911" 
d="M647 -10q-50 0 -95.5 20t-78.5 57q-33 -36 -80.5 -56.5t-104.5 -20.5q-56 0 -102.5 19.5t-79 54t-50.5 82.5t-18 104t18 104t50.5 82.5t79 54t102.5 19.5q57 0 103.5 -20t79.5 -55q30 35 74.5 55t101.5 20q56 0 99 -19.5t71.5 -53t43 -80.5t14.5 -101q0 -11 -0.5 -23
t-1.5 -24h-338v-1v-1q4 -51 39 -81.5t75 -30.5h6q37 0 59.5 19t29.5 44h129q-18 -73 -75.5 -120.5t-150.5 -47.5zM292 95q52 0 83.5 41t31.5 114t-31.5 114t-83.5 41h-8q-52 0 -83.5 -41t-31.5 -114t31.5 -114t83.5 -41h8zM535 309h214q-2 45 -32.5 70.5t-71.5 25.5h-6
q-41 0 -71.5 -25.5t-32.5 -70.5zM962 -155v-107h-982v107h982z" />
    <glyph glyph-name="Racute" unicode="&#x154;" horiz-adv-x="682" 
d="M289 745l40 145h155l-105 -145h-90zM217 383h150q60 0 90 26t30 75t-30 72.5t-90 23.5h-150v-197zM82 0v700h325q45 0 84.5 -14.5t68 -39.5t45.5 -60t17 -76q0 -66 -29.5 -110.5t-89.5 -66.5q57 0 83 -26t26 -73v-234h-135v200q0 37 -14 51t-51 14h-195v-265h-135z
M702 -155v-107h-722v107h722z" />
    <glyph glyph-name="racute" unicode="&#x155;" horiz-adv-x="387" 
d="M147 550l25 150h150l-100 -150h-75zM67 0v500h130v-100q15 49 52 77t93 28h25v-120h-45q-63 0 -94 -31t-31 -94v-260h-130zM407 -155v-107h-427v107h427z" />
    <glyph glyph-name="Rcommaaccent" unicode="&#x156;" horiz-adv-x="682" 
d="M217 383h150q60 0 90 26t30 75t-30 72.5t-90 23.5h-150v-197zM82 0v700h325q45 0 84.5 -14.5t68 -39.5t45.5 -60t17 -76q0 -66 -29.5 -110.5t-89.5 -66.5q57 0 83 -26t26 -73v-234h-135v200q0 37 -14 51t-51 14h-195v-265h-135zM702 -155v-107h-166v107h166zM279 -377
h-28v75h23q28 0 41 11t13 28v1h-348v107h426v-107q0 -50 -35.5 -82.5t-91.5 -32.5z" />
    <glyph glyph-name="rcommaaccent" unicode="&#x157;" horiz-adv-x="387" 
d="M67 0v500h130v-100q15 49 52 77t93 28h25v-120h-45q-63 0 -94 -31t-31 -94v-260h-130zM407 -155v-107h-80v107h80zM70 -377h-28v75h23q28 0 41 11t13 28v1h-139v107h217v-107q0 -50 -35.5 -82.5t-91.5 -32.5z" />
    <glyph glyph-name="Rcaron" unicode="&#x158;" horiz-adv-x="682" 
d="M152 890h110l80 -58l80 58h110l-120 -145h-140zM217 383h150q60 0 90 26t30 75t-30 72.5t-90 23.5h-150v-197zM82 0v700h325q45 0 84.5 -14.5t68 -39.5t45.5 -60t17 -76q0 -66 -29.5 -110.5t-89.5 -66.5q57 0 83 -26t26 -73v-234h-135v200q0 37 -14 51t-51 14h-195v-265
h-135zM702 -155v-107h-722v107h722z" />
    <glyph glyph-name="rcaron" unicode="&#x159;" horiz-adv-x="387" 
d="M113 550l-100 150h80l100 -72l100 72h80l-100 -150h-160zM67 0v500h130v-100q15 49 52 77t93 28h25v-120h-45q-63 0 -94 -31t-31 -94v-260h-130zM407 -155v-107h-427v107h427z" />
    <glyph glyph-name="Sacute" unicode="&#x15a;" horiz-adv-x="634" 
d="M286 745l40 145h155l-105 -145h-90zM459 480q-4 54 -40 82t-90 28h-10q-56 0 -88 -25.5t-32 -59.5t20 -52t65 -27l105 -21q90 -18 142 -66.5t52 -133.5q0 -45 -18 -84.5t-52 -68t-84 -45.5t-115 -17q-143 0 -212 68.5t-73 176.5h135q4 -52 43 -88.5t117 -36.5h10
q56 0 85 25.5t29 59.5q0 30 -16.5 48.5t-62.5 28.5l-125 26q-93 19 -136.5 71.5t-43.5 130.5q0 39 17.5 77t50.5 67.5t83 47.5t114 18q63 0 113 -17.5t83.5 -48t51 -72.5t17.5 -92h-135zM654 -155v-107h-674v107h674z" />
    <glyph glyph-name="sacute" unicode="&#x15b;" horiz-adv-x="497" 
d="M207 550l25 150h150l-100 -150h-75zM248 -10q-101 0 -158.5 46.5t-57.5 128.5h133q0 -34 23.5 -54.5t60.5 -20.5h8q30 0 48 13.5t18 35.5q0 19 -12 31t-39 19l-65 16q-78 19 -116.5 55t-38.5 96q0 67 54.5 110.5t147.5 43.5q97 0 150.5 -46.5t53.5 -128.5h-130
q-4 36 -22.5 55.5t-52.5 19.5h-8q-26 0 -44.5 -13.5t-18.5 -35.5q0 -20 16.5 -32t47.5 -19l67 -17q72 -18 106 -54t34 -95q0 -63 -52 -108.5t-153 -45.5zM517 -155v-107h-537v107h537z" />
    <glyph glyph-name="Scircumflex" unicode="&#x15c;" horiz-adv-x="634" 
d="M254 750h-110l120 145h140l120 -145h-110l-80 58zM459 480q-4 54 -40 82t-90 28h-10q-56 0 -88 -25.5t-32 -59.5t20 -52t65 -27l105 -21q90 -18 142 -66.5t52 -133.5q0 -45 -18 -84.5t-52 -68t-84 -45.5t-115 -17q-143 0 -212 68.5t-73 176.5h135q4 -52 43 -88.5
t117 -36.5h10q56 0 85 25.5t29 59.5q0 30 -16.5 48.5t-62.5 28.5l-125 26q-93 19 -136.5 71.5t-43.5 130.5q0 39 17.5 77t50.5 67.5t83 47.5t114 18q63 0 113 -17.5t83.5 -48t51 -72.5t17.5 -92h-135zM654 -155v-107h-674v107h674z" />
    <glyph glyph-name="scircumflex" unicode="&#x15d;" horiz-adv-x="497" 
d="M350 550l-100 72l-100 -72h-80l100 150h160l100 -150h-80zM248 -10q-101 0 -158.5 46.5t-57.5 128.5h133q0 -34 23.5 -54.5t60.5 -20.5h8q30 0 48 13.5t18 35.5q0 19 -12 31t-39 19l-65 16q-78 19 -116.5 55t-38.5 96q0 67 54.5 110.5t147.5 43.5q97 0 150.5 -46.5
t53.5 -128.5h-130q-4 36 -22.5 55.5t-52.5 19.5h-8q-26 0 -44.5 -13.5t-18.5 -35.5q0 -20 16.5 -32t47.5 -19l67 -17q72 -18 106 -54t34 -95q0 -63 -52 -108.5t-153 -45.5zM517 -155v-107h-537v107h537z" />
    <glyph glyph-name="Scedilla" unicode="&#x15e;" horiz-adv-x="634" 
d="M324 -262h-344v107h349q19 0 29.5 6t10.5 19q0 10 -8 17.5t-27 7.5h-55v96q-125 9 -185.5 76t-64.5 168h135q4 -52 43 -88.5t117 -36.5h10q56 0 85 25.5t29 59.5q0 30 -16.5 48.5t-62.5 28.5l-125 26q-93 19 -136.5 71.5t-43.5 130.5q0 39 17.5 77t50.5 67.5t83 47.5
t114 18q63 0 113 -17.5t83.5 -48t51 -72.5t17.5 -92h-135q-4 54 -40 82t-90 28h-10q-56 0 -88 -25.5t-32 -59.5t20 -52t65 -27l105 -21q90 -18 142 -66.5t52 -133.5q0 -84 -60.5 -144.5t-173.5 -69.5v-31q37 0 66 -24t29 -76q0 -60 -34 -91t-86 -31zM654 -155v-107h-81v107
h81z" />
    <glyph glyph-name="scedilla" unicode="&#x15f;" horiz-adv-x="497" 
d="M251 -262h-281v107h286q19 0 29.5 6t10.5 19q0 10 -8 17.5t-27 7.5h-55v97q-82 10 -128 55t-46 118h133q0 -34 23.5 -54.5t60.5 -20.5h8q30 0 48 13.5t18 35.5q0 19 -12 31t-39 19l-65 16q-78 19 -116.5 55t-38.5 96q0 67 54.5 110.5t147.5 43.5q97 0 150.5 -46.5
t53.5 -128.5h-130q-4 36 -22.5 55.5t-52.5 19.5h-8q-26 0 -44.5 -13.5t-18.5 -35.5q0 -20 16.5 -32t47.5 -19l67 -17q72 -18 106 -54t34 -95t-45 -102.5t-132 -50.5v-31q37 0 66 -24t29 -76q0 -60 -34 -91t-86 -31z" />
    <glyph glyph-name="Scaron" unicode="&#x160;" horiz-adv-x="634" 
d="M141 890h110l80 -58l80 58h110l-120 -145h-140zM459 480q-4 54 -40 82t-90 28h-10q-56 0 -88 -25.5t-32 -59.5t20 -52t65 -27l105 -21q90 -18 142 -66.5t52 -133.5q0 -45 -18 -84.5t-52 -68t-84 -45.5t-115 -17q-143 0 -212 68.5t-73 176.5h135q4 -52 43 -88.5t117 -36.5
h10q56 0 85 25.5t29 59.5q0 30 -16.5 48.5t-62.5 28.5l-125 26q-93 19 -136.5 71.5t-43.5 130.5q0 39 17.5 77t50.5 67.5t83 47.5t114 18q63 0 113 -17.5t83.5 -48t51 -72.5t17.5 -92h-135zM654 -155v-107h-674v107h674z" />
    <glyph glyph-name="scaron" unicode="&#x161;" horiz-adv-x="497" 
d="M173 550l-100 150h80l100 -72l100 72h80l-100 -150h-160zM248 -10q-101 0 -158.5 46.5t-57.5 128.5h133q0 -34 23.5 -54.5t60.5 -20.5h8q30 0 48 13.5t18 35.5q0 19 -12 31t-39 19l-65 16q-78 19 -116.5 55t-38.5 96q0 67 54.5 110.5t147.5 43.5q97 0 150.5 -46.5
t53.5 -128.5h-130q-4 36 -22.5 55.5t-52.5 19.5h-8q-26 0 -44.5 -13.5t-18.5 -35.5q0 -20 16.5 -32t47.5 -19l67 -17q72 -18 106 -54t34 -95q0 -63 -52 -108.5t-153 -45.5zM517 -155v-107h-537v107h537z" />
    <glyph glyph-name="uni0162" unicode="&#x162;" horiz-adv-x="656" 
d="M425 -140q0 -60 -34 -91t-86 -31h-325v107h330q19 0 29.5 6t10.5 19q0 10 -8 17.5t-27 7.5h-55v685h-242v120h620v-120h-243v-580h-65v-40q37 0 66 -24t29 -76zM676 -155v-107h-122v107h122z" />
    <glyph glyph-name="uni0163" unicode="&#x163;" horiz-adv-x="407" 
d="M345 -140q0 -60 -34 -91t-86 -31h-245v107h250q19 0 29.5 6t10.5 19q0 10 -8 17.5t-27 7.5h-55v119q-29 14 -44.5 43.5t-15.5 72.5v265h-103v105h103v162h130v-162h112v-105h-112v-230q0 -34 10.5 -44.5t44.5 -10.5h72v-110h-127v-40q37 0 66 -24t29 -76z" />
    <glyph glyph-name="Tcaron" unicode="&#x164;" horiz-adv-x="656" 
d="M137 890h110l80 -58l80 58h110l-120 -145h-140zM260 0v580h-242v120h620v-120h-243v-580h-135zM676 -155v-107h-696v107h696z" />
    <glyph glyph-name="tcaron" unicode="&#x165;" horiz-adv-x="515" 
d="M402 455v75h23q28 0 41 11t13 28v1h-52v130h130v-130q0 -50 -35.5 -82.5t-91.5 -32.5h-28zM377 110v-110h-127q-63 0 -96.5 33.5t-33.5 96.5v265h-103v105h103v162h130v-162h112v-105h-112v-230q0 -34 10.5 -44.5t44.5 -10.5h72zM577 -155v-107h-597v107h597z" />
    <glyph glyph-name="Tbar" unicode="&#x166;" horiz-adv-x="676" 
d="M575 323h-170v-323h-135v323h-170v115h170v142h-242v120h620v-120h-243v-142h170v-115zM696 -155v-107h-716v107h716z" />
    <glyph glyph-name="tbar" unicode="&#x167;" horiz-adv-x="415" 
d="M384 110v-110h-127q-63 0 -96.5 33.5t-33.5 96.5v85h-103v105h103v75h-103v105h103v162h130v-162h112v-105h-112v-75h112v-105h-112v-50q0 -34 10.5 -44.5t44.5 -10.5h72zM435 -155v-107h-455v107h455z" />
    <glyph glyph-name="Utilde" unicode="&#x168;" horiz-adv-x="702" 
d="M416 850q16 0 23 11.5t7 28.5h95v-26q0 -46 -26.5 -80t-83.5 -34q-19 0 -38.5 6t-41.5 18l-18 10q-12 7 -22.5 11.5t-22.5 4.5q-16 1 -23.5 -11t-7.5 -29h-95v26q0 46 32.5 80t79.5 34q28 0 44.5 -6.5t30.5 -13.5l18 -10q12 -6 24.5 -13t24.5 -7zM351 -10
q-142 0 -208.5 68t-66.5 187v455h135v-435q0 -82 34 -118.5t101 -36.5h10q67 0 101 36.5t34 118.5v435h135v-455q0 -119 -66.5 -187t-208.5 -68zM722 -155v-107h-742v107h742z" />
    <glyph glyph-name="utilde" unicode="&#x169;" horiz-adv-x="575" 
d="M348 655q13 0 21.5 11.5t8.5 28.5h95v-26q0 -46 -33 -80t-77 -34q-19 0 -38.5 6t-41.5 18l-18 10q-12 7 -21 11.5t-21 4.5q-13 0 -23.5 -11.5t-10.5 -28.5h-95v26q0 46 32.5 80t79.5 34q28 0 44.5 -6.5t30.5 -13.5l18 -10q12 -6 24.5 -13t24.5 -7zM508 500v-500h-130v73
q-22 -37 -60.5 -60t-85.5 -23q-87 0 -128 54t-41 136v320h130v-305q0 -49 19.5 -74.5t54.5 -25.5h8q43 0 73 37.5t30 89.5v278h130zM595 -155v-107h-615v107h615z" />
    <glyph glyph-name="Umacron" unicode="&#x16a;" horiz-adv-x="702" 
d="M184 765v110h335v-110h-335zM351 -10q-142 0 -208.5 68t-66.5 187v455h135v-435q0 -82 34 -118.5t101 -36.5h10q67 0 101 36.5t34 118.5v435h135v-455q0 -119 -66.5 -187t-208.5 -68zM722 -155v-107h-742v107h742z" />
    <glyph glyph-name="umacron" unicode="&#x16b;" horiz-adv-x="575" 
d="M129 565v105h305v-105h-305zM508 500v-500h-130v73q-22 -37 -60.5 -60t-85.5 -23q-87 0 -128 54t-41 136v320h130v-305q0 -49 19.5 -74.5t54.5 -25.5h8q43 0 73 37.5t30 89.5v278h130zM595 -155v-107h-615v107h615z" />
    <glyph glyph-name="Ubreve" unicode="&#x16c;" horiz-adv-x="702" 
d="M351 835q22 0 39.5 13.5t20.5 41.5h110q-1 -68 -49 -109t-121 -41t-121 41t-49 109h110q3 -28 20.5 -41.5t39.5 -13.5zM351 -10q-142 0 -208.5 68t-66.5 187v455h135v-435q0 -82 34 -118.5t101 -36.5h10q67 0 101 36.5t34 118.5v435h135v-455q0 -119 -66.5 -187
t-208.5 -68zM722 -155v-107h-742v107h742z" />
    <glyph glyph-name="ubreve" unicode="&#x16d;" horiz-adv-x="575" 
d="M285 540q-73 0 -121 44t-49 116h110q1 -29 16.5 -47t43.5 -18t43.5 18t16.5 47h110q-1 -72 -49 -116t-121 -44zM508 500v-500h-130v73q-22 -37 -60.5 -60t-85.5 -23q-87 0 -128 54t-41 136v320h130v-305q0 -49 19.5 -74.5t54.5 -25.5h8q43 0 73 37.5t30 89.5v278h130z
M595 -155v-107h-615v107h615z" />
    <glyph glyph-name="Uring" unicode="&#x16e;" horiz-adv-x="702" 
d="M241 840q0 43 33.5 76.5t76.5 33.5q47 0 78.5 -33.5t31.5 -76.5q0 -47 -31.5 -78.5t-78.5 -31.5q-43 0 -76.5 31.5t-33.5 78.5zM351 880q-16 0 -28 -12t-12 -28t12 -28t28 -12t27.5 12t11.5 28t-11.5 28t-27.5 12zM351 -10q-142 0 -208.5 68t-66.5 187v455h135v-435
q0 -82 34 -118.5t101 -36.5h10q67 0 101 36.5t34 118.5v435h135v-455q0 -119 -66.5 -187t-208.5 -68zM722 -155v-107h-742v107h742z" />
    <glyph glyph-name="uring" unicode="&#x16f;" horiz-adv-x="575" 
d="M180 645q0 41 32 73t73 32q45 0 75 -32t30 -73q0 -45 -30 -75t-75 -30q-41 0 -73 30t-32 75zM285 689q-18 0 -31 -13t-13 -31t13 -31t31 -13t30.5 13t12.5 31t-12.5 31t-30.5 13zM508 500v-500h-130v73q-22 -37 -60.5 -60t-85.5 -23q-87 0 -128 54t-41 136v320h130v-305
q0 -49 19.5 -74.5t54.5 -25.5h8q43 0 73 37.5t30 89.5v278h130zM595 -155v-107h-615v107h615z" />
    <glyph glyph-name="Uhungarumlaut" unicode="&#x170;" horiz-adv-x="702" 
d="M383 745l40 145h155l-105 -145h-90zM194 745l40 145h155l-105 -145h-90zM351 -10q-142 0 -208.5 68t-66.5 187v455h135v-435q0 -82 34 -118.5t101 -36.5h10q67 0 101 36.5t34 118.5v435h135v-455q0 -119 -66.5 -187t-208.5 -68zM722 -155v-107h-742v107h742z" />
    <glyph glyph-name="uhungarumlaut" unicode="&#x171;" horiz-adv-x="575" 
d="M319 550l25 150h150l-100 -150h-75zM160 550l25 150h150l-100 -150h-75zM508 500v-500h-130v73q-22 -37 -60.5 -60t-85.5 -23q-87 0 -128 54t-41 136v320h130v-305q0 -49 19.5 -74.5t54.5 -25.5h8q43 0 73 37.5t30 89.5v278h130zM595 -155v-107h-615v107h615z" />
    <glyph glyph-name="Uogonek" unicode="&#x172;" horiz-adv-x="702" 
d="M722 -262h-325q-52 0 -86 36.5t-34 90.5q0 43 19 74.5t44 50.5q-136 3 -200 70.5t-64 184.5v455h135v-435q0 -82 34 -118.5t101 -36.5h10q67 0 101 36.5t34 118.5v435h135v-455q0 -97 -43.5 -160.5t-135.5 -84.5q-25 -15 -52.5 -42.5t-27.5 -62.5q0 -26 15.5 -38
t34.5 -12h305v-107zM148 -155v-107h-168v107h168z" />
    <glyph glyph-name="uogonek" unicode="&#x173;" horiz-adv-x="575" 
d="M595 -155v-107h-137q-52 0 -86 36.5t-34 90.5q0 49 24 82.5t53 52.5h-37v73q-22 -37 -60.5 -60t-85.5 -23q-87 0 -128 54t-41 136v320h130v-305q0 -49 19.5 -74.5t54.5 -25.5h8q43 0 73 37.5t30 89.5v278h130v-500q-25 -15 -52.5 -42.5t-27.5 -62.5q0 -26 15.5 -38
t34.5 -12h117zM209 -155v-107h-229v107h229z" />
    <glyph glyph-name="Wcircumflex" unicode="&#x174;" horiz-adv-x="950" 
d="M395 745h-110l120 145h140l120 -145h-110l-80 58zM582 0l-107 510l-108 -510h-175l-172 700h139l125 -555l110 555h165l110 -555l121 555h140l-173 -700h-175zM970 -155v-107h-990v107h990z" />
    <glyph glyph-name="wcircumflex" unicode="&#x175;" horiz-adv-x="791" 
d="M496 550l-100 72l-100 -72h-80l100 150h160l100 -150h-80zM484 0l-88 350l-83 -350h-146l-153 500h131l100 -371l81 371h139l87 -368l95 368h126l-143 -500h-146zM811 -155v-107h-831v107h831z" />
    <glyph glyph-name="Ycircumflex" unicode="&#x176;" horiz-adv-x="663" 
d="M254 745h-110l120 145h140l120 -145h-110l-80 58zM399 0h-135v280l-260 420h153l179 -294l176 294h148l-261 -420v-280zM683 -155v-107h-703v107h703z" />
    <glyph glyph-name="ycircumflex" unicode="&#x177;" horiz-adv-x="572" 
d="M388 550l-100 72l-100 -72h-80l100 150h160l100 -150h-80zM225 -262h-245v107h196q34 0 44.5 10.5t10.5 44.5v139l-218 461h146l135 -304l130 304h144l-213 -456v-176q0 -63 -33.5 -96.5t-96.5 -33.5zM592 -155v-107h-114v107h114z" />
    <glyph glyph-name="Ydieresis" unicode="&#x178;" horiz-adv-x="663" 
d="M370 765v120h125v-120h-125zM175 765v120h125v-120h-125zM399 0h-135v280l-260 420h153l179 -294l176 294h148l-261 -420v-280zM683 -155v-107h-703v107h703z" />
    <glyph glyph-name="Zacute" unicode="&#x179;" horiz-adv-x="635" 
d="M255 750l40 145h155l-105 -145h-90zM595 0h-555v115l388 465h-378v120h535v-115l-388 -465h398v-120zM655 -155v-107h-675v107h675z" />
    <glyph glyph-name="zacute" unicode="&#x17a;" horiz-adv-x="509" 
d="M211 550l25 150h150l-100 -150h-75zM474 0h-435v100l258 285h-253v115h415v-100l-258 -285h273v-115zM529 -155v-107h-549v107h549z" />
    <glyph glyph-name="Zdotaccent" unicode="&#x17b;" horiz-adv-x="635" 
d="M257 770v135h140v-135h-140zM595 0h-555v115l388 465h-378v120h535v-115l-388 -465h398v-120zM655 -155v-107h-675v107h675z" />
    <glyph glyph-name="zdotaccent" unicode="&#x17c;" horiz-adv-x="509" 
d="M193 565v135h140v-135h-140zM474 0h-435v100l258 285h-253v115h415v-100l-258 -285h273v-115zM529 -155v-107h-549v107h549z" />
    <glyph glyph-name="Zcaron" unicode="&#x17d;" horiz-adv-x="635" 
d="M140 890h110l80 -58l80 58h110l-120 -145h-140zM595 0h-555v115l388 465h-378v120h535v-115l-388 -465h398v-120zM655 -155v-107h-675v107h675z" />
    <glyph glyph-name="zcaron" unicode="&#x17e;" horiz-adv-x="509" 
d="M179 550l-100 150h80l100 -72l100 72h80l-100 -150h-160zM474 0h-435v100l258 285h-253v115h415v-100l-258 -285h273v-115zM529 -155v-107h-549v107h549z" />
    <glyph glyph-name="florin" unicode="&#x192;" horiz-adv-x="451" 
d="M207 -72q-16 -101 -60.5 -145.5t-134.5 -44.5h-73v107h59q42 0 59.5 16.5t22.5 53.5l67 441h-97v112h115l6 42q16 101 58 145.5t131 44.5h74v-115h-60q-40 0 -55.5 -16.5t-21.5 -53.5l-7 -47h116v-112h-133zM471 -155v-107h-155v107h155z" />
    <glyph glyph-name="AEmacron" unicode="&#x1e2;" horiz-adv-x="991" 
d="M466 765v110h335v-110h-335zM472 285l-41 287l-145 -287h186zM513 0l-24 165h-264l-83 -165h-147l365 700h548v-120h-343l24 -161h289v-120h-274l26 -179h338v-120h-455zM1011 -155v-107h-1031v107h1031z" />
    <glyph glyph-name="aemacron" unicode="&#x1e3;" horiz-adv-x="846" 
d="M275 565v105h305v-105h-305zM582 -10q-55 0 -105 24.5t-84 70.5q-24 -40 -73.5 -67.5t-109.5 -27.5q-75 0 -124.5 40t-49.5 107q0 40 14.5 70t39.5 50t58.5 31t70.5 14l126 11v12q0 34 -22 57t-59 23h-6q-37 0 -58.5 -19t-23.5 -41h-130q7 70 64.5 117.5t150.5 47.5
q51 0 93 -14t70 -42q30 26 69.5 41t88.5 15q56 0 99 -19.5t71.5 -53t43 -80.5t14.5 -101q0 -11 -0.5 -23t-1.5 -24h-337v-9q7 -48 40.5 -76.5t72.5 -28.5h6q37 0 59.5 19t29.5 44h129q-18 -73 -75.5 -120.5t-150.5 -47.5zM574 405q-39 0 -68 -23t-35 -63v-10h213
q-2 45 -32.5 70.5t-71.5 25.5h-6zM227 95h5q45 0 79 30t34 79v14l-108 -11q-25 -2 -49 -16t-24 -45q0 -23 18 -37t45 -14zM897 -155v-107h-917v107h917z" />
    <glyph glyph-name="Aringacute" unicode="&#x1fa;" horiz-adv-x="713" 
d="M324 928l16 88h125l-62 -88h-79zM271 818q0 38 25.5 63.5t63.5 25.5t63.5 -25.5t25.5 -63.5t-25.5 -63.5t-63.5 -25.5t-63.5 25.5t-25.5 63.5zM360 852q-13 0 -23.5 -10.5t-10.5 -23.5t10.5 -23.5t23.5 -10.5t23 10.5t10 23.5t-10 23.5t-23 10.5zM455 285l-101 265
l-101 -265h202zM2 0l277 700h158l270 -700h-143l-63 165h-294l-63 -165h-142zM743 -155v-107h-773v107h773z" />
    <glyph glyph-name="aringacute" unicode="&#x1fb;" horiz-adv-x="534" 
d="M299 766h-79l25 135h150zM256 530q-41 0 -73 30t-32 75q0 41 32 73t73 32q45 0 75 -32t30 -73q0 -45 -30 -75t-75 -30zM258 679q-18 0 -31 -13t-13 -31t13 -31t31 -13t30.5 13t12.5 31t-12.5 31t-30.5 13zM227 95h5q45 0 79 30t34 79v14l-108 -11q-25 -2 -49 -16t-24 -45
q0 -23 18 -37t45 -14zM348 61q-22 -32 -60.5 -51.5t-87.5 -19.5q-67 0 -115.5 40t-48.5 107q0 40 14.5 70t39.5 50t58.5 31t70.5 14l126 11v12q0 34 -22 57t-59 23h-6q-37 0 -58.5 -19t-23.5 -41h-130q7 70 64.5 117.5t150.5 47.5t151.5 -46.5t58.5 -133.5v-220
q0 -22 0.5 -53t4.5 -57h-122q-2 11 -3.5 27.5t-2.5 33.5zM554 -155v-107h-574v107h574z" />
    <glyph glyph-name="AEacute" unicode="&#x1fc;" horiz-adv-x="991" 
d="M551 745l40 145h155l-105 -145h-90zM472 285l-41 287l-145 -287h186zM513 0l-24 165h-264l-83 -165h-147l365 700h548v-120h-343l24 -161h289v-120h-274l26 -179h338v-120h-455zM1011 -155v-107h-1031v107h1031z" />
    <glyph glyph-name="aeacute" unicode="&#x1fd;" horiz-adv-x="846" 
d="M385 550l25 150h150l-100 -150h-75zM582 -10q-55 0 -105 24.5t-84 70.5q-24 -40 -73.5 -67.5t-109.5 -27.5q-75 0 -124.5 40t-49.5 107q0 40 14.5 70t39.5 50t58.5 31t70.5 14l126 11v12q0 34 -22 57t-59 23h-6q-37 0 -58.5 -19t-23.5 -41h-130q7 70 64.5 117.5
t150.5 47.5q51 0 93 -14t70 -42q30 26 69.5 41t88.5 15q56 0 99 -19.5t71.5 -53t43 -80.5t14.5 -101q0 -11 -0.5 -23t-1.5 -24h-337v-9q7 -48 40.5 -76.5t72.5 -28.5h6q37 0 59.5 19t29.5 44h129q-18 -73 -75.5 -120.5t-150.5 -47.5zM574 405q-39 0 -68 -23t-35 -63v-10h213
q-2 45 -32.5 70.5t-71.5 25.5h-6zM227 95h5q45 0 79 30t34 79v14l-108 -11q-25 -2 -49 -16t-24 -45q0 -23 18 -37t45 -14zM897 -155v-107h-917v107h917z" />
    <glyph glyph-name="Oslashacute" unicode="&#x1fe;" horiz-adv-x="769" 
d="M347 745l40 145h155l-105 -145h-90zM180 351q0 -36 6 -67.5t16 -57.5l275 347q-19 9 -41 13.5t-46 4.5h-10q-93 0 -146.5 -64t-53.5 -176zM380 111h10q93 0 146.5 64t53.5 176q0 35 -6 66.5t-16 56.5l-273 -346q19 -8 40 -12.5t45 -4.5zM385 -9q-47 0 -89 9.5t-79 28.5
l-61 -77l-105 82l64 82q-33 44 -51.5 103.5t-18.5 131.5q0 84 25 151t70 113.5t107.5 71t137.5 24.5q47 0 90 -10t79 -29l62 78l105 -82l-65 -83q33 -44 51 -103.5t18 -130.5q0 -84 -25 -151t-70 -113.5t-107.5 -71t-137.5 -24.5zM789 -155v-107h-809v107h809z" />
    <glyph glyph-name="oslashacute" unicode="&#x1ff;" horiz-adv-x="578" 
d="M268 550l25 150h150l-100 -150h-75zM170 250q0 -16 1.5 -30t4.5 -27l157 205q-9 4 -19 5.5t-21 1.5h-8q-52 0 -83.5 -41t-31.5 -114zM285 95h8q52 0 83.5 41t31.5 114q0 16 -1.5 30t-4.5 26l-157 -204q9 -4 19.5 -5.5t20.5 -1.5zM289 -10q-31 0 -59 6t-53 18l-50 -65
l-84 70l49 64q-25 33 -39 75.5t-14 91.5q0 56 18 104t50.5 82.5t79 54t102.5 19.5q31 0 59 -6t53 -18l48 63l89 -66l-51 -66q25 -34 38.5 -76t13.5 -91q0 -56 -18 -104t-50.5 -82.5t-79 -54t-102.5 -19.5zM598 -155v-107h-618v107h618z" />
    <glyph glyph-name="Scommaaccent" unicode="&#x218;" horiz-adv-x="634" 
d="M459 480q-4 54 -40 82t-90 28h-10q-56 0 -88 -25.5t-32 -59.5t20 -52t65 -27l105 -21q90 -18 142 -66.5t52 -133.5q0 -45 -18 -84.5t-52 -68t-84 -45.5t-115 -17q-143 0 -212 68.5t-73 176.5h135q4 -52 43 -88.5t117 -36.5h10q56 0 85 25.5t29 59.5q0 30 -16.5 48.5
t-62.5 28.5l-125 26q-93 19 -136.5 71.5t-43.5 130.5q0 39 17.5 77t50.5 67.5t83 47.5t114 18q63 0 113 -17.5t83.5 -48t51 -72.5t17.5 -92h-135zM654 -155v-107h-149v107h149zM248 -377h-28v75h23q28 0 41 11t13 28v1h-317v107h395v-107q0 -50 -35.5 -82.5t-91.5 -32.5z
" />
    <glyph glyph-name="scommaaccent" unicode="&#x219;" horiz-adv-x="497" 
d="M248 -10q-101 0 -158.5 46.5t-57.5 128.5h133q0 -34 23.5 -54.5t60.5 -20.5h8q30 0 48 13.5t18 35.5q0 19 -12 31t-39 19l-65 16q-78 19 -116.5 55t-38.5 96q0 67 54.5 110.5t147.5 43.5q97 0 150.5 -46.5t53.5 -128.5h-130q-4 36 -22.5 55.5t-52.5 19.5h-8
q-26 0 -44.5 -13.5t-18.5 -35.5q0 -20 16.5 -32t47.5 -19l67 -17q72 -18 106 -54t34 -95q0 -63 -52 -108.5t-153 -45.5zM517 -155v-107h-71v107h71zM189 -377h-28v75h23q28 0 41 11t13 28v1h-258v107h336v-107q0 -50 -35.5 -82.5t-91.5 -32.5z" />
    <glyph glyph-name="uni021A" unicode="&#x21a;" horiz-adv-x="656" 
d="M260 0v580h-242v120h620v-120h-243v-580h-135zM676 -155v-107h-154v107h154zM265 -377h-28v75h23q28 0 41 11t13 28v1h-334v107h412v-107q0 -50 -35.5 -82.5t-91.5 -32.5z" />
    <glyph glyph-name="uni021B" unicode="&#x21b;" horiz-adv-x="407" 
d="M377 110v-110h-127q-63 0 -96.5 33.5t-33.5 96.5v265h-103v105h103v162h130v-162h112v-105h-112v-230q0 -34 10.5 -44.5t44.5 -10.5h72zM175 -377h-28v75h23q28 0 41 11t13 28v1h-244v107h322v-107q0 -50 -35.5 -82.5t-91.5 -32.5z" />
    <glyph glyph-name="uni0226" unicode="&#x226;" horiz-adv-x="713" 
d="M289 765v135h140v-135h-140zM455 285l-101 265l-101 -265h202zM2 0l277 700h158l270 -700h-143l-63 165h-294l-63 -165h-142zM743 -155v-107h-773v107h773z" />
    <glyph glyph-name="uni0227" unicode="&#x227;" horiz-adv-x="534" 
d="M195 565v135h140v-135h-140zM227 95h5q45 0 79 30t34 79v14l-108 -11q-25 -2 -49 -16t-24 -45q0 -23 18 -37t45 -14zM348 61q-22 -32 -60.5 -51.5t-87.5 -19.5q-67 0 -115.5 40t-48.5 107q0 40 14.5 70t39.5 50t58.5 31t70.5 14l126 11v12q0 34 -22 57t-59 23h-6
q-37 0 -58.5 -19t-23.5 -41h-130q7 70 64.5 117.5t150.5 47.5t151.5 -46.5t58.5 -133.5v-220q0 -22 0.5 -53t4.5 -57h-122q-2 11 -3.5 27.5t-2.5 33.5zM554 -155v-107h-574v107h574z" />
    <glyph glyph-name="Ymacron" unicode="&#x232;" horiz-adv-x="663" 
d="M167 765v110h335v-110h-335zM399 0h-135v280l-260 420h153l179 -294l176 294h148l-261 -420v-280zM683 -155v-107h-703v107h703z" />
    <glyph glyph-name="ymacron" unicode="&#x233;" horiz-adv-x="572" 
d="M138 565v105h305v-105h-305zM225 -262h-245v107h196q34 0 44.5 10.5t10.5 44.5v139l-218 461h146l135 -304l130 304h144l-213 -456v-176q0 -63 -33.5 -96.5t-96.5 -33.5zM592 -155v-107h-114v107h114z" />
    <glyph glyph-name="dotlessj" unicode="&#x237;" horiz-adv-x="272" 
d="M205 500v-637q0 -60 -32.5 -92.5t-92.5 -32.5h-162v107h102q30 0 42.5 12.5t12.5 42.5v600h130z" />
    <glyph glyph-name="circumflex" unicode="&#x2c6;" horiz-adv-x="380" 
d="M290 550l-100 72l-100 -72h-80l100 150h160l100 -150h-80z" />
    <glyph glyph-name="caron" unicode="&#x2c7;" horiz-adv-x="380" 
d="M110 550l-100 150h80l100 -72l100 72h80l-100 -150h-160z" />
    <glyph glyph-name="breve" unicode="&#x2d8;" horiz-adv-x="360" 
d="M180 540q-73 0 -121 44t-49 116h110q1 -29 16.5 -47t43.5 -18t43.5 18t16.5 47h110q-1 -72 -49 -116t-121 -44z" />
    <glyph glyph-name="dotaccent" unicode="&#x2d9;" horiz-adv-x="160" 
d="M10 565v135h140v-135h-140z" />
    <glyph glyph-name="ring" unicode="&#x2da;" horiz-adv-x="230" 
d="M10 645q0 41 32 73t73 32q45 0 75 -32t30 -73q0 -45 -30 -75t-75 -30q-41 0 -73 30t-32 75zM115 689q-18 0 -31 -13t-13 -31t13 -31t31 -13t30.5 13t12.5 31t-12.5 31t-30.5 13z" />
    <glyph glyph-name="ogonek" unicode="&#x2db;" horiz-adv-x="210" 
d="M140 -262q-52 0 -86 36.5t-34 90.5q0 30 10 54.5t25.5 43t34 32t35.5 20.5l65 -15q-25 -15 -52.5 -42.5t-27.5 -62.5q0 -26 15.5 -38t34.5 -12h70v-107h-90z" />
    <glyph glyph-name="tilde" unicode="&#x2dc;" horiz-adv-x="399" 
d="M264 655q13 0 21.5 11.5t8.5 28.5h95v-26q0 -46 -33 -80t-77 -34q-19 0 -38.5 6t-41.5 18l-18 10q-12 7 -21 11.5t-21 4.5q-13 0 -23.5 -11.5t-10.5 -28.5h-95v26q0 46 32.5 80t79.5 34q28 0 44.5 -6.5t30.5 -13.5l18 -10q12 -6 24.5 -13t24.5 -7z" />
    <glyph glyph-name="hungarumlaut" unicode="&#x2dd;" horiz-adv-x="354" 
d="M169 550l25 150h150l-100 -150h-75zM10 550l25 150h150l-100 -150h-75z" />
    <glyph glyph-name="Delta" unicode="&#x394;" horiz-adv-x="703" 
d="M22 0v90l255 610h149l255 -610v-90h-659zM537 120l-185 441l-186 -441h371zM723 -155v-107h-743v107h743z" />
    <glyph glyph-name="mu" unicode="&#x3bc;" horiz-adv-x="579" 
d="M599 -155v-107h-272v107h272zM-20 -262v107h87v655h130v-305q0 -49 19.5 -74.5t54.5 -25.5h8q43 0 73 37.5t30 89.5v278h130v-500h-130v73q-22 -37 -60.5 -60t-85.5 -23q-10 0 -20 1t-19 2v-255h-217z" />
    <glyph glyph-name="pi" unicode="&#x3c0;" horiz-adv-x="702" 
d="M263 0h-130v392h-115v108h640v-108h-115v-244q0 -22 9 -31t31 -9h75v-108h-140q-52 0 -78.5 26.5t-26.5 78.5v287h-150v-392zM722 -155v-107h-742v107h742z" />
    <glyph glyph-name="Wgrave" unicode="&#x1e80;" horiz-adv-x="950" 
d="M485 890l40 -145h-90l-105 145h155zM582 0l-107 510l-108 -510h-175l-172 700h139l125 -555l110 555h165l110 -555l121 555h140l-173 -700h-175zM970 -155v-107h-990v107h990z" />
    <glyph glyph-name="wgrave" unicode="&#x1e81;" horiz-adv-x="791" 
d="M407 700l25 -150h-75l-100 150h150zM484 0l-88 350l-83 -350h-146l-153 500h131l100 -371l81 371h139l87 -368l95 368h126l-143 -500h-146zM811 -155v-107h-831v107h831z" />
    <glyph glyph-name="Wacute" unicode="&#x1e82;" horiz-adv-x="950" 
d="M430 745l40 145h155l-105 -145h-90zM582 0l-107 510l-108 -510h-175l-172 700h139l125 -555l110 555h165l110 -555l121 555h140l-173 -700h-175zM970 -155v-107h-990v107h990z" />
    <glyph glyph-name="wacute" unicode="&#x1e83;" horiz-adv-x="791" 
d="M361 550l25 150h150l-100 -150h-75zM484 0l-88 350l-83 -350h-146l-153 500h131l100 -371l81 371h139l87 -368l95 368h126l-143 -500h-146zM811 -155v-107h-831v107h831z" />
    <glyph glyph-name="Wdieresis" unicode="&#x1e84;" horiz-adv-x="950" 
d="M512 765v120h125v-120h-125zM317 765v120h125v-120h-125zM582 0l-107 510l-108 -510h-175l-172 700h139l125 -555l110 555h165l110 -555l121 555h140l-173 -700h-175zM970 -155v-107h-990v107h990z" />
    <glyph glyph-name="wdieresis" unicode="&#x1e85;" horiz-adv-x="791" 
d="M442 565v130h120v-130h-120zM242 565v130h120v-130h-120zM484 0l-88 350l-83 -350h-146l-153 500h131l100 -371l81 371h139l87 -368l95 368h126l-143 -500h-146zM811 -155v-107h-831v107h831z" />
    <glyph glyph-name="uni1EA0" unicode="&#x1ea0;" horiz-adv-x="713" 
d="M455 285l-101 265l-101 -265h202zM2 0l277 700h158l270 -700h-143l-63 165h-294l-63 -165h-142zM302 -262v130h130v-130h-130zM743 -155v-107h-181v107h181zM172 -155v-107h-202v107h202z" />
    <glyph glyph-name="uni1EA1" unicode="&#x1ea1;" horiz-adv-x="534" 
d="M227 95h5q45 0 79 30t34 79v14l-108 -11q-25 -2 -49 -16t-24 -45q0 -23 18 -37t45 -14zM348 61q-22 -32 -60.5 -51.5t-87.5 -19.5q-67 0 -115.5 40t-48.5 107q0 40 14.5 70t39.5 50t58.5 31t70.5 14l126 11v12q0 34 -22 57t-59 23h-6q-37 0 -58.5 -19t-23.5 -41h-130
q7 70 64.5 117.5t150.5 47.5t151.5 -46.5t58.5 -133.5v-220q0 -22 0.5 -53t4.5 -57h-122q-2 11 -3.5 27.5t-2.5 33.5zM191 -262v130h130v-130h-130zM554 -155v-107h-103v107h103zM61 -155v-107h-81v107h81z" />
    <glyph glyph-name="uni1EB8" unicode="&#x1eb8;" horiz-adv-x="661" 
d="M82 0v700h530v-120h-395v-161h335v-120h-335v-179h405v-120h-540zM287 -262v130h130v-130h-130zM681 -155v-107h-134v107h134zM157 -155v-107h-177v107h177z" />
    <glyph glyph-name="uni1EB9" unicode="&#x1eb9;" horiz-adv-x="541" 
d="M503 158q-18 -73 -75.5 -120.5t-150.5 -47.5q-47 0 -90 17.5t-76 50.5t-52.5 81.5t-19.5 110.5q0 56 16 104t46.5 82.5t75 54t100.5 19.5t99 -19.5t71.5 -53t43 -80.5t14.5 -101q0 -11 -0.5 -23t-1.5 -24h-338q4 -51 38.5 -82.5t75.5 -31.5h6q37 0 59.5 19t29.5 44h129z
M165 309h214q-2 45 -32.5 70.5t-71.5 25.5h-6q-41 0 -71.5 -25.5t-32.5 -70.5zM207 -262v130h130v-130h-130zM561 -155v-107h-94v107h94zM77 -155v-107h-97v107h97z" />
    <glyph glyph-name="uni1ECA" unicode="&#x1eca;" horiz-adv-x="299" 
d="M82 0v700h135v-700h-135zM84 -262v130h130v-130h-130z" />
    <glyph glyph-name="uni1ECB" unicode="&#x1ecb;" horiz-adv-x="264" 
d="M62 565v135h140v-135h-140zM67 0v500h130v-500h-130zM67 -262v130h130v-130h-130z" />
    <glyph glyph-name="uni1ECC" unicode="&#x1ecc;" horiz-adv-x="766" 
d="M383 -10q-75 0 -137.5 24.5t-107.5 71t-70 113.5t-25 151t25 151t70 113.5t107.5 71t137.5 24.5t137.5 -24.5t107.5 -71t70 -113.5t25 -151t-25 -151t-70 -113.5t-107.5 -71t-137.5 -24.5zM378 110h10q93 0 146.5 64t53.5 176t-53.5 176t-146.5 64h-10q-93 0 -146.5 -64
t-53.5 -176t53.5 -176t146.5 -64zM318 -262v130h130v-130h-130zM786 -155v-107h-208v107h208zM188 -155v-107h-208v107h208z" />
    <glyph glyph-name="uni1ECD" unicode="&#x1ecd;" horiz-adv-x="576" 
d="M288 -10q-56 0 -102.5 19.5t-79 54t-50.5 82.5t-18 104t18 104t50.5 82.5t79 54t102.5 19.5t102.5 -19.5t79 -54t50.5 -82.5t18 -104t-18 -104t-50.5 -82.5t-79 -54t-102.5 -19.5zM292 95q52 0 83.5 41t31.5 114t-31.5 114t-83.5 41h-8q-52 0 -83.5 -41t-31.5 -114
t31.5 -114t83.5 -41h8zM226 -262v130h130v-130h-130zM596 -155v-107h-110v107h110zM96 -155v-107h-116v107h116z" />
    <glyph glyph-name="uni1EE4" unicode="&#x1ee4;" horiz-adv-x="702" 
d="M351 -10q-142 0 -208.5 68t-66.5 187v455h135v-435q0 -82 34 -118.5t101 -36.5h10q67 0 101 36.5t34 118.5v435h135v-455q0 -119 -66.5 -187t-208.5 -68zM285 -262v130h130v-130h-130zM722 -155v-107h-177v107h177zM155 -155v-107h-175v107h175z" />
    <glyph glyph-name="uni1EE5" unicode="&#x1ee5;" horiz-adv-x="575" 
d="M508 500v-500h-130v73q-22 -37 -60.5 -60t-85.5 -23q-87 0 -128 54t-41 136v320h130v-305q0 -49 19.5 -74.5t54.5 -25.5h8q43 0 73 37.5t30 89.5v278h130zM223 -262v130h130v-130h-130zM595 -155v-107h-112v107h112zM93 -155v-107h-113v107h113z" />
    <glyph glyph-name="Ygrave" unicode="&#x1ef2;" horiz-adv-x="663" 
d="M349 890l40 -145h-90l-105 145h155zM399 0h-135v280l-260 420h153l179 -294l176 294h148l-261 -420v-280zM683 -155v-107h-703v107h703z" />
    <glyph glyph-name="ygrave" unicode="&#x1ef3;" horiz-adv-x="572" 
d="M314 700l25 -150h-75l-100 150h150zM225 -262h-245v107h196q34 0 44.5 10.5t10.5 44.5v139l-218 461h146l135 -304l130 304h144l-213 -456v-176q0 -63 -33.5 -96.5t-96.5 -33.5zM592 -155v-107h-114v107h114z" />
    <glyph glyph-name="enspace" unicode="&#x2002;" horiz-adv-x="460" 
 />
    <glyph glyph-name="emspace" unicode="&#x2003;" horiz-adv-x="960" 
 />
    <glyph glyph-name="thinspace" unicode="&#x2009;" horiz-adv-x="85" 
d="M105 -155v-107h-125v107h125z" />
    <glyph glyph-name="endash" unicode="&#x2013;" horiz-adv-x="594" 
d="M62 250v105h470v-105h-470z" />
    <glyph glyph-name="emdash" unicode="&#x2014;" horiz-adv-x="914" 
d="M62 250v105h790v-105h-790z" />
    <glyph glyph-name="quoteleft" unicode="&#x2018;" horiz-adv-x="283" 
d="M196 700h41v-75h-36q-34 0 -48 -19.5t-14 -45.5v-10h65v-145h-145v160q0 26 10 50.5t28.5 43t43.5 30t55 11.5z" />
    <glyph glyph-name="quoteright" unicode="&#x2019;" horiz-adv-x="280" 
d="M92 405h-41v75h36q34 0 48 19.5t14 45.5v10h-65v145h145v-160q0 -26 -10 -50.5t-28.5 -43t-43.5 -30t-55 -11.5zM300 -155v-107h-320v107h320z" />
    <glyph glyph-name="quotesinglbase" unicode="&#x201a;" horiz-adv-x="272" 
d="M72 -150h-41v75h36q34 0 48 19.5t14 45.5v10h-65v145h145v-160q0 -26 -10 -50.5t-28.5 -43t-43.5 -30t-55 -11.5z" />
    <glyph glyph-name="quotedblleft" unicode="&#x201c;" horiz-adv-x="488" 
d="M401 699h41v-75h-36q-34 0 -48 -19.5t-14 -45.5v-10h65v-145h-145v160q0 26 10 50.5t28.5 43t43.5 30t55 11.5zM196 699h41v-75h-36q-34 0 -48 -19.5t-14 -45.5v-10h65v-145h-145v160q0 26 10 50.5t28.5 43t43.5 30t55 11.5z" />
    <glyph glyph-name="quotedblright" unicode="&#x201d;" horiz-adv-x="485" 
d="M92 405h-41v75h36q34 0 48 19.5t14 45.5v10h-65v145h145v-160q0 -26 -10 -50.5t-28.5 -43t-43.5 -30t-55 -11.5zM297 405h-41v75h36q34 0 48 19.5t14 45.5v10h-65v145h145v-160q0 -26 -10 -50.5t-28.5 -43t-43.5 -30t-55 -11.5z" />
    <glyph glyph-name="quotedblbase" unicode="&#x201e;" horiz-adv-x="477" 
d="M277 -150h-41v75h36q34 0 48 19.5t14 45.5v10h-65v145h145v-160q0 -26 -10 -50.5t-28.5 -43t-43.5 -30t-55 -11.5zM72 -150h-41v75h36q34 0 48 19.5t14 45.5v10h-65v145h145v-160q0 -26 -10 -50.5t-28.5 -43t-43.5 -30t-55 -11.5z" />
    <glyph glyph-name="dagger" unicode="&#x2020;" horiz-adv-x="530" 
d="M550 -262h-570v107h220v610h-152v110h152v220h130v-220h152v-110h-152v-610h220v-107z" />
    <glyph glyph-name="daggerdbl" unicode="&#x2021;" horiz-adv-x="530" 
d="M622 -262h-642v107h220v290h-152v110h152v210h-152v110h152v220h130v-220h152v-110h-152v-210h152v-110h-152v-290h292v-107z" />
    <glyph glyph-name="bullet" unicode="&#x2022;" horiz-adv-x="548" 
d="M274 145q-42 0 -79.5 16t-65.5 44t-44 65.5t-16 79.5t16 79.5t44 65.5t65.5 44t79.5 16t79.5 -16t65.5 -44t44 -65.5t16 -79.5t-16 -79.5t-44 -65.5t-65.5 -44t-79.5 -16zM568 -155v-107h-588v107h588z" />
    <glyph glyph-name="ellipsis" unicode="&#x2026;" horiz-adv-x="779" 
d="M572 0v145h145v-145h-145zM317 0v145h145v-145h-145zM62 0v145h145v-145h-145zM799 -155v-107h-819v107h819z" />
    <glyph glyph-name="perthousand" unicode="&#x2030;" horiz-adv-x="1178" 
d="M206 300q-46 0 -79 17.5t-54 45.5t-31 64.5t-10 74.5t10 74.5t31 65t54 46t79 17.5t79 -17.5t54 -46t31 -65t10 -74.5t-10 -74.5t-31 -64.5t-54 -45.5t-79 -17.5zM204 392h4q31 0 47.5 29t16.5 81t-16.5 81.5t-47.5 29.5h-4q-31 0 -47.5 -29.5t-16.5 -81.5t16.5 -81
t47.5 -29zM975 -5q-40 0 -69.5 12.5t-50.5 34.5q-21 -22 -50.5 -34.5t-69.5 -12.5q-46 0 -79 17.5t-54 45.5t-31 64.5t-10 74.5t10 74.5t31 65t54 46t79 17.5q40 0 69.5 -13t50.5 -35q21 22 50.5 35t69.5 13q46 0 79 -17.5t54 -46t31 -65t10 -74.5t-10 -74.5t-31 -64.5
t-54 -45.5t-79 -17.5zM733 87h4q31 0 47.5 29t16.5 81t-16.5 81.5t-47.5 29.5h-4q-31 0 -47.5 -29.5t-16.5 -81.5t16.5 -81t47.5 -29zM973 87h4q31 0 47.5 29t16.5 81t-16.5 81.5t-47.5 29.5h-4q-31 0 -47.5 -29.5t-16.5 -81.5t16.5 -81t47.5 -29zM1198 -155v-107h-845v107
h845zM-20 -262v107h126l514 855h117l-578 -962h-179z" />
    <glyph glyph-name="guilsinglleft" unicode="&#x2039;" horiz-adv-x="362" 
d="M327 70h-150l-145 215l145 215h150l-145 -215zM382 -155v-107h-402v107h402z" />
    <glyph glyph-name="guilsinglright" unicode="&#x203a;" horiz-adv-x="362" 
d="M185 70h-150l145 215l-145 215h150l145 -215zM382 -155v-107h-402v107h402z" />
    <glyph glyph-name="fraction" unicode="&#x2044;" horiz-adv-x="200" 
d="M-210 -262h-117l577 962h117zM387 -155v-107h-402v107h402z" />
    <glyph glyph-name="zero.superior" unicode="&#x2070;" horiz-adv-x="420" 
d="M210 410q-46 0 -79 17.5t-54 45.5t-31 64.5t-10 74.5t10 74.5t31 65t54 46t79 17.5t79 -17.5t54 -46t31 -65t10 -74.5t-10 -74.5t-31 -64.5t-54 -45.5t-79 -17.5zM208 502h4q31 0 47.5 29t16.5 81t-16.5 81.5t-47.5 29.5h-4q-31 0 -47.5 -29.5t-16.5 -81.5t16.5 -81
t47.5 -29zM440 -155v-107h-460v107h460z" />
    <glyph glyph-name="i.superior" unicode="&#x2071;" horiz-adv-x="198" 
d="M45 735v75h108v-75h-108zM48 415v285h102v-285h-102zM218 -155v-107h-238v107h238z" />
    <glyph glyph-name="four.superior" unicode="&#x2074;" horiz-adv-x="406" 
d="M321 415h-97v62h-196v109l174 224h119v-249h53v-84h-53v-62zM224 698l-105 -137h105v137zM426 -155v-107h-446v107h446z" />
    <glyph glyph-name="five.superior" unicode="&#x2075;" horiz-adv-x="381" 
d="M182 410q-63 0 -107 34t-48 91h112q4 -15 16.5 -26t29.5 -11h4q20 0 33.5 15t13.5 34q0 20 -12.5 32.5t-32.5 12.5h-4q-10 0 -20.5 -4.5t-17.5 -12.5h-108l44 235h252v-88h-174l-14 -67q13 11 30.5 17t41.5 6q21 0 43 -8t39 -23.5t28 -39.5t11 -55q0 -65 -45 -103.5
t-115 -38.5zM401 -155v-107h-421v107h421z" />
    <glyph glyph-name="six.superior" unicode="&#x2076;" horiz-adv-x="395" 
d="M354 548q0 -60 -42.5 -99t-109.5 -39q-75 0 -120.5 49.5t-45.5 133.5q0 102 51 162t135 60q63 0 100 -34t38 -85h-104q-3 13 -13 22t-26 9h-6q-31 0 -51 -28.5t-24 -66.5q15 19 38 29.5t53 10.5q54 0 90.5 -35t36.5 -89zM150 543q0 -19 13.5 -32t33.5 -13h4
q20 0 33.5 13.5t13.5 32.5t-13.5 31t-33.5 12h-4q-19 0 -33 -12.5t-14 -31.5zM415 -155v-107h-435v107h435z" />
    <glyph glyph-name="seven.superior" unicode="&#x2077;" horiz-adv-x="344" 
d="M203 415h-113v13q0 81 29.5 156.5t84.5 135.5h-180v90h299v-78q-59 -59 -89.5 -137t-30.5 -162v-18zM364 -155v-107h-384v107h384z" />
    <glyph glyph-name="eight.superior" unicode="&#x2078;" horiz-adv-x="384" 
d="M193 410q-65 0 -107 30.5t-42 77.5q0 32 19 56.5t50 34.5q-32 12 -53.5 35.5t-21.5 62.5q0 48 46 78t109 30t108.5 -30t45.5 -78q0 -39 -21.5 -62.5t-54.5 -35.5q31 -10 50 -34.5t19 -56.5q0 -47 -41 -77.5t-106 -30.5zM241 690q0 18 -14 27.5t-32 9.5h-5q-18 0 -32 -9.5
t-14 -27.5t14 -27.5t32 -9.5h5q18 0 32 9.5t14 27.5zM190 569q-16 0 -28 -10t-12 -26t12 -25.5t28 -9.5h5q16 0 27.5 9.5t11.5 25.5t-11.5 26t-27.5 10h-5zM404 -155v-107h-424v107h424z" />
    <glyph glyph-name="nine.superior" unicode="&#x2079;" horiz-adv-x="396" 
d="M246 682q0 19 -13.5 32t-33.5 13h-4q-20 0 -33.5 -13.5t-13.5 -32.5t13.5 -31t33.5 -12h4q19 0 33 12.5t14 31.5zM42 677q0 60 42.5 99t109.5 39q75 0 120.5 -49.5t45.5 -133.5q0 -102 -51 -162t-135 -60q-63 0 -100 34t-38 85h104q3 -13 13 -22t26 -9h6q31 0 51 28.5
t24 66.5q-15 -19 -38 -29.5t-53 -10.5q-54 0 -90.5 35t-36.5 89zM416 -155v-107h-436v107h436z" />
    <glyph glyph-name="n.superior" unicode="&#x207f;" horiz-adv-x="386" 
d="M48 415v285h102v-40q15 26 39.5 35.5t46.5 9.5q57 0 81 -34t24 -83v-173h-102v169q0 20 -10 31t-27 11h-4q-19 0 -33.5 -13t-14.5 -36v-162h-102zM406 -155v-107h-426v107h426z" />
    <glyph glyph-name="zero.inferior" unicode="&#x2080;" horiz-adv-x="420" 
d="M210 -5q-46 0 -79 17.5t-54 45.5t-31 64.5t-10 74.5t10 74.5t31 65t54 46t79 17.5t79 -17.5t54 -46t31 -65t10 -74.5t-10 -74.5t-31 -64.5t-54 -45.5t-79 -17.5zM208 87h4q31 0 47.5 29t16.5 81t-16.5 81.5t-47.5 29.5h-4q-31 0 -47.5 -29.5t-16.5 -81.5t16.5 -81
t47.5 -29zM440 -155v-107h-460v107h460z" />
    <glyph glyph-name="one.inferior" unicode="&#x2081;" horiz-adv-x="301" 
d="M244 0h-105v256l-109 -90v126l125 103h89v-395zM321 -155v-107h-341v107h341z" />
    <glyph glyph-name="two.inferior" unicode="&#x2082;" horiz-adv-x="374" 
d="M334 0h-296v84l149 135q13 12 25.5 26t12.5 31q0 15 -10.5 25.5t-26.5 10.5h-4q-16 0 -28 -13t-13 -30h-107q4 60 48.5 95.5t107.5 35.5q33 0 59.5 -10.5t44.5 -27t27.5 -37.5t9.5 -42q0 -36 -17.5 -60t-40.5 -46l-95 -87h154v-90zM394 -155v-107h-414v107h414z" />
    <glyph glyph-name="three.inferior" unicode="&#x2083;" horiz-adv-x="378" 
d="M183 -5q-60 0 -105.5 30t-45.5 87h108q1 -13 13.5 -21.5t28.5 -8.5h5q19 0 31.5 11t12.5 28t-12.5 26.5t-30.5 9.5h-37v84h37q18 0 29 10t11 26q0 15 -10 25.5t-28 10.5h-5q-15 0 -26 -8.5t-12 -19.5h-108q0 56 44.5 85.5t104.5 29.5q29 0 55.5 -7.5t47 -21.5t33 -35.5
t12.5 -48.5q0 -29 -13.5 -52t-41.5 -35q28 -13 43 -38t15 -55q0 -28 -13.5 -49t-35 -35t-50 -21t-57.5 -7zM398 -155v-107h-418v107h418z" />
    <glyph glyph-name="four.inferior" unicode="&#x2084;" horiz-adv-x="406" 
d="M321 0h-97v62h-196v109l174 224h119v-249h53v-84h-53v-62zM224 283l-105 -137h105v137zM426 -155v-107h-446v107h446z" />
    <glyph glyph-name="five.inferior" unicode="&#x2085;" horiz-adv-x="381" 
d="M182 -6q-63 0 -107 34t-48 91h112q4 -15 16.5 -26t29.5 -11h4q20 0 33.5 15t13.5 34q0 20 -12.5 32.5t-32.5 12.5h-4q-10 0 -20.5 -4.5t-17.5 -12.5h-108l44 235h252v-88h-174l-14 -67q13 11 30.5 17t41.5 6q21 0 43 -8t39 -23.5t28 -39.5t11 -55q0 -65 -45 -103.5
t-115 -38.5zM401 -155v-107h-421v107h421z" />
    <glyph glyph-name="six.inferior" unicode="&#x2086;" horiz-adv-x="395" 
d="M354 133q0 -60 -42.5 -99t-109.5 -39q-75 0 -120.5 49.5t-45.5 133.5q0 102 51 162t135 60q63 0 100 -34t38 -85h-104q-3 13 -13 22t-26 9h-6q-31 0 -51 -28.5t-24 -66.5q15 19 38 29.5t53 10.5q54 0 90.5 -35t36.5 -89zM150 128q0 -19 13.5 -32t33.5 -13h4
q20 0 33.5 13.5t13.5 32.5t-13.5 31t-33.5 12h-4q-19 0 -33 -12.5t-14 -31.5zM415 -155v-107h-435v107h435z" />
    <glyph glyph-name="seven.inferior" unicode="&#x2087;" horiz-adv-x="344" 
d="M203 0h-113v13q0 81 29.5 156.5t84.5 135.5h-180v90h299v-78q-59 -59 -89.5 -137t-30.5 -162v-18zM364 -155v-107h-384v107h384z" />
    <glyph glyph-name="eight.inferior" unicode="&#x2088;" horiz-adv-x="384" 
d="M193 -7q-65 0 -107 30.5t-42 77.5q0 32 19 56.5t50 34.5q-32 12 -53.5 35.5t-21.5 62.5q0 48 46 78t109 30t108.5 -30t45.5 -78q0 -39 -21.5 -62.5t-54.5 -35.5q31 -10 50 -34.5t19 -56.5q0 -47 -41 -77.5t-106 -30.5zM241 273q0 18 -14 27.5t-32 9.5h-5q-18 0 -32 -9.5
t-14 -27.5t14 -27.5t32 -9.5h5q18 0 32 9.5t14 27.5zM190 152q-16 0 -28 -10t-12 -26t12 -25.5t28 -9.5h5q16 0 27.5 9.5t11.5 25.5t-11.5 26t-27.5 10h-5zM404 -155v-107h-424v107h424z" />
    <glyph glyph-name="nine.inferior" unicode="&#x2089;" horiz-adv-x="396" 
d="M246 266q0 19 -13.5 32t-33.5 13h-4q-20 0 -33.5 -13.5t-13.5 -32.5t13.5 -31t33.5 -12h4q19 0 33 12.5t14 31.5zM42 261q0 60 42.5 99t109.5 39q75 0 120.5 -49.5t45.5 -133.5q0 -102 -51 -162t-135 -60q-63 0 -100 34t-38 85h104q3 -13 13 -22t26 -9h6q31 0 51 28.5
t24 66.5q-15 -19 -38 -29.5t-53 -10.5q-54 0 -90.5 35t-36.5 89zM416 -155v-107h-436v107h436z" />
    <glyph glyph-name="a.inferior" unicode="&#x2090;" horiz-adv-x="343" 
d="M124 91q0 -12 7.5 -18t20.5 -6h4q17 0 32 12.5t15 36.5v10l-55 -10q-10 -2 -17 -8.5t-7 -16.5zM212 0q-1 6 -2 15t-2 21q-16 -20 -37.5 -30.5t-49.5 -10.5q-40 0 -66.5 23.5t-26.5 63.5q0 43 32.5 62t75.5 24l65 8v9q0 15 -8.5 24t-23.5 9h-4q-13 0 -22 -4.5t-12 -17.5
h-93q2 42 35.5 68t95.5 26q57 0 92.5 -28t35.5 -71v-128q0 -13 1 -30.5t3 -32.5h-89zM363 -155v-107h-383v107h383z" />
    <glyph glyph-name="e.inferior" unicode="&#x2091;" horiz-adv-x="353" 
d="M125 122q2 -25 16 -39.5t37 -14.5h4q19 0 30.5 7t13.5 18h95q-4 -41 -42.5 -69.5t-98.5 -28.5q-65 0 -108 40t-43 105q0 66 41 108t107 42t105.5 -42t39.5 -104v-13q0 -5 -1 -9h-196zM125 169h100q-1 23 -14 35t-32 12h-4q-19 0 -33.5 -12t-16.5 -35zM373 -155v-107h-393
v107h393z" />
    <glyph glyph-name="o.inferior" unicode="&#x2092;" horiz-adv-x="366" 
d="M183 290q72 0 113 -43t41 -105t-41 -104.5t-113 -42.5t-113 42.5t-41 104.5t41 105t113 43zM185 210h-4q-23 0 -36.5 -18t-13.5 -50t13.5 -49.5t36.5 -17.5h4q23 0 36.5 17.5t13.5 49.5t-13.5 50t-36.5 18zM386 -155v-107h-406v107h406z" />
    <glyph glyph-name="x.inferior" unicode="&#x2093;" horiz-adv-x="351" 
d="M229 0l-54 72l-54 -72h-106l107 143l-106 142h107l53 -71l53 71h106l-106 -141l107 -144h-107zM371 -155v-107h-391v107h391z" />
    <glyph glyph-name="h.inferior" unicode="&#x2095;" horiz-adv-x="386" 
d="M150 162v-162h-102v395h102v-150q15 26 39.5 35.5t46.5 9.5q57 0 81 -34t24 -83v-173h-102v169q0 20 -10 31t-27 11h-4q-19 0 -33.5 -13t-14.5 -36zM406 -155v-107h-426v107h426z" />
    <glyph glyph-name="k.inferior" unicode="&#x2096;" horiz-adv-x="372" 
d="M244 0l-67 103l-29 -30v-73h-100v395h100v-195l81 85h125l-109 -112l115 -173h-116zM392 -155v-107h-412v107h412z" />
    <glyph glyph-name="l.inferior" unicode="&#x2097;" horiz-adv-x="198" 
d="M48 0v395h102v-395h-102zM218 -155v-107h-238v107h238z" />
    <glyph glyph-name="m.inferior" unicode="&#x2098;" horiz-adv-x="579" 
d="M48 0v285h102v-38q15 22 37 32.5t53 10.5q29 0 53 -12.5t37 -37.5q16 25 42 37.5t60 12.5q50 0 76 -30t26 -76v-184h-102v163q0 24 -10.5 35.5t-28.5 11.5h-4q-21 0 -34 -13t-13 -35v-162h-102v163q0 24 -10.5 35.5t-28.5 11.5h-4q-21 0 -34 -13t-13 -35v-162h-102z
M599 -155v-107h-619v107h619z" />
    <glyph glyph-name="n.inferior" unicode="&#x2099;" horiz-adv-x="386" 
d="M48 0v285h102v-40q15 26 39.5 35.5t46.5 9.5q57 0 81 -34t24 -83v-173h-102v169q0 20 -10 31t-27 11h-4q-19 0 -33.5 -13t-14.5 -36v-162h-102zM406 -155v-107h-426v107h426z" />
    <glyph glyph-name="p.inferior" unicode="&#x209a;" horiz-adv-x="395" 
d="M147 143q0 -30 16.5 -49t43.5 -19q24 0 40 19t16 49t-16 48.5t-40 18.5q-27 0 -43.5 -18.5t-16.5 -48.5zM236 290q52 0 90.5 -38t38.5 -109t-38.5 -109.5t-90.5 -38.5q-34 0 -56 12.5t-33 27.5v-145h-99v395h102v-35q11 15 31.5 27.5t54.5 12.5zM-20 -262v107h435v-107
h-435z" />
    <glyph glyph-name="s.inferior" unicode="&#x209b;" horiz-adv-x="335" 
d="M27 96h99q1 -14 10.5 -24t28.5 -10h4q13 0 22 6t9 16q0 9 -5.5 14t-15.5 7l-67 14q-29 6 -51.5 24t-22.5 55q0 49 40 70.5t89 21.5q72 0 103.5 -27t35.5 -72h-97q-1 16 -9.5 24t-25.5 8h-5q-12 0 -22 -5t-10 -15q0 -7 5.5 -12t13.5 -6l72 -16q34 -7 52.5 -24t18.5 -54
q0 -25 -11.5 -43.5t-30 -30t-43 -17t-49.5 -5.5q-67 0 -100.5 24.5t-37.5 76.5zM355 -155v-107h-375v107h375z" />
    <glyph glyph-name="t.inferior" unicode="&#x209c;" horiz-adv-x="281" 
d="M250 84v-84h-86q-45 0 -67 22t-22 67v114h-56v82h56v90h102v-90h64v-82h-64v-80q0 -25 7.5 -32t32.5 -7h33zM301 -155v-107h-321v107h321z" />
    <glyph glyph-name="Euro" unicode="&#x20ac;" horiz-adv-x="703" 
d="M657 220q-13 -104 -83 -167t-171 -63q-87 0 -149.5 47t-93.5 128l-115 -26v110l88 20q-1 14 -2.5 29.5t-2.5 31.5l-83 -18v110l90 20q20 122 90.5 195t177.5 73q100 0 169.5 -63t84.5 -167h-133q-8 51 -39.5 83t-77.5 32h-8q-46 0 -78 -32.5t-47 -89.5l172 38v-110
l-186 -41v-5v-5q0 -13 0.5 -26.5t1.5 -26.5l142 32v-110l-118 -26q17 -42 45.5 -65t67.5 -23h8q46 0 77.5 32t39.5 83h133zM723 -155v-107h-743v107h743z" />
    <glyph glyph-name="uni2105" unicode="&#x2105;" horiz-adv-x="729" 
d="M-63 -262l577 962h117l-577 -962h-117zM183 445q-66 0 -110.5 36.5t-44.5 110.5t44.5 111t110.5 37q72 0 103 -35.5t35 -77.5h-101q-2 14 -11.5 23.5t-28.5 9.5h-4q-26 0 -36 -21t-10 -47t10 -46.5t36 -20.5h4q19 0 28.5 8t11.5 22h101q-4 -41 -35 -75.5t-103 -34.5z
M548 285q72 0 113 -43t41 -105t-41 -104.5t-113 -42.5t-113 42.5t-41 104.5t41 105t113 43zM550 205h-4q-23 0 -36.5 -18t-13.5 -50t13.5 -49.5t36.5 -17.5h4q23 0 36.5 17.5t13.5 49.5t-13.5 50t-36.5 18zM749 -155v-107h-501v107h501z" />
    <glyph glyph-name="afii61289" unicode="&#x2113;" horiz-adv-x="461" 
d="M377 0h-155q-52 0 -78.5 26.5t-26.5 78.5v68l-75 -46v135l75 45v232q0 82 41.5 126.5t114.5 44.5q41 0 72 -16.5t52 -43t31.5 -60.5t10.5 -69q0 -70 -41 -135.5t-113 -109.5l-38 -23v-98q0 -22 8.5 -31t30.5 -9h91v-115zM247 555v-170q40 28 51 62.5t11 66.5
q0 48 -10.5 64.5t-27.5 16.5q-12 0 -18 -9t-6 -31zM481 -155v-107h-501v107h501z" />
    <glyph glyph-name="afii61352" unicode="&#x2116;" horiz-adv-x="1098" 
d="M899 705q72 0 113 -43t41 -105t-41 -104.5t-113 -42.5t-113 42.5t-41 104.5t41 105t113 43zM901 625h-4q-23 0 -36.5 -18t-13.5 -50t13.5 -49.5t36.5 -17.5h4q23 0 36.5 17.5t13.5 49.5t-13.5 50t-36.5 18zM495 0l-275 515v-515h-135v700h175l275 -513v513h135v-700h-175
zM1048 270h-288v80h288v-80zM1118 -155v-107h-1138v107h1138z" />
    <glyph glyph-name="uni2117" unicode="&#x2117;" horiz-adv-x="870" 
d="M435 -39q-80 0 -151 31t-124 84t-84 124t-31 151t31 151.5t84 124t124 83.5t151 31t151.5 -31t124 -83.5t83.5 -124t31 -151.5t-31 -151t-83.5 -124t-124 -84t-151.5 -31zM435 48q61 0 115.5 24t95 65t64 96.5t23.5 117.5t-23.5 117.5t-64 96.5t-95 65t-115.5 24
t-115.5 -24t-95 -65t-64 -96.5t-23.5 -117.5t23.5 -117.5t64 -96.5t95 -65t115.5 -24zM307 163v381h183q63 0 96.5 -37.5t33.5 -91.5t-33.5 -90t-96.5 -36h-78v-126h-105zM412 375h67q16 0 26 10.5t10 29.5t-11 29.5t-27 10.5h-65v-80zM890 -155v-107h-910v107h910z" />
    <glyph glyph-name="trademark" unicode="&#x2122;" horiz-adv-x="974" 
d="M161 320v280h-125v100h365v-100h-125v-280h-115zM648 320l-80 209v-209h-113v380h152l72 -193l70 193h152v-380h-113v202l-76 -202h-64zM994 -155v-107h-1014v107h1014z" />
    <glyph glyph-name="onethird" unicode="&#x2153;" horiz-adv-x="918" 
d="M246 305h-105v256l-109 -90v126l125 103h89v-395zM725 -5q-60 0 -105.5 30t-45.5 87h108q1 -13 13.5 -21.5t28.5 -8.5h5q19 0 31.5 11t12.5 28t-12.5 26.5t-30.5 9.5h-37v84h37q18 0 29 10t11 26q0 15 -10 25.5t-28 10.5h-5q-15 0 -26 -8.5t-12 -19.5h-108
q0 56 44.5 85.5t104.5 29.5q29 0 55.5 -7.5t47 -21.5t33 -35.5t12.5 -48.5q0 -29 -13.5 -52t-41.5 -35q28 -13 43 -38t15 -55q0 -28 -13.5 -49t-35 -35t-50 -21t-57.5 -7zM938 -155v-107h-611v107h611zM-20 -262v107h99l514 855h117l-578 -962h-152z" />
    <glyph glyph-name="twothirds" unicode="&#x2154;" horiz-adv-x="960" 
d="M341 305h-296v84l149 135q13 12 25.5 26t12.5 31q0 15 -10.5 25.5t-26.5 10.5h-4q-16 0 -28 -13t-13 -30h-107q4 60 48.5 95.5t107.5 35.5q33 0 59.5 -10.5t44.5 -27t27.5 -37.5t9.5 -42q0 -36 -17.5 -60t-40.5 -46l-95 -87h154v-90zM768 -5q-60 0 -105.5 30t-45.5 87
h108q1 -13 13.5 -21.5t28.5 -8.5h5q19 0 31.5 11t12.5 28t-12.5 26.5t-30.5 9.5h-37v84h37q18 0 29 10t11 26q0 15 -10 25.5t-28 10.5h-5q-15 0 -26 -8.5t-12 -19.5h-108q0 56 44.5 85.5t104.5 29.5q29 0 55.5 -7.5t47 -21.5t33 -35.5t12.5 -48.5q0 -29 -13.5 -52t-41.5 -35
q28 -13 43 -38t15 -55q0 -28 -13.5 -49t-35 -35t-50 -21t-57.5 -7zM980 -155v-107h-600v107h600zM-20 -262v107h152l514 855h117l-578 -962h-205z" />
    <glyph glyph-name="uni2155" unicode="&#x2155;" horiz-adv-x="925" 
d="M246 305h-105v256l-109 -90v126l125 103h89v-395zM721 -5q-63 0 -107 34t-48 91h112q4 -15 16.5 -26t29.5 -11h4q20 0 33.5 15t13.5 34q0 20 -12.5 32.5t-32.5 12.5h-4q-10 0 -20.5 -4.5t-17.5 -12.5h-108l44 235h252v-88h-174l-14 -67q13 11 30.5 17t41.5 6q21 0 43 -8
t39 -23.5t28 -39.5t11 -55q0 -65 -45 -103.5t-115 -38.5zM945 -155v-107h-611v107h611zM-20 -262v107h106l514 855h117l-578 -962h-159z" />
    <glyph glyph-name="uni2156" unicode="&#x2156;" horiz-adv-x="975" 
d="M341 306h-296v84l149 135q13 12 25.5 26t12.5 31q0 15 -10.5 25.5t-26.5 10.5h-4q-16 0 -28 -13t-13 -30h-107q4 60 48.5 95.5t107.5 35.5q33 0 59.5 -10.5t44.5 -27t27.5 -37.5t9.5 -42q0 -36 -17.5 -60t-40.5 -46l-95 -87h154v-90zM772 -5q-63 0 -107 34t-48 91h112
q4 -15 16.5 -26t29.5 -11h4q20 0 33.5 15t13.5 34q0 20 -12.5 32.5t-32.5 12.5h-4q-10 0 -20.5 -4.5t-17.5 -12.5h-108l44 235h252v-88h-174l-14 -67q13 11 30.5 17t41.5 6q21 0 43 -8t39 -23.5t28 -39.5t11 -55q0 -65 -45 -103.5t-115 -38.5zM995 -155v-107h-610v107h610z
M-20 -262v107h157l514 855h117l-578 -962h-210z" />
    <glyph glyph-name="uni2157" unicode="&#x2157;" horiz-adv-x="977" 
d="M184 300q-60 0 -105.5 30t-45.5 87h108q1 -13 13.5 -21.5t28.5 -8.5h5q19 0 31.5 11t12.5 28t-12.5 26.5t-30.5 9.5h-37v84h37q18 0 29 10t11 26q0 15 -10 25.5t-28 10.5h-5q-15 0 -26 -8.5t-12 -19.5h-108q0 56 44.5 85.5t104.5 29.5q29 0 55.5 -7.5t47 -21.5t33 -35.5
t12.5 -48.5q0 -29 -13.5 -52t-41.5 -35q28 -13 43 -38t15 -55q0 -28 -13.5 -49t-35 -35t-50 -21t-57.5 -7zM774 -5q-63 0 -107 34t-48 91h112q4 -15 16.5 -26t29.5 -11h4q20 0 33.5 15t13.5 34q0 20 -12.5 32.5t-32.5 12.5h-4q-10 0 -20.5 -4.5t-17.5 -12.5h-108l44 235h252
v-88h-174l-14 -67q13 11 30.5 17t41.5 6q21 0 43 -8t39 -23.5t28 -39.5t11 -55q0 -65 -45 -103.5t-115 -38.5zM997 -155v-107h-610v107h610zM-20 -262v107h159l514 855h117l-578 -962h-212z" />
    <glyph glyph-name="uni2158" unicode="&#x2158;" horiz-adv-x="1001" 
d="M324 306h-97v62h-196v109l174 224h119v-249h53v-84h-53v-62zM227 589l-105 -137h105v137zM797 -5q-63 0 -107 34t-48 91h112q4 -15 16.5 -26t29.5 -11h4q20 0 33.5 15t13.5 34q0 20 -12.5 32.5t-32.5 12.5h-4q-10 0 -20.5 -4.5t-17.5 -12.5h-108l44 235h252v-88h-174
l-14 -67q13 11 30.5 17t41.5 6q21 0 43 -8t39 -23.5t28 -39.5t11 -55q0 -65 -45 -103.5t-115 -38.5zM1021 -155v-107h-611v107h611zM-20 -262v107h182l514 855h117l-578 -962h-235z" />
    <glyph glyph-name="uni2159" unicode="&#x2159;" horiz-adv-x="917" 
d="M246 305h-105v256l-109 -90v126l125 103h89v-395zM876 133q0 -60 -42.5 -99t-109.5 -39q-75 0 -120.5 49.5t-45.5 133.5q0 102 51 162t135 60q63 0 100 -34t38 -85h-104q-3 13 -13 22t-26 9h-6q-31 0 -51 -28.5t-24 -66.5q15 19 38 29.5t53 10.5q54 0 90.5 -35t36.5 -89z
M672 128q0 -19 13.5 -32t33.5 -13h4q20 0 33.5 13.5t13.5 32.5t-13.5 31t-33.5 12h-4q-19 0 -33 -12.5t-14 -31.5zM937 -155v-107h-608v107h608zM-20 -262v107h101l514 855h117l-578 -962h-154z" />
    <glyph glyph-name="uni215A" unicode="&#x215a;" horiz-adv-x="962" 
d="M185 299q-63 0 -107 34t-48 91h112q4 -15 16.5 -26t29.5 -11h4q20 0 33.5 15t13.5 34q0 20 -12.5 32.5t-32.5 12.5h-4q-10 0 -20.5 -4.5t-17.5 -12.5h-108l44 235h252v-88h-174l-14 -67q13 11 30.5 17t41.5 6q21 0 43 -8t39 -23.5t28 -39.5t11 -55q0 -65 -45 -103.5
t-115 -38.5zM920 133q0 -60 -42.5 -99t-109.5 -39q-75 0 -120.5 49.5t-45.5 133.5q0 102 51 162t135 60q63 0 100 -34t38 -85h-104q-3 13 -13 22t-26 9h-6q-31 0 -51 -28.5t-24 -66.5q15 19 38 29.5t53 10.5q54 0 90.5 -35t36.5 -89zM716 128q0 -19 13.5 -32t33.5 -13h4
q20 0 33.5 13.5t13.5 32.5t-13.5 31t-33.5 12h-4q-19 0 -33 -12.5t-14 -31.5zM982 -155v-107h-609v107h609zM-20 -262v107h145l514 855h117l-578 -962h-198z" />
    <glyph glyph-name="oneeighth" unicode="&#x215b;" horiz-adv-x="927" 
d="M246 305h-105v256l-109 -90v126l125 103h89v-395zM738 -10q-65 0 -107 30.5t-42 77.5q0 32 19 56.5t50 34.5q-32 12 -53.5 35.5t-21.5 62.5q0 48 46 78t109 30t108.5 -30t45.5 -78q0 -39 -21.5 -62.5t-54.5 -35.5q31 -10 50 -34.5t19 -56.5q0 -47 -41 -77.5t-106 -30.5z
M786 270q0 18 -14 27.5t-32 9.5h-5q-18 0 -32 -9.5t-14 -27.5t14 -27.5t32 -9.5h5q18 0 32 9.5t14 27.5zM735 149q-16 0 -28 -10t-12 -26t12 -25.5t28 -9.5h5q16 0 27.5 9.5t11.5 25.5t-11.5 26t-27.5 10h-5zM947 -155v-107h-618v107h618zM-20 -262v107h101l514 855h117
l-578 -962h-154z" />
    <glyph glyph-name="threeeighths" unicode="&#x215c;" horiz-adv-x="978" 
d="M184 300q-60 0 -105.5 30t-45.5 87h108q1 -13 13.5 -21.5t28.5 -8.5h5q19 0 31.5 11t12.5 28t-12.5 26.5t-30.5 9.5h-37v84h37q18 0 29 10t11 26q0 15 -10 25.5t-28 10.5h-5q-15 0 -26 -8.5t-12 -19.5h-108q0 56 44.5 85.5t104.5 29.5q29 0 55.5 -7.5t47 -21.5t33 -35.5
t12.5 -48.5q0 -29 -13.5 -52t-41.5 -35q28 -13 43 -38t15 -55q0 -28 -13.5 -49t-35 -35t-50 -21t-57.5 -7zM790 -10q-65 0 -107 30.5t-42 77.5q0 32 19 56.5t50 34.5q-32 12 -53.5 35.5t-21.5 62.5q0 48 46 78t109 30t108.5 -30t45.5 -78q0 -39 -21.5 -62.5t-54.5 -35.5
q31 -10 50 -34.5t19 -56.5q0 -47 -41 -77.5t-106 -30.5zM838 270q0 18 -14 27.5t-32 9.5h-5q-18 0 -32 -9.5t-14 -27.5t14 -27.5t32 -9.5h5q18 0 32 9.5t14 27.5zM787 149q-16 0 -28 -10t-12 -26t12 -25.5t28 -9.5h5q16 0 27.5 9.5t11.5 25.5t-11.5 26t-27.5 10h-5z
M998 -155v-107h-617v107h617zM-20 -262v107h153l514 855h117l-578 -962h-206z" />
    <glyph glyph-name="fiveeighths" unicode="&#x215d;" horiz-adv-x="980" 
d="M186 299q-63 0 -107 34t-48 91h112q4 -15 16.5 -26t29.5 -11h4q20 0 33.5 15t13.5 34q0 20 -12.5 32.5t-32.5 12.5h-4q-10 0 -20.5 -4.5t-17.5 -12.5h-108l44 235h252v-88h-174l-14 -67q13 11 30.5 17t41.5 6q21 0 43 -8t39 -23.5t28 -39.5t11 -55q0 -65 -45 -103.5
t-115 -38.5zM789 -10q-65 0 -107 30.5t-42 77.5q0 32 19 56.5t50 34.5q-32 12 -53.5 35.5t-21.5 62.5q0 48 46 78t109 30t108.5 -30t45.5 -78q0 -39 -21.5 -62.5t-54.5 -35.5q31 -10 50 -34.5t19 -56.5q0 -47 -41 -77.5t-106 -30.5zM837 270q0 18 -14 27.5t-32 9.5h-5
q-18 0 -32 -9.5t-14 -27.5t14 -27.5t32 -9.5h5q18 0 32 9.5t14 27.5zM786 149q-16 0 -28 -10t-12 -26t12 -25.5t28 -9.5h5q16 0 27.5 9.5t11.5 25.5t-11.5 26t-27.5 10h-5zM1000 -155v-107h-620v107h620zM-20 -262v107h152l514 855h117l-578 -962h-205z" />
    <glyph glyph-name="seveneighths" unicode="&#x215e;" horiz-adv-x="900" 
d="M209 306h-113v13q0 81 29.5 156.5t84.5 135.5h-180v90h299v-78q-59 -59 -89.5 -137t-30.5 -162v-18zM709 -10q-65 0 -107 30.5t-42 77.5q0 32 19 56.5t50 34.5q-32 12 -53.5 35.5t-21.5 62.5q0 48 46 78t109 30t108.5 -30t45.5 -78q0 -39 -21.5 -62.5t-54.5 -35.5
q31 -10 50 -34.5t19 -56.5q0 -47 -41 -77.5t-106 -30.5zM757 270q0 18 -14 27.5t-32 9.5h-5q-18 0 -32 -9.5t-14 -27.5t14 -27.5t32 -9.5h5q18 0 32 9.5t14 27.5zM706 149q-16 0 -28 -10t-12 -26t12 -25.5t28 -9.5h5q16 0 27.5 9.5t11.5 25.5t-11.5 26t-27.5 10h-5z
M920 -155v-107h-620v107h620zM-20 -262v107h72l514 855h117l-578 -962h-125z" />
    <glyph glyph-name="uni215F" unicode="&#x215f;" horiz-adv-x="697" 
d="M238 305h-105v256l-109 -90v126l125 103h89v-395zM723 -155v-107h-403v107h403zM-20 -262v107h92l514 855h117l-578 -962h-145z" />
    <glyph glyph-name="uni2160" unicode="&#x2160;" horiz-adv-x="500" 
d="M48 0v105h137v490h-137v105h404v-105h-137v-490h137v-105h-404zM520 -155v-107h-540v107h540z" />
    <glyph glyph-name="uni2161" unicode="&#x2161;" horiz-adv-x="785" 
d="M48 0v105h137v490h-137v105h689v-105h-137v-490h137v-105h-689zM315 105h155v490h-155v-490zM805 -155v-107h-825v107h825z" />
    <glyph glyph-name="uni2162" unicode="&#x2162;" horiz-adv-x="1070" 
d="M48 0v105h137v490h-137v105h974v-105h-137v-490h137v-105h-974zM315 105h155v490h-155v-490zM600 105h155v490h-155v-490zM1090 -155v-107h-1110v107h1110z" />
    <glyph glyph-name="uni2163" unicode="&#x2163;" horiz-adv-x="1083" 
d="M319 105h233l-148 490h-85v-490zM52 0v105h137v490h-137v105h577v-105h-95l143 -485l154 485h-98v105h320v-105h-95l-159 -490h124v-105h-871zM1103 -155v-107h-1123v107h1123z" />
    <glyph glyph-name="uni2164" unicode="&#x2164;" horiz-adv-x="805" 
d="M645 0h-495v105h124l-148 490h-96v105h321v-105h-95l143 -485l154 485h-98v105h320v-105h-95l-159 -490h124v-105zM825 -155v-107h-845v107h845z" />
    <glyph glyph-name="uni2165" unicode="&#x2165;" horiz-adv-x="1082" 
d="M763 105v490h-83l-159 -490h242zM150 0v105h124l-148 490h-96v105h321v-105h-95l143 -485l154 485h-98v105h575v-105h-137v-490h137v-105h-880zM1102 -155v-107h-1122v107h1122z" />
    <glyph glyph-name="uni2166" unicode="&#x2166;" horiz-adv-x="1367" 
d="M763 105v490h-83l-159 -490h242zM893 105h155v490h-155v-490zM150 0v105h124l-148 490h-96v105h321v-105h-95l143 -485l154 485h-98v105h860v-105h-137v-490h137v-105h-1165zM1387 -155v-107h-1407v107h1407z" />
    <glyph glyph-name="uni2167" unicode="&#x2167;" horiz-adv-x="1652" 
d="M763 105v490h-83l-159 -490h242zM893 105h155v490h-155v-490zM1178 105h155v490h-155v-490zM150 0v105h124l-148 490h-96v105h321v-105h-95l143 -485l154 485h-98v105h1145v-105h-137v-490h137v-105h-1450zM1672 -155v-107h-1692v107h1692z" />
    <glyph glyph-name="uni2168" unicode="&#x2168;" horiz-adv-x="1032" 
d="M315 105h60l189 247l-186 243h-63v-490zM636 445l114 150h-229zM753 105l-120 157l-120 -157h240zM48 0v105h137v490h-137v105h930v-105h-90l-183 -240l191 -250h92v-105h-940zM1052 -155v-107h-1072v107h1072z" />
    <glyph glyph-name="uni2169" unicode="&#x2169;" horiz-adv-x="798" 
d="M754 0h-710v105h97l189 247l-186 243h-90v105h690v-105h-90l-183 -240l191 -250h92v-105zM402 445l114 150h-229zM519 105l-120 157l-120 -157h240zM818 -155v-107h-838v107h838z" />
    <glyph glyph-name="uni216C" unicode="&#x216c;" horiz-adv-x="698" 
d="M48 0v105h137v490h-137v105h404v-105h-137v-490h215v165h130v-270h-612zM718 -155v-107h-738v107h738z" />
    <glyph glyph-name="uni216D" unicode="&#x216d;" horiz-adv-x="753" 
d="M559 0v68q-37 -41 -91 -59.5t-108 -18.5q-68 0 -125 24.5t-98.5 71t-64.5 113.5t-23 151t25.5 151t69.5 113.5t103.5 71t127.5 24.5q52 0 102 -17.5t87 -54.5v62h125v-230h-119q-9 34 -28 59.5t-43 42t-50.5 25t-51.5 8.5h-10q-95 0 -151.5 -67.5t-56.5 -183.5
q0 -122 55 -190.5t151 -68.5h10q52 0 99 34t71 101h119v-230h-125zM773 -155v-107h-793v107h793z" />
    <glyph glyph-name="uni216E" unicode="&#x216e;" horiz-adv-x="802" 
d="M185 105v490h-137v105h364q75 0 138 -24t108 -68.5t70 -109t25 -145.5q0 -83 -25 -149t-70 -111t-108 -69t-138 -24h-364v105h137zM315 105h87q106 0 163.5 59t57.5 190q0 126 -57.5 183.5t-163.5 57.5h-87v-490zM822 -155v-107h-842v107h842z" />
    <glyph glyph-name="uni216F" unicode="&#x216f;" horiz-adv-x="1111" 
d="M380 105v-105h-332v105h137v490h-137v105h347l165 -529l163 529h340v-105h-137v-490h137v-105h-332v105h67v444l-177 -549h-132l-176 558v-453h67zM1131 -155v-107h-1151v107h1151z" />
    <glyph glyph-name="uni2190" unicode="&#x2190;" horiz-adv-x="805" 
d="M426 128l-87 -88l-311 311l311 309l87 -88l-160 -156h501v-132h-501zM825 -155v-107h-845v107h845z" />
    <glyph glyph-name="uni2191" unicode="&#x2191;" horiz-adv-x="686" 
d="M121 341l-88 87l311 311l309 -311l-88 -87l-156 160v-501h-132v501zM706 -155v-107h-726v107h726z" />
    <glyph glyph-name="uni2192" unicode="&#x2192;" horiz-adv-x="805" 
d="M464 40l-87 88l160 156h-501v132h501l-160 156l87 88l311 -309zM825 -155v-107h-845v107h845z" />
    <glyph glyph-name="uni2193" unicode="&#x2193;" horiz-adv-x="686" 
d="M565 359l88 -87l-311 -311l-309 311l88 87l156 -160v501h132v-501zM706 -155v-107h-726v107h726z" />
    <glyph glyph-name="uni2196" unicode="&#x2196;" horiz-adv-x="665" 
d="M503 700v-124h-222l353 -351l-94 -94l-351 353v-222h-124v438h438zM685 -155v-107h-705v107h705z" />
    <glyph glyph-name="uni2197" unicode="&#x2197;" horiz-adv-x="665" 
d="M162 576v124h438v-438h-124v222l-351 -353l-94 94l353 351h-222zM685 -155v-107h-705v107h705z" />
    <glyph glyph-name="uni2198" unicode="&#x2198;" horiz-adv-x="665" 
d="M162 -1v124h222l-353 351l94 94l351 -353v222h124v-438h-438zM685 -155v-107h-705v107h705z" />
    <glyph glyph-name="uni2199" unicode="&#x2199;" horiz-adv-x="665" 
d="M503 123v-124h-438v438h124v-222l351 353l94 -94l-353 -351h222zM685 -155v-107h-705v107h705z" />
    <glyph glyph-name="uni21A4" unicode="&#x21a4;" horiz-adv-x="855" 
d="M342 40l-311 311l311 309l87 -88l-160 -156h369v185h132v-502h-132v185h-369l160 -156zM875 -155v-107h-895v107h895z" />
    <glyph glyph-name="uni21A5" unicode="&#x21a5;" horiz-adv-x="706" 
d="M604 0h-502v132h185v369l-156 -160l-88 87l309 311l311 -311l-88 -87l-156 160v-369h185v-132zM726 -155v-107h-746v107h746z" />
    <glyph glyph-name="uni21A6" unicode="&#x21a6;" horiz-adv-x="855" 
d="M513 40l-87 88l160 156h-369v-185h-132v502h132v-185h369l-160 156l87 88l311 -309zM875 -155v-107h-895v107h895z" />
    <glyph glyph-name="uni21A7" unicode="&#x21a7;" horiz-adv-x="706" 
d="M352 -39l-309 311l88 87l156 -160v369h-185v132h502v-132h-185v-369l156 160l88 -87zM726 -155v-107h-746v107h746z" />
    <glyph glyph-name="uni21B0" unicode="&#x21b0;" horiz-adv-x="830" 
d="M751 0h-132v284h-369l160 -156l-87 -88l-311 311l311 309l87 -88l-160 -156h501v-416zM850 -155v-107h-870v107h870z" />
    <glyph glyph-name="uni21B1" unicode="&#x21b1;" horiz-adv-x="830" 
d="M211 0h-132v416h501l-160 156l87 88l311 -309l-311 -311l-87 88l160 156h-369v-284zM850 -155v-107h-870v107h870z" />
    <glyph glyph-name="uni21B2" unicode="&#x21b2;" horiz-adv-x="830" 
d="M323 40l-311 309l311 311l87 -88l-160 -156h369v284h132v-416h-501l160 -156zM850 -155v-107h-870v107h870z" />
    <glyph glyph-name="uni21B3" unicode="&#x21b3;" horiz-adv-x="830" 
d="M507 40l-87 88l160 156h-501v416h132v-284h369l-160 156l87 88l311 -311zM850 -155v-107h-870v107h870z" />
    <glyph glyph-name="partialdiff" unicode="&#x2202;" horiz-adv-x="582" 
d="M285 -10q-112 0 -179.5 69t-67.5 182q0 53 18.5 98t49.5 77.5t72 50.5t85 18q43 0 75.5 -14t51.5 -36q-6 44 -23.5 74.5t-41.5 49.5t-52.5 27.5t-56.5 8.5q-31 0 -63.5 -5.5t-49.5 -11.5v115q16 6 49.5 11.5t71.5 5.5q79 0 137.5 -31.5t96.5 -86t56.5 -129.5t18.5 -161
q0 -75 -18.5 -133.5t-51 -98t-78.5 -60t-100 -20.5zM283 109h5q45 0 79.5 31.5t34.5 99.5q0 61 -33 96t-81 35h-10q-43 0 -75 -33.5t-32 -96.5q0 -66 34 -99t78 -33zM602 -155v-107h-622v107h622z" />
    <glyph glyph-name="product" unicode="&#x220f;" horiz-adv-x="728" 
d="M260 0h-132v585h-93v115h656v-115h-91v-585h-132v585h-208v-585zM748 -155v-107h-768v107h768z" />
    <glyph glyph-name="summation" unicode="&#x2211;" horiz-adv-x="564" 
d="M513 113v-113h-465v100l188 250l-188 255v95h465v-113h-306l180 -237l-184 -237h310zM584 -155v-107h-604v107h604z" />
    <glyph glyph-name="minus" unicode="&#x2212;" horiz-adv-x="628" 
d="M67 200v115h494v-115h-494zM648 -155v-107h-668v107h668z" />
    <glyph glyph-name="radical" unicode="&#x221a;" horiz-adv-x="688" 
d="M352 0h-171l-160 500h132l108 -365l104 565h307v-115h-202zM708 -155v-107h-728v107h728z" />
    <glyph glyph-name="infinity" unicode="&#x221e;" horiz-adv-x="871" 
d="M630 170q-69 0 -112.5 24.5t-80.5 73.5q-39 -48 -83 -73t-113 -25q-82 0 -137.5 54t-55.5 136t55.5 136t137.5 54q69 0 113 -26t83 -75q37 49 80.5 75t112.5 26q82 0 137.5 -54t55.5 -136t-55.5 -136t-137.5 -54zM616 275h5q28 0 52.5 22t24.5 63t-24.5 63t-52.5 22h-5
q-29 0 -54.5 -21t-51.5 -62q29 -46 52.5 -66.5t53.5 -20.5zM245 275h5q29 0 56.5 21t54.5 63q-28 43 -54.5 64.5t-56.5 21.5h-5q-28 0 -50 -22t-22 -63t22 -63t50 -22zM891 -155v-107h-911v107h911z" />
    <glyph glyph-name="integral" unicode="&#x222b;" horiz-adv-x="436" 
d="M284 -82q0 -97 -49 -138.5t-146 -41.5h-109v107h91q45 0 62.5 17.5t17.5 62.5v595q0 97 49 138.5t146 41.5h72v-115h-54q-45 0 -62.5 -17.5t-17.5 -62.5v-587zM456 -155v-107h-51v107h51z" />
    <glyph glyph-name="approxequal" unicode="&#x2248;" horiz-adv-x="628" 
d="M432 441h130v-40q0 -52 -39.5 -87.5t-95.5 -35.5q-26 0 -53.5 7.5t-52.5 16.5t-46.5 16.5t-36.5 7.5q-19 0 -29.5 -9.5t-10.5 -28.5h-130v40q0 52 40.5 87.5t96.5 35.5q30 0 57.5 -7.5t51 -16.5t43.5 -16.5t35 -7.5q19 0 29.5 9.5t10.5 28.5zM432 223h130v-40
q0 -52 -39.5 -87.5t-95.5 -35.5q-26 0 -53.5 7.5t-52.5 16.5t-46.5 16.5t-36.5 7.5q-19 0 -29.5 -9.5t-10.5 -28.5h-130v40q0 52 40.5 87.5t96.5 35.5q30 0 57.5 -7.5t51 -16.5t43.5 -16.5t35 -7.5q19 0 29.5 9.5t10.5 28.5zM648 -155v-107h-668v107h668z" />
    <glyph glyph-name="notequal" unicode="&#x2260;" horiz-adv-x="628" 
d="M561 100h-239l-26 -85h-123l26 85h-132v115h168l26 85h-194v115h230l26 85h123l-26 -85h141v-115h-177l-26 -85h203v-115zM648 -155v-107h-668v107h668z" />
    <glyph glyph-name="lessequal" unicode="&#x2264;" horiz-adv-x="619" 
d="M554 131l-494 117v160l494 117v-125l-327 -71l327 -71v-127zM60 0v113h494v-113h-494zM639 -155v-107h-659v107h659z" />
    <glyph glyph-name="greaterequal" unicode="&#x2265;" horiz-adv-x="619" 
d="M65 131v125l327 71l-327 71v127l494 -117v-160zM559 113v-113h-494v113h494zM639 -155v-107h-659v107h659z" />
    <glyph glyph-name="uni2460" unicode="&#x2460;" horiz-adv-x="840" 
d="M420 -39q-80 0 -151 31t-124 84t-84 124t-31 151t31 151.5t84 124t124 83.5t151 31t151.5 -31t124 -83.5t83.5 -124t31 -151.5t-31 -151t-83.5 -124t-124 -84t-151.5 -31zM420 48q61 0 115.5 24t95 65t64 96.5t23.5 117.5t-23.5 117.5t-64 96.5t-95 65t-115.5 24
t-115.5 -24t-95 -65t-64 -96.5t-23.5 -117.5t23.5 -117.5t64 -96.5t95 -65t115.5 -24zM499 155h-105v256l-109 -90v126l125 103h89v-395zM860 -155v-107h-880v107h880z" />
    <glyph glyph-name="uni2461" unicode="&#x2461;" horiz-adv-x="840" 
d="M420 -39q-80 0 -151 31t-124 84t-84 124t-31 151t31 151.5t84 124t124 83.5t151 31t151.5 -31t124 -83.5t83.5 -124t31 -151.5t-31 -151t-83.5 -124t-124 -84t-151.5 -31zM420 48q61 0 115.5 24t95 65t64 96.5t23.5 117.5t-23.5 117.5t-64 96.5t-95 65t-115.5 24
t-115.5 -24t-95 -65t-64 -96.5t-23.5 -117.5t23.5 -117.5t64 -96.5t95 -65t115.5 -24zM574 155h-296v84l149 135q13 12 25.5 26t12.5 31q0 15 -10.5 25.5t-26.5 10.5h-4q-16 0 -28 -13t-13 -30h-107q4 60 48.5 95.5t107.5 35.5q33 0 59.5 -10.5t44.5 -27t27.5 -37.5t9.5 -42
q0 -36 -17.5 -60t-40.5 -46l-95 -87h154v-90zM860 -155v-107h-880v107h880z" />
    <glyph glyph-name="uni2462" unicode="&#x2462;" horiz-adv-x="840" 
d="M420 -39q-80 0 -151 31t-124 84t-84 124t-31 151t31 151.5t84 124t124 83.5t151 31t151.5 -31t124 -83.5t83.5 -124t31 -151.5t-31 -151t-83.5 -124t-124 -84t-151.5 -31zM420 48q61 0 115.5 24t95 65t64 96.5t23.5 117.5t-23.5 117.5t-64 96.5t-95 65t-115.5 24
t-115.5 -24t-95 -65t-64 -96.5t-23.5 -117.5t23.5 -117.5t64 -96.5t95 -65t115.5 -24zM414 150q-60 0 -105.5 30t-45.5 87h108q1 -13 13.5 -21.5t28.5 -8.5h5q19 0 31.5 11t12.5 28t-12.5 26.5t-30.5 9.5h-37v84h37q18 0 29 10t11 26q0 15 -10 25.5t-28 10.5h-5
q-15 0 -26 -8.5t-12 -19.5h-108q0 56 44.5 85.5t104.5 29.5q29 0 55.5 -7.5t47 -21.5t33 -35.5t12.5 -48.5q0 -29 -13.5 -52t-41.5 -35q28 -13 43 -38t15 -55q0 -28 -13.5 -49t-35 -35t-50 -21t-57.5 -7zM860 -155v-107h-880v107h880z" />
    <glyph glyph-name="uni2463" unicode="&#x2463;" horiz-adv-x="840" 
d="M420 -39q-80 0 -151 31t-124 84t-84 124t-31 151t31 151.5t84 124t124 83.5t151 31t151.5 -31t124 -83.5t83.5 -124t31 -151.5t-31 -151t-83.5 -124t-124 -84t-151.5 -31zM420 48q61 0 115.5 24t95 65t64 96.5t23.5 117.5t-23.5 117.5t-64 96.5t-95 65t-115.5 24
t-115.5 -24t-95 -65t-64 -96.5t-23.5 -117.5t23.5 -117.5t64 -96.5t95 -65t115.5 -24zM535 155h-97v62h-196v109l174 224h119v-249h53v-84h-53v-62zM438 438l-105 -137h105v137zM860 -155v-107h-880v107h880z" />
    <glyph glyph-name="uni2464" unicode="&#x2464;" horiz-adv-x="840" 
d="M420 -39q-80 0 -151 31t-124 84t-84 124t-31 151t31 151.5t84 124t124 83.5t151 31t151.5 -31t124 -83.5t83.5 -124t31 -151.5t-31 -151t-83.5 -124t-124 -84t-151.5 -31zM420 48q61 0 115.5 24t95 65t64 96.5t23.5 117.5t-23.5 117.5t-64 96.5t-95 65t-115.5 24
t-115.5 -24t-95 -65t-64 -96.5t-23.5 -117.5t23.5 -117.5t64 -96.5t95 -65t115.5 -24zM412 150q-63 0 -107 34t-48 91h112q4 -15 16.5 -26t29.5 -11h4q20 0 33.5 15t13.5 34q0 20 -12.5 32.5t-32.5 12.5h-4q-10 0 -20.5 -4.5t-17.5 -12.5h-108l44 235h252v-88h-174l-14 -67
q13 11 30.5 17t41.5 6q21 0 43 -8t39 -23.5t28 -39.5t11 -55q0 -65 -45 -103.5t-115 -38.5zM860 -155v-107h-880v107h880z" />
    <glyph glyph-name="uni2465" unicode="&#x2465;" horiz-adv-x="840" 
d="M420 -39q-80 0 -151 31t-124 84t-84 124t-31 151t31 151.5t84 124t124 83.5t151 31t151.5 -31t124 -83.5t83.5 -124t31 -151.5t-31 -151t-83.5 -124t-124 -84t-151.5 -31zM420 48q61 0 115.5 24t95 65t64 96.5t23.5 117.5t-23.5 117.5t-64 96.5t-95 65t-115.5 24
t-115.5 -24t-95 -65t-64 -96.5t-23.5 -117.5t23.5 -117.5t64 -96.5t95 -65t115.5 -24zM566 288q0 -60 -42.5 -99t-109.5 -39q-75 0 -120.5 49.5t-45.5 133.5q0 102 51 162t135 60q63 0 100 -34t38 -85h-104q-3 13 -13 22t-26 9h-6q-31 0 -51 -28.5t-24 -66.5q15 19 38 29.5
t53 10.5q54 0 90.5 -35t36.5 -89zM362 283q0 -19 13.5 -32t33.5 -13h4q20 0 33.5 13.5t13.5 32.5t-13.5 31t-33.5 12h-4q-19 0 -33 -12.5t-14 -31.5zM860 -155v-107h-880v107h880z" />
    <glyph glyph-name="uni2466" unicode="&#x2466;" horiz-adv-x="840" 
d="M420 -39q-80 0 -151 31t-124 84t-84 124t-31 151t31 151.5t84 124t124 83.5t151 31t151.5 -31t124 -83.5t83.5 -124t31 -151.5t-31 -151t-83.5 -124t-124 -84t-151.5 -31zM420 48q61 0 115.5 24t95 65t64 96.5t23.5 117.5t-23.5 117.5t-64 96.5t-95 65t-115.5 24
t-115.5 -24t-95 -65t-64 -96.5t-23.5 -117.5t23.5 -117.5t64 -96.5t95 -65t115.5 -24zM456 155h-113v13q0 81 29.5 156.5t84.5 135.5h-180v90h299v-78q-59 -59 -89.5 -137t-30.5 -162v-18zM860 -155v-107h-880v107h880z" />
    <glyph glyph-name="uni2467" unicode="&#x2467;" horiz-adv-x="840" 
d="M420 -39q-80 0 -151 31t-124 84t-84 124t-31 151t31 151.5t84 124t124 83.5t151 31t151.5 -31t124 -83.5t83.5 -124t31 -151.5t-31 -151t-83.5 -124t-124 -84t-151.5 -31zM420 48q61 0 115.5 24t95 65t64 96.5t23.5 117.5t-23.5 117.5t-64 96.5t-95 65t-115.5 24
t-115.5 -24t-95 -65t-64 -96.5t-23.5 -117.5t23.5 -117.5t64 -96.5t95 -65t115.5 -24zM422 150q-65 0 -107 30.5t-42 77.5q0 32 19 56.5t50 34.5q-32 12 -53.5 35.5t-21.5 62.5q0 48 46 78t109 30t108.5 -30t45.5 -78q0 -39 -21.5 -62.5t-54.5 -35.5q31 -10 50 -34.5
t19 -56.5q0 -47 -41 -77.5t-106 -30.5zM470 430q0 18 -14 27.5t-32 9.5h-5q-18 0 -32 -9.5t-14 -27.5t14 -27.5t32 -9.5h5q18 0 32 9.5t14 27.5zM419 309q-16 0 -28 -10t-12 -26t12 -25.5t28 -9.5h5q16 0 27.5 9.5t11.5 25.5t-11.5 26t-27.5 10h-5zM860 -155v-107h-880v107
h880z" />
    <glyph glyph-name="uni2468" unicode="&#x2468;" horiz-adv-x="840" 
d="M420 -39q-80 0 -151 31t-124 84t-84 124t-31 151t31 151.5t84 124t124 83.5t151 31t151.5 -31t124 -83.5t83.5 -124t31 -151.5t-31 -151t-83.5 -124t-124 -84t-151.5 -31zM420 48q61 0 115.5 24t95 65t64 96.5t23.5 117.5t-23.5 117.5t-64 96.5t-95 65t-115.5 24
t-115.5 -24t-95 -65t-64 -96.5t-23.5 -117.5t23.5 -117.5t64 -96.5t95 -65t115.5 -24zM480 422q0 19 -13.5 32t-33.5 13h-4q-20 0 -33.5 -13.5t-13.5 -32.5t13.5 -31t33.5 -12h4q19 0 33 12.5t14 31.5zM276 417q0 60 42.5 99t109.5 39q75 0 120.5 -49.5t45.5 -133.5
q0 -102 -51 -162t-135 -60q-63 0 -100 34t-38 85h104q3 -13 13 -22t26 -9h6q31 0 51 28.5t24 66.5q-15 -19 -38 -29.5t-53 -10.5q-54 0 -90.5 35t-36.5 89zM860 -155v-107h-880v107h880z" />
    <glyph glyph-name="uni24EA" unicode="&#x24ea;" horiz-adv-x="840" 
d="M420 -39q-80 0 -151 31t-124 84t-84 124t-31 151t31 151.5t84 124t124 83.5t151 31t151.5 -31t124 -83.5t83.5 -124t31 -151.5t-31 -151t-83.5 -124t-124 -84t-151.5 -31zM420 48q61 0 115.5 24t95 65t64 96.5t23.5 117.5t-23.5 117.5t-64 96.5t-95 65t-115.5 24
t-115.5 -24t-95 -65t-64 -96.5t-23.5 -117.5t23.5 -117.5t64 -96.5t95 -65t115.5 -24zM422 149q-46 0 -79 17.5t-54 45.5t-31 64.5t-10 74.5t10 74.5t31 65t54 46t79 17.5t79 -17.5t54 -46t31 -65t10 -74.5t-10 -74.5t-31 -64.5t-54 -45.5t-79 -17.5zM420 241h4
q31 0 47.5 29t16.5 81t-16.5 81.5t-47.5 29.5h-4q-31 0 -47.5 -29.5t-16.5 -81.5t16.5 -81t47.5 -29zM860 -155v-107h-880v107h880z" />
    <glyph glyph-name="uni24FF" unicode="&#x24ff;" horiz-adv-x="840" 
d="M810 350q0 -80 -31 -151t-83.5 -124t-124 -84t-151.5 -31t-151 31t-124 84t-84 124t-31 151t31 151.5t84 124t124 83.5t151 31t151.5 -31t124 -83.5t83.5 -124t31 -151.5zM246 351q0 -38 10 -74.5t31 -64.5t54 -45.5t79 -17.5t79 17.5t54 45.5t31 64.5t10 74.5t-10 74.5
t-31 65t-54 46t-79 17.5t-79 -17.5t-54 -46t-31 -65t-10 -74.5zM422 241h-4q-31 0 -47.5 29t-16.5 81t16.5 81.5t47.5 29.5h4q31 0 47.5 -29.5t16.5 -81.5t-16.5 -81t-47.5 -29zM860 -155v-107h-880v107h880z" />
    <glyph glyph-name="lozenge" unicode="&#x25ca;" horiz-adv-x="619" 
d="M250 700h124l230 -350l-230 -350h-124l-235 350zM312 121l152 225l-155 234l-152 -229zM639 -155v-107h-659v107h659z" />
    <glyph glyph-name="uni278A" unicode="&#x278a;" horiz-adv-x="840" 
d="M810 350q0 -80 -31 -151t-83.5 -124t-124 -84t-151.5 -31t-151 31t-124 84t-84 124t-31 151t31 151.5t84 124t124 83.5t151 31t151.5 -31t124 -83.5t83.5 -124t31 -151.5zM381 155h105v395h-89l-125 -103v-126l109 90v-256zM860 -155v-107h-880v107h880z" />
    <glyph glyph-name="uni278B" unicode="&#x278b;" horiz-adv-x="840" 
d="M810 350q0 -80 -31 -151t-83.5 -124t-124 -84t-151.5 -31t-151 31t-124 84t-84 124t-31 151t31 151.5t84 124t124 83.5t151 31t151.5 -31t124 -83.5t83.5 -124t31 -151.5zM279 155h296v90h-154l95 87q23 22 40.5 46t17.5 60q0 21 -9.5 42t-27.5 37.5t-44.5 27t-59.5 10.5
q-63 0 -107.5 -35.5t-48.5 -95.5h107q1 17 13 30t28 13h4q16 0 26.5 -10.5t10.5 -25.5q0 -17 -12.5 -31t-25.5 -26l-149 -135v-84zM860 -155v-107h-880v107h880z" />
    <glyph glyph-name="uni278C" unicode="&#x278c;" horiz-adv-x="840" 
d="M810 350q0 -80 -31 -151t-83.5 -124t-124 -84t-151.5 -31t-151 31t-124 84t-84 124t-31 151t31 151.5t84 124t124 83.5t151 31t151.5 -31t124 -83.5t83.5 -124t31 -151.5zM265 267q0 -57 45.5 -87t105.5 -30q29 0 57.5 7t50 21t35 35t13.5 49q0 30 -15 55t-43 38
q28 12 41.5 35t13.5 52q0 27 -12.5 48.5t-33 35.5t-47 21.5t-55.5 7.5q-60 0 -104.5 -29.5t-44.5 -85.5h108q1 11 12 19.5t26 8.5h5q18 0 28 -10.5t10 -25.5q0 -16 -11 -26t-29 -10h-37v-84h37q18 0 30.5 -9.5t12.5 -26.5t-12.5 -28t-31.5 -11h-5q-16 0 -28.5 8.5
t-13.5 21.5h-108zM860 -155v-107h-880v107h880z" />
    <glyph glyph-name="uni278D" unicode="&#x278d;" horiz-adv-x="840" 
d="M810 350q0 -80 -31 -151t-83.5 -124t-124 -84t-151.5 -31t-151 31t-124 84t-84 124t-31 151t31 151.5t84 124t124 83.5t151 31t151.5 -31t124 -83.5t83.5 -124t31 -151.5zM424 155h97v62h53v84h-53v249h-119l-174 -224v-109h196v-62zM319 301l105 137v-137h-105z
M860 -155v-107h-880v107h880z" />
    <glyph glyph-name="uni278E" unicode="&#x278e;" horiz-adv-x="840" 
d="M810 350q0 -80 -31 -151t-83.5 -124t-124 -84t-151.5 -31t-151 31t-124 84t-84 124t-31 151t31 151.5t84 124t124 83.5t151 31t151.5 -31t124 -83.5t83.5 -124t31 -151.5zM250 275q4 -57 48 -91t107 -34q70 0 115 38.5t45 103.5q0 31 -11 55t-28 39.5t-39 23.5t-43 8
q-24 0 -41.5 -6t-30.5 -17l14 67h174v88h-252l-44 -235h108q7 8 17.5 12.5t20.5 4.5h4q20 0 32.5 -12.5t12.5 -32.5q0 -19 -13.5 -34t-33.5 -15h-4q-17 0 -29.5 11t-16.5 26h-112zM860 -155v-107h-880v107h880z" />
    <glyph glyph-name="uni278F" unicode="&#x278f;" horiz-adv-x="840" 
d="M810 350q0 -80 -31 -151t-83.5 -124t-124 -84t-151.5 -31t-151 31t-124 84t-84 124t-31 151t31 151.5t84 124t124 83.5t151 31t151.5 -31t124 -83.5t83.5 -124t31 -151.5zM414 150q67 0 109.5 39t42.5 99q0 54 -36.5 89t-90.5 35q-30 0 -53 -10.5t-38 -29.5q4 38 24 66.5
t51 28.5h6q16 0 26 -9t13 -22h104q-1 51 -38 85t-100 34q-84 0 -135 -60t-51 -162q0 -84 45.5 -133.5t120.5 -49.5zM409 238q-20 0 -33.5 13t-13.5 32t14 31.5t33 12.5h4q20 0 33.5 -12t13.5 -31t-13.5 -32.5t-33.5 -13.5h-4zM860 -155v-107h-880v107h880z" />
    <glyph glyph-name="uni2790" unicode="&#x2790;" horiz-adv-x="840" 
d="M810 350q0 -80 -31 -151t-83.5 -124t-124 -84t-151.5 -31t-151 31t-124 84t-84 124t-31 151t31 151.5t84 124t124 83.5t151 31t151.5 -31t124 -83.5t83.5 -124t31 -151.5zM340 155h113v18q0 84 30.5 162t89.5 137v78h-299v-90h180q-55 -60 -84.5 -135.5t-29.5 -156.5v-13
zM860 -155v-107h-880v107h880z" />
    <glyph glyph-name="uni2791" unicode="&#x2791;" horiz-adv-x="840" 
d="M810 350q0 -80 -31 -151t-83.5 -124t-124 -84t-151.5 -31t-151 31t-124 84t-84 124t-31 151t31 151.5t84 124t124 83.5t151 31t151.5 -31t124 -83.5t83.5 -124t31 -151.5zM272 258q0 -47 42 -77.5t107 -30.5t106 30.5t41 77.5q0 32 -19 56.5t-50 34.5q33 12 54.5 35.5
t21.5 62.5q0 48 -45.5 78t-108.5 30t-109 -30t-46 -78q0 -39 21.5 -62.5t53.5 -35.5q-31 -10 -50 -34.5t-19 -56.5zM423 467q18 0 32 -9.5t14 -27.5t-14 -27.5t-32 -9.5h-5q-18 0 -32 9.5t-14 27.5t14 27.5t32 9.5h5zM378 273q0 16 12 26t28 10h5q16 0 27.5 -10t11.5 -26
t-11.5 -25.5t-27.5 -9.5h-5q-16 0 -28 9.5t-12 25.5zM860 -155v-107h-880v107h880z" />
    <glyph glyph-name="uni2792" unicode="&#x2792;" horiz-adv-x="840" 
d="M810 350q0 -80 -31 -151t-83.5 -124t-124 -84t-151.5 -31t-151 31t-124 84t-84 124t-31 151t31 151.5t84 124t124 83.5t151 31t151.5 -31t124 -83.5t83.5 -124t31 -151.5zM433 467q20 0 33.5 -13t13.5 -32t-14 -31.5t-33 -12.5h-4q-20 0 -33.5 12t-13.5 31t13.5 32.5
t33.5 13.5h4zM428 555q-67 0 -109.5 -39t-42.5 -99q0 -54 36.5 -89t90.5 -35q30 0 53 10.5t38 29.5q-4 -38 -24 -66.5t-51 -28.5h-6q-16 0 -26 9t-13 22h-104q1 -51 38 -85t100 -34q84 0 135 60t51 162q0 84 -45.5 133.5t-120.5 49.5zM860 -155v-107h-880v107h880z" />
    <glyph glyph-name="j.inferior" unicode="&#x2c7c;" horiz-adv-x="198" 
d="M45 320v75h108v-75h-108zM-41 -262v107h49q25 0 32.5 7.5t7.5 32.5v400h102v-458q0 -45 -22 -67t-67 -22h-102z" />
    <glyph glyph-name="Omega" unicode="&#xa7b6;" horiz-adv-x="782" 
d="M351 110v-110h-295v113h128q-60 34 -96.5 100t-36.5 157q0 75 25.5 137.5t70.5 107.5t107.5 70t136.5 25t136.5 -25t107.5 -70t70.5 -107.5t25.5 -137.5q0 -92 -37.5 -157.5t-100.5 -99.5h133v-113h-295v110q74 19 119.5 83t45.5 157q0 113 -53.5 176.5t-146.5 63.5h-10
q-93 0 -146.5 -63.5t-53.5 -176.5q0 -93 46.5 -157t118.5 -83zM802 -155v-107h-822v107h822z" />
    <glyph glyph-name="Checkbox_one" unicode="&#xe000;" horiz-adv-x="500" 
d="M50 150v400h400v-400h-400zM125 225h250v250h-250v-250zM520 -155v-107h-540v107h540z" />
    <glyph glyph-name="Checkbox_two" unicode="&#xe001;" horiz-adv-x="650" 
d="M600 75h-550v550h550v-550zM125 550v-400h400v400h-400zM670 -155v-107h-690v107h690z" />
    <glyph glyph-name="Checkbox_three" unicode="&#xe002;" horiz-adv-x="840" 
d="M70 0v700h700v-700h-700zM145 75h550v550h-550v-550zM860 -155v-107h-880v107h880z" />
    <glyph glyph-name="circle_one" unicode="&#xe003;" horiz-adv-x="540" 
d="M270 110q-49 0 -93 19t-76.5 51.5t-51.5 76.5t-19 93t19 93t51.5 76.5t76.5 51.5t93 19t93 -19t76.5 -51.5t51.5 -76.5t19 -93t-19 -93t-51.5 -76.5t-76.5 -51.5t-93 -19zM270 185q68 0 116.5 48.5t48.5 116.5t-48.5 116.5t-116.5 48.5t-116.5 -48.5t-48.5 -116.5
t48.5 -116.5t116.5 -48.5zM560 -155v-107h-580v107h580z" />
    <glyph glyph-name="circle_two" unicode="&#xe004;" horiz-adv-x="690" 
d="M660 350q0 -65 -25 -122.5t-67.5 -100t-100 -67.5t-122.5 -25t-122.5 25t-100 67.5t-67.5 100t-25 122.5t25 122.5t67.5 100t100 67.5t122.5 25t122.5 -25t100 -67.5t67.5 -100t25 -122.5zM105 350q0 -49 19 -93t51.5 -76.5t76.5 -51.5t93 -19t93 19t76.5 51.5t51.5 76.5
t19 93t-19 93t-51.5 76.5t-76.5 51.5t-93 19t-93 -19t-76.5 -51.5t-51.5 -76.5t-19 -93zM710 -155v-107h-730v107h730z" />
    <glyph glyph-name="circle_three" unicode="&#xe005;" horiz-adv-x="840" 
d="M420 -40q-80 0 -151 31t-124 84t-84 124t-31 151t31 151.5t84 124t124 83.5t151 31t151.5 -31t124 -83.5t83.5 -124t31 -151.5t-31 -151t-83.5 -124t-124 -84t-151.5 -31zM420 35q65 0 122.5 25t100 67.5t67.5 100t25 122.5t-25 122.5t-67.5 100t-100 67.5t-122.5 25
t-122.5 -25t-100 -67.5t-67.5 -100t-25 -122.5t25 -122.5t67.5 -100t100 -67.5t122.5 -25zM860 -155v-107h-880v107h880z" />
    <glyph glyph-name="bullet_one" unicode="&#xe006;" 
d="M300 110q-49 0 -93 19t-76.5 51.5t-51.5 76.5t-19 93t19 93t51.5 76.5t76.5 51.5t93 19t93 -19t76.5 -51.5t51.5 -76.5t19 -93t-19 -93t-51.5 -76.5t-76.5 -51.5t-93 -19zM620 -155v-107h-640v107h640z" />
    <glyph glyph-name="bullet_two" unicode="&#xe007;" horiz-adv-x="660" 
d="M630 350q0 -62 -24 -116.5t-64.5 -95t-95 -64.5t-116.5 -24t-116.5 24t-95 64.5t-64.5 95t-24 116.5t24 116.5t64.5 95t95 64.5t116.5 24t116.5 -24t95 -64.5t64.5 -95t24 -116.5zM680 -155v-107h-700v107h700z" />
    <glyph glyph-name="bullet_three" unicode="&#xe008;" horiz-adv-x="780" 
d="M390 -10q-74 0 -140 28.5t-114.5 77t-77 114.5t-28.5 140t28.5 140t77 114.5t114.5 77t140 28.5t140 -28.5t114.5 -77t77 -114.5t28.5 -140t-28.5 -140t-77 -114.5t-114.5 -77t-140 -28.5zM800 -155v-107h-820v107h820z" />
    <glyph glyph-name="Pyramide_one" unicode="&#xe009;" horiz-adv-x="500" 
d="M50 150v400h400v-400h-400zM125 225h250v250h-250v-250zM200 300v100h100v-100h-100zM520 -155v-107h-540v107h540z" />
    <glyph glyph-name="Pyramide_two" unicode="&#xe00a;" horiz-adv-x="650" 
d="M600 75h-550v550h550v-550zM125 550v-400h400v400h-400zM450 225h-250v250h250v-250zM275 400v-100h100v100h-100zM670 -155v-107h-690v107h690z" />
    <glyph glyph-name="Pyramide_three" unicode="&#xe00b;" horiz-adv-x="840" 
d="M70 0v700h700v-700h-700zM145 75h550v550h-550v-550zM220 150v400h400v-400h-400zM295 225h250v250h-250v-250zM470 300h-100v100h100v-100zM860 -155v-107h-880v107h880z" />
    <glyph glyph-name="Square_one" unicode="&#xe00c;" horiz-adv-x="500" 
d="M50 150v400h400v-400h-400zM520 -155v-107h-540v107h540z" />
    <glyph glyph-name="Square_two" unicode="&#xe00d;" horiz-adv-x="650" 
d="M600 75h-550v550h550v-550zM670 -155v-107h-690v107h690z" />
    <glyph glyph-name="Square_three" unicode="&#xe00e;" horiz-adv-x="840" 
d="M70 0v700h700v-700h-700zM860 -155v-107h-880v107h880z" />
    <glyph glyph-name="Tower_one" unicode="&#xe010;" horiz-adv-x="540" 
d="M270 110q-49 0 -93 19t-76.5 51.5t-51.5 76.5t-19 93t19 93t51.5 76.5t76.5 51.5t93 19t93 -19t76.5 -51.5t51.5 -76.5t19 -93t-19 -93t-51.5 -76.5t-76.5 -51.5t-93 -19zM270 185q68 0 116.5 48.5t48.5 116.5t-48.5 116.5t-116.5 48.5t-116.5 -48.5t-48.5 -116.5
t48.5 -116.5t116.5 -48.5zM270 260q-37 0 -63.5 26.5t-26.5 63.5t26.5 63.5t63.5 26.5t63.5 -26.5t26.5 -63.5t-26.5 -63.5t-63.5 -26.5zM560 -155v-107h-580v107h580z" />
    <glyph glyph-name="Tower_two" unicode="&#xe011;" horiz-adv-x="690" 
d="M660 350q0 -65 -25 -122.5t-67.5 -100t-100 -67.5t-122.5 -25t-122.5 25t-100 67.5t-67.5 100t-25 122.5t25 122.5t67.5 100t100 67.5t122.5 25t122.5 -25t100 -67.5t67.5 -100t25 -122.5zM105 350q0 -49 19 -93t51.5 -76.5t76.5 -51.5t93 -19t93 19t76.5 51.5t51.5 76.5
t19 93t-19 93t-51.5 76.5t-76.5 51.5t-93 19t-93 -19t-76.5 -51.5t-51.5 -76.5t-19 -93zM510 350q0 -68 -48.5 -116.5t-116.5 -48.5t-116.5 48.5t-48.5 116.5t48.5 116.5t116.5 48.5t116.5 -48.5t48.5 -116.5zM255 350q0 -37 26.5 -63.5t63.5 -26.5t63.5 26.5t26.5 63.5
t-26.5 63.5t-63.5 26.5t-63.5 -26.5t-26.5 -63.5zM710 -155v-107h-730v107h730z" />
    <glyph glyph-name="Tower_three" unicode="&#xe012;" horiz-adv-x="840" 
d="M420 -40q-80 0 -151 31t-124 84t-84 124t-31 151t31 151.5t84 124t124 83.5t151 31t151.5 -31t124 -83.5t83.5 -124t31 -151.5t-31 -151t-83.5 -124t-124 -84t-151.5 -31zM420 35q65 0 122.5 25t100 67.5t67.5 100t25 122.5t-25 122.5t-67.5 100t-100 67.5t-122.5 25
t-122.5 -25t-100 -67.5t-67.5 -100t-25 -122.5t25 -122.5t67.5 -100t100 -67.5t122.5 -25zM420 110q-49 0 -93 19t-76.5 51.5t-51.5 76.5t-19 93t19 93t51.5 76.5t76.5 51.5t93 19t93 -19t76.5 -51.5t51.5 -76.5t19 -93t-19 -93t-51.5 -76.5t-76.5 -51.5t-93 -19zM420 185
q68 0 116.5 48.5t48.5 116.5t-48.5 116.5t-116.5 48.5t-116.5 -48.5t-48.5 -116.5t48.5 -116.5t116.5 -48.5zM420 260q-37 0 -63.5 26.5t-26.5 63.5t26.5 63.5t63.5 26.5t63.5 -26.5t26.5 -63.5t-26.5 -63.5t-63.5 -26.5zM860 -155v-107h-880v107h880z" />
    <glyph glyph-name="commaaccent" unicode="&#xf6c3;" horiz-adv-x="187" 
d="M15 -310v75h23q28 0 41 11t13 28v1h-52v130h130v-130q0 -50 -35.5 -82.5t-91.5 -32.5h-28z" />
    <glyph glyph-name="A.fina" horiz-adv-x="762" 
d="M455 285l-101 265l-101 -265h202zM-30 -262v107h653l-122 320h-294l-63 -165h-142l277 700h158l370 -962h-837z" />
    <glyph glyph-name="Agrave.fina" horiz-adv-x="762" 
d="M371 890l40 -145h-90l-105 145h155zM455 285l-101 265l-101 -265h202zM-30 -262v107h653l-122 320h-294l-63 -165h-142l277 700h158l370 -962h-837z" />
    <glyph glyph-name="Aacute.fina" horiz-adv-x="762" 
d="M306 745l40 145h155l-105 -145h-90zM455 285l-101 265l-101 -265h202zM-30 -262v107h653l-122 320h-294l-63 -165h-142l277 700h158l370 -962h-837z" />
    <glyph glyph-name="Acircumflex.fina" horiz-adv-x="762" 
d="M274 745h-110l120 145h140l120 -145h-110l-80 58zM455 285l-101 265l-101 -265h202zM-30 -262v107h653l-122 320h-294l-63 -165h-142l277 700h158l370 -962h-837z" />
    <glyph glyph-name="Atilde.fina" horiz-adv-x="762" 
d="M419 850q16 0 23 11.5t7 28.5h95v-26q0 -46 -26.5 -80t-83.5 -34q-19 0 -38.5 6t-41.5 18l-18 10q-12 7 -22.5 11.5t-22.5 4.5q-16 1 -23.5 -11t-7.5 -29h-95v26q0 46 32.5 80t79.5 34q28 0 44.5 -6.5t30.5 -13.5l18 -10q12 -6 24.5 -13t24.5 -7zM455 285l-101 265
l-101 -265h202zM-30 -262v107h653l-122 320h-294l-63 -165h-142l277 700h158l370 -962h-837z" />
    <glyph glyph-name="Adieresis.fina" horiz-adv-x="762" 
d="M390 765v120h125v-120h-125zM195 765v120h125v-120h-125zM455 285l-101 265l-101 -265h202zM-30 -262v107h653l-122 320h-294l-63 -165h-142l277 700h158l370 -962h-837z" />
    <glyph glyph-name="Aring.fina" horiz-adv-x="762" 
d="M246 840q0 43 33.5 76.5t76.5 33.5q47 0 78.5 -33.5t31.5 -76.5q0 -47 -31.5 -78.5t-78.5 -31.5q-43 0 -76.5 31.5t-33.5 78.5zM356 880q-16 0 -28 -12t-12 -28t12 -28t28 -12t27.5 12t11.5 28t-11.5 28t-27.5 12zM455 285l-101 265l-101 -265h202zM-30 -262v107h653
l-122 320h-294l-63 -165h-142l277 700h158l370 -962h-837z" />
    <glyph glyph-name="Amacron.fina" horiz-adv-x="762" 
d="M187 765v110h335v-110h-335zM455 285l-101 265l-101 -265h202zM-30 -262v107h653l-122 320h-294l-63 -165h-142l277 700h158l370 -962h-837z" />
    <glyph glyph-name="Abreve.fina" horiz-adv-x="762" 
d="M354 835q22 0 39.5 13.5t20.5 41.5h110q-1 -68 -49 -109t-121 -41t-121 41t-49 109h110q3 -28 20.5 -41.5t39.5 -13.5zM455 285l-101 265l-101 -265h202zM-30 -262v107h653l-122 320h-294l-63 -165h-142l277 700h158l370 -962h-837z" />
    <glyph glyph-name="Aringacute.fina" horiz-adv-x="762" 
d="M324 928l16 88h125l-62 -88h-79zM271 818q0 38 25.5 63.5t63.5 25.5t63.5 -25.5t25.5 -63.5t-25.5 -63.5t-63.5 -25.5t-63.5 25.5t-25.5 63.5zM360 852q-13 0 -23.5 -10.5t-10.5 -23.5t10.5 -23.5t23.5 -10.5t23 10.5t10 23.5t-10 23.5t-23 10.5zM455 285l-101 265
l-101 -265h202zM-30 -262v107h653l-122 320h-294l-63 -165h-142l277 700h158l370 -962h-837z" />
    <glyph glyph-name="uni0226.fina" horiz-adv-x="762" 
d="M289 765v135h140v-135h-140zM455 285l-101 265l-101 -265h202zM-30 -262v107h653l-122 320h-294l-63 -165h-142l277 700h158l370 -962h-837z" />
    <glyph glyph-name="uni1EA0.fina" horiz-adv-x="762" 
d="M455 285l-101 265l-101 -265h202zM302 -262v130h130v-130h-130zM172 -155v-107h-202v107h202zM562 -262v107h61l-122 320h-294l-63 -165h-142l277 700h158l370 -962h-245z" />
    <glyph glyph-name="C.fina" horiz-adv-x="711" 
d="M-20 -262v107h414v145q-86 0 -151.5 26t-109.5 73t-66.5 114t-22.5 147t22 147t64.5 114t105.5 73t143 26q69 0 122.5 -19t90 -51.5t57 -76.5t24.5 -93h-135q-12 57 -51.5 88.5t-102.5 31.5h-10q-86 0 -140.5 -64t-54.5 -176t57 -176t153 -64h135v-372h-544z" />
    <glyph glyph-name="Ccedilla.fina" horiz-adv-x="711" 
d="M491 -140q0 -60 -34 -91t-86 -31h-391v107h396q19 0 29.5 6t10.5 19q0 10 -8 17.5t-27 7.5h-55v98q-68 8 -121 37.5t-88.5 75.5t-54 108t-18.5 136q0 80 22 147t64.5 114t105.5 73t143 26q69 0 122.5 -19t90 -51.5t57 -76.5t24.5 -93h-135q-12 57 -51.5 88.5t-102.5 31.5
h-10q-86 0 -140.5 -64t-54.5 -176t54.5 -176t140.5 -64h10q63 0 102.5 31t51.5 89h135q-4 -50 -23 -93t-54 -74.5t-85 -51t-115 -21.5v-30q37 0 66 -24t29 -76z" />
    <glyph glyph-name="Cacute.fina" horiz-adv-x="711" 
d="M336 745l40 145h155l-105 -145h-90zM-20 -262v107h414v145q-86 0 -151.5 26t-109.5 73t-66.5 114t-22.5 147t22 147t64.5 114t105.5 73t143 26q69 0 122.5 -19t90 -51.5t57 -76.5t24.5 -93h-135q-12 57 -51.5 88.5t-102.5 31.5h-10q-86 0 -140.5 -64t-54.5 -176t57 -176
t153 -64h135v-372h-544z" />
    <glyph glyph-name="Ccircumflex.fina" horiz-adv-x="711" 
d="M303 745h-110l120 145h140l120 -145h-110l-80 58zM-20 -262v107h414v145q-86 0 -151.5 26t-109.5 73t-66.5 114t-22.5 147t22 147t64.5 114t105.5 73t143 26q69 0 122.5 -19t90 -51.5t57 -76.5t24.5 -93h-135q-12 57 -51.5 88.5t-102.5 31.5h-10q-86 0 -140.5 -64
t-54.5 -176t57 -176t153 -64h135v-372h-544z" />
    <glyph glyph-name="Cdotaccent.fina" horiz-adv-x="711" 
d="M323 765v135h140v-135h-140zM-20 -262v107h414v145q-86 0 -151.5 26t-109.5 73t-66.5 114t-22.5 147t22 147t64.5 114t105.5 73t143 26q69 0 122.5 -19t90 -51.5t57 -76.5t24.5 -93h-135q-12 57 -51.5 88.5t-102.5 31.5h-10q-86 0 -140.5 -64t-54.5 -176t57 -176t153 -64
h135v-372h-544z" />
    <glyph glyph-name="Ccaron.fina" horiz-adv-x="711" 
d="M199 890h110l80 -58l80 58h110l-120 -145h-140zM-20 -262v107h414v145q-86 0 -151.5 26t-109.5 73t-66.5 114t-22.5 147t22 147t64.5 114t105.5 73t143 26q69 0 122.5 -19t90 -51.5t57 -76.5t24.5 -93h-135q-12 57 -51.5 88.5t-102.5 31.5h-10q-86 0 -140.5 -64
t-54.5 -176t57 -176t153 -64h135v-372h-544z" />
    <glyph glyph-name="E.fina" horiz-adv-x="661" 
d="M-20 -262v107h512v155h-410v700h530v-120h-395v-161h335v-120h-335v-179h405v-382h-642z" />
    <glyph glyph-name="Egrave.fina" horiz-adv-x="661" 
d="M377 890l40 -145h-90l-105 145h155zM-20 -262v107h512v155h-410v700h530v-120h-395v-161h335v-120h-335v-179h405v-382h-642z" />
    <glyph glyph-name="Eacute.fina" horiz-adv-x="661" 
d="M292 745l40 145h155l-105 -145h-90zM-20 -262v107h512v155h-410v700h530v-120h-395v-161h335v-120h-335v-179h405v-382h-642z" />
    <glyph glyph-name="Ecircumflex.fina" horiz-adv-x="661" 
d="M268 745h-110l120 145h140l120 -145h-110l-80 58zM-20 -262v107h512v155h-410v700h530v-120h-395v-161h335v-120h-335v-179h405v-382h-642z" />
    <glyph glyph-name="Edieresis.fina" horiz-adv-x="661" 
d="M384 765v120h125v-120h-125zM189 765v120h125v-120h-125zM-20 -262v107h512v155h-410v700h530v-120h-395v-161h335v-120h-335v-179h405v-382h-642z" />
    <glyph glyph-name="Emacron.fina" horiz-adv-x="661" 
d="M182 765v110h335v-110h-335zM-20 -262v107h512v155h-410v700h530v-120h-395v-161h335v-120h-335v-179h405v-382h-642z" />
    <glyph glyph-name="Ebreve.fina" horiz-adv-x="661" 
d="M351 835q22 0 39.5 13.5t20.5 41.5h110q-1 -68 -49 -109t-121 -41t-121 41t-49 109h110q3 -28 20.5 -41.5t39.5 -13.5zM-20 -262v107h512v155h-410v700h530v-120h-395v-161h335v-120h-335v-179h405v-382h-642z" />
    <glyph glyph-name="Edotaccent.fina" horiz-adv-x="661" 
d="M285 765v135h140v-135h-140zM-20 -262v107h512v155h-410v700h530v-120h-395v-161h335v-120h-335v-179h405v-382h-642z" />
    <glyph glyph-name="Ecaron.fina" horiz-adv-x="661" 
d="M159 890h110l80 -58l80 58h110l-120 -145h-140zM-20 -262v107h512v155h-410v700h530v-120h-395v-161h335v-120h-335v-179h405v-382h-642z" />
    <glyph glyph-name="F.fina" horiz-adv-x="616" 
d="M-20 -262v107h102v855h510v-120h-375v-180h325v-120h-325v-542h-237z" />
    <glyph glyph-name="G.fina" horiz-adv-x="745" 
d="M-20 -262v107h597v223q-31 -33 -78.5 -55.5t-111.5 -22.5q-78 0 -142 27.5t-109 75.5t-69.5 114.5t-24.5 142.5t24.5 142.5t69.5 114.5t109 75.5t142 27.5q67 0 121.5 -19t92.5 -52t60 -79t26 -100h-135q-7 56 -46 93t-114 37h-10q-97 0 -151 -66t-54 -174t54 -174
t151 -66h10q66 0 118.5 35.5t68.5 99.5h-192v120h220q41 0 63 -22t22 -63v-542h-712z" />
    <glyph glyph-name="Gcircumflex.fina" horiz-adv-x="745" 
d="M300 745h-110l120 145h140l120 -145h-110l-80 58zM-20 -262v107h597v223q-31 -33 -78.5 -55.5t-111.5 -22.5q-78 0 -142 27.5t-109 75.5t-69.5 114.5t-24.5 142.5t24.5 142.5t69.5 114.5t109 75.5t142 27.5q67 0 121.5 -19t92.5 -52t60 -79t26 -100h-135q-7 56 -46 93
t-114 37h-10q-97 0 -151 -66t-54 -174t54 -174t151 -66h10q66 0 118.5 35.5t68.5 99.5h-192v120h220q41 0 63 -22t22 -63v-542h-712z" />
    <glyph glyph-name="Gbreve.fina" horiz-adv-x="745" 
d="M380 835q22 0 39.5 13.5t20.5 41.5h110q-1 -68 -49 -109t-121 -41t-121 41t-49 109h110q3 -28 20.5 -41.5t39.5 -13.5zM-20 -262v107h597v223q-31 -33 -78.5 -55.5t-111.5 -22.5q-78 0 -142 27.5t-109 75.5t-69.5 114.5t-24.5 142.5t24.5 142.5t69.5 114.5t109 75.5
t142 27.5q67 0 121.5 -19t92.5 -52t60 -79t26 -100h-135q-7 56 -46 93t-114 37h-10q-97 0 -151 -66t-54 -174t54 -174t151 -66h10q66 0 118.5 35.5t68.5 99.5h-192v120h220q41 0 63 -22t22 -63v-542h-712z" />
    <glyph glyph-name="Gdotaccent.fina" horiz-adv-x="745" 
d="M324 765v135h140v-135h-140zM-20 -262v107h597v223q-31 -33 -78.5 -55.5t-111.5 -22.5q-78 0 -142 27.5t-109 75.5t-69.5 114.5t-24.5 142.5t24.5 142.5t69.5 114.5t109 75.5t142 27.5q67 0 121.5 -19t92.5 -52t60 -79t26 -100h-135q-7 56 -46 93t-114 37h-10
q-97 0 -151 -66t-54 -174t54 -174t151 -66h10q66 0 118.5 35.5t68.5 99.5h-192v120h220q41 0 63 -22t22 -63v-542h-712z" />
    <glyph glyph-name="Gcommaaccent.fina" horiz-adv-x="745" 
d="M692 280v-542h-115v330q-31 -33 -78.5 -55.5t-111.5 -22.5q-78 0 -142 27.5t-109 75.5t-69.5 114.5t-24.5 142.5t24.5 142.5t69.5 114.5t109 75.5t142 27.5q67 0 121.5 -19t92.5 -52t60 -79t26 -100h-135q-7 56 -46 93t-114 37h-10q-97 0 -151 -66t-54 -174t54 -174
t151 -66h10q66 0 118.5 35.5t68.5 99.5h-192v120h220q41 0 63 -22t22 -63zM313 -377h-28v75h23q28 0 41 11t13 28v1h-382v107h460v-107q0 -50 -35.5 -82.5t-91.5 -32.5z" />
    <glyph glyph-name="H.fina" horiz-adv-x="739" 
d="M-20 -262v107h542v445h-305v-290h-135v700h135v-290h305v290h135v-962h-677z" />
    <glyph glyph-name="Hcircumflex.fina" horiz-adv-x="739" 
d="M289 745h-110l120 145h140l120 -145h-110l-80 58zM-20 -262v107h542v445h-305v-290h-135v700h135v-290h305v290h135v-962h-677z" />
    <glyph glyph-name="I.fina" horiz-adv-x="299" 
d="M-20 -262v107h102v855h135v-962h-237z" />
    <glyph glyph-name="Igrave.fina" horiz-adv-x="299" 
d="M159 890l40 -145h-90l-105 145h155zM-20 -262v107h102v855h135v-962h-237z" />
    <glyph glyph-name="Iacute.fina" horiz-adv-x="299" 
d="M105 745l40 145h155l-105 -145h-90zM-20 -262v107h102v855h135v-962h-237z" />
    <glyph glyph-name="Icircumflex.fina" horiz-adv-x="299" 
d="M70 745h-110l120 145h140l120 -145h-110l-80 58zM-20 -262v107h102v855h135v-962h-237z" />
    <glyph glyph-name="Idieresis.fina" horiz-adv-x="299" 
d="M185 765v120h125v-120h-125zM-10 765v120h125v-120h-125zM-30 -262v107h112v855h135v-962h-247z" />
    <glyph glyph-name="Itilde.fina" horiz-adv-x="299" 
d="M214 850q16 0 23 11.5t7 28.5h95v-26q0 -46 -26.5 -80t-83.5 -34q-19 0 -38.5 6t-41.5 18l-18 10q-12 7 -22.5 11.5t-22.5 4.5q-16 1 -23.5 -11t-7.5 -29h-95v26q0 46 32.5 80t79.5 34q28 0 44.5 -6.5t30.5 -13.5l18 -10q12 -6 24.5 -13t24.5 -7zM-60 -262v107h142v855
h135v-962h-277z" />
    <glyph glyph-name="Imacron.fina" horiz-adv-x="299" 
d="M-18 765v110h335v-110h-335zM-38 -262v107h120v855h135v-962h-255z" />
    <glyph glyph-name="Ibreve.fina" horiz-adv-x="299" 
d="M150 835q22 0 39.5 13.5t20.5 41.5h110q-1 -68 -49 -109t-121 -41t-121 41t-49 109h110q3 -28 20.5 -41.5t39.5 -13.5zM-40 -262v107h122v855h135v-962h-257z" />
    <glyph glyph-name="Idotaccent.fina" horiz-adv-x="299" 
d="M79 765v135h140v-135h-140zM-20 -262v107h102v855h135v-962h-237z" />
    <glyph glyph-name="J.fina" horiz-adv-x="429" 
d="M211 -262h-231v107h176q34 0 47 13t13 47v795h135v-822q0 -63 -38.5 -101.5t-101.5 -38.5z" />
    <glyph glyph-name="Jcircumflex.fina" horiz-adv-x="429" 
d="M203 745h-110l120 145h140l120 -145h-110l-80 58zM211 -262h-231v107h176q34 0 47 13t13 47v795h135v-822q0 -63 -38.5 -101.5t-101.5 -38.5z" />
    <glyph glyph-name="K.fina" horiz-adv-x="786" 
d="M-20 -262v107h646l-317 463l-92 -97v-211h-135v700h135v-314l297 314h167l-275 -290l460 -672h-886z" />
    <glyph glyph-name="Kcommaaccent.fina" horiz-adv-x="786" 
d="M289 -377h-28v75h23q28 0 41 11t13 28v1h-358v107h436v-107q0 -50 -35.5 -82.5t-91.5 -32.5zM546 -262v107h80l-317 463l-92 -97v-211h-135v700h135v-314l297 314h167l-275 -290l460 -672h-320z" />
    <glyph glyph-name="L.fina" horiz-adv-x="630" 
d="M-20 -262v107h502v155h-400v700h135v-580h395v-382h-632z" />
    <glyph glyph-name="Lacute.fina" horiz-adv-x="630" 
d="M98 745l40 145h155l-105 -145h-90zM-20 -262v107h502v155h-400v700h135v-580h395v-382h-632z" />
    <glyph glyph-name="Lcaron.fina" horiz-adv-x="630" 
d="M327 455v75h23q28 0 41 11t13 28v1h-52v130h130v-130q0 -50 -35.5 -82.5t-91.5 -32.5h-28zM-20 -262v107h502v155h-400v700h135v-580h395v-382h-632z" />
    <glyph glyph-name="M.fina" horiz-adv-x="929" 
d="M-20 -262v107h735v707l-174 -552h-148l-179 553v-553h-132v700h210l176 -550l170 550h209v-962h-867z" />
    <glyph glyph-name="N.fina" horiz-adv-x="749" 
d="M-20 -262v107h102v855h175l275 -513v513h135v-700h-175l-275 515v-777h-237z" />
    <glyph glyph-name="Ntilde.fina" horiz-adv-x="749" 
d="M451 850q16 0 23 11.5t7 28.5h95v-26q0 -46 -26.5 -80t-83.5 -34q-19 0 -38.5 6t-41.5 18l-18 10q-12 7 -22.5 11.5t-22.5 4.5q-16 1 -23.5 -11t-7.5 -29h-95v26q0 46 32.5 80t79.5 34q28 0 44.5 -6.5t30.5 -13.5l18 -10q12 -6 24.5 -13t24.5 -7zM-20 -262v107h102v855
h175l275 -513v513h135v-700h-175l-275 515v-777h-237z" />
    <glyph glyph-name="Nacute.fina" horiz-adv-x="749" 
d="M316 745l40 145h155l-105 -145h-90zM-20 -262v107h102v855h175l275 -513v513h135v-700h-175l-275 515v-777h-237z" />
    <glyph glyph-name="Ncaron.fina" horiz-adv-x="749" 
d="M179 890h110l80 -58l80 58h110l-120 -145h-140zM-20 -262v107h102v855h175l275 -513v513h135v-700h-175l-275 515v-777h-237z" />
    <glyph glyph-name="P.fina" horiz-adv-x="652" 
d="M217 379h165q52 0 78.5 28t26.5 73t-26.5 72.5t-78.5 27.5h-165v-201zM-20 -262v107h102v855h315q101 0 163 -58t62 -162t-62 -162.5t-163 -58.5h-180v-521h-237z" />
    <glyph glyph-name="Q.fina" horiz-adv-x="766" 
d="M316 -262h-336v107h282q34 0 44.5 10.5t10.5 44.5v95q-61 10 -112 39t-86.5 74t-55.5 106.5t-20 135.5q0 84 25 151t70 113.5t107.5 71t137.5 24.5t137.5 -24.5t107.5 -71t70 -113.5t25 -151q0 -75 -20 -136.5t-56 -107t-87.5 -74t-113.5 -37.5v-127q0 -63 -33.5 -96.5
t-96.5 -33.5zM388 110q93 0 146.5 64t53.5 176t-53.5 176t-146.5 64h-10q-93 0 -146.5 -64t-53.5 -176t53.5 -176t146.5 -64h10z" />
    <glyph glyph-name="R.fina" horiz-adv-x="682" 
d="M217 383h150q60 0 90 26t30 75t-30 72.5t-90 23.5h-150v-197zM-20 -262v107h497v355q0 37 -14 51t-51 14h-195v-265h-135v700h325q45 0 84.5 -14.5t68 -39.5t45.5 -60t17 -76q0 -66 -29.5 -110.5t-89.5 -66.5q57 0 83 -26t26 -73v-496h-632z" />
    <glyph glyph-name="Racute.fina" horiz-adv-x="682" 
d="M289 745l40 145h155l-105 -145h-90zM217 383h150q60 0 90 26t30 75t-30 72.5t-90 23.5h-150v-197zM-20 -262v107h497v355q0 37 -14 51t-51 14h-195v-265h-135v700h325q45 0 84.5 -14.5t68 -39.5t45.5 -60t17 -76q0 -66 -29.5 -110.5t-89.5 -66.5q57 0 83 -26t26 -73v-496
h-632z" />
    <glyph glyph-name="Rcaron.fina" horiz-adv-x="682" 
d="M152 890h110l80 -58l80 58h110l-120 -145h-140zM217 383h150q60 0 90 26t30 75t-30 72.5t-90 23.5h-150v-197zM-20 -262v107h497v355q0 37 -14 51t-51 14h-195v-265h-135v700h325q45 0 84.5 -14.5t68 -39.5t45.5 -60t17 -76q0 -66 -29.5 -110.5t-89.5 -66.5q57 0 83 -26
t26 -73v-496h-632z" />
    <glyph glyph-name="S.fina" horiz-adv-x="634" 
d="M-20 -262v107h204v265h140q65 0 94.5 25.5t29.5 59.5q0 30 -16.5 48.5t-62.5 28.5l-125 26q-93 19 -136.5 71.5t-43.5 130.5q0 39 17.5 77t50.5 67.5t83 47.5t114 18q63 0 113 -17.5t83.5 -48t51 -72.5t17.5 -92h-135q-4 54 -40 82t-90 28h-10q-56 0 -88 -25.5t-32 -59.5
t20 -52t65 -27l105 -21q90 -18 142 -66.5t52 -133.5q0 -44 -17 -83t-51 -67.5t-84.5 -46t-116.5 -18.5v-252h-334z" />
    <glyph glyph-name="Sacute.fina" horiz-adv-x="634" 
d="M286 745l40 145h155l-105 -145h-90zM-20 -262v107h204v265h140q65 0 94.5 25.5t29.5 59.5q0 30 -16.5 48.5t-62.5 28.5l-125 26q-93 19 -136.5 71.5t-43.5 130.5q0 39 17.5 77t50.5 67.5t83 47.5t114 18q63 0 113 -17.5t83.5 -48t51 -72.5t17.5 -92h-135q-4 54 -40 82
t-90 28h-10q-56 0 -88 -25.5t-32 -59.5t20 -52t65 -27l105 -21q90 -18 142 -66.5t52 -133.5q0 -44 -17 -83t-51 -67.5t-84.5 -46t-116.5 -18.5v-252h-334z" />
    <glyph glyph-name="Scircumflex.fina" horiz-adv-x="634" 
d="M254 750h-110l120 145h140l120 -145h-110l-80 58zM-20 -262v107h204v265h140q65 0 94.5 25.5t29.5 59.5q0 30 -16.5 48.5t-62.5 28.5l-125 26q-93 19 -136.5 71.5t-43.5 130.5q0 39 17.5 77t50.5 67.5t83 47.5t114 18q63 0 113 -17.5t83.5 -48t51 -72.5t17.5 -92h-135
q-4 54 -40 82t-90 28h-10q-56 0 -88 -25.5t-32 -59.5t20 -52t65 -27l105 -21q90 -18 142 -66.5t52 -133.5q0 -44 -17 -83t-51 -67.5t-84.5 -46t-116.5 -18.5v-252h-334z" />
    <glyph glyph-name="Scedilla.fina" horiz-adv-x="634" 
d="M324 -262h-344v107h349q19 0 29.5 6t10.5 19q0 10 -8 17.5t-27 7.5h-55v96q-125 9 -185.5 76t-64.5 168h135q4 -52 43 -88.5t117 -36.5h10q56 0 85 25.5t29 59.5q0 30 -16.5 48.5t-62.5 28.5l-125 26q-93 19 -136.5 71.5t-43.5 130.5q0 39 17.5 77t50.5 67.5t83 47.5
t114 18q63 0 113 -17.5t83.5 -48t51 -72.5t17.5 -92h-135q-4 54 -40 82t-90 28h-10q-56 0 -88 -25.5t-32 -59.5t20 -52t65 -27l105 -21q90 -18 142 -66.5t52 -133.5q0 -84 -60.5 -144.5t-173.5 -69.5v-31q37 0 66 -24t29 -76q0 -60 -34 -91t-86 -31z" />
    <glyph glyph-name="Scaron.fina" horiz-adv-x="634" 
d="M141 890h110l80 -58l80 58h110l-120 -145h-140zM-20 -262v107h204v265h140q65 0 94.5 25.5t29.5 59.5q0 30 -16.5 48.5t-62.5 28.5l-125 26q-93 19 -136.5 71.5t-43.5 130.5q0 39 17.5 77t50.5 67.5t83 47.5t114 18q63 0 113 -17.5t83.5 -48t51 -72.5t17.5 -92h-135
q-4 54 -40 82t-90 28h-10q-56 0 -88 -25.5t-32 -59.5t20 -52t65 -27l105 -21q90 -18 142 -66.5t52 -133.5q0 -44 -17 -83t-51 -67.5t-84.5 -46t-116.5 -18.5v-252h-334z" />
    <glyph glyph-name="T.fina" horiz-adv-x="656" 
d="M-20 -262v107h280v735h-242v120h620v-120h-243v-842h-415z" />
    <glyph glyph-name="uni0162.fina" horiz-adv-x="656" 
d="M425 -140q0 -60 -34 -91t-86 -31h-325v107h330q19 0 29.5 6t10.5 19q0 10 -8 17.5t-27 7.5h-55v685h-242v120h620v-120h-243v-580h-65v-40q37 0 66 -24t29 -76z" />
    <glyph glyph-name="Tcaron.fina" horiz-adv-x="656" 
d="M137 890h110l80 -58l80 58h110l-120 -145h-140zM-20 -262v107h280v735h-242v120h620v-120h-243v-842h-415z" />
    <glyph glyph-name="X.fina" horiz-adv-x="732" 
d="M-20 -262v107h605l-266 400l-166 -245h-152l242 358l-227 342h159l148 -223l151 223h152l-227 -336l416 -626h-835z" />
    <glyph glyph-name="Y.fina" horiz-adv-x="650" 
d="M-20 -262v107h284v435l-260 420h153l179 -294l176 294h148l-261 -420v-542h-419z" />
    <glyph glyph-name="Yacute.fina" horiz-adv-x="650" 
d="M280 745l40 145h155l-105 -145h-90zM-20 -262v107h284v435l-260 420h153l179 -294l176 294h148l-261 -420v-542h-419z" />
    <glyph glyph-name="Ycircumflex.fina" horiz-adv-x="650" 
d="M254 745h-110l120 145h140l120 -145h-110l-80 58zM-20 -262v107h284v435l-260 420h153l179 -294l176 294h148l-261 -420v-542h-419z" />
    <glyph glyph-name="Ydieresis.fina" horiz-adv-x="650" 
d="M370 765v120h125v-120h-125zM175 765v120h125v-120h-125zM-20 -262v107h284v435l-260 420h153l179 -294l176 294h148l-261 -420v-542h-419z" />
    <glyph glyph-name="Ymacron.fina" horiz-adv-x="650" 
d="M167 765v110h335v-110h-335zM-20 -262v107h284v435l-260 420h153l179 -294l176 294h148l-261 -420v-542h-419z" />
    <glyph glyph-name="Ygrave.fina" horiz-adv-x="650" 
d="M349 890l40 -145h-90l-105 145h155zM-20 -262v107h284v435l-260 420h153l179 -294l176 294h148l-261 -420v-542h-419z" />
    <glyph glyph-name="Z.fina" horiz-adv-x="635" 
d="M-20 -262v107h485v155h-425v115l388 465h-378v120h535v-115l-388 -465h398v-382h-615z" />
    <glyph glyph-name="Zacute.fina" horiz-adv-x="635" 
d="M255 750l40 145h155l-105 -145h-90zM-20 -262v107h485v155h-425v115l388 465h-378v120h535v-115l-388 -465h398v-382h-615z" />
    <glyph glyph-name="Zdotaccent.fina" horiz-adv-x="635" 
d="M257 770v135h140v-135h-140zM-20 -262v107h485v155h-425v115l388 465h-378v120h535v-115l-388 -465h398v-382h-615z" />
    <glyph glyph-name="Zcaron.fina" horiz-adv-x="635" 
d="M140 890h110l80 -58l80 58h110l-120 -145h-140zM-20 -262v107h485v155h-425v115l388 465h-378v120h535v-115l-388 -465h398v-382h-615z" />
    <glyph glyph-name="AE.fina" horiz-adv-x="991" 
d="M472 285l-41 287l-145 -287h186zM-20 -262v107h858v155h-325l-24 165h-264l-83 -165h-147l365 700h548v-120h-343l24 -161h289v-120h-274l26 -179h338v-382h-988z" />
    <glyph glyph-name="AEmacron.fina" horiz-adv-x="991" 
d="M466 765v110h335v-110h-335zM472 285l-41 287l-145 -287h186zM-20 -262v107h858v155h-325l-24 165h-264l-83 -165h-147l365 700h548v-120h-343l24 -161h289v-120h-274l26 -179h338v-382h-988z" />
    <glyph glyph-name="AEacute.fina" horiz-adv-x="991" 
d="M551 745l40 145h155l-105 -145h-90zM472 285l-41 287l-145 -287h186zM-20 -262v107h858v155h-325l-24 165h-264l-83 -165h-147l365 700h548v-120h-343l24 -161h289v-120h-274l26 -179h338v-382h-988z" />
    <glyph glyph-name="Thorn.fina" horiz-adv-x="652" 
d="M217 245h165q52 0 78.5 29.5t26.5 75.5q0 47 -26.5 76t-78.5 29h-165v-210zM-20 -262v107h102v855h135v-125h175q101 0 165.5 -59t64.5 -166t-64.5 -166t-165.5 -59h-175v-387h-237z" />
    <glyph glyph-name="Hbar.fina" horiz-adv-x="747" 
d="M221 410h305v82h-305v-82zM-20 -262v107h546v445h-305v-290h-135v492h-60v115h60v93h135v-93h305v93h135v-93h60v-115h-60v-754h-681z" />
    <glyph glyph-name="IJ.fina" horiz-adv-x="546" 
d="M264 -262h-284v107h269q49 0 67 22t18 73v760h135v-752q0 -108 -48.5 -159t-156.5 -51zM74 0v700h135v-700h-135z" />
    <glyph glyph-name="Ldot.fina" horiz-adv-x="630" 
d="M377 305v135h140v-135h-140zM-20 -262v107h502v155h-400v700h135v-580h395v-382h-632z" />
    <glyph glyph-name="Lslash.fina" horiz-adv-x="680" 
d="M-20 -262v107h552v155h-400v235l-95 -53v135l95 53v330h135v-254l170 95v-134l-170 -96v-191h395v-382h-682z" />
    <glyph glyph-name="OE.fina" horiz-adv-x="1167" 
d="M378 110h10q93 0 146.5 64t53.5 176t-53.5 176t-146.5 64h-10q-93 0 -146.5 -64t-53.5 -176t53.5 -176t146.5 -64zM-20 -262v107h1018v155h-410v70q-40 -39 -92 -59.5t-113 -20.5q-75 0 -137.5 24.5t-107.5 71t-70 113.5t-25 151t25 151t70 113.5t107.5 71t137.5 24.5
q61 0 113 -20.5t92 -59.5v70h530v-120h-395v-161h335v-120h-335v-179h405v-382h-1148z" />
    <glyph glyph-name="Tbar.fina" horiz-adv-x="676" 
d="M-20 -262v107h290v478h-170v115h170v142h-242v120h620v-120h-243v-142h170v-115h-170v-585h-425z" />
    <glyph glyph-name="A.init" horiz-adv-x="770" 
d="M512 285l-101 265l-102 -265h203zM-45 -262l381 962h158l270 -700h-143l-63 165h-295l-122 -320h659v-107h-845z" />
    <glyph glyph-name="Agrave.init" horiz-adv-x="770" 
d="M428 890l40 -145h-90l-105 145h155zM512 285l-101 265l-102 -265h203zM-45 -262l381 962h158l270 -700h-143l-63 165h-295l-122 -320h659v-107h-845z" />
    <glyph glyph-name="Aacute.init" horiz-adv-x="770" 
d="M363 745l40 145h155l-105 -145h-90zM512 285l-101 265l-102 -265h203zM-45 -262l381 962h158l270 -700h-143l-63 165h-295l-122 -320h659v-107h-845z" />
    <glyph glyph-name="Acircumflex.init" horiz-adv-x="770" 
d="M331 745h-110l120 145h140l120 -145h-110l-80 58zM512 285l-101 265l-102 -265h203zM-45 -262l381 962h158l270 -700h-143l-63 165h-295l-122 -320h659v-107h-845z" />
    <glyph glyph-name="Atilde.init" horiz-adv-x="770" 
d="M476 850q16 0 23 11.5t7 28.5h95v-26q0 -46 -26.5 -80t-83.5 -34q-19 0 -38.5 6t-41.5 18l-18 10q-12 7 -22.5 11.5t-22.5 4.5q-16 1 -23.5 -11t-7.5 -29h-95v26q0 46 32.5 80t79.5 34q28 0 44.5 -6.5t30.5 -13.5l18 -10q12 -6 24.5 -13t24.5 -7zM512 285l-101 265
l-102 -265h203zM-45 -262l381 962h158l270 -700h-143l-63 165h-295l-122 -320h659v-107h-845z" />
    <glyph glyph-name="Adieresis.init" horiz-adv-x="770" 
d="M447 765v120h125v-120h-125zM252 765v120h125v-120h-125zM512 285l-101 265l-102 -265h203zM-45 -262l381 962h158l270 -700h-143l-63 165h-295l-122 -320h659v-107h-845z" />
    <glyph glyph-name="Aring.init" horiz-adv-x="770" 
d="M303 840q0 43 33.5 76.5t76.5 33.5q47 0 78.5 -33.5t31.5 -76.5q0 -47 -31.5 -78.5t-78.5 -31.5q-43 0 -76.5 31.5t-33.5 78.5zM413 880q-16 0 -28 -12t-12 -28t12 -28t28 -12t27.5 12t11.5 28t-11.5 28t-27.5 12zM512 285l-101 265l-102 -265h203zM-45 -262l381 962h158
l270 -700h-143l-63 165h-295l-122 -320h659v-107h-845z" />
    <glyph glyph-name="Amacron.init" horiz-adv-x="770" 
d="M244 765v110h335v-110h-335zM512 285l-101 265l-102 -265h203zM-45 -262l381 962h158l270 -700h-143l-63 165h-295l-122 -320h659v-107h-845z" />
    <glyph glyph-name="Abreve.init" horiz-adv-x="770" 
d="M411 835q22 0 39.5 13.5t20.5 41.5h110q-1 -68 -49 -109t-121 -41t-121 41t-49 109h110q3 -28 20.5 -41.5t39.5 -13.5zM512 285l-101 265l-102 -265h203zM-45 -262l381 962h158l270 -700h-143l-63 165h-295l-122 -320h659v-107h-845z" />
    <glyph glyph-name="Aogonek.init" horiz-adv-x="774" 
d="M512 285l-101 265l-102 -265h203zM-45 -262l381 962h158l270 -700q-25 -15 -52.5 -42.5t-27.5 -62.5q0 -26 15.5 -38t34.5 -12h70v-107h-90q-52 0 -86 36.5t-34 90.5q0 49 24 82.5t53 52.5h-50l-63 165h-295l-122 -320h324v-107h-510z" />
    <glyph glyph-name="Aringacute.init" horiz-adv-x="770" 
d="M381 928l16 88h125l-62 -88h-79zM328 818q0 38 25.5 63.5t63.5 25.5t63.5 -25.5t25.5 -63.5t-25.5 -63.5t-63.5 -25.5t-63.5 25.5t-25.5 63.5zM417 852q-13 0 -23.5 -10.5t-10.5 -23.5t10.5 -23.5t23.5 -10.5t23 10.5t10 23.5t-10 23.5t-23 10.5zM512 285l-101 265
l-102 -265h203zM-45 -262l381 962h158l270 -700h-143l-63 165h-295l-122 -320h659v-107h-845z" />
    <glyph glyph-name="uni0226.init" horiz-adv-x="770" 
d="M346 765v135h140v-135h-140zM512 285l-101 265l-102 -265h203zM-45 -262l381 962h158l270 -700h-143l-63 165h-295l-122 -320h659v-107h-845z" />
    <glyph glyph-name="uni1EA0.init" horiz-adv-x="770" 
d="M512 285l-101 265l-102 -265h203zM359 -262v130h130v-130h-130zM800 -155v-107h-181v107h181zM-45 -262l381 962h158l270 -700h-143l-63 165h-295l-122 -320h88v-107h-274z" />
    <glyph glyph-name="C.init" horiz-adv-x="711" 
d="M394 -262v252q-86 0 -151.5 26t-109.5 73t-66.5 114t-22.5 147t22 147t64.5 114t105.5 73t143 26q69 0 122.5 -19t90 -51.5t57 -76.5t24.5 -93h-135q-12 57 -51.5 88.5t-102.5 31.5h-10q-86 0 -140.5 -64t-54.5 -176t57 -176t153 -64h135v-265h207v-107h-337z" />
    <glyph glyph-name="Cacute.init" horiz-adv-x="711" 
d="M336 745l40 145h155l-105 -145h-90zM394 -262v252q-86 0 -151.5 26t-109.5 73t-66.5 114t-22.5 147t22 147t64.5 114t105.5 73t143 26q69 0 122.5 -19t90 -51.5t57 -76.5t24.5 -93h-135q-12 57 -51.5 88.5t-102.5 31.5h-10q-86 0 -140.5 -64t-54.5 -176t57 -176t153 -64
h135v-265h207v-107h-337z" />
    <glyph glyph-name="Ccircumflex.init" horiz-adv-x="711" 
d="M303 745h-110l120 145h140l120 -145h-110l-80 58zM394 -262v252q-86 0 -151.5 26t-109.5 73t-66.5 114t-22.5 147t22 147t64.5 114t105.5 73t143 26q69 0 122.5 -19t90 -51.5t57 -76.5t24.5 -93h-135q-12 57 -51.5 88.5t-102.5 31.5h-10q-86 0 -140.5 -64t-54.5 -176
t57 -176t153 -64h135v-265h207v-107h-337z" />
    <glyph glyph-name="Cdotaccent.init" horiz-adv-x="711" 
d="M323 765v135h140v-135h-140zM394 -262v252q-86 0 -151.5 26t-109.5 73t-66.5 114t-22.5 147t22 147t64.5 114t105.5 73t143 26q69 0 122.5 -19t90 -51.5t57 -76.5t24.5 -93h-135q-12 57 -51.5 88.5t-102.5 31.5h-10q-86 0 -140.5 -64t-54.5 -176t57 -176t153 -64h135
v-265h207v-107h-337z" />
    <glyph glyph-name="Ccaron.init" horiz-adv-x="711" 
d="M199 890h110l80 -58l80 58h110l-120 -145h-140zM394 -262v252q-86 0 -151.5 26t-109.5 73t-66.5 114t-22.5 147t22 147t64.5 114t105.5 73t143 26q69 0 122.5 -19t90 -51.5t57 -76.5t24.5 -93h-135q-12 57 -51.5 88.5t-102.5 31.5h-10q-86 0 -140.5 -64t-54.5 -176
t57 -176t153 -64h135v-265h207v-107h-337z" />
    <glyph glyph-name="E.init" horiz-adv-x="661" 
d="M492 -262v262h-410v700h530v-120h-395v-161h335v-120h-335v-179h405v-275h59v-107h-189z" />
    <glyph glyph-name="Egrave.init" horiz-adv-x="661" 
d="M377 890l40 -145h-90l-105 145h155zM492 -262v262h-410v700h530v-120h-395v-161h335v-120h-335v-179h405v-275h59v-107h-189z" />
    <glyph glyph-name="Eacute.init" horiz-adv-x="661" 
d="M292 745l40 145h155l-105 -145h-90zM492 -262v262h-410v700h530v-120h-395v-161h335v-120h-335v-179h405v-275h59v-107h-189z" />
    <glyph glyph-name="Ecircumflex.init" horiz-adv-x="661" 
d="M268 745h-110l120 145h140l120 -145h-110l-80 58zM492 -262v262h-410v700h530v-120h-395v-161h335v-120h-335v-179h405v-275h59v-107h-189z" />
    <glyph glyph-name="Edieresis.init" horiz-adv-x="661" 
d="M384 765v120h125v-120h-125zM189 765v120h125v-120h-125zM492 -262v262h-410v700h530v-120h-395v-161h335v-120h-335v-179h405v-275h59v-107h-189z" />
    <glyph glyph-name="Emacron.init" horiz-adv-x="661" 
d="M182 765v110h335v-110h-335zM492 -262v262h-410v700h530v-120h-395v-161h335v-120h-335v-179h405v-275h59v-107h-189z" />
    <glyph glyph-name="Ebreve.init" horiz-adv-x="661" 
d="M351 835q22 0 39.5 13.5t20.5 41.5h110q-1 -68 -49 -109t-121 -41t-121 41t-49 109h110q3 -28 20.5 -41.5t39.5 -13.5zM492 -262v262h-410v700h530v-120h-395v-161h335v-120h-335v-179h405v-275h59v-107h-189z" />
    <glyph glyph-name="Edotaccent.init" horiz-adv-x="661" 
d="M285 765v135h140v-135h-140zM492 -262v262h-410v700h530v-120h-395v-161h335v-120h-335v-179h405v-275h59v-107h-189z" />
    <glyph glyph-name="Eogonek.init" horiz-adv-x="661" 
d="M681 -155v-107h-109q-52 0 -86 36.5t-34 90.5q0 49 24 82.5t53 52.5h-447v700h530v-120h-395v-161h335v-120h-335v-179h405v-120q-25 -15 -52.5 -42.5t-27.5 -62.5q0 -26 15.5 -38t34.5 -12h89z" />
    <glyph glyph-name="Ecaron.init" horiz-adv-x="661" 
d="M159 890h110l80 -58l80 58h110l-120 -145h-140zM492 -262v262h-410v700h530v-120h-395v-161h335v-120h-335v-179h405v-275h59v-107h-189z" />
    <glyph glyph-name="F.init" horiz-adv-x="616" 
d="M82 -262v962h510v-120h-375v-180h325v-120h-325v-435h419v-107h-554z" />
    <glyph glyph-name="G.init" horiz-adv-x="745" 
d="M577 -262v330q-31 -33 -78.5 -55.5t-111.5 -22.5q-78 0 -142 27.5t-109 75.5t-69.5 114.5t-24.5 142.5t24.5 142.5t69.5 114.5t109 75.5t142 27.5q67 0 121.5 -19t92.5 -52t60 -79t26 -100h-135q-7 56 -46 93t-114 37h-10q-97 0 -151 -66t-54 -174t54 -174t151 -66h10
q66 0 118.5 35.5t68.5 99.5h-192v120h220q41 0 63 -22t22 -63v-435h73v-107h-188z" />
    <glyph glyph-name="Gcircumflex.init" horiz-adv-x="745" 
d="M300 745h-110l120 145h140l120 -145h-110l-80 58zM577 -262v330q-31 -33 -78.5 -55.5t-111.5 -22.5q-78 0 -142 27.5t-109 75.5t-69.5 114.5t-24.5 142.5t24.5 142.5t69.5 114.5t109 75.5t142 27.5q67 0 121.5 -19t92.5 -52t60 -79t26 -100h-135q-7 56 -46 93t-114 37
h-10q-97 0 -151 -66t-54 -174t54 -174t151 -66h10q66 0 118.5 35.5t68.5 99.5h-192v120h220q41 0 63 -22t22 -63v-435h73v-107h-188z" />
    <glyph glyph-name="Gbreve.init" horiz-adv-x="745" 
d="M380 835q22 0 39.5 13.5t20.5 41.5h110q-1 -68 -49 -109t-121 -41t-121 41t-49 109h110q3 -28 20.5 -41.5t39.5 -13.5zM577 -262v330q-31 -33 -78.5 -55.5t-111.5 -22.5q-78 0 -142 27.5t-109 75.5t-69.5 114.5t-24.5 142.5t24.5 142.5t69.5 114.5t109 75.5t142 27.5
q67 0 121.5 -19t92.5 -52t60 -79t26 -100h-135q-7 56 -46 93t-114 37h-10q-97 0 -151 -66t-54 -174t54 -174t151 -66h10q66 0 118.5 35.5t68.5 99.5h-192v120h220q41 0 63 -22t22 -63v-435h73v-107h-188z" />
    </font>
</defs>
</svg>
