<?xml version="1.0" standalone="no"?>
<!DOCTYPE svg PUBLIC "-//W3C//DTD SVG 1.1//EN" "http://www.w3.org/Graphics/SVG/1.1/DTD/svg11.dtd" >
<svg xmlns="http://www.w3.org/2000/svg" xmlns:xlink="http://www.w3.org/1999/xlink" version="1.1">
<metadata>
Created by FontForge 20170731 at Mon Dec  7 21:07:39 2015
 By Aleksey,,,
Copyright 2014 Dinamo (Johannes Breyer, Fabian Harb)
</metadata>
<defs>
<font id="Favorit-LightItalic" horiz-adv-x="600" >
  <font-face 
    font-family="Favorit"
    font-weight="300"
    font-style="italic"
    font-stretch="normal"
    units-per-em="1000"
    panose-1="2 1 3 3 3 2 1 8 2 3"
    ascent="800"
    descent="-200"
    x-height="500"
    cap-height="700"
    bbox="-226 -250 2239 1016"
    underline-thickness="0"
    underline-position="0"
    slope="-12"
    unicode-range="U+0020-FB04"
  />
<missing-glyph horiz-adv-x="680" 
d="M590 0h-500v700h500v-700zM530 55v590h-380v-590h380z" />
    <glyph glyph-name="f_f" unicode="ff" horiz-adv-x="663" 
d="M400 0l95 445h-269l-96 -445h-64l95 445h-108l11 55h109l22 105q11 50 34 72.5t68 22.5h139l-12 -55h-116q-22 0 -32.5 -8.5t-15.5 -33.5l-22 -103h269l22 105q11 50 34 72.5t68 22.5h139l-12 -55h-116q-22 0 -32.5 -8.5t-15.5 -33.5l-22 -103h115l-11 -55h-116l-96 -445
h-64z" />
    <glyph glyph-name="fi" unicode="fi" horiz-adv-x="608" 
d="M521 590l17 85h75l-17 -85h-75zM401 0l94 445h-269l-96 -445h-64l95 445h-108l11 55h109l22 105q11 50 34 72.5t68 22.5h139l-12 -55h-116q-22 0 -32.5 -8.5t-15.5 -33.5l-22 -103h334l-106 -500h-65z" />
    <glyph glyph-name="fl" unicode="fl" horiz-adv-x="608" 
d="M342 445h-116l-96 -445h-64l95 445h-108l11 55h109l22 105q11 50 34 72.5t68 22.5h317l-149 -700h-65l137 645h-229q-22 0 -32.5 -8.5t-15.5 -33.5l-22 -103h115z" />
    <glyph glyph-name="f_f_i" unicode="ffi" horiz-adv-x="942" 
d="M855 590l17 85h75l-17 -85h-75zM400 0l95 445h-269l-96 -445h-64l95 445h-108l11 55h109l22 105q11 50 34 72.5t68 22.5h139l-12 -55h-116q-22 0 -32.5 -8.5t-15.5 -33.5l-22 -103h269l22 105q11 50 34 72.5t68 22.5h139l-12 -55h-116q-22 0 -32.5 -8.5t-15.5 -33.5
l-22 -103h334l-106 -500h-65l94 445h-269l-96 -445h-64z" />
    <glyph glyph-name="f_f_l" unicode="ffl" horiz-adv-x="942" 
d="M400 0l95 445h-269l-96 -445h-64l95 445h-108l11 55h109l22 105q11 50 34 72.5t68 22.5h139l-12 -55h-116q-22 0 -32.5 -8.5t-15.5 -33.5l-22 -103h269l22 105q11 50 34 72.5t68 22.5h317l-149 -700h-65l137 645h-229q-22 0 -32.5 -8.5t-15.5 -33.5l-22 -103h115l-11 -55
h-116l-96 -445h-64z" />
    <glyph glyph-name="W_W_W" unicode="www" horiz-adv-x="2075" 
d="M435 0l-30 421l-207 -421h-87l-47 500h63l38 -441l214 441h79l32 -440l226 440h68l-1 -2l38 -439l214 441h79l32 -440l226 440h68l-2 -3l38 -438l214 441h79l32 -440l226 440h68l-262 -500h-87l-30 421l-207 -421h-87l-37 395l-207 -395h-87l-30 421l-207 -421h-87
l-37 396l-208 -396h-87z" />
    <glyph glyph-name=".notdef" horiz-adv-x="680" 
d="M590 0h-500v700h500v-700zM530 55v590h-380v-590h380z" />
    <glyph glyph-name=".null" horiz-adv-x="0" 
 />
    <glyph glyph-name="nonmarkingreturn" horiz-adv-x="333" 
 />
    <glyph glyph-name="space" unicode=" " horiz-adv-x="252" 
 />
    <glyph glyph-name="exclam" unicode="!" horiz-adv-x="241" 
d="M87 190l36 286l48 224h70l-48 -224l-84 -286h-22zM28 0l17 85h75l-17 -85h-75z" />
    <glyph glyph-name="quotedbl" unicode="&#x22;" horiz-adv-x="340" 
d="M275 490l9 130l17 80h65l-17 -80l-52 -130h-22zM120 490l9 130l17 80h65l-17 -80l-52 -130h-22z" />
    <glyph glyph-name="numbersign" unicode="#" horiz-adv-x="662" 
d="M410 245l43 210h-176l-45 -210h178zM359 0l39 190h-178l-41 -190h-65l41 190h-108v55h120l45 210h-122v55h133l41 190h65l-41 -190h177l39 190h65l-39 -190h108v-55h-120l-43 -210h121v-55h-133l-39 -190h-65z" />
    <glyph glyph-name="dollar" unicode="$" horiz-adv-x="605" 
d="M280 406l19 -7l90 243q-18 3 -37 3q-73 0 -123.5 -39t-50.5 -98q0 -38 25.5 -61t76.5 -41zM286 55q78 0 128 36.5t50 96.5q0 44 -28 73.5t-103 54.5l-95 -257q21 -4 48 -4zM286 -10q-38 0 -71 6l-43 -116h-65l49 132q-63 24 -97.5 73t-34.5 115q0 16 1 20h68v-14
q0 -93 86 -131l96 260l-23 8q-74 25 -108.5 60t-34.5 94q0 92 71.5 152.5t176.5 60.5q26 0 56 -5l42 115h65l-49 -132q60 -25 93.5 -74.5t33.5 -109.5v-8h-68q-1 92 -82 129l-91 -246l21 -7q154 -53 154 -173q0 -91 -68 -150t-178 -59z" />
    <glyph glyph-name="percent" unicode="%" horiz-adv-x="1008" 
d="M81 473q0 103 51.5 167.5t130.5 64.5q71 0 110 -47t39 -127q0 -103 -51 -167t-128 -64q-73 0 -112.5 46t-39.5 127zM205 0l560 700h73l-560 -700h-73zM351 529q0 55 -22 90.5t-68 35.5q-49 0 -84 -49t-35 -130q0 -126 93 -126q47 0 81.5 49.5t34.5 129.5zM621 168
q0 103 51.5 167.5t130.5 64.5q71 0 110 -47t39 -127q0 -103 -51 -167t-128 -64q-73 0 -112.5 46t-39.5 127zM891 224q0 55 -22 90.5t-68 35.5q-49 0 -84 -49t-35 -130q0 -126 93 -126q47 0 81.5 49.5t34.5 129.5z" />
    <glyph glyph-name="ampersand" unicode="&#x26;" horiz-adv-x="631" 
d="M430 0h-207q-87 0 -138.5 46t-51.5 124q0 73 43.5 129t114.5 67q-37 17 -60.5 56t-23.5 87q0 82 57.5 136.5t144.5 54.5h131l-14 -65h-107q-67 0 -105.5 -34.5t-38.5 -94.5q0 -56 31 -87t87 -31h151l27 126h68l-27 -126h111l-13 -65h-112zM376 65l55 258h-185
q-65 0 -105 -40.5t-40 -103.5q0 -53 37 -83.5t99 -30.5h139z" />
    <glyph glyph-name="quotesingle" unicode="'" horiz-adv-x="185" 
d="M120 490l9 130l17 80h65l-17 -80l-52 -130h-22z" />
    <glyph glyph-name="parenleft" unicode="(" horiz-adv-x="378" 
d="M53 243q0 154 60 291.5t157.5 221t205.5 89.5l-13 -60q-90 -15 -169.5 -92.5t-127.5 -194.5t-48 -241q0 -122 38.5 -214t116.5 -133l-12 -55q-88 22 -148 131.5t-60 256.5z" />
    <glyph glyph-name="parenright" unicode=")" horiz-adv-x="378" 
d="M349 457q0 -154 -60 -291.5t-157.5 -221t-205.5 -89.5l13 60q90 15 169.5 92.5t127.5 194.5t48 241q0 122 -38.5 214t-116.5 133l12 55q88 -22 148 -131.5t60 -256.5z" />
    <glyph glyph-name="asterisk" unicode="*" horiz-adv-x="432" 
d="M377 455l-44 -25l-60 104l-60 -104l-43 25l60 104h-120v50h120l-60 104l44 25l60 -104l60 104l43 -25l-60 -104h120v-50h-120z" />
    <glyph glyph-name="plus" unicode="+" horiz-adv-x="586" 
d="M533 228h-215v-213h-65v213h-215v60h215v212h65v-212h215v-60z" />
    <glyph glyph-name="comma" unicode="," horiz-adv-x="242" 
d="M-13 -115h-18l8 40h11q31 0 53 16t28 44l3 15h-58l21 100h105l-23 -110q-22 -105 -130 -105z" />
    <glyph glyph-name="hyphen" unicode="-" horiz-adv-x="391" 
d="M65 275l12 55h250l-12 -55h-250z" />
    <glyph glyph-name="period" unicode="." horiz-adv-x="236" 
d="M13 0l21 100h100l-21 -100h-100z" />
    <glyph glyph-name="slash" unicode="/" horiz-adv-x="376" 
d="M-17 0l360 700h74l-360 -700h-74z" />
    <glyph glyph-name="zero" unicode="0" horiz-adv-x="654" 
d="M64 261q0 54 10 111.5t34.5 118.5t61 109t94.5 79t129 31q103 0 162.5 -72t59.5 -198q0 -54 -10 -111.5t-34.5 -119t-61 -109.5t-94.5 -79t-129 -31q-103 0 -162.5 72.5t-59.5 198.5zM547 436q0 90 -39.5 149.5t-120.5 59.5q-106 0 -180.5 -111.5t-74.5 -269.5
q0 -90 40 -149.5t122 -59.5q105 0 179 111.5t74 269.5z" />
    <glyph glyph-name="one" unicode="1" horiz-adv-x="360" 
d="M199 0h-68l126 592l-193 -146l20 91l212 163h52z" />
    <glyph glyph-name="two" unicode="2" horiz-adv-x="569" 
d="M469 0h-456l16 75l268 208q95 74 134.5 122.5t39.5 101.5q0 64 -41.5 101t-112.5 37q-64 0 -107 -41.5t-46 -107.5h-68q1 93 66 153.5t163 60.5q96 0 155 -57.5t59 -142.5q0 -70 -45 -128.5t-155 -144.5l-218 -170h362z" />
    <glyph glyph-name="three" unicode="3" horiz-adv-x="572" 
d="M27 178h68q0 -53 44.5 -88t115.5 -35q74 0 120 42t46 104q0 55 -36.5 85.5t-102.5 30.5h-40l14 65h70q61 0 106.5 37.5t45.5 98.5q0 60 -39.5 93.5t-107.5 33.5q-60 0 -101 -34t-50 -91h-68q8 79 68.5 134.5t156.5 55.5q94 0 151.5 -51t57.5 -133q0 -69 -42 -117
t-105 -65q40 -19 65 -56.5t25 -89.5q0 -88 -65 -148t-172 -60q-100 0 -162.5 51t-62.5 137z" />
    <glyph glyph-name="four" unicode="4" horiz-adv-x="596" 
d="M367 232l86 405l-367 -405h281zM539 169h-121l-36 -169h-64l36 169h-347l18 86l408 445h98l-100 -468h121z" />
    <glyph glyph-name="five" unicode="5" horiz-adv-x="563" 
d="M251 -10q-93 0 -156 50t-66 140h68q4 -63 47.5 -94t108.5 -31q77 0 125 47t48 120q0 67 -41.5 109t-111.5 42q-52 0 -87 -19.5t-73 -60.5h-65l172 407h347l-14 -67h-297l-107 -248q61 53 142 53q84 0 143.5 -60.5t59.5 -147.5q0 -109 -68 -174.5t-175 -65.5z" />
    <glyph glyph-name="six" unicode="6" horiz-adv-x="613" 
d="M538 248q0 -105 -68 -181.5t-180 -76.5q-98 0 -162 67t-64 201q0 116 38.5 217.5t117 168t181.5 66.5q87 0 144 -48t64 -127h-68q-8 51 -47.5 80.5t-101.5 29.5q-93 0 -161 -76.5t-94 -203.5q64 96 187 96q93 0 153.5 -59t60.5 -154zM132 223q0 -75 43.5 -121.5
t114.5 -46.5q79 0 129.5 54t50.5 132q0 70 -39.5 112.5t-112.5 42.5q-81 0 -133.5 -47t-52.5 -126z" />
    <glyph glyph-name="seven" unicode="7" horiz-adv-x="515" 
d="M174 0h-68l4 44q19 214 109 365.5t237 223.5h-360l14 67h466l-15 -70q-175 -73 -269 -215t-116 -392z" />
    <glyph glyph-name="eight" unicode="8" horiz-adv-x="562" 
d="M245 -10q-86 0 -140 48.5t-54 131.5q0 62 45.5 116t113.5 67q-43 17 -72.5 57t-29.5 95q0 94 67 149.5t167 55.5q88 0 147.5 -50t59.5 -137q0 -74 -53 -127t-122 -63q43 -22 67.5 -61t24.5 -86q0 -81 -60.5 -138.5t-160.5 -57.5zM316 379q66 0 115.5 37t49.5 104
q0 61 -41 93t-104 32q-70 0 -115 -38t-45 -104q0 -59 42 -91.5t98 -32.5zM251 55q64 0 105.5 38.5t41.5 98.5q0 51 -37 84t-94 33q-63 0 -105.5 -39t-42.5 -99q0 -50 37 -83t95 -33z" />
    <glyph glyph-name="nine" unicode="9" horiz-adv-x="612" 
d="M505 477q0 75 -43.5 121.5t-114.5 46.5q-79 0 -129.5 -54t-50.5 -132q0 -70 39.5 -112.5t112.5 -42.5q81 0 133.5 47t52.5 126zM236 -10q-87 0 -144 48t-64 127h68q8 -51 47.5 -80.5t101.5 -29.5q93 0 161 76.5t94 203.5q-64 -96 -187 -96q-93 0 -153.5 59t-60.5 154
q0 105 68 181.5t180 76.5q98 0 162 -67t64 -201q0 -116 -38.5 -217.5t-117 -168t-181.5 -66.5z" />
    <glyph glyph-name="colon" unicode=":" horiz-adv-x="238" 
d="M92 400l21 100h100l-21 -100h-100zM7 0l21 100h100l-21 -100h-100z" />
    <glyph glyph-name="semicolon" unicode=";" horiz-adv-x="272" 
d="M113 400l21 100h100l-21 -100h-100zM1 -115h-18l8 40h11q31 0 53 16t28 44l3 15h-58l21 100h105l-23 -110q-22 -105 -130 -105z" />
    <glyph glyph-name="less" unicode="&#x3c;" horiz-adv-x="551" 
d="M461 51l-425 177v56l425 177v-73l-330 -130l330 -131v-76z" />
    <glyph glyph-name="equal" unicode="=" horiz-adv-x="695" 
d="M93 315v65h494v-65h-494zM93 134v65h494v-65h-494z" />
    <glyph glyph-name="greater" unicode="&#x3e;" horiz-adv-x="549" 
d="M73 51v73l330 131l-330 130v76l425 -177v-56z" />
    <glyph glyph-name="question" unicode="?" horiz-adv-x="450" 
d="M111 205l25 118q13 52 38 70t67 18h10q64 0 102.5 34.5t38.5 88.5t-33.5 77.5t-99.5 23.5h-151l14 65h145q91 0 142 -42t51 -121q0 -81 -57.5 -136t-146.5 -55q-44 0 -53 -40l-24 -101h-68zM70 0l17 85h75l-17 -85h-75z" />
    <glyph glyph-name="at" unicode="@" horiz-adv-x="924" 
d="M730 -125h-250q-119 0 -211 47t-148 147t-56 241q0 127 59 225t151 146.5t198 48.5q178 0 290 -104.5t112 -271.5q0 -67 -20.5 -119t-53 -81t-67.5 -44t-70 -15h-74v77q-12 -35 -48 -61t-84 -26q-79 0 -131 58t-52 157q0 98 52 154t131 56q92 0 132 -80v70h60v-350h9
q23 0 46 8t48.5 28t41 63t15.5 105q0 145 -91.5 233t-245.5 88q-145 0 -244 -101t-99 -264q0 -177 97.5 -278.5t257.5 -101.5h245v-55zM459 140h8q51 0 87 44.5t36 115.5q0 73 -36.5 114t-86.5 41h-8q-51 0 -85 -40.5t-34 -114.5q0 -72 33.5 -116t85.5 -44z" />
    <glyph glyph-name="A" unicode="A" horiz-adv-x="668" 
d="M482 258l-71 380l-233 -380h304zM530 0l-36 193h-356l-118 -193h-76l433 700h90l131 -700h-68z" />
    <glyph glyph-name="B" unicode="B" horiz-adv-x="667" 
d="M640 532q0 -67 -42.5 -119.5t-107.5 -65.5q46 -17 71 -53.5t25 -86.5q0 -85 -59 -146t-150 -61h-341l149 700h257q90 0 144 -46t54 -122zM570 524q0 111 -138 111h-191l-53 -248h231q64 0 107.5 37t43.5 100zM516 214q0 51 -33.5 79.5t-94.5 28.5h-214l-54 -257h247
q63 0 106 36t43 113z" />
    <glyph glyph-name="C" unicode="C" horiz-adv-x="704" 
d="M676 486h-70q-2 74 -51 116.5t-135 42.5q-121 0 -203.5 -99t-82.5 -251q0 -112 60 -176t170 -64q79 0 140.5 40.5t74.5 118.5h70q-18 -104 -97 -164t-198 -60q-132 0 -211 80t-79 213q0 181 100.5 304t266.5 123q105 0 173 -60t72 -164z" />
    <glyph glyph-name="D" unicode="D" horiz-adv-x="710" 
d="M36 0l149 700h183q87 0 149 -25.5t94 -69.5t46 -91t14 -102q0 -75 -23 -147.5t-65 -132t-108 -96t-145 -36.5h-294zM367 635h-126l-121 -570h196q92 0 159 52t96.5 128.5t29.5 164.5q0 108 -60 166.5t-174 58.5z" />
    <glyph glyph-name="E" unicode="E" horiz-adv-x="642" 
d="M550 65l-14 -65h-500l149 700h490l-14 -65h-420l-52 -242h361l-14 -65h-360l-56 -263h430z" />
    <glyph glyph-name="F" unicode="F" 
d="M36 0l149 700h470l-14 -65h-400l-56 -263h351l-14 -65h-351l-65 -307h-70z" />
    <glyph glyph-name="G" unicode="G" horiz-adv-x="745" 
d="M564 0l27 128q-29 -57 -96.5 -97.5t-142.5 -40.5q-129 0 -208.5 83t-79.5 213q0 117 45 213t131 153.5t197 57.5t186 -68t75 -167h-70q-6 83 -62.5 126.5t-138.5 43.5q-128 0 -210.5 -102.5t-82.5 -241.5q0 -115 59 -180.5t160 -65.5q89 0 163.5 67t100.5 163h-224l13 65
h211q33 0 51 -16t18 -45q0 -15 -3 -33l-54 -256h-65z" />
    <glyph glyph-name="H" unicode="H" horiz-adv-x="731" 
d="M501 0l68 318h-395l-68 -318h-70l149 700h70l-67 -317h395l67 317h70l-149 -700h-70z" />
    <glyph glyph-name="I" unicode="I" horiz-adv-x="266" 
d="M36 0l149 700h70l-149 -700h-70z" />
    <glyph glyph-name="J" unicode="J" horiz-adv-x="379" 
d="M53 0h-86l14 65h88q52 0 82 29.5t44 95.5l109 510h70l-111 -520q-21 -97 -68 -138.5t-142 -41.5z" />
    <glyph glyph-name="K" unicode="K" horiz-adv-x="701" 
d="M572 0l-241 357l-181 -150l-43 -207h-70l147 700h70l-83 -397l474 397h98l-360 -299l271 -401h-82z" />
    <glyph glyph-name="L" unicode="L" horiz-adv-x="597" 
d="M526 0h-490l149 700h70l-135 -635h420z" />
    <glyph glyph-name="M" unicode="M" horiz-adv-x="929" 
d="M355 0l-113 637l-136 -637h-70l149 700h114l113 -644l386 644h120l-149 -700h-70l136 636l-384 -636h-96z" />
    <glyph glyph-name="N" unicode="N" horiz-adv-x="741" 
d="M496 0l-259 618l-131 -618h-70l149 700h90l256 -607l129 607h70l-149 -700h-85z" />
    <glyph glyph-name="O" unicode="O" horiz-adv-x="755" 
d="M421 710q136 0 214.5 -82.5t78.5 -219.5q0 -80 -24 -154t-68 -133.5t-114.5 -95t-156.5 -35.5q-125 0 -206 82t-81 215q0 185 106.5 304t250.5 119zM134 293q0 -108 60 -173t157 -65q123 0 208 95t85 252q0 111 -59 177t-164 66q-115 0 -201 -98.5t-86 -253.5z" />
    <glyph glyph-name="P" unicode="P" horiz-adv-x="629" 
d="M406 635h-165l-60 -282h223q70 0 115 41.5t45 113.5q0 59 -39.5 93t-118.5 34zM407 288h-240l-61 -288h-70l149 700h231q96 0 157 -51t61 -133q0 -100 -62 -164t-165 -64z" />
    <glyph glyph-name="Q" unicode="Q" horiz-adv-x="754" 
d="M521 -175h-150q-93 0 -93 81q0 16 5 39l11 50q-103 18 -166.5 96.5t-63.5 195.5q0 185 106.5 304t250.5 119q136 0 214.5 -82.5t78.5 -219.5q0 -106 -39 -198t-120.5 -154.5t-191.5 -65.5l-12 -55q-3 -12 -3 -21q0 -24 37 -24h149zM134 293q0 -108 60 -173t157 -65
q123 0 208 95t85 252q0 111 -59 177t-164 66q-115 0 -201 -98.5t-86 -253.5z" />
    <glyph glyph-name="R" unicode="R" horiz-adv-x="673" 
d="M395 635h-154l-58 -275h204q74 0 120.5 42t46.5 110q0 123 -159 123zM106 0h-70l149 700h229q100 0 155.5 -47.5t55.5 -128.5q0 -63 -33.5 -114.5t-87.5 -71.5q34 -3 55 -26.5t21 -58.5q0 -20 -5 -47l-44 -206h-70l45 212q10 46 -8.5 64.5t-75.5 18.5h-253z" />
    <glyph glyph-name="S" unicode="S" horiz-adv-x="612" 
d="M601 495h-70q-1 72 -50.5 111t-125.5 39q-73 0 -123 -39t-50 -98q0 -38 25 -61t76 -41l98 -34q154 -53 154 -173q0 -91 -68 -150t-178 -59q-122 0 -192 57t-70 153q0 16 1 20h69v-14q0 -76 55.5 -113.5t136.5 -37.5q78 0 127 36t49 97q0 44 -28 73.5t-105 55.5l-77 26
q-74 25 -108.5 60t-34.5 94q0 92 71.5 152.5t176.5 60.5q107 0 174 -59.5t67 -146.5v-9z" />
    <glyph glyph-name="T" unicode="T" horiz-adv-x="596" 
d="M656 635h-245l-135 -635h-70l135 635h-255l14 65h570z" />
    <glyph glyph-name="U" unicode="U" horiz-adv-x="694" 
d="M588 223q-24 -112 -98 -172.5t-197 -60.5q-101 0 -157.5 55t-56.5 155q0 43 10 87l88 413h70l-90 -422q-9 -41 -9 -74q0 -149 161 -149q173 0 214 191l97 454h70z" />
    <glyph glyph-name="V" unicode="V" horiz-adv-x="668" 
d="M313 0h-80l-141 700h70l124 -628l383 628h78z" />
    <glyph glyph-name="W" unicode="W" horiz-adv-x="915" 
d="M561 0l-35 612l-295 -612h-86l-38 700h73l22 -625l301 625h78l37 -629l283 629h78l-334 -700h-84z" />
    <glyph glyph-name="X" unicode="X" horiz-adv-x="624" 
d="M477 0l-159 305l-285 -305h-84l339 363l-176 337h76l149 -285l266 285h84l-320 -343l186 -357h-76z" />
    <glyph glyph-name="Y" unicode="Y" horiz-adv-x="612" 
d="M279 0h-70l61 284l-180 416h73l152 -353l295 353h85l-356 -418z" />
    <glyph glyph-name="Z" unicode="Z" horiz-adv-x="594" 
d="M493 0h-514l17 81l542 554h-415l14 65h492l-17 -80l-539 -555h434z" />
    <glyph glyph-name="bracketleft" unicode="[" horiz-adv-x="316" 
d="M-2 -145l211 990h199l-12 -55h-139l-187 -880h140l-12 -55h-200z" />
    <glyph glyph-name="backslash" unicode="\" horiz-adv-x="637" 
d="M189 700l360 -700h-74l-360 700h74z" />
    <glyph glyph-name="bracketright" unicode="]" horiz-adv-x="317" 
d="M343 845l-211 -990h-199l12 55h139l187 880h-140l12 55h200z" />
    <glyph glyph-name="asciicircum" unicode="^" horiz-adv-x="524" 
d="M423 285l-151 356l-151 -356h-65l177 415h79l178 -415h-67z" />
    <glyph glyph-name="underscore" unicode="_" horiz-adv-x="490" 
d="M-44 -55l12 55h430l-12 -55h-430z" />
    <glyph glyph-name="grave" unicode="`" horiz-adv-x="202" 
d="M93 700l57 -130h-49l-88 130h80z" />
    <glyph glyph-name="a" unicode="a" horiz-adv-x="590" 
d="M291 455q-77 0 -131.5 -65.5t-54.5 -169.5q0 -85 40.5 -130t104.5 -45q83 0 136 75t53 169q0 79 -44 122.5t-104 43.5zM388 0l13 66q-61 -76 -166 -76q-80 0 -137.5 56.5t-57.5 165.5q0 133 71 215.5t176 82.5q61 0 109.5 -31t70.5 -88l22 109h65l-106 -500h-60z" />
    <glyph glyph-name="b" unicode="b" horiz-adv-x="591" 
d="M286 -10q-60 0 -109.5 31.5t-71.5 88.5l-23 -110h-64l149 700h64l-56 -261q61 71 161 71q80 0 138.5 -57.5t58.5 -164.5q0 -133 -71 -215.5t-176 -82.5zM282 45q77 0 131.5 65.5t54.5 169.5q0 86 -38.5 130.5t-105.5 44.5q-86 0 -138 -74.5t-52 -169.5q0 -79 44 -122.5
t104 -43.5z" />
    <glyph glyph-name="c" unicode="c" horiz-adv-x="537" 
d="M492 340h-65q0 57 -35.5 86t-94.5 29q-84 0 -138.5 -69t-54.5 -179q0 -74 41.5 -118t115.5 -44q53 0 91.5 31t53.5 84h65q-17 -80 -76.5 -125t-140.5 -45q-96 0 -155.5 57t-59.5 158q0 140 76 222.5t188 82.5q83 0 136 -46.5t53 -123.5z" />
    <glyph glyph-name="d" unicode="d" horiz-adv-x="591" 
d="M294 455q-78 0 -133.5 -65t-55.5 -170q0 -85 40 -130t104 -45q86 0 138 74.5t52 169.5q0 79 -42.5 122.5t-102.5 43.5zM388 0l14 67q-63 -77 -167 -77q-80 0 -137.5 56.5t-57.5 165.5q0 133 72.5 215.5t177.5 82.5q59 0 107.5 -29.5t71.5 -83.5l61 303h67l-149 -700h-60z
" />
    <glyph glyph-name="e" unicode="e" horiz-adv-x="538" 
d="M293 455q-69 0 -115.5 -41.5t-63.5 -113.5h303q3 19 3 35q0 60 -33.5 90t-93.5 30zM466 143q-20 -70 -77 -111.5t-144 -41.5q-93 0 -149 62.5t-56 168.5q0 125 74.5 207t187.5 82q78 0 130.5 -47t52.5 -136q0 -35 -11 -82h-368q-1 -8 -1 -24q0 -80 42 -128t108 -48
q109 0 146 98h65z" />
    <glyph glyph-name="f" unicode="f" horiz-adv-x="329" 
d="M342 445h-116l-96 -445h-64l95 445h-108l11 55h109l22 105q11 50 34 72.5t68 22.5h139l-12 -55h-116q-22 0 -32.5 -8.5t-15.5 -33.5l-22 -103h115z" />
    <glyph glyph-name="g" unicode="g" horiz-adv-x="587" 
d="M291 455q-77 0 -131.5 -65.5t-54.5 -169.5q0 -80 40.5 -122.5t104.5 -42.5q84 0 134 71.5t50 162.5q0 80 -41.5 123t-101.5 43zM191 -220q-79 0 -137.5 38.5t-65.5 111.5h67q7 -45 48.5 -70t96.5 -25q145 0 181 171l14 67q-58 -73 -160 -73q-80 0 -137.5 53.5
t-57.5 158.5q0 133 71 215.5t176 82.5q60 0 107.5 -31.5t68.5 -87.5l23 109h65l-109 -512q-45 -208 -251 -208z" />
    <glyph glyph-name="h" unicode="h" horiz-adv-x="560" 
d="M425 0h-65l64 302q4 20 4 42q0 49 -31 80t-81 31q-64 0 -111 -51t-66 -144l-55 -260h-65l148 700h65l-55 -264q61 74 157 74q71 0 115 -43t44 -113q0 -39 -8 -74z" />
    <glyph glyph-name="i" unicode="i" horiz-adv-x="226" 
d="M139 590l17 85h75l-17 -85h-75zM19 0l106 500h65l-106 -500h-65z" />
    <glyph glyph-name="j" unicode="j" horiz-adv-x="235" 
d="M145 590l17 85h75l-17 -85h-75zM198 500l-119 -571q-20 -94 -95 -94h-141l12 55h115q34 0 44 44l119 566h65z" />
    <glyph glyph-name="k" unicode="k" horiz-adv-x="558" 
d="M430 0l-172 258l-145 -116l-30 -142h-65l149 700h65l-100 -471l338 271h92l-255 -204l199 -296h-76z" />
    <glyph glyph-name="l" unicode="l" horiz-adv-x="226" 
d="M18 0l149 700h65l-149 -700h-65z" />
    <glyph glyph-name="m" unicode="m" horiz-adv-x="890" 
d="M139 260l-55 -260h-65l106 500h64l-13 -64q61 74 158 74q55 0 93 -27t53 -77q64 104 187 104q68 0 111.5 -43t43.5 -111q0 -36 -8 -76l-60 -280h-65l64 302q5 25 5 42q0 50 -27.5 80.5t-80.5 30.5q-64 0 -110.5 -51t-65.5 -144l-55 -260h-65l64 302q5 25 5 42
q0 50 -27 80.5t-80 30.5q-64 0 -111 -51t-66 -144z" />
    <glyph glyph-name="n" unicode="n" horiz-adv-x="561" 
d="M425 0h-65l64 302q4 20 4 42q0 50 -31 80.5t-80 30.5q-64 0 -111.5 -51t-66.5 -144l-55 -260h-65l106 500h65l-13 -64q61 74 157 74q71 0 115 -43t44 -113q0 -39 -8 -74z" />
    <glyph glyph-name="o" unicode="o" horiz-adv-x="564" 
d="M254 -10q-95 0 -155 59t-60 159q0 133 74.5 217.5t178.5 84.5q95 0 155 -59t60 -159q0 -136 -74 -219t-179 -83zM442 292q0 70 -41 116.5t-110 46.5q-75 0 -131 -65t-56 -182q0 -70 40.5 -116.5t110.5 -46.5q73 0 130 65.5t57 181.5z" />
    <glyph glyph-name="p" unicode="p" horiz-adv-x="593" 
d="M284 45q77 0 131.5 66t54.5 170q0 85 -40 129.5t-105 44.5q-86 0 -137.5 -74.5t-51.5 -169.5q0 -79 44.5 -122.5t103.5 -43.5zM288 -10q-61 0 -110.5 31.5t-70.5 89.5l-66 -311h-65l149 700h65l-14 -65q62 75 163 75q81 0 138.5 -56.5t57.5 -165.5q0 -133 -71 -215.5
t-176 -82.5z" />
    <glyph glyph-name="q" unicode="q" horiz-adv-x="593" 
d="M408 -200h-65l56 263q-59 -73 -164 -73q-80 0 -137.5 56.5t-57.5 165.5q0 133 71 215.5t176 82.5q63 0 111.5 -32t69.5 -90l24 112h65zM291 455q-77 0 -131.5 -65.5t-54.5 -169.5q0 -85 40.5 -130t104.5 -45q86 0 137.5 74.5t51.5 169.5q0 79 -44 122.5t-104 43.5z" />
    <glyph glyph-name="r" unicode="r" horiz-adv-x="349" 
d="M84 0h-65l106 500h63l-20 -96q21 43 63.5 72t92.5 29h51l-12 -60h-49q-64 0 -111 -54t-70 -161z" />
    <glyph glyph-name="s" unicode="s" horiz-adv-x="473" 
d="M387 141q0 -67 -52 -109t-131 -42q-89 0 -141.5 42.5t-55.5 117.5h65q4 -53 40.5 -79t94.5 -26q51 0 83 26t32 68q0 48 -77 75l-57 20q-56 19 -84.5 47t-28.5 72q0 66 50 111.5t131 45.5q77 0 129.5 -42.5t53.5 -117.5h-65q-1 49 -37 77t-87 28q-49 0 -79.5 -26
t-30.5 -69q0 -45 73 -70l60 -21q52 -18 83 -46.5t31 -81.5z" />
    <glyph glyph-name="t" unicode="t" horiz-adv-x="367" 
d="M301 55l-12 -55h-110q-89 0 -89 77q0 22 3 34l70 334h-118l11 55h120l35 162h65l-35 -162h128l-11 -55h-129l-74 -347q-1 -5 -1 -15q0 -13 10 -20.5t24 -7.5h113z" />
    <glyph glyph-name="u" unicode="u" horiz-adv-x="551" 
d="M119 500h66l-64 -302q-6 -27 -6 -49q0 -49 26.5 -76.5t75.5 -27.5q67 0 112.5 50.5t65.5 144.5l55 260h65l-106 -500h-65l14 64q-64 -75 -158 -74q-72 1 -111 40.5t-39 112.5q0 33 9 74z" />
    <glyph glyph-name="v" unicode="v" horiz-adv-x="496" 
d="M219 0h-67l-90 500h65l73 -424l252 424h71z" />
    <glyph glyph-name="w" unicode="w" horiz-adv-x="764" 
d="M435 0l-30 421l-207 -421h-87l-47 500h63l38 -441l214 441h79l32 -440l226 440h68l-262 -500h-87z" />
    <glyph glyph-name="x" unicode="x" horiz-adv-x="500" 
d="M348 0l-114 204l-196 -204h-80l247 257l-136 243h70l110 -197l190 197h80l-240 -250l139 -250h-70z" />
    <glyph glyph-name="y" unicode="y" horiz-adv-x="524" 
d="M119 -165h-153l12 55h119q31 0 42 12.5t21 56.5l13 57l-105 484h65l86 -407l268 407h71l-320 -481l-19 -90q-20 -94 -100 -94z" />
    <glyph glyph-name="z" unicode="z" horiz-adv-x="471" 
d="M373 0h-394l15 70l388 375h-303l11 55h375l-15 -70l-389 -375h324z" />
    <glyph glyph-name="braceleft" unicode="{" horiz-adv-x="340" 
d="M264 688l-52 -252q-15 -76 -71 -76h-32l-5 -20h14q33 0 48 -23.5t6 -66.5l-51 -241q-7 -30 -7 -47q0 -25 15 -38.5t52 -13.5h54l-12 -55h-72q-98 0 -98 101q0 22 7 59l45 222q5 27 -2.5 37.5t-31.5 10.5h-30l27 130h40q35 0 43 40l52 248q16 78 48 110t92 32h88l-12 -55
h-54q-29 0 -47.5 -6t-28.5 -22t-14.5 -30t-10.5 -44z" />
    <glyph glyph-name="bar" unicode="|" horiz-adv-x="287" 
d="M189 -85h-65v870h65v-870z" />
    <glyph glyph-name="braceright" unicode="}" horiz-adv-x="340" 
d="M101 12l52 252q15 76 71 76h32l5 20h-14q-33 0 -48 23.5t-6 66.5l51 241q7 30 7 47q0 25 -15 38.5t-52 13.5h-54l12 55h72q98 0 98 -101q0 -22 -7 -59l-45 -222q-5 -27 2.5 -37.5t31.5 -10.5h30l-27 -130h-40q-35 0 -43 -40l-52 -248q-16 -78 -48 -110t-92 -32h-88l12 55
h54q29 0 47.5 6t28.5 22t14.5 30t10.5 44z" />
    <glyph glyph-name="asciitilde" unicode="~" horiz-adv-x="477" 
d="M269 373l-38 22q-33 20 -47 20q-41 0 -41 -63h-50v10q0 52 25.5 78.5t67.5 26.5q29 0 71 -26l40 -24q31 -18 45 -18q41 0 41 63h50v-10q0 -49 -24.5 -77t-64.5 -28q-29 0 -75 26z" />
    <glyph glyph-name="exclamdown" unicode="&#xa1;" horiz-adv-x="226" 
d="M188 500l-17 -85h-75l17 85h75zM129 310l-36 -286l-48 -224h-70l48 224l84 286h22z" />
    <glyph glyph-name="cent" unicode="&#xa2;" horiz-adv-x="537" 
d="M107 207q0 -92 62 -130l137 368h-9q-84 0 -137 -64t-53 -174zM254 -10q-24 0 -51 5l-43 -115h-65l50 134q-106 54 -106 191q0 140 76 222.5t188 82.5q18 0 26 -1l42 111h65l-47 -126q101 -42 103 -154h-68q-1 68 -58 93l-140 -376q22 -2 35 -2q48 0 82.5 26.5t49.5 78.5
h68q-17 -79 -75 -124.5t-132 -45.5z" />
    <glyph glyph-name="sterling" unicode="&#xa3;" horiz-adv-x="561" 
d="M466 0h-472l14 65q50 0 73.5 28.5t36.5 77.5l29 114l-96 -22l15 63l97 22l43 167q24 94 87.5 139.5t149.5 45.5h92l-14 -65h-71q-77 0 -117.5 -33t-58.5 -106l-33 -131l144 33l-14 -63l-147 -33l-33 -131q-21 -80 -68 -106h357z" />
    <glyph glyph-name="currency" unicode="&#xa4;" horiz-adv-x="768" 
d="M642 18l-90 86q-70 -64 -165 -64q-93 0 -163 62l-88 -84l-44 44l90 90q-45 67 -45 153q0 83 43 150l-88 88l44 44l87 -83q71 61 164 61q97 0 166 -63l89 85l44 -44l-91 -91q42 -64 42 -147t-43 -151l92 -92zM387 105h5q75 0 126 56.5t51 143.5q0 86 -50.5 140.5
t-126.5 54.5h-10q-76 0 -126.5 -54.5t-50.5 -140.5t53 -143t129 -57z" />
    <glyph glyph-name="yen" unicode="&#xa5;" horiz-adv-x="675" 
d="M306 0h-69l28 133l-192 -42l14 63l192 42l18 86l-192 -42l13 63l170 37l-171 360h73l156 -327l291 327h85l-292 -328l151 33l-14 -63l-198 -44l-18 -86l199 44l-13 -63l-199 -44z" />
    <glyph glyph-name="brokenbar" unicode="&#xa6;" horiz-adv-x="289" 
d="M124 430v355h65v-355h-65zM124 -85v365h65v-365h-65z" />
    <glyph glyph-name="section" unicode="&#xa7;" horiz-adv-x="512" 
d="M37 -60l14 64h171q57 0 81.5 21.5t24.5 53.5q0 26 -18.5 44t-59.5 35l-93 39q-55 23 -80 53t-25 79q-1 34 29 77t92 71q-42 40 -42 87q0 65 45.5 100.5t131.5 35.5h180l-14 -64h-166q-109 0 -109 -69q0 -44 75 -79l83 -38q57 -26 86 -56.5t29 -78.5q0 -38 -23.5 -73
t-88.5 -74q36 -34 36 -89t-42 -97t-121 -42h-196zM198 247l105 -44q101 44 101 105q0 32 -24 54t-81 46l-78 33q-54 -19 -77.5 -51t-23.5 -57q0 -30 17.5 -49t60.5 -37z" />
    <glyph glyph-name="dieresis" unicode="&#xa8;" horiz-adv-x="334" 
d="M-4 590l17 80h75l-17 -80h-75zM181 590l17 80h75l-17 -80h-75z" />
    <glyph glyph-name="copyright" unicode="&#xa9;" horiz-adv-x="899" 
d="M462 -40q-161 0 -275.5 114.5t-114.5 275.5t114.5 275.5t275.5 114.5t275.5 -114.5t114.5 -275.5t-114.5 -275.5t-275.5 -114.5zM462 10q140 0 239 100t99 240t-99 240t-239 100t-239 -100t-99 -240t99 -240t239 -100zM463 157q-78 0 -129 50t-51 143q0 89 49.5 144
t130.5 54q64 -1 106 -35t49 -94h-61q-7 33 -32.5 56t-60.5 23h-5q-49 0 -82 -41t-33 -107q0 -65 33 -104t82 -39h5q37 0 64 22t34 57h61q-10 -60 -55 -94.5t-105 -34.5z" />
    <glyph glyph-name="ordfeminine" unicode="&#xaa;" horiz-adv-x="387" 
d="M223 455q41 0 65.5 37t23.5 88q-1 33 -18.5 56.5t-50.5 23.5q-36 0 -59 -36t-23 -86q0 -83 62 -83zM281 415l6 28q-33 -33 -83 -33q-48 0 -74 33.5t-26 86.5q0 71 37.5 123t97.5 52q32 0 57 -17t34 -42l11 54h57l-60 -285h-57z" />
    <glyph glyph-name="guillemotleft" unicode="&#xab;" horiz-adv-x="521" 
d="M210 70h-69l-99 215l190 215h81l-199 -224zM420 70h-69l-99 215l190 215h81l-199 -224z" />
    <glyph glyph-name="logicalnot" unicode="&#xac;" horiz-adv-x="629" 
d="M528 130h-68v145h-377v65h445v-210z" />
    <glyph glyph-name="registered" unicode="&#xae;" horiz-adv-x="899" 
d="M462 -40q-161 0 -275.5 114.5t-114.5 275.5t114.5 275.5t275.5 114.5t275.5 -114.5t114.5 -275.5t-114.5 -275.5t-275.5 -114.5zM462 10q140 0 239 100t99 240t-99 240t-239 100t-239 -100t-99 -240t99 -240t239 -100zM393 362h79q84 0 84 64q0 37 -21 52t-63 15h-79
v-131zM332 167v376h165q56 0 88 -28.5t32 -74.5q0 -40 -21.5 -65t-54.5 -30q38 -1 54.5 -18.5t16.5 -61.5v-98h-61v99q0 48 -54 48h-104v-147h-61z" />
    <glyph glyph-name="macron" unicode="&#xaf;" horiz-adv-x="359" 
d="M3 590l10 55h285l-10 -55h-285z" />
    <glyph glyph-name="degree" unicode="&#xb0;" horiz-adv-x="466" 
d="M280 340q-80 0 -132.5 53t-52.5 132t52.5 132t132.5 53q79 0 132 -53t53 -132t-53 -132t-132 -53zM280 398q51 0 87 37t36 90t-36 90t-87 37t-87 -37t-36 -90t36 -90t87 -37z" />
    <glyph glyph-name="plusminus" unicode="&#xb1;" horiz-adv-x="654" 
d="M555 290h-215v-140h-64v140h-215v65h215v145h64v-145h215v-65zM61 0v65h494v-65h-494z" />
    <glyph glyph-name="twosuperior" unicode="&#xb2;" horiz-adv-x="359" 
d="M359 415h-279l12 60l139 97q5 3 20.5 13.5t21.5 15.5t18.5 15t18.5 17t13 17.5t10 21.5t3 23q0 28 -20 49t-55 21q-34 0 -57.5 -19.5t-26.5 -49.5h-62q3 50 44 84.5t107 34.5q55 0 93 -32.5t38 -85.5q0 -48 -26.5 -80t-80.5 -68l-125 -84h204z" />
    <glyph glyph-name="threesuperior" unicode="&#xb3;" horiz-adv-x="351" 
d="M82 523h61q1 -30 22.5 -46.5t56.5 -16.5q34 0 56 19.5t22 49.5q0 26 -19 42.5t-49 16.5h-46l11 55h51q38 0 60 17t22 45q0 30 -19 45t-48 15q-32 0 -52.5 -16.5t-24.5 -43.5h-61q3 49 41.5 79.5t97.5 30.5q57 0 92 -29.5t35 -76.5q0 -39 -25.5 -66t-62.5 -33
q24 -10 40.5 -33.5t16.5 -50.5q0 -48 -39 -82t-101 -34q-66 0 -101.5 33t-36.5 80z" />
    <glyph glyph-name="acute" unicode="&#xb4;" horiz-adv-x="237" 
d="M10 570l57 130h80l-88 -130h-49z" />
    <glyph glyph-name="mu" unicode="&#xb5;" horiz-adv-x="588" 
d="M148 -200h-65v700h65v-310q0 -145 120 -145h10q58 0 101.5 51t43.5 134v270h65v-500h-65v94q-41 -104 -167 -104q-63 0 -108 32v-222z" />
    <glyph glyph-name="paragraph" unicode="&#xb6;" horiz-adv-x="664" 
d="M245 -200h-65l111 525h-37q-76 0 -125.5 44t-49.5 124q0 89 55 148t133 59h435l-12 -55h-69l-181 -845h-65l181 845h-131z" />
    <glyph glyph-name="periodcentered" unicode="&#xb7;" horiz-adv-x="241" 
d="M72 300l21 100h100l-21 -100h-100z" />
    <glyph glyph-name="cedilla" unicode="&#xb8;" horiz-adv-x="255" 
d="M50 -225h-59l12 55h61q27 0 43 13.5t16 37.5q0 16 -12.5 26t-32.5 10h-22l21 95h46l-15 -60q31 -5 48 -24.5t17 -47.5q0 -49 -33.5 -77t-89.5 -28z" />
    <glyph glyph-name="onesuperior" unicode="&#xb9;" horiz-adv-x="259" 
d="M223 415h-58l65 309l-136 -92l13 64l161 114h39z" />
    <glyph glyph-name="ordmasculine" unicode="&#xba;" horiz-adv-x="365" 
d="M248 705q51 0 86.5 -32t35.5 -91q0 -76 -42 -124t-103 -48q-54 0 -88 33.5t-34 90.5q0 77 42.5 124t102.5 47zM248 660q-40 0 -64 -38.5t-24 -84.5q0 -36 17 -59t49 -23q37 0 62 36t25 88q0 36 -17 58.5t-48 22.5z" />
    <glyph glyph-name="guillemotright" unicode="&#xbb;" horiz-adv-x="520" 
d="M286 70h-81l199 224l-96 206h69l99 -215zM76 70h-81l199 224l-96 206h69l99 -215z" />
    <glyph glyph-name="onequarter" unicode="&#xbc;" horiz-adv-x="842" 
d="M109 0l560 700h73l-560 -700h-73zM212 305h-58l65 309l-136 -92l13 64l161 114h39zM658 143l39 185l-170 -185h131zM764 96h-57l-20 -96h-59l20 96h-186l12 56l223 243h74l-54 -252h58z" />
    <glyph glyph-name="onehalf" unicode="&#xbd;" horiz-adv-x="897" 
d="M100 0l560 700h73l-560 -700h-73zM212 305h-58l65 309l-136 -92l13 64l161 114h39zM801 0h-279l12 60l139 97q5 3 20.5 13.5t21.5 15.5t18.5 15t18.5 17t13 17.5t10 21.5t3 23q0 28 -20 49t-55 21q-34 0 -57.5 -19.5t-26.5 -49.5h-62q3 50 44 84.5t107 34.5
q55 0 93 -32.5t38 -85.5q0 -48 -26.5 -80t-80.5 -68l-125 -84h204z" />
    <glyph glyph-name="threequarters" unicode="&#xbe;" horiz-adv-x="913" 
d="M180 0l560 700h73l-560 -700h-73zM68 413h61q1 -30 22.5 -46.5t56.5 -16.5q34 0 56 19.5t22 49.5q0 26 -19 42.5t-49 16.5h-46l11 55h51q38 0 60 17t22 45q0 30 -19 45t-48 15q-32 0 -52.5 -16.5t-24.5 -43.5h-61q3 49 41.5 79.5t97.5 30.5q57 0 92 -29.5t35 -76.5
q0 -39 -25.5 -66t-62.5 -33q24 -10 40.5 -33.5t16.5 -50.5q0 -48 -39 -82t-101 -34q-66 0 -101.5 33t-36.5 80zM730 143l39 185l-170 -185h131zM836 96h-57l-20 -96h-59l20 96h-186l12 56l223 243h74l-54 -252h58z" />
    <glyph glyph-name="questiondown" unicode="&#xbf;" horiz-adv-x="442" 
d="M358 500l-17 -85h-75l17 85h75zM317 295l-25 -118q-13 -52 -38 -70t-67 -18h-10q-64 0 -102.5 -34.5t-38.5 -88.5t33.5 -77.5t99.5 -23.5h151l-14 -65h-145q-91 0 -142 42t-51 121q0 81 57.5 136t146.5 55q44 0 53 40l24 101h68z" />
    <glyph glyph-name="Agrave" unicode="&#xc0;" horiz-adv-x="668" 
d="M401 890l53 -125h-60l-83 125h90zM482 258l-71 380l-233 -380h304zM530 0l-36 193h-356l-118 -193h-76l433 700h90l131 -700h-68z" />
    <glyph glyph-name="Aacute" unicode="&#xc1;" horiz-adv-x="668" 
d="M404 765l53 125h90l-83 -125h-60zM482 258l-71 380l-233 -380h304zM530 0l-36 193h-356l-118 -193h-76l433 700h90l131 -700h-68z" />
    <glyph glyph-name="Acircumflex" unicode="&#xc2;" horiz-adv-x="668" 
d="M527 765l-82 73l-123 -73h-68l150 125h90l99 -125h-66zM482 258l-71 380l-233 -380h304zM530 0l-36 193h-356l-118 -193h-76l433 700h90l131 -700h-68z" />
    <glyph glyph-name="Atilde" unicode="&#xc3;" horiz-adv-x="668" 
d="M444 783l-37 22q-31 19 -47 19q-17 0 -26 -11.5t-15 -42.5h-55l3 14q12 53 32.5 76.5t59.5 23.5q26 0 70 -25l39 -23q26 -16 40 -16q34 0 46 54h55l-3 -15q-9 -46 -33 -72.5t-60 -26.5q-29 0 -69 23zM482 258l-71 380l-233 -380h304zM530 0l-36 193h-356l-118 -193h-76
l433 700h90l131 -700h-68z" />
    <glyph glyph-name="Adieresis" unicode="&#xc4;" horiz-adv-x="668" 
d="M303 780l17 80h80l-17 -80h-80zM489 780l17 80h80l-17 -80h-80zM482 258l-71 380l-233 -380h304zM530 0l-36 193h-356l-118 -193h-76l433 700h90l131 -700h-68z" />
    <glyph glyph-name="Aring" unicode="&#xc5;" horiz-adv-x="668" 
d="M357 840q0 33 24 56t55 23t55 -23t24 -56q0 -34 -23.5 -56.5t-55.5 -22.5t-55.5 22.5t-23.5 56.5zM437 874q-13 0 -23.5 -10t-10.5 -24t10.5 -24t23.5 -10t23 10t10 24t-10 24t-23 10zM482 258l-71 380l-233 -380h304zM530 0l-36 193h-356l-118 -193h-76l433 700h90
l131 -700h-68z" />
    <glyph glyph-name="AE" unicode="&#xc6;" horiz-adv-x="983" 
d="M513 258l30 383l-310 -383h280zM492 0l15 193h-327l-157 -193h-85l578 700h456l-14 -65h-353l-19 -242h307l-14 -65h-298l-20 -263h352l-14 -65h-407z" />
    <glyph glyph-name="Ccedilla" unicode="&#xc7;" horiz-adv-x="704" 
d="M415 -120q0 -49 -33.5 -77t-89.5 -28h-59l12 55h61q27 0 43 13.5t16 37.5q0 16 -12.5 26t-32.5 10h-22l17 75q-116 12 -183.5 90.5t-67.5 200.5q0 181 100.5 304t266.5 123q105 0 173 -60t72 -164h-70q-2 74 -51 116.5t-135 42.5q-121 0 -203.5 -99t-82.5 -251
q0 -112 60 -176t170 -64q79 0 140.5 40.5t74.5 118.5h70q-18 -104 -96 -164t-193 -60l-10 -38q31 -5 48 -24.5t17 -47.5z" />
    <glyph glyph-name="Egrave" unicode="&#xc8;" horiz-adv-x="642" 
d="M423 890l53 -125h-60l-83 125h90zM550 65l-14 -65h-500l149 700h490l-14 -65h-420l-52 -242h361l-14 -65h-360l-56 -263h430z" />
    <glyph glyph-name="Eacute" unicode="&#xc9;" horiz-adv-x="642" 
d="M394 765l53 125h90l-83 -125h-60zM550 65l-14 -65h-500l149 700h490l-14 -65h-420l-52 -242h361l-14 -65h-360l-56 -263h430z" />
    <glyph glyph-name="Ecircumflex" unicode="&#xca;" horiz-adv-x="642" 
d="M534 765l-82 73l-123 -73h-68l150 125h90l99 -125h-66zM550 65l-14 -65h-500l149 700h490l-14 -65h-420l-52 -242h361l-14 -65h-360l-56 -263h430z" />
    <glyph glyph-name="Edieresis" unicode="&#xcb;" horiz-adv-x="642" 
d="M303 780l17 80h80l-17 -80h-80zM489 780l17 80h80l-17 -80h-80zM550 65l-14 -65h-500l149 700h490l-14 -65h-420l-52 -242h361l-14 -65h-360l-56 -263h430z" />
    <glyph glyph-name="Igrave" unicode="&#xcc;" horiz-adv-x="266" 
d="M206 890l53 -125h-60l-83 125h90zM36 0l149 700h70l-149 -700h-70z" />
    <glyph glyph-name="Iacute" unicode="&#xcd;" horiz-adv-x="266" 
d="M201 765l53 125h90l-83 -125h-60zM36 0l149 700h70l-149 -700h-70z" />
    <glyph glyph-name="Icircumflex" unicode="&#xce;" horiz-adv-x="266" 
d="M325 765l-82 73l-123 -73h-68l150 125h90l99 -125h-66zM36 0l149 700h70l-149 -700h-70z" />
    <glyph glyph-name="Idieresis" unicode="&#xcf;" horiz-adv-x="266" 
d="M101 780l17 80h80l-17 -80h-80zM287 780l17 80h80l-17 -80h-80zM36 0l149 700h70l-149 -700h-70z" />
    <glyph glyph-name="Eth" unicode="&#xd0;" horiz-adv-x="717" 
d="M337 0h-294l68 321h-88l13 60h88l68 319h183q87 0 149 -25.5t94 -69.5t46 -91t14 -102q0 -75 -23 -147.5t-65 -132t-108 -96t-145 -36.5zM333 321h-152l-54 -256h196q92 0 159 52t96.5 128.5t29.5 164.5q0 108 -60 166.5t-174 58.5h-126l-54 -254h152z" />
    <glyph glyph-name="Ntilde" unicode="&#xd1;" horiz-adv-x="741" 
d="M470 783l-37 22q-31 19 -47 19q-17 0 -26 -11.5t-15 -42.5h-55l3 14q12 53 32.5 76.5t59.5 23.5q26 0 70 -25l39 -23q26 -16 40 -16q34 0 46 54h55l-3 -15q-9 -46 -33 -72.5t-60 -26.5q-29 0 -69 23zM496 0l-259 618l-131 -618h-70l149 700h90l256 -607l129 607h70
l-149 -700h-85z" />
    <glyph glyph-name="Ograve" unicode="&#xd2;" horiz-adv-x="755" 
d="M441 890l53 -125h-60l-83 125h90zM421 710q136 0 214.5 -82.5t78.5 -219.5q0 -80 -24 -154t-68 -133.5t-114.5 -95t-156.5 -35.5q-125 0 -206 82t-81 215q0 185 106.5 304t250.5 119zM134 293q0 -108 60 -173t157 -65q123 0 208 95t85 252q0 111 -59 177t-164 66
q-115 0 -201 -98.5t-86 -253.5z" />
    <glyph glyph-name="Oacute" unicode="&#xd3;" horiz-adv-x="755" 
d="M428 765l53 125h90l-83 -125h-60zM421 710q136 0 214.5 -82.5t78.5 -219.5q0 -80 -24 -154t-68 -133.5t-114.5 -95t-156.5 -35.5q-125 0 -206 82t-81 215q0 185 106.5 304t250.5 119zM134 293q0 -108 60 -173t157 -65q123 0 208 95t85 252q0 111 -59 177t-164 66
q-115 0 -201 -98.5t-86 -253.5z" />
    <glyph glyph-name="Ocircumflex" unicode="&#xd4;" horiz-adv-x="755" 
d="M553 765l-82 73l-123 -73h-68l150 125h90l99 -125h-66zM421 710q136 0 214.5 -82.5t78.5 -219.5q0 -80 -24 -154t-68 -133.5t-114.5 -95t-156.5 -35.5q-125 0 -206 82t-81 215q0 185 106.5 304t250.5 119zM134 293q0 -108 60 -173t157 -65q123 0 208 95t85 252
q0 111 -59 177t-164 66q-115 0 -201 -98.5t-86 -253.5z" />
    <glyph glyph-name="Otilde" unicode="&#xd5;" horiz-adv-x="755" 
d="M470 783l-37 22q-31 19 -47 19q-17 0 -26 -11.5t-15 -42.5h-55l3 14q12 53 32.5 76.5t59.5 23.5q26 0 70 -25l39 -23q26 -16 40 -16q34 0 46 54h55l-3 -15q-9 -46 -33 -72.5t-60 -26.5q-29 0 -69 23zM421 710q136 0 214.5 -82.5t78.5 -219.5q0 -80 -24 -154t-68 -133.5
t-114.5 -95t-156.5 -35.5q-125 0 -206 82t-81 215q0 185 106.5 304t250.5 119zM134 293q0 -108 60 -173t157 -65q123 0 208 95t85 252q0 111 -59 177t-164 66q-115 0 -201 -98.5t-86 -253.5z" />
    <glyph glyph-name="Odieresis" unicode="&#xd6;" horiz-adv-x="755" 
d="M318 780l17 80h80l-17 -80h-80zM504 780l17 80h80l-17 -80h-80zM421 710q136 0 214.5 -82.5t78.5 -219.5q0 -80 -24 -154t-68 -133.5t-114.5 -95t-156.5 -35.5q-125 0 -206 82t-81 215q0 185 106.5 304t250.5 119zM134 293q0 -108 60 -173t157 -65q123 0 208 95t85 252
q0 111 -59 177t-164 66q-115 0 -201 -98.5t-86 -253.5z" />
    <glyph glyph-name="multiply" unicode="&#xd7;" horiz-adv-x="556" 
d="M431 49l-161 162l-162 -162l-47 47l162 162l-162 161l47 47l162 -161l161 161l47 -47l-161 -161l161 -162z" />
    <glyph glyph-name="Oslash" unicode="&#xd8;" horiz-adv-x="755" 
d="M351 -10q-132 0 -212 88l-83 -76l-42 45l88 82q-38 70 -38 158q0 185 106.5 304t250.5 119q137 0 218 -86l81 75l42 -46l-87 -80q39 -69 39 -165q0 -80 -24 -154t-68 -133.5t-114.5 -95t-156.5 -35.5zM134 293q0 -63 22 -115l431 398q-60 69 -166 69q-115 0 -201 -98.5
t-86 -253.5zM351 55q123 0 208 95t85 252q0 67 -23 121l-432 -398q61 -70 162 -70z" />
    <glyph glyph-name="Ugrave" unicode="&#xd9;" horiz-adv-x="694" 
d="M432 890l53 -125h-60l-83 125h90zM588 223q-24 -112 -98 -172.5t-197 -60.5q-101 0 -157.5 55t-56.5 155q0 43 10 87l88 413h70l-90 -422q-9 -41 -9 -74q0 -149 161 -149q173 0 214 191l97 454h70z" />
    <glyph glyph-name="Uacute" unicode="&#xda;" horiz-adv-x="694" 
d="M403 765l53 125h90l-83 -125h-60zM588 223q-24 -112 -98 -172.5t-197 -60.5q-101 0 -157.5 55t-56.5 155q0 43 10 87l88 413h70l-90 -422q-9 -41 -9 -74q0 -149 161 -149q173 0 214 191l97 454h70z" />
    <glyph glyph-name="Ucircumflex" unicode="&#xdb;" horiz-adv-x="694" 
d="M543 765l-82 73l-123 -73h-68l150 125h90l99 -125h-66zM588 223q-24 -112 -98 -172.5t-197 -60.5q-101 0 -157.5 55t-56.5 155q0 43 10 87l88 413h70l-90 -422q-9 -41 -9 -74q0 -149 161 -149q173 0 214 191l97 454h70z" />
    <glyph glyph-name="Udieresis" unicode="&#xdc;" horiz-adv-x="694" 
d="M316 780l17 80h80l-17 -80h-80zM502 780l17 80h80l-17 -80h-80zM588 223q-24 -112 -98 -172.5t-197 -60.5q-101 0 -157.5 55t-56.5 155q0 43 10 87l88 413h70l-90 -422q-9 -41 -9 -74q0 -149 161 -149q173 0 214 191l97 454h70z" />
    <glyph glyph-name="Yacute" unicode="&#xdd;" horiz-adv-x="612" 
d="M358 765l53 125h90l-83 -125h-60zM279 0h-70l61 284l-180 416h73l152 -353l295 353h85l-356 -418z" />
    <glyph glyph-name="Thorn" unicode="&#xde;" horiz-adv-x="628" 
d="M36 0l149 700h70l-32 -150h168q94 0 153 -49t59 -130q0 -99 -63.5 -160t-169.5 -61h-232l-32 -150h-70zM371 485h-162l-57 -270h220q71 0 116 38.5t45 109.5q0 122 -162 122z" />
    <glyph glyph-name="germandbls" unicode="&#xdf;" horiz-adv-x="546" 
d="M45 -185h-66l151 710q40 185 214 185q78 0 127 -46.5t49 -121.5q0 -73 -45.5 -121.5t-93.5 -55.5q37 -10 66 -49.5t29 -99.5q0 -92 -60.5 -154t-155.5 -62h-83l13 60h54q82 0 124.5 44t42.5 110q0 57 -34.5 93t-91.5 36h-33l12 55h41q63 0 106.5 43t43.5 98q0 54 -32 85
t-83 31q-56 0 -94 -37.5t-54 -110.5z" />
    <glyph glyph-name="agrave" unicode="&#xe0;" horiz-adv-x="590" 
d="M292 700l57 -130h-49l-88 130h80zM291 455q-77 0 -131.5 -65.5t-54.5 -169.5q0 -85 40.5 -130t104.5 -45q83 0 136 75t53 169q0 79 -44 122.5t-104 43.5zM388 0l13 66q-61 -76 -166 -76q-80 0 -137.5 56.5t-57.5 165.5q0 133 71 215.5t176 82.5q61 0 109.5 -31t70.5 -88
l22 109h65l-106 -500h-60z" />
    <glyph glyph-name="aacute" unicode="&#xe1;" horiz-adv-x="590" 
d="M286 570l57 130h80l-88 -130h-49zM291 455q-77 0 -131.5 -65.5t-54.5 -169.5q0 -85 40.5 -130t104.5 -45q83 0 136 75t53 169q0 79 -44 122.5t-104 43.5zM388 0l13 66q-61 -76 -166 -76q-80 0 -137.5 56.5t-57.5 165.5q0 133 71 215.5t176 82.5q61 0 109.5 -31t70.5 -88
l22 109h65l-106 -500h-60z" />
    <glyph glyph-name="acircumflex" unicode="&#xe2;" horiz-adv-x="590" 
d="M423 570l-70 73l-105 -73h-60l137 130h66l92 -130h-60zM291 455q-77 0 -131.5 -65.5t-54.5 -169.5q0 -85 40.5 -130t104.5 -45q83 0 136 75t53 169q0 79 -44 122.5t-104 43.5zM388 0l13 66q-61 -76 -166 -76q-80 0 -137.5 56.5t-57.5 165.5q0 133 71 215.5t176 82.5
q61 0 109.5 -31t70.5 -88l22 109h65l-106 -500h-60z" />
    <glyph glyph-name="atilde" unicode="&#xe3;" horiz-adv-x="590" 
d="M265 635q-32 0 -44 -49l-4 -16h-50l4 19q8 40 30.5 68t61.5 28q29 0 72 -27l36 -23q33 -20 46 -20q32 0 46 50l4 15h50l-4 -18q-9 -40 -32 -68.5t-62 -28.5q-30 0 -70 27l-37 24q-28 19 -47 19zM291 455q-77 0 -131.5 -65.5t-54.5 -169.5q0 -85 40.5 -130t104.5 -45
q83 0 136 75t53 169q0 79 -44 122.5t-104 43.5zM388 0l13 66q-61 -76 -166 -76q-80 0 -137.5 56.5t-57.5 165.5q0 133 71 215.5t176 82.5q61 0 109.5 -31t70.5 -88l22 109h65l-106 -500h-60z" />
    <glyph glyph-name="adieresis" unicode="&#xe4;" horiz-adv-x="590" 
d="M207 591l17 80h75l-17 -80h-75zM392 591l17 80h75l-17 -80h-75zM291 455q-77 0 -131.5 -65.5t-54.5 -169.5q0 -85 40.5 -130t104.5 -45q83 0 136 75t53 169q0 79 -44 122.5t-104 43.5zM388 0l13 66q-61 -76 -166 -76q-80 0 -137.5 56.5t-57.5 165.5q0 133 71 215.5
t176 82.5q61 0 109.5 -31t70.5 -88l22 109h65l-106 -500h-60z" />
    <glyph glyph-name="aring" unicode="&#xe5;" horiz-adv-x="590" 
d="M254 645q0 35 25 59.5t59 24.5t59 -24.5t25 -59.5q0 -36 -25 -60t-59 -24t-59 24t-25 60zM339 689q-18 0 -31 -13t-13 -31t13 -31t31 -13t30.5 13t12.5 31t-12.5 31t-30.5 13zM291 455q-77 0 -131.5 -65.5t-54.5 -169.5q0 -85 40.5 -130t104.5 -45q83 0 136 75t53 169
q0 79 -44 122.5t-104 43.5zM388 0l13 66q-61 -76 -166 -76q-80 0 -137.5 56.5t-57.5 165.5q0 133 71 215.5t176 82.5q61 0 109.5 -31t70.5 -88l22 109h65l-106 -500h-60z" />
    <glyph glyph-name="ae" unicode="&#xe6;" horiz-adv-x="859" 
d="M614 455q-69 0 -115.5 -41.5t-63.5 -113.5h303q3 20 3 35q0 60 -33.5 90t-93.5 30zM787 143q-20 -70 -77 -111.5t-144 -41.5q-67 0 -115.5 33t-71.5 93q-60 -126 -199 -126q-71 0 -116.5 40.5t-45.5 102.5q0 91 68 135q49 32 161 32h122q6 41 6 48q0 48 -29.5 77.5
t-78.5 29.5h-5q-48 0 -82.5 -26t-44.5 -69h-65q11 68 65 109t137 41q54 0 93.5 -26t56.5 -72q77 98 201 98q78 0 130.5 -47t52.5 -136q0 -35 -11 -82h-368q-1 -8 -1 -24q0 -80 42 -128t108 -48q109 0 146 98h65zM188 45q61 0 104.5 41t58.5 114l9 45h-135q-142 0 -142 -101
q0 -45 29.5 -72t75.5 -27z" />
    <glyph glyph-name="ccedilla" unicode="&#xe7;" horiz-adv-x="538" 
d="M317 -120q0 -49 -33.5 -77t-89.5 -28h-59l12 55h61q27 0 43 13.5t16 37.5q0 16 -12.5 26t-32.5 10h-22l17 75q-81 12 -129.5 67t-48.5 146q0 140 76 222.5t188 82.5q83 0 136 -46.5t53 -123.5h-65q0 57 -35.5 86t-94.5 29q-84 0 -138.5 -69t-54.5 -179q0 -74 41.5 -118
t115.5 -44q53 0 91.5 31t53.5 84h65q-16 -78 -73.5 -123t-135.5 -47l-10 -38q31 -5 48 -24.5t17 -47.5z" />
    <glyph glyph-name="egrave" unicode="&#xe8;" horiz-adv-x="538" 
d="M300 700l57 -130h-49l-88 130h80zM293 455q-69 0 -115.5 -41.5t-63.5 -113.5h303q3 19 3 35q0 60 -33.5 90t-93.5 30zM466 143q-20 -70 -77 -111.5t-144 -41.5q-93 0 -149 62.5t-56 168.5q0 125 74.5 207t187.5 82q78 0 130.5 -47t52.5 -136q0 -35 -11 -82h-368
q-1 -8 -1 -24q0 -80 42 -128t108 -48q109 0 146 98h65z" />
    <glyph glyph-name="eacute" unicode="&#xe9;" horiz-adv-x="538" 
d="M285 570l57 130h80l-88 -130h-49zM293 455q-69 0 -115.5 -41.5t-63.5 -113.5h303q3 19 3 35q0 60 -33.5 90t-93.5 30zM466 143q-20 -70 -77 -111.5t-144 -41.5q-93 0 -149 62.5t-56 168.5q0 125 74.5 207t187.5 82q78 0 130.5 -47t52.5 -136q0 -35 -11 -82h-368
q-1 -8 -1 -24q0 -80 42 -128t108 -48q109 0 146 98h65z" />
    <glyph glyph-name="ecircumflex" unicode="&#xea;" horiz-adv-x="538" 
d="M402 570l-70 73l-105 -73h-60l137 130h66l92 -130h-60zM293 455q-69 0 -115.5 -41.5t-63.5 -113.5h303q3 19 3 35q0 60 -33.5 90t-93.5 30zM466 143q-20 -70 -77 -111.5t-144 -41.5q-93 0 -149 62.5t-56 168.5q0 125 74.5 207t187.5 82q78 0 130.5 -47t52.5 -136
q0 -35 -11 -82h-368q-1 -8 -1 -24q0 -80 42 -128t108 -48q109 0 146 98h65z" />
    <glyph glyph-name="edieresis" unicode="&#xeb;" horiz-adv-x="537" 
d="M193 590l17 80h75l-17 -80h-75zM378 590l17 80h75l-17 -80h-75zM293 455q-69 0 -115.5 -41.5t-63.5 -113.5h303q3 19 3 35q0 60 -33.5 90t-93.5 30zM466 143q-20 -70 -77 -111.5t-144 -41.5q-93 0 -149 62.5t-56 168.5q0 125 74.5 207t187.5 82q78 0 130.5 -47t52.5 -136
q0 -35 -11 -82h-368q-1 -8 -1 -24q0 -80 42 -128t108 -48q109 0 146 98h65z" />
    <glyph glyph-name="igrave" unicode="&#xec;" horiz-adv-x="226" 
d="M142 700l57 -130h-49l-88 130h80zM19 0l106 500h65l-106 -500h-65z" />
    <glyph glyph-name="iacute" unicode="&#xed;" horiz-adv-x="226" 
d="M147 570l57 130h80l-88 -130h-49zM19 0l106 500h65l-106 -500h-65z" />
    <glyph glyph-name="icircumflex" unicode="&#xee;" horiz-adv-x="226" 
d="M254 570l-70 73l-105 -73h-60l137 130h66l92 -130h-60zM19 0l106 500h65l-106 -500h-65z" />
    <glyph glyph-name="idieresis" unicode="&#xef;" horiz-adv-x="226" 
d="M40 590l17 80h75l-17 -80h-75zM225 590l17 80h75l-17 -80h-75zM19 0l106 500h65l-106 -500h-65z" />
    <glyph glyph-name="eth" unicode="&#xf0;" horiz-adv-x="564" 
d="M241 -10q-104 -1 -155.5 58.5t-51.5 145.5q0 115 72.5 198t174.5 83q55 0 106.5 -30.5t73.5 -81.5q6 142 -56 221l-90 -57l-27 40l82 52q-51 37 -120 33l12 57q96 0 160 -58l77 49l27 -40l-71 -45q61 -84 61 -222q0 -67 -16.5 -135t-48 -129t-86.5 -100t-124 -39z
M431 270q0 64 -44 107t-111 43q-65 0 -122 -59.5t-57 -159.5q0 -68 37.5 -112t105.5 -44q73 0 132 66.5t59 158.5z" />
    <glyph glyph-name="ntilde" unicode="&#xf1;" horiz-adv-x="561" 
d="M270 635q-32 0 -44 -49l-4 -16h-50l4 19q8 40 30.5 68t61.5 28q29 0 72 -27l36 -23q33 -20 46 -20q32 0 46 50l4 15h50l-4 -18q-9 -40 -32 -68.5t-62 -28.5q-30 0 -70 27l-37 24q-28 19 -47 19zM425 0h-65l64 302q4 20 4 42q0 50 -31 80.5t-80 30.5q-64 0 -111.5 -51
t-66.5 -144l-55 -260h-65l106 500h65l-13 -64q61 74 157 74q71 0 115 -43t44 -113q0 -39 -8 -74z" />
    <glyph glyph-name="ograve" unicode="&#xf2;" horiz-adv-x="564" 
d="M289 700l57 -130h-49l-88 130h80zM254 -10q-95 0 -155 59t-60 159q0 133 74.5 217.5t178.5 84.5q95 0 155 -59t60 -159q0 -136 -74 -219t-179 -83zM442 292q0 70 -41 116.5t-110 46.5q-75 0 -131 -65t-56 -182q0 -70 40.5 -116.5t110.5 -46.5q73 0 130 65.5t57 181.5z
" />
    <glyph glyph-name="oacute" unicode="&#xf3;" horiz-adv-x="564" 
d="M300 570l57 130h80l-88 -130h-49zM254 -10q-95 0 -155 59t-60 159q0 133 74.5 217.5t178.5 84.5q95 0 155 -59t60 -159q0 -136 -74 -219t-179 -83zM442 292q0 70 -41 116.5t-110 46.5q-75 0 -131 -65t-56 -182q0 -70 40.5 -116.5t110.5 -46.5q73 0 130 65.5t57 181.5z
" />
    <glyph glyph-name="ocircumflex" unicode="&#xf4;" horiz-adv-x="564" 
d="M414 570l-70 73l-105 -73h-60l137 130h66l92 -130h-60zM254 -10q-95 0 -155 59t-60 159q0 133 74.5 217.5t178.5 84.5q95 0 155 -59t60 -159q0 -136 -74 -219t-179 -83zM442 292q0 70 -41 116.5t-110 46.5q-75 0 -131 -65t-56 -182q0 -70 40.5 -116.5t110.5 -46.5
q73 0 130 65.5t57 181.5z" />
    <glyph glyph-name="otilde" unicode="&#xf5;" horiz-adv-x="564" 
d="M261 635q-32 0 -44 -49l-4 -16h-50l4 19q8 40 30.5 68t61.5 28q29 0 72 -27l36 -23q33 -20 46 -20q32 0 46 50l4 15h50l-4 -18q-9 -40 -32 -68.5t-62 -28.5q-29 0 -70 27l-37 24q-28 19 -47 19zM254 -10q-95 0 -155 59t-60 159q0 133 74.5 217.5t178.5 84.5q95 0 155 -59
t60 -159q0 -136 -74 -219t-179 -83zM442 292q0 70 -41 116.5t-110 46.5q-75 0 -131 -65t-56 -182q0 -70 40.5 -116.5t110.5 -46.5q73 0 130 65.5t57 181.5z" />
    <glyph glyph-name="odieresis" unicode="&#xf6;" horiz-adv-x="564" 
d="M204 590l17 80h75l-17 -80h-75zM389 590l17 80h75l-17 -80h-75zM254 -10q-95 0 -155 59t-60 159q0 133 74.5 217.5t178.5 84.5q95 0 155 -59t60 -159q0 -136 -74 -219t-179 -83zM442 292q0 70 -41 116.5t-110 46.5q-75 0 -131 -65t-56 -182q0 -70 40.5 -116.5
t110.5 -46.5q73 0 130 65.5t57 181.5z" />
    <glyph glyph-name="divide" unicode="&#xf7;" horiz-adv-x="646" 
d="M279 380v85h75v-85h-75zM69 225v65h494v-65h-494zM279 50v85h75v-85h-75z" />
    <glyph glyph-name="oslash" unicode="&#xf8;" horiz-adv-x="564" 
d="M104 208q0 -38 12 -70l285 270q-41 47 -110 47q-75 0 -131 -65t-56 -182zM255 45q73 0 130 65.5t57 181.5q0 40 -13 70l-284 -270q41 -47 110 -47zM254 -10q-96 0 -155 59l-69 -66l-35 40l72 68q-28 51 -28 117q0 133 74.5 217.5t178.5 84.5q96 0 155 -59l64 61l39 -36
l-71 -67q28 -51 28 -117q0 -136 -74 -219t-179 -83z" />
    <glyph glyph-name="ugrave" unicode="&#xf9;" horiz-adv-x="551" 
d="M304 700l57 -130h-49l-88 130h80zM119 500h66l-64 -302q-6 -27 -6 -49q0 -49 26.5 -76.5t75.5 -27.5q67 0 112.5 50.5t65.5 144.5l55 260h65l-106 -500h-65l14 64q-64 -75 -158 -74q-72 1 -111 40.5t-39 112.5q0 33 9 74z" />
    <glyph glyph-name="uacute" unicode="&#xfa;" horiz-adv-x="551" 
d="M291 570l57 130h80l-88 -130h-49zM119 500h66l-64 -302q-6 -27 -6 -49q0 -49 26.5 -76.5t75.5 -27.5q67 0 112.5 50.5t65.5 144.5l55 260h65l-106 -500h-65l14 64q-64 -75 -158 -74q-72 1 -111 40.5t-39 112.5q0 33 9 74z" />
    <glyph glyph-name="ucircumflex" unicode="&#xfb;" horiz-adv-x="551" 
d="M417 570l-70 73l-105 -73h-60l137 130h66l92 -130h-60zM119 500h66l-64 -302q-6 -27 -6 -49q0 -49 26.5 -76.5t75.5 -27.5q67 0 112.5 50.5t65.5 144.5l55 260h65l-106 -500h-65l14 64q-64 -75 -158 -74q-72 1 -111 40.5t-39 112.5q0 33 9 74z" />
    <glyph glyph-name="udieresis" unicode="&#xfc;" horiz-adv-x="551" 
d="M195 590l17 80h75l-17 -80h-75zM380 590l17 80h75l-17 -80h-75zM119 500h66l-64 -302q-6 -27 -6 -49q0 -49 26.5 -76.5t75.5 -27.5q67 0 112.5 50.5t65.5 144.5l55 260h65l-106 -500h-65l14 64q-64 -75 -158 -74q-72 1 -111 40.5t-39 112.5q0 33 9 74z" />
    <glyph glyph-name="yacute" unicode="&#xfd;" horiz-adv-x="524" 
d="M287 570l57 130h80l-88 -130h-49zM119 -165h-153l12 55h119q31 0 42 12.5t21 56.5l13 57l-105 484h65l86 -407l268 407h71l-320 -481l-19 -90q-20 -94 -100 -94z" />
    <glyph glyph-name="thorn" unicode="&#xfe;" horiz-adv-x="592" 
d="M283 45q77 0 131.5 66t54.5 170q0 85 -40 129.5t-105 44.5q-86 0 -137.5 -74.5t-51.5 -169.5q0 -79 44.5 -122.5t103.5 -43.5zM287 -10q-61 0 -110.5 31.5t-70.5 89.5l-66 -311h-65l148 697l43 203h65l-42 -200l-1 -3l-3 -16l-10 -46q62 75 163 75q81 0 138.5 -56.5
t57.5 -165.5q0 -133 -71 -215.5t-176 -82.5z" />
    <glyph glyph-name="ydieresis" unicode="&#xff;" horiz-adv-x="524" 
d="M184 590l17 80h75l-17 -80h-75zM369 590l17 80h75l-17 -80h-75zM119 -165h-153l12 55h119q31 0 42 12.5t21 56.5l13 57l-105 484h65l86 -407l268 407h71l-320 -481l-19 -90q-20 -94 -100 -94z" />
    <glyph glyph-name="Amacron" unicode="&#x100;" horiz-adv-x="668" 
d="M291 780l11 55h276l-11 -55h-276zM482 258l-71 380l-233 -380h304zM530 0l-36 193h-356l-118 -193h-76l433 700h90l131 -700h-68z" />
    <glyph glyph-name="amacron" unicode="&#x101;" horiz-adv-x="590" 
d="M197 590l10 55h285l-10 -55h-285zM291 455q-77 0 -131.5 -65.5t-54.5 -169.5q0 -85 40.5 -130t104.5 -45q83 0 136 75t53 169q0 79 -44 122.5t-104 43.5zM388 0l13 66q-61 -76 -166 -76q-80 0 -137.5 56.5t-57.5 165.5q0 133 71 215.5t176 82.5q61 0 109.5 -31t70.5 -88
l22 109h65l-106 -500h-60z" />
    <glyph glyph-name="Abreve" unicode="&#x102;" horiz-adv-x="668" 
d="M436 755q-64 0 -101 37.5t-28 97.5h55q-5 -37 16 -58.5t59 -21.5q35 0 64.5 20t40.5 60h55q-8 -63 -54 -99t-107 -36zM482 258l-71 380l-233 -380h304zM530 0l-36 193h-356l-118 -193h-76l433 700h90l131 -700h-68z" />
    <glyph glyph-name="abreve" unicode="&#x103;" horiz-adv-x="590" 
d="M500 700q-17 -68 -59.5 -104t-99.5 -36q-56 0 -89.5 30t-33.5 86q0 6 2 24h50q-1 -5 -1 -15q0 -75 78 -75q77 0 103 90h50zM291 455q-77 0 -131.5 -65.5t-54.5 -169.5q0 -85 40.5 -130t104.5 -45q83 0 136 75t53 169q0 79 -44 122.5t-104 43.5zM388 0l13 66
q-61 -76 -166 -76q-80 0 -137.5 56.5t-57.5 165.5q0 133 71 215.5t176 82.5q61 0 109.5 -31t70.5 -88l22 109h65l-106 -500h-60z" />
    <glyph glyph-name="Aogonek" unicode="&#x104;" horiz-adv-x="669" 
d="M482 258l-71 380l-233 -380h304zM582 -140l-11 -55h-41q-98 0 -98 77q0 36 29.5 68.5t68.5 49.5l-36 193h-356l-118 -193h-76l433 700h90l131 -700q-43 -19 -72 -46t-29 -55q0 -39 49 -39h36z" />
    <glyph glyph-name="aogonek" unicode="&#x105;" horiz-adv-x="590" 
d="M291 455q-77 0 -131.5 -65.5t-54.5 -169.5q0 -85 40.5 -130t104.5 -45q83 0 136 75t53 169q0 79 -44 122.5t-104 43.5zM432 -140l-11 -55h-41q-98 0 -98 77q0 38 32.5 71.5t74.5 50.5l12 62q-61 -76 -166 -76q-80 0 -137.5 56.5t-57.5 165.5q0 133 71 215.5t176 82.5
q61 0 109.5 -31t70.5 -88l22 109h65l-106 -500q-43 -19 -72 -46t-29 -55q0 -39 49 -39h36z" />
    <glyph glyph-name="Cacute" unicode="&#x106;" horiz-adv-x="704" 
d="M407 765l53 125h90l-83 -125h-60zM676 486h-70q-2 74 -51 116.5t-135 42.5q-121 0 -203.5 -99t-82.5 -251q0 -112 60 -176t170 -64q79 0 140.5 40.5t74.5 118.5h70q-18 -104 -97 -164t-198 -60q-132 0 -211 80t-79 213q0 181 100.5 304t266.5 123q105 0 173 -60t72 -164z
" />
    <glyph glyph-name="cacute" unicode="&#x107;" horiz-adv-x="538" 
d="M300 570l57 130h80l-88 -130h-49zM492 340h-65q0 57 -35.5 86t-94.5 29q-84 0 -138.5 -69t-54.5 -179q0 -74 41.5 -118t115.5 -44q53 0 91.5 31t53.5 84h65q-17 -80 -76.5 -125t-140.5 -45q-96 0 -155.5 57t-59.5 158q0 140 76 222.5t188 82.5q83 0 136 -46.5t53 -123.5z
" />
    <glyph glyph-name="Ccircumflex" unicode="&#x108;" horiz-adv-x="704" 
d="M539 765l-82 73l-123 -73h-68l150 125h90l99 -125h-66zM676 486h-70q-2 74 -51 116.5t-135 42.5q-121 0 -203.5 -99t-82.5 -251q0 -112 60 -176t170 -64q79 0 140.5 40.5t74.5 118.5h70q-18 -104 -97 -164t-198 -60q-132 0 -211 80t-79 213q0 181 100.5 304t266.5 123
q105 0 173 -60t72 -164z" />
    <glyph glyph-name="ccircumflex" unicode="&#x109;" horiz-adv-x="538" 
d="M414 570l-70 73l-105 -73h-60l137 130h66l92 -130h-60zM492 340h-65q0 57 -35.5 86t-94.5 29q-84 0 -138.5 -69t-54.5 -179q0 -74 41.5 -118t115.5 -44q53 0 91.5 31t53.5 84h65q-17 -80 -76.5 -125t-140.5 -45q-96 0 -155.5 57t-59.5 158q0 140 76 222.5t188 82.5
q83 0 136 -46.5t53 -123.5z" />
    <glyph glyph-name="Cdotaccent" unicode="&#x10a;" horiz-adv-x="704" 
d="M405 780l17 85h75l-17 -85h-75zM676 486h-70q-2 74 -51 116.5t-135 42.5q-121 0 -203.5 -99t-82.5 -251q0 -112 60 -176t170 -64q79 0 140.5 40.5t74.5 118.5h70q-18 -104 -97 -164t-198 -60q-132 0 -211 80t-79 213q0 181 100.5 304t266.5 123q105 0 173 -60t72 -164z
" />
    <glyph glyph-name="cdotaccent" unicode="&#x10b;" horiz-adv-x="537" 
d="M283 590l17 85h75l-17 -85h-75zM492 340h-65q0 57 -35.5 86t-94.5 29q-84 0 -138.5 -69t-54.5 -179q0 -74 41.5 -118t115.5 -44q53 0 91.5 31t53.5 84h65q-17 -80 -76.5 -125t-140.5 -45q-96 0 -155.5 57t-59.5 158q0 140 76 222.5t188 82.5q83 0 136 -46.5t53 -123.5z
" />
    <glyph glyph-name="Ccaron" unicode="&#x10c;" horiz-adv-x="704" 
d="M490 765h-90l-99 125h66l82 -73l123 73h68zM676 486h-70q-2 74 -51 116.5t-135 42.5q-121 0 -203.5 -99t-82.5 -251q0 -112 60 -176t170 -64q79 0 140.5 40.5t74.5 118.5h70q-18 -104 -97 -164t-198 -60q-132 0 -211 80t-79 213q0 181 100.5 304t266.5 123q105 0 173 -60
t72 -164z" />
    <glyph glyph-name="ccaron" unicode="&#x10d;" horiz-adv-x="538" 
d="M358 570h-66l-92 130h60l70 -73l105 73h60zM492 340h-65q0 57 -35.5 86t-94.5 29q-84 0 -138.5 -69t-54.5 -179q0 -74 41.5 -118t115.5 -44q53 0 91.5 31t53.5 84h65q-17 -80 -76.5 -125t-140.5 -45q-96 0 -155.5 57t-59.5 158q0 140 76 222.5t188 82.5q83 0 136 -46.5
t53 -123.5z" />
    <glyph glyph-name="Dcaron" unicode="&#x10e;" horiz-adv-x="710" 
d="M454 765h-90l-99 125h66l82 -73l123 73h68zM36 0l149 700h183q87 0 149 -25.5t94 -69.5t46 -91t14 -102q0 -75 -23 -147.5t-65 -132t-108 -96t-145 -36.5h-294zM367 635h-126l-121 -570h196q92 0 159 52t96.5 128.5t29.5 164.5q0 108 -60 166.5t-174 58.5z" />
    <glyph glyph-name="dcaron" unicode="&#x10f;" horiz-adv-x="591" 
d="M717 631q-10 -47 -30.5 -69t-60.5 -22h-12l7 35h8q40 0 50 42l2 8h-30l16 75h65zM294 455q-78 0 -133.5 -65t-55.5 -170q0 -85 40 -130t104 -45q86 0 138 74.5t52 169.5q0 79 -42.5 122.5t-102.5 43.5zM388 0l14 67q-63 -77 -167 -77q-80 0 -137.5 56.5t-57.5 165.5
q0 133 72.5 215.5t177.5 82.5q59 0 107.5 -29.5t71.5 -83.5l61 303h67l-149 -700h-60z" />
    <glyph glyph-name="Dcroat" unicode="&#x110;" horiz-adv-x="717" 
d="M337 0h-294l68 321h-88l13 60h88l68 319h183q87 0 149 -25.5t94 -69.5t46 -91t14 -102q0 -75 -23 -147.5t-65 -132t-108 -96t-145 -36.5zM333 321h-152l-54 -256h196q92 0 159 52t96.5 128.5t29.5 164.5q0 108 -60 166.5t-174 58.5h-126l-54 -254h152z" />
    <glyph glyph-name="dcroat" unicode="&#x111;" horiz-adv-x="590" 
d="M294 455q-78 0 -133.5 -65t-55.5 -170q0 -85 40 -130t104 -45q86 0 138 74.5t52 169.5q0 79 -42.5 122.5t-102.5 43.5zM388 0l14 67q-63 -77 -167 -77q-80 0 -137.5 56.5t-57.5 165.5q0 133 72.5 215.5t177.5 82.5q59 0 107.5 -29.5t71.5 -83.5l36 178h-151l11 50h150
l15 75h67l-16 -75h70l-11 -50h-70l-122 -575h-60z" />
    <glyph glyph-name="Emacron" unicode="&#x112;" horiz-adv-x="642" 
d="M302 780l11 55h276l-11 -55h-276zM550 65l-14 -65h-500l149 700h490l-14 -65h-420l-52 -242h361l-14 -65h-360l-56 -263h430z" />
    <glyph glyph-name="emacron" unicode="&#x113;" horiz-adv-x="538" 
d="M187 590l10 55h285l-10 -55h-285zM293 455q-69 0 -115.5 -41.5t-63.5 -113.5h303q3 19 3 35q0 60 -33.5 90t-93.5 30zM466 143q-20 -70 -77 -111.5t-144 -41.5q-93 0 -149 62.5t-56 168.5q0 125 74.5 207t187.5 82q78 0 130.5 -47t52.5 -136q0 -35 -11 -82h-368
q-1 -8 -1 -24q0 -80 42 -128t108 -48q109 0 146 98h65z" />
    <glyph glyph-name="Ebreve" unicode="&#x114;" horiz-adv-x="642" 
d="M434 755q-64 0 -101 37.5t-28 97.5h55q-5 -37 16 -58.5t59 -21.5q35 0 64.5 20t40.5 60h55q-8 -63 -54 -99t-107 -36zM550 65l-14 -65h-500l149 700h490l-14 -65h-420l-52 -242h361l-14 -65h-360l-56 -263h430z" />
    <glyph glyph-name="ebreve" unicode="&#x115;" horiz-adv-x="538" 
d="M484 700q-17 -68 -59.5 -104t-99.5 -36q-56 0 -89.5 30t-33.5 86q0 6 2 24h50q-1 -5 -1 -15q0 -75 78 -75q77 0 103 90h50zM293 455q-69 0 -115.5 -41.5t-63.5 -113.5h303q3 19 3 35q0 60 -33.5 90t-93.5 30zM466 143q-20 -70 -77 -111.5t-144 -41.5q-93 0 -149 62.5
t-56 168.5q0 125 74.5 207t187.5 82q78 0 130.5 -47t52.5 -136q0 -35 -11 -82h-368q-1 -8 -1 -24q0 -80 42 -128t108 -48q109 0 146 98h65z" />
    <glyph glyph-name="Edotaccent" unicode="&#x116;" horiz-adv-x="642" 
d="M403 780l17 85h75l-17 -85h-75zM550 65l-14 -65h-500l149 700h490l-14 -65h-420l-52 -242h361l-14 -65h-360l-56 -263h430z" />
    <glyph glyph-name="edotaccent" unicode="&#x117;" horiz-adv-x="538" 
d="M281 590l17 85h75l-17 -85h-75zM293 455q-69 0 -115.5 -41.5t-63.5 -113.5h303q3 19 3 35q0 60 -33.5 90t-93.5 30zM466 143q-20 -70 -77 -111.5t-144 -41.5q-93 0 -149 62.5t-56 168.5q0 125 74.5 207t187.5 82q78 0 130.5 -47t52.5 -136q0 -35 -11 -82h-368
q-1 -8 -1 -24q0 -80 42 -128t108 -48q109 0 146 98h65z" />
    <glyph glyph-name="Eogonek" unicode="&#x118;" horiz-adv-x="643" 
d="M520 -140l-11 -55h-41q-98 0 -98 77q0 36 29 68t68 50h-431l149 700h490l-14 -65h-420l-52 -242h361l-14 -65h-360l-56 -263h430l-14 -65q-43 -19 -72 -46t-29 -55q0 -39 49 -39h36z" />
    <glyph glyph-name="eogonek" unicode="&#x119;" horiz-adv-x="538" 
d="M293 455q-69 0 -115.5 -41.5t-63.5 -113.5h303q3 19 3 35q0 60 -33.5 90t-93.5 30zM306 -140l-11 -55h-41q-98 0 -98 77q0 31 22.5 59.5t56.5 48.5q-89 4 -142 66t-53 165q0 125 74.5 207t187.5 82q78 0 130.5 -47t52.5 -136q0 -35 -11 -82h-368q-1 -8 -1 -24
q0 -80 42 -128t108 -48q109 0 146 98h65q-15 -53 -52 -90.5t-92 -52.5q-43 -19 -72 -46t-29 -55q0 -39 49 -39h36z" />
    <glyph glyph-name="Ecaron" unicode="&#x11a;" horiz-adv-x="642" 
d="M480 765h-90l-99 125h66l82 -73l123 73h68zM550 65l-14 -65h-500l149 700h490l-14 -65h-420l-52 -242h361l-14 -65h-360l-56 -263h430z" />
    <glyph glyph-name="ecaron" unicode="&#x11b;" horiz-adv-x="538" 
d="M352 570h-66l-92 130h60l70 -73l105 73h60zM293 455q-69 0 -115.5 -41.5t-63.5 -113.5h303q3 19 3 35q0 60 -33.5 90t-93.5 30zM466 143q-20 -70 -77 -111.5t-144 -41.5q-93 0 -149 62.5t-56 168.5q0 125 74.5 207t187.5 82q78 0 130.5 -47t52.5 -136q0 -35 -11 -82h-368
q-1 -8 -1 -24q0 -80 42 -128t108 -48q109 0 146 98h65z" />
    <glyph glyph-name="Gcircumflex" unicode="&#x11c;" horiz-adv-x="745" 
d="M544 765l-82 73l-123 -73h-68l150 125h90l99 -125h-66zM564 0l27 128q-29 -57 -96.5 -97.5t-142.5 -40.5q-129 0 -208.5 83t-79.5 213q0 117 45 213t131 153.5t197 57.5t186 -68t75 -167h-70q-6 83 -62.5 126.5t-138.5 43.5q-128 0 -210.5 -102.5t-82.5 -241.5
q0 -115 59 -180.5t160 -65.5q89 0 163.5 67t100.5 163h-224l13 65h211q33 0 51 -16t18 -45q0 -15 -3 -33l-54 -256h-65z" />
    <glyph glyph-name="gcircumflex" unicode="&#x11d;" horiz-adv-x="588" 
d="M422 570l-70 73l-105 -73h-60l137 130h66l92 -130h-60zM291 455q-77 0 -131.5 -65.5t-54.5 -169.5q0 -80 40.5 -122.5t104.5 -42.5q84 0 134 71.5t50 162.5q0 80 -41.5 123t-101.5 43zM191 -220q-79 0 -137.5 38.5t-65.5 111.5h67q7 -45 48.5 -70t96.5 -25q145 0 181 171
l14 67q-58 -73 -160 -73q-80 0 -137.5 53.5t-57.5 158.5q0 133 71 215.5t176 82.5q60 0 107.5 -31.5t68.5 -87.5l23 109h65l-109 -512q-45 -208 -251 -208z" />
    <glyph glyph-name="Gbreve" unicode="&#x11e;" horiz-adv-x="745" 
d="M448 755q-64 0 -101 37.5t-28 97.5h55q-5 -37 16 -58.5t59 -21.5q35 0 64.5 20t40.5 60h55q-8 -63 -54 -99t-107 -36zM564 0l27 128q-29 -57 -96.5 -97.5t-142.5 -40.5q-129 0 -208.5 83t-79.5 213q0 117 45 213t131 153.5t197 57.5t186 -68t75 -167h-70
q-6 83 -62.5 126.5t-138.5 43.5q-128 0 -210.5 -102.5t-82.5 -241.5q0 -115 59 -180.5t160 -65.5q89 0 163.5 67t100.5 163h-224l13 65h211q33 0 51 -16t18 -45q0 -15 -3 -33l-54 -256h-65z" />
    <glyph glyph-name="gbreve" unicode="&#x11f;" horiz-adv-x="588" 
d="M500 700q-17 -68 -59.5 -104t-99.5 -36q-56 0 -89.5 30t-33.5 86q0 6 2 24h50q-1 -5 -1 -15q0 -75 78 -75q77 0 103 90h50zM291 455q-77 0 -131.5 -65.5t-54.5 -169.5q0 -80 40.5 -122.5t104.5 -42.5q84 0 134 71.5t50 162.5q0 80 -41.5 123t-101.5 43zM191 -220
q-79 0 -137.5 38.5t-65.5 111.5h67q7 -45 48.5 -70t96.5 -25q145 0 181 171l14 67q-58 -73 -160 -73q-80 0 -137.5 53.5t-57.5 158.5q0 133 71 215.5t176 82.5q60 0 107.5 -31.5t68.5 -87.5l23 109h65l-109 -512q-45 -208 -251 -208z" />
    <glyph glyph-name="Gdotaccent" unicode="&#x120;" horiz-adv-x="745" 
d="M399 780l17 85h75l-17 -85h-75zM564 0l27 128q-29 -57 -96.5 -97.5t-142.5 -40.5q-129 0 -208.5 83t-79.5 213q0 117 45 213t131 153.5t197 57.5t186 -68t75 -167h-70q-6 83 -62.5 126.5t-138.5 43.5q-128 0 -210.5 -102.5t-82.5 -241.5q0 -115 59 -180.5t160 -65.5
q89 0 163.5 67t100.5 163h-224l13 65h211q33 0 51 -16t18 -45q0 -15 -3 -33l-54 -256h-65z" />
    <glyph glyph-name="gdotaccent" unicode="&#x121;" horiz-adv-x="588" 
d="M296 590l17 85h75l-17 -85h-75zM291 455q-77 0 -131.5 -65.5t-54.5 -169.5q0 -80 40.5 -122.5t104.5 -42.5q84 0 134 71.5t50 162.5q0 80 -41.5 123t-101.5 43zM191 -220q-79 0 -137.5 38.5t-65.5 111.5h67q7 -45 48.5 -70t96.5 -25q145 0 181 171l14 67
q-58 -73 -160 -73q-80 0 -137.5 53.5t-57.5 158.5q0 133 71 215.5t176 82.5q60 0 107.5 -31.5t68.5 -87.5l23 109h65l-109 -512q-45 -208 -251 -208z" />
    <glyph glyph-name="Gcommaaccent" unicode="&#x122;" horiz-adv-x="745" 
d="M564 0l27 128q-29 -57 -96.5 -97.5t-142.5 -40.5q-129 0 -208.5 83t-79.5 213q0 117 45 213t131 153.5t197 57.5t186 -68t75 -167h-70q-6 83 -62.5 126.5t-138.5 43.5q-128 0 -210.5 -102.5t-82.5 -241.5q0 -115 59 -180.5t160 -65.5q89 0 163.5 67t100.5 163h-224l13 65
h211q33 0 51 -16t18 -45q0 -15 -3 -33l-54 -256h-65zM368 -159q-10 -47 -30.5 -69t-60.5 -22h-12l7 35h8q40 0 50 42l2 8h-30l16 75h65z" />
    <glyph glyph-name="gcommaaccent" unicode="&#x123;" horiz-adv-x="588" 
d="M307 659q10 47 30.5 69t60.5 22h12l-7 -35h-8q-40 0 -50 -42l-2 -8h30l-16 -75h-65zM291 455q-77 0 -131.5 -65.5t-54.5 -169.5q0 -80 40.5 -122.5t104.5 -42.5q84 0 134 71.5t50 162.5q0 80 -41.5 123t-101.5 43zM191 -220q-79 0 -137.5 38.5t-65.5 111.5h67
q7 -45 48.5 -70t96.5 -25q145 0 181 171l14 67q-58 -73 -160 -73q-80 0 -137.5 53.5t-57.5 158.5q0 133 71 215.5t176 82.5q60 0 107.5 -31.5t68.5 -87.5l23 109h65l-109 -512q-45 -208 -251 -208z" />
    <glyph glyph-name="Hcircumflex" unicode="&#x124;" horiz-adv-x="731" 
d="M562 765l-82 73l-123 -73h-68l150 125h90l99 -125h-66zM501 0l68 318h-395l-68 -318h-70l149 700h70l-67 -317h395l67 317h70l-149 -700h-70z" />
    <glyph glyph-name="hcircumflex" unicode="&#x125;" horiz-adv-x="560" 
d="M321 765l-82 73l-123 -73h-68l150 125h90l99 -125h-66zM425 0h-65l64 302q4 20 4 42q0 49 -31 80t-81 31q-64 0 -111 -51t-66 -144l-55 -260h-65l148 700h65l-55 -264q61 74 157 74q71 0 115 -43t44 -113q0 -39 -8 -74z" />
    <glyph glyph-name="Hbar" unicode="&#x126;" horiz-adv-x="753" 
d="M594 383l29 137h-395l-29 -137h395zM512 0l68 318h-395l-68 -318h-70l111 520h-99l12 60h99l26 120h70l-26 -120h395l26 120h70l-26 -120h100l-12 -60h-100l-111 -520h-70z" />
    <glyph glyph-name="hbar" unicode="&#x127;" horiz-adv-x="561" 
d="M140 260l-55 -260h-65l122 575h-71l11 50h70l16 75h65l-16 -75h151l-11 -50h-150l-29 -139q61 74 157 74q71 0 115 -43t44 -113q0 -39 -8 -74l-60 -280h-65l64 302q4 20 4 42q0 49 -31 80t-81 31q-64 0 -111 -51t-66 -144z" />
    <glyph glyph-name="Itilde" unicode="&#x128;" horiz-adv-x="266" 
d="M246 783l-37 22q-31 19 -47 19q-17 0 -26 -11.5t-15 -42.5h-55l3 14q12 53 32.5 76.5t59.5 23.5q26 0 70 -25l39 -23q26 -16 40 -16q34 0 46 54h55l-3 -15q-9 -46 -33 -72.5t-60 -26.5q-29 0 -69 23zM36 0l149 700h70l-149 -700h-70z" />
    <glyph glyph-name="itilde" unicode="&#x129;" horiz-adv-x="226" 
d="M105 635q-32 0 -44 -49l-4 -16h-50l4 19q8 40 30.5 68t61.5 28q29 0 72 -27l36 -23q33 -20 46 -20q32 0 46 50l4 15h50l-4 -18q-9 -40 -32 -68.5t-62 -28.5q-29 0 -70 27l-37 24q-28 19 -47 19zM19 0l106 500h65l-106 -500h-65z" />
    <glyph glyph-name="Imacron" unicode="&#x12a;" horiz-adv-x="266" 
d="M91 780l11 55h276l-11 -55h-276zM36 0l149 700h70l-149 -700h-70z" />
    <glyph glyph-name="imacron" unicode="&#x12b;" horiz-adv-x="226" 
d="M25 590l10 55h285l-10 -55h-285zM19 0l106 500h65l-106 -500h-65z" />
    <glyph glyph-name="Ibreve" unicode="&#x12c;" horiz-adv-x="266" 
d="M237 755q-64 0 -101 37.5t-28 97.5h55q-5 -37 16 -58.5t59 -21.5q35 0 64.5 20t40.5 60h55q-8 -63 -54 -99t-107 -36zM36 0l149 700h70l-149 -700h-70z" />
    <glyph glyph-name="ibreve" unicode="&#x12d;" horiz-adv-x="226" 
d="M333 700q-17 -68 -59.5 -104t-99.5 -36q-56 0 -89.5 30t-33.5 86q0 6 2 24h50q-1 -5 -1 -15q0 -75 78 -75q77 0 103 90h50zM19 0l106 500h65l-106 -500h-65z" />
    <glyph glyph-name="Iogonek" unicode="&#x12e;" horiz-adv-x="266" 
d="M81 -195h-41q-98 0 -98 77q0 36 29 68t68 50h-3l149 700h70l-149 -700h2q-43 -19 -72 -46t-29 -55q0 -39 49 -39h36z" />
    <glyph glyph-name="iogonek" unicode="&#x12f;" horiz-adv-x="227" 
d="M139 590l17 85h75l-17 -85h-75zM67 -140l-11 -55h-41q-98 0 -98 77q0 37 31 70t72 51l105 497h65l-106 -500h-1q-43 -19 -72 -46t-29 -55q0 -39 49 -39h36z" />
    <glyph glyph-name="Idotaccent" unicode="&#x130;" horiz-adv-x="266" 
d="M200 780l17 85h75l-17 -85h-75zM36 0l149 700h70l-149 -700h-70z" />
    <glyph glyph-name="dotlessi" unicode="&#x131;" horiz-adv-x="226" 
d="M19 0l106 500h65l-106 -500h-65z" />
    <glyph glyph-name="IJ" unicode="&#x132;" horiz-adv-x="532" 
d="M126 185h-70l107 515h70zM206 0h-192l14 65h189q59 0 88 29.5t43 95.5l109 510h70l-111 -520q-20 -96 -69 -138t-141 -42z" />
    <glyph glyph-name="ij" unicode="&#x133;" horiz-adv-x="463" 
d="M139 590l17 85h75l-17 -85h-75zM373 590l17 85h75l-17 -85h-75zM19 0l106 500h65l-106 -500h-65zM-16 -165l12 55h202q34 0 44 44l119 566h65l-119 -571q-20 -94 -95 -94h-228z" />
    <glyph glyph-name="Jcircumflex" unicode="&#x134;" horiz-adv-x="379" 
d="M449 765l-82 73l-123 -73h-68l150 125h90l99 -125h-66zM53 0h-86l14 65h88q52 0 82 29.5t44 95.5l109 510h70l-111 -520q-21 -97 -68 -138.5t-142 -41.5z" />
    <glyph glyph-name="jcircumflex" unicode="&#x135;" horiz-adv-x="235" 
d="M265 570l-70 73l-105 -73h-60l137 130h66l92 -130h-60zM198 500l-119 -571q-20 -94 -95 -94h-141l12 55h115q34 0 44 44l119 566h65z" />
    <glyph glyph-name="Kcommaaccent" unicode="&#x136;" horiz-adv-x="701" 
d="M572 0l-241 357l-181 -150l-43 -207h-70l147 700h70l-83 -397l474 397h98l-360 -299l271 -401h-82zM352 -159q-10 -47 -30.5 -69t-60.5 -22h-12l7 35h8q40 0 50 42l2 8h-30l16 75h65z" />
    <glyph glyph-name="kcommaaccent" unicode="&#x137;" horiz-adv-x="558" 
d="M430 0l-172 258l-145 -116l-30 -142h-65l149 700h65l-100 -471l338 271h92l-255 -204l199 -296h-76zM254 -159q-10 -47 -30.5 -69t-60.5 -22h-12l7 35h8q40 0 50 42l2 8h-30l16 75h65z" />
    <glyph glyph-name="Lacute" unicode="&#x139;" horiz-adv-x="597" 
d="M204 765l53 125h90l-83 -125h-60zM526 0h-490l149 700h70l-135 -635h420z" />
    <glyph glyph-name="lacute" unicode="&#x13a;" horiz-adv-x="226" 
d="M180 760l57 130h80l-88 -130h-49zM18 0l149 700h65l-149 -700h-65z" />
    <glyph glyph-name="Lcommaaccent" unicode="&#x13b;" horiz-adv-x="597" 
d="M526 0h-490l149 700h70l-135 -635h420zM311 -159q-10 -47 -30.5 -69t-60.5 -22h-12l7 35h8q40 0 50 42l2 8h-30l16 75h65z" />
    <glyph glyph-name="lcommaaccent" unicode="&#x13c;" horiz-adv-x="226" 
d="M18 0l149 700h65l-149 -700h-65zM50 -159q-10 -47 -30.5 -69t-60.5 -22h-12l7 35h8q40 0 50 42l2 8h-30l16 75h65z" />
    <glyph glyph-name="Lcaron" unicode="&#x13d;" horiz-adv-x="597" 
d="M445 631q-10 -47 -30.5 -69t-60.5 -22h-12l7 35h8q40 0 50 42l2 8h-30l16 75h65zM526 0h-490l149 700h70l-135 -635h420z" />
    <glyph glyph-name="lcaron" unicode="&#x13e;" horiz-adv-x="244" 
d="M18 0l149 700h65l-149 -700h-65zM352 631q-10 -47 -30.5 -69t-60.5 -22h-12l7 35h8q40 0 50 42l2 8h-30l16 75h65z" />
    <glyph glyph-name="Ldot" unicode="&#x13f;" horiz-adv-x="598" 
d="M526 0h-490l149 700h70l-135 -635h420zM392 325l17 85h75l-17 -85h-75z" />
    <glyph glyph-name="ldot" unicode="&#x140;" horiz-adv-x="315" 
d="M18 0l149 700h65l-149 -700h-65z" />
    <glyph glyph-name="Lslash" unicode="&#x141;" horiz-adv-x="617" 
d="M547 0h-490l59 276l-111 -56l16 75l111 57l74 348h70l-65 -308l212 108l-16 -77l-213 -107l-53 -251h420z" />
    <glyph glyph-name="lslash" unicode="&#x142;" horiz-adv-x="280" 
d="M112 0h-65l74 348l-94 -45l14 68l95 45l60 284h65l-53 -249l93 44l-15 -68l-93 -44z" />
    <glyph glyph-name="Nacute" unicode="&#x143;" horiz-adv-x="741" 
d="M417 765l53 125h90l-83 -125h-60zM496 0l-259 618l-131 -618h-70l149 700h90l256 -607l129 607h70l-149 -700h-85z" />
    <glyph glyph-name="nacute" unicode="&#x144;" horiz-adv-x="561" 
d="M311 570l57 130h80l-88 -130h-49zM425 0h-65l64 302q4 20 4 42q0 50 -31 80.5t-80 30.5q-64 0 -111.5 -51t-66.5 -144l-55 -260h-65l106 500h65l-13 -64q61 74 157 74q71 0 115 -43t44 -113q0 -39 -8 -74z" />
    <glyph glyph-name="Ncommaaccent" unicode="&#x145;" horiz-adv-x="741" 
d="M496 0l-259 618l-131 -618h-70l149 700h90l256 -607l129 607h70l-149 -700h-85zM317 -159q-10 -47 -30.5 -69t-60.5 -22h-12l7 35h8q40 0 50 42l2 8h-30l16 75h65z" />
    <glyph glyph-name="ncommaaccent" unicode="&#x146;" horiz-adv-x="561" 
d="M425 0h-65l64 302q4 20 4 42q0 50 -31 80.5t-80 30.5q-64 0 -111.5 -51t-66.5 -144l-55 -260h-65l106 500h65l-13 -64q61 74 157 74q71 0 115 -43t44 -113q0 -39 -8 -74zM231 -159q-10 -47 -30.5 -69t-60.5 -22h-12l7 35h8q40 0 50 42l2 8h-30l16 75h65z" />
    <glyph glyph-name="Ncaron" unicode="&#x147;" horiz-adv-x="741" 
d="M513 765h-90l-99 125h66l82 -73l123 73h68zM496 0l-259 618l-131 -618h-70l149 700h90l256 -607l129 607h70l-149 -700h-85z" />
    <glyph glyph-name="ncaron" unicode="&#x148;" horiz-adv-x="561" 
d="M384 570h-66l-92 130h60l70 -73l105 73h60zM425 0h-65l64 302q4 20 4 42q0 50 -31 80.5t-80 30.5q-64 0 -111.5 -51t-66.5 -144l-55 -260h-65l106 500h65l-13 -64q61 74 157 74q71 0 115 -43t44 -113q0 -39 -8 -74z" />
    <glyph glyph-name="Eng" unicode="&#x14a;" horiz-adv-x="741" 
d="M581 0q-21 -97 -60 -136t-129 -39h-83l14 65h81q52 0 73 23t35 87h-16l-259 618l-131 -618h-70l149 700h90l256 -607l129 607h70z" />
    <glyph glyph-name="eng" unicode="&#x14b;" horiz-adv-x="561" 
d="M410 -70q-20 -95 -101 -95h-146l12 55h128q34 0 42 40l27 126l52 246q4 20 4 42q0 50 -31 80.5t-80 30.5q-64 0 -111.5 -51t-66.5 -144l-55 -260h-65l106 500h65l-13 -64q61 74 157 74q71 0 115 -43t44 -113q0 -39 -8 -74l-60 -280z" />
    <glyph glyph-name="Omacron" unicode="&#x14c;" horiz-adv-x="755" 
d="M327 780l11 55h276l-11 -55h-276zM421 710q136 0 214.5 -82.5t78.5 -219.5q0 -80 -24 -154t-68 -133.5t-114.5 -95t-156.5 -35.5q-125 0 -206 82t-81 215q0 185 106.5 304t250.5 119zM134 293q0 -108 60 -173t157 -65q123 0 208 95t85 252q0 111 -59 177t-164 66
q-115 0 -201 -98.5t-86 -253.5z" />
    <glyph glyph-name="omacron" unicode="&#x14d;" horiz-adv-x="564" 
d="M181 590l10 55h285l-10 -55h-285zM254 -10q-95 0 -155 59t-60 159q0 133 74.5 217.5t178.5 84.5q95 0 155 -59t60 -159q0 -136 -74 -219t-179 -83zM442 292q0 70 -41 116.5t-110 46.5q-75 0 -131 -65t-56 -182q0 -70 40.5 -116.5t110.5 -46.5q73 0 130 65.5t57 181.5z
" />
    <glyph glyph-name="Obreve" unicode="&#x14e;" horiz-adv-x="755" 
d="M461 755q-64 0 -101 37.5t-28 97.5h55q-5 -37 16 -58.5t59 -21.5q35 0 64.5 20t40.5 60h55q-8 -63 -54 -99t-107 -36zM421 710q136 0 214.5 -82.5t78.5 -219.5q0 -80 -24 -154t-68 -133.5t-114.5 -95t-156.5 -35.5q-125 0 -206 82t-81 215q0 185 106.5 304t250.5 119z
M134 293q0 -108 60 -173t157 -65q123 0 208 95t85 252q0 111 -59 177t-164 66q-115 0 -201 -98.5t-86 -253.5z" />
    <glyph glyph-name="obreve" unicode="&#x14f;" horiz-adv-x="564" 
d="M495 700q-17 -68 -59.5 -104t-99.5 -36q-56 0 -89.5 30t-33.5 86q0 6 2 24h50q-1 -5 -1 -15q0 -75 78 -75q77 0 103 90h50zM254 -10q-95 0 -155 59t-60 159q0 133 74.5 217.5t178.5 84.5q95 0 155 -59t60 -159q0 -136 -74 -219t-179 -83zM442 292q0 70 -41 116.5
t-110 46.5q-75 0 -131 -65t-56 -182q0 -70 40.5 -116.5t110.5 -46.5q73 0 130 65.5t57 181.5z" />
    <glyph glyph-name="Ohungarumlaut" unicode="&#x150;" horiz-adv-x="755" 
d="M486 765l53 125h90l-83 -125h-60zM322 765l53 125h90l-83 -125h-60zM421 710q136 0 214.5 -82.5t78.5 -219.5q0 -80 -24 -154t-68 -133.5t-114.5 -95t-156.5 -35.5q-125 0 -206 82t-81 215q0 185 106.5 304t250.5 119zM134 293q0 -108 60 -173t157 -65q123 0 208 95
t85 252q0 111 -59 177t-164 66q-115 0 -201 -98.5t-86 -253.5z" />
    <glyph glyph-name="ohungarumlaut" unicode="&#x151;" horiz-adv-x="564" 
d="M360 570l57 130h80l-88 -130h-49zM201 570l57 130h80l-88 -130h-49zM254 -10q-95 0 -155 59t-60 159q0 133 74.5 217.5t178.5 84.5q95 0 155 -59t60 -159q0 -136 -74 -219t-179 -83zM442 292q0 70 -41 116.5t-110 46.5q-75 0 -131 -65t-56 -182q0 -70 40.5 -116.5
t110.5 -46.5q73 0 130 65.5t57 181.5z" />
    <glyph glyph-name="OE" unicode="&#x152;" horiz-adv-x="1175" 
d="M351 55q100 0 177 64t104 176l4 22q8 42 8 85q0 111 -59 177t-164 66q-115 0 -201 -98.5t-86 -253.5q0 -108 60 -173t157 -65zM569 0l17 82q-95 -92 -235 -92q-125 0 -206 82t-81 215q0 185 106.5 304t250.5 119q95 0 163.5 -42t101.5 -117l32 149h490l-14 -65h-420
l-52 -242h361l-14 -65h-360l-4 -17q-1 -9 -5 -22l-47 -224h430l-14 -65h-500z" />
    <glyph glyph-name="oe" unicode="&#x153;" horiz-adv-x="937" 
d="M442 292q0 70 -41 116.5t-110 46.5q-75 0 -131 -65t-56 -182q0 -70 40.5 -116.5t110.5 -46.5q73 0 130 65.5t57 181.5zM692 455q-69 0 -115.5 -41.5t-63.5 -113.5h303q3 20 3 35q0 60 -33.5 90t-93.5 30zM865 143q-20 -70 -77 -111.5t-144 -41.5q-65 0 -113 31t-71 88
q-35 -57 -89 -88t-117 -31q-95 0 -155 59t-60 159q0 133 74.5 217.5t178.5 84.5q68 0 119 -31t76 -86q35 55 91 86t123 31q78 0 130.5 -47t52.5 -136q0 -35 -11 -82h-368q-1 -8 -1 -24q0 -80 42 -128t108 -48q109 0 146 98h65z" />
    <glyph glyph-name="Racute" unicode="&#x154;" horiz-adv-x="673" 
d="M372 765l53 125h90l-83 -125h-60zM395 635h-154l-58 -275h204q74 0 120.5 42t46.5 110q0 123 -159 123zM106 0h-70l149 700h229q100 0 155.5 -47.5t55.5 -128.5q0 -63 -33.5 -114.5t-87.5 -71.5q34 -3 55 -26.5t21 -58.5q0 -20 -5 -47l-44 -206h-70l45 212
q10 46 -8.5 64.5t-75.5 18.5h-253z" />
    <glyph glyph-name="racute" unicode="&#x155;" horiz-adv-x="349" 
d="M214 570l57 130h80l-88 -130h-49zM84 0h-65l106 500h63l-20 -96q21 43 63.5 72t92.5 29h51l-12 -60h-49q-64 0 -111 -54t-70 -161z" />
    <glyph glyph-name="Rcommaaccent" unicode="&#x156;" horiz-adv-x="673" 
d="M395 635h-154l-58 -275h204q74 0 120.5 42t46.5 110q0 123 -159 123zM106 0h-70l149 700h229q100 0 155.5 -47.5t55.5 -128.5q0 -63 -33.5 -114.5t-87.5 -71.5q34 -3 55 -26.5t21 -58.5q0 -20 -5 -47l-44 -206h-70l45 212q10 46 -8.5 64.5t-75.5 18.5h-253zM311 -159
q-10 -47 -30.5 -69t-60.5 -22h-12l7 35h8q40 0 50 42l2 8h-30l16 75h65z" />
    <glyph glyph-name="rcommaaccent" unicode="&#x157;" horiz-adv-x="349" 
d="M84 0h-65l106 500h63l-20 -96q21 43 63.5 72t92.5 29h51l-12 -60h-49q-64 0 -111 -54t-70 -161zM52 -158q-10 -47 -30.5 -69t-60.5 -22h-12l7 35h8q40 0 50 42l2 8h-30l16 75h65z" />
    <glyph glyph-name="Rcaron" unicode="&#x158;" horiz-adv-x="673" 
d="M446 760h-90l-99 125h66l82 -73l123 73h68zM395 635h-154l-58 -275h204q74 0 120.5 42t46.5 110q0 123 -159 123zM106 0h-70l149 700h229q100 0 155.5 -47.5t55.5 -128.5q0 -63 -33.5 -114.5t-87.5 -71.5q34 -3 55 -26.5t21 -58.5q0 -20 -5 -47l-44 -206h-70l45 212
q10 46 -8.5 64.5t-75.5 18.5h-253z" />
    <glyph glyph-name="rcaron" unicode="&#x159;" horiz-adv-x="349" 
d="M267 570h-66l-92 130h60l70 -73l105 73h60zM84 0h-65l106 500h63l-20 -96q21 43 63.5 72t92.5 29h51l-12 -60h-49q-64 0 -111 -54t-70 -161z" />
    <glyph glyph-name="Sacute" unicode="&#x15a;" horiz-adv-x="612" 
d="M363 765l53 125h90l-83 -125h-60zM601 495h-70q-1 72 -50.5 111t-125.5 39q-73 0 -123 -39t-50 -98q0 -38 25 -61t76 -41l98 -34q154 -53 154 -173q0 -91 -68 -150t-178 -59q-122 0 -192 57t-70 153q0 16 1 20h69v-14q0 -76 55.5 -113.5t136.5 -37.5q78 0 127 36t49 97
q0 44 -28 73.5t-105 55.5l-77 26q-74 25 -108.5 60t-34.5 94q0 92 71.5 152.5t176.5 60.5q107 0 174 -59.5t67 -146.5v-9z" />
    <glyph glyph-name="sacute" unicode="&#x15b;" horiz-adv-x="473" 
d="M245 570l57 130h80l-88 -130h-49zM387 141q0 -67 -52 -109t-131 -42q-89 0 -141.5 42.5t-55.5 117.5h65q4 -53 40.5 -79t94.5 -26q51 0 83 26t32 68q0 48 -77 75l-57 20q-56 19 -84.5 47t-28.5 72q0 66 50 111.5t131 45.5q77 0 129.5 -42.5t53.5 -117.5h-65q-1 49 -37 77
t-87 28q-49 0 -79.5 -26t-30.5 -69q0 -45 73 -70l60 -21q52 -18 83 -46.5t31 -81.5z" />
    <glyph glyph-name="Scircumflex" unicode="&#x15c;" horiz-adv-x="612" 
d="M487 770l-82 73l-123 -73h-68l150 125h90l99 -125h-66zM601 495h-70q-1 72 -50.5 111t-125.5 39q-73 0 -123 -39t-50 -98q0 -38 25 -61t76 -41l98 -34q154 -53 154 -173q0 -91 -68 -150t-178 -59q-122 0 -192 57t-70 153q0 16 1 20h69v-14q0 -76 55.5 -113.5t136.5 -37.5
q78 0 127 36t49 97q0 44 -28 73.5t-105 55.5l-77 26q-74 25 -108.5 60t-34.5 94q0 92 71.5 152.5t176.5 60.5q107 0 174 -59.5t67 -146.5v-9z" />
    <glyph glyph-name="scircumflex" unicode="&#x15d;" horiz-adv-x="473" 
d="M373 570l-70 73l-105 -73h-60l137 130h66l92 -130h-60zM387 141q0 -67 -52 -109t-131 -42q-89 0 -141.5 42.5t-55.5 117.5h65q4 -53 40.5 -79t94.5 -26q51 0 83 26t32 68q0 48 -77 75l-57 20q-56 19 -84.5 47t-28.5 72q0 66 50 111.5t131 45.5q77 0 129.5 -42.5
t53.5 -117.5h-65q-1 49 -37 77t-87 28q-49 0 -79.5 -26t-30.5 -69q0 -45 73 -70l60 -21q52 -18 83 -46.5t31 -81.5z" />
    <glyph glyph-name="Scedilla" unicode="&#x15e;" horiz-adv-x="612" 
d="M340 -120q0 -49 -33.5 -77t-89.5 -28h-59l12 55h61q27 0 43 13.5t16 37.5q0 16 -12.5 26t-32.5 10h-22l17 76q-100 11 -156.5 66t-56.5 141q0 16 1 20h69v-14q0 -76 55.5 -113.5t136.5 -37.5q78 0 127 36t49 97q0 44 -28 73.5t-105 55.5l-77 26q-74 25 -108.5 60
t-34.5 94q0 92 71.5 152.5t176.5 60.5q107 0 174 -59.5t67 -146.5v-9h-70q-1 72 -50.5 111t-125.5 39q-73 0 -123 -39t-50 -98q0 -38 25 -61t76 -41l98 -34q154 -53 154 -173q0 -91 -68 -150t-178 -59h-4l-10 -38q31 -5 48 -24.5t17 -47.5z" />
    <glyph glyph-name="scedilla" unicode="&#x15f;" horiz-adv-x="473" 
d="M140 -225h-59l12 55h61q27 0 43 13.5t16 37.5q0 16 -12.5 26t-32.5 10h-22l17 76q-71 9 -112 50t-44 107h65q4 -53 40.5 -79t94.5 -26q51 0 83 26t32 68q0 48 -77 75l-57 20q-56 19 -84.5 47t-28.5 72q0 66 50 111.5t131 45.5q77 0 129.5 -42.5t53.5 -117.5h-65
q-1 49 -37 77t-87 28q-49 0 -79.5 -26t-30.5 -69q0 -45 73 -70l60 -21q52 -18 83 -46.5t31 -81.5q0 -67 -51.5 -109t-127.5 -42l-10 -38q31 -5 48 -24.5t17 -47.5q0 -49 -33.5 -77t-89.5 -28z" />
    <glyph glyph-name="Scaron" unicode="&#x160;" horiz-adv-x="612" 
d="M428 765h-90l-99 125h66l82 -73l123 73h68zM601 495h-70q-1 72 -50.5 111t-125.5 39q-73 0 -123 -39t-50 -98q0 -38 25 -61t76 -41l98 -34q154 -53 154 -173q0 -91 -68 -150t-178 -59q-122 0 -192 57t-70 153q0 16 1 20h69v-14q0 -76 55.5 -113.5t136.5 -37.5
q78 0 127 36t49 97q0 44 -28 73.5t-105 55.5l-77 26q-74 25 -108.5 60t-34.5 94q0 92 71.5 152.5t176.5 60.5q107 0 174 -59.5t67 -146.5v-9z" />
    <glyph glyph-name="scaron" unicode="&#x161;" horiz-adv-x="473" 
d="M310 570h-66l-92 130h60l70 -73l105 73h60zM387 141q0 -67 -52 -109t-131 -42q-89 0 -141.5 42.5t-55.5 117.5h65q4 -53 40.5 -79t94.5 -26q51 0 83 26t32 68q0 48 -77 75l-57 20q-56 19 -84.5 47t-28.5 72q0 66 50 111.5t131 45.5q77 0 129.5 -42.5t53.5 -117.5h-65
q-1 49 -37 77t-87 28q-49 0 -79.5 -26t-30.5 -69q0 -45 73 -70l60 -21q52 -18 83 -46.5t31 -81.5z" />
    <glyph glyph-name="uni0162" unicode="&#x162;" horiz-adv-x="596" 
d="M305 -120q0 -49 -33.5 -77t-89.5 -28h-59l12 55h61q27 0 43 13.5t16 37.5q0 16 -12.5 26t-32.5 10h-22l18 83l135 635h-255l14 65h570l-14 -65h-245l-135 -635h-24l-12 -48q31 -5 48 -24.5t17 -47.5z" />
    <glyph glyph-name="uni0163" unicode="&#x163;" horiz-adv-x="367" 
d="M252 -120q0 -49 -33.5 -77t-89.5 -28h-59l12 55h61q27 0 43 13.5t16 37.5q0 16 -12.5 26t-32.5 10h-22l19 85q-64 11 -64 75q0 22 3 34l70 334h-118l11 55h120l35 162h65l-35 -162h128l-11 -55h-129l-74 -347q-1 -5 -1 -15q0 -13 10 -20.5t24 -7.5h113l-12 -55h-90
l-12 -48q31 -5 48 -24.5t17 -47.5z" />
    <glyph glyph-name="Tcaron" unicode="&#x164;" horiz-adv-x="596" 
d="M447 765h-90l-99 125h66l82 -73l123 73h68zM656 635h-245l-135 -635h-70l135 635h-255l14 65h570z" />
    <glyph glyph-name="tcaron" unicode="&#x165;" horiz-adv-x="367" 
d="M448 631q-10 -47 -30.5 -69t-60.5 -22h-12l7 35h8q40 0 50 42l2 8h-30l16 75h65zM301 55l-12 -55h-110q-89 0 -89 77q0 22 3 34l70 334h-118l11 55h120l35 162h65l-35 -162h128l-11 -55h-129l-74 -347q-1 -5 -1 -15q0 -13 10 -20.5t24 -7.5h113z" />
    <glyph glyph-name="Tbar" unicode="&#x166;" horiz-adv-x="629" 
d="M549 350h-185l-74 -350h-70l74 350h-184l13 60h184l48 225h-255l14 65h570l-14 -65h-245l-48 -225h185z" />
    <glyph glyph-name="tbar" unicode="&#x167;" horiz-adv-x="377" 
d="M310 55l-12 -55h-110q-89 0 -89 77q0 22 3 34l32 154h-117l12 55h117l26 125h-118l11 55h120l35 162h65l-35 -162h128l-11 -55h-129l-27 -125h129l-12 -55h-129l-35 -167q-1 -5 -1 -15q0 -13 10 -20.5t24 -7.5h113z" />
    <glyph glyph-name="Utilde" unicode="&#x168;" horiz-adv-x="694" 
d="M450 783l-37 22q-31 19 -47 19q-17 0 -26 -11.5t-15 -42.5h-55l3 14q12 53 32.5 76.5t59.5 23.5q26 0 70 -25l39 -23q26 -16 40 -16q34 0 46 54h55l-3 -15q-9 -46 -33 -72.5t-60 -26.5q-29 0 -69 23zM588 223q-24 -112 -98 -172.5t-197 -60.5q-101 0 -157.5 55t-56.5 155
q0 43 10 87l88 413h70l-90 -422q-9 -41 -9 -74q0 -149 161 -149q173 0 214 191l97 454h70z" />
    <glyph glyph-name="utilde" unicode="&#x169;" horiz-adv-x="551" 
d="M258 635q-32 0 -44 -49l-4 -16h-50l4 19q8 40 30.5 68t61.5 28q29 0 72 -27l36 -23q33 -20 46 -20q32 0 46 50l4 15h50l-4 -18q-9 -40 -32 -68.5t-62 -28.5q-30 0 -70 27l-37 24q-28 19 -47 19zM119 500h66l-64 -302q-6 -27 -6 -49q0 -49 26.5 -76.5t75.5 -27.5
q67 0 112.5 50.5t65.5 144.5l55 260h65l-106 -500h-65l14 64q-64 -75 -158 -74q-72 1 -111 40.5t-39 112.5q0 33 9 74z" />
    <glyph glyph-name="Umacron" unicode="&#x16a;" horiz-adv-x="694" 
d="M305 780l11 55h276l-11 -55h-276zM588 223q-24 -112 -98 -172.5t-197 -60.5q-101 0 -157.5 55t-56.5 155q0 43 10 87l88 413h70l-90 -422q-9 -41 -9 -74q0 -149 161 -149q173 0 214 191l97 454h70z" />
    <glyph glyph-name="umacron" unicode="&#x16b;" horiz-adv-x="551" 
d="M194 590l10 55h285l-10 -55h-285zM119 500h66l-64 -302q-6 -27 -6 -49q0 -49 26.5 -76.5t75.5 -27.5q67 0 112.5 50.5t65.5 144.5l55 260h65l-106 -500h-65l14 64q-64 -75 -158 -74q-72 1 -111 40.5t-39 112.5q0 33 9 74z" />
    <glyph glyph-name="Ubreve" unicode="&#x16c;" horiz-adv-x="694" 
d="M447 755q-64 0 -101 37.5t-28 97.5h55q-5 -37 16 -58.5t59 -21.5q35 0 64.5 20t40.5 60h55q-8 -63 -54 -99t-107 -36zM588 223q-24 -112 -98 -172.5t-197 -60.5q-101 0 -157.5 55t-56.5 155q0 43 10 87l88 413h70l-90 -422q-9 -41 -9 -74q0 -149 161 -149q173 0 214 191
l97 454h70z" />
    <glyph glyph-name="ubreve" unicode="&#x16d;" horiz-adv-x="551" 
d="M488 700q-17 -68 -59.5 -104t-99.5 -36q-56 0 -89.5 30t-33.5 86q0 6 2 24h50q-1 -5 -1 -15q0 -75 78 -75q77 0 103 90h50zM119 500h66l-64 -302q-6 -27 -6 -49q0 -49 26.5 -76.5t75.5 -27.5q67 0 112.5 50.5t65.5 144.5l55 260h65l-106 -500h-65l14 64q-64 -75 -158 -74
q-72 1 -111 40.5t-39 112.5q0 33 9 74z" />
    <glyph glyph-name="Uring" unicode="&#x16e;" horiz-adv-x="694" 
d="M364 840q0 33 24 56t55 23t55 -23t24 -56q0 -34 -23.5 -56.5t-55.5 -22.5t-55.5 22.5t-23.5 56.5zM444 874q-14 0 -24 -10t-10 -24t10 -24t24 -10q13 0 23 10t10 24t-10 24t-23 10zM588 223q-24 -112 -98 -172.5t-197 -60.5q-101 0 -157.5 55t-56.5 155q0 43 10 87
l88 413h70l-90 -422q-9 -41 -9 -74q0 -149 161 -149q173 0 214 191l97 454h70z" />
    <glyph glyph-name="uring" unicode="&#x16f;" horiz-adv-x="551" 
d="M246 645q0 35 25 59.5t59 24.5t59 -24.5t25 -59.5q0 -36 -25 -60t-59 -24t-59 24t-25 60zM331 689q-18 0 -31 -13t-13 -31t13 -31t31 -13t30.5 13t12.5 31t-12.5 31t-30.5 13zM119 500h66l-64 -302q-6 -27 -6 -49q0 -49 26.5 -76.5t75.5 -27.5q67 0 112.5 50.5
t65.5 144.5l55 260h65l-106 -500h-65l14 64q-64 -75 -158 -74q-72 1 -111 40.5t-39 112.5q0 33 9 74z" />
    <glyph glyph-name="Uhungarumlaut" unicode="&#x170;" horiz-adv-x="694" 
d="M482 765l53 125h90l-83 -125h-60zM318 765l53 125h90l-83 -125h-60zM588 223q-24 -112 -98 -172.5t-197 -60.5q-101 0 -157.5 55t-56.5 155q0 43 10 87l88 413h70l-90 -422q-9 -41 -9 -74q0 -149 161 -149q173 0 214 191l97 454h70z" />
    <glyph glyph-name="uhungarumlaut" unicode="&#x171;" horiz-adv-x="551" 
d="M376 570l57 130h80l-88 -130h-49zM217 570l57 130h80l-88 -130h-49zM119 500h66l-64 -302q-6 -27 -6 -49q0 -49 26.5 -76.5t75.5 -27.5q67 0 112.5 50.5t65.5 144.5l55 260h65l-106 -500h-65l14 64q-64 -75 -158 -74q-72 1 -111 40.5t-39 112.5q0 33 9 74z" />
    <glyph glyph-name="Uogonek" unicode="&#x172;" horiz-adv-x="694" 
d="M357 -195h-41q-98 0 -98 77q0 61 78 108h-3q-101 0 -157.5 55t-56.5 155q0 43 10 87l88 413h70l-90 -422q-9 -41 -9 -74q0 -149 161 -149q173 0 214 191l97 454h70l-102 -477q-39 -185 -204 -223q-43 -19 -72 -46t-29 -55q0 -39 49 -39h36z" />
    <glyph glyph-name="uogonek" unicode="&#x173;" horiz-adv-x="552" 
d="M393 -140l-11 -55h-41q-98 0 -98 77q0 36 30.5 69t70.5 51l14 62q-64 -75 -158 -74q-72 1 -111 40.5t-39 112.5q0 33 9 74l60 283h66l-64 -302q-6 -27 -6 -49q0 -49 26.5 -76.5t75.5 -27.5q67 0 112.5 50.5t65.5 144.5l55 260h65l-106 -500q-43 -19 -72 -46t-29 -55
q0 -39 49 -39h36z" />
    <glyph glyph-name="Wcircumflex" unicode="&#x174;" horiz-adv-x="915" 
d="M652 765l-82 73l-123 -73h-68l150 125h90l99 -125h-66zM561 0l-35 612l-295 -612h-86l-38 700h73l22 -625l301 625h78l37 -629l283 629h78l-334 -700h-84z" />
    <glyph glyph-name="wcircumflex" unicode="&#x175;" horiz-adv-x="764" 
d="M518 570l-70 73l-105 -73h-60l137 130h66l92 -130h-60zM435 0l-30 421l-207 -421h-87l-47 500h63l38 -441l214 441h79l32 -440l226 440h68l-262 -500h-87z" />
    <glyph glyph-name="Ycircumflex" unicode="&#x176;" horiz-adv-x="612" 
d="M490 765l-82 73l-123 -73h-68l150 125h90l99 -125h-66zM279 0h-70l61 284l-180 416h73l152 -353l295 353h85l-356 -418z" />
    <glyph glyph-name="ycircumflex" unicode="&#x177;" horiz-adv-x="524" 
d="M399 570l-70 73l-105 -73h-60l137 130h66l92 -130h-60zM119 -165h-153l12 55h119q31 0 42 12.5t21 56.5l13 57l-105 484h65l86 -407l268 407h71l-320 -481l-19 -90q-20 -94 -100 -94z" />
    <glyph glyph-name="Ydieresis" unicode="&#x178;" horiz-adv-x="612" 
d="M254 780l17 80h80l-17 -80h-80zM440 780l17 80h80l-17 -80h-80zM279 0h-70l61 284l-180 416h73l152 -353l295 353h85l-356 -418z" />
    <glyph glyph-name="Zacute" unicode="&#x179;" horiz-adv-x="594" 
d="M341 770l53 125h90l-83 -125h-60zM493 0h-514l17 81l542 554h-415l14 65h492l-17 -80l-539 -555h434z" />
    <glyph glyph-name="zacute" unicode="&#x17a;" horiz-adv-x="471" 
d="M247 570l57 130h80l-88 -130h-49zM373 0h-394l15 70l388 375h-303l11 55h375l-15 -70l-389 -375h324z" />
    <glyph glyph-name="Zdotaccent" unicode="&#x17b;" horiz-adv-x="594" 
d="M344 780l17 85h75l-17 -85h-75zM493 0h-514l17 81l542 554h-415l14 65h492l-17 -80l-539 -555h434z" />
    <glyph glyph-name="zdotaccent" unicode="&#x17c;" horiz-adv-x="471" 
d="M251 590l17 85h75l-17 -85h-75zM373 0h-394l15 70l388 375h-303l11 55h375l-15 -70l-389 -375h324z" />
    <glyph glyph-name="Zcaron" unicode="&#x17d;" horiz-adv-x="594" 
d="M419 765h-90l-99 125h66l82 -73l123 73h68zM493 0h-514l17 81l542 554h-415l14 65h492l-17 -80l-539 -555h434z" />
    <glyph glyph-name="zcaron" unicode="&#x17e;" horiz-adv-x="471" 
d="M318 570h-66l-92 130h60l70 -73l105 73h60zM373 0h-394l15 70l388 375h-303l11 55h375l-15 -70l-389 -375h324z" />
    <glyph glyph-name="florin" unicode="&#x192;" horiz-adv-x="407" 
d="M-44 -200h-41l14 65h38q54 0 83 27.5t44 92.5l85 369l-136 -29l13 63l137 29l24 103q41 180 195 180h51l-14 -65h-41q-96 0 -123 -116l-20 -86l136 29l-13 -63l-137 -29l-89 -389q-23 -98 -72.5 -139.5t-133.5 -41.5z" />
    <glyph glyph-name="AEmacron" unicode="&#x1e2;" horiz-adv-x="983" 
d="M605 780l11 55h276l-11 -55h-276zM513 258l30 383l-310 -383h280zM492 0l15 193h-327l-157 -193h-85l578 700h456l-14 -65h-353l-19 -242h307l-14 -65h-298l-20 -263h352l-14 -65h-407z" />
    <glyph glyph-name="aemacron" unicode="&#x1e3;" horiz-adv-x="859" 
d="M328 590l10 55h285l-10 -55h-285zM614 455q-69 0 -115.5 -41.5t-63.5 -113.5h303q3 20 3 35q0 60 -33.5 90t-93.5 30zM787 143q-20 -70 -77 -111.5t-144 -41.5q-67 0 -115.5 33t-71.5 93q-60 -126 -199 -126q-71 0 -116.5 40.5t-45.5 102.5q0 91 68 135q49 32 161 32h122
q6 41 6 48q0 48 -29.5 77.5t-78.5 29.5h-5q-48 0 -82.5 -26t-44.5 -69h-65q11 68 65 109t137 41q54 0 93.5 -26t56.5 -72q77 98 201 98q78 0 130.5 -47t52.5 -136q0 -35 -11 -82h-368q-1 -8 -1 -24q0 -80 42 -128t108 -48q109 0 146 98h65zM188 45q61 0 104.5 41t58.5 114
l9 45h-135q-142 0 -142 -101q0 -45 29.5 -72t75.5 -27z" />
    <glyph glyph-name="Aringacute" unicode="&#x1fa;" horiz-adv-x="668" 
d="M443 928l39 88h70l-60 -88h-49zM379 828q0 29 20.5 49t48.5 20t48.5 -20t20.5 -49t-20.5 -49t-48.5 -20t-48.5 20t-20.5 49zM449 852q-10 0 -17 -7t-7 -17t7 -17t17 -7q9 0 16 7t7 17t-7 17t-16 7zM482 258l-71 380l-233 -380h304zM530 0l-36 193h-356l-118 -193h-76
l433 700h90l131 -700h-68z" />
    <glyph glyph-name="aringacute" unicode="&#x1fb;" horiz-adv-x="590" 
d="M317 766l57 130h80l-88 -130h-49zM243 645q0 40 28.5 67.5t66.5 27.5t66.5 -27.5t28.5 -67.5t-28.5 -67.5t-66.5 -27.5t-66.5 27.5t-28.5 67.5zM339 689q-18 0 -31 -13t-13 -31t13 -31t31 -13t30.5 13t12.5 31t-12.5 31t-30.5 13zM291 455q-77 0 -131.5 -65.5
t-54.5 -169.5q0 -85 40.5 -130t104.5 -45q83 0 136 75t53 169q0 79 -44 122.5t-104 43.5zM388 0l13 66q-61 -76 -166 -76q-80 0 -137.5 56.5t-57.5 165.5q0 133 71 215.5t176 82.5q61 0 109.5 -31t70.5 -88l22 109h65l-106 -500h-60z" />
    <glyph glyph-name="AEacute" unicode="&#x1fc;" horiz-adv-x="983" 
d="M675 765l53 125h90l-83 -125h-60zM513 258l30 383l-310 -383h280zM492 0l15 193h-327l-157 -193h-85l578 700h456l-14 -65h-353l-19 -242h307l-14 -65h-298l-20 -263h352l-14 -65h-407z" />
    <glyph glyph-name="aeacute" unicode="&#x1fd;" horiz-adv-x="859" 
d="M426 570l57 130h80l-88 -130h-49zM614 455q-69 0 -115.5 -41.5t-63.5 -113.5h303q3 20 3 35q0 60 -33.5 90t-93.5 30zM787 143q-20 -70 -77 -111.5t-144 -41.5q-67 0 -115.5 33t-71.5 93q-60 -126 -199 -126q-71 0 -116.5 40.5t-45.5 102.5q0 91 68 135q49 32 161 32h122
q6 41 6 48q0 48 -29.5 77.5t-78.5 29.5h-5q-48 0 -82.5 -26t-44.5 -69h-65q11 68 65 109t137 41q54 0 93.5 -26t56.5 -72q77 98 201 98q78 0 130.5 -47t52.5 -136q0 -35 -11 -82h-368q-1 -8 -1 -24q0 -80 42 -128t108 -48q109 0 146 98h65zM188 45q61 0 104.5 41t58.5 114
l9 45h-135q-142 0 -142 -101q0 -45 29.5 -72t75.5 -27z" />
    <glyph glyph-name="Oslashacute" unicode="&#x1fe;" horiz-adv-x="755" 
d="M415 765l53 125h90l-83 -125h-60zM352 -9q-132 0 -212 88l-83 -76l-42 45l88 82q-38 70 -38 158q0 185 106.5 304t250.5 119q137 0 218 -86l81 75l42 -46l-87 -80q39 -69 39 -165q0 -80 -24 -154t-68 -133.5t-114.5 -95t-156.5 -35.5zM135 294q0 -63 22 -115l431 398
q-60 69 -166 69q-115 0 -201 -98.5t-86 -253.5zM352 56q123 0 208 95t85 252q0 67 -23 121l-432 -398q61 -70 162 -70z" />
    <glyph glyph-name="oslashacute" unicode="&#x1ff;" horiz-adv-x="563" 
d="M296 570l57 130h80l-88 -130h-49zM104 208q0 -38 12 -70l285 270q-41 47 -110 47q-75 0 -131 -65t-56 -182zM255 45q73 0 130 65.5t57 181.5q0 40 -13 70l-284 -270q41 -47 110 -47zM254 -10q-96 0 -155 59l-69 -66l-35 40l72 68q-28 51 -28 117q0 133 74.5 217.5
t178.5 84.5q96 0 155 -59l64 61l39 -36l-71 -67q28 -51 28 -117q0 -136 -74 -219t-179 -83z" />
    <glyph glyph-name="Scommaaccent" unicode="&#x218;" horiz-adv-x="612" 
d="M601 495h-70q-1 72 -50.5 111t-125.5 39q-73 0 -123 -39t-50 -98q0 -38 25 -61t76 -41l98 -34q154 -53 154 -173q0 -91 -68 -150t-178 -59q-122 0 -192 57t-70 153q0 16 1 20h69v-14q0 -76 55.5 -113.5t136.5 -37.5q78 0 127 36t49 97q0 44 -28 73.5t-105 55.5l-77 26
q-74 25 -108.5 60t-34.5 94q0 92 71.5 152.5t176.5 60.5q107 0 174 -59.5t67 -146.5v-9zM289 -159q-10 -47 -30.5 -69t-60.5 -22h-12l7 35h8q40 0 50 42l2 8h-30l16 75h65z" />
    <glyph glyph-name="scommaaccent" unicode="&#x219;" horiz-adv-x="473" 
d="M387 141q0 -67 -52 -109t-131 -42q-89 0 -141.5 42.5t-55.5 117.5h65q4 -53 40.5 -79t94.5 -26q51 0 83 26t32 68q0 48 -77 75l-57 20q-56 19 -84.5 47t-28.5 72q0 66 50 111.5t131 45.5q77 0 129.5 -42.5t53.5 -117.5h-65q-1 49 -37 77t-87 28q-49 0 -79.5 -26
t-30.5 -69q0 -45 73 -70l60 -21q52 -18 83 -46.5t31 -81.5zM202 -158q-10 -47 -30.5 -69t-60.5 -22h-12l7 35h8q40 0 50 42l2 8h-30l16 75h65z" />
    <glyph glyph-name="uni021A" unicode="&#x21a;" horiz-adv-x="596" 
d="M656 635h-245l-135 -635h-70l135 635h-255l14 65h570zM243 -159q-10 -47 -30.5 -69t-60.5 -22h-12l7 35h8q40 0 50 42l2 8h-30l16 75h65z" />
    <glyph glyph-name="uni021B" unicode="&#x21b;" horiz-adv-x="367" 
d="M301 55l-12 -55h-110q-89 0 -89 77q0 22 3 34l70 334h-118l11 55h120l35 162h65l-35 -162h128l-11 -55h-129l-74 -347q-1 -5 -1 -15q0 -13 10 -20.5t24 -7.5h113zM174 -158q-10 -47 -30.5 -69t-60.5 -22h-12l7 35h8q40 0 50 42l2 8h-30l16 75h65z" />
    <glyph glyph-name="uni0226" unicode="&#x226;" horiz-adv-x="668" 
d="M396 780l17 85h75l-17 -85h-75zM482 258l-71 380l-233 -380h304zM530 0l-36 193h-356l-118 -193h-76l433 700h90l131 -700h-68z" />
    <glyph glyph-name="uni0227" unicode="&#x227;" horiz-adv-x="590" 
d="M298 590l17 85h75l-17 -85h-75zM291 455q-77 0 -131.5 -65.5t-54.5 -169.5q0 -85 40.5 -130t104.5 -45q83 0 136 75t53 169q0 79 -44 122.5t-104 43.5zM388 0l13 66q-61 -76 -166 -76q-80 0 -137.5 56.5t-57.5 165.5q0 133 71 215.5t176 82.5q61 0 109.5 -31t70.5 -88
l22 109h65l-106 -500h-60z" />
    <glyph glyph-name="Ymacron" unicode="&#x232;" horiz-adv-x="612" 
d="M256 780l11 55h276l-11 -55h-276zM279 0h-70l61 284l-180 416h73l152 -353l295 353h85l-356 -418z" />
    <glyph glyph-name="ymacron" unicode="&#x233;" horiz-adv-x="524" 
d="M183 590l10 55h285l-10 -55h-285zM119 -165h-153l12 55h119q31 0 42 12.5t21 56.5l13 57l-105 484h65l86 -407l268 407h71l-320 -481l-19 -90q-20 -94 -100 -94z" />
    <glyph glyph-name="dotlessj" unicode="&#x237;" horiz-adv-x="235" 
d="M198 500l-119 -571q-20 -94 -95 -94h-141l12 55h115q34 0 44 44l119 566h65z" />
    <glyph glyph-name="circumflex" unicode="&#x2c6;" horiz-adv-x="335" 
d="M211 570l-70 73l-105 -73h-60l137 130h66l92 -130h-60z" />
    <glyph glyph-name="caron" unicode="&#x2c7;" horiz-adv-x="344" 
d="M141 570h-66l-92 130h60l70 -73l105 73h60z" />
    <glyph glyph-name="breve" unicode="&#x2d8;" horiz-adv-x="360" 
d="M304 700q-17 -68 -59.5 -104t-99.5 -36q-56 0 -89.5 30t-33.5 86q0 6 2 24h50q-1 -5 -1 -15q0 -75 78 -75q77 0 103 90h50z" />
    <glyph glyph-name="dotaccent" unicode="&#x2d9;" horiz-adv-x="149" 
d="M0 590l17 85h75l-17 -85h-75z" />
    <glyph glyph-name="ring" unicode="&#x2da;" horiz-adv-x="268" 
d="M50 645q0 35 25 59.5t59 24.5t59 -24.5t25 -59.5q0 -36 -25 -60t-59 -24t-59 24t-25 60zM135 689q-18 0 -31 -13t-13 -31t13 -31t31 -13t30.5 13t12.5 31t-12.5 31t-30.5 13z" />
    <glyph glyph-name="ogonek" unicode="&#x2db;" horiz-adv-x="230" 
d="M183 -195h-41q-98 0 -98 77q0 41 38 77t82 50l46 -9q-43 -19 -72 -46t-29 -55q0 -39 49 -39h36z" />
    <glyph glyph-name="tilde" unicode="&#x2dc;" horiz-adv-x="393" 
d="M68 635q-32 0 -44 -49l-4 -16h-50l4 19q8 40 30.5 68t61.5 28q29 0 72 -27l36 -23q33 -20 46 -20q32 0 46 50l4 15h50l-4 -18q-9 -40 -32 -68.5t-62 -28.5q-30 0 -70 27l-37 24q-28 19 -47 19z" />
    <glyph glyph-name="hungarumlaut" unicode="&#x2dd;" horiz-adv-x="229" 
d="M166 570l57 130h80l-88 -130h-49zM7 570l57 130h80l-88 -130h-49z" />
    <glyph glyph-name="pi" unicode="&#x3c0;" horiz-adv-x="740" 
d="M243 0h-65v445h-115v55h600v-55h-115v-340q0 -50 45 -50h70v-55h-75q-105 0 -105 105v340h-240v-445z" />
    <glyph glyph-name="Wgrave" unicode="&#x1e80;" horiz-adv-x="915" 
d="M522 890l53 -125h-60l-83 125h90zM561 0l-35 612l-295 -612h-86l-38 700h73l22 -625l301 625h78l37 -629l283 629h78l-334 -700h-84z" />
    <glyph glyph-name="wgrave" unicode="&#x1e81;" horiz-adv-x="764" 
d="M389 700l57 -130h-49l-88 130h80zM435 0l-30 421l-207 -421h-87l-47 500h63l38 -441l214 441h79l32 -440l226 440h68l-262 -500h-87z" />
    <glyph glyph-name="Wacute" unicode="&#x1e82;" horiz-adv-x="915" 
d="M528 765l53 125h90l-83 -125h-60zM561 0l-35 612l-295 -612h-86l-38 700h73l22 -625l301 625h78l37 -629l283 629h78l-334 -700h-84z" />
    <glyph glyph-name="wacute" unicode="&#x1e83;" horiz-adv-x="764" 
d="M413 570l57 130h80l-88 -130h-49zM435 0l-30 421l-207 -421h-87l-47 500h63l38 -441l214 441h79l32 -440l226 440h68l-262 -500h-87z" />
    <glyph glyph-name="Wdieresis" unicode="&#x1e84;" horiz-adv-x="915" 
d="M422 780l17 80h80l-17 -80h-80zM608 780l17 80h80l-17 -80h-80zM561 0l-35 612l-295 -612h-86l-38 700h73l22 -625l301 625h78l37 -629l283 629h78l-334 -700h-84z" />
    <glyph glyph-name="wdieresis" unicode="&#x1e85;" horiz-adv-x="764" 
d="M303 590l17 80h75l-17 -80h-75zM488 590l17 80h75l-17 -80h-75zM435 0l-30 421l-207 -421h-87l-47 500h63l38 -441l214 441h79l32 -440l226 440h68l-262 -500h-87z" />
    <glyph glyph-name="uni1EA0" unicode="&#x1ea0;" horiz-adv-x="668" 
d="M482 258l-71 380l-233 -380h304zM530 0l-36 193h-356l-118 -193h-76l433 700h90l131 -700h-68zM230 -165l16 75h65l-16 -75h-65z" />
    <glyph glyph-name="uni1EA1" unicode="&#x1ea1;" horiz-adv-x="590" 
d="M291 455q-77 0 -131.5 -65.5t-54.5 -169.5q0 -85 40.5 -130t104.5 -45q83 0 136 75t53 169q0 79 -44 122.5t-104 43.5zM388 0l13 66q-61 -76 -166 -76q-80 0 -137.5 56.5t-57.5 165.5q0 133 71 215.5t176 82.5q61 0 109.5 -31t70.5 -88l22 109h65l-106 -500h-60z
M185 -165l16 75h65l-16 -75h-65z" />
    <glyph glyph-name="uni1EB8" unicode="&#x1eb8;" horiz-adv-x="642" 
d="M550 65l-14 -65h-500l149 700h490l-14 -65h-420l-52 -242h361l-14 -65h-360l-56 -263h430zM239 -165l16 75h65l-16 -75h-65z" />
    <glyph glyph-name="uni1EB9" unicode="&#x1eb9;" horiz-adv-x="538" 
d="M293 455q-69 0 -115.5 -41.5t-63.5 -113.5h303q3 19 3 35q0 60 -33.5 90t-93.5 30zM466 143q-20 -70 -77 -111.5t-144 -41.5q-93 0 -149 62.5t-56 168.5q0 125 74.5 207t187.5 82q78 0 130.5 -47t52.5 -136q0 -35 -11 -82h-368q-1 -8 -1 -24q0 -80 42 -128t108 -48
q109 0 146 98h65zM177 -165l16 75h65l-16 -75h-65z" />
    <glyph glyph-name="uni1ECA" unicode="&#x1eca;" horiz-adv-x="266" 
d="M36 0l149 700h70l-149 -700h-70zM3 -165l16 75h65l-16 -75h-65z" />
    <glyph glyph-name="uni1ECB" unicode="&#x1ecb;" horiz-adv-x="227" 
d="M139 590l17 85h75l-17 -85h-75zM19 0l106 500h65l-106 -500h-65zM-15 -165l16 75h65l-16 -75h-65z" />
    <glyph glyph-name="uni1ECC" unicode="&#x1ecc;" horiz-adv-x="755" 
d="M421 710q136 0 214.5 -82.5t78.5 -219.5q0 -80 -24 -154t-68 -133.5t-114.5 -95t-156.5 -35.5q-125 0 -206 82t-81 215q0 185 106.5 304t250.5 119zM134 293q0 -108 60 -173t157 -65q123 0 208 95t85 252q0 111 -59 177t-164 66q-115 0 -201 -98.5t-86 -253.5zM269 -165
l16 75h65l-16 -75h-65z" />
    <glyph glyph-name="uni1ECD" unicode="&#x1ecd;" horiz-adv-x="564" 
d="M254 -10q-95 0 -155 59t-60 159q0 133 74.5 217.5t178.5 84.5q95 0 155 -59t60 -159q0 -136 -74 -219t-179 -83zM442 292q0 70 -41 116.5t-110 46.5q-75 0 -131 -65t-56 -182q0 -70 40.5 -116.5t110.5 -46.5q73 0 130 65.5t57 181.5zM182 -165l16 75h65l-16 -75h-65z" />
    <glyph glyph-name="uni1EE4" unicode="&#x1ee4;" horiz-adv-x="694" 
d="M588 223q-24 -112 -98 -172.5t-197 -60.5q-101 0 -157.5 55t-56.5 155q0 43 10 87l88 413h70l-90 -422q-9 -41 -9 -74q0 -149 161 -149q173 0 214 191l97 454h70zM224 -165l16 75h65l-16 -75h-65z" />
    <glyph glyph-name="uni1EE5" unicode="&#x1ee5;" horiz-adv-x="551" 
d="M119 500h66l-64 -302q-6 -27 -6 -49q0 -49 26.5 -76.5t75.5 -27.5q67 0 112.5 50.5t65.5 144.5l55 260h65l-106 -500h-65l14 64q-64 -75 -158 -74q-72 1 -111 40.5t-39 112.5q0 33 9 74zM150 -165l16 75h65l-16 -75h-65z" />
    <glyph glyph-name="Ygrave" unicode="&#x1ef2;" horiz-adv-x="612" 
d="M362 890l53 -125h-60l-83 125h90zM279 0h-70l61 284l-180 416h73l152 -353l295 353h85l-356 -418z" />
    <glyph glyph-name="ygrave" unicode="&#x1ef3;" horiz-adv-x="524" 
d="M277 700l57 -130h-49l-88 130h80zM119 -165h-153l12 55h119q31 0 42 12.5t21 56.5l13 57l-105 484h65l86 -407l268 407h71l-320 -481l-19 -90q-20 -94 -100 -94z" />
    <glyph glyph-name="enspace" unicode="&#x2002;" horiz-adv-x="500" 
 />
    <glyph glyph-name="emspace" unicode="&#x2003;" horiz-adv-x="1000" 
 />
    <glyph glyph-name="thinspace" unicode="&#x2009;" horiz-adv-x="125" 
 />
    <glyph glyph-name="endash" unicode="&#x2013;" horiz-adv-x="570" 
d="M65 275l12 55h430l-12 -55h-430z" />
    <glyph glyph-name="emdash" unicode="&#x2014;" horiz-adv-x="890" 
d="M65 275l12 55h750l-12 -55h-750z" />
    <glyph glyph-name="quoteleft" unicode="&#x2018;" horiz-adv-x="249" 
d="M259 700h18l-8 -40h-11q-31 0 -53 -16t-28 -44l-3 -15h58l-21 -100h-105l23 110q22 105 130 105z" />
    <glyph glyph-name="quoteright" unicode="&#x2019;" horiz-adv-x="246" 
d="M119 485h-18l8 40h11q31 0 53 16t28 44l3 15h-58l21 100h105l-23 -110q-22 -105 -130 -105z" />
    <glyph glyph-name="quotesinglbase" unicode="&#x201a;" horiz-adv-x="242" 
d="M-13 -115h-18l8 40h11q31 0 53 16t28 44l3 15h-58l21 100h105l-23 -110q-22 -105 -130 -105z" />
    <glyph glyph-name="quotedblleft" unicode="&#x201c;" horiz-adv-x="454" 
d="M464 700h18l-8 -40h-11q-31 0 -53 -16t-28 -44l-3 -15h58l-21 -100h-105l23 110q22 105 130 105zM259 700h18l-8 -40h-11q-31 0 -53 -16t-28 -44l-3 -15h58l-21 -100h-105l23 110q22 105 130 105z" />
    <glyph glyph-name="quotedblright" unicode="&#x201d;" horiz-adv-x="451" 
d="M118 485h-18l8 40h11q31 0 53 16t28 44l3 15h-58l21 100h105l-23 -110q-22 -105 -130 -105zM323 485h-18l8 40h11q31 0 53 16t28 44l3 15h-58l21 100h105l-23 -110q-22 -105 -130 -105z" />
    <glyph glyph-name="quotedblbase" unicode="&#x201e;" horiz-adv-x="447" 
d="M-13 -115h-18l8 40h11q31 0 53 16t28 44l3 15h-58l21 100h105l-23 -110q-22 -105 -130 -105zM192 -115h-18l8 40h11q31 0 53 16t28 44l3 15h-58l21 100h105l-23 -110q-22 -105 -130 -105z" />
    <glyph glyph-name="dagger" unicode="&#x2020;" horiz-adv-x="577" 
d="M547 475h-185v-560h-65v560h-183v55h183v255h65v-255h185v-55z" />
    <glyph glyph-name="daggerdbl" unicode="&#x2021;" horiz-adv-x="577" 
d="M519 170h-185v-255h-65v255h-185v55h185v250h-185v55h185v255h65v-255h185v-55h-185v-250h185v-55z" />
    <glyph glyph-name="bullet" unicode="&#x2022;" horiz-adv-x="491" 
d="M256 180q-69 0 -119.5 50.5t-50.5 119.5t50.5 119.5t119.5 50.5t119.5 -50.5t50.5 -119.5t-50.5 -119.5t-119.5 -50.5z" />
    <glyph glyph-name="ellipsis" unicode="&#x2026;" horiz-adv-x="741" 
d="M518 0l21 100h100l-21 -100h-100zM13 0l21 100h100l-21 -100h-100zM268 0l21 100h100l-21 -100h-100z" />
    <glyph glyph-name="perthousand" unicode="&#x2030;" horiz-adv-x="1276" 
d="M81 473q0 103 51.5 167.5t130.5 64.5q71 0 110 -47t39 -127q0 -103 -51 -167t-128 -64q-73 0 -112.5 46t-39.5 127zM205 0l560 700h73l-560 -700h-73zM351 529q0 55 -22 90.5t-68 35.5q-49 0 -84 -49t-35 -130q0 -126 93 -126q47 0 81.5 49.5t34.5 129.5zM1041 -5
q-95 0 -132 75q-51 -75 -136 -75q-73 0 -112.5 46t-39.5 127q0 103 51.5 167.5t130.5 64.5q91 0 129 -76q52 76 139 76q71 0 110 -47t39 -127q0 -103 -51 -167t-128 -64zM891 224q0 55 -22 90.5t-68 35.5q-49 0 -84 -49t-35 -130q0 -126 93 -126q47 0 81.5 49.5t34.5 129.5z
M1159 224q0 55 -22 90.5t-68 35.5q-49 0 -84 -49t-35 -130q0 -126 93 -126q47 0 81.5 49.5t34.5 129.5z" />
    <glyph glyph-name="guilsinglleft" unicode="&#x2039;" horiz-adv-x="311" 
d="M210 70h-69l-99 215l190 215h81l-199 -224z" />
    <glyph glyph-name="guilsinglright" unicode="&#x203a;" horiz-adv-x="309" 
d="M76 70h-81l198 224l-96 206h69l99 -215z" />
    <glyph glyph-name="fraction" unicode="&#x2044;" horiz-adv-x="160" 
d="M-226 0l560 700h73l-560 -700h-73z" />
    <glyph glyph-name="Euro" unicode="&#x20ac;" horiz-adv-x="665" 
d="M595 205q-56 -215 -248 -215q-85 0 -144.5 55t-75.5 155l-103 -24l13 63l85 20v9q0 42 4 73l-69 -15l13 63l67 15q32 138 120 222t198 84q96 0 149.5 -62t41.5 -153h-68q8 68 -27 109t-99 41h-10q-77 0 -140.5 -62.5t-92.5 -162.5l216 48l-13 -63l-216 -48q-6 -37 -6 -76
v-7l161 37l-13 -63l-143 -33q11 -76 50.5 -118t100.5 -42h10q60 0 106.5 39t64.5 111h68z" />
    <glyph glyph-name="uni2105" unicode="&#x2105;" horiz-adv-x="731" 
d="M64 0l560 700h73l-560 -700h-73zM357 641h-57q0 22 -15 38t-42 16q-41 0 -66 -36t-25 -85q0 -40 17 -62t48 -22q25 0 42 14.5t21 38.5h57q-5 -41 -38 -69.5t-86 -28.5q-57 0 -87.5 34t-30.5 94q0 75 44 121t105 46q47 0 79.5 -26t33.5 -73zM544 285q51 0 86.5 -32
t35.5 -91q0 -76 -42 -124t-103 -48q-54 0 -88 33.5t-34 90.5q0 77 42.5 124t102.5 47zM544 240q-40 0 -64 -38.5t-24 -84.5q0 -36 17 -59t49 -23q37 0 62 36t25 88q0 36 -17 58.5t-48 22.5z" />
    <glyph glyph-name="afii61289" unicode="&#x2113;" horiz-adv-x="413" 
d="M275 0h-122q-38 0 -60 22t-22 61q0 13 3 28l24 112l-80 -33l14 66l80 36l57 268q32 150 144 150q52 0 87 -38.5t35 -108.5q0 -93 -61.5 -173t-182.5 -129l-17 -7l-30 -141q-2 -12 -2 -17q0 -31 37 -31h110zM237 551l-48 -225l20 9q76 33 116.5 97t40.5 138q0 33 -14.5 54
t-40.5 21q-55 0 -74 -94z" />
    <glyph glyph-name="afii61352" unicode="&#x2116;" horiz-adv-x="1034" 
d="M913 705q51 0 86.5 -32t35.5 -91q0 -76 -42 -124t-103 -48q-54 0 -88 33.5t-34 90.5q0 77 42.5 124t102.5 47zM913 660q-40 0 -64 -38.5t-24 -84.5q0 -36 17 -59t49 -23q37 0 62 36t25 88q0 36 -17 58.5t-48 22.5zM497 0l-259 618l-131 -618h-70l149 700h90l256 -607
l129 607h70l-149 -700h-85zM986 305h-258l10 45h258z" />
    <glyph glyph-name="uni2117" unicode="&#x2117;" horiz-adv-x="899" 
d="M462 -40q-161 0 -275.5 114.5t-114.5 275.5t114.5 275.5t275.5 114.5t275.5 -114.5t114.5 -275.5t-114.5 -275.5t-275.5 -114.5zM462 10q140 0 239 100t99 240t-99 240t-239 100t-239 -100t-99 -240t99 -240t239 -100zM352 167v376h146q61 0 98.5 -28.5t37.5 -86.5
t-38 -85.5t-99 -27.5h-84v-148h-61zM413 365h76q40 0 62 14t22 50t-22 50t-62 14h-76v-128z" />
    <glyph glyph-name="trademark" unicode="&#x2122;" horiz-adv-x="999" 
d="M249 320v330h-132v50h325v-50h-132v-330h-61zM707 320l-109 312v-312h-61v380h96l109 -315l105 315h95v-380h-61v315l-104 -315h-70z" />
    <glyph glyph-name="Omega" unicode="&#x2126;" horiz-adv-x="791" 
d="M316 60v-60h-235v65h125q-64 35 -97 109t-33 176q0 166 89.5 263t230.5 97t230.5 -97t89.5 -263q0 -102 -33 -176t-97 -109h125v-65h-235v60q82 21 127 96t45 194q0 139 -66 217t-181 78h-10q-115 0 -181 -78t-66 -217q0 -119 45 -194t127 -96z" />
    <glyph glyph-name="onethird" unicode="&#x2153;" horiz-adv-x="881" 
d="M99 0l560 700h73l-560 -700h-73zM212 305h-58l65 309l-136 -92l13 64l161 114h39zM522 108h61q1 -30 22.5 -46.5t56.5 -16.5q34 0 56 19.5t22 49.5q0 26 -19 42.5t-49 16.5h-46l11 55h51q38 0 60 17t22 45q0 30 -19 45t-48 15q-32 0 -52.5 -16.5t-24.5 -43.5h-61
q3 49 41.5 79.5t97.5 30.5q57 0 92 -29.5t35 -76.5q0 -39 -25.5 -66t-62.5 -33q24 -10 40.5 -33.5t16.5 -50.5q0 -48 -39 -82t-101 -34q-66 0 -101.5 33t-36.5 80z" />
    <glyph glyph-name="twothirds" unicode="&#x2154;" horiz-adv-x="973" 
d="M346 305h-279l12 60l139 97q5 3 20.5 13.5t21.5 15.5t18.5 15t18.5 17t13 17.5t10 21.5t3 23q0 28 -20 49t-55 21q-34 0 -57.5 -19.5t-26.5 -49.5h-62q3 50 44 84.5t107 34.5q55 0 93 -32.5t38 -85.5q0 -48 -26.5 -80t-80.5 -68l-125 -84h204zM204 0l560 700h73
l-560 -700h-73zM616 108h61q1 -30 22.5 -46.5t56.5 -16.5q34 0 56 19.5t22 49.5q0 26 -19 42.5t-49 16.5h-46l11 55h51q38 0 60 17t22 45q0 30 -19 45t-48 15q-32 0 -52.5 -16.5t-24.5 -43.5h-61q3 49 41.5 79.5t97.5 30.5q57 0 92 -29.5t35 -76.5q0 -39 -25.5 -66
t-62.5 -33q24 -10 40.5 -33.5t16.5 -50.5q0 -48 -39 -82t-101 -34q-66 0 -101.5 33t-36.5 80z" />
    <glyph glyph-name="uni2155" unicode="&#x2155;" horiz-adv-x="878" 
d="M100 0l560 700h73l-560 -700h-73zM212 305h-58l65 309l-136 -92l13 64l161 114h39zM661 -5q-61 0 -98 31t-37 80h61q2 -28 22 -44.5t51 -16.5q35 0 57 22t22 59q1 28 -18.5 49t-54.5 21q-46 0 -76 -36h-60l95 235h202l-11 -50h-150l-53 -126q27 27 73 27q52 0 83 -33.5
t31 -85.5q0 -55 -37 -93.5t-102 -38.5z" />
    <glyph glyph-name="uni2156" unicode="&#x2156;" horiz-adv-x="969" 
d="M346 305h-279l12 60l139 97q5 3 20.5 13.5t21.5 15.5t18.5 15t18.5 17t13 17.5t10 21.5t3 23q0 28 -20 49t-55 21q-34 0 -57.5 -19.5t-26.5 -49.5h-62q3 50 44 84.5t107 34.5q55 0 93 -32.5t38 -85.5q0 -48 -26.5 -80t-80.5 -68l-125 -84h204zM204 0l560 700h73
l-560 -700h-73zM755 -5q-61 0 -98 31t-37 80h61q2 -28 22 -44.5t51 -16.5q35 0 57 22t22 59q1 28 -18.5 49t-54.5 21q-46 0 -76 -36h-60l95 235h202l-11 -50h-150l-53 -126q27 27 73 27q52 0 83 -33.5t31 -85.5q0 -55 -37 -93.5t-102 -38.5z" />
    <glyph glyph-name="uni2157" unicode="&#x2157;" horiz-adv-x="943" 
d="M168 0l560 700h73l-560 -700h-73zM66 413h61q1 -30 22.5 -46.5t56.5 -16.5q34 0 56 19.5t22 49.5q0 26 -19 42.5t-49 16.5h-46l11 55h51q38 0 60 17t22 45q0 30 -19 45t-48 15q-32 0 -52.5 -16.5t-24.5 -43.5h-61q3 49 41.5 79.5t97.5 30.5q57 0 92 -29.5t35 -76.5
q0 -39 -25.5 -66t-62.5 -33q24 -10 40.5 -33.5t16.5 -50.5q0 -48 -39 -82t-101 -34q-66 0 -101.5 33t-36.5 80zM729 -5q-61 0 -98 31t-37 80h61q2 -28 22 -44.5t51 -16.5q35 0 57 22t22 59q1 28 -18.5 49t-54.5 21q-46 0 -76 -36h-60l95 235h202l-11 -50h-150l-53 -126
q27 27 73 27q52 0 83 -33.5t31 -85.5q0 -55 -37 -93.5t-102 -38.5z" />
    <glyph glyph-name="uni2158" unicode="&#x2158;" horiz-adv-x="932" 
d="M164 0l560 700h73l-560 -700h-73zM253 448l39 185l-170 -185h131zM359 401h-57l-20 -96h-59l20 96h-186l12 56l223 243h74l-54 -252h58zM715 -5q-61 0 -98 31t-37 80h61q2 -28 22 -44.5t51 -16.5q35 0 57 22t22 59q1 28 -18.5 49t-54.5 21q-46 0 -76 -36h-60l95 235h202
l-11 -50h-150l-53 -126q27 27 73 27q52 0 83 -33.5t31 -85.5q0 -55 -37 -93.5t-102 -38.5z" />
    <glyph glyph-name="uni2159" unicode="&#x2159;" horiz-adv-x="894" 
d="M100 0l560 700h73l-560 -700h-73zM212 305h-58l65 309l-136 -92l13 64l161 114h39zM854 291h-61q-2 29 -22 44t-51 15q-44 0 -77.5 -35.5t-50.5 -96.5q16 21 44 34t56 13q55 0 88.5 -32.5t32.5 -82.5q-1 -61 -44 -108t-112 -47q-59 0 -94.5 40.5t-35.5 120.5q0 98 58 171
t143 73q59 0 92.5 -31t33.5 -78zM588 124q0 -34 21 -56.5t53 -22.5q39 0 64.5 28t25.5 70q0 33 -20 52.5t-50 19.5q-38 0 -66 -26.5t-28 -64.5z" />
    <glyph glyph-name="uni215A" unicode="&#x215a;" horiz-adv-x="952" 
d="M170 0l560 700h73l-560 -700h-73zM202 300q-61 0 -98 31t-37 80h61q2 -28 22 -44.5t51 -16.5q35 0 57 22t22 59q1 28 -18.5 49t-54.5 21q-46 0 -76 -36h-60l95 235h202l-11 -50h-150l-53 -126q27 27 73 27q52 0 83 -33.5t31 -85.5q0 -55 -37 -93.5t-102 -38.5zM914 291
h-61q-2 29 -22 44t-51 15q-44 0 -77.5 -35.5t-50.5 -96.5q16 21 44 34t56 13q55 0 88.5 -32.5t32.5 -82.5q-1 -61 -44 -108t-112 -47q-59 0 -94.5 40.5t-35.5 120.5q0 98 58 171t143 73q59 0 92.5 -31t33.5 -78zM648 124q0 -34 21 -56.5t53 -22.5q39 0 64.5 28t25.5 70
q0 33 -20 52.5t-50 19.5q-38 0 -66 -26.5t-28 -64.5z" />
    <glyph glyph-name="oneeighth" unicode="&#x215b;" horiz-adv-x="896" 
d="M98 0l560 700h73l-560 -700h-73zM212 305h-58l65 309l-136 -92l13 64l161 114h39zM669 -5q-56 0 -95 27.5t-39 75.5q0 39 26 66t67 37q-62 27 -62 87q0 49 41.5 80.5t105.5 31.5q60 0 100 -28.5t40 -77.5q0 -40 -30 -70t-74 -36q56 -23 56 -85q0 -49 -39.5 -78.5
t-96.5 -29.5zM710 350q-38 0 -60.5 -19t-22.5 -50q0 -24 21 -41t61 -17q38 0 60.5 17.5t22.5 49.5q0 27 -22 43.5t-60 16.5zM596 103q0 -25 19.5 -41.5t54.5 -16.5q34 0 54 19t20 49q0 28 -19.5 44t-51.5 16q-35 0 -56 -18.5t-21 -51.5z" />
    <glyph glyph-name="threeeighths" unicode="&#x215c;" horiz-adv-x="952" 
d="M168 0l560 700h73l-560 -700h-73zM66 413h61q1 -30 22.5 -46.5t56.5 -16.5q34 0 56 19.5t22 49.5q0 26 -19 42.5t-49 16.5h-46l11 55h51q38 0 60 17t22 45q0 30 -19 45t-48 15q-32 0 -52.5 -16.5t-24.5 -43.5h-61q3 49 41.5 79.5t97.5 30.5q57 0 92 -29.5t35 -76.5
q0 -39 -25.5 -66t-62.5 -33q24 -10 40.5 -33.5t16.5 -50.5q0 -48 -39 -82t-101 -34q-66 0 -101.5 33t-36.5 80zM728 -5q-56 0 -95 27.5t-39 75.5q0 39 26 66t67 37q-62 27 -62 87q0 49 41.5 80.5t105.5 31.5q60 0 100 -28.5t40 -77.5q0 -40 -30 -70t-74 -36q56 -23 56 -85
q0 -49 -39.5 -78.5t-96.5 -29.5zM769 350q-38 0 -60.5 -19t-22.5 -50q0 -24 21 -41t61 -17q38 0 60.5 17.5t22.5 49.5q0 27 -22 43.5t-60 16.5zM655 103q0 -25 19.5 -41.5t54.5 -16.5q34 0 54 19t20 49q0 28 -19.5 44t-51.5 16q-35 0 -56 -18.5t-21 -51.5z" />
    <glyph glyph-name="fiveeighths" unicode="&#x215d;" horiz-adv-x="934" 
d="M150 0l560 700h73l-560 -700h-73zM202 300q-61 0 -98 31t-37 80h61q2 -28 22 -44.5t51 -16.5q35 0 57 22t22 59q1 28 -18.5 49t-54.5 21q-46 0 -76 -36h-60l95 235h202l-11 -50h-150l-53 -126q27 27 73 27q52 0 83 -33.5t31 -85.5q0 -55 -37 -93.5t-102 -38.5zM710 -5
q-56 0 -95 27.5t-39 75.5q0 39 26 66t67 37q-62 27 -62 87q0 49 41.5 80.5t105.5 31.5q60 0 100 -28.5t40 -77.5q0 -40 -30 -70t-74 -36q56 -23 56 -85q0 -49 -39.5 -78.5t-96.5 -29.5zM751 350q-38 0 -60.5 -19t-22.5 -50q0 -24 21 -41t61 -17q38 0 60.5 17.5t22.5 49.5
q0 27 -22 43.5t-60 16.5zM637 103q0 -25 19.5 -41.5t54.5 -16.5q34 0 54 19t20 49q0 28 -19.5 44t-51.5 16q-35 0 -56 -18.5t-21 -51.5z" />
    <glyph glyph-name="seveneighths" unicode="&#x215e;" horiz-adv-x="870" 
d="M81 0l560 700h73l-560 -700h-73zM181 305h-61q0 73 18 135.5t46.5 103.5t57.5 67t58 39h-192l11 50h267l-11 -52q-82 -33 -138 -121t-56 -222zM641 -5q-56 0 -95 27.5t-39 75.5q0 39 26 66t67 37q-62 27 -62 87q0 49 41.5 80.5t105.5 31.5q60 0 100 -28.5t40 -77.5
q0 -40 -30 -70t-74 -36q56 -23 56 -85q0 -49 -39.5 -78.5t-96.5 -29.5zM682 350q-38 0 -60.5 -19t-22.5 -50q0 -24 21 -41t61 -17q38 0 60.5 17.5t22.5 49.5q0 27 -22 43.5t-60 16.5zM568 103q0 -25 19.5 -41.5t54.5 -16.5q34 0 54 19t20 49q0 28 -19.5 44t-51.5 16
q-35 0 -56 -18.5t-21 -51.5z" />
    <glyph glyph-name="uni215F" unicode="&#x215f;" horiz-adv-x="647" 
d="M96 0l560 700h73l-560 -700h-73zM198 305h-58l65 309l-136 -92l13 64l161 114h39z" />
    <glyph glyph-name="uni2160" unicode="&#x2160;" horiz-adv-x="461" 
d="M-14 0l12 55h148l125 590h-148l12 55h364l-12 -55h-148l-125 -590h148l-12 -55h-364z" />
    <glyph glyph-name="uni2161" unicode="&#x2161;" horiz-adv-x="746" 
d="M-14 0l12 55h148l125 590h-148l12 55h649l-12 -55h-148l-125 -590h148l-12 -55h-649zM214 55h217l125 590h-217z" />
    <glyph glyph-name="uni2162" unicode="&#x2162;" horiz-adv-x="1031" 
d="M-14 0l12 55h148l125 590h-148l12 55h934l-12 -55h-148l-125 -590h148l-12 -55h-934zM214 55h217l125 590h-217zM499 55h217l125 590h-217z" />
    <glyph glyph-name="uni2163" unicode="&#x2163;" horiz-adv-x="1042" 
d="M217 55h320l-71 590h-124zM-11 0l12 55h148l125 590h-148l12 55h522l-12 -55h-116l67 -573l314 573h-120l12 55h287l-12 -55h-92l-329 -590h167l-12 -55h-825z" />
    <glyph glyph-name="uni2164" unicode="&#x2164;" horiz-adv-x="777" 
d="M562 55l-12 -55h-455l12 55h166l-71 590h-91l12 55h273l-12 -55h-116l67 -573l314 573h-120l12 55h287l-12 -55h-92l-329 -590h167z" />
    <glyph glyph-name="uni2165" unicode="&#x2165;" horiz-adv-x="1034" 
d="M718 55l125 590h-121l-329 -590h325zM93 0l12 55h166l-71 590h-91l12 55h273l-12 -55h-116l67 -573l314 573h-120l12 55h532l-12 -55h-148l-125 -590h148l-12 -55h-829z" />
    <glyph glyph-name="uni2166" unicode="&#x2166;" horiz-adv-x="1317" 
d="M716 55l125 590h-119l-329 -590h323zM784 55h217l125 590h-217zM93 0l12 55h166l-71 590h-91l12 55h273l-12 -55h-116l67 -573l314 573h-120l12 55h815l-12 -55h-148l-125 -590h148l-12 -55h-1112z" />
    <glyph glyph-name="uni2167" unicode="&#x2167;" horiz-adv-x="1600" 
d="M714 55l125 590h-117l-329 -590h321zM782 55h217l125 590h-217zM1067 55h217l125 590h-217zM93 0l12 55h166l-71 590h-91l12 55h273l-12 -55h-116l67 -573l314 573h-120l12 55h1098l-12 -55h-148l-125 -590h148l-12 -55h-1395z" />
    <glyph glyph-name="uni2168" unicode="&#x2168;" horiz-adv-x="1012" 
d="M214 55h139l258 305l-129 285h-143zM551 645l105 -232l197 232h-302zM432 55h317l-110 244zM-14 0l12 55h148l125 590h-148l12 55h909l-12 -55h-100l-248 -293l134 -297h100l-12 -55h-920z" />
    <glyph glyph-name="uni2169" unicode="&#x2169;" horiz-adv-x="760" 
d="M654 0h-670l12 55h105l258 305l-129 285h-100l12 55h650l-12 -55h-100l-248 -293l134 -297h100zM299 645l105 -232l197 232h-302zM180 55h317l-110 244z" />
    <glyph glyph-name="uni216C" unicode="&#x216c;" horiz-adv-x="662" 
d="M-14 0l12 55h148l125 590h-148l12 55h364l-12 -55h-148l-125 -590h292l41 195h65l-53 -250h-573z" />
    <glyph glyph-name="uni216D" unicode="&#x216d;" horiz-adv-x="703" 
d="M503 0l17 78q-70 -88 -197 -88q-115 0 -185.5 81.5t-70.5 222.5q0 174 101 295t245 121q67 0 124.5 -28.5t88.5 -88.5l23 107h66l-48 -215h-59q-23 79 -73 124.5t-124 45.5q-113 0 -194.5 -107t-81.5 -253q0 -110 52 -180t145 -70q73 0 128.5 46t91.5 124h62l-46 -215
h-65z" />
    <glyph glyph-name="uni216E" unicode="&#x216e;" horiz-adv-x="714" 
d="M318 0h-331l12 55h110l125 590h-110l12 55h221q160 0 237.5 -82t77.5 -209q0 -186 -103 -297.5t-251 -111.5zM368 645h-66l-125 -590h131q57 0 105.5 19.5t83 54t59 80t36.5 97t12 106.5q0 103 -62.5 168t-173.5 65z" />
    <glyph glyph-name="uni216F" unicode="&#x216f;" horiz-adv-x="1003" 
d="M258 55l-12 -55h-259l12 55h116l125 590h-116l12 55h221l99 -628l359 628h226l-12 -55h-116l-125 -590h116l-12 -55h-256l12 55h75l122 577l-361 -632h-81l-98 630l-122 -575h75z" />
    <glyph glyph-name="uni2190" unicode="&#x2190;" horiz-adv-x="780" 
d="M326 39l-311 311l311 311l48 -48l-229 -229h610v-68h-610l229 -229z" />
    <glyph glyph-name="uni2191" unicode="&#x2191;" horiz-adv-x="742" 
d="M371 740l311 -311l-48 -48l-229 229v-610h-68v610l-229 -229l-48 48z" />
    <glyph glyph-name="uni2192" unicode="&#x2192;" horiz-adv-x="780" 
d="M454 661l311 -311l-311 -311l-48 48l229 229h-610v68h610l-229 229z" />
    <glyph glyph-name="uni2193" unicode="&#x2193;" horiz-adv-x="742" 
d="M682 271l-311 -311l-311 311l48 48l229 -229v610h68v-610l229 229z" />
    <glyph glyph-name="uni2196" unicode="&#x2196;" horiz-adv-x="660" 
d="M608 201l-48 -48l-429 431v-323h-68v439h439v-68h-323z" />
    <glyph glyph-name="uni2197" unicode="&#x2197;" horiz-adv-x="660" 
d="M100 153l-48 48l429 431h-323v68h439v-439h-68v323z" />
    <glyph glyph-name="uni2198" unicode="&#x2198;" horiz-adv-x="660" 
d="M52 499l48 48l429 -431v323h68v-439h-439v68h323z" />
    <glyph glyph-name="uni2199" unicode="&#x2199;" horiz-adv-x="660" 
d="M560 547l48 -48l-429 -431h323v-68h-439v439h68v-323z" />
    <glyph glyph-name="uni21A4" unicode="&#x21a4;" horiz-adv-x="825" 
d="M331 40l-311 311l311 311l48 -48l-229 -229h545v215h65v-500h-65v217h-545l229 -229z" />
    <glyph glyph-name="uni21A5" unicode="&#x21a5;" horiz-adv-x="742" 
d="M621 0h-500v65h215v545l-229 -229l-48 48l311 311l311 -311l-48 -48l-229 229v-545h217v-65z" />
    <glyph glyph-name="uni21A6" unicode="&#x21a6;" horiz-adv-x="835" 
d="M504 40l-48 48l229 229h-545v-217h-65v500h65v-215h545l-229 229l48 48l311 -311z" />
    <glyph glyph-name="uni21A7" unicode="&#x21a7;" horiz-adv-x="742" 
d="M370 -40l-311 311l48 48l229 -229v545h-215v65h500v-65h-217v-545l229 229l48 -48z" />
    <glyph glyph-name="uni21B0" unicode="&#x21b0;" horiz-adv-x="825" 
d="M750 0h-68v316h-542l229 -229l-48 -48l-311 311l311 311l48 -48l-229 -229h610v-384z" />
    <glyph glyph-name="uni21B1" unicode="&#x21b1;" horiz-adv-x="825" 
d="M143 0h-68v384h610l-229 229l48 48l311 -311l-311 -311l-48 48l229 229h-542v-316z" />
    <glyph glyph-name="uni21B2" unicode="&#x21b2;" horiz-adv-x="825" 
d="M321 39l-311 311l311 311l48 -48l-229 -229h542v316h68v-384h-610l229 -229z" />
    <glyph glyph-name="uni21B3" unicode="&#x21b3;" horiz-adv-x="825" 
d="M504 39l-48 48l229 229h-610v384h68v-316h542l-229 229l48 48l311 -311z" />
    <glyph glyph-name="partialdiff" unicode="&#x2202;" horiz-adv-x="563" 
d="M210 710q142 0 216.5 -113.5t74.5 -294.5q0 -157 -62.5 -234.5t-167.5 -77.5q-106 0 -166.5 68.5t-60.5 182.5q0 108 60 176t158 68q111 0 163 -70l-3 23q-15 103 -78 155t-142 52q-52 0 -93 -15v65q45 15 101 15zM269 55h5q68 0 113.5 48t45.5 137q0 90 -44 137.5
t-115 47.5h-10q-70 0 -111 -46.5t-41 -137.5t43.5 -138.5t113.5 -47.5z" />
    <glyph glyph-name="Delta" unicode="&#x2206;" horiz-adv-x="665" 
d="M612 70v-70h-614v70l270 630h74zM542 65l-237 554l-238 -554h475z" />
    <glyph glyph-name="product" unicode="&#x220f;" horiz-adv-x="745" 
d="M290 0h-68v635h-104v65h615v-65h-103v-635h-68v635h-272v-635z" />
    <glyph glyph-name="summation" unicode="&#x2211;" horiz-adv-x="630" 
d="M539 65v-65h-425v66l204 284l-204 287v63h425v-65h-341l206 -285l-206 -285h341z" />
    <glyph glyph-name="minus" unicode="&#x2212;" horiz-adv-x="655" 
d="M73 225v65h494v-65h-494z" />
    <glyph glyph-name="radical" unicode="&#x221a;" horiz-adv-x="617" 
d="M316 0h-79l-175 500h68l145 -421l144 621h253v-62h-201z" />
    <glyph glyph-name="infinity" unicode="&#x221e;" horiz-adv-x="854" 
d="M633 170q-36 0 -63.5 8.5t-51 29.5t-38 39t-39.5 53q-24 -34 -39 -52.5t-39 -39t-51.5 -29.5t-63.5 -9q-75 0 -125 52.5t-50 137.5t50 137.5t125 52.5q36 0 63.5 -9t52 -31.5t38.5 -40t39 -53.5q26 37 39.5 53.5t37.5 39.5t51.5 32t63.5 9q75 0 125 -52.5t50 -137.5
t-50 -137.5t-125 -52.5zM633 235q51 0 79 32.5t28 92.5t-28 92.5t-79 32.5h-5q-44 0 -77 -30.5t-73 -94.5q40 -64 73 -94.5t77 -30.5h5zM253 235q44 0 77 30.5t73 94.5q-40 64 -73 94.5t-77 30.5h-5q-51 0 -79 -32.5t-28 -92.5t28 -92.5t79 -32.5h5z" />
    <glyph glyph-name="integral" unicode="&#x222b;" horiz-adv-x="315" 
d="M193 90q0 -190 -174 -190h-40v65h35q61 0 86 27.5t25 92.5v425q0 190 174 190h40v-65h-35q-61 0 -86 -27.5t-25 -92.5v-425z" />
    <glyph glyph-name="approxequal" unicode="&#x2248;" horiz-adv-x="626" 
d="M475 413h65v-25q0 -50 -31 -80t-89 -30q-36 0 -120.5 40.5t-101.5 40.5q-63 0 -63 -71h-65v25q0 50 32.5 82.5t87.5 32.5q36 0 120.5 -40.5t101.5 -40.5q63 0 63 66zM475 223h65v-25q0 -50 -31 -80t-89 -30q-36 0 -120.5 40.5t-101.5 40.5q-63 0 -63 -71h-65v25
q0 50 32.5 82.5t87.5 32.5q36 0 120.5 -40.5t101.5 -40.5q63 0 63 66z" />
    <glyph glyph-name="notequal" unicode="&#x2260;" horiz-adv-x="695" 
d="M587 134h-249l-37 -119h-71l37 119h-174v65h194l36 116h-230v65h250l37 120h71l-37 -120h173v-65h-193l-36 -116h229v-65z" />
    <glyph glyph-name="lessequal" unicode="&#x2264;" horiz-adv-x="644" 
d="M553 130l-494 152v76l494 152v-72l-422 -117l422 -117v-74zM59 25v65h494v-65h-494z" />
    <glyph glyph-name="greaterequal" unicode="&#x2265;" horiz-adv-x="664" 
d="M78 130v72l422 117l-422 117v74l494 -152v-76zM78 25v65h494v-65h-494z" />
    <glyph glyph-name="uni2460" unicode="&#x2460;" horiz-adv-x="880" 
d="M440 -40q-161 0 -275.5 114.5t-114.5 275.5t114.5 275.5t275.5 114.5t275.5 -114.5t114.5 -275.5t-114.5 -275.5t-275.5 -114.5zM440 10q140 0 239 100t99 240t-99 240t-239 100t-239 -100t-99 -240t99 -240t239 -100zM479 155h-57v320l-117 -94v59l136 110h38v-395z" />
    <glyph glyph-name="uni2461" unicode="&#x2461;" horiz-adv-x="880" 
d="M440 -40q-161 0 -275.5 114.5t-114.5 275.5t114.5 275.5t275.5 114.5t275.5 -114.5t114.5 -275.5t-114.5 -275.5t-275.5 -114.5zM440 10q140 0 239 100t99 240t-99 240t-239 100t-239 -100t-99 -240t99 -240t239 -100zM570 155h-266v68l126 110q47 42 61 60.5t14 46.5
q0 29 -18.5 47t-46.5 18h-5q-25 0 -46.5 -19t-21.5 -50h-61q0 54 39 86.5t94 32.5q56 0 91.5 -31t35.5 -84q0 -28 -13 -53.5t-26 -38t-40 -36.5l-123 -107h206v-50z" />
    <glyph glyph-name="uni2462" unicode="&#x2462;" horiz-adv-x="880" 
d="M440 -40q-161 0 -275.5 114.5t-114.5 275.5t114.5 275.5t275.5 114.5t275.5 -114.5t114.5 -275.5t-114.5 -275.5t-275.5 -114.5zM440 10q140 0 239 100t99 240t-99 240t-239 100t-239 -100t-99 -240t99 -240t239 -100zM433 150q-56 0 -95 30.5t-39 83.5h61
q1 -29 20.5 -46.5t49.5 -17.5h5q33 0 54.5 18.5t21.5 50.5q0 29 -19 45.5t-48 16.5h-44v47h46q28 0 45 16t17 45q0 32 -19 49t-51 17h-5q-30 0 -47.5 -16.5t-19.5 -43.5h-61q0 52 38.5 81t94.5 29q55 0 93 -29t38 -81q0 -64 -55 -91q58 -24 58 -91q0 -51 -41.5 -82
t-97.5 -31z" />
    <glyph glyph-name="uni2463" unicode="&#x2463;" horiz-adv-x="880" 
d="M440 -40q-161 0 -275.5 114.5t-114.5 275.5t114.5 275.5t275.5 114.5t275.5 -114.5t114.5 -275.5t-114.5 -275.5t-275.5 -114.5zM440 10q140 0 239 100t99 240t-99 240t-239 100t-239 -100t-99 -240t99 -240t239 -100zM464 155v96h-185v56l179 243h62v-249h54v-50h-54
v-96h-56zM464 301v176l-127 -176h127z" />
    <glyph glyph-name="uni2464" unicode="&#x2464;" horiz-adv-x="880" 
d="M440 -40q-161 0 -275.5 114.5t-114.5 275.5t114.5 275.5t275.5 114.5t275.5 -114.5t114.5 -275.5t-114.5 -275.5t-275.5 -114.5zM440 10q140 0 239 100t99 240t-99 240t-239 100t-239 -100t-99 -240t99 -240t239 -100zM432 150q-60 0 -97.5 28.5t-41.5 82.5h61
q4 -30 25.5 -45.5t51.5 -15.5h4q32 0 52.5 22.5t20.5 57.5q0 34 -20 53.5t-52 19.5h-3q-43 0 -71 -34h-53l45 231h209v-50h-165l-26 -125q30 28 74 28q56 0 89.5 -34t33.5 -87q0 -60 -39 -96t-98 -36z" />
    <glyph glyph-name="uni2465" unicode="&#x2465;" horiz-adv-x="880" 
d="M440 -40q-161 0 -275.5 114.5t-114.5 275.5t114.5 275.5t275.5 114.5t275.5 -114.5t114.5 -275.5t-114.5 -275.5t-275.5 -114.5zM440 10q140 0 239 100t99 240t-99 240t-239 100t-239 -100t-99 -240t99 -240t239 -100zM431 150q-68 0 -106.5 50.5t-38.5 140.5
q0 97 46 155.5t115 58.5q63 0 98 -33.5t35 -76.5h-59q-5 27 -24.5 43t-47.5 16h-6q-40 0 -69 -38t-34 -102q12 25 41.5 40.5t65.5 15.5q52 0 89.5 -35.5t37.5 -93.5q0 -62 -38.5 -101.5t-104.5 -39.5zM431 200h3q35 0 58 24t23 61t-22 61t-57 24h-3q-35 0 -57.5 -24
t-22.5 -61t22 -61t56 -24z" />
    <glyph glyph-name="uni2466" unicode="&#x2466;" horiz-adv-x="880" 
d="M440 -40q-161 0 -275.5 114.5t-114.5 275.5t114.5 275.5t275.5 114.5t275.5 -114.5t114.5 -275.5t-114.5 -275.5t-275.5 -114.5zM440 10q140 0 239 100t99 240t-99 240t-239 100t-239 -100t-99 -240t99 -240t239 -100zM443 155h-61v36q0 110 40.5 187.5t104.5 121.5h-212
v50h266v-53q-138 -115 -138 -306v-36z" />
    <glyph glyph-name="uni2467" unicode="&#x2467;" horiz-adv-x="880" 
d="M440 -40q-161 0 -275.5 114.5t-114.5 275.5t114.5 275.5t275.5 114.5t275.5 -114.5t114.5 -275.5t-114.5 -275.5t-275.5 -114.5zM440 10q140 0 239 100t99 240t-99 240t-239 100t-239 -100t-99 -240t99 -240t239 -100zM438 151q-55 0 -93.5 28t-38.5 78q0 64 67 93
q-32 13 -52.5 38.5t-20.5 57.5q0 51 39 80.5t101 29.5t101.5 -29.5t39.5 -80.5q0 -66 -73 -96q63 -29 63 -93q0 -50 -39 -78t-94 -28zM443 506h-5q-33 0 -55 -17t-22 -48q0 -30 22 -46.5t53 -16.5h5q32 0 55.5 16.5t23.5 46.5q0 31 -22 48t-55 17zM436 201h5q29 0 49 17.5
t20 47.5q0 28 -20 46t-49 18h-5q-29 0 -49 -18t-20 -46q0 -30 20 -47.5t49 -17.5z" />
    <glyph glyph-name="uni2468" unicode="&#x2468;" horiz-adv-x="880" 
d="M440 -40q-161 0 -275.5 114.5t-114.5 275.5t114.5 275.5t275.5 114.5t275.5 -114.5t114.5 -275.5t-114.5 -275.5t-275.5 -114.5zM440 10q140 0 239 100t99 240t-99 240t-239 100t-239 -100t-99 -240t99 -240t239 -100zM451 505h-3q-35 0 -58 -24t-23 -61t22 -61t57 -24h3
q35 0 57.5 24t22.5 61t-22 61t-56 24zM451 555q68 0 106.5 -50.5t38.5 -140.5q0 -97 -46 -155.5t-115 -58.5q-63 0 -98 33.5t-35 76.5h59q5 -27 24.5 -43t47.5 -16h6q40 0 69 38t34 102q-12 -25 -41.5 -40.5t-65.5 -15.5q-52 0 -89.5 35.5t-37.5 93.5q0 62 38.5 101.5
t104.5 39.5z" />
    <glyph glyph-name="uni24EA" unicode="&#x24ea;" horiz-adv-x="880" 
d="M440 -40q-161 0 -275.5 114.5t-114.5 275.5t114.5 275.5t275.5 114.5t275.5 -114.5t114.5 -275.5t-114.5 -275.5t-275.5 -114.5zM440 10q140 0 239 100t99 240t-99 240t-239 100t-239 -100t-99 -240t99 -240t239 -100zM440 150q-75 0 -118.5 55t-43.5 147t43.5 147.5
t118.5 55.5t118.5 -55.5t43.5 -147.5t-43.5 -147t-118.5 -55zM438 200h4q48 0 73.5 45t25.5 107t-25.5 107.5t-73.5 45.5h-4q-48 0 -73.5 -45.5t-25.5 -107.5t25.5 -107t73.5 -45z" />
    <glyph glyph-name="uni24FF" unicode="&#x24ff;" horiz-adv-x="880" 
d="M830 350q0 -161 -114.5 -275.5t-275.5 -114.5q-160 0 -275 115t-115 275q0 161 114.5 275.5t275.5 114.5t275.5 -114.5t114.5 -275.5zM278 352q0 -92 43.5 -147t118.5 -55t118.5 55t43.5 147t-43.5 147.5t-118.5 55.5t-118.5 -55.5t-43.5 -147.5zM442 200h-4
q-48 0 -73.5 45t-25.5 107t25.5 107.5t73.5 45.5h4q48 0 73.5 -45.5t25.5 -107.5t-25.5 -107t-73.5 -45z" />
    <glyph glyph-name="lozenge" unicode="&#x25ca;" horiz-adv-x="615" 
d="M275 700h70l235 -350l-235 -350h-70l-240 350zM115 350l195 -282l195 282l-195 287z" />
    <glyph glyph-name="uni278A" unicode="&#x278a;" horiz-adv-x="880" 
d="M830 350q0 -161 -114.5 -275.5t-275.5 -114.5q-160 0 -275 115t-115 275q0 161 114.5 275.5t275.5 114.5t275.5 -114.5t114.5 -275.5zM423 155h57v395h-38l-136 -110v-59l117 94v-320z" />
    <glyph glyph-name="uni278B" unicode="&#x278b;" horiz-adv-x="880" 
d="M830 350q0 -161 -114.5 -275.5t-275.5 -114.5q-160 0 -275 115t-115 275q0 161 114.5 275.5t275.5 114.5t275.5 -114.5t114.5 -275.5zM305 155h266v50h-206l123 107q27 24 40 36.5t26 38t13 53.5q0 53 -35.5 84t-91.5 31q-55 0 -94 -32.5t-39 -86.5h61q0 31 21.5 50
t46.5 19h5q28 0 46.5 -18t18.5 -47q0 -28 -14 -46.5t-61 -60.5l-126 -110v-68z" />
    <glyph glyph-name="uni278C" unicode="&#x278c;" horiz-adv-x="880" 
d="M830 350q0 -161 -114.5 -275.5t-275.5 -114.5q-160 0 -275 115t-115 275q0 161 114.5 275.5t275.5 114.5t275.5 -114.5t114.5 -275.5zM301 264q0 -53 39 -83.5t95 -30.5t97.5 31t41.5 82q0 67 -58 91q55 27 55 91q0 52 -38 81t-93 29q-56 0 -94.5 -29t-38.5 -81h61
q2 27 19.5 43.5t47.5 16.5h5q32 0 51 -17t19 -49q0 -29 -17 -45t-45 -16h-46v-47h44q29 0 48 -16.5t19 -45.5q0 -32 -21.5 -50.5t-54.5 -18.5h-5q-30 0 -49.5 17.5t-20.5 46.5h-61z" />
    <glyph glyph-name="uni278D" unicode="&#x278d;" horiz-adv-x="880" 
d="M830 350q0 -161 -114.5 -275.5t-275.5 -114.5q-160 0 -275 115t-115 275q0 161 114.5 275.5t275.5 114.5t275.5 -114.5t114.5 -275.5zM462 251v-96h56v96h54v50h-54v249h-62l-179 -243v-56h185zM462 477v-176h-127z" />
    <glyph glyph-name="uni278E" unicode="&#x278e;" horiz-adv-x="880" 
d="M830 350q0 -161 -114.5 -275.5t-275.5 -114.5q-160 0 -275 115t-115 275q0 161 114.5 275.5t275.5 114.5t275.5 -114.5t114.5 -275.5zM295 261q4 -54 41.5 -82.5t97.5 -28.5q59 0 98 36t39 96q0 53 -33.5 87t-89.5 34q-44 0 -74 -28l26 125h165v50h-209l-45 -231h53
q28 34 71 34h3q32 0 52 -19.5t20 -53.5q0 -35 -20.5 -57.5t-52.5 -22.5h-4q-30 0 -51.5 15.5t-25.5 45.5h-61z" />
    <glyph glyph-name="uni278F" unicode="&#x278f;" horiz-adv-x="880" 
d="M830 350q0 -161 -114.5 -275.5t-275.5 -114.5q-160 0 -275 115t-115 275q0 161 114.5 275.5t275.5 114.5t275.5 -114.5t114.5 -275.5zM285 341q0 -90 38.5 -140.5t106.5 -50.5q66 0 104.5 39.5t38.5 101.5q0 58 -37.5 93.5t-89.5 35.5q-36 0 -65.5 -15.5t-41.5 -40.5
q5 64 34 102t69 38h6q28 0 47.5 -16t24.5 -43h59q0 43 -35 76.5t-98 33.5q-69 0 -115 -58.5t-46 -155.5zM433 200h-3q-34 0 -56 24t-22 61t22.5 61t57.5 24h3q35 0 57 -24t22 -61t-23 -61t-58 -24z" />
    <glyph glyph-name="uni2790" unicode="&#x2790;" horiz-adv-x="880" 
d="M830 350q0 -161 -114.5 -275.5t-275.5 -114.5q-160 0 -275 115t-115 275q0 161 114.5 275.5t275.5 114.5t275.5 -114.5t114.5 -275.5zM382 155h61v36q0 191 138 306v53h-266v-50h212q-64 -44 -104.5 -121.5t-40.5 -187.5v-36z" />
    <glyph glyph-name="uni2791" unicode="&#x2791;" horiz-adv-x="880" 
d="M830 350q0 -161 -114.5 -275.5t-275.5 -114.5q-160 0 -275 115t-115 275q0 161 114.5 275.5t275.5 114.5t275.5 -114.5t114.5 -275.5zM307 256q0 -50 38.5 -78t93.5 -28t94 28t39 78q0 64 -63 93q73 30 73 96q0 51 -39.5 80.5t-101.5 29.5t-101 -29.5t-39 -80.5
q0 -32 20.5 -57.5t52.5 -38.5q-67 -29 -67 -93zM439 505h5q33 0 55 -17t22 -48q0 -30 -23.5 -46.5t-55.5 -16.5h-5q-31 0 -53 16.5t-22 46.5q0 31 22 48t55 17zM442 200h-5q-29 0 -49 17.5t-20 47.5q0 28 20 46t49 18h5q29 0 49 -18t20 -46q0 -30 -20 -47.5t-49 -17.5z" />
    <glyph glyph-name="uni2792" unicode="&#x2792;" horiz-adv-x="880" 
d="M830 350q0 -161 -114.5 -275.5t-275.5 -114.5q-160 0 -275 115t-115 275q0 161 114.5 275.5t275.5 114.5t275.5 -114.5t114.5 -275.5zM445 505h3q34 0 56 -24t22 -61t-22.5 -61t-57.5 -24h-3q-35 0 -57 24t-22 61t23 61t58 24zM593 364q0 90 -38.5 140.5t-106.5 50.5
q-66 0 -104.5 -39.5t-38.5 -101.5q0 -58 37.5 -93.5t89.5 -35.5q36 0 65.5 15.5t41.5 40.5q-5 -64 -34 -102t-69 -38h-6q-28 0 -47.5 16t-24.5 43h-59q0 -43 35 -76.5t98 -33.5q69 0 115 58.5t46 155.5z" />
    <glyph glyph-name="Checkbox_one" unicode="&#xe000;" horiz-adv-x="540" 
d="M70 150v400h400v-400h-400zM145 225h250v250h-250v-250z" />
    <glyph glyph-name="Checkbox_two" unicode="&#xe001;" horiz-adv-x="690" 
d="M620 75h-550v550h550v-550zM145 550v-400h400v400h-400z" />
    <glyph glyph-name="Checkbox_three" unicode="&#xe002;" horiz-adv-x="880" 
d="M90 0v700h700v-700h-700zM165 75h550v550h-550v-550z" />
    <glyph glyph-name="circle_one" unicode="&#xe003;" horiz-adv-x="580" 
d="M290 110q-99 0 -169.5 70.5t-70.5 169.5t70.5 169.5t169.5 70.5t169.5 -70.5t70.5 -169.5t-70.5 -169.5t-169.5 -70.5zM290 185q68 0 116.5 48.5t48.5 116.5t-48.5 116.5t-116.5 48.5t-116.5 -48.5t-48.5 -116.5t48.5 -116.5t116.5 -48.5z" />
    <glyph glyph-name="circle_two" unicode="&#xe004;" horiz-adv-x="730" 
d="M680 350q0 -130 -92.5 -222.5t-222.5 -92.5t-222.5 92.5t-92.5 222.5t92.5 222.5t222.5 92.5t222.5 -92.5t92.5 -222.5zM125 350q0 -99 70.5 -169.5t169.5 -70.5t169.5 70.5t70.5 169.5t-70.5 169.5t-169.5 70.5t-169.5 -70.5t-70.5 -169.5z" />
    <glyph glyph-name="circle_three" unicode="&#xe005;" horiz-adv-x="880" 
d="M440 -40q-160 0 -275 115t-115 275q0 161 114.5 275.5t275.5 114.5t275.5 -114.5t114.5 -275.5t-114.5 -275.5t-275.5 -114.5zM440 35q130 0 222.5 92.5t92.5 222.5t-92.5 222.5t-222.5 92.5t-222.5 -92.5t-92.5 -222.5t92.5 -222.5t222.5 -92.5z" />
    <glyph glyph-name="bullet_one" unicode="&#xe006;" horiz-adv-x="640" 
d="M320 110q-99 0 -169.5 70.5t-70.5 169.5t70.5 169.5t169.5 70.5t169.5 -70.5t70.5 -169.5t-70.5 -169.5t-169.5 -70.5z" />
    <glyph glyph-name="bullet_two" unicode="&#xe007;" horiz-adv-x="700" 
d="M650 350q0 -124 -88 -212t-212 -88t-212 88t-88 212t88 212t212 88t212 -88t88 -212z" />
    <glyph glyph-name="bullet_three" unicode="&#xe008;" horiz-adv-x="880" 
d="M800 350q0 -148 -106 -254t-254 -106t-254 106t-106 254t106 254t254 106t254 -106t106 -254z" />
    <glyph glyph-name="Pyramide_one" unicode="&#xe009;" horiz-adv-x="540" 
d="M70 150v400h400v-400h-400zM145 225h250v250h-250v-250zM220 300v100h100v-100h-100z" />
    <glyph glyph-name="Pyramide_two" unicode="&#xe00a;" horiz-adv-x="690" 
d="M620 75h-550v550h550v-550zM145 550v-400h400v400h-400zM470 225h-250v250h250v-250zM295 400v-100h100v100h-100z" />
    <glyph glyph-name="Pyramide_three" unicode="&#xe00b;" horiz-adv-x="880" 
d="M90 0v700h700v-700h-700zM165 75h550v550h-550v-550zM240 150v400h400v-400h-400zM315 225h250v250h-250v-250zM490 300h-100v100h100v-100z" />
    <glyph glyph-name="Square_one" unicode="&#xe00c;" horiz-adv-x="540" 
d="M70 150v400h400v-400h-400z" />
    <glyph glyph-name="Square_two" unicode="&#xe00d;" horiz-adv-x="690" 
d="M620 75h-550v550h550v-550z" />
    <glyph glyph-name="Square_three" unicode="&#xe00e;" horiz-adv-x="880" 
d="M90 0v700h700v-700h-700z" />
    <glyph glyph-name="Tower_one" unicode="&#xe010;" horiz-adv-x="580" 
d="M290 110q-99 0 -169.5 70.5t-70.5 169.5t70.5 169.5t169.5 70.5t169.5 -70.5t70.5 -169.5t-70.5 -169.5t-169.5 -70.5zM290 185q68 0 116.5 48.5t48.5 116.5t-48.5 116.5t-116.5 48.5t-116.5 -48.5t-48.5 -116.5t48.5 -116.5t116.5 -48.5zM290 260q-37 0 -63.5 26.5
t-26.5 63.5t26.5 63.5t63.5 26.5q38 0 64 -26t26 -64q0 -37 -26.5 -63.5t-63.5 -26.5z" />
    <glyph glyph-name="Tower_two" unicode="&#xe011;" horiz-adv-x="730" 
d="M680 350q0 -130 -92.5 -222.5t-222.5 -92.5t-222.5 92.5t-92.5 222.5t92.5 222.5t222.5 92.5t222.5 -92.5t92.5 -222.5zM125 350q0 -99 70.5 -169.5t169.5 -70.5t169.5 70.5t70.5 169.5t-70.5 169.5t-169.5 70.5t-169.5 -70.5t-70.5 -169.5zM530 350q0 -68 -48.5 -116.5
t-116.5 -48.5t-116.5 48.5t-48.5 116.5t48.5 116.5t116.5 48.5t116.5 -48.5t48.5 -116.5zM275 350q0 -37 26.5 -63.5t63.5 -26.5t63.5 26.5t26.5 63.5q0 38 -26.5 64t-63.5 26t-63.5 -26.5t-26.5 -63.5z" />
    <glyph glyph-name="Tower_three" unicode="&#xe012;" horiz-adv-x="880" 
d="M440 -40q-161 0 -275.5 114.5t-114.5 275.5t114.5 275.5t275.5 114.5t275.5 -114.5t114.5 -275.5t-114.5 -275.5t-275.5 -114.5zM440 35q130 0 222.5 92.5t92.5 222.5t-92.5 222.5t-222.5 92.5t-222.5 -92.5t-92.5 -222.5t92.5 -222.5t222.5 -92.5zM440 110
q-99 0 -169.5 70.5t-70.5 169.5t70.5 169.5t169.5 70.5t169.5 -70.5t70.5 -169.5t-70.5 -169.5t-169.5 -70.5zM440 185q68 0 116.5 48.5t48.5 116.5t-48.5 116.5t-116.5 48.5t-116.5 -48.5t-48.5 -116.5t48.5 -116.5t116.5 -48.5zM440 260q-37 0 -63.5 26.5t-26.5 63.5
t26.5 63.5t63.5 26.5q38 0 64 -26t26 -64q0 -37 -26.5 -63.5t-63.5 -26.5z" />
    <glyph glyph-name="commaaccent" unicode="&#xf6c3;" horiz-adv-x="170" 
d="M135 -159q-10 -47 -30.5 -69t-60.5 -22h-12l7 35h8q40 0 50 42l2 8h-30l16 75h65z" />
    <glyph glyph-name="i.dot" horiz-adv-x="226" 
d="M139 590l17 85h75l-17 -85h-75zM19 0l106 500h65l-106 -500h-65z" />
    <glyph glyph-name="ringacute" horiz-adv-x="293" 
d="M114 766l57 130h80l-88 -130h-49zM40 645q0 40 28.5 67.5t66.5 27.5t66.5 -27.5t28.5 -67.5t-28.5 -67.5t-66.5 -27.5t-66.5 27.5t-28.5 67.5zM136 689q-18 0 -31 -13t-13 -31t13 -31t31 -13t30.5 13t12.5 31t-12.5 31t-30.5 13z" />
    <glyph glyph-name="dotaccent.low" horiz-adv-x="173" 
d="M37 -165l16 75h65l-16 -75h-65z" />
    <glyph glyph-name="dinamo" horiz-adv-x="818" 
d="M715 588q7 19 -2 39t-32 26q-12 -22 1 -42t33 -23zM550 508q6 -6 35 1q14 5 14 34q-28 28 -57 28q-5 -15 -3 -34.5t11 -28.5zM138 236q83 -13 111 -10q-5 13 -13 44t-16 47q-10 -9 -29.5 -25t-31.5 -28.5t-21 -27.5zM501 435q-48 -11 -117 -47t-109 -46q6 -22 12.5 -50
t10 -47t4.5 -21q33 2 110 25.5t131 19.5q-3 18 -10 43t-9 34q-3 13 -4.5 29t-2.5 24t-5 18t-11 18zM422 -32q-15 -20 -37 -5q-8 4 -17.5 14.5t-16.5 20t-18.5 26t-15.5 22.5q-11 15 -23.5 42t-18.5 31q-21 -63 -38 -103t-25 -39h-13t-12 5t-5 15q2 29 19.5 80.5t42.5 95.5
q-7 1 -51.5 4.5t-82 12t-60.5 26.5q-5 6 -10 14q6 7 12.5 12.5t10.5 8t12.5 7.5t12.5 8q14 19 52 47.5t53 50.5l-44 24q-44 23 -50 42q2 2 9 19q9 8 91 -34q1 7 2 25t2.5 29.5t5.5 16.5q1 4 10.5 7t18.5 5l8 1q11 -7 11 -15q1 -8 -5.5 -41t-4.5 -50q23 0 47.5 11t50.5 29
t38 23q4 1 52 13.5t73 20.5q-19 34 -20 72.5t17 60.5q79 1 111.5 -34t15.5 -85q19 2 40.5 14t24.5 24q-10 9 -23.5 16.5t-21.5 14.5t-13 21q-23 26 -14.5 54t41.5 40q45 16 73.5 -14t21.5 -83q27 13 23 114q33 4 67 -2.5t47 -17.5q-3 -27 -4 -28q-13 -7 -32.5 -6.5
t-31.5 3.5q2 -43 -18 -75t-59 -29q-10 -33 -35 -55t-53.5 -29.5t-59 -11.5t-51.5 0l4 -12q3 -11 8 -30t11 -42.5t12 -53t9 -56.5q58 -65 81 -86q46 -41 60 -78q9 -24 -17 -29q-22 13 -41.5 32t-44 47t-41.5 45q-3 -39 10.5 -103.5t14.5 -70.5q-14 -11 -27 -12t-15 9
q-13 22 -21.5 67.5t-12.5 89.5t-5 48q-33 2 -223 -44q-1 -28 12.5 -55.5t30.5 -47t36 -48.5t27 -56z" />
    <glyph glyph-name="edgeleft" horiz-adv-x="353" 
d="M234 -145h-86q-48 0 -77.5 31.5t-29.5 77.5q0 34 17.5 65.5t45.5 44.5q-39 12 -56 45.5t-7 80.5l71 341q10 47 35.5 71.5t77.5 30.5q-31 24 -31 67q0 60 42.5 97.5t97.5 37.5h106l-12 -55h-88q-35 0 -58 -22.5t-23 -61.5q0 -25 15.5 -40.5t40.5 -15.5h43l-12 -55h-73
q-55 0 -73 -15t-28 -64l-65 -313q-8 -40 8 -69t59 -29h75l-12 -55h-55q-37 0 -56.5 -20.5t-19.5 -55.5q0 -28 16.5 -46t53.5 -18h70z" />
    <glyph glyph-name="edgeright" horiz-adv-x="366" 
d="M153 845h86q48 0 77.5 -31.5t29.5 -77.5q0 -34 -17.5 -65.5t-45.5 -44.5q39 -12 56 -45.5t7 -80.5l-71 -341q-10 -47 -35.5 -71.5t-77.5 -30.5q31 -24 31 -67q0 -60 -42.5 -97.5t-97.5 -37.5h-106l12 55h88q35 0 58 22.5t23 61.5q0 25 -15.5 40.5t-40.5 15.5h-43l12 55
h73q55 0 73 15t28 64l65 313q8 40 -8 69t-59 29h-75l12 55h55q37 0 56.5 20.5t19.5 55.5q0 28 -16.5 46t-53.5 18h-70z" />
    <glyph glyph-name="isbn" horiz-adv-x="2241" 
d="M1730 477q24 112 98 172.5t197 60.5q101 0 157.5 -55t56.5 -155q0 -43 -10 -87l-88 -413h-70l90 422q9 41 9 74q0 149 -161 149q-173 0 -214 -191l-97 -454h-70zM1420 214q0 51 -33.5 79.5t-94.5 28.5h-214l-54 -257h247q63 0 106 36t43 113zM50 0l149 700h70l-135 -635
h439q88 0 138.5 41.5t50.5 99.5q0 90 -117 115l-94 20q-60 13 -98.5 55t-38.5 107q0 84 64.5 140.5t176.5 56.5h691q90 0 144 -46t54 -122q0 -67 -42.5 -119.5t-107.5 -65.5q46 -17 71 -53.5t25 -86.5q0 -85 -59 -146t-150 -61h-341l82 387h301q64 0 107.5 37t43.5 100
q0 111 -138 111h-664q-88 0 -138 -33t-50 -95q0 -43 27.5 -71t75.5 -38l94 -20q62 -13 106.5 -55.5t44.5 -104.5q0 -90 -61.5 -154t-191.5 -64h-529z" />
    <glyph glyph-name="zero.posf" horiz-adv-x="621" 
d="M284 -10q-106 0 -172 69.5t-66 168.5q0 118 78.5 200t196.5 82q105 0 170.5 -69.5t65.5 -171.5q0 -117 -77 -198t-196 -81zM294 45q87 0 142.5 62.5t55.5 161.5q0 84 -48 135t-129 51q-89 0 -146.5 -64.5t-57.5 -162.5q0 -84 49.5 -133.5t133.5 -49.5z" />
    <glyph glyph-name="one.posf" horiz-adv-x="357" 
d="M203 0h-60l89 416l-204 -177l17 80l207 181h57z" />
    <glyph glyph-name="two.posf" horiz-adv-x="460" 
d="M352 0h-352l18 71l243 186q49 38 67 61t18 57q0 35 -25.5 57.5t-68.5 22.5h-7q-40 0 -71 -31.5t-38 -82.5h-65q8 67 52.5 118t129.5 51q71 0 114.5 -36t43.5 -93q0 -53 -29.5 -90t-90.5 -83l-205 -153h279z" />
    <glyph glyph-name="three.posf" horiz-adv-x="561" 
d="M-21 -22h68q0 -58 44.5 -95.5t117.5 -37.5t120 45t47 111q0 57 -37 90.5t-102 33.5h-36l11 55h66q61 0 108 38.5t47 99.5q0 64 -40.5 100.5t-107.5 36.5q-61 0 -102 -36.5t-51 -98.5h-68q8 79 68.5 134.5t156.5 55.5q94 0 151.5 -51t57.5 -133q0 -69 -42 -117t-105 -65
q40 -19 65 -56.5t25 -89.5q0 -88 -65 -148t-172 -60q-100 0 -162.5 51t-62.5 137z" />
    <glyph glyph-name="four.posf" horiz-adv-x="592" 
d="M337 55l82 379l-358 -379h276zM504 0h-114l-43 -200h-65l43 200h-345l15 71l409 429h92l-95 -445h115z" />
    <glyph glyph-name="five.posf" horiz-adv-x="549" 
d="M201 -210q-92 0 -154 50t-65 140h65q4 -68 47.5 -101.5t108.5 -33.5q79 0 127.5 50t48.5 127q0 71 -42.5 116t-113.5 45q-95 0 -160 -90h-62l172 407h344l-11 -55h-295l-112 -260q61 53 142 53q84 0 143.5 -60.5t59.5 -147.5q0 -109 -68 -174.5t-175 -65.5z" />
    <glyph glyph-name="six.posf" horiz-adv-x="613" 
d="M538 248q0 -105 -68 -181.5t-180 -76.5q-98 0 -162 67t-64 201q0 116 38.5 217.5t117 168t181.5 66.5q87 0 144 -48t64 -127h-65q-8 55 -48.5 87.5t-103.5 32.5q-95 0 -164.5 -81t-94.5 -216q62 103 191 103q93 0 153.5 -59t60.5 -154zM129 223q0 -79 44 -128.5
t117 -49.5q81 0 132 57t51 139q0 75 -40 120t-115 45q-83 0 -136 -50t-53 -133z" />
    <glyph glyph-name="seven.posf" horiz-adv-x="506" 
d="M145 -200h-65l3 44q9 127 51.5 245.5t121 215t179.5 140.5h-386l11 55h467l-15 -70q-164 -69 -255 -225.5t-110 -381.5z" />
    <glyph glyph-name="eight.posf" horiz-adv-x="562" 
d="M245 -10q-86 0 -140 48.5t-54 131.5q0 62 45.5 116t113.5 67q-43 17 -72.5 57t-29.5 95q0 94 67 149.5t167 55.5q88 0 147.5 -50t59.5 -137q0 -74 -53 -127t-122 -63q43 -22 67.5 -61t24.5 -86q0 -81 -60.5 -138.5t-160.5 -57.5zM316 373q66 0 117 38.5t51 108.5
q0 66 -41.5 100.5t-106.5 34.5q-71 0 -117 -41t-46 -111q0 -61 43 -95.5t100 -34.5zM251 45q65 0 107.5 41.5t42.5 105.5q0 55 -38 90.5t-96 35.5q-65 0 -108 -41.5t-43 -105.5q0 -55 38 -90.5t97 -35.5z" />
    <glyph glyph-name="nine.posf" horiz-adv-x="602" 
d="M461 277q0 79 -44 128.5t-117 49.5q-81 0 -132 -57t-51 -139q0 -75 40 -120t115 -45q83 0 136 50t53 133zM189 -210q-87 0 -144 48t-64 127h65q8 -55 48.5 -87.5t103.5 -32.5q95 0 164.5 81t94.5 216q-62 -103 -191 -103q-93 0 -153.5 59t-60.5 154q0 105 68 181.5
t180 76.5q98 0 162 -67t64 -201q0 -116 -38.5 -217.5t-117 -168t-181.5 -66.5z" />
    <glyph glyph-name="zero.numerator" horiz-adv-x="407" 
d="M83 473q0 103 51.5 167.5t130.5 64.5q71 0 110 -47t39 -127q0 -103 -51 -167t-128 -64q-73 0 -112.5 46t-39.5 127zM353 529q0 55 -22 90.5t-68 35.5q-49 0 -84 -49t-35 -130q0 -126 93 -126q47 0 81.5 49.5t34.5 129.5z" />
    <glyph glyph-name="one.numerator" horiz-adv-x="259" 
d="M200 305h-58l65 309l-136 -92l13 64l161 114h39z" />
    <glyph glyph-name="two.numerator" horiz-adv-x="359" 
d="M336 305h-279l12 60l139 97q5 3 20.5 13.5t21.5 15.5t18.5 15t18.5 17t13 17.5t10 21.5t3 23q0 28 -20 49t-55 21q-34 0 -57.5 -19.5t-26.5 -49.5h-62q3 50 44 84.5t107 34.5q55 0 93 -32.5t38 -85.5q0 -48 -26.5 -80t-80.5 -68l-125 -84h204z" />
    <glyph glyph-name="three.numerator" horiz-adv-x="351" 
d="M59 413h61q1 -30 22.5 -46.5t56.5 -16.5q34 0 56 19.5t22 49.5q0 26 -19 42.5t-49 16.5h-46l11 55h51q38 0 60 17t22 45q0 30 -19 45t-48 15q-32 0 -52.5 -16.5t-24.5 -43.5h-61q3 49 41.5 79.5t97.5 30.5q57 0 92 -29.5t35 -76.5q0 -39 -25.5 -66t-62.5 -33
q24 -10 40.5 -33.5t16.5 -50.5q0 -48 -39 -82t-101 -34q-66 0 -101.5 33t-36.5 80z" />
    <glyph glyph-name="four.numerator" horiz-adv-x="353" 
d="M242 448l39 185l-170 -185h131zM348 401h-57l-20 -96h-59l20 96h-186l12 56l223 243h74l-54 -252h58z" />
    <glyph glyph-name="five.numerator" horiz-adv-x="340" 
d="M198 300q-61 0 -98 31t-37 80h61q2 -28 22 -44.5t51 -16.5q35 0 57 22t22 59q1 28 -18.5 49t-54.5 21q-46 0 -76 -36h-60l95 235h202l-11 -50h-150l-53 -126q27 27 73 27q52 0 83 -33.5t31 -85.5q0 -55 -37 -93.5t-102 -38.5z" />
    <glyph glyph-name="six.numerator" horiz-adv-x="374" 
d="M405 596h-61q-2 29 -22 44t-51 15q-44 0 -77.5 -35.5t-50.5 -96.5q16 21 44 34t56 13q55 0 88.5 -32.5t32.5 -82.5q-1 -61 -44 -108t-112 -47q-59 0 -94.5 40.5t-35.5 120.5q0 98 58 171t143 73q59 0 92.5 -31t33.5 -78zM139 429q0 -34 21 -56.5t53 -22.5q39 0 64.5 28
t25.5 70q0 32 -19.5 52t-50.5 20q-38 0 -66 -26.5t-28 -64.5z" />
    <glyph glyph-name="seven.numerator" horiz-adv-x="300" 
d="M166 305h-61q0 73 18 135.5t46.5 103.5t57.5 67t58 39h-192l11 50h267l-11 -52q-82 -33 -138 -121t-56 -222z" />
    <glyph glyph-name="eight.numerator" horiz-adv-x="365" 
d="M206 300q-56 0 -95 27.5t-39 75.5q0 39 26 66t67 37q-62 27 -62 87q0 49 41.5 80.5t105.5 31.5q60 0 100 -28.5t40 -77.5q0 -40 -30 -70t-74 -36q56 -23 56 -85q0 -49 -39.5 -78.5t-96.5 -29.5zM247 655q-38 0 -60.5 -19t-22.5 -50q0 -24 21 -41t61 -17q38 0 60.5 17.5
t22.5 49.5q0 27 -22 43.5t-60 16.5zM133 408q0 -25 19.5 -41.5t54.5 -16.5q34 0 54 19t20 49q0 28 -19.5 44t-51.5 16q-35 0 -56 -18.5t-21 -51.5z" />
    <glyph glyph-name="nine.numerator" horiz-adv-x="375" 
d="M334 576q0 34 -21 56.5t-53 22.5q-39 0 -64.5 -28t-25.5 -70q0 -33 20 -52.5t50 -19.5q38 0 66 26.5t28 64.5zM68 409h61q2 -29 22 -44t51 -15q44 0 77.5 35.5t50.5 96.5q-16 -21 -44 -34t-56 -13q-55 0 -88.5 32.5t-32.5 82.5q1 61 44 108t112 47q59 0 94.5 -40.5
t35.5 -120.5q0 -98 -58 -171t-143 -73q-59 0 -92.5 31t-33.5 78z" />
    <glyph glyph-name="zero.denominator" horiz-adv-x="407" 
d="M18 168q0 103 51.5 167.5t130.5 64.5q71 0 110 -47t39 -127q0 -103 -51 -167t-128 -64q-73 0 -112.5 46t-39.5 127zM288 224q0 55 -22 90.5t-68 35.5q-49 0 -84 -49t-35 -130q0 -126 93 -126q47 0 81.5 49.5t34.5 129.5z" />
    <glyph glyph-name="one.denominator" horiz-adv-x="259" 
d="M135 0h-58l65 309l-136 -92l13 64l161 114h39z" />
    <glyph glyph-name="two.denominator" horiz-adv-x="359" 
d="M271 0h-279l12 60l139 97q5 3 20.5 13.5t21.5 15.5t18.5 15t18.5 17t13 17.5t10 21.5t3 23q0 28 -20 49t-55 21q-34 0 -57.5 -19.5t-26.5 -49.5h-62q3 50 44 84.5t107 34.5q55 0 93 -32.5t38 -85.5q0 -48 -26.5 -80t-80.5 -68l-125 -84h204z" />
    <glyph glyph-name="three.denominator" horiz-adv-x="351" 
d="M-6 108h61q1 -30 22.5 -46.5t56.5 -16.5q34 0 56 19.5t22 49.5q0 26 -19 42.5t-49 16.5h-46l11 55h51q38 0 60 17t22 45q0 30 -19 45t-48 15q-32 0 -52.5 -16.5t-24.5 -43.5h-61q3 49 41.5 79.5t97.5 30.5q57 0 92 -29.5t35 -76.5q0 -39 -25.5 -66t-62.5 -33
q24 -10 40.5 -33.5t16.5 -50.5q0 -48 -39 -82t-101 -34q-66 0 -101.5 33t-36.5 80z" />
    <glyph glyph-name="four.denominator" horiz-adv-x="353" 
d="M177 143l39 185l-170 -185h131zM283 96h-57l-20 -96h-59l20 96h-186l12 56l223 243h74l-54 -252h58z" />
    <glyph glyph-name="five.denominator" horiz-adv-x="340" 
d="M134 -5q-61 0 -98 31t-37 80h61q2 -28 22 -44.5t51 -16.5q35 0 57 22t22 59q1 28 -18.5 49t-54.5 21q-46 0 -76 -36h-60l95 235h202l-11 -50h-150l-53 -126q27 27 73 27q52 0 83 -33.5t31 -85.5q0 -55 -37 -93.5t-102 -38.5z" />
    <glyph glyph-name="six.denominator" horiz-adv-x="374" 
d="M340 291h-61q-2 29 -22 44t-51 15q-44 0 -77.5 -35.5t-50.5 -96.5q16 21 44 34t56 13q55 0 88.5 -32.5t32.5 -82.5q-1 -61 -44 -108t-112 -47q-59 0 -94.5 40.5t-35.5 120.5q0 98 58 171t143 73q59 0 92.5 -31t33.5 -78zM74 124q0 -34 21 -56.5t53 -22.5q39 0 64.5 28
t25.5 70q0 33 -20 52.5t-50 19.5q-38 0 -66 -26.5t-28 -64.5z" />
    <glyph glyph-name="seven.denominator" horiz-adv-x="300" 
d="M101 0h-61q0 73 18 135.5t46.5 103.5t57.5 67t58 39h-192l11 50h267l-11 -52q-82 -33 -138 -121t-56 -222z" />
    <glyph glyph-name="eight.denominator" horiz-adv-x="365" 
d="M141 -5q-56 0 -95 27.5t-39 75.5q0 39 26 66t67 37q-62 27 -62 87q0 49 41.5 80.5t105.5 31.5q60 0 100 -28.5t40 -77.5q0 -40 -30 -70t-74 -36q56 -23 56 -85q0 -49 -39.5 -78.5t-96.5 -29.5zM182 350q-38 0 -60.5 -19t-22.5 -50q0 -24 21 -41t61 -17q38 0 60.5 17.5
t22.5 49.5q0 27 -22 43.5t-60 16.5zM68 103q0 -25 19.5 -41.5t54.5 -16.5q34 0 54 19t20 49q0 28 -19.5 44t-51.5 16q-35 0 -56 -18.5t-21 -51.5z" />
    <glyph glyph-name="nine.denominator" horiz-adv-x="375" 
d="M269 271q0 34 -21 56.5t-53 22.5q-39 0 -64.5 -28t-25.5 -70q0 -32 19.5 -52t50.5 -20q38 0 66 26.5t28 64.5zM3 104h61q2 -29 22 -44t51 -15q44 0 77.5 35.5t50.5 96.5q-16 -21 -44 -34t-56 -13q-55 0 -88.5 32.5t-32.5 82.5q1 61 44 108t112 47q59 0 94.5 -40.5
t35.5 -120.5q0 -98 -58 -171t-143 -73q-59 0 -92.5 31t-33.5 78z" />
    <glyph glyph-name="zero.slashed" horiz-adv-x="654" 
d="M64 261q0 54 10 111.5t34.5 118.5t61 109t94.5 79t129 31q103 0 162.5 -72t59.5 -198q0 -54 -10 -111.5t-34.5 -119t-61 -109.5t-94.5 -79t-129 -31q-103 0 -162.5 72.5t-59.5 198.5zM132 264q0 -46 11 -88l372 399q-43 70 -128 70q-106 0 -180.5 -111.5t-74.5 -269.5z
M294 55q105 0 179 111.5t74 269.5q0 41 -7 73l-368 -395q43 -59 122 -59z" />
    <glyph glyph-name="zero.slashed.posf" horiz-adv-x="621" 
d="M284 -10q-106 0 -172 69.5t-66 168.5q0 118 78.5 200t196.5 82q105 0 170.5 -69.5t65.5 -171.5q0 -117 -77 -198t-196 -81zM111 228q0 -64 29 -108l283 303q-46 32 -108 32q-89 0 -146.5 -64.5t-57.5 -162.5zM294 45q87 0 142.5 62.5t55.5 161.5q0 65 -30 112l-283 -302
q46 -34 115 -34z" />
    <glyph glyph-name="zero.slashed.tnum" 
d="M47 260q0 53 10 111t34 119.5t59 109.5t90 79t121 31q99 0 158 -72t59 -198q0 -54 -9.5 -111.5t-33.5 -119t-58.5 -109.5t-89.5 -79t-123 -31q-103 0 -160 71.5t-57 198.5zM115 264q0 -47 8 -80l358 385q-40 76 -120 76q-63 0 -113 -40.5t-77.5 -102.5t-41.5 -123.5
t-14 -114.5zM270 55q49 0 91 27.5t68.5 69.5t45.5 94.5t27 101.5t8 92q0 32 -6 61l-356 -383q39 -63 122 -63z" />
    <glyph glyph-name="zero.slashed.inferior" horiz-adv-x="406" 
d="M-7 53q0 103 51.5 167.5t130.5 64.5q71 0 110 -47t39 -127q0 -103 -51 -167t-128 -64q-73 0 -112.5 46t-39.5 127zM54 56q0 -26 4 -45l179 193q-23 31 -64 31q-49 0 -84 -49t-35 -130zM147 -70q47 0 81.5 49.5t34.5 129.5q0 23 -4 42l-178 -193q23 -28 66 -28z" />
    <glyph glyph-name="zero.slashed.superior" horiz-adv-x="407" 
d="M106 583q0 103 51.5 167.5t130.5 64.5q71 0 110 -47t39 -127q0 -103 -51 -167t-128 -64q-73 0 -112.5 46t-39.5 127zM167 586q0 -26 4 -45l179 193q-23 31 -64 31q-49 0 -84 -49t-35 -130zM260 460q47 0 81.5 49.5t34.5 129.5q0 23 -4 42l-178 -193q23 -28 66 -28z" />
    <glyph glyph-name="zero.slashed.numerator" horiz-adv-x="408" 
d="M84 474q0 103 51.5 167.5t130.5 64.5q71 0 110 -47t39 -127q0 -103 -51 -167t-128 -64q-73 0 -112.5 46t-39.5 127zM145 477q0 -26 4 -45l179 193q-23 31 -64 31q-49 0 -84 -49t-35 -130zM238 351q47 0 81.5 49.5t34.5 129.5q0 23 -4 42l-178 -193q23 -28 66 -28z" />
    <glyph glyph-name="zero.slashed.denominator" horiz-adv-x="407" 
d="M19 169q0 103 51.5 167.5t130.5 64.5q71 0 110 -47t39 -127q0 -103 -51 -167t-128 -64q-73 0 -112.5 46t-39.5 127zM80 172q0 -26 4 -45l179 193q-23 31 -64 31q-49 0 -84 -49t-35 -130zM173 46q47 0 81.5 49.5t34.5 129.5q0 23 -4 42l-178 -193q23 -28 66 -28z" />
    <glyph glyph-name="hyphen.case" horiz-adv-x="402" 
d="M80 323l12 55h250l-12 -55h-250z" />
    <glyph glyph-name="endash.case" horiz-adv-x="582" 
d="M80 323l12 55h430l-12 -55h-430z" />
    <glyph glyph-name="emdash.case" horiz-adv-x="902" 
d="M80 323l12 55h750l-12 -55h-750z" />
    <glyph glyph-name="parenleft.case" horiz-adv-x="346" 
d="M375 645q-101 -8 -170 -109t-69 -250q0 -91 26.5 -147t87.5 -84l-14 -65q-70 20 -120 90.5t-50 202.5q0 112 40.5 209.5t115.5 157.5t167 60z" />
    <glyph glyph-name="parenright.case" horiz-adv-x="347" 
d="M-4 55q101 8 170 109t69 250q0 91 -26.5 147t-87.5 84l14 65q70 -20 120 -90.5t50 -202.5q0 -112 -40.5 -209.5t-115.5 -157.5t-167 -60z" />
    <glyph glyph-name="bracketleft.case" horiz-adv-x="333" 
d="M37 0l149 700h185l-14 -65h-115l-121 -570h115l-14 -65h-185z" />
    <glyph glyph-name="bracketright.case" horiz-adv-x="334" 
d="M322 700l-149 -700h-185l14 65h115l121 570h-115l14 65h185z" />
    <glyph glyph-name="braceleft.case" horiz-adv-x="366" 
d="M127 360l-5 -20h6q88 0 68 -92l-20 -95q-10 -46 5 -67t62 -21h27l-14 -65h-39q-64 0 -94 41t-16 107l20 92q4 20 -2 30t-29 10h-45l27 140h48q22 0 32 13t18 48l19 86q15 70 47.5 101.5t84.5 31.5h75l-14 -65h-37q-42 0 -62 -19.5t-31 -68.5l-23 -110q-8 -41 -28 -59
t-56 -18h-24z" />
    <glyph glyph-name="braceright.case" horiz-adv-x="366" 
d="M264 340l5 20h-6q-88 0 -68 92l20 95q10 46 -5 67t-62 21h-27l14 65h39q64 0 94 -41t16 -107l-20 -92q-4 -20 2 -30t29 -10h45l-27 -140h-48q-22 0 -32 -13t-18 -48l-19 -86q-15 -70 -47.5 -101.5t-84.5 -31.5h-75l14 65h37q42 0 62 19.5t31 68.5l23 110q8 41 28 59
t56 18h24z" />
    <glyph glyph-name="guilsinglleft.case" horiz-adv-x="343" 
d="M233 135h-69l-99 215l190 215h81l-199 -224z" />
    <glyph glyph-name="guilsinglright.case" horiz-adv-x="340" 
d="M112 135h-81l198 224l-96 206h69l99 -215z" />
    <glyph glyph-name="guillemotleft.case" horiz-adv-x="568" 
d="M458 135h-69l-99 215l190 215h81l-199 -224zM233 135h-69l-99 215l190 215h81l-199 -224z" />
    <glyph glyph-name="guillemotright.case" horiz-adv-x="550" 
d="M322 135h-81l198 224l-96 206h69l99 -215zM112 135h-81l198 224l-96 206h69l99 -215z" />
    <glyph glyph-name="exclamdown.case" horiz-adv-x="256" 
d="M245 700l-17 -85h-75l17 85h75zM186 510l-36 -286l-48 -224h-70l48 224l84 286h22z" />
    <glyph glyph-name="questiondown.case" horiz-adv-x="450" 
d="M405 700l-17 -85h-75l17 85h75zM364 495l-25 -118q-13 -52 -38 -70t-67 -18h-10q-64 0 -102.5 -34.5t-38.5 -88.5t33.5 -77.5t99.5 -23.5h151l-14 -65h-145q-91 0 -142 42t-51 121q0 81 57.5 136t146.5 55q44 0 53 40l24 101h68z" />
    <glyph glyph-name="acute.case" horiz-adv-x="206" 
d="M55 765l53 125h90l-83 -125h-60z" />
    <glyph glyph-name="grave.case" horiz-adv-x="213" 
d="M155 890l53 -125h-60l-83 125h90z" />
    <glyph glyph-name="hungarumlaut.case" horiz-adv-x="344" 
d="M142 765l53 125h90l-83 -125h-60zM-22 765l53 125h90l-83 -125h-60z" />
    <glyph glyph-name="circumflex.case" horiz-adv-x="355" 
d="M272 765l-82 73l-123 -73h-68l150 125h90l99 -125h-66z" />
    <glyph glyph-name="caron.case" horiz-adv-x="355" 
d="M175 760h-90l-99 125h66l82 -73l123 73h68z" />
    <glyph glyph-name="breve.case" horiz-adv-x="360" 
d="M169 755q-64 0 -101 37.5t-28 97.5h55q-5 -37 16 -58.5t59 -21.5q35 0 64.5 20t40.5 60h55q-8 -63 -54 -99t-107 -36z" />
    <glyph glyph-name="tilde.case" horiz-adv-x="393" 
d="M204 783l-37 22q-31 19 -47 19q-17 0 -26 -11.5t-15 -42.5h-55l3 14q12 53 32.5 76.5t59.5 23.5q26 0 70 -25l39 -23q26 -16 40 -16q34 0 46 54h55l-3 -15q-9 -46 -33 -72.5t-60 -26.5q-29 0 -69 23z" />
    <glyph glyph-name="macron.case" horiz-adv-x="352" 
d="M41 780l11 55h276l-11 -55h-276z" />
    <glyph glyph-name="dieresis.case" horiz-adv-x="346" 
d="M32 780l17 80h80l-17 -80h-80zM218 780l17 80h80l-17 -80h-80z" />
    <glyph glyph-name="dotaccent.case" horiz-adv-x="156" 
d="M31 780l17 85h75l-17 -85h-75z" />
    <glyph glyph-name="ring.case" horiz-adv-x="268" 
d="M50 840q0 33 24 56t55 23t55 -23t24 -56q0 -34 -23.5 -56.5t-55.5 -22.5t-55.5 22.5t-23.5 56.5zM130 874q-14 0 -24 -10t-10 -24t10 -24t24 -10q13 0 23 10t10 24t-10 24t-23 10z" />
    <glyph glyph-name="edgeleft.case" horiz-adv-x="372" 
d="M253 0h-74q-50 0 -81.5 33t-31.5 79q0 33 17.5 63.5t46.5 46.5q-66 40 -66 119q0 53 35.5 95t87.5 56q-31 31 -31 74q0 55 44 94.5t104 39.5h98l-15 -70h-88q-33 0 -55.5 -19t-22.5 -49q0 -24 16.5 -40.5t42.5 -16.5h32l-14 -65h-54q-47 0 -78.5 -28.5t-31.5 -72.5
q0 -38 21.5 -58.5t54.5 -20.5h51l-13 -65h-41q-30 0 -53 -19t-23 -57q0 -20 15 -34.5t40 -14.5h82z" />
    <glyph glyph-name="edgeright.case" horiz-adv-x="372" 
d="M144 700h74q50 0 81.5 -33t31.5 -79q0 -33 -17.5 -63.5t-46.5 -46.5q66 -40 66 -119q0 -53 -35.5 -95t-87.5 -56q31 -31 31 -74q0 -55 -44 -94.5t-104 -39.5h-98l15 70h88q33 0 55.5 19t22.5 49q0 24 -16.5 40.5t-42.5 16.5h-32l14 65h54q47 0 78.5 28.5t31.5 72.5
q0 38 -21.5 58.5t-54.5 20.5h-51l13 65h41q30 0 53 19t23 57q0 20 -15 34.5t-40 14.5h-82z" />
    <glyph glyph-name="ringacute.case" horiz-adv-x="255" 
d="M113 928l39 88h70l-60 -88h-49zM49 828q0 29 20.5 49t48.5 20t48.5 -20t20.5 -49t-20.5 -49t-48.5 -20t-48.5 20t-20.5 49zM119 852q-10 0 -17 -7t-7 -17t7 -17t17 -7q9 0 16 7t7 17t-7 17t-16 7z" />
    <glyph glyph-name="G.ss02" horiz-adv-x="729" 
d="M592 227l13 58h-217l13 65h289l-28 -135q-22 -106 -103.5 -165.5t-196.5 -59.5q-130 0 -213 87.5t-83 222.5q0 176 101.5 293t266.5 117q109 0 183.5 -64t81.5 -171h-70q-7 79 -63 124.5t-136 45.5q-136 0 -215 -97t-79 -243q0 -109 65.5 -179.5t171.5 -70.5
q81 0 140.5 44.5t78.5 127.5z" />
    <glyph glyph-name="Gcircumflex.ss02" horiz-adv-x="729" 
d="M537 765l-82 73l-123 -73h-68l150 125h90l99 -125h-66zM592 227l13 58h-217l13 65h289l-28 -135q-22 -106 -103.5 -165.5t-196.5 -59.5q-130 0 -213 87.5t-83 222.5q0 176 101.5 293t266.5 117q109 0 183.5 -64t81.5 -171h-70q-7 79 -63 124.5t-136 45.5q-136 0 -215 -97
t-79 -243q0 -109 65.5 -179.5t171.5 -70.5q81 0 140.5 44.5t78.5 127.5z" />
    <glyph glyph-name="Gbreve.ss02" horiz-adv-x="729" 
d="M447 755q-64 0 -101 37.5t-28 97.5h55q-5 -37 16 -58.5t59 -21.5q35 0 64.5 20t40.5 60h55q-8 -63 -54 -99t-107 -36zM592 227l13 58h-217l13 65h289l-28 -135q-22 -106 -103.5 -165.5t-196.5 -59.5q-130 0 -213 87.5t-83 222.5q0 176 101.5 293t266.5 117
q109 0 183.5 -64t81.5 -171h-70q-7 79 -63 124.5t-136 45.5q-136 0 -215 -97t-79 -243q0 -109 65.5 -179.5t171.5 -70.5q81 0 140.5 44.5t78.5 127.5z" />
    <glyph glyph-name="Gdotaccent.ss02" horiz-adv-x="729" 
d="M401 780l17 85h75l-17 -85h-75zM592 227l13 58h-217l13 65h289l-28 -135q-22 -106 -103.5 -165.5t-196.5 -59.5q-130 0 -213 87.5t-83 222.5q0 176 101.5 293t266.5 117q109 0 183.5 -64t81.5 -171h-70q-7 79 -63 124.5t-136 45.5q-136 0 -215 -97t-79 -243
q0 -109 65.5 -179.5t171.5 -70.5q81 0 140.5 44.5t78.5 127.5z" />
    <glyph glyph-name="Gcommaaccent.ss02" horiz-adv-x="729" 
d="M592 227l13 58h-217l13 65h289l-28 -135q-22 -106 -103.5 -165.5t-196.5 -59.5q-130 0 -213 87.5t-83 222.5q0 176 101.5 293t266.5 117q109 0 183.5 -64t81.5 -171h-70q-7 79 -63 124.5t-136 45.5q-136 0 -215 -97t-79 -243q0 -109 65.5 -179.5t171.5 -70.5
q81 0 140.5 44.5t78.5 127.5zM392 -159q-10 -47 -30.5 -69t-60.5 -22h-12l7 35h8q40 0 50 42l2 8h-30l16 75h65z" />
    <glyph glyph-name="R.ss02" horiz-adv-x="688" 
d="M235 635l-56 -275h196q82 0 134 42.5t52 110.5q0 57 -38.5 89.5t-108.5 32.5h-179zM105 0h-69l149 700h238q92 0 150 -47.5t58 -127.5q0 -67 -43 -122t-112 -72q74 -15 87 -98l35 -233h-72l-29 209q-7 52 -31 69t-89 17h-212z" />
    <glyph glyph-name="Racute.ss02" horiz-adv-x="688" 
d="M348 765l53 125h90l-83 -125h-60zM235 635l-56 -275h196q82 0 134 42.5t52 110.5q0 57 -38.5 89.5t-108.5 32.5h-179zM105 0h-69l149 700h238q92 0 150 -47.5t58 -127.5q0 -67 -43 -122t-112 -72q74 -15 87 -98l35 -233h-72l-29 209q-7 52 -31 69t-89 17h-212z" />
    <glyph glyph-name="Rcommaaccent.ss02" horiz-adv-x="688" 
d="M235 635l-56 -275h196q82 0 134 42.5t52 110.5q0 57 -38.5 89.5t-108.5 32.5h-179zM105 0h-69l149 700h238q92 0 150 -47.5t58 -127.5q0 -67 -43 -122t-112 -72q74 -15 87 -98l35 -233h-72l-29 209q-7 52 -31 69t-89 17h-212zM311 -159q-10 -47 -30.5 -69t-60.5 -22h-12
l7 35h8q40 0 50 42l2 8h-30l16 75h65z" />
    <glyph glyph-name="Rcaron.ss02" horiz-adv-x="688" 
d="M433 760h-90l-99 125h66l82 -73l123 73h68zM235 635l-56 -275h196q82 0 134 42.5t52 110.5q0 57 -38.5 89.5t-108.5 32.5h-179zM105 0h-69l149 700h238q92 0 150 -47.5t58 -127.5q0 -67 -43 -122t-112 -72q74 -15 87 -98l35 -233h-72l-29 209q-7 52 -31 69t-89 17h-212z
" />
    <glyph glyph-name="a.ss01" horiz-adv-x="519" 
d="M177 45q62 -2 117 42.5t70 112.5l10 45h-152q-64 0 -103.5 -28.5t-39.5 -78.5q0 -42 27 -67t71 -26zM323 0l15 72q-61 -82 -170 -82q-65 0 -108 38.5t-43 104.5q0 72 56 119.5t144 47.5h170q7 31 7 48q0 47 -35 77t-88 30h-5q-49 0 -86 -25.5t-46 -69.5h-65
q10 66 66.5 108t139.5 42q76 0 126.5 -42t50.5 -113q0 -28 -7 -63l-62 -292h-60z" />
    <glyph glyph-name="agrave.ss01" horiz-adv-x="519" 
d="M261 700l57 -130h-49l-88 130h80zM177 45q62 -2 117 42.5t70 112.5l10 45h-152q-64 0 -103.5 -28.5t-39.5 -78.5q0 -42 27 -67t71 -26zM323 0l15 72q-61 -82 -170 -82q-65 0 -108 38.5t-43 104.5q0 72 56 119.5t144 47.5h170q7 31 7 48q0 47 -35 77t-88 30h-5
q-49 0 -86 -25.5t-46 -69.5h-65q10 66 66.5 108t139.5 42q76 0 126.5 -42t50.5 -113q0 -28 -7 -63l-62 -292h-60z" />
    <glyph glyph-name="aacute.ss01" horiz-adv-x="519" 
d="M265 570l57 130h80l-88 -130h-49zM177 45q62 -2 117 42.5t70 112.5l10 45h-152q-64 0 -103.5 -28.5t-39.5 -78.5q0 -42 27 -67t71 -26zM323 0l15 72q-61 -82 -170 -82q-65 0 -108 38.5t-43 104.5q0 72 56 119.5t144 47.5h170q7 31 7 48q0 47 -35 77t-88 30h-5
q-49 0 -86 -25.5t-46 -69.5h-65q10 66 66.5 108t139.5 42q76 0 126.5 -42t50.5 -113q0 -28 -7 -63l-62 -292h-60z" />
    <glyph glyph-name="acircumflex.ss01" horiz-adv-x="519" 
d="M378 570l-70 73l-105 -73h-60l137 130h66l92 -130h-60zM177 45q62 -2 117 42.5t70 112.5l10 45h-152q-64 0 -103.5 -28.5t-39.5 -78.5q0 -42 27 -67t71 -26zM323 0l15 72q-61 -82 -170 -82q-65 0 -108 38.5t-43 104.5q0 72 56 119.5t144 47.5h170q7 31 7 48q0 47 -35 77
t-88 30h-5q-49 0 -86 -25.5t-46 -69.5h-65q10 66 66.5 108t139.5 42q76 0 126.5 -42t50.5 -113q0 -28 -7 -63l-62 -292h-60z" />
    <glyph glyph-name="atilde.ss01" horiz-adv-x="519" 
d="M220 635q-32 0 -44 -49l-4 -16h-50l4 19q8 40 30.5 68t61.5 28q29 0 72 -27l36 -23q33 -20 46 -20q32 0 46 50l4 15h50l-4 -18q-9 -40 -32 -68.5t-62 -28.5q-30 0 -70 27l-37 24q-28 19 -47 19zM177 45q62 -2 117 42.5t70 112.5l10 45h-152q-64 0 -103.5 -28.5
t-39.5 -78.5q0 -42 27 -67t71 -26zM323 0l15 72q-61 -82 -170 -82q-65 0 -108 38.5t-43 104.5q0 72 56 119.5t144 47.5h170q7 31 7 48q0 47 -35 77t-88 30h-5q-49 0 -86 -25.5t-46 -69.5h-65q10 66 66.5 108t139.5 42q76 0 126.5 -42t50.5 -113q0 -28 -7 -63l-62 -292h-60z
" />
    <glyph glyph-name="adieresis.ss01" horiz-adv-x="519" 
d="M167 590l17 80h75l-17 -80h-75zM352 590l17 80h75l-17 -80h-75zM177 45q62 -2 117 42.5t70 112.5l10 45h-152q-64 0 -103.5 -28.5t-39.5 -78.5q0 -42 27 -67t71 -26zM323 0l15 72q-61 -82 -170 -82q-65 0 -108 38.5t-43 104.5q0 72 56 119.5t144 47.5h170q7 31 7 48
q0 47 -35 77t-88 30h-5q-49 0 -86 -25.5t-46 -69.5h-65q10 66 66.5 108t139.5 42q76 0 126.5 -42t50.5 -113q0 -28 -7 -63l-62 -292h-60z" />
    <glyph glyph-name="aring.ss01" horiz-adv-x="519" 
d="M231 645q0 35 25 59.5t59 24.5t59 -24.5t25 -59.5q0 -36 -25 -60t-59 -24t-59 24t-25 60zM316 689q-18 0 -31 -13t-13 -31t13 -31t31 -13t30.5 13t12.5 31t-12.5 31t-30.5 13zM177 45q62 -2 117 42.5t70 112.5l10 45h-152q-64 0 -103.5 -28.5t-39.5 -78.5q0 -42 27 -67
t71 -26zM323 0l15 72q-61 -82 -170 -82q-65 0 -108 38.5t-43 104.5q0 72 56 119.5t144 47.5h170q7 31 7 48q0 47 -35 77t-88 30h-5q-49 0 -86 -25.5t-46 -69.5h-65q10 66 66.5 108t139.5 42q76 0 126.5 -42t50.5 -113q0 -28 -7 -63l-62 -292h-60z" />
    <glyph glyph-name="amacron.ss01" horiz-adv-x="519" 
d="M163 590l10 55h285l-10 -55h-285zM177 45q62 -2 117 42.5t70 112.5l10 45h-152q-64 0 -103.5 -28.5t-39.5 -78.5q0 -42 27 -67t71 -26zM323 0l15 72q-61 -82 -170 -82q-65 0 -108 38.5t-43 104.5q0 72 56 119.5t144 47.5h170q7 31 7 48q0 47 -35 77t-88 30h-5
q-49 0 -86 -25.5t-46 -69.5h-65q10 66 66.5 108t139.5 42q76 0 126.5 -42t50.5 -113q0 -28 -7 -63l-62 -292h-60z" />
    <glyph glyph-name="abreve.ss01" horiz-adv-x="519" 
d="M461 700q-17 -68 -59.5 -104t-99.5 -36q-56 0 -89.5 30t-33.5 86q0 6 2 24h50q-1 -5 -1 -15q0 -75 78 -75q77 0 103 90h50zM177 45q62 -2 117 42.5t70 112.5l10 45h-152q-64 0 -103.5 -28.5t-39.5 -78.5q0 -42 27 -67t71 -26zM323 0l15 72q-61 -82 -170 -82
q-65 0 -108 38.5t-43 104.5q0 72 56 119.5t144 47.5h170q7 31 7 48q0 47 -35 77t-88 30h-5q-49 0 -86 -25.5t-46 -69.5h-65q10 66 66.5 108t139.5 42q76 0 126.5 -42t50.5 -113q0 -28 -7 -63l-62 -292h-60z" />
    <glyph glyph-name="aogonek.ss01" horiz-adv-x="519" 
d="M177 45q62 -2 117 42.5t70 112.5l10 45h-152q-64 0 -103.5 -28.5t-39.5 -78.5q0 -42 27 -67t71 -26zM367 -140l-11 -55h-41q-98 0 -98 77q0 38 32.5 71.5t74.5 50.5l14 68q-61 -82 -170 -82q-65 0 -108 38.5t-43 104.5q0 72 56 119.5t144 47.5h170q7 31 7 48q0 47 -35 77
t-88 30h-5q-49 0 -86 -25.5t-46 -69.5h-65q10 66 66.5 108t139.5 42q76 0 126.5 -42t50.5 -113q0 -28 -7 -63l-62 -292q-43 -19 -72 -46t-29 -55q0 -39 49 -39h36z" />
    <glyph glyph-name="aringacute.ss01" horiz-adv-x="519" 
d="M288 766l57 130h80l-88 -130h-49zM214 645q0 40 28.5 67.5t66.5 27.5t66.5 -27.5t28.5 -67.5t-28.5 -67.5t-66.5 -27.5t-66.5 27.5t-28.5 67.5zM310 689q-18 0 -31 -13t-13 -31t13 -31t31 -13t30.5 13t12.5 31t-12.5 31t-30.5 13zM177 45q62 -2 117 42.5t70 112.5l10 45
h-152q-64 0 -103.5 -28.5t-39.5 -78.5q0 -42 27 -67t71 -26zM323 0l15 72q-61 -82 -170 -82q-65 0 -108 38.5t-43 104.5q0 72 56 119.5t144 47.5h170q7 31 7 48q0 47 -35 77t-88 30h-5q-49 0 -86 -25.5t-46 -69.5h-65q10 66 66.5 108t139.5 42q76 0 126.5 -42t50.5 -113
q0 -28 -7 -63l-62 -292h-60z" />
    <glyph glyph-name="uni1EA1.ss01" horiz-adv-x="519" 
d="M177 45q62 -2 117 42.5t70 112.5l10 45h-152q-64 0 -103.5 -28.5t-39.5 -78.5q0 -42 27 -67t71 -26zM323 0l15 72q-61 -82 -170 -82q-65 0 -108 38.5t-43 104.5q0 72 56 119.5t144 47.5h170q7 31 7 48q0 47 -35 77t-88 30h-5q-49 0 -86 -25.5t-46 -69.5h-65
q10 66 66.5 108t139.5 42q76 0 126.5 -42t50.5 -113q0 -28 -7 -63l-62 -292h-60zM138 -165l16 75h65l-16 -75h-65z" />
    <glyph glyph-name="uni0227.ss01" horiz-adv-x="519" 
d="M255 590l17 85h75l-17 -85h-75zM177 45q62 -2 117 42.5t70 112.5l10 45h-152q-64 0 -103.5 -28.5t-39.5 -78.5q0 -42 27 -67t71 -26zM323 0l15 72q-61 -82 -170 -82q-65 0 -108 38.5t-43 104.5q0 72 56 119.5t144 47.5h170q7 31 7 48q0 47 -35 77t-88 30h-5
q-49 0 -86 -25.5t-46 -69.5h-65q10 66 66.5 108t139.5 42q76 0 126.5 -42t50.5 -113q0 -28 -7 -63l-62 -292h-60z" />
    <glyph glyph-name="y.ss03" horiz-adv-x="518" 
d="M59 -155h-130l12 55h109q32 0 54 16.5t45 54.5l18 30l-109 499h68l88 -424l261 424h72l-354 -566q-30 -47 -60.5 -68t-73.5 -21z" />
    <glyph glyph-name="yacute.ss03" horiz-adv-x="518" 
d="M273 570l57 130h80l-88 -130h-49zM59 -155h-130l12 55h109q32 0 54 16.5t45 54.5l18 30l-109 499h68l88 -424l261 424h72l-354 -566q-30 -47 -60.5 -68t-73.5 -21z" />
    <glyph glyph-name="ycircumflex.ss03" horiz-adv-x="518" 
d="M383 570l-70 73l-105 -73h-60l137 130h66l92 -130h-60zM59 -155h-130l12 55h109q32 0 54 16.5t45 54.5l18 30l-109 499h68l88 -424l261 424h72l-354 -566q-30 -47 -60.5 -68t-73.5 -21z" />
    <glyph glyph-name="ydieresis.ss03" horiz-adv-x="518" 
d="M175 590l17 80h75l-17 -80h-75zM360 590l17 80h75l-17 -80h-75zM59 -155h-130l12 55h109q32 0 54 16.5t45 54.5l18 30l-109 499h68l88 -424l261 424h72l-354 -566q-30 -47 -60.5 -68t-73.5 -21z" />
    <glyph glyph-name="ygrave.ss03" horiz-adv-x="518" 
d="M284 700l57 -130h-49l-88 130h80zM59 -155h-130l12 55h109q32 0 54 16.5t45 54.5l18 30l-109 499h68l88 -424l261 424h72l-354 -566q-30 -47 -60.5 -68t-73.5 -21z" />
    <glyph glyph-name="ymacron.ss03" horiz-adv-x="518" 
d="M158 590l10 55h285l-10 -55h-285zM59 -155h-130l12 55h109q32 0 54 16.5t45 54.5l18 30l-109 499h68l88 -424l261 424h72l-354 -566q-30 -47 -60.5 -68t-73.5 -21z" />
    <glyph glyph-name="a.inferior" horiz-adv-x="347" 
d="M94 -75q41 0 65.5 37t23.5 88q-1 33 -18.5 56.5t-50.5 23.5q-36 0 -59 -36t-23 -86q0 -83 62 -83zM152 -115l6 28q-33 -33 -83 -33q-48 0 -74 33.5t-26 86.5q0 71 37.5 123t97.5 52q32 0 57 -17t34 -42l11 54h57l-60 -285h-57z" />
    <glyph glyph-name="b.inferior" horiz-adv-x="347" 
d="M50 280h57l-31 -143q11 15 33 26.5t47 11.5q45 0 75 -31.5t30 -87.5q0 -72 -39 -124t-104 -52q-31 0 -54.5 15.5t-29.5 42.5l-11 -53h-57zM139 130q-36 0 -61.5 -38t-25.5 -89q0 -36 16.5 -57t46.5 -21q40 0 64.5 38t24.5 87q0 80 -65 80z" />
    <glyph glyph-name="c.inferior" horiz-adv-x="313" 
d="M237 76h-57q0 22 -15 38t-42 16q-41 0 -66 -36t-25 -85q0 -40 17 -62t48 -22q25 0 42 14.5t21 38.5h57q-5 -41 -38 -69.5t-86 -28.5q-57 0 -87.5 34t-30.5 94q0 75 44 121t105 46q47 0 79.5 -26t33.5 -73z" />
    <glyph glyph-name="d.inferior" horiz-adv-x="345" 
d="M94 -75q39 0 63.5 39.5t24.5 87.5q0 36 -17 57t-47 21q-39 0 -63 -36t-24 -84q0 -85 63 -85zM234 280h57l-84 -395h-57l7 36q-33 -41 -86 -41q-47 0 -72 34.5t-25 87.5q0 70 39 121.5t100 51.5q31 0 54.5 -15.5t33.5 -35.5z" />
    <glyph glyph-name="e.inferior" horiz-adv-x="324" 
d="M170 -28h57q-29 -92 -134 -92q-54 0 -86 33.5t-32 89.5q0 65 37.5 118.5t107.5 53.5q64 0 97 -46t18 -121h-203q-4 -39 14 -61t49 -22q51 0 75 47zM116 130q-31 0 -52.5 -22.5t-26.5 -56.5h143q5 32 -12.5 55.5t-51.5 23.5z" />
    <glyph glyph-name="f.inferior" horiz-adv-x="223" 
d="M177 127h-74l-52 -242h-56l51 242h-70l9 43h70l8 38q7 32 27.5 52t50.5 20h86l-9 -41h-58q-20 0 -29 -10t-13 -30l-6 -29h74z" />
    <glyph glyph-name="g.inferior" horiz-adv-x="354" 
d="M97 -75q42 0 68 37.5t26 83.5q0 38 -19.5 61t-50.5 23q-38 0 -63.5 -35.5t-25.5 -86.5q0 -83 65 -83zM70 -235q-113 0 -118 88h57q5 -43 63 -43q71 0 87 72l8 37q-12 -17 -36 -28t-49 -11q-52 0 -79.5 36t-27.5 91q0 70 41 119t102 49q32 0 56.5 -16.5t34.5 -37.5l10 49
h57l-64 -304q-10 -47 -47.5 -74t-94.5 -27z" />
    <glyph glyph-name="h.inferior" horiz-adv-x="349" 
d="M23 -115h-57l84 395h55l-32 -151q13 19 38 32.5t53 13.5q44 0 66.5 -24.5t22.5 -63.5q0 -15 -3 -31l-34 -171h-57l32 164q3 16 3 29q0 52 -52 52q-30 0 -54.5 -27.5t-33.5 -70.5z" />
    <glyph glyph-name="i.inferior" horiz-adv-x="161" 
d="M31 217l14 63h65l-14 -63h-65zM-34 -115l60 285h57l-60 -285h-57z" />
    <glyph glyph-name="j.inferior" horiz-adv-x="161" 
d="M31 217l14 63h65l-14 -63h-65zM-69 -230h-74l10 47h46q22 0 32.5 10t16.5 39l64 304h57l-70 -330q-15 -70 -82 -70z" />
    <glyph glyph-name="k.inferior" horiz-adv-x="329" 
d="M164 -115l-62 133l-62 -49l-18 -84h-56l84 395h56l-50 -236l157 126h78l-145 -116l80 -169h-62z" />
    <glyph glyph-name="l.inferior" horiz-adv-x="160" 
d="M-34 -115l82 395h57l-84 -395h-55z" />
    <glyph glyph-name="m.inferior" horiz-adv-x="541" 
d="M55 34l-32 -149h-57l61 285h56l-9 -39q12 19 37.5 31.5t53.5 12.5q70 0 85 -56q41 56 106 56q45 0 67 -23.5t22 -62.5q0 -15 -3 -31l-35 -173h-57l33 166q3 16 3 29q0 50 -52 50q-30 0 -54.5 -26t-32.5 -65l-31 -154h-57l33 166q3 17 3 29q0 50 -52 50q-30 0 -54.5 -27
t-33.5 -69z" />
    <glyph glyph-name="n.inferior" horiz-adv-x="349" 
d="M23 -115h-57l60 285h56l-8 -39q13 19 37.5 31.5t52.5 12.5q45 0 67 -23.5t22 -62.5q0 -15 -3 -31l-34 -173h-57l32 166q3 17 3 29q0 51 -52 51q-30 0 -54 -27t-33 -70z" />
    <glyph glyph-name="o.inferior" horiz-adv-x="329" 
d="M120 175q51 0 86.5 -32t35.5 -91q0 -76 -42 -124t-103 -48q-54 0 -88 33.5t-34 90.5q0 77 42.5 124t102.5 47zM120 130q-40 0 -64 -38.5t-24 -84.5q0 -36 17 -59t49 -23q37 0 62 36t25 88q0 36 -17 58.5t-48 22.5z" />
    <glyph glyph-name="p.inferior" horiz-adv-x="345" 
d="M138 131q-38 0 -62.5 -39.5t-24.5 -86.5q0 -37 16.5 -58.5t46.5 -21.5q40 0 64 36.5t24 85.5q0 84 -64 84zM-1 -225h-57l84 395h57l-7 -33q31 38 78 38q50 0 77.5 -33.5t27.5 -88.5q0 -69 -39 -121t-100 -52q-31 0 -54.5 16.5t-32.5 37.5z" />
    <glyph glyph-name="q.inferior" horiz-adv-x="348" 
d="M185 -225h-57l31 145q-28 -40 -81 -40q-45 0 -75 31t-30 86q0 74 39 126t105 52q31 0 54 -15.5t31 -40.5l10 51h57zM92 -75q38 0 64.5 37.5t26.5 91.5q0 36 -17 56t-49 20q-39 0 -63 -38t-24 -89q0 -78 62 -78z" />
    <glyph glyph-name="r.inferior" horiz-adv-x="216" 
d="M22 -115h-56l60 285h53l-10 -50q12 26 39 40.5t59 14.5h10l-10 -51h-14q-80 0 -100 -93z" />
    <glyph glyph-name="s.inferior" horiz-adv-x="297" 
d="M217 79h-57q0 24 -15 37.5t-42 13.5q-25 0 -40 -11.5t-15 -29.5q0 -23 37 -33l39 -10q35 -10 54.5 -26t19.5 -47q0 -46 -35 -69.5t-86 -23.5q-52 0 -84 26.5t-32 71.5h57q0 -27 19.5 -40t45.5 -13q25 0 41.5 11.5t16.5 28.5q0 24 -40 34l-46 12q-64 16 -64 70
q0 43 35 68.5t82 25.5q45 0 76.5 -24t32.5 -72z" />
    <glyph glyph-name="t.inferior" horiz-adv-x="236" 
d="M140 -70l-9 -45h-67q-28 0 -43.5 17t-15.5 45q0 11 3 24l33 156h-67l9 43h68l19 90h57l-19 -90h77l-9 -43h-78l-35 -164q-2 -8 -2 -12q0 -21 27 -21h52z" />
    <glyph glyph-name="u.inferior" horiz-adv-x="349" 
d="M214 170h57l-60 -285h-56l9 40q-13 -19 -38 -32t-53 -13q-44 0 -66.5 24t-22.5 63q0 15 3 31l34 172h57l-32 -165q-3 -17 -3 -29q0 -51 52 -51q30 0 54.5 27t33.5 70z" />
    <glyph glyph-name="v.inferior" horiz-adv-x="305" 
d="M99 -115h-66l-47 285h54l36 -229l131 229h59z" />
    <glyph glyph-name="w.inferior" horiz-adv-x="461" 
d="M206 -115l-16 216l-106 -216h-62l-30 285h56l16 -220l108 220h64l14 -220l106 220h58l-146 -285h-62z" />
    <glyph glyph-name="x.inferior" horiz-adv-x="299" 
d="M136 -115l-50 99l-91 -99h-65l132 145l-71 140h59l51 -99l90 99h65l-132 -144l72 -141h-60z" />
    <glyph glyph-name="y.inferior" horiz-adv-x="305" 
d="M8 -230h-87l10 47h60q32 0 37 29l13 61l-62 263h56l46 -203l130 203h64l-176 -265l-14 -65q-6 -31 -26.5 -50.5t-50.5 -19.5z" />
    <glyph glyph-name="z.inferior" horiz-adv-x="288" 
d="M174 -115h-229l10 50l199 190h-156l9 45h217l-11 -56l-190 -182h161z" />
    <glyph glyph-name="a.inferior.ss01" horiz-adv-x="316" 
d="M70 -75q29 0 50 18.5t28 54.5l4 17h-73q-26 0 -42.5 -11.5t-16.5 -33.5q0 -45 50 -45zM125 -115l6 30q-33 -35 -88 -35q-33 0 -56.5 21.5t-23.5 61.5q0 42 30 67t80 25h85l2 13q2 12 2 15q0 24 -15 35.5t-36 11.5q-49 0 -60 -37h-57q7 40 40.5 61t79.5 21t76 -24.5
t30 -71.5q0 -14 -5 -37l-33 -157h-57z" />
    <glyph glyph-name="a.superior.ss01" horiz-adv-x="316" 
d="M182 455q29 0 50 18.5t28 54.5l4 17h-73q-26 0 -42.5 -11.5t-16.5 -33.5q0 -45 50 -45zM237 415l6 30q-33 -35 -88 -35q-33 0 -56.5 21.5t-23.5 61.5q0 42 30 67t80 25h85l2 13q2 12 2 15q0 24 -15 35.5t-36 11.5q-49 0 -60 -37h-57q7 40 40.5 61t79.5 21t76 -24.5
t30 -71.5q0 -14 -5 -37l-33 -157h-57z" />
    <glyph glyph-name="y.inferior.ss03" horiz-adv-x="310" 
d="M-22 -230h-75l10 47h62q20 0 35 23l34 55l-66 275h59l47 -211l130 211h64l-221 -348q-19 -30 -35.5 -41t-43.5 -11z" />
    <glyph glyph-name="y.superior.ss03" horiz-adv-x="309" 
d="M90 300h-75l10 47h62q20 0 35 23l34 55l-66 275h59l47 -211l130 211h64l-221 -348q-19 -30 -35.5 -41t-43.5 -11z" />
    <glyph glyph-name="zero.inferior" horiz-adv-x="407" 
d="M-7 53q0 103 51.5 167.5t130.5 64.5q71 0 110 -47t39 -127q0 -103 -51 -167t-128 -64q-73 0 -112.5 46t-39.5 127zM263 109q0 55 -22 90.5t-68 35.5q-49 0 -84 -49t-35 -130q0 -126 93 -126q47 0 81.5 49.5t34.5 129.5z" />
    <glyph glyph-name="one.inferior" horiz-adv-x="259" 
d="M111 -115h-58l65 309l-136 -92l13 64l161 114h39z" />
    <glyph glyph-name="two.inferior" horiz-adv-x="359" 
d="M247 -115h-279l12 60l139 97q5 3 20.5 13.5t21.5 15.5t18.5 15t18.5 17t13 17.5t10 21.5t3 23q0 28 -20 49t-55 21q-34 0 -57.5 -19.5t-26.5 -49.5h-62q3 50 44 84.5t107 34.5q55 0 93 -32.5t38 -85.5q0 -48 -26.5 -80t-80.5 -68l-125 -84h204z" />
    <glyph glyph-name="three.inferior" horiz-adv-x="351" 
d="M-30 -7h61q1 -30 22.5 -46.5t56.5 -16.5q34 0 56 19.5t22 49.5q0 26 -19 42.5t-49 16.5h-46l11 55h51q38 0 60 17t22 45q0 30 -19 45t-48 15q-32 0 -52.5 -16.5t-24.5 -43.5h-61q3 49 41.5 79.5t97.5 30.5q57 0 92 -29.5t35 -76.5q0 -39 -25.5 -66t-62.5 -33
q24 -10 40.5 -33.5t16.5 -50.5q0 -48 -39 -82t-101 -34q-66 0 -101.5 33t-36.5 80z" />
    <glyph glyph-name="four.inferior" horiz-adv-x="353" 
d="M153 28l39 185l-170 -185h131zM259 -19h-57l-20 -96h-59l20 96h-186l12 56l223 243h74l-54 -252h58z" />
    <glyph glyph-name="five.inferior" horiz-adv-x="340" 
d="M109 -120q-61 0 -98 31t-37 80h61q2 -28 22 -44.5t51 -16.5q35 0 57 22t22 59q1 28 -18.5 49t-54.5 21q-46 0 -76 -36h-60l95 235h202l-11 -50h-150l-53 -126q27 27 73 27q52 0 83 -33.5t31 -85.5q0 -55 -37 -93.5t-102 -38.5z" />
    <glyph glyph-name="six.inferior" horiz-adv-x="374" 
d="M316 176h-61q-2 29 -22 44t-51 15q-44 0 -77.5 -35.5t-50.5 -96.5q16 21 44 34t56 13q55 0 88.5 -32.5t32.5 -82.5q-1 -61 -44 -108t-112 -47q-59 0 -94.5 40.5t-35.5 120.5q0 98 58 171t143 73q59 0 92.5 -31t33.5 -78zM50 9q0 -34 21 -56.5t53 -22.5q39 0 64.5 28
t25.5 70q0 32 -20 52t-50 20q-38 0 -66 -26.5t-28 -64.5z" />
    <glyph glyph-name="seven.inferior" horiz-adv-x="300" 
d="M77 -115h-61q0 73 18 135.5t46.5 103.5t57.5 67t58 39h-192l11 50h267l-11 -52q-82 -33 -138 -121t-56 -222z" />
    <glyph glyph-name="eight.inferior" horiz-adv-x="365" 
d="M117 -120q-56 0 -95 27.5t-39 75.5q0 39 26 66t67 37q-62 27 -62 87q0 49 41.5 80.5t105.5 31.5q60 0 100 -28.5t40 -77.5q0 -40 -30 -70t-74 -36q56 -23 56 -85q0 -49 -39.5 -78.5t-96.5 -29.5zM158 235q-38 0 -60.5 -19t-22.5 -50q0 -24 21 -41t61 -17q38 0 60.5 17.5
t22.5 49.5q0 27 -22 43.5t-60 16.5zM44 -12q0 -25 19.5 -41.5t54.5 -16.5q34 0 54 19t20 49q0 28 -19.5 44t-51.5 16q-35 0 -56 -18.5t-21 -51.5z" />
    <glyph glyph-name="nine.inferior" horiz-adv-x="375" 
d="M245 156q0 34 -21 56.5t-53 22.5q-39 0 -64.5 -28t-25.5 -70q0 -33 19.5 -52.5t50.5 -19.5q38 0 66 26.5t28 64.5zM-21 -11h61q2 -29 22 -44t51 -15q44 0 77.5 35.5t50.5 96.5q-16 -21 -44 -34t-56 -13q-55 0 -88.5 32.5t-32.5 82.5q1 61 44 108t112 47q59 0 94.5 -40.5
t35.5 -120.5q0 -98 -58 -171t-143 -73q-59 0 -92.5 31t-33.5 78z" />
    <glyph glyph-name="a.superior" horiz-adv-x="347" 
d="M206 455q41 0 65.5 37t23.5 88q-1 33 -18.5 56.5t-50.5 23.5q-36 0 -59 -36t-23 -86q0 -83 62 -83zM264 415l6 28q-33 -33 -83 -33q-48 0 -74 33.5t-26 86.5q0 71 37.5 123t97.5 52q32 0 57 -17t34 -42l11 54h57l-60 -285h-57z" />
    <glyph glyph-name="b.superior" horiz-adv-x="347" 
d="M162 810h57l-31 -143q11 15 33 26.5t47 11.5q45 0 75 -31.5t30 -87.5q0 -72 -39 -124t-104 -52q-31 0 -54.5 15.5t-29.5 42.5l-11 -53h-57zM251 660q-36 0 -61.5 -38t-25.5 -89q0 -36 16.5 -57t46.5 -21q40 0 64.5 38t24.5 87q0 80 -65 80z" />
    <glyph glyph-name="c.superior" horiz-adv-x="313" 
d="M349 606h-57q0 22 -15 38t-42 16q-41 0 -66 -36t-25 -85q0 -40 17 -62t48 -22q25 0 42 14.5t21 38.5h57q-5 -41 -38 -69.5t-86 -28.5q-57 0 -87.5 34t-30.5 94q0 75 44 121t105 46q47 0 79.5 -26t33.5 -73z" />
    <glyph glyph-name="d.superior" horiz-adv-x="345" 
d="M206 455q39 0 63.5 39.5t24.5 87.5q0 36 -17 57t-47 21q-39 0 -63 -36t-24 -84q0 -85 63 -85zM346 810h57l-84 -395h-57l7 36q-33 -41 -86 -41q-47 0 -72 34.5t-25 87.5q0 70 39 121.5t100 51.5q31 0 54.5 -15.5t33.5 -35.5z" />
    <glyph glyph-name="e.superior" horiz-adv-x="324" 
d="M282 502h57q-29 -92 -134 -92q-54 0 -86 33.5t-32 89.5q0 65 37.5 118.5t107.5 53.5q64 0 97 -46t18 -121h-203q-4 -39 14 -61t49 -22q51 0 75 47zM228 660q-31 0 -52.5 -22.5t-26.5 -56.5h143q5 32 -12.5 55.5t-51.5 23.5z" />
    <glyph glyph-name="f.superior" horiz-adv-x="223" 
d="M289 657h-74l-52 -242h-56l51 242h-70l9 43h70l8 38q7 32 27.5 52t50.5 20h86l-9 -41h-58q-20 0 -29 -10t-13 -30l-6 -29h74z" />
    <glyph glyph-name="g.superior" horiz-adv-x="354" 
d="M209 455q42 0 68 37.5t26 83.5q0 38 -19.5 61t-50.5 23q-38 0 -63.5 -35.5t-25.5 -86.5q0 -83 65 -83zM182 295q-113 0 -118 88h57q5 -43 63 -43q71 0 87 72l8 37q-12 -17 -36 -28t-49 -11q-52 0 -79.5 36t-27.5 91q0 70 41 119t102 49q32 0 56.5 -16.5t34.5 -37.5l10 49
h57l-64 -304q-10 -47 -47.5 -74t-94.5 -27z" />
    <glyph glyph-name="h.superior" horiz-adv-x="349" 
d="M135 415h-57l84 395h55l-32 -151q13 19 38 32.5t53 13.5q44 0 66.5 -24.5t22.5 -63.5q0 -15 -3 -31l-34 -171h-57l32 164q3 17 3 29q0 52 -52 52q-30 0 -54.5 -27.5t-33.5 -70.5z" />
    <glyph glyph-name="i.superior" horiz-adv-x="161" 
d="M143 747l14 63h65l-14 -63h-65zM78 415l60 285h57l-60 -285h-57z" />
    <glyph glyph-name="j.superior" horiz-adv-x="161" 
d="M143 747l14 63h65l-14 -63h-65zM43 300h-74l10 47h46q22 0 32.5 10t16.5 39l64 304h57l-70 -330q-15 -70 -82 -70z" />
    <glyph glyph-name="k.superior" horiz-adv-x="329" 
d="M276 415l-62 133l-62 -49l-18 -84h-56l84 395h56l-50 -236l157 126h78l-145 -116l80 -169h-62z" />
    <glyph glyph-name="l.superior" horiz-adv-x="160" 
d="M79 415l82 395h57l-84 -395h-55z" />
    <glyph glyph-name="m.superior" horiz-adv-x="541" 
d="M167 564l-32 -149h-57l61 285h56l-9 -39q12 19 37.5 31.5t53.5 12.5q70 0 85 -56q41 56 106 56q45 0 67 -23.5t22 -62.5q0 -15 -3 -31l-35 -173h-57l33 166q3 16 3 29q0 50 -52 50q-30 0 -54.5 -26t-32.5 -65l-31 -154h-57l33 166q3 16 3 29q0 50 -52 50q-30 0 -54.5 -27
t-33.5 -69z" />
    <glyph glyph-name="o.superior" horiz-adv-x="329" 
d="M232 705q51 0 86.5 -32t35.5 -91q0 -76 -42 -124t-103 -48q-54 0 -88 33.5t-34 90.5q0 77 42.5 124t102.5 47zM232 660q-40 0 -64 -38.5t-24 -84.5q0 -36 17 -59t49 -23q37 0 62 36t25 88q0 36 -17 58.5t-48 22.5z" />
    <glyph glyph-name="p.superior" horiz-adv-x="345" 
d="M250 661q-38 0 -62.5 -39.5t-24.5 -86.5q0 -37 16.5 -58.5t46.5 -21.5q40 0 64 36.5t24 85.5q0 84 -64 84zM111 305h-57l84 395h57l-7 -33q31 38 78 38q50 0 77.5 -33.5t27.5 -88.5q0 -69 -39 -121t-100 -52q-31 0 -54.5 16.5t-32.5 37.5z" />
    <glyph glyph-name="q.superior" horiz-adv-x="348" 
d="M297 305h-57l31 145q-28 -40 -81 -40q-45 0 -75 31t-30 86q0 74 39 126t105 52q31 0 54 -15.5t31 -40.5l10 51h57zM204 455q38 0 64.5 37.5t26.5 91.5q0 36 -17 56t-49 20q-39 0 -63 -38t-24 -89q0 -78 62 -78z" />
    <glyph glyph-name="r.superior" horiz-adv-x="216" 
d="M134 415h-56l60 285h53l-10 -50q12 26 39 40.5t59 14.5h10l-10 -51h-14q-80 0 -100 -93z" />
    <glyph glyph-name="s.superior" horiz-adv-x="297" 
d="M329 609h-57q0 24 -15 37.5t-42 13.5q-25 0 -40 -11.5t-15 -29.5q0 -23 37 -33l39 -10q35 -10 54.5 -26t19.5 -47q0 -46 -35 -69.5t-86 -23.5q-52 0 -84 26.5t-32 71.5h57q0 -27 19.5 -40t45.5 -13q25 0 41.5 11.5t16.5 28.5q0 24 -40 34l-46 12q-64 16 -64 70
q0 43 35 68.5t82 25.5q45 0 76.5 -24t32.5 -72z" />
    <glyph glyph-name="t.superior" horiz-adv-x="236" 
d="M252 460l-9 -45h-67q-28 0 -43.5 17t-15.5 45q0 11 3 24l33 156h-67l9 43h68l19 90h57l-19 -90h77l-9 -43h-78l-35 -164q-2 -8 -2 -12q0 -21 27 -21h52z" />
    <glyph glyph-name="u.superior" horiz-adv-x="349" 
d="M326 700h57l-60 -285h-56l9 40q-13 -19 -38 -32t-53 -13q-44 0 -66.5 24t-22.5 63q0 15 3 31l34 172h57l-32 -165q-3 -17 -3 -29q0 -51 52 -51q30 0 54.5 27t33.5 70z" />
    <glyph glyph-name="v.superior" horiz-adv-x="305" 
d="M212 415h-66l-47 285h54l36 -229l131 229h59z" />
    <glyph glyph-name="w.superior" horiz-adv-x="461" 
d="M319 415l-16 216l-106 -216h-62l-30 285h56l16 -220l108 220h64l14 -220l106 220h58l-146 -285h-62z" />
    <glyph glyph-name="x.superior" horiz-adv-x="299" 
d="M248 415l-50 99l-91 -99h-65l132 145l-71 140h59l51 -99l90 99h65l-132 -144l72 -141h-60z" />
    <glyph glyph-name="y.superior" horiz-adv-x="305" 
d="M120 300h-87l10 47h60q32 0 37 29l13 61l-62 263h56l46 -203l130 203h64l-176 -265l-14 -65q-6 -31 -26.5 -50.5t-50.5 -19.5z" />
    <glyph glyph-name="z.superior" horiz-adv-x="288" 
d="M286 415h-229l10 50l199 190h-156l9 45h217l-11 -56l-190 -182h161z" />
    <glyph glyph-name="n.superior" horiz-adv-x="349" 
d="M135 415h-57l60 285h56l-8 -39q13 19 37.5 31.5t52.5 12.5q45 0 67 -23.5t22 -62.5q0 -15 -3 -31l-34 -173h-57l32 166q3 16 3 29q0 51 -52 51q-30 0 -54 -27t-33 -70z" />
    <glyph glyph-name="zero.superior" horiz-adv-x="407" 
d="M106 583q0 103 51.5 167.5t130.5 64.5q71 0 110 -47t39 -127q0 -103 -51 -167t-128 -64q-73 0 -112.5 46t-39.5 127zM376 639q0 55 -22 90.5t-68 35.5q-49 0 -84 -49t-35 -130q0 -126 93 -126q47 0 81.5 49.5t34.5 129.5z" />
    <glyph glyph-name="four.superior" horiz-adv-x="353" 
d="M265 558l39 185l-170 -185h131zM371 511h-57l-20 -96h-59l20 96h-186l12 56l223 243h74l-54 -252h58z" />
    <glyph glyph-name="five.superior" horiz-adv-x="340" 
d="M221 410q-61 0 -98 31t-37 80h61q2 -28 22 -44.5t51 -16.5q35 0 57 22t22 59q1 28 -18.5 49t-54.5 21q-46 0 -76 -36h-60l95 235h202l-11 -50h-150l-53 -126q27 27 73 27q52 0 83 -33.5t31 -85.5q0 -55 -37 -93.5t-102 -38.5z" />
    <glyph glyph-name="six.superior" horiz-adv-x="374" 
d="M428 706h-61q-2 29 -22 44t-51 15q-44 0 -77.5 -35.5t-50.5 -96.5q16 21 44 34t56 13q55 0 88.5 -32.5t32.5 -82.5q-1 -61 -44 -108t-112 -47q-59 0 -94.5 40.5t-35.5 120.5q0 98 58 171t143 73q59 0 92.5 -31t33.5 -78zM162 539q0 -34 21 -56.5t53 -22.5q39 0 64.5 28
t25.5 70q0 32 -20 52t-50 20q-38 0 -66 -26.5t-28 -64.5z" />
    <glyph glyph-name="seven.superior" horiz-adv-x="300" 
d="M189 415h-61q0 73 18 135.5t46.5 103.5t57.5 67t58 39h-192l11 50h267l-11 -52q-82 -33 -138 -121t-56 -222z" />
    <glyph glyph-name="eight.superior" horiz-adv-x="365" 
d="M229 410q-56 0 -95 27.5t-39 75.5q0 39 26 66t67 37q-62 27 -62 87q0 49 41.5 80.5t105.5 31.5q60 0 100 -28.5t40 -77.5q0 -40 -30 -70t-74 -36q56 -23 56 -85q0 -49 -39.5 -78.5t-96.5 -29.5zM270 765q-38 0 -60.5 -19t-22.5 -50q0 -24 21 -41t61 -17q38 0 60.5 17.5
t22.5 49.5q0 27 -22 43.5t-60 16.5zM156 518q0 -25 19.5 -41.5t54.5 -16.5q34 0 54 19t20 49q0 28 -19.5 44t-51.5 16q-35 0 -56 -18.5t-21 -51.5z" />
    <glyph glyph-name="nine.superior" horiz-adv-x="375" 
d="M357 686q0 34 -21 56.5t-53 22.5q-39 0 -64.5 -28t-25.5 -70q0 -33 19.5 -52.5t50.5 -19.5q38 0 66 26.5t28 64.5zM91 519h61q2 -29 22 -44t51 -15q44 0 77.5 35.5t50.5 96.5q-16 -21 -44 -34t-56 -13q-55 0 -88.5 32.5t-32.5 82.5q1 61 44 108t112 47q59 0 94.5 -40.5
t35.5 -120.5q0 -98 -58 -171t-143 -73q-59 0 -92.5 31t-33.5 78z" />
    <glyph glyph-name="space.tnum" 
 />
    <glyph glyph-name="zero.tnum" 
d="M47 260q0 53 10 111t34 119.5t59 109.5t90 79t121 31q99 0 158 -72t59 -198q0 -54 -9.5 -111.5t-33.5 -119t-58.5 -109.5t-89.5 -79t-123 -31q-103 0 -160 71.5t-57 198.5zM510 440q0 87 -39 146t-110 59q-63 0 -113 -40.5t-77.5 -102.5t-41.5 -123.5t-14 -114.5
q0 -44 8 -80t25 -66t48 -46.5t74 -16.5q49 0 91 27.5t68.5 69.5t45.5 94.5t27 101.5t8 92z" />
    <glyph glyph-name="one.tnum" 
d="M497 0h-495l14 65h197l112 527l-193 -146l20 91l212 163h52l-135 -635h230z" />
    <glyph glyph-name="two.tnum" 
d="M484 0h-456l16 75l268 208q95 74 134.5 122.5t39.5 101.5q0 64 -41.5 101t-112.5 37q-64 0 -107 -41.5t-46 -107.5h-68q1 93 66 153.5t163 60.5q96 0 155 -57.5t59 -142.5q0 -70 -45 -128.5t-155 -144.5l-218 -170h362z" />
    <glyph glyph-name="three.tnum" 
d="M41 178h68q0 -53 44.5 -88t115.5 -35q74 0 120 42t46 104q0 55 -36.5 85.5t-102.5 30.5h-40l14 65h70q61 0 106.5 37.5t45.5 98.5q0 60 -39.5 93.5t-107.5 33.5q-60 0 -101 -34t-50 -91h-68q8 79 68.5 134.5t156.5 55.5q94 0 151.5 -51t57.5 -133q0 -69 -42 -117
t-105 -65q40 -19 65 -56.5t25 -89.5q0 -88 -65 -148t-172 -60q-100 0 -162.5 51t-62.5 137z" />
    <glyph glyph-name="four.tnum" 
d="M370 232l83 388l-362 -388h279zM533 169h-108l-36 -169h-68l36 169h-341l18 86l406 445h98l-100 -468h108z" />
    <glyph glyph-name="five.tnum" 
d="M270 -10q-93 0 -156 50t-66 140h68q4 -63 47.5 -94t108.5 -31q77 0 125 47t48 120q0 67 -41.5 109t-111.5 42q-52 0 -87 -19.5t-73 -60.5h-65l172 407h347l-14 -67h-297l-107 -248q61 53 142 53q84 0 143.5 -60.5t59.5 -147.5q0 -109 -68 -174.5t-175 -65.5z" />
    <glyph glyph-name="six.tnum" 
d="M536 248q0 -105 -68 -181.5t-180 -76.5q-98 0 -162 67t-64 201q0 116 38.5 217.5t117 168t181.5 66.5q87 0 144 -48t64 -127h-68q-8 51 -47.5 80.5t-101.5 29.5q-93 0 -161 -76.5t-94 -203.5q64 96 187 96q93 0 153.5 -59t60.5 -154zM130 223q0 -75 43.5 -121.5
t114.5 -46.5q79 0 129.5 54t50.5 132q0 70 -39.5 112.5t-112.5 42.5q-81 0 -133.5 -47t-52.5 -126z" />
    <glyph glyph-name="seven.tnum" 
d="M227 0h-69l4 44q19 214 108 365.5t234 223.5h-379l11 67h497l-15 -70q-176 -74 -271.5 -216t-117.5 -391z" />
    <glyph glyph-name="eight.tnum" 
d="M264 -10q-86 0 -140 48.5t-54 131.5q0 62 45.5 116t113.5 67q-43 17 -72.5 57t-29.5 95q0 94 67 149.5t167 55.5q88 0 147.5 -50t59.5 -137q0 -74 -53 -127t-122 -63q43 -22 67.5 -61t24.5 -86q0 -81 -60.5 -138.5t-160.5 -57.5zM335 379q66 0 115.5 37t49.5 104
q0 61 -41 93t-104 32q-70 0 -115 -38t-45 -104q0 -59 42 -91.5t98 -32.5zM270 55q64 0 105.5 38.5t41.5 98.5q0 51 -37 84t-94 33q-63 0 -105.5 -39t-42.5 -99q0 -50 37 -83t95 -33z" />
    <glyph glyph-name="nine.tnum" 
d="M495 477q0 75 -43.5 121.5t-114.5 46.5q-79 0 -129.5 -54t-50.5 -132q0 -70 39.5 -112.5t112.5 -42.5q81 0 133.5 47t52.5 126zM226 -10q-87 0 -144 48t-64 127h68q8 -51 47.5 -80.5t101.5 -29.5q93 0 161 76.5t94 203.5q-64 -96 -187 -96q-93 0 -153.5 59t-60.5 154
q0 105 68 181.5t180 76.5q98 0 162 -67t64 -201q0 -116 -38.5 -217.5t-117 -168t-181.5 -66.5z" />
    <glyph glyph-name="numbersign.tnum" 
d="M374 244l43 211h-156l-46 -211h159zM323 0l39 189h-158l-41 -189h-65l41 189h-96v55h107l46 211h-133v55h144l41 190h65l-41 -190h157l39 190h65l-39 -190h88v-55h-100l-43 -211h123v-55h-135l-39 -189h-65z" />
    <glyph glyph-name="period.tnum" 
d="M190 0l21 100h100l-21 -100h-100z" />
    <glyph glyph-name="comma.tnum" 
d="M161 -115h-18l8 40h11q31 0 53 16t28 44l3 15h-58l21 100h105l-23 -110q-22 -105 -130 -105z" />
    <glyph glyph-name="colon.tnum" 
d="M273 400l21 100h100l-21 -100h-100zM188 0l21 100h100l-21 -100h-100z" />
    <glyph glyph-name="semicolon.tnum" 
d="M279 400l21 100h100l-21 -100h-100zM164 -115h-18l8 40h11q31 0 53 16t28 44l3 15h-58l21 100h105l-23 -110q-22 -105 -130 -105z" />
    <glyph glyph-name="plus.tnum" 
d="M547 321h-202v-213h-65v213h-202v60h202v212h65v-212h202v-60z" />
    <glyph glyph-name="minus.tnum" 
d="M75 319v64h470v-64h-470z" />
    <glyph glyph-name="plusminus.tnum" 
d="M532 404h-197v-136h-65v136h-198v64h198v140h65v-140h197v-64zM72 119v64h460v-64h-460z" />
    <glyph glyph-name="divide.tnum" 
d="M276 487v85h75v-85h-75zM68 318v64h490v-64h-490zM276 128v85h75v-85h-75z" />
    <glyph glyph-name="multiply.tnum" 
d="M470 142l-161 162l-162 -162l-47 47l162 162l-162 161l47 47l162 -161l161 161l47 -47l-161 -161l161 -162z" />
    <glyph glyph-name="equal.tnum" 
d="M73 414v64h470v-64h-470zM73 223v64h470v-64h-470z" />
    <glyph glyph-name="less.tnum" 
d="M500 142l-425 177v56l425 177v-73l-330 -130l330 -131v-76z" />
    <glyph glyph-name="greater.tnum" 
d="M116 142v73l330 131l-330 130v76l425 -177v-56z" />
    <glyph glyph-name="lessequal.tnum" 
d="M523 232l-445 152v76l445 152v-72l-377 -117l377 -117v-74zM78 118v64h445v-64h-445z" />
    <glyph glyph-name="greaterequal.tnum" 
d="M92 232v72l377 117l-377 117v74l445 -152v-76zM537 182v-64h-445v64h445z" />
    <glyph glyph-name="approxequal.tnum" 
d="M458 510h63v-25q0 -50 -31 -80t-89 -30q-34 0 -65.5 20.5t-58 40.5t-48.5 20q-65 0 -65 -71h-63v25q0 50 32.5 82.5t87.5 32.5q34 0 65.5 -20.5t58 -40.5t48.5 -20q65 0 65 66zM458 320h63v-25q0 -50 -31 -80t-89 -30q-34 0 -65.5 20.5t-58 40.5t-48.5 20q-65 0 -65 -71
h-63v25q0 50 32.5 82.5t87.5 32.5q34 0 65.5 -20.5t58 -40.5t48.5 -20q65 0 65 66z" />
    <glyph glyph-name="notequal.tnum" 
d="M542 223h-242l-38 -115h-71l38 115h-157v64h179l42 127h-221v64h243l38 115h71l-38 -115h156v-64h-178l-42 -127h220v-64z" />
    <glyph glyph-name="logicalnot.tnum" 
d="M520 173h-68v145h-377v65h445v-210z" />
    <glyph glyph-name="dollar.tnum" 
d="M278 406l19 -7l90 243q-18 3 -37 3q-73 0 -123.5 -39t-50.5 -98q0 -38 25.5 -61t76.5 -41zM284 55q78 0 128 36.5t50 96.5q0 44 -28 73.5t-103 54.5l-95 -257q21 -4 48 -4zM284 -10q-38 0 -71 6l-43 -116h-65l49 132q-63 24 -97.5 73t-34.5 115q0 16 1 20h68v-14
q0 -93 86 -131l96 260l-23 8q-74 25 -108.5 60t-34.5 94q0 92 71.5 152.5t176.5 60.5q26 0 56 -5l42 115h65l-49 -132q60 -25 93.5 -74.5t33.5 -109.5v-8h-68q-1 92 -82 129l-91 -246l21 -7q154 -53 154 -173q0 -91 -68 -150t-178 -59z" />
    <glyph glyph-name="cent.tnum" 
d="M138 207q0 -92 62 -130l137 368h-9q-84 0 -137 -64t-53 -174zM285 -10q-24 0 -51 5l-43 -115h-65l50 134q-106 54 -106 191q0 140 76 222.5t188 82.5q18 0 26 -1l42 111h65l-47 -126q101 -42 103 -154h-68q-1 68 -58 93l-140 -376q22 -2 35 -2q48 0 82.5 26.5t49.5 78.5
h68q-17 -79 -75 -124.5t-132 -45.5z" />
    <glyph glyph-name="sterling.tnum" 
d="M486 0h-472l14 65q50 0 73.5 28.5t36.5 77.5l29 114l-96 -22l15 63l97 22l43 167q24 94 87.5 139.5t149.5 45.5h92l-14 -65h-71q-77 0 -117.5 -33t-58.5 -106l-33 -131l144 33l-14 -63l-147 -33l-33 -131q-21 -80 -68 -106h357z" />
    <glyph glyph-name="currency.tnum" 
d="M517 61l-75 71q-60 -47 -139 -47t-141 48l-76 -72l-42 42l77 73q-41 57 -41 129q0 68 37 124l-73 74l42 42l73 -70q61 50 144 50q81 0 142 -48l72 68l42 -42l-71 -72q38 -55 38 -126q0 -73 -42 -131l75 -71zM303 150h5q64 0 107 43.5t43 111.5q0 69 -43 112t-107 43h-10
q-64 0 -107 -43t-43 -112q0 -68 45.5 -111.5t109.5 -43.5z" />
    <glyph glyph-name="yen.tnum" 
d="M268 0h-69l28 133l-192 -42l14 63l192 42l18 86l-192 -42l13 63l170 37l-171 360h73l156 -327l291 327h85l-292 -328l151 33l-14 -63l-198 -44l-18 -86l199 44l-13 -63l-199 -44z" />
    <glyph glyph-name="Euro.tnum" 
d="M540 204q-18 -96 -79.5 -155t-151.5 -59q-82 0 -129 58t-59 163l-102 -23l13 63l84 19v24q0 29 3 59l-67 -15l13 63l64 14q28 126 103.5 210.5t174.5 84.5q88 0 136 -60.5t48 -154.5h-68q0 68 -30.5 109t-86.5 41q-70 0 -124 -60t-80 -154l198 43l-13 -63l-198 -43
q-5 -40 -5 -74v-9l142 32l-13 -63l-126 -28q18 -171 128 -171q57 0 98 37.5t59 111.5h68z" />
    <glyph glyph-name="section.tnum" 
d="M81 -60l14 64h171q57 0 81.5 21.5t24.5 53.5q0 26 -18.5 44t-59.5 35l-93 39q-55 23 -80 53t-25 79q-1 34 29 77t92 71q-42 40 -42 87q0 65 45.5 100.5t131.5 35.5h180l-14 -64h-166q-109 0 -109 -69q0 -44 75 -79l83 -38q57 -26 86 -56.5t29 -78.5q0 -38 -23.5 -73
t-88.5 -74q36 -34 36 -89t-42 -97t-121 -42h-196zM242 247l105 -44q101 44 101 105q0 32 -24 54t-81 46l-78 33q-54 -19 -77.5 -51t-23.5 -57q0 -30 17.5 -49t60.5 -37z" />
    <glyph glyph-name="ampersand.ss04" horiz-adv-x="648" 
d="M212 528q0 -34 16 -65t49 -73l53 27q64 32 90 63.5t26 70.5q0 41 -31.5 67t-80.5 26q-54 0 -88 -29.5t-34 -86.5zM224 55q100 0 176 70l-122 156q-7 9 -23 29l-28 -15q-74 -38 -103.5 -67t-29.5 -75q0 -47 34.5 -72.5t95.5 -25.5zM498 0l-57 73q-97 -83 -224 -83
q-89 0 -140 43t-51 112q0 66 36.5 111.5t119.5 86.5l34 17q-72 98 -72 167q0 85 53.5 133.5t140.5 48.5q75 0 125.5 -44.5t50.5 -107.5q0 -111 -160 -195l-39 -21l130 -167q57 79 73 190l3 21h67l-4 -32q-16 -135 -97 -233l93 -120h-82z" />
    <glyph glyph-name="question.ss05" horiz-adv-x="490" 
d="M158 205l23 110q13 60 83 80l62 18q107 32 107 121q0 49 -34.5 80t-98.5 31q-57 0 -98 -30.5t-48 -89.5h-68q8 88 73 136.5t148 48.5t138.5 -48t55.5 -129q0 -64 -40 -111.5t-108 -68.5l-62 -19q-20 -6 -30 -14.5t-13 -16t-7 -24.5l-15 -74h-68zM121 0l17 85h75l-17 -85
h-75z" />
    <glyph glyph-name="questiondown.ss05" horiz-adv-x="483" 
d="M348 500l-17 -85h-75l17 85h75zM311 295l-23 -110q-13 -60 -83 -80l-62 -18q-107 -32 -107 -121q0 -49 34.5 -80t98.5 -31q57 0 98 30.5t48 89.5h68q-8 -88 -73 -136.5t-148 -48.5t-138.5 48t-55.5 129q0 64 40 111.5t108 68.5l62 19q20 6 30 14.5t13 16t7 24.5l15 74h68
z" />
    <glyph glyph-name="questiondown.ss05.case" horiz-adv-x="492" 
d="M395 700l-17 -85h-75l17 85h75zM358 495l-23 -110q-13 -60 -83 -80l-62 -18q-107 -32 -107 -121q0 -49 34.5 -80t98.5 -31q57 0 98 30.5t48 89.5h68q-8 -88 -73 -136.5t-148 -48.5t-138.5 48t-55.5 129q0 64 40 111.5t108 68.5l62 19q20 6 30 14.5t13 16t7 24.5l15 74h68
z" />
    <glyph glyph-name="at.ss06" horiz-adv-x="840" 
d="M727 -70v-55h-205q-192 0 -316 119.5t-124 315.5q0 184 106 302t264 118q119 0 197 -68.5t78 -180.5v-386h-65v74q-46 -84 -156 -84q-82 0 -130.5 61t-48.5 153q0 93 51 152t143 59q41 0 80.5 -20t60.5 -55v51q0 86 -60.5 137.5t-144.5 51.5h-10q-132 0 -216 -103
t-84 -260q0 -176 105 -279t270 -103h205zM517 140h5q64 0 102 46t38 113t-38 111.5t-102 44.5h-5q-62 0 -93.5 -43.5t-31.5 -111.5t31.5 -114t93.5 -46z" />
    <glyph glyph-name="germandbls.case" horiz-adv-x="656" 
d="M382 635h-141l-129 -635h-76l149 700h207q89 0 143.5 -42.5t54.5 -125.5q0 -56 -29.5 -104t-83.5 -69q50 -13 79.5 -55t29.5 -89q0 -91 -59.5 -153t-152.5 -62h-137l14 65h116q63 0 106 36t43 113q0 51 -35 79.5t-98 28.5h-77l14 65h49q64 0 107.5 37t43.5 100
q0 111 -138 111z" />
    <glyph glyph-name="degree.tnum" 
d="M347 340q-80 0 -132.5 53t-52.5 132t52.5 132t132.5 53q79 0 132 -53t53 -132t-53 -132t-132 -53zM347 398q51 0 87 37t36 90t-36 90t-87 37t-87 -37t-36 -90t36 -90t87 -37z" />
    <glyph glyph-name="Triangle" horiz-adv-x="840" 
d="M15 0l405 720l405 -720h-810z" />
    <glyph glyph-name="percent.tnum" 
d="M312 555q0 -71 -33.5 -113t-91.5 -42t-91.5 42t-33.5 113t33.5 113t91.5 42t91.5 -42t33.5 -113zM120 555q0 -105 67 -105t67 105t-67 105t-67 -105zM142 293l339 169v-56l-339 -169v56zM562 145q0 -71 -33.5 -113t-91.5 -42t-91.5 42t-33.5 113t33.5 113t91.5 42
t91.5 -42t33.5 -113zM370 145q0 -105 67 -105t67 105t-67 105t-67 -105z" />
    <glyph glyph-name="perthousand.tnum" 
d="M270 555q0 -69 -33.5 -109.5t-91.5 -40.5t-91.5 40.5t-33.5 109.5q0 71 33.5 113t91.5 42t91.5 -42t33.5 -113zM78 555q0 -51 18.5 -75.5t48.5 -24.5t48.5 24.5t18.5 75.5q0 105 -67 105t-67 -105zM46 294l339 168v-56l-339 -168v56zM484 -10q-62 0 -96 48
q-34 -48 -96 -48q-58 0 -91.5 42t-33.5 113q0 69 33.5 109.5t91.5 40.5q61 0 96 -46q35 46 96 46q58 0 91.5 -40.5t33.5 -109.5q0 -71 -33.5 -113t-91.5 -42zM417 145q0 -105 67 -105t67 105q0 51 -18.5 75.5t-48.5 24.5t-48.5 -24.5t-18.5 -75.5zM225 145q0 -105 67 -105
t67 105q0 51 -18.5 75.5t-48.5 24.5t-48.5 -24.5t-18.5 -75.5z" />
    <glyph glyph-name="copyright.alt" horiz-adv-x="565" 
d="M557 510q0 -95 -67.5 -162.5t-162.5 -67.5t-162.5 68t-67.5 162q0 95 67.5 162.5t162.5 67.5t162.5 -67.5t67.5 -162.5zM138 510q0 -79 55.5 -135.5t133.5 -56.5q79 0 134 56t55 136t-55 136t-134 56q-78 0 -133.5 -56t-55.5 -136zM330 385q-48 0 -76.5 32t-28.5 93
q0 60 29 92.5t76 32.5q41 0 66.5 -23t28.5 -58h-45q-8 41 -48 41h-4q-29 0 -43 -24t-14 -61q0 -38 14 -62t43 -24h4q34 0 46 40h45q-3 -35 -27.5 -57t-65.5 -22z" />
    <glyph glyph-name="registered.alt" horiz-adv-x="565" 
d="M557 510q0 -95 -67.5 -162.5t-162.5 -67.5t-162.5 68t-67.5 162q0 95 67.5 162.5t162.5 67.5t162.5 -67.5t67.5 -162.5zM138 510q0 -79 55.5 -135.5t133.5 -56.5q79 0 134 56t55 136t-55 136t-134 56q-78 0 -133.5 -56t-55.5 -136zM287 514h55q18 0 29 10.5t11 29.5
q0 39 -40 39h-55v-79zM248 397v230h97q36 0 56 -20t20 -45q0 -21 -11 -38t-30 -23q38 0 38 -32v-72h-39v60q0 13 -5.5 18t-19.5 5h-67v-83h-39z" />
    <glyph glyph-name="uni2117.alt" horiz-adv-x="565" 
d="M557 510q0 -95 -67.5 -162.5t-162.5 -67.5t-162.5 68t-67.5 162q0 95 67.5 162.5t162.5 67.5t162.5 -67.5t67.5 -162.5zM138 510q0 -79 55.5 -135.5t133.5 -56.5q79 0 134 56t55 136t-55 136t-134 56q-78 0 -133.5 -56t-55.5 -136zM253 395v230h97q35 0 56 -20t21 -56
t-21 -56t-56 -20h-58v-78h-39zM292 507h53q43 0 43 42t-43 42h-53v-84z" />
    <glyph glyph-name="circle_three_numbers" horiz-adv-x="880" 
d="M440 -40q-161 0 -275.5 114.5t-114.5 275.5t114.5 275.5t275.5 114.5t275.5 -114.5t114.5 -275.5t-114.5 -275.5t-275.5 -114.5zM440 10q140 0 239 100t99 240t-99 240t-239 100t-239 -100t-99 -240t99 -240t239 -100z" />
    </font>
</defs>
</svg>
