<?xml version="1.0" standalone="no"?>
<!DOCTYPE svg PUBLIC "-//W3C//DTD SVG 1.1//EN" "http://www.w3.org/Graphics/SVG/1.1/DTD/svg11.dtd" >
<svg xmlns="http://www.w3.org/2000/svg" xmlns:xlink="http://www.w3.org/1999/xlink" version="1.1">
<metadata>
Created by FontForge 20170731 at Thu Jun  9 19:56:14 2016
 By Aleksey,,,
Copyright 2014 Dinamo (Johannes Breyer, Fabian Harb)
</metadata>
<defs>
<font id="Favorit-LightLining" horiz-adv-x="600" >
  <font-face 
    font-family="Favorit Light Lining"
    font-weight="300"
    font-stretch="normal"
    units-per-em="1000"
    panose-1="2 1 3 3 3 2 1 8 2 3"
    ascent="800"
    descent="-200"
    x-height="500"
    cap-height="700"
    bbox="-299 -310 2225 1016"
    underline-thickness="0"
    underline-position="0"
    unicode-range="U+0020-FBE6"
  />
<missing-glyph horiz-adv-x="680" 
d="M590 0h-500v700h500v-700zM530 55v590h-380v-590h380z" />
    <glyph glyph-name="f_f" unicode="ff" horiz-adv-x="686" 
d="M136 0v445h-115v55h115v110q0 49 23 69.5t72 20.5h125v-55h-115q-22 0 -31 -9t-9 -31v-105h270v110q0 49 23 69.5t72 20.5h125v-55h-115q-22 0 -31 -9t-9 -31v-105h130v-55h-130v-445h-65v445h-270v-445h-65zM706 -170v-55h-726v55h726z" />
    <glyph glyph-name="fi" unicode="fi" horiz-adv-x="616" 
d="M466 590v85h75v-85h-75zM136 0v445h-115v55h115v110q0 49 23 69.5t72 20.5h125v-55h-115q-22 0 -31 -9t-9 -31v-105h335v-500h-65v445h-270v-445h-65zM636 -170v-55h-656v55h656z" />
    <glyph glyph-name="fl" unicode="fl" horiz-adv-x="616" 
d="M136 0v445h-115v55h115v110q0 49 23 69.5t72 20.5h305v-700h-65v645h-230q-22 0 -31 -9t-9 -31v-105h130v-55h-130v-445h-65zM636 -170v-55h-656v55h656z" />
    <glyph glyph-name="f_f_i" unicode="ffi" horiz-adv-x="951" 
d="M801 590v85h75v-85h-75zM136 0v445h-115v55h115v110q0 49 23 69.5t72 20.5h125v-55h-115q-22 0 -31 -9t-9 -31v-105h270v110q0 49 23 69.5t72 20.5h125v-55h-115q-22 0 -31 -9t-9 -31v-105h335v-500h-65v445h-270v-445h-65v445h-270v-445h-65zM971 -170v-55h-991v55h991z
" />
    <glyph glyph-name="f_f_l" unicode="ffl" horiz-adv-x="951" 
d="M136 0v445h-115v55h115v110q0 49 23 69.5t72 20.5h125v-55h-115q-22 0 -31 -9t-9 -31v-105h270v110q0 49 23 69.5t72 20.5h305v-700h-65v645h-230q-22 0 -31 -9t-9 -31v-105h130v-55h-130v-445h-65v445h-270v-445h-65zM971 -170v-55h-991v55h991z" />
    <glyph glyph-name="W_W_W" unicode="www" horiz-adv-x="2050" 
d="M502 0l-120 412l-120 -412h-75l-165 500h70l135 -429l120 429h70l125 -429l127 429h70l133 -429l120 429h70l125 -429l125 429h70l130 -429l120 429h70l125 -429l130 429h70l-165 -500h-75l-120 412l-120 -412h-75l-125 391l-125 -391h-75l-120 412l-120 -412h-75
l-128 392l-127 -392h-75zM2070 -170v-55h-2090v55h2090z" />
    <glyph glyph-name="slash_slash" unicode="&#x2f;&#x2f;" horiz-adv-x="661" 
d="M-53 -225l357 925h70l-357 -925h-70zM199 -225l357 925h70l-336 -870h391v-55h-482z" />
    <glyph glyph-name="u.fina" unicode="&#x6c7;" horiz-adv-x="560" arabic-form="final" 
d="M-20 -225v55h435v264q-19 -49 -62.5 -76.5t-104.5 -27.5q-83 0 -128 51t-45 129v330h65v-310q0 -72 30 -108.5t90 -36.5h10q27 0 53.5 12.5t46.5 36.5t32.5 58.5t12.5 77.5v270h65v-725h-500z" />
    <glyph glyph-name="oe.fina" unicode="&#x6c6;" horiz-adv-x="913" arabic-form="final" 
d="M656 455q-24 0 -48.5 -7.5t-45 -25.5t-36 -48t-20.5 -74h293q-2 66 -38 110.5t-95 44.5h-10zM284 45q68 0 111.5 54.5t43.5 150.5t-43.5 150.5t-111.5 54.5h-10q-68 0 -114 -54.5t-46 -150.5t46 -150.5t114 -54.5h10zM-20 -225v55h697v160q-73 0 -126 29.5t-81 85.5
q-29 -54 -79 -84.5t-112 -30.5q-48 0 -90 19t-73 53t-49 82t-18 106t18 106t49 82t73 53t90 19q62 0 112 -31t79 -85q31 58 83 87t109 29q46 0 83 -17t63.5 -47.5t41 -71.5t14.5 -89v-40h-360q1 -95 46.5 -147.5t125.5 -52.5h66v-270h-762z" />
    <glyph glyph-name="e.fina" unicode="&#x6d0;" horiz-adv-x="524" arabic-form="final" 
d="M267 455q-24 0 -48.5 -7.5t-45 -25.5t-36 -48t-20.5 -74h293q-2 66 -38 110.5t-95 44.5h-10zM-20 -225v55h308v160q-113 0 -175.5 68.5t-62.5 192.5q0 65 18.5 114t49.5 81t71.5 48t83.5 16q46 0 83 -17t63.5 -47.5t41 -71.5t14.5 -89v-40h-360q1 -95 46.5 -147.5
t125.5 -52.5h66v-270h-373z" />
    <glyph glyph-name="e.init" unicode="&#x6d0;" horiz-adv-x="524" arabic-form="initial" 
d="M267 455q-24 0 -48.5 -7.5t-45 -25.5t-36 -48t-20.5 -74h293q-2 66 -38 110.5t-95 44.5h-10zM288 -225v215q-113 0 -175.5 68.5t-62.5 192.5q0 65 18.5 114t49.5 81t71.5 48t83.5 16q46 0 83 -17t63.5 -47.5t41 -71.5t14.5 -89v-40h-360q1 -95 46.5 -147.5t125.5 -52.5
h66v-215h191v-55h-256z" />
    <glyph glyph-name=".notdef" horiz-adv-x="680" 
d="M590 0h-500v700h500v-700zM530 55v590h-380v-590h380z" />
    <glyph glyph-name=".null" horiz-adv-x="0" 
 />
    <glyph glyph-name="nonmarkingreturn" horiz-adv-x="333" 
 />
    <glyph glyph-name="space" unicode=" " horiz-adv-x="250" 
 />
    <glyph glyph-name="exclam" unicode="!" horiz-adv-x="242" 
d="M106 205l-20 285v210h70v-210l-20 -285h-30zM84 0v85h75v-85h-75zM262 -170v-55h-282v55h282z" />
    <glyph glyph-name="quotedbl" unicode="&#x22;" horiz-adv-x="342" 
d="M236 490l-19 130v80h65v-80l-24 -130h-22zM81 490l-19 130v80h65v-80l-24 -130h-22z" />
    <glyph glyph-name="numbersign" unicode="#" horiz-adv-x="672" 
d="M403 245l43 210h-176l-45 -210h178zM352 0l39 190h-178l-41 -190h-65l41 190h-108v55h120l45 210h-122v55h133l41 190h65l-41 -190h177l39 190h65l-39 -190h108v-55h-120l-43 -210h121v-55h-133l-39 -190h-65zM692 -170v-55h-712v55h712z" />
    <glyph glyph-name="dollar" unicode="$" horiz-adv-x="613" 
d="M260 403l31 -6l41 248h-6h-7h-10q-73 0 -120 -38.5t-47 -95.5q0 -45 32 -71.5t86 -36.5zM308 55h10q81 0 124 38t43 92q0 51 -33 81.5t-99 43.5l-14 3l-44 -258h7h6zM633 -170v-55h-276v55h276zM-20 -225v55h215l29 168q-90 18 -137.5 75t-47.5 147h68q0 -61 35 -101
t93 -55l44 261l-38 8q-79 16 -123 59t-44 118q0 41 16.5 77.5t47.5 63.5t75.5 43t100.5 16h14q8 0 15 -1l19 111h62l-20 -122q72 -20 114.5 -73t45.5 -130h-68q-3 50 -31 86t-73 52l-41 -248l21 -4q86 -17 133.5 -64t47.5 -128q0 -92 -66 -145.5t-178 -53.5h-13q-6 0 -12 1
l-36 -216h-268z" />
    <glyph glyph-name="percent" unicode="%" horiz-adv-x="905" 
d="M361 502q0 -91 -43.5 -146.5t-118.5 -55.5t-118.5 55.5t-43.5 146.5t43.5 147t118.5 56t118.5 -56t43.5 -147zM98 502q0 -28 6 -55.5t18 -48.5t31 -34.5t44 -13.5h4q25 0 44 13.5t31 34.5t18 48.5t6 55.5t-6 55.5t-18 49t-31 35t-44 13.5h-4q-25 0 -44 -13.5t-31 -35
t-18 -49t-6 -55.5zM868 197q0 -91 -43.5 -146.5t-118.5 -55.5t-118.5 55.5t-43.5 146.5t43.5 147t118.5 56t118.5 -56t43.5 -147zM605 197q0 -28 6 -55.5t18 -48.5t31 -34.5t44 -13.5h4q25 0 44 13.5t31 34.5t18 48.5t6 55.5t-6 55.5t-18 49t-31 35t-44 13.5h-4
q-25 0 -44 -13.5t-31 -35t-18 -49t-6 -55.5zM925 -170v-55h-657v55h657zM-20 -225v55h128l522 870h65l-555 -925h-160z" />
    <glyph glyph-name="ampersand" unicode="&#x26;" horiz-adv-x="642" 
d="M498 0h-252q-39 0 -73.5 12.5t-60 36.5t-40 58.5t-14.5 77.5q0 60 31 106t84 64q-48 19 -79 61t-31 104q0 43 15.5 76.5t41.5 56.5t61 35t74 12h123v-65h-116q-52 0 -91.5 -32.5t-39.5 -92.5q0 -56 40 -89t97 -33h162v126h68v-126h115v-65h-115v-323zM430 65v258h-162
q-61 0 -101.5 -32t-40.5 -91q0 -66 40.5 -100.5t102.5 -34.5h161zM662 -170v-55h-682v55h682z" />
    <glyph glyph-name="quotesingle" unicode="'" horiz-adv-x="187" 
d="M81 490l-19 130v80h65v-80l-24 -130h-22z" />
    <glyph glyph-name="parenleft" unicode="(" horiz-adv-x="377" 
d="M317 -170h80v-55h-80q-59 0 -108 44.5t-83.5 121.5t-54 182.5t-19.5 226.5q0 105 19.5 195t54 155.5t83.5 103.5t108 41v-55q-45 -3 -82 -37.5t-63 -92.5t-40.5 -137.5t-14.5 -172.5q0 -109 14.5 -204.5t40.5 -165.5t63 -110t82 -40z" />
    <glyph glyph-name="parenright" unicode=")" horiz-adv-x="377" 
d="M60 -170q45 0 82 40t63 110t40.5 165.5t14.5 204.5q0 93 -14.5 172.5t-40.5 137.5t-63 92.5t-82 37.5v55q59 -3 108 -41t83.5 -103.5t54 -155.5t19.5 -195q0 -121 -19.5 -226.5t-54 -182.5t-83.5 -121.5t-108 -44.5h-80v55h80z" />
    <glyph glyph-name="asterisk" unicode="*" horiz-adv-x="429" 
d="M318 455l-44 -25l-60 104l-60 -104l-43 25l60 104h-120v50h120l-60 104l44 25l60 -104l60 104l43 -25l-60 -104h120v-50h-120zM449 -170v-55h-469v55h469z" />
    <glyph glyph-name="plus" unicode="+" horiz-adv-x="585" 
d="M540 228h-215v-213h-65v213h-215v60h215v212h65v-212h215v-60zM605 -170v-55h-625v55h625z" />
    <glyph glyph-name="comma" unicode="," horiz-adv-x="240" 
d="M75 -225h-95v55h85q30 0 45 15t15 45v110h-55v100h100v-230q0 -45 -24.5 -70t-70.5 -25z" />
    <glyph glyph-name="hyphen" unicode="-" horiz-adv-x="388" 
d="M69 275v55h250v-55h-250zM408 -170v-55h-428v55h428z" />
    <glyph glyph-name="period" unicode="." horiz-adv-x="240" 
d="M70 0v100h100v-100h-100zM260 -170v-55h-280v55h280z" />
    <glyph glyph-name="slash" unicode="/" horiz-adv-x="409" 
d="M-53 -225l357 925h70l-357 -925h-70zM429 -170v-55h-290v55h290z" />
    <glyph glyph-name="zero" unicode="0" horiz-adv-x="648" 
d="M324 -10q-125 0 -195 92.5t-70 267.5t70 267.5t195 92.5t195 -92.5t70 -267.5t-70 -267.5t-195 -92.5zM319 55h10q31 0 65.5 13.5t62 47t46 90.5t18.5 144t-18.5 144t-46 90.5t-62 47t-65.5 13.5h-10q-31 0 -65.5 -13.5t-62 -47t-46 -90.5t-18.5 -144t18.5 -144t46 -90.5
t62 -47t65.5 -13.5zM668 -170v-55h-688v55h688z" />
    <glyph glyph-name="one" unicode="1" horiz-adv-x="363" 
d="M265 0h-65v600l-169 -160v82l183 178h51v-700zM383 -170v-55h-403v55h403z" />
    <glyph glyph-name="two" unicode="2" horiz-adv-x="557" 
d="M504 0h-453v70l281 285q29 30 47.5 51.5t29 39t14 34.5t3.5 37q0 52 -40.5 90t-100.5 38h-10q-67 0 -107.5 -41t-41.5 -108h-68q1 94 62 154t158 60q96 0 156 -54.5t60 -138.5q0 -63 -29 -105.5t-74 -88.5l-251 -256h364v-67zM577 -170v-55h-597v55h597z" />
    <glyph glyph-name="three" unicode="3" horiz-adv-x="572" 
d="M280 -10q-101 0 -160 49t-69 139h68q11 -58 52 -90.5t104 -32.5h10q32 0 60.5 8.5t50 25.5t34 42.5t12.5 57.5q0 60 -44.5 94t-107.5 34h-45v65h54q63 0 100.5 38t37.5 90q0 63 -44 99t-107 36h-10q-60 0 -99.5 -36t-44.5 -89h-68q4 81 65 135.5t152 54.5q47 0 88 -12.5
t71 -36.5t47.5 -60t17.5 -83q0 -57 -33.5 -102.5t-81.5 -65.5q48 -16 84 -57.5t36 -106.5q0 -49 -19 -85.5t-51 -61t-73.5 -37t-86.5 -12.5zM592 -170v-55h-612v55h612z" />
    <glyph glyph-name="four" unicode="4" horiz-adv-x="589" 
d="M442 0h-65v169h-349v74l338 457h76v-468h115v-63h-115v-169zM377 232v388l-285 -388h285zM609 -170v-55h-629v55h629z" />
    <glyph glyph-name="five" unicode="5" horiz-adv-x="567" 
d="M276 -10q-46 0 -87.5 12t-73.5 36t-52 59.5t-24 82.5h68q8 -61 55 -93t109 -32h10q72 0 117 47.5t45 117.5q0 67 -42.5 110t-108.5 43h-10q-39 0 -82 -20t-68 -60h-67l84 407h355v-67h-299l-54 -250q26 26 64.5 40.5t81.5 14.5q49 0 88.5 -16.5t67.5 -45t43 -67.5t15 -84
q0 -51 -18 -94.5t-50 -74.5t-75 -48.5t-92 -17.5zM587 -170v-55h-607v55h607z" />
    <glyph glyph-name="six" unicode="6" horiz-adv-x="605" 
d="M543 234q0 -56 -18 -101.5t-49 -77t-73 -48.5t-91 -17q-121 0 -188 92.5t-67 249.5q0 83 20.5 153t57 119.5t88 77.5t111.5 28q87 0 145 -46t74 -129h-68q-13 49 -53.5 79.5t-92.5 30.5h-10q-44 0 -81.5 -22.5t-65 -63.5t-45 -98.5t-20.5 -126.5q26 66 83 96t117 30
q50 0 91.5 -17t71.5 -47t46.5 -71.5t16.5 -90.5zM140 226q0 -73 47.5 -122t118.5 -49h10q68 0 113.5 48.5t45.5 121.5q0 72 -43.5 121t-115.5 49h-10q-71 0 -118.5 -48.5t-47.5 -120.5zM625 -170v-55h-645v55h645z" />
    <glyph glyph-name="seven" unicode="7" horiz-adv-x="520" 
d="M220 0h-68v29q0 113 19.5 209t55 171.5t85 132t109.5 91.5h-397v67h465v-80q-131 -83 -200 -227.5t-69 -372.5v-20zM540 -170v-55h-560v55h560z" />
    <glyph glyph-name="eight" unicode="8" horiz-adv-x="562" 
d="M281 -10q-92 0 -150.5 51t-58.5 135q0 66 37 108.5t81 57.5q-25 7 -49 23.5t-42.5 39t-29.5 50.5t-11 60q0 87 62 141t161 54t161 -54t62 -141q0 -32 -11 -60t-29.5 -50.5t-42.5 -39t-49 -23.5q44 -15 81 -57.5t37 -108.5q0 -84 -58.5 -135t-150.5 -51zM276 645
q-64 0 -107 -38t-43 -97q0 -54 43.5 -92.5t106.5 -38.5h10q63 0 106.5 38.5t43.5 92.5q0 59 -43 97t-107 38h-10zM423 181q0 53 -39.5 90.5t-97.5 37.5h-10q-58 0 -97.5 -37.5t-39.5 -90.5q0 -55 39.5 -90.5t97.5 -35.5h10q58 0 97.5 35.5t39.5 90.5zM582 -170v-55h-602v55
h602z" />
    <glyph glyph-name="nine" unicode="9" horiz-adv-x="605" 
d="M465 474q0 73 -47.5 122t-118.5 49h-10q-68 0 -113.5 -48.5t-45.5 -121.5q0 -72 43.5 -121t115.5 -49h10q71 0 118.5 48.5t47.5 120.5zM271 -10q-87 0 -145 46t-74 129h68q13 -49 53.5 -79.5t92.5 -30.5h10q44 0 81.5 22.5t65 63.5t45 98.5t20.5 126.5q-26 -66 -83 -96
t-117 -30q-50 0 -91.5 17t-71.5 47t-46.5 71.5t-16.5 90.5q0 56 18 101.5t49 77t73 48.5t91 17q121 0 188 -92.5t67 -249.5q0 -83 -20.5 -153t-57 -119.5t-88 -77.5t-111.5 -28zM625 -170v-55h-645v55h645z" />
    <glyph glyph-name="colon" unicode=":" horiz-adv-x="238" 
d="M69 400v100h100v-100h-100zM69 0v100h100v-100h-100zM258 -170v-55h-278v55h278z" />
    <glyph glyph-name="semicolon" unicode=";" horiz-adv-x="271" 
d="M91 400v100h100v-100h-100zM96 -225h-116v55h106q30 0 45 15t15 45v110h-55v100h100v-230q0 -45 -24.5 -70t-70.5 -25z" />
    <glyph glyph-name="less" unicode="&#x3c;" horiz-adv-x="540" 
d="M469 51l-425 177v56l425 177v-73l-330 -130l330 -131v-76zM560 -170v-55h-580v55h580z" />
    <glyph glyph-name="equal" unicode="=" horiz-adv-x="642" 
d="M74 315v65h494v-65h-494zM74 134v65h494v-65h-494zM662 -170v-55h-682v55h682z" />
    <glyph glyph-name="greater" unicode="&#x3e;" horiz-adv-x="540" 
d="M71 51v73l330 131l-330 130v76l425 -177v-56zM560 -170v-55h-580v55h580z" />
    <glyph glyph-name="question" unicode="?" horiz-adv-x="452" 
d="M137 332q0 45 17.5 62.5t62.5 17.5h20q56 0 83 34.5t27 79.5t-30 77t-90 32h-191v65h205q75 0 124.5 -49t49.5 -124q0 -41 -13.5 -74.5t-36 -57t-52.5 -36t-64 -12.5h-13q-19 0 -26.5 -7.5t-7.5 -26.5v-108h-65v127zM132 0v85h75v-85h-75zM472 -170v-55h-492v55h492z" />
    <glyph glyph-name="at" unicode="@" horiz-adv-x="919" 
d="M939 -225h-371q-108 0 -202.5 31.5t-163.5 94.5t-109 158t-40 221q0 102 29 185.5t82 142t128.5 90.5t168.5 32q88 0 162.5 -27.5t127.5 -77t82.5 -119t29.5 -152.5q0 -70 -21 -119.5t-52 -80.5t-68.5 -45t-69.5 -14h-74v77q-11 -31 -46 -59t-86 -28q-38 0 -71.5 14.5
t-58 42t-39 68t-14.5 90.5t14.5 89.5t39 66t58 40.5t71.5 14q51 0 83.5 -24.5t48.5 -55.5v70h60v-350h9q19 0 45.5 7.5t49.5 29t39.5 62t16.5 105.5q0 72 -24 131.5t-67.5 101t-106 65t-139.5 23.5t-140.5 -28.5t-108.5 -80t-69.5 -125t-24.5 -161.5q0 -106 33.5 -190
t93 -141.5t143.5 -88t185 -30.5h366v-55zM447 140h8q49 0 86 44t37 116q0 38 -10.5 67.5t-28 48.5t-39.5 29t-45 10h-8q-48 0 -83.5 -39t-35.5 -116q0 -72 34 -116t85 -44zM118 -170v-55h-138v55h138z" />
    <glyph glyph-name="A" unicode="A" horiz-adv-x="677" 
d="M490 258l-153 378l-153 -378h306zM8 0l287 700h88l285 -700h-74l-78 193h-358l-78 -193h-72zM-30 -225v55h737v-55h-737z" />
    <glyph glyph-name="B" unicode="B" horiz-adv-x="656" 
d="M396 0h-299v700h297q39 0 73.5 -12.5t60 -36t40 -57.5t14.5 -77q0 -60 -34 -104.5t-78 -57.5q22 -1 44.5 -13.5t41 -33.5t30 -50.5t11.5 -64.5q0 -45 -15.5 -81t-43 -60.5t-64 -38t-78.5 -13.5zM167 387h215q56 0 93 32t37 92t-37 92t-93 32h-215v-248zM167 65h214
q63 0 104.5 33t41.5 96t-41 95.5t-104 32.5h-215v-257zM-20 -225v55h696v-55h-696z" />
    <glyph glyph-name="C" unicode="C" horiz-adv-x="694" 
d="M124 350q0 -60 16 -114t46.5 -94t76.5 -63.5t106 -23.5h10q37 0 71.5 10.5t61 31t43 50.5t19.5 68h70q-3 -52 -25 -94t-58 -71t-84.5 -44.5t-102.5 -15.5q-74 0 -133.5 27.5t-101 75.5t-63.5 114.5t-22 142.5t22 142.5t63.5 114.5t101 75.5t133.5 27.5q54 0 102.5 -15.5
t84.5 -44.5t58 -71t25 -94h-70q-3 38 -19.5 68t-43 50.5t-61 31t-71.5 10.5h-10q-60 0 -106 -23.5t-76.5 -63.5t-46.5 -94t-16 -114zM-20 -225v55h734v-55h-734z" />
    <glyph glyph-name="D" unicode="D" horiz-adv-x="707" 
d="M97 0v700h240q71 0 129.5 -24t99.5 -69.5t63.5 -111t22.5 -147.5t-22.5 -147t-63.5 -109.5t-99.5 -68t-129.5 -23.5h-240zM167 65h160q122 0 188.5 74t66.5 211t-66.5 211t-188.5 74h-160v-570zM-20 -225v55h747v-55h-747z" />
    <glyph glyph-name="E" unicode="E" horiz-adv-x="642" 
d="M596 0h-499v700h489v-65h-419v-242h359v-65h-359v-263h429v-65zM-20 -225v55h682v-55h-682z" />
    <glyph glyph-name="F" unicode="F" horiz-adv-x="590" 
d="M97 0v700h465v-65h-395v-263h344v-65h-344v-307h-70zM-20 -225v55h630v-55h-630z" />
    <glyph glyph-name="G" unicode="G" horiz-adv-x="728" 
d="M379 55h10q41 0 79 13t67 37.5t46.5 60.5t17.5 83v36h-215v65h215q32 0 48.5 -16.5t16.5 -48.5v-285h-65v91q-32 -46 -89.5 -73.5t-125.5 -27.5q-78 0 -140 27t-104 74.5t-64 114t-22 144.5t22 144.5t64 114t104 74.5t140 27q118 0 191 -65.5t84 -169.5h-70
q-12 80 -65.5 125t-134.5 45h-10q-56 0 -103 -19.5t-80.5 -57t-52.5 -92.5t-19 -126t19 -126t52.5 -92.5t80.5 -57t103 -19.5zM-20 -225v55h768v-55h-768z" />
    <glyph glyph-name="H" unicode="H" horiz-adv-x="729" 
d="M97 0v700h70v-317h395v317h70v-700h-70v318h-395v-318h-70zM-20 -225v55h769v-55h-769z" />
    <glyph glyph-name="I" unicode="I" horiz-adv-x="264" 
d="M167 0h-70v700h70v-700zM-20 -225v55h304v-55h-304z" />
    <glyph glyph-name="J" unicode="J" horiz-adv-x="387" 
d="M136 0h-110v65h109q47 0 68.5 30.5t21.5 84.5v520h70v-517q0 -91 -42 -137t-117 -46zM-20 -225v55h427v-55h-427z" />
    <glyph glyph-name="K" unicode="K" horiz-adv-x="669" 
d="M570 0l-252 367l-151 -149v-218h-70v700h70v-390l393 390h93l-285 -283l289 -417h-87zM-20 -225v55h709v-55h-709z" />
    <glyph glyph-name="L" unicode="L" horiz-adv-x="602" 
d="M97 0v700h70v-635h419v-65h-489zM-20 -225v55h642v-55h-642z" />
    <glyph glyph-name="M" unicode="M" horiz-adv-x="919" 
d="M412 0l-246 646v-646h-69v700h119l246 -648l244 648h116v-700h-69v643l-244 -643h-97zM-20 -225v55h959v-55h-959z" />
    <glyph glyph-name="N" unicode="N" horiz-adv-x="739" 
d="M557 0l-390 603v-603h-70v700h90l385 -593v593h70v-700h-85zM-20 -225v55h779v-55h-779z" />
    <glyph glyph-name="O" unicode="O" horiz-adv-x="748" 
d="M54 350q0 84 24 151t67 113.5t101.5 71t127.5 24.5t127.5 -24.5t101.5 -71t67 -113.5t24 -151t-24 -151t-67 -113.5t-101.5 -71t-127.5 -24.5t-127.5 24.5t-101.5 71t-67 113.5t-24 151zM124 350q0 -68 18.5 -123t51 -93t77.5 -58.5t98 -20.5h10q53 0 98 20.5t77.5 58.5
t51 93t18.5 123t-18.5 123t-51 93t-77.5 58.5t-98 20.5h-10q-53 0 -98 -20.5t-77.5 -58.5t-51 -93t-18.5 -123zM-20 -225v55h788v-55h-788z" />
    <glyph glyph-name="P" unicode="P" horiz-adv-x="633" 
d="M97 0v700h280q45 0 85 -13.5t70 -39.5t47.5 -65t17.5 -89t-17.5 -88.5t-47.5 -64.5t-70 -39t-85 -13h-210v-288h-70zM167 353h195q73 0 119 34.5t46 105.5t-46 106.5t-119 35.5h-195v-282zM-20 -225v55h673v-55h-673z" />
    <glyph glyph-name="Q" unicode="Q" horiz-adv-x="748" 
d="M445 -225q-52 0 -78.5 27t-26.5 79v111q-62 6 -115 33t-90.5 72.5t-59 109.5t-21.5 143q0 84 24 151t67 113.5t101.5 71t127.5 24.5t127.5 -24.5t101.5 -71t67 -113.5t24 -151q0 -78 -21.5 -142t-59 -109.5t-89.5 -73t-114 -33.5v-112q0 -26 12 -38t38 -12h308v-55h-323z
M124 350q0 -68 18.5 -123t51 -93t77.5 -58.5t98 -20.5h10q53 0 98 20.5t77.5 58.5t51 93t18.5 123t-18.5 123t-51 93t-77.5 58.5t-98 20.5h-10q-53 0 -98 -20.5t-77.5 -58.5t-51 -93t-18.5 -123zM-20 -225v55h260v-55h-260z" />
    <glyph glyph-name="R" unicode="R" horiz-adv-x="675" 
d="M167 635v-275h206q30 0 58 10t49 28.5t34 45t13 59.5q0 62 -41 97t-113 35h-206zM167 0h-70v700h286q46 0 85.5 -14t68 -39t44.5 -59.5t16 -74.5q0 -60 -29 -104.5t-77 -63.5h7q49 0 69 -23t20 -72v-250h-70v250q0 22 -11.5 33.5t-33.5 11.5h-305v-295zM-20 -225v55h715
v-55h-715z" />
    <glyph glyph-name="S" unicode="S" horiz-adv-x="618" 
d="M497 495q-4 69 -53.5 109.5t-121.5 40.5h-10q-72 0 -118.5 -38.5t-46.5 -95.5q0 -47 31.5 -75t84.5 -38l112 -22q86 -17 133.5 -63t47.5 -124q0 -92 -66 -145.5t-178 -53.5q-129 0 -199.5 60.5t-70.5 169.5h70q0 -79 56 -122t143 -43h10q80 0 122.5 38t42.5 92
q0 49 -32 78t-98 42l-112 23q-79 16 -123 60.5t-44 121.5q0 41 16.5 77.5t47.5 63.5t75.5 43t100.5 16q111 0 178.5 -58t71.5 -157h-70zM-20 -225v55h658v-55h-658z" />
    <glyph glyph-name="T" unicode="T" horiz-adv-x="610" 
d="M270 0v635h-255v65h580v-65h-255v-635h-70zM-20 -225v55h650v-55h-650z" />
    <glyph glyph-name="U" unicode="U" horiz-adv-x="690" 
d="M600 250q0 -58 -16.5 -106t-48 -82t-79.5 -53t-111 -19q-65 0 -113 19t-79.5 53t-47 82t-15.5 106v450h70v-440q0 -96 46 -150.5t134 -54.5h10q88 0 134 54.5t46 150.5v440h70v-450zM-20 -225v55h730v-55h-730z" />
    <glyph glyph-name="V" unicode="V" horiz-adv-x="680" 
d="M304 0l-299 700h75l264 -622l251 622h75l-288 -700h-78zM-20 -225v55h720v-55h-720z" />
    <glyph glyph-name="W" unicode="W" horiz-adv-x="917" 
d="M613 0l-154 627l-155 -627h-106l-173 700h71l157 -646l155 646h104l157 -641l153 641h70l-173 -700h-106zM-20 -225v55h957v-55h-957z" />
    <glyph glyph-name="X" unicode="X" horiz-adv-x="623" 
d="M527 0l-216 301l-218 -301h-81l258 357l-246 343h83l205 -285l206 285h81l-247 -341l258 -359h-83zM-20 -225v55h663v-55h-663z" />
    <glyph glyph-name="Y" unicode="Y" horiz-adv-x="594" 
d="M332 0h-70v290l-255 410h79l212 -346l212 346h77l-255 -410v-290zM-20 -225v55h634v-55h-634z" />
    <glyph glyph-name="Z" unicode="Z" horiz-adv-x="596" 
d="M41 0v74l426 561h-416v65h495v-69l-429 -566h439v-65h-515zM-20 -225v55h636v-55h-636z" />
    <glyph glyph-name="bracketleft" unicode="[" horiz-adv-x="318" 
d="M91 -225v1070h200v-55h-135v-960h182v-55h-247z" />
    <glyph glyph-name="backslash" unicode="\" horiz-adv-x="409" 
d="M462 -225h-70l-357 925h70zM270 -170v-55h-290v55h290z" />
    <glyph glyph-name="bracketright" unicode="]" horiz-adv-x="318" 
d="M227 845v-1070h-247v55h182v960h-135v55h200z" />
    <glyph glyph-name="asciicircum" unicode="^" horiz-adv-x="516" 
d="M408 285l-151 356l-151 -356h-65l177 415h79l178 -415h-67zM536 -170v-55h-556v55h556z" />
    <glyph glyph-name="underscore" unicode="_" horiz-adv-x="490" 
d="M30 0v55h430v-55h-430z" />
    <glyph glyph-name="grave" unicode="`" horiz-adv-x="202" 
d="M110 700l57 -130h-49l-88 130h80z" />
    <glyph glyph-name="a" unicode="a" horiz-adv-x="517" 
d="M377 180v67l-145 -10q-53 -4 -86.5 -29t-33.5 -66t28.5 -69t71.5 -28h10q26 0 53.5 10.5t50 29t37 43t14.5 52.5zM442 110q0 -22 0.5 -53t4.5 -57h-60q-3 16 -4 38t-1 42q-15 -34 -63 -62t-114 -28t-112 42.5t-46 105.5q0 41 16 69t41 45t55.5 25.5t59.5 10.5l158 12v20
q0 64 -34 99.5t-91 35.5h-5q-48 0 -84 -24t-41 -71h-65q4 66 58 108t134 42q49 0 85 -15.5t60 -41.5t36 -60.5t12 -72.5v-210zM-20 -225v55h557v-55h-557z" />
    <glyph glyph-name="b" unicode="b" horiz-adv-x="585" 
d="M535 250q0 -119 -63 -189.5t-160 -70.5q-49 0 -97 24.5t-70 65.5v-80h-65v700h65v-280q22 41 70 65.5t97 24.5q97 0 160 -70.5t63 -189.5zM145 250q0 -40 10 -77.5t29.5 -65.5t50 -45t70.5 -17h5q40 0 70 17t49.5 45t29.5 65.5t10 77.5t-10 77.5t-29.5 65.5t-49.5 45
t-70 17h-5q-40 0 -70.5 -17t-50 -45t-29.5 -65.5t-10 -77.5zM-20 -225v55h625v-55h-625z" />
    <glyph glyph-name="c" unicode="c" horiz-adv-x="521" 
d="M280 -10q-55 0 -98 20t-72.5 55t-44.5 82.5t-15 102.5t15 102.5t44.5 82.5t72.5 55t98 20q81 0 134.5 -46t60.5 -124h-65q-8 50 -41.5 82.5t-83.5 32.5h-10q-41 0 -71 -17t-50 -45t-29.5 -65t-9.5 -78t9.5 -78t29.5 -65t50 -45t71 -17h10q50 0 82.5 33.5t42.5 81.5h65
q-13 -77 -63.5 -123.5t-131.5 -46.5zM-20 -225v55h561v-55h-561z" />
    <glyph glyph-name="d" unicode="d" horiz-adv-x="585" 
d="M280 45q40 0 70.5 17t50 45t29.5 65.5t10 77.5t-10 77.5t-29.5 65.5t-50 45t-70.5 17h-5q-40 0 -70 -17t-49.5 -45t-29.5 -65.5t-10 -77.5t10 -77.5t29.5 -65.5t49.5 -45t70 -17h5zM273 -10q-97 0 -160 70.5t-63 189.5t63 189.5t160 70.5q49 0 97 -24.5t70 -65.5v280h65
v-700h-65v80q-22 -41 -70 -65.5t-97 -24.5zM-20 -225v55h625v-55h-625z" />
    <glyph glyph-name="e" unicode="e" horiz-adv-x="524" 
d="M273 -10q-47 0 -87.5 17t-70.5 49.5t-47.5 81.5t-17.5 113q0 65 18.5 114t49.5 81t71.5 48t83.5 16q46 0 83 -17t63.5 -47.5t41 -71.5t14.5 -89v-40h-360q1 -53 14 -91t34.5 -62t49.5 -35.5t59 -11.5h6q45 0 81 24t50 74h65q-16 -75 -70.5 -114t-130.5 -39zM267 455
q-24 0 -48.5 -7.5t-45 -25.5t-36 -48t-20.5 -74h293q-2 66 -38 110.5t-95 44.5h-10zM544 -170v-55h-564v55h564z" />
    <glyph glyph-name="f" unicode="f" horiz-adv-x="351" 
d="M241 645q-22 0 -31 -9t-9 -31v-105h130v-55h-130v-445h-65v445h-115v55h115v110q0 49 23 69.5t72 20.5h125v-55h-115zM371 -170v-55h-391v55h391z" />
    <glyph glyph-name="g" unicode="g" horiz-adv-x="577" 
d="M432 250q0 93 -43.5 149t-110.5 56h-10q-67 0 -110 -56t-43 -149t43 -144t110 -51h10q67 0 110.5 51t43.5 144zM271 -170q32 0 61 9.5t51 30.5t35.5 54t13.5 80v86q-22 -41 -64 -65.5t-102 -24.5q-47 0 -86.5 16.5t-68.5 48.5t-45 78.5t-16 106.5t16 108t45 82t68.5 52
t86.5 18q60 0 102 -24.5t64 -65.5v80h65v-501q0 -49 -16 -90t-45.5 -70.5t-72.5 -46.5t-97 -17h-286v55h291z" />
    <glyph glyph-name="h" unicode="h" horiz-adv-x="570" 
d="M145 270v-270h-65v700h65v-285q25 44 71 69.5t109 25.5q83 0 126.5 -51t43.5 -129v-330h-65v310q0 72 -30 108.5t-90 36.5h-10q-29 0 -57 -12.5t-49.5 -36.5t-35 -58.5t-13.5 -77.5zM590 -170v-55h-610v55h610z" />
    <glyph glyph-name="i" unicode="i" horiz-adv-x="225" 
d="M75 590v85h75v-85h-75zM145 0h-65v500h65v-500zM245 -170v-55h-265v55h265z" />
    <glyph glyph-name="j" unicode="j" horiz-adv-x="233" 
d="M83 590v85h75v-85h-75zM153 500v-635q0 -49 -23 -69.5t-72 -20.5h-140v55h130q22 0 31 9t9 31v630h65z" />
    <glyph glyph-name="k" unicode="k" horiz-adv-x="524" 
d="M429 0l-183 256l-101 -96v-160h-65v700h65v-459l266 259h89l-208 -199l218 -301h-81zM544 -170v-55h-564v55h564z" />
    <glyph glyph-name="l" unicode="l" horiz-adv-x="225" 
d="M145 0h-65v700h65v-700zM245 -170v-55h-265v55h265z" />
    <glyph glyph-name="m" unicode="m" horiz-adv-x="890" 
d="M145 250v-250h-65v500h65v-80q22 39 65 64.5t100 25.5q54 0 96.5 -27t61.5 -78q26 51 71.5 78t105.5 27q72 0 121 -46.5t49 -136.5v-327h-65v307q0 75 -29 111.5t-86 36.5h-6q-38 0 -66 -17t-46.5 -45t-27.5 -65.5t-9 -77.5v-250h-65v307q0 75 -29 111.5t-86 36.5h-6
q-38 0 -66 -17t-46.5 -45t-27.5 -65.5t-9 -77.5zM910 -170v-55h-930v55h930z" />
    <glyph glyph-name="n" unicode="n" horiz-adv-x="570" 
d="M145 250v-250h-65v500h65v-84q22 41 68 67.5t107 26.5q75 0 125 -46.5t50 -136.5v-327h-65v307q0 75 -30 111.5t-90 36.5h-6q-40 0 -70 -17t-50 -45t-29.5 -65.5t-9.5 -77.5zM590 -170v-55h-610v55h610z" />
    <glyph glyph-name="o" unicode="o" horiz-adv-x="558" 
d="M279 -10q-48 0 -90 19t-73 53t-49 82t-18 106t18 106t49 82t73 53t90 19t90 -19t73 -53t49 -82t18 -106t-18 -106t-49 -82t-73 -53t-90 -19zM284 45q67 0 113 54.5t46 150.5t-46 150.5t-113 54.5h-10q-67 0 -113 -54.5t-46 -150.5t46 -150.5t113 -54.5h10zM578 -170v-55
h-598v55h598z" />
    <glyph glyph-name="p" unicode="p" horiz-adv-x="585" 
d="M305 455q-40 0 -70.5 -17t-50 -45t-29.5 -65.5t-10 -77.5t10 -77.5t29.5 -65.5t50 -45t70.5 -17h5q40 0 70 17t49.5 45t29.5 65.5t10 77.5t-10 77.5t-29.5 65.5t-49.5 45t-70 17h-5zM605 -170v-55h-365v55h365zM-20 -225v55h100v670h65v-80q22 41 70 65.5t97 24.5
q97 0 160 -70.5t63 -189.5t-63 -189.5t-160 -70.5q-49 0 -97 24.5t-70 65.5v-305h-165z" />
    <glyph glyph-name="q" unicode="q" horiz-adv-x="585" 
d="M280 455h-5q-40 0 -70 -17t-49.5 -45t-29.5 -65.5t-10 -77.5t10 -77.5t29.5 -65.5t49.5 -45t70 -17h5q40 0 70.5 17t50 45t29.5 65.5t10 77.5t-10 77.5t-29.5 65.5t-50 45t-70.5 17zM345 -170v-55h-365v55h365zM440 -225v305q-22 -41 -70 -65.5t-97 -24.5
q-97 0 -160 70.5t-63 189.5t63 189.5t160 70.5q49 0 97 -24.5t70 -65.5v80h65v-670h100v-55h-165z" />
    <glyph glyph-name="r" unicode="r" horiz-adv-x="358" 
d="M80 0v500h60v-114q17 60 60.5 89.5t94.5 29.5h45v-60h-40q-72 0 -113.5 -54t-41.5 -148v-243h-65zM378 -170v-55h-398v55h398z" />
    <glyph glyph-name="s" unicode="s" horiz-adv-x="477" 
d="M240 -10q-96 0 -145.5 45.5t-53.5 114.5h65q5 -51 41.5 -78t87.5 -27h10q52 0 82.5 24.5t30.5 65.5q0 29 -19 48t-69 29l-73 15q-57 12 -96.5 42.5t-39.5 93.5q0 35 14.5 63t39 46.5t57.5 28t68 9.5q48 0 82.5 -13.5t57.5 -35.5t34.5 -51t13.5 -60h-65q-4 41 -35.5 73
t-82.5 32h-10q-52 0 -80.5 -27t-28.5 -64q0 -27 21.5 -46t69.5 -29l78 -17q53 -11 90 -40t38 -92q1 -71 -50 -110.5t-133 -39.5zM497 -170v-55h-517v55h517z" />
    <glyph glyph-name="t" unicode="t" horiz-adv-x="356" 
d="M195 95q0 -22 9 -31t31 -9h100v-55h-110q-49 0 -72 20.5t-23 69.5v355h-115v55h115v162h65v-162h125v-55h-125v-350zM376 -170v-55h-396v55h396z" />
    <glyph glyph-name="u" unicode="u" horiz-adv-x="560" 
d="M415 0v94q-19 -49 -62.5 -76.5t-104.5 -27.5q-83 0 -128 51t-45 129v330h65v-310q0 -72 30 -108.5t90 -36.5h10q27 0 53.5 12.5t46.5 36.5t32.5 58.5t12.5 77.5v270h65v-500h-65zM580 -170v-55h-600v55h600z" />
    <glyph glyph-name="v" unicode="v" horiz-adv-x="503" 
d="M292 0h-81l-192 500h69l164 -441l164 441h68zM523 -170v-55h-543v55h543z" />
    <glyph glyph-name="w" unicode="w" horiz-adv-x="766" 
d="M496 0l-113 431l-113 -431h-86l-161 500h67l139 -442l113 442h83l118 -448l136 449l64 -1l-160 -500h-87zM786 -170v-55h-806v55h806z" />
    <glyph glyph-name="x" unicode="x" horiz-adv-x="500" 
d="M404 0l-155 205l-156 -205h-73l193 254l-186 246h76l148 -196l149 196h73l-186 -244l193 -256h-76zM520 -170v-55h-540v55h540z" />
    <glyph glyph-name="y" unicode="y" horiz-adv-x="520" 
d="M205 -225h-225v55h215q22 0 31 9t9 31v144l-212 486h71l172 -404l172 404h68l-206 -483v-155q0 -46 -23 -66.5t-72 -20.5zM540 -170v-55h-144v55h144z" />
    <glyph glyph-name="z" unicode="z" horiz-adv-x="472" 
d="M436 0h-395v61l310 384h-305v55h375v-59l-312 -386h327v-55zM492 -170v-55h-512v55h512z" />
    <glyph glyph-name="braceleft" unicode="{" horiz-adv-x="327" 
d="M103 360v-20q34 0 57 -18t23 -67v-345q0 -44 11.5 -62t48.5 -18h104v-55h-114q-62 0 -88.5 38.5t-26.5 116.5v285q0 40 -10 55t-40 15h-25v130h25q30 0 40 15t10 55v205q0 78 26.5 116.5t88.5 38.5h65v-55h-55q-37 0 -48.5 -18t-11.5 -62v-265q0 -49 -23 -67t-57 -18z
" />
    <glyph glyph-name="bar" unicode="|" horiz-adv-x="247" 
d="M267 -225h-287v55h111v955h65v-955h111v-55z" />
    <glyph glyph-name="braceright" unicode="}" horiz-adv-x="327" 
d="M224 340v20q-34 0 -57 18t-23 67v265q0 44 -11.5 62t-48.5 18h-55v55h65q62 0 88.5 -38.5t26.5 -116.5v-205q0 -40 10 -55t40 -15h25v-130h-25q-30 0 -40 -15t-10 -55v-285q0 -78 -26.5 -116.5t-88.5 -38.5h-114v55h104q37 0 48.5 18t11.5 62v345q0 49 23 67t57 18z" />
    <glyph glyph-name="asciitilde" unicode="~" horiz-adv-x="489" 
d="M254 373l-38 22q-13 8 -24.5 14t-22.5 6q-18 0 -29.5 -14.5t-11.5 -48.5h-50v10q0 54 26.5 79.5t66.5 25.5q22 0 40.5 -9.5t30.5 -16.5l40 -24q13 -7 23.5 -12.5t21.5 -5.5q18 0 29.5 14.5t11.5 48.5h50v-10q0 -50 -24.5 -77.5t-64.5 -27.5q-23 0 -43 9.5t-32 16.5z
M509 -170v-55h-529v55h529z" />
    <glyph glyph-name="exclamdown" unicode="&#xa1;" horiz-adv-x="222" 
d="M74 415v85h75v-85h-75zM76 -225v235l20 285h30l20 -285v-180h96v-55h-166z" />
    <glyph glyph-name="cent" unicode="&#xa2;" horiz-adv-x="526" 
d="M117 250q0 -61 23.5 -112t72.5 -71l64 378h-3q-40 0 -69.5 -16t-49 -42.5t-29 -62t-9.5 -74.5zM546 -170v-55h-212v55h212zM-20 -225v55h193l29 172q-74 24 -113.5 91.5t-39.5 156.5q0 55 15 102.5t44.5 82.5t72.5 55t98 20h4h5l19 110h61l-20 -120q52 -16 85.5 -58
t39.5 -102h-68q-5 32 -23 56.5t-45 37.5l-65 -379h2h10q49 0 81.5 30.5t41.5 74.5h68q-13 -77 -64 -123.5t-132 -46.5h-9q-5 0 -9 1l-36 -216h-245z" />
    <glyph glyph-name="sterling" unicode="&#xa3;" horiz-adv-x="557" 
d="M523 0h-475v65h20q39 0 58.5 23.5t22.5 66.5l10 138l-111 -25v60l116 26l10 137q7 101 55 155t147 54h97v-65h-100q-69 0 -97.5 -40t-33.5 -109l-9 -116l140 31v-60l-145 -33l-11 -144q-3 -37 -13.5 -60t-36.5 -39h356v-65zM577 -170v-55h-597v55h597z" />
    <glyph glyph-name="currency" unicode="&#xa4;" horiz-adv-x="709" 
d="M608 18l-90 86q-33 -30 -75.5 -47t-89.5 -17q-46 0 -88 16.5t-75 45.5l-88 -84l-44 44l90 90q-22 32 -33.5 71t-11.5 82t11.5 81t31.5 69l-88 88l44 44l87 -83q33 28 75 44.5t89 16.5q48 0 90.5 -16.5t75.5 -46.5l89 85l44 -44l-91 -91q20 -31 31 -68t11 -79
q0 -43 -11.5 -81t-31.5 -70l92 -92zM353 105h5q74 0 125.5 56.5t51.5 143.5t-51.5 141t-125.5 54h-10q-74 0 -125.5 -54t-51.5 -141q0 -44 14.5 -80.5t39.5 -63t58 -41.5t70 -15zM729 -170v-55h-749v55h749z" />
    <glyph glyph-name="yen" unicode="&#xa5;" horiz-adv-x="639" 
d="M355 0h-70v138l-146 -33v60l146 33v81l-176 -40v60l151 34l-230 367h79l212 -342l212 342h77l-211 -336l132 30v-60l-176 -40v-81l146 33v-60l-146 -33v-153zM659 -170v-55h-679v55h679z" />
    <glyph glyph-name="brokenbar" unicode="&#xa6;" horiz-adv-x="245" 
d="M90 430v355h65v-355h-65zM265 -225h-285v55h110v450h65v-450h110v-55z" />
    <glyph glyph-name="section" unicode="&#xa7;" horiz-adv-x="512" 
d="M274 -60h-189v65h198q43 0 63.5 19.5t20.5 52.5q0 25 -22 43.5t-68 35.5l-139 52q-48 18 -70.5 49t-22.5 65q0 39 25 73.5t69 61.5q-28 24 -43.5 49.5t-15.5 58.5q0 66 42.5 100.5t116.5 34.5h171v-65h-170q-42 0 -67 -17t-25 -53q0 -28 21 -45.5t67 -32.5l91 -30
q64 -21 103.5 -51t39.5 -88q0 -41 -24 -75t-70 -61q28 -22 43.5 -46t15.5 -59q0 -26 -9 -51t-28 -44t-49.5 -30.5t-74.5 -11.5zM227 246l88 -33q55 24 71 48.5t16 46.5q0 39 -36.5 58.5t-80.5 33.5l-87 28q-44 -18 -64.5 -45.5t-20.5 -52.5q0 -37 34.5 -52.5t79.5 -31.5z
M532 -170v-55h-552v55h552z" />
    <glyph glyph-name="dieresis" unicode="&#xa8;" horiz-adv-x="340" 
d="M45 590v80h75v-80h-75zM220 590v80h75v-80h-75z" />
    <glyph glyph-name="copyright" unicode="&#xa9;" horiz-adv-x="884" 
d="M442 -40q-80 0 -151.5 31t-124 83.5t-83.5 124t-31 151.5t31 151.5t83.5 124t124 83.5t151.5 31t151.5 -31t124 -83.5t83.5 -124t31 -151.5t-31 -151.5t-83.5 -124t-124 -83.5t-151.5 -31zM442 10q70 0 132 27t107.5 73t72 108t26.5 132t-26.5 132t-72 108t-107.5 73
t-132 27t-132 -27t-107.5 -73t-72 -108t-26.5 -132t26.5 -132t72 -108t107.5 -73t132 -27zM443 157q-37 0 -69.5 12t-57 36t-39 60.5t-14.5 84.5q0 89 49.5 144t130.5 54q62 -1 105 -34.5t50 -94.5h-61q-7 31 -31.5 55t-61.5 24h-5q-48 0 -81.5 -41t-33.5 -107t33.5 -104.5
t81.5 -38.5h5q37 0 64 22t34 57h61q-10 -61 -56 -95t-104 -34zM904 -170v-55h-924v55h924z" />
    <glyph glyph-name="ordfeminine" unicode="&#xaa;" horiz-adv-x="361" 
d="M158 455h3q30 0 51.5 18t22.5 52v32l-74 -8q-19 -2 -33.5 -15t-14.5 -35t13 -33t32 -11zM143 410q-36 0 -60.5 22.5t-24.5 62.5q0 43 25 65t62 26l90 10v9q0 25 -17 40t-40 15h-3q-21 0 -39.5 -13t-18.5 -38h-55q2 47 37 71.5t79 24.5t78 -26.5t34 -75.5v-126
q0 -16 0.5 -31t2.5 -31h-50q-2 12 -3.5 25t-1.5 25q-10 -28 -36.5 -41.5t-58.5 -13.5zM381 -170v-55h-401v55h401z" />
    <glyph glyph-name="guillemotleft" unicode="&#xab;" horiz-adv-x="489" 
d="M446 70h-76l-145 215l145 215h74l-144 -214zM262 70h-76l-145 215l145 215h74l-144 -214zM509 -170v-55h-529v55h529z" />
    <glyph glyph-name="logicalnot" unicode="&#xac;" horiz-adv-x="594" 
d="M518 130h-68v145h-377v65h445v-210zM614 -170v-55h-634v55h634z" />
    <glyph glyph-name="registered" unicode="&#xae;" horiz-adv-x="884" 
d="M442 -40q-80 0 -151.5 31t-124 83.5t-83.5 124t-31 151.5t31 151.5t83.5 124t124 83.5t151.5 31t151.5 -31t124 -83.5t83.5 -124t31 -151.5t-31 -151.5t-83.5 -124t-124 -83.5t-151.5 -31zM442 10q70 0 132 27t107.5 73t72 108t26.5 132t-26.5 132t-72 108t-107.5 73
t-132 27t-132 -27t-107.5 -73t-72 -108t-26.5 -132t26.5 -132t72 -108t107.5 -73t132 -27zM373 362h79q38 0 61 16t23 48q0 39 -22 53t-62 14h-79v-131zM312 167v376h165q57 0 88.5 -29.5t31.5 -73.5q0 -41 -22.5 -66t-53.5 -29q37 -1 54 -18t17 -62v-98h-61v99q0 24 -13 36
t-41 12h-104v-147h-61zM904 -170v-55h-924v55h924z" />
    <glyph glyph-name="macron" unicode="&#xaf;" horiz-adv-x="355" 
d="M40 590v55h275v-55h-275z" />
    <glyph glyph-name="degree" unicode="&#xb0;" horiz-adv-x="462" 
d="M231 340q-80 0 -132.5 53.5t-52.5 131.5t52.5 131.5t132.5 53.5q79 0 132 -53.5t53 -131.5t-53 -131.5t-132 -53.5zM231 398q51 0 87 37.5t36 89.5t-36 89.5t-87 37.5t-87 -37.5t-36 -89.5t36 -89.5t87 -37.5zM482 -170v-55h-502v55h502z" />
    <glyph glyph-name="plusminus" unicode="&#xb1;" horiz-adv-x="638" 
d="M566 290h-215v-140h-64v140h-215v65h215v145h64v-145h215v-65zM72 0v65h494v-65h-494zM658 -170v-55h-678v55h678z" />
    <glyph glyph-name="twosuperior" unicode="&#xb2;" horiz-adv-x="340" 
d="M303 415h-266v68l126 110q44 39 59.5 58.5t15.5 48.5t-19 47t-46 18h-5q-22 0 -45 -17.5t-23 -51.5h-61q0 55 40.5 87t92.5 32q54 0 90.5 -30.5t36.5 -84.5q0 -45 -24.5 -73.5t-54.5 -54.5l-123 -107h206v-50zM360 -170v-55h-380v55h380z" />
    <glyph glyph-name="threesuperior" unicode="&#xb3;" horiz-adv-x="349" 
d="M169 410q-52 0 -93 29.5t-41 84.5h61q1 -29 20.5 -46.5t49.5 -17.5h5q31 0 53.5 18t22.5 51q0 30 -19.5 46t-47.5 16h-44v47h46q28 0 45 15.5t17 45.5q0 33 -19.5 49.5t-50.5 16.5h-5q-30 0 -48 -16.5t-19 -43.5h-61q0 54 40.5 82t92.5 28t91.5 -28t39.5 -82
q0 -31 -15 -55t-40 -36q28 -11 43 -35.5t15 -55.5q0 -27 -12 -48t-31.5 -35.5t-44.5 -22t-51 -7.5zM369 -170v-55h-389v55h389z" />
    <glyph glyph-name="acute" unicode="&#xb4;" horiz-adv-x="237" 
d="M50 570l57 130h80l-88 -130h-49z" />
    <glyph glyph-name="paragraph" unicode="&#xb6;" horiz-adv-x="615" 
d="M-20 -225v55h263v495h-20q-43 0 -78.5 15t-61 40.5t-39.5 60t-14 72.5t14 72.5t38.5 59.5t59 40t75.5 15h346v-55h-60v-815h132v-55h-197v870h-130v-870h-328z" />
    <glyph glyph-name="periodcentered" unicode="&#xb7;" horiz-adv-x="238" 
d="M69 300v100h100v-100h-100zM258 -170v-55h-278v55h278z" />
    <glyph glyph-name="cedilla" unicode="&#xb8;" horiz-adv-x="258" 
d="M48 -225v55h63q20 0 34.5 11t14.5 33t-14.5 32.5t-34.5 10.5h-28v98h45v-60q32 1 57 -21.5t25 -59.5q0 -41 -25.5 -70t-74.5 -29h-62z" />
    <glyph glyph-name="onesuperior" unicode="&#xb9;" horiz-adv-x="259" 
d="M197 415h-57v320l-117 -94v59l136 110h38v-395zM279 -170v-55h-299v55h299z" />
    <glyph glyph-name="ordmasculine" unicode="&#xba;" horiz-adv-x="366" 
d="M183 705q60 0 95.5 -40.5t35.5 -107.5t-35.5 -107t-95.5 -40t-95.5 40t-35.5 107t35.5 107.5t95.5 40.5zM109 557q0 -45 20 -73.5t55 -28.5q36 0 54.5 28.5t18.5 73.5t-19.5 74t-54.5 29t-54.5 -29t-19.5 -74zM386 -170v-55h-406v55h406z" />
    <glyph glyph-name="guillemotright" unicode="&#xbb;" horiz-adv-x="489" 
d="M43 70l146 216l-144 214h74l145 -215l-145 -215h-76zM227 70l146 216l-144 214h74l145 -215l-145 -215h-76zM509 -170v-55h-529v55h529z" />
    <glyph glyph-name="onequarter" unicode="&#xbc;" horiz-adv-x="859" 
d="M206 700v-395h-57v320l-117 -94v59l136 110h38zM769 0h-56v96h-185v56l179 243h62v-249h54v-50h-54v-96zM586 146h127v176zM879 -170v-55h-637v55h637zM-20 -225v55h102l522 870h65l-555 -925h-134z" />
    <glyph glyph-name="onehalf" unicode="&#xbd;" horiz-adv-x="880" 
d="M207 700v-395h-57v320l-117 -94v59l136 110h38zM835 50v-50h-266v68l126 110q44 39 59.5 58.5t15.5 48.5t-19 47t-46 18h-5q-22 0 -45 -17.5t-23 -51.5h-61q0 55 40.5 87t92.5 32q54 0 90.5 -30.5t36.5 -84.5q0 -45 -24.5 -73.5t-54.5 -54.5l-123 -107h206zM900 -170v-55
h-679v55h679zM-20 -225v55h81l522 870h65l-555 -925h-113z" />
    <glyph glyph-name="threequarters" unicode="&#xbe;" horiz-adv-x="900" 
d="M315 413q0 -27 -12 -48t-31.5 -35.5t-44.5 -22t-51 -7.5q-52 0 -93 29.5t-41 84.5h61q1 -29 20.5 -46.5t49.5 -17.5h5q31 0 53.5 18t22.5 51q0 30 -19.5 46t-47.5 16h-44v47h46q28 0 45 15.5t17 45.5q0 33 -19.5 49.5t-50.5 16.5h-5q-30 0 -48 -16.5t-19 -43.5h-61
q0 54 40.5 82t92.5 28t91.5 -28t39.5 -82q0 -31 -15 -55t-40 -36q28 -11 43 -35.5t15 -55.5zM812 0h-56v96h-185v56l179 243h62v-249h54v-50h-54v-96zM629 146h127v176zM879 -170v-55h-582v55h582zM-20 -225v55h157l522 870h65l-555 -925h-189z" />
    <glyph glyph-name="questiondown" unicode="&#xbf;" horiz-adv-x="443" 
d="M316 500v-85h-75v85h75zM311 168q0 -45 -17.5 -62.5t-62.5 -17.5h-20q-56 0 -83 -40.5t-27 -93.5q0 -51 30 -87.5t90 -36.5h242v-55h-256q-75 0 -124.5 52.5t-49.5 130.5q0 44 13.5 80.5t36 61.5t52.5 39t64 14h13q19 0 26.5 7.5t7.5 26.5v108h65v-127z" />
    <glyph glyph-name="Agrave" unicode="&#xc0;" horiz-adv-x="677" 
d="M314 890l53 -125h-60l-83 125h90zM490 258l-153 378l-153 -378h306zM8 0l287 700h88l285 -700h-74l-78 193h-358l-78 -193h-72zM-30 -225v55h737v-55h-737z" />
    <glyph glyph-name="Aacute" unicode="&#xc1;" horiz-adv-x="677" 
d="M313 765l53 125h90l-83 -125h-60zM490 258l-153 378l-153 -378h306zM8 0l287 700h88l285 -700h-74l-78 193h-358l-78 -193h-72zM-30 -225v55h737v-55h-737z" />
    <glyph glyph-name="Acircumflex" unicode="&#xc2;" horiz-adv-x="677" 
d="M430 765l-92 72l-92 -72h-68l115 125h90l115 -125h-68zM490 258l-153 378l-153 -378h306zM8 0l287 700h88l285 -700h-74l-78 193h-358l-78 -193h-72zM-30 -225v55h737v-55h-737z" />
    <glyph glyph-name="Atilde" unicode="&#xc3;" horiz-adv-x="677" 
d="M417 760q-19 0 -35.5 8.5t-42.5 26.5q-21 16 -37.5 28t-35.5 12q-22 0 -31.5 -16.5t-9.5 -48.5h-50v23q0 41 25 69t62 28q21 0 37.5 -8.5t41.5 -26.5l39 -28q16 -12 34 -12q22 0 31 17t9 48h50v-23q0 -41 -25 -69t-62 -28zM490 258l-153 378l-153 -378h306zM8 0l287 700
h88l285 -700h-74l-78 193h-358l-78 -193h-72zM-30 -225v55h737v-55h-737z" />
    <glyph glyph-name="Adieresis" unicode="&#xc4;" horiz-adv-x="677" 
d="M205 780v80h80v-80h-80zM391 780v80h80v-80h-80zM490 258l-153 378l-153 -378h306zM8 0l287 700h88l285 -700h-74l-78 193h-358l-78 -193h-72zM-30 -225v55h737v-55h-737z" />
    <glyph glyph-name="Aring" unicode="&#xc5;" horiz-adv-x="677" 
d="M259 838q0 34 24 56.5t55 22.5t55 -22.5t24 -56.5t-24 -56.5t-55 -22.5t-55 22.5t-24 56.5zM339 872q-13 0 -23.5 -10.5t-10.5 -23.5t10.5 -23.5t23.5 -10.5t22.5 10.5t9.5 23.5t-9.5 23.5t-22.5 10.5zM490 258l-153 378l-153 -378h306zM8 0l287 700h88l285 -700h-74
l-78 193h-358l-78 -193h-72zM-30 -225v55h737v-55h-737z" />
    <glyph glyph-name="AE" unicode="&#xc6;" horiz-adv-x="984" 
d="M507 258l-53 384l-226 -384h279zM542 0l-26 193h-326l-114 -193h-79l415 700h485v-65h-373l33 -242h310v-65h-301l35 -263h356v-65h-415zM-20 -225v55h1024v-55h-1024z" />
    <glyph glyph-name="Ccedilla" unicode="&#xc7;" horiz-adv-x="694" 
d="M465 -126q0 -41 -25.5 -70t-74.5 -29h-385v55h386q20 0 34.5 11t14.5 33t-14.5 32.5t-34.5 10.5h-28v75q-66 6 -119 36t-89.5 77.5t-56 110t-19.5 134.5q0 76 22 142.5t63.5 114.5t101 75.5t133.5 27.5q54 0 102.5 -15.5t84.5 -44.5t58 -71t25 -94h-70q-3 38 -19.5 68
t-43 50.5t-61 31t-71.5 10.5h-10q-60 0 -106 -23.5t-76.5 -63.5t-46.5 -94t-16 -114t16 -114t46.5 -94t76.5 -63.5t106 -23.5h10q37 0 71.5 10.5t61 31t43 50.5t19.5 68h70q-3 -51 -24 -92t-56 -70t-81.5 -45.5t-99.5 -17.5v-35q32 1 57 -21.5t25 -59.5zM558 -225v55h156
v-55h-156z" />
    <glyph glyph-name="Egrave" unicode="&#xc8;" horiz-adv-x="642" 
d="M324 890l53 -125h-60l-83 125h90zM596 0h-499v700h489v-65h-419v-242h359v-65h-359v-263h429v-65zM-20 -225v55h682v-55h-682z" />
    <glyph glyph-name="Eacute" unicode="&#xc9;" horiz-adv-x="642" 
d="M307 765l53 125h90l-83 -125h-60zM596 0h-499v700h489v-65h-419v-242h359v-65h-359v-263h429v-65zM-20 -225v55h682v-55h-682z" />
    <glyph glyph-name="Ecircumflex" unicode="&#xca;" horiz-adv-x="642" 
d="M431 765l-92 72l-92 -72h-68l115 125h90l115 -125h-68zM596 0h-499v700h489v-65h-419v-242h359v-65h-359v-263h429v-65zM-20 -225v55h682v-55h-682z" />
    <glyph glyph-name="Edieresis" unicode="&#xcb;" horiz-adv-x="642" 
d="M206 780v80h80v-80h-80zM392 780v80h80v-80h-80zM596 0h-499v700h489v-65h-419v-242h359v-65h-359v-263h429v-65zM-20 -225v55h682v-55h-682z" />
    <glyph glyph-name="Igrave" unicode="&#xcc;" horiz-adv-x="264" 
d="M109 890l53 -125h-60l-83 125h90zM167 0h-70v700h70v-700zM-20 -225v55h304v-55h-304z" />
    <glyph glyph-name="Iacute" unicode="&#xcd;" horiz-adv-x="264" 
d="M108 765l53 125h90l-83 -125h-60zM167 0h-70v700h70v-700zM-20 -225v55h304v-55h-304z" />
    <glyph glyph-name="Icircumflex" unicode="&#xce;" horiz-adv-x="264" 
d="M224 765l-92 72l-92 -72h-68l115 125h90l115 -125h-68zM167 0h-70v700h70v-700zM-48 -225v55h360v-55h-360z" />
    <glyph glyph-name="Idieresis" unicode="&#xcf;" horiz-adv-x="264" 
d="M-1 780v80h80v-80h-80zM185 780v80h80v-80h-80zM167 0h-70v700h70v-700zM-20 -225v55h304v-55h-304z" />
    <glyph glyph-name="Eth" unicode="&#xd0;" horiz-adv-x="719" 
d="M349 0h-240v321h-100v60h100v319h240q71 0 129.5 -24t99.5 -69.5t63.5 -111t22.5 -147.5t-22.5 -147t-63.5 -109.5t-99.5 -68t-129.5 -23.5zM179 65h160q122 0 188.5 74t66.5 211t-66.5 211t-188.5 74h-160v-254h150v-60h-150v-256zM-20 -225v55h759v-55h-759z" />
    <glyph glyph-name="Ntilde" unicode="&#xd1;" horiz-adv-x="739" 
d="M458 760q-19 0 -35.5 8.5t-42.5 26.5q-21 16 -37.5 28t-35.5 12q-22 0 -31.5 -16.5t-9.5 -48.5h-50v23q0 41 25 69t62 28q21 0 37.5 -8.5t41.5 -26.5l39 -28q16 -12 34 -12q22 0 31 17t9 48h50v-23q0 -41 -25 -69t-62 -28zM557 0l-390 603v-603h-70v700h90l385 -593v593
h70v-700h-85zM-20 -225v55h779v-55h-779z" />
    <glyph glyph-name="Ograve" unicode="&#xd2;" horiz-adv-x="748" 
d="M359 890l53 -125h-60l-83 125h90zM54 350q0 84 24 151t67 113.5t101.5 71t127.5 24.5t127.5 -24.5t101.5 -71t67 -113.5t24 -151t-24 -151t-67 -113.5t-101.5 -71t-127.5 -24.5t-127.5 24.5t-101.5 71t-67 113.5t-24 151zM124 350q0 -68 18.5 -123t51 -93t77.5 -58.5
t98 -20.5h10q53 0 98 20.5t77.5 58.5t51 93t18.5 123t-18.5 123t-51 93t-77.5 58.5t-98 20.5h-10q-53 0 -98 -20.5t-77.5 -58.5t-51 -93t-18.5 -123zM-20 -225v55h788v-55h-788z" />
    <glyph glyph-name="Oacute" unicode="&#xd3;" horiz-adv-x="748" 
d="M351 765l53 125h90l-83 -125h-60zM54 350q0 84 24 151t67 113.5t101.5 71t127.5 24.5t127.5 -24.5t101.5 -71t67 -113.5t24 -151t-24 -151t-67 -113.5t-101.5 -71t-127.5 -24.5t-127.5 24.5t-101.5 71t-67 113.5t-24 151zM124 350q0 -68 18.5 -123t51 -93t77.5 -58.5
t98 -20.5h10q53 0 98 20.5t77.5 58.5t51 93t18.5 123t-18.5 123t-51 93t-77.5 58.5t-98 20.5h-10q-53 0 -98 -20.5t-77.5 -58.5t-51 -93t-18.5 -123zM-20 -225v55h788v-55h-788z" />
    <glyph glyph-name="Ocircumflex" unicode="&#xd4;" horiz-adv-x="748" 
d="M466 765l-92 72l-92 -72h-68l115 125h90l115 -125h-68zM54 350q0 84 24 151t67 113.5t101.5 71t127.5 24.5t127.5 -24.5t101.5 -71t67 -113.5t24 -151t-24 -151t-67 -113.5t-101.5 -71t-127.5 -24.5t-127.5 24.5t-101.5 71t-67 113.5t-24 151zM124 350q0 -68 18.5 -123
t51 -93t77.5 -58.5t98 -20.5h10q53 0 98 20.5t77.5 58.5t51 93t18.5 123t-18.5 123t-51 93t-77.5 58.5t-98 20.5h-10q-53 0 -98 -20.5t-77.5 -58.5t-51 -93t-18.5 -123zM-20 -225v55h788v-55h-788z" />
    <glyph glyph-name="Otilde" unicode="&#xd5;" horiz-adv-x="748" 
d="M461 760q-19 0 -35.5 8.5t-42.5 26.5q-21 16 -37.5 28t-35.5 12q-22 0 -31.5 -16.5t-9.5 -48.5h-50v23q0 41 25 69t62 28q21 0 37.5 -8.5t41.5 -26.5l39 -28q16 -12 34 -12q22 0 31 17t9 48h50v-23q0 -41 -25 -69t-62 -28zM54 350q0 84 24 151t67 113.5t101.5 71
t127.5 24.5t127.5 -24.5t101.5 -71t67 -113.5t24 -151t-24 -151t-67 -113.5t-101.5 -71t-127.5 -24.5t-127.5 24.5t-101.5 71t-67 113.5t-24 151zM124 350q0 -68 18.5 -123t51 -93t77.5 -58.5t98 -20.5h10q53 0 98 20.5t77.5 58.5t51 93t18.5 123t-18.5 123t-51 93
t-77.5 58.5t-98 20.5h-10q-53 0 -98 -20.5t-77.5 -58.5t-51 -93t-18.5 -123zM-20 -225v55h788v-55h-788z" />
    <glyph glyph-name="Odieresis" unicode="&#xd6;" horiz-adv-x="748" 
d="M241 780v80h80v-80h-80zM427 780v80h80v-80h-80zM54 350q0 84 24 151t67 113.5t101.5 71t127.5 24.5t127.5 -24.5t101.5 -71t67 -113.5t24 -151t-24 -151t-67 -113.5t-101.5 -71t-127.5 -24.5t-127.5 24.5t-101.5 71t-67 113.5t-24 151zM124 350q0 -68 18.5 -123t51 -93
t77.5 -58.5t98 -20.5h10q53 0 98 20.5t77.5 58.5t51 93t18.5 123t-18.5 123t-51 93t-77.5 58.5t-98 20.5h-10q-53 0 -98 -20.5t-77.5 -58.5t-51 -93t-18.5 -123zM-20 -225v55h788v-55h-788z" />
    <glyph glyph-name="multiply" unicode="&#xd7;" horiz-adv-x="535" 
d="M429 49l-161 162l-162 -162l-47 47l162 162l-162 161l47 47l162 -161l161 161l47 -47l-161 -161l161 -162zM555 -170v-55h-575v55h575z" />
    <glyph glyph-name="Oslash" unicode="&#xd8;" horiz-adv-x="752" 
d="M126 350q0 -60 14.5 -109.5t39.5 -86.5l348 441q-30 24 -67.5 37t-79.5 13h-10q-53 0 -98 -20.5t-77.5 -58.5t-51 -93t-18.5 -123zM381 55q53 0 98 20.5t77.5 58.5t51 93t18.5 123q0 60 -14 109t-39 86l-348 -440q30 -25 67 -37.5t79 -12.5h10zM376 -10q-55 0 -104 16
t-89 46l-63 -80l-52 41l68 86q-37 46 -58.5 109.5t-21.5 141.5q0 84 24 151t67 113.5t101.5 71t127.5 24.5q55 0 104 -16t89 -47l64 81l52 -41l-68 -86q37 -46 58 -109.5t21 -141.5q0 -84 -24 -151t-67 -113.5t-101.5 -71t-127.5 -24.5zM-20 -225v55h792v-55h-792z" />
    <glyph glyph-name="Ugrave" unicode="&#xd9;" horiz-adv-x="690" 
d="M331 890l53 -125h-60l-83 125h90zM600 250q0 -58 -16.5 -106t-48 -82t-79.5 -53t-111 -19q-65 0 -113 19t-79.5 53t-47 82t-15.5 106v450h70v-440q0 -96 46 -150.5t134 -54.5h10q88 0 134 54.5t46 150.5v440h70v-450zM-20 -225v55h730v-55h-730z" />
    <glyph glyph-name="Uacute" unicode="&#xda;" horiz-adv-x="690" 
d="M308 765l53 125h90l-83 -125h-60zM600 250q0 -58 -16.5 -106t-48 -82t-79.5 -53t-111 -19q-65 0 -113 19t-79.5 53t-47 82t-15.5 106v450h70v-440q0 -96 46 -150.5t134 -54.5h10q88 0 134 54.5t46 150.5v440h70v-450zM-20 -225v55h730v-55h-730z" />
    <glyph glyph-name="Ucircumflex" unicode="&#xdb;" horiz-adv-x="690" 
d="M437 765l-92 72l-92 -72h-68l115 125h90l115 -125h-68zM600 250q0 -58 -16.5 -106t-48 -82t-79.5 -53t-111 -19q-65 0 -113 19t-79.5 53t-47 82t-15.5 106v450h70v-440q0 -96 46 -150.5t134 -54.5h10q88 0 134 54.5t46 150.5v440h70v-450zM-20 -225v55h730v-55h-730z" />
    <glyph glyph-name="Udieresis" unicode="&#xdc;" horiz-adv-x="690" 
d="M212 780v80h80v-80h-80zM398 780v80h80v-80h-80zM600 250q0 -58 -16.5 -106t-48 -82t-79.5 -53t-111 -19q-65 0 -113 19t-79.5 53t-47 82t-15.5 106v450h70v-440q0 -96 46 -150.5t134 -54.5h10q88 0 134 54.5t46 150.5v440h70v-450zM-20 -225v55h730v-55h-730z" />
    <glyph glyph-name="Yacute" unicode="&#xdd;" horiz-adv-x="594" 
d="M273 765l53 125h90l-83 -125h-60zM332 0h-70v290l-255 410h79l212 -346l212 346h77l-255 -410v-290zM-20 -225v55h634v-55h-634z" />
    <glyph glyph-name="Thorn" unicode="&#xde;" horiz-adv-x="635" 
d="M97 700h70v-150h221q93 0 151 -51.5t58 -147.5t-58 -148.5t-151 -52.5h-221v-150h-70v700zM167 215h201q75 0 117 32t42 104t-42 103t-117 31h-201v-270zM-20 -225v55h675v-55h-675z" />
    <glyph glyph-name="germandbls" unicode="&#xdf;" horiz-adv-x="539" 
d="M559 -170v-55h-319v55h319zM-20 -225v55h100v673q0 106 52 156.5t144 50.5q83 0 136 -50.5t53 -128.5q0 -34 -9.5 -60.5t-24 -46.5t-32.5 -32.5t-35 -17.5q21 -3 43 -15.5t40.5 -34t30.5 -52t12 -69.5q0 -102 -57 -152.5t-155 -50.5h-58v60h64q78 0 109.5 41.5
t31.5 102.5q0 66 -42.5 102t-102.5 36h-60v55h50q34 0 58.5 12t40.5 31t23.5 42t7.5 44q0 52 -32.5 90.5t-86.5 38.5h-10q-49 0 -87.5 -35.5t-38.5 -124.5v-720h-165z" />
    <glyph glyph-name="agrave" unicode="&#xe0;" horiz-adv-x="517" 
d="M231 700l57 -130h-49l-88 130h80zM377 180v67l-145 -10q-53 -4 -86.5 -29t-33.5 -66t28.5 -69t71.5 -28h10q26 0 53.5 10.5t50 29t37 43t14.5 52.5zM442 110q0 -22 0.5 -53t4.5 -57h-60q-3 16 -4 38t-1 42q-15 -34 -63 -62t-114 -28t-112 42.5t-46 105.5q0 41 16 69
t41 45t55.5 25.5t59.5 10.5l158 12v20q0 64 -34 99.5t-91 35.5h-5q-48 0 -84 -24t-41 -71h-65q4 66 58 108t134 42q49 0 85 -15.5t60 -41.5t36 -60.5t12 -72.5v-210zM-20 -225v55h557v-55h-557z" />
    <glyph glyph-name="aacute" unicode="&#xe1;" horiz-adv-x="517" 
d="M227 570l57 130h80l-88 -130h-49zM377 180v67l-145 -10q-53 -4 -86.5 -29t-33.5 -66t28.5 -69t71.5 -28h10q26 0 53.5 10.5t50 29t37 43t14.5 52.5zM442 110q0 -22 0.5 -53t4.5 -57h-60q-3 16 -4 38t-1 42q-15 -34 -63 -62t-114 -28t-112 42.5t-46 105.5q0 41 16 69
t41 45t55.5 25.5t59.5 10.5l158 12v20q0 64 -34 99.5t-91 35.5h-5q-48 0 -84 -24t-41 -71h-65q4 66 58 108t134 42q49 0 85 -15.5t60 -41.5t36 -60.5t12 -72.5v-210zM-20 -225v55h557v-55h-557z" />
    <glyph glyph-name="acircumflex" unicode="&#xe2;" horiz-adv-x="517" 
d="M352 570l-100 75l-100 -75h-60l127 130h66l127 -130h-60zM377 180v67l-145 -10q-53 -4 -86.5 -29t-33.5 -66t28.5 -69t71.5 -28h10q26 0 53.5 10.5t50 29t37 43t14.5 52.5zM442 110q0 -22 0.5 -53t4.5 -57h-60q-3 16 -4 38t-1 42q-15 -34 -63 -62t-114 -28t-112 42.5
t-46 105.5q0 41 16 69t41 45t55.5 25.5t59.5 10.5l158 12v20q0 64 -34 99.5t-91 35.5h-5q-48 0 -84 -24t-41 -71h-65q4 66 58 108t134 42q49 0 85 -15.5t60 -41.5t36 -60.5t12 -72.5v-210zM-20 -225v55h557v-55h-557z" />
    <glyph glyph-name="atilde" unicode="&#xe3;" horiz-adv-x="517" 
d="M328 560q-19 0 -35.5 8.5t-42.5 26.5q-21 16 -37.5 28t-35.5 12q-22 0 -31.5 -16.5t-9.5 -48.5h-50v23q0 41 25 69t62 28q21 0 37.5 -8.5t41.5 -26.5l39 -28q16 -12 34 -12q22 0 31 17t9 48h50v-23q0 -41 -25 -69t-62 -28zM377 180v67l-145 -10q-53 -4 -86.5 -29
t-33.5 -66t28.5 -69t71.5 -28h10q26 0 53.5 10.5t50 29t37 43t14.5 52.5zM442 110q0 -22 0.5 -53t4.5 -57h-60q-3 16 -4 38t-1 42q-15 -34 -63 -62t-114 -28t-112 42.5t-46 105.5q0 41 16 69t41 45t55.5 25.5t59.5 10.5l158 12v20q0 64 -34 99.5t-91 35.5h-5q-48 0 -84 -24
t-41 -71h-65q4 66 58 108t134 42q49 0 85 -15.5t60 -41.5t36 -60.5t12 -72.5v-210zM-20 -225v55h557v-55h-557z" />
    <glyph glyph-name="adieresis" unicode="&#xe4;" horiz-adv-x="517" 
d="M132 590v80h75v-80h-75zM307 590v80h75v-80h-75zM377 180v67l-145 -10q-53 -4 -86.5 -29t-33.5 -66t28.5 -69t71.5 -28h10q26 0 53.5 10.5t50 29t37 43t14.5 52.5zM442 110q0 -22 0.5 -53t4.5 -57h-60q-3 16 -4 38t-1 42q-15 -34 -63 -62t-114 -28t-112 42.5t-46 105.5
q0 41 16 69t41 45t55.5 25.5t59.5 10.5l158 12v20q0 64 -34 99.5t-91 35.5h-5q-48 0 -84 -24t-41 -71h-65q4 66 58 108t134 42q49 0 85 -15.5t60 -41.5t36 -60.5t12 -72.5v-210zM-20 -225v55h557v-55h-557z" />
    <glyph glyph-name="aring" unicode="&#xe5;" horiz-adv-x="517" 
d="M173 649q0 37 25.5 60.5t58.5 23.5t58.5 -23.5t25.5 -60.5t-25.5 -60.5t-58.5 -23.5t-58.5 23.5t-25.5 60.5zM258 693q-18 0 -31 -13t-13 -31t13 -31t31 -13t30.5 13t12.5 31t-12.5 31t-30.5 13zM377 180v67l-145 -10q-53 -4 -86.5 -29t-33.5 -66t28.5 -69t71.5 -28h10
q26 0 53.5 10.5t50 29t37 43t14.5 52.5zM442 110q0 -22 0.5 -53t4.5 -57h-60q-3 16 -4 38t-1 42q-15 -34 -63 -62t-114 -28t-112 42.5t-46 105.5q0 41 16 69t41 45t55.5 25.5t59.5 10.5l158 12v20q0 64 -34 99.5t-91 35.5h-5q-48 0 -84 -24t-41 -71h-65q4 66 58 108t134 42
q49 0 85 -15.5t60 -41.5t36 -60.5t12 -72.5v-210zM-20 -225v55h557v-55h-557z" />
    <glyph glyph-name="ae" unicode="&#xe6;" horiz-adv-x="841" 
d="M590 -10q-59 0 -108 27t-78 78q-26 -46 -74.5 -75.5t-114.5 -29.5q-70 0 -119 42.5t-49 105.5q0 43 15.5 71.5t40 46.5t54 26.5t57.5 10.5l153 12v15q0 64 -32.5 99.5t-87.5 35.5h-5q-46 0 -80.5 -24t-39.5 -71h-65q4 66 56.5 108t130.5 42q61 0 103 -26.5t63 -68.5
q31 48 79.5 71.5t100.5 23.5q46 0 83 -17t63.5 -47.5t41 -71.5t14.5 -89v-40h-360q1 -53 14 -91t34.5 -62t49.5 -35.5t59 -11.5h6q45 0 81 24t50 74h65q-16 -75 -70.5 -114t-130.5 -39zM584 455q-24 0 -48.5 -7.5t-45 -25.5t-36 -48t-20.5 -74h293q-2 66 -38 110.5t-95 44.5
h-10zM367 188v62l-140 -10q-51 -4 -83 -29.5t-32 -68.5q0 -41 30 -69t75 -28h10q25 0 50 11.5t45 31t32.5 45.5t12.5 55zM861 -170v-55h-881v55h881z" />
    <glyph glyph-name="ccedilla" unicode="&#xe7;" horiz-adv-x="521" 
d="M374 -126q0 -41 -25.5 -70t-74.5 -29h-294v55h295q20 0 34.5 11t14.5 33t-14.5 32.5t-34.5 10.5h-28v75q-47 6 -84 28t-62 56t-38 78.5t-13 95.5q0 55 15 102.5t44.5 82.5t72.5 55t98 20q81 0 134.5 -46t60.5 -124h-65q-8 50 -41.5 82.5t-83.5 32.5h-10q-41 0 -71 -17
t-50 -45t-29.5 -65t-9.5 -78t9.5 -78t29.5 -65t50 -45t71 -17h10q50 0 82.5 33.5t42.5 81.5h65q-13 -74 -60.5 -120t-122.5 -50v-35q32 1 57 -21.5t25 -59.5zM465 -225v55h76v-55h-76z" />
    <glyph glyph-name="egrave" unicode="&#xe8;" horiz-adv-x="524" 
d="M248 700l57 -130h-49l-88 130h80zM273 -10q-47 0 -87.5 17t-70.5 49.5t-47.5 81.5t-17.5 113q0 65 18.5 114t49.5 81t71.5 48t83.5 16q46 0 83 -17t63.5 -47.5t41 -71.5t14.5 -89v-40h-360q1 -53 14 -91t34.5 -62t49.5 -35.5t59 -11.5h6q45 0 81 24t50 74h65
q-16 -75 -70.5 -114t-130.5 -39zM267 455q-24 0 -48.5 -7.5t-45 -25.5t-36 -48t-20.5 -74h293q-2 66 -38 110.5t-95 44.5h-10zM544 -170v-55h-564v55h564z" />
    <glyph glyph-name="eacute" unicode="&#xe9;" horiz-adv-x="524" 
d="M244 570l57 130h80l-88 -130h-49zM273 -10q-47 0 -87.5 17t-70.5 49.5t-47.5 81.5t-17.5 113q0 65 18.5 114t49.5 81t71.5 48t83.5 16q46 0 83 -17t63.5 -47.5t41 -71.5t14.5 -89v-40h-360q1 -53 14 -91t34.5 -62t49.5 -35.5t59 -11.5h6q45 0 81 24t50 74h65
q-16 -75 -70.5 -114t-130.5 -39zM267 455q-24 0 -48.5 -7.5t-45 -25.5t-36 -48t-20.5 -74h293q-2 66 -38 110.5t-95 44.5h-10zM544 -170v-55h-564v55h564z" />
    <glyph glyph-name="ecircumflex" unicode="&#xea;" horiz-adv-x="524" 
d="M376 570l-100 75l-100 -75h-60l127 130h66l127 -130h-60zM273 -10q-47 0 -87.5 17t-70.5 49.5t-47.5 81.5t-17.5 113q0 65 18.5 114t49.5 81t71.5 48t83.5 16q46 0 83 -17t63.5 -47.5t41 -71.5t14.5 -89v-40h-360q1 -53 14 -91t34.5 -62t49.5 -35.5t59 -11.5h6
q45 0 81 24t50 74h65q-16 -75 -70.5 -114t-130.5 -39zM267 455q-24 0 -48.5 -7.5t-45 -25.5t-36 -48t-20.5 -74h293q-2 66 -38 110.5t-95 44.5h-10zM544 -170v-55h-564v55h564z" />
    <glyph glyph-name="edieresis" unicode="&#xeb;" horiz-adv-x="524" 
d="M144 590v80h75v-80h-75zM319 590v80h75v-80h-75zM273 -10q-47 0 -87.5 17t-70.5 49.5t-47.5 81.5t-17.5 113q0 65 18.5 114t49.5 81t71.5 48t83.5 16q46 0 83 -17t63.5 -47.5t41 -71.5t14.5 -89v-40h-360q1 -53 14 -91t34.5 -62t49.5 -35.5t59 -11.5h6q45 0 81 24t50 74
h65q-16 -75 -70.5 -114t-130.5 -39zM267 455q-24 0 -48.5 -7.5t-45 -25.5t-36 -48t-20.5 -74h293q-2 66 -38 110.5t-95 44.5h-10zM544 -170v-55h-564v55h564z" />
    <glyph glyph-name="igrave" unicode="&#xec;" horiz-adv-x="225" 
d="M86 700l57 -130h-49l-88 130h80zM145 0h-65v500h65v-500zM245 -170v-55h-265v55h265z" />
    <glyph glyph-name="iacute" unicode="&#xed;" horiz-adv-x="225" 
d="M84 570l57 130h80l-88 -130h-49zM145 0h-65v500h65v-500zM245 -170v-55h-265v55h265z" />
    <glyph glyph-name="icircumflex" unicode="&#xee;" horiz-adv-x="225" 
d="M213 570l-100 75l-100 -75h-60l127 130h66l127 -130h-60zM145 0h-65v500h65v-500zM293 -170v-55h-360v55h360z" />
    <glyph glyph-name="idieresis" unicode="&#xef;" horiz-adv-x="225" 
d="M-13 590v80h75v-80h-75zM162 590v80h75v-80h-75zM145 0h-65v500h65v-500zM257 -170v-55h-290v55h290z" />
    <glyph glyph-name="eth" unicode="&#xf0;" horiz-adv-x="565" 
d="M275 -10q-52 0 -94 19t-71 52.5t-44.5 80t-15.5 99.5q0 49 15.5 91.5t44.5 74t71 50t94 18.5q43 0 87 -16.5t72 -53.5q-8 49 -28.5 92t-52.5 74l-81 -55l-28 40l68 47q-29 17 -65.5 27t-79.5 10v60q60 0 110 -16t88 -45l78 54l30 -42l-70 -47q51 -56 76.5 -141.5
t25.5 -189.5q0 -128 -62 -205.5t-168 -77.5zM440 240q0 37 -10.5 70t-30.5 57t-50 38.5t-69 14.5h-10q-39 0 -68 -14t-48.5 -38.5t-29 -57t-9.5 -69.5q0 -40 10.5 -76t30.5 -62.5t50 -42t69 -15.5h5q39 0 69 15.5t50 41.5t30.5 62t10.5 76zM585 -170v-55h-605v55h605z" />
    <glyph glyph-name="ntilde" unicode="&#xf1;" horiz-adv-x="570" 
d="M365 560q-19 0 -35.5 8.5t-42.5 26.5q-21 16 -37.5 28t-35.5 12q-22 0 -31.5 -16.5t-9.5 -48.5h-50v23q0 41 25 69t62 28q21 0 37.5 -8.5t41.5 -26.5l39 -28q16 -12 34 -12q22 0 31 17t9 48h50v-23q0 -41 -25 -69t-62 -28zM145 250v-250h-65v500h65v-84q22 41 68 67.5
t107 26.5q75 0 125 -46.5t50 -136.5v-327h-65v307q0 75 -30 111.5t-90 36.5h-6q-40 0 -70 -17t-50 -45t-29.5 -65.5t-9.5 -77.5zM590 -170v-55h-610v55h610z" />
    <glyph glyph-name="ograve" unicode="&#xf2;" horiz-adv-x="558" 
d="M254 700l57 -130h-49l-88 130h80zM279 -10q-48 0 -90 19t-73 53t-49 82t-18 106t18 106t49 82t73 53t90 19t90 -19t73 -53t49 -82t18 -106t-18 -106t-49 -82t-73 -53t-90 -19zM284 45q67 0 113 54.5t46 150.5t-46 150.5t-113 54.5h-10q-67 0 -113 -54.5t-46 -150.5
t46 -150.5t113 -54.5h10zM578 -170v-55h-598v55h598z" />
    <glyph glyph-name="oacute" unicode="&#xf3;" horiz-adv-x="558" 
d="M250 570l57 130h80l-88 -130h-49zM279 -10q-48 0 -90 19t-73 53t-49 82t-18 106t18 106t49 82t73 53t90 19t90 -19t73 -53t49 -82t18 -106t-18 -106t-49 -82t-73 -53t-90 -19zM284 45q67 0 113 54.5t46 150.5t-46 150.5t-113 54.5h-10q-67 0 -113 -54.5t-46 -150.5
t46 -150.5t113 -54.5h10zM578 -170v-55h-598v55h598z" />
    <glyph glyph-name="ocircumflex" unicode="&#xf4;" horiz-adv-x="558" 
d="M379 570l-100 75l-100 -75h-60l127 130h66l127 -130h-60zM279 -10q-48 0 -90 19t-73 53t-49 82t-18 106t18 106t49 82t73 53t90 19t90 -19t73 -53t49 -82t18 -106t-18 -106t-49 -82t-73 -53t-90 -19zM284 45q67 0 113 54.5t46 150.5t-46 150.5t-113 54.5h-10
q-67 0 -113 -54.5t-46 -150.5t46 -150.5t113 -54.5h10zM578 -170v-55h-598v55h598z" />
    <glyph glyph-name="otilde" unicode="&#xf5;" horiz-adv-x="558" 
d="M357 560q-19 0 -35.5 8.5t-42.5 26.5q-21 16 -37.5 28t-35.5 12q-22 0 -31.5 -16.5t-9.5 -48.5h-50v23q0 41 25 69t62 28q21 0 37.5 -8.5t41.5 -26.5l39 -28q16 -12 34 -12q22 0 31 17t9 48h50v-23q0 -41 -25 -69t-62 -28zM279 -10q-48 0 -90 19t-73 53t-49 82t-18 106
t18 106t49 82t73 53t90 19t90 -19t73 -53t49 -82t18 -106t-18 -106t-49 -82t-73 -53t-90 -19zM284 45q67 0 113 54.5t46 150.5t-46 150.5t-113 54.5h-10q-67 0 -113 -54.5t-46 -150.5t46 -150.5t113 -54.5h10zM578 -170v-55h-598v55h598z" />
    <glyph glyph-name="odieresis" unicode="&#xf6;" horiz-adv-x="558" 
d="M154 590v80h75v-80h-75zM329 590v80h75v-80h-75zM279 -10q-48 0 -90 19t-73 53t-49 82t-18 106t18 106t49 82t73 53t90 19t90 -19t73 -53t49 -82t18 -106t-18 -106t-49 -82t-73 -53t-90 -19zM284 45q67 0 113 54.5t46 150.5t-46 150.5t-113 54.5h-10q-67 0 -113 -54.5
t-46 -150.5t46 -150.5t113 -54.5h10zM578 -170v-55h-598v55h598z" />
    <glyph glyph-name="divide" unicode="&#xf7;" horiz-adv-x="642" 
d="M284 380v85h75v-85h-75zM74 225v65h494v-65h-494zM284 50v85h75v-85h-75zM662 -170v-55h-682v55h682z" />
    <glyph glyph-name="oslash" unicode="&#xf8;" horiz-adv-x="559" 
d="M116 250q0 -38 8 -70t22 -57l229 300q-19 16 -42 24t-48 8h-10q-67 0 -113 -54.5t-46 -150.5zM275 45h10q67 0 113 54.5t46 150.5q0 39 -8.5 72t-22.5 58l-231 -301q19 -16 43 -25t50 -9zM280 -10q-37 0 -70.5 11.5t-61.5 31.5l-51 -66l-43 36l53 70q-26 34 -41.5 78.5
t-15.5 98.5q0 58 18 106t49 82t73 53t90 19q37 0 69.5 -11t60.5 -31l50 66l46 -32l-55 -72q28 -34 43.5 -80t15.5 -100q0 -58 -18 -106t-49 -82t-73 -53t-90 -19zM579 -170v-55h-599v55h599z" />
    <glyph glyph-name="ugrave" unicode="&#xf9;" horiz-adv-x="560" 
d="M250 700l57 -130h-49l-88 130h80zM415 0v94q-19 -49 -62.5 -76.5t-104.5 -27.5q-83 0 -128 51t-45 129v330h65v-310q0 -72 30 -108.5t90 -36.5h10q27 0 53.5 12.5t46.5 36.5t32.5 58.5t12.5 77.5v270h65v-500h-65zM580 -170v-55h-600v55h600z" />
    <glyph glyph-name="uacute" unicode="&#xfa;" horiz-adv-x="560" 
d="M245 570l57 130h80l-88 -130h-49zM415 0v94q-19 -49 -62.5 -76.5t-104.5 -27.5q-83 0 -128 51t-45 129v330h65v-310q0 -72 30 -108.5t90 -36.5h10q27 0 53.5 12.5t46.5 36.5t32.5 58.5t12.5 77.5v270h65v-500h-65zM580 -170v-55h-600v55h600z" />
    <glyph glyph-name="ucircumflex" unicode="&#xfb;" horiz-adv-x="560" 
d="M376 570l-100 75l-100 -75h-60l127 130h66l127 -130h-60zM415 0v94q-19 -49 -62.5 -76.5t-104.5 -27.5q-83 0 -128 51t-45 129v330h65v-310q0 -72 30 -108.5t90 -36.5h10q27 0 53.5 12.5t46.5 36.5t32.5 58.5t12.5 77.5v270h65v-500h-65zM580 -170v-55h-600v55h600z" />
    <glyph glyph-name="udieresis" unicode="&#xfc;" horiz-adv-x="560" 
d="M151 590v80h75v-80h-75zM326 590v80h75v-80h-75zM415 0v94q-19 -49 -62.5 -76.5t-104.5 -27.5q-83 0 -128 51t-45 129v330h65v-310q0 -72 30 -108.5t90 -36.5h10q27 0 53.5 12.5t46.5 36.5t32.5 58.5t12.5 77.5v270h65v-500h-65zM580 -170v-55h-600v55h600z" />
    <glyph glyph-name="yacute" unicode="&#xfd;" horiz-adv-x="520" 
d="M237 570l57 130h80l-88 -130h-49zM205 -225h-225v55h215q22 0 31 9t9 31v144l-212 486h71l172 -404l172 404h68l-206 -483v-155q0 -46 -23 -66.5t-72 -20.5zM540 -170v-55h-144v55h144z" />
    <glyph glyph-name="thorn" unicode="&#xfe;" horiz-adv-x="585" 
d="M305 455q-40 0 -70.5 -17t-50 -45t-29.5 -65.5t-10 -77.5t10 -77.5t29.5 -65.5t50 -45t70.5 -17h5q40 0 70 17t49.5 45t29.5 65.5t10 77.5t-10 77.5t-29.5 65.5t-49.5 45t-70 17h-5zM605 -170v-55h-365v55h365zM-20 -225v55h100v870h65v-280q22 41 70 65.5t97 24.5
q97 0 160 -70.5t63 -189.5t-63 -189.5t-160 -70.5q-49 0 -97 24.5t-70 65.5v-305h-165z" />
    <glyph glyph-name="ydieresis" unicode="&#xff;" horiz-adv-x="520" 
d="M141 590v80h75v-80h-75zM316 590v80h75v-80h-75zM205 -225h-225v55h215q22 0 31 9t9 31v144l-212 486h71l172 -404l172 404h68l-206 -483v-155q0 -46 -23 -66.5t-72 -20.5zM540 -170v-55h-144v55h144z" />
    <glyph glyph-name="Amacron" unicode="&#x100;" horiz-adv-x="677" 
d="M201 780v55h275v-55h-275zM490 258l-153 378l-153 -378h306zM8 0l287 700h88l285 -700h-74l-78 193h-358l-78 -193h-72zM-30 -225v55h737v-55h-737z" />
    <glyph glyph-name="amacron" unicode="&#x101;" horiz-adv-x="517" 
d="M114 590v55h275v-55h-275zM377 180v67l-145 -10q-53 -4 -86.5 -29t-33.5 -66t28.5 -69t71.5 -28h10q26 0 53.5 10.5t50 29t37 43t14.5 52.5zM442 110q0 -22 0.5 -53t4.5 -57h-60q-3 16 -4 38t-1 42q-15 -34 -63 -62t-114 -28t-112 42.5t-46 105.5q0 41 16 69t41 45
t55.5 25.5t59.5 10.5l158 12v20q0 64 -34 99.5t-91 35.5h-5q-48 0 -84 -24t-41 -71h-65q4 66 58 108t134 42q49 0 85 -15.5t60 -41.5t36 -60.5t12 -72.5v-210zM-20 -225v55h557v-55h-557z" />
    <glyph glyph-name="Abreve" unicode="&#x102;" horiz-adv-x="677" 
d="M338 755q-63 0 -104 34.5t-41 100.5h55q4 -43 28.5 -61.5t61.5 -18.5t61.5 18.5t28.5 61.5h55q0 -66 -41 -100.5t-104 -34.5zM490 258l-153 378l-153 -378h306zM8 0l287 700h88l285 -700h-74l-78 193h-358l-78 -193h-72zM-30 -225v55h737v-55h-737z" />
    <glyph glyph-name="abreve" unicode="&#x103;" horiz-adv-x="517" 
d="M253 560q-60 0 -100 36t-40 104h50q4 -45 28.5 -67t61.5 -22t61.5 22t28.5 67h50q0 -68 -40 -104t-100 -36zM377 180v67l-145 -10q-53 -4 -86.5 -29t-33.5 -66t28.5 -69t71.5 -28h10q26 0 53.5 10.5t50 29t37 43t14.5 52.5zM442 110q0 -22 0.5 -53t4.5 -57h-60
q-3 16 -4 38t-1 42q-15 -34 -63 -62t-114 -28t-112 42.5t-46 105.5q0 41 16 69t41 45t55.5 25.5t59.5 10.5l158 12v20q0 64 -34 99.5t-91 35.5h-5q-48 0 -84 -24t-41 -71h-65q4 66 58 108t134 42q49 0 85 -15.5t60 -41.5t36 -60.5t12 -72.5v-210zM-20 -225v55h557v-55h-557z
" />
    <glyph glyph-name="Aogonek" unicode="&#x104;" horiz-adv-x="677" 
d="M636 -225q-54 0 -79.5 25t-25.5 68q0 34 24 70.5t68 61.5h-29l-78 193h-358l-78 -193h-72l287 700h88l285 -700q-46 -29 -66.5 -58.5t-20.5 -56.5q0 -31 17.5 -43t37.5 -12h61v-55h-61zM490 258l-153 378l-153 -378h306zM-30 -225v55h502v-55h-502z" />
    <glyph glyph-name="aogonek" unicode="&#x105;" horiz-adv-x="517" 
d="M415 -225q-54 0 -79.5 25t-25.5 68q0 34 24 70.5t68 61.5h-15q-3 16 -4 38t-1 42q-15 -34 -63 -62t-114 -28t-112 42.5t-46 105.5q0 41 16 69t41 45t55.5 25.5t59.5 10.5l158 12v20q0 64 -34 99.5t-91 35.5h-5q-48 0 -84 -24t-41 -71h-65q4 66 58 108t134 42
q49 0 85 -15.5t60 -41.5t36 -60.5t12 -72.5v-210q0 -22 0.5 -53t4.5 -57q-46 -29 -66.5 -58.5t-20.5 -56.5q0 -31 17.5 -43t37.5 -12h122v-55h-122zM377 180v67l-145 -10q-53 -4 -86.5 -29t-33.5 -66t28.5 -69t71.5 -28h10q26 0 53.5 10.5t50 29t37 43t14.5 52.5zM-20 -225
v55h271v-55h-271z" />
    <glyph glyph-name="Cacute" unicode="&#x106;" horiz-adv-x="694" 
d="M345 765l53 125h90l-83 -125h-60zM124 350q0 -60 16 -114t46.5 -94t76.5 -63.5t106 -23.5h10q37 0 71.5 10.5t61 31t43 50.5t19.5 68h70q-3 -52 -25 -94t-58 -71t-84.5 -44.5t-102.5 -15.5q-74 0 -133.5 27.5t-101 75.5t-63.5 114.5t-22 142.5t22 142.5t63.5 114.5
t101 75.5t133.5 27.5q54 0 102.5 -15.5t84.5 -44.5t58 -71t25 -94h-70q-3 38 -19.5 68t-43 50.5t-61 31t-71.5 10.5h-10q-60 0 -106 -23.5t-76.5 -63.5t-46.5 -94t-16 -114zM-20 -225v55h734v-55h-734z" />
    <glyph glyph-name="cacute" unicode="&#x107;" horiz-adv-x="521" 
d="M249 570l57 130h80l-88 -130h-49zM280 -10q-55 0 -98 20t-72.5 55t-44.5 82.5t-15 102.5t15 102.5t44.5 82.5t72.5 55t98 20q81 0 134.5 -46t60.5 -124h-65q-8 50 -41.5 82.5t-83.5 32.5h-10q-41 0 -71 -17t-50 -45t-29.5 -65t-9.5 -78t9.5 -78t29.5 -65t50 -45t71 -17
h10q50 0 82.5 33.5t42.5 81.5h65q-13 -77 -63.5 -123.5t-131.5 -46.5zM-20 -225v55h561v-55h-561z" />
    <glyph glyph-name="Ccircumflex" unicode="&#x108;" horiz-adv-x="694" 
d="M466 765l-92 72l-92 -72h-68l115 125h90l115 -125h-68zM124 350q0 -60 16 -114t46.5 -94t76.5 -63.5t106 -23.5h10q37 0 71.5 10.5t61 31t43 50.5t19.5 68h70q-3 -52 -25 -94t-58 -71t-84.5 -44.5t-102.5 -15.5q-74 0 -133.5 27.5t-101 75.5t-63.5 114.5t-22 142.5
t22 142.5t63.5 114.5t101 75.5t133.5 27.5q54 0 102.5 -15.5t84.5 -44.5t58 -71t25 -94h-70q-3 38 -19.5 68t-43 50.5t-61 31t-71.5 10.5h-10q-60 0 -106 -23.5t-76.5 -63.5t-46.5 -94t-16 -114zM-20 -225v55h734v-55h-734z" />
    <glyph glyph-name="ccircumflex" unicode="&#x109;" horiz-adv-x="521" 
d="M375 570l-100 75l-100 -75h-60l127 130h66l127 -130h-60zM280 -10q-55 0 -98 20t-72.5 55t-44.5 82.5t-15 102.5t15 102.5t44.5 82.5t72.5 55t98 20q81 0 134.5 -46t60.5 -124h-65q-8 50 -41.5 82.5t-83.5 32.5h-10q-41 0 -71 -17t-50 -45t-29.5 -65t-9.5 -78t9.5 -78
t29.5 -65t50 -45t71 -17h10q50 0 82.5 33.5t42.5 81.5h65q-13 -77 -63.5 -123.5t-131.5 -46.5zM-20 -225v55h561v-55h-561z" />
    <glyph glyph-name="Cdotaccent" unicode="&#x10a;" horiz-adv-x="694" 
d="M337 780v85h75v-85h-75zM124 350q0 -60 16 -114t46.5 -94t76.5 -63.5t106 -23.5h10q37 0 71.5 10.5t61 31t43 50.5t19.5 68h70q-3 -52 -25 -94t-58 -71t-84.5 -44.5t-102.5 -15.5q-74 0 -133.5 27.5t-101 75.5t-63.5 114.5t-22 142.5t22 142.5t63.5 114.5t101 75.5
t133.5 27.5q54 0 102.5 -15.5t84.5 -44.5t58 -71t25 -94h-70q-3 38 -19.5 68t-43 50.5t-61 31t-71.5 10.5h-10q-60 0 -106 -23.5t-76.5 -63.5t-46.5 -94t-16 -114zM-20 -225v55h734v-55h-734z" />
    <glyph glyph-name="cdotaccent" unicode="&#x10b;" horiz-adv-x="521" 
d="M241 590v85h75v-85h-75zM280 -10q-55 0 -98 20t-72.5 55t-44.5 82.5t-15 102.5t15 102.5t44.5 82.5t72.5 55t98 20q81 0 134.5 -46t60.5 -124h-65q-8 50 -41.5 82.5t-83.5 32.5h-10q-41 0 -71 -17t-50 -45t-29.5 -65t-9.5 -78t9.5 -78t29.5 -65t50 -45t71 -17h10
q50 0 82.5 33.5t42.5 81.5h65q-13 -77 -63.5 -123.5t-131.5 -46.5zM-20 -225v55h561v-55h-561z" />
    <glyph glyph-name="Ccaron" unicode="&#x10c;" horiz-adv-x="694" 
d="M327 765l-115 125h68l92 -72l92 72h68l-115 -125h-90zM124 350q0 -60 16 -114t46.5 -94t76.5 -63.5t106 -23.5h10q37 0 71.5 10.5t61 31t43 50.5t19.5 68h70q-3 -52 -25 -94t-58 -71t-84.5 -44.5t-102.5 -15.5q-74 0 -133.5 27.5t-101 75.5t-63.5 114.5t-22 142.5
t22 142.5t63.5 114.5t101 75.5t133.5 27.5q54 0 102.5 -15.5t84.5 -44.5t58 -71t25 -94h-70q-3 38 -19.5 68t-43 50.5t-61 31t-71.5 10.5h-10q-60 0 -106 -23.5t-76.5 -63.5t-46.5 -94t-16 -114zM-20 -225v55h734v-55h-734z" />
    <glyph glyph-name="ccaron" unicode="&#x10d;" horiz-adv-x="521" 
d="M313 570h-66l-127 130h60l100 -75l100 75h60zM280 -10q-55 0 -98 20t-72.5 55t-44.5 82.5t-15 102.5t15 102.5t44.5 82.5t72.5 55t98 20q81 0 134.5 -46t60.5 -124h-65q-8 50 -41.5 82.5t-83.5 32.5h-10q-41 0 -71 -17t-50 -45t-29.5 -65t-9.5 -78t9.5 -78t29.5 -65
t50 -45t71 -17h10q50 0 82.5 33.5t42.5 81.5h65q-13 -77 -63.5 -123.5t-131.5 -46.5zM-20 -225v55h561v-55h-561z" />
    <glyph glyph-name="Dcaron" unicode="&#x10e;" horiz-adv-x="707" 
d="M292 765l-115 125h68l92 -72l92 72h68l-115 -125h-90zM97 0v700h240q71 0 129.5 -24t99.5 -69.5t63.5 -111t22.5 -147.5t-22.5 -147t-63.5 -109.5t-99.5 -68t-129.5 -23.5h-240zM167 65h160q122 0 188.5 74t66.5 211t-66.5 211t-188.5 74h-160v-570zM-20 -225v55h747v-55
h-747z" />
    <glyph glyph-name="dcaron" unicode="&#x10f;" horiz-adv-x="603" 
d="M635 615q0 -34 -21 -54.5t-54 -20.5h-10v35h5q22 0 33.5 10t11.5 30v10h-30v75h65v-85zM280 45q40 0 70.5 17t50 45t29.5 65.5t10 77.5t-10 77.5t-29.5 65.5t-50 45t-70.5 17h-5q-40 0 -70 -17t-49.5 -45t-29.5 -65.5t-10 -77.5t10 -77.5t29.5 -65.5t49.5 -45t70 -17h5z
M273 -10q-97 0 -160 70.5t-63 189.5t63 189.5t160 70.5q49 0 97 -24.5t70 -65.5v280h65v-700h-65v80q-22 -41 -70 -65.5t-97 -24.5zM-20 -225v55h675v-55h-675z" />
    <glyph glyph-name="Dcroat" unicode="&#x110;" horiz-adv-x="719" 
d="M349 0h-240v321h-100v60h100v319h240q71 0 129.5 -24t99.5 -69.5t63.5 -111t22.5 -147.5t-22.5 -147t-63.5 -109.5t-99.5 -68t-129.5 -23.5zM179 65h160q122 0 188.5 74t66.5 211t-66.5 211t-188.5 74h-160v-254h150v-60h-150v-256zM-20 -225v55h759v-55h-759z" />
    <glyph glyph-name="dcroat" unicode="&#x111;" horiz-adv-x="585" 
d="M280 45q40 0 70.5 17t50 45t29.5 65.5t10 77.5t-10 77.5t-29.5 65.5t-50 45t-70.5 17h-5q-40 0 -70 -17t-49.5 -45t-29.5 -65.5t-10 -77.5t10 -77.5t29.5 -65.5t49.5 -45t70 -17h5zM440 80q-22 -41 -70 -65.5t-97 -24.5q-97 0 -160 70.5t-63 189.5t63 189.5t160 70.5
q49 0 97 -24.5t70 -65.5v155h-150v50h150v75h65v-75h70v-50h-70v-575h-65v80zM605 -170v-55h-625v55h625z" />
    <glyph glyph-name="Emacron" unicode="&#x112;" horiz-adv-x="642" 
d="M211 780v55h275v-55h-275zM596 0h-499v700h489v-65h-419v-242h359v-65h-359v-263h429v-65zM-20 -225v55h682v-55h-682z" />
    <glyph glyph-name="emacron" unicode="&#x113;" horiz-adv-x="524" 
d="M135 590v55h275v-55h-275zM273 -10q-47 0 -87.5 17t-70.5 49.5t-47.5 81.5t-17.5 113q0 65 18.5 114t49.5 81t71.5 48t83.5 16q46 0 83 -17t63.5 -47.5t41 -71.5t14.5 -89v-40h-360q1 -53 14 -91t34.5 -62t49.5 -35.5t59 -11.5h6q45 0 81 24t50 74h65q-16 -75 -70.5 -114
t-130.5 -39zM267 455q-24 0 -48.5 -7.5t-45 -25.5t-36 -48t-20.5 -74h293q-2 66 -38 110.5t-95 44.5h-10zM544 -170v-55h-564v55h564z" />
    <glyph glyph-name="Ebreve" unicode="&#x114;" horiz-adv-x="642" 
d="M339 755q-63 0 -104 34.5t-41 100.5h55q4 -43 28.5 -61.5t61.5 -18.5t61.5 18.5t28.5 61.5h55q0 -66 -41 -100.5t-104 -34.5zM596 0h-499v700h489v-65h-419v-242h359v-65h-359v-263h429v-65zM-20 -225v55h682v-55h-682z" />
    <glyph glyph-name="ebreve" unicode="&#x115;" horiz-adv-x="524" 
d="M274 560q-60 0 -100 36t-40 104h50q4 -45 28.5 -67t61.5 -22t61.5 22t28.5 67h50q0 -68 -40 -104t-100 -36zM273 -10q-47 0 -87.5 17t-70.5 49.5t-47.5 81.5t-17.5 113q0 65 18.5 114t49.5 81t71.5 48t83.5 16q46 0 83 -17t63.5 -47.5t41 -71.5t14.5 -89v-40h-360
q1 -53 14 -91t34.5 -62t49.5 -35.5t59 -11.5h6q45 0 81 24t50 74h65q-16 -75 -70.5 -114t-130.5 -39zM267 455q-24 0 -48.5 -7.5t-45 -25.5t-36 -48t-20.5 -74h293q-2 66 -38 110.5t-95 44.5h-10zM544 -170v-55h-564v55h564z" />
    <glyph glyph-name="Edotaccent" unicode="&#x116;" horiz-adv-x="642" 
d="M311 780v85h75v-85h-75zM596 0h-499v700h489v-65h-419v-242h359v-65h-359v-263h429v-65zM-20 -225v55h682v-55h-682z" />
    <glyph glyph-name="edotaccent" unicode="&#x117;" horiz-adv-x="524" 
d="M235 590v85h75v-85h-75zM273 -10q-47 0 -87.5 17t-70.5 49.5t-47.5 81.5t-17.5 113q0 65 18.5 114t49.5 81t71.5 48t83.5 16q46 0 83 -17t63.5 -47.5t41 -71.5t14.5 -89v-40h-360q1 -53 14 -91t34.5 -62t49.5 -35.5t59 -11.5h6q45 0 81 24t50 74h65q-16 -75 -70.5 -114
t-130.5 -39zM267 455q-24 0 -48.5 -7.5t-45 -25.5t-36 -48t-20.5 -74h293q-2 66 -38 110.5t-95 44.5h-10zM544 -170v-55h-564v55h564z" />
    <glyph glyph-name="Eogonek" unicode="&#x118;" horiz-adv-x="642" 
d="M564 -225q-54 0 -79.5 25t-25.5 68q0 34 24 70.5t68 61.5h-454v700h489v-65h-419v-242h359v-65h-359v-263h429v-65q-46 -29 -66.5 -58.5t-20.5 -56.5q0 -31 17.5 -43t37.5 -12h98v-55h-98zM-20 -225v55h420v-55h-420z" />
    <glyph glyph-name="eogonek" unicode="&#x119;" horiz-adv-x="524" 
d="M313 -225q-54 0 -79.5 25t-25.5 68q0 31 20 64t57 58h-6h-6q-47 0 -87.5 17t-70.5 49.5t-47.5 81.5t-17.5 113q0 65 18.5 114t49.5 81t71.5 48t83.5 16q46 0 83 -17t63.5 -47.5t41 -71.5t14.5 -89v-40h-360q1 -53 14 -91t34.5 -62t49.5 -35.5t59 -11.5h6q45 0 81 24
t50 74h65q-12 -56 -46 -92t-83 -51q-46 -29 -66.5 -58.5t-20.5 -56.5q0 -31 17.5 -43t37.5 -12h231v-55h-231zM267 455q-24 0 -48.5 -7.5t-45 -25.5t-36 -48t-20.5 -74h293q-2 66 -38 110.5t-95 44.5h-10zM149 -170v-55h-169v55h169z" />
    <glyph glyph-name="Ecaron" unicode="&#x11a;" horiz-adv-x="642" 
d="M294 765l-115 125h68l92 -72l92 72h68l-115 -125h-90zM596 0h-499v700h489v-65h-419v-242h359v-65h-359v-263h429v-65zM-20 -225v55h682v-55h-682z" />
    <glyph glyph-name="ecaron" unicode="&#x11b;" horiz-adv-x="524" 
d="M307 570h-66l-127 130h60l100 -75l100 75h60zM273 -10q-47 0 -87.5 17t-70.5 49.5t-47.5 81.5t-17.5 113q0 65 18.5 114t49.5 81t71.5 48t83.5 16q46 0 83 -17t63.5 -47.5t41 -71.5t14.5 -89v-40h-360q1 -53 14 -91t34.5 -62t49.5 -35.5t59 -11.5h6q45 0 81 24t50 74h65
q-16 -75 -70.5 -114t-130.5 -39zM267 455q-24 0 -48.5 -7.5t-45 -25.5t-36 -48t-20.5 -74h293q-2 66 -38 110.5t-95 44.5h-10zM544 -170v-55h-564v55h564z" />
    <glyph glyph-name="Gcircumflex" unicode="&#x11c;" horiz-adv-x="728" 
d="M471 765l-92 72l-92 -72h-68l115 125h90l115 -125h-68zM379 55h10q41 0 79 13t67 37.5t46.5 60.5t17.5 83v36h-215v65h215q32 0 48.5 -16.5t16.5 -48.5v-285h-65v91q-32 -46 -89.5 -73.5t-125.5 -27.5q-78 0 -140 27t-104 74.5t-64 114t-22 144.5t22 144.5t64 114
t104 74.5t140 27q118 0 191 -65.5t84 -169.5h-70q-12 80 -65.5 125t-134.5 45h-10q-56 0 -103 -19.5t-80.5 -57t-52.5 -92.5t-19 -126t19 -126t52.5 -92.5t80.5 -57t103 -19.5zM-20 -225v55h768v-55h-768z" />
    <glyph glyph-name="gcircumflex" unicode="&#x11d;" horiz-adv-x="577" 
d="M372 570l-100 75l-100 -75h-60l127 130h66l127 -130h-60zM432 250q0 93 -43.5 149t-110.5 56h-10q-67 0 -110 -56t-43 -149t43 -144t110 -51h10q67 0 110.5 51t43.5 144zM271 -170q32 0 61 9.5t51 30.5t35.5 54t13.5 80v86q-22 -41 -64 -65.5t-102 -24.5
q-47 0 -86.5 16.5t-68.5 48.5t-45 78.5t-16 106.5t16 108t45 82t68.5 52t86.5 18q60 0 102 -24.5t64 -65.5v80h65v-501q0 -49 -16 -90t-45.5 -70.5t-72.5 -46.5t-97 -17h-286v55h291z" />
    <glyph glyph-name="Gbreve" unicode="&#x11e;" horiz-adv-x="728" 
d="M384 755q-63 0 -104 34.5t-41 100.5h55q4 -43 28.5 -61.5t61.5 -18.5t61.5 18.5t28.5 61.5h55q0 -66 -41 -100.5t-104 -34.5zM379 55h10q41 0 79 13t67 37.5t46.5 60.5t17.5 83v36h-215v65h215q32 0 48.5 -16.5t16.5 -48.5v-285h-65v91q-32 -46 -89.5 -73.5t-125.5 -27.5
q-78 0 -140 27t-104 74.5t-64 114t-22 144.5t22 144.5t64 114t104 74.5t140 27q118 0 191 -65.5t84 -169.5h-70q-12 80 -65.5 125t-134.5 45h-10q-56 0 -103 -19.5t-80.5 -57t-52.5 -92.5t-19 -126t19 -126t52.5 -92.5t80.5 -57t103 -19.5zM-20 -225v55h768v-55h-768z" />
    <glyph glyph-name="gbreve" unicode="&#x11f;" horiz-adv-x="577" 
d="M278 560q-60 0 -100 36t-40 104h50q4 -45 28.5 -67t61.5 -22t61.5 22t28.5 67h50q0 -68 -40 -104t-100 -36zM432 250q0 93 -43.5 149t-110.5 56h-10q-67 0 -110 -56t-43 -149t43 -144t110 -51h10q67 0 110.5 51t43.5 144zM271 -170q32 0 61 9.5t51 30.5t35.5 54t13.5 80
v86q-22 -41 -64 -65.5t-102 -24.5q-47 0 -86.5 16.5t-68.5 48.5t-45 78.5t-16 106.5t16 108t45 82t68.5 52t86.5 18q60 0 102 -24.5t64 -65.5v80h65v-501q0 -49 -16 -90t-45.5 -70.5t-72.5 -46.5t-97 -17h-286v55h291z" />
    <glyph glyph-name="Gdotaccent" unicode="&#x120;" horiz-adv-x="728" 
d="M351 780v85h75v-85h-75zM379 55h10q41 0 79 13t67 37.5t46.5 60.5t17.5 83v36h-215v65h215q32 0 48.5 -16.5t16.5 -48.5v-285h-65v91q-32 -46 -89.5 -73.5t-125.5 -27.5q-78 0 -140 27t-104 74.5t-64 114t-22 144.5t22 144.5t64 114t104 74.5t140 27q118 0 191 -65.5
t84 -169.5h-70q-12 80 -65.5 125t-134.5 45h-10q-56 0 -103 -19.5t-80.5 -57t-52.5 -92.5t-19 -126t19 -126t52.5 -92.5t80.5 -57t103 -19.5zM-20 -225v55h768v-55h-768z" />
    <glyph glyph-name="gdotaccent" unicode="&#x121;" horiz-adv-x="577" 
d="M242 590v85h75v-85h-75zM432 250q0 93 -43.5 149t-110.5 56h-10q-67 0 -110 -56t-43 -149t43 -144t110 -51h10q67 0 110.5 51t43.5 144zM271 -170q32 0 61 9.5t51 30.5t35.5 54t13.5 80v86q-22 -41 -64 -65.5t-102 -24.5q-47 0 -86.5 16.5t-68.5 48.5t-45 78.5t-16 106.5
t16 108t45 82t68.5 52t86.5 18q60 0 102 -24.5t64 -65.5v80h65v-501q0 -49 -16 -90t-45.5 -70.5t-72.5 -46.5t-97 -17h-286v55h291z" />
    <glyph glyph-name="Gcommaaccent" unicode="&#x122;" horiz-adv-x="728" 
d="M124 350q0 -71 19 -126t52.5 -92.5t80.5 -57t103 -19.5h10q41 0 79 13t67 37.5t46.5 60.5t17.5 83v36h-215v65h215q32 0 48.5 -16.5t16.5 -48.5v-285h-65v91q-32 -46 -89.5 -73.5t-125.5 -27.5q-78 0 -140 27t-104 74.5t-64 114t-22 144.5t22 144.5t64 114t104 74.5
t140 27q118 0 191 -65.5t84 -169.5h-70q-12 80 -65.5 125t-134.5 45h-10q-56 0 -103 -19.5t-80.5 -57t-52.5 -92.5t-19 -126zM477 -225v55h271v-55h-271zM327 -310v35h5q22 0 33.5 10t11.5 30v10h-397v55h432v-65q0 -34 -21 -54.5t-54 -20.5h-10z" />
    <glyph glyph-name="gcommaaccent" unicode="&#x123;" horiz-adv-x="577" 
d="M242 675q0 34 21 54.5t54 20.5h10v-35h-5q-22 0 -33.5 -10t-11.5 -30v-10h30v-75h-65v85zM432 250q0 93 -43.5 149t-110.5 56h-10q-67 0 -110 -56t-43 -149t43 -144t110 -51h10q67 0 110.5 51t43.5 144zM271 -170q32 0 61 9.5t51 30.5t35.5 54t13.5 80v86
q-22 -41 -64 -65.5t-102 -24.5q-47 0 -86.5 16.5t-68.5 48.5t-45 78.5t-16 106.5t16 108t45 82t68.5 52t86.5 18q60 0 102 -24.5t64 -65.5v80h65v-501q0 -49 -16 -90t-45.5 -70.5t-72.5 -46.5t-97 -17h-286v55h291z" />
    <glyph glyph-name="Hcircumflex" unicode="&#x124;" horiz-adv-x="729" 
d="M456 765l-92 72l-92 -72h-68l115 125h90l115 -125h-68zM97 0v700h70v-317h395v317h70v-700h-70v318h-395v-318h-70zM-20 -225v55h769v-55h-769z" />
    <glyph glyph-name="hcircumflex" unicode="&#x125;" horiz-adv-x="570" 
d="M214 760l-100 75l-100 -75h-60l127 130h66l127 -130h-60zM145 270v-270h-65v700h65v-285q25 44 71 69.5t109 25.5q83 0 126.5 -51t43.5 -129v-330h-65v310q0 72 -30 108.5t-90 36.5h-10q-29 0 -57 -12.5t-49.5 -36.5t-35 -58.5t-13.5 -77.5zM590 -170v-55h-656v55h656z
" />
    <glyph glyph-name="Hbar" unicode="&#x126;" horiz-adv-x="735" 
d="M170 383h395v137h-395v-137zM170 318v-318h-70v520h-70v60h70v120h70v-120h395v120h70v-120h70v-60h-70v-520h-70v318h-395zM-20 -225v55h775v-55h-775z" />
    <glyph glyph-name="hbar" unicode="&#x127;" horiz-adv-x="570" 
d="M145 270v-270h-65v575h-70v50h70v75h65v-75h150v-50h-150v-160q25 44 71 69.5t109 25.5q83 0 126.5 -51t43.5 -129v-330h-65v310q0 72 -30 108.5t-90 36.5h-10q-29 0 -57 -12.5t-49.5 -36.5t-35 -58.5t-13.5 -77.5zM590 -170v-55h-610v55h610z" />
    <glyph glyph-name="Itilde" unicode="&#x128;" horiz-adv-x="264" 
d="M211 760q-19 0 -35.5 8.5t-42.5 26.5q-21 16 -37.5 28t-35.5 12q-22 0 -31.5 -16.5t-9.5 -48.5h-50v23q0 41 25 69t62 28q21 0 37.5 -8.5t41.5 -26.5l39 -28q16 -12 34 -12q22 0 31 17t9 48h50v-23q0 -41 -25 -69t-62 -28zM167 0h-70v700h70v-700zM-51 -225v55h369v-55
h-369z" />
    <glyph glyph-name="itilde" unicode="&#x129;" horiz-adv-x="225" 
d="M190 560q-19 0 -35.5 8.5t-42.5 26.5q-21 16 -37.5 28t-35.5 12q-22 0 -31.5 -16.5t-9.5 -48.5h-50v23q0 41 25 69t62 28q21 0 37.5 -8.5t41.5 -26.5l39 -28q16 -12 34 -12q22 0 31 17t9 48h50v-23q0 -41 -25 -69t-62 -28zM145 0h-65v500h65v-500zM297 -170v-55h-369v55
h369z" />
    <glyph glyph-name="Imacron" unicode="&#x12a;" horiz-adv-x="264" 
d="M-5 780v55h275v-55h-275zM167 0h-70v700h70v-700zM-25 -225v55h315v-55h-315z" />
    <glyph glyph-name="imacron" unicode="&#x12b;" horiz-adv-x="225" 
d="M-25 590v55h275v-55h-275zM145 0h-65v500h65v-500zM270 -170v-55h-315v55h315z" />
    <glyph glyph-name="Ibreve" unicode="&#x12c;" horiz-adv-x="264" 
d="M132 755q-63 0 -104 34.5t-41 100.5h55q4 -43 28.5 -61.5t61.5 -18.5t61.5 18.5t28.5 61.5h55q0 -66 -41 -100.5t-104 -34.5zM167 0h-70v700h70v-700zM-33 -225v55h330v-55h-330z" />
    <glyph glyph-name="ibreve" unicode="&#x12d;" horiz-adv-x="225" 
d="M113 560q-60 0 -100 36t-40 104h50q4 -45 28.5 -67t61.5 -22t61.5 22t28.5 67h50q0 -68 -40 -104t-100 -36zM145 0h-65v500h65v-500zM273 -170v-55h-320v55h320z" />
    <glyph glyph-name="Iogonek" unicode="&#x12e;" horiz-adv-x="264" 
d="M135 -225q-54 0 -79.5 25t-25.5 68q0 34 24 70.5t68 61.5h-25v700h70v-700q-46 -29 -66.5 -58.5t-20.5 -56.5q0 -31 17.5 -43t37.5 -12h149v-55h-149z" />
    <glyph glyph-name="iogonek" unicode="&#x12f;" horiz-adv-x="225" 
d="M75 590v85h75v-85h-75zM113 -225q-54 0 -79.5 25t-25.5 68q0 34 24 70.5t68 61.5h-20v500h65v-500q-46 -29 -66.5 -58.5t-20.5 -56.5q0 -31 17.5 -43t37.5 -12h132v-55h-132z" />
    <glyph glyph-name="Idotaccent" unicode="&#x130;" horiz-adv-x="264" 
d="M95 780v85h75v-85h-75zM167 0h-70v700h70v-700zM-20 -225v55h304v-55h-304z" />
    <glyph glyph-name="dotlessi" unicode="&#x131;" horiz-adv-x="225" 
d="M145 0h-65v500h65v-500zM245 -170v-55h-265v55h265z" />
    <glyph glyph-name="IJ" unicode="&#x132;" horiz-adv-x="549" 
d="M72 185v515h70v-515h-70zM72 0v65h225q47 0 68.5 30.5t21.5 84.5v520h70v-517q0 -91 -42 -137t-117 -46h-226zM-20 -225v55h589v-55h-589z" />
    <glyph glyph-name="ij" unicode="&#x133;" horiz-adv-x="475" 
d="M325 590v85h75v-85h-75zM75 590v85h75v-85h-75zM145 0h-65v500h65v-500zM-20 -225v55h310q22 0 31 9t9 31v630h65v-635q0 -49 -23 -69.5t-72 -20.5h-320z" />
    <glyph glyph-name="Jcircumflex" unicode="&#x134;" horiz-adv-x="387" 
d="M352 765l-92 72l-92 -72h-68l115 125h90l115 -125h-68zM136 0h-110v65h109q47 0 68.5 30.5t21.5 84.5v520h70v-517q0 -91 -42 -137t-117 -46zM-20 -225v55h460v-55h-460z" />
    <glyph glyph-name="jcircumflex" unicode="&#x135;" horiz-adv-x="233" 
d="M217 570l-100 75l-100 -75h-60l127 130h66l127 -130h-60zM153 500v-635q0 -49 -23 -69.5t-72 -20.5h-140v55h130q22 0 31 9t9 31v630h65z" />
    <glyph glyph-name="Kcommaaccent" unicode="&#x136;" horiz-adv-x="669" 
d="M167 0h-70v700h70v-390l393 390h93l-285 -283l289 -417h-87l-252 367l-151 -149v-218zM448 -225v55h241v-55h-241zM298 -310v35h5q22 0 33.5 10t11.5 30v10h-368v55h403v-65q0 -34 -21 -54.5t-54 -20.5h-10z" />
    <glyph glyph-name="kcommaaccent" unicode="&#x137;" horiz-adv-x="524" 
d="M429 0l-183 256l-101 -96v-160h-65v700h65v-459l266 259h89l-208 -199l218 -301h-81zM382 -225v55h162v-55h-162zM242 -310h-10v35h5q22 0 33.5 10t11.5 30v10h-302v55h337v-65q0 -34 -21 -54.5t-54 -20.5z" />
    <glyph glyph-name="Lacute" unicode="&#x139;" horiz-adv-x="602" 
d="M107 765l53 125h90l-83 -125h-60zM97 0v700h70v-635h419v-65h-489zM-20 -225v55h642v-55h-642z" />
    <glyph glyph-name="lacute" unicode="&#x13a;" horiz-adv-x="225" 
d="M89 760l57 130h80l-88 -130h-49zM145 0h-65v700h65v-700zM245 -170v-55h-265v55h265z" />
    <glyph glyph-name="Lcommaaccent" unicode="&#x13b;" horiz-adv-x="602" 
d="M586 0h-489v700h70v-635h419v-65zM438 -225v55h184v-55h-184zM288 -310v35h5q22 0 33.5 10t11.5 30v10h-358v55h393v-65q0 -34 -21 -54.5t-54 -20.5h-10z" />
    <glyph glyph-name="lcommaaccent" unicode="&#x13c;" horiz-adv-x="225" 
d="M145 0h-65v700h65v-700zM70 -310h-10v35h5q22 0 33.5 10t11.5 30v10h-130v55h165v-65q0 -34 -21 -54.5t-54 -20.5z" />
    <glyph glyph-name="Lcaron" unicode="&#x13d;" horiz-adv-x="602" 
d="M367 615q0 -34 -21 -54.5t-54 -20.5h-10v35h5q22 0 33.5 10t11.5 30v10h-30v75h65v-85zM97 0v700h70v-635h419v-65h-489zM-20 -225v55h642v-55h-642z" />
    <glyph glyph-name="lcaron" unicode="&#x13e;" horiz-adv-x="243" 
d="M275 615q0 -34 -21 -54.5t-54 -20.5h-10v35h5q22 0 33.5 10t11.5 30v10h-30v75h65v-85zM145 0h-65v700h65v-700zM295 -170v-55h-315v55h315z" />
    <glyph glyph-name="Ldot" unicode="&#x13f;" horiz-adv-x="602" 
d="M97 0v700h70v-635h419v-65h-489zM377 325v85h75v-85h-75zM-20 -225v55h642v-55h-642z" />
    <glyph glyph-name="ldot" unicode="&#x140;" horiz-adv-x="300" 
d="M145 0h-65v700h65v-700zM217 298v75h65v-75h-65zM320 -170v-55h-340v55h340z" />
    <glyph glyph-name="Lslash" unicode="&#x141;" horiz-adv-x="620" 
d="M604 0h-489v279l-95 -54v71l95 54v350h70v-311l194 110v-70l-194 -110v-254h419v-65zM-20 -225v55h660v-55h-660z" />
    <glyph glyph-name="lslash" unicode="&#x142;" horiz-adv-x="278" 
d="M108 0v349l-85 -48v66l85 48v285h65v-248l85 48v-65l-85 -48v-387h-65zM298 -170v-55h-318v55h318z" />
    <glyph glyph-name="Nacute" unicode="&#x143;" horiz-adv-x="739" 
d="M343 765l53 125h90l-83 -125h-60zM557 0l-390 603v-603h-70v700h90l385 -593v593h70v-700h-85zM-20 -225v55h779v-55h-779z" />
    <glyph glyph-name="nacute" unicode="&#x144;" horiz-adv-x="570" 
d="M254 570l57 130h80l-88 -130h-49zM145 250v-250h-65v500h65v-84q22 41 68 67.5t107 26.5q75 0 125 -46.5t50 -136.5v-327h-65v307q0 75 -30 111.5t-90 36.5h-6q-40 0 -70 -17t-50 -45t-29.5 -65.5t-9.5 -77.5zM590 -170v-55h-610v55h610z" />
    <glyph glyph-name="Ncommaaccent" unicode="&#x145;" horiz-adv-x="739" 
d="M557 0l-390 603v-603h-70v700h90l385 -593v593h70v-700h-85zM460 -225v55h299v-55h-299zM310 -310v35h5q22 0 33.5 10t11.5 30v10h-380v55h415v-65q0 -34 -21 -54.5t-54 -20.5h-10z" />
    <glyph glyph-name="ncommaaccent" unicode="&#x146;" horiz-adv-x="570" 
d="M145 250v-250h-65v500h65v-84q22 41 68 67.5t107 26.5q75 0 125 -46.5t50 -136.5v-327h-65v307q0 75 -30 111.5t-90 36.5h-6q-40 0 -70 -17t-50 -45t-29.5 -65.5t-9.5 -77.5zM385 -225v55h205v-55h-205zM245 -310h-10v35h5q22 0 33.5 10t11.5 30v10h-305v55h340v-65
q0 -34 -21 -54.5t-54 -20.5z" />
    <glyph glyph-name="Ncaron" unicode="&#x147;" horiz-adv-x="739" 
d="M337 765l-115 125h68l92 -72l92 72h68l-115 -125h-90zM557 0l-390 603v-603h-70v700h90l385 -593v593h70v-700h-85zM-20 -225v55h779v-55h-779z" />
    <glyph glyph-name="ncaron" unicode="&#x148;" horiz-adv-x="570" 
d="M316 570h-66l-127 130h60l100 -75l100 75h60zM145 250v-250h-65v500h65v-84q22 41 68 67.5t107 26.5q75 0 125 -46.5t50 -136.5v-327h-65v307q0 75 -30 111.5t-90 36.5h-6q-40 0 -70 -17t-50 -45t-29.5 -65.5t-9.5 -77.5zM590 -170v-55h-610v55h610z" />
    <glyph glyph-name="Eng" unicode="&#x14a;" horiz-adv-x="739" 
d="M642 -120q0 -52 -26.5 -78.5t-78.5 -26.5h-557v55h547q26 0 35.5 9.5t9.5 35.5v125h-15l-390 603v-603h-70v700h90l385 -593v593h70v-820z" />
    <glyph glyph-name="eng" unicode="&#x14b;" horiz-adv-x="570" 
d="M495 -135q0 -49 -23 -69.5t-72 -20.5h-420v55h410q23 0 31.5 9t8.5 31v437q0 75 -30 111.5t-90 36.5h-6q-40 0 -70 -17t-50 -45t-29.5 -65.5t-9.5 -77.5v-250h-65v500h65v-84q22 41 68 67.5t107 26.5q75 0 125 -46.5t50 -136.5v-462z" />
    <glyph glyph-name="Omacron" unicode="&#x14c;" horiz-adv-x="748" 
d="M237 780v55h275v-55h-275zM54 350q0 84 24 151t67 113.5t101.5 71t127.5 24.5t127.5 -24.5t101.5 -71t67 -113.5t24 -151t-24 -151t-67 -113.5t-101.5 -71t-127.5 -24.5t-127.5 24.5t-101.5 71t-67 113.5t-24 151zM124 350q0 -68 18.5 -123t51 -93t77.5 -58.5t98 -20.5
h10q53 0 98 20.5t77.5 58.5t51 93t18.5 123t-18.5 123t-51 93t-77.5 58.5t-98 20.5h-10q-53 0 -98 -20.5t-77.5 -58.5t-51 -93t-18.5 -123zM-20 -225v55h788v-55h-788z" />
    <glyph glyph-name="omacron" unicode="&#x14d;" horiz-adv-x="558" 
d="M142 590v55h275v-55h-275zM279 -10q-48 0 -90 19t-73 53t-49 82t-18 106t18 106t49 82t73 53t90 19t90 -19t73 -53t49 -82t18 -106t-18 -106t-49 -82t-73 -53t-90 -19zM284 45q67 0 113 54.5t46 150.5t-46 150.5t-113 54.5h-10q-67 0 -113 -54.5t-46 -150.5t46 -150.5
t113 -54.5h10zM578 -170v-55h-598v55h598z" />
    <glyph glyph-name="Obreve" unicode="&#x14e;" horiz-adv-x="748" 
d="M379 755q-63 0 -104 34.5t-41 100.5h55q4 -43 28.5 -61.5t61.5 -18.5t61.5 18.5t28.5 61.5h55q0 -66 -41 -100.5t-104 -34.5zM54 350q0 84 24 151t67 113.5t101.5 71t127.5 24.5t127.5 -24.5t101.5 -71t67 -113.5t24 -151t-24 -151t-67 -113.5t-101.5 -71t-127.5 -24.5
t-127.5 24.5t-101.5 71t-67 113.5t-24 151zM124 350q0 -68 18.5 -123t51 -93t77.5 -58.5t98 -20.5h10q53 0 98 20.5t77.5 58.5t51 93t18.5 123t-18.5 123t-51 93t-77.5 58.5t-98 20.5h-10q-53 0 -98 -20.5t-77.5 -58.5t-51 -93t-18.5 -123zM-20 -225v55h788v-55h-788z" />
    <glyph glyph-name="obreve" unicode="&#x14f;" horiz-adv-x="558" 
d="M280 560q-60 0 -100 36t-40 104h50q4 -45 28.5 -67t61.5 -22t61.5 22t28.5 67h50q0 -68 -40 -104t-100 -36zM279 -10q-48 0 -90 19t-73 53t-49 82t-18 106t18 106t49 82t73 53t90 19t90 -19t73 -53t49 -82t18 -106t-18 -106t-49 -82t-73 -53t-90 -19zM284 45
q67 0 113 54.5t46 150.5t-46 150.5t-113 54.5h-10q-67 0 -113 -54.5t-46 -150.5t46 -150.5t113 -54.5h10zM578 -170v-55h-598v55h598z" />
    <glyph glyph-name="Ohungarumlaut" unicode="&#x150;" horiz-adv-x="748" 
d="M445 765l53 125h90l-83 -125h-60zM281 765l53 125h90l-83 -125h-60zM54 350q0 84 24 151t67 113.5t101.5 71t127.5 24.5t127.5 -24.5t101.5 -71t67 -113.5t24 -151t-24 -151t-67 -113.5t-101.5 -71t-127.5 -24.5t-127.5 24.5t-101.5 71t-67 113.5t-24 151zM124 350
q0 -68 18.5 -123t51 -93t77.5 -58.5t98 -20.5h10q53 0 98 20.5t77.5 58.5t51 93t18.5 123t-18.5 123t-51 93t-77.5 58.5t-98 20.5h-10q-53 0 -98 -20.5t-77.5 -58.5t-51 -93t-18.5 -123zM-20 -225v55h788v-55h-788z" />
    <glyph glyph-name="ohungarumlaut" unicode="&#x151;" horiz-adv-x="558" 
d="M327 570l57 130h80l-88 -130h-49zM169 570l57 130h80l-88 -130h-49zM279 -10q-48 0 -90 19t-73 53t-49 82t-18 106t18 106t49 82t73 53t90 19t90 -19t73 -53t49 -82t18 -106t-18 -106t-49 -82t-73 -53t-90 -19zM284 45q67 0 113 54.5t46 150.5t-46 150.5t-113 54.5h-10
q-67 0 -113 -54.5t-46 -150.5t46 -150.5t113 -54.5h10zM578 -170v-55h-598v55h598z" />
    <glyph glyph-name="OE" unicode="&#x152;" horiz-adv-x="1168" 
d="M379 55q100 0 168 71t76 193v62q-8 122 -76 193t-168 71h-10q-53 0 -98 -20.5t-77.5 -58.5t-51 -93t-18.5 -123t18.5 -123t51 -93t77.5 -58.5t98 -20.5h10zM623 0v110q-43 -57 -107.5 -88.5t-141.5 -31.5q-69 0 -127.5 24.5t-101.5 71t-67 113.5t-24 151t24 151t67 113.5
t101.5 71t127.5 24.5q77 0 141.5 -31.5t107.5 -88.5v110h489v-65h-419v-242h359v-65h-358q-1 -3 -1 -5v-6v-252h429v-65h-499zM-20 -225v55h1208v-55h-1208z" />
    <glyph glyph-name="oe" unicode="&#x153;" horiz-adv-x="913" 
d="M662 -10q-62 0 -112.5 29t-79.5 86q-29 -54 -79 -84.5t-112 -30.5q-48 0 -90 19t-73 53t-49 82t-18 106t18 106t49 82t73 53t90 19q62 0 112 -31t79 -85q31 58 83 87t109 29q46 0 83 -17t63.5 -47.5t41 -71.5t14.5 -89v-40h-360q1 -53 14 -91t34.5 -62t49.5 -35.5
t59 -11.5h6q45 0 81 24t50 74h65q-16 -75 -70.5 -114t-130.5 -39zM656 455q-24 0 -48.5 -7.5t-45 -25.5t-36 -48t-20.5 -74h293q-2 66 -38 110.5t-95 44.5h-10zM274 45h10q68 0 111.5 54.5t43.5 150.5t-43.5 150.5t-111.5 54.5h-10q-68 0 -114 -54.5t-46 -150.5t46 -150.5
t114 -54.5zM933 -170v-55h-953v55h953z" />
    <glyph glyph-name="Racute" unicode="&#x154;" horiz-adv-x="675" 
d="M302 765l53 125h90l-83 -125h-60zM167 635v-275h206q30 0 58 10t49 28.5t34 45t13 59.5q0 62 -41 97t-113 35h-206zM167 0h-70v700h286q46 0 85.5 -14t68 -39t44.5 -59.5t16 -74.5q0 -60 -29 -104.5t-77 -63.5h7q49 0 69 -23t20 -72v-250h-70v250q0 22 -11.5 33.5
t-33.5 11.5h-305v-295zM-20 -225v55h715v-55h-715z" />
    <glyph glyph-name="racute" unicode="&#x155;" horiz-adv-x="358" 
d="M174 570l57 130h80l-88 -130h-49zM80 0v500h60v-114q17 60 60.5 89.5t94.5 29.5h45v-60h-40q-72 0 -113.5 -54t-41.5 -148v-243h-65zM378 -170v-55h-398v55h398z" />
    <glyph glyph-name="Rcommaaccent" unicode="&#x156;" horiz-adv-x="675" 
d="M167 635v-275h206q30 0 58 10t49 28.5t34 45t13 59.5q0 62 -41 97t-113 35h-206zM167 0h-70v700h286q46 0 85.5 -14t68 -39t44.5 -59.5t16 -74.5q0 -60 -29 -104.5t-77 -63.5h7q49 0 69 -23t20 -72v-250h-70v250q0 22 -11.5 33.5t-33.5 11.5h-305v-295zM434 -225v55h261
v-55h-261zM284 -310v35h5q22 0 33.5 10t11.5 30v10h-354v55h389v-65q0 -34 -21 -54.5t-54 -20.5h-10z" />
    <glyph glyph-name="rcommaaccent" unicode="&#x157;" horiz-adv-x="358" 
d="M80 0v500h60v-114q17 60 60.5 89.5t94.5 29.5h45v-60h-40q-72 0 -113.5 -54t-41.5 -148v-243h-65zM210 -225v55h168v-55h-168zM70 -310h-10v35h5q22 0 33.5 10t11.5 30v10h-130v55h165v-65q0 -34 -21 -54.5t-54 -20.5z" />
    <glyph glyph-name="Rcaron" unicode="&#x158;" horiz-adv-x="675" 
d="M296 765l-115 125h68l92 -72l92 72h68l-115 -125h-90zM167 635v-275h206q30 0 58 10t49 28.5t34 45t13 59.5q0 62 -41 97t-113 35h-206zM167 0h-70v700h286q46 0 85.5 -14t68 -39t44.5 -59.5t16 -74.5q0 -60 -29 -104.5t-77 -63.5h7q49 0 69 -23t20 -72v-250h-70v250
q0 22 -11.5 33.5t-33.5 11.5h-305v-295zM-20 -225v55h715v-55h-715z" />
    <glyph glyph-name="rcaron" unicode="&#x159;" horiz-adv-x="358" 
d="M229 570h-66l-127 130h60l100 -75l100 75h60zM80 0v500h60v-114q17 60 60.5 89.5t94.5 29.5h45v-60h-40q-72 0 -113.5 -54t-41.5 -148v-243h-65zM378 -170v-55h-398v55h398z" />
    <glyph glyph-name="Sacute" unicode="&#x15a;" horiz-adv-x="618" 
d="M288 765l53 125h90l-83 -125h-60zM497 495q-4 69 -53.5 109.5t-121.5 40.5h-10q-72 0 -118.5 -38.5t-46.5 -95.5q0 -47 31.5 -75t84.5 -38l112 -22q86 -17 133.5 -63t47.5 -124q0 -92 -66 -145.5t-178 -53.5q-129 0 -199.5 60.5t-70.5 169.5h70q0 -79 56 -122t143 -43h10
q80 0 122.5 38t42.5 92q0 49 -32 78t-98 42l-112 23q-79 16 -123 60.5t-44 121.5q0 41 16.5 77.5t47.5 63.5t75.5 43t100.5 16q111 0 178.5 -58t71.5 -157h-70zM-20 -225v55h658v-55h-658z" />
    <glyph glyph-name="sacute" unicode="&#x15b;" horiz-adv-x="477" 
d="M209 570l57 130h80l-88 -130h-49zM240 -10q-96 0 -145.5 45.5t-53.5 114.5h65q5 -51 41.5 -78t87.5 -27h10q52 0 82.5 24.5t30.5 65.5q0 29 -19 48t-69 29l-73 15q-57 12 -96.5 42.5t-39.5 93.5q0 35 14.5 63t39 46.5t57.5 28t68 9.5q48 0 82.5 -13.5t57.5 -35.5
t34.5 -51t13.5 -60h-65q-4 41 -35.5 73t-82.5 32h-10q-52 0 -80.5 -27t-28.5 -64q0 -27 21.5 -46t69.5 -29l78 -17q53 -11 90 -40t38 -92q1 -71 -50 -110.5t-133 -39.5zM497 -170v-55h-517v55h517z" />
    <glyph glyph-name="Scircumflex" unicode="&#x15c;" horiz-adv-x="618" 
d="M409 770l-92 72l-92 -72h-68l115 125h90l115 -125h-68zM497 495q-4 69 -53.5 109.5t-121.5 40.5h-10q-72 0 -118.5 -38.5t-46.5 -95.5q0 -47 31.5 -75t84.5 -38l112 -22q86 -17 133.5 -63t47.5 -124q0 -92 -66 -145.5t-178 -53.5q-129 0 -199.5 60.5t-70.5 169.5h70
q0 -79 56 -122t143 -43h10q80 0 122.5 38t42.5 92q0 49 -32 78t-98 42l-112 23q-79 16 -123 60.5t-44 121.5q0 41 16.5 77.5t47.5 63.5t75.5 43t100.5 16q111 0 178.5 -58t71.5 -157h-70zM-20 -225v55h658v-55h-658z" />
    <glyph glyph-name="scircumflex" unicode="&#x15d;" horiz-adv-x="477" 
d="M344 570l-100 75l-100 -75h-60l127 130h66l127 -130h-60zM240 -10q-96 0 -145.5 45.5t-53.5 114.5h65q5 -51 41.5 -78t87.5 -27h10q52 0 82.5 24.5t30.5 65.5q0 29 -19 48t-69 29l-73 15q-57 12 -96.5 42.5t-39.5 93.5q0 35 14.5 63t39 46.5t57.5 28t68 9.5
q48 0 82.5 -13.5t57.5 -35.5t34.5 -51t13.5 -60h-65q-4 41 -35.5 73t-82.5 32h-10q-52 0 -80.5 -27t-28.5 -64q0 -27 21.5 -46t69.5 -29l78 -17q53 -11 90 -40t38 -92q1 -71 -50 -110.5t-133 -39.5zM497 -170v-55h-517v55h517z" />
    <glyph glyph-name="Scedilla" unicode="&#x15e;" horiz-adv-x="618" 
d="M303 -225h-323v55h324q20 0 34.5 11t14.5 33t-14.5 32.5t-34.5 10.5h-28v74q-112 8 -173 68t-61 161h70q0 -79 56 -122t143 -43h10q80 0 122.5 38t42.5 92q0 49 -32 78t-98 42l-112 23q-79 16 -123 60.5t-44 121.5q0 41 16.5 77.5t47.5 63.5t75.5 43t100.5 16
q111 0 178.5 -58t71.5 -157h-70q-4 69 -53.5 109.5t-121.5 40.5h-10q-72 0 -118.5 -38.5t-46.5 -95.5q0 -47 31.5 -75t84.5 -38l112 -22q86 -17 133.5 -63t47.5 -124q0 -90 -63.5 -143.5t-171.5 -55.5v-35q32 1 57 -21.5t25 -59.5q0 -41 -25.5 -70t-74.5 -29zM480 -225v55
h158v-55h-158z" />
    <glyph glyph-name="scedilla" unicode="&#x15f;" horiz-adv-x="477" 
d="M237 -225h-257v55h258q20 0 34.5 11t14.5 33t-14.5 32.5t-34.5 10.5h-28v74q-81 7 -123 51.5t-46 107.5h65q5 -51 41.5 -78t87.5 -27h10q52 0 82.5 24.5t30.5 65.5q0 29 -19 48t-69 29l-73 15q-57 12 -96.5 42.5t-39.5 93.5q0 35 14.5 63t39 46.5t57.5 28t68 9.5
q48 0 82.5 -13.5t57.5 -35.5t34.5 -51t13.5 -60h-65q-4 41 -35.5 73t-82.5 32h-10q-52 0 -80.5 -27t-28.5 -64q0 -27 21.5 -46t69.5 -29l78 -17q53 -11 90 -40t38 -92q1 -68 -45.5 -107t-122.5 -43v-35q32 1 57 -21.5t25 -59.5q0 -41 -25.5 -70t-74.5 -29zM497 -170v-55h-69
v55h69z" />
    <glyph glyph-name="Scaron" unicode="&#x160;" horiz-adv-x="618" 
d="M277 765l-115 125h68l92 -72l92 72h68l-115 -125h-90zM497 495q-4 69 -53.5 109.5t-121.5 40.5h-10q-72 0 -118.5 -38.5t-46.5 -95.5q0 -47 31.5 -75t84.5 -38l112 -22q86 -17 133.5 -63t47.5 -124q0 -92 -66 -145.5t-178 -53.5q-129 0 -199.5 60.5t-70.5 169.5h70
q0 -79 56 -122t143 -43h10q80 0 122.5 38t42.5 92q0 49 -32 78t-98 42l-112 23q-79 16 -123 60.5t-44 121.5q0 41 16.5 77.5t47.5 63.5t75.5 43t100.5 16q111 0 178.5 -58t71.5 -157h-70zM-20 -225v55h658v-55h-658z" />
    <glyph glyph-name="scaron" unicode="&#x161;" horiz-adv-x="477" 
d="M276 570h-66l-127 130h60l100 -75l100 75h60zM240 -10q-96 0 -145.5 45.5t-53.5 114.5h65q5 -51 41.5 -78t87.5 -27h10q52 0 82.5 24.5t30.5 65.5q0 29 -19 48t-69 29l-73 15q-57 12 -96.5 42.5t-39.5 93.5q0 35 14.5 63t39 46.5t57.5 28t68 9.5q48 0 82.5 -13.5
t57.5 -35.5t34.5 -51t13.5 -60h-65q-4 41 -35.5 73t-82.5 32h-10q-52 0 -80.5 -27t-28.5 -64q0 -27 21.5 -46t69.5 -29l78 -17q53 -11 90 -40t38 -92q1 -71 -50 -110.5t-133 -39.5zM497 -170v-55h-517v55h517z" />
    <glyph glyph-name="uni0162" unicode="&#x162;" horiz-adv-x="610" 
d="M397 -126q0 -41 -25.5 -70t-74.5 -29h-317v55h318q20 0 34.5 11t14.5 33t-14.5 32.5t-34.5 10.5h-28v718h-255v65h580v-65h-255v-635h-25v-45q32 1 57 -21.5t25 -59.5zM480 -225v55h150v-55h-150z" />
    <glyph glyph-name="uni0163" unicode="&#x163;" horiz-adv-x="356" 
d="M310 -126q0 -41 -25.5 -70t-74.5 -29h-230v55h231q20 0 34.5 11t14.5 33t-14.5 32.5t-34.5 10.5h-28v88q-27 7 -40 27.5t-13 57.5v355h-115v55h115v162h65v-162h125v-55h-125v-350q0 -22 9 -31t31 -9h100v-55h-107v-45q32 1 57 -21.5t25 -59.5z" />
    <glyph glyph-name="Tcaron" unicode="&#x164;" horiz-adv-x="610" 
d="M260 765l-115 125h68l92 -72l92 72h68l-115 -125h-90zM270 0v635h-255v65h580v-65h-255v-635h-70zM-20 -225v55h650v-55h-650z" />
    <glyph glyph-name="tcaron" unicode="&#x165;" horiz-adv-x="356" 
d="M375 615q0 -34 -21 -54.5t-54 -20.5h-10v35h5q22 0 33.5 10t11.5 30v10h-30v75h65v-85zM195 95q0 -22 9 -31t31 -9h100v-55h-110q-49 0 -72 20.5t-23 69.5v355h-115v55h115v162h65v-162h125v-55h-125v-350zM395 -170v-55h-415v55h415z" />
    <glyph glyph-name="Tbar" unicode="&#x166;" horiz-adv-x="642" 
d="M546 350h-190v-350h-70v350h-190v60h190v225h-255v65h580v-65h-255v-225h190v-60zM-20 -225v55h682v-55h-682z" />
    <glyph glyph-name="tbar" unicode="&#x167;" horiz-adv-x="368" 
d="M344 55v-55h-110q-49 0 -72 20.5t-23 69.5v175h-115v55h115v125h-115v55h115v162h65v-162h125v-55h-125v-125h125v-55h-125v-170q0 -22 9 -31t31 -9h100zM388 -170v-55h-408v55h408z" />
    <glyph glyph-name="Utilde" unicode="&#x168;" horiz-adv-x="690" 
d="M424 760q-19 0 -35.5 8.5t-42.5 26.5q-21 16 -37.5 28t-35.5 12q-22 0 -31.5 -16.5t-9.5 -48.5h-50v23q0 41 25 69t62 28q21 0 37.5 -8.5t41.5 -26.5l39 -28q16 -12 34 -12q22 0 31 17t9 48h50v-23q0 -41 -25 -69t-62 -28zM600 250q0 -58 -16.5 -106t-48 -82t-79.5 -53
t-111 -19q-65 0 -113 19t-79.5 53t-47 82t-15.5 106v450h70v-440q0 -96 46 -150.5t134 -54.5h10q88 0 134 54.5t46 150.5v440h70v-450zM-20 -225v55h730v-55h-730z" />
    <glyph glyph-name="utilde" unicode="&#x169;" horiz-adv-x="560" 
d="M358 560q-19 0 -35.5 8.5t-42.5 26.5q-21 16 -37.5 28t-35.5 12q-22 0 -31.5 -16.5t-9.5 -48.5h-50v23q0 41 25 69t62 28q21 0 37.5 -8.5t41.5 -26.5l39 -28q16 -12 34 -12q22 0 31 17t9 48h50v-23q0 -41 -25 -69t-62 -28zM415 0v94q-19 -49 -62.5 -76.5t-104.5 -27.5
q-83 0 -128 51t-45 129v330h65v-310q0 -72 30 -108.5t90 -36.5h10q27 0 53.5 12.5t46.5 36.5t32.5 58.5t12.5 77.5v270h65v-500h-65zM580 -170v-55h-600v55h600z" />
    <glyph glyph-name="Umacron" unicode="&#x16a;" horiz-adv-x="690" 
d="M208 780v55h275v-55h-275zM600 250q0 -58 -16.5 -106t-48 -82t-79.5 -53t-111 -19q-65 0 -113 19t-79.5 53t-47 82t-15.5 106v450h70v-440q0 -96 46 -150.5t134 -54.5h10q88 0 134 54.5t46 150.5v440h70v-450zM-20 -225v55h730v-55h-730z" />
    <glyph glyph-name="umacron" unicode="&#x16b;" horiz-adv-x="560" 
d="M135 590v55h275v-55h-275zM415 0v94q-19 -49 -62.5 -76.5t-104.5 -27.5q-83 0 -128 51t-45 129v330h65v-310q0 -72 30 -108.5t90 -36.5h10q27 0 53.5 12.5t46.5 36.5t32.5 58.5t12.5 77.5v270h65v-500h-65zM580 -170v-55h-600v55h600z" />
    <glyph glyph-name="Ubreve" unicode="&#x16c;" horiz-adv-x="690" 
d="M345 755q-63 0 -104 34.5t-41 100.5h55q4 -43 28.5 -61.5t61.5 -18.5t61.5 18.5t28.5 61.5h55q0 -66 -41 -100.5t-104 -34.5zM600 250q0 -58 -16.5 -106t-48 -82t-79.5 -53t-111 -19q-65 0 -113 19t-79.5 53t-47 82t-15.5 106v450h70v-440q0 -96 46 -150.5t134 -54.5h10
q88 0 134 54.5t46 150.5v440h70v-450zM-20 -225v55h730v-55h-730z" />
    <glyph glyph-name="ubreve" unicode="&#x16d;" horiz-adv-x="560" 
d="M275 560q-60 0 -100 36t-40 104h50q4 -45 28.5 -67t61.5 -22t61.5 22t28.5 67h50q0 -68 -40 -104t-100 -36zM415 0v94q-19 -49 -62.5 -76.5t-104.5 -27.5q-83 0 -128 51t-45 129v330h65v-310q0 -72 30 -108.5t90 -36.5h10q27 0 53.5 12.5t46.5 36.5t32.5 58.5t12.5 77.5
v270h65v-500h-65zM580 -170v-55h-600v55h600z" />
    <glyph glyph-name="Uring" unicode="&#x16e;" horiz-adv-x="690" 
d="M266 838q0 34 24 56.5t55 22.5t55 -22.5t24 -56.5t-24 -56.5t-55 -22.5t-55 22.5t-24 56.5zM346 872q-13 0 -23.5 -10.5t-10.5 -23.5t10.5 -23.5t23.5 -10.5t22.5 10.5t9.5 23.5t-9.5 23.5t-22.5 10.5zM600 250q0 -58 -16.5 -106t-48 -82t-79.5 -53t-111 -19
q-65 0 -113 19t-79.5 53t-47 82t-15.5 106v450h70v-440q0 -96 46 -150.5t134 -54.5h10q88 0 134 54.5t46 150.5v440h70v-450zM-20 -225v55h730v-55h-730z" />
    <glyph glyph-name="uring" unicode="&#x16f;" horiz-adv-x="560" 
d="M190 649q0 37 25.5 60.5t58.5 23.5t58.5 -23.5t25.5 -60.5t-25.5 -60.5t-58.5 -23.5t-58.5 23.5t-25.5 60.5zM275 693q-18 0 -31 -13t-13 -31t13 -31t31 -13t30.5 13t12.5 31t-12.5 31t-30.5 13zM415 0v94q-19 -49 -62.5 -76.5t-104.5 -27.5q-83 0 -128 51t-45 129v330
h65v-310q0 -72 30 -108.5t90 -36.5h10q27 0 53.5 12.5t46.5 36.5t32.5 58.5t12.5 77.5v270h65v-500h-65zM580 -170v-55h-600v55h600z" />
    <glyph glyph-name="Uhungarumlaut" unicode="&#x170;" horiz-adv-x="690" 
d="M385 765l53 125h90l-83 -125h-60zM221 765l53 125h90l-83 -125h-60zM600 250q0 -58 -16.5 -106t-48 -82t-79.5 -53t-111 -19q-65 0 -113 19t-79.5 53t-47 82t-15.5 106v450h70v-440q0 -96 46 -150.5t134 -54.5h10q88 0 134 54.5t46 150.5v440h70v-450zM-20 -225v55h730
v-55h-730z" />
    <glyph glyph-name="uhungarumlaut" unicode="&#x171;" horiz-adv-x="560" 
d="M318 570l57 130h80l-88 -130h-49zM160 570l57 130h80l-88 -130h-49zM415 0v94q-19 -49 -62.5 -76.5t-104.5 -27.5q-83 0 -128 51t-45 129v330h65v-310q0 -72 30 -108.5t90 -36.5h10q27 0 53.5 12.5t46.5 36.5t32.5 58.5t12.5 77.5v270h65v-500h-65zM580 -170v-55h-600v55
h600z" />
    <glyph glyph-name="Uogonek" unicode="&#x172;" horiz-adv-x="690" 
d="M387 -225q-54 0 -79.5 25t-25.5 68q0 31 20 64t57 58h-7h-7q-65 0 -113 19t-79.5 53t-47 82t-15.5 106v450h70v-440q0 -96 46 -150.5t134 -54.5h10q88 0 134 54.5t46 150.5v440h70v-450q0 -99 -47 -166.5t-139 -86.5q-43 -28 -62.5 -57t-19.5 -55q0 -31 17.5 -43
t37.5 -12h323v-55h-323zM-20 -225v55h243v-55h-243z" />
    <glyph glyph-name="uogonek" unicode="&#x173;" horiz-adv-x="560" 
d="M580 -170v-55h-132q-54 0 -79.5 25t-25.5 68q0 34 24 70.5t68 61.5h-20v94q-19 -49 -62.5 -76.5t-104.5 -27.5q-83 0 -128 51t-45 129v330h65v-310q0 -72 30 -108.5t90 -36.5h10q27 0 53.5 12.5t46.5 36.5t32.5 58.5t12.5 77.5v270h65v-500q-46 -29 -66.5 -58.5
t-20.5 -56.5q0 -31 17.5 -43t37.5 -12h132zM284 -170v-55h-304v55h304z" />
    <glyph glyph-name="Wcircumflex" unicode="&#x174;" horiz-adv-x="917" 
d="M552 765l-92 72l-92 -72h-68l115 125h90l115 -125h-68zM613 0l-154 627l-155 -627h-106l-173 700h71l157 -646l155 646h104l157 -641l153 641h70l-173 -700h-106zM-20 -225v55h957v-55h-957z" />
    <glyph glyph-name="wcircumflex" unicode="&#x175;" horiz-adv-x="766" 
d="M484 570l-100 75l-100 -75h-60l127 130h66l127 -130h-60zM496 0l-113 431l-113 -431h-86l-161 500h67l139 -442l113 442h83l118 -448l136 449l64 -1l-160 -500h-87zM786 -170v-55h-806v55h806z" />
    <glyph glyph-name="Ycircumflex" unicode="&#x176;" horiz-adv-x="594" 
d="M389 765l-92 72l-92 -72h-68l115 125h90l115 -125h-68zM332 0h-70v290l-255 410h79l212 -346l212 346h77l-255 -410v-290zM-20 -225v55h634v-55h-634z" />
    <glyph glyph-name="ycircumflex" unicode="&#x177;" horiz-adv-x="520" 
d="M368 570l-100 75l-100 -75h-60l127 130h66l127 -130h-60zM205 -225h-225v55h215q22 0 31 9t9 31v144l-212 486h71l172 -404l172 404h68l-206 -483v-155q0 -46 -23 -66.5t-72 -20.5zM540 -170v-55h-144v55h144z" />
    <glyph glyph-name="Ydieresis" unicode="&#x178;" horiz-adv-x="594" 
d="M164 780v80h80v-80h-80zM350 780v80h80v-80h-80zM332 0h-70v290l-255 410h79l212 -346l212 346h77l-255 -410v-290zM-20 -225v55h634v-55h-634z" />
    <glyph glyph-name="Zacute" unicode="&#x179;" horiz-adv-x="596" 
d="M261 770l53 125h90l-83 -125h-60zM41 0v74l426 561h-416v65h495v-69l-429 -566h439v-65h-515zM-20 -225v55h636v-55h-636z" />
    <glyph glyph-name="zacute" unicode="&#x17a;" horiz-adv-x="472" 
d="M192 570l57 130h80l-88 -130h-49zM436 0h-395v61l310 384h-305v55h375v-59l-312 -386h327v-55zM492 -170v-55h-512v55h512z" />
    <glyph glyph-name="Zdotaccent" unicode="&#x17b;" horiz-adv-x="596" 
d="M268 780v85h75v-85h-75zM41 0v74l426 561h-416v65h495v-69l-429 -566h439v-65h-515zM-20 -225v55h636v-55h-636z" />
    <glyph glyph-name="zdotaccent" unicode="&#x17c;" horiz-adv-x="472" 
d="M200 590v85h75v-85h-75zM436 0h-395v61l310 384h-305v55h375v-59l-312 -386h327v-55zM492 -170v-55h-512v55h512z" />
    <glyph glyph-name="Zcaron" unicode="&#x17d;" horiz-adv-x="596" 
d="M251 765l-115 125h68l92 -72l92 72h68l-115 -125h-90zM41 0v74l426 561h-416v65h495v-69l-429 -566h439v-65h-515zM-20 -225v55h636v-55h-636z" />
    <glyph glyph-name="zcaron" unicode="&#x17e;" horiz-adv-x="472" 
d="M271 570h-66l-127 130h60l100 -75l100 75h60zM436 0h-395v61l310 384h-305v55h375v-59l-312 -386h327v-55zM492 -170v-55h-512v55h512z" />
    <glyph glyph-name="florin" unicode="&#x192;" horiz-adv-x="415" 
d="M162 -35q-16 -101 -55 -145.5t-123 -44.5h-42v55h35q60 0 82.5 28.5t32.5 91.5l67 435h-111v60h121l11 73q16 101 53.5 141.5t119.5 40.5h40v-65h-35q-59 0 -80.5 -28.5t-31.5 -91.5l-11 -70h130v-60h-139zM435 -170v-55h-219v55h219z" />
    <glyph glyph-name="AEmacron" unicode="&#x1e2;" horiz-adv-x="984" 
d="M504 780v55h275v-55h-275zM507 258l-53 384l-226 -384h279zM542 0l-26 193h-326l-114 -193h-79l415 700h485v-65h-373l33 -242h310v-65h-301l35 -263h356v-65h-415zM-20 -225v55h1024v-55h-1024z" />
    <glyph glyph-name="aemacron" unicode="&#x1e3;" horiz-adv-x="841" 
d="M275 590v55h275v-55h-275zM590 -10q-59 0 -108 27t-78 78q-26 -46 -74.5 -75.5t-114.5 -29.5q-70 0 -119 42.5t-49 105.5q0 43 15.5 71.5t40 46.5t54 26.5t57.5 10.5l153 12v15q0 64 -32.5 99.5t-87.5 35.5h-5q-46 0 -80.5 -24t-39.5 -71h-65q4 66 56.5 108t130.5 42
q61 0 103 -26.5t63 -68.5q31 48 79.5 71.5t100.5 23.5q46 0 83 -17t63.5 -47.5t41 -71.5t14.5 -89v-40h-360q1 -53 14 -91t34.5 -62t49.5 -35.5t59 -11.5h6q45 0 81 24t50 74h65q-16 -75 -70.5 -114t-130.5 -39zM584 455q-24 0 -48.5 -7.5t-45 -25.5t-36 -48t-20.5 -74h293
q-2 66 -38 110.5t-95 44.5h-10zM367 188v62l-140 -10q-51 -4 -83 -29.5t-32 -68.5q0 -41 30 -69t75 -28h10q25 0 50 11.5t45 31t32.5 45.5t12.5 55zM861 -170v-55h-881v55h881z" />
    <glyph glyph-name="Aringacute" unicode="&#x1fa;" horiz-adv-x="677" 
d="M318 928l39 88h70l-60 -88h-49zM272 828q0 30 21 49.5t48 19.5t48 -19.5t21 -49.5t-21 -49.5t-48 -19.5t-48 19.5t-21 49.5zM342 852q-10 0 -17 -7t-7 -17t7 -17t17 -7q9 0 16 7t7 17t-7 17t-16 7zM490 258l-153 378l-153 -378h306zM8 0l287 700h88l285 -700h-74l-78 193
h-358l-78 -193h-72zM-30 -225v55h737v-55h-737z" />
    <glyph glyph-name="aringacute" unicode="&#x1fb;" horiz-adv-x="517" 
d="M229 766l57 130h80l-88 -130h-49zM172 645q0 36 25.5 60t58.5 24t58.5 -24t25.5 -60q0 -37 -25.5 -60.5t-58.5 -23.5t-58.5 23.5t-25.5 60.5zM257 689q-18 0 -31 -13t-13 -31t13 -31t31 -13t30.5 13t12.5 31t-12.5 31t-30.5 13zM377 180v67l-145 -10q-53 -4 -86.5 -29
t-33.5 -66t28.5 -69t71.5 -28h10q26 0 53.5 10.5t50 29t37 43t14.5 52.5zM442 110q0 -22 0.5 -53t4.5 -57h-60q-3 16 -4 38t-1 42q-15 -34 -63 -62t-114 -28t-112 42.5t-46 105.5q0 41 16 69t41 45t55.5 25.5t59.5 10.5l158 12v20q0 64 -34 99.5t-91 35.5h-5q-48 0 -84 -24
t-41 -71h-65q4 66 58 108t134 42q49 0 85 -15.5t60 -41.5t36 -60.5t12 -72.5v-210zM-20 -225v55h557v-55h-557z" />
    <glyph glyph-name="AEacute" unicode="&#x1fc;" horiz-adv-x="984" 
d="M588 765l53 125h90l-83 -125h-60zM507 258l-53 384l-226 -384h279zM542 0l-26 193h-326l-114 -193h-79l415 700h485v-65h-373l33 -242h310v-65h-301l35 -263h356v-65h-415zM-20 -225v55h1024v-55h-1024z" />
    <glyph glyph-name="aeacute" unicode="&#x1fd;" horiz-adv-x="841" 
d="M387 570l57 130h80l-88 -130h-49zM590 -10q-59 0 -108 27t-78 78q-26 -46 -74.5 -75.5t-114.5 -29.5q-70 0 -119 42.5t-49 105.5q0 43 15.5 71.5t40 46.5t54 26.5t57.5 10.5l153 12v15q0 64 -32.5 99.5t-87.5 35.5h-5q-46 0 -80.5 -24t-39.5 -71h-65q4 66 56.5 108
t130.5 42q61 0 103 -26.5t63 -68.5q31 48 79.5 71.5t100.5 23.5q46 0 83 -17t63.5 -47.5t41 -71.5t14.5 -89v-40h-360q1 -53 14 -91t34.5 -62t49.5 -35.5t59 -11.5h6q45 0 81 24t50 74h65q-16 -75 -70.5 -114t-130.5 -39zM584 455q-24 0 -48.5 -7.5t-45 -25.5t-36 -48
t-20.5 -74h293q-2 66 -38 110.5t-95 44.5h-10zM367 188v62l-140 -10q-51 -4 -83 -29.5t-32 -68.5q0 -41 30 -69t75 -28h10q25 0 50 11.5t45 31t32.5 45.5t12.5 55zM861 -170v-55h-881v55h881z" />
    <glyph glyph-name="Oslashacute" unicode="&#x1fe;" horiz-adv-x="752" 
d="M348 765l53 125h90l-83 -125h-60zM126 350q0 -60 14.5 -109.5t39.5 -86.5l348 441q-30 24 -67.5 37t-79.5 13h-10q-53 0 -98 -20.5t-77.5 -58.5t-51 -93t-18.5 -123zM381 55q53 0 98 20.5t77.5 58.5t51 93t18.5 123q0 60 -14 109t-39 86l-348 -440q30 -25 67 -37.5
t79 -12.5h10zM376 -10q-55 0 -104 16t-89 46l-63 -80l-52 41l68 86q-37 46 -58.5 109.5t-21.5 141.5q0 84 24 151t67 113.5t101.5 71t127.5 24.5q55 0 104 -16t89 -47l64 81l52 -41l-68 -86q37 -46 58 -109.5t21 -141.5q0 -84 -24 -151t-67 -113.5t-101.5 -71t-127.5 -24.5z
M-20 -225v55h792v-55h-792z" />
    <glyph glyph-name="oslashacute" unicode="&#x1ff;" horiz-adv-x="559" 
d="M250 570l57 130h80l-88 -130h-49zM116 250q0 -38 8 -70t22 -57l229 300q-19 16 -42 24t-48 8h-10q-67 0 -113 -54.5t-46 -150.5zM275 45h10q67 0 113 54.5t46 150.5q0 39 -8.5 72t-22.5 58l-231 -301q19 -16 43 -25t50 -9zM280 -10q-37 0 -70.5 11.5t-61.5 31.5l-51 -66
l-43 36l53 70q-26 34 -41.5 78.5t-15.5 98.5q0 58 18 106t49 82t73 53t90 19q37 0 69.5 -11t60.5 -31l50 66l46 -32l-55 -72q28 -34 43.5 -80t15.5 -100q0 -58 -18 -106t-49 -82t-73 -53t-90 -19zM579 -170v-55h-599v55h599z" />
    <glyph glyph-name="Scommaaccent" unicode="&#x218;" horiz-adv-x="618" 
d="M497 495q-4 69 -53.5 109.5t-121.5 40.5h-10q-72 0 -118.5 -38.5t-46.5 -95.5q0 -47 31.5 -75t84.5 -38l112 -22q86 -17 133.5 -63t47.5 -124q0 -92 -66 -145.5t-178 -53.5q-129 0 -199.5 60.5t-70.5 169.5h70q0 -79 56 -122t143 -43h10q80 0 122.5 38t42.5 92
q0 49 -32 78t-98 42l-112 23q-79 16 -123 60.5t-44 121.5q0 41 16.5 77.5t47.5 63.5t75.5 43t100.5 16q111 0 178.5 -58t71.5 -157h-70zM406 -225v55h232v-55h-232zM256 -310v35h5q22 0 33.5 10t11.5 30v10h-326v55h361v-65q0 -34 -21 -54.5t-54 -20.5h-10z" />
    <glyph glyph-name="scommaaccent" unicode="&#x219;" horiz-adv-x="477" 
d="M240 -10q-96 0 -145.5 45.5t-53.5 114.5h65q5 -51 41.5 -78t87.5 -27h10q52 0 82.5 24.5t30.5 65.5q0 29 -19 48t-69 29l-73 15q-57 12 -96.5 42.5t-39.5 93.5q0 35 14.5 63t39 46.5t57.5 28t68 9.5q48 0 82.5 -13.5t57.5 -35.5t34.5 -51t13.5 -60h-65q-4 41 -35.5 73
t-82.5 32h-10q-52 0 -80.5 -27t-28.5 -64q0 -27 21.5 -46t69.5 -29l78 -17q53 -11 90 -40t38 -92q1 -71 -50 -110.5t-133 -39.5zM340 -225v55h157v-55h-157zM200 -310h-10v35h5q22 0 33.5 10t11.5 30v10h-260v55h295v-65q0 -34 -21 -54.5t-54 -20.5z" />
    <glyph glyph-name="uni021A" unicode="&#x21a;" horiz-adv-x="610" 
d="M270 0v635h-255v65h580v-65h-255v-635h-70zM403 -225v55h227v-55h-227zM253 -310v35h5q22 0 33.5 10t11.5 30v10h-323v55h358v-65q0 -34 -21 -54.5t-54 -20.5h-10z" />
    <glyph glyph-name="uni021B" unicode="&#x21b;" horiz-adv-x="356" 
d="M195 95q0 -22 9 -31t31 -9h100v-55h-110q-49 0 -72 20.5t-23 69.5v355h-115v55h115v162h65v-162h125v-55h-125v-350zM292 -225v55h84v-55h-84zM152 -310h-10v35h5q22 0 33.5 10t11.5 30v10h-212v55h247v-65q0 -34 -21 -54.5t-54 -20.5z" />
    <glyph glyph-name="uni0226" unicode="&#x226;" horiz-adv-x="677" 
d="M301 780v85h75v-85h-75zM490 258l-153 378l-153 -378h306zM8 0l287 700h88l285 -700h-74l-78 193h-358l-78 -193h-72zM-30 -225v55h737v-55h-737z" />
    <glyph glyph-name="uni0227" unicode="&#x227;" horiz-adv-x="517" 
d="M220 590v85h75v-85h-75zM377 180v67l-145 -10q-53 -4 -86.5 -29t-33.5 -66t28.5 -69t71.5 -28h10q26 0 53.5 10.5t50 29t37 43t14.5 52.5zM442 110q0 -22 0.5 -53t4.5 -57h-60q-3 16 -4 38t-1 42q-15 -34 -63 -62t-114 -28t-112 42.5t-46 105.5q0 41 16 69t41 45
t55.5 25.5t59.5 10.5l158 12v20q0 64 -34 99.5t-91 35.5h-5q-48 0 -84 -24t-41 -71h-65q4 66 58 108t134 42q49 0 85 -15.5t60 -41.5t36 -60.5t12 -72.5v-210zM-20 -225v55h557v-55h-557z" />
    <glyph glyph-name="Ymacron" unicode="&#x232;" horiz-adv-x="594" 
d="M160 780v55h275v-55h-275zM332 0h-70v290l-255 410h79l212 -346l212 346h77l-255 -410v-290zM-20 -225v55h634v-55h-634z" />
    <glyph glyph-name="ymacron" unicode="&#x233;" horiz-adv-x="520" 
d="M127 590v55h275v-55h-275zM205 -225h-225v55h215q22 0 31 9t9 31v144l-212 486h71l172 -404l172 404h68l-206 -483v-155q0 -46 -23 -66.5t-72 -20.5zM540 -170v-55h-144v55h144z" />
    <glyph glyph-name="dotlessj" unicode="&#x237;" horiz-adv-x="233" 
d="M153 500v-635q0 -49 -23 -69.5t-72 -20.5h-140v55h130q22 0 31 9t9 31v630h65z" />
    <glyph glyph-name="circumflex" unicode="&#x2c6;" horiz-adv-x="330" 
d="M265 570l-100 75l-100 -75h-60l127 130h66l127 -130h-60z" />
    <glyph glyph-name="caron" unicode="&#x2c7;" horiz-adv-x="330" 
d="M198 570h-66l-127 130h60l100 -75l100 75h60z" />
    <glyph glyph-name="breve" unicode="&#x2d8;" horiz-adv-x="360" 
d="M180 560q-60 0 -100 36t-40 104h50q4 -45 28.5 -67t61.5 -22t61.5 22t28.5 67h50q0 -68 -40 -104t-100 -36z" />
    <glyph glyph-name="dotaccent" unicode="&#x2d9;" horiz-adv-x="163" 
d="M45 590v85h75v-85h-75z" />
    <glyph glyph-name="ring" unicode="&#x2da;" horiz-adv-x="268" 
d="M50 649q0 37 25.5 60.5t58.5 23.5t58.5 -23.5t25.5 -60.5t-25.5 -60.5t-58.5 -23.5t-58.5 23.5t-25.5 60.5zM135 693q-18 0 -31 -13t-13 -31t13 -31t31 -13t30.5 13t12.5 31t-12.5 31t-30.5 13z" />
    <glyph glyph-name="ogonek" unicode="&#x2db;" horiz-adv-x="210" 
d="M230 -170v-55h-92q-54 0 -79.5 25t-25.5 68q0 38 29.5 78t82.5 64l25 -10q-46 -29 -66.5 -58.5t-20.5 -56.5q0 -31 17.5 -43t37.5 -12h92z" />
    <glyph glyph-name="tilde" unicode="&#x2dc;" horiz-adv-x="430" 
d="M282 560q-19 0 -35.5 8.5t-42.5 26.5q-21 16 -37.5 28t-35.5 12q-22 0 -31.5 -16.5t-9.5 -48.5h-50v23q0 41 25 69t62 28q21 0 37.5 -8.5t41.5 -26.5l39 -28q16 -12 34 -12q22 0 31 17t9 48h50v-23q0 -41 -25 -69t-62 -28z" />
    <glyph glyph-name="hungarumlaut" unicode="&#x2dd;" horiz-adv-x="385" 
d="M208 570l57 130h80l-88 -130h-49zM50 570l57 130h80l-88 -130h-49z" />
    <glyph glyph-name="Delta" unicode="&#x394;" horiz-adv-x="662" 
d="M638 70v-70h-614v70l270 630h74zM568 65l-237 554l-238 -554h475zM682 -170v-55h-702v55h702z" />
    <glyph glyph-name="mu" unicode="&#x3bc;" horiz-adv-x="565" 
d="M80 -225v725h65v-310q0 -72 30 -108.5t90 -36.5h10q27 0 53.5 12.5t46.5 36.5t32.5 58.5t12.5 77.5v270h65v-500h-65v94q-19 -49 -62.5 -76.5t-104.5 -27.5q-33 0 -60 8.5t-48 23.5v-192h440v-55h-505z" />
    <glyph glyph-name="pi" unicode="&#x3c0;" horiz-adv-x="661" 
d="M198 0h-65v445h-115v55h600v-55h-115v-340q0 -25 11.5 -37.5t33.5 -12.5h70v-55h-75q-52 0 -78.5 26.5t-26.5 78.5v340h-240v-445zM681 -170v-55h-701v55h701z" />
    <glyph glyph-name="Wgrave" unicode="&#x1e80;" horiz-adv-x="917" 
d="M435 890l53 -125h-60l-83 125h90zM613 0l-154 627l-155 -627h-106l-173 700h71l157 -646l155 646h104l157 -641l153 641h70l-173 -700h-106zM-20 -225v55h957v-55h-957z" />
    <glyph glyph-name="wgrave" unicode="&#x1e81;" horiz-adv-x="766" 
d="M350 700l57 -130h-49l-88 130h80zM496 0l-113 431l-113 -431h-86l-161 500h67l139 -442l113 442h83l118 -448l136 449l64 -1l-160 -500h-87zM786 -170v-55h-806v55h806z" />
    <glyph glyph-name="Wacute" unicode="&#x1e82;" horiz-adv-x="917" 
d="M438 765l53 125h90l-83 -125h-60zM613 0l-154 627l-155 -627h-106l-173 700h71l157 -646l155 646h104l157 -641l153 641h70l-173 -700h-106zM-20 -225v55h957v-55h-957z" />
    <glyph glyph-name="wacute" unicode="&#x1e83;" horiz-adv-x="766" 
d="M358 570l57 130h80l-88 -130h-49zM496 0l-113 431l-113 -431h-86l-161 500h67l139 -442l113 442h83l118 -448l136 449l64 -1l-160 -500h-87zM786 -170v-55h-806v55h806z" />
    <glyph glyph-name="Wdieresis" unicode="&#x1e84;" horiz-adv-x="917" 
d="M326 780v80h80v-80h-80zM512 780v80h80v-80h-80zM613 0l-154 627l-155 -627h-106l-173 700h71l157 -646l155 646h104l157 -641l153 641h70l-173 -700h-106zM-20 -225v55h957v-55h-957z" />
    <glyph glyph-name="wdieresis" unicode="&#x1e85;" horiz-adv-x="766" 
d="M258 590v80h75v-80h-75zM433 590v80h75v-80h-75zM496 0l-113 431l-113 -431h-86l-161 500h67l139 -442l113 442h83l118 -448l136 449l64 -1l-160 -500h-87zM786 -170v-55h-806v55h806z" />
    <glyph glyph-name="uni1EA0" unicode="&#x1ea0;" horiz-adv-x="677" 
d="M490 258l-153 378l-153 -378h306zM8 0l287 700h88l285 -700h-74l-78 193h-358l-78 -193h-72zM306 -225v75h65v-75h-65zM436 -225v55h271v-55h-271zM-30 -225v55h271v-55h-271z" />
    <glyph glyph-name="uni1EA1" unicode="&#x1ea1;" horiz-adv-x="517" 
d="M377 180v67l-145 -10q-53 -4 -86.5 -29t-33.5 -66t28.5 -69t71.5 -28h10q26 0 53.5 10.5t50 29t37 43t14.5 52.5zM442 110q0 -22 0.5 -53t4.5 -57h-60q-3 16 -4 38t-1 42q-15 -34 -63 -62t-114 -28t-112 42.5t-46 105.5q0 41 16 69t41 45t55.5 25.5t59.5 10.5l158 12v20
q0 64 -34 99.5t-91 35.5h-5q-48 0 -84 -24t-41 -71h-65q4 66 58 108t134 42q49 0 85 -15.5t60 -41.5t36 -60.5t12 -72.5v-210zM224 -225v75h65v-75h-65zM354 -225v55h183v-55h-183zM-20 -225v55h179v-55h-179z" />
    <glyph glyph-name="uni1EB8" unicode="&#x1eb8;" horiz-adv-x="642" 
d="M596 0h-499v700h489v-65h-419v-242h359v-65h-359v-263h429v-65zM312 -225v75h65v-75h-65zM442 -225v55h220v-55h-220zM-20 -225v55h267v-55h-267z" />
    <glyph glyph-name="uni1EB9" unicode="&#x1eb9;" horiz-adv-x="524" 
d="M273 -10q-47 0 -87.5 17t-70.5 49.5t-47.5 81.5t-17.5 113q0 65 18.5 114t49.5 81t71.5 48t83.5 16q46 0 83 -17t63.5 -47.5t41 -71.5t14.5 -89v-40h-360q1 -53 14 -91t34.5 -62t49.5 -35.5t59 -11.5h6q45 0 81 24t50 74h65q-16 -75 -70.5 -114t-130.5 -39zM267 455
q-24 0 -48.5 -7.5t-45 -25.5t-36 -48t-20.5 -74h293q-2 66 -38 110.5t-95 44.5h-10zM240 -225v75h65v-75h-65zM370 -225v55h174v-55h-174zM175 -170v-55h-195v55h195z" />
    <glyph glyph-name="uni1ECA" unicode="&#x1eca;" horiz-adv-x="264" 
d="M167 0h-70v700h70v-700zM100 -225v75h65v-75h-65zM230 -225v55h54v-55h-54zM-20 -225v55h55v-55h-55z" />
    <glyph glyph-name="uni1ECB" unicode="&#x1ecb;" horiz-adv-x="225" 
d="M75 590v85h75v-85h-75zM145 0h-65v500h65v-500zM80 -225v75h65v-75h-65z" />
    <glyph glyph-name="uni1ECC" unicode="&#x1ecc;" horiz-adv-x="748" 
d="M54 350q0 84 24 151t67 113.5t101.5 71t127.5 24.5t127.5 -24.5t101.5 -71t67 -113.5t24 -151t-24 -151t-67 -113.5t-101.5 -71t-127.5 -24.5t-127.5 24.5t-101.5 71t-67 113.5t-24 151zM124 350q0 -68 18.5 -123t51 -93t77.5 -58.5t98 -20.5h10q53 0 98 20.5t77.5 58.5
t51 93t18.5 123t-18.5 123t-51 93t-77.5 58.5t-98 20.5h-10q-53 0 -98 -20.5t-77.5 -58.5t-51 -93t-18.5 -123zM342 -225v75h65v-75h-65zM472 -225v55h296v-55h-296zM-20 -225v55h297v-55h-297z" />
    <glyph glyph-name="uni1ECD" unicode="&#x1ecd;" horiz-adv-x="558" 
d="M279 -10q-48 0 -90 19t-73 53t-49 82t-18 106t18 106t49 82t73 53t90 19t90 -19t73 -53t49 -82t18 -106t-18 -106t-49 -82t-73 -53t-90 -19zM284 45q67 0 113 54.5t46 150.5t-46 150.5t-113 54.5h-10q-67 0 -113 -54.5t-46 -150.5t46 -150.5t113 -54.5h10zM248 -225v75
h65v-75h-65zM378 -225v55h200v-55h-200zM183 -170v-55h-203v55h203z" />
    <glyph glyph-name="uni1EE4" unicode="&#x1ee4;" horiz-adv-x="690" 
d="M600 250q0 -58 -16.5 -106t-48 -82t-79.5 -53t-111 -19q-65 0 -113 19t-79.5 53t-47 82t-15.5 106v450h70v-440q0 -96 46 -150.5t134 -54.5h10q88 0 134 54.5t46 150.5v440h70v-450zM313 -225v75h65v-75h-65zM443 -225v55h267v-55h-267zM-20 -225v55h268v-55h-268z" />
    <glyph glyph-name="uni1EE5" unicode="&#x1ee5;" horiz-adv-x="560" 
d="M415 0v94q-19 -49 -62.5 -76.5t-104.5 -27.5q-83 0 -128 51t-45 129v330h65v-310q0 -72 30 -108.5t90 -36.5h10q27 0 53.5 12.5t46.5 36.5t32.5 58.5t12.5 77.5v270h65v-500h-65zM242 -225v75h65v-75h-65zM372 -225v55h208v-55h-208zM177 -170v-55h-197v55h197z" />
    <glyph glyph-name="Ygrave" unicode="&#x1ef2;" horiz-adv-x="594" 
d="M276 890l53 -125h-60l-83 125h90zM332 0h-70v290l-255 410h79l212 -346l212 346h77l-255 -410v-290zM-20 -225v55h634v-55h-634z" />
    <glyph glyph-name="ygrave" unicode="&#x1ef3;" horiz-adv-x="520" 
d="M243 700l57 -130h-49l-88 130h80zM205 -225h-225v55h215q22 0 31 9t9 31v144l-212 486h71l172 -404l172 404h68l-206 -483v-155q0 -46 -23 -66.5t-72 -20.5zM540 -170v-55h-144v55h144z" />
    <glyph glyph-name="enspace" unicode="&#x2002;" horiz-adv-x="500" 
 />
    <glyph glyph-name="emspace" unicode="&#x2003;" horiz-adv-x="1000" 
 />
    <glyph glyph-name="thinspace" unicode="&#x2009;" horiz-adv-x="125" 
d="M145 -170v-55h-165v55h165z" />
    <glyph glyph-name="endash" unicode="&#x2013;" horiz-adv-x="568" 
d="M69 275v55h430v-55h-430z" />
    <glyph glyph-name="emdash" unicode="&#x2014;" horiz-adv-x="888" 
d="M69 275v55h750v-55h-750z" />
    <glyph glyph-name="quoteleft" unicode="&#x2018;" horiz-adv-x="248" 
d="M160 700h40v-40h-30q-30 0 -45 -15t-15 -45v-15h55v-100h-100v120q0 45 24.5 70t70.5 25z" />
    <glyph glyph-name="quoteright" unicode="&#x2019;" horiz-adv-x="250" 
d="M96 485h-40v40h30q30 0 45 15t15 45v15h-55v100h100v-120q0 -45 -24.5 -70t-70.5 -25zM270 -170v-55h-290v55h290z" />
    <glyph glyph-name="quotesinglbase" unicode="&#x201a;" horiz-adv-x="240" 
d="M75 -115h-40v40h30q30 0 45 15t15 45v15h-55v100h100v-120q0 -45 -24.5 -70t-70.5 -25z" />
    <glyph glyph-name="quotedblleft" unicode="&#x201c;" horiz-adv-x="453" 
d="M365 700h40v-40h-30q-30 0 -45 -15t-15 -45v-15h55v-100h-100v120q0 45 24.5 70t70.5 25zM160 700h40v-40h-30q-30 0 -45 -15t-15 -45v-15h55v-100h-100v120q0 45 24.5 70t70.5 25z" />
    <glyph glyph-name="quotedblright" unicode="&#x201d;" horiz-adv-x="455" 
d="M96 485h-40v40h30q30 0 45 15t15 45v15h-55v100h100v-120q0 -45 -24.5 -70t-70.5 -25zM301 485h-40v40h30q30 0 45 15t15 45v15h-55v100h100v-120q0 -45 -24.5 -70t-70.5 -25z" />
    <glyph glyph-name="quotedblbase" unicode="&#x201e;" horiz-adv-x="445" 
d="M75 -115h-40v40h30q30 0 45 15t15 45v15h-55v100h100v-120q0 -45 -24.5 -70t-70.5 -25zM280 -115h-40v40h30q30 0 45 15t15 45v15h-55v100h100v-120q0 -45 -24.5 -70t-70.5 -25z" />
    <glyph glyph-name="dagger" unicode="&#x2020;" horiz-adv-x="535" 
d="M555 -225h-575v55h254v645h-183v55h183v255h65v-255h185v-55h-185v-645h256v-55z" />
    <glyph glyph-name="daggerdbl" unicode="&#x2021;" horiz-adv-x="535" 
d="M555 -225h-575v55h255v340h-185v55h185v250h-185v55h185v255h65v-255h185v-55h-185v-250h185v-55h-185v-340h255v-55z" />
    <glyph glyph-name="bullet" unicode="&#x2022;" horiz-adv-x="488" 
d="M244 180q-34 0 -65 13.5t-54.5 37t-37 54.5t-13.5 65t13.5 65t37 54.5t54.5 37t65 13.5t65 -13.5t54.5 -37t37 -54.5t13.5 -65t-13.5 -65t-37 -54.5t-54.5 -37t-65 -13.5zM508 -170v-55h-528v55h528z" />
    <glyph glyph-name="ellipsis" unicode="&#x2026;" horiz-adv-x="750" 
d="M580 0v100h100v-100h-100zM325 0v100h100v-100h-100zM70 0v100h100v-100h-100zM770 -170v-55h-790v55h790z" />
    <glyph glyph-name="perthousand" unicode="&#x2030;" horiz-adv-x="1166" 
d="M361 502q0 -91 -43.5 -146.5t-118.5 -55.5t-118.5 55.5t-43.5 146.5t43.5 147t118.5 56t118.5 -56t43.5 -147zM98 502q0 -28 6 -55.5t18 -48.5t31 -34.5t44 -13.5h4q25 0 44 13.5t31 34.5t18 48.5t6 55.5t-6 55.5t-18 49t-31 35t-44 13.5h-4q-25 0 -44 -13.5t-31 -35
t-18 -49t-6 -55.5zM969 -5q-44 0 -77.5 19.5t-53.5 54.5q-21 -35 -54.5 -54.5t-77.5 -19.5q-75 0 -118.5 55.5t-43.5 146.5t43.5 147t118.5 56q44 0 77.5 -19.5t54.5 -54.5q20 35 53.5 54.5t77.5 19.5q75 0 118.5 -56t43.5 -147t-43.5 -146.5t-118.5 -55.5zM868 197
q0 -28 6 -55.5t18 -48.5t31 -34.5t44 -13.5h4q25 0 44 13.5t31 34.5t18 48.5t6 55.5t-6 55.5t-18 49t-31 35t-44 13.5h-4q-25 0 -44 -13.5t-31 -35t-18 -49t-6 -55.5zM605 197q0 -28 6 -55.5t18 -48.5t31 -34.5t44 -13.5h4q25 0 44 13.5t31 34.5t18 48.5t6 55.5t-6 55.5
t-18 49t-31 35t-44 13.5h-4q-25 0 -44 -13.5t-31 -35t-18 -49t-6 -55.5zM1186 -170v-55h-918v55h918zM-20 -225v55h128l522 870h65l-555 -925h-160z" />
    <glyph glyph-name="guilsinglleft" unicode="&#x2039;" horiz-adv-x="305" 
d="M262 70h-76l-145 215l145 215h74l-144 -214zM325 -170v-55h-345v55h345z" />
    <glyph glyph-name="guilsinglright" unicode="&#x203a;" horiz-adv-x="305" 
d="M45 70l144 214l-146 216h76l145 -215l-145 -215h-74zM325 -170v-55h-345v55h345z" />
    <glyph glyph-name="fraction" unicode="&#x2044;" horiz-adv-x="160" 
d="M-299 -225l555 925h65l-555 -925h-65zM258 -170v-55h-364v55h364z" />
    <glyph glyph-name="zero.superior" unicode="&#x2070;" horiz-adv-x="402" 
d="M201 410q-75 0 -118.5 55.5t-43.5 146.5t43.5 147t118.5 56t118.5 -56t43.5 -147t-43.5 -146.5t-118.5 -55.5zM199 460h4q25 0 44 13.5t31 34.5t18 48.5t6 55.5t-6 55.5t-18 49t-31 35t-44 13.5h-4q-25 0 -44 -13.5t-31 -35t-18 -49t-6 -55.5t6 -55.5t18 -48.5t31 -34.5
t44 -13.5zM422 -170v-55h-442v55h442z" />
    <glyph glyph-name="i.superior" unicode="&#x2071;" horiz-adv-x="161" 
d="M50 747v63h61v-63h-61zM53 415v285h55v-285h-55zM181 -170v-55h-201v55h201z" />
    <glyph glyph-name="four.superior" unicode="&#x2074;" horiz-adv-x="348" 
d="M208 415v96h-185v56l179 243h62v-249h54v-50h-54v-96h-56zM208 561v176l-127 -176h127zM368 -170v-55h-388v55h388z" />
    <glyph glyph-name="five.superior" unicode="&#x2075;" horiz-adv-x="341" 
d="M166 410q-59 0 -97 28.5t-42 82.5h61q4 -31 26.5 -46t50.5 -15h4q31 0 52 22.5t21 57.5t-20.5 54t-51.5 19h-3q-25 0 -43 -11t-28 -23h-53l45 231h209v-50h-165l-26 -125q14 13 33 20.5t41 7.5q56 0 89.5 -34.5t33.5 -86.5q0 -61 -40 -96.5t-97 -35.5zM361 -170v-55h-381
v55h381z" />
    <glyph glyph-name="six.superior" unicode="&#x2076;" horiz-adv-x="370" 
d="M184 410q-67 0 -106 50.5t-39 140.5q0 99 47 156.5t114 57.5q34 0 59 -10t41.5 -25.5t24.5 -35.5t8 -39h-59q-5 26 -24.5 42.5t-47.5 16.5h-6q-39 0 -68.5 -37t-34.5 -103q12 25 41 40.5t66 15.5q50 0 88.5 -34.5t38.5 -94.5t-38 -100.5t-105 -40.5zM184 460h3
q34 0 57.5 24t23.5 61t-22.5 61t-56.5 24h-3q-34 0 -57 -24t-23 -61t22 -61t56 -24zM390 -170v-55h-410v55h410z" />
    <glyph glyph-name="seven.superior" unicode="&#x2077;" horiz-adv-x="304" 
d="M148 415h-61v36q0 59 12 107.5t32 86.5t46.5 67t54.5 48h-212v50h266v-53q-22 -19 -46.5 -46t-45 -63.5t-33.5 -85.5t-13 -111v-36zM324 -170v-55h-344v55h344z" />
    <glyph glyph-name="eight.superior" unicode="&#x2078;" horiz-adv-x="360" 
d="M178 410q-51 0 -91.5 27t-40.5 79q0 34 19 57t48 36q-31 13 -52 37.5t-21 58.5q0 52 40 81t100 29t100.5 -29t40.5 -81q0 -34 -21 -58.5t-52 -37.5q28 -13 45.5 -36t17.5 -57q0 -52 -41 -79t-92 -27zM183 765h-5q-31 0 -54 -16.5t-23 -48.5q0 -31 23.5 -47t51.5 -16h5
q30 0 54.5 16t24.5 47q0 32 -23 48.5t-54 16.5zM176 460h5q28 0 48.5 17t20.5 48q0 29 -20.5 46.5t-48.5 17.5h-5q-28 0 -48.5 -17.5t-20.5 -46.5q0 -31 20.5 -48t48.5 -17zM380 -170v-55h-400v55h400z" />
    <glyph glyph-name="nine.superior" unicode="&#x2079;" horiz-adv-x="371" 
d="M187 765h-3q-34 0 -57.5 -24t-23.5 -61t22.5 -61t56.5 -24h3q34 0 57 24t23 61t-22 61t-56 24zM187 815q67 0 106 -50.5t39 -140.5q0 -99 -47 -156.5t-114 -57.5q-34 0 -59 10t-41.5 25.5t-24.5 35.5t-8 39h59q5 -26 24.5 -42.5t47.5 -16.5h6q39 0 68.5 37t34.5 103
q-12 -25 -41 -40.5t-66 -15.5q-50 0 -88.5 34.5t-38.5 94.5t38 100.5t105 40.5zM391 -170v-55h-411v55h411z" />
    <glyph glyph-name="n.superior" unicode="&#x207f;" horiz-adv-x="349" 
d="M110 572v-157h-57v285h57v-44q16 25 39.5 37t54.5 12q46 0 71 -31t25 -77v-182h-57v172q0 36 -16 54.5t-41 18.5h-6q-28 0 -49 -25.5t-21 -62.5zM369 -170v-55h-389v55h389z" />
    <glyph glyph-name="zero.inferior" unicode="&#x2080;" horiz-adv-x="402" 
d="M201 -5q-75 0 -118.5 55.5t-43.5 146.5t43.5 147t118.5 56t118.5 -56t43.5 -147t-43.5 -146.5t-118.5 -55.5zM199 45h4q25 0 44 13.5t31 34.5t18 48.5t6 55.5t-6 55.5t-18 49t-31 35t-44 13.5h-4q-25 0 -44 -13.5t-31 -35t-18 -49t-6 -55.5t6 -55.5t18 -48.5t31 -34.5
t44 -13.5zM422 -170v-55h-442v55h442z" />
    <glyph glyph-name="one.inferior" unicode="&#x2081;" horiz-adv-x="259" 
d="M197 0h-57v320l-117 -94v59l136 110h38v-395zM279 -170v-55h-299v55h299z" />
    <glyph glyph-name="two.inferior" unicode="&#x2082;" horiz-adv-x="340" 
d="M303 0h-266v68l126 110q44 39 59.5 58.5t15.5 48.5t-19 47t-46 18h-5q-22 0 -45 -17.5t-23 -51.5h-61q0 55 40.5 87t92.5 32q54 0 90.5 -30.5t36.5 -84.5q0 -45 -24.5 -73.5t-54.5 -54.5l-123 -107h206v-50zM360 -170v-55h-380v55h380z" />
    <glyph glyph-name="three.inferior" unicode="&#x2083;" horiz-adv-x="349" 
d="M169 -5q-52 0 -93 29.5t-41 84.5h61q1 -29 20.5 -46.5t49.5 -17.5h5q31 0 53.5 18t22.5 51q0 30 -19.5 46t-47.5 16h-44v47h46q28 0 45 15.5t17 45.5q0 33 -19.5 49.5t-50.5 16.5h-5q-30 0 -48 -16.5t-19 -43.5h-61q0 54 40.5 82t92.5 28t91.5 -28t39.5 -82
q0 -31 -15 -55t-40 -36q28 -11 43 -35.5t15 -55.5q0 -27 -12 -48t-31.5 -35.5t-44.5 -22t-51 -7.5zM369 -170v-55h-389v55h389z" />
    <glyph glyph-name="four.inferior" unicode="&#x2084;" horiz-adv-x="348" 
d="M208 0v96h-185v56l179 243h62v-249h54v-50h-54v-96h-56zM208 146v176l-127 -176h127zM368 -170v-55h-388v55h388z" />
    <glyph glyph-name="five.inferior" unicode="&#x2085;" horiz-adv-x="341" 
d="M166 -5q-59 0 -97 28.5t-42 82.5h61q4 -31 26.5 -46t50.5 -15h4q31 0 52 22.5t21 57.5t-20.5 54t-51.5 19h-3q-25 0 -43 -11t-28 -23h-53l45 231h209v-50h-165l-26 -125q14 13 33 20.5t41 7.5q56 0 89.5 -34.5t33.5 -86.5q0 -61 -40 -96.5t-97 -35.5zM361 -170v-55h-381
v55h381z" />
    <glyph glyph-name="six.inferior" unicode="&#x2086;" horiz-adv-x="370" 
d="M184 -5q-67 0 -106 50.5t-39 140.5q0 99 47 156.5t114 57.5q34 0 59 -10t41.5 -25.5t24.5 -35.5t8 -39h-59q-5 26 -24.5 42.5t-47.5 16.5h-6q-39 0 -68.5 -37t-34.5 -103q12 25 41 40.5t66 15.5q50 0 88.5 -34.5t38.5 -94.5t-38 -100.5t-105 -40.5zM184 45h3
q34 0 57.5 24t23.5 61t-22.5 61t-56.5 24h-3q-34 0 -57 -24t-23 -61t22 -61t56 -24zM390 -170v-55h-410v55h410z" />
    <glyph glyph-name="seven.inferior" unicode="&#x2087;" horiz-adv-x="304" 
d="M148 0h-61v36q0 59 12 107.5t32 86.5t46.5 67t54.5 48h-212v50h266v-53q-22 -19 -46.5 -46t-45 -63.5t-33.5 -85.5t-13 -111v-36zM324 -170v-55h-344v55h344z" />
    <glyph glyph-name="eight.inferior" unicode="&#x2088;" horiz-adv-x="360" 
d="M178 -5q-51 0 -91.5 27t-40.5 79q0 34 19 57t48 36q-31 13 -52 37.5t-21 58.5q0 52 40 81t100 29t100.5 -29t40.5 -81q0 -34 -21 -58.5t-52 -37.5q28 -13 45.5 -36t17.5 -57q0 -52 -41 -79t-92 -27zM183 350h-5q-31 0 -54 -16.5t-23 -48.5q0 -31 23.5 -47t51.5 -16h5
q30 0 54.5 16t24.5 47q0 32 -23 48.5t-54 16.5zM176 45h5q28 0 48.5 17t20.5 48q0 29 -20.5 46.5t-48.5 17.5h-5q-28 0 -48.5 -17.5t-20.5 -46.5q0 -31 20.5 -48t48.5 -17zM380 -170v-55h-400v55h400z" />
    <glyph glyph-name="nine.inferior" unicode="&#x2089;" horiz-adv-x="371" 
d="M187 350h-3q-34 0 -57.5 -24t-23.5 -61t22.5 -61t56.5 -24h3q34 0 57 24t23 61t-22 61t-56 24zM187 400q67 0 106 -50.5t39 -140.5q0 -99 -47 -156.5t-114 -57.5q-34 0 -59 10t-41.5 25.5t-24.5 35.5t-8 39h59q5 -26 24.5 -42.5t47.5 -16.5h6q39 0 68.5 37t34.5 103
q-12 -25 -41 -40.5t-66 -15.5q-50 0 -88.5 34.5t-38.5 94.5t38 100.5t105 40.5zM391 -170v-55h-411v55h411z" />
    <glyph glyph-name="a.inferior" unicode="&#x2090;" horiz-adv-x="316" 
d="M134 40h3q30 0 51.5 18t22.5 52v32l-74 -8q-19 -2 -33.5 -15t-14.5 -35t13 -33t32 -11zM119 -5q-36 0 -60.5 22.5t-24.5 62.5q0 43 25 65t62 26l90 10v9q0 25 -17 40t-40 15h-3q-21 0 -39.5 -13t-18.5 -38h-55q2 47 37 71.5t79 24.5t78 -26.5t34 -75.5v-126
q0 -16 0.5 -31t2.5 -31h-50q-2 12 -3.5 25t-1.5 25q-10 -28 -36.5 -41.5t-58.5 -13.5zM336 -170v-55h-356v55h356z" />
    <glyph glyph-name="e.inferior" unicode="&#x2091;" horiz-adv-x="318" 
d="M162 245q-32 0 -52.5 -21.5t-25.5 -58.5h152q-2 28 -18 54t-51 26h-5zM281 87q-6 -46 -39.5 -69t-77.5 -23q-60 0 -96 40.5t-36 100.5q0 66 36.5 110t96.5 44q58 0 90.5 -42.5t32.5 -105.5v-20h-205q4 -39 25.5 -60.5t55.5 -21.5h5q20 0 39 12t26 35h47zM338 -170v-55
h-358v55h358z" />
    <glyph glyph-name="o.inferior" unicode="&#x2092;" horiz-adv-x="328" 
d="M164 290q60 0 95.5 -40.5t35.5 -107.5t-35.5 -107t-95.5 -40t-95.5 40t-35.5 107t35.5 107.5t95.5 40.5zM90 142q0 -45 20 -73.5t55 -28.5q36 0 54.5 28.5t18.5 73.5t-19.5 74t-54.5 29t-54.5 -29t-19.5 -74zM348 -170v-55h-368v55h368z" />
    <glyph glyph-name="x.inferior" unicode="&#x2093;" horiz-adv-x="301" 
d="M219 0l-69 100l-71 -100h-62l103 142l-101 143h63l69 -100l70 100h61l-102 -141l103 -144h-64zM321 -170v-55h-341v55h341z" />
    <glyph glyph-name="h.inferior" unicode="&#x2095;" horiz-adv-x="349" 
d="M110 157v-157h-57v395h57v-154q16 24 39 36.5t54 12.5q47 0 72 -31t25 -77v-182h-57v172q0 35 -16 54t-41 19h-6q-28 0 -49 -25.5t-21 -62.5zM369 -170v-55h-389v55h389z" />
    <glyph glyph-name="k.inferior" unicode="&#x2096;" horiz-adv-x="322" 
d="M242 0l-86 132l-48 -52v-80h-55v395h55v-246l121 136h71l-108 -115l116 -170h-66zM342 -170v-55h-362v55h362z" />
    <glyph glyph-name="l.inferior" unicode="&#x2097;" horiz-adv-x="161" 
d="M53 0v395h55v-395h-55zM181 -170v-55h-201v55h201z" />
    <glyph glyph-name="m.inferior" unicode="&#x2098;" horiz-adv-x="527" 
d="M110 155v-155h-57v285h57v-46q8 19 32 35t55 16t54 -14t34 -45q16 31 42 45t55 14q48 0 72 -31t24 -82v-177h-57v172q0 35 -14 54t-40 19h-3q-30 0 -50 -27t-20 -61v-157h-57v172q0 35 -14 54t-40 19h-3q-33 0 -51.5 -26.5t-18.5 -63.5zM547 -170v-55h-567v55h567z" />
    <glyph glyph-name="n.inferior" unicode="&#x2099;" horiz-adv-x="349" 
d="M110 157v-157h-57v285h57v-44q16 25 39.5 37t54.5 12q46 0 71 -31t25 -77v-182h-57v172q0 36 -16 54.5t-41 18.5h-6q-28 0 -49 -25.5t-21 -62.5zM369 -170v-55h-389v55h389z" />
    <glyph glyph-name="p.inferior" unicode="&#x209a;" horiz-adv-x="348" 
d="M111 140q0 -44 18.5 -72t54.5 -28t55 29t19 73t-19 73.5t-55 29.5t-54.5 -30.5t-18.5 -74.5zM196 -5q-25 0 -49.5 11t-36.5 33v-149h-57v395h57v-43q18 27 43 37.5t47 10.5q57 0 86 -44t29 -104t-31 -103.5t-88 -43.5zM368 -170v-55h-388v55h388z" />
    <glyph glyph-name="s.inferior" unicode="&#x209b;" horiz-adv-x="301" 
d="M151 -5q-57 0 -88.5 26t-31.5 72h55q0 -25 16.5 -39t46.5 -14h6q25 0 42 9t17 28q0 14 -11 24t-35 15l-48 10q-36 7 -59 24t-23 53q0 40 31 63.5t82 23.5t82 -26t31 -70h-55q0 25 -16.5 38t-40.5 13h-6q-25 0 -39.5 -10t-14.5 -26t10.5 -23t39.5 -13l40 -8
q43 -8 64.5 -30t21.5 -53q0 -41 -32.5 -64t-84.5 -23zM321 -170v-55h-341v55h341z" />
    <glyph glyph-name="t.inferior" unicode="&#x209c;" horiz-adv-x="232" 
d="M142 0q-36 0 -54 20.5t-18 49.5v172h-55v43h55v90h56v-90h78v-43h-78v-158q0 -18 8 -28.5t31 -10.5h45v-45h-68zM252 -170v-55h-272v55h272z" />
    <glyph glyph-name="Euro" unicode="&#x20ac;" horiz-adv-x="671" 
d="M614 205q-9 -101 -68 -158t-156 -57q-93 0 -157 56t-91 157l-98 -22v60l87 19q-3 19 -4.5 39t-1.5 41l-81 -18v60l83 19q10 144 80 226.5t183 82.5q97 0 156 -57t68 -158h-68q-7 72 -46.5 111t-105.5 39h-10q-77 0 -126.5 -61t-60.5 -168l206 47v-60l-210 -47v-6
q0 -19 1.5 -38t3.5 -37l163 37v-60l-152 -34q20 -77 65.5 -120t109.5 -43h10q66 0 105.5 39t46.5 111h68zM691 -170v-55h-711v55h711z" />
    <glyph glyph-name="uni2105" unicode="&#x2105;" horiz-adv-x="709" 
d="M40 -225h-65l555 925h65zM165 445q-57 0 -93 36t-36 108t37 111.5t94 39.5q45 0 80.5 -26t39.5 -73h-58q-3 25 -20.5 39.5t-39.5 14.5h-3q-39 0 -56 -32.5t-17 -73.5t17 -70t56 -29h3q22 0 38.5 14t20.5 39h57q-5 -49 -40 -73.5t-80 -24.5zM543 285q60 0 95.5 -40.5
t35.5 -107.5t-35.5 -107t-95.5 -40t-95.5 40t-35.5 107t35.5 107.5t95.5 40.5zM469 137q0 -45 20 -73.5t55 -28.5q36 0 54.5 28.5t18.5 73.5t-19.5 74t-54.5 29t-54.5 -29t-19.5 -74zM729 -170v-55h-591v55h591z" />
    <glyph glyph-name="afii61289" unicode="&#x2113;" horiz-adv-x="418" 
d="M328 0h-115q-47 0 -71 26.5t-24 78.5v108l-75 -45v72l75 44v257q0 82 36 125.5t100 43.5q37 0 63.5 -14.5t43 -38.5t24 -56t7.5 -67q0 -86 -41.5 -146t-95.5 -92l-69 -42v-132q0 -32 13 -44.5t44 -12.5h85v-65zM186 551v-226l31 18q58 34 82.5 84t24.5 101
q0 58 -19.5 87.5t-50.5 29.5q-28 0 -48 -23.5t-20 -70.5zM438 -170v-55h-458v55h458z" />
    <glyph glyph-name="afii61352" unicode="&#x2116;" horiz-adv-x="1038" 
d="M854 705q60 0 95.5 -40.5t35.5 -107.5t-35.5 -107t-95.5 -40t-95.5 40t-35.5 107t35.5 107.5t95.5 40.5zM780 557q0 -45 20 -73.5t55 -28.5q36 0 54.5 28.5t18.5 73.5t-19.5 74t-54.5 29t-54.5 -29t-19.5 -74zM558 0l-390 603v-603h-70v700h90l385 -593v593h70v-700h-85z
M984 305h-261v45h261v-45zM1058 -170v-55h-1078v55h1078z" />
    <glyph glyph-name="uni2117" unicode="&#x2117;" horiz-adv-x="884" 
d="M442 -40q-80 0 -151.5 31t-124 83.5t-83.5 124t-31 151.5t31 151.5t83.5 124t124 83.5t151.5 31t151.5 -31t124 -83.5t83.5 -124t31 -151.5t-31 -151.5t-83.5 -124t-124 -83.5t-151.5 -31zM442 10q70 0 132 27t107.5 73t72 108t26.5 132t-26.5 132t-72 108t-107.5 73
t-132 27t-132 -27t-107.5 -73t-72 -108t-26.5 -132t26.5 -132t72 -108t107.5 -73t132 -27zM332 167v376h146q57 0 96.5 -27.5t39.5 -87.5t-40 -86.5t-97 -26.5h-84v-148h-61zM393 365h76q36 0 60 12.5t24 51.5t-24 51.5t-60 12.5h-76v-128zM904 -170v-55h-924v55h924z" />
    <glyph glyph-name="trademark" unicode="&#x2122;" horiz-adv-x="940" 
d="M166 320v330h-132v50h325v-50h-132v-330h-61zM624 320l-109 312v-312h-61v380h96l109 -315l105 315h95v-380h-61v315l-104 -315h-70zM960 -170v-55h-980v55h980z" />
    <glyph glyph-name="onethird" unicode="&#x2153;" horiz-adv-x="868" 
d="M206 700v-395h-57v320l-117 -94v59l136 110h38zM822 108q0 -27 -12 -48t-31.5 -35.5t-44.5 -22t-51 -7.5q-52 0 -93 29.5t-41 84.5h61q1 -29 20.5 -46.5t49.5 -17.5h5q31 0 53.5 18t22.5 51q0 30 -19.5 46t-47.5 16h-44v47h46q28 0 45 15.5t17 45.5q0 33 -19.5 49.5
t-50.5 16.5h-5q-30 0 -48 -16.5t-19 -43.5h-61q0 54 40.5 82t92.5 28t91.5 -28t39.5 -82q0 -31 -15 -55t-40 -36q28 -11 43 -35.5t15 -55.5zM888 -170v-55h-673v55h673zM-20 -225v55h75l522 870h65l-555 -925h-107z" />
    <glyph glyph-name="twothirds" unicode="&#x2154;" horiz-adv-x="929" 
d="M317 355v-50h-266v68l126 110q44 39 59.5 58.5t15.5 48.5t-19 47t-46 18h-5q-22 0 -45 -17.5t-23 -51.5h-61q0 55 40.5 87t92.5 32q54 0 90.5 -30.5t36.5 -84.5q0 -45 -24.5 -73.5t-54.5 -54.5l-123 -107h206zM885 108q0 -27 -12 -48t-31.5 -35.5t-44.5 -22t-51 -7.5
q-52 0 -93 29.5t-41 84.5h61q1 -29 20.5 -46.5t49.5 -17.5h5q31 0 53.5 18t22.5 51q0 30 -19.5 46t-47.5 16h-44v47h46q28 0 45 15.5t17 45.5q0 33 -19.5 49.5t-50.5 16.5h-5q-30 0 -48 -16.5t-19 -43.5h-61q0 54 40.5 82t92.5 28t91.5 -28t39.5 -82q0 -31 -15 -55t-40 -36
q28 -11 43 -35.5t15 -55.5zM949 -170v-55h-654v55h654zM-20 -225v55h155l522 870h65l-555 -925h-187z" />
    <glyph glyph-name="uni2155" unicode="&#x2155;" horiz-adv-x="861" 
d="M206 700v-395h-57v320l-117 -94v59l136 110h38zM809 127q0 -61 -40 -96.5t-97 -35.5q-59 0 -97 28.5t-42 82.5h61q4 -31 26.5 -46t50.5 -15h4q31 0 52 22.5t21 57.5t-20.5 54t-51.5 19h-3q-25 0 -43 -11t-28 -23h-53l45 231h209v-50h-165l-26 -125q14 13 33 20.5t41 7.5
q56 0 89.5 -34.5t33.5 -86.5zM881 -170v-55h-669v55h669zM-20 -225v55h72l522 870h65l-555 -925h-104z" />
    <glyph glyph-name="uni2156" unicode="&#x2156;" horiz-adv-x="930" 
d="M317 355v-50h-266v68l126 110q44 39 59.5 58.5t15.5 48.5t-19 47t-46 18h-5q-22 0 -45 -17.5t-23 -51.5h-61q0 55 40.5 87t92.5 32q54 0 90.5 -30.5t36.5 -84.5q0 -45 -24.5 -73.5t-54.5 -54.5l-123 -107h206zM880 127q0 -61 -40 -96.5t-97 -35.5q-59 0 -97 28.5
t-42 82.5h61q4 -31 26.5 -46t50.5 -15h4q31 0 52 22.5t21 57.5t-20.5 54t-51.5 19h-3q-25 0 -43 -11t-28 -23h-53l45 231h209v-50h-165l-26 -125q14 13 33 20.5t41 7.5q56 0 89.5 -34.5t33.5 -86.5zM950 -170v-55h-658v55h658zM-20 -225v55h152l522 870h65l-555 -925h-184z
" />
    <glyph glyph-name="uni2157" unicode="&#x2157;" horiz-adv-x="932" 
d="M315 413q0 -27 -12 -48t-31.5 -35.5t-44.5 -22t-51 -7.5q-52 0 -93 29.5t-41 84.5h61q1 -29 20.5 -46.5t49.5 -17.5h5q31 0 53.5 18t22.5 51q0 30 -19.5 46t-47.5 16h-44v47h46q28 0 45 15.5t17 45.5q0 33 -19.5 49.5t-50.5 16.5h-5q-30 0 -48 -16.5t-19 -43.5h-61
q0 54 40.5 82t92.5 28t91.5 -28t39.5 -82q0 -31 -15 -55t-40 -36q28 -11 43 -35.5t15 -55.5zM882 127q0 -61 -40 -96.5t-97 -35.5q-59 0 -97 28.5t-42 82.5h61q4 -31 26.5 -46t50.5 -15h4q31 0 52 22.5t21 57.5t-20.5 54t-51.5 19h-3q-25 0 -43 -11t-28 -23h-53l45 231h209
v-50h-165l-26 -125q14 13 33 20.5t41 7.5q56 0 89.5 -34.5t33.5 -86.5zM952 -170v-55h-668v55h668zM-20 -225v55h144l522 870h65l-555 -925h-176z" />
    <glyph glyph-name="uni2158" unicode="&#x2158;" horiz-adv-x="938" 
d="M273 305h-56v96h-185v56l179 243h62v-249h54v-50h-54v-96zM90 451h127v176zM885 127q0 -61 -40 -96.5t-97 -35.5q-59 0 -97 28.5t-42 82.5h61q4 -31 26.5 -46t50.5 -15h4q31 0 52 22.5t21 57.5t-20.5 54t-51.5 19h-3q-25 0 -43 -11t-28 -23h-53l45 231h209v-50h-165
l-26 -125q14 13 33 20.5t41 7.5q56 0 89.5 -34.5t33.5 -86.5zM958 -170v-55h-664v55h664zM-20 -225v55h154l522 870h65l-555 -925h-186z" />
    <glyph glyph-name="uni2159" unicode="&#x2159;" horiz-adv-x="855" 
d="M206 700v-395h-57v320l-117 -94v59l136 110h38zM806 136q0 -60 -38 -100.5t-105 -40.5t-106 50.5t-39 140.5q0 99 47 156.5t114 57.5q34 0 59 -10t41.5 -25.5t24.5 -35.5t8 -39h-59q-5 26 -24.5 42.5t-47.5 16.5h-6q-39 0 -68.5 -37t-34.5 -103q12 25 41 40.5t66 15.5
q50 0 88.5 -34.5t38.5 -94.5zM585 130q0 -37 22 -61t56 -24h3q34 0 57.5 24t23.5 61t-22.5 61t-56.5 24h-3q-34 0 -57 -24t-23 -61zM875 -170v-55h-664v55h664zM-20 -225v55h71l522 870h65l-555 -925h-103z" />
    <glyph glyph-name="uni215A" unicode="&#x215a;" horiz-adv-x="945" 
d="M310 432q0 -61 -40 -96.5t-97 -35.5q-59 0 -97 28.5t-42 82.5h61q4 -31 26.5 -46t50.5 -15h4q31 0 52 22.5t21 57.5t-20.5 54t-51.5 19h-3q-25 0 -43 -11t-28 -23h-53l45 231h209v-50h-165l-26 -125q14 13 33 20.5t41 7.5q56 0 89.5 -34.5t33.5 -86.5zM898 136
q0 -60 -38 -100.5t-105 -40.5t-106 50.5t-39 140.5q0 99 47 156.5t114 57.5q34 0 59 -10t41.5 -25.5t24.5 -35.5t8 -39h-59q-5 26 -24.5 42.5t-47.5 16.5h-6q-39 0 -68.5 -37t-34.5 -103q12 25 41 40.5t66 15.5q50 0 88.5 -34.5t38.5 -94.5zM677 130q0 -37 22 -61t56 -24h3
q34 0 57.5 24t23.5 61t-22.5 61t-56.5 24h-3q-34 0 -57 -24t-23 -61zM965 -170v-55h-683v55h683zM-20 -225v55h142l522 870h65l-555 -925h-174z" />
    <glyph glyph-name="oneeighth" unicode="&#x215b;" horiz-adv-x="886" 
d="M206 700v-395h-57v320l-117 -94v59l136 110h38zM833 101q0 -52 -41 -79t-92 -27t-91.5 27t-40.5 79q0 34 19 57t48 36q-31 13 -52 37.5t-21 58.5q0 52 40 81t100 29t100.5 -29t40.5 -81q0 -34 -21 -58.5t-52 -37.5q28 -13 45.5 -36t17.5 -57zM782 285q0 32 -23 48.5
t-54 16.5h-5q-31 0 -54 -16.5t-23 -48.5q0 -31 23.5 -47t51.5 -16h5q30 0 54.5 16t24.5 47zM629 110q0 -31 20.5 -48t48.5 -17h5q28 0 48.5 17t20.5 48q0 29 -20.5 46.5t-48.5 17.5h-5q-28 0 -48.5 -17.5t-20.5 -46.5zM906 -170v-55h-693v55h693zM-20 -225v55h73l522 870h65
l-555 -925h-105z" />
    <glyph glyph-name="threeeighths" unicode="&#x215c;" horiz-adv-x="946" 
d="M315 413q0 -27 -12 -48t-31.5 -35.5t-44.5 -22t-51 -7.5q-52 0 -93 29.5t-41 84.5h61q1 -29 20.5 -46.5t49.5 -17.5h5q31 0 53.5 18t22.5 51q0 30 -19.5 46t-47.5 16h-44v47h46q28 0 45 15.5t17 45.5q0 33 -19.5 49.5t-50.5 16.5h-5q-30 0 -48 -16.5t-19 -43.5h-61
q0 54 40.5 82t92.5 28t91.5 -28t39.5 -82q0 -31 -15 -55t-40 -36q28 -11 43 -35.5t15 -55.5zM896 101q0 -52 -41 -79t-92 -27t-91.5 27t-40.5 79q0 34 19 57t48 36q-31 13 -52 37.5t-21 58.5q0 52 40 81t100 29t100.5 -29t40.5 -81q0 -34 -21 -58.5t-52 -37.5
q28 -13 45.5 -36t17.5 -57zM845 285q0 32 -23 48.5t-54 16.5h-5q-31 0 -54 -16.5t-23 -48.5q0 -31 23.5 -47t51.5 -16h5q30 0 54.5 16t24.5 47zM692 110q0 -31 20.5 -48t48.5 -17h5q28 0 48.5 17t20.5 48q0 29 -20.5 46.5t-48.5 17.5h-5q-28 0 -48.5 -17.5t-20.5 -46.5z
M966 -170v-55h-680v55h680zM-20 -225v55h146l522 870h65l-555 -925h-178z" />
    <glyph glyph-name="fiveeighths" unicode="&#x215d;" horiz-adv-x="944" 
d="M310 432q0 -61 -40 -96.5t-97 -35.5q-59 0 -97 28.5t-42 82.5h61q4 -31 26.5 -46t50.5 -15h4q31 0 52 22.5t21 57.5t-20.5 54t-51.5 19h-3q-25 0 -43 -11t-28 -23h-53l45 231h209v-50h-165l-26 -125q14 13 33 20.5t41 7.5q56 0 89.5 -34.5t33.5 -86.5zM893 101
q0 -52 -41 -79t-92 -27t-91.5 27t-40.5 79q0 34 19 57t48 36q-31 13 -52 37.5t-21 58.5q0 52 40 81t100 29t100.5 -29t40.5 -81q0 -34 -21 -58.5t-52 -37.5q28 -13 45.5 -36t17.5 -57zM842 285q0 32 -23 48.5t-54 16.5h-5q-31 0 -54 -16.5t-23 -48.5q0 -31 23.5 -47
t51.5 -16h5q30 0 54.5 16t24.5 47zM689 110q0 -31 20.5 -48t48.5 -17h5q28 0 48.5 17t20.5 48q0 29 -20.5 46.5t-48.5 17.5h-5q-28 0 -48.5 -17.5t-20.5 -46.5zM964 -170v-55h-682v55h682zM-20 -225v55h142l522 870h65l-555 -925h-174z" />
    <glyph glyph-name="seveneighths" unicode="&#x215e;" horiz-adv-x="854" 
d="M160 341v-36h-61v36q0 59 12 107.5t32 86.5t46.5 67t54.5 48h-212v50h266v-53q-22 -19 -46.5 -46t-45 -63.5t-33.5 -85.5t-13 -111zM801 101q0 -52 -41 -79t-92 -27t-91.5 27t-40.5 79q0 34 19 57t48 36q-31 13 -52 37.5t-21 58.5q0 52 40 81t100 29t100.5 -29t40.5 -81
q0 -34 -21 -58.5t-52 -37.5q28 -13 45.5 -36t17.5 -57zM750 285q0 32 -23 48.5t-54 16.5h-5q-31 0 -54 -16.5t-23 -48.5q0 -31 23.5 -47t51.5 -16h5q30 0 54.5 16t24.5 47zM597 110q0 -31 20.5 -48t48.5 -17h5q28 0 48.5 17t20.5 48q0 29 -20.5 46.5t-48.5 17.5h-5
q-28 0 -48.5 -17.5t-20.5 -46.5zM874 -170v-55h-686v55h686zM-20 -225v55h48l522 870h65l-555 -925h-80z" />
    <glyph glyph-name="uni215F" unicode="&#x215f;" horiz-adv-x="660" 
d="M195 700v-395h-57v320l-117 -94v59l136 110h38zM680 -170v-55h-449v55h449zM-20 -225v55h91l522 870h65l-555 -925h-123z" />
    <glyph glyph-name="uni2160" unicode="&#x2160;" horiz-adv-x="457" 
d="M46 0v55h150v590h-150v55h365v-55h-150v-590h150v-55h-365zM477 -170v-55h-497v55h497z" />
    <glyph glyph-name="uni2161" unicode="&#x2161;" horiz-adv-x="742" 
d="M46 0v55h150v590h-150v55h650v-55h-150v-590h150v-55h-650zM261 55h220v590h-220v-590zM762 -170v-55h-782v55h782z" />
    <glyph glyph-name="uni2162" unicode="&#x2162;" horiz-adv-x="1027" 
d="M46 0v55h150v590h-150v55h935v-55h-150v-590h150v-55h-935zM261 55h220v590h-220v-590zM546 55h220v590h-220v-590zM1047 -170v-55h-1067v55h1067z" />
    <glyph glyph-name="uni2163" unicode="&#x2163;" horiz-adv-x="1049" 
d="M266 55h348l-205 590h-143v-590zM51 0v55h150v590h-150v55h543v-55h-120l188 -539l197 539h-120v55h280v-55h-95l-215 -590h179v-55h-837zM1069 -170v-55h-1089v55h1089z" />
    <glyph glyph-name="uni2164" unicode="&#x2164;" horiz-adv-x="767" 
d="M606 0h-453v55h179l-205 590h-95v55h280v-55h-120l188 -539l197 539h-120v55h280v-55h-95l-215 -590h179v-55zM787 -170v-55h-807v55h807z" />
    <glyph glyph-name="uni2165" unicode="&#x2165;" horiz-adv-x="1040" 
d="M775 645h-134l-215 -590h349v590zM152 0v55h179l-205 590h-95v55h280v-55h-120l188 -539l197 539h-120v55h534v-55h-150v-590h150v-55h-838zM1060 -170v-55h-1080v55h1080z" />
    <glyph glyph-name="uni2166" unicode="&#x2166;" horiz-adv-x="1326" 
d="M841 55h220v590h-220v-590zM776 645h-135l-215 -590h350v590zM152 0v55h179l-205 590h-95v55h280v-55h-120l188 -539l197 539h-120v55h820v-55h-150v-590h150v-55h-1124zM1346 -170v-55h-1366v55h1366z" />
    <glyph glyph-name="uni2167" unicode="&#x2167;" horiz-adv-x="1611" 
d="M841 55h220v590h-220v-590zM1126 55h220v590h-220v-590zM776 645h-135l-215 -590h350v590zM152 0v55h179l-205 590h-95v55h280v-55h-120l188 -539l197 539h-120v55h1105v-55h-150v-590h150v-55h-1409zM1631 -170v-55h-1651v55h1651z" />
    <glyph glyph-name="uni2168" unicode="&#x2168;" horiz-adv-x="998" 
d="M261 55h117l205 299l-199 291h-123v-590zM621 410l161 235h-322zM788 55l-167 244l-167 -244h334zM46 0v55h150v590h-150v55h900v-55h-88l-199 -291l205 -299h92v-55h-910zM1018 -170v-55h-1038v55h1038z" />
    <glyph glyph-name="uni2169" unicode="&#x2169;" horiz-adv-x="754" 
d="M377 410l161 235h-322zM544 55l-167 244l-167 -244h334zM712 0h-670v55h92l205 299l-199 291h-88v55h650v-55h-88l-199 -291l205 -299h92v-55zM774 -170v-55h-794v55h794z" />
    <glyph glyph-name="uni216C" unicode="&#x216c;" horiz-adv-x="679" 
d="M46 0v55h140v590h-140v55h345v-55h-140v-590h320v195h65v-250h-590zM699 -170v-55h-719v55h719z" />
    <glyph glyph-name="uni216D" unicode="&#x216d;" horiz-adv-x="723" 
d="M585 0v87q-32 -46 -86.5 -71.5t-123.5 -25.5q-74 0 -133.5 27.5t-101 75.5t-63.5 114.5t-22 142.5t22 142.5t63.5 114.5t101 75.5t133.5 27.5q71 0 125 -26.5t85 -75.5v92h65v-215h-65q-16 78 -73 124t-132 46h-10q-60 0 -106.5 -25t-78.5 -67t-48.5 -97.5t-16.5 -115.5
t16.5 -115.5t48.5 -97.5t78.5 -67t106.5 -25h10q75 0 132.5 44.5t72.5 125.5h65v-215h-65zM743 -170v-55h-763v55h763z" />
    <glyph glyph-name="uni216E" unicode="&#x216e;" horiz-adv-x="767" 
d="M186 55v590h-140v55h346q72 0 131 -24.5t100.5 -69t64.5 -109.5t23 -146q0 -84 -23 -149.5t-64.5 -110t-100 -68t-128.5 -23.5h-349v55h140zM251 55h119q128 0 202 73.5t74 220.5q0 141 -69.5 218.5t-196.5 77.5h-129v-590zM787 -170v-55h-807v55h807z" />
    <glyph glyph-name="uni216F" unicode="&#x216f;" horiz-adv-x="1050" 
d="M331 55v-55h-285v55h140v590h-140v55l250 1l230 -624l230 623h248v-55h-140v-590h140v-55h-285v55h80v585l-236 -640h-76l-236 640v-585h80zM1070 -170v-55h-1090v55h1090z" />
    <glyph glyph-name="uni2190" unicode="&#x2190;" horiz-adv-x="780" 
d="M326 39l-311 311l311 311l48 -48l-229 -229h610v-68h-610l229 -229zM800 -170v-55h-820v55h820z" />
    <glyph glyph-name="uni2191" unicode="&#x2191;" horiz-adv-x="742" 
d="M371 745l311 -311l-48 -48l-229 229v-610h-68v610l-229 -229l-48 48zM762 -170v-55h-782v55h782z" />
    <glyph glyph-name="uni2192" unicode="&#x2192;" horiz-adv-x="780" 
d="M454 661l311 -311l-311 -311l-48 48l229 229h-610v68h610l-229 229zM800 -170v-55h-820v55h820z" />
    <glyph glyph-name="uni2193" unicode="&#x2193;" horiz-adv-x="742" 
d="M682 266l-311 -311l-311 311l48 48l229 -229v610h68v-610l229 229zM762 -170v-55h-782v55h782z" />
    <glyph glyph-name="uni2196" unicode="&#x2196;" horiz-adv-x="660" 
d="M608 201l-48 -48l-429 431v-323h-68v439h439v-68h-323zM680 -170v-55h-700v55h700z" />
    <glyph glyph-name="uni2197" unicode="&#x2197;" horiz-adv-x="660" 
d="M100 153l-48 48l429 431h-323v68h439v-439h-68v323zM680 -170v-55h-700v55h700z" />
    <glyph glyph-name="uni2198" unicode="&#x2198;" horiz-adv-x="660" 
d="M52 499l48 48l429 -431v323h68v-439h-439v68h323zM680 -170v-55h-700v55h700z" />
    <glyph glyph-name="uni2199" unicode="&#x2199;" horiz-adv-x="660" 
d="M560 547l48 -48l-429 -431h323v-68h-439v439h68v-323zM680 -170v-55h-700v55h700z" />
    <glyph glyph-name="uni21A4" unicode="&#x21a4;" horiz-adv-x="825" 
d="M331 40l-311 311l311 311l48 -48l-229 -229h545v215h65v-500h-65v217h-545l229 -229zM845 -170v-55h-865v55h865z" />
    <glyph glyph-name="uni21A5" unicode="&#x21a5;" horiz-adv-x="742" 
d="M621 0h-500v65h215v545l-229 -229l-48 48l311 311l311 -311l-48 -48l-229 229v-545h217v-65zM762 -170v-55h-782v55h782z" />
    <glyph glyph-name="uni21A6" unicode="&#x21a6;" horiz-adv-x="835" 
d="M504 40l-48 48l229 229h-545v-217h-65v500h65v-215h545l-229 229l48 48l311 -311zM855 -170v-55h-875v55h875z" />
    <glyph glyph-name="uni21A7" unicode="&#x21a7;" horiz-adv-x="742" 
d="M370 -40l-311 311l48 48l229 -229v545h-215v65h500v-65h-217v-545l229 229l48 -48zM762 -170v-55h-782v55h782z" />
    <glyph glyph-name="uni21B0" unicode="&#x21b0;" horiz-adv-x="825" 
d="M750 0h-68v316h-542l229 -229l-48 -48l-311 311l311 311l48 -48l-229 -229h610v-384zM845 -170v-55h-865v55h865z" />
    <glyph glyph-name="uni21B1" unicode="&#x21b1;" horiz-adv-x="825" 
d="M143 0h-68v384h610l-229 229l48 48l311 -311l-311 -311l-48 48l229 229h-542v-316zM845 -170v-55h-865v55h865z" />
    <glyph glyph-name="uni21B2" unicode="&#x21b2;" horiz-adv-x="825" 
d="M321 39l-311 311l311 311l48 -48l-229 -229h542v316h68v-384h-610l229 -229zM845 -170v-55h-865v55h865z" />
    <glyph glyph-name="uni21B3" unicode="&#x21b3;" horiz-adv-x="825" 
d="M504 39l-48 48l229 229h-610v384h68v-316h542l-229 229l48 48l311 -311zM845 -170v-55h-865v55h865z" />
    <glyph glyph-name="partialdiff" unicode="&#x2202;" horiz-adv-x="570" 
d="M216 710q74 0 128.5 -31.5t90.5 -86t54 -129.5t18 -161q0 -81 -17 -140t-47.5 -97t-73 -56.5t-92.5 -18.5q-106 0 -166.5 69t-60.5 182q0 53 15.5 98t44 77.5t69 50.5t89.5 18q51 0 94 -17.5t69 -52.5l-3 23q-8 54 -30 93.5t-52 64.5t-66 37t-72 12q-25 0 -51 -4.5
t-42 -10.5v65q13 4 41 9.5t60 5.5zM275 55h5q32 0 61 11.5t50.5 34t34.5 57.5t13 82q0 93 -46 139t-113 46h-10q-67 0 -109.5 -45.5t-42.5 -138.5t45 -139.5t112 -46.5zM590 -170v-55h-610v55h610z" />
    <glyph glyph-name="product" unicode="&#x220f;" horiz-adv-x="680" 
d="M204 0h-68v635h-104v65h615v-65h-103v-635h-68v635h-272v-635zM700 -170v-55h-720v55h720z" />
    <glyph glyph-name="summation" unicode="&#x2211;" horiz-adv-x="524" 
d="M473 65v-65h-425v66l204 284l-204 287v63h425v-65h-341l206 -285l-206 -285h341zM544 -170v-55h-564v55h564z" />
    <glyph glyph-name="minus" unicode="&#x2212;" horiz-adv-x="640" 
d="M73 225v65h494v-65h-494zM660 -170v-55h-680v55h680z" />
    <glyph glyph-name="radical" unicode="&#x221a;" horiz-adv-x="672" 
d="M281 0h-79l-175 500h68l145 -421l144 621h253v-62h-201zM692 -170v-55h-712v55h712z" />
    <glyph glyph-name="infinity" unicode="&#x221e;" horiz-adv-x="849" 
d="M617 170q-74 0 -113.5 37.5t-78.5 92.5q-39 -55 -79 -92.5t-114 -37.5t-124.5 52t-50.5 138t50.5 138t124.5 52t114 -39.5t79 -94.5q39 55 78.5 94.5t113.5 39.5t124.5 -52t50.5 -138t-50.5 -138t-124.5 -52zM617 235q50 0 78.5 32.5t28.5 92.5t-28.5 92.5t-78.5 32.5h-5
q-48 0 -82 -35t-68 -90q34 -55 68 -90t82 -35h5zM237 235q48 0 82 35t68 90q-34 55 -68 90t-82 35h-5q-50 0 -78.5 -32.5t-28.5 -92.5t28.5 -92.5t78.5 -32.5h5zM869 -170v-55h-889v55h889z" />
    <glyph glyph-name="integral" unicode="&#x222b;" horiz-adv-x="390" 
d="M229 -35q0 -101 -46.5 -145.5t-127.5 -44.5h-75v55h70q62 0 86.5 28.5t24.5 91.5v560q0 101 46.5 145.5t127.5 44.5h40v-65h-35q-62 0 -86.5 -28.5t-24.5 -91.5v-550zM410 -170v-55h-152v55h152z" />
    <glyph glyph-name="approxequal" unicode="&#x2248;" horiz-adv-x="617" 
d="M479 413h65v-25q0 -49 -30 -79.5t-90 -30.5q-25 0 -57 12.5t-63.5 28t-59 28t-42.5 12.5q-38 0 -50.5 -21.5t-12.5 -49.5h-65v25q0 49 32 82t88 33q25 0 57 -12.5t63.5 -28t59 -28t42.5 -12.5q37 0 50 19t13 47zM479 223h65v-25q0 -49 -30 -79.5t-90 -30.5
q-25 0 -57 12.5t-63.5 28t-59 28t-42.5 12.5q-38 0 -50.5 -21.5t-12.5 -49.5h-65v25q0 49 32 82t88 33q25 0 57 -12.5t63.5 -28t59 -28t42.5 -12.5q37 0 50 19t13 47zM637 -170v-55h-657v55h657z" />
    <glyph glyph-name="notequal" unicode="&#x2260;" horiz-adv-x="642" 
d="M568 134h-249l-37 -119h-71l37 119h-174v65h194l36 116h-230v65h250l37 120h71l-37 -120h173v-65h-193l-36 -116h229v-65zM662 -170v-55h-682v55h682z" />
    <glyph glyph-name="lessequal" unicode="&#x2264;" horiz-adv-x="633" 
d="M561 130l-494 152v76l494 152v-72l-422 -117l422 -117v-74zM67 25v65h494v-65h-494zM653 -170v-55h-673v55h673z" />
    <glyph glyph-name="greaterequal" unicode="&#x2265;" horiz-adv-x="633" 
d="M72 130v72l422 117l-422 117v74l494 -152v-76zM72 25v65h494v-65h-494zM653 -170v-55h-673v55h673z" />
    <glyph glyph-name="uni2460" unicode="&#x2460;" horiz-adv-x="880" 
d="M440 -40q-80 0 -151.5 31t-124 83.5t-83.5 124t-31 151.5t31 151.5t83.5 124t124 83.5t151.5 31t151.5 -31t124 -83.5t83.5 -124t31 -151.5t-31 -151.5t-83.5 -124t-124 -83.5t-151.5 -31zM440 10q70 0 132 27t107.5 73t72 108t26.5 132t-26.5 132t-72 108t-107.5 73
t-132 27t-132 -27t-107.5 -73t-72 -108t-26.5 -132t26.5 -132t72 -108t107.5 -73t132 -27zM479 155h-57v320l-117 -94v59l136 110h38v-395zM900 -170v-55h-920v55h920z" />
    <glyph glyph-name="uni2461" unicode="&#x2461;" horiz-adv-x="880" 
d="M440 -40q-80 0 -151.5 31t-124 83.5t-83.5 124t-31 151.5t31 151.5t83.5 124t124 83.5t151.5 31t151.5 -31t124 -83.5t83.5 -124t31 -151.5t-31 -151.5t-83.5 -124t-124 -83.5t-151.5 -31zM440 10q70 0 132 27t107.5 73t72 108t26.5 132t-26.5 132t-72 108t-107.5 73
t-132 27t-132 -27t-107.5 -73t-72 -108t-26.5 -132t26.5 -132t72 -108t107.5 -73t132 -27zM570 155h-266v68l126 110q44 39 59.5 58.5t15.5 48.5t-19 47t-46 18h-5q-22 0 -45 -17.5t-23 -51.5h-61q0 55 40.5 87t92.5 32q54 0 90.5 -30.5t36.5 -84.5q0 -45 -24.5 -73.5
t-54.5 -54.5l-123 -107h206v-50zM900 -170v-55h-920v55h920z" />
    <glyph glyph-name="uni2462" unicode="&#x2462;" horiz-adv-x="880" 
d="M440 -40q-80 0 -151.5 31t-124 83.5t-83.5 124t-31 151.5t31 151.5t83.5 124t124 83.5t151.5 31t151.5 -31t124 -83.5t83.5 -124t31 -151.5t-31 -151.5t-83.5 -124t-124 -83.5t-151.5 -31zM440 10q70 0 132 27t107.5 73t72 108t26.5 132t-26.5 132t-72 108t-107.5 73
t-132 27t-132 -27t-107.5 -73t-72 -108t-26.5 -132t26.5 -132t72 -108t107.5 -73t132 -27zM433 150q-52 0 -93 29.5t-41 84.5h61q1 -29 20.5 -46.5t49.5 -17.5h5q31 0 53.5 18t22.5 51q0 30 -19.5 46t-47.5 16h-44v47h46q28 0 45 15.5t17 45.5q0 33 -19.5 49.5t-50.5 16.5
h-5q-30 0 -48 -16.5t-19 -43.5h-61q0 54 40.5 82t92.5 28t91.5 -28t39.5 -82q0 -31 -15 -55t-40 -36q28 -11 43 -35.5t15 -55.5q0 -27 -12 -48t-31.5 -35.5t-44.5 -22t-51 -7.5zM900 -170v-55h-920v55h920z" />
    <glyph glyph-name="uni2463" unicode="&#x2463;" horiz-adv-x="880" 
d="M440 -40q-80 0 -151.5 31t-124 83.5t-83.5 124t-31 151.5t31 151.5t83.5 124t124 83.5t151.5 31t151.5 -31t124 -83.5t83.5 -124t31 -151.5t-31 -151.5t-83.5 -124t-124 -83.5t-151.5 -31zM440 10q70 0 132 27t107.5 73t72 108t26.5 132t-26.5 132t-72 108t-107.5 73
t-132 27t-132 -27t-107.5 -73t-72 -108t-26.5 -132t26.5 -132t72 -108t107.5 -73t132 -27zM464 155v96h-185v56l179 243h62v-249h54v-50h-54v-96h-56zM464 301v176l-127 -176h127zM900 -170v-55h-920v55h920z" />
    <glyph glyph-name="uni2464" unicode="&#x2464;" horiz-adv-x="880" 
d="M440 -40q-80 0 -151.5 31t-124 83.5t-83.5 124t-31 151.5t31 151.5t83.5 124t124 83.5t151.5 31t151.5 -31t124 -83.5t83.5 -124t31 -151.5t-31 -151.5t-83.5 -124t-124 -83.5t-151.5 -31zM440 10q70 0 132 27t107.5 73t72 108t26.5 132t-26.5 132t-72 108t-107.5 73
t-132 27t-132 -27t-107.5 -73t-72 -108t-26.5 -132t26.5 -132t72 -108t107.5 -73t132 -27zM432 150q-59 0 -97 28.5t-42 82.5h61q4 -31 26.5 -46t50.5 -15h4q31 0 52 22.5t21 57.5t-20.5 54t-51.5 19h-3q-25 0 -43 -11t-28 -23h-53l45 231h209v-50h-165l-26 -125
q14 13 33 20.5t41 7.5q56 0 89.5 -34.5t33.5 -86.5q0 -61 -40 -96.5t-97 -35.5zM900 -170v-55h-920v55h920z" />
    <glyph glyph-name="uni2465" unicode="&#x2465;" horiz-adv-x="880" 
d="M440 -40q-80 0 -151.5 31t-124 83.5t-83.5 124t-31 151.5t31 151.5t83.5 124t124 83.5t151.5 31t151.5 -31t124 -83.5t83.5 -124t31 -151.5t-31 -151.5t-83.5 -124t-124 -83.5t-151.5 -31zM440 10q70 0 132 27t107.5 73t72 108t26.5 132t-26.5 132t-72 108t-107.5 73
t-132 27t-132 -27t-107.5 -73t-72 -108t-26.5 -132t26.5 -132t72 -108t107.5 -73t132 -27zM431 150q-67 0 -106 50.5t-39 140.5q0 99 47 156.5t114 57.5q34 0 59 -10t41.5 -25.5t24.5 -35.5t8 -39h-59q-5 26 -24.5 42.5t-47.5 16.5h-6q-39 0 -68.5 -37t-34.5 -103
q12 25 41 40.5t66 15.5q50 0 88.5 -34.5t38.5 -94.5t-38 -100.5t-105 -40.5zM431 200h3q34 0 57.5 24t23.5 61t-22.5 61t-56.5 24h-3q-34 0 -57 -24t-23 -61t22 -61t56 -24zM900 -170v-55h-920v55h920z" />
    <glyph glyph-name="uni2466" unicode="&#x2466;" horiz-adv-x="880" 
d="M440 -40q-80 0 -151.5 31t-124 83.5t-83.5 124t-31 151.5t31 151.5t83.5 124t124 83.5t151.5 31t151.5 -31t124 -83.5t83.5 -124t31 -151.5t-31 -151.5t-83.5 -124t-124 -83.5t-151.5 -31zM440 10q70 0 132 27t107.5 73t72 108t26.5 132t-26.5 132t-72 108t-107.5 73
t-132 27t-132 -27t-107.5 -73t-72 -108t-26.5 -132t26.5 -132t72 -108t107.5 -73t132 -27zM443 155h-61v36q0 59 12 107.5t32 86.5t46.5 67t54.5 48h-212v50h266v-53q-22 -19 -46.5 -46t-45 -63.5t-33.5 -85.5t-13 -111v-36zM900 -170v-55h-920v55h920z" />
    <glyph glyph-name="uni2467" unicode="&#x2467;" horiz-adv-x="880" 
d="M440 -40q-80 0 -151.5 31t-124 83.5t-83.5 124t-31 151.5t31 151.5t83.5 124t124 83.5t151.5 31t151.5 -31t124 -83.5t83.5 -124t31 -151.5t-31 -151.5t-83.5 -124t-124 -83.5t-151.5 -31zM440 10q70 0 132 27t107.5 73t72 108t26.5 132t-26.5 132t-72 108t-107.5 73
t-132 27t-132 -27t-107.5 -73t-72 -108t-26.5 -132t26.5 -132t72 -108t107.5 -73t132 -27zM438 151q-51 0 -91.5 27t-40.5 79q0 34 19 57t48 36q-31 13 -52 37.5t-21 58.5q0 52 40 81t100 29t100.5 -29t40.5 -81q0 -34 -21 -58.5t-52 -37.5q28 -13 45.5 -36t17.5 -57
q0 -52 -41 -79t-92 -27zM443 506h-5q-31 0 -54 -16.5t-23 -48.5q0 -31 23.5 -47t51.5 -16h5q30 0 54.5 16t24.5 47q0 32 -23 48.5t-54 16.5zM436 201h5q28 0 48.5 17t20.5 48q0 29 -20.5 46.5t-48.5 17.5h-5q-28 0 -48.5 -17.5t-20.5 -46.5q0 -31 20.5 -48t48.5 -17z
M900 -170v-55h-920v55h920z" />
    <glyph glyph-name="uni2468" unicode="&#x2468;" horiz-adv-x="880" 
d="M440 -40q-80 0 -151.5 31t-124 83.5t-83.5 124t-31 151.5t31 151.5t83.5 124t124 83.5t151.5 31t151.5 -31t124 -83.5t83.5 -124t31 -151.5t-31 -151.5t-83.5 -124t-124 -83.5t-151.5 -31zM440 10q70 0 132 27t107.5 73t72 108t26.5 132t-26.5 132t-72 108t-107.5 73
t-132 27t-132 -27t-107.5 -73t-72 -108t-26.5 -132t26.5 -132t72 -108t107.5 -73t132 -27zM451 505h-3q-34 0 -57.5 -24t-23.5 -61t22.5 -61t56.5 -24h3q34 0 57 24t23 61t-22 61t-56 24zM451 555q67 0 106 -50.5t39 -140.5q0 -99 -47 -156.5t-114 -57.5q-34 0 -59 10
t-41.5 25.5t-24.5 35.5t-8 39h59q5 -26 24.5 -42.5t47.5 -16.5h6q39 0 68.5 37t34.5 103q-12 -25 -41 -40.5t-66 -15.5q-50 0 -88.5 34.5t-38.5 94.5t38 100.5t105 40.5zM900 -170v-55h-920v55h920z" />
    <glyph glyph-name="uni24EA" unicode="&#x24ea;" horiz-adv-x="880" 
d="M440 -40q-80 0 -151.5 31t-124 83.5t-83.5 124t-31 151.5t31 151.5t83.5 124t124 83.5t151.5 31t151.5 -31t124 -83.5t83.5 -124t31 -151.5t-31 -151.5t-83.5 -124t-124 -83.5t-151.5 -31zM440 10q70 0 132 27t107.5 73t72 108t26.5 132t-26.5 132t-72 108t-107.5 73
t-132 27t-132 -27t-107.5 -73t-72 -108t-26.5 -132t26.5 -132t72 -108t107.5 -73t132 -27zM440 150q-75 0 -118.5 55.5t-43.5 146.5t43.5 147t118.5 56t118.5 -56t43.5 -147t-43.5 -146.5t-118.5 -55.5zM438 200h4q25 0 44 13.5t31 34.5t18 48.5t6 55.5t-6 55.5t-18 49
t-31 35t-44 13.5h-4q-25 0 -44 -13.5t-31 -35t-18 -49t-6 -55.5t6 -55.5t18 -48.5t31 -34.5t44 -13.5zM900 -170v-55h-920v55h920z" />
    <glyph glyph-name="uni24FF" unicode="&#x24ff;" horiz-adv-x="880" 
d="M830 350q0 -80 -31 -151t-83.5 -124t-124 -84t-151.5 -31t-151 31t-124 84t-84 124t-31 151t31 151.5t84 124t124 83.5t151 31t151.5 -31t124 -83.5t83.5 -124t31 -151.5zM278 352q0 -91 43.5 -146.5t118.5 -55.5t118.5 55.5t43.5 146.5t-43.5 147t-118.5 56t-118.5 -56
t-43.5 -147zM442 200h-4q-25 0 -44 13.5t-31 34.5t-18 48.5t-6 55.5t6 55.5t18 49t31 35t44 13.5h4q25 0 44 -13.5t31 -35t18 -49t6 -55.5t-6 -55.5t-18 -48.5t-31 -34.5t-44 -13.5zM900 -170v-55h-920v55h920z" />
    <glyph glyph-name="lozenge" unicode="&#x25ca;" horiz-adv-x="615" 
d="M275 700h70l235 -350l-235 -350h-70l-240 350zM115 350l195 -282l195 282l-195 287zM635 -170v-55h-655v55h655z" />
    <glyph glyph-name="uni278A" unicode="&#x278a;" horiz-adv-x="880" 
d="M830 350q0 -80 -31 -151t-83.5 -124t-124 -84t-151.5 -31t-151 31t-124 84t-84 124t-31 151t31 151.5t84 124t124 83.5t151 31t151.5 -31t124 -83.5t83.5 -124t31 -151.5zM423 155h57v395h-38l-136 -110v-59l117 94v-320zM900 -170v-55h-920v55h920z" />
    <glyph glyph-name="uni278B" unicode="&#x278b;" horiz-adv-x="880" 
d="M830 350q0 -80 -31 -151t-83.5 -124t-124 -84t-151.5 -31t-151 31t-124 84t-84 124t-31 151t31 151.5t84 124t124 83.5t151 31t151.5 -31t124 -83.5t83.5 -124t31 -151.5zM305 155h266v50h-206l123 107q30 26 54.5 54.5t24.5 73.5q0 54 -36.5 84.5t-90.5 30.5
q-52 0 -92.5 -32t-40.5 -87h61q0 34 23 51.5t45 17.5h5q27 0 46 -18t19 -47t-15.5 -48.5t-59.5 -58.5l-126 -110v-68zM900 -170v-55h-920v55h920z" />
    <glyph glyph-name="uni278C" unicode="&#x278c;" horiz-adv-x="880" 
d="M830 350q0 -80 -31 -151t-83.5 -124t-124 -84t-151.5 -31t-151 31t-124 84t-84 124t-31 151t31 151.5t84 124t124 83.5t151 31t151.5 -31t124 -83.5t83.5 -124t31 -151.5zM301 264q0 -55 41 -84.5t93 -29.5q26 0 51 7.5t44.5 22t31.5 35.5t12 48q0 31 -15 55.5t-43 35.5
q25 12 40 36t15 55q0 54 -39.5 82t-91.5 28t-92.5 -28t-40.5 -82h61q1 27 19 43.5t48 16.5h5q31 0 50.5 -16.5t19.5 -49.5q0 -30 -17 -45.5t-45 -15.5h-46v-47h44q28 0 47.5 -16t19.5 -46q0 -33 -22.5 -51t-53.5 -18h-5q-30 0 -49.5 17.5t-20.5 46.5h-61zM900 -170v-55h-920
v55h920z" />
    <glyph glyph-name="uni278D" unicode="&#x278d;" horiz-adv-x="880" 
d="M830 350q0 -80 -31 -151t-83.5 -124t-124 -84t-151.5 -31t-151 31t-124 84t-84 124t-31 151t31 151.5t84 124t124 83.5t151 31t151.5 -31t124 -83.5t83.5 -124t31 -151.5zM462 251v-96h56v96h54v50h-54v249h-62l-179 -243v-56h185zM462 477v-176h-127zM900 -170v-55h-920
v55h920z" />
    <glyph glyph-name="uni278E" unicode="&#x278e;" horiz-adv-x="880" 
d="M830 350q0 -80 -31 -151t-83.5 -124t-124 -84t-151.5 -31t-151 31t-124 84t-84 124t-31 151t31 151.5t84 124t124 83.5t151 31t151.5 -31t124 -83.5t83.5 -124t31 -151.5zM295 261q4 -54 42 -82.5t97 -28.5q57 0 97 35.5t40 96.5q0 52 -33.5 86.5t-89.5 34.5
q-22 0 -41 -7.5t-33 -20.5l26 125h165v50h-209l-45 -231h53q10 12 28 23t43 11h3q31 0 51.5 -19t20.5 -54t-21 -57.5t-52 -22.5h-4q-28 0 -50.5 15t-26.5 46h-61zM900 -170v-55h-920v55h920z" />
    <glyph glyph-name="uni278F" unicode="&#x278f;" horiz-adv-x="880" 
d="M830 350q0 -80 -31 -151t-83.5 -124t-124 -84t-151.5 -31t-151 31t-124 84t-84 124t-31 151t31 151.5t84 124t124 83.5t151 31t151.5 -31t124 -83.5t83.5 -124t31 -151.5zM285 341q0 -90 39 -140.5t106 -50.5t105 40.5t38 100.5t-38.5 94.5t-88.5 34.5q-37 0 -66 -15.5
t-41 -40.5q5 66 34.5 103t68.5 37h6q28 0 47.5 -16.5t24.5 -42.5h59q0 19 -8 39t-24.5 35.5t-41.5 25.5t-59 10q-67 0 -114 -57.5t-47 -156.5zM433 200h-3q-34 0 -56 24t-22 61t23 61t57 24h3q34 0 56.5 -24t22.5 -61t-23.5 -61t-57.5 -24zM900 -170v-55h-920v55h920z" />
    <glyph glyph-name="uni2790" unicode="&#x2790;" horiz-adv-x="880" 
d="M830 350q0 -80 -31 -151t-83.5 -124t-124 -84t-151.5 -31t-151 31t-124 84t-84 124t-31 151t31 151.5t84 124t124 83.5t151 31t151.5 -31t124 -83.5t83.5 -124t31 -151.5zM382 155h61v36q0 62 13 111t33.5 85.5t45 63.5t46.5 46v53h-266v-50h212q-28 -19 -54.5 -48
t-46.5 -67t-32 -86.5t-12 -107.5v-36zM900 -170v-55h-920v55h920z" />
    <glyph glyph-name="uni2791" unicode="&#x2791;" horiz-adv-x="880" 
d="M830 350q0 -80 -31 -151t-83.5 -124t-124 -84t-151.5 -31t-151 31t-124 84t-84 124t-31 151t31 151.5t84 124t124 83.5t151 31t151.5 -31t124 -83.5t83.5 -124t31 -151.5zM307 256q0 -52 40.5 -79t91.5 -27t92 27t41 79q0 34 -17.5 57t-45.5 36q31 13 52 37.5t21 58.5
q0 52 -40.5 81t-100.5 29t-100 -29t-40 -81q0 -34 21 -58.5t52 -37.5q-29 -13 -48 -36t-19 -57zM439 505h5q31 0 54 -16.5t23 -48.5q0 -31 -24.5 -47t-54.5 -16h-5q-28 0 -51.5 16t-23.5 47q0 32 23 48.5t54 16.5zM442 200h-5q-28 0 -48.5 17t-20.5 48q0 29 20.5 46.5
t48.5 17.5h5q28 0 48.5 -17.5t20.5 -46.5q0 -31 -20.5 -48t-48.5 -17zM900 -170v-55h-920v55h920z" />
    <glyph glyph-name="uni2792" unicode="&#x2792;" horiz-adv-x="880" 
d="M830 350q0 -80 -31 -151t-83.5 -124t-124 -84t-151.5 -31t-151 31t-124 84t-84 124t-31 151t31 151.5t84 124t124 83.5t151 31t151.5 -31t124 -83.5t83.5 -124t31 -151.5zM445 505h3q34 0 56 -24t22 -61t-23 -61t-57 -24h-3q-34 0 -56.5 24t-22.5 61t23.5 61t57.5 24z
M593 364q0 90 -39 140.5t-106 50.5t-105 -40.5t-38 -100.5t38.5 -94.5t88.5 -34.5q37 0 66 15.5t41 40.5q-5 -66 -34.5 -103t-68.5 -37h-6q-28 0 -47.5 16.5t-24.5 42.5h-59q0 -19 8 -39t24.5 -35.5t41.5 -25.5t59 -10q67 0 114 57.5t47 156.5zM900 -170v-55h-920v55h920z
" />
    <glyph glyph-name="j.inferior" unicode="&#x2c7c;" horiz-adv-x="161" 
d="M50 332v63h61v-63h-61zM108 -153q0 -31 -18.5 -51.5t-53.5 -20.5h-68v55h54q17 0 24 7.5t7 25.5v422h55v-438z" />
    <glyph glyph-name="Omega" unicode="&#xa7b6;" horiz-adv-x="764" 
d="M302 60v-60h-235v65h125q-64 35 -97 110t-33 175q0 84 24 151t66.5 113.5t101.5 71t128 24.5t128 -24.5t101.5 -71t66.5 -113.5t24 -151q0 -100 -33 -175t-97 -110h125v-65h-235v60q81 21 126.5 96t45.5 194q0 139 -67 217t-180 78h-10q-113 0 -180 -78t-67 -217
q0 -119 45.5 -194t126.5 -96zM784 -170v-55h-804v55h804z" />
    <glyph glyph-name="Checkbox_one" unicode="&#xe000;" horiz-adv-x="540" 
d="M70 150v400h400v-400h-400zM145 225h250v250h-250v-250zM560 -170v-55h-580v55h580z" />
    <glyph glyph-name="Checkbox_two" unicode="&#xe001;" horiz-adv-x="690" 
d="M620 75h-550v550h550v-550zM145 550v-400h400v400h-400zM710 -170v-55h-730v55h730z" />
    <glyph glyph-name="Checkbox_three" unicode="&#xe002;" horiz-adv-x="880" 
d="M90 0v700h700v-700h-700zM165 75h550v550h-550v-550zM900 -170v-55h-920v55h920z" />
    <glyph glyph-name="circle_one" unicode="&#xe003;" horiz-adv-x="580" 
d="M290 110q-49 0 -93 19t-76.5 51.5t-51.5 76.5t-19 93t19 93t51.5 76.5t76.5 51.5t93 19t93 -19t76.5 -51.5t51.5 -76.5t19 -93t-19 -93t-51.5 -76.5t-76.5 -51.5t-93 -19zM290 185q68 0 116.5 48.5t48.5 116.5t-48.5 116.5t-116.5 48.5t-116.5 -48.5t-48.5 -116.5
t48.5 -116.5t116.5 -48.5zM600 -170v-55h-620v55h620z" />
    <glyph glyph-name="circle_two" unicode="&#xe004;" horiz-adv-x="730" 
d="M680 350q0 -65 -25 -122.5t-67.5 -100t-100 -67.5t-122.5 -25t-122.5 25t-100 67.5t-67.5 100t-25 122.5t25 122.5t67.5 100t100 67.5t122.5 25t122.5 -25t100 -67.5t67.5 -100t25 -122.5zM125 350q0 -49 19 -93t51.5 -76.5t76.5 -51.5t93 -19t93 19t76.5 51.5t51.5 76.5
t19 93t-19 93t-51.5 76.5t-76.5 51.5t-93 19t-93 -19t-76.5 -51.5t-51.5 -76.5t-19 -93zM750 -170v-55h-770v55h770z" />
    <glyph glyph-name="circle_three" unicode="&#xe005;" horiz-adv-x="880" 
d="M440 -40q-80 0 -151 31t-124 84t-84 124t-31 151t31 151.5t84 124t124 83.5t151 31t151.5 -31t124 -83.5t83.5 -124t31 -151.5t-31 -151t-83.5 -124t-124 -84t-151.5 -31zM440 35q65 0 122.5 25t100 67.5t67.5 100t25 122.5t-25 122.5t-67.5 100t-100 67.5t-122.5 25
t-122.5 -25t-100 -67.5t-67.5 -100t-25 -122.5t25 -122.5t67.5 -100t100 -67.5t122.5 -25zM900 -170v-55h-920v55h920z" />
    <glyph glyph-name="bullet_one" unicode="&#xe006;" horiz-adv-x="640" 
d="M320 110q-49 0 -93 19t-76.5 51.5t-51.5 76.5t-19 93t19 93t51.5 76.5t76.5 51.5t93 19t93 -19t76.5 -51.5t51.5 -76.5t19 -93t-19 -93t-51.5 -76.5t-76.5 -51.5t-93 -19zM660 -170v-55h-680v55h680z" />
    <glyph glyph-name="bullet_two" unicode="&#xe007;" horiz-adv-x="700" 
d="M650 350q0 -62 -24 -116.5t-64.5 -95t-95 -64.5t-116.5 -24t-116.5 24t-95 64.5t-64.5 95t-24 116.5t24 116.5t64.5 95t95 64.5t116.5 24t116.5 -24t95 -64.5t64.5 -95t24 -116.5zM720 -170v-55h-740v55h740z" />
    <glyph glyph-name="bullet_three" unicode="&#xe008;" horiz-adv-x="880" 
d="M800 350q0 -74 -28.5 -140t-77 -114.5t-114.5 -77t-140 -28.5t-140 28.5t-114.5 77t-77 114.5t-28.5 140t28.5 140t77 114.5t114.5 77t140 28.5t140 -28.5t114.5 -77t77 -114.5t28.5 -140zM900 -170v-55h-920v55h920z" />
    <glyph glyph-name="Pyramide_one" unicode="&#xe009;" horiz-adv-x="540" 
d="M70 150v400h400v-400h-400zM145 225h250v250h-250v-250zM220 300v100h100v-100h-100zM560 -170v-55h-580v55h580z" />
    <glyph glyph-name="Pyramide_two" unicode="&#xe00a;" horiz-adv-x="690" 
d="M620 75h-550v550h550v-550zM145 550v-400h400v400h-400zM470 225h-250v250h250v-250zM295 400v-100h100v100h-100zM710 -170v-55h-730v55h730z" />
    <glyph glyph-name="Pyramide_three" unicode="&#xe00b;" horiz-adv-x="880" 
d="M90 0v700h700v-700h-700zM165 75h550v550h-550v-550zM240 150v400h400v-400h-400zM315 225h250v250h-250v-250zM490 300h-100v100h100v-100zM900 -170v-55h-920v55h920z" />
    <glyph glyph-name="Square_one" unicode="&#xe00c;" horiz-adv-x="540" 
d="M70 150v400h400v-400h-400zM560 -170v-55h-580v55h580z" />
    <glyph glyph-name="Square_two" unicode="&#xe00d;" horiz-adv-x="690" 
d="M620 75h-550v550h550v-550zM710 -170v-55h-730v55h730z" />
    <glyph glyph-name="Square_three" unicode="&#xe00e;" horiz-adv-x="880" 
d="M90 0v700h700v-700h-700zM900 -170v-55h-920v55h920z" />
    <glyph glyph-name="Tower_one" unicode="&#xe010;" horiz-adv-x="580" 
d="M290 110q-49 0 -93 19t-76.5 51.5t-51.5 76.5t-19 93t19 93t51.5 76.5t76.5 51.5t93 19t93 -19t76.5 -51.5t51.5 -76.5t19 -93t-19 -93t-51.5 -76.5t-76.5 -51.5t-93 -19zM290 185q68 0 116.5 48.5t48.5 116.5t-48.5 116.5t-116.5 48.5t-116.5 -48.5t-48.5 -116.5
t48.5 -116.5t116.5 -48.5zM290 260q-37 0 -63.5 26.5t-26.5 63.5t26.5 63.5t63.5 26.5t63.5 -26.5t26.5 -63.5t-26.5 -63.5t-63.5 -26.5zM600 -170v-55h-620v55h620z" />
    <glyph glyph-name="Tower_two" unicode="&#xe011;" horiz-adv-x="730" 
d="M680 350q0 -65 -25 -122.5t-67.5 -100t-100 -67.5t-122.5 -25t-122.5 25t-100 67.5t-67.5 100t-25 122.5t25 122.5t67.5 100t100 67.5t122.5 25t122.5 -25t100 -67.5t67.5 -100t25 -122.5zM125 350q0 -49 19 -93t51.5 -76.5t76.5 -51.5t93 -19t93 19t76.5 51.5t51.5 76.5
t19 93t-19 93t-51.5 76.5t-76.5 51.5t-93 19t-93 -19t-76.5 -51.5t-51.5 -76.5t-19 -93zM530 350q0 -68 -48.5 -116.5t-116.5 -48.5t-116.5 48.5t-48.5 116.5t48.5 116.5t116.5 48.5t116.5 -48.5t48.5 -116.5zM275 350q0 -37 26.5 -63.5t63.5 -26.5t63.5 26.5t26.5 63.5
t-26.5 63.5t-63.5 26.5t-63.5 -26.5t-26.5 -63.5zM750 -170v-55h-770v55h770z" />
    <glyph glyph-name="Tower_three" unicode="&#xe012;" horiz-adv-x="880" 
d="M440 -40q-80 0 -151.5 31t-124 83.5t-83.5 124t-31 151.5t31 151.5t83.5 124t124 83.5t151.5 31t151.5 -31t124 -83.5t83.5 -124t31 -151.5t-31 -151.5t-83.5 -124t-124 -83.5t-151.5 -31zM440 35q65 0 122.5 25t100 67.5t67.5 100t25 122.5t-25 122.5t-67.5 100
t-100 67.5t-122.5 25t-122.5 -25t-100 -67.5t-67.5 -100t-25 -122.5t25 -122.5t67.5 -100t100 -67.5t122.5 -25zM440 110q-49 0 -93 19t-76.5 51.5t-51.5 76.5t-19 93t19 93t51.5 76.5t76.5 51.5t93 19t93 -19t76.5 -51.5t51.5 -76.5t19 -93t-19 -93t-51.5 -76.5
t-76.5 -51.5t-93 -19zM440 185q68 0 116.5 48.5t48.5 116.5t-48.5 116.5t-116.5 48.5t-116.5 -48.5t-48.5 -116.5t48.5 -116.5t116.5 -48.5zM440 260q-37 0 -63.5 26.5t-26.5 63.5t26.5 63.5t63.5 26.5t63.5 -26.5t26.5 -63.5t-26.5 -63.5t-63.5 -26.5zM900 -170v-55h-920
v55h920z" />
    <glyph glyph-name="commaaccent" unicode="&#xf6c3;" horiz-adv-x="188" 
d="M135 -175q0 -34 -21 -54.5t-54 -20.5h-10v35h5q22 0 33.5 10t11.5 30v10h-30v75h65v-85z" />
    <glyph glyph-name="A.fina" horiz-adv-x="697" 
d="M490 258l-153 378l-153 -378h306zM-30 -225v55h693l-147 363h-358l-78 -193h-72l287 700h88l376 -925h-789z" />
    <glyph glyph-name="Agrave.fina" horiz-adv-x="697" 
d="M314 890l53 -125h-60l-83 125h90zM490 258l-153 378l-153 -378h306zM-30 -225v55h693l-147 363h-358l-78 -193h-72l287 700h88l376 -925h-789z" />
    <glyph glyph-name="Aacute.fina" horiz-adv-x="697" 
d="M313 765l53 125h90l-83 -125h-60zM490 258l-153 378l-153 -378h306zM-30 -225v55h693l-147 363h-358l-78 -193h-72l287 700h88l376 -925h-789z" />
    <glyph glyph-name="Acircumflex.fina" horiz-adv-x="697" 
d="M430 765l-92 72l-92 -72h-68l115 125h90l115 -125h-68zM490 258l-153 378l-153 -378h306zM-30 -225v55h693l-147 363h-358l-78 -193h-72l287 700h88l376 -925h-789z" />
    <glyph glyph-name="Atilde.fina" horiz-adv-x="697" 
d="M417 760q-19 0 -35.5 8.5t-42.5 26.5q-21 16 -37.5 28t-35.5 12q-22 0 -31.5 -16.5t-9.5 -48.5h-50v23q0 41 25 69t62 28q21 0 37.5 -8.5t41.5 -26.5l39 -28q16 -12 34 -12q22 0 31 17t9 48h50v-23q0 -41 -25 -69t-62 -28zM490 258l-153 378l-153 -378h306zM-30 -225v55
h693l-147 363h-358l-78 -193h-72l287 700h88l376 -925h-789z" />
    <glyph glyph-name="Adieresis.fina" horiz-adv-x="697" 
d="M205 780v80h80v-80h-80zM391 780v80h80v-80h-80zM490 258l-153 378l-153 -378h306zM-30 -225v55h693l-147 363h-358l-78 -193h-72l287 700h88l376 -925h-789z" />
    <glyph glyph-name="Aring.fina" horiz-adv-x="697" 
d="M259 838q0 34 24 56.5t55 22.5t55 -22.5t24 -56.5t-24 -56.5t-55 -22.5t-55 22.5t-24 56.5zM339 872q-13 0 -23.5 -10.5t-10.5 -23.5t10.5 -23.5t23.5 -10.5t22.5 10.5t9.5 23.5t-9.5 23.5t-22.5 10.5zM490 258l-153 378l-153 -378h306zM-30 -225v55h693l-147 363h-358
l-78 -193h-72l287 700h88l376 -925h-789z" />
    <glyph glyph-name="Amacron.fina" horiz-adv-x="697" 
d="M201 780v55h275v-55h-275zM490 258l-153 378l-153 -378h306zM-30 -225v55h693l-147 363h-358l-78 -193h-72l287 700h88l376 -925h-789z" />
    <glyph glyph-name="Abreve.fina" horiz-adv-x="697" 
d="M338 755q-63 0 -104 34.5t-41 100.5h55q4 -43 28.5 -61.5t61.5 -18.5t61.5 18.5t28.5 61.5h55q0 -66 -41 -100.5t-104 -34.5zM490 258l-153 378l-153 -378h306zM-30 -225v55h693l-147 363h-358l-78 -193h-72l287 700h88l376 -925h-789z" />
    <glyph glyph-name="Aringacute.fina" horiz-adv-x="697" 
d="M318 928l39 88h70l-60 -88h-49zM272 828q0 30 21 49.5t48 19.5t48 -19.5t21 -49.5t-21 -49.5t-48 -19.5t-48 19.5t-21 49.5zM342 852q-10 0 -17 -7t-7 -17t7 -17t17 -7q9 0 16 7t7 17t-7 17t-16 7zM490 258l-153 378l-153 -378h306zM-30 -225v55h693l-147 363h-358
l-78 -193h-72l287 700h88l376 -925h-789z" />
    <glyph glyph-name="uni0226.fina" horiz-adv-x="697" 
d="M301 780v85h75v-85h-75zM490 258l-153 378l-153 -378h306zM-30 -225v55h693l-147 363h-358l-78 -193h-72l287 700h88l376 -925h-789z" />
    <glyph glyph-name="uni1EA0.fina" horiz-adv-x="697" 
d="M490 258l-153 378l-153 -378h306zM306 -225v75h65v-75h-65zM436 -225v55h227l-147 363h-358l-78 -193h-72l287 700h88l376 -925h-323zM-30 -225v55h271v-55h-271z" />
    <glyph glyph-name="C.fina" horiz-adv-x="694" 
d="M-20 -225v55h409v160q-80 0 -142.5 27.5t-105 76t-65 114.5t-22.5 142t22 142.5t63.5 114.5t101 75.5t133.5 27.5q54 0 102.5 -15.5t84.5 -44.5t58 -71t25 -94h-70q-3 38 -19.5 68t-43 50.5t-61 31t-71.5 10.5h-10q-60 0 -106 -23.5t-76.5 -63.5t-46.5 -94t-16 -114
q0 -61 17 -115t49.5 -94t81.5 -63t112 -23h70v-280h-474z" />
    <glyph glyph-name="Ccedilla.fina" horiz-adv-x="694" 
d="M465 -126q0 -41 -25.5 -70t-74.5 -29h-385v55h386q20 0 34.5 11t14.5 33t-14.5 32.5t-34.5 10.5h-28v75q-66 6 -119 36t-89.5 77.5t-56 110t-19.5 134.5q0 76 22 142.5t63.5 114.5t101 75.5t133.5 27.5q54 0 102.5 -15.5t84.5 -44.5t58 -71t25 -94h-70q-3 38 -19.5 68
t-43 50.5t-61 31t-71.5 10.5h-10q-60 0 -106 -23.5t-76.5 -63.5t-46.5 -94t-16 -114t16 -114t46.5 -94t76.5 -63.5t106 -23.5h10q37 0 71.5 10.5t61 31t43 50.5t19.5 68h70q-3 -51 -24 -92t-56 -70t-81.5 -45.5t-99.5 -17.5v-35q32 1 57 -21.5t25 -59.5z" />
    <glyph glyph-name="Cacute.fina" horiz-adv-x="694" 
d="M345 765l53 125h90l-83 -125h-60zM-20 -225v55h409v160q-80 0 -142.5 27.5t-105 76t-65 114.5t-22.5 142t22 142.5t63.5 114.5t101 75.5t133.5 27.5q54 0 102.5 -15.5t84.5 -44.5t58 -71t25 -94h-70q-3 38 -19.5 68t-43 50.5t-61 31t-71.5 10.5h-10q-60 0 -106 -23.5
t-76.5 -63.5t-46.5 -94t-16 -114q0 -61 17 -115t49.5 -94t81.5 -63t112 -23h70v-280h-474z" />
    <glyph glyph-name="Ccircumflex.fina" horiz-adv-x="694" 
d="M466 765l-92 72l-92 -72h-68l115 125h90l115 -125h-68zM-20 -225v55h409v160q-80 0 -142.5 27.5t-105 76t-65 114.5t-22.5 142t22 142.5t63.5 114.5t101 75.5t133.5 27.5q54 0 102.5 -15.5t84.5 -44.5t58 -71t25 -94h-70q-3 38 -19.5 68t-43 50.5t-61 31t-71.5 10.5h-10
q-60 0 -106 -23.5t-76.5 -63.5t-46.5 -94t-16 -114q0 -61 17 -115t49.5 -94t81.5 -63t112 -23h70v-280h-474z" />
    <glyph glyph-name="Cdotaccent.fina" horiz-adv-x="694" 
d="M337 780v85h75v-85h-75zM-20 -225v55h409v160q-80 0 -142.5 27.5t-105 76t-65 114.5t-22.5 142t22 142.5t63.5 114.5t101 75.5t133.5 27.5q54 0 102.5 -15.5t84.5 -44.5t58 -71t25 -94h-70q-3 38 -19.5 68t-43 50.5t-61 31t-71.5 10.5h-10q-60 0 -106 -23.5t-76.5 -63.5
t-46.5 -94t-16 -114q0 -61 17 -115t49.5 -94t81.5 -63t112 -23h70v-280h-474z" />
    <glyph glyph-name="Ccaron.fina" horiz-adv-x="694" 
d="M327 765l-115 125h68l92 -72l92 72h68l-115 -125h-90zM-20 -225v55h409v160q-80 0 -142.5 27.5t-105 76t-65 114.5t-22.5 142t22 142.5t63.5 114.5t101 75.5t133.5 27.5q54 0 102.5 -15.5t84.5 -44.5t58 -71t25 -94h-70q-3 38 -19.5 68t-43 50.5t-61 31t-71.5 10.5h-10
q-60 0 -106 -23.5t-76.5 -63.5t-46.5 -94t-16 -114q0 -61 17 -115t49.5 -94t81.5 -63t112 -23h70v-280h-474z" />
    <glyph glyph-name="E.fina" horiz-adv-x="642" 
d="M-20 -225v55h551v170h-434v700h489v-65h-419v-242h359v-65h-359v-263h429v-290h-616z" />
    <glyph glyph-name="Egrave.fina" horiz-adv-x="642" 
d="M324 890l53 -125h-60l-83 125h90zM-20 -225v55h551v170h-434v700h489v-65h-419v-242h359v-65h-359v-263h429v-290h-616z" />
    <glyph glyph-name="Eacute.fina" horiz-adv-x="642" 
d="M307 765l53 125h90l-83 -125h-60zM-20 -225v55h551v170h-434v700h489v-65h-419v-242h359v-65h-359v-263h429v-290h-616z" />
    <glyph glyph-name="Ecircumflex.fina" horiz-adv-x="642" 
d="M431 765l-92 72l-92 -72h-68l115 125h90l115 -125h-68zM-20 -225v55h551v170h-434v700h489v-65h-419v-242h359v-65h-359v-263h429v-290h-616z" />
    <glyph glyph-name="Edieresis.fina" horiz-adv-x="642" 
d="M206 780v80h80v-80h-80zM392 780v80h80v-80h-80zM-20 -225v55h551v170h-434v700h489v-65h-419v-242h359v-65h-359v-263h429v-290h-616z" />
    <glyph glyph-name="Emacron.fina" horiz-adv-x="642" 
d="M211 780v55h275v-55h-275zM-20 -225v55h551v170h-434v700h489v-65h-419v-242h359v-65h-359v-263h429v-290h-616z" />
    <glyph glyph-name="Ebreve.fina" horiz-adv-x="642" 
d="M339 755q-63 0 -104 34.5t-41 100.5h55q4 -43 28.5 -61.5t61.5 -18.5t61.5 18.5t28.5 61.5h55q0 -66 -41 -100.5t-104 -34.5zM-20 -225v55h551v170h-434v700h489v-65h-419v-242h359v-65h-359v-263h429v-290h-616z" />
    <glyph glyph-name="Edotaccent.fina" horiz-adv-x="642" 
d="M311 780v85h75v-85h-75zM-20 -225v55h551v170h-434v700h489v-65h-419v-242h359v-65h-359v-263h429v-290h-616z" />
    <glyph glyph-name="Ecaron.fina" horiz-adv-x="642" 
d="M294 765l-115 125h68l92 -72l92 72h68l-115 -125h-90zM-20 -225v55h551v170h-434v700h489v-65h-419v-242h359v-65h-359v-263h429v-290h-616z" />
    <glyph glyph-name="uni1EB8.fina" horiz-adv-x="642" 
d="M312 -225v75h65v-75h-65zM442 -225v55h89v170h-434v700h489v-65h-419v-242h359v-65h-359v-263h429v-290h-154zM-20 -225v55h267v-55h-267z" />
    <glyph glyph-name="F.fina" horiz-adv-x="590" 
d="M-20 -225v55h117v870h465v-65h-395v-263h344v-65h-344v-532h-187z" />
    <glyph glyph-name="G.fina" horiz-adv-x="728" 
d="M-20 -225v55h619v261q-32 -46 -89.5 -73.5t-125.5 -27.5q-78 0 -140 27t-104 74.5t-64 114t-22 144.5t22 144.5t64 114t104 74.5t140 27q118 0 191 -65.5t84 -169.5h-70q-12 80 -65.5 125t-134.5 45h-10q-56 0 -103 -19.5t-80.5 -57t-52.5 -92.5t-19 -126t19 -126
t52.5 -92.5t80.5 -57t103 -19.5h10q41 0 79 13t67 37.5t46.5 60.5t17.5 83v36h-215v65h215q32 0 48.5 -16.5t16.5 -48.5v-510h-684z" />
    <glyph glyph-name="Gcircumflex.fina" horiz-adv-x="728" 
d="M471 765l-92 72l-92 -72h-68l115 125h90l115 -125h-68zM-20 -225v55h619v261q-32 -46 -89.5 -73.5t-125.5 -27.5q-78 0 -140 27t-104 74.5t-64 114t-22 144.5t22 144.5t64 114t104 74.5t140 27q118 0 191 -65.5t84 -169.5h-70q-12 80 -65.5 125t-134.5 45h-10
q-56 0 -103 -19.5t-80.5 -57t-52.5 -92.5t-19 -126t19 -126t52.5 -92.5t80.5 -57t103 -19.5h10q41 0 79 13t67 37.5t46.5 60.5t17.5 83v36h-215v65h215q32 0 48.5 -16.5t16.5 -48.5v-510h-684z" />
    <glyph glyph-name="Gbreve.fina" horiz-adv-x="728" 
d="M384 755q-63 0 -104 34.5t-41 100.5h55q4 -43 28.5 -61.5t61.5 -18.5t61.5 18.5t28.5 61.5h55q0 -66 -41 -100.5t-104 -34.5zM-20 -225v55h619v261q-32 -46 -89.5 -73.5t-125.5 -27.5q-78 0 -140 27t-104 74.5t-64 114t-22 144.5t22 144.5t64 114t104 74.5t140 27
q118 0 191 -65.5t84 -169.5h-70q-12 80 -65.5 125t-134.5 45h-10q-56 0 -103 -19.5t-80.5 -57t-52.5 -92.5t-19 -126t19 -126t52.5 -92.5t80.5 -57t103 -19.5h10q41 0 79 13t67 37.5t46.5 60.5t17.5 83v36h-215v65h215q32 0 48.5 -16.5t16.5 -48.5v-510h-684z" />
    <glyph glyph-name="Gdotaccent.fina" horiz-adv-x="728" 
d="M351 780v85h75v-85h-75zM-20 -225v55h619v261q-32 -46 -89.5 -73.5t-125.5 -27.5q-78 0 -140 27t-104 74.5t-64 114t-22 144.5t22 144.5t64 114t104 74.5t140 27q118 0 191 -65.5t84 -169.5h-70q-12 80 -65.5 125t-134.5 45h-10q-56 0 -103 -19.5t-80.5 -57t-52.5 -92.5
t-19 -126t19 -126t52.5 -92.5t80.5 -57t103 -19.5h10q41 0 79 13t67 37.5t46.5 60.5t17.5 83v36h-215v65h215q32 0 48.5 -16.5t16.5 -48.5v-510h-684z" />
    <glyph glyph-name="Gcommaaccent.fina" horiz-adv-x="728" 
d="M477 -225v55h122v261q-32 -46 -89.5 -73.5t-125.5 -27.5q-78 0 -140 27t-104 74.5t-64 114t-22 144.5t22 144.5t64 114t104 74.5t140 27q118 0 191 -65.5t84 -169.5h-70q-12 80 -65.5 125t-134.5 45h-10q-56 0 -103 -19.5t-80.5 -57t-52.5 -92.5t-19 -126t19 -126
t52.5 -92.5t80.5 -57t103 -19.5h10q41 0 79 13t67 37.5t46.5 60.5t17.5 83v36h-215v65h215q32 0 48.5 -16.5t16.5 -48.5v-510h-187zM327 -310v35h5q22 0 33.5 10t11.5 30v10h-397v55h432v-65q0 -34 -21 -54.5t-54 -20.5h-10z" />
    <glyph glyph-name="H.fina" horiz-adv-x="729" 
d="M-20 -225v55h582v488h-395v-318h-70v700h70v-317h395v317h70v-925h-652z" />
    <glyph glyph-name="Hcircumflex.fina" horiz-adv-x="729" 
d="M456 765l-92 72l-92 -72h-68l115 125h90l115 -125h-68zM-20 -225v55h582v488h-395v-318h-70v700h70v-317h395v317h70v-925h-652z" />
    <glyph glyph-name="I.fina" horiz-adv-x="264" 
d="M-20 -225v55h117v870h70v-925h-187z" />
    <glyph glyph-name="Igrave.fina" horiz-adv-x="264" 
d="M109 890l53 -125h-60l-83 125h90zM-20 -225v55h117v870h70v-925h-187z" />
    <glyph glyph-name="Iacute.fina" horiz-adv-x="264" 
d="M108 765l53 125h90l-83 -125h-60zM-20 -225v55h117v870h70v-925h-187z" />
    <glyph glyph-name="Icircumflex.fina" horiz-adv-x="264" 
d="M224 765l-92 72l-92 -72h-68l115 125h90l115 -125h-68zM-20 -225v55h117v870h70v-925h-187z" />
    <glyph glyph-name="Idieresis.fina" horiz-adv-x="264" 
d="M-1 780v80h80v-80h-80zM185 780v80h80v-80h-80zM-20 -225v55h117v870h70v-925h-187z" />
    <glyph glyph-name="Itilde.fina" horiz-adv-x="264" 
d="M211 760q-19 0 -35.5 8.5t-42.5 26.5q-21 16 -37.5 28t-35.5 12q-22 0 -31.5 -16.5t-9.5 -48.5h-50v23q0 41 25 69t62 28q21 0 37.5 -8.5t41.5 -26.5l39 -28q16 -12 34 -12q22 0 31 17t9 48h50v-23q0 -41 -25 -69t-62 -28zM-20 -225v55h117v870h70v-925h-187z" />
    <glyph glyph-name="Imacron.fina" horiz-adv-x="264" 
d="M-5 780v55h275v-55h-275zM-20 -225v55h117v870h70v-925h-187z" />
    <glyph glyph-name="Ibreve.fina" horiz-adv-x="264" 
d="M132 755q-63 0 -104 34.5t-41 100.5h55q4 -43 28.5 -61.5t61.5 -18.5t61.5 18.5t28.5 61.5h55q0 -66 -41 -100.5t-104 -34.5zM-20 -225v55h117v870h70v-925h-187z" />
    <glyph glyph-name="Idotaccent.fina" horiz-adv-x="264" 
d="M95 780v85h75v-85h-75zM-20 -225v55h117v870h70v-925h-187z" />
    <glyph glyph-name="J.fina" horiz-adv-x="387" 
d="M295 -42q0 -91 -42 -137t-117 -46h-156v55h155q47 0 68.5 30.5t21.5 84.5v755h70v-742z" />
    <glyph glyph-name="Jcircumflex.fina" horiz-adv-x="387" 
d="M352 765l-92 72l-92 -72h-68l115 125h90l115 -125h-68zM295 -42q0 -91 -42 -137t-117 -46h-156v55h155q47 0 68.5 30.5t21.5 84.5v755h70v-742z" />
    <glyph glyph-name="K.fina" horiz-adv-x="747" 
d="M-20 -225v55h707l-369 537l-151 -149v-218h-70v700h70v-390l393 390h93l-285 -283l444 -642h-832z" />
    <glyph glyph-name="Kcommaaccent.fina" horiz-adv-x="747" 
d="M448 -225v55h239l-369 537l-151 -149v-218h-70v700h70v-390l393 390h93l-285 -283l444 -642h-364zM298 -310v35h5q22 0 33.5 10t11.5 30v10h-368v55h403v-65q0 -34 -21 -54.5t-54 -20.5h-10z" />
    <glyph glyph-name="L.fina" horiz-adv-x="602" 
d="M-20 -225v55h541v170h-424v700h70v-635h419v-290h-606z" />
    <glyph glyph-name="Lacute.fina" horiz-adv-x="602" 
d="M107 765l53 125h90l-83 -125h-60zM-20 -225v55h541v170h-424v700h70v-635h419v-290h-606z" />
    <glyph glyph-name="Lcaron.fina" horiz-adv-x="602" 
d="M367 615q0 -34 -21 -54.5t-54 -20.5h-10v35h5q22 0 33.5 10t11.5 30v10h-30v75h65v-85zM-20 -225v55h541v170h-424v700h70v-635h419v-290h-606z" />
    <glyph glyph-name="M.fina" horiz-adv-x="919" 
d="M-20 -225v55h773v813l-244 -643h-97l-246 646v-646h-69v700h119l246 -648l244 648h116v-925h-842z" />
    <glyph glyph-name="N.fina" horiz-adv-x="739" 
d="M-20 -225v55h117v870h90l385 -593v593h70v-700h-85l-390 603v-828h-187z" />
    <glyph glyph-name="Ntilde.fina" horiz-adv-x="739" 
d="M458 760q-19 0 -35.5 8.5t-42.5 26.5q-21 16 -37.5 28t-35.5 12q-22 0 -31.5 -16.5t-9.5 -48.5h-50v23q0 41 25 69t62 28q21 0 37.5 -8.5t41.5 -26.5l39 -28q16 -12 34 -12q22 0 31 17t9 48h50v-23q0 -41 -25 -69t-62 -28zM-19 -225v55h117v870h90l385 -593v593h70v-700
h-85l-390 603v-828h-187z" />
    <glyph glyph-name="Nacute.fina" horiz-adv-x="739" 
d="M343 765l53 125h90l-83 -125h-60zM-20 -225v55h117v870h90l385 -593v593h70v-700h-85l-390 603v-828h-187z" />
    <glyph glyph-name="Ncaron.fina" horiz-adv-x="739" 
d="M337 765l-115 125h68l92 -72l92 72h68l-115 -125h-90zM-20 -225v55h117v870h90l385 -593v593h70v-700h-85l-390 603v-828h-187z" />
    <glyph glyph-name="P.fina" horiz-adv-x="633" 
d="M167 635v-282h195q73 0 119 34.5t46 105.5t-46 106.5t-119 35.5h-195zM-20 -225v55h117v870h280q45 0 85 -13.5t70 -39.5t47.5 -65t17.5 -89t-17.5 -88.5t-47.5 -64.5t-70 -39t-85 -13h-210v-513h-187z" />
    <glyph glyph-name="Q.fina" horiz-adv-x="748" 
d="M-20 -225v55h308q26 0 38 12t12 38v112q-62 6 -114 33.5t-89.5 73t-59 109.5t-21.5 142q0 84 24 151t67 113.5t101.5 71t127.5 24.5t127.5 -24.5t101.5 -71t67 -113.5t24 -151q0 -79 -21.5 -143t-59 -109.5t-90.5 -72.5t-115 -33v-111q0 -52 -26.5 -79t-78.5 -27h-323z
M124 350q0 -68 18.5 -123t51 -93t77.5 -58.5t98 -20.5h10q53 0 98 20.5t77.5 58.5t51 93t18.5 123t-18.5 123t-51 93t-77.5 58.5t-98 20.5h-10q-53 0 -98 -20.5t-77.5 -58.5t-51 -93t-18.5 -123z" />
    <glyph glyph-name="R.fina" horiz-adv-x="675" 
d="M373 635h-206v-275h206q30 0 58 10t49 28.5t34 45t13 59.5q0 62 -41 97t-113 35zM-20 -225v55h537v420q0 22 -11.5 33.5t-33.5 11.5h-305v-295h-70v700h286q46 0 85.5 -14t68 -39t44.5 -59.5t16 -74.5q0 -60 -29 -104.5t-77 -63.5h7q49 0 69 -23t20 -72v-475h-607z" />
    <glyph glyph-name="Racute.fina" horiz-adv-x="675" 
d="M302 765l53 125h90l-83 -125h-60zM373 635h-206v-275h206q30 0 58 10t49 28.5t34 45t13 59.5q0 62 -41 97t-113 35zM-20 -225v55h537v420q0 22 -11.5 33.5t-33.5 11.5h-305v-295h-70v700h286q46 0 85.5 -14t68 -39t44.5 -59.5t16 -74.5q0 -60 -29 -104.5t-77 -63.5h7
q49 0 69 -23t20 -72v-475h-607z" />
    <glyph glyph-name="Rcommaaccent.fina" horiz-adv-x="675" 
d="M373 635h-206v-275h206q30 0 58 10t49 28.5t34 45t13 59.5q0 62 -41 97t-113 35zM434 -225v55h83v420q0 22 -11.5 33.5t-33.5 11.5h-305v-295h-70v700h286q46 0 85.5 -14t68 -39t44.5 -59.5t16 -74.5q0 -60 -29 -104.5t-77 -63.5h7q49 0 69 -23t20 -72v-475h-153z
M284 -310v35h5q22 0 33.5 10t11.5 30v10h-354v55h389v-65q0 -34 -21 -54.5t-54 -20.5h-10z" />
    <glyph glyph-name="Rcaron.fina" horiz-adv-x="675" 
d="M296 765l-115 125h68l92 -72l92 72h68l-115 -125h-90zM373 635h-206v-275h206q30 0 58 10t49 28.5t34 45t13 59.5q0 62 -41 97t-113 35zM-20 -225v55h537v420q0 22 -11.5 33.5t-33.5 11.5h-305v-295h-70v700h286q46 0 85.5 -14t68 -39t44.5 -59.5t16 -74.5
q0 -60 -29 -104.5t-77 -63.5h7q49 0 69 -23t20 -72v-475h-607z" />
    <glyph glyph-name="S.fina" horiz-adv-x="618" 
d="M-20 -225v55h252v225h74q83 0 131.5 35t48.5 95q0 49 -32 78t-98 42l-112 23q-79 16 -123 60.5t-44 121.5q0 41 16.5 77.5t47.5 63.5t75.5 43t100.5 16q111 0 178.5 -58t71.5 -157h-70q-4 69 -53.5 109.5t-121.5 40.5h-10q-72 0 -118.5 -38.5t-46.5 -95.5q0 -47 31.5 -75
t84.5 -38l112 -22q86 -17 133.5 -63t47.5 -124q0 -94 -68 -146.5t-191 -52.5v-215h-317z" />
    <glyph glyph-name="Sacute.fina" horiz-adv-x="618" 
d="M288 765l53 125h90l-83 -125h-60zM-20 -225v55h252v225h74q83 0 131.5 35t48.5 95q0 49 -32 78t-98 42l-112 23q-79 16 -123 60.5t-44 121.5q0 41 16.5 77.5t47.5 63.5t75.5 43t100.5 16q111 0 178.5 -58t71.5 -157h-70q-4 69 -53.5 109.5t-121.5 40.5h-10
q-72 0 -118.5 -38.5t-46.5 -95.5q0 -47 31.5 -75t84.5 -38l112 -22q86 -17 133.5 -63t47.5 -124q0 -94 -68 -146.5t-191 -52.5v-215h-317z" />
    <glyph glyph-name="Scircumflex.fina" horiz-adv-x="618" 
d="M409 770l-92 72l-92 -72h-68l115 125h90l115 -125h-68zM-20 -225v55h252v225h74q83 0 131.5 35t48.5 95q0 49 -32 78t-98 42l-112 23q-79 16 -123 60.5t-44 121.5q0 41 16.5 77.5t47.5 63.5t75.5 43t100.5 16q111 0 178.5 -58t71.5 -157h-70q-4 69 -53.5 109.5
t-121.5 40.5h-10q-72 0 -118.5 -38.5t-46.5 -95.5q0 -47 31.5 -75t84.5 -38l112 -22q86 -17 133.5 -63t47.5 -124q0 -94 -68 -146.5t-191 -52.5v-215h-317z" />
    <glyph glyph-name="Scedilla.fina" horiz-adv-x="618" 
d="M303 -225h-323v55h324q20 0 34.5 11t14.5 33t-14.5 32.5t-34.5 10.5h-28v74q-112 8 -173 68t-61 161h70q0 -79 56 -122t143 -43h10q80 0 122.5 38t42.5 92q0 49 -32 78t-98 42l-112 23q-79 16 -123 60.5t-44 121.5q0 41 16.5 77.5t47.5 63.5t75.5 43t100.5 16
q111 0 178.5 -58t71.5 -157h-70q-4 69 -53.5 109.5t-121.5 40.5h-10q-72 0 -118.5 -38.5t-46.5 -95.5q0 -47 31.5 -75t84.5 -38l112 -22q86 -17 133.5 -63t47.5 -124q0 -90 -63.5 -143.5t-171.5 -55.5v-35q32 1 57 -21.5t25 -59.5q0 -41 -25.5 -70t-74.5 -29z" />
    <glyph glyph-name="Scaron.fina" horiz-adv-x="618" 
d="M277 765l-115 125h68l92 -72l92 72h68l-115 -125h-90zM-20 -225v55h252v225h74q83 0 131.5 35t48.5 95q0 49 -32 78t-98 42l-112 23q-79 16 -123 60.5t-44 121.5q0 41 16.5 77.5t47.5 63.5t75.5 43t100.5 16q111 0 178.5 -58t71.5 -157h-70q-4 69 -53.5 109.5
t-121.5 40.5h-10q-72 0 -118.5 -38.5t-46.5 -95.5q0 -47 31.5 -75t84.5 -38l112 -22q86 -17 133.5 -63t47.5 -124q0 -94 -68 -146.5t-191 -52.5v-215h-317z" />
    <glyph glyph-name="T.fina" horiz-adv-x="610" 
d="M-20 -225v55h290v805h-255v65h580v-65h-255v-860h-360z" />
    <glyph glyph-name="uni0162.fina" horiz-adv-x="610" 
d="M397 -126q0 -41 -25.5 -70t-74.5 -29h-317v55h318q20 0 34.5 11t14.5 33t-14.5 32.5t-34.5 10.5h-28v718h-255v65h580v-65h-255v-635h-25v-45q32 1 57 -21.5t25 -59.5z" />
    <glyph glyph-name="Tcaron.fina" horiz-adv-x="610" 
d="M260 765l-115 125h68l92 -72l92 72h68l-115 -125h-90zM-20 -225v55h290v805h-255v65h580v-65h-255v-860h-360z" />
    <glyph glyph-name="X.fina" horiz-adv-x="702" 
d="M-20 -225v55h669l-338 471l-218 -301h-81l258 357l-246 343h83l205 -285l206 285h81l-247 -341l420 -584h-792z" />
    <glyph glyph-name="Y.fina" horiz-adv-x="567" 
d="M-20 -225v55h282v460l-255 410h79l212 -346l212 346h77l-255 -410v-515h-352z" />
    <glyph glyph-name="Yacute.fina" horiz-adv-x="567" 
d="M273 765l53 125h90l-83 -125h-60zM-20 -225v55h282v460l-255 410h79l212 -346l212 346h77l-255 -410v-515h-352z" />
    <glyph glyph-name="Ycircumflex.fina" horiz-adv-x="567" 
d="M389 765l-92 72l-92 -72h-68l115 125h90l115 -125h-68zM-20 -225v55h282v460l-255 410h79l212 -346l212 346h77l-255 -410v-515h-352z" />
    <glyph glyph-name="Ydieresis.fina" horiz-adv-x="567" 
d="M164 780v80h80v-80h-80zM350 780v80h80v-80h-80zM-20 -225v55h282v460l-255 410h79l212 -346l212 346h77l-255 -410v-515h-352z" />
    <glyph glyph-name="Ymacron.fina" horiz-adv-x="567" 
d="M160 780v55h275v-55h-275zM-20 -225v55h282v460l-255 410h79l212 -346l212 346h77l-255 -410v-515h-352z" />
    <glyph glyph-name="Ygrave.fina" horiz-adv-x="567" 
d="M276 890l53 -125h-60l-83 125h90zM-20 -225v55h282v460l-255 410h79l212 -346l212 346h77l-255 -410v-515h-352z" />
    <glyph glyph-name="Z.fina" horiz-adv-x="596" 
d="M-20 -225v55h511v170h-450v74l426 561h-416v65h495v-69l-429 -566h439v-290h-576z" />
    <glyph glyph-name="Zacute.fina" horiz-adv-x="596" 
d="M261 770l53 125h90l-83 -125h-60zM-20 -225v55h511v170h-450v74l426 561h-416v65h495v-69l-429 -566h439v-290h-576z" />
    <glyph glyph-name="Zdotaccent.fina" horiz-adv-x="596" 
d="M268 780v85h75v-85h-75zM-20 -225v55h511v170h-450v74l426 561h-416v65h495v-69l-429 -566h439v-290h-576z" />
    <glyph glyph-name="Zcaron.fina" horiz-adv-x="596" 
d="M251 765l-115 125h68l92 -72l92 72h68l-115 -125h-90zM-20 -225v55h511v170h-450v74l426 561h-416v65h495v-69l-429 -566h439v-290h-576z" />
    <glyph glyph-name="AE.fina" horiz-adv-x="984" 
d="M507 258l-53 384l-226 -384h279zM-20 -225v55h912v170h-350l-26 193h-326l-114 -193h-79l415 700h485v-65h-373l33 -242h310v-65h-301l35 -263h356v-290h-977z" />
    <glyph glyph-name="AEmacron.fina" horiz-adv-x="984" 
d="M504 780v55h275v-55h-275zM507 258l-53 384l-226 -384h279zM-20 -225v55h912v170h-350l-26 193h-326l-114 -193h-79l415 700h485v-65h-373l33 -242h310v-65h-301l35 -263h356v-290h-977z" />
    <glyph glyph-name="AEacute.fina" horiz-adv-x="984" 
d="M588 765l53 125h90l-83 -125h-60zM507 258l-53 384l-226 -384h279zM-20 -225v55h912v170h-350l-26 193h-326l-114 -193h-79l415 700h485v-65h-373l33 -242h310v-65h-301l35 -263h356v-290h-977z" />
    <glyph glyph-name="Thorn.fina" horiz-adv-x="635" 
d="M167 485v-270h201q75 0 117 32t42 104t-42 103t-117 31h-201zM-20 -225v55h117v870h70v-150h221q93 0 151 -51.5t58 -147.5t-58 -148.5t-151 -52.5h-221v-375h-187z" />
    <glyph glyph-name="Hbar.fina" horiz-adv-x="735" 
d="M565 383v137h-395v-137h395zM-20 -225v55h585v488h-395v-318h-70v520h-70v60h70v120h70v-120h395v120h70v-120h70v-60h-70v-745h-655z" />
    <glyph glyph-name="IJ.fina" horiz-adv-x="549" 
d="M-20 -225v55h317q47 0 68.5 30.5t21.5 84.5v755h70v-742q0 -91 -42 -137t-117 -46h-318zM72 0v700h70v-700h-70z" />
    <glyph glyph-name="Ldot.fina" horiz-adv-x="602" 
d="M377 325v85h75v-85h-75zM-20 -225v55h541v170h-424v700h70v-635h419v-290h-606z" />
    <glyph glyph-name="Lslash.fina" horiz-adv-x="620" 
d="M-20 -225v55h559v170h-424v279l-95 -54v71l95 54v350h70v-311l194 110v-70l-194 -110v-254h419v-290h-624z" />
    <glyph glyph-name="OE.fina" horiz-adv-x="1168" 
d="M379 55q100 0 168 71t76 193v62q-8 122 -76 193t-168 71h-10q-53 0 -98 -20.5t-77.5 -58.5t-51 -93t-18.5 -123t18.5 -123t51 -93t77.5 -58.5t98 -20.5h10zM-20 -225v55h1077v170h-434v110q-43 -57 -107.5 -88.5t-141.5 -31.5q-69 0 -127.5 24.5t-101.5 71t-67 113.5
t-24 151t24 151t67 113.5t101.5 71t127.5 24.5q77 0 141.5 -31.5t107.5 -88.5v110h489v-65h-419v-242h359v-65h-358q-1 -3 -1 -5v-6v-252h429v-290h-1142z" />
    <glyph glyph-name="Tbar.fina" horiz-adv-x="642" 
d="M-20 -225v55h306v520h-190v60h190v225h-255v65h580v-65h-255v-225h190v-60h-190v-575h-376z" />
    <glyph glyph-name="A.init" horiz-adv-x="697" 
d="M510 258l-153 378l-153 -378h306zM-64 -225l379 925h88l285 -700h-74l-78 193h-359l-147 -363h697v-55h-791z" />
    <glyph glyph-name="Agrave.init" horiz-adv-x="697" 
d="M324 890l53 -125h-60l-83 125h90zM510 258l-153 378l-153 -378h306zM-64 -225l379 925h88l285 -700h-74l-78 193h-359l-147 -363h697v-55h-791z" />
    <glyph glyph-name="Aacute.init" horiz-adv-x="697" 
d="M323 765l53 125h90l-83 -125h-60zM510 258l-153 378l-153 -378h306zM-64 -225l379 925h88l285 -700h-74l-78 193h-359l-147 -363h697v-55h-791z" />
    <glyph glyph-name="Acircumflex.init" horiz-adv-x="697" 
d="M448 765l-92 72l-92 -72h-68l115 125h90l115 -125h-68zM510 258l-153 378l-153 -378h306zM-64 -225l379 925h88l285 -700h-74l-78 193h-359l-147 -363h697v-55h-791z" />
    <glyph glyph-name="Atilde.init" horiz-adv-x="697" 
d="M435 760q-19 0 -35.5 8.5t-42.5 26.5q-21 16 -37.5 28t-35.5 12q-22 0 -31.5 -16.5t-9.5 -48.5h-50v23q0 41 25 69t62 28q21 0 37.5 -8.5t41.5 -26.5l39 -28q16 -12 34 -12q22 0 31 17t9 48h50v-23q0 -41 -25 -69t-62 -28zM510 258l-153 378l-153 -378h306zM-64 -225
l379 925h88l285 -700h-74l-78 193h-359l-147 -363h697v-55h-791z" />
    <glyph glyph-name="Adieresis.init" horiz-adv-x="697" 
d="M223 780v80h80v-80h-80zM409 780v80h80v-80h-80zM510 258l-153 378l-153 -378h306zM-64 -225l379 925h88l285 -700h-74l-78 193h-359l-147 -363h697v-55h-791z" />
    <glyph glyph-name="Aring.init" horiz-adv-x="697" 
d="M277 838q0 34 24 56.5t55 22.5t55 -22.5t24 -56.5t-24 -56.5t-55 -22.5t-55 22.5t-24 56.5zM357 872q-13 0 -23.5 -10.5t-10.5 -23.5t10.5 -23.5t23.5 -10.5t22.5 10.5t9.5 23.5t-9.5 23.5t-22.5 10.5zM510 258l-153 378l-153 -378h306zM-64 -225l379 925h88l285 -700
h-74l-78 193h-359l-147 -363h697v-55h-791z" />
    <glyph glyph-name="Amacron.init" horiz-adv-x="697" 
d="M221 780v55h275v-55h-275zM510 258l-153 378l-153 -378h306zM-64 -225l379 925h88l285 -700h-74l-78 193h-359l-147 -363h697v-55h-791z" />
    <glyph glyph-name="Abreve.init" horiz-adv-x="697" 
d="M358 755q-63 0 -104 34.5t-41 100.5h55q4 -43 28.5 -61.5t61.5 -18.5t61.5 18.5t28.5 61.5h55q0 -66 -41 -100.5t-104 -34.5zM510 258l-153 378l-153 -378h306zM-64 -225l379 925h88l285 -700h-74l-78 193h-359l-147 -363h697v-55h-791z" />
    <glyph glyph-name="Aogonek.init" horiz-adv-x="697" 
d="M510 258l-153 378l-153 -378h306zM-64 -225l379 925h88l285 -700q-46 -29 -66.5 -58.5t-20.5 -56.5q0 -31 17.5 -43t37.5 -12h71v-55h-71q-54 0 -79.5 25t-25.5 68q0 34 24 70.5t68 61.5h-29l-78 193h-359l-147 -363h462v-55h-556z" />
    <glyph glyph-name="Aringacute.init" horiz-adv-x="697" 
d="M336 928l39 88h70l-60 -88h-49zM290 828q0 30 21 49.5t48 19.5t48 -19.5t21 -49.5t-21 -49.5t-48 -19.5t-48 19.5t-21 49.5zM360 852q-10 0 -17 -7t-7 -17t7 -17t17 -7q9 0 16 7t7 17t-7 17t-16 7zM510 258l-153 378l-153 -378h306zM-64 -225l379 925h88l285 -700h-74
l-78 193h-359l-147 -363h697v-55h-791z" />
    <glyph glyph-name="uni0226.init" horiz-adv-x="697" 
d="M319 780v85h75v-85h-75zM510 258l-153 378l-153 -378h306zM-64 -225l379 925h88l285 -700h-74l-78 193h-359l-147 -363h697v-55h-791z" />
    <glyph glyph-name="uni1EA0.init" horiz-adv-x="697" 
d="M510 258l-153 378l-153 -378h306zM-64 -225l379 925h88l285 -700h-74l-78 193h-359l-147 -363h231v-55h-325zM326 -225v75h65v-75h-65zM456 -225v55h271v-55h-271z" />
    <glyph glyph-name="C.init" horiz-adv-x="694" 
d="M389 -225v215q-80 0 -142.5 27.5t-105 76t-65 114.5t-22.5 142t22 142.5t63.5 114.5t101 75.5t133.5 27.5q54 0 102.5 -15.5t84.5 -44.5t58 -71t25 -94h-70q-3 38 -19.5 68t-43 50.5t-61 31t-71.5 10.5h-10q-60 0 -106 -23.5t-76.5 -63.5t-46.5 -94t-16 -114
q0 -61 17 -115t49.5 -94t81.5 -63t112 -23h70v-225h260v-55h-325z" />
    <glyph glyph-name="Cacute.init" horiz-adv-x="694" 
d="M345 765l53 125h90l-83 -125h-60zM389 -225v215q-80 0 -142.5 27.5t-105 76t-65 114.5t-22.5 142t22 142.5t63.5 114.5t101 75.5t133.5 27.5q54 0 102.5 -15.5t84.5 -44.5t58 -71t25 -94h-70q-3 38 -19.5 68t-43 50.5t-61 31t-71.5 10.5h-10q-60 0 -106 -23.5
t-76.5 -63.5t-46.5 -94t-16 -114q0 -61 17 -115t49.5 -94t81.5 -63t112 -23h70v-225h260v-55h-325z" />
    <glyph glyph-name="Ccircumflex.init" horiz-adv-x="694" 
d="M466 765l-92 72l-92 -72h-68l115 125h90l115 -125h-68zM389 -225v215q-80 0 -142.5 27.5t-105 76t-65 114.5t-22.5 142t22 142.5t63.5 114.5t101 75.5t133.5 27.5q54 0 102.5 -15.5t84.5 -44.5t58 -71t25 -94h-70q-3 38 -19.5 68t-43 50.5t-61 31t-71.5 10.5h-10
q-60 0 -106 -23.5t-76.5 -63.5t-46.5 -94t-16 -114q0 -61 17 -115t49.5 -94t81.5 -63t112 -23h70v-225h260v-55h-325z" />
    <glyph glyph-name="Cdotaccent.init" horiz-adv-x="694" 
d="M337 780v85h75v-85h-75zM389 -225v215q-80 0 -142.5 27.5t-105 76t-65 114.5t-22.5 142t22 142.5t63.5 114.5t101 75.5t133.5 27.5q54 0 102.5 -15.5t84.5 -44.5t58 -71t25 -94h-70q-3 38 -19.5 68t-43 50.5t-61 31t-71.5 10.5h-10q-60 0 -106 -23.5t-76.5 -63.5
t-46.5 -94t-16 -114q0 -61 17 -115t49.5 -94t81.5 -63t112 -23h70v-225h260v-55h-325z" />
    <glyph glyph-name="Ccaron.init" horiz-adv-x="694" 
d="M327 765l-115 125h68l92 -72l92 72h68l-115 -125h-90zM389 -225v215q-80 0 -142.5 27.5t-105 76t-65 114.5t-22.5 142t22 142.5t63.5 114.5t101 75.5t133.5 27.5q54 0 102.5 -15.5t84.5 -44.5t58 -71t25 -94h-70q-3 38 -19.5 68t-43 50.5t-61 31t-71.5 10.5h-10
q-60 0 -106 -23.5t-76.5 -63.5t-46.5 -94t-16 -114q0 -61 17 -115t49.5 -94t81.5 -63t112 -23h70v-225h260v-55h-325z" />
    <glyph glyph-name="E.init" horiz-adv-x="642" 
d="M531 -225v225h-434v700h489v-65h-419v-242h359v-65h-359v-263h429v-235h66v-55h-131z" />
    <glyph glyph-name="Egrave.init" horiz-adv-x="642" 
d="M324 890l53 -125h-60l-83 125h90zM531 -225v225h-434v700h489v-65h-419v-242h359v-65h-359v-263h429v-235h66v-55h-131z" />
    <glyph glyph-name="Eacute.init" horiz-adv-x="642" 
d="M307 765l53 125h90l-83 -125h-60zM531 -225v225h-434v700h489v-65h-419v-242h359v-65h-359v-263h429v-235h66v-55h-131z" />
    <glyph glyph-name="Ecircumflex.init" horiz-adv-x="642" 
d="M431 765l-92 72l-92 -72h-68l115 125h90l115 -125h-68zM531 -225v225h-434v700h489v-65h-419v-242h359v-65h-359v-263h429v-235h66v-55h-131z" />
    <glyph glyph-name="Edieresis.init" horiz-adv-x="642" 
d="M206 780v80h80v-80h-80zM392 780v80h80v-80h-80zM531 -225v225h-434v700h489v-65h-419v-242h359v-65h-359v-263h429v-235h66v-55h-131z" />
    <glyph glyph-name="Emacron.init" horiz-adv-x="642" 
d="M211 780v55h275v-55h-275zM531 -225v225h-434v700h489v-65h-419v-242h359v-65h-359v-263h429v-235h66v-55h-131z" />
    <glyph glyph-name="Ebreve.init" horiz-adv-x="642" 
d="M339 755q-63 0 -104 34.5t-41 100.5h55q4 -43 28.5 -61.5t61.5 -18.5t61.5 18.5t28.5 61.5h55q0 -66 -41 -100.5t-104 -34.5zM531 -225v225h-434v700h489v-65h-419v-242h359v-65h-359v-263h429v-235h66v-55h-131z" />
    <glyph glyph-name="Edotaccent.init" horiz-adv-x="642" 
d="M311 780v85h75v-85h-75zM531 -225v225h-434v700h489v-65h-419v-242h359v-65h-359v-263h429v-235h66v-55h-131z" />
    <glyph glyph-name="Eogonek.init" horiz-adv-x="642" 
d="M564 -225q-54 0 -79.5 25t-25.5 68q0 34 24 70.5t68 61.5h-454v700h489v-65h-419v-242h359v-65h-359v-263h429v-65q-46 -29 -66.5 -58.5t-20.5 -56.5q0 -31 17.5 -43t37.5 -12h98v-55h-98z" />
    <glyph glyph-name="Ecaron.init" horiz-adv-x="642" 
d="M294 765l-115 125h68l92 -72l92 72h68l-115 -125h-90zM531 -225v225h-434v700h489v-65h-419v-242h359v-65h-359v-263h429v-235h66v-55h-131z" />
    <glyph glyph-name="F.init" horiz-adv-x="590" 
d="M97 -225v925h465v-65h-395v-263h344v-65h-344v-477h443v-55h-513z" />
    </font>
</defs>
</svg>
