<svg id="Layer_1" data-name="Layer 1" xmlns="http://www.w3.org/2000/svg" viewBox="0 0 84.68 85.5"><defs><style>.cls-1{stroke:#fff;stroke-linecap:round;stroke-miterlimit:10;stroke-width:0.5px;}</style></defs><title>bg-a-d</title><line class="cls-1" x1="9.78" y1="5.89" x2="0.89" y2="6.85"/><line class="cls-1" x1="31.79" y1="7.28" x2="23.11" y2="9.45"/><line class="cls-1" x1="11.46" y1="9.41" x2="13.3" y2="18.17"/><line class="cls-1" x1="43.01" y1="10.36" x2="43.49" y2="1.42"/><line class="cls-1" x1="56.76" y1="6.83" x2="51.7" y2="14.22"/><line class="cls-1" x1="68.98" y1="13.28" x2="61.92" y2="7.77"/><line class="cls-1" x1="74.99" y1="0.25" x2="79.52" y2="7.97"/><line class="cls-1" x1="2.86" y1="21.58" x2="11.59" y2="23.57"/><line class="cls-1" x1="17.67" y1="27.74" x2="19.9" y2="19.07"/><line class="cls-1" x1="34.02" y1="22.66" x2="29.56" y2="30.42"/><line class="cls-1" x1="47.42" y1="22.27" x2="38.6" y2="20.75"/><line class="cls-1" x1="53.29" y1="28.61" x2="57.75" y2="20.85"/><line class="cls-1" x1="70.41" y1="20.99" x2="65.49" y2="28.47"/><line class="cls-1" x1="82.61" y1="29.8" x2="84.43" y2="21.03"/><line class="cls-1" x1="9.32" y1="52.17" x2="10.06" y2="43.25"/><line class="cls-1" x1="16.64" y1="40.41" x2="24.51" y2="44.68"/><line class="cls-1" x1="29.77" y1="43.07" x2="36.44" y2="37.1"/><line class="cls-1" x1="38.56" y1="42.98" x2="47.47" y2="42.11"/><line class="cls-1" x1="61.53" y1="38.1" x2="54.8" y2="44"/><line class="cls-1" x1="59.04" y1="49.19" x2="67.83" y2="47.48"/><line class="cls-1" x1="75.91" y1="41.4" x2="80.86" y2="33.95"/><line class="cls-1" x1="3.19" y1="58.55" x2="7.48" y2="66.41"/><line class="cls-1" x1="18.55" y1="53.54" x2="19.03" y2="62.48"/><line class="cls-1" x1="29.6" y1="62.48" x2="35.41" y2="55.68"/><line class="cls-1" x1="43.78" y1="54.14" x2="42.24" y2="62.96"/><line class="cls-1" x1="57.08" y1="62.01" x2="51.38" y2="55.1"/><line class="cls-1" x1="72.42" y1="62.25" x2="63.48" y2="62.71"/><line class="cls-1" x1="78.32" y1="52.32" x2="80.72" y2="60.94"/><line class="cls-1" x1="6.53" y1="78.88" x2="0.25" y2="85.25"/><line class="cls-1" x1="21.97" y1="78.81" x2="19.18" y2="70.31"/><line class="cls-1" x1="34.04" y1="79.77" x2="27.97" y2="73.19"/><line class="cls-1" x1="44.1" y1="72.08" x2="42.4" y2="80.87"/><line class="cls-1" x1="57.27" y1="73.82" x2="53.77" y2="82.06"/><line class="cls-1" x1="71.41" y1="84.91" x2="64.49" y2="79.22"/><line class="cls-1" x1="79.79" y1="79.6" x2="81.61" y2="70.84"/></svg>