<svg xmlns="http://www.w3.org/2000/svg" viewBox="0 0 80 80"><defs><style>.cls-1{fill:none;}.cls-2{fill:#fff;}</style></defs><title>Asset 3</title><g id="Layer_2" data-name="Layer 2"><g id="Layer_1-2" data-name="Layer 1"><rect class="cls-1" width="80" height="80"/><circle class="cls-2" cx="7.5" cy="2.5" r="1.65"/><circle class="cls-2" cx="7.5" cy="12.5" r="1.32"/><circle class="cls-2" cx="17.5" cy="12.5" r="1.45"/><circle class="cls-2" cx="27.5" cy="12.5" r="1.93"/><circle class="cls-2" cx="37.5" cy="12.5" r="1.15"/><circle class="cls-2" cx="47.5" cy="12.5" r="1.26"/><circle class="cls-2" cx="57.5" cy="12.5" r="1.95"/><circle class="cls-2" cx="67.5" cy="12.5" r="1.01"/><circle class="cls-2" cx="77.5" cy="12.5" r="1.14"/><circle class="cls-2" cx="7.5" cy="22.5" r="1.77"/><circle class="cls-2" cx="17.5" cy="22.5" r="1.5"/><circle class="cls-2" cx="27.5" cy="22.5" r="1.76"/><circle class="cls-2" cx="37.5" cy="22.5" r="1.41"/><circle class="cls-2" cx="47.5" cy="22.5" r="1.5"/><circle class="cls-2" cx="57.5" cy="22.5" r="0.83"/><circle class="cls-2" cx="67.5" cy="22.5" r="1.04"/><circle class="cls-2" cx="77.5" cy="22.5" r="1.14"/><circle class="cls-2" cx="7.5" cy="32.5" r="1.93"/><circle class="cls-2" cx="17.5" cy="32.5" r="1.03"/><circle class="cls-2" cx="27.5" cy="32.5" r="0.86"/><circle class="cls-2" cx="37.5" cy="32.5" r="1.16"/><circle class="cls-2" cx="47.5" cy="32.5" r="1.15"/><circle class="cls-2" cx="57.5" cy="32.5" r="1.07"/><circle class="cls-2" cx="67.5" cy="32.5" r="0.98"/><circle class="cls-2" cx="77.5" cy="32.5" r="1.36"/><circle class="cls-2" cx="7.5" cy="42.5" r="1.07"/><circle class="cls-2" cx="17.5" cy="42.5" r="1.57"/><circle class="cls-2" cx="27.5" cy="42.5" r="1.35"/><circle class="cls-2" cx="37.5" cy="42.5" r="1.5"/><circle class="cls-2" cx="47.5" cy="42.5" r="1.38"/><circle class="cls-2" cx="57.5" cy="42.5" r="1.84"/><circle class="cls-2" cx="67.5" cy="42.5" r="1.12"/><circle class="cls-2" cx="77.5" cy="42.5" r="1.88"/><circle class="cls-2" cx="7.5" cy="52.5" r="1.75"/><circle class="cls-2" cx="17.5" cy="52.5" r="1.29"/><circle class="cls-2" cx="27.5" cy="52.5" r="1.83"/><circle class="cls-2" cx="37.5" cy="52.5" r="1.22"/><circle class="cls-2" cx="47.5" cy="52.5" r="1.22"/><circle class="cls-2" cx="57.5" cy="52.5" r="1.85"/><circle class="cls-2" cx="67.5" cy="52.5" r="1.22"/><circle class="cls-2" cx="77.5" cy="52.5" r="1.67"/><circle class="cls-2" cx="7.5" cy="62.5" r="1.84"/><circle class="cls-2" cx="17.5" cy="62.5" r="0.87"/><circle class="cls-2" cx="27.5" cy="62.5" r="1.18"/><circle class="cls-2" cx="37.5" cy="62.5" r="1.32"/><circle class="cls-2" cx="47.5" cy="62.5" r="1.95"/><circle class="cls-2" cx="57.5" cy="62.5" r="1.14"/><circle class="cls-2" cx="67.5" cy="62.5" r="1.67"/><circle class="cls-2" cx="77.5" cy="62.5" r="0.87"/><circle class="cls-2" cx="7.5" cy="72.5" r="1.71"/><circle class="cls-2" cx="17.5" cy="72.5" r="1.16"/><circle class="cls-2" cx="27.5" cy="72.5" r="1.85"/><circle class="cls-2" cx="37.5" cy="72.5" r="1.41"/><circle class="cls-2" cx="47.5" cy="72.5" r="1.48"/><circle class="cls-2" cx="57.5" cy="72.5" r="1.77"/><circle class="cls-2" cx="67.5" cy="72.5" r="1.78"/><circle class="cls-2" cx="77.5" cy="72.5" r="1.93"/><circle class="cls-2" cx="17.5" cy="2.5" r="1.35"/><circle class="cls-2" cx="27.5" cy="2.5" r="0.91"/><circle class="cls-2" cx="37.5" cy="2.5" r="1.94"/><circle class="cls-2" cx="47.5" cy="2.5" r="0.93"/><circle class="cls-2" cx="57.49" cy="2.5" r="1.43"/><circle class="cls-2" cx="67.49" cy="2.5" r="1.48"/><circle class="cls-2" cx="77.49" cy="2.5" r="1.21"/></g></g></svg>