<svg id="Layer_1" data-name="Layer 1" xmlns="http://www.w3.org/2000/svg" viewBox="0 0 80 80"><defs><style>.cls-1{fill:none;}</style></defs><title>bg-b-l</title><rect class="cls-1" width="80" height="80"/><circle cx="7.5" cy="2.5" r="1.65"/><circle cx="7.5" cy="12.5" r="1.32"/><circle cx="17.5" cy="12.5" r="1.45"/><circle cx="27.5" cy="12.5" r="1.93"/><circle cx="37.5" cy="12.5" r="1.15"/><circle cx="47.5" cy="12.5" r="1.26"/><circle cx="57.5" cy="12.5" r="1.95"/><circle cx="67.5" cy="12.5" r="1.01"/><circle cx="77.5" cy="12.5" r="1.14"/><circle cx="7.5" cy="22.5" r="1.77"/><circle cx="17.5" cy="22.5" r="1.5"/><circle cx="27.5" cy="22.5" r="1.76"/><circle cx="37.5" cy="22.5" r="1.41"/><circle cx="47.5" cy="22.5" r="1.5"/><circle cx="57.5" cy="22.5" r="0.83"/><circle cx="67.5" cy="22.5" r="1.04"/><circle cx="77.5" cy="22.5" r="1.14"/><circle cx="7.5" cy="32.5" r="1.93"/><circle cx="17.5" cy="32.5" r="1.03"/><circle cx="27.5" cy="32.5" r="0.86"/><circle cx="37.5" cy="32.5" r="1.16"/><circle cx="47.5" cy="32.5" r="1.15"/><circle cx="57.5" cy="32.5" r="1.07"/><circle cx="67.5" cy="32.5" r="0.98"/><circle cx="77.5" cy="32.5" r="1.36"/><circle cx="7.5" cy="42.5" r="1.07"/><circle cx="17.5" cy="42.5" r="1.57"/><circle cx="27.5" cy="42.5" r="1.35"/><circle cx="37.5" cy="42.5" r="1.5"/><circle cx="47.5" cy="42.5" r="1.38"/><circle cx="57.5" cy="42.5" r="1.84"/><circle cx="67.5" cy="42.5" r="1.12"/><circle cx="77.5" cy="42.5" r="1.88"/><circle cx="7.5" cy="52.5" r="1.75"/><circle cx="17.5" cy="52.5" r="1.29"/><circle cx="27.5" cy="52.5" r="1.83"/><circle cx="37.5" cy="52.5" r="1.22"/><circle cx="47.5" cy="52.5" r="1.22"/><circle cx="57.5" cy="52.5" r="1.85"/><circle cx="67.5" cy="52.5" r="1.22"/><circle cx="77.5" cy="52.5" r="1.67"/><circle cx="7.5" cy="62.5" r="1.84"/><circle cx="17.5" cy="62.5" r="0.87"/><circle cx="27.5" cy="62.5" r="1.18"/><circle cx="37.5" cy="62.5" r="1.32"/><circle cx="47.5" cy="62.5" r="1.95"/><circle cx="57.5" cy="62.5" r="1.14"/><circle cx="67.5" cy="62.5" r="1.67"/><circle cx="77.5" cy="62.5" r="0.87"/><circle cx="7.5" cy="72.5" r="1.71"/><circle cx="17.5" cy="72.5" r="1.16"/><circle cx="27.5" cy="72.5" r="1.85"/><circle cx="37.5" cy="72.5" r="1.41"/><circle cx="47.5" cy="72.5" r="1.48"/><circle cx="57.5" cy="72.5" r="1.77"/><circle cx="67.5" cy="72.5" r="1.78"/><circle cx="77.5" cy="72.5" r="1.93"/><circle cx="17.5" cy="2.5" r="1.35"/><circle cx="27.5" cy="2.5" r="0.91"/><circle cx="37.5" cy="2.5" r="1.94"/><circle cx="47.5" cy="2.5" r="0.93"/><circle cx="57.49" cy="2.5" r="1.43"/><circle cx="67.49" cy="2.5" r="1.48"/><circle cx="77.49" cy="2.5" r="1.21"/></svg>